<?xml version="1.0" encoding="UTF-8" standalone="no"?>
<!DOCTYPE svg PUBLIC "-//W3C//DTD SVG 1.1//EN"
 "http://www.w3.org/Graphics/SVG/1.1/DTD/svg11.dtd">
<!-- Generated by graphviz version 7.0.5 (20221231.0122)
 -->
<!-- Title: AccumulateMD Pages: 1 -->
<svg width="764pt" height="662pt"
 viewBox="0.00 0.00 764.00 662.00" xmlns="http://www.w3.org/2000/svg" xmlns:xlink="http://www.w3.org/1999/xlink">
<g id="graph0" class="graph" transform="scale(1 1) rotate(0) translate(4 658)">
<title>AccumulateMD</title>
<polygon fill="white" stroke="none" points="-4,4 -4,-658 760,-658 760,4 -4,4"/>
<text text-anchor="middle" x="378" y="-638.8" font-family="Helvetica,sans-Serif" font-size="14.00">AccumulateMD Flowchart</text>
<!-- DataSources -->
<g id="node1" class="node">
<title>DataSources</title>
<ellipse fill="khaki" stroke="black" cx="496" cy="-613" rx="67.69" ry="18"/>
<text text-anchor="middle" x="496" y="-609.3" font-family="Helvetica,sans-Serif" font-size="14.00">DataSources</text>
</g>
<!-- existYet -->
<g id="node8" class="node">
<title>existYet</title>
<polygon fill="limegreen" stroke="black" points="581,-558 406,-520 581,-482 756,-520 581,-558"/>
<text text-anchor="middle" x="581" y="-523.8" font-family="Helvetica,sans-Serif" font-size="14.00">Do any of these</text>
<text text-anchor="middle" x="581" y="-508.8" font-family="Helvetica,sans-Serif" font-size="14.00">DataSources exist yet?</text>
</g>
<!-- DataSources&#45;&gt;existYet -->
<g id="edge1" class="edge">
<title>DataSources&#45;&gt;existYet</title>
<path fill="none" stroke="black" d="M511.59,-595.31C520.78,-585.47 532.82,-572.58 544.29,-560.3"/>
<polygon fill="black" stroke="black" points="546.8,-562.75 551.06,-553.05 541.68,-557.97 546.8,-562.75"/>
</g>
<!-- OutputWorkspace -->
<g id="node2" class="node">
<title>OutputWorkspace</title>
<ellipse fill="khaki" stroke="black" cx="527" cy="-18" rx="91.78" ry="18"/>
<text text-anchor="middle" x="527" y="-14.3" font-family="Helvetica,sans-Serif" font-size="14.00">OutputWorkspace</text>
</g>
<!-- InputWorkspace -->
<g id="node3" class="node">
<title>InputWorkspace</title>
<ellipse fill="khaki" stroke="black" cx="665" cy="-613" rx="83.69" ry="18"/>
<text text-anchor="middle" x="665" y="-609.3" font-family="Helvetica,sans-Serif" font-size="14.00">InputWorkspace</text>
</g>
<!-- InputWorkspace&#45;&gt;existYet -->
<g id="edge2" class="edge">
<title>InputWorkspace&#45;&gt;existYet</title>
<path fill="none" stroke="black" d="M649.2,-594.88C640.16,-585.09 628.44,-572.39 617.26,-560.28"/>
<polygon fill="black" stroke="black" points="620.03,-558.12 610.68,-553.15 614.89,-562.87 620.03,-558.12"/>
</g>
<!-- Clean -->
<g id="node4" class="node">
<title>Clean</title>
<ellipse fill="khaki" stroke="black" cx="352" cy="-520" rx="36.29" ry="18"/>
<text text-anchor="middle" x="352" y="-516.3" font-family="Helvetica,sans-Serif" font-size="14.00">Clean</text>
</g>
<!-- createClean -->
<g id="node9" class="node">
<title>createClean</title>
<polygon fill="limegreen" stroke="black" points="384,-431 280.27,-413 384,-395 487.73,-413 384,-431"/>
<text text-anchor="middle" x="384" y="-409.3" font-family="Helvetica,sans-Serif" font-size="14.00">Is Clean true?</text>
</g>
<!-- Clean&#45;&gt;createClean -->
<g id="edge3" class="edge">
<title>Clean&#45;&gt;createClean</title>
<path fill="none" stroke="black" d="M357.14,-502.13C362.14,-485.73 369.81,-460.55 375.68,-441.3"/>
<polygon fill="black" stroke="black" points="378.97,-442.52 378.54,-431.93 372.27,-440.48 378.97,-442.52"/>
</g>
<!-- createMD1 -->
<g id="node5" class="node">
<title>createMD1</title>
<path fill="lightskyblue" stroke="black" d="M587,-250C587,-250 505,-250 505,-250 499,-250 493,-244 493,-238 493,-238 493,-226 493,-226 493,-220 499,-214 505,-214 505,-214 587,-214 587,-214 593,-214 599,-220 599,-226 599,-226 599,-238 599,-238 599,-244 593,-250 587,-250"/>
<text text-anchor="middle" x="546" y="-228.3" font-family="Helvetica,sans-Serif" font-size="14.00">CreateMD v1</text>
</g>
<!-- createMD1&#45;&gt;OutputWorkspace -->
<g id="edge8" class="edge">
<title>createMD1&#45;&gt;OutputWorkspace</title>
<path fill="none" stroke="black" d="M547.77,-213.63C549.5,-195.71 552.02,-166.93 553,-142 553.26,-135.34 553.79,-133.62 553,-127 549.74,-99.53 541.97,-68.94 535.77,-47.35"/>
<polygon fill="black" stroke="black" points="539.14,-46.4 532.95,-37.8 532.43,-48.39 539.14,-46.4"/>
</g>
<!-- createMD2 -->
<g id="node6" class="node">
<title>createMD2</title>
<path fill="lightskyblue" stroke="black" d="M274,-196C274,-196 192,-196 192,-196 186,-196 180,-190 180,-184 180,-184 180,-172 180,-172 180,-166 186,-160 192,-160 192,-160 274,-160 274,-160 280,-160 286,-166 286,-172 286,-172 286,-184 286,-184 286,-190 280,-196 274,-196"/>
<text text-anchor="middle" x="233" y="-174.3" font-family="Helvetica,sans-Serif" font-size="14.00">CreateMD v1</text>
</g>
<!-- mergeMD -->
<g id="node7" class="node">
<title>mergeMD</title>
<path fill="lightskyblue" stroke="black" d="M395,-109C395,-109 315,-109 315,-109 309,-109 303,-103 303,-97 303,-97 303,-85 303,-85 303,-79 309,-73 315,-73 315,-73 395,-73 395,-73 401,-73 407,-79 407,-85 407,-85 407,-97 407,-97 407,-103 401,-109 395,-109"/>
<text text-anchor="middle" x="355" y="-87.3" font-family="Helvetica,sans-Serif" font-size="14.00">MergeMD v1</text>
</g>
<!-- createMD2&#45;&gt;mergeMD -->
<g id="edge11" class="edge">
<title>createMD2&#45;&gt;mergeMD</title>
<path fill="none" stroke="black" d="M223.72,-159.67C219.52,-149.24 216.91,-136.23 224,-127 232.71,-115.66 262.65,-107.2 291.71,-101.44"/>
<polygon fill="black" stroke="black" points="292.09,-104.93 301.28,-99.65 290.8,-98.05 292.09,-104.93"/>
<text text-anchor="middle" x="388.5" y="-130.8" font-family="Helvetica,sans-Serif" font-size="14.00">Merge created workspace with InputWorkspace</text>
</g>
<!-- mergeMD&#45;&gt;OutputWorkspace -->
<g id="edge12" class="edge">
<title>mergeMD&#45;&gt;OutputWorkspace</title>
<path fill="none" stroke="black" d="M397.08,-72.63C421.62,-62.5 452.68,-49.68 478.28,-39.11"/>
<polygon fill="black" stroke="black" points="479.57,-42.36 487.48,-35.31 476.9,-35.89 479.57,-42.36"/>
</g>
<!-- existYet&#45;&gt;createClean -->
<g id="edge4" class="edge">
<title>existYet&#45;&gt;createClean</title>
<path fill="none" stroke="black" d="M531.03,-492.37C495.91,-473.65 449.8,-449.07 418.65,-432.47"/>
<polygon fill="black" stroke="black" points="420.51,-429.49 410.04,-427.88 417.22,-435.67 420.51,-429.49"/>
<text text-anchor="middle" x="488.5" y="-452.8" font-family="Helvetica,sans-Serif" font-size="14.00">Yes</text>
</g>
<!-- done1 -->
<g id="node11" class="node">
<title>done1</title>
<polygon fill="grey" stroke="black" points="624.67,-431 555.2,-431 537.33,-395 606.8,-395 624.67,-431"/>
<text text-anchor="middle" x="581" y="-409.3" font-family="Times,serif" font-size="14.00">Done</text>
</g>
<!-- existYet&#45;&gt;done1 -->
<g id="edge5" class="edge">
<title>existYet&#45;&gt;done1</title>
<path fill="none" stroke="black" d="M581,-481.69C581,-468.86 581,-454.72 581,-442.69"/>
<polygon fill="black" stroke="black" points="584.5,-443.01 581,-433.01 577.5,-443.01 584.5,-443.01"/>
<text text-anchor="middle" x="590.5" y="-452.8" font-family="Helvetica,sans-Serif" font-size="14.00">No</text>
</g>
<!-- createClean&#45;&gt;createMD1 -->
<g id="edge7" class="edge">
<title>createClean&#45;&gt;createMD1</title>
<path fill="none" stroke="black" d="M406.36,-398.57C425.96,-386.07 454.45,-366.1 475,-344 498.77,-318.43 519.44,-283.9 532.25,-260.17"/>
<polygon fill="black" stroke="black" points="535.28,-261.92 536.86,-251.44 529.09,-258.65 535.28,-261.92"/>
<text text-anchor="middle" x="467.5" y="-365.8" font-family="Helvetica,sans-Serif" font-size="14.00">Yes</text>
</g>
<!-- newData -->
<g id="node10" class="node">
<title>newData</title>
<polygon fill="limegreen" stroke="black" points="233,-344 0,-306 233,-268 466,-306 233,-344"/>
<text text-anchor="middle" x="233" y="-309.8" font-family="Helvetica,sans-Serif" font-size="14.00">Are any of the DataSources not</text>
<text text-anchor="middle" x="233" y="-294.8" font-family="Helvetica,sans-Serif" font-size="14.00">already in InputWorkspace?</text>
</g>
<!-- createClean&#45;&gt;newData -->
<g id="edge6" class="edge">
<title>createClean&#45;&gt;newData</title>
<path fill="none" stroke="black" d="M363.95,-398.06C344.07,-384.23 312.76,-362.46 285.74,-343.68"/>
<polygon fill="black" stroke="black" points="287.84,-340.87 277.63,-338.04 283.85,-346.62 287.84,-340.87"/>
<text text-anchor="middle" x="340.5" y="-365.8" font-family="Helvetica,sans-Serif" font-size="14.00">No</text>
</g>
<!-- newData&#45;&gt;createMD2 -->
<g id="edge10" class="edge">
<title>newData&#45;&gt;createMD2</title>
<path fill="none" stroke="black" d="M233,-267.54C233,-248.32 233,-225.29 233,-207.54"/>
<polygon fill="black" stroke="black" points="236.5,-207.71 233,-197.71 229.5,-207.71 236.5,-207.71"/>
<text text-anchor="middle" x="313.5" y="-235.8" font-family="Helvetica,sans-Serif" font-size="14.00">Yes &#45; Create workspace</text>
<text text-anchor="middle" x="313.5" y="-220.8" font-family="Helvetica,sans-Serif" font-size="14.00">with new data sources</text>
</g>
<!-- done2 -->
<g id="node12" class="node">
<title>done2</title>
<polygon fill="grey" stroke="black" points="161.67,-196 92.2,-196 74.33,-160 143.8,-160 161.67,-196"/>
<text text-anchor="middle" x="118" y="-174.3" font-family="Times,serif" font-size="14.00">Done</text>
</g>
<!-- newData&#45;&gt;done2 -->
<g id="edge9" class="edge">
<title>newData&#45;&gt;done2</title>
<path fill="none" stroke="black" d="M203.38,-272.55C184.11,-251.43 159.32,-224.27 141.42,-204.66"/>
<polygon fill="black" stroke="black" points="144.07,-202.37 134.75,-197.35 138.9,-207.09 144.07,-202.37"/>
<text text-anchor="middle" x="192.5" y="-228.3" font-family="Helvetica,sans-Serif" font-size="14.00">No</text>
</g>
</g>
</svg>
