<?xml version="1.0" encoding="UTF-8" standalone="no"?>
<!DOCTYPE svg PUBLIC "-//W3C//DTD SVG 1.1//EN"
 "http://www.w3.org/Graphics/SVG/1.1/DTD/svg11.dtd">
<!-- Generated by graphviz version 9.0.0 (20231125.0833)
 -->
<!-- Title: AlignAndFocusPowder Pages: 1 -->
<svg width="803pt" height="2963pt"
 viewBox="0.00 0.00 803.37 2962.75" xmlns="http://www.w3.org/2000/svg" xmlns:xlink="http://www.w3.org/1999/xlink">
<g id="graph0" class="graph" transform="scale(1 1) rotate(0) translate(4 2958.75)">
<title>AlignAndFocusPowder</title>
<polygon fill="white" stroke="none" points="-4,4 -4,-2958.75 799.37,-2958.75 799.37,4 -4,4"/>
<text text-anchor="middle" x="397.68" y="-2937.45" font-family="Helvetica,sans-Serif" font-size="14.00">AlignAndFocusPowder Flowchart</text>
<!-- InputWorkspace -->
<g id="node1" class="node">
<title>InputWorkspace</title>
<ellipse fill="khaki" stroke="black" cx="140.97" cy="-2911.5" rx="90.14" ry="18"/>
<text text-anchor="middle" x="140.97" y="-2906.82" font-family="Helvetica,sans-Serif" font-size="14.00">InputWorkspace</text>
</g>
<!-- maskDetectors -->
<g id="node32" class="node">
<title>maskDetectors</title>
<path fill="lightskyblue" stroke="black" d="M298.22,-2856.5C298.22,-2856.5 181.72,-2856.5 181.72,-2856.5 175.72,-2856.5 169.72,-2850.5 169.72,-2844.5 169.72,-2844.5 169.72,-2832.5 169.72,-2832.5 169.72,-2826.5 175.72,-2820.5 181.72,-2820.5 181.72,-2820.5 298.22,-2820.5 298.22,-2820.5 304.22,-2820.5 310.22,-2826.5 310.22,-2832.5 310.22,-2832.5 310.22,-2844.5 310.22,-2844.5 310.22,-2850.5 304.22,-2856.5 298.22,-2856.5"/>
<text text-anchor="middle" x="239.97" y="-2833.82" font-family="Helvetica,sans-Serif" font-size="14.00">MaskDetectors v1</text>
</g>
<!-- InputWorkspace&#45;&gt;maskDetectors -->
<g id="edge1" class="edge">
<title>InputWorkspace&#45;&gt;maskDetectors</title>
<path fill="none" stroke="black" d="M164.43,-2893.67C176.98,-2884.68 192.64,-2873.45 206.44,-2863.54"/>
<polygon fill="black" stroke="black" points="208.33,-2866.5 214.41,-2857.83 204.25,-2860.81 208.33,-2866.5"/>
</g>
<!-- OutputWorkspace -->
<g id="node2" class="node">
<title>OutputWorkspace</title>
<ellipse fill="khaki" stroke="black" cx="613.97" cy="-18" rx="98.56" ry="18"/>
<text text-anchor="middle" x="613.97" y="-13.32" font-family="Helvetica,sans-Serif" font-size="14.00">OutputWorkspace</text>
</g>
<!-- RemovePromptPulseWidth -->
<g id="node3" class="node">
<title>RemovePromptPulseWidth</title>
<ellipse fill="khaki" stroke="black" cx="469.97" cy="-2762.25" rx="139.07" ry="18"/>
<text text-anchor="middle" x="469.97" y="-2757.57" font-family="Helvetica,sans-Serif" font-size="14.00">RemovePromptPulseWidth</text>
</g>
<!-- removePromptPulse -->
<g id="node38" class="node">
<title>removePromptPulse</title>
<path fill="lightskyblue" stroke="black" d="M432.72,-2704C432.72,-2704 277.22,-2704 277.22,-2704 271.22,-2704 265.22,-2698 265.22,-2692 265.22,-2692 265.22,-2680 265.22,-2680 265.22,-2674 271.22,-2668 277.22,-2668 277.22,-2668 432.72,-2668 432.72,-2668 438.72,-2668 444.72,-2674 444.72,-2680 444.72,-2680 444.72,-2692 444.72,-2692 444.72,-2698 438.72,-2704 432.72,-2704"/>
<text text-anchor="middle" x="354.97" y="-2681.32" font-family="Helvetica,sans-Serif" font-size="14.00">RemovePromptPulse v1</text>
</g>
<!-- RemovePromptPulseWidth&#45;&gt;removePromptPulse -->
<g id="edge4" class="edge">
<title>RemovePromptPulseWidth&#45;&gt;removePromptPulse</title>
<path fill="none" stroke="black" d="M443.59,-2744.22C428.18,-2734.27 408.5,-2721.56 391.6,-2710.65"/>
<polygon fill="black" stroke="black" points="393.6,-2707.78 383.3,-2705.29 389.8,-2713.66 393.6,-2707.78"/>
</g>
<!-- compressTol1 -->
<g id="node4" class="node">
<title>compressTol1</title>
<ellipse fill="khaki" stroke="black" cx="127.97" cy="-2540" rx="105.4" ry="18"/>
<text text-anchor="middle" x="127.97" y="-2535.32" font-family="Helvetica,sans-Serif" font-size="14.00">CompressTolerance</text>
</g>
<!-- compressEvents -->
<g id="node16" class="node">
<title>compressEvents</title>
<path fill="lightskyblue" stroke="black" d="M398.97,-2468.75C398.97,-2468.75 268.97,-2468.75 268.97,-2468.75 262.97,-2468.75 256.97,-2462.75 256.97,-2456.75 256.97,-2456.75 256.97,-2444.75 256.97,-2444.75 256.97,-2438.75 262.97,-2432.75 268.97,-2432.75 268.97,-2432.75 398.97,-2432.75 398.97,-2432.75 404.97,-2432.75 410.97,-2438.75 410.97,-2444.75 410.97,-2444.75 410.97,-2456.75 410.97,-2456.75 410.97,-2462.75 404.97,-2468.75 398.97,-2468.75"/>
<text text-anchor="middle" x="333.97" y="-2446.07" font-family="Helvetica,sans-Serif" font-size="14.00">CompressEvents v1</text>
</g>
<!-- compressTol1&#45;&gt;compressEvents -->
<g id="edge9" class="edge">
<title>compressTol1&#45;&gt;compressEvents</title>
<path fill="none" stroke="black" d="M166.24,-2522.79C198.96,-2508.93 246.34,-2488.86 282.41,-2473.59"/>
<polygon fill="black" stroke="black" points="283.5,-2476.93 291.34,-2469.81 280.77,-2470.48 283.5,-2476.93"/>
</g>
<!-- compressTol2 -->
<g id="node5" class="node">
<title>compressTol2</title>
<ellipse fill="khaki" stroke="black" cx="689.97" cy="-378.5" rx="105.4" ry="18"/>
<text text-anchor="middle" x="689.97" y="-373.82" font-family="Helvetica,sans-Serif" font-size="14.00">CompressTolerance</text>
</g>
<!-- compressEvents2 -->
<g id="node17" class="node">
<title>compressEvents2</title>
<path fill="lightskyblue" stroke="black" d="M660.97,-320.25C660.97,-320.25 530.97,-320.25 530.97,-320.25 524.97,-320.25 518.97,-314.25 518.97,-308.25 518.97,-308.25 518.97,-296.25 518.97,-296.25 518.97,-290.25 524.97,-284.25 530.97,-284.25 530.97,-284.25 660.97,-284.25 660.97,-284.25 666.97,-284.25 672.97,-290.25 672.97,-296.25 672.97,-296.25 672.97,-308.25 672.97,-308.25 672.97,-314.25 666.97,-320.25 660.97,-320.25"/>
<text text-anchor="middle" x="595.97" y="-297.57" font-family="Helvetica,sans-Serif" font-size="14.00">CompressEvents v1</text>
</g>
<!-- compressTol2&#45;&gt;compressEvents2 -->
<g id="edge52" class="edge">
<title>compressTol2&#45;&gt;compressEvents2</title>
<path fill="none" stroke="black" d="M668.64,-360.65C656.2,-350.82 640.3,-338.26 626.54,-327.4"/>
<polygon fill="black" stroke="black" points="629.07,-324.94 619.06,-321.49 624.74,-330.43 629.07,-324.94"/>
</g>
<!-- MaskWorkspace -->
<g id="node6" class="node">
<title>MaskWorkspace</title>
<ellipse fill="khaki" stroke="black" cx="338.97" cy="-2911.5" rx="89.61" ry="18"/>
<text text-anchor="middle" x="338.97" y="-2906.82" font-family="Helvetica,sans-Serif" font-size="14.00">MaskWorkspace</text>
</g>
<!-- MaskWorkspace&#45;&gt;maskDetectors -->
<g id="edge2" class="edge">
<title>MaskWorkspace&#45;&gt;maskDetectors</title>
<path fill="none" stroke="black" d="M315.51,-2893.67C302.97,-2884.68 287.3,-2873.45 273.5,-2863.54"/>
<polygon fill="black" stroke="black" points="275.69,-2860.81 265.53,-2857.83 271.62,-2866.5 275.69,-2860.81"/>
</g>
<!-- MaskBinTable -->
<g id="node7" class="node">
<title>MaskBinTable</title>
<ellipse fill="khaki" stroke="black" cx="539.97" cy="-2686" rx="76.99" ry="18"/>
<text text-anchor="middle" x="539.97" y="-2681.32" font-family="Helvetica,sans-Serif" font-size="14.00">MaskBinTable</text>
</g>
<!-- maskBinsTable -->
<g id="node31" class="node">
<title>maskBinsTable</title>
<path fill="lightskyblue" stroke="black" d="M521.35,-2631C521.35,-2631 372.6,-2631 372.6,-2631 366.6,-2631 360.6,-2625 360.6,-2619 360.6,-2619 360.6,-2607 360.6,-2607 360.6,-2601 366.6,-2595 372.6,-2595 372.6,-2595 521.35,-2595 521.35,-2595 527.35,-2595 533.35,-2601 533.35,-2607 533.35,-2607 533.35,-2619 533.35,-2619 533.35,-2625 527.35,-2631 521.35,-2631"/>
<text text-anchor="middle" x="446.97" y="-2608.32" font-family="Helvetica,sans-Serif" font-size="14.00">MaskBinsFromTable v1</text>
</g>
<!-- MaskBinTable&#45;&gt;maskBinsTable -->
<g id="edge7" class="edge">
<title>MaskBinTable&#45;&gt;maskBinsTable</title>
<path fill="none" stroke="black" d="M518.4,-2668.53C506.66,-2659.57 491.9,-2648.3 478.85,-2638.34"/>
<polygon fill="black" stroke="black" points="481,-2635.57 470.93,-2632.29 476.75,-2641.14 481,-2635.57"/>
</g>
<!-- CalibrationWorkspace -->
<g id="node8" class="node">
<title>CalibrationWorkspace</title>
<ellipse fill="khaki" stroke="black" cx="116.97" cy="-2215.5" rx="116.97" ry="18"/>
<text text-anchor="middle" x="116.97" y="-2210.82" font-family="Helvetica,sans-Serif" font-size="14.00">CalibrationWorkspace</text>
</g>
<!-- applyDiffCal -->
<g id="node14" class="node">
<title>applyDiffCal</title>
<path fill="lightskyblue" stroke="black" d="M329.6,-2144.25C329.6,-2144.25 230.35,-2144.25 230.35,-2144.25 224.35,-2144.25 218.35,-2138.25 218.35,-2132.25 218.35,-2132.25 218.35,-2120.25 218.35,-2120.25 218.35,-2114.25 224.35,-2108.25 230.35,-2108.25 230.35,-2108.25 329.6,-2108.25 329.6,-2108.25 335.6,-2108.25 341.6,-2114.25 341.6,-2120.25 341.6,-2120.25 341.6,-2132.25 341.6,-2132.25 341.6,-2138.25 335.6,-2144.25 329.6,-2144.25"/>
<text text-anchor="middle" x="279.97" y="-2121.57" font-family="Helvetica,sans-Serif" font-size="14.00">ApplyDiffCal v1</text>
</g>
<!-- CalibrationWorkspace&#45;&gt;applyDiffCal -->
<g id="edge18" class="edge">
<title>CalibrationWorkspace&#45;&gt;applyDiffCal</title>
<path fill="none" stroke="black" d="M148.4,-2197.68C173.78,-2184.09 209.73,-2164.85 237.64,-2149.91"/>
<polygon fill="black" stroke="black" points="239.03,-2153.14 246.19,-2145.33 235.72,-2146.97 239.03,-2153.14"/>
</g>
<!-- GroupingWorkspace -->
<g id="node9" class="node">
<title>GroupingWorkspace</title>
<ellipse fill="khaki" stroke="black" cx="666.97" cy="-769.5" rx="109.08" ry="18"/>
<text text-anchor="middle" x="666.97" y="-764.83" font-family="Helvetica,sans-Serif" font-size="14.00">GroupingWorkspace</text>
</g>
<!-- diffFocus -->
<g id="node27" class="node">
<title>diffFocus</title>
<path fill="lightskyblue" stroke="black" d="M579.35,-714.5C579.35,-714.5 424.6,-714.5 424.6,-714.5 418.6,-714.5 412.6,-708.5 412.6,-702.5 412.6,-702.5 412.6,-690.5 412.6,-690.5 412.6,-684.5 418.6,-678.5 424.6,-678.5 424.6,-678.5 579.35,-678.5 579.35,-678.5 585.35,-678.5 591.35,-684.5 591.35,-690.5 591.35,-690.5 591.35,-702.5 591.35,-702.5 591.35,-708.5 585.35,-714.5 579.35,-714.5"/>
<text text-anchor="middle" x="501.97" y="-691.83" font-family="Helvetica,sans-Serif" font-size="14.00">DiffractionFocussing v2</text>
</g>
<!-- GroupingWorkspace&#45;&gt;diffFocus -->
<g id="edge45" class="edge">
<title>GroupingWorkspace&#45;&gt;diffFocus</title>
<path fill="none" stroke="black" d="M629.12,-752.21C606.47,-742.47 577.41,-729.96 552.78,-719.36"/>
<polygon fill="black" stroke="black" points="554.49,-716.29 543.92,-715.55 551.73,-722.72 554.49,-716.29"/>
</g>
<!-- UnwrapRef -->
<g id="node10" class="node">
<title>UnwrapRef</title>
<ellipse fill="khaki" stroke="black" cx="419.97" cy="-1352" rx="64.89" ry="18"/>
<text text-anchor="middle" x="419.97" y="-1347.33" font-family="Helvetica,sans-Serif" font-size="14.00">UnwrapRef</text>
</g>
<!-- unwrapSNS -->
<g id="node39" class="node">
<title>unwrapSNS</title>
<path fill="lightskyblue" stroke="black" d="M468.1,-1277.5C468.1,-1277.5 371.85,-1277.5 371.85,-1277.5 365.85,-1277.5 359.85,-1271.5 359.85,-1265.5 359.85,-1265.5 359.85,-1253.5 359.85,-1253.5 359.85,-1247.5 365.85,-1241.5 371.85,-1241.5 371.85,-1241.5 468.1,-1241.5 468.1,-1241.5 474.1,-1241.5 480.1,-1247.5 480.1,-1253.5 480.1,-1253.5 480.1,-1265.5 480.1,-1265.5 480.1,-1271.5 474.1,-1277.5 468.1,-1277.5"/>
<text text-anchor="middle" x="419.97" y="-1254.83" font-family="Helvetica,sans-Serif" font-size="14.00">UnwrapSNS v1</text>
</g>
<!-- UnwrapRef&#45;&gt;unwrapSNS -->
<g id="edge34" class="edge">
<title>UnwrapRef&#45;&gt;unwrapSNS</title>
<path fill="none" stroke="black" d="M419.97,-1333.55C419.97,-1321.03 419.97,-1303.87 419.97,-1289.33"/>
<polygon fill="black" stroke="black" points="423.47,-1289.41 419.97,-1279.41 416.47,-1289.41 423.47,-1289.41"/>
</g>
<!-- LowResRef -->
<g id="node11" class="node">
<title>LowResRef</title>
<ellipse fill="khaki" stroke="black" cx="560.97" cy="-1107" rx="63.31" ry="18"/>
<text text-anchor="middle" x="560.97" y="-1102.33" font-family="Helvetica,sans-Serif" font-size="14.00">LowResRef</text>
</g>
<!-- removeLowResTOF -->
<g id="node37" class="node">
<title>removeLowResTOF</title>
<path fill="lightskyblue" stroke="black" d="M590.35,-1032.5C590.35,-1032.5 441.6,-1032.5 441.6,-1032.5 435.6,-1032.5 429.6,-1026.5 429.6,-1020.5 429.6,-1020.5 429.6,-1008.5 429.6,-1008.5 429.6,-1002.5 435.6,-996.5 441.6,-996.5 441.6,-996.5 590.35,-996.5 590.35,-996.5 596.35,-996.5 602.35,-1002.5 602.35,-1008.5 602.35,-1008.5 602.35,-1020.5 602.35,-1020.5 602.35,-1026.5 596.35,-1032.5 590.35,-1032.5"/>
<text text-anchor="middle" x="515.97" y="-1009.83" font-family="Helvetica,sans-Serif" font-size="14.00">RemoveLowResTOF v1</text>
</g>
<!-- LowResRef&#45;&gt;removeLowResTOF -->
<g id="edge39" class="edge">
<title>LowResRef&#45;&gt;removeLowResTOF</title>
<path fill="none" stroke="black" d="M552.51,-1088.98C546.07,-1076.04 537.09,-1057.98 529.64,-1043"/>
<polygon fill="black" stroke="black" points="532.81,-1041.5 525.22,-1034.11 526.54,-1044.62 532.81,-1041.5"/>
</g>
<!-- params1 -->
<g id="node12" class="node">
<title>params1</title>
<ellipse fill="khaki" stroke="black" cx="195.97" cy="-2377.75" rx="47" ry="18"/>
<text text-anchor="middle" x="195.97" y="-2373.07" font-family="Helvetica,sans-Serif" font-size="14.00">Params</text>
</g>
<!-- rebin1 -->
<g id="node33" class="node">
<title>rebin1</title>
<path fill="lightskyblue" stroke="black" d="M363.72,-2306.5C363.72,-2306.5 232.22,-2306.5 232.22,-2306.5 226.22,-2306.5 220.22,-2300.5 220.22,-2294.5 220.22,-2294.5 220.22,-2282.5 220.22,-2282.5 220.22,-2276.5 226.22,-2270.5 232.22,-2270.5 232.22,-2270.5 363.72,-2270.5 363.72,-2270.5 369.72,-2270.5 375.72,-2276.5 375.72,-2282.5 375.72,-2282.5 375.72,-2294.5 375.72,-2294.5 375.72,-2300.5 369.72,-2306.5 363.72,-2306.5"/>
<text text-anchor="middle" x="297.97" y="-2283.82" font-family="Helvetica,sans-Serif" font-size="14.00">Rebin or ResampleX</text>
</g>
<!-- params1&#45;&gt;rebin1 -->
<g id="edge14" class="edge">
<title>params1&#45;&gt;rebin1</title>
<path fill="none" stroke="black" d="M214.68,-2360.75C229.86,-2347.76 251.53,-2329.22 268.96,-2314.32"/>
<polygon fill="black" stroke="black" points="271.16,-2317.04 276.48,-2307.88 266.61,-2311.72 271.16,-2317.04"/>
</g>
<!-- params2 -->
<g id="node13" class="node">
<title>params2</title>
<ellipse fill="khaki" stroke="black" cx="642.97" cy="-858.75" rx="47" ry="18"/>
<text text-anchor="middle" x="642.97" y="-854.08" font-family="Helvetica,sans-Serif" font-size="14.00">Params</text>
</g>
<!-- rebin2 -->
<g id="node34" class="node">
<title>rebin2</title>
<path fill="lightskyblue" stroke="black" d="M528.35,-787.5C528.35,-787.5 475.6,-787.5 475.6,-787.5 469.6,-787.5 463.6,-781.5 463.6,-775.5 463.6,-775.5 463.6,-763.5 463.6,-763.5 463.6,-757.5 469.6,-751.5 475.6,-751.5 475.6,-751.5 528.35,-751.5 528.35,-751.5 534.35,-751.5 540.35,-757.5 540.35,-763.5 540.35,-763.5 540.35,-775.5 540.35,-775.5 540.35,-781.5 534.35,-787.5 528.35,-787.5"/>
<text text-anchor="middle" x="501.97" y="-764.83" font-family="Helvetica,sans-Serif" font-size="14.00">Rebin v1</text>
</g>
<!-- params2&#45;&gt;rebin2 -->
<g id="edge43" class="edge">
<title>params2&#45;&gt;rebin2</title>
<path fill="none" stroke="black" d="M619.05,-842.95C597.27,-829.47 564.76,-809.35 539.52,-793.73"/>
<polygon fill="black" stroke="black" points="541.52,-790.86 531.18,-788.57 537.84,-796.81 541.52,-790.86"/>
</g>
<!-- convertUnitsD2 -->
<g id="node21" class="node">
<title>convertUnitsD2</title>
<path fill="lightskyblue" stroke="black" d="M399.22,-2071.25C399.22,-2071.25 294.72,-2071.25 294.72,-2071.25 288.72,-2071.25 282.72,-2065.25 282.72,-2059.25 282.72,-2059.25 282.72,-2040.75 282.72,-2040.75 282.72,-2034.75 288.72,-2028.75 294.72,-2028.75 294.72,-2028.75 399.22,-2028.75 399.22,-2028.75 405.22,-2028.75 411.22,-2034.75 411.22,-2040.75 411.22,-2040.75 411.22,-2059.25 411.22,-2059.25 411.22,-2065.25 405.22,-2071.25 399.22,-2071.25"/>
<text text-anchor="middle" x="346.97" y="-2053.95" font-family="Helvetica,sans-Serif" font-size="14.00">ConvertUnits v1</text>
<text text-anchor="middle" x="346.97" y="-2036.7" font-family="Helvetica,sans-Serif" font-size="14.00">d&#45;spacing</text>
</g>
<!-- applyDiffCal&#45;&gt;convertUnitsD2 -->
<g id="edge19" class="edge">
<title>applyDiffCal&#45;&gt;convertUnitsD2</title>
<path fill="none" stroke="black" d="M295.51,-2108.03C303.03,-2099.7 312.26,-2089.47 320.82,-2079.98"/>
<polygon fill="black" stroke="black" points="323.3,-2082.45 327.41,-2072.68 318.11,-2077.76 323.3,-2082.45"/>
</g>
<!-- clearDiffCal -->
<g id="node15" class="node">
<title>clearDiffCal</title>
<path fill="lightskyblue" stroke="black" d="M403.35,-1991.75C403.35,-1991.75 290.6,-1991.75 290.6,-1991.75 284.6,-1991.75 278.6,-1985.75 278.6,-1979.75 278.6,-1979.75 278.6,-1961.25 278.6,-1961.25 278.6,-1955.25 284.6,-1949.25 290.6,-1949.25 290.6,-1949.25 403.35,-1949.25 403.35,-1949.25 409.35,-1949.25 415.35,-1955.25 415.35,-1961.25 415.35,-1961.25 415.35,-1979.75 415.35,-1979.75 415.35,-1985.75 409.35,-1991.75 403.35,-1991.75"/>
<text text-anchor="middle" x="346.97" y="-1974.45" font-family="Helvetica,sans-Serif" font-size="14.00">ApplyDiffCal v1</text>
<text text-anchor="middle" x="346.97" y="-1957.2" font-family="Helvetica,sans-Serif" font-size="14.00">Clear parameters</text>
</g>
<!-- hasResonance -->
<g id="node42" class="node">
<title>hasResonance</title>
<polygon fill="limegreen" stroke="black" points="346.97,-1912.25 225.97,-1869.75 346.97,-1827.25 467.97,-1869.75 346.97,-1912.25"/>
<text text-anchor="middle" x="346.97" y="-1873.7" font-family="Helvetica,sans-Serif" font-size="14.00">Has absorption</text>
<text text-anchor="middle" x="346.97" y="-1856.45" font-family="Helvetica,sans-Serif" font-size="14.00">Resonances?</text>
</g>
<!-- clearDiffCal&#45;&gt;hasResonance -->
<g id="edge22" class="edge">
<title>clearDiffCal&#45;&gt;hasResonance</title>
<path fill="none" stroke="black" d="M346.97,-1949.04C346.97,-1941.65 346.97,-1932.93 346.97,-1924.04"/>
<polygon fill="black" stroke="black" points="350.47,-1924.28 346.97,-1914.28 343.47,-1924.28 350.47,-1924.28"/>
</g>
<!-- isDspace1 -->
<g id="node43" class="node">
<title>isDspace1</title>
<polygon fill="limegreen" stroke="black" points="411.97,-2395.75 261.43,-2377.75 411.97,-2359.75 562.51,-2377.75 411.97,-2395.75"/>
<text text-anchor="middle" x="411.97" y="-2373.07" font-family="Helvetica,sans-Serif" font-size="14.00">Is d&#45;space binning?</text>
</g>
<!-- compressEvents&#45;&gt;isDspace1 -->
<g id="edge12" class="edge">
<title>compressEvents&#45;&gt;isDspace1</title>
<path fill="none" stroke="black" d="M352.85,-2432.56C363.03,-2423.3 375.72,-2411.75 386.73,-2401.73"/>
<polygon fill="black" stroke="black" points="388.96,-2404.43 394,-2395.11 384.25,-2399.25 388.96,-2404.43"/>
</g>
<!-- ifRaggedTof -->
<g id="node48" class="node">
<title>ifRaggedTof</title>
<polygon fill="limegreen" stroke="black" points="595.97,-247.25 473.47,-204.75 595.97,-162.25 718.47,-204.75 595.97,-247.25"/>
<text text-anchor="middle" x="595.97" y="-208.7" font-family="Helvetica,sans-Serif" font-size="14.00">ragged rebin</text>
<text text-anchor="middle" x="595.97" y="-191.45" font-family="Helvetica,sans-Serif" font-size="14.00">and tof binning</text>
</g>
<!-- compressEvents2&#45;&gt;ifRaggedTof -->
<g id="edge53" class="edge">
<title>compressEvents2&#45;&gt;ifRaggedTof</title>
<path fill="none" stroke="black" d="M595.97,-284.18C595.97,-277.01 595.97,-268.24 595.97,-259.2"/>
<polygon fill="black" stroke="black" points="599.47,-259.21 595.97,-249.21 592.47,-259.21 599.47,-259.21"/>
</g>
<!-- convertUnitsTof1 -->
<g id="node18" class="node">
<title>convertUnitsTof1</title>
<path fill="lightskyblue" stroke="black" d="M619.22,-1373.25C619.22,-1373.25 514.72,-1373.25 514.72,-1373.25 508.72,-1373.25 502.72,-1367.25 502.72,-1361.25 502.72,-1361.25 502.72,-1342.75 502.72,-1342.75 502.72,-1336.75 508.72,-1330.75 514.72,-1330.75 514.72,-1330.75 619.22,-1330.75 619.22,-1330.75 625.22,-1330.75 631.22,-1336.75 631.22,-1342.75 631.22,-1342.75 631.22,-1361.25 631.22,-1361.25 631.22,-1367.25 625.22,-1373.25 619.22,-1373.25"/>
<text text-anchor="middle" x="566.97" y="-1355.95" font-family="Helvetica,sans-Serif" font-size="14.00">ConvertUnits v1</text>
<text text-anchor="middle" x="566.97" y="-1338.7" font-family="Helvetica,sans-Serif" font-size="14.00">Time&#45;of&#45;Flight</text>
</g>
<!-- convertUnitsTof1&#45;&gt;unwrapSNS -->
<g id="edge33" class="edge">
<title>convertUnitsTof1&#45;&gt;unwrapSNS</title>
<path fill="none" stroke="black" d="M533.62,-1330.46C511.08,-1316.59 481.29,-1298.25 457.86,-1283.83"/>
<polygon fill="black" stroke="black" points="459.89,-1280.96 449.54,-1278.7 456.22,-1286.93 459.89,-1280.96"/>
</g>
<!-- convertUnitsTof2 -->
<g id="node19" class="node">
<title>convertUnitsTof2</title>
<path fill="lightskyblue" stroke="black" d="M554.22,-399.75C554.22,-399.75 449.72,-399.75 449.72,-399.75 443.72,-399.75 437.72,-393.75 437.72,-387.75 437.72,-387.75 437.72,-369.25 437.72,-369.25 437.72,-363.25 443.72,-357.25 449.72,-357.25 449.72,-357.25 554.22,-357.25 554.22,-357.25 560.22,-357.25 566.22,-363.25 566.22,-369.25 566.22,-369.25 566.22,-387.75 566.22,-387.75 566.22,-393.75 560.22,-399.75 554.22,-399.75"/>
<text text-anchor="middle" x="501.97" y="-382.45" font-family="Helvetica,sans-Serif" font-size="14.00">ConvertUnits v1</text>
<text text-anchor="middle" x="501.97" y="-365.2" font-family="Helvetica,sans-Serif" font-size="14.00">Time&#45;of&#45;Flight</text>
</g>
<!-- convertUnitsTof2&#45;&gt;compressEvents2 -->
<g id="edge51" class="edge">
<title>convertUnitsTof2&#45;&gt;compressEvents2</title>
<path fill="none" stroke="black" d="M528.16,-356.82C539.67,-347.72 553.27,-336.98 565.26,-327.51"/>
<polygon fill="black" stroke="black" points="567.19,-330.44 572.87,-321.5 562.85,-324.95 567.19,-330.44"/>
</g>
<!-- convertUnitsD1 -->
<g id="node20" class="node">
<title>convertUnitsD1</title>
<path fill="lightskyblue" stroke="black" d="M479.22,-956.25C479.22,-956.25 374.72,-956.25 374.72,-956.25 368.72,-956.25 362.72,-950.25 362.72,-944.25 362.72,-944.25 362.72,-925.75 362.72,-925.75 362.72,-919.75 368.72,-913.75 374.72,-913.75 374.72,-913.75 479.22,-913.75 479.22,-913.75 485.22,-913.75 491.22,-919.75 491.22,-925.75 491.22,-925.75 491.22,-944.25 491.22,-944.25 491.22,-950.25 485.22,-956.25 479.22,-956.25"/>
<text text-anchor="middle" x="426.97" y="-938.95" font-family="Helvetica,sans-Serif" font-size="14.00">ConvertUnits v1</text>
<text text-anchor="middle" x="426.97" y="-921.7" font-family="Helvetica,sans-Serif" font-size="14.00">d&#45;spacing</text>
</g>
<!-- isDspace2 -->
<g id="node44" class="node">
<title>isDspace2</title>
<polygon fill="limegreen" stroke="black" points="426.97,-876.75 276.43,-858.75 426.97,-840.75 577.51,-858.75 426.97,-876.75"/>
<text text-anchor="middle" x="426.97" y="-854.08" font-family="Helvetica,sans-Serif" font-size="14.00">Is d&#45;space binning?</text>
</g>
<!-- convertUnitsD1&#45;&gt;isDspace2 -->
<g id="edge31" class="edge">
<title>convertUnitsD1&#45;&gt;isDspace2</title>
<path fill="none" stroke="black" d="M426.97,-913.32C426.97,-905.5 426.97,-896.47 426.97,-888.07"/>
<polygon fill="black" stroke="black" points="430.47,-888.33 426.97,-878.33 423.47,-888.33 430.47,-888.33"/>
</g>
<!-- convertUnitsD2&#45;&gt;clearDiffCal -->
<g id="edge21" class="edge">
<title>convertUnitsD2&#45;&gt;clearDiffCal</title>
<path fill="none" stroke="black" d="M346.97,-2028.64C346.97,-2020.87 346.97,-2011.81 346.97,-2003.23"/>
<polygon fill="black" stroke="black" points="350.47,-2003.51 346.97,-1993.51 343.47,-2003.51 350.47,-2003.51"/>
</g>
<!-- convertUnitsD3 -->
<g id="node22" class="node">
<title>convertUnitsD3</title>
<path fill="lightskyblue" stroke="black" d="M491.22,-1615C491.22,-1615 386.72,-1615 386.72,-1615 380.72,-1615 374.72,-1609 374.72,-1603 374.72,-1603 374.72,-1584.5 374.72,-1584.5 374.72,-1578.5 380.72,-1572.5 386.72,-1572.5 386.72,-1572.5 491.22,-1572.5 491.22,-1572.5 497.22,-1572.5 503.22,-1578.5 503.22,-1584.5 503.22,-1584.5 503.22,-1603 503.22,-1603 503.22,-1609 497.22,-1615 491.22,-1615"/>
<text text-anchor="middle" x="438.97" y="-1597.7" font-family="Helvetica,sans-Serif" font-size="14.00">ConvertUnits v1</text>
<text text-anchor="middle" x="438.97" y="-1580.45" font-family="Helvetica,sans-Serif" font-size="14.00">d&#45;spacing</text>
</g>
<!-- lorentz -->
<g id="node29" class="node">
<title>lorentz</title>
<path fill="lightskyblue" stroke="black" d="M410.6,-1535.5C410.6,-1535.5 275.35,-1535.5 275.35,-1535.5 269.35,-1535.5 263.35,-1529.5 263.35,-1523.5 263.35,-1523.5 263.35,-1511.5 263.35,-1511.5 263.35,-1505.5 269.35,-1499.5 275.35,-1499.5 275.35,-1499.5 410.6,-1499.5 410.6,-1499.5 416.6,-1499.5 422.6,-1505.5 422.6,-1511.5 422.6,-1511.5 422.6,-1523.5 422.6,-1523.5 422.6,-1529.5 416.6,-1535.5 410.6,-1535.5"/>
<text text-anchor="middle" x="342.97" y="-1512.83" font-family="Helvetica,sans-Serif" font-size="14.00">LorentzCorrection v1</text>
</g>
<!-- convertUnitsD3&#45;&gt;lorentz -->
<g id="edge27" class="edge">
<title>convertUnitsD3&#45;&gt;lorentz</title>
<path fill="none" stroke="black" d="M412.23,-1572.07C400.47,-1562.97 386.58,-1552.23 374.33,-1542.76"/>
<polygon fill="black" stroke="black" points="376.6,-1540.09 366.55,-1536.74 372.32,-1545.62 376.6,-1540.09"/>
</g>
<!-- convertUnitsWL1 -->
<g id="node23" class="node">
<title>convertUnitsWL1</title>
<path fill="lightskyblue" stroke="black" d="M491.22,-1774C491.22,-1774 386.72,-1774 386.72,-1774 380.72,-1774 374.72,-1768 374.72,-1762 374.72,-1762 374.72,-1743.5 374.72,-1743.5 374.72,-1737.5 380.72,-1731.5 386.72,-1731.5 386.72,-1731.5 491.22,-1731.5 491.22,-1731.5 497.22,-1731.5 503.22,-1737.5 503.22,-1743.5 503.22,-1743.5 503.22,-1762 503.22,-1762 503.22,-1768 497.22,-1774 491.22,-1774"/>
<text text-anchor="middle" x="438.97" y="-1756.7" font-family="Helvetica,sans-Serif" font-size="14.00">ConvertUnits v1</text>
<text text-anchor="middle" x="438.97" y="-1739.45" font-family="Helvetica,sans-Serif" font-size="14.00">wavelength</text>
</g>
<!-- maskBins -->
<g id="node30" class="node">
<title>maskBins</title>
<path fill="lightskyblue" stroke="black" d="M529.72,-1694.5C529.72,-1694.5 380.22,-1694.5 380.22,-1694.5 374.22,-1694.5 368.22,-1688.5 368.22,-1682.5 368.22,-1682.5 368.22,-1664 368.22,-1664 368.22,-1658 374.22,-1652 380.22,-1652 380.22,-1652 529.72,-1652 529.72,-1652 535.72,-1652 541.72,-1658 541.72,-1664 541.72,-1664 541.72,-1682.5 541.72,-1682.5 541.72,-1688.5 535.72,-1694.5 529.72,-1694.5"/>
<text text-anchor="middle" x="454.97" y="-1677.2" font-family="Helvetica,sans-Serif" font-size="14.00">MaskBins v1</text>
<text text-anchor="middle" x="454.97" y="-1659.95" font-family="Helvetica,sans-Serif" font-size="14.00">absorption resonances</text>
</g>
<!-- convertUnitsWL1&#45;&gt;maskBins -->
<g id="edge25" class="edge">
<title>convertUnitsWL1&#45;&gt;maskBins</title>
<path fill="none" stroke="black" d="M443.18,-1731.39C444.78,-1723.62 446.65,-1714.56 448.42,-1705.98"/>
<polygon fill="black" stroke="black" points="451.84,-1706.73 450.43,-1696.23 444.98,-1705.31 451.84,-1706.73"/>
</g>
<!-- convertUnitsWL2 -->
<g id="node24" class="node">
<title>convertUnitsWL2</title>
<path fill="lightskyblue" stroke="black" d="M391.22,-1204.5C391.22,-1204.5 286.72,-1204.5 286.72,-1204.5 280.72,-1204.5 274.72,-1198.5 274.72,-1192.5 274.72,-1192.5 274.72,-1174 274.72,-1174 274.72,-1168 280.72,-1162 286.72,-1162 286.72,-1162 391.22,-1162 391.22,-1162 397.22,-1162 403.22,-1168 403.22,-1174 403.22,-1174 403.22,-1192.5 403.22,-1192.5 403.22,-1198.5 397.22,-1204.5 391.22,-1204.5"/>
<text text-anchor="middle" x="338.97" y="-1187.2" font-family="Helvetica,sans-Serif" font-size="14.00">ConvertUnits v1</text>
<text text-anchor="middle" x="338.97" y="-1169.95" font-family="Helvetica,sans-Serif" font-size="14.00">wavelength</text>
</g>
<!-- ifDIFCref -->
<g id="node47" class="node">
<title>ifDIFCref</title>
<polygon fill="limegreen" stroke="black" points="338.97,-1125 198.1,-1107 338.97,-1089 479.84,-1107 338.97,-1125"/>
<text text-anchor="middle" x="338.97" y="-1102.33" font-family="Helvetica,sans-Serif" font-size="14.00">DIFCref specified?</text>
</g>
<!-- convertUnitsWL2&#45;&gt;ifDIFCref -->
<g id="edge36" class="edge">
<title>convertUnitsWL2&#45;&gt;ifDIFCref</title>
<path fill="none" stroke="black" d="M338.97,-1161.57C338.97,-1153.75 338.97,-1144.72 338.97,-1136.32"/>
<polygon fill="black" stroke="black" points="342.47,-1136.58 338.97,-1126.58 335.47,-1136.58 342.47,-1136.58"/>
</g>
<!-- cropWorkspaceTof -->
<g id="node25" class="node">
<title>cropWorkspaceTof</title>
<path fill="lightskyblue" stroke="black" d="M300.85,-2783.5C300.85,-2783.5 179.1,-2783.5 179.1,-2783.5 173.1,-2783.5 167.1,-2777.5 167.1,-2771.5 167.1,-2771.5 167.1,-2753 167.1,-2753 167.1,-2747 173.1,-2741 179.1,-2741 179.1,-2741 300.85,-2741 300.85,-2741 306.85,-2741 312.85,-2747 312.85,-2753 312.85,-2753 312.85,-2771.5 312.85,-2771.5 312.85,-2777.5 306.85,-2783.5 300.85,-2783.5"/>
<text text-anchor="middle" x="239.97" y="-2766.2" font-family="Helvetica,sans-Serif" font-size="14.00">CropWorkspace v1</text>
<text text-anchor="middle" x="239.97" y="-2748.95" font-family="Helvetica,sans-Serif" font-size="14.00">tof range</text>
</g>
<!-- cropWorkspaceTof&#45;&gt;removePromptPulse -->
<g id="edge5" class="edge">
<title>cropWorkspaceTof&#45;&gt;removePromptPulse</title>
<path fill="none" stroke="black" d="M272.01,-2740.57C286.51,-2731.2 303.72,-2720.09 318.69,-2710.42"/>
<polygon fill="black" stroke="black" points="320.39,-2713.5 326.89,-2705.13 316.59,-2707.62 320.39,-2713.5"/>
</g>
<!-- cropWorkspaceWL -->
<g id="node26" class="node">
<title>cropWorkspaceWL</title>
<path fill="lightskyblue" stroke="black" d="M399.85,-1035.75C399.85,-1035.75 278.1,-1035.75 278.1,-1035.75 272.1,-1035.75 266.1,-1029.75 266.1,-1023.75 266.1,-1023.75 266.1,-1005.25 266.1,-1005.25 266.1,-999.25 272.1,-993.25 278.1,-993.25 278.1,-993.25 399.85,-993.25 399.85,-993.25 405.85,-993.25 411.85,-999.25 411.85,-1005.25 411.85,-1005.25 411.85,-1023.75 411.85,-1023.75 411.85,-1029.75 405.85,-1035.75 399.85,-1035.75"/>
<text text-anchor="middle" x="338.97" y="-1018.45" font-family="Helvetica,sans-Serif" font-size="14.00">CropWorkspace v1</text>
<text text-anchor="middle" x="338.97" y="-1001.2" font-family="Helvetica,sans-Serif" font-size="14.00">wavelength range</text>
</g>
<!-- cropWorkspaceWL&#45;&gt;convertUnitsD1 -->
<g id="edge30" class="edge">
<title>cropWorkspaceWL&#45;&gt;convertUnitsD1</title>
<path fill="none" stroke="black" d="M362.09,-993.14C372.22,-984.22 384.26,-973.61 395.21,-963.97"/>
<polygon fill="black" stroke="black" points="397.37,-966.73 402.56,-957.5 392.75,-961.48 397.37,-966.73"/>
</g>
<!-- isDspace3 -->
<g id="node45" class="node">
<title>isDspace3</title>
<polygon fill="limegreen" stroke="black" points="501.97,-641.5 351.43,-623.5 501.97,-605.5 652.51,-623.5 501.97,-641.5"/>
<text text-anchor="middle" x="501.97" y="-618.83" font-family="Helvetica,sans-Serif" font-size="14.00">Is d&#45;space binning?</text>
</g>
<!-- diffFocus&#45;&gt;isDspace3 -->
<g id="edge46" class="edge">
<title>diffFocus&#45;&gt;isDspace3</title>
<path fill="none" stroke="black" d="M501.97,-678.31C501.97,-670.73 501.97,-661.6 501.97,-653.04"/>
<polygon fill="black" stroke="black" points="505.47,-653.04 501.97,-643.04 498.47,-653.04 505.47,-653.04"/>
</g>
<!-- editGeom -->
<g id="node28" class="node">
<title>editGeom</title>
<path fill="lightskyblue" stroke="black" d="M595.1,-472.75C595.1,-472.75 408.85,-472.75 408.85,-472.75 402.85,-472.75 396.85,-466.75 396.85,-460.75 396.85,-460.75 396.85,-448.75 396.85,-448.75 396.85,-442.75 402.85,-436.75 408.85,-436.75 408.85,-436.75 595.1,-436.75 595.1,-436.75 601.1,-436.75 607.1,-442.75 607.1,-448.75 607.1,-448.75 607.1,-460.75 607.1,-460.75 607.1,-466.75 601.1,-472.75 595.1,-472.75"/>
<text text-anchor="middle" x="501.97" y="-450.07" font-family="Helvetica,sans-Serif" font-size="14.00">EditInstrumentGeometry v1</text>
</g>
<!-- editGeom&#45;&gt;convertUnitsTof2 -->
<g id="edge50" class="edge">
<title>editGeom&#45;&gt;convertUnitsTof2</title>
<path fill="none" stroke="black" d="M501.97,-436.53C501.97,-429.05 501.97,-420.04 501.97,-411.41"/>
<polygon fill="black" stroke="black" points="505.47,-411.57 501.97,-401.57 498.47,-411.57 505.47,-411.57"/>
</g>
<!-- ifLref -->
<g id="node46" class="node">
<title>ifLref</title>
<polygon fill="limegreen" stroke="black" points="342.97,-1462.5 223.68,-1444.5 342.97,-1426.5 462.26,-1444.5 342.97,-1462.5"/>
<text text-anchor="middle" x="342.97" y="-1439.83" font-family="Helvetica,sans-Serif" font-size="14.00">LRef specified?</text>
</g>
<!-- lorentz&#45;&gt;ifLref -->
<g id="edge28" class="edge">
<title>lorentz&#45;&gt;ifLref</title>
<path fill="none" stroke="black" d="M342.97,-1499.31C342.97,-1491.73 342.97,-1482.6 342.97,-1474.04"/>
<polygon fill="black" stroke="black" points="346.47,-1474.04 342.97,-1464.04 339.47,-1474.04 346.47,-1474.04"/>
</g>
<!-- maskBins&#45;&gt;convertUnitsD3 -->
<g id="edge26" class="edge">
<title>maskBins&#45;&gt;convertUnitsD3</title>
<path fill="none" stroke="black" d="M450.77,-1651.89C449.16,-1644.12 447.29,-1635.06 445.52,-1626.48"/>
<polygon fill="black" stroke="black" points="448.96,-1625.81 443.51,-1616.73 442.1,-1627.23 448.96,-1625.81"/>
</g>
<!-- isLarge -->
<g id="node40" class="node">
<title>isLarge</title>
<polygon fill="limegreen" stroke="black" points="446.97,-2558 251.79,-2540 446.97,-2522 642.16,-2540 446.97,-2558"/>
<text text-anchor="middle" x="446.97" y="-2535.32" font-family="Helvetica,sans-Serif" font-size="14.00">Is large event workspace?</text>
</g>
<!-- maskBinsTable&#45;&gt;isLarge -->
<g id="edge8" class="edge">
<title>maskBinsTable&#45;&gt;isLarge</title>
<path fill="none" stroke="black" d="M446.97,-2594.81C446.97,-2587.23 446.97,-2578.1 446.97,-2569.54"/>
<polygon fill="black" stroke="black" points="450.47,-2569.54 446.97,-2559.54 443.47,-2569.54 450.47,-2569.54"/>
</g>
<!-- maskDetectors&#45;&gt;cropWorkspaceTof -->
<g id="edge3" class="edge">
<title>maskDetectors&#45;&gt;cropWorkspaceTof</title>
<path fill="none" stroke="black" d="M239.97,-2820.28C239.97,-2812.8 239.97,-2803.79 239.97,-2795.16"/>
<polygon fill="black" stroke="black" points="243.47,-2795.32 239.97,-2785.32 236.47,-2795.32 243.47,-2795.32"/>
</g>
<!-- hasCalibration -->
<g id="node41" class="node">
<title>hasCalibration</title>
<polygon fill="limegreen" stroke="black" points="377.97,-2233.5 251.98,-2215.5 377.97,-2197.5 503.96,-2215.5 377.97,-2233.5"/>
<text text-anchor="middle" x="377.97" y="-2210.82" font-family="Helvetica,sans-Serif" font-size="14.00">Has calibration?</text>
</g>
<!-- rebin1&#45;&gt;hasCalibration -->
<g id="edge15" class="edge">
<title>rebin1&#45;&gt;hasCalibration</title>
<path fill="none" stroke="black" d="M317.34,-2270.31C328.02,-2260.83 341.42,-2248.94 352.89,-2238.76"/>
<polygon fill="black" stroke="black" points="354.93,-2241.63 360.09,-2232.37 350.29,-2236.39 354.93,-2241.63"/>
</g>
<!-- rebin2&#45;&gt;diffFocus -->
<g id="edge44" class="edge">
<title>rebin2&#45;&gt;diffFocus</title>
<path fill="none" stroke="black" d="M501.97,-751.31C501.97,-743.73 501.97,-734.6 501.97,-726.04"/>
<polygon fill="black" stroke="black" points="505.47,-726.04 501.97,-716.04 498.47,-726.04 505.47,-726.04"/>
</g>
<!-- rebin3 -->
<g id="node35" class="node">
<title>rebin3</title>
<path fill="lightskyblue" stroke="black" d="M513.22,-552.25C513.22,-552.25 372.72,-552.25 372.72,-552.25 366.72,-552.25 360.72,-546.25 360.72,-540.25 360.72,-540.25 360.72,-521.75 360.72,-521.75 360.72,-515.75 366.72,-509.75 372.72,-509.75 372.72,-509.75 513.22,-509.75 513.22,-509.75 519.22,-509.75 525.22,-515.75 525.22,-521.75 525.22,-521.75 525.22,-540.25 525.22,-540.25 525.22,-546.25 519.22,-552.25 513.22,-552.25"/>
<text text-anchor="middle" x="442.97" y="-534.95" font-family="Helvetica,sans-Serif" font-size="14.00">Rebin, ResampleX, or</text>
<text text-anchor="middle" x="442.97" y="-517.7" font-family="Helvetica,sans-Serif" font-size="14.00">RebinRagged</text>
</g>
<!-- rebin3&#45;&gt;editGeom -->
<g id="edge48" class="edge">
<title>rebin3&#45;&gt;editGeom</title>
<path fill="none" stroke="black" d="M459.41,-509.32C466.19,-500.78 474.13,-490.79 481.3,-481.77"/>
<polygon fill="black" stroke="black" points="483.99,-484.01 487.47,-474 478.51,-479.65 483.99,-484.01"/>
</g>
<!-- rebinRagged -->
<g id="node36" class="node">
<title>rebinRagged</title>
<path fill="lightskyblue" stroke="black" d="M597.97,-109C597.97,-109 491.97,-109 491.97,-109 485.97,-109 479.97,-103 479.97,-97 479.97,-97 479.97,-85 479.97,-85 479.97,-79 485.97,-73 491.97,-73 491.97,-73 597.97,-73 597.97,-73 603.97,-73 609.97,-79 609.97,-85 609.97,-85 609.97,-97 609.97,-97 609.97,-103 603.97,-109 597.97,-109"/>
<text text-anchor="middle" x="544.97" y="-86.33" font-family="Helvetica,sans-Serif" font-size="14.00">RebinRagged v1</text>
</g>
<!-- rebinRagged&#45;&gt;OutputWorkspace -->
<g id="edge55" class="edge">
<title>rebinRagged&#45;&gt;OutputWorkspace</title>
<path fill="none" stroke="black" d="M561.67,-72.81C570.07,-64.18 580.39,-53.56 589.64,-44.03"/>
<polygon fill="black" stroke="black" points="591.91,-46.72 596.37,-37.11 586.89,-41.85 591.91,-46.72"/>
</g>
<!-- removeLowResTOF&#45;&gt;convertUnitsD1 -->
<g id="edge40" class="edge">
<title>removeLowResTOF&#45;&gt;convertUnitsD1</title>
<path fill="none" stroke="black" d="M496.22,-996.3C485.42,-986.9 471.78,-975.02 459.46,-964.29"/>
<polygon fill="black" stroke="black" points="461.76,-961.66 451.92,-957.73 457.17,-966.93 461.76,-961.66"/>
</g>
<!-- removePromptPulse&#45;&gt;maskBinsTable -->
<g id="edge6" class="edge">
<title>removePromptPulse&#45;&gt;maskBinsTable</title>
<path fill="none" stroke="black" d="M377.24,-2667.81C388.8,-2658.9 403.1,-2647.86 415.74,-2638.1"/>
<polygon fill="black" stroke="black" points="417.61,-2641.08 423.39,-2632.2 413.33,-2635.54 417.61,-2641.08"/>
</g>
<!-- unwrapSNS&#45;&gt;convertUnitsWL2 -->
<g id="edge35" class="edge">
<title>unwrapSNS&#45;&gt;convertUnitsWL2</title>
<path fill="none" stroke="black" d="M401.19,-1241.28C391.82,-1232.69 380.25,-1222.09 369.64,-1212.37"/>
<polygon fill="black" stroke="black" points="372.25,-1210.01 362.52,-1205.83 367.52,-1215.17 372.25,-1210.01"/>
</g>
<!-- isLarge&#45;&gt;compressEvents -->
<g id="edge10" class="edge">
<title>isLarge&#45;&gt;compressEvents</title>
<path fill="none" stroke="black" d="M426.77,-2523.4C409.67,-2510.2 384.88,-2491.06 365.22,-2475.88"/>
<polygon fill="black" stroke="black" points="367.57,-2473.27 357.52,-2469.93 363.3,-2478.81 367.57,-2473.27"/>
<text text-anchor="middle" x="411.22" y="-2490.7" font-family="Helvetica,sans-Serif" font-size="14.00">Yes</text>
</g>
<!-- isLarge&#45;&gt;isDspace1 -->
<g id="edge11" class="edge">
<title>isLarge&#45;&gt;isDspace1</title>
<path fill="none" stroke="black" d="M443.23,-2521.85C437.23,-2494.38 425.4,-2440.23 418.14,-2406.99"/>
<polygon fill="black" stroke="black" points="421.57,-2406.28 416.01,-2397.25 414.73,-2407.77 421.57,-2406.28"/>
<text text-anchor="middle" x="440.35" y="-2446.07" font-family="Helvetica,sans-Serif" font-size="14.00">No</text>
</g>
<!-- hasCalibration&#45;&gt;applyDiffCal -->
<g id="edge17" class="edge">
<title>hasCalibration&#45;&gt;applyDiffCal</title>
<path fill="none" stroke="black" d="M361.35,-2199.7C346.75,-2186.7 325.2,-2167.52 307.95,-2152.16"/>
<polygon fill="black" stroke="black" points="310.3,-2149.57 300.51,-2145.53 305.65,-2154.8 310.3,-2149.57"/>
<text text-anchor="middle" x="348.22" y="-2166.2" font-family="Helvetica,sans-Serif" font-size="14.00">Yes</text>
</g>
<!-- hasCalibration&#45;&gt;convertUnitsD2 -->
<g id="edge20" class="edge">
<title>hasCalibration&#45;&gt;convertUnitsD2</title>
<path fill="none" stroke="black" d="M374.77,-2197.62C369.65,-2170.61 359.53,-2117.25 353.02,-2082.9"/>
<polygon fill="black" stroke="black" points="356.46,-2082.27 351.16,-2073.1 349.59,-2083.58 356.46,-2082.27"/>
<text text-anchor="middle" x="373.35" y="-2121.57" font-family="Helvetica,sans-Serif" font-size="14.00">No</text>
</g>
<!-- hasResonance&#45;&gt;convertUnitsWL1 -->
<g id="edge24" class="edge">
<title>hasResonance&#45;&gt;convertUnitsWL1</title>
<path fill="none" stroke="black" d="M373.09,-1836.1C386.54,-1819.29 402.79,-1798.98 415.79,-1782.73"/>
<polygon fill="black" stroke="black" points="418.18,-1785.35 421.69,-1775.35 412.71,-1780.97 418.18,-1785.35"/>
<text text-anchor="middle" x="417.22" y="-1795.95" font-family="Helvetica,sans-Serif" font-size="14.00">Yes</text>
</g>
<!-- hasResonance&#45;&gt;lorentz -->
<g id="edge23" class="edge">
<title>hasResonance&#45;&gt;lorentz</title>
<path fill="none" stroke="black" d="M338.83,-1829.81C334.88,-1807.63 330.97,-1779.25 330.97,-1753.75 330.97,-1753.75 330.97,-1753.75 330.97,-1592.75 330.97,-1577.5 333.47,-1560.71 336.19,-1546.96"/>
<polygon fill="black" stroke="black" points="339.59,-1547.77 338.26,-1537.26 332.75,-1546.31 339.59,-1547.77"/>
<text text-anchor="middle" x="340.35" y="-1668.58" font-family="Helvetica,sans-Serif" font-size="14.00">No</text>
</g>
<!-- isDspace1&#45;&gt;rebin1 -->
<g id="edge13" class="edge">
<title>isDspace1&#45;&gt;rebin1</title>
<path fill="none" stroke="black" d="M392.37,-2361.75C375.12,-2348.54 349.67,-2329.07 329.55,-2313.67"/>
<polygon fill="black" stroke="black" points="331.71,-2310.91 321.64,-2307.61 327.45,-2316.47 331.71,-2310.91"/>
<text text-anchor="middle" x="374.35" y="-2328.45" font-family="Helvetica,sans-Serif" font-size="14.00">No</text>
</g>
<!-- isDspace1&#45;&gt;hasCalibration -->
<g id="edge16" class="edge">
<title>isDspace1&#45;&gt;hasCalibration</title>
<path fill="none" stroke="black" d="M408.4,-2359.9C402.57,-2332.42 390.95,-2277.67 383.88,-2244.34"/>
<polygon fill="black" stroke="black" points="387.31,-2243.66 381.81,-2234.6 380.46,-2245.11 387.31,-2243.66"/>
<text text-anchor="middle" x="407.22" y="-2283.82" font-family="Helvetica,sans-Serif" font-size="14.00">Yes</text>
</g>
<!-- isDspace2&#45;&gt;diffFocus -->
<g id="edge41" class="edge">
<title>isDspace2&#45;&gt;diffFocus</title>
<path fill="none" stroke="black" d="M424.59,-840.8C422.33,-818.84 421.2,-780 436.22,-751.5 442.35,-739.88 452.15,-729.81 462.34,-721.63"/>
<polygon fill="black" stroke="black" points="464.19,-724.62 470.1,-715.83 460,-719.01 464.19,-724.62"/>
<text text-anchor="middle" x="445.35" y="-764.83" font-family="Helvetica,sans-Serif" font-size="14.00">No</text>
</g>
<!-- isDspace2&#45;&gt;rebin2 -->
<g id="edge42" class="edge">
<title>isDspace2&#45;&gt;rebin2</title>
<path fill="none" stroke="black" d="M440.38,-842.15C451.37,-829.37 467.15,-811.02 479.98,-796.08"/>
<polygon fill="black" stroke="black" points="482.29,-798.77 486.15,-788.91 476.98,-794.21 482.29,-798.77"/>
<text text-anchor="middle" x="482.22" y="-809.45" font-family="Helvetica,sans-Serif" font-size="14.00">Yes</text>
</g>
<!-- isDspace3&#45;&gt;editGeom -->
<g id="edge49" class="edge">
<title>isDspace3&#45;&gt;editGeom</title>
<path fill="none" stroke="black" d="M512.17,-606.47C524.76,-584.63 543.44,-544.29 533.97,-509.75 531.39,-500.34 526.7,-490.9 521.69,-482.61"/>
<polygon fill="black" stroke="black" points="524.75,-480.89 516.36,-474.41 518.88,-484.7 524.75,-480.89"/>
<text text-anchor="middle" x="545.35" y="-526.33" font-family="Helvetica,sans-Serif" font-size="14.00">No</text>
</g>
<!-- isDspace3&#45;&gt;rebin3 -->
<g id="edge47" class="edge">
<title>isDspace3&#45;&gt;rebin3</title>
<path fill="none" stroke="black" d="M491.42,-606.32C483.38,-593.98 472.06,-576.62 462.39,-561.79"/>
<polygon fill="black" stroke="black" points="465.55,-560.22 457.15,-553.75 459.68,-564.04 465.55,-560.22"/>
<text text-anchor="middle" x="488.22" y="-574.2" font-family="Helvetica,sans-Serif" font-size="14.00">Yes</text>
</g>
<!-- ifLref&#45;&gt;convertUnitsTof1 -->
<g id="edge32" class="edge">
<title>ifLref&#45;&gt;convertUnitsTof1</title>
<path fill="none" stroke="black" d="M374.12,-1430.92C407.92,-1417.26 462.76,-1395.11 505.33,-1377.9"/>
<polygon fill="black" stroke="black" points="506.51,-1381.2 514.47,-1374.21 503.88,-1374.71 506.51,-1381.2"/>
<text text-anchor="middle" x="479.22" y="-1395.2" font-family="Helvetica,sans-Serif" font-size="14.00">Yes</text>
</g>
<!-- ifLref&#45;&gt;convertUnitsWL2 -->
<g id="edge29" class="edge">
<title>ifLref&#45;&gt;convertUnitsWL2</title>
<path fill="none" stroke="black" d="M342.7,-1426.09C342.04,-1383.04 340.31,-1271.11 339.46,-1215.94"/>
<polygon fill="black" stroke="black" points="342.97,-1216.22 339.31,-1206.27 335.97,-1216.33 342.97,-1216.22"/>
<text text-anchor="middle" x="349.35" y="-1299.45" font-family="Helvetica,sans-Serif" font-size="14.00">No</text>
</g>
<!-- ifDIFCref&#45;&gt;cropWorkspaceWL -->
<g id="edge37" class="edge">
<title>ifDIFCref&#45;&gt;cropWorkspaceWL</title>
<path fill="none" stroke="black" d="M338.97,-1088.55C338.97,-1076.83 338.97,-1061.06 338.97,-1047.16"/>
<polygon fill="black" stroke="black" points="342.47,-1047.58 338.97,-1037.58 335.47,-1047.58 342.47,-1047.58"/>
<text text-anchor="middle" x="348.35" y="-1057.7" font-family="Helvetica,sans-Serif" font-size="14.00">No</text>
</g>
<!-- ifDIFCref&#45;&gt;removeLowResTOF -->
<g id="edge38" class="edge">
<title>ifDIFCref&#45;&gt;removeLowResTOF</title>
<path fill="none" stroke="black" d="M366.24,-1092.06C394.45,-1077.63 438.94,-1054.89 472.1,-1037.93"/>
<polygon fill="black" stroke="black" points="473.34,-1041.23 480.65,-1033.56 470.16,-1034.99 473.34,-1041.23"/>
<text text-anchor="middle" x="449.22" y="-1057.7" font-family="Helvetica,sans-Serif" font-size="14.00">Yes</text>
</g>
<!-- ifRaggedTof&#45;&gt;OutputWorkspace -->
<g id="edge56" class="edge">
<title>ifRaggedTof&#45;&gt;OutputWorkspace</title>
<path fill="none" stroke="black" d="M607.36,-165.86C611.95,-148.68 616.7,-127.99 618.97,-109 620.87,-93.11 619.71,-88.98 618.97,-73 618.59,-64.79 617.89,-55.89 617.13,-47.73"/>
<polygon fill="black" stroke="black" points="620.63,-47.59 616.15,-37.99 613.67,-48.29 620.63,-47.59"/>
<text text-anchor="middle" x="629.35" y="-86.33" font-family="Helvetica,sans-Serif" font-size="14.00">No</text>
</g>
<!-- ifRaggedTof&#45;&gt;rebinRagged -->
<g id="edge54" class="edge">
<title>ifRaggedTof&#45;&gt;rebinRagged</title>
<path fill="none" stroke="black" d="M579.41,-167.47C572.32,-151.93 564.17,-134.07 557.58,-119.63"/>
<polygon fill="black" stroke="black" points="560.85,-118.37 553.52,-110.73 554.49,-121.28 560.85,-118.37"/>
<text text-anchor="middle" x="578.22" y="-130.95" font-family="Helvetica,sans-Serif" font-size="14.00">Yes</text>
</g>
</g>
</svg>
