<?xml version="1.0" encoding="UTF-8" standalone="no"?>
<!DOCTYPE svg PUBLIC "-//W3C//DTD SVG 1.1//EN"
 "http://www.w3.org/Graphics/SVG/1.1/DTD/svg11.dtd">
<!-- Generated by graphviz version 13.1.0 (20250701.1702)
 -->
<!-- Title: AlignAndFocusPowder Pages: 1 -->
<svg width="844pt" height="2705pt"
 viewBox="0.00 0.00 844.00 2705.00" xmlns="http://www.w3.org/2000/svg" xmlns:xlink="http://www.w3.org/1999/xlink">
<g id="graph0" class="graph" transform="scale(1 1) rotate(0) translate(4 2700.75)">
<title>AlignAndFocusPowder</title>
<polygon fill="white" stroke="none" points="-4,4 -4,-2700.75 840.37,-2700.75 840.37,4 -4,4"/>
<text xml:space="preserve" text-anchor="middle" x="418.18" y="-2679.45" font-family="Helvetica,sans-Serif" font-size="14.00">AlignAndFocusPowder Flowchart</text>
<!-- InputWorkspace -->
<g id="node1" class="node">
<title>InputWorkspace</title>
<ellipse fill="khaki" stroke="black" cx="139.97" cy="-2653.5" rx="90.14" ry="18"/>
<text xml:space="preserve" text-anchor="middle" x="139.97" y="-2648.82" font-family="Helvetica,sans-Serif" font-size="14.00">InputWorkspace</text>
</g>
<!-- maskDetectors -->
<g id="node30" class="node">
<title>maskDetectors</title>
<path fill="lightskyblue" stroke="black" d="M297.22,-2598.5C297.22,-2598.5 180.72,-2598.5 180.72,-2598.5 174.72,-2598.5 168.72,-2592.5 168.72,-2586.5 168.72,-2586.5 168.72,-2574.5 168.72,-2574.5 168.72,-2568.5 174.72,-2562.5 180.72,-2562.5 180.72,-2562.5 297.22,-2562.5 297.22,-2562.5 303.22,-2562.5 309.22,-2568.5 309.22,-2574.5 309.22,-2574.5 309.22,-2586.5 309.22,-2586.5 309.22,-2592.5 303.22,-2598.5 297.22,-2598.5"/>
<text xml:space="preserve" text-anchor="middle" x="238.97" y="-2575.82" font-family="Helvetica,sans-Serif" font-size="14.00">MaskDetectors v1</text>
</g>
<!-- InputWorkspace&#45;&gt;maskDetectors -->
<g id="edge1" class="edge">
<title>InputWorkspace&#45;&gt;maskDetectors</title>
<path fill="none" stroke="black" d="M163.43,-2635.67C175.98,-2626.68 191.64,-2615.45 205.44,-2605.54"/>
<polygon fill="black" stroke="black" points="207.33,-2608.5 213.41,-2599.83 203.25,-2602.81 207.33,-2608.5"/>
</g>
<!-- OutputWorkspace -->
<g id="node2" class="node">
<title>OutputWorkspace</title>
<ellipse fill="khaki" stroke="black" cx="635.97" cy="-18" rx="98.56" ry="18"/>
<text xml:space="preserve" text-anchor="middle" x="635.97" y="-13.32" font-family="Helvetica,sans-Serif" font-size="14.00">OutputWorkspace</text>
</g>
<!-- RemovePromptPulseWidth -->
<g id="node3" class="node">
<title>RemovePromptPulseWidth</title>
<ellipse fill="khaki" stroke="black" cx="468.97" cy="-2504.25" rx="139.07" ry="18"/>
<text xml:space="preserve" text-anchor="middle" x="468.97" y="-2499.57" font-family="Helvetica,sans-Serif" font-size="14.00">RemovePromptPulseWidth</text>
</g>
<!-- removePromptPulse -->
<g id="node36" class="node">
<title>removePromptPulse</title>
<path fill="lightskyblue" stroke="black" d="M431.72,-2446C431.72,-2446 276.22,-2446 276.22,-2446 270.22,-2446 264.22,-2440 264.22,-2434 264.22,-2434 264.22,-2422 264.22,-2422 264.22,-2416 270.22,-2410 276.22,-2410 276.22,-2410 431.72,-2410 431.72,-2410 437.72,-2410 443.72,-2416 443.72,-2422 443.72,-2422 443.72,-2434 443.72,-2434 443.72,-2440 437.72,-2446 431.72,-2446"/>
<text xml:space="preserve" text-anchor="middle" x="353.97" y="-2423.32" font-family="Helvetica,sans-Serif" font-size="14.00">RemovePromptPulse v1</text>
</g>
<!-- RemovePromptPulseWidth&#45;&gt;removePromptPulse -->
<g id="edge4" class="edge">
<title>RemovePromptPulseWidth&#45;&gt;removePromptPulse</title>
<path fill="none" stroke="black" d="M442.59,-2486.22C427.18,-2476.27 407.5,-2463.56 390.6,-2452.65"/>
<polygon fill="black" stroke="black" points="392.6,-2449.78 382.3,-2447.29 388.8,-2455.66 392.6,-2449.78"/>
</g>
<!-- compressTol1 -->
<g id="node4" class="node">
<title>compressTol1</title>
<ellipse fill="khaki" stroke="black" cx="126.97" cy="-2282" rx="105.4" ry="18"/>
<text xml:space="preserve" text-anchor="middle" x="126.97" y="-2277.32" font-family="Helvetica,sans-Serif" font-size="14.00">CompressTolerance</text>
</g>
<!-- compressEvents -->
<g id="node15" class="node">
<title>compressEvents</title>
<path fill="lightskyblue" stroke="black" d="M397.97,-2210.75C397.97,-2210.75 267.97,-2210.75 267.97,-2210.75 261.97,-2210.75 255.97,-2204.75 255.97,-2198.75 255.97,-2198.75 255.97,-2186.75 255.97,-2186.75 255.97,-2180.75 261.97,-2174.75 267.97,-2174.75 267.97,-2174.75 397.97,-2174.75 397.97,-2174.75 403.97,-2174.75 409.97,-2180.75 409.97,-2186.75 409.97,-2186.75 409.97,-2198.75 409.97,-2198.75 409.97,-2204.75 403.97,-2210.75 397.97,-2210.75"/>
<text xml:space="preserve" text-anchor="middle" x="332.97" y="-2188.07" font-family="Helvetica,sans-Serif" font-size="14.00">CompressEvents v1</text>
</g>
<!-- compressTol1&#45;&gt;compressEvents -->
<g id="edge9" class="edge">
<title>compressTol1&#45;&gt;compressEvents</title>
<path fill="none" stroke="black" d="M165.24,-2264.79C197.96,-2250.93 245.34,-2230.86 281.41,-2215.59"/>
<polygon fill="black" stroke="black" points="282.5,-2218.93 290.34,-2211.81 279.77,-2212.48 282.5,-2218.93"/>
</g>
<!-- compressTol2 -->
<g id="node5" class="node">
<title>compressTol2</title>
<ellipse fill="khaki" stroke="black" cx="730.97" cy="-378.5" rx="105.4" ry="18"/>
<text xml:space="preserve" text-anchor="middle" x="730.97" y="-373.82" font-family="Helvetica,sans-Serif" font-size="14.00">CompressTolerance</text>
</g>
<!-- compressEvents2 -->
<g id="node16" class="node">
<title>compressEvents2</title>
<path fill="lightskyblue" stroke="black" d="M701.97,-320.25C701.97,-320.25 571.97,-320.25 571.97,-320.25 565.97,-320.25 559.97,-314.25 559.97,-308.25 559.97,-308.25 559.97,-296.25 559.97,-296.25 559.97,-290.25 565.97,-284.25 571.97,-284.25 571.97,-284.25 701.97,-284.25 701.97,-284.25 707.97,-284.25 713.97,-290.25 713.97,-296.25 713.97,-296.25 713.97,-308.25 713.97,-308.25 713.97,-314.25 707.97,-320.25 701.97,-320.25"/>
<text xml:space="preserve" text-anchor="middle" x="636.97" y="-297.57" font-family="Helvetica,sans-Serif" font-size="14.00">CompressEvents v1</text>
</g>
<!-- compressTol2&#45;&gt;compressEvents2 -->
<g id="edge47" class="edge">
<title>compressTol2&#45;&gt;compressEvents2</title>
<path fill="none" stroke="black" d="M709.64,-360.65C697.2,-350.82 681.3,-338.26 667.54,-327.4"/>
<polygon fill="black" stroke="black" points="670.07,-324.94 660.06,-321.49 665.74,-330.43 670.07,-324.94"/>
</g>
<!-- MaskWorkspace -->
<g id="node6" class="node">
<title>MaskWorkspace</title>
<ellipse fill="khaki" stroke="black" cx="337.97" cy="-2653.5" rx="89.61" ry="18"/>
<text xml:space="preserve" text-anchor="middle" x="337.97" y="-2648.82" font-family="Helvetica,sans-Serif" font-size="14.00">MaskWorkspace</text>
</g>
<!-- MaskWorkspace&#45;&gt;maskDetectors -->
<g id="edge2" class="edge">
<title>MaskWorkspace&#45;&gt;maskDetectors</title>
<path fill="none" stroke="black" d="M314.51,-2635.67C301.97,-2626.68 286.3,-2615.45 272.5,-2605.54"/>
<polygon fill="black" stroke="black" points="274.69,-2602.81 264.53,-2599.83 270.62,-2608.5 274.69,-2602.81"/>
</g>
<!-- MaskBinTable -->
<g id="node7" class="node">
<title>MaskBinTable</title>
<ellipse fill="khaki" stroke="black" cx="538.97" cy="-2428" rx="76.99" ry="18"/>
<text xml:space="preserve" text-anchor="middle" x="538.97" y="-2423.32" font-family="Helvetica,sans-Serif" font-size="14.00">MaskBinTable</text>
</g>
<!-- maskBinsTable -->
<g id="node29" class="node">
<title>maskBinsTable</title>
<path fill="lightskyblue" stroke="black" d="M520.35,-2373C520.35,-2373 371.6,-2373 371.6,-2373 365.6,-2373 359.6,-2367 359.6,-2361 359.6,-2361 359.6,-2349 359.6,-2349 359.6,-2343 365.6,-2337 371.6,-2337 371.6,-2337 520.35,-2337 520.35,-2337 526.35,-2337 532.35,-2343 532.35,-2349 532.35,-2349 532.35,-2361 532.35,-2361 532.35,-2367 526.35,-2373 520.35,-2373"/>
<text xml:space="preserve" text-anchor="middle" x="445.97" y="-2350.32" font-family="Helvetica,sans-Serif" font-size="14.00">MaskBinsFromTable v1</text>
</g>
<!-- MaskBinTable&#45;&gt;maskBinsTable -->
<g id="edge7" class="edge">
<title>MaskBinTable&#45;&gt;maskBinsTable</title>
<path fill="none" stroke="black" d="M517.4,-2410.53C505.66,-2401.57 490.9,-2390.3 477.85,-2380.34"/>
<polygon fill="black" stroke="black" points="480,-2377.57 469.93,-2374.29 475.75,-2383.14 480,-2377.57"/>
</g>
<!-- CalibrationWorkspace -->
<g id="node8" class="node">
<title>CalibrationWorkspace</title>
<ellipse fill="khaki" stroke="black" cx="116.97" cy="-1957.5" rx="116.97" ry="18"/>
<text xml:space="preserve" text-anchor="middle" x="116.97" y="-1952.83" font-family="Helvetica,sans-Serif" font-size="14.00">CalibrationWorkspace</text>
</g>
<!-- applyDiffCal -->
<g id="node13" class="node">
<title>applyDiffCal</title>
<path fill="lightskyblue" stroke="black" d="M329.6,-1886.25C329.6,-1886.25 230.35,-1886.25 230.35,-1886.25 224.35,-1886.25 218.35,-1880.25 218.35,-1874.25 218.35,-1874.25 218.35,-1862.25 218.35,-1862.25 218.35,-1856.25 224.35,-1850.25 230.35,-1850.25 230.35,-1850.25 329.6,-1850.25 329.6,-1850.25 335.6,-1850.25 341.6,-1856.25 341.6,-1862.25 341.6,-1862.25 341.6,-1874.25 341.6,-1874.25 341.6,-1880.25 335.6,-1886.25 329.6,-1886.25"/>
<text xml:space="preserve" text-anchor="middle" x="279.97" y="-1863.58" font-family="Helvetica,sans-Serif" font-size="14.00">ApplyDiffCal v1</text>
</g>
<!-- CalibrationWorkspace&#45;&gt;applyDiffCal -->
<g id="edge18" class="edge">
<title>CalibrationWorkspace&#45;&gt;applyDiffCal</title>
<path fill="none" stroke="black" d="M148.4,-1939.68C173.78,-1926.09 209.73,-1906.85 237.64,-1891.91"/>
<polygon fill="black" stroke="black" points="239.03,-1895.14 246.19,-1887.33 235.72,-1888.97 239.03,-1895.14"/>
</g>
<!-- GroupingWorkspace -->
<g id="node9" class="node">
<title>GroupingWorkspace</title>
<ellipse fill="khaki" stroke="black" cx="684.97" cy="-769.5" rx="109.08" ry="18"/>
<text xml:space="preserve" text-anchor="middle" x="684.97" y="-764.83" font-family="Helvetica,sans-Serif" font-size="14.00">GroupingWorkspace</text>
</g>
<!-- diffFocus -->
<g id="node25" class="node">
<title>diffFocus</title>
<path fill="lightskyblue" stroke="black" d="M597.35,-714.5C597.35,-714.5 442.6,-714.5 442.6,-714.5 436.6,-714.5 430.6,-708.5 430.6,-702.5 430.6,-702.5 430.6,-690.5 430.6,-690.5 430.6,-684.5 436.6,-678.5 442.6,-678.5 442.6,-678.5 597.35,-678.5 597.35,-678.5 603.35,-678.5 609.35,-684.5 609.35,-690.5 609.35,-690.5 609.35,-702.5 609.35,-702.5 609.35,-708.5 603.35,-714.5 597.35,-714.5"/>
<text xml:space="preserve" text-anchor="middle" x="519.97" y="-691.83" font-family="Helvetica,sans-Serif" font-size="14.00">DiffractionFocussing v2</text>
</g>
<!-- GroupingWorkspace&#45;&gt;diffFocus -->
<g id="edge40" class="edge">
<title>GroupingWorkspace&#45;&gt;diffFocus</title>
<path fill="none" stroke="black" d="M647.12,-752.21C624.47,-742.47 595.41,-729.96 570.78,-719.36"/>
<polygon fill="black" stroke="black" points="572.49,-716.29 561.92,-715.55 569.73,-722.72 572.49,-716.29"/>
</g>
<!-- LowResRef -->
<g id="node10" class="node">
<title>LowResRef</title>
<ellipse fill="khaki" stroke="black" cx="546.97" cy="-1186.5" rx="63.31" ry="18"/>
<text xml:space="preserve" text-anchor="middle" x="546.97" y="-1181.83" font-family="Helvetica,sans-Serif" font-size="14.00">LowResRef</text>
</g>
<!-- removeLowResTOF -->
<g id="node35" class="node">
<title>removeLowResTOF</title>
<path fill="lightskyblue" stroke="black" d="M568.35,-1112C568.35,-1112 419.6,-1112 419.6,-1112 413.6,-1112 407.6,-1106 407.6,-1100 407.6,-1100 407.6,-1088 407.6,-1088 407.6,-1082 413.6,-1076 419.6,-1076 419.6,-1076 568.35,-1076 568.35,-1076 574.35,-1076 580.35,-1082 580.35,-1088 580.35,-1088 580.35,-1100 580.35,-1100 580.35,-1106 574.35,-1112 568.35,-1112"/>
<text xml:space="preserve" text-anchor="middle" x="493.97" y="-1089.33" font-family="Helvetica,sans-Serif" font-size="14.00">RemoveLowResTOF v1</text>
</g>
<!-- LowResRef&#45;&gt;removeLowResTOF -->
<g id="edge31" class="edge">
<title>LowResRef&#45;&gt;removeLowResTOF</title>
<path fill="none" stroke="black" d="M537,-1168.48C529.35,-1155.41 518.64,-1137.13 509.82,-1122.06"/>
<polygon fill="black" stroke="black" points="512.91,-1120.42 504.84,-1113.56 506.87,-1123.96 512.91,-1120.42"/>
</g>
<!-- params1 -->
<g id="node11" class="node">
<title>params1</title>
<ellipse fill="khaki" stroke="black" cx="195.97" cy="-2119.75" rx="47" ry="18"/>
<text xml:space="preserve" text-anchor="middle" x="195.97" y="-2115.07" font-family="Helvetica,sans-Serif" font-size="14.00">Params</text>
</g>
<!-- rebin1 -->
<g id="node31" class="node">
<title>rebin1</title>
<path fill="lightskyblue" stroke="black" d="M363.72,-2048.5C363.72,-2048.5 232.22,-2048.5 232.22,-2048.5 226.22,-2048.5 220.22,-2042.5 220.22,-2036.5 220.22,-2036.5 220.22,-2024.5 220.22,-2024.5 220.22,-2018.5 226.22,-2012.5 232.22,-2012.5 232.22,-2012.5 363.72,-2012.5 363.72,-2012.5 369.72,-2012.5 375.72,-2018.5 375.72,-2024.5 375.72,-2024.5 375.72,-2036.5 375.72,-2036.5 375.72,-2042.5 369.72,-2048.5 363.72,-2048.5"/>
<text xml:space="preserve" text-anchor="middle" x="297.97" y="-2025.83" font-family="Helvetica,sans-Serif" font-size="14.00">Rebin or ResampleX</text>
</g>
<!-- params1&#45;&gt;rebin1 -->
<g id="edge14" class="edge">
<title>params1&#45;&gt;rebin1</title>
<path fill="none" stroke="black" d="M214.68,-2102.75C229.86,-2089.76 251.53,-2071.22 268.96,-2056.32"/>
<polygon fill="black" stroke="black" points="271.16,-2059.04 276.48,-2049.88 266.61,-2053.72 271.16,-2059.04"/>
</g>
<!-- params2 -->
<g id="node12" class="node">
<title>params2</title>
<ellipse fill="khaki" stroke="black" cx="660.97" cy="-858.75" rx="47" ry="18"/>
<text xml:space="preserve" text-anchor="middle" x="660.97" y="-854.08" font-family="Helvetica,sans-Serif" font-size="14.00">Params</text>
</g>
<!-- rebin2 -->
<g id="node32" class="node">
<title>rebin2</title>
<path fill="lightskyblue" stroke="black" d="M546.35,-787.5C546.35,-787.5 493.6,-787.5 493.6,-787.5 487.6,-787.5 481.6,-781.5 481.6,-775.5 481.6,-775.5 481.6,-763.5 481.6,-763.5 481.6,-757.5 487.6,-751.5 493.6,-751.5 493.6,-751.5 546.35,-751.5 546.35,-751.5 552.35,-751.5 558.35,-757.5 558.35,-763.5 558.35,-763.5 558.35,-775.5 558.35,-775.5 558.35,-781.5 552.35,-787.5 546.35,-787.5"/>
<text xml:space="preserve" text-anchor="middle" x="519.97" y="-764.83" font-family="Helvetica,sans-Serif" font-size="14.00">Rebin v1</text>
</g>
<!-- params2&#45;&gt;rebin2 -->
<g id="edge38" class="edge">
<title>params2&#45;&gt;rebin2</title>
<path fill="none" stroke="black" d="M637.05,-842.95C615.27,-829.47 582.76,-809.35 557.52,-793.73"/>
<polygon fill="black" stroke="black" points="559.52,-790.86 549.18,-788.57 555.84,-796.81 559.52,-790.86"/>
</g>
<!-- convertUnitsD2 -->
<g id="node19" class="node">
<title>convertUnitsD2</title>
<path fill="lightskyblue" stroke="black" d="M381.22,-1813.25C381.22,-1813.25 276.72,-1813.25 276.72,-1813.25 270.72,-1813.25 264.72,-1807.25 264.72,-1801.25 264.72,-1801.25 264.72,-1782.75 264.72,-1782.75 264.72,-1776.75 270.72,-1770.75 276.72,-1770.75 276.72,-1770.75 381.22,-1770.75 381.22,-1770.75 387.22,-1770.75 393.22,-1776.75 393.22,-1782.75 393.22,-1782.75 393.22,-1801.25 393.22,-1801.25 393.22,-1807.25 387.22,-1813.25 381.22,-1813.25"/>
<text xml:space="preserve" text-anchor="middle" x="328.97" y="-1795.95" font-family="Helvetica,sans-Serif" font-size="14.00">ConvertUnits v1</text>
<text xml:space="preserve" text-anchor="middle" x="328.97" y="-1778.7" font-family="Helvetica,sans-Serif" font-size="14.00">d&#45;spacing</text>
</g>
<!-- applyDiffCal&#45;&gt;convertUnitsD2 -->
<g id="edge19" class="edge">
<title>applyDiffCal&#45;&gt;convertUnitsD2</title>
<path fill="none" stroke="black" d="M291.34,-1850.03C296.61,-1842.04 303.04,-1832.3 309.08,-1823.15"/>
<polygon fill="black" stroke="black" points="311.98,-1825.1 314.57,-1814.82 306.14,-1821.24 311.98,-1825.1"/>
</g>
<!-- clearDiffCal -->
<g id="node14" class="node">
<title>clearDiffCal</title>
<path fill="lightskyblue" stroke="black" d="M385.35,-1733.75C385.35,-1733.75 272.6,-1733.75 272.6,-1733.75 266.6,-1733.75 260.6,-1727.75 260.6,-1721.75 260.6,-1721.75 260.6,-1703.25 260.6,-1703.25 260.6,-1697.25 266.6,-1691.25 272.6,-1691.25 272.6,-1691.25 385.35,-1691.25 385.35,-1691.25 391.35,-1691.25 397.35,-1697.25 397.35,-1703.25 397.35,-1703.25 397.35,-1721.75 397.35,-1721.75 397.35,-1727.75 391.35,-1733.75 385.35,-1733.75"/>
<text xml:space="preserve" text-anchor="middle" x="328.97" y="-1716.45" font-family="Helvetica,sans-Serif" font-size="14.00">ApplyDiffCal v1</text>
<text xml:space="preserve" text-anchor="middle" x="328.97" y="-1699.2" font-family="Helvetica,sans-Serif" font-size="14.00">Clear parameters</text>
</g>
<!-- hasResonance -->
<g id="node39" class="node">
<title>hasResonance</title>
<polygon fill="limegreen" stroke="black" points="328.97,-1654.25 207.97,-1611.75 328.97,-1569.25 449.97,-1611.75 328.97,-1654.25"/>
<text xml:space="preserve" text-anchor="middle" x="328.97" y="-1615.7" font-family="Helvetica,sans-Serif" font-size="14.00">Has absorption</text>
<text xml:space="preserve" text-anchor="middle" x="328.97" y="-1598.45" font-family="Helvetica,sans-Serif" font-size="14.00">Resonances?</text>
</g>
<!-- clearDiffCal&#45;&gt;hasResonance -->
<g id="edge22" class="edge">
<title>clearDiffCal&#45;&gt;hasResonance</title>
<path fill="none" stroke="black" d="M328.97,-1691.04C328.97,-1683.65 328.97,-1674.93 328.97,-1666.04"/>
<polygon fill="black" stroke="black" points="332.47,-1666.28 328.97,-1656.28 325.47,-1666.28 332.47,-1666.28"/>
</g>
<!-- isDspace1 -->
<g id="node40" class="node">
<title>isDspace1</title>
<polygon fill="limegreen" stroke="black" points="411.97,-2137.75 261.43,-2119.75 411.97,-2101.75 562.51,-2119.75 411.97,-2137.75"/>
<text xml:space="preserve" text-anchor="middle" x="411.97" y="-2115.07" font-family="Helvetica,sans-Serif" font-size="14.00">Is d&#45;space binning?</text>
</g>
<!-- compressEvents&#45;&gt;isDspace1 -->
<g id="edge12" class="edge">
<title>compressEvents&#45;&gt;isDspace1</title>
<path fill="none" stroke="black" d="M352.1,-2174.56C362.4,-2165.3 375.25,-2153.75 386.41,-2143.73"/>
<polygon fill="black" stroke="black" points="388.68,-2146.39 393.78,-2137.1 384,-2141.18 388.68,-2146.39"/>
</g>
<!-- ifRaggedTof -->
<g id="node44" class="node">
<title>ifRaggedTof</title>
<polygon fill="limegreen" stroke="black" points="636.97,-247.25 514.47,-204.75 636.97,-162.25 759.47,-204.75 636.97,-247.25"/>
<text xml:space="preserve" text-anchor="middle" x="636.97" y="-208.7" font-family="Helvetica,sans-Serif" font-size="14.00">ragged rebin</text>
<text xml:space="preserve" text-anchor="middle" x="636.97" y="-191.45" font-family="Helvetica,sans-Serif" font-size="14.00">and tof binning</text>
</g>
<!-- compressEvents2&#45;&gt;ifRaggedTof -->
<g id="edge48" class="edge">
<title>compressEvents2&#45;&gt;ifRaggedTof</title>
<path fill="none" stroke="black" d="M636.97,-284.18C636.97,-277.01 636.97,-268.24 636.97,-259.2"/>
<polygon fill="black" stroke="black" points="640.47,-259.21 636.97,-249.21 633.47,-259.21 640.47,-259.21"/>
</g>
<!-- convertUnitsTof2 -->
<g id="node17" class="node">
<title>convertUnitsTof2</title>
<path fill="lightskyblue" stroke="black" d="M595.22,-399.75C595.22,-399.75 490.72,-399.75 490.72,-399.75 484.72,-399.75 478.72,-393.75 478.72,-387.75 478.72,-387.75 478.72,-369.25 478.72,-369.25 478.72,-363.25 484.72,-357.25 490.72,-357.25 490.72,-357.25 595.22,-357.25 595.22,-357.25 601.22,-357.25 607.22,-363.25 607.22,-369.25 607.22,-369.25 607.22,-387.75 607.22,-387.75 607.22,-393.75 601.22,-399.75 595.22,-399.75"/>
<text xml:space="preserve" text-anchor="middle" x="542.97" y="-382.45" font-family="Helvetica,sans-Serif" font-size="14.00">ConvertUnits v1</text>
<text xml:space="preserve" text-anchor="middle" x="542.97" y="-365.2" font-family="Helvetica,sans-Serif" font-size="14.00">Time&#45;of&#45;Flight</text>
</g>
<!-- convertUnitsTof2&#45;&gt;compressEvents2 -->
<g id="edge46" class="edge">
<title>convertUnitsTof2&#45;&gt;compressEvents2</title>
<path fill="none" stroke="black" d="M569.16,-356.82C580.67,-347.72 594.27,-336.98 606.26,-327.51"/>
<polygon fill="black" stroke="black" points="608.19,-330.44 613.87,-321.5 603.85,-324.95 608.19,-330.44"/>
</g>
<!-- convertUnitsD1 -->
<g id="node18" class="node">
<title>convertUnitsD1</title>
<path fill="lightskyblue" stroke="black" d="M497.22,-956.25C497.22,-956.25 392.72,-956.25 392.72,-956.25 386.72,-956.25 380.72,-950.25 380.72,-944.25 380.72,-944.25 380.72,-925.75 380.72,-925.75 380.72,-919.75 386.72,-913.75 392.72,-913.75 392.72,-913.75 497.22,-913.75 497.22,-913.75 503.22,-913.75 509.22,-919.75 509.22,-925.75 509.22,-925.75 509.22,-944.25 509.22,-944.25 509.22,-950.25 503.22,-956.25 497.22,-956.25"/>
<text xml:space="preserve" text-anchor="middle" x="444.97" y="-938.95" font-family="Helvetica,sans-Serif" font-size="14.00">ConvertUnits v1</text>
<text xml:space="preserve" text-anchor="middle" x="444.97" y="-921.7" font-family="Helvetica,sans-Serif" font-size="14.00">d&#45;spacing</text>
</g>
<!-- isDspace2 -->
<g id="node41" class="node">
<title>isDspace2</title>
<polygon fill="limegreen" stroke="black" points="444.97,-876.75 294.43,-858.75 444.97,-840.75 595.51,-858.75 444.97,-876.75"/>
<text xml:space="preserve" text-anchor="middle" x="444.97" y="-854.08" font-family="Helvetica,sans-Serif" font-size="14.00">Is d&#45;space binning?</text>
</g>
<!-- convertUnitsD1&#45;&gt;isDspace2 -->
<g id="edge35" class="edge">
<title>convertUnitsD1&#45;&gt;isDspace2</title>
<path fill="none" stroke="black" d="M444.97,-913.32C444.97,-905.5 444.97,-896.47 444.97,-888.07"/>
<polygon fill="black" stroke="black" points="448.47,-888.33 444.97,-878.33 441.47,-888.33 448.47,-888.33"/>
</g>
<!-- convertUnitsD2&#45;&gt;clearDiffCal -->
<g id="edge21" class="edge">
<title>convertUnitsD2&#45;&gt;clearDiffCal</title>
<path fill="none" stroke="black" d="M328.97,-1770.64C328.97,-1762.87 328.97,-1753.81 328.97,-1745.23"/>
<polygon fill="black" stroke="black" points="332.47,-1745.51 328.97,-1735.51 325.47,-1745.51 332.47,-1745.51"/>
</g>
<!-- convertUnitsD3 -->
<g id="node20" class="node">
<title>convertUnitsD3</title>
<path fill="lightskyblue" stroke="black" d="M473.22,-1357C473.22,-1357 368.72,-1357 368.72,-1357 362.72,-1357 356.72,-1351 356.72,-1345 356.72,-1345 356.72,-1326.5 356.72,-1326.5 356.72,-1320.5 362.72,-1314.5 368.72,-1314.5 368.72,-1314.5 473.22,-1314.5 473.22,-1314.5 479.22,-1314.5 485.22,-1320.5 485.22,-1326.5 485.22,-1326.5 485.22,-1345 485.22,-1345 485.22,-1351 479.22,-1357 473.22,-1357"/>
<text xml:space="preserve" text-anchor="middle" x="420.97" y="-1339.7" font-family="Helvetica,sans-Serif" font-size="14.00">ConvertUnits v1</text>
<text xml:space="preserve" text-anchor="middle" x="420.97" y="-1322.45" font-family="Helvetica,sans-Serif" font-size="14.00">d&#45;spacing</text>
</g>
<!-- lorentz -->
<g id="node27" class="node">
<title>lorentz</title>
<path fill="lightskyblue" stroke="black" d="M392.6,-1277.5C392.6,-1277.5 257.35,-1277.5 257.35,-1277.5 251.35,-1277.5 245.35,-1271.5 245.35,-1265.5 245.35,-1265.5 245.35,-1253.5 245.35,-1253.5 245.35,-1247.5 251.35,-1241.5 257.35,-1241.5 257.35,-1241.5 392.6,-1241.5 392.6,-1241.5 398.6,-1241.5 404.6,-1247.5 404.6,-1253.5 404.6,-1253.5 404.6,-1265.5 404.6,-1265.5 404.6,-1271.5 398.6,-1277.5 392.6,-1277.5"/>
<text xml:space="preserve" text-anchor="middle" x="324.97" y="-1254.83" font-family="Helvetica,sans-Serif" font-size="14.00">LorentzCorrection v1</text>
</g>
<!-- convertUnitsD3&#45;&gt;lorentz -->
<g id="edge27" class="edge">
<title>convertUnitsD3&#45;&gt;lorentz</title>
<path fill="none" stroke="black" d="M394.23,-1314.07C382.47,-1304.97 368.58,-1294.23 356.33,-1284.76"/>
<polygon fill="black" stroke="black" points="358.6,-1282.09 348.55,-1278.74 354.32,-1287.62 358.6,-1282.09"/>
</g>
<!-- convertUnitsWL1 -->
<g id="node21" class="node">
<title>convertUnitsWL1</title>
<path fill="lightskyblue" stroke="black" d="M473.22,-1516C473.22,-1516 368.72,-1516 368.72,-1516 362.72,-1516 356.72,-1510 356.72,-1504 356.72,-1504 356.72,-1485.5 356.72,-1485.5 356.72,-1479.5 362.72,-1473.5 368.72,-1473.5 368.72,-1473.5 473.22,-1473.5 473.22,-1473.5 479.22,-1473.5 485.22,-1479.5 485.22,-1485.5 485.22,-1485.5 485.22,-1504 485.22,-1504 485.22,-1510 479.22,-1516 473.22,-1516"/>
<text xml:space="preserve" text-anchor="middle" x="420.97" y="-1498.7" font-family="Helvetica,sans-Serif" font-size="14.00">ConvertUnits v1</text>
<text xml:space="preserve" text-anchor="middle" x="420.97" y="-1481.45" font-family="Helvetica,sans-Serif" font-size="14.00">wavelength</text>
</g>
<!-- maskBins -->
<g id="node28" class="node">
<title>maskBins</title>
<path fill="lightskyblue" stroke="black" d="M511.72,-1436.5C511.72,-1436.5 362.22,-1436.5 362.22,-1436.5 356.22,-1436.5 350.22,-1430.5 350.22,-1424.5 350.22,-1424.5 350.22,-1406 350.22,-1406 350.22,-1400 356.22,-1394 362.22,-1394 362.22,-1394 511.72,-1394 511.72,-1394 517.72,-1394 523.72,-1400 523.72,-1406 523.72,-1406 523.72,-1424.5 523.72,-1424.5 523.72,-1430.5 517.72,-1436.5 511.72,-1436.5"/>
<text xml:space="preserve" text-anchor="middle" x="436.97" y="-1419.2" font-family="Helvetica,sans-Serif" font-size="14.00">MaskBins v1</text>
<text xml:space="preserve" text-anchor="middle" x="436.97" y="-1401.95" font-family="Helvetica,sans-Serif" font-size="14.00">absorption resonances</text>
</g>
<!-- convertUnitsWL1&#45;&gt;maskBins -->
<g id="edge25" class="edge">
<title>convertUnitsWL1&#45;&gt;maskBins</title>
<path fill="none" stroke="black" d="M425.18,-1473.39C426.78,-1465.62 428.65,-1456.56 430.42,-1447.98"/>
<polygon fill="black" stroke="black" points="433.84,-1448.73 432.43,-1438.23 426.98,-1447.31 433.84,-1448.73"/>
</g>
<!-- convertUnitsWL2 -->
<g id="node22" class="node">
<title>convertUnitsWL2</title>
<path fill="lightskyblue" stroke="black" d="M377.22,-1115.25C377.22,-1115.25 272.72,-1115.25 272.72,-1115.25 266.72,-1115.25 260.72,-1109.25 260.72,-1103.25 260.72,-1103.25 260.72,-1084.75 260.72,-1084.75 260.72,-1078.75 266.72,-1072.75 272.72,-1072.75 272.72,-1072.75 377.22,-1072.75 377.22,-1072.75 383.22,-1072.75 389.22,-1078.75 389.22,-1084.75 389.22,-1084.75 389.22,-1103.25 389.22,-1103.25 389.22,-1109.25 383.22,-1115.25 377.22,-1115.25"/>
<text xml:space="preserve" text-anchor="middle" x="324.97" y="-1097.95" font-family="Helvetica,sans-Serif" font-size="14.00">ConvertUnits v1</text>
<text xml:space="preserve" text-anchor="middle" x="324.97" y="-1080.7" font-family="Helvetica,sans-Serif" font-size="14.00">wavelength</text>
</g>
<!-- cropWorkspaceWL -->
<g id="node24" class="node">
<title>cropWorkspaceWL</title>
<path fill="lightskyblue" stroke="black" d="M436.85,-1035.75C436.85,-1035.75 315.1,-1035.75 315.1,-1035.75 309.1,-1035.75 303.1,-1029.75 303.1,-1023.75 303.1,-1023.75 303.1,-1005.25 303.1,-1005.25 303.1,-999.25 309.1,-993.25 315.1,-993.25 315.1,-993.25 436.85,-993.25 436.85,-993.25 442.85,-993.25 448.85,-999.25 448.85,-1005.25 448.85,-1005.25 448.85,-1023.75 448.85,-1023.75 448.85,-1029.75 442.85,-1035.75 436.85,-1035.75"/>
<text xml:space="preserve" text-anchor="middle" x="375.97" y="-1018.45" font-family="Helvetica,sans-Serif" font-size="14.00">CropWorkspace v1</text>
<text xml:space="preserve" text-anchor="middle" x="375.97" y="-1001.2" font-family="Helvetica,sans-Serif" font-size="14.00">wavelength range</text>
</g>
<!-- convertUnitsWL2&#45;&gt;cropWorkspaceWL -->
<g id="edge33" class="edge">
<title>convertUnitsWL2&#45;&gt;cropWorkspaceWL</title>
<path fill="none" stroke="black" d="M338.37,-1072.64C343.83,-1064.34 350.26,-1054.57 356.24,-1045.49"/>
<polygon fill="black" stroke="black" points="359.08,-1047.54 361.65,-1037.26 353.23,-1043.69 359.08,-1047.54"/>
</g>
<!-- cropWorkspaceTof -->
<g id="node23" class="node">
<title>cropWorkspaceTof</title>
<path fill="lightskyblue" stroke="black" d="M299.85,-2525.5C299.85,-2525.5 178.1,-2525.5 178.1,-2525.5 172.1,-2525.5 166.1,-2519.5 166.1,-2513.5 166.1,-2513.5 166.1,-2495 166.1,-2495 166.1,-2489 172.1,-2483 178.1,-2483 178.1,-2483 299.85,-2483 299.85,-2483 305.85,-2483 311.85,-2489 311.85,-2495 311.85,-2495 311.85,-2513.5 311.85,-2513.5 311.85,-2519.5 305.85,-2525.5 299.85,-2525.5"/>
<text xml:space="preserve" text-anchor="middle" x="238.97" y="-2508.2" font-family="Helvetica,sans-Serif" font-size="14.00">CropWorkspace v1</text>
<text xml:space="preserve" text-anchor="middle" x="238.97" y="-2490.95" font-family="Helvetica,sans-Serif" font-size="14.00">tof range</text>
</g>
<!-- cropWorkspaceTof&#45;&gt;removePromptPulse -->
<g id="edge5" class="edge">
<title>cropWorkspaceTof&#45;&gt;removePromptPulse</title>
<path fill="none" stroke="black" d="M271.01,-2482.57C285.51,-2473.2 302.72,-2462.09 317.69,-2452.42"/>
<polygon fill="black" stroke="black" points="319.39,-2455.5 325.89,-2447.13 315.59,-2449.62 319.39,-2455.5"/>
</g>
<!-- cropWorkspaceWL&#45;&gt;convertUnitsD1 -->
<g id="edge34" class="edge">
<title>cropWorkspaceWL&#45;&gt;convertUnitsD1</title>
<path fill="none" stroke="black" d="M394.1,-993.14C401.8,-984.49 410.93,-974.24 419.3,-964.83"/>
<polygon fill="black" stroke="black" points="421.68,-967.42 425.72,-957.63 416.45,-962.77 421.68,-967.42"/>
</g>
<!-- isDspace3 -->
<g id="node42" class="node">
<title>isDspace3</title>
<polygon fill="limegreen" stroke="black" points="519.97,-641.5 369.43,-623.5 519.97,-605.5 670.51,-623.5 519.97,-641.5"/>
<text xml:space="preserve" text-anchor="middle" x="519.97" y="-618.83" font-family="Helvetica,sans-Serif" font-size="14.00">Is d&#45;space binning?</text>
</g>
<!-- diffFocus&#45;&gt;isDspace3 -->
<g id="edge41" class="edge">
<title>diffFocus&#45;&gt;isDspace3</title>
<path fill="none" stroke="black" d="M519.97,-678.31C519.97,-670.73 519.97,-661.6 519.97,-653.04"/>
<polygon fill="black" stroke="black" points="523.47,-653.04 519.97,-643.04 516.47,-653.04 523.47,-653.04"/>
</g>
<!-- editGeom -->
<g id="node26" class="node">
<title>editGeom</title>
<path fill="lightskyblue" stroke="black" d="M636.1,-472.75C636.1,-472.75 449.85,-472.75 449.85,-472.75 443.85,-472.75 437.85,-466.75 437.85,-460.75 437.85,-460.75 437.85,-448.75 437.85,-448.75 437.85,-442.75 443.85,-436.75 449.85,-436.75 449.85,-436.75 636.1,-436.75 636.1,-436.75 642.1,-436.75 648.1,-442.75 648.1,-448.75 648.1,-448.75 648.1,-460.75 648.1,-460.75 648.1,-466.75 642.1,-472.75 636.1,-472.75"/>
<text xml:space="preserve" text-anchor="middle" x="542.97" y="-450.07" font-family="Helvetica,sans-Serif" font-size="14.00">EditInstrumentGeometry v1</text>
</g>
<!-- editGeom&#45;&gt;convertUnitsTof2 -->
<g id="edge45" class="edge">
<title>editGeom&#45;&gt;convertUnitsTof2</title>
<path fill="none" stroke="black" d="M542.97,-436.53C542.97,-429.05 542.97,-420.04 542.97,-411.41"/>
<polygon fill="black" stroke="black" points="546.47,-411.57 542.97,-401.57 539.47,-411.57 546.47,-411.57"/>
</g>
<!-- ifDIFCref -->
<g id="node43" class="node">
<title>ifDIFCref</title>
<polygon fill="limegreen" stroke="black" points="324.97,-1204.5 184.1,-1186.5 324.97,-1168.5 465.84,-1186.5 324.97,-1204.5"/>
<text xml:space="preserve" text-anchor="middle" x="324.97" y="-1181.83" font-family="Helvetica,sans-Serif" font-size="14.00">DIFCref specified?</text>
</g>
<!-- lorentz&#45;&gt;ifDIFCref -->
<g id="edge28" class="edge">
<title>lorentz&#45;&gt;ifDIFCref</title>
<path fill="none" stroke="black" d="M324.97,-1241.31C324.97,-1233.73 324.97,-1224.6 324.97,-1216.04"/>
<polygon fill="black" stroke="black" points="328.47,-1216.04 324.97,-1206.04 321.47,-1216.04 328.47,-1216.04"/>
</g>
<!-- maskBins&#45;&gt;convertUnitsD3 -->
<g id="edge26" class="edge">
<title>maskBins&#45;&gt;convertUnitsD3</title>
<path fill="none" stroke="black" d="M432.77,-1393.89C431.16,-1386.12 429.29,-1377.06 427.52,-1368.48"/>
<polygon fill="black" stroke="black" points="430.96,-1367.81 425.51,-1358.73 424.1,-1369.23 430.96,-1367.81"/>
</g>
<!-- isLarge -->
<g id="node37" class="node">
<title>isLarge</title>
<polygon fill="limegreen" stroke="black" points="445.97,-2300 250.79,-2282 445.97,-2264 641.16,-2282 445.97,-2300"/>
<text xml:space="preserve" text-anchor="middle" x="445.97" y="-2277.32" font-family="Helvetica,sans-Serif" font-size="14.00">Is large event workspace?</text>
</g>
<!-- maskBinsTable&#45;&gt;isLarge -->
<g id="edge8" class="edge">
<title>maskBinsTable&#45;&gt;isLarge</title>
<path fill="none" stroke="black" d="M445.97,-2336.81C445.97,-2329.23 445.97,-2320.1 445.97,-2311.54"/>
<polygon fill="black" stroke="black" points="449.47,-2311.54 445.97,-2301.54 442.47,-2311.54 449.47,-2311.54"/>
</g>
<!-- maskDetectors&#45;&gt;cropWorkspaceTof -->
<g id="edge3" class="edge">
<title>maskDetectors&#45;&gt;cropWorkspaceTof</title>
<path fill="none" stroke="black" d="M238.97,-2562.28C238.97,-2554.8 238.97,-2545.79 238.97,-2537.16"/>
<polygon fill="black" stroke="black" points="242.47,-2537.32 238.97,-2527.32 235.47,-2537.32 242.47,-2537.32"/>
</g>
<!-- hasCalibration -->
<g id="node38" class="node">
<title>hasCalibration</title>
<polygon fill="limegreen" stroke="black" points="377.97,-1975.5 251.98,-1957.5 377.97,-1939.5 503.96,-1957.5 377.97,-1975.5"/>
<text xml:space="preserve" text-anchor="middle" x="377.97" y="-1952.83" font-family="Helvetica,sans-Serif" font-size="14.00">Has calibration?</text>
</g>
<!-- rebin1&#45;&gt;hasCalibration -->
<g id="edge15" class="edge">
<title>rebin1&#45;&gt;hasCalibration</title>
<path fill="none" stroke="black" d="M317.34,-2012.31C328.02,-2002.83 341.42,-1990.94 352.89,-1980.76"/>
<polygon fill="black" stroke="black" points="354.93,-1983.63 360.09,-1974.37 350.29,-1978.39 354.93,-1983.63"/>
</g>
<!-- rebin2&#45;&gt;diffFocus -->
<g id="edge39" class="edge">
<title>rebin2&#45;&gt;diffFocus</title>
<path fill="none" stroke="black" d="M519.97,-751.31C519.97,-743.73 519.97,-734.6 519.97,-726.04"/>
<polygon fill="black" stroke="black" points="523.47,-726.04 519.97,-716.04 516.47,-726.04 523.47,-726.04"/>
</g>
<!-- rebin3 -->
<g id="node33" class="node">
<title>rebin3</title>
<path fill="lightskyblue" stroke="black" d="M531.22,-552.25C531.22,-552.25 390.72,-552.25 390.72,-552.25 384.72,-552.25 378.72,-546.25 378.72,-540.25 378.72,-540.25 378.72,-521.75 378.72,-521.75 378.72,-515.75 384.72,-509.75 390.72,-509.75 390.72,-509.75 531.22,-509.75 531.22,-509.75 537.22,-509.75 543.22,-515.75 543.22,-521.75 543.22,-521.75 543.22,-540.25 543.22,-540.25 543.22,-546.25 537.22,-552.25 531.22,-552.25"/>
<text xml:space="preserve" text-anchor="middle" x="460.97" y="-534.95" font-family="Helvetica,sans-Serif" font-size="14.00">Rebin, ResampleX, or</text>
<text xml:space="preserve" text-anchor="middle" x="460.97" y="-517.7" font-family="Helvetica,sans-Serif" font-size="14.00">RebinRagged</text>
</g>
<!-- rebin3&#45;&gt;editGeom -->
<g id="edge43" class="edge">
<title>rebin3&#45;&gt;editGeom</title>
<path fill="none" stroke="black" d="M483.81,-509.32C493.66,-500.4 505.26,-489.9 515.57,-480.56"/>
<polygon fill="black" stroke="black" points="517.67,-483.38 522.73,-474.08 512.97,-478.19 517.67,-483.38"/>
</g>
<!-- rebinRagged -->
<g id="node34" class="node">
<title>rebinRagged</title>
<path fill="lightskyblue" stroke="black" d="M638.97,-109C638.97,-109 532.97,-109 532.97,-109 526.97,-109 520.97,-103 520.97,-97 520.97,-97 520.97,-85 520.97,-85 520.97,-79 526.97,-73 532.97,-73 532.97,-73 638.97,-73 638.97,-73 644.97,-73 650.97,-79 650.97,-85 650.97,-85 650.97,-97 650.97,-97 650.97,-103 644.97,-109 638.97,-109"/>
<text xml:space="preserve" text-anchor="middle" x="585.97" y="-86.33" font-family="Helvetica,sans-Serif" font-size="14.00">RebinRagged v1</text>
</g>
<!-- rebinRagged&#45;&gt;OutputWorkspace -->
<g id="edge50" class="edge">
<title>rebinRagged&#45;&gt;OutputWorkspace</title>
<path fill="none" stroke="black" d="M598.08,-72.81C603.91,-64.53 611.03,-54.41 617.53,-45.19"/>
<polygon fill="black" stroke="black" points="620.21,-47.46 623.11,-37.27 614.49,-43.43 620.21,-47.46"/>
</g>
<!-- removeLowResTOF&#45;&gt;convertUnitsD1 -->
<g id="edge32" class="edge">
<title>removeLowResTOF&#45;&gt;convertUnitsD1</title>
<path fill="none" stroke="black" d="M488.54,-1075.6C480.41,-1049.53 464.93,-999.94 454.78,-967.43"/>
<polygon fill="black" stroke="black" points="458.21,-966.66 451.89,-958.15 451.52,-968.74 458.21,-966.66"/>
</g>
<!-- removePromptPulse&#45;&gt;maskBinsTable -->
<g id="edge6" class="edge">
<title>removePromptPulse&#45;&gt;maskBinsTable</title>
<path fill="none" stroke="black" d="M376.24,-2409.81C387.8,-2400.9 402.1,-2389.86 414.74,-2380.1"/>
<polygon fill="black" stroke="black" points="416.61,-2383.08 422.39,-2374.2 412.33,-2377.54 416.61,-2383.08"/>
</g>
<!-- isLarge&#45;&gt;compressEvents -->
<g id="edge10" class="edge">
<title>isLarge&#45;&gt;compressEvents</title>
<path fill="none" stroke="black" d="M425.77,-2265.4C408.67,-2252.2 383.88,-2233.06 364.22,-2217.88"/>
<polygon fill="black" stroke="black" points="366.57,-2215.27 356.52,-2211.93 362.3,-2220.81 366.57,-2215.27"/>
<text xml:space="preserve" text-anchor="middle" x="410.84" y="-2232.7" font-family="Helvetica,sans-Serif" font-size="14.00">Yes</text>
</g>
<!-- isLarge&#45;&gt;isDspace1 -->
<g id="edge11" class="edge">
<title>isLarge&#45;&gt;isDspace1</title>
<path fill="none" stroke="black" d="M442.33,-2263.85C436.5,-2236.38 425.02,-2182.23 417.96,-2148.99"/>
<polygon fill="black" stroke="black" points="421.4,-2148.31 415.9,-2139.26 414.55,-2149.77 421.4,-2148.31"/>
<text xml:space="preserve" text-anchor="middle" x="440.33" y="-2188.07" font-family="Helvetica,sans-Serif" font-size="14.00">No</text>
</g>
<!-- hasCalibration&#45;&gt;applyDiffCal -->
<g id="edge17" class="edge">
<title>hasCalibration&#45;&gt;applyDiffCal</title>
<path fill="none" stroke="black" d="M361.35,-1941.7C346.75,-1928.7 325.2,-1909.52 307.95,-1894.16"/>
<polygon fill="black" stroke="black" points="310.3,-1891.57 300.51,-1887.53 305.65,-1896.8 310.3,-1891.57"/>
<text xml:space="preserve" text-anchor="middle" x="349" y="-1908.2" font-family="Helvetica,sans-Serif" font-size="14.00">Yes</text>
</g>
<!-- hasCalibration&#45;&gt;convertUnitsD2 -->
<g id="edge20" class="edge">
<title>hasCalibration&#45;&gt;convertUnitsD2</title>
<path fill="none" stroke="black" d="M374.36,-1939.77C369.67,-1918.69 360.89,-1881.45 350.97,-1850.25 348.26,-1841.71 344.95,-1832.6 341.73,-1824.22"/>
<polygon fill="black" stroke="black" points="345.08,-1823.17 338.17,-1815.14 338.56,-1825.72 345.08,-1823.17"/>
<text xml:space="preserve" text-anchor="middle" x="370.58" y="-1863.58" font-family="Helvetica,sans-Serif" font-size="14.00">No</text>
</g>
<!-- hasResonance&#45;&gt;convertUnitsWL1 -->
<g id="edge24" class="edge">
<title>hasResonance&#45;&gt;convertUnitsWL1</title>
<path fill="none" stroke="black" d="M355.09,-1578.1C368.54,-1561.29 384.79,-1540.98 397.79,-1524.73"/>
<polygon fill="black" stroke="black" points="400.18,-1527.35 403.69,-1517.35 394.71,-1522.97 400.18,-1527.35"/>
<text xml:space="preserve" text-anchor="middle" x="399.84" y="-1537.95" font-family="Helvetica,sans-Serif" font-size="14.00">Yes</text>
</g>
<!-- hasResonance&#45;&gt;lorentz -->
<g id="edge23" class="edge">
<title>hasResonance&#45;&gt;lorentz</title>
<path fill="none" stroke="black" d="M320.83,-1571.81C316.88,-1549.63 312.97,-1521.25 312.97,-1495.75 312.97,-1495.75 312.97,-1495.75 312.97,-1334.75 312.97,-1319.5 315.47,-1302.71 318.19,-1288.96"/>
<polygon fill="black" stroke="black" points="321.59,-1289.77 320.26,-1279.26 314.75,-1288.31 321.59,-1289.77"/>
<text xml:space="preserve" text-anchor="middle" x="322.35" y="-1410.58" font-family="Helvetica,sans-Serif" font-size="14.00">No</text>
</g>
<!-- isDspace1&#45;&gt;rebin1 -->
<g id="edge13" class="edge">
<title>isDspace1&#45;&gt;rebin1</title>
<path fill="none" stroke="black" d="M392.37,-2103.75C375.12,-2090.54 349.67,-2071.07 329.55,-2055.67"/>
<polygon fill="black" stroke="black" points="331.71,-2052.91 321.64,-2049.61 327.45,-2058.47 331.71,-2052.91"/>
<text xml:space="preserve" text-anchor="middle" x="374.56" y="-2070.45" font-family="Helvetica,sans-Serif" font-size="14.00">No</text>
</g>
<!-- isDspace1&#45;&gt;hasCalibration -->
<g id="edge16" class="edge">
<title>isDspace1&#45;&gt;hasCalibration</title>
<path fill="none" stroke="black" d="M408.4,-2101.9C402.57,-2074.42 390.95,-2019.67 383.88,-1986.34"/>
<polygon fill="black" stroke="black" points="387.31,-1985.66 381.81,-1976.6 380.46,-1987.11 387.31,-1985.66"/>
<text xml:space="preserve" text-anchor="middle" x="408.2" y="-2025.83" font-family="Helvetica,sans-Serif" font-size="14.00">Yes</text>
</g>
<!-- isDspace2&#45;&gt;diffFocus -->
<g id="edge36" class="edge">
<title>isDspace2&#45;&gt;diffFocus</title>
<path fill="none" stroke="black" d="M442.59,-840.8C440.33,-818.84 439.2,-780 454.22,-751.5 460.35,-739.88 470.15,-729.81 480.34,-721.63"/>
<polygon fill="black" stroke="black" points="482.19,-724.62 488.1,-715.83 478,-719.01 482.19,-724.62"/>
<text xml:space="preserve" text-anchor="middle" x="463.6" y="-764.83" font-family="Helvetica,sans-Serif" font-size="14.00">No</text>
</g>
<!-- isDspace2&#45;&gt;rebin2 -->
<g id="edge37" class="edge">
<title>isDspace2&#45;&gt;rebin2</title>
<path fill="none" stroke="black" d="M458.38,-842.15C469.37,-829.37 485.15,-811.02 497.98,-796.08"/>
<polygon fill="black" stroke="black" points="500.29,-798.77 504.15,-788.91 494.98,-794.21 500.29,-798.77"/>
<text xml:space="preserve" text-anchor="middle" x="500.44" y="-809.45" font-family="Helvetica,sans-Serif" font-size="14.00">Yes</text>
</g>
<!-- isDspace3&#45;&gt;editGeom -->
<g id="edge44" class="edge">
<title>isDspace3&#45;&gt;editGeom</title>
<path fill="none" stroke="black" d="M529.69,-606.45C537.45,-592.64 547.71,-571.9 551.97,-552.25 556.88,-529.65 553.92,-503.49 550.13,-484.12"/>
<polygon fill="black" stroke="black" points="553.58,-483.53 548.04,-474.5 546.74,-485.02 553.58,-483.53"/>
<text xml:space="preserve" text-anchor="middle" x="563.92" y="-526.33" font-family="Helvetica,sans-Serif" font-size="14.00">No</text>
</g>
<!-- isDspace3&#45;&gt;rebin3 -->
<g id="edge42" class="edge">
<title>isDspace3&#45;&gt;rebin3</title>
<path fill="none" stroke="black" d="M509.42,-606.32C501.38,-593.98 490.06,-576.62 480.39,-561.79"/>
<polygon fill="black" stroke="black" points="483.55,-560.22 475.15,-553.75 477.68,-564.04 483.55,-560.22"/>
<text xml:space="preserve" text-anchor="middle" x="507.01" y="-574.2" font-family="Helvetica,sans-Serif" font-size="14.00">Yes</text>
</g>
<!-- ifDIFCref&#45;&gt;convertUnitsWL2 -->
<g id="edge29" class="edge">
<title>ifDIFCref&#45;&gt;convertUnitsWL2</title>
<path fill="none" stroke="black" d="M324.97,-1168.05C324.97,-1156.33 324.97,-1140.56 324.97,-1126.66"/>
<polygon fill="black" stroke="black" points="328.47,-1127.08 324.97,-1117.08 321.47,-1127.08 328.47,-1127.08"/>
<text xml:space="preserve" text-anchor="middle" x="334.35" y="-1137.2" font-family="Helvetica,sans-Serif" font-size="14.00">No</text>
</g>
<!-- ifDIFCref&#45;&gt;removeLowResTOF -->
<g id="edge30" class="edge">
<title>ifDIFCref&#45;&gt;removeLowResTOF</title>
<path fill="none" stroke="black" d="M351.01,-1171.56C377.83,-1157.2 420.06,-1134.58 451.68,-1117.65"/>
<polygon fill="black" stroke="black" points="453.04,-1120.89 460.2,-1113.08 449.74,-1114.72 453.04,-1120.89"/>
<text xml:space="preserve" text-anchor="middle" x="430.84" y="-1137.2" font-family="Helvetica,sans-Serif" font-size="14.00">Yes</text>
</g>
<!-- ifRaggedTof&#45;&gt;OutputWorkspace -->
<g id="edge51" class="edge">
<title>ifRaggedTof&#45;&gt;OutputWorkspace</title>
<path fill="none" stroke="black" d="M651.07,-166.7C659.22,-140.45 666.65,-104.45 659.97,-73 658.08,-64.07 654.6,-54.82 650.87,-46.56"/>
<polygon fill="black" stroke="black" points="654.1,-45.2 646.59,-37.73 647.8,-48.25 654.1,-45.2"/>
<text xml:space="preserve" text-anchor="middle" x="671.93" y="-86.33" font-family="Helvetica,sans-Serif" font-size="14.00">No</text>
</g>
<!-- ifRaggedTof&#45;&gt;rebinRagged -->
<g id="edge49" class="edge">
<title>ifRaggedTof&#45;&gt;rebinRagged</title>
<path fill="none" stroke="black" d="M620.41,-167.47C613.32,-151.93 605.17,-134.07 598.58,-119.63"/>
<polygon fill="black" stroke="black" points="601.85,-118.37 594.52,-110.73 595.49,-121.28 601.85,-118.37"/>
<text xml:space="preserve" text-anchor="middle" x="619.67" y="-130.95" font-family="Helvetica,sans-Serif" font-size="14.00">Yes</text>
</g>
</g>
</svg>
