<?xml version="1.0" encoding="UTF-8" standalone="no"?>
<!DOCTYPE svg PUBLIC "-//W3C//DTD SVG 1.1//EN"
 "http://www.w3.org/Graphics/SVG/1.1/DTD/svg11.dtd">
<!-- Generated by graphviz version 7.0.5 (20221231.0122)
 -->
<!-- Title: ApplyPaalmanPingsCorrection_SampleCorrectOnly Pages: 1 -->
<svg width="494pt" height="401pt"
 viewBox="0.00 0.00 494.09 401.00" xmlns="http://www.w3.org/2000/svg" xmlns:xlink="http://www.w3.org/1999/xlink">
<g id="graph0" class="graph" transform="scale(1 1) rotate(0) translate(4 397)">
<title>ApplyPaalmanPingsCorrection_SampleCorrectOnly</title>
<polygon fill="white" stroke="none" points="-4,4 -4,-397 490.09,-397 490.09,4 -4,4"/>
<text text-anchor="middle" x="243.05" y="-377.8" font-family="Helvetica,sans-Serif" font-size="14.00">ApplyPaalmanPingsCorrection Sample Correct Only Flowchart</text>
<!-- IsAssInWavelength -->
<g id="node1" class="node">
<title>IsAssInWavelength</title>
<polygon fill="limegreen" stroke="black" points="239.59,-283 110.73,-265 239.59,-247 368.46,-265 239.59,-283"/>
<text text-anchor="middle" x="239.59" y="-261.3" font-family="Helvetica,sans-Serif" font-size="14.00">Is in Wavelength?</text>
</g>
<!-- Divide -->
<g id="node5" class="node">
<title>Divide</title>
<path fill="lightskyblue" stroke="black" d="M241.59,-109C241.59,-109 205.59,-109 205.59,-109 199.59,-109 193.59,-103 193.59,-97 193.59,-97 193.59,-85 193.59,-85 193.59,-79 199.59,-73 205.59,-73 205.59,-73 241.59,-73 241.59,-73 247.59,-73 253.59,-79 253.59,-85 253.59,-85 253.59,-97 253.59,-97 253.59,-103 247.59,-109 241.59,-109"/>
<text text-anchor="middle" x="223.59" y="-87.3" font-family="Helvetica,sans-Serif" font-size="14.00">Divide</text>
</g>
<!-- IsAssInWavelength&#45;&gt;Divide -->
<g id="edge3" class="edge">
<title>IsAssInWavelength&#45;&gt;Divide</title>
<path fill="none" stroke="black" d="M238,-246.88C235.25,-217.33 229.59,-156.49 226.24,-120.48"/>
<polygon fill="black" stroke="black" points="229.75,-120.45 225.34,-110.81 222.78,-121.1 229.75,-120.45"/>
<text text-anchor="middle" x="302.09" y="-174.3" font-family="Helvetica,sans-Serif" font-size="14.00">Yes, RHSWorkspace</text>
</g>
<!-- ConvertUnits -->
<g id="node6" class="node">
<title>ConvertUnits</title>
<path fill="lightskyblue" stroke="black" d="M474.09,-196C474.09,-196 391.09,-196 391.09,-196 385.09,-196 379.09,-190 379.09,-184 379.09,-184 379.09,-172 379.09,-172 379.09,-166 385.09,-160 391.09,-160 391.09,-160 474.09,-160 474.09,-160 480.09,-160 486.09,-166 486.09,-172 486.09,-172 486.09,-184 486.09,-184 486.09,-190 480.09,-196 474.09,-196"/>
<text text-anchor="middle" x="432.59" y="-174.3" font-family="Helvetica,sans-Serif" font-size="14.00">ConvertUnits</text>
</g>
<!-- IsAssInWavelength&#45;&gt;ConvertUnits -->
<g id="edge4" class="edge">
<title>IsAssInWavelength&#45;&gt;ConvertUnits</title>
<path fill="none" stroke="black" d="M269.75,-250.72C299.95,-237.42 346.96,-216.71 382.72,-200.96"/>
<polygon fill="black" stroke="black" points="383.83,-204.3 391.57,-197.07 381.01,-197.9 383.83,-204.3"/>
<text text-anchor="middle" x="357.09" y="-217.8" font-family="Helvetica,sans-Serif" font-size="14.00">No</text>
</g>
<!-- SampleWorkspace -->
<g id="node2" class="node">
<title>SampleWorkspace</title>
<ellipse fill="khaki" stroke="black" cx="93.59" cy="-178" rx="93.68" ry="18"/>
<text text-anchor="middle" x="93.59" y="-174.3" font-family="Helvetica,sans-Serif" font-size="14.00">SampleWorkspace</text>
</g>
<!-- SampleWorkspace&#45;&gt;Divide -->
<g id="edge1" class="edge">
<title>SampleWorkspace&#45;&gt;Divide</title>
<path fill="none" stroke="black" d="M93.95,-159.65C95.08,-148.95 98.25,-135.65 106.59,-127 126.09,-106.78 156.76,-98.11 181.8,-94.46"/>
<polygon fill="black" stroke="black" points="182.2,-97.93 191.7,-93.26 181.36,-90.99 182.2,-97.93"/>
<text text-anchor="middle" x="158.09" y="-130.8" font-family="Helvetica,sans-Serif" font-size="14.00">LHSWorkspace</text>
</g>
<!-- CorrectionsWorkspace -->
<g id="node3" class="node">
<title>CorrectionsWorkspace</title>
<ellipse fill="khaki" stroke="black" cx="239.59" cy="-352" rx="110.48" ry="18"/>
<text text-anchor="middle" x="239.59" y="-348.3" font-family="Helvetica,sans-Serif" font-size="14.00">CorrectionsWorkspace</text>
</g>
<!-- CorrectionsWorkspace&#45;&gt;IsAssInWavelength -->
<g id="edge2" class="edge">
<title>CorrectionsWorkspace&#45;&gt;IsAssInWavelength</title>
<path fill="none" stroke="black" d="M239.59,-333.8C239.59,-322.58 239.59,-307.67 239.59,-294.69"/>
<polygon fill="black" stroke="black" points="243.09,-294.98 239.59,-284.98 236.09,-294.98 243.09,-294.98"/>
<text text-anchor="middle" x="254.59" y="-304.8" font-family="Helvetica,sans-Serif" font-size="14.00">As,s</text>
</g>
<!-- OutputWorkspace -->
<g id="node4" class="node">
<title>OutputWorkspace</title>
<ellipse fill="khaki" stroke="black" cx="223.59" cy="-18" rx="91.78" ry="18"/>
<text text-anchor="middle" x="223.59" y="-14.3" font-family="Helvetica,sans-Serif" font-size="14.00">OutputWorkspace</text>
</g>
<!-- Divide&#45;&gt;OutputWorkspace -->
<g id="edge6" class="edge">
<title>Divide&#45;&gt;OutputWorkspace</title>
<path fill="none" stroke="black" d="M223.59,-72.81C223.59,-65.23 223.59,-56.1 223.59,-47.54"/>
<polygon fill="black" stroke="black" points="227.09,-47.54 223.59,-37.54 220.09,-47.54 227.09,-47.54"/>
</g>
<!-- ConvertUnits&#45;&gt;Divide -->
<g id="edge5" class="edge">
<title>ConvertUnits&#45;&gt;Divide</title>
<path fill="none" stroke="black" d="M389.79,-159.59C353.1,-144.67 300.6,-123.32 264.48,-108.63"/>
<polygon fill="black" stroke="black" points="265.81,-105.39 255.23,-104.87 263.17,-111.88 265.81,-105.39"/>
<text text-anchor="middle" x="393.59" y="-130.8" font-family="Helvetica,sans-Serif" font-size="14.00">RHSWorkspace</text>
</g>
</g>
</svg>
