<?xml version="1.0" encoding="UTF-8" standalone="no"?>
<!DOCTYPE svg PUBLIC "-//W3C//DTD SVG 1.1//EN"
 "http://www.w3.org/Graphics/SVG/1.1/DTD/svg11.dtd">
<!-- Generated by graphviz version 9.0.0 (20231125.0833)
 -->
<!-- Title: ApplyPaalmanPingsCorrection_CanScaleOnly Pages: 1 -->
<svg width="452pt" height="305pt"
 viewBox="0.00 0.00 452.25 304.50" xmlns="http://www.w3.org/2000/svg" xmlns:xlink="http://www.w3.org/1999/xlink">
<g id="graph0" class="graph" transform="scale(1 1) rotate(0) translate(4 300.5)">
<title>ApplyPaalmanPingsCorrection_CanScaleOnly</title>
<polygon fill="white" stroke="none" points="-4,4 -4,-300.5 448.25,-300.5 448.25,4 -4,4"/>
<text text-anchor="middle" x="222.12" y="-279.2" font-family="Helvetica,sans-Serif" font-size="14.00">ApplyPaalmanPingsCorrection Container Scale Only Flowchart</text>
<!-- SampleWorkspace -->
<g id="node1" class="node">
<title>SampleWorkspace</title>
<ellipse fill="khaki" stroke="black" cx="109.75" cy="-180.25" rx="100.66" ry="18"/>
<text text-anchor="middle" x="109.75" y="-175.57" font-family="Helvetica,sans-Serif" font-size="14.00">SampleWorkspace</text>
</g>
<!-- Minus -->
<g id="node6" class="node">
<title>Minus</title>
<path fill="lightskyblue" stroke="black" d="M189.38,-109C189.38,-109 156.13,-109 156.13,-109 150.13,-109 144.13,-103 144.13,-97 144.13,-97 144.13,-85 144.13,-85 144.13,-79 150.13,-73 156.13,-73 156.13,-73 189.38,-73 189.38,-73 195.38,-73 201.38,-79 201.38,-85 201.38,-85 201.38,-97 201.38,-97 201.38,-103 195.38,-109 189.38,-109"/>
<text text-anchor="middle" x="172.75" y="-86.33" font-family="Helvetica,sans-Serif" font-size="14.00">Minus</text>
</g>
<!-- SampleWorkspace&#45;&gt;Minus -->
<g id="edge4" class="edge">
<title>SampleWorkspace&#45;&gt;Minus</title>
<path fill="none" stroke="black" d="M110.24,-161.98C111.29,-151.14 114.04,-137.3 121,-127 124.66,-121.59 129.46,-116.78 134.66,-112.6"/>
<polygon fill="black" stroke="black" points="136.34,-115.71 142.44,-107.04 132.27,-110.01 136.34,-115.71"/>
<text text-anchor="middle" x="173.13" y="-130.95" font-family="Helvetica,sans-Serif" font-size="14.00">LHSWorkspace</text>
</g>
<!-- CanWorkspace -->
<g id="node2" class="node">
<title>CanWorkspace</title>
<ellipse fill="khaki" stroke="black" cx="162.75" cy="-253.25" rx="83.3" ry="18"/>
<text text-anchor="middle" x="162.75" y="-248.57" font-family="Helvetica,sans-Serif" font-size="14.00">CanWorkspace</text>
</g>
<!-- Scale -->
<g id="node5" class="node">
<title>Scale</title>
<path fill="lightskyblue" stroke="black" d="M270.75,-198.25C270.75,-198.25 240.75,-198.25 240.75,-198.25 234.75,-198.25 228.75,-192.25 228.75,-186.25 228.75,-186.25 228.75,-174.25 228.75,-174.25 228.75,-168.25 234.75,-162.25 240.75,-162.25 240.75,-162.25 270.75,-162.25 270.75,-162.25 276.75,-162.25 282.75,-168.25 282.75,-174.25 282.75,-174.25 282.75,-186.25 282.75,-186.25 282.75,-192.25 276.75,-198.25 270.75,-198.25"/>
<text text-anchor="middle" x="255.75" y="-175.57" font-family="Helvetica,sans-Serif" font-size="14.00">Scale</text>
</g>
<!-- CanWorkspace&#45;&gt;Scale -->
<g id="edge1" class="edge">
<title>CanWorkspace&#45;&gt;Scale</title>
<path fill="none" stroke="black" d="M184.79,-235.42C196.46,-226.51 211.01,-215.41 223.88,-205.58"/>
<polygon fill="black" stroke="black" points="225.87,-208.47 231.7,-199.62 221.63,-202.9 225.87,-208.47"/>
</g>
<!-- CanScaleFactor -->
<g id="node3" class="node">
<title>CanScaleFactor</title>
<ellipse fill="khaki" stroke="black" cx="349.75" cy="-253.25" rx="85.41" ry="18"/>
<text text-anchor="middle" x="349.75" y="-248.57" font-family="Helvetica,sans-Serif" font-size="14.00">CanScaleFactor</text>
</g>
<!-- CanScaleFactor&#45;&gt;Scale -->
<g id="edge2" class="edge">
<title>CanScaleFactor&#45;&gt;Scale</title>
<path fill="none" stroke="black" d="M327.48,-235.42C315.68,-226.51 300.98,-215.41 287.97,-205.58"/>
<polygon fill="black" stroke="black" points="290.15,-202.84 280.06,-199.61 285.93,-208.43 290.15,-202.84"/>
</g>
<!-- OutputWorkspace -->
<g id="node4" class="node">
<title>OutputWorkspace</title>
<ellipse fill="khaki" stroke="black" cx="172.75" cy="-18" rx="98.56" ry="18"/>
<text text-anchor="middle" x="172.75" y="-13.32" font-family="Helvetica,sans-Serif" font-size="14.00">OutputWorkspace</text>
</g>
<!-- Scale&#45;&gt;Minus -->
<g id="edge3" class="edge">
<title>Scale&#45;&gt;Minus</title>
<path fill="none" stroke="black" d="M247.56,-162C241.88,-151.17 233.57,-137.34 223.75,-127 219.83,-122.87 215.35,-118.95 210.7,-115.33"/>
<polygon fill="black" stroke="black" points="213.05,-112.71 202.9,-109.65 208.93,-118.37 213.05,-112.71"/>
<text text-anchor="middle" x="290.25" y="-130.95" font-family="Helvetica,sans-Serif" font-size="14.00">RHSWorkspace</text>
</g>
<!-- Minus&#45;&gt;OutputWorkspace -->
<g id="edge5" class="edge">
<title>Minus&#45;&gt;OutputWorkspace</title>
<path fill="none" stroke="black" d="M172.75,-72.81C172.75,-65.23 172.75,-56.1 172.75,-47.54"/>
<polygon fill="black" stroke="black" points="176.25,-47.54 172.75,-37.54 169.25,-47.54 176.25,-47.54"/>
</g>
</g>
</svg>
