<?xml version="1.0" encoding="UTF-8" standalone="no"?>
<!DOCTYPE svg PUBLIC "-//W3C//DTD SVG 1.1//EN"
 "http://www.w3.org/Graphics/SVG/1.1/DTD/svg11.dtd">
<!-- Generated by graphviz version 9.0.0 (20231125.0833)
 -->
<!-- Title: ApplyPaalmanPingsCorrection_FullCorrection Pages: 1 -->
<svg width="900pt" height="678pt"
 viewBox="0.00 0.00 900.39 677.75" xmlns="http://www.w3.org/2000/svg" xmlns:xlink="http://www.w3.org/1999/xlink">
<g id="graph0" class="graph" transform="scale(1 1) rotate(0) translate(4 673.75)">
<title>ApplyPaalmanPingsCorrection_FullCorrection</title>
<polygon fill="white" stroke="none" points="-4,4 -4,-673.75 896.39,-673.75 896.39,4 -4,4"/>
<text text-anchor="middle" x="446.2" y="-652.45" font-family="Helvetica,sans-Serif" font-size="14.00">ApplyPaalmanPingsCorrection Full Corrections Flowchart</text>
<!-- IsAccInWavelength -->
<g id="node1" class="node">
<title>IsAccInWavelength</title>
<polygon fill="limegreen" stroke="black" points="137.89,-555.25 0,-537.25 137.89,-519.25 275.79,-537.25 137.89,-555.25"/>
<text text-anchor="middle" x="137.89" y="-532.58" font-family="Helvetica,sans-Serif" font-size="14.00">Is in Wavelength?</text>
</g>
<!-- ConvertUnits_Acc -->
<g id="node12" class="node">
<title>ConvertUnits_Acc</title>
<path fill="lightskyblue" stroke="black" d="M151.27,-466C151.27,-466 68.52,-466 68.52,-466 62.52,-466 56.52,-460 56.52,-454 56.52,-454 56.52,-442 56.52,-442 56.52,-436 62.52,-430 68.52,-430 68.52,-430 151.27,-430 151.27,-430 157.27,-430 163.27,-436 163.27,-442 163.27,-442 163.27,-454 163.27,-454 163.27,-460 157.27,-466 151.27,-466"/>
<text text-anchor="middle" x="109.89" y="-443.32" font-family="Helvetica,sans-Serif" font-size="14.00">ConvertUnits</text>
</g>
<!-- IsAccInWavelength&#45;&gt;ConvertUnits_Acc -->
<g id="edge6" class="edge">
<title>IsAccInWavelength&#45;&gt;ConvertUnits_Acc</title>
<path fill="none" stroke="black" d="M132.63,-519.84C128.75,-507.76 123.39,-491.06 118.85,-476.9"/>
<polygon fill="black" stroke="black" points="122.28,-476.13 115.89,-467.67 115.61,-478.27 122.28,-476.13"/>
<text text-anchor="middle" x="136.27" y="-487.95" font-family="Helvetica,sans-Serif" font-size="14.00">No</text>
</g>
<!-- Divide_CanAcc -->
<g id="node15" class="node">
<title>Divide_CanAcc</title>
<path fill="lightskyblue" stroke="black" d="M261.64,-376.75C261.64,-376.75 226.14,-376.75 226.14,-376.75 220.14,-376.75 214.14,-370.75 214.14,-364.75 214.14,-364.75 214.14,-352.75 214.14,-352.75 214.14,-346.75 220.14,-340.75 226.14,-340.75 226.14,-340.75 261.64,-340.75 261.64,-340.75 267.64,-340.75 273.64,-346.75 273.64,-352.75 273.64,-352.75 273.64,-364.75 273.64,-364.75 273.64,-370.75 267.64,-376.75 261.64,-376.75"/>
<text text-anchor="middle" x="243.89" y="-354.07" font-family="Helvetica,sans-Serif" font-size="14.00">Divide</text>
</g>
<!-- IsAccInWavelength&#45;&gt;Divide_CanAcc -->
<g id="edge10" class="edge">
<title>IsAccInWavelength&#45;&gt;Divide_CanAcc</title>
<path fill="none" stroke="black" d="M147.49,-520.28C165.66,-490.03 205.26,-424.08 227.64,-386.81"/>
<polygon fill="black" stroke="black" points="230.54,-388.78 232.69,-378.41 224.54,-385.18 230.54,-388.78"/>
<text text-anchor="middle" x="270.14" y="-443.32" font-family="Helvetica,sans-Serif" font-size="14.00">Yes, RHSWorkspace</text>
</g>
<!-- IsAcscInWavelength -->
<g id="node2" class="node">
<title>IsAcscInWavelength</title>
<polygon fill="limegreen" stroke="black" points="578.89,-466 441,-448 578.89,-430 716.79,-448 578.89,-466"/>
<text text-anchor="middle" x="578.89" y="-443.32" font-family="Helvetica,sans-Serif" font-size="14.00">Is in Wavelength?</text>
</g>
<!-- Multiply -->
<g id="node11" class="node">
<title>Multiply</title>
<path fill="lightskyblue" stroke="black" d="M490.27,-287.5C490.27,-287.5 443.52,-287.5 443.52,-287.5 437.52,-287.5 431.52,-281.5 431.52,-275.5 431.52,-275.5 431.52,-263.5 431.52,-263.5 431.52,-257.5 437.52,-251.5 443.52,-251.5 443.52,-251.5 490.27,-251.5 490.27,-251.5 496.27,-251.5 502.27,-257.5 502.27,-263.5 502.27,-263.5 502.27,-275.5 502.27,-275.5 502.27,-281.5 496.27,-287.5 490.27,-287.5"/>
<text text-anchor="middle" x="466.89" y="-264.82" font-family="Helvetica,sans-Serif" font-size="14.00">Multiply</text>
</g>
<!-- IsAcscInWavelength&#45;&gt;Multiply -->
<g id="edge13" class="edge">
<title>IsAcscInWavelength&#45;&gt;Multiply</title>
<path fill="none" stroke="black" d="M583.12,-430.12C589.28,-401.31 597.11,-342.21 568.89,-305.5 555.77,-288.42 533.83,-279.63 513.66,-275.12"/>
<polygon fill="black" stroke="black" points="514.35,-271.68 503.88,-273.26 513.05,-278.56 514.35,-271.68"/>
<text text-anchor="middle" x="657.14" y="-354.07" font-family="Helvetica,sans-Serif" font-size="14.00">Yes, RHSWorkspace</text>
</g>
<!-- ConvertUnits_Acsc -->
<g id="node13" class="node">
<title>ConvertUnits_Acsc</title>
<path fill="lightskyblue" stroke="black" d="M519.27,-376.75C519.27,-376.75 436.52,-376.75 436.52,-376.75 430.52,-376.75 424.52,-370.75 424.52,-364.75 424.52,-364.75 424.52,-352.75 424.52,-352.75 424.52,-346.75 430.52,-340.75 436.52,-340.75 436.52,-340.75 519.27,-340.75 519.27,-340.75 525.27,-340.75 531.27,-346.75 531.27,-352.75 531.27,-352.75 531.27,-364.75 531.27,-364.75 531.27,-370.75 525.27,-376.75 519.27,-376.75"/>
<text text-anchor="middle" x="477.89" y="-354.07" font-family="Helvetica,sans-Serif" font-size="14.00">ConvertUnits</text>
</g>
<!-- IsAcscInWavelength&#45;&gt;ConvertUnits_Acsc -->
<g id="edge7" class="edge">
<title>IsAcscInWavelength&#45;&gt;ConvertUnits_Acsc</title>
<path fill="none" stroke="black" d="M561.3,-431.8C546.15,-418.71 523.99,-399.57 506.32,-384.31"/>
<polygon fill="black" stroke="black" points="509.06,-382.05 499.21,-378.16 504.48,-387.35 509.06,-382.05"/>
<text text-anchor="middle" x="547.27" y="-398.7" font-family="Helvetica,sans-Serif" font-size="14.00">No</text>
</g>
<!-- IsAsscInWavelength -->
<g id="node3" class="node">
<title>IsAsscInWavelength</title>
<polygon fill="limegreen" stroke="black" points="748.89,-287.5 611,-269.5 748.89,-251.5 886.79,-269.5 748.89,-287.5"/>
<text text-anchor="middle" x="748.89" y="-264.82" font-family="Helvetica,sans-Serif" font-size="14.00">Is in Wavelength?</text>
</g>
<!-- ConvertUnits_Assc -->
<g id="node14" class="node">
<title>ConvertUnits_Assc</title>
<path fill="lightskyblue" stroke="black" d="M685.27,-198.25C685.27,-198.25 602.52,-198.25 602.52,-198.25 596.52,-198.25 590.52,-192.25 590.52,-186.25 590.52,-186.25 590.52,-174.25 590.52,-174.25 590.52,-168.25 596.52,-162.25 602.52,-162.25 602.52,-162.25 685.27,-162.25 685.27,-162.25 691.27,-162.25 697.27,-168.25 697.27,-174.25 697.27,-174.25 697.27,-186.25 697.27,-186.25 697.27,-192.25 691.27,-198.25 685.27,-198.25"/>
<text text-anchor="middle" x="643.89" y="-175.57" font-family="Helvetica,sans-Serif" font-size="14.00">ConvertUnits</text>
</g>
<!-- IsAsscInWavelength&#45;&gt;ConvertUnits_Assc -->
<g id="edge8" class="edge">
<title>IsAsscInWavelength&#45;&gt;ConvertUnits_Assc</title>
<path fill="none" stroke="black" d="M731.08,-253.7C715.29,-240.58 691.93,-221.17 673.36,-205.73"/>
<polygon fill="black" stroke="black" points="675.78,-203.19 665.85,-199.49 671.3,-208.58 675.78,-203.19"/>
<text text-anchor="middle" x="714.27" y="-220.2" font-family="Helvetica,sans-Serif" font-size="14.00">No</text>
</g>
<!-- Divide_CorrAssc -->
<g id="node16" class="node">
<title>Divide_CorrAssc</title>
<path fill="lightskyblue" stroke="black" d="M646.64,-109C646.64,-109 611.14,-109 611.14,-109 605.14,-109 599.14,-103 599.14,-97 599.14,-97 599.14,-85 599.14,-85 599.14,-79 605.14,-73 611.14,-73 611.14,-73 646.64,-73 646.64,-73 652.64,-73 658.64,-79 658.64,-85 658.64,-85 658.64,-97 658.64,-97 658.64,-103 652.64,-109 646.64,-109"/>
<text text-anchor="middle" x="628.89" y="-86.33" font-family="Helvetica,sans-Serif" font-size="14.00">Divide</text>
</g>
<!-- IsAsscInWavelength&#45;&gt;Divide_CorrAssc -->
<g id="edge18" class="edge">
<title>IsAsscInWavelength&#45;&gt;Divide_CorrAssc</title>
<path fill="none" stroke="black" d="M752.6,-251.52C757.86,-222.56 763.9,-163.23 734.89,-127 719.42,-107.68 693,-98.92 670.41,-95"/>
<polygon fill="black" stroke="black" points="670.91,-91.54 660.52,-93.58 669.91,-98.47 670.91,-91.54"/>
<text text-anchor="middle" x="824.14" y="-175.57" font-family="Helvetica,sans-Serif" font-size="14.00">Yes, RHSWorkspace</text>
</g>
<!-- SampleWorkspace -->
<g id="node4" class="node">
<title>SampleWorkspace</title>
<ellipse fill="khaki" stroke="black" cx="312.89" cy="-269.5" rx="100.66" ry="18"/>
<text text-anchor="middle" x="312.89" y="-264.82" font-family="Helvetica,sans-Serif" font-size="14.00">SampleWorkspace</text>
</g>
<!-- Minus -->
<g id="node10" class="node">
<title>Minus</title>
<path fill="lightskyblue" stroke="black" d="M483.52,-198.25C483.52,-198.25 450.27,-198.25 450.27,-198.25 444.27,-198.25 438.27,-192.25 438.27,-186.25 438.27,-186.25 438.27,-174.25 438.27,-174.25 438.27,-168.25 444.27,-162.25 450.27,-162.25 450.27,-162.25 483.52,-162.25 483.52,-162.25 489.52,-162.25 495.52,-168.25 495.52,-174.25 495.52,-174.25 495.52,-186.25 495.52,-186.25 495.52,-192.25 489.52,-198.25 483.52,-198.25"/>
<text text-anchor="middle" x="466.89" y="-175.57" font-family="Helvetica,sans-Serif" font-size="14.00">Minus</text>
</g>
<!-- SampleWorkspace&#45;&gt;Minus -->
<g id="edge15" class="edge">
<title>SampleWorkspace&#45;&gt;Minus</title>
<path fill="none" stroke="black" d="M324.74,-251.29C333.37,-239.91 345.99,-225.45 360.14,-216.25 380.29,-203.16 405.77,-194.56 426.78,-189.17"/>
<polygon fill="black" stroke="black" points="427.55,-192.58 436.46,-186.84 425.92,-185.77 427.55,-192.58"/>
<text text-anchor="middle" x="412.27" y="-220.2" font-family="Helvetica,sans-Serif" font-size="14.00">LHSWorkspace</text>
</g>
<!-- CorrectionsWorkspace -->
<g id="node5" class="node">
<title>CorrectionsWorkspace</title>
<ellipse fill="khaki" stroke="black" cx="684.89" cy="-626.5" rx="119.08" ry="18"/>
<text text-anchor="middle" x="684.89" y="-621.83" font-family="Helvetica,sans-Serif" font-size="14.00">CorrectionsWorkspace</text>
</g>
<!-- CorrectionsWorkspace&#45;&gt;IsAccInWavelength -->
<g id="edge3" class="edge">
<title>CorrectionsWorkspace&#45;&gt;IsAccInWavelength</title>
<path fill="none" stroke="black" d="M605.06,-612.77C498.45,-595.76 311.22,-565.9 209.15,-549.62"/>
<polygon fill="black" stroke="black" points="209.96,-546.2 199.53,-548.08 208.86,-553.11 209.96,-546.2"/>
<text text-anchor="middle" x="475.14" y="-577.2" font-family="Helvetica,sans-Serif" font-size="14.00">Ac,c</text>
</g>
<!-- CorrectionsWorkspace&#45;&gt;IsAcscInWavelength -->
<g id="edge4" class="edge">
<title>CorrectionsWorkspace&#45;&gt;IsAcscInWavelength</title>
<path fill="none" stroke="black" d="M683.62,-608.11C681.32,-586.01 675,-547.38 657.89,-519.25 646.02,-499.72 626.99,-482.56 610.59,-470.09"/>
<polygon fill="black" stroke="black" points="612.67,-467.28 602.54,-464.21 608.54,-472.93 612.67,-467.28"/>
<text text-anchor="middle" x="690.89" y="-532.58" font-family="Helvetica,sans-Serif" font-size="14.00">Ac,sc</text>
</g>
<!-- CorrectionsWorkspace&#45;&gt;IsAsscInWavelength -->
<g id="edge5" class="edge">
<title>CorrectionsWorkspace&#45;&gt;IsAsscInWavelength</title>
<path fill="none" stroke="black" d="M709.44,-608.45C728.92,-592.73 752.89,-567.44 752.89,-538.25 752.89,-538.25 752.89,-538.25 752.89,-357.75 752.89,-338.11 751.87,-316 750.86,-298.95"/>
<polygon fill="black" stroke="black" points="754.36,-298.81 750.23,-289.05 747.37,-299.25 754.36,-298.81"/>
<text text-anchor="middle" x="771.27" y="-443.32" font-family="Helvetica,sans-Serif" font-size="14.00">As,sc</text>
</g>
<!-- CanWorkspace -->
<g id="node6" class="node">
<title>CanWorkspace</title>
<ellipse fill="khaki" stroke="black" cx="376.89" cy="-537.25" rx="83.3" ry="18"/>
<text text-anchor="middle" x="376.89" y="-532.58" font-family="Helvetica,sans-Serif" font-size="14.00">CanWorkspace</text>
</g>
<!-- Scale -->
<g id="node9" class="node">
<title>Scale</title>
<path fill="lightskyblue" stroke="black" d="M410.89,-466C410.89,-466 380.89,-466 380.89,-466 374.89,-466 368.89,-460 368.89,-454 368.89,-454 368.89,-442 368.89,-442 368.89,-436 374.89,-430 380.89,-430 380.89,-430 410.89,-430 410.89,-430 416.89,-430 422.89,-436 422.89,-442 422.89,-442 422.89,-454 422.89,-454 422.89,-460 416.89,-466 410.89,-466"/>
<text text-anchor="middle" x="395.89" y="-443.32" font-family="Helvetica,sans-Serif" font-size="14.00">Scale</text>
</g>
<!-- CanWorkspace&#45;&gt;Scale -->
<g id="edge1" class="edge">
<title>CanWorkspace&#45;&gt;Scale</title>
<path fill="none" stroke="black" d="M380.65,-519.01C383.25,-507.06 386.77,-490.88 389.78,-477.08"/>
<polygon fill="black" stroke="black" points="393.12,-478.2 391.83,-467.68 386.28,-476.71 393.12,-478.2"/>
</g>
<!-- CanScaleFactor -->
<g id="node7" class="node">
<title>CanScaleFactor</title>
<ellipse fill="khaki" stroke="black" cx="563.89" cy="-537.25" rx="85.41" ry="18"/>
<text text-anchor="middle" x="563.89" y="-532.58" font-family="Helvetica,sans-Serif" font-size="14.00">CanScaleFactor</text>
</g>
<!-- CanScaleFactor&#45;&gt;Scale -->
<g id="edge2" class="edge">
<title>CanScaleFactor&#45;&gt;Scale</title>
<path fill="none" stroke="black" d="M532.69,-520.04C504.59,-505.45 463.24,-483.98 433.37,-468.46"/>
<polygon fill="black" stroke="black" points="435.15,-465.44 424.66,-463.94 431.92,-471.66 435.15,-465.44"/>
</g>
<!-- OutputWorkspace -->
<g id="node8" class="node">
<title>OutputWorkspace</title>
<ellipse fill="khaki" stroke="black" cx="628.89" cy="-18" rx="98.56" ry="18"/>
<text text-anchor="middle" x="628.89" y="-13.32" font-family="Helvetica,sans-Serif" font-size="14.00">OutputWorkspace</text>
</g>
<!-- Scale&#45;&gt;Divide_CanAcc -->
<g id="edge9" class="edge">
<title>Scale&#45;&gt;Divide_CanAcc</title>
<path fill="none" stroke="black" d="M368.72,-431.4C345.1,-417.84 310.56,-398.01 283.79,-382.65"/>
<polygon fill="black" stroke="black" points="285.69,-379.7 275.27,-377.76 282.2,-385.77 285.69,-379.7"/>
<text text-anchor="middle" x="385.27" y="-398.7" font-family="Helvetica,sans-Serif" font-size="14.00">LHSWorkspace</text>
</g>
<!-- Minus&#45;&gt;Divide_CorrAssc -->
<g id="edge17" class="edge">
<title>Minus&#45;&gt;Divide_CorrAssc</title>
<path fill="none" stroke="black" d="M480.66,-162.07C490.57,-150.71 504.85,-136.25 520.14,-127 540.86,-114.48 566.55,-105.94 587.75,-100.43"/>
<polygon fill="black" stroke="black" points="588.35,-103.89 597.23,-98.11 586.68,-97.09 588.35,-103.89"/>
<text text-anchor="middle" x="572.27" y="-130.95" font-family="Helvetica,sans-Serif" font-size="14.00">LHSWorkspace</text>
</g>
<!-- Multiply&#45;&gt;Minus -->
<g id="edge16" class="edge">
<title>Multiply&#45;&gt;Minus</title>
<path fill="none" stroke="black" d="M466.89,-251.26C466.89,-239.43 466.89,-223.45 466.89,-209.75"/>
<polygon fill="black" stroke="black" points="470.39,-209.97 466.89,-199.97 463.39,-209.97 470.39,-209.97"/>
<text text-anchor="middle" x="519.39" y="-220.2" font-family="Helvetica,sans-Serif" font-size="14.00">RHSWorkspace</text>
</g>
<!-- ConvertUnits_Acc&#45;&gt;Divide_CanAcc -->
<g id="edge11" class="edge">
<title>ConvertUnits_Acc&#45;&gt;Divide_CanAcc</title>
<path fill="none" stroke="black" d="M97.84,-429.95C91.65,-418.93 86.92,-404.81 94.89,-394.75 108.12,-378.06 163.2,-368.55 202.54,-363.77"/>
<polygon fill="black" stroke="black" points="202.88,-367.25 212.42,-362.63 202.09,-360.3 202.88,-367.25"/>
<text text-anchor="middle" x="147.39" y="-398.7" font-family="Helvetica,sans-Serif" font-size="14.00">RHSWorkspace</text>
</g>
<!-- ConvertUnits_Acsc&#45;&gt;Multiply -->
<g id="edge14" class="edge">
<title>ConvertUnits_Acsc&#45;&gt;Multiply</title>
<path fill="none" stroke="black" d="M469.42,-340.34C467.16,-334.85 465.03,-328.66 463.89,-322.75 462.41,-315.05 462.27,-306.6 462.73,-298.78"/>
<polygon fill="black" stroke="black" points="466.19,-299.38 463.66,-289.09 459.22,-298.71 466.19,-299.38"/>
<text text-anchor="middle" x="516.39" y="-309.45" font-family="Helvetica,sans-Serif" font-size="14.00">RHSWorkspace</text>
</g>
<!-- ConvertUnits_Assc&#45;&gt;Divide_CorrAssc -->
<g id="edge19" class="edge">
<title>ConvertUnits_Assc&#45;&gt;Divide_CorrAssc</title>
<path fill="none" stroke="black" d="M635.49,-161.83C633.23,-156.33 631.09,-150.15 629.89,-144.25 628.36,-136.66 627.73,-128.33 627.59,-120.59"/>
<polygon fill="black" stroke="black" points="631.09,-120.65 627.67,-110.63 624.09,-120.6 631.09,-120.65"/>
<text text-anchor="middle" x="682.39" y="-130.95" font-family="Helvetica,sans-Serif" font-size="14.00">RHSWorkspace</text>
</g>
<!-- Divide_CanAcc&#45;&gt;Multiply -->
<g id="edge12" class="edge">
<title>Divide_CanAcc&#45;&gt;Multiply</title>
<path fill="none" stroke="black" d="M273.79,-342.11C296.07,-330.89 327.47,-315.95 356.14,-305.5 382.08,-296.05 391.72,-296.76 420.81,-287.94"/>
<polygon fill="black" stroke="black" points="421.55,-291.38 430.03,-285.01 419.43,-284.7 421.55,-291.38"/>
<text text-anchor="middle" x="408.27" y="-309.45" font-family="Helvetica,sans-Serif" font-size="14.00">LHSWorkspace</text>
</g>
<!-- Divide_CorrAssc&#45;&gt;OutputWorkspace -->
<g id="edge20" class="edge">
<title>Divide_CorrAssc&#45;&gt;OutputWorkspace</title>
<path fill="none" stroke="black" d="M628.89,-72.81C628.89,-65.23 628.89,-56.1 628.89,-47.54"/>
<polygon fill="black" stroke="black" points="632.39,-47.54 628.89,-37.54 625.39,-47.54 632.39,-47.54"/>
</g>
</g>
</svg>
