<?xml version="1.0" encoding="UTF-8" standalone="no"?>
<!DOCTYPE svg PUBLIC "-//W3C//DTD SVG 1.1//EN"
 "http://www.w3.org/Graphics/SVG/1.1/DTD/svg11.dtd">
<!-- Generated by graphviz version 7.0.5 (20221231.0122)
 -->
<!-- Title: ApplyPaalmanPingsCorrection_TwoFactorCorrection Pages: 1 -->
<svg width="1295pt" height="648pt"
 viewBox="0.00 0.00 1294.50 648.00" xmlns="http://www.w3.org/2000/svg" xmlns:xlink="http://www.w3.org/1999/xlink">
<g id="graph0" class="graph" transform="scale(1 1) rotate(0) translate(4 644)">
<title>ApplyPaalmanPingsCorrection_TwoFactorCorrection</title>
<polygon fill="white" stroke="none" points="-4,4 -4,-644 1290.5,-644 1290.5,4 -4,4"/>
<text text-anchor="middle" x="643.25" y="-624.8" font-family="Helvetica,sans-Serif" font-size="14.00">ApplyPaalmanPingsCorrection Two Factor Corrections Flowchart</text>
<!-- IsAccInWavelength -->
<g id="node1" class="node">
<title>IsAccInWavelength</title>
<polygon fill="limegreen" stroke="black" points="566.5,-443 437.64,-425 566.5,-407 695.36,-425 566.5,-443"/>
<text text-anchor="middle" x="566.5" y="-421.3" font-family="Helvetica,sans-Serif" font-size="14.00">Is in Wavelength?</text>
</g>
<!-- ConvertUnits_Acc -->
<g id="node14" class="node">
<title>ConvertUnits_Acc</title>
<path fill="lightskyblue" stroke="black" d="M507,-356C507,-356 424,-356 424,-356 418,-356 412,-350 412,-344 412,-344 412,-332 412,-332 412,-326 418,-320 424,-320 424,-320 507,-320 507,-320 513,-320 519,-326 519,-332 519,-332 519,-344 519,-344 519,-350 513,-356 507,-356"/>
<text text-anchor="middle" x="465.5" y="-334.3" font-family="Helvetica,sans-Serif" font-size="14.00">ConvertUnits</text>
</g>
<!-- IsAccInWavelength&#45;&gt;ConvertUnits_Acc -->
<g id="edge3" class="edge">
<title>IsAccInWavelength&#45;&gt;ConvertUnits_Acc</title>
<path fill="none" stroke="black" d="M548.91,-409.19C533.99,-396.64 512.28,-378.37 494.75,-363.62"/>
<polygon fill="black" stroke="black" points="497.09,-361.01 487.18,-357.25 492.58,-366.36 497.09,-361.01"/>
<text text-anchor="middle" x="531" y="-377.8" font-family="Helvetica,sans-Serif" font-size="14.00">No</text>
</g>
<!-- Divide_Can -->
<g id="node20" class="node">
<title>Divide_Can</title>
<path fill="lightskyblue" stroke="black" d="M529.5,-269C529.5,-269 493.5,-269 493.5,-269 487.5,-269 481.5,-263 481.5,-257 481.5,-257 481.5,-245 481.5,-245 481.5,-239 487.5,-233 493.5,-233 493.5,-233 529.5,-233 529.5,-233 535.5,-233 541.5,-239 541.5,-245 541.5,-245 541.5,-257 541.5,-257 541.5,-263 535.5,-269 529.5,-269"/>
<text text-anchor="middle" x="511.5" y="-247.3" font-family="Helvetica,sans-Serif" font-size="14.00">Divide</text>
</g>
<!-- IsAccInWavelength&#45;&gt;Divide_Can -->
<g id="edge17" class="edge">
<title>IsAccInWavelength&#45;&gt;Divide_Can</title>
<path fill="none" stroke="black" d="M569.62,-407.2C573.78,-380.09 578.37,-325.85 557.5,-287 555.53,-283.34 553,-279.94 550.13,-276.83"/>
<polygon fill="black" stroke="black" points="552.75,-274.48 543.03,-270.26 547.99,-279.62 552.75,-274.48"/>
<text text-anchor="middle" x="641" y="-334.3" font-family="Helvetica,sans-Serif" font-size="14.00">Yes, RHSWorkspace</text>
</g>
<!-- IsAssInWavelength -->
<g id="node2" class="node">
<title>IsAssInWavelength</title>
<polygon fill="limegreen" stroke="black" points="841.5,-443 712.64,-425 841.5,-407 970.36,-425 841.5,-443"/>
<text text-anchor="middle" x="841.5" y="-421.3" font-family="Helvetica,sans-Serif" font-size="14.00">Is in Wavelength?</text>
</g>
<!-- ConvertUnits_Ass -->
<g id="node15" class="node">
<title>ConvertUnits_Ass</title>
<path fill="lightskyblue" stroke="black" d="M822,-356C822,-356 739,-356 739,-356 733,-356 727,-350 727,-344 727,-344 727,-332 727,-332 727,-326 733,-320 739,-320 739,-320 822,-320 822,-320 828,-320 834,-326 834,-332 834,-332 834,-344 834,-344 834,-350 828,-356 822,-356"/>
<text text-anchor="middle" x="780.5" y="-334.3" font-family="Helvetica,sans-Serif" font-size="14.00">ConvertUnits</text>
</g>
<!-- IsAssInWavelength&#45;&gt;ConvertUnits_Ass -->
<g id="edge4" class="edge">
<title>IsAssInWavelength&#45;&gt;ConvertUnits_Ass</title>
<path fill="none" stroke="black" d="M830.31,-408.41C821.7,-396.42 809.61,-379.56 799.5,-365.47"/>
<polygon fill="black" stroke="black" points="802.43,-363.56 793.76,-357.48 796.75,-367.64 802.43,-363.56"/>
<text text-anchor="middle" x="824" y="-377.8" font-family="Helvetica,sans-Serif" font-size="14.00">No</text>
</g>
<!-- Divide_Sample -->
<g id="node19" class="node">
<title>Divide_Sample</title>
<path fill="lightskyblue" stroke="black" d="M888.5,-269C888.5,-269 852.5,-269 852.5,-269 846.5,-269 840.5,-263 840.5,-257 840.5,-257 840.5,-245 840.5,-245 840.5,-239 846.5,-233 852.5,-233 852.5,-233 888.5,-233 888.5,-233 894.5,-233 900.5,-239 900.5,-245 900.5,-245 900.5,-257 900.5,-257 900.5,-263 894.5,-269 888.5,-269"/>
<text text-anchor="middle" x="870.5" y="-247.3" font-family="Helvetica,sans-Serif" font-size="14.00">Divide</text>
</g>
<!-- IsAssInWavelength&#45;&gt;Divide_Sample -->
<g id="edge14" class="edge">
<title>IsAssInWavelength&#45;&gt;Divide_Sample</title>
<path fill="none" stroke="black" d="M844.33,-407.19C849.29,-377.8 859.58,-316.76 865.68,-280.61"/>
<polygon fill="black" stroke="black" points="869.11,-281.32 867.32,-270.88 862.2,-280.16 869.11,-281.32"/>
<text text-anchor="middle" x="927" y="-334.3" font-family="Helvetica,sans-Serif" font-size="14.00">Yes, RHSWorkspace</text>
</g>
<!-- IsSampleInWavelength -->
<g id="node3" class="node">
<title>IsSampleInWavelength</title>
<polygon fill="limegreen" stroke="black" points="1143.5,-443 1014.64,-425 1143.5,-407 1272.36,-425 1143.5,-443"/>
<text text-anchor="middle" x="1143.5" y="-421.3" font-family="Helvetica,sans-Serif" font-size="14.00">Is in Wavelength?</text>
</g>
<!-- ConvertUnits_Sample -->
<g id="node16" class="node">
<title>ConvertUnits_Sample</title>
<path fill="lightskyblue" stroke="black" d="M1121,-356C1121,-356 1038,-356 1038,-356 1032,-356 1026,-350 1026,-344 1026,-344 1026,-332 1026,-332 1026,-326 1032,-320 1038,-320 1038,-320 1121,-320 1121,-320 1127,-320 1133,-326 1133,-332 1133,-332 1133,-344 1133,-344 1133,-350 1127,-356 1121,-356"/>
<text text-anchor="middle" x="1079.5" y="-334.3" font-family="Helvetica,sans-Serif" font-size="14.00">ConvertUnits</text>
</g>
<!-- IsSampleInWavelength&#45;&gt;ConvertUnits_Sample -->
<g id="edge5" class="edge">
<title>IsSampleInWavelength&#45;&gt;ConvertUnits_Sample</title>
<path fill="none" stroke="black" d="M1131.76,-408.41C1122.64,-396.3 1109.8,-379.24 1099.12,-365.06"/>
<polygon fill="black" stroke="black" points="1102.21,-363.34 1093.4,-357.45 1096.61,-367.55 1102.21,-363.34"/>
<text text-anchor="middle" x="1124" y="-377.8" font-family="Helvetica,sans-Serif" font-size="14.00">No</text>
</g>
<!-- IsSampleInWavelength&#45;&gt;Divide_Sample -->
<g id="edge12" class="edge">
<title>IsSampleInWavelength&#45;&gt;Divide_Sample</title>
<path fill="none" stroke="black" d="M1147.8,-407.36C1152.42,-385.81 1157.26,-347.74 1142.5,-320 1130.34,-297.15 1118.55,-296.57 1094.5,-287 1034.11,-262.97 958.43,-255.38 912.31,-253.02"/>
<polygon fill="black" stroke="black" points="912.62,-249.53 902.48,-252.58 912.31,-256.52 912.62,-249.53"/>
<text text-anchor="middle" x="1219" y="-334.3" font-family="Helvetica,sans-Serif" font-size="14.00">Yes, LHSWorkspace</text>
</g>
<!-- IsCanInWavelength -->
<g id="node4" class="node">
<title>IsCanInWavelength</title>
<polygon fill="limegreen" stroke="black" points="183.5,-617 54.64,-599 183.5,-581 312.36,-599 183.5,-617"/>
<text text-anchor="middle" x="183.5" y="-595.3" font-family="Helvetica,sans-Serif" font-size="14.00">Is in Wavelength?</text>
</g>
<!-- ScaleX -->
<g id="node11" class="node">
<title>ScaleX</title>
<path fill="lightskyblue" stroke="black" d="M221,-443C221,-443 182,-443 182,-443 176,-443 170,-437 170,-431 170,-431 170,-419 170,-419 170,-413 176,-407 182,-407 182,-407 221,-407 221,-407 227,-407 233,-413 233,-419 233,-419 233,-431 233,-431 233,-437 227,-443 221,-443"/>
<text text-anchor="middle" x="201.5" y="-421.3" font-family="Helvetica,sans-Serif" font-size="14.00">ScaleX</text>
</g>
<!-- IsCanInWavelength&#45;&gt;ScaleX -->
<g id="edge8" class="edge">
<title>IsCanInWavelength&#45;&gt;ScaleX</title>
<path fill="none" stroke="black" d="M218.26,-585.38C242.18,-574.66 272.13,-556.7 286.5,-530 294.08,-515.91 293.43,-508.42 286.5,-494 277.18,-474.6 259.32,-459 242.37,-447.66"/>
<polygon fill="black" stroke="black" points="244.71,-445 234.39,-442.61 240.97,-450.92 244.71,-445"/>
<text text-anchor="middle" x="303" y="-508.3" font-family="Helvetica,sans-Serif" font-size="14.00">Yes</text>
</g>
<!-- ConvertUnits_Can -->
<g id="node17" class="node">
<title>ConvertUnits_Can</title>
<path fill="lightskyblue" stroke="black" d="M95,-530C95,-530 12,-530 12,-530 6,-530 0,-524 0,-518 0,-518 0,-506 0,-506 0,-500 6,-494 12,-494 12,-494 95,-494 95,-494 101,-494 107,-500 107,-506 107,-506 107,-518 107,-518 107,-524 101,-530 95,-530"/>
<text text-anchor="middle" x="53.5" y="-508.3" font-family="Helvetica,sans-Serif" font-size="14.00">ConvertUnits</text>
</g>
<!-- IsCanInWavelength&#45;&gt;ConvertUnits_Can -->
<g id="edge6" class="edge">
<title>IsCanInWavelength&#45;&gt;ConvertUnits_Can</title>
<path fill="none" stroke="black" d="M161.45,-583.58C141.8,-570.73 112.67,-551.69 89.62,-536.62"/>
<polygon fill="black" stroke="black" points="91.71,-533.8 81.43,-531.26 87.88,-539.66 91.71,-533.8"/>
<text text-anchor="middle" x="136" y="-551.8" font-family="Helvetica,sans-Serif" font-size="14.00">No</text>
</g>
<!-- SampleWorkspace -->
<g id="node5" class="node">
<title>SampleWorkspace</title>
<ellipse fill="khaki" stroke="black" cx="423.5" cy="-599" rx="93.68" ry="18"/>
<text text-anchor="middle" x="423.5" y="-595.3" font-family="Helvetica,sans-Serif" font-size="14.00">SampleWorkspace</text>
</g>
<!-- CorrectionsWorkspace -->
<g id="node6" class="node">
<title>CorrectionsWorkspace</title>
<ellipse fill="khaki" stroke="black" cx="704.5" cy="-512" rx="110.48" ry="18"/>
<text text-anchor="middle" x="704.5" y="-508.3" font-family="Helvetica,sans-Serif" font-size="14.00">CorrectionsWorkspace</text>
</g>
<!-- CorrectionsWorkspace&#45;&gt;IsAccInWavelength -->
<g id="edge1" class="edge">
<title>CorrectionsWorkspace&#45;&gt;IsAccInWavelength</title>
<path fill="none" stroke="black" d="M677.24,-494.21C654.83,-480.41 623.02,-460.81 599.24,-446.16"/>
<polygon fill="black" stroke="black" points="601.22,-443.28 590.87,-441.01 597.55,-449.24 601.22,-443.28"/>
<text text-anchor="middle" x="658" y="-464.8" font-family="Helvetica,sans-Serif" font-size="14.00">Ac,c</text>
</g>
<!-- CorrectionsWorkspace&#45;&gt;IsAssInWavelength -->
<g id="edge2" class="edge">
<title>CorrectionsWorkspace&#45;&gt;IsAssInWavelength</title>
<path fill="none" stroke="black" d="M731.57,-494.21C753.81,-480.41 785.39,-460.81 809,-446.16"/>
<polygon fill="black" stroke="black" points="810.64,-449.26 817.3,-441.02 806.95,-443.32 810.64,-449.26"/>
<text text-anchor="middle" x="795.5" y="-464.8" font-family="Helvetica,sans-Serif" font-size="14.00">As,s</text>
</g>
<!-- CanWorkspace -->
<g id="node7" class="node">
<title>CanWorkspace</title>
<ellipse fill="khaki" stroke="black" cx="612.5" cy="-599" rx="77.19" ry="18"/>
<text text-anchor="middle" x="612.5" y="-595.3" font-family="Helvetica,sans-Serif" font-size="14.00">CanWorkspace</text>
</g>
<!-- CanScaleFactor -->
<g id="node8" class="node">
<title>CanScaleFactor</title>
<ellipse fill="khaki" stroke="black" cx="330.5" cy="-425" rx="79.09" ry="18"/>
<text text-anchor="middle" x="330.5" y="-421.3" font-family="Helvetica,sans-Serif" font-size="14.00">CanScaleFactor</text>
</g>
<!-- Scale -->
<g id="node12" class="node">
<title>Scale</title>
<path fill="lightskyblue" stroke="black" d="M339.5,-356C339.5,-356 309.5,-356 309.5,-356 303.5,-356 297.5,-350 297.5,-344 297.5,-344 297.5,-332 297.5,-332 297.5,-326 303.5,-320 309.5,-320 309.5,-320 339.5,-320 339.5,-320 345.5,-320 351.5,-326 351.5,-332 351.5,-332 351.5,-344 351.5,-344 351.5,-350 345.5,-356 339.5,-356"/>
<text text-anchor="middle" x="324.5" y="-334.3" font-family="Helvetica,sans-Serif" font-size="14.00">Scale</text>
</g>
<!-- CanScaleFactor&#45;&gt;Scale -->
<g id="edge10" class="edge">
<title>CanScaleFactor&#45;&gt;Scale</title>
<path fill="none" stroke="black" d="M329.29,-406.8C328.49,-395.58 327.44,-380.67 326.52,-367.69"/>
<polygon fill="black" stroke="black" points="330.04,-367.71 325.84,-357.98 323.05,-368.2 330.04,-367.71"/>
</g>
<!-- CanShiftFactor -->
<g id="node9" class="node">
<title>CanShiftFactor</title>
<ellipse fill="khaki" stroke="black" cx="201.5" cy="-512" rx="76.09" ry="18"/>
<text text-anchor="middle" x="201.5" y="-508.3" font-family="Helvetica,sans-Serif" font-size="14.00">CanShiftFactor</text>
</g>
<!-- CanShiftFactor&#45;&gt;ScaleX -->
<g id="edge9" class="edge">
<title>CanShiftFactor&#45;&gt;ScaleX</title>
<path fill="none" stroke="black" d="M201.5,-493.8C201.5,-482.58 201.5,-467.67 201.5,-454.69"/>
<polygon fill="black" stroke="black" points="205,-454.98 201.5,-444.98 198,-454.98 205,-454.98"/>
</g>
<!-- OutputWorkspace -->
<g id="node10" class="node">
<title>OutputWorkspace</title>
<ellipse fill="khaki" stroke="black" cx="633.5" cy="-18" rx="91.78" ry="18"/>
<text text-anchor="middle" x="633.5" y="-14.3" font-family="Helvetica,sans-Serif" font-size="14.00">OutputWorkspace</text>
</g>
<!-- ScaleX&#45;&gt;Scale -->
<g id="edge11" class="edge">
<title>ScaleX&#45;&gt;Scale</title>
<path fill="none" stroke="black" d="M226.69,-406.59C244.93,-393.99 269.81,-376.79 289.91,-362.9"/>
<polygon fill="black" stroke="black" points="291.86,-365.81 298.1,-357.24 287.88,-360.05 291.86,-365.81"/>
</g>
<!-- Scale&#45;&gt;Divide_Can -->
<g id="edge16" class="edge">
<title>Scale&#45;&gt;Divide_Can</title>
<path fill="none" stroke="black" d="M326.04,-319.78C327.94,-308.85 332.15,-295.25 341.5,-287 360.22,-270.48 425.92,-260.68 469.95,-255.83"/>
<polygon fill="black" stroke="black" points="470.1,-259.33 479.68,-254.8 469.37,-252.37 470.1,-259.33"/>
<text text-anchor="middle" x="393" y="-290.8" font-family="Helvetica,sans-Serif" font-size="14.00">LHSWorkspace</text>
</g>
<!-- Minus -->
<g id="node13" class="node">
<title>Minus</title>
<path fill="lightskyblue" stroke="black" d="M650.5,-182C650.5,-182 616.5,-182 616.5,-182 610.5,-182 604.5,-176 604.5,-170 604.5,-170 604.5,-158 604.5,-158 604.5,-152 610.5,-146 616.5,-146 616.5,-146 650.5,-146 650.5,-146 656.5,-146 662.5,-152 662.5,-158 662.5,-158 662.5,-170 662.5,-170 662.5,-176 656.5,-182 650.5,-182"/>
<text text-anchor="middle" x="633.5" y="-160.3" font-family="Helvetica,sans-Serif" font-size="14.00">Minus</text>
</g>
<!-- ConvertUnits_Final -->
<g id="node18" class="node">
<title>ConvertUnits_Final</title>
<path fill="lightskyblue" stroke="black" d="M675,-109C675,-109 592,-109 592,-109 586,-109 580,-103 580,-97 580,-97 580,-85 580,-85 580,-79 586,-73 592,-73 592,-73 675,-73 675,-73 681,-73 687,-79 687,-85 687,-85 687,-97 687,-97 687,-103 681,-109 675,-109"/>
<text text-anchor="middle" x="633.5" y="-87.3" font-family="Helvetica,sans-Serif" font-size="14.00">ConvertUnits</text>
</g>
<!-- Minus&#45;&gt;ConvertUnits_Final -->
<g id="edge21" class="edge">
<title>Minus&#45;&gt;ConvertUnits_Final</title>
<path fill="none" stroke="black" d="M633.5,-145.81C633.5,-138.23 633.5,-129.1 633.5,-120.54"/>
<polygon fill="black" stroke="black" points="637,-120.54 633.5,-110.54 630,-120.54 637,-120.54"/>
</g>
<!-- ConvertUnits_Acc&#45;&gt;Divide_Can -->
<g id="edge18" class="edge">
<title>ConvertUnits_Acc&#45;&gt;Divide_Can</title>
<path fill="none" stroke="black" d="M454.19,-319.5C449.25,-309.51 445.75,-297.01 451.5,-287 456.06,-279.06 463.2,-272.75 470.98,-267.8"/>
<polygon fill="black" stroke="black" points="472.65,-270.88 479.71,-262.98 469.26,-264.75 472.65,-270.88"/>
<text text-anchor="middle" x="504.5" y="-290.8" font-family="Helvetica,sans-Serif" font-size="14.00">RHSWorkspace</text>
</g>
<!-- ConvertUnits_Ass&#45;&gt;Divide_Sample -->
<g id="edge15" class="edge">
<title>ConvertUnits_Ass&#45;&gt;Divide_Sample</title>
<path fill="none" stroke="black" d="M759.67,-319.77C750.23,-309.87 742.73,-297.37 750.5,-287 768.5,-263 802.06,-254.71 829.12,-252.17"/>
<polygon fill="black" stroke="black" points="829.01,-255.68 838.74,-251.5 828.53,-248.7 829.01,-255.68"/>
<text text-anchor="middle" x="803.5" y="-290.8" font-family="Helvetica,sans-Serif" font-size="14.00">RHSWorkspace</text>
</g>
<!-- ConvertUnits_Sample&#45;&gt;Divide_Sample -->
<g id="edge13" class="edge">
<title>ConvertUnits_Sample&#45;&gt;Divide_Sample</title>
<path fill="none" stroke="black" d="M1036.7,-319.59C1000.01,-304.67 947.51,-283.32 911.39,-268.63"/>
<polygon fill="black" stroke="black" points="912.72,-265.39 902.14,-264.87 910.08,-271.88 912.72,-265.39"/>
<text text-anchor="middle" x="1039" y="-290.8" font-family="Helvetica,sans-Serif" font-size="14.00">LHSWorkspace</text>
</g>
<!-- ConvertUnits_Can&#45;&gt;ScaleX -->
<g id="edge7" class="edge">
<title>ConvertUnits_Can&#45;&gt;ScaleX</title>
<path fill="none" stroke="black" d="M83.81,-493.59C106.25,-480.7 137.06,-463.01 161.52,-448.96"/>
<polygon fill="black" stroke="black" points="162.99,-452.15 169.92,-444.14 159.51,-446.08 162.99,-452.15"/>
</g>
<!-- ConvertUnits_Final&#45;&gt;OutputWorkspace -->
<g id="edge22" class="edge">
<title>ConvertUnits_Final&#45;&gt;OutputWorkspace</title>
<path fill="none" stroke="black" d="M633.5,-72.81C633.5,-65.23 633.5,-56.1 633.5,-47.54"/>
<polygon fill="black" stroke="black" points="637,-47.54 633.5,-37.54 630,-47.54 637,-47.54"/>
</g>
<!-- Divide_Sample&#45;&gt;Minus -->
<g id="edge19" class="edge">
<title>Divide_Sample&#45;&gt;Minus</title>
<path fill="none" stroke="black" d="M840,-239.06C797.52,-223.83 720.49,-196.2 673.46,-179.33"/>
<polygon fill="black" stroke="black" points="674.79,-176.09 664.19,-176.01 672.42,-182.68 674.79,-176.09"/>
<text text-anchor="middle" x="817" y="-203.8" font-family="Helvetica,sans-Serif" font-size="14.00">LHSWorkspace</text>
</g>
<!-- Divide_Can&#45;&gt;Minus -->
<g id="edge20" class="edge">
<title>Divide_Can&#45;&gt;Minus</title>
<path fill="none" stroke="black" d="M536.48,-232.59C554.58,-219.99 579.25,-202.79 599.19,-188.9"/>
<polygon fill="black" stroke="black" points="601.1,-191.84 607.31,-183.25 597.1,-186.09 601.1,-191.84"/>
<text text-anchor="middle" x="632.5" y="-203.8" font-family="Helvetica,sans-Serif" font-size="14.00">RHSWorkspace</text>
</g>
</g>
</svg>
