<?xml version="1.0" encoding="UTF-8" standalone="no"?>
<!DOCTYPE svg PUBLIC "-//W3C//DTD SVG 1.1//EN"
 "http://www.w3.org/Graphics/SVG/1.1/DTD/svg11.dtd">
<!-- Generated by graphviz version 7.1.0 (20230122.1345)
 -->
<!-- Title: ApplyPaalmanPingsCorrection_FullCorrection Pages: 1 -->
<svg width="863pt" height="662pt"
 viewBox="0.00 0.00 862.68 662.00" xmlns="http://www.w3.org/2000/svg" xmlns:xlink="http://www.w3.org/1999/xlink">
<g id="graph0" class="graph" transform="scale(1 1) rotate(0) translate(4 658)">
<title>ApplyPaalmanPingsCorrection_FullCorrection</title>
<polygon fill="white" stroke="none" points="-4,4 -4,-658 858.68,-658 858.68,4 -4,4"/>
<text text-anchor="middle" x="427.34" y="-638.8" font-family="Helvetica,sans-Serif" font-size="14.00">ApplyPaalmanPingsCorrection Full Corrections Flowchart</text>
<!-- IsAccInWavelength -->
<g id="node1" class="node">
<title>IsAccInWavelength</title>
<polygon fill="limegreen" stroke="black" points="128.68,-544 -0.18,-526 128.68,-508 257.55,-526 128.68,-544"/>
<text text-anchor="middle" x="128.68" y="-522.3" font-family="Helvetica,sans-Serif" font-size="14.00">Is in Wavelength?</text>
</g>
<!-- ConvertUnits_Acc -->
<g id="node12" class="node">
<title>ConvertUnits_Acc</title>
<path fill="lightskyblue" stroke="black" d="M131.18,-457C131.18,-457 48.18,-457 48.18,-457 42.18,-457 36.18,-451 36.18,-445 36.18,-445 36.18,-433 36.18,-433 36.18,-427 42.18,-421 48.18,-421 48.18,-421 131.18,-421 131.18,-421 137.18,-421 143.18,-427 143.18,-433 143.18,-433 143.18,-445 143.18,-445 143.18,-451 137.18,-457 131.18,-457"/>
<text text-anchor="middle" x="89.68" y="-435.3" font-family="Helvetica,sans-Serif" font-size="14.00">ConvertUnits</text>
</g>
<!-- IsAccInWavelength&#45;&gt;ConvertUnits_Acc -->
<g id="edge6" class="edge">
<title>IsAccInWavelength&#45;&gt;ConvertUnits_Acc</title>
<path fill="none" stroke="black" d="M121.16,-508.61C115.82,-496.96 108.51,-481.04 102.29,-467.47"/>
<polygon fill="black" stroke="black" points="105.56,-466.22 98.21,-458.59 99.2,-469.14 105.56,-466.22"/>
<text text-anchor="middle" x="121.18" y="-478.8" font-family="Helvetica,sans-Serif" font-size="14.00">No</text>
</g>
<!-- Divide_CanAcc -->
<g id="node15" class="node">
<title>Divide_CanAcc</title>
<path fill="lightskyblue" stroke="black" d="M239.68,-370C239.68,-370 203.68,-370 203.68,-370 197.68,-370 191.68,-364 191.68,-358 191.68,-358 191.68,-346 191.68,-346 191.68,-340 197.68,-334 203.68,-334 203.68,-334 239.68,-334 239.68,-334 245.68,-334 251.68,-340 251.68,-346 251.68,-346 251.68,-358 251.68,-358 251.68,-364 245.68,-370 239.68,-370"/>
<text text-anchor="middle" x="221.68" y="-348.3" font-family="Helvetica,sans-Serif" font-size="14.00">Divide</text>
</g>
<!-- IsAccInWavelength&#45;&gt;Divide_CanAcc -->
<g id="edge10" class="edge">
<title>IsAccInWavelength&#45;&gt;Divide_CanAcc</title>
<path fill="none" stroke="black" d="M137.43,-508.82C153.4,-479.29 187.42,-416.37 206.99,-380.16"/>
<polygon fill="black" stroke="black" points="209.94,-382.07 211.62,-371.61 203.78,-378.75 209.94,-382.07"/>
<text text-anchor="middle" x="253.18" y="-435.3" font-family="Helvetica,sans-Serif" font-size="14.00">Yes, RHSWorkspace</text>
</g>
<!-- IsAcscInWavelength -->
<g id="node2" class="node">
<title>IsAcscInWavelength</title>
<polygon fill="limegreen" stroke="black" points="550.68,-457 421.82,-439 550.68,-421 679.55,-439 550.68,-457"/>
<text text-anchor="middle" x="550.68" y="-435.3" font-family="Helvetica,sans-Serif" font-size="14.00">Is in Wavelength?</text>
</g>
<!-- Multiply -->
<g id="node11" class="node">
<title>Multiply</title>
<path fill="lightskyblue" stroke="black" d="M458.18,-283C458.18,-283 411.18,-283 411.18,-283 405.18,-283 399.18,-277 399.18,-271 399.18,-271 399.18,-259 399.18,-259 399.18,-253 405.18,-247 411.18,-247 411.18,-247 458.18,-247 458.18,-247 464.18,-247 470.18,-253 470.18,-259 470.18,-259 470.18,-271 470.18,-271 470.18,-277 464.18,-283 458.18,-283"/>
<text text-anchor="middle" x="434.68" y="-261.3" font-family="Helvetica,sans-Serif" font-size="14.00">Multiply</text>
</g>
<!-- IsAcscInWavelength&#45;&gt;Multiply -->
<g id="edge13" class="edge">
<title>IsAcscInWavelength&#45;&gt;Multiply</title>
<path fill="none" stroke="black" d="M554.24,-421.14C559.14,-392.98 564.48,-336.01 536.68,-301 523.39,-284.25 501.65,-275.48 481.65,-270.9"/>
<polygon fill="black" stroke="black" points="482.44,-267.49 471.96,-269.01 481.1,-274.36 482.44,-267.49"/>
<text text-anchor="middle" x="626.18" y="-348.3" font-family="Helvetica,sans-Serif" font-size="14.00">Yes, RHSWorkspace</text>
</g>
<!-- ConvertUnits_Acsc -->
<g id="node13" class="node">
<title>ConvertUnits_Acsc</title>
<path fill="lightskyblue" stroke="black" d="M486.18,-370C486.18,-370 403.18,-370 403.18,-370 397.18,-370 391.18,-364 391.18,-358 391.18,-358 391.18,-346 391.18,-346 391.18,-340 397.18,-334 403.18,-334 403.18,-334 486.18,-334 486.18,-334 492.18,-334 498.18,-340 498.18,-346 498.18,-346 498.18,-358 498.18,-358 498.18,-364 492.18,-370 486.18,-370"/>
<text text-anchor="middle" x="444.68" y="-348.3" font-family="Helvetica,sans-Serif" font-size="14.00">ConvertUnits</text>
</g>
<!-- IsAcscInWavelength&#45;&gt;ConvertUnits_Acsc -->
<g id="edge7" class="edge">
<title>IsAcscInWavelength&#45;&gt;ConvertUnits_Acsc</title>
<path fill="none" stroke="black" d="M532.22,-423.19C516.49,-410.58 493.57,-392.2 475.13,-377.41"/>
<polygon fill="black" stroke="black" points="477.39,-374.74 467.4,-371.22 473.01,-380.2 477.39,-374.74"/>
<text text-anchor="middle" x="514.18" y="-391.8" font-family="Helvetica,sans-Serif" font-size="14.00">No</text>
</g>
<!-- IsAsscInWavelength -->
<g id="node3" class="node">
<title>IsAsscInWavelength</title>
<polygon fill="limegreen" stroke="black" points="710.68,-283 581.82,-265 710.68,-247 839.55,-265 710.68,-283"/>
<text text-anchor="middle" x="710.68" y="-261.3" font-family="Helvetica,sans-Serif" font-size="14.00">Is in Wavelength?</text>
</g>
<!-- ConvertUnits_Assc -->
<g id="node14" class="node">
<title>ConvertUnits_Assc</title>
<path fill="lightskyblue" stroke="black" d="M646.18,-196C646.18,-196 563.18,-196 563.18,-196 557.18,-196 551.18,-190 551.18,-184 551.18,-184 551.18,-172 551.18,-172 551.18,-166 557.18,-160 563.18,-160 563.18,-160 646.18,-160 646.18,-160 652.18,-160 658.18,-166 658.18,-172 658.18,-172 658.18,-184 658.18,-184 658.18,-190 652.18,-196 646.18,-196"/>
<text text-anchor="middle" x="604.68" y="-174.3" font-family="Helvetica,sans-Serif" font-size="14.00">ConvertUnits</text>
</g>
<!-- IsAsscInWavelength&#45;&gt;ConvertUnits_Assc -->
<g id="edge8" class="edge">
<title>IsAsscInWavelength&#45;&gt;ConvertUnits_Assc</title>
<path fill="none" stroke="black" d="M692.22,-249.19C676.49,-236.58 653.57,-218.2 635.13,-203.41"/>
<polygon fill="black" stroke="black" points="637.39,-200.74 627.4,-197.22 633.01,-206.2 637.39,-200.74"/>
<text text-anchor="middle" x="673.18" y="-217.8" font-family="Helvetica,sans-Serif" font-size="14.00">No</text>
</g>
<!-- Divide_CorrAssc -->
<g id="node16" class="node">
<title>Divide_CorrAssc</title>
<path fill="lightskyblue" stroke="black" d="M607.68,-109C607.68,-109 571.68,-109 571.68,-109 565.68,-109 559.68,-103 559.68,-97 559.68,-97 559.68,-85 559.68,-85 559.68,-79 565.68,-73 571.68,-73 571.68,-73 607.68,-73 607.68,-73 613.68,-73 619.68,-79 619.68,-85 619.68,-85 619.68,-97 619.68,-97 619.68,-103 613.68,-109 607.68,-109"/>
<text text-anchor="middle" x="589.68" y="-87.3" font-family="Helvetica,sans-Serif" font-size="14.00">Divide</text>
</g>
<!-- IsAsscInWavelength&#45;&gt;Divide_CorrAssc -->
<g id="edge18" class="edge">
<title>IsAsscInWavelength&#45;&gt;Divide_CorrAssc</title>
<path fill="none" stroke="black" d="M714.29,-247.09C719.27,-218.87 724.73,-161.81 696.68,-127 680.95,-107.47 654.1,-98.73 631.24,-94.86"/>
<polygon fill="black" stroke="black" points="631.95,-91.43 621.56,-93.5 630.98,-98.36 631.95,-91.43"/>
<text text-anchor="middle" x="786.18" y="-174.3" font-family="Helvetica,sans-Serif" font-size="14.00">Yes, RHSWorkspace</text>
</g>
<!-- SampleWorkspace -->
<g id="node4" class="node">
<title>SampleWorkspace</title>
<ellipse fill="khaki" stroke="black" cx="287.68" cy="-265" rx="93.68" ry="18"/>
<text text-anchor="middle" x="287.68" y="-261.3" font-family="Helvetica,sans-Serif" font-size="14.00">SampleWorkspace</text>
</g>
<!-- Minus -->
<g id="node10" class="node">
<title>Minus</title>
<path fill="lightskyblue" stroke="black" d="M451.68,-196C451.68,-196 417.68,-196 417.68,-196 411.68,-196 405.68,-190 405.68,-184 405.68,-184 405.68,-172 405.68,-172 405.68,-166 411.68,-160 417.68,-160 417.68,-160 451.68,-160 451.68,-160 457.68,-160 463.68,-166 463.68,-172 463.68,-172 463.68,-184 463.68,-184 463.68,-190 457.68,-196 451.68,-196"/>
<text text-anchor="middle" x="434.68" y="-174.3" font-family="Helvetica,sans-Serif" font-size="14.00">Minus</text>
</g>
<!-- SampleWorkspace&#45;&gt;Minus -->
<g id="edge15" class="edge">
<title>SampleWorkspace&#45;&gt;Minus</title>
<path fill="none" stroke="black" d="M297.62,-247.02C304.74,-236.19 315.26,-222.61 327.68,-214 347.56,-200.22 373.23,-191.58 394.44,-186.34"/>
<polygon fill="black" stroke="black" points="394.94,-189.81 403.91,-184.17 393.38,-182.99 394.94,-189.81"/>
<text text-anchor="middle" x="379.18" y="-217.8" font-family="Helvetica,sans-Serif" font-size="14.00">LHSWorkspace</text>
</g>
<!-- CorrectionsWorkspace -->
<g id="node5" class="node">
<title>CorrectionsWorkspace</title>
<ellipse fill="khaki" stroke="black" cx="642.68" cy="-613" rx="110.48" ry="18"/>
<text text-anchor="middle" x="642.68" y="-609.3" font-family="Helvetica,sans-Serif" font-size="14.00">CorrectionsWorkspace</text>
</g>
<!-- CorrectionsWorkspace&#45;&gt;IsAccInWavelength -->
<g id="edge3" class="edge">
<title>CorrectionsWorkspace&#45;&gt;IsAccInWavelength</title>
<path fill="none" stroke="black" d="M567.12,-599.5C467.36,-583.01 293.18,-554.2 197.13,-538.32"/>
<polygon fill="black" stroke="black" points="197.74,-534.87 187.31,-536.69 196.6,-541.78 197.74,-534.87"/>
<text text-anchor="middle" x="431.18" y="-565.8" font-family="Helvetica,sans-Serif" font-size="14.00">Ac,c</text>
</g>
<!-- CorrectionsWorkspace&#45;&gt;IsAcscInWavelength -->
<g id="edge4" class="edge">
<title>CorrectionsWorkspace&#45;&gt;IsAcscInWavelength</title>
<path fill="none" stroke="black" d="M640.91,-594.81C638.12,-573.34 631.3,-536.03 615.68,-508 606.03,-490.68 590.91,-474.49 577.69,-462.26"/>
<polygon fill="black" stroke="black" points="580.27,-459.87 570.47,-455.83 575.61,-465.1 580.27,-459.87"/>
<text text-anchor="middle" x="648.18" y="-522.3" font-family="Helvetica,sans-Serif" font-size="14.00">Ac,sc</text>
</g>
<!-- CorrectionsWorkspace&#45;&gt;IsAsscInWavelength -->
<g id="edge5" class="edge">
<title>CorrectionsWorkspace&#45;&gt;IsAsscInWavelength</title>
<path fill="none" stroke="black" d="M669.86,-595.36C690.62,-580.35 715.68,-556.18 715.68,-527 715.68,-527 715.68,-527 715.68,-351 715.68,-332.09 714.43,-310.85 713.18,-294.33"/>
<polygon fill="black" stroke="black" points="716.7,-294.43 712.41,-284.75 709.73,-295 716.7,-294.43"/>
<text text-anchor="middle" x="734.18" y="-435.3" font-family="Helvetica,sans-Serif" font-size="14.00">As,sc</text>
</g>
<!-- CanWorkspace -->
<g id="node6" class="node">
<title>CanWorkspace</title>
<ellipse fill="khaki" stroke="black" cx="352.68" cy="-526" rx="77.19" ry="18"/>
<text text-anchor="middle" x="352.68" y="-522.3" font-family="Helvetica,sans-Serif" font-size="14.00">CanWorkspace</text>
</g>
<!-- Scale -->
<g id="node9" class="node">
<title>Scale</title>
<path fill="lightskyblue" stroke="black" d="M391.68,-457C391.68,-457 361.68,-457 361.68,-457 355.68,-457 349.68,-451 349.68,-445 349.68,-445 349.68,-433 349.68,-433 349.68,-427 355.68,-421 361.68,-421 361.68,-421 391.68,-421 391.68,-421 397.68,-421 403.68,-427 403.68,-433 403.68,-433 403.68,-445 403.68,-445 403.68,-451 397.68,-457 391.68,-457"/>
<text text-anchor="middle" x="376.68" y="-435.3" font-family="Helvetica,sans-Serif" font-size="14.00">Scale</text>
</g>
<!-- CanWorkspace&#45;&gt;Scale -->
<g id="edge1" class="edge">
<title>CanWorkspace&#45;&gt;Scale</title>
<path fill="none" stroke="black" d="M357.54,-507.8C360.74,-496.47 365,-481.36 368.69,-468.29"/>
<polygon fill="black" stroke="black" points="371.99,-469.5 371.34,-458.92 365.25,-467.6 371.99,-469.5"/>
</g>
<!-- CanScaleFactor -->
<g id="node7" class="node">
<title>CanScaleFactor</title>
<ellipse fill="khaki" stroke="black" cx="527.68" cy="-526" rx="79.09" ry="18"/>
<text text-anchor="middle" x="527.68" y="-522.3" font-family="Helvetica,sans-Serif" font-size="14.00">CanScaleFactor</text>
</g>
<!-- CanScaleFactor&#45;&gt;Scale -->
<g id="edge2" class="edge">
<title>CanScaleFactor&#45;&gt;Scale</title>
<path fill="none" stroke="black" d="M498.92,-508.81C474.83,-495.25 440.26,-475.79 414.02,-461.02"/>
<polygon fill="black" stroke="black" points="415.81,-458.01 405.38,-456.15 412.38,-464.11 415.81,-458.01"/>
</g>
<!-- OutputWorkspace -->
<g id="node8" class="node">
<title>OutputWorkspace</title>
<ellipse fill="khaki" stroke="black" cx="589.68" cy="-18" rx="91.78" ry="18"/>
<text text-anchor="middle" x="589.68" y="-14.3" font-family="Helvetica,sans-Serif" font-size="14.00">OutputWorkspace</text>
</g>
<!-- Scale&#45;&gt;Divide_CanAcc -->
<g id="edge9" class="edge">
<title>Scale&#45;&gt;Divide_CanAcc</title>
<path fill="none" stroke="black" d="M349.33,-423C325.13,-409.73 289.5,-390.19 262.03,-375.13"/>
<polygon fill="black" stroke="black" points="263.72,-372.06 253.27,-370.32 260.36,-378.2 263.72,-372.06"/>
<text text-anchor="middle" x="360.18" y="-391.8" font-family="Helvetica,sans-Serif" font-size="14.00">LHSWorkspace</text>
</g>
<!-- Minus&#45;&gt;Divide_CorrAssc -->
<g id="edge17" class="edge">
<title>Minus&#45;&gt;Divide_CorrAssc</title>
<path fill="none" stroke="black" d="M447.34,-159.58C455.95,-148.84 468.2,-135.55 481.68,-127 502,-114.12 527.5,-105.57 548.62,-100.14"/>
<polygon fill="black" stroke="black" points="549.15,-103.61 558.05,-97.87 547.51,-96.81 549.15,-103.61"/>
<text text-anchor="middle" x="533.18" y="-130.8" font-family="Helvetica,sans-Serif" font-size="14.00">LHSWorkspace</text>
</g>
<!-- Multiply&#45;&gt;Minus -->
<g id="edge16" class="edge">
<title>Multiply&#45;&gt;Minus</title>
<path fill="none" stroke="black" d="M434.68,-246.8C434.68,-235.58 434.68,-220.67 434.68,-207.69"/>
<polygon fill="black" stroke="black" points="438.18,-207.98 434.68,-197.98 431.18,-207.98 438.18,-207.98"/>
<text text-anchor="middle" x="487.68" y="-217.8" font-family="Helvetica,sans-Serif" font-size="14.00">RHSWorkspace</text>
</g>
<!-- ConvertUnits_Acc&#45;&gt;Divide_CanAcc -->
<g id="edge11" class="edge">
<title>ConvertUnits_Acc&#45;&gt;Divide_CanAcc</title>
<path fill="none" stroke="black" d="M77.31,-420.78C71.49,-410.39 67.27,-397.39 74.68,-388 87.67,-371.56 141.68,-362.01 180.46,-357.15"/>
<polygon fill="black" stroke="black" points="180.43,-360.68 189.95,-356.03 179.6,-353.73 180.43,-360.68"/>
<text text-anchor="middle" x="127.68" y="-391.8" font-family="Helvetica,sans-Serif" font-size="14.00">RHSWorkspace</text>
</g>
<!-- ConvertUnits_Acsc&#45;&gt;Multiply -->
<g id="edge14" class="edge">
<title>ConvertUnits_Acsc&#45;&gt;Multiply</title>
<path fill="none" stroke="black" d="M436.21,-333.59C433.95,-328.1 431.82,-321.91 430.68,-316 429.35,-309.1 429.26,-301.58 429.75,-294.51"/>
<polygon fill="black" stroke="black" points="433.21,-295.08 430.86,-284.75 426.26,-294.3 433.21,-295.08"/>
<text text-anchor="middle" x="483.68" y="-304.8" font-family="Helvetica,sans-Serif" font-size="14.00">RHSWorkspace</text>
</g>
<!-- ConvertUnits_Assc&#45;&gt;Divide_CorrAssc -->
<g id="edge19" class="edge">
<title>ConvertUnits_Assc&#45;&gt;Divide_CorrAssc</title>
<path fill="none" stroke="black" d="M596.28,-159.58C594.02,-154.08 591.88,-147.9 590.68,-142 589.29,-135.13 588.67,-127.62 588.49,-120.56"/>
<polygon fill="black" stroke="black" points="591.99,-120.81 588.51,-110.81 584.99,-120.8 591.99,-120.81"/>
<text text-anchor="middle" x="643.68" y="-130.8" font-family="Helvetica,sans-Serif" font-size="14.00">RHSWorkspace</text>
</g>
<!-- Divide_CanAcc&#45;&gt;Multiply -->
<g id="edge12" class="edge">
<title>Divide_CanAcc&#45;&gt;Multiply</title>
<path fill="none" stroke="black" d="M251.91,-334.04C271.62,-323.48 298.14,-310.22 322.68,-301 348.98,-291.13 358.91,-292.25 388.09,-283.59"/>
<polygon fill="black" stroke="black" points="388.84,-287.02 397.33,-280.69 386.75,-280.34 388.84,-287.02"/>
<text text-anchor="middle" x="374.18" y="-304.8" font-family="Helvetica,sans-Serif" font-size="14.00">LHSWorkspace</text>
</g>
<!-- Divide_CorrAssc&#45;&gt;OutputWorkspace -->
<g id="edge20" class="edge">
<title>Divide_CorrAssc&#45;&gt;OutputWorkspace</title>
<path fill="none" stroke="black" d="M589.68,-72.81C589.68,-65.23 589.68,-56.1 589.68,-47.54"/>
<polygon fill="black" stroke="black" points="593.18,-47.54 589.68,-37.54 586.18,-47.54 593.18,-47.54"/>
</g>
</g>
</svg>
