<?xml version="1.0" encoding="UTF-8" standalone="no"?>
<!DOCTYPE svg PUBLIC "-//W3C//DTD SVG 1.1//EN"
 "http://www.w3.org/Graphics/SVG/1.1/DTD/svg11.dtd">
<!-- Generated by graphviz version 11.0.0 (20240519.1550)
 -->
<!-- Title: ApplyPaalmanPingsCorrection_CanScaleOnly Pages: 1 -->
<svg width="452pt" height="303pt"
 viewBox="0.00 0.00 452.25 302.50" xmlns="http://www.w3.org/2000/svg" xmlns:xlink="http://www.w3.org/1999/xlink">
<g id="graph0" class="graph" transform="scale(1 1) rotate(0) translate(4 298.5)">
<title>ApplyPaalmanPingsCorrection_CanScaleOnly</title>
<polygon fill="white" stroke="none" points="-4,4 -4,-298.5 448.25,-298.5 448.25,4 -4,4"/>
<text text-anchor="middle" x="222.12" y="-277.2" font-family="Helvetica,sans-Serif" font-size="14.00">ApplyPaalmanPingsCorrection Container Scale Only Flowchart</text>
<!-- SampleWorkspace -->
<g id="node1" class="node">
<title>SampleWorkspace</title>
<ellipse fill="khaki" stroke="black" cx="110.25" cy="-179.25" rx="100.66" ry="18"/>
<text text-anchor="middle" x="110.25" y="-174.57" font-family="Helvetica,sans-Serif" font-size="14.00">SampleWorkspace</text>
</g>
<!-- Minus -->
<g id="node6" class="node">
<title>Minus</title>
<path fill="lightskyblue" stroke="black" d="M189.88,-108C189.88,-108 156.63,-108 156.63,-108 150.63,-108 144.63,-102 144.63,-96 144.63,-96 144.63,-84 144.63,-84 144.63,-78 150.63,-72 156.63,-72 156.63,-72 189.88,-72 189.88,-72 195.88,-72 201.88,-78 201.88,-84 201.88,-84 201.88,-96 201.88,-96 201.88,-102 195.88,-108 189.88,-108"/>
<text text-anchor="middle" x="173.25" y="-85.33" font-family="Helvetica,sans-Serif" font-size="14.00">Minus</text>
</g>
<!-- SampleWorkspace&#45;&gt;Minus -->
<g id="edge4" class="edge">
<title>SampleWorkspace&#45;&gt;Minus</title>
<path fill="none" stroke="black" d="M110.74,-160.98C111.79,-150.14 114.54,-136.3 121.5,-126 125.16,-120.59 129.96,-115.78 135.16,-111.6"/>
<polygon fill="black" stroke="black" points="136.84,-114.71 142.94,-106.04 132.77,-109.01 136.84,-114.71"/>
<text text-anchor="middle" x="173.63" y="-129.95" font-family="Helvetica,sans-Serif" font-size="14.00">LHSWorkspace</text>
</g>
<!-- CanWorkspace -->
<g id="node2" class="node">
<title>CanWorkspace</title>
<ellipse fill="khaki" stroke="black" cx="162.25" cy="-251.25" rx="83.3" ry="18"/>
<text text-anchor="middle" x="162.25" y="-246.57" font-family="Helvetica,sans-Serif" font-size="14.00">CanWorkspace</text>
</g>
<!-- Scale -->
<g id="node5" class="node">
<title>Scale</title>
<path fill="lightskyblue" stroke="black" d="M271.25,-197.25C271.25,-197.25 241.25,-197.25 241.25,-197.25 235.25,-197.25 229.25,-191.25 229.25,-185.25 229.25,-185.25 229.25,-173.25 229.25,-173.25 229.25,-167.25 235.25,-161.25 241.25,-161.25 241.25,-161.25 271.25,-161.25 271.25,-161.25 277.25,-161.25 283.25,-167.25 283.25,-173.25 283.25,-173.25 283.25,-185.25 283.25,-185.25 283.25,-191.25 277.25,-197.25 271.25,-197.25"/>
<text text-anchor="middle" x="256.25" y="-174.57" font-family="Helvetica,sans-Serif" font-size="14.00">Scale</text>
</g>
<!-- CanWorkspace&#45;&gt;Scale -->
<g id="edge1" class="edge">
<title>CanWorkspace&#45;&gt;Scale</title>
<path fill="none" stroke="black" d="M184.53,-233.66C196.24,-224.94 210.81,-214.09 223.75,-204.45"/>
<polygon fill="black" stroke="black" points="225.68,-207.38 231.61,-198.6 221.5,-201.77 225.68,-207.38"/>
</g>
<!-- CanScaleFactor -->
<g id="node3" class="node">
<title>CanScaleFactor</title>
<ellipse fill="khaki" stroke="black" cx="349.25" cy="-251.25" rx="85.41" ry="18"/>
<text text-anchor="middle" x="349.25" y="-246.57" font-family="Helvetica,sans-Serif" font-size="14.00">CanScaleFactor</text>
</g>
<!-- CanScaleFactor&#45;&gt;Scale -->
<g id="edge2" class="edge">
<title>CanScaleFactor&#45;&gt;Scale</title>
<path fill="none" stroke="black" d="M327.21,-233.66C315.63,-224.94 301.22,-214.09 288.41,-204.45"/>
<polygon fill="black" stroke="black" points="290.74,-201.82 280.64,-198.61 286.53,-207.42 290.74,-201.82"/>
</g>
<!-- OutputWorkspace -->
<g id="node4" class="node">
<title>OutputWorkspace</title>
<ellipse fill="khaki" stroke="black" cx="173.25" cy="-18" rx="98.56" ry="18"/>
<text text-anchor="middle" x="173.25" y="-13.32" font-family="Helvetica,sans-Serif" font-size="14.00">OutputWorkspace</text>
</g>
<!-- Scale&#45;&gt;Minus -->
<g id="edge3" class="edge">
<title>Scale&#45;&gt;Minus</title>
<path fill="none" stroke="black" d="M248.06,-161C242.38,-150.17 234.07,-136.34 224.25,-126 220.33,-121.87 215.85,-117.95 211.2,-114.33"/>
<polygon fill="black" stroke="black" points="213.55,-111.71 203.4,-108.65 209.43,-117.37 213.55,-111.71"/>
<text text-anchor="middle" x="289.75" y="-129.95" font-family="Helvetica,sans-Serif" font-size="14.00">RHSWorkspace</text>
</g>
<!-- Minus&#45;&gt;OutputWorkspace -->
<g id="edge5" class="edge">
<title>Minus&#45;&gt;OutputWorkspace</title>
<path fill="none" stroke="black" d="M173.25,-71.7C173.25,-64.41 173.25,-55.73 173.25,-47.54"/>
<polygon fill="black" stroke="black" points="176.75,-47.62 173.25,-37.62 169.75,-47.62 176.75,-47.62"/>
</g>
</g>
</svg>
