<?xml version="1.0" encoding="UTF-8" standalone="no"?>
<!DOCTYPE svg PUBLIC "-//W3C//DTD SVG 1.1//EN"
 "http://www.w3.org/Graphics/SVG/1.1/DTD/svg11.dtd">
<!-- Generated by graphviz version 11.0.0 (20240519.1550)
 -->
<!-- Title: ApplyPaalmanPingsCorrection_SampleCorrectOnly Pages: 1 -->
<svg width="507pt" height="409pt"
 viewBox="0.00 0.00 507.04 409.00" xmlns="http://www.w3.org/2000/svg" xmlns:xlink="http://www.w3.org/1999/xlink">
<g id="graph0" class="graph" transform="scale(1 1) rotate(0) translate(4 405)">
<title>ApplyPaalmanPingsCorrection_SampleCorrectOnly</title>
<polygon fill="white" stroke="none" points="-4,4 -4,-405 503.04,-405 503.04,4 -4,4"/>
<text text-anchor="middle" x="249.52" y="-383.7" font-family="Helvetica,sans-Serif" font-size="14.00">ApplyPaalmanPingsCorrection Sample Correct Only Flowchart</text>
<!-- IsAssInWavelength -->
<g id="node1" class="node">
<title>IsAssInWavelength</title>
<polygon fill="limegreen" stroke="black" points="253.66,-286.5 115.77,-268.5 253.66,-250.5 391.56,-268.5 253.66,-286.5"/>
<text text-anchor="middle" x="253.66" y="-263.82" font-family="Helvetica,sans-Serif" font-size="14.00">Is in Wavelength?</text>
</g>
<!-- Divide -->
<g id="node5" class="node">
<title>Divide</title>
<path fill="lightskyblue" stroke="black" d="M255.41,-108C255.41,-108 219.91,-108 219.91,-108 213.91,-108 207.91,-102 207.91,-96 207.91,-96 207.91,-84 207.91,-84 207.91,-78 213.91,-72 219.91,-72 219.91,-72 255.41,-72 255.41,-72 261.41,-72 267.41,-78 267.41,-84 267.41,-84 267.41,-96 267.41,-96 267.41,-102 261.41,-108 255.41,-108"/>
<text text-anchor="middle" x="237.66" y="-85.33" font-family="Helvetica,sans-Serif" font-size="14.00">Divide</text>
</g>
<!-- IsAssInWavelength&#45;&gt;Divide -->
<g id="edge3" class="edge">
<title>IsAssInWavelength&#45;&gt;Divide</title>
<path fill="none" stroke="black" d="M252.07,-250.47C250.75,-236.24 248.82,-215.42 247.16,-197.25 244.77,-170.92 242.09,-140.91 240.19,-119.51"/>
<polygon fill="black" stroke="black" points="243.7,-119.46 239.33,-109.81 236.72,-120.08 243.7,-119.46"/>
<text text-anchor="middle" x="314.91" y="-174.57" font-family="Helvetica,sans-Serif" font-size="14.00">Yes, RHSWorkspace</text>
</g>
<!-- ConvertUnits -->
<g id="node6" class="node">
<title>ConvertUnits</title>
<path fill="lightskyblue" stroke="black" d="M487.04,-197.25C487.04,-197.25 404.29,-197.25 404.29,-197.25 398.29,-197.25 392.29,-191.25 392.29,-185.25 392.29,-185.25 392.29,-173.25 392.29,-173.25 392.29,-167.25 398.29,-161.25 404.29,-161.25 404.29,-161.25 487.04,-161.25 487.04,-161.25 493.04,-161.25 499.04,-167.25 499.04,-173.25 499.04,-173.25 499.04,-185.25 499.04,-185.25 499.04,-191.25 493.04,-197.25 487.04,-197.25"/>
<text text-anchor="middle" x="445.66" y="-174.57" font-family="Helvetica,sans-Serif" font-size="14.00">ConvertUnits</text>
</g>
<!-- IsAssInWavelength&#45;&gt;ConvertUnits -->
<g id="edge4" class="edge">
<title>IsAssInWavelength&#45;&gt;ConvertUnits</title>
<path fill="none" stroke="black" d="M283.24,-254.06C313.59,-240.27 361.31,-218.58 397.19,-202.28"/>
<polygon fill="black" stroke="black" points="398.41,-205.57 406.06,-198.25 395.51,-199.2 398.41,-205.57"/>
<text text-anchor="middle" x="376.04" y="-219.2" font-family="Helvetica,sans-Serif" font-size="14.00">No</text>
</g>
<!-- SampleWorkspace -->
<g id="node2" class="node">
<title>SampleWorkspace</title>
<ellipse fill="khaki" stroke="black" cx="100.66" cy="-179.25" rx="100.66" ry="18"/>
<text text-anchor="middle" x="100.66" y="-174.57" font-family="Helvetica,sans-Serif" font-size="14.00">SampleWorkspace</text>
</g>
<!-- SampleWorkspace&#45;&gt;Divide -->
<g id="edge1" class="edge">
<title>SampleWorkspace&#45;&gt;Divide</title>
<path fill="none" stroke="black" d="M103.32,-160.99C105.94,-149.58 111.05,-135.11 120.91,-126 141.37,-107.09 171.66,-98.37 196.26,-94.37"/>
<polygon fill="black" stroke="black" points="196.55,-97.86 205.96,-93.01 195.57,-90.93 196.55,-97.86"/>
<text text-anchor="middle" x="172.04" y="-129.95" font-family="Helvetica,sans-Serif" font-size="14.00">LHSWorkspace</text>
</g>
<!-- CorrectionsWorkspace -->
<g id="node3" class="node">
<title>CorrectionsWorkspace</title>
<ellipse fill="khaki" stroke="black" cx="253.66" cy="-357.75" rx="119.08" ry="18"/>
<text text-anchor="middle" x="253.66" y="-353.07" font-family="Helvetica,sans-Serif" font-size="14.00">CorrectionsWorkspace</text>
</g>
<!-- CorrectionsWorkspace&#45;&gt;IsAssInWavelength -->
<g id="edge2" class="edge">
<title>CorrectionsWorkspace&#45;&gt;IsAssInWavelength</title>
<path fill="none" stroke="black" d="M253.66,-339.51C253.66,-327.76 253.66,-311.91 253.66,-298.27"/>
<polygon fill="black" stroke="black" points="257.16,-298.51 253.66,-288.51 250.16,-298.51 257.16,-298.51"/>
<text text-anchor="middle" x="268.29" y="-308.45" font-family="Helvetica,sans-Serif" font-size="14.00">As,s</text>
</g>
<!-- OutputWorkspace -->
<g id="node4" class="node">
<title>OutputWorkspace</title>
<ellipse fill="khaki" stroke="black" cx="237.66" cy="-18" rx="98.56" ry="18"/>
<text text-anchor="middle" x="237.66" y="-13.32" font-family="Helvetica,sans-Serif" font-size="14.00">OutputWorkspace</text>
</g>
<!-- Divide&#45;&gt;OutputWorkspace -->
<g id="edge6" class="edge">
<title>Divide&#45;&gt;OutputWorkspace</title>
<path fill="none" stroke="black" d="M237.66,-71.7C237.66,-64.41 237.66,-55.73 237.66,-47.54"/>
<polygon fill="black" stroke="black" points="241.16,-47.62 237.66,-37.62 234.16,-47.62 241.16,-47.62"/>
</g>
<!-- ConvertUnits&#45;&gt;Divide -->
<g id="edge5" class="edge">
<title>ConvertUnits&#45;&gt;Divide</title>
<path fill="none" stroke="black" d="M404.07,-160.8C367.38,-145.41 314.25,-123.13 277.96,-107.9"/>
<polygon fill="black" stroke="black" points="279.71,-104.84 269.13,-104.2 277,-111.3 279.71,-104.84"/>
<text text-anchor="middle" x="412.16" y="-129.95" font-family="Helvetica,sans-Serif" font-size="14.00">RHSWorkspace</text>
</g>
</g>
</svg>
