<?xml version="1.0" encoding="UTF-8" standalone="no"?>
<!DOCTYPE svg PUBLIC "-//W3C//DTD SVG 1.1//EN"
 "http://www.w3.org/Graphics/SVG/1.1/DTD/svg11.dtd">
<!-- Generated by graphviz version 7.1.0 (20230122.1345)
 -->
<!-- Title: ApplyPaalmanPingsCorrection_CanScaleOnly Pages: 1 -->
<svg width="453pt" height="300pt"
 viewBox="0.00 0.00 453.00 300.00" xmlns="http://www.w3.org/2000/svg" xmlns:xlink="http://www.w3.org/1999/xlink">
<g id="graph0" class="graph" transform="scale(1 1) rotate(0) translate(4 296)">
<title>ApplyPaalmanPingsCorrection_CanScaleOnly</title>
<polygon fill="white" stroke="none" points="-4,4 -4,-296 449,-296 449,4 -4,4"/>
<text text-anchor="middle" x="222.5" y="-276.8" font-family="Helvetica,sans-Serif" font-size="14.00">ApplyPaalmanPingsCorrection Container Scale Only Flowchart</text>
<!-- SampleWorkspace -->
<g id="node1" class="node">
<title>SampleWorkspace</title>
<ellipse fill="khaki" stroke="black" cx="116.15" cy="-178" rx="93.68" ry="18"/>
<text text-anchor="middle" x="116.15" y="-174.3" font-family="Helvetica,sans-Serif" font-size="14.00">SampleWorkspace</text>
</g>
<!-- Minus -->
<g id="node6" class="node">
<title>Minus</title>
<path fill="lightskyblue" stroke="black" d="M196.15,-109C196.15,-109 162.15,-109 162.15,-109 156.15,-109 150.15,-103 150.15,-97 150.15,-97 150.15,-85 150.15,-85 150.15,-79 156.15,-73 162.15,-73 162.15,-73 196.15,-73 196.15,-73 202.15,-73 208.15,-79 208.15,-85 208.15,-85 208.15,-97 208.15,-97 208.15,-103 202.15,-109 196.15,-109"/>
<text text-anchor="middle" x="179.15" y="-87.3" font-family="Helvetica,sans-Serif" font-size="14.00">Minus</text>
</g>
<!-- SampleWorkspace&#45;&gt;Minus -->
<g id="edge4" class="edge">
<title>SampleWorkspace&#45;&gt;Minus</title>
<path fill="none" stroke="black" d="M115.06,-159.53C115.24,-149.3 116.95,-136.56 123.15,-127 127.57,-120.19 133.83,-114.47 140.57,-109.76"/>
<polygon fill="black" stroke="black" points="142,-112.99 148.65,-104.74 138.31,-107.04 142,-112.99"/>
<text text-anchor="middle" x="174.65" y="-130.8" font-family="Helvetica,sans-Serif" font-size="14.00">LHSWorkspace</text>
</g>
<!-- CanWorkspace -->
<g id="node2" class="node">
<title>CanWorkspace</title>
<ellipse fill="khaki" stroke="black" cx="168.15" cy="-251" rx="77.19" ry="18"/>
<text text-anchor="middle" x="168.15" y="-247.3" font-family="Helvetica,sans-Serif" font-size="14.00">CanWorkspace</text>
</g>
<!-- Scale -->
<g id="node5" class="node">
<title>Scale</title>
<path fill="lightskyblue" stroke="black" d="M270.15,-196C270.15,-196 240.15,-196 240.15,-196 234.15,-196 228.15,-190 228.15,-184 228.15,-184 228.15,-172 228.15,-172 228.15,-166 234.15,-160 240.15,-160 240.15,-160 270.15,-160 270.15,-160 276.15,-160 282.15,-166 282.15,-172 282.15,-172 282.15,-184 282.15,-184 282.15,-190 276.15,-196 270.15,-196"/>
<text text-anchor="middle" x="255.15" y="-174.3" font-family="Helvetica,sans-Serif" font-size="14.00">Scale</text>
</g>
<!-- CanWorkspace&#45;&gt;Scale -->
<g id="edge1" class="edge">
<title>CanWorkspace&#45;&gt;Scale</title>
<path fill="none" stroke="black" d="M188.77,-233.17C199.58,-224.35 213.03,-213.38 224.98,-203.62"/>
<polygon fill="black" stroke="black" points="227.06,-206.44 232.6,-197.4 222.64,-201.01 227.06,-206.44"/>
</g>
<!-- CanScaleFactor -->
<g id="node3" class="node">
<title>CanScaleFactor</title>
<ellipse fill="khaki" stroke="black" cx="343.15" cy="-251" rx="79.09" ry="18"/>
<text text-anchor="middle" x="343.15" y="-247.3" font-family="Helvetica,sans-Serif" font-size="14.00">CanScaleFactor</text>
</g>
<!-- CanScaleFactor&#45;&gt;Scale -->
<g id="edge2" class="edge">
<title>CanScaleFactor&#45;&gt;Scale</title>
<path fill="none" stroke="black" d="M322.29,-233.17C311.36,-224.35 297.76,-213.38 285.66,-203.62"/>
<polygon fill="black" stroke="black" points="287.93,-200.95 277.95,-197.4 283.54,-206.4 287.93,-200.95"/>
</g>
<!-- OutputWorkspace -->
<g id="node4" class="node">
<title>OutputWorkspace</title>
<ellipse fill="khaki" stroke="black" cx="179.15" cy="-18" rx="91.78" ry="18"/>
<text text-anchor="middle" x="179.15" y="-14.3" font-family="Helvetica,sans-Serif" font-size="14.00">OutputWorkspace</text>
</g>
<!-- Scale&#45;&gt;Minus -->
<g id="edge3" class="edge">
<title>Scale&#45;&gt;Minus</title>
<path fill="none" stroke="black" d="M247.3,-159.66C242.17,-149.48 234.83,-136.74 226.15,-127 222.78,-123.22 218.95,-119.6 214.96,-116.2"/>
<polygon fill="black" stroke="black" points="217.29,-113.58 207.28,-110.11 212.94,-119.06 217.29,-113.58"/>
<text text-anchor="middle" x="290.15" y="-130.8" font-family="Helvetica,sans-Serif" font-size="14.00">RHSWorkspace</text>
</g>
<!-- Minus&#45;&gt;OutputWorkspace -->
<g id="edge5" class="edge">
<title>Minus&#45;&gt;OutputWorkspace</title>
<path fill="none" stroke="black" d="M179.15,-72.81C179.15,-65.23 179.15,-56.1 179.15,-47.54"/>
<polygon fill="black" stroke="black" points="182.65,-47.54 179.15,-37.54 175.65,-47.54 182.65,-47.54"/>
</g>
</g>
</svg>
