<?xml version="1.0" encoding="UTF-8" standalone="no"?>
<!DOCTYPE svg PUBLIC "-//W3C//DTD SVG 1.1//EN"
 "http://www.w3.org/Graphics/SVG/1.1/DTD/svg11.dtd">
<!-- Generated by graphviz version 13.1.2 (20250809.0930)
 -->
<!-- Title: ApplyPaalmanPingsCorrection_SampleCorrectOnly Pages: 1 -->
<svg width="507pt" height="410pt"
 viewBox="0.00 0.00 507.00 410.00" xmlns="http://www.w3.org/2000/svg" xmlns:xlink="http://www.w3.org/1999/xlink">
<g id="graph0" class="graph" transform="scale(1 1) rotate(0) translate(4 406)">
<title>ApplyPaalmanPingsCorrection_SampleCorrectOnly</title>
<polygon fill="white" stroke="none" points="-4,4 -4,-406 503.04,-406 503.04,4 -4,4"/>
<text xml:space="preserve" text-anchor="middle" x="249.52" y="-384.7" font-family="Helvetica,sans-Serif" font-size="14.00">ApplyPaalmanPingsCorrection Sample Correct Only Flowchart</text>
<!-- IsAssInWavelength -->
<g id="node1" class="node">
<title>IsAssInWavelength</title>
<polygon fill="limegreen" stroke="black" points="253.66,-287.5 115.77,-269.5 253.66,-251.5 391.56,-269.5 253.66,-287.5"/>
<text xml:space="preserve" text-anchor="middle" x="253.66" y="-264.82" font-family="Helvetica,sans-Serif" font-size="14.00">Is in Wavelength?</text>
</g>
<!-- Divide -->
<g id="node5" class="node">
<title>Divide</title>
<path fill="lightskyblue" stroke="black" d="M255.41,-109C255.41,-109 219.91,-109 219.91,-109 213.91,-109 207.91,-103 207.91,-97 207.91,-97 207.91,-85 207.91,-85 207.91,-79 213.91,-73 219.91,-73 219.91,-73 255.41,-73 255.41,-73 261.41,-73 267.41,-79 267.41,-85 267.41,-85 267.41,-97 267.41,-97 267.41,-103 261.41,-109 255.41,-109"/>
<text xml:space="preserve" text-anchor="middle" x="237.66" y="-86.33" font-family="Helvetica,sans-Serif" font-size="14.00">Divide</text>
</g>
<!-- IsAssInWavelength&#45;&gt;Divide -->
<g id="edge3" class="edge">
<title>IsAssInWavelength&#45;&gt;Divide</title>
<path fill="none" stroke="black" d="M252.07,-251.47C250.75,-237.24 248.82,-216.42 247.16,-198.25 244.77,-171.92 242.09,-141.91 240.19,-120.51"/>
<polygon fill="black" stroke="black" points="243.7,-120.46 239.33,-110.81 236.72,-121.08 243.7,-120.46"/>
<text xml:space="preserve" text-anchor="middle" x="315.41" y="-175.57" font-family="Helvetica,sans-Serif" font-size="14.00">Yes, RHSWorkspace</text>
</g>
<!-- ConvertUnits -->
<g id="node6" class="node">
<title>ConvertUnits</title>
<path fill="lightskyblue" stroke="black" d="M487.04,-198.25C487.04,-198.25 404.29,-198.25 404.29,-198.25 398.29,-198.25 392.29,-192.25 392.29,-186.25 392.29,-186.25 392.29,-174.25 392.29,-174.25 392.29,-168.25 398.29,-162.25 404.29,-162.25 404.29,-162.25 487.04,-162.25 487.04,-162.25 493.04,-162.25 499.04,-168.25 499.04,-174.25 499.04,-174.25 499.04,-186.25 499.04,-186.25 499.04,-192.25 493.04,-198.25 487.04,-198.25"/>
<text xml:space="preserve" text-anchor="middle" x="445.66" y="-175.57" font-family="Helvetica,sans-Serif" font-size="14.00">ConvertUnits</text>
</g>
<!-- IsAssInWavelength&#45;&gt;ConvertUnits -->
<g id="edge4" class="edge">
<title>IsAssInWavelength&#45;&gt;ConvertUnits</title>
<path fill="none" stroke="black" d="M283.24,-255.06C313.59,-241.27 361.31,-219.58 397.19,-203.28"/>
<polygon fill="black" stroke="black" points="398.41,-206.57 406.06,-199.25 395.51,-200.2 398.41,-206.57"/>
<text xml:space="preserve" text-anchor="middle" x="376.23" y="-220.2" font-family="Helvetica,sans-Serif" font-size="14.00">No</text>
</g>
<!-- SampleWorkspace -->
<g id="node2" class="node">
<title>SampleWorkspace</title>
<ellipse fill="khaki" stroke="black" cx="100.66" cy="-180.25" rx="100.66" ry="18"/>
<text xml:space="preserve" text-anchor="middle" x="100.66" y="-175.57" font-family="Helvetica,sans-Serif" font-size="14.00">SampleWorkspace</text>
</g>
<!-- SampleWorkspace&#45;&gt;Divide -->
<g id="edge1" class="edge">
<title>SampleWorkspace&#45;&gt;Divide</title>
<path fill="none" stroke="black" d="M103.32,-161.99C105.94,-150.58 111.05,-136.11 120.91,-127 141.37,-108.09 171.66,-99.37 196.26,-95.37"/>
<polygon fill="black" stroke="black" points="196.55,-98.86 205.96,-94.01 195.57,-91.93 196.55,-98.86"/>
<text xml:space="preserve" text-anchor="middle" x="172.29" y="-130.95" font-family="Helvetica,sans-Serif" font-size="14.00">LHSWorkspace</text>
</g>
<!-- CorrectionsWorkspace -->
<g id="node3" class="node">
<title>CorrectionsWorkspace</title>
<ellipse fill="khaki" stroke="black" cx="253.66" cy="-358.75" rx="119.08" ry="18"/>
<text xml:space="preserve" text-anchor="middle" x="253.66" y="-354.07" font-family="Helvetica,sans-Serif" font-size="14.00">CorrectionsWorkspace</text>
</g>
<!-- CorrectionsWorkspace&#45;&gt;IsAssInWavelength -->
<g id="edge2" class="edge">
<title>CorrectionsWorkspace&#45;&gt;IsAssInWavelength</title>
<path fill="none" stroke="black" d="M253.66,-340.51C253.66,-328.76 253.66,-312.91 253.66,-299.27"/>
<polygon fill="black" stroke="black" points="257.16,-299.51 253.66,-289.51 250.16,-299.51 257.16,-299.51"/>
<text xml:space="preserve" text-anchor="middle" x="268.29" y="-309.45" font-family="Helvetica,sans-Serif" font-size="14.00">As,s</text>
</g>
<!-- OutputWorkspace -->
<g id="node4" class="node">
<title>OutputWorkspace</title>
<ellipse fill="khaki" stroke="black" cx="237.66" cy="-18" rx="98.56" ry="18"/>
<text xml:space="preserve" text-anchor="middle" x="237.66" y="-13.32" font-family="Helvetica,sans-Serif" font-size="14.00">OutputWorkspace</text>
</g>
<!-- Divide&#45;&gt;OutputWorkspace -->
<g id="edge6" class="edge">
<title>Divide&#45;&gt;OutputWorkspace</title>
<path fill="none" stroke="black" d="M237.66,-72.81C237.66,-65.23 237.66,-56.1 237.66,-47.54"/>
<polygon fill="black" stroke="black" points="241.16,-47.54 237.66,-37.54 234.16,-47.54 241.16,-47.54"/>
</g>
<!-- ConvertUnits&#45;&gt;Divide -->
<g id="edge5" class="edge">
<title>ConvertUnits&#45;&gt;Divide</title>
<path fill="none" stroke="black" d="M404.07,-161.8C367.38,-146.41 314.25,-124.13 277.96,-108.9"/>
<polygon fill="black" stroke="black" points="279.71,-105.84 269.13,-105.2 277,-112.3 279.71,-105.84"/>
<text xml:space="preserve" text-anchor="middle" x="412.79" y="-130.95" font-family="Helvetica,sans-Serif" font-size="14.00">RHSWorkspace</text>
</g>
</g>
</svg>
