<?xml version="1.0" encoding="UTF-8" standalone="no"?>
<!DOCTYPE svg PUBLIC "-//W3C//DTD SVG 1.1//EN"
 "http://www.w3.org/Graphics/SVG/1.1/DTD/svg11.dtd">
<!-- Generated by graphviz version 11.0.0 (20240519.1550)
 -->
<!-- Title: ApplyPaalmanPingsCorrection_FullCorrection Pages: 1 -->
<svg width="900pt" height="677pt"
 viewBox="0.00 0.00 900.39 676.75" xmlns="http://www.w3.org/2000/svg" xmlns:xlink="http://www.w3.org/1999/xlink">
<g id="graph0" class="graph" transform="scale(1 1) rotate(0) translate(4 672.75)">
<title>ApplyPaalmanPingsCorrection_FullCorrection</title>
<polygon fill="white" stroke="none" points="-4,4 -4,-672.75 896.39,-672.75 896.39,4 -4,4"/>
<text text-anchor="middle" x="446.2" y="-651.45" font-family="Helvetica,sans-Serif" font-size="14.00">ApplyPaalmanPingsCorrection Full Corrections Flowchart</text>
<!-- IsAccInWavelength -->
<g id="node1" class="node">
<title>IsAccInWavelength</title>
<polygon fill="limegreen" stroke="black" points="137.89,-554.25 0,-536.25 137.89,-518.25 275.79,-536.25 137.89,-554.25"/>
<text text-anchor="middle" x="137.89" y="-531.58" font-family="Helvetica,sans-Serif" font-size="14.00">Is in Wavelength?</text>
</g>
<!-- ConvertUnits_Acc -->
<g id="node12" class="node">
<title>ConvertUnits_Acc</title>
<path fill="lightskyblue" stroke="black" d="M151.27,-465C151.27,-465 68.52,-465 68.52,-465 62.52,-465 56.52,-459 56.52,-453 56.52,-453 56.52,-441 56.52,-441 56.52,-435 62.52,-429 68.52,-429 68.52,-429 151.27,-429 151.27,-429 157.27,-429 163.27,-435 163.27,-441 163.27,-441 163.27,-453 163.27,-453 163.27,-459 157.27,-465 151.27,-465"/>
<text text-anchor="middle" x="109.89" y="-442.32" font-family="Helvetica,sans-Serif" font-size="14.00">ConvertUnits</text>
</g>
<!-- IsAccInWavelength&#45;&gt;ConvertUnits_Acc -->
<g id="edge6" class="edge">
<title>IsAccInWavelength&#45;&gt;ConvertUnits_Acc</title>
<path fill="none" stroke="black" d="M132.63,-518.84C128.75,-506.76 123.39,-490.06 118.85,-475.9"/>
<polygon fill="black" stroke="black" points="122.28,-475.13 115.89,-466.67 115.61,-477.27 122.28,-475.13"/>
<text text-anchor="middle" x="136.27" y="-486.95" font-family="Helvetica,sans-Serif" font-size="14.00">No</text>
</g>
<!-- Divide_CanAcc -->
<g id="node15" class="node">
<title>Divide_CanAcc</title>
<path fill="lightskyblue" stroke="black" d="M261.64,-375.75C261.64,-375.75 226.14,-375.75 226.14,-375.75 220.14,-375.75 214.14,-369.75 214.14,-363.75 214.14,-363.75 214.14,-351.75 214.14,-351.75 214.14,-345.75 220.14,-339.75 226.14,-339.75 226.14,-339.75 261.64,-339.75 261.64,-339.75 267.64,-339.75 273.64,-345.75 273.64,-351.75 273.64,-351.75 273.64,-363.75 273.64,-363.75 273.64,-369.75 267.64,-375.75 261.64,-375.75"/>
<text text-anchor="middle" x="243.89" y="-353.07" font-family="Helvetica,sans-Serif" font-size="14.00">Divide</text>
</g>
<!-- IsAccInWavelength&#45;&gt;Divide_CanAcc -->
<g id="edge10" class="edge">
<title>IsAccInWavelength&#45;&gt;Divide_CanAcc</title>
<path fill="none" stroke="black" d="M147.49,-519.28C165.66,-489.03 205.26,-423.08 227.64,-385.81"/>
<polygon fill="black" stroke="black" points="230.54,-387.78 232.69,-377.41 224.54,-384.18 230.54,-387.78"/>
<text text-anchor="middle" x="270.14" y="-442.32" font-family="Helvetica,sans-Serif" font-size="14.00">Yes, RHSWorkspace</text>
</g>
<!-- IsAcscInWavelength -->
<g id="node2" class="node">
<title>IsAcscInWavelength</title>
<polygon fill="limegreen" stroke="black" points="578.89,-465 441,-447 578.89,-429 716.79,-447 578.89,-465"/>
<text text-anchor="middle" x="578.89" y="-442.32" font-family="Helvetica,sans-Serif" font-size="14.00">Is in Wavelength?</text>
</g>
<!-- Multiply -->
<g id="node11" class="node">
<title>Multiply</title>
<path fill="lightskyblue" stroke="black" d="M490.27,-286.5C490.27,-286.5 443.52,-286.5 443.52,-286.5 437.52,-286.5 431.52,-280.5 431.52,-274.5 431.52,-274.5 431.52,-262.5 431.52,-262.5 431.52,-256.5 437.52,-250.5 443.52,-250.5 443.52,-250.5 490.27,-250.5 490.27,-250.5 496.27,-250.5 502.27,-256.5 502.27,-262.5 502.27,-262.5 502.27,-274.5 502.27,-274.5 502.27,-280.5 496.27,-286.5 490.27,-286.5"/>
<text text-anchor="middle" x="466.89" y="-263.82" font-family="Helvetica,sans-Serif" font-size="14.00">Multiply</text>
</g>
<!-- IsAcscInWavelength&#45;&gt;Multiply -->
<g id="edge13" class="edge">
<title>IsAcscInWavelength&#45;&gt;Multiply</title>
<path fill="none" stroke="black" d="M583.12,-429.12C589.28,-400.31 597.11,-341.21 568.89,-304.5 555.77,-287.42 533.83,-278.63 513.66,-274.12"/>
<polygon fill="black" stroke="black" points="514.35,-270.68 503.88,-272.26 513.05,-277.56 514.35,-270.68"/>
<text text-anchor="middle" x="657.14" y="-353.07" font-family="Helvetica,sans-Serif" font-size="14.00">Yes, RHSWorkspace</text>
</g>
<!-- ConvertUnits_Acsc -->
<g id="node13" class="node">
<title>ConvertUnits_Acsc</title>
<path fill="lightskyblue" stroke="black" d="M519.27,-375.75C519.27,-375.75 436.52,-375.75 436.52,-375.75 430.52,-375.75 424.52,-369.75 424.52,-363.75 424.52,-363.75 424.52,-351.75 424.52,-351.75 424.52,-345.75 430.52,-339.75 436.52,-339.75 436.52,-339.75 519.27,-339.75 519.27,-339.75 525.27,-339.75 531.27,-345.75 531.27,-351.75 531.27,-351.75 531.27,-363.75 531.27,-363.75 531.27,-369.75 525.27,-375.75 519.27,-375.75"/>
<text text-anchor="middle" x="477.89" y="-353.07" font-family="Helvetica,sans-Serif" font-size="14.00">ConvertUnits</text>
</g>
<!-- IsAcscInWavelength&#45;&gt;ConvertUnits_Acsc -->
<g id="edge7" class="edge">
<title>IsAcscInWavelength&#45;&gt;ConvertUnits_Acsc</title>
<path fill="none" stroke="black" d="M561.3,-430.8C546.15,-417.71 523.99,-398.57 506.32,-383.31"/>
<polygon fill="black" stroke="black" points="509.06,-381.05 499.21,-377.16 504.48,-386.35 509.06,-381.05"/>
<text text-anchor="middle" x="546.27" y="-397.7" font-family="Helvetica,sans-Serif" font-size="14.00">No</text>
</g>
<!-- IsAsscInWavelength -->
<g id="node3" class="node">
<title>IsAsscInWavelength</title>
<polygon fill="limegreen" stroke="black" points="748.89,-286.5 611,-268.5 748.89,-250.5 886.79,-268.5 748.89,-286.5"/>
<text text-anchor="middle" x="748.89" y="-263.82" font-family="Helvetica,sans-Serif" font-size="14.00">Is in Wavelength?</text>
</g>
<!-- ConvertUnits_Assc -->
<g id="node14" class="node">
<title>ConvertUnits_Assc</title>
<path fill="lightskyblue" stroke="black" d="M685.27,-197.25C685.27,-197.25 602.52,-197.25 602.52,-197.25 596.52,-197.25 590.52,-191.25 590.52,-185.25 590.52,-185.25 590.52,-173.25 590.52,-173.25 590.52,-167.25 596.52,-161.25 602.52,-161.25 602.52,-161.25 685.27,-161.25 685.27,-161.25 691.27,-161.25 697.27,-167.25 697.27,-173.25 697.27,-173.25 697.27,-185.25 697.27,-185.25 697.27,-191.25 691.27,-197.25 685.27,-197.25"/>
<text text-anchor="middle" x="643.89" y="-174.57" font-family="Helvetica,sans-Serif" font-size="14.00">ConvertUnits</text>
</g>
<!-- IsAsscInWavelength&#45;&gt;ConvertUnits_Assc -->
<g id="edge8" class="edge">
<title>IsAsscInWavelength&#45;&gt;ConvertUnits_Assc</title>
<path fill="none" stroke="black" d="M731.08,-252.7C715.29,-239.58 691.93,-220.17 673.36,-204.73"/>
<polygon fill="black" stroke="black" points="675.78,-202.19 665.85,-198.49 671.3,-207.58 675.78,-202.19"/>
<text text-anchor="middle" x="714.27" y="-219.2" font-family="Helvetica,sans-Serif" font-size="14.00">No</text>
</g>
<!-- Divide_CorrAssc -->
<g id="node16" class="node">
<title>Divide_CorrAssc</title>
<path fill="lightskyblue" stroke="black" d="M646.64,-108C646.64,-108 611.14,-108 611.14,-108 605.14,-108 599.14,-102 599.14,-96 599.14,-96 599.14,-84 599.14,-84 599.14,-78 605.14,-72 611.14,-72 611.14,-72 646.64,-72 646.64,-72 652.64,-72 658.64,-78 658.64,-84 658.64,-84 658.64,-96 658.64,-96 658.64,-102 652.64,-108 646.64,-108"/>
<text text-anchor="middle" x="628.89" y="-85.33" font-family="Helvetica,sans-Serif" font-size="14.00">Divide</text>
</g>
<!-- IsAsscInWavelength&#45;&gt;Divide_CorrAssc -->
<g id="edge18" class="edge">
<title>IsAsscInWavelength&#45;&gt;Divide_CorrAssc</title>
<path fill="none" stroke="black" d="M752.6,-250.52C757.86,-221.56 763.9,-162.23 734.89,-126 719.42,-106.68 693,-97.92 670.41,-94"/>
<polygon fill="black" stroke="black" points="670.91,-90.54 660.52,-92.58 669.91,-97.47 670.91,-90.54"/>
<text text-anchor="middle" x="824.14" y="-174.57" font-family="Helvetica,sans-Serif" font-size="14.00">Yes, RHSWorkspace</text>
</g>
<!-- SampleWorkspace -->
<g id="node4" class="node">
<title>SampleWorkspace</title>
<ellipse fill="khaki" stroke="black" cx="312.89" cy="-268.5" rx="100.66" ry="18"/>
<text text-anchor="middle" x="312.89" y="-263.82" font-family="Helvetica,sans-Serif" font-size="14.00">SampleWorkspace</text>
</g>
<!-- Minus -->
<g id="node10" class="node">
<title>Minus</title>
<path fill="lightskyblue" stroke="black" d="M483.52,-197.25C483.52,-197.25 450.27,-197.25 450.27,-197.25 444.27,-197.25 438.27,-191.25 438.27,-185.25 438.27,-185.25 438.27,-173.25 438.27,-173.25 438.27,-167.25 444.27,-161.25 450.27,-161.25 450.27,-161.25 483.52,-161.25 483.52,-161.25 489.52,-161.25 495.52,-167.25 495.52,-173.25 495.52,-173.25 495.52,-185.25 495.52,-185.25 495.52,-191.25 489.52,-197.25 483.52,-197.25"/>
<text text-anchor="middle" x="466.89" y="-174.57" font-family="Helvetica,sans-Serif" font-size="14.00">Minus</text>
</g>
<!-- SampleWorkspace&#45;&gt;Minus -->
<g id="edge15" class="edge">
<title>SampleWorkspace&#45;&gt;Minus</title>
<path fill="none" stroke="black" d="M324.74,-250.29C333.37,-238.91 345.99,-224.45 360.14,-215.25 380.29,-202.16 405.77,-193.56 426.78,-188.17"/>
<polygon fill="black" stroke="black" points="427.55,-191.58 436.46,-185.84 425.92,-184.77 427.55,-191.58"/>
<text text-anchor="middle" x="412.27" y="-219.2" font-family="Helvetica,sans-Serif" font-size="14.00">LHSWorkspace</text>
</g>
<!-- CorrectionsWorkspace -->
<g id="node5" class="node">
<title>CorrectionsWorkspace</title>
<ellipse fill="khaki" stroke="black" cx="684.89" cy="-625.5" rx="119.08" ry="18"/>
<text text-anchor="middle" x="684.89" y="-620.83" font-family="Helvetica,sans-Serif" font-size="14.00">CorrectionsWorkspace</text>
</g>
<!-- CorrectionsWorkspace&#45;&gt;IsAccInWavelength -->
<g id="edge3" class="edge">
<title>CorrectionsWorkspace&#45;&gt;IsAccInWavelength</title>
<path fill="none" stroke="black" d="M605.06,-611.77C498.45,-594.76 311.22,-564.9 209.15,-548.62"/>
<polygon fill="black" stroke="black" points="209.96,-545.2 199.53,-547.08 208.86,-552.11 209.96,-545.2"/>
<text text-anchor="middle" x="475.14" y="-576.2" font-family="Helvetica,sans-Serif" font-size="14.00">Ac,c</text>
</g>
<!-- CorrectionsWorkspace&#45;&gt;IsAcscInWavelength -->
<g id="edge4" class="edge">
<title>CorrectionsWorkspace&#45;&gt;IsAcscInWavelength</title>
<path fill="none" stroke="black" d="M683.62,-607.11C681.32,-585.01 675,-546.38 657.89,-518.25 646.02,-498.72 626.99,-481.56 610.59,-469.09"/>
<polygon fill="black" stroke="black" points="612.67,-466.28 602.54,-463.21 608.54,-471.93 612.67,-466.28"/>
<text text-anchor="middle" x="690.89" y="-531.58" font-family="Helvetica,sans-Serif" font-size="14.00">Ac,sc</text>
</g>
<!-- CorrectionsWorkspace&#45;&gt;IsAsscInWavelength -->
<g id="edge5" class="edge">
<title>CorrectionsWorkspace&#45;&gt;IsAsscInWavelength</title>
<path fill="none" stroke="black" d="M709.44,-607.45C728.92,-591.73 752.89,-566.44 752.89,-537.25 752.89,-537.25 752.89,-537.25 752.89,-356.75 752.89,-337.11 751.87,-315 750.86,-297.95"/>
<polygon fill="black" stroke="black" points="754.36,-297.81 750.23,-288.05 747.37,-298.25 754.36,-297.81"/>
<text text-anchor="middle" x="771.27" y="-442.32" font-family="Helvetica,sans-Serif" font-size="14.00">As,sc</text>
</g>
<!-- CanWorkspace -->
<g id="node6" class="node">
<title>CanWorkspace</title>
<ellipse fill="khaki" stroke="black" cx="376.89" cy="-536.25" rx="83.3" ry="18"/>
<text text-anchor="middle" x="376.89" y="-531.58" font-family="Helvetica,sans-Serif" font-size="14.00">CanWorkspace</text>
</g>
<!-- Scale -->
<g id="node9" class="node">
<title>Scale</title>
<path fill="lightskyblue" stroke="black" d="M410.89,-465C410.89,-465 380.89,-465 380.89,-465 374.89,-465 368.89,-459 368.89,-453 368.89,-453 368.89,-441 368.89,-441 368.89,-435 374.89,-429 380.89,-429 380.89,-429 410.89,-429 410.89,-429 416.89,-429 422.89,-435 422.89,-441 422.89,-441 422.89,-453 422.89,-453 422.89,-459 416.89,-465 410.89,-465"/>
<text text-anchor="middle" x="395.89" y="-442.32" font-family="Helvetica,sans-Serif" font-size="14.00">Scale</text>
</g>
<!-- CanWorkspace&#45;&gt;Scale -->
<g id="edge1" class="edge">
<title>CanWorkspace&#45;&gt;Scale</title>
<path fill="none" stroke="black" d="M380.65,-518.01C383.25,-506.06 386.77,-489.88 389.78,-476.08"/>
<polygon fill="black" stroke="black" points="393.12,-477.2 391.83,-466.68 386.28,-475.71 393.12,-477.2"/>
</g>
<!-- CanScaleFactor -->
<g id="node7" class="node">
<title>CanScaleFactor</title>
<ellipse fill="khaki" stroke="black" cx="563.89" cy="-536.25" rx="85.41" ry="18"/>
<text text-anchor="middle" x="563.89" y="-531.58" font-family="Helvetica,sans-Serif" font-size="14.00">CanScaleFactor</text>
</g>
<!-- CanScaleFactor&#45;&gt;Scale -->
<g id="edge2" class="edge">
<title>CanScaleFactor&#45;&gt;Scale</title>
<path fill="none" stroke="black" d="M532.69,-519.04C504.59,-504.45 463.24,-482.98 433.37,-467.46"/>
<polygon fill="black" stroke="black" points="435.15,-464.44 424.66,-462.94 431.92,-470.66 435.15,-464.44"/>
</g>
<!-- OutputWorkspace -->
<g id="node8" class="node">
<title>OutputWorkspace</title>
<ellipse fill="khaki" stroke="black" cx="628.89" cy="-18" rx="98.56" ry="18"/>
<text text-anchor="middle" x="628.89" y="-13.32" font-family="Helvetica,sans-Serif" font-size="14.00">OutputWorkspace</text>
</g>
<!-- Scale&#45;&gt;Divide_CanAcc -->
<g id="edge9" class="edge">
<title>Scale&#45;&gt;Divide_CanAcc</title>
<path fill="none" stroke="black" d="M368.72,-430.4C345.1,-416.84 310.56,-397.01 283.79,-381.65"/>
<polygon fill="black" stroke="black" points="285.69,-378.7 275.27,-376.76 282.2,-384.77 285.69,-378.7"/>
<text text-anchor="middle" x="385.27" y="-397.7" font-family="Helvetica,sans-Serif" font-size="14.00">LHSWorkspace</text>
</g>
<!-- Minus&#45;&gt;Divide_CorrAssc -->
<g id="edge17" class="edge">
<title>Minus&#45;&gt;Divide_CorrAssc</title>
<path fill="none" stroke="black" d="M480.66,-161.07C490.57,-149.71 504.85,-135.25 520.14,-126 540.86,-113.48 566.55,-104.94 587.75,-99.43"/>
<polygon fill="black" stroke="black" points="588.35,-102.89 597.23,-97.11 586.68,-96.09 588.35,-102.89"/>
<text text-anchor="middle" x="571.27" y="-129.95" font-family="Helvetica,sans-Serif" font-size="14.00">LHSWorkspace</text>
</g>
<!-- Multiply&#45;&gt;Minus -->
<g id="edge16" class="edge">
<title>Multiply&#45;&gt;Minus</title>
<path fill="none" stroke="black" d="M466.89,-250.26C466.89,-238.43 466.89,-222.45 466.89,-208.75"/>
<polygon fill="black" stroke="black" points="470.39,-208.97 466.89,-198.97 463.39,-208.97 470.39,-208.97"/>
<text text-anchor="middle" x="519.39" y="-219.2" font-family="Helvetica,sans-Serif" font-size="14.00">RHSWorkspace</text>
</g>
<!-- ConvertUnits_Acc&#45;&gt;Divide_CanAcc -->
<g id="edge11" class="edge">
<title>ConvertUnits_Acc&#45;&gt;Divide_CanAcc</title>
<path fill="none" stroke="black" d="M97.84,-428.95C91.65,-417.93 86.92,-403.81 94.89,-393.75 108.12,-377.06 163.2,-367.55 202.54,-362.77"/>
<polygon fill="black" stroke="black" points="202.88,-366.25 212.42,-361.63 202.09,-359.3 202.88,-366.25"/>
<text text-anchor="middle" x="147.39" y="-397.7" font-family="Helvetica,sans-Serif" font-size="14.00">RHSWorkspace</text>
</g>
<!-- ConvertUnits_Acsc&#45;&gt;Multiply -->
<g id="edge14" class="edge">
<title>ConvertUnits_Acsc&#45;&gt;Multiply</title>
<path fill="none" stroke="black" d="M469.42,-339.34C467.16,-333.85 465.03,-327.66 463.89,-321.75 462.41,-314.05 462.27,-305.6 462.73,-297.78"/>
<polygon fill="black" stroke="black" points="466.19,-298.38 463.66,-288.09 459.22,-297.71 466.19,-298.38"/>
<text text-anchor="middle" x="516.39" y="-308.45" font-family="Helvetica,sans-Serif" font-size="14.00">RHSWorkspace</text>
</g>
<!-- ConvertUnits_Assc&#45;&gt;Divide_CorrAssc -->
<g id="edge19" class="edge">
<title>ConvertUnits_Assc&#45;&gt;Divide_CorrAssc</title>
<path fill="none" stroke="black" d="M635.49,-160.83C633.23,-155.33 631.09,-149.15 629.89,-143.25 628.36,-135.66 627.73,-127.33 627.59,-119.59"/>
<polygon fill="black" stroke="black" points="631.09,-119.65 627.67,-109.63 624.09,-119.6 631.09,-119.65"/>
<text text-anchor="middle" x="682.39" y="-129.95" font-family="Helvetica,sans-Serif" font-size="14.00">RHSWorkspace</text>
</g>
<!-- Divide_CanAcc&#45;&gt;Multiply -->
<g id="edge12" class="edge">
<title>Divide_CanAcc&#45;&gt;Multiply</title>
<path fill="none" stroke="black" d="M273.79,-341.11C296.07,-329.89 327.47,-314.95 356.14,-304.5 382.08,-295.05 391.72,-295.76 420.81,-286.94"/>
<polygon fill="black" stroke="black" points="421.55,-290.38 430.03,-284.01 419.43,-283.7 421.55,-290.38"/>
<text text-anchor="middle" x="408.27" y="-308.45" font-family="Helvetica,sans-Serif" font-size="14.00">LHSWorkspace</text>
</g>
<!-- Divide_CorrAssc&#45;&gt;OutputWorkspace -->
<g id="edge20" class="edge">
<title>Divide_CorrAssc&#45;&gt;OutputWorkspace</title>
<path fill="none" stroke="black" d="M628.89,-71.7C628.89,-64.41 628.89,-55.73 628.89,-47.54"/>
<polygon fill="black" stroke="black" points="632.39,-47.62 628.89,-37.62 625.39,-47.62 632.39,-47.62"/>
</g>
</g>
</svg>
