<?xml version="1.0" encoding="UTF-8" standalone="no"?>
<!DOCTYPE svg PUBLIC "-//W3C//DTD SVG 1.1//EN"
 "http://www.w3.org/Graphics/SVG/1.1/DTD/svg11.dtd">
<!-- Generated by graphviz version 13.1.2 (20250809.0930)
 -->
<!-- Title: ConvertHFIRSCDtoMDE Pages: 1 -->
<svg width="1184pt" height="1068pt"
 viewBox="0.00 0.00 1184.00 1068.00" xmlns="http://www.w3.org/2000/svg" xmlns:xlink="http://www.w3.org/1999/xlink">
<g id="graph0" class="graph" transform="scale(1 1) rotate(0) translate(4 1064.25)">
<title>ConvertHFIRSCDtoMDE</title>
<polygon fill="white" stroke="none" points="-4,4 -4,-1064.25 1179.86,-1064.25 1179.86,4 -4,4"/>
<!-- inputWs -->
<g id="node1" class="node">
<title>inputWs</title>
<ellipse fill="khaki" stroke="black" cx="640.18" cy="-1018.25" rx="93.3" ry="18"/>
<text xml:space="preserve" text-anchor="middle" x="640.18" y="-1013.58" font-family="Helvetica,sans-Serif" font-size="14.00">Input Workspace</text>
</g>
<!-- intensities -->
<g id="node10" class="node">
<title>intensities</title>
<ellipse fill="khaki" stroke="black" cx="768.18" cy="-891.25" rx="104.87" ry="18"/>
<text xml:space="preserve" text-anchor="middle" x="768.18" y="-886.58" font-family="Helvetica,sans-Serif" font-size="14.00">detector intensities</text>
</g>
<!-- inputWs&#45;&gt;intensities -->
<g id="edge18" class="edge">
<title>inputWs&#45;&gt;intensities</title>
<path fill="none" stroke="black" d="M657.71,-1000.13C679.73,-978.63 717.68,-941.57 742.86,-916.98"/>
<polygon fill="black" stroke="black" points="745.07,-919.71 749.78,-910.22 740.18,-914.7 745.07,-919.71"/>
</g>
<!-- expInfo -->
<g id="node11" class="node">
<title>expInfo</title>
<ellipse fill="khaki" stroke="black" cx="640.18" cy="-764.25" rx="89.61" ry="18"/>
<text xml:space="preserve" text-anchor="middle" x="640.18" y="-759.58" font-family="Helvetica,sans-Serif" font-size="14.00">Experiment Info</text>
</g>
<!-- inputWs&#45;&gt;expInfo -->
<g id="edge14" class="edge">
<title>inputWs&#45;&gt;expInfo</title>
<path fill="none" stroke="black" d="M640.18,-999.93C640.18,-957.22 640.18,-846.52 640.18,-793.88"/>
<polygon fill="black" stroke="black" points="643.68,-794.21 640.18,-784.21 636.68,-794.21 643.68,-794.21"/>
</g>
<!-- polarsLogged -->
<g id="node15" class="node">
<title>polarsLogged</title>
<polygon fill="limegreen" stroke="black" points="371.18,-963.25 184.92,-945.25 371.18,-927.25 557.44,-945.25 371.18,-963.25"/>
<text xml:space="preserve" text-anchor="middle" x="371.18" y="-940.58" font-family="Helvetica,sans-Serif" font-size="14.00">Are Polar angles logged?</text>
</g>
<!-- inputWs&#45;&gt;polarsLogged -->
<g id="edge1" class="edge">
<title>inputWs&#45;&gt;polarsLogged</title>
<path fill="none" stroke="black" d="M586.71,-1003.14C541.61,-991.23 477.11,-974.21 430.44,-961.89"/>
<polygon fill="black" stroke="black" points="431.6,-958.58 421.04,-959.41 429.82,-965.35 431.6,-958.58"/>
</g>
<!-- azim_twoth -->
<g id="node2" class="node">
<title>azim_twoth</title>
<ellipse fill="khaki" stroke="black" cx="222.18" cy="-764.25" rx="108.03" ry="18"/>
<text xml:space="preserve" text-anchor="middle" x="222.18" y="-759.58" font-family="Helvetica,sans-Serif" font-size="14.00">azimuthal, twotheta</text>
</g>
<!-- q_lab -->
<g id="node5" class="node">
<title>q_lab</title>
<ellipse fill="khaki" stroke="black" cx="121.18" cy="-691.25" rx="121.18" ry="18"/>
<text xml:space="preserve" text-anchor="middle" x="121.18" y="-686.58" font-family="Helvetica,sans-Serif" font-size="14.00">detector Q_lab vectors</text>
</g>
<!-- azim_twoth&#45;&gt;q_lab -->
<g id="edge6" class="edge">
<title>azim_twoth&#45;&gt;q_lab</title>
<path fill="none" stroke="black" d="M197.99,-746.24C185.09,-737.18 169.02,-725.88 154.91,-715.96"/>
<polygon fill="black" stroke="black" points="156.96,-713.12 146.76,-710.23 152.93,-718.85 156.96,-713.12"/>
</g>
<!-- lorentz -->
<g id="node7" class="node">
<title>lorentz</title>
<ellipse fill="khaki" stroke="black" cx="367.18" cy="-691.25" rx="106.98" ry="18"/>
<text xml:space="preserve" text-anchor="middle" x="367.18" y="-686.58" font-family="Helvetica,sans-Serif" font-size="14.00">Lorentz Coefficients</text>
</g>
<!-- azim_twoth&#45;&gt;lorentz -->
<g id="edge8" class="edge">
<title>azim_twoth&#45;&gt;lorentz</title>
<path fill="none" stroke="black" d="M255.81,-746.78C275.87,-736.96 301.57,-724.38 323.22,-713.78"/>
<polygon fill="black" stroke="black" points="324.68,-716.96 332.12,-709.42 321.6,-710.67 324.68,-716.96"/>
</g>
<!-- min_max -->
<g id="node3" class="node">
<title>min_max</title>
<ellipse fill="khaki" stroke="black" cx="974.18" cy="-764.25" rx="118.02" ry="18"/>
<text xml:space="preserve" text-anchor="middle" x="974.18" y="-759.58" font-family="Helvetica,sans-Serif" font-size="14.00">Minvalues, MaxValues</text>
</g>
<!-- CreateMDWorkspace -->
<g id="node16" class="node">
<title>CreateMDWorkspace</title>
<path fill="lightskyblue" stroke="black" d="M1044.43,-709.25C1044.43,-709.25 903.93,-709.25 903.93,-709.25 897.93,-709.25 891.93,-703.25 891.93,-697.25 891.93,-697.25 891.93,-685.25 891.93,-685.25 891.93,-679.25 897.93,-673.25 903.93,-673.25 903.93,-673.25 1044.43,-673.25 1044.43,-673.25 1050.43,-673.25 1056.43,-679.25 1056.43,-685.25 1056.43,-685.25 1056.43,-697.25 1056.43,-697.25 1056.43,-703.25 1050.43,-709.25 1044.43,-709.25"/>
<text xml:space="preserve" text-anchor="middle" x="974.18" y="-686.58" font-family="Helvetica,sans-Serif" font-size="14.00">CreateMDWorkspace)</text>
</g>
<!-- min_max&#45;&gt;CreateMDWorkspace -->
<g id="edge11" class="edge">
<title>min_max&#45;&gt;CreateMDWorkspace</title>
<path fill="none" stroke="black" d="M974.18,-746.06C974.18,-738.48 974.18,-729.35 974.18,-720.79"/>
<polygon fill="black" stroke="black" points="977.68,-720.79 974.18,-710.79 970.68,-720.79 977.68,-720.79"/>
</g>
<!-- outputWsEmpty -->
<g id="node4" class="node">
<title>outputWsEmpty</title>
<ellipse fill="khaki" stroke="black" cx="974.18" cy="-618.25" rx="201.68" ry="18"/>
<text xml:space="preserve" text-anchor="middle" x="974.18" y="-613.58" font-family="Helvetica,sans-Serif" font-size="14.00">Output Workspace (Empty, Single Box)</text>
</g>
<!-- insert_events -->
<g id="node21" class="node">
<title>insert_events</title>
<polygon fill="lightseagreen" stroke="black" points="695.93,-563.25 588.43,-563.25 588.43,-527.25 695.93,-527.25 695.93,-563.25"/>
<text xml:space="preserve" text-anchor="middle" x="642.18" y="-540.58" font-family="Helvetica,sans-Serif" font-size="14.00">Insert events</text>
</g>
<!-- outputWsEmpty&#45;&gt;insert_events -->
<g id="edge13" class="edge">
<title>outputWsEmpty&#45;&gt;insert_events</title>
<path fill="none" stroke="black" d="M898.84,-601.14C841.12,-588.79 762.3,-571.94 707.29,-560.17"/>
<polygon fill="black" stroke="black" points="708.27,-556.8 697.76,-558.14 706.8,-563.65 708.27,-556.8"/>
</g>
<!-- q_sample -->
<g id="node9" class="node">
<title>q_sample</title>
<ellipse fill="khaki" stroke="black" cx="413.18" cy="-618.25" rx="141.7" ry="18"/>
<text xml:space="preserve" text-anchor="middle" x="413.18" y="-613.58" font-family="Helvetica,sans-Serif" font-size="14.00">detector Q_sample vectors</text>
</g>
<!-- q_lab&#45;&gt;q_sample -->
<g id="edge7" class="edge">
<title>q_lab&#45;&gt;q_sample</title>
<path fill="none" stroke="black" d="M182.39,-675.37C227.85,-664.31 290.09,-649.18 338.48,-637.41"/>
<polygon fill="black" stroke="black" points="339.16,-640.85 348.05,-635.09 337.51,-634.05 339.16,-640.85"/>
</g>
<!-- wavelength -->
<g id="node6" class="node">
<title>wavelength</title>
<ellipse fill="khaki" stroke="black" cx="416.18" cy="-764.25" rx="67.52" ry="18"/>
<text xml:space="preserve" text-anchor="middle" x="416.18" y="-759.58" font-family="Helvetica,sans-Serif" font-size="14.00">wavelength</text>
</g>
<!-- wavelength&#45;&gt;lorentz -->
<g id="edge9" class="edge">
<title>wavelength&#45;&gt;lorentz</title>
<path fill="none" stroke="black" d="M404.32,-746.06C398.66,-737.87 391.77,-727.87 385.46,-718.73"/>
<polygon fill="black" stroke="black" points="388.35,-716.77 379.79,-710.52 382.59,-720.74 388.35,-716.77"/>
</g>
<!-- correct_intensities -->
<g id="node22" class="node">
<title>correct_intensities</title>
<polygon fill="lightseagreen" stroke="black" points="715.18,-636.25 573.18,-636.25 573.18,-600.25 715.18,-600.25 715.18,-636.25"/>
<text xml:space="preserve" text-anchor="middle" x="644.18" y="-613.58" font-family="Helvetica,sans-Serif" font-size="14.00">Correct Intensities</text>
</g>
<!-- lorentz&#45;&gt;correct_intensities -->
<g id="edge10" class="edge">
<title>lorentz&#45;&gt;correct_intensities</title>
<path fill="none" stroke="black" d="M424.24,-675.62C464.91,-665.2 520.12,-651.05 565.05,-639.53"/>
<polygon fill="black" stroke="black" points="565.66,-642.99 574.47,-637.12 563.92,-636.21 565.66,-642.99"/>
</g>
<!-- goniometer -->
<g id="node8" class="node">
<title>goniometer</title>
<ellipse fill="khaki" stroke="black" cx="604.18" cy="-691.25" rx="112.24" ry="18"/>
<text xml:space="preserve" text-anchor="middle" x="604.18" y="-686.58" font-family="Helvetica,sans-Serif" font-size="14.00">Goniometer Matrices</text>
</g>
<!-- goniometer&#45;&gt;q_sample -->
<g id="edge16" class="edge">
<title>goniometer&#45;&gt;q_sample</title>
<path fill="none" stroke="black" d="M561.32,-674.32C533.79,-664.08 497.78,-650.7 468.16,-639.69"/>
<polygon fill="black" stroke="black" points="469.57,-636.48 458.98,-636.27 467.13,-643.04 469.57,-636.48"/>
</g>
<!-- q_sample&#45;&gt;insert_events -->
<g id="edge17" class="edge">
<title>q_sample&#45;&gt;insert_events</title>
<path fill="none" stroke="black" d="M465.43,-601.05C498.69,-590.74 542.01,-577.31 577.44,-566.32"/>
<polygon fill="black" stroke="black" points="578.21,-569.75 586.72,-563.45 576.13,-563.06 578.21,-569.75"/>
</g>
<!-- intensities&#45;&gt;correct_intensities -->
<g id="edge19" class="edge">
<title>intensities&#45;&gt;correct_intensities</title>
<path fill="none" stroke="black" d="M772.53,-872.98C776.64,-855.14 782.18,-826.43 782.18,-801.25 782.18,-801.25 782.18,-801.25 782.18,-690.25 782.18,-660.25 756.08,-642.92 726.59,-632.91"/>
<polygon fill="black" stroke="black" points="727.64,-629.57 717.05,-629.98 725.59,-636.26 727.64,-629.57"/>
</g>
<!-- expInfo&#45;&gt;goniometer -->
<g id="edge15" class="edge">
<title>expInfo&#45;&gt;goniometer</title>
<path fill="none" stroke="black" d="M631.47,-746.06C627.4,-738.04 622.46,-728.3 617.91,-719.32"/>
<polygon fill="black" stroke="black" points="621.14,-717.96 613.5,-710.63 614.9,-721.13 621.14,-717.96"/>
</g>
<!-- insertExpInfo -->
<g id="node24" class="node">
<title>insertExpInfo</title>
<polygon fill="lightseagreen" stroke="black" points="712.56,-271.25 539.81,-271.25 539.81,-235.25 712.56,-235.25 712.56,-271.25"/>
<text xml:space="preserve" text-anchor="middle" x="626.18" y="-248.57" font-family="Helvetica,sans-Serif" font-size="14.00">Insert Experiment Info</text>
</g>
<!-- expInfo&#45;&gt;insertExpInfo -->
<g id="edge24" class="edge">
<title>expInfo&#45;&gt;insertExpInfo</title>
<path fill="none" stroke="black" d="M691.27,-749.11C717.57,-738.4 744.18,-720.56 744.18,-692.25 744.18,-692.25 744.18,-692.25 744.18,-325.25 744.18,-302.75 728.24,-287.2 708.07,-276.53"/>
<polygon fill="black" stroke="black" points="709.78,-273.47 699.25,-272.32 706.77,-279.79 709.78,-273.47"/>
</g>
<!-- outputWsSingleBox -->
<g id="node12" class="node">
<title>outputWsSingleBox</title>
<ellipse fill="khaki" stroke="black" cx="540.18" cy="-472.25" rx="163.8" ry="18"/>
<text xml:space="preserve" text-anchor="middle" x="540.18" y="-467.57" font-family="Helvetica,sans-Serif" font-size="14.00">Output Workspace (Single Box)</text>
</g>
<!-- splitBox -->
<g id="node23" class="node">
<title>splitBox</title>
<polygon fill="lightseagreen" stroke="black" points="602.31,-417.25 428.06,-417.25 428.06,-381.25 602.31,-381.25 602.31,-417.25"/>
<text xml:space="preserve" text-anchor="middle" x="515.18" y="-394.57" font-family="Helvetica,sans-Serif" font-size="14.00">Split MD Box if needed</text>
</g>
<!-- outputWsSingleBox&#45;&gt;splitBox -->
<g id="edge22" class="edge">
<title>outputWsSingleBox&#45;&gt;splitBox</title>
<path fill="none" stroke="black" d="M534.13,-454.06C531.37,-446.21 528.02,-436.72 524.92,-427.91"/>
<polygon fill="black" stroke="black" points="528.3,-426.98 521.68,-418.71 521.7,-429.3 528.3,-426.98"/>
</g>
<!-- outputWsNoExpInfo -->
<g id="node13" class="node">
<title>outputWsNoExpInfo</title>
<ellipse fill="khaki" stroke="black" cx="509.18" cy="-326.25" rx="206.94" ry="18"/>
<text xml:space="preserve" text-anchor="middle" x="509.18" y="-321.57" font-family="Helvetica,sans-Serif" font-size="14.00">Output Workspace (No Experiment Info)</text>
</g>
<!-- outputWsNoExpInfo&#45;&gt;insertExpInfo -->
<g id="edge25" class="edge">
<title>outputWsNoExpInfo&#45;&gt;insertExpInfo</title>
<path fill="none" stroke="black" d="M537.5,-308.06C552.77,-298.8 571.81,-287.25 588.33,-277.22"/>
<polygon fill="black" stroke="black" points="589.69,-280.49 596.42,-272.31 586.05,-274.51 589.69,-280.49"/>
</g>
<!-- outputWs -->
<g id="node14" class="node">
<title>outputWs</title>
<ellipse fill="khaki" stroke="black" cx="626.18" cy="-18" rx="101.71" ry="18"/>
<text xml:space="preserve" text-anchor="middle" x="626.18" y="-13.32" font-family="Helvetica,sans-Serif" font-size="14.00">Output Workspace</text>
</g>
<!-- collect_polars -->
<g id="node19" class="node">
<title>collect_polars</title>
<polygon fill="lightseagreen" stroke="black" points="268.06,-855.25 176.31,-855.25 176.31,-819.25 268.06,-819.25 268.06,-855.25"/>
<text xml:space="preserve" text-anchor="middle" x="222.18" y="-832.58" font-family="Helvetica,sans-Serif" font-size="14.00">Query logs</text>
</g>
<!-- polarsLogged&#45;&gt;collect_polars -->
<g id="edge2" class="edge">
<title>polarsLogged&#45;&gt;collect_polars</title>
<path fill="none" stroke="black" d="M349.83,-929.06C325.32,-911.63 284.8,-882.8 255.99,-862.3"/>
<polygon fill="black" stroke="black" points="258.12,-859.52 247.94,-856.58 254.06,-865.23 258.12,-859.52"/>
<text xml:space="preserve" text-anchor="middle" x="330.73" y="-886.58" font-family="Helvetica,sans-Serif" font-size="14.00">yes</text>
</g>
<!-- calculate_polars -->
<g id="node20" class="node">
<title>calculate_polars</title>
<polygon fill="lightseagreen" stroke="black" points="456.06,-855.25 286.31,-855.25 286.31,-819.25 456.06,-819.25 456.06,-855.25"/>
<text xml:space="preserve" text-anchor="middle" x="371.18" y="-832.58" font-family="Helvetica,sans-Serif" font-size="14.00">Calculate polar angles</text>
</g>
<!-- polarsLogged&#45;&gt;calculate_polars -->
<g id="edge3" class="edge">
<title>polarsLogged&#45;&gt;calculate_polars</title>
<path fill="none" stroke="black" d="M371.18,-927.22C371.18,-911.01 371.18,-886.31 371.18,-867.04"/>
<polygon fill="black" stroke="black" points="374.68,-867.1 371.18,-857.1 367.68,-867.1 374.68,-867.1"/>
<text xml:space="preserve" text-anchor="middle" x="379.81" y="-886.58" font-family="Helvetica,sans-Serif" font-size="14.00">no</text>
</g>
<!-- CreateMDWorkspace&#45;&gt;outputWsEmpty -->
<g id="edge12" class="edge">
<title>CreateMDWorkspace&#45;&gt;outputWsEmpty</title>
<path fill="none" stroke="black" d="M974.18,-673.06C974.18,-665.48 974.18,-656.35 974.18,-647.79"/>
<polygon fill="black" stroke="black" points="977.68,-647.79 974.18,-637.79 970.68,-647.79 977.68,-647.79"/>
</g>
<!-- convention -->
<g id="node17" class="node">
<title>convention</title>
<path fill="lightskyblue" stroke="black" d="M816.43,-198.25C816.43,-198.25 435.93,-198.25 435.93,-198.25 429.93,-198.25 423.93,-192.25 423.93,-186.25 423.93,-186.25 423.93,-174.25 423.93,-174.25 423.93,-168.25 429.93,-162.25 435.93,-162.25 435.93,-162.25 816.43,-162.25 816.43,-162.25 822.43,-162.25 828.43,-168.25 828.43,-174.25 828.43,-174.25 828.43,-186.25 828.43,-186.25 828.43,-192.25 822.43,-198.25 816.43,-198.25"/>
<text xml:space="preserve" text-anchor="middle" x="626.18" y="-175.57" font-family="Helvetica,sans-Serif" font-size="14.00">Crystallographic Convention same as User&#39;s requested?</text>
</g>
<!-- convention&#45;&gt;outputWs -->
<g id="edge28" class="edge">
<title>convention&#45;&gt;outputWs</title>
<path fill="none" stroke="black" d="M637.17,-162.02C649.16,-141.06 665.6,-104.56 657.18,-73 654.65,-63.49 650,-53.92 645.06,-45.54"/>
<polygon fill="black" stroke="black" points="648.12,-43.83 639.82,-37.25 642.2,-47.57 648.12,-43.83"/>
<text xml:space="preserve" text-anchor="middle" x="671.48" y="-86.33" font-family="Helvetica,sans-Serif" font-size="14.00">yes</text>
</g>
<!-- ChangeQConvention -->
<g id="node18" class="node">
<title>ChangeQConvention</title>
<path fill="lightskyblue" stroke="black" d="M635.81,-109C635.81,-109 500.56,-109 500.56,-109 494.56,-109 488.56,-103 488.56,-97 488.56,-97 488.56,-85 488.56,-85 488.56,-79 494.56,-73 500.56,-73 500.56,-73 635.81,-73 635.81,-73 641.81,-73 647.81,-79 647.81,-85 647.81,-85 647.81,-97 647.81,-97 647.81,-103 641.81,-109 635.81,-109"/>
<text xml:space="preserve" text-anchor="middle" x="568.18" y="-86.33" font-family="Helvetica,sans-Serif" font-size="14.00">ChangeQConvention</text>
</g>
<!-- convention&#45;&gt;ChangeQConvention -->
<g id="edge27" class="edge">
<title>convention&#45;&gt;ChangeQConvention</title>
<path fill="none" stroke="black" d="M614.72,-162.01C606.46,-149.58 595.16,-132.58 585.76,-118.44"/>
<polygon fill="black" stroke="black" points="588.9,-116.85 580.45,-110.46 583.07,-120.73 588.9,-116.85"/>
<text xml:space="preserve" text-anchor="middle" x="611" y="-130.95" font-family="Helvetica,sans-Serif" font-size="14.00">no</text>
</g>
<!-- ChangeQConvention&#45;&gt;outputWs -->
<g id="edge29" class="edge">
<title>ChangeQConvention&#45;&gt;outputWs</title>
<path fill="none" stroke="black" d="M582.22,-72.81C589.06,-64.44 597.43,-54.2 605.02,-44.9"/>
<polygon fill="black" stroke="black" points="607.7,-47.16 611.31,-37.2 602.28,-42.73 607.7,-47.16"/>
</g>
<!-- collect_polars&#45;&gt;azim_twoth -->
<g id="edge4" class="edge">
<title>collect_polars&#45;&gt;azim_twoth</title>
<path fill="none" stroke="black" d="M222.18,-819.06C222.18,-811.48 222.18,-802.35 222.18,-793.79"/>
<polygon fill="black" stroke="black" points="225.68,-793.79 222.18,-783.79 218.68,-793.79 225.68,-793.79"/>
</g>
<!-- calculate_polars&#45;&gt;azim_twoth -->
<g id="edge5" class="edge">
<title>calculate_polars&#45;&gt;azim_twoth</title>
<path fill="none" stroke="black" d="M334.73,-818.88C314.3,-809.14 288.64,-796.92 266.99,-786.6"/>
<polygon fill="black" stroke="black" points="268.62,-783.5 258.08,-782.36 265.61,-789.82 268.62,-783.5"/>
</g>
<!-- insert_events&#45;&gt;outputWsSingleBox -->
<g id="edge21" class="edge">
<title>insert_events&#45;&gt;outputWsSingleBox</title>
<path fill="none" stroke="black" d="M617.23,-526.88C604.29,-517.88 588.29,-506.74 574.24,-496.96"/>
<polygon fill="black" stroke="black" points="576.32,-494.14 566.12,-491.3 572.33,-499.89 576.32,-494.14"/>
</g>
<!-- correct_intensities&#45;&gt;insert_events -->
<g id="edge20" class="edge">
<title>correct_intensities&#45;&gt;insert_events</title>
<path fill="none" stroke="black" d="M643.7,-600.06C643.48,-592.39 643.22,-583.14 642.98,-574.49"/>
<polygon fill="black" stroke="black" points="646.48,-574.69 642.7,-564.79 639.49,-574.89 646.48,-574.69"/>
</g>
<!-- splitBox&#45;&gt;outputWsNoExpInfo -->
<g id="edge23" class="edge">
<title>splitBox&#45;&gt;outputWsNoExpInfo</title>
<path fill="none" stroke="black" d="M513.73,-381.06C513.08,-373.39 512.3,-364.14 511.57,-355.49"/>
<polygon fill="black" stroke="black" points="515.08,-355.46 510.75,-345.79 508.1,-356.05 515.08,-355.46"/>
</g>
<!-- insertExpInfo&#45;&gt;convention -->
<g id="edge26" class="edge">
<title>insertExpInfo&#45;&gt;convention</title>
<path fill="none" stroke="black" d="M626.18,-235.06C626.18,-227.48 626.18,-218.35 626.18,-209.79"/>
<polygon fill="black" stroke="black" points="629.68,-209.79 626.18,-199.79 622.68,-209.79 629.68,-209.79"/>
</g>
</g>
</svg>
