<?xml version="1.0" encoding="UTF-8" standalone="no"?>
<!DOCTYPE svg PUBLIC "-//W3C//DTD SVG 1.1//EN"
 "http://www.w3.org/Graphics/SVG/1.1/DTD/svg11.dtd">
<!-- Generated by graphviz version 11.0.0 (20240519.1550)
 -->
<!-- Title: CreateMD Pages: 1 -->
<svg width="783pt" height="810pt"
 viewBox="0.00 0.00 782.93 809.50" xmlns="http://www.w3.org/2000/svg" xmlns:xlink="http://www.w3.org/1999/xlink">
<g id="graph0" class="graph" transform="scale(1 1) rotate(0) translate(4 805.5)">
<title>CreateMD</title>
<polygon fill="white" stroke="none" points="-4,4 -4,-805.5 778.93,-805.5 778.93,4 -4,4"/>
<text text-anchor="middle" x="387.47" y="-784.2" font-family="Helvetica,sans-Serif" font-size="14.00">CreateMD Flowchart</text>
<!-- DataSources -->
<g id="node1" class="node">
<title>DataSources</title>
<ellipse fill="khaki" stroke="black" cx="268.56" cy="-758.25" rx="72.25" ry="18"/>
<text text-anchor="middle" x="268.56" y="-753.58" font-family="Helvetica,sans-Serif" font-size="14.00">DataSources</text>
</g>
<!-- load -->
<g id="node18" class="node">
<title>load</title>
<path fill="lightskyblue" stroke="black" d="M762.93,-687C762.93,-687 716.18,-687 716.18,-687 710.18,-687 704.18,-681 704.18,-675 704.18,-675 704.18,-663 704.18,-663 704.18,-657 710.18,-651 716.18,-651 716.18,-651 762.93,-651 762.93,-651 768.93,-651 774.93,-657 774.93,-663 774.93,-663 774.93,-675 774.93,-675 774.93,-681 768.93,-687 762.93,-687"/>
<text text-anchor="middle" x="739.56" y="-664.33" font-family="Helvetica,sans-Serif" font-size="14.00">Load v1</text>
</g>
<!-- DataSources&#45;&gt;load -->
<g id="edge12" class="edge">
<title>DataSources&#45;&gt;load</title>
<path fill="none" stroke="black" d="M334.56,-750.65C416.92,-741.48 561.95,-722.24 692.75,-687.5"/>
<polygon fill="black" stroke="black" points="693.54,-690.91 702.28,-684.92 691.71,-684.15 693.54,-690.91"/>
<text text-anchor="middle" x="651.31" y="-708.95" font-family="Helvetica,sans-Serif" font-size="14.00">if filename</text>
</g>
<!-- setUB -->
<g id="node19" class="node">
<title>setUB</title>
<path fill="lightskyblue" stroke="black" d="M568.81,-614C568.81,-614 512.31,-614 512.31,-614 506.31,-614 500.31,-608 500.31,-602 500.31,-602 500.31,-590 500.31,-590 500.31,-584 506.31,-578 512.31,-578 512.31,-578 568.81,-578 568.81,-578 574.81,-578 580.81,-584 580.81,-590 580.81,-590 580.81,-602 580.81,-602 580.81,-608 574.81,-614 568.81,-614"/>
<text text-anchor="middle" x="540.56" y="-591.33" font-family="Helvetica,sans-Serif" font-size="14.00">SetUB v1</text>
</g>
<!-- DataSources&#45;&gt;setUB -->
<g id="edge11" class="edge">
<title>DataSources&#45;&gt;setUB</title>
<path fill="none" stroke="black" d="M260.93,-739.96C252.06,-716.9 241.11,-676.09 261.81,-651 290.02,-616.8 416.21,-604 488.76,-599.41"/>
<polygon fill="black" stroke="black" points="488.63,-602.93 498.41,-598.84 488.22,-595.94 488.63,-602.93"/>
<text text-anchor="middle" x="306.43" y="-664.33" font-family="Helvetica,sans-Serif" font-size="14.00">if workspace</text>
</g>
<!-- EFix -->
<g id="node2" class="node">
<title>EFix</title>
<ellipse fill="khaki" stroke="black" cx="421.56" cy="-524" rx="30.69" ry="18"/>
<text text-anchor="middle" x="421.56" y="-519.33" font-family="Helvetica,sans-Serif" font-size="14.00">EFix</text>
</g>
<!-- addSampleLogEFix -->
<g id="node14" class="node">
<title>addSampleLogEFix</title>
<path fill="lightskyblue" stroke="black" d="M516.18,-470C516.18,-470 398.93,-470 398.93,-470 392.93,-470 386.93,-464 386.93,-458 386.93,-458 386.93,-446 386.93,-446 386.93,-440 392.93,-434 398.93,-434 398.93,-434 516.18,-434 516.18,-434 522.18,-434 528.18,-440 528.18,-446 528.18,-446 528.18,-458 528.18,-458 528.18,-464 522.18,-470 516.18,-470"/>
<text text-anchor="middle" x="457.56" y="-447.32" font-family="Helvetica,sans-Serif" font-size="14.00">AddSampleLog v1</text>
</g>
<!-- EFix&#45;&gt;addSampleLogEFix -->
<g id="edge3" class="edge">
<title>EFix&#45;&gt;addSampleLogEFix</title>
<path fill="none" stroke="black" d="M430.09,-506.41C434.05,-498.71 438.87,-489.34 443.36,-480.62"/>
<polygon fill="black" stroke="black" points="446.43,-482.29 447.89,-471.79 440.21,-479.08 446.43,-482.29"/>
</g>
<!-- EMode -->
<g id="node3" class="node">
<title>EMode</title>
<ellipse fill="khaki" stroke="black" cx="82.56" cy="-236" rx="43.84" ry="18"/>
<text text-anchor="middle" x="82.56" y="-231.32" font-family="Helvetica,sans-Serif" font-size="14.00">EMode</text>
</g>
<!-- convertToMD -->
<g id="node12" class="node">
<title>convertToMD</title>
<path fill="lightskyblue" stroke="black" d="M151.18,-108C151.18,-108 45.93,-108 45.93,-108 39.93,-108 33.93,-102 33.93,-96 33.93,-96 33.93,-84 33.93,-84 33.93,-78 39.93,-72 45.93,-72 45.93,-72 151.18,-72 151.18,-72 157.18,-72 163.18,-78 163.18,-84 163.18,-84 163.18,-96 163.18,-96 163.18,-102 157.18,-108 151.18,-108"/>
<text text-anchor="middle" x="98.56" y="-85.33" font-family="Helvetica,sans-Serif" font-size="14.00">ConvertToMD v1</text>
</g>
<!-- EMode&#45;&gt;convertToMD -->
<g id="edge9" class="edge">
<title>EMode&#45;&gt;convertToMD</title>
<path fill="none" stroke="black" d="M84.49,-217.63C87.19,-193.3 92.14,-148.8 95.39,-119.56"/>
<polygon fill="black" stroke="black" points="98.83,-120.26 96.45,-109.94 91.87,-119.49 98.83,-120.26"/>
</g>
<!-- convertToMDMinMaxGlobal -->
<g id="node20" class="node">
<title>convertToMDMinMaxGlobal</title>
<path fill="lightskyblue" stroke="black" d="M314.56,-181C314.56,-181 112.56,-181 112.56,-181 106.56,-181 100.56,-175 100.56,-169 100.56,-169 100.56,-157 100.56,-157 100.56,-151 106.56,-145 112.56,-145 112.56,-145 314.56,-145 314.56,-145 320.56,-145 326.56,-151 326.56,-157 326.56,-157 326.56,-169 326.56,-169 326.56,-175 320.56,-181 314.56,-181"/>
<text text-anchor="middle" x="213.56" y="-158.32" font-family="Helvetica,sans-Serif" font-size="14.00">ConvertToMDMinMaxGlobal v1</text>
</g>
<!-- EMode&#45;&gt;convertToMDMinMaxGlobal -->
<g id="edge10" class="edge">
<title>EMode&#45;&gt;convertToMDMinMaxGlobal</title>
<path fill="none" stroke="black" d="M108.13,-221.14C126.17,-211.36 150.76,-198.04 171.64,-186.72"/>
<polygon fill="black" stroke="black" points="173.1,-189.91 180.23,-182.06 169.77,-183.75 173.1,-189.91"/>
</g>
<!-- Alatt -->
<g id="node4" class="node">
<title>Alatt</title>
<ellipse fill="khaki" stroke="black" cx="392.56" cy="-669" rx="33.85" ry="18"/>
<text text-anchor="middle" x="392.56" y="-664.33" font-family="Helvetica,sans-Serif" font-size="14.00">Alatt</text>
</g>
<!-- Alatt&#45;&gt;setUB -->
<g id="edge5" class="edge">
<title>Alatt&#45;&gt;setUB</title>
<path fill="none" stroke="black" d="M417,-656.28C437.85,-646.27 468.42,-631.6 493.94,-619.36"/>
<polygon fill="black" stroke="black" points="495.29,-622.6 502.8,-615.12 492.27,-616.29 495.29,-622.6"/>
</g>
<!-- Angdeg -->
<g id="node5" class="node">
<title>Angdeg</title>
<ellipse fill="khaki" stroke="black" cx="493.56" cy="-669" rx="49.1" ry="18"/>
<text text-anchor="middle" x="493.56" y="-664.33" font-family="Helvetica,sans-Serif" font-size="14.00">Angdeg</text>
</g>
<!-- Angdeg&#45;&gt;setUB -->
<g id="edge6" class="edge">
<title>Angdeg&#45;&gt;setUB</title>
<path fill="none" stroke="black" d="M504.7,-651.17C510.08,-643.04 516.67,-633.08 522.73,-623.93"/>
<polygon fill="black" stroke="black" points="525.57,-625.98 528.17,-615.71 519.73,-622.12 525.57,-625.98"/>
</g>
<!-- u -->
<g id="node6" class="node">
<title>u</title>
<ellipse fill="khaki" stroke="black" cx="587.56" cy="-669" rx="27" ry="18"/>
<text text-anchor="middle" x="587.56" y="-664.33" font-family="Helvetica,sans-Serif" font-size="14.00">u</text>
</g>
<!-- u&#45;&gt;setUB -->
<g id="edge7" class="edge">
<title>u&#45;&gt;setUB</title>
<path fill="none" stroke="black" d="M577.13,-652.24C571.63,-643.93 564.73,-633.51 558.41,-623.96"/>
<polygon fill="black" stroke="black" points="561.39,-622.13 552.95,-615.72 555.55,-625.99 561.39,-622.13"/>
</g>
<!-- v -->
<g id="node7" class="node">
<title>v</title>
<ellipse fill="khaki" stroke="black" cx="659.56" cy="-669" rx="27" ry="18"/>
<text text-anchor="middle" x="659.56" y="-664.33" font-family="Helvetica,sans-Serif" font-size="14.00">v</text>
</g>
<!-- v&#45;&gt;setUB -->
<g id="edge8" class="edge">
<title>v&#45;&gt;setUB</title>
<path fill="none" stroke="black" d="M639.91,-656.28C623.53,-646.5 599.7,-632.29 579.48,-620.22"/>
<polygon fill="black" stroke="black" points="581.28,-617.22 570.9,-615.1 577.69,-623.23 581.28,-617.22"/>
</g>
<!-- Psi -->
<g id="node8" class="node">
<title>Psi</title>
<ellipse fill="khaki" stroke="black" cx="179.56" cy="-308" rx="27" ry="18"/>
<text text-anchor="middle" x="179.56" y="-303.32" font-family="Helvetica,sans-Serif" font-size="14.00">Psi</text>
</g>
<!-- addSampleLogPsi -->
<g id="node17" class="node">
<title>addSampleLogPsi</title>
<path fill="lightskyblue" stroke="black" d="M273.18,-254C273.18,-254 155.93,-254 155.93,-254 149.93,-254 143.93,-248 143.93,-242 143.93,-242 143.93,-230 143.93,-230 143.93,-224 149.93,-218 155.93,-218 155.93,-218 273.18,-218 273.18,-218 279.18,-218 285.18,-224 285.18,-230 285.18,-230 285.18,-242 285.18,-242 285.18,-248 279.18,-254 273.18,-254"/>
<text text-anchor="middle" x="214.56" y="-231.32" font-family="Helvetica,sans-Serif" font-size="14.00">AddSampleLog v1</text>
</g>
<!-- Psi&#45;&gt;addSampleLogPsi -->
<g id="edge4" class="edge">
<title>Psi&#45;&gt;addSampleLogPsi</title>
<path fill="none" stroke="black" d="M187.85,-290.41C191.7,-282.71 196.39,-273.34 200.75,-264.62"/>
<polygon fill="black" stroke="black" points="203.82,-266.31 205.16,-255.8 197.55,-263.18 203.82,-266.31"/>
</g>
<!-- Gl -->
<g id="node9" class="node">
<title>Gl</title>
<ellipse fill="khaki" stroke="black" cx="341.56" cy="-452" rx="27" ry="18"/>
<text text-anchor="middle" x="341.56" y="-447.32" font-family="Helvetica,sans-Serif" font-size="14.00">Gl</text>
</g>
<!-- addSampleLogGl -->
<g id="node15" class="node">
<title>addSampleLogGl</title>
<path fill="lightskyblue" stroke="black" d="M435.18,-398C435.18,-398 317.93,-398 317.93,-398 311.93,-398 305.93,-392 305.93,-386 305.93,-386 305.93,-374 305.93,-374 305.93,-368 311.93,-362 317.93,-362 317.93,-362 435.18,-362 435.18,-362 441.18,-362 447.18,-368 447.18,-374 447.18,-374 447.18,-386 447.18,-386 447.18,-392 441.18,-398 435.18,-398"/>
<text text-anchor="middle" x="376.56" y="-375.32" font-family="Helvetica,sans-Serif" font-size="14.00">AddSampleLog v1</text>
</g>
<!-- Gl&#45;&gt;addSampleLogGl -->
<g id="edge1" class="edge">
<title>Gl&#45;&gt;addSampleLogGl</title>
<path fill="none" stroke="black" d="M349.85,-434.41C353.7,-426.71 358.39,-417.34 362.75,-408.62"/>
<polygon fill="black" stroke="black" points="365.82,-410.31 367.16,-399.8 359.55,-407.18 365.82,-410.31"/>
</g>
<!-- Gs -->
<g id="node10" class="node">
<title>Gs</title>
<ellipse fill="khaki" stroke="black" cx="260.56" cy="-380" rx="27" ry="18"/>
<text text-anchor="middle" x="260.56" y="-375.32" font-family="Helvetica,sans-Serif" font-size="14.00">Gs</text>
</g>
<!-- addSampleLogGs -->
<g id="node16" class="node">
<title>addSampleLogGs</title>
<path fill="lightskyblue" stroke="black" d="M354.18,-326C354.18,-326 236.93,-326 236.93,-326 230.93,-326 224.93,-320 224.93,-314 224.93,-314 224.93,-302 224.93,-302 224.93,-296 230.93,-290 236.93,-290 236.93,-290 354.18,-290 354.18,-290 360.18,-290 366.18,-296 366.18,-302 366.18,-302 366.18,-314 366.18,-314 366.18,-320 360.18,-326 354.18,-326"/>
<text text-anchor="middle" x="295.56" y="-303.32" font-family="Helvetica,sans-Serif" font-size="14.00">AddSampleLog v1</text>
</g>
<!-- Gs&#45;&gt;addSampleLogGs -->
<g id="edge2" class="edge">
<title>Gs&#45;&gt;addSampleLogGs</title>
<path fill="none" stroke="black" d="M268.85,-362.41C272.7,-354.71 277.39,-345.34 281.75,-336.62"/>
<polygon fill="black" stroke="black" points="284.82,-338.31 286.16,-327.8 278.55,-335.18 284.82,-338.31"/>
</g>
<!-- OutputWorkspace -->
<g id="node11" class="node">
<title>OutputWorkspace</title>
<ellipse fill="khaki" stroke="black" cx="98.56" cy="-18" rx="98.56" ry="18"/>
<text text-anchor="middle" x="98.56" y="-13.32" font-family="Helvetica,sans-Serif" font-size="14.00">OutputWorkspace</text>
</g>
<!-- convertToMD&#45;&gt;OutputWorkspace -->
<g id="edge21" class="edge">
<title>convertToMD&#45;&gt;OutputWorkspace</title>
<path fill="none" stroke="black" d="M98.56,-71.7C98.56,-64.41 98.56,-55.73 98.56,-47.54"/>
<polygon fill="black" stroke="black" points="102.06,-47.62 98.56,-37.62 95.06,-47.62 102.06,-47.62"/>
</g>
<!-- setGoniometer -->
<g id="node13" class="node">
<title>setGoniometer</title>
<path fill="lightskyblue" stroke="black" d="M599.18,-542C599.18,-542 481.93,-542 481.93,-542 475.93,-542 469.93,-536 469.93,-530 469.93,-530 469.93,-518 469.93,-518 469.93,-512 475.93,-506 481.93,-506 481.93,-506 599.18,-506 599.18,-506 605.18,-506 611.18,-512 611.18,-518 611.18,-518 611.18,-530 611.18,-530 611.18,-536 605.18,-542 599.18,-542"/>
<text text-anchor="middle" x="540.56" y="-519.33" font-family="Helvetica,sans-Serif" font-size="14.00">SetGoniometer v1</text>
</g>
<!-- setGoniometer&#45;&gt;addSampleLogEFix -->
<g id="edge15" class="edge">
<title>setGoniometer&#45;&gt;addSampleLogEFix</title>
<path fill="none" stroke="black" d="M520.04,-505.7C509.97,-497.2 497.65,-486.81 486.62,-477.51"/>
<polygon fill="black" stroke="black" points="489.18,-475.09 479.28,-471.32 484.67,-480.45 489.18,-475.09"/>
</g>
<!-- addSampleLogEFix&#45;&gt;addSampleLogGl -->
<g id="edge16" class="edge">
<title>addSampleLogEFix&#45;&gt;addSampleLogGl</title>
<path fill="none" stroke="black" d="M437.54,-433.7C427.8,-425.28 415.92,-415.02 405.24,-405.79"/>
<polygon fill="black" stroke="black" points="407.63,-403.23 397.78,-399.34 403.05,-408.52 407.63,-403.23"/>
</g>
<!-- addSampleLogGl&#45;&gt;addSampleLogGs -->
<g id="edge17" class="edge">
<title>addSampleLogGl&#45;&gt;addSampleLogGs</title>
<path fill="none" stroke="black" d="M356.54,-361.7C346.8,-353.28 334.92,-343.02 324.24,-333.79"/>
<polygon fill="black" stroke="black" points="326.63,-331.23 316.78,-327.34 322.05,-336.52 326.63,-331.23"/>
</g>
<!-- addSampleLogGs&#45;&gt;addSampleLogPsi -->
<g id="edge18" class="edge">
<title>addSampleLogGs&#45;&gt;addSampleLogPsi</title>
<path fill="none" stroke="black" d="M275.54,-289.7C265.8,-281.28 253.92,-271.02 243.24,-261.79"/>
<polygon fill="black" stroke="black" points="245.63,-259.23 235.78,-255.34 241.05,-264.52 245.63,-259.23"/>
</g>
<!-- addSampleLogPsi&#45;&gt;convertToMDMinMaxGlobal -->
<g id="edge19" class="edge">
<title>addSampleLogPsi&#45;&gt;convertToMDMinMaxGlobal</title>
<path fill="none" stroke="black" d="M214.32,-217.81C214.21,-210.23 214.08,-201.1 213.96,-192.54"/>
<polygon fill="black" stroke="black" points="217.46,-192.49 213.82,-182.54 210.46,-192.59 217.46,-192.49"/>
</g>
<!-- load&#45;&gt;setUB -->
<g id="edge13" class="edge">
<title>load&#45;&gt;setUB</title>
<path fill="none" stroke="black" d="M704.05,-654.17C701.18,-653.08 698.33,-652.02 695.56,-651 661.13,-638.36 622.15,-624.78 591.89,-614.4"/>
<polygon fill="black" stroke="black" points="593.18,-611.15 582.59,-611.22 590.92,-617.77 593.18,-611.15"/>
</g>
<!-- setUB&#45;&gt;setGoniometer -->
<g id="edge14" class="edge">
<title>setUB&#45;&gt;setGoniometer</title>
<path fill="none" stroke="black" d="M540.56,-577.7C540.56,-570.41 540.56,-561.73 540.56,-553.54"/>
<polygon fill="black" stroke="black" points="544.06,-553.62 540.56,-543.62 537.06,-553.62 544.06,-553.62"/>
</g>
<!-- convertToMDMinMaxGlobal&#45;&gt;convertToMD -->
<g id="edge20" class="edge">
<title>convertToMDMinMaxGlobal&#45;&gt;convertToMD</title>
<path fill="none" stroke="black" d="M185.43,-144.63C170.67,-135.52 152.38,-124.23 136.4,-114.36"/>
<polygon fill="black" stroke="black" points="138.43,-111.51 128.09,-109.23 134.76,-117.46 138.43,-111.51"/>
</g>
</g>
</svg>
