<?xml version="1.0" encoding="UTF-8" standalone="no"?>
<!DOCTYPE svg PUBLIC "-//W3C//DTD SVG 1.1//EN"
 "http://www.w3.org/Graphics/SVG/1.1/DTD/svg11.dtd">
<!-- Generated by graphviz version 7.1.0 (20230122.1345)
 -->
<!-- Title: CreateTransmissionWorkspace Pages: 1 -->
<svg width="822pt" height="425pt"
 viewBox="0.00 0.00 822.09 425.00" xmlns="http://www.w3.org/2000/svg" xmlns:xlink="http://www.w3.org/1999/xlink">
<g id="graph0" class="graph" transform="scale(1 1) rotate(0) translate(4 421)">
<title>CreateTransmissionWorkspace</title>
<polygon fill="white" stroke="none" points="-4,4 -4,-421 818.09,-421 818.09,4 -4,4"/>
<!-- firstRun -->
<g id="node1" class="node">
<title>firstRun</title>
<ellipse fill="khaki" stroke="black" cx="177.4" cy="-399" rx="106.68" ry="18"/>
<text text-anchor="middle" x="177.4" y="-395.3" font-family="Helvetica,sans-Serif" font-size="14.00">FirstTransmissionRun</text>
</g>
<!-- convertFirst -->
<g id="node9" class="node">
<title>convertFirst</title>
<polygon fill="lightseagreen" stroke="black" points="243.9,-344 110.9,-344 110.9,-306 243.9,-306 243.9,-344"/>
<text text-anchor="middle" x="177.4" y="-328.8" font-family="Helvetica,sans-Serif" font-size="14.00">Convert to 位 and</text>
<text text-anchor="middle" x="177.4" y="-313.8" font-family="Helvetica,sans-Serif" font-size="14.00">normalize</text>
</g>
<!-- firstRun&#45;&gt;convertFirst -->
<g id="edge1" class="edge">
<title>firstRun&#45;&gt;convertFirst</title>
<path fill="none" stroke="black" d="M177.4,-380.57C177.4,-373.1 177.4,-364.17 177.4,-355.71"/>
<polygon fill="black" stroke="black" points="180.9,-355.79 177.4,-345.79 173.9,-355.79 180.9,-355.79"/>
</g>
<!-- secondRun -->
<g id="node2" class="node">
<title>secondRun</title>
<ellipse fill="khaki" stroke="black" cx="422.4" cy="-399" rx="120.48" ry="18"/>
<text text-anchor="middle" x="422.4" y="-395.3" font-family="Helvetica,sans-Serif" font-size="14.00">SecondTransmissionRun</text>
</g>
<!-- convertSecond -->
<g id="node10" class="node">
<title>convertSecond</title>
<polygon fill="lightseagreen" stroke="black" points="488.9,-344 355.9,-344 355.9,-306 488.9,-306 488.9,-344"/>
<text text-anchor="middle" x="422.4" y="-328.8" font-family="Helvetica,sans-Serif" font-size="14.00">Convert to 位 and</text>
<text text-anchor="middle" x="422.4" y="-313.8" font-family="Helvetica,sans-Serif" font-size="14.00">normalize</text>
</g>
<!-- secondRun&#45;&gt;convertSecond -->
<g id="edge6" class="edge">
<title>secondRun&#45;&gt;convertSecond</title>
<path fill="none" stroke="black" d="M422.4,-380.57C422.4,-373.1 422.4,-364.17 422.4,-355.71"/>
<polygon fill="black" stroke="black" points="425.9,-355.79 422.4,-345.79 418.9,-355.79 425.9,-355.79"/>
</g>
<!-- outputWS -->
<g id="node3" class="node">
<title>outputWS</title>
<ellipse fill="khaki" stroke="black" cx="336.4" cy="-18" rx="91.78" ry="18"/>
<text text-anchor="middle" x="336.4" y="-14.3" font-family="Helvetica,sans-Serif" font-size="14.00">OutputWorkspace</text>
</g>
<!-- params -->
<g id="node4" class="node">
<title>params</title>
<ellipse fill="khaki" stroke="black" cx="470.4" cy="-178" rx="44.39" ry="18"/>
<text text-anchor="middle" x="470.4" y="-174.3" font-family="Helvetica,sans-Serif" font-size="14.00">Params</text>
</g>
<!-- stitch -->
<g id="node8" class="node">
<title>stitch</title>
<path fill="lightskyblue" stroke="black" d="M449.4,-109C449.4,-109 397.4,-109 397.4,-109 391.4,-109 385.4,-103 385.4,-97 385.4,-97 385.4,-85 385.4,-85 385.4,-79 391.4,-73 397.4,-73 397.4,-73 449.4,-73 449.4,-73 455.4,-73 461.4,-79 461.4,-85 461.4,-85 461.4,-97 461.4,-97 461.4,-103 455.4,-109 449.4,-109"/>
<text text-anchor="middle" x="423.4" y="-87.3" font-family="Helvetica,sans-Serif" font-size="14.00">Stitch1D</text>
</g>
<!-- params&#45;&gt;stitch -->
<g id="edge13" class="edge">
<title>params&#45;&gt;stitch</title>
<path fill="none" stroke="black" d="M461.11,-160.21C454.63,-148.49 445.84,-132.59 438.38,-119.09"/>
<polygon fill="black" stroke="black" points="441.62,-117.72 433.72,-110.67 435.49,-121.11 441.62,-117.72"/>
</g>
<!-- startOv -->
<g id="node5" class="node">
<title>startOv</title>
<ellipse fill="khaki" stroke="black" cx="600.4" cy="-178" rx="68.49" ry="18"/>
<text text-anchor="middle" x="600.4" y="-174.3" font-family="Helvetica,sans-Serif" font-size="14.00">StartOverlap</text>
</g>
<!-- startOv&#45;&gt;stitch -->
<g id="edge10" class="edge">
<title>startOv&#45;&gt;stitch</title>
<path fill="none" stroke="black" d="M568.75,-161.8C541.24,-148.59 501.01,-129.27 469.84,-114.3"/>
<polygon fill="black" stroke="black" points="471.54,-111.24 461.01,-110.06 468.51,-117.55 471.54,-111.24"/>
</g>
<!-- endOv -->
<g id="node6" class="node">
<title>endOv</title>
<ellipse fill="khaki" stroke="black" cx="750.4" cy="-178" rx="63.89" ry="18"/>
<text text-anchor="middle" x="750.4" y="-174.3" font-family="Helvetica,sans-Serif" font-size="14.00">EndOverlap</text>
</g>
<!-- endOv&#45;&gt;stitch -->
<g id="edge11" class="edge">
<title>endOv&#45;&gt;stitch</title>
<path fill="none" stroke="black" d="M704.59,-165.09C643.4,-149.19 535.44,-121.12 472.58,-104.79"/>
<polygon fill="black" stroke="black" points="473.79,-101.48 463.23,-102.36 472.03,-108.26 473.79,-101.48"/>
</g>
<!-- checkSecondRun -->
<g id="node7" class="node">
<title>checkSecondRun</title>
<polygon fill="limegreen" stroke="black" points="177.4,-196 0.1,-178 177.4,-160 354.69,-178 177.4,-196"/>
<text text-anchor="middle" x="177.4" y="-174.3" font-family="Helvetica,sans-Serif" font-size="14.00">SecondTransmissionRun?</text>
</g>
<!-- checkSecondRun&#45;&gt;outputWS -->
<g id="edge4" class="edge">
<title>checkSecondRun&#45;&gt;outputWS</title>
<path fill="none" stroke="black" d="M193.22,-161.27C220.89,-133.79 278.23,-76.8 311.34,-43.9"/>
<polygon fill="black" stroke="black" points="313.5,-46.69 318.12,-37.16 308.56,-41.72 313.5,-46.69"/>
<text text-anchor="middle" x="291.9" y="-87.3" font-family="Helvetica,sans-Serif" font-size="14.00">No</text>
</g>
<!-- checkSecondRun&#45;&gt;stitch -->
<g id="edge5" class="edge">
<title>checkSecondRun&#45;&gt;stitch</title>
<path fill="none" stroke="black" d="M248.67,-166.82C276.95,-161.41 309.35,-153.43 337.4,-142 349.05,-137.25 350.58,-133.43 361.4,-127 368.04,-123.05 375.13,-118.95 382.06,-115"/>
<polygon fill="black" stroke="black" points="383.72,-118.08 390.7,-110.1 380.27,-111.98 383.72,-118.08"/>
<text text-anchor="middle" x="372.9" y="-130.8" font-family="Helvetica,sans-Serif" font-size="14.00">Yes</text>
</g>
<!-- stitch&#45;&gt;outputWS -->
<g id="edge12" class="edge">
<title>stitch&#45;&gt;outputWS</title>
<path fill="none" stroke="black" d="M402.34,-72.81C391.36,-63.85 377.75,-52.75 365.75,-42.96"/>
<polygon fill="black" stroke="black" points="368.1,-40.35 358.14,-36.74 363.67,-45.78 368.1,-40.35"/>
</g>
<!-- valFirst -->
<g id="node11" class="node">
<title>valFirst</title>
<polygon fill="grey" stroke="black" points="212.42,-269 156.71,-269 142.38,-233 198.09,-233 212.42,-269"/>
<text text-anchor="middle" x="177.4" y="-247.3" font-family="Times,serif" font-size="14.00">I(位)</text>
</g>
<!-- convertFirst&#45;&gt;valFirst -->
<g id="edge2" class="edge">
<title>convertFirst&#45;&gt;valFirst</title>
<path fill="none" stroke="black" d="M177.4,-305.83C177.4,-298.24 177.4,-289.24 177.4,-280.79"/>
<polygon fill="black" stroke="black" points="180.9,-280.93 177.4,-270.93 173.9,-280.93 180.9,-280.93"/>
</g>
<!-- convertSecond&#45;&gt;params -->
<!-- valSecond -->
<g id="node12" class="node">
<title>valSecond</title>
<polygon fill="grey" stroke="black" points="457.42,-269 401.71,-269 387.38,-233 443.09,-233 457.42,-269"/>
<text text-anchor="middle" x="422.4" y="-247.3" font-family="Times,serif" font-size="14.00">I(位)</text>
</g>
<!-- convertSecond&#45;&gt;valSecond -->
<g id="edge7" class="edge">
<title>convertSecond&#45;&gt;valSecond</title>
<path fill="none" stroke="black" d="M422.4,-305.83C422.4,-298.24 422.4,-289.24 422.4,-280.79"/>
<polygon fill="black" stroke="black" points="425.9,-280.93 422.4,-270.93 418.9,-280.93 425.9,-280.93"/>
</g>
<!-- valFirst&#45;&gt;checkSecondRun -->
<g id="edge3" class="edge">
<title>valFirst&#45;&gt;checkSecondRun</title>
<path fill="none" stroke="black" d="M177.4,-232.81C177.4,-225.23 177.4,-216.1 177.4,-207.54"/>
<polygon fill="black" stroke="black" points="180.9,-207.54 177.4,-197.54 173.9,-207.54 180.9,-207.54"/>
</g>
<!-- valSecond&#45;&gt;stitch -->
<g id="edge8" class="edge">
<title>valSecond&#45;&gt;stitch</title>
<path fill="none" stroke="black" d="M420.37,-232.52C419.24,-221.96 417.96,-208.23 417.4,-196 416.66,-180.02 416.69,-175.98 417.4,-160 417.97,-147.04 419.15,-132.72 420.31,-120.58"/>
<polygon fill="black" stroke="black" points="423.78,-121.11 421.3,-110.81 416.81,-120.41 423.78,-121.11"/>
</g>
</g>
</svg>
