<?xml version="1.0" encoding="UTF-8" standalone="no"?>
<!DOCTYPE svg PUBLIC "-//W3C//DTD SVG 1.1//EN"
 "http://www.w3.org/Graphics/SVG/1.1/DTD/svg11.dtd">
<!-- Generated by graphviz version 7.1.0 (20230122.1345)
 -->
<!-- Title: CreateMD Pages: 1 -->
<svg width="789pt" height="811pt"
 viewBox="0.00 0.00 789.14 811.00" xmlns="http://www.w3.org/2000/svg" xmlns:xlink="http://www.w3.org/1999/xlink">
<g id="graph0" class="graph" transform="scale(1 1) rotate(0) translate(4 807)">
<title>CreateMD</title>
<polygon fill="white" stroke="none" points="-4,4 -4,-807 785.14,-807 785.14,4 -4,4"/>
<text text-anchor="middle" x="390.57" y="-787.8" font-family="Helvetica,sans-Serif" font-size="14.00">CreateMD Flowchart</text>
<!-- DataSources -->
<g id="node1" class="node">
<title>DataSources</title>
<ellipse fill="khaki" stroke="black" cx="283.64" cy="-762" rx="67.69" ry="18"/>
<text text-anchor="middle" x="283.64" y="-758.3" font-family="Helvetica,sans-Serif" font-size="14.00">DataSources</text>
</g>
<!-- load -->
<g id="node18" class="node">
<title>load</title>
<path fill="lightskyblue" stroke="black" d="M769.14,-693C769.14,-693 722.14,-693 722.14,-693 716.14,-693 710.14,-687 710.14,-681 710.14,-681 710.14,-669 710.14,-669 710.14,-663 716.14,-657 722.14,-657 722.14,-657 769.14,-657 769.14,-657 775.14,-657 781.14,-663 781.14,-669 781.14,-669 781.14,-681 781.14,-681 781.14,-687 775.14,-693 769.14,-693"/>
<text text-anchor="middle" x="745.64" y="-671.3" font-family="Helvetica,sans-Serif" font-size="14.00">Load v1</text>
</g>
<!-- DataSources&#45;&gt;load -->
<g id="edge12" class="edge">
<title>DataSources&#45;&gt;load</title>
<path fill="none" stroke="black" d="M346.28,-754.73C426.33,-745.85 569.09,-727.1 699.06,-693.11"/>
<polygon fill="black" stroke="black" points="699.76,-696.54 708.53,-690.59 697.97,-689.78 699.76,-696.54"/>
<text text-anchor="middle" x="658.64" y="-714.8" font-family="Helvetica,sans-Serif" font-size="14.00">if filename</text>
</g>
<!-- setUB -->
<g id="node19" class="node">
<title>setUB</title>
<path fill="lightskyblue" stroke="black" d="M575.14,-620C575.14,-620 518.14,-620 518.14,-620 512.14,-620 506.14,-614 506.14,-608 506.14,-608 506.14,-596 506.14,-596 506.14,-590 512.14,-584 518.14,-584 518.14,-584 575.14,-584 575.14,-584 581.14,-584 587.14,-590 587.14,-596 587.14,-596 587.14,-608 587.14,-608 587.14,-614 581.14,-620 575.14,-620"/>
<text text-anchor="middle" x="546.64" y="-598.3" font-family="Helvetica,sans-Serif" font-size="14.00">SetUB v1</text>
</g>
<!-- DataSources&#45;&gt;setUB -->
<g id="edge11" class="edge">
<title>DataSources&#45;&gt;setUB</title>
<path fill="none" stroke="black" d="M275.95,-743.71C267.21,-721.1 256.56,-681.49 276.64,-657 303.66,-624.04 424.05,-610.8 494.62,-605.79"/>
<polygon fill="black" stroke="black" points="494.66,-609.3 504.4,-605.13 494.19,-602.31 494.66,-609.3"/>
<text text-anchor="middle" x="320.64" y="-671.3" font-family="Helvetica,sans-Serif" font-size="14.00">if workspace</text>
</g>
<!-- EFix -->
<g id="node2" class="node">
<title>EFix</title>
<ellipse fill="khaki" stroke="black" cx="428.64" cy="-529" rx="28.7" ry="18"/>
<text text-anchor="middle" x="428.64" y="-525.3" font-family="Helvetica,sans-Serif" font-size="14.00">EFix</text>
</g>
<!-- addSampleLogEFix -->
<g id="node14" class="node">
<title>addSampleLogEFix</title>
<path fill="lightskyblue" stroke="black" d="M523.64,-474C523.64,-474 405.64,-474 405.64,-474 399.64,-474 393.64,-468 393.64,-462 393.64,-462 393.64,-450 393.64,-450 393.64,-444 399.64,-438 405.64,-438 405.64,-438 523.64,-438 523.64,-438 529.64,-438 535.64,-444 535.64,-450 535.64,-450 535.64,-462 535.64,-462 535.64,-468 529.64,-474 523.64,-474"/>
<text text-anchor="middle" x="464.64" y="-452.3" font-family="Helvetica,sans-Serif" font-size="14.00">AddSampleLog v1</text>
</g>
<!-- EFix&#45;&gt;addSampleLogEFix -->
<g id="edge3" class="edge">
<title>EFix&#45;&gt;addSampleLogEFix</title>
<path fill="none" stroke="black" d="M436.99,-511.53C441.05,-503.52 446.04,-493.68 450.66,-484.57"/>
<polygon fill="black" stroke="black" points="453.75,-486.22 455.15,-475.72 447.51,-483.05 453.75,-486.22"/>
</g>
<!-- EMode -->
<g id="node3" class="node">
<title>EMode</title>
<ellipse fill="khaki" stroke="black" cx="85.64" cy="-237" rx="40.89" ry="18"/>
<text text-anchor="middle" x="85.64" y="-233.3" font-family="Helvetica,sans-Serif" font-size="14.00">EMode</text>
</g>
<!-- convertToMD -->
<g id="node12" class="node">
<title>convertToMD</title>
<path fill="lightskyblue" stroke="black" d="M144.64,-109C144.64,-109 38.64,-109 38.64,-109 32.64,-109 26.64,-103 26.64,-97 26.64,-97 26.64,-85 26.64,-85 26.64,-79 32.64,-73 38.64,-73 38.64,-73 144.64,-73 144.64,-73 150.64,-73 156.64,-79 156.64,-85 156.64,-85 156.64,-97 156.64,-97 156.64,-103 150.64,-109 144.64,-109"/>
<text text-anchor="middle" x="91.64" y="-87.3" font-family="Helvetica,sans-Serif" font-size="14.00">ConvertToMD v1</text>
</g>
<!-- EMode&#45;&gt;convertToMD -->
<g id="edge9" class="edge">
<title>EMode&#45;&gt;convertToMD</title>
<path fill="none" stroke="black" d="M86.37,-218.63C87.38,-194.3 89.23,-149.8 90.45,-120.56"/>
<polygon fill="black" stroke="black" points="93.93,-121.08 90.85,-110.94 86.94,-120.79 93.93,-121.08"/>
</g>
<!-- convertToMDMinMaxGlobal -->
<g id="node20" class="node">
<title>convertToMDMinMaxGlobal</title>
<path fill="lightskyblue" stroke="black" d="M323.14,-182C323.14,-182 120.14,-182 120.14,-182 114.14,-182 108.14,-176 108.14,-170 108.14,-170 108.14,-158 108.14,-158 108.14,-152 114.14,-146 120.14,-146 120.14,-146 323.14,-146 323.14,-146 329.14,-146 335.14,-152 335.14,-158 335.14,-158 335.14,-170 335.14,-170 335.14,-176 329.14,-182 323.14,-182"/>
<text text-anchor="middle" x="221.64" y="-160.3" font-family="Helvetica,sans-Serif" font-size="14.00">ConvertToMDMinMaxGlobal v1</text>
</g>
<!-- EMode&#45;&gt;convertToMDMinMaxGlobal -->
<g id="edge10" class="edge">
<title>EMode&#45;&gt;convertToMDMinMaxGlobal</title>
<path fill="none" stroke="black" d="M111.22,-222.65C130.02,-212.83 156.02,-199.26 178.07,-187.75"/>
<polygon fill="black" stroke="black" points="179.62,-190.89 186.86,-183.16 176.38,-184.68 179.62,-190.89"/>
</g>
<!-- Alatt -->
<g id="node4" class="node">
<title>Alatt</title>
<ellipse fill="khaki" stroke="black" cx="405.64" cy="-675" rx="31.7" ry="18"/>
<text text-anchor="middle" x="405.64" y="-671.3" font-family="Helvetica,sans-Serif" font-size="14.00">Alatt</text>
</g>
<!-- Alatt&#45;&gt;setUB -->
<g id="edge5" class="edge">
<title>Alatt&#45;&gt;setUB</title>
<path fill="none" stroke="black" d="M428.93,-662.28C448.7,-652.32 477.66,-637.73 501.9,-625.53"/>
<polygon fill="black" stroke="black" points="503.26,-628.77 510.61,-621.14 500.11,-622.51 503.26,-628.77"/>
</g>
<!-- Angdeg -->
<g id="node5" class="node">
<title>Angdeg</title>
<ellipse fill="khaki" stroke="black" cx="501.64" cy="-675" rx="46.29" ry="18"/>
<text text-anchor="middle" x="501.64" y="-671.3" font-family="Helvetica,sans-Serif" font-size="14.00">Angdeg</text>
</g>
<!-- Angdeg&#45;&gt;setUB -->
<g id="edge6" class="edge">
<title>Angdeg&#45;&gt;setUB</title>
<path fill="none" stroke="black" d="M512.31,-657.17C517.46,-649.04 523.77,-639.08 529.57,-629.93"/>
<polygon fill="black" stroke="black" points="532.38,-632.05 534.77,-621.73 526.46,-628.3 532.38,-632.05"/>
</g>
<!-- u -->
<g id="node6" class="node">
<title>u</title>
<ellipse fill="khaki" stroke="black" cx="592.64" cy="-675" rx="27" ry="18"/>
<text text-anchor="middle" x="592.64" y="-671.3" font-family="Helvetica,sans-Serif" font-size="14.00">u</text>
</g>
<!-- u&#45;&gt;setUB -->
<g id="edge7" class="edge">
<title>u&#45;&gt;setUB</title>
<path fill="none" stroke="black" d="M582.2,-657.89C576.77,-649.51 570,-639.05 563.82,-629.51"/>
<polygon fill="black" stroke="black" points="566.88,-627.8 558.5,-621.31 561,-631.6 566.88,-627.8"/>
</g>
<!-- v -->
<g id="node7" class="node">
<title>v</title>
<ellipse fill="khaki" stroke="black" cx="664.64" cy="-675" rx="27" ry="18"/>
<text text-anchor="middle" x="664.64" y="-671.3" font-family="Helvetica,sans-Serif" font-size="14.00">v</text>
</g>
<!-- v&#45;&gt;setUB -->
<g id="edge8" class="edge">
<title>v&#45;&gt;setUB</title>
<path fill="none" stroke="black" d="M645.16,-662.28C628.92,-652.5 605.29,-638.29 585.24,-626.22"/>
<polygon fill="black" stroke="black" points="587.11,-623.26 576.73,-621.11 583.5,-629.26 587.11,-623.26"/>
</g>
<!-- Psi -->
<g id="node8" class="node">
<title>Psi</title>
<ellipse fill="khaki" stroke="black" cx="186.64" cy="-310" rx="27" ry="18"/>
<text text-anchor="middle" x="186.64" y="-306.3" font-family="Helvetica,sans-Serif" font-size="14.00">Psi</text>
</g>
<!-- addSampleLogPsi -->
<g id="node17" class="node">
<title>addSampleLogPsi</title>
<path fill="lightskyblue" stroke="black" d="M280.64,-255C280.64,-255 162.64,-255 162.64,-255 156.64,-255 150.64,-249 150.64,-243 150.64,-243 150.64,-231 150.64,-231 150.64,-225 156.64,-219 162.64,-219 162.64,-219 280.64,-219 280.64,-219 286.64,-219 292.64,-225 292.64,-231 292.64,-231 292.64,-243 292.64,-243 292.64,-249 286.64,-255 280.64,-255"/>
<text text-anchor="middle" x="221.64" y="-233.3" font-family="Helvetica,sans-Serif" font-size="14.00">AddSampleLog v1</text>
</g>
<!-- Psi&#45;&gt;addSampleLogPsi -->
<g id="edge4" class="edge">
<title>Psi&#45;&gt;addSampleLogPsi</title>
<path fill="none" stroke="black" d="M194.76,-292.53C198.71,-284.52 203.56,-274.68 208.05,-265.57"/>
<polygon fill="black" stroke="black" points="211.13,-267.24 212.41,-256.73 204.85,-264.15 211.13,-267.24"/>
</g>
<!-- Gl -->
<g id="node9" class="node">
<title>Gl</title>
<ellipse fill="khaki" stroke="black" cx="348.64" cy="-456" rx="27" ry="18"/>
<text text-anchor="middle" x="348.64" y="-452.3" font-family="Helvetica,sans-Serif" font-size="14.00">Gl</text>
</g>
<!-- addSampleLogGl -->
<g id="node15" class="node">
<title>addSampleLogGl</title>
<path fill="lightskyblue" stroke="black" d="M442.64,-401C442.64,-401 324.64,-401 324.64,-401 318.64,-401 312.64,-395 312.64,-389 312.64,-389 312.64,-377 312.64,-377 312.64,-371 318.64,-365 324.64,-365 324.64,-365 442.64,-365 442.64,-365 448.64,-365 454.64,-371 454.64,-377 454.64,-377 454.64,-389 454.64,-389 454.64,-395 448.64,-401 442.64,-401"/>
<text text-anchor="middle" x="383.64" y="-379.3" font-family="Helvetica,sans-Serif" font-size="14.00">AddSampleLog v1</text>
</g>
<!-- Gl&#45;&gt;addSampleLogGl -->
<g id="edge1" class="edge">
<title>Gl&#45;&gt;addSampleLogGl</title>
<path fill="none" stroke="black" d="M356.76,-438.53C360.71,-430.52 365.56,-420.68 370.05,-411.57"/>
<polygon fill="black" stroke="black" points="373.13,-413.24 374.41,-402.73 366.85,-410.15 373.13,-413.24"/>
</g>
<!-- Gs -->
<g id="node10" class="node">
<title>Gs</title>
<ellipse fill="khaki" stroke="black" cx="267.64" cy="-383" rx="27" ry="18"/>
<text text-anchor="middle" x="267.64" y="-379.3" font-family="Helvetica,sans-Serif" font-size="14.00">Gs</text>
</g>
<!-- addSampleLogGs -->
<g id="node16" class="node">
<title>addSampleLogGs</title>
<path fill="lightskyblue" stroke="black" d="M361.64,-328C361.64,-328 243.64,-328 243.64,-328 237.64,-328 231.64,-322 231.64,-316 231.64,-316 231.64,-304 231.64,-304 231.64,-298 237.64,-292 243.64,-292 243.64,-292 361.64,-292 361.64,-292 367.64,-292 373.64,-298 373.64,-304 373.64,-304 373.64,-316 373.64,-316 373.64,-322 367.64,-328 361.64,-328"/>
<text text-anchor="middle" x="302.64" y="-306.3" font-family="Helvetica,sans-Serif" font-size="14.00">AddSampleLog v1</text>
</g>
<!-- Gs&#45;&gt;addSampleLogGs -->
<g id="edge2" class="edge">
<title>Gs&#45;&gt;addSampleLogGs</title>
<path fill="none" stroke="black" d="M275.76,-365.53C279.71,-357.52 284.56,-347.68 289.05,-338.57"/>
<polygon fill="black" stroke="black" points="292.13,-340.24 293.41,-329.73 285.85,-337.15 292.13,-340.24"/>
</g>
<!-- OutputWorkspace -->
<g id="node11" class="node">
<title>OutputWorkspace</title>
<ellipse fill="khaki" stroke="black" cx="91.64" cy="-18" rx="91.78" ry="18"/>
<text text-anchor="middle" x="91.64" y="-14.3" font-family="Helvetica,sans-Serif" font-size="14.00">OutputWorkspace</text>
</g>
<!-- convertToMD&#45;&gt;OutputWorkspace -->
<g id="edge21" class="edge">
<title>convertToMD&#45;&gt;OutputWorkspace</title>
<path fill="none" stroke="black" d="M91.64,-72.81C91.64,-65.23 91.64,-56.1 91.64,-47.54"/>
<polygon fill="black" stroke="black" points="95.14,-47.54 91.64,-37.54 88.14,-47.54 95.14,-47.54"/>
</g>
<!-- setGoniometer -->
<g id="node13" class="node">
<title>setGoniometer</title>
<path fill="lightskyblue" stroke="black" d="M605.64,-547C605.64,-547 487.64,-547 487.64,-547 481.64,-547 475.64,-541 475.64,-535 475.64,-535 475.64,-523 475.64,-523 475.64,-517 481.64,-511 487.64,-511 487.64,-511 605.64,-511 605.64,-511 611.64,-511 617.64,-517 617.64,-523 617.64,-523 617.64,-535 617.64,-535 617.64,-541 611.64,-547 605.64,-547"/>
<text text-anchor="middle" x="546.64" y="-525.3" font-family="Helvetica,sans-Serif" font-size="14.00">SetGoniometer v1</text>
</g>
<!-- setGoniometer&#45;&gt;addSampleLogEFix -->
<g id="edge15" class="edge">
<title>setGoniometer&#45;&gt;addSampleLogEFix</title>
<path fill="none" stroke="black" d="M526.79,-510.81C516.69,-502.07 504.24,-491.28 493.14,-481.67"/>
<polygon fill="black" stroke="black" points="495.59,-479.17 485.74,-475.27 491.01,-484.46 495.59,-479.17"/>
</g>
<!-- addSampleLogEFix&#45;&gt;addSampleLogGl -->
<g id="edge16" class="edge">
<title>addSampleLogEFix&#45;&gt;addSampleLogGl</title>
<path fill="none" stroke="black" d="M445.03,-437.81C435.06,-429.07 422.76,-418.28 411.79,-408.67"/>
<polygon fill="black" stroke="black" points="414.32,-406.23 404.49,-402.27 409.7,-411.5 414.32,-406.23"/>
</g>
<!-- addSampleLogGl&#45;&gt;addSampleLogGs -->
<g id="edge17" class="edge">
<title>addSampleLogGl&#45;&gt;addSampleLogGs</title>
<path fill="none" stroke="black" d="M364.03,-364.81C354.06,-356.07 341.76,-345.28 330.79,-335.67"/>
<polygon fill="black" stroke="black" points="333.32,-333.23 323.49,-329.27 328.7,-338.5 333.32,-333.23"/>
</g>
<!-- addSampleLogGs&#45;&gt;addSampleLogPsi -->
<g id="edge18" class="edge">
<title>addSampleLogGs&#45;&gt;addSampleLogPsi</title>
<path fill="none" stroke="black" d="M283.03,-291.81C273.06,-283.07 260.76,-272.28 249.79,-262.67"/>
<polygon fill="black" stroke="black" points="252.32,-260.23 242.49,-256.27 247.7,-265.5 252.32,-260.23"/>
</g>
<!-- addSampleLogPsi&#45;&gt;convertToMDMinMaxGlobal -->
<g id="edge19" class="edge">
<title>addSampleLogPsi&#45;&gt;convertToMDMinMaxGlobal</title>
<path fill="none" stroke="black" d="M221.64,-218.81C221.64,-211.23 221.64,-202.1 221.64,-193.54"/>
<polygon fill="black" stroke="black" points="225.14,-193.54 221.64,-183.54 218.14,-193.54 225.14,-193.54"/>
</g>
<!-- load&#45;&gt;setUB -->
<g id="edge13" class="edge">
<title>load&#45;&gt;setUB</title>
<path fill="none" stroke="black" d="M709.81,-660.37C706.71,-659.22 703.62,-658.09 700.64,-657 666.62,-644.61 628.18,-631.13 598.22,-620.74"/>
<polygon fill="black" stroke="black" points="599.62,-617.52 589.02,-617.56 597.33,-624.13 599.62,-617.52"/>
</g>
<!-- setUB&#45;&gt;setGoniometer -->
<g id="edge14" class="edge">
<title>setUB&#45;&gt;setGoniometer</title>
<path fill="none" stroke="black" d="M546.64,-583.81C546.64,-576.23 546.64,-567.1 546.64,-558.54"/>
<polygon fill="black" stroke="black" points="550.14,-558.54 546.64,-548.54 543.14,-558.54 550.14,-558.54"/>
</g>
<!-- convertToMDMinMaxGlobal&#45;&gt;convertToMD -->
<g id="edge20" class="edge">
<title>convertToMDMinMaxGlobal&#45;&gt;convertToMD</title>
<path fill="none" stroke="black" d="M189.84,-145.63C172.92,-136.39 151.9,-124.91 133.65,-114.95"/>
<polygon fill="black" stroke="black" points="135.35,-111.88 124.89,-110.16 131.99,-118.03 135.35,-111.88"/>
</g>
</g>
</svg>
