<?xml version="1.0" encoding="UTF-8" standalone="no"?>
<!DOCTYPE svg PUBLIC "-//W3C//DTD SVG 1.1//EN"
 "http://www.w3.org/Graphics/SVG/1.1/DTD/svg11.dtd">
<!-- Generated by graphviz version 13.1.1 (20250720.1534)
 -->
<!-- Title: CreateMD Pages: 1 -->
<svg width="796pt" height="816pt"
 viewBox="0.00 0.00 796.00 816.00" xmlns="http://www.w3.org/2000/svg" xmlns:xlink="http://www.w3.org/1999/xlink">
<g id="graph0" class="graph" transform="scale(1 1) rotate(0) translate(4 811.5)">
<title>CreateMD</title>
<polygon fill="white" stroke="none" points="-4,4 -4,-811.5 791.93,-811.5 791.93,4 -4,4"/>
<text xml:space="preserve" text-anchor="middle" x="393.97" y="-790.2" font-family="Helvetica,sans-Serif" font-size="14.00">CreateMD Flowchart</text>
<!-- DataSources -->
<g id="node1" class="node">
<title>DataSources</title>
<ellipse fill="khaki" stroke="black" cx="281.56" cy="-764.25" rx="72.25" ry="18"/>
<text xml:space="preserve" text-anchor="middle" x="281.56" y="-759.58" font-family="Helvetica,sans-Serif" font-size="14.00">DataSources</text>
</g>
<!-- load -->
<g id="node18" class="node">
<title>load</title>
<path fill="lightskyblue" stroke="black" d="M775.93,-693C775.93,-693 729.18,-693 729.18,-693 723.18,-693 717.18,-687 717.18,-681 717.18,-681 717.18,-669 717.18,-669 717.18,-663 723.18,-657 729.18,-657 729.18,-657 775.93,-657 775.93,-657 781.93,-657 787.93,-663 787.93,-669 787.93,-669 787.93,-681 787.93,-681 787.93,-687 781.93,-693 775.93,-693"/>
<text xml:space="preserve" text-anchor="middle" x="752.56" y="-670.33" font-family="Helvetica,sans-Serif" font-size="14.00">Load v1</text>
</g>
<!-- DataSources&#45;&gt;load -->
<g id="edge12" class="edge">
<title>DataSources&#45;&gt;load</title>
<path fill="none" stroke="black" d="M347.56,-756.65C429.92,-747.48 574.95,-728.24 705.75,-693.5"/>
<polygon fill="black" stroke="black" points="706.54,-696.91 715.28,-690.92 704.71,-690.15 706.54,-696.91"/>
<text xml:space="preserve" text-anchor="middle" x="664.9" y="-714.95" font-family="Helvetica,sans-Serif" font-size="14.00">if filename</text>
</g>
<!-- setUB -->
<g id="node19" class="node">
<title>setUB</title>
<path fill="lightskyblue" stroke="black" d="M581.81,-620C581.81,-620 525.31,-620 525.31,-620 519.31,-620 513.31,-614 513.31,-608 513.31,-608 513.31,-596 513.31,-596 513.31,-590 519.31,-584 525.31,-584 525.31,-584 581.81,-584 581.81,-584 587.81,-584 593.81,-590 593.81,-596 593.81,-596 593.81,-608 593.81,-608 593.81,-614 587.81,-620 581.81,-620"/>
<text xml:space="preserve" text-anchor="middle" x="553.56" y="-597.33" font-family="Helvetica,sans-Serif" font-size="14.00">SetUB v1</text>
</g>
<!-- DataSources&#45;&gt;setUB -->
<g id="edge11" class="edge">
<title>DataSources&#45;&gt;setUB</title>
<path fill="none" stroke="black" d="M273.93,-745.96C265.06,-722.9 254.11,-682.09 274.81,-657 303.02,-622.8 429.21,-610 501.76,-605.41"/>
<polygon fill="black" stroke="black" points="501.63,-608.93 511.41,-604.84 501.22,-601.94 501.63,-608.93"/>
<text xml:space="preserve" text-anchor="middle" x="318.68" y="-670.33" font-family="Helvetica,sans-Serif" font-size="14.00">if workspace</text>
</g>
<!-- EFix -->
<g id="node2" class="node">
<title>EFix</title>
<ellipse fill="khaki" stroke="black" cx="434.56" cy="-529" rx="30.69" ry="18"/>
<text xml:space="preserve" text-anchor="middle" x="434.56" y="-524.33" font-family="Helvetica,sans-Serif" font-size="14.00">EFix</text>
</g>
<!-- addSampleLogEFix -->
<g id="node14" class="node">
<title>addSampleLogEFix</title>
<path fill="lightskyblue" stroke="black" d="M529.18,-474C529.18,-474 411.93,-474 411.93,-474 405.93,-474 399.93,-468 399.93,-462 399.93,-462 399.93,-450 399.93,-450 399.93,-444 405.93,-438 411.93,-438 411.93,-438 529.18,-438 529.18,-438 535.18,-438 541.18,-444 541.18,-450 541.18,-450 541.18,-462 541.18,-462 541.18,-468 535.18,-474 529.18,-474"/>
<text xml:space="preserve" text-anchor="middle" x="470.56" y="-451.32" font-family="Helvetica,sans-Serif" font-size="14.00">AddSampleLog v1</text>
</g>
<!-- EFix&#45;&gt;addSampleLogEFix -->
<g id="edge3" class="edge">
<title>EFix&#45;&gt;addSampleLogEFix</title>
<path fill="none" stroke="black" d="M442.91,-511.53C446.97,-503.52 451.96,-493.68 456.58,-484.57"/>
<polygon fill="black" stroke="black" points="459.67,-486.22 461.07,-475.72 453.42,-483.05 459.67,-486.22"/>
</g>
<!-- EMode -->
<g id="node3" class="node">
<title>EMode</title>
<ellipse fill="khaki" stroke="black" cx="91.56" cy="-237" rx="43.84" ry="18"/>
<text xml:space="preserve" text-anchor="middle" x="91.56" y="-232.32" font-family="Helvetica,sans-Serif" font-size="14.00">EMode</text>
</g>
<!-- convertToMD -->
<g id="node12" class="node">
<title>convertToMD</title>
<path fill="lightskyblue" stroke="black" d="M151.18,-109C151.18,-109 45.93,-109 45.93,-109 39.93,-109 33.93,-103 33.93,-97 33.93,-97 33.93,-85 33.93,-85 33.93,-79 39.93,-73 45.93,-73 45.93,-73 151.18,-73 151.18,-73 157.18,-73 163.18,-79 163.18,-85 163.18,-85 163.18,-97 163.18,-97 163.18,-103 157.18,-109 151.18,-109"/>
<text xml:space="preserve" text-anchor="middle" x="98.56" y="-86.33" font-family="Helvetica,sans-Serif" font-size="14.00">ConvertToMD v1</text>
</g>
<!-- EMode&#45;&gt;convertToMD -->
<g id="edge9" class="edge">
<title>EMode&#45;&gt;convertToMD</title>
<path fill="none" stroke="black" d="M92.4,-218.63C93.58,-194.3 95.75,-149.8 97.17,-120.56"/>
<polygon fill="black" stroke="black" points="100.65,-121.1 97.64,-110.94 93.66,-120.76 100.65,-121.1"/>
</g>
<!-- convertToMDMinMaxGlobal -->
<g id="node20" class="node">
<title>convertToMDMinMaxGlobal</title>
<path fill="lightskyblue" stroke="black" d="M328.56,-182C328.56,-182 126.56,-182 126.56,-182 120.56,-182 114.56,-176 114.56,-170 114.56,-170 114.56,-158 114.56,-158 114.56,-152 120.56,-146 126.56,-146 126.56,-146 328.56,-146 328.56,-146 334.56,-146 340.56,-152 340.56,-158 340.56,-158 340.56,-170 340.56,-170 340.56,-176 334.56,-182 328.56,-182"/>
<text xml:space="preserve" text-anchor="middle" x="227.56" y="-159.32" font-family="Helvetica,sans-Serif" font-size="14.00">ConvertToMDMinMaxGlobal v1</text>
</g>
<!-- EMode&#45;&gt;convertToMDMinMaxGlobal -->
<g id="edge10" class="edge">
<title>EMode&#45;&gt;convertToMDMinMaxGlobal</title>
<path fill="none" stroke="black" d="M117.78,-222.31C136.57,-212.5 162.31,-199.06 184.14,-187.66"/>
<polygon fill="black" stroke="black" points="185.59,-190.86 192.84,-183.13 182.35,-184.65 185.59,-190.86"/>
</g>
<!-- Alatt -->
<g id="node4" class="node">
<title>Alatt</title>
<ellipse fill="khaki" stroke="black" cx="405.56" cy="-675" rx="33.85" ry="18"/>
<text xml:space="preserve" text-anchor="middle" x="405.56" y="-670.33" font-family="Helvetica,sans-Serif" font-size="14.00">Alatt</text>
</g>
<!-- Alatt&#45;&gt;setUB -->
<g id="edge5" class="edge">
<title>Alatt&#45;&gt;setUB</title>
<path fill="none" stroke="black" d="M430,-662.28C450.85,-652.27 481.42,-637.6 506.94,-625.36"/>
<polygon fill="black" stroke="black" points="508.29,-628.6 515.8,-621.12 505.27,-622.29 508.29,-628.6"/>
</g>
<!-- Angdeg -->
<g id="node5" class="node">
<title>Angdeg</title>
<ellipse fill="khaki" stroke="black" cx="506.56" cy="-675" rx="49.1" ry="18"/>
<text xml:space="preserve" text-anchor="middle" x="506.56" y="-670.33" font-family="Helvetica,sans-Serif" font-size="14.00">Angdeg</text>
</g>
<!-- Angdeg&#45;&gt;setUB -->
<g id="edge6" class="edge">
<title>Angdeg&#45;&gt;setUB</title>
<path fill="none" stroke="black" d="M517.7,-657.17C523.08,-649.04 529.67,-639.08 535.73,-629.93"/>
<polygon fill="black" stroke="black" points="538.57,-631.98 541.17,-621.71 532.73,-628.12 538.57,-631.98"/>
</g>
<!-- u -->
<g id="node6" class="node">
<title>u</title>
<ellipse fill="khaki" stroke="black" cx="600.56" cy="-675" rx="27" ry="18"/>
<text xml:space="preserve" text-anchor="middle" x="600.56" y="-670.33" font-family="Helvetica,sans-Serif" font-size="14.00">u</text>
</g>
<!-- u&#45;&gt;setUB -->
<g id="edge7" class="edge">
<title>u&#45;&gt;setUB</title>
<path fill="none" stroke="black" d="M590.13,-658.24C584.63,-649.93 577.73,-639.51 571.41,-629.96"/>
<polygon fill="black" stroke="black" points="574.39,-628.13 565.95,-621.72 568.55,-631.99 574.39,-628.13"/>
</g>
<!-- v -->
<g id="node7" class="node">
<title>v</title>
<ellipse fill="khaki" stroke="black" cx="672.56" cy="-675" rx="27" ry="18"/>
<text xml:space="preserve" text-anchor="middle" x="672.56" y="-670.33" font-family="Helvetica,sans-Serif" font-size="14.00">v</text>
</g>
<!-- v&#45;&gt;setUB -->
<g id="edge8" class="edge">
<title>v&#45;&gt;setUB</title>
<path fill="none" stroke="black" d="M652.91,-662.28C636.53,-652.5 612.7,-638.29 592.48,-626.22"/>
<polygon fill="black" stroke="black" points="594.28,-623.22 583.9,-621.1 590.69,-629.23 594.28,-623.22"/>
</g>
<!-- Psi -->
<g id="node8" class="node">
<title>Psi</title>
<ellipse fill="khaki" stroke="black" cx="192.56" cy="-310" rx="27" ry="18"/>
<text xml:space="preserve" text-anchor="middle" x="192.56" y="-305.32" font-family="Helvetica,sans-Serif" font-size="14.00">Psi</text>
</g>
<!-- addSampleLogPsi -->
<g id="node17" class="node">
<title>addSampleLogPsi</title>
<path fill="lightskyblue" stroke="black" d="M286.18,-255C286.18,-255 168.93,-255 168.93,-255 162.93,-255 156.93,-249 156.93,-243 156.93,-243 156.93,-231 156.93,-231 156.93,-225 162.93,-219 168.93,-219 168.93,-219 286.18,-219 286.18,-219 292.18,-219 298.18,-225 298.18,-231 298.18,-231 298.18,-243 298.18,-243 298.18,-249 292.18,-255 286.18,-255"/>
<text xml:space="preserve" text-anchor="middle" x="227.56" y="-232.32" font-family="Helvetica,sans-Serif" font-size="14.00">AddSampleLog v1</text>
</g>
<!-- Psi&#45;&gt;addSampleLogPsi -->
<g id="edge4" class="edge">
<title>Psi&#45;&gt;addSampleLogPsi</title>
<path fill="none" stroke="black" d="M200.68,-292.53C204.62,-284.52 209.48,-274.68 213.97,-265.57"/>
<polygon fill="black" stroke="black" points="217.04,-267.24 218.33,-256.73 210.77,-264.15 217.04,-267.24"/>
</g>
<!-- Gl -->
<g id="node9" class="node">
<title>Gl</title>
<ellipse fill="khaki" stroke="black" cx="354.56" cy="-456" rx="27" ry="18"/>
<text xml:space="preserve" text-anchor="middle" x="354.56" y="-451.32" font-family="Helvetica,sans-Serif" font-size="14.00">Gl</text>
</g>
<!-- addSampleLogGl -->
<g id="node15" class="node">
<title>addSampleLogGl</title>
<path fill="lightskyblue" stroke="black" d="M448.18,-401C448.18,-401 330.93,-401 330.93,-401 324.93,-401 318.93,-395 318.93,-389 318.93,-389 318.93,-377 318.93,-377 318.93,-371 324.93,-365 330.93,-365 330.93,-365 448.18,-365 448.18,-365 454.18,-365 460.18,-371 460.18,-377 460.18,-377 460.18,-389 460.18,-389 460.18,-395 454.18,-401 448.18,-401"/>
<text xml:space="preserve" text-anchor="middle" x="389.56" y="-378.32" font-family="Helvetica,sans-Serif" font-size="14.00">AddSampleLog v1</text>
</g>
<!-- Gl&#45;&gt;addSampleLogGl -->
<g id="edge1" class="edge">
<title>Gl&#45;&gt;addSampleLogGl</title>
<path fill="none" stroke="black" d="M362.68,-438.53C366.62,-430.52 371.48,-420.68 375.97,-411.57"/>
<polygon fill="black" stroke="black" points="379.04,-413.24 380.33,-402.73 372.77,-410.15 379.04,-413.24"/>
</g>
<!-- Gs -->
<g id="node10" class="node">
<title>Gs</title>
<ellipse fill="khaki" stroke="black" cx="273.56" cy="-383" rx="27" ry="18"/>
<text xml:space="preserve" text-anchor="middle" x="273.56" y="-378.32" font-family="Helvetica,sans-Serif" font-size="14.00">Gs</text>
</g>
<!-- addSampleLogGs -->
<g id="node16" class="node">
<title>addSampleLogGs</title>
<path fill="lightskyblue" stroke="black" d="M367.18,-328C367.18,-328 249.93,-328 249.93,-328 243.93,-328 237.93,-322 237.93,-316 237.93,-316 237.93,-304 237.93,-304 237.93,-298 243.93,-292 249.93,-292 249.93,-292 367.18,-292 367.18,-292 373.18,-292 379.18,-298 379.18,-304 379.18,-304 379.18,-316 379.18,-316 379.18,-322 373.18,-328 367.18,-328"/>
<text xml:space="preserve" text-anchor="middle" x="308.56" y="-305.32" font-family="Helvetica,sans-Serif" font-size="14.00">AddSampleLog v1</text>
</g>
<!-- Gs&#45;&gt;addSampleLogGs -->
<g id="edge2" class="edge">
<title>Gs&#45;&gt;addSampleLogGs</title>
<path fill="none" stroke="black" d="M281.68,-365.53C285.62,-357.52 290.48,-347.68 294.97,-338.57"/>
<polygon fill="black" stroke="black" points="298.04,-340.24 299.33,-329.73 291.77,-337.15 298.04,-340.24"/>
</g>
<!-- OutputWorkspace -->
<g id="node11" class="node">
<title>OutputWorkspace</title>
<ellipse fill="khaki" stroke="black" cx="98.56" cy="-18" rx="98.56" ry="18"/>
<text xml:space="preserve" text-anchor="middle" x="98.56" y="-13.32" font-family="Helvetica,sans-Serif" font-size="14.00">OutputWorkspace</text>
</g>
<!-- convertToMD&#45;&gt;OutputWorkspace -->
<g id="edge21" class="edge">
<title>convertToMD&#45;&gt;OutputWorkspace</title>
<path fill="none" stroke="black" d="M98.56,-72.81C98.56,-65.23 98.56,-56.1 98.56,-47.54"/>
<polygon fill="black" stroke="black" points="102.06,-47.54 98.56,-37.54 95.06,-47.54 102.06,-47.54"/>
</g>
<!-- setGoniometer -->
<g id="node13" class="node">
<title>setGoniometer</title>
<path fill="lightskyblue" stroke="black" d="M612.18,-547C612.18,-547 494.93,-547 494.93,-547 488.93,-547 482.93,-541 482.93,-535 482.93,-535 482.93,-523 482.93,-523 482.93,-517 488.93,-511 494.93,-511 494.93,-511 612.18,-511 612.18,-511 618.18,-511 624.18,-517 624.18,-523 624.18,-523 624.18,-535 624.18,-535 624.18,-541 618.18,-547 612.18,-547"/>
<text xml:space="preserve" text-anchor="middle" x="553.56" y="-524.33" font-family="Helvetica,sans-Serif" font-size="14.00">SetGoniometer v1</text>
</g>
<!-- setGoniometer&#45;&gt;addSampleLogEFix -->
<g id="edge15" class="edge">
<title>setGoniometer&#45;&gt;addSampleLogEFix</title>
<path fill="none" stroke="black" d="M533.47,-510.81C523.24,-502.07 510.64,-491.28 499.4,-481.67"/>
<polygon fill="black" stroke="black" points="501.78,-479.1 491.9,-475.26 497.23,-484.42 501.78,-479.1"/>
</g>
<!-- addSampleLogEFix&#45;&gt;addSampleLogGl -->
<g id="edge16" class="edge">
<title>addSampleLogEFix&#45;&gt;addSampleLogGl</title>
<path fill="none" stroke="black" d="M450.95,-437.81C440.98,-429.07 428.67,-418.28 417.7,-408.67"/>
<polygon fill="black" stroke="black" points="420.23,-406.23 410.4,-402.27 415.62,-411.5 420.23,-406.23"/>
</g>
<!-- addSampleLogGl&#45;&gt;addSampleLogGs -->
<g id="edge17" class="edge">
<title>addSampleLogGl&#45;&gt;addSampleLogGs</title>
<path fill="none" stroke="black" d="M369.95,-364.81C359.98,-356.07 347.67,-345.28 336.7,-335.67"/>
<polygon fill="black" stroke="black" points="339.23,-333.23 329.4,-329.27 334.62,-338.5 339.23,-333.23"/>
</g>
<!-- addSampleLogGs&#45;&gt;addSampleLogPsi -->
<g id="edge18" class="edge">
<title>addSampleLogGs&#45;&gt;addSampleLogPsi</title>
<path fill="none" stroke="black" d="M288.95,-291.81C278.98,-283.07 266.67,-272.28 255.7,-262.67"/>
<polygon fill="black" stroke="black" points="258.23,-260.23 248.4,-256.27 253.62,-265.5 258.23,-260.23"/>
</g>
<!-- addSampleLogPsi&#45;&gt;convertToMDMinMaxGlobal -->
<g id="edge19" class="edge">
<title>addSampleLogPsi&#45;&gt;convertToMDMinMaxGlobal</title>
<path fill="none" stroke="black" d="M227.56,-218.81C227.56,-211.23 227.56,-202.1 227.56,-193.54"/>
<polygon fill="black" stroke="black" points="231.06,-193.54 227.56,-183.54 224.06,-193.54 231.06,-193.54"/>
</g>
<!-- load&#45;&gt;setUB -->
<g id="edge13" class="edge">
<title>load&#45;&gt;setUB</title>
<path fill="none" stroke="black" d="M717.05,-660.17C714.18,-659.08 711.33,-658.02 708.56,-657 674.13,-644.36 635.15,-630.78 604.89,-620.4"/>
<polygon fill="black" stroke="black" points="606.18,-617.15 595.59,-617.22 603.92,-623.77 606.18,-617.15"/>
</g>
<!-- setUB&#45;&gt;setGoniometer -->
<g id="edge14" class="edge">
<title>setUB&#45;&gt;setGoniometer</title>
<path fill="none" stroke="black" d="M553.56,-583.81C553.56,-576.23 553.56,-567.1 553.56,-558.54"/>
<polygon fill="black" stroke="black" points="557.06,-558.54 553.56,-548.54 550.06,-558.54 557.06,-558.54"/>
</g>
<!-- convertToMDMinMaxGlobal&#45;&gt;convertToMD -->
<g id="edge20" class="edge">
<title>convertToMDMinMaxGlobal&#45;&gt;convertToMD</title>
<path fill="none" stroke="black" d="M196,-145.63C179.21,-136.39 158.35,-124.91 140.25,-114.95"/>
<polygon fill="black" stroke="black" points="142.01,-111.92 131.56,-110.17 138.64,-118.05 142.01,-111.92"/>
</g>
</g>
</svg>
