<?xml version="1.0" encoding="UTF-8" standalone="no"?>
<!DOCTYPE svg PUBLIC "-//W3C//DTD SVG 1.1//EN"
 "http://www.w3.org/Graphics/SVG/1.1/DTD/svg11.dtd">
<!-- Generated by graphviz version 9.0.0 (20231125.0833)
 -->
<!-- Title: CreateTransmissionWorkspace Pages: 1 -->
<svg width="874pt" height="432pt"
 viewBox="0.00 0.00 874.29 431.75" xmlns="http://www.w3.org/2000/svg" xmlns:xlink="http://www.w3.org/1999/xlink">
<g id="graph0" class="graph" transform="scale(1 1) rotate(0) translate(4 427.75)">
<title>CreateTransmissionWorkspace</title>
<polygon fill="white" stroke="none" points="-4,4 -4,-427.75 870.29,-427.75 870.29,4 -4,4"/>
<!-- firstRun -->
<g id="node1" class="node">
<title>firstRun</title>
<ellipse fill="khaki" stroke="black" cx="190.72" cy="-405.75" rx="114.34" ry="18"/>
<text text-anchor="middle" x="190.72" y="-401.07" font-family="Helvetica,sans-Serif" font-size="14.00">FirstTransmissionRun</text>
</g>
<!-- convertFirst -->
<g id="node9" class="node">
<title>convertFirst</title>
<polygon fill="lightseagreen" stroke="black" points="256.85,-350.75 124.6,-350.75 124.6,-308.25 256.85,-308.25 256.85,-350.75"/>
<text text-anchor="middle" x="190.72" y="-333.45" font-family="Helvetica,sans-Serif" font-size="14.00">Convert to 位 and</text>
<text text-anchor="middle" x="190.72" y="-316.2" font-family="Helvetica,sans-Serif" font-size="14.00">normalize</text>
</g>
<!-- firstRun&#45;&gt;convertFirst -->
<g id="edge1" class="edge">
<title>firstRun&#45;&gt;convertFirst</title>
<path fill="none" stroke="black" d="M190.72,-387.53C190.72,-380.05 190.72,-371.04 190.72,-362.41"/>
<polygon fill="black" stroke="black" points="194.22,-362.57 190.72,-352.57 187.22,-362.57 194.22,-362.57"/>
</g>
<!-- secondRun -->
<g id="node2" class="node">
<title>secondRun</title>
<ellipse fill="khaki" stroke="black" cx="452.72" cy="-405.75" rx="129.6" ry="18"/>
<text text-anchor="middle" x="452.72" y="-401.07" font-family="Helvetica,sans-Serif" font-size="14.00">SecondTransmissionRun</text>
</g>
<!-- convertSecond -->
<g id="node10" class="node">
<title>convertSecond</title>
<polygon fill="lightseagreen" stroke="black" points="518.85,-350.75 386.6,-350.75 386.6,-308.25 518.85,-308.25 518.85,-350.75"/>
<text text-anchor="middle" x="452.72" y="-333.45" font-family="Helvetica,sans-Serif" font-size="14.00">Convert to 位 and</text>
<text text-anchor="middle" x="452.72" y="-316.2" font-family="Helvetica,sans-Serif" font-size="14.00">normalize</text>
</g>
<!-- secondRun&#45;&gt;convertSecond -->
<g id="edge6" class="edge">
<title>secondRun&#45;&gt;convertSecond</title>
<path fill="none" stroke="black" d="M452.72,-387.53C452.72,-380.05 452.72,-371.04 452.72,-362.41"/>
<polygon fill="black" stroke="black" points="456.22,-362.57 452.72,-352.57 449.22,-362.57 456.22,-362.57"/>
</g>
<!-- outputWS -->
<g id="node3" class="node">
<title>outputWS</title>
<ellipse fill="khaki" stroke="black" cx="363.72" cy="-18" rx="98.56" ry="18"/>
<text text-anchor="middle" x="363.72" y="-13.32" font-family="Helvetica,sans-Serif" font-size="14.00">OutputWorkspace</text>
</g>
<!-- params -->
<g id="node4" class="node">
<title>params</title>
<ellipse fill="khaki" stroke="black" cx="499.72" cy="-180.25" rx="47" ry="18"/>
<text text-anchor="middle" x="499.72" y="-175.57" font-family="Helvetica,sans-Serif" font-size="14.00">Params</text>
</g>
<!-- stitch -->
<g id="node8" class="node">
<title>stitch</title>
<path fill="lightskyblue" stroke="black" d="M475.35,-109C475.35,-109 424.1,-109 424.1,-109 418.1,-109 412.1,-103 412.1,-97 412.1,-97 412.1,-85 412.1,-85 412.1,-79 418.1,-73 424.1,-73 424.1,-73 475.35,-73 475.35,-73 481.35,-73 487.35,-79 487.35,-85 487.35,-85 487.35,-97 487.35,-97 487.35,-103 481.35,-109 475.35,-109"/>
<text text-anchor="middle" x="449.72" y="-86.33" font-family="Helvetica,sans-Serif" font-size="14.00">Stitch1D</text>
</g>
<!-- params&#45;&gt;stitch -->
<g id="edge13" class="edge">
<title>params&#45;&gt;stitch</title>
<path fill="none" stroke="black" d="M490.08,-162.43C483.05,-150.15 473.37,-133.26 465.25,-119.1"/>
<polygon fill="black" stroke="black" points="468.43,-117.62 460.43,-110.68 462.36,-121.1 468.43,-117.62"/>
</g>
<!-- startOv -->
<g id="node5" class="node">
<title>startOv</title>
<ellipse fill="khaki" stroke="black" cx="637.72" cy="-180.25" rx="73.3" ry="18"/>
<text text-anchor="middle" x="637.72" y="-175.57" font-family="Helvetica,sans-Serif" font-size="14.00">StartOverlap</text>
</g>
<!-- startOv&#45;&gt;stitch -->
<g id="edge10" class="edge">
<title>startOv&#45;&gt;stitch</title>
<path fill="none" stroke="black" d="M604.54,-163.85C574.83,-150.06 530.92,-129.68 497.44,-114.15"/>
<polygon fill="black" stroke="black" points="499.33,-111.16 488.78,-110.13 496.38,-117.51 499.33,-111.16"/>
</g>
<!-- endOv -->
<g id="node6" class="node">
<title>endOv</title>
<ellipse fill="khaki" stroke="black" cx="797.72" cy="-180.25" rx="68.57" ry="18"/>
<text text-anchor="middle" x="797.72" y="-175.57" font-family="Helvetica,sans-Serif" font-size="14.00">EndOverlap</text>
</g>
<!-- endOv&#45;&gt;stitch -->
<g id="edge11" class="edge">
<title>endOv&#45;&gt;stitch</title>
<path fill="none" stroke="black" d="M749.33,-167.12C683.22,-150.54 565.29,-120.97 498.81,-104.31"/>
<polygon fill="black" stroke="black" points="499.83,-100.95 489.27,-101.92 498.12,-107.74 499.83,-100.95"/>
</g>
<!-- checkSecondRun -->
<g id="node7" class="node">
<title>checkSecondRun</title>
<polygon fill="limegreen" stroke="black" points="190.72,-198.25 0,-180.25 190.72,-162.25 381.44,-180.25 190.72,-198.25"/>
<text text-anchor="middle" x="190.72" y="-175.57" font-family="Helvetica,sans-Serif" font-size="14.00">SecondTransmissionRun?</text>
</g>
<!-- checkSecondRun&#45;&gt;outputWS -->
<g id="edge4" class="edge">
<title>checkSecondRun&#45;&gt;outputWS</title>
<path fill="none" stroke="black" d="M207.62,-163.59C237.77,-135.67 301.02,-77.07 337.07,-43.68"/>
<polygon fill="black" stroke="black" points="339.12,-46.56 344.08,-37.2 334.36,-41.42 339.12,-46.56"/>
<text text-anchor="middle" x="314.1" y="-86.33" font-family="Helvetica,sans-Serif" font-size="14.00">No</text>
</g>
<!-- checkSecondRun&#45;&gt;stitch -->
<g id="edge5" class="edge">
<title>checkSecondRun&#45;&gt;stitch</title>
<path fill="none" stroke="black" d="M273.8,-169.6C303.02,-164.36 335.57,-156.37 363.72,-144.25 375.95,-138.98 376.98,-134.13 388.22,-127 394.56,-122.98 401.38,-118.88 408.09,-114.97"/>
<polygon fill="black" stroke="black" points="409.53,-118.18 416.46,-110.17 406.04,-112.11 409.53,-118.18"/>
<text text-anchor="middle" x="399.97" y="-130.95" font-family="Helvetica,sans-Serif" font-size="14.00">Yes</text>
</g>
<!-- stitch&#45;&gt;outputWS -->
<g id="edge12" class="edge">
<title>stitch&#45;&gt;outputWS</title>
<path fill="none" stroke="black" d="M428.9,-72.81C418.13,-63.92 404.79,-52.91 393,-43.17"/>
<polygon fill="black" stroke="black" points="395.45,-40.66 385.51,-36.99 391,-46.06 395.45,-40.66"/>
</g>
<!-- valFirst -->
<g id="node11" class="node">
<title>valFirst</title>
<polygon fill="grey" stroke="black" points="224.52,-271.25 170.75,-271.25 156.92,-235.25 210.69,-235.25 224.52,-271.25"/>
<text text-anchor="middle" x="190.72" y="-247.07" font-family="Times,serif" font-size="14.00">I(位)</text>
</g>
<!-- convertFirst&#45;&gt;valFirst -->
<g id="edge2" class="edge">
<title>convertFirst&#45;&gt;valFirst</title>
<path fill="none" stroke="black" d="M190.72,-307.82C190.72,-300 190.72,-290.97 190.72,-282.57"/>
<polygon fill="black" stroke="black" points="194.22,-282.83 190.72,-272.83 187.22,-282.83 194.22,-282.83"/>
</g>
<!-- convertSecond&#45;&gt;params -->
<!-- valSecond -->
<g id="node12" class="node">
<title>valSecond</title>
<polygon fill="grey" stroke="black" points="486.52,-271.25 432.75,-271.25 418.92,-235.25 472.69,-235.25 486.52,-271.25"/>
<text text-anchor="middle" x="452.72" y="-247.07" font-family="Times,serif" font-size="14.00">I(位)</text>
</g>
<!-- convertSecond&#45;&gt;valSecond -->
<g id="edge7" class="edge">
<title>convertSecond&#45;&gt;valSecond</title>
<path fill="none" stroke="black" d="M452.72,-307.82C452.72,-300 452.72,-290.97 452.72,-282.57"/>
<polygon fill="black" stroke="black" points="456.22,-282.83 452.72,-272.83 449.22,-282.83 456.22,-282.83"/>
</g>
<!-- valFirst&#45;&gt;checkSecondRun -->
<g id="edge3" class="edge">
<title>valFirst&#45;&gt;checkSecondRun</title>
<path fill="none" stroke="black" d="M190.72,-235.06C190.72,-227.48 190.72,-218.35 190.72,-209.79"/>
<polygon fill="black" stroke="black" points="194.22,-209.79 190.72,-199.79 187.22,-209.79 194.22,-209.79"/>
</g>
<!-- valSecond&#45;&gt;stitch -->
<g id="edge8" class="edge">
<title>valSecond&#45;&gt;stitch</title>
<path fill="none" stroke="black" d="M449.07,-234.83C447.04,-224.3 444.74,-210.56 443.72,-198.25 441.54,-171.96 443.66,-141.95 445.96,-120.54"/>
<polygon fill="black" stroke="black" points="449.41,-121.16 447.09,-110.82 442.46,-120.35 449.41,-121.16"/>
</g>
</g>
</svg>
