<?xml version="1.0" encoding="UTF-8" standalone="no"?>
<!DOCTYPE svg PUBLIC "-//W3C//DTD SVG 1.1//EN"
 "http://www.w3.org/Graphics/SVG/1.1/DTD/svg11.dtd">
<!-- Generated by graphviz version 7.1.0 (20230122.1345)
 -->
<!-- Title: CreateTransmissionWorkspaceWavelength Pages: 1 -->
<svg width="1235pt" height="606pt"
 viewBox="0.00 0.00 1234.67 606.48" xmlns="http://www.w3.org/2000/svg" xmlns:xlink="http://www.w3.org/1999/xlink">
<g id="graph0" class="graph" transform="scale(1 1) rotate(0) translate(4 602.48)">
<title>CreateTransmissionWorkspaceWavelength</title>
<polygon fill="white" stroke="none" points="-4,4 -4,-602.48 1230.67,-602.48 1230.67,4 -4,4"/>
<!-- inputWS -->
<g id="node1" class="node">
<title>inputWS</title>
<ellipse fill="khaki" stroke="black" cx="569.94" cy="-580.48" rx="87.18" ry="18"/>
<text text-anchor="middle" x="569.94" y="-576.78" font-family="Helvetica,sans-Serif" font-size="14.00">TransmissionRun</text>
</g>
<!-- groupDet -->
<g id="node12" class="node">
<title>groupDet</title>
<path fill="lightskyblue" stroke="black" d="M494.44,-511.48C494.44,-511.48 393.44,-511.48 393.44,-511.48 387.44,-511.48 381.44,-505.48 381.44,-499.48 381.44,-499.48 381.44,-487.48 381.44,-487.48 381.44,-481.48 387.44,-475.48 393.44,-475.48 393.44,-475.48 494.44,-475.48 494.44,-475.48 500.44,-475.48 506.44,-481.48 506.44,-487.48 506.44,-487.48 506.44,-499.48 506.44,-499.48 506.44,-505.48 500.44,-511.48 494.44,-511.48"/>
<text text-anchor="middle" x="443.94" y="-489.78" font-family="Helvetica,sans-Serif" font-size="14.00">GroupDetectors</text>
</g>
<!-- inputWS&#45;&gt;groupDet -->
<g id="edge1" class="edge">
<title>inputWS&#45;&gt;groupDet</title>
<path fill="none" stroke="black" d="M545.35,-562.89C526.47,-550.15 500.15,-532.4 479.05,-518.17"/>
<polygon fill="black" stroke="black" points="481.28,-515.44 471.03,-512.75 477.36,-521.25 481.28,-515.44"/>
<text text-anchor="middle" x="547.44" y="-533.28" font-family="Helvetica,sans-Serif" font-size="14.00">Detectors</text>
</g>
<!-- cropMonWS -->
<g id="node13" class="node">
<title>cropMonWS</title>
<path fill="lightskyblue" stroke="black" d="M717.44,-511.48C717.44,-511.48 616.44,-511.48 616.44,-511.48 610.44,-511.48 604.44,-505.48 604.44,-499.48 604.44,-499.48 604.44,-487.48 604.44,-487.48 604.44,-481.48 610.44,-475.48 616.44,-475.48 616.44,-475.48 717.44,-475.48 717.44,-475.48 723.44,-475.48 729.44,-481.48 729.44,-487.48 729.44,-487.48 729.44,-499.48 729.44,-499.48 729.44,-505.48 723.44,-511.48 717.44,-511.48"/>
<text text-anchor="middle" x="666.94" y="-489.78" font-family="Helvetica,sans-Serif" font-size="14.00">CropWorkspace</text>
</g>
<!-- inputWS&#45;&gt;cropMonWS -->
<g id="edge3" class="edge">
<title>inputWS&#45;&gt;cropMonWS</title>
<path fill="none" stroke="black" d="M589.11,-562.69C603.27,-550.28 622.78,-533.18 638.72,-519.21"/>
<polygon fill="black" stroke="black" points="640.8,-522.04 646.01,-512.82 636.19,-516.78 640.8,-522.04"/>
<text text-anchor="middle" x="656.94" y="-533.28" font-family="Helvetica,sans-Serif" font-size="14.00">Montitors</text>
</g>
<!-- procCommands -->
<g id="node2" class="node">
<title>procCommands</title>
<ellipse fill="khaki" stroke="black" cx="351.94" cy="-580.48" rx="112.38" ry="18"/>
<text text-anchor="middle" x="351.94" y="-576.78" font-family="Helvetica,sans-Serif" font-size="14.00">ProcessingInstructions</text>
</g>
<!-- procCommands&#45;&gt;groupDet -->
<g id="edge2" class="edge">
<title>procCommands&#45;&gt;groupDet</title>
<path fill="none" stroke="black" d="M370.56,-562.28C383.82,-550.03 401.84,-533.38 416.71,-519.64"/>
<polygon fill="black" stroke="black" points="418.96,-522.33 423.93,-512.97 414.21,-517.19 418.96,-522.33"/>
</g>
<!-- wavMin -->
<g id="node3" class="node">
<title>wavMin</title>
<ellipse fill="khaki" stroke="black" cx="79.94" cy="-165" rx="79.89" ry="18"/>
<text text-anchor="middle" x="79.94" y="-161.3" font-family="Helvetica,sans-Serif" font-size="14.00">WavelengthMin</text>
</g>
<!-- cropWav -->
<g id="node17" class="node">
<title>cropWav</title>
<path fill="lightskyblue" stroke="black" d="M494.44,-109C494.44,-109 393.44,-109 393.44,-109 387.44,-109 381.44,-103 381.44,-97 381.44,-97 381.44,-85 381.44,-85 381.44,-79 387.44,-73 393.44,-73 393.44,-73 494.44,-73 494.44,-73 500.44,-73 506.44,-79 506.44,-85 506.44,-85 506.44,-97 506.44,-97 506.44,-103 500.44,-109 494.44,-109"/>
<text text-anchor="middle" x="443.94" y="-87.3" font-family="Helvetica,sans-Serif" font-size="14.00">CropWorkspace</text>
</g>
<!-- wavMin&#45;&gt;cropWav -->
<g id="edge15" class="edge">
<title>wavMin&#45;&gt;cropWav</title>
<path fill="none" stroke="black" d="M137.21,-152.21C147.44,-150.13 158,-147.99 167.94,-146 236.36,-132.31 314.4,-117.08 370,-106.29"/>
<polygon fill="black" stroke="black" points="370.52,-109.75 379.67,-104.41 369.19,-102.88 370.52,-109.75"/>
</g>
<!-- wavMax -->
<g id="node4" class="node">
<title>wavMax</title>
<ellipse fill="khaki" stroke="black" cx="259.94" cy="-165" rx="82.59" ry="18"/>
<text text-anchor="middle" x="259.94" y="-161.3" font-family="Helvetica,sans-Serif" font-size="14.00">WavelengthMax</text>
</g>
<!-- wavMax&#45;&gt;cropWav -->
<g id="edge17" class="edge">
<title>wavMax&#45;&gt;cropWav</title>
<path fill="none" stroke="black" d="M298.96,-148.73C325.18,-138.47 360.09,-124.81 389.09,-113.46"/>
<polygon fill="black" stroke="black" points="390.04,-116.85 398.07,-109.95 387.48,-110.33 390.04,-116.85"/>
</g>
<!-- monitorIndex -->
<g id="node5" class="node">
<title>monitorIndex</title>
<ellipse fill="khaki" stroke="black" cx="753.94" cy="-580.48" rx="79.09" ry="18"/>
<text text-anchor="middle" x="753.94" y="-576.78" font-family="Helvetica,sans-Serif" font-size="14.00">I0MonitorIndex</text>
</g>
<!-- monitorIndex&#45;&gt;cropMonWS -->
<g id="edge4" class="edge">
<title>monitorIndex&#45;&gt;cropMonWS</title>
<path fill="none" stroke="black" d="M738.67,-562.42C729.67,-552.57 717.92,-540.07 706.94,-529.48 703.51,-526.16 699.83,-522.76 696.14,-519.44"/>
<polygon fill="black" stroke="black" points="698.58,-516.92 688.77,-512.91 693.94,-522.16 698.58,-516.92"/>
</g>
<!-- monIntWavMax -->
<g id="node6" class="node">
<title>monIntWavMax</title>
<ellipse fill="khaki" stroke="black" cx="1117.94" cy="-320.87" rx="106.55" ry="26.74"/>
<text text-anchor="middle" x="1117.94" y="-324.67" font-family="Helvetica,sans-Serif" font-size="14.00">MonitorIntegration&#45;</text>
<text text-anchor="middle" x="1117.94" y="-309.67" font-family="Helvetica,sans-Serif" font-size="14.00">WavelengthMax</text>
</g>
<!-- intMon -->
<g id="node15" class="node">
<title>intMon</title>
<path fill="lightskyblue" stroke="black" d="M701.44,-257C701.44,-257 632.44,-257 632.44,-257 626.44,-257 620.44,-251 620.44,-245 620.44,-245 620.44,-233 620.44,-233 620.44,-227 626.44,-221 632.44,-221 632.44,-221 701.44,-221 701.44,-221 707.44,-221 713.44,-227 713.44,-233 713.44,-233 713.44,-245 713.44,-245 713.44,-251 707.44,-257 701.44,-257"/>
<text text-anchor="middle" x="666.94" y="-235.3" font-family="Helvetica,sans-Serif" font-size="14.00">Integration</text>
</g>
<!-- monIntWavMax&#45;&gt;intMon -->
<g id="edge12" class="edge">
<title>monIntWavMax&#45;&gt;intMon</title>
<path fill="none" stroke="black" d="M1041.02,-302.04C1028,-299.22 1014.61,-296.43 1001.94,-294 905.14,-275.42 791.77,-258.06 724.84,-248.26"/>
<polygon fill="black" stroke="black" points="725.6,-244.84 715.2,-246.86 724.59,-251.76 725.6,-244.84"/>
</g>
<!-- monIntWavMin -->
<g id="node7" class="node">
<title>monIntWavMin</title>
<ellipse fill="khaki" stroke="black" cx="885.94" cy="-320.87" rx="106.55" ry="26.74"/>
<text text-anchor="middle" x="885.94" y="-324.67" font-family="Helvetica,sans-Serif" font-size="14.00">MonitorIntegration&#45;</text>
<text text-anchor="middle" x="885.94" y="-309.67" font-family="Helvetica,sans-Serif" font-size="14.00">WavelengthMin</text>
</g>
<!-- monIntWavMin&#45;&gt;intMon -->
<g id="edge11" class="edge">
<title>monIntWavMin&#45;&gt;intMon</title>
<path fill="none" stroke="black" d="M826.68,-298.26C794.95,-286.68 756.04,-272.49 724.56,-261.01"/>
<polygon fill="black" stroke="black" points="725.78,-257.73 715.19,-257.59 723.38,-264.31 725.78,-257.73"/>
</g>
<!-- monBackWavMin -->
<g id="node8" class="node">
<title>monBackWavMin</title>
<ellipse fill="khaki" stroke="black" cx="871.94" cy="-411.61" rx="111.95" ry="26.74"/>
<text text-anchor="middle" x="871.94" y="-415.41" font-family="Helvetica,sans-Serif" font-size="14.00">MonitorBackground&#45;</text>
<text text-anchor="middle" x="871.94" y="-400.41" font-family="Helvetica,sans-Serif" font-size="14.00">WavelengthMin</text>
</g>
<!-- monBackWavMin&#45;&gt;monIntWavMin -->
<!-- calcFlatBg -->
<g id="node14" class="node">
<title>calcFlatBg</title>
<path fill="lightskyblue" stroke="black" d="M749.44,-338.87C749.44,-338.87 584.44,-338.87 584.44,-338.87 578.44,-338.87 572.44,-332.87 572.44,-326.87 572.44,-326.87 572.44,-314.87 572.44,-314.87 572.44,-308.87 578.44,-302.87 584.44,-302.87 584.44,-302.87 749.44,-302.87 749.44,-302.87 755.44,-302.87 761.44,-308.87 761.44,-314.87 761.44,-314.87 761.44,-326.87 761.44,-326.87 761.44,-332.87 755.44,-338.87 749.44,-338.87"/>
<text text-anchor="middle" x="666.94" y="-317.17" font-family="Helvetica,sans-Serif" font-size="14.00">CalculateFlatBackground</text>
</g>
<!-- monBackWavMin&#45;&gt;calcFlatBg -->
<g id="edge8" class="edge">
<title>monBackWavMin&#45;&gt;calcFlatBg</title>
<path fill="none" stroke="black" d="M818.88,-387.64C787.68,-374.14 748.45,-357.15 717.66,-343.83"/>
<polygon fill="black" stroke="black" points="719.11,-340.64 708.54,-339.88 716.33,-347.06 719.11,-340.64"/>
</g>
<!-- monBackWavMax -->
<g id="node9" class="node">
<title>monBackWavMax</title>
<ellipse fill="khaki" stroke="black" cx="1114.94" cy="-411.61" rx="111.95" ry="26.74"/>
<text text-anchor="middle" x="1114.94" y="-415.41" font-family="Helvetica,sans-Serif" font-size="14.00">MonitorBackground&#45;</text>
<text text-anchor="middle" x="1114.94" y="-400.41" font-family="Helvetica,sans-Serif" font-size="14.00">WavelengthMax</text>
</g>
<!-- monBackWavMax&#45;&gt;monIntWavMax -->
<!-- monBackWavMax&#45;&gt;calcFlatBg -->
<g id="edge9" class="edge">
<title>monBackWavMax&#45;&gt;calcFlatBg</title>
<path fill="none" stroke="black" d="M1033.67,-392.85C1020.09,-390.03 1006.13,-387.23 992.94,-384.74 894.22,-366.09 868.3,-368.22 769.94,-347.74 761.57,-346 752.84,-344.03 744.17,-341.99"/>
<polygon fill="black" stroke="black" points="745.26,-338.65 734.72,-339.72 743.63,-345.46 745.26,-338.65"/>
</g>
<!-- convertDet -->
<g id="node10" class="node">
<title>convertDet</title>
<path fill="lightskyblue" stroke="black" d="M503.44,-430.61C503.44,-430.61 384.44,-430.61 384.44,-430.61 378.44,-430.61 372.44,-424.61 372.44,-418.61 372.44,-418.61 372.44,-404.61 372.44,-404.61 372.44,-398.61 378.44,-392.61 384.44,-392.61 384.44,-392.61 503.44,-392.61 503.44,-392.61 509.44,-392.61 515.44,-398.61 515.44,-404.61 515.44,-404.61 515.44,-418.61 515.44,-418.61 515.44,-424.61 509.44,-430.61 503.44,-430.61"/>
<text text-anchor="middle" x="443.94" y="-415.41" font-family="Helvetica,sans-Serif" font-size="14.00">ConvertUnits</text>
<text text-anchor="middle" x="443.94" y="-400.41" font-family="Helvetica,sans-Serif" font-size="14.00">(AlignBins = True)</text>
</g>
<!-- divideDetMon -->
<g id="node16" class="node">
<title>divideDetMon</title>
<path fill="lightskyblue" stroke="black" d="M515.44,-184C515.44,-184 372.44,-184 372.44,-184 366.44,-184 360.44,-178 360.44,-172 360.44,-172 360.44,-158 360.44,-158 360.44,-152 366.44,-146 372.44,-146 372.44,-146 515.44,-146 515.44,-146 521.44,-146 527.44,-152 527.44,-158 527.44,-158 527.44,-172 527.44,-172 527.44,-178 521.44,-184 515.44,-184"/>
<text text-anchor="middle" x="443.94" y="-168.8" font-family="Helvetica,sans-Serif" font-size="14.00">Divide</text>
<text text-anchor="middle" x="443.94" y="-153.8" font-family="Helvetica,sans-Serif" font-size="14.00">(Detectors / Monitors)</text>
</g>
<!-- convertDet&#45;&gt;divideDetMon -->
<g id="edge13" class="edge">
<title>convertDet&#45;&gt;divideDetMon</title>
<path fill="none" stroke="black" d="M443.94,-392.22C443.94,-350.15 443.94,-246.58 443.94,-195.48"/>
<polygon fill="black" stroke="black" points="447.44,-195.78 443.94,-185.78 440.44,-195.78 447.44,-195.78"/>
</g>
<!-- convertMon -->
<g id="node11" class="node">
<title>convertMon</title>
<path fill="lightskyblue" stroke="black" d="M726.44,-430.61C726.44,-430.61 607.44,-430.61 607.44,-430.61 601.44,-430.61 595.44,-424.61 595.44,-418.61 595.44,-418.61 595.44,-404.61 595.44,-404.61 595.44,-398.61 601.44,-392.61 607.44,-392.61 607.44,-392.61 726.44,-392.61 726.44,-392.61 732.44,-392.61 738.44,-398.61 738.44,-404.61 738.44,-404.61 738.44,-418.61 738.44,-418.61 738.44,-424.61 732.44,-430.61 726.44,-430.61"/>
<text text-anchor="middle" x="666.94" y="-415.41" font-family="Helvetica,sans-Serif" font-size="14.00">ConvertUnits</text>
<text text-anchor="middle" x="666.94" y="-400.41" font-family="Helvetica,sans-Serif" font-size="14.00">(AlignBins = True)</text>
</g>
<!-- convertMon&#45;&gt;calcFlatBg -->
<g id="edge7" class="edge">
<title>convertMon&#45;&gt;calcFlatBg</title>
<path fill="none" stroke="black" d="M666.94,-392.22C666.94,-380.21 666.94,-364.27 666.94,-350.6"/>
<polygon fill="black" stroke="black" points="670.44,-350.84 666.94,-340.84 663.44,-350.84 670.44,-350.84"/>
</g>
<!-- groupDet&#45;&gt;convertDet -->
<g id="edge5" class="edge">
<title>groupDet&#45;&gt;convertDet</title>
<path fill="none" stroke="black" d="M443.94,-475.15C443.94,-465.58 443.94,-453.43 443.94,-442.39"/>
<polygon fill="black" stroke="black" points="447.44,-442.53 443.94,-432.53 440.44,-442.53 447.44,-442.53"/>
</g>
<!-- groupDet&#45;&gt;cropMonWS -->
<!-- groupDet&#45;&gt;intMon -->
<!-- cropMonWS&#45;&gt;convertMon -->
<g id="edge6" class="edge">
<title>cropMonWS&#45;&gt;convertMon</title>
<path fill="none" stroke="black" d="M666.94,-475.15C666.94,-465.58 666.94,-453.43 666.94,-442.39"/>
<polygon fill="black" stroke="black" points="670.44,-442.53 666.94,-432.53 663.44,-442.53 670.44,-442.53"/>
</g>
<!-- calcFlatBg&#45;&gt;intMon -->
<g id="edge10" class="edge">
<title>calcFlatBg&#45;&gt;intMon</title>
<path fill="none" stroke="black" d="M666.94,-302.54C666.94,-292.6 666.94,-279.87 666.94,-268.49"/>
<polygon fill="black" stroke="black" points="670.44,-268.81 666.94,-258.81 663.44,-268.81 670.44,-268.81"/>
</g>
<!-- intMon&#45;&gt;divideDetMon -->
<g id="edge14" class="edge">
<title>intMon&#45;&gt;divideDetMon</title>
<path fill="none" stroke="black" d="M620.19,-222.91C588.71,-212.74 546.69,-199.17 511.58,-187.84"/>
<polygon fill="black" stroke="black" points="512.95,-184.6 502.36,-184.86 510.8,-191.26 512.95,-184.6"/>
</g>
<!-- divideDetMon&#45;&gt;cropWav -->
<g id="edge16" class="edge">
<title>divideDetMon&#45;&gt;cropWav</title>
<path fill="none" stroke="black" d="M443.94,-145.83C443.94,-138.24 443.94,-129.24 443.94,-120.79"/>
<polygon fill="black" stroke="black" points="447.44,-120.93 443.94,-110.93 440.44,-120.93 447.44,-120.93"/>
</g>
<!-- valWavOut -->
<g id="node18" class="node">
<title>valWavOut</title>
<polygon fill="grey" stroke="black" points="478.96,-36 423.25,-36 408.92,0 464.63,0 478.96,-36"/>
<text text-anchor="middle" x="443.94" y="-14.3" font-family="Times,serif" font-size="14.00">I(λ)</text>
</g>
<!-- cropWav&#45;&gt;valWavOut -->
<g id="edge18" class="edge">
<title>cropWav&#45;&gt;valWavOut</title>
<path fill="none" stroke="black" d="M443.94,-72.81C443.94,-65.23 443.94,-56.1 443.94,-47.54"/>
<polygon fill="black" stroke="black" points="447.44,-47.54 443.94,-37.54 440.44,-47.54 447.44,-47.54"/>
</g>
</g>
</svg>
