<?xml version="1.0" encoding="UTF-8" standalone="no"?>
<!DOCTYPE svg PUBLIC "-//W3C//DTD SVG 1.1//EN"
 "http://www.w3.org/Graphics/SVG/1.1/DTD/svg11.dtd">
<!-- Generated by graphviz version 11.0.0 (20240519.1550)
 -->
<!-- Title: CreateTransmissionWorkspaceWavelength Pages: 1 -->
<svg width="1254pt" height="624pt"
 viewBox="0.00 0.00 1253.95 623.96" xmlns="http://www.w3.org/2000/svg" xmlns:xlink="http://www.w3.org/1999/xlink">
<g id="graph0" class="graph" transform="scale(1 1) rotate(0) translate(4 619.96)">
<title>CreateTransmissionWorkspaceWavelength</title>
<polygon fill="white" stroke="none" points="-4,4 -4,-619.96 1249.95,-619.96 1249.95,4 -4,4"/>
<!-- inputWS -->
<g id="node1" class="node">
<title>inputWS</title>
<ellipse fill="khaki" stroke="black" cx="569.93" cy="-597.96" rx="93.82" ry="18"/>
<text text-anchor="middle" x="569.93" y="-593.28" font-family="Helvetica,sans-Serif" font-size="14.00">TransmissionRun</text>
</g>
<!-- groupDet -->
<g id="node12" class="node">
<title>groupDet</title>
<path fill="lightskyblue" stroke="black" d="M518.31,-526.71C518.31,-526.71 417.56,-526.71 417.56,-526.71 411.56,-526.71 405.56,-520.71 405.56,-514.71 405.56,-514.71 405.56,-502.71 405.56,-502.71 405.56,-496.71 411.56,-490.71 417.56,-490.71 417.56,-490.71 518.31,-490.71 518.31,-490.71 524.31,-490.71 530.31,-496.71 530.31,-502.71 530.31,-502.71 530.31,-514.71 530.31,-514.71 530.31,-520.71 524.31,-526.71 518.31,-526.71"/>
<text text-anchor="middle" x="467.93" y="-504.03" font-family="Helvetica,sans-Serif" font-size="14.00">GroupDetectors</text>
</g>
<!-- inputWS&#45;&gt;groupDet -->
<g id="edge1" class="edge">
<title>inputWS&#45;&gt;groupDet</title>
<path fill="none" stroke="black" d="M550.26,-580.14C535.08,-567.15 513.85,-548.98 496.75,-534.36"/>
<polygon fill="black" stroke="black" points="499.26,-531.9 489.39,-528.06 494.71,-537.22 499.26,-531.9"/>
<text text-anchor="middle" x="561.31" y="-548.66" font-family="Helvetica,sans-Serif" font-size="14.00">Detectors</text>
</g>
<!-- cropMonWS -->
<g id="node13" class="node">
<title>cropMonWS</title>
<path fill="lightskyblue" stroke="black" d="M738.93,-526.71C738.93,-526.71 638.93,-526.71 638.93,-526.71 632.93,-526.71 626.93,-520.71 626.93,-514.71 626.93,-514.71 626.93,-502.71 626.93,-502.71 626.93,-496.71 632.93,-490.71 638.93,-490.71 638.93,-490.71 738.93,-490.71 738.93,-490.71 744.93,-490.71 750.93,-496.71 750.93,-502.71 750.93,-502.71 750.93,-514.71 750.93,-514.71 750.93,-520.71 744.93,-526.71 738.93,-526.71"/>
<text text-anchor="middle" x="688.93" y="-504.03" font-family="Helvetica,sans-Serif" font-size="14.00">CropWorkspace</text>
</g>
<!-- inputWS&#45;&gt;cropMonWS -->
<g id="edge3" class="edge">
<title>inputWS&#45;&gt;cropMonWS</title>
<path fill="none" stroke="black" d="M592.88,-580.14C610.83,-566.97 636.05,-548.48 656.13,-533.76"/>
<polygon fill="black" stroke="black" points="658.03,-536.71 664.02,-527.97 653.89,-531.06 658.03,-536.71"/>
<text text-anchor="middle" x="672.56" y="-548.66" font-family="Helvetica,sans-Serif" font-size="14.00">Montitors</text>
</g>
<!-- procCommands -->
<g id="node2" class="node">
<title>procCommands</title>
<ellipse fill="khaki" stroke="black" cx="336.93" cy="-597.96" rx="121.18" ry="18"/>
<text text-anchor="middle" x="336.93" y="-593.28" font-family="Helvetica,sans-Serif" font-size="14.00">ProcessingInstructions</text>
</g>
<!-- procCommands&#45;&gt;groupDet -->
<g id="edge2" class="edge">
<title>procCommands&#45;&gt;groupDet</title>
<path fill="none" stroke="black" d="M362.5,-579.93C382.48,-566.62 410.47,-547.98 432.59,-533.25"/>
<polygon fill="black" stroke="black" points="434.34,-536.29 440.72,-527.83 430.46,-530.46 434.34,-536.29"/>
</g>
<!-- wavMin -->
<g id="node3" class="node">
<title>wavMin</title>
<ellipse fill="khaki" stroke="black" cx="85.93" cy="-165.25" rx="85.93" ry="18"/>
<text text-anchor="middle" x="85.93" y="-160.57" font-family="Helvetica,sans-Serif" font-size="14.00">WavelengthMin</text>
</g>
<!-- cropWav -->
<g id="node17" class="node">
<title>cropWav</title>
<path fill="lightskyblue" stroke="black" d="M517.93,-108C517.93,-108 417.93,-108 417.93,-108 411.93,-108 405.93,-102 405.93,-96 405.93,-96 405.93,-84 405.93,-84 405.93,-78 411.93,-72 417.93,-72 417.93,-72 517.93,-72 517.93,-72 523.93,-72 529.93,-78 529.93,-84 529.93,-84 529.93,-96 529.93,-96 529.93,-102 523.93,-108 517.93,-108"/>
<text text-anchor="middle" x="467.93" y="-85.33" font-family="Helvetica,sans-Serif" font-size="14.00">CropWorkspace</text>
</g>
<!-- wavMin&#45;&gt;cropWav -->
<g id="edge15" class="edge">
<title>wavMin&#45;&gt;cropWav</title>
<path fill="none" stroke="black" d="M143.54,-151.55C155.55,-148.99 168.14,-146.35 179.93,-144 252.61,-129.49 335.91,-114.32 394.16,-103.94"/>
<polygon fill="black" stroke="black" points="394.74,-107.39 403.98,-102.2 393.52,-100.5 394.74,-107.39"/>
</g>
<!-- wavMax -->
<g id="node4" class="node">
<title>wavMax</title>
<ellipse fill="khaki" stroke="black" cx="277.93" cy="-165.25" rx="88.56" ry="18"/>
<text text-anchor="middle" x="277.93" y="-160.57" font-family="Helvetica,sans-Serif" font-size="14.00">WavelengthMax</text>
</g>
<!-- wavMax&#45;&gt;cropWav -->
<g id="edge17" class="edge">
<title>wavMax&#45;&gt;cropWav</title>
<path fill="none" stroke="black" d="M317.76,-148.89C345.21,-138.31 382.07,-124.1 412.39,-112.41"/>
<polygon fill="black" stroke="black" points="413.34,-115.8 421.41,-108.93 410.82,-109.27 413.34,-115.8"/>
</g>
<!-- monitorIndex -->
<g id="node5" class="node">
<title>monitorIndex</title>
<ellipse fill="khaki" stroke="black" cx="766.93" cy="-597.96" rx="84.88" ry="18"/>
<text text-anchor="middle" x="766.93" y="-593.28" font-family="Helvetica,sans-Serif" font-size="14.00">I0MonitorIndex</text>
</g>
<!-- monitorIndex&#45;&gt;cropMonWS -->
<g id="edge4" class="edge">
<title>monitorIndex&#45;&gt;cropMonWS</title>
<path fill="none" stroke="black" d="M751.89,-580.14C740.6,-567.5 724.93,-549.98 712.05,-535.57"/>
<polygon fill="black" stroke="black" points="714.74,-533.33 705.47,-528.2 709.52,-537.99 714.74,-533.33"/>
</g>
<!-- monIntWavMax -->
<g id="node6" class="node">
<title>monIntWavMax</title>
<ellipse fill="khaki" stroke="black" cx="1136.93" cy="-326.55" rx="106.24" ry="30.05"/>
<text text-anchor="middle" x="1136.93" y="-330.5" font-family="Helvetica,sans-Serif" font-size="14.00">MonitorIntegration&#45;</text>
<text text-anchor="middle" x="1136.93" y="-313.25" font-family="Helvetica,sans-Serif" font-size="14.00">WavelengthMax</text>
</g>
<!-- intMon -->
<g id="node15" class="node">
<title>intMon</title>
<path fill="lightskyblue" stroke="black" d="M723.18,-259.5C723.18,-259.5 654.68,-259.5 654.68,-259.5 648.68,-259.5 642.68,-253.5 642.68,-247.5 642.68,-247.5 642.68,-235.5 642.68,-235.5 642.68,-229.5 648.68,-223.5 654.68,-223.5 654.68,-223.5 723.18,-223.5 723.18,-223.5 729.18,-223.5 735.18,-229.5 735.18,-235.5 735.18,-235.5 735.18,-247.5 735.18,-247.5 735.18,-253.5 729.18,-259.5 723.18,-259.5"/>
<text text-anchor="middle" x="688.93" y="-236.82" font-family="Helvetica,sans-Serif" font-size="14.00">Integration</text>
</g>
<!-- monIntWavMax&#45;&gt;intMon -->
<g id="edge12" class="edge">
<title>monIntWavMax&#45;&gt;intMon</title>
<path fill="none" stroke="black" d="M1060.44,-305.25C1047.63,-302.13 1034.43,-299.09 1021.93,-296.5 925.97,-276.64 813.2,-259.67 746.58,-250.3"/>
<polygon fill="black" stroke="black" points="747.38,-246.88 736.99,-248.96 746.41,-253.81 747.38,-246.88"/>
</g>
<!-- monIntWavMin -->
<g id="node7" class="node">
<title>monIntWavMin</title>
<ellipse fill="khaki" stroke="black" cx="906.93" cy="-326.55" rx="106.24" ry="30.05"/>
<text text-anchor="middle" x="906.93" y="-330.5" font-family="Helvetica,sans-Serif" font-size="14.00">MonitorIntegration&#45;</text>
<text text-anchor="middle" x="906.93" y="-313.25" font-family="Helvetica,sans-Serif" font-size="14.00">WavelengthMin</text>
</g>
<!-- monIntWavMin&#45;&gt;intMon -->
<g id="edge11" class="edge">
<title>monIntWavMin&#45;&gt;intMon</title>
<path fill="none" stroke="black" d="M844.75,-301.86C813.34,-289.9 775.53,-275.49 745.02,-263.87"/>
<polygon fill="black" stroke="black" points="746.56,-260.71 735.97,-260.42 744.07,-267.25 746.56,-260.71"/>
</g>
<!-- monBackWavMin -->
<g id="node8" class="node">
<title>monBackWavMin</title>
<ellipse fill="khaki" stroke="black" cx="892.93" cy="-423.66" rx="111.02" ry="30.05"/>
<text text-anchor="middle" x="892.93" y="-427.61" font-family="Helvetica,sans-Serif" font-size="14.00">MonitorBackground&#45;</text>
<text text-anchor="middle" x="892.93" y="-410.36" font-family="Helvetica,sans-Serif" font-size="14.00">WavelengthMin</text>
</g>
<!-- monBackWavMin&#45;&gt;monIntWavMin -->
<!-- calcFlatBg -->
<g id="node14" class="node">
<title>calcFlatBg</title>
<path fill="lightskyblue" stroke="black" d="M771.18,-344.55C771.18,-344.55 606.68,-344.55 606.68,-344.55 600.68,-344.55 594.68,-338.55 594.68,-332.55 594.68,-332.55 594.68,-320.55 594.68,-320.55 594.68,-314.55 600.68,-308.55 606.68,-308.55 606.68,-308.55 771.18,-308.55 771.18,-308.55 777.18,-308.55 783.18,-314.55 783.18,-320.55 783.18,-320.55 783.18,-332.55 783.18,-332.55 783.18,-338.55 777.18,-344.55 771.18,-344.55"/>
<text text-anchor="middle" x="688.93" y="-321.88" font-family="Helvetica,sans-Serif" font-size="14.00">CalculateFlatBackground</text>
</g>
<!-- monBackWavMin&#45;&gt;calcFlatBg -->
<g id="edge8" class="edge">
<title>monBackWavMin&#45;&gt;calcFlatBg</title>
<path fill="none" stroke="black" d="M838.26,-397.17C806.59,-382.4 767.1,-363.99 736.68,-349.81"/>
<polygon fill="black" stroke="black" points="738.24,-346.68 727.7,-345.62 735.28,-353.02 738.24,-346.68"/>
</g>
<!-- monBackWavMax -->
<g id="node9" class="node">
<title>monBackWavMax</title>
<ellipse fill="khaki" stroke="black" cx="1134.93" cy="-423.66" rx="111.02" ry="30.05"/>
<text text-anchor="middle" x="1134.93" y="-427.61" font-family="Helvetica,sans-Serif" font-size="14.00">MonitorBackground&#45;</text>
<text text-anchor="middle" x="1134.93" y="-410.36" font-family="Helvetica,sans-Serif" font-size="14.00">WavelengthMax</text>
</g>
<!-- monBackWavMax&#45;&gt;monIntWavMax -->
<!-- monBackWavMax&#45;&gt;calcFlatBg -->
<g id="edge9" class="edge">
<title>monBackWavMax&#45;&gt;calcFlatBg</title>
<path fill="none" stroke="black" d="M1054.04,-402.66C1040.35,-399.49 1026.26,-396.35 1012.93,-393.6 964.77,-383.68 952.43,-382.73 903.93,-374.6 854.21,-366.28 841.16,-367.47 791.93,-356.6 780.66,-354.12 768.79,-351.13 757.28,-348.02"/>
<polygon fill="black" stroke="black" points="758.41,-344.7 747.84,-345.42 756.55,-351.45 758.41,-344.7"/>
</g>
<!-- convertDet -->
<g id="node10" class="node">
<title>convertDet</title>
<path fill="lightskyblue" stroke="black" d="M527.31,-444.91C527.31,-444.91 408.56,-444.91 408.56,-444.91 402.56,-444.91 396.56,-438.91 396.56,-432.91 396.56,-432.91 396.56,-414.41 396.56,-414.41 396.56,-408.41 402.56,-402.41 408.56,-402.41 408.56,-402.41 527.31,-402.41 527.31,-402.41 533.31,-402.41 539.31,-408.41 539.31,-414.41 539.31,-414.41 539.31,-432.91 539.31,-432.91 539.31,-438.91 533.31,-444.91 527.31,-444.91"/>
<text text-anchor="middle" x="467.93" y="-427.61" font-family="Helvetica,sans-Serif" font-size="14.00">ConvertUnits</text>
<text text-anchor="middle" x="467.93" y="-410.36" font-family="Helvetica,sans-Serif" font-size="14.00">(AlignBins = True)</text>
</g>
<!-- divideDetMon -->
<g id="node16" class="node">
<title>divideDetMon</title>
<path fill="lightskyblue" stroke="black" d="M539.31,-186.5C539.31,-186.5 396.56,-186.5 396.56,-186.5 390.56,-186.5 384.56,-180.5 384.56,-174.5 384.56,-174.5 384.56,-156 384.56,-156 384.56,-150 390.56,-144 396.56,-144 396.56,-144 539.31,-144 539.31,-144 545.31,-144 551.31,-150 551.31,-156 551.31,-156 551.31,-174.5 551.31,-174.5 551.31,-180.5 545.31,-186.5 539.31,-186.5"/>
<text text-anchor="middle" x="467.93" y="-169.2" font-family="Helvetica,sans-Serif" font-size="14.00">Divide</text>
<text text-anchor="middle" x="467.93" y="-151.95" font-family="Helvetica,sans-Serif" font-size="14.00">(Detectors / Monitors)</text>
</g>
<!-- convertDet&#45;&gt;divideDetMon -->
<g id="edge13" class="edge">
<title>convertDet&#45;&gt;divideDetMon</title>
<path fill="none" stroke="black" d="M467.93,-402.11C467.93,-357.57 467.93,-251.85 467.93,-198.39"/>
<polygon fill="black" stroke="black" points="471.43,-198.41 467.93,-188.41 464.43,-198.41 471.43,-198.41"/>
</g>
<!-- convertMon -->
<g id="node11" class="node">
<title>convertMon</title>
<path fill="lightskyblue" stroke="black" d="M748.31,-444.91C748.31,-444.91 629.56,-444.91 629.56,-444.91 623.56,-444.91 617.56,-438.91 617.56,-432.91 617.56,-432.91 617.56,-414.41 617.56,-414.41 617.56,-408.41 623.56,-402.41 629.56,-402.41 629.56,-402.41 748.31,-402.41 748.31,-402.41 754.31,-402.41 760.31,-408.41 760.31,-414.41 760.31,-414.41 760.31,-432.91 760.31,-432.91 760.31,-438.91 754.31,-444.91 748.31,-444.91"/>
<text text-anchor="middle" x="688.93" y="-427.61" font-family="Helvetica,sans-Serif" font-size="14.00">ConvertUnits</text>
<text text-anchor="middle" x="688.93" y="-410.36" font-family="Helvetica,sans-Serif" font-size="14.00">(AlignBins = True)</text>
</g>
<!-- convertMon&#45;&gt;calcFlatBg -->
<g id="edge7" class="edge">
<title>convertMon&#45;&gt;calcFlatBg</title>
<path fill="none" stroke="black" d="M688.93,-402.02C688.93,-388.57 688.93,-370.84 688.93,-356.05"/>
<polygon fill="black" stroke="black" points="692.43,-356.47 688.93,-346.47 685.43,-356.47 692.43,-356.47"/>
</g>
<!-- groupDet&#45;&gt;convertDet -->
<g id="edge5" class="edge">
<title>groupDet&#45;&gt;convertDet</title>
<path fill="none" stroke="black" d="M467.93,-490.5C467.93,-480.77 467.93,-468.28 467.93,-456.81"/>
<polygon fill="black" stroke="black" points="471.43,-456.88 467.93,-446.88 464.43,-456.88 471.43,-456.88"/>
</g>
<!-- groupDet&#45;&gt;cropMonWS -->
<!-- groupDet&#45;&gt;intMon -->
<!-- cropMonWS&#45;&gt;convertMon -->
<g id="edge6" class="edge">
<title>cropMonWS&#45;&gt;convertMon</title>
<path fill="none" stroke="black" d="M688.93,-490.5C688.93,-480.77 688.93,-468.28 688.93,-456.81"/>
<polygon fill="black" stroke="black" points="692.43,-456.88 688.93,-446.88 685.43,-456.88 692.43,-456.88"/>
</g>
<!-- calcFlatBg&#45;&gt;intMon -->
<g id="edge10" class="edge">
<title>calcFlatBg&#45;&gt;intMon</title>
<path fill="none" stroke="black" d="M688.93,-308.34C688.93,-297.61 688.93,-283.54 688.93,-271.16"/>
<polygon fill="black" stroke="black" points="692.43,-271.49 688.93,-261.49 685.43,-271.49 692.43,-271.49"/>
</g>
<!-- intMon&#45;&gt;divideDetMon -->
<g id="edge14" class="edge">
<title>intMon&#45;&gt;divideDetMon</title>
<path fill="none" stroke="black" d="M642.33,-224.84C612.74,-214.9 573.82,-201.83 540.26,-190.55"/>
<polygon fill="black" stroke="black" points="541.6,-187.31 531.01,-187.44 539.37,-193.94 541.6,-187.31"/>
</g>
<!-- divideDetMon&#45;&gt;cropWav -->
<g id="edge16" class="edge">
<title>divideDetMon&#45;&gt;cropWav</title>
<path fill="none" stroke="black" d="M467.93,-143.85C467.93,-136.34 467.93,-127.69 467.93,-119.59"/>
<polygon fill="black" stroke="black" points="471.43,-119.83 467.93,-109.83 464.43,-119.83 471.43,-119.83"/>
</g>
<!-- valWavOut -->
<g id="node18" class="node">
<title>valWavOut</title>
<polygon fill="grey" stroke="black" points="501.74,-36 447.96,-36 434.13,0 487.9,0 501.74,-36"/>
<text text-anchor="middle" x="467.93" y="-11.82" font-family="Times,serif" font-size="14.00">I(λ)</text>
</g>
<!-- cropWav&#45;&gt;valWavOut -->
<g id="edge18" class="edge">
<title>cropWav&#45;&gt;valWavOut</title>
<path fill="none" stroke="black" d="M467.93,-71.7C467.93,-64.41 467.93,-55.73 467.93,-47.54"/>
<polygon fill="black" stroke="black" points="471.43,-47.62 467.93,-37.62 464.43,-47.62 471.43,-47.62"/>
</g>
</g>
</svg>
