<?xml version="1.0" encoding="UTF-8" standalone="no"?>
<!DOCTYPE svg PUBLIC "-//W3C//DTD SVG 1.1//EN"
 "http://www.w3.org/Graphics/SVG/1.1/DTD/svg11.dtd">
<!-- Generated by graphviz version 7.0.5 (20221231.0122)
 -->
<!-- Title: CutMD Pages: 1 -->
<svg width="578pt" height="446pt"
 viewBox="0.00 0.00 578.28 446.00" xmlns="http://www.w3.org/2000/svg" xmlns:xlink="http://www.w3.org/1999/xlink">
<g id="graph0" class="graph" transform="scale(1 1) rotate(0) translate(4 442)">
<title>CutMD</title>
<polygon fill="white" stroke="none" points="-4,4 -4,-442 574.28,-442 574.28,4 -4,4"/>
<text text-anchor="middle" x="285.14" y="-422.8" font-family="Helvetica,sans-Serif" font-size="14.00">CutMD Flowchart</text>
<!-- Projection -->
<g id="node1" class="node">
<title>Projection</title>
<ellipse fill="khaki" stroke="black" cx="54.6" cy="-397" rx="54.69" ry="18"/>
<text text-anchor="middle" x="54.6" y="-393.3" font-family="Helvetica,sans-Serif" font-size="14.00">Projection</text>
</g>
<!-- scale -->
<g id="node9" class="node">
<title>scale</title>
<polygon fill="lightseagreen" stroke="black" points="400.6,-342 20.6,-342 20.6,-306 400.6,-306 400.6,-342"/>
<text text-anchor="middle" x="210.6" y="-320.3" font-family="Helvetica,sans-Serif" font-size="14.00">Scale between rlu and inverse angstroms if required</text>
</g>
<!-- Projection&#45;&gt;scale -->
<g id="edge1" class="edge">
<title>Projection&#45;&gt;scale</title>
<path fill="none" stroke="black" d="M85.79,-381.8C107.57,-371.89 137.09,-358.46 161.95,-347.14"/>
<polygon fill="black" stroke="black" points="163.25,-350.39 170.9,-343.07 160.35,-344.02 163.25,-350.39"/>
</g>
<!-- OutputWorkspace -->
<g id="node2" class="node">
<title>OutputWorkspace</title>
<ellipse fill="khaki" stroke="black" cx="309.6" cy="-18" rx="91.78" ry="18"/>
<text text-anchor="middle" x="309.6" y="-14.3" font-family="Helvetica,sans-Serif" font-size="14.00">OutputWorkspace</text>
</g>
<!-- InputWorkspace -->
<g id="node3" class="node">
<title>InputWorkspace</title>
<ellipse fill="khaki" stroke="black" cx="210.6" cy="-397" rx="83.69" ry="18"/>
<text text-anchor="middle" x="210.6" y="-393.3" font-family="Helvetica,sans-Serif" font-size="14.00">InputWorkspace</text>
</g>
<!-- InputWorkspace&#45;&gt;scale -->
<g id="edge4" class="edge">
<title>InputWorkspace&#45;&gt;scale</title>
<path fill="none" stroke="black" d="M210.6,-378.81C210.6,-371.23 210.6,-362.1 210.6,-353.54"/>
<polygon fill="black" stroke="black" points="214.1,-353.54 210.6,-343.54 207.1,-353.54 214.1,-353.54"/>
</g>
<!-- NoPix -->
<g id="node4" class="node">
<title>NoPix</title>
<ellipse fill="khaki" stroke="black" cx="411.6" cy="-251" rx="36.29" ry="18"/>
<text text-anchor="middle" x="411.6" y="-247.3" font-family="Helvetica,sans-Serif" font-size="14.00">NoPix</text>
</g>
<!-- noPixQuestion -->
<g id="node8" class="node">
<title>noPixQuestion</title>
<polygon fill="limegreen" stroke="black" points="310.6,-196 252.78,-178 310.6,-160 368.41,-178 310.6,-196"/>
<text text-anchor="middle" x="310.6" y="-174.3" font-family="Helvetica,sans-Serif" font-size="14.00">NoPix?</text>
</g>
<!-- NoPix&#45;&gt;noPixQuestion -->
<g id="edge3" class="edge">
<title>NoPix&#45;&gt;noPixQuestion</title>
<path fill="none" stroke="black" d="M391.16,-235.63C375.54,-224.66 353.91,-209.45 336.99,-197.55"/>
<polygon fill="black" stroke="black" points="339.08,-194.75 328.89,-191.86 335.06,-200.47 339.08,-194.75"/>
</g>
<!-- InterpretQDimensionUnits -->
<g id="node5" class="node">
<title>InterpretQDimensionUnits</title>
<ellipse fill="khaki" stroke="black" cx="441.6" cy="-397" rx="128.88" ry="18"/>
<text text-anchor="middle" x="441.6" y="-393.3" font-family="Helvetica,sans-Serif" font-size="14.00">InterpretQDimensionUnits</text>
</g>
<!-- InterpretQDimensionUnits&#45;&gt;scale -->
<g id="edge2" class="edge">
<title>InterpretQDimensionUnits&#45;&gt;scale</title>
<path fill="none" stroke="black" d="M389.75,-380.07C356.84,-369.95 313.91,-356.75 278.32,-345.81"/>
<polygon fill="black" stroke="black" points="279.56,-342.54 268.97,-342.94 277.5,-349.23 279.56,-342.54"/>
</g>
<!-- sliceMD -->
<g id="node6" class="node">
<title>sliceMD</title>
<path fill="lightskyblue" stroke="black" d="M398.1,-109C398.1,-109 329.1,-109 329.1,-109 323.1,-109 317.1,-103 317.1,-97 317.1,-97 317.1,-85 317.1,-85 317.1,-79 323.1,-73 329.1,-73 329.1,-73 398.1,-73 398.1,-73 404.1,-73 410.1,-79 410.1,-85 410.1,-85 410.1,-97 410.1,-97 410.1,-103 404.1,-109 398.1,-109"/>
<text text-anchor="middle" x="363.6" y="-87.3" font-family="Helvetica,sans-Serif" font-size="14.00">SliceMD v1</text>
</g>
<!-- sliceMD&#45;&gt;OutputWorkspace -->
<g id="edge9" class="edge">
<title>sliceMD&#45;&gt;OutputWorkspace</title>
<path fill="none" stroke="black" d="M350.52,-72.81C344.16,-64.44 336.36,-54.2 329.3,-44.9"/>
<polygon fill="black" stroke="black" points="332.3,-43.07 323.46,-37.23 326.73,-47.31 332.3,-43.07"/>
</g>
<!-- binMD -->
<g id="node7" class="node">
<title>binMD</title>
<path fill="lightskyblue" stroke="black" d="M287.1,-109C287.1,-109 228.1,-109 228.1,-109 222.1,-109 216.1,-103 216.1,-97 216.1,-97 216.1,-85 216.1,-85 216.1,-79 222.1,-73 228.1,-73 228.1,-73 287.1,-73 287.1,-73 293.1,-73 299.1,-79 299.1,-85 299.1,-85 299.1,-97 299.1,-97 299.1,-103 293.1,-109 287.1,-109"/>
<text text-anchor="middle" x="257.6" y="-87.3" font-family="Helvetica,sans-Serif" font-size="14.00">BinMD v1</text>
</g>
<!-- binMD&#45;&gt;OutputWorkspace -->
<g id="edge10" class="edge">
<title>binMD&#45;&gt;OutputWorkspace</title>
<path fill="none" stroke="black" d="M270.18,-72.81C276.25,-64.53 283.66,-54.41 290.41,-45.19"/>
<polygon fill="black" stroke="black" points="293.14,-47.39 296.23,-37.25 287.5,-43.25 293.14,-47.39"/>
</g>
<!-- noPixQuestion&#45;&gt;sliceMD -->
<g id="edge8" class="edge">
<title>noPixQuestion&#45;&gt;sliceMD</title>
<path fill="none" stroke="black" d="M319.59,-162.58C327.02,-150.65 337.8,-133.38 346.82,-118.91"/>
<polygon fill="black" stroke="black" points="349.6,-121.06 351.92,-110.72 343.66,-117.35 349.6,-121.06"/>
<text text-anchor="middle" x="350.1" y="-130.8" font-family="Helvetica,sans-Serif" font-size="14.00">No</text>
</g>
<!-- noPixQuestion&#45;&gt;binMD -->
<g id="edge7" class="edge">
<title>noPixQuestion&#45;&gt;binMD</title>
<path fill="none" stroke="black" d="M301.6,-162.58C294.17,-150.65 283.4,-133.38 274.37,-118.91"/>
<polygon fill="black" stroke="black" points="277.53,-117.35 269.27,-110.72 271.59,-121.06 277.53,-117.35"/>
<text text-anchor="middle" x="299.1" y="-130.8" font-family="Helvetica,sans-Serif" font-size="14.00">Yes</text>
</g>
<!-- extents -->
<g id="node10" class="node">
<title>extents</title>
<polygon fill="lightseagreen" stroke="black" points="357.1,-269 64.1,-269 64.1,-233 357.1,-233 357.1,-269"/>
<text text-anchor="middle" x="210.6" y="-247.3" font-family="Helvetica,sans-Serif" font-size="14.00">Calculate extents of the new workspace</text>
</g>
<!-- scale&#45;&gt;extents -->
<g id="edge5" class="edge">
<title>scale&#45;&gt;extents</title>
<path fill="none" stroke="black" d="M210.6,-305.81C210.6,-298.23 210.6,-289.1 210.6,-280.54"/>
<polygon fill="black" stroke="black" points="214.1,-280.54 210.6,-270.54 207.1,-280.54 214.1,-280.54"/>
</g>
<!-- extents&#45;&gt;noPixQuestion -->
<g id="edge6" class="edge">
<title>extents&#45;&gt;noPixQuestion</title>
<path fill="none" stroke="black" d="M235.06,-232.63C249.95,-222.06 268.98,-208.55 284.21,-197.73"/>
<polygon fill="black" stroke="black" points="286.23,-200.59 292.35,-191.95 282.17,-194.89 286.23,-200.59"/>
</g>
</g>
</svg>
