<?xml version="1.0" encoding="UTF-8" standalone="no"?>
<!DOCTYPE svg PUBLIC "-//W3C//DTD SVG 1.1//EN"
 "http://www.w3.org/Graphics/SVG/1.1/DTD/svg11.dtd">
<!-- Generated by graphviz version 7.0.5 (20221231.0122)
 -->
<!-- Title: Sample Pages: 1 -->
<svg width="796pt" height="980pt"
 viewBox="0.00 0.00 795.97 980.00" xmlns="http://www.w3.org/2000/svg" xmlns:xlink="http://www.w3.org/1999/xlink">
<g id="graph0" class="graph" transform="scale(1 1) rotate(0) translate(4 976)">
<title>Sample</title>
<polygon fill="white" stroke="none" points="-4,4 -4,-976 791.97,-976 791.97,4 -4,4"/>
<!-- ExportAscii -->
<g id="node1" class="node">
<title>ExportAscii</title>
<polygon fill="limegreen" stroke="black" points="645.69,-108 558.55,-90 645.69,-72 732.83,-90 645.69,-108"/>
<text text-anchor="middle" x="645.69" y="-86.3" font-family="Helvetica,sans-Serif" font-size="14.00">ExportAscii</text>
</g>
<!-- SaveAscii -->
<g id="node19" class="node">
<title>SaveAscii</title>
<path fill="lightskyblue" stroke="black" d="M675.19,-36C675.19,-36 616.19,-36 616.19,-36 610.19,-36 604.19,-30 604.19,-24 604.19,-24 604.19,-12 604.19,-12 604.19,-6 610.19,0 616.19,0 616.19,0 675.19,0 675.19,0 681.19,0 687.19,-6 687.19,-12 687.19,-12 687.19,-24 687.19,-24 687.19,-30 681.19,-36 675.19,-36"/>
<text text-anchor="middle" x="645.69" y="-14.3" font-family="Helvetica,sans-Serif" font-size="14.00">SaveAscii</text>
</g>
<!-- ExportAscii&#45;&gt;SaveAscii -->
<g id="edge23" class="edge">
<title>ExportAscii&#45;&gt;SaveAscii</title>
<path fill="none" stroke="black" d="M645.69,-71.7C645.69,-64.41 645.69,-55.73 645.69,-47.54"/>
<polygon fill="black" stroke="black" points="649.19,-47.62 645.69,-37.62 642.19,-47.62 649.19,-47.62"/>
</g>
<!-- CorrectDeadTime -->
<g id="node2" class="node">
<title>CorrectDeadTime</title>
<polygon fill="limegreen" stroke="black" points="634.69,-756 509.68,-738 634.69,-720 759.7,-738 634.69,-756"/>
<text text-anchor="middle" x="634.69" y="-734.3" font-family="Helvetica,sans-Serif" font-size="14.00">CorrectDeadTime</text>
</g>
<!-- CorrectBankPositions -->
<g id="node3" class="node">
<title>CorrectBankPositions</title>
<polygon fill="limegreen" stroke="black" points="601.69,-612 452.04,-594 601.69,-576 751.34,-594 601.69,-612"/>
<text text-anchor="middle" x="601.69" y="-590.3" font-family="Helvetica,sans-Serif" font-size="14.00">CorrectBankPositions</text>
</g>
<!-- CorrectDeadTime&#45;&gt;CorrectBankPositions -->
<g id="edge9" class="edge">
<title>CorrectDeadTime&#45;&gt;CorrectBankPositions</title>
<path fill="none" stroke="black" d="M644.59,-721.08C654.56,-702.88 667.09,-672.46 656.69,-648 651.61,-636.04 642.35,-625.47 632.87,-616.98"/>
<polygon fill="black" stroke="black" points="635.3,-614.45 625.37,-610.75 630.83,-619.83 635.3,-614.45"/>
</g>
<!-- DeadTimeCorrection -->
<g id="node15" class="node">
<title>DeadTimeCorrection</title>
<path fill="lightskyblue" stroke="black" d="M635.19,-684C635.19,-684 502.19,-684 502.19,-684 496.19,-684 490.19,-678 490.19,-672 490.19,-672 490.19,-660 490.19,-660 490.19,-654 496.19,-648 502.19,-648 502.19,-648 635.19,-648 635.19,-648 641.19,-648 647.19,-654 647.19,-660 647.19,-660 647.19,-672 647.19,-672 647.19,-678 641.19,-684 635.19,-684"/>
<text text-anchor="middle" x="568.69" y="-662.3" font-family="Helvetica,sans-Serif" font-size="14.00">DeadTimeCorrection</text>
</g>
<!-- CorrectDeadTime&#45;&gt;DeadTimeCorrection -->
<g id="edge7" class="edge">
<title>CorrectDeadTime&#45;&gt;DeadTimeCorrection</title>
<path fill="none" stroke="black" d="M620.37,-721.81C612.28,-713.23 601.95,-702.27 592.66,-692.42"/>
<polygon fill="black" stroke="black" points="595.28,-690.1 585.88,-685.23 590.19,-694.9 595.28,-690.1"/>
</g>
<!-- CorrectRelativeEfficiencies -->
<g id="node4" class="node">
<title>CorrectRelativeEfficiencies</title>
<polygon fill="limegreen" stroke="black" points="576.69,-468 393.87,-450 576.69,-432 759.51,-450 576.69,-468"/>
<text text-anchor="middle" x="576.69" y="-446.3" font-family="Helvetica,sans-Serif" font-size="14.00">CorrectRelativeEfficiencies</text>
</g>
<!-- CorrectBankPositions&#45;&gt;CorrectRelativeEfficiencies -->
<g id="edge14" class="edge">
<title>CorrectBankPositions&#45;&gt;CorrectRelativeEfficiencies</title>
<path fill="none" stroke="black" d="M598.67,-575.87C594.45,-551.88 586.72,-507.99 581.65,-479.16"/>
<polygon fill="black" stroke="black" points="585.16,-478.92 579.98,-469.68 578.27,-480.14 585.16,-478.92"/>
</g>
<!-- RotateInstrumentComponent -->
<g id="node16" class="node">
<title>RotateInstrumentComponent</title>
<path fill="lightskyblue" stroke="black" d="M492.69,-540C492.69,-540 298.69,-540 298.69,-540 292.69,-540 286.69,-534 286.69,-528 286.69,-528 286.69,-516 286.69,-516 286.69,-510 292.69,-504 298.69,-504 298.69,-504 492.69,-504 492.69,-504 498.69,-504 504.69,-510 504.69,-516 504.69,-516 504.69,-528 504.69,-528 504.69,-534 498.69,-540 492.69,-540"/>
<text text-anchor="middle" x="395.69" y="-518.3" font-family="Helvetica,sans-Serif" font-size="14.00">RotateInstrumentComponent</text>
</g>
<!-- CorrectBankPositions&#45;&gt;RotateInstrumentComponent -->
<g id="edge10" class="edge">
<title>CorrectBankPositions&#45;&gt;RotateInstrumentComponent</title>
<path fill="none" stroke="black" d="M563.91,-580.16C534.12,-570.04 491.96,-555.71 457.31,-543.94"/>
<polygon fill="black" stroke="black" points="458.84,-540.76 448.25,-540.86 456.59,-547.39 458.84,-540.76"/>
</g>
<!-- Divide -->
<g id="node17" class="node">
<title>Divide</title>
<path fill="lightskyblue" stroke="black" d="M594.69,-396C594.69,-396 558.69,-396 558.69,-396 552.69,-396 546.69,-390 546.69,-384 546.69,-384 546.69,-372 546.69,-372 546.69,-366 552.69,-360 558.69,-360 558.69,-360 594.69,-360 594.69,-360 600.69,-360 606.69,-366 606.69,-372 606.69,-372 606.69,-384 606.69,-384 606.69,-390 600.69,-396 594.69,-396"/>
<text text-anchor="middle" x="576.69" y="-374.3" font-family="Helvetica,sans-Serif" font-size="14.00">Divide</text>
</g>
<!-- CorrectRelativeEfficiencies&#45;&gt;Divide -->
<g id="edge15" class="edge">
<title>CorrectRelativeEfficiencies&#45;&gt;Divide</title>
<path fill="none" stroke="black" d="M576.69,-431.7C576.69,-424.41 576.69,-415.73 576.69,-407.54"/>
<polygon fill="black" stroke="black" points="580.19,-407.62 576.69,-397.62 573.19,-407.62 580.19,-407.62"/>
</g>
<!-- Normalise -->
<g id="node5" class="node">
<title>Normalise</title>
<polygon fill="limegreen" stroke="black" points="681.69,-324 602.59,-306 681.69,-288 760.78,-306 681.69,-324"/>
<text text-anchor="middle" x="681.69" y="-302.3" font-family="Helvetica,sans-Serif" font-size="14.00">Normalise</text>
</g>
<!-- OutputWorkspace -->
<g id="node11" class="node">
<title>OutputWorkspace</title>
<polygon fill="grey" stroke="black" points="754.46,-180 581.43,-180 536.92,-144 709.95,-144 754.46,-180"/>
<text text-anchor="middle" x="645.69" y="-158.3" font-family="Times,serif" font-size="14.00">OutputWorkspace</text>
</g>
<!-- Normalise&#45;&gt;OutputWorkspace -->
<g id="edge21" class="edge">
<title>Normalise&#45;&gt;OutputWorkspace</title>
<path fill="none" stroke="black" d="M678.68,-288.48C675.28,-270.52 669.36,-241.04 662.69,-216 660.49,-207.75 657.79,-198.88 655.18,-190.8"/>
<polygon fill="black" stroke="black" points="658.57,-189.9 652.11,-181.49 651.92,-192.09 658.57,-189.9"/>
</g>
<!-- Divide2 -->
<g id="node18" class="node">
<title>Divide2</title>
<path fill="lightskyblue" stroke="black" d="M641.69,-252C641.69,-252 579.69,-252 579.69,-252 573.69,-252 567.69,-246 567.69,-240 567.69,-240 567.69,-228 567.69,-228 567.69,-222 573.69,-216 579.69,-216 579.69,-216 641.69,-216 641.69,-216 647.69,-216 653.69,-222 653.69,-228 653.69,-228 653.69,-240 653.69,-240 653.69,-246 647.69,-252 641.69,-252"/>
<text text-anchor="middle" x="610.69" y="-230.3" font-family="Helvetica,sans-Serif" font-size="14.00">Normalise</text>
</g>
<!-- Normalise&#45;&gt;Divide2 -->
<g id="edge18" class="edge">
<title>Normalise&#45;&gt;Divide2</title>
<path fill="none" stroke="black" d="M667.32,-290.83C658.43,-282.07 646.77,-270.57 636.33,-260.28"/>
<polygon fill="black" stroke="black" points="638.96,-257.96 629.38,-253.43 634.05,-262.94 638.96,-257.96"/>
</g>
<!-- Runs -->
<g id="node6" class="node">
<title>Runs</title>
<ellipse fill="khaki" stroke="black" cx="558.69" cy="-954" rx="33.29" ry="18"/>
<text text-anchor="middle" x="558.69" y="-950.3" font-family="Helvetica,sans-Serif" font-size="14.00">Runs</text>
</g>
<!-- LoadAndMerge -->
<g id="node12" class="node">
<title>LoadAndMerge</title>
<path fill="lightskyblue" stroke="black" d="M606.69,-900C606.69,-900 510.69,-900 510.69,-900 504.69,-900 498.69,-894 498.69,-888 498.69,-888 498.69,-876 498.69,-876 498.69,-870 504.69,-864 510.69,-864 510.69,-864 606.69,-864 606.69,-864 612.69,-864 618.69,-870 618.69,-876 618.69,-876 618.69,-888 618.69,-888 618.69,-894 612.69,-900 606.69,-900"/>
<text text-anchor="middle" x="558.69" y="-878.3" font-family="Helvetica,sans-Serif" font-size="14.00">LoadAndMerge</text>
</g>
<!-- Runs&#45;&gt;LoadAndMerge -->
<g id="edge1" class="edge">
<title>Runs&#45;&gt;LoadAndMerge</title>
<path fill="none" stroke="black" d="M558.69,-935.7C558.69,-928.41 558.69,-919.73 558.69,-911.54"/>
<polygon fill="black" stroke="black" points="562.19,-911.62 558.69,-901.62 555.19,-911.62 562.19,-911.62"/>
</g>
<!-- BankPositionOffsetsFile -->
<g id="node7" class="node">
<title>BankPositionOffsetsFile</title>
<ellipse fill="khaki" stroke="black" cx="115.69" cy="-594" rx="115.88" ry="18"/>
<text text-anchor="middle" x="115.69" y="-590.3" font-family="Helvetica,sans-Serif" font-size="14.00">BankPositionOffsetsFile</text>
</g>
<!-- BankPositionOffsetsFile&#45;&gt;RotateInstrumentComponent -->
<g id="edge11" class="edge">
<title>BankPositionOffsetsFile&#45;&gt;RotateInstrumentComponent</title>
<path fill="none" stroke="black" d="M175.07,-578.15C215.69,-568 270.05,-554.41 314.65,-543.26"/>
<polygon fill="black" stroke="black" points="315.44,-546.67 324.29,-540.85 313.74,-539.88 315.44,-546.67"/>
</g>
<!-- ZeroPositionAngle -->
<g id="node8" class="node">
<title>ZeroPositionAngle</title>
<ellipse fill="khaki" stroke="black" cx="341.69" cy="-594" rx="92.08" ry="18"/>
<text text-anchor="middle" x="341.69" y="-590.3" font-family="Helvetica,sans-Serif" font-size="14.00">ZeroPositionAngle</text>
</g>
<!-- ZeroPositionAngle&#45;&gt;RotateInstrumentComponent -->
<g id="edge12" class="edge">
<title>ZeroPositionAngle&#45;&gt;RotateInstrumentComponent</title>
<path fill="none" stroke="black" d="M355.04,-575.7C361.25,-567.64 368.77,-557.89 375.65,-548.98"/>
<polygon fill="black" stroke="black" points="378.23,-551.36 381.57,-541.3 372.69,-547.08 378.23,-551.36"/>
</g>
<!-- EfficiencyCalibrationFile -->
<g id="node9" class="node">
<title>EfficiencyCalibrationFile</title>
<ellipse fill="khaki" stroke="black" cx="257.69" cy="-450" rx="117.78" ry="18"/>
<text text-anchor="middle" x="257.69" y="-446.3" font-family="Helvetica,sans-Serif" font-size="14.00">EfficiencyCalibrationFile</text>
</g>
<!-- EfficiencyCalibrationFile&#45;&gt;Divide -->
<g id="edge16" class="edge">
<title>EfficiencyCalibrationFile&#45;&gt;Divide</title>
<path fill="none" stroke="black" d="M323.01,-434.67C386.53,-420.73 481.08,-399.98 535.01,-388.15"/>
<polygon fill="black" stroke="black" points="535.7,-391.58 544.72,-386.02 534.2,-384.74 535.7,-391.58"/>
</g>
<!-- NormalisationStandard -->
<g id="node10" class="node">
<title>NormalisationStandard</title>
<ellipse fill="khaki" stroke="black" cx="470.69" cy="-306" rx="113.98" ry="18"/>
<text text-anchor="middle" x="470.69" y="-302.3" font-family="Helvetica,sans-Serif" font-size="14.00">NormalisationStandard</text>
</g>
<!-- NormalisationStandard&#45;&gt;Divide2 -->
<g id="edge19" class="edge">
<title>NormalisationStandard&#45;&gt;Divide2</title>
<path fill="none" stroke="black" d="M503.87,-288.41C522.32,-279.18 545.55,-267.57 565.63,-257.53"/>
<polygon fill="black" stroke="black" points="567.06,-260.73 574.44,-253.12 563.93,-254.47 567.06,-260.73"/>
</g>
<!-- OutputWorkspace&#45;&gt;ExportAscii -->
<g id="edge22" class="edge">
<title>OutputWorkspace&#45;&gt;ExportAscii</title>
<path fill="none" stroke="black" d="M645.69,-143.7C645.69,-136.41 645.69,-127.73 645.69,-119.54"/>
<polygon fill="black" stroke="black" points="649.19,-119.62 645.69,-109.62 642.19,-119.62 649.19,-119.62"/>
</g>
<!-- LoadILLDiffraction -->
<g id="node13" class="node">
<title>LoadILLDiffraction</title>
<path fill="lightskyblue" stroke="black" d="M617.19,-828C617.19,-828 500.19,-828 500.19,-828 494.19,-828 488.19,-822 488.19,-816 488.19,-816 488.19,-804 488.19,-804 488.19,-798 494.19,-792 500.19,-792 500.19,-792 617.19,-792 617.19,-792 623.19,-792 629.19,-798 629.19,-804 629.19,-804 629.19,-816 629.19,-816 629.19,-822 623.19,-828 617.19,-828"/>
<text text-anchor="middle" x="558.69" y="-806.3" font-family="Helvetica,sans-Serif" font-size="14.00">LoadILLDiffraction</text>
</g>
<!-- LoadAndMerge&#45;&gt;LoadILLDiffraction -->
<g id="edge2" class="edge">
<title>LoadAndMerge&#45;&gt;LoadILLDiffraction</title>
<path fill="none" stroke="black" d="M552.77,-863.7C552.02,-856.41 551.78,-847.73 552.04,-839.54"/>
<polygon fill="black" stroke="black" points="555.53,-839.82 552.7,-829.61 548.55,-839.36 555.53,-839.82"/>
</g>
<!-- ExtractMonitors -->
<g id="node14" class="node">
<title>ExtractMonitors</title>
<path fill="lightskyblue" stroke="black" d="M761.69,-828C761.69,-828 659.69,-828 659.69,-828 653.69,-828 647.69,-822 647.69,-816 647.69,-816 647.69,-804 647.69,-804 647.69,-798 653.69,-792 659.69,-792 659.69,-792 761.69,-792 761.69,-792 767.69,-792 773.69,-798 773.69,-804 773.69,-804 773.69,-816 773.69,-816 773.69,-822 767.69,-828 761.69,-828"/>
<text text-anchor="middle" x="710.69" y="-806.3" font-family="Helvetica,sans-Serif" font-size="14.00">ExtractMonitors</text>
</g>
<!-- LoadAndMerge&#45;&gt;ExtractMonitors -->
<g id="edge4" class="edge">
<title>LoadAndMerge&#45;&gt;ExtractMonitors</title>
<path fill="none" stroke="black" d="M596.65,-863.52C616.59,-854.34 641.23,-842.99 662.49,-833.2"/>
<polygon fill="black" stroke="black" points="663.95,-836.38 671.57,-829.01 661.02,-830.02 663.95,-836.38"/>
</g>
<!-- LoadILLDiffraction&#45;&gt;LoadAndMerge -->
<g id="edge3" class="edge">
<title>LoadILLDiffraction&#45;&gt;LoadAndMerge</title>
<path fill="none" stroke="black" d="M564.58,-828.1C565.35,-835.37 565.6,-844.04 565.34,-852.24"/>
<polygon fill="black" stroke="black" points="561.85,-851.98 564.7,-862.19 568.84,-852.43 561.85,-851.98"/>
</g>
<!-- ExtractMonitors&#45;&gt;CorrectDeadTime -->
<g id="edge5" class="edge">
<title>ExtractMonitors&#45;&gt;CorrectDeadTime</title>
<path fill="none" stroke="black" d="M691.9,-791.7C682.08,-782.65 669.94,-771.46 659.37,-761.73"/>
<polygon fill="black" stroke="black" points="661.78,-759.2 652.06,-755 657.04,-764.34 661.78,-759.2"/>
</g>
<!-- ExtractMonitors&#45;&gt;Normalise -->
<g id="edge6" class="edge">
<title>ExtractMonitors&#45;&gt;Normalise</title>
<path fill="none" stroke="black" d="M736.1,-791.58C747.74,-782.32 760.69,-769.97 768.69,-756 788.8,-720.91 787.69,-707.45 787.69,-667 787.69,-667 787.69,-667 787.69,-449 787.69,-396.64 740.84,-351.14 709.43,-326.52"/>
<polygon fill="black" stroke="black" points="711.93,-324.02 701.85,-320.76 707.7,-329.6 711.93,-324.02"/>
</g>
<!-- DeadTimeCorrection&#45;&gt;CorrectBankPositions -->
<g id="edge8" class="edge">
<title>DeadTimeCorrection&#45;&gt;CorrectBankPositions</title>
<path fill="none" stroke="black" d="M576.85,-647.7C580.59,-639.75 585.12,-630.16 589.27,-621.34"/>
<polygon fill="black" stroke="black" points="592.33,-623.05 593.43,-612.51 586,-620.07 592.33,-623.05"/>
</g>
<!-- RotateInstrumentComponent&#45;&gt;CorrectRelativeEfficiencies -->
<g id="edge13" class="edge">
<title>RotateInstrumentComponent&#45;&gt;CorrectRelativeEfficiencies</title>
<path fill="none" stroke="black" d="M440.9,-503.52C468.17,-492.97 502.83,-479.57 530.31,-468.94"/>
<polygon fill="black" stroke="black" points="531.36,-472.28 539.42,-465.41 528.83,-465.76 531.36,-472.28"/>
</g>
<!-- Divide&#45;&gt;Normalise -->
<g id="edge17" class="edge">
<title>Divide&#45;&gt;Normalise</title>
<path fill="none" stroke="black" d="M602.91,-359.52C618.21,-349.32 637.51,-336.46 653.17,-326.01"/>
<polygon fill="black" stroke="black" points="654.75,-329.16 661.13,-320.7 650.87,-323.34 654.75,-329.16"/>
</g>
<!-- Divide2&#45;&gt;OutputWorkspace -->
<g id="edge20" class="edge">
<title>Divide2&#45;&gt;OutputWorkspace</title>
<path fill="none" stroke="black" d="M619.34,-215.7C623.16,-208.07 627.73,-198.92 631.99,-190.4"/>
<polygon fill="black" stroke="black" points="635.12,-191.97 636.46,-181.46 628.86,-188.84 635.12,-191.97"/>
</g>
</g>
</svg>
