<?xml version="1.0" encoding="UTF-8" standalone="no"?>
<!DOCTYPE svg PUBLIC "-//W3C//DTD SVG 1.1//EN"
 "http://www.w3.org/Graphics/SVG/1.1/DTD/svg11.dtd">
<!-- Generated by graphviz version 13.1.0 (20250701.1702)
 -->
<!-- Title: Sample Pages: 1 -->
<svg width="859pt" height="980pt"
 viewBox="0.00 0.00 859.00 980.00" xmlns="http://www.w3.org/2000/svg" xmlns:xlink="http://www.w3.org/1999/xlink">
<g id="graph0" class="graph" transform="scale(1 1) rotate(0) translate(4 976)">
<title>Sample</title>
<polygon fill="white" stroke="none" points="-4,4 -4,-976 854.76,-976 854.76,4 -4,4"/>
<!-- ExportAscii -->
<g id="node1" class="node">
<title>ExportAscii</title>
<polygon fill="limegreen" stroke="black" points="702.34,-108 609.09,-90 702.34,-72 795.59,-90 702.34,-108"/>
<text xml:space="preserve" text-anchor="middle" x="702.34" y="-85.33" font-family="Helvetica,sans-Serif" font-size="14.00">ExportAscii</text>
</g>
<!-- SaveAscii -->
<g id="node19" class="node">
<title>SaveAscii</title>
<path fill="lightskyblue" stroke="black" d="M731.34,-36C731.34,-36 673.34,-36 673.34,-36 667.34,-36 661.34,-30 661.34,-24 661.34,-24 661.34,-12 661.34,-12 661.34,-6 667.34,0 673.34,0 673.34,0 731.34,0 731.34,0 737.34,0 743.34,-6 743.34,-12 743.34,-12 743.34,-24 743.34,-24 743.34,-30 737.34,-36 731.34,-36"/>
<text xml:space="preserve" text-anchor="middle" x="702.34" y="-13.32" font-family="Helvetica,sans-Serif" font-size="14.00">SaveAscii</text>
</g>
<!-- ExportAscii&#45;&gt;SaveAscii -->
<g id="edge23" class="edge">
<title>ExportAscii&#45;&gt;SaveAscii</title>
<path fill="none" stroke="black" d="M702.34,-71.7C702.34,-64.41 702.34,-55.73 702.34,-47.54"/>
<polygon fill="black" stroke="black" points="705.84,-47.62 702.34,-37.62 698.84,-47.62 705.84,-47.62"/>
</g>
<!-- CorrectDeadTime -->
<g id="node2" class="node">
<title>CorrectDeadTime</title>
<polygon fill="limegreen" stroke="black" points="688.34,-756 554.16,-738 688.34,-720 822.51,-738 688.34,-756"/>
<text xml:space="preserve" text-anchor="middle" x="688.34" y="-733.33" font-family="Helvetica,sans-Serif" font-size="14.00">CorrectDeadTime</text>
</g>
<!-- CorrectBankPositions -->
<g id="node3" class="node">
<title>CorrectBankPositions</title>
<polygon fill="limegreen" stroke="black" points="643.34,-612 482.38,-594 643.34,-576 804.3,-594 643.34,-612"/>
<text xml:space="preserve" text-anchor="middle" x="643.34" y="-589.33" font-family="Helvetica,sans-Serif" font-size="14.00">CorrectBankPositions</text>
</g>
<!-- CorrectDeadTime&#45;&gt;CorrectBankPositions -->
<g id="edge9" class="edge">
<title>CorrectDeadTime&#45;&gt;CorrectBankPositions</title>
<path fill="none" stroke="black" d="M698.02,-720.87C707.71,-702.49 719.68,-671.89 708.34,-648 702.19,-635.05 691.16,-624.23 679.91,-615.8"/>
<polygon fill="black" stroke="black" points="681.97,-612.97 671.75,-610.16 677.99,-618.73 681.97,-612.97"/>
</g>
<!-- DeadTimeCorrection -->
<g id="node15" class="node">
<title>DeadTimeCorrection</title>
<path fill="lightskyblue" stroke="black" d="M687.46,-684C687.46,-684 555.21,-684 555.21,-684 549.21,-684 543.21,-678 543.21,-672 543.21,-672 543.21,-660 543.21,-660 543.21,-654 549.21,-648 555.21,-648 555.21,-648 687.46,-648 687.46,-648 693.46,-648 699.46,-654 699.46,-660 699.46,-660 699.46,-672 699.46,-672 699.46,-678 693.46,-684 687.46,-684"/>
<text xml:space="preserve" text-anchor="middle" x="621.34" y="-661.33" font-family="Helvetica,sans-Serif" font-size="14.00">DeadTimeCorrection</text>
</g>
<!-- CorrectDeadTime&#45;&gt;DeadTimeCorrection -->
<g id="edge7" class="edge">
<title>CorrectDeadTime&#45;&gt;DeadTimeCorrection</title>
<path fill="none" stroke="black" d="M673.8,-721.81C665.58,-713.23 655.1,-702.27 645.67,-692.42"/>
<polygon fill="black" stroke="black" points="648.22,-690.02 638.78,-685.22 643.16,-694.86 648.22,-690.02"/>
</g>
<!-- CorrectRelativeEfficiencies -->
<g id="node4" class="node">
<title>CorrectRelativeEfficiencies</title>
<polygon fill="limegreen" stroke="black" points="625.34,-468 428.66,-450 625.34,-432 822.01,-450 625.34,-468"/>
<text xml:space="preserve" text-anchor="middle" x="625.34" y="-445.32" font-family="Helvetica,sans-Serif" font-size="14.00">CorrectRelativeEfficiencies</text>
</g>
<!-- CorrectBankPositions&#45;&gt;CorrectRelativeEfficiencies -->
<g id="edge14" class="edge">
<title>CorrectBankPositions&#45;&gt;CorrectRelativeEfficiencies</title>
<path fill="none" stroke="black" d="M641.17,-575.87C638.14,-551.99 632.61,-508.38 628.96,-479.54"/>
<polygon fill="black" stroke="black" points="632.44,-479.17 627.71,-469.69 625.49,-480.05 632.44,-479.17"/>
</g>
<!-- RotateInstrumentComponent -->
<g id="node16" class="node">
<title>RotateInstrumentComponent</title>
<path fill="lightskyblue" stroke="black" d="M533.21,-540C533.21,-540 339.46,-540 339.46,-540 333.46,-540 327.46,-534 327.46,-528 327.46,-528 327.46,-516 327.46,-516 327.46,-510 333.46,-504 339.46,-504 339.46,-504 533.21,-504 533.21,-504 539.21,-504 545.21,-510 545.21,-516 545.21,-516 545.21,-528 545.21,-528 545.21,-534 539.21,-540 533.21,-540"/>
<text xml:space="preserve" text-anchor="middle" x="436.34" y="-517.33" font-family="Helvetica,sans-Serif" font-size="14.00">RotateInstrumentComponent</text>
</g>
<!-- CorrectBankPositions&#45;&gt;RotateInstrumentComponent -->
<g id="edge10" class="edge">
<title>CorrectBankPositions&#45;&gt;RotateInstrumentComponent</title>
<path fill="none" stroke="black" d="M604.89,-580C575.01,-569.89 532.96,-555.68 498.34,-543.97"/>
<polygon fill="black" stroke="black" points="499.89,-540.79 489.29,-540.91 497.64,-547.43 499.89,-540.79"/>
</g>
<!-- Divide -->
<g id="node17" class="node">
<title>Divide</title>
<path fill="lightskyblue" stroke="black" d="M643.09,-396C643.09,-396 607.59,-396 607.59,-396 601.59,-396 595.59,-390 595.59,-384 595.59,-384 595.59,-372 595.59,-372 595.59,-366 601.59,-360 607.59,-360 607.59,-360 643.09,-360 643.09,-360 649.09,-360 655.09,-366 655.09,-372 655.09,-372 655.09,-384 655.09,-384 655.09,-390 649.09,-396 643.09,-396"/>
<text xml:space="preserve" text-anchor="middle" x="625.34" y="-373.32" font-family="Helvetica,sans-Serif" font-size="14.00">Divide</text>
</g>
<!-- CorrectRelativeEfficiencies&#45;&gt;Divide -->
<g id="edge15" class="edge">
<title>CorrectRelativeEfficiencies&#45;&gt;Divide</title>
<path fill="none" stroke="black" d="M625.34,-431.7C625.34,-424.41 625.34,-415.73 625.34,-407.54"/>
<polygon fill="black" stroke="black" points="628.84,-407.62 625.34,-397.62 621.84,-407.62 628.84,-407.62"/>
</g>
<!-- Normalise -->
<g id="node5" class="node">
<title>Normalise</title>
<polygon fill="limegreen" stroke="black" points="738.34,-324 654.01,-306 738.34,-288 822.66,-306 738.34,-324"/>
<text xml:space="preserve" text-anchor="middle" x="738.34" y="-301.32" font-family="Helvetica,sans-Serif" font-size="14.00">Normalise</text>
</g>
<!-- OutputWorkspace -->
<g id="node11" class="node">
<title>OutputWorkspace</title>
<polygon fill="grey" stroke="black" points="808.18,-180 639.81,-180 596.49,-144 764.87,-144 808.18,-180"/>
<text xml:space="preserve" text-anchor="middle" x="702.34" y="-155.82" font-family="Times,serif" font-size="14.00">OutputWorkspace</text>
</g>
<!-- Normalise&#45;&gt;OutputWorkspace -->
<g id="edge21" class="edge">
<title>Normalise&#45;&gt;OutputWorkspace</title>
<path fill="none" stroke="black" d="M735.26,-288.15C731.86,-270.16 725.97,-240.89 719.34,-216 717.14,-207.75 714.43,-198.88 711.83,-190.8"/>
<polygon fill="black" stroke="black" points="715.22,-189.9 708.76,-181.49 708.57,-192.09 715.22,-189.9"/>
</g>
<!-- Divide2 -->
<g id="node18" class="node">
<title>Divide2</title>
<path fill="lightskyblue" stroke="black" d="M697.84,-252C697.84,-252 636.84,-252 636.84,-252 630.84,-252 624.84,-246 624.84,-240 624.84,-240 624.84,-228 624.84,-228 624.84,-222 630.84,-216 636.84,-216 636.84,-216 697.84,-216 697.84,-216 703.84,-216 709.84,-222 709.84,-228 709.84,-228 709.84,-240 709.84,-240 709.84,-246 703.84,-252 697.84,-252"/>
<text xml:space="preserve" text-anchor="middle" x="667.34" y="-229.32" font-family="Helvetica,sans-Serif" font-size="14.00">Normalise</text>
</g>
<!-- Normalise&#45;&gt;Divide2 -->
<g id="edge18" class="edge">
<title>Normalise&#45;&gt;Divide2</title>
<path fill="none" stroke="black" d="M723.97,-290.83C715.08,-282.07 703.41,-270.57 692.98,-260.28"/>
<polygon fill="black" stroke="black" points="695.61,-257.96 686.03,-253.43 690.7,-262.94 695.61,-257.96"/>
</g>
<!-- Runs -->
<g id="node6" class="node">
<title>Runs</title>
<ellipse fill="khaki" stroke="black" cx="618.34" cy="-954" rx="35.42" ry="18"/>
<text xml:space="preserve" text-anchor="middle" x="618.34" y="-949.33" font-family="Helvetica,sans-Serif" font-size="14.00">Runs</text>
</g>
<!-- LoadAndMerge -->
<g id="node12" class="node">
<title>LoadAndMerge</title>
<path fill="lightskyblue" stroke="black" d="M666.09,-900C666.09,-900 570.59,-900 570.59,-900 564.59,-900 558.59,-894 558.59,-888 558.59,-888 558.59,-876 558.59,-876 558.59,-870 564.59,-864 570.59,-864 570.59,-864 666.09,-864 666.09,-864 672.09,-864 678.09,-870 678.09,-876 678.09,-876 678.09,-888 678.09,-888 678.09,-894 672.09,-900 666.09,-900"/>
<text xml:space="preserve" text-anchor="middle" x="618.34" y="-877.33" font-family="Helvetica,sans-Serif" font-size="14.00">LoadAndMerge</text>
</g>
<!-- Runs&#45;&gt;LoadAndMerge -->
<g id="edge1" class="edge">
<title>Runs&#45;&gt;LoadAndMerge</title>
<path fill="none" stroke="black" d="M618.34,-935.7C618.34,-928.41 618.34,-919.73 618.34,-911.54"/>
<polygon fill="black" stroke="black" points="621.84,-911.62 618.34,-901.62 614.84,-911.62 621.84,-911.62"/>
</g>
<!-- BankPositionOffsetsFile -->
<g id="node7" class="node">
<title>BankPositionOffsetsFile</title>
<ellipse fill="khaki" stroke="black" cx="124.34" cy="-594" rx="124.34" ry="18"/>
<text xml:space="preserve" text-anchor="middle" x="124.34" y="-589.33" font-family="Helvetica,sans-Serif" font-size="14.00">BankPositionOffsetsFile</text>
</g>
<!-- BankPositionOffsetsFile&#45;&gt;RotateInstrumentComponent -->
<g id="edge11" class="edge">
<title>BankPositionOffsetsFile&#45;&gt;RotateInstrumentComponent</title>
<path fill="none" stroke="black" d="M189.74,-578.33C235.51,-568.06 297.2,-554.22 347.42,-542.95"/>
<polygon fill="black" stroke="black" points="348.14,-546.37 357.13,-540.77 346.61,-539.54 348.14,-546.37"/>
</g>
<!-- ZeroPositionAngle -->
<g id="node8" class="node">
<title>ZeroPositionAngle</title>
<ellipse fill="khaki" stroke="black" cx="365.34" cy="-594" rx="99.08" ry="18"/>
<text xml:space="preserve" text-anchor="middle" x="365.34" y="-589.33" font-family="Helvetica,sans-Serif" font-size="14.00">ZeroPositionAngle</text>
</g>
<!-- ZeroPositionAngle&#45;&gt;RotateInstrumentComponent -->
<g id="edge12" class="edge">
<title>ZeroPositionAngle&#45;&gt;RotateInstrumentComponent</title>
<path fill="none" stroke="black" d="M382.52,-576.05C391.03,-567.67 401.47,-557.38 410.88,-548.1"/>
<polygon fill="black" stroke="black" points="413.07,-550.85 417.74,-541.34 408.16,-545.87 413.07,-550.85"/>
</g>
<!-- EfficiencyCalibrationFile -->
<g id="node9" class="node">
<title>EfficiencyCalibrationFile</title>
<ellipse fill="khaki" stroke="black" cx="284.34" cy="-450" rx="126.44" ry="18"/>
<text xml:space="preserve" text-anchor="middle" x="284.34" y="-445.32" font-family="Helvetica,sans-Serif" font-size="14.00">EfficiencyCalibrationFile</text>
</g>
<!-- EfficiencyCalibrationFile&#45;&gt;Divide -->
<g id="edge16" class="edge">
<title>EfficiencyCalibrationFile&#45;&gt;Divide</title>
<path fill="none" stroke="black" d="M354.17,-434.67C423.44,-420.45 527.25,-399.14 584.24,-387.44"/>
<polygon fill="black" stroke="black" points="584.75,-390.91 593.84,-385.47 583.34,-384.05 584.75,-390.91"/>
</g>
<!-- NormalisationStandard -->
<g id="node10" class="node">
<title>NormalisationStandard</title>
<ellipse fill="khaki" stroke="black" cx="513.34" cy="-306" rx="122.23" ry="18"/>
<text xml:space="preserve" text-anchor="middle" x="513.34" y="-301.32" font-family="Helvetica,sans-Serif" font-size="14.00">NormalisationStandard</text>
</g>
<!-- NormalisationStandard&#45;&gt;Divide2 -->
<g id="edge19" class="edge">
<title>NormalisationStandard&#45;&gt;Divide2</title>
<path fill="none" stroke="black" d="M549.83,-288.41C570.41,-279.06 596.39,-267.25 618.68,-257.12"/>
<polygon fill="black" stroke="black" points="619.92,-260.4 627.58,-253.07 617.02,-254.02 619.92,-260.4"/>
</g>
<!-- OutputWorkspace&#45;&gt;ExportAscii -->
<g id="edge22" class="edge">
<title>OutputWorkspace&#45;&gt;ExportAscii</title>
<path fill="none" stroke="black" d="M702.34,-143.7C702.34,-136.41 702.34,-127.73 702.34,-119.54"/>
<polygon fill="black" stroke="black" points="705.84,-119.62 702.34,-109.62 698.84,-119.62 705.84,-119.62"/>
</g>
<!-- LoadILLDiffraction -->
<g id="node13" class="node">
<title>LoadILLDiffraction</title>
<path fill="lightskyblue" stroke="black" d="M676.59,-828C676.59,-828 560.09,-828 560.09,-828 554.09,-828 548.09,-822 548.09,-816 548.09,-816 548.09,-804 548.09,-804 548.09,-798 554.09,-792 560.09,-792 560.09,-792 676.59,-792 676.59,-792 682.59,-792 688.59,-798 688.59,-804 688.59,-804 688.59,-816 688.59,-816 688.59,-822 682.59,-828 676.59,-828"/>
<text xml:space="preserve" text-anchor="middle" x="618.34" y="-805.33" font-family="Helvetica,sans-Serif" font-size="14.00">LoadILLDiffraction</text>
</g>
<!-- LoadAndMerge&#45;&gt;LoadILLDiffraction -->
<g id="edge2" class="edge">
<title>LoadAndMerge&#45;&gt;LoadILLDiffraction</title>
<path fill="none" stroke="black" d="M612.42,-863.7C611.67,-856.41 611.43,-847.73 611.69,-839.54"/>
<polygon fill="black" stroke="black" points="615.18,-839.82 612.34,-829.61 608.19,-839.36 615.18,-839.82"/>
</g>
<!-- ExtractMonitors -->
<g id="node14" class="node">
<title>ExtractMonitors</title>
<path fill="lightskyblue" stroke="black" d="M820.09,-828C820.09,-828 718.59,-828 718.59,-828 712.59,-828 706.59,-822 706.59,-816 706.59,-816 706.59,-804 706.59,-804 706.59,-798 712.59,-792 718.59,-792 718.59,-792 820.09,-792 820.09,-792 826.09,-792 832.09,-798 832.09,-804 832.09,-804 832.09,-816 832.09,-816 832.09,-822 826.09,-828 820.09,-828"/>
<text xml:space="preserve" text-anchor="middle" x="769.34" y="-805.33" font-family="Helvetica,sans-Serif" font-size="14.00">ExtractMonitors</text>
</g>
<!-- LoadAndMerge&#45;&gt;ExtractMonitors -->
<g id="edge4" class="edge">
<title>LoadAndMerge&#45;&gt;ExtractMonitors</title>
<path fill="none" stroke="black" d="M656.05,-863.52C675.85,-854.34 700.33,-842.99 721.46,-833.2"/>
<polygon fill="black" stroke="black" points="722.87,-836.4 730.47,-829.02 719.92,-830.05 722.87,-836.4"/>
</g>
<!-- LoadILLDiffraction&#45;&gt;LoadAndMerge -->
<g id="edge3" class="edge">
<title>LoadILLDiffraction&#45;&gt;LoadAndMerge</title>
<path fill="none" stroke="black" d="M624.23,-828.1C624.99,-835.37 625.25,-844.04 624.99,-852.24"/>
<polygon fill="black" stroke="black" points="621.5,-851.98 624.35,-862.19 628.49,-852.43 621.5,-851.98"/>
</g>
<!-- ExtractMonitors&#45;&gt;CorrectDeadTime -->
<g id="edge5" class="edge">
<title>ExtractMonitors&#45;&gt;CorrectDeadTime</title>
<path fill="none" stroke="black" d="M749.31,-791.7C738.74,-782.56 725.64,-771.24 714.3,-761.44"/>
<polygon fill="black" stroke="black" points="716.66,-758.85 706.8,-754.96 712.08,-764.15 716.66,-758.85"/>
</g>
<!-- ExtractMonitors&#45;&gt;Normalise -->
<g id="edge6" class="edge">
<title>ExtractMonitors&#45;&gt;Normalise</title>
<path fill="none" stroke="black" d="M796.83,-791.68C809.18,-782.53 822.86,-770.24 831.34,-756 852.03,-721.24 850.34,-707.45 850.34,-667 850.34,-667 850.34,-667 850.34,-449 850.34,-395.85 801.36,-350.9 768.18,-326.54"/>
<polygon fill="black" stroke="black" points="770.3,-323.75 760.11,-320.82 766.25,-329.46 770.3,-323.75"/>
</g>
<!-- DeadTimeCorrection&#45;&gt;CorrectBankPositions -->
<g id="edge8" class="edge">
<title>DeadTimeCorrection&#45;&gt;CorrectBankPositions</title>
<path fill="none" stroke="black" d="M626.78,-647.7C629.15,-640.13 632.01,-631.06 634.67,-622.59"/>
<polygon fill="black" stroke="black" points="638,-623.66 637.66,-613.07 631.32,-621.56 638,-623.66"/>
</g>
<!-- RotateInstrumentComponent&#45;&gt;CorrectRelativeEfficiencies -->
<g id="edge13" class="edge">
<title>RotateInstrumentComponent&#45;&gt;CorrectRelativeEfficiencies</title>
<path fill="none" stroke="black" d="M483.54,-503.52C512.05,-492.96 548.28,-479.54 576.99,-468.91"/>
<polygon fill="black" stroke="black" points="578.01,-472.26 586.17,-465.51 575.58,-465.7 578.01,-472.26"/>
</g>
<!-- Divide&#45;&gt;Normalise -->
<g id="edge17" class="edge">
<title>Divide&#45;&gt;Normalise</title>
<path fill="none" stroke="black" d="M653.56,-359.52C670.17,-349.23 691.18,-336.21 708.13,-325.72"/>
<polygon fill="black" stroke="black" points="709.63,-328.9 716.28,-320.66 705.94,-322.95 709.63,-328.9"/>
</g>
<!-- Divide2&#45;&gt;OutputWorkspace -->
<g id="edge20" class="edge">
<title>Divide2&#45;&gt;OutputWorkspace</title>
<path fill="none" stroke="black" d="M675.99,-215.7C679.8,-208.07 684.38,-198.92 688.64,-190.4"/>
<polygon fill="black" stroke="black" points="691.77,-191.97 693.11,-181.46 685.51,-188.84 691.77,-191.97"/>
</g>
</g>
</svg>
