<?xml version="1.0" encoding="UTF-8" standalone="no"?>
<!DOCTYPE svg PUBLIC "-//W3C//DTD SVG 1.1//EN"
 "http://www.w3.org/Graphics/SVG/1.1/DTD/svg11.dtd">
<!-- Generated by graphviz version 7.1.0 (20230122.1345)
 -->
<!-- Title: ReflectometryReductionOne Pages: 1 -->
<svg width="733pt" height="1207pt"
 viewBox="0.00 0.00 733.38 1207.00" xmlns="http://www.w3.org/2000/svg" xmlns:xlink="http://www.w3.org/1999/xlink">
<g id="graph0" class="graph" transform="scale(1 1) rotate(0) translate(4 1203)">
<title>ReflectometryReductionOne</title>
<polygon fill="white" stroke="none" points="-4,4 -4,-1203 729.38,-1203 729.38,4 -4,4"/>
<text text-anchor="middle" x="362.69" y="-1183.8" font-family="Helvetica,sans-Serif" font-size="14.00">ReflectometryReductionOne Flowchart</text>
<!-- inputWorkspace -->
<g id="node1" class="node">
<title>inputWorkspace</title>
<ellipse fill="khaki" stroke="black" cx="83.84" cy="-1158" rx="83.69" ry="18"/>
<text text-anchor="middle" x="83.84" y="-1154.3" font-family="Helvetica,sans-Serif" font-size="14.00">InputWorkspace</text>
</g>
<!-- checkHardMask -->
<g id="node8" class="node">
<title>checkHardMask</title>
<polygon fill="limegreen" stroke="black" points="186.84,-1103 31.67,-1085 186.84,-1067 342.02,-1085 186.84,-1103"/>
<text text-anchor="middle" x="186.84" y="-1081.3" font-family="Helvetica,sans-Serif" font-size="14.00">HardMaskWorkspace?</text>
</g>
<!-- inputWorkspace&#45;&gt;checkHardMask -->
<g id="edge1" class="edge">
<title>inputWorkspace&#45;&gt;checkHardMask</title>
<path fill="none" stroke="black" d="M107.99,-1140.35C122.37,-1130.44 140.75,-1117.77 156.16,-1107.15"/>
<polygon fill="black" stroke="black" points="157.8,-1110.27 164.05,-1101.71 153.83,-1104.51 157.8,-1110.27"/>
</g>
<!-- hardMaskWorkspace -->
<g id="node2" class="node">
<title>hardMaskWorkspace</title>
<ellipse fill="khaki" stroke="black" cx="289.84" cy="-1158" rx="104.78" ry="18"/>
<text text-anchor="middle" x="289.84" y="-1154.3" font-family="Helvetica,sans-Serif" font-size="14.00">HardMaskWorkspace</text>
</g>
<!-- hardMaskWorkspace&#45;&gt;checkHardMask -->
<g id="edge2" class="edge">
<title>hardMaskWorkspace&#45;&gt;checkHardMask</title>
<path fill="none" stroke="black" d="M265.43,-1140.17C251.05,-1130.26 232.72,-1117.62 217.38,-1107.05"/>
<polygon fill="black" stroke="black" points="219.75,-1104.43 209.53,-1101.64 215.78,-1110.19 219.75,-1104.43"/>
</g>
<!-- outputWorkspace -->
<g id="node3" class="node">
<title>outputWorkspace</title>
<ellipse fill="khaki" stroke="black" cx="448.84" cy="-18" rx="91.78" ry="18"/>
<text text-anchor="middle" x="448.84" y="-14.3" font-family="Helvetica,sans-Serif" font-size="14.00">OutputWorkspace</text>
</g>
<!-- detVanCompare -->
<g id="node4" class="node">
<title>detVanCompare</title>
<ellipse fill="khaki" stroke="black" cx="359.84" cy="-916.5" rx="83.39" ry="18"/>
<text text-anchor="middle" x="359.84" y="-912.8" font-family="Helvetica,sans-Serif" font-size="14.00">DetVanCompare</text>
</g>
<!-- checkDetVanComp -->
<g id="node9" class="node">
<title>checkDetVanComp</title>
<polygon fill="limegreen" stroke="black" points="307.84,-853 182.83,-835 307.84,-817 432.85,-835 307.84,-853"/>
<text text-anchor="middle" x="307.84" y="-831.3" font-family="Helvetica,sans-Serif" font-size="14.00">DetVanCompare?</text>
</g>
<!-- detVanCompare&#45;&gt;checkDetVanComp -->
<g id="edge7" class="edge">
<title>detVanCompare&#45;&gt;checkDetVanComp</title>
<path fill="none" stroke="black" d="M348.56,-898.25C341.51,-887.48 332.31,-873.41 324.44,-861.38"/>
<polygon fill="black" stroke="black" points="327.45,-859.59 319.05,-853.13 321.59,-863.42 327.45,-859.59"/>
</g>
<!-- sampleTotWorkspace -->
<g id="node5" class="node">
<title>sampleTotWorkspace</title>
<ellipse fill="khaki" stroke="black" cx="496.84" cy="-644" rx="145.67" ry="18"/>
<text text-anchor="middle" x="496.84" y="-640.3" font-family="Helvetica,sans-Serif" font-size="14.00">SampleTotalCountsWorkspace</text>
</g>
<!-- checkSampleTot -->
<g id="node10" class="node">
<title>checkSampleTot</title>
<polygon fill="limegreen" stroke="black" points="322.84,-589 109.35,-571 322.84,-553 536.33,-571 322.84,-589"/>
<text text-anchor="middle" x="322.84" y="-567.3" font-family="Helvetica,sans-Serif" font-size="14.00">SampleTotalCountsWorkspace?</text>
</g>
<!-- sampleTotWorkspace&#45;&gt;checkSampleTot -->
<g id="edge12" class="edge">
<title>sampleTotWorkspace&#45;&gt;checkSampleTot</title>
<path fill="none" stroke="black" d="M456.05,-626.35C429.89,-615.68 395.88,-601.8 368.77,-590.74"/>
<polygon fill="black" stroke="black" points="370.36,-587.61 359.78,-587.07 367.71,-594.09 370.36,-587.61"/>
</g>
<!-- sampleBkgWorkspace -->
<g id="node6" class="node">
<title>sampleBkgWorkspace</title>
<ellipse fill="khaki" stroke="black" cx="577.84" cy="-484" rx="147.57" ry="18"/>
<text text-anchor="middle" x="577.84" y="-480.3" font-family="Helvetica,sans-Serif" font-size="14.00">SampleBackgroundWorkspace</text>
</g>
<!-- checkSampleBkg -->
<g id="node11" class="node">
<title>checkSampleBkg</title>
<polygon fill="limegreen" stroke="black" points="392.84,-429 176.84,-411 392.84,-393 608.85,-411 392.84,-429"/>
<text text-anchor="middle" x="392.84" y="-407.3" font-family="Helvetica,sans-Serif" font-size="14.00">SampleBackgroundWorkspace?</text>
</g>
<!-- sampleBkgWorkspace&#45;&gt;checkSampleBkg -->
<g id="edge15" class="edge">
<title>sampleBkgWorkspace&#45;&gt;checkSampleBkg</title>
<path fill="none" stroke="black" d="M534.47,-466.35C506.34,-455.56 469.68,-441.49 440.7,-430.37"/>
<polygon fill="black" stroke="black" points="442.01,-427.12 431.42,-426.81 439.5,-433.66 442.01,-427.12"/>
</g>
<!-- sampleWorkspace -->
<g id="node7" class="node">
<title>sampleWorkspace</title>
<ellipse fill="khaki" stroke="black" cx="579.84" cy="-324" rx="93.68" ry="18"/>
<text text-anchor="middle" x="579.84" y="-320.3" font-family="Helvetica,sans-Serif" font-size="14.00">SampleWorkspace</text>
</g>
<!-- checkSample -->
<g id="node12" class="node">
<title>checkSample</title>
<polygon fill="limegreen" stroke="black" points="448.84,-269 308.92,-251 448.84,-233 588.77,-251 448.84,-269"/>
<text text-anchor="middle" x="448.84" y="-247.3" font-family="Helvetica,sans-Serif" font-size="14.00">SampleWorkspace?</text>
</g>
<!-- sampleWorkspace&#45;&gt;checkSample -->
<g id="edge20" class="edge">
<title>sampleWorkspace&#45;&gt;checkSample</title>
<path fill="none" stroke="black" d="M549.46,-306.53C530.15,-296.07 505.06,-282.47 484.77,-271.47"/>
<polygon fill="black" stroke="black" points="486.44,-268.39 475.98,-266.71 483.1,-274.55 486.44,-268.39"/>
</g>
<!-- useHardMask -->
<g id="node13" class="node">
<title>useHardMask</title>
<path fill="lightskyblue" stroke="black" d="M162.34,-1016C162.34,-1016 67.34,-1016 67.34,-1016 61.34,-1016 55.34,-1010 55.34,-1004 55.34,-1004 55.34,-992 55.34,-992 55.34,-986 61.34,-980 67.34,-980 67.34,-980 162.34,-980 162.34,-980 168.34,-980 174.34,-986 174.34,-992 174.34,-992 174.34,-1004 174.34,-1004 174.34,-1010 168.34,-1016 162.34,-1016"/>
<text text-anchor="middle" x="114.84" y="-994.3" font-family="Helvetica,sans-Serif" font-size="14.00">MaskDetectors</text>
</g>
<!-- checkHardMask&#45;&gt;useHardMask -->
<g id="edge3" class="edge">
<title>checkHardMask&#45;&gt;useHardMask</title>
<path fill="none" stroke="black" d="M173.64,-1068.41C163.28,-1056.19 148.65,-1038.91 136.58,-1024.66"/>
<polygon fill="black" stroke="black" points="139.56,-1022.77 130.43,-1017.4 134.22,-1027.29 139.56,-1022.77"/>
<text text-anchor="middle" x="167.34" y="-1037.8" font-family="Helvetica,sans-Serif" font-size="14.00">Yes</text>
</g>
<!-- doDetVanTest2I -->
<g id="node19" class="node">
<title>doDetVanTest2I</title>
<polygon fill="lightseagreen" stroke="black" points="258.84,-943 100.84,-943 100.84,-890 258.84,-890 258.84,-943"/>
<text text-anchor="middle" x="179.84" y="-927.8" font-family="Helvetica,sans-Serif" font-size="14.00">Do Detector</text>
<text text-anchor="middle" x="179.84" y="-912.8" font-family="Helvetica,sans-Serif" font-size="14.00"> Vanadium Tests</text>
<text text-anchor="middle" x="179.84" y="-897.8" font-family="Helvetica,sans-Serif" font-size="14.00"> on Input workspace</text>
</g>
<!-- checkHardMask&#45;&gt;doDetVanTest2I -->
<g id="edge4" class="edge">
<title>checkHardMask&#45;&gt;doDetVanTest2I</title>
<path fill="none" stroke="black" d="M186.23,-1066.7C185.48,-1046.06 184.16,-1010.51 182.84,-980 182.49,-971.81 182.08,-963.02 181.69,-954.7"/>
<polygon fill="black" stroke="black" points="185.19,-954.68 181.21,-944.86 178.2,-955.01 185.19,-954.68"/>
<text text-anchor="middle" x="194.34" y="-994.3" font-family="Helvetica,sans-Serif" font-size="14.00">No</text>
</g>
<!-- checkDetVanComp&#45;&gt;checkSampleTot -->
<g id="edge9" class="edge">
<title>checkDetVanComp&#45;&gt;checkSampleTot</title>
<path fill="none" stroke="black" d="M308.83,-816.81C311.35,-772.67 318.09,-655.02 321.21,-600.48"/>
<polygon fill="black" stroke="black" points="324.69,-600.95 321.77,-590.76 317.7,-600.55 324.69,-600.95"/>
<text text-anchor="middle" x="325.34" y="-683.8" font-family="Helvetica,sans-Serif" font-size="14.00">No</text>
</g>
<!-- doDetVanTest2DV -->
<g id="node20" class="node">
<title>doDetVanTest2DV</title>
<polygon fill="lightseagreen" stroke="black" points="288.34,-766 133.34,-766 133.34,-713 288.34,-713 288.34,-766"/>
<text text-anchor="middle" x="210.84" y="-750.8" font-family="Helvetica,sans-Serif" font-size="14.00">Do Detector</text>
<text text-anchor="middle" x="210.84" y="-735.8" font-family="Helvetica,sans-Serif" font-size="14.00"> Vanadium Tests</text>
<text text-anchor="middle" x="210.84" y="-720.8" font-family="Helvetica,sans-Serif" font-size="14.00"> on DetVanCompare</text>
</g>
<!-- checkDetVanComp&#45;&gt;doDetVanTest2DV -->
<g id="edge8" class="edge">
<title>checkDetVanComp&#45;&gt;doDetVanTest2DV</title>
<path fill="none" stroke="black" d="M292.26,-818.98C279.76,-806.93 261.75,-789.57 245.84,-774.23"/>
<polygon fill="black" stroke="black" points="248.47,-771.91 238.84,-767.49 243.61,-776.95 248.47,-771.91"/>
<text text-anchor="middle" x="282.34" y="-787.8" font-family="Helvetica,sans-Serif" font-size="14.00">Yes</text>
</g>
<!-- checkSampleTot&#45;&gt;checkSampleBkg -->
<g id="edge14" class="edge">
<title>checkSampleTot&#45;&gt;checkSampleBkg</title>
<path fill="none" stroke="black" d="M334.96,-553.68C344.41,-540.33 357.33,-520.68 365.84,-502 374.94,-482.03 381.94,-458.19 386.52,-440.07"/>
<polygon fill="black" stroke="black" points="389.87,-441.1 388.83,-430.56 383.07,-439.45 389.87,-441.1"/>
<text text-anchor="middle" x="388.34" y="-480.3" font-family="Helvetica,sans-Serif" font-size="14.00">No</text>
</g>
<!-- findDetsOutLims -->
<g id="node15" class="node">
<title>findDetsOutLims</title>
<path fill="lightskyblue" stroke="black" d="M344.34,-502C344.34,-502 161.34,-502 161.34,-502 155.34,-502 149.34,-496 149.34,-490 149.34,-490 149.34,-478 149.34,-478 149.34,-472 155.34,-466 161.34,-466 161.34,-466 344.34,-466 344.34,-466 350.34,-466 356.34,-472 356.34,-478 356.34,-478 356.34,-490 356.34,-490 356.34,-496 350.34,-502 344.34,-502"/>
<text text-anchor="middle" x="252.84" y="-480.3" font-family="Helvetica,sans-Serif" font-size="14.00">FindDetectorsOutsideLimits</text>
</g>
<!-- checkSampleTot&#45;&gt;findDetsOutLims -->
<g id="edge13" class="edge">
<title>checkSampleTot&#45;&gt;findDetsOutLims</title>
<path fill="none" stroke="black" d="M309.68,-554.01C299.73,-541.94 285.88,-525.12 274.34,-511.1"/>
<polygon fill="black" stroke="black" points="277.18,-509.04 268.12,-503.55 271.77,-513.49 277.18,-509.04"/>
<text text-anchor="middle" x="303.34" y="-523.8" font-family="Helvetica,sans-Serif" font-size="14.00">Yes</text>
</g>
<!-- checkSampleBkg&#45;&gt;checkSample -->
<g id="edge18" class="edge">
<title>checkSampleBkg&#45;&gt;checkSample</title>
<path fill="none" stroke="black" d="M400.65,-393.16C406.81,-379.53 415.42,-359.74 421.84,-342 429.31,-321.36 436.39,-297.56 441.42,-279.62"/>
<polygon fill="black" stroke="black" points="444.73,-280.8 444.01,-270.23 437.98,-278.94 444.73,-280.8"/>
<text text-anchor="middle" x="442.34" y="-320.3" font-family="Helvetica,sans-Serif" font-size="14.00">No</text>
</g>
<!-- medianDetTest -->
<g id="node16" class="node">
<title>medianDetTest</title>
<path fill="lightskyblue" stroke="black" d="M400.34,-342C400.34,-342 271.34,-342 271.34,-342 265.34,-342 259.34,-336 259.34,-330 259.34,-330 259.34,-318 259.34,-318 259.34,-312 265.34,-306 271.34,-306 271.34,-306 400.34,-306 400.34,-306 406.34,-306 412.34,-312 412.34,-318 412.34,-318 412.34,-330 412.34,-330 412.34,-336 406.34,-342 400.34,-342"/>
<text text-anchor="middle" x="335.84" y="-320.3" font-family="Helvetica,sans-Serif" font-size="14.00">MedianDetectorTest</text>
</g>
<!-- checkSampleBkg&#45;&gt;medianDetTest -->
<g id="edge17" class="edge">
<title>checkSampleBkg&#45;&gt;medianDetTest</title>
<path fill="none" stroke="black" d="M381.85,-393.61C373.89,-381.73 362.94,-365.41 353.72,-351.67"/>
<polygon fill="black" stroke="black" points="356.71,-349.83 348.23,-343.47 350.89,-353.73 356.71,-349.83"/>
<text text-anchor="middle" x="378.34" y="-363.8" font-family="Helvetica,sans-Serif" font-size="14.00">Yes</text>
</g>
<!-- createPSDBMask -->
<g id="node17" class="node">
<title>createPSDBMask</title>
<path fill="lightskyblue" stroke="black" d="M459.84,-182C459.84,-182 319.84,-182 319.84,-182 313.84,-182 307.84,-176 307.84,-170 307.84,-170 307.84,-158 307.84,-158 307.84,-152 313.84,-146 319.84,-146 319.84,-146 459.84,-146 459.84,-146 465.84,-146 471.84,-152 471.84,-158 471.84,-158 471.84,-170 471.84,-170 471.84,-176 465.84,-182 459.84,-182"/>
<text text-anchor="middle" x="389.84" y="-160.3" font-family="Helvetica,sans-Serif" font-size="14.00">CreatePSDBleedMask</text>
</g>
<!-- checkSample&#45;&gt;createPSDBMask -->
<g id="edge21" class="edge">
<title>checkSample&#45;&gt;createPSDBMask</title>
<path fill="none" stroke="black" d="M437.75,-234.01C429.45,-222.06 417.91,-205.44 408.24,-191.51"/>
<polygon fill="black" stroke="black" points="411.35,-189.84 402.77,-183.62 405.6,-193.83 411.35,-189.84"/>
<text text-anchor="middle" x="434.34" y="-203.8" font-family="Helvetica,sans-Serif" font-size="14.00">Yes</text>
</g>
<!-- extractMask -->
<g id="node18" class="node">
<title>extractMask</title>
<path fill="lightskyblue" stroke="black" d="M487.84,-109C487.84,-109 409.84,-109 409.84,-109 403.84,-109 397.84,-103 397.84,-97 397.84,-97 397.84,-85 397.84,-85 397.84,-79 403.84,-73 409.84,-73 409.84,-73 487.84,-73 487.84,-73 493.84,-73 499.84,-79 499.84,-85 499.84,-85 499.84,-97 499.84,-97 499.84,-103 493.84,-109 487.84,-109"/>
<text text-anchor="middle" x="448.84" y="-87.3" font-family="Helvetica,sans-Serif" font-size="14.00">ExtractMask</text>
</g>
<!-- checkSample&#45;&gt;extractMask -->
<g id="edge22" class="edge">
<title>checkSample&#45;&gt;extractMask</title>
<path fill="none" stroke="black" d="M459.48,-234.23C471.83,-213.93 489.48,-177.52 480.84,-146 478.26,-136.59 473.57,-127.15 468.56,-118.86"/>
<polygon fill="black" stroke="black" points="471.62,-117.14 463.23,-110.66 465.75,-120.95 471.62,-117.14"/>
<text text-anchor="middle" x="492.34" y="-160.3" font-family="Helvetica,sans-Serif" font-size="14.00">No</text>
</g>
<!-- useHardMask&#45;&gt;doDetVanTest2I -->
<g id="edge5" class="edge">
<title>useHardMask&#45;&gt;doDetVanTest2I</title>
<path fill="none" stroke="black" d="M128.95,-979.75C135.51,-971.72 143.57,-961.87 151.32,-952.39"/>
<polygon fill="black" stroke="black" points="154.02,-954.61 157.64,-944.65 148.6,-950.18 154.02,-954.61"/>
</g>
<!-- detEfficVar -->
<g id="node14" class="node">
<title>detEfficVar</title>
<path fill="lightskyblue" stroke="black" d="M282.34,-662C282.34,-662 103.34,-662 103.34,-662 97.34,-662 91.34,-656 91.34,-650 91.34,-650 91.34,-638 91.34,-638 91.34,-632 97.34,-626 103.34,-626 103.34,-626 282.34,-626 282.34,-626 288.34,-626 294.34,-632 294.34,-638 294.34,-638 294.34,-650 294.34,-650 294.34,-656 288.34,-662 282.34,-662"/>
<text text-anchor="middle" x="192.84" y="-640.3" font-family="Helvetica,sans-Serif" font-size="14.00">DetectorEfficiencyVariation</text>
</g>
<!-- detEfficVar&#45;&gt;checkSampleTot -->
<g id="edge11" class="edge">
<title>detEfficVar&#45;&gt;checkSampleTot</title>
<path fill="none" stroke="black" d="M224.64,-625.63C242.99,-615.61 266.17,-602.95 285.4,-592.45"/>
<polygon fill="black" stroke="black" points="286.91,-595.62 294,-587.75 283.55,-589.47 286.91,-595.62"/>
</g>
<!-- findDetsOutLims&#45;&gt;checkSampleBkg -->
<g id="edge16" class="edge">
<title>findDetsOutLims&#45;&gt;checkSampleBkg</title>
<path fill="none" stroke="black" d="M287.09,-465.63C307.03,-455.52 332.27,-442.72 353.09,-432.16"/>
<polygon fill="black" stroke="black" points="354.53,-435.35 361.87,-427.71 351.36,-429.11 354.53,-435.35"/>
</g>
<!-- medianDetTest&#45;&gt;checkSample -->
<g id="edge19" class="edge">
<title>medianDetTest&#45;&gt;checkSample</title>
<path fill="none" stroke="black" d="M363.49,-305.63C379.54,-295.54 399.85,-282.78 416.63,-272.24"/>
<polygon fill="black" stroke="black" points="418.16,-275.41 424.76,-267.13 414.43,-269.49 418.16,-275.41"/>
</g>
<!-- createPSDBMask&#45;&gt;extractMask -->
<g id="edge23" class="edge">
<title>createPSDBMask&#45;&gt;extractMask</title>
<path fill="none" stroke="black" d="M404.12,-145.81C411.15,-137.35 419.77,-126.98 427.56,-117.61"/>
<polygon fill="black" stroke="black" points="430.03,-120.12 433.72,-110.19 424.64,-115.65 430.03,-120.12"/>
</g>
<!-- extractMask&#45;&gt;outputWorkspace -->
<g id="edge24" class="edge">
<title>extractMask&#45;&gt;outputWorkspace</title>
<path fill="none" stroke="black" d="M448.84,-72.81C448.84,-65.23 448.84,-56.1 448.84,-47.54"/>
<polygon fill="black" stroke="black" points="452.34,-47.54 448.84,-37.54 445.34,-47.54 452.34,-47.54"/>
</g>
<!-- doDetVanTest2I&#45;&gt;checkDetVanComp -->
<g id="edge6" class="edge">
<title>doDetVanTest2I&#45;&gt;checkDetVanComp</title>
<path fill="none" stroke="black" d="M221.4,-889.69C238.93,-878.8 259.03,-866.31 275.44,-856.12"/>
<polygon fill="black" stroke="black" points="277.19,-859.16 283.84,-850.91 273.49,-853.21 277.19,-859.16"/>
</g>
<!-- doDetVanTest2DV&#45;&gt;detEfficVar -->
<g id="edge10" class="edge">
<title>doDetVanTest2DV&#45;&gt;detEfficVar</title>
<path fill="none" stroke="black" d="M205.92,-712.95C203.57,-700.74 200.75,-686.08 198.33,-673.51"/>
<polygon fill="black" stroke="black" points="201.78,-672.89 196.45,-663.73 194.9,-674.21 201.78,-672.89"/>
</g>
</g>
</svg>
