<?xml version="1.0" encoding="UTF-8" standalone="no"?>
<!DOCTYPE svg PUBLIC "-//W3C//DTD SVG 1.1//EN"
 "http://www.w3.org/Graphics/SVG/1.1/DTD/svg11.dtd">
<!-- Generated by graphviz version 13.1.1 (20250720.1534)
 -->
<!-- Title: ReflectometryReductionOne Pages: 1 -->
<svg width="774pt" height="1236pt"
 viewBox="0.00 0.00 774.00 1236.00" xmlns="http://www.w3.org/2000/svg" xmlns:xlink="http://www.w3.org/1999/xlink">
<g id="graph0" class="graph" transform="scale(1 1) rotate(0) translate(4 1232.25)">
<title>ReflectometryReductionOne</title>
<polygon fill="white" stroke="none" points="-4,4 -4,-1232.25 770.2,-1232.25 770.2,4 -4,4"/>
<text xml:space="preserve" text-anchor="middle" x="383.1" y="-1210.95" font-family="Helvetica,sans-Serif" font-size="14.00">ReflectometryReductionOne Flowchart</text>
<!-- inputWorkspace -->
<g id="node1" class="node">
<title>inputWorkspace</title>
<ellipse fill="khaki" stroke="black" cx="90.14" cy="-1185" rx="90.14" ry="18"/>
<text xml:space="preserve" text-anchor="middle" x="90.14" y="-1180.33" font-family="Helvetica,sans-Serif" font-size="14.00">InputWorkspace</text>
</g>
<!-- checkHardMask -->
<g id="node8" class="node">
<title>checkHardMask</title>
<polygon fill="limegreen" stroke="black" points="200.14,-1130 33.23,-1112 200.14,-1094 367.05,-1112 200.14,-1130"/>
<text xml:space="preserve" text-anchor="middle" x="200.14" y="-1107.33" font-family="Helvetica,sans-Serif" font-size="14.00">HardMaskWorkspace?</text>
</g>
<!-- inputWorkspace&#45;&gt;checkHardMask -->
<g id="edge1" class="edge">
<title>inputWorkspace&#45;&gt;checkHardMask</title>
<path fill="none" stroke="black" d="M115.93,-1167.35C131.43,-1157.35 151.29,-1144.53 167.83,-1133.85"/>
<polygon fill="black" stroke="black" points="169.35,-1137.04 175.86,-1128.67 165.56,-1131.16 169.35,-1137.04"/>
</g>
<!-- hardMaskWorkspace -->
<g id="node2" class="node">
<title>hardMaskWorkspace</title>
<ellipse fill="khaki" stroke="black" cx="311.14" cy="-1185" rx="112.76" ry="18"/>
<text xml:space="preserve" text-anchor="middle" x="311.14" y="-1180.33" font-family="Helvetica,sans-Serif" font-size="14.00">HardMaskWorkspace</text>
</g>
<!-- hardMaskWorkspace&#45;&gt;checkHardMask -->
<g id="edge2" class="edge">
<title>hardMaskWorkspace&#45;&gt;checkHardMask</title>
<path fill="none" stroke="black" d="M284.83,-1167.17C269.19,-1157.16 249.21,-1144.39 232.59,-1133.75"/>
<polygon fill="black" stroke="black" points="234.83,-1131.03 224.52,-1128.59 231.06,-1136.93 234.83,-1131.03"/>
</g>
<!-- outputWorkspace -->
<g id="node3" class="node">
<title>outputWorkspace</title>
<ellipse fill="khaki" stroke="black" cx="467.14" cy="-18" rx="98.56" ry="18"/>
<text xml:space="preserve" text-anchor="middle" x="467.14" y="-13.32" font-family="Helvetica,sans-Serif" font-size="14.00">OutputWorkspace</text>
</g>
<!-- detVanCompare -->
<g id="node4" class="node">
<title>detVanCompare</title>
<ellipse fill="khaki" stroke="black" cx="380.14" cy="-937.88" rx="89.61" ry="18"/>
<text xml:space="preserve" text-anchor="middle" x="380.14" y="-933.2" font-family="Helvetica,sans-Serif" font-size="14.00">DetVanCompare</text>
</g>
<!-- checkDetVanComp -->
<g id="node9" class="node">
<title>checkDetVanComp</title>
<polygon fill="limegreen" stroke="black" points="327.14,-871 192.97,-853 327.14,-835 461.31,-853 327.14,-871"/>
<text xml:space="preserve" text-anchor="middle" x="327.14" y="-848.33" font-family="Helvetica,sans-Serif" font-size="14.00">DetVanCompare?</text>
</g>
<!-- detVanCompare&#45;&gt;checkDetVanComp -->
<g id="edge7" class="edge">
<title>detVanCompare&#45;&gt;checkDetVanComp</title>
<path fill="none" stroke="black" d="M369.16,-919.7C361.72,-908.07 351.75,-892.49 343.4,-879.42"/>
<polygon fill="black" stroke="black" points="346.54,-877.84 338.2,-871.3 340.64,-881.61 346.54,-877.84"/>
</g>
<!-- sampleTotWorkspace -->
<g id="node5" class="node">
<title>sampleTotWorkspace</title>
<ellipse fill="khaki" stroke="black" cx="527.14" cy="-650.75" rx="156.96" ry="18"/>
<text xml:space="preserve" text-anchor="middle" x="527.14" y="-646.08" font-family="Helvetica,sans-Serif" font-size="14.00">SampleTotalCountsWorkspace</text>
</g>
<!-- checkSampleTot -->
<g id="node10" class="node">
<title>checkSampleTot</title>
<polygon fill="limegreen" stroke="black" points="342.14,-595.75 112.73,-577.75 342.14,-559.75 571.55,-577.75 342.14,-595.75"/>
<text xml:space="preserve" text-anchor="middle" x="342.14" y="-573.08" font-family="Helvetica,sans-Serif" font-size="14.00">SampleTotalCountsWorkspace?</text>
</g>
<!-- sampleTotWorkspace&#45;&gt;checkSampleTot -->
<g id="edge12" class="edge">
<title>sampleTotWorkspace&#45;&gt;checkSampleTot</title>
<path fill="none" stroke="black" d="M483.77,-633.1C455.83,-622.38 419.47,-608.43 390.59,-597.34"/>
<polygon fill="black" stroke="black" points="391.92,-594.11 381.33,-593.79 389.41,-600.64 391.92,-594.11"/>
</g>
<!-- sampleBkgWorkspace -->
<g id="node6" class="node">
<title>sampleBkgWorkspace</title>
<ellipse fill="khaki" stroke="black" cx="607.14" cy="-488.5" rx="159.06" ry="18"/>
<text xml:space="preserve" text-anchor="middle" x="607.14" y="-483.82" font-family="Helvetica,sans-Serif" font-size="14.00">SampleBackgroundWorkspace</text>
</g>
<!-- checkSampleBkg -->
<g id="node11" class="node">
<title>checkSampleBkg</title>
<polygon fill="limegreen" stroke="black" points="411.14,-433.5 178.75,-415.5 411.14,-397.5 643.53,-415.5 411.14,-433.5"/>
<text xml:space="preserve" text-anchor="middle" x="411.14" y="-410.82" font-family="Helvetica,sans-Serif" font-size="14.00">SampleBackgroundWorkspace?</text>
</g>
<!-- sampleBkgWorkspace&#45;&gt;checkSampleBkg -->
<g id="edge15" class="edge">
<title>sampleBkgWorkspace&#45;&gt;checkSampleBkg</title>
<path fill="none" stroke="black" d="M561.19,-470.85C531.23,-460 492.13,-445.84 461.35,-434.69"/>
<polygon fill="black" stroke="black" points="462.86,-431.51 452.26,-431.4 460.47,-438.09 462.86,-431.51"/>
</g>
<!-- sampleWorkspace -->
<g id="node7" class="node">
<title>sampleWorkspace</title>
<ellipse fill="khaki" stroke="black" cx="604.14" cy="-326.25" rx="100.66" ry="18"/>
<text xml:space="preserve" text-anchor="middle" x="604.14" y="-321.57" font-family="Helvetica,sans-Serif" font-size="14.00">SampleWorkspace</text>
</g>
<!-- checkSample -->
<g id="node12" class="node">
<title>checkSample</title>
<polygon fill="limegreen" stroke="black" points="467.14,-271.25 317.34,-253.25 467.14,-235.25 616.94,-253.25 467.14,-271.25"/>
<text xml:space="preserve" text-anchor="middle" x="467.14" y="-248.57" font-family="Helvetica,sans-Serif" font-size="14.00">SampleWorkspace?</text>
</g>
<!-- sampleWorkspace&#45;&gt;checkSample -->
<g id="edge20" class="edge">
<title>sampleWorkspace&#45;&gt;checkSample</title>
<path fill="none" stroke="black" d="M572.37,-308.78C551.99,-298.22 525.45,-284.47 504.13,-273.42"/>
<polygon fill="black" stroke="black" points="505.96,-270.43 495.47,-268.93 502.74,-276.64 505.96,-270.43"/>
</g>
<!-- useHardMask -->
<g id="node13" class="node">
<title>useHardMask</title>
<path fill="lightskyblue" stroke="black" d="M176.52,-1040.75C176.52,-1040.75 81.77,-1040.75 81.77,-1040.75 75.77,-1040.75 69.77,-1034.75 69.77,-1028.75 69.77,-1028.75 69.77,-1016.75 69.77,-1016.75 69.77,-1010.75 75.77,-1004.75 81.77,-1004.75 81.77,-1004.75 176.52,-1004.75 176.52,-1004.75 182.52,-1004.75 188.52,-1010.75 188.52,-1016.75 188.52,-1016.75 188.52,-1028.75 188.52,-1028.75 188.52,-1034.75 182.52,-1040.75 176.52,-1040.75"/>
<text xml:space="preserve" text-anchor="middle" x="129.14" y="-1018.08" font-family="Helvetica,sans-Serif" font-size="14.00">MaskDetectors</text>
</g>
<!-- checkHardMask&#45;&gt;useHardMask -->
<g id="edge3" class="edge">
<title>checkHardMask&#45;&gt;useHardMask</title>
<path fill="none" stroke="black" d="M187.12,-1095C176.84,-1082.37 162.29,-1064.49 150.34,-1049.8"/>
<polygon fill="black" stroke="black" points="153.28,-1047.87 144.25,-1042.32 147.85,-1052.29 153.28,-1047.87"/>
<text xml:space="preserve" text-anchor="middle" x="182.25" y="-1062.7" font-family="Helvetica,sans-Serif" font-size="14.00">Yes</text>
</g>
<!-- doDetVanTest2I -->
<g id="node19" class="node">
<title>doDetVanTest2I</title>
<polygon fill="lightseagreen" stroke="black" points="273.02,-967.75 115.27,-967.75 115.27,-908 273.02,-908 273.02,-967.75"/>
<text xml:space="preserve" text-anchor="middle" x="194.14" y="-950.45" font-family="Helvetica,sans-Serif" font-size="14.00">Do Detector</text>
<text xml:space="preserve" text-anchor="middle" x="194.14" y="-933.2" font-family="Helvetica,sans-Serif" font-size="14.00"> Vanadium Tests</text>
<text xml:space="preserve" text-anchor="middle" x="194.14" y="-915.95" font-family="Helvetica,sans-Serif" font-size="14.00"> on Input workspace</text>
</g>
<!-- checkHardMask&#45;&gt;doDetVanTest2I -->
<g id="edge4" class="edge">
<title>checkHardMask&#45;&gt;doDetVanTest2I</title>
<path fill="none" stroke="black" d="M199.74,-1093.7C199.24,-1072.67 198.3,-1036.1 197.14,-1004.75 196.84,-996.59 196.47,-987.85 196.1,-979.5"/>
<polygon fill="black" stroke="black" points="199.6,-979.4 195.65,-969.57 192.61,-979.72 199.6,-979.4"/>
<text xml:space="preserve" text-anchor="middle" x="207.69" y="-1018.08" font-family="Helvetica,sans-Serif" font-size="14.00">No</text>
</g>
<!-- checkDetVanComp&#45;&gt;checkSampleTot -->
<g id="edge9" class="edge">
<title>checkDetVanComp&#45;&gt;checkSampleTot</title>
<path fill="none" stroke="black" d="M328.08,-834.91C330.59,-789.19 337.47,-663.74 340.58,-607.13"/>
<polygon fill="black" stroke="black" points="344.07,-607.52 341.12,-597.35 337.08,-607.14 344.07,-607.52"/>
<text xml:space="preserve" text-anchor="middle" x="345.56" y="-690.7" font-family="Helvetica,sans-Serif" font-size="14.00">No</text>
</g>
<!-- doDetVanTest2DV -->
<g id="node20" class="node">
<title>doDetVanTest2DV</title>
<polygon fill="lightseagreen" stroke="black" points="308.14,-781.75 154.14,-781.75 154.14,-722 308.14,-722 308.14,-781.75"/>
<text xml:space="preserve" text-anchor="middle" x="231.14" y="-764.45" font-family="Helvetica,sans-Serif" font-size="14.00">Do Detector</text>
<text xml:space="preserve" text-anchor="middle" x="231.14" y="-747.2" font-family="Helvetica,sans-Serif" font-size="14.00"> Vanadium Tests</text>
<text xml:space="preserve" text-anchor="middle" x="231.14" y="-729.95" font-family="Helvetica,sans-Serif" font-size="14.00"> on DetVanCompare</text>
</g>
<!-- checkDetVanComp&#45;&gt;doDetVanTest2DV -->
<g id="edge8" class="edge">
<title>checkDetVanComp&#45;&gt;doDetVanTest2DV</title>
<path fill="none" stroke="black" d="M312.14,-836.51C300.2,-824.18 282.97,-806.39 267.46,-790.38"/>
<polygon fill="black" stroke="black" points="270.08,-788.05 260.61,-783.3 265.05,-792.92 270.08,-788.05"/>
<text xml:space="preserve" text-anchor="middle" x="301.81" y="-803.7" font-family="Helvetica,sans-Serif" font-size="14.00">Yes</text>
</g>
<!-- checkSampleTot&#45;&gt;checkSampleBkg -->
<g id="edge14" class="edge">
<title>checkSampleTot&#45;&gt;checkSampleBkg</title>
<path fill="none" stroke="black" d="M353.54,-560.35C362.77,-546.49 375.6,-525.87 384.14,-506.5 392.99,-486.42 400,-462.59 404.65,-444.5"/>
<polygon fill="black" stroke="black" points="408,-445.55 407,-435 401.2,-443.87 408,-445.55"/>
<text xml:space="preserve" text-anchor="middle" x="406.36" y="-483.82" font-family="Helvetica,sans-Serif" font-size="14.00">No</text>
</g>
<!-- findDetsOutLims -->
<g id="node15" class="node">
<title>findDetsOutLims</title>
<path fill="lightskyblue" stroke="black" d="M363.39,-506.5C363.39,-506.5 180.89,-506.5 180.89,-506.5 174.89,-506.5 168.89,-500.5 168.89,-494.5 168.89,-494.5 168.89,-482.5 168.89,-482.5 168.89,-476.5 174.89,-470.5 180.89,-470.5 180.89,-470.5 363.39,-470.5 363.39,-470.5 369.39,-470.5 375.39,-476.5 375.39,-482.5 375.39,-482.5 375.39,-494.5 375.39,-494.5 375.39,-500.5 369.39,-506.5 363.39,-506.5"/>
<text xml:space="preserve" text-anchor="middle" x="272.14" y="-483.82" font-family="Helvetica,sans-Serif" font-size="14.00">FindDetectorsOutsideLimits</text>
</g>
<!-- checkSampleTot&#45;&gt;findDetsOutLims -->
<g id="edge13" class="edge">
<title>checkSampleTot&#45;&gt;findDetsOutLims</title>
<path fill="none" stroke="black" d="M328.97,-560.34C318.81,-547.67 304.55,-529.89 292.85,-515.32"/>
<polygon fill="black" stroke="black" points="295.9,-513.52 286.91,-507.91 290.44,-517.9 295.9,-513.52"/>
<text xml:space="preserve" text-anchor="middle" x="324.66" y="-528.45" font-family="Helvetica,sans-Serif" font-size="14.00">Yes</text>
</g>
<!-- checkSampleBkg&#45;&gt;checkSample -->
<g id="edge18" class="edge">
<title>checkSampleBkg&#45;&gt;checkSample</title>
<path fill="none" stroke="black" d="M418.65,-397.65C424.81,-383.53 433.56,-362.77 440.14,-344.25 447.49,-323.57 454.57,-299.77 459.64,-281.84"/>
<polygon fill="black" stroke="black" points="462.94,-283.03 462.25,-272.46 456.2,-281.15 462.94,-283.03"/>
<text xml:space="preserve" text-anchor="middle" x="461.1" y="-321.57" font-family="Helvetica,sans-Serif" font-size="14.00">No</text>
</g>
<!-- medianDetTest -->
<g id="node16" class="node">
<title>medianDetTest</title>
<path fill="lightskyblue" stroke="black" d="M419.39,-344.25C419.39,-344.25 290.89,-344.25 290.89,-344.25 284.89,-344.25 278.89,-338.25 278.89,-332.25 278.89,-332.25 278.89,-320.25 278.89,-320.25 278.89,-314.25 284.89,-308.25 290.89,-308.25 290.89,-308.25 419.39,-308.25 419.39,-308.25 425.39,-308.25 431.39,-314.25 431.39,-320.25 431.39,-320.25 431.39,-332.25 431.39,-332.25 431.39,-338.25 425.39,-344.25 419.39,-344.25"/>
<text xml:space="preserve" text-anchor="middle" x="355.14" y="-321.57" font-family="Helvetica,sans-Serif" font-size="14.00">MedianDetectorTest</text>
</g>
<!-- checkSampleBkg&#45;&gt;medianDetTest -->
<g id="edge17" class="edge">
<title>checkSampleBkg&#45;&gt;medianDetTest</title>
<path fill="none" stroke="black" d="M400.61,-398.09C392.63,-385.66 381.49,-368.31 372.24,-353.9"/>
<polygon fill="black" stroke="black" points="375.37,-352.28 367.02,-345.76 369.47,-356.06 375.37,-352.28"/>
<text xml:space="preserve" text-anchor="middle" x="399.41" y="-366.2" font-family="Helvetica,sans-Serif" font-size="14.00">Yes</text>
</g>
<!-- createPSDBMask -->
<g id="node17" class="node">
<title>createPSDBMask</title>
<path fill="lightskyblue" stroke="black" d="M478.02,-182C478.02,-182 338.27,-182 338.27,-182 332.27,-182 326.27,-176 326.27,-170 326.27,-170 326.27,-158 326.27,-158 326.27,-152 332.27,-146 338.27,-146 338.27,-146 478.02,-146 478.02,-146 484.02,-146 490.02,-152 490.02,-158 490.02,-158 490.02,-170 490.02,-170 490.02,-176 484.02,-182 478.02,-182"/>
<text xml:space="preserve" text-anchor="middle" x="408.14" y="-159.32" font-family="Helvetica,sans-Serif" font-size="14.00">CreatePSDBleedMask</text>
</g>
<!-- checkSample&#45;&gt;createPSDBMask -->
<g id="edge21" class="edge">
<title>checkSample&#45;&gt;createPSDBMask</title>
<path fill="none" stroke="black" d="M456.32,-236.25C447.94,-223.86 436.14,-206.41 426.32,-191.89"/>
<polygon fill="black" stroke="black" points="429.25,-189.97 420.75,-183.65 423.45,-193.9 429.25,-189.97"/>
<text xml:space="preserve" text-anchor="middle" x="454.17" y="-203.95" font-family="Helvetica,sans-Serif" font-size="14.00">Yes</text>
</g>
<!-- extractMask -->
<g id="node18" class="node">
<title>extractMask</title>
<path fill="lightskyblue" stroke="black" d="M505.89,-109C505.89,-109 428.39,-109 428.39,-109 422.39,-109 416.39,-103 416.39,-97 416.39,-97 416.39,-85 416.39,-85 416.39,-79 422.39,-73 428.39,-73 428.39,-73 505.89,-73 505.89,-73 511.89,-73 517.89,-79 517.89,-85 517.89,-85 517.89,-97 517.89,-97 517.89,-103 511.89,-109 505.89,-109"/>
<text xml:space="preserve" text-anchor="middle" x="467.14" y="-86.33" font-family="Helvetica,sans-Serif" font-size="14.00">ExtractMask</text>
</g>
<!-- checkSample&#45;&gt;extractMask -->
<g id="edge22" class="edge">
<title>checkSample&#45;&gt;extractMask</title>
<path fill="none" stroke="black" d="M477.83,-236.12C490.24,-215.36 507.95,-178.14 499.14,-146 496.56,-136.59 491.87,-127.15 486.86,-118.86"/>
<polygon fill="black" stroke="black" points="489.91,-117.14 481.53,-110.66 484.04,-120.95 489.91,-117.14"/>
<text xml:space="preserve" text-anchor="middle" x="510.88" y="-159.32" font-family="Helvetica,sans-Serif" font-size="14.00">No</text>
</g>
<!-- useHardMask&#45;&gt;doDetVanTest2I -->
<g id="edge5" class="edge">
<title>useHardMask&#45;&gt;doDetVanTest2I</title>
<path fill="none" stroke="black" d="M142.61,-1004.58C148.93,-996.52 156.73,-986.57 164.34,-976.87"/>
<polygon fill="black" stroke="black" points="166.86,-979.32 170.28,-969.29 161.36,-975 166.86,-979.32"/>
</g>
<!-- detEfficVar -->
<g id="node14" class="node">
<title>detEfficVar</title>
<path fill="lightskyblue" stroke="black" d="M302.52,-668.75C302.52,-668.75 123.77,-668.75 123.77,-668.75 117.77,-668.75 111.77,-662.75 111.77,-656.75 111.77,-656.75 111.77,-644.75 111.77,-644.75 111.77,-638.75 117.77,-632.75 123.77,-632.75 123.77,-632.75 302.52,-632.75 302.52,-632.75 308.52,-632.75 314.52,-638.75 314.52,-644.75 314.52,-644.75 314.52,-656.75 314.52,-656.75 314.52,-662.75 308.52,-668.75 302.52,-668.75"/>
<text xml:space="preserve" text-anchor="middle" x="213.14" y="-646.08" font-family="Helvetica,sans-Serif" font-size="14.00">DetectorEfficiencyVariation</text>
</g>
<!-- detEfficVar&#45;&gt;checkSampleTot -->
<g id="edge11" class="edge">
<title>detEfficVar&#45;&gt;checkSampleTot</title>
<path fill="none" stroke="black" d="M244.7,-632.38C262.78,-622.43 285.59,-609.88 304.59,-599.42"/>
<polygon fill="black" stroke="black" points="306.01,-602.63 313.09,-594.74 302.64,-596.5 306.01,-602.63"/>
</g>
<!-- findDetsOutLims&#45;&gt;checkSampleBkg -->
<g id="edge16" class="edge">
<title>findDetsOutLims&#45;&gt;checkSampleBkg</title>
<path fill="none" stroke="black" d="M306.14,-470.13C325.95,-460.02 351,-447.22 371.67,-436.66"/>
<polygon fill="black" stroke="black" points="373.06,-439.88 380.38,-432.21 369.88,-433.65 373.06,-439.88"/>
</g>
<!-- medianDetTest&#45;&gt;checkSample -->
<g id="edge19" class="edge">
<title>medianDetTest&#45;&gt;checkSample</title>
<path fill="none" stroke="black" d="M382.54,-307.88C398.35,-297.86 418.31,-285.2 434.87,-274.7"/>
<polygon fill="black" stroke="black" points="436.33,-277.93 442.9,-269.62 432.58,-272.02 436.33,-277.93"/>
</g>
<!-- createPSDBMask&#45;&gt;extractMask -->
<g id="edge23" class="edge">
<title>createPSDBMask&#45;&gt;extractMask</title>
<path fill="none" stroke="black" d="M422.42,-145.81C429.45,-137.35 438.07,-126.98 445.86,-117.61"/>
<polygon fill="black" stroke="black" points="448.32,-120.12 452.02,-110.19 442.94,-115.65 448.32,-120.12"/>
</g>
<!-- extractMask&#45;&gt;outputWorkspace -->
<g id="edge24" class="edge">
<title>extractMask&#45;&gt;outputWorkspace</title>
<path fill="none" stroke="black" d="M467.14,-72.81C467.14,-65.23 467.14,-56.1 467.14,-47.54"/>
<polygon fill="black" stroke="black" points="470.64,-47.54 467.14,-37.54 463.64,-47.54 470.64,-47.54"/>
</g>
<!-- doDetVanTest2I&#45;&gt;checkDetVanComp -->
<g id="edge6" class="edge">
<title>doDetVanTest2I&#45;&gt;checkDetVanComp</title>
<path fill="none" stroke="black" d="M241.03,-907.66C258.74,-896.62 278.5,-884.31 294.61,-874.27"/>
<polygon fill="black" stroke="black" points="296.2,-877.4 302.84,-869.14 292.5,-871.46 296.2,-877.4"/>
</g>
<!-- doDetVanTest2DV&#45;&gt;detEfficVar -->
<g id="edge10" class="edge">
<title>doDetVanTest2DV&#45;&gt;detEfficVar</title>
<path fill="none" stroke="black" d="M225.84,-721.67C223.46,-708.55 220.65,-693.13 218.29,-680.12"/>
<polygon fill="black" stroke="black" points="221.77,-679.68 216.54,-670.46 214.88,-680.93 221.77,-679.68"/>
</g>
</g>
</svg>
