<?xml version="1.0" encoding="UTF-8" standalone="no"?>
<!DOCTYPE svg PUBLIC "-//W3C//DTD SVG 1.1//EN"
 "http://www.w3.org/Graphics/SVG/1.1/DTD/svg11.dtd">
<!-- Generated by graphviz version 11.0.0 (20240519.1550)
 -->
<!-- Title: ReflectometryReductionOne Pages: 1 -->
<svg width="776pt" height="1233pt"
 viewBox="0.00 0.00 776.20 1233.25" xmlns="http://www.w3.org/2000/svg" xmlns:xlink="http://www.w3.org/1999/xlink">
<g id="graph0" class="graph" transform="scale(1 1) rotate(0) translate(4 1229.25)">
<title>ReflectometryReductionOne</title>
<polygon fill="white" stroke="none" points="-4,4 -4,-1229.25 772.2,-1229.25 772.2,4 -4,4"/>
<text text-anchor="middle" x="384.1" y="-1207.95" font-family="Helvetica,sans-Serif" font-size="14.00">ReflectometryReductionOne Flowchart</text>
<!-- inputWorkspace -->
<g id="node1" class="node">
<title>inputWorkspace</title>
<ellipse fill="khaki" stroke="black" cx="90.14" cy="-1182" rx="90.14" ry="18"/>
<text text-anchor="middle" x="90.14" y="-1177.33" font-family="Helvetica,sans-Serif" font-size="14.00">InputWorkspace</text>
</g>
<!-- checkHardMask -->
<g id="node8" class="node">
<title>checkHardMask</title>
<polygon fill="limegreen" stroke="black" points="200.14,-1128 33.23,-1110 200.14,-1092 367.05,-1110 200.14,-1128"/>
<text text-anchor="middle" x="200.14" y="-1105.33" font-family="Helvetica,sans-Serif" font-size="14.00">HardMaskWorkspace?</text>
</g>
<!-- inputWorkspace&#45;&gt;checkHardMask -->
<g id="edge1" class="edge">
<title>inputWorkspace&#45;&gt;checkHardMask</title>
<path fill="none" stroke="black" d="M116.21,-1164.41C131.47,-1154.7 150.88,-1142.35 167.19,-1131.97"/>
<polygon fill="black" stroke="black" points="169.04,-1134.94 175.6,-1126.62 165.28,-1129.03 169.04,-1134.94"/>
</g>
<!-- hardMaskWorkspace -->
<g id="node2" class="node">
<title>hardMaskWorkspace</title>
<ellipse fill="khaki" stroke="black" cx="311.14" cy="-1182" rx="112.76" ry="18"/>
<text text-anchor="middle" x="311.14" y="-1177.33" font-family="Helvetica,sans-Serif" font-size="14.00">HardMaskWorkspace</text>
</g>
<!-- hardMaskWorkspace&#45;&gt;checkHardMask -->
<g id="edge2" class="edge">
<title>hardMaskWorkspace&#45;&gt;checkHardMask</title>
<path fill="none" stroke="black" d="M284.27,-1164.05C268.97,-1154.4 249.67,-1142.23 233.41,-1131.98"/>
<polygon fill="black" stroke="black" points="235.35,-1129.07 225.03,-1126.7 231.62,-1134.99 235.35,-1129.07"/>
</g>
<!-- outputWorkspace -->
<g id="node3" class="node">
<title>outputWorkspace</title>
<ellipse fill="khaki" stroke="black" cx="469.14" cy="-18" rx="98.56" ry="18"/>
<text text-anchor="middle" x="469.14" y="-13.32" font-family="Helvetica,sans-Serif" font-size="14.00">OutputWorkspace</text>
</g>
<!-- detVanCompare -->
<g id="node4" class="node">
<title>detVanCompare</title>
<ellipse fill="khaki" stroke="black" cx="382.14" cy="-935.88" rx="89.61" ry="18"/>
<text text-anchor="middle" x="382.14" y="-931.2" font-family="Helvetica,sans-Serif" font-size="14.00">DetVanCompare</text>
</g>
<!-- checkDetVanComp -->
<g id="node9" class="node">
<title>checkDetVanComp</title>
<polygon fill="limegreen" stroke="black" points="329.14,-870 194.97,-852 329.14,-834 463.31,-852 329.14,-870"/>
<text text-anchor="middle" x="329.14" y="-847.33" font-family="Helvetica,sans-Serif" font-size="14.00">DetVanCompare?</text>
</g>
<!-- detVanCompare&#45;&gt;checkDetVanComp -->
<g id="edge7" class="edge">
<title>detVanCompare&#45;&gt;checkDetVanComp</title>
<path fill="none" stroke="black" d="M371.16,-917.91C363.79,-906.53 353.95,-891.33 345.64,-878.49"/>
<polygon fill="black" stroke="black" points="348.58,-876.6 340.21,-870.1 342.71,-880.4 348.58,-876.6"/>
</g>
<!-- sampleTotWorkspace -->
<g id="node5" class="node">
<title>sampleTotWorkspace</title>
<ellipse fill="khaki" stroke="black" cx="529.14" cy="-649.75" rx="156.96" ry="18"/>
<text text-anchor="middle" x="529.14" y="-645.08" font-family="Helvetica,sans-Serif" font-size="14.00">SampleTotalCountsWorkspace</text>
</g>
<!-- checkSampleTot -->
<g id="node10" class="node">
<title>checkSampleTot</title>
<polygon fill="limegreen" stroke="black" points="344.14,-594.75 114.73,-576.75 344.14,-558.75 573.55,-576.75 344.14,-594.75"/>
<text text-anchor="middle" x="344.14" y="-572.08" font-family="Helvetica,sans-Serif" font-size="14.00">SampleTotalCountsWorkspace?</text>
</g>
<!-- sampleTotWorkspace&#45;&gt;checkSampleTot -->
<g id="edge12" class="edge">
<title>sampleTotWorkspace&#45;&gt;checkSampleTot</title>
<path fill="none" stroke="black" d="M485.77,-632.1C457.83,-621.38 421.47,-607.43 392.59,-596.34"/>
<polygon fill="black" stroke="black" points="393.92,-593.11 383.33,-592.79 391.41,-599.64 393.92,-593.11"/>
</g>
<!-- sampleBkgWorkspace -->
<g id="node6" class="node">
<title>sampleBkgWorkspace</title>
<ellipse fill="khaki" stroke="black" cx="609.14" cy="-487.5" rx="159.06" ry="18"/>
<text text-anchor="middle" x="609.14" y="-482.82" font-family="Helvetica,sans-Serif" font-size="14.00">SampleBackgroundWorkspace</text>
</g>
<!-- checkSampleBkg -->
<g id="node11" class="node">
<title>checkSampleBkg</title>
<polygon fill="limegreen" stroke="black" points="413.14,-432.5 180.75,-414.5 413.14,-396.5 645.53,-414.5 413.14,-432.5"/>
<text text-anchor="middle" x="413.14" y="-409.82" font-family="Helvetica,sans-Serif" font-size="14.00">SampleBackgroundWorkspace?</text>
</g>
<!-- sampleBkgWorkspace&#45;&gt;checkSampleBkg -->
<g id="edge15" class="edge">
<title>sampleBkgWorkspace&#45;&gt;checkSampleBkg</title>
<path fill="none" stroke="black" d="M563.19,-469.85C533.23,-459 494.13,-444.84 463.35,-433.69"/>
<polygon fill="black" stroke="black" points="464.86,-430.51 454.26,-430.4 462.47,-437.09 464.86,-430.51"/>
</g>
<!-- sampleWorkspace -->
<g id="node7" class="node">
<title>sampleWorkspace</title>
<ellipse fill="khaki" stroke="black" cx="606.14" cy="-325.25" rx="100.66" ry="18"/>
<text text-anchor="middle" x="606.14" y="-320.57" font-family="Helvetica,sans-Serif" font-size="14.00">SampleWorkspace</text>
</g>
<!-- checkSample -->
<g id="node12" class="node">
<title>checkSample</title>
<polygon fill="limegreen" stroke="black" points="469.14,-270.25 319.34,-252.25 469.14,-234.25 618.94,-252.25 469.14,-270.25"/>
<text text-anchor="middle" x="469.14" y="-247.57" font-family="Helvetica,sans-Serif" font-size="14.00">SampleWorkspace?</text>
</g>
<!-- sampleWorkspace&#45;&gt;checkSample -->
<g id="edge20" class="edge">
<title>sampleWorkspace&#45;&gt;checkSample</title>
<path fill="none" stroke="black" d="M574.37,-307.78C553.99,-297.22 527.45,-283.47 506.13,-272.42"/>
<polygon fill="black" stroke="black" points="507.96,-269.43 497.47,-267.93 504.74,-275.64 507.96,-269.43"/>
</g>
<!-- useHardMask -->
<g id="node13" class="node">
<title>useHardMask</title>
<path fill="lightskyblue" stroke="black" d="M176.52,-1038.75C176.52,-1038.75 81.77,-1038.75 81.77,-1038.75 75.77,-1038.75 69.77,-1032.75 69.77,-1026.75 69.77,-1026.75 69.77,-1014.75 69.77,-1014.75 69.77,-1008.75 75.77,-1002.75 81.77,-1002.75 81.77,-1002.75 176.52,-1002.75 176.52,-1002.75 182.52,-1002.75 188.52,-1008.75 188.52,-1014.75 188.52,-1014.75 188.52,-1026.75 188.52,-1026.75 188.52,-1032.75 182.52,-1038.75 176.52,-1038.75"/>
<text text-anchor="middle" x="129.14" y="-1016.08" font-family="Helvetica,sans-Serif" font-size="14.00">MaskDetectors</text>
</g>
<!-- checkHardMask&#45;&gt;useHardMask -->
<g id="edge3" class="edge">
<title>checkHardMask&#45;&gt;useHardMask</title>
<path fill="none" stroke="black" d="M187.12,-1093C176.84,-1080.37 162.29,-1062.49 150.34,-1047.8"/>
<polygon fill="black" stroke="black" points="153.28,-1045.87 144.25,-1040.32 147.85,-1050.29 153.28,-1045.87"/>
<text text-anchor="middle" x="182.39" y="-1060.7" font-family="Helvetica,sans-Serif" font-size="14.00">Yes</text>
</g>
<!-- doDetVanTest2I -->
<g id="node19" class="node">
<title>doDetVanTest2I</title>
<polygon fill="lightseagreen" stroke="black" points="275.02,-965.75 117.27,-965.75 117.27,-906 275.02,-906 275.02,-965.75"/>
<text text-anchor="middle" x="196.14" y="-948.45" font-family="Helvetica,sans-Serif" font-size="14.00">Do Detector</text>
<text text-anchor="middle" x="196.14" y="-931.2" font-family="Helvetica,sans-Serif" font-size="14.00"> Vanadium Tests</text>
<text text-anchor="middle" x="196.14" y="-913.95" font-family="Helvetica,sans-Serif" font-size="14.00"> on Input workspace</text>
</g>
<!-- checkHardMask&#45;&gt;doDetVanTest2I -->
<g id="edge4" class="edge">
<title>checkHardMask&#45;&gt;doDetVanTest2I</title>
<path fill="none" stroke="black" d="M199.73,-1091.55C199.12,-1064.94 197.92,-1013.51 197.08,-977.27"/>
<polygon fill="black" stroke="black" points="200.59,-977.52 196.85,-967.61 193.59,-977.69 200.59,-977.52"/>
<text text-anchor="middle" x="208.52" y="-1016.08" font-family="Helvetica,sans-Serif" font-size="14.00">No</text>
</g>
<!-- checkDetVanComp&#45;&gt;checkSampleTot -->
<g id="edge9" class="edge">
<title>checkDetVanComp&#45;&gt;checkSampleTot</title>
<path fill="none" stroke="black" d="M330.08,-833.91C332.59,-788.19 339.47,-662.74 342.58,-606.13"/>
<polygon fill="black" stroke="black" points="346.07,-606.52 343.12,-596.35 339.08,-606.14 346.07,-606.52"/>
<text text-anchor="middle" x="347.52" y="-689.7" font-family="Helvetica,sans-Serif" font-size="14.00">No</text>
</g>
<!-- doDetVanTest2DV -->
<g id="node20" class="node">
<title>doDetVanTest2DV</title>
<polygon fill="lightseagreen" stroke="black" points="310.14,-780.75 156.14,-780.75 156.14,-721 310.14,-721 310.14,-780.75"/>
<text text-anchor="middle" x="233.14" y="-763.45" font-family="Helvetica,sans-Serif" font-size="14.00">Do Detector</text>
<text text-anchor="middle" x="233.14" y="-746.2" font-family="Helvetica,sans-Serif" font-size="14.00"> Vanadium Tests</text>
<text text-anchor="middle" x="233.14" y="-728.95" font-family="Helvetica,sans-Serif" font-size="14.00"> on DetVanCompare</text>
</g>
<!-- checkDetVanComp&#45;&gt;doDetVanTest2DV -->
<g id="edge8" class="edge">
<title>checkDetVanComp&#45;&gt;doDetVanTest2DV</title>
<path fill="none" stroke="black" d="M314.14,-835.51C302.2,-823.18 284.97,-805.39 269.46,-789.38"/>
<polygon fill="black" stroke="black" points="272.08,-787.05 262.61,-782.3 267.05,-791.92 272.08,-787.05"/>
<text text-anchor="middle" x="303.39" y="-802.7" font-family="Helvetica,sans-Serif" font-size="14.00">Yes</text>
</g>
<!-- checkSampleTot&#45;&gt;checkSampleBkg -->
<g id="edge14" class="edge">
<title>checkSampleTot&#45;&gt;checkSampleBkg</title>
<path fill="none" stroke="black" d="M355.54,-559.35C364.77,-545.49 377.6,-524.87 386.14,-505.5 394.99,-485.42 402,-461.59 406.65,-443.5"/>
<polygon fill="black" stroke="black" points="410,-444.55 409,-434 403.2,-442.87 410,-444.55"/>
<text text-anchor="middle" x="407.52" y="-482.82" font-family="Helvetica,sans-Serif" font-size="14.00">No</text>
</g>
<!-- findDetsOutLims -->
<g id="node15" class="node">
<title>findDetsOutLims</title>
<path fill="lightskyblue" stroke="black" d="M365.39,-505.5C365.39,-505.5 182.89,-505.5 182.89,-505.5 176.89,-505.5 170.89,-499.5 170.89,-493.5 170.89,-493.5 170.89,-481.5 170.89,-481.5 170.89,-475.5 176.89,-469.5 182.89,-469.5 182.89,-469.5 365.39,-469.5 365.39,-469.5 371.39,-469.5 377.39,-475.5 377.39,-481.5 377.39,-481.5 377.39,-493.5 377.39,-493.5 377.39,-499.5 371.39,-505.5 365.39,-505.5"/>
<text text-anchor="middle" x="274.14" y="-482.82" font-family="Helvetica,sans-Serif" font-size="14.00">FindDetectorsOutsideLimits</text>
</g>
<!-- checkSampleTot&#45;&gt;findDetsOutLims -->
<g id="edge13" class="edge">
<title>checkSampleTot&#45;&gt;findDetsOutLims</title>
<path fill="none" stroke="black" d="M330.97,-559.34C320.81,-546.67 306.55,-528.89 294.85,-514.32"/>
<polygon fill="black" stroke="black" points="297.9,-512.52 288.91,-506.91 292.44,-516.9 297.9,-512.52"/>
<text text-anchor="middle" x="326.39" y="-527.45" font-family="Helvetica,sans-Serif" font-size="14.00">Yes</text>
</g>
<!-- checkSampleBkg&#45;&gt;checkSample -->
<g id="edge18" class="edge">
<title>checkSampleBkg&#45;&gt;checkSample</title>
<path fill="none" stroke="black" d="M420.65,-396.65C426.81,-382.53 435.56,-361.77 442.14,-343.25 449.49,-322.57 456.57,-298.77 461.64,-280.84"/>
<polygon fill="black" stroke="black" points="464.94,-282.03 464.25,-271.46 458.2,-280.15 464.94,-282.03"/>
<text text-anchor="middle" x="462.52" y="-320.57" font-family="Helvetica,sans-Serif" font-size="14.00">No</text>
</g>
<!-- medianDetTest -->
<g id="node16" class="node">
<title>medianDetTest</title>
<path fill="lightskyblue" stroke="black" d="M421.39,-343.25C421.39,-343.25 292.89,-343.25 292.89,-343.25 286.89,-343.25 280.89,-337.25 280.89,-331.25 280.89,-331.25 280.89,-319.25 280.89,-319.25 280.89,-313.25 286.89,-307.25 292.89,-307.25 292.89,-307.25 421.39,-307.25 421.39,-307.25 427.39,-307.25 433.39,-313.25 433.39,-319.25 433.39,-319.25 433.39,-331.25 433.39,-331.25 433.39,-337.25 427.39,-343.25 421.39,-343.25"/>
<text text-anchor="middle" x="357.14" y="-320.57" font-family="Helvetica,sans-Serif" font-size="14.00">MedianDetectorTest</text>
</g>
<!-- checkSampleBkg&#45;&gt;medianDetTest -->
<g id="edge17" class="edge">
<title>checkSampleBkg&#45;&gt;medianDetTest</title>
<path fill="none" stroke="black" d="M402.61,-397.09C394.63,-384.66 383.49,-367.31 374.24,-352.9"/>
<polygon fill="black" stroke="black" points="377.37,-351.28 369.02,-344.76 371.47,-355.06 377.37,-351.28"/>
<text text-anchor="middle" x="401.39" y="-365.2" font-family="Helvetica,sans-Serif" font-size="14.00">Yes</text>
</g>
<!-- createPSDBMask -->
<g id="node17" class="node">
<title>createPSDBMask</title>
<path fill="lightskyblue" stroke="black" d="M480.02,-181C480.02,-181 340.27,-181 340.27,-181 334.27,-181 328.27,-175 328.27,-169 328.27,-169 328.27,-157 328.27,-157 328.27,-151 334.27,-145 340.27,-145 340.27,-145 480.02,-145 480.02,-145 486.02,-145 492.02,-151 492.02,-157 492.02,-157 492.02,-169 492.02,-169 492.02,-175 486.02,-181 480.02,-181"/>
<text text-anchor="middle" x="410.14" y="-158.32" font-family="Helvetica,sans-Serif" font-size="14.00">CreatePSDBleedMask</text>
</g>
<!-- checkSample&#45;&gt;createPSDBMask -->
<g id="edge21" class="edge">
<title>checkSample&#45;&gt;createPSDBMask</title>
<path fill="none" stroke="black" d="M458.32,-235.25C449.94,-222.86 438.14,-205.41 428.32,-190.89"/>
<polygon fill="black" stroke="black" points="431.25,-188.97 422.75,-182.65 425.45,-192.9 431.25,-188.97"/>
<text text-anchor="middle" x="455.39" y="-202.95" font-family="Helvetica,sans-Serif" font-size="14.00">Yes</text>
</g>
<!-- extractMask -->
<g id="node18" class="node">
<title>extractMask</title>
<path fill="lightskyblue" stroke="black" d="M507.89,-108C507.89,-108 430.39,-108 430.39,-108 424.39,-108 418.39,-102 418.39,-96 418.39,-96 418.39,-84 418.39,-84 418.39,-78 424.39,-72 430.39,-72 430.39,-72 507.89,-72 507.89,-72 513.89,-72 519.89,-78 519.89,-84 519.89,-84 519.89,-96 519.89,-96 519.89,-102 513.89,-108 507.89,-108"/>
<text text-anchor="middle" x="469.14" y="-85.33" font-family="Helvetica,sans-Serif" font-size="14.00">ExtractMask</text>
</g>
<!-- checkSample&#45;&gt;extractMask -->
<g id="edge22" class="edge">
<title>checkSample&#45;&gt;extractMask</title>
<path fill="none" stroke="black" d="M479.83,-235.12C492.24,-214.36 509.95,-177.14 501.14,-145 498.56,-135.59 493.87,-126.15 488.86,-117.86"/>
<polygon fill="black" stroke="black" points="491.91,-116.14 483.53,-109.66 486.04,-119.95 491.91,-116.14"/>
<text text-anchor="middle" x="512.52" y="-158.32" font-family="Helvetica,sans-Serif" font-size="14.00">No</text>
</g>
<!-- useHardMask&#45;&gt;doDetVanTest2I -->
<g id="edge5" class="edge">
<title>useHardMask&#45;&gt;doDetVanTest2I</title>
<path fill="none" stroke="black" d="M143.02,-1002.58C149.54,-994.52 157.58,-984.57 165.42,-974.87"/>
<polygon fill="black" stroke="black" points="167.99,-977.26 171.56,-967.28 162.55,-972.86 167.99,-977.26"/>
</g>
<!-- detEfficVar -->
<g id="node14" class="node">
<title>detEfficVar</title>
<path fill="lightskyblue" stroke="black" d="M304.52,-667.75C304.52,-667.75 125.77,-667.75 125.77,-667.75 119.77,-667.75 113.77,-661.75 113.77,-655.75 113.77,-655.75 113.77,-643.75 113.77,-643.75 113.77,-637.75 119.77,-631.75 125.77,-631.75 125.77,-631.75 304.52,-631.75 304.52,-631.75 310.52,-631.75 316.52,-637.75 316.52,-643.75 316.52,-643.75 316.52,-655.75 316.52,-655.75 316.52,-661.75 310.52,-667.75 304.52,-667.75"/>
<text text-anchor="middle" x="215.14" y="-645.08" font-family="Helvetica,sans-Serif" font-size="14.00">DetectorEfficiencyVariation</text>
</g>
<!-- detEfficVar&#45;&gt;checkSampleTot -->
<g id="edge11" class="edge">
<title>detEfficVar&#45;&gt;checkSampleTot</title>
<path fill="none" stroke="black" d="M246.7,-631.38C264.78,-621.43 287.59,-608.88 306.59,-598.42"/>
<polygon fill="black" stroke="black" points="308.01,-601.63 315.09,-593.74 304.64,-595.5 308.01,-601.63"/>
</g>
<!-- findDetsOutLims&#45;&gt;checkSampleBkg -->
<g id="edge16" class="edge">
<title>findDetsOutLims&#45;&gt;checkSampleBkg</title>
<path fill="none" stroke="black" d="M308.14,-469.13C327.95,-459.02 353,-446.22 373.67,-435.66"/>
<polygon fill="black" stroke="black" points="375.06,-438.88 382.38,-431.21 371.88,-432.65 375.06,-438.88"/>
</g>
<!-- medianDetTest&#45;&gt;checkSample -->
<g id="edge19" class="edge">
<title>medianDetTest&#45;&gt;checkSample</title>
<path fill="none" stroke="black" d="M384.54,-306.88C400.35,-296.86 420.31,-284.2 436.87,-273.7"/>
<polygon fill="black" stroke="black" points="438.33,-276.93 444.9,-268.62 434.58,-271.02 438.33,-276.93"/>
</g>
<!-- createPSDBMask&#45;&gt;extractMask -->
<g id="edge23" class="edge">
<title>createPSDBMask&#45;&gt;extractMask</title>
<path fill="none" stroke="black" d="M424.42,-144.81C431.45,-136.35 440.07,-125.98 447.86,-116.61"/>
<polygon fill="black" stroke="black" points="450.32,-119.12 454.02,-109.19 444.94,-114.65 450.32,-119.12"/>
</g>
<!-- extractMask&#45;&gt;outputWorkspace -->
<g id="edge24" class="edge">
<title>extractMask&#45;&gt;outputWorkspace</title>
<path fill="none" stroke="black" d="M469.14,-71.7C469.14,-64.41 469.14,-55.73 469.14,-47.54"/>
<polygon fill="black" stroke="black" points="472.64,-47.62 469.14,-37.62 465.64,-47.62 472.64,-47.62"/>
</g>
<!-- doDetVanTest2I&#45;&gt;checkDetVanComp -->
<g id="edge6" class="edge">
<title>doDetVanTest2I&#45;&gt;checkDetVanComp</title>
<path fill="none" stroke="black" d="M243.78,-905.55C261.31,-894.76 280.75,-882.79 296.64,-873.01"/>
<polygon fill="black" stroke="black" points="298.06,-876.24 304.74,-868.02 294.39,-870.28 298.06,-876.24"/>
</g>
<!-- doDetVanTest2DV&#45;&gt;detEfficVar -->
<g id="edge10" class="edge">
<title>doDetVanTest2DV&#45;&gt;detEfficVar</title>
<path fill="none" stroke="black" d="M227.84,-720.67C225.46,-707.55 222.65,-692.13 220.29,-679.12"/>
<polygon fill="black" stroke="black" points="223.77,-678.68 218.54,-669.46 216.88,-679.93 223.77,-678.68"/>
</g>
</g>
</svg>
