<?xml version="1.0" encoding="UTF-8" standalone="no"?>
<!DOCTYPE svg PUBLIC "-//W3C//DTD SVG 1.1//EN"
 "http://www.w3.org/Graphics/SVG/1.1/DTD/svg11.dtd">
<!-- Generated by graphviz version 11.0.0 (20240519.1550)
 -->
<!-- Title: DgsReduction Pages: 1 -->
<svg width="1348pt" height="1581pt"
 viewBox="0.00 0.00 1348.11 1581.10" xmlns="http://www.w3.org/2000/svg" xmlns:xlink="http://www.w3.org/1999/xlink">
<g id="graph0" class="graph" transform="scale(1 1) rotate(0) translate(4 1577.1)">
<title>DgsReduction</title>
<polygon fill="white" stroke="none" points="-4,4 -4,-1577.1 1344.11,-1577.1 1344.11,4 -4,4"/>
<text text-anchor="middle" x="670.06" y="-1555.8" font-family="Helvetica,sans-Serif" font-size="14.00">DgsAbsoluteUnitsReduction Flowchart</text>
<!-- absUDWS -->
<g id="node1" class="node">
<title>absUDWS</title>
<ellipse fill="khaki" stroke="black" cx="1167.33" cy="-1505.6" rx="105.18" ry="42.25"/>
<text text-anchor="middle" x="1167.33" y="-1518.18" font-family="Helvetica,sans-Serif" font-size="14.00">Absolute Units</text>
<text text-anchor="middle" x="1167.33" y="-1500.93" font-family="Helvetica,sans-Serif" font-size="14.00">Detector Vanadium</text>
<text text-anchor="middle" x="1167.33" y="-1483.68" font-family="Helvetica,sans-Serif" font-size="14.00">Workspace</text>
</g>
<!-- DgsProcessDetectorVanadium -->
<g id="node18" class="node">
<title>DgsProcessDetectorVanadium</title>
<path fill="lightskyblue" stroke="black" d="M1267.21,-1426.35C1267.21,-1426.35 1067.46,-1426.35 1067.46,-1426.35 1061.46,-1426.35 1055.46,-1420.35 1055.46,-1414.35 1055.46,-1414.35 1055.46,-1402.35 1055.46,-1402.35 1055.46,-1396.35 1061.46,-1390.35 1067.46,-1390.35 1067.46,-1390.35 1267.21,-1390.35 1267.21,-1390.35 1273.21,-1390.35 1279.21,-1396.35 1279.21,-1402.35 1279.21,-1402.35 1279.21,-1414.35 1279.21,-1414.35 1279.21,-1420.35 1273.21,-1426.35 1267.21,-1426.35"/>
<text text-anchor="middle" x="1167.33" y="-1403.68" font-family="Helvetica,sans-Serif" font-size="14.00">DgsProcessDetectorVanadium</text>
</g>
<!-- absUDWS&#45;&gt;DgsProcessDetectorVanadium -->
<g id="edge1" class="edge">
<title>absUDWS&#45;&gt;DgsProcessDetectorVanadium</title>
<path fill="none" stroke="black" d="M1167.33,-1463.1C1167.33,-1454.58 1167.33,-1445.79 1167.33,-1437.85"/>
<polygon fill="black" stroke="black" points="1170.83,-1438.12 1167.33,-1428.12 1163.83,-1438.12 1170.83,-1438.12"/>
</g>
<!-- absUSWS -->
<g id="node2" class="node">
<title>absUSWS</title>
<ellipse fill="khaki" stroke="black" cx="412.33" cy="-1303.6" rx="104.65" ry="30.05"/>
<text text-anchor="middle" x="412.33" y="-1307.55" font-family="Helvetica,sans-Serif" font-size="14.00">Absolute Units</text>
<text text-anchor="middle" x="412.33" y="-1290.3" font-family="Helvetica,sans-Serif" font-size="14.00">Sample Workspace</text>
</g>
<!-- DgsConvertToEnergyTransfer -->
<g id="node19" class="node">
<title>DgsConvertToEnergyTransfer</title>
<path fill="lightskyblue" stroke="black" d="M917.21,-1215.85C917.21,-1215.85 723.46,-1215.85 723.46,-1215.85 717.46,-1215.85 711.46,-1209.85 711.46,-1203.85 711.46,-1203.85 711.46,-1191.85 711.46,-1191.85 711.46,-1185.85 717.46,-1179.85 723.46,-1179.85 723.46,-1179.85 917.21,-1179.85 917.21,-1179.85 923.21,-1179.85 929.21,-1185.85 929.21,-1191.85 929.21,-1191.85 929.21,-1203.85 929.21,-1203.85 929.21,-1209.85 923.21,-1215.85 917.21,-1215.85"/>
<text text-anchor="middle" x="820.33" y="-1193.18" font-family="Helvetica,sans-Serif" font-size="14.00">DgsConvertToEnergyTransfer</text>
</g>
<!-- absUSWS&#45;&gt;DgsConvertToEnergyTransfer -->
<g id="edge6" class="edge">
<title>absUSWS&#45;&gt;DgsConvertToEnergyTransfer</title>
<path fill="none" stroke="black" d="M463.68,-1276.96C482.68,-1268.29 504.64,-1259.21 525.33,-1252.85 557.75,-1242.9 633.54,-1229.1 700.18,-1217.94"/>
<polygon fill="black" stroke="black" points="700.44,-1221.44 709.73,-1216.35 699.29,-1214.54 700.44,-1221.44"/>
</g>
<!-- absUMWS -->
<g id="node3" class="node">
<title>absUMWS</title>
<ellipse fill="khaki" stroke="black" cx="236.33" cy="-639.8" rx="93.51" ry="30.05"/>
<text text-anchor="middle" x="236.33" y="-643.75" font-family="Helvetica,sans-Serif" font-size="14.00">Absolute Units</text>
<text text-anchor="middle" x="236.33" y="-626.5" font-family="Helvetica,sans-Serif" font-size="14.00">Mask Workspace</text>
</g>
<!-- detDiagParam -->
<g id="node4" class="node">
<title>detDiagParam</title>
<ellipse fill="khaki" stroke="black" cx="236.33" cy="-957.6" rx="67" ry="42.25"/>
<text text-anchor="middle" x="236.33" y="-970.18" font-family="Helvetica,sans-Serif" font-size="14.00">Detector</text>
<text text-anchor="middle" x="236.33" y="-952.93" font-family="Helvetica,sans-Serif" font-size="14.00">Diagnostic</text>
<text text-anchor="middle" x="236.33" y="-935.68" font-family="Helvetica,sans-Serif" font-size="14.00">Parameters</text>
</g>
<!-- DetectorDiagnostic -->
<g id="node23" class="node">
<title>DetectorDiagnostic</title>
<path fill="lightskyblue" stroke="black" d="M309.33,-879.35C309.33,-879.35 185.33,-879.35 185.33,-879.35 179.33,-879.35 173.33,-873.35 173.33,-867.35 173.33,-867.35 173.33,-855.35 173.33,-855.35 173.33,-849.35 179.33,-843.35 185.33,-843.35 185.33,-843.35 309.33,-843.35 309.33,-843.35 315.33,-843.35 321.33,-849.35 321.33,-855.35 321.33,-855.35 321.33,-867.35 321.33,-867.35 321.33,-873.35 315.33,-879.35 309.33,-879.35"/>
<text text-anchor="middle" x="247.33" y="-856.68" font-family="Helvetica,sans-Serif" font-size="14.00">DetectorDiagnostic</text>
</g>
<!-- detDiagParam&#45;&gt;DetectorDiagnostic -->
<g id="edge17" class="edge">
<title>detDiagParam&#45;&gt;DetectorDiagnostic</title>
<path fill="none" stroke="black" d="M241.19,-914.99C242.14,-906.83 243.12,-898.46 244.01,-890.85"/>
<polygon fill="black" stroke="black" points="247.45,-891.52 245.14,-881.18 240.5,-890.71 247.45,-891.52"/>
</g>
<!-- AbsUnitsIncidentEnergy -->
<g id="node5" class="node">
<title>AbsUnitsIncidentEnergy</title>
<ellipse fill="khaki" stroke="black" cx="663.33" cy="-1303.6" rx="128.55" ry="18"/>
<text text-anchor="middle" x="663.33" y="-1298.93" font-family="Helvetica,sans-Serif" font-size="14.00">AbsUnitsIncidentEnergy</text>
</g>
<!-- AbsUnitsIncidentEnergy&#45;&gt;DgsConvertToEnergyTransfer -->
<g id="edge7" class="edge">
<title>AbsUnitsIncidentEnergy&#45;&gt;DgsConvertToEnergyTransfer</title>
<path fill="none" stroke="black" d="M688.91,-1285.7C714.9,-1268.52 755.39,-1241.77 784.56,-1222.49"/>
<polygon fill="black" stroke="black" points="786.31,-1225.53 792.72,-1217.1 782.45,-1219.69 786.31,-1225.53"/>
</g>
<!-- VanadiumMass -->
<g id="node6" class="node">
<title>VanadiumMass</title>
<ellipse fill="khaki" stroke="black" cx="420.33" cy="-1197.85" rx="84.35" ry="18"/>
<text text-anchor="middle" x="420.33" y="-1193.18" font-family="Helvetica,sans-Serif" font-size="14.00">VanadiumMass</text>
</g>
<!-- Divide -->
<g id="node20" class="node">
<title>Divide</title>
<path fill="lightskyblue" stroke="black" d="M626.08,-1143.85C626.08,-1143.85 590.58,-1143.85 590.58,-1143.85 584.58,-1143.85 578.58,-1137.85 578.58,-1131.85 578.58,-1131.85 578.58,-1119.85 578.58,-1119.85 578.58,-1113.85 584.58,-1107.85 590.58,-1107.85 590.58,-1107.85 626.08,-1107.85 626.08,-1107.85 632.08,-1107.85 638.08,-1113.85 638.08,-1119.85 638.08,-1119.85 638.08,-1131.85 638.08,-1131.85 638.08,-1137.85 632.08,-1143.85 626.08,-1143.85"/>
<text text-anchor="middle" x="608.33" y="-1121.18" font-family="Helvetica,sans-Serif" font-size="14.00">Divide</text>
</g>
<!-- VanadiumMass&#45;&gt;Divide -->
<g id="edge10" class="edge">
<title>VanadiumMass&#45;&gt;Divide</title>
<path fill="none" stroke="black" d="M464.31,-1182.11C491.75,-1172.7 527.98,-1159.93 567.73,-1144.37"/>
<polygon fill="black" stroke="black" points="568.76,-1147.72 576.78,-1140.8 566.19,-1141.21 568.76,-1147.72"/>
</g>
<!-- VanadiumRmm -->
<g id="node7" class="node">
<title>VanadiumRmm</title>
<ellipse fill="khaki" stroke="black" cx="608.33" cy="-1197.85" rx="85.41" ry="18"/>
<text text-anchor="middle" x="608.33" y="-1193.18" font-family="Helvetica,sans-Serif" font-size="14.00">VanadiumRmm</text>
</g>
<!-- VanadiumRmm&#45;&gt;Divide -->
<g id="edge11" class="edge">
<title>VanadiumRmm&#45;&gt;Divide</title>
<path fill="none" stroke="black" d="M608.33,-1179.55C608.33,-1172.26 608.33,-1163.58 608.33,-1155.39"/>
<polygon fill="black" stroke="black" points="611.83,-1155.47 608.33,-1145.47 604.83,-1155.47 611.83,-1155.47"/>
</g>
<!-- AbsUnitsMinimumEnergy -->
<g id="node8" class="node">
<title>AbsUnitsMinimumEnergy</title>
<ellipse fill="khaki" stroke="black" cx="134.33" cy="-1125.85" rx="134.33" ry="18"/>
<text text-anchor="middle" x="134.33" y="-1121.18" font-family="Helvetica,sans-Serif" font-size="14.00">AbsUnitsMinimumEnergy</text>
</g>
<!-- Rebin -->
<g id="node21" class="node">
<title>Rebin</title>
<path fill="lightskyblue" stroke="black" d="M494.33,-1071.85C494.33,-1071.85 352.33,-1071.85 352.33,-1071.85 346.33,-1071.85 340.33,-1065.85 340.33,-1059.85 340.33,-1059.85 340.33,-1047.85 340.33,-1047.85 340.33,-1041.85 346.33,-1035.85 352.33,-1035.85 352.33,-1035.85 494.33,-1035.85 494.33,-1035.85 500.33,-1035.85 506.33,-1041.85 506.33,-1047.85 506.33,-1047.85 506.33,-1059.85 506.33,-1059.85 506.33,-1065.85 500.33,-1071.85 494.33,-1071.85"/>
<text text-anchor="middle" x="423.33" y="-1049.18" font-family="Helvetica,sans-Serif" font-size="14.00">Rebin (as integration)</text>
</g>
<!-- AbsUnitsMinimumEnergy&#45;&gt;Rebin -->
<g id="edge13" class="edge">
<title>AbsUnitsMinimumEnergy&#45;&gt;Rebin</title>
<path fill="none" stroke="black" d="M197.4,-1109.58C239.29,-1099.43 294.73,-1086 340.21,-1074.99"/>
<polygon fill="black" stroke="black" points="340.88,-1078.43 349.77,-1072.67 339.23,-1071.62 340.88,-1078.43"/>
</g>
<!-- AbsUnitsMaximumEnergy -->
<g id="node9" class="node">
<title>AbsUnitsMaximumEnergy</title>
<ellipse fill="khaki" stroke="black" cx="423.33" cy="-1125.85" rx="136.96" ry="18"/>
<text text-anchor="middle" x="423.33" y="-1121.18" font-family="Helvetica,sans-Serif" font-size="14.00">AbsUnitsMaximumEnergy</text>
</g>
<!-- AbsUnitsMaximumEnergy&#45;&gt;Rebin -->
<g id="edge14" class="edge">
<title>AbsUnitsMaximumEnergy&#45;&gt;Rebin</title>
<path fill="none" stroke="black" d="M423.33,-1107.55C423.33,-1100.26 423.33,-1091.58 423.33,-1083.39"/>
<polygon fill="black" stroke="black" points="426.83,-1083.47 423.33,-1073.47 419.83,-1083.47 426.83,-1083.47"/>
</g>
<!-- MaskWorkspace -->
<g id="node10" class="node">
<title>MaskWorkspace</title>
<ellipse fill="khaki" stroke="black" cx="909.33" cy="-1505.6" rx="89.61" ry="18"/>
<text text-anchor="middle" x="909.33" y="-1500.93" font-family="Helvetica,sans-Serif" font-size="14.00">MaskWorkspace</text>
</g>
<!-- MaskWorkspace&#45;&gt;DgsProcessDetectorVanadium -->
<g id="edge3" class="edge">
<title>MaskWorkspace&#45;&gt;DgsProcessDetectorVanadium</title>
<path fill="none" stroke="black" d="M950.79,-1489.3C993.82,-1473.41 1061.48,-1448.43 1109.71,-1430.63"/>
<polygon fill="black" stroke="black" points="1110.71,-1433.99 1118.88,-1427.24 1108.29,-1427.42 1110.71,-1433.99"/>
</g>
<!-- MaskWorkspace&#45;&gt;DgsConvertToEnergyTransfer -->
<g id="edge2" class="edge">
<title>MaskWorkspace&#45;&gt;DgsConvertToEnergyTransfer</title>
<path fill="none" stroke="black" d="M899.04,-1487.27C883.37,-1460.01 853.83,-1404.98 839.33,-1354.35 826.98,-1311.19 822.66,-1259.03 821.15,-1227.43"/>
<polygon fill="black" stroke="black" points="824.65,-1227.36 820.74,-1217.51 817.65,-1227.64 824.65,-1227.36"/>
</g>
<!-- GroupingWorkspace -->
<g id="node11" class="node">
<title>GroupingWorkspace</title>
<ellipse fill="khaki" stroke="black" cx="957.33" cy="-1303.6" rx="109.08" ry="18"/>
<text text-anchor="middle" x="957.33" y="-1298.93" font-family="Helvetica,sans-Serif" font-size="14.00">GroupingWorkspace</text>
</g>
<!-- GroupingWorkspace&#45;&gt;DgsConvertToEnergyTransfer -->
<g id="edge5" class="edge">
<title>GroupingWorkspace&#45;&gt;DgsConvertToEnergyTransfer</title>
<path fill="none" stroke="black" d="M935.02,-1285.7C912.46,-1268.62 877.4,-1242.07 851.98,-1222.82"/>
<polygon fill="black" stroke="black" points="854.39,-1220.25 844.3,-1217.01 850.16,-1225.83 854.39,-1220.25"/>
</g>
<!-- OutputWorkspace -->
<g id="node12" class="node">
<title>OutputWorkspace</title>
<ellipse fill="khaki" stroke="black" cx="461.33" cy="-18" rx="98.56" ry="18"/>
<text text-anchor="middle" x="461.33" y="-13.32" font-family="Helvetica,sans-Serif" font-size="14.00">OutputWorkspace</text>
</g>
<!-- isIAUDV -->
<g id="node13" class="node">
<title>isIAUDV</title>
<polygon fill="limegreen" stroke="black" points="407.33,-410.25 251.08,-350.5 407.33,-290.75 563.58,-350.5 407.33,-410.25"/>
<text text-anchor="middle" x="407.33" y="-363.07" font-family="Helvetica,sans-Serif" font-size="14.00">Is Integrated</text>
<text text-anchor="middle" x="407.33" y="-345.82" font-family="Helvetica,sans-Serif" font-size="14.00">Absolute Units</text>
<text text-anchor="middle" x="407.33" y="-328.57" font-family="Helvetica,sans-Serif" font-size="14.00">Detector Vanadium?</text>
</g>
<!-- pauw -->
<g id="node15" class="node">
<title>pauw</title>
<polygon fill="grey" stroke="black" points="588.34,-145 386.3,-145 334.33,-72 536.36,-72 588.34,-145"/>
<text text-anchor="middle" x="461.33" y="-109.45" font-family="Times,serif" font-size="14.00">Processed Absolute</text>
<text text-anchor="middle" x="461.33" y="-95.2" font-family="Times,serif" font-size="14.00">Units Workspace</text>
</g>
<!-- isIAUDV&#45;&gt;pauw -->
<g id="edge26" class="edge">
<title>isIAUDV&#45;&gt;pauw</title>
<path fill="none" stroke="black" d="M421.16,-295.63C424.59,-281.84 428.18,-267.02 431.33,-253.25 438.71,-221.03 446.31,-184.58 452.01,-156.45"/>
<polygon fill="black" stroke="black" points="455.41,-157.3 453.96,-146.81 448.55,-155.92 455.41,-157.3"/>
<text text-anchor="middle" x="455.71" y="-195.32" font-family="Helvetica,sans-Serif" font-size="14.00">No</text>
</g>
<!-- Multiply -->
<g id="node27" class="node">
<title>Multiply</title>
<path fill="lightskyblue" stroke="black" d="M540.71,-218C540.71,-218 493.96,-218 493.96,-218 487.96,-218 481.96,-212 481.96,-206 481.96,-206 481.96,-194 481.96,-194 481.96,-188 487.96,-182 493.96,-182 493.96,-182 540.71,-182 540.71,-182 546.71,-182 552.71,-188 552.71,-194 552.71,-194 552.71,-206 552.71,-206 552.71,-212 546.71,-218 540.71,-218"/>
<text text-anchor="middle" x="517.33" y="-195.32" font-family="Helvetica,sans-Serif" font-size="14.00">Multiply</text>
</g>
<!-- isIAUDV&#45;&gt;Multiply -->
<g id="edge25" class="edge">
<title>isIAUDV&#45;&gt;Multiply</title>
<path fill="none" stroke="black" d="M441.54,-303.33C460.02,-278.37 482.18,-248.45 497.75,-227.43"/>
<polygon fill="black" stroke="black" points="500.37,-229.79 503.51,-219.67 494.74,-225.62 500.37,-229.79"/>
<text text-anchor="middle" x="501.58" y="-239.95" font-family="Helvetica,sans-Serif" font-size="14.00">Yes</text>
</g>
<!-- procSample -->
<g id="node14" class="node">
<title>procSample</title>
<polygon fill="grey" stroke="black" points="326.13,-807.35 200.78,-807.35 168.54,-705.85 293.88,-705.85 326.13,-807.35"/>
<text text-anchor="middle" x="247.33" y="-764.68" font-family="Times,serif" font-size="14.00">Processed</text>
<text text-anchor="middle" x="247.33" y="-750.43" font-family="Times,serif" font-size="14.00">Sample</text>
<text text-anchor="middle" x="247.33" y="-736.18" font-family="Times,serif" font-size="14.00">Workspace</text>
</g>
<!-- procSample&#45;&gt;absUMWS -->
<g id="edge19" class="edge">
<title>procSample&#45;&gt;absUMWS</title>
<path fill="none" stroke="black" d="M242.54,-705.58C241.77,-697.56 240.98,-689.34 240.24,-681.56"/>
<polygon fill="black" stroke="black" points="243.73,-681.32 239.29,-671.7 236.76,-681.98 243.73,-681.32"/>
</g>
<!-- MaskDetectors -->
<g id="node24" class="node">
<title>MaskDetectors</title>
<path fill="lightskyblue" stroke="black" d="M454.71,-657.8C454.71,-657.8 359.96,-657.8 359.96,-657.8 353.96,-657.8 347.96,-651.8 347.96,-645.8 347.96,-645.8 347.96,-633.8 347.96,-633.8 347.96,-627.8 353.96,-621.8 359.96,-621.8 359.96,-621.8 454.71,-621.8 454.71,-621.8 460.71,-621.8 466.71,-627.8 466.71,-633.8 466.71,-633.8 466.71,-645.8 466.71,-645.8 466.71,-651.8 460.71,-657.8 454.71,-657.8"/>
<text text-anchor="middle" x="407.33" y="-635.13" font-family="Helvetica,sans-Serif" font-size="14.00">MaskDetectors</text>
</g>
<!-- procSample&#45;&gt;MaskDetectors -->
<g id="edge20" class="edge">
<title>procSample&#45;&gt;MaskDetectors</title>
<path fill="none" stroke="black" d="M298.4,-718.96C323.09,-701.24 352.04,-680.47 373.89,-664.8"/>
<polygon fill="black" stroke="black" points="375.77,-667.76 381.85,-659.08 371.69,-662.07 375.77,-667.76"/>
</g>
<!-- pauw&#45;&gt;OutputWorkspace -->
<g id="edge28" class="edge">
<title>pauw&#45;&gt;OutputWorkspace</title>
<path fill="none" stroke="black" d="M461.33,-71.5C461.33,-63.46 461.33,-55.05 461.33,-47.37"/>
<polygon fill="black" stroke="black" points="464.83,-47.58 461.33,-37.58 457.83,-47.58 464.83,-47.58"/>
</g>
<!-- sampleCoeff -->
<g id="node16" class="node">
<title>sampleCoeff</title>
<polygon fill="grey" stroke="black" points="798.67,-429.75 626.33,-429.75 581.99,-271.25 754.34,-271.25 798.67,-429.75"/>
<text text-anchor="middle" x="690.33" y="-372.82" font-family="Times,serif" font-size="14.00">SampleMass</text>
<text text-anchor="middle" x="690.33" y="-358.57" font-family="Times,serif" font-size="14.00">divided by</text>
<text text-anchor="middle" x="690.33" y="-344.32" font-family="Times,serif" font-size="14.00">SampleRmm</text>
<text text-anchor="middle" x="690.33" y="-330.07" font-family="Times,serif" font-size="14.00">divided by</text>
<text text-anchor="middle" x="690.33" y="-315.82" font-family="Times,serif" font-size="14.00">Scattering XSec</text>
</g>
<!-- sampleCoeff&#45;&gt;Multiply -->
<g id="edge24" class="edge">
<title>sampleCoeff&#45;&gt;Multiply</title>
<path fill="none" stroke="black" d="M598.77,-270.9C579.71,-254.54 560.97,-238.46 546.29,-225.86"/>
<polygon fill="black" stroke="black" points="548.72,-223.33 538.85,-219.47 544.16,-228.64 548.72,-223.33"/>
</g>
<!-- IAUDV -->
<g id="node17" class="node">
<title>IAUDV</title>
<polygon fill="grey" stroke="black" points="1340.11,-1354.35 1136.84,-1354.35 1084.55,-1252.85 1287.82,-1252.85 1340.11,-1354.35"/>
<text text-anchor="middle" x="1212.33" y="-1311.68" font-family="Times,serif" font-size="14.00">Integrated</text>
<text text-anchor="middle" x="1212.33" y="-1297.43" font-family="Times,serif" font-size="14.00">Absolute Units</text>
<text text-anchor="middle" x="1212.33" y="-1283.18" font-family="Times,serif" font-size="14.00">Detector Vanadium</text>
</g>
<!-- IAUDV&#45;&gt;DgsConvertToEnergyTransfer -->
<g id="edge8" class="edge">
<title>IAUDV&#45;&gt;DgsConvertToEnergyTransfer</title>
<path fill="none" stroke="black" d="M1085.65,-1255.89C1082.18,-1254.84 1078.74,-1253.83 1075.33,-1252.85 1028.1,-1239.35 975.08,-1227.59 929.67,-1218.52"/>
<polygon fill="black" stroke="black" points="930.57,-1215.13 920.08,-1216.63 929.21,-1222 930.57,-1215.13"/>
</g>
<!-- DgsProcessDetectorVanadium&#45;&gt;IAUDV -->
<g id="edge4" class="edge">
<title>DgsProcessDetectorVanadium&#45;&gt;IAUDV</title>
<path fill="none" stroke="black" d="M1174.97,-1389.92C1178.1,-1382.77 1181.93,-1374.02 1185.93,-1364.89"/>
<polygon fill="black" stroke="black" points="1189.08,-1366.43 1189.88,-1355.86 1182.67,-1363.62 1189.08,-1366.43"/>
</g>
<!-- DgsConvertToEnergyTransfer&#45;&gt;Divide -->
<g id="edge9" class="edge">
<title>DgsConvertToEnergyTransfer&#45;&gt;Divide</title>
<path fill="none" stroke="black" d="M767.38,-1179.37C730.8,-1167.29 682.86,-1151.46 649.21,-1140.35"/>
<polygon fill="black" stroke="black" points="650.42,-1137.06 639.83,-1137.25 648.22,-1143.71 650.42,-1137.06"/>
</g>
<!-- Divide&#45;&gt;Rebin -->
<g id="edge12" class="edge">
<title>Divide&#45;&gt;Rebin</title>
<path fill="none" stroke="black" d="M578.18,-1111.49C575.2,-1110.23 572.21,-1109 569.33,-1107.85 541.71,-1096.83 510.78,-1085.47 484.53,-1076.1"/>
<polygon fill="black" stroke="black" points="485.99,-1072.91 475.39,-1072.86 483.65,-1079.5 485.99,-1072.91"/>
</g>
<!-- ConvertToMatrixWorkspace -->
<g id="node22" class="node">
<title>ConvertToMatrixWorkspace</title>
<path fill="lightskyblue" stroke="black" d="M513.46,-975.6C513.46,-975.6 333.21,-975.6 333.21,-975.6 327.21,-975.6 321.21,-969.6 321.21,-963.6 321.21,-963.6 321.21,-951.6 321.21,-951.6 321.21,-945.6 327.21,-939.6 333.21,-939.6 333.21,-939.6 513.46,-939.6 513.46,-939.6 519.46,-939.6 525.46,-945.6 525.46,-951.6 525.46,-951.6 525.46,-963.6 525.46,-963.6 525.46,-969.6 519.46,-975.6 513.46,-975.6"/>
<text text-anchor="middle" x="423.33" y="-952.93" font-family="Helvetica,sans-Serif" font-size="14.00">ConvertToMatrixWorkspace</text>
</g>
<!-- Rebin&#45;&gt;ConvertToMatrixWorkspace -->
<g id="edge15" class="edge">
<title>Rebin&#45;&gt;ConvertToMatrixWorkspace</title>
<path fill="none" stroke="black" d="M423.33,-1035.57C423.33,-1022.1 423.33,-1003.11 423.33,-987.36"/>
<polygon fill="black" stroke="black" points="426.83,-987.61 423.33,-977.61 419.83,-987.61 426.83,-987.61"/>
</g>
<!-- ConvertToMatrixWorkspace&#45;&gt;DetectorDiagnostic -->
<g id="edge16" class="edge">
<title>ConvertToMatrixWorkspace&#45;&gt;DetectorDiagnostic</title>
<path fill="none" stroke="black" d="M391.05,-939.32C362.7,-924.13 321.24,-901.93 290.13,-885.27"/>
<polygon fill="black" stroke="black" points="291.81,-882.2 281.34,-880.57 288.5,-888.37 291.81,-882.2"/>
</g>
<!-- DetectorDiagnostic&#45;&gt;procSample -->
<g id="edge18" class="edge">
<title>DetectorDiagnostic&#45;&gt;procSample</title>
<path fill="none" stroke="black" d="M247.33,-842.92C247.33,-836 247.33,-827.59 247.33,-818.77"/>
<polygon fill="black" stroke="black" points="250.83,-818.99 247.33,-808.99 243.83,-818.99 250.83,-818.99"/>
</g>
<!-- ConvertFromDistribution -->
<g id="node25" class="node">
<title>ConvertFromDistribution</title>
<path fill="lightskyblue" stroke="black" d="M488.08,-573.75C488.08,-573.75 326.58,-573.75 326.58,-573.75 320.58,-573.75 314.58,-567.75 314.58,-561.75 314.58,-561.75 314.58,-549.75 314.58,-549.75 314.58,-543.75 320.58,-537.75 326.58,-537.75 326.58,-537.75 488.08,-537.75 488.08,-537.75 494.08,-537.75 500.08,-543.75 500.08,-549.75 500.08,-549.75 500.08,-561.75 500.08,-561.75 500.08,-567.75 494.08,-573.75 488.08,-573.75"/>
<text text-anchor="middle" x="407.33" y="-551.08" font-family="Helvetica,sans-Serif" font-size="14.00">ConvertFromDistribution</text>
</g>
<!-- MaskDetectors&#45;&gt;ConvertFromDistribution -->
<g id="edge21" class="edge">
<title>MaskDetectors&#45;&gt;ConvertFromDistribution</title>
<path fill="none" stroke="black" d="M407.33,-621.4C407.33,-610.96 407.33,-597.42 407.33,-585.43"/>
<polygon fill="black" stroke="black" points="410.83,-585.64 407.33,-575.64 403.83,-585.64 410.83,-585.64"/>
</g>
<!-- WeightedMeanOfWorkspace -->
<g id="node26" class="node">
<title>WeightedMeanOfWorkspace</title>
<path fill="lightskyblue" stroke="black" d="M500.83,-501.75C500.83,-501.75 313.83,-501.75 313.83,-501.75 307.83,-501.75 301.83,-495.75 301.83,-489.75 301.83,-489.75 301.83,-477.75 301.83,-477.75 301.83,-471.75 307.83,-465.75 313.83,-465.75 313.83,-465.75 500.83,-465.75 500.83,-465.75 506.83,-465.75 512.83,-471.75 512.83,-477.75 512.83,-477.75 512.83,-489.75 512.83,-489.75 512.83,-495.75 506.83,-501.75 500.83,-501.75"/>
<text text-anchor="middle" x="407.33" y="-479.07" font-family="Helvetica,sans-Serif" font-size="14.00">WeightedMeanOfWorkspace</text>
</g>
<!-- ConvertFromDistribution&#45;&gt;WeightedMeanOfWorkspace -->
<g id="edge22" class="edge">
<title>ConvertFromDistribution&#45;&gt;WeightedMeanOfWorkspace</title>
<path fill="none" stroke="black" d="M407.33,-537.45C407.33,-530.16 407.33,-521.48 407.33,-513.29"/>
<polygon fill="black" stroke="black" points="410.83,-513.37 407.33,-503.37 403.83,-513.37 410.83,-513.37"/>
</g>
<!-- WeightedMeanOfWorkspace&#45;&gt;isIAUDV -->
<g id="edge23" class="edge">
<title>WeightedMeanOfWorkspace&#45;&gt;isIAUDV</title>
<path fill="none" stroke="black" d="M407.33,-465.32C407.33,-453.88 407.33,-438.07 407.33,-421.88"/>
<polygon fill="black" stroke="black" points="410.83,-422.17 407.33,-412.17 403.83,-422.17 410.83,-422.17"/>
</g>
<!-- Multiply&#45;&gt;pauw -->
<g id="edge27" class="edge">
<title>Multiply&#45;&gt;pauw</title>
<path fill="none" stroke="black" d="M506.54,-181.74C501.67,-173.97 495.68,-164.39 489.67,-154.78"/>
<polygon fill="black" stroke="black" points="492.76,-153.13 484.49,-146.51 486.83,-156.84 492.76,-153.13"/>
</g>
</g>
</svg>
