<?xml version="1.0" encoding="UTF-8" standalone="no"?>
<!DOCTYPE svg PUBLIC "-//W3C//DTD SVG 1.1//EN"
 "http://www.w3.org/Graphics/SVG/1.1/DTD/svg11.dtd">
<!-- Generated by graphviz version 7.1.0 (20230122.1345)
 -->
<!-- Title: DgsReduction Pages: 1 -->
<svg width="1289pt" height="1582pt"
 viewBox="0.00 0.00 1289.35 1581.65" xmlns="http://www.w3.org/2000/svg" xmlns:xlink="http://www.w3.org/1999/xlink">
<g id="graph0" class="graph" transform="scale(1 1) rotate(0) translate(4 1577.65)">
<title>DgsReduction</title>
<polygon fill="white" stroke="none" points="-4,4 -4,-1577.65 1285.35,-1577.65 1285.35,4 -4,4"/>
<text text-anchor="middle" x="640.67" y="-1558.45" font-family="Helvetica,sans-Serif" font-size="14.00">DgsAbsoluteUnitsReduction Flowchart</text>
<!-- absUDWS -->
<g id="node1" class="node">
<title>absUDWS</title>
<ellipse fill="khaki" stroke="black" cx="1109.79" cy="-1513.17" rx="105.22" ry="37.45"/>
<text text-anchor="middle" x="1109.79" y="-1524.47" font-family="Helvetica,sans-Serif" font-size="14.00">Absolute Units</text>
<text text-anchor="middle" x="1109.79" y="-1509.47" font-family="Helvetica,sans-Serif" font-size="14.00">Detector Vanadium</text>
<text text-anchor="middle" x="1109.79" y="-1494.47" font-family="Helvetica,sans-Serif" font-size="14.00">Workspace</text>
</g>
<!-- DgsProcessDetectorVanadium -->
<g id="node18" class="node">
<title>DgsProcessDetectorVanadium</title>
<path fill="lightskyblue" stroke="black" d="M1209.79,-1438.69C1209.79,-1438.69 1009.79,-1438.69 1009.79,-1438.69 1003.79,-1438.69 997.79,-1432.69 997.79,-1426.69 997.79,-1426.69 997.79,-1414.69 997.79,-1414.69 997.79,-1408.69 1003.79,-1402.69 1009.79,-1402.69 1009.79,-1402.69 1209.79,-1402.69 1209.79,-1402.69 1215.79,-1402.69 1221.79,-1408.69 1221.79,-1414.69 1221.79,-1414.69 1221.79,-1426.69 1221.79,-1426.69 1221.79,-1432.69 1215.79,-1438.69 1209.79,-1438.69"/>
<text text-anchor="middle" x="1109.79" y="-1416.99" font-family="Helvetica,sans-Serif" font-size="14.00">DgsProcessDetectorVanadium</text>
</g>
<!-- absUDWS&#45;&gt;DgsProcessDetectorVanadium -->
<g id="edge1" class="edge">
<title>absUDWS&#45;&gt;DgsProcessDetectorVanadium</title>
<path fill="none" stroke="black" d="M1109.79,-1475.37C1109.79,-1467.05 1109.79,-1458.34 1109.79,-1450.41"/>
<polygon fill="black" stroke="black" points="1113.29,-1450.65 1109.79,-1440.65 1106.29,-1450.65 1113.29,-1450.65"/>
</g>
<!-- absUSWS -->
<g id="node2" class="node">
<title>absUSWS</title>
<ellipse fill="khaki" stroke="black" cx="384.79" cy="-1312.69" rx="105.22" ry="26.74"/>
<text text-anchor="middle" x="384.79" y="-1316.49" font-family="Helvetica,sans-Serif" font-size="14.00">Absolute Units</text>
<text text-anchor="middle" x="384.79" y="-1301.49" font-family="Helvetica,sans-Serif" font-size="14.00">Sample Workspace</text>
</g>
<!-- DgsConvertToEnergyTransfer -->
<g id="node19" class="node">
<title>DgsConvertToEnergyTransfer</title>
<path fill="lightskyblue" stroke="black" d="M872.79,-1222.69C872.79,-1222.69 678.79,-1222.69 678.79,-1222.69 672.79,-1222.69 666.79,-1216.69 666.79,-1210.69 666.79,-1210.69 666.79,-1198.69 666.79,-1198.69 666.79,-1192.69 672.79,-1186.69 678.79,-1186.69 678.79,-1186.69 872.79,-1186.69 872.79,-1186.69 878.79,-1186.69 884.79,-1192.69 884.79,-1198.69 884.79,-1198.69 884.79,-1210.69 884.79,-1210.69 884.79,-1216.69 878.79,-1222.69 872.79,-1222.69"/>
<text text-anchor="middle" x="775.79" y="-1200.99" font-family="Helvetica,sans-Serif" font-size="14.00">DgsConvertToEnergyTransfer</text>
</g>
<!-- absUSWS&#45;&gt;DgsConvertToEnergyTransfer -->
<g id="edge6" class="edge">
<title>absUSWS&#45;&gt;DgsConvertToEnergyTransfer</title>
<path fill="none" stroke="black" d="M429.85,-1288.17C450.43,-1278.21 475.38,-1267.2 498.79,-1259.69 528.99,-1250.01 599.5,-1236.31 661.82,-1225.13"/>
<polygon fill="black" stroke="black" points="662.22,-1228.61 671.45,-1223.41 660.99,-1221.72 662.22,-1228.61"/>
</g>
<!-- absUMWS -->
<g id="node3" class="node">
<title>absUMWS</title>
<ellipse fill="khaki" stroke="black" cx="206.79" cy="-648.87" rx="94.09" ry="26.74"/>
<text text-anchor="middle" x="206.79" y="-652.67" font-family="Helvetica,sans-Serif" font-size="14.00">Absolute Units</text>
<text text-anchor="middle" x="206.79" y="-637.67" font-family="Helvetica,sans-Serif" font-size="14.00">Mask Workspace</text>
</g>
<!-- detDiagParam -->
<g id="node4" class="node">
<title>detDiagParam</title>
<ellipse fill="khaki" stroke="black" cx="206.79" cy="-966.22" rx="67.35" ry="37.45"/>
<text text-anchor="middle" x="206.79" y="-977.52" font-family="Helvetica,sans-Serif" font-size="14.00">Detector</text>
<text text-anchor="middle" x="206.79" y="-962.52" font-family="Helvetica,sans-Serif" font-size="14.00">Diagnostic</text>
<text text-anchor="middle" x="206.79" y="-947.52" font-family="Helvetica,sans-Serif" font-size="14.00">Parameters</text>
</g>
<!-- DetectorDiagnostic -->
<g id="node23" class="node">
<title>DetectorDiagnostic</title>
<path fill="lightskyblue" stroke="black" d="M281.29,-891.74C281.29,-891.74 156.29,-891.74 156.29,-891.74 150.29,-891.74 144.29,-885.74 144.29,-879.74 144.29,-879.74 144.29,-867.74 144.29,-867.74 144.29,-861.74 150.29,-855.74 156.29,-855.74 156.29,-855.74 281.29,-855.74 281.29,-855.74 287.29,-855.74 293.29,-861.74 293.29,-867.74 293.29,-867.74 293.29,-879.74 293.29,-879.74 293.29,-885.74 287.29,-891.74 281.29,-891.74"/>
<text text-anchor="middle" x="218.79" y="-870.04" font-family="Helvetica,sans-Serif" font-size="14.00">DetectorDiagnostic</text>
</g>
<!-- detDiagParam&#45;&gt;DetectorDiagnostic -->
<g id="edge17" class="edge">
<title>detDiagParam&#45;&gt;DetectorDiagnostic</title>
<path fill="none" stroke="black" d="M211.67,-928.42C212.77,-920.1 213.93,-911.39 214.98,-903.46"/>
<polygon fill="black" stroke="black" points="218.43,-904.06 216.28,-893.69 211.49,-903.14 218.43,-904.06"/>
</g>
<!-- AbsUnitsIncidentEnergy -->
<g id="node5" class="node">
<title>AbsUnitsIncidentEnergy</title>
<ellipse fill="khaki" stroke="black" cx="627.79" cy="-1312.69" rx="119.68" ry="18"/>
<text text-anchor="middle" x="627.79" y="-1308.99" font-family="Helvetica,sans-Serif" font-size="14.00">AbsUnitsIncidentEnergy</text>
</g>
<!-- AbsUnitsIncidentEnergy&#45;&gt;DgsConvertToEnergyTransfer -->
<g id="edge7" class="edge">
<title>AbsUnitsIncidentEnergy&#45;&gt;DgsConvertToEnergyTransfer</title>
<path fill="none" stroke="black" d="M651.57,-1294.66C676.13,-1277.07 714.66,-1249.47 742.3,-1229.68"/>
<polygon fill="black" stroke="black" points="744.26,-1232.58 750.35,-1223.92 740.18,-1226.89 744.26,-1232.58"/>
</g>
<!-- VanadiumMass -->
<g id="node6" class="node">
<title>VanadiumMass</title>
<ellipse fill="khaki" stroke="black" cx="393.79" cy="-1204.69" rx="78.79" ry="18"/>
<text text-anchor="middle" x="393.79" y="-1200.99" font-family="Helvetica,sans-Serif" font-size="14.00">VanadiumMass</text>
</g>
<!-- Divide -->
<g id="node20" class="node">
<title>Divide</title>
<path fill="lightskyblue" stroke="black" d="M587.79,-1149.69C587.79,-1149.69 551.79,-1149.69 551.79,-1149.69 545.79,-1149.69 539.79,-1143.69 539.79,-1137.69 539.79,-1137.69 539.79,-1125.69 539.79,-1125.69 539.79,-1119.69 545.79,-1113.69 551.79,-1113.69 551.79,-1113.69 587.79,-1113.69 587.79,-1113.69 593.79,-1113.69 599.79,-1119.69 599.79,-1125.69 599.79,-1125.69 599.79,-1137.69 599.79,-1137.69 599.79,-1143.69 593.79,-1149.69 587.79,-1149.69"/>
<text text-anchor="middle" x="569.79" y="-1127.99" font-family="Helvetica,sans-Serif" font-size="14.00">Divide</text>
</g>
<!-- VanadiumMass&#45;&gt;Divide -->
<g id="edge10" class="edge">
<title>VanadiumMass&#45;&gt;Divide</title>
<path fill="none" stroke="black" d="M432.91,-1188.7C458.14,-1178.93 491.87,-1165.7 529.44,-1150.19"/>
<polygon fill="black" stroke="black" points="530.31,-1153.62 538.2,-1146.56 527.62,-1147.15 530.31,-1153.62"/>
</g>
<!-- VanadiumRmm -->
<g id="node7" class="node">
<title>VanadiumRmm</title>
<ellipse fill="khaki" stroke="black" cx="569.79" cy="-1204.69" rx="79.09" ry="18"/>
<text text-anchor="middle" x="569.79" y="-1200.99" font-family="Helvetica,sans-Serif" font-size="14.00">VanadiumRmm</text>
</g>
<!-- VanadiumRmm&#45;&gt;Divide -->
<g id="edge11" class="edge">
<title>VanadiumRmm&#45;&gt;Divide</title>
<path fill="none" stroke="black" d="M569.79,-1186.51C569.79,-1178.92 569.79,-1169.79 569.79,-1161.23"/>
<polygon fill="black" stroke="black" points="573.29,-1161.24 569.79,-1151.24 566.29,-1161.24 573.29,-1161.24"/>
</g>
<!-- AbsUnitsMinimumEnergy -->
<g id="node8" class="node">
<title>AbsUnitsMinimumEnergy</title>
<ellipse fill="khaki" stroke="black" cx="124.79" cy="-1131.69" rx="124.58" ry="18"/>
<text text-anchor="middle" x="124.79" y="-1127.99" font-family="Helvetica,sans-Serif" font-size="14.00">AbsUnitsMinimumEnergy</text>
</g>
<!-- Rebin -->
<g id="node21" class="node">
<title>Rebin</title>
<path fill="lightskyblue" stroke="black" d="M466.29,-1076.69C466.29,-1076.69 323.29,-1076.69 323.29,-1076.69 317.29,-1076.69 311.29,-1070.69 311.29,-1064.69 311.29,-1064.69 311.29,-1052.69 311.29,-1052.69 311.29,-1046.69 317.29,-1040.69 323.29,-1040.69 323.29,-1040.69 466.29,-1040.69 466.29,-1040.69 472.29,-1040.69 478.29,-1046.69 478.29,-1052.69 478.29,-1052.69 478.29,-1064.69 478.29,-1064.69 478.29,-1070.69 472.29,-1076.69 466.29,-1076.69"/>
<text text-anchor="middle" x="394.79" y="-1054.99" font-family="Helvetica,sans-Serif" font-size="14.00">Rebin (as integration)</text>
</g>
<!-- AbsUnitsMinimumEnergy&#45;&gt;Rebin -->
<g id="edge13" class="edge">
<title>AbsUnitsMinimumEnergy&#45;&gt;Rebin</title>
<path fill="none" stroke="black" d="M183.04,-1115.37C222.4,-1105.02 274.8,-1091.25 317.62,-1079.99"/>
<polygon fill="black" stroke="black" points="318.32,-1083.42 327.11,-1077.49 316.54,-1076.65 318.32,-1083.42"/>
</g>
<!-- AbsUnitsMaximumEnergy -->
<g id="node9" class="node">
<title>AbsUnitsMaximumEnergy</title>
<ellipse fill="khaki" stroke="black" cx="394.79" cy="-1131.69" rx="127.28" ry="18"/>
<text text-anchor="middle" x="394.79" y="-1127.99" font-family="Helvetica,sans-Serif" font-size="14.00">AbsUnitsMaximumEnergy</text>
</g>
<!-- AbsUnitsMaximumEnergy&#45;&gt;Rebin -->
<g id="edge14" class="edge">
<title>AbsUnitsMaximumEnergy&#45;&gt;Rebin</title>
<path fill="none" stroke="black" d="M394.79,-1113.51C394.79,-1105.92 394.79,-1096.79 394.79,-1088.23"/>
<polygon fill="black" stroke="black" points="398.29,-1088.24 394.79,-1078.24 391.29,-1088.24 398.29,-1088.24"/>
</g>
<!-- MaskWorkspace -->
<g id="node10" class="node">
<title>MaskWorkspace</title>
<ellipse fill="khaki" stroke="black" cx="860.79" cy="-1513.17" rx="83.39" ry="18"/>
<text text-anchor="middle" x="860.79" y="-1509.47" font-family="Helvetica,sans-Serif" font-size="14.00">MaskWorkspace</text>
</g>
<!-- MaskWorkspace&#45;&gt;DgsProcessDetectorVanadium -->
<g id="edge3" class="edge">
<title>MaskWorkspace&#45;&gt;DgsProcessDetectorVanadium</title>
<path fill="none" stroke="black" d="M902.19,-1497.13C942.9,-1482.33 1005.43,-1459.61 1051.23,-1442.97"/>
<polygon fill="black" stroke="black" points="1052.27,-1446.32 1060.48,-1439.61 1049.88,-1439.74 1052.27,-1446.32"/>
</g>
<!-- MaskWorkspace&#45;&gt;DgsConvertToEnergyTransfer -->
<g id="edge2" class="edge">
<title>MaskWorkspace&#45;&gt;DgsConvertToEnergyTransfer</title>
<path fill="none" stroke="black" d="M851.08,-1495.23C836.3,-1468.59 808.44,-1414.88 794.79,-1365.69 782.32,-1320.76 778.03,-1266.5 776.56,-1234.11"/>
<polygon fill="black" stroke="black" points="780.07,-1234.21 776.18,-1224.35 773.07,-1234.48 780.07,-1234.21"/>
</g>
<!-- GroupingWorkspace -->
<g id="node11" class="node">
<title>GroupingWorkspace</title>
<ellipse fill="khaki" stroke="black" cx="904.79" cy="-1312.69" rx="101.28" ry="18"/>
<text text-anchor="middle" x="904.79" y="-1308.99" font-family="Helvetica,sans-Serif" font-size="14.00">GroupingWorkspace</text>
</g>
<!-- GroupingWorkspace&#45;&gt;DgsConvertToEnergyTransfer -->
<g id="edge5" class="edge">
<title>GroupingWorkspace&#45;&gt;DgsConvertToEnergyTransfer</title>
<path fill="none" stroke="black" d="M884.06,-1294.66C862.84,-1277.23 829.66,-1249.96 805.61,-1230.2"/>
<polygon fill="black" stroke="black" points="808.01,-1227.64 798.06,-1223.99 803.57,-1233.05 808.01,-1227.64"/>
</g>
<!-- OutputWorkspace -->
<g id="node12" class="node">
<title>OutputWorkspace</title>
<ellipse fill="khaki" stroke="black" cx="428.79" cy="-18" rx="91.78" ry="18"/>
<text text-anchor="middle" x="428.79" y="-14.3" font-family="Helvetica,sans-Serif" font-size="14.00">OutputWorkspace</text>
</g>
<!-- isIAUDV -->
<g id="node13" class="node">
<title>isIAUDV</title>
<polygon fill="limegreen" stroke="black" points="378.79,-409 221.79,-356 378.79,-303 535.79,-356 378.79,-409"/>
<text text-anchor="middle" x="378.79" y="-367.3" font-family="Helvetica,sans-Serif" font-size="14.00">Is Integrated</text>
<text text-anchor="middle" x="378.79" y="-352.3" font-family="Helvetica,sans-Serif" font-size="14.00">Absolute Units</text>
<text text-anchor="middle" x="378.79" y="-337.3" font-family="Helvetica,sans-Serif" font-size="14.00">Detector Vanadium?</text>
</g>
<!-- pauw -->
<g id="node15" class="node">
<title>pauw</title>
<polygon fill="grey" stroke="black" points="556.33,-149 353.44,-149 301.25,-73 504.14,-73 556.33,-149"/>
<text text-anchor="middle" x="428.79" y="-114.8" font-family="Times,serif" font-size="14.00">Processed Absolute</text>
<text text-anchor="middle" x="428.79" y="-99.8" font-family="Times,serif" font-size="14.00">Units Workspace</text>
</g>
<!-- isIAUDV&#45;&gt;pauw -->
<g id="edge26" class="edge">
<title>isIAUDV&#45;&gt;pauw</title>
<path fill="none" stroke="black" d="M390.93,-306.8C394.91,-290.41 399.22,-271.95 402.79,-255 409.4,-223.64 415.85,-188.2 420.67,-160.45"/>
<polygon fill="black" stroke="black" points="424.06,-161.39 422.31,-150.94 417.16,-160.2 424.06,-161.39"/>
<text text-anchor="middle" x="426.29" y="-200.3" font-family="Helvetica,sans-Serif" font-size="14.00">No</text>
</g>
<!-- Multiply -->
<g id="node27" class="node">
<title>Multiply</title>
<path fill="lightskyblue" stroke="black" d="M513.29,-222C513.29,-222 466.29,-222 466.29,-222 460.29,-222 454.29,-216 454.29,-210 454.29,-210 454.29,-198 454.29,-198 454.29,-192 460.29,-186 466.29,-186 466.29,-186 513.29,-186 513.29,-186 519.29,-186 525.29,-192 525.29,-198 525.29,-198 525.29,-210 525.29,-210 525.29,-216 519.29,-222 513.29,-222"/>
<text text-anchor="middle" x="489.79" y="-200.3" font-family="Helvetica,sans-Serif" font-size="14.00">Multiply</text>
</g>
<!-- isIAUDV&#45;&gt;Multiply -->
<g id="edge25" class="edge">
<title>isIAUDV&#45;&gt;Multiply</title>
<path fill="none" stroke="black" d="M409.71,-313.22C429.13,-286.97 453.58,-253.93 470.33,-231.3"/>
<polygon fill="black" stroke="black" points="472.96,-233.63 476.09,-223.51 467.33,-229.46 472.96,-233.63"/>
<text text-anchor="middle" x="475.29" y="-243.8" font-family="Helvetica,sans-Serif" font-size="14.00">Yes</text>
</g>
<!-- procSample -->
<g id="node14" class="node">
<title>procSample</title>
<polygon fill="grey" stroke="black" points="298.45,-818.74 171.73,-818.74 139.13,-712.74 265.85,-712.74 298.45,-818.74"/>
<text text-anchor="middle" x="218.79" y="-777.04" font-family="Times,serif" font-size="14.00">Processed</text>
<text text-anchor="middle" x="218.79" y="-762.04" font-family="Times,serif" font-size="14.00">Sample</text>
<text text-anchor="middle" x="218.79" y="-747.04" font-family="Times,serif" font-size="14.00">Workspace</text>
</g>
<!-- procSample&#45;&gt;absUMWS -->
<g id="edge19" class="edge">
<title>procSample&#45;&gt;absUMWS</title>
<path fill="none" stroke="black" d="M213.32,-712.35C212.43,-703.84 211.52,-695.18 210.68,-687.13"/>
<polygon fill="black" stroke="black" points="214.18,-686.95 209.66,-677.36 207.22,-687.67 214.18,-686.95"/>
</g>
<!-- MaskDetectors -->
<g id="node24" class="node">
<title>MaskDetectors</title>
<path fill="lightskyblue" stroke="black" d="M426.29,-666.87C426.29,-666.87 331.29,-666.87 331.29,-666.87 325.29,-666.87 319.29,-660.87 319.29,-654.87 319.29,-654.87 319.29,-642.87 319.29,-642.87 319.29,-636.87 325.29,-630.87 331.29,-630.87 331.29,-630.87 426.29,-630.87 426.29,-630.87 432.29,-630.87 438.29,-636.87 438.29,-642.87 438.29,-642.87 438.29,-654.87 438.29,-654.87 438.29,-660.87 432.29,-666.87 426.29,-666.87"/>
<text text-anchor="middle" x="378.79" y="-645.17" font-family="Helvetica,sans-Serif" font-size="14.00">MaskDetectors</text>
</g>
<!-- procSample&#45;&gt;MaskDetectors -->
<g id="edge20" class="edge">
<title>procSample&#45;&gt;MaskDetectors</title>
<path fill="none" stroke="black" d="M270.74,-727.45C295.38,-709.75 324.08,-689.15 345.71,-673.62"/>
<polygon fill="black" stroke="black" points="347.5,-676.64 353.58,-667.97 343.42,-670.96 347.5,-676.64"/>
</g>
<!-- pauw&#45;&gt;OutputWorkspace -->
<g id="edge28" class="edge">
<title>pauw&#45;&gt;OutputWorkspace</title>
<path fill="none" stroke="black" d="M428.79,-72.72C428.79,-64.38 428.79,-55.65 428.79,-47.72"/>
<polygon fill="black" stroke="black" points="432.29,-47.95 428.79,-37.95 425.29,-47.95 432.29,-47.95"/>
</g>
<!-- sampleCoeff -->
<g id="node16" class="node">
<title>sampleCoeff</title>
<polygon fill="grey" stroke="black" points="771.51,-439 598.56,-439 554.07,-273 727.02,-273 771.51,-439"/>
<text text-anchor="middle" x="662.79" y="-382.3" font-family="Times,serif" font-size="14.00">SampleMass</text>
<text text-anchor="middle" x="662.79" y="-367.3" font-family="Times,serif" font-size="14.00">divided by</text>
<text text-anchor="middle" x="662.79" y="-352.3" font-family="Times,serif" font-size="14.00">SampleRmm</text>
<text text-anchor="middle" x="662.79" y="-337.3" font-family="Times,serif" font-size="14.00">divided by</text>
<text text-anchor="middle" x="662.79" y="-322.3" font-family="Times,serif" font-size="14.00">Scattering XSec</text>
</g>
<!-- sampleCoeff&#45;&gt;Multiply -->
<g id="edge24" class="edge">
<title>sampleCoeff&#45;&gt;Multiply</title>
<path fill="none" stroke="black" d="M567.69,-272.54C549.65,-256.9 532.12,-241.7 518.27,-229.7"/>
<polygon fill="black" stroke="black" points="520.73,-227.19 510.88,-223.29 516.14,-232.48 520.73,-227.19"/>
</g>
<!-- IAUDV -->
<g id="node17" class="node">
<title>IAUDV</title>
<polygon fill="grey" stroke="black" points="1281.4,-1365.69 1076.81,-1365.69 1024.17,-1259.69 1228.77,-1259.69 1281.4,-1365.69"/>
<text text-anchor="middle" x="1152.79" y="-1323.99" font-family="Times,serif" font-size="14.00">Integrated</text>
<text text-anchor="middle" x="1152.79" y="-1308.99" font-family="Times,serif" font-size="14.00">Absolute Units</text>
<text text-anchor="middle" x="1152.79" y="-1293.99" font-family="Times,serif" font-size="14.00">Detector Vanadium</text>
</g>
<!-- IAUDV&#45;&gt;DgsConvertToEnergyTransfer -->
<g id="edge8" class="edge">
<title>IAUDV&#45;&gt;DgsConvertToEnergyTransfer</title>
<path fill="none" stroke="black" d="M1025.56,-1263.02C1021.94,-1261.87 1018.34,-1260.76 1014.79,-1259.69 970.46,-1246.4 920.66,-1234.66 878.03,-1225.54"/>
<polygon fill="black" stroke="black" points="878.77,-1222.12 868.26,-1223.48 877.32,-1228.97 878.77,-1222.12"/>
</g>
<!-- DgsProcessDetectorVanadium&#45;&gt;IAUDV -->
<g id="edge4" class="edge">
<title>DgsProcessDetectorVanadium&#45;&gt;IAUDV</title>
<path fill="none" stroke="black" d="M1116.7,-1402.66C1119.7,-1395.27 1123.41,-1386.11 1127.31,-1376.51"/>
<polygon fill="black" stroke="black" points="1130.5,-1377.96 1131.01,-1367.37 1124.01,-1375.32 1130.5,-1377.96"/>
</g>
<!-- DgsConvertToEnergyTransfer&#45;&gt;Divide -->
<g id="edge9" class="edge">
<title>DgsConvertToEnergyTransfer&#45;&gt;Divide</title>
<path fill="none" stroke="black" d="M725.13,-1186.23C689.92,-1174.1 643.59,-1158.13 610.71,-1146.8"/>
<polygon fill="black" stroke="black" points="612.14,-1143.59 601.55,-1143.64 609.86,-1150.21 612.14,-1143.59"/>
</g>
<!-- Divide&#45;&gt;Rebin -->
<g id="edge12" class="edge">
<title>Divide&#45;&gt;Rebin</title>
<path fill="none" stroke="black" d="M539.6,-1117.42C536.63,-1116.14 533.65,-1114.89 530.79,-1113.69 504.43,-1102.72 475.01,-1090.98 450.29,-1081.25"/>
<polygon fill="black" stroke="black" points="451.65,-1078.03 441.06,-1077.63 449.09,-1084.54 451.65,-1078.03"/>
</g>
<!-- ConvertToMatrixWorkspace -->
<g id="node22" class="node">
<title>ConvertToMatrixWorkspace</title>
<path fill="lightskyblue" stroke="black" d="M485.29,-984.22C485.29,-984.22 304.29,-984.22 304.29,-984.22 298.29,-984.22 292.29,-978.22 292.29,-972.22 292.29,-972.22 292.29,-960.22 292.29,-960.22 292.29,-954.22 298.29,-948.22 304.29,-948.22 304.29,-948.22 485.29,-948.22 485.29,-948.22 491.29,-948.22 497.29,-954.22 497.29,-960.22 497.29,-960.22 497.29,-972.22 497.29,-972.22 497.29,-978.22 491.29,-984.22 485.29,-984.22"/>
<text text-anchor="middle" x="394.79" y="-962.52" font-family="Helvetica,sans-Serif" font-size="14.00">ConvertToMatrixWorkspace</text>
</g>
<!-- Rebin&#45;&gt;ConvertToMatrixWorkspace -->
<g id="edge15" class="edge">
<title>Rebin&#45;&gt;ConvertToMatrixWorkspace</title>
<path fill="none" stroke="black" d="M394.79,-1040.25C394.79,-1027.73 394.79,-1010.58 394.79,-996.04"/>
<polygon fill="black" stroke="black" points="398.29,-996.12 394.79,-986.12 391.29,-996.12 398.29,-996.12"/>
</g>
<!-- ConvertToMatrixWorkspace&#45;&gt;DetectorDiagnostic -->
<g id="edge16" class="edge">
<title>ConvertToMatrixWorkspace&#45;&gt;DetectorDiagnostic</title>
<path fill="none" stroke="black" d="M360.85,-947.77C332.85,-933.38 292.93,-912.85 262.53,-897.23"/>
<polygon fill="black" stroke="black" points="264.46,-894.28 253.97,-892.82 261.26,-900.51 264.46,-894.28"/>
</g>
<!-- DetectorDiagnostic&#45;&gt;procSample -->
<g id="edge18" class="edge">
<title>DetectorDiagnostic&#45;&gt;procSample</title>
<path fill="none" stroke="black" d="M218.79,-855.71C218.79,-848.55 218.79,-839.74 218.79,-830.47"/>
<polygon fill="black" stroke="black" points="222.29,-830.53 218.79,-820.53 215.29,-830.53 222.29,-830.53"/>
</g>
<!-- ConvertFromDistribution -->
<g id="node25" class="node">
<title>ConvertFromDistribution</title>
<path fill="lightskyblue" stroke="black" d="M459.79,-585C459.79,-585 297.79,-585 297.79,-585 291.79,-585 285.79,-579 285.79,-573 285.79,-573 285.79,-561 285.79,-561 285.79,-555 291.79,-549 297.79,-549 297.79,-549 459.79,-549 459.79,-549 465.79,-549 471.79,-555 471.79,-561 471.79,-561 471.79,-573 471.79,-573 471.79,-579 465.79,-585 459.79,-585"/>
<text text-anchor="middle" x="378.79" y="-563.3" font-family="Helvetica,sans-Serif" font-size="14.00">ConvertFromDistribution</text>
</g>
<!-- MaskDetectors&#45;&gt;ConvertFromDistribution -->
<g id="edge21" class="edge">
<title>MaskDetectors&#45;&gt;ConvertFromDistribution</title>
<path fill="none" stroke="black" d="M378.79,-630.54C378.79,-620.6 378.79,-607.87 378.79,-596.49"/>
<polygon fill="black" stroke="black" points="382.29,-596.81 378.79,-586.81 375.29,-596.81 382.29,-596.81"/>
</g>
<!-- WeightedMeanOfWorkspace -->
<g id="node26" class="node">
<title>WeightedMeanOfWorkspace</title>
<path fill="lightskyblue" stroke="black" d="M472.79,-512C472.79,-512 284.79,-512 284.79,-512 278.79,-512 272.79,-506 272.79,-500 272.79,-500 272.79,-488 272.79,-488 272.79,-482 278.79,-476 284.79,-476 284.79,-476 472.79,-476 472.79,-476 478.79,-476 484.79,-482 484.79,-488 484.79,-488 484.79,-500 484.79,-500 484.79,-506 478.79,-512 472.79,-512"/>
<text text-anchor="middle" x="378.79" y="-490.3" font-family="Helvetica,sans-Serif" font-size="14.00">WeightedMeanOfWorkspace</text>
</g>
<!-- ConvertFromDistribution&#45;&gt;WeightedMeanOfWorkspace -->
<g id="edge22" class="edge">
<title>ConvertFromDistribution&#45;&gt;WeightedMeanOfWorkspace</title>
<path fill="none" stroke="black" d="M378.79,-548.81C378.79,-541.23 378.79,-532.1 378.79,-523.54"/>
<polygon fill="black" stroke="black" points="382.29,-523.54 378.79,-513.54 375.29,-523.54 382.29,-523.54"/>
</g>
<!-- WeightedMeanOfWorkspace&#45;&gt;isIAUDV -->
<g id="edge23" class="edge">
<title>WeightedMeanOfWorkspace&#45;&gt;isIAUDV</title>
<path fill="none" stroke="black" d="M378.79,-475.78C378.79,-461.73 378.79,-440.97 378.79,-420.71"/>
<polygon fill="black" stroke="black" points="382.29,-420.75 378.79,-410.75 375.29,-420.75 382.29,-420.75"/>
</g>
<!-- Multiply&#45;&gt;pauw -->
<g id="edge27" class="edge">
<title>Multiply&#45;&gt;pauw</title>
<path fill="none" stroke="black" d="M478.32,-185.88C473.08,-178.08 466.61,-168.42 460.09,-158.69"/>
<polygon fill="black" stroke="black" points="463.18,-157.01 454.7,-150.66 457.36,-160.91 463.18,-157.01"/>
</g>
</g>
</svg>
