<?xml version="1.0" encoding="UTF-8" standalone="no"?>
<!DOCTYPE svg PUBLIC "-//W3C//DTD SVG 1.1//EN"
 "http://www.w3.org/Graphics/SVG/1.1/DTD/svg11.dtd">
<!-- Generated by graphviz version 7.0.5 (20221231.0122)
 -->
<!-- Title: DgsRemap Pages: 1 -->
<svg width="731pt" height="373pt"
 viewBox="0.00 0.00 730.58 373.00" xmlns="http://www.w3.org/2000/svg" xmlns:xlink="http://www.w3.org/1999/xlink">
<g id="graph0" class="graph" transform="scale(1 1) rotate(0) translate(4 369)">
<title>DgsRemap</title>
<polygon fill="white" stroke="none" points="-4,4 -4,-369 726.58,-369 726.58,4 -4,4"/>
<text text-anchor="middle" x="361.29" y="-349.8" font-family="Helvetica,sans-Serif" font-size="14.00">DgsRemap Flowchart</text>
<!-- InputWorkspace -->
<g id="node1" class="node">
<title>InputWorkspace</title>
<ellipse fill="khaki" stroke="black" cx="343.19" cy="-324" rx="83.69" ry="18"/>
<text text-anchor="middle" x="343.19" y="-320.3" font-family="Helvetica,sans-Serif" font-size="14.00">InputWorkspace</text>
</g>
<!-- ExecuteOppositeOrder -->
<g id="node9" class="node">
<title>ExecuteOppositeOrder</title>
<polygon fill="limegreen" stroke="black" points="343.19,-269 184.16,-251 343.19,-233 502.22,-251 343.19,-269"/>
<text text-anchor="middle" x="343.19" y="-247.3" font-family="Helvetica,sans-Serif" font-size="14.00">ExecuteOppositeOrder</text>
</g>
<!-- InputWorkspace&#45;&gt;ExecuteOppositeOrder -->
<g id="edge1" class="edge">
<title>InputWorkspace&#45;&gt;ExecuteOppositeOrder</title>
<path fill="none" stroke="black" d="M343.19,-305.81C343.19,-298.23 343.19,-289.1 343.19,-280.54"/>
<polygon fill="black" stroke="black" points="346.69,-280.54 343.19,-270.54 339.69,-280.54 346.69,-280.54"/>
</g>
<!-- MaskWorkspace -->
<g id="node2" class="node">
<title>MaskWorkspace</title>
<ellipse fill="khaki" stroke="black" cx="83.19" cy="-251" rx="83.39" ry="18"/>
<text text-anchor="middle" x="83.19" y="-247.3" font-family="Helvetica,sans-Serif" font-size="14.00">MaskWorkspace</text>
</g>
<!-- maskDet1 -->
<g id="node5" class="node">
<title>maskDet1</title>
<path fill="lightskyblue" stroke="black" d="M306.69,-182C306.69,-182 211.69,-182 211.69,-182 205.69,-182 199.69,-176 199.69,-170 199.69,-170 199.69,-158 199.69,-158 199.69,-152 205.69,-146 211.69,-146 211.69,-146 306.69,-146 306.69,-146 312.69,-146 318.69,-152 318.69,-158 318.69,-158 318.69,-170 318.69,-170 318.69,-176 312.69,-182 306.69,-182"/>
<text text-anchor="middle" x="259.19" y="-160.3" font-family="Helvetica,sans-Serif" font-size="14.00">MaskDetectors</text>
</g>
<!-- MaskWorkspace&#45;&gt;maskDet1 -->
<g id="edge10" class="edge">
<title>MaskWorkspace&#45;&gt;maskDet1</title>
<path fill="none" stroke="black" d="M116.3,-234.01C143.55,-220.85 182.51,-202.03 212.86,-187.37"/>
<polygon fill="black" stroke="black" points="214.36,-190.54 221.85,-183.04 211.32,-184.23 214.36,-190.54"/>
</g>
<!-- maskDet2 -->
<g id="node6" class="node">
<title>maskDet2</title>
<path fill="lightskyblue" stroke="black" d="M317.69,-109C317.69,-109 222.69,-109 222.69,-109 216.69,-109 210.69,-103 210.69,-97 210.69,-97 210.69,-85 210.69,-85 210.69,-79 216.69,-73 222.69,-73 222.69,-73 317.69,-73 317.69,-73 323.69,-73 329.69,-79 329.69,-85 329.69,-85 329.69,-97 329.69,-97 329.69,-103 323.69,-109 317.69,-109"/>
<text text-anchor="middle" x="270.19" y="-87.3" font-family="Helvetica,sans-Serif" font-size="14.00">MaskDetectors</text>
</g>
<!-- MaskWorkspace&#45;&gt;maskDet2 -->
<g id="edge11" class="edge">
<title>MaskWorkspace&#45;&gt;maskDet2</title>
<path fill="none" stroke="black" d="M99.02,-232.83C119.2,-211.39 155.62,-174.1 190.19,-146 203.38,-135.28 218.67,-124.59 232.33,-115.57"/>
<polygon fill="black" stroke="black" points="234.18,-118.54 240.66,-110.16 230.37,-112.67 234.18,-118.54"/>
</g>
<!-- GroupingWorkspace -->
<g id="node3" class="node">
<title>GroupingWorkspace</title>
<ellipse fill="khaki" stroke="black" cx="621.19" cy="-251" rx="101.28" ry="18"/>
<text text-anchor="middle" x="621.19" y="-247.3" font-family="Helvetica,sans-Serif" font-size="14.00">GroupingWorkspace</text>
</g>
<!-- groupDet1 -->
<g id="node7" class="node">
<title>groupDet1</title>
<path fill="lightskyblue" stroke="black" d="M460.69,-109C460.69,-109 359.69,-109 359.69,-109 353.69,-109 347.69,-103 347.69,-97 347.69,-97 347.69,-85 347.69,-85 347.69,-79 353.69,-73 359.69,-73 359.69,-73 460.69,-73 460.69,-73 466.69,-73 472.69,-79 472.69,-85 472.69,-85 472.69,-97 472.69,-97 472.69,-103 466.69,-109 460.69,-109"/>
<text text-anchor="middle" x="410.19" y="-87.3" font-family="Helvetica,sans-Serif" font-size="14.00">GroupDetectors</text>
</g>
<!-- GroupingWorkspace&#45;&gt;groupDet1 -->
<g id="edge8" class="edge">
<title>GroupingWorkspace&#45;&gt;groupDet1</title>
<path fill="none" stroke="black" d="M598.61,-233.09C561.05,-204.97 485.62,-148.48 442.46,-116.16"/>
<polygon fill="black" stroke="black" points="444.56,-113.37 434.46,-110.17 440.37,-118.97 444.56,-113.37"/>
</g>
<!-- groupDet2 -->
<g id="node8" class="node">
<title>groupDet2</title>
<path fill="lightskyblue" stroke="black" d="M449.69,-182C449.69,-182 348.69,-182 348.69,-182 342.69,-182 336.69,-176 336.69,-170 336.69,-170 336.69,-158 336.69,-158 336.69,-152 342.69,-146 348.69,-146 348.69,-146 449.69,-146 449.69,-146 455.69,-146 461.69,-152 461.69,-158 461.69,-158 461.69,-170 461.69,-170 461.69,-176 455.69,-182 449.69,-182"/>
<text text-anchor="middle" x="399.19" y="-160.3" font-family="Helvetica,sans-Serif" font-size="14.00">GroupDetectors</text>
</g>
<!-- GroupingWorkspace&#45;&gt;groupDet2 -->
<g id="edge9" class="edge">
<title>GroupingWorkspace&#45;&gt;groupDet2</title>
<path fill="none" stroke="black" d="M579.7,-234.11C544.59,-220.67 493.98,-201.29 455.27,-186.47"/>
<polygon fill="black" stroke="black" points="456.69,-183.27 446.1,-182.96 454.19,-189.81 456.69,-183.27"/>
</g>
<!-- OutputWorkspace -->
<g id="node4" class="node">
<title>OutputWorkspace</title>
<ellipse fill="khaki" stroke="black" cx="339.19" cy="-18" rx="91.78" ry="18"/>
<text text-anchor="middle" x="339.19" y="-14.3" font-family="Helvetica,sans-Serif" font-size="14.00">OutputWorkspace</text>
</g>
<!-- maskDet1&#45;&gt;groupDet1 -->
<g id="edge4" class="edge">
<title>maskDet1&#45;&gt;groupDet1</title>
<path fill="none" stroke="black" d="M296.13,-145.63C316.24,-136.18 341.34,-124.38 362.87,-114.25"/>
<polygon fill="black" stroke="black" points="364.18,-117.5 371.74,-110.08 361.2,-111.17 364.18,-117.5"/>
</g>
<!-- maskDet2&#45;&gt;OutputWorkspace -->
<g id="edge7" class="edge">
<title>maskDet2&#45;&gt;OutputWorkspace</title>
<path fill="none" stroke="black" d="M286.9,-72.81C295.29,-64.18 305.61,-53.56 314.86,-44.03"/>
<polygon fill="black" stroke="black" points="317.13,-46.72 321.59,-37.11 312.11,-41.85 317.13,-46.72"/>
</g>
<!-- groupDet1&#45;&gt;OutputWorkspace -->
<g id="edge6" class="edge">
<title>groupDet1&#45;&gt;OutputWorkspace</title>
<path fill="none" stroke="black" d="M393.01,-72.81C384.37,-64.18 373.75,-53.56 364.23,-44.03"/>
<polygon fill="black" stroke="black" points="366.84,-41.7 357.29,-37.1 361.89,-46.65 366.84,-41.7"/>
</g>
<!-- groupDet2&#45;&gt;maskDet2 -->
<g id="edge5" class="edge">
<title>groupDet2&#45;&gt;maskDet2</title>
<path fill="none" stroke="black" d="M367.64,-145.63C350.85,-136.39 329.99,-124.91 311.88,-114.95"/>
<polygon fill="black" stroke="black" points="313.65,-111.92 303.2,-110.17 310.27,-118.05 313.65,-111.92"/>
</g>
<!-- ExecuteOppositeOrder&#45;&gt;maskDet1 -->
<g id="edge2" class="edge">
<title>ExecuteOppositeOrder&#45;&gt;maskDet1</title>
<path fill="none" stroke="black" d="M327.79,-234.41C315.59,-222.07 298.32,-204.59 284.15,-190.26"/>
<polygon fill="black" stroke="black" points="286.82,-187.97 277.3,-183.32 281.84,-192.9 286.82,-187.97"/>
<text text-anchor="middle" x="322.69" y="-203.8" font-family="Helvetica,sans-Serif" font-size="14.00">True</text>
</g>
<!-- ExecuteOppositeOrder&#45;&gt;groupDet2 -->
<g id="edge3" class="edge">
<title>ExecuteOppositeOrder&#45;&gt;groupDet2</title>
<path fill="none" stroke="black" d="M353.73,-234.01C361.53,-222.17 372.34,-205.76 381.47,-191.91"/>
<polygon fill="black" stroke="black" points="384.33,-193.92 386.91,-183.64 378.49,-190.07 384.33,-193.92"/>
<text text-anchor="middle" x="391.69" y="-203.8" font-family="Helvetica,sans-Serif" font-size="14.00">False</text>
</g>
</g>
</svg>
