<?xml version="1.0" encoding="UTF-8" standalone="no"?>
<!DOCTYPE svg PUBLIC "-//W3C//DTD SVG 1.1//EN"
 "http://www.w3.org/Graphics/SVG/1.1/DTD/svg11.dtd">
<!-- Generated by graphviz version 11.0.0 (20240519.1550)
 -->
<!-- Title: DgsReduction Pages: 1 -->
<svg width="1083pt" height="989pt"
 viewBox="0.00 0.00 1082.58 989.00" xmlns="http://www.w3.org/2000/svg" xmlns:xlink="http://www.w3.org/1999/xlink">
<g id="graph0" class="graph" transform="scale(1 1) rotate(0) translate(4 985)">
<title>DgsReduction</title>
<polygon fill="white" stroke="none" points="-4,4 -4,-985 1078.58,-985 1078.58,4 -4,4"/>
<text text-anchor="middle" x="537.29" y="-963.7" font-family="Helvetica,sans-Serif" font-size="14.00">DgsReduction Flowchart</text>
<!-- Sample -->
<g id="node1" class="node">
<title>Sample</title>
<ellipse fill="khaki" stroke="black" cx="47.53" cy="-937.75" rx="47.53" ry="18"/>
<text text-anchor="middle" x="47.53" y="-933.08" font-family="Helvetica,sans-Serif" font-size="14.00">Sample</text>
</g>
<!-- DgsDiagnose -->
<g id="node10" class="node">
<title>DgsDiagnose</title>
<path fill="lightskyblue" stroke="black" d="M398.28,-882.75C398.28,-882.75 314.78,-882.75 314.78,-882.75 308.78,-882.75 302.78,-876.75 302.78,-870.75 302.78,-870.75 302.78,-858.75 302.78,-858.75 302.78,-852.75 308.78,-846.75 314.78,-846.75 314.78,-846.75 398.28,-846.75 398.28,-846.75 404.28,-846.75 410.28,-852.75 410.28,-858.75 410.28,-858.75 410.28,-870.75 410.28,-870.75 410.28,-876.75 404.28,-882.75 398.28,-882.75"/>
<text text-anchor="middle" x="356.53" y="-860.08" font-family="Helvetica,sans-Serif" font-size="14.00">DgsDiagnose</text>
</g>
<!-- Sample&#45;&gt;DgsDiagnose -->
<g id="edge2" class="edge">
<title>Sample&#45;&gt;DgsDiagnose</title>
<path fill="none" stroke="black" d="M83.25,-925.41C89.96,-923.43 96.93,-921.45 103.53,-919.75 166.8,-903.42 239.87,-888.21 291.17,-878.12"/>
<polygon fill="black" stroke="black" points="291.79,-881.57 300.94,-876.21 290.45,-874.7 291.79,-881.57"/>
</g>
<!-- DgsConvertToEnergyTransfer -->
<g id="node12" class="node">
<title>DgsConvertToEnergyTransfer</title>
<path fill="lightskyblue" stroke="black" d="M353.4,-516.75C353.4,-516.75 159.65,-516.75 159.65,-516.75 153.65,-516.75 147.65,-510.75 147.65,-504.75 147.65,-504.75 147.65,-492.75 147.65,-492.75 147.65,-486.75 153.65,-480.75 159.65,-480.75 159.65,-480.75 353.4,-480.75 353.4,-480.75 359.4,-480.75 365.4,-486.75 365.4,-492.75 365.4,-492.75 365.4,-504.75 365.4,-504.75 365.4,-510.75 359.4,-516.75 353.4,-516.75"/>
<text text-anchor="middle" x="256.53" y="-494.07" font-family="Helvetica,sans-Serif" font-size="14.00">DgsConvertToEnergyTransfer</text>
</g>
<!-- Sample&#45;&gt;DgsConvertToEnergyTransfer -->
<g id="edge1" class="edge">
<title>Sample&#45;&gt;DgsConvertToEnergyTransfer</title>
<path fill="none" stroke="black" d="M64.27,-920.62C76.35,-907.2 90.53,-886.93 90.53,-865.75 90.53,-865.75 90.53,-865.75 90.53,-589.25 90.53,-555.42 117.56,-534.32 149.82,-521.18"/>
<polygon fill="black" stroke="black" points="150.9,-524.52 159.03,-517.73 148.43,-517.96 150.9,-524.52"/>
</g>
<!-- HardMask -->
<g id="node2" class="node">
<title>HardMask</title>
<ellipse fill="khaki" stroke="black" cx="172.53" cy="-937.75" rx="59.63" ry="18"/>
<text text-anchor="middle" x="172.53" y="-933.08" font-family="Helvetica,sans-Serif" font-size="14.00">HardMask</text>
</g>
<!-- HardMask&#45;&gt;DgsDiagnose -->
<g id="edge4" class="edge">
<title>HardMask&#45;&gt;DgsDiagnose</title>
<path fill="none" stroke="black" d="M208,-923.06C234.35,-912.9 270.78,-898.83 300.97,-887.19"/>
<polygon fill="black" stroke="black" points="301.88,-890.59 309.95,-883.72 299.36,-884.05 301.88,-890.59"/>
</g>
<!-- HardMask&#45;&gt;DgsConvertToEnergyTransfer -->
<g id="edge3" class="edge">
<title>HardMask&#45;&gt;DgsConvertToEnergyTransfer</title>
<path fill="none" stroke="black" d="M172.53,-919.53C172.53,-905.16 172.53,-884.12 172.53,-865.75 172.53,-865.75 172.53,-865.75 172.53,-589.25 172.53,-561.59 194.12,-538.97 215.41,-523.39"/>
<polygon fill="black" stroke="black" points="217.27,-526.36 223.52,-517.8 213.3,-520.59 217.27,-526.36"/>
</g>
<!-- DetectorVanadium -->
<g id="node3" class="node">
<title>DetectorVanadium</title>
<ellipse fill="khaki" stroke="black" cx="688.53" cy="-937.75" rx="101.19" ry="18"/>
<text text-anchor="middle" x="688.53" y="-933.08" font-family="Helvetica,sans-Serif" font-size="14.00">DetectorVanadium</text>
</g>
<!-- DetectorVanadium&#45;&gt;DgsDiagnose -->
<g id="edge5" class="edge">
<title>DetectorVanadium&#45;&gt;DgsDiagnose</title>
<path fill="none" stroke="black" d="M616.25,-924.83C580.17,-918.56 535.91,-910.39 496.53,-901.75 471.87,-896.34 444.98,-889.63 421.42,-883.46"/>
<polygon fill="black" stroke="black" points="422.52,-880.14 411.96,-880.97 420.74,-886.9 422.52,-880.14"/>
</g>
<!-- DgsProcessDetectorVanadium -->
<g id="node11" class="node">
<title>DgsProcessDetectorVanadium</title>
<path fill="lightskyblue" stroke="black" d="M580.4,-699.75C580.4,-699.75 380.65,-699.75 380.65,-699.75 374.65,-699.75 368.65,-693.75 368.65,-687.75 368.65,-687.75 368.65,-675.75 368.65,-675.75 368.65,-669.75 374.65,-663.75 380.65,-663.75 380.65,-663.75 580.4,-663.75 580.4,-663.75 586.4,-663.75 592.4,-669.75 592.4,-675.75 592.4,-675.75 592.4,-687.75 592.4,-687.75 592.4,-693.75 586.4,-699.75 580.4,-699.75"/>
<text text-anchor="middle" x="480.53" y="-677.08" font-family="Helvetica,sans-Serif" font-size="14.00">DgsProcessDetectorVanadium</text>
</g>
<!-- DetectorVanadium&#45;&gt;DgsProcessDetectorVanadium -->
<g id="edge6" class="edge">
<title>DetectorVanadium&#45;&gt;DgsProcessDetectorVanadium</title>
<path fill="none" stroke="black" d="M674.55,-919.69C638.9,-876.14 544.33,-760.66 501.78,-708.71"/>
<polygon fill="black" stroke="black" points="504.71,-706.76 495.67,-701.24 499.3,-711.2 504.71,-706.76"/>
</g>
<!-- ComparsionDetectorVanadium -->
<g id="node4" class="node">
<title>ComparsionDetectorVanadium</title>
<ellipse fill="khaki" stroke="black" cx="409.53" cy="-937.75" rx="159.59" ry="18"/>
<text text-anchor="middle" x="409.53" y="-933.08" font-family="Helvetica,sans-Serif" font-size="14.00">ComparsionDetectorVanadium</text>
</g>
<!-- ComparsionDetectorVanadium&#45;&gt;DgsDiagnose -->
<g id="edge7" class="edge">
<title>ComparsionDetectorVanadium&#45;&gt;DgsDiagnose</title>
<path fill="none" stroke="black" d="M396.7,-919.56C390.51,-911.28 382.96,-901.16 376.08,-891.94"/>
<polygon fill="black" stroke="black" points="378.93,-889.91 370.14,-883.99 373.32,-894.1 378.93,-889.91"/>
</g>
<!-- Grouping -->
<g id="node5" class="node">
<title>Grouping</title>
<ellipse fill="khaki" stroke="black" cx="256.53" cy="-590.25" rx="55.94" ry="18"/>
<text text-anchor="middle" x="256.53" y="-585.58" font-family="Helvetica,sans-Serif" font-size="14.00">Grouping</text>
</g>
<!-- Grouping&#45;&gt;DgsConvertToEnergyTransfer -->
<g id="edge8" class="edge">
<title>Grouping&#45;&gt;DgsConvertToEnergyTransfer</title>
<path fill="none" stroke="black" d="M256.53,-571.99C256.53,-559.61 256.53,-542.65 256.53,-528.27"/>
<polygon fill="black" stroke="black" points="260.03,-528.47 256.53,-518.47 253.03,-528.47 260.03,-528.47"/>
</g>
<!-- AbsoluteUnitsSample -->
<g id="node6" class="node">
<title>AbsoluteUnitsSample</title>
<ellipse fill="khaki" stroke="black" cx="603.53" cy="-498.75" rx="115.39" ry="18"/>
<text text-anchor="middle" x="603.53" y="-494.07" font-family="Helvetica,sans-Serif" font-size="14.00">AbsoluteUnitsSample</text>
</g>
<!-- DgsAbsoluteUnitsReduction -->
<g id="node13" class="node">
<title>DgsAbsoluteUnitsReduction</title>
<path fill="lightskyblue" stroke="black" d="M846.9,-426.25C846.9,-426.25 662.15,-426.25 662.15,-426.25 656.15,-426.25 650.15,-420.25 650.15,-414.25 650.15,-414.25 650.15,-402.25 650.15,-402.25 650.15,-396.25 656.15,-390.25 662.15,-390.25 662.15,-390.25 846.9,-390.25 846.9,-390.25 852.9,-390.25 858.9,-396.25 858.9,-402.25 858.9,-402.25 858.9,-414.25 858.9,-414.25 858.9,-420.25 852.9,-426.25 846.9,-426.25"/>
<text text-anchor="middle" x="754.53" y="-403.57" font-family="Helvetica,sans-Serif" font-size="14.00">DgsAbsoluteUnitsReduction</text>
</g>
<!-- AbsoluteUnitsSample&#45;&gt;DgsAbsoluteUnitsReduction -->
<g id="edge14" class="edge">
<title>AbsoluteUnitsSample&#45;&gt;DgsAbsoluteUnitsReduction</title>
<path fill="none" stroke="black" d="M632.28,-480.9C655.7,-467.17 689.01,-447.65 714.94,-432.45"/>
<polygon fill="black" stroke="black" points="716.68,-435.49 723.54,-427.41 713.14,-429.45 716.68,-435.49"/>
</g>
<!-- AbsoluteUnitsDetectorVanadium -->
<g id="node7" class="node">
<title>AbsoluteUnitsDetectorVanadium</title>
<ellipse fill="khaki" stroke="black" cx="905.53" cy="-498.75" rx="169.06" ry="18"/>
<text text-anchor="middle" x="905.53" y="-494.07" font-family="Helvetica,sans-Serif" font-size="14.00">AbsoluteUnitsDetectorVanadium</text>
</g>
<!-- AbsoluteUnitsDetectorVanadium&#45;&gt;DgsAbsoluteUnitsReduction -->
<g id="edge15" class="edge">
<title>AbsoluteUnitsDetectorVanadium&#45;&gt;DgsAbsoluteUnitsReduction</title>
<path fill="none" stroke="black" d="M876.41,-480.69C853.03,-466.98 819.97,-447.6 794.17,-432.49"/>
<polygon fill="black" stroke="black" points="796.03,-429.52 785.63,-427.48 792.49,-435.56 796.03,-429.52"/>
</g>
<!-- OutputWorkspace -->
<g id="node8" class="node">
<title>OutputWorkspace</title>
<ellipse fill="khaki" stroke="black" cx="519.53" cy="-18" rx="98.56" ry="18"/>
<text text-anchor="middle" x="519.53" y="-13.32" font-family="Helvetica,sans-Serif" font-size="14.00">OutputWorkspace</text>
</g>
<!-- isAbsUnits -->
<g id="node9" class="node">
<title>isAbsUnits</title>
<polygon fill="limegreen" stroke="black" points="465.53,-327.5 388.78,-285 465.53,-242.5 542.28,-285 465.53,-327.5"/>
<text text-anchor="middle" x="465.53" y="-288.95" font-family="Helvetica,sans-Serif" font-size="14.00">Absolute</text>
<text text-anchor="middle" x="465.53" y="-271.7" font-family="Helvetica,sans-Serif" font-size="14.00">Units?</text>
</g>
<!-- Divide -->
<g id="node14" class="node">
<title>Divide</title>
<path fill="lightskyblue" stroke="black" d="M588.28,-181C588.28,-181 552.78,-181 552.78,-181 546.78,-181 540.78,-175 540.78,-169 540.78,-169 540.78,-157 540.78,-157 540.78,-151 546.78,-145 552.78,-145 552.78,-145 588.28,-145 588.28,-145 594.28,-145 600.28,-151 600.28,-157 600.28,-157 600.28,-169 600.28,-169 600.28,-175 594.28,-181 588.28,-181"/>
<text text-anchor="middle" x="570.53" y="-158.32" font-family="Helvetica,sans-Serif" font-size="14.00">Divide</text>
</g>
<!-- isAbsUnits&#45;&gt;Divide -->
<g id="edge21" class="edge">
<title>isAbsUnits&#45;&gt;Divide</title>
<path fill="none" stroke="black" d="M490.14,-255.87C507.62,-235.89 530.91,-209.28 547.91,-189.84"/>
<polygon fill="black" stroke="black" points="550.53,-192.17 554.48,-182.34 545.26,-187.56 550.53,-192.17"/>
<text text-anchor="middle" x="549.78" y="-202.95" font-family="Helvetica,sans-Serif" font-size="14.00">Yes</text>
</g>
<!-- SPhiE -->
<g id="node21" class="node">
<title>SPhiE</title>
<polygon fill="grey" stroke="black" points="572.21,-108 488.4,-108 466.84,-72 550.65,-72 572.21,-108"/>
<text text-anchor="middle" x="519.53" y="-83.83" font-family="Times,serif" font-size="14.00">S(φ, E)</text>
</g>
<!-- isAbsUnits&#45;&gt;SPhiE -->
<g id="edge22" class="edge">
<title>isAbsUnits&#45;&gt;SPhiE</title>
<path fill="none" stroke="black" d="M478.57,-249.42C482.34,-238.85 486.3,-227.14 489.53,-216.25 499.28,-183.3 508.13,-144.78 513.65,-119.25"/>
<polygon fill="black" stroke="black" points="517.04,-120.16 515.7,-109.65 510.19,-118.7 517.04,-120.16"/>
<text text-anchor="middle" x="515.9" y="-158.32" font-family="Helvetica,sans-Serif" font-size="14.00">No</text>
</g>
<!-- detVanMask -->
<g id="node15" class="node">
<title>detVanMask</title>
<polygon fill="grey" stroke="black" points="436.1,-809.75 309.52,-809.75 276.95,-736.75 403.53,-736.75 436.1,-809.75"/>
<text text-anchor="middle" x="356.53" y="-774.2" font-family="Times,serif" font-size="14.00">DetVan</text>
<text text-anchor="middle" x="356.53" y="-759.95" font-family="Times,serif" font-size="14.00">Diag Mask</text>
</g>
<!-- DgsDiagnose&#45;&gt;detVanMask -->
<g id="edge9" class="edge">
<title>DgsDiagnose&#45;&gt;detVanMask</title>
<path fill="none" stroke="black" d="M356.53,-846.49C356.53,-839.21 356.53,-830.33 356.53,-821.33"/>
<polygon fill="black" stroke="black" points="360.03,-821.49 356.53,-811.49 353.03,-821.49 360.03,-821.49"/>
</g>
<!-- intDetVan -->
<g id="node16" class="node">
<title>intDetVan</title>
<polygon fill="grey" stroke="black" points="535.65,-626.75 417.73,-626.75 387.4,-553.75 505.32,-553.75 535.65,-626.75"/>
<text text-anchor="middle" x="461.53" y="-591.2" font-family="Times,serif" font-size="14.00">Integrated</text>
<text text-anchor="middle" x="461.53" y="-576.95" font-family="Times,serif" font-size="14.00">DetVan</text>
</g>
<!-- DgsProcessDetectorVanadium&#45;&gt;intDetVan -->
<g id="edge12" class="edge">
<title>DgsProcessDetectorVanadium&#45;&gt;intDetVan</title>
<path fill="none" stroke="black" d="M476.86,-663.49C475.3,-656.13 473.39,-647.14 471.46,-638.03"/>
<polygon fill="black" stroke="black" points="474.92,-637.51 469.42,-628.46 468.08,-638.97 474.92,-637.51"/>
</g>
<!-- procSamp -->
<g id="node17" class="node">
<title>procSamp</title>
<polygon fill="grey" stroke="black" points="538.1,-444.75 422.65,-444.75 392.95,-371.75 508.4,-371.75 538.1,-444.75"/>
<text text-anchor="middle" x="465.53" y="-409.2" font-family="Times,serif" font-size="14.00">Processed</text>
<text text-anchor="middle" x="465.53" y="-394.95" font-family="Times,serif" font-size="14.00">Sample</text>
</g>
<!-- DgsConvertToEnergyTransfer&#45;&gt;procSamp -->
<g id="edge19" class="edge">
<title>DgsConvertToEnergyTransfer&#45;&gt;procSamp</title>
<path fill="none" stroke="black" d="M298.63,-480.34C323.38,-470.07 355.27,-456.76 383.53,-444.75 390.89,-441.62 398.61,-438.31 406.25,-435.02"/>
<polygon fill="black" stroke="black" points="407.39,-438.34 415.18,-431.17 404.62,-431.92 407.39,-438.34"/>
</g>
<!-- background -->
<g id="node18" class="node">
<title>background</title>
<polygon fill="grey" stroke="black" points="374.53,-444.75 183.63,-444.75 134.52,-371.75 325.42,-371.75 374.53,-444.75"/>
<text text-anchor="middle" x="254.53" y="-409.2" font-family="Times,serif" font-size="14.00">Time&#45;independent</text>
<text text-anchor="middle" x="254.53" y="-394.95" font-family="Times,serif" font-size="14.00">background</text>
</g>
<!-- DgsConvertToEnergyTransfer&#45;&gt;background -->
<g id="edge18" class="edge">
<title>DgsConvertToEnergyTransfer&#45;&gt;background</title>
<path fill="none" stroke="black" d="M256.13,-480.27C255.97,-473.26 255.78,-464.82 255.59,-456.24"/>
<polygon fill="black" stroke="black" points="259.09,-456.43 255.37,-446.51 252.09,-456.59 259.09,-456.43"/>
</g>
<!-- procUnits -->
<g id="node19" class="node">
<title>procUnits</title>
<polygon fill="grey" stroke="black" points="705.1,-335.75 589.65,-335.75 559.95,-234.25 675.4,-234.25 705.1,-335.75"/>
<text text-anchor="middle" x="632.53" y="-293.07" font-family="Times,serif" font-size="14.00">Processed</text>
<text text-anchor="middle" x="632.53" y="-278.82" font-family="Times,serif" font-size="14.00">Absolute</text>
<text text-anchor="middle" x="632.53" y="-264.57" font-family="Times,serif" font-size="14.00">Units</text>
</g>
<!-- DgsAbsoluteUnitsReduction&#45;&gt;procUnits -->
<g id="edge16" class="edge">
<title>DgsAbsoluteUnitsReduction&#45;&gt;procUnits</title>
<path fill="none" stroke="black" d="M737.05,-389.88C724.76,-377.67 707.56,-360.58 690.66,-343.78"/>
<polygon fill="black" stroke="black" points="693.57,-341.73 684.01,-337.16 688.63,-346.7 693.57,-341.73"/>
</g>
<!-- absUnits -->
<g id="node20" class="node">
<title>absUnits</title>
<polygon fill="grey" stroke="black" points="882.1,-335.75 755.52,-335.75 722.95,-234.25 849.53,-234.25 882.1,-335.75"/>
<text text-anchor="middle" x="802.53" y="-293.07" font-family="Times,serif" font-size="14.00">Absolute</text>
<text text-anchor="middle" x="802.53" y="-278.82" font-family="Times,serif" font-size="14.00">Units</text>
<text text-anchor="middle" x="802.53" y="-264.57" font-family="Times,serif" font-size="14.00">Diag Mask</text>
</g>
<!-- DgsAbsoluteUnitsReduction&#45;&gt;absUnits -->
<g id="edge17" class="edge">
<title>DgsAbsoluteUnitsReduction&#45;&gt;absUnits</title>
<path fill="none" stroke="black" d="M761.4,-389.88C765.97,-378.33 772.28,-362.41 778.57,-346.5"/>
<polygon fill="black" stroke="black" points="781.71,-348.09 782.14,-337.51 775.2,-345.51 781.71,-348.09"/>
</g>
<!-- Divide&#45;&gt;SPhiE -->
<g id="edge24" class="edge">
<title>Divide&#45;&gt;SPhiE</title>
<path fill="none" stroke="black" d="M558.18,-144.81C552.23,-136.53 544.96,-126.41 538.34,-117.19"/>
<polygon fill="black" stroke="black" points="541.32,-115.34 532.64,-109.26 535.63,-119.42 541.32,-115.34"/>
</g>
<!-- detVanMask&#45;&gt;DgsProcessDetectorVanadium -->
<g id="edge11" class="edge">
<title>detVanMask&#45;&gt;DgsProcessDetectorVanadium</title>
<path fill="none" stroke="black" d="M404.47,-737.65C418.84,-727.28 434.27,-716.14 447.45,-706.62"/>
<polygon fill="black" stroke="black" points="449.32,-709.59 455.38,-700.9 445.22,-703.92 449.32,-709.59"/>
</g>
<!-- detVanMask&#45;&gt;DgsConvertToEnergyTransfer -->
<g id="edge10" class="edge">
<title>detVanMask&#45;&gt;DgsConvertToEnergyTransfer</title>
<path fill="none" stroke="black" d="M358.26,-736.45C358.86,-690.97 354.45,-611.49 321.53,-553.75 314.95,-542.22 304.9,-532.09 294.66,-523.82"/>
<polygon fill="black" stroke="black" points="296.98,-521.19 286.89,-517.95 292.76,-526.77 296.98,-521.19"/>
</g>
<!-- intDetVan&#45;&gt;DgsConvertToEnergyTransfer -->
<g id="edge13" class="edge">
<title>intDetVan&#45;&gt;DgsConvertToEnergyTransfer</title>
<path fill="none" stroke="black" d="M394.22,-553.32C381.19,-546.84 367.54,-540.36 354.53,-534.75 343.47,-529.99 331.54,-525.33 319.93,-521.05"/>
<polygon fill="black" stroke="black" points="321.41,-517.87 310.82,-517.75 319.03,-524.45 321.41,-517.87"/>
</g>
<!-- procSamp&#45;&gt;isAbsUnits -->
<g id="edge20" class="edge">
<title>procSamp&#45;&gt;isAbsUnits</title>
<path fill="none" stroke="black" d="M465.53,-371.53C465.53,-361.37 465.53,-350.07 465.53,-339.11"/>
<polygon fill="black" stroke="black" points="469.03,-339.39 465.53,-329.39 462.03,-339.39 469.03,-339.39"/>
</g>
<!-- procUnits&#45;&gt;Divide -->
<g id="edge23" class="edge">
<title>procUnits&#45;&gt;Divide</title>
<path fill="none" stroke="black" d="M606.59,-233.8C599.15,-219.4 591.3,-204.22 584.84,-191.71"/>
<polygon fill="black" stroke="black" points="587.95,-190.11 580.25,-182.83 581.73,-193.32 587.95,-190.11"/>
</g>
<!-- SPhiE&#45;&gt;OutputWorkspace -->
<g id="edge25" class="edge">
<title>SPhiE&#45;&gt;OutputWorkspace</title>
<path fill="none" stroke="black" d="M519.53,-71.7C519.53,-64.41 519.53,-55.73 519.53,-47.54"/>
<polygon fill="black" stroke="black" points="523.03,-47.62 519.53,-37.62 516.03,-47.62 523.03,-47.62"/>
</g>
</g>
</svg>
