<?xml version="1.0" encoding="UTF-8" standalone="no"?>
<!DOCTYPE svg PUBLIC "-//W3C//DTD SVG 1.1//EN"
 "http://www.w3.org/Graphics/SVG/1.1/DTD/svg11.dtd">
<!-- Generated by graphviz version 11.0.0 (20240519.1550)
 -->
<!-- Title: DgsRemap Pages: 1 -->
<svg width="784pt" height="376pt"
 viewBox="0.00 0.00 783.69 375.50" xmlns="http://www.w3.org/2000/svg" xmlns:xlink="http://www.w3.org/1999/xlink">
<g id="graph0" class="graph" transform="scale(1 1) rotate(0) translate(4 371.5)">
<title>DgsRemap</title>
<polygon fill="white" stroke="none" points="-4,4 -4,-371.5 779.69,-371.5 779.69,4 -4,4"/>
<text text-anchor="middle" x="387.85" y="-350.2" font-family="Helvetica,sans-Serif" font-size="14.00">DgsRemap Flowchart</text>
<!-- InputWorkspace -->
<g id="node1" class="node">
<title>InputWorkspace</title>
<ellipse fill="khaki" stroke="black" cx="368.61" cy="-324.25" rx="90.14" ry="18"/>
<text text-anchor="middle" x="368.61" y="-319.57" font-family="Helvetica,sans-Serif" font-size="14.00">InputWorkspace</text>
</g>
<!-- ExecuteOppositeOrder -->
<g id="node9" class="node">
<title>ExecuteOppositeOrder</title>
<polygon fill="limegreen" stroke="black" points="368.61,-270.25 197.24,-252.25 368.61,-234.25 539.99,-252.25 368.61,-270.25"/>
<text text-anchor="middle" x="368.61" y="-247.57" font-family="Helvetica,sans-Serif" font-size="14.00">ExecuteOppositeOrder</text>
</g>
<!-- InputWorkspace&#45;&gt;ExecuteOppositeOrder -->
<g id="edge1" class="edge">
<title>InputWorkspace&#45;&gt;ExecuteOppositeOrder</title>
<path fill="none" stroke="black" d="M368.61,-305.95C368.61,-298.66 368.61,-289.98 368.61,-281.79"/>
<polygon fill="black" stroke="black" points="372.11,-281.87 368.61,-271.87 365.11,-281.87 372.11,-281.87"/>
</g>
<!-- MaskWorkspace -->
<g id="node2" class="node">
<title>MaskWorkspace</title>
<ellipse fill="khaki" stroke="black" cx="89.61" cy="-252.25" rx="89.61" ry="18"/>
<text text-anchor="middle" x="89.61" y="-247.57" font-family="Helvetica,sans-Serif" font-size="14.00">MaskWorkspace</text>
</g>
<!-- maskDet1 -->
<g id="node5" class="node">
<title>maskDet1</title>
<path fill="lightskyblue" stroke="black" d="M306.99,-181C306.99,-181 212.24,-181 212.24,-181 206.24,-181 200.24,-175 200.24,-169 200.24,-169 200.24,-157 200.24,-157 200.24,-151 206.24,-145 212.24,-145 212.24,-145 306.99,-145 306.99,-145 312.99,-145 318.99,-151 318.99,-157 318.99,-157 318.99,-169 318.99,-169 318.99,-175 312.99,-181 306.99,-181"/>
<text text-anchor="middle" x="259.61" y="-158.32" font-family="Helvetica,sans-Serif" font-size="14.00">MaskDetectors</text>
</g>
<!-- MaskWorkspace&#45;&gt;maskDet1 -->
<g id="edge10" class="edge">
<title>MaskWorkspace&#45;&gt;maskDet1</title>
<path fill="none" stroke="black" d="M121.19,-235.04C147.73,-221.42 185.96,-201.8 215.52,-186.63"/>
<polygon fill="black" stroke="black" points="216.94,-189.84 224.24,-182.16 213.74,-183.61 216.94,-189.84"/>
</g>
<!-- maskDet2 -->
<g id="node6" class="node">
<title>maskDet2</title>
<path fill="lightskyblue" stroke="black" d="M302.99,-108C302.99,-108 208.24,-108 208.24,-108 202.24,-108 196.24,-102 196.24,-96 196.24,-96 196.24,-84 196.24,-84 196.24,-78 202.24,-72 208.24,-72 208.24,-72 302.99,-72 302.99,-72 308.99,-72 314.99,-78 314.99,-84 314.99,-84 314.99,-96 314.99,-96 314.99,-102 308.99,-108 302.99,-108"/>
<text text-anchor="middle" x="255.61" y="-85.33" font-family="Helvetica,sans-Serif" font-size="14.00">MaskDetectors</text>
</g>
<!-- MaskWorkspace&#45;&gt;maskDet2 -->
<g id="edge11" class="edge">
<title>MaskWorkspace&#45;&gt;maskDet2</title>
<path fill="none" stroke="black" d="M104.99,-234.16C124.52,-212.71 159.53,-175.09 191.61,-145 202.22,-135.06 214.3,-124.64 225.09,-115.64"/>
<polygon fill="black" stroke="black" points="227.15,-118.48 232.63,-109.42 222.69,-113.09 227.15,-118.48"/>
</g>
<!-- GroupingWorkspace -->
<g id="node3" class="node">
<title>GroupingWorkspace</title>
<ellipse fill="khaki" stroke="black" cx="666.61" cy="-252.25" rx="109.08" ry="18"/>
<text text-anchor="middle" x="666.61" y="-247.57" font-family="Helvetica,sans-Serif" font-size="14.00">GroupingWorkspace</text>
</g>
<!-- groupDet1 -->
<g id="node7" class="node">
<title>groupDet1</title>
<path fill="lightskyblue" stroke="black" d="M445.99,-108C445.99,-108 345.24,-108 345.24,-108 339.24,-108 333.24,-102 333.24,-96 333.24,-96 333.24,-84 333.24,-84 333.24,-78 339.24,-72 345.24,-72 345.24,-72 445.99,-72 445.99,-72 451.99,-72 457.99,-78 457.99,-84 457.99,-84 457.99,-96 457.99,-96 457.99,-102 451.99,-108 445.99,-108"/>
<text text-anchor="middle" x="395.61" y="-85.33" font-family="Helvetica,sans-Serif" font-size="14.00">GroupDetectors</text>
</g>
<!-- GroupingWorkspace&#45;&gt;groupDet1 -->
<g id="edge8" class="edge">
<title>GroupingWorkspace&#45;&gt;groupDet1</title>
<path fill="none" stroke="black" d="M631.06,-234.92C619.32,-229.27 606.28,-222.73 594.61,-216.25 535.56,-183.44 469.71,-140.72 430.51,-114.6"/>
<polygon fill="black" stroke="black" points="432.66,-111.83 422.4,-109.18 428.77,-117.65 432.66,-111.83"/>
</g>
<!-- groupDet2 -->
<g id="node8" class="node">
<title>groupDet2</title>
<path fill="lightskyblue" stroke="black" d="M449.99,-181C449.99,-181 349.24,-181 349.24,-181 343.24,-181 337.24,-175 337.24,-169 337.24,-169 337.24,-157 337.24,-157 337.24,-151 343.24,-145 349.24,-145 349.24,-145 449.99,-145 449.99,-145 455.99,-145 461.99,-151 461.99,-157 461.99,-157 461.99,-169 461.99,-169 461.99,-175 455.99,-181 449.99,-181"/>
<text text-anchor="middle" x="399.61" y="-158.32" font-family="Helvetica,sans-Serif" font-size="14.00">GroupDetectors</text>
</g>
<!-- GroupingWorkspace&#45;&gt;groupDet2 -->
<g id="edge9" class="edge">
<title>GroupingWorkspace&#45;&gt;groupDet2</title>
<path fill="none" stroke="black" d="M618.88,-235.65C575.6,-221.51 511.47,-200.55 463.73,-184.95"/>
<polygon fill="black" stroke="black" points="464.92,-181.66 454.33,-181.88 462.75,-188.31 464.92,-181.66"/>
</g>
<!-- OutputWorkspace -->
<g id="node4" class="node">
<title>OutputWorkspace</title>
<ellipse fill="khaki" stroke="black" cx="324.61" cy="-18" rx="98.56" ry="18"/>
<text text-anchor="middle" x="324.61" y="-13.32" font-family="Helvetica,sans-Serif" font-size="14.00">OutputWorkspace</text>
</g>
<!-- maskDet1&#45;&gt;groupDet1 -->
<g id="edge4" class="edge">
<title>maskDet1&#45;&gt;groupDet1</title>
<path fill="none" stroke="black" d="M292.88,-144.63C310.75,-135.31 332.98,-123.7 352.19,-113.67"/>
<polygon fill="black" stroke="black" points="353.63,-116.87 360.88,-109.14 350.39,-110.66 353.63,-116.87"/>
</g>
<!-- maskDet2&#45;&gt;OutputWorkspace -->
<g id="edge7" class="edge">
<title>maskDet2&#45;&gt;OutputWorkspace</title>
<path fill="none" stroke="black" d="M272.67,-71.7C280.86,-63.39 290.83,-53.28 299.83,-44.14"/>
<polygon fill="black" stroke="black" points="302.16,-46.76 306.69,-37.18 297.18,-41.85 302.16,-46.76"/>
</g>
<!-- groupDet1&#45;&gt;OutputWorkspace -->
<g id="edge6" class="edge">
<title>groupDet1&#45;&gt;OutputWorkspace</title>
<path fill="none" stroke="black" d="M378.06,-71.7C369.64,-63.39 359.38,-53.28 350.11,-44.14"/>
<polygon fill="black" stroke="black" points="352.62,-41.7 343.04,-37.17 347.7,-46.68 352.62,-41.7"/>
</g>
<!-- groupDet2&#45;&gt;maskDet2 -->
<g id="edge5" class="edge">
<title>groupDet2&#45;&gt;maskDet2</title>
<path fill="none" stroke="black" d="M360.75,-144.61C348.78,-139.11 335.59,-132.92 323.61,-127 315.19,-122.83 306.25,-118.24 297.73,-113.76"/>
<polygon fill="black" stroke="black" points="299.41,-110.69 288.93,-109.11 296.14,-116.88 299.41,-110.69"/>
</g>
<!-- ExecuteOppositeOrder&#45;&gt;maskDet1 -->
<g id="edge2" class="edge">
<title>ExecuteOppositeOrder&#45;&gt;maskDet1</title>
<path fill="none" stroke="black" d="M349.38,-235.85C332.99,-222.74 309.15,-203.65 290.16,-188.45"/>
<polygon fill="black" stroke="black" points="292.45,-185.8 282.46,-182.28 288.08,-191.27 292.45,-185.8"/>
<text text-anchor="middle" x="338.61" y="-202.95" font-family="Helvetica,sans-Serif" font-size="14.00">True</text>
</g>
<!-- ExecuteOppositeOrder&#45;&gt;groupDet2 -->
<g id="edge3" class="edge">
<title>ExecuteOppositeOrder&#45;&gt;groupDet2</title>
<path fill="none" stroke="black" d="M374.59,-234.43C378.87,-222.39 384.72,-205.91 389.69,-191.92"/>
<polygon fill="black" stroke="black" points="392.89,-193.39 392.94,-182.79 386.29,-191.05 392.89,-193.39"/>
<text text-anchor="middle" x="403.86" y="-202.95" font-family="Helvetica,sans-Serif" font-size="14.00">False</text>
</g>
</g>
</svg>
