<?xml version="1.0" encoding="UTF-8" standalone="no"?>
<!DOCTYPE svg PUBLIC "-//W3C//DTD SVG 1.1//EN"
 "http://www.w3.org/Graphics/SVG/1.1/DTD/svg11.dtd">
<!-- Generated by graphviz version 9.0.0 (20231125.0833)
 -->
<!-- Title: DgsRemap Pages: 1 -->
<svg width="784pt" height="378pt"
 viewBox="0.00 0.00 783.69 377.50" xmlns="http://www.w3.org/2000/svg" xmlns:xlink="http://www.w3.org/1999/xlink">
<g id="graph0" class="graph" transform="scale(1 1) rotate(0) translate(4 373.5)">
<title>DgsRemap</title>
<polygon fill="white" stroke="none" points="-4,4 -4,-373.5 779.69,-373.5 779.69,4 -4,4"/>
<text text-anchor="middle" x="387.85" y="-352.2" font-family="Helvetica,sans-Serif" font-size="14.00">DgsRemap Flowchart</text>
<!-- InputWorkspace -->
<g id="node1" class="node">
<title>InputWorkspace</title>
<ellipse fill="khaki" stroke="black" cx="368.61" cy="-326.25" rx="90.14" ry="18"/>
<text text-anchor="middle" x="368.61" y="-321.57" font-family="Helvetica,sans-Serif" font-size="14.00">InputWorkspace</text>
</g>
<!-- ExecuteOppositeOrder -->
<g id="node9" class="node">
<title>ExecuteOppositeOrder</title>
<polygon fill="limegreen" stroke="black" points="368.61,-271.25 197.24,-253.25 368.61,-235.25 539.99,-253.25 368.61,-271.25"/>
<text text-anchor="middle" x="368.61" y="-248.57" font-family="Helvetica,sans-Serif" font-size="14.00">ExecuteOppositeOrder</text>
</g>
<!-- InputWorkspace&#45;&gt;ExecuteOppositeOrder -->
<g id="edge1" class="edge">
<title>InputWorkspace&#45;&gt;ExecuteOppositeOrder</title>
<path fill="none" stroke="black" d="M368.61,-308.06C368.61,-300.48 368.61,-291.35 368.61,-282.79"/>
<polygon fill="black" stroke="black" points="372.11,-282.79 368.61,-272.79 365.11,-282.79 372.11,-282.79"/>
</g>
<!-- MaskWorkspace -->
<g id="node2" class="node">
<title>MaskWorkspace</title>
<ellipse fill="khaki" stroke="black" cx="89.61" cy="-253.25" rx="89.61" ry="18"/>
<text text-anchor="middle" x="89.61" y="-248.57" font-family="Helvetica,sans-Serif" font-size="14.00">MaskWorkspace</text>
</g>
<!-- maskDet1 -->
<g id="node5" class="node">
<title>maskDet1</title>
<path fill="lightskyblue" stroke="black" d="M339.99,-182C339.99,-182 245.24,-182 245.24,-182 239.24,-182 233.24,-176 233.24,-170 233.24,-170 233.24,-158 233.24,-158 233.24,-152 239.24,-146 245.24,-146 245.24,-146 339.99,-146 339.99,-146 345.99,-146 351.99,-152 351.99,-158 351.99,-158 351.99,-170 351.99,-170 351.99,-176 345.99,-182 339.99,-182"/>
<text text-anchor="middle" x="292.61" y="-159.32" font-family="Helvetica,sans-Serif" font-size="14.00">MaskDetectors</text>
</g>
<!-- MaskWorkspace&#45;&gt;maskDet1 -->
<g id="edge10" class="edge">
<title>MaskWorkspace&#45;&gt;maskDet1</title>
<path fill="none" stroke="black" d="M126.38,-236.45C158.61,-222.59 205.8,-202.31 241.68,-186.89"/>
<polygon fill="black" stroke="black" points="242.75,-190.24 250.55,-183.08 239.98,-183.81 242.75,-190.24"/>
</g>
<!-- maskDet2 -->
<g id="node6" class="node">
<title>maskDet2</title>
<path fill="lightskyblue" stroke="black" d="M349.99,-109C349.99,-109 255.24,-109 255.24,-109 249.24,-109 243.24,-103 243.24,-97 243.24,-97 243.24,-85 243.24,-85 243.24,-79 249.24,-73 255.24,-73 255.24,-73 349.99,-73 349.99,-73 355.99,-73 361.99,-79 361.99,-85 361.99,-85 361.99,-97 361.99,-97 361.99,-103 355.99,-109 349.99,-109"/>
<text text-anchor="middle" x="302.61" y="-86.33" font-family="Helvetica,sans-Serif" font-size="14.00">MaskDetectors</text>
</g>
<!-- MaskWorkspace&#45;&gt;maskDet2 -->
<g id="edge11" class="edge">
<title>MaskWorkspace&#45;&gt;maskDet2</title>
<path fill="none" stroke="black" d="M110.35,-235.28C136.59,-213.96 183.35,-176.48 224.61,-146 238.37,-135.84 253.79,-125.04 267.27,-115.79"/>
<polygon fill="black" stroke="black" points="269.15,-118.75 275.44,-110.22 265.21,-112.96 269.15,-118.75"/>
</g>
<!-- GroupingWorkspace -->
<g id="node3" class="node">
<title>GroupingWorkspace</title>
<ellipse fill="khaki" stroke="black" cx="666.61" cy="-253.25" rx="109.08" ry="18"/>
<text text-anchor="middle" x="666.61" y="-248.57" font-family="Helvetica,sans-Serif" font-size="14.00">GroupingWorkspace</text>
</g>
<!-- groupDet1 -->
<g id="node7" class="node">
<title>groupDet1</title>
<path fill="lightskyblue" stroke="black" d="M492.99,-109C492.99,-109 392.24,-109 392.24,-109 386.24,-109 380.24,-103 380.24,-97 380.24,-97 380.24,-85 380.24,-85 380.24,-79 386.24,-73 392.24,-73 392.24,-73 492.99,-73 492.99,-73 498.99,-73 504.99,-79 504.99,-85 504.99,-85 504.99,-97 504.99,-97 504.99,-103 498.99,-109 492.99,-109"/>
<text text-anchor="middle" x="442.61" y="-86.33" font-family="Helvetica,sans-Serif" font-size="14.00">GroupDetectors</text>
</g>
<!-- GroupingWorkspace&#45;&gt;groupDet1 -->
<g id="edge8" class="edge">
<title>GroupingWorkspace&#45;&gt;groupDet1</title>
<path fill="none" stroke="black" d="M643.07,-235.4C603.11,-206.82 521.92,-148.74 476.08,-115.94"/>
<polygon fill="black" stroke="black" points="478.26,-113.2 468.09,-110.23 474.19,-118.89 478.26,-113.2"/>
</g>
<!-- groupDet2 -->
<g id="node8" class="node">
<title>groupDet2</title>
<path fill="lightskyblue" stroke="black" d="M482.99,-182C482.99,-182 382.24,-182 382.24,-182 376.24,-182 370.24,-176 370.24,-170 370.24,-170 370.24,-158 370.24,-158 370.24,-152 376.24,-146 382.24,-146 382.24,-146 482.99,-146 482.99,-146 488.99,-146 494.99,-152 494.99,-158 494.99,-158 494.99,-170 494.99,-170 494.99,-176 488.99,-182 482.99,-182"/>
<text text-anchor="middle" x="432.61" y="-159.32" font-family="Helvetica,sans-Serif" font-size="14.00">GroupDetectors</text>
</g>
<!-- GroupingWorkspace&#45;&gt;groupDet2 -->
<g id="edge9" class="edge">
<title>GroupingWorkspace&#45;&gt;groupDet2</title>
<path fill="none" stroke="black" d="M623.69,-236.25C586.15,-222.25 531.31,-201.8 490,-186.4"/>
<polygon fill="black" stroke="black" points="491.28,-183.14 480.69,-182.93 488.84,-189.7 491.28,-183.14"/>
</g>
<!-- OutputWorkspace -->
<g id="node4" class="node">
<title>OutputWorkspace</title>
<ellipse fill="khaki" stroke="black" cx="371.61" cy="-18" rx="98.56" ry="18"/>
<text text-anchor="middle" x="371.61" y="-13.32" font-family="Helvetica,sans-Serif" font-size="14.00">OutputWorkspace</text>
</g>
<!-- maskDet1&#45;&gt;groupDet1 -->
<g id="edge4" class="edge">
<title>maskDet1&#45;&gt;groupDet1</title>
<path fill="none" stroke="black" d="M329.31,-145.63C349.28,-136.18 374.22,-124.38 395.6,-114.25"/>
<polygon fill="black" stroke="black" points="396.87,-117.52 404.41,-110.08 393.87,-111.2 396.87,-117.52"/>
</g>
<!-- maskDet2&#45;&gt;OutputWorkspace -->
<g id="edge7" class="edge">
<title>maskDet2&#45;&gt;OutputWorkspace</title>
<path fill="none" stroke="black" d="M319.32,-72.81C327.71,-64.18 338.03,-53.56 347.29,-44.03"/>
<polygon fill="black" stroke="black" points="349.55,-46.72 354.01,-37.11 344.53,-41.85 349.55,-46.72"/>
</g>
<!-- groupDet1&#45;&gt;OutputWorkspace -->
<g id="edge6" class="edge">
<title>groupDet1&#45;&gt;OutputWorkspace</title>
<path fill="none" stroke="black" d="M425.43,-72.81C416.79,-64.18 406.17,-53.56 396.65,-44.03"/>
<polygon fill="black" stroke="black" points="399.26,-41.7 389.71,-37.1 394.31,-46.65 399.26,-41.7"/>
</g>
<!-- groupDet2&#45;&gt;maskDet2 -->
<g id="edge5" class="edge">
<title>groupDet2&#45;&gt;maskDet2</title>
<path fill="none" stroke="black" d="M400.81,-145.63C383.89,-136.39 362.87,-124.91 344.63,-114.95"/>
<polygon fill="black" stroke="black" points="346.32,-111.88 335.87,-110.16 342.96,-118.03 346.32,-111.88"/>
</g>
<!-- ExecuteOppositeOrder&#45;&gt;maskDet1 -->
<g id="edge2" class="edge">
<title>ExecuteOppositeOrder&#45;&gt;maskDet1</title>
<path fill="none" stroke="black" d="M354.67,-236.25C343.67,-223.62 328.1,-205.74 315.31,-191.05"/>
<polygon fill="black" stroke="black" points="317.97,-188.78 308.76,-183.54 312.69,-193.38 317.97,-188.78"/>
<text text-anchor="middle" x="352.61" y="-203.95" font-family="Helvetica,sans-Serif" font-size="14.00">True</text>
</g>
<!-- ExecuteOppositeOrder&#45;&gt;groupDet2 -->
<g id="edge3" class="edge">
<title>ExecuteOppositeOrder&#45;&gt;groupDet2</title>
<path fill="none" stroke="black" d="M380.35,-236.25C389.53,-223.74 402.48,-206.08 413.2,-191.47"/>
<polygon fill="black" stroke="black" points="415.86,-193.75 418.96,-183.62 410.22,-189.61 415.86,-193.75"/>
<text text-anchor="middle" x="422.86" y="-203.95" font-family="Helvetica,sans-Serif" font-size="14.00">False</text>
</g>
</g>
</svg>
