<?xml version="1.0" encoding="UTF-8" standalone="no"?>
<!DOCTYPE svg PUBLIC "-//W3C//DTD SVG 1.1//EN"
 "http://www.w3.org/Graphics/SVG/1.1/DTD/svg11.dtd">
<!-- Generated by graphviz version 7.1.0 (20230122.1345)
 -->
<!-- Title: DirectILLDiagnostics Pages: 1 -->
<svg width="1461pt" height="471pt"
 viewBox="0.00 0.00 1461.33 471.00" xmlns="http://www.w3.org/2000/svg" xmlns:xlink="http://www.w3.org/1999/xlink">
<g id="graph0" class="graph" transform="scale(1 1) rotate(0) translate(4 467)">
<title>DirectILLDiagnostics</title>
<polygon fill="white" stroke="none" points="-4,4 -4,-467 1457.33,-467 1457.33,4 -4,4"/>
<text text-anchor="middle" x="726.67" y="-447.8" font-family="Helvetica,sans-Serif" font-size="14.00">DirectILLDiagnostics workflow diagram</text>
<!-- beamStopThreshold -->
<g id="node1" class="node">
<title>beamStopThreshold</title>
<ellipse fill="khaki" stroke="black" cx="373.39" cy="-349" rx="101.28" ry="18"/>
<text text-anchor="middle" x="373.39" y="-345.3" font-family="Helvetica,sans-Serif" font-size="14.00">BeamStopThreshold</text>
</g>
<!-- DefineBeamStop -->
<g id="node13" class="node">
<title>DefineBeamStop</title>
<path fill="lightskyblue" stroke="black" d="M534.89,-294C534.89,-294 453.89,-294 453.89,-294 447.89,-294 441.89,-288 441.89,-282 441.89,-282 441.89,-268 441.89,-268 441.89,-262 447.89,-256 453.89,-256 453.89,-256 534.89,-256 534.89,-256 540.89,-256 546.89,-262 546.89,-268 546.89,-268 546.89,-282 546.89,-282 546.89,-288 540.89,-294 534.89,-294"/>
<text text-anchor="middle" x="494.39" y="-278.8" font-family="Helvetica,sans-Serif" font-size="14.00">Define beam</text>
<text text-anchor="middle" x="494.39" y="-263.8" font-family="Helvetica,sans-Serif" font-size="14.00">stop shadow</text>
</g>
<!-- beamStopThreshold&#45;&gt;DefineBeamStop -->
<g id="edge18" class="edge">
<title>beamStopThreshold&#45;&gt;DefineBeamStop</title>
<path fill="none" stroke="black" d="M401.46,-331.3C416.98,-322.06 436.55,-310.42 453.72,-300.2"/>
<polygon fill="black" stroke="black" points="455.4,-303.27 462.21,-295.15 451.82,-297.26 455.4,-303.27"/>
</g>
<!-- bkgExcludeWidth -->
<g id="node2" class="node">
<title>bkgExcludeWidth</title>
<ellipse fill="khaki" stroke="black" cx="1334.39" cy="-422" rx="118.88" ry="18"/>
<text text-anchor="middle" x="1334.39" y="-418.3" font-family="Helvetica,sans-Serif" font-size="14.00">NonBkgRegionInSigmas</text>
</g>
<!-- IntegrateBkg -->
<g id="node14" class="node">
<title>IntegrateBkg</title>
<path fill="lightskyblue" stroke="black" d="M1225.89,-368C1225.89,-368 1142.89,-368 1142.89,-368 1136.89,-368 1130.89,-362 1130.89,-356 1130.89,-356 1130.89,-342 1130.89,-342 1130.89,-336 1136.89,-330 1142.89,-330 1142.89,-330 1225.89,-330 1225.89,-330 1231.89,-330 1237.89,-336 1237.89,-342 1237.89,-342 1237.89,-356 1237.89,-356 1237.89,-362 1231.89,-368 1225.89,-368"/>
<text text-anchor="middle" x="1184.39" y="-352.8" font-family="Helvetica,sans-Serif" font-size="14.00">Integrate</text>
<text text-anchor="middle" x="1184.39" y="-337.8" font-family="Helvetica,sans-Serif" font-size="14.00">backgrounds</text>
</g>
<!-- bkgExcludeWidth&#45;&gt;IntegrateBkg -->
<g id="edge6" class="edge">
<title>bkgExcludeWidth&#45;&gt;IntegrateBkg</title>
<path fill="none" stroke="black" d="M1299.22,-404.35C1279.65,-395.09 1254.98,-383.41 1233.53,-373.26"/>
<polygon fill="black" stroke="black" points="1235.2,-370.18 1224.66,-369.06 1232.2,-376.5 1235.2,-370.18"/>
</g>
<!-- bkgThresholds -->
<g id="node3" class="node">
<title>bkgThresholds</title>
<ellipse fill="khaki" stroke="black" cx="1034.39" cy="-349" rx="78.79" ry="18"/>
<text text-anchor="middle" x="1034.39" y="-345.3" font-family="Helvetica,sans-Serif" font-size="14.00">Bkg thresholds</text>
</g>
<!-- DiagnoseBkg -->
<g id="node11" class="node">
<title>DiagnoseBkg</title>
<path fill="lightskyblue" stroke="black" d="M1273.89,-293C1273.89,-293 1094.89,-293 1094.89,-293 1088.89,-293 1082.89,-287 1082.89,-281 1082.89,-281 1082.89,-269 1082.89,-269 1082.89,-263 1088.89,-257 1094.89,-257 1094.89,-257 1273.89,-257 1273.89,-257 1279.89,-257 1285.89,-263 1285.89,-269 1285.89,-269 1285.89,-281 1285.89,-281 1285.89,-287 1279.89,-293 1273.89,-293"/>
<text text-anchor="middle" x="1184.39" y="-271.3" font-family="Helvetica,sans-Serif" font-size="14.00">Diagnose flat backgrounds</text>
</g>
<!-- bkgThresholds&#45;&gt;DiagnoseBkg -->
<g id="edge11" class="edge">
<title>bkgThresholds&#45;&gt;DiagnoseBkg</title>
<path fill="none" stroke="black" d="M1067.31,-332.2C1088.03,-322.26 1115.08,-309.27 1137.95,-298.29"/>
<polygon fill="black" stroke="black" points="1139.27,-301.54 1146.77,-294.06 1136.24,-295.23 1139.27,-301.54"/>
</g>
<!-- elasticPeakWidth -->
<g id="node4" class="node">
<title>elasticPeakWidth</title>
<ellipse fill="khaki" stroke="black" cx="709.39" cy="-422" rx="129.98" ry="18"/>
<text text-anchor="middle" x="709.39" y="-418.3" font-family="Helvetica,sans-Serif" font-size="14.00">ElasticPeakWidthInSigmas</text>
</g>
<!-- IntegratePeaks -->
<g id="node16" class="node">
<title>IntegratePeaks</title>
<path fill="lightskyblue" stroke="black" d="M914.89,-368C914.89,-368 839.89,-368 839.89,-368 833.89,-368 827.89,-362 827.89,-356 827.89,-356 827.89,-342 827.89,-342 827.89,-336 833.89,-330 839.89,-330 839.89,-330 914.89,-330 914.89,-330 920.89,-330 926.89,-336 926.89,-342 926.89,-342 926.89,-356 926.89,-356 926.89,-362 920.89,-368 914.89,-368"/>
<text text-anchor="middle" x="877.39" y="-352.8" font-family="Helvetica,sans-Serif" font-size="14.00">Integrate</text>
<text text-anchor="middle" x="877.39" y="-337.8" font-family="Helvetica,sans-Serif" font-size="14.00">elastic peak</text>
</g>
<!-- elasticPeakWidth&#45;&gt;IntegratePeaks -->
<g id="edge3" class="edge">
<title>elasticPeakWidth&#45;&gt;IntegratePeaks</title>
<path fill="none" stroke="black" d="M748.36,-404.53C770.65,-395.11 798.95,-383.15 823.36,-372.84"/>
<polygon fill="black" stroke="black" points="824.67,-376.08 832.52,-368.97 821.94,-369.63 824.67,-376.08"/>
</g>
<!-- inputEPP -->
<g id="node5" class="node">
<title>inputEPP</title>
<ellipse fill="khaki" stroke="black" cx="1120.39" cy="-422" rx="76.89" ry="18"/>
<text text-anchor="middle" x="1120.39" y="-418.3" font-family="Helvetica,sans-Serif" font-size="14.00">EPPWorkspace</text>
</g>
<!-- inputEPP&#45;&gt;IntegrateBkg -->
<g id="edge5" class="edge">
<title>inputEPP&#45;&gt;IntegrateBkg</title>
<path fill="none" stroke="black" d="M1135.56,-404.17C1142.9,-396.03 1151.89,-386.06 1160.15,-376.9"/>
<polygon fill="black" stroke="black" points="1162.65,-379.35 1166.75,-369.57 1157.45,-374.66 1162.65,-379.35"/>
</g>
<!-- inputEPP&#45;&gt;IntegratePeaks -->
<g id="edge2" class="edge">
<title>inputEPP&#45;&gt;IntegratePeaks</title>
<path fill="none" stroke="black" d="M1073.54,-407.31C1034.93,-396.03 979.89,-379.95 937.94,-367.69"/>
<polygon fill="black" stroke="black" points="939.06,-364.37 928.48,-364.93 937.09,-371.09 939.06,-364.37"/>
</g>
<!-- inputWS -->
<g id="node6" class="node">
<title>inputWS</title>
<ellipse fill="khaki" stroke="black" cx="941.39" cy="-422" rx="83.69" ry="18"/>
<text text-anchor="middle" x="941.39" y="-418.3" font-family="Helvetica,sans-Serif" font-size="14.00">InputWorkspace</text>
</g>
<!-- inputWS&#45;&gt;IntegrateBkg -->
<g id="edge4" class="edge">
<title>inputWS&#45;&gt;IntegrateBkg</title>
<path fill="none" stroke="black" d="M989.69,-406.89C1026.97,-396 1078.9,-380.82 1119.75,-368.89"/>
<polygon fill="black" stroke="black" points="1120.62,-372.28 1129.24,-366.12 1118.66,-365.56 1120.62,-372.28"/>
</g>
<!-- IntegrateIntensities -->
<g id="node15" class="node">
<title>IntegrateIntensities</title>
<path fill="lightskyblue" stroke="black" d="M560.39,-367C560.39,-367 504.39,-367 504.39,-367 498.39,-367 492.39,-361 492.39,-355 492.39,-355 492.39,-343 492.39,-343 492.39,-337 498.39,-331 504.39,-331 504.39,-331 560.39,-331 560.39,-331 566.39,-331 572.39,-337 572.39,-343 572.39,-343 572.39,-355 572.39,-355 572.39,-361 566.39,-367 560.39,-367"/>
<text text-anchor="middle" x="532.39" y="-345.3" font-family="Helvetica,sans-Serif" font-size="14.00">Integrate</text>
</g>
<!-- inputWS&#45;&gt;IntegrateIntensities -->
<g id="edge16" class="edge">
<title>inputWS&#45;&gt;IntegrateIntensities</title>
<path fill="none" stroke="black" d="M879.65,-409.46C869.23,-407.59 858.51,-405.7 848.39,-404 744.63,-386.54 717.83,-387.29 614.39,-368 604.5,-366.16 593.98,-364 583.9,-361.83"/>
<polygon fill="black" stroke="black" points="584.74,-358.43 574.22,-359.71 583.25,-365.27 584.74,-358.43"/>
</g>
<!-- inputWS&#45;&gt;IntegratePeaks -->
<g id="edge1" class="edge">
<title>inputWS&#45;&gt;IntegratePeaks</title>
<path fill="none" stroke="black" d="M926.23,-404.17C918.89,-396.03 909.9,-386.06 901.64,-376.9"/>
<polygon fill="black" stroke="black" points="904.33,-374.66 895.04,-369.57 899.13,-379.35 904.33,-374.66"/>
</g>
<!-- maskIndices -->
<g id="node7" class="node">
<title>maskIndices</title>
<ellipse fill="khaki" stroke="black" cx="88.39" cy="-182" rx="88.28" ry="18"/>
<text text-anchor="middle" x="88.39" y="-178.3" font-family="Helvetica,sans-Serif" font-size="14.00">MaskedDetectors</text>
</g>
<!-- Plus -->
<g id="node17" class="node">
<title>Plus</title>
<path fill="lightskyblue" stroke="black" d="M612.39,-108C612.39,-108 582.39,-108 582.39,-108 576.39,-108 570.39,-102 570.39,-96 570.39,-96 570.39,-84 570.39,-84 570.39,-78 576.39,-72 582.39,-72 582.39,-72 612.39,-72 612.39,-72 618.39,-72 624.39,-78 624.39,-84 624.39,-84 624.39,-96 624.39,-96 624.39,-102 618.39,-108 612.39,-108"/>
<text text-anchor="middle" x="597.39" y="-86.3" font-family="Helvetica,sans-Serif" font-size="14.00">Plus</text>
</g>
<!-- maskIndices&#45;&gt;Plus -->
<g id="edge21" class="edge">
<title>maskIndices&#45;&gt;Plus</title>
<path fill="none" stroke="black" d="M123.67,-165.23C141.79,-157.73 164.42,-149.27 185.39,-144 319.89,-110.21 484.79,-97.28 558.54,-92.93"/>
<polygon fill="black" stroke="black" points="558.69,-96.43 568.47,-92.37 558.29,-89.44 558.69,-96.43"/>
</g>
<!-- maskComponents -->
<g id="node8" class="node">
<title>maskComponents</title>
<ellipse fill="khaki" stroke="black" cx="296.39" cy="-182" rx="102.08" ry="18"/>
<text text-anchor="middle" x="296.39" y="-178.3" font-family="Helvetica,sans-Serif" font-size="14.00">MaskedComponents</text>
</g>
<!-- maskComponents&#45;&gt;Plus -->
<g id="edge22" class="edge">
<title>maskComponents&#45;&gt;Plus</title>
<path fill="none" stroke="black" d="M341.32,-165.46C361.46,-158.64 385.54,-150.69 407.39,-144 459.7,-128 520.7,-111.33 559.19,-101.06"/>
<polygon fill="black" stroke="black" points="559.67,-104.55 568.43,-98.6 557.87,-97.79 559.67,-104.55"/>
</g>
<!-- outputDiagnostics -->
<g id="node9" class="node">
<title>outputDiagnostics</title>
<ellipse fill="khaki" stroke="black" cx="597.39" cy="-18" rx="91.78" ry="18"/>
<text text-anchor="middle" x="597.39" y="-14.3" font-family="Helvetica,sans-Serif" font-size="14.00">OutputWorkspace</text>
</g>
<!-- peakThresholds -->
<g id="node10" class="node">
<title>peakThresholds</title>
<ellipse fill="khaki" stroke="black" cx="706.39" cy="-349" rx="82.59" ry="18"/>
<text text-anchor="middle" x="706.39" y="-345.3" font-family="Helvetica,sans-Serif" font-size="14.00">Peak thresholds</text>
</g>
<!-- DiagnosePeaks -->
<g id="node12" class="node">
<title>DiagnosePeaks</title>
<path fill="lightskyblue" stroke="black" d="M782.39,-293C782.39,-293 630.39,-293 630.39,-293 624.39,-293 618.39,-287 618.39,-281 618.39,-281 618.39,-269 618.39,-269 618.39,-263 624.39,-257 630.39,-257 630.39,-257 782.39,-257 782.39,-257 788.39,-257 794.39,-263 794.39,-269 794.39,-269 794.39,-281 794.39,-281 794.39,-287 788.39,-293 782.39,-293"/>
<text text-anchor="middle" x="706.39" y="-271.3" font-family="Helvetica,sans-Serif" font-size="14.00">Diagnose elastic peaks</text>
</g>
<!-- peakThresholds&#45;&gt;DiagnosePeaks -->
<g id="edge8" class="edge">
<title>peakThresholds&#45;&gt;DiagnosePeaks</title>
<path fill="none" stroke="black" d="M706.39,-330.57C706.39,-322.79 706.39,-313.41 706.39,-304.64"/>
<polygon fill="black" stroke="black" points="709.89,-304.78 706.39,-294.78 702.89,-304.78 709.89,-304.78"/>
</g>
<!-- bkgDiagnostics -->
<g id="node20" class="node">
<title>bkgDiagnostics</title>
<polygon fill="grey" stroke="black" points="1343.77,-220 1099.78,-220 1037.01,-144 1281,-144 1343.77,-220"/>
<text text-anchor="middle" x="1190.39" y="-185.8" font-family="Times,serif" font-size="14.00">Background diagnostics</text>
<text text-anchor="middle" x="1190.39" y="-170.8" font-family="Times,serif" font-size="14.00">workspace</text>
</g>
<!-- DiagnoseBkg&#45;&gt;bkgDiagnostics -->
<g id="edge12" class="edge">
<title>DiagnoseBkg&#45;&gt;bkgDiagnostics</title>
<path fill="none" stroke="black" d="M1185.52,-256.88C1186,-249.64 1186.58,-240.81 1187.17,-231.8"/>
<polygon fill="black" stroke="black" points="1190.66,-232.12 1187.83,-221.91 1183.68,-231.66 1190.66,-232.12"/>
</g>
<!-- peakDiagnostics -->
<g id="node22" class="node">
<title>peakDiagnostics</title>
<polygon fill="grey" stroke="black" points="812.26,-220 635.9,-220 590.53,-144 766.89,-144 812.26,-220"/>
<text text-anchor="middle" x="701.39" y="-185.8" font-family="Times,serif" font-size="14.00">Peak diagnostics</text>
<text text-anchor="middle" x="701.39" y="-170.8" font-family="Times,serif" font-size="14.00">workspace</text>
</g>
<!-- DiagnosePeaks&#45;&gt;peakDiagnostics -->
<g id="edge9" class="edge">
<title>DiagnosePeaks&#45;&gt;peakDiagnostics</title>
<path fill="none" stroke="black" d="M705.45,-256.88C705.05,-249.64 704.57,-240.81 704.07,-231.8"/>
<polygon fill="black" stroke="black" points="707.57,-231.7 703.53,-221.91 700.58,-232.09 707.57,-231.7"/>
</g>
<!-- beamStopMask -->
<g id="node18" class="node">
<title>beamStopMask</title>
<polygon fill="grey" stroke="black" points="571.91,-220 448.6,-220 416.88,-144 540.19,-144 571.91,-220"/>
<text text-anchor="middle" x="494.39" y="-185.8" font-family="Times,serif" font-size="14.00">Beam stop</text>
<text text-anchor="middle" x="494.39" y="-170.8" font-family="Times,serif" font-size="14.00">mask</text>
</g>
<!-- DefineBeamStop&#45;&gt;beamStopMask -->
<g id="edge19" class="edge">
<title>DefineBeamStop&#45;&gt;beamStopMask</title>
<path fill="none" stroke="black" d="M494.39,-255.58C494.39,-248.51 494.39,-240.05 494.39,-231.46"/>
<polygon fill="black" stroke="black" points="497.89,-231.7 494.39,-221.7 490.89,-231.7 497.89,-231.7"/>
</g>
<!-- IntegrateBkg&#45;&gt;DiagnoseBkg -->
<g id="edge10" class="edge">
<title>IntegrateBkg&#45;&gt;DiagnoseBkg</title>
<path fill="none" stroke="black" d="M1184.39,-329.83C1184.39,-322.24 1184.39,-313.24 1184.39,-304.79"/>
<polygon fill="black" stroke="black" points="1187.89,-304.93 1184.39,-294.93 1180.89,-304.93 1187.89,-304.93"/>
</g>
<!-- IntegrateIntensities&#45;&gt;DefineBeamStop -->
<g id="edge17" class="edge">
<title>IntegrateIntensities&#45;&gt;DefineBeamStop</title>
<path fill="none" stroke="black" d="M523.19,-330.57C519.03,-322.67 513.99,-313.13 509.3,-304.26"/>
<polygon fill="black" stroke="black" points="512.51,-302.82 504.74,-295.61 506.32,-306.09 512.51,-302.82"/>
</g>
<!-- IntegratePeaks&#45;&gt;DiagnosePeaks -->
<g id="edge7" class="edge">
<title>IntegratePeaks&#45;&gt;DiagnosePeaks</title>
<path fill="none" stroke="black" d="M833.8,-329.65C810.78,-319.95 782.39,-308 758.25,-297.83"/>
<polygon fill="black" stroke="black" points="759.81,-294.7 749.24,-294.04 757.1,-301.15 759.81,-294.7"/>
</g>
<!-- Plus&#45;&gt;outputDiagnostics -->
<g id="edge24" class="edge">
<title>Plus&#45;&gt;outputDiagnostics</title>
<path fill="none" stroke="black" d="M597.39,-71.7C597.39,-64.41 597.39,-55.73 597.39,-47.54"/>
<polygon fill="black" stroke="black" points="600.89,-47.62 597.39,-37.62 593.89,-47.62 600.89,-47.62"/>
</g>
<!-- beamStopMask&#45;&gt;Plus -->
<g id="edge20" class="edge">
<title>beamStopMask&#45;&gt;Plus</title>
<path fill="none" stroke="black" d="M537.18,-143.61C547.93,-134.22 559.2,-124.37 569.04,-115.77"/>
<polygon fill="black" stroke="black" points="571.26,-118.48 576.49,-109.27 566.65,-113.21 571.26,-118.48"/>
</g>
<!-- beamStopSpectra -->
<g id="node19" class="node">
<title>beamStopSpectra</title>
<polygon fill="grey" stroke="black" points="561.88,-440 384.53,-440 338.9,-404 516.26,-404 561.88,-440"/>
<text text-anchor="middle" x="450.39" y="-418.3" font-family="Times,serif" font-size="14.00">Beam stop spectra</text>
</g>
<!-- beamStopSpectra&#45;&gt;IntegrateIntensities -->
<g id="edge15" class="edge">
<title>beamStopSpectra&#45;&gt;IntegrateIntensities</title>
<path fill="none" stroke="black" d="M470.24,-403.81C480.34,-395.07 492.8,-384.28 503.9,-374.67"/>
<polygon fill="black" stroke="black" points="506.03,-377.46 511.3,-368.27 501.45,-372.17 506.03,-377.46"/>
</g>
<!-- bkgDiagnostics&#45;&gt;Plus -->
<g id="edge14" class="edge">
<title>bkgDiagnostics&#45;&gt;Plus</title>
<path fill="none" stroke="black" d="M1038.22,-145.95C1034.58,-145.28 1030.97,-144.62 1027.39,-144 883.91,-118.94 711.47,-101.47 635.97,-94.44"/>
<polygon fill="black" stroke="black" points="636.49,-90.97 626.21,-93.54 635.84,-97.94 636.49,-90.97"/>
</g>
<!-- defaultMask -->
<g id="node21" class="node">
<title>defaultMask</title>
<polygon fill="grey" stroke="black" points="1018.58,-220 868.75,-220 830.2,-144 980.04,-144 1018.58,-220"/>
<text text-anchor="middle" x="924.39" y="-185.8" font-family="Times,serif" font-size="14.00">Default mask</text>
<text text-anchor="middle" x="924.39" y="-170.8" font-family="Times,serif" font-size="14.00">from file</text>
</g>
<!-- defaultMask&#45;&gt;Plus -->
<g id="edge23" class="edge">
<title>defaultMask&#45;&gt;Plus</title>
<path fill="none" stroke="black" d="M831.35,-147.05C828,-145.99 824.67,-144.97 821.39,-144 757.04,-124.89 680.69,-108.04 635.8,-98.71"/>
<polygon fill="black" stroke="black" points="636.53,-95.29 626.03,-96.7 635.12,-102.14 636.53,-95.29"/>
</g>
<!-- peakDiagnostics&#45;&gt;Plus -->
<g id="edge13" class="edge">
<title>peakDiagnostics&#45;&gt;Plus</title>
<path fill="none" stroke="black" d="M658.19,-143.61C647.34,-134.22 635.96,-124.37 626.02,-115.77"/>
<polygon fill="black" stroke="black" points="628.35,-113.16 618.49,-109.26 623.77,-118.45 628.35,-113.16"/>
</g>
</g>
</svg>
