<?xml version="1.0" encoding="UTF-8" standalone="no"?>
<!DOCTYPE svg PUBLIC "-//W3C//DTD SVG 1.1//EN"
 "http://www.w3.org/Graphics/SVG/1.1/DTD/svg11.dtd">
<!-- Generated by graphviz version 13.0.1 (20250616.1512)
 -->
<!-- Title: Sample Pages: 1 -->
<svg width="400pt" height="620pt"
 viewBox="0.00 0.00 400.00 620.00" xmlns="http://www.w3.org/2000/svg" xmlns:xlink="http://www.w3.org/1999/xlink">
<g id="graph0" class="graph" transform="scale(1 1) rotate(0) translate(4 616)">
<title>Sample</title>
<polygon fill="white" stroke="none" points="-4,4 -4,-616 396.46,-616 396.46,4 -4,4"/>
<!-- Mask -->
<g id="node1" class="node">
<title>Mask</title>
<polygon fill="limegreen" stroke="black" points="289.61,-468 238.03,-450 289.61,-432 341.2,-450 289.61,-468"/>
<text xml:space="preserve" text-anchor="middle" x="289.61" y="-445.32" font-family="Helvetica,sans-Serif" font-size="14.00">Mask</text>
</g>
<!-- Group -->
<g id="node2" class="node">
<title>Group</title>
<polygon fill="limegreen" stroke="black" points="286.61,-324 229.08,-306 286.61,-288 344.15,-306 286.61,-324"/>
<text xml:space="preserve" text-anchor="middle" x="286.61" y="-301.32" font-family="Helvetica,sans-Serif" font-size="14.00">Group</text>
</g>
<!-- Mask&#45;&gt;Group -->
<g id="edge8" class="edge">
<title>Mask&#45;&gt;Group</title>
<path fill="none" stroke="black" d="M297.39,-434.64C302.56,-424.25 308.89,-409.68 311.61,-396 314.74,-380.31 315.11,-375.61 311.61,-360 309.46,-350.37 305.34,-340.42 301.07,-331.79"/>
<polygon fill="black" stroke="black" points="304.19,-330.2 296.41,-323.01 298,-333.48 304.19,-330.2"/>
</g>
<!-- MaskDetectors -->
<g id="node8" class="node">
<title>MaskDetectors</title>
<path fill="lightskyblue" stroke="black" d="M290.99,-396C290.99,-396 196.24,-396 196.24,-396 190.24,-396 184.24,-390 184.24,-384 184.24,-384 184.24,-372 184.24,-372 184.24,-366 190.24,-360 196.24,-360 196.24,-360 290.99,-360 290.99,-360 296.99,-360 302.99,-366 302.99,-372 302.99,-372 302.99,-384 302.99,-384 302.99,-390 296.99,-396 290.99,-396"/>
<text xml:space="preserve" text-anchor="middle" x="243.61" y="-373.32" font-family="Helvetica,sans-Serif" font-size="14.00">MaskDetectors</text>
</g>
<!-- Mask&#45;&gt;MaskDetectors -->
<g id="edge6" class="edge">
<title>Mask&#45;&gt;MaskDetectors</title>
<path fill="none" stroke="black" d="M280.31,-434.83C274.83,-426.5 267.73,-415.7 261.24,-405.82"/>
<polygon fill="black" stroke="black" points="264.28,-404.07 255.86,-397.63 258.43,-407.91 264.28,-404.07"/>
</g>
<!-- Save -->
<g id="node3" class="node">
<title>Save</title>
<polygon fill="limegreen" stroke="black" points="286.61,-180 237.26,-162 286.61,-144 335.97,-162 286.61,-180"/>
<text xml:space="preserve" text-anchor="middle" x="286.61" y="-157.32" font-family="Helvetica,sans-Serif" font-size="14.00">Save</text>
</g>
<!-- Group&#45;&gt;Save -->
<g id="edge11" class="edge">
<title>Group&#45;&gt;Save</title>
<path fill="none" stroke="black" d="M295.79,-290.83C301.9,-280.52 309.37,-265.98 312.61,-252 316.23,-236.41 316.23,-231.59 312.61,-216 310.31,-206.06 305.86,-195.84 301.3,-187.06"/>
<polygon fill="black" stroke="black" points="304.45,-185.53 296.53,-178.5 298.34,-188.94 304.45,-185.53"/>
</g>
<!-- GroupDetectors -->
<g id="node10" class="node">
<title>GroupDetectors</title>
<path fill="lightskyblue" stroke="black" d="M291.99,-252C291.99,-252 191.24,-252 191.24,-252 185.24,-252 179.24,-246 179.24,-240 179.24,-240 179.24,-228 179.24,-228 179.24,-222 185.24,-216 191.24,-216 191.24,-216 291.99,-216 291.99,-216 297.99,-216 303.99,-222 303.99,-228 303.99,-228 303.99,-240 303.99,-240 303.99,-246 297.99,-252 291.99,-252"/>
<text xml:space="preserve" text-anchor="middle" x="241.61" y="-229.32" font-family="Helvetica,sans-Serif" font-size="14.00">GroupDetectors</text>
</g>
<!-- Group&#45;&gt;GroupDetectors -->
<g id="edge9" class="edge">
<title>Group&#45;&gt;GroupDetectors</title>
<path fill="none" stroke="black" d="M277.29,-290.5C272.02,-282.29 265.25,-271.77 259.03,-262.1"/>
<polygon fill="black" stroke="black" points="262.01,-260.25 253.66,-253.73 256.12,-264.04 262.01,-260.25"/>
</g>
<!-- OutputWorkspace -->
<g id="node6" class="node">
<title>OutputWorkspace</title>
<polygon fill="grey" stroke="black" points="392.46,-36 224.08,-36 180.77,0 349.14,0 392.46,-36"/>
<text xml:space="preserve" text-anchor="middle" x="286.61" y="-11.82" font-family="Times,serif" font-size="14.00">OutputWorkspace</text>
</g>
<!-- Save&#45;&gt;OutputWorkspace -->
<g id="edge14" class="edge">
<title>Save&#45;&gt;OutputWorkspace</title>
<path fill="none" stroke="black" d="M293.69,-146.56C298.39,-136.13 304.14,-121.55 306.61,-108 309.49,-92.26 309.49,-87.74 306.61,-72 305.08,-63.58 302.28,-54.77 299.25,-46.79"/>
<polygon fill="black" stroke="black" points="302.52,-45.54 295.49,-37.61 296.04,-48.19 302.52,-45.54"/>
</g>
<!-- SaveOutput -->
<g id="node9" class="node">
<title>SaveOutput</title>
<path fill="lightskyblue" stroke="black" d="M285.86,-108C285.86,-108 211.36,-108 211.36,-108 205.36,-108 199.36,-102 199.36,-96 199.36,-96 199.36,-84 199.36,-84 199.36,-78 205.36,-72 211.36,-72 211.36,-72 285.86,-72 285.86,-72 291.86,-72 297.86,-78 297.86,-84 297.86,-84 297.86,-96 297.86,-96 297.86,-102 291.86,-108 285.86,-108"/>
<text xml:space="preserve" text-anchor="middle" x="248.61" y="-85.33" font-family="Helvetica,sans-Serif" font-size="14.00">SaveOutput</text>
</g>
<!-- Save&#45;&gt;SaveOutput -->
<g id="edge12" class="edge">
<title>Save&#45;&gt;SaveOutput</title>
<path fill="none" stroke="black" d="M278.74,-146.5C274.33,-138.38 268.7,-127.99 263.49,-118.4"/>
<polygon fill="black" stroke="black" points="266.66,-116.91 258.81,-109.79 260.51,-120.25 266.66,-116.91"/>
</g>
<!-- Runs -->
<g id="node4" class="node">
<title>Runs</title>
<ellipse fill="khaki" stroke="black" cx="289.61" cy="-594" rx="35.42" ry="18"/>
<text xml:space="preserve" text-anchor="middle" x="289.61" y="-589.33" font-family="Helvetica,sans-Serif" font-size="14.00">Runs</text>
</g>
<!-- DirectILLCollectData -->
<g id="node7" class="node">
<title>DirectILLCollectData</title>
<path fill="lightskyblue" stroke="black" d="M354.99,-540C354.99,-540 224.24,-540 224.24,-540 218.24,-540 212.24,-534 212.24,-528 212.24,-528 212.24,-516 212.24,-516 212.24,-510 218.24,-504 224.24,-504 224.24,-504 354.99,-504 354.99,-504 360.99,-504 366.99,-510 366.99,-516 366.99,-516 366.99,-528 366.99,-528 366.99,-534 360.99,-540 354.99,-540"/>
<text xml:space="preserve" text-anchor="middle" x="289.61" y="-517.33" font-family="Helvetica,sans-Serif" font-size="14.00">DirectILLCollectData</text>
</g>
<!-- Runs&#45;&gt;DirectILLCollectData -->
<g id="edge1" class="edge">
<title>Runs&#45;&gt;DirectILLCollectData</title>
<path fill="none" stroke="black" d="M289.61,-575.7C289.61,-568.41 289.61,-559.73 289.61,-551.54"/>
<polygon fill="black" stroke="black" points="293.11,-551.62 289.61,-541.62 286.11,-551.62 293.11,-551.62"/>
</g>
<!-- MaskWorkspace -->
<g id="node5" class="node">
<title>MaskWorkspace</title>
<ellipse fill="khaki" stroke="black" cx="89.61" cy="-450" rx="89.61" ry="18"/>
<text xml:space="preserve" text-anchor="middle" x="89.61" y="-445.32" font-family="Helvetica,sans-Serif" font-size="14.00">MaskWorkspace</text>
</g>
<!-- MaskWorkspace&#45;&gt;MaskDetectors -->
<g id="edge5" class="edge">
<title>MaskWorkspace&#45;&gt;MaskDetectors</title>
<path fill="none" stroke="black" d="M124.56,-433.12C145.41,-423.64 172.21,-411.46 195.09,-401.06"/>
<polygon fill="black" stroke="black" points="196.26,-404.37 203.92,-397.04 193.37,-397.99 196.26,-404.37"/>
</g>
<!-- MaskCreation -->
<g id="node11" class="node">
<title>MaskCreation</title>
<ellipse fill="lightgrey" stroke="black" cx="89.61" cy="-378" rx="76.99" ry="18"/>
<text xml:space="preserve" text-anchor="middle" x="89.61" y="-373.32" font-family="Helvetica,sans-Serif" font-size="14.00">MaskCreation</text>
</g>
<!-- MaskWorkspace&#45;&gt;MaskCreation -->
<g id="edge3" class="edge">
<title>MaskWorkspace&#45;&gt;MaskCreation</title>
<path fill="none" stroke="black" d="M83.7,-431.7C82.95,-424.41 82.7,-415.73 82.97,-407.54"/>
<polygon fill="black" stroke="black" points="86.46,-407.82 83.62,-397.61 79.47,-407.36 86.46,-407.82"/>
</g>
<!-- DirectILLCollectData&#45;&gt;Mask -->
<g id="edge2" class="edge">
<title>DirectILLCollectData&#45;&gt;Mask</title>
<path fill="none" stroke="black" d="M289.61,-503.7C289.61,-496.41 289.61,-487.73 289.61,-479.54"/>
<polygon fill="black" stroke="black" points="293.11,-479.62 289.61,-469.62 286.11,-479.62 293.11,-479.62"/>
</g>
<!-- MaskDetectors&#45;&gt;Group -->
<g id="edge7" class="edge">
<title>MaskDetectors&#45;&gt;Group</title>
<path fill="none" stroke="black" d="M254.24,-359.7C259.58,-351.01 266.12,-340.36 271.93,-330.91"/>
<polygon fill="black" stroke="black" points="274.8,-332.92 277.05,-322.57 268.83,-329.26 274.8,-332.92"/>
</g>
<!-- SaveOutput&#45;&gt;OutputWorkspace -->
<g id="edge13" class="edge">
<title>SaveOutput&#45;&gt;OutputWorkspace</title>
<path fill="none" stroke="black" d="M258.01,-71.7C262.19,-63.98 267.23,-54.71 271.9,-46.11"/>
<polygon fill="black" stroke="black" points="274.91,-47.89 276.61,-37.43 268.76,-44.55 274.91,-47.89"/>
</g>
<!-- GroupDetectors&#45;&gt;Save -->
<g id="edge10" class="edge">
<title>GroupDetectors&#45;&gt;Save</title>
<path fill="none" stroke="black" d="M252.74,-215.7C258.46,-206.8 265.5,-195.84 271.69,-186.22"/>
<polygon fill="black" stroke="black" points="274.44,-188.4 276.91,-178.1 268.56,-184.62 274.44,-188.4"/>
</g>
<!-- MaskCreation&#45;&gt;MaskWorkspace -->
<g id="edge4" class="edge">
<title>MaskCreation&#45;&gt;MaskWorkspace</title>
<path fill="none" stroke="black" d="M95.51,-396.1C96.27,-403.37 96.52,-412.04 96.27,-420.24"/>
<polygon fill="black" stroke="black" points="92.78,-419.98 95.63,-430.19 99.76,-420.43 92.78,-419.98"/>
</g>
</g>
</svg>
