<?xml version="1.0" encoding="UTF-8" standalone="no"?>
<!DOCTYPE svg PUBLIC "-//W3C//DTD SVG 1.1//EN"
 "http://www.w3.org/Graphics/SVG/1.1/DTD/svg11.dtd">
<!-- Generated by graphviz version 7.1.0 (20230122.1345)
 -->
<!-- Title: Sample Pages: 1 -->
<svg width="661pt" height="980pt"
 viewBox="0.00 0.00 661.47 980.00" xmlns="http://www.w3.org/2000/svg" xmlns:xlink="http://www.w3.org/1999/xlink">
<g id="graph0" class="graph" transform="scale(1 1) rotate(0) translate(4 976)">
<title>Sample</title>
<polygon fill="white" stroke="none" points="-4,4 -4,-976 657.47,-976 657.47,4 -4,4"/>
<!-- Mask -->
<g id="node1" class="node">
<title>Mask</title>
<polygon fill="limegreen" stroke="black" points="549.24,-828 500.31,-810 549.24,-792 598.17,-810 549.24,-828"/>
<text text-anchor="middle" x="549.24" y="-806.3" font-family="Helvetica,sans-Serif" font-size="14.00">Mask</text>
</g>
<!-- MaskDetectors -->
<g id="node10" class="node">
<title>MaskDetectors</title>
<path fill="lightskyblue" stroke="black" d="M552.74,-756C552.74,-756 457.74,-756 457.74,-756 451.74,-756 445.74,-750 445.74,-744 445.74,-744 445.74,-732 445.74,-732 445.74,-726 451.74,-720 457.74,-720 457.74,-720 552.74,-720 552.74,-720 558.74,-720 564.74,-726 564.74,-732 564.74,-732 564.74,-744 564.74,-744 564.74,-750 558.74,-756 552.74,-756"/>
<text text-anchor="middle" x="505.24" y="-734.3" font-family="Helvetica,sans-Serif" font-size="14.00">MaskDetectors</text>
</g>
<!-- Mask&#45;&gt;MaskDetectors -->
<g id="edge6" class="edge">
<title>Mask&#45;&gt;MaskDetectors</title>
<path fill="none" stroke="black" d="M540.33,-794.83C535.1,-786.5 528.31,-775.7 522.09,-765.82"/>
<polygon fill="black" stroke="black" points="525.25,-764.25 516.96,-757.65 519.32,-767.98 525.25,-764.25"/>
</g>
<!-- Minus -->
<g id="node15" class="node">
<title>Minus</title>
<path fill="lightskyblue" stroke="black" d="M522.24,-684C522.24,-684 488.24,-684 488.24,-684 482.24,-684 476.24,-678 476.24,-672 476.24,-672 476.24,-660 476.24,-660 476.24,-654 482.24,-648 488.24,-648 488.24,-648 522.24,-648 522.24,-648 528.24,-648 534.24,-654 534.24,-660 534.24,-660 534.24,-672 534.24,-672 534.24,-678 528.24,-684 522.24,-684"/>
<text text-anchor="middle" x="505.24" y="-662.3" font-family="Helvetica,sans-Serif" font-size="14.00">Minus</text>
</g>
<!-- Mask&#45;&gt;Minus -->
<g id="edge8" class="edge">
<title>Mask&#45;&gt;Minus</title>
<path fill="none" stroke="black" d="M558.81,-795.16C569.98,-777.14 585.46,-745.02 573.24,-720 566.86,-706.95 555.55,-696.17 543.95,-687.83"/>
<polygon fill="black" stroke="black" points="546.21,-685.12 535.95,-682.5 542.33,-690.95 546.21,-685.12"/>
</g>
<!-- SelfAttenuation -->
<g id="node2" class="node">
<title>SelfAttenuation</title>
<polygon fill="limegreen" stroke="black" points="505.24,-612 392.13,-594 505.24,-576 618.35,-594 505.24,-612"/>
<text text-anchor="middle" x="505.24" y="-590.3" font-family="Helvetica,sans-Serif" font-size="14.00">SelfAttenuation</text>
</g>
<!-- PaalmanPingsMonteCarloAbsorption -->
<g id="node11" class="node">
<title>PaalmanPingsMonteCarloAbsorption</title>
<path fill="lightskyblue" stroke="black" d="M626.74,-540C626.74,-540 383.74,-540 383.74,-540 377.74,-540 371.74,-534 371.74,-528 371.74,-528 371.74,-516 371.74,-516 371.74,-510 377.74,-504 383.74,-504 383.74,-504 626.74,-504 626.74,-504 632.74,-504 638.74,-510 638.74,-516 638.74,-516 638.74,-528 638.74,-528 638.74,-534 632.74,-540 626.74,-540"/>
<text text-anchor="middle" x="505.24" y="-518.3" font-family="Helvetica,sans-Serif" font-size="14.00">PaalmanPingsMonteCarloAbsorption</text>
</g>
<!-- SelfAttenuation&#45;&gt;PaalmanPingsMonteCarloAbsorption -->
<g id="edge12" class="edge">
<title>SelfAttenuation&#45;&gt;PaalmanPingsMonteCarloAbsorption</title>
<path fill="none" stroke="black" d="M505.24,-575.7C505.24,-568.41 505.24,-559.73 505.24,-551.54"/>
<polygon fill="black" stroke="black" points="508.74,-551.62 505.24,-541.62 501.74,-551.62 508.74,-551.62"/>
</g>
<!-- PaalmanPingsAbsorptionCorrection -->
<g id="node12" class="node">
<title>PaalmanPingsAbsorptionCorrection</title>
<path fill="lightskyblue" stroke="black" d="M341.74,-540C341.74,-540 106.74,-540 106.74,-540 100.74,-540 94.74,-534 94.74,-528 94.74,-528 94.74,-516 94.74,-516 94.74,-510 100.74,-504 106.74,-504 106.74,-504 341.74,-504 341.74,-504 347.74,-504 353.74,-510 353.74,-516 353.74,-516 353.74,-528 353.74,-528 353.74,-534 347.74,-540 341.74,-540"/>
<text text-anchor="middle" x="224.24" y="-518.3" font-family="Helvetica,sans-Serif" font-size="14.00">PaalmanPingsAbsorptionCorrection</text>
</g>
<!-- SelfAttenuation&#45;&gt;PaalmanPingsAbsorptionCorrection -->
<g id="edge11" class="edge">
<title>SelfAttenuation&#45;&gt;PaalmanPingsAbsorptionCorrection</title>
<path fill="none" stroke="black" d="M462.56,-582.37C421.01,-572.02 356.79,-556.02 305.49,-543.24"/>
<polygon fill="black" stroke="black" points="306.43,-539.87 295.88,-540.85 304.74,-546.66 306.43,-539.87"/>
</g>
<!-- DirectILLReduction -->
<g id="node14" class="node">
<title>DirectILLReduction</title>
<path fill="lightskyblue" stroke="black" d="M566.24,-396C566.24,-396 444.24,-396 444.24,-396 438.24,-396 432.24,-390 432.24,-384 432.24,-384 432.24,-372 432.24,-372 432.24,-366 438.24,-360 444.24,-360 444.24,-360 566.24,-360 566.24,-360 572.24,-360 578.24,-366 578.24,-372 578.24,-372 578.24,-384 578.24,-384 578.24,-390 572.24,-396 566.24,-396"/>
<text text-anchor="middle" x="505.24" y="-374.3" font-family="Helvetica,sans-Serif" font-size="14.00">DirectILLReduction</text>
</g>
<!-- SelfAttenuation&#45;&gt;DirectILLReduction -->
<g id="edge16" class="edge">
<title>SelfAttenuation&#45;&gt;DirectILLReduction</title>
<path fill="none" stroke="black" d="M569.54,-585.76C598.62,-578.91 630.39,-565.64 648.24,-540 666.4,-513.9 630.21,-436.47 626.24,-432 614.37,-418.66 598.53,-408.54 582.23,-400.9"/>
<polygon fill="black" stroke="black" points="584.01,-397.86 573.45,-397.07 581.21,-404.28 584.01,-397.86"/>
</g>
<!-- Group -->
<g id="node3" class="node">
<title>Group</title>
<polygon fill="limegreen" stroke="black" points="505.24,-324 450.78,-306 505.24,-288 559.7,-306 505.24,-324"/>
<text text-anchor="middle" x="505.24" y="-302.3" font-family="Helvetica,sans-Serif" font-size="14.00">Group</text>
</g>
<!-- Save -->
<g id="node4" class="node">
<title>Save</title>
<polygon fill="limegreen" stroke="black" points="505.24,-180 459.32,-162 505.24,-144 551.15,-162 505.24,-180"/>
<text text-anchor="middle" x="505.24" y="-158.3" font-family="Helvetica,sans-Serif" font-size="14.00">Save</text>
</g>
<!-- Group&#45;&gt;Save -->
<g id="edge21" class="edge">
<title>Group&#45;&gt;Save</title>
<path fill="none" stroke="black" d="M514.42,-290.83C520.52,-280.52 527.99,-265.98 531.24,-252 534.86,-236.41 534.86,-231.59 531.24,-216 528.9,-205.92 524.36,-195.55 519.72,-186.68"/>
<polygon fill="black" stroke="black" points="522.83,-185.07 514.9,-178.06 516.73,-188.49 522.83,-185.07"/>
</g>
<!-- GroupDetectors -->
<g id="node18" class="node">
<title>GroupDetectors</title>
<path fill="lightskyblue" stroke="black" d="M510.74,-252C510.74,-252 409.74,-252 409.74,-252 403.74,-252 397.74,-246 397.74,-240 397.74,-240 397.74,-228 397.74,-228 397.74,-222 403.74,-216 409.74,-216 409.74,-216 510.74,-216 510.74,-216 516.74,-216 522.74,-222 522.74,-228 522.74,-228 522.74,-240 522.74,-240 522.74,-246 516.74,-252 510.74,-252"/>
<text text-anchor="middle" x="460.24" y="-230.3" font-family="Helvetica,sans-Serif" font-size="14.00">GroupDetectors</text>
</g>
<!-- Group&#45;&gt;GroupDetectors -->
<g id="edge19" class="edge">
<title>Group&#45;&gt;GroupDetectors</title>
<path fill="none" stroke="black" d="M496.13,-290.83C490.78,-282.5 483.83,-271.7 477.48,-261.82"/>
<polygon fill="black" stroke="black" points="480.57,-260.16 472.22,-253.64 474.69,-263.95 480.57,-260.16"/>
</g>
<!-- OutputWorkspace -->
<g id="node8" class="node">
<title>OutputWorkspace</title>
<polygon fill="grey" stroke="black" points="614.01,-36 440.98,-36 396.47,0 569.5,0 614.01,-36"/>
<text text-anchor="middle" x="505.24" y="-14.3" font-family="Times,serif" font-size="14.00">OutputWorkspace</text>
</g>
<!-- Save&#45;&gt;OutputWorkspace -->
<g id="edge24" class="edge">
<title>Save&#45;&gt;OutputWorkspace</title>
<path fill="none" stroke="black" d="M511.96,-146.52C516.43,-136.07 521.89,-121.48 524.24,-108 526.98,-92.24 526.98,-87.76 524.24,-72 522.78,-63.62 520.12,-54.82 517.24,-46.84"/>
<polygon fill="black" stroke="black" points="520.56,-45.72 513.68,-37.67 514.04,-48.25 520.56,-45.72"/>
</g>
<!-- SaveOutput -->
<g id="node17" class="node">
<title>SaveOutput</title>
<path fill="lightskyblue" stroke="black" d="M503.74,-108C503.74,-108 428.74,-108 428.74,-108 422.74,-108 416.74,-102 416.74,-96 416.74,-96 416.74,-84 416.74,-84 416.74,-78 422.74,-72 428.74,-72 428.74,-72 503.74,-72 503.74,-72 509.74,-72 515.74,-78 515.74,-84 515.74,-84 515.74,-96 515.74,-96 515.74,-102 509.74,-108 503.74,-108"/>
<text text-anchor="middle" x="466.24" y="-86.3" font-family="Helvetica,sans-Serif" font-size="14.00">SaveOutput</text>
</g>
<!-- Save&#45;&gt;SaveOutput -->
<g id="edge22" class="edge">
<title>Save&#45;&gt;SaveOutput</title>
<path fill="none" stroke="black" d="M497.35,-146.83C492.75,-138.59 486.81,-127.93 481.35,-118.13"/>
<polygon fill="black" stroke="black" points="484.58,-116.72 476.65,-109.69 478.46,-120.13 484.58,-116.72"/>
</g>
<!-- Runs -->
<g id="node5" class="node">
<title>Runs</title>
<ellipse fill="khaki" stroke="black" cx="549.24" cy="-954" rx="33.29" ry="18"/>
<text text-anchor="middle" x="549.24" y="-950.3" font-family="Helvetica,sans-Serif" font-size="14.00">Runs</text>
</g>
<!-- DirectILLCollectData -->
<g id="node9" class="node">
<title>DirectILLCollectData</title>
<path fill="lightskyblue" stroke="black" d="M614.74,-900C614.74,-900 483.74,-900 483.74,-900 477.74,-900 471.74,-894 471.74,-888 471.74,-888 471.74,-876 471.74,-876 471.74,-870 477.74,-864 483.74,-864 483.74,-864 614.74,-864 614.74,-864 620.74,-864 626.74,-870 626.74,-876 626.74,-876 626.74,-888 626.74,-888 626.74,-894 620.74,-900 614.74,-900"/>
<text text-anchor="middle" x="549.24" y="-878.3" font-family="Helvetica,sans-Serif" font-size="14.00">DirectILLCollectData</text>
</g>
<!-- Runs&#45;&gt;DirectILLCollectData -->
<g id="edge1" class="edge">
<title>Runs&#45;&gt;DirectILLCollectData</title>
<path fill="none" stroke="black" d="M549.24,-935.7C549.24,-928.41 549.24,-919.73 549.24,-911.54"/>
<polygon fill="black" stroke="black" points="552.74,-911.62 549.24,-901.62 545.74,-911.62 552.74,-911.62"/>
</g>
<!-- EmptyContainerWorkspace -->
<g id="node6" class="node">
<title>EmptyContainerWorkspace</title>
<ellipse fill="khaki" stroke="black" cx="133.24" cy="-738" rx="133.48" ry="18"/>
<text text-anchor="middle" x="133.24" y="-734.3" font-family="Helvetica,sans-Serif" font-size="14.00">EmptyContainerWorkspace</text>
</g>
<!-- EmptyContainerWorkspace&#45;&gt;Minus -->
<g id="edge9" class="edge">
<title>EmptyContainerWorkspace&#45;&gt;Minus</title>
<path fill="none" stroke="black" d="M208.97,-722.75C286.4,-708.18 403.74,-686.1 464.92,-674.59"/>
<polygon fill="black" stroke="black" points="465.36,-678.07 474.54,-672.78 464.06,-671.19 465.36,-678.07"/>
</g>
<!-- VanadiumWorkspace -->
<g id="node7" class="node">
<title>VanadiumWorkspace</title>
<ellipse fill="khaki" stroke="black" cx="271.24" cy="-450" rx="104.78" ry="18"/>
<text text-anchor="middle" x="271.24" y="-446.3" font-family="Helvetica,sans-Serif" font-size="14.00">VanadiumWorkspace</text>
</g>
<!-- VanadiumWorkspace&#45;&gt;DirectILLReduction -->
<g id="edge17" class="edge">
<title>VanadiumWorkspace&#45;&gt;DirectILLReduction</title>
<path fill="none" stroke="black" d="M322.01,-433.81C355.53,-423.78 399.87,-410.52 436.53,-399.55"/>
<polygon fill="black" stroke="black" points="437.12,-403.03 445.7,-396.81 435.11,-396.32 437.12,-403.03"/>
</g>
<!-- DirectILLCollectData&#45;&gt;Mask -->
<g id="edge2" class="edge">
<title>DirectILLCollectData&#45;&gt;Mask</title>
<path fill="none" stroke="black" d="M549.24,-863.7C549.24,-856.41 549.24,-847.73 549.24,-839.54"/>
<polygon fill="black" stroke="black" points="552.74,-839.62 549.24,-829.62 545.74,-839.62 552.74,-839.62"/>
</g>
<!-- MaskDetectors&#45;&gt;Minus -->
<g id="edge7" class="edge">
<title>MaskDetectors&#45;&gt;Minus</title>
<path fill="none" stroke="black" d="M505.24,-719.7C505.24,-712.41 505.24,-703.73 505.24,-695.54"/>
<polygon fill="black" stroke="black" points="508.74,-695.62 505.24,-685.62 501.74,-695.62 508.74,-695.62"/>
</g>
<!-- ApplyPaalmanPingsCorrection -->
<g id="node13" class="node">
<title>ApplyPaalmanPingsCorrection</title>
<path fill="lightskyblue" stroke="black" d="M604.74,-468C604.74,-468 405.74,-468 405.74,-468 399.74,-468 393.74,-462 393.74,-456 393.74,-456 393.74,-444 393.74,-444 393.74,-438 399.74,-432 405.74,-432 405.74,-432 604.74,-432 604.74,-432 610.74,-432 616.74,-438 616.74,-444 616.74,-444 616.74,-456 616.74,-456 616.74,-462 610.74,-468 604.74,-468"/>
<text text-anchor="middle" x="505.24" y="-446.3" font-family="Helvetica,sans-Serif" font-size="14.00">ApplyPaalmanPingsCorrection</text>
</g>
<!-- PaalmanPingsMonteCarloAbsorption&#45;&gt;ApplyPaalmanPingsCorrection -->
<g id="edge14" class="edge">
<title>PaalmanPingsMonteCarloAbsorption&#45;&gt;ApplyPaalmanPingsCorrection</title>
<path fill="none" stroke="black" d="M505.24,-503.7C505.24,-496.41 505.24,-487.73 505.24,-479.54"/>
<polygon fill="black" stroke="black" points="508.74,-479.62 505.24,-469.62 501.74,-479.62 508.74,-479.62"/>
</g>
<!-- PaalmanPingsAbsorptionCorrection&#45;&gt;ApplyPaalmanPingsCorrection -->
<g id="edge13" class="edge">
<title>PaalmanPingsAbsorptionCorrection&#45;&gt;ApplyPaalmanPingsCorrection</title>
<path fill="none" stroke="black" d="M294.42,-503.52C333.88,-493.69 383.31,-481.37 424.39,-471.14"/>
<polygon fill="black" stroke="black" points="425.14,-474.56 433.99,-468.75 423.44,-467.77 425.14,-474.56"/>
</g>
<!-- ApplyPaalmanPingsCorrection&#45;&gt;DirectILLReduction -->
<g id="edge15" class="edge">
<title>ApplyPaalmanPingsCorrection&#45;&gt;DirectILLReduction</title>
<path fill="none" stroke="black" d="M505.24,-431.7C505.24,-424.41 505.24,-415.73 505.24,-407.54"/>
<polygon fill="black" stroke="black" points="508.74,-407.62 505.24,-397.62 501.74,-407.62 508.74,-407.62"/>
</g>
<!-- DirectILLReduction&#45;&gt;Group -->
<g id="edge18" class="edge">
<title>DirectILLReduction&#45;&gt;Group</title>
<path fill="none" stroke="black" d="M505.24,-359.7C505.24,-352.41 505.24,-343.73 505.24,-335.54"/>
<polygon fill="black" stroke="black" points="508.74,-335.62 505.24,-325.62 501.74,-335.62 508.74,-335.62"/>
</g>
<!-- Minus&#45;&gt;SelfAttenuation -->
<g id="edge10" class="edge">
<title>Minus&#45;&gt;SelfAttenuation</title>
<path fill="none" stroke="black" d="M505.24,-647.7C505.24,-640.41 505.24,-631.73 505.24,-623.54"/>
<polygon fill="black" stroke="black" points="508.74,-623.62 505.24,-613.62 501.74,-623.62 508.74,-623.62"/>
</g>
<!-- MaskWorkspace -->
<g id="node16" class="node">
<title>MaskWorkspace</title>
<path fill="lightskyblue" stroke="black" d="M408.24,-828C408.24,-828 304.24,-828 304.24,-828 298.24,-828 292.24,-822 292.24,-816 292.24,-816 292.24,-804 292.24,-804 292.24,-798 298.24,-792 304.24,-792 304.24,-792 408.24,-792 408.24,-792 414.24,-792 420.24,-798 420.24,-804 420.24,-804 420.24,-816 420.24,-816 420.24,-822 414.24,-828 408.24,-828"/>
<text text-anchor="middle" x="356.24" y="-806.3" font-family="Helvetica,sans-Serif" font-size="14.00">MaskWorkspace</text>
</g>
<!-- MaskWorkspace&#45;&gt;MaskDetectors -->
<g id="edge5" class="edge">
<title>MaskWorkspace&#45;&gt;MaskDetectors</title>
<path fill="none" stroke="black" d="M393.45,-791.52C412.99,-782.34 437.15,-770.99 457.99,-761.2"/>
<polygon fill="black" stroke="black" points="459.31,-764.45 466.87,-757.03 456.33,-758.11 459.31,-764.45"/>
</g>
<!-- MaskCreation -->
<g id="node19" class="node">
<title>MaskCreation</title>
<ellipse fill="lightgrey" stroke="black" cx="356.24" cy="-738" rx="71.49" ry="18"/>
<text text-anchor="middle" x="356.24" y="-734.3" font-family="Helvetica,sans-Serif" font-size="14.00">MaskCreation</text>
</g>
<!-- MaskWorkspace&#45;&gt;MaskCreation -->
<g id="edge3" class="edge">
<title>MaskWorkspace&#45;&gt;MaskCreation</title>
<path fill="none" stroke="black" d="M350.32,-791.7C349.57,-784.41 349.33,-775.73 349.59,-767.54"/>
<polygon fill="black" stroke="black" points="353.08,-767.82 350.24,-757.61 346.1,-767.36 353.08,-767.82"/>
</g>
<!-- SaveOutput&#45;&gt;OutputWorkspace -->
<g id="edge23" class="edge">
<title>SaveOutput&#45;&gt;OutputWorkspace</title>
<path fill="none" stroke="black" d="M475.88,-71.7C480.18,-63.98 485.34,-54.71 490.13,-46.11"/>
<polygon fill="black" stroke="black" points="493.16,-47.87 494.97,-37.43 487.05,-44.46 493.16,-47.87"/>
</g>
<!-- GroupDetectors&#45;&gt;Save -->
<g id="edge20" class="edge">
<title>GroupDetectors&#45;&gt;Save</title>
<path fill="none" stroke="black" d="M471.36,-215.7C477.08,-206.8 484.13,-195.84 490.31,-186.22"/>
<polygon fill="black" stroke="black" points="493.07,-188.4 495.53,-178.1 487.18,-184.62 493.07,-188.4"/>
</g>
<!-- MaskCreation&#45;&gt;MaskWorkspace -->
<g id="edge4" class="edge">
<title>MaskCreation&#45;&gt;MaskWorkspace</title>
<path fill="none" stroke="black" d="M362.13,-756.1C362.89,-763.37 363.15,-772.04 362.89,-780.24"/>
<polygon fill="black" stroke="black" points="359.4,-779.98 362.25,-790.19 366.39,-780.43 359.4,-779.98"/>
</g>
</g>
</svg>
