<?xml version="1.0" encoding="UTF-8" standalone="no"?>
<!DOCTYPE svg PUBLIC "-//W3C//DTD SVG 1.1//EN"
 "http://www.w3.org/Graphics/SVG/1.1/DTD/svg11.dtd">
<!-- Generated by graphviz version 12.0.0 (20240803.0821)
 -->
<!-- Title: Sample Pages: 1 -->
<svg width="690pt" height="1340pt"
 viewBox="0.00 0.00 690.49 1340.00" xmlns="http://www.w3.org/2000/svg" xmlns:xlink="http://www.w3.org/1999/xlink">
<g id="graph0" class="graph" transform="scale(1 1) rotate(0) translate(4 1336)">
<title>Sample</title>
<polygon fill="white" stroke="none" points="-4,4 -4,-1336 686.49,-1336 686.49,4 -4,4"/>
<!-- Mask -->
<g id="node1" class="node">
<title>Mask</title>
<polygon fill="limegreen" stroke="black" points="578.28,-1188 526.69,-1170 578.28,-1152 629.86,-1170 578.28,-1188"/>
<text text-anchor="middle" x="578.28" y="-1165.33" font-family="Helvetica,sans-Serif" font-size="14.00">Mask</text>
</g>
<!-- MaskDetectors -->
<g id="node11" class="node">
<title>MaskDetectors</title>
<path fill="lightskyblue" stroke="black" d="M582.65,-1116C582.65,-1116 487.9,-1116 487.9,-1116 481.9,-1116 475.9,-1110 475.9,-1104 475.9,-1104 475.9,-1092 475.9,-1092 475.9,-1086 481.9,-1080 487.9,-1080 487.9,-1080 582.65,-1080 582.65,-1080 588.65,-1080 594.65,-1086 594.65,-1092 594.65,-1092 594.65,-1104 594.65,-1104 594.65,-1110 588.65,-1116 582.65,-1116"/>
<text text-anchor="middle" x="535.28" y="-1093.33" font-family="Helvetica,sans-Serif" font-size="14.00">MaskDetectors</text>
</g>
<!-- Mask&#45;&gt;MaskDetectors -->
<g id="edge6" class="edge">
<title>Mask&#45;&gt;MaskDetectors</title>
<path fill="none" stroke="black" d="M569.58,-1154.83C564.51,-1146.59 557.96,-1135.93 551.94,-1126.13"/>
<polygon fill="black" stroke="black" points="554.95,-1124.35 546.74,-1117.66 548.99,-1128.01 554.95,-1124.35"/>
</g>
<!-- Minus -->
<g id="node15" class="node">
<title>Minus</title>
<path fill="lightskyblue" stroke="black" d="M551.9,-1044C551.9,-1044 518.65,-1044 518.65,-1044 512.65,-1044 506.65,-1038 506.65,-1032 506.65,-1032 506.65,-1020 506.65,-1020 506.65,-1014 512.65,-1008 518.65,-1008 518.65,-1008 551.9,-1008 551.9,-1008 557.9,-1008 563.9,-1014 563.9,-1020 563.9,-1020 563.9,-1032 563.9,-1032 563.9,-1038 557.9,-1044 551.9,-1044"/>
<text text-anchor="middle" x="535.28" y="-1021.33" font-family="Helvetica,sans-Serif" font-size="14.00">Minus</text>
</g>
<!-- Mask&#45;&gt;Minus -->
<g id="edge8" class="edge">
<title>Mask&#45;&gt;Minus</title>
<path fill="none" stroke="black" d="M588.1,-1155.18C599.58,-1137.19 615.53,-1105.09 603.28,-1080 596.85,-1066.84 585.4,-1056 573.71,-1047.62"/>
<polygon fill="black" stroke="black" points="575.91,-1044.88 565.64,-1042.28 572.04,-1050.72 575.91,-1044.88"/>
</g>
<!-- SelfAttenuation -->
<g id="node2" class="node">
<title>SelfAttenuation</title>
<polygon fill="limegreen" stroke="black" points="535.28,-972 413.75,-954 535.28,-936 656.8,-954 535.28,-972"/>
<text text-anchor="middle" x="535.28" y="-949.33" font-family="Helvetica,sans-Serif" font-size="14.00">SelfAttenuation</text>
</g>
<!-- PaalmanPingsMonteCarloAbsorption -->
<g id="node12" class="node">
<title>PaalmanPingsMonteCarloAbsorption</title>
<path fill="lightskyblue" stroke="black" d="M656.53,-900C656.53,-900 414.03,-900 414.03,-900 408.03,-900 402.03,-894 402.03,-888 402.03,-888 402.03,-876 402.03,-876 402.03,-870 408.03,-864 414.03,-864 414.03,-864 656.53,-864 656.53,-864 662.53,-864 668.53,-870 668.53,-876 668.53,-876 668.53,-888 668.53,-888 668.53,-894 662.53,-900 656.53,-900"/>
<text text-anchor="middle" x="535.28" y="-877.33" font-family="Helvetica,sans-Serif" font-size="14.00">PaalmanPingsMonteCarloAbsorption</text>
</g>
<!-- SelfAttenuation&#45;&gt;PaalmanPingsMonteCarloAbsorption -->
<g id="edge12" class="edge">
<title>SelfAttenuation&#45;&gt;PaalmanPingsMonteCarloAbsorption</title>
<path fill="none" stroke="black" d="M535.28,-935.7C535.28,-928.41 535.28,-919.73 535.28,-911.54"/>
<polygon fill="black" stroke="black" points="538.78,-911.62 535.28,-901.62 531.78,-911.62 538.78,-911.62"/>
</g>
<!-- PaalmanPingsAbsorptionCorrection -->
<g id="node13" class="node">
<title>PaalmanPingsAbsorptionCorrection</title>
<path fill="lightskyblue" stroke="black" d="M372.4,-900C372.4,-900 138.15,-900 138.15,-900 132.15,-900 126.15,-894 126.15,-888 126.15,-888 126.15,-876 126.15,-876 126.15,-870 132.15,-864 138.15,-864 138.15,-864 372.4,-864 372.4,-864 378.4,-864 384.4,-870 384.4,-876 384.4,-876 384.4,-888 384.4,-888 384.4,-894 378.4,-900 372.4,-900"/>
<text text-anchor="middle" x="255.28" y="-877.33" font-family="Helvetica,sans-Serif" font-size="14.00">PaalmanPingsAbsorptionCorrection</text>
</g>
<!-- SelfAttenuation&#45;&gt;PaalmanPingsAbsorptionCorrection -->
<g id="edge11" class="edge">
<title>SelfAttenuation&#45;&gt;PaalmanPingsAbsorptionCorrection</title>
<path fill="none" stroke="black" d="M491.53,-942.06C450.04,-931.69 386.71,-915.86 336.05,-903.19"/>
<polygon fill="black" stroke="black" points="337.14,-899.86 326.59,-900.83 335.44,-906.65 337.14,-899.86"/>
</g>
<!-- Divide -->
<g id="node17" class="node">
<title>Divide</title>
<path fill="lightskyblue" stroke="black" d="M553.03,-756C553.03,-756 517.53,-756 517.53,-756 511.53,-756 505.53,-750 505.53,-744 505.53,-744 505.53,-732 505.53,-732 505.53,-726 511.53,-720 517.53,-720 517.53,-720 553.03,-720 553.03,-720 559.03,-720 565.03,-726 565.03,-732 565.03,-732 565.03,-744 565.03,-744 565.03,-750 559.03,-756 553.03,-756"/>
<text text-anchor="middle" x="535.28" y="-733.33" font-family="Helvetica,sans-Serif" font-size="14.00">Divide</text>
</g>
<!-- SelfAttenuation&#45;&gt;Divide -->
<g id="edge16" class="edge">
<title>SelfAttenuation&#45;&gt;Divide</title>
<path fill="none" stroke="black" d="M600.62,-945.28C629.08,-938.31 659.87,-925.08 677.28,-900 695.41,-873.87 659.2,-796.42 655.28,-792 634.8,-768.92 602.4,-755.43 576.42,-747.84"/>
<polygon fill="black" stroke="black" points="577.4,-744.48 566.83,-745.24 575.57,-751.23 577.4,-744.48"/>
</g>
<!-- RebinData -->
<g id="node3" class="node">
<title>RebinData</title>
<polygon fill="limegreen" stroke="black" points="535.28,-468 448.72,-450 535.28,-432 621.83,-450 535.28,-468"/>
<text text-anchor="middle" x="535.28" y="-445.32" font-family="Helvetica,sans-Serif" font-size="14.00">RebinData</text>
</g>
<!-- Group -->
<g id="node4" class="node">
<title>Group</title>
<polygon fill="limegreen" stroke="black" points="535.28,-324 477.74,-306 535.28,-288 592.82,-306 535.28,-324"/>
<text text-anchor="middle" x="535.28" y="-301.32" font-family="Helvetica,sans-Serif" font-size="14.00">Group</text>
</g>
<!-- RebinData&#45;&gt;Group -->
<g id="edge24" class="edge">
<title>RebinData&#45;&gt;Group</title>
<path fill="none" stroke="black" d="M538.84,-432.38C540.88,-421.98 543.24,-408.28 544.28,-396 545.62,-380.06 545.62,-375.94 544.28,-360 543.57,-351.63 542.25,-342.59 540.83,-334.39"/>
<polygon fill="black" stroke="black" points="544.29,-333.83 539.02,-324.64 537.4,-335.11 544.29,-333.83"/>
</g>
<!-- Rebin -->
<g id="node21" class="node">
<title>Rebin</title>
<path fill="lightskyblue" stroke="black" d="M522.78,-396C522.78,-396 491.78,-396 491.78,-396 485.78,-396 479.78,-390 479.78,-384 479.78,-384 479.78,-372 479.78,-372 479.78,-366 485.78,-360 491.78,-360 491.78,-360 522.78,-360 522.78,-360 528.78,-360 534.78,-366 534.78,-372 534.78,-372 534.78,-384 534.78,-384 534.78,-390 528.78,-396 522.78,-396"/>
<text text-anchor="middle" x="507.28" y="-373.32" font-family="Helvetica,sans-Serif" font-size="14.00">Rebin</text>
</g>
<!-- RebinData&#45;&gt;Rebin -->
<g id="edge22" class="edge">
<title>RebinData&#45;&gt;Rebin</title>
<path fill="none" stroke="black" d="M528.92,-433.12C525.8,-425.32 521.95,-415.69 518.37,-406.73"/>
<polygon fill="black" stroke="black" points="521.72,-405.68 514.76,-397.7 515.22,-408.28 521.72,-405.68"/>
</g>
<!-- Save -->
<g id="node5" class="node">
<title>Save</title>
<polygon fill="limegreen" stroke="black" points="535.28,-180 485.92,-162 535.28,-144 584.63,-162 535.28,-180"/>
<text text-anchor="middle" x="535.28" y="-157.32" font-family="Helvetica,sans-Serif" font-size="14.00">Save</text>
</g>
<!-- Group&#45;&gt;Save -->
<g id="edge26" class="edge">
<title>Group&#45;&gt;Save</title>
<path fill="none" stroke="black" d="M544.46,-290.83C550.56,-280.52 558.03,-265.98 561.28,-252 564.89,-236.41 564.89,-231.59 561.28,-216 558.97,-206.06 554.53,-195.84 549.96,-187.06"/>
<polygon fill="black" stroke="black" points="553.11,-185.53 545.19,-178.5 547,-188.94 553.11,-185.53"/>
</g>
<!-- GroupDetectors -->
<g id="node23" class="node">
<title>GroupDetectors</title>
<path fill="lightskyblue" stroke="black" d="M540.65,-252C540.65,-252 439.9,-252 439.9,-252 433.9,-252 427.9,-246 427.9,-240 427.9,-240 427.9,-228 427.9,-228 427.9,-222 433.9,-216 439.9,-216 439.9,-216 540.65,-216 540.65,-216 546.65,-216 552.65,-222 552.65,-228 552.65,-228 552.65,-240 552.65,-240 552.65,-246 546.65,-252 540.65,-252"/>
<text text-anchor="middle" x="490.28" y="-229.32" font-family="Helvetica,sans-Serif" font-size="14.00">GroupDetectors</text>
</g>
<!-- Group&#45;&gt;GroupDetectors -->
<g id="edge25" class="edge">
<title>Group&#45;&gt;GroupDetectors</title>
<path fill="none" stroke="black" d="M525.95,-290.5C520.68,-282.29 513.92,-271.77 507.7,-262.1"/>
<polygon fill="black" stroke="black" points="510.67,-260.25 502.32,-253.73 504.78,-264.04 510.67,-260.25"/>
</g>
<!-- OutputWorkspace -->
<g id="node9" class="node">
<title>OutputWorkspace</title>
<polygon fill="grey" stroke="black" points="641.12,-36 472.75,-36 429.43,0 597.81,0 641.12,-36"/>
<text text-anchor="middle" x="535.28" y="-11.82" font-family="Times,serif" font-size="14.00">OutputWorkspace</text>
</g>
<!-- Save&#45;&gt;OutputWorkspace -->
<g id="edge30" class="edge">
<title>Save&#45;&gt;OutputWorkspace</title>
<path fill="none" stroke="black" d="M542.35,-146.56C547.06,-136.13 552.81,-121.55 555.28,-108 558.15,-92.26 558.15,-87.74 555.28,-72 553.74,-63.58 550.94,-54.77 547.91,-46.79"/>
<polygon fill="black" stroke="black" points="551.18,-45.54 544.16,-37.61 544.7,-48.19 551.18,-45.54"/>
</g>
<!-- SaveOutput -->
<g id="node22" class="node">
<title>SaveOutput</title>
<path fill="lightskyblue" stroke="black" d="M534.53,-108C534.53,-108 460.03,-108 460.03,-108 454.03,-108 448.03,-102 448.03,-96 448.03,-96 448.03,-84 448.03,-84 448.03,-78 454.03,-72 460.03,-72 460.03,-72 534.53,-72 534.53,-72 540.53,-72 546.53,-78 546.53,-84 546.53,-84 546.53,-96 546.53,-96 546.53,-102 540.53,-108 534.53,-108"/>
<text text-anchor="middle" x="497.28" y="-85.33" font-family="Helvetica,sans-Serif" font-size="14.00">SaveOutput</text>
</g>
<!-- Save&#45;&gt;SaveOutput -->
<g id="edge28" class="edge">
<title>Save&#45;&gt;SaveOutput</title>
<path fill="none" stroke="black" d="M527.4,-146.5C523,-138.38 517.36,-127.99 512.15,-118.4"/>
<polygon fill="black" stroke="black" points="515.32,-116.91 507.48,-109.79 509.17,-120.25 515.32,-116.91"/>
</g>
<!-- Runs -->
<g id="node6" class="node">
<title>Runs</title>
<ellipse fill="khaki" stroke="black" cx="578.28" cy="-1314" rx="35.42" ry="18"/>
<text text-anchor="middle" x="578.28" y="-1309.33" font-family="Helvetica,sans-Serif" font-size="14.00">Runs</text>
</g>
<!-- DirectILLCollectData -->
<g id="node10" class="node">
<title>DirectILLCollectData</title>
<path fill="lightskyblue" stroke="black" d="M643.65,-1260C643.65,-1260 512.9,-1260 512.9,-1260 506.9,-1260 500.9,-1254 500.9,-1248 500.9,-1248 500.9,-1236 500.9,-1236 500.9,-1230 506.9,-1224 512.9,-1224 512.9,-1224 643.65,-1224 643.65,-1224 649.65,-1224 655.65,-1230 655.65,-1236 655.65,-1236 655.65,-1248 655.65,-1248 655.65,-1254 649.65,-1260 643.65,-1260"/>
<text text-anchor="middle" x="578.28" y="-1237.33" font-family="Helvetica,sans-Serif" font-size="14.00">DirectILLCollectData</text>
</g>
<!-- Runs&#45;&gt;DirectILLCollectData -->
<g id="edge1" class="edge">
<title>Runs&#45;&gt;DirectILLCollectData</title>
<path fill="none" stroke="black" d="M578.28,-1295.7C578.28,-1288.41 578.28,-1279.73 578.28,-1271.54"/>
<polygon fill="black" stroke="black" points="581.78,-1271.62 578.28,-1261.62 574.78,-1271.62 581.78,-1271.62"/>
</g>
<!-- EmptyContainerWorkspace -->
<g id="node7" class="node">
<title>EmptyContainerWorkspace</title>
<ellipse fill="khaki" stroke="black" cx="143.28" cy="-1098" rx="143.28" ry="18"/>
<text text-anchor="middle" x="143.28" y="-1093.33" font-family="Helvetica,sans-Serif" font-size="14.00">EmptyContainerWorkspace</text>
</g>
<!-- EmptyContainerWorkspace&#45;&gt;Minus -->
<g id="edge9" class="edge">
<title>EmptyContainerWorkspace&#45;&gt;Minus</title>
<path fill="none" stroke="black" d="M223.55,-1082.67C306.21,-1067.9 431.66,-1045.5 495.27,-1034.14"/>
<polygon fill="black" stroke="black" points="495.68,-1037.63 504.91,-1032.42 494.45,-1030.73 495.68,-1037.63"/>
</g>
<!-- VanadiumWorkspace -->
<g id="node8" class="node">
<title>VanadiumWorkspace</title>
<ellipse fill="khaki" stroke="black" cx="293.28" cy="-810" rx="112.76" ry="18"/>
<text text-anchor="middle" x="293.28" y="-805.33" font-family="Helvetica,sans-Serif" font-size="14.00">VanadiumWorkspace</text>
</g>
<!-- VanadiumWorkspace&#45;&gt;Divide -->
<g id="edge17" class="edge">
<title>VanadiumWorkspace&#45;&gt;Divide</title>
<path fill="none" stroke="black" d="M346.09,-793.72C390.58,-780.85 453.34,-762.7 494.16,-750.89"/>
<polygon fill="black" stroke="black" points="494.97,-754.3 503.61,-748.16 493.03,-747.58 494.97,-754.3"/>
</g>
<!-- DirectILLCollectData&#45;&gt;Mask -->
<g id="edge2" class="edge">
<title>DirectILLCollectData&#45;&gt;Mask</title>
<path fill="none" stroke="black" d="M578.28,-1223.7C578.28,-1216.41 578.28,-1207.73 578.28,-1199.54"/>
<polygon fill="black" stroke="black" points="581.78,-1199.62 578.28,-1189.62 574.78,-1199.62 581.78,-1199.62"/>
</g>
<!-- MaskDetectors&#45;&gt;Minus -->
<g id="edge7" class="edge">
<title>MaskDetectors&#45;&gt;Minus</title>
<path fill="none" stroke="black" d="M535.28,-1079.7C535.28,-1072.41 535.28,-1063.73 535.28,-1055.54"/>
<polygon fill="black" stroke="black" points="538.78,-1055.62 535.28,-1045.62 531.78,-1055.62 538.78,-1055.62"/>
</g>
<!-- ApplyPaalmanPingsCorrection -->
<g id="node14" class="node">
<title>ApplyPaalmanPingsCorrection</title>
<path fill="lightskyblue" stroke="black" d="M634.4,-828C634.4,-828 436.15,-828 436.15,-828 430.15,-828 424.15,-822 424.15,-816 424.15,-816 424.15,-804 424.15,-804 424.15,-798 430.15,-792 436.15,-792 436.15,-792 634.4,-792 634.4,-792 640.4,-792 646.4,-798 646.4,-804 646.4,-804 646.4,-816 646.4,-816 646.4,-822 640.4,-828 634.4,-828"/>
<text text-anchor="middle" x="535.28" y="-805.33" font-family="Helvetica,sans-Serif" font-size="14.00">ApplyPaalmanPingsCorrection</text>
</g>
<!-- PaalmanPingsMonteCarloAbsorption&#45;&gt;ApplyPaalmanPingsCorrection -->
<g id="edge14" class="edge">
<title>PaalmanPingsMonteCarloAbsorption&#45;&gt;ApplyPaalmanPingsCorrection</title>
<path fill="none" stroke="black" d="M535.28,-863.7C535.28,-856.41 535.28,-847.73 535.28,-839.54"/>
<polygon fill="black" stroke="black" points="538.78,-839.62 535.28,-829.62 531.78,-839.62 538.78,-839.62"/>
</g>
<!-- PaalmanPingsAbsorptionCorrection&#45;&gt;ApplyPaalmanPingsCorrection -->
<g id="edge13" class="edge">
<title>PaalmanPingsAbsorptionCorrection&#45;&gt;ApplyPaalmanPingsCorrection</title>
<path fill="none" stroke="black" d="M325.21,-863.52C364.53,-853.69 413.79,-841.37 454.72,-831.14"/>
<polygon fill="black" stroke="black" points="455.43,-834.57 464.28,-828.75 453.73,-827.78 455.43,-834.57"/>
</g>
<!-- ApplyPaalmanPingsCorrection&#45;&gt;Divide -->
<g id="edge15" class="edge">
<title>ApplyPaalmanPingsCorrection&#45;&gt;Divide</title>
<path fill="none" stroke="black" d="M535.28,-791.7C535.28,-784.41 535.28,-775.73 535.28,-767.54"/>
<polygon fill="black" stroke="black" points="538.78,-767.62 535.28,-757.62 531.78,-767.62 538.78,-767.62"/>
</g>
<!-- Minus&#45;&gt;SelfAttenuation -->
<g id="edge10" class="edge">
<title>Minus&#45;&gt;SelfAttenuation</title>
<path fill="none" stroke="black" d="M535.28,-1007.7C535.28,-1000.41 535.28,-991.73 535.28,-983.54"/>
<polygon fill="black" stroke="black" points="538.78,-983.62 535.28,-973.62 531.78,-983.62 538.78,-983.62"/>
</g>
<!-- MaskWorkspace -->
<g id="node16" class="node">
<title>MaskWorkspace</title>
<path fill="lightskyblue" stroke="black" d="M433.15,-1188C433.15,-1188 329.4,-1188 329.4,-1188 323.4,-1188 317.4,-1182 317.4,-1176 317.4,-1176 317.4,-1164 317.4,-1164 317.4,-1158 323.4,-1152 329.4,-1152 329.4,-1152 433.15,-1152 433.15,-1152 439.15,-1152 445.15,-1158 445.15,-1164 445.15,-1164 445.15,-1176 445.15,-1176 445.15,-1182 439.15,-1188 433.15,-1188"/>
<text text-anchor="middle" x="381.28" y="-1165.33" font-family="Helvetica,sans-Serif" font-size="14.00">MaskWorkspace</text>
</g>
<!-- MaskWorkspace&#45;&gt;MaskDetectors -->
<g id="edge5" class="edge">
<title>MaskWorkspace&#45;&gt;MaskDetectors</title>
<path fill="none" stroke="black" d="M419.74,-1151.52C440.03,-1142.29 465.13,-1130.89 486.74,-1121.06"/>
<polygon fill="black" stroke="black" points="488,-1124.33 495.66,-1117.01 485.11,-1117.96 488,-1124.33"/>
</g>
<!-- MaskCreation -->
<g id="node24" class="node">
<title>MaskCreation</title>
<ellipse fill="lightgrey" stroke="black" cx="381.28" cy="-1098" rx="76.99" ry="18"/>
<text text-anchor="middle" x="381.28" y="-1093.33" font-family="Helvetica,sans-Serif" font-size="14.00">MaskCreation</text>
</g>
<!-- MaskWorkspace&#45;&gt;MaskCreation -->
<g id="edge3" class="edge">
<title>MaskWorkspace&#45;&gt;MaskCreation</title>
<path fill="none" stroke="black" d="M375.36,-1151.7C374.61,-1144.41 374.37,-1135.73 374.63,-1127.54"/>
<polygon fill="black" stroke="black" points="378.12,-1127.82 375.28,-1117.61 371.13,-1127.36 378.12,-1127.82"/>
</g>
<!-- ConvertUnits -->
<g id="node18" class="node">
<title>ConvertUnits</title>
<path fill="lightskyblue" stroke="black" d="M576.65,-684C576.65,-684 493.9,-684 493.9,-684 487.9,-684 481.9,-678 481.9,-672 481.9,-672 481.9,-660 481.9,-660 481.9,-654 487.9,-648 493.9,-648 493.9,-648 576.65,-648 576.65,-648 582.65,-648 588.65,-654 588.65,-660 588.65,-660 588.65,-672 588.65,-672 588.65,-678 582.65,-684 576.65,-684"/>
<text text-anchor="middle" x="535.28" y="-661.33" font-family="Helvetica,sans-Serif" font-size="14.00">ConvertUnits</text>
</g>
<!-- Divide&#45;&gt;ConvertUnits -->
<g id="edge18" class="edge">
<title>Divide&#45;&gt;ConvertUnits</title>
<path fill="none" stroke="black" d="M535.28,-719.7C535.28,-712.41 535.28,-703.73 535.28,-695.54"/>
<polygon fill="black" stroke="black" points="538.78,-695.62 535.28,-685.62 531.78,-695.62 538.78,-695.62"/>
</g>
<!-- CorrectKiKf -->
<g id="node19" class="node">
<title>CorrectKiKf</title>
<path fill="lightskyblue" stroke="black" d="M569.53,-612C569.53,-612 501.03,-612 501.03,-612 495.03,-612 489.03,-606 489.03,-600 489.03,-600 489.03,-588 489.03,-588 489.03,-582 495.03,-576 501.03,-576 501.03,-576 569.53,-576 569.53,-576 575.53,-576 581.53,-582 581.53,-588 581.53,-588 581.53,-600 581.53,-600 581.53,-606 575.53,-612 569.53,-612"/>
<text text-anchor="middle" x="535.28" y="-589.33" font-family="Helvetica,sans-Serif" font-size="14.00">CorrectKiKf</text>
</g>
<!-- ConvertUnits&#45;&gt;CorrectKiKf -->
<g id="edge19" class="edge">
<title>ConvertUnits&#45;&gt;CorrectKiKf</title>
<path fill="none" stroke="black" d="M535.28,-647.7C535.28,-640.41 535.28,-631.73 535.28,-623.54"/>
<polygon fill="black" stroke="black" points="538.78,-623.62 535.28,-613.62 531.78,-623.62 538.78,-623.62"/>
</g>
<!-- DetectorEfficiencyCorUser -->
<g id="node20" class="node">
<title>DetectorEfficiencyCorUser</title>
<path fill="lightskyblue" stroke="black" d="M622.4,-540C622.4,-540 448.15,-540 448.15,-540 442.15,-540 436.15,-534 436.15,-528 436.15,-528 436.15,-516 436.15,-516 436.15,-510 442.15,-504 448.15,-504 448.15,-504 622.4,-504 622.4,-504 628.4,-504 634.4,-510 634.4,-516 634.4,-516 634.4,-528 634.4,-528 634.4,-534 628.4,-540 622.4,-540"/>
<text text-anchor="middle" x="535.28" y="-517.33" font-family="Helvetica,sans-Serif" font-size="14.00">DetectorEfficiencyCorUser</text>
</g>
<!-- CorrectKiKf&#45;&gt;DetectorEfficiencyCorUser -->
<g id="edge20" class="edge">
<title>CorrectKiKf&#45;&gt;DetectorEfficiencyCorUser</title>
<path fill="none" stroke="black" d="M535.28,-575.7C535.28,-568.41 535.28,-559.73 535.28,-551.54"/>
<polygon fill="black" stroke="black" points="538.78,-551.62 535.28,-541.62 531.78,-551.62 538.78,-551.62"/>
</g>
<!-- DetectorEfficiencyCorUser&#45;&gt;RebinData -->
<g id="edge21" class="edge">
<title>DetectorEfficiencyCorUser&#45;&gt;RebinData</title>
<path fill="none" stroke="black" d="M535.28,-503.7C535.28,-496.41 535.28,-487.73 535.28,-479.54"/>
<polygon fill="black" stroke="black" points="538.78,-479.62 535.28,-469.62 531.78,-479.62 538.78,-479.62"/>
</g>
<!-- Rebin&#45;&gt;Group -->
<g id="edge23" class="edge">
<title>Rebin&#45;&gt;Group</title>
<path fill="none" stroke="black" d="M514.2,-359.7C517.43,-351.61 521.35,-341.82 524.93,-332.88"/>
<polygon fill="black" stroke="black" points="528.17,-334.19 528.63,-323.61 521.67,-331.59 528.17,-334.19"/>
</g>
<!-- SaveOutput&#45;&gt;OutputWorkspace -->
<g id="edge29" class="edge">
<title>SaveOutput&#45;&gt;OutputWorkspace</title>
<path fill="none" stroke="black" d="M506.67,-71.7C510.86,-63.98 515.89,-54.71 520.56,-46.11"/>
<polygon fill="black" stroke="black" points="523.57,-47.89 525.27,-37.43 517.42,-44.55 523.57,-47.89"/>
</g>
<!-- GroupDetectors&#45;&gt;Save -->
<g id="edge27" class="edge">
<title>GroupDetectors&#45;&gt;Save</title>
<path fill="none" stroke="black" d="M501.4,-215.7C507.12,-206.8 514.17,-195.84 520.35,-186.22"/>
<polygon fill="black" stroke="black" points="523.11,-188.4 525.57,-178.1 517.22,-184.62 523.11,-188.4"/>
</g>
<!-- MaskCreation&#45;&gt;MaskWorkspace -->
<g id="edge4" class="edge">
<title>MaskCreation&#45;&gt;MaskWorkspace</title>
<path fill="none" stroke="black" d="M387.17,-1116.1C387.93,-1123.37 388.19,-1132.04 387.93,-1140.24"/>
<polygon fill="black" stroke="black" points="384.44,-1139.98 387.29,-1150.19 391.43,-1140.43 384.44,-1139.98"/>
</g>
</g>
</svg>
