<?xml version="1.0" encoding="UTF-8" standalone="no"?>
<!DOCTYPE svg PUBLIC "-//W3C//DTD SVG 1.1//EN"
 "http://www.w3.org/Graphics/SVG/1.1/DTD/svg11.dtd">
<!-- Generated by graphviz version 7.0.5 (20221231.0122)
 -->
<!-- Title: Sample Pages: 1 -->
<svg width="612pt" height="1124pt"
 viewBox="0.00 0.00 612.00 1124.00" xmlns="http://www.w3.org/2000/svg" xmlns:xlink="http://www.w3.org/1999/xlink">
<g id="graph0" class="graph" transform="scale(1 1) rotate(0) translate(4 1120)">
<title>Sample</title>
<polygon fill="white" stroke="none" points="-4,4 -4,-1120 608,-1120 608,4 -4,4"/>
<!-- Mask -->
<g id="node1" class="node">
<title>Mask</title>
<polygon fill="limegreen" stroke="black" points="525.5,-972 476.57,-954 525.5,-936 574.43,-954 525.5,-972"/>
<text text-anchor="middle" x="525.5" y="-950.3" font-family="Helvetica,sans-Serif" font-size="14.00">Mask</text>
</g>
<!-- MaskDetectors -->
<g id="node9" class="node">
<title>MaskDetectors</title>
<path fill="lightskyblue" stroke="black" d="M529,-900C529,-900 434,-900 434,-900 428,-900 422,-894 422,-888 422,-888 422,-876 422,-876 422,-870 428,-864 434,-864 434,-864 529,-864 529,-864 535,-864 541,-870 541,-876 541,-876 541,-888 541,-888 541,-894 535,-900 529,-900"/>
<text text-anchor="middle" x="481.5" y="-878.3" font-family="Helvetica,sans-Serif" font-size="14.00">MaskDetectors</text>
</g>
<!-- Mask&#45;&gt;MaskDetectors -->
<g id="edge6" class="edge">
<title>Mask&#45;&gt;MaskDetectors</title>
<path fill="none" stroke="black" d="M516.6,-938.83C511.36,-930.5 504.57,-919.7 498.36,-909.82"/>
<polygon fill="black" stroke="black" points="501.51,-908.25 493.22,-901.65 495.58,-911.98 501.51,-908.25"/>
</g>
<!-- DirectILLDiagnostics -->
<g id="node10" class="node">
<title>DirectILLDiagnostics</title>
<path fill="lightskyblue" stroke="black" d="M592,-828C592,-828 459,-828 459,-828 453,-828 447,-822 447,-816 447,-816 447,-804 447,-804 447,-798 453,-792 459,-792 459,-792 592,-792 592,-792 598,-792 604,-798 604,-804 604,-804 604,-816 604,-816 604,-822 598,-828 592,-828"/>
<text text-anchor="middle" x="525.5" y="-806.3" font-family="Helvetica,sans-Serif" font-size="14.00">DirectILLDiagnostics</text>
</g>
<!-- Mask&#45;&gt;DirectILLDiagnostics -->
<g id="edge8" class="edge">
<title>Mask&#45;&gt;DirectILLDiagnostics</title>
<path fill="none" stroke="black" d="M534.33,-938.78C540.2,-928.45 547.39,-913.9 550.5,-900 554,-884.39 554,-879.61 550.5,-864 548.57,-855.4 545.09,-846.55 541.32,-838.61"/>
<polygon fill="black" stroke="black" points="544.48,-837.1 536.81,-829.79 538.25,-840.29 544.48,-837.1"/>
</g>
<!-- SelfAttenuation -->
<g id="node2" class="node">
<title>SelfAttenuation</title>
<polygon fill="limegreen" stroke="black" points="410.5,-612 297.39,-594 410.5,-576 523.61,-594 410.5,-612"/>
<text text-anchor="middle" x="410.5" y="-590.3" font-family="Helvetica,sans-Serif" font-size="14.00">SelfAttenuation</text>
</g>
<!-- PaalmanPingsMonteCarloAbsorption -->
<g id="node12" class="node">
<title>PaalmanPingsMonteCarloAbsorption</title>
<path fill="lightskyblue" stroke="black" d="M532,-540C532,-540 289,-540 289,-540 283,-540 277,-534 277,-528 277,-528 277,-516 277,-516 277,-510 283,-504 289,-504 289,-504 532,-504 532,-504 538,-504 544,-510 544,-516 544,-516 544,-528 544,-528 544,-534 538,-540 532,-540"/>
<text text-anchor="middle" x="410.5" y="-518.3" font-family="Helvetica,sans-Serif" font-size="14.00">PaalmanPingsMonteCarloAbsorption</text>
</g>
<!-- SelfAttenuation&#45;&gt;PaalmanPingsMonteCarloAbsorption -->
<g id="edge14" class="edge">
<title>SelfAttenuation&#45;&gt;PaalmanPingsMonteCarloAbsorption</title>
<path fill="none" stroke="black" d="M410.5,-575.7C410.5,-568.41 410.5,-559.73 410.5,-551.54"/>
<polygon fill="black" stroke="black" points="414,-551.62 410.5,-541.62 407,-551.62 414,-551.62"/>
</g>
<!-- PaalmanPingsAbsorptionCorrection -->
<g id="node13" class="node">
<title>PaalmanPingsAbsorptionCorrection</title>
<path fill="lightskyblue" stroke="black" d="M247,-540C247,-540 12,-540 12,-540 6,-540 0,-534 0,-528 0,-528 0,-516 0,-516 0,-510 6,-504 12,-504 12,-504 247,-504 247,-504 253,-504 259,-510 259,-516 259,-516 259,-528 259,-528 259,-534 253,-540 247,-540"/>
<text text-anchor="middle" x="129.5" y="-518.3" font-family="Helvetica,sans-Serif" font-size="14.00">PaalmanPingsAbsorptionCorrection</text>
</g>
<!-- SelfAttenuation&#45;&gt;PaalmanPingsAbsorptionCorrection -->
<g id="edge13" class="edge">
<title>SelfAttenuation&#45;&gt;PaalmanPingsAbsorptionCorrection</title>
<path fill="none" stroke="black" d="M367.82,-582.37C326.27,-572.02 262.06,-556.02 210.75,-543.24"/>
<polygon fill="black" stroke="black" points="211.69,-539.87 201.14,-540.85 210,-546.66 211.69,-539.87"/>
</g>
<!-- DirectILLReduction -->
<g id="node15" class="node">
<title>DirectILLReduction</title>
<path fill="lightskyblue" stroke="black" d="M552.5,-396C552.5,-396 430.5,-396 430.5,-396 424.5,-396 418.5,-390 418.5,-384 418.5,-384 418.5,-372 418.5,-372 418.5,-366 424.5,-360 430.5,-360 430.5,-360 552.5,-360 552.5,-360 558.5,-360 564.5,-366 564.5,-372 564.5,-372 564.5,-384 564.5,-384 564.5,-390 558.5,-396 552.5,-396"/>
<text text-anchor="middle" x="491.5" y="-374.3" font-family="Helvetica,sans-Serif" font-size="14.00">DirectILLReduction</text>
</g>
<!-- SelfAttenuation&#45;&gt;DirectILLReduction -->
<g id="edge18" class="edge">
<title>SelfAttenuation&#45;&gt;DirectILLReduction</title>
<path fill="none" stroke="black" d="M474.81,-585.76C503.88,-578.91 535.66,-565.64 553.5,-540 583.34,-497.12 543.74,-437.94 515.47,-404.57"/>
<polygon fill="black" stroke="black" points="518.43,-402.64 509.22,-397.41 513.16,-407.24 518.43,-402.64"/>
</g>
<!-- Group -->
<g id="node3" class="node">
<title>Group</title>
<polygon fill="limegreen" stroke="black" points="491.5,-324 437.04,-306 491.5,-288 545.96,-306 491.5,-324"/>
<text text-anchor="middle" x="491.5" y="-302.3" font-family="Helvetica,sans-Serif" font-size="14.00">Group</text>
</g>
<!-- Save -->
<g id="node4" class="node">
<title>Save</title>
<polygon fill="limegreen" stroke="black" points="491.5,-180 445.58,-162 491.5,-144 537.42,-162 491.5,-180"/>
<text text-anchor="middle" x="491.5" y="-158.3" font-family="Helvetica,sans-Serif" font-size="14.00">Save</text>
</g>
<!-- Group&#45;&gt;Save -->
<g id="edge22" class="edge">
<title>Group&#45;&gt;Save</title>
<path fill="none" stroke="black" d="M501.03,-290.87C507.37,-280.59 515.13,-266.06 518.5,-252 522.23,-236.44 522.23,-231.56 518.5,-216 516.07,-205.86 511.35,-195.48 506.54,-186.62"/>
<polygon fill="black" stroke="black" points="509.57,-184.88 501.52,-178 503.52,-188.4 509.57,-184.88"/>
</g>
<!-- GroupDetectors -->
<g id="node19" class="node">
<title>GroupDetectors</title>
<path fill="lightskyblue" stroke="black" d="M497,-252C497,-252 396,-252 396,-252 390,-252 384,-246 384,-240 384,-240 384,-228 384,-228 384,-222 390,-216 396,-216 396,-216 497,-216 497,-216 503,-216 509,-222 509,-228 509,-228 509,-240 509,-240 509,-246 503,-252 497,-252"/>
<text text-anchor="middle" x="446.5" y="-230.3" font-family="Helvetica,sans-Serif" font-size="14.00">GroupDetectors</text>
</g>
<!-- Group&#45;&gt;GroupDetectors -->
<g id="edge20" class="edge">
<title>Group&#45;&gt;GroupDetectors</title>
<path fill="none" stroke="black" d="M482.39,-290.83C477.04,-282.5 470.09,-271.7 463.74,-261.82"/>
<polygon fill="black" stroke="black" points="466.84,-260.16 458.48,-253.64 460.95,-263.95 466.84,-260.16"/>
</g>
<!-- OutputWorkspace -->
<g id="node7" class="node">
<title>OutputWorkspace</title>
<polygon fill="grey" stroke="black" points="600.27,-36 427.24,-36 382.73,0 555.76,0 600.27,-36"/>
<text text-anchor="middle" x="491.5" y="-14.3" font-family="Times,serif" font-size="14.00">OutputWorkspace</text>
</g>
<!-- Save&#45;&gt;OutputWorkspace -->
<g id="edge25" class="edge">
<title>Save&#45;&gt;OutputWorkspace</title>
<path fill="none" stroke="black" d="M498.58,-146.56C503.28,-136.13 509.03,-121.55 511.5,-108 514.37,-92.26 514.37,-87.74 511.5,-72 509.96,-63.58 507.16,-54.77 504.13,-46.79"/>
<polygon fill="black" stroke="black" points="507.4,-45.54 500.38,-37.61 500.92,-48.19 507.4,-45.54"/>
</g>
<!-- SaveOutput -->
<g id="node18" class="node">
<title>SaveOutput</title>
<path fill="lightskyblue" stroke="black" d="M490,-108C490,-108 415,-108 415,-108 409,-108 403,-102 403,-96 403,-96 403,-84 403,-84 403,-78 409,-72 415,-72 415,-72 490,-72 490,-72 496,-72 502,-78 502,-84 502,-84 502,-96 502,-96 502,-102 496,-108 490,-108"/>
<text text-anchor="middle" x="452.5" y="-86.3" font-family="Helvetica,sans-Serif" font-size="14.00">SaveOutput</text>
</g>
<!-- Save&#45;&gt;SaveOutput -->
<g id="edge23" class="edge">
<title>Save&#45;&gt;SaveOutput</title>
<path fill="none" stroke="black" d="M483.61,-146.83C479.02,-138.59 473.07,-127.93 467.61,-118.13"/>
<polygon fill="black" stroke="black" points="470.84,-116.72 462.91,-109.69 464.72,-120.13 470.84,-116.72"/>
</g>
<!-- Runs -->
<g id="node5" class="node">
<title>Runs</title>
<ellipse fill="khaki" stroke="black" cx="525.5" cy="-1098" rx="33.29" ry="18"/>
<text text-anchor="middle" x="525.5" y="-1094.3" font-family="Helvetica,sans-Serif" font-size="14.00">Runs</text>
</g>
<!-- DirectILLCollectData -->
<g id="node8" class="node">
<title>DirectILLCollectData</title>
<path fill="lightskyblue" stroke="black" d="M591,-1044C591,-1044 460,-1044 460,-1044 454,-1044 448,-1038 448,-1032 448,-1032 448,-1020 448,-1020 448,-1014 454,-1008 460,-1008 460,-1008 591,-1008 591,-1008 597,-1008 603,-1014 603,-1020 603,-1020 603,-1032 603,-1032 603,-1038 597,-1044 591,-1044"/>
<text text-anchor="middle" x="525.5" y="-1022.3" font-family="Helvetica,sans-Serif" font-size="14.00">DirectILLCollectData</text>
</g>
<!-- Runs&#45;&gt;DirectILLCollectData -->
<g id="edge1" class="edge">
<title>Runs&#45;&gt;DirectILLCollectData</title>
<path fill="none" stroke="black" d="M525.5,-1079.7C525.5,-1072.41 525.5,-1063.73 525.5,-1055.54"/>
<polygon fill="black" stroke="black" points="529,-1055.62 525.5,-1045.62 522,-1055.62 529,-1055.62"/>
</g>
<!-- EmptyContainerWorkspace -->
<g id="node6" class="node">
<title>EmptyContainerWorkspace</title>
<ellipse fill="khaki" stroke="black" cx="295.5" cy="-810" rx="133.48" ry="18"/>
<text text-anchor="middle" x="295.5" y="-806.3" font-family="Helvetica,sans-Serif" font-size="14.00">EmptyContainerWorkspace</text>
</g>
<!-- Minus -->
<g id="node16" class="node">
<title>Minus</title>
<path fill="lightskyblue" stroke="black" d="M427.5,-756C427.5,-756 393.5,-756 393.5,-756 387.5,-756 381.5,-750 381.5,-744 381.5,-744 381.5,-732 381.5,-732 381.5,-726 387.5,-720 393.5,-720 393.5,-720 427.5,-720 427.5,-720 433.5,-720 439.5,-726 439.5,-732 439.5,-732 439.5,-744 439.5,-744 439.5,-750 433.5,-756 427.5,-756"/>
<text text-anchor="middle" x="410.5" y="-734.3" font-family="Helvetica,sans-Serif" font-size="14.00">Minus</text>
</g>
<!-- EmptyContainerWorkspace&#45;&gt;Minus -->
<g id="edge10" class="edge">
<title>EmptyContainerWorkspace&#45;&gt;Minus</title>
<path fill="none" stroke="black" d="M323.34,-792.05C338.09,-783.07 356.43,-771.91 372.48,-762.14"/>
<polygon fill="black" stroke="black" points="374.1,-765.25 380.83,-757.06 370.46,-759.27 374.1,-765.25"/>
</g>
<!-- DirectILLCollectData&#45;&gt;Mask -->
<g id="edge2" class="edge">
<title>DirectILLCollectData&#45;&gt;Mask</title>
<path fill="none" stroke="black" d="M525.5,-1007.7C525.5,-1000.41 525.5,-991.73 525.5,-983.54"/>
<polygon fill="black" stroke="black" points="529,-983.62 525.5,-973.62 522,-983.62 529,-983.62"/>
</g>
<!-- MaskDetectors&#45;&gt;DirectILLDiagnostics -->
<g id="edge7" class="edge">
<title>MaskDetectors&#45;&gt;DirectILLDiagnostics</title>
<path fill="none" stroke="black" d="M492.38,-863.7C497.28,-855.9 503.18,-846.51 508.64,-837.83"/>
<polygon fill="black" stroke="black" points="511.58,-839.71 513.94,-829.39 505.66,-835.99 511.58,-839.71"/>
</g>
<!-- DirectILLDiagnostics&#45;&gt;Minus -->
<g id="edge9" class="edge">
<title>DirectILLDiagnostics&#45;&gt;Minus</title>
<path fill="none" stroke="black" d="M496.78,-791.52C482.12,-782.6 464.11,-771.63 448.34,-762.03"/>
<polygon fill="black" stroke="black" points="450.51,-759.26 440.15,-757.05 446.87,-765.24 450.51,-759.26"/>
</g>
<!-- DirectILLIntegrateVanadium -->
<g id="node11" class="node">
<title>DirectILLIntegrateVanadium</title>
<path fill="lightskyblue" stroke="black" d="M503,-684C503,-684 318,-684 318,-684 312,-684 306,-678 306,-672 306,-672 306,-660 306,-660 306,-654 312,-648 318,-648 318,-648 503,-648 503,-648 509,-648 515,-654 515,-660 515,-660 515,-672 515,-672 515,-678 509,-684 503,-684"/>
<text text-anchor="middle" x="410.5" y="-662.3" font-family="Helvetica,sans-Serif" font-size="14.00">DirectILLIntegrateVanadium</text>
</g>
<!-- DirectILLIntegrateVanadium&#45;&gt;SelfAttenuation -->
<g id="edge12" class="edge">
<title>DirectILLIntegrateVanadium&#45;&gt;SelfAttenuation</title>
<path fill="none" stroke="black" d="M410.5,-647.7C410.5,-640.41 410.5,-631.73 410.5,-623.54"/>
<polygon fill="black" stroke="black" points="414,-623.62 410.5,-613.62 407,-623.62 414,-623.62"/>
</g>
<!-- ApplyPaalmanPingsCorrection -->
<g id="node14" class="node">
<title>ApplyPaalmanPingsCorrection</title>
<path fill="lightskyblue" stroke="black" d="M510,-468C510,-468 311,-468 311,-468 305,-468 299,-462 299,-456 299,-456 299,-444 299,-444 299,-438 305,-432 311,-432 311,-432 510,-432 510,-432 516,-432 522,-438 522,-444 522,-444 522,-456 522,-456 522,-462 516,-468 510,-468"/>
<text text-anchor="middle" x="410.5" y="-446.3" font-family="Helvetica,sans-Serif" font-size="14.00">ApplyPaalmanPingsCorrection</text>
</g>
<!-- PaalmanPingsMonteCarloAbsorption&#45;&gt;ApplyPaalmanPingsCorrection -->
<g id="edge16" class="edge">
<title>PaalmanPingsMonteCarloAbsorption&#45;&gt;ApplyPaalmanPingsCorrection</title>
<path fill="none" stroke="black" d="M410.5,-503.7C410.5,-496.41 410.5,-487.73 410.5,-479.54"/>
<polygon fill="black" stroke="black" points="414,-479.62 410.5,-469.62 407,-479.62 414,-479.62"/>
</g>
<!-- PaalmanPingsAbsorptionCorrection&#45;&gt;ApplyPaalmanPingsCorrection -->
<g id="edge15" class="edge">
<title>PaalmanPingsAbsorptionCorrection&#45;&gt;ApplyPaalmanPingsCorrection</title>
<path fill="none" stroke="black" d="M199.68,-503.52C239.14,-493.69 288.57,-481.37 329.65,-471.14"/>
<polygon fill="black" stroke="black" points="330.4,-474.56 339.26,-468.75 328.71,-467.77 330.4,-474.56"/>
</g>
<!-- ApplyPaalmanPingsCorrection&#45;&gt;DirectILLReduction -->
<g id="edge17" class="edge">
<title>ApplyPaalmanPingsCorrection&#45;&gt;DirectILLReduction</title>
<path fill="none" stroke="black" d="M430.52,-431.7C440.26,-423.28 452.14,-413.02 462.81,-403.79"/>
<polygon fill="black" stroke="black" points="465,-406.52 470.28,-397.34 460.43,-401.23 465,-406.52"/>
</g>
<!-- DirectILLReduction&#45;&gt;Group -->
<g id="edge19" class="edge">
<title>DirectILLReduction&#45;&gt;Group</title>
<path fill="none" stroke="black" d="M491.5,-359.7C491.5,-352.41 491.5,-343.73 491.5,-335.54"/>
<polygon fill="black" stroke="black" points="495,-335.62 491.5,-325.62 488,-335.62 495,-335.62"/>
</g>
<!-- Minus&#45;&gt;DirectILLIntegrateVanadium -->
<g id="edge11" class="edge">
<title>Minus&#45;&gt;DirectILLIntegrateVanadium</title>
<path fill="none" stroke="black" d="M410.5,-719.7C410.5,-712.41 410.5,-703.73 410.5,-695.54"/>
<polygon fill="black" stroke="black" points="414,-695.62 410.5,-685.62 407,-695.62 414,-695.62"/>
</g>
<!-- MaskWorkspace -->
<g id="node17" class="node">
<title>MaskWorkspace</title>
<path fill="lightskyblue" stroke="black" d="M384.5,-972C384.5,-972 280.5,-972 280.5,-972 274.5,-972 268.5,-966 268.5,-960 268.5,-960 268.5,-948 268.5,-948 268.5,-942 274.5,-936 280.5,-936 280.5,-936 384.5,-936 384.5,-936 390.5,-936 396.5,-942 396.5,-948 396.5,-948 396.5,-960 396.5,-960 396.5,-966 390.5,-972 384.5,-972"/>
<text text-anchor="middle" x="332.5" y="-950.3" font-family="Helvetica,sans-Serif" font-size="14.00">MaskWorkspace</text>
</g>
<!-- MaskWorkspace&#45;&gt;MaskDetectors -->
<g id="edge5" class="edge">
<title>MaskWorkspace&#45;&gt;MaskDetectors</title>
<path fill="none" stroke="black" d="M369.71,-935.52C389.26,-926.34 413.41,-914.99 434.26,-905.2"/>
<polygon fill="black" stroke="black" points="435.57,-908.45 443.13,-901.03 432.59,-902.11 435.57,-908.45"/>
</g>
<!-- MaskCreation -->
<g id="node20" class="node">
<title>MaskCreation</title>
<ellipse fill="lightgrey" stroke="black" cx="332.5" cy="-882" rx="71.49" ry="18"/>
<text text-anchor="middle" x="332.5" y="-878.3" font-family="Helvetica,sans-Serif" font-size="14.00">MaskCreation</text>
</g>
<!-- MaskWorkspace&#45;&gt;MaskCreation -->
<g id="edge3" class="edge">
<title>MaskWorkspace&#45;&gt;MaskCreation</title>
<path fill="none" stroke="black" d="M326.58,-935.7C325.83,-928.41 325.59,-919.73 325.85,-911.54"/>
<polygon fill="black" stroke="black" points="329.34,-911.82 326.51,-901.61 322.36,-911.36 329.34,-911.82"/>
</g>
<!-- SaveOutput&#45;&gt;OutputWorkspace -->
<g id="edge24" class="edge">
<title>SaveOutput&#45;&gt;OutputWorkspace</title>
<path fill="none" stroke="black" d="M462.14,-71.7C466.44,-63.98 471.6,-54.71 476.39,-46.11"/>
<polygon fill="black" stroke="black" points="479.42,-47.87 481.23,-37.43 473.31,-44.46 479.42,-47.87"/>
</g>
<!-- GroupDetectors&#45;&gt;Save -->
<g id="edge21" class="edge">
<title>GroupDetectors&#45;&gt;Save</title>
<path fill="none" stroke="black" d="M457.62,-215.7C463.34,-206.8 470.39,-195.84 476.57,-186.22"/>
<polygon fill="black" stroke="black" points="479.33,-188.4 481.79,-178.1 473.44,-184.62 479.33,-188.4"/>
</g>
<!-- MaskCreation&#45;&gt;MaskWorkspace -->
<g id="edge4" class="edge">
<title>MaskCreation&#45;&gt;MaskWorkspace</title>
<path fill="none" stroke="black" d="M338.4,-900.1C339.16,-907.37 339.41,-916.04 339.15,-924.24"/>
<polygon fill="black" stroke="black" points="335.66,-923.98 338.51,-934.19 342.65,-924.43 335.66,-923.98"/>
</g>
</g>
</svg>
