<?xml version="1.0" encoding="UTF-8" standalone="no"?>
<!DOCTYPE svg PUBLIC "-//W3C//DTD SVG 1.1//EN"
 "http://www.w3.org/Graphics/SVG/1.1/DTD/svg11.dtd">
<!-- Generated by graphviz version 7.1.0 (20230122.1345)
 -->
<!-- Title: DirectILLCollectData Pages: 1 -->
<svg width="1164pt" height="1585pt"
 viewBox="0.00 0.00 1164.21 1585.00" xmlns="http://www.w3.org/2000/svg" xmlns:xlink="http://www.w3.org/1999/xlink">
<g id="graph0" class="graph" transform="scale(1 1) rotate(0) translate(4 1581)">
<title>DirectILLCollectData</title>
<polygon fill="white" stroke="none" points="-4,4 -4,-1581 1160.21,-1581 1160.21,4 -4,4"/>
<text text-anchor="middle" x="578.1" y="-1561.8" font-family="Helvetica,sans-Serif" font-size="14.00">DirectILLCollectData workflow diagram</text>
<!-- bkgScaling -->
<g id="node1" class="node">
<title>bkgScaling</title>
<ellipse fill="khaki" stroke="black" cx="523.09" cy="-703" rx="77.19" ry="18"/>
<text text-anchor="middle" x="523.09" y="-699.3" font-family="Helvetica,sans-Serif" font-size="14.00">FlatBkgScaling</text>
</g>
<!-- ScaleBkg -->
<g id="node25" class="node">
<title>ScaleBkg</title>
<path fill="lightskyblue" stroke="black" d="M374.59,-648C374.59,-648 327.59,-648 327.59,-648 321.59,-648 315.59,-642 315.59,-636 315.59,-636 315.59,-624 315.59,-624 315.59,-618 321.59,-612 327.59,-612 327.59,-612 374.59,-612 374.59,-612 380.59,-612 386.59,-618 386.59,-624 386.59,-624 386.59,-636 386.59,-636 386.59,-642 380.59,-648 374.59,-648"/>
<text text-anchor="middle" x="351.09" y="-626.3" font-family="Helvetica,sans-Serif" font-size="14.00">Multiply</text>
</g>
<!-- bkgScaling&#45;&gt;ScaleBkg -->
<g id="edge21" class="edge">
<title>bkgScaling&#45;&gt;ScaleBkg</title>
<path fill="none" stroke="black" d="M486.19,-686.77C460.19,-676.04 425.2,-661.59 397.34,-650.09"/>
<polygon fill="black" stroke="black" points="399.02,-647 388.44,-646.42 396.35,-653.47 399.02,-647"/>
</g>
<!-- inputFile -->
<g id="node2" class="node">
<title>inputFile</title>
<ellipse fill="khaki" stroke="black" cx="915.09" cy="-1449" rx="28.7" ry="18"/>
<text text-anchor="middle" x="915.09" y="-1445.3" font-family="Helvetica,sans-Serif" font-size="14.00">Run</text>
</g>
<!-- LoadAndMerge -->
<g id="node22" class="node">
<title>LoadAndMerge</title>
<path fill="lightskyblue" stroke="black" d="M947.09,-1359C947.09,-1359 851.09,-1359 851.09,-1359 845.09,-1359 839.09,-1353 839.09,-1347 839.09,-1347 839.09,-1335 839.09,-1335 839.09,-1329 845.09,-1323 851.09,-1323 851.09,-1323 947.09,-1323 947.09,-1323 953.09,-1323 959.09,-1329 959.09,-1335 959.09,-1335 959.09,-1347 959.09,-1347 959.09,-1353 953.09,-1359 947.09,-1359"/>
<text text-anchor="middle" x="899.09" y="-1337.3" font-family="Helvetica,sans-Serif" font-size="14.00">LoadAndMerge</text>
</g>
<!-- inputFile&#45;&gt;LoadAndMerge -->
<g id="edge2" class="edge">
<title>inputFile&#45;&gt;LoadAndMerge</title>
<path fill="none" stroke="black" d="M911.43,-1430.95C910.27,-1425.26 909.05,-1418.87 908.09,-1413 905.81,-1399.01 903.77,-1383.39 902.22,-1370.37"/>
<polygon fill="black" stroke="black" points="905.73,-1370.3 901.1,-1360.77 898.78,-1371.11 905.73,-1370.3"/>
</g>
<!-- inputWS -->
<g id="node3" class="node">
<title>inputWS</title>
<ellipse fill="khaki" stroke="black" cx="993.09" cy="-1395" rx="83.69" ry="18"/>
<text text-anchor="middle" x="993.09" y="-1391.3" font-family="Helvetica,sans-Serif" font-size="14.00">InputWorkspace</text>
</g>
<!-- ExtractMonitors -->
<g id="node17" class="node">
<title>ExtractMonitors</title>
<path fill="lightskyblue" stroke="black" d="M1012.09,-1286C1012.09,-1286 910.09,-1286 910.09,-1286 904.09,-1286 898.09,-1280 898.09,-1274 898.09,-1274 898.09,-1262 898.09,-1262 898.09,-1256 904.09,-1250 910.09,-1250 910.09,-1250 1012.09,-1250 1012.09,-1250 1018.09,-1250 1024.09,-1256 1024.09,-1262 1024.09,-1262 1024.09,-1274 1024.09,-1274 1024.09,-1280 1018.09,-1286 1012.09,-1286"/>
<text text-anchor="middle" x="961.09" y="-1264.3" font-family="Helvetica,sans-Serif" font-size="14.00">ExtractMonitors</text>
</g>
<!-- inputWS&#45;&gt;ExtractMonitors -->
<g id="edge5" class="edge">
<title>inputWS&#45;&gt;ExtractMonitors</title>
<path fill="none" stroke="black" d="M988.64,-1376.62C983.39,-1356.1 974.57,-1321.67 968.33,-1297.29"/>
<polygon fill="black" stroke="black" points="971.75,-1296.52 965.88,-1287.7 964.97,-1298.25 971.75,-1296.52"/>
</g>
<!-- inputBkg -->
<g id="node4" class="node">
<title>inputBkg</title>
<ellipse fill="khaki" stroke="black" cx="333.09" cy="-703" rx="94.48" ry="18"/>
<text text-anchor="middle" x="333.09" y="-699.3" font-family="Helvetica,sans-Serif" font-size="14.00">FlatBkgWorkspace</text>
</g>
<!-- inputBkg&#45;&gt;ScaleBkg -->
<g id="edge20" class="edge">
<title>inputBkg&#45;&gt;ScaleBkg</title>
<path fill="none" stroke="black" d="M337.45,-684.81C339.41,-677.05 341.79,-667.68 344,-658.95"/>
<polygon fill="black" stroke="black" points="347.33,-660.05 346.4,-649.5 340.55,-658.33 347.33,-660.05"/>
</g>
<!-- inputEi -->
<g id="node5" class="node">
<title>inputEi</title>
<ellipse fill="khaki" stroke="black" cx="379.09" cy="-377" rx="128.08" ry="18"/>
<text text-anchor="middle" x="379.09" y="-373.3" font-family="Helvetica,sans-Serif" font-size="14.00">IncidentEnergyWorkspace</text>
</g>
<!-- SetIncidentEnergy -->
<g id="node26" class="node">
<title>SetIncidentEnergy</title>
<path fill="lightskyblue" stroke="black" d="M443.09,-287C443.09,-287 315.09,-287 315.09,-287 309.09,-287 303.09,-281 303.09,-275 303.09,-275 303.09,-263 303.09,-263 303.09,-257 309.09,-251 315.09,-251 315.09,-251 443.09,-251 443.09,-251 449.09,-251 455.09,-257 455.09,-263 455.09,-263 455.09,-275 455.09,-275 455.09,-281 449.09,-287 443.09,-287"/>
<text text-anchor="middle" x="379.09" y="-265.3" font-family="Helvetica,sans-Serif" font-size="14.00">Set incident energy</text>
</g>
<!-- inputEi&#45;&gt;SetIncidentEnergy -->
<g id="edge29" class="edge">
<title>inputEi&#45;&gt;SetIncidentEnergy</title>
<path fill="none" stroke="black" d="M379.09,-358.97C379.09,-342.76 379.09,-318.06 379.09,-298.79"/>
<polygon fill="black" stroke="black" points="382.59,-298.85 379.09,-288.85 375.59,-298.85 382.59,-298.85"/>
</g>
<!-- inputElasticChannel -->
<g id="node6" class="node">
<title>inputElasticChannel</title>
<ellipse fill="khaki" stroke="black" cx="599.09" cy="-269" rx="126.18" ry="18"/>
<text text-anchor="middle" x="599.09" y="-265.3" font-family="Helvetica,sans-Serif" font-size="14.00">ElasticChannelWorkspace</text>
</g>
<!-- CorrectTOFAxis -->
<g id="node15" class="node">
<title>CorrectTOFAxis</title>
<path fill="lightskyblue" stroke="black" d="M594.09,-213C594.09,-213 496.09,-213 496.09,-213 490.09,-213 484.09,-207 484.09,-201 484.09,-201 484.09,-189 484.09,-189 484.09,-183 490.09,-177 496.09,-177 496.09,-177 594.09,-177 594.09,-177 600.09,-177 606.09,-183 606.09,-189 606.09,-189 606.09,-201 606.09,-201 606.09,-207 600.09,-213 594.09,-213"/>
<text text-anchor="middle" x="545.09" y="-191.3" font-family="Helvetica,sans-Serif" font-size="14.00">CorrectTOFAxis</text>
</g>
<!-- inputElasticChannel&#45;&gt;CorrectTOFAxis -->
<g id="edge34" class="edge">
<title>inputElasticChannel&#45;&gt;CorrectTOFAxis</title>
<path fill="none" stroke="black" d="M586.29,-250.94C579.93,-242.45 572.1,-232.01 564.97,-222.51"/>
<polygon fill="black" stroke="black" points="567.88,-220.55 559.08,-214.65 562.28,-224.75 567.88,-220.55"/>
</g>
<!-- outputBkg -->
<g id="node7" class="node">
<title>outputBkg</title>
<ellipse fill="khaki" stroke="black" cx="126.09" cy="-630" rx="126.18" ry="18"/>
<text text-anchor="middle" x="126.09" y="-626.3" font-family="Helvetica,sans-Serif" font-size="14.00">OutputFlatBkgWorkspace</text>
</g>
<!-- outputEi -->
<g id="node8" class="node">
<title>outputEi</title>
<ellipse fill="khaki" stroke="black" cx="285.09" cy="-195" rx="159.77" ry="18"/>
<text text-anchor="middle" x="285.09" y="-191.3" font-family="Helvetica,sans-Serif" font-size="14.00">OutputIncidentEnergyWorkspace</text>
</g>
<!-- outputElasticChannel -->
<g id="node9" class="node">
<title>outputElasticChannel</title>
<ellipse fill="khaki" stroke="black" cx="494.09" cy="-99.5" rx="157.87" ry="18"/>
<text text-anchor="middle" x="494.09" y="-95.8" font-family="Helvetica,sans-Serif" font-size="14.00">OutputElasticChannelWorkspace</text>
</g>
<!-- outputEPP -->
<g id="node10" class="node">
<title>outputEPP</title>
<ellipse fill="khaki" stroke="black" cx="713.09" cy="-18" rx="108.58" ry="18"/>
<text text-anchor="middle" x="713.09" y="-14.3" font-family="Helvetica,sans-Serif" font-size="14.00">OutputEPPWorkspace</text>
</g>
<!-- outputRaw -->
<g id="node11" class="node">
<title>outputRaw</title>
<ellipse fill="khaki" stroke="black" cx="1037.09" cy="-18" rx="110.48" ry="18"/>
<text text-anchor="middle" x="1037.09" y="-14.3" font-family="Helvetica,sans-Serif" font-size="14.00">OutputRawWorkspace</text>
</g>
<!-- outputWS -->
<g id="node12" class="node">
<title>outputWS</title>
<ellipse fill="khaki" stroke="black" cx="866.09" cy="-99.5" rx="91.78" ry="18"/>
<text text-anchor="middle" x="866.09" y="-95.8" font-family="Helvetica,sans-Serif" font-size="14.00">OutputWorkspace</text>
</g>
<!-- CalculateFlatBackground -->
<g id="node13" class="node">
<title>CalculateFlatBackground</title>
<path fill="lightskyblue" stroke="black" d="M208.59,-721C208.59,-721 43.59,-721 43.59,-721 37.59,-721 31.59,-715 31.59,-709 31.59,-709 31.59,-697 31.59,-697 31.59,-691 37.59,-685 43.59,-685 43.59,-685 208.59,-685 208.59,-685 214.59,-685 220.59,-691 220.59,-697 220.59,-697 220.59,-709 220.59,-709 220.59,-715 214.59,-721 208.59,-721"/>
<text text-anchor="middle" x="126.09" y="-699.3" font-family="Helvetica,sans-Serif" font-size="14.00">CalculateFlatBackground</text>
</g>
<!-- CalculateFlatBackground&#45;&gt;outputBkg -->
<g id="edge17" class="edge">
<title>CalculateFlatBackground&#45;&gt;outputBkg</title>
<path fill="none" stroke="black" d="M126.09,-684.81C126.09,-677.23 126.09,-668.1 126.09,-659.54"/>
<polygon fill="black" stroke="black" points="129.59,-659.54 126.09,-649.54 122.59,-659.54 129.59,-659.54"/>
</g>
<!-- CalculateFlatBackground&#45;&gt;ScaleBkg -->
<g id="edge18" class="edge">
<title>CalculateFlatBackground&#45;&gt;ScaleBkg</title>
<path fill="none" stroke="black" d="M181.42,-684.54C219.27,-672.6 268.88,-656.94 304.67,-645.65"/>
<polygon fill="black" stroke="black" points="305.38,-649.09 313.86,-642.75 303.27,-642.42 305.38,-649.09"/>
</g>
<!-- CalibrateEi -->
<g id="node14" class="node">
<title>CalibrateEi</title>
<path fill="lightskyblue" stroke="black" d="M272.59,-287C272.59,-287 105.59,-287 105.59,-287 99.59,-287 93.59,-281 93.59,-275 93.59,-275 93.59,-263 93.59,-263 93.59,-257 99.59,-251 105.59,-251 105.59,-251 272.59,-251 272.59,-251 278.59,-251 284.59,-257 284.59,-263 284.59,-263 284.59,-275 284.59,-275 284.59,-281 278.59,-287 272.59,-287"/>
<text text-anchor="middle" x="189.09" y="-265.3" font-family="Helvetica,sans-Serif" font-size="14.00">Calibrate incident energy</text>
</g>
<!-- CalibrateEi&#45;&gt;outputEi -->
<g id="edge27" class="edge">
<title>CalibrateEi&#45;&gt;outputEi</title>
<path fill="none" stroke="black" d="M212.33,-250.57C224.59,-241.37 239.82,-229.95 253.18,-219.93"/>
<polygon fill="black" stroke="black" points="254.95,-222.98 260.85,-214.18 250.75,-217.38 254.95,-222.98"/>
</g>
<!-- CalibrateEi&#45;&gt;CorrectTOFAxis -->
<g id="edge32" class="edge">
<title>CalibrateEi&#45;&gt;CorrectTOFAxis</title>
<path fill="none" stroke="black" d="M275.27,-250.57C335.65,-238.36 415.45,-222.22 472.57,-210.67"/>
<polygon fill="black" stroke="black" points="473.09,-214.13 482.2,-208.72 471.7,-207.27 473.09,-214.13"/>
</g>
<!-- CorrectTOFAxis&#45;&gt;outputElasticChannel -->
<g id="edge37" class="edge">
<title>CorrectTOFAxis&#45;&gt;outputElasticChannel</title>
<path fill="none" stroke="black" d="M531.02,-176.75C526.89,-171.26 522.56,-165.04 519.09,-159 513.57,-149.4 508.54,-138.34 504.46,-128.45"/>
<polygon fill="black" stroke="black" points="507.78,-127.32 500.85,-119.31 501.27,-129.9 507.78,-127.32"/>
</g>
<!-- CorrectTOFAxis&#45;&gt;outputWS -->
<g id="edge41" class="edge">
<title>CorrectTOFAxis&#45;&gt;outputWS</title>
<path fill="none" stroke="black" d="M606.3,-185.11C641.22,-179.28 685.58,-170.57 724.09,-159 757.83,-148.86 794.56,-133.61 822.22,-121.22"/>
<polygon fill="black" stroke="black" points="823.3,-124.57 830.97,-117.25 820.41,-118.19 823.3,-124.57"/>
</g>
<!-- CorrectTOFAxisRaw -->
<g id="node16" class="node">
<title>CorrectTOFAxisRaw</title>
<path fill="lightskyblue" stroke="black" d="M1086.09,-117.5C1086.09,-117.5 988.09,-117.5 988.09,-117.5 982.09,-117.5 976.09,-111.5 976.09,-105.5 976.09,-105.5 976.09,-93.5 976.09,-93.5 976.09,-87.5 982.09,-81.5 988.09,-81.5 988.09,-81.5 1086.09,-81.5 1086.09,-81.5 1092.09,-81.5 1098.09,-87.5 1098.09,-93.5 1098.09,-93.5 1098.09,-105.5 1098.09,-105.5 1098.09,-111.5 1092.09,-117.5 1086.09,-117.5"/>
<text text-anchor="middle" x="1037.09" y="-95.8" font-family="Helvetica,sans-Serif" font-size="14.00">CorrectTOFAxis</text>
</g>
<!-- CorrectTOFAxis&#45;&gt;CorrectTOFAxisRaw -->
<g id="edge38" class="edge">
<title>CorrectTOFAxis&#45;&gt;CorrectTOFAxisRaw</title>
<path fill="none" stroke="black" d="M606.14,-184.24C722.01,-165.7 962.73,-127.13 967.09,-126 972.14,-124.68 977.34,-123.15 982.52,-121.5"/>
<polygon fill="black" stroke="black" points="983.24,-124.95 991.62,-118.46 981.02,-118.31 983.24,-124.95"/>
<text text-anchor="middle" x="933.59" y="-147.8" font-family="Helvetica,sans-Serif" font-size="14.00">as reference workspace</text>
</g>
<!-- FindEPPAgain -->
<g id="node19" class="node">
<title>FindEPPAgain</title>
<path fill="lightskyblue" stroke="black" d="M744.59,-126C744.59,-126 681.59,-126 681.59,-126 675.59,-126 669.59,-120 669.59,-114 669.59,-114 669.59,-85 669.59,-85 669.59,-79 675.59,-73 681.59,-73 681.59,-73 744.59,-73 744.59,-73 750.59,-73 756.59,-79 756.59,-85 756.59,-85 756.59,-114 756.59,-114 756.59,-120 750.59,-126 744.59,-126"/>
<text text-anchor="middle" x="713.09" y="-110.8" font-family="Helvetica,sans-Serif" font-size="14.00">FindEPP</text>
<text text-anchor="middle" x="713.09" y="-95.8" font-family="Helvetica,sans-Serif" font-size="14.00">or</text>
<text text-anchor="middle" x="713.09" y="-80.8" font-family="Helvetica,sans-Serif" font-size="14.00">CreateEPP</text>
</g>
<!-- CorrectTOFAxis&#45;&gt;FindEPPAgain -->
<g id="edge40" class="edge">
<title>CorrectTOFAxis&#45;&gt;FindEPPAgain</title>
<path fill="none" stroke="black" d="M606.46,-188.2C646.46,-183.07 693.66,-174.01 707.09,-159 712.35,-153.12 714.98,-145.46 716.09,-137.63"/>
<polygon fill="black" stroke="black" points="719.58,-137.93 716.67,-127.74 712.59,-137.52 719.58,-137.93"/>
</g>
<!-- CorrectTOFAxisRaw&#45;&gt;outputRaw -->
<g id="edge39" class="edge">
<title>CorrectTOFAxisRaw&#45;&gt;outputRaw</title>
<path fill="none" stroke="black" d="M1037.09,-81.25C1037.09,-71.52 1037.09,-59.12 1037.09,-47.95"/>
<polygon fill="black" stroke="black" points="1040.59,-48 1037.09,-38 1033.59,-48 1040.59,-48"/>
</g>
<!-- detectors -->
<g id="node29" class="node">
<title>detectors</title>
<polygon fill="grey" stroke="black" points="1156.32,-1067 966.65,-1067 917.85,-1031 1107.53,-1031 1156.32,-1067"/>
<text text-anchor="middle" x="1037.09" y="-1045.3" font-family="Times,serif" font-size="14.00">Detector workspace</text>
</g>
<!-- ExtractMonitors&#45;&gt;detectors -->
<g id="edge10" class="edge">
<title>ExtractMonitors&#45;&gt;detectors</title>
<path fill="none" stroke="black" d="M983.9,-1249.68C994.83,-1240.1 1007.06,-1227.26 1014.09,-1213 1035.48,-1169.63 1038.64,-1112.37 1038.33,-1078.54"/>
<polygon fill="black" stroke="black" points="1041.83,-1078.64 1038.11,-1068.72 1034.83,-1078.79 1041.83,-1078.64"/>
</g>
<!-- monitors -->
<g id="node30" class="node">
<title>monitors</title>
<polygon fill="grey" stroke="black" points="1005.51,-1213 818.72,-1213 770.67,-1177 957.46,-1177 1005.51,-1213"/>
<text text-anchor="middle" x="888.09" y="-1191.3" font-family="Times,serif" font-size="14.00">Monitor workspace</text>
</g>
<!-- ExtractMonitors&#45;&gt;monitors -->
<g id="edge6" class="edge">
<title>ExtractMonitors&#45;&gt;monitors</title>
<path fill="none" stroke="black" d="M943.42,-1249.81C934.61,-1241.24 923.78,-1230.71 914.04,-1221.24"/>
<polygon fill="black" stroke="black" points="916.54,-1218.79 906.94,-1214.33 911.66,-1223.81 916.54,-1218.79"/>
</g>
<!-- FindEPP -->
<g id="node18" class="node">
<title>FindEPP</title>
<path fill="lightskyblue" stroke="black" d="M220.59,-403.5C220.59,-403.5 157.59,-403.5 157.59,-403.5 151.59,-403.5 145.59,-397.5 145.59,-391.5 145.59,-391.5 145.59,-362.5 145.59,-362.5 145.59,-356.5 151.59,-350.5 157.59,-350.5 157.59,-350.5 220.59,-350.5 220.59,-350.5 226.59,-350.5 232.59,-356.5 232.59,-362.5 232.59,-362.5 232.59,-391.5 232.59,-391.5 232.59,-397.5 226.59,-403.5 220.59,-403.5"/>
<text text-anchor="middle" x="189.09" y="-388.3" font-family="Helvetica,sans-Serif" font-size="14.00">FindEPP</text>
<text text-anchor="middle" x="189.09" y="-373.3" font-family="Helvetica,sans-Serif" font-size="14.00">or</text>
<text text-anchor="middle" x="189.09" y="-358.3" font-family="Helvetica,sans-Serif" font-size="14.00">CreateEPP</text>
</g>
<!-- FindEPP&#45;&gt;CalibrateEi -->
<g id="edge25" class="edge">
<title>FindEPP&#45;&gt;CalibrateEi</title>
<path fill="none" stroke="black" d="M189.09,-350.07C189.09,-334.54 189.09,-314.77 189.09,-298.76"/>
<polygon fill="black" stroke="black" points="192.59,-298.89 189.09,-288.89 185.59,-298.89 192.59,-298.89"/>
</g>
<!-- FindEPPAgain&#45;&gt;outputEPP -->
<g id="edge42" class="edge">
<title>FindEPPAgain&#45;&gt;outputEPP</title>
<path fill="none" stroke="black" d="M713.09,-72.91C713.09,-64.86 713.09,-55.91 713.09,-47.66"/>
<polygon fill="black" stroke="black" points="716.59,-47.77 713.09,-37.77 709.59,-47.77 716.59,-47.77"/>
</g>
<!-- FitElasticChannel -->
<g id="node20" class="node">
<title>FitElasticChannel</title>
<path fill="lightskyblue" stroke="black" d="M884.59,-288C884.59,-288 755.59,-288 755.59,-288 749.59,-288 743.59,-282 743.59,-276 743.59,-276 743.59,-262 743.59,-262 743.59,-256 749.59,-250 755.59,-250 755.59,-250 884.59,-250 884.59,-250 890.59,-250 896.59,-256 896.59,-262 896.59,-262 896.59,-276 896.59,-276 896.59,-282 890.59,-288 884.59,-288"/>
<text text-anchor="middle" x="820.09" y="-272.8" font-family="Helvetica,sans-Serif" font-size="14.00">Find elastic channel</text>
<text text-anchor="middle" x="820.09" y="-257.8" font-family="Helvetica,sans-Serif" font-size="14.00">by fitting</text>
</g>
<!-- FitElasticChannel&#45;&gt;CorrectTOFAxis -->
<g id="edge36" class="edge">
<title>FitElasticChannel&#45;&gt;CorrectTOFAxis</title>
<path fill="none" stroke="black" d="M749.63,-249.55C709.1,-238.94 658.29,-225.64 617.45,-214.95"/>
<polygon fill="black" stroke="black" points="618.51,-211.6 607.95,-212.46 616.74,-218.38 618.51,-211.6"/>
</g>
<!-- IntegrateMonitor -->
<g id="node21" class="node">
<title>IntegrateMonitor</title>
<path fill="lightskyblue" stroke="black" d="M887.59,-1067C887.59,-1067 772.59,-1067 772.59,-1067 766.59,-1067 760.59,-1061 760.59,-1055 760.59,-1055 760.59,-1043 760.59,-1043 760.59,-1037 766.59,-1031 772.59,-1031 772.59,-1031 887.59,-1031 887.59,-1031 893.59,-1031 899.59,-1037 899.59,-1043 899.59,-1043 899.59,-1055 899.59,-1055 899.59,-1061 893.59,-1067 887.59,-1067"/>
<text text-anchor="middle" x="830.09" y="-1045.3" font-family="Helvetica,sans-Serif" font-size="14.00">Integrate monitor</text>
</g>
<!-- Normalize -->
<g id="node23" class="node">
<title>Normalize</title>
<path fill="lightskyblue" stroke="black" d="M982.59,-974C982.59,-974 809.59,-974 809.59,-974 803.59,-974 797.59,-968 797.59,-962 797.59,-962 797.59,-950 797.59,-950 797.59,-944 803.59,-938 809.59,-938 809.59,-938 982.59,-938 982.59,-938 988.59,-938 994.59,-944 994.59,-950 994.59,-950 994.59,-962 994.59,-962 994.59,-968 988.59,-974 982.59,-974"/>
<text text-anchor="middle" x="896.09" y="-952.3" font-family="Helvetica,sans-Serif" font-size="14.00">Normalise to monitor/time</text>
</g>
<!-- IntegrateMonitor&#45;&gt;Normalize -->
<g id="edge9" class="edge">
<title>IntegrateMonitor&#45;&gt;Normalize</title>
<path fill="none" stroke="black" d="M842.5,-1030.88C852.21,-1017.5 865.88,-998.65 876.98,-983.34"/>
<polygon fill="black" stroke="black" points="879.58,-985.72 882.62,-975.57 873.91,-981.61 879.58,-985.72"/>
</g>
<!-- LoadAndMerge&#45;&gt;ExtractMonitors -->
<g id="edge3" class="edge">
<title>LoadAndMerge&#45;&gt;ExtractMonitors</title>
<path fill="none" stroke="black" d="M914.1,-1322.81C921.48,-1314.35 930.54,-1303.98 938.72,-1294.61"/>
<polygon fill="black" stroke="black" points="941.28,-1297 945.22,-1287.17 936.01,-1292.4 941.28,-1297"/>
</g>
<!-- ScaleAfterNormalization -->
<g id="node24" class="node">
<title>ScaleAfterNormalization</title>
<path fill="lightskyblue" stroke="black" d="M577.59,-881C577.59,-881 530.59,-881 530.59,-881 524.59,-881 518.59,-875 518.59,-869 518.59,-869 518.59,-857 518.59,-857 518.59,-851 524.59,-845 530.59,-845 530.59,-845 577.59,-845 577.59,-845 583.59,-845 589.59,-851 589.59,-857 589.59,-857 589.59,-869 589.59,-869 589.59,-875 583.59,-881 577.59,-881"/>
<text text-anchor="middle" x="554.09" y="-859.3" font-family="Helvetica,sans-Serif" font-size="14.00">Multiply</text>
</g>
<!-- Normalize&#45;&gt;ScaleAfterNormalization -->
<g id="edge13" class="edge">
<title>Normalize&#45;&gt;ScaleAfterNormalization</title>
<path fill="none" stroke="black" d="M848.58,-937.54C829.86,-930.97 808.1,-923.72 788.09,-918 724.02,-899.69 648.75,-883.19 601.23,-873.38"/>
<polygon fill="black" stroke="black" points="602.04,-869.98 591.54,-871.4 600.64,-876.84 602.04,-869.98"/>
</g>
<!-- SubtractBkgDetector -->
<g id="node27" class="node">
<title>SubtractBkgDetector</title>
<path fill="lightskyblue" stroke="black" d="M611.09,-575C611.09,-575 445.09,-575 445.09,-575 439.09,-575 433.09,-569 433.09,-563 433.09,-563 433.09,-551 433.09,-551 433.09,-545 439.09,-539 445.09,-539 445.09,-539 611.09,-539 611.09,-539 617.09,-539 623.09,-545 623.09,-551 623.09,-551 623.09,-563 623.09,-563 623.09,-569 617.09,-575 611.09,-575"/>
<text text-anchor="middle" x="528.09" y="-553.3" font-family="Helvetica,sans-Serif" font-size="14.00">Subtract flat background</text>
</g>
<!-- ScaleAfterNormalization&#45;&gt;SubtractBkgDetector -->
<g id="edge23" class="edge">
<title>ScaleAfterNormalization&#45;&gt;SubtractBkgDetector</title>
<path fill="none" stroke="black" d="M589.36,-844.71C608.41,-832.64 628.09,-814.5 628.09,-791 628.09,-791 628.09,-791 628.09,-629 628.09,-607.42 612.42,-591.8 593.49,-580.81"/>
<polygon fill="black" stroke="black" points="595.17,-577.74 584.69,-576.17 591.91,-583.93 595.17,-577.74"/>
</g>
<!-- inputBkgGiven -->
<g id="node33" class="node">
<title>inputBkgGiven</title>
<polygon fill="limegreen" stroke="black" points="333.09,-808 153.62,-790 333.09,-772 512.56,-790 333.09,-808"/>
<text text-anchor="middle" x="333.09" y="-786.3" font-family="Helvetica,sans-Serif" font-size="14.00">FlatBkgWorkspace given?</text>
</g>
<!-- ScaleAfterNormalization&#45;&gt;inputBkgGiven -->
<g id="edge15" class="edge">
<title>ScaleAfterNormalization&#45;&gt;inputBkgGiven</title>
<path fill="none" stroke="black" d="M518.09,-850.43C482.01,-838.84 426.11,-820.88 385.19,-807.74"/>
<polygon fill="black" stroke="black" points="386.37,-804.44 375.78,-804.72 384.23,-811.11 386.37,-804.44"/>
</g>
<!-- ScaleBkg&#45;&gt;SubtractBkgDetector -->
<g id="edge22" class="edge">
<title>ScaleBkg&#45;&gt;SubtractBkgDetector</title>
<path fill="none" stroke="black" d="M386.91,-614.63C411.9,-604.61 445.7,-591.05 473.96,-579.71"/>
<polygon fill="black" stroke="black" points="475.11,-583.02 483.09,-576.05 472.51,-576.52 475.11,-583.02"/>
</g>
<!-- SetIncidentEnergy&#45;&gt;outputEi -->
<g id="edge31" class="edge">
<title>SetIncidentEnergy&#45;&gt;outputEi</title>
<path fill="none" stroke="black" d="M356.33,-250.57C344.44,-241.46 329.7,-230.17 316.71,-220.22"/>
<polygon fill="black" stroke="black" points="318.9,-217.49 308.84,-214.19 314.65,-223.05 318.9,-217.49"/>
</g>
<!-- SetIncidentEnergy&#45;&gt;CorrectTOFAxis -->
<g id="edge30" class="edge">
<title>SetIncidentEnergy&#45;&gt;CorrectTOFAxis</title>
<path fill="none" stroke="black" d="M419.27,-250.57C441.92,-240.75 470.43,-228.38 494.59,-217.91"/>
<polygon fill="black" stroke="black" points="495.82,-221.19 503.6,-214 493.03,-214.76 495.82,-221.19"/>
</g>
<!-- inputEiGiven -->
<g id="node34" class="node">
<title>inputEiGiven</title>
<polygon fill="limegreen" stroke="black" points="528.09,-502 300.19,-484 528.09,-466 755.99,-484 528.09,-502"/>
<text text-anchor="middle" x="528.09" y="-480.3" font-family="Helvetica,sans-Serif" font-size="14.00">IncidentEnergyWorkspace given?</text>
</g>
<!-- SubtractBkgDetector&#45;&gt;inputEiGiven -->
<g id="edge24" class="edge">
<title>SubtractBkgDetector&#45;&gt;inputEiGiven</title>
<path fill="none" stroke="black" d="M528.09,-538.81C528.09,-531.23 528.09,-522.1 528.09,-513.54"/>
<polygon fill="black" stroke="black" points="531.59,-513.54 528.09,-503.54 524.59,-513.54 531.59,-513.54"/>
</g>
<!-- SubtractBkgMonitor -->
<g id="node28" class="node">
<title>SubtractBkgMonitor</title>
<path fill="lightskyblue" stroke="black" d="M925.09,-1140C925.09,-1140 759.09,-1140 759.09,-1140 753.09,-1140 747.09,-1134 747.09,-1128 747.09,-1128 747.09,-1116 747.09,-1116 747.09,-1110 753.09,-1104 759.09,-1104 759.09,-1104 925.09,-1104 925.09,-1104 931.09,-1104 937.09,-1110 937.09,-1116 937.09,-1116 937.09,-1128 937.09,-1128 937.09,-1134 931.09,-1140 925.09,-1140"/>
<text text-anchor="middle" x="842.09" y="-1118.3" font-family="Helvetica,sans-Serif" font-size="14.00">Subtract flat background</text>
</g>
<!-- SubtractBkgMonitor&#45;&gt;IntegrateMonitor -->
<g id="edge8" class="edge">
<title>SubtractBkgMonitor&#45;&gt;IntegrateMonitor</title>
<path fill="none" stroke="black" d="M839.18,-1103.81C837.89,-1096.14 836.32,-1086.89 834.86,-1078.24"/>
<polygon fill="black" stroke="black" points="838.34,-1077.8 833.22,-1068.52 831.43,-1078.96 838.34,-1077.8"/>
</g>
<!-- detectors&#45;&gt;CorrectTOFAxisRaw -->
<g id="edge12" class="edge">
<title>detectors&#45;&gt;CorrectTOFAxisRaw</title>
<path fill="none" stroke="black" d="M1037.09,-1030.55C1037.09,-1012.24 1037.09,-982.59 1037.09,-957 1037.09,-957 1037.09,-957 1037.09,-194 1037.09,-172.27 1037.09,-147.69 1037.09,-129.19"/>
<polygon fill="black" stroke="black" points="1040.59,-129.25 1037.09,-119.25 1033.59,-129.25 1040.59,-129.25"/>
</g>
<!-- detectors&#45;&gt;Normalize -->
<g id="edge11" class="edge">
<title>detectors&#45;&gt;Normalize</title>
<path fill="none" stroke="black" d="M1010.24,-1030.67C988.18,-1016.44 956.74,-996.14 932.44,-980.46"/>
<polygon fill="black" stroke="black" points="934.41,-977.57 924.11,-975.09 930.62,-983.45 934.41,-977.57"/>
</g>
<!-- monitors&#45;&gt;SubtractBkgMonitor -->
<g id="edge7" class="edge">
<title>monitors&#45;&gt;SubtractBkgMonitor</title>
<path fill="none" stroke="black" d="M876.95,-1176.81C871.64,-1168.62 865.17,-1158.62 859.25,-1149.48"/>
<polygon fill="black" stroke="black" points="862.32,-1147.79 853.94,-1141.3 856.44,-1151.59 862.32,-1147.79"/>
</g>
<!-- normalisationScaling -->
<g id="node31" class="node">
<title>normalisationScaling</title>
<polygon fill="grey" stroke="black" points="779.55,-994 409.75,-994 314.62,-918 684.42,-918 779.55,-994"/>
<text text-anchor="middle" x="547.09" y="-959.8" font-family="Times,serif" font-size="14.00">&#39;scaling_after_monitor_normalisation&#39;</text>
<text text-anchor="middle" x="547.09" y="-944.8" font-family="Times,serif" font-size="14.00">sample log</text>
</g>
<!-- normalisationScaling&#45;&gt;ScaleAfterNormalization -->
<g id="edge14" class="edge">
<title>normalisationScaling&#45;&gt;ScaleAfterNormalization</title>
<path fill="none" stroke="black" d="M549.96,-917.72C550.6,-909.38 551.27,-900.65 551.88,-892.72"/>
<polygon fill="black" stroke="black" points="555.35,-893.19 552.63,-882.95 548.37,-892.65 555.35,-893.19"/>
</g>
<!-- inputElasticChannelGiven -->
<g id="node32" class="node">
<title>inputElasticChannelGiven</title>
<polygon fill="limegreen" stroke="black" points="800.09,-415 606.09,-377 800.09,-339 994.09,-377 800.09,-415"/>
<text text-anchor="middle" x="800.09" y="-380.8" font-family="Helvetica,sans-Serif" font-size="14.00">ElasticChannelWorkspace</text>
<text text-anchor="middle" x="800.09" y="-365.8" font-family="Helvetica,sans-Serif" font-size="14.00">given?</text>
</g>
<!-- inputElasticChannelGiven&#45;&gt;inputElasticChannel -->
<g id="edge33" class="edge">
<title>inputElasticChannelGiven&#45;&gt;inputElasticChannel</title>
<path fill="none" stroke="black" d="M748.33,-348.7C714.99,-331.12 672.21,-308.56 641.01,-292.11"/>
<polygon fill="black" stroke="black" points="642.72,-289.05 632.24,-287.48 639.45,-295.24 642.72,-289.05"/>
<text text-anchor="middle" x="705.59" y="-309.8" font-family="Helvetica,sans-Serif" font-size="14.00">yes</text>
</g>
<!-- inputElasticChannelGiven&#45;&gt;FitElasticChannel -->
<g id="edge35" class="edge">
<title>inputElasticChannelGiven&#45;&gt;FitElasticChannel</title>
<path fill="none" stroke="black" d="M806.86,-340.11C809.35,-326.91 812.14,-312.13 814.51,-299.55"/>
<polygon fill="black" stroke="black" points="817.94,-300.25 816.36,-289.78 811.06,-298.95 817.94,-300.25"/>
<text text-anchor="middle" x="821.09" y="-309.8" font-family="Helvetica,sans-Serif" font-size="14.00">no</text>
</g>
<!-- inputBkgGiven&#45;&gt;inputBkg -->
<g id="edge19" class="edge">
<title>inputBkgGiven&#45;&gt;inputBkg</title>
<path fill="none" stroke="black" d="M333.09,-771.8C333.09,-760.58 333.09,-745.67 333.09,-732.69"/>
<polygon fill="black" stroke="black" points="336.59,-732.98 333.09,-722.98 329.59,-732.98 336.59,-732.98"/>
<text text-anchor="middle" x="345.59" y="-742.8" font-family="Helvetica,sans-Serif" font-size="14.00">yes</text>
</g>
<!-- inputBkgGiven&#45;&gt;CalculateFlatBackground -->
<g id="edge16" class="edge">
<title>inputBkgGiven&#45;&gt;CalculateFlatBackground</title>
<path fill="none" stroke="black" d="M298.91,-774.96C266.26,-761.56 216.59,-741.16 178.87,-725.67"/>
<polygon fill="black" stroke="black" points="180.55,-722.58 169.97,-722.02 177.89,-729.05 180.55,-722.58"/>
<text text-anchor="middle" x="251.09" y="-742.8" font-family="Helvetica,sans-Serif" font-size="14.00">no</text>
</g>
<!-- inputEiGiven&#45;&gt;FindEPP -->
<g id="edge26" class="edge">
<title>inputEiGiven&#45;&gt;FindEPP</title>
<path fill="none" stroke="black" d="M446.55,-471.98C387.85,-462.08 307.75,-444.44 242.09,-415 238.71,-413.49 235.32,-411.75 231.98,-409.87"/>
<polygon fill="black" stroke="black" points="233.82,-406.89 223.46,-404.67 230.18,-412.87 233.82,-406.89"/>
<text text-anchor="middle" x="343.09" y="-436.8" font-family="Helvetica,sans-Serif" font-size="14.00">no</text>
</g>
<!-- inputEiGiven&#45;&gt;SetIncidentEnergy -->
<g id="edge28" class="edge">
<title>inputEiGiven&#45;&gt;SetIncidentEnergy</title>
<path fill="none" stroke="black" d="M531.58,-466.19C536.58,-437.43 542.47,-378.09 516.09,-339 501.55,-317.46 478.2,-302.32 454.86,-291.83"/>
<polygon fill="black" stroke="black" points="456.5,-288.72 445.92,-288.06 453.77,-295.17 456.5,-288.72"/>
<text text-anchor="middle" x="548.59" y="-373.3" font-family="Helvetica,sans-Serif" font-size="14.00">yes</text>
</g>
<!-- inputFileGiven -->
<g id="node35" class="node">
<title>inputFileGiven</title>
<polygon fill="limegreen" stroke="black" points="954.09,-1554 867.79,-1536 954.09,-1518 1040.39,-1536 954.09,-1554"/>
<text text-anchor="middle" x="954.09" y="-1532.3" font-family="Helvetica,sans-Serif" font-size="14.00">Run given?</text>
</g>
<!-- inputFileGiven&#45;&gt;inputFile -->
<g id="edge1" class="edge">
<title>inputFileGiven&#45;&gt;inputFile</title>
<path fill="none" stroke="black" d="M945.18,-1519.52C941.85,-1513.51 938.14,-1506.51 935.09,-1500 931.71,-1492.81 928.37,-1484.88 925.42,-1477.49"/>
<polygon fill="black" stroke="black" points="928.72,-1476.33 921.82,-1468.29 922.2,-1478.87 928.72,-1476.33"/>
<text text-anchor="middle" x="947.59" y="-1488.8" font-family="Helvetica,sans-Serif" font-size="14.00">yes</text>
</g>
<!-- inputFileGiven&#45;&gt;inputWS -->
<g id="edge4" class="edge">
<title>inputFileGiven&#45;&gt;inputWS</title>
<path fill="none" stroke="black" d="M958.72,-1518.51C965.24,-1495.25 977.24,-1452.49 985.19,-1424.15"/>
<polygon fill="black" stroke="black" points="988.48,-1425.37 987.81,-1414.8 981.74,-1423.48 988.48,-1425.37"/>
<text text-anchor="middle" x="976.09" y="-1488.8" font-family="Helvetica,sans-Serif" font-size="14.00">no</text>
</g>
</g>
</svg>
