<?xml version="1.0" encoding="UTF-8" standalone="no"?>
<!DOCTYPE svg PUBLIC "-//W3C//DTD SVG 1.1//EN"
 "http://www.w3.org/Graphics/SVG/1.1/DTD/svg11.dtd">
<!-- Generated by graphviz version 13.1.2 (20250809.0930)
 -->
<!-- Title: Sample Pages: 1 -->
<svg width="690pt" height="980pt"
 viewBox="0.00 0.00 690.00 980.00" xmlns="http://www.w3.org/2000/svg" xmlns:xlink="http://www.w3.org/1999/xlink">
<g id="graph0" class="graph" transform="scale(1 1) rotate(0) translate(4 976)">
<title>Sample</title>
<polygon fill="white" stroke="none" points="-4,4 -4,-976 686.49,-976 686.49,4 -4,4"/>
<!-- Mask -->
<g id="node1" class="node">
<title>Mask</title>
<polygon fill="limegreen" stroke="black" points="578.28,-828 526.69,-810 578.28,-792 629.86,-810 578.28,-828"/>
<text xml:space="preserve" text-anchor="middle" x="578.28" y="-805.33" font-family="Helvetica,sans-Serif" font-size="14.00">Mask</text>
</g>
<!-- MaskDetectors -->
<g id="node10" class="node">
<title>MaskDetectors</title>
<path fill="lightskyblue" stroke="black" d="M582.65,-756C582.65,-756 487.9,-756 487.9,-756 481.9,-756 475.9,-750 475.9,-744 475.9,-744 475.9,-732 475.9,-732 475.9,-726 481.9,-720 487.9,-720 487.9,-720 582.65,-720 582.65,-720 588.65,-720 594.65,-726 594.65,-732 594.65,-732 594.65,-744 594.65,-744 594.65,-750 588.65,-756 582.65,-756"/>
<text xml:space="preserve" text-anchor="middle" x="535.28" y="-733.33" font-family="Helvetica,sans-Serif" font-size="14.00">MaskDetectors</text>
</g>
<!-- Mask&#45;&gt;MaskDetectors -->
<g id="edge6" class="edge">
<title>Mask&#45;&gt;MaskDetectors</title>
<path fill="none" stroke="black" d="M569.58,-794.83C564.51,-786.59 557.96,-775.93 551.94,-766.13"/>
<polygon fill="black" stroke="black" points="554.95,-764.35 546.74,-757.66 548.99,-768.01 554.95,-764.35"/>
</g>
<!-- Minus -->
<g id="node15" class="node">
<title>Minus</title>
<path fill="lightskyblue" stroke="black" d="M551.9,-684C551.9,-684 518.65,-684 518.65,-684 512.65,-684 506.65,-678 506.65,-672 506.65,-672 506.65,-660 506.65,-660 506.65,-654 512.65,-648 518.65,-648 518.65,-648 551.9,-648 551.9,-648 557.9,-648 563.9,-654 563.9,-660 563.9,-660 563.9,-672 563.9,-672 563.9,-678 557.9,-684 551.9,-684"/>
<text xml:space="preserve" text-anchor="middle" x="535.28" y="-661.33" font-family="Helvetica,sans-Serif" font-size="14.00">Minus</text>
</g>
<!-- Mask&#45;&gt;Minus -->
<g id="edge8" class="edge">
<title>Mask&#45;&gt;Minus</title>
<path fill="none" stroke="black" d="M588.1,-795.18C599.58,-777.19 615.53,-745.09 603.28,-720 596.85,-706.84 585.4,-696 573.71,-687.62"/>
<polygon fill="black" stroke="black" points="575.91,-684.88 565.64,-682.28 572.04,-690.72 575.91,-684.88"/>
</g>
<!-- SelfAttenuation -->
<g id="node2" class="node">
<title>SelfAttenuation</title>
<polygon fill="limegreen" stroke="black" points="535.28,-612 413.75,-594 535.28,-576 656.8,-594 535.28,-612"/>
<text xml:space="preserve" text-anchor="middle" x="535.28" y="-589.33" font-family="Helvetica,sans-Serif" font-size="14.00">SelfAttenuation</text>
</g>
<!-- PaalmanPingsMonteCarloAbsorption -->
<g id="node11" class="node">
<title>PaalmanPingsMonteCarloAbsorption</title>
<path fill="lightskyblue" stroke="black" d="M656.53,-540C656.53,-540 414.03,-540 414.03,-540 408.03,-540 402.03,-534 402.03,-528 402.03,-528 402.03,-516 402.03,-516 402.03,-510 408.03,-504 414.03,-504 414.03,-504 656.53,-504 656.53,-504 662.53,-504 668.53,-510 668.53,-516 668.53,-516 668.53,-528 668.53,-528 668.53,-534 662.53,-540 656.53,-540"/>
<text xml:space="preserve" text-anchor="middle" x="535.28" y="-517.33" font-family="Helvetica,sans-Serif" font-size="14.00">PaalmanPingsMonteCarloAbsorption</text>
</g>
<!-- SelfAttenuation&#45;&gt;PaalmanPingsMonteCarloAbsorption -->
<g id="edge12" class="edge">
<title>SelfAttenuation&#45;&gt;PaalmanPingsMonteCarloAbsorption</title>
<path fill="none" stroke="black" d="M535.28,-575.7C535.28,-568.41 535.28,-559.73 535.28,-551.54"/>
<polygon fill="black" stroke="black" points="538.78,-551.62 535.28,-541.62 531.78,-551.62 538.78,-551.62"/>
</g>
<!-- PaalmanPingsAbsorptionCorrection -->
<g id="node12" class="node">
<title>PaalmanPingsAbsorptionCorrection</title>
<path fill="lightskyblue" stroke="black" d="M372.4,-540C372.4,-540 138.15,-540 138.15,-540 132.15,-540 126.15,-534 126.15,-528 126.15,-528 126.15,-516 126.15,-516 126.15,-510 132.15,-504 138.15,-504 138.15,-504 372.4,-504 372.4,-504 378.4,-504 384.4,-510 384.4,-516 384.4,-516 384.4,-528 384.4,-528 384.4,-534 378.4,-540 372.4,-540"/>
<text xml:space="preserve" text-anchor="middle" x="255.28" y="-517.33" font-family="Helvetica,sans-Serif" font-size="14.00">PaalmanPingsAbsorptionCorrection</text>
</g>
<!-- SelfAttenuation&#45;&gt;PaalmanPingsAbsorptionCorrection -->
<g id="edge11" class="edge">
<title>SelfAttenuation&#45;&gt;PaalmanPingsAbsorptionCorrection</title>
<path fill="none" stroke="black" d="M491.53,-582.06C450.04,-571.69 386.71,-555.86 336.05,-543.19"/>
<polygon fill="black" stroke="black" points="337.14,-539.86 326.59,-540.83 335.44,-546.65 337.14,-539.86"/>
</g>
<!-- DirectILLReduction -->
<g id="node14" class="node">
<title>DirectILLReduction</title>
<path fill="lightskyblue" stroke="black" d="M595.78,-396C595.78,-396 474.78,-396 474.78,-396 468.78,-396 462.78,-390 462.78,-384 462.78,-384 462.78,-372 462.78,-372 462.78,-366 468.78,-360 474.78,-360 474.78,-360 595.78,-360 595.78,-360 601.78,-360 607.78,-366 607.78,-372 607.78,-372 607.78,-384 607.78,-384 607.78,-390 601.78,-396 595.78,-396"/>
<text xml:space="preserve" text-anchor="middle" x="535.28" y="-373.32" font-family="Helvetica,sans-Serif" font-size="14.00">DirectILLReduction</text>
</g>
<!-- SelfAttenuation&#45;&gt;DirectILLReduction -->
<g id="edge16" class="edge">
<title>SelfAttenuation&#45;&gt;DirectILLReduction</title>
<path fill="none" stroke="black" d="M600.62,-585.28C629.08,-578.31 659.87,-565.08 677.28,-540 695.41,-513.87 659.2,-436.42 655.28,-432 643.45,-418.67 627.64,-408.53 611.39,-400.89"/>
<polygon fill="black" stroke="black" points="613.19,-397.86 602.63,-397.05 610.38,-404.27 613.19,-397.86"/>
</g>
<!-- Group -->
<g id="node3" class="node">
<title>Group</title>
<polygon fill="limegreen" stroke="black" points="535.28,-324 477.74,-306 535.28,-288 592.82,-306 535.28,-324"/>
<text xml:space="preserve" text-anchor="middle" x="535.28" y="-301.32" font-family="Helvetica,sans-Serif" font-size="14.00">Group</text>
</g>
<!-- Save -->
<g id="node4" class="node">
<title>Save</title>
<polygon fill="limegreen" stroke="black" points="535.28,-180 485.92,-162 535.28,-144 584.63,-162 535.28,-180"/>
<text xml:space="preserve" text-anchor="middle" x="535.28" y="-157.32" font-family="Helvetica,sans-Serif" font-size="14.00">Save</text>
</g>
<!-- Group&#45;&gt;Save -->
<g id="edge21" class="edge">
<title>Group&#45;&gt;Save</title>
<path fill="none" stroke="black" d="M544.46,-290.83C550.56,-280.52 558.03,-265.98 561.28,-252 564.89,-236.41 564.89,-231.59 561.28,-216 558.97,-206.06 554.53,-195.84 549.96,-187.06"/>
<polygon fill="black" stroke="black" points="553.11,-185.53 545.19,-178.5 547,-188.94 553.11,-185.53"/>
</g>
<!-- GroupDetectors -->
<g id="node18" class="node">
<title>GroupDetectors</title>
<path fill="lightskyblue" stroke="black" d="M540.65,-252C540.65,-252 439.9,-252 439.9,-252 433.9,-252 427.9,-246 427.9,-240 427.9,-240 427.9,-228 427.9,-228 427.9,-222 433.9,-216 439.9,-216 439.9,-216 540.65,-216 540.65,-216 546.65,-216 552.65,-222 552.65,-228 552.65,-228 552.65,-240 552.65,-240 552.65,-246 546.65,-252 540.65,-252"/>
<text xml:space="preserve" text-anchor="middle" x="490.28" y="-229.32" font-family="Helvetica,sans-Serif" font-size="14.00">GroupDetectors</text>
</g>
<!-- Group&#45;&gt;GroupDetectors -->
<g id="edge19" class="edge">
<title>Group&#45;&gt;GroupDetectors</title>
<path fill="none" stroke="black" d="M525.95,-290.5C520.68,-282.29 513.92,-271.77 507.7,-262.1"/>
<polygon fill="black" stroke="black" points="510.67,-260.25 502.32,-253.73 504.78,-264.04 510.67,-260.25"/>
</g>
<!-- OutputWorkspace -->
<g id="node8" class="node">
<title>OutputWorkspace</title>
<polygon fill="grey" stroke="black" points="641.12,-36 472.75,-36 429.43,0 597.81,0 641.12,-36"/>
<text xml:space="preserve" text-anchor="middle" x="535.28" y="-11.82" font-family="Times,serif" font-size="14.00">OutputWorkspace</text>
</g>
<!-- Save&#45;&gt;OutputWorkspace -->
<g id="edge24" class="edge">
<title>Save&#45;&gt;OutputWorkspace</title>
<path fill="none" stroke="black" d="M542.35,-146.56C547.06,-136.13 552.81,-121.55 555.28,-108 558.15,-92.26 558.15,-87.74 555.28,-72 553.74,-63.58 550.94,-54.77 547.91,-46.79"/>
<polygon fill="black" stroke="black" points="551.18,-45.54 544.16,-37.61 544.7,-48.19 551.18,-45.54"/>
</g>
<!-- SaveOutput -->
<g id="node17" class="node">
<title>SaveOutput</title>
<path fill="lightskyblue" stroke="black" d="M534.53,-108C534.53,-108 460.03,-108 460.03,-108 454.03,-108 448.03,-102 448.03,-96 448.03,-96 448.03,-84 448.03,-84 448.03,-78 454.03,-72 460.03,-72 460.03,-72 534.53,-72 534.53,-72 540.53,-72 546.53,-78 546.53,-84 546.53,-84 546.53,-96 546.53,-96 546.53,-102 540.53,-108 534.53,-108"/>
<text xml:space="preserve" text-anchor="middle" x="497.28" y="-85.33" font-family="Helvetica,sans-Serif" font-size="14.00">SaveOutput</text>
</g>
<!-- Save&#45;&gt;SaveOutput -->
<g id="edge22" class="edge">
<title>Save&#45;&gt;SaveOutput</title>
<path fill="none" stroke="black" d="M527.4,-146.5C523,-138.38 517.36,-127.99 512.15,-118.4"/>
<polygon fill="black" stroke="black" points="515.32,-116.91 507.48,-109.79 509.17,-120.25 515.32,-116.91"/>
</g>
<!-- Runs -->
<g id="node5" class="node">
<title>Runs</title>
<ellipse fill="khaki" stroke="black" cx="578.28" cy="-954" rx="35.42" ry="18"/>
<text xml:space="preserve" text-anchor="middle" x="578.28" y="-949.33" font-family="Helvetica,sans-Serif" font-size="14.00">Runs</text>
</g>
<!-- DirectILLCollectData -->
<g id="node9" class="node">
<title>DirectILLCollectData</title>
<path fill="lightskyblue" stroke="black" d="M643.65,-900C643.65,-900 512.9,-900 512.9,-900 506.9,-900 500.9,-894 500.9,-888 500.9,-888 500.9,-876 500.9,-876 500.9,-870 506.9,-864 512.9,-864 512.9,-864 643.65,-864 643.65,-864 649.65,-864 655.65,-870 655.65,-876 655.65,-876 655.65,-888 655.65,-888 655.65,-894 649.65,-900 643.65,-900"/>
<text xml:space="preserve" text-anchor="middle" x="578.28" y="-877.33" font-family="Helvetica,sans-Serif" font-size="14.00">DirectILLCollectData</text>
</g>
<!-- Runs&#45;&gt;DirectILLCollectData -->
<g id="edge1" class="edge">
<title>Runs&#45;&gt;DirectILLCollectData</title>
<path fill="none" stroke="black" d="M578.28,-935.7C578.28,-928.41 578.28,-919.73 578.28,-911.54"/>
<polygon fill="black" stroke="black" points="581.78,-911.62 578.28,-901.62 574.78,-911.62 581.78,-911.62"/>
</g>
<!-- EmptyContainerWorkspace -->
<g id="node6" class="node">
<title>EmptyContainerWorkspace</title>
<ellipse fill="khaki" stroke="black" cx="143.28" cy="-738" rx="143.28" ry="18"/>
<text xml:space="preserve" text-anchor="middle" x="143.28" y="-733.33" font-family="Helvetica,sans-Serif" font-size="14.00">EmptyContainerWorkspace</text>
</g>
<!-- EmptyContainerWorkspace&#45;&gt;Minus -->
<g id="edge9" class="edge">
<title>EmptyContainerWorkspace&#45;&gt;Minus</title>
<path fill="none" stroke="black" d="M223.55,-722.67C306.21,-707.9 431.66,-685.5 495.27,-674.14"/>
<polygon fill="black" stroke="black" points="495.68,-677.63 504.91,-672.42 494.45,-670.73 495.68,-677.63"/>
</g>
<!-- VanadiumWorkspace -->
<g id="node7" class="node">
<title>VanadiumWorkspace</title>
<ellipse fill="khaki" stroke="black" cx="293.28" cy="-450" rx="112.76" ry="18"/>
<text xml:space="preserve" text-anchor="middle" x="293.28" y="-445.32" font-family="Helvetica,sans-Serif" font-size="14.00">VanadiumWorkspace</text>
</g>
<!-- VanadiumWorkspace&#45;&gt;DirectILLReduction -->
<g id="edge17" class="edge">
<title>VanadiumWorkspace&#45;&gt;DirectILLReduction</title>
<path fill="none" stroke="black" d="M346.09,-433.72C380.64,-423.73 426.22,-410.55 463.97,-399.62"/>
<polygon fill="black" stroke="black" points="464.82,-403.02 473.46,-396.88 462.88,-396.3 464.82,-403.02"/>
</g>
<!-- DirectILLCollectData&#45;&gt;Mask -->
<g id="edge2" class="edge">
<title>DirectILLCollectData&#45;&gt;Mask</title>
<path fill="none" stroke="black" d="M578.28,-863.7C578.28,-856.41 578.28,-847.73 578.28,-839.54"/>
<polygon fill="black" stroke="black" points="581.78,-839.62 578.28,-829.62 574.78,-839.62 581.78,-839.62"/>
</g>
<!-- MaskDetectors&#45;&gt;Minus -->
<g id="edge7" class="edge">
<title>MaskDetectors&#45;&gt;Minus</title>
<path fill="none" stroke="black" d="M535.28,-719.7C535.28,-712.41 535.28,-703.73 535.28,-695.54"/>
<polygon fill="black" stroke="black" points="538.78,-695.62 535.28,-685.62 531.78,-695.62 538.78,-695.62"/>
</g>
<!-- ApplyPaalmanPingsCorrection -->
<g id="node13" class="node">
<title>ApplyPaalmanPingsCorrection</title>
<path fill="lightskyblue" stroke="black" d="M634.4,-468C634.4,-468 436.15,-468 436.15,-468 430.15,-468 424.15,-462 424.15,-456 424.15,-456 424.15,-444 424.15,-444 424.15,-438 430.15,-432 436.15,-432 436.15,-432 634.4,-432 634.4,-432 640.4,-432 646.4,-438 646.4,-444 646.4,-444 646.4,-456 646.4,-456 646.4,-462 640.4,-468 634.4,-468"/>
<text xml:space="preserve" text-anchor="middle" x="535.28" y="-445.32" font-family="Helvetica,sans-Serif" font-size="14.00">ApplyPaalmanPingsCorrection</text>
</g>
<!-- PaalmanPingsMonteCarloAbsorption&#45;&gt;ApplyPaalmanPingsCorrection -->
<g id="edge14" class="edge">
<title>PaalmanPingsMonteCarloAbsorption&#45;&gt;ApplyPaalmanPingsCorrection</title>
<path fill="none" stroke="black" d="M535.28,-503.7C535.28,-496.41 535.28,-487.73 535.28,-479.54"/>
<polygon fill="black" stroke="black" points="538.78,-479.62 535.28,-469.62 531.78,-479.62 538.78,-479.62"/>
</g>
<!-- PaalmanPingsAbsorptionCorrection&#45;&gt;ApplyPaalmanPingsCorrection -->
<g id="edge13" class="edge">
<title>PaalmanPingsAbsorptionCorrection&#45;&gt;ApplyPaalmanPingsCorrection</title>
<path fill="none" stroke="black" d="M325.21,-503.52C364.53,-493.69 413.79,-481.37 454.72,-471.14"/>
<polygon fill="black" stroke="black" points="455.43,-474.57 464.28,-468.75 453.73,-467.78 455.43,-474.57"/>
</g>
<!-- ApplyPaalmanPingsCorrection&#45;&gt;DirectILLReduction -->
<g id="edge15" class="edge">
<title>ApplyPaalmanPingsCorrection&#45;&gt;DirectILLReduction</title>
<path fill="none" stroke="black" d="M535.28,-431.7C535.28,-424.41 535.28,-415.73 535.28,-407.54"/>
<polygon fill="black" stroke="black" points="538.78,-407.62 535.28,-397.62 531.78,-407.62 538.78,-407.62"/>
</g>
<!-- DirectILLReduction&#45;&gt;Group -->
<g id="edge18" class="edge">
<title>DirectILLReduction&#45;&gt;Group</title>
<path fill="none" stroke="black" d="M535.28,-359.7C535.28,-352.41 535.28,-343.73 535.28,-335.54"/>
<polygon fill="black" stroke="black" points="538.78,-335.62 535.28,-325.62 531.78,-335.62 538.78,-335.62"/>
</g>
<!-- Minus&#45;&gt;SelfAttenuation -->
<g id="edge10" class="edge">
<title>Minus&#45;&gt;SelfAttenuation</title>
<path fill="none" stroke="black" d="M535.28,-647.7C535.28,-640.41 535.28,-631.73 535.28,-623.54"/>
<polygon fill="black" stroke="black" points="538.78,-623.62 535.28,-613.62 531.78,-623.62 538.78,-623.62"/>
</g>
<!-- MaskWorkspace -->
<g id="node16" class="node">
<title>MaskWorkspace</title>
<path fill="lightskyblue" stroke="black" d="M433.15,-828C433.15,-828 329.4,-828 329.4,-828 323.4,-828 317.4,-822 317.4,-816 317.4,-816 317.4,-804 317.4,-804 317.4,-798 323.4,-792 329.4,-792 329.4,-792 433.15,-792 433.15,-792 439.15,-792 445.15,-798 445.15,-804 445.15,-804 445.15,-816 445.15,-816 445.15,-822 439.15,-828 433.15,-828"/>
<text xml:space="preserve" text-anchor="middle" x="381.28" y="-805.33" font-family="Helvetica,sans-Serif" font-size="14.00">MaskWorkspace</text>
</g>
<!-- MaskWorkspace&#45;&gt;MaskDetectors -->
<g id="edge5" class="edge">
<title>MaskWorkspace&#45;&gt;MaskDetectors</title>
<path fill="none" stroke="black" d="M419.74,-791.52C440.03,-782.29 465.13,-770.89 486.74,-761.06"/>
<polygon fill="black" stroke="black" points="488,-764.33 495.66,-757.01 485.11,-757.96 488,-764.33"/>
</g>
<!-- MaskCreation -->
<g id="node19" class="node">
<title>MaskCreation</title>
<ellipse fill="lightgrey" stroke="black" cx="381.28" cy="-738" rx="76.99" ry="18"/>
<text xml:space="preserve" text-anchor="middle" x="381.28" y="-733.33" font-family="Helvetica,sans-Serif" font-size="14.00">MaskCreation</text>
</g>
<!-- MaskWorkspace&#45;&gt;MaskCreation -->
<g id="edge3" class="edge">
<title>MaskWorkspace&#45;&gt;MaskCreation</title>
<path fill="none" stroke="black" d="M375.36,-791.7C374.61,-784.41 374.37,-775.73 374.63,-767.54"/>
<polygon fill="black" stroke="black" points="378.12,-767.82 375.28,-757.61 371.13,-767.36 378.12,-767.82"/>
</g>
<!-- SaveOutput&#45;&gt;OutputWorkspace -->
<g id="edge23" class="edge">
<title>SaveOutput&#45;&gt;OutputWorkspace</title>
<path fill="none" stroke="black" d="M506.67,-71.7C510.86,-63.98 515.89,-54.71 520.56,-46.11"/>
<polygon fill="black" stroke="black" points="523.57,-47.89 525.27,-37.43 517.42,-44.55 523.57,-47.89"/>
</g>
<!-- GroupDetectors&#45;&gt;Save -->
<g id="edge20" class="edge">
<title>GroupDetectors&#45;&gt;Save</title>
<path fill="none" stroke="black" d="M501.4,-215.7C507.12,-206.8 514.17,-195.84 520.35,-186.22"/>
<polygon fill="black" stroke="black" points="523.11,-188.4 525.57,-178.1 517.22,-184.62 523.11,-188.4"/>
</g>
<!-- MaskCreation&#45;&gt;MaskWorkspace -->
<g id="edge4" class="edge">
<title>MaskCreation&#45;&gt;MaskWorkspace</title>
<path fill="none" stroke="black" d="M387.17,-756.1C387.93,-763.37 388.19,-772.04 387.93,-780.24"/>
<polygon fill="black" stroke="black" points="384.44,-779.98 387.29,-790.19 391.43,-780.43 384.44,-779.98"/>
</g>
</g>
</svg>
