<?xml version="1.0" encoding="UTF-8" standalone="no"?>
<!DOCTYPE svg PUBLIC "-//W3C//DTD SVG 1.1//EN"
 "http://www.w3.org/Graphics/SVG/1.1/DTD/svg11.dtd">
<!-- Generated by graphviz version 11.0.0 (20240519.1550)
 -->
<!-- Title: DirectILLReduction Pages: 1 -->
<svg width="866pt" height="1042pt"
 viewBox="0.00 0.00 865.56 1041.75" xmlns="http://www.w3.org/2000/svg" xmlns:xlink="http://www.w3.org/1999/xlink">
<g id="graph0" class="graph" transform="scale(1 1) rotate(0) translate(4 1037.75)">
<title>DirectILLReduction</title>
<polygon fill="white" stroke="none" points="-4,4 -4,-1037.75 861.56,-1037.75 861.56,4 -4,4"/>
<text text-anchor="middle" x="428.78" y="-1016.45" font-family="Helvetica,sans-Serif" font-size="14.00">DirectILLReduction workflow diagram</text>
<!-- inputDiagnostics -->
<g id="node1" class="node">
<title>inputDiagnostics</title>
<ellipse fill="khaki" stroke="black" cx="617.48" cy="-918.5" rx="120.65" ry="18"/>
<text text-anchor="middle" x="617.48" y="-913.83" font-family="Helvetica,sans-Serif" font-size="14.00">DiagnosticsWorkspace</text>
</g>
<!-- ApplyDiagnostics -->
<g id="node11" class="node">
<title>ApplyDiagnostics</title>
<path fill="lightskyblue" stroke="black" d="M659.61,-847.25C659.61,-847.25 575.36,-847.25 575.36,-847.25 569.36,-847.25 563.36,-841.25 563.36,-835.25 563.36,-835.25 563.36,-823.25 563.36,-823.25 563.36,-817.25 569.36,-811.25 575.36,-811.25 575.36,-811.25 659.61,-811.25 659.61,-811.25 665.61,-811.25 671.61,-817.25 671.61,-823.25 671.61,-823.25 671.61,-835.25 671.61,-835.25 671.61,-841.25 665.61,-847.25 659.61,-847.25"/>
<text text-anchor="middle" x="617.48" y="-824.58" font-family="Helvetica,sans-Serif" font-size="14.00">Mask spectra</text>
</g>
<!-- inputDiagnostics&#45;&gt;ApplyDiagnostics -->
<g id="edge4" class="edge">
<title>inputDiagnostics&#45;&gt;ApplyDiagnostics</title>
<path fill="none" stroke="black" d="M617.48,-900.26C617.48,-888.43 617.48,-872.45 617.48,-858.75"/>
<polygon fill="black" stroke="black" points="620.98,-858.97 617.48,-848.97 613.98,-858.97 620.98,-858.97"/>
</g>
<!-- inputVana -->
<g id="node2" class="node">
<title>inputVana</title>
<ellipse fill="khaki" stroke="black" cx="381.48" cy="-829.25" rx="163.8" ry="18"/>
<text text-anchor="middle" x="381.48" y="-824.58" font-family="Helvetica,sans-Serif" font-size="14.00">IntegratedVanadiumWorkspace</text>
</g>
<!-- Normalize -->
<g id="node17" class="node">
<title>Normalize</title>
<path fill="lightskyblue" stroke="black" d="M399.23,-774.25C399.23,-774.25 363.73,-774.25 363.73,-774.25 357.73,-774.25 351.73,-768.25 351.73,-762.25 351.73,-762.25 351.73,-750.25 351.73,-750.25 351.73,-744.25 357.73,-738.25 363.73,-738.25 363.73,-738.25 399.23,-738.25 399.23,-738.25 405.23,-738.25 411.23,-744.25 411.23,-750.25 411.23,-750.25 411.23,-762.25 411.23,-762.25 411.23,-768.25 405.23,-774.25 399.23,-774.25"/>
<text text-anchor="middle" x="381.48" y="-751.58" font-family="Helvetica,sans-Serif" font-size="14.00">Divide</text>
</g>
<!-- inputVana&#45;&gt;Normalize -->
<g id="edge6" class="edge">
<title>inputVana&#45;&gt;Normalize</title>
<path fill="none" stroke="black" d="M381.48,-811.06C381.48,-803.48 381.48,-794.35 381.48,-785.79"/>
<polygon fill="black" stroke="black" points="384.98,-785.79 381.48,-775.79 377.98,-785.79 384.98,-785.79"/>
</g>
<!-- inputWS -->
<g id="node3" class="node">
<title>inputWS</title>
<ellipse fill="khaki" stroke="black" cx="220.48" cy="-990.5" rx="90.14" ry="18"/>
<text text-anchor="middle" x="220.48" y="-985.83" font-family="Helvetica,sans-Serif" font-size="14.00">InputWorkspace</text>
</g>
<!-- inputDiagnosticsGiven -->
<g id="node9" class="node">
<title>inputDiagnosticsGiven</title>
<polygon fill="limegreen" stroke="black" points="220.48,-936.5 0,-918.5 220.48,-900.5 440.96,-918.5 220.48,-936.5"/>
<text text-anchor="middle" x="220.48" y="-913.83" font-family="Helvetica,sans-Serif" font-size="14.00">DiagnosticsWorkspace given?</text>
</g>
<!-- inputWS&#45;&gt;inputDiagnosticsGiven -->
<g id="edge1" class="edge">
<title>inputWS&#45;&gt;inputDiagnosticsGiven</title>
<path fill="none" stroke="black" d="M220.48,-972.2C220.48,-964.91 220.48,-956.23 220.48,-948.04"/>
<polygon fill="black" stroke="black" points="223.98,-948.12 220.48,-938.12 216.98,-948.12 223.98,-948.12"/>
</g>
<!-- outputWS -->
<g id="node4" class="node">
<title>outputWS</title>
<ellipse fill="khaki" stroke="black" cx="748.48" cy="-18" rx="98.56" ry="18"/>
<text text-anchor="middle" x="748.48" y="-13.32" font-family="Helvetica,sans-Serif" font-size="14.00">OutputWorkspace</text>
</g>
<!-- outputOptionalWS -->
<g id="node5" class="node">
<title>outputOptionalWS</title>
<ellipse fill="khaki" stroke="black" cx="456.48" cy="-90" rx="175.9" ry="18"/>
<text text-anchor="middle" x="456.48" y="-85.33" font-family="Helvetica,sans-Serif" font-size="14.00">OutputSofThetaEnergyWorkspace</text>
</g>
<!-- qBinParams -->
<g id="node6" class="node">
<title>qBinParams</title>
<ellipse fill="khaki" stroke="black" cx="748.48" cy="-162" rx="109.08" ry="18"/>
<text text-anchor="middle" x="748.48" y="-157.32" font-family="Helvetica,sans-Serif" font-size="14.00">q rebinning settings</text>
</g>
<!-- SofQW -->
<g id="node19" class="node">
<title>SofQW</title>
<path fill="lightskyblue" stroke="black" d="M834.48,-108C834.48,-108 662.48,-108 662.48,-108 656.48,-108 650.48,-102 650.48,-96 650.48,-96 650.48,-84 650.48,-84 650.48,-78 656.48,-72 662.48,-72 662.48,-72 834.48,-72 834.48,-72 840.48,-72 846.48,-78 846.48,-84 846.48,-84 846.48,-96 846.48,-96 846.48,-102 840.48,-108 834.48,-108"/>
<text text-anchor="middle" x="748.48" y="-85.33" font-family="Helvetica,sans-Serif" font-size="14.00">SofQWNormalisedPolygon</text>
</g>
<!-- qBinParams&#45;&gt;SofQW -->
<g id="edge19" class="edge">
<title>qBinParams&#45;&gt;SofQW</title>
<path fill="none" stroke="black" d="M748.48,-143.7C748.48,-136.41 748.48,-127.73 748.48,-119.54"/>
<polygon fill="black" stroke="black" points="751.98,-119.62 748.48,-109.62 744.98,-119.62 751.98,-119.62"/>
</g>
<!-- wRebinParams -->
<g id="node7" class="node">
<title>wRebinParams</title>
<ellipse fill="khaki" stroke="black" cx="635.48" cy="-378" rx="136.96" ry="18"/>
<text text-anchor="middle" x="635.48" y="-373.32" font-family="Helvetica,sans-Serif" font-size="14.00">Energy rebinning settings</text>
</g>
<!-- Rebin -->
<g id="node18" class="node">
<title>Rebin</title>
<path fill="lightskyblue" stroke="black" d="M558.86,-324C558.86,-324 458.11,-324 458.11,-324 452.11,-324 446.11,-318 446.11,-312 446.11,-312 446.11,-300 446.11,-300 446.11,-294 452.11,-288 458.11,-288 458.11,-288 558.86,-288 558.86,-288 564.86,-288 570.86,-294 570.86,-300 570.86,-300 570.86,-312 570.86,-312 570.86,-318 564.86,-324 558.86,-324"/>
<text text-anchor="middle" x="508.48" y="-301.32" font-family="Helvetica,sans-Serif" font-size="14.00">Rebin in energy</text>
</g>
<!-- wRebinParams&#45;&gt;Rebin -->
<g id="edge14" class="edge">
<title>wRebinParams&#45;&gt;Rebin</title>
<path fill="none" stroke="black" d="M604.74,-360.05C588.22,-350.95 567.62,-339.59 549.72,-329.73"/>
<polygon fill="black" stroke="black" points="551.6,-326.77 541.15,-325.01 548.22,-332.9 551.6,-326.77"/>
</g>
<!-- absoluteUnitsEnabled -->
<g id="node8" class="node">
<title>absoluteUnitsEnabled</title>
<polygon fill="limegreen" stroke="black" points="381.48,-702.25 169.93,-684.25 381.48,-666.25 593.03,-684.25 381.48,-702.25"/>
<text text-anchor="middle" x="381.48" y="-679.58" font-family="Helvetica,sans-Serif" font-size="14.00">Normalise to absolute units?</text>
</g>
<!-- AbsoluteUnits -->
<g id="node10" class="node">
<title>AbsoluteUnits</title>
<path fill="lightskyblue" stroke="black" d="M562.23,-613C562.23,-613 412.73,-613 412.73,-613 406.73,-613 400.73,-607 400.73,-601 400.73,-601 400.73,-589 400.73,-589 400.73,-583 406.73,-577 412.73,-577 412.73,-577 562.23,-577 562.23,-577 568.23,-577 574.23,-583 574.23,-589 574.23,-589 574.23,-601 574.23,-601 574.23,-607 568.23,-613 562.23,-613"/>
<text text-anchor="middle" x="487.48" y="-590.33" font-family="Helvetica,sans-Serif" font-size="14.00">Scale to absolute units</text>
</g>
<!-- absoluteUnitsEnabled&#45;&gt;AbsoluteUnits -->
<g id="edge9" class="edge">
<title>absoluteUnitsEnabled&#45;&gt;AbsoluteUnits</title>
<path fill="none" stroke="black" d="M400.43,-667.65C416.33,-654.57 439.31,-635.65 457.66,-620.54"/>
<polygon fill="black" stroke="black" points="459.85,-623.28 465.35,-614.22 455.4,-617.87 459.85,-623.28"/>
<text text-anchor="middle" x="455.48" y="-634.95" font-family="Helvetica,sans-Serif" font-size="14.00">yes</text>
</g>
<!-- ConvertToEnergy -->
<g id="node13" class="node">
<title>ConvertToEnergy</title>
<path fill="lightskyblue" stroke="black" d="M486.23,-540C486.23,-540 276.73,-540 276.73,-540 270.73,-540 264.73,-534 264.73,-528 264.73,-528 264.73,-516 264.73,-516 264.73,-510 270.73,-504 276.73,-504 276.73,-504 486.23,-504 486.23,-504 492.23,-504 498.23,-510 498.23,-516 498.23,-516 498.23,-528 498.23,-528 498.23,-534 492.23,-540 486.23,-540"/>
<text text-anchor="middle" x="381.48" y="-517.33" font-family="Helvetica,sans-Serif" font-size="14.00">Convert TOF to energy transfer</text>
</g>
<!-- absoluteUnitsEnabled&#45;&gt;ConvertToEnergy -->
<g id="edge8" class="edge">
<title>absoluteUnitsEnabled&#45;&gt;ConvertToEnergy</title>
<path fill="none" stroke="black" d="M378.92,-666.32C376.07,-645.36 372.12,-608.55 374.23,-577 374.78,-568.76 375.8,-559.85 376.9,-551.7"/>
<polygon fill="black" stroke="black" points="380.35,-552.35 378.32,-541.95 373.42,-551.34 380.35,-552.35"/>
<text text-anchor="middle" x="382.11" y="-590.33" font-family="Helvetica,sans-Serif" font-size="14.00">no</text>
</g>
<!-- inputDiagnosticsGiven&#45;&gt;ApplyDiagnostics -->
<g id="edge3" class="edge">
<title>inputDiagnosticsGiven&#45;&gt;ApplyDiagnostics</title>
<path fill="none" stroke="black" d="M284.13,-905.22C349.07,-892.44 453,-871.31 551.81,-847.83"/>
<polygon fill="black" stroke="black" points="552.51,-851.26 561.42,-845.53 550.88,-844.45 552.51,-851.26"/>
<text text-anchor="middle" x="483.48" y="-869.2" font-family="Helvetica,sans-Serif" font-size="14.00">yes</text>
</g>
<!-- inputDiagnosticsGiven&#45;&gt;Normalize -->
<g id="edge2" class="edge">
<title>inputDiagnosticsGiven&#45;&gt;Normalize</title>
<path fill="none" stroke="black" d="M208.01,-901.11C192.61,-878.72 170.81,-838.27 191.23,-811.25 209.14,-787.55 289.75,-771.22 340.12,-763.12"/>
<polygon fill="black" stroke="black" points="340.46,-766.61 349.8,-761.61 339.38,-759.7 340.46,-766.61"/>
<text text-anchor="middle" x="200.11" y="-824.58" font-family="Helvetica,sans-Serif" font-size="14.00">no</text>
</g>
<!-- AbsoluteUnits&#45;&gt;ConvertToEnergy -->
<g id="edge10" class="edge">
<title>AbsoluteUnits&#45;&gt;ConvertToEnergy</title>
<path fill="none" stroke="black" d="M461.55,-576.63C448.08,-567.61 431.41,-556.44 416.78,-546.64"/>
<polygon fill="black" stroke="black" points="419.03,-543.93 408.77,-541.28 415.13,-549.75 419.03,-543.93"/>
</g>
<!-- ApplyDiagnostics&#45;&gt;Normalize -->
<g id="edge5" class="edge">
<title>ApplyDiagnostics&#45;&gt;Normalize</title>
<path fill="none" stroke="black" d="M563.04,-811.87C520.17,-798.98 461.35,-781.28 422.42,-769.57"/>
<polygon fill="black" stroke="black" points="423.54,-766.25 412.96,-766.72 421.53,-772.95 423.54,-766.25"/>
</g>
<!-- ConvertToDistribution -->
<g id="node12" class="node">
<title>ConvertToDistribution</title>
<path fill="lightskyblue" stroke="black" d="M579.48,-252C579.48,-252 437.48,-252 437.48,-252 431.48,-252 425.48,-246 425.48,-240 425.48,-240 425.48,-228 425.48,-228 425.48,-222 431.48,-216 437.48,-216 437.48,-216 579.48,-216 579.48,-216 585.48,-216 591.48,-222 591.48,-228 591.48,-228 591.48,-240 591.48,-240 591.48,-246 585.48,-252 579.48,-252"/>
<text text-anchor="middle" x="508.48" y="-229.32" font-family="Helvetica,sans-Serif" font-size="14.00">ConvertToDistribution</text>
</g>
<!-- GroupDetectors -->
<g id="node16" class="node">
<title>GroupDetectors</title>
<path fill="lightskyblue" stroke="black" d="M558.86,-180C558.86,-180 458.11,-180 458.11,-180 452.11,-180 446.11,-174 446.11,-168 446.11,-168 446.11,-156 446.11,-156 446.11,-150 452.11,-144 458.11,-144 458.11,-144 558.86,-144 558.86,-144 564.86,-144 570.86,-150 570.86,-156 570.86,-156 570.86,-168 570.86,-168 570.86,-174 564.86,-180 558.86,-180"/>
<text text-anchor="middle" x="508.48" y="-157.32" font-family="Helvetica,sans-Serif" font-size="14.00">GroupDetectors</text>
</g>
<!-- ConvertToDistribution&#45;&gt;GroupDetectors -->
<g id="edge16" class="edge">
<title>ConvertToDistribution&#45;&gt;GroupDetectors</title>
<path fill="none" stroke="black" d="M508.48,-215.7C508.48,-208.41 508.48,-199.73 508.48,-191.54"/>
<polygon fill="black" stroke="black" points="511.98,-191.62 508.48,-181.62 504.98,-191.62 511.98,-191.62"/>
</g>
<!-- CorrectKiKf -->
<g id="node14" class="node">
<title>CorrectKiKf</title>
<path fill="lightskyblue" stroke="black" d="M415.73,-468C415.73,-468 347.23,-468 347.23,-468 341.23,-468 335.23,-462 335.23,-456 335.23,-456 335.23,-444 335.23,-444 335.23,-438 341.23,-432 347.23,-432 347.23,-432 415.73,-432 415.73,-432 421.73,-432 427.73,-438 427.73,-444 427.73,-444 427.73,-456 427.73,-456 427.73,-462 421.73,-468 415.73,-468"/>
<text text-anchor="middle" x="381.48" y="-445.32" font-family="Helvetica,sans-Serif" font-size="14.00">CorrectKiKf</text>
</g>
<!-- ConvertToEnergy&#45;&gt;CorrectKiKf -->
<g id="edge11" class="edge">
<title>ConvertToEnergy&#45;&gt;CorrectKiKf</title>
<path fill="none" stroke="black" d="M381.48,-503.7C381.48,-496.41 381.48,-487.73 381.48,-479.54"/>
<polygon fill="black" stroke="black" points="384.98,-479.62 381.48,-469.62 377.98,-479.62 384.98,-479.62"/>
</g>
<!-- DetectorEfficiency -->
<g id="node15" class="node">
<title>DetectorEfficiency</title>
<path fill="lightskyblue" stroke="black" d="M468.61,-396C468.61,-396 294.36,-396 294.36,-396 288.36,-396 282.36,-390 282.36,-384 282.36,-384 282.36,-372 282.36,-372 282.36,-366 288.36,-360 294.36,-360 294.36,-360 468.61,-360 468.61,-360 474.61,-360 480.61,-366 480.61,-372 480.61,-372 480.61,-384 480.61,-384 480.61,-390 474.61,-396 468.61,-396"/>
<text text-anchor="middle" x="381.48" y="-373.32" font-family="Helvetica,sans-Serif" font-size="14.00">DetectorEfficiencyCorUser</text>
</g>
<!-- CorrectKiKf&#45;&gt;DetectorEfficiency -->
<g id="edge12" class="edge">
<title>CorrectKiKf&#45;&gt;DetectorEfficiency</title>
<path fill="none" stroke="black" d="M381.48,-431.7C381.48,-424.41 381.48,-415.73 381.48,-407.54"/>
<polygon fill="black" stroke="black" points="384.98,-407.62 381.48,-397.62 377.98,-407.62 384.98,-407.62"/>
</g>
<!-- DetectorEfficiency&#45;&gt;Rebin -->
<g id="edge13" class="edge">
<title>DetectorEfficiency&#45;&gt;Rebin</title>
<path fill="none" stroke="black" d="M413.2,-359.52C429.54,-350.51 449.66,-339.42 467.19,-329.76"/>
<polygon fill="black" stroke="black" points="468.77,-332.88 475.84,-324.99 465.39,-326.75 468.77,-332.88"/>
</g>
<!-- GroupDetectors&#45;&gt;outputOptionalWS -->
<g id="edge17" class="edge">
<title>GroupDetectors&#45;&gt;outputOptionalWS</title>
<path fill="none" stroke="black" d="M495.63,-143.7C489.71,-135.73 482.56,-126.1 475.99,-117.26"/>
<polygon fill="black" stroke="black" points="478.86,-115.26 470.09,-109.32 473.24,-119.43 478.86,-115.26"/>
</g>
<!-- GroupDetectors&#45;&gt;SofQW -->
<g id="edge18" class="edge">
<title>GroupDetectors&#45;&gt;SofQW</title>
<path fill="none" stroke="black" d="M568.42,-143.52C601.62,-133.83 643.09,-121.74 677.85,-111.6"/>
<polygon fill="black" stroke="black" points="678.81,-114.97 687.43,-108.81 676.85,-108.25 678.81,-114.97"/>
</g>
<!-- Normalize&#45;&gt;absoluteUnitsEnabled -->
<g id="edge7" class="edge">
<title>Normalize&#45;&gt;absoluteUnitsEnabled</title>
<path fill="none" stroke="black" d="M381.48,-737.95C381.48,-730.66 381.48,-721.98 381.48,-713.79"/>
<polygon fill="black" stroke="black" points="384.98,-713.87 381.48,-703.87 377.98,-713.87 384.98,-713.87"/>
</g>
<!-- Rebin&#45;&gt;ConvertToDistribution -->
<g id="edge15" class="edge">
<title>Rebin&#45;&gt;ConvertToDistribution</title>
<path fill="none" stroke="black" d="M508.48,-287.7C508.48,-280.41 508.48,-271.73 508.48,-263.54"/>
<polygon fill="black" stroke="black" points="511.98,-263.62 508.48,-253.62 504.98,-263.62 511.98,-263.62"/>
</g>
<!-- SofQW&#45;&gt;outputWS -->
<g id="edge20" class="edge">
<title>SofQW&#45;&gt;outputWS</title>
<path fill="none" stroke="black" d="M748.48,-71.7C748.48,-64.41 748.48,-55.73 748.48,-47.54"/>
<polygon fill="black" stroke="black" points="751.98,-47.62 748.48,-37.62 744.98,-47.62 751.98,-47.62"/>
</g>
</g>
</svg>
