<?xml version="1.0" encoding="UTF-8" standalone="no"?>
<!DOCTYPE svg PUBLIC "-//W3C//DTD SVG 1.1//EN"
 "http://www.w3.org/Graphics/SVG/1.1/DTD/svg11.dtd">
<!-- Generated by graphviz version 13.1.2 (20250809.0930)
 -->
<!-- Title: DirectILLCollectData Pages: 1 -->
<svg width="1057pt" height="1616pt"
 viewBox="0.00 0.00 1057.00 1616.00" xmlns="http://www.w3.org/2000/svg" xmlns:xlink="http://www.w3.org/1999/xlink">
<g id="graph0" class="graph" transform="scale(1 1) rotate(0) translate(4 1611.75)">
<title>DirectILLCollectData</title>
<polygon fill="white" stroke="none" points="-4,4 -4,-1611.75 1053.45,-1611.75 1053.45,4 -4,4"/>
<text xml:space="preserve" text-anchor="middle" x="524.73" y="-1590.45" font-family="Helvetica,sans-Serif" font-size="14.00">DirectILLCollectData workflow diagram</text>
<!-- bkgScaling -->
<g id="node1" class="node">
<title>bkgScaling</title>
<ellipse fill="khaki" stroke="black" cx="618.38" cy="-730" rx="83.3" ry="18"/>
<text xml:space="preserve" text-anchor="middle" x="618.38" y="-725.33" font-family="Helvetica,sans-Serif" font-size="14.00">FlatBkgScaling</text>
</g>
<!-- ScaleBkg -->
<g id="node25" class="node">
<title>ScaleBkg</title>
<path fill="lightskyblue" stroke="black" d="M451.75,-675C451.75,-675 405,-675 405,-675 399,-675 393,-669 393,-663 393,-663 393,-651 393,-651 393,-645 399,-639 405,-639 405,-639 451.75,-639 451.75,-639 457.75,-639 463.75,-645 463.75,-651 463.75,-651 463.75,-663 463.75,-663 463.75,-669 457.75,-675 451.75,-675"/>
<text xml:space="preserve" text-anchor="middle" x="428.38" y="-652.33" font-family="Helvetica,sans-Serif" font-size="14.00">Multiply</text>
</g>
<!-- bkgScaling&#45;&gt;ScaleBkg -->
<g id="edge21" class="edge">
<title>bkgScaling&#45;&gt;ScaleBkg</title>
<path fill="none" stroke="black" d="M578.08,-713.94C547.87,-702.65 506.47,-687.18 474.86,-675.37"/>
<polygon fill="black" stroke="black" points="476.14,-672.11 465.54,-671.89 473.69,-678.67 476.14,-672.11"/>
</g>
<!-- inputFile -->
<g id="node2" class="node">
<title>inputFile</title>
<ellipse fill="khaki" stroke="black" cx="810.38" cy="-1475.25" rx="30.16" ry="18"/>
<text xml:space="preserve" text-anchor="middle" x="810.38" y="-1470.58" font-family="Helvetica,sans-Serif" font-size="14.00">Run</text>
</g>
<!-- LoadAndMerge -->
<g id="node22" class="node">
<title>LoadAndMerge</title>
<path fill="lightskyblue" stroke="black" d="M843.12,-1385.25C843.12,-1385.25 747.62,-1385.25 747.62,-1385.25 741.62,-1385.25 735.62,-1379.25 735.62,-1373.25 735.62,-1373.25 735.62,-1361.25 735.62,-1361.25 735.62,-1355.25 741.62,-1349.25 747.62,-1349.25 747.62,-1349.25 843.12,-1349.25 843.12,-1349.25 849.12,-1349.25 855.12,-1355.25 855.12,-1361.25 855.12,-1361.25 855.12,-1373.25 855.12,-1373.25 855.12,-1379.25 849.12,-1385.25 843.12,-1385.25"/>
<text xml:space="preserve" text-anchor="middle" x="795.38" y="-1362.58" font-family="Helvetica,sans-Serif" font-size="14.00">LoadAndMerge</text>
</g>
<!-- inputFile&#45;&gt;LoadAndMerge -->
<g id="edge2" class="edge">
<title>inputFile&#45;&gt;LoadAndMerge</title>
<path fill="none" stroke="black" d="M805.4,-1457.28C803.9,-1451.59 802.38,-1445.19 801.38,-1439.25 799.02,-1425.34 797.57,-1409.72 796.69,-1396.69"/>
<polygon fill="black" stroke="black" points="800.2,-1396.85 796.12,-1387.08 793.22,-1397.27 800.2,-1396.85"/>
</g>
<!-- inputWS -->
<g id="node3" class="node">
<title>inputWS</title>
<ellipse fill="khaki" stroke="black" cx="892.38" cy="-1421.25" rx="90.14" ry="18"/>
<text xml:space="preserve" text-anchor="middle" x="892.38" y="-1416.58" font-family="Helvetica,sans-Serif" font-size="14.00">InputWorkspace</text>
</g>
<!-- ExtractMonitors -->
<g id="node17" class="node">
<title>ExtractMonitors</title>
<path fill="lightskyblue" stroke="black" d="M907.12,-1312.25C907.12,-1312.25 805.62,-1312.25 805.62,-1312.25 799.62,-1312.25 793.62,-1306.25 793.62,-1300.25 793.62,-1300.25 793.62,-1288.25 793.62,-1288.25 793.62,-1282.25 799.62,-1276.25 805.62,-1276.25 805.62,-1276.25 907.12,-1276.25 907.12,-1276.25 913.12,-1276.25 919.12,-1282.25 919.12,-1288.25 919.12,-1288.25 919.12,-1300.25 919.12,-1300.25 919.12,-1306.25 913.12,-1312.25 907.12,-1312.25"/>
<text xml:space="preserve" text-anchor="middle" x="856.38" y="-1289.58" font-family="Helvetica,sans-Serif" font-size="14.00">ExtractMonitors</text>
</g>
<!-- inputWS&#45;&gt;ExtractMonitors -->
<g id="edge5" class="edge">
<title>inputWS&#45;&gt;ExtractMonitors</title>
<path fill="none" stroke="black" d="M887.37,-1402.87C881.46,-1382.35 871.55,-1347.92 864.52,-1323.54"/>
<polygon fill="black" stroke="black" points="867.89,-1322.58 861.76,-1313.94 861.16,-1324.52 867.89,-1322.58"/>
</g>
<!-- inputBkg -->
<g id="node4" class="node">
<title>inputBkg</title>
<ellipse fill="khaki" stroke="black" cx="416.38" cy="-730" rx="101.19" ry="18"/>
<text xml:space="preserve" text-anchor="middle" x="416.38" y="-725.33" font-family="Helvetica,sans-Serif" font-size="14.00">FlatBkgWorkspace</text>
</g>
<!-- inputBkg&#45;&gt;ScaleBkg -->
<g id="edge20" class="edge">
<title>inputBkg&#45;&gt;ScaleBkg</title>
<path fill="none" stroke="black" d="M419.28,-711.81C420.58,-704.14 422.14,-694.89 423.6,-686.24"/>
<polygon fill="black" stroke="black" points="427.03,-686.96 425.24,-676.52 420.13,-685.8 427.03,-686.96"/>
</g>
<!-- inputEi -->
<g id="node5" class="node">
<title>inputEi</title>
<ellipse fill="khaki" stroke="black" cx="284.38" cy="-397.25" rx="138.02" ry="18"/>
<text xml:space="preserve" text-anchor="middle" x="284.38" y="-392.57" font-family="Helvetica,sans-Serif" font-size="14.00">IncidentEnergyWorkspace</text>
</g>
<!-- SetIncidentEnergy -->
<g id="node26" class="node">
<title>SetIncidentEnergy</title>
<path fill="lightskyblue" stroke="black" d="M347.88,-298.25C347.88,-298.25 220.88,-298.25 220.88,-298.25 214.88,-298.25 208.88,-292.25 208.88,-286.25 208.88,-286.25 208.88,-274.25 208.88,-274.25 208.88,-268.25 214.88,-262.25 220.88,-262.25 220.88,-262.25 347.88,-262.25 347.88,-262.25 353.88,-262.25 359.88,-268.25 359.88,-274.25 359.88,-274.25 359.88,-286.25 359.88,-286.25 359.88,-292.25 353.88,-298.25 347.88,-298.25"/>
<text xml:space="preserve" text-anchor="middle" x="284.38" y="-275.57" font-family="Helvetica,sans-Serif" font-size="14.00">Set incident energy</text>
</g>
<!-- inputEi&#45;&gt;SetIncidentEnergy -->
<g id="edge29" class="edge">
<title>inputEi&#45;&gt;SetIncidentEnergy</title>
<path fill="none" stroke="black" d="M284.38,-378.78C284.38,-360.53 284.38,-331.58 284.38,-309.95"/>
<polygon fill="black" stroke="black" points="287.88,-310.02 284.38,-300.02 280.88,-310.02 287.88,-310.02"/>
</g>
<!-- inputElasticChannel -->
<g id="node6" class="node">
<title>inputElasticChannel</title>
<ellipse fill="khaki" stroke="black" cx="513.38" cy="-280.25" rx="135.91" ry="18"/>
<text xml:space="preserve" text-anchor="middle" x="513.38" y="-275.57" font-family="Helvetica,sans-Serif" font-size="14.00">ElasticChannelWorkspace</text>
</g>
<!-- CorrectTOFAxis -->
<g id="node15" class="node">
<title>CorrectTOFAxis</title>
<path fill="lightskyblue" stroke="black" d="M494.88,-222C494.88,-222 397.88,-222 397.88,-222 391.88,-222 385.88,-216 385.88,-210 385.88,-210 385.88,-198 385.88,-198 385.88,-192 391.88,-186 397.88,-186 397.88,-186 494.88,-186 494.88,-186 500.88,-186 506.88,-192 506.88,-198 506.88,-198 506.88,-210 506.88,-210 506.88,-216 500.88,-222 494.88,-222"/>
<text xml:space="preserve" text-anchor="middle" x="446.38" y="-199.32" font-family="Helvetica,sans-Serif" font-size="14.00">CorrectTOFAxis</text>
</g>
<!-- inputElasticChannel&#45;&gt;CorrectTOFAxis -->
<g id="edge34" class="edge">
<title>inputElasticChannel&#45;&gt;CorrectTOFAxis</title>
<path fill="none" stroke="black" d="M497.84,-262.03C489.44,-252.72 478.91,-241.05 469.56,-230.69"/>
<polygon fill="black" stroke="black" points="472.37,-228.59 463.08,-223.51 467.18,-233.28 472.37,-228.59"/>
</g>
<!-- outputBkg -->
<g id="node7" class="node">
<title>outputBkg</title>
<ellipse fill="khaki" stroke="black" cx="203.38" cy="-657" rx="135.39" ry="18"/>
<text xml:space="preserve" text-anchor="middle" x="203.38" y="-652.33" font-family="Helvetica,sans-Serif" font-size="14.00">OutputFlatBkgWorkspace</text>
</g>
<!-- outputEi -->
<g id="node8" class="node">
<title>outputEi</title>
<ellipse fill="khaki" stroke="black" cx="181.38" cy="-204" rx="172.21" ry="18"/>
<text xml:space="preserve" text-anchor="middle" x="181.38" y="-199.32" font-family="Helvetica,sans-Serif" font-size="14.00">OutputIncidentEnergyWorkspace</text>
</g>
<!-- outputElasticChannel -->
<g id="node9" class="node">
<title>outputElasticChannel</title>
<ellipse fill="khaki" stroke="black" cx="362.38" cy="-102.88" rx="170.11" ry="18"/>
<text xml:space="preserve" text-anchor="middle" x="362.38" y="-98.2" font-family="Helvetica,sans-Serif" font-size="14.00">OutputElasticChannelWorkspace</text>
</g>
<!-- outputEPP -->
<g id="node10" class="node">
<title>outputEPP</title>
<ellipse fill="khaki" stroke="black" cx="593.38" cy="-18" rx="116.45" ry="18"/>
<text xml:space="preserve" text-anchor="middle" x="593.38" y="-13.32" font-family="Helvetica,sans-Serif" font-size="14.00">OutputEPPWorkspace</text>
</g>
<!-- outputRaw -->
<g id="node11" class="node">
<title>outputRaw</title>
<ellipse fill="khaki" stroke="black" cx="930.38" cy="-18" rx="119.08" ry="18"/>
<text xml:space="preserve" text-anchor="middle" x="930.38" y="-13.32" font-family="Helvetica,sans-Serif" font-size="14.00">OutputRawWorkspace</text>
</g>
<!-- outputWS -->
<g id="node12" class="node">
<title>outputWS</title>
<ellipse fill="khaki" stroke="black" cx="753.38" cy="-102.88" rx="98.56" ry="18"/>
<text xml:space="preserve" text-anchor="middle" x="753.38" y="-98.2" font-family="Helvetica,sans-Serif" font-size="14.00">OutputWorkspace</text>
</g>
<!-- CalculateFlatBackground -->
<g id="node13" class="node">
<title>CalculateFlatBackground</title>
<path fill="lightskyblue" stroke="black" d="M285.62,-748C285.62,-748 121.12,-748 121.12,-748 115.12,-748 109.12,-742 109.12,-736 109.12,-736 109.12,-724 109.12,-724 109.12,-718 115.12,-712 121.12,-712 121.12,-712 285.62,-712 285.62,-712 291.62,-712 297.62,-718 297.62,-724 297.62,-724 297.62,-736 297.62,-736 297.62,-742 291.62,-748 285.62,-748"/>
<text xml:space="preserve" text-anchor="middle" x="203.38" y="-725.33" font-family="Helvetica,sans-Serif" font-size="14.00">CalculateFlatBackground</text>
</g>
<!-- CalculateFlatBackground&#45;&gt;outputBkg -->
<g id="edge17" class="edge">
<title>CalculateFlatBackground&#45;&gt;outputBkg</title>
<path fill="none" stroke="black" d="M203.38,-711.81C203.38,-704.23 203.38,-695.1 203.38,-686.54"/>
<polygon fill="black" stroke="black" points="206.88,-686.54 203.38,-676.54 199.88,-686.54 206.88,-686.54"/>
</g>
<!-- CalculateFlatBackground&#45;&gt;ScaleBkg -->
<g id="edge18" class="edge">
<title>CalculateFlatBackground&#45;&gt;ScaleBkg</title>
<path fill="none" stroke="black" d="M258.7,-711.54C296.56,-699.6 346.17,-683.94 381.96,-672.65"/>
<polygon fill="black" stroke="black" points="382.67,-676.09 391.15,-669.75 380.56,-669.42 382.67,-676.09"/>
</g>
<!-- CalibrateEi -->
<g id="node14" class="node">
<title>CalibrateEi</title>
<path fill="lightskyblue" stroke="black" d="M178.75,-298.25C178.75,-298.25 12,-298.25 12,-298.25 6,-298.25 0,-292.25 0,-286.25 0,-286.25 0,-274.25 0,-274.25 0,-268.25 6,-262.25 12,-262.25 12,-262.25 178.75,-262.25 178.75,-262.25 184.75,-262.25 190.75,-268.25 190.75,-274.25 190.75,-274.25 190.75,-286.25 190.75,-286.25 190.75,-292.25 184.75,-298.25 178.75,-298.25"/>
<text xml:space="preserve" text-anchor="middle" x="95.38" y="-275.57" font-family="Helvetica,sans-Serif" font-size="14.00">Calibrate incident energy</text>
</g>
<!-- CalibrateEi&#45;&gt;outputEi -->
<g id="edge27" class="edge">
<title>CalibrateEi&#45;&gt;outputEi</title>
<path fill="none" stroke="black" d="M115.32,-262.03C126.5,-252.38 140.63,-240.18 152.95,-229.54"/>
<polygon fill="black" stroke="black" points="155.11,-232.3 160.39,-223.12 150.53,-227 155.11,-232.3"/>
</g>
<!-- CalibrateEi&#45;&gt;CorrectTOFAxis -->
<g id="edge32" class="edge">
<title>CalibrateEi&#45;&gt;CorrectTOFAxis</title>
<path fill="none" stroke="black" d="M177.67,-261.84C237.32,-249.22 317.2,-232.33 374.33,-220.24"/>
<polygon fill="black" stroke="black" points="374.91,-223.7 383.96,-218.2 373.46,-216.85 374.91,-223.7"/>
</g>
<!-- CorrectTOFAxis&#45;&gt;outputElasticChannel -->
<g id="edge37" class="edge">
<title>CorrectTOFAxis&#45;&gt;outputElasticChannel</title>
<path fill="none" stroke="black" d="M429.63,-185.82C424.33,-180.23 418.52,-173.93 413.38,-168 402.79,-155.78 391.56,-141.78 382.33,-129.98"/>
<polygon fill="black" stroke="black" points="385.24,-128.02 376.34,-122.26 379.71,-132.31 385.24,-128.02"/>
</g>
<!-- CorrectTOFAxis&#45;&gt;outputWS -->
<g id="edge41" class="edge">
<title>CorrectTOFAxis&#45;&gt;outputWS</title>
<path fill="none" stroke="black" d="M507.04,-194.21C540.15,-188.52 581.58,-179.91 617.38,-168 650.94,-156.83 687.08,-139.52 713.66,-125.7"/>
<polygon fill="black" stroke="black" points="715.16,-128.86 722.37,-121.1 711.89,-122.67 715.16,-128.86"/>
</g>
<!-- CorrectTOFAxisRaw -->
<g id="node16" class="node">
<title>CorrectTOFAxisRaw</title>
<path fill="lightskyblue" stroke="black" d="M978.88,-120.88C978.88,-120.88 881.88,-120.88 881.88,-120.88 875.88,-120.88 869.88,-114.88 869.88,-108.88 869.88,-108.88 869.88,-96.88 869.88,-96.88 869.88,-90.88 875.88,-84.88 881.88,-84.88 881.88,-84.88 978.88,-84.88 978.88,-84.88 984.88,-84.88 990.88,-90.88 990.88,-96.88 990.88,-96.88 990.88,-108.88 990.88,-108.88 990.88,-114.88 984.88,-120.88 978.88,-120.88"/>
<text xml:space="preserve" text-anchor="middle" x="930.38" y="-98.2" font-family="Helvetica,sans-Serif" font-size="14.00">CorrectTOFAxis</text>
</g>
<!-- CorrectTOFAxis&#45;&gt;CorrectTOFAxisRaw -->
<g id="edge38" class="edge">
<title>CorrectTOFAxis&#45;&gt;CorrectTOFAxisRaw</title>
<path fill="none" stroke="black" d="M507.27,-192.48C568.96,-181.86 667.15,-165.01 752.12,-150.75 800.66,-142.61 814.08,-146.34 861.38,-132.75 868.42,-130.73 875.71,-128.19 882.8,-125.47"/>
<polygon fill="black" stroke="black" points="883.96,-128.77 891.94,-121.8 881.36,-122.28 883.96,-128.77"/>
<text xml:space="preserve" text-anchor="middle" x="834.25" y="-154.7" font-family="Helvetica,sans-Serif" font-size="14.00">as reference workspace</text>
</g>
<!-- FindEPPAgain -->
<g id="node19" class="node">
<title>FindEPPAgain</title>
<path fill="lightskyblue" stroke="black" d="M624.62,-132.75C624.62,-132.75 562.12,-132.75 562.12,-132.75 556.12,-132.75 550.12,-126.75 550.12,-120.75 550.12,-120.75 550.12,-85 550.12,-85 550.12,-79 556.12,-73 562.12,-73 562.12,-73 624.62,-73 624.62,-73 630.62,-73 636.62,-79 636.62,-85 636.62,-85 636.62,-120.75 636.62,-120.75 636.62,-126.75 630.62,-132.75 624.62,-132.75"/>
<text xml:space="preserve" text-anchor="middle" x="593.38" y="-115.45" font-family="Helvetica,sans-Serif" font-size="14.00">FindEPP</text>
<text xml:space="preserve" text-anchor="middle" x="593.38" y="-98.2" font-family="Helvetica,sans-Serif" font-size="14.00">or</text>
<text xml:space="preserve" text-anchor="middle" x="593.38" y="-80.95" font-family="Helvetica,sans-Serif" font-size="14.00">CreateEPP</text>
</g>
<!-- CorrectTOFAxis&#45;&gt;FindEPPAgain -->
<g id="edge40" class="edge">
<title>CorrectTOFAxis&#45;&gt;FindEPPAgain</title>
<path fill="none" stroke="black" d="M507.26,-196.91C545.06,-191.74 588.62,-182.73 600.38,-168 605.77,-161.24 607.27,-152.73 606.74,-144.14"/>
<polygon fill="black" stroke="black" points="610.23,-143.79 605.26,-134.43 603.31,-144.85 610.23,-143.79"/>
</g>
<!-- CorrectTOFAxisRaw&#45;&gt;outputRaw -->
<g id="edge39" class="edge">
<title>CorrectTOFAxisRaw&#45;&gt;outputRaw</title>
<path fill="none" stroke="black" d="M930.38,-84.7C930.38,-74 930.38,-59.95 930.38,-47.6"/>
<polygon fill="black" stroke="black" points="933.88,-47.95 930.38,-37.95 926.88,-47.95 933.88,-47.95"/>
</g>
<!-- detectors -->
<g id="node29" class="node">
<title>detectors</title>
<polygon fill="grey" stroke="black" points="1046.71,-1093.25 861.65,-1093.25 814.04,-1057.25 999.1,-1057.25 1046.71,-1093.25"/>
<text xml:space="preserve" text-anchor="middle" x="930.38" y="-1069.08" font-family="Times,serif" font-size="14.00">Detector workspace</text>
</g>
<!-- ExtractMonitors&#45;&gt;detectors -->
<g id="edge10" class="edge">
<title>ExtractMonitors&#45;&gt;detectors</title>
<path fill="none" stroke="black" d="M878.32,-1275.77C888.85,-1266.14 900.61,-1253.31 907.38,-1239.25 928.35,-1195.67 931.64,-1138.48 931.47,-1104.72"/>
<polygon fill="black" stroke="black" points="934.97,-1104.86 931.3,-1094.92 927.97,-1104.98 934.97,-1104.86"/>
</g>
<!-- monitors -->
<g id="node30" class="node">
<title>monitors</title>
<polygon fill="grey" stroke="black" points="898.61,-1239.25 716.89,-1239.25 670.14,-1203.25 851.86,-1203.25 898.61,-1239.25"/>
<text xml:space="preserve" text-anchor="middle" x="784.38" y="-1215.08" font-family="Times,serif" font-size="14.00">Monitor workspace</text>
</g>
<!-- ExtractMonitors&#45;&gt;monitors -->
<g id="edge6" class="edge">
<title>ExtractMonitors&#45;&gt;monitors</title>
<path fill="none" stroke="black" d="M838.95,-1276.06C830.25,-1267.49 819.58,-1256.96 809.97,-1247.49"/>
<polygon fill="black" stroke="black" points="812.55,-1245.12 802.97,-1240.59 807.63,-1250.1 812.55,-1245.12"/>
</g>
<!-- FindEPP -->
<g id="node18" class="node">
<title>FindEPP</title>
<path fill="lightskyblue" stroke="black" d="M116.62,-427.12C116.62,-427.12 54.12,-427.12 54.12,-427.12 48.12,-427.12 42.12,-421.12 42.12,-415.12 42.12,-415.12 42.12,-379.38 42.12,-379.38 42.12,-373.38 48.12,-367.38 54.12,-367.38 54.12,-367.38 116.62,-367.38 116.62,-367.38 122.62,-367.38 128.62,-373.38 128.62,-379.38 128.62,-379.38 128.62,-415.12 128.62,-415.12 128.62,-421.12 122.62,-427.12 116.62,-427.12"/>
<text xml:space="preserve" text-anchor="middle" x="85.38" y="-409.82" font-family="Helvetica,sans-Serif" font-size="14.00">FindEPP</text>
<text xml:space="preserve" text-anchor="middle" x="85.38" y="-392.57" font-family="Helvetica,sans-Serif" font-size="14.00">or</text>
<text xml:space="preserve" text-anchor="middle" x="85.38" y="-375.32" font-family="Helvetica,sans-Serif" font-size="14.00">CreateEPP</text>
</g>
<!-- FindEPP&#45;&gt;CalibrateEi -->
<g id="edge25" class="edge">
<title>FindEPP&#45;&gt;CalibrateEi</title>
<path fill="none" stroke="black" d="M87.92,-366.93C89.44,-349.5 91.36,-327.47 92.86,-310.12"/>
<polygon fill="black" stroke="black" points="96.35,-310.48 93.73,-300.21 89.37,-309.87 96.35,-310.48"/>
</g>
<!-- FindEPPAgain&#45;&gt;outputEPP -->
<g id="edge42" class="edge">
<title>FindEPPAgain&#45;&gt;outputEPP</title>
<path fill="none" stroke="black" d="M593.38,-72.89C593.38,-64.74 593.38,-55.87 593.38,-47.73"/>
<polygon fill="black" stroke="black" points="596.88,-48.01 593.38,-38.01 589.88,-48.01 596.88,-48.01"/>
</g>
<!-- FitElasticChannel -->
<g id="node20" class="node">
<title>FitElasticChannel</title>
<path fill="lightskyblue" stroke="black" d="M807.62,-301.5C807.62,-301.5 679.12,-301.5 679.12,-301.5 673.12,-301.5 667.12,-295.5 667.12,-289.5 667.12,-289.5 667.12,-271 667.12,-271 667.12,-265 673.12,-259 679.12,-259 679.12,-259 807.62,-259 807.62,-259 813.62,-259 819.62,-265 819.62,-271 819.62,-271 819.62,-289.5 819.62,-289.5 819.62,-295.5 813.62,-301.5 807.62,-301.5"/>
<text xml:space="preserve" text-anchor="middle" x="743.38" y="-284.2" font-family="Helvetica,sans-Serif" font-size="14.00">Find elastic channel</text>
<text xml:space="preserve" text-anchor="middle" x="743.38" y="-266.95" font-family="Helvetica,sans-Serif" font-size="14.00">by fitting</text>
</g>
<!-- FitElasticChannel&#45;&gt;CorrectTOFAxis -->
<g id="edge36" class="edge">
<title>FitElasticChannel&#45;&gt;CorrectTOFAxis</title>
<path fill="none" stroke="black" d="M666.89,-260.13C621.1,-248.68 563.25,-234.22 518.3,-222.98"/>
<polygon fill="black" stroke="black" points="519.18,-219.59 508.63,-220.56 517.48,-226.39 519.18,-219.59"/>
</g>
<!-- IntegrateMonitor -->
<g id="node21" class="node">
<title>IntegrateMonitor</title>
<path fill="lightskyblue" stroke="black" d="M784.5,-1093.25C784.5,-1093.25 670.25,-1093.25 670.25,-1093.25 664.25,-1093.25 658.25,-1087.25 658.25,-1081.25 658.25,-1081.25 658.25,-1069.25 658.25,-1069.25 658.25,-1063.25 664.25,-1057.25 670.25,-1057.25 670.25,-1057.25 784.5,-1057.25 784.5,-1057.25 790.5,-1057.25 796.5,-1063.25 796.5,-1069.25 796.5,-1069.25 796.5,-1081.25 796.5,-1081.25 796.5,-1087.25 790.5,-1093.25 784.5,-1093.25"/>
<text xml:space="preserve" text-anchor="middle" x="727.38" y="-1070.58" font-family="Helvetica,sans-Serif" font-size="14.00">Integrate monitor</text>
</g>
<!-- Normalize -->
<g id="node23" class="node">
<title>Normalize</title>
<path fill="lightskyblue" stroke="black" d="M847.75,-1001.75C847.75,-1001.75 675,-1001.75 675,-1001.75 669,-1001.75 663,-995.75 663,-989.75 663,-989.75 663,-977.75 663,-977.75 663,-971.75 669,-965.75 675,-965.75 675,-965.75 847.75,-965.75 847.75,-965.75 853.75,-965.75 859.75,-971.75 859.75,-977.75 859.75,-977.75 859.75,-989.75 859.75,-989.75 859.75,-995.75 853.75,-1001.75 847.75,-1001.75"/>
<text xml:space="preserve" text-anchor="middle" x="761.38" y="-979.08" font-family="Helvetica,sans-Serif" font-size="14.00">Normalise to monitor/time</text>
</g>
<!-- IntegrateMonitor&#45;&gt;Normalize -->
<g id="edge9" class="edge">
<title>IntegrateMonitor&#45;&gt;Normalize</title>
<path fill="none" stroke="black" d="M733.93,-1056.99C738.73,-1044.36 745.34,-1026.97 750.87,-1012.41"/>
<polygon fill="black" stroke="black" points="754.02,-1013.96 754.3,-1003.37 747.48,-1011.47 754.02,-1013.96"/>
</g>
<!-- LoadAndMerge&#45;&gt;ExtractMonitors -->
<g id="edge3" class="edge">
<title>LoadAndMerge&#45;&gt;ExtractMonitors</title>
<path fill="none" stroke="black" d="M810.14,-1349.06C817.41,-1340.6 826.32,-1330.23 834.37,-1320.86"/>
<polygon fill="black" stroke="black" points="836.9,-1323.29 840.76,-1313.43 831.59,-1318.73 836.9,-1323.29"/>
</g>
<!-- ScaleAfterNormalization -->
<g id="node24" class="node">
<title>ScaleAfterNormalization</title>
<path fill="lightskyblue" stroke="black" d="M451.75,-910.25C451.75,-910.25 405,-910.25 405,-910.25 399,-910.25 393,-904.25 393,-898.25 393,-898.25 393,-886.25 393,-886.25 393,-880.25 399,-874.25 405,-874.25 405,-874.25 451.75,-874.25 451.75,-874.25 457.75,-874.25 463.75,-880.25 463.75,-886.25 463.75,-886.25 463.75,-898.25 463.75,-898.25 463.75,-904.25 457.75,-910.25 451.75,-910.25"/>
<text xml:space="preserve" text-anchor="middle" x="428.38" y="-887.58" font-family="Helvetica,sans-Serif" font-size="14.00">Multiply</text>
</g>
<!-- Normalize&#45;&gt;ScaleAfterNormalization -->
<g id="edge13" class="edge">
<title>Normalize&#45;&gt;ScaleAfterNormalization</title>
<path fill="none" stroke="black" d="M711.09,-965.27C692.99,-959.23 672.36,-952.64 653.38,-947.25 592.28,-929.91 520.83,-913.39 475.12,-903.29"/>
<polygon fill="black" stroke="black" points="476.07,-899.92 465.55,-901.19 474.57,-906.76 476.07,-899.92"/>
</g>
<!-- SubtractBkgDetector -->
<g id="node27" class="node">
<title>SubtractBkgDetector</title>
<path fill="lightskyblue" stroke="black" d="M522,-602C522,-602 356.75,-602 356.75,-602 350.75,-602 344.75,-596 344.75,-590 344.75,-590 344.75,-578 344.75,-578 344.75,-572 350.75,-566 356.75,-566 356.75,-566 522,-566 522,-566 528,-566 534,-572 534,-578 534,-578 534,-590 534,-590 534,-596 528,-602 522,-602"/>
<text xml:space="preserve" text-anchor="middle" x="439.38" y="-579.33" font-family="Helvetica,sans-Serif" font-size="14.00">Subtract flat background</text>
</g>
<!-- ScaleAfterNormalization&#45;&gt;SubtractBkgDetector -->
<g id="edge23" class="edge">
<title>ScaleAfterNormalization&#45;&gt;SubtractBkgDetector</title>
<path fill="none" stroke="black" d="M464.09,-890.3C543.82,-887.21 729.38,-874.21 729.38,-820.25 729.38,-820.25 729.38,-820.25 729.38,-656 729.38,-616.85 628.4,-599.18 545.62,-591.27"/>
<polygon fill="black" stroke="black" points="546.12,-587.81 535.84,-590.38 545.48,-594.78 546.12,-587.81"/>
</g>
<!-- inputBkgGiven -->
<g id="node33" class="node">
<title>inputBkgGiven</title>
<polygon fill="limegreen" stroke="black" points="416.38,-837.25 223.42,-819.25 416.37,-801.25 609.33,-819.25 416.38,-837.25"/>
<text xml:space="preserve" text-anchor="middle" x="416.38" y="-814.58" font-family="Helvetica,sans-Serif" font-size="14.00">FlatBkgWorkspace given?</text>
</g>
<!-- ScaleAfterNormalization&#45;&gt;inputBkgGiven -->
<g id="edge15" class="edge">
<title>ScaleAfterNormalization&#45;&gt;inputBkgGiven</title>
<path fill="none" stroke="black" d="M425.47,-874.06C424.17,-866.39 422.61,-857.14 421.15,-848.49"/>
<polygon fill="black" stroke="black" points="424.62,-848.05 419.51,-838.77 417.72,-849.21 424.62,-848.05"/>
</g>
<!-- ScaleBkg&#45;&gt;SubtractBkgDetector -->
<g id="edge22" class="edge">
<title>ScaleBkg&#45;&gt;SubtractBkgDetector</title>
<path fill="none" stroke="black" d="M431.04,-638.81C432.23,-631.14 433.66,-621.89 435,-613.24"/>
<polygon fill="black" stroke="black" points="438.43,-613.94 436.5,-603.52 431.52,-612.87 438.43,-613.94"/>
</g>
<!-- SetIncidentEnergy&#45;&gt;outputEi -->
<g id="edge31" class="edge">
<title>SetIncidentEnergy&#45;&gt;outputEi</title>
<path fill="none" stroke="black" d="M260.23,-261.84C246.54,-251.97 229.22,-239.49 214.3,-228.73"/>
<polygon fill="black" stroke="black" points="216.76,-226.19 206.6,-223.18 212.67,-231.87 216.76,-226.19"/>
</g>
<!-- SetIncidentEnergy&#45;&gt;CorrectTOFAxis -->
<g id="edge30" class="edge">
<title>SetIncidentEnergy&#45;&gt;CorrectTOFAxis</title>
<path fill="none" stroke="black" d="M322.36,-261.84C344.92,-251.5 373.76,-238.28 397.95,-227.19"/>
<polygon fill="black" stroke="black" points="399.34,-230.41 406.97,-223.06 396.43,-224.04 399.34,-230.41"/>
</g>
<!-- inputEiGiven -->
<g id="node34" class="node">
<title>inputEiGiven</title>
<polygon fill="limegreen" stroke="black" points="439.38,-529 194.34,-511 439.37,-493 684.41,-511 439.38,-529"/>
<text xml:space="preserve" text-anchor="middle" x="439.38" y="-506.32" font-family="Helvetica,sans-Serif" font-size="14.00">IncidentEnergyWorkspace given?</text>
</g>
<!-- SubtractBkgDetector&#45;&gt;inputEiGiven -->
<g id="edge24" class="edge">
<title>SubtractBkgDetector&#45;&gt;inputEiGiven</title>
<path fill="none" stroke="black" d="M439.38,-565.81C439.38,-558.23 439.38,-549.1 439.38,-540.54"/>
<polygon fill="black" stroke="black" points="442.88,-540.54 439.38,-530.54 435.88,-540.54 442.88,-540.54"/>
</g>
<!-- SubtractBkgMonitor -->
<g id="node28" class="node">
<title>SubtractBkgMonitor</title>
<path fill="lightskyblue" stroke="black" d="M822,-1166.25C822,-1166.25 656.75,-1166.25 656.75,-1166.25 650.75,-1166.25 644.75,-1160.25 644.75,-1154.25 644.75,-1154.25 644.75,-1142.25 644.75,-1142.25 644.75,-1136.25 650.75,-1130.25 656.75,-1130.25 656.75,-1130.25 822,-1130.25 822,-1130.25 828,-1130.25 834,-1136.25 834,-1142.25 834,-1142.25 834,-1154.25 834,-1154.25 834,-1160.25 828,-1166.25 822,-1166.25"/>
<text xml:space="preserve" text-anchor="middle" x="739.38" y="-1143.58" font-family="Helvetica,sans-Serif" font-size="14.00">Subtract flat background</text>
</g>
<!-- SubtractBkgMonitor&#45;&gt;IntegrateMonitor -->
<g id="edge8" class="edge">
<title>SubtractBkgMonitor&#45;&gt;IntegrateMonitor</title>
<path fill="none" stroke="black" d="M736.47,-1130.06C735.17,-1122.39 733.61,-1113.14 732.15,-1104.49"/>
<polygon fill="black" stroke="black" points="735.62,-1104.05 730.51,-1094.77 728.72,-1105.21 735.62,-1104.05"/>
</g>
<!-- detectors&#45;&gt;CorrectTOFAxisRaw -->
<g id="edge12" class="edge">
<title>detectors&#45;&gt;CorrectTOFAxisRaw</title>
<path fill="none" stroke="black" d="M930.38,-1056.76C930.38,-1038.72 930.38,-1009.77 930.38,-984.75 930.38,-984.75 930.38,-984.75 930.38,-203 930.38,-179.2 930.38,-152.19 930.38,-132.38"/>
<polygon fill="black" stroke="black" points="933.88,-132.58 930.38,-122.58 926.88,-132.58 933.88,-132.58"/>
</g>
<!-- detectors&#45;&gt;Normalize -->
<g id="edge11" class="edge">
<title>detectors&#45;&gt;Normalize</title>
<path fill="none" stroke="black" d="M897.39,-1056.78C870.75,-1042.67 833.07,-1022.72 804.12,-1007.39"/>
<polygon fill="black" stroke="black" points="806.09,-1004.47 795.62,-1002.88 802.81,-1010.66 806.09,-1004.47"/>
</g>
<!-- monitors&#45;&gt;SubtractBkgMonitor -->
<g id="edge7" class="edge">
<title>monitors&#45;&gt;SubtractBkgMonitor</title>
<path fill="none" stroke="black" d="M773.48,-1203.06C768.29,-1194.87 761.95,-1184.87 756.16,-1175.73"/>
<polygon fill="black" stroke="black" points="759.29,-1174.13 750.98,-1167.56 753.38,-1177.88 759.29,-1174.13"/>
</g>
<!-- normalisationScaling -->
<g id="node31" class="node">
<title>normalisationScaling</title>
<polygon fill="grey" stroke="black" points="644.57,-1020.25 276.79,-1020.25 182.18,-947.25 549.96,-947.25 644.57,-1020.25"/>
<text xml:space="preserve" text-anchor="middle" x="413.38" y="-984.7" font-family="Times,serif" font-size="14.00">&#39;scaling_after_monitor_normalisation&#39;</text>
<text xml:space="preserve" text-anchor="middle" x="413.38" y="-970.45" font-family="Times,serif" font-size="14.00">sample log</text>
</g>
<!-- normalisationScaling&#45;&gt;ScaleAfterNormalization -->
<g id="edge14" class="edge">
<title>normalisationScaling&#45;&gt;ScaleAfterNormalization</title>
<path fill="none" stroke="black" d="M419.39,-946.86C420.78,-938.6 422.23,-929.91 423.56,-921.99"/>
<polygon fill="black" stroke="black" points="427,-922.65 425.2,-912.21 420.09,-921.5 427,-922.65"/>
</g>
<!-- inputElasticChannelGiven -->
<g id="node32" class="node">
<title>inputElasticChannelGiven</title>
<polygon fill="limegreen" stroke="black" points="703.38,-439.75 509.63,-397.25 703.37,-354.75 897.12,-397.25 703.38,-439.75"/>
<text xml:space="preserve" text-anchor="middle" x="703.38" y="-401.2" font-family="Helvetica,sans-Serif" font-size="14.00">ElasticChannelWorkspace</text>
<text xml:space="preserve" text-anchor="middle" x="703.38" y="-383.95" font-family="Helvetica,sans-Serif" font-size="14.00">given?</text>
</g>
<!-- inputElasticChannelGiven&#45;&gt;inputElasticChannel -->
<g id="edge33" class="edge">
<title>inputElasticChannelGiven&#45;&gt;inputElasticChannel</title>
<path fill="none" stroke="black" d="M652.46,-365.43C620.6,-346.15 580.24,-321.72 551.22,-304.15"/>
<polygon fill="black" stroke="black" points="553.12,-301.21 542.75,-299.03 549.49,-307.2 553.12,-301.21"/>
<text xml:space="preserve" text-anchor="middle" x="614.68" y="-323.45" font-family="Helvetica,sans-Serif" font-size="14.00">yes</text>
</g>
<!-- inputElasticChannelGiven&#45;&gt;FitElasticChannel -->
<g id="edge35" class="edge">
<title>inputElasticChannelGiven&#45;&gt;FitElasticChannel</title>
<path fill="none" stroke="black" d="M716.92,-357.32C722.03,-342.61 727.78,-326.09 732.61,-312.21"/>
<polygon fill="black" stroke="black" points="735.77,-313.76 735.75,-303.16 729.16,-311.46 735.77,-313.76"/>
<text xml:space="preserve" text-anchor="middle" x="737.92" y="-323.45" font-family="Helvetica,sans-Serif" font-size="14.00">no</text>
</g>
<!-- inputBkgGiven&#45;&gt;inputBkg -->
<g id="edge19" class="edge">
<title>inputBkgGiven&#45;&gt;inputBkg</title>
<path fill="none" stroke="black" d="M416.38,-801.01C416.38,-789.18 416.38,-773.2 416.38,-759.5"/>
<polygon fill="black" stroke="black" points="419.88,-759.72 416.38,-749.72 412.88,-759.72 419.88,-759.72"/>
<text xml:space="preserve" text-anchor="middle" x="428.38" y="-769.95" font-family="Helvetica,sans-Serif" font-size="14.00">yes</text>
</g>
<!-- inputBkgGiven&#45;&gt;CalculateFlatBackground -->
<g id="edge16" class="edge">
<title>inputBkgGiven&#45;&gt;CalculateFlatBackground</title>
<path fill="none" stroke="black" d="M381.68,-804.04C347.66,-790.1 295.36,-768.68 256.18,-752.63"/>
<polygon fill="black" stroke="black" points="257.74,-749.49 247.16,-748.94 255.09,-755.97 257.74,-749.49"/>
<text xml:space="preserve" text-anchor="middle" x="337.58" y="-769.95" font-family="Helvetica,sans-Serif" font-size="14.00">no</text>
</g>
<!-- inputEiGiven&#45;&gt;FindEPP -->
<g id="edge26" class="edge">
<title>inputEiGiven&#45;&gt;FindEPP</title>
<path fill="none" stroke="black" d="M346.96,-499.36C285.27,-489.69 203.63,-471.84 137.38,-439.75 133.89,-438.06 130.43,-436.11 127.04,-433.98"/>
<polygon fill="black" stroke="black" points="129.22,-431.23 118.99,-428.47 125.27,-437 129.22,-431.23"/>
<text xml:space="preserve" text-anchor="middle" x="241.41" y="-461.7" font-family="Helvetica,sans-Serif" font-size="14.00">no</text>
</g>
<!-- inputEiGiven&#45;&gt;SetIncidentEnergy -->
<g id="edge28" class="edge">
<title>inputEiGiven&#45;&gt;SetIncidentEnergy</title>
<path fill="none" stroke="black" d="M443.65,-492.92C450.26,-462.39 459.45,-397.66 431.38,-354.75 415.66,-330.72 389.58,-314.23 363.72,-303.05"/>
<polygon fill="black" stroke="black" points="365.05,-299.82 354.47,-299.3 362.42,-306.31 365.05,-299.82"/>
<text xml:space="preserve" text-anchor="middle" x="462.54" y="-392.57" font-family="Helvetica,sans-Serif" font-size="14.00">yes</text>
</g>
<!-- inputFileGiven -->
<g id="node35" class="node">
<title>inputFileGiven</title>
<polygon fill="limegreen" stroke="black" points="851.38,-1582.5 758.87,-1564.5 851.38,-1546.5 943.88,-1564.5 851.38,-1582.5"/>
<text xml:space="preserve" text-anchor="middle" x="851.38" y="-1559.83" font-family="Helvetica,sans-Serif" font-size="14.00">Run given?</text>
</g>
<!-- inputFileGiven&#45;&gt;inputFile -->
<g id="edge1" class="edge">
<title>inputFileGiven&#45;&gt;inputFile</title>
<path fill="none" stroke="black" d="M843.69,-1547.85C840.74,-1541.82 837.38,-1534.85 834.38,-1528.5 830.51,-1520.31 826.36,-1511.36 822.63,-1503.22"/>
<polygon fill="black" stroke="black" points="825.82,-1501.78 818.48,-1494.14 819.45,-1504.69 825.82,-1501.78"/>
<text xml:space="preserve" text-anchor="middle" x="846.38" y="-1515.2" font-family="Helvetica,sans-Serif" font-size="14.00">yes</text>
</g>
<!-- inputFileGiven&#45;&gt;inputWS -->
<g id="edge4" class="edge">
<title>inputFileGiven&#45;&gt;inputWS</title>
<path fill="none" stroke="black" d="M856.16,-1547.02C863.03,-1523.35 875.78,-1479.42 884.17,-1450.51"/>
<polygon fill="black" stroke="black" points="887.52,-1451.54 886.94,-1440.96 880.8,-1449.59 887.52,-1451.54"/>
<text xml:space="preserve" text-anchor="middle" x="874.43" y="-1515.2" font-family="Helvetica,sans-Serif" font-size="14.00">no</text>
</g>
</g>
</svg>
