<?xml version="1.0" encoding="UTF-8" standalone="no"?>
<!DOCTYPE svg PUBLIC "-//W3C//DTD SVG 1.1//EN"
 "http://www.w3.org/Graphics/SVG/1.1/DTD/svg11.dtd">
<!-- Generated by graphviz version 11.0.0 (20240519.1550)
 -->
<!-- Title: DirectILLCollectData Pages: 1 -->
<svg width="1080pt" height="1614pt"
 viewBox="0.00 0.00 1080.46 1613.75" xmlns="http://www.w3.org/2000/svg" xmlns:xlink="http://www.w3.org/1999/xlink">
<g id="graph0" class="graph" transform="scale(1 1) rotate(0) translate(4 1609.75)">
<title>DirectILLCollectData</title>
<polygon fill="white" stroke="none" points="-4,4 -4,-1609.75 1076.46,-1609.75 1076.46,4 -4,4"/>
<text text-anchor="middle" x="536.23" y="-1588.45" font-family="Helvetica,sans-Serif" font-size="14.00">DirectILLCollectData workflow diagram</text>
<!-- bkgScaling -->
<g id="node1" class="node">
<title>bkgScaling</title>
<ellipse fill="khaki" stroke="black" cx="550.39" cy="-729" rx="83.3" ry="18"/>
<text text-anchor="middle" x="550.39" y="-724.33" font-family="Helvetica,sans-Serif" font-size="14.00">FlatBkgScaling</text>
</g>
<!-- ScaleBkg -->
<g id="node25" class="node">
<title>ScaleBkg</title>
<path fill="lightskyblue" stroke="black" d="M376.76,-674C376.76,-674 330.01,-674 330.01,-674 324.01,-674 318.01,-668 318.01,-662 318.01,-662 318.01,-650 318.01,-650 318.01,-644 324.01,-638 330.01,-638 330.01,-638 376.76,-638 376.76,-638 382.76,-638 388.76,-644 388.76,-650 388.76,-650 388.76,-662 388.76,-662 388.76,-668 382.76,-674 376.76,-674"/>
<text text-anchor="middle" x="353.39" y="-651.33" font-family="Helvetica,sans-Serif" font-size="14.00">Multiply</text>
</g>
<!-- bkgScaling&#45;&gt;ScaleBkg -->
<g id="edge21" class="edge">
<title>bkgScaling&#45;&gt;ScaleBkg</title>
<path fill="none" stroke="black" d="M509.09,-713.12C477.16,-701.61 432.95,-685.68 399.8,-673.73"/>
<polygon fill="black" stroke="black" points="401.03,-670.45 390.44,-670.35 398.66,-677.04 401.03,-670.45"/>
</g>
<!-- inputFile -->
<g id="node2" class="node">
<title>inputFile</title>
<ellipse fill="khaki" stroke="black" cx="829.39" cy="-1473.25" rx="30.16" ry="18"/>
<text text-anchor="middle" x="829.39" y="-1468.58" font-family="Helvetica,sans-Serif" font-size="14.00">Run</text>
</g>
<!-- LoadAndMerge -->
<g id="node22" class="node">
<title>LoadAndMerge</title>
<path fill="lightskyblue" stroke="black" d="M859.14,-1383.25C859.14,-1383.25 763.64,-1383.25 763.64,-1383.25 757.64,-1383.25 751.64,-1377.25 751.64,-1371.25 751.64,-1371.25 751.64,-1359.25 751.64,-1359.25 751.64,-1353.25 757.64,-1347.25 763.64,-1347.25 763.64,-1347.25 859.14,-1347.25 859.14,-1347.25 865.14,-1347.25 871.14,-1353.25 871.14,-1359.25 871.14,-1359.25 871.14,-1371.25 871.14,-1371.25 871.14,-1377.25 865.14,-1383.25 859.14,-1383.25"/>
<text text-anchor="middle" x="811.39" y="-1360.58" font-family="Helvetica,sans-Serif" font-size="14.00">LoadAndMerge</text>
</g>
<!-- inputFile&#45;&gt;LoadAndMerge -->
<g id="edge2" class="edge">
<title>inputFile&#45;&gt;LoadAndMerge</title>
<path fill="none" stroke="black" d="M825.19,-1455.22C823.87,-1449.53 822.47,-1443.13 821.39,-1437.25 818.81,-1423.28 816.55,-1407.67 814.82,-1394.64"/>
<polygon fill="black" stroke="black" points="818.34,-1394.51 813.6,-1385.03 811.39,-1395.4 818.34,-1394.51"/>
</g>
<!-- inputWS -->
<g id="node3" class="node">
<title>inputWS</title>
<ellipse fill="khaki" stroke="black" cx="906.39" cy="-1419.25" rx="90.14" ry="18"/>
<text text-anchor="middle" x="906.39" y="-1414.58" font-family="Helvetica,sans-Serif" font-size="14.00">InputWorkspace</text>
</g>
<!-- ExtractMonitors -->
<g id="node17" class="node">
<title>ExtractMonitors</title>
<path fill="lightskyblue" stroke="black" d="M930.14,-1310.25C930.14,-1310.25 828.64,-1310.25 828.64,-1310.25 822.64,-1310.25 816.64,-1304.25 816.64,-1298.25 816.64,-1298.25 816.64,-1286.25 816.64,-1286.25 816.64,-1280.25 822.64,-1274.25 828.64,-1274.25 828.64,-1274.25 930.14,-1274.25 930.14,-1274.25 936.14,-1274.25 942.14,-1280.25 942.14,-1286.25 942.14,-1286.25 942.14,-1298.25 942.14,-1298.25 942.14,-1304.25 936.14,-1310.25 930.14,-1310.25"/>
<text text-anchor="middle" x="879.39" y="-1287.58" font-family="Helvetica,sans-Serif" font-size="14.00">ExtractMonitors</text>
</g>
<!-- inputWS&#45;&gt;ExtractMonitors -->
<g id="edge5" class="edge">
<title>inputWS&#45;&gt;ExtractMonitors</title>
<path fill="none" stroke="black" d="M902.63,-1400.87C898.2,-1380.35 890.76,-1345.92 885.5,-1321.54"/>
<polygon fill="black" stroke="black" points="888.96,-1321 883.43,-1311.96 882.12,-1322.48 888.96,-1321"/>
</g>
<!-- inputBkg -->
<g id="node4" class="node">
<title>inputBkg</title>
<ellipse fill="khaki" stroke="black" cx="348.39" cy="-729" rx="101.19" ry="18"/>
<text text-anchor="middle" x="348.39" y="-724.33" font-family="Helvetica,sans-Serif" font-size="14.00">FlatBkgWorkspace</text>
</g>
<!-- inputBkg&#45;&gt;ScaleBkg -->
<g id="edge20" class="edge">
<title>inputBkg&#45;&gt;ScaleBkg</title>
<path fill="none" stroke="black" d="M349.6,-710.81C350.14,-703.14 350.79,-693.89 351.4,-685.24"/>
<polygon fill="black" stroke="black" points="354.87,-685.76 352.08,-675.54 347.89,-685.27 354.87,-685.76"/>
</g>
<!-- inputEi -->
<g id="node5" class="node">
<title>inputEi</title>
<ellipse fill="khaki" stroke="black" cx="297.39" cy="-396.25" rx="138.02" ry="18"/>
<text text-anchor="middle" x="297.39" y="-391.57" font-family="Helvetica,sans-Serif" font-size="14.00">IncidentEnergyWorkspace</text>
</g>
<!-- SetIncidentEnergy -->
<g id="node26" class="node">
<title>SetIncidentEnergy</title>
<path fill="lightskyblue" stroke="black" d="M360.89,-297.25C360.89,-297.25 233.89,-297.25 233.89,-297.25 227.89,-297.25 221.89,-291.25 221.89,-285.25 221.89,-285.25 221.89,-273.25 221.89,-273.25 221.89,-267.25 227.89,-261.25 233.89,-261.25 233.89,-261.25 360.89,-261.25 360.89,-261.25 366.89,-261.25 372.89,-267.25 372.89,-273.25 372.89,-273.25 372.89,-285.25 372.89,-285.25 372.89,-291.25 366.89,-297.25 360.89,-297.25"/>
<text text-anchor="middle" x="297.39" y="-274.57" font-family="Helvetica,sans-Serif" font-size="14.00">Set incident energy</text>
</g>
<!-- inputEi&#45;&gt;SetIncidentEnergy -->
<g id="edge29" class="edge">
<title>inputEi&#45;&gt;SetIncidentEnergy</title>
<path fill="none" stroke="black" d="M297.39,-377.78C297.39,-359.53 297.39,-330.58 297.39,-308.95"/>
<polygon fill="black" stroke="black" points="300.89,-309.02 297.39,-299.02 293.89,-309.02 300.89,-309.02"/>
</g>
<!-- inputElasticChannel -->
<g id="node6" class="node">
<title>inputElasticChannel</title>
<ellipse fill="khaki" stroke="black" cx="526.39" cy="-279.25" rx="135.91" ry="18"/>
<text text-anchor="middle" x="526.39" y="-274.57" font-family="Helvetica,sans-Serif" font-size="14.00">ElasticChannelWorkspace</text>
</g>
<!-- CorrectTOFAxis -->
<g id="node15" class="node">
<title>CorrectTOFAxis</title>
<path fill="lightskyblue" stroke="black" d="M514.89,-221C514.89,-221 417.89,-221 417.89,-221 411.89,-221 405.89,-215 405.89,-209 405.89,-209 405.89,-197 405.89,-197 405.89,-191 411.89,-185 417.89,-185 417.89,-185 514.89,-185 514.89,-185 520.89,-185 526.89,-191 526.89,-197 526.89,-197 526.89,-209 526.89,-209 526.89,-215 520.89,-221 514.89,-221"/>
<text text-anchor="middle" x="466.39" y="-198.32" font-family="Helvetica,sans-Serif" font-size="14.00">CorrectTOFAxis</text>
</g>
<!-- inputElasticChannel&#45;&gt;CorrectTOFAxis -->
<g id="edge34" class="edge">
<title>inputElasticChannel&#45;&gt;CorrectTOFAxis</title>
<path fill="none" stroke="black" d="M512.47,-261.03C505.1,-251.91 495.9,-240.52 487.65,-230.32"/>
<polygon fill="black" stroke="black" points="490.39,-228.14 481.39,-222.56 484.95,-232.54 490.39,-228.14"/>
</g>
<!-- outputBkg -->
<g id="node7" class="node">
<title>outputBkg</title>
<ellipse fill="khaki" stroke="black" cx="135.39" cy="-656" rx="135.39" ry="18"/>
<text text-anchor="middle" x="135.39" y="-651.33" font-family="Helvetica,sans-Serif" font-size="14.00">OutputFlatBkgWorkspace</text>
</g>
<!-- outputEi -->
<g id="node8" class="node">
<title>outputEi</title>
<ellipse fill="khaki" stroke="black" cx="204.39" cy="-203" rx="172.21" ry="18"/>
<text text-anchor="middle" x="204.39" y="-198.32" font-family="Helvetica,sans-Serif" font-size="14.00">OutputIncidentEnergyWorkspace</text>
</g>
<!-- outputElasticChannel -->
<g id="node9" class="node">
<title>outputElasticChannel</title>
<ellipse fill="khaki" stroke="black" cx="385.39" cy="-101.88" rx="170.11" ry="18"/>
<text text-anchor="middle" x="385.39" y="-97.2" font-family="Helvetica,sans-Serif" font-size="14.00">OutputElasticChannelWorkspace</text>
</g>
<!-- outputEPP -->
<g id="node10" class="node">
<title>outputEPP</title>
<ellipse fill="khaki" stroke="black" cx="616.39" cy="-18" rx="116.45" ry="18"/>
<text text-anchor="middle" x="616.39" y="-13.32" font-family="Helvetica,sans-Serif" font-size="14.00">OutputEPPWorkspace</text>
</g>
<!-- outputRaw -->
<g id="node11" class="node">
<title>outputRaw</title>
<ellipse fill="khaki" stroke="black" cx="953.39" cy="-18" rx="119.08" ry="18"/>
<text text-anchor="middle" x="953.39" y="-13.32" font-family="Helvetica,sans-Serif" font-size="14.00">OutputRawWorkspace</text>
</g>
<!-- outputWS -->
<g id="node12" class="node">
<title>outputWS</title>
<ellipse fill="khaki" stroke="black" cx="776.39" cy="-101.88" rx="98.56" ry="18"/>
<text text-anchor="middle" x="776.39" y="-97.2" font-family="Helvetica,sans-Serif" font-size="14.00">OutputWorkspace</text>
</g>
<!-- CalculateFlatBackground -->
<g id="node13" class="node">
<title>CalculateFlatBackground</title>
<path fill="lightskyblue" stroke="black" d="M217.64,-747C217.64,-747 53.14,-747 53.14,-747 47.14,-747 41.14,-741 41.14,-735 41.14,-735 41.14,-723 41.14,-723 41.14,-717 47.14,-711 53.14,-711 53.14,-711 217.64,-711 217.64,-711 223.64,-711 229.64,-717 229.64,-723 229.64,-723 229.64,-735 229.64,-735 229.64,-741 223.64,-747 217.64,-747"/>
<text text-anchor="middle" x="135.39" y="-724.33" font-family="Helvetica,sans-Serif" font-size="14.00">CalculateFlatBackground</text>
</g>
<!-- CalculateFlatBackground&#45;&gt;outputBkg -->
<g id="edge17" class="edge">
<title>CalculateFlatBackground&#45;&gt;outputBkg</title>
<path fill="none" stroke="black" d="M135.39,-710.81C135.39,-703.23 135.39,-694.1 135.39,-685.54"/>
<polygon fill="black" stroke="black" points="138.89,-685.54 135.39,-675.54 131.89,-685.54 138.89,-685.54"/>
</g>
<!-- CalculateFlatBackground&#45;&gt;ScaleBkg -->
<g id="edge18" class="edge">
<title>CalculateFlatBackground&#45;&gt;ScaleBkg</title>
<path fill="none" stroke="black" d="M188.99,-710.54C225.17,-698.76 272.43,-683.37 306.99,-672.11"/>
<polygon fill="black" stroke="black" points="307.87,-675.51 316.29,-669.08 305.7,-668.85 307.87,-675.51"/>
</g>
<!-- CalibrateEi -->
<g id="node14" class="node">
<title>CalibrateEi</title>
<path fill="lightskyblue" stroke="black" d="M191.76,-297.25C191.76,-297.25 25.01,-297.25 25.01,-297.25 19.01,-297.25 13.01,-291.25 13.01,-285.25 13.01,-285.25 13.01,-273.25 13.01,-273.25 13.01,-267.25 19.01,-261.25 25.01,-261.25 25.01,-261.25 191.76,-261.25 191.76,-261.25 197.76,-261.25 203.76,-267.25 203.76,-273.25 203.76,-273.25 203.76,-285.25 203.76,-285.25 203.76,-291.25 197.76,-297.25 191.76,-297.25"/>
<text text-anchor="middle" x="108.39" y="-274.57" font-family="Helvetica,sans-Serif" font-size="14.00">Calibrate incident energy</text>
</g>
<!-- CalibrateEi&#45;&gt;outputEi -->
<g id="edge27" class="edge">
<title>CalibrateEi&#45;&gt;outputEi</title>
<path fill="none" stroke="black" d="M130.65,-261.03C143.37,-251.19 159.52,-238.7 173.46,-227.92"/>
<polygon fill="black" stroke="black" points="175.27,-230.94 181.04,-222.05 170.99,-225.4 175.27,-230.94"/>
</g>
<!-- CalibrateEi&#45;&gt;CorrectTOFAxis -->
<g id="edge32" class="edge">
<title>CalibrateEi&#45;&gt;CorrectTOFAxis</title>
<path fill="none" stroke="black" d="M193.26,-260.78C248.09,-249.47 320.97,-234.42 385.39,-221 388.38,-220.38 391.44,-219.74 394.53,-219.09"/>
<polygon fill="black" stroke="black" points="395.24,-222.52 404.31,-217.05 393.81,-215.67 395.24,-222.52"/>
</g>
<!-- CorrectTOFAxis&#45;&gt;outputElasticChannel -->
<g id="edge37" class="edge">
<title>CorrectTOFAxis&#45;&gt;outputElasticChannel</title>
<path fill="none" stroke="black" d="M431.79,-184.6C424.35,-179.68 417.04,-173.78 411.39,-167 402.76,-156.65 396.7,-143.06 392.62,-131.06"/>
<polygon fill="black" stroke="black" points="396.01,-130.17 389.73,-121.64 389.32,-132.22 396.01,-130.17"/>
</g>
<!-- CorrectTOFAxis&#45;&gt;outputWS -->
<g id="edge41" class="edge">
<title>CorrectTOFAxis&#45;&gt;outputWS</title>
<path fill="none" stroke="black" d="M527.27,-189.37C553.66,-183.39 584.78,-175.66 612.39,-167 652.35,-154.46 696.51,-136.98 728.93,-123.43"/>
<polygon fill="black" stroke="black" points="730.2,-126.69 738.06,-119.59 727.48,-120.24 730.2,-126.69"/>
</g>
<!-- CorrectTOFAxisRaw -->
<g id="node16" class="node">
<title>CorrectTOFAxisRaw</title>
<path fill="lightskyblue" stroke="black" d="M1001.89,-119.88C1001.89,-119.88 904.89,-119.88 904.89,-119.88 898.89,-119.88 892.89,-113.88 892.89,-107.88 892.89,-107.88 892.89,-95.88 892.89,-95.88 892.89,-89.88 898.89,-83.88 904.89,-83.88 904.89,-83.88 1001.89,-83.88 1001.89,-83.88 1007.89,-83.88 1013.89,-89.88 1013.89,-95.88 1013.89,-95.88 1013.89,-107.88 1013.89,-107.88 1013.89,-113.88 1007.89,-119.88 1001.89,-119.88"/>
<text text-anchor="middle" x="953.39" y="-97.2" font-family="Helvetica,sans-Serif" font-size="14.00">CorrectTOFAxis</text>
</g>
<!-- CorrectTOFAxis&#45;&gt;CorrectTOFAxisRaw -->
<g id="edge38" class="edge">
<title>CorrectTOFAxis&#45;&gt;CorrectTOFAxisRaw</title>
<path fill="none" stroke="black" d="M442.28,-184.74C430.14,-174.03 419.96,-160.34 430.14,-149.75 447.64,-131.54 859.73,-137.21 884.39,-131.75 892.14,-130.03 900.13,-127.49 907.8,-124.61"/>
<polygon fill="black" stroke="black" points="908.99,-127.9 916.96,-120.93 906.38,-121.41 908.99,-127.9"/>
<text text-anchor="middle" x="511.51" y="-153.7" font-family="Helvetica,sans-Serif" font-size="14.00">as reference workspace</text>
</g>
<!-- FindEPPAgain -->
<g id="node19" class="node">
<title>FindEPPAgain</title>
<path fill="lightskyblue" stroke="black" d="M647.64,-131.75C647.64,-131.75 585.14,-131.75 585.14,-131.75 579.14,-131.75 573.14,-125.75 573.14,-119.75 573.14,-119.75 573.14,-84 573.14,-84 573.14,-78 579.14,-72 585.14,-72 585.14,-72 647.64,-72 647.64,-72 653.64,-72 659.64,-78 659.64,-84 659.64,-84 659.64,-119.75 659.64,-119.75 659.64,-125.75 653.64,-131.75 647.64,-131.75"/>
<text text-anchor="middle" x="616.39" y="-114.45" font-family="Helvetica,sans-Serif" font-size="14.00">FindEPP</text>
<text text-anchor="middle" x="616.39" y="-97.2" font-family="Helvetica,sans-Serif" font-size="14.00">or</text>
<text text-anchor="middle" x="616.39" y="-79.95" font-family="Helvetica,sans-Serif" font-size="14.00">CreateEPP</text>
</g>
<!-- CorrectTOFAxis&#45;&gt;FindEPPAgain -->
<g id="edge40" class="edge">
<title>CorrectTOFAxis&#45;&gt;FindEPPAgain</title>
<path fill="none" stroke="black" d="M527.08,-198.87C552.09,-194.59 579.56,-185.56 598.39,-167 604.93,-160.55 609.14,-151.93 611.85,-143.1"/>
<polygon fill="black" stroke="black" points="615.24,-143.97 614.17,-133.43 608.43,-142.34 615.24,-143.97"/>
</g>
<!-- CorrectTOFAxisRaw&#45;&gt;outputRaw -->
<g id="edge39" class="edge">
<title>CorrectTOFAxisRaw&#45;&gt;outputRaw</title>
<path fill="none" stroke="black" d="M953.39,-83.51C953.39,-73.09 953.39,-59.58 953.39,-47.61"/>
<polygon fill="black" stroke="black" points="956.89,-47.85 953.39,-37.85 949.89,-47.85 956.89,-47.85"/>
</g>
<!-- detectors -->
<g id="node29" class="node">
<title>detectors</title>
<polygon fill="grey" stroke="black" points="1069.72,-1092.25 884.66,-1092.25 837.05,-1056.25 1022.11,-1056.25 1069.72,-1092.25"/>
<text text-anchor="middle" x="953.39" y="-1068.08" font-family="Times,serif" font-size="14.00">Detector workspace</text>
</g>
<!-- ExtractMonitors&#45;&gt;detectors -->
<g id="edge10" class="edge">
<title>ExtractMonitors&#45;&gt;detectors</title>
<path fill="none" stroke="black" d="M901.33,-1273.76C911.85,-1264.14 923.61,-1251.31 930.39,-1237.25 951.25,-1193.94 954.58,-1137.11 954.44,-1103.55"/>
<polygon fill="black" stroke="black" points="957.94,-1103.76 954.28,-1093.82 950.95,-1103.87 957.94,-1103.76"/>
</g>
<!-- monitors -->
<g id="node30" class="node">
<title>monitors</title>
<polygon fill="grey" stroke="black" points="921.62,-1237.25 739.9,-1237.25 693.15,-1201.25 874.87,-1201.25 921.62,-1237.25"/>
<text text-anchor="middle" x="807.39" y="-1213.08" font-family="Times,serif" font-size="14.00">Monitor workspace</text>
</g>
<!-- ExtractMonitors&#45;&gt;monitors -->
<g id="edge6" class="edge">
<title>ExtractMonitors&#45;&gt;monitors</title>
<path fill="none" stroke="black" d="M861.96,-1274.06C853.27,-1265.49 842.59,-1254.96 832.99,-1245.49"/>
<polygon fill="black" stroke="black" points="835.56,-1243.12 825.98,-1238.59 830.64,-1248.1 835.56,-1243.12"/>
</g>
<!-- FindEPP -->
<g id="node18" class="node">
<title>FindEPP</title>
<path fill="lightskyblue" stroke="black" d="M129.64,-426.12C129.64,-426.12 67.14,-426.12 67.14,-426.12 61.14,-426.12 55.14,-420.12 55.14,-414.12 55.14,-414.12 55.14,-378.38 55.14,-378.38 55.14,-372.38 61.14,-366.38 67.14,-366.38 67.14,-366.38 129.64,-366.38 129.64,-366.38 135.64,-366.38 141.64,-372.38 141.64,-378.38 141.64,-378.38 141.64,-414.12 141.64,-414.12 141.64,-420.12 135.64,-426.12 129.64,-426.12"/>
<text text-anchor="middle" x="98.39" y="-408.82" font-family="Helvetica,sans-Serif" font-size="14.00">FindEPP</text>
<text text-anchor="middle" x="98.39" y="-391.57" font-family="Helvetica,sans-Serif" font-size="14.00">or</text>
<text text-anchor="middle" x="98.39" y="-374.32" font-family="Helvetica,sans-Serif" font-size="14.00">CreateEPP</text>
</g>
<!-- FindEPP&#45;&gt;CalibrateEi -->
<g id="edge25" class="edge">
<title>FindEPP&#45;&gt;CalibrateEi</title>
<path fill="none" stroke="black" d="M100.93,-365.93C102.45,-348.5 104.37,-326.47 105.88,-309.12"/>
<polygon fill="black" stroke="black" points="109.36,-309.48 106.74,-299.21 102.38,-308.87 109.36,-309.48"/>
</g>
<!-- FindEPPAgain&#45;&gt;outputEPP -->
<g id="edge42" class="edge">
<title>FindEPPAgain&#45;&gt;outputEPP</title>
<path fill="none" stroke="black" d="M616.39,-71.78C616.39,-63.84 616.39,-55.26 616.39,-47.36"/>
<polygon fill="black" stroke="black" points="619.89,-47.6 616.39,-37.6 612.89,-47.6 619.89,-47.6"/>
</g>
<!-- FitElasticChannel -->
<g id="node20" class="node">
<title>FitElasticChannel</title>
<path fill="lightskyblue" stroke="black" d="M820.64,-300.5C820.64,-300.5 692.14,-300.5 692.14,-300.5 686.14,-300.5 680.14,-294.5 680.14,-288.5 680.14,-288.5 680.14,-270 680.14,-270 680.14,-264 686.14,-258 692.14,-258 692.14,-258 820.64,-258 820.64,-258 826.64,-258 832.64,-264 832.64,-270 832.64,-270 832.64,-288.5 832.64,-288.5 832.64,-294.5 826.64,-300.5 820.64,-300.5"/>
<text text-anchor="middle" x="756.39" y="-283.2" font-family="Helvetica,sans-Serif" font-size="14.00">Find elastic channel</text>
<text text-anchor="middle" x="756.39" y="-265.95" font-family="Helvetica,sans-Serif" font-size="14.00">by fitting</text>
</g>
<!-- FitElasticChannel&#45;&gt;CorrectTOFAxis -->
<g id="edge36" class="edge">
<title>FitElasticChannel&#45;&gt;CorrectTOFAxis</title>
<path fill="none" stroke="black" d="M679.81,-258.64C635.97,-247.42 581.3,-233.42 538.27,-222.4"/>
<polygon fill="black" stroke="black" points="539.33,-219.06 528.78,-219.97 537.59,-225.84 539.33,-219.06"/>
</g>
<!-- IntegrateMonitor -->
<g id="node21" class="node">
<title>IntegrateMonitor</title>
<path fill="lightskyblue" stroke="black" d="M807.51,-1092.25C807.51,-1092.25 693.26,-1092.25 693.26,-1092.25 687.26,-1092.25 681.26,-1086.25 681.26,-1080.25 681.26,-1080.25 681.26,-1068.25 681.26,-1068.25 681.26,-1062.25 687.26,-1056.25 693.26,-1056.25 693.26,-1056.25 807.51,-1056.25 807.51,-1056.25 813.51,-1056.25 819.51,-1062.25 819.51,-1068.25 819.51,-1068.25 819.51,-1080.25 819.51,-1080.25 819.51,-1086.25 813.51,-1092.25 807.51,-1092.25"/>
<text text-anchor="middle" x="750.39" y="-1069.58" font-family="Helvetica,sans-Serif" font-size="14.00">Integrate monitor</text>
</g>
<!-- Normalize -->
<g id="node23" class="node">
<title>Normalize</title>
<path fill="lightskyblue" stroke="black" d="M900.76,-1000.75C900.76,-1000.75 728.01,-1000.75 728.01,-1000.75 722.01,-1000.75 716.01,-994.75 716.01,-988.75 716.01,-988.75 716.01,-976.75 716.01,-976.75 716.01,-970.75 722.01,-964.75 728.01,-964.75 728.01,-964.75 900.76,-964.75 900.76,-964.75 906.76,-964.75 912.76,-970.75 912.76,-976.75 912.76,-976.75 912.76,-988.75 912.76,-988.75 912.76,-994.75 906.76,-1000.75 900.76,-1000.75"/>
<text text-anchor="middle" x="814.39" y="-978.08" font-family="Helvetica,sans-Serif" font-size="14.00">Normalise to monitor/time</text>
</g>
<!-- IntegrateMonitor&#45;&gt;Normalize -->
<g id="edge9" class="edge">
<title>IntegrateMonitor&#45;&gt;Normalize</title>
<path fill="none" stroke="black" d="M762.73,-1055.99C772.02,-1042.99 784.93,-1024.94 795.52,-1010.13"/>
<polygon fill="black" stroke="black" points="798.23,-1012.35 801.2,-1002.18 792.54,-1008.28 798.23,-1012.35"/>
</g>
<!-- LoadAndMerge&#45;&gt;ExtractMonitors -->
<g id="edge3" class="edge">
<title>LoadAndMerge&#45;&gt;ExtractMonitors</title>
<path fill="none" stroke="black" d="M827.85,-1347.06C836.03,-1338.52 846.09,-1328.02 855.13,-1318.57"/>
<polygon fill="black" stroke="black" points="857.64,-1321.01 862.03,-1311.37 852.58,-1316.17 857.64,-1321.01"/>
</g>
<!-- ScaleAfterNormalization -->
<g id="node24" class="node">
<title>ScaleAfterNormalization</title>
<path fill="lightskyblue" stroke="black" d="M491.76,-909.25C491.76,-909.25 445.01,-909.25 445.01,-909.25 439.01,-909.25 433.01,-903.25 433.01,-897.25 433.01,-897.25 433.01,-885.25 433.01,-885.25 433.01,-879.25 439.01,-873.25 445.01,-873.25 445.01,-873.25 491.76,-873.25 491.76,-873.25 497.76,-873.25 503.76,-879.25 503.76,-885.25 503.76,-885.25 503.76,-897.25 503.76,-897.25 503.76,-903.25 497.76,-909.25 491.76,-909.25"/>
<text text-anchor="middle" x="468.39" y="-886.58" font-family="Helvetica,sans-Serif" font-size="14.00">Multiply</text>
</g>
<!-- Normalize&#45;&gt;ScaleAfterNormalization -->
<g id="edge13" class="edge">
<title>Normalize&#45;&gt;ScaleAfterNormalization</title>
<path fill="none" stroke="black" d="M764.68,-964.32C746.46,-958.22 725.6,-951.57 706.39,-946.25 640.61,-928.02 563.38,-911.35 515.15,-901.5"/>
<polygon fill="black" stroke="black" points="516.11,-898.12 505.61,-899.56 514.72,-904.98 516.11,-898.12"/>
</g>
<!-- SubtractBkgDetector -->
<g id="node27" class="node">
<title>SubtractBkgDetector</title>
<path fill="lightskyblue" stroke="black" d="M547.01,-601C547.01,-601 381.76,-601 381.76,-601 375.76,-601 369.76,-595 369.76,-589 369.76,-589 369.76,-577 369.76,-577 369.76,-571 375.76,-565 381.76,-565 381.76,-565 547.01,-565 547.01,-565 553.01,-565 559.01,-571 559.01,-577 559.01,-577 559.01,-589 559.01,-589 559.01,-595 553.01,-601 547.01,-601"/>
<text text-anchor="middle" x="464.39" y="-578.33" font-family="Helvetica,sans-Serif" font-size="14.00">Subtract flat background</text>
</g>
<!-- ScaleAfterNormalization&#45;&gt;SubtractBkgDetector -->
<g id="edge23" class="edge">
<title>ScaleAfterNormalization&#45;&gt;SubtractBkgDetector</title>
<path fill="none" stroke="black" d="M503.86,-885.17C561.56,-875.91 669.39,-853.95 669.39,-819.25 669.39,-819.25 669.39,-819.25 669.39,-655 669.39,-631.45 620.45,-613.96 570.4,-602.23"/>
<polygon fill="black" stroke="black" points="571.39,-598.87 560.86,-600.08 569.84,-605.7 571.39,-598.87"/>
</g>
<!-- inputBkgGiven -->
<g id="node33" class="node">
<title>inputBkgGiven</title>
<polygon fill="limegreen" stroke="black" points="348.39,-836.25 155.43,-818.25 348.39,-800.25 541.34,-818.25 348.39,-836.25"/>
<text text-anchor="middle" x="348.39" y="-813.58" font-family="Helvetica,sans-Serif" font-size="14.00">FlatBkgWorkspace given?</text>
</g>
<!-- ScaleAfterNormalization&#45;&gt;inputBkgGiven -->
<g id="edge15" class="edge">
<title>ScaleAfterNormalization&#45;&gt;inputBkgGiven</title>
<path fill="none" stroke="black" d="M439.03,-872.88C422.33,-863 401.29,-850.55 383.69,-840.14"/>
<polygon fill="black" stroke="black" points="385.47,-837.13 375.08,-835.05 381.91,-843.15 385.47,-837.13"/>
</g>
<!-- ScaleBkg&#45;&gt;SubtractBkgDetector -->
<g id="edge22" class="edge">
<title>ScaleBkg&#45;&gt;SubtractBkgDetector</title>
<path fill="none" stroke="black" d="M380.54,-637.63C394.78,-628.52 412.43,-617.23 427.86,-607.36"/>
<polygon fill="black" stroke="black" points="429.31,-610.59 435.85,-602.25 425.54,-604.69 429.31,-610.59"/>
</g>
<!-- SetIncidentEnergy&#45;&gt;outputEi -->
<g id="edge31" class="edge">
<title>SetIncidentEnergy&#45;&gt;outputEi</title>
<path fill="none" stroke="black" d="M300.98,-260.88C301.54,-253.52 300.8,-245.23 296.39,-239 292.8,-233.95 288.39,-229.62 283.46,-225.92"/>
<polygon fill="black" stroke="black" points="285.66,-223.17 275.35,-220.73 281.88,-229.07 285.66,-223.17"/>
</g>
<!-- SetIncidentEnergy&#45;&gt;CorrectTOFAxis -->
<g id="edge30" class="edge">
<title>SetIncidentEnergy&#45;&gt;CorrectTOFAxis</title>
<path fill="none" stroke="black" d="M296.86,-261.02C297.54,-253.34 299.72,-244.74 305.39,-239 306.24,-238.13 352.03,-228.22 394.55,-219.17"/>
<polygon fill="black" stroke="black" points="395.02,-222.65 404.07,-217.15 393.56,-215.8 395.02,-222.65"/>
</g>
<!-- inputEiGiven -->
<g id="node34" class="node">
<title>inputEiGiven</title>
<polygon fill="limegreen" stroke="black" points="464.39,-528 219.35,-510 464.39,-492 709.42,-510 464.39,-528"/>
<text text-anchor="middle" x="464.39" y="-505.32" font-family="Helvetica,sans-Serif" font-size="14.00">IncidentEnergyWorkspace given?</text>
</g>
<!-- SubtractBkgDetector&#45;&gt;inputEiGiven -->
<g id="edge24" class="edge">
<title>SubtractBkgDetector&#45;&gt;inputEiGiven</title>
<path fill="none" stroke="black" d="M464.39,-564.81C464.39,-557.23 464.39,-548.1 464.39,-539.54"/>
<polygon fill="black" stroke="black" points="467.89,-539.54 464.39,-529.54 460.89,-539.54 467.89,-539.54"/>
</g>
<!-- SubtractBkgMonitor -->
<g id="node28" class="node">
<title>SubtractBkgMonitor</title>
<path fill="lightskyblue" stroke="black" d="M845.01,-1165.25C845.01,-1165.25 679.76,-1165.25 679.76,-1165.25 673.76,-1165.25 667.76,-1159.25 667.76,-1153.25 667.76,-1153.25 667.76,-1141.25 667.76,-1141.25 667.76,-1135.25 673.76,-1129.25 679.76,-1129.25 679.76,-1129.25 845.01,-1129.25 845.01,-1129.25 851.01,-1129.25 857.01,-1135.25 857.01,-1141.25 857.01,-1141.25 857.01,-1153.25 857.01,-1153.25 857.01,-1159.25 851.01,-1165.25 845.01,-1165.25"/>
<text text-anchor="middle" x="762.39" y="-1142.58" font-family="Helvetica,sans-Serif" font-size="14.00">Subtract flat background</text>
</g>
<!-- SubtractBkgMonitor&#45;&gt;IntegrateMonitor -->
<g id="edge8" class="edge">
<title>SubtractBkgMonitor&#45;&gt;IntegrateMonitor</title>
<path fill="none" stroke="black" d="M759.48,-1129.06C758.18,-1121.39 756.62,-1112.14 755.16,-1103.49"/>
<polygon fill="black" stroke="black" points="758.63,-1103.05 753.52,-1093.77 751.73,-1104.21 758.63,-1103.05"/>
</g>
<!-- detectors&#45;&gt;CorrectTOFAxisRaw -->
<g id="edge12" class="edge">
<title>detectors&#45;&gt;CorrectTOFAxisRaw</title>
<path fill="none" stroke="black" d="M953.39,-1055.76C953.39,-1037.72 953.39,-1008.77 953.39,-983.75 953.39,-983.75 953.39,-983.75 953.39,-202 953.39,-178.2 953.39,-151.19 953.39,-131.38"/>
<polygon fill="black" stroke="black" points="956.89,-131.58 953.39,-121.58 949.89,-131.58 956.89,-131.58"/>
</g>
<!-- detectors&#45;&gt;Normalize -->
<g id="edge11" class="edge">
<title>detectors&#45;&gt;Normalize</title>
<path fill="none" stroke="black" d="M926.26,-1055.78C904.82,-1041.98 874.7,-1022.59 851.11,-1007.4"/>
<polygon fill="black" stroke="black" points="853.02,-1004.47 842.72,-1001.99 849.23,-1010.35 853.02,-1004.47"/>
</g>
<!-- monitors&#45;&gt;SubtractBkgMonitor -->
<g id="edge7" class="edge">
<title>monitors&#45;&gt;SubtractBkgMonitor</title>
<path fill="none" stroke="black" d="M796.26,-1200.95C791.19,-1193.06 785.08,-1183.55 779.45,-1174.8"/>
<polygon fill="black" stroke="black" points="782.55,-1173.15 774.2,-1166.63 776.66,-1176.93 782.55,-1173.15"/>
</g>
<!-- normalisationScaling -->
<g id="node31" class="node">
<title>normalisationScaling</title>
<polygon fill="grey" stroke="black" points="697.58,-1019.25 329.8,-1019.25 235.19,-946.25 602.97,-946.25 697.58,-1019.25"/>
<text text-anchor="middle" x="466.39" y="-983.7" font-family="Times,serif" font-size="14.00">&#39;scaling_after_monitor_normalisation&#39;</text>
<text text-anchor="middle" x="466.39" y="-969.45" font-family="Times,serif" font-size="14.00">sample log</text>
</g>
<!-- normalisationScaling&#45;&gt;ScaleAfterNormalization -->
<g id="edge14" class="edge">
<title>normalisationScaling&#45;&gt;ScaleAfterNormalization</title>
<path fill="none" stroke="black" d="M467.19,-945.86C467.37,-937.6 467.57,-928.91 467.74,-920.99"/>
<polygon fill="black" stroke="black" points="471.24,-921.31 467.96,-911.23 464.24,-921.15 471.24,-921.31"/>
</g>
<!-- inputElasticChannelGiven -->
<g id="node32" class="node">
<title>inputElasticChannelGiven</title>
<polygon fill="limegreen" stroke="black" points="723.39,-438.75 529.64,-396.25 723.39,-353.75 917.14,-396.25 723.39,-438.75"/>
<text text-anchor="middle" x="723.39" y="-400.2" font-family="Helvetica,sans-Serif" font-size="14.00">ElasticChannelWorkspace</text>
<text text-anchor="middle" x="723.39" y="-382.95" font-family="Helvetica,sans-Serif" font-size="14.00">given?</text>
</g>
<!-- inputElasticChannelGiven&#45;&gt;inputElasticChannel -->
<g id="edge33" class="edge">
<title>inputElasticChannelGiven&#45;&gt;inputElasticChannel</title>
<path fill="none" stroke="black" d="M671.11,-364.73C637.83,-345.3 595.44,-320.56 565.15,-302.88"/>
<polygon fill="black" stroke="black" points="567.08,-299.95 556.68,-297.94 563.55,-306 567.08,-299.95"/>
<text text-anchor="middle" x="630.39" y="-322.45" font-family="Helvetica,sans-Serif" font-size="14.00">yes</text>
</g>
<!-- inputElasticChannelGiven&#45;&gt;FitElasticChannel -->
<g id="edge35" class="edge">
<title>inputElasticChannelGiven&#45;&gt;FitElasticChannel</title>
<path fill="none" stroke="black" d="M734.65,-356C738.79,-341.56 743.43,-325.41 747.35,-311.74"/>
<polygon fill="black" stroke="black" points="750.64,-312.97 750.03,-302.4 743.91,-311.04 750.64,-312.97"/>
<text text-anchor="middle" x="753.01" y="-322.45" font-family="Helvetica,sans-Serif" font-size="14.00">no</text>
</g>
<!-- inputBkgGiven&#45;&gt;inputBkg -->
<g id="edge19" class="edge">
<title>inputBkgGiven&#45;&gt;inputBkg</title>
<path fill="none" stroke="black" d="M348.39,-800.01C348.39,-788.18 348.39,-772.2 348.39,-758.5"/>
<polygon fill="black" stroke="black" points="351.89,-758.72 348.39,-748.72 344.89,-758.72 351.89,-758.72"/>
<text text-anchor="middle" x="360.39" y="-768.95" font-family="Helvetica,sans-Serif" font-size="14.00">yes</text>
</g>
<!-- inputBkgGiven&#45;&gt;CalculateFlatBackground -->
<g id="edge16" class="edge">
<title>inputBkgGiven&#45;&gt;CalculateFlatBackground</title>
<path fill="none" stroke="black" d="M313.69,-803.04C279.67,-789.1 227.37,-767.68 188.19,-751.63"/>
<polygon fill="black" stroke="black" points="189.75,-748.49 179.17,-747.94 187.1,-754.97 189.75,-748.49"/>
<text text-anchor="middle" x="269.01" y="-768.95" font-family="Helvetica,sans-Serif" font-size="14.00">no</text>
</g>
<!-- inputEiGiven&#45;&gt;FindEPP -->
<g id="edge26" class="edge">
<title>inputEiGiven&#45;&gt;FindEPP</title>
<path fill="none" stroke="black" d="M366.54,-498.7C302.62,-489.22 218.65,-471.46 150.39,-438.75 146.84,-437.05 143.32,-435.07 139.88,-432.91"/>
<polygon fill="black" stroke="black" points="141.92,-430.07 131.69,-427.31 137.96,-435.84 141.92,-430.07"/>
<text text-anchor="middle" x="250.01" y="-460.7" font-family="Helvetica,sans-Serif" font-size="14.00">no</text>
</g>
<!-- inputEiGiven&#45;&gt;SetIncidentEnergy -->
<g id="edge28" class="edge">
<title>inputEiGiven&#45;&gt;SetIncidentEnergy</title>
<path fill="none" stroke="black" d="M467.05,-491.76C470.82,-460.97 474.29,-395.84 444.39,-353.75 427.32,-329.72 400.09,-313.12 373.69,-301.86"/>
<polygon fill="black" stroke="black" points="375.23,-298.71 364.64,-298.22 372.61,-305.2 375.23,-298.71"/>
<text text-anchor="middle" x="480.39" y="-391.57" font-family="Helvetica,sans-Serif" font-size="14.00">yes</text>
</g>
<!-- inputFileGiven -->
<g id="node35" class="node">
<title>inputFileGiven</title>
<polygon fill="limegreen" stroke="black" points="867.39,-1580.5 774.88,-1562.5 867.39,-1544.5 959.89,-1562.5 867.39,-1580.5"/>
<text text-anchor="middle" x="867.39" y="-1557.83" font-family="Helvetica,sans-Serif" font-size="14.00">Run given?</text>
</g>
<!-- inputFileGiven&#45;&gt;inputFile -->
<g id="edge1" class="edge">
<title>inputFileGiven&#45;&gt;inputFile</title>
<path fill="none" stroke="black" d="M859.36,-1545.58C856.44,-1539.64 853.18,-1532.8 850.39,-1526.5 846.89,-1518.6 843.3,-1509.93 840.1,-1501.96"/>
<polygon fill="black" stroke="black" points="843.38,-1500.74 836.45,-1492.73 836.87,-1503.31 843.38,-1500.74"/>
<text text-anchor="middle" x="862.39" y="-1513.2" font-family="Helvetica,sans-Serif" font-size="14.00">yes</text>
</g>
<!-- inputFileGiven&#45;&gt;inputWS -->
<g id="edge4" class="edge">
<title>inputFileGiven&#45;&gt;inputWS</title>
<path fill="none" stroke="black" d="M871.94,-1545.02C878.47,-1521.35 890.6,-1477.42 898.58,-1448.51"/>
<polygon fill="black" stroke="black" points="901.93,-1449.53 901.22,-1438.96 895.18,-1447.67 901.93,-1449.53"/>
<text text-anchor="middle" x="889.01" y="-1513.2" font-family="Helvetica,sans-Serif" font-size="14.00">no</text>
</g>
</g>
</svg>
