<?xml version="1.0" encoding="UTF-8" standalone="no"?>
<!DOCTYPE svg PUBLIC "-//W3C//DTD SVG 1.1//EN"
 "http://www.w3.org/Graphics/SVG/1.1/DTD/svg11.dtd">
<!-- Generated by graphviz version 7.1.0 (20230122.1345)
 -->
<!-- Title: Sample Pages: 1 -->
<svg width="661pt" height="1340pt"
 viewBox="0.00 0.00 661.47 1340.00" xmlns="http://www.w3.org/2000/svg" xmlns:xlink="http://www.w3.org/1999/xlink">
<g id="graph0" class="graph" transform="scale(1 1) rotate(0) translate(4 1336)">
<title>Sample</title>
<polygon fill="white" stroke="none" points="-4,4 -4,-1336 657.47,-1336 657.47,4 -4,4"/>
<!-- Mask -->
<g id="node1" class="node">
<title>Mask</title>
<polygon fill="limegreen" stroke="black" points="549.24,-1188 500.31,-1170 549.24,-1152 598.17,-1170 549.24,-1188"/>
<text text-anchor="middle" x="549.24" y="-1166.3" font-family="Helvetica,sans-Serif" font-size="14.00">Mask</text>
</g>
<!-- MaskDetectors -->
<g id="node11" class="node">
<title>MaskDetectors</title>
<path fill="lightskyblue" stroke="black" d="M552.74,-1116C552.74,-1116 457.74,-1116 457.74,-1116 451.74,-1116 445.74,-1110 445.74,-1104 445.74,-1104 445.74,-1092 445.74,-1092 445.74,-1086 451.74,-1080 457.74,-1080 457.74,-1080 552.74,-1080 552.74,-1080 558.74,-1080 564.74,-1086 564.74,-1092 564.74,-1092 564.74,-1104 564.74,-1104 564.74,-1110 558.74,-1116 552.74,-1116"/>
<text text-anchor="middle" x="505.24" y="-1094.3" font-family="Helvetica,sans-Serif" font-size="14.00">MaskDetectors</text>
</g>
<!-- Mask&#45;&gt;MaskDetectors -->
<g id="edge6" class="edge">
<title>Mask&#45;&gt;MaskDetectors</title>
<path fill="none" stroke="black" d="M540.33,-1154.83C535.1,-1146.5 528.31,-1135.7 522.09,-1125.82"/>
<polygon fill="black" stroke="black" points="525.25,-1124.25 516.96,-1117.65 519.32,-1127.98 525.25,-1124.25"/>
</g>
<!-- Minus -->
<g id="node15" class="node">
<title>Minus</title>
<path fill="lightskyblue" stroke="black" d="M522.24,-1044C522.24,-1044 488.24,-1044 488.24,-1044 482.24,-1044 476.24,-1038 476.24,-1032 476.24,-1032 476.24,-1020 476.24,-1020 476.24,-1014 482.24,-1008 488.24,-1008 488.24,-1008 522.24,-1008 522.24,-1008 528.24,-1008 534.24,-1014 534.24,-1020 534.24,-1020 534.24,-1032 534.24,-1032 534.24,-1038 528.24,-1044 522.24,-1044"/>
<text text-anchor="middle" x="505.24" y="-1022.3" font-family="Helvetica,sans-Serif" font-size="14.00">Minus</text>
</g>
<!-- Mask&#45;&gt;Minus -->
<g id="edge8" class="edge">
<title>Mask&#45;&gt;Minus</title>
<path fill="none" stroke="black" d="M558.81,-1155.16C569.98,-1137.14 585.46,-1105.02 573.24,-1080 566.86,-1066.95 555.55,-1056.17 543.95,-1047.83"/>
<polygon fill="black" stroke="black" points="546.21,-1045.12 535.95,-1042.5 542.33,-1050.95 546.21,-1045.12"/>
</g>
<!-- SelfAttenuation -->
<g id="node2" class="node">
<title>SelfAttenuation</title>
<polygon fill="limegreen" stroke="black" points="505.24,-972 392.13,-954 505.24,-936 618.35,-954 505.24,-972"/>
<text text-anchor="middle" x="505.24" y="-950.3" font-family="Helvetica,sans-Serif" font-size="14.00">SelfAttenuation</text>
</g>
<!-- PaalmanPingsMonteCarloAbsorption -->
<g id="node12" class="node">
<title>PaalmanPingsMonteCarloAbsorption</title>
<path fill="lightskyblue" stroke="black" d="M626.74,-900C626.74,-900 383.74,-900 383.74,-900 377.74,-900 371.74,-894 371.74,-888 371.74,-888 371.74,-876 371.74,-876 371.74,-870 377.74,-864 383.74,-864 383.74,-864 626.74,-864 626.74,-864 632.74,-864 638.74,-870 638.74,-876 638.74,-876 638.74,-888 638.74,-888 638.74,-894 632.74,-900 626.74,-900"/>
<text text-anchor="middle" x="505.24" y="-878.3" font-family="Helvetica,sans-Serif" font-size="14.00">PaalmanPingsMonteCarloAbsorption</text>
</g>
<!-- SelfAttenuation&#45;&gt;PaalmanPingsMonteCarloAbsorption -->
<g id="edge12" class="edge">
<title>SelfAttenuation&#45;&gt;PaalmanPingsMonteCarloAbsorption</title>
<path fill="none" stroke="black" d="M505.24,-935.7C505.24,-928.41 505.24,-919.73 505.24,-911.54"/>
<polygon fill="black" stroke="black" points="508.74,-911.62 505.24,-901.62 501.74,-911.62 508.74,-911.62"/>
</g>
<!-- PaalmanPingsAbsorptionCorrection -->
<g id="node13" class="node">
<title>PaalmanPingsAbsorptionCorrection</title>
<path fill="lightskyblue" stroke="black" d="M341.74,-900C341.74,-900 106.74,-900 106.74,-900 100.74,-900 94.74,-894 94.74,-888 94.74,-888 94.74,-876 94.74,-876 94.74,-870 100.74,-864 106.74,-864 106.74,-864 341.74,-864 341.74,-864 347.74,-864 353.74,-870 353.74,-876 353.74,-876 353.74,-888 353.74,-888 353.74,-894 347.74,-900 341.74,-900"/>
<text text-anchor="middle" x="224.24" y="-878.3" font-family="Helvetica,sans-Serif" font-size="14.00">PaalmanPingsAbsorptionCorrection</text>
</g>
<!-- SelfAttenuation&#45;&gt;PaalmanPingsAbsorptionCorrection -->
<g id="edge11" class="edge">
<title>SelfAttenuation&#45;&gt;PaalmanPingsAbsorptionCorrection</title>
<path fill="none" stroke="black" d="M462.56,-942.37C421.01,-932.02 356.79,-916.02 305.49,-903.24"/>
<polygon fill="black" stroke="black" points="306.43,-899.87 295.88,-900.85 304.74,-906.66 306.43,-899.87"/>
</g>
<!-- Divide -->
<g id="node17" class="node">
<title>Divide</title>
<path fill="lightskyblue" stroke="black" d="M523.24,-756C523.24,-756 487.24,-756 487.24,-756 481.24,-756 475.24,-750 475.24,-744 475.24,-744 475.24,-732 475.24,-732 475.24,-726 481.24,-720 487.24,-720 487.24,-720 523.24,-720 523.24,-720 529.24,-720 535.24,-726 535.24,-732 535.24,-732 535.24,-744 535.24,-744 535.24,-750 529.24,-756 523.24,-756"/>
<text text-anchor="middle" x="505.24" y="-734.3" font-family="Helvetica,sans-Serif" font-size="14.00">Divide</text>
</g>
<!-- SelfAttenuation&#45;&gt;Divide -->
<g id="edge16" class="edge">
<title>SelfAttenuation&#45;&gt;Divide</title>
<path fill="none" stroke="black" d="M569.54,-945.76C598.62,-938.91 630.39,-925.64 648.24,-900 666.4,-873.9 630.21,-796.47 626.24,-792 605.49,-768.69 572.62,-755.19 546.37,-747.65"/>
<polygon fill="black" stroke="black" points="547.61,-744.36 537.04,-745.16 545.8,-751.12 547.61,-744.36"/>
</g>
<!-- RebinData -->
<g id="node3" class="node">
<title>RebinData</title>
<polygon fill="limegreen" stroke="black" points="505.24,-468 424.47,-450 505.24,-432 586.01,-450 505.24,-468"/>
<text text-anchor="middle" x="505.24" y="-446.3" font-family="Helvetica,sans-Serif" font-size="14.00">RebinData</text>
</g>
<!-- Group -->
<g id="node4" class="node">
<title>Group</title>
<polygon fill="limegreen" stroke="black" points="505.24,-324 450.78,-306 505.24,-288 559.7,-306 505.24,-324"/>
<text text-anchor="middle" x="505.24" y="-302.3" font-family="Helvetica,sans-Serif" font-size="14.00">Group</text>
</g>
<!-- RebinData&#45;&gt;Group -->
<g id="edge24" class="edge">
<title>RebinData&#45;&gt;Group</title>
<path fill="none" stroke="black" d="M508.8,-432.38C510.84,-421.98 513.2,-408.28 514.24,-396 515.58,-380.06 515.58,-375.94 514.24,-360 513.53,-351.63 512.21,-342.59 510.79,-334.39"/>
<polygon fill="black" stroke="black" points="514.25,-333.83 508.98,-324.64 507.37,-335.11 514.25,-333.83"/>
</g>
<!-- Rebin -->
<g id="node21" class="node">
<title>Rebin</title>
<path fill="lightskyblue" stroke="black" d="M493.24,-396C493.24,-396 461.24,-396 461.24,-396 455.24,-396 449.24,-390 449.24,-384 449.24,-384 449.24,-372 449.24,-372 449.24,-366 455.24,-360 461.24,-360 461.24,-360 493.24,-360 493.24,-360 499.24,-360 505.24,-366 505.24,-372 505.24,-372 505.24,-384 505.24,-384 505.24,-390 499.24,-396 493.24,-396"/>
<text text-anchor="middle" x="477.24" y="-374.3" font-family="Helvetica,sans-Serif" font-size="14.00">Rebin</text>
</g>
<!-- RebinData&#45;&gt;Rebin -->
<g id="edge22" class="edge">
<title>RebinData&#45;&gt;Rebin</title>
<path fill="none" stroke="black" d="M498.88,-433.12C495.76,-425.32 491.91,-415.69 488.33,-406.73"/>
<polygon fill="black" stroke="black" points="491.68,-405.68 484.72,-397.7 485.18,-408.28 491.68,-405.68"/>
</g>
<!-- Save -->
<g id="node5" class="node">
<title>Save</title>
<polygon fill="limegreen" stroke="black" points="505.24,-180 459.32,-162 505.24,-144 551.15,-162 505.24,-180"/>
<text text-anchor="middle" x="505.24" y="-158.3" font-family="Helvetica,sans-Serif" font-size="14.00">Save</text>
</g>
<!-- Group&#45;&gt;Save -->
<g id="edge26" class="edge">
<title>Group&#45;&gt;Save</title>
<path fill="none" stroke="black" d="M514.42,-290.83C520.52,-280.52 527.99,-265.98 531.24,-252 534.86,-236.41 534.86,-231.59 531.24,-216 528.9,-205.92 524.36,-195.55 519.72,-186.68"/>
<polygon fill="black" stroke="black" points="522.83,-185.07 514.9,-178.06 516.73,-188.49 522.83,-185.07"/>
</g>
<!-- GroupDetectors -->
<g id="node23" class="node">
<title>GroupDetectors</title>
<path fill="lightskyblue" stroke="black" d="M510.74,-252C510.74,-252 409.74,-252 409.74,-252 403.74,-252 397.74,-246 397.74,-240 397.74,-240 397.74,-228 397.74,-228 397.74,-222 403.74,-216 409.74,-216 409.74,-216 510.74,-216 510.74,-216 516.74,-216 522.74,-222 522.74,-228 522.74,-228 522.74,-240 522.74,-240 522.74,-246 516.74,-252 510.74,-252"/>
<text text-anchor="middle" x="460.24" y="-230.3" font-family="Helvetica,sans-Serif" font-size="14.00">GroupDetectors</text>
</g>
<!-- Group&#45;&gt;GroupDetectors -->
<g id="edge25" class="edge">
<title>Group&#45;&gt;GroupDetectors</title>
<path fill="none" stroke="black" d="M496.13,-290.83C490.78,-282.5 483.83,-271.7 477.48,-261.82"/>
<polygon fill="black" stroke="black" points="480.57,-260.16 472.22,-253.64 474.69,-263.95 480.57,-260.16"/>
</g>
<!-- OutputWorkspace -->
<g id="node9" class="node">
<title>OutputWorkspace</title>
<polygon fill="grey" stroke="black" points="614.01,-36 440.98,-36 396.47,0 569.5,0 614.01,-36"/>
<text text-anchor="middle" x="505.24" y="-14.3" font-family="Times,serif" font-size="14.00">OutputWorkspace</text>
</g>
<!-- Save&#45;&gt;OutputWorkspace -->
<g id="edge30" class="edge">
<title>Save&#45;&gt;OutputWorkspace</title>
<path fill="none" stroke="black" d="M511.96,-146.52C516.43,-136.07 521.89,-121.48 524.24,-108 526.98,-92.24 526.98,-87.76 524.24,-72 522.78,-63.62 520.12,-54.82 517.24,-46.84"/>
<polygon fill="black" stroke="black" points="520.56,-45.72 513.68,-37.67 514.04,-48.25 520.56,-45.72"/>
</g>
<!-- SaveOutput -->
<g id="node22" class="node">
<title>SaveOutput</title>
<path fill="lightskyblue" stroke="black" d="M503.74,-108C503.74,-108 428.74,-108 428.74,-108 422.74,-108 416.74,-102 416.74,-96 416.74,-96 416.74,-84 416.74,-84 416.74,-78 422.74,-72 428.74,-72 428.74,-72 503.74,-72 503.74,-72 509.74,-72 515.74,-78 515.74,-84 515.74,-84 515.74,-96 515.74,-96 515.74,-102 509.74,-108 503.74,-108"/>
<text text-anchor="middle" x="466.24" y="-86.3" font-family="Helvetica,sans-Serif" font-size="14.00">SaveOutput</text>
</g>
<!-- Save&#45;&gt;SaveOutput -->
<g id="edge28" class="edge">
<title>Save&#45;&gt;SaveOutput</title>
<path fill="none" stroke="black" d="M497.35,-146.83C492.75,-138.59 486.81,-127.93 481.35,-118.13"/>
<polygon fill="black" stroke="black" points="484.58,-116.72 476.65,-109.69 478.46,-120.13 484.58,-116.72"/>
</g>
<!-- Runs -->
<g id="node6" class="node">
<title>Runs</title>
<ellipse fill="khaki" stroke="black" cx="549.24" cy="-1314" rx="33.29" ry="18"/>
<text text-anchor="middle" x="549.24" y="-1310.3" font-family="Helvetica,sans-Serif" font-size="14.00">Runs</text>
</g>
<!-- DirectILLCollectData -->
<g id="node10" class="node">
<title>DirectILLCollectData</title>
<path fill="lightskyblue" stroke="black" d="M614.74,-1260C614.74,-1260 483.74,-1260 483.74,-1260 477.74,-1260 471.74,-1254 471.74,-1248 471.74,-1248 471.74,-1236 471.74,-1236 471.74,-1230 477.74,-1224 483.74,-1224 483.74,-1224 614.74,-1224 614.74,-1224 620.74,-1224 626.74,-1230 626.74,-1236 626.74,-1236 626.74,-1248 626.74,-1248 626.74,-1254 620.74,-1260 614.74,-1260"/>
<text text-anchor="middle" x="549.24" y="-1238.3" font-family="Helvetica,sans-Serif" font-size="14.00">DirectILLCollectData</text>
</g>
<!-- Runs&#45;&gt;DirectILLCollectData -->
<g id="edge1" class="edge">
<title>Runs&#45;&gt;DirectILLCollectData</title>
<path fill="none" stroke="black" d="M549.24,-1295.7C549.24,-1288.41 549.24,-1279.73 549.24,-1271.54"/>
<polygon fill="black" stroke="black" points="552.74,-1271.62 549.24,-1261.62 545.74,-1271.62 552.74,-1271.62"/>
</g>
<!-- EmptyContainerWorkspace -->
<g id="node7" class="node">
<title>EmptyContainerWorkspace</title>
<ellipse fill="khaki" stroke="black" cx="133.24" cy="-1098" rx="133.48" ry="18"/>
<text text-anchor="middle" x="133.24" y="-1094.3" font-family="Helvetica,sans-Serif" font-size="14.00">EmptyContainerWorkspace</text>
</g>
<!-- EmptyContainerWorkspace&#45;&gt;Minus -->
<g id="edge9" class="edge">
<title>EmptyContainerWorkspace&#45;&gt;Minus</title>
<path fill="none" stroke="black" d="M208.97,-1082.75C286.4,-1068.18 403.74,-1046.1 464.92,-1034.59"/>
<polygon fill="black" stroke="black" points="465.36,-1038.07 474.54,-1032.78 464.06,-1031.19 465.36,-1038.07"/>
</g>
<!-- VanadiumWorkspace -->
<g id="node8" class="node">
<title>VanadiumWorkspace</title>
<ellipse fill="khaki" stroke="black" cx="271.24" cy="-810" rx="104.78" ry="18"/>
<text text-anchor="middle" x="271.24" y="-806.3" font-family="Helvetica,sans-Serif" font-size="14.00">VanadiumWorkspace</text>
</g>
<!-- VanadiumWorkspace&#45;&gt;Divide -->
<g id="edge17" class="edge">
<title>VanadiumWorkspace&#45;&gt;Divide</title>
<path fill="none" stroke="black" d="M322.01,-793.81C364.56,-781.08 424.52,-763.15 464.11,-751.3"/>
<polygon fill="black" stroke="black" points="464.92,-754.71 473.5,-748.49 462.91,-748.01 464.92,-754.71"/>
</g>
<!-- DirectILLCollectData&#45;&gt;Mask -->
<g id="edge2" class="edge">
<title>DirectILLCollectData&#45;&gt;Mask</title>
<path fill="none" stroke="black" d="M549.24,-1223.7C549.24,-1216.41 549.24,-1207.73 549.24,-1199.54"/>
<polygon fill="black" stroke="black" points="552.74,-1199.62 549.24,-1189.62 545.74,-1199.62 552.74,-1199.62"/>
</g>
<!-- MaskDetectors&#45;&gt;Minus -->
<g id="edge7" class="edge">
<title>MaskDetectors&#45;&gt;Minus</title>
<path fill="none" stroke="black" d="M505.24,-1079.7C505.24,-1072.41 505.24,-1063.73 505.24,-1055.54"/>
<polygon fill="black" stroke="black" points="508.74,-1055.62 505.24,-1045.62 501.74,-1055.62 508.74,-1055.62"/>
</g>
<!-- ApplyPaalmanPingsCorrection -->
<g id="node14" class="node">
<title>ApplyPaalmanPingsCorrection</title>
<path fill="lightskyblue" stroke="black" d="M604.74,-828C604.74,-828 405.74,-828 405.74,-828 399.74,-828 393.74,-822 393.74,-816 393.74,-816 393.74,-804 393.74,-804 393.74,-798 399.74,-792 405.74,-792 405.74,-792 604.74,-792 604.74,-792 610.74,-792 616.74,-798 616.74,-804 616.74,-804 616.74,-816 616.74,-816 616.74,-822 610.74,-828 604.74,-828"/>
<text text-anchor="middle" x="505.24" y="-806.3" font-family="Helvetica,sans-Serif" font-size="14.00">ApplyPaalmanPingsCorrection</text>
</g>
<!-- PaalmanPingsMonteCarloAbsorption&#45;&gt;ApplyPaalmanPingsCorrection -->
<g id="edge14" class="edge">
<title>PaalmanPingsMonteCarloAbsorption&#45;&gt;ApplyPaalmanPingsCorrection</title>
<path fill="none" stroke="black" d="M505.24,-863.7C505.24,-856.41 505.24,-847.73 505.24,-839.54"/>
<polygon fill="black" stroke="black" points="508.74,-839.62 505.24,-829.62 501.74,-839.62 508.74,-839.62"/>
</g>
<!-- PaalmanPingsAbsorptionCorrection&#45;&gt;ApplyPaalmanPingsCorrection -->
<g id="edge13" class="edge">
<title>PaalmanPingsAbsorptionCorrection&#45;&gt;ApplyPaalmanPingsCorrection</title>
<path fill="none" stroke="black" d="M294.42,-863.52C333.88,-853.69 383.31,-841.37 424.39,-831.14"/>
<polygon fill="black" stroke="black" points="425.14,-834.56 433.99,-828.75 423.44,-827.77 425.14,-834.56"/>
</g>
<!-- ApplyPaalmanPingsCorrection&#45;&gt;Divide -->
<g id="edge15" class="edge">
<title>ApplyPaalmanPingsCorrection&#45;&gt;Divide</title>
<path fill="none" stroke="black" d="M505.24,-791.7C505.24,-784.41 505.24,-775.73 505.24,-767.54"/>
<polygon fill="black" stroke="black" points="508.74,-767.62 505.24,-757.62 501.74,-767.62 508.74,-767.62"/>
</g>
<!-- Minus&#45;&gt;SelfAttenuation -->
<g id="edge10" class="edge">
<title>Minus&#45;&gt;SelfAttenuation</title>
<path fill="none" stroke="black" d="M505.24,-1007.7C505.24,-1000.41 505.24,-991.73 505.24,-983.54"/>
<polygon fill="black" stroke="black" points="508.74,-983.62 505.24,-973.62 501.74,-983.62 508.74,-983.62"/>
</g>
<!-- MaskWorkspace -->
<g id="node16" class="node">
<title>MaskWorkspace</title>
<path fill="lightskyblue" stroke="black" d="M408.24,-1188C408.24,-1188 304.24,-1188 304.24,-1188 298.24,-1188 292.24,-1182 292.24,-1176 292.24,-1176 292.24,-1164 292.24,-1164 292.24,-1158 298.24,-1152 304.24,-1152 304.24,-1152 408.24,-1152 408.24,-1152 414.24,-1152 420.24,-1158 420.24,-1164 420.24,-1164 420.24,-1176 420.24,-1176 420.24,-1182 414.24,-1188 408.24,-1188"/>
<text text-anchor="middle" x="356.24" y="-1166.3" font-family="Helvetica,sans-Serif" font-size="14.00">MaskWorkspace</text>
</g>
<!-- MaskWorkspace&#45;&gt;MaskDetectors -->
<g id="edge5" class="edge">
<title>MaskWorkspace&#45;&gt;MaskDetectors</title>
<path fill="none" stroke="black" d="M393.45,-1151.52C412.99,-1142.34 437.15,-1130.99 457.99,-1121.2"/>
<polygon fill="black" stroke="black" points="459.31,-1124.45 466.87,-1117.03 456.33,-1118.11 459.31,-1124.45"/>
</g>
<!-- MaskCreation -->
<g id="node24" class="node">
<title>MaskCreation</title>
<ellipse fill="lightgrey" stroke="black" cx="356.24" cy="-1098" rx="71.49" ry="18"/>
<text text-anchor="middle" x="356.24" y="-1094.3" font-family="Helvetica,sans-Serif" font-size="14.00">MaskCreation</text>
</g>
<!-- MaskWorkspace&#45;&gt;MaskCreation -->
<g id="edge3" class="edge">
<title>MaskWorkspace&#45;&gt;MaskCreation</title>
<path fill="none" stroke="black" d="M350.32,-1151.7C349.57,-1144.41 349.33,-1135.73 349.59,-1127.54"/>
<polygon fill="black" stroke="black" points="353.08,-1127.82 350.24,-1117.61 346.1,-1127.36 353.08,-1127.82"/>
</g>
<!-- ConvertUnits -->
<g id="node18" class="node">
<title>ConvertUnits</title>
<path fill="lightskyblue" stroke="black" d="M546.74,-684C546.74,-684 463.74,-684 463.74,-684 457.74,-684 451.74,-678 451.74,-672 451.74,-672 451.74,-660 451.74,-660 451.74,-654 457.74,-648 463.74,-648 463.74,-648 546.74,-648 546.74,-648 552.74,-648 558.74,-654 558.74,-660 558.74,-660 558.74,-672 558.74,-672 558.74,-678 552.74,-684 546.74,-684"/>
<text text-anchor="middle" x="505.24" y="-662.3" font-family="Helvetica,sans-Serif" font-size="14.00">ConvertUnits</text>
</g>
<!-- Divide&#45;&gt;ConvertUnits -->
<g id="edge18" class="edge">
<title>Divide&#45;&gt;ConvertUnits</title>
<path fill="none" stroke="black" d="M505.24,-719.7C505.24,-712.41 505.24,-703.73 505.24,-695.54"/>
<polygon fill="black" stroke="black" points="508.74,-695.62 505.24,-685.62 501.74,-695.62 508.74,-695.62"/>
</g>
<!-- CorrectKiKf -->
<g id="node19" class="node">
<title>CorrectKiKf</title>
<path fill="lightskyblue" stroke="black" d="M539.74,-612C539.74,-612 470.74,-612 470.74,-612 464.74,-612 458.74,-606 458.74,-600 458.74,-600 458.74,-588 458.74,-588 458.74,-582 464.74,-576 470.74,-576 470.74,-576 539.74,-576 539.74,-576 545.74,-576 551.74,-582 551.74,-588 551.74,-588 551.74,-600 551.74,-600 551.74,-606 545.74,-612 539.74,-612"/>
<text text-anchor="middle" x="505.24" y="-590.3" font-family="Helvetica,sans-Serif" font-size="14.00">CorrectKiKf</text>
</g>
<!-- ConvertUnits&#45;&gt;CorrectKiKf -->
<g id="edge19" class="edge">
<title>ConvertUnits&#45;&gt;CorrectKiKf</title>
<path fill="none" stroke="black" d="M505.24,-647.7C505.24,-640.41 505.24,-631.73 505.24,-623.54"/>
<polygon fill="black" stroke="black" points="508.74,-623.62 505.24,-613.62 501.74,-623.62 508.74,-623.62"/>
</g>
<!-- DetectorEfficiencyCorUser -->
<g id="node20" class="node">
<title>DetectorEfficiencyCorUser</title>
<path fill="lightskyblue" stroke="black" d="M592.74,-540C592.74,-540 417.74,-540 417.74,-540 411.74,-540 405.74,-534 405.74,-528 405.74,-528 405.74,-516 405.74,-516 405.74,-510 411.74,-504 417.74,-504 417.74,-504 592.74,-504 592.74,-504 598.74,-504 604.74,-510 604.74,-516 604.74,-516 604.74,-528 604.74,-528 604.74,-534 598.74,-540 592.74,-540"/>
<text text-anchor="middle" x="505.24" y="-518.3" font-family="Helvetica,sans-Serif" font-size="14.00">DetectorEfficiencyCorUser</text>
</g>
<!-- CorrectKiKf&#45;&gt;DetectorEfficiencyCorUser -->
<g id="edge20" class="edge">
<title>CorrectKiKf&#45;&gt;DetectorEfficiencyCorUser</title>
<path fill="none" stroke="black" d="M505.24,-575.7C505.24,-568.41 505.24,-559.73 505.24,-551.54"/>
<polygon fill="black" stroke="black" points="508.74,-551.62 505.24,-541.62 501.74,-551.62 508.74,-551.62"/>
</g>
<!-- DetectorEfficiencyCorUser&#45;&gt;RebinData -->
<g id="edge21" class="edge">
<title>DetectorEfficiencyCorUser&#45;&gt;RebinData</title>
<path fill="none" stroke="black" d="M505.24,-503.7C505.24,-496.41 505.24,-487.73 505.24,-479.54"/>
<polygon fill="black" stroke="black" points="508.74,-479.62 505.24,-469.62 501.74,-479.62 508.74,-479.62"/>
</g>
<!-- Rebin&#45;&gt;Group -->
<g id="edge23" class="edge">
<title>Rebin&#45;&gt;Group</title>
<path fill="none" stroke="black" d="M484.16,-359.7C487.39,-351.61 491.31,-341.82 494.89,-332.88"/>
<polygon fill="black" stroke="black" points="498.13,-334.19 498.6,-323.61 491.63,-331.59 498.13,-334.19"/>
</g>
<!-- SaveOutput&#45;&gt;OutputWorkspace -->
<g id="edge29" class="edge">
<title>SaveOutput&#45;&gt;OutputWorkspace</title>
<path fill="none" stroke="black" d="M475.88,-71.7C480.18,-63.98 485.34,-54.71 490.13,-46.11"/>
<polygon fill="black" stroke="black" points="493.16,-47.87 494.97,-37.43 487.05,-44.46 493.16,-47.87"/>
</g>
<!-- GroupDetectors&#45;&gt;Save -->
<g id="edge27" class="edge">
<title>GroupDetectors&#45;&gt;Save</title>
<path fill="none" stroke="black" d="M471.36,-215.7C477.08,-206.8 484.13,-195.84 490.31,-186.22"/>
<polygon fill="black" stroke="black" points="493.07,-188.4 495.53,-178.1 487.18,-184.62 493.07,-188.4"/>
</g>
<!-- MaskCreation&#45;&gt;MaskWorkspace -->
<g id="edge4" class="edge">
<title>MaskCreation&#45;&gt;MaskWorkspace</title>
<path fill="none" stroke="black" d="M362.13,-1116.1C362.89,-1123.37 363.15,-1132.04 362.89,-1140.24"/>
<polygon fill="black" stroke="black" points="359.4,-1139.98 362.25,-1150.19 366.39,-1140.43 359.4,-1139.98"/>
</g>
</g>
</svg>
