<?xml version="1.0" encoding="UTF-8" standalone="no"?>
<!DOCTYPE svg PUBLIC "-//W3C//DTD SVG 1.1//EN"
 "http://www.w3.org/Graphics/SVG/1.1/DTD/svg11.dtd">
<!-- Generated by graphviz version 13.1.1 (20250720.1534)
 -->
<!-- Title: DirectILLCollectData Pages: 1 -->
<svg width="1080pt" height="1616pt"
 viewBox="0.00 0.00 1080.00 1616.00" xmlns="http://www.w3.org/2000/svg" xmlns:xlink="http://www.w3.org/1999/xlink">
<g id="graph0" class="graph" transform="scale(1 1) rotate(0) translate(4 1611.75)">
<title>DirectILLCollectData</title>
<polygon fill="white" stroke="none" points="-4,4 -4,-1611.75 1076.46,-1611.75 1076.46,4 -4,4"/>
<text xml:space="preserve" text-anchor="middle" x="536.23" y="-1590.45" font-family="Helvetica,sans-Serif" font-size="14.00">DirectILLCollectData workflow diagram</text>
<!-- bkgScaling -->
<g id="node1" class="node">
<title>bkgScaling</title>
<ellipse fill="khaki" stroke="black" cx="550.39" cy="-730" rx="83.3" ry="18"/>
<text xml:space="preserve" text-anchor="middle" x="550.39" y="-725.33" font-family="Helvetica,sans-Serif" font-size="14.00">FlatBkgScaling</text>
</g>
<!-- ScaleBkg -->
<g id="node25" class="node">
<title>ScaleBkg</title>
<path fill="lightskyblue" stroke="black" d="M376.76,-675C376.76,-675 330.01,-675 330.01,-675 324.01,-675 318.01,-669 318.01,-663 318.01,-663 318.01,-651 318.01,-651 318.01,-645 324.01,-639 330.01,-639 330.01,-639 376.76,-639 376.76,-639 382.76,-639 388.76,-645 388.76,-651 388.76,-651 388.76,-663 388.76,-663 388.76,-669 382.76,-675 376.76,-675"/>
<text xml:space="preserve" text-anchor="middle" x="353.39" y="-652.33" font-family="Helvetica,sans-Serif" font-size="14.00">Multiply</text>
</g>
<!-- bkgScaling&#45;&gt;ScaleBkg -->
<g id="edge21" class="edge">
<title>bkgScaling&#45;&gt;ScaleBkg</title>
<path fill="none" stroke="black" d="M509.09,-714.12C477.16,-702.61 432.95,-686.68 399.8,-674.73"/>
<polygon fill="black" stroke="black" points="401.03,-671.45 390.44,-671.35 398.66,-678.04 401.03,-671.45"/>
</g>
<!-- inputFile -->
<g id="node2" class="node">
<title>inputFile</title>
<ellipse fill="khaki" stroke="black" cx="831.39" cy="-1475.25" rx="30.16" ry="18"/>
<text xml:space="preserve" text-anchor="middle" x="831.39" y="-1470.58" font-family="Helvetica,sans-Serif" font-size="14.00">Run</text>
</g>
<!-- LoadAndMerge -->
<g id="node22" class="node">
<title>LoadAndMerge</title>
<path fill="lightskyblue" stroke="black" d="M864.14,-1385.25C864.14,-1385.25 768.64,-1385.25 768.64,-1385.25 762.64,-1385.25 756.64,-1379.25 756.64,-1373.25 756.64,-1373.25 756.64,-1361.25 756.64,-1361.25 756.64,-1355.25 762.64,-1349.25 768.64,-1349.25 768.64,-1349.25 864.14,-1349.25 864.14,-1349.25 870.14,-1349.25 876.14,-1355.25 876.14,-1361.25 876.14,-1361.25 876.14,-1373.25 876.14,-1373.25 876.14,-1379.25 870.14,-1385.25 864.14,-1385.25"/>
<text xml:space="preserve" text-anchor="middle" x="816.39" y="-1362.58" font-family="Helvetica,sans-Serif" font-size="14.00">LoadAndMerge</text>
</g>
<!-- inputFile&#45;&gt;LoadAndMerge -->
<g id="edge2" class="edge">
<title>inputFile&#45;&gt;LoadAndMerge</title>
<path fill="none" stroke="black" d="M826.41,-1457.28C824.91,-1451.59 823.39,-1445.19 822.39,-1439.25 820.03,-1425.34 818.58,-1409.72 817.7,-1396.69"/>
<polygon fill="black" stroke="black" points="821.21,-1396.85 817.13,-1387.08 814.23,-1397.27 821.21,-1396.85"/>
</g>
<!-- inputWS -->
<g id="node3" class="node">
<title>inputWS</title>
<ellipse fill="khaki" stroke="black" cx="913.39" cy="-1421.25" rx="90.14" ry="18"/>
<text xml:space="preserve" text-anchor="middle" x="913.39" y="-1416.58" font-family="Helvetica,sans-Serif" font-size="14.00">InputWorkspace</text>
</g>
<!-- ExtractMonitors -->
<g id="node17" class="node">
<title>ExtractMonitors</title>
<path fill="lightskyblue" stroke="black" d="M930.14,-1312.25C930.14,-1312.25 828.64,-1312.25 828.64,-1312.25 822.64,-1312.25 816.64,-1306.25 816.64,-1300.25 816.64,-1300.25 816.64,-1288.25 816.64,-1288.25 816.64,-1282.25 822.64,-1276.25 828.64,-1276.25 828.64,-1276.25 930.14,-1276.25 930.14,-1276.25 936.14,-1276.25 942.14,-1282.25 942.14,-1288.25 942.14,-1288.25 942.14,-1300.25 942.14,-1300.25 942.14,-1306.25 936.14,-1312.25 930.14,-1312.25"/>
<text xml:space="preserve" text-anchor="middle" x="879.39" y="-1289.58" font-family="Helvetica,sans-Serif" font-size="14.00">ExtractMonitors</text>
</g>
<!-- inputWS&#45;&gt;ExtractMonitors -->
<g id="edge5" class="edge">
<title>inputWS&#45;&gt;ExtractMonitors</title>
<path fill="none" stroke="black" d="M908.66,-1402.87C903.08,-1382.35 893.71,-1347.92 887.08,-1323.54"/>
<polygon fill="black" stroke="black" points="890.47,-1322.67 884.47,-1313.94 883.72,-1324.51 890.47,-1322.67"/>
</g>
<!-- inputBkg -->
<g id="node4" class="node">
<title>inputBkg</title>
<ellipse fill="khaki" stroke="black" cx="348.39" cy="-730" rx="101.19" ry="18"/>
<text xml:space="preserve" text-anchor="middle" x="348.39" y="-725.33" font-family="Helvetica,sans-Serif" font-size="14.00">FlatBkgWorkspace</text>
</g>
<!-- inputBkg&#45;&gt;ScaleBkg -->
<g id="edge20" class="edge">
<title>inputBkg&#45;&gt;ScaleBkg</title>
<path fill="none" stroke="black" d="M349.6,-711.81C350.14,-704.14 350.79,-694.89 351.4,-686.24"/>
<polygon fill="black" stroke="black" points="354.87,-686.76 352.08,-676.54 347.89,-686.27 354.87,-686.76"/>
</g>
<!-- inputEi -->
<g id="node5" class="node">
<title>inputEi</title>
<ellipse fill="khaki" stroke="black" cx="297.39" cy="-397.25" rx="138.02" ry="18"/>
<text xml:space="preserve" text-anchor="middle" x="297.39" y="-392.57" font-family="Helvetica,sans-Serif" font-size="14.00">IncidentEnergyWorkspace</text>
</g>
<!-- SetIncidentEnergy -->
<g id="node26" class="node">
<title>SetIncidentEnergy</title>
<path fill="lightskyblue" stroke="black" d="M360.89,-298.25C360.89,-298.25 233.89,-298.25 233.89,-298.25 227.89,-298.25 221.89,-292.25 221.89,-286.25 221.89,-286.25 221.89,-274.25 221.89,-274.25 221.89,-268.25 227.89,-262.25 233.89,-262.25 233.89,-262.25 360.89,-262.25 360.89,-262.25 366.89,-262.25 372.89,-268.25 372.89,-274.25 372.89,-274.25 372.89,-286.25 372.89,-286.25 372.89,-292.25 366.89,-298.25 360.89,-298.25"/>
<text xml:space="preserve" text-anchor="middle" x="297.39" y="-275.57" font-family="Helvetica,sans-Serif" font-size="14.00">Set incident energy</text>
</g>
<!-- inputEi&#45;&gt;SetIncidentEnergy -->
<g id="edge29" class="edge">
<title>inputEi&#45;&gt;SetIncidentEnergy</title>
<path fill="none" stroke="black" d="M297.39,-378.78C297.39,-360.53 297.39,-331.58 297.39,-309.95"/>
<polygon fill="black" stroke="black" points="300.89,-310.02 297.39,-300.02 293.89,-310.02 300.89,-310.02"/>
</g>
<!-- inputElasticChannel -->
<g id="node6" class="node">
<title>inputElasticChannel</title>
<ellipse fill="khaki" stroke="black" cx="526.39" cy="-280.25" rx="135.91" ry="18"/>
<text xml:space="preserve" text-anchor="middle" x="526.39" y="-275.57" font-family="Helvetica,sans-Serif" font-size="14.00">ElasticChannelWorkspace</text>
</g>
<!-- CorrectTOFAxis -->
<g id="node15" class="node">
<title>CorrectTOFAxis</title>
<path fill="lightskyblue" stroke="black" d="M520.89,-222C520.89,-222 423.89,-222 423.89,-222 417.89,-222 411.89,-216 411.89,-210 411.89,-210 411.89,-198 411.89,-198 411.89,-192 417.89,-186 423.89,-186 423.89,-186 520.89,-186 520.89,-186 526.89,-186 532.89,-192 532.89,-198 532.89,-198 532.89,-210 532.89,-210 532.89,-216 526.89,-222 520.89,-222"/>
<text xml:space="preserve" text-anchor="middle" x="472.39" y="-199.32" font-family="Helvetica,sans-Serif" font-size="14.00">CorrectTOFAxis</text>
</g>
<!-- inputElasticChannel&#45;&gt;CorrectTOFAxis -->
<g id="edge34" class="edge">
<title>inputElasticChannel&#45;&gt;CorrectTOFAxis</title>
<path fill="none" stroke="black" d="M513.86,-262.03C507.3,-253 499.11,-241.75 491.75,-231.63"/>
<polygon fill="black" stroke="black" points="494.63,-229.64 485.92,-223.61 488.97,-233.75 494.63,-229.64"/>
</g>
<!-- outputBkg -->
<g id="node7" class="node">
<title>outputBkg</title>
<ellipse fill="khaki" stroke="black" cx="135.39" cy="-657" rx="135.39" ry="18"/>
<text xml:space="preserve" text-anchor="middle" x="135.39" y="-652.33" font-family="Helvetica,sans-Serif" font-size="14.00">OutputFlatBkgWorkspace</text>
</g>
<!-- outputEi -->
<g id="node8" class="node">
<title>outputEi</title>
<ellipse fill="khaki" stroke="black" cx="208.39" cy="-204" rx="172.21" ry="18"/>
<text xml:space="preserve" text-anchor="middle" x="208.39" y="-199.32" font-family="Helvetica,sans-Serif" font-size="14.00">OutputIncidentEnergyWorkspace</text>
</g>
<!-- outputElasticChannel -->
<g id="node9" class="node">
<title>outputElasticChannel</title>
<ellipse fill="khaki" stroke="black" cx="385.39" cy="-102.88" rx="170.11" ry="18"/>
<text xml:space="preserve" text-anchor="middle" x="385.39" y="-98.2" font-family="Helvetica,sans-Serif" font-size="14.00">OutputElasticChannelWorkspace</text>
</g>
<!-- outputEPP -->
<g id="node10" class="node">
<title>outputEPP</title>
<ellipse fill="khaki" stroke="black" cx="616.39" cy="-18" rx="116.45" ry="18"/>
<text xml:space="preserve" text-anchor="middle" x="616.39" y="-13.32" font-family="Helvetica,sans-Serif" font-size="14.00">OutputEPPWorkspace</text>
</g>
<!-- outputRaw -->
<g id="node11" class="node">
<title>outputRaw</title>
<ellipse fill="khaki" stroke="black" cx="953.39" cy="-18" rx="119.08" ry="18"/>
<text xml:space="preserve" text-anchor="middle" x="953.39" y="-13.32" font-family="Helvetica,sans-Serif" font-size="14.00">OutputRawWorkspace</text>
</g>
<!-- outputWS -->
<g id="node12" class="node">
<title>outputWS</title>
<ellipse fill="khaki" stroke="black" cx="776.39" cy="-102.88" rx="98.56" ry="18"/>
<text xml:space="preserve" text-anchor="middle" x="776.39" y="-98.2" font-family="Helvetica,sans-Serif" font-size="14.00">OutputWorkspace</text>
</g>
<!-- CalculateFlatBackground -->
<g id="node13" class="node">
<title>CalculateFlatBackground</title>
<path fill="lightskyblue" stroke="black" d="M217.64,-748C217.64,-748 53.14,-748 53.14,-748 47.14,-748 41.14,-742 41.14,-736 41.14,-736 41.14,-724 41.14,-724 41.14,-718 47.14,-712 53.14,-712 53.14,-712 217.64,-712 217.64,-712 223.64,-712 229.64,-718 229.64,-724 229.64,-724 229.64,-736 229.64,-736 229.64,-742 223.64,-748 217.64,-748"/>
<text xml:space="preserve" text-anchor="middle" x="135.39" y="-725.33" font-family="Helvetica,sans-Serif" font-size="14.00">CalculateFlatBackground</text>
</g>
<!-- CalculateFlatBackground&#45;&gt;outputBkg -->
<g id="edge17" class="edge">
<title>CalculateFlatBackground&#45;&gt;outputBkg</title>
<path fill="none" stroke="black" d="M135.39,-711.81C135.39,-704.23 135.39,-695.1 135.39,-686.54"/>
<polygon fill="black" stroke="black" points="138.89,-686.54 135.39,-676.54 131.89,-686.54 138.89,-686.54"/>
</g>
<!-- CalculateFlatBackground&#45;&gt;ScaleBkg -->
<g id="edge18" class="edge">
<title>CalculateFlatBackground&#45;&gt;ScaleBkg</title>
<path fill="none" stroke="black" d="M188.99,-711.54C225.17,-699.76 272.43,-684.37 306.99,-673.11"/>
<polygon fill="black" stroke="black" points="307.87,-676.51 316.29,-670.08 305.7,-669.85 307.87,-676.51"/>
</g>
<!-- CalibrateEi -->
<g id="node14" class="node">
<title>CalibrateEi</title>
<path fill="lightskyblue" stroke="black" d="M191.76,-298.25C191.76,-298.25 25.01,-298.25 25.01,-298.25 19.01,-298.25 13.01,-292.25 13.01,-286.25 13.01,-286.25 13.01,-274.25 13.01,-274.25 13.01,-268.25 19.01,-262.25 25.01,-262.25 25.01,-262.25 191.76,-262.25 191.76,-262.25 197.76,-262.25 203.76,-268.25 203.76,-274.25 203.76,-274.25 203.76,-286.25 203.76,-286.25 203.76,-292.25 197.76,-298.25 191.76,-298.25"/>
<text xml:space="preserve" text-anchor="middle" x="108.39" y="-275.57" font-family="Helvetica,sans-Serif" font-size="14.00">Calibrate incident energy</text>
</g>
<!-- CalibrateEi&#45;&gt;outputEi -->
<g id="edge27" class="edge">
<title>CalibrateEi&#45;&gt;outputEi</title>
<path fill="none" stroke="black" d="M131.83,-261.84C145,-252.07 161.62,-239.72 176.01,-229.04"/>
<polygon fill="black" stroke="black" points="177.93,-231.97 183.87,-223.2 173.76,-226.35 177.93,-231.97"/>
</g>
<!-- CalibrateEi&#45;&gt;CorrectTOFAxis -->
<g id="edge32" class="edge">
<title>CalibrateEi&#45;&gt;CorrectTOFAxis</title>
<path fill="none" stroke="black" d="M194.17,-261.8C249.82,-250.47 323.9,-235.38 389.39,-222 392.99,-221.26 396.68,-220.51 400.41,-219.75"/>
<polygon fill="black" stroke="black" points="401.07,-223.19 410.16,-217.75 399.66,-216.33 401.07,-223.19"/>
</g>
<!-- CorrectTOFAxis&#45;&gt;outputElasticChannel -->
<g id="edge37" class="edge">
<title>CorrectTOFAxis&#45;&gt;outputElasticChannel</title>
<path fill="none" stroke="black" d="M440.36,-185.56C432.9,-180.54 425.39,-174.61 419.39,-168 409.79,-157.43 402.02,-143.65 396.35,-131.58"/>
<polygon fill="black" stroke="black" points="399.58,-130.24 392.35,-122.5 393.18,-133.06 399.58,-130.24"/>
</g>
<!-- CorrectTOFAxis&#45;&gt;outputWS -->
<g id="edge41" class="edge">
<title>CorrectTOFAxis&#45;&gt;outputWS</title>
<path fill="none" stroke="black" d="M533.37,-191.63C561.67,-185.7 595.57,-177.66 625.39,-168 662.31,-156.04 702.71,-138.64 732.42,-124.99"/>
<polygon fill="black" stroke="black" points="733.89,-128.17 741.48,-120.78 730.94,-121.82 733.89,-128.17"/>
</g>
<!-- CorrectTOFAxisRaw -->
<g id="node16" class="node">
<title>CorrectTOFAxisRaw</title>
<path fill="lightskyblue" stroke="black" d="M1001.89,-120.88C1001.89,-120.88 904.89,-120.88 904.89,-120.88 898.89,-120.88 892.89,-114.88 892.89,-108.88 892.89,-108.88 892.89,-96.88 892.89,-96.88 892.89,-90.88 898.89,-84.88 904.89,-84.88 904.89,-84.88 1001.89,-84.88 1001.89,-84.88 1007.89,-84.88 1013.89,-90.88 1013.89,-96.88 1013.89,-96.88 1013.89,-108.88 1013.89,-108.88 1013.89,-114.88 1007.89,-120.88 1001.89,-120.88"/>
<text xml:space="preserve" text-anchor="middle" x="953.39" y="-98.2" font-family="Helvetica,sans-Serif" font-size="14.00">CorrectTOFAxis</text>
</g>
<!-- CorrectTOFAxis&#45;&gt;CorrectTOFAxisRaw -->
<g id="edge38" class="edge">
<title>CorrectTOFAxis&#45;&gt;CorrectTOFAxisRaw</title>
<path fill="none" stroke="black" d="M533.25,-192.36C594.37,-181.7 691.25,-164.9 775.14,-150.75 823.66,-142.57 837.09,-146.34 884.39,-132.75 891.43,-130.73 898.72,-128.19 905.81,-125.47"/>
<polygon fill="black" stroke="black" points="906.98,-128.77 914.95,-121.8 904.37,-122.28 906.98,-128.77"/>
<text xml:space="preserve" text-anchor="middle" x="857.26" y="-154.7" font-family="Helvetica,sans-Serif" font-size="14.00">as reference workspace</text>
</g>
<!-- FindEPPAgain -->
<g id="node19" class="node">
<title>FindEPPAgain</title>
<path fill="lightskyblue" stroke="black" d="M647.64,-132.75C647.64,-132.75 585.14,-132.75 585.14,-132.75 579.14,-132.75 573.14,-126.75 573.14,-120.75 573.14,-120.75 573.14,-85 573.14,-85 573.14,-79 579.14,-73 585.14,-73 585.14,-73 647.64,-73 647.64,-73 653.64,-73 659.64,-79 659.64,-85 659.64,-85 659.64,-120.75 659.64,-120.75 659.64,-126.75 653.64,-132.75 647.64,-132.75"/>
<text xml:space="preserve" text-anchor="middle" x="616.39" y="-115.45" font-family="Helvetica,sans-Serif" font-size="14.00">FindEPP</text>
<text xml:space="preserve" text-anchor="middle" x="616.39" y="-98.2" font-family="Helvetica,sans-Serif" font-size="14.00">or</text>
<text xml:space="preserve" text-anchor="middle" x="616.39" y="-80.95" font-family="Helvetica,sans-Serif" font-size="14.00">CreateEPP</text>
</g>
<!-- CorrectTOFAxis&#45;&gt;FindEPPAgain -->
<g id="edge40" class="edge">
<title>CorrectTOFAxis&#45;&gt;FindEPPAgain</title>
<path fill="none" stroke="black" d="M533.1,-193.78C563.61,-187.89 596.23,-179.24 606.39,-168 612.27,-161.49 615.5,-153.01 617.14,-144.35"/>
<polygon fill="black" stroke="black" points="620.61,-144.88 618.31,-134.53 613.66,-144.05 620.61,-144.88"/>
</g>
<!-- CorrectTOFAxisRaw&#45;&gt;outputRaw -->
<g id="edge39" class="edge">
<title>CorrectTOFAxisRaw&#45;&gt;outputRaw</title>
<path fill="none" stroke="black" d="M953.39,-84.7C953.39,-74 953.39,-59.95 953.39,-47.6"/>
<polygon fill="black" stroke="black" points="956.89,-47.95 953.39,-37.95 949.89,-47.95 956.89,-47.95"/>
</g>
<!-- detectors -->
<g id="node29" class="node">
<title>detectors</title>
<polygon fill="grey" stroke="black" points="1069.72,-1093.25 884.66,-1093.25 837.05,-1057.25 1022.11,-1057.25 1069.72,-1093.25"/>
<text xml:space="preserve" text-anchor="middle" x="953.39" y="-1069.08" font-family="Times,serif" font-size="14.00">Detector workspace</text>
</g>
<!-- ExtractMonitors&#45;&gt;detectors -->
<g id="edge10" class="edge">
<title>ExtractMonitors&#45;&gt;detectors</title>
<path fill="none" stroke="black" d="M901.33,-1275.77C911.86,-1266.14 923.62,-1253.31 930.39,-1239.25 951.36,-1195.67 954.65,-1138.48 954.48,-1104.72"/>
<polygon fill="black" stroke="black" points="957.98,-1104.86 954.31,-1094.92 950.98,-1104.98 957.98,-1104.86"/>
</g>
<!-- monitors -->
<g id="node30" class="node">
<title>monitors</title>
<polygon fill="grey" stroke="black" points="921.62,-1239.25 739.9,-1239.25 693.15,-1203.25 874.87,-1203.25 921.62,-1239.25"/>
<text xml:space="preserve" text-anchor="middle" x="807.39" y="-1215.08" font-family="Times,serif" font-size="14.00">Monitor workspace</text>
</g>
<!-- ExtractMonitors&#45;&gt;monitors -->
<g id="edge6" class="edge">
<title>ExtractMonitors&#45;&gt;monitors</title>
<path fill="none" stroke="black" d="M861.96,-1276.06C853.27,-1267.49 842.59,-1256.96 832.99,-1247.49"/>
<polygon fill="black" stroke="black" points="835.56,-1245.12 825.98,-1240.59 830.64,-1250.1 835.56,-1245.12"/>
</g>
<!-- FindEPP -->
<g id="node18" class="node">
<title>FindEPP</title>
<path fill="lightskyblue" stroke="black" d="M129.64,-427.12C129.64,-427.12 67.14,-427.12 67.14,-427.12 61.14,-427.12 55.14,-421.12 55.14,-415.12 55.14,-415.12 55.14,-379.38 55.14,-379.38 55.14,-373.38 61.14,-367.38 67.14,-367.38 67.14,-367.38 129.64,-367.38 129.64,-367.38 135.64,-367.38 141.64,-373.38 141.64,-379.38 141.64,-379.38 141.64,-415.12 141.64,-415.12 141.64,-421.12 135.64,-427.12 129.64,-427.12"/>
<text xml:space="preserve" text-anchor="middle" x="98.39" y="-409.82" font-family="Helvetica,sans-Serif" font-size="14.00">FindEPP</text>
<text xml:space="preserve" text-anchor="middle" x="98.39" y="-392.57" font-family="Helvetica,sans-Serif" font-size="14.00">or</text>
<text xml:space="preserve" text-anchor="middle" x="98.39" y="-375.32" font-family="Helvetica,sans-Serif" font-size="14.00">CreateEPP</text>
</g>
<!-- FindEPP&#45;&gt;CalibrateEi -->
<g id="edge25" class="edge">
<title>FindEPP&#45;&gt;CalibrateEi</title>
<path fill="none" stroke="black" d="M100.93,-366.93C102.45,-349.5 104.37,-327.47 105.88,-310.12"/>
<polygon fill="black" stroke="black" points="109.36,-310.48 106.74,-300.21 102.38,-309.87 109.36,-310.48"/>
</g>
<!-- FindEPPAgain&#45;&gt;outputEPP -->
<g id="edge42" class="edge">
<title>FindEPPAgain&#45;&gt;outputEPP</title>
<path fill="none" stroke="black" d="M616.39,-72.89C616.39,-64.74 616.39,-55.87 616.39,-47.73"/>
<polygon fill="black" stroke="black" points="619.89,-48.01 616.39,-38.01 612.89,-48.01 619.89,-48.01"/>
</g>
<!-- FitElasticChannel -->
<g id="node20" class="node">
<title>FitElasticChannel</title>
<path fill="lightskyblue" stroke="black" d="M820.64,-301.5C820.64,-301.5 692.14,-301.5 692.14,-301.5 686.14,-301.5 680.14,-295.5 680.14,-289.5 680.14,-289.5 680.14,-271 680.14,-271 680.14,-265 686.14,-259 692.14,-259 692.14,-259 820.64,-259 820.64,-259 826.64,-259 832.64,-265 832.64,-271 832.64,-271 832.64,-289.5 832.64,-289.5 832.64,-295.5 826.64,-301.5 820.64,-301.5"/>
<text xml:space="preserve" text-anchor="middle" x="756.39" y="-284.2" font-family="Helvetica,sans-Serif" font-size="14.00">Find elastic channel</text>
<text xml:space="preserve" text-anchor="middle" x="756.39" y="-266.95" font-family="Helvetica,sans-Serif" font-size="14.00">by fitting</text>
</g>
<!-- FitElasticChannel&#45;&gt;CorrectTOFAxis -->
<g id="edge36" class="edge">
<title>FitElasticChannel&#45;&gt;CorrectTOFAxis</title>
<path fill="none" stroke="black" d="M679.91,-259.25C637.77,-248.24 585.77,-234.64 544.37,-223.82"/>
<polygon fill="black" stroke="black" points="545.29,-220.44 534.73,-221.3 543.52,-227.21 545.29,-220.44"/>
</g>
<!-- IntegrateMonitor -->
<g id="node21" class="node">
<title>IntegrateMonitor</title>
<path fill="lightskyblue" stroke="black" d="M807.51,-1093.25C807.51,-1093.25 693.26,-1093.25 693.26,-1093.25 687.26,-1093.25 681.26,-1087.25 681.26,-1081.25 681.26,-1081.25 681.26,-1069.25 681.26,-1069.25 681.26,-1063.25 687.26,-1057.25 693.26,-1057.25 693.26,-1057.25 807.51,-1057.25 807.51,-1057.25 813.51,-1057.25 819.51,-1063.25 819.51,-1069.25 819.51,-1069.25 819.51,-1081.25 819.51,-1081.25 819.51,-1087.25 813.51,-1093.25 807.51,-1093.25"/>
<text xml:space="preserve" text-anchor="middle" x="750.39" y="-1070.58" font-family="Helvetica,sans-Serif" font-size="14.00">Integrate monitor</text>
</g>
<!-- Normalize -->
<g id="node23" class="node">
<title>Normalize</title>
<path fill="lightskyblue" stroke="black" d="M900.76,-1001.75C900.76,-1001.75 728.01,-1001.75 728.01,-1001.75 722.01,-1001.75 716.01,-995.75 716.01,-989.75 716.01,-989.75 716.01,-977.75 716.01,-977.75 716.01,-971.75 722.01,-965.75 728.01,-965.75 728.01,-965.75 900.76,-965.75 900.76,-965.75 906.76,-965.75 912.76,-971.75 912.76,-977.75 912.76,-977.75 912.76,-989.75 912.76,-989.75 912.76,-995.75 906.76,-1001.75 900.76,-1001.75"/>
<text xml:space="preserve" text-anchor="middle" x="814.39" y="-979.08" font-family="Helvetica,sans-Serif" font-size="14.00">Normalise to monitor/time</text>
</g>
<!-- IntegrateMonitor&#45;&gt;Normalize -->
<g id="edge9" class="edge">
<title>IntegrateMonitor&#45;&gt;Normalize</title>
<path fill="none" stroke="black" d="M762.73,-1056.99C772.02,-1043.99 784.93,-1025.94 795.52,-1011.13"/>
<polygon fill="black" stroke="black" points="798.23,-1013.35 801.2,-1003.18 792.54,-1009.28 798.23,-1013.35"/>
</g>
<!-- LoadAndMerge&#45;&gt;ExtractMonitors -->
<g id="edge3" class="edge">
<title>LoadAndMerge&#45;&gt;ExtractMonitors</title>
<path fill="none" stroke="black" d="M831.64,-1349.06C839.14,-1340.6 848.34,-1330.23 856.66,-1320.86"/>
<polygon fill="black" stroke="black" points="859.25,-1323.21 863.27,-1313.41 854.02,-1318.57 859.25,-1323.21"/>
</g>
<!-- ScaleAfterNormalization -->
<g id="node24" class="node">
<title>ScaleAfterNormalization</title>
<path fill="lightskyblue" stroke="black" d="M491.76,-910.25C491.76,-910.25 445.01,-910.25 445.01,-910.25 439.01,-910.25 433.01,-904.25 433.01,-898.25 433.01,-898.25 433.01,-886.25 433.01,-886.25 433.01,-880.25 439.01,-874.25 445.01,-874.25 445.01,-874.25 491.76,-874.25 491.76,-874.25 497.76,-874.25 503.76,-880.25 503.76,-886.25 503.76,-886.25 503.76,-898.25 503.76,-898.25 503.76,-904.25 497.76,-910.25 491.76,-910.25"/>
<text xml:space="preserve" text-anchor="middle" x="468.39" y="-887.58" font-family="Helvetica,sans-Serif" font-size="14.00">Multiply</text>
</g>
<!-- Normalize&#45;&gt;ScaleAfterNormalization -->
<g id="edge13" class="edge">
<title>Normalize&#45;&gt;ScaleAfterNormalization</title>
<path fill="none" stroke="black" d="M764.68,-965.32C746.46,-959.22 725.6,-952.57 706.39,-947.25 640.61,-929.02 563.38,-912.35 515.15,-902.5"/>
<polygon fill="black" stroke="black" points="516.11,-899.12 505.61,-900.56 514.72,-905.98 516.11,-899.12"/>
</g>
<!-- SubtractBkgDetector -->
<g id="node27" class="node">
<title>SubtractBkgDetector</title>
<path fill="lightskyblue" stroke="black" d="M547.01,-602C547.01,-602 381.76,-602 381.76,-602 375.76,-602 369.76,-596 369.76,-590 369.76,-590 369.76,-578 369.76,-578 369.76,-572 375.76,-566 381.76,-566 381.76,-566 547.01,-566 547.01,-566 553.01,-566 559.01,-572 559.01,-578 559.01,-578 559.01,-590 559.01,-590 559.01,-596 553.01,-602 547.01,-602"/>
<text xml:space="preserve" text-anchor="middle" x="464.39" y="-579.33" font-family="Helvetica,sans-Serif" font-size="14.00">Subtract flat background</text>
</g>
<!-- ScaleAfterNormalization&#45;&gt;SubtractBkgDetector -->
<g id="edge23" class="edge">
<title>ScaleAfterNormalization&#45;&gt;SubtractBkgDetector</title>
<path fill="none" stroke="black" d="M504.24,-885.6C560.05,-875.77 661.39,-853.36 661.39,-820.25 661.39,-820.25 661.39,-820.25 661.39,-656 661.39,-633.91 616.99,-616.79 570.34,-604.9"/>
<polygon fill="black" stroke="black" points="571.44,-601.57 560.89,-602.58 569.77,-608.37 571.44,-601.57"/>
</g>
<!-- inputBkgGiven -->
<g id="node33" class="node">
<title>inputBkgGiven</title>
<polygon fill="limegreen" stroke="black" points="348.39,-837.25 155.43,-819.25 348.39,-801.25 541.34,-819.25 348.39,-837.25"/>
<text xml:space="preserve" text-anchor="middle" x="348.39" y="-814.58" font-family="Helvetica,sans-Serif" font-size="14.00">FlatBkgWorkspace given?</text>
</g>
<!-- ScaleAfterNormalization&#45;&gt;inputBkgGiven -->
<g id="edge15" class="edge">
<title>ScaleAfterNormalization&#45;&gt;inputBkgGiven</title>
<path fill="none" stroke="black" d="M439.03,-873.88C422.33,-864 401.29,-851.55 383.69,-841.14"/>
<polygon fill="black" stroke="black" points="385.47,-838.13 375.08,-836.05 381.91,-844.15 385.47,-838.13"/>
</g>
<!-- ScaleBkg&#45;&gt;SubtractBkgDetector -->
<g id="edge22" class="edge">
<title>ScaleBkg&#45;&gt;SubtractBkgDetector</title>
<path fill="none" stroke="black" d="M380.54,-638.63C394.78,-629.52 412.43,-618.23 427.86,-608.36"/>
<polygon fill="black" stroke="black" points="429.31,-611.59 435.85,-603.25 425.54,-605.69 429.31,-611.59"/>
</g>
<!-- SetIncidentEnergy&#45;&gt;outputEi -->
<g id="edge31" class="edge">
<title>SetIncidentEnergy&#45;&gt;outputEi</title>
<path fill="none" stroke="black" d="M276.74,-262.03C265.06,-252.28 250.26,-239.94 237.43,-229.23"/>
<polygon fill="black" stroke="black" points="240,-226.82 230.08,-223.1 235.51,-232.19 240,-226.82"/>
</g>
<!-- SetIncidentEnergy&#45;&gt;CorrectTOFAxis -->
<g id="edge30" class="edge">
<title>SetIncidentEnergy&#45;&gt;CorrectTOFAxis</title>
<path fill="none" stroke="black" d="M338.42,-261.84C363.01,-251.41 394.51,-238.04 420.78,-226.9"/>
<polygon fill="black" stroke="black" points="422.08,-230.15 429.92,-223.02 419.34,-223.7 422.08,-230.15"/>
</g>
<!-- inputEiGiven -->
<g id="node34" class="node">
<title>inputEiGiven</title>
<polygon fill="limegreen" stroke="black" points="464.39,-529 219.35,-511 464.39,-493 709.42,-511 464.39,-529"/>
<text xml:space="preserve" text-anchor="middle" x="464.39" y="-506.32" font-family="Helvetica,sans-Serif" font-size="14.00">IncidentEnergyWorkspace given?</text>
</g>
<!-- SubtractBkgDetector&#45;&gt;inputEiGiven -->
<g id="edge24" class="edge">
<title>SubtractBkgDetector&#45;&gt;inputEiGiven</title>
<path fill="none" stroke="black" d="M464.39,-565.81C464.39,-558.23 464.39,-549.1 464.39,-540.54"/>
<polygon fill="black" stroke="black" points="467.89,-540.54 464.39,-530.54 460.89,-540.54 467.89,-540.54"/>
</g>
<!-- SubtractBkgMonitor -->
<g id="node28" class="node">
<title>SubtractBkgMonitor</title>
<path fill="lightskyblue" stroke="black" d="M845.01,-1166.25C845.01,-1166.25 679.76,-1166.25 679.76,-1166.25 673.76,-1166.25 667.76,-1160.25 667.76,-1154.25 667.76,-1154.25 667.76,-1142.25 667.76,-1142.25 667.76,-1136.25 673.76,-1130.25 679.76,-1130.25 679.76,-1130.25 845.01,-1130.25 845.01,-1130.25 851.01,-1130.25 857.01,-1136.25 857.01,-1142.25 857.01,-1142.25 857.01,-1154.25 857.01,-1154.25 857.01,-1160.25 851.01,-1166.25 845.01,-1166.25"/>
<text xml:space="preserve" text-anchor="middle" x="762.39" y="-1143.58" font-family="Helvetica,sans-Serif" font-size="14.00">Subtract flat background</text>
</g>
<!-- SubtractBkgMonitor&#45;&gt;IntegrateMonitor -->
<g id="edge8" class="edge">
<title>SubtractBkgMonitor&#45;&gt;IntegrateMonitor</title>
<path fill="none" stroke="black" d="M759.48,-1130.06C758.18,-1122.39 756.62,-1113.14 755.16,-1104.49"/>
<polygon fill="black" stroke="black" points="758.63,-1104.05 753.52,-1094.77 751.73,-1105.21 758.63,-1104.05"/>
</g>
<!-- detectors&#45;&gt;CorrectTOFAxisRaw -->
<g id="edge12" class="edge">
<title>detectors&#45;&gt;CorrectTOFAxisRaw</title>
<path fill="none" stroke="black" d="M953.39,-1056.76C953.39,-1038.72 953.39,-1009.77 953.39,-984.75 953.39,-984.75 953.39,-984.75 953.39,-203 953.39,-179.2 953.39,-152.19 953.39,-132.38"/>
<polygon fill="black" stroke="black" points="956.89,-132.58 953.39,-122.58 949.89,-132.58 956.89,-132.58"/>
</g>
<!-- detectors&#45;&gt;Normalize -->
<g id="edge11" class="edge">
<title>detectors&#45;&gt;Normalize</title>
<path fill="none" stroke="black" d="M926.26,-1056.78C904.82,-1042.98 874.7,-1023.59 851.11,-1008.4"/>
<polygon fill="black" stroke="black" points="853.02,-1005.47 842.72,-1002.99 849.23,-1011.35 853.02,-1005.47"/>
</g>
<!-- monitors&#45;&gt;SubtractBkgMonitor -->
<g id="edge7" class="edge">
<title>monitors&#45;&gt;SubtractBkgMonitor</title>
<path fill="none" stroke="black" d="M796.49,-1203.06C791.3,-1194.87 784.96,-1184.87 779.17,-1175.73"/>
<polygon fill="black" stroke="black" points="782.3,-1174.13 773.99,-1167.56 776.39,-1177.88 782.3,-1174.13"/>
</g>
<!-- normalisationScaling -->
<g id="node31" class="node">
<title>normalisationScaling</title>
<polygon fill="grey" stroke="black" points="697.58,-1020.25 329.8,-1020.25 235.19,-947.25 602.97,-947.25 697.58,-1020.25"/>
<text xml:space="preserve" text-anchor="middle" x="466.39" y="-984.7" font-family="Times,serif" font-size="14.00">&#39;scaling_after_monitor_normalisation&#39;</text>
<text xml:space="preserve" text-anchor="middle" x="466.39" y="-970.45" font-family="Times,serif" font-size="14.00">sample log</text>
</g>
<!-- normalisationScaling&#45;&gt;ScaleAfterNormalization -->
<g id="edge14" class="edge">
<title>normalisationScaling&#45;&gt;ScaleAfterNormalization</title>
<path fill="none" stroke="black" d="M467.19,-946.86C467.37,-938.6 467.57,-929.91 467.74,-921.99"/>
<polygon fill="black" stroke="black" points="471.24,-922.31 467.96,-912.23 464.24,-922.15 471.24,-922.31"/>
</g>
<!-- inputElasticChannelGiven -->
<g id="node32" class="node">
<title>inputElasticChannelGiven</title>
<polygon fill="limegreen" stroke="black" points="723.39,-439.75 529.64,-397.25 723.39,-354.75 917.14,-397.25 723.39,-439.75"/>
<text xml:space="preserve" text-anchor="middle" x="723.39" y="-401.2" font-family="Helvetica,sans-Serif" font-size="14.00">ElasticChannelWorkspace</text>
<text xml:space="preserve" text-anchor="middle" x="723.39" y="-383.95" font-family="Helvetica,sans-Serif" font-size="14.00">given?</text>
</g>
<!-- inputElasticChannelGiven&#45;&gt;inputElasticChannel -->
<g id="edge33" class="edge">
<title>inputElasticChannelGiven&#45;&gt;inputElasticChannel</title>
<path fill="none" stroke="black" d="M671.11,-365.73C637.83,-346.3 595.44,-321.56 565.15,-303.88"/>
<polygon fill="black" stroke="black" points="567.08,-300.95 556.68,-298.94 563.55,-307 567.08,-300.95"/>
<text xml:space="preserve" text-anchor="middle" x="630.98" y="-323.45" font-family="Helvetica,sans-Serif" font-size="14.00">yes</text>
</g>
<!-- inputElasticChannelGiven&#45;&gt;FitElasticChannel -->
<g id="edge35" class="edge">
<title>inputElasticChannelGiven&#45;&gt;FitElasticChannel</title>
<path fill="none" stroke="black" d="M734.65,-357C738.79,-342.56 743.43,-326.41 747.35,-312.74"/>
<polygon fill="black" stroke="black" points="750.64,-313.97 750.03,-303.4 743.91,-312.04 750.64,-313.97"/>
<text xml:space="preserve" text-anchor="middle" x="753.39" y="-323.45" font-family="Helvetica,sans-Serif" font-size="14.00">no</text>
</g>
<!-- inputBkgGiven&#45;&gt;inputBkg -->
<g id="edge19" class="edge">
<title>inputBkgGiven&#45;&gt;inputBkg</title>
<path fill="none" stroke="black" d="M348.39,-801.01C348.39,-789.18 348.39,-773.2 348.39,-759.5"/>
<polygon fill="black" stroke="black" points="351.89,-759.72 348.39,-749.72 344.89,-759.72 351.89,-759.72"/>
<text xml:space="preserve" text-anchor="middle" x="360.39" y="-769.95" font-family="Helvetica,sans-Serif" font-size="14.00">yes</text>
</g>
<!-- inputBkgGiven&#45;&gt;CalculateFlatBackground -->
<g id="edge16" class="edge">
<title>inputBkgGiven&#45;&gt;CalculateFlatBackground</title>
<path fill="none" stroke="black" d="M313.69,-804.04C279.67,-790.1 227.37,-768.68 188.19,-752.63"/>
<polygon fill="black" stroke="black" points="189.75,-749.49 179.17,-748.94 187.1,-755.97 189.75,-749.49"/>
<text xml:space="preserve" text-anchor="middle" x="269.59" y="-769.95" font-family="Helvetica,sans-Serif" font-size="14.00">no</text>
</g>
<!-- inputEiGiven&#45;&gt;FindEPP -->
<g id="edge26" class="edge">
<title>inputEiGiven&#45;&gt;FindEPP</title>
<path fill="none" stroke="black" d="M366.54,-499.7C302.62,-490.22 218.65,-472.46 150.39,-439.75 146.84,-438.05 143.32,-436.07 139.88,-433.91"/>
<polygon fill="black" stroke="black" points="141.92,-431.07 131.69,-428.31 137.96,-436.84 141.92,-431.07"/>
<text xml:space="preserve" text-anchor="middle" x="249.7" y="-461.7" font-family="Helvetica,sans-Serif" font-size="14.00">no</text>
</g>
<!-- inputEiGiven&#45;&gt;SetIncidentEnergy -->
<g id="edge28" class="edge">
<title>inputEiGiven&#45;&gt;SetIncidentEnergy</title>
<path fill="none" stroke="black" d="M467.05,-492.76C470.82,-461.97 474.29,-396.84 444.39,-354.75 427.32,-330.72 400.09,-314.12 373.69,-302.86"/>
<polygon fill="black" stroke="black" points="375.23,-299.71 364.64,-299.22 372.61,-306.2 375.23,-299.71"/>
<text xml:space="preserve" text-anchor="middle" x="481.11" y="-392.57" font-family="Helvetica,sans-Serif" font-size="14.00">yes</text>
</g>
<!-- inputFileGiven -->
<g id="node35" class="node">
<title>inputFileGiven</title>
<polygon fill="limegreen" stroke="black" points="872.39,-1582.5 779.88,-1564.5 872.39,-1546.5 964.89,-1564.5 872.39,-1582.5"/>
<text xml:space="preserve" text-anchor="middle" x="872.39" y="-1559.83" font-family="Helvetica,sans-Serif" font-size="14.00">Run given?</text>
</g>
<!-- inputFileGiven&#45;&gt;inputFile -->
<g id="edge1" class="edge">
<title>inputFileGiven&#45;&gt;inputFile</title>
<path fill="none" stroke="black" d="M864.7,-1547.85C861.76,-1541.82 858.39,-1534.85 855.39,-1528.5 851.52,-1520.31 847.37,-1511.36 843.64,-1503.22"/>
<polygon fill="black" stroke="black" points="846.83,-1501.78 839.49,-1494.14 840.46,-1504.69 846.83,-1501.78"/>
<text xml:space="preserve" text-anchor="middle" x="867.39" y="-1515.2" font-family="Helvetica,sans-Serif" font-size="14.00">yes</text>
</g>
<!-- inputFileGiven&#45;&gt;inputWS -->
<g id="edge4" class="edge">
<title>inputFileGiven&#45;&gt;inputWS</title>
<path fill="none" stroke="black" d="M877.17,-1547.02C884.04,-1523.35 896.79,-1479.42 905.18,-1450.51"/>
<polygon fill="black" stroke="black" points="908.53,-1451.54 907.96,-1440.96 901.81,-1449.59 908.53,-1451.54"/>
<text xml:space="preserve" text-anchor="middle" x="895.44" y="-1515.2" font-family="Helvetica,sans-Serif" font-size="14.00">no</text>
</g>
</g>
</svg>
