<?xml version="1.0" encoding="UTF-8" standalone="no"?>
<!DOCTYPE svg PUBLIC "-//W3C//DTD SVG 1.1//EN"
 "http://www.w3.org/Graphics/SVG/1.1/DTD/svg11.dtd">
<!-- Generated by graphviz version 11.0.0 (20240519.1550)
 -->
<!-- Title: ElasticWindow Pages: 1 -->
<svg width="1196pt" height="646pt"
 viewBox="0.00 0.00 1196.47 645.75" xmlns="http://www.w3.org/2000/svg" xmlns:xlink="http://www.w3.org/1999/xlink">
<g id="graph0" class="graph" transform="scale(1 1) rotate(0) translate(4 641.75)">
<title>ElasticWindow</title>
<polygon fill="white" stroke="none" points="-4,4 -4,-641.75 1192.47,-641.75 1192.47,4 -4,4"/>
<text text-anchor="middle" x="594.23" y="-620.45" font-family="Helvetica,sans-Serif" font-size="14.00">ElasticWindow Flowchart</text>
<!-- ConvertUnits_Target -->
<g id="node1" class="node">
<title>ConvertUnits_Target</title>
<polygon fill="grey" stroke="black" points="354.88,-217 251.04,-217 224.33,-181 328.17,-181 354.88,-217"/>
<text text-anchor="middle" x="289.6" y="-192.82" font-family="Times,serif" font-size="14.00">QSquared</text>
</g>
<!-- ConvertUnits -->
<g id="node16" class="node">
<title>ConvertUnits</title>
<path fill="lightskyblue" stroke="black" d="M330.98,-109C330.98,-109 248.23,-109 248.23,-109 242.23,-109 236.23,-103 236.23,-97 236.23,-97 236.23,-85 236.23,-85 236.23,-79 242.23,-73 248.23,-73 248.23,-73 330.98,-73 330.98,-73 336.98,-73 342.98,-79 342.98,-85 342.98,-85 342.98,-97 342.98,-97 342.98,-103 336.98,-109 330.98,-109"/>
<text text-anchor="middle" x="289.6" y="-86.33" font-family="Helvetica,sans-Serif" font-size="14.00">ConvertUnits</text>
</g>
<!-- ConvertUnits_Target&#45;&gt;ConvertUnits -->
<g id="edge22" class="edge">
<title>ConvertUnits_Target&#45;&gt;ConvertUnits</title>
<path fill="none" stroke="black" d="M289.6,-180.97C289.6,-164.76 289.6,-140.06 289.6,-120.79"/>
<polygon fill="black" stroke="black" points="293.1,-120.85 289.6,-110.85 286.1,-120.85 293.1,-120.85"/>
<text text-anchor="middle" x="310.6" y="-140.32" font-family="Helvetica,sans-Serif" font-size="14.00">Target</text>
</g>
<!-- ConvertAxis_Q_Taregt -->
<g id="node2" class="node">
<title>ConvertAxis_Q_Taregt</title>
<polygon fill="grey" stroke="black" points="484.89,-306.25 392.17,-306.25 368.32,-270.25 461.03,-270.25 484.89,-306.25"/>
<text text-anchor="middle" x="426.6" y="-282.07" font-family="Times,serif" font-size="14.00">ElasticQ</text>
</g>
<!-- ConvertAxis_Q -->
<g id="node17" class="node">
<title>ConvertAxis_Q</title>
<path fill="lightskyblue" stroke="black" d="M528.35,-217C528.35,-217 384.85,-217 384.85,-217 378.85,-217 372.85,-211 372.85,-205 372.85,-205 372.85,-193 372.85,-193 372.85,-187 378.85,-181 384.85,-181 384.85,-181 528.35,-181 528.35,-181 534.35,-181 540.35,-187 540.35,-193 540.35,-193 540.35,-205 540.35,-205 540.35,-211 534.35,-217 528.35,-217"/>
<text text-anchor="middle" x="456.6" y="-194.32" font-family="Helvetica,sans-Serif" font-size="14.00">ConvertSpectrumAxis</text>
</g>
<!-- ConvertAxis_Q_Taregt&#45;&gt;ConvertAxis_Q -->
<g id="edge11" class="edge">
<title>ConvertAxis_Q_Taregt&#45;&gt;ConvertAxis_Q</title>
<path fill="none" stroke="black" d="M432.53,-270.01C436.64,-258.06 442.2,-241.88 446.95,-228.08"/>
<polygon fill="black" stroke="black" points="450.25,-229.23 450.2,-218.63 443.63,-226.95 450.25,-229.23"/>
<text text-anchor="middle" x="465.6" y="-238.95" font-family="Helvetica,sans-Serif" font-size="14.00">Target</text>
</g>
<!-- ConvertAxis_Q2_Target -->
<g id="node3" class="node">
<title>ConvertAxis_Q2_Target</title>
<polygon fill="grey" stroke="black" points="222.15,-306.25 63.79,-306.25 23.05,-270.25 181.41,-270.25 222.15,-306.25"/>
<text text-anchor="middle" x="122.6" y="-282.07" font-family="Times,serif" font-size="14.00">ElasticQSquared</text>
</g>
<!-- ConvertAxis_Q2 -->
<g id="node18" class="node">
<title>ConvertAxis_Q2</title>
<path fill="lightskyblue" stroke="black" d="M194.35,-217C194.35,-217 50.85,-217 50.85,-217 44.85,-217 38.85,-211 38.85,-205 38.85,-205 38.85,-193 38.85,-193 38.85,-187 44.85,-181 50.85,-181 50.85,-181 194.35,-181 194.35,-181 200.35,-181 206.35,-187 206.35,-193 206.35,-193 206.35,-205 206.35,-205 206.35,-211 200.35,-217 194.35,-217"/>
<text text-anchor="middle" x="122.6" y="-194.32" font-family="Helvetica,sans-Serif" font-size="14.00">ConvertSpectrumAxis</text>
</g>
<!-- ConvertAxis_Q2_Target&#45;&gt;ConvertAxis_Q2 -->
<g id="edge15" class="edge">
<title>ConvertAxis_Q2_Target&#45;&gt;ConvertAxis_Q2</title>
<path fill="none" stroke="black" d="M122.6,-270.01C122.6,-258.18 122.6,-242.2 122.6,-228.5"/>
<polygon fill="black" stroke="black" points="126.1,-228.72 122.6,-218.72 119.1,-228.72 126.1,-228.72"/>
<text text-anchor="middle" x="143.6" y="-238.95" font-family="Helvetica,sans-Serif" font-size="14.00">Target</text>
</g>
<!-- HaveBackgroundRange -->
<g id="node4" class="node">
<title>HaveBackgroundRange</title>
<polygon fill="limegreen" stroke="black" points="717.6,-540.5 523.91,-522.5 717.6,-504.5 911.3,-522.5 717.6,-540.5"/>
<text text-anchor="middle" x="717.6" y="-517.83" font-family="Helvetica,sans-Serif" font-size="14.00">Have Background Range?</text>
</g>
<!-- CalculateFlatBackground -->
<g id="node13" class="node">
<title>CalculateFlatBackground</title>
<path fill="lightskyblue" stroke="black" d="M566.85,-451.25C566.85,-451.25 402.35,-451.25 402.35,-451.25 396.35,-451.25 390.35,-445.25 390.35,-439.25 390.35,-439.25 390.35,-427.25 390.35,-427.25 390.35,-421.25 396.35,-415.25 402.35,-415.25 402.35,-415.25 566.85,-415.25 566.85,-415.25 572.85,-415.25 578.85,-421.25 578.85,-427.25 578.85,-427.25 578.85,-439.25 578.85,-439.25 578.85,-445.25 572.85,-451.25 566.85,-451.25"/>
<text text-anchor="middle" x="484.6" y="-428.57" font-family="Helvetica,sans-Serif" font-size="14.00">CalculateFlatBackground</text>
</g>
<!-- HaveBackgroundRange&#45;&gt;CalculateFlatBackground -->
<g id="edge2" class="edge">
<title>HaveBackgroundRange&#45;&gt;CalculateFlatBackground</title>
<path fill="none" stroke="black" d="M680.17,-507.48C642.81,-493.49 584.92,-471.82 541.8,-455.67"/>
<polygon fill="black" stroke="black" points="543.19,-452.45 532.6,-452.22 540.74,-459.01 543.19,-452.45"/>
<text text-anchor="middle" x="632.85" y="-473.2" font-family="Helvetica,sans-Serif" font-size="14.00">Yes</text>
</g>
<!-- Integration -->
<g id="node14" class="node">
<title>Integration</title>
<path fill="lightskyblue" stroke="black" d="M777.85,-378.25C777.85,-378.25 709.35,-378.25 709.35,-378.25 703.35,-378.25 697.35,-372.25 697.35,-366.25 697.35,-366.25 697.35,-354.25 697.35,-354.25 697.35,-348.25 703.35,-342.25 709.35,-342.25 709.35,-342.25 777.85,-342.25 777.85,-342.25 783.85,-342.25 789.85,-348.25 789.85,-354.25 789.85,-354.25 789.85,-366.25 789.85,-366.25 789.85,-372.25 783.85,-378.25 777.85,-378.25"/>
<text text-anchor="middle" x="743.6" y="-355.57" font-family="Helvetica,sans-Serif" font-size="14.00">Integration</text>
</g>
<!-- HaveBackgroundRange&#45;&gt;Integration -->
<g id="edge6" class="edge">
<title>HaveBackgroundRange&#45;&gt;Integration</title>
<path fill="none" stroke="black" d="M702.62,-505.73C684.57,-484.74 658.48,-446.59 673.85,-415.25 679.69,-403.34 689.57,-393.31 700.08,-385.24"/>
<polygon fill="black" stroke="black" points="702,-388.17 708.16,-379.54 697.97,-382.45 702,-388.17"/>
<text text-anchor="middle" x="682.98" y="-428.57" font-family="Helvetica,sans-Serif" font-size="14.00">No</text>
</g>
<!-- VertAxisIsSpectraNumber -->
<g id="node5" class="node">
<title>VertAxisIsSpectraNumber</title>
<polygon fill="limegreen" stroke="black" points="743.6,-306.25 503.03,-288.25 743.6,-270.25 984.17,-288.25 743.6,-306.25"/>
<text text-anchor="middle" x="743.6" y="-283.57" font-family="Helvetica,sans-Serif" font-size="14.00">Vertical Axis is Spectra Number?</text>
</g>
<!-- ConvertToHistogram -->
<g id="node15" class="node">
<title>ConvertToHistogram</title>
<path fill="lightskyblue" stroke="black" d="M703.1,-217C703.1,-217 570.1,-217 570.1,-217 564.1,-217 558.1,-211 558.1,-205 558.1,-205 558.1,-193 558.1,-193 558.1,-187 564.1,-181 570.1,-181 570.1,-181 703.1,-181 703.1,-181 709.1,-181 715.1,-187 715.1,-193 715.1,-193 715.1,-205 715.1,-205 715.1,-211 709.1,-217 703.1,-217"/>
<text text-anchor="middle" x="636.6" y="-194.32" font-family="Helvetica,sans-Serif" font-size="14.00">ConvertToHistogram</text>
</g>
<!-- VertAxisIsSpectraNumber&#45;&gt;ConvertToHistogram -->
<g id="edge20" class="edge">
<title>VertAxisIsSpectraNumber&#45;&gt;ConvertToHistogram</title>
<path fill="none" stroke="black" d="M757.61,-270.98C765.28,-260.01 771.72,-245.66 763.6,-235 758.07,-227.73 743.61,-221.59 726.34,-216.58"/>
<polygon fill="black" stroke="black" points="727.31,-213.22 716.74,-214 725.49,-219.98 727.31,-213.22"/>
<text text-anchor="middle" x="775.98" y="-238.95" font-family="Helvetica,sans-Serif" font-size="14.00">No</text>
</g>
<!-- VertAxisIsSpectraNumber&#45;&gt;ConvertAxis_Q -->
<g id="edge10" class="edge">
<title>VertAxisIsSpectraNumber&#45;&gt;ConvertAxis_Q</title>
<path fill="none" stroke="black" d="M690.38,-273.75C666.64,-267.53 638.37,-259.85 613.1,-252.25 581.24,-242.67 546.07,-231.02 517.16,-221.16"/>
<polygon fill="black" stroke="black" points="518.43,-217.9 507.83,-217.97 516.16,-224.52 518.43,-217.9"/>
<text text-anchor="middle" x="623.85" y="-238.95" font-family="Helvetica,sans-Serif" font-size="14.00">Yes</text>
</g>
<!-- VertAxisIsSpectraNumber&#45;&gt;ConvertAxis_Q2 -->
<g id="edge14" class="edge">
<title>VertAxisIsSpectraNumber&#45;&gt;ConvertAxis_Q2</title>
<path fill="none" stroke="black" d="M718.97,-271.72C697.77,-259.26 665.9,-242.63 635.6,-235 548.2,-212.99 324.89,-226.4 217.9,-217.02"/>
<polygon fill="black" stroke="black" points="218.48,-213.56 208.18,-216.06 217.78,-220.53 218.48,-213.56"/>
<text text-anchor="middle" x="692.85" y="-238.95" font-family="Helvetica,sans-Serif" font-size="14.00">Yes</text>
</g>
<!-- Transpose_Q_B -->
<g id="node21" class="node">
<title>Transpose_Q_B</title>
<path fill="lightskyblue" stroke="black" d="M761.85,-163C761.85,-163 699.35,-163 699.35,-163 693.35,-163 687.35,-157 687.35,-151 687.35,-151 687.35,-139 687.35,-139 687.35,-133 693.35,-127 699.35,-127 699.35,-127 761.85,-127 761.85,-127 767.85,-127 773.85,-133 773.85,-139 773.85,-139 773.85,-151 773.85,-151 773.85,-157 767.85,-163 761.85,-163"/>
<text text-anchor="middle" x="730.6" y="-140.32" font-family="Helvetica,sans-Serif" font-size="14.00">Transpose</text>
</g>
<!-- VertAxisIsSpectraNumber&#45;&gt;Transpose_Q_B -->
<g id="edge18" class="edge">
<title>VertAxisIsSpectraNumber&#45;&gt;Transpose_Q_B</title>
<path fill="none" stroke="black" d="M742.01,-269.93C739.83,-246.21 735.88,-203.31 733.25,-174.73"/>
<polygon fill="black" stroke="black" points="736.75,-174.61 732.35,-164.97 729.78,-175.25 736.75,-174.61"/>
<text text-anchor="middle" x="748.98" y="-238.95" font-family="Helvetica,sans-Serif" font-size="14.00">No</text>
</g>
<!-- InputWorkspace -->
<g id="node6" class="node">
<title>InputWorkspace</title>
<ellipse fill="khaki" stroke="black" cx="717.6" cy="-594.5" rx="90.14" ry="18"/>
<text text-anchor="middle" x="717.6" y="-589.83" font-family="Helvetica,sans-Serif" font-size="14.00">InputWorkspace</text>
</g>
<!-- InputWorkspace&#45;&gt;HaveBackgroundRange -->
<g id="edge1" class="edge">
<title>InputWorkspace&#45;&gt;HaveBackgroundRange</title>
<path fill="none" stroke="black" d="M717.6,-576.2C717.6,-568.91 717.6,-560.23 717.6,-552.04"/>
<polygon fill="black" stroke="black" points="721.1,-552.12 717.6,-542.12 714.1,-552.12 721.1,-552.12"/>
</g>
<!-- OutputInQ -->
<g id="node7" class="node">
<title>OutputInQ</title>
<ellipse fill="khaki" stroke="black" cx="626.6" cy="-18" rx="62.78" ry="18"/>
<text text-anchor="middle" x="626.6" y="-13.32" font-family="Helvetica,sans-Serif" font-size="14.00">OutputInQ</text>
</g>
<!-- OutputInQSquared -->
<g id="node8" class="node">
<title>OutputInQSquared</title>
<ellipse fill="khaki" stroke="black" cx="232.6" cy="-18" rx="103.29" ry="18"/>
<text text-anchor="middle" x="232.6" y="-13.32" font-family="Helvetica,sans-Serif" font-size="14.00">OutputInQSquared</text>
</g>
<!-- IntegrationRangeStart -->
<g id="node9" class="node">
<title>IntegrationRangeStart</title>
<ellipse fill="khaki" stroke="black" cx="821.6" cy="-433.25" rx="119.6" ry="18"/>
<text text-anchor="middle" x="821.6" y="-428.57" font-family="Helvetica,sans-Serif" font-size="14.00">IntegrationRangeStart</text>
</g>
<!-- IntegrationRangeStart&#45;&gt;Integration -->
<g id="edge7" class="edge">
<title>IntegrationRangeStart&#45;&gt;Integration</title>
<path fill="none" stroke="black" d="M802.72,-415.06C793.21,-406.41 781.5,-395.75 771.02,-386.21"/>
<polygon fill="black" stroke="black" points="773.45,-383.69 763.7,-379.54 768.74,-388.86 773.45,-383.69"/>
</g>
<!-- IntegrationRangeEnd -->
<g id="node10" class="node">
<title>IntegrationRangeEnd</title>
<ellipse fill="khaki" stroke="black" cx="1073.6" cy="-433.25" rx="114.87" ry="18"/>
<text text-anchor="middle" x="1073.6" y="-428.57" font-family="Helvetica,sans-Serif" font-size="14.00">IntegrationRangeEnd</text>
</g>
<!-- IntegrationRangeEnd&#45;&gt;Integration -->
<g id="edge8" class="edge">
<title>IntegrationRangeEnd&#45;&gt;Integration</title>
<path fill="none" stroke="black" d="M1008.01,-418.14C947.57,-405.13 858.75,-386.02 801.04,-373.61"/>
<polygon fill="black" stroke="black" points="801.93,-370.22 791.41,-371.54 800.45,-377.06 801.93,-370.22"/>
</g>
<!-- BackgroundRangeStart -->
<g id="node11" class="node">
<title>BackgroundRangeStart</title>
<ellipse fill="khaki" stroke="black" cx="381.6" cy="-522.5" rx="124.34" ry="18"/>
<text text-anchor="middle" x="381.6" y="-517.83" font-family="Helvetica,sans-Serif" font-size="14.00">BackgroundRangeStart</text>
</g>
<!-- BackgroundRangeStart&#45;&gt;CalculateFlatBackground -->
<g id="edge3" class="edge">
<title>BackgroundRangeStart&#45;&gt;CalculateFlatBackground</title>
<path fill="none" stroke="black" d="M401.95,-504.26C417.33,-491.24 438.64,-473.18 455.77,-458.67"/>
<polygon fill="black" stroke="black" points="457.77,-461.56 463.14,-452.43 453.25,-456.22 457.77,-461.56"/>
</g>
<!-- BackgroundRangeEnd -->
<g id="node12" class="node">
<title>BackgroundRangeEnd</title>
<ellipse fill="khaki" stroke="black" cx="119.6" cy="-522.5" rx="119.6" ry="18"/>
<text text-anchor="middle" x="119.6" y="-517.83" font-family="Helvetica,sans-Serif" font-size="14.00">BackgroundRangeEnd</text>
</g>
<!-- BackgroundRangeEnd&#45;&gt;CalculateFlatBackground -->
<g id="edge4" class="edge">
<title>BackgroundRangeEnd&#45;&gt;CalculateFlatBackground</title>
<path fill="none" stroke="black" d="M181.52,-506.7C241.82,-492.28 333.92,-470.27 400.77,-454.29"/>
<polygon fill="black" stroke="black" points="401.3,-457.76 410.22,-452.03 399.68,-450.95 401.3,-457.76"/>
</g>
<!-- CalculateFlatBackground&#45;&gt;Integration -->
<g id="edge5" class="edge">
<title>CalculateFlatBackground&#45;&gt;Integration</title>
<path fill="none" stroke="black" d="M548.29,-414.79C590.41,-403.24 645.18,-388.23 686,-377.04"/>
<polygon fill="black" stroke="black" points="686.68,-380.48 695.4,-374.46 684.83,-373.73 686.68,-380.48"/>
</g>
<!-- Integration&#45;&gt;VertAxisIsSpectraNumber -->
<g id="edge9" class="edge">
<title>Integration&#45;&gt;VertAxisIsSpectraNumber</title>
<path fill="none" stroke="black" d="M743.6,-341.95C743.6,-334.66 743.6,-325.98 743.6,-317.79"/>
<polygon fill="black" stroke="black" points="747.1,-317.87 743.6,-307.87 740.1,-317.87 747.1,-317.87"/>
</g>
<!-- ConvertToHistogram&#45;&gt;ConvertUnits -->
<g id="edge21" class="edge">
<title>ConvertToHistogram&#45;&gt;ConvertUnits</title>
<path fill="none" stroke="black" d="M557.91,-182.52C533,-177.04 505.48,-170.38 480.6,-163 432.86,-148.84 379.87,-128.79 341.84,-113.6"/>
<polygon fill="black" stroke="black" points="343.52,-110.5 332.93,-110.02 340.91,-117 343.52,-110.5"/>
</g>
<!-- ConvertUnits&#45;&gt;OutputInQSquared -->
<g id="edge23" class="edge">
<title>ConvertUnits&#45;&gt;OutputInQSquared</title>
<path fill="none" stroke="black" d="M275.8,-72.81C269.08,-64.44 260.86,-54.2 253.4,-44.9"/>
<polygon fill="black" stroke="black" points="256.21,-42.82 247.22,-37.21 250.75,-47.2 256.21,-42.82"/>
</g>
<!-- Transpose_Q -->
<g id="node19" class="node">
<title>Transpose_Q</title>
<path fill="lightskyblue" stroke="black" d="M565.85,-109C565.85,-109 503.35,-109 503.35,-109 497.35,-109 491.35,-103 491.35,-97 491.35,-97 491.35,-85 491.35,-85 491.35,-79 497.35,-73 503.35,-73 503.35,-73 565.85,-73 565.85,-73 571.85,-73 577.85,-79 577.85,-85 577.85,-85 577.85,-97 577.85,-97 577.85,-103 571.85,-109 565.85,-109"/>
<text text-anchor="middle" x="534.6" y="-86.33" font-family="Helvetica,sans-Serif" font-size="14.00">Transpose</text>
</g>
<!-- ConvertAxis_Q&#45;&gt;Transpose_Q -->
<g id="edge12" class="edge">
<title>ConvertAxis_Q&#45;&gt;Transpose_Q</title>
<path fill="none" stroke="black" d="M469.13,-180.97C481.57,-164.07 500.8,-137.94 515.21,-118.36"/>
<polygon fill="black" stroke="black" points="517.84,-120.69 520.95,-110.56 512.2,-116.54 517.84,-120.69"/>
</g>
<!-- Transpose_Q2 -->
<g id="node20" class="node">
<title>Transpose_Q2</title>
<path fill="lightskyblue" stroke="black" d="M192.85,-109C192.85,-109 130.35,-109 130.35,-109 124.35,-109 118.35,-103 118.35,-97 118.35,-97 118.35,-85 118.35,-85 118.35,-79 124.35,-73 130.35,-73 130.35,-73 192.85,-73 192.85,-73 198.85,-73 204.85,-79 204.85,-85 204.85,-85 204.85,-97 204.85,-97 204.85,-103 198.85,-109 192.85,-109"/>
<text text-anchor="middle" x="161.6" y="-86.33" font-family="Helvetica,sans-Serif" font-size="14.00">Transpose</text>
</g>
<!-- ConvertAxis_Q2&#45;&gt;Transpose_Q2 -->
<g id="edge16" class="edge">
<title>ConvertAxis_Q2&#45;&gt;Transpose_Q2</title>
<path fill="none" stroke="black" d="M128.87,-180.97C134.92,-164.53 144.18,-139.35 151.31,-119.97"/>
<polygon fill="black" stroke="black" points="154.53,-121.35 154.7,-110.76 147.96,-118.94 154.53,-121.35"/>
</g>
<!-- Transpose_Q&#45;&gt;OutputInQ -->
<g id="edge13" class="edge">
<title>Transpose_Q&#45;&gt;OutputInQ</title>
<path fill="none" stroke="black" d="M556.87,-72.81C568.77,-63.63 583.58,-52.2 596.49,-42.24"/>
<polygon fill="black" stroke="black" points="598.51,-45.1 604.29,-36.22 594.23,-39.56 598.51,-45.1"/>
</g>
<!-- Transpose_Q2&#45;&gt;OutputInQSquared -->
<g id="edge17" class="edge">
<title>Transpose_Q2&#45;&gt;OutputInQSquared</title>
<path fill="none" stroke="black" d="M178.79,-72.81C187.42,-64.18 198.05,-53.56 207.57,-44.03"/>
<polygon fill="black" stroke="black" points="209.91,-46.65 214.5,-37.1 204.96,-41.7 209.91,-46.65"/>
</g>
<!-- Transpose_Q_B&#45;&gt;OutputInQ -->
<g id="edge19" class="edge">
<title>Transpose_Q_B&#45;&gt;OutputInQ</title>
<path fill="none" stroke="black" d="M716.14,-126.62C698.42,-105.32 668.26,-69.07 647.89,-44.58"/>
<polygon fill="black" stroke="black" points="650.66,-42.45 641.58,-37 645.28,-46.92 650.66,-42.45"/>
</g>
</g>
</svg>
