<?xml version="1.0" encoding="UTF-8" standalone="no"?>
<!DOCTYPE svg PUBLIC "-//W3C//DTD SVG 1.1//EN"
 "http://www.w3.org/Graphics/SVG/1.1/DTD/svg11.dtd">
<!-- Generated by graphviz version 13.0.1 (20250616.1512)
 -->
<!-- Title: ElasticWindowMultiple Pages: 1 -->
<svg width="1358pt" height="683pt"
 viewBox="0.00 0.00 1358.00 683.00" xmlns="http://www.w3.org/2000/svg" xmlns:xlink="http://www.w3.org/1999/xlink">
<g id="graph0" class="graph" transform="scale(1 1) rotate(0) translate(4 678.5)">
<title>ElasticWindowMultiple</title>
<polygon fill="white" stroke="none" points="-4,4 -4,-678.5 1353.88,-678.5 1353.88,4 -4,4"/>
<text xml:space="preserve" text-anchor="middle" x="674.94" y="-657.2" font-family="Helvetica,sans-Serif" font-size="14.00">ElasticWindowMultiple Flowchart</text>
<!-- HaveTemperatureLogs -->
<g id="node1" class="node">
<title>HaveTemperatureLogs</title>
<polygon fill="limegreen" stroke="black" points="868.27,-188.5 682.76,-170.5 868.27,-152.5 1053.79,-170.5 868.27,-188.5"/>
<text xml:space="preserve" text-anchor="middle" x="868.27" y="-165.82" font-family="Helvetica,sans-Serif" font-size="14.00">Have Temperature Logs?</text>
</g>
<!-- NormaliseByTemperature -->
<g id="node3" class="node">
<title>NormaliseByTemperature</title>
<polygon fill="lightseagreen" stroke="black" points="950.9,-115.5 785.65,-115.5 785.65,-73 950.9,-73 950.9,-115.5"/>
<text xml:space="preserve" text-anchor="middle" x="868.27" y="-98.2" font-family="Helvetica,sans-Serif" font-size="14.00">Normalise to run with</text>
<text xml:space="preserve" text-anchor="middle" x="868.27" y="-80.95" font-family="Helvetica,sans-Serif" font-size="14.00">lowest temperature</text>
</g>
<!-- HaveTemperatureLogs&#45;&gt;NormaliseByTemperature -->
<g id="edge18" class="edge">
<title>HaveTemperatureLogs&#45;&gt;NormaliseByTemperature</title>
<path fill="none" stroke="black" d="M868.27,-152.28C868.27,-144.8 868.27,-135.79 868.27,-127.16"/>
<polygon fill="black" stroke="black" points="871.77,-127.32 868.27,-117.32 864.77,-127.32 871.77,-127.32"/>
</g>
<!-- ProcessTemperatureLogs -->
<g id="node2" class="node">
<title>ProcessTemperatureLogs</title>
<polygon fill="lightseagreen" stroke="black" points="578.27,-503.25 382.27,-503.25 382.27,-460.75 578.27,-460.75 578.27,-503.25"/>
<text xml:space="preserve" text-anchor="middle" x="480.27" y="-485.95" font-family="Helvetica,sans-Serif" font-size="14.00">Get temperature from run</text>
<text xml:space="preserve" text-anchor="middle" x="480.27" y="-468.7" font-family="Helvetica,sans-Serif" font-size="14.00">and set as vertical axis</text>
</g>
<!-- Logarithm -->
<g id="node16" class="node">
<title>Logarithm</title>
<path fill="lightskyblue" stroke="black" d="M434.52,-407.5C434.52,-407.5 372.02,-407.5 372.02,-407.5 366.02,-407.5 360.02,-401.5 360.02,-395.5 360.02,-395.5 360.02,-383.5 360.02,-383.5 360.02,-377.5 366.02,-371.5 372.02,-371.5 372.02,-371.5 434.52,-371.5 434.52,-371.5 440.52,-371.5 446.52,-377.5 446.52,-383.5 446.52,-383.5 446.52,-395.5 446.52,-395.5 446.52,-401.5 440.52,-407.5 434.52,-407.5"/>
<text xml:space="preserve" text-anchor="middle" x="403.27" y="-384.82" font-family="Helvetica,sans-Serif" font-size="14.00">Logarithm</text>
</g>
<!-- ProcessTemperatureLogs&#45;&gt;Logarithm -->
<g id="edge9" class="edge">
<title>ProcessTemperatureLogs&#45;&gt;Logarithm</title>
<path fill="none" stroke="black" d="M421.44,-460.31C414.56,-455.56 408.43,-449.78 404.02,-442.75 399.68,-435.83 398.3,-427.32 398.34,-419.18"/>
<polygon fill="black" stroke="black" points="401.82,-419.52 399.1,-409.28 394.84,-418.98 401.82,-419.52"/>
<text xml:space="preserve" text-anchor="middle" x="469.65" y="-429.45" font-family="Helvetica,sans-Serif" font-size="14.00">OutputInQSquared</text>
</g>
<!-- AppendSpectra_Q -->
<g id="node19" class="node">
<title>AppendSpectra_Q</title>
<path fill="lightskyblue" stroke="black" d="M606.9,-407.5C606.9,-407.5 507.65,-407.5 507.65,-407.5 501.65,-407.5 495.65,-401.5 495.65,-395.5 495.65,-395.5 495.65,-383.5 495.65,-383.5 495.65,-377.5 501.65,-371.5 507.65,-371.5 507.65,-371.5 606.9,-371.5 606.9,-371.5 612.9,-371.5 618.9,-377.5 618.9,-383.5 618.9,-383.5 618.9,-395.5 618.9,-395.5 618.9,-401.5 612.9,-407.5 606.9,-407.5"/>
<text xml:space="preserve" text-anchor="middle" x="557.27" y="-384.82" font-family="Helvetica,sans-Serif" font-size="14.00">AppendSpectra</text>
</g>
<!-- ProcessTemperatureLogs&#45;&gt;AppendSpectra_Q -->
<g id="edge11" class="edge">
<title>ProcessTemperatureLogs&#45;&gt;AppendSpectra_Q</title>
<path fill="none" stroke="black" d="M516.21,-460.42C523.16,-455.29 529.93,-449.35 535.27,-442.75 541.05,-435.62 545.53,-426.76 548.9,-418.38"/>
<polygon fill="black" stroke="black" points="552.1,-419.83 552.19,-409.23 545.51,-417.46 552.1,-419.83"/>
<text xml:space="preserve" text-anchor="middle" x="582.49" y="-429.45" font-family="Helvetica,sans-Serif" font-size="14.00">OutputInQ</text>
</g>
<!-- OutputELT -->
<g id="node14" class="node">
<title>OutputELT</title>
<ellipse fill="khaki" stroke="black" cx="868.27" cy="-18" rx="61.73" ry="18"/>
<text xml:space="preserve" text-anchor="middle" x="868.27" y="-13.32" font-family="Helvetica,sans-Serif" font-size="14.00">OutputELT</text>
</g>
<!-- NormaliseByTemperature&#45;&gt;OutputELT -->
<g id="edge19" class="edge">
<title>NormaliseByTemperature&#45;&gt;OutputELT</title>
<path fill="none" stroke="black" d="M868.27,-72.57C868.27,-64.75 868.27,-55.72 868.27,-47.32"/>
<polygon fill="black" stroke="black" points="871.77,-47.58 868.27,-37.58 864.77,-47.58 871.77,-47.58"/>
</g>
<!-- InputWorkspaces -->
<g id="node4" class="node">
<title>InputWorkspaces</title>
<ellipse fill="khaki" stroke="black" cx="226.27" cy="-631.25" rx="95.4" ry="18"/>
<text xml:space="preserve" text-anchor="middle" x="226.27" y="-626.58" font-family="Helvetica,sans-Serif" font-size="14.00">InputWorkspaces</text>
</g>
<!-- ElasticWindow -->
<g id="node15" class="node">
<title>ElasticWindow</title>
<path fill="lightskyblue" stroke="black" d="M757.15,-576.25C757.15,-576.25 665.4,-576.25 665.4,-576.25 659.4,-576.25 653.4,-570.25 653.4,-564.25 653.4,-564.25 653.4,-552.25 653.4,-552.25 653.4,-546.25 659.4,-540.25 665.4,-540.25 665.4,-540.25 757.15,-540.25 757.15,-540.25 763.15,-540.25 769.15,-546.25 769.15,-552.25 769.15,-552.25 769.15,-564.25 769.15,-564.25 769.15,-570.25 763.15,-576.25 757.15,-576.25"/>
<text xml:space="preserve" text-anchor="middle" x="711.27" y="-553.58" font-family="Helvetica,sans-Serif" font-size="14.00">ElasticWindow</text>
</g>
<!-- InputWorkspaces&#45;&gt;ElasticWindow -->
<g id="edge1" class="edge">
<title>InputWorkspaces&#45;&gt;ElasticWindow</title>
<path fill="none" stroke="black" d="M295.58,-618.48C307.15,-616.64 319.04,-614.83 330.27,-613.25 465.89,-594.19 504.17,-601.41 641.93,-576.55"/>
<polygon fill="black" stroke="black" points="642.21,-580.06 651.42,-574.81 640.95,-573.17 642.21,-580.06"/>
</g>
<!-- IntegrationRangeStart -->
<g id="node5" class="node">
<title>IntegrationRangeStart</title>
<ellipse fill="khaki" stroke="black" cx="459.27" cy="-631.25" rx="119.6" ry="18"/>
<text xml:space="preserve" text-anchor="middle" x="459.27" y="-626.58" font-family="Helvetica,sans-Serif" font-size="14.00">IntegrationRangeStart</text>
</g>
<!-- IntegrationRangeStart&#45;&gt;ElasticWindow -->
<g id="edge2" class="edge">
<title>IntegrationRangeStart&#45;&gt;ElasticWindow</title>
<path fill="none" stroke="black" d="M513.95,-614.84C551.61,-604.23 601.94,-590.05 642.35,-578.67"/>
<polygon fill="black" stroke="black" points="643.06,-582.11 651.74,-576.02 641.16,-575.37 643.06,-582.11"/>
</g>
<!-- IntegrationRangeEnd -->
<g id="node6" class="node">
<title>IntegrationRangeEnd</title>
<ellipse fill="khaki" stroke="black" cx="711.27" cy="-631.25" rx="114.87" ry="18"/>
<text xml:space="preserve" text-anchor="middle" x="711.27" y="-626.58" font-family="Helvetica,sans-Serif" font-size="14.00">IntegrationRangeEnd</text>
</g>
<!-- IntegrationRangeEnd&#45;&gt;ElasticWindow -->
<g id="edge3" class="edge">
<title>IntegrationRangeEnd&#45;&gt;ElasticWindow</title>
<path fill="none" stroke="black" d="M711.27,-613.06C711.27,-605.48 711.27,-596.35 711.27,-587.79"/>
<polygon fill="black" stroke="black" points="714.77,-587.79 711.27,-577.79 707.77,-587.79 714.77,-587.79"/>
</g>
<!-- BackgroundRangeStart -->
<g id="node7" class="node">
<title>BackgroundRangeStart</title>
<ellipse fill="khaki" stroke="black" cx="968.27" cy="-631.25" rx="124.34" ry="18"/>
<text xml:space="preserve" text-anchor="middle" x="968.27" y="-626.58" font-family="Helvetica,sans-Serif" font-size="14.00">BackgroundRangeStart</text>
</g>
<!-- BackgroundRangeStart&#45;&gt;ElasticWindow -->
<g id="edge4" class="edge">
<title>BackgroundRangeStart&#45;&gt;ElasticWindow</title>
<path fill="none" stroke="black" d="M912.19,-614.76C873.5,-604.07 821.8,-589.78 780.53,-578.38"/>
<polygon fill="black" stroke="black" points="781.49,-575.02 770.92,-575.73 779.63,-581.77 781.49,-575.02"/>
</g>
<!-- BackgroundRangeEnd -->
<g id="node8" class="node">
<title>BackgroundRangeEnd</title>
<ellipse fill="khaki" stroke="black" cx="1230.27" cy="-631.25" rx="119.6" ry="18"/>
<text xml:space="preserve" text-anchor="middle" x="1230.27" y="-626.58" font-family="Helvetica,sans-Serif" font-size="14.00">BackgroundRangeEnd</text>
</g>
<!-- BackgroundRangeEnd&#45;&gt;ElasticWindow -->
<g id="edge5" class="edge">
<title>BackgroundRangeEnd&#45;&gt;ElasticWindow</title>
<path fill="none" stroke="black" d="M1143.99,-618.45C1042.16,-604.52 874.85,-581.63 780.9,-568.77"/>
<polygon fill="black" stroke="black" points="781.42,-565.31 771.03,-567.43 780.47,-572.25 781.42,-565.31"/>
</g>
<!-- SampleEnvironmentLogValue -->
<g id="node9" class="node">
<title>SampleEnvironmentLogValue</title>
<ellipse fill="khaki" stroke="black" cx="153.27" cy="-558.25" rx="153.27" ry="18"/>
<text xml:space="preserve" text-anchor="middle" x="153.27" y="-553.58" font-family="Helvetica,sans-Serif" font-size="14.00">SampleEnvironmentLogValue</text>
</g>
<!-- SampleEnvironmentLogValue&#45;&gt;ProcessTemperatureLogs -->
<g id="edge6" class="edge">
<title>SampleEnvironmentLogValue&#45;&gt;ProcessTemperatureLogs</title>
<path fill="none" stroke="black" d="M221.43,-541.78C266.68,-531.5 326.91,-517.82 377.88,-506.25"/>
<polygon fill="black" stroke="black" points="378.49,-509.7 387.47,-504.07 376.94,-502.87 378.49,-509.7"/>
</g>
<!-- SampleEnvironmentLogName -->
<g id="node10" class="node">
<title>SampleEnvironmentLogName</title>
<ellipse fill="khaki" stroke="black" cx="480.27" cy="-558.25" rx="155.38" ry="18"/>
<text xml:space="preserve" text-anchor="middle" x="480.27" y="-553.58" font-family="Helvetica,sans-Serif" font-size="14.00">SampleEnvironmentLogName</text>
</g>
<!-- SampleEnvironmentLogName&#45;&gt;ProcessTemperatureLogs -->
<g id="edge7" class="edge">
<title>SampleEnvironmentLogName&#45;&gt;ProcessTemperatureLogs</title>
<path fill="none" stroke="black" d="M480.27,-540.03C480.27,-532.55 480.27,-523.54 480.27,-514.91"/>
<polygon fill="black" stroke="black" points="483.77,-515.07 480.27,-505.07 476.77,-515.07 483.77,-515.07"/>
</g>
<!-- OutputInQ -->
<g id="node11" class="node">
<title>OutputInQ</title>
<ellipse fill="khaki" stroke="black" cx="551.27" cy="-316.5" rx="62.78" ry="18"/>
<text xml:space="preserve" text-anchor="middle" x="551.27" y="-311.82" font-family="Helvetica,sans-Serif" font-size="14.00">OutputInQ</text>
</g>
<!-- OutputInQSquared -->
<g id="node12" class="node">
<title>OutputInQSquared</title>
<ellipse fill="khaki" stroke="black" cx="403.27" cy="-243.5" rx="103.29" ry="18"/>
<text xml:space="preserve" text-anchor="middle" x="403.27" y="-238.82" font-family="Helvetica,sans-Serif" font-size="14.00">OutputInQSquared</text>
</g>
<!-- OutputELF -->
<g id="node13" class="node">
<title>OutputELF</title>
<ellipse fill="khaki" stroke="black" cx="602.27" cy="-170.5" rx="62.78" ry="18"/>
<text xml:space="preserve" text-anchor="middle" x="602.27" y="-165.82" font-family="Helvetica,sans-Serif" font-size="14.00">OutputELF</text>
</g>
<!-- ElasticWindow&#45;&gt;ProcessTemperatureLogs -->
<g id="edge8" class="edge">
<title>ElasticWindow&#45;&gt;ProcessTemperatureLogs</title>
<path fill="none" stroke="black" d="M657.11,-539.84C626.79,-530.09 588.52,-517.79 555.34,-507.13"/>
<polygon fill="black" stroke="black" points="556.8,-503.92 546.21,-504.19 554.66,-510.59 556.8,-503.92"/>
</g>
<!-- AppendSpectra_Q2 -->
<g id="node20" class="node">
<title>AppendSpectra_Q2</title>
<path fill="lightskyblue" stroke="black" d="M452.9,-334.5C452.9,-334.5 353.65,-334.5 353.65,-334.5 347.65,-334.5 341.65,-328.5 341.65,-322.5 341.65,-322.5 341.65,-310.5 341.65,-310.5 341.65,-304.5 347.65,-298.5 353.65,-298.5 353.65,-298.5 452.9,-298.5 452.9,-298.5 458.9,-298.5 464.9,-304.5 464.9,-310.5 464.9,-310.5 464.9,-322.5 464.9,-322.5 464.9,-328.5 458.9,-334.5 452.9,-334.5"/>
<text xml:space="preserve" text-anchor="middle" x="403.27" y="-311.82" font-family="Helvetica,sans-Serif" font-size="14.00">AppendSpectra</text>
</g>
<!-- Logarithm&#45;&gt;AppendSpectra_Q2 -->
<g id="edge10" class="edge">
<title>Logarithm&#45;&gt;AppendSpectra_Q2</title>
<path fill="none" stroke="black" d="M403.27,-371.31C403.27,-363.73 403.27,-354.6 403.27,-346.04"/>
<polygon fill="black" stroke="black" points="406.77,-346.04 403.27,-336.04 399.77,-346.04 406.77,-346.04"/>
</g>
<!-- Transpose -->
<g id="node17" class="node">
<title>Transpose</title>
<path fill="lightskyblue" stroke="black" d="M706.52,-334.5C706.52,-334.5 644.02,-334.5 644.02,-334.5 638.02,-334.5 632.02,-328.5 632.02,-322.5 632.02,-322.5 632.02,-310.5 632.02,-310.5 632.02,-304.5 638.02,-298.5 644.02,-298.5 644.02,-298.5 706.52,-298.5 706.52,-298.5 712.52,-298.5 718.52,-304.5 718.52,-310.5 718.52,-310.5 718.52,-322.5 718.52,-322.5 718.52,-328.5 712.52,-334.5 706.52,-334.5"/>
<text xml:space="preserve" text-anchor="middle" x="675.27" y="-311.82" font-family="Helvetica,sans-Serif" font-size="14.00">Transpose</text>
</g>
<!-- SortXAxis -->
<g id="node18" class="node">
<title>SortXAxis</title>
<path fill="lightskyblue" stroke="black" d="M705.02,-261.5C705.02,-261.5 645.52,-261.5 645.52,-261.5 639.52,-261.5 633.52,-255.5 633.52,-249.5 633.52,-249.5 633.52,-237.5 633.52,-237.5 633.52,-231.5 639.52,-225.5 645.52,-225.5 645.52,-225.5 705.02,-225.5 705.02,-225.5 711.02,-225.5 717.02,-231.5 717.02,-237.5 717.02,-237.5 717.02,-249.5 717.02,-249.5 717.02,-255.5 711.02,-261.5 705.02,-261.5"/>
<text xml:space="preserve" text-anchor="middle" x="675.27" y="-238.82" font-family="Helvetica,sans-Serif" font-size="14.00">SortXAxis</text>
</g>
<!-- Transpose&#45;&gt;SortXAxis -->
<g id="edge15" class="edge">
<title>Transpose&#45;&gt;SortXAxis</title>
<path fill="none" stroke="black" d="M675.27,-298.31C675.27,-290.73 675.27,-281.6 675.27,-273.04"/>
<polygon fill="black" stroke="black" points="678.77,-273.04 675.27,-263.04 671.77,-273.04 678.77,-273.04"/>
</g>
<!-- SortXAxis&#45;&gt;HaveTemperatureLogs -->
<g id="edge17" class="edge">
<title>SortXAxis&#45;&gt;HaveTemperatureLogs</title>
<path fill="none" stroke="black" d="M717.15,-227.09C747.4,-215.97 788.32,-200.91 819.95,-189.28"/>
<polygon fill="black" stroke="black" points="821.13,-192.57 829.3,-185.84 818.71,-186 821.13,-192.57"/>
</g>
<!-- SortXAxis&#45;&gt;OutputELF -->
<g id="edge16" class="edge">
<title>SortXAxis&#45;&gt;OutputELF</title>
<path fill="none" stroke="black" d="M657.6,-225.31C648.5,-216.46 637.26,-205.52 627.28,-195.82"/>
<polygon fill="black" stroke="black" points="629.97,-193.56 620.36,-189.1 625.09,-198.58 629.97,-193.56"/>
</g>
<!-- AppendSpectra_Q&#45;&gt;OutputInQ -->
<g id="edge12" class="edge">
<title>AppendSpectra_Q&#45;&gt;OutputInQ</title>
<path fill="none" stroke="black" d="M555.82,-371.31C555.17,-363.64 554.39,-354.39 553.66,-345.74"/>
<polygon fill="black" stroke="black" points="557.17,-345.71 552.84,-336.04 550.19,-346.3 557.17,-345.71"/>
</g>
<!-- AppendSpectra_Q&#45;&gt;Transpose -->
<g id="edge14" class="edge">
<title>AppendSpectra_Q&#45;&gt;Transpose</title>
<path fill="none" stroke="black" d="M586.14,-371.13C601.28,-362.02 620.05,-350.73 636.44,-340.86"/>
<polygon fill="black" stroke="black" points="638.24,-343.87 645,-335.72 634.63,-337.87 638.24,-343.87"/>
</g>
<!-- AppendSpectra_Q2&#45;&gt;OutputInQSquared -->
<g id="edge13" class="edge">
<title>AppendSpectra_Q2&#45;&gt;OutputInQSquared</title>
<path fill="none" stroke="black" d="M403.27,-298.31C403.27,-290.73 403.27,-281.6 403.27,-273.04"/>
<polygon fill="black" stroke="black" points="406.77,-273.04 403.27,-263.04 399.77,-273.04 406.77,-273.04"/>
</g>
</g>
</svg>
