<?xml version="1.0" encoding="UTF-8" standalone="no"?>
<!DOCTYPE svg PUBLIC "-//W3C//DTD SVG 1.1//EN"
 "http://www.w3.org/Graphics/SVG/1.1/DTD/svg11.dtd">
<!-- Generated by graphviz version 7.0.5 (20221231.0122)
 -->
<!-- Title: ElasticWindowMultiple Pages: 1 -->
<svg width="1271pt" height="669pt"
 viewBox="0.00 0.00 1271.48 669.00" xmlns="http://www.w3.org/2000/svg" xmlns:xlink="http://www.w3.org/1999/xlink">
<g id="graph0" class="graph" transform="scale(1 1) rotate(0) translate(4 665)">
<title>ElasticWindowMultiple</title>
<polygon fill="white" stroke="none" points="-4,4 -4,-665 1267.48,-665 1267.48,4 -4,4"/>
<text text-anchor="middle" x="631.74" y="-645.8" font-family="Helvetica,sans-Serif" font-size="14.00">ElasticWindowMultiple Flowchart</text>
<!-- HaveTemperatureLogs -->
<g id="node1" class="node">
<title>HaveTemperatureLogs</title>
<polygon fill="limegreen" stroke="black" points="816.34,-184 643.73,-166 816.34,-148 988.94,-166 816.34,-184"/>
<text text-anchor="middle" x="816.34" y="-162.3" font-family="Helvetica,sans-Serif" font-size="14.00">Have Temperature Logs?</text>
</g>
<!-- NormaliseByTemperature -->
<g id="node3" class="node">
<title>NormaliseByTemperature</title>
<polygon fill="lightseagreen" stroke="black" points="899.34,-111 733.34,-111 733.34,-73 899.34,-73 899.34,-111"/>
<text text-anchor="middle" x="816.34" y="-95.8" font-family="Helvetica,sans-Serif" font-size="14.00">Normalise to run with</text>
<text text-anchor="middle" x="816.34" y="-80.8" font-family="Helvetica,sans-Serif" font-size="14.00">lowest temperature</text>
</g>
<!-- HaveTemperatureLogs&#45;&gt;NormaliseByTemperature -->
<g id="edge18" class="edge">
<title>HaveTemperatureLogs&#45;&gt;NormaliseByTemperature</title>
<path fill="none" stroke="black" d="M816.34,-147.57C816.34,-140.1 816.34,-131.17 816.34,-122.71"/>
<polygon fill="black" stroke="black" points="819.84,-122.79 816.34,-112.79 812.84,-122.79 819.84,-122.79"/>
</g>
<!-- ProcessTemperatureLogs -->
<g id="node2" class="node">
<title>ProcessTemperatureLogs</title>
<polygon fill="lightseagreen" stroke="black" points="545.84,-492 348.84,-492 348.84,-454 545.84,-454 545.84,-492"/>
<text text-anchor="middle" x="447.34" y="-476.8" font-family="Helvetica,sans-Serif" font-size="14.00">Get temperature from run</text>
<text text-anchor="middle" x="447.34" y="-461.8" font-family="Helvetica,sans-Serif" font-size="14.00">and set as vertical axis</text>
</g>
<!-- Logarithm -->
<g id="node16" class="node">
<title>Logarithm</title>
<path fill="lightskyblue" stroke="black" d="M401.84,-403C401.84,-403 338.84,-403 338.84,-403 332.84,-403 326.84,-397 326.84,-391 326.84,-391 326.84,-379 326.84,-379 326.84,-373 332.84,-367 338.84,-367 338.84,-367 401.84,-367 401.84,-367 407.84,-367 413.84,-373 413.84,-379 413.84,-379 413.84,-391 413.84,-391 413.84,-397 407.84,-403 401.84,-403"/>
<text text-anchor="middle" x="370.34" y="-381.3" font-family="Helvetica,sans-Serif" font-size="14.00">Logarithm</text>
</g>
<!-- ProcessTemperatureLogs&#45;&gt;Logarithm -->
<g id="edge9" class="edge">
<title>ProcessTemperatureLogs&#45;&gt;Logarithm</title>
<path fill="none" stroke="black" d="M389.9,-453.7C382.58,-449.04 376.02,-443.23 371.34,-436 367.25,-429.69 365.82,-421.92 365.71,-414.41"/>
<polygon fill="black" stroke="black" points="369.19,-414.77 366.34,-404.57 362.2,-414.32 369.19,-414.77"/>
<text text-anchor="middle" x="437.34" y="-424.8" font-family="Helvetica,sans-Serif" font-size="14.00">OutputInQSquared</text>
</g>
<!-- AppendSpectra_Q -->
<g id="node19" class="node">
<title>AppendSpectra_Q</title>
<path fill="lightskyblue" stroke="black" d="M575.34,-403C575.34,-403 475.34,-403 475.34,-403 469.34,-403 463.34,-397 463.34,-391 463.34,-391 463.34,-379 463.34,-379 463.34,-373 469.34,-367 475.34,-367 475.34,-367 575.34,-367 575.34,-367 581.34,-367 587.34,-373 587.34,-379 587.34,-379 587.34,-391 587.34,-391 587.34,-397 581.34,-403 575.34,-403"/>
<text text-anchor="middle" x="525.34" y="-381.3" font-family="Helvetica,sans-Serif" font-size="14.00">AppendSpectra</text>
</g>
<!-- ProcessTemperatureLogs&#45;&gt;AppendSpectra_Q -->
<g id="edge11" class="edge">
<title>ProcessTemperatureLogs&#45;&gt;AppendSpectra_Q</title>
<path fill="none" stroke="black" d="M483,-453.54C490.38,-448.56 497.63,-442.68 503.34,-436 508.86,-429.53 513.22,-421.45 516.54,-413.69"/>
<polygon fill="black" stroke="black" points="519.74,-415.13 520.04,-404.54 513.2,-412.64 519.74,-415.13"/>
<text text-anchor="middle" x="550.34" y="-424.8" font-family="Helvetica,sans-Serif" font-size="14.00">OutputInQ</text>
</g>
<!-- OutputELT -->
<g id="node14" class="node">
<title>OutputELT</title>
<ellipse fill="khaki" stroke="black" cx="816.34" cy="-18" rx="57.69" ry="18"/>
<text text-anchor="middle" x="816.34" y="-14.3" font-family="Helvetica,sans-Serif" font-size="14.00">OutputELT</text>
</g>
<!-- NormaliseByTemperature&#45;&gt;OutputELT -->
<g id="edge19" class="edge">
<title>NormaliseByTemperature&#45;&gt;OutputELT</title>
<path fill="none" stroke="black" d="M816.34,-72.83C816.34,-65.24 816.34,-56.24 816.34,-47.79"/>
<polygon fill="black" stroke="black" points="819.84,-47.93 816.34,-37.93 812.84,-47.93 819.84,-47.93"/>
</g>
<!-- InputWorkspaces -->
<g id="node4" class="node">
<title>InputWorkspaces</title>
<ellipse fill="khaki" stroke="black" cx="213.34" cy="-620" rx="89.08" ry="18"/>
<text text-anchor="middle" x="213.34" y="-616.3" font-family="Helvetica,sans-Serif" font-size="14.00">InputWorkspaces</text>
</g>
<!-- ElasticWindow -->
<g id="node15" class="node">
<title>ElasticWindow</title>
<path fill="lightskyblue" stroke="black" d="M713.34,-565C713.34,-565 621.34,-565 621.34,-565 615.34,-565 609.34,-559 609.34,-553 609.34,-553 609.34,-541 609.34,-541 609.34,-535 615.34,-529 621.34,-529 621.34,-529 713.34,-529 713.34,-529 719.34,-529 725.34,-535 725.34,-541 725.34,-541 725.34,-553 725.34,-553 725.34,-559 719.34,-565 713.34,-565"/>
<text text-anchor="middle" x="667.34" y="-543.3" font-family="Helvetica,sans-Serif" font-size="14.00">ElasticWindow</text>
</g>
<!-- InputWorkspaces&#45;&gt;ElasticWindow -->
<g id="edge1" class="edge">
<title>InputWorkspaces&#45;&gt;ElasticWindow</title>
<path fill="none" stroke="black" d="M278.37,-607.3C289.36,-605.44 300.67,-603.61 311.34,-602 435.76,-583.25 471.14,-588.84 597.66,-565.38"/>
<polygon fill="black" stroke="black" points="598.3,-568.82 607.48,-563.53 597,-561.94 598.3,-568.82"/>
</g>
<!-- IntegrationRangeStart -->
<g id="node5" class="node">
<title>IntegrationRangeStart</title>
<ellipse fill="khaki" stroke="black" cx="431.34" cy="-620" rx="111.28" ry="18"/>
<text text-anchor="middle" x="431.34" y="-616.3" font-family="Helvetica,sans-Serif" font-size="14.00">IntegrationRangeStart</text>
</g>
<!-- IntegrationRangeStart&#45;&gt;ElasticWindow -->
<g id="edge2" class="edge">
<title>IntegrationRangeStart&#45;&gt;ElasticWindow</title>
<path fill="none" stroke="black" d="M482.55,-603.59C516.48,-593.39 561.39,-579.87 598.45,-568.73"/>
<polygon fill="black" stroke="black" points="599.16,-572.17 607.72,-565.93 597.14,-565.46 599.16,-572.17"/>
</g>
<!-- IntegrationRangeEnd -->
<g id="node6" class="node">
<title>IntegrationRangeEnd</title>
<ellipse fill="khaki" stroke="black" cx="667.34" cy="-620" rx="106.68" ry="18"/>
<text text-anchor="middle" x="667.34" y="-616.3" font-family="Helvetica,sans-Serif" font-size="14.00">IntegrationRangeEnd</text>
</g>
<!-- IntegrationRangeEnd&#45;&gt;ElasticWindow -->
<g id="edge3" class="edge">
<title>IntegrationRangeEnd&#45;&gt;ElasticWindow</title>
<path fill="none" stroke="black" d="M667.34,-601.81C667.34,-594.23 667.34,-585.1 667.34,-576.54"/>
<polygon fill="black" stroke="black" points="670.84,-576.54 667.34,-566.54 663.84,-576.54 670.84,-576.54"/>
</g>
<!-- BackgroundRangeStart -->
<g id="node7" class="node">
<title>BackgroundRangeStart</title>
<ellipse fill="khaki" stroke="black" cx="907.34" cy="-620" rx="115.88" ry="18"/>
<text text-anchor="middle" x="907.34" y="-616.3" font-family="Helvetica,sans-Serif" font-size="14.00">BackgroundRangeStart</text>
</g>
<!-- BackgroundRangeStart&#45;&gt;ElasticWindow -->
<g id="edge4" class="edge">
<title>BackgroundRangeStart&#45;&gt;ElasticWindow</title>
<path fill="none" stroke="black" d="M854.96,-603.51C820.19,-593.22 774.17,-579.6 736.41,-568.43"/>
<polygon fill="black" stroke="black" points="737.52,-565.11 726.94,-565.63 735.54,-571.83 737.52,-565.11"/>
</g>
<!-- BackgroundRangeEnd -->
<g id="node8" class="node">
<title>BackgroundRangeEnd</title>
<ellipse fill="khaki" stroke="black" cx="1152.34" cy="-620" rx="111.28" ry="18"/>
<text text-anchor="middle" x="1152.34" y="-616.3" font-family="Helvetica,sans-Serif" font-size="14.00">BackgroundRangeEnd</text>
</g>
<!-- BackgroundRangeEnd&#45;&gt;ElasticWindow -->
<g id="edge5" class="edge">
<title>BackgroundRangeEnd&#45;&gt;ElasticWindow</title>
<path fill="none" stroke="black" d="M1071.71,-607.2C978.16,-593.5 825.48,-571.15 736.92,-558.19"/>
<polygon fill="black" stroke="black" points="737.56,-554.74 727.16,-556.76 736.54,-561.67 737.56,-554.74"/>
</g>
<!-- SampleEnvironmentLogValue -->
<g id="node9" class="node">
<title>SampleEnvironmentLogValue</title>
<ellipse fill="khaki" stroke="black" cx="142.34" cy="-547" rx="142.17" ry="18"/>
<text text-anchor="middle" x="142.34" y="-543.3" font-family="Helvetica,sans-Serif" font-size="14.00">SampleEnvironmentLogValue</text>
</g>
<!-- SampleEnvironmentLogValue&#45;&gt;ProcessTemperatureLogs -->
<g id="edge6" class="edge">
<title>SampleEnvironmentLogValue&#45;&gt;ProcessTemperatureLogs</title>
<path fill="none" stroke="black" d="M207.39,-530.64C251.3,-520.28 309.81,-506.47 358.06,-495.08"/>
<polygon fill="black" stroke="black" points="358.73,-498.51 367.66,-492.81 357.12,-491.7 358.73,-498.51"/>
</g>
<!-- SampleEnvironmentLogName -->
<g id="node10" class="node">
<title>SampleEnvironmentLogName</title>
<ellipse fill="khaki" stroke="black" cx="447.34" cy="-547" rx="144.07" ry="18"/>
<text text-anchor="middle" x="447.34" y="-543.3" font-family="Helvetica,sans-Serif" font-size="14.00">SampleEnvironmentLogName</text>
</g>
<!-- SampleEnvironmentLogName&#45;&gt;ProcessTemperatureLogs -->
<g id="edge7" class="edge">
<title>SampleEnvironmentLogName&#45;&gt;ProcessTemperatureLogs</title>
<path fill="none" stroke="black" d="M447.34,-528.57C447.34,-521.1 447.34,-512.17 447.34,-503.71"/>
<polygon fill="black" stroke="black" points="450.84,-503.79 447.34,-493.79 443.84,-503.79 450.84,-503.79"/>
</g>
<!-- OutputInQ -->
<g id="node11" class="node">
<title>OutputInQ</title>
<ellipse fill="khaki" stroke="black" cx="516.34" cy="-312" rx="58.49" ry="18"/>
<text text-anchor="middle" x="516.34" y="-308.3" font-family="Helvetica,sans-Serif" font-size="14.00">OutputInQ</text>
</g>
<!-- OutputInQSquared -->
<g id="node12" class="node">
<title>OutputInQSquared</title>
<ellipse fill="khaki" stroke="black" cx="370.34" cy="-239" rx="96.38" ry="18"/>
<text text-anchor="middle" x="370.34" y="-235.3" font-family="Helvetica,sans-Serif" font-size="14.00">OutputInQSquared</text>
</g>
<!-- OutputELF -->
<g id="node13" class="node">
<title>OutputELF</title>
<ellipse fill="khaki" stroke="black" cx="567.34" cy="-166" rx="58.49" ry="18"/>
<text text-anchor="middle" x="567.34" y="-162.3" font-family="Helvetica,sans-Serif" font-size="14.00">OutputELF</text>
</g>
<!-- ElasticWindow&#45;&gt;ProcessTemperatureLogs -->
<g id="edge8" class="edge">
<title>ElasticWindow&#45;&gt;ProcessTemperatureLogs</title>
<path fill="none" stroke="black" d="M614.08,-528.57C584.03,-518.74 546.21,-506.36 514.18,-495.88"/>
<polygon fill="black" stroke="black" points="515.59,-492.65 505,-492.87 513.41,-499.31 515.59,-492.65"/>
</g>
<!-- AppendSpectra_Q2 -->
<g id="node20" class="node">
<title>AppendSpectra_Q2</title>
<path fill="lightskyblue" stroke="black" d="M420.34,-330C420.34,-330 320.34,-330 320.34,-330 314.34,-330 308.34,-324 308.34,-318 308.34,-318 308.34,-306 308.34,-306 308.34,-300 314.34,-294 320.34,-294 320.34,-294 420.34,-294 420.34,-294 426.34,-294 432.34,-300 432.34,-306 432.34,-306 432.34,-318 432.34,-318 432.34,-324 426.34,-330 420.34,-330"/>
<text text-anchor="middle" x="370.34" y="-308.3" font-family="Helvetica,sans-Serif" font-size="14.00">AppendSpectra</text>
</g>
<!-- Logarithm&#45;&gt;AppendSpectra_Q2 -->
<g id="edge10" class="edge">
<title>Logarithm&#45;&gt;AppendSpectra_Q2</title>
<path fill="none" stroke="black" d="M370.34,-366.81C370.34,-359.23 370.34,-350.1 370.34,-341.54"/>
<polygon fill="black" stroke="black" points="373.84,-341.54 370.34,-331.54 366.84,-341.54 373.84,-341.54"/>
</g>
<!-- Transpose -->
<g id="node17" class="node">
<title>Transpose</title>
<path fill="lightskyblue" stroke="black" d="M667.84,-330C667.84,-330 604.84,-330 604.84,-330 598.84,-330 592.84,-324 592.84,-318 592.84,-318 592.84,-306 592.84,-306 592.84,-300 598.84,-294 604.84,-294 604.84,-294 667.84,-294 667.84,-294 673.84,-294 679.84,-300 679.84,-306 679.84,-306 679.84,-318 679.84,-318 679.84,-324 673.84,-330 667.84,-330"/>
<text text-anchor="middle" x="636.34" y="-308.3" font-family="Helvetica,sans-Serif" font-size="14.00">Transpose</text>
</g>
<!-- SortXAxis -->
<g id="node18" class="node">
<title>SortXAxis</title>
<path fill="lightskyblue" stroke="black" d="M666.34,-257C666.34,-257 606.34,-257 606.34,-257 600.34,-257 594.34,-251 594.34,-245 594.34,-245 594.34,-233 594.34,-233 594.34,-227 600.34,-221 606.34,-221 606.34,-221 666.34,-221 666.34,-221 672.34,-221 678.34,-227 678.34,-233 678.34,-233 678.34,-245 678.34,-245 678.34,-251 672.34,-257 666.34,-257"/>
<text text-anchor="middle" x="636.34" y="-235.3" font-family="Helvetica,sans-Serif" font-size="14.00">SortXAxis</text>
</g>
<!-- Transpose&#45;&gt;SortXAxis -->
<g id="edge15" class="edge">
<title>Transpose&#45;&gt;SortXAxis</title>
<path fill="none" stroke="black" d="M636.34,-293.81C636.34,-286.23 636.34,-277.1 636.34,-268.54"/>
<polygon fill="black" stroke="black" points="639.84,-268.54 636.34,-258.54 632.84,-268.54 639.84,-268.54"/>
</g>
<!-- SortXAxis&#45;&gt;HaveTemperatureLogs -->
<g id="edge17" class="edge">
<title>SortXAxis&#45;&gt;HaveTemperatureLogs</title>
<path fill="none" stroke="black" d="M678.54,-221.35C706.27,-210.41 742.54,-196.11 770.9,-184.92"/>
<polygon fill="black" stroke="black" points="771.93,-188.28 779.95,-181.35 769.36,-181.77 771.93,-188.28"/>
</g>
<!-- SortXAxis&#45;&gt;OutputELF -->
<g id="edge16" class="edge">
<title>SortXAxis&#45;&gt;OutputELF</title>
<path fill="none" stroke="black" d="M619.63,-220.81C611.12,-212.05 600.61,-201.24 591.26,-191.61"/>
<polygon fill="black" stroke="black" points="593.95,-189.36 584.47,-184.63 588.93,-194.24 593.95,-189.36"/>
</g>
<!-- AppendSpectra_Q&#45;&gt;OutputInQ -->
<g id="edge12" class="edge">
<title>AppendSpectra_Q&#45;&gt;OutputInQ</title>
<path fill="none" stroke="black" d="M523.16,-366.81C522.19,-359.14 521.01,-349.89 519.92,-341.24"/>
<polygon fill="black" stroke="black" points="523.42,-341.01 518.69,-331.53 516.47,-341.89 523.42,-341.01"/>
</g>
<!-- AppendSpectra_Q&#45;&gt;Transpose -->
<g id="edge14" class="edge">
<title>AppendSpectra_Q&#45;&gt;Transpose</title>
<path fill="none" stroke="black" d="M552.49,-366.63C566.74,-357.52 584.39,-346.23 599.81,-336.36"/>
<polygon fill="black" stroke="black" points="601.27,-339.59 607.8,-331.25 597.49,-333.69 601.27,-339.59"/>
</g>
<!-- AppendSpectra_Q2&#45;&gt;OutputInQSquared -->
<g id="edge13" class="edge">
<title>AppendSpectra_Q2&#45;&gt;OutputInQSquared</title>
<path fill="none" stroke="black" d="M370.34,-293.81C370.34,-286.23 370.34,-277.1 370.34,-268.54"/>
<polygon fill="black" stroke="black" points="373.84,-268.54 370.34,-258.54 366.84,-268.54 373.84,-268.54"/>
</g>
</g>
</svg>
