<?xml version="1.0" encoding="UTF-8" standalone="no"?>
<!DOCTYPE svg PUBLIC "-//W3C//DTD SVG 1.1//EN"
 "http://www.w3.org/Graphics/SVG/1.1/DTD/svg11.dtd">
<!-- Generated by graphviz version 7.1.0 (20230122.1345)
 -->
<!-- Title: ElasticWindow Pages: 1 -->
<svg width="1155pt" height="641pt"
 viewBox="0.00 0.00 1154.56 641.00" xmlns="http://www.w3.org/2000/svg" xmlns:xlink="http://www.w3.org/1999/xlink">
<g id="graph0" class="graph" transform="scale(1 1) rotate(0) translate(4 637)">
<title>ElasticWindow</title>
<polygon fill="white" stroke="none" points="-4,4 -4,-637 1150.56,-637 1150.56,4 -4,4"/>
<text text-anchor="middle" x="573.28" y="-617.8" font-family="Helvetica,sans-Serif" font-size="14.00">ElasticWindow Flowchart</text>
<!-- ConvertUnits_Target -->
<g id="node1" class="node">
<title>ConvertUnits_Target</title>
<polygon fill="grey" stroke="black" points="339.78,-217 231.9,-217 204.15,-181 312.03,-181 339.78,-217"/>
<text text-anchor="middle" x="271.96" y="-195.3" font-family="Times,serif" font-size="14.00">QSquared</text>
</g>
<!-- ConvertUnits -->
<g id="node16" class="node">
<title>ConvertUnits</title>
<path fill="lightskyblue" stroke="black" d="M313.46,-109C313.46,-109 230.46,-109 230.46,-109 224.46,-109 218.46,-103 218.46,-97 218.46,-97 218.46,-85 218.46,-85 218.46,-79 224.46,-73 230.46,-73 230.46,-73 313.46,-73 313.46,-73 319.46,-73 325.46,-79 325.46,-85 325.46,-85 325.46,-97 325.46,-97 325.46,-103 319.46,-109 313.46,-109"/>
<text text-anchor="middle" x="271.96" y="-87.3" font-family="Helvetica,sans-Serif" font-size="14.00">ConvertUnits</text>
</g>
<!-- ConvertUnits_Target&#45;&gt;ConvertUnits -->
<g id="edge22" class="edge">
<title>ConvertUnits_Target&#45;&gt;ConvertUnits</title>
<path fill="none" stroke="black" d="M271.96,-180.97C271.96,-164.76 271.96,-140.06 271.96,-120.79"/>
<polygon fill="black" stroke="black" points="275.46,-120.85 271.96,-110.85 268.46,-120.85 275.46,-120.85"/>
<text text-anchor="middle" x="293.46" y="-141.3" font-family="Helvetica,sans-Serif" font-size="14.00">Target</text>
</g>
<!-- ConvertAxis_Q_Taregt -->
<g id="node2" class="node">
<title>ConvertAxis_Q_Taregt</title>
<polygon fill="grey" stroke="black" points="489.03,-304 393.48,-304 368.89,-268 464.45,-268 489.03,-304"/>
<text text-anchor="middle" x="428.96" y="-282.3" font-family="Times,serif" font-size="14.00">ElasticQ</text>
</g>
<!-- ConvertAxis_Q -->
<g id="node17" class="node">
<title>ConvertAxis_Q</title>
<path fill="lightskyblue" stroke="black" d="M513.96,-217C513.96,-217 369.96,-217 369.96,-217 363.96,-217 357.96,-211 357.96,-205 357.96,-205 357.96,-193 357.96,-193 357.96,-187 363.96,-181 369.96,-181 369.96,-181 513.96,-181 513.96,-181 519.96,-181 525.96,-187 525.96,-193 525.96,-193 525.96,-205 525.96,-205 525.96,-211 519.96,-217 513.96,-217"/>
<text text-anchor="middle" x="441.96" y="-195.3" font-family="Helvetica,sans-Serif" font-size="14.00">ConvertSpectrumAxis</text>
</g>
<!-- ConvertAxis_Q_Taregt&#45;&gt;ConvertAxis_Q -->
<g id="edge11" class="edge">
<title>ConvertAxis_Q_Taregt&#45;&gt;ConvertAxis_Q</title>
<path fill="none" stroke="black" d="M431.6,-267.8C433.31,-256.58 435.59,-241.67 437.58,-228.69"/>
<polygon fill="black" stroke="black" points="441.01,-229.38 439.06,-218.96 434.09,-228.32 441.01,-229.38"/>
<text text-anchor="middle" x="458.46" y="-238.8" font-family="Helvetica,sans-Serif" font-size="14.00">Target</text>
</g>
<!-- ConvertAxis_Q2_Target -->
<g id="node3" class="node">
<title>ConvertAxis_Q2_Target</title>
<polygon fill="grey" stroke="black" points="203.89,-304 41.75,-304 0.04,-268 162.18,-268 203.89,-304"/>
<text text-anchor="middle" x="101.96" y="-282.3" font-family="Times,serif" font-size="14.00">ElasticQSquared</text>
</g>
<!-- ConvertAxis_Q2 -->
<g id="node18" class="node">
<title>ConvertAxis_Q2</title>
<path fill="lightskyblue" stroke="black" d="M173.96,-217C173.96,-217 29.96,-217 29.96,-217 23.96,-217 17.96,-211 17.96,-205 17.96,-205 17.96,-193 17.96,-193 17.96,-187 23.96,-181 29.96,-181 29.96,-181 173.96,-181 173.96,-181 179.96,-181 185.96,-187 185.96,-193 185.96,-193 185.96,-205 185.96,-205 185.96,-211 179.96,-217 173.96,-217"/>
<text text-anchor="middle" x="101.96" y="-195.3" font-family="Helvetica,sans-Serif" font-size="14.00">ConvertSpectrumAxis</text>
</g>
<!-- ConvertAxis_Q2_Target&#45;&gt;ConvertAxis_Q2 -->
<g id="edge15" class="edge">
<title>ConvertAxis_Q2_Target&#45;&gt;ConvertAxis_Q2</title>
<path fill="none" stroke="black" d="M101.96,-267.8C101.96,-256.58 101.96,-241.67 101.96,-228.69"/>
<polygon fill="black" stroke="black" points="105.46,-228.98 101.96,-218.98 98.46,-228.98 105.46,-228.98"/>
<text text-anchor="middle" x="123.46" y="-238.8" font-family="Helvetica,sans-Serif" font-size="14.00">Target</text>
</g>
<!-- HaveBackgroundRange -->
<g id="node4" class="node">
<title>HaveBackgroundRange</title>
<polygon fill="limegreen" stroke="black" points="701.96,-537 521.65,-519 701.96,-501 882.27,-519 701.96,-537"/>
<text text-anchor="middle" x="701.96" y="-515.3" font-family="Helvetica,sans-Serif" font-size="14.00">Have Background Range?</text>
</g>
<!-- CalculateFlatBackground -->
<g id="node13" class="node">
<title>CalculateFlatBackground</title>
<path fill="lightskyblue" stroke="black" d="M561.46,-450C561.46,-450 396.46,-450 396.46,-450 390.46,-450 384.46,-444 384.46,-438 384.46,-438 384.46,-426 384.46,-426 384.46,-420 390.46,-414 396.46,-414 396.46,-414 561.46,-414 561.46,-414 567.46,-414 573.46,-420 573.46,-426 573.46,-426 573.46,-438 573.46,-438 573.46,-444 567.46,-450 561.46,-450"/>
<text text-anchor="middle" x="478.96" y="-428.3" font-family="Helvetica,sans-Serif" font-size="14.00">CalculateFlatBackground</text>
</g>
<!-- HaveBackgroundRange&#45;&gt;CalculateFlatBackground -->
<g id="edge2" class="edge">
<title>HaveBackgroundRange&#45;&gt;CalculateFlatBackground</title>
<path fill="none" stroke="black" d="M665.64,-504.15C630.29,-490.68 576.08,-470.02 535.16,-454.42"/>
<polygon fill="black" stroke="black" points="536.54,-451.2 525.95,-450.91 534.05,-457.74 536.54,-451.2"/>
<text text-anchor="middle" x="615.46" y="-471.8" font-family="Helvetica,sans-Serif" font-size="14.00">Yes</text>
</g>
<!-- Integration -->
<g id="node14" class="node">
<title>Integration</title>
<path fill="lightskyblue" stroke="black" d="M764.46,-377C764.46,-377 695.46,-377 695.46,-377 689.46,-377 683.46,-371 683.46,-365 683.46,-365 683.46,-353 683.46,-353 683.46,-347 689.46,-341 695.46,-341 695.46,-341 764.46,-341 764.46,-341 770.46,-341 776.46,-347 776.46,-353 776.46,-353 776.46,-365 776.46,-365 776.46,-371 770.46,-377 764.46,-377"/>
<text text-anchor="middle" x="729.96" y="-355.3" font-family="Helvetica,sans-Serif" font-size="14.00">Integration</text>
</g>
<!-- HaveBackgroundRange&#45;&gt;Integration -->
<g id="edge6" class="edge">
<title>HaveBackgroundRange&#45;&gt;Integration</title>
<path fill="none" stroke="black" d="M688.65,-502.12C672.98,-481.38 650.8,-444.19 664.96,-414 670.4,-402.41 679.69,-392.44 689.57,-384.34"/>
<polygon fill="black" stroke="black" points="691.63,-387.17 697.5,-378.35 687.42,-381.58 691.63,-387.17"/>
<text text-anchor="middle" x="674.46" y="-428.3" font-family="Helvetica,sans-Serif" font-size="14.00">No</text>
</g>
<!-- VertAxisIsSpectraNumber -->
<g id="node5" class="node">
<title>VertAxisIsSpectraNumber</title>
<polygon fill="limegreen" stroke="black" points="729.96,-304 506.75,-286 729.96,-268 953.18,-286 729.96,-304"/>
<text text-anchor="middle" x="729.96" y="-282.3" font-family="Helvetica,sans-Serif" font-size="14.00">Vertical Axis is Spectra Number?</text>
</g>
<!-- ConvertToHistogram -->
<g id="node15" class="node">
<title>ConvertToHistogram</title>
<path fill="lightskyblue" stroke="black" d="M689.96,-217C689.96,-217 555.96,-217 555.96,-217 549.96,-217 543.96,-211 543.96,-205 543.96,-205 543.96,-193 543.96,-193 543.96,-187 549.96,-181 555.96,-181 555.96,-181 689.96,-181 689.96,-181 695.96,-181 701.96,-187 701.96,-193 701.96,-193 701.96,-205 701.96,-205 701.96,-211 695.96,-217 689.96,-217"/>
<text text-anchor="middle" x="622.96" y="-195.3" font-family="Helvetica,sans-Serif" font-size="14.00">ConvertToHistogram</text>
</g>
<!-- VertAxisIsSpectraNumber&#45;&gt;ConvertToHistogram -->
<g id="edge20" class="edge">
<title>VertAxisIsSpectraNumber&#45;&gt;ConvertToHistogram</title>
<path fill="none" stroke="black" d="M744.11,-269.01C751.54,-258.59 757.67,-245.11 749.96,-235 744.48,-227.81 730.27,-221.72 713.24,-216.74"/>
<polygon fill="black" stroke="black" points="714.35,-213.41 703.79,-214.17 712.52,-220.17 714.35,-213.41"/>
<text text-anchor="middle" x="763.46" y="-238.8" font-family="Helvetica,sans-Serif" font-size="14.00">No</text>
</g>
<!-- VertAxisIsSpectraNumber&#45;&gt;ConvertAxis_Q -->
<g id="edge10" class="edge">
<title>VertAxisIsSpectraNumber&#45;&gt;ConvertAxis_Q</title>
<path fill="none" stroke="black" d="M679.79,-271.57C656.4,-265.21 628.2,-257.4 602.96,-250 571.46,-240.77 536.65,-230.03 507.49,-220.87"/>
<polygon fill="black" stroke="black" points="508.64,-217.57 498.05,-217.9 506.54,-224.24 508.64,-217.57"/>
<text text-anchor="middle" x="614.46" y="-238.8" font-family="Helvetica,sans-Serif" font-size="14.00">Yes</text>
</g>
<!-- VertAxisIsSpectraNumber&#45;&gt;ConvertAxis_Q2 -->
<g id="edge14" class="edge">
<title>VertAxisIsSpectraNumber&#45;&gt;ConvertAxis_Q2</title>
<path fill="none" stroke="black" d="M705.41,-269.65C684.99,-257.78 654.73,-242.19 625.96,-235 536.14,-212.55 306.65,-226.6 197.42,-217.05"/>
<polygon fill="black" stroke="black" points="198.09,-213.6 187.79,-216.09 197.4,-220.56 198.09,-213.6"/>
<text text-anchor="middle" x="679.46" y="-238.8" font-family="Helvetica,sans-Serif" font-size="14.00">Yes</text>
</g>
<!-- Transpose_Q_B -->
<g id="node21" class="node">
<title>Transpose_Q_B</title>
<path fill="lightskyblue" stroke="black" d="M747.46,-163C747.46,-163 684.46,-163 684.46,-163 678.46,-163 672.46,-157 672.46,-151 672.46,-151 672.46,-139 672.46,-139 672.46,-133 678.46,-127 684.46,-127 684.46,-127 747.46,-127 747.46,-127 753.46,-127 759.46,-133 759.46,-139 759.46,-139 759.46,-151 759.46,-151 759.46,-157 753.46,-163 747.46,-163"/>
<text text-anchor="middle" x="715.96" y="-141.3" font-family="Helvetica,sans-Serif" font-size="14.00">Transpose</text>
</g>
<!-- VertAxisIsSpectraNumber&#45;&gt;Transpose_Q_B -->
<g id="edge18" class="edge">
<title>VertAxisIsSpectraNumber&#45;&gt;Transpose_Q_B</title>
<path fill="none" stroke="black" d="M728.22,-267.68C725.87,-244.35 721.66,-202.53 718.84,-174.53"/>
<polygon fill="black" stroke="black" points="722.32,-174.21 717.84,-164.61 715.36,-174.91 722.32,-174.21"/>
<text text-anchor="middle" x="736.46" y="-238.8" font-family="Helvetica,sans-Serif" font-size="14.00">No</text>
</g>
<!-- InputWorkspace -->
<g id="node6" class="node">
<title>InputWorkspace</title>
<ellipse fill="khaki" stroke="black" cx="701.96" cy="-592" rx="83.69" ry="18"/>
<text text-anchor="middle" x="701.96" y="-588.3" font-family="Helvetica,sans-Serif" font-size="14.00">InputWorkspace</text>
</g>
<!-- InputWorkspace&#45;&gt;HaveBackgroundRange -->
<g id="edge1" class="edge">
<title>InputWorkspace&#45;&gt;HaveBackgroundRange</title>
<path fill="none" stroke="black" d="M701.96,-573.81C701.96,-566.23 701.96,-557.1 701.96,-548.54"/>
<polygon fill="black" stroke="black" points="705.46,-548.54 701.96,-538.54 698.46,-548.54 705.46,-548.54"/>
</g>
<!-- OutputInQ -->
<g id="node7" class="node">
<title>OutputInQ</title>
<ellipse fill="khaki" stroke="black" cx="651.96" cy="-18" rx="58.49" ry="18"/>
<text text-anchor="middle" x="651.96" y="-14.3" font-family="Helvetica,sans-Serif" font-size="14.00">OutputInQ</text>
</g>
<!-- OutputInQSquared -->
<g id="node8" class="node">
<title>OutputInQSquared</title>
<ellipse fill="khaki" stroke="black" cx="214.96" cy="-18" rx="96.38" ry="18"/>
<text text-anchor="middle" x="214.96" y="-14.3" font-family="Helvetica,sans-Serif" font-size="14.00">OutputInQSquared</text>
</g>
<!-- IntegrationRangeStart -->
<g id="node9" class="node">
<title>IntegrationRangeStart</title>
<ellipse fill="khaki" stroke="black" cx="803.96" cy="-432" rx="111.28" ry="18"/>
<text text-anchor="middle" x="803.96" y="-428.3" font-family="Helvetica,sans-Serif" font-size="14.00">IntegrationRangeStart</text>
</g>
<!-- IntegrationRangeStart&#45;&gt;Integration -->
<g id="edge7" class="edge">
<title>IntegrationRangeStart&#45;&gt;Integration</title>
<path fill="none" stroke="black" d="M786.05,-413.81C777.12,-405.24 766.14,-394.71 756.28,-385.24"/>
<polygon fill="black" stroke="black" points="758.7,-382.72 749.06,-378.32 753.85,-387.77 758.7,-382.72"/>
</g>
<!-- IntegrationRangeEnd -->
<g id="node10" class="node">
<title>IntegrationRangeEnd</title>
<ellipse fill="khaki" stroke="black" cx="1039.96" cy="-432" rx="106.68" ry="18"/>
<text text-anchor="middle" x="1039.96" y="-428.3" font-family="Helvetica,sans-Serif" font-size="14.00">IntegrationRangeEnd</text>
</g>
<!-- IntegrationRangeEnd&#45;&gt;Integration -->
<g id="edge8" class="edge">
<title>IntegrationRangeEnd&#45;&gt;Integration</title>
<path fill="none" stroke="black" d="M978.35,-416.89C922.96,-404.2 842.21,-385.71 787.96,-373.28"/>
<polygon fill="black" stroke="black" points="788.81,-369.89 778.28,-371.07 787.25,-376.71 788.81,-369.89"/>
</g>
<!-- BackgroundRangeStart -->
<g id="node11" class="node">
<title>BackgroundRangeStart</title>
<ellipse fill="khaki" stroke="black" cx="387.96" cy="-519" rx="115.88" ry="18"/>
<text text-anchor="middle" x="387.96" y="-515.3" font-family="Helvetica,sans-Serif" font-size="14.00">BackgroundRangeStart</text>
</g>
<!-- BackgroundRangeStart&#45;&gt;CalculateFlatBackground -->
<g id="edge3" class="edge">
<title>BackgroundRangeStart&#45;&gt;CalculateFlatBackground</title>
<path fill="none" stroke="black" d="M406.38,-500.8C419.49,-488.55 437.32,-471.9 452.03,-458.16"/>
<polygon fill="black" stroke="black" points="454.24,-460.88 459.16,-451.5 449.46,-455.77 454.24,-460.88"/>
</g>
<!-- BackgroundRangeEnd -->
<g id="node12" class="node">
<title>BackgroundRangeEnd</title>
<ellipse fill="khaki" stroke="black" cx="142.96" cy="-519" rx="111.28" ry="18"/>
<text text-anchor="middle" x="142.96" y="-515.3" font-family="Helvetica,sans-Serif" font-size="14.00">BackgroundRangeEnd</text>
</g>
<!-- BackgroundRangeEnd&#45;&gt;CalculateFlatBackground -->
<g id="edge4" class="edge">
<title>BackgroundRangeEnd&#45;&gt;CalculateFlatBackground</title>
<path fill="none" stroke="black" d="M201.11,-503.29C255.75,-489.47 337.99,-468.66 398.83,-453.27"/>
<polygon fill="black" stroke="black" points="399.63,-456.68 408.47,-450.83 397.91,-449.89 399.63,-456.68"/>
</g>
<!-- CalculateFlatBackground&#45;&gt;Integration -->
<g id="edge5" class="edge">
<title>CalculateFlatBackground&#45;&gt;Integration</title>
<path fill="none" stroke="black" d="M540.69,-413.54C580.8,-402.19 632.76,-387.5 672.09,-376.37"/>
<polygon fill="black" stroke="black" points="672.96,-379.76 681.63,-373.67 671.05,-373.03 672.96,-379.76"/>
</g>
<!-- Integration&#45;&gt;VertAxisIsSpectraNumber -->
<g id="edge9" class="edge">
<title>Integration&#45;&gt;VertAxisIsSpectraNumber</title>
<path fill="none" stroke="black" d="M729.96,-340.81C729.96,-333.23 729.96,-324.1 729.96,-315.54"/>
<polygon fill="black" stroke="black" points="733.46,-315.54 729.96,-305.54 726.46,-315.54 733.46,-315.54"/>
</g>
<!-- ConvertToHistogram&#45;&gt;ConvertUnits -->
<g id="edge21" class="edge">
<title>ConvertToHistogram&#45;&gt;ConvertUnits</title>
<path fill="none" stroke="black" d="M565.4,-180.61C502.61,-161.65 402.35,-131.37 336.82,-111.59"/>
<polygon fill="black" stroke="black" points="337.85,-108.24 327.27,-108.7 335.83,-114.94 337.85,-108.24"/>
</g>
<!-- ConvertUnits&#45;&gt;OutputInQSquared -->
<g id="edge23" class="edge">
<title>ConvertUnits&#45;&gt;OutputInQSquared</title>
<path fill="none" stroke="black" d="M258.17,-72.81C251.45,-64.44 243.22,-54.2 235.76,-44.9"/>
<polygon fill="black" stroke="black" points="238.57,-42.82 229.58,-37.21 233.11,-47.2 238.57,-42.82"/>
</g>
<!-- Transpose_Q -->
<g id="node19" class="node">
<title>Transpose_Q</title>
<path fill="lightskyblue" stroke="black" d="M554.46,-109C554.46,-109 491.46,-109 491.46,-109 485.46,-109 479.46,-103 479.46,-97 479.46,-97 479.46,-85 479.46,-85 479.46,-79 485.46,-73 491.46,-73 491.46,-73 554.46,-73 554.46,-73 560.46,-73 566.46,-79 566.46,-85 566.46,-85 566.46,-97 566.46,-97 566.46,-103 560.46,-109 554.46,-109"/>
<text text-anchor="middle" x="522.96" y="-87.3" font-family="Helvetica,sans-Serif" font-size="14.00">Transpose</text>
</g>
<!-- ConvertAxis_Q&#45;&gt;Transpose_Q -->
<g id="edge12" class="edge">
<title>ConvertAxis_Q&#45;&gt;Transpose_Q</title>
<path fill="none" stroke="black" d="M454.98,-180.97C467.89,-164.07 487.86,-137.94 502.82,-118.36"/>
<polygon fill="black" stroke="black" points="505.5,-120.61 508.79,-110.54 499.94,-116.36 505.5,-120.61"/>
</g>
<!-- Transpose_Q2 -->
<g id="node20" class="node">
<title>Transpose_Q2</title>
<path fill="lightskyblue" stroke="black" d="M174.46,-109C174.46,-109 111.46,-109 111.46,-109 105.46,-109 99.46,-103 99.46,-97 99.46,-97 99.46,-85 99.46,-85 99.46,-79 105.46,-73 111.46,-73 111.46,-73 174.46,-73 174.46,-73 180.46,-73 186.46,-79 186.46,-85 186.46,-85 186.46,-97 186.46,-97 186.46,-103 180.46,-109 174.46,-109"/>
<text text-anchor="middle" x="142.96" y="-87.3" font-family="Helvetica,sans-Serif" font-size="14.00">Transpose</text>
</g>
<!-- ConvertAxis_Q2&#45;&gt;Transpose_Q2 -->
<g id="edge16" class="edge">
<title>ConvertAxis_Q2&#45;&gt;Transpose_Q2</title>
<path fill="none" stroke="black" d="M108.55,-180.97C114.91,-164.53 124.65,-139.35 132.14,-119.97"/>
<polygon fill="black" stroke="black" points="135.37,-121.34 135.71,-110.75 128.84,-118.82 135.37,-121.34"/>
</g>
<!-- Transpose_Q&#45;&gt;OutputInQ -->
<g id="edge13" class="edge">
<title>Transpose_Q&#45;&gt;OutputInQ</title>
<path fill="none" stroke="black" d="M554.52,-72.63C572.6,-62.68 595.41,-50.13 614.41,-39.67"/>
<polygon fill="black" stroke="black" points="615.84,-42.88 622.91,-34.99 612.46,-36.75 615.84,-42.88"/>
</g>
<!-- Transpose_Q2&#45;&gt;OutputInQSquared -->
<g id="edge17" class="edge">
<title>Transpose_Q2&#45;&gt;OutputInQSquared</title>
<path fill="none" stroke="black" d="M160.39,-72.81C169.15,-64.18 179.92,-53.56 189.58,-44.03"/>
<polygon fill="black" stroke="black" points="191.96,-46.61 196.62,-37.09 187.04,-41.62 191.96,-46.61"/>
</g>
<!-- Transpose_Q_B&#45;&gt;OutputInQ -->
<g id="edge19" class="edge">
<title>Transpose_Q_B&#45;&gt;OutputInQ</title>
<path fill="none" stroke="black" d="M707.07,-126.62C696.41,-105.82 678.45,-70.73 665.94,-46.3"/>
<polygon fill="black" stroke="black" points="669.15,-44.89 661.48,-37.58 662.92,-48.08 669.15,-44.89"/>
</g>
</g>
</svg>
