<?xml version="1.0" encoding="UTF-8" standalone="no"?>
<!DOCTYPE svg PUBLIC "-//W3C//DTD SVG 1.1//EN"
 "http://www.w3.org/Graphics/SVG/1.1/DTD/svg11.dtd">
<!-- Generated by graphviz version 7.0.5 (20221231.0122)
 -->
<!-- Title: InelasticEMUauReduction Pages: 1 -->
<svg width="826pt" height="538pt"
 viewBox="0.00 0.00 825.94 538.00" xmlns="http://www.w3.org/2000/svg" xmlns:xlink="http://www.w3.org/1999/xlink">
<g id="graph0" class="graph" transform="scale(1 1) rotate(0) translate(4 534)">
<title>InelasticEMUauReduction</title>
<polygon fill="white" stroke="none" points="-4,4 -4,-534 821.94,-534 821.94,4 -4,4"/>
<text text-anchor="middle" x="408.97" y="-514.8" font-family="Helvetica,sans-Serif" font-size="14.00">Inelastic EMU Reduction Flowchart</text>
<g id="clust4" class="cluster">
<title>cluster</title>
<polygon fill="none" stroke="orange" points="661.94,-208 661.94,-499 809.94,-499 809.94,-208 661.94,-208"/>
<text text-anchor="middle" x="735.94" y="-483.8" font-family="Helvetica,sans-Serif" font-size="14.00">Reduce</text>
</g>
<!-- OutputWorkspace -->
<g id="node1" class="node">
<title>OutputWorkspace</title>
<polygon fill="grey" stroke="black" points="371.71,-36 198.69,-36 154.17,0 327.2,0 371.71,-36"/>
<text text-anchor="middle" x="262.94" y="-14.3" font-family="Times,serif" font-size="14.00">OutputWorkspace</text>
</g>
<!-- SampleRuns -->
<g id="node2" class="node">
<title>SampleRuns</title>
<ellipse fill="khaki" stroke="black" cx="66.94" cy="-378" rx="66.89" ry="18"/>
<text text-anchor="middle" x="66.94" y="-374.3" font-family="Helvetica,sans-Serif" font-size="14.00">SampleRuns</text>
</g>
<!-- Reduce -->
<g id="node16" class="node">
<title>Reduce</title>
<ellipse fill="orange" stroke="black" cx="66.94" cy="-306" rx="44.39" ry="18"/>
<text text-anchor="middle" x="66.94" y="-302.3" font-family="Helvetica,sans-Serif" font-size="14.00">Reduce</text>
</g>
<!-- SampleRuns&#45;&gt;Reduce -->
<g id="edge4" class="edge">
<title>SampleRuns&#45;&gt;Reduce</title>
<path fill="none" stroke="black" d="M66.94,-359.7C66.94,-352.41 66.94,-343.73 66.94,-335.54"/>
<polygon fill="black" stroke="black" points="70.44,-335.62 66.94,-325.62 63.44,-335.62 70.44,-335.62"/>
</g>
<!-- BackgroundRuns -->
<g id="node3" class="node">
<title>BackgroundRuns</title>
<ellipse fill="khaki" stroke="black" cx="215.94" cy="-306" rx="87.18" ry="18"/>
<text text-anchor="middle" x="215.94" y="-302.3" font-family="Helvetica,sans-Serif" font-size="14.00">BackgroundRuns</text>
</g>
<!-- ReduceA -->
<g id="node17" class="node">
<title>ReduceA</title>
<ellipse fill="orange" stroke="black" cx="215.94" cy="-234" rx="44.39" ry="18"/>
<text text-anchor="middle" x="215.94" y="-230.3" font-family="Helvetica,sans-Serif" font-size="14.00">Reduce</text>
</g>
<!-- BackgroundRuns&#45;&gt;ReduceA -->
<g id="edge7" class="edge">
<title>BackgroundRuns&#45;&gt;ReduceA</title>
<path fill="none" stroke="black" d="M215.94,-287.7C215.94,-280.41 215.94,-271.73 215.94,-263.54"/>
<polygon fill="black" stroke="black" points="219.44,-263.62 215.94,-253.62 212.44,-263.62 219.44,-263.62"/>
</g>
<!-- CalibrationRuns -->
<g id="node4" class="node">
<title>CalibrationRuns</title>
<ellipse fill="khaki" stroke="black" cx="319.94" cy="-450" rx="81.79" ry="18"/>
<text text-anchor="middle" x="319.94" y="-446.3" font-family="Helvetica,sans-Serif" font-size="14.00">CalibrationRuns</text>
</g>
<!-- ReduceB -->
<g id="node18" class="node">
<title>ReduceB</title>
<ellipse fill="orange" stroke="black" cx="319.94" cy="-378" rx="44.39" ry="18"/>
<text text-anchor="middle" x="319.94" y="-374.3" font-family="Helvetica,sans-Serif" font-size="14.00">Reduce</text>
</g>
<!-- CalibrationRuns&#45;&gt;ReduceB -->
<g id="edge9" class="edge">
<title>CalibrationRuns&#45;&gt;ReduceB</title>
<path fill="none" stroke="black" d="M319.94,-431.7C319.94,-424.41 319.94,-415.73 319.94,-407.54"/>
<polygon fill="black" stroke="black" points="323.44,-407.62 319.94,-397.62 316.44,-407.62 323.44,-407.62"/>
</g>
<!-- BackgroundCalibrationRuns -->
<g id="node5" class="node">
<title>BackgroundCalibrationRuns</title>
<ellipse fill="khaki" stroke="black" cx="517.94" cy="-378" rx="135.68" ry="18"/>
<text text-anchor="middle" x="517.94" y="-374.3" font-family="Helvetica,sans-Serif" font-size="14.00">BackgroundCalibrationRuns</text>
</g>
<!-- ReduceC -->
<g id="node19" class="node">
<title>ReduceC</title>
<ellipse fill="orange" stroke="black" cx="490.94" cy="-306" rx="44.39" ry="18"/>
<text text-anchor="middle" x="490.94" y="-302.3" font-family="Helvetica,sans-Serif" font-size="14.00">Reduce</text>
</g>
<!-- BackgroundCalibrationRuns&#45;&gt;ReduceC -->
<g id="edge12" class="edge">
<title>BackgroundCalibrationRuns&#45;&gt;ReduceC</title>
<path fill="none" stroke="black" d="M511.27,-359.7C508.36,-352.15 504.88,-343.12 501.62,-334.68"/>
<polygon fill="black" stroke="black" points="504.95,-333.59 498.09,-325.52 498.42,-336.11 504.95,-333.59"/>
</g>
<!-- ScaleA -->
<g id="node6" class="node">
<title>ScaleA</title>
<path fill="lightskyblue" stroke="black" d="M111.94,-252C111.94,-252 81.94,-252 81.94,-252 75.94,-252 69.94,-246 69.94,-240 69.94,-240 69.94,-228 69.94,-228 69.94,-222 75.94,-216 81.94,-216 81.94,-216 111.94,-216 111.94,-216 117.94,-216 123.94,-222 123.94,-228 123.94,-228 123.94,-240 123.94,-240 123.94,-246 117.94,-252 111.94,-252"/>
<text text-anchor="middle" x="96.94" y="-230.3" font-family="Helvetica,sans-Serif" font-size="14.00">Scale</text>
</g>
<!-- MinusA -->
<g id="node8" class="node">
<title>MinusA</title>
<path fill="lightskyblue" stroke="black" d="M232.94,-180C232.94,-180 198.94,-180 198.94,-180 192.94,-180 186.94,-174 186.94,-168 186.94,-168 186.94,-156 186.94,-156 186.94,-150 192.94,-144 198.94,-144 198.94,-144 232.94,-144 232.94,-144 238.94,-144 244.94,-150 244.94,-156 244.94,-156 244.94,-168 244.94,-168 244.94,-174 238.94,-180 232.94,-180"/>
<text text-anchor="middle" x="215.94" y="-158.3" font-family="Helvetica,sans-Serif" font-size="14.00">Minus</text>
</g>
<!-- ScaleA&#45;&gt;MinusA -->
<g id="edge6" class="edge">
<title>ScaleA&#45;&gt;MinusA</title>
<path fill="none" stroke="black" d="M124.25,-216.94C139.85,-207.76 159.68,-196.1 176.9,-185.97"/>
<polygon fill="black" stroke="black" points="178.54,-189.06 185.39,-180.98 174.99,-183.03 178.54,-189.06"/>
</g>
<!-- ScaleB -->
<g id="node7" class="node">
<title>ScaleB</title>
<path fill="lightskyblue" stroke="black" d="M362.94,-324C362.94,-324 332.94,-324 332.94,-324 326.94,-324 320.94,-318 320.94,-312 320.94,-312 320.94,-300 320.94,-300 320.94,-294 326.94,-288 332.94,-288 332.94,-288 362.94,-288 362.94,-288 368.94,-288 374.94,-294 374.94,-300 374.94,-300 374.94,-312 374.94,-312 374.94,-318 368.94,-324 362.94,-324"/>
<text text-anchor="middle" x="347.94" y="-302.3" font-family="Helvetica,sans-Serif" font-size="14.00">Scale</text>
</g>
<!-- MinusB -->
<g id="node9" class="node">
<title>MinusB</title>
<path fill="lightskyblue" stroke="black" d="M364.94,-252C364.94,-252 330.94,-252 330.94,-252 324.94,-252 318.94,-246 318.94,-240 318.94,-240 318.94,-228 318.94,-228 318.94,-222 324.94,-216 330.94,-216 330.94,-216 364.94,-216 364.94,-216 370.94,-216 376.94,-222 376.94,-228 376.94,-228 376.94,-240 376.94,-240 376.94,-246 370.94,-252 364.94,-252"/>
<text text-anchor="middle" x="347.94" y="-230.3" font-family="Helvetica,sans-Serif" font-size="14.00">Minus</text>
</g>
<!-- ScaleB&#45;&gt;MinusB -->
<g id="edge11" class="edge">
<title>ScaleB&#45;&gt;MinusB</title>
<path fill="none" stroke="black" d="M347.94,-287.7C347.94,-280.41 347.94,-271.73 347.94,-263.54"/>
<polygon fill="black" stroke="black" points="351.44,-263.62 347.94,-253.62 344.44,-263.62 351.44,-263.62"/>
</g>
<!-- Divide -->
<g id="node11" class="node">
<title>Divide</title>
<path fill="lightskyblue" stroke="black" d="M280.94,-108C280.94,-108 244.94,-108 244.94,-108 238.94,-108 232.94,-102 232.94,-96 232.94,-96 232.94,-84 232.94,-84 232.94,-78 238.94,-72 244.94,-72 244.94,-72 280.94,-72 280.94,-72 286.94,-72 292.94,-78 292.94,-84 292.94,-84 292.94,-96 292.94,-96 292.94,-102 286.94,-108 280.94,-108"/>
<text text-anchor="middle" x="262.94" y="-86.3" font-family="Helvetica,sans-Serif" font-size="14.00">Divide</text>
</g>
<!-- MinusA&#45;&gt;Divide -->
<g id="edge15" class="edge">
<title>MinusA&#45;&gt;Divide</title>
<path fill="none" stroke="black" d="M227.56,-143.7C232.86,-135.81 239.24,-126.3 245.12,-117.55"/>
<polygon fill="black" stroke="black" points="247.95,-119.61 250.62,-109.36 242.14,-115.71 247.95,-119.61"/>
</g>
<!-- Integration -->
<g id="node10" class="node">
<title>Integration</title>
<path fill="lightskyblue" stroke="black" d="M363.44,-180C363.44,-180 294.44,-180 294.44,-180 288.44,-180 282.44,-174 282.44,-168 282.44,-168 282.44,-156 282.44,-156 282.44,-150 288.44,-144 294.44,-144 294.44,-144 363.44,-144 363.44,-144 369.44,-144 375.44,-150 375.44,-156 375.44,-156 375.44,-168 375.44,-168 375.44,-174 369.44,-180 363.44,-180"/>
<text text-anchor="middle" x="328.94" y="-158.3" font-family="Helvetica,sans-Serif" font-size="14.00">Integration</text>
</g>
<!-- MinusB&#45;&gt;Integration -->
<g id="edge14" class="edge">
<title>MinusB&#45;&gt;Integration</title>
<path fill="none" stroke="black" d="M343.25,-215.7C341.22,-208.24 338.8,-199.32 336.53,-190.97"/>
<polygon fill="black" stroke="black" points="339.98,-190.3 333.98,-181.57 333.22,-192.13 339.98,-190.3"/>
</g>
<!-- Integration&#45;&gt;Divide -->
<g id="edge16" class="edge">
<title>Integration&#45;&gt;Divide</title>
<path fill="none" stroke="black" d="M312.63,-143.7C304.88,-135.47 295.46,-125.48 286.91,-116.42"/>
<polygon fill="black" stroke="black" points="289.52,-114.08 280.11,-109.21 284.42,-118.88 289.52,-114.08"/>
</g>
<!-- Divide&#45;&gt;OutputWorkspace -->
<g id="edge17" class="edge">
<title>Divide&#45;&gt;OutputWorkspace</title>
<path fill="none" stroke="black" d="M262.94,-71.7C262.94,-64.41 262.94,-55.73 262.94,-47.54"/>
<polygon fill="black" stroke="black" points="266.44,-47.62 262.94,-37.62 259.44,-47.62 266.44,-47.62"/>
</g>
<!-- MergeRuns -->
<g id="node12" class="node">
<title>MergeRuns</title>
<path fill="lightskyblue" stroke="black" d="M770.94,-396C770.94,-396 700.94,-396 700.94,-396 694.94,-396 688.94,-390 688.94,-384 688.94,-384 688.94,-372 688.94,-372 688.94,-366 694.94,-360 700.94,-360 700.94,-360 770.94,-360 770.94,-360 776.94,-360 782.94,-366 782.94,-372 782.94,-372 782.94,-384 782.94,-384 782.94,-390 776.94,-396 770.94,-396"/>
<text text-anchor="middle" x="735.94" y="-374.3" font-family="Helvetica,sans-Serif" font-size="14.00">MergeRuns</text>
</g>
<!-- ConvertToDeltaE -->
<g id="node14" class="node">
<title>ConvertToDeltaE</title>
<path fill="lightskyblue" stroke="black" d="M789.44,-324C789.44,-324 682.44,-324 682.44,-324 676.44,-324 670.44,-318 670.44,-312 670.44,-312 670.44,-300 670.44,-300 670.44,-294 676.44,-288 682.44,-288 682.44,-288 789.44,-288 789.44,-288 795.44,-288 801.44,-294 801.44,-300 801.44,-300 801.44,-312 801.44,-312 801.44,-318 795.44,-324 789.44,-324"/>
<text text-anchor="middle" x="735.94" y="-302.3" font-family="Helvetica,sans-Serif" font-size="14.00">ConvertToDeltaE</text>
</g>
<!-- MergeRuns&#45;&gt;ConvertToDeltaE -->
<g id="edge2" class="edge">
<title>MergeRuns&#45;&gt;ConvertToDeltaE</title>
<path fill="none" stroke="black" d="M735.94,-359.7C735.94,-352.41 735.94,-343.73 735.94,-335.54"/>
<polygon fill="black" stroke="black" points="739.44,-335.62 735.94,-325.62 732.44,-335.62 739.44,-335.62"/>
</g>
<!-- LoadEMU -->
<g id="node13" class="node">
<title>LoadEMU</title>
<path fill="lightskyblue" stroke="black" d="M764.44,-468C764.44,-468 707.44,-468 707.44,-468 701.44,-468 695.44,-462 695.44,-456 695.44,-456 695.44,-444 695.44,-444 695.44,-438 701.44,-432 707.44,-432 707.44,-432 764.44,-432 764.44,-432 770.44,-432 776.44,-438 776.44,-444 776.44,-444 776.44,-456 776.44,-456 776.44,-462 770.44,-468 764.44,-468"/>
<text text-anchor="middle" x="735.94" y="-446.3" font-family="Helvetica,sans-Serif" font-size="14.00">LoadEMU</text>
</g>
<!-- LoadEMU&#45;&gt;MergeRuns -->
<g id="edge1" class="edge">
<title>LoadEMU&#45;&gt;MergeRuns</title>
<path fill="none" stroke="black" d="M735.94,-431.7C735.94,-424.41 735.94,-415.73 735.94,-407.54"/>
<polygon fill="black" stroke="black" points="739.44,-407.62 735.94,-397.62 732.44,-407.62 739.44,-407.62"/>
</g>
<!-- NormaliseToFlux -->
<g id="node15" class="node">
<title>NormaliseToFlux</title>
<path fill="lightskyblue" stroke="black" d="M788.44,-252C788.44,-252 683.44,-252 683.44,-252 677.44,-252 671.44,-246 671.44,-240 671.44,-240 671.44,-228 671.44,-228 671.44,-222 677.44,-216 683.44,-216 683.44,-216 788.44,-216 788.44,-216 794.44,-216 800.44,-222 800.44,-228 800.44,-228 800.44,-240 800.44,-240 800.44,-246 794.44,-252 788.44,-252"/>
<text text-anchor="middle" x="735.94" y="-230.3" font-family="Helvetica,sans-Serif" font-size="14.00">NormaliseToFlux</text>
</g>
<!-- ConvertToDeltaE&#45;&gt;NormaliseToFlux -->
<g id="edge3" class="edge">
<title>ConvertToDeltaE&#45;&gt;NormaliseToFlux</title>
<path fill="none" stroke="black" d="M735.94,-287.7C735.94,-280.41 735.94,-271.73 735.94,-263.54"/>
<polygon fill="black" stroke="black" points="739.44,-263.62 735.94,-253.62 732.44,-263.62 739.44,-263.62"/>
</g>
<!-- Reduce&#45;&gt;ScaleA -->
<g id="edge5" class="edge">
<title>Reduce&#45;&gt;ScaleA</title>
<path fill="none" stroke="black" d="M74.21,-288.05C77.47,-280.43 81.42,-271.23 85.09,-262.65"/>
<polygon fill="black" stroke="black" points="88.22,-264.24 88.94,-253.67 81.79,-261.48 88.22,-264.24"/>
</g>
<!-- ReduceA&#45;&gt;MinusA -->
<g id="edge8" class="edge">
<title>ReduceA&#45;&gt;MinusA</title>
<path fill="none" stroke="black" d="M215.94,-215.7C215.94,-208.41 215.94,-199.73 215.94,-191.54"/>
<polygon fill="black" stroke="black" points="219.44,-191.62 215.94,-181.62 212.44,-191.62 219.44,-191.62"/>
</g>
<!-- ReduceB&#45;&gt;ScaleB -->
<g id="edge10" class="edge">
<title>ReduceB&#45;&gt;ScaleB</title>
<path fill="none" stroke="black" d="M326.72,-360.05C329.74,-352.52 333.37,-343.44 336.77,-334.94"/>
<polygon fill="black" stroke="black" points="340.01,-336.27 340.47,-325.68 333.51,-333.67 340.01,-336.27"/>
</g>
<!-- ReduceC&#45;&gt;MinusB -->
<g id="edge13" class="edge">
<title>ReduceC&#45;&gt;MinusB</title>
<path fill="none" stroke="black" d="M463.37,-291.5C441.88,-280.98 411.74,-266.23 387.65,-254.44"/>
<polygon fill="black" stroke="black" points="389.28,-251.34 378.76,-250.08 386.2,-257.62 389.28,-251.34"/>
</g>
</g>
</svg>
