<?xml version="1.0" encoding="UTF-8" standalone="no"?>
<!DOCTYPE svg PUBLIC "-//W3C//DTD SVG 1.1//EN"
 "http://www.w3.org/Graphics/SVG/1.1/DTD/svg11.dtd">
<!-- Generated by graphviz version 11.0.0 (20240519.1550)
 -->
<!-- Pages: 1 -->
<svg width="1008pt" height="260pt"
 viewBox="0.00 0.00 1008.00 260.00" xmlns="http://www.w3.org/2000/svg" xmlns:xlink="http://www.w3.org/1999/xlink">
<g id="graph0" class="graph" transform="scale(1 1) rotate(0) translate(4 256)">
<polygon fill="white" stroke="none" points="-4,4 -4,-256 1004,-256 1004,4 -4,4"/>
<!-- file -->
<g id="node1" class="node">
<title>file</title>
<polygon fill="none" stroke="black" points="568.5,-252 483.5,-252 483.5,-216 568.5,-216 568.5,-252"/>
<text text-anchor="middle" x="526" y="-227.82" font-family="Times,serif" font-size="14.00">123456.hdf5</text>
</g>
<!-- bank1 -->
<g id="node2" class="node">
<title>bank1</title>
<polygon fill="none" stroke="black" points="517.5,-180 462.5,-180 462.5,-144 517.5,-144 517.5,-180"/>
<text text-anchor="middle" x="490" y="-155.82" font-family="Times,serif" font-size="14.00">Bank 1</text>
</g>
<!-- file&#45;&#45;bank1 -->
<g id="edge1" class="edge">
<title>file&#45;&#45;bank1</title>
<path fill="none" stroke="black" d="M517.1,-215.7C511.52,-204.85 504.36,-190.92 498.8,-180.1"/>
</g>
<!-- bank2 -->
<g id="node8" class="node">
<title>bank2</title>
<polygon fill="none" stroke="black" points="661.5,-180 606.5,-180 606.5,-144 661.5,-144 661.5,-180"/>
<text text-anchor="middle" x="634" y="-155.82" font-family="Times,serif" font-size="14.00">Bank 2</text>
</g>
<!-- file&#45;&#45;bank2 -->
<g id="edge7" class="edge">
<title>file&#45;&#45;bank2</title>
<path fill="none" stroke="black" d="M552.97,-215.52C569.59,-204.74 590.81,-190.99 607.37,-180.26"/>
</g>
<!-- fitgroup1 -->
<g id="node3" class="node">
<title>fitgroup1</title>
<polygon fill="none" stroke="black" points="399.25,-108 294.75,-108 294.75,-72 399.25,-72 399.25,-108"/>
<text text-anchor="middle" x="347" y="-83.83" font-family="Times,serif" font-size="14.00">GSAS&#45;II Fitting</text>
</g>
<!-- bank1&#45;&#45;fitgroup1 -->
<g id="edge2" class="edge">
<title>bank1&#45;&#45;fitgroup1</title>
<path fill="none" stroke="black" d="M462.09,-147.34C439.41,-136.24 407.27,-120.5 382.72,-108.49"/>
</g>
<!-- latticeparams1 -->
<g id="node4" class="node">
<title>latticeparams1</title>
<polygon fill="none" stroke="black" points="118,-36 0,-36 0,0 118,0 118,-36"/>
<text text-anchor="middle" x="59" y="-11.82" font-family="Times,serif" font-size="14.00">Lattice Parameters</text>
</g>
<!-- fitgroup1&#45;&#45;latticeparams1 -->
<g id="edge3" class="edge">
<title>fitgroup1&#45;&#45;latticeparams1</title>
<path fill="none" stroke="black" d="M294.52,-76.49C249.93,-65.83 184.23,-50.05 127,-36 124.16,-35.3 121.26,-34.59 118.33,-33.86"/>
</g>
<!-- profcoeffs1 -->
<g id="node5" class="node">
<title>profcoeffs1</title>
<polygon fill="none" stroke="black" points="257.5,-36 136.5,-36 136.5,0 257.5,0 257.5,-36"/>
<text text-anchor="middle" x="197" y="-11.82" font-family="Times,serif" font-size="14.00">Profile Coefficients</text>
</g>
<!-- fitgroup1&#45;&#45;profcoeffs1 -->
<g id="edge4" class="edge">
<title>fitgroup1&#45;&#45;profcoeffs1</title>
<path fill="none" stroke="black" d="M309.54,-71.52C286.54,-60.79 257.2,-47.09 234.25,-36.38"/>
</g>
<!-- refineparams1 -->
<g id="node6" class="node">
<title>refineparams1</title>
<polygon fill="none" stroke="black" points="418.75,-36 275.25,-36 275.25,0 418.75,0 418.75,-36"/>
<text text-anchor="middle" x="347" y="-11.82" font-family="Times,serif" font-size="14.00">Refinement Parameters</text>
</g>
<!-- fitgroup1&#45;&#45;refineparams1 -->
<g id="edge5" class="edge">
<title>fitgroup1&#45;&#45;refineparams1</title>
<path fill="none" stroke="black" d="M347,-71.7C347,-60.85 347,-46.92 347,-36.1"/>
</g>
<!-- rwp1 -->
<g id="node7" class="node">
<title>rwp1</title>
<polygon fill="none" stroke="black" points="491,-36 437,-36 437,0 491,0 491,-36"/>
<text text-anchor="middle" x="464" y="-11.82" font-family="Times,serif" font-size="14.00">Rwp</text>
</g>
<!-- fitgroup1&#45;&#45;rwp1 -->
<g id="edge6" class="edge">
<title>fitgroup1&#45;&#45;rwp1</title>
<path fill="none" stroke="black" d="M376.22,-71.52C394.77,-60.42 418.6,-46.16 436.75,-35.3"/>
</g>
<!-- fitgroup2 -->
<g id="node9" class="node">
<title>fitgroup2</title>
<polygon fill="none" stroke="black" points="758.25,-108 653.75,-108 653.75,-72 758.25,-72 758.25,-108"/>
<text text-anchor="middle" x="706" y="-83.83" font-family="Times,serif" font-size="14.00">GSAS&#45;II Fitting</text>
</g>
<!-- bank2&#45;&#45;fitgroup2 -->
<g id="edge8" class="edge">
<title>bank2&#45;&#45;fitgroup2</title>
<path fill="none" stroke="black" d="M651.8,-143.7C662.87,-132.93 677.07,-119.12 688.16,-108.35"/>
</g>
<!-- latticeparams2 -->
<g id="node10" class="node">
<title>latticeparams2</title>
<polygon fill="none" stroke="black" points="627,-36 509,-36 509,0 627,0 627,-36"/>
<text text-anchor="middle" x="568" y="-11.82" font-family="Times,serif" font-size="14.00">Lattice Parameters</text>
</g>
<!-- fitgroup2&#45;&#45;latticeparams2 -->
<g id="edge9" class="edge">
<title>fitgroup2&#45;&#45;latticeparams2</title>
<path fill="none" stroke="black" d="M671.53,-71.52C650.3,-60.74 623.18,-46.99 602.03,-36.26"/>
</g>
<!-- profcoeffs2 -->
<g id="node11" class="node">
<title>profcoeffs2</title>
<polygon fill="none" stroke="black" points="766.5,-36 645.5,-36 645.5,0 766.5,0 766.5,-36"/>
<text text-anchor="middle" x="706" y="-11.82" font-family="Times,serif" font-size="14.00">Profile Coefficients</text>
</g>
<!-- fitgroup2&#45;&#45;profcoeffs2 -->
<g id="edge10" class="edge">
<title>fitgroup2&#45;&#45;profcoeffs2</title>
<path fill="none" stroke="black" d="M706,-71.7C706,-60.85 706,-46.92 706,-36.1"/>
</g>
<!-- refineparams2 -->
<g id="node12" class="node">
<title>refineparams2</title>
<polygon fill="none" stroke="black" points="927.75,-36 784.25,-36 784.25,0 927.75,0 927.75,-36"/>
<text text-anchor="middle" x="856" y="-11.82" font-family="Times,serif" font-size="14.00">Refinement Parameters</text>
</g>
<!-- fitgroup2&#45;&#45;refineparams2 -->
<g id="edge11" class="edge">
<title>fitgroup2&#45;&#45;refineparams2</title>
<path fill="none" stroke="black" d="M743.46,-71.52C766.46,-60.79 795.8,-47.09 818.75,-36.38"/>
</g>
<!-- rwp2 -->
<g id="node13" class="node">
<title>rwp2</title>
<polygon fill="none" stroke="black" points="1000,-36 946,-36 946,0 1000,0 1000,-36"/>
<text text-anchor="middle" x="973" y="-11.82" font-family="Times,serif" font-size="14.00">Rwp</text>
</g>
<!-- fitgroup2&#45;&#45;rwp2 -->
<g id="edge12" class="edge">
<title>fitgroup2&#45;&#45;rwp2</title>
<path fill="none" stroke="black" d="M758.74,-80.25C806.16,-71.6 877.32,-56.67 937,-36 939.87,-35 942.82,-33.85 945.74,-32.62"/>
</g>
</g>
</svg>
