<?xml version="1.0" encoding="UTF-8" standalone="no"?>
<!DOCTYPE svg PUBLIC "-//W3C//DTD SVG 1.1//EN"
 "http://www.w3.org/Graphics/SVG/1.1/DTD/svg11.dtd">
<!-- Generated by graphviz version 7.1.0 (20230122.1345)
 -->
<!-- Pages: 1 -->
<svg width="268pt" height="188pt"
 viewBox="0.00 0.00 268.00 188.00" xmlns="http://www.w3.org/2000/svg" xmlns:xlink="http://www.w3.org/1999/xlink">
<g id="graph0" class="graph" transform="scale(1 1) rotate(0) translate(4 184)">
<polygon fill="white" stroke="none" points="-4,4 -4,-184 264,-184 264,4 -4,4"/>
<!-- file -->
<g id="node1" class="node">
<title>file</title>
<polygon fill="none" stroke="black" points="172.5,-180 86.5,-180 86.5,-144 172.5,-144 172.5,-180"/>
<text text-anchor="middle" x="129.5" y="-158.3" font-family="Times,serif" font-size="14.00">123456.hdf5</text>
</g>
<!-- bank1 -->
<g id="node2" class="node">
<title>bank1</title>
<polygon fill="none" stroke="black" points="104.5,-108 48.5,-108 48.5,-72 104.5,-72 104.5,-108"/>
<text text-anchor="middle" x="76.5" y="-86.3" font-family="Times,serif" font-size="14.00">Bank 1</text>
</g>
<!-- file&#45;&#45;bank1 -->
<g id="edge1" class="edge">
<title>file&#45;&#45;bank1</title>
<path fill="none" stroke="black" d="M116.4,-143.7C108.18,-132.85 97.64,-118.92 89.45,-108.1"/>
</g>
<!-- bank2 -->
<g id="node4" class="node">
<title>bank2</title>
<polygon fill="none" stroke="black" points="210.5,-108 154.5,-108 154.5,-72 210.5,-72 210.5,-108"/>
<text text-anchor="middle" x="182.5" y="-86.3" font-family="Times,serif" font-size="14.00">Bank 2</text>
</g>
<!-- file&#45;&#45;bank2 -->
<g id="edge3" class="edge">
<title>file&#45;&#45;bank2</title>
<path fill="none" stroke="black" d="M142.6,-143.7C150.82,-132.85 161.36,-118.92 169.55,-108.1"/>
</g>
<!-- fitgroup1 -->
<g id="node3" class="node">
<title>fitgroup1</title>
<polygon fill="none" stroke="black" points="121,-36 0,-36 0,0 121,0 121,-36"/>
<text text-anchor="middle" x="60.5" y="-14.3" font-family="Times,serif" font-size="14.00">Single Peak Fitting</text>
</g>
<!-- bank1&#45;&#45;fitgroup1 -->
<g id="edge2" class="edge">
<title>bank1&#45;&#45;fitgroup1</title>
<path fill="none" stroke="black" d="M72.54,-71.7C70.06,-60.85 66.88,-46.92 64.41,-36.1"/>
</g>
<!-- fitgroup2 -->
<g id="node5" class="node">
<title>fitgroup2</title>
<polygon fill="none" stroke="black" points="260,-36 139,-36 139,0 260,0 260,-36"/>
<text text-anchor="middle" x="199.5" y="-14.3" font-family="Times,serif" font-size="14.00">Single Peak Fitting</text>
</g>
<!-- bank2&#45;&#45;fitgroup2 -->
<g id="edge4" class="edge">
<title>bank2&#45;&#45;fitgroup2</title>
<path fill="none" stroke="black" d="M186.7,-71.7C189.34,-60.85 192.72,-46.92 195.35,-36.1"/>
</g>
</g>
</svg>
