<?xml version="1.0" encoding="UTF-8" standalone="no"?>
<!DOCTYPE svg PUBLIC "-//W3C//DTD SVG 1.1//EN"
 "http://www.w3.org/Graphics/SVG/1.1/DTD/svg11.dtd">
<!-- Generated by graphviz version 7.1.0 (20230122.1345)
 -->
<!-- Pages: 1 -->
<svg width="1014pt" height="260pt"
 viewBox="0.00 0.00 1013.50 260.00" xmlns="http://www.w3.org/2000/svg" xmlns:xlink="http://www.w3.org/1999/xlink">
<g id="graph0" class="graph" transform="scale(1 1) rotate(0) translate(4 256)">
<polygon fill="white" stroke="none" points="-4,4 -4,-256 1009.5,-256 1009.5,4 -4,4"/>
<!-- file -->
<g id="node1" class="node">
<title>file</title>
<polygon fill="none" stroke="black" points="572.5,-252 486.5,-252 486.5,-216 572.5,-216 572.5,-252"/>
<text text-anchor="middle" x="529.5" y="-230.3" font-family="Times,serif" font-size="14.00">123456.hdf5</text>
</g>
<!-- bank1 -->
<g id="node2" class="node">
<title>bank1</title>
<polygon fill="none" stroke="black" points="520.5,-180 464.5,-180 464.5,-144 520.5,-144 520.5,-180"/>
<text text-anchor="middle" x="492.5" y="-158.3" font-family="Times,serif" font-size="14.00">Bank 1</text>
</g>
<!-- file&#45;&#45;bank1 -->
<g id="edge1" class="edge">
<title>file&#45;&#45;bank1</title>
<path fill="none" stroke="black" d="M520.35,-215.7C514.62,-204.85 507.26,-190.92 501.54,-180.1"/>
</g>
<!-- bank2 -->
<g id="node8" class="node">
<title>bank2</title>
<polygon fill="none" stroke="black" points="666.5,-180 610.5,-180 610.5,-144 666.5,-144 666.5,-180"/>
<text text-anchor="middle" x="638.5" y="-158.3" font-family="Times,serif" font-size="14.00">Bank 2</text>
</g>
<!-- file&#45;&#45;bank2 -->
<g id="edge7" class="edge">
<title>file&#45;&#45;bank2</title>
<path fill="none" stroke="black" d="M556.72,-215.52C573.5,-204.74 594.91,-190.99 611.62,-180.26"/>
</g>
<!-- fitgroup1 -->
<g id="node3" class="node">
<title>fitgroup1</title>
<polygon fill="none" stroke="black" points="402,-108 297,-108 297,-72 402,-72 402,-108"/>
<text text-anchor="middle" x="349.5" y="-86.3" font-family="Times,serif" font-size="14.00">GSAS&#45;II Fitting</text>
</g>
<!-- bank1&#45;&#45;fitgroup1 -->
<g id="edge2" class="edge">
<title>bank1&#45;&#45;fitgroup1</title>
<path fill="none" stroke="black" d="M464.25,-147.17C441.54,-136.05 409.51,-120.37 385.05,-108.4"/>
</g>
<!-- latticeparams1 -->
<g id="node4" class="node">
<title>latticeparams1</title>
<polygon fill="none" stroke="black" points="119,-36 0,-36 0,0 119,0 119,-36"/>
<text text-anchor="middle" x="59.5" y="-14.3" font-family="Times,serif" font-size="14.00">Lattice Parameters</text>
</g>
<!-- fitgroup1&#45;&#45;latticeparams1 -->
<g id="edge3" class="edge">
<title>fitgroup1&#45;&#45;latticeparams1</title>
<path fill="none" stroke="black" d="M296.79,-76.46C252,-65.77 186.01,-49.98 128.5,-36 125.5,-35.27 122.43,-34.52 119.33,-33.77"/>
</g>
<!-- profcoeffs1 -->
<g id="node5" class="node">
<title>profcoeffs1</title>
<polygon fill="none" stroke="black" points="259.5,-36 137.5,-36 137.5,0 259.5,0 259.5,-36"/>
<text text-anchor="middle" x="198.5" y="-14.3" font-family="Times,serif" font-size="14.00">Profile Coefficients</text>
</g>
<!-- fitgroup1&#45;&#45;profcoeffs1 -->
<g id="edge4" class="edge">
<title>fitgroup1&#45;&#45;profcoeffs1</title>
<path fill="none" stroke="black" d="M311.79,-71.52C288.64,-60.79 259.1,-47.09 235.99,-36.38"/>
</g>
<!-- refineparams1 -->
<g id="node6" class="node">
<title>refineparams1</title>
<polygon fill="none" stroke="black" points="421.5,-36 277.5,-36 277.5,0 421.5,0 421.5,-36"/>
<text text-anchor="middle" x="349.5" y="-14.3" font-family="Times,serif" font-size="14.00">Refinement Parameters</text>
</g>
<!-- fitgroup1&#45;&#45;refineparams1 -->
<g id="edge5" class="edge">
<title>fitgroup1&#45;&#45;refineparams1</title>
<path fill="none" stroke="black" d="M349.5,-71.7C349.5,-60.85 349.5,-46.92 349.5,-36.1"/>
</g>
<!-- rwp1 -->
<g id="node7" class="node">
<title>rwp1</title>
<polygon fill="none" stroke="black" points="493.5,-36 439.5,-36 439.5,0 493.5,0 493.5,-36"/>
<text text-anchor="middle" x="466.5" y="-14.3" font-family="Times,serif" font-size="14.00">Rwp</text>
</g>
<!-- fitgroup1&#45;&#45;rwp1 -->
<g id="edge6" class="edge">
<title>fitgroup1&#45;&#45;rwp1</title>
<path fill="none" stroke="black" d="M378.72,-71.52C397.27,-60.42 421.1,-46.16 439.25,-35.3"/>
</g>
<!-- fitgroup2 -->
<g id="node9" class="node">
<title>fitgroup2</title>
<polygon fill="none" stroke="black" points="763,-108 658,-108 658,-72 763,-72 763,-108"/>
<text text-anchor="middle" x="710.5" y="-86.3" font-family="Times,serif" font-size="14.00">GSAS&#45;II Fitting</text>
</g>
<!-- bank2&#45;&#45;fitgroup2 -->
<g id="edge8" class="edge">
<title>bank2&#45;&#45;fitgroup2</title>
<path fill="none" stroke="black" d="M656.3,-143.7C667.37,-132.93 681.57,-119.12 692.66,-108.35"/>
</g>
<!-- latticeparams2 -->
<g id="node10" class="node">
<title>latticeparams2</title>
<polygon fill="none" stroke="black" points="631,-36 512,-36 512,0 631,0 631,-36"/>
<text text-anchor="middle" x="571.5" y="-14.3" font-family="Times,serif" font-size="14.00">Lattice Parameters</text>
</g>
<!-- fitgroup2&#45;&#45;latticeparams2 -->
<g id="edge9" class="edge">
<title>fitgroup2&#45;&#45;latticeparams2</title>
<path fill="none" stroke="black" d="M675.78,-71.52C654.39,-60.74 627.08,-46.99 605.77,-36.26"/>
</g>
<!-- profcoeffs2 -->
<g id="node11" class="node">
<title>profcoeffs2</title>
<polygon fill="none" stroke="black" points="771.5,-36 649.5,-36 649.5,0 771.5,0 771.5,-36"/>
<text text-anchor="middle" x="710.5" y="-14.3" font-family="Times,serif" font-size="14.00">Profile Coefficients</text>
</g>
<!-- fitgroup2&#45;&#45;profcoeffs2 -->
<g id="edge10" class="edge">
<title>fitgroup2&#45;&#45;profcoeffs2</title>
<path fill="none" stroke="black" d="M710.5,-71.7C710.5,-60.85 710.5,-46.92 710.5,-36.1"/>
</g>
<!-- refineparams2 -->
<g id="node12" class="node">
<title>refineparams2</title>
<polygon fill="none" stroke="black" points="933.5,-36 789.5,-36 789.5,0 933.5,0 933.5,-36"/>
<text text-anchor="middle" x="861.5" y="-14.3" font-family="Times,serif" font-size="14.00">Refinement Parameters</text>
</g>
<!-- fitgroup2&#45;&#45;refineparams2 -->
<g id="edge11" class="edge">
<title>fitgroup2&#45;&#45;refineparams2</title>
<path fill="none" stroke="black" d="M748.21,-71.52C771.36,-60.79 800.9,-47.09 824.01,-36.38"/>
</g>
<!-- rwp2 -->
<g id="node13" class="node">
<title>rwp2</title>
<polygon fill="none" stroke="black" points="1005.5,-36 951.5,-36 951.5,0 1005.5,0 1005.5,-36"/>
<text text-anchor="middle" x="978.5" y="-14.3" font-family="Times,serif" font-size="14.00">Rwp</text>
</g>
<!-- fitgroup2&#45;&#45;rwp2 -->
<g id="edge12" class="edge">
<title>fitgroup2&#45;&#45;rwp2</title>
<path fill="none" stroke="black" d="M763.47,-80.28C811.09,-71.65 882.56,-56.72 942.5,-36 945.37,-35.01 948.32,-33.85 951.24,-32.62"/>
</g>
</g>
</svg>
