<?xml version="1.0" encoding="UTF-8" standalone="no"?>
<!DOCTYPE svg PUBLIC "-//W3C//DTD SVG 1.1//EN"
 "http://www.w3.org/Graphics/SVG/1.1/DTD/svg11.dtd">
<!-- Generated by graphviz version 9.0.0 (20231125.0833)
 -->
<!-- Pages: 1 -->
<svg width="404pt" height="260pt"
 viewBox="0.00 0.00 404.25 260.00" xmlns="http://www.w3.org/2000/svg" xmlns:xlink="http://www.w3.org/1999/xlink">
<g id="graph0" class="graph" transform="scale(1 1) rotate(0) translate(4 256)">
<polygon fill="white" stroke="none" points="-4,4 -4,-256 400.25,-256 400.25,4 -4,4"/>
<!-- file -->
<g id="node1" class="node">
<title>file</title>
<polygon fill="none" stroke="black" points="313.12,-252 183.12,-252 183.12,-216 313.12,-216 313.12,-252"/>
<text text-anchor="middle" x="248.12" y="-227.82" font-family="Times,serif" font-size="14.00">123456&#45;123457.hdf5</text>
</g>
<!-- run1 -->
<g id="node2" class="node">
<title>run1</title>
<polygon fill="none" stroke="black" points="239.5,-180 156.75,-180 156.75,-144 239.5,-144 239.5,-180"/>
<text text-anchor="middle" x="198.12" y="-155.82" font-family="Times,serif" font-size="14.00">Run 123456</text>
</g>
<!-- file&#45;&#45;run1 -->
<g id="edge1" class="edge">
<title>file&#45;&#45;run1</title>
<path fill="none" stroke="black" d="M235.77,-215.7C228.02,-204.85 218.07,-190.92 210.34,-180.1"/>
</g>
<!-- run2 -->
<g id="node3" class="node">
<title>run2</title>
<polygon fill="none" stroke="black" points="349.5,-180 266.75,-180 266.75,-144 349.5,-144 349.5,-180"/>
<text text-anchor="middle" x="308.12" y="-155.82" font-family="Times,serif" font-size="14.00">Run 123457</text>
</g>
<!-- file&#45;&#45;run2 -->
<g id="edge6" class="edge">
<title>file&#45;&#45;run2</title>
<path fill="none" stroke="black" d="M262.96,-215.7C272.26,-204.85 284.2,-190.92 293.46,-180.1"/>
</g>
<!-- bank1 -->
<g id="node4" class="node">
<title>bank1</title>
<polygon fill="none" stroke="black" points="120.62,-108 65.62,-108 65.62,-72 120.62,-72 120.62,-108"/>
<text text-anchor="middle" x="93.12" y="-83.83" font-family="Times,serif" font-size="14.00">Bank 1</text>
</g>
<!-- run1&#45;&#45;bank1 -->
<g id="edge2" class="edge">
<title>run1&#45;&#45;bank1</title>
<path fill="none" stroke="black" d="M171.9,-143.52C155.74,-132.74 135.11,-118.99 119.02,-108.26"/>
</g>
<!-- bank2 -->
<g id="node5" class="node">
<title>bank2</title>
<polygon fill="none" stroke="black" points="225.62,-108 170.62,-108 170.62,-72 225.62,-72 225.62,-108"/>
<text text-anchor="middle" x="198.12" y="-83.83" font-family="Times,serif" font-size="14.00">Bank 2</text>
</g>
<!-- run1&#45;&#45;bank2 -->
<g id="edge4" class="edge">
<title>run1&#45;&#45;bank2</title>
<path fill="none" stroke="black" d="M198.12,-143.7C198.12,-132.85 198.12,-118.92 198.12,-108.1"/>
</g>
<!-- bank3 -->
<g id="node6" class="node">
<title>bank3</title>
<polygon fill="none" stroke="black" points="353.12,-108 299.12,-108 299.12,-72 353.12,-72 353.12,-108"/>
<text text-anchor="middle" x="326.12" y="-83.83" font-family="Times,serif" font-size="14.00">Bank1</text>
</g>
<!-- run2&#45;&#45;bank3 -->
<g id="edge7" class="edge">
<title>run2&#45;&#45;bank3</title>
<path fill="none" stroke="black" d="M312.57,-143.7C315.36,-132.85 318.95,-118.92 321.73,-108.1"/>
</g>
<!-- fitgroup1 -->
<g id="node7" class="node">
<title>fitgroup1</title>
<polygon fill="none" stroke="black" points="120.25,-36 0,-36 0,0 120.25,0 120.25,-36"/>
<text text-anchor="middle" x="60.12" y="-11.82" font-family="Times,serif" font-size="14.00">Single Peak Fitting</text>
</g>
<!-- bank1&#45;&#45;fitgroup1 -->
<g id="edge3" class="edge">
<title>bank1&#45;&#45;fitgroup1</title>
<path fill="none" stroke="black" d="M84.97,-71.7C79.85,-60.85 73.29,-46.92 68.19,-36.1"/>
</g>
<!-- fitgroup2 -->
<g id="node8" class="node">
<title>fitgroup2</title>
<polygon fill="none" stroke="black" points="258.25,-36 138,-36 138,0 258.25,0 258.25,-36"/>
<text text-anchor="middle" x="198.12" y="-11.82" font-family="Times,serif" font-size="14.00">Single Peak Fitting</text>
</g>
<!-- bank2&#45;&#45;fitgroup2 -->
<g id="edge5" class="edge">
<title>bank2&#45;&#45;fitgroup2</title>
<path fill="none" stroke="black" d="M198.12,-71.7C198.12,-60.85 198.12,-46.92 198.12,-36.1"/>
</g>
<!-- fitgroup3 -->
<g id="node9" class="node">
<title>fitgroup3</title>
<polygon fill="none" stroke="black" points="396.25,-36 276,-36 276,0 396.25,0 396.25,-36"/>
<text text-anchor="middle" x="336.12" y="-11.82" font-family="Times,serif" font-size="14.00">Single Peak Fitting</text>
</g>
<!-- bank3&#45;&#45;fitgroup3 -->
<g id="edge8" class="edge">
<title>bank3&#45;&#45;fitgroup3</title>
<path fill="none" stroke="black" d="M328.6,-71.7C330.15,-60.85 332.14,-46.92 333.68,-36.1"/>
</g>
</g>
</svg>
