<?xml version="1.0" encoding="UTF-8" standalone="no"?>
<!DOCTYPE svg PUBLIC "-//W3C//DTD SVG 1.1//EN"
 "http://www.w3.org/Graphics/SVG/1.1/DTD/svg11.dtd">
<!-- Generated by graphviz version 13.1.0 (20250701.1702)
 -->
<!-- Title: FlatPlatePaalmanPingsCorrection Pages: 1 -->
<svg width="1306pt" height="1865pt"
 viewBox="0.00 0.00 1306.00 1865.00" xmlns="http://www.w3.org/2000/svg" xmlns:xlink="http://www.w3.org/1999/xlink">
<g id="graph0" class="graph" transform="scale(1 1) rotate(0) translate(4 1860.5)">
<title>FlatPlatePaalmanPingsCorrection</title>
<polygon fill="white" stroke="none" points="-4,4 -4,-1860.5 1301.65,-1860.5 1301.65,4 -4,4"/>
<text xml:space="preserve" text-anchor="middle" x="648.82" y="-1839.2" font-family="Helvetica,sans-Serif" font-size="14.00">FlatPlatePaalmanPingsCorrection Flowchart</text>
<!-- SampleWorkspace -->
<g id="node1" class="node">
<title>SampleWorkspace</title>
<ellipse fill="khaki" stroke="black" cx="650.84" cy="-1813.25" rx="100.66" ry="18"/>
<text xml:space="preserve" text-anchor="middle" x="650.84" y="-1808.58" font-family="Helvetica,sans-Serif" font-size="14.00">SampleWorkspace</text>
</g>
<!-- SetSampleMaterial -->
<g id="node23" class="node">
<title>SetSampleMaterial</title>
<path fill="lightskyblue" stroke="black" d="M961.71,-1758.25C961.71,-1758.25 839.96,-1758.25 839.96,-1758.25 833.96,-1758.25 827.96,-1752.25 827.96,-1746.25 827.96,-1746.25 827.96,-1734.25 827.96,-1734.25 827.96,-1728.25 833.96,-1722.25 839.96,-1722.25 839.96,-1722.25 961.71,-1722.25 961.71,-1722.25 967.71,-1722.25 973.71,-1728.25 973.71,-1734.25 973.71,-1734.25 973.71,-1746.25 973.71,-1746.25 973.71,-1752.25 967.71,-1758.25 961.71,-1758.25"/>
<text xml:space="preserve" text-anchor="middle" x="900.84" y="-1735.58" font-family="Helvetica,sans-Serif" font-size="14.00">SetSampleMaterial</text>
</g>
<!-- SampleWorkspace&#45;&gt;SetSampleMaterial -->
<g id="edge1" class="edge">
<title>SampleWorkspace&#45;&gt;SetSampleMaterial</title>
<path fill="none" stroke="black" d="M702.94,-1797.45C739.31,-1787.13 788.32,-1773.21 828.47,-1761.8"/>
<polygon fill="black" stroke="black" points="829.42,-1765.17 838.09,-1759.07 827.51,-1758.44 829.42,-1765.17"/>
</g>
<!-- SampleChemicalFormula -->
<g id="node2" class="node">
<title>SampleChemicalFormula</title>
<ellipse fill="khaki" stroke="black" cx="900.84" cy="-1813.25" rx="131.18" ry="18"/>
<text xml:space="preserve" text-anchor="middle" x="900.84" y="-1808.58" font-family="Helvetica,sans-Serif" font-size="14.00">SampleChemicalFormula</text>
</g>
<!-- SampleChemicalFormula&#45;&gt;SetSampleMaterial -->
<g id="edge2" class="edge">
<title>SampleChemicalFormula&#45;&gt;SetSampleMaterial</title>
<path fill="none" stroke="black" d="M900.84,-1795.06C900.84,-1787.48 900.84,-1778.35 900.84,-1769.79"/>
<polygon fill="black" stroke="black" points="904.34,-1769.79 900.84,-1759.79 897.34,-1769.79 904.34,-1769.79"/>
</g>
<!-- SampleNumberDensity -->
<g id="node3" class="node">
<title>SampleNumberDensity</title>
<ellipse fill="khaki" stroke="black" cx="1173.84" cy="-1813.25" rx="123.81" ry="18"/>
<text xml:space="preserve" text-anchor="middle" x="1173.84" y="-1808.58" font-family="Helvetica,sans-Serif" font-size="14.00">SampleNumberDensity</text>
</g>
<!-- SampleNumberDensity&#45;&gt;SetSampleMaterial -->
<g id="edge3" class="edge">
<title>SampleNumberDensity&#45;&gt;SetSampleMaterial</title>
<path fill="none" stroke="black" d="M1115.27,-1797.02C1075.49,-1786.67 1022.44,-1772.87 979.05,-1761.59"/>
<polygon fill="black" stroke="black" points="979.98,-1758.22 969.42,-1759.09 978.22,-1764.99 979.98,-1758.22"/>
</g>
<!-- SampleNumberDensity2 -->
<g id="node4" class="node">
<title>SampleNumberDensity2</title>
<ellipse fill="khaki" stroke="black" cx="860.84" cy="-1269.75" rx="123.81" ry="18"/>
<text xml:space="preserve" text-anchor="middle" x="860.84" y="-1265.08" font-family="Helvetica,sans-Serif" font-size="14.00">SampleNumberDensity</text>
</g>
<!-- flatAbs -->
<g id="node35" class="node">
<title>flatAbs</title>
<polygon fill="lightseagreen" stroke="black" points="739.21,-1214.75 296.46,-1214.75 296.46,-1178.75 739.21,-1178.75 739.21,-1214.75"/>
<text xml:space="preserve" text-anchor="middle" x="517.84" y="-1192.08" font-family="Helvetica,sans-Serif" font-size="14.00">flat_abs: Mathematically calculates the flat absorption factors</text>
</g>
<!-- SampleNumberDensity2&#45;&gt;flatAbs -->
<g id="edge15" class="edge">
<title>SampleNumberDensity2&#45;&gt;flatAbs</title>
<path fill="none" stroke="black" d="M791.84,-1254.47C740.58,-1243.86 670.02,-1229.25 613.34,-1217.52"/>
<polygon fill="black" stroke="black" points="614.19,-1214.12 603.68,-1215.52 612.77,-1220.97 614.19,-1214.12"/>
</g>
<!-- SampleThickness -->
<g id="node5" class="node">
<title>SampleThickness</title>
<ellipse fill="khaki" stroke="black" cx="285.84" cy="-1269.75" rx="95.93" ry="18"/>
<text xml:space="preserve" text-anchor="middle" x="285.84" y="-1265.08" font-family="Helvetica,sans-Serif" font-size="14.00">SampleThickness</text>
</g>
<!-- SampleThickness&#45;&gt;flatAbs -->
<g id="edge14" class="edge">
<title>SampleThickness&#45;&gt;flatAbs</title>
<path fill="none" stroke="black" d="M334.47,-1253.87C367.97,-1243.61 412.94,-1229.85 449.96,-1218.52"/>
<polygon fill="black" stroke="black" points="450.69,-1221.96 459.23,-1215.69 448.64,-1215.27 450.69,-1221.96"/>
</g>
<!-- SampleAngle -->
<g id="node6" class="node">
<title>SampleAngle</title>
<ellipse fill="khaki" stroke="black" cx="474.84" cy="-1269.75" rx="75.41" ry="18"/>
<text xml:space="preserve" text-anchor="middle" x="474.84" y="-1265.08" font-family="Helvetica,sans-Serif" font-size="14.00">SampleAngle</text>
</g>
<!-- SampleAngle&#45;&gt;flatAbs -->
<g id="edge16" class="edge">
<title>SampleAngle&#45;&gt;flatAbs</title>
<path fill="none" stroke="black" d="M485.25,-1251.56C490.16,-1243.45 496.14,-1233.59 501.62,-1224.53"/>
<polygon fill="black" stroke="black" points="504.55,-1226.44 506.74,-1216.07 498.57,-1222.81 504.55,-1226.44"/>
</g>
<!-- CanWorkspace -->
<g id="node7" class="node">
<title>CanWorkspace</title>
<ellipse fill="khaki" stroke="black" cx="817.84" cy="-1578" rx="83.3" ry="18"/>
<text xml:space="preserve" text-anchor="middle" x="817.84" y="-1573.33" font-family="Helvetica,sans-Serif" font-size="14.00">CanWorkspace</text>
</g>
<!-- SetSampleMaterial2 -->
<g id="node24" class="node">
<title>SetSampleMaterial2</title>
<path fill="lightskyblue" stroke="black" d="M729.71,-1506.75C729.71,-1506.75 607.96,-1506.75 607.96,-1506.75 601.96,-1506.75 595.96,-1500.75 595.96,-1494.75 595.96,-1494.75 595.96,-1482.75 595.96,-1482.75 595.96,-1476.75 601.96,-1470.75 607.96,-1470.75 607.96,-1470.75 729.71,-1470.75 729.71,-1470.75 735.71,-1470.75 741.71,-1476.75 741.71,-1482.75 741.71,-1482.75 741.71,-1494.75 741.71,-1494.75 741.71,-1500.75 735.71,-1506.75 729.71,-1506.75"/>
<text xml:space="preserve" text-anchor="middle" x="668.84" y="-1484.08" font-family="Helvetica,sans-Serif" font-size="14.00">SetSampleMaterial</text>
</g>
<!-- CanWorkspace&#45;&gt;SetSampleMaterial2 -->
<g id="edge6" class="edge">
<title>CanWorkspace&#45;&gt;SetSampleMaterial2</title>
<path fill="none" stroke="black" d="M789.81,-1560.59C766.82,-1547.12 733.98,-1527.9 708.32,-1512.87"/>
<polygon fill="black" stroke="black" points="710.23,-1509.93 699.83,-1507.9 706.69,-1515.97 710.23,-1509.93"/>
</g>
<!-- CanChemicalFormula -->
<g id="node8" class="node">
<title>CanChemicalFormula</title>
<ellipse fill="khaki" stroke="black" cx="371.84" cy="-1578" rx="113.82" ry="18"/>
<text xml:space="preserve" text-anchor="middle" x="371.84" y="-1573.33" font-family="Helvetica,sans-Serif" font-size="14.00">CanChemicalFormula</text>
</g>
<!-- CanChemicalFormula&#45;&gt;SetSampleMaterial2 -->
<g id="edge7" class="edge">
<title>CanChemicalFormula&#45;&gt;SetSampleMaterial2</title>
<path fill="none" stroke="black" d="M424.25,-1561.6C472.7,-1547.37 545.07,-1526.11 598.53,-1510.4"/>
<polygon fill="black" stroke="black" points="599.24,-1513.85 607.84,-1507.67 597.26,-1507.13 599.24,-1513.85"/>
</g>
<!-- CanNumberDensity -->
<g id="node9" class="node">
<title>CanNumberDensity</title>
<ellipse fill="khaki" stroke="black" cx="609.84" cy="-1578" rx="106.45" ry="18"/>
<text xml:space="preserve" text-anchor="middle" x="609.84" y="-1573.33" font-family="Helvetica,sans-Serif" font-size="14.00">CanNumberDensity</text>
</g>
<!-- CanNumberDensity&#45;&gt;SetSampleMaterial2 -->
<g id="edge8" class="edge">
<title>CanNumberDensity&#45;&gt;SetSampleMaterial2</title>
<path fill="none" stroke="black" d="M621.5,-1559.76C629.9,-1547.33 641.4,-1530.33 650.96,-1516.19"/>
<polygon fill="black" stroke="black" points="653.66,-1518.45 656.36,-1508.21 647.86,-1514.53 653.66,-1518.45"/>
</g>
<!-- CanFrontThickness -->
<g id="node10" class="node">
<title>CanFrontThickness</title>
<ellipse fill="khaki" stroke="black" cx="637.84" cy="-961.5" rx="102.77" ry="18"/>
<text xml:space="preserve" text-anchor="middle" x="637.84" y="-956.83" font-family="Helvetica,sans-Serif" font-size="14.00">CanFrontThickness</text>
</g>
<!-- flatAbsCan -->
<g id="node36" class="node">
<title>flatAbsCan</title>
<polygon fill="lightseagreen" stroke="black" points="889.59,-906.5 164.09,-906.5 164.09,-870.5 889.59,-870.5 889.59,-906.5"/>
<text xml:space="preserve" text-anchor="middle" x="526.84" y="-883.83" font-family="Helvetica,sans-Serif" font-size="14.00">calculate_can: Re&#45;calculate the assc, acsc and acc data taking into account the contribution of the can</text>
</g>
<!-- CanFrontThickness&#45;&gt;flatAbsCan -->
<g id="edge23" class="edge">
<title>CanFrontThickness&#45;&gt;flatAbsCan</title>
<path fill="none" stroke="black" d="M611.53,-943.67C597.2,-934.51 579.23,-923.01 563.54,-912.97"/>
<polygon fill="black" stroke="black" points="565.7,-910.2 555.39,-907.76 561.93,-916.1 565.7,-910.2"/>
</g>
<!-- CanBackThickness -->
<g id="node11" class="node">
<title>CanBackThickness</title>
<ellipse fill="khaki" stroke="black" cx="414.84" cy="-961.5" rx="102.24" ry="18"/>
<text xml:space="preserve" text-anchor="middle" x="414.84" y="-956.83" font-family="Helvetica,sans-Serif" font-size="14.00">CanBackThickness</text>
</g>
<!-- CanBackThickness&#45;&gt;flatAbsCan -->
<g id="edge24" class="edge">
<title>CanBackThickness&#45;&gt;flatAbsCan</title>
<path fill="none" stroke="black" d="M441.38,-943.67C455.84,-934.51 473.97,-923.01 489.81,-912.97"/>
<polygon fill="black" stroke="black" points="491.47,-916.07 498.04,-907.76 487.72,-910.16 491.47,-916.07"/>
</g>
<!-- OutputWorkspace -->
<g id="node12" class="node">
<title>OutputWorkspace</title>
<ellipse fill="khaki" stroke="black" cx="730.84" cy="-18" rx="98.56" ry="18"/>
<text xml:space="preserve" text-anchor="middle" x="730.84" y="-13.32" font-family="Helvetica,sans-Serif" font-size="14.00">OutputWorkspace</text>
</g>
<!-- Angles -->
<g id="node13" class="node">
<title>Angles</title>
<ellipse fill="khaki" stroke="black" cx="827.84" cy="-1342.75" rx="44.37" ry="18"/>
<text xml:space="preserve" text-anchor="middle" x="827.84" y="-1338.08" font-family="Helvetica,sans-Serif" font-size="14.00">Angles</text>
</g>
<!-- CurrentAngle -->
<g id="node37" class="node">
<title>CurrentAngle</title>
<ellipse fill="lightgrey" stroke="black" cx="643.84" cy="-1269.75" rx="75.41" ry="18"/>
<text xml:space="preserve" text-anchor="middle" x="643.84" y="-1265.08" font-family="Helvetica,sans-Serif" font-size="14.00">CurrentAngle</text>
</g>
<!-- Angles&#45;&gt;CurrentAngle -->
<g id="edge12" class="edge">
<title>Angles&#45;&gt;CurrentAngle</title>
<path fill="none" stroke="black" d="M796.63,-1329.71C768.13,-1318.71 725.55,-1302.28 692.58,-1289.56"/>
<polygon fill="black" stroke="black" points="694.24,-1286.45 683.65,-1286.11 691.72,-1292.98 694.24,-1286.45"/>
</g>
<!-- Waves -->
<g id="node14" class="node">
<title>Waves</title>
<ellipse fill="khaki" stroke="black" cx="900.84" cy="-545.25" rx="42.79" ry="18"/>
<text xml:space="preserve" text-anchor="middle" x="900.84" y="-540.58" font-family="Helvetica,sans-Serif" font-size="14.00">Waves</text>
</g>
<!-- data_x -->
<g id="node38" class="node">
<title>data_x</title>
<ellipse fill="lightgrey" stroke="black" cx="900.84" cy="-472.25" rx="43.32" ry="18"/>
<text xml:space="preserve" text-anchor="middle" x="900.84" y="-467.57" font-family="Helvetica,sans-Serif" font-size="14.00">data_x</text>
</g>
<!-- Waves&#45;&gt;data_x -->
<g id="edge32" class="edge">
<title>Waves&#45;&gt;data_x</title>
<path fill="none" stroke="black" d="M900.84,-527.06C900.84,-519.48 900.84,-510.35 900.84,-501.79"/>
<polygon fill="black" stroke="black" points="904.34,-501.79 900.84,-491.79 897.34,-501.79 904.34,-501.79"/>
</g>
<!-- data -->
<g id="node15" class="node">
<title>data</title>
<ellipse fill="khaki" stroke="black" cx="232.84" cy="-1034.5" rx="88.04" ry="18"/>
<text xml:space="preserve" text-anchor="middle" x="232.84" y="-1029.83" font-family="Helvetica,sans-Serif" font-size="14.00">absorption data</text>
</g>
<!-- data1 -->
<g id="node16" class="node">
<title>data1</title>
<ellipse fill="khaki" stroke="black" cx="526.84" cy="-726.25" rx="88.04" ry="18"/>
<text xml:space="preserve" text-anchor="middle" x="526.84" y="-721.58" font-family="Helvetica,sans-Serif" font-size="14.00">absorption data</text>
</g>
<!-- data&#45;&gt;data1 -->
<g id="edge27" class="edge">
<title>data&#45;&gt;data1</title>
<path fill="none" stroke="black" d="M186.04,-1018.8C161.24,-1007.79 135.84,-989.84 135.84,-962.5 135.84,-962.5 135.84,-962.5 135.84,-814.5 135.84,-754.59 312.88,-735.8 428.71,-729.92"/>
<polygon fill="black" stroke="black" points="428.73,-733.42 438.55,-729.45 428.39,-726.43 428.73,-733.42"/>
</g>
<!-- data_ass -->
<g id="node18" class="node">
<title>data_ass</title>
<ellipse fill="khaki" stroke="black" cx="53.84" cy="-961.5" rx="53.84" ry="18"/>
<text xml:space="preserve" text-anchor="middle" x="53.84" y="-956.83" font-family="Helvetica,sans-Serif" font-size="14.00">data_ass</text>
</g>
<!-- data&#45;&gt;data_ass -->
<g id="edge21" class="edge">
<title>data&#45;&gt;data_ass</title>
<path fill="none" stroke="black" d="M181.58,-1019.46C162.55,-1013.7 140.95,-1006.49 121.84,-998.5 111.12,-994.02 99.83,-988.42 89.6,-982.99"/>
<polygon fill="black" stroke="black" points="91.57,-980.08 81.11,-978.38 88.23,-986.23 91.57,-980.08"/>
</g>
<!-- data_ass1 -->
<g id="node19" class="node">
<title>data_ass1</title>
<ellipse fill="khaki" stroke="black" cx="459.84" cy="-599.25" rx="53.84" ry="18"/>
<text xml:space="preserve" text-anchor="middle" x="459.84" y="-594.58" font-family="Helvetica,sans-Serif" font-size="14.00">data_ass</text>
</g>
<!-- data1&#45;&gt;data_ass1 -->
<g id="edge30" class="edge">
<title>data1&#45;&gt;data_ass1</title>
<path fill="none" stroke="black" d="M517.52,-707.87C506.31,-686.95 487.36,-651.59 474.25,-627.14"/>
<polygon fill="black" stroke="black" points="477.39,-625.58 469.58,-618.42 471.22,-628.88 477.39,-625.58"/>
</g>
<!-- useCan3 -->
<g id="node31" class="node">
<title>useCan3</title>
<polygon fill="limegreen" stroke="black" points="633.84,-671.25 549.51,-653.25 633.84,-635.25 718.16,-653.25 633.84,-671.25"/>
<text xml:space="preserve" text-anchor="middle" x="633.84" y="-648.58" font-family="Helvetica,sans-Serif" font-size="14.00">Using can</text>
</g>
<!-- data1&#45;&gt;useCan3 -->
<g id="edge31" class="edge">
<title>data1&#45;&gt;useCan3</title>
<path fill="none" stroke="black" d="M551.93,-708.6C567.73,-698.12 588.18,-684.54 604.7,-673.58"/>
<polygon fill="black" stroke="black" points="606.25,-676.76 612.65,-668.31 602.38,-670.92 606.25,-676.76"/>
</g>
<!-- data2 -->
<g id="node17" class="node">
<title>data2</title>
<ellipse fill="khaki" stroke="black" cx="637.84" cy="-545.25" rx="88.04" ry="18"/>
<text xml:space="preserve" text-anchor="middle" x="637.84" y="-540.58" font-family="Helvetica,sans-Serif" font-size="14.00">absorption data</text>
</g>
<!-- data_assc -->
<g id="node20" class="node">
<title>data_assc</title>
<ellipse fill="khaki" stroke="black" cx="518.84" cy="-472.25" rx="59.1" ry="18"/>
<text xml:space="preserve" text-anchor="middle" x="518.84" y="-467.57" font-family="Helvetica,sans-Serif" font-size="14.00">data_assc</text>
</g>
<!-- data2&#45;&gt;data_assc -->
<g id="edge34" class="edge">
<title>data2&#45;&gt;data_assc</title>
<path fill="none" stroke="black" d="M610.24,-527.78C593.63,-517.87 572.32,-505.16 554.45,-494.5"/>
<polygon fill="black" stroke="black" points="556.34,-491.55 545.96,-489.43 552.75,-497.56 556.34,-491.55"/>
</g>
<!-- data_acsc -->
<g id="node21" class="node">
<title>data_acsc</title>
<ellipse fill="khaki" stroke="black" cx="654.84" cy="-472.25" rx="59.1" ry="18"/>
<text xml:space="preserve" text-anchor="middle" x="654.84" y="-467.57" font-family="Helvetica,sans-Serif" font-size="14.00">data_acsc</text>
</g>
<!-- data2&#45;&gt;data_acsc -->
<g id="edge35" class="edge">
<title>data2&#45;&gt;data_acsc</title>
<path fill="none" stroke="black" d="M641.95,-527.06C643.81,-519.3 646.06,-509.93 648.15,-501.2"/>
<polygon fill="black" stroke="black" points="651.48,-502.29 650.41,-491.75 644.68,-500.66 651.48,-502.29"/>
</g>
<!-- data_acc -->
<g id="node22" class="node">
<title>data_acc</title>
<ellipse fill="khaki" stroke="black" cx="785.84" cy="-472.25" rx="53.84" ry="18"/>
<text xml:space="preserve" text-anchor="middle" x="785.84" y="-467.57" font-family="Helvetica,sans-Serif" font-size="14.00">data_acc</text>
</g>
<!-- data2&#45;&gt;data_acc -->
<g id="edge36" class="edge">
<title>data2&#45;&gt;data_acc</title>
<path fill="none" stroke="black" d="M671.42,-528.14C693.46,-517.57 722.4,-503.68 745.66,-492.52"/>
<polygon fill="black" stroke="black" points="747.04,-495.75 754.54,-488.27 744.01,-489.44 747.04,-495.75"/>
</g>
<!-- data_ass&#45;&gt;flatAbsCan -->
<g id="edge22" class="edge">
<title>data_ass&#45;&gt;flatAbsCan</title>
<path fill="none" stroke="black" d="M102.24,-953.24C171.5,-942.84 301.33,-923.35 399.27,-908.65"/>
<polygon fill="black" stroke="black" points="399.58,-912.14 408.95,-907.2 398.54,-905.22 399.58,-912.14"/>
</g>
<!-- CreateWorkspace -->
<g id="node25" class="node">
<title>CreateWorkspace</title>
<path fill="lightskyblue" stroke="black" d="M711.21,-417.25C711.21,-417.25 598.46,-417.25 598.46,-417.25 592.46,-417.25 586.46,-411.25 586.46,-405.25 586.46,-405.25 586.46,-393.25 586.46,-393.25 586.46,-387.25 592.46,-381.25 598.46,-381.25 598.46,-381.25 711.21,-381.25 711.21,-381.25 717.21,-381.25 723.21,-387.25 723.21,-393.25 723.21,-393.25 723.21,-405.25 723.21,-405.25 723.21,-411.25 717.21,-417.25 711.21,-417.25"/>
<text xml:space="preserve" text-anchor="middle" x="654.84" y="-394.57" font-family="Helvetica,sans-Serif" font-size="14.00">CreateWorkspace</text>
</g>
<!-- data_ass1&#45;&gt;CreateWorkspace -->
<g id="edge40" class="edge">
<title>data_ass1&#45;&gt;CreateWorkspace</title>
<path fill="none" stroke="black" d="M452.19,-581.07C440.43,-551.73 422.11,-491.57 450.84,-454.25 466.29,-434.18 524.58,-420.03 574.91,-411.27"/>
<polygon fill="black" stroke="black" points="575.4,-414.74 584.68,-409.62 574.24,-407.83 575.4,-414.74"/>
</g>
<!-- data_assc&#45;&gt;CreateWorkspace -->
<g id="edge37" class="edge">
<title>data_assc&#45;&gt;CreateWorkspace</title>
<path fill="none" stroke="black" d="M547.68,-456.19C566.31,-446.47 590.88,-433.64 611.8,-422.72"/>
<polygon fill="black" stroke="black" points="613.15,-425.96 620.39,-418.23 609.91,-419.76 613.15,-425.96"/>
</g>
<!-- data_acsc&#45;&gt;CreateWorkspace -->
<g id="edge38" class="edge">
<title>data_acsc&#45;&gt;CreateWorkspace</title>
<path fill="none" stroke="black" d="M654.84,-454.06C654.84,-446.48 654.84,-437.35 654.84,-428.79"/>
<polygon fill="black" stroke="black" points="658.34,-428.79 654.84,-418.79 651.34,-428.79 658.34,-428.79"/>
</g>
<!-- data_acc&#45;&gt;CreateWorkspace -->
<g id="edge39" class="edge">
<title>data_acc&#45;&gt;CreateWorkspace</title>
<path fill="none" stroke="black" d="M758.38,-456.37C740.53,-446.7 716.93,-433.9 696.76,-422.97"/>
<polygon fill="black" stroke="black" points="698.67,-420.03 688.21,-418.34 695.34,-426.18 698.67,-420.03"/>
</g>
<!-- useCan -->
<g id="node29" class="node">
<title>useCan</title>
<polygon fill="limegreen" stroke="black" points="900.84,-1685.25 816.51,-1667.25 900.84,-1649.25 985.16,-1667.25 900.84,-1685.25"/>
<text xml:space="preserve" text-anchor="middle" x="900.84" y="-1662.58" font-family="Helvetica,sans-Serif" font-size="14.00">Using can</text>
</g>
<!-- SetSampleMaterial&#45;&gt;useCan -->
<g id="edge4" class="edge">
<title>SetSampleMaterial&#45;&gt;useCan</title>
<path fill="none" stroke="black" d="M900.84,-1722.06C900.84,-1714.48 900.84,-1705.35 900.84,-1696.79"/>
<polygon fill="black" stroke="black" points="904.34,-1696.79 900.84,-1686.79 897.34,-1696.79 904.34,-1696.79"/>
</g>
<!-- detAngles -->
<g id="node34" class="node">
<title>detAngles</title>
<polygon fill="lightseagreen" stroke="black" points="1070.96,-1433.75 584.71,-1433.75 584.71,-1397.75 1070.96,-1397.75 1070.96,-1433.75"/>
<text xml:space="preserve" text-anchor="middle" x="827.84" y="-1411.08" font-family="Helvetica,sans-Serif" font-size="14.00">get_angles: Determine detector angles based on sample workspace</text>
</g>
<!-- SetSampleMaterial2&#45;&gt;detAngles -->
<g id="edge9" class="edge">
<title>SetSampleMaterial2&#45;&gt;detAngles</title>
<path fill="none" stroke="black" d="M707.73,-1470.38C729,-1460.88 755.58,-1449.02 778.31,-1438.86"/>
<polygon fill="black" stroke="black" points="779.71,-1442.08 787.41,-1434.8 776.85,-1435.68 779.71,-1442.08"/>
</g>
<!-- AddSampleLog -->
<g id="node26" class="node">
<title>AddSampleLog</title>
<path fill="lightskyblue" stroke="black" d="M778.59,-344.25C778.59,-344.25 683.09,-344.25 683.09,-344.25 677.09,-344.25 671.09,-338.25 671.09,-332.25 671.09,-332.25 671.09,-320.25 671.09,-320.25 671.09,-314.25 677.09,-308.25 683.09,-308.25 683.09,-308.25 778.59,-308.25 778.59,-308.25 784.59,-308.25 790.59,-314.25 790.59,-320.25 790.59,-320.25 790.59,-332.25 790.59,-332.25 790.59,-338.25 784.59,-344.25 778.59,-344.25"/>
<text xml:space="preserve" text-anchor="middle" x="730.84" y="-321.57" font-family="Helvetica,sans-Serif" font-size="14.00">AddSampleLog</text>
</g>
<!-- CreateWorkspace&#45;&gt;AddSampleLog -->
<g id="edge42" class="edge">
<title>CreateWorkspace&#45;&gt;AddSampleLog</title>
<path fill="none" stroke="black" d="M673.24,-381.06C682.5,-372.41 693.91,-361.75 704.12,-352.21"/>
<polygon fill="black" stroke="black" points="706.32,-354.94 711.24,-345.56 701.54,-349.83 706.32,-354.94"/>
</g>
<!-- interpolate -->
<g id="node32" class="node">
<title>interpolate</title>
<polygon fill="limegreen" stroke="black" points="730.84,-271.25 639.82,-253.25 730.84,-235.25 821.86,-253.25 730.84,-271.25"/>
<text xml:space="preserve" text-anchor="middle" x="730.84" y="-248.57" font-family="Helvetica,sans-Serif" font-size="14.00">Interpolate</text>
</g>
<!-- AddSampleLog&#45;&gt;interpolate -->
<g id="edge44" class="edge">
<title>AddSampleLog&#45;&gt;interpolate</title>
<path fill="none" stroke="black" d="M730.84,-308.06C730.84,-300.48 730.84,-291.35 730.84,-282.79"/>
<polygon fill="black" stroke="black" points="734.34,-282.79 730.84,-272.79 727.34,-282.79 734.34,-282.79"/>
</g>
<!-- GroupWorkspaces -->
<g id="node27" class="node">
<title>GroupWorkspaces</title>
<path fill="lightskyblue" stroke="black" d="M789.46,-109C789.46,-109 672.21,-109 672.21,-109 666.21,-109 660.21,-103 660.21,-97 660.21,-97 660.21,-85 660.21,-85 660.21,-79 666.21,-73 672.21,-73 672.21,-73 789.46,-73 789.46,-73 795.46,-73 801.46,-79 801.46,-85 801.46,-85 801.46,-97 801.46,-97 801.46,-103 795.46,-109 789.46,-109"/>
<text xml:space="preserve" text-anchor="middle" x="730.84" y="-86.33" font-family="Helvetica,sans-Serif" font-size="14.00">GroupWorkspaces</text>
</g>
<!-- GroupWorkspaces&#45;&gt;OutputWorkspace -->
<g id="edge48" class="edge">
<title>GroupWorkspaces&#45;&gt;OutputWorkspace</title>
<path fill="none" stroke="black" d="M730.84,-72.81C730.84,-65.23 730.84,-56.1 730.84,-47.54"/>
<polygon fill="black" stroke="black" points="734.34,-47.54 730.84,-37.54 727.34,-47.54 734.34,-47.54"/>
</g>
<!-- SplineInterpolation -->
<g id="node28" class="node">
<title>SplineInterpolation</title>
<path fill="lightskyblue" stroke="black" d="M737.46,-182C737.46,-182 614.21,-182 614.21,-182 608.21,-182 602.21,-176 602.21,-170 602.21,-170 602.21,-158 602.21,-158 602.21,-152 608.21,-146 614.21,-146 614.21,-146 737.46,-146 737.46,-146 743.46,-146 749.46,-152 749.46,-158 749.46,-158 749.46,-170 749.46,-170 749.46,-176 743.46,-182 737.46,-182"/>
<text xml:space="preserve" text-anchor="middle" x="675.84" y="-159.32" font-family="Helvetica,sans-Serif" font-size="14.00">SplineInterpolation</text>
</g>
<!-- SplineInterpolation&#45;&gt;GroupWorkspaces -->
<g id="edge46" class="edge">
<title>SplineInterpolation&#45;&gt;GroupWorkspaces</title>
<path fill="none" stroke="black" d="M689.15,-145.81C695.64,-137.44 703.57,-127.2 710.77,-117.9"/>
<polygon fill="black" stroke="black" points="713.36,-120.27 716.72,-110.23 707.83,-115.99 713.36,-120.27"/>
</g>
<!-- useCan&#45;&gt;CanWorkspace -->
<g id="edge5" class="edge">
<title>useCan&#45;&gt;CanWorkspace</title>
<path fill="none" stroke="black" d="M887.13,-1651.84C874.86,-1638.94 856.57,-1619.72 841.87,-1604.26"/>
<polygon fill="black" stroke="black" points="844.6,-1602.06 835.17,-1597.22 839.53,-1606.88 844.6,-1602.06"/>
<text xml:space="preserve" text-anchor="middle" x="878.02" y="-1617.95" font-family="Helvetica,sans-Serif" font-size="14.00">Yes</text>
</g>
<!-- useCan&#45;&gt;detAngles -->
<g id="edge10" class="edge">
<title>useCan&#45;&gt;detAngles</title>
<path fill="none" stroke="black" d="M905.57,-1650.11C910.98,-1629.03 918.12,-1591.13 909.84,-1560 897.98,-1515.41 868.6,-1470.24 848.43,-1442.86"/>
<polygon fill="black" stroke="black" points="851.44,-1441.05 842.63,-1435.16 845.85,-1445.25 851.44,-1441.05"/>
<text xml:space="preserve" text-anchor="middle" x="912.94" y="-1528.7" font-family="Helvetica,sans-Serif" font-size="14.00">No</text>
</g>
<!-- useCan2 -->
<g id="node30" class="node">
<title>useCan2</title>
<polygon fill="limegreen" stroke="black" points="900.84,-1141.75 816.51,-1123.75 900.84,-1105.75 985.16,-1123.75 900.84,-1141.75"/>
<text xml:space="preserve" text-anchor="middle" x="900.84" y="-1119.08" font-family="Helvetica,sans-Serif" font-size="14.00">Using can</text>
</g>
<!-- useCan2&#45;&gt;data -->
<g id="edge20" class="edge">
<title>useCan2&#45;&gt;data</title>
<path fill="none" stroke="black" d="M850.08,-1116.12C735.73,-1101.18 457.01,-1064.78 316.59,-1046.44"/>
<polygon fill="black" stroke="black" points="317.37,-1043.01 307,-1045.19 316.46,-1049.95 317.37,-1043.01"/>
<text xml:space="preserve" text-anchor="middle" x="637.92" y="-1074.45" font-family="Helvetica,sans-Serif" font-size="14.00">Yes</text>
</g>
<!-- processedAngles -->
<g id="node33" class="node">
<title>processedAngles</title>
<polygon fill="limegreen" stroke="black" points="828.84,-833.5 673.83,-815.5 828.84,-797.5 983.85,-815.5 828.84,-833.5"/>
<text xml:space="preserve" text-anchor="middle" x="828.84" y="-810.83" font-family="Helvetica,sans-Serif" font-size="14.00">Processed all angles</text>
</g>
<!-- useCan2&#45;&gt;processedAngles -->
<g id="edge19" class="edge">
<title>useCan2&#45;&gt;processedAngles</title>
<path fill="none" stroke="black" d="M905.94,-1106.53C910.95,-1089.15 917.84,-1060.65 917.84,-1035.5 917.84,-1035.5 917.84,-1035.5 917.84,-887.5 917.84,-863.36 897.57,-846.09 876.38,-834.63"/>
<polygon fill="black" stroke="black" points="878.19,-831.62 867.68,-830.29 875.07,-837.89 878.19,-831.62"/>
<text xml:space="preserve" text-anchor="middle" x="927.21" y="-956.83" font-family="Helvetica,sans-Serif" font-size="14.00">No</text>
</g>
<!-- useCan3&#45;&gt;data2 -->
<g id="edge33" class="edge">
<title>useCan3&#45;&gt;data2</title>
<path fill="none" stroke="black" d="M634.48,-635.22C635.09,-619.01 636.03,-594.31 636.75,-575.04"/>
<polygon fill="black" stroke="black" points="640.25,-575.23 637.13,-565.1 633.25,-574.96 640.25,-575.23"/>
<text xml:space="preserve" text-anchor="middle" x="647.68" y="-594.58" font-family="Helvetica,sans-Serif" font-size="14.00">Yes</text>
</g>
<!-- interpolate&#45;&gt;GroupWorkspaces -->
<g id="edge47" class="edge">
<title>interpolate&#45;&gt;GroupWorkspaces</title>
<path fill="none" stroke="black" d="M739.85,-236.81C750.76,-216.17 766.75,-178.43 758.84,-146 756.59,-136.77 752.46,-127.35 748.05,-119.02"/>
<polygon fill="black" stroke="black" points="751.17,-117.43 743.18,-110.47 745.08,-120.89 751.17,-117.43"/>
<text xml:space="preserve" text-anchor="middle" x="770.33" y="-159.32" font-family="Helvetica,sans-Serif" font-size="14.00">No</text>
</g>
<!-- interpolate&#45;&gt;SplineInterpolation -->
<g id="edge45" class="edge">
<title>interpolate&#45;&gt;SplineInterpolation</title>
<path fill="none" stroke="black" d="M721.26,-237.05C713.46,-224.68 702.25,-206.89 692.91,-192.09"/>
<polygon fill="black" stroke="black" points="695.92,-190.29 687.63,-183.7 690,-194.03 695.92,-190.29"/>
<text xml:space="preserve" text-anchor="middle" x="719.51" y="-203.95" font-family="Helvetica,sans-Serif" font-size="14.00">Yes</text>
</g>
<!-- processedAngles&#45;&gt;Angles -->
<g id="edge28" class="edge">
<title>processedAngles&#45;&gt;Angles</title>
<path fill="none" stroke="black" d="M886.55,-827.3C940.51,-839.09 1012.84,-860.02 1012.84,-887.5 1012.84,-1270.75 1012.84,-1270.75 1012.84,-1270.75 1012.84,-1299.5 934,-1320.97 879.26,-1332.41"/>
<polygon fill="black" stroke="black" points="878.57,-1328.98 869.46,-1334.4 879.96,-1335.84 878.57,-1328.98"/>
<text xml:space="preserve" text-anchor="middle" x="1022.21" y="-1074.45" font-family="Helvetica,sans-Serif" font-size="14.00">No</text>
</g>
<!-- processedAngles&#45;&gt;data1 -->
<g id="edge29" class="edge">
<title>processedAngles&#45;&gt;data1</title>
<path fill="none" stroke="black" d="M785.89,-802.09C733.95,-787.09 646.2,-761.73 587.4,-744.75"/>
<polygon fill="black" stroke="black" points="588.45,-741.41 577.87,-741.99 586.5,-748.13 588.45,-741.41"/>
<text xml:space="preserve" text-anchor="middle" x="716.14" y="-766.2" font-family="Helvetica,sans-Serif" font-size="14.00">Yes</text>
</g>
<!-- detAngles&#45;&gt;Angles -->
<g id="edge11" class="edge">
<title>detAngles&#45;&gt;Angles</title>
<path fill="none" stroke="black" d="M827.84,-1397.56C827.84,-1389.98 827.84,-1380.85 827.84,-1372.29"/>
<polygon fill="black" stroke="black" points="831.34,-1372.29 827.84,-1362.29 824.34,-1372.29 831.34,-1372.29"/>
</g>
<!-- flatAbs&#45;&gt;data -->
<g id="edge17" class="edge">
<title>flatAbs&#45;&gt;data</title>
<path fill="none" stroke="black" d="M486.8,-1178.3C434.4,-1148.83 328.55,-1089.32 271.45,-1057.21"/>
<polygon fill="black" stroke="black" points="273.46,-1054.33 263.03,-1052.48 270.03,-1060.43 273.46,-1054.33"/>
</g>
<!-- flatAbs&#45;&gt;useCan2 -->
<g id="edge18" class="edge">
<title>flatAbs&#45;&gt;useCan2</title>
<path fill="none" stroke="black" d="M612.02,-1178.29C685.37,-1164.69 784.66,-1146.29 845.65,-1134.98"/>
<polygon fill="black" stroke="black" points="846.26,-1138.43 855.46,-1133.16 844.99,-1131.54 846.26,-1138.43"/>
</g>
<!-- flatAbsCan&#45;&gt;data1 -->
<g id="edge25" class="edge">
<title>flatAbsCan&#45;&gt;data1</title>
<path fill="none" stroke="black" d="M526.84,-870.05C526.84,-842.59 526.84,-789.04 526.84,-755.89"/>
<polygon fill="black" stroke="black" points="530.34,-756.2 526.84,-746.2 523.34,-756.2 530.34,-756.2"/>
</g>
<!-- flatAbsCan&#45;&gt;processedAngles -->
<g id="edge26" class="edge">
<title>flatAbsCan&#45;&gt;processedAngles</title>
<path fill="none" stroke="black" d="M601.1,-870.04C652.52,-857.95 720.1,-842.06 768.26,-830.74"/>
<polygon fill="black" stroke="black" points="769.04,-834.15 777.98,-828.46 767.44,-827.34 769.04,-834.15"/>
</g>
<!-- CurrentAngle&#45;&gt;flatAbs -->
<g id="edge13" class="edge">
<title>CurrentAngle&#45;&gt;flatAbs</title>
<path fill="none" stroke="black" d="M615.25,-1252.64C598.46,-1243.18 576.97,-1231.07 558.45,-1220.64"/>
<polygon fill="black" stroke="black" points="560.27,-1217.64 549.84,-1215.78 556.83,-1223.74 560.27,-1217.64"/>
</g>
<!-- data_x&#45;&gt;CreateWorkspace -->
<g id="edge41" class="edge">
<title>data_x&#45;&gt;CreateWorkspace</title>
<path fill="none" stroke="black" d="M867.9,-460.24C861.59,-458.2 855.02,-456.12 848.84,-454.25 810.17,-442.55 766.89,-430.42 731.03,-420.62"/>
<polygon fill="black" stroke="black" points="732.19,-417.3 721.62,-418.05 730.35,-424.06 732.19,-417.3"/>
</g>
<!-- samplelogs -->
<g id="node39" class="node">
<title>samplelogs</title>
<ellipse fill="lightgrey" stroke="black" cx="807.84" cy="-399.25" rx="66.47" ry="18"/>
<text xml:space="preserve" text-anchor="middle" x="807.84" y="-394.57" font-family="Helvetica,sans-Serif" font-size="14.00">samplelogs</text>
</g>
<!-- samplelogs&#45;&gt;AddSampleLog -->
<g id="edge43" class="edge">
<title>samplelogs&#45;&gt;AddSampleLog</title>
<path fill="none" stroke="black" d="M789.98,-381.78C780.44,-372.99 768.51,-361.99 757.87,-352.17"/>
<polygon fill="black" stroke="black" points="760.51,-349.85 750.79,-345.64 755.77,-355 760.51,-349.85"/>
</g>
</g>
</svg>
