<?xml version="1.0" encoding="UTF-8" standalone="no"?>
<!DOCTYPE svg PUBLIC "-//W3C//DTD SVG 1.1//EN"
 "http://www.w3.org/Graphics/SVG/1.1/DTD/svg11.dtd">
<!-- Generated by graphviz version 7.0.5 (20221231.0122)
 -->
<!-- Title: FlatPlatePaalmanPingsCorrection Pages: 1 -->
<svg width="1251pt" height="1851pt"
 viewBox="0.00 0.00 1251.09 1851.00" xmlns="http://www.w3.org/2000/svg" xmlns:xlink="http://www.w3.org/1999/xlink">
<g id="graph0" class="graph" transform="scale(1 1) rotate(0) translate(4 1847)">
<title>FlatPlatePaalmanPingsCorrection</title>
<polygon fill="white" stroke="none" points="-4,4 -4,-1847 1247.09,-1847 1247.09,4 -4,4"/>
<text text-anchor="middle" x="621.54" y="-1827.8" font-family="Helvetica,sans-Serif" font-size="14.00">FlatPlatePaalmanPingsCorrection Flowchart</text>
<!-- SampleWorkspace -->
<g id="node1" class="node">
<title>SampleWorkspace</title>
<ellipse fill="khaki" stroke="black" cx="639.05" cy="-1802" rx="93.68" ry="18"/>
<text text-anchor="middle" x="639.05" y="-1798.3" font-family="Helvetica,sans-Serif" font-size="14.00">SampleWorkspace</text>
</g>
<!-- SetSampleMaterial -->
<g id="node23" class="node">
<title>SetSampleMaterial</title>
<path fill="lightskyblue" stroke="black" d="M934.05,-1747C934.05,-1747 812.05,-1747 812.05,-1747 806.05,-1747 800.05,-1741 800.05,-1735 800.05,-1735 800.05,-1723 800.05,-1723 800.05,-1717 806.05,-1711 812.05,-1711 812.05,-1711 934.05,-1711 934.05,-1711 940.05,-1711 946.05,-1717 946.05,-1723 946.05,-1723 946.05,-1735 946.05,-1735 946.05,-1741 940.05,-1747 934.05,-1747"/>
<text text-anchor="middle" x="873.05" y="-1725.3" font-family="Helvetica,sans-Serif" font-size="14.00">SetSampleMaterial</text>
</g>
<!-- SampleWorkspace&#45;&gt;SetSampleMaterial -->
<g id="edge1" class="edge">
<title>SampleWorkspace&#45;&gt;SetSampleMaterial</title>
<path fill="none" stroke="black" d="M687.81,-1786.2C721.71,-1775.92 767.34,-1762.07 804.83,-1750.7"/>
<polygon fill="black" stroke="black" points="805.67,-1754.1 814.22,-1747.85 803.64,-1747.4 805.67,-1754.1"/>
</g>
<!-- SampleChemicalFormula -->
<g id="node2" class="node">
<title>SampleChemicalFormula</title>
<ellipse fill="khaki" stroke="black" cx="873.05" cy="-1802" rx="122.38" ry="18"/>
<text text-anchor="middle" x="873.05" y="-1798.3" font-family="Helvetica,sans-Serif" font-size="14.00">SampleChemicalFormula</text>
</g>
<!-- SampleChemicalFormula&#45;&gt;SetSampleMaterial -->
<g id="edge2" class="edge">
<title>SampleChemicalFormula&#45;&gt;SetSampleMaterial</title>
<path fill="none" stroke="black" d="M873.05,-1783.81C873.05,-1776.23 873.05,-1767.1 873.05,-1758.54"/>
<polygon fill="black" stroke="black" points="876.55,-1758.54 873.05,-1748.54 869.55,-1758.54 876.55,-1758.54"/>
</g>
<!-- SampleNumberDensity -->
<g id="node3" class="node">
<title>SampleNumberDensity</title>
<ellipse fill="khaki" stroke="black" cx="1128.05" cy="-1802" rx="115.08" ry="18"/>
<text text-anchor="middle" x="1128.05" y="-1798.3" font-family="Helvetica,sans-Serif" font-size="14.00">SampleNumberDensity</text>
</g>
<!-- SampleNumberDensity&#45;&gt;SetSampleMaterial -->
<g id="edge3" class="edge">
<title>SampleNumberDensity&#45;&gt;SetSampleMaterial</title>
<path fill="none" stroke="black" d="M1073.34,-1785.77C1036.34,-1775.47 987.05,-1761.74 946.62,-1750.48"/>
<polygon fill="black" stroke="black" points="947.77,-1747.17 937.19,-1747.86 945.89,-1753.92 947.77,-1747.17"/>
</g>
<!-- SampleNumberDensity2 -->
<g id="node4" class="node">
<title>SampleNumberDensity2</title>
<ellipse fill="khaki" stroke="black" cx="860.05" cy="-1263" rx="115.08" ry="18"/>
<text text-anchor="middle" x="860.05" y="-1259.3" font-family="Helvetica,sans-Serif" font-size="14.00">SampleNumberDensity</text>
</g>
<!-- flatAbs -->
<g id="node35" class="node">
<title>flatAbs</title>
<polygon fill="lightseagreen" stroke="black" points="760.55,-1208 317.55,-1208 317.55,-1172 760.55,-1172 760.55,-1208"/>
<text text-anchor="middle" x="539.05" y="-1186.3" font-family="Helvetica,sans-Serif" font-size="14.00">flat_abs: Mathematically calculates the flat absorption factors</text>
</g>
<!-- SampleNumberDensity2&#45;&gt;flatAbs -->
<g id="edge15" class="edge">
<title>SampleNumberDensity2&#45;&gt;flatAbs</title>
<path fill="none" stroke="black" d="M795.47,-1247.72C747.7,-1237.15 682.02,-1222.62 629.09,-1210.92"/>
<polygon fill="black" stroke="black" points="630,-1207.53 619.48,-1208.79 628.48,-1214.37 630,-1207.53"/>
</g>
<!-- SampleThickness -->
<g id="node5" class="node">
<title>SampleThickness</title>
<ellipse fill="khaki" stroke="black" cx="322.05" cy="-1263" rx="89.08" ry="18"/>
<text text-anchor="middle" x="322.05" y="-1259.3" font-family="Helvetica,sans-Serif" font-size="14.00">SampleThickness</text>
</g>
<!-- SampleThickness&#45;&gt;flatAbs -->
<g id="edge14" class="edge">
<title>SampleThickness&#45;&gt;flatAbs</title>
<path fill="none" stroke="black" d="M367.54,-1247.12C398.6,-1236.95 440.21,-1223.34 474.66,-1212.07"/>
<polygon fill="black" stroke="black" points="475.72,-1215.4 484.14,-1208.97 473.54,-1208.75 475.72,-1215.4"/>
</g>
<!-- SampleAngle -->
<g id="node6" class="node">
<title>SampleAngle</title>
<ellipse fill="khaki" stroke="black" cx="499.05" cy="-1263" rx="70.39" ry="18"/>
<text text-anchor="middle" x="499.05" y="-1259.3" font-family="Helvetica,sans-Serif" font-size="14.00">SampleAngle</text>
</g>
<!-- SampleAngle&#45;&gt;flatAbs -->
<g id="edge16" class="edge">
<title>SampleAngle&#45;&gt;flatAbs</title>
<path fill="none" stroke="black" d="M508.73,-1244.81C513.3,-1236.7 518.86,-1226.84 523.96,-1217.78"/>
<polygon fill="black" stroke="black" points="526.85,-1219.78 528.71,-1209.35 520.75,-1216.34 526.85,-1219.78"/>
</g>
<!-- CanWorkspace -->
<g id="node7" class="node">
<title>CanWorkspace</title>
<ellipse fill="khaki" stroke="black" cx="820.05" cy="-1569" rx="77.19" ry="18"/>
<text text-anchor="middle" x="820.05" y="-1565.3" font-family="Helvetica,sans-Serif" font-size="14.00">CanWorkspace</text>
</g>
<!-- SetSampleMaterial2 -->
<g id="node24" class="node">
<title>SetSampleMaterial2</title>
<path fill="lightskyblue" stroke="black" d="M742.05,-1500C742.05,-1500 620.05,-1500 620.05,-1500 614.05,-1500 608.05,-1494 608.05,-1488 608.05,-1488 608.05,-1476 608.05,-1476 608.05,-1470 614.05,-1464 620.05,-1464 620.05,-1464 742.05,-1464 742.05,-1464 748.05,-1464 754.05,-1470 754.05,-1476 754.05,-1476 754.05,-1488 754.05,-1488 754.05,-1494 748.05,-1500 742.05,-1500"/>
<text text-anchor="middle" x="681.05" y="-1478.3" font-family="Helvetica,sans-Serif" font-size="14.00">SetSampleMaterial</text>
</g>
<!-- CanWorkspace&#45;&gt;SetSampleMaterial2 -->
<g id="edge6" class="edge">
<title>CanWorkspace&#45;&gt;SetSampleMaterial2</title>
<path fill="none" stroke="black" d="M793.57,-1551.81C772.48,-1538.92 742.68,-1520.69 719.04,-1506.23"/>
<polygon fill="black" stroke="black" points="720.98,-1503.32 710.62,-1501.09 717.33,-1509.29 720.98,-1503.32"/>
</g>
<!-- CanChemicalFormula -->
<g id="node8" class="node">
<title>CanChemicalFormula</title>
<ellipse fill="khaki" stroke="black" cx="403.05" cy="-1569" rx="105.88" ry="18"/>
<text text-anchor="middle" x="403.05" y="-1565.3" font-family="Helvetica,sans-Serif" font-size="14.00">CanChemicalFormula</text>
</g>
<!-- CanChemicalFormula&#45;&gt;SetSampleMaterial2 -->
<g id="edge7" class="edge">
<title>CanChemicalFormula&#45;&gt;SetSampleMaterial2</title>
<path fill="none" stroke="black" d="M453.07,-1552.71C497.83,-1539.02 563.83,-1518.84 613.31,-1503.71"/>
<polygon fill="black" stroke="black" points="614.25,-1507.08 622.79,-1500.81 612.21,-1500.39 614.25,-1507.08"/>
</g>
<!-- CanNumberDensity -->
<g id="node9" class="node">
<title>CanNumberDensity</title>
<ellipse fill="khaki" stroke="black" cx="626.05" cy="-1569" rx="98.58" ry="18"/>
<text text-anchor="middle" x="626.05" y="-1565.3" font-family="Helvetica,sans-Serif" font-size="14.00">CanNumberDensity</text>
</g>
<!-- CanNumberDensity&#45;&gt;SetSampleMaterial2 -->
<g id="edge8" class="edge">
<title>CanNumberDensity&#45;&gt;SetSampleMaterial2</title>
<path fill="none" stroke="black" d="M637.18,-1550.8C644.73,-1539.12 654.87,-1523.45 663.51,-1510.11"/>
<polygon fill="black" stroke="black" points="666.43,-1512.04 668.92,-1501.74 660.55,-1508.23 666.43,-1512.04"/>
</g>
<!-- CanFrontThickness -->
<g id="node10" class="node">
<title>CanFrontThickness</title>
<ellipse fill="khaki" stroke="black" cx="623.05" cy="-957" rx="95.58" ry="18"/>
<text text-anchor="middle" x="623.05" y="-953.3" font-family="Helvetica,sans-Serif" font-size="14.00">CanFrontThickness</text>
</g>
<!-- flatAbsCan -->
<g id="node36" class="node">
<title>flatAbsCan</title>
<polygon fill="lightseagreen" stroke="black" points="882.05,-902 156.05,-902 156.05,-866 882.05,-866 882.05,-902"/>
<text text-anchor="middle" x="519.05" y="-880.3" font-family="Helvetica,sans-Serif" font-size="14.00">calculate_can: Re&#45;calculate the assc, acsc and acc data taking into account the contribution of the can</text>
</g>
<!-- CanFrontThickness&#45;&gt;flatAbsCan -->
<g id="edge23" class="edge">
<title>CanFrontThickness&#45;&gt;flatAbsCan</title>
<path fill="none" stroke="black" d="M598.4,-939.17C585.1,-930.09 568.45,-918.73 553.85,-908.76"/>
<polygon fill="black" stroke="black" points="556.08,-906.05 545.85,-903.3 552.14,-911.83 556.08,-906.05"/>
</g>
<!-- CanBackThickness -->
<g id="node11" class="node">
<title>CanBackThickness</title>
<ellipse fill="khaki" stroke="black" cx="415.05" cy="-957" rx="94.78" ry="18"/>
<text text-anchor="middle" x="415.05" y="-953.3" font-family="Helvetica,sans-Serif" font-size="14.00">CanBackThickness</text>
</g>
<!-- CanBackThickness&#45;&gt;flatAbsCan -->
<g id="edge24" class="edge">
<title>CanBackThickness&#45;&gt;flatAbsCan</title>
<path fill="none" stroke="black" d="M439.69,-939.17C453,-930.09 469.64,-918.73 484.24,-908.76"/>
<polygon fill="black" stroke="black" points="485.95,-911.83 492.24,-903.3 482.01,-906.05 485.95,-911.83"/>
</g>
<!-- OutputWorkspace -->
<g id="node12" class="node">
<title>OutputWorkspace</title>
<ellipse fill="khaki" stroke="black" cx="744.05" cy="-18" rx="91.78" ry="18"/>
<text text-anchor="middle" x="744.05" y="-14.3" font-family="Helvetica,sans-Serif" font-size="14.00">OutputWorkspace</text>
</g>
<!-- Angles -->
<g id="node13" class="node">
<title>Angles</title>
<ellipse fill="khaki" stroke="black" cx="830.05" cy="-1336" rx="41.69" ry="18"/>
<text text-anchor="middle" x="830.05" y="-1332.3" font-family="Helvetica,sans-Serif" font-size="14.00">Angles</text>
</g>
<!-- CurrentAngle -->
<g id="node37" class="node">
<title>CurrentAngle</title>
<ellipse fill="lightgrey" stroke="black" cx="657.05" cy="-1263" rx="70.39" ry="18"/>
<text text-anchor="middle" x="657.05" y="-1259.3" font-family="Helvetica,sans-Serif" font-size="14.00">CurrentAngle</text>
</g>
<!-- Angles&#45;&gt;CurrentAngle -->
<g id="edge12" class="edge">
<title>Angles&#45;&gt;CurrentAngle</title>
<path fill="none" stroke="black" d="M800.7,-1322.96C774.14,-1312.06 734.57,-1295.81 703.68,-1283.14"/>
<polygon fill="black" stroke="black" points="705.13,-1279.95 694.55,-1279.39 702.47,-1286.43 705.13,-1279.95"/>
</g>
<!-- Waves -->
<g id="node14" class="node">
<title>Waves</title>
<ellipse fill="khaki" stroke="black" cx="871.05" cy="-543" rx="40.09" ry="18"/>
<text text-anchor="middle" x="871.05" y="-539.3" font-family="Helvetica,sans-Serif" font-size="14.00">Waves</text>
</g>
<!-- data_x -->
<g id="node38" class="node">
<title>data_x</title>
<ellipse fill="lightgrey" stroke="black" cx="871.05" cy="-470" rx="40.09" ry="18"/>
<text text-anchor="middle" x="871.05" y="-466.3" font-family="Helvetica,sans-Serif" font-size="14.00">data_x</text>
</g>
<!-- Waves&#45;&gt;data_x -->
<g id="edge32" class="edge">
<title>Waves&#45;&gt;data_x</title>
<path fill="none" stroke="black" d="M871.05,-524.81C871.05,-517.23 871.05,-508.1 871.05,-499.54"/>
<polygon fill="black" stroke="black" points="874.55,-499.54 871.05,-489.54 867.55,-499.54 874.55,-499.54"/>
</g>
<!-- data -->
<g id="node15" class="node">
<title>data</title>
<ellipse fill="khaki" stroke="black" cx="212.05" cy="-1030" rx="81.79" ry="18"/>
<text text-anchor="middle" x="212.05" y="-1026.3" font-family="Helvetica,sans-Serif" font-size="14.00">absorption data</text>
</g>
<!-- data1 -->
<g id="node16" class="node">
<title>data1</title>
<ellipse fill="khaki" stroke="black" cx="519.05" cy="-724" rx="81.79" ry="18"/>
<text text-anchor="middle" x="519.05" y="-720.3" font-family="Helvetica,sans-Serif" font-size="14.00">absorption data</text>
</g>
<!-- data&#45;&gt;data1 -->
<g id="edge27" class="edge">
<title>data&#45;&gt;data1</title>
<path fill="none" stroke="black" d="M173.49,-1013.69C151.41,-1002.11 128.05,-983.78 128.05,-958 128.05,-958 128.05,-958 128.05,-810 128.05,-749.24 310.6,-731.83 426.24,-726.89"/>
<polygon fill="black" stroke="black" points="426.19,-730.4 436.04,-726.5 425.91,-723.4 426.19,-730.4"/>
</g>
<!-- data_ass -->
<g id="node18" class="node">
<title>data_ass</title>
<ellipse fill="khaki" stroke="black" cx="50.05" cy="-957" rx="50.09" ry="18"/>
<text text-anchor="middle" x="50.05" y="-953.3" font-family="Helvetica,sans-Serif" font-size="14.00">data_ass</text>
</g>
<!-- data&#45;&gt;data_ass -->
<g id="edge21" class="edge">
<title>data&#45;&gt;data_ass</title>
<path fill="none" stroke="black" d="M167.02,-1014.71C150.15,-1008.89 130.98,-1001.72 114.05,-994 104.16,-989.5 93.77,-984 84.3,-978.68"/>
<polygon fill="black" stroke="black" points="86.19,-975.72 75.77,-973.77 82.7,-981.79 86.19,-975.72"/>
</g>
<!-- data_ass1 -->
<g id="node19" class="node">
<title>data_ass1</title>
<ellipse fill="khaki" stroke="black" cx="455.05" cy="-597" rx="50.09" ry="18"/>
<text text-anchor="middle" x="455.05" y="-593.3" font-family="Helvetica,sans-Serif" font-size="14.00">data_ass</text>
</g>
<!-- data1&#45;&gt;data_ass1 -->
<g id="edge30" class="edge">
<title>data1&#45;&gt;data_ass1</title>
<path fill="none" stroke="black" d="M510.15,-705.62C499.44,-684.7 481.33,-649.34 468.81,-624.89"/>
<polygon fill="black" stroke="black" points="472.03,-623.49 464.35,-616.18 465.8,-626.68 472.03,-623.49"/>
</g>
<!-- useCan3 -->
<g id="node31" class="node">
<title>useCan3</title>
<polygon fill="limegreen" stroke="black" points="620.05,-669 540.95,-651 620.05,-633 699.14,-651 620.05,-669"/>
<text text-anchor="middle" x="620.05" y="-647.3" font-family="Helvetica,sans-Serif" font-size="14.00">Using can</text>
</g>
<!-- data1&#45;&gt;useCan3 -->
<g id="edge31" class="edge">
<title>data1&#45;&gt;useCan3</title>
<path fill="none" stroke="black" d="M542.73,-706.35C557.5,-695.97 576.59,-682.55 592.11,-671.64"/>
<polygon fill="black" stroke="black" points="593.83,-674.71 599.99,-666.1 589.8,-668.98 593.83,-674.71"/>
</g>
<!-- data2 -->
<g id="node17" class="node">
<title>data2</title>
<ellipse fill="khaki" stroke="black" cx="624.05" cy="-543" rx="81.79" ry="18"/>
<text text-anchor="middle" x="624.05" y="-539.3" font-family="Helvetica,sans-Serif" font-size="14.00">absorption data</text>
</g>
<!-- data_assc -->
<g id="node20" class="node">
<title>data_assc</title>
<ellipse fill="khaki" stroke="black" cx="512.05" cy="-470" rx="55.49" ry="18"/>
<text text-anchor="middle" x="512.05" y="-466.3" font-family="Helvetica,sans-Serif" font-size="14.00">data_assc</text>
</g>
<!-- data2&#45;&gt;data_assc -->
<g id="edge34" class="edge">
<title>data2&#45;&gt;data_assc</title>
<path fill="none" stroke="black" d="M598.07,-525.53C582.51,-515.67 562.56,-503.03 545.8,-492.4"/>
<polygon fill="black" stroke="black" points="547.95,-489.61 537.63,-487.22 544.2,-495.53 547.95,-489.61"/>
</g>
<!-- data_acsc -->
<g id="node21" class="node">
<title>data_acsc</title>
<ellipse fill="khaki" stroke="black" cx="640.05" cy="-470" rx="55.49" ry="18"/>
<text text-anchor="middle" x="640.05" y="-466.3" font-family="Helvetica,sans-Serif" font-size="14.00">data_acsc</text>
</g>
<!-- data2&#45;&gt;data_acsc -->
<g id="edge35" class="edge">
<title>data2&#45;&gt;data_acsc</title>
<path fill="none" stroke="black" d="M627.92,-524.81C629.65,-517.14 631.73,-507.89 633.68,-499.24"/>
<polygon fill="black" stroke="black" points="637.09,-500.03 635.88,-489.51 630.26,-498.49 637.09,-500.03"/>
</g>
<!-- data_acc -->
<g id="node22" class="node">
<title>data_acc</title>
<ellipse fill="khaki" stroke="black" cx="763.05" cy="-470" rx="50.09" ry="18"/>
<text text-anchor="middle" x="763.05" y="-466.3" font-family="Helvetica,sans-Serif" font-size="14.00">data_acc</text>
</g>
<!-- data2&#45;&gt;data_acc -->
<g id="edge36" class="edge">
<title>data2&#45;&gt;data_acc</title>
<path fill="none" stroke="black" d="M655.24,-526.07C675.97,-515.48 703.31,-501.51 725.27,-490.29"/>
<polygon fill="black" stroke="black" points="726.59,-493.55 733.91,-485.88 723.41,-487.32 726.59,-493.55"/>
</g>
<!-- data_ass&#45;&gt;flatAbsCan -->
<g id="edge22" class="edge">
<title>data_ass&#45;&gt;flatAbsCan</title>
<path fill="none" stroke="black" d="M95.44,-949.13C163.4,-938.84 294.09,-919.06 392.42,-904.17"/>
<polygon fill="black" stroke="black" points="392.78,-907.65 402.14,-902.7 391.73,-900.73 392.78,-907.65"/>
</g>
<!-- CreateWorkspace -->
<g id="node25" class="node">
<title>CreateWorkspace</title>
<path fill="lightskyblue" stroke="black" d="M696.55,-415C696.55,-415 583.55,-415 583.55,-415 577.55,-415 571.55,-409 571.55,-403 571.55,-403 571.55,-391 571.55,-391 571.55,-385 577.55,-379 583.55,-379 583.55,-379 696.55,-379 696.55,-379 702.55,-379 708.55,-385 708.55,-391 708.55,-391 708.55,-403 708.55,-403 708.55,-409 702.55,-415 696.55,-415"/>
<text text-anchor="middle" x="640.05" y="-393.3" font-family="Helvetica,sans-Serif" font-size="14.00">CreateWorkspace</text>
</g>
<!-- data_ass1&#45;&gt;CreateWorkspace -->
<g id="edge40" class="edge">
<title>data_ass1&#45;&gt;CreateWorkspace</title>
<path fill="none" stroke="black" d="M447.81,-578.86C436.73,-549.59 419.63,-489.51 448.05,-452 462,-433.58 513.61,-419.68 559.81,-410.61"/>
<polygon fill="black" stroke="black" points="560.45,-414.05 569.62,-408.74 559.14,-407.17 560.45,-414.05"/>
</g>
<!-- data_assc&#45;&gt;CreateWorkspace -->
<g id="edge37" class="edge">
<title>data_assc&#45;&gt;CreateWorkspace</title>
<path fill="none" stroke="black" d="M539.19,-453.94C556.56,-444.31 579.43,-431.62 599,-420.77"/>
<polygon fill="black" stroke="black" points="600.52,-423.93 607.56,-416.02 597.12,-417.81 600.52,-423.93"/>
</g>
<!-- data_acsc&#45;&gt;CreateWorkspace -->
<g id="edge38" class="edge">
<title>data_acsc&#45;&gt;CreateWorkspace</title>
<path fill="none" stroke="black" d="M640.05,-451.81C640.05,-444.23 640.05,-435.1 640.05,-426.54"/>
<polygon fill="black" stroke="black" points="643.55,-426.54 640.05,-416.54 636.55,-426.54 643.55,-426.54"/>
</g>
<!-- data_acc&#45;&gt;CreateWorkspace -->
<g id="edge39" class="edge">
<title>data_acc&#45;&gt;CreateWorkspace</title>
<path fill="none" stroke="black" d="M737.26,-454.12C720.66,-444.53 698.75,-431.89 679.93,-421.02"/>
<polygon fill="black" stroke="black" points="681.85,-418.09 671.44,-416.12 678.35,-424.15 681.85,-418.09"/>
</g>
<!-- useCan -->
<g id="node29" class="node">
<title>useCan</title>
<polygon fill="limegreen" stroke="black" points="873.05,-1674 793.95,-1656 873.05,-1638 952.14,-1656 873.05,-1674"/>
<text text-anchor="middle" x="873.05" y="-1652.3" font-family="Helvetica,sans-Serif" font-size="14.00">Using can</text>
</g>
<!-- SetSampleMaterial&#45;&gt;useCan -->
<g id="edge4" class="edge">
<title>SetSampleMaterial&#45;&gt;useCan</title>
<path fill="none" stroke="black" d="M873.05,-1710.81C873.05,-1703.23 873.05,-1694.1 873.05,-1685.54"/>
<polygon fill="black" stroke="black" points="876.55,-1685.54 873.05,-1675.54 869.55,-1685.54 876.55,-1685.54"/>
</g>
<!-- detAngles -->
<g id="node34" class="node">
<title>detAngles</title>
<polygon fill="lightseagreen" stroke="black" points="1073.55,-1427 586.55,-1427 586.55,-1391 1073.55,-1391 1073.55,-1427"/>
<text text-anchor="middle" x="830.05" y="-1405.3" font-family="Helvetica,sans-Serif" font-size="14.00">get_angles: Determine detector angles based on sample workspace</text>
</g>
<!-- SetSampleMaterial2&#45;&gt;detAngles -->
<g id="edge9" class="edge">
<title>SetSampleMaterial2&#45;&gt;detAngles</title>
<path fill="none" stroke="black" d="M717.5,-1463.63C737.34,-1454.18 762.1,-1442.38 783.35,-1432.25"/>
<polygon fill="black" stroke="black" points="784.57,-1435.55 792.09,-1428.09 781.56,-1429.23 784.57,-1435.55"/>
</g>
<!-- AddSampleLog -->
<g id="node26" class="node">
<title>AddSampleLog</title>
<path fill="lightskyblue" stroke="black" d="M792.05,-342C792.05,-342 696.05,-342 696.05,-342 690.05,-342 684.05,-336 684.05,-330 684.05,-330 684.05,-318 684.05,-318 684.05,-312 690.05,-306 696.05,-306 696.05,-306 792.05,-306 792.05,-306 798.05,-306 804.05,-312 804.05,-318 804.05,-318 804.05,-330 804.05,-330 804.05,-336 798.05,-342 792.05,-342"/>
<text text-anchor="middle" x="744.05" y="-320.3" font-family="Helvetica,sans-Serif" font-size="14.00">AddSampleLog</text>
</g>
<!-- CreateWorkspace&#45;&gt;AddSampleLog -->
<g id="edge42" class="edge">
<title>CreateWorkspace&#45;&gt;AddSampleLog</title>
<path fill="none" stroke="black" d="M665.49,-378.63C678.58,-369.69 694.75,-358.66 709,-348.92"/>
<polygon fill="black" stroke="black" points="710.97,-351.82 717.26,-343.29 707.02,-346.04 710.97,-351.82"/>
</g>
<!-- interpolate -->
<g id="node32" class="node">
<title>interpolate</title>
<polygon fill="limegreen" stroke="black" points="744.05,-269 659.42,-251 744.05,-233 828.67,-251 744.05,-269"/>
<text text-anchor="middle" x="744.05" y="-247.3" font-family="Helvetica,sans-Serif" font-size="14.00">Interpolate</text>
</g>
<!-- AddSampleLog&#45;&gt;interpolate -->
<g id="edge44" class="edge">
<title>AddSampleLog&#45;&gt;interpolate</title>
<path fill="none" stroke="black" d="M744.05,-305.81C744.05,-298.23 744.05,-289.1 744.05,-280.54"/>
<polygon fill="black" stroke="black" points="747.55,-280.54 744.05,-270.54 740.55,-280.54 747.55,-280.54"/>
</g>
<!-- GroupWorkspaces -->
<g id="node27" class="node">
<title>GroupWorkspaces</title>
<path fill="lightskyblue" stroke="black" d="M803.05,-109C803.05,-109 685.05,-109 685.05,-109 679.05,-109 673.05,-103 673.05,-97 673.05,-97 673.05,-85 673.05,-85 673.05,-79 679.05,-73 685.05,-73 685.05,-73 803.05,-73 803.05,-73 809.05,-73 815.05,-79 815.05,-85 815.05,-85 815.05,-97 815.05,-97 815.05,-103 809.05,-109 803.05,-109"/>
<text text-anchor="middle" x="744.05" y="-87.3" font-family="Helvetica,sans-Serif" font-size="14.00">GroupWorkspaces</text>
</g>
<!-- GroupWorkspaces&#45;&gt;OutputWorkspace -->
<g id="edge48" class="edge">
<title>GroupWorkspaces&#45;&gt;OutputWorkspace</title>
<path fill="none" stroke="black" d="M744.05,-72.81C744.05,-65.23 744.05,-56.1 744.05,-47.54"/>
<polygon fill="black" stroke="black" points="747.55,-47.54 744.05,-37.54 740.55,-47.54 747.55,-47.54"/>
</g>
<!-- SplineInterpolation -->
<g id="node28" class="node">
<title>SplineInterpolation</title>
<path fill="lightskyblue" stroke="black" d="M751.05,-182C751.05,-182 627.05,-182 627.05,-182 621.05,-182 615.05,-176 615.05,-170 615.05,-170 615.05,-158 615.05,-158 615.05,-152 621.05,-146 627.05,-146 627.05,-146 751.05,-146 751.05,-146 757.05,-146 763.05,-152 763.05,-158 763.05,-158 763.05,-170 763.05,-170 763.05,-176 757.05,-182 751.05,-182"/>
<text text-anchor="middle" x="689.05" y="-160.3" font-family="Helvetica,sans-Serif" font-size="14.00">SplineInterpolation</text>
</g>
<!-- SplineInterpolation&#45;&gt;GroupWorkspaces -->
<g id="edge46" class="edge">
<title>SplineInterpolation&#45;&gt;GroupWorkspaces</title>
<path fill="none" stroke="black" d="M702.36,-145.81C708.85,-137.44 716.78,-127.2 723.98,-117.9"/>
<polygon fill="black" stroke="black" points="726.57,-120.27 729.93,-110.23 721.04,-115.99 726.57,-120.27"/>
</g>
<!-- useCan&#45;&gt;CanWorkspace -->
<g id="edge5" class="edge">
<title>useCan&#45;&gt;CanWorkspace</title>
<path fill="none" stroke="black" d="M863.57,-1639.8C856.14,-1627.89 845.62,-1611.02 836.78,-1596.84"/>
<polygon fill="black" stroke="black" points="839.78,-1595.03 831.51,-1588.39 833.84,-1598.73 839.78,-1595.03"/>
<text text-anchor="middle" x="861.55" y="-1608.8" font-family="Helvetica,sans-Serif" font-size="14.00">Yes</text>
</g>
<!-- useCan&#45;&gt;detAngles -->
<g id="edge10" class="edge">
<title>useCan&#45;&gt;detAngles</title>
<path fill="none" stroke="black" d="M882.91,-1639.81C890.92,-1626.5 901.61,-1606.31 906.05,-1587 909.63,-1571.41 909.96,-1566.51 906.05,-1551 895.2,-1508.01 868.39,-1463.89 849.7,-1436.71"/>
<polygon fill="black" stroke="black" points="852.71,-1434.9 844.1,-1428.73 846.99,-1438.93 852.71,-1434.9"/>
<text text-anchor="middle" x="910.55" y="-1521.8" font-family="Helvetica,sans-Serif" font-size="14.00">No</text>
</g>
<!-- useCan2 -->
<g id="node30" class="node">
<title>useCan2</title>
<polygon fill="limegreen" stroke="black" points="896.05,-1135 816.95,-1117 896.05,-1099 975.14,-1117 896.05,-1135"/>
<text text-anchor="middle" x="896.05" y="-1113.3" font-family="Helvetica,sans-Serif" font-size="14.00">Using can</text>
</g>
<!-- useCan2&#45;&gt;data -->
<g id="edge20" class="edge">
<title>useCan2&#45;&gt;data</title>
<path fill="none" stroke="black" d="M846.3,-1109.82C729.42,-1095.29 436.38,-1058.88 293.26,-1041.09"/>
<polygon fill="black" stroke="black" points="293.82,-1037.64 283.47,-1039.88 292.96,-1044.58 293.82,-1037.64"/>
<text text-anchor="middle" x="606.55" y="-1069.8" font-family="Helvetica,sans-Serif" font-size="14.00">Yes</text>
</g>
<!-- processedAngles -->
<g id="node33" class="node">
<title>processedAngles</title>
<polygon fill="limegreen" stroke="black" points="849.05,-829 704.93,-811 849.05,-793 993.16,-811 849.05,-829"/>
<text text-anchor="middle" x="849.05" y="-807.3" font-family="Helvetica,sans-Serif" font-size="14.00">Processed all angles</text>
</g>
<!-- useCan2&#45;&gt;processedAngles -->
<g id="edge19" class="edge">
<title>useCan2&#45;&gt;processedAngles</title>
<path fill="none" stroke="black" d="M900.4,-1099.52C904.51,-1082.49 910.05,-1055.08 910.05,-1031 910.05,-1031 910.05,-1031 910.05,-883 910.05,-863.08 896.06,-845.96 881.49,-833.53"/>
<polygon fill="black" stroke="black" points="883.66,-830.79 873.64,-827.34 879.33,-836.28 883.66,-830.79"/>
<text text-anchor="middle" x="919.55" y="-953.3" font-family="Helvetica,sans-Serif" font-size="14.00">No</text>
</g>
<!-- useCan3&#45;&gt;data2 -->
<g id="edge33" class="edge">
<title>useCan3&#45;&gt;data2</title>
<path fill="none" stroke="black" d="M620.69,-632.97C621.3,-616.76 622.23,-592.06 622.96,-572.79"/>
<polygon fill="black" stroke="black" points="626.45,-572.98 623.33,-562.85 619.46,-572.71 626.45,-572.98"/>
<text text-anchor="middle" x="634.55" y="-593.3" font-family="Helvetica,sans-Serif" font-size="14.00">Yes</text>
</g>
<!-- interpolate&#45;&gt;GroupWorkspaces -->
<g id="edge47" class="edge">
<title>interpolate&#45;&gt;GroupWorkspaces</title>
<path fill="none" stroke="black" d="M753.2,-234.55C764.05,-214.3 779.75,-177.61 772.05,-146 769.79,-136.77 765.66,-127.35 761.26,-119.02"/>
<polygon fill="black" stroke="black" points="764.38,-117.43 756.39,-110.47 758.29,-120.89 764.38,-117.43"/>
<text text-anchor="middle" x="784.55" y="-160.3" font-family="Helvetica,sans-Serif" font-size="14.00">No</text>
</g>
<!-- interpolate&#45;&gt;SplineInterpolation -->
<g id="edge45" class="edge">
<title>interpolate&#45;&gt;SplineInterpolation</title>
<path fill="none" stroke="black" d="M734.21,-234.8C726.48,-222.85 715.52,-205.91 706.33,-191.71"/>
<polygon fill="black" stroke="black" points="709.5,-190.17 701.13,-183.68 703.63,-193.98 709.5,-190.17"/>
<text text-anchor="middle" x="731.55" y="-203.8" font-family="Helvetica,sans-Serif" font-size="14.00">Yes</text>
</g>
<!-- processedAngles&#45;&gt;Angles -->
<g id="edge28" class="edge">
<title>processedAngles&#45;&gt;Angles</title>
<path fill="none" stroke="black" d="M927.85,-819.63C965.74,-828.13 1003.05,-845.9 1003.05,-883 1003.05,-1264 1003.05,-1264 1003.05,-1264 1003.05,-1316.52 933.97,-1331.01 883.11,-1334.57"/>
<polygon fill="black" stroke="black" points="883.22,-1331.06 873.44,-1335.12 883.62,-1338.05 883.22,-1331.06"/>
<text text-anchor="middle" x="1012.55" y="-1069.8" font-family="Helvetica,sans-Serif" font-size="14.00">No</text>
</g>
<!-- processedAngles&#45;&gt;data1 -->
<g id="edge29" class="edge">
<title>processedAngles&#45;&gt;data1</title>
<path fill="none" stroke="black" d="M803.51,-798.27C745.93,-783.44 646.51,-757.83 581.77,-741.16"/>
<polygon fill="black" stroke="black" points="582.93,-737.84 572.37,-738.73 581.18,-744.62 582.93,-737.84"/>
<text text-anchor="middle" x="715.55" y="-763.8" font-family="Helvetica,sans-Serif" font-size="14.00">Yes</text>
</g>
<!-- detAngles&#45;&gt;Angles -->
<g id="edge11" class="edge">
<title>detAngles&#45;&gt;Angles</title>
<path fill="none" stroke="black" d="M830.05,-1390.81C830.05,-1383.23 830.05,-1374.1 830.05,-1365.54"/>
<polygon fill="black" stroke="black" points="833.55,-1365.54 830.05,-1355.54 826.55,-1365.54 833.55,-1365.54"/>
</g>
<!-- flatAbs&#45;&gt;data -->
<g id="edge17" class="edge">
<title>flatAbs&#45;&gt;data</title>
<path fill="none" stroke="black" d="M503.12,-1171.64C442.45,-1142.33 319.99,-1083.15 254.93,-1051.72"/>
<polygon fill="black" stroke="black" points="256.51,-1048.6 245.98,-1047.4 253.46,-1054.9 256.51,-1048.6"/>
</g>
<!-- flatAbs&#45;&gt;useCan2 -->
<g id="edge18" class="edge">
<title>flatAbs&#45;&gt;useCan2</title>
<path fill="none" stroke="black" d="M626.83,-1171.54C695.02,-1157.98 787.25,-1139.64 844.13,-1128.32"/>
<polygon fill="black" stroke="black" points="844.76,-1131.77 853.88,-1126.39 843.39,-1124.9 844.76,-1131.77"/>
</g>
<!-- flatAbsCan&#45;&gt;data1 -->
<g id="edge25" class="edge">
<title>flatAbsCan&#45;&gt;data1</title>
<path fill="none" stroke="black" d="M519.05,-865.79C519.05,-838.84 519.05,-786.38 519.05,-753.67"/>
<polygon fill="black" stroke="black" points="522.55,-753.7 519.05,-743.7 515.55,-753.7 522.55,-753.7"/>
</g>
<!-- flatAbsCan&#45;&gt;processedAngles -->
<g id="edge26" class="edge">
<title>flatAbsCan&#45;&gt;processedAngles</title>
<path fill="none" stroke="black" d="M600.2,-865.54C657.8,-853.15 733.98,-836.76 786.8,-825.39"/>
<polygon fill="black" stroke="black" points="787.52,-828.82 796.56,-823.29 786.05,-821.97 787.52,-828.82"/>
</g>
<!-- CurrentAngle&#45;&gt;flatAbs -->
<g id="edge13" class="edge">
<title>CurrentAngle&#45;&gt;flatAbs</title>
<path fill="none" stroke="black" d="M630.27,-1245.89C614.69,-1236.52 594.8,-1224.55 577.56,-1214.18"/>
<polygon fill="black" stroke="black" points="579.45,-1211.22 569.07,-1209.07 575.84,-1217.22 579.45,-1211.22"/>
</g>
<!-- data_x&#45;&gt;CreateWorkspace -->
<g id="edge41" class="edge">
<title>data_x&#45;&gt;CreateWorkspace</title>
<path fill="none" stroke="black" d="M840.27,-458.08C834.25,-456.01 827.96,-453.9 822.05,-452 785.95,-440.39 745.54,-428.31 711.98,-418.52"/>
<polygon fill="black" stroke="black" points="713.37,-415.28 702.79,-415.85 711.42,-422.01 713.37,-415.28"/>
</g>
<!-- samplelogs -->
<g id="node39" class="node">
<title>samplelogs</title>
<ellipse fill="lightgrey" stroke="black" cx="788.05" cy="-397" rx="61.99" ry="18"/>
<text text-anchor="middle" x="788.05" y="-393.3" font-family="Helvetica,sans-Serif" font-size="14.00">samplelogs</text>
</g>
<!-- samplelogs&#45;&gt;AddSampleLog -->
<g id="edge43" class="edge">
<title>samplelogs&#45;&gt;AddSampleLog</title>
<path fill="none" stroke="black" d="M777.39,-378.81C772.37,-370.7 766.25,-360.84 760.64,-351.78"/>
<polygon fill="black" stroke="black" points="763.64,-349.97 755.4,-343.32 757.69,-353.66 763.64,-349.97"/>
</g>
</g>
</svg>
