<?xml version="1.0" encoding="UTF-8" standalone="no"?>
<!DOCTYPE svg PUBLIC "-//W3C//DTD SVG 1.1//EN"
 "http://www.w3.org/Graphics/SVG/1.1/DTD/svg11.dtd">
<!-- Generated by graphviz version 9.0.0 (20231125.0833)
 -->
<!-- Title: HB3AReduction Pages: 1 -->
<svg width="926pt" height="1165pt"
 viewBox="0.00 0.00 925.89 1165.25" xmlns="http://www.w3.org/2000/svg" xmlns:xlink="http://www.w3.org/1999/xlink">
<g id="graph0" class="graph" transform="scale(1 1) rotate(0) translate(4 1161.25)">
<title>HB3AReduction</title>
<polygon fill="white" stroke="none" points="-4,4 -4,-1161.25 921.89,-1161.25 921.89,4 -4,4"/>
<text text-anchor="middle" x="458.94" y="-1139.95" font-family="Helvetica,sans-Serif" font-size="14.00">HB3A Data Reduction Flowchart</text>
<!-- ExperimentNumber -->
<g id="node1" class="node">
<title>ExperimentNumber</title>
<ellipse fill="khaki" stroke="black" cx="532.07" cy="-1114" rx="106.98" ry="18"/>
<text text-anchor="middle" x="532.07" y="-1109.33" font-family="Helvetica,sans-Serif" font-size="14.00">ExperimentNumber</text>
</g>
<!-- downloadData -->
<g id="node5" class="node">
<title>downloadData</title>
<path fill="lightskyblue" stroke="black" d="M590.7,-1059C590.7,-1059 467.45,-1059 467.45,-1059 461.45,-1059 455.45,-1053 455.45,-1047 455.45,-1047 455.45,-1028.5 455.45,-1028.5 455.45,-1022.5 461.45,-1016.5 467.45,-1016.5 467.45,-1016.5 590.7,-1016.5 590.7,-1016.5 596.7,-1016.5 602.7,-1022.5 602.7,-1028.5 602.7,-1028.5 602.7,-1047 602.7,-1047 602.7,-1053 596.7,-1059 590.7,-1059"/>
<text text-anchor="middle" x="529.07" y="-1041.7" font-family="Helvetica,sans-Serif" font-size="14.00">DownloadFile v1</text>
<text text-anchor="middle" x="529.07" y="-1024.45" font-family="Helvetica,sans-Serif" font-size="14.00"> Spice file, XML file</text>
</g>
<!-- ExperimentNumber&#45;&gt;downloadData -->
<g id="edge1" class="edge">
<title>ExperimentNumber&#45;&gt;downloadData</title>
<path fill="none" stroke="black" d="M531.37,-1095.78C531.07,-1088.3 530.71,-1079.29 530.36,-1070.66"/>
<polygon fill="black" stroke="black" points="533.86,-1070.67 529.96,-1060.82 526.87,-1070.96 533.86,-1070.67"/>
</g>
<!-- collectExpInfo2 -->
<g id="node10" class="node">
<title>collectExpInfo2</title>
<path fill="lightskyblue" stroke="#ee8262" d="M839.32,-1055.75C839.32,-1055.75 632.82,-1055.75 632.82,-1055.75 626.82,-1055.75 620.82,-1049.75 620.82,-1043.75 620.82,-1043.75 620.82,-1031.75 620.82,-1031.75 620.82,-1025.75 626.82,-1019.75 632.82,-1019.75 632.82,-1019.75 839.32,-1019.75 839.32,-1019.75 845.32,-1019.75 851.32,-1025.75 851.32,-1031.75 851.32,-1031.75 851.32,-1043.75 851.32,-1043.75 851.32,-1049.75 845.32,-1055.75 839.32,-1055.75"/>
<text text-anchor="middle" x="736.07" y="-1033.08" font-family="Helvetica,sans-Serif" font-size="14.00">CollectHB3AExperimentInfo v1</text>
</g>
<!-- ExperimentNumber&#45;&gt;collectExpInfo2 -->
<g id="edge24" class="edge">
<title>ExperimentNumber&#45;&gt;collectExpInfo2</title>
<path fill="none" stroke="black" d="M575.58,-1097.16C605.34,-1086.33 645.12,-1071.85 677.63,-1060.02"/>
<polygon fill="black" stroke="black" points="678.73,-1063.35 686.93,-1056.64 676.33,-1056.77 678.73,-1063.35"/>
</g>
<!-- PtNumberList -->
<g id="node2" class="node">
<title>PtNumberList</title>
<ellipse fill="khaki" stroke="black" cx="735.07" cy="-1114" rx="76.99" ry="18"/>
<text text-anchor="middle" x="735.07" y="-1109.33" font-family="Helvetica,sans-Serif" font-size="14.00">PtNumberList</text>
</g>
<!-- PtNumberList&#45;&gt;downloadData -->
<g id="edge2" class="edge">
<title>PtNumberList&#45;&gt;downloadData</title>
<path fill="none" stroke="black" d="M694.37,-1098.33C666.67,-1088.34 629.33,-1074.89 597.15,-1063.29"/>
<polygon fill="black" stroke="black" points="598.47,-1060.04 587.88,-1059.95 596.1,-1066.63 598.47,-1060.04"/>
</g>
<!-- PtNumberList&#45;&gt;collectExpInfo2 -->
<g id="edge25" class="edge">
<title>PtNumberList&#45;&gt;collectExpInfo2</title>
<path fill="none" stroke="black" d="M735.3,-1095.78C735.42,-1087.41 735.55,-1077.11 735.68,-1067.59"/>
<polygon fill="black" stroke="black" points="739.18,-1067.69 735.82,-1057.65 732.18,-1067.6 739.18,-1067.69"/>
</g>
<!-- OutputWorkspace -->
<g id="node3" class="node">
<title>OutputWorkspace</title>
<ellipse fill="khaki" stroke="black" cx="162.07" cy="-701" rx="98.56" ry="18"/>
<text text-anchor="middle" x="162.07" y="-696.33" font-family="Helvetica,sans-Serif" font-size="14.00">OutputWorkspace</text>
</g>
<!-- isOutputHKL -->
<g id="node4" class="node">
<title>isOutputHKL</title>
<polygon fill="limegreen" stroke="black" points="739.07,-900 560.26,-882 739.07,-864 917.89,-882 739.07,-900"/>
<text text-anchor="middle" x="739.07" y="-877.33" font-family="Helvetica,sans-Serif" font-size="14.00">Is output in HKL&#45;space?</text>
</g>
<!-- convert2HKL -->
<g id="node19" class="node">
<title>convert2HKL</title>
<path fill="lightskyblue" stroke="#ee8262" d="M805.2,-792C805.2,-792 630.95,-792 630.95,-792 624.95,-792 618.95,-786 618.95,-780 618.95,-780 618.95,-768 618.95,-768 618.95,-762 624.95,-756 630.95,-756 630.95,-756 805.2,-756 805.2,-756 811.2,-756 817.2,-762 817.2,-768 817.2,-768 817.2,-780 817.2,-780 817.2,-786 811.2,-792 805.2,-792"/>
<text text-anchor="middle" x="718.07" y="-769.33" font-family="Helvetica,sans-Serif" font-size="14.00">ConvertCWSDMDtoHKL v1</text>
</g>
<!-- isOutputHKL&#45;&gt;convert2HKL -->
<g id="edge28" class="edge">
<title>isOutputHKL&#45;&gt;convert2HKL</title>
<path fill="none" stroke="black" d="M735.7,-863.97C732.47,-847.69 727.55,-822.82 723.72,-803.52"/>
<polygon fill="black" stroke="black" points="727.18,-802.95 721.8,-793.83 720.31,-804.31 727.18,-802.95"/>
<text text-anchor="middle" x="743.32" y="-823.33" font-family="Helvetica,sans-Serif" font-size="14.00">Yes</text>
</g>
<!-- mergeMD -->
<g id="node20" class="node">
<title>mergeMD</title>
<path fill="lightskyblue" stroke="#ee8262" d="M866.57,-719C866.57,-719 787.57,-719 787.57,-719 781.57,-719 775.57,-713 775.57,-707 775.57,-707 775.57,-695 775.57,-695 775.57,-689 781.57,-683 787.57,-683 787.57,-683 866.57,-683 866.57,-683 872.57,-683 878.57,-689 878.57,-695 878.57,-695 878.57,-707 878.57,-707 878.57,-713 872.57,-719 866.57,-719"/>
<text text-anchor="middle" x="827.07" y="-696.33" font-family="Helvetica,sans-Serif" font-size="14.00">MergeMD v1</text>
</g>
<!-- isOutputHKL&#45;&gt;mergeMD -->
<g id="edge30" class="edge">
<title>isOutputHKL&#45;&gt;mergeMD</title>
<path fill="none" stroke="black" d="M761.42,-866.02C782.55,-850.39 812.93,-823.74 826.07,-792 834.07,-772.67 833.98,-748.94 832.07,-730.7"/>
<polygon fill="black" stroke="black" points="835.55,-730.3 830.77,-720.84 828.61,-731.21 835.55,-730.3"/>
<text text-anchor="middle" x="842.45" y="-769.33" font-family="Helvetica,sans-Serif" font-size="14.00">No</text>
</g>
<!-- loadSpiceFile -->
<g id="node7" class="node">
<title>loadSpiceFile</title>
<path fill="lightskyblue" stroke="black" d="M581.32,-976.25C581.32,-976.25 464.82,-976.25 464.82,-976.25 458.82,-976.25 452.82,-970.25 452.82,-964.25 452.82,-964.25 452.82,-952.25 452.82,-952.25 452.82,-946.25 458.82,-940.25 464.82,-940.25 464.82,-940.25 581.32,-940.25 581.32,-940.25 587.32,-940.25 593.32,-946.25 593.32,-952.25 593.32,-952.25 593.32,-964.25 593.32,-964.25 593.32,-970.25 587.32,-976.25 581.32,-976.25"/>
<text text-anchor="middle" x="523.07" y="-953.58" font-family="Helvetica,sans-Serif" font-size="14.00">LoadSpiceAscii v1</text>
</g>
<!-- downloadData&#45;&gt;loadSpiceFile -->
<g id="edge3" class="edge">
<title>downloadData&#45;&gt;loadSpiceFile</title>
<path fill="none" stroke="black" d="M527.49,-1016.39C526.82,-1007.68 526.02,-997.37 525.29,-987.92"/>
<polygon fill="black" stroke="black" points="528.79,-987.8 524.53,-978.1 521.81,-988.34 528.79,-987.8"/>
</g>
<!-- viewRawData -->
<g id="node6" class="node">
<title>viewRawData</title>
<path fill="lightskyblue" stroke="black" d="M212.07,-792C212.07,-792 112.07,-792 112.07,-792 106.07,-792 100.07,-786 100.07,-780 100.07,-780 100.07,-768 100.07,-768 100.07,-762 106.07,-756 112.07,-756 112.07,-756 212.07,-756 212.07,-756 218.07,-756 224.07,-762 224.07,-768 224.07,-768 224.07,-780 224.07,-780 224.07,-786 218.07,-792 212.07,-792"/>
<text text-anchor="middle" x="162.07" y="-769.33" font-family="Helvetica,sans-Serif" font-size="14.00">View data (GUI)</text>
</g>
<!-- viewRawData&#45;&gt;OutputWorkspace -->
<g id="edge35" class="edge">
<title>viewRawData&#45;&gt;OutputWorkspace</title>
<path fill="none" stroke="black" d="M162.07,-755.81C162.07,-748.23 162.07,-739.1 162.07,-730.54"/>
<polygon fill="black" stroke="black" points="165.57,-730.54 162.07,-720.54 158.57,-730.54 165.57,-730.54"/>
</g>
<!-- loadDetFile -->
<g id="node8" class="node">
<title>loadDetFile</title>
<path fill="lightskyblue" stroke="black" d="M464.57,-900C464.57,-900 307.57,-900 307.57,-900 301.57,-900 295.57,-894 295.57,-888 295.57,-888 295.57,-876 295.57,-876 295.57,-870 301.57,-864 307.57,-864 307.57,-864 464.57,-864 464.57,-864 470.57,-864 476.57,-870 476.57,-876 476.57,-876 476.57,-888 476.57,-888 476.57,-894 470.57,-900 464.57,-900"/>
<text text-anchor="middle" x="386.07" y="-877.33" font-family="Helvetica,sans-Serif" font-size="14.00">LoadSpiceXML2DDet v1</text>
</g>
<!-- loadSpiceFile&#45;&gt;loadDetFile -->
<g id="edge4" class="edge">
<title>loadSpiceFile&#45;&gt;loadDetFile</title>
<path fill="none" stroke="black" d="M490.95,-939.84C472.14,-929.65 448.18,-916.66 427.91,-905.67"/>
<polygon fill="black" stroke="black" points="429.78,-902.71 419.32,-901.02 426.44,-908.86 429.78,-902.71"/>
</g>
<!-- spiceTable -->
<g id="node23" class="node">
<title>spiceTable</title>
<polygon fill="grey" stroke="black" points="675.39,-846 468.08,-846 414.75,-810 622.06,-810 675.39,-846"/>
<text text-anchor="middle" x="545.07" y="-821.83" font-family="Times,serif" font-size="14.00">Spice TableWorkspace</text>
</g>
<!-- loadSpiceFile&#45;&gt;spiceTable -->
<g id="edge5" class="edge">
<title>loadSpiceFile&#45;&gt;spiceTable</title>
<path fill="none" stroke="black" d="M526.04,-939.95C529.66,-918.82 535.85,-882.77 540.18,-857.52"/>
<polygon fill="black" stroke="black" points="543.58,-858.37 541.82,-847.92 536.68,-857.19 543.58,-858.37"/>
</g>
<!-- loadDetFile&#45;&gt;viewRawData -->
<g id="edge6" class="edge">
<title>loadDetFile&#45;&gt;viewRawData</title>
<path fill="none" stroke="black" d="M349.58,-863.73C311.3,-845.62 250.98,-817.07 209.13,-797.27"/>
<polygon fill="black" stroke="black" points="210.82,-794.2 200.28,-793.08 207.83,-800.52 210.82,-794.2"/>
</g>
<!-- detMatrix -->
<g id="node22" class="node">
<title>detMatrix</title>
<polygon fill="grey" stroke="black" points="530.38,-792 300.82,-792 241.76,-756 471.33,-756 530.38,-792"/>
<text text-anchor="middle" x="386.07" y="-767.83" font-family="Times,serif" font-size="14.00">Measurement Workspace</text>
</g>
<!-- loadDetFile&#45;&gt;detMatrix -->
<g id="edge7" class="edge">
<title>loadDetFile&#45;&gt;detMatrix</title>
<path fill="none" stroke="black" d="M386.07,-863.97C386.07,-847.76 386.07,-823.06 386.07,-803.79"/>
<polygon fill="black" stroke="black" points="389.57,-803.85 386.07,-793.85 382.57,-803.85 389.57,-803.85"/>
</g>
<!-- collectExpInfo -->
<g id="node9" class="node">
<title>collectExpInfo</title>
<path fill="lightskyblue" stroke="yellow" d="M649.32,-719C649.32,-719 442.82,-719 442.82,-719 436.82,-719 430.82,-713 430.82,-707 430.82,-707 430.82,-695 430.82,-695 430.82,-689 436.82,-683 442.82,-683 442.82,-683 649.32,-683 649.32,-683 655.32,-683 661.32,-689 661.32,-695 661.32,-695 661.32,-707 661.32,-707 661.32,-713 655.32,-719 649.32,-719"/>
<text text-anchor="middle" x="546.07" y="-696.33" font-family="Helvetica,sans-Serif" font-size="14.00">CollectHB3AExperimentInfo v1</text>
</g>
<!-- convertToQ -->
<g id="node11" class="node">
<title>convertToQ</title>
<path fill="lightskyblue" stroke="yellow" d="M661.32,-646C661.32,-646 430.82,-646 430.82,-646 424.82,-646 418.82,-640 418.82,-634 418.82,-634 418.82,-615.5 418.82,-615.5 418.82,-609.5 424.82,-603.5 430.82,-603.5 430.82,-603.5 661.32,-603.5 661.32,-603.5 667.32,-603.5 673.32,-609.5 673.32,-615.5 673.32,-615.5 673.32,-634 673.32,-634 673.32,-640 667.32,-646 661.32,-646"/>
<text text-anchor="middle" x="546.07" y="-628.7" font-family="Helvetica,sans-Serif" font-size="14.00">ConvertCWSDExpToMomentum v1</text>
<text text-anchor="middle" x="546.07" y="-611.45" font-family="Helvetica,sans-Serif" font-size="14.00">Exp. Info. WS</text>
</g>
<!-- collectExpInfo&#45;&gt;convertToQ -->
<g id="edge10" class="edge">
<title>collectExpInfo&#45;&gt;convertToQ</title>
<path fill="none" stroke="black" d="M546.07,-682.78C546.07,-675.3 546.07,-666.29 546.07,-657.66"/>
<polygon fill="black" stroke="black" points="549.57,-657.82 546.07,-647.82 542.57,-657.82 549.57,-657.82"/>
</g>
<!-- convertToQ2 -->
<g id="node12" class="node">
<title>convertToQ2</title>
<path fill="lightskyblue" stroke="#ee8262" d="M854.32,-979.5C854.32,-979.5 623.82,-979.5 623.82,-979.5 617.82,-979.5 611.82,-973.5 611.82,-967.5 611.82,-967.5 611.82,-949 611.82,-949 611.82,-943 617.82,-937 623.82,-937 623.82,-937 854.32,-937 854.32,-937 860.32,-937 866.32,-943 866.32,-949 866.32,-949 866.32,-967.5 866.32,-967.5 866.32,-973.5 860.32,-979.5 854.32,-979.5"/>
<text text-anchor="middle" x="739.07" y="-962.2" font-family="Helvetica,sans-Serif" font-size="14.00">ConvertCWSDExpToMomentum v1</text>
<text text-anchor="middle" x="739.07" y="-944.95" font-family="Helvetica,sans-Serif" font-size="14.00">Exp. Info. WS</text>
</g>
<!-- collectExpInfo2&#45;&gt;convertToQ2 -->
<g id="edge26" class="edge">
<title>collectExpInfo2&#45;&gt;convertToQ2</title>
<path fill="none" stroke="black" d="M736.74,-1019.55C737.06,-1011.24 737.45,-1001 737.83,-991.33"/>
<polygon fill="black" stroke="black" points="741.32,-991.62 738.21,-981.5 734.33,-991.35 741.32,-991.62"/>
</g>
<!-- expScanMD -->
<g id="node24" class="node">
<title>expScanMD</title>
<polygon fill="grey" stroke="black" points="687.58,-566.5 462.47,-566.5 404.56,-530.5 629.67,-530.5 687.58,-566.5"/>
<text text-anchor="middle" x="546.07" y="-542.33" font-family="Times,serif" font-size="14.00">Exp&#45;scan MDWorkspace</text>
</g>
<!-- convertToQ&#45;&gt;expScanMD -->
<g id="edge11" class="edge">
<title>convertToQ&#45;&gt;expScanMD</title>
<path fill="none" stroke="black" d="M546.07,-603.07C546.07,-595.25 546.07,-586.22 546.07,-577.82"/>
<polygon fill="black" stroke="black" points="549.57,-578.08 546.07,-568.08 542.57,-578.08 549.57,-578.08"/>
</g>
<!-- convertToQ2&#45;&gt;isOutputHKL -->
<g id="edge27" class="edge">
<title>convertToQ2&#45;&gt;isOutputHKL</title>
<path fill="none" stroke="black" d="M739.07,-936.57C739.07,-928.75 739.07,-919.72 739.07,-911.32"/>
<polygon fill="black" stroke="black" points="742.57,-911.58 739.07,-901.58 735.57,-911.58 742.57,-911.58"/>
</g>
<!-- findPeaks -->
<g id="node13" class="node">
<title>findPeaks</title>
<path fill="lightskyblue" stroke="yellow" d="M536.7,-493.5C536.7,-493.5 431.45,-493.5 431.45,-493.5 425.45,-493.5 419.45,-487.5 419.45,-481.5 419.45,-481.5 419.45,-469.5 419.45,-469.5 419.45,-463.5 425.45,-457.5 431.45,-457.5 431.45,-457.5 536.7,-457.5 536.7,-457.5 542.7,-457.5 548.7,-463.5 548.7,-469.5 548.7,-469.5 548.7,-481.5 548.7,-481.5 548.7,-487.5 542.7,-493.5 536.7,-493.5"/>
<text text-anchor="middle" x="484.07" y="-470.82" font-family="Helvetica,sans-Serif" font-size="14.00">FindPeaksMD v1</text>
</g>
<!-- peakWS -->
<g id="node25" class="node">
<title>peakWS</title>
<polygon fill="grey" stroke="black" points="565.29,-420.5 361.32,-420.5 308.85,-384.5 512.82,-384.5 565.29,-420.5"/>
<text text-anchor="middle" x="437.07" y="-396.32" font-family="Times,serif" font-size="14.00">Peaks PeakWorkspace</text>
</g>
<!-- findPeaks&#45;&gt;peakWS -->
<g id="edge13" class="edge">
<title>findPeaks&#45;&gt;peakWS</title>
<path fill="none" stroke="black" d="M472.69,-457.31C467.27,-449.12 460.65,-439.12 454.6,-429.98"/>
<polygon fill="black" stroke="black" points="457.62,-428.2 449.18,-421.79 451.78,-432.06 457.62,-428.2"/>
</g>
<!-- combinePeaks -->
<g id="node14" class="node">
<title>combinePeaks</title>
<path fill="lightskyblue" stroke="greenyellow" d="M344.82,-347.5C344.82,-347.5 153.32,-347.5 153.32,-347.5 147.32,-347.5 141.32,-341.5 141.32,-335.5 141.32,-335.5 141.32,-317 141.32,-317 141.32,-311 147.32,-305 153.32,-305 153.32,-305 344.82,-305 344.82,-305 350.82,-305 356.82,-311 356.82,-317 356.82,-317 356.82,-335.5 356.82,-335.5 356.82,-341.5 350.82,-347.5 344.82,-347.5"/>
<text text-anchor="middle" x="249.07" y="-330.2" font-family="Helvetica,sans-Serif" font-size="14.00">CombinePeaksWorkspace v1</text>
<text text-anchor="middle" x="249.07" y="-312.95" font-family="Helvetica,sans-Serif" font-size="14.00">(cal ub)</text>
</g>
<!-- combPeakWS -->
<g id="node27" class="node">
<title>combPeakWS</title>
<polygon fill="grey" stroke="black" points="378.14,-268 77.37,-268 0,-232 300.77,-232 378.14,-268"/>
<text text-anchor="middle" x="189.07" y="-243.82" font-family="Times,serif" font-size="14.00">Combined peaks PeaksWorkspace</text>
</g>
<!-- combinePeaks&#45;&gt;combPeakWS -->
<g id="edge15" class="edge">
<title>combinePeaks&#45;&gt;combPeakWS</title>
<path fill="none" stroke="black" d="M232.36,-304.57C225.46,-296.03 217.39,-286.04 210.1,-277.02"/>
<polygon fill="black" stroke="black" points="212.82,-274.82 203.81,-269.24 207.38,-279.22 212.82,-274.82"/>
</g>
<!-- calUB -->
<g id="node15" class="node">
<title>calUB</title>
<path fill="lightskyblue" stroke="greenyellow" d="M187.82,-195C187.82,-195 56.32,-195 56.32,-195 50.32,-195 44.32,-189 44.32,-183 44.32,-183 44.32,-164.5 44.32,-164.5 44.32,-158.5 50.32,-152.5 56.32,-152.5 56.32,-152.5 187.82,-152.5 187.82,-152.5 193.82,-152.5 199.82,-158.5 199.82,-164.5 199.82,-164.5 199.82,-183 199.82,-183 199.82,-189 193.82,-195 187.82,-195"/>
<text text-anchor="middle" x="122.07" y="-177.7" font-family="Helvetica,sans-Serif" font-size="14.00">CalculateUMatrix v1</text>
<text text-anchor="middle" x="122.07" y="-160.45" font-family="Helvetica,sans-Serif" font-size="14.00">(cal ub)</text>
</g>
<!-- calUB&#45;&gt;combPeakWS -->
<g id="edge17" class="edge">
<title>calUB&#45;&gt;combPeakWS</title>
<path fill="none" stroke="black" d="M146.74,-195.31C155.2,-203.91 164.43,-214 172.17,-223.1"/>
<polygon fill="black" stroke="black" points="169.3,-225.13 178.37,-230.61 174.7,-220.67 169.3,-225.13"/>
</g>
<!-- getUB -->
<g id="node16" class="node">
<title>getUB</title>
<path fill="lightskyblue" stroke="greenyellow" d="M388.32,-195C388.32,-195 229.82,-195 229.82,-195 223.82,-195 217.82,-189 217.82,-183 217.82,-183 217.82,-164.5 217.82,-164.5 217.82,-158.5 223.82,-152.5 229.82,-152.5 229.82,-152.5 388.32,-152.5 388.32,-152.5 394.32,-152.5 400.32,-158.5 400.32,-164.5 400.32,-164.5 400.32,-183 400.32,-183 400.32,-189 394.32,-195 388.32,-195"/>
<text text-anchor="middle" x="309.07" y="-177.7" font-family="Helvetica,sans-Serif" font-size="14.00">PeakWorkspace.getUB()</text>
<text text-anchor="middle" x="309.07" y="-160.45" font-family="Helvetica,sans-Serif" font-size="14.00">(cal ub)</text>
</g>
<!-- ubmatrix -->
<g id="node29" class="node">
<title>ubmatrix</title>
<polygon fill="grey" stroke="black" points="395.24,-115.5 283.61,-115.5 254.9,-79.5 366.53,-79.5 395.24,-115.5"/>
<text text-anchor="middle" x="325.07" y="-91.33" font-family="Times,serif" font-size="14.00">UB matrix</text>
</g>
<!-- getUB&#45;&gt;ubmatrix -->
<g id="edge19" class="edge">
<title>getUB&#45;&gt;ubmatrix</title>
<path fill="none" stroke="black" d="M313.53,-152.07C315.21,-144.25 317.16,-135.22 318.97,-126.82"/>
<polygon fill="black" stroke="black" points="322.39,-127.56 321.07,-117.05 315.55,-126.08 322.39,-127.56"/>
</g>
<!-- setUB -->
<g id="node17" class="node">
<title>setUB</title>
<path fill="lightskyblue" stroke="deepskyblue" d="M480.32,-42.5C480.32,-42.5 393.82,-42.5 393.82,-42.5 387.82,-42.5 381.82,-36.5 381.82,-30.5 381.82,-30.5 381.82,-12 381.82,-12 381.82,-6 387.82,0 393.82,0 393.82,0 480.32,0 480.32,0 486.32,0 492.32,-6 492.32,-12 492.32,-12 492.32,-30.5 492.32,-30.5 492.32,-36.5 486.32,-42.5 480.32,-42.5"/>
<text text-anchor="middle" x="437.07" y="-25.2" font-family="Helvetica,sans-Serif" font-size="14.00">SetUB v1</text>
<text text-anchor="middle" x="437.07" y="-7.95" font-family="Helvetica,sans-Serif" font-size="14.00">(index peaks)</text>
</g>
<!-- setUB&#45;&gt;peakWS -->
<g id="edge22" class="edge">
<title>setUB&#45;&gt;peakWS</title>
<path fill="none" stroke="black" d="M444.57,-42.74C446.07,-57.65 446.07,-78.32 446.07,-96.5 446.07,-327.25 446.07,-327.25 446.07,-327.25 446.07,-342.3 446.07,-359.08 445.22,-372.87"/>
<polygon fill="black" stroke="black" points="441.75,-372.32 444.36,-382.59 448.72,-372.94 441.75,-372.32"/>
</g>
<!-- indexPeaks -->
<g id="node18" class="node">
<title>indexPeaks</title>
<path fill="lightskyblue" stroke="deepskyblue" d="M579.7,-347.5C579.7,-347.5 486.45,-347.5 486.45,-347.5 480.45,-347.5 474.45,-341.5 474.45,-335.5 474.45,-335.5 474.45,-317 474.45,-317 474.45,-311 480.45,-305 486.45,-305 486.45,-305 579.7,-305 579.7,-305 585.7,-305 591.7,-311 591.7,-317 591.7,-317 591.7,-335.5 591.7,-335.5 591.7,-341.5 585.7,-347.5 579.7,-347.5"/>
<text text-anchor="middle" x="533.07" y="-330.2" font-family="Helvetica,sans-Serif" font-size="14.00">IndexPeaks v1</text>
<text text-anchor="middle" x="533.07" y="-312.95" font-family="Helvetica,sans-Serif" font-size="14.00">(index peaks)</text>
</g>
<!-- convert2HKL&#45;&gt;mergeMD -->
<g id="edge29" class="edge">
<title>convert2HKL&#45;&gt;mergeMD</title>
<path fill="none" stroke="black" d="M744.74,-755.63C758.59,-746.61 775.73,-735.44 790.77,-725.64"/>
<polygon fill="black" stroke="black" points="792.57,-728.65 799.04,-720.26 788.75,-722.79 792.57,-728.65"/>
</g>
<!-- integratePeak -->
<g id="node21" class="node">
<title>integratePeak</title>
<path fill="lightskyblue" stroke="navy" d="M782.45,-344.25C782.45,-344.25 621.7,-344.25 621.7,-344.25 615.7,-344.25 609.7,-338.25 609.7,-332.25 609.7,-332.25 609.7,-320.25 609.7,-320.25 609.7,-314.25 615.7,-308.25 621.7,-308.25 621.7,-308.25 782.45,-308.25 782.45,-308.25 788.45,-308.25 794.45,-314.25 794.45,-320.25 794.45,-320.25 794.45,-332.25 794.45,-332.25 794.45,-338.25 788.45,-344.25 782.45,-344.25"/>
<text text-anchor="middle" x="702.07" y="-321.57" font-family="Helvetica,sans-Serif" font-size="14.00">IntegratePeaksCWSD v1</text>
</g>
<!-- peakWS2 -->
<g id="node26" class="node">
<title>peakWS2</title>
<polygon fill="grey" stroke="black" points="885.55,-268 593.68,-268 518.6,-232 810.46,-232 885.55,-268"/>
<text text-anchor="middle" x="702.07" y="-243.82" font-family="Times,serif" font-size="14.00">Integrated Peaks PeakWorkspace</text>
</g>
<!-- integratePeak&#45;&gt;peakWS2 -->
<g id="edge34" class="edge">
<title>integratePeak&#45;&gt;peakWS2</title>
<path fill="none" stroke="black" d="M702.07,-308.03C702.07,-299.66 702.07,-289.36 702.07,-279.84"/>
<polygon fill="black" stroke="black" points="705.57,-279.9 702.07,-269.9 698.57,-279.9 705.57,-279.9"/>
</g>
<!-- detMatrix&#45;&gt;collectExpInfo -->
<g id="edge8" class="edge">
<title>detMatrix&#45;&gt;collectExpInfo</title>
<path fill="none" stroke="black" d="M425.21,-755.63C446.71,-746.09 473.6,-734.16 496.55,-723.98"/>
<polygon fill="black" stroke="black" points="497.68,-727.3 505.4,-720.05 494.84,-720.91 497.68,-727.3"/>
</g>
<!-- spiceTable&#45;&gt;collectExpInfo -->
<g id="edge9" class="edge">
<title>spiceTable&#45;&gt;collectExpInfo</title>
<path fill="none" stroke="black" d="M545.21,-809.62C545.37,-789.19 545.65,-754.99 545.84,-730.62"/>
<polygon fill="black" stroke="black" points="549.34,-730.77 545.92,-720.75 542.34,-730.72 549.34,-730.77"/>
</g>
<!-- expScanMD&#45;&gt;findPeaks -->
<g id="edge12" class="edge">
<title>expScanMD&#45;&gt;findPeaks</title>
<path fill="none" stroke="black" d="M531.06,-530.31C523.68,-521.85 514.62,-511.48 506.44,-502.11"/>
<polygon fill="black" stroke="black" points="509.15,-499.9 499.94,-494.67 503.88,-504.5 509.15,-499.9"/>
</g>
<!-- expScanMD&#45;&gt;integratePeak -->
<g id="edge31" class="edge">
<title>expScanMD&#45;&gt;integratePeak</title>
<path fill="none" stroke="black" d="M549.4,-530.23C556.28,-498.35 574.65,-429.42 612.07,-384.5 623.54,-370.73 639.21,-359.18 654.25,-350.15"/>
<polygon fill="black" stroke="black" points="655.74,-353.34 662.69,-345.34 652.27,-347.26 655.74,-353.34"/>
</g>
<!-- peakWS&#45;&gt;combinePeaks -->
<g id="edge14" class="edge">
<title>peakWS&#45;&gt;combinePeaks</title>
<path fill="none" stroke="black" d="M392.99,-384.09C368.85,-374.56 338.51,-362.58 311.93,-352.07"/>
<polygon fill="black" stroke="black" points="313.55,-348.95 302.97,-348.54 310.98,-355.47 313.55,-348.95"/>
</g>
<!-- peakWS&#45;&gt;setUB -->
<g id="edge21" class="edge">
<title>peakWS&#45;&gt;setUB</title>
<path fill="none" stroke="black" d="M429.92,-384.1C428.07,-369.05 428.07,-346.71 428.07,-327.25 428.07,-327.25 428.07,-327.25 428.07,-96.5 428.07,-82.58 428.07,-67.2 428.75,-54.06"/>
<polygon fill="black" stroke="black" points="432.22,-54.47 429.46,-44.24 425.24,-53.96 432.22,-54.47"/>
</g>
<!-- peakWS&#45;&gt;indexPeaks -->
<g id="edge23" class="edge">
<title>peakWS&#45;&gt;indexPeaks</title>
<path fill="none" stroke="black" d="M459.34,-384.28C470.66,-375.52 484.69,-364.67 497.47,-354.79"/>
<polygon fill="black" stroke="black" points="499.52,-357.62 505.29,-348.74 495.24,-352.08 499.52,-357.62"/>
</g>
<!-- peakWS&#45;&gt;integratePeak -->
<g id="edge32" class="edge">
<title>peakWS&#45;&gt;integratePeak</title>
<path fill="none" stroke="black" d="M499.2,-384.09C538.02,-373.22 588.19,-359.16 628.92,-347.75"/>
<polygon fill="black" stroke="black" points="629.73,-351.15 638.41,-345.09 627.84,-344.41 629.73,-351.15"/>
</g>
<!-- combPeakWS&#45;&gt;calUB -->
<g id="edge16" class="edge">
<title>combPeakWS&#45;&gt;calUB</title>
<path fill="none" stroke="black" d="M167.73,-231.78C159.42,-223.53 150.03,-213.43 141.87,-204.02"/>
<polygon fill="black" stroke="black" points="144.61,-201.85 135.49,-196.47 139.27,-206.36 144.61,-201.85"/>
</g>
<!-- combPeakWS&#45;&gt;getUB -->
<g id="edge18" class="edge">
<title>combPeakWS&#45;&gt;getUB</title>
<path fill="none" stroke="black" d="M217.21,-231.59C231.8,-222.56 249.93,-211.34 266.23,-201.26"/>
<polygon fill="black" stroke="black" points="267.62,-204.52 274.28,-196.28 263.93,-198.56 267.62,-204.52"/>
</g>
<!-- maskWS -->
<g id="node28" class="node">
<title>maskWS</title>
<polygon fill="grey" stroke="black" points="823.02,-420.5 662.43,-420.5 621.12,-384.5 781.71,-384.5 823.02,-420.5"/>
<text text-anchor="middle" x="722.07" y="-396.32" font-family="Times,serif" font-size="14.00">Mask workspace</text>
</g>
<!-- maskWS&#45;&gt;integratePeak -->
<g id="edge33" class="edge">
<title>maskWS&#45;&gt;integratePeak</title>
<path fill="none" stroke="black" d="M717.43,-384.28C715.13,-375.72 712.28,-365.15 709.67,-355.45"/>
<polygon fill="black" stroke="black" points="713.13,-354.84 707.15,-346.1 706.37,-356.66 713.13,-354.84"/>
</g>
<!-- ubmatrix&#45;&gt;setUB -->
<g id="edge20" class="edge">
<title>ubmatrix&#45;&gt;setUB</title>
<path fill="none" stroke="black" d="M351.33,-79.09C364.7,-70.23 381.25,-59.26 396.23,-49.33"/>
<polygon fill="black" stroke="black" points="398.14,-52.26 404.54,-43.82 394.27,-46.43 398.14,-52.26"/>
</g>
</g>
</svg>
