<?xml version="1.0" encoding="UTF-8" standalone="no"?>
<!DOCTYPE svg PUBLIC "-//W3C//DTD SVG 1.1//EN"
 "http://www.w3.org/Graphics/SVG/1.1/DTD/svg11.dtd">
<!-- Generated by graphviz version 7.1.0 (20230122.1345)
 -->
<!-- Title: HB3AReduction Pages: 1 -->
<svg width="908pt" height="1136pt"
 viewBox="0.00 0.00 907.81 1136.00" xmlns="http://www.w3.org/2000/svg" xmlns:xlink="http://www.w3.org/1999/xlink">
<g id="graph0" class="graph" transform="scale(1 1) rotate(0) translate(4 1132)">
<title>HB3AReduction</title>
<polygon fill="white" stroke="none" points="-4,4 -4,-1132 903.81,-1132 903.81,4 -4,4"/>
<text text-anchor="middle" x="449.91" y="-1112.8" font-family="Helvetica,sans-Serif" font-size="14.00">HB3A Data Reduction Flowchart</text>
<!-- ExperimentNumber -->
<g id="node1" class="node">
<title>ExperimentNumber</title>
<ellipse fill="khaki" stroke="black" cx="537.45" cy="-1087" rx="99.38" ry="18"/>
<text text-anchor="middle" x="537.45" y="-1083.3" font-family="Helvetica,sans-Serif" font-size="14.00">ExperimentNumber</text>
</g>
<!-- downloadData -->
<g id="node5" class="node">
<title>downloadData</title>
<path fill="lightskyblue" stroke="black" d="M585.45,-1032C585.45,-1032 461.45,-1032 461.45,-1032 455.45,-1032 449.45,-1026 449.45,-1020 449.45,-1020 449.45,-1006 449.45,-1006 449.45,-1000 455.45,-994 461.45,-994 461.45,-994 585.45,-994 585.45,-994 591.45,-994 597.45,-1000 597.45,-1006 597.45,-1006 597.45,-1020 597.45,-1020 597.45,-1026 591.45,-1032 585.45,-1032"/>
<text text-anchor="middle" x="523.45" y="-1016.8" font-family="Helvetica,sans-Serif" font-size="14.00">DownloadFile v1</text>
<text text-anchor="middle" x="523.45" y="-1001.8" font-family="Helvetica,sans-Serif" font-size="14.00"> Spice file, XML file</text>
</g>
<!-- ExperimentNumber&#45;&gt;downloadData -->
<g id="edge1" class="edge">
<title>ExperimentNumber&#45;&gt;downloadData</title>
<path fill="none" stroke="black" d="M534.06,-1068.57C532.59,-1061.02 530.83,-1051.96 529.17,-1043.42"/>
<polygon fill="black" stroke="black" points="532.63,-1042.91 527.29,-1033.76 525.76,-1044.24 532.63,-1042.91"/>
</g>
<!-- collectExpInfo2 -->
<g id="node10" class="node">
<title>collectExpInfo2</title>
<path fill="lightskyblue" stroke="#ee8262" d="M834.95,-1031C834.95,-1031 627.95,-1031 627.95,-1031 621.95,-1031 615.95,-1025 615.95,-1019 615.95,-1019 615.95,-1007 615.95,-1007 615.95,-1001 621.95,-995 627.95,-995 627.95,-995 834.95,-995 834.95,-995 840.95,-995 846.95,-1001 846.95,-1007 846.95,-1007 846.95,-1019 846.95,-1019 846.95,-1025 840.95,-1031 834.95,-1031"/>
<text text-anchor="middle" x="731.45" y="-1009.3" font-family="Helvetica,sans-Serif" font-size="14.00">CollectHB3AExperimentInfo v1</text>
</g>
<!-- ExperimentNumber&#45;&gt;collectExpInfo2 -->
<g id="edge24" class="edge">
<title>ExperimentNumber&#45;&gt;collectExpInfo2</title>
<path fill="none" stroke="black" d="M579.54,-1070.38C607.15,-1060.13 643.62,-1046.6 673.9,-1035.36"/>
<polygon fill="black" stroke="black" points="674.75,-1038.77 682.91,-1032.01 672.32,-1032.21 674.75,-1038.77"/>
</g>
<!-- PtNumberList -->
<g id="node2" class="node">
<title>PtNumberList</title>
<ellipse fill="khaki" stroke="black" cx="728.45" cy="-1087" rx="71.49" ry="18"/>
<text text-anchor="middle" x="728.45" y="-1083.3" font-family="Helvetica,sans-Serif" font-size="14.00">PtNumberList</text>
</g>
<!-- PtNumberList&#45;&gt;downloadData -->
<g id="edge2" class="edge">
<title>PtNumberList&#45;&gt;downloadData</title>
<path fill="none" stroke="black" d="M687.95,-1071.78C658.99,-1061.61 619.46,-1047.72 586.41,-1036.11"/>
<polygon fill="black" stroke="black" points="587.95,-1032.95 577.36,-1032.93 585.63,-1039.55 587.95,-1032.95"/>
</g>
<!-- PtNumberList&#45;&gt;collectExpInfo2 -->
<g id="edge25" class="edge">
<title>PtNumberList&#45;&gt;collectExpInfo2</title>
<path fill="none" stroke="black" d="M729.17,-1068.57C729.5,-1060.79 729.89,-1051.41 730.25,-1042.64"/>
<polygon fill="black" stroke="black" points="733.74,-1042.92 730.66,-1032.78 726.75,-1042.63 733.74,-1042.92"/>
</g>
<!-- OutputWorkspace -->
<g id="node3" class="node">
<title>OutputWorkspace</title>
<ellipse fill="khaki" stroke="black" cx="166.45" cy="-683" rx="91.78" ry="18"/>
<text text-anchor="middle" x="166.45" y="-679.3" font-family="Helvetica,sans-Serif" font-size="14.00">OutputWorkspace</text>
</g>
<!-- isOutputHKL -->
<g id="node4" class="node">
<title>isOutputHKL</title>
<polygon fill="limegreen" stroke="black" points="733.45,-882 567.21,-864 733.45,-846 899.68,-864 733.45,-882"/>
<text text-anchor="middle" x="733.45" y="-860.3" font-family="Helvetica,sans-Serif" font-size="14.00">Is output in HKL&#45;space?</text>
</g>
<!-- convert2HKL -->
<g id="node19" class="node">
<title>convert2HKL</title>
<path fill="lightskyblue" stroke="#ee8262" d="M789.95,-774C789.95,-774 614.95,-774 614.95,-774 608.95,-774 602.95,-768 602.95,-762 602.95,-762 602.95,-750 602.95,-750 602.95,-744 608.95,-738 614.95,-738 614.95,-738 789.95,-738 789.95,-738 795.95,-738 801.95,-744 801.95,-750 801.95,-750 801.95,-762 801.95,-762 801.95,-768 795.95,-774 789.95,-774"/>
<text text-anchor="middle" x="702.45" y="-752.3" font-family="Helvetica,sans-Serif" font-size="14.00">ConvertCWSDMDtoHKL v1</text>
</g>
<!-- isOutputHKL&#45;&gt;convert2HKL -->
<g id="edge28" class="edge">
<title>isOutputHKL&#45;&gt;convert2HKL</title>
<path fill="none" stroke="black" d="M728.6,-846.44C723.81,-830.06 716.39,-804.69 710.68,-785.15"/>
<polygon fill="black" stroke="black" points="714.05,-784.22 707.89,-775.6 707.33,-786.18 714.05,-784.22"/>
<text text-anchor="middle" x="734.95" y="-806.3" font-family="Helvetica,sans-Serif" font-size="14.00">Yes</text>
</g>
<!-- mergeMD -->
<g id="node20" class="node">
<title>mergeMD</title>
<path fill="lightskyblue" stroke="#ee8262" d="M852.45,-701C852.45,-701 772.45,-701 772.45,-701 766.45,-701 760.45,-695 760.45,-689 760.45,-689 760.45,-677 760.45,-677 760.45,-671 766.45,-665 772.45,-665 772.45,-665 852.45,-665 852.45,-665 858.45,-665 864.45,-671 864.45,-677 864.45,-677 864.45,-689 864.45,-689 864.45,-695 858.45,-701 852.45,-701"/>
<text text-anchor="middle" x="812.45" y="-679.3" font-family="Helvetica,sans-Serif" font-size="14.00">MergeMD v1</text>
</g>
<!-- isOutputHKL&#45;&gt;mergeMD -->
<g id="edge30" class="edge">
<title>isOutputHKL&#45;&gt;mergeMD</title>
<path fill="none" stroke="black" d="M752.85,-847.71C771.55,-831.64 798.69,-804.51 810.45,-774 817.97,-754.47 818.17,-730.75 816.65,-712.57"/>
<polygon fill="black" stroke="black" points="820.14,-712.32 815.59,-702.75 813.18,-713.07 820.14,-712.32"/>
<text text-anchor="middle" x="826.95" y="-752.3" font-family="Helvetica,sans-Serif" font-size="14.00">No</text>
</g>
<!-- loadSpiceFile -->
<g id="node7" class="node">
<title>loadSpiceFile</title>
<path fill="lightskyblue" stroke="black" d="M575.95,-956C575.95,-956 458.95,-956 458.95,-956 452.95,-956 446.95,-950 446.95,-944 446.95,-944 446.95,-932 446.95,-932 446.95,-926 452.95,-920 458.95,-920 458.95,-920 575.95,-920 575.95,-920 581.95,-920 587.95,-926 587.95,-932 587.95,-932 587.95,-944 587.95,-944 587.95,-950 581.95,-956 575.95,-956"/>
<text text-anchor="middle" x="517.45" y="-934.3" font-family="Helvetica,sans-Serif" font-size="14.00">LoadSpiceAscii v1</text>
</g>
<!-- downloadData&#45;&gt;loadSpiceFile -->
<g id="edge3" class="edge">
<title>downloadData&#45;&gt;loadSpiceFile</title>
<path fill="none" stroke="black" d="M521.93,-993.58C521.29,-985.74 520.52,-976.41 519.81,-967.7"/>
<polygon fill="black" stroke="black" points="523.31,-967.6 519,-957.92 516.33,-968.17 523.31,-967.6"/>
</g>
<!-- viewRawData -->
<g id="node6" class="node">
<title>viewRawData</title>
<path fill="lightskyblue" stroke="black" d="M216.95,-774C216.95,-774 115.95,-774 115.95,-774 109.95,-774 103.95,-768 103.95,-762 103.95,-762 103.95,-750 103.95,-750 103.95,-744 109.95,-738 115.95,-738 115.95,-738 216.95,-738 216.95,-738 222.95,-738 228.95,-744 228.95,-750 228.95,-750 228.95,-762 228.95,-762 228.95,-768 222.95,-774 216.95,-774"/>
<text text-anchor="middle" x="166.45" y="-752.3" font-family="Helvetica,sans-Serif" font-size="14.00">View data (GUI)</text>
</g>
<!-- viewRawData&#45;&gt;OutputWorkspace -->
<g id="edge35" class="edge">
<title>viewRawData&#45;&gt;OutputWorkspace</title>
<path fill="none" stroke="black" d="M166.45,-737.81C166.45,-730.23 166.45,-721.1 166.45,-712.54"/>
<polygon fill="black" stroke="black" points="169.95,-712.54 166.45,-702.54 162.95,-712.54 169.95,-712.54"/>
</g>
<!-- loadDetFile -->
<g id="node8" class="node">
<title>loadDetFile</title>
<path fill="lightskyblue" stroke="black" d="M473.45,-882C473.45,-882 315.45,-882 315.45,-882 309.45,-882 303.45,-876 303.45,-870 303.45,-870 303.45,-858 303.45,-858 303.45,-852 309.45,-846 315.45,-846 315.45,-846 473.45,-846 473.45,-846 479.45,-846 485.45,-852 485.45,-858 485.45,-858 485.45,-870 485.45,-870 485.45,-876 479.45,-882 473.45,-882"/>
<text text-anchor="middle" x="394.45" y="-860.3" font-family="Helvetica,sans-Serif" font-size="14.00">LoadSpiceXML2DDet v1</text>
</g>
<!-- loadSpiceFile&#45;&gt;loadDetFile -->
<g id="edge4" class="edge">
<title>loadSpiceFile&#45;&gt;loadDetFile</title>
<path fill="none" stroke="black" d="M487.67,-919.57C471.51,-910.11 451.31,-898.29 433.86,-888.07"/>
<polygon fill="black" stroke="black" points="435.65,-885.06 425.25,-883.03 432.12,-891.11 435.65,-885.06"/>
</g>
<!-- spiceTable -->
<g id="node23" class="node">
<title>spiceTable</title>
<polygon fill="grey" stroke="black" points="690.77,-828 478.68,-828 424.12,-792 636.21,-792 690.77,-828"/>
<text text-anchor="middle" x="557.45" y="-806.3" font-family="Times,serif" font-size="14.00">Spice TableWorkspace</text>
</g>
<!-- loadSpiceFile&#45;&gt;spiceTable -->
<g id="edge5" class="edge">
<title>loadSpiceFile&#45;&gt;spiceTable</title>
<path fill="none" stroke="black" d="M522.92,-919.74C529.5,-899.03 540.62,-864 548.46,-839.31"/>
<polygon fill="black" stroke="black" points="551.76,-840.48 551.45,-829.89 545.09,-838.37 551.76,-840.48"/>
</g>
<!-- loadDetFile&#45;&gt;viewRawData -->
<g id="edge6" class="edge">
<title>loadDetFile&#45;&gt;viewRawData</title>
<path fill="none" stroke="black" d="M357.05,-845.61C318.04,-827.48 256.74,-798.98 214.24,-779.22"/>
<polygon fill="black" stroke="black" points="215.78,-776.07 205.23,-775.03 212.83,-782.42 215.78,-776.07"/>
</g>
<!-- detMatrix -->
<g id="node22" class="node">
<title>detMatrix</title>
<polygon fill="grey" stroke="black" points="542.36,-774 307.06,-774 246.54,-738 481.83,-738 542.36,-774"/>
<text text-anchor="middle" x="394.45" y="-752.3" font-family="Times,serif" font-size="14.00">Measurement Workspace</text>
</g>
<!-- loadDetFile&#45;&gt;detMatrix -->
<g id="edge7" class="edge">
<title>loadDetFile&#45;&gt;detMatrix</title>
<path fill="none" stroke="black" d="M394.45,-845.97C394.45,-829.76 394.45,-805.06 394.45,-785.79"/>
<polygon fill="black" stroke="black" points="397.95,-785.85 394.45,-775.85 390.95,-785.85 397.95,-785.85"/>
</g>
<!-- collectExpInfo -->
<g id="node9" class="node">
<title>collectExpInfo</title>
<path fill="lightskyblue" stroke="yellow" d="M661.95,-701C661.95,-701 454.95,-701 454.95,-701 448.95,-701 442.95,-695 442.95,-689 442.95,-689 442.95,-677 442.95,-677 442.95,-671 448.95,-665 454.95,-665 454.95,-665 661.95,-665 661.95,-665 667.95,-665 673.95,-671 673.95,-677 673.95,-677 673.95,-689 673.95,-689 673.95,-695 667.95,-701 661.95,-701"/>
<text text-anchor="middle" x="558.45" y="-679.3" font-family="Helvetica,sans-Serif" font-size="14.00">CollectHB3AExperimentInfo v1</text>
</g>
<!-- convertToQ -->
<g id="node11" class="node">
<title>convertToQ</title>
<path fill="lightskyblue" stroke="yellow" d="M673.95,-628C673.95,-628 442.95,-628 442.95,-628 436.95,-628 430.95,-622 430.95,-616 430.95,-616 430.95,-602 430.95,-602 430.95,-596 436.95,-590 442.95,-590 442.95,-590 673.95,-590 673.95,-590 679.95,-590 685.95,-596 685.95,-602 685.95,-602 685.95,-616 685.95,-616 685.95,-622 679.95,-628 673.95,-628"/>
<text text-anchor="middle" x="558.45" y="-612.8" font-family="Helvetica,sans-Serif" font-size="14.00">ConvertCWSDExpToMomentum v1</text>
<text text-anchor="middle" x="558.45" y="-597.8" font-family="Helvetica,sans-Serif" font-size="14.00">Exp. Info. WS</text>
</g>
<!-- collectExpInfo&#45;&gt;convertToQ -->
<g id="edge10" class="edge">
<title>collectExpInfo&#45;&gt;convertToQ</title>
<path fill="none" stroke="black" d="M558.45,-664.57C558.45,-657.1 558.45,-648.17 558.45,-639.71"/>
<polygon fill="black" stroke="black" points="561.95,-639.79 558.45,-629.79 554.95,-639.79 561.95,-639.79"/>
</g>
<!-- convertToQ2 -->
<g id="node12" class="node">
<title>convertToQ2</title>
<path fill="lightskyblue" stroke="#ee8262" d="M848.95,-957C848.95,-957 617.95,-957 617.95,-957 611.95,-957 605.95,-951 605.95,-945 605.95,-945 605.95,-931 605.95,-931 605.95,-925 611.95,-919 617.95,-919 617.95,-919 848.95,-919 848.95,-919 854.95,-919 860.95,-925 860.95,-931 860.95,-931 860.95,-945 860.95,-945 860.95,-951 854.95,-957 848.95,-957"/>
<text text-anchor="middle" x="733.45" y="-941.8" font-family="Helvetica,sans-Serif" font-size="14.00">ConvertCWSDExpToMomentum v1</text>
<text text-anchor="middle" x="733.45" y="-926.8" font-family="Helvetica,sans-Serif" font-size="14.00">Exp. Info. WS</text>
</g>
<!-- collectExpInfo2&#45;&gt;convertToQ2 -->
<g id="edge26" class="edge">
<title>collectExpInfo2&#45;&gt;convertToQ2</title>
<path fill="none" stroke="black" d="M731.92,-994.7C732.13,-986.99 732.39,-977.68 732.63,-968.9"/>
<polygon fill="black" stroke="black" points="736.12,-969.06 732.9,-958.96 729.13,-968.87 736.12,-969.06"/>
</g>
<!-- expScanMD -->
<g id="node24" class="node">
<title>expScanMD</title>
<polygon fill="grey" stroke="black" points="703.14,-553 472.97,-553 413.75,-517 643.93,-517 703.14,-553"/>
<text text-anchor="middle" x="558.45" y="-531.3" font-family="Times,serif" font-size="14.00">Exp&#45;scan MDWorkspace</text>
</g>
<!-- convertToQ&#45;&gt;expScanMD -->
<g id="edge11" class="edge">
<title>convertToQ&#45;&gt;expScanMD</title>
<path fill="none" stroke="black" d="M558.45,-589.83C558.45,-582.24 558.45,-573.24 558.45,-564.79"/>
<polygon fill="black" stroke="black" points="561.95,-564.93 558.45,-554.93 554.95,-564.93 561.95,-564.93"/>
</g>
<!-- convertToQ2&#45;&gt;isOutputHKL -->
<g id="edge27" class="edge">
<title>convertToQ2&#45;&gt;isOutputHKL</title>
<path fill="none" stroke="black" d="M733.45,-918.83C733.45,-911.24 733.45,-902.24 733.45,-893.79"/>
<polygon fill="black" stroke="black" points="736.95,-893.93 733.45,-883.93 729.95,-893.93 736.95,-893.93"/>
</g>
<!-- findPeaks -->
<g id="node13" class="node">
<title>findPeaks</title>
<path fill="lightskyblue" stroke="yellow" d="M548.45,-480C548.45,-480 442.45,-480 442.45,-480 436.45,-480 430.45,-474 430.45,-468 430.45,-468 430.45,-456 430.45,-456 430.45,-450 436.45,-444 442.45,-444 442.45,-444 548.45,-444 548.45,-444 554.45,-444 560.45,-450 560.45,-456 560.45,-456 560.45,-468 560.45,-468 560.45,-474 554.45,-480 548.45,-480"/>
<text text-anchor="middle" x="495.45" y="-458.3" font-family="Helvetica,sans-Serif" font-size="14.00">FindPeaksMD v1</text>
</g>
<!-- peakWS -->
<g id="node25" class="node">
<title>peakWS</title>
<polygon fill="grey" stroke="black" points="576.96,-407 367.75,-407 313.94,-371 523.14,-371 576.96,-407"/>
<text text-anchor="middle" x="445.45" y="-385.3" font-family="Times,serif" font-size="14.00">Peaks PeakWorkspace</text>
</g>
<!-- findPeaks&#45;&gt;peakWS -->
<g id="edge13" class="edge">
<title>findPeaks&#45;&gt;peakWS</title>
<path fill="none" stroke="black" d="M483.34,-443.81C477.51,-435.53 470.38,-425.41 463.89,-416.19"/>
<polygon fill="black" stroke="black" points="466.93,-414.43 458.31,-408.27 461.21,-418.46 466.93,-414.43"/>
</g>
<!-- combinePeaks -->
<g id="node14" class="node">
<title>combinePeaks</title>
<path fill="lightskyblue" stroke="greenyellow" d="M352.45,-334C352.45,-334 160.45,-334 160.45,-334 154.45,-334 148.45,-328 148.45,-322 148.45,-322 148.45,-308 148.45,-308 148.45,-302 154.45,-296 160.45,-296 160.45,-296 352.45,-296 352.45,-296 358.45,-296 364.45,-302 364.45,-308 364.45,-308 364.45,-322 364.45,-322 364.45,-328 358.45,-334 352.45,-334"/>
<text text-anchor="middle" x="256.45" y="-318.8" font-family="Helvetica,sans-Serif" font-size="14.00">CombinePeaksWorkspace v1</text>
<text text-anchor="middle" x="256.45" y="-303.8" font-family="Helvetica,sans-Serif" font-size="14.00">(cal ub)</text>
</g>
<!-- combPeakWS -->
<g id="node27" class="node">
<title>combPeakWS</title>
<polygon fill="grey" stroke="black" points="386.84,-259 79.19,-259 0.05,-223 307.7,-223 386.84,-259"/>
<text text-anchor="middle" x="193.45" y="-237.3" font-family="Times,serif" font-size="14.00">Combined peaks PeaksWorkspace</text>
</g>
<!-- combinePeaks&#45;&gt;combPeakWS -->
<g id="edge15" class="edge">
<title>combinePeaks&#45;&gt;combPeakWS</title>
<path fill="none" stroke="black" d="M240.55,-295.83C233.15,-287.37 224.2,-277.15 216.11,-267.9"/>
<polygon fill="black" stroke="black" points="218.9,-265.78 209.68,-260.56 213.63,-270.39 218.9,-265.78"/>
</g>
<!-- calUB -->
<g id="node15" class="node">
<title>calUB</title>
<path fill="lightskyblue" stroke="greenyellow" d="M194.45,-186C194.45,-186 62.45,-186 62.45,-186 56.45,-186 50.45,-180 50.45,-174 50.45,-174 50.45,-160 50.45,-160 50.45,-154 56.45,-148 62.45,-148 62.45,-148 194.45,-148 194.45,-148 200.45,-148 206.45,-154 206.45,-160 206.45,-160 206.45,-174 206.45,-174 206.45,-180 200.45,-186 194.45,-186"/>
<text text-anchor="middle" x="128.45" y="-170.8" font-family="Helvetica,sans-Serif" font-size="14.00">CalculateUMatrix v1</text>
<text text-anchor="middle" x="128.45" y="-155.8" font-family="Helvetica,sans-Serif" font-size="14.00">(cal ub)</text>
</g>
<!-- calUB&#45;&gt;combPeakWS -->
<g id="edge17" class="edge">
<title>calUB&#45;&gt;combPeakWS</title>
<path fill="none" stroke="black" d="M150.91,-186.27C159.26,-194.63 168.53,-204.69 176.34,-213.83"/>
<polygon fill="black" stroke="black" points="173.55,-215.94 182.62,-221.41 178.94,-211.47 173.55,-215.94"/>
</g>
<!-- getUB -->
<g id="node16" class="node">
<title>getUB</title>
<path fill="lightskyblue" stroke="greenyellow" d="M395.95,-186C395.95,-186 236.95,-186 236.95,-186 230.95,-186 224.95,-180 224.95,-174 224.95,-174 224.95,-160 224.95,-160 224.95,-154 230.95,-148 236.95,-148 236.95,-148 395.95,-148 395.95,-148 401.95,-148 407.95,-154 407.95,-160 407.95,-160 407.95,-174 407.95,-174 407.95,-180 401.95,-186 395.95,-186"/>
<text text-anchor="middle" x="316.45" y="-170.8" font-family="Helvetica,sans-Serif" font-size="14.00">PeakWorkspace.getUB()</text>
<text text-anchor="middle" x="316.45" y="-155.8" font-family="Helvetica,sans-Serif" font-size="14.00">(cal ub)</text>
</g>
<!-- ubmatrix -->
<g id="node29" class="node">
<title>ubmatrix</title>
<polygon fill="grey" stroke="black" points="403.79,-111 288.71,-111 259.1,-75 374.19,-75 403.79,-111"/>
<text text-anchor="middle" x="331.45" y="-89.3" font-family="Times,serif" font-size="14.00">UB matrix</text>
</g>
<!-- getUB&#45;&gt;ubmatrix -->
<g id="edge19" class="edge">
<title>getUB&#45;&gt;ubmatrix</title>
<path fill="none" stroke="black" d="M320.23,-147.83C321.83,-140.16 323.73,-131.03 325.51,-122.5"/>
<polygon fill="black" stroke="black" points="328.9,-123.4 327.51,-112.9 322.04,-121.98 328.9,-123.4"/>
</g>
<!-- setUB -->
<g id="node17" class="node">
<title>setUB</title>
<path fill="lightskyblue" stroke="deepskyblue" d="M488.95,-38C488.95,-38 401.95,-38 401.95,-38 395.95,-38 389.95,-32 389.95,-26 389.95,-26 389.95,-12 389.95,-12 389.95,-6 395.95,0 401.95,0 401.95,0 488.95,0 488.95,0 494.95,0 500.95,-6 500.95,-12 500.95,-12 500.95,-26 500.95,-26 500.95,-32 494.95,-38 488.95,-38"/>
<text text-anchor="middle" x="445.45" y="-22.8" font-family="Helvetica,sans-Serif" font-size="14.00">SetUB v1</text>
<text text-anchor="middle" x="445.45" y="-7.8" font-family="Helvetica,sans-Serif" font-size="14.00">(index peaks)</text>
</g>
<!-- setUB&#45;&gt;peakWS -->
<g id="edge22" class="edge">
<title>setUB&#45;&gt;peakWS</title>
<path fill="none" stroke="black" d="M452.78,-38.35C454.45,-52.9 454.45,-73.75 454.45,-92 454.45,-316 454.45,-316 454.45,-316 454.45,-330.26 454.45,-346.11 453.65,-359.3"/>
<polygon fill="black" stroke="black" points="450.18,-358.77 452.8,-369.03 457.16,-359.37 450.18,-358.77"/>
</g>
<!-- indexPeaks -->
<g id="node18" class="node">
<title>indexPeaks</title>
<path fill="lightskyblue" stroke="deepskyblue" d="M588.45,-334C588.45,-334 494.45,-334 494.45,-334 488.45,-334 482.45,-328 482.45,-322 482.45,-322 482.45,-308 482.45,-308 482.45,-302 488.45,-296 494.45,-296 494.45,-296 588.45,-296 588.45,-296 594.45,-296 600.45,-302 600.45,-308 600.45,-308 600.45,-322 600.45,-322 600.45,-328 594.45,-334 588.45,-334"/>
<text text-anchor="middle" x="541.45" y="-318.8" font-family="Helvetica,sans-Serif" font-size="14.00">IndexPeaks v1</text>
<text text-anchor="middle" x="541.45" y="-303.8" font-family="Helvetica,sans-Serif" font-size="14.00">(index peaks)</text>
</g>
<!-- convert2HKL&#45;&gt;mergeMD -->
<g id="edge29" class="edge">
<title>convert2HKL&#45;&gt;mergeMD</title>
<path fill="none" stroke="black" d="M729.36,-737.63C743.34,-728.61 760.63,-717.44 775.82,-707.64"/>
<polygon fill="black" stroke="black" points="777.66,-710.62 784.16,-702.26 773.86,-704.74 777.66,-710.62"/>
</g>
<!-- integratePeak -->
<g id="node21" class="node">
<title>integratePeak</title>
<path fill="lightskyblue" stroke="navy" d="M791.95,-333C791.95,-333 630.95,-333 630.95,-333 624.95,-333 618.95,-327 618.95,-321 618.95,-321 618.95,-309 618.95,-309 618.95,-303 624.95,-297 630.95,-297 630.95,-297 791.95,-297 791.95,-297 797.95,-297 803.95,-303 803.95,-309 803.95,-309 803.95,-321 803.95,-321 803.95,-327 797.95,-333 791.95,-333"/>
<text text-anchor="middle" x="711.45" y="-311.3" font-family="Helvetica,sans-Serif" font-size="14.00">IntegratePeaksCWSD v1</text>
</g>
<!-- peakWS2 -->
<g id="node26" class="node">
<title>peakWS2</title>
<polygon fill="grey" stroke="black" points="899.4,-259 600.41,-259 523.49,-223 822.49,-223 899.4,-259"/>
<text text-anchor="middle" x="711.45" y="-237.3" font-family="Times,serif" font-size="14.00">Integrated Peaks PeakWorkspace</text>
</g>
<!-- integratePeak&#45;&gt;peakWS2 -->
<g id="edge34" class="edge">
<title>integratePeak&#45;&gt;peakWS2</title>
<path fill="none" stroke="black" d="M711.45,-296.57C711.45,-288.79 711.45,-279.41 711.45,-270.64"/>
<polygon fill="black" stroke="black" points="714.95,-270.78 711.45,-260.78 707.95,-270.78 714.95,-270.78"/>
</g>
<!-- detMatrix&#45;&gt;collectExpInfo -->
<g id="edge8" class="edge">
<title>detMatrix&#45;&gt;collectExpInfo</title>
<path fill="none" stroke="black" d="M434.57,-737.63C456.6,-728.09 484.16,-716.16 507.68,-705.98"/>
<polygon fill="black" stroke="black" points="509,-709.22 516.78,-702.04 506.22,-702.8 509,-709.22"/>
</g>
<!-- spiceTable&#45;&gt;collectExpInfo -->
<g id="edge9" class="edge">
<title>spiceTable&#45;&gt;collectExpInfo</title>
<path fill="none" stroke="black" d="M557.59,-791.62C557.75,-771.19 558.02,-736.99 558.22,-712.62"/>
<polygon fill="black" stroke="black" points="561.72,-712.77 558.3,-702.75 554.72,-712.72 561.72,-712.77"/>
</g>
<!-- expScanMD&#45;&gt;findPeaks -->
<g id="edge12" class="edge">
<title>expScanMD&#45;&gt;findPeaks</title>
<path fill="none" stroke="black" d="M543.2,-516.81C535.69,-508.35 526.49,-497.98 518.17,-488.61"/>
<polygon fill="black" stroke="black" points="520.82,-486.32 511.56,-481.16 515.58,-490.96 520.82,-486.32"/>
</g>
<!-- expScanMD&#45;&gt;integratePeak -->
<g id="edge31" class="edge">
<title>expScanMD&#45;&gt;integratePeak</title>
<path fill="none" stroke="black" d="M561.77,-516.72C568.63,-484.82 586.97,-415.87 624.45,-371 635.15,-358.19 649.63,-347.4 663.7,-338.87"/>
<polygon fill="black" stroke="black" points="665.1,-342.1 672.02,-334.08 661.61,-336.03 665.1,-342.1"/>
</g>
<!-- peakWS&#45;&gt;combinePeaks -->
<g id="edge14" class="edge">
<title>peakWS&#45;&gt;combinePeaks</title>
<path fill="none" stroke="black" d="M399.7,-370.57C374.33,-360.91 342.51,-348.79 315.31,-338.42"/>
<polygon fill="black" stroke="black" points="316.75,-335.23 306.16,-334.94 314.26,-341.77 316.75,-335.23"/>
</g>
<!-- peakWS&#45;&gt;setUB -->
<g id="edge21" class="edge">
<title>peakWS&#45;&gt;setUB</title>
<path fill="none" stroke="black" d="M438.22,-370.54C436.45,-355.96 436.45,-334.62 436.45,-316 436.45,-316 436.45,-316 436.45,-92 436.45,-78.03 436.45,-62.53 437.2,-49.5"/>
<polygon fill="black" stroke="black" points="440.66,-50.11 437.99,-39.86 433.68,-49.53 440.66,-50.11"/>
</g>
<!-- peakWS&#45;&gt;indexPeaks -->
<g id="edge23" class="edge">
<title>peakWS&#45;&gt;indexPeaks</title>
<path fill="none" stroke="black" d="M468.69,-370.57C480.47,-361.73 495.01,-350.83 507.98,-341.1"/>
<polygon fill="black" stroke="black" points="509.97,-343.98 515.87,-335.18 505.77,-338.38 509.97,-343.98"/>
</g>
<!-- peakWS&#45;&gt;integratePeak -->
<g id="edge32" class="edge">
<title>peakWS&#45;&gt;integratePeak</title>
<path fill="none" stroke="black" d="M509.84,-370.57C547.93,-360.26 596.35,-347.15 636.19,-336.37"/>
<polygon fill="black" stroke="black" points="636.99,-339.78 645.73,-333.79 635.16,-333.02 636.99,-339.78"/>
</g>
<!-- combPeakWS&#45;&gt;calUB -->
<g id="edge16" class="edge">
<title>combPeakWS&#45;&gt;calUB</title>
<path fill="none" stroke="black" d="M171.83,-222.57C163.54,-214.33 154.26,-204.3 146.35,-195.1"/>
<polygon fill="black" stroke="black" points="149.05,-192.87 139.95,-187.44 143.67,-197.36 149.05,-192.87"/>
</g>
<!-- combPeakWS&#45;&gt;getUB -->
<g id="edge18" class="edge">
<title>combPeakWS&#45;&gt;getUB</title>
<path fill="none" stroke="black" d="M223.22,-222.57C238.91,-213.39 258.4,-201.98 275.49,-191.98"/>
<polygon fill="black" stroke="black" points="277.06,-195.11 283.92,-187.04 273.53,-189.07 277.06,-195.11"/>
</g>
<!-- maskWS -->
<g id="node28" class="node">
<title>maskWS</title>
<polygon fill="grey" stroke="black" points="841.19,-407 676.16,-407 633.71,-371 798.73,-371 841.19,-407"/>
<text text-anchor="middle" x="737.45" y="-385.3" font-family="Times,serif" font-size="14.00">Mask workspace</text>
</g>
<!-- maskWS&#45;&gt;integratePeak -->
<g id="edge33" class="edge">
<title>maskWS&#45;&gt;integratePeak</title>
<path fill="none" stroke="black" d="M731.15,-370.57C728.28,-362.61 724.8,-352.98 721.57,-344.05"/>
<polygon fill="black" stroke="black" points="724.89,-342.91 718.2,-334.69 718.3,-345.29 724.89,-342.91"/>
</g>
<!-- ubmatrix&#45;&gt;setUB -->
<g id="edge20" class="edge">
<title>ubmatrix&#45;&gt;setUB</title>
<path fill="none" stroke="black" d="M359.04,-74.57C373.45,-65.47 391.31,-54.19 407.04,-44.26"/>
<polygon fill="black" stroke="black" points="408.65,-47.38 415.23,-39.08 404.91,-41.46 408.65,-47.38"/>
</g>
</g>
</svg>
