<?xml version="1.0" encoding="UTF-8" standalone="no"?>
<!DOCTYPE svg PUBLIC "-//W3C//DTD SVG 1.1//EN"
 "http://www.w3.org/Graphics/SVG/1.1/DTD/svg11.dtd">
<!-- Generated by graphviz version 7.1.0 (20230122.1345)
 -->
<!-- Title: Container Pages: 1 -->
<svg width="721pt" height="642pt"
 viewBox="0.00 0.00 720.58 642.00" xmlns="http://www.w3.org/2000/svg" xmlns:xlink="http://www.w3.org/1999/xlink">
<g id="graph0" class="graph" transform="scale(1 1) rotate(0) translate(4 638)">
<title>Container</title>
<polygon fill="white" stroke="none" points="-4,4 -4,-638 716.58,-638 716.58,4 -4,4"/>
<!-- NormaliseBy -->
<g id="node1" class="node">
<title>NormaliseBy</title>
<polygon fill="limegreen" stroke="black" points="616.99,-488 521.3,-470 616.99,-452 712.67,-470 616.99,-488"/>
<text text-anchor="middle" x="616.99" y="-466.3" font-family="Helvetica,sans-Serif" font-size="14.00">NormaliseBy</text>
</g>
<!-- Divide -->
<g id="node8" class="node">
<title>Divide</title>
<path fill="lightskyblue" stroke="black" d="M634.99,-415C634.99,-415 598.99,-415 598.99,-415 592.99,-415 586.99,-409 586.99,-403 586.99,-403 586.99,-391 586.99,-391 586.99,-385 592.99,-379 598.99,-379 598.99,-379 634.99,-379 634.99,-379 640.99,-379 646.99,-385 646.99,-391 646.99,-391 646.99,-403 646.99,-403 646.99,-409 640.99,-415 634.99,-415"/>
<text text-anchor="middle" x="616.99" y="-393.3" font-family="Helvetica,sans-Serif" font-size="14.00">Divide</text>
</g>
<!-- NormaliseBy&#45;&gt;Divide -->
<g id="edge3" class="edge">
<title>NormaliseBy&#45;&gt;Divide</title>
<path fill="none" stroke="black" d="M616.99,-451.81C616.99,-444.23 616.99,-435.1 616.99,-426.54"/>
<polygon fill="black" stroke="black" points="620.49,-426.54 616.99,-416.54 613.49,-426.54 620.49,-426.54"/>
</g>
<!-- Run -->
<g id="node2" class="node">
<title>Run</title>
<ellipse fill="khaki" stroke="black" cx="616.99" cy="-616" rx="28.7" ry="18"/>
<text text-anchor="middle" x="616.99" y="-612.3" font-family="Helvetica,sans-Serif" font-size="14.00">Run</text>
</g>
<!-- LoadAndMerge -->
<g id="node7" class="node">
<title>LoadAndMerge</title>
<path fill="lightskyblue" stroke="black" d="M664.99,-561C664.99,-561 568.99,-561 568.99,-561 562.99,-561 556.99,-555 556.99,-549 556.99,-549 556.99,-537 556.99,-537 556.99,-531 562.99,-525 568.99,-525 568.99,-525 664.99,-525 664.99,-525 670.99,-525 676.99,-531 676.99,-537 676.99,-537 676.99,-549 676.99,-549 676.99,-555 670.99,-561 664.99,-561"/>
<text text-anchor="middle" x="616.99" y="-539.3" font-family="Helvetica,sans-Serif" font-size="14.00">LoadAndMerge</text>
</g>
<!-- Run&#45;&gt;LoadAndMerge -->
<g id="edge1" class="edge">
<title>Run&#45;&gt;LoadAndMerge</title>
<path fill="none" stroke="black" d="M616.99,-597.81C616.99,-590.23 616.99,-581.1 616.99,-572.54"/>
<polygon fill="black" stroke="black" points="620.49,-572.54 616.99,-562.54 613.49,-572.54 620.49,-572.54"/>
</g>
<!-- TransmissionInputWorkspace -->
<g id="node3" class="node">
<title>TransmissionInputWorkspace</title>
<ellipse fill="khaki" stroke="black" cx="142.99" cy="-164" rx="142.97" ry="18"/>
<text text-anchor="middle" x="142.99" y="-160.3" font-family="Helvetica,sans-Serif" font-size="14.00">TransmissionInputWorkspace</text>
</g>
<!-- ApplyTransmissionCorrection -->
<g id="node11" class="node">
<title>ApplyTransmissionCorrection</title>
<path fill="lightskyblue" stroke="black" d="M251.99,-109C251.99,-109 57.99,-109 57.99,-109 51.99,-109 45.99,-103 45.99,-97 45.99,-97 45.99,-85 45.99,-85 45.99,-79 51.99,-73 57.99,-73 57.99,-73 251.99,-73 251.99,-73 257.99,-73 263.99,-79 263.99,-85 263.99,-85 263.99,-97 263.99,-97 263.99,-103 257.99,-109 251.99,-109"/>
<text text-anchor="middle" x="154.99" y="-87.3" font-family="Helvetica,sans-Serif" font-size="14.00">ApplyTransmissionCorrection</text>
</g>
<!-- TransmissionInputWorkspace&#45;&gt;ApplyTransmissionCorrection -->
<g id="edge10" class="edge">
<title>TransmissionInputWorkspace&#45;&gt;ApplyTransmissionCorrection</title>
<path fill="none" stroke="black" d="M145.89,-145.81C147.19,-138.14 148.75,-128.89 150.21,-120.24"/>
<polygon fill="black" stroke="black" points="153.64,-120.96 151.86,-110.52 146.74,-119.8 153.64,-120.96"/>
</g>
<!-- BeamInputWorkspace -->
<g id="node4" class="node">
<title>BeamInputWorkspace</title>
<ellipse fill="khaki" stroke="black" cx="336.99" cy="-324" rx="109.68" ry="18"/>
<text text-anchor="middle" x="336.99" y="-320.3" font-family="Helvetica,sans-Serif" font-size="14.00">BeamInputWorkspace</text>
</g>
<!-- MoveInstrumentComponent -->
<g id="node10" class="node">
<title>MoveInstrumentComponent</title>
<path fill="lightskyblue" stroke="black" d="M442.49,-269C442.49,-269 255.49,-269 255.49,-269 249.49,-269 243.49,-263 243.49,-257 243.49,-257 243.49,-245 243.49,-245 243.49,-239 249.49,-233 255.49,-233 255.49,-233 442.49,-233 442.49,-233 448.49,-233 454.49,-239 454.49,-245 454.49,-245 454.49,-257 454.49,-257 454.49,-263 448.49,-269 442.49,-269"/>
<text text-anchor="middle" x="348.99" y="-247.3" font-family="Helvetica,sans-Serif" font-size="14.00">MoveInstrumentComponent</text>
</g>
<!-- BeamInputWorkspace&#45;&gt;MoveInstrumentComponent -->
<g id="edge7" class="edge">
<title>BeamInputWorkspace&#45;&gt;MoveInstrumentComponent</title>
<path fill="none" stroke="black" d="M339.89,-305.81C341.19,-298.14 342.75,-288.89 344.21,-280.24"/>
<polygon fill="black" stroke="black" points="347.64,-280.96 345.86,-270.52 340.74,-279.8 347.64,-280.96"/>
</g>
<!-- AbsorberInputWorkspace -->
<g id="node5" class="node">
<title>AbsorberInputWorkspace</title>
<ellipse fill="khaki" stroke="black" cx="443.99" cy="-397" rx="125.38" ry="18"/>
<text text-anchor="middle" x="443.99" y="-393.3" font-family="Helvetica,sans-Serif" font-size="14.00">AbsorberInputWorkspace</text>
</g>
<!-- Minus -->
<g id="node9" class="node">
<title>Minus</title>
<path fill="lightskyblue" stroke="black" d="M510.99,-342C510.99,-342 476.99,-342 476.99,-342 470.99,-342 464.99,-336 464.99,-330 464.99,-330 464.99,-318 464.99,-318 464.99,-312 470.99,-306 476.99,-306 476.99,-306 510.99,-306 510.99,-306 516.99,-306 522.99,-312 522.99,-318 522.99,-318 522.99,-330 522.99,-330 522.99,-336 516.99,-342 510.99,-342"/>
<text text-anchor="middle" x="493.99" y="-320.3" font-family="Helvetica,sans-Serif" font-size="14.00">Minus</text>
</g>
<!-- AbsorberInputWorkspace&#45;&gt;Minus -->
<g id="edge5" class="edge">
<title>AbsorberInputWorkspace&#45;&gt;Minus</title>
<path fill="none" stroke="black" d="M456.09,-378.81C461.93,-370.53 469.05,-360.41 475.54,-351.19"/>
<polygon fill="black" stroke="black" points="478.23,-353.46 481.12,-343.27 472.5,-349.43 478.23,-353.46"/>
</g>
<!-- OutputWorkspace -->
<g id="node6" class="node">
<title>OutputWorkspace</title>
<polygon fill="grey" stroke="black" points="263.76,-36 90.73,-36 46.22,0 219.25,0 263.76,-36"/>
<text text-anchor="middle" x="154.99" y="-14.3" font-family="Times,serif" font-size="14.00">OutputWorkspace</text>
</g>
<!-- LoadAndMerge&#45;&gt;NormaliseBy -->
<g id="edge2" class="edge">
<title>LoadAndMerge&#45;&gt;NormaliseBy</title>
<path fill="none" stroke="black" d="M616.99,-524.81C616.99,-517.23 616.99,-508.1 616.99,-499.54"/>
<polygon fill="black" stroke="black" points="620.49,-499.54 616.99,-489.54 613.49,-499.54 620.49,-499.54"/>
</g>
<!-- Divide&#45;&gt;Minus -->
<g id="edge4" class="edge">
<title>Divide&#45;&gt;Minus</title>
<path fill="none" stroke="black" d="M586.9,-378.63C570.73,-369.3 550.6,-357.68 533.21,-347.64"/>
<polygon fill="black" stroke="black" points="535.06,-344.67 524.65,-342.7 531.56,-350.73 535.06,-344.67"/>
</g>
<!-- Minus&#45;&gt;MoveInstrumentComponent -->
<g id="edge6" class="edge">
<title>Minus&#45;&gt;MoveInstrumentComponent</title>
<path fill="none" stroke="black" d="M464.64,-308.63C444.62,-298.83 417.7,-285.64 394.86,-274.46"/>
<polygon fill="black" stroke="black" points="396.58,-271.41 386.06,-270.15 393.5,-277.69 396.58,-271.41"/>
</g>
<!-- SolidAngle -->
<g id="node12" class="node">
<title>SolidAngle</title>
<path fill="lightskyblue" stroke="black" d="M381.99,-182C381.99,-182 315.99,-182 315.99,-182 309.99,-182 303.99,-176 303.99,-170 303.99,-170 303.99,-158 303.99,-158 303.99,-152 309.99,-146 315.99,-146 315.99,-146 381.99,-146 381.99,-146 387.99,-146 393.99,-152 393.99,-158 393.99,-158 393.99,-170 393.99,-170 393.99,-176 387.99,-182 381.99,-182"/>
<text text-anchor="middle" x="348.99" y="-160.3" font-family="Helvetica,sans-Serif" font-size="14.00">SolidAngle</text>
</g>
<!-- MoveInstrumentComponent&#45;&gt;SolidAngle -->
<g id="edge8" class="edge">
<title>MoveInstrumentComponent&#45;&gt;SolidAngle</title>
<path fill="none" stroke="black" d="M348.99,-232.8C348.99,-221.58 348.99,-206.67 348.99,-193.69"/>
<polygon fill="black" stroke="black" points="352.49,-193.98 348.99,-183.98 345.49,-193.98 352.49,-193.98"/>
<text text-anchor="middle" x="370.99" y="-203.8" font-family="Helvetica,sans-Serif" font-size="14.00">Divide</text>
</g>
<!-- ApplyTransmissionCorrection&#45;&gt;OutputWorkspace -->
<g id="edge11" class="edge">
<title>ApplyTransmissionCorrection&#45;&gt;OutputWorkspace</title>
<path fill="none" stroke="black" d="M154.99,-72.81C154.99,-65.23 154.99,-56.1 154.99,-47.54"/>
<polygon fill="black" stroke="black" points="158.49,-47.54 154.99,-37.54 151.49,-47.54 158.49,-47.54"/>
</g>
<!-- SolidAngle&#45;&gt;ApplyTransmissionCorrection -->
<g id="edge9" class="edge">
<title>SolidAngle&#45;&gt;ApplyTransmissionCorrection</title>
<path fill="none" stroke="black" d="M303.5,-146.35C276.59,-136.5 242.23,-123.93 213.33,-113.35"/>
<polygon fill="black" stroke="black" points="214.57,-110.08 203.97,-109.93 212.16,-116.65 214.57,-110.08"/>
</g>
</g>
</svg>
