<?xml version="1.0" encoding="UTF-8" standalone="no"?>
<!DOCTYPE svg PUBLIC "-//W3C//DTD SVG 1.1//EN"
 "http://www.w3.org/Graphics/SVG/1.1/DTD/svg11.dtd">
<!-- Generated by graphviz version 7.0.5 (20221231.0122)
 -->
<!-- Title: Transmission Pages: 1 -->
<svg width="510pt" height="620pt"
 viewBox="0.00 0.00 510.43 620.00" xmlns="http://www.w3.org/2000/svg" xmlns:xlink="http://www.w3.org/1999/xlink">
<g id="graph0" class="graph" transform="scale(1 1) rotate(0) translate(4 616)">
<title>Transmission</title>
<polygon fill="white" stroke="none" points="-4,4 -4,-616 506.43,-616 506.43,4 -4,4"/>
<!-- NormaliseBy -->
<g id="node1" class="node">
<title>NormaliseBy</title>
<polygon fill="limegreen" stroke="black" points="322.59,-468 226.91,-450 322.59,-432 418.28,-450 322.59,-468"/>
<text text-anchor="middle" x="322.59" y="-446.3" font-family="Helvetica,sans-Serif" font-size="14.00">NormaliseBy</text>
</g>
<!-- Divide -->
<g id="node10" class="node">
<title>Divide</title>
<path fill="lightskyblue" stroke="black" d="M340.59,-396C340.59,-396 304.59,-396 304.59,-396 298.59,-396 292.59,-390 292.59,-384 292.59,-384 292.59,-372 292.59,-372 292.59,-366 298.59,-360 304.59,-360 304.59,-360 340.59,-360 340.59,-360 346.59,-360 352.59,-366 352.59,-372 352.59,-372 352.59,-384 352.59,-384 352.59,-390 346.59,-396 340.59,-396"/>
<text text-anchor="middle" x="322.59" y="-374.3" font-family="Helvetica,sans-Serif" font-size="14.00">Divide</text>
</g>
<!-- NormaliseBy&#45;&gt;Divide -->
<g id="edge3" class="edge">
<title>NormaliseBy&#45;&gt;Divide</title>
<path fill="none" stroke="black" d="M322.59,-431.7C322.59,-424.41 322.59,-415.73 322.59,-407.54"/>
<polygon fill="black" stroke="black" points="326.09,-407.62 322.59,-397.62 319.09,-407.62 326.09,-407.62"/>
</g>
<!-- Run -->
<g id="node2" class="node">
<title>Run</title>
<ellipse fill="khaki" stroke="black" cx="322.59" cy="-594" rx="28.7" ry="18"/>
<text text-anchor="middle" x="322.59" y="-590.3" font-family="Helvetica,sans-Serif" font-size="14.00">Run</text>
</g>
<!-- LoadAndMerge -->
<g id="node9" class="node">
<title>LoadAndMerge</title>
<path fill="lightskyblue" stroke="black" d="M370.59,-540C370.59,-540 274.59,-540 274.59,-540 268.59,-540 262.59,-534 262.59,-528 262.59,-528 262.59,-516 262.59,-516 262.59,-510 268.59,-504 274.59,-504 274.59,-504 370.59,-504 370.59,-504 376.59,-504 382.59,-510 382.59,-516 382.59,-516 382.59,-528 382.59,-528 382.59,-534 376.59,-540 370.59,-540"/>
<text text-anchor="middle" x="322.59" y="-518.3" font-family="Helvetica,sans-Serif" font-size="14.00">LoadAndMerge</text>
</g>
<!-- Run&#45;&gt;LoadAndMerge -->
<g id="edge1" class="edge">
<title>Run&#45;&gt;LoadAndMerge</title>
<path fill="none" stroke="black" d="M322.59,-575.7C322.59,-568.41 322.59,-559.73 322.59,-551.54"/>
<polygon fill="black" stroke="black" points="326.09,-551.62 322.59,-541.62 319.09,-551.62 326.09,-551.62"/>
</g>
<!-- BeamRadius -->
<g id="node3" class="node">
<title>BeamRadius</title>
<ellipse fill="khaki" stroke="black" cx="67.59" cy="-234" rx="67.69" ry="18"/>
<text text-anchor="middle" x="67.59" y="-230.3" font-family="Helvetica,sans-Serif" font-size="14.00">BeamRadius</text>
</g>
<!-- CalculateTransmission -->
<g id="node12" class="node">
<title>CalculateTransmission</title>
<path fill="lightskyblue" stroke="black" d="M332.09,-180C332.09,-180 185.09,-180 185.09,-180 179.09,-180 173.09,-174 173.09,-168 173.09,-168 173.09,-156 173.09,-156 173.09,-150 179.09,-144 185.09,-144 185.09,-144 332.09,-144 332.09,-144 338.09,-144 344.09,-150 344.09,-156 344.09,-156 344.09,-168 344.09,-168 344.09,-174 338.09,-180 332.09,-180"/>
<text text-anchor="middle" x="258.59" y="-158.3" font-family="Helvetica,sans-Serif" font-size="14.00">CalculateTransmission</text>
</g>
<!-- BeamRadius&#45;&gt;CalculateTransmission -->
<g id="edge9" class="edge">
<title>BeamRadius&#45;&gt;CalculateTransmission</title>
<path fill="none" stroke="black" d="M106.25,-218.83C133.26,-208.94 169.8,-195.54 200.33,-184.35"/>
<polygon fill="black" stroke="black" points="201.25,-187.74 209.43,-181.02 198.84,-181.17 201.25,-187.74"/>
</g>
<!-- AbsorberInputWorkspace -->
<g id="node4" class="node">
<title>AbsorberInputWorkspace</title>
<ellipse fill="khaki" stroke="black" cx="149.59" cy="-378" rx="125.38" ry="18"/>
<text text-anchor="middle" x="149.59" y="-374.3" font-family="Helvetica,sans-Serif" font-size="14.00">AbsorberInputWorkspace</text>
</g>
<!-- Minus -->
<g id="node11" class="node">
<title>Minus</title>
<path fill="lightskyblue" stroke="black" d="M252.59,-324C252.59,-324 218.59,-324 218.59,-324 212.59,-324 206.59,-318 206.59,-312 206.59,-312 206.59,-300 206.59,-300 206.59,-294 212.59,-288 218.59,-288 218.59,-288 252.59,-288 252.59,-288 258.59,-288 264.59,-294 264.59,-300 264.59,-300 264.59,-312 264.59,-312 264.59,-318 258.59,-324 252.59,-324"/>
<text text-anchor="middle" x="235.59" y="-302.3" font-family="Helvetica,sans-Serif" font-size="14.00">Minus</text>
</g>
<!-- AbsorberInputWorkspace&#45;&gt;Minus -->
<g id="edge5" class="edge">
<title>AbsorberInputWorkspace&#45;&gt;Minus</title>
<path fill="none" stroke="black" d="M170.41,-360.05C180.92,-351.5 193.87,-340.96 205.45,-331.54"/>
<polygon fill="black" stroke="black" points="207.65,-334.26 213.2,-325.23 203.23,-328.83 207.65,-334.26"/>
</g>
<!-- BeamInputWorkspace -->
<g id="node5" class="node">
<title>BeamInputWorkspace</title>
<ellipse fill="khaki" stroke="black" cx="392.59" cy="-306" rx="109.68" ry="18"/>
<text text-anchor="middle" x="392.59" y="-302.3" font-family="Helvetica,sans-Serif" font-size="14.00">BeamInputWorkspace</text>
</g>
<!-- BeamInputWorkspace&#45;&gt;CalculateTransmission -->
<g id="edge10" class="edge">
<title>BeamInputWorkspace&#45;&gt;CalculateTransmission</title>
<path fill="none" stroke="black" d="M393.28,-287.68C393.14,-268.2 390.07,-236.61 373.59,-216 363.01,-202.76 348.36,-192.69 333.07,-185.08"/>
<polygon fill="black" stroke="black" points="334.88,-182.06 324.33,-181.06 331.95,-188.42 334.88,-182.06"/>
</g>
<!-- MoveInstrumentComponent -->
<g id="node13" class="node">
<title>MoveInstrumentComponent</title>
<path fill="lightskyblue" stroke="black" d="M352.09,-252C352.09,-252 165.09,-252 165.09,-252 159.09,-252 153.09,-246 153.09,-240 153.09,-240 153.09,-228 153.09,-228 153.09,-222 159.09,-216 165.09,-216 165.09,-216 352.09,-216 352.09,-216 358.09,-216 364.09,-222 364.09,-228 364.09,-228 364.09,-240 364.09,-240 364.09,-246 358.09,-252 352.09,-252"/>
<text text-anchor="middle" x="258.59" y="-230.3" font-family="Helvetica,sans-Serif" font-size="14.00">MoveInstrumentComponent</text>
</g>
<!-- BeamInputWorkspace&#45;&gt;MoveInstrumentComponent -->
<g id="edge7" class="edge">
<title>BeamInputWorkspace&#45;&gt;MoveInstrumentComponent</title>
<path fill="none" stroke="black" d="M360.84,-288.41C343.26,-279.23 321.15,-267.68 301.99,-257.67"/>
<polygon fill="black" stroke="black" points="303.82,-254.68 293.33,-253.15 300.58,-260.88 303.82,-254.68"/>
</g>
<!-- TransmissionValue -->
<g id="node6" class="node">
<title>TransmissionValue</title>
<polygon fill="grey" stroke="black" points="250.71,-108 67.59,-108 20.48,-72 203.6,-72 250.71,-108"/>
<text text-anchor="middle" x="135.59" y="-86.3" font-family="Times,serif" font-size="14.00">TransmissionValue</text>
</g>
<!-- OutputWorkspace -->
<g id="node8" class="node">
<title>OutputWorkspace</title>
<polygon fill="grey" stroke="black" points="367.36,-36 194.34,-36 149.82,0 322.85,0 367.36,-36"/>
<text text-anchor="middle" x="258.59" y="-14.3" font-family="Times,serif" font-size="14.00">OutputWorkspace</text>
</g>
<!-- TransmissionValue&#45;&gt;OutputWorkspace -->
<g id="edge13" class="edge">
<title>TransmissionValue&#45;&gt;OutputWorkspace</title>
<path fill="none" stroke="black" d="M166.31,-71.52C182.14,-62.51 201.62,-51.42 218.6,-41.76"/>
<polygon fill="black" stroke="black" points="219.99,-45 226.95,-37.01 216.53,-38.91 219.99,-45"/>
</g>
<!-- TransmissionError -->
<g id="node7" class="node">
<title>TransmissionError</title>
<polygon fill="grey" stroke="black" points="495.89,-108 315.66,-108 269.29,-72 449.53,-72 495.89,-108"/>
<text text-anchor="middle" x="382.59" y="-86.3" font-family="Times,serif" font-size="14.00">TransmissionError</text>
</g>
<!-- TransmissionError&#45;&gt;OutputWorkspace -->
<g id="edge14" class="edge">
<title>TransmissionError&#45;&gt;OutputWorkspace</title>
<path fill="none" stroke="black" d="M351.62,-71.52C335.67,-62.51 316.03,-51.42 298.91,-41.76"/>
<polygon fill="black" stroke="black" points="300.92,-38.87 290.49,-37 297.48,-44.97 300.92,-38.87"/>
</g>
<!-- LoadAndMerge&#45;&gt;NormaliseBy -->
<g id="edge2" class="edge">
<title>LoadAndMerge&#45;&gt;NormaliseBy</title>
<path fill="none" stroke="black" d="M322.59,-503.7C322.59,-496.41 322.59,-487.73 322.59,-479.54"/>
<polygon fill="black" stroke="black" points="326.09,-479.62 322.59,-469.62 319.09,-479.62 326.09,-479.62"/>
</g>
<!-- Divide&#45;&gt;Minus -->
<g id="edge4" class="edge">
<title>Divide&#45;&gt;Minus</title>
<path fill="none" stroke="black" d="M301.09,-359.7C290.53,-351.2 277.62,-340.81 266.06,-331.51"/>
<polygon fill="black" stroke="black" points="268.32,-328.84 258.33,-325.3 263.93,-334.29 268.32,-328.84"/>
</g>
<!-- Minus&#45;&gt;MoveInstrumentComponent -->
<g id="edge6" class="edge">
<title>Minus&#45;&gt;MoveInstrumentComponent</title>
<path fill="none" stroke="black" d="M241.28,-287.7C243.73,-280.24 246.66,-271.32 249.41,-262.97"/>
<polygon fill="black" stroke="black" points="252.71,-264.14 252.5,-253.54 246.05,-261.95 252.71,-264.14"/>
</g>
<!-- CalculateTransmission&#45;&gt;TransmissionValue -->
<g id="edge11" class="edge">
<title>CalculateTransmission&#45;&gt;TransmissionValue</title>
<path fill="none" stroke="black" d="M227.87,-143.52C212.05,-134.51 192.57,-123.42 175.59,-113.76"/>
<polygon fill="black" stroke="black" points="177.66,-110.91 167.24,-109.01 174.2,-117 177.66,-110.91"/>
</g>
<!-- CalculateTransmission&#45;&gt;TransmissionError -->
<g id="edge12" class="edge">
<title>CalculateTransmission&#45;&gt;TransmissionError</title>
<path fill="none" stroke="black" d="M289.56,-143.52C305.52,-134.51 325.16,-123.42 342.28,-113.76"/>
<polygon fill="black" stroke="black" points="343.71,-116.97 350.7,-109 340.27,-110.87 343.71,-116.97"/>
</g>
<!-- MoveInstrumentComponent&#45;&gt;CalculateTransmission -->
<g id="edge8" class="edge">
<title>MoveInstrumentComponent&#45;&gt;CalculateTransmission</title>
<path fill="none" stroke="black" d="M258.59,-215.7C258.59,-208.41 258.59,-199.73 258.59,-191.54"/>
<polygon fill="black" stroke="black" points="262.09,-191.62 258.59,-181.62 255.09,-191.62 262.09,-191.62"/>
</g>
</g>
</svg>
