<?xml version="1.0" encoding="UTF-8" standalone="no"?>
<!DOCTYPE svg PUBLIC "-//W3C//DTD SVG 1.1//EN"
 "http://www.w3.org/Graphics/SVG/1.1/DTD/svg11.dtd">
<!-- Generated by graphviz version 13.1.1 (20250720.1534)
 -->
<!-- Title: FullTreatment Pages: 1 -->
<svg width="280pt" height="404pt"
 viewBox="0.00 0.00 280.00 404.00" xmlns="http://www.w3.org/2000/svg" xmlns:xlink="http://www.w3.org/1999/xlink">
<g id="graph0" class="graph" transform="scale(1 1) rotate(0) translate(4 400)">
<title>FullTreatment</title>
<polygon fill="white" stroke="none" points="-4,4 -4,-400 276,-400 276,4 -4,4"/>
<!-- A -->
<g id="node1" class="node">
<title>A</title>
<ellipse fill="khaki" stroke="black" cx="158" cy="-378" rx="27" ry="18"/>
<text xml:space="preserve" text-anchor="middle" x="158" y="-373.32" font-family="Helvetica,sans-Serif" font-size="14.00">A</text>
</g>
<!-- B -->
<g id="node2" class="node">
<title>B</title>
<ellipse fill="khaki" stroke="black" cx="65" cy="-306" rx="27" ry="18"/>
<text xml:space="preserve" text-anchor="middle" x="65" y="-301.32" font-family="Helvetica,sans-Serif" font-size="14.00">B</text>
</g>
<!-- A&#45;&gt;B -->
<g id="edge1" class="edge">
<title>A&#45;&gt;B</title>
<path fill="none" stroke="black" d="M140.51,-363.83C126.61,-353.37 106.95,-338.58 91.18,-326.7"/>
<polygon fill="black" stroke="black" points="93.72,-324.24 83.62,-321.02 89.51,-329.83 93.72,-324.24"/>
</g>
<!-- T -->
<g id="node3" class="node">
<title>T</title>
<ellipse fill="khaki" stroke="black" cx="27" cy="-234" rx="27" ry="18"/>
<text xml:space="preserve" text-anchor="middle" x="27" y="-229.32" font-family="Helvetica,sans-Serif" font-size="14.00">T</text>
</g>
<!-- A&#45;&gt;T -->
<g id="edge2" class="edge">
<title>A&#45;&gt;T</title>
<path fill="none" stroke="black" d="M149.95,-360.61C140.14,-341.7 122.22,-310.36 101,-288 88,-274.31 71.03,-261.86 56.61,-252.47"/>
<polygon fill="black" stroke="black" points="58.73,-249.67 48.4,-247.29 54.99,-255.59 58.73,-249.67"/>
</g>
<!-- C -->
<g id="node4" class="node">
<title>C</title>
<ellipse fill="khaki" stroke="black" cx="27" cy="-162" rx="27" ry="18"/>
<text xml:space="preserve" text-anchor="middle" x="27" y="-157.32" font-family="Helvetica,sans-Serif" font-size="14.00">C</text>
</g>
<!-- A&#45;&gt;C -->
<g id="edge3" class="edge">
<title>A&#45;&gt;C</title>
<path fill="none" stroke="black" d="M153.64,-359.74C148.68,-341.41 139.72,-311.86 128,-288 111.04,-253.48 104.38,-245.74 80,-216 71.16,-205.21 60.43,-194.17 50.94,-184.97"/>
<polygon fill="black" stroke="black" points="53.43,-182.5 43.77,-178.15 48.6,-187.58 53.43,-182.5"/>
</g>
<!-- R -->
<g id="node5" class="node">
<title>R</title>
<ellipse fill="khaki" stroke="black" cx="65" cy="-90" rx="27" ry="18"/>
<text xml:space="preserve" text-anchor="middle" x="65" y="-85.33" font-family="Helvetica,sans-Serif" font-size="14.00">R</text>
</g>
<!-- A&#45;&gt;R -->
<g id="edge4" class="edge">
<title>A&#45;&gt;R</title>
<path fill="none" stroke="black" d="M157.54,-359.73C156.76,-341.64 154.66,-312.52 149,-288 133.67,-221.55 125.11,-205.67 96,-144 91.67,-134.82 86.26,-125.13 81.19,-116.58"/>
<polygon fill="black" stroke="black" points="84.23,-114.85 76.04,-108.13 78.25,-118.49 84.23,-114.85"/>
</g>
<!-- S -->
<g id="node6" class="node">
<title>S</title>
<ellipse fill="khaki" stroke="black" cx="158" cy="-18" rx="27" ry="18"/>
<text xml:space="preserve" text-anchor="middle" x="158" y="-13.32" font-family="Helvetica,sans-Serif" font-size="14.00">S</text>
</g>
<!-- A&#45;&gt;S -->
<g id="edge5" class="edge">
<title>A&#45;&gt;S</title>
<path fill="none" stroke="black" d="M177.34,-365.19C209.86,-343.67 272,-294.75 272,-235 272,-235 272,-235 272,-161 272,-106.62 220.53,-61.2 186.76,-37.26"/>
<polygon fill="black" stroke="black" points="188.82,-34.43 178.59,-31.67 184.86,-40.2 188.82,-34.43"/>
</g>
<!-- B&#45;&gt;T -->
<g id="edge6" class="edge">
<title>B&#45;&gt;T</title>
<path fill="none" stroke="black" d="M56.19,-288.76C51.73,-280.55 46.2,-270.37 41.16,-261.09"/>
<polygon fill="black" stroke="black" points="44.33,-259.6 36.49,-252.48 38.18,-262.94 44.33,-259.6"/>
</g>
<!-- B&#45;&gt;C -->
<g id="edge7" class="edge">
<title>B&#45;&gt;C</title>
<path fill="none" stroke="black" d="M67.44,-287.8C69.39,-269.52 70.67,-239.99 63,-216 59.7,-205.69 53.7,-195.55 47.54,-186.95"/>
<polygon fill="black" stroke="black" points="50.43,-184.97 41.56,-179.17 44.88,-189.23 50.43,-184.97"/>
</g>
<!-- B&#45;&gt;R -->
<g id="edge8" class="edge">
<title>B&#45;&gt;R</title>
<path fill="none" stroke="black" d="M71.08,-288.07C74.45,-277.79 78.29,-264.31 80,-252 86.6,-204.46 86.6,-191.54 80,-144 78.85,-135.73 76.74,-126.93 74.46,-118.93"/>
<polygon fill="black" stroke="black" points="77.81,-117.91 71.53,-109.38 71.11,-119.96 77.81,-117.91"/>
</g>
<!-- B&#45;&gt;S -->
<g id="edge9" class="edge">
<title>B&#45;&gt;S</title>
<path fill="none" stroke="black" d="M75.26,-289.16C81.7,-278.83 89.9,-264.92 96,-252 125.11,-190.33 133.67,-174.45 149,-108 153.57,-88.18 155.82,-65.34 156.93,-47.76"/>
<polygon fill="black" stroke="black" points="160.42,-47.95 157.46,-37.78 153.43,-47.58 160.42,-47.95"/>
</g>
<!-- T&#45;&gt;C -->
<g id="edge10" class="edge">
<title>T&#45;&gt;C</title>
<path fill="none" stroke="black" d="M27,-215.7C27,-208.41 27,-199.73 27,-191.54"/>
<polygon fill="black" stroke="black" points="30.5,-191.62 27,-181.62 23.5,-191.62 30.5,-191.62"/>
</g>
<!-- T&#45;&gt;R -->
<g id="edge11" class="edge">
<title>T&#45;&gt;R</title>
<path fill="none" stroke="black" d="M40.64,-218.03C48.81,-208.05 58.46,-194.2 63,-180 69.24,-160.5 69.55,-137.36 68.41,-119.56"/>
<polygon fill="black" stroke="black" points="71.91,-119.38 67.57,-109.71 64.93,-119.97 71.91,-119.38"/>
</g>
<!-- T&#45;&gt;S -->
<g id="edge12" class="edge">
<title>T&#45;&gt;S</title>
<path fill="none" stroke="black" d="M42.67,-218.89C53.68,-208.62 68.45,-194.09 80,-180 104.38,-150.26 111.04,-142.52 128,-108 137.61,-88.43 145.37,-65.02 150.58,-47.13"/>
<polygon fill="black" stroke="black" points="153.89,-48.29 153.23,-37.72 147.15,-46.39 153.89,-48.29"/>
</g>
<!-- C&#45;&gt;R -->
<g id="edge13" class="edge">
<title>C&#45;&gt;R</title>
<path fill="none" stroke="black" d="M35.81,-144.76C40.27,-136.55 45.8,-126.37 50.84,-117.09"/>
<polygon fill="black" stroke="black" points="53.82,-118.94 55.51,-108.48 47.67,-115.6 53.82,-118.94"/>
</g>
<!-- C&#45;&gt;S -->
<g id="edge14" class="edge">
<title>C&#45;&gt;S</title>
<path fill="none" stroke="black" d="M47.12,-149.52C62.98,-139.82 85.01,-124.85 101,-108 118.83,-89.23 134.32,-64.11 144.63,-45.35"/>
<polygon fill="black" stroke="black" points="147.61,-47.2 149.24,-36.73 141.44,-43.9 147.61,-47.2"/>
</g>
<!-- R&#45;&gt;S -->
<g id="edge15" class="edge">
<title>R&#45;&gt;S</title>
<path fill="none" stroke="black" d="M82.49,-75.83C96.39,-65.37 116.05,-50.58 131.82,-38.7"/>
<polygon fill="black" stroke="black" points="133.49,-41.83 139.38,-33.02 129.28,-36.24 133.49,-41.83"/>
</g>
</g>
</svg>
