<?xml version="1.0" encoding="UTF-8" standalone="no"?>
<!DOCTYPE svg PUBLIC "-//W3C//DTD SVG 1.1//EN"
 "http://www.w3.org/Graphics/SVG/1.1/DTD/svg11.dtd">
<!-- Generated by graphviz version 9.0.0 (20231125.0833)
 -->
<!-- Title: Container Pages: 1 -->
<svg width="805pt" height="571pt"
 viewBox="0.00 0.00 805.20 571.25" xmlns="http://www.w3.org/2000/svg" xmlns:xlink="http://www.w3.org/1999/xlink">
<g id="graph0" class="graph" transform="scale(1 1) rotate(0) translate(4 567.25)">
<title>Container</title>
<polygon fill="white" stroke="none" points="-4,4 -4,-567.25 801.2,-567.25 801.2,4 -4,4"/>
<!-- NormaliseBy -->
<g id="node1" class="node">
<title>NormaliseBy</title>
<polygon fill="limegreen" stroke="black" points="102.18,-490.25 0,-472.25 102.18,-454.25 204.36,-472.25 102.18,-490.25"/>
<text text-anchor="middle" x="102.18" y="-467.57" font-family="Helvetica,sans-Serif" font-size="14.00">NormaliseBy</text>
</g>
<!-- Divide -->
<g id="node9" class="node">
<title>Divide</title>
<path fill="lightskyblue" stroke="black" d="M131.93,-417.25C131.93,-417.25 96.43,-417.25 96.43,-417.25 90.43,-417.25 84.43,-411.25 84.43,-405.25 84.43,-405.25 84.43,-393.25 84.43,-393.25 84.43,-387.25 90.43,-381.25 96.43,-381.25 96.43,-381.25 131.93,-381.25 131.93,-381.25 137.93,-381.25 143.93,-387.25 143.93,-393.25 143.93,-393.25 143.93,-405.25 143.93,-405.25 143.93,-411.25 137.93,-417.25 131.93,-417.25"/>
<text text-anchor="middle" x="114.18" y="-394.57" font-family="Helvetica,sans-Serif" font-size="14.00">Divide</text>
</g>
<!-- NormaliseBy&#45;&gt;Divide -->
<g id="edge3" class="edge">
<title>NormaliseBy&#45;&gt;Divide</title>
<path fill="none" stroke="black" d="M105.02,-454.42C106.31,-446.81 107.87,-437.6 109.33,-428.95"/>
<polygon fill="black" stroke="black" points="112.76,-429.63 110.98,-419.19 105.86,-428.47 112.76,-429.63"/>
</g>
<!-- Runs -->
<g id="node2" class="node">
<title>Runs</title>
<ellipse fill="khaki" stroke="black" cx="282.18" cy="-545.25" rx="35.42" ry="18"/>
<text text-anchor="middle" x="282.18" y="-540.58" font-family="Helvetica,sans-Serif" font-size="14.00">Runs</text>
</g>
<!-- LoadAndMerge -->
<g id="node8" class="node">
<title>LoadAndMerge</title>
<path fill="lightskyblue" stroke="black" d="M329.93,-490.25C329.93,-490.25 234.43,-490.25 234.43,-490.25 228.43,-490.25 222.43,-484.25 222.43,-478.25 222.43,-478.25 222.43,-466.25 222.43,-466.25 222.43,-460.25 228.43,-454.25 234.43,-454.25 234.43,-454.25 329.93,-454.25 329.93,-454.25 335.93,-454.25 341.93,-460.25 341.93,-466.25 341.93,-466.25 341.93,-478.25 341.93,-478.25 341.93,-484.25 335.93,-490.25 329.93,-490.25"/>
<text text-anchor="middle" x="282.18" y="-467.57" font-family="Helvetica,sans-Serif" font-size="14.00">LoadAndMerge</text>
</g>
<!-- Runs&#45;&gt;LoadAndMerge -->
<g id="edge1" class="edge">
<title>Runs&#45;&gt;LoadAndMerge</title>
<path fill="none" stroke="black" d="M282.18,-527.06C282.18,-519.48 282.18,-510.35 282.18,-501.79"/>
<polygon fill="black" stroke="black" points="285.68,-501.79 282.18,-491.79 278.68,-501.79 285.68,-501.79"/>
</g>
<!-- BeamCenter -->
<g id="node3" class="node">
<title>BeamCenter</title>
<ellipse fill="khaki" stroke="black" cx="522.18" cy="-326.25" rx="71.73" ry="18"/>
<text text-anchor="middle" x="522.18" y="-321.57" font-family="Helvetica,sans-Serif" font-size="14.00">BeamCenter</text>
</g>
<!-- MoveInstrumentComponent -->
<g id="node11" class="node">
<title>MoveInstrumentComponent</title>
<path fill="lightskyblue" stroke="black" d="M511.31,-271.25C511.31,-271.25 325.06,-271.25 325.06,-271.25 319.06,-271.25 313.06,-265.25 313.06,-259.25 313.06,-259.25 313.06,-247.25 313.06,-247.25 313.06,-241.25 319.06,-235.25 325.06,-235.25 325.06,-235.25 511.31,-235.25 511.31,-235.25 517.31,-235.25 523.31,-241.25 523.31,-247.25 523.31,-247.25 523.31,-259.25 523.31,-259.25 523.31,-265.25 517.31,-271.25 511.31,-271.25"/>
<text text-anchor="middle" x="418.18" y="-248.57" font-family="Helvetica,sans-Serif" font-size="14.00">MoveInstrumentComponent</text>
</g>
<!-- BeamCenter&#45;&gt;MoveInstrumentComponent -->
<g id="edge8" class="edge">
<title>BeamCenter&#45;&gt;MoveInstrumentComponent</title>
<path fill="none" stroke="black" d="M498.32,-308.96C484.94,-299.83 468,-288.26 453.15,-278.12"/>
<polygon fill="black" stroke="black" points="455.23,-275.3 445,-272.56 451.28,-281.09 455.23,-275.3"/>
</g>
<!-- TransmissionWorkspace -->
<g id="node4" class="node">
<title>TransmissionWorkspace</title>
<ellipse fill="khaki" stroke="black" cx="669.18" cy="-253.25" rx="128.02" ry="18"/>
<text text-anchor="middle" x="669.18" y="-248.57" font-family="Helvetica,sans-Serif" font-size="14.00">TransmissionWorkspace</text>
</g>
<!-- ApplyTransmissionCorrection -->
<g id="node12" class="node">
<title>ApplyTransmissionCorrection</title>
<path fill="lightskyblue" stroke="black" d="M639.68,-198.25C639.68,-198.25 446.68,-198.25 446.68,-198.25 440.68,-198.25 434.68,-192.25 434.68,-186.25 434.68,-186.25 434.68,-174.25 434.68,-174.25 434.68,-168.25 440.68,-162.25 446.68,-162.25 446.68,-162.25 639.68,-162.25 639.68,-162.25 645.68,-162.25 651.68,-168.25 651.68,-174.25 651.68,-174.25 651.68,-186.25 651.68,-186.25 651.68,-192.25 645.68,-198.25 639.68,-198.25"/>
<text text-anchor="middle" x="543.18" y="-175.57" font-family="Helvetica,sans-Serif" font-size="14.00">ApplyTransmissionCorrection</text>
</g>
<!-- TransmissionWorkspace&#45;&gt;ApplyTransmissionCorrection -->
<g id="edge10" class="edge">
<title>TransmissionWorkspace&#45;&gt;ApplyTransmissionCorrection</title>
<path fill="none" stroke="black" d="M639.32,-235.42C622.82,-226.13 602.08,-214.44 584.09,-204.3"/>
<polygon fill="black" stroke="black" points="585.89,-201.3 575.46,-199.44 582.45,-207.4 585.89,-201.3"/>
</g>
<!-- DarkCurrentWorkspace -->
<g id="node5" class="node">
<title>DarkCurrentWorkspace</title>
<ellipse fill="khaki" stroke="black" cx="286.18" cy="-399.25" rx="123.81" ry="18"/>
<text text-anchor="middle" x="286.18" y="-394.57" font-family="Helvetica,sans-Serif" font-size="14.00">DarkCurrentWorkspace</text>
</g>
<!-- Minus -->
<g id="node10" class="node">
<title>Minus</title>
<path fill="lightskyblue" stroke="black" d="M302.81,-344.25C302.81,-344.25 269.56,-344.25 269.56,-344.25 263.56,-344.25 257.56,-338.25 257.56,-332.25 257.56,-332.25 257.56,-320.25 257.56,-320.25 257.56,-314.25 263.56,-308.25 269.56,-308.25 269.56,-308.25 302.81,-308.25 302.81,-308.25 308.81,-308.25 314.81,-314.25 314.81,-320.25 314.81,-320.25 314.81,-332.25 314.81,-332.25 314.81,-338.25 308.81,-344.25 302.81,-344.25"/>
<text text-anchor="middle" x="286.18" y="-321.57" font-family="Helvetica,sans-Serif" font-size="14.00">Minus</text>
</g>
<!-- DarkCurrentWorkspace&#45;&gt;Minus -->
<g id="edge5" class="edge">
<title>DarkCurrentWorkspace&#45;&gt;Minus</title>
<path fill="none" stroke="black" d="M286.18,-381.06C286.18,-373.48 286.18,-364.35 286.18,-355.79"/>
<polygon fill="black" stroke="black" points="289.68,-355.79 286.18,-345.79 282.68,-355.79 289.68,-355.79"/>
</g>
<!-- EmptyBeamWorkspace -->
<g id="node6" class="node">
<title>EmptyBeamWorkspace</title>
<ellipse fill="khaki" stroke="black" cx="552.18" cy="-399.25" rx="123.81" ry="18"/>
<text text-anchor="middle" x="552.18" y="-394.57" font-family="Helvetica,sans-Serif" font-size="14.00">EmptyBeamWorkspace</text>
</g>
<!-- EmptyBeamWorkspace&#45;&gt;BeamCenter -->
<g id="edge7" class="edge">
<title>EmptyBeamWorkspace&#45;&gt;BeamCenter</title>
<path fill="none" stroke="black" d="M544.92,-381.06C541.56,-373.13 537.5,-363.51 533.74,-354.61"/>
<polygon fill="black" stroke="black" points="537.08,-353.52 529.96,-345.67 530.63,-356.25 537.08,-353.52"/>
</g>
<!-- OutputWorkspace -->
<g id="node7" class="node">
<title>OutputWorkspace</title>
<polygon fill="grey" stroke="black" points="649.02,-36 480.65,-36 437.34,0 605.71,0 649.02,-36"/>
<text text-anchor="middle" x="543.18" y="-11.82" font-family="Times,serif" font-size="14.00">OutputWorkspace</text>
</g>
<!-- LoadAndMerge&#45;&gt;Divide -->
<g id="edge2" class="edge">
<title>LoadAndMerge&#45;&gt;Divide</title>
<path fill="none" stroke="black" d="M239.99,-453.77C217.13,-444.26 188.15,-432.14 154.86,-417.94"/>
<polygon fill="black" stroke="black" points="156.36,-414.78 145.79,-414.07 153.61,-421.21 156.36,-414.78"/>
</g>
<!-- Divide&#45;&gt;Minus -->
<g id="edge4" class="edge">
<title>Divide&#45;&gt;Minus</title>
<path fill="none" stroke="black" d="M144.38,-385C147.35,-383.72 150.32,-382.45 153.18,-381.25 184.57,-368.04 220.35,-353.54 246.89,-342.9"/>
<polygon fill="black" stroke="black" points="247.91,-346.26 255.89,-339.29 245.31,-339.76 247.91,-346.26"/>
</g>
<!-- Minus&#45;&gt;MoveInstrumentComponent -->
<g id="edge6" class="edge">
<title>Minus&#45;&gt;MoveInstrumentComponent</title>
<path fill="none" stroke="black" d="M315.15,-309.67C332.99,-300.07 356.16,-287.61 376.01,-276.93"/>
<polygon fill="black" stroke="black" points="377.56,-280.07 384.71,-272.25 374.24,-273.91 377.56,-280.07"/>
</g>
<!-- MoveInstrumentComponent&#45;&gt;ApplyTransmissionCorrection -->
<g id="edge9" class="edge">
<title>MoveInstrumentComponent&#45;&gt;ApplyTransmissionCorrection</title>
<path fill="none" stroke="black" d="M448.76,-234.88C464.95,-225.68 485.05,-214.27 502.54,-204.33"/>
<polygon fill="black" stroke="black" points="504.2,-207.42 511.17,-199.43 500.74,-201.33 504.2,-207.42"/>
</g>
<!-- Divide2 -->
<g id="node13" class="node">
<title>Divide2</title>
<path fill="lightskyblue" stroke="black" d="M560.93,-109C560.93,-109 525.43,-109 525.43,-109 519.43,-109 513.43,-103 513.43,-97 513.43,-97 513.43,-85 513.43,-85 513.43,-79 519.43,-73 525.43,-73 525.43,-73 560.93,-73 560.93,-73 566.93,-73 572.93,-79 572.93,-85 572.93,-85 572.93,-97 572.93,-97 572.93,-103 566.93,-109 560.93,-109"/>
<text text-anchor="middle" x="543.18" y="-86.33" font-family="Helvetica,sans-Serif" font-size="14.00">Divide</text>
</g>
<!-- ApplyTransmissionCorrection&#45;&gt;Divide2 -->
<g id="edge11" class="edge">
<title>ApplyTransmissionCorrection&#45;&gt;Divide2</title>
<path fill="none" stroke="black" d="M543.18,-162.01C543.18,-150.18 543.18,-134.2 543.18,-120.5"/>
<polygon fill="black" stroke="black" points="546.68,-120.72 543.18,-110.72 539.68,-120.72 546.68,-120.72"/>
<text text-anchor="middle" x="579.93" y="-130.95" font-family="Helvetica,sans-Serif" font-size="14.00">SolidAngle</text>
</g>
<!-- Divide2&#45;&gt;OutputWorkspace -->
<g id="edge12" class="edge">
<title>Divide2&#45;&gt;OutputWorkspace</title>
<path fill="none" stroke="black" d="M543.18,-72.81C543.18,-65.23 543.18,-56.1 543.18,-47.54"/>
<polygon fill="black" stroke="black" points="546.68,-47.54 543.18,-37.54 539.68,-47.54 546.68,-47.54"/>
</g>
</g>
</svg>
