<?xml version="1.0" encoding="UTF-8" standalone="no"?>
<!DOCTYPE svg PUBLIC "-//W3C//DTD SVG 1.1//EN"
 "http://www.w3.org/Graphics/SVG/1.1/DTD/svg11.dtd">
<!-- Generated by graphviz version 11.0.0 (20240519.1550)
 -->
<!-- Title: Sample Pages: 1 -->
<svg width="725pt" height="1167pt"
 viewBox="0.00 0.00 724.57 1166.50" xmlns="http://www.w3.org/2000/svg" xmlns:xlink="http://www.w3.org/1999/xlink">
<g id="graph0" class="graph" transform="scale(1 1) rotate(0) translate(4 1162.5)">
<title>Sample</title>
<polygon fill="white" stroke="none" points="-4,4 -4,-1162.5 720.57,-1162.5 720.57,4 -4,4"/>
<!-- NormaliseBy -->
<g id="node1" class="node">
<title>NormaliseBy</title>
<polygon fill="limegreen" stroke="black" points="414.02,-1014.5 311.84,-996.5 414.02,-978.5 516.2,-996.5 414.02,-1014.5"/>
<text text-anchor="middle" x="414.02" y="-991.83" font-family="Helvetica,sans-Serif" font-size="14.00">NormaliseBy</text>
</g>
<!-- Divide -->
<g id="node14" class="node">
<title>Divide</title>
<path fill="lightskyblue" stroke="black" d="M431.77,-942.5C431.77,-942.5 396.27,-942.5 396.27,-942.5 390.27,-942.5 384.27,-936.5 384.27,-930.5 384.27,-930.5 384.27,-918.5 384.27,-918.5 384.27,-912.5 390.27,-906.5 396.27,-906.5 396.27,-906.5 431.77,-906.5 431.77,-906.5 437.77,-906.5 443.77,-912.5 443.77,-918.5 443.77,-918.5 443.77,-930.5 443.77,-930.5 443.77,-936.5 437.77,-942.5 431.77,-942.5"/>
<text text-anchor="middle" x="414.02" y="-919.83" font-family="Helvetica,sans-Serif" font-size="14.00">Divide</text>
</g>
<!-- NormaliseBy&#45;&gt;Divide -->
<g id="edge3" class="edge">
<title>NormaliseBy&#45;&gt;Divide</title>
<path fill="none" stroke="black" d="M414.02,-978.2C414.02,-970.91 414.02,-962.23 414.02,-954.04"/>
<polygon fill="black" stroke="black" points="417.52,-954.12 414.02,-944.12 410.52,-954.12 417.52,-954.12"/>
</g>
<!-- AbsoluteScaleBy -->
<g id="node2" class="node">
<title>AbsoluteScaleBy</title>
<polygon fill="limegreen" stroke="black" points="291.02,-343.25 160.57,-325.25 291.02,-307.25 421.48,-325.25 291.02,-343.25"/>
<text text-anchor="middle" x="291.02" y="-320.57" font-family="Helvetica,sans-Serif" font-size="14.00">AbsoluteScaleBy</text>
</g>
<!-- Divide2 -->
<g id="node22" class="node">
<title>Divide2</title>
<path fill="lightskyblue" stroke="black" d="M185.77,-254C185.77,-254 150.27,-254 150.27,-254 144.27,-254 138.27,-248 138.27,-242 138.27,-242 138.27,-230 138.27,-230 138.27,-224 144.27,-218 150.27,-218 150.27,-218 185.77,-218 185.77,-218 191.77,-218 197.77,-224 197.77,-230 197.77,-230 197.77,-242 197.77,-242 197.77,-248 191.77,-254 185.77,-254"/>
<text text-anchor="middle" x="168.02" y="-231.32" font-family="Helvetica,sans-Serif" font-size="14.00">Divide</text>
</g>
<!-- AbsoluteScaleBy&#45;&gt;Divide2 -->
<g id="edge18" class="edge">
<title>AbsoluteScaleBy&#45;&gt;Divide2</title>
<path fill="none" stroke="black" d="M270.44,-309.65C251.73,-296.38 223.78,-276.55 201.81,-260.96"/>
<polygon fill="black" stroke="black" points="203.91,-258.16 193.73,-255.23 199.86,-263.87 203.91,-258.16"/>
<text text-anchor="middle" x="276.77" y="-275.95" font-family="Helvetica,sans-Serif" font-size="14.00">Beam Flux</text>
</g>
<!-- Divide4 -->
<g id="node24" class="node">
<title>Divide4</title>
<path fill="lightskyblue" stroke="black" d="M561.77,-254C561.77,-254 526.27,-254 526.27,-254 520.27,-254 514.27,-248 514.27,-242 514.27,-242 514.27,-230 514.27,-230 514.27,-224 520.27,-218 526.27,-218 526.27,-218 561.77,-218 561.77,-218 567.77,-218 573.77,-224 573.77,-230 573.77,-230 573.77,-242 573.77,-242 573.77,-248 567.77,-254 561.77,-254"/>
<text text-anchor="middle" x="544.02" y="-231.32" font-family="Helvetica,sans-Serif" font-size="14.00">Divide</text>
</g>
<!-- AbsoluteScaleBy&#45;&gt;Divide4 -->
<g id="edge23" class="edge">
<title>AbsoluteScaleBy&#45;&gt;Divide4</title>
<path fill="none" stroke="black" d="M323.29,-311.32C352,-300.08 395.3,-283.8 433.77,-272 462.32,-263.25 472.71,-264.43 503.26,-254.63"/>
<polygon fill="black" stroke="black" points="504.14,-258.03 512.5,-251.52 501.91,-251.39 504.14,-258.03"/>
<text text-anchor="middle" x="492.65" y="-275.95" font-family="Helvetica,sans-Serif" font-size="14.00">Standard Sample</text>
</g>
<!-- Run -->
<g id="node3" class="node">
<title>Run</title>
<ellipse fill="khaki" stroke="black" cx="414.02" cy="-1140.5" rx="30.16" ry="18"/>
<text text-anchor="middle" x="414.02" y="-1135.83" font-family="Helvetica,sans-Serif" font-size="14.00">Run</text>
</g>
<!-- LoadAndMerge -->
<g id="node13" class="node">
<title>LoadAndMerge</title>
<path fill="lightskyblue" stroke="black" d="M461.77,-1086.5C461.77,-1086.5 366.27,-1086.5 366.27,-1086.5 360.27,-1086.5 354.27,-1080.5 354.27,-1074.5 354.27,-1074.5 354.27,-1062.5 354.27,-1062.5 354.27,-1056.5 360.27,-1050.5 366.27,-1050.5 366.27,-1050.5 461.77,-1050.5 461.77,-1050.5 467.77,-1050.5 473.77,-1056.5 473.77,-1062.5 473.77,-1062.5 473.77,-1074.5 473.77,-1074.5 473.77,-1080.5 467.77,-1086.5 461.77,-1086.5"/>
<text text-anchor="middle" x="414.02" y="-1063.83" font-family="Helvetica,sans-Serif" font-size="14.00">LoadAndMerge</text>
</g>
<!-- Run&#45;&gt;LoadAndMerge -->
<g id="edge1" class="edge">
<title>Run&#45;&gt;LoadAndMerge</title>
<path fill="none" stroke="black" d="M414.02,-1122.2C414.02,-1114.91 414.02,-1106.23 414.02,-1098.04"/>
<polygon fill="black" stroke="black" points="417.52,-1098.12 414.02,-1088.12 410.52,-1098.12 417.52,-1098.12"/>
</g>
<!-- BeamInputWorkspace -->
<g id="node4" class="node">
<title>BeamInputWorkspace</title>
<ellipse fill="khaki" stroke="black" cx="118.02" cy="-852.5" rx="118.02" ry="18"/>
<text text-anchor="middle" x="118.02" y="-847.83" font-family="Helvetica,sans-Serif" font-size="14.00">BeamInputWorkspace</text>
</g>
<!-- MoveInstrumentComponent -->
<g id="node16" class="node">
<title>MoveInstrumentComponent</title>
<path fill="lightskyblue" stroke="black" d="M364.15,-797.5C364.15,-797.5 177.9,-797.5 177.9,-797.5 171.9,-797.5 165.9,-791.5 165.9,-785.5 165.9,-785.5 165.9,-773.5 165.9,-773.5 165.9,-767.5 171.9,-761.5 177.9,-761.5 177.9,-761.5 364.15,-761.5 364.15,-761.5 370.15,-761.5 376.15,-767.5 376.15,-773.5 376.15,-773.5 376.15,-785.5 376.15,-785.5 376.15,-791.5 370.15,-797.5 364.15,-797.5"/>
<text text-anchor="middle" x="271.02" y="-774.83" font-family="Helvetica,sans-Serif" font-size="14.00">MoveInstrumentComponent</text>
</g>
<!-- BeamInputWorkspace&#45;&gt;MoveInstrumentComponent -->
<g id="edge7" class="edge">
<title>BeamInputWorkspace&#45;&gt;MoveInstrumentComponent</title>
<path fill="none" stroke="black" d="M153.51,-835.03C174.16,-825.45 200.48,-813.24 222.97,-802.8"/>
<polygon fill="black" stroke="black" points="224.36,-806.01 231.95,-798.63 221.41,-799.67 224.36,-806.01"/>
</g>
<!-- BeamInputWorkspace&#45;&gt;Divide2 -->
<g id="edge19" class="edge">
<title>BeamInputWorkspace&#45;&gt;Divide2</title>
<path fill="none" stroke="black" d="M123.78,-834.21C128.01,-819.96 133.02,-799.15 133.02,-780.5 133.02,-780.5 133.02,-780.5 133.02,-324.25 133.02,-302.9 142.17,-280.58 151.11,-263.86"/>
<polygon fill="black" stroke="black" points="153.93,-265.97 155.82,-255.55 147.84,-262.52 153.93,-265.97"/>
</g>
<!-- TransmissionInputWorkspace -->
<g id="node5" class="node">
<title>TransmissionInputWorkspace</title>
<ellipse fill="khaki" stroke="black" cx="488.02" cy="-690.25" rx="153.8" ry="18"/>
<text text-anchor="middle" x="488.02" y="-685.58" font-family="Helvetica,sans-Serif" font-size="14.00">TransmissionInputWorkspace</text>
</g>
<!-- ApplyTransmissionCorrection -->
<g id="node17" class="node">
<title>ApplyTransmissionCorrection</title>
<path fill="lightskyblue" stroke="black" d="M369.52,-635.25C369.52,-635.25 176.52,-635.25 176.52,-635.25 170.52,-635.25 164.52,-629.25 164.52,-623.25 164.52,-623.25 164.52,-611.25 164.52,-611.25 164.52,-605.25 170.52,-599.25 176.52,-599.25 176.52,-599.25 369.52,-599.25 369.52,-599.25 375.52,-599.25 381.52,-605.25 381.52,-611.25 381.52,-611.25 381.52,-623.25 381.52,-623.25 381.52,-629.25 375.52,-635.25 369.52,-635.25"/>
<text text-anchor="middle" x="273.02" y="-612.58" font-family="Helvetica,sans-Serif" font-size="14.00">ApplyTransmissionCorrection</text>
</g>
<!-- TransmissionInputWorkspace&#45;&gt;ApplyTransmissionCorrection -->
<g id="edge10" class="edge">
<title>TransmissionInputWorkspace&#45;&gt;ApplyTransmissionCorrection</title>
<path fill="none" stroke="black" d="M438.16,-672.78C407.96,-662.81 369.13,-649.99 336.72,-639.29"/>
<polygon fill="black" stroke="black" points="338.03,-636.03 327.43,-636.22 335.83,-642.68 338.03,-636.03"/>
</g>
<!-- AbsorberInputWorkspace -->
<g id="node6" class="node">
<title>AbsorberInputWorkspace</title>
<ellipse fill="khaki" stroke="black" cx="231.02" cy="-924.5" rx="134.86" ry="18"/>
<text text-anchor="middle" x="231.02" y="-919.83" font-family="Helvetica,sans-Serif" font-size="14.00">AbsorberInputWorkspace</text>
</g>
<!-- Minus -->
<g id="node15" class="node">
<title>Minus</title>
<path fill="lightskyblue" stroke="black" d="M299.65,-870.5C299.65,-870.5 266.4,-870.5 266.4,-870.5 260.4,-870.5 254.4,-864.5 254.4,-858.5 254.4,-858.5 254.4,-846.5 254.4,-846.5 254.4,-840.5 260.4,-834.5 266.4,-834.5 266.4,-834.5 299.65,-834.5 299.65,-834.5 305.65,-834.5 311.65,-840.5 311.65,-846.5 311.65,-846.5 311.65,-858.5 311.65,-858.5 311.65,-864.5 305.65,-870.5 299.65,-870.5"/>
<text text-anchor="middle" x="283.02" y="-847.83" font-family="Helvetica,sans-Serif" font-size="14.00">Minus</text>
</g>
<!-- AbsorberInputWorkspace&#45;&gt;Minus -->
<g id="edge5" class="edge">
<title>AbsorberInputWorkspace&#45;&gt;Minus</title>
<path fill="none" stroke="black" d="M243.88,-906.2C249.8,-898.23 256.95,-888.6 263.51,-879.76"/>
<polygon fill="black" stroke="black" points="266.26,-881.93 269.42,-871.82 260.64,-877.76 266.26,-881.93"/>
</g>
<!-- ContainerInputWorkspace -->
<g id="node7" class="node">
<title>ContainerInputWorkspace</title>
<ellipse fill="khaki" stroke="black" cx="537.02" cy="-617.25" rx="137.49" ry="18"/>
<text text-anchor="middle" x="537.02" y="-612.58" font-family="Helvetica,sans-Serif" font-size="14.00">ContainerInputWorkspace</text>
</g>
<!-- Minus2 -->
<g id="node19" class="node">
<title>Minus2</title>
<path fill="lightskyblue" stroke="black" d="M300.65,-562.25C300.65,-562.25 267.4,-562.25 267.4,-562.25 261.4,-562.25 255.4,-556.25 255.4,-550.25 255.4,-550.25 255.4,-538.25 255.4,-538.25 255.4,-532.25 261.4,-526.25 267.4,-526.25 267.4,-526.25 300.65,-526.25 300.65,-526.25 306.65,-526.25 312.65,-532.25 312.65,-538.25 312.65,-538.25 312.65,-550.25 312.65,-550.25 312.65,-556.25 306.65,-562.25 300.65,-562.25"/>
<text text-anchor="middle" x="284.02" y="-539.58" font-family="Helvetica,sans-Serif" font-size="14.00">Minus</text>
</g>
<!-- ContainerInputWorkspace&#45;&gt;Minus2 -->
<g id="edge12" class="edge">
<title>ContainerInputWorkspace&#45;&gt;Minus2</title>
<path fill="none" stroke="black" d="M465.42,-601.56C425.89,-592.69 375.88,-580.23 323.68,-562.51"/>
<polygon fill="black" stroke="black" points="324.89,-559.23 314.29,-559.27 322.6,-565.84 324.89,-559.23"/>
</g>
<!-- SensitivityInputWorkspace -->
<g id="node8" class="node">
<title>SensitivityInputWorkspace</title>
<ellipse fill="khaki" stroke="black" cx="356.02" cy="-236" rx="140.65" ry="18"/>
<text text-anchor="middle" x="356.02" y="-231.32" font-family="Helvetica,sans-Serif" font-size="14.00">SensitivityInputWorkspace</text>
</g>
<!-- Divide3 -->
<g id="node23" class="node">
<title>Divide3</title>
<path fill="lightskyblue" stroke="black" d="M373.77,-181C373.77,-181 338.27,-181 338.27,-181 332.27,-181 326.27,-175 326.27,-169 326.27,-169 326.27,-157 326.27,-157 326.27,-151 332.27,-145 338.27,-145 338.27,-145 373.77,-145 373.77,-145 379.77,-145 385.77,-151 385.77,-157 385.77,-157 385.77,-169 385.77,-169 385.77,-175 379.77,-181 373.77,-181"/>
<text text-anchor="middle" x="356.02" y="-158.32" font-family="Helvetica,sans-Serif" font-size="14.00">Divide</text>
</g>
<!-- SensitivityInputWorkspace&#45;&gt;Divide3 -->
<g id="edge21" class="edge">
<title>SensitivityInputWorkspace&#45;&gt;Divide3</title>
<path fill="none" stroke="black" d="M356.02,-217.81C356.02,-210.23 356.02,-201.1 356.02,-192.54"/>
<polygon fill="black" stroke="black" points="359.52,-192.54 356.02,-182.54 352.52,-192.54 359.52,-192.54"/>
</g>
<!-- ReferenceInputWorkspace -->
<g id="node9" class="node">
<title>ReferenceInputWorkspace</title>
<ellipse fill="khaki" stroke="black" cx="578.02" cy="-325.25" rx="138.54" ry="18"/>
<text text-anchor="middle" x="578.02" y="-320.57" font-family="Helvetica,sans-Serif" font-size="14.00">ReferenceInputWorkspace</text>
</g>
<!-- ReferenceInputWorkspace&#45;&gt;Divide4 -->
<g id="edge24" class="edge">
<title>ReferenceInputWorkspace&#45;&gt;Divide4</title>
<path fill="none" stroke="black" d="M571.31,-307.01C566.6,-294.94 560.22,-278.56 554.81,-264.67"/>
<polygon fill="black" stroke="black" points="558.17,-263.66 551.28,-255.61 551.65,-266.2 558.17,-263.66"/>
</g>
<!-- MaskedInputWorkspace -->
<g id="node10" class="node">
<title>MaskedInputWorkspace</title>
<ellipse fill="khaki" stroke="black" cx="458.02" cy="-544.25" rx="126.97" ry="18"/>
<text text-anchor="middle" x="458.02" y="-539.58" font-family="Helvetica,sans-Serif" font-size="14.00">MaskedInputWorkspace</text>
</g>
<!-- MaskDetectors -->
<g id="node20" class="node">
<title>MaskDetectors</title>
<path fill="lightskyblue" stroke="black" d="M333.4,-489.25C333.4,-489.25 238.65,-489.25 238.65,-489.25 232.65,-489.25 226.65,-483.25 226.65,-477.25 226.65,-477.25 226.65,-465.25 226.65,-465.25 226.65,-459.25 232.65,-453.25 238.65,-453.25 238.65,-453.25 333.4,-453.25 333.4,-453.25 339.4,-453.25 345.4,-459.25 345.4,-465.25 345.4,-465.25 345.4,-477.25 345.4,-477.25 345.4,-483.25 339.4,-489.25 333.4,-489.25"/>
<text text-anchor="middle" x="286.02" y="-466.57" font-family="Helvetica,sans-Serif" font-size="14.00">MaskDetectors</text>
</g>
<!-- MaskedInputWorkspace&#45;&gt;MaskDetectors -->
<g id="edge14" class="edge">
<title>MaskedInputWorkspace&#45;&gt;MaskDetectors</title>
<path fill="none" stroke="black" d="M418.13,-526.78C394.6,-517.07 364.53,-504.66 339.02,-494.13"/>
<polygon fill="black" stroke="black" points="340.38,-490.9 329.8,-490.32 337.71,-497.37 340.38,-490.9"/>
</g>
<!-- SampleThickness -->
<g id="node11" class="node">
<title>SampleThickness</title>
<ellipse fill="khaki" stroke="black" cx="459.02" cy="-471.25" rx="95.93" ry="18"/>
<text text-anchor="middle" x="459.02" y="-466.57" font-family="Helvetica,sans-Serif" font-size="14.00">SampleThickness</text>
</g>
<!-- NormaliseByThickness -->
<g id="node21" class="node">
<title>NormaliseByThickness</title>
<path fill="lightskyblue" stroke="black" d="M365.02,-416.25C365.02,-416.25 217.02,-416.25 217.02,-416.25 211.02,-416.25 205.02,-410.25 205.02,-404.25 205.02,-404.25 205.02,-392.25 205.02,-392.25 205.02,-386.25 211.02,-380.25 217.02,-380.25 217.02,-380.25 365.02,-380.25 365.02,-380.25 371.02,-380.25 377.02,-386.25 377.02,-392.25 377.02,-392.25 377.02,-404.25 377.02,-404.25 377.02,-410.25 371.02,-416.25 365.02,-416.25"/>
<text text-anchor="middle" x="291.02" y="-393.57" font-family="Helvetica,sans-Serif" font-size="14.00">NormaliseByThickness</text>
</g>
<!-- SampleThickness&#45;&gt;NormaliseByThickness -->
<g id="edge16" class="edge">
<title>SampleThickness&#45;&gt;NormaliseByThickness</title>
<path fill="none" stroke="black" d="M421.32,-454.32C398.21,-444.55 368.3,-431.91 342.97,-421.2"/>
<polygon fill="black" stroke="black" points="344.4,-418.01 333.82,-417.34 341.67,-424.45 344.4,-418.01"/>
</g>
<!-- OutputWorkspace -->
<g id="node12" class="node">
<title>OutputWorkspace</title>
<polygon fill="grey" stroke="black" points="555.87,-36 387.49,-36 344.18,0 512.55,0 555.87,-36"/>
<text text-anchor="middle" x="450.02" y="-11.82" font-family="Times,serif" font-size="14.00">OutputWorkspace</text>
</g>
<!-- LoadAndMerge&#45;&gt;NormaliseBy -->
<g id="edge2" class="edge">
<title>LoadAndMerge&#45;&gt;NormaliseBy</title>
<path fill="none" stroke="black" d="M414.02,-1050.2C414.02,-1042.91 414.02,-1034.23 414.02,-1026.04"/>
<polygon fill="black" stroke="black" points="417.52,-1026.12 414.02,-1016.12 410.52,-1026.12 417.52,-1026.12"/>
</g>
<!-- Divide&#45;&gt;Minus -->
<g id="edge4" class="edge">
<title>Divide&#45;&gt;Minus</title>
<path fill="none" stroke="black" d="M383.97,-907.44C365.57,-897.61 341.84,-884.93 322,-874.33"/>
<polygon fill="black" stroke="black" points="323.84,-871.34 313.37,-869.72 320.54,-877.52 323.84,-871.34"/>
</g>
<!-- Minus&#45;&gt;MoveInstrumentComponent -->
<g id="edge6" class="edge">
<title>Minus&#45;&gt;MoveInstrumentComponent</title>
<path fill="none" stroke="black" d="M280.12,-834.31C278.82,-826.64 277.26,-817.39 275.8,-808.74"/>
<polygon fill="black" stroke="black" points="279.27,-808.3 274.15,-799.02 272.37,-809.46 279.27,-808.3"/>
</g>
<!-- SolidAngle -->
<g id="node18" class="node">
<title>SolidAngle</title>
<path fill="lightskyblue" stroke="black" d="M303.77,-708.25C303.77,-708.25 238.27,-708.25 238.27,-708.25 232.27,-708.25 226.27,-702.25 226.27,-696.25 226.27,-696.25 226.27,-684.25 226.27,-684.25 226.27,-678.25 232.27,-672.25 238.27,-672.25 238.27,-672.25 303.77,-672.25 303.77,-672.25 309.77,-672.25 315.77,-678.25 315.77,-684.25 315.77,-684.25 315.77,-696.25 315.77,-696.25 315.77,-702.25 309.77,-708.25 303.77,-708.25"/>
<text text-anchor="middle" x="271.02" y="-685.58" font-family="Helvetica,sans-Serif" font-size="14.00">SolidAngle</text>
</g>
<!-- MoveInstrumentComponent&#45;&gt;SolidAngle -->
<g id="edge8" class="edge">
<title>MoveInstrumentComponent&#45;&gt;SolidAngle</title>
<path fill="none" stroke="black" d="M271.02,-761.26C271.02,-749.43 271.02,-733.45 271.02,-719.75"/>
<polygon fill="black" stroke="black" points="274.52,-719.97 271.02,-709.97 267.52,-719.97 274.52,-719.97"/>
<text text-anchor="middle" x="292.77" y="-730.2" font-family="Helvetica,sans-Serif" font-size="14.00">Divide</text>
</g>
<!-- ApplyTransmissionCorrection&#45;&gt;Minus2 -->
<g id="edge11" class="edge">
<title>ApplyTransmissionCorrection&#45;&gt;Minus2</title>
<path fill="none" stroke="black" d="M275.69,-599.06C276.88,-591.39 278.31,-582.14 279.65,-573.49"/>
<polygon fill="black" stroke="black" points="283.08,-574.19 281.15,-563.77 276.16,-573.12 283.08,-574.19"/>
</g>
<!-- SolidAngle&#45;&gt;ApplyTransmissionCorrection -->
<g id="edge9" class="edge">
<title>SolidAngle&#45;&gt;ApplyTransmissionCorrection</title>
<path fill="none" stroke="black" d="M271.51,-672.06C271.72,-664.39 271.98,-655.14 272.23,-646.49"/>
<polygon fill="black" stroke="black" points="275.72,-646.89 272.5,-636.79 268.72,-646.69 275.72,-646.89"/>
</g>
<!-- Minus2&#45;&gt;MaskDetectors -->
<g id="edge13" class="edge">
<title>Minus2&#45;&gt;MaskDetectors</title>
<path fill="none" stroke="black" d="M284.51,-526.06C284.72,-518.39 284.98,-509.14 285.23,-500.49"/>
<polygon fill="black" stroke="black" points="288.72,-500.89 285.5,-490.79 281.72,-500.69 288.72,-500.89"/>
</g>
<!-- MaskDetectors&#45;&gt;NormaliseByThickness -->
<g id="edge15" class="edge">
<title>MaskDetectors&#45;&gt;NormaliseByThickness</title>
<path fill="none" stroke="black" d="M287.23,-453.06C287.77,-445.39 288.43,-436.14 289.03,-427.49"/>
<polygon fill="black" stroke="black" points="292.51,-428.01 289.72,-417.79 285.52,-427.52 292.51,-428.01"/>
</g>
<!-- NormaliseByThickness&#45;&gt;AbsoluteScaleBy -->
<g id="edge17" class="edge">
<title>NormaliseByThickness&#45;&gt;AbsoluteScaleBy</title>
<path fill="none" stroke="black" d="M291.02,-380.06C291.02,-372.48 291.02,-363.35 291.02,-354.79"/>
<polygon fill="black" stroke="black" points="294.52,-354.79 291.02,-344.79 287.52,-354.79 294.52,-354.79"/>
</g>
<!-- Divide2&#45;&gt;Divide3 -->
<g id="edge20" class="edge">
<title>Divide2&#45;&gt;Divide3</title>
<path fill="none" stroke="black" d="M198.22,-221.25C200.85,-220.12 203.48,-219.03 206.02,-218 242.61,-203.26 284.94,-188.2 315.29,-177.74"/>
<polygon fill="black" stroke="black" points="316.13,-181.15 324.46,-174.59 313.86,-174.52 316.13,-181.15"/>
</g>
<!-- ScaleByFluxFactor -->
<g id="node25" class="node">
<title>ScaleByFluxFactor</title>
<polygon fill="lightseagreen" stroke="black" points="521.02,-108 379.02,-108 379.02,-72 521.02,-72 521.02,-108"/>
<text text-anchor="middle" x="450.02" y="-85.33" font-family="Helvetica,sans-Serif" font-size="14.00">ScaleByFluxFactor</text>
</g>
<!-- Divide3&#45;&gt;ScaleByFluxFactor -->
<g id="edge22" class="edge">
<title>Divide3&#45;&gt;ScaleByFluxFactor</title>
<path fill="none" stroke="black" d="M378.78,-144.81C390.58,-135.9 405.2,-124.86 418.11,-115.1"/>
<polygon fill="black" stroke="black" points="420.08,-118.01 425.95,-109.19 415.86,-112.42 420.08,-118.01"/>
</g>
<!-- Divide4&#45;&gt;ScaleByFluxFactor -->
<g id="edge25" class="edge">
<title>Divide4&#45;&gt;ScaleByFluxFactor</title>
<path fill="none" stroke="black" d="M532.69,-217.63C516.52,-192.87 486.71,-147.21 467.66,-118.01"/>
<polygon fill="black" stroke="black" points="470.63,-116.16 462.23,-109.7 464.77,-119.99 470.63,-116.16"/>
</g>
<!-- ScaleByFluxFactor&#45;&gt;OutputWorkspace -->
<g id="edge26" class="edge">
<title>ScaleByFluxFactor&#45;&gt;OutputWorkspace</title>
<path fill="none" stroke="black" d="M450.02,-71.7C450.02,-64.41 450.02,-55.73 450.02,-47.54"/>
<polygon fill="black" stroke="black" points="453.52,-47.62 450.02,-37.62 446.52,-47.62 453.52,-47.62"/>
</g>
</g>
</svg>
