<?xml version="1.0" encoding="UTF-8" standalone="no"?>
<!DOCTYPE svg PUBLIC "-//W3C//DTD SVG 1.1//EN"
 "http://www.w3.org/Graphics/SVG/1.1/DTD/svg11.dtd">
<!-- Generated by graphviz version 7.0.5 (20221231.0122)
 -->
<!-- Title: Beam Pages: 1 -->
<svg width="469pt" height="692pt"
 viewBox="0.00 0.00 468.63 692.00" xmlns="http://www.w3.org/2000/svg" xmlns:xlink="http://www.w3.org/1999/xlink">
<g id="graph0" class="graph" transform="scale(1 1) rotate(0) translate(4 688)">
<title>Beam</title>
<polygon fill="white" stroke="none" points="-4,4 -4,-688 464.63,-688 464.63,4 -4,4"/>
<!-- NormaliseBy -->
<g id="node1" class="node">
<title>NormaliseBy</title>
<polygon fill="limegreen" stroke="black" points="95.59,-612 -0.09,-594 95.59,-576 191.28,-594 95.59,-612"/>
<text text-anchor="middle" x="95.59" y="-590.3" font-family="Helvetica,sans-Serif" font-size="14.00">NormaliseBy</text>
</g>
<!-- Divide -->
<g id="node9" class="node">
<title>Divide</title>
<path fill="lightskyblue" stroke="black" d="M200.59,-540C200.59,-540 164.59,-540 164.59,-540 158.59,-540 152.59,-534 152.59,-528 152.59,-528 152.59,-516 152.59,-516 152.59,-510 158.59,-504 164.59,-504 164.59,-504 200.59,-504 200.59,-504 206.59,-504 212.59,-510 212.59,-516 212.59,-516 212.59,-528 212.59,-528 212.59,-534 206.59,-540 200.59,-540"/>
<text text-anchor="middle" x="182.59" y="-518.3" font-family="Helvetica,sans-Serif" font-size="14.00">Divide</text>
</g>
<!-- NormaliseBy&#45;&gt;Divide -->
<g id="edge3" class="edge">
<title>NormaliseBy&#45;&gt;Divide</title>
<path fill="none" stroke="black" d="M113.2,-578.83C124.41,-569.81 139.24,-557.88 152.31,-547.37"/>
<polygon fill="black" stroke="black" points="154.23,-550.31 159.83,-541.32 149.84,-544.86 154.23,-550.31"/>
</g>
<!-- Runs -->
<g id="node2" class="node">
<title>Runs</title>
<ellipse fill="khaki" stroke="black" cx="269.59" cy="-666" rx="33.29" ry="18"/>
<text text-anchor="middle" x="269.59" y="-662.3" font-family="Helvetica,sans-Serif" font-size="14.00">Runs</text>
</g>
<!-- LoadAndMerge -->
<g id="node8" class="node">
<title>LoadAndMerge</title>
<path fill="lightskyblue" stroke="black" d="M317.59,-612C317.59,-612 221.59,-612 221.59,-612 215.59,-612 209.59,-606 209.59,-600 209.59,-600 209.59,-588 209.59,-588 209.59,-582 215.59,-576 221.59,-576 221.59,-576 317.59,-576 317.59,-576 323.59,-576 329.59,-582 329.59,-588 329.59,-588 329.59,-600 329.59,-600 329.59,-606 323.59,-612 317.59,-612"/>
<text text-anchor="middle" x="269.59" y="-590.3" font-family="Helvetica,sans-Serif" font-size="14.00">LoadAndMerge</text>
</g>
<!-- Runs&#45;&gt;LoadAndMerge -->
<g id="edge1" class="edge">
<title>Runs&#45;&gt;LoadAndMerge</title>
<path fill="none" stroke="black" d="M269.59,-647.7C269.59,-640.41 269.59,-631.73 269.59,-623.54"/>
<polygon fill="black" stroke="black" points="273.09,-623.62 269.59,-613.62 266.09,-623.62 273.09,-623.62"/>
</g>
<!-- BeamRadius -->
<g id="node3" class="node">
<title>BeamRadius</title>
<ellipse fill="khaki" stroke="black" cx="378.59" cy="-450" rx="67.69" ry="18"/>
<text text-anchor="middle" x="378.59" y="-446.3" font-family="Helvetica,sans-Serif" font-size="14.00">BeamRadius</text>
</g>
<!-- FindCenterOfMassPosition -->
<g id="node11" class="node">
<title>FindCenterOfMassPosition</title>
<path fill="lightskyblue" stroke="black" d="M407.09,-396C407.09,-396 234.09,-396 234.09,-396 228.09,-396 222.09,-390 222.09,-384 222.09,-384 222.09,-372 222.09,-372 222.09,-366 228.09,-360 234.09,-360 234.09,-360 407.09,-360 407.09,-360 413.09,-360 419.09,-366 419.09,-372 419.09,-372 419.09,-384 419.09,-384 419.09,-390 413.09,-396 407.09,-396"/>
<text text-anchor="middle" x="320.59" y="-374.3" font-family="Helvetica,sans-Serif" font-size="14.00">FindCenterOfMassPosition</text>
</g>
<!-- BeamRadius&#45;&gt;FindCenterOfMassPosition -->
<g id="edge7" class="edge">
<title>BeamRadius&#45;&gt;FindCenterOfMassPosition</title>
<path fill="none" stroke="black" d="M364.55,-432.05C357.81,-423.92 349.59,-414 342.09,-404.94"/>
<polygon fill="black" stroke="black" points="344.95,-402.91 335.87,-397.44 339.56,-407.37 344.95,-402.91"/>
</g>
<!-- BeamCenter -->
<g id="node4" class="node">
<title>BeamCenter</title>
<ellipse fill="khaki" stroke="black" cx="320.59" cy="-306" rx="66.89" ry="18"/>
<text text-anchor="middle" x="320.59" y="-302.3" font-family="Helvetica,sans-Serif" font-size="14.00">BeamCenter</text>
</g>
<!-- MoveInstrumentComponent -->
<g id="node12" class="node">
<title>MoveInstrumentComponent</title>
<path fill="lightskyblue" stroke="black" d="M414.09,-252C414.09,-252 227.09,-252 227.09,-252 221.09,-252 215.09,-246 215.09,-240 215.09,-240 215.09,-228 215.09,-228 215.09,-222 221.09,-216 227.09,-216 227.09,-216 414.09,-216 414.09,-216 420.09,-216 426.09,-222 426.09,-228 426.09,-228 426.09,-240 426.09,-240 426.09,-246 420.09,-252 414.09,-252"/>
<text text-anchor="middle" x="320.59" y="-230.3" font-family="Helvetica,sans-Serif" font-size="14.00">MoveInstrumentComponent</text>
</g>
<!-- BeamCenter&#45;&gt;MoveInstrumentComponent -->
<g id="edge9" class="edge">
<title>BeamCenter&#45;&gt;MoveInstrumentComponent</title>
<path fill="none" stroke="black" d="M320.59,-287.7C320.59,-280.41 320.59,-271.73 320.59,-263.54"/>
<polygon fill="black" stroke="black" points="324.09,-263.62 320.59,-253.62 317.09,-263.62 324.09,-263.62"/>
</g>
<!-- DarkCurrentWorkspace -->
<g id="node5" class="node">
<title>DarkCurrentWorkspace</title>
<ellipse fill="khaki" stroke="black" cx="345.59" cy="-522" rx="115.08" ry="18"/>
<text text-anchor="middle" x="345.59" y="-518.3" font-family="Helvetica,sans-Serif" font-size="14.00">DarkCurrentWorkspace</text>
</g>
<!-- Minus -->
<g id="node10" class="node">
<title>Minus</title>
<path fill="lightskyblue" stroke="black" d="M280.59,-468C280.59,-468 246.59,-468 246.59,-468 240.59,-468 234.59,-462 234.59,-456 234.59,-456 234.59,-444 234.59,-444 234.59,-438 240.59,-432 246.59,-432 246.59,-432 280.59,-432 280.59,-432 286.59,-432 292.59,-438 292.59,-444 292.59,-444 292.59,-456 292.59,-456 292.59,-462 286.59,-468 280.59,-468"/>
<text text-anchor="middle" x="263.59" y="-446.3" font-family="Helvetica,sans-Serif" font-size="14.00">Minus</text>
</g>
<!-- DarkCurrentWorkspace&#45;&gt;Minus -->
<g id="edge5" class="edge">
<title>DarkCurrentWorkspace&#45;&gt;Minus</title>
<path fill="none" stroke="black" d="M325.74,-504.05C315.72,-495.5 303.37,-484.96 292.33,-475.54"/>
<polygon fill="black" stroke="black" points="294.86,-473.09 284.98,-469.26 290.31,-478.41 294.86,-473.09"/>
</g>
<!-- OutputWorkspace -->
<g id="node6" class="node">
<title>OutputWorkspace</title>
<polygon fill="grey" stroke="black" points="429.36,-180 256.33,-180 211.82,-144 384.85,-144 429.36,-180"/>
<text text-anchor="middle" x="320.59" y="-158.3" font-family="Times,serif" font-size="14.00">OutputWorkspace</text>
</g>
<!-- CalculateFlux -->
<g id="node13" class="node">
<title>CalculateFlux</title>
<path fill="lightskyblue" stroke="black" d="M363.59,-108C363.59,-108 277.59,-108 277.59,-108 271.59,-108 265.59,-102 265.59,-96 265.59,-96 265.59,-84 265.59,-84 265.59,-78 271.59,-72 277.59,-72 277.59,-72 363.59,-72 363.59,-72 369.59,-72 375.59,-78 375.59,-84 375.59,-84 375.59,-96 375.59,-96 375.59,-102 369.59,-108 363.59,-108"/>
<text text-anchor="middle" x="320.59" y="-86.3" font-family="Helvetica,sans-Serif" font-size="14.00">CalculateFlux</text>
</g>
<!-- OutputWorkspace&#45;&gt;CalculateFlux -->
<g id="edge11" class="edge">
<title>OutputWorkspace&#45;&gt;CalculateFlux</title>
<path fill="none" stroke="black" d="M320.59,-143.7C320.59,-136.41 320.59,-127.73 320.59,-119.54"/>
<polygon fill="black" stroke="black" points="324.09,-119.62 320.59,-109.62 317.09,-119.62 324.09,-119.62"/>
</g>
<!-- OutputFluxWorkspace -->
<g id="node7" class="node">
<title>OutputFluxWorkspace</title>
<polygon fill="grey" stroke="black" points="453.92,-36 241.83,-36 187.27,0 399.36,0 453.92,-36"/>
<text text-anchor="middle" x="320.59" y="-14.3" font-family="Times,serif" font-size="14.00">OutputFluxWorkspace</text>
</g>
<!-- LoadAndMerge&#45;&gt;Divide -->
<g id="edge2" class="edge">
<title>LoadAndMerge&#45;&gt;Divide</title>
<path fill="none" stroke="black" d="M248.09,-575.7C237.53,-567.2 224.62,-556.81 213.06,-547.51"/>
<polygon fill="black" stroke="black" points="215.32,-544.84 205.33,-541.3 210.93,-550.29 215.32,-544.84"/>
</g>
<!-- Divide&#45;&gt;Minus -->
<g id="edge4" class="edge">
<title>Divide&#45;&gt;Minus</title>
<path fill="none" stroke="black" d="M202.61,-503.7C212.35,-495.28 224.23,-485.02 234.91,-475.79"/>
<polygon fill="black" stroke="black" points="237.1,-478.52 242.37,-469.34 232.52,-473.23 237.1,-478.52"/>
</g>
<!-- Minus&#45;&gt;FindCenterOfMassPosition -->
<g id="edge6" class="edge">
<title>Minus&#45;&gt;FindCenterOfMassPosition</title>
<path fill="none" stroke="black" d="M277.68,-431.7C284.24,-423.64 292.18,-413.89 299.44,-404.98"/>
<polygon fill="black" stroke="black" points="302.11,-407.24 305.71,-397.28 296.68,-402.82 302.11,-407.24"/>
</g>
<!-- FindCenterOfMassPosition&#45;&gt;BeamCenter -->
<g id="edge8" class="edge">
<title>FindCenterOfMassPosition&#45;&gt;BeamCenter</title>
<path fill="none" stroke="black" d="M320.59,-359.7C320.59,-352.41 320.59,-343.73 320.59,-335.54"/>
<polygon fill="black" stroke="black" points="324.09,-335.62 320.59,-325.62 317.09,-335.62 324.09,-335.62"/>
</g>
<!-- MoveInstrumentComponent&#45;&gt;OutputWorkspace -->
<g id="edge10" class="edge">
<title>MoveInstrumentComponent&#45;&gt;OutputWorkspace</title>
<path fill="none" stroke="black" d="M320.59,-215.7C320.59,-208.41 320.59,-199.73 320.59,-191.54"/>
<polygon fill="black" stroke="black" points="324.09,-191.62 320.59,-181.62 317.09,-191.62 324.09,-191.62"/>
</g>
<!-- CalculateFlux&#45;&gt;OutputFluxWorkspace -->
<g id="edge12" class="edge">
<title>CalculateFlux&#45;&gt;OutputFluxWorkspace</title>
<path fill="none" stroke="black" d="M320.59,-71.7C320.59,-64.41 320.59,-55.73 320.59,-47.54"/>
<polygon fill="black" stroke="black" points="324.09,-47.62 320.59,-37.62 317.09,-47.62 324.09,-47.62"/>
</g>
</g>
</svg>
