<?xml version="1.0" encoding="UTF-8" standalone="no"?>
<!DOCTYPE svg PUBLIC "-//W3C//DTD SVG 1.1//EN"
 "http://www.w3.org/Graphics/SVG/1.1/DTD/svg11.dtd">
<!-- Generated by graphviz version 12.0.0 (20240803.0821)
 -->
<!-- Title: Absorber Pages: 1 -->
<svg width="220pt" height="332pt"
 viewBox="0.00 0.00 219.68 332.00" xmlns="http://www.w3.org/2000/svg" xmlns:xlink="http://www.w3.org/1999/xlink">
<g id="graph0" class="graph" transform="scale(1 1) rotate(0) translate(4 328)">
<title>Absorber</title>
<polygon fill="white" stroke="none" points="-4,4 -4,-328 215.68,-328 215.68,4 -4,4"/>
<!-- NormaliseBy -->
<g id="node1" class="node">
<title>NormaliseBy</title>
<polygon fill="limegreen" stroke="black" points="105.84,-180 3.66,-162 105.84,-144 208.02,-162 105.84,-180"/>
<text text-anchor="middle" x="105.84" y="-157.32" font-family="Helvetica,sans-Serif" font-size="14.00">NormaliseBy</text>
</g>
<!-- Divide -->
<g id="node5" class="node">
<title>Divide</title>
<path fill="lightskyblue" stroke="black" d="M123.59,-108C123.59,-108 88.09,-108 88.09,-108 82.09,-108 76.09,-102 76.09,-96 76.09,-96 76.09,-84 76.09,-84 76.09,-78 82.09,-72 88.09,-72 88.09,-72 123.59,-72 123.59,-72 129.59,-72 135.59,-78 135.59,-84 135.59,-84 135.59,-96 135.59,-96 135.59,-102 129.59,-108 123.59,-108"/>
<text text-anchor="middle" x="105.84" y="-85.33" font-family="Helvetica,sans-Serif" font-size="14.00">Divide</text>
</g>
<!-- NormaliseBy&#45;&gt;Divide -->
<g id="edge3" class="edge">
<title>NormaliseBy&#45;&gt;Divide</title>
<path fill="none" stroke="black" d="M105.84,-143.7C105.84,-136.41 105.84,-127.73 105.84,-119.54"/>
<polygon fill="black" stroke="black" points="109.34,-119.62 105.84,-109.62 102.34,-119.62 109.34,-119.62"/>
</g>
<!-- Run -->
<g id="node2" class="node">
<title>Run</title>
<ellipse fill="khaki" stroke="black" cx="105.84" cy="-306" rx="30.16" ry="18"/>
<text text-anchor="middle" x="105.84" y="-301.32" font-family="Helvetica,sans-Serif" font-size="14.00">Run</text>
</g>
<!-- LoadAndMerge -->
<g id="node4" class="node">
<title>LoadAndMerge</title>
<path fill="lightskyblue" stroke="black" d="M153.59,-252C153.59,-252 58.09,-252 58.09,-252 52.09,-252 46.09,-246 46.09,-240 46.09,-240 46.09,-228 46.09,-228 46.09,-222 52.09,-216 58.09,-216 58.09,-216 153.59,-216 153.59,-216 159.59,-216 165.59,-222 165.59,-228 165.59,-228 165.59,-240 165.59,-240 165.59,-246 159.59,-252 153.59,-252"/>
<text text-anchor="middle" x="105.84" y="-229.32" font-family="Helvetica,sans-Serif" font-size="14.00">LoadAndMerge</text>
</g>
<!-- Run&#45;&gt;LoadAndMerge -->
<g id="edge1" class="edge">
<title>Run&#45;&gt;LoadAndMerge</title>
<path fill="none" stroke="black" d="M105.84,-287.7C105.84,-280.41 105.84,-271.73 105.84,-263.54"/>
<polygon fill="black" stroke="black" points="109.34,-263.62 105.84,-253.62 102.34,-263.62 109.34,-263.62"/>
</g>
<!-- OutputWorkspace -->
<g id="node3" class="node">
<title>OutputWorkspace</title>
<polygon fill="grey" stroke="black" points="211.68,-36 43.31,-36 0,0 168.37,0 211.68,-36"/>
<text text-anchor="middle" x="105.84" y="-11.82" font-family="Times,serif" font-size="14.00">OutputWorkspace</text>
</g>
<!-- LoadAndMerge&#45;&gt;NormaliseBy -->
<g id="edge2" class="edge">
<title>LoadAndMerge&#45;&gt;NormaliseBy</title>
<path fill="none" stroke="black" d="M105.84,-215.7C105.84,-208.41 105.84,-199.73 105.84,-191.54"/>
<polygon fill="black" stroke="black" points="109.34,-191.62 105.84,-181.62 102.34,-191.62 109.34,-191.62"/>
</g>
<!-- Divide&#45;&gt;OutputWorkspace -->
<g id="edge4" class="edge">
<title>Divide&#45;&gt;OutputWorkspace</title>
<path fill="none" stroke="black" d="M105.84,-71.7C105.84,-64.41 105.84,-55.73 105.84,-47.54"/>
<polygon fill="black" stroke="black" points="109.34,-47.62 105.84,-37.62 102.34,-47.62 109.34,-47.62"/>
</g>
</g>
</svg>
