<?xml version="1.0" encoding="UTF-8" standalone="no"?>
<!DOCTYPE svg PUBLIC "-//W3C//DTD SVG 1.1//EN"
 "http://www.w3.org/Graphics/SVG/1.1/DTD/svg11.dtd">
<!-- Generated by graphviz version 11.0.0 (20240519.1550)
 -->
<!-- Title: Container Pages: 1 -->
<svg width="766pt" height="637pt"
 viewBox="0.00 0.00 765.98 637.25" xmlns="http://www.w3.org/2000/svg" xmlns:xlink="http://www.w3.org/1999/xlink">
<g id="graph0" class="graph" transform="scale(1 1) rotate(0) translate(4 633.25)">
<title>Container</title>
<polygon fill="white" stroke="none" points="-4,4 -4,-633.25 761.98,-633.25 761.98,4 -4,4"/>
<!-- NormaliseBy -->
<g id="node1" class="node">
<title>NormaliseBy</title>
<polygon fill="limegreen" stroke="black" points="655.8,-485.25 553.62,-467.25 655.8,-449.25 757.98,-467.25 655.8,-485.25"/>
<text text-anchor="middle" x="655.8" y="-462.57" font-family="Helvetica,sans-Serif" font-size="14.00">NormaliseBy</text>
</g>
<!-- Divide -->
<g id="node8" class="node">
<title>Divide</title>
<path fill="lightskyblue" stroke="black" d="M673.55,-413.25C673.55,-413.25 638.05,-413.25 638.05,-413.25 632.05,-413.25 626.05,-407.25 626.05,-401.25 626.05,-401.25 626.05,-389.25 626.05,-389.25 626.05,-383.25 632.05,-377.25 638.05,-377.25 638.05,-377.25 673.55,-377.25 673.55,-377.25 679.55,-377.25 685.55,-383.25 685.55,-389.25 685.55,-389.25 685.55,-401.25 685.55,-401.25 685.55,-407.25 679.55,-413.25 673.55,-413.25"/>
<text text-anchor="middle" x="655.8" y="-390.57" font-family="Helvetica,sans-Serif" font-size="14.00">Divide</text>
</g>
<!-- NormaliseBy&#45;&gt;Divide -->
<g id="edge3" class="edge">
<title>NormaliseBy&#45;&gt;Divide</title>
<path fill="none" stroke="black" d="M655.8,-448.95C655.8,-441.66 655.8,-432.98 655.8,-424.79"/>
<polygon fill="black" stroke="black" points="659.3,-424.87 655.8,-414.87 652.3,-424.87 659.3,-424.87"/>
</g>
<!-- Run -->
<g id="node2" class="node">
<title>Run</title>
<ellipse fill="khaki" stroke="black" cx="655.8" cy="-611.25" rx="30.16" ry="18"/>
<text text-anchor="middle" x="655.8" y="-606.58" font-family="Helvetica,sans-Serif" font-size="14.00">Run</text>
</g>
<!-- LoadAndMerge -->
<g id="node7" class="node">
<title>LoadAndMerge</title>
<path fill="lightskyblue" stroke="black" d="M703.55,-557.25C703.55,-557.25 608.05,-557.25 608.05,-557.25 602.05,-557.25 596.05,-551.25 596.05,-545.25 596.05,-545.25 596.05,-533.25 596.05,-533.25 596.05,-527.25 602.05,-521.25 608.05,-521.25 608.05,-521.25 703.55,-521.25 703.55,-521.25 709.55,-521.25 715.55,-527.25 715.55,-533.25 715.55,-533.25 715.55,-545.25 715.55,-545.25 715.55,-551.25 709.55,-557.25 703.55,-557.25"/>
<text text-anchor="middle" x="655.8" y="-534.58" font-family="Helvetica,sans-Serif" font-size="14.00">LoadAndMerge</text>
</g>
<!-- Run&#45;&gt;LoadAndMerge -->
<g id="edge1" class="edge">
<title>Run&#45;&gt;LoadAndMerge</title>
<path fill="none" stroke="black" d="M655.8,-592.95C655.8,-585.66 655.8,-576.98 655.8,-568.79"/>
<polygon fill="black" stroke="black" points="659.3,-568.87 655.8,-558.87 652.3,-568.87 659.3,-568.87"/>
</g>
<!-- TransmissionInputWorkspace -->
<g id="node3" class="node">
<title>TransmissionInputWorkspace</title>
<ellipse fill="khaki" stroke="black" cx="153.8" cy="-162" rx="153.8" ry="18"/>
<text text-anchor="middle" x="153.8" y="-157.32" font-family="Helvetica,sans-Serif" font-size="14.00">TransmissionInputWorkspace</text>
</g>
<!-- ApplyTransmissionCorrection -->
<g id="node11" class="node">
<title>ApplyTransmissionCorrection</title>
<path fill="lightskyblue" stroke="black" d="M261.3,-108C261.3,-108 68.3,-108 68.3,-108 62.3,-108 56.3,-102 56.3,-96 56.3,-96 56.3,-84 56.3,-84 56.3,-78 62.3,-72 68.3,-72 68.3,-72 261.3,-72 261.3,-72 267.3,-72 273.3,-78 273.3,-84 273.3,-84 273.3,-96 273.3,-96 273.3,-102 267.3,-108 261.3,-108"/>
<text text-anchor="middle" x="164.8" y="-85.33" font-family="Helvetica,sans-Serif" font-size="14.00">ApplyTransmissionCorrection</text>
</g>
<!-- TransmissionInputWorkspace&#45;&gt;ApplyTransmissionCorrection -->
<g id="edge10" class="edge">
<title>TransmissionInputWorkspace&#45;&gt;ApplyTransmissionCorrection</title>
<path fill="none" stroke="black" d="M156.52,-143.7C157.68,-136.32 159.06,-127.52 160.36,-119.25"/>
<polygon fill="black" stroke="black" points="163.78,-120.02 161.88,-109.6 156.87,-118.93 163.78,-120.02"/>
</g>
<!-- BeamInputWorkspace -->
<g id="node4" class="node">
<title>BeamInputWorkspace</title>
<ellipse fill="khaki" stroke="black" cx="359.8" cy="-323.25" rx="118.02" ry="18"/>
<text text-anchor="middle" x="359.8" y="-318.57" font-family="Helvetica,sans-Serif" font-size="14.00">BeamInputWorkspace</text>
</g>
<!-- MoveInstrumentComponent -->
<g id="node10" class="node">
<title>MoveInstrumentComponent</title>
<path fill="lightskyblue" stroke="black" d="M463.92,-269.25C463.92,-269.25 277.67,-269.25 277.67,-269.25 271.67,-269.25 265.67,-263.25 265.67,-257.25 265.67,-257.25 265.67,-245.25 265.67,-245.25 265.67,-239.25 271.67,-233.25 277.67,-233.25 277.67,-233.25 463.92,-233.25 463.92,-233.25 469.92,-233.25 475.92,-239.25 475.92,-245.25 475.92,-245.25 475.92,-257.25 475.92,-257.25 475.92,-263.25 469.92,-269.25 463.92,-269.25"/>
<text text-anchor="middle" x="370.8" y="-246.57" font-family="Helvetica,sans-Serif" font-size="14.00">MoveInstrumentComponent</text>
</g>
<!-- BeamInputWorkspace&#45;&gt;MoveInstrumentComponent -->
<g id="edge7" class="edge">
<title>BeamInputWorkspace&#45;&gt;MoveInstrumentComponent</title>
<path fill="none" stroke="black" d="M362.52,-304.95C363.68,-297.57 365.06,-288.77 366.36,-280.5"/>
<polygon fill="black" stroke="black" points="369.78,-281.27 367.88,-270.85 362.87,-280.18 369.78,-281.27"/>
</g>
<!-- AbsorberInputWorkspace -->
<g id="node5" class="node">
<title>AbsorberInputWorkspace</title>
<ellipse fill="khaki" stroke="black" cx="472.8" cy="-395.25" rx="134.86" ry="18"/>
<text text-anchor="middle" x="472.8" y="-390.57" font-family="Helvetica,sans-Serif" font-size="14.00">AbsorberInputWorkspace</text>
</g>
<!-- Minus -->
<g id="node9" class="node">
<title>Minus</title>
<path fill="lightskyblue" stroke="black" d="M541.42,-341.25C541.42,-341.25 508.17,-341.25 508.17,-341.25 502.17,-341.25 496.17,-335.25 496.17,-329.25 496.17,-329.25 496.17,-317.25 496.17,-317.25 496.17,-311.25 502.17,-305.25 508.17,-305.25 508.17,-305.25 541.42,-305.25 541.42,-305.25 547.42,-305.25 553.42,-311.25 553.42,-317.25 553.42,-317.25 553.42,-329.25 553.42,-329.25 553.42,-335.25 547.42,-341.25 541.42,-341.25"/>
<text text-anchor="middle" x="524.8" y="-318.57" font-family="Helvetica,sans-Serif" font-size="14.00">Minus</text>
</g>
<!-- AbsorberInputWorkspace&#45;&gt;Minus -->
<g id="edge5" class="edge">
<title>AbsorberInputWorkspace&#45;&gt;Minus</title>
<path fill="none" stroke="black" d="M485.65,-376.95C491.57,-368.98 498.73,-359.35 505.29,-350.51"/>
<polygon fill="black" stroke="black" points="508.04,-352.68 511.19,-342.57 502.42,-348.51 508.04,-352.68"/>
</g>
<!-- OutputWorkspace -->
<g id="node6" class="node">
<title>OutputWorkspace</title>
<polygon fill="grey" stroke="black" points="270.64,-36 102.27,-36 58.96,0 227.33,0 270.64,-36"/>
<text text-anchor="middle" x="164.8" y="-11.82" font-family="Times,serif" font-size="14.00">OutputWorkspace</text>
</g>
<!-- LoadAndMerge&#45;&gt;NormaliseBy -->
<g id="edge2" class="edge">
<title>LoadAndMerge&#45;&gt;NormaliseBy</title>
<path fill="none" stroke="black" d="M655.8,-520.95C655.8,-513.66 655.8,-504.98 655.8,-496.79"/>
<polygon fill="black" stroke="black" points="659.3,-496.87 655.8,-486.87 652.3,-496.87 659.3,-496.87"/>
</g>
<!-- Divide&#45;&gt;Minus -->
<g id="edge4" class="edge">
<title>Divide&#45;&gt;Minus</title>
<path fill="none" stroke="black" d="M625.75,-378.19C607.35,-368.36 583.61,-355.68 563.78,-345.08"/>
<polygon fill="black" stroke="black" points="565.62,-342.09 555.15,-340.47 562.32,-348.27 565.62,-342.09"/>
</g>
<!-- Minus&#45;&gt;MoveInstrumentComponent -->
<g id="edge6" class="edge">
<title>Minus&#45;&gt;MoveInstrumentComponent</title>
<path fill="none" stroke="black" d="M495.83,-309.08C474.41,-299.35 444.73,-285.85 419.66,-274.46"/>
<polygon fill="black" stroke="black" points="421.17,-271.3 410.61,-270.35 418.27,-277.67 421.17,-271.3"/>
</g>
<!-- SolidAngle -->
<g id="node12" class="node">
<title>SolidAngle</title>
<path fill="lightskyblue" stroke="black" d="M403.55,-180C403.55,-180 338.05,-180 338.05,-180 332.05,-180 326.05,-174 326.05,-168 326.05,-168 326.05,-156 326.05,-156 326.05,-150 332.05,-144 338.05,-144 338.05,-144 403.55,-144 403.55,-144 409.55,-144 415.55,-150 415.55,-156 415.55,-156 415.55,-168 415.55,-168 415.55,-174 409.55,-180 403.55,-180"/>
<text text-anchor="middle" x="370.8" y="-157.32" font-family="Helvetica,sans-Serif" font-size="14.00">SolidAngle</text>
</g>
<!-- MoveInstrumentComponent&#45;&gt;SolidAngle -->
<g id="edge8" class="edge">
<title>MoveInstrumentComponent&#45;&gt;SolidAngle</title>
<path fill="none" stroke="black" d="M370.8,-233.01C370.8,-221.18 370.8,-205.2 370.8,-191.5"/>
<polygon fill="black" stroke="black" points="374.3,-191.72 370.8,-181.72 367.3,-191.72 374.3,-191.72"/>
<text text-anchor="middle" x="392.55" y="-201.95" font-family="Helvetica,sans-Serif" font-size="14.00">Divide</text>
</g>
<!-- ApplyTransmissionCorrection&#45;&gt;OutputWorkspace -->
<g id="edge11" class="edge">
<title>ApplyTransmissionCorrection&#45;&gt;OutputWorkspace</title>
<path fill="none" stroke="black" d="M164.8,-71.7C164.8,-64.41 164.8,-55.73 164.8,-47.54"/>
<polygon fill="black" stroke="black" points="168.3,-47.62 164.8,-37.62 161.3,-47.62 168.3,-47.62"/>
</g>
<!-- SolidAngle&#45;&gt;ApplyTransmissionCorrection -->
<g id="edge9" class="edge">
<title>SolidAngle&#45;&gt;ApplyTransmissionCorrection</title>
<path fill="none" stroke="black" d="M325.59,-145.64C296.54,-135.77 258.43,-122.81 226.59,-112"/>
<polygon fill="black" stroke="black" points="228.09,-108.81 217.5,-108.91 225.84,-115.44 228.09,-108.81"/>
</g>
</g>
</svg>
