<?xml version="1.0" encoding="UTF-8" standalone="no"?>
<!DOCTYPE svg PUBLIC "-//W3C//DTD SVG 1.1//EN"
 "http://www.w3.org/Graphics/SVG/1.1/DTD/svg11.dtd">
<!-- Generated by graphviz version 7.1.0 (20230122.1345)
 -->
<!-- Title: Reference Pages: 1 -->
<svg width="1235pt" height="1136pt"
 viewBox="0.00 0.00 1235.18 1136.00" xmlns="http://www.w3.org/2000/svg" xmlns:xlink="http://www.w3.org/1999/xlink">
<g id="graph0" class="graph" transform="scale(1 1) rotate(0) translate(4 1132)">
<title>Reference</title>
<polygon fill="white" stroke="none" points="-4,4 -4,-1132 1231.18,-1132 1231.18,4 -4,4"/>
<!-- NormaliseBy -->
<g id="node1" class="node">
<title>NormaliseBy</title>
<polygon fill="limegreen" stroke="black" points="95.59,-1055 -0.09,-1037 95.59,-1019 191.28,-1037 95.59,-1055"/>
<text text-anchor="middle" x="95.59" y="-1033.3" font-family="Helvetica,sans-Serif" font-size="14.00">NormaliseBy</text>
</g>
<!-- Divide -->
<g id="node16" class="node">
<title>Divide</title>
<path fill="lightskyblue" stroke="black" d="M125.59,-982C125.59,-982 89.59,-982 89.59,-982 83.59,-982 77.59,-976 77.59,-970 77.59,-970 77.59,-958 77.59,-958 77.59,-952 83.59,-946 89.59,-946 89.59,-946 125.59,-946 125.59,-946 131.59,-946 137.59,-952 137.59,-958 137.59,-958 137.59,-970 137.59,-970 137.59,-976 131.59,-982 125.59,-982"/>
<text text-anchor="middle" x="107.59" y="-960.3" font-family="Helvetica,sans-Serif" font-size="14.00">Divide</text>
</g>
<!-- NormaliseBy&#45;&gt;Divide -->
<g id="edge3" class="edge">
<title>NormaliseBy&#45;&gt;Divide</title>
<path fill="none" stroke="black" d="M98.44,-1019.17C99.72,-1011.56 101.28,-1002.35 102.74,-993.7"/>
<polygon fill="black" stroke="black" points="106.18,-994.38 104.39,-983.94 99.27,-993.22 106.18,-994.38"/>
</g>
<!-- Runs -->
<g id="node2" class="node">
<title>Runs</title>
<ellipse fill="khaki" stroke="black" cx="269.59" cy="-1110" rx="33.29" ry="18"/>
<text text-anchor="middle" x="269.59" y="-1106.3" font-family="Helvetica,sans-Serif" font-size="14.00">Runs</text>
</g>
<!-- LoadAndMerge -->
<g id="node15" class="node">
<title>LoadAndMerge</title>
<path fill="lightskyblue" stroke="black" d="M317.59,-1055C317.59,-1055 221.59,-1055 221.59,-1055 215.59,-1055 209.59,-1049 209.59,-1043 209.59,-1043 209.59,-1031 209.59,-1031 209.59,-1025 215.59,-1019 221.59,-1019 221.59,-1019 317.59,-1019 317.59,-1019 323.59,-1019 329.59,-1025 329.59,-1031 329.59,-1031 329.59,-1043 329.59,-1043 329.59,-1049 323.59,-1055 317.59,-1055"/>
<text text-anchor="middle" x="269.59" y="-1033.3" font-family="Helvetica,sans-Serif" font-size="14.00">LoadAndMerge</text>
</g>
<!-- Runs&#45;&gt;LoadAndMerge -->
<g id="edge1" class="edge">
<title>Runs&#45;&gt;LoadAndMerge</title>
<path fill="none" stroke="black" d="M269.59,-1091.81C269.59,-1084.23 269.59,-1075.1 269.59,-1066.54"/>
<polygon fill="black" stroke="black" points="273.09,-1066.54 269.59,-1056.54 266.09,-1066.54 273.09,-1066.54"/>
</g>
<!-- BeamCenter -->
<g id="node3" class="node">
<title>BeamCenter</title>
<ellipse fill="khaki" stroke="black" cx="490.59" cy="-891" rx="66.89" ry="18"/>
<text text-anchor="middle" x="490.59" y="-887.3" font-family="Helvetica,sans-Serif" font-size="14.00">BeamCenter</text>
</g>
<!-- MoveInstrumentComponent -->
<g id="node18" class="node">
<title>MoveInstrumentComponent</title>
<path fill="lightskyblue" stroke="black" d="M487.09,-836C487.09,-836 300.09,-836 300.09,-836 294.09,-836 288.09,-830 288.09,-824 288.09,-824 288.09,-812 288.09,-812 288.09,-806 294.09,-800 300.09,-800 300.09,-800 487.09,-800 487.09,-800 493.09,-800 499.09,-806 499.09,-812 499.09,-812 499.09,-824 499.09,-824 499.09,-830 493.09,-836 487.09,-836"/>
<text text-anchor="middle" x="393.59" y="-814.3" font-family="Helvetica,sans-Serif" font-size="14.00">MoveInstrumentComponent</text>
</g>
<!-- BeamCenter&#45;&gt;MoveInstrumentComponent -->
<g id="edge8" class="edge">
<title>BeamCenter&#45;&gt;MoveInstrumentComponent</title>
<path fill="none" stroke="black" d="M468.58,-873.89C456.14,-864.78 440.34,-853.22 426.45,-843.05"/>
<polygon fill="black" stroke="black" points="428.57,-840.26 418.43,-837.18 424.43,-845.91 428.57,-840.26"/>
</g>
<!-- DarkCurrentWorkspace -->
<g id="node4" class="node">
<title>DarkCurrentWorkspace</title>
<ellipse fill="khaki" stroke="black" cx="270.59" cy="-964" rx="115.08" ry="18"/>
<text text-anchor="middle" x="270.59" y="-960.3" font-family="Helvetica,sans-Serif" font-size="14.00">DarkCurrentWorkspace</text>
</g>
<!-- Minus -->
<g id="node17" class="node">
<title>Minus</title>
<path fill="lightskyblue" stroke="black" d="M287.59,-909C287.59,-909 253.59,-909 253.59,-909 247.59,-909 241.59,-903 241.59,-897 241.59,-897 241.59,-885 241.59,-885 241.59,-879 247.59,-873 253.59,-873 253.59,-873 287.59,-873 287.59,-873 293.59,-873 299.59,-879 299.59,-885 299.59,-885 299.59,-897 299.59,-897 299.59,-903 293.59,-909 287.59,-909"/>
<text text-anchor="middle" x="270.59" y="-887.3" font-family="Helvetica,sans-Serif" font-size="14.00">Minus</text>
</g>
<!-- DarkCurrentWorkspace&#45;&gt;Minus -->
<g id="edge5" class="edge">
<title>DarkCurrentWorkspace&#45;&gt;Minus</title>
<path fill="none" stroke="black" d="M270.59,-945.81C270.59,-938.23 270.59,-929.1 270.59,-920.54"/>
<polygon fill="black" stroke="black" points="274.09,-920.54 270.59,-910.54 267.09,-920.54 274.09,-920.54"/>
</g>
<!-- EmptyBeamWorkspace -->
<g id="node5" class="node">
<title>EmptyBeamWorkspace</title>
<ellipse fill="khaki" stroke="black" cx="518.59" cy="-964" rx="115.08" ry="18"/>
<text text-anchor="middle" x="518.59" y="-960.3" font-family="Helvetica,sans-Serif" font-size="14.00">EmptyBeamWorkspace</text>
</g>
<!-- EmptyBeamWorkspace&#45;&gt;BeamCenter -->
<g id="edge7" class="edge">
<title>EmptyBeamWorkspace&#45;&gt;BeamCenter</title>
<path fill="none" stroke="black" d="M511.81,-945.81C508.72,-937.96 504.97,-928.47 501.5,-919.66"/>
<polygon fill="black" stroke="black" points="504.79,-918.46 497.86,-910.44 498.28,-921.02 504.79,-918.46"/>
</g>
<!-- FluxWorkspace -->
<g id="node6" class="node">
<title>FluxWorkspace</title>
<ellipse fill="khaki" stroke="black" cx="983.59" cy="-338" rx="79.09" ry="18"/>
<text text-anchor="middle" x="983.59" y="-334.3" font-family="Helvetica,sans-Serif" font-size="14.00">FluxWorkspace</text>
</g>
<!-- Divide4 -->
<g id="node26" class="node">
<title>Divide4</title>
<path fill="lightskyblue" stroke="black" d="M937.59,-269C937.59,-269 901.59,-269 901.59,-269 895.59,-269 889.59,-263 889.59,-257 889.59,-257 889.59,-245 889.59,-245 889.59,-239 895.59,-233 901.59,-233 901.59,-233 937.59,-233 937.59,-233 943.59,-233 949.59,-239 949.59,-245 949.59,-245 949.59,-257 949.59,-257 949.59,-263 943.59,-269 937.59,-269"/>
<text text-anchor="middle" x="919.59" y="-247.3" font-family="Helvetica,sans-Serif" font-size="14.00">Divide</text>
</g>
<!-- FluxWorkspace&#45;&gt;Divide4 -->
<g id="edge21" class="edge">
<title>FluxWorkspace&#45;&gt;Divide4</title>
<path fill="none" stroke="black" d="M970.64,-319.8C961.68,-307.9 949.58,-291.83 939.41,-278.32"/>
<polygon fill="black" stroke="black" points="942.47,-276.56 933.65,-270.68 936.87,-280.77 942.47,-276.56"/>
</g>
<!-- TransmissionWorkspace -->
<g id="node7" class="node">
<title>TransmissionWorkspace</title>
<ellipse fill="khaki" stroke="black" cx="635.59" cy="-818" rx="118.88" ry="18"/>
<text text-anchor="middle" x="635.59" y="-814.3" font-family="Helvetica,sans-Serif" font-size="14.00">TransmissionWorkspace</text>
</g>
<!-- ApplyTransmissionCorrection -->
<g id="node19" class="node">
<title>ApplyTransmissionCorrection</title>
<path fill="lightskyblue" stroke="black" d="M611.59,-763C611.59,-763 417.59,-763 417.59,-763 411.59,-763 405.59,-757 405.59,-751 405.59,-751 405.59,-739 405.59,-739 405.59,-733 411.59,-727 417.59,-727 417.59,-727 611.59,-727 611.59,-727 617.59,-727 623.59,-733 623.59,-739 623.59,-739 623.59,-751 623.59,-751 623.59,-757 617.59,-763 611.59,-763"/>
<text text-anchor="middle" x="514.59" y="-741.3" font-family="Helvetica,sans-Serif" font-size="14.00">ApplyTransmissionCorrection</text>
</g>
<!-- TransmissionWorkspace&#45;&gt;ApplyTransmissionCorrection -->
<g id="edge10" class="edge">
<title>TransmissionWorkspace&#45;&gt;ApplyTransmissionCorrection</title>
<path fill="none" stroke="black" d="M606.92,-800.17C591.14,-790.92 571.34,-779.3 554.12,-769.19"/>
<polygon fill="black" stroke="black" points="556.03,-766.25 545.63,-764.21 552.48,-772.29 556.03,-766.25"/>
</g>
<!-- EmptyContainerWorkspace -->
<g id="node8" class="node">
<title>EmptyContainerWorkspace</title>
<ellipse fill="khaki" stroke="black" cx="695.59" cy="-658" rx="133.48" ry="18"/>
<text text-anchor="middle" x="695.59" y="-654.3" font-family="Helvetica,sans-Serif" font-size="14.00">EmptyContainerWorkspace</text>
</g>
<!-- Minus2 -->
<g id="node21" class="node">
<title>Minus2</title>
<path fill="lightskyblue" stroke="black" d="M621.59,-603C621.59,-603 587.59,-603 587.59,-603 581.59,-603 575.59,-597 575.59,-591 575.59,-591 575.59,-579 575.59,-579 575.59,-573 581.59,-567 587.59,-567 587.59,-567 621.59,-567 621.59,-567 627.59,-567 633.59,-573 633.59,-579 633.59,-579 633.59,-591 633.59,-591 633.59,-597 627.59,-603 621.59,-603"/>
<text text-anchor="middle" x="604.59" y="-581.3" font-family="Helvetica,sans-Serif" font-size="14.00">Minus</text>
</g>
<!-- EmptyContainerWorkspace&#45;&gt;Minus2 -->
<g id="edge13" class="edge">
<title>EmptyContainerWorkspace&#45;&gt;Minus2</title>
<path fill="none" stroke="black" d="M673.56,-639.81C662.14,-630.9 647.99,-619.86 635.48,-610.1"/>
<polygon fill="black" stroke="black" points="637.96,-607.6 627.93,-604.21 633.66,-613.12 637.96,-607.6"/>
</g>
<!-- DefaultMaskWorkspace -->
<g id="node9" class="node">
<title>DefaultMaskWorkspace</title>
<ellipse fill="khaki" stroke="black" cx="767.59" cy="-585" rx="116.18" ry="18"/>
<text text-anchor="middle" x="767.59" y="-581.3" font-family="Helvetica,sans-Serif" font-size="14.00">DefaultMaskWorkspace</text>
</g>
<!-- MaskDetectors -->
<g id="node23" class="node">
<title>MaskDetectors</title>
<path fill="lightskyblue" stroke="black" d="M815.09,-516C815.09,-516 720.09,-516 720.09,-516 714.09,-516 708.09,-510 708.09,-504 708.09,-504 708.09,-492 708.09,-492 708.09,-486 714.09,-480 720.09,-480 720.09,-480 815.09,-480 815.09,-480 821.09,-480 827.09,-486 827.09,-492 827.09,-492 827.09,-504 827.09,-504 827.09,-510 821.09,-516 815.09,-516"/>
<text text-anchor="middle" x="767.59" y="-494.3" font-family="Helvetica,sans-Serif" font-size="14.00">MaskDetectors</text>
</g>
<!-- DefaultMaskWorkspace&#45;&gt;MaskDetectors -->
<g id="edge15" class="edge">
<title>DefaultMaskWorkspace&#45;&gt;MaskDetectors</title>
<path fill="none" stroke="black" d="M767.59,-566.8C767.59,-555.58 767.59,-540.67 767.59,-527.69"/>
<polygon fill="black" stroke="black" points="771.09,-527.98 767.59,-517.98 764.09,-527.98 771.09,-527.98"/>
<text text-anchor="middle" x="789.09" y="-537.8" font-family="Helvetica,sans-Serif" font-size="14.00">Edges</text>
</g>
<!-- MaskWorkspace -->
<g id="node10" class="node">
<title>MaskWorkspace</title>
<ellipse fill="khaki" stroke="black" cx="985.59" cy="-585" rx="83.39" ry="18"/>
<text text-anchor="middle" x="985.59" y="-581.3" font-family="Helvetica,sans-Serif" font-size="14.00">MaskWorkspace</text>
</g>
<!-- MaskWorkspace&#45;&gt;MaskDetectors -->
<g id="edge16" class="edge">
<title>MaskWorkspace&#45;&gt;MaskDetectors</title>
<path fill="none" stroke="black" d="M946.37,-568.71C911.86,-555.25 861.24,-535.52 822.67,-520.48"/>
<polygon fill="black" stroke="black" points="824.14,-517.29 813.55,-516.92 821.59,-523.81 824.14,-517.29"/>
<text text-anchor="middle" x="925.59" y="-537.8" font-family="Helvetica,sans-Serif" font-size="14.00">BeamStop</text>
</g>
<!-- SampleThickness -->
<g id="node11" class="node">
<title>SampleThickness</title>
<ellipse fill="khaki" stroke="black" cx="945.59" cy="-425" rx="89.08" ry="18"/>
<text text-anchor="middle" x="945.59" y="-421.3" font-family="Helvetica,sans-Serif" font-size="14.00">SampleThickness</text>
</g>
<!-- Divide3 -->
<g id="node25" class="node">
<title>Divide3</title>
<path fill="lightskyblue" stroke="black" d="M874.59,-356C874.59,-356 838.59,-356 838.59,-356 832.59,-356 826.59,-350 826.59,-344 826.59,-344 826.59,-332 826.59,-332 826.59,-326 832.59,-320 838.59,-320 838.59,-320 874.59,-320 874.59,-320 880.59,-320 886.59,-326 886.59,-332 886.59,-332 886.59,-344 886.59,-344 886.59,-350 880.59,-356 874.59,-356"/>
<text text-anchor="middle" x="856.59" y="-334.3" font-family="Helvetica,sans-Serif" font-size="14.00">Divide</text>
</g>
<!-- SampleThickness&#45;&gt;Divide3 -->
<g id="edge19" class="edge">
<title>SampleThickness&#45;&gt;Divide3</title>
<path fill="none" stroke="black" d="M928.01,-407.21C915.14,-394.91 897.45,-378.02 882.9,-364.12"/>
<polygon fill="black" stroke="black" points="885.49,-361.76 875.84,-357.39 880.66,-366.83 885.49,-361.76"/>
</g>
<!-- FlatFieldWorkspace -->
<g id="node12" class="node">
<title>FlatFieldWorkspace</title>
<ellipse fill="khaki" stroke="black" cx="1064.59" cy="-251" rx="96.68" ry="18"/>
<text text-anchor="middle" x="1064.59" y="-247.3" font-family="Helvetica,sans-Serif" font-size="14.00">FlatFieldWorkspace</text>
</g>
<!-- Divide5 -->
<g id="node27" class="node">
<title>Divide5</title>
<path fill="lightskyblue" stroke="black" d="M1009.59,-182C1009.59,-182 973.59,-182 973.59,-182 967.59,-182 961.59,-176 961.59,-170 961.59,-170 961.59,-158 961.59,-158 961.59,-152 967.59,-146 973.59,-146 973.59,-146 1009.59,-146 1009.59,-146 1015.59,-146 1021.59,-152 1021.59,-158 1021.59,-158 1021.59,-170 1021.59,-170 1021.59,-176 1015.59,-182 1009.59,-182"/>
<text text-anchor="middle" x="991.59" y="-160.3" font-family="Helvetica,sans-Serif" font-size="14.00">Divide</text>
</g>
<!-- FlatFieldWorkspace&#45;&gt;Divide5 -->
<g id="edge23" class="edge">
<title>FlatFieldWorkspace&#45;&gt;Divide5</title>
<path fill="none" stroke="black" d="M1063.02,-232.82C1061.33,-222.44 1057.83,-209.44 1050.59,-200 1045.51,-193.37 1038.79,-187.75 1031.7,-183.08"/>
<polygon fill="black" stroke="black" points="1033.62,-180.15 1023.23,-178.06 1030.05,-186.17 1033.62,-180.15"/>
</g>
<!-- SolventWorkspace -->
<g id="node13" class="node">
<title>SolventWorkspace</title>
<ellipse fill="khaki" stroke="black" cx="1133.59" cy="-164" rx="93.68" ry="18"/>
<text text-anchor="middle" x="1133.59" y="-160.3" font-family="Helvetica,sans-Serif" font-size="14.00">SolventWorkspace</text>
</g>
<!-- Minus3 -->
<g id="node22" class="node">
<title>Minus3</title>
<path fill="lightskyblue" stroke="black" d="M1079.59,-109C1079.59,-109 1045.59,-109 1045.59,-109 1039.59,-109 1033.59,-103 1033.59,-97 1033.59,-97 1033.59,-85 1033.59,-85 1033.59,-79 1039.59,-73 1045.59,-73 1045.59,-73 1079.59,-73 1079.59,-73 1085.59,-73 1091.59,-79 1091.59,-85 1091.59,-85 1091.59,-97 1091.59,-97 1091.59,-103 1085.59,-109 1079.59,-109"/>
<text text-anchor="middle" x="1062.59" y="-87.3" font-family="Helvetica,sans-Serif" font-size="14.00">Minus</text>
</g>
<!-- SolventWorkspace&#45;&gt;Minus3 -->
<g id="edge25" class="edge">
<title>SolventWorkspace&#45;&gt;Minus3</title>
<path fill="none" stroke="black" d="M1116.41,-145.81C1107.77,-137.18 1097.15,-126.56 1087.63,-117.03"/>
<polygon fill="black" stroke="black" points="1090.24,-114.7 1080.69,-110.1 1085.29,-119.65 1090.24,-114.7"/>
</g>
<!-- OutputWorkspace -->
<g id="node14" class="node">
<title>OutputWorkspace</title>
<polygon fill="grey" stroke="black" points="1171.36,-36 998.33,-36 953.82,0 1126.85,0 1171.36,-36"/>
<text text-anchor="middle" x="1062.59" y="-14.3" font-family="Times,serif" font-size="14.00">OutputWorkspace</text>
</g>
<!-- LoadAndMerge&#45;&gt;Divide -->
<g id="edge2" class="edge">
<title>LoadAndMerge&#45;&gt;Divide</title>
<path fill="none" stroke="black" d="M229.96,-1018.63C205.13,-1007.75 173.2,-993.75 148.19,-982.79"/>
<polygon fill="black" stroke="black" points="149.88,-979.71 139.32,-978.9 147.07,-986.12 149.88,-979.71"/>
</g>
<!-- Divide&#45;&gt;Minus -->
<g id="edge4" class="edge">
<title>Divide&#45;&gt;Minus</title>
<path fill="none" stroke="black" d="M137.87,-949.81C164.08,-938.4 202.16,-921.81 230.82,-909.32"/>
<polygon fill="black" stroke="black" points="232.14,-912.57 239.91,-905.36 229.35,-906.15 232.14,-912.57"/>
</g>
<!-- Minus&#45;&gt;MoveInstrumentComponent -->
<g id="edge6" class="edge">
<title>Minus&#45;&gt;MoveInstrumentComponent</title>
<path fill="none" stroke="black" d="M300.05,-872.99C316.09,-863.73 336.17,-852.15 353.61,-842.08"/>
<polygon fill="black" stroke="black" points="355.29,-845.15 362.21,-837.12 351.8,-839.09 355.29,-845.15"/>
</g>
<!-- MoveInstrumentComponent&#45;&gt;ApplyTransmissionCorrection -->
<g id="edge9" class="edge">
<title>MoveInstrumentComponent&#45;&gt;ApplyTransmissionCorrection</title>
<path fill="none" stroke="black" d="M423.19,-799.63C438.87,-790.43 458.32,-779.02 475.25,-769.08"/>
<polygon fill="black" stroke="black" points="476.72,-772.28 483.57,-764.2 473.18,-766.24 476.72,-772.28"/>
</g>
<!-- Divide2 -->
<g id="node24" class="node">
<title>Divide2</title>
<path fill="lightskyblue" stroke="black" d="M532.59,-676C532.59,-676 496.59,-676 496.59,-676 490.59,-676 484.59,-670 484.59,-664 484.59,-664 484.59,-652 484.59,-652 484.59,-646 490.59,-640 496.59,-640 496.59,-640 532.59,-640 532.59,-640 538.59,-640 544.59,-646 544.59,-652 544.59,-652 544.59,-664 544.59,-664 544.59,-670 538.59,-676 532.59,-676"/>
<text text-anchor="middle" x="514.59" y="-654.3" font-family="Helvetica,sans-Serif" font-size="14.00">Divide</text>
</g>
<!-- ApplyTransmissionCorrection&#45;&gt;Divide2 -->
<g id="edge11" class="edge">
<title>ApplyTransmissionCorrection&#45;&gt;Divide2</title>
<path fill="none" stroke="black" d="M514.59,-726.8C514.59,-715.58 514.59,-700.67 514.59,-687.69"/>
<polygon fill="black" stroke="black" points="518.09,-687.98 514.59,-677.98 511.09,-687.98 518.09,-687.98"/>
<text text-anchor="middle" x="551.59" y="-697.8" font-family="Helvetica,sans-Serif" font-size="14.00">SolidAngle</text>
</g>
<!-- ParallaxCorrection -->
<g id="node20" class="node">
<title>ParallaxCorrection</title>
<path fill="lightskyblue" stroke="black" d="M826.09,-443C826.09,-443 709.09,-443 709.09,-443 703.09,-443 697.09,-437 697.09,-431 697.09,-431 697.09,-419 697.09,-419 697.09,-413 703.09,-407 709.09,-407 709.09,-407 826.09,-407 826.09,-407 832.09,-407 838.09,-413 838.09,-419 838.09,-419 838.09,-431 838.09,-431 838.09,-437 832.09,-443 826.09,-443"/>
<text text-anchor="middle" x="767.59" y="-421.3" font-family="Helvetica,sans-Serif" font-size="14.00">ParallaxCorrection</text>
</g>
<!-- ParallaxCorrection&#45;&gt;Divide3 -->
<g id="edge18" class="edge">
<title>ParallaxCorrection&#45;&gt;Divide3</title>
<path fill="none" stroke="black" d="M785.6,-406.8C798.43,-394.55 815.86,-377.9 830.25,-364.16"/>
<polygon fill="black" stroke="black" points="832.39,-366.95 837.21,-357.51 827.56,-361.89 832.39,-366.95"/>
<text text-anchor="middle" x="851.59" y="-377.8" font-family="Helvetica,sans-Serif" font-size="14.00">Thickness</text>
</g>
<!-- Minus2&#45;&gt;MaskDetectors -->
<g id="edge14" class="edge">
<title>Minus2&#45;&gt;MaskDetectors</title>
<path fill="none" stroke="black" d="M633.73,-568.8C658.85,-555.7 695.48,-536.6 724.07,-521.69"/>
<polygon fill="black" stroke="black" points="725.62,-524.84 732.87,-517.11 722.38,-518.63 725.62,-524.84"/>
</g>
<!-- Minus3&#45;&gt;OutputWorkspace -->
<g id="edge26" class="edge">
<title>Minus3&#45;&gt;OutputWorkspace</title>
<path fill="none" stroke="black" d="M1062.59,-72.81C1062.59,-65.23 1062.59,-56.1 1062.59,-47.54"/>
<polygon fill="black" stroke="black" points="1066.09,-47.54 1062.59,-37.54 1059.09,-47.54 1066.09,-47.54"/>
</g>
<!-- MaskDetectors&#45;&gt;ParallaxCorrection -->
<g id="edge17" class="edge">
<title>MaskDetectors&#45;&gt;ParallaxCorrection</title>
<path fill="none" stroke="black" d="M767.59,-479.81C767.59,-472.23 767.59,-463.1 767.59,-454.54"/>
<polygon fill="black" stroke="black" points="771.09,-454.54 767.59,-444.54 764.09,-454.54 771.09,-454.54"/>
</g>
<!-- Divide2&#45;&gt;Minus2 -->
<g id="edge12" class="edge">
<title>Divide2&#45;&gt;Minus2</title>
<path fill="none" stroke="black" d="M536.38,-639.81C547.57,-630.98 561.4,-620.07 573.68,-610.39"/>
<polygon fill="black" stroke="black" points="575.82,-613.15 581.51,-604.21 571.49,-607.66 575.82,-613.15"/>
</g>
<!-- Divide3&#45;&gt;Divide4 -->
<g id="edge20" class="edge">
<title>Divide3&#45;&gt;Divide4</title>
<path fill="none" stroke="black" d="M869.34,-319.8C878.08,-308.01 889.84,-292.14 899.79,-278.72"/>
<polygon fill="black" stroke="black" points="902.6,-280.8 905.74,-270.68 896.98,-276.63 902.6,-280.8"/>
<text text-anchor="middle" x="906.59" y="-290.8" font-family="Helvetica,sans-Serif" font-size="14.00">Flux</text>
</g>
<!-- Divide4&#45;&gt;Divide5 -->
<g id="edge22" class="edge">
<title>Divide4&#45;&gt;Divide5</title>
<path fill="none" stroke="black" d="M915.68,-232.51C914.37,-222.27 914.54,-209.52 920.59,-200 927.54,-189.08 938.98,-181.46 950.67,-176.18"/>
<polygon fill="black" stroke="black" points="951.93,-179.45 959.95,-172.53 949.36,-172.94 951.93,-179.45"/>
<text text-anchor="middle" x="985.59" y="-203.8" font-family="Helvetica,sans-Serif" font-size="14.00">WaterOrSensitivity</text>
</g>
<!-- Divide5&#45;&gt;Minus3 -->
<g id="edge24" class="edge">
<title>Divide5&#45;&gt;Minus3</title>
<path fill="none" stroke="black" d="M1008.78,-145.81C1017.41,-137.18 1028.04,-126.56 1037.56,-117.03"/>
<polygon fill="black" stroke="black" points="1039.9,-119.65 1044.49,-110.1 1034.95,-114.7 1039.9,-119.65"/>
</g>
</g>
</svg>
