<?xml version="1.0" encoding="UTF-8" standalone="no"?>
<!DOCTYPE svg PUBLIC "-//W3C//DTD SVG 1.1//EN"
 "http://www.w3.org/Graphics/SVG/1.1/DTD/svg11.dtd">
<!-- Generated by graphviz version 11.0.0 (20240519.1550)
 -->
<!-- Title: Beam Pages: 1 -->
<svg width="545pt" height="836pt"
 viewBox="0.00 0.00 544.71 836.00" xmlns="http://www.w3.org/2000/svg" xmlns:xlink="http://www.w3.org/1999/xlink">
<g id="graph0" class="graph" transform="scale(1 1) rotate(0) translate(4 832)">
<title>Beam</title>
<polygon fill="white" stroke="none" points="-4,4 -4,-832 540.71,-832 540.71,4 -4,4"/>
<!-- NormaliseBy -->
<g id="node1" class="node">
<title>NormaliseBy</title>
<polygon fill="limegreen" stroke="black" points="367.66,-684 265.48,-666 367.66,-648 469.84,-666 367.66,-684"/>
<text text-anchor="middle" x="367.66" y="-661.33" font-family="Helvetica,sans-Serif" font-size="14.00">NormaliseBy</text>
</g>
<!-- Divide -->
<g id="node12" class="node">
<title>Divide</title>
<path fill="lightskyblue" stroke="black" d="M385.41,-612C385.41,-612 349.91,-612 349.91,-612 343.91,-612 337.91,-606 337.91,-600 337.91,-600 337.91,-588 337.91,-588 337.91,-582 343.91,-576 349.91,-576 349.91,-576 385.41,-576 385.41,-576 391.41,-576 397.41,-582 397.41,-588 397.41,-588 397.41,-600 397.41,-600 397.41,-606 391.41,-612 385.41,-612"/>
<text text-anchor="middle" x="367.66" y="-589.33" font-family="Helvetica,sans-Serif" font-size="14.00">Divide</text>
</g>
<!-- NormaliseBy&#45;&gt;Divide -->
<g id="edge3" class="edge">
<title>NormaliseBy&#45;&gt;Divide</title>
<path fill="none" stroke="black" d="M367.66,-647.7C367.66,-640.41 367.66,-631.73 367.66,-623.54"/>
<polygon fill="black" stroke="black" points="371.16,-623.62 367.66,-613.62 364.16,-623.62 371.16,-623.62"/>
</g>
<!-- DirectBeam -->
<g id="node2" class="node">
<title>DirectBeam</title>
<polygon fill="limegreen" stroke="black" points="275.66,-396 180.17,-378 275.66,-360 371.14,-378 275.66,-396"/>
<text text-anchor="middle" x="275.66" y="-373.32" font-family="Helvetica,sans-Serif" font-size="14.00">DirectBeam</text>
</g>
<!-- BeamCenterX -->
<g id="node6" class="node">
<title>BeamCenterX</title>
<polygon fill="grey" stroke="black" points="175.32,-324 35.87,-324 0,-288 139.44,-288 175.32,-324"/>
<text text-anchor="middle" x="87.66" y="-299.82" font-family="Times,serif" font-size="14.00">BeamCenterX</text>
</g>
<!-- DirectBeam&#45;&gt;BeamCenterX -->
<g id="edge9" class="edge">
<title>DirectBeam&#45;&gt;BeamCenterX</title>
<path fill="none" stroke="black" d="M244.61,-365.44C217.6,-355.38 177.76,-340.55 144.98,-328.34"/>
<polygon fill="black" stroke="black" points="146.62,-325.22 136.03,-325.01 144.18,-331.78 146.62,-325.22"/>
</g>
<!-- BeamCenterY -->
<g id="node7" class="node">
<title>BeamCenterY</title>
<polygon fill="grey" stroke="black" points="368.32,-324 228.87,-324 193,-288 332.44,-288 368.32,-324"/>
<text text-anchor="middle" x="280.66" y="-299.82" font-family="Times,serif" font-size="14.00">BeamCenterY</text>
</g>
<!-- DirectBeam&#45;&gt;BeamCenterY -->
<g id="edge10" class="edge">
<title>DirectBeam&#45;&gt;BeamCenterY</title>
<path fill="none" stroke="black" d="M276.87,-360.05C277.39,-352.68 278.03,-343.84 278.62,-335.51"/>
<polygon fill="black" stroke="black" points="282.09,-336.01 279.32,-325.78 275.11,-335.51 282.09,-336.01"/>
</g>
<!-- Run -->
<g id="node3" class="node">
<title>Run</title>
<ellipse fill="khaki" stroke="black" cx="367.66" cy="-810" rx="30.16" ry="18"/>
<text text-anchor="middle" x="367.66" y="-805.33" font-family="Helvetica,sans-Serif" font-size="14.00">Run</text>
</g>
<!-- LoadAndMerge -->
<g id="node11" class="node">
<title>LoadAndMerge</title>
<path fill="lightskyblue" stroke="black" d="M415.41,-756C415.41,-756 319.91,-756 319.91,-756 313.91,-756 307.91,-750 307.91,-744 307.91,-744 307.91,-732 307.91,-732 307.91,-726 313.91,-720 319.91,-720 319.91,-720 415.41,-720 415.41,-720 421.41,-720 427.41,-726 427.41,-732 427.41,-732 427.41,-744 427.41,-744 427.41,-750 421.41,-756 415.41,-756"/>
<text text-anchor="middle" x="367.66" y="-733.33" font-family="Helvetica,sans-Serif" font-size="14.00">LoadAndMerge</text>
</g>
<!-- Run&#45;&gt;LoadAndMerge -->
<g id="edge1" class="edge">
<title>Run&#45;&gt;LoadAndMerge</title>
<path fill="none" stroke="black" d="M367.66,-791.7C367.66,-784.41 367.66,-775.73 367.66,-767.54"/>
<polygon fill="black" stroke="black" points="371.16,-767.62 367.66,-757.62 364.16,-767.62 371.16,-767.62"/>
</g>
<!-- BeamRadius -->
<g id="node4" class="node">
<title>BeamRadius</title>
<ellipse fill="khaki" stroke="black" cx="397.66" cy="-522" rx="72.25" ry="18"/>
<text text-anchor="middle" x="397.66" y="-517.33" font-family="Helvetica,sans-Serif" font-size="14.00">BeamRadius</text>
</g>
<!-- FindCenterOfMassPosition -->
<g id="node14" class="node">
<title>FindCenterOfMassPosition</title>
<path fill="lightskyblue" stroke="black" d="M362.03,-468C362.03,-468 189.28,-468 189.28,-468 183.28,-468 177.28,-462 177.28,-456 177.28,-456 177.28,-444 177.28,-444 177.28,-438 183.28,-432 189.28,-432 189.28,-432 362.03,-432 362.03,-432 368.03,-432 374.03,-438 374.03,-444 374.03,-444 374.03,-456 374.03,-456 374.03,-462 368.03,-468 362.03,-468"/>
<text text-anchor="middle" x="275.66" y="-445.32" font-family="Helvetica,sans-Serif" font-size="14.00">FindCenterOfMassPosition</text>
</g>
<!-- BeamRadius&#45;&gt;FindCenterOfMassPosition -->
<g id="edge7" class="edge">
<title>BeamRadius&#45;&gt;FindCenterOfMassPosition</title>
<path fill="none" stroke="black" d="M369.67,-504.94C353.64,-495.75 333.27,-484.05 315.58,-473.91"/>
<polygon fill="black" stroke="black" points="317.81,-471.15 307.39,-469.21 314.33,-477.22 317.81,-471.15"/>
</g>
<!-- IntegrateInRadius -->
<g id="node16" class="node">
<title>IntegrateInRadius</title>
<polygon fill="lightseagreen" stroke="black" points="404.91,-180 264.41,-180 264.41,-144 404.91,-144 404.91,-180"/>
<text text-anchor="middle" x="334.66" y="-157.32" font-family="Helvetica,sans-Serif" font-size="14.00">IntegrateInRadius</text>
</g>
<!-- BeamRadius&#45;&gt;IntegrateInRadius -->
<g id="edge13" class="edge">
<title>BeamRadius&#45;&gt;IntegrateInRadius</title>
<path fill="none" stroke="black" d="M398.47,-503.52C399.64,-476.72 401.66,-423.89 401.66,-379 401.66,-379 401.66,-379 401.66,-305 401.66,-264.55 401.09,-252 382.66,-216 377.59,-206.1 370.19,-196.64 362.71,-188.52"/>
<polygon fill="black" stroke="black" points="365.22,-186.08 355.73,-181.36 360.21,-190.97 365.22,-186.08"/>
</g>
<!-- AbsorberInputWorkspace -->
<g id="node5" class="node">
<title>AbsorberInputWorkspace</title>
<ellipse fill="khaki" stroke="black" cx="184.66" cy="-594" rx="134.86" ry="18"/>
<text text-anchor="middle" x="184.66" y="-589.33" font-family="Helvetica,sans-Serif" font-size="14.00">AbsorberInputWorkspace</text>
</g>
<!-- Minus -->
<g id="node13" class="node">
<title>Minus</title>
<path fill="lightskyblue" stroke="black" d="M292.28,-540C292.28,-540 259.03,-540 259.03,-540 253.03,-540 247.03,-534 247.03,-528 247.03,-528 247.03,-516 247.03,-516 247.03,-510 253.03,-504 259.03,-504 259.03,-504 292.28,-504 292.28,-504 298.28,-504 304.28,-510 304.28,-516 304.28,-516 304.28,-528 304.28,-528 304.28,-534 298.28,-540 292.28,-540"/>
<text text-anchor="middle" x="275.66" y="-517.33" font-family="Helvetica,sans-Serif" font-size="14.00">Minus</text>
</g>
<!-- AbsorberInputWorkspace&#45;&gt;Minus -->
<g id="edge5" class="edge">
<title>AbsorberInputWorkspace&#45;&gt;Minus</title>
<path fill="none" stroke="black" d="M206.69,-576.05C217.92,-567.41 231.78,-556.75 244.13,-547.26"/>
<polygon fill="black" stroke="black" points="246.21,-550.07 252,-541.2 241.94,-544.52 246.21,-550.07"/>
</g>
<!-- MoveInstrumentComponent -->
<g id="node15" class="node">
<title>MoveInstrumentComponent</title>
<path fill="lightskyblue" stroke="black" d="M361.78,-252C361.78,-252 175.53,-252 175.53,-252 169.53,-252 163.53,-246 163.53,-240 163.53,-240 163.53,-228 163.53,-228 163.53,-222 169.53,-216 175.53,-216 175.53,-216 361.78,-216 361.78,-216 367.78,-216 373.78,-222 373.78,-228 373.78,-228 373.78,-240 373.78,-240 373.78,-246 367.78,-252 361.78,-252"/>
<text text-anchor="middle" x="268.66" y="-229.32" font-family="Helvetica,sans-Serif" font-size="14.00">MoveInstrumentComponent</text>
</g>
<!-- BeamCenterX&#45;&gt;MoveInstrumentComponent -->
<g id="edge11" class="edge">
<title>BeamCenterX&#45;&gt;MoveInstrumentComponent</title>
<path fill="none" stroke="black" d="M132.87,-287.52C157.14,-278.13 187.28,-266.47 213,-256.53"/>
<polygon fill="black" stroke="black" points="214.24,-259.8 222.3,-252.93 211.71,-253.27 214.24,-259.8"/>
</g>
<!-- BeamCenterY&#45;&gt;MoveInstrumentComponent -->
<g id="edge12" class="edge">
<title>BeamCenterY&#45;&gt;MoveInstrumentComponent</title>
<path fill="none" stroke="black" d="M277.69,-287.7C276.43,-280.32 274.92,-271.52 273.5,-263.25"/>
<polygon fill="black" stroke="black" points="276.99,-262.86 271.85,-253.6 270.09,-264.04 276.99,-262.86"/>
</g>
<!-- BeamFluxValue -->
<g id="node8" class="node">
<title>BeamFluxValue</title>
<polygon fill="grey" stroke="black" points="326.81,-108 170.67,-108 130.51,-72 286.64,-72 326.81,-108"/>
<text text-anchor="middle" x="228.66" y="-83.83" font-family="Times,serif" font-size="14.00">BeamFluxValue</text>
</g>
<!-- OutputWorkspace -->
<g id="node10" class="node">
<title>OutputWorkspace</title>
<polygon fill="grey" stroke="black" points="440.5,-36 272.13,-36 228.82,0 397.19,0 440.5,-36"/>
<text text-anchor="middle" x="334.66" y="-11.82" font-family="Times,serif" font-size="14.00">OutputWorkspace</text>
</g>
<!-- BeamFluxValue&#45;&gt;OutputWorkspace -->
<g id="edge17" class="edge">
<title>BeamFluxValue&#45;&gt;OutputWorkspace</title>
<path fill="none" stroke="black" d="M255.13,-71.52C268.39,-62.76 284.62,-52.04 298.96,-42.58"/>
<polygon fill="black" stroke="black" points="300.84,-45.53 307.26,-37.09 296.98,-39.68 300.84,-45.53"/>
</g>
<!-- BeamFluxError -->
<g id="node9" class="node">
<title>BeamFluxError</title>
<polygon fill="grey" stroke="black" points="536.71,-108 383.91,-108 344.61,-72 497.4,-72 536.71,-108"/>
<text text-anchor="middle" x="440.66" y="-83.83" font-family="Times,serif" font-size="14.00">BeamFluxError</text>
</g>
<!-- BeamFluxError&#45;&gt;OutputWorkspace -->
<g id="edge18" class="edge">
<title>BeamFluxError&#45;&gt;OutputWorkspace</title>
<path fill="none" stroke="black" d="M414.18,-71.52C400.93,-62.76 384.7,-52.04 370.36,-42.58"/>
<polygon fill="black" stroke="black" points="372.33,-39.68 362.06,-37.09 368.47,-45.53 372.33,-39.68"/>
</g>
<!-- LoadAndMerge&#45;&gt;NormaliseBy -->
<g id="edge2" class="edge">
<title>LoadAndMerge&#45;&gt;NormaliseBy</title>
<path fill="none" stroke="black" d="M367.66,-719.7C367.66,-712.41 367.66,-703.73 367.66,-695.54"/>
<polygon fill="black" stroke="black" points="371.16,-695.62 367.66,-685.62 364.16,-695.62 371.16,-695.62"/>
</g>
<!-- Divide&#45;&gt;Minus -->
<g id="edge4" class="edge">
<title>Divide&#45;&gt;Minus</title>
<path fill="none" stroke="black" d="M344.92,-575.7C333.64,-567.11 319.83,-556.61 307.51,-547.24"/>
<polygon fill="black" stroke="black" points="309.74,-544.53 299.66,-541.26 305.5,-550.1 309.74,-544.53"/>
</g>
<!-- Minus&#45;&gt;FindCenterOfMassPosition -->
<g id="edge6" class="edge">
<title>Minus&#45;&gt;FindCenterOfMassPosition</title>
<path fill="none" stroke="black" d="M275.66,-503.7C275.66,-496.41 275.66,-487.73 275.66,-479.54"/>
<polygon fill="black" stroke="black" points="279.16,-479.62 275.66,-469.62 272.16,-479.62 279.16,-479.62"/>
</g>
<!-- FindCenterOfMassPosition&#45;&gt;DirectBeam -->
<g id="edge8" class="edge">
<title>FindCenterOfMassPosition&#45;&gt;DirectBeam</title>
<path fill="none" stroke="black" d="M275.66,-431.7C275.66,-424.41 275.66,-415.73 275.66,-407.54"/>
<polygon fill="black" stroke="black" points="279.16,-407.62 275.66,-397.62 272.16,-407.62 279.16,-407.62"/>
</g>
<!-- MoveInstrumentComponent&#45;&gt;IntegrateInRadius -->
<g id="edge14" class="edge">
<title>MoveInstrumentComponent&#45;&gt;IntegrateInRadius</title>
<path fill="none" stroke="black" d="M284.97,-215.7C292.73,-207.47 302.15,-197.48 310.69,-188.42"/>
<polygon fill="black" stroke="black" points="313.18,-190.88 317.49,-181.21 308.09,-186.08 313.18,-190.88"/>
</g>
<!-- IntegrateInRadius&#45;&gt;BeamFluxValue -->
<g id="edge15" class="edge">
<title>IntegrateInRadius&#45;&gt;BeamFluxValue</title>
<path fill="none" stroke="black" d="M308.18,-143.52C294.93,-134.76 278.7,-124.04 264.36,-114.58"/>
<polygon fill="black" stroke="black" points="266.33,-111.68 256.06,-109.09 262.47,-117.53 266.33,-111.68"/>
</g>
<!-- IntegrateInRadius&#45;&gt;BeamFluxError -->
<g id="edge16" class="edge">
<title>IntegrateInRadius&#45;&gt;BeamFluxError</title>
<path fill="none" stroke="black" d="M361.13,-143.52C374.39,-134.76 390.62,-124.04 404.96,-114.58"/>
<polygon fill="black" stroke="black" points="406.84,-117.53 413.26,-109.09 402.98,-111.68 406.84,-117.53"/>
</g>
</g>
</svg>
