<?xml version="1.0" encoding="UTF-8" standalone="no"?>
<!DOCTYPE svg PUBLIC "-//W3C//DTD SVG 1.1//EN"
 "http://www.w3.org/Graphics/SVG/1.1/DTD/svg11.dtd">
<!-- Generated by graphviz version 7.1.0 (20230122.1345)
 -->
<!-- Title: Sample Pages: 1 -->
<svg width="688pt" height="1167pt"
 viewBox="0.00 0.00 687.53 1167.00" xmlns="http://www.w3.org/2000/svg" xmlns:xlink="http://www.w3.org/1999/xlink">
<g id="graph0" class="graph" transform="scale(1 1) rotate(0) translate(4 1163)">
<title>Sample</title>
<polygon fill="white" stroke="none" points="-4,4 -4,-1163 683.53,-1163 683.53,4 -4,4"/>
<!-- NormaliseBy -->
<g id="node1" class="node">
<title>NormaliseBy</title>
<polygon fill="limegreen" stroke="black" points="390.84,-1013 295.16,-995 390.84,-977 486.53,-995 390.84,-1013"/>
<text text-anchor="middle" x="390.84" y="-991.3" font-family="Helvetica,sans-Serif" font-size="14.00">NormaliseBy</text>
</g>
<!-- Divide -->
<g id="node14" class="node">
<title>Divide</title>
<path fill="lightskyblue" stroke="black" d="M408.84,-940C408.84,-940 372.84,-940 372.84,-940 366.84,-940 360.84,-934 360.84,-928 360.84,-928 360.84,-916 360.84,-916 360.84,-910 366.84,-904 372.84,-904 372.84,-904 408.84,-904 408.84,-904 414.84,-904 420.84,-910 420.84,-916 420.84,-916 420.84,-928 420.84,-928 420.84,-934 414.84,-940 408.84,-940"/>
<text text-anchor="middle" x="390.84" y="-918.3" font-family="Helvetica,sans-Serif" font-size="14.00">Divide</text>
</g>
<!-- NormaliseBy&#45;&gt;Divide -->
<g id="edge3" class="edge">
<title>NormaliseBy&#45;&gt;Divide</title>
<path fill="none" stroke="black" d="M390.84,-976.81C390.84,-969.23 390.84,-960.1 390.84,-951.54"/>
<polygon fill="black" stroke="black" points="394.34,-951.54 390.84,-941.54 387.34,-951.54 394.34,-951.54"/>
</g>
<!-- AbsoluteScaleBy -->
<g id="node2" class="node">
<title>AbsoluteScaleBy</title>
<polygon fill="limegreen" stroke="black" points="282.84,-342 161.68,-324 282.84,-306 404,-324 282.84,-342"/>
<text text-anchor="middle" x="282.84" y="-320.3" font-family="Helvetica,sans-Serif" font-size="14.00">AbsoluteScaleBy</text>
</g>
<!-- Divide2 -->
<g id="node22" class="node">
<title>Divide2</title>
<path fill="lightskyblue" stroke="black" d="M181.84,-255C181.84,-255 145.84,-255 145.84,-255 139.84,-255 133.84,-249 133.84,-243 133.84,-243 133.84,-231 133.84,-231 133.84,-225 139.84,-219 145.84,-219 145.84,-219 181.84,-219 181.84,-219 187.84,-219 193.84,-225 193.84,-231 193.84,-231 193.84,-243 193.84,-243 193.84,-249 187.84,-255 181.84,-255"/>
<text text-anchor="middle" x="163.84" y="-233.3" font-family="Helvetica,sans-Serif" font-size="14.00">Divide</text>
</g>
<!-- AbsoluteScaleBy&#45;&gt;Divide2 -->
<g id="edge18" class="edge">
<title>AbsoluteScaleBy&#45;&gt;Divide2</title>
<path fill="none" stroke="black" d="M262.65,-308.58C244.83,-295.85 218.48,-277.03 197.47,-262.02"/>
<polygon fill="black" stroke="black" points="199.65,-259.28 189.48,-256.31 195.58,-264.97 199.65,-259.28"/>
<text text-anchor="middle" x="266.84" y="-276.8" font-family="Helvetica,sans-Serif" font-size="14.00">Beam Flux</text>
</g>
<!-- Divide4 -->
<g id="node24" class="node">
<title>Divide4</title>
<path fill="lightskyblue" stroke="black" d="M539.84,-255C539.84,-255 503.84,-255 503.84,-255 497.84,-255 491.84,-249 491.84,-243 491.84,-243 491.84,-231 491.84,-231 491.84,-225 497.84,-219 503.84,-219 503.84,-219 539.84,-219 539.84,-219 545.84,-219 551.84,-225 551.84,-231 551.84,-231 551.84,-243 551.84,-243 551.84,-249 545.84,-255 539.84,-255"/>
<text text-anchor="middle" x="521.84" y="-233.3" font-family="Helvetica,sans-Serif" font-size="14.00">Divide</text>
</g>
<!-- AbsoluteScaleBy&#45;&gt;Divide4 -->
<g id="edge23" class="edge">
<title>AbsoluteScaleBy&#45;&gt;Divide4</title>
<path fill="none" stroke="black" d="M312.46,-310.04C337.94,-299.2 375.86,-283.83 409.84,-273 438.69,-263.81 449.21,-265.29 480.84,-255.34"/>
<polygon fill="black" stroke="black" points="481.54,-258.8 489.94,-252.34 479.35,-252.15 481.54,-258.8"/>
<text text-anchor="middle" x="469.84" y="-276.8" font-family="Helvetica,sans-Serif" font-size="14.00">Standard Sample</text>
</g>
<!-- Run -->
<g id="node3" class="node">
<title>Run</title>
<ellipse fill="khaki" stroke="black" cx="390.84" cy="-1141" rx="28.7" ry="18"/>
<text text-anchor="middle" x="390.84" y="-1137.3" font-family="Helvetica,sans-Serif" font-size="14.00">Run</text>
</g>
<!-- LoadAndMerge -->
<g id="node13" class="node">
<title>LoadAndMerge</title>
<path fill="lightskyblue" stroke="black" d="M438.84,-1086C438.84,-1086 342.84,-1086 342.84,-1086 336.84,-1086 330.84,-1080 330.84,-1074 330.84,-1074 330.84,-1062 330.84,-1062 330.84,-1056 336.84,-1050 342.84,-1050 342.84,-1050 438.84,-1050 438.84,-1050 444.84,-1050 450.84,-1056 450.84,-1062 450.84,-1062 450.84,-1074 450.84,-1074 450.84,-1080 444.84,-1086 438.84,-1086"/>
<text text-anchor="middle" x="390.84" y="-1064.3" font-family="Helvetica,sans-Serif" font-size="14.00">LoadAndMerge</text>
</g>
<!-- Run&#45;&gt;LoadAndMerge -->
<g id="edge1" class="edge">
<title>Run&#45;&gt;LoadAndMerge</title>
<path fill="none" stroke="black" d="M390.84,-1122.81C390.84,-1115.23 390.84,-1106.1 390.84,-1097.54"/>
<polygon fill="black" stroke="black" points="394.34,-1097.54 390.84,-1087.54 387.34,-1097.54 394.34,-1097.54"/>
</g>
<!-- BeamInputWorkspace -->
<g id="node4" class="node">
<title>BeamInputWorkspace</title>
<ellipse fill="khaki" stroke="black" cx="109.84" cy="-849" rx="109.68" ry="18"/>
<text text-anchor="middle" x="109.84" y="-845.3" font-family="Helvetica,sans-Serif" font-size="14.00">BeamInputWorkspace</text>
</g>
<!-- MoveInstrumentComponent -->
<g id="node16" class="node">
<title>MoveInstrumentComponent</title>
<path fill="lightskyblue" stroke="black" d="M361.34,-794C361.34,-794 174.34,-794 174.34,-794 168.34,-794 162.34,-788 162.34,-782 162.34,-782 162.34,-770 162.34,-770 162.34,-764 168.34,-758 174.34,-758 174.34,-758 361.34,-758 361.34,-758 367.34,-758 373.34,-764 373.34,-770 373.34,-770 373.34,-782 373.34,-782 373.34,-788 367.34,-794 361.34,-794"/>
<text text-anchor="middle" x="267.84" y="-772.3" font-family="Helvetica,sans-Serif" font-size="14.00">MoveInstrumentComponent</text>
</g>
<!-- BeamInputWorkspace&#45;&gt;MoveInstrumentComponent -->
<g id="edge7" class="edge">
<title>BeamInputWorkspace&#45;&gt;MoveInstrumentComponent</title>
<path fill="none" stroke="black" d="M146.09,-831.71C167.58,-822.05 195.11,-809.68 218.55,-799.15"/>
<polygon fill="black" stroke="black" points="219.93,-802.37 227.62,-795.07 217.06,-795.98 219.93,-802.37"/>
</g>
<!-- BeamInputWorkspace&#45;&gt;Divide2 -->
<g id="edge19" class="edge">
<title>BeamInputWorkspace&#45;&gt;Divide2</title>
<path fill="none" stroke="black" d="M119.19,-830.75C125.93,-816.7 133.84,-796.13 133.84,-777 133.84,-777 133.84,-777 133.84,-323 133.84,-302.85 141.43,-281.46 148.98,-265.18"/>
<polygon fill="black" stroke="black" points="151.91,-267.16 153.18,-256.64 145.63,-264.06 151.91,-267.16"/>
</g>
<!-- TransmissionInputWorkspace -->
<g id="node5" class="node">
<title>TransmissionInputWorkspace</title>
<ellipse fill="khaki" stroke="black" cx="473.84" cy="-689" rx="142.97" ry="18"/>
<text text-anchor="middle" x="473.84" y="-685.3" font-family="Helvetica,sans-Serif" font-size="14.00">TransmissionInputWorkspace</text>
</g>
<!-- ApplyTransmissionCorrection -->
<g id="node17" class="node">
<title>ApplyTransmissionCorrection</title>
<path fill="lightskyblue" stroke="black" d="M372.84,-634C372.84,-634 178.84,-634 178.84,-634 172.84,-634 166.84,-628 166.84,-622 166.84,-622 166.84,-610 166.84,-610 166.84,-604 172.84,-598 178.84,-598 178.84,-598 372.84,-598 372.84,-598 378.84,-598 384.84,-604 384.84,-610 384.84,-610 384.84,-622 384.84,-622 384.84,-628 378.84,-634 372.84,-634"/>
<text text-anchor="middle" x="275.84" y="-612.3" font-family="Helvetica,sans-Serif" font-size="14.00">ApplyTransmissionCorrection</text>
</g>
<!-- TransmissionInputWorkspace&#45;&gt;ApplyTransmissionCorrection -->
<g id="edge10" class="edge">
<title>TransmissionInputWorkspace&#45;&gt;ApplyTransmissionCorrection</title>
<path fill="none" stroke="black" d="M427.92,-671.53C400.34,-661.65 364.97,-648.96 335.28,-638.31"/>
<polygon fill="black" stroke="black" points="336.64,-635.09 326.05,-635 334.28,-641.67 336.64,-635.09"/>
</g>
<!-- AbsorberInputWorkspace -->
<g id="node6" class="node">
<title>AbsorberInputWorkspace</title>
<ellipse fill="khaki" stroke="black" cx="217.84" cy="-922" rx="125.38" ry="18"/>
<text text-anchor="middle" x="217.84" y="-918.3" font-family="Helvetica,sans-Serif" font-size="14.00">AbsorberInputWorkspace</text>
</g>
<!-- Minus -->
<g id="node15" class="node">
<title>Minus</title>
<path fill="lightskyblue" stroke="black" d="M284.84,-867C284.84,-867 250.84,-867 250.84,-867 244.84,-867 238.84,-861 238.84,-855 238.84,-855 238.84,-843 238.84,-843 238.84,-837 244.84,-831 250.84,-831 250.84,-831 284.84,-831 284.84,-831 290.84,-831 296.84,-837 296.84,-843 296.84,-843 296.84,-855 296.84,-855 296.84,-861 290.84,-867 284.84,-867"/>
<text text-anchor="middle" x="267.84" y="-845.3" font-family="Helvetica,sans-Serif" font-size="14.00">Minus</text>
</g>
<!-- AbsorberInputWorkspace&#45;&gt;Minus -->
<g id="edge5" class="edge">
<title>AbsorberInputWorkspace&#45;&gt;Minus</title>
<path fill="none" stroke="black" d="M229.94,-903.81C235.78,-895.53 242.9,-885.41 249.39,-876.19"/>
<polygon fill="black" stroke="black" points="252.08,-878.46 254.98,-868.27 246.36,-874.43 252.08,-878.46"/>
</g>
<!-- ContainerInputWorkspace -->
<g id="node7" class="node">
<title>ContainerInputWorkspace</title>
<ellipse fill="khaki" stroke="black" cx="530.84" cy="-616" rx="128.08" ry="18"/>
<text text-anchor="middle" x="530.84" y="-612.3" font-family="Helvetica,sans-Serif" font-size="14.00">ContainerInputWorkspace</text>
</g>
<!-- Minus2 -->
<g id="node19" class="node">
<title>Minus2</title>
<path fill="lightskyblue" stroke="black" d="M296.84,-561C296.84,-561 262.84,-561 262.84,-561 256.84,-561 250.84,-555 250.84,-549 250.84,-549 250.84,-537 250.84,-537 250.84,-531 256.84,-525 262.84,-525 262.84,-525 296.84,-525 296.84,-525 302.84,-525 308.84,-531 308.84,-537 308.84,-537 308.84,-549 308.84,-549 308.84,-555 302.84,-561 296.84,-561"/>
<text text-anchor="middle" x="279.84" y="-539.3" font-family="Helvetica,sans-Serif" font-size="14.00">Minus</text>
</g>
<!-- ContainerInputWorkspace&#45;&gt;Minus2 -->
<g id="edge12" class="edge">
<title>ContainerInputWorkspace&#45;&gt;Minus2</title>
<path fill="none" stroke="black" d="M461.36,-600.57C422.01,-591.67 371.83,-579.09 319.86,-561.42"/>
<polygon fill="black" stroke="black" points="321.12,-558.15 310.53,-558.18 318.83,-564.76 321.12,-558.15"/>
</g>
<!-- SensitivityInputWorkspace -->
<g id="node8" class="node">
<title>SensitivityInputWorkspace</title>
<ellipse fill="khaki" stroke="black" cx="342.84" cy="-237" rx="130.78" ry="18"/>
<text text-anchor="middle" x="342.84" y="-233.3" font-family="Helvetica,sans-Serif" font-size="14.00">SensitivityInputWorkspace</text>
</g>
<!-- Divide3 -->
<g id="node23" class="node">
<title>Divide3</title>
<path fill="lightskyblue" stroke="black" d="M360.84,-182C360.84,-182 324.84,-182 324.84,-182 318.84,-182 312.84,-176 312.84,-170 312.84,-170 312.84,-158 312.84,-158 312.84,-152 318.84,-146 324.84,-146 324.84,-146 360.84,-146 360.84,-146 366.84,-146 372.84,-152 372.84,-158 372.84,-158 372.84,-170 372.84,-170 372.84,-176 366.84,-182 360.84,-182"/>
<text text-anchor="middle" x="342.84" y="-160.3" font-family="Helvetica,sans-Serif" font-size="14.00">Divide</text>
</g>
<!-- SensitivityInputWorkspace&#45;&gt;Divide3 -->
<g id="edge21" class="edge">
<title>SensitivityInputWorkspace&#45;&gt;Divide3</title>
<path fill="none" stroke="black" d="M342.84,-218.81C342.84,-211.23 342.84,-202.1 342.84,-193.54"/>
<polygon fill="black" stroke="black" points="346.34,-193.54 342.84,-183.54 339.34,-193.54 346.34,-193.54"/>
</g>
<!-- ReferenceInputWorkspace -->
<g id="node9" class="node">
<title>ReferenceInputWorkspace</title>
<ellipse fill="khaki" stroke="black" cx="550.84" cy="-324" rx="128.88" ry="18"/>
<text text-anchor="middle" x="550.84" y="-320.3" font-family="Helvetica,sans-Serif" font-size="14.00">ReferenceInputWorkspace</text>
</g>
<!-- ReferenceInputWorkspace&#45;&gt;Divide4 -->
<g id="edge24" class="edge">
<title>ReferenceInputWorkspace&#45;&gt;Divide4</title>
<path fill="none" stroke="black" d="M544.97,-305.8C541.11,-294.47 535.95,-279.36 531.49,-266.29"/>
<polygon fill="black" stroke="black" points="534.83,-265.23 528.29,-256.9 528.2,-267.49 534.83,-265.23"/>
</g>
<!-- MaskedInputWorkspace -->
<g id="node10" class="node">
<title>MaskedInputWorkspace</title>
<ellipse fill="khaki" stroke="black" cx="444.84" cy="-543" rx="118.08" ry="18"/>
<text text-anchor="middle" x="444.84" y="-539.3" font-family="Helvetica,sans-Serif" font-size="14.00">MaskedInputWorkspace</text>
</g>
<!-- MaskDetectors -->
<g id="node20" class="node">
<title>MaskDetectors</title>
<path fill="lightskyblue" stroke="black" d="M329.34,-488C329.34,-488 234.34,-488 234.34,-488 228.34,-488 222.34,-482 222.34,-476 222.34,-476 222.34,-464 222.34,-464 222.34,-458 228.34,-452 234.34,-452 234.34,-452 329.34,-452 329.34,-452 335.34,-452 341.34,-458 341.34,-464 341.34,-464 341.34,-476 341.34,-476 341.34,-482 335.34,-488 329.34,-488"/>
<text text-anchor="middle" x="281.84" y="-466.3" font-family="Helvetica,sans-Serif" font-size="14.00">MaskDetectors</text>
</g>
<!-- MaskedInputWorkspace&#45;&gt;MaskDetectors -->
<g id="edge14" class="edge">
<title>MaskedInputWorkspace&#45;&gt;MaskDetectors</title>
<path fill="none" stroke="black" d="M407.04,-525.53C384.83,-515.86 356.49,-503.52 332.39,-493.02"/>
<polygon fill="black" stroke="black" points="333.96,-489.88 323.39,-489.1 331.16,-496.3 333.96,-489.88"/>
</g>
<!-- SampleThickness -->
<g id="node11" class="node">
<title>SampleThickness</title>
<ellipse fill="khaki" stroke="black" cx="448.84" cy="-470" rx="89.08" ry="18"/>
<text text-anchor="middle" x="448.84" y="-466.3" font-family="Helvetica,sans-Serif" font-size="14.00">SampleThickness</text>
</g>
<!-- NormaliseByThickness -->
<g id="node21" class="node">
<title>NormaliseByThickness</title>
<path fill="lightskyblue" stroke="black" d="M357.34,-415C357.34,-415 208.34,-415 208.34,-415 202.34,-415 196.34,-409 196.34,-403 196.34,-403 196.34,-391 196.34,-391 196.34,-385 202.34,-379 208.34,-379 208.34,-379 357.34,-379 357.34,-379 363.34,-379 369.34,-385 369.34,-391 369.34,-391 369.34,-403 369.34,-403 369.34,-409 363.34,-415 357.34,-415"/>
<text text-anchor="middle" x="282.84" y="-393.3" font-family="Helvetica,sans-Serif" font-size="14.00">NormaliseByThickness</text>
</g>
<!-- SampleThickness&#45;&gt;NormaliseByThickness -->
<g id="edge16" class="edge">
<title>SampleThickness&#45;&gt;NormaliseByThickness</title>
<path fill="none" stroke="black" d="M412,-453.24C389.1,-443.45 359.32,-430.71 334.14,-419.94"/>
<polygon fill="black" stroke="black" points="335.62,-416.77 325.05,-416.05 332.86,-423.2 335.62,-416.77"/>
</g>
<!-- OutputWorkspace -->
<g id="node12" class="node">
<title>OutputWorkspace</title>
<polygon fill="grey" stroke="black" points="540.61,-36 367.58,-36 323.07,0 496.1,0 540.61,-36"/>
<text text-anchor="middle" x="431.84" y="-14.3" font-family="Times,serif" font-size="14.00">OutputWorkspace</text>
</g>
<!-- LoadAndMerge&#45;&gt;NormaliseBy -->
<g id="edge2" class="edge">
<title>LoadAndMerge&#45;&gt;NormaliseBy</title>
<path fill="none" stroke="black" d="M390.84,-1049.81C390.84,-1042.23 390.84,-1033.1 390.84,-1024.54"/>
<polygon fill="black" stroke="black" points="394.34,-1024.54 390.84,-1014.54 387.34,-1024.54 394.34,-1024.54"/>
</g>
<!-- Divide&#45;&gt;Minus -->
<g id="edge4" class="edge">
<title>Divide&#45;&gt;Minus</title>
<path fill="none" stroke="black" d="M360.75,-903.63C344.58,-894.3 324.45,-882.68 307.06,-872.64"/>
<polygon fill="black" stroke="black" points="308.92,-869.67 298.51,-867.7 305.42,-875.73 308.92,-869.67"/>
</g>
<!-- Minus&#45;&gt;MoveInstrumentComponent -->
<g id="edge6" class="edge">
<title>Minus&#45;&gt;MoveInstrumentComponent</title>
<path fill="none" stroke="black" d="M267.84,-830.81C267.84,-823.23 267.84,-814.1 267.84,-805.54"/>
<polygon fill="black" stroke="black" points="271.34,-805.54 267.84,-795.54 264.34,-805.54 271.34,-805.54"/>
</g>
<!-- SolidAngle -->
<g id="node18" class="node">
<title>SolidAngle</title>
<path fill="lightskyblue" stroke="black" d="M300.84,-707C300.84,-707 234.84,-707 234.84,-707 228.84,-707 222.84,-701 222.84,-695 222.84,-695 222.84,-683 222.84,-683 222.84,-677 228.84,-671 234.84,-671 234.84,-671 300.84,-671 300.84,-671 306.84,-671 312.84,-677 312.84,-683 312.84,-683 312.84,-695 312.84,-695 312.84,-701 306.84,-707 300.84,-707"/>
<text text-anchor="middle" x="267.84" y="-685.3" font-family="Helvetica,sans-Serif" font-size="14.00">SolidAngle</text>
</g>
<!-- MoveInstrumentComponent&#45;&gt;SolidAngle -->
<g id="edge8" class="edge">
<title>MoveInstrumentComponent&#45;&gt;SolidAngle</title>
<path fill="none" stroke="black" d="M267.84,-757.8C267.84,-746.58 267.84,-731.67 267.84,-718.69"/>
<polygon fill="black" stroke="black" points="271.34,-718.98 267.84,-708.98 264.34,-718.98 271.34,-718.98"/>
<text text-anchor="middle" x="289.84" y="-728.8" font-family="Helvetica,sans-Serif" font-size="14.00">Divide</text>
</g>
<!-- ApplyTransmissionCorrection&#45;&gt;Minus2 -->
<g id="edge11" class="edge">
<title>ApplyTransmissionCorrection&#45;&gt;Minus2</title>
<path fill="none" stroke="black" d="M276.81,-597.81C277.24,-590.14 277.76,-580.89 278.25,-572.24"/>
<polygon fill="black" stroke="black" points="281.73,-572.72 278.8,-562.54 274.74,-572.33 281.73,-572.72"/>
</g>
<!-- SolidAngle&#45;&gt;ApplyTransmissionCorrection -->
<g id="edge9" class="edge">
<title>SolidAngle&#45;&gt;ApplyTransmissionCorrection</title>
<path fill="none" stroke="black" d="M269.78,-670.81C270.64,-663.14 271.68,-653.89 272.66,-645.24"/>
<polygon fill="black" stroke="black" points="276.11,-645.86 273.75,-635.53 269.15,-645.08 276.11,-645.86"/>
</g>
<!-- Minus2&#45;&gt;MaskDetectors -->
<g id="edge13" class="edge">
<title>Minus2&#45;&gt;MaskDetectors</title>
<path fill="none" stroke="black" d="M280.32,-524.81C280.54,-517.14 280.8,-507.89 281.04,-499.24"/>
<polygon fill="black" stroke="black" points="284.53,-499.64 281.32,-489.54 277.54,-499.44 284.53,-499.64"/>
</g>
<!-- MaskDetectors&#45;&gt;NormaliseByThickness -->
<g id="edge15" class="edge">
<title>MaskDetectors&#45;&gt;NormaliseByThickness</title>
<path fill="none" stroke="black" d="M282.08,-451.81C282.19,-444.23 282.32,-435.1 282.44,-426.54"/>
<polygon fill="black" stroke="black" points="285.94,-426.59 282.58,-416.54 278.94,-426.49 285.94,-426.59"/>
</g>
<!-- NormaliseByThickness&#45;&gt;AbsoluteScaleBy -->
<g id="edge17" class="edge">
<title>NormaliseByThickness&#45;&gt;AbsoluteScaleBy</title>
<path fill="none" stroke="black" d="M282.84,-378.81C282.84,-371.23 282.84,-362.1 282.84,-353.54"/>
<polygon fill="black" stroke="black" points="286.34,-353.54 282.84,-343.54 279.34,-353.54 286.34,-353.54"/>
</g>
<!-- Divide2&#45;&gt;Divide3 -->
<g id="edge20" class="edge">
<title>Divide2&#45;&gt;Divide3</title>
<path fill="none" stroke="black" d="M194.02,-222.69C196.99,-221.43 199.97,-220.18 202.84,-219 235.92,-205.42 273.78,-190.87 301.78,-180.31"/>
<polygon fill="black" stroke="black" points="302.83,-183.65 310.96,-176.85 300.37,-177.1 302.83,-183.65"/>
</g>
<!-- ScaleByFluxFactor -->
<g id="node25" class="node">
<title>ScaleByFluxFactor</title>
<polygon fill="lightseagreen" stroke="black" points="503.34,-109 360.34,-109 360.34,-73 503.34,-73 503.34,-109"/>
<text text-anchor="middle" x="431.84" y="-87.3" font-family="Helvetica,sans-Serif" font-size="14.00">ScaleByFluxFactor</text>
</g>
<!-- Divide3&#45;&gt;ScaleByFluxFactor -->
<g id="edge22" class="edge">
<title>Divide3&#45;&gt;ScaleByFluxFactor</title>
<path fill="none" stroke="black" d="M364.38,-145.81C375.45,-136.98 389.13,-126.07 401.27,-116.39"/>
<polygon fill="black" stroke="black" points="403.37,-119.19 409,-110.22 399,-113.72 403.37,-119.19"/>
</g>
<!-- Divide4&#45;&gt;ScaleByFluxFactor -->
<g id="edge25" class="edge">
<title>Divide4&#45;&gt;ScaleByFluxFactor</title>
<path fill="none" stroke="black" d="M510.98,-218.63C495.51,-193.87 466.97,-148.21 448.72,-119.01"/>
<polygon fill="black" stroke="black" points="451.81,-117.34 443.54,-110.71 445.87,-121.05 451.81,-117.34"/>
</g>
<!-- ScaleByFluxFactor&#45;&gt;OutputWorkspace -->
<g id="edge26" class="edge">
<title>ScaleByFluxFactor&#45;&gt;OutputWorkspace</title>
<path fill="none" stroke="black" d="M431.84,-72.81C431.84,-65.23 431.84,-56.1 431.84,-47.54"/>
<polygon fill="black" stroke="black" points="435.34,-47.54 431.84,-37.54 428.34,-47.54 435.34,-47.54"/>
</g>
</g>
</svg>
