<?xml version="1.0" encoding="UTF-8" standalone="no"?>
<!DOCTYPE svg PUBLIC "-//W3C//DTD SVG 1.1//EN"
 "http://www.w3.org/Graphics/SVG/1.1/DTD/svg11.dtd">
<!-- Generated by graphviz version 13.1.2 (20250809.0930)
 -->
<!-- Title: SANSILLMultiProcess Pages: 1 -->
<svg width="189pt" height="260pt"
 viewBox="0.00 0.00 189.00 260.00" xmlns="http://www.w3.org/2000/svg" xmlns:xlink="http://www.w3.org/1999/xlink">
<g id="graph0" class="graph" transform="scale(1 1) rotate(0) translate(4 256)">
<title>SANSILLMultiProcess</title>
<polygon fill="white" stroke="none" points="-4,4 -4,-256 185,-256 185,4 -4,4"/>
<!-- calculate_transmissions -->
<g id="node1" class="node">
<title>calculate_transmissions</title>
<path fill="lightskyblue" stroke="black" d="M169,-252C169,-252 12,-252 12,-252 6,-252 0,-246 0,-240 0,-240 0,-228 0,-228 0,-222 6,-216 12,-216 12,-216 169,-216 169,-216 175,-216 181,-222 181,-228 181,-228 181,-240 181,-240 181,-246 175,-252 169,-252"/>
<text xml:space="preserve" text-anchor="middle" x="90.5" y="-229.32" font-family="Helvetica,sans-Serif" font-size="14.00">calculate_transmissions</text>
</g>
<!-- reduce_samples -->
<g id="node2" class="node">
<title>reduce_samples</title>
<path fill="lightskyblue" stroke="black" d="M142.38,-180C142.38,-180 38.62,-180 38.62,-180 32.62,-180 26.62,-174 26.62,-168 26.62,-168 26.62,-156 26.62,-156 26.62,-150 32.62,-144 38.62,-144 38.62,-144 142.38,-144 142.38,-144 148.38,-144 154.38,-150 154.38,-156 154.38,-156 154.38,-168 154.38,-168 154.38,-174 148.38,-180 142.38,-180"/>
<text xml:space="preserve" text-anchor="middle" x="90.5" y="-157.32" font-family="Helvetica,sans-Serif" font-size="14.00">reduce_samples</text>
</g>
<!-- calculate_transmissions&#45;&gt;reduce_samples -->
<g id="edge1" class="edge">
<title>calculate_transmissions&#45;&gt;reduce_samples</title>
<path fill="none" stroke="black" d="M90.5,-215.7C90.5,-208.41 90.5,-199.73 90.5,-191.54"/>
<polygon fill="black" stroke="black" points="94,-191.62 90.5,-181.62 87,-191.62 94,-191.62"/>
</g>
<!-- azimuthal_average -->
<g id="node3" class="node">
<title>azimuthal_average</title>
<path fill="lightskyblue" stroke="black" d="M152.12,-108C152.12,-108 28.88,-108 28.88,-108 22.88,-108 16.88,-102 16.88,-96 16.88,-96 16.88,-84 16.88,-84 16.88,-78 22.88,-72 28.88,-72 28.88,-72 152.12,-72 152.12,-72 158.12,-72 164.12,-78 164.12,-84 164.12,-84 164.12,-96 164.12,-96 164.12,-102 158.12,-108 152.12,-108"/>
<text xml:space="preserve" text-anchor="middle" x="90.5" y="-85.33" font-family="Helvetica,sans-Serif" font-size="14.00">azimuthal_average</text>
</g>
<!-- reduce_samples&#45;&gt;azimuthal_average -->
<g id="edge2" class="edge">
<title>reduce_samples&#45;&gt;azimuthal_average</title>
<path fill="none" stroke="black" d="M90.5,-143.7C90.5,-136.41 90.5,-127.73 90.5,-119.54"/>
<polygon fill="black" stroke="black" points="94,-119.62 90.5,-109.62 87,-119.62 94,-119.62"/>
</g>
<!-- stitch -->
<g id="node4" class="node">
<title>stitch</title>
<path fill="lightskyblue" stroke="black" d="M105.62,-36C105.62,-36 75.38,-36 75.38,-36 69.38,-36 63.38,-30 63.38,-24 63.38,-24 63.38,-12 63.38,-12 63.38,-6 69.38,0 75.38,0 75.38,0 105.62,0 105.62,0 111.62,0 117.62,-6 117.62,-12 117.62,-12 117.62,-24 117.62,-24 117.62,-30 111.62,-36 105.62,-36"/>
<text xml:space="preserve" text-anchor="middle" x="90.5" y="-13.32" font-family="Helvetica,sans-Serif" font-size="14.00">stitch</text>
</g>
<!-- azimuthal_average&#45;&gt;stitch -->
<g id="edge3" class="edge">
<title>azimuthal_average&#45;&gt;stitch</title>
<path fill="none" stroke="black" d="M90.5,-71.7C90.5,-64.41 90.5,-55.73 90.5,-47.54"/>
<polygon fill="black" stroke="black" points="94,-47.62 90.5,-37.62 87,-47.62 94,-47.62"/>
</g>
</g>
</svg>
