<?xml version="1.0" encoding="UTF-8" standalone="no"?>
<!DOCTYPE svg PUBLIC "-//W3C//DTD SVG 1.1//EN"
 "http://www.w3.org/Graphics/SVG/1.1/DTD/svg11.dtd">
<!-- Generated by graphviz version 9.0.0 (20231125.0833)
 -->
<!-- Title: Reference Pages: 1 -->
<svg width="1139pt" height="1131pt"
 viewBox="0.00 0.00 1138.79 1131.00" xmlns="http://www.w3.org/2000/svg" xmlns:xlink="http://www.w3.org/1999/xlink">
<g id="graph0" class="graph" transform="scale(1 1) rotate(0) translate(4 1127)">
<title>Reference</title>
<polygon fill="white" stroke="none" points="-4,4 -4,-1127 1134.79,-1127 1134.79,4 -4,4"/>
<!-- NormaliseBy -->
<g id="node1" class="node">
<title>NormaliseBy</title>
<polygon fill="limegreen" stroke="black" points="102.18,-1050 0,-1032 102.18,-1014 204.36,-1032 102.18,-1050"/>
<text text-anchor="middle" x="102.18" y="-1027.33" font-family="Helvetica,sans-Serif" font-size="14.00">NormaliseBy</text>
</g>
<!-- Divide -->
<g id="node15" class="node">
<title>Divide</title>
<path fill="lightskyblue" stroke="black" d="M131.93,-977C131.93,-977 96.43,-977 96.43,-977 90.43,-977 84.43,-971 84.43,-965 84.43,-965 84.43,-953 84.43,-953 84.43,-947 90.43,-941 96.43,-941 96.43,-941 131.93,-941 131.93,-941 137.93,-941 143.93,-947 143.93,-953 143.93,-953 143.93,-965 143.93,-965 143.93,-971 137.93,-977 131.93,-977"/>
<text text-anchor="middle" x="114.18" y="-954.33" font-family="Helvetica,sans-Serif" font-size="14.00">Divide</text>
</g>
<!-- NormaliseBy&#45;&gt;Divide -->
<g id="edge3" class="edge">
<title>NormaliseBy&#45;&gt;Divide</title>
<path fill="none" stroke="black" d="M105.02,-1014.17C106.31,-1006.56 107.87,-997.35 109.33,-988.7"/>
<polygon fill="black" stroke="black" points="112.76,-989.38 110.98,-978.94 105.86,-988.22 112.76,-989.38"/>
</g>
<!-- Runs -->
<g id="node2" class="node">
<title>Runs</title>
<ellipse fill="khaki" stroke="black" cx="282.18" cy="-1105" rx="35.42" ry="18"/>
<text text-anchor="middle" x="282.18" y="-1100.33" font-family="Helvetica,sans-Serif" font-size="14.00">Runs</text>
</g>
<!-- LoadAndMerge -->
<g id="node14" class="node">
<title>LoadAndMerge</title>
<path fill="lightskyblue" stroke="black" d="M329.93,-1050C329.93,-1050 234.43,-1050 234.43,-1050 228.43,-1050 222.43,-1044 222.43,-1038 222.43,-1038 222.43,-1026 222.43,-1026 222.43,-1020 228.43,-1014 234.43,-1014 234.43,-1014 329.93,-1014 329.93,-1014 335.93,-1014 341.93,-1020 341.93,-1026 341.93,-1026 341.93,-1038 341.93,-1038 341.93,-1044 335.93,-1050 329.93,-1050"/>
<text text-anchor="middle" x="282.18" y="-1027.33" font-family="Helvetica,sans-Serif" font-size="14.00">LoadAndMerge</text>
</g>
<!-- Runs&#45;&gt;LoadAndMerge -->
<g id="edge1" class="edge">
<title>Runs&#45;&gt;LoadAndMerge</title>
<path fill="none" stroke="black" d="M282.18,-1086.81C282.18,-1079.23 282.18,-1070.1 282.18,-1061.54"/>
<polygon fill="black" stroke="black" points="285.68,-1061.54 282.18,-1051.54 278.68,-1061.54 285.68,-1061.54"/>
</g>
<!-- BeamCenter -->
<g id="node3" class="node">
<title>BeamCenter</title>
<ellipse fill="khaki" stroke="black" cx="522.18" cy="-886" rx="71.73" ry="18"/>
<text text-anchor="middle" x="522.18" y="-881.33" font-family="Helvetica,sans-Serif" font-size="14.00">BeamCenter</text>
</g>
<!-- MoveInstrumentComponent -->
<g id="node17" class="node">
<title>MoveInstrumentComponent</title>
<path fill="lightskyblue" stroke="black" d="M511.31,-831C511.31,-831 325.06,-831 325.06,-831 319.06,-831 313.06,-825 313.06,-819 313.06,-819 313.06,-807 313.06,-807 313.06,-801 319.06,-795 325.06,-795 325.06,-795 511.31,-795 511.31,-795 517.31,-795 523.31,-801 523.31,-807 523.31,-807 523.31,-819 523.31,-819 523.31,-825 517.31,-831 511.31,-831"/>
<text text-anchor="middle" x="418.18" y="-808.33" font-family="Helvetica,sans-Serif" font-size="14.00">MoveInstrumentComponent</text>
</g>
<!-- BeamCenter&#45;&gt;MoveInstrumentComponent -->
<g id="edge8" class="edge">
<title>BeamCenter&#45;&gt;MoveInstrumentComponent</title>
<path fill="none" stroke="black" d="M498.32,-868.71C484.94,-859.58 468,-848.01 453.15,-837.87"/>
<polygon fill="black" stroke="black" points="455.23,-835.05 445,-832.31 451.28,-840.84 455.23,-835.05"/>
</g>
<!-- DarkCurrentWorkspace -->
<g id="node4" class="node">
<title>DarkCurrentWorkspace</title>
<ellipse fill="khaki" stroke="black" cx="286.18" cy="-959" rx="123.81" ry="18"/>
<text text-anchor="middle" x="286.18" y="-954.33" font-family="Helvetica,sans-Serif" font-size="14.00">DarkCurrentWorkspace</text>
</g>
<!-- Minus -->
<g id="node16" class="node">
<title>Minus</title>
<path fill="lightskyblue" stroke="black" d="M302.81,-904C302.81,-904 269.56,-904 269.56,-904 263.56,-904 257.56,-898 257.56,-892 257.56,-892 257.56,-880 257.56,-880 257.56,-874 263.56,-868 269.56,-868 269.56,-868 302.81,-868 302.81,-868 308.81,-868 314.81,-874 314.81,-880 314.81,-880 314.81,-892 314.81,-892 314.81,-898 308.81,-904 302.81,-904"/>
<text text-anchor="middle" x="286.18" y="-881.33" font-family="Helvetica,sans-Serif" font-size="14.00">Minus</text>
</g>
<!-- DarkCurrentWorkspace&#45;&gt;Minus -->
<g id="edge5" class="edge">
<title>DarkCurrentWorkspace&#45;&gt;Minus</title>
<path fill="none" stroke="black" d="M286.18,-940.81C286.18,-933.23 286.18,-924.1 286.18,-915.54"/>
<polygon fill="black" stroke="black" points="289.68,-915.54 286.18,-905.54 282.68,-915.54 289.68,-915.54"/>
</g>
<!-- EmptyBeamWorkspace -->
<g id="node5" class="node">
<title>EmptyBeamWorkspace</title>
<ellipse fill="khaki" stroke="black" cx="552.18" cy="-959" rx="123.81" ry="18"/>
<text text-anchor="middle" x="552.18" y="-954.33" font-family="Helvetica,sans-Serif" font-size="14.00">EmptyBeamWorkspace</text>
</g>
<!-- EmptyBeamWorkspace&#45;&gt;BeamCenter -->
<g id="edge7" class="edge">
<title>EmptyBeamWorkspace&#45;&gt;BeamCenter</title>
<path fill="none" stroke="black" d="M544.92,-940.81C541.56,-932.88 537.5,-923.26 533.74,-914.36"/>
<polygon fill="black" stroke="black" points="537.08,-913.27 529.96,-905.42 530.63,-916 537.08,-913.27"/>
</g>
<!-- FluxWorkspace -->
<g id="node6" class="node">
<title>FluxWorkspace</title>
<ellipse fill="khaki" stroke="black" cx="1034.18" cy="-326.25" rx="84.88" ry="18"/>
<text text-anchor="middle" x="1034.18" y="-321.57" font-family="Helvetica,sans-Serif" font-size="14.00">FluxWorkspace</text>
</g>
<!-- Divide4 -->
<g id="node25" class="node">
<title>Divide4</title>
<path fill="lightskyblue" stroke="black" d="M985.93,-255C985.93,-255 950.43,-255 950.43,-255 944.43,-255 938.43,-249 938.43,-243 938.43,-243 938.43,-231 938.43,-231 938.43,-225 944.43,-219 950.43,-219 950.43,-219 985.93,-219 985.93,-219 991.93,-219 997.93,-225 997.93,-231 997.93,-231 997.93,-243 997.93,-243 997.93,-249 991.93,-255 985.93,-255"/>
<text text-anchor="middle" x="968.18" y="-232.32" font-family="Helvetica,sans-Serif" font-size="14.00">Divide</text>
</g>
<!-- FluxWorkspace&#45;&gt;Divide4 -->
<g id="edge21" class="edge">
<title>FluxWorkspace&#45;&gt;Divide4</title>
<path fill="none" stroke="black" d="M1021.14,-308.01C1011.65,-295.46 998.63,-278.25 987.87,-264.03"/>
<polygon fill="black" stroke="black" points="990.93,-262.27 982.11,-256.41 985.35,-266.5 990.93,-262.27"/>
</g>
<!-- TransmissionWorkspace -->
<g id="node7" class="node">
<title>TransmissionWorkspace</title>
<ellipse fill="khaki" stroke="black" cx="669.18" cy="-813" rx="128.02" ry="18"/>
<text text-anchor="middle" x="669.18" y="-808.33" font-family="Helvetica,sans-Serif" font-size="14.00">TransmissionWorkspace</text>
</g>
<!-- ApplyTransmissionCorrection -->
<g id="node18" class="node">
<title>ApplyTransmissionCorrection</title>
<path fill="lightskyblue" stroke="black" d="M639.68,-758C639.68,-758 446.68,-758 446.68,-758 440.68,-758 434.68,-752 434.68,-746 434.68,-746 434.68,-734 434.68,-734 434.68,-728 440.68,-722 446.68,-722 446.68,-722 639.68,-722 639.68,-722 645.68,-722 651.68,-728 651.68,-734 651.68,-734 651.68,-746 651.68,-746 651.68,-752 645.68,-758 639.68,-758"/>
<text text-anchor="middle" x="543.18" y="-735.33" font-family="Helvetica,sans-Serif" font-size="14.00">ApplyTransmissionCorrection</text>
</g>
<!-- TransmissionWorkspace&#45;&gt;ApplyTransmissionCorrection -->
<g id="edge10" class="edge">
<title>TransmissionWorkspace&#45;&gt;ApplyTransmissionCorrection</title>
<path fill="none" stroke="black" d="M639.32,-795.17C622.82,-785.88 602.08,-774.19 584.09,-764.05"/>
<polygon fill="black" stroke="black" points="585.89,-761.05 575.46,-759.19 582.45,-767.15 585.89,-761.05"/>
</g>
<!-- EmptyContainerWorkspace -->
<g id="node8" class="node">
<title>EmptyContainerWorkspace</title>
<ellipse fill="khaki" stroke="black" cx="734.18" cy="-650.75" rx="143.28" ry="18"/>
<text text-anchor="middle" x="734.18" y="-646.08" font-family="Helvetica,sans-Serif" font-size="14.00">EmptyContainerWorkspace</text>
</g>
<!-- Minus2 -->
<g id="node20" class="node">
<title>Minus2</title>
<path fill="lightskyblue" stroke="black" d="M654.81,-595.75C654.81,-595.75 621.56,-595.75 621.56,-595.75 615.56,-595.75 609.56,-589.75 609.56,-583.75 609.56,-583.75 609.56,-571.75 609.56,-571.75 609.56,-565.75 615.56,-559.75 621.56,-559.75 621.56,-559.75 654.81,-559.75 654.81,-559.75 660.81,-559.75 666.81,-565.75 666.81,-571.75 666.81,-571.75 666.81,-583.75 666.81,-583.75 666.81,-589.75 660.81,-595.75 654.81,-595.75"/>
<text text-anchor="middle" x="638.18" y="-573.08" font-family="Helvetica,sans-Serif" font-size="14.00">Minus</text>
</g>
<!-- EmptyContainerWorkspace&#45;&gt;Minus2 -->
<g id="edge13" class="edge">
<title>EmptyContainerWorkspace&#45;&gt;Minus2</title>
<path fill="none" stroke="black" d="M710.94,-632.56C698.89,-623.65 683.96,-612.61 670.77,-602.85"/>
<polygon fill="black" stroke="black" points="672.88,-600.06 662.75,-596.92 668.71,-605.69 672.88,-600.06"/>
</g>
<!-- DefaultMaskWorkspace -->
<g id="node9" class="node">
<title>DefaultMaskWorkspace</title>
<ellipse fill="khaki" stroke="black" cx="809.18" cy="-577.75" rx="124.86" ry="18"/>
<text text-anchor="middle" x="809.18" y="-573.08" font-family="Helvetica,sans-Serif" font-size="14.00">DefaultMaskWorkspace</text>
</g>
<!-- MaskDetectors -->
<g id="node22" class="node">
<title>MaskDetectors</title>
<path fill="lightskyblue" stroke="black" d="M856.56,-506.5C856.56,-506.5 761.81,-506.5 761.81,-506.5 755.81,-506.5 749.81,-500.5 749.81,-494.5 749.81,-494.5 749.81,-482.5 749.81,-482.5 749.81,-476.5 755.81,-470.5 761.81,-470.5 761.81,-470.5 856.56,-470.5 856.56,-470.5 862.56,-470.5 868.56,-476.5 868.56,-482.5 868.56,-482.5 868.56,-494.5 868.56,-494.5 868.56,-500.5 862.56,-506.5 856.56,-506.5"/>
<text text-anchor="middle" x="809.18" y="-483.82" font-family="Helvetica,sans-Serif" font-size="14.00">MaskDetectors</text>
</g>
<!-- DefaultMaskWorkspace&#45;&gt;MaskDetectors -->
<g id="edge15" class="edge">
<title>DefaultMaskWorkspace&#45;&gt;MaskDetectors</title>
<path fill="none" stroke="black" d="M809.18,-559.51C809.18,-547.68 809.18,-531.7 809.18,-518"/>
<polygon fill="black" stroke="black" points="812.68,-518.22 809.18,-508.22 805.68,-518.22 812.68,-518.22"/>
<text text-anchor="middle" x="830.56" y="-528.45" font-family="Helvetica,sans-Serif" font-size="14.00">Edges</text>
</g>
<!-- MaskWorkspace -->
<g id="node10" class="node">
<title>MaskWorkspace</title>
<ellipse fill="khaki" stroke="black" cx="1041.18" cy="-577.75" rx="89.61" ry="18"/>
<text text-anchor="middle" x="1041.18" y="-573.08" font-family="Helvetica,sans-Serif" font-size="14.00">MaskWorkspace</text>
</g>
<!-- MaskWorkspace&#45;&gt;MaskDetectors -->
<g id="edge16" class="edge">
<title>MaskWorkspace&#45;&gt;MaskDetectors</title>
<path fill="none" stroke="black" d="M1000.24,-561.35C963.02,-547.36 907.74,-526.57 866.21,-510.95"/>
<polygon fill="black" stroke="black" points="867.7,-507.77 857.11,-507.52 865.24,-514.32 867.7,-507.77"/>
<text text-anchor="middle" x="980.81" y="-528.45" font-family="Helvetica,sans-Serif" font-size="14.00">BeamStop</text>
</g>
<!-- SampleThickness -->
<g id="node11" class="node">
<title>SampleThickness</title>
<ellipse fill="khaki" stroke="black" cx="993.18" cy="-415.5" rx="95.93" ry="18"/>
<text text-anchor="middle" x="993.18" y="-410.82" font-family="Helvetica,sans-Serif" font-size="14.00">SampleThickness</text>
</g>
<!-- Divide3 -->
<g id="node24" class="node">
<title>Divide3</title>
<path fill="lightskyblue" stroke="black" d="M918.93,-344.25C918.93,-344.25 883.43,-344.25 883.43,-344.25 877.43,-344.25 871.43,-338.25 871.43,-332.25 871.43,-332.25 871.43,-320.25 871.43,-320.25 871.43,-314.25 877.43,-308.25 883.43,-308.25 883.43,-308.25 918.93,-308.25 918.93,-308.25 924.93,-308.25 930.93,-314.25 930.93,-320.25 930.93,-320.25 930.93,-332.25 930.93,-332.25 930.93,-338.25 924.93,-344.25 918.93,-344.25"/>
<text text-anchor="middle" x="901.18" y="-321.57" font-family="Helvetica,sans-Serif" font-size="14.00">Divide</text>
</g>
<!-- SampleThickness&#45;&gt;Divide3 -->
<g id="edge19" class="edge">
<title>SampleThickness&#45;&gt;Divide3</title>
<path fill="none" stroke="black" d="M975.44,-397.68C961.87,-384.81 942.95,-366.86 927.6,-352.3"/>
<polygon fill="black" stroke="black" points="930.26,-350 920.59,-345.66 925.44,-355.08 930.26,-350"/>
</g>
<!-- OutputWorkspace -->
<g id="node12" class="node">
<title>OutputWorkspace</title>
<polygon fill="grey" stroke="black" points="1074.02,-182 905.65,-182 862.34,-146 1030.71,-146 1074.02,-182"/>
<text text-anchor="middle" x="968.18" y="-157.82" font-family="Times,serif" font-size="14.00">OutputWorkspace</text>
</g>
<!-- CalculateEfficiency -->
<g id="node21" class="node">
<title>CalculateEfficiency</title>
<path fill="lightskyblue" stroke="black" d="M1029.43,-109C1029.43,-109 906.93,-109 906.93,-109 900.93,-109 894.93,-103 894.93,-97 894.93,-97 894.93,-85 894.93,-85 894.93,-79 900.93,-73 906.93,-73 906.93,-73 1029.43,-73 1029.43,-73 1035.43,-73 1041.43,-79 1041.43,-85 1041.43,-85 1041.43,-97 1041.43,-97 1041.43,-103 1035.43,-109 1029.43,-109"/>
<text text-anchor="middle" x="968.18" y="-86.33" font-family="Helvetica,sans-Serif" font-size="14.00">CalculateEfficiency</text>
</g>
<!-- OutputWorkspace&#45;&gt;CalculateEfficiency -->
<g id="edge23" class="edge">
<title>OutputWorkspace&#45;&gt;CalculateEfficiency</title>
<path fill="none" stroke="black" d="M968.18,-145.81C968.18,-138.23 968.18,-129.1 968.18,-120.54"/>
<polygon fill="black" stroke="black" points="971.68,-120.54 968.18,-110.54 964.68,-120.54 971.68,-120.54"/>
</g>
<!-- OutputSensitivityWorkspace -->
<g id="node13" class="node">
<title>OutputSensitivityWorkspace</title>
<polygon fill="grey" stroke="black" points="1127.88,-36 873.84,-36 808.48,0 1062.52,0 1127.88,-36"/>
<text text-anchor="middle" x="968.18" y="-11.82" font-family="Times,serif" font-size="14.00">OutputSensitivityWorkspace</text>
</g>
<!-- LoadAndMerge&#45;&gt;Divide -->
<g id="edge2" class="edge">
<title>LoadAndMerge&#45;&gt;Divide</title>
<path fill="none" stroke="black" d="M239.99,-1013.52C217.13,-1004.01 188.15,-991.89 154.86,-977.69"/>
<polygon fill="black" stroke="black" points="156.36,-974.53 145.79,-973.82 153.61,-980.96 156.36,-974.53"/>
</g>
<!-- Divide&#45;&gt;Minus -->
<g id="edge4" class="edge">
<title>Divide&#45;&gt;Minus</title>
<path fill="none" stroke="black" d="M144.38,-944.75C147.35,-943.47 150.32,-942.2 153.18,-941 184.57,-927.79 220.35,-913.29 246.89,-902.65"/>
<polygon fill="black" stroke="black" points="247.91,-906.01 255.89,-899.04 245.31,-899.51 247.91,-906.01"/>
</g>
<!-- Minus&#45;&gt;MoveInstrumentComponent -->
<g id="edge6" class="edge">
<title>Minus&#45;&gt;MoveInstrumentComponent</title>
<path fill="none" stroke="black" d="M315.15,-869.42C332.99,-859.82 356.16,-847.36 376.01,-836.68"/>
<polygon fill="black" stroke="black" points="377.56,-839.82 384.71,-832 374.24,-833.66 377.56,-839.82"/>
</g>
<!-- MoveInstrumentComponent&#45;&gt;ApplyTransmissionCorrection -->
<g id="edge9" class="edge">
<title>MoveInstrumentComponent&#45;&gt;ApplyTransmissionCorrection</title>
<path fill="none" stroke="black" d="M448.76,-794.63C464.95,-785.43 485.05,-774.02 502.54,-764.08"/>
<polygon fill="black" stroke="black" points="504.2,-767.17 511.17,-759.18 500.74,-761.08 504.2,-767.17"/>
</g>
<!-- Divide2 -->
<g id="node23" class="node">
<title>Divide2</title>
<path fill="lightskyblue" stroke="black" d="M560.93,-668.75C560.93,-668.75 525.43,-668.75 525.43,-668.75 519.43,-668.75 513.43,-662.75 513.43,-656.75 513.43,-656.75 513.43,-644.75 513.43,-644.75 513.43,-638.75 519.43,-632.75 525.43,-632.75 525.43,-632.75 560.93,-632.75 560.93,-632.75 566.93,-632.75 572.93,-638.75 572.93,-644.75 572.93,-644.75 572.93,-656.75 572.93,-656.75 572.93,-662.75 566.93,-668.75 560.93,-668.75"/>
<text text-anchor="middle" x="543.18" y="-646.08" font-family="Helvetica,sans-Serif" font-size="14.00">Divide</text>
</g>
<!-- ApplyTransmissionCorrection&#45;&gt;Divide2 -->
<g id="edge11" class="edge">
<title>ApplyTransmissionCorrection&#45;&gt;Divide2</title>
<path fill="none" stroke="black" d="M543.18,-721.76C543.18,-709.93 543.18,-693.95 543.18,-680.25"/>
<polygon fill="black" stroke="black" points="546.68,-680.47 543.18,-670.47 539.68,-680.47 546.68,-680.47"/>
<text text-anchor="middle" x="579.93" y="-690.7" font-family="Helvetica,sans-Serif" font-size="14.00">SolidAngle</text>
</g>
<!-- ParallaxCorrection -->
<g id="node19" class="node">
<title>ParallaxCorrection</title>
<path fill="lightskyblue" stroke="black" d="M867.43,-433.5C867.43,-433.5 750.93,-433.5 750.93,-433.5 744.93,-433.5 738.93,-427.5 738.93,-421.5 738.93,-421.5 738.93,-409.5 738.93,-409.5 738.93,-403.5 744.93,-397.5 750.93,-397.5 750.93,-397.5 867.43,-397.5 867.43,-397.5 873.43,-397.5 879.43,-403.5 879.43,-409.5 879.43,-409.5 879.43,-421.5 879.43,-421.5 879.43,-427.5 873.43,-433.5 867.43,-433.5"/>
<text text-anchor="middle" x="809.18" y="-410.82" font-family="Helvetica,sans-Serif" font-size="14.00">ParallaxCorrection</text>
</g>
<!-- ParallaxCorrection&#45;&gt;Divide3 -->
<g id="edge18" class="edge">
<title>ParallaxCorrection&#45;&gt;Divide3</title>
<path fill="none" stroke="black" d="M827.36,-397.26C840.97,-384.36 859.78,-366.51 875.01,-352.07"/>
<polygon fill="black" stroke="black" points="877.1,-354.91 881.94,-345.49 872.28,-349.84 877.1,-354.91"/>
<text text-anchor="middle" x="897.68" y="-366.2" font-family="Helvetica,sans-Serif" font-size="14.00">Thickness</text>
</g>
<!-- Minus2&#45;&gt;MaskDetectors -->
<g id="edge14" class="edge">
<title>Minus2&#45;&gt;MaskDetectors</title>
<path fill="none" stroke="black" d="M667.19,-561.95C693.98,-548.28 734.18,-527.77 764.97,-512.06"/>
<polygon fill="black" stroke="black" points="766.36,-515.28 773.67,-507.62 763.17,-509.04 766.36,-515.28"/>
</g>
<!-- CalculateEfficiency&#45;&gt;OutputSensitivityWorkspace -->
<g id="edge24" class="edge">
<title>CalculateEfficiency&#45;&gt;OutputSensitivityWorkspace</title>
<path fill="none" stroke="black" d="M968.18,-72.81C968.18,-65.23 968.18,-56.1 968.18,-47.54"/>
<polygon fill="black" stroke="black" points="971.68,-47.54 968.18,-37.54 964.68,-47.54 971.68,-47.54"/>
</g>
<!-- MaskDetectors&#45;&gt;ParallaxCorrection -->
<g id="edge17" class="edge">
<title>MaskDetectors&#45;&gt;ParallaxCorrection</title>
<path fill="none" stroke="black" d="M809.18,-470.31C809.18,-462.73 809.18,-453.6 809.18,-445.04"/>
<polygon fill="black" stroke="black" points="812.68,-445.04 809.18,-435.04 805.68,-445.04 812.68,-445.04"/>
</g>
<!-- Divide2&#45;&gt;Minus2 -->
<g id="edge12" class="edge">
<title>Divide2&#45;&gt;Minus2</title>
<path fill="none" stroke="black" d="M566.18,-632.56C578.11,-623.65 592.88,-612.61 605.93,-602.85"/>
<polygon fill="black" stroke="black" points="607.94,-605.72 613.85,-596.93 603.75,-600.11 607.94,-605.72"/>
</g>
<!-- Divide3&#45;&gt;Divide4 -->
<g id="edge20" class="edge">
<title>Divide3&#45;&gt;Divide4</title>
<path fill="none" stroke="black" d="M914.42,-308.01C924.05,-295.46 937.27,-278.25 948.19,-264.03"/>
<polygon fill="black" stroke="black" points="950.73,-266.47 954.05,-256.4 945.18,-262.2 950.73,-266.47"/>
<text text-anchor="middle" x="954.81" y="-276.95" font-family="Helvetica,sans-Serif" font-size="14.00">Flux</text>
</g>
<!-- Divide4&#45;&gt;OutputWorkspace -->
<g id="edge22" class="edge">
<title>Divide4&#45;&gt;OutputWorkspace</title>
<path fill="none" stroke="black" d="M968.18,-218.81C968.18,-211.23 968.18,-202.1 968.18,-193.54"/>
<polygon fill="black" stroke="black" points="971.68,-193.54 968.18,-183.54 964.68,-193.54 971.68,-193.54"/>
</g>
</g>
</svg>
