<?xml version="1.0" encoding="UTF-8" standalone="no"?>
<!DOCTYPE svg PUBLIC "-//W3C//DTD SVG 1.1//EN"
 "http://www.w3.org/Graphics/SVG/1.1/DTD/svg11.dtd">
<!-- Generated by graphviz version 11.0.0 (20240519.1550)
 -->
<!-- Title: Reference Pages: 1 -->
<svg width="1289pt" height="925pt"
 viewBox="0.00 0.00 1288.88 925.25" xmlns="http://www.w3.org/2000/svg" xmlns:xlink="http://www.w3.org/1999/xlink">
<g id="graph0" class="graph" transform="scale(1 1) rotate(0) translate(4 921.25)">
<title>Reference</title>
<polygon fill="white" stroke="none" points="-4,4 -4,-921.25 1284.88,-921.25 1284.88,4 -4,4"/>
<!-- NormaliseBy -->
<g id="node1" class="node">
<title>NormaliseBy</title>
<polygon fill="limegreen" stroke="black" points="1178.7,-773.25 1076.52,-755.25 1178.7,-737.25 1280.88,-755.25 1178.7,-773.25"/>
<text text-anchor="middle" x="1178.7" y="-750.58" font-family="Helvetica,sans-Serif" font-size="14.00">NormaliseBy</text>
</g>
<!-- Divide -->
<g id="node12" class="node">
<title>Divide</title>
<path fill="lightskyblue" stroke="black" d="M1196.45,-701.25C1196.45,-701.25 1160.95,-701.25 1160.95,-701.25 1154.95,-701.25 1148.95,-695.25 1148.95,-689.25 1148.95,-689.25 1148.95,-677.25 1148.95,-677.25 1148.95,-671.25 1154.95,-665.25 1160.95,-665.25 1160.95,-665.25 1196.45,-665.25 1196.45,-665.25 1202.45,-665.25 1208.45,-671.25 1208.45,-677.25 1208.45,-677.25 1208.45,-689.25 1208.45,-689.25 1208.45,-695.25 1202.45,-701.25 1196.45,-701.25"/>
<text text-anchor="middle" x="1178.7" y="-678.58" font-family="Helvetica,sans-Serif" font-size="14.00">Divide</text>
</g>
<!-- NormaliseBy&#45;&gt;Divide -->
<g id="edge3" class="edge">
<title>NormaliseBy&#45;&gt;Divide</title>
<path fill="none" stroke="black" d="M1178.7,-736.95C1178.7,-729.66 1178.7,-720.98 1178.7,-712.79"/>
<polygon fill="black" stroke="black" points="1182.2,-712.87 1178.7,-702.87 1175.2,-712.87 1182.2,-712.87"/>
</g>
<!-- Run -->
<g id="node2" class="node">
<title>Run</title>
<ellipse fill="khaki" stroke="black" cx="1178.7" cy="-899.25" rx="30.16" ry="18"/>
<text text-anchor="middle" x="1178.7" y="-894.58" font-family="Helvetica,sans-Serif" font-size="14.00">Run</text>
</g>
<!-- LoadAndMerge -->
<g id="node11" class="node">
<title>LoadAndMerge</title>
<path fill="lightskyblue" stroke="black" d="M1226.45,-845.25C1226.45,-845.25 1130.95,-845.25 1130.95,-845.25 1124.95,-845.25 1118.95,-839.25 1118.95,-833.25 1118.95,-833.25 1118.95,-821.25 1118.95,-821.25 1118.95,-815.25 1124.95,-809.25 1130.95,-809.25 1130.95,-809.25 1226.45,-809.25 1226.45,-809.25 1232.45,-809.25 1238.45,-815.25 1238.45,-821.25 1238.45,-821.25 1238.45,-833.25 1238.45,-833.25 1238.45,-839.25 1232.45,-845.25 1226.45,-845.25"/>
<text text-anchor="middle" x="1178.7" y="-822.58" font-family="Helvetica,sans-Serif" font-size="14.00">LoadAndMerge</text>
</g>
<!-- Run&#45;&gt;LoadAndMerge -->
<g id="edge1" class="edge">
<title>Run&#45;&gt;LoadAndMerge</title>
<path fill="none" stroke="black" d="M1178.7,-880.95C1178.7,-873.66 1178.7,-864.98 1178.7,-856.79"/>
<polygon fill="black" stroke="black" points="1182.2,-856.87 1178.7,-846.87 1175.2,-856.87 1182.2,-856.87"/>
</g>
<!-- AbsorberInputWorkspace -->
<g id="node3" class="node">
<title>AbsorberInputWorkspace</title>
<ellipse fill="khaki" stroke="black" cx="995.7" cy="-683.25" rx="134.86" ry="18"/>
<text text-anchor="middle" x="995.7" y="-678.58" font-family="Helvetica,sans-Serif" font-size="14.00">AbsorberInputWorkspace</text>
</g>
<!-- Minus -->
<g id="node13" class="node">
<title>Minus</title>
<path fill="lightskyblue" stroke="black" d="M1064.32,-629.25C1064.32,-629.25 1031.07,-629.25 1031.07,-629.25 1025.07,-629.25 1019.07,-623.25 1019.07,-617.25 1019.07,-617.25 1019.07,-605.25 1019.07,-605.25 1019.07,-599.25 1025.07,-593.25 1031.07,-593.25 1031.07,-593.25 1064.32,-593.25 1064.32,-593.25 1070.32,-593.25 1076.32,-599.25 1076.32,-605.25 1076.32,-605.25 1076.32,-617.25 1076.32,-617.25 1076.32,-623.25 1070.32,-629.25 1064.32,-629.25"/>
<text text-anchor="middle" x="1047.7" y="-606.58" font-family="Helvetica,sans-Serif" font-size="14.00">Minus</text>
</g>
<!-- AbsorberInputWorkspace&#45;&gt;Minus -->
<g id="edge5" class="edge">
<title>AbsorberInputWorkspace&#45;&gt;Minus</title>
<path fill="none" stroke="black" d="M1008.55,-664.95C1014.47,-656.98 1021.62,-647.35 1028.19,-638.51"/>
<polygon fill="black" stroke="black" points="1030.93,-640.68 1034.09,-630.57 1025.31,-636.51 1030.93,-640.68"/>
</g>
<!-- ContainerInputWorkspace -->
<g id="node4" class="node">
<title>ContainerInputWorkspace</title>
<ellipse fill="khaki" stroke="black" cx="472.7" cy="-378" rx="137.49" ry="18"/>
<text text-anchor="middle" x="472.7" y="-373.32" font-family="Helvetica,sans-Serif" font-size="14.00">ContainerInputWorkspace</text>
</g>
<!-- Minus2 -->
<g id="node17" class="node">
<title>Minus2</title>
<path fill="lightskyblue" stroke="black" d="M561.32,-324C561.32,-324 528.07,-324 528.07,-324 522.07,-324 516.07,-318 516.07,-312 516.07,-312 516.07,-300 516.07,-300 516.07,-294 522.07,-288 528.07,-288 528.07,-288 561.32,-288 561.32,-288 567.32,-288 573.32,-294 573.32,-300 573.32,-300 573.32,-312 573.32,-312 573.32,-318 567.32,-324 561.32,-324"/>
<text text-anchor="middle" x="544.7" y="-301.32" font-family="Helvetica,sans-Serif" font-size="14.00">Minus</text>
</g>
<!-- ContainerInputWorkspace&#45;&gt;Minus2 -->
<g id="edge12" class="edge">
<title>ContainerInputWorkspace&#45;&gt;Minus2</title>
<path fill="none" stroke="black" d="M490.49,-359.7C498.97,-351.45 509.28,-341.43 518.63,-332.35"/>
<polygon fill="black" stroke="black" points="521.04,-334.88 525.77,-325.4 516.16,-329.86 521.04,-334.88"/>
</g>
<!-- MaskedInputWorkspace -->
<g id="node5" class="node">
<title>MaskedInputWorkspace</title>
<ellipse fill="khaki" stroke="black" cx="370.7" cy="-306" rx="126.97" ry="18"/>
<text text-anchor="middle" x="370.7" y="-301.32" font-family="Helvetica,sans-Serif" font-size="14.00">MaskedInputWorkspace</text>
</g>
<!-- MaskDetectors -->
<g id="node19" class="node">
<title>MaskDetectors</title>
<path fill="lightskyblue" stroke="black" d="M467.07,-252C467.07,-252 372.32,-252 372.32,-252 366.32,-252 360.32,-246 360.32,-240 360.32,-240 360.32,-228 360.32,-228 360.32,-222 366.32,-216 372.32,-216 372.32,-216 467.07,-216 467.07,-216 473.07,-216 479.07,-222 479.07,-228 479.07,-228 479.07,-240 479.07,-240 479.07,-246 473.07,-252 467.07,-252"/>
<text text-anchor="middle" x="419.7" y="-229.32" font-family="Helvetica,sans-Serif" font-size="14.00">MaskDetectors</text>
</g>
<!-- MaskedInputWorkspace&#45;&gt;MaskDetectors -->
<g id="edge14" class="edge">
<title>MaskedInputWorkspace&#45;&gt;MaskDetectors</title>
<path fill="none" stroke="black" d="M382.81,-287.7C388.39,-279.73 395.13,-270.1 401.31,-261.26"/>
<polygon fill="black" stroke="black" points="403.99,-263.54 406.86,-253.34 398.25,-259.53 403.99,-263.54"/>
</g>
<!-- BeamInputWorkspace -->
<g id="node6" class="node">
<title>BeamInputWorkspace</title>
<ellipse fill="khaki" stroke="black" cx="882.7" cy="-611.25" rx="118.02" ry="18"/>
<text text-anchor="middle" x="882.7" y="-606.58" font-family="Helvetica,sans-Serif" font-size="14.00">BeamInputWorkspace</text>
</g>
<!-- MoveInstrumentComponent -->
<g id="node14" class="node">
<title>MoveInstrumentComponent</title>
<path fill="lightskyblue" stroke="black" d="M986.82,-557.25C986.82,-557.25 800.57,-557.25 800.57,-557.25 794.57,-557.25 788.57,-551.25 788.57,-545.25 788.57,-545.25 788.57,-533.25 788.57,-533.25 788.57,-527.25 794.57,-521.25 800.57,-521.25 800.57,-521.25 986.82,-521.25 986.82,-521.25 992.82,-521.25 998.82,-527.25 998.82,-533.25 998.82,-533.25 998.82,-545.25 998.82,-545.25 998.82,-551.25 992.82,-557.25 986.82,-557.25"/>
<text text-anchor="middle" x="893.7" y="-534.58" font-family="Helvetica,sans-Serif" font-size="14.00">MoveInstrumentComponent</text>
</g>
<!-- BeamInputWorkspace&#45;&gt;MoveInstrumentComponent -->
<g id="edge7" class="edge">
<title>BeamInputWorkspace&#45;&gt;MoveInstrumentComponent</title>
<path fill="none" stroke="black" d="M885.42,-592.95C886.57,-585.57 887.96,-576.77 889.26,-568.5"/>
<polygon fill="black" stroke="black" points="892.68,-569.27 890.77,-558.85 885.76,-568.18 892.68,-569.27"/>
</g>
<!-- TransmissionInputWorkspace -->
<g id="node7" class="node">
<title>TransmissionInputWorkspace</title>
<ellipse fill="khaki" stroke="black" cx="676.7" cy="-450" rx="153.8" ry="18"/>
<text text-anchor="middle" x="676.7" y="-445.32" font-family="Helvetica,sans-Serif" font-size="14.00">TransmissionInputWorkspace</text>
</g>
<!-- ApplyTransmissionCorrection -->
<g id="node15" class="node">
<title>ApplyTransmissionCorrection</title>
<path fill="lightskyblue" stroke="black" d="M833.2,-396C833.2,-396 640.2,-396 640.2,-396 634.2,-396 628.2,-390 628.2,-384 628.2,-384 628.2,-372 628.2,-372 628.2,-366 634.2,-360 640.2,-360 640.2,-360 833.2,-360 833.2,-360 839.2,-360 845.2,-366 845.2,-372 845.2,-372 845.2,-384 845.2,-384 845.2,-390 839.2,-396 833.2,-396"/>
<text text-anchor="middle" x="736.7" y="-373.32" font-family="Helvetica,sans-Serif" font-size="14.00">ApplyTransmissionCorrection</text>
</g>
<!-- TransmissionInputWorkspace&#45;&gt;ApplyTransmissionCorrection -->
<g id="edge10" class="edge">
<title>TransmissionInputWorkspace&#45;&gt;ApplyTransmissionCorrection</title>
<path fill="none" stroke="black" d="M691.53,-431.7C698.5,-423.56 706.96,-413.69 714.67,-404.7"/>
<polygon fill="black" stroke="black" points="717.2,-407.12 721.05,-397.25 711.88,-402.57 717.2,-407.12"/>
</g>
<!-- SampleThickness -->
<g id="node8" class="node">
<title>SampleThickness</title>
<ellipse fill="khaki" stroke="black" cx="246.7" cy="-234" rx="95.93" ry="18"/>
<text text-anchor="middle" x="246.7" y="-229.32" font-family="Helvetica,sans-Serif" font-size="14.00">SampleThickness</text>
</g>
<!-- NormaliseByThickness -->
<g id="node20" class="node">
<title>NormaliseByThickness</title>
<path fill="lightskyblue" stroke="black" d="M331.7,-180C331.7,-180 183.7,-180 183.7,-180 177.7,-180 171.7,-174 171.7,-168 171.7,-168 171.7,-156 171.7,-156 171.7,-150 177.7,-144 183.7,-144 183.7,-144 331.7,-144 331.7,-144 337.7,-144 343.7,-150 343.7,-156 343.7,-156 343.7,-168 343.7,-168 343.7,-174 337.7,-180 331.7,-180"/>
<text text-anchor="middle" x="257.7" y="-157.32" font-family="Helvetica,sans-Serif" font-size="14.00">NormaliseByThickness</text>
</g>
<!-- SampleThickness&#45;&gt;NormaliseByThickness -->
<g id="edge16" class="edge">
<title>SampleThickness&#45;&gt;NormaliseByThickness</title>
<path fill="none" stroke="black" d="M249.42,-215.7C250.57,-208.32 251.96,-199.52 253.26,-191.25"/>
<polygon fill="black" stroke="black" points="256.68,-192.02 254.77,-181.6 249.76,-190.93 256.68,-192.02"/>
</g>
<!-- OutputWorkspace -->
<g id="node9" class="node">
<title>OutputWorkspace</title>
<polygon fill="grey" stroke="black" points="462.54,-108 294.17,-108 250.85,-72 419.23,-72 462.54,-108"/>
<text text-anchor="middle" x="356.7" y="-83.83" font-family="Times,serif" font-size="14.00">OutputWorkspace</text>
</g>
<!-- SensitivityOutputWorkspace -->
<g id="node10" class="node">
<title>SensitivityOutputWorkspace</title>
<polygon fill="grey" stroke="black" points="319.39,-36 65.35,-36 0,0 254.04,0 319.39,-36"/>
<text text-anchor="middle" x="159.7" y="-11.82" font-family="Times,serif" font-size="14.00">SensitivityOutputWorkspace</text>
</g>
<!-- LoadAndMerge&#45;&gt;NormaliseBy -->
<g id="edge2" class="edge">
<title>LoadAndMerge&#45;&gt;NormaliseBy</title>
<path fill="none" stroke="black" d="M1178.7,-808.95C1178.7,-801.66 1178.7,-792.98 1178.7,-784.79"/>
<polygon fill="black" stroke="black" points="1182.2,-784.87 1178.7,-774.87 1175.2,-784.87 1182.2,-784.87"/>
</g>
<!-- Divide&#45;&gt;Minus -->
<g id="edge4" class="edge">
<title>Divide&#45;&gt;Minus</title>
<path fill="none" stroke="black" d="M1148.64,-666.19C1130.24,-656.36 1106.51,-643.68 1086.68,-633.08"/>
<polygon fill="black" stroke="black" points="1088.51,-630.09 1078.04,-628.47 1085.21,-636.27 1088.51,-630.09"/>
</g>
<!-- Minus&#45;&gt;MoveInstrumentComponent -->
<g id="edge6" class="edge">
<title>Minus&#45;&gt;MoveInstrumentComponent</title>
<path fill="none" stroke="black" d="M1018.73,-597.08C997.31,-587.35 967.62,-573.85 942.56,-562.46"/>
<polygon fill="black" stroke="black" points="944.06,-559.3 933.51,-558.35 941.17,-565.67 944.06,-559.3"/>
</g>
<!-- SolidAngle -->
<g id="node16" class="node">
<title>SolidAngle</title>
<path fill="lightskyblue" stroke="black" d="M926.45,-468C926.45,-468 860.95,-468 860.95,-468 854.95,-468 848.95,-462 848.95,-456 848.95,-456 848.95,-444 848.95,-444 848.95,-438 854.95,-432 860.95,-432 860.95,-432 926.45,-432 926.45,-432 932.45,-432 938.45,-438 938.45,-444 938.45,-444 938.45,-456 938.45,-456 938.45,-462 932.45,-468 926.45,-468"/>
<text text-anchor="middle" x="893.7" y="-445.32" font-family="Helvetica,sans-Serif" font-size="14.00">SolidAngle</text>
</g>
<!-- MoveInstrumentComponent&#45;&gt;SolidAngle -->
<g id="edge8" class="edge">
<title>MoveInstrumentComponent&#45;&gt;SolidAngle</title>
<path fill="none" stroke="black" d="M893.7,-521.01C893.7,-509.18 893.7,-493.2 893.7,-479.5"/>
<polygon fill="black" stroke="black" points="897.2,-479.72 893.7,-469.72 890.2,-479.72 897.2,-479.72"/>
<text text-anchor="middle" x="915.45" y="-489.95" font-family="Helvetica,sans-Serif" font-size="14.00">Divide</text>
</g>
<!-- ApplyTransmissionCorrection&#45;&gt;Minus2 -->
<g id="edge11" class="edge">
<title>ApplyTransmissionCorrection&#45;&gt;Minus2</title>
<path fill="none" stroke="black" d="M688.74,-359.52C656.49,-347.76 614.5,-332.45 584.18,-321.4"/>
<polygon fill="black" stroke="black" points="585.59,-318.19 575,-318.05 583.2,-324.76 585.59,-318.19"/>
</g>
<!-- SolidAngle&#45;&gt;ApplyTransmissionCorrection -->
<g id="edge9" class="edge">
<title>SolidAngle&#45;&gt;ApplyTransmissionCorrection</title>
<path fill="none" stroke="black" d="M854.48,-431.52C833.8,-422.29 808.21,-410.89 786.18,-401.06"/>
<polygon fill="black" stroke="black" points="787.62,-397.87 777.06,-397 784.77,-404.27 787.62,-397.87"/>
</g>
<!-- Minus2&#45;&gt;MaskDetectors -->
<g id="edge13" class="edge">
<title>Minus2&#45;&gt;MaskDetectors</title>
<path fill="none" stroke="black" d="M515.7,-288.76C499.35,-279.61 478.65,-268.01 460.66,-257.94"/>
<polygon fill="black" stroke="black" points="462.47,-254.94 452.04,-253.11 459.05,-261.05 462.47,-254.94"/>
</g>
<!-- CalculateEfficiency -->
<g id="node18" class="node">
<title>CalculateEfficiency</title>
<path fill="lightskyblue" stroke="black" d="M220.95,-108C220.95,-108 98.45,-108 98.45,-108 92.45,-108 86.45,-102 86.45,-96 86.45,-96 86.45,-84 86.45,-84 86.45,-78 92.45,-72 98.45,-72 98.45,-72 220.95,-72 220.95,-72 226.95,-72 232.95,-78 232.95,-84 232.95,-84 232.95,-96 232.95,-96 232.95,-102 226.95,-108 220.95,-108"/>
<text text-anchor="middle" x="159.7" y="-85.33" font-family="Helvetica,sans-Serif" font-size="14.00">CalculateEfficiency</text>
</g>
<!-- CalculateEfficiency&#45;&gt;SensitivityOutputWorkspace -->
<g id="edge18" class="edge">
<title>CalculateEfficiency&#45;&gt;SensitivityOutputWorkspace</title>
<path fill="none" stroke="black" d="M159.7,-71.7C159.7,-64.41 159.7,-55.73 159.7,-47.54"/>
<polygon fill="black" stroke="black" points="163.2,-47.62 159.7,-37.62 156.2,-47.62 163.2,-47.62"/>
</g>
<!-- MaskDetectors&#45;&gt;NormaliseByThickness -->
<g id="edge15" class="edge">
<title>MaskDetectors&#45;&gt;NormaliseByThickness</title>
<path fill="none" stroke="black" d="M379.23,-215.52C357.79,-206.25 331.25,-194.78 308.44,-184.93"/>
<polygon fill="black" stroke="black" points="309.88,-181.74 299.31,-180.98 307.1,-188.16 309.88,-181.74"/>
</g>
<!-- NormaliseByThickness&#45;&gt;OutputWorkspace -->
<g id="edge19" class="edge">
<title>NormaliseByThickness&#45;&gt;OutputWorkspace</title>
<path fill="none" stroke="black" d="M282.42,-143.52C294.68,-134.85 309.67,-124.25 322.97,-114.85"/>
<polygon fill="black" stroke="black" points="324.9,-117.77 331.05,-109.13 320.86,-112.05 324.9,-117.77"/>
</g>
<!-- NormaliseByThickness&#45;&gt;CalculateEfficiency -->
<g id="edge17" class="edge">
<title>NormaliseByThickness&#45;&gt;CalculateEfficiency</title>
<path fill="none" stroke="black" d="M233.22,-143.52C221.08,-134.85 206.25,-124.25 193.08,-114.85"/>
<polygon fill="black" stroke="black" points="195.26,-112.1 185.09,-109.14 191.2,-117.8 195.26,-112.1"/>
</g>
</g>
</svg>
