<?xml version="1.0" encoding="UTF-8" standalone="no"?>
<!DOCTYPE svg PUBLIC "-//W3C//DTD SVG 1.1//EN"
 "http://www.w3.org/Graphics/SVG/1.1/DTD/svg11.dtd">
<!-- Generated by graphviz version 13.0.1 (20250616.1512)
 -->
<!-- Title: DarkCurrent Pages: 1 -->
<svg width="350pt" height="260pt"
 viewBox="0.00 0.00 350.00 260.00" xmlns="http://www.w3.org/2000/svg" xmlns:xlink="http://www.w3.org/1999/xlink">
<g id="graph0" class="graph" transform="scale(1 1) rotate(0) translate(4 256)">
<title>DarkCurrent</title>
<polygon fill="white" stroke="none" points="-4,4 -4,-256 345.93,-256 345.93,4 -4,4"/>
<!-- NormaliseBy -->
<g id="node1" class="node">
<title>NormaliseBy</title>
<polygon fill="limegreen" stroke="black" points="102.18,-180 0,-162 102.18,-144 204.36,-162 102.18,-180"/>
<text xml:space="preserve" text-anchor="middle" x="102.18" y="-157.32" font-family="Helvetica,sans-Serif" font-size="14.00">NormaliseBy</text>
</g>
<!-- Divide -->
<g id="node5" class="node">
<title>Divide</title>
<path fill="lightskyblue" stroke="black" d="M209.93,-108C209.93,-108 174.43,-108 174.43,-108 168.43,-108 162.43,-102 162.43,-96 162.43,-96 162.43,-84 162.43,-84 162.43,-78 168.43,-72 174.43,-72 174.43,-72 209.93,-72 209.93,-72 215.93,-72 221.93,-78 221.93,-84 221.93,-84 221.93,-96 221.93,-96 221.93,-102 215.93,-108 209.93,-108"/>
<text xml:space="preserve" text-anchor="middle" x="192.18" y="-85.33" font-family="Helvetica,sans-Serif" font-size="14.00">Divide</text>
</g>
<!-- NormaliseBy&#45;&gt;Divide -->
<g id="edge2" class="edge">
<title>NormaliseBy&#45;&gt;Divide</title>
<path fill="none" stroke="black" d="M120.39,-146.83C132,-137.81 147.33,-125.88 160.85,-115.37"/>
<polygon fill="black" stroke="black" points="162.91,-118.2 168.66,-109.3 158.61,-112.67 162.91,-118.2"/>
</g>
<!-- Runs -->
<g id="node2" class="node">
<title>Runs</title>
<ellipse fill="khaki" stroke="black" cx="282.18" cy="-234" rx="35.42" ry="18"/>
<text xml:space="preserve" text-anchor="middle" x="282.18" y="-229.32" font-family="Helvetica,sans-Serif" font-size="14.00">Runs</text>
</g>
<!-- LoadAndMerge -->
<g id="node4" class="node">
<title>LoadAndMerge</title>
<path fill="lightskyblue" stroke="black" d="M329.93,-180C329.93,-180 234.43,-180 234.43,-180 228.43,-180 222.43,-174 222.43,-168 222.43,-168 222.43,-156 222.43,-156 222.43,-150 228.43,-144 234.43,-144 234.43,-144 329.93,-144 329.93,-144 335.93,-144 341.93,-150 341.93,-156 341.93,-156 341.93,-168 341.93,-168 341.93,-174 335.93,-180 329.93,-180"/>
<text xml:space="preserve" text-anchor="middle" x="282.18" y="-157.32" font-family="Helvetica,sans-Serif" font-size="14.00">LoadAndMerge</text>
</g>
<!-- Runs&#45;&gt;LoadAndMerge -->
<g id="edge1" class="edge">
<title>Runs&#45;&gt;LoadAndMerge</title>
<path fill="none" stroke="black" d="M282.18,-215.7C282.18,-208.41 282.18,-199.73 282.18,-191.54"/>
<polygon fill="black" stroke="black" points="285.68,-191.62 282.18,-181.62 278.68,-191.62 285.68,-191.62"/>
</g>
<!-- OutputWorkspace -->
<g id="node3" class="node">
<title>OutputWorkspace</title>
<polygon fill="grey" stroke="black" points="298.02,-36 129.65,-36 86.34,0 254.71,0 298.02,-36"/>
<text xml:space="preserve" text-anchor="middle" x="192.18" y="-11.82" font-family="Times,serif" font-size="14.00">OutputWorkspace</text>
</g>
<!-- LoadAndMerge&#45;&gt;Divide -->
<g id="edge3" class="edge">
<title>LoadAndMerge&#45;&gt;Divide</title>
<path fill="none" stroke="black" d="M259.93,-143.7C248.9,-135.11 235.39,-124.61 223.34,-115.24"/>
<polygon fill="black" stroke="black" points="225.72,-112.65 215.68,-109.28 221.42,-118.18 225.72,-112.65"/>
</g>
<!-- Divide&#45;&gt;OutputWorkspace -->
<g id="edge4" class="edge">
<title>Divide&#45;&gt;OutputWorkspace</title>
<path fill="none" stroke="black" d="M192.18,-71.7C192.18,-64.41 192.18,-55.73 192.18,-47.54"/>
<polygon fill="black" stroke="black" points="195.68,-47.62 192.18,-37.62 188.68,-47.62 195.68,-47.62"/>
</g>
</g>
</svg>
