<?xml version="1.0" encoding="UTF-8" standalone="no"?>
<!DOCTYPE svg PUBLIC "-//W3C//DTD SVG 1.1//EN"
 "http://www.w3.org/Graphics/SVG/1.1/DTD/svg11.dtd">
<!-- Generated by graphviz version 11.0.0 (20240519.1550)
 -->
<!-- Title: Reference Pages: 1 -->
<svg width="1138pt" height="1121pt"
 viewBox="0.00 0.00 1137.79 1121.00" xmlns="http://www.w3.org/2000/svg" xmlns:xlink="http://www.w3.org/1999/xlink">
<g id="graph0" class="graph" transform="scale(1 1) rotate(0) translate(4 1117)">
<title>Reference</title>
<polygon fill="white" stroke="none" points="-4,4 -4,-1117 1133.79,-1117 1133.79,4 -4,4"/>
<!-- NormaliseBy -->
<g id="node1" class="node">
<title>NormaliseBy</title>
<polygon fill="limegreen" stroke="black" points="102.18,-1041 0,-1023 102.18,-1005 204.36,-1023 102.18,-1041"/>
<text text-anchor="middle" x="102.18" y="-1018.33" font-family="Helvetica,sans-Serif" font-size="14.00">NormaliseBy</text>
</g>
<!-- Divide -->
<g id="node15" class="node">
<title>Divide</title>
<path fill="lightskyblue" stroke="black" d="M130.93,-969C130.93,-969 95.43,-969 95.43,-969 89.43,-969 83.43,-963 83.43,-957 83.43,-957 83.43,-945 83.43,-945 83.43,-939 89.43,-933 95.43,-933 95.43,-933 130.93,-933 130.93,-933 136.93,-933 142.93,-939 142.93,-945 142.93,-945 142.93,-957 142.93,-957 142.93,-963 136.93,-969 130.93,-969"/>
<text text-anchor="middle" x="113.18" y="-946.33" font-family="Helvetica,sans-Serif" font-size="14.00">Divide</text>
</g>
<!-- NormaliseBy&#45;&gt;Divide -->
<g id="edge3" class="edge">
<title>NormaliseBy&#45;&gt;Divide</title>
<path fill="none" stroke="black" d="M104.84,-1005.05C106,-997.68 107.39,-988.84 108.7,-980.51"/>
<polygon fill="black" stroke="black" points="112.14,-981.19 110.23,-970.77 105.22,-980.11 112.14,-981.19"/>
</g>
<!-- Runs -->
<g id="node2" class="node">
<title>Runs</title>
<ellipse fill="khaki" stroke="black" cx="282.18" cy="-1095" rx="35.42" ry="18"/>
<text text-anchor="middle" x="282.18" y="-1090.33" font-family="Helvetica,sans-Serif" font-size="14.00">Runs</text>
</g>
<!-- LoadAndMerge -->
<g id="node14" class="node">
<title>LoadAndMerge</title>
<path fill="lightskyblue" stroke="black" d="M329.93,-1041C329.93,-1041 234.43,-1041 234.43,-1041 228.43,-1041 222.43,-1035 222.43,-1029 222.43,-1029 222.43,-1017 222.43,-1017 222.43,-1011 228.43,-1005 234.43,-1005 234.43,-1005 329.93,-1005 329.93,-1005 335.93,-1005 341.93,-1011 341.93,-1017 341.93,-1017 341.93,-1029 341.93,-1029 341.93,-1035 335.93,-1041 329.93,-1041"/>
<text text-anchor="middle" x="282.18" y="-1018.33" font-family="Helvetica,sans-Serif" font-size="14.00">LoadAndMerge</text>
</g>
<!-- Runs&#45;&gt;LoadAndMerge -->
<g id="edge1" class="edge">
<title>Runs&#45;&gt;LoadAndMerge</title>
<path fill="none" stroke="black" d="M282.18,-1076.7C282.18,-1069.41 282.18,-1060.73 282.18,-1052.54"/>
<polygon fill="black" stroke="black" points="285.68,-1052.62 282.18,-1042.62 278.68,-1052.62 285.68,-1052.62"/>
</g>
<!-- BeamCenter -->
<g id="node3" class="node">
<title>BeamCenter</title>
<ellipse fill="khaki" stroke="black" cx="521.18" cy="-879" rx="71.73" ry="18"/>
<text text-anchor="middle" x="521.18" y="-874.33" font-family="Helvetica,sans-Serif" font-size="14.00">BeamCenter</text>
</g>
<!-- MoveInstrumentComponent -->
<g id="node17" class="node">
<title>MoveInstrumentComponent</title>
<path fill="lightskyblue" stroke="black" d="M510.31,-825C510.31,-825 324.06,-825 324.06,-825 318.06,-825 312.06,-819 312.06,-813 312.06,-813 312.06,-801 312.06,-801 312.06,-795 318.06,-789 324.06,-789 324.06,-789 510.31,-789 510.31,-789 516.31,-789 522.31,-795 522.31,-801 522.31,-801 522.31,-813 522.31,-813 522.31,-819 516.31,-825 510.31,-825"/>
<text text-anchor="middle" x="417.18" y="-802.33" font-family="Helvetica,sans-Serif" font-size="14.00">MoveInstrumentComponent</text>
</g>
<!-- BeamCenter&#45;&gt;MoveInstrumentComponent -->
<g id="edge8" class="edge">
<title>BeamCenter&#45;&gt;MoveInstrumentComponent</title>
<path fill="none" stroke="black" d="M496.8,-861.59C483.5,-852.64 466.81,-841.4 452.15,-831.54"/>
<polygon fill="black" stroke="black" points="454.37,-828.81 444.12,-826.13 450.46,-834.62 454.37,-828.81"/>
</g>
<!-- DarkCurrentWorkspace -->
<g id="node4" class="node">
<title>DarkCurrentWorkspace</title>
<ellipse fill="khaki" stroke="black" cx="285.18" cy="-951" rx="123.81" ry="18"/>
<text text-anchor="middle" x="285.18" y="-946.33" font-family="Helvetica,sans-Serif" font-size="14.00">DarkCurrentWorkspace</text>
</g>
<!-- Minus -->
<g id="node16" class="node">
<title>Minus</title>
<path fill="lightskyblue" stroke="black" d="M301.81,-897C301.81,-897 268.56,-897 268.56,-897 262.56,-897 256.56,-891 256.56,-885 256.56,-885 256.56,-873 256.56,-873 256.56,-867 262.56,-861 268.56,-861 268.56,-861 301.81,-861 301.81,-861 307.81,-861 313.81,-867 313.81,-873 313.81,-873 313.81,-885 313.81,-885 313.81,-891 307.81,-897 301.81,-897"/>
<text text-anchor="middle" x="285.18" y="-874.33" font-family="Helvetica,sans-Serif" font-size="14.00">Minus</text>
</g>
<!-- DarkCurrentWorkspace&#45;&gt;Minus -->
<g id="edge5" class="edge">
<title>DarkCurrentWorkspace&#45;&gt;Minus</title>
<path fill="none" stroke="black" d="M285.18,-932.7C285.18,-925.41 285.18,-916.73 285.18,-908.54"/>
<polygon fill="black" stroke="black" points="288.68,-908.62 285.18,-898.62 281.68,-908.62 288.68,-908.62"/>
</g>
<!-- EmptyBeamWorkspace -->
<g id="node5" class="node">
<title>EmptyBeamWorkspace</title>
<ellipse fill="khaki" stroke="black" cx="551.18" cy="-951" rx="123.81" ry="18"/>
<text text-anchor="middle" x="551.18" y="-946.33" font-family="Helvetica,sans-Serif" font-size="14.00">EmptyBeamWorkspace</text>
</g>
<!-- EmptyBeamWorkspace&#45;&gt;BeamCenter -->
<g id="edge7" class="edge">
<title>EmptyBeamWorkspace&#45;&gt;BeamCenter</title>
<path fill="none" stroke="black" d="M543.76,-932.7C540.53,-925.15 536.66,-916.12 533.04,-907.68"/>
<polygon fill="black" stroke="black" points="536.26,-906.31 529.11,-898.5 529.83,-909.07 536.26,-906.31"/>
</g>
<!-- FluxWorkspace -->
<g id="node6" class="node">
<title>FluxWorkspace</title>
<ellipse fill="khaki" stroke="black" cx="1033.18" cy="-323.25" rx="84.88" ry="18"/>
<text text-anchor="middle" x="1033.18" y="-318.57" font-family="Helvetica,sans-Serif" font-size="14.00">FluxWorkspace</text>
</g>
<!-- Divide4 -->
<g id="node25" class="node">
<title>Divide4</title>
<path fill="lightskyblue" stroke="black" d="M984.93,-252C984.93,-252 949.43,-252 949.43,-252 943.43,-252 937.43,-246 937.43,-240 937.43,-240 937.43,-228 937.43,-228 937.43,-222 943.43,-216 949.43,-216 949.43,-216 984.93,-216 984.93,-216 990.93,-216 996.93,-222 996.93,-228 996.93,-228 996.93,-240 996.93,-240 996.93,-246 990.93,-252 984.93,-252"/>
<text text-anchor="middle" x="967.18" y="-229.32" font-family="Helvetica,sans-Serif" font-size="14.00">Divide</text>
</g>
<!-- FluxWorkspace&#45;&gt;Divide4 -->
<g id="edge21" class="edge">
<title>FluxWorkspace&#45;&gt;Divide4</title>
<path fill="none" stroke="black" d="M1020.14,-305.01C1010.65,-292.46 997.63,-275.25 986.87,-261.03"/>
<polygon fill="black" stroke="black" points="989.93,-259.27 981.11,-253.41 984.35,-263.5 989.93,-259.27"/>
</g>
<!-- TransmissionWorkspace -->
<g id="node7" class="node">
<title>TransmissionWorkspace</title>
<ellipse fill="khaki" stroke="black" cx="668.18" cy="-807" rx="128.02" ry="18"/>
<text text-anchor="middle" x="668.18" y="-802.33" font-family="Helvetica,sans-Serif" font-size="14.00">TransmissionWorkspace</text>
</g>
<!-- ApplyTransmissionCorrection -->
<g id="node18" class="node">
<title>ApplyTransmissionCorrection</title>
<path fill="lightskyblue" stroke="black" d="M638.68,-753C638.68,-753 445.68,-753 445.68,-753 439.68,-753 433.68,-747 433.68,-741 433.68,-741 433.68,-729 433.68,-729 433.68,-723 439.68,-717 445.68,-717 445.68,-717 638.68,-717 638.68,-717 644.68,-717 650.68,-723 650.68,-729 650.68,-729 650.68,-741 650.68,-741 650.68,-747 644.68,-753 638.68,-753"/>
<text text-anchor="middle" x="542.18" y="-730.33" font-family="Helvetica,sans-Serif" font-size="14.00">ApplyTransmissionCorrection</text>
</g>
<!-- TransmissionWorkspace&#45;&gt;ApplyTransmissionCorrection -->
<g id="edge10" class="edge">
<title>TransmissionWorkspace&#45;&gt;ApplyTransmissionCorrection</title>
<path fill="none" stroke="black" d="M637.68,-789.05C621.21,-779.91 600.66,-768.49 582.85,-758.59"/>
<polygon fill="black" stroke="black" points="585.04,-755.81 574.6,-754.01 581.64,-761.93 585.04,-755.81"/>
</g>
<!-- EmptyContainerWorkspace -->
<g id="node8" class="node">
<title>EmptyContainerWorkspace</title>
<ellipse fill="khaki" stroke="black" cx="733.18" cy="-645.75" rx="143.28" ry="18"/>
<text text-anchor="middle" x="733.18" y="-641.08" font-family="Helvetica,sans-Serif" font-size="14.00">EmptyContainerWorkspace</text>
</g>
<!-- Minus2 -->
<g id="node20" class="node">
<title>Minus2</title>
<path fill="lightskyblue" stroke="black" d="M653.81,-591.75C653.81,-591.75 620.56,-591.75 620.56,-591.75 614.56,-591.75 608.56,-585.75 608.56,-579.75 608.56,-579.75 608.56,-567.75 608.56,-567.75 608.56,-561.75 614.56,-555.75 620.56,-555.75 620.56,-555.75 653.81,-555.75 653.81,-555.75 659.81,-555.75 665.81,-561.75 665.81,-567.75 665.81,-567.75 665.81,-579.75 665.81,-579.75 665.81,-585.75 659.81,-591.75 653.81,-591.75"/>
<text text-anchor="middle" x="637.18" y="-569.08" font-family="Helvetica,sans-Serif" font-size="14.00">Minus</text>
</g>
<!-- EmptyContainerWorkspace&#45;&gt;Minus2 -->
<g id="edge13" class="edge">
<title>EmptyContainerWorkspace&#45;&gt;Minus2</title>
<path fill="none" stroke="black" d="M709.94,-627.8C697.97,-619.08 683.18,-608.29 670.06,-598.73"/>
<polygon fill="black" stroke="black" points="672.24,-595.98 662.1,-592.92 668.11,-601.64 672.24,-595.98"/>
</g>
<!-- DefaultMaskWorkspace -->
<g id="node9" class="node">
<title>DefaultMaskWorkspace</title>
<ellipse fill="khaki" stroke="black" cx="808.18" cy="-573.75" rx="124.86" ry="18"/>
<text text-anchor="middle" x="808.18" y="-569.08" font-family="Helvetica,sans-Serif" font-size="14.00">DefaultMaskWorkspace</text>
</g>
<!-- MaskDetectors -->
<g id="node22" class="node">
<title>MaskDetectors</title>
<path fill="lightskyblue" stroke="black" d="M855.56,-502.5C855.56,-502.5 760.81,-502.5 760.81,-502.5 754.81,-502.5 748.81,-496.5 748.81,-490.5 748.81,-490.5 748.81,-478.5 748.81,-478.5 748.81,-472.5 754.81,-466.5 760.81,-466.5 760.81,-466.5 855.56,-466.5 855.56,-466.5 861.56,-466.5 867.56,-472.5 867.56,-478.5 867.56,-478.5 867.56,-490.5 867.56,-490.5 867.56,-496.5 861.56,-502.5 855.56,-502.5"/>
<text text-anchor="middle" x="808.18" y="-479.82" font-family="Helvetica,sans-Serif" font-size="14.00">MaskDetectors</text>
</g>
<!-- DefaultMaskWorkspace&#45;&gt;MaskDetectors -->
<g id="edge15" class="edge">
<title>DefaultMaskWorkspace&#45;&gt;MaskDetectors</title>
<path fill="none" stroke="black" d="M808.18,-555.51C808.18,-543.68 808.18,-527.7 808.18,-514"/>
<polygon fill="black" stroke="black" points="811.68,-514.22 808.18,-504.22 804.68,-514.22 811.68,-514.22"/>
<text text-anchor="middle" x="829.56" y="-524.45" font-family="Helvetica,sans-Serif" font-size="14.00">Edges</text>
</g>
<!-- MaskWorkspace -->
<g id="node10" class="node">
<title>MaskWorkspace</title>
<ellipse fill="khaki" stroke="black" cx="1040.18" cy="-573.75" rx="89.61" ry="18"/>
<text text-anchor="middle" x="1040.18" y="-569.08" font-family="Helvetica,sans-Serif" font-size="14.00">MaskWorkspace</text>
</g>
<!-- MaskWorkspace&#45;&gt;MaskDetectors -->
<g id="edge16" class="edge">
<title>MaskWorkspace&#45;&gt;MaskDetectors</title>
<path fill="none" stroke="black" d="M999.24,-557.35C962.02,-543.36 906.74,-522.57 865.21,-506.95"/>
<polygon fill="black" stroke="black" points="866.7,-503.77 856.11,-503.52 864.24,-510.32 866.7,-503.77"/>
<text text-anchor="middle" x="979.81" y="-524.45" font-family="Helvetica,sans-Serif" font-size="14.00">BeamStop</text>
</g>
<!-- SampleThickness -->
<g id="node11" class="node">
<title>SampleThickness</title>
<ellipse fill="khaki" stroke="black" cx="992.18" cy="-412.5" rx="95.93" ry="18"/>
<text text-anchor="middle" x="992.18" y="-407.82" font-family="Helvetica,sans-Serif" font-size="14.00">SampleThickness</text>
</g>
<!-- Divide3 -->
<g id="node24" class="node">
<title>Divide3</title>
<path fill="lightskyblue" stroke="black" d="M917.93,-341.25C917.93,-341.25 882.43,-341.25 882.43,-341.25 876.43,-341.25 870.43,-335.25 870.43,-329.25 870.43,-329.25 870.43,-317.25 870.43,-317.25 870.43,-311.25 876.43,-305.25 882.43,-305.25 882.43,-305.25 917.93,-305.25 917.93,-305.25 923.93,-305.25 929.93,-311.25 929.93,-317.25 929.93,-317.25 929.93,-329.25 929.93,-329.25 929.93,-335.25 923.93,-341.25 917.93,-341.25"/>
<text text-anchor="middle" x="900.18" y="-318.57" font-family="Helvetica,sans-Serif" font-size="14.00">Divide</text>
</g>
<!-- SampleThickness&#45;&gt;Divide3 -->
<g id="edge19" class="edge">
<title>SampleThickness&#45;&gt;Divide3</title>
<path fill="none" stroke="black" d="M974.44,-394.68C960.87,-381.81 941.95,-363.86 926.6,-349.3"/>
<polygon fill="black" stroke="black" points="929.26,-347 919.59,-342.66 924.44,-352.08 929.26,-347"/>
</g>
<!-- OutputWorkspace -->
<g id="node12" class="node">
<title>OutputWorkspace</title>
<polygon fill="grey" stroke="black" points="1073.02,-180 904.65,-180 861.34,-144 1029.71,-144 1073.02,-180"/>
<text text-anchor="middle" x="967.18" y="-155.82" font-family="Times,serif" font-size="14.00">OutputWorkspace</text>
</g>
<!-- CalculateEfficiency -->
<g id="node21" class="node">
<title>CalculateEfficiency</title>
<path fill="lightskyblue" stroke="black" d="M1028.43,-108C1028.43,-108 905.93,-108 905.93,-108 899.93,-108 893.93,-102 893.93,-96 893.93,-96 893.93,-84 893.93,-84 893.93,-78 899.93,-72 905.93,-72 905.93,-72 1028.43,-72 1028.43,-72 1034.43,-72 1040.43,-78 1040.43,-84 1040.43,-84 1040.43,-96 1040.43,-96 1040.43,-102 1034.43,-108 1028.43,-108"/>
<text text-anchor="middle" x="967.18" y="-85.33" font-family="Helvetica,sans-Serif" font-size="14.00">CalculateEfficiency</text>
</g>
<!-- OutputWorkspace&#45;&gt;CalculateEfficiency -->
<g id="edge23" class="edge">
<title>OutputWorkspace&#45;&gt;CalculateEfficiency</title>
<path fill="none" stroke="black" d="M967.18,-143.7C967.18,-136.41 967.18,-127.73 967.18,-119.54"/>
<polygon fill="black" stroke="black" points="970.68,-119.62 967.18,-109.62 963.68,-119.62 970.68,-119.62"/>
</g>
<!-- OutputSensitivityWorkspace -->
<g id="node13" class="node">
<title>OutputSensitivityWorkspace</title>
<polygon fill="grey" stroke="black" points="1126.88,-36 872.84,-36 807.48,0 1061.52,0 1126.88,-36"/>
<text text-anchor="middle" x="967.18" y="-11.82" font-family="Times,serif" font-size="14.00">OutputSensitivityWorkspace</text>
</g>
<!-- LoadAndMerge&#45;&gt;Divide -->
<g id="edge2" class="edge">
<title>LoadAndMerge&#45;&gt;Divide</title>
<path fill="none" stroke="black" d="M238.74,-1004.59C215.8,-995.33 186.96,-983.58 153.81,-969.64"/>
<polygon fill="black" stroke="black" points="155.35,-966.5 144.78,-965.84 152.63,-972.95 155.35,-966.5"/>
</g>
<!-- Divide&#45;&gt;Minus -->
<g id="edge4" class="edge">
<title>Divide&#45;&gt;Minus</title>
<path fill="none" stroke="black" d="M143.37,-936.73C146.34,-935.45 149.32,-934.19 152.18,-933 183.53,-919.92 219.32,-905.7 245.86,-895.29"/>
<polygon fill="black" stroke="black" points="246.83,-898.67 254.87,-891.76 244.28,-892.15 246.83,-898.67"/>
</g>
<!-- Minus&#45;&gt;MoveInstrumentComponent -->
<g id="edge6" class="edge">
<title>Minus&#45;&gt;MoveInstrumentComponent</title>
<path fill="none" stroke="black" d="M314.15,-862.64C331.86,-853.25 354.82,-841.07 374.58,-830.59"/>
<polygon fill="black" stroke="black" points="376.04,-833.78 383.23,-826 372.76,-827.6 376.04,-833.78"/>
</g>
<!-- MoveInstrumentComponent&#45;&gt;ApplyTransmissionCorrection -->
<g id="edge9" class="edge">
<title>MoveInstrumentComponent&#45;&gt;ApplyTransmissionCorrection</title>
<path fill="none" stroke="black" d="M448.4,-788.52C464.48,-779.51 484.28,-768.42 501.54,-758.76"/>
<polygon fill="black" stroke="black" points="503.02,-761.94 510.04,-754 499.6,-755.83 503.02,-761.94"/>
</g>
<!-- Divide2 -->
<g id="node23" class="node">
<title>Divide2</title>
<path fill="lightskyblue" stroke="black" d="M559.93,-663.75C559.93,-663.75 524.43,-663.75 524.43,-663.75 518.43,-663.75 512.43,-657.75 512.43,-651.75 512.43,-651.75 512.43,-639.75 512.43,-639.75 512.43,-633.75 518.43,-627.75 524.43,-627.75 524.43,-627.75 559.93,-627.75 559.93,-627.75 565.93,-627.75 571.93,-633.75 571.93,-639.75 571.93,-639.75 571.93,-651.75 571.93,-651.75 571.93,-657.75 565.93,-663.75 559.93,-663.75"/>
<text text-anchor="middle" x="542.18" y="-641.08" font-family="Helvetica,sans-Serif" font-size="14.00">Divide</text>
</g>
<!-- ApplyTransmissionCorrection&#45;&gt;Divide2 -->
<g id="edge11" class="edge">
<title>ApplyTransmissionCorrection&#45;&gt;Divide2</title>
<path fill="none" stroke="black" d="M542.18,-716.76C542.18,-704.93 542.18,-688.95 542.18,-675.25"/>
<polygon fill="black" stroke="black" points="545.68,-675.47 542.18,-665.47 538.68,-675.47 545.68,-675.47"/>
<text text-anchor="middle" x="578.93" y="-685.7" font-family="Helvetica,sans-Serif" font-size="14.00">SolidAngle</text>
</g>
<!-- ParallaxCorrection -->
<g id="node19" class="node">
<title>ParallaxCorrection</title>
<path fill="lightskyblue" stroke="black" d="M866.43,-430.5C866.43,-430.5 749.93,-430.5 749.93,-430.5 743.93,-430.5 737.93,-424.5 737.93,-418.5 737.93,-418.5 737.93,-406.5 737.93,-406.5 737.93,-400.5 743.93,-394.5 749.93,-394.5 749.93,-394.5 866.43,-394.5 866.43,-394.5 872.43,-394.5 878.43,-400.5 878.43,-406.5 878.43,-406.5 878.43,-418.5 878.43,-418.5 878.43,-424.5 872.43,-430.5 866.43,-430.5"/>
<text text-anchor="middle" x="808.18" y="-407.82" font-family="Helvetica,sans-Serif" font-size="14.00">ParallaxCorrection</text>
</g>
<!-- ParallaxCorrection&#45;&gt;Divide3 -->
<g id="edge18" class="edge">
<title>ParallaxCorrection&#45;&gt;Divide3</title>
<path fill="none" stroke="black" d="M826.36,-394.26C839.97,-381.36 858.78,-363.51 874.01,-349.07"/>
<polygon fill="black" stroke="black" points="876.1,-351.91 880.94,-342.49 871.28,-346.84 876.1,-351.91"/>
<text text-anchor="middle" x="896.68" y="-363.2" font-family="Helvetica,sans-Serif" font-size="14.00">Thickness</text>
</g>
<!-- Minus2&#45;&gt;MaskDetectors -->
<g id="edge14" class="edge">
<title>Minus2&#45;&gt;MaskDetectors</title>
<path fill="none" stroke="black" d="M666.19,-557.95C692.98,-544.28 733.18,-523.77 763.97,-508.06"/>
<polygon fill="black" stroke="black" points="765.36,-511.28 772.67,-503.62 762.17,-505.04 765.36,-511.28"/>
</g>
<!-- CalculateEfficiency&#45;&gt;OutputSensitivityWorkspace -->
<g id="edge24" class="edge">
<title>CalculateEfficiency&#45;&gt;OutputSensitivityWorkspace</title>
<path fill="none" stroke="black" d="M967.18,-71.7C967.18,-64.41 967.18,-55.73 967.18,-47.54"/>
<polygon fill="black" stroke="black" points="970.68,-47.62 967.18,-37.62 963.68,-47.62 970.68,-47.62"/>
</g>
<!-- MaskDetectors&#45;&gt;ParallaxCorrection -->
<g id="edge17" class="edge">
<title>MaskDetectors&#45;&gt;ParallaxCorrection</title>
<path fill="none" stroke="black" d="M808.18,-466.2C808.18,-458.91 808.18,-450.23 808.18,-442.04"/>
<polygon fill="black" stroke="black" points="811.68,-442.12 808.18,-432.12 804.68,-442.12 811.68,-442.12"/>
</g>
<!-- Divide2&#45;&gt;Minus2 -->
<g id="edge12" class="edge">
<title>Divide2&#45;&gt;Minus2</title>
<path fill="none" stroke="black" d="M565.66,-627.45C577.42,-618.78 591.85,-608.15 604.66,-598.71"/>
<polygon fill="black" stroke="black" points="606.45,-601.74 612.42,-592.99 602.29,-596.11 606.45,-601.74"/>
</g>
<!-- Divide3&#45;&gt;Divide4 -->
<g id="edge20" class="edge">
<title>Divide3&#45;&gt;Divide4</title>
<path fill="none" stroke="black" d="M913.42,-305.01C923.05,-292.46 936.27,-275.25 947.19,-261.03"/>
<polygon fill="black" stroke="black" points="949.73,-263.47 953.05,-253.4 944.18,-259.2 949.73,-263.47"/>
<text text-anchor="middle" x="953.81" y="-273.95" font-family="Helvetica,sans-Serif" font-size="14.00">Flux</text>
</g>
<!-- Divide4&#45;&gt;OutputWorkspace -->
<g id="edge22" class="edge">
<title>Divide4&#45;&gt;OutputWorkspace</title>
<path fill="none" stroke="black" d="M967.18,-215.7C967.18,-208.41 967.18,-199.73 967.18,-191.54"/>
<polygon fill="black" stroke="black" points="970.68,-191.62 967.18,-181.62 963.68,-191.62 970.68,-191.62"/>
</g>
</g>
</svg>
