<?xml version="1.0" encoding="UTF-8" standalone="no"?>
<!DOCTYPE svg PUBLIC "-//W3C//DTD SVG 1.1//EN"
 "http://www.w3.org/Graphics/SVG/1.1/DTD/svg11.dtd">
<!-- Generated by graphviz version 11.0.0 (20240519.1550)
 -->
<!-- Title: Reference Pages: 1 -->
<svg width="1300pt" height="1138pt"
 viewBox="0.00 0.00 1299.84 1138.25" xmlns="http://www.w3.org/2000/svg" xmlns:xlink="http://www.w3.org/1999/xlink">
<g id="graph0" class="graph" transform="scale(1 1) rotate(0) translate(4 1134.25)">
<title>Reference</title>
<polygon fill="white" stroke="none" points="-4,4 -4,-1134.25 1295.84,-1134.25 1295.84,4 -4,4"/>
<!-- NormaliseBy -->
<g id="node1" class="node">
<title>NormaliseBy</title>
<polygon fill="limegreen" stroke="black" points="102.18,-1058.25 0,-1040.25 102.18,-1022.25 204.36,-1040.25 102.18,-1058.25"/>
<text text-anchor="middle" x="102.18" y="-1035.58" font-family="Helvetica,sans-Serif" font-size="14.00">NormaliseBy</text>
</g>
<!-- Divide -->
<g id="node16" class="node">
<title>Divide</title>
<path fill="lightskyblue" stroke="black" d="M130.93,-986.25C130.93,-986.25 95.43,-986.25 95.43,-986.25 89.43,-986.25 83.43,-980.25 83.43,-974.25 83.43,-974.25 83.43,-962.25 83.43,-962.25 83.43,-956.25 89.43,-950.25 95.43,-950.25 95.43,-950.25 130.93,-950.25 130.93,-950.25 136.93,-950.25 142.93,-956.25 142.93,-962.25 142.93,-962.25 142.93,-974.25 142.93,-974.25 142.93,-980.25 136.93,-986.25 130.93,-986.25"/>
<text text-anchor="middle" x="113.18" y="-963.58" font-family="Helvetica,sans-Serif" font-size="14.00">Divide</text>
</g>
<!-- NormaliseBy&#45;&gt;Divide -->
<g id="edge3" class="edge">
<title>NormaliseBy&#45;&gt;Divide</title>
<path fill="none" stroke="black" d="M104.84,-1022.3C106,-1014.93 107.39,-1006.09 108.7,-997.76"/>
<polygon fill="black" stroke="black" points="112.14,-998.44 110.23,-988.02 105.22,-997.36 112.14,-998.44"/>
</g>
<!-- Runs -->
<g id="node2" class="node">
<title>Runs</title>
<ellipse fill="khaki" stroke="black" cx="282.18" cy="-1112.25" rx="35.42" ry="18"/>
<text text-anchor="middle" x="282.18" y="-1107.58" font-family="Helvetica,sans-Serif" font-size="14.00">Runs</text>
</g>
<!-- LoadAndMerge -->
<g id="node15" class="node">
<title>LoadAndMerge</title>
<path fill="lightskyblue" stroke="black" d="M329.93,-1058.25C329.93,-1058.25 234.43,-1058.25 234.43,-1058.25 228.43,-1058.25 222.43,-1052.25 222.43,-1046.25 222.43,-1046.25 222.43,-1034.25 222.43,-1034.25 222.43,-1028.25 228.43,-1022.25 234.43,-1022.25 234.43,-1022.25 329.93,-1022.25 329.93,-1022.25 335.93,-1022.25 341.93,-1028.25 341.93,-1034.25 341.93,-1034.25 341.93,-1046.25 341.93,-1046.25 341.93,-1052.25 335.93,-1058.25 329.93,-1058.25"/>
<text text-anchor="middle" x="282.18" y="-1035.58" font-family="Helvetica,sans-Serif" font-size="14.00">LoadAndMerge</text>
</g>
<!-- Runs&#45;&gt;LoadAndMerge -->
<g id="edge1" class="edge">
<title>Runs&#45;&gt;LoadAndMerge</title>
<path fill="none" stroke="black" d="M282.18,-1093.95C282.18,-1086.66 282.18,-1077.98 282.18,-1069.79"/>
<polygon fill="black" stroke="black" points="285.68,-1069.87 282.18,-1059.87 278.68,-1069.87 285.68,-1069.87"/>
</g>
<!-- BeamCenter -->
<g id="node3" class="node">
<title>BeamCenter</title>
<ellipse fill="khaki" stroke="black" cx="521.18" cy="-896.25" rx="71.73" ry="18"/>
<text text-anchor="middle" x="521.18" y="-891.58" font-family="Helvetica,sans-Serif" font-size="14.00">BeamCenter</text>
</g>
<!-- MoveInstrumentComponent -->
<g id="node18" class="node">
<title>MoveInstrumentComponent</title>
<path fill="lightskyblue" stroke="black" d="M510.31,-842.25C510.31,-842.25 324.06,-842.25 324.06,-842.25 318.06,-842.25 312.06,-836.25 312.06,-830.25 312.06,-830.25 312.06,-818.25 312.06,-818.25 312.06,-812.25 318.06,-806.25 324.06,-806.25 324.06,-806.25 510.31,-806.25 510.31,-806.25 516.31,-806.25 522.31,-812.25 522.31,-818.25 522.31,-818.25 522.31,-830.25 522.31,-830.25 522.31,-836.25 516.31,-842.25 510.31,-842.25"/>
<text text-anchor="middle" x="417.18" y="-819.58" font-family="Helvetica,sans-Serif" font-size="14.00">MoveInstrumentComponent</text>
</g>
<!-- BeamCenter&#45;&gt;MoveInstrumentComponent -->
<g id="edge8" class="edge">
<title>BeamCenter&#45;&gt;MoveInstrumentComponent</title>
<path fill="none" stroke="black" d="M496.8,-878.84C483.5,-869.89 466.81,-858.65 452.15,-848.79"/>
<polygon fill="black" stroke="black" points="454.37,-846.06 444.12,-843.38 450.46,-851.87 454.37,-846.06"/>
</g>
<!-- DarkCurrentWorkspace -->
<g id="node4" class="node">
<title>DarkCurrentWorkspace</title>
<ellipse fill="khaki" stroke="black" cx="285.18" cy="-968.25" rx="123.81" ry="18"/>
<text text-anchor="middle" x="285.18" y="-963.58" font-family="Helvetica,sans-Serif" font-size="14.00">DarkCurrentWorkspace</text>
</g>
<!-- Minus -->
<g id="node17" class="node">
<title>Minus</title>
<path fill="lightskyblue" stroke="black" d="M301.81,-914.25C301.81,-914.25 268.56,-914.25 268.56,-914.25 262.56,-914.25 256.56,-908.25 256.56,-902.25 256.56,-902.25 256.56,-890.25 256.56,-890.25 256.56,-884.25 262.56,-878.25 268.56,-878.25 268.56,-878.25 301.81,-878.25 301.81,-878.25 307.81,-878.25 313.81,-884.25 313.81,-890.25 313.81,-890.25 313.81,-902.25 313.81,-902.25 313.81,-908.25 307.81,-914.25 301.81,-914.25"/>
<text text-anchor="middle" x="285.18" y="-891.58" font-family="Helvetica,sans-Serif" font-size="14.00">Minus</text>
</g>
<!-- DarkCurrentWorkspace&#45;&gt;Minus -->
<g id="edge5" class="edge">
<title>DarkCurrentWorkspace&#45;&gt;Minus</title>
<path fill="none" stroke="black" d="M285.18,-949.95C285.18,-942.66 285.18,-933.98 285.18,-925.79"/>
<polygon fill="black" stroke="black" points="288.68,-925.87 285.18,-915.87 281.68,-925.87 288.68,-925.87"/>
</g>
<!-- EmptyBeamWorkspace -->
<g id="node5" class="node">
<title>EmptyBeamWorkspace</title>
<ellipse fill="khaki" stroke="black" cx="551.18" cy="-968.25" rx="123.81" ry="18"/>
<text text-anchor="middle" x="551.18" y="-963.58" font-family="Helvetica,sans-Serif" font-size="14.00">EmptyBeamWorkspace</text>
</g>
<!-- EmptyBeamWorkspace&#45;&gt;BeamCenter -->
<g id="edge7" class="edge">
<title>EmptyBeamWorkspace&#45;&gt;BeamCenter</title>
<path fill="none" stroke="black" d="M543.76,-949.95C540.53,-942.4 536.66,-933.37 533.04,-924.93"/>
<polygon fill="black" stroke="black" points="536.26,-923.56 529.11,-915.75 529.83,-926.32 536.26,-923.56"/>
</g>
<!-- FluxWorkspace -->
<g id="node6" class="node">
<title>FluxWorkspace</title>
<ellipse fill="khaki" stroke="black" cx="1033.18" cy="-340.5" rx="84.88" ry="18"/>
<text text-anchor="middle" x="1033.18" y="-335.82" font-family="Helvetica,sans-Serif" font-size="14.00">FluxWorkspace</text>
</g>
<!-- Divide4 -->
<g id="node26" class="node">
<title>Divide4</title>
<path fill="lightskyblue" stroke="black" d="M984.93,-269.25C984.93,-269.25 949.43,-269.25 949.43,-269.25 943.43,-269.25 937.43,-263.25 937.43,-257.25 937.43,-257.25 937.43,-245.25 937.43,-245.25 937.43,-239.25 943.43,-233.25 949.43,-233.25 949.43,-233.25 984.93,-233.25 984.93,-233.25 990.93,-233.25 996.93,-239.25 996.93,-245.25 996.93,-245.25 996.93,-257.25 996.93,-257.25 996.93,-263.25 990.93,-269.25 984.93,-269.25"/>
<text text-anchor="middle" x="967.18" y="-246.57" font-family="Helvetica,sans-Serif" font-size="14.00">Divide</text>
</g>
<!-- FluxWorkspace&#45;&gt;Divide4 -->
<g id="edge21" class="edge">
<title>FluxWorkspace&#45;&gt;Divide4</title>
<path fill="none" stroke="black" d="M1020.14,-322.26C1010.65,-309.71 997.63,-292.5 986.87,-278.28"/>
<polygon fill="black" stroke="black" points="989.93,-276.52 981.11,-270.66 984.35,-280.75 989.93,-276.52"/>
</g>
<!-- TransmissionWorkspace -->
<g id="node7" class="node">
<title>TransmissionWorkspace</title>
<ellipse fill="khaki" stroke="black" cx="668.18" cy="-824.25" rx="128.02" ry="18"/>
<text text-anchor="middle" x="668.18" y="-819.58" font-family="Helvetica,sans-Serif" font-size="14.00">TransmissionWorkspace</text>
</g>
<!-- ApplyTransmissionCorrection -->
<g id="node19" class="node">
<title>ApplyTransmissionCorrection</title>
<path fill="lightskyblue" stroke="black" d="M638.68,-770.25C638.68,-770.25 445.68,-770.25 445.68,-770.25 439.68,-770.25 433.68,-764.25 433.68,-758.25 433.68,-758.25 433.68,-746.25 433.68,-746.25 433.68,-740.25 439.68,-734.25 445.68,-734.25 445.68,-734.25 638.68,-734.25 638.68,-734.25 644.68,-734.25 650.68,-740.25 650.68,-746.25 650.68,-746.25 650.68,-758.25 650.68,-758.25 650.68,-764.25 644.68,-770.25 638.68,-770.25"/>
<text text-anchor="middle" x="542.18" y="-747.58" font-family="Helvetica,sans-Serif" font-size="14.00">ApplyTransmissionCorrection</text>
</g>
<!-- TransmissionWorkspace&#45;&gt;ApplyTransmissionCorrection -->
<g id="edge10" class="edge">
<title>TransmissionWorkspace&#45;&gt;ApplyTransmissionCorrection</title>
<path fill="none" stroke="black" d="M637.68,-806.3C621.21,-797.16 600.66,-785.74 582.85,-775.84"/>
<polygon fill="black" stroke="black" points="585.04,-773.06 574.6,-771.26 581.64,-779.18 585.04,-773.06"/>
</g>
<!-- EmptyContainerWorkspace -->
<g id="node8" class="node">
<title>EmptyContainerWorkspace</title>
<ellipse fill="khaki" stroke="black" cx="733.18" cy="-663" rx="143.28" ry="18"/>
<text text-anchor="middle" x="733.18" y="-658.33" font-family="Helvetica,sans-Serif" font-size="14.00">EmptyContainerWorkspace</text>
</g>
<!-- Minus2 -->
<g id="node21" class="node">
<title>Minus2</title>
<path fill="lightskyblue" stroke="black" d="M653.81,-609C653.81,-609 620.56,-609 620.56,-609 614.56,-609 608.56,-603 608.56,-597 608.56,-597 608.56,-585 608.56,-585 608.56,-579 614.56,-573 620.56,-573 620.56,-573 653.81,-573 653.81,-573 659.81,-573 665.81,-579 665.81,-585 665.81,-585 665.81,-597 665.81,-597 665.81,-603 659.81,-609 653.81,-609"/>
<text text-anchor="middle" x="637.18" y="-586.33" font-family="Helvetica,sans-Serif" font-size="14.00">Minus</text>
</g>
<!-- EmptyContainerWorkspace&#45;&gt;Minus2 -->
<g id="edge13" class="edge">
<title>EmptyContainerWorkspace&#45;&gt;Minus2</title>
<path fill="none" stroke="black" d="M709.94,-645.05C697.97,-636.33 683.18,-625.54 670.06,-615.98"/>
<polygon fill="black" stroke="black" points="672.24,-613.23 662.1,-610.17 668.11,-618.89 672.24,-613.23"/>
</g>
<!-- DefaultMaskWorkspace -->
<g id="node9" class="node">
<title>DefaultMaskWorkspace</title>
<ellipse fill="khaki" stroke="black" cx="808.18" cy="-591" rx="124.86" ry="18"/>
<text text-anchor="middle" x="808.18" y="-586.33" font-family="Helvetica,sans-Serif" font-size="14.00">DefaultMaskWorkspace</text>
</g>
<!-- MaskDetectors -->
<g id="node23" class="node">
<title>MaskDetectors</title>
<path fill="lightskyblue" stroke="black" d="M855.56,-519.75C855.56,-519.75 760.81,-519.75 760.81,-519.75 754.81,-519.75 748.81,-513.75 748.81,-507.75 748.81,-507.75 748.81,-495.75 748.81,-495.75 748.81,-489.75 754.81,-483.75 760.81,-483.75 760.81,-483.75 855.56,-483.75 855.56,-483.75 861.56,-483.75 867.56,-489.75 867.56,-495.75 867.56,-495.75 867.56,-507.75 867.56,-507.75 867.56,-513.75 861.56,-519.75 855.56,-519.75"/>
<text text-anchor="middle" x="808.18" y="-497.07" font-family="Helvetica,sans-Serif" font-size="14.00">MaskDetectors</text>
</g>
<!-- DefaultMaskWorkspace&#45;&gt;MaskDetectors -->
<g id="edge15" class="edge">
<title>DefaultMaskWorkspace&#45;&gt;MaskDetectors</title>
<path fill="none" stroke="black" d="M808.18,-572.76C808.18,-560.93 808.18,-544.95 808.18,-531.25"/>
<polygon fill="black" stroke="black" points="811.68,-531.47 808.18,-521.47 804.68,-531.47 811.68,-531.47"/>
<text text-anchor="middle" x="829.56" y="-541.7" font-family="Helvetica,sans-Serif" font-size="14.00">Edges</text>
</g>
<!-- MaskWorkspace -->
<g id="node10" class="node">
<title>MaskWorkspace</title>
<ellipse fill="khaki" stroke="black" cx="1040.18" cy="-591" rx="89.61" ry="18"/>
<text text-anchor="middle" x="1040.18" y="-586.33" font-family="Helvetica,sans-Serif" font-size="14.00">MaskWorkspace</text>
</g>
<!-- MaskWorkspace&#45;&gt;MaskDetectors -->
<g id="edge16" class="edge">
<title>MaskWorkspace&#45;&gt;MaskDetectors</title>
<path fill="none" stroke="black" d="M999.24,-574.6C962.02,-560.61 906.74,-539.82 865.21,-524.2"/>
<polygon fill="black" stroke="black" points="866.7,-521.02 856.11,-520.77 864.24,-527.57 866.7,-521.02"/>
<text text-anchor="middle" x="979.81" y="-541.7" font-family="Helvetica,sans-Serif" font-size="14.00">BeamStop</text>
</g>
<!-- SampleThickness -->
<g id="node11" class="node">
<title>SampleThickness</title>
<ellipse fill="khaki" stroke="black" cx="992.18" cy="-429.75" rx="95.93" ry="18"/>
<text text-anchor="middle" x="992.18" y="-425.07" font-family="Helvetica,sans-Serif" font-size="14.00">SampleThickness</text>
</g>
<!-- Divide3 -->
<g id="node25" class="node">
<title>Divide3</title>
<path fill="lightskyblue" stroke="black" d="M917.93,-358.5C917.93,-358.5 882.43,-358.5 882.43,-358.5 876.43,-358.5 870.43,-352.5 870.43,-346.5 870.43,-346.5 870.43,-334.5 870.43,-334.5 870.43,-328.5 876.43,-322.5 882.43,-322.5 882.43,-322.5 917.93,-322.5 917.93,-322.5 923.93,-322.5 929.93,-328.5 929.93,-334.5 929.93,-334.5 929.93,-346.5 929.93,-346.5 929.93,-352.5 923.93,-358.5 917.93,-358.5"/>
<text text-anchor="middle" x="900.18" y="-335.82" font-family="Helvetica,sans-Serif" font-size="14.00">Divide</text>
</g>
<!-- SampleThickness&#45;&gt;Divide3 -->
<g id="edge19" class="edge">
<title>SampleThickness&#45;&gt;Divide3</title>
<path fill="none" stroke="black" d="M974.44,-411.93C960.87,-399.06 941.95,-381.11 926.6,-366.55"/>
<polygon fill="black" stroke="black" points="929.26,-364.25 919.59,-359.91 924.44,-369.33 929.26,-364.25"/>
</g>
<!-- FlatFieldWorkspace -->
<g id="node12" class="node">
<title>FlatFieldWorkspace</title>
<ellipse fill="khaki" stroke="black" cx="1120.18" cy="-251.25" rx="104.35" ry="18"/>
<text text-anchor="middle" x="1120.18" y="-246.57" font-family="Helvetica,sans-Serif" font-size="14.00">FlatFieldWorkspace</text>
</g>
<!-- Divide5 -->
<g id="node27" class="node">
<title>Divide5</title>
<path fill="lightskyblue" stroke="black" d="M1060.93,-180C1060.93,-180 1025.43,-180 1025.43,-180 1019.43,-180 1013.43,-174 1013.43,-168 1013.43,-168 1013.43,-156 1013.43,-156 1013.43,-150 1019.43,-144 1025.43,-144 1025.43,-144 1060.93,-144 1060.93,-144 1066.93,-144 1072.93,-150 1072.93,-156 1072.93,-156 1072.93,-168 1072.93,-168 1072.93,-174 1066.93,-180 1060.93,-180"/>
<text text-anchor="middle" x="1043.18" y="-157.32" font-family="Helvetica,sans-Serif" font-size="14.00">Divide</text>
</g>
<!-- FlatFieldWorkspace&#45;&gt;Divide5 -->
<g id="edge23" class="edge">
<title>FlatFieldWorkspace&#45;&gt;Divide5</title>
<path fill="none" stroke="black" d="M1115.75,-232.83C1112.32,-221.92 1106.69,-208.08 1098.18,-198 1093.83,-192.85 1088.53,-188.2 1082.95,-184.1"/>
<polygon fill="black" stroke="black" points="1084.93,-181.21 1074.68,-178.56 1081.04,-187.03 1084.93,-181.21"/>
</g>
<!-- SolventWorkspace -->
<g id="node13" class="node">
<title>SolventWorkspace</title>
<ellipse fill="khaki" stroke="black" cx="1191.18" cy="-162" rx="100.66" ry="18"/>
<text text-anchor="middle" x="1191.18" y="-157.32" font-family="Helvetica,sans-Serif" font-size="14.00">SolventWorkspace</text>
</g>
<!-- Minus3 -->
<g id="node22" class="node">
<title>Minus3</title>
<path fill="lightskyblue" stroke="black" d="M1133.81,-108C1133.81,-108 1100.56,-108 1100.56,-108 1094.56,-108 1088.56,-102 1088.56,-96 1088.56,-96 1088.56,-84 1088.56,-84 1088.56,-78 1094.56,-72 1100.56,-72 1100.56,-72 1133.81,-72 1133.81,-72 1139.81,-72 1145.81,-78 1145.81,-84 1145.81,-84 1145.81,-96 1145.81,-96 1145.81,-102 1139.81,-108 1133.81,-108"/>
<text text-anchor="middle" x="1117.18" y="-85.33" font-family="Helvetica,sans-Serif" font-size="14.00">Minus</text>
</g>
<!-- SolventWorkspace&#45;&gt;Minus3 -->
<g id="edge25" class="edge">
<title>SolventWorkspace&#45;&gt;Minus3</title>
<path fill="none" stroke="black" d="M1173.27,-144.05C1164.4,-135.67 1153.52,-125.38 1143.71,-116.1"/>
<polygon fill="black" stroke="black" points="1146.21,-113.64 1136.54,-109.32 1141.4,-118.73 1146.21,-113.64"/>
</g>
<!-- OutputWorkspace -->
<g id="node14" class="node">
<title>OutputWorkspace</title>
<polygon fill="grey" stroke="black" points="1223.02,-36 1054.65,-36 1011.34,0 1179.71,0 1223.02,-36"/>
<text text-anchor="middle" x="1117.18" y="-11.82" font-family="Times,serif" font-size="14.00">OutputWorkspace</text>
</g>
<!-- LoadAndMerge&#45;&gt;Divide -->
<g id="edge2" class="edge">
<title>LoadAndMerge&#45;&gt;Divide</title>
<path fill="none" stroke="black" d="M238.74,-1021.84C215.8,-1012.58 186.96,-1000.83 153.81,-986.89"/>
<polygon fill="black" stroke="black" points="155.35,-983.75 144.78,-983.09 152.63,-990.2 155.35,-983.75"/>
</g>
<!-- Divide&#45;&gt;Minus -->
<g id="edge4" class="edge">
<title>Divide&#45;&gt;Minus</title>
<path fill="none" stroke="black" d="M143.37,-953.98C146.34,-952.7 149.32,-951.44 152.18,-950.25 183.53,-937.17 219.32,-922.95 245.86,-912.54"/>
<polygon fill="black" stroke="black" points="246.83,-915.92 254.87,-909.01 244.28,-909.4 246.83,-915.92"/>
</g>
<!-- Minus&#45;&gt;MoveInstrumentComponent -->
<g id="edge6" class="edge">
<title>Minus&#45;&gt;MoveInstrumentComponent</title>
<path fill="none" stroke="black" d="M314.15,-879.89C331.86,-870.5 354.82,-858.32 374.58,-847.84"/>
<polygon fill="black" stroke="black" points="376.04,-851.03 383.23,-843.25 372.76,-844.85 376.04,-851.03"/>
</g>
<!-- MoveInstrumentComponent&#45;&gt;ApplyTransmissionCorrection -->
<g id="edge9" class="edge">
<title>MoveInstrumentComponent&#45;&gt;ApplyTransmissionCorrection</title>
<path fill="none" stroke="black" d="M448.4,-805.77C464.48,-796.76 484.28,-785.67 501.54,-776.01"/>
<polygon fill="black" stroke="black" points="503.02,-779.19 510.04,-771.25 499.6,-773.08 503.02,-779.19"/>
</g>
<!-- Divide2 -->
<g id="node24" class="node">
<title>Divide2</title>
<path fill="lightskyblue" stroke="black" d="M559.93,-681C559.93,-681 524.43,-681 524.43,-681 518.43,-681 512.43,-675 512.43,-669 512.43,-669 512.43,-657 512.43,-657 512.43,-651 518.43,-645 524.43,-645 524.43,-645 559.93,-645 559.93,-645 565.93,-645 571.93,-651 571.93,-657 571.93,-657 571.93,-669 571.93,-669 571.93,-675 565.93,-681 559.93,-681"/>
<text text-anchor="middle" x="542.18" y="-658.33" font-family="Helvetica,sans-Serif" font-size="14.00">Divide</text>
</g>
<!-- ApplyTransmissionCorrection&#45;&gt;Divide2 -->
<g id="edge11" class="edge">
<title>ApplyTransmissionCorrection&#45;&gt;Divide2</title>
<path fill="none" stroke="black" d="M542.18,-734.01C542.18,-722.18 542.18,-706.2 542.18,-692.5"/>
<polygon fill="black" stroke="black" points="545.68,-692.72 542.18,-682.72 538.68,-692.72 545.68,-692.72"/>
<text text-anchor="middle" x="578.93" y="-702.95" font-family="Helvetica,sans-Serif" font-size="14.00">SolidAngle</text>
</g>
<!-- ParallaxCorrection -->
<g id="node20" class="node">
<title>ParallaxCorrection</title>
<path fill="lightskyblue" stroke="black" d="M866.43,-447.75C866.43,-447.75 749.93,-447.75 749.93,-447.75 743.93,-447.75 737.93,-441.75 737.93,-435.75 737.93,-435.75 737.93,-423.75 737.93,-423.75 737.93,-417.75 743.93,-411.75 749.93,-411.75 749.93,-411.75 866.43,-411.75 866.43,-411.75 872.43,-411.75 878.43,-417.75 878.43,-423.75 878.43,-423.75 878.43,-435.75 878.43,-435.75 878.43,-441.75 872.43,-447.75 866.43,-447.75"/>
<text text-anchor="middle" x="808.18" y="-425.07" font-family="Helvetica,sans-Serif" font-size="14.00">ParallaxCorrection</text>
</g>
<!-- ParallaxCorrection&#45;&gt;Divide3 -->
<g id="edge18" class="edge">
<title>ParallaxCorrection&#45;&gt;Divide3</title>
<path fill="none" stroke="black" d="M826.36,-411.51C839.97,-398.61 858.78,-380.76 874.01,-366.32"/>
<polygon fill="black" stroke="black" points="876.1,-369.16 880.94,-359.74 871.28,-364.09 876.1,-369.16"/>
<text text-anchor="middle" x="896.68" y="-380.45" font-family="Helvetica,sans-Serif" font-size="14.00">Thickness</text>
</g>
<!-- Minus2&#45;&gt;MaskDetectors -->
<g id="edge14" class="edge">
<title>Minus2&#45;&gt;MaskDetectors</title>
<path fill="none" stroke="black" d="M666.19,-575.2C692.98,-561.53 733.18,-541.02 763.97,-525.31"/>
<polygon fill="black" stroke="black" points="765.36,-528.53 772.67,-520.87 762.17,-522.29 765.36,-528.53"/>
</g>
<!-- Minus3&#45;&gt;OutputWorkspace -->
<g id="edge26" class="edge">
<title>Minus3&#45;&gt;OutputWorkspace</title>
<path fill="none" stroke="black" d="M1117.18,-71.7C1117.18,-64.41 1117.18,-55.73 1117.18,-47.54"/>
<polygon fill="black" stroke="black" points="1120.68,-47.62 1117.18,-37.62 1113.68,-47.62 1120.68,-47.62"/>
</g>
<!-- MaskDetectors&#45;&gt;ParallaxCorrection -->
<g id="edge17" class="edge">
<title>MaskDetectors&#45;&gt;ParallaxCorrection</title>
<path fill="none" stroke="black" d="M808.18,-483.45C808.18,-476.16 808.18,-467.48 808.18,-459.29"/>
<polygon fill="black" stroke="black" points="811.68,-459.37 808.18,-449.37 804.68,-459.37 811.68,-459.37"/>
</g>
<!-- Divide2&#45;&gt;Minus2 -->
<g id="edge12" class="edge">
<title>Divide2&#45;&gt;Minus2</title>
<path fill="none" stroke="black" d="M565.66,-644.7C577.42,-636.03 591.85,-625.4 604.66,-615.96"/>
<polygon fill="black" stroke="black" points="606.45,-618.99 612.42,-610.24 602.29,-613.36 606.45,-618.99"/>
</g>
<!-- Divide3&#45;&gt;Divide4 -->
<g id="edge20" class="edge">
<title>Divide3&#45;&gt;Divide4</title>
<path fill="none" stroke="black" d="M913.42,-322.26C923.05,-309.71 936.27,-292.5 947.19,-278.28"/>
<polygon fill="black" stroke="black" points="949.73,-280.72 953.05,-270.65 944.18,-276.45 949.73,-280.72"/>
<text text-anchor="middle" x="953.81" y="-291.2" font-family="Helvetica,sans-Serif" font-size="14.00">Flux</text>
</g>
<!-- Divide4&#45;&gt;Divide5 -->
<g id="edge22" class="edge">
<title>Divide4&#45;&gt;Divide5</title>
<path fill="none" stroke="black" d="M963.23,-232.9C961.75,-222.02 961.78,-208.18 968.43,-198 976.2,-186.1 989.18,-178.16 1002.16,-172.91"/>
<polygon fill="black" stroke="black" points="1003.26,-176.23 1011.52,-169.6 1000.92,-169.63 1003.26,-176.23"/>
<text text-anchor="middle" x="1033.06" y="-201.95" font-family="Helvetica,sans-Serif" font-size="14.00">WaterOrSensitivity</text>
</g>
<!-- Divide5&#45;&gt;Minus3 -->
<g id="edge24" class="edge">
<title>Divide5&#45;&gt;Minus3</title>
<path fill="none" stroke="black" d="M1061.47,-143.7C1070.28,-135.37 1081,-125.22 1090.68,-116.07"/>
<polygon fill="black" stroke="black" points="1092.88,-118.8 1097.74,-109.39 1088.07,-113.72 1092.88,-118.8"/>
</g>
</g>
</svg>
