<?xml version="1.0" encoding="UTF-8" standalone="no"?>
<!DOCTYPE svg PUBLIC "-//W3C//DTD SVG 1.1//EN"
 "http://www.w3.org/Graphics/SVG/1.1/DTD/svg11.dtd">
<!-- Generated by graphviz version 7.0.5 (20221231.0122)
 -->
<!-- Title: Beam Pages: 1 -->
<svg width="562pt" height="836pt"
 viewBox="0.00 0.00 561.63 836.00" xmlns="http://www.w3.org/2000/svg" xmlns:xlink="http://www.w3.org/1999/xlink">
<g id="graph0" class="graph" transform="scale(1 1) rotate(0) translate(4 832)">
<title>Beam</title>
<polygon fill="white" stroke="none" points="-4,4 -4,-832 557.63,-832 557.63,4 -4,4"/>
<!-- NormaliseBy -->
<g id="node1" class="node">
<title>NormaliseBy</title>
<polygon fill="limegreen" stroke="black" points="372.53,-684 276.84,-666 372.53,-648 468.21,-666 372.53,-684"/>
<text text-anchor="middle" x="372.53" y="-662.3" font-family="Helvetica,sans-Serif" font-size="14.00">NormaliseBy</text>
</g>
<!-- Divide -->
<g id="node12" class="node">
<title>Divide</title>
<path fill="lightskyblue" stroke="black" d="M390.53,-612C390.53,-612 354.53,-612 354.53,-612 348.53,-612 342.53,-606 342.53,-600 342.53,-600 342.53,-588 342.53,-588 342.53,-582 348.53,-576 354.53,-576 354.53,-576 390.53,-576 390.53,-576 396.53,-576 402.53,-582 402.53,-588 402.53,-588 402.53,-600 402.53,-600 402.53,-606 396.53,-612 390.53,-612"/>
<text text-anchor="middle" x="372.53" y="-590.3" font-family="Helvetica,sans-Serif" font-size="14.00">Divide</text>
</g>
<!-- NormaliseBy&#45;&gt;Divide -->
<g id="edge3" class="edge">
<title>NormaliseBy&#45;&gt;Divide</title>
<path fill="none" stroke="black" d="M372.53,-647.7C372.53,-640.41 372.53,-631.73 372.53,-623.54"/>
<polygon fill="black" stroke="black" points="376.03,-623.62 372.53,-613.62 369.03,-623.62 376.03,-623.62"/>
</g>
<!-- DirectBeam -->
<g id="node2" class="node">
<title>DirectBeam</title>
<polygon fill="limegreen" stroke="black" points="285.53,-396 196.21,-378 285.53,-360 374.85,-378 285.53,-396"/>
<text text-anchor="middle" x="285.53" y="-374.3" font-family="Helvetica,sans-Serif" font-size="14.00">DirectBeam</text>
</g>
<!-- BeamCenterX -->
<g id="node6" class="node">
<title>BeamCenterX</title>
<polygon fill="grey" stroke="black" points="181.09,-324 37.03,-324 -0.03,-288 144.03,-288 181.09,-324"/>
<text text-anchor="middle" x="90.53" y="-302.3" font-family="Times,serif" font-size="14.00">BeamCenterX</text>
</g>
<!-- DirectBeam&#45;&gt;BeamCenterX -->
<g id="edge9" class="edge">
<title>DirectBeam&#45;&gt;BeamCenterX</title>
<path fill="none" stroke="black" d="M254.63,-365.91C226.5,-355.81 184.21,-340.63 149.61,-328.21"/>
<polygon fill="black" stroke="black" points="151.16,-325.05 140.56,-324.96 148.79,-331.63 151.16,-325.05"/>
</g>
<!-- BeamCenterY -->
<g id="node7" class="node">
<title>BeamCenterY</title>
<polygon fill="grey" stroke="black" points="380.09,-324 236.03,-324 198.97,-288 343.03,-288 380.09,-324"/>
<text text-anchor="middle" x="289.53" y="-302.3" font-family="Times,serif" font-size="14.00">BeamCenterY</text>
</g>
<!-- DirectBeam&#45;&gt;BeamCenterY -->
<g id="edge10" class="edge">
<title>DirectBeam&#45;&gt;BeamCenterY</title>
<path fill="none" stroke="black" d="M286.52,-359.7C286.93,-352.41 287.43,-343.73 287.9,-335.54"/>
<polygon fill="black" stroke="black" points="291.39,-335.8 288.47,-325.62 284.4,-335.4 291.39,-335.8"/>
</g>
<!-- Run -->
<g id="node3" class="node">
<title>Run</title>
<ellipse fill="khaki" stroke="black" cx="372.53" cy="-810" rx="28.7" ry="18"/>
<text text-anchor="middle" x="372.53" y="-806.3" font-family="Helvetica,sans-Serif" font-size="14.00">Run</text>
</g>
<!-- LoadAndMerge -->
<g id="node11" class="node">
<title>LoadAndMerge</title>
<path fill="lightskyblue" stroke="black" d="M420.53,-756C420.53,-756 324.53,-756 324.53,-756 318.53,-756 312.53,-750 312.53,-744 312.53,-744 312.53,-732 312.53,-732 312.53,-726 318.53,-720 324.53,-720 324.53,-720 420.53,-720 420.53,-720 426.53,-720 432.53,-726 432.53,-732 432.53,-732 432.53,-744 432.53,-744 432.53,-750 426.53,-756 420.53,-756"/>
<text text-anchor="middle" x="372.53" y="-734.3" font-family="Helvetica,sans-Serif" font-size="14.00">LoadAndMerge</text>
</g>
<!-- Run&#45;&gt;LoadAndMerge -->
<g id="edge1" class="edge">
<title>Run&#45;&gt;LoadAndMerge</title>
<path fill="none" stroke="black" d="M372.53,-791.7C372.53,-784.41 372.53,-775.73 372.53,-767.54"/>
<polygon fill="black" stroke="black" points="376.03,-767.62 372.53,-757.62 369.03,-767.62 376.03,-767.62"/>
</g>
<!-- BeamRadius -->
<g id="node4" class="node">
<title>BeamRadius</title>
<ellipse fill="khaki" stroke="black" cx="406.53" cy="-522" rx="67.69" ry="18"/>
<text text-anchor="middle" x="406.53" y="-518.3" font-family="Helvetica,sans-Serif" font-size="14.00">BeamRadius</text>
</g>
<!-- FindCenterOfMassPosition -->
<g id="node14" class="node">
<title>FindCenterOfMassPosition</title>
<path fill="lightskyblue" stroke="black" d="M372.03,-468C372.03,-468 199.03,-468 199.03,-468 193.03,-468 187.03,-462 187.03,-456 187.03,-456 187.03,-444 187.03,-444 187.03,-438 193.03,-432 199.03,-432 199.03,-432 372.03,-432 372.03,-432 378.03,-432 384.03,-438 384.03,-444 384.03,-444 384.03,-456 384.03,-456 384.03,-462 378.03,-468 372.03,-468"/>
<text text-anchor="middle" x="285.53" y="-446.3" font-family="Helvetica,sans-Serif" font-size="14.00">FindCenterOfMassPosition</text>
</g>
<!-- BeamRadius&#45;&gt;FindCenterOfMassPosition -->
<g id="edge7" class="edge">
<title>BeamRadius&#45;&gt;FindCenterOfMassPosition</title>
<path fill="none" stroke="black" d="M379.07,-505.12C363.07,-495.86 342.62,-484.03 324.92,-473.79"/>
<polygon fill="black" stroke="black" points="327.14,-471.03 316.73,-469.05 323.63,-477.09 327.14,-471.03"/>
</g>
<!-- IntegrateInRadius -->
<g id="node16" class="node">
<title>IntegrateInRadius</title>
<polygon fill="lightseagreen" stroke="black" points="416.03,-180 275.03,-180 275.03,-144 416.03,-144 416.03,-180"/>
<text text-anchor="middle" x="345.53" y="-158.3" font-family="Helvetica,sans-Serif" font-size="14.00">IntegrateInRadius</text>
</g>
<!-- BeamRadius&#45;&gt;IntegrateInRadius -->
<g id="edge13" class="edge">
<title>BeamRadius&#45;&gt;IntegrateInRadius</title>
<path fill="none" stroke="black" d="M407.74,-503.52C409.5,-476.73 412.53,-423.91 412.53,-379 412.53,-379 412.53,-379 412.53,-305 412.53,-264.55 411.96,-252 393.53,-216 388.46,-206.1 381.06,-196.64 373.58,-188.52"/>
<polygon fill="black" stroke="black" points="376.09,-186.08 366.6,-181.36 371.08,-190.97 376.09,-186.08"/>
</g>
<!-- AbsorberInputWorkspace -->
<g id="node5" class="node">
<title>AbsorberInputWorkspace</title>
<ellipse fill="khaki" stroke="black" cx="199.53" cy="-594" rx="125.38" ry="18"/>
<text text-anchor="middle" x="199.53" y="-590.3" font-family="Helvetica,sans-Serif" font-size="14.00">AbsorberInputWorkspace</text>
</g>
<!-- Minus -->
<g id="node13" class="node">
<title>Minus</title>
<path fill="lightskyblue" stroke="black" d="M302.53,-540C302.53,-540 268.53,-540 268.53,-540 262.53,-540 256.53,-534 256.53,-528 256.53,-528 256.53,-516 256.53,-516 256.53,-510 262.53,-504 268.53,-504 268.53,-504 302.53,-504 302.53,-504 308.53,-504 314.53,-510 314.53,-516 314.53,-516 314.53,-528 314.53,-528 314.53,-534 308.53,-540 302.53,-540"/>
<text text-anchor="middle" x="285.53" y="-518.3" font-family="Helvetica,sans-Serif" font-size="14.00">Minus</text>
</g>
<!-- AbsorberInputWorkspace&#45;&gt;Minus -->
<g id="edge5" class="edge">
<title>AbsorberInputWorkspace&#45;&gt;Minus</title>
<path fill="none" stroke="black" d="M220.35,-576.05C230.86,-567.5 243.81,-556.96 255.39,-547.54"/>
<polygon fill="black" stroke="black" points="257.59,-550.26 263.13,-541.23 253.17,-544.83 257.59,-550.26"/>
</g>
<!-- MoveInstrumentComponent -->
<g id="node15" class="node">
<title>MoveInstrumentComponent</title>
<path fill="lightskyblue" stroke="black" d="M372.03,-252C372.03,-252 185.03,-252 185.03,-252 179.03,-252 173.03,-246 173.03,-240 173.03,-240 173.03,-228 173.03,-228 173.03,-222 179.03,-216 185.03,-216 185.03,-216 372.03,-216 372.03,-216 378.03,-216 384.03,-222 384.03,-228 384.03,-228 384.03,-240 384.03,-240 384.03,-246 378.03,-252 372.03,-252"/>
<text text-anchor="middle" x="278.53" y="-230.3" font-family="Helvetica,sans-Serif" font-size="14.00">MoveInstrumentComponent</text>
</g>
<!-- BeamCenterX&#45;&gt;MoveInstrumentComponent -->
<g id="edge11" class="edge">
<title>BeamCenterX&#45;&gt;MoveInstrumentComponent</title>
<path fill="none" stroke="black" d="M137.48,-287.52C162.82,-278.08 194.29,-266.37 221.07,-256.39"/>
<polygon fill="black" stroke="black" points="222.28,-259.68 230.43,-252.91 219.84,-253.12 222.28,-259.68"/>
</g>
<!-- BeamCenterY&#45;&gt;MoveInstrumentComponent -->
<g id="edge12" class="edge">
<title>BeamCenterY&#45;&gt;MoveInstrumentComponent</title>
<path fill="none" stroke="black" d="M286.81,-287.7C285.65,-280.32 284.27,-271.52 282.97,-263.25"/>
<polygon fill="black" stroke="black" points="286.46,-262.93 281.45,-253.6 279.55,-264.02 286.46,-262.93"/>
</g>
<!-- BeamFluxValue -->
<g id="node8" class="node">
<title>BeamFluxValue</title>
<polygon fill="grey" stroke="black" points="337.55,-108 176.85,-108 135.51,-72 296.21,-72 337.55,-108"/>
<text text-anchor="middle" x="236.53" y="-86.3" font-family="Times,serif" font-size="14.00">BeamFluxValue</text>
</g>
<!-- OutputWorkspace -->
<g id="node10" class="node">
<title>OutputWorkspace</title>
<polygon fill="grey" stroke="black" points="454.3,-36 281.27,-36 236.76,0 409.79,0 454.3,-36"/>
<text text-anchor="middle" x="345.53" y="-14.3" font-family="Times,serif" font-size="14.00">OutputWorkspace</text>
</g>
<!-- BeamFluxValue&#45;&gt;OutputWorkspace -->
<g id="edge17" class="edge">
<title>BeamFluxValue&#45;&gt;OutputWorkspace</title>
<path fill="none" stroke="black" d="M263.75,-71.52C277.51,-62.68 294.4,-51.84 309.24,-42.3"/>
<polygon fill="black" stroke="black" points="310.86,-45.43 317.38,-37.08 307.07,-39.54 310.86,-45.43"/>
</g>
<!-- BeamFluxError -->
<g id="node9" class="node">
<title>BeamFluxError</title>
<polygon fill="grey" stroke="black" points="553.74,-108 395.92,-108 355.32,-72 513.14,-72 553.74,-108"/>
<text text-anchor="middle" x="454.53" y="-86.3" font-family="Times,serif" font-size="14.00">BeamFluxError</text>
</g>
<!-- BeamFluxError&#45;&gt;OutputWorkspace -->
<g id="edge18" class="edge">
<title>BeamFluxError&#45;&gt;OutputWorkspace</title>
<path fill="none" stroke="black" d="M427.31,-71.52C413.55,-62.68 396.66,-51.84 381.82,-42.3"/>
<polygon fill="black" stroke="black" points="383.99,-39.54 373.68,-37.08 380.2,-45.43 383.99,-39.54"/>
</g>
<!-- LoadAndMerge&#45;&gt;NormaliseBy -->
<g id="edge2" class="edge">
<title>LoadAndMerge&#45;&gt;NormaliseBy</title>
<path fill="none" stroke="black" d="M372.53,-719.7C372.53,-712.41 372.53,-703.73 372.53,-695.54"/>
<polygon fill="black" stroke="black" points="376.03,-695.62 372.53,-685.62 369.03,-695.62 376.03,-695.62"/>
</g>
<!-- Divide&#45;&gt;Minus -->
<g id="edge4" class="edge">
<title>Divide&#45;&gt;Minus</title>
<path fill="none" stroke="black" d="M351.02,-575.7C340.46,-567.2 327.55,-556.81 316,-547.51"/>
<polygon fill="black" stroke="black" points="318.25,-544.84 308.27,-541.3 313.87,-550.29 318.25,-544.84"/>
</g>
<!-- Minus&#45;&gt;FindCenterOfMassPosition -->
<g id="edge6" class="edge">
<title>Minus&#45;&gt;FindCenterOfMassPosition</title>
<path fill="none" stroke="black" d="M285.53,-503.7C285.53,-496.41 285.53,-487.73 285.53,-479.54"/>
<polygon fill="black" stroke="black" points="289.03,-479.62 285.53,-469.62 282.03,-479.62 289.03,-479.62"/>
</g>
<!-- FindCenterOfMassPosition&#45;&gt;DirectBeam -->
<g id="edge8" class="edge">
<title>FindCenterOfMassPosition&#45;&gt;DirectBeam</title>
<path fill="none" stroke="black" d="M285.53,-431.7C285.53,-424.41 285.53,-415.73 285.53,-407.54"/>
<polygon fill="black" stroke="black" points="289.03,-407.62 285.53,-397.62 282.03,-407.62 289.03,-407.62"/>
</g>
<!-- MoveInstrumentComponent&#45;&gt;IntegrateInRadius -->
<g id="edge14" class="edge">
<title>MoveInstrumentComponent&#45;&gt;IntegrateInRadius</title>
<path fill="none" stroke="black" d="M295.09,-215.7C302.96,-207.47 312.52,-197.48 321.2,-188.42"/>
<polygon fill="black" stroke="black" points="323.73,-190.84 328.11,-181.2 318.67,-186 323.73,-190.84"/>
</g>
<!-- IntegrateInRadius&#45;&gt;BeamFluxValue -->
<g id="edge15" class="edge">
<title>IntegrateInRadius&#45;&gt;BeamFluxValue</title>
<path fill="none" stroke="black" d="M318.31,-143.52C304.55,-134.68 287.66,-123.84 272.82,-114.3"/>
<polygon fill="black" stroke="black" points="274.99,-111.54 264.68,-109.08 271.2,-117.43 274.99,-111.54"/>
</g>
<!-- IntegrateInRadius&#45;&gt;BeamFluxError -->
<g id="edge16" class="edge">
<title>IntegrateInRadius&#45;&gt;BeamFluxError</title>
<path fill="none" stroke="black" d="M372.75,-143.52C386.51,-134.68 403.4,-123.84 418.24,-114.3"/>
<polygon fill="black" stroke="black" points="419.86,-117.43 426.38,-109.08 416.07,-111.54 419.86,-117.43"/>
</g>
</g>
</svg>
