<?xml version="1.0" encoding="UTF-8" standalone="no"?>
<!DOCTYPE svg PUBLIC "-//W3C//DTD SVG 1.1//EN"
 "http://www.w3.org/Graphics/SVG/1.1/DTD/svg11.dtd">
<!-- Generated by graphviz version 13.1.1 (20250720.1534)
 -->
<!-- Title: FullTreatment Pages: 1 -->
<svg width="394pt" height="476pt"
 viewBox="0.00 0.00 394.00 476.00" xmlns="http://www.w3.org/2000/svg" xmlns:xlink="http://www.w3.org/1999/xlink">
<g id="graph0" class="graph" transform="scale(1 1) rotate(0) translate(4 472)">
<title>FullTreatment</title>
<polygon fill="white" stroke="none" points="-4,4 -4,-472 390,-472 390,4 -4,4"/>
<!-- DC -->
<g id="node1" class="node">
<title>DC</title>
<ellipse fill="khaki" stroke="black" cx="204" cy="-450" rx="27" ry="18"/>
<text xml:space="preserve" text-anchor="middle" x="204" y="-445.32" font-family="Helvetica,sans-Serif" font-size="14.00">DC</text>
</g>
<!-- EB -->
<g id="node2" class="node">
<title>EB</title>
<ellipse fill="khaki" stroke="black" cx="82" cy="-378" rx="27" ry="18"/>
<text xml:space="preserve" text-anchor="middle" x="82" y="-373.32" font-family="Helvetica,sans-Serif" font-size="14.00">EB</text>
</g>
<!-- DC&#45;&gt;EB -->
<g id="edge1" class="edge">
<title>DC&#45;&gt;EB</title>
<path fill="none" stroke="black" d="M183.85,-437.44C164.22,-426.18 134.14,-408.92 111.76,-396.07"/>
<polygon fill="black" stroke="black" points="113.5,-393.04 103.08,-391.1 110.02,-399.11 113.5,-393.04"/>
</g>
<!-- TR -->
<g id="node3" class="node">
<title>TR</title>
<ellipse fill="khaki" stroke="black" cx="27" cy="-306" rx="27" ry="18"/>
<text xml:space="preserve" text-anchor="middle" x="27" y="-301.32" font-family="Helvetica,sans-Serif" font-size="14.00">TR</text>
</g>
<!-- DC&#45;&gt;TR -->
<g id="edge2" class="edge">
<title>DC&#45;&gt;TR</title>
<path fill="none" stroke="black" d="M191.42,-433.58C175.57,-414.77 146.91,-382.67 118,-360 99.48,-345.48 76.57,-332.16 58.38,-322.5"/>
<polygon fill="black" stroke="black" points="60.11,-319.46 49.62,-317.96 56.88,-325.67 60.11,-319.46"/>
</g>
<!-- EC -->
<g id="node4" class="node">
<title>EC</title>
<ellipse fill="khaki" stroke="black" cx="27" cy="-234" rx="27" ry="18"/>
<text xml:space="preserve" text-anchor="middle" x="27" y="-229.32" font-family="Helvetica,sans-Serif" font-size="14.00">EC</text>
</g>
<!-- DC&#45;&gt;EC -->
<g id="edge3" class="edge">
<title>DC&#45;&gt;EC</title>
<path fill="none" stroke="black" d="M195.63,-432.57C185.94,-414.17 168.99,-383.82 151,-360 124.47,-324.88 114.11,-319.14 83,-288 72.61,-277.6 60.83,-266.37 50.76,-256.93"/>
<polygon fill="black" stroke="black" points="53.24,-254.46 43.54,-250.2 48.47,-259.58 53.24,-254.46"/>
</g>
<!-- FF -->
<g id="node5" class="node">
<title>FF</title>
<ellipse fill="khaki" stroke="black" cx="27" cy="-162" rx="27" ry="18"/>
<text xml:space="preserve" text-anchor="middle" x="27" y="-157.32" font-family="Helvetica,sans-Serif" font-size="14.00">FF</text>
</g>
<!-- DC&#45;&gt;FF -->
<g id="edge4" class="edge">
<title>DC&#45;&gt;FF</title>
<path fill="none" stroke="black" d="M199.86,-431.93C189.16,-390.7 157.19,-284.08 98,-216 86.14,-202.36 70.22,-190.08 56.45,-180.78"/>
<polygon fill="black" stroke="black" points="58.46,-177.91 48.17,-175.39 54.64,-183.78 58.46,-177.91"/>
</g>
<!-- SB -->
<g id="node6" class="node">
<title>SB</title>
<ellipse fill="khaki" stroke="black" cx="177" cy="-90" rx="27" ry="18"/>
<text xml:space="preserve" text-anchor="middle" x="177" y="-85.33" font-family="Helvetica,sans-Serif" font-size="14.00">SB</text>
</g>
<!-- DC&#45;&gt;SB -->
<g id="edge5" class="edge">
<title>DC&#45;&gt;SB</title>
<path fill="none" stroke="black" d="M226.5,-439.45C267,-420.58 348,-374.41 348,-307 348,-307 348,-307 348,-233 348,-162.86 261.8,-120.74 211.81,-102.21"/>
<polygon fill="black" stroke="black" points="213.16,-98.97 202.56,-98.91 210.81,-105.57 213.16,-98.97"/>
</g>
<!-- SA -->
<g id="node7" class="node">
<title>SA</title>
<ellipse fill="khaki" stroke="black" cx="253" cy="-18" rx="27" ry="18"/>
<text xml:space="preserve" text-anchor="middle" x="253" y="-13.32" font-family="Helvetica,sans-Serif" font-size="14.00">SA</text>
</g>
<!-- DC&#45;&gt;SA -->
<g id="edge6" class="edge">
<title>DC&#45;&gt;SA</title>
<path fill="none" stroke="black" d="M228.92,-442.32C278.77,-427.27 386,-385.75 386,-307 386,-307 386,-307 386,-161 386,-101.78 323.61,-57.07 284.3,-34.77"/>
<polygon fill="black" stroke="black" points="286.15,-31.8 275.7,-30.06 282.79,-37.94 286.15,-31.8"/>
</g>
<!-- EB&#45;&gt;TR -->
<g id="edge7" class="edge">
<title>EB&#45;&gt;TR</title>
<path fill="none" stroke="black" d="M69.79,-361.46C62.89,-352.67 54.09,-341.48 46.27,-331.53"/>
<polygon fill="black" stroke="black" points="49.04,-329.38 40.11,-323.68 43.53,-333.71 49.04,-329.38"/>
</g>
<!-- EB&#45;&gt;EC -->
<g id="edge8" class="edge">
<title>EB&#45;&gt;EC</title>
<path fill="none" stroke="black" d="M80.3,-359.67C78.05,-341.29 73.11,-311.69 63,-288 58.75,-278.04 52.52,-267.99 46.44,-259.36"/>
<polygon fill="black" stroke="black" points="49.4,-257.48 40.65,-251.52 43.77,-261.64 49.4,-257.48"/>
</g>
<!-- EB&#45;&gt;FF -->
<g id="edge9" class="edge">
<title>EB&#45;&gt;FF</title>
<path fill="none" stroke="black" d="M85.78,-360.1C91.71,-329.74 100.45,-264.59 79,-216 73.46,-203.45 63.54,-192.18 53.84,-183.28"/>
<polygon fill="black" stroke="black" points="56.14,-180.65 46.27,-176.81 51.59,-185.97 56.14,-180.65"/>
</g>
<!-- EB&#45;&gt;SB -->
<g id="edge10" class="edge">
<title>EB&#45;&gt;SB</title>
<path fill="none" stroke="black" d="M89.91,-360.44C94.76,-350.06 100.98,-336.35 106,-324 131.61,-260.96 139.3,-245.42 158,-180 163.72,-160 168.58,-137.04 171.95,-119.45"/>
<polygon fill="black" stroke="black" points="175.37,-120.19 173.76,-109.72 168.49,-118.91 175.37,-120.19"/>
</g>
<!-- EB&#45;&gt;SA -->
<g id="edge11" class="edge">
<title>EB&#45;&gt;SA</title>
<path fill="none" stroke="black" d="M108.15,-373.28C168.04,-363.15 310,-329.2 310,-235 310,-235 310,-235 310,-161 310,-117.66 286.85,-71.88 270.05,-44.38"/>
<polygon fill="black" stroke="black" points="273.1,-42.65 264.8,-36.06 267.18,-46.38 273.1,-42.65"/>
</g>
<!-- TR&#45;&gt;EC -->
<g id="edge12" class="edge">
<title>TR&#45;&gt;EC</title>
<path fill="none" stroke="black" d="M27,-287.7C27,-280.41 27,-271.73 27,-263.54"/>
<polygon fill="black" stroke="black" points="30.5,-263.62 27,-253.62 23.5,-263.62 30.5,-263.62"/>
</g>
<!-- TR&#45;&gt;FF -->
<g id="edge13" class="edge">
<title>TR&#45;&gt;FF</title>
<path fill="none" stroke="black" d="M40.75,-290.07C48.96,-280.1 58.62,-266.25 63,-252 67.7,-236.71 67.7,-231.29 63,-216 59.82,-205.65 53.85,-195.51 47.67,-186.91"/>
<polygon fill="black" stroke="black" points="50.55,-184.91 41.67,-179.13 45.01,-189.19 50.55,-184.91"/>
</g>
<!-- TR&#45;&gt;SB -->
<g id="edge14" class="edge">
<title>TR&#45;&gt;SB</title>
<path fill="none" stroke="black" d="M42.07,-290.62C52.74,-280.21 67.18,-265.64 79,-252 105.37,-221.57 112.91,-214.3 134,-180 146.28,-160.02 157.7,-136.02 165.68,-117.97"/>
<polygon fill="black" stroke="black" points="168.81,-119.55 169.58,-108.99 162.39,-116.77 168.81,-119.55"/>
</g>
<!-- TR&#45;&gt;SA -->
<g id="edge15" class="edge">
<title>TR&#45;&gt;SA</title>
<path fill="none" stroke="black" d="M47.09,-293.66C91.12,-267.53 195.66,-198.38 239,-108 248.05,-89.12 251.47,-65.64 252.66,-47.54"/>
<polygon fill="black" stroke="black" points="256.15,-47.92 253.1,-37.77 249.16,-47.6 256.15,-47.92"/>
</g>
<!-- EC&#45;&gt;FF -->
<g id="edge16" class="edge">
<title>EC&#45;&gt;FF</title>
<path fill="none" stroke="black" d="M27,-215.7C27,-208.41 27,-199.73 27,-191.54"/>
<polygon fill="black" stroke="black" points="30.5,-191.62 27,-181.62 23.5,-191.62 30.5,-191.62"/>
</g>
<!-- EC&#45;&gt;SB -->
<g id="edge17" class="edge">
<title>EC&#45;&gt;SB</title>
<path fill="none" stroke="black" d="M42.21,-218.6C68.62,-193.6 123.12,-142.01 154.12,-112.66"/>
<polygon fill="black" stroke="black" points="156.24,-115.47 161.1,-106.05 151.43,-110.39 156.24,-115.47"/>
</g>
<!-- EC&#45;&gt;SA -->
<g id="edge18" class="edge">
<title>EC&#45;&gt;SA</title>
<path fill="none" stroke="black" d="M37.97,-217.05C65.22,-177.49 134.28,-77.64 141,-72 163.76,-52.9 194.56,-38.98 218.11,-30.21"/>
<polygon fill="black" stroke="black" points="219.02,-33.6 227.26,-26.94 216.66,-27.01 219.02,-33.6"/>
</g>
<!-- FF&#45;&gt;SB -->
<g id="edge19" class="edge">
<title>FF&#45;&gt;SB</title>
<path fill="none" stroke="black" d="M48.81,-150.82C74.03,-139.05 115.77,-119.57 144.75,-106.05"/>
<polygon fill="black" stroke="black" points="146.21,-109.23 153.79,-101.83 143.25,-102.89 146.21,-109.23"/>
</g>
<!-- FF&#45;&gt;SA -->
<g id="edge20" class="edge">
<title>FF&#45;&gt;SA</title>
<path fill="none" stroke="black" d="M54.36,-160.21C93.9,-157.68 167.28,-147.53 213,-108 231.02,-92.42 241.31,-67.1 246.93,-47.45"/>
<polygon fill="black" stroke="black" points="250.3,-48.38 249.41,-37.83 243.52,-46.64 250.3,-48.38"/>
</g>
<!-- SB&#45;&gt;SA -->
<g id="edge21" class="edge">
<title>SB&#45;&gt;SA</title>
<path fill="none" stroke="black" d="M192.38,-74.83C202.99,-65.06 217.3,-51.88 229.35,-40.78"/>
<polygon fill="black" stroke="black" points="231.55,-43.52 236.53,-34.17 226.8,-38.37 231.55,-43.52"/>
</g>
</g>
</svg>
