<?xml version="1.0" encoding="UTF-8" standalone="no"?>
<!DOCTYPE svg PUBLIC "-//W3C//DTD SVG 1.1//EN"
 "http://www.w3.org/Graphics/SVG/1.1/DTD/svg11.dtd">
<!-- Generated by graphviz version 13.0.1 (20250616.1512)
 -->
<!-- Title: Container Pages: 1 -->
<svg width="765pt" height="644pt"
 viewBox="0.00 0.00 765.00 644.00" xmlns="http://www.w3.org/2000/svg" xmlns:xlink="http://www.w3.org/1999/xlink">
<g id="graph0" class="graph" transform="scale(1 1) rotate(0) translate(4 640.25)">
<title>Container</title>
<polygon fill="white" stroke="none" points="-4,4 -4,-640.25 760.98,-640.25 760.98,4 -4,4"/>
<!-- NormaliseBy -->
<g id="node1" class="node">
<title>NormaliseBy</title>
<polygon fill="limegreen" stroke="black" points="654.8,-490.25 552.62,-472.25 654.8,-454.25 756.98,-472.25 654.8,-490.25"/>
<text xml:space="preserve" text-anchor="middle" x="654.8" y="-467.57" font-family="Helvetica,sans-Serif" font-size="14.00">NormaliseBy</text>
</g>
<!-- Divide -->
<g id="node8" class="node">
<title>Divide</title>
<path fill="lightskyblue" stroke="black" d="M672.55,-417.25C672.55,-417.25 637.05,-417.25 637.05,-417.25 631.05,-417.25 625.05,-411.25 625.05,-405.25 625.05,-405.25 625.05,-393.25 625.05,-393.25 625.05,-387.25 631.05,-381.25 637.05,-381.25 637.05,-381.25 672.55,-381.25 672.55,-381.25 678.55,-381.25 684.55,-387.25 684.55,-393.25 684.55,-393.25 684.55,-405.25 684.55,-405.25 684.55,-411.25 678.55,-417.25 672.55,-417.25"/>
<text xml:space="preserve" text-anchor="middle" x="654.8" y="-394.57" font-family="Helvetica,sans-Serif" font-size="14.00">Divide</text>
</g>
<!-- NormaliseBy&#45;&gt;Divide -->
<g id="edge3" class="edge">
<title>NormaliseBy&#45;&gt;Divide</title>
<path fill="none" stroke="black" d="M654.8,-454.06C654.8,-446.48 654.8,-437.35 654.8,-428.79"/>
<polygon fill="black" stroke="black" points="658.3,-428.79 654.8,-418.79 651.3,-428.79 658.3,-428.79"/>
</g>
<!-- Run -->
<g id="node2" class="node">
<title>Run</title>
<ellipse fill="khaki" stroke="black" cx="654.8" cy="-618.25" rx="30.16" ry="18"/>
<text xml:space="preserve" text-anchor="middle" x="654.8" y="-613.58" font-family="Helvetica,sans-Serif" font-size="14.00">Run</text>
</g>
<!-- LoadAndMerge -->
<g id="node7" class="node">
<title>LoadAndMerge</title>
<path fill="lightskyblue" stroke="black" d="M702.55,-563.25C702.55,-563.25 607.05,-563.25 607.05,-563.25 601.05,-563.25 595.05,-557.25 595.05,-551.25 595.05,-551.25 595.05,-539.25 595.05,-539.25 595.05,-533.25 601.05,-527.25 607.05,-527.25 607.05,-527.25 702.55,-527.25 702.55,-527.25 708.55,-527.25 714.55,-533.25 714.55,-539.25 714.55,-539.25 714.55,-551.25 714.55,-551.25 714.55,-557.25 708.55,-563.25 702.55,-563.25"/>
<text xml:space="preserve" text-anchor="middle" x="654.8" y="-540.58" font-family="Helvetica,sans-Serif" font-size="14.00">LoadAndMerge</text>
</g>
<!-- Run&#45;&gt;LoadAndMerge -->
<g id="edge1" class="edge">
<title>Run&#45;&gt;LoadAndMerge</title>
<path fill="none" stroke="black" d="M654.8,-600.06C654.8,-592.48 654.8,-583.35 654.8,-574.79"/>
<polygon fill="black" stroke="black" points="658.3,-574.79 654.8,-564.79 651.3,-574.79 658.3,-574.79"/>
</g>
<!-- TransmissionInputWorkspace -->
<g id="node3" class="node">
<title>TransmissionInputWorkspace</title>
<ellipse fill="khaki" stroke="black" cx="153.8" cy="-164" rx="153.8" ry="18"/>
<text xml:space="preserve" text-anchor="middle" x="153.8" y="-159.32" font-family="Helvetica,sans-Serif" font-size="14.00">TransmissionInputWorkspace</text>
</g>
<!-- ApplyTransmissionCorrection -->
<g id="node11" class="node">
<title>ApplyTransmissionCorrection</title>
<path fill="lightskyblue" stroke="black" d="M262.3,-109C262.3,-109 69.3,-109 69.3,-109 63.3,-109 57.3,-103 57.3,-97 57.3,-97 57.3,-85 57.3,-85 57.3,-79 63.3,-73 69.3,-73 69.3,-73 262.3,-73 262.3,-73 268.3,-73 274.3,-79 274.3,-85 274.3,-85 274.3,-97 274.3,-97 274.3,-103 268.3,-109 262.3,-109"/>
<text xml:space="preserve" text-anchor="middle" x="165.8" y="-86.33" font-family="Helvetica,sans-Serif" font-size="14.00">ApplyTransmissionCorrection</text>
</g>
<!-- TransmissionInputWorkspace&#45;&gt;ApplyTransmissionCorrection -->
<g id="edge10" class="edge">
<title>TransmissionInputWorkspace&#45;&gt;ApplyTransmissionCorrection</title>
<path fill="none" stroke="black" d="M156.7,-145.81C158,-138.14 159.56,-128.89 161.03,-120.24"/>
<polygon fill="black" stroke="black" points="164.45,-120.96 162.67,-110.52 157.55,-119.8 164.45,-120.96"/>
</g>
<!-- BeamInputWorkspace -->
<g id="node4" class="node">
<title>BeamInputWorkspace</title>
<ellipse fill="khaki" stroke="black" cx="358.8" cy="-326.25" rx="118.02" ry="18"/>
<text xml:space="preserve" text-anchor="middle" x="358.8" y="-321.57" font-family="Helvetica,sans-Serif" font-size="14.00">BeamInputWorkspace</text>
</g>
<!-- MoveInstrumentComponent -->
<g id="node10" class="node">
<title>MoveInstrumentComponent</title>
<path fill="lightskyblue" stroke="black" d="M463.92,-271.25C463.92,-271.25 277.67,-271.25 277.67,-271.25 271.67,-271.25 265.67,-265.25 265.67,-259.25 265.67,-259.25 265.67,-247.25 265.67,-247.25 265.67,-241.25 271.67,-235.25 277.67,-235.25 277.67,-235.25 463.92,-235.25 463.92,-235.25 469.92,-235.25 475.92,-241.25 475.92,-247.25 475.92,-247.25 475.92,-259.25 475.92,-259.25 475.92,-265.25 469.92,-271.25 463.92,-271.25"/>
<text xml:space="preserve" text-anchor="middle" x="370.8" y="-248.57" font-family="Helvetica,sans-Serif" font-size="14.00">MoveInstrumentComponent</text>
</g>
<!-- BeamInputWorkspace&#45;&gt;MoveInstrumentComponent -->
<g id="edge7" class="edge">
<title>BeamInputWorkspace&#45;&gt;MoveInstrumentComponent</title>
<path fill="none" stroke="black" d="M361.7,-308.06C363,-300.39 364.56,-291.14 366.03,-282.49"/>
<polygon fill="black" stroke="black" points="369.45,-283.21 367.67,-272.77 362.55,-282.05 369.45,-283.21"/>
</g>
<!-- AbsorberInputWorkspace -->
<g id="node5" class="node">
<title>AbsorberInputWorkspace</title>
<ellipse fill="khaki" stroke="black" cx="471.8" cy="-399.25" rx="134.86" ry="18"/>
<text xml:space="preserve" text-anchor="middle" x="471.8" y="-394.57" font-family="Helvetica,sans-Serif" font-size="14.00">AbsorberInputWorkspace</text>
</g>
<!-- Minus -->
<g id="node9" class="node">
<title>Minus</title>
<path fill="lightskyblue" stroke="black" d="M540.42,-344.25C540.42,-344.25 507.17,-344.25 507.17,-344.25 501.17,-344.25 495.17,-338.25 495.17,-332.25 495.17,-332.25 495.17,-320.25 495.17,-320.25 495.17,-314.25 501.17,-308.25 507.17,-308.25 507.17,-308.25 540.42,-308.25 540.42,-308.25 546.42,-308.25 552.42,-314.25 552.42,-320.25 552.42,-320.25 552.42,-332.25 552.42,-332.25 552.42,-338.25 546.42,-344.25 540.42,-344.25"/>
<text xml:space="preserve" text-anchor="middle" x="523.8" y="-321.57" font-family="Helvetica,sans-Serif" font-size="14.00">Minus</text>
</g>
<!-- AbsorberInputWorkspace&#45;&gt;Minus -->
<g id="edge5" class="edge">
<title>AbsorberInputWorkspace&#45;&gt;Minus</title>
<path fill="none" stroke="black" d="M484.39,-381.06C490.46,-372.78 497.87,-362.66 504.62,-353.44"/>
<polygon fill="black" stroke="black" points="507.35,-355.64 510.43,-345.5 501.7,-351.5 507.35,-355.64"/>
</g>
<!-- OutputWorkspace -->
<g id="node6" class="node">
<title>OutputWorkspace</title>
<polygon fill="grey" stroke="black" points="271.64,-36 103.27,-36 59.96,0 228.33,0 271.64,-36"/>
<text xml:space="preserve" text-anchor="middle" x="165.8" y="-11.82" font-family="Times,serif" font-size="14.00">OutputWorkspace</text>
</g>
<!-- LoadAndMerge&#45;&gt;NormaliseBy -->
<g id="edge2" class="edge">
<title>LoadAndMerge&#45;&gt;NormaliseBy</title>
<path fill="none" stroke="black" d="M654.8,-527.06C654.8,-519.48 654.8,-510.35 654.8,-501.79"/>
<polygon fill="black" stroke="black" points="658.3,-501.79 654.8,-491.79 651.3,-501.79 658.3,-501.79"/>
</g>
<!-- Divide&#45;&gt;Minus -->
<g id="edge4" class="edge">
<title>Divide&#45;&gt;Minus</title>
<path fill="none" stroke="black" d="M624.75,-381.96C606.35,-371.99 582.61,-359.13 562.78,-348.38"/>
<polygon fill="black" stroke="black" points="564.6,-345.38 554.14,-343.7 561.27,-351.54 564.6,-345.38"/>
</g>
<!-- Minus&#45;&gt;MoveInstrumentComponent -->
<g id="edge6" class="edge">
<title>Minus&#45;&gt;MoveInstrumentComponent</title>
<path fill="none" stroke="black" d="M495.02,-311.9C473.59,-301.95 443.83,-288.14 418.81,-276.53"/>
<polygon fill="black" stroke="black" points="420.34,-273.38 409.79,-272.34 417.39,-279.73 420.34,-273.38"/>
</g>
<!-- SolidAngle -->
<g id="node12" class="node">
<title>SolidAngle</title>
<path fill="lightskyblue" stroke="black" d="M403.55,-182C403.55,-182 338.05,-182 338.05,-182 332.05,-182 326.05,-176 326.05,-170 326.05,-170 326.05,-158 326.05,-158 326.05,-152 332.05,-146 338.05,-146 338.05,-146 403.55,-146 403.55,-146 409.55,-146 415.55,-152 415.55,-158 415.55,-158 415.55,-170 415.55,-170 415.55,-176 409.55,-182 403.55,-182"/>
<text xml:space="preserve" text-anchor="middle" x="370.8" y="-159.32" font-family="Helvetica,sans-Serif" font-size="14.00">SolidAngle</text>
</g>
<!-- MoveInstrumentComponent&#45;&gt;SolidAngle -->
<g id="edge8" class="edge">
<title>MoveInstrumentComponent&#45;&gt;SolidAngle</title>
<path fill="none" stroke="black" d="M370.8,-235.01C370.8,-223.18 370.8,-207.2 370.8,-193.5"/>
<polygon fill="black" stroke="black" points="374.3,-193.72 370.8,-183.72 367.3,-193.72 374.3,-193.72"/>
<text xml:space="preserve" text-anchor="middle" x="392.55" y="-203.95" font-family="Helvetica,sans-Serif" font-size="14.00">Divide</text>
</g>
<!-- ApplyTransmissionCorrection&#45;&gt;OutputWorkspace -->
<g id="edge11" class="edge">
<title>ApplyTransmissionCorrection&#45;&gt;OutputWorkspace</title>
<path fill="none" stroke="black" d="M165.8,-72.81C165.8,-65.23 165.8,-56.1 165.8,-47.54"/>
<polygon fill="black" stroke="black" points="169.3,-47.54 165.8,-37.54 162.3,-47.54 169.3,-47.54"/>
</g>
<!-- SolidAngle&#45;&gt;ApplyTransmissionCorrection -->
<g id="edge9" class="edge">
<title>SolidAngle&#45;&gt;ApplyTransmissionCorrection</title>
<path fill="none" stroke="black" d="M325.56,-147.33C296.53,-137.28 258.49,-124.1 226.8,-113.13"/>
<polygon fill="black" stroke="black" points="228.35,-109.96 217.75,-109.99 226.06,-116.57 228.35,-109.96"/>
</g>
</g>
</svg>
