<?xml version="1.0" encoding="UTF-8" standalone="no"?>
<!DOCTYPE svg PUBLIC "-//W3C//DTD SVG 1.1//EN"
 "http://www.w3.org/Graphics/SVG/1.1/DTD/svg11.dtd">
<!-- Generated by graphviz version 11.0.0 (20240519.1550)
 -->
<!-- Title: Container Pages: 1 -->
<svg width="804pt" height="565pt"
 viewBox="0.00 0.00 804.20 565.25" xmlns="http://www.w3.org/2000/svg" xmlns:xlink="http://www.w3.org/1999/xlink">
<g id="graph0" class="graph" transform="scale(1 1) rotate(0) translate(4 561.25)">
<title>Container</title>
<polygon fill="white" stroke="none" points="-4,4 -4,-561.25 800.2,-561.25 800.2,4 -4,4"/>
<!-- NormaliseBy -->
<g id="node1" class="node">
<title>NormaliseBy</title>
<polygon fill="limegreen" stroke="black" points="102.18,-485.25 0,-467.25 102.18,-449.25 204.36,-467.25 102.18,-485.25"/>
<text text-anchor="middle" x="102.18" y="-462.57" font-family="Helvetica,sans-Serif" font-size="14.00">NormaliseBy</text>
</g>
<!-- Divide -->
<g id="node9" class="node">
<title>Divide</title>
<path fill="lightskyblue" stroke="black" d="M130.93,-413.25C130.93,-413.25 95.43,-413.25 95.43,-413.25 89.43,-413.25 83.43,-407.25 83.43,-401.25 83.43,-401.25 83.43,-389.25 83.43,-389.25 83.43,-383.25 89.43,-377.25 95.43,-377.25 95.43,-377.25 130.93,-377.25 130.93,-377.25 136.93,-377.25 142.93,-383.25 142.93,-389.25 142.93,-389.25 142.93,-401.25 142.93,-401.25 142.93,-407.25 136.93,-413.25 130.93,-413.25"/>
<text text-anchor="middle" x="113.18" y="-390.57" font-family="Helvetica,sans-Serif" font-size="14.00">Divide</text>
</g>
<!-- NormaliseBy&#45;&gt;Divide -->
<g id="edge3" class="edge">
<title>NormaliseBy&#45;&gt;Divide</title>
<path fill="none" stroke="black" d="M104.84,-449.3C106,-441.93 107.39,-433.09 108.7,-424.76"/>
<polygon fill="black" stroke="black" points="112.14,-425.44 110.23,-415.02 105.22,-424.36 112.14,-425.44"/>
</g>
<!-- Runs -->
<g id="node2" class="node">
<title>Runs</title>
<ellipse fill="khaki" stroke="black" cx="282.18" cy="-539.25" rx="35.42" ry="18"/>
<text text-anchor="middle" x="282.18" y="-534.58" font-family="Helvetica,sans-Serif" font-size="14.00">Runs</text>
</g>
<!-- LoadAndMerge -->
<g id="node8" class="node">
<title>LoadAndMerge</title>
<path fill="lightskyblue" stroke="black" d="M329.93,-485.25C329.93,-485.25 234.43,-485.25 234.43,-485.25 228.43,-485.25 222.43,-479.25 222.43,-473.25 222.43,-473.25 222.43,-461.25 222.43,-461.25 222.43,-455.25 228.43,-449.25 234.43,-449.25 234.43,-449.25 329.93,-449.25 329.93,-449.25 335.93,-449.25 341.93,-455.25 341.93,-461.25 341.93,-461.25 341.93,-473.25 341.93,-473.25 341.93,-479.25 335.93,-485.25 329.93,-485.25"/>
<text text-anchor="middle" x="282.18" y="-462.57" font-family="Helvetica,sans-Serif" font-size="14.00">LoadAndMerge</text>
</g>
<!-- Runs&#45;&gt;LoadAndMerge -->
<g id="edge1" class="edge">
<title>Runs&#45;&gt;LoadAndMerge</title>
<path fill="none" stroke="black" d="M282.18,-520.95C282.18,-513.66 282.18,-504.98 282.18,-496.79"/>
<polygon fill="black" stroke="black" points="285.68,-496.87 282.18,-486.87 278.68,-496.87 285.68,-496.87"/>
</g>
<!-- BeamCenter -->
<g id="node3" class="node">
<title>BeamCenter</title>
<ellipse fill="khaki" stroke="black" cx="521.18" cy="-323.25" rx="71.73" ry="18"/>
<text text-anchor="middle" x="521.18" y="-318.57" font-family="Helvetica,sans-Serif" font-size="14.00">BeamCenter</text>
</g>
<!-- MoveInstrumentComponent -->
<g id="node11" class="node">
<title>MoveInstrumentComponent</title>
<path fill="lightskyblue" stroke="black" d="M510.31,-269.25C510.31,-269.25 324.06,-269.25 324.06,-269.25 318.06,-269.25 312.06,-263.25 312.06,-257.25 312.06,-257.25 312.06,-245.25 312.06,-245.25 312.06,-239.25 318.06,-233.25 324.06,-233.25 324.06,-233.25 510.31,-233.25 510.31,-233.25 516.31,-233.25 522.31,-239.25 522.31,-245.25 522.31,-245.25 522.31,-257.25 522.31,-257.25 522.31,-263.25 516.31,-269.25 510.31,-269.25"/>
<text text-anchor="middle" x="417.18" y="-246.57" font-family="Helvetica,sans-Serif" font-size="14.00">MoveInstrumentComponent</text>
</g>
<!-- BeamCenter&#45;&gt;MoveInstrumentComponent -->
<g id="edge8" class="edge">
<title>BeamCenter&#45;&gt;MoveInstrumentComponent</title>
<path fill="none" stroke="black" d="M496.8,-305.84C483.5,-296.89 466.81,-285.65 452.15,-275.79"/>
<polygon fill="black" stroke="black" points="454.37,-273.06 444.12,-270.38 450.46,-278.87 454.37,-273.06"/>
</g>
<!-- TransmissionWorkspace -->
<g id="node4" class="node">
<title>TransmissionWorkspace</title>
<ellipse fill="khaki" stroke="black" cx="668.18" cy="-251.25" rx="128.02" ry="18"/>
<text text-anchor="middle" x="668.18" y="-246.57" font-family="Helvetica,sans-Serif" font-size="14.00">TransmissionWorkspace</text>
</g>
<!-- ApplyTransmissionCorrection -->
<g id="node12" class="node">
<title>ApplyTransmissionCorrection</title>
<path fill="lightskyblue" stroke="black" d="M638.68,-197.25C638.68,-197.25 445.68,-197.25 445.68,-197.25 439.68,-197.25 433.68,-191.25 433.68,-185.25 433.68,-185.25 433.68,-173.25 433.68,-173.25 433.68,-167.25 439.68,-161.25 445.68,-161.25 445.68,-161.25 638.68,-161.25 638.68,-161.25 644.68,-161.25 650.68,-167.25 650.68,-173.25 650.68,-173.25 650.68,-185.25 650.68,-185.25 650.68,-191.25 644.68,-197.25 638.68,-197.25"/>
<text text-anchor="middle" x="542.18" y="-174.57" font-family="Helvetica,sans-Serif" font-size="14.00">ApplyTransmissionCorrection</text>
</g>
<!-- TransmissionWorkspace&#45;&gt;ApplyTransmissionCorrection -->
<g id="edge10" class="edge">
<title>TransmissionWorkspace&#45;&gt;ApplyTransmissionCorrection</title>
<path fill="none" stroke="black" d="M637.68,-233.3C621.21,-224.16 600.66,-212.74 582.85,-202.84"/>
<polygon fill="black" stroke="black" points="585.04,-200.06 574.6,-198.26 581.64,-206.18 585.04,-200.06"/>
</g>
<!-- DarkCurrentWorkspace -->
<g id="node5" class="node">
<title>DarkCurrentWorkspace</title>
<ellipse fill="khaki" stroke="black" cx="285.18" cy="-395.25" rx="123.81" ry="18"/>
<text text-anchor="middle" x="285.18" y="-390.57" font-family="Helvetica,sans-Serif" font-size="14.00">DarkCurrentWorkspace</text>
</g>
<!-- Minus -->
<g id="node10" class="node">
<title>Minus</title>
<path fill="lightskyblue" stroke="black" d="M301.81,-341.25C301.81,-341.25 268.56,-341.25 268.56,-341.25 262.56,-341.25 256.56,-335.25 256.56,-329.25 256.56,-329.25 256.56,-317.25 256.56,-317.25 256.56,-311.25 262.56,-305.25 268.56,-305.25 268.56,-305.25 301.81,-305.25 301.81,-305.25 307.81,-305.25 313.81,-311.25 313.81,-317.25 313.81,-317.25 313.81,-329.25 313.81,-329.25 313.81,-335.25 307.81,-341.25 301.81,-341.25"/>
<text text-anchor="middle" x="285.18" y="-318.57" font-family="Helvetica,sans-Serif" font-size="14.00">Minus</text>
</g>
<!-- DarkCurrentWorkspace&#45;&gt;Minus -->
<g id="edge5" class="edge">
<title>DarkCurrentWorkspace&#45;&gt;Minus</title>
<path fill="none" stroke="black" d="M285.18,-376.95C285.18,-369.66 285.18,-360.98 285.18,-352.79"/>
<polygon fill="black" stroke="black" points="288.68,-352.87 285.18,-342.87 281.68,-352.87 288.68,-352.87"/>
</g>
<!-- EmptyBeamWorkspace -->
<g id="node6" class="node">
<title>EmptyBeamWorkspace</title>
<ellipse fill="khaki" stroke="black" cx="551.18" cy="-395.25" rx="123.81" ry="18"/>
<text text-anchor="middle" x="551.18" y="-390.57" font-family="Helvetica,sans-Serif" font-size="14.00">EmptyBeamWorkspace</text>
</g>
<!-- EmptyBeamWorkspace&#45;&gt;BeamCenter -->
<g id="edge7" class="edge">
<title>EmptyBeamWorkspace&#45;&gt;BeamCenter</title>
<path fill="none" stroke="black" d="M543.76,-376.95C540.53,-369.4 536.66,-360.37 533.04,-351.93"/>
<polygon fill="black" stroke="black" points="536.26,-350.56 529.11,-342.75 529.83,-353.32 536.26,-350.56"/>
</g>
<!-- OutputWorkspace -->
<g id="node7" class="node">
<title>OutputWorkspace</title>
<polygon fill="grey" stroke="black" points="648.02,-36 479.65,-36 436.34,0 604.71,0 648.02,-36"/>
<text text-anchor="middle" x="542.18" y="-11.82" font-family="Times,serif" font-size="14.00">OutputWorkspace</text>
</g>
<!-- LoadAndMerge&#45;&gt;Divide -->
<g id="edge2" class="edge">
<title>LoadAndMerge&#45;&gt;Divide</title>
<path fill="none" stroke="black" d="M238.74,-448.84C215.8,-439.58 186.96,-427.83 153.81,-413.89"/>
<polygon fill="black" stroke="black" points="155.35,-410.75 144.78,-410.09 152.63,-417.2 155.35,-410.75"/>
</g>
<!-- Divide&#45;&gt;Minus -->
<g id="edge4" class="edge">
<title>Divide&#45;&gt;Minus</title>
<path fill="none" stroke="black" d="M143.37,-380.98C146.34,-379.7 149.32,-378.44 152.18,-377.25 183.53,-364.17 219.32,-349.95 245.86,-339.54"/>
<polygon fill="black" stroke="black" points="246.83,-342.92 254.87,-336.01 244.28,-336.4 246.83,-342.92"/>
</g>
<!-- Minus&#45;&gt;MoveInstrumentComponent -->
<g id="edge6" class="edge">
<title>Minus&#45;&gt;MoveInstrumentComponent</title>
<path fill="none" stroke="black" d="M314.15,-306.89C331.86,-297.5 354.82,-285.32 374.58,-274.84"/>
<polygon fill="black" stroke="black" points="376.04,-278.03 383.23,-270.25 372.76,-271.85 376.04,-278.03"/>
</g>
<!-- MoveInstrumentComponent&#45;&gt;ApplyTransmissionCorrection -->
<g id="edge9" class="edge">
<title>MoveInstrumentComponent&#45;&gt;ApplyTransmissionCorrection</title>
<path fill="none" stroke="black" d="M448.4,-232.77C464.48,-223.76 484.28,-212.67 501.54,-203.01"/>
<polygon fill="black" stroke="black" points="503.02,-206.19 510.04,-198.25 499.6,-200.08 503.02,-206.19"/>
</g>
<!-- Divide2 -->
<g id="node13" class="node">
<title>Divide2</title>
<path fill="lightskyblue" stroke="black" d="M559.93,-108C559.93,-108 524.43,-108 524.43,-108 518.43,-108 512.43,-102 512.43,-96 512.43,-96 512.43,-84 512.43,-84 512.43,-78 518.43,-72 524.43,-72 524.43,-72 559.93,-72 559.93,-72 565.93,-72 571.93,-78 571.93,-84 571.93,-84 571.93,-96 571.93,-96 571.93,-102 565.93,-108 559.93,-108"/>
<text text-anchor="middle" x="542.18" y="-85.33" font-family="Helvetica,sans-Serif" font-size="14.00">Divide</text>
</g>
<!-- ApplyTransmissionCorrection&#45;&gt;Divide2 -->
<g id="edge11" class="edge">
<title>ApplyTransmissionCorrection&#45;&gt;Divide2</title>
<path fill="none" stroke="black" d="M542.18,-161.01C542.18,-149.18 542.18,-133.2 542.18,-119.5"/>
<polygon fill="black" stroke="black" points="545.68,-119.72 542.18,-109.72 538.68,-119.72 545.68,-119.72"/>
<text text-anchor="middle" x="578.93" y="-129.95" font-family="Helvetica,sans-Serif" font-size="14.00">SolidAngle</text>
</g>
<!-- Divide2&#45;&gt;OutputWorkspace -->
<g id="edge12" class="edge">
<title>Divide2&#45;&gt;OutputWorkspace</title>
<path fill="none" stroke="black" d="M542.18,-71.7C542.18,-64.41 542.18,-55.73 542.18,-47.54"/>
<polygon fill="black" stroke="black" points="545.68,-47.62 542.18,-37.62 538.68,-47.62 545.68,-47.62"/>
</g>
</g>
</svg>
