<?xml version="1.0" encoding="UTF-8" standalone="no"?>
<!DOCTYPE svg PUBLIC "-//W3C//DTD SVG 1.1//EN"
 "http://www.w3.org/Graphics/SVG/1.1/DTD/svg11.dtd">
<!-- Generated by graphviz version 13.1.1 (20250720.1534)
 -->
<!-- Title: Sample Pages: 1 -->
<svg width="735pt" height="1172pt"
 viewBox="0.00 0.00 735.00 1172.00" xmlns="http://www.w3.org/2000/svg" xmlns:xlink="http://www.w3.org/1999/xlink">
<g id="graph0" class="graph" transform="scale(1 1) rotate(0) translate(4 1167.5)">
<title>Sample</title>
<polygon fill="white" stroke="none" points="-4,4 -4,-1167.5 730.57,-1167.5 730.57,4 -4,4"/>
<!-- NormaliseBy -->
<g id="node1" class="node">
<title>NormaliseBy</title>
<polygon fill="limegreen" stroke="black" points="414.02,-1017.5 311.84,-999.5 414.02,-981.5 516.2,-999.5 414.02,-1017.5"/>
<text xml:space="preserve" text-anchor="middle" x="414.02" y="-994.83" font-family="Helvetica,sans-Serif" font-size="14.00">NormaliseBy</text>
</g>
<!-- Divide -->
<g id="node14" class="node">
<title>Divide</title>
<path fill="lightskyblue" stroke="black" d="M431.77,-944.5C431.77,-944.5 396.27,-944.5 396.27,-944.5 390.27,-944.5 384.27,-938.5 384.27,-932.5 384.27,-932.5 384.27,-920.5 384.27,-920.5 384.27,-914.5 390.27,-908.5 396.27,-908.5 396.27,-908.5 431.77,-908.5 431.77,-908.5 437.77,-908.5 443.77,-914.5 443.77,-920.5 443.77,-920.5 443.77,-932.5 443.77,-932.5 443.77,-938.5 437.77,-944.5 431.77,-944.5"/>
<text xml:space="preserve" text-anchor="middle" x="414.02" y="-921.83" font-family="Helvetica,sans-Serif" font-size="14.00">Divide</text>
</g>
<!-- NormaliseBy&#45;&gt;Divide -->
<g id="edge3" class="edge">
<title>NormaliseBy&#45;&gt;Divide</title>
<path fill="none" stroke="black" d="M414.02,-981.31C414.02,-973.73 414.02,-964.6 414.02,-956.04"/>
<polygon fill="black" stroke="black" points="417.52,-956.04 414.02,-946.04 410.52,-956.04 417.52,-956.04"/>
</g>
<!-- AbsoluteScaleBy -->
<g id="node2" class="node">
<title>AbsoluteScaleBy</title>
<polygon fill="limegreen" stroke="black" points="301.02,-344.25 170.57,-326.25 301.02,-308.25 431.48,-326.25 301.02,-344.25"/>
<text xml:space="preserve" text-anchor="middle" x="301.02" y="-321.57" font-family="Helvetica,sans-Serif" font-size="14.00">AbsoluteScaleBy</text>
</g>
<!-- Divide2 -->
<g id="node22" class="node">
<title>Divide2</title>
<path fill="lightskyblue" stroke="black" d="M195.77,-255C195.77,-255 160.27,-255 160.27,-255 154.27,-255 148.27,-249 148.27,-243 148.27,-243 148.27,-231 148.27,-231 148.27,-225 154.27,-219 160.27,-219 160.27,-219 195.77,-219 195.77,-219 201.77,-219 207.77,-225 207.77,-231 207.77,-231 207.77,-243 207.77,-243 207.77,-249 201.77,-255 195.77,-255"/>
<text xml:space="preserve" text-anchor="middle" x="178.02" y="-232.32" font-family="Helvetica,sans-Serif" font-size="14.00">Divide</text>
</g>
<!-- AbsoluteScaleBy&#45;&gt;Divide2 -->
<g id="edge18" class="edge">
<title>AbsoluteScaleBy&#45;&gt;Divide2</title>
<path fill="none" stroke="black" d="M280.44,-310.65C261.73,-297.38 233.78,-277.55 211.81,-261.96"/>
<polygon fill="black" stroke="black" points="213.91,-259.16 203.73,-256.23 209.86,-264.87 213.91,-259.16"/>
<text xml:space="preserve" text-anchor="middle" x="287.29" y="-276.95" font-family="Helvetica,sans-Serif" font-size="14.00">Beam Flux</text>
</g>
<!-- Divide4 -->
<g id="node24" class="node">
<title>Divide4</title>
<path fill="lightskyblue" stroke="black" d="M571.77,-255C571.77,-255 536.27,-255 536.27,-255 530.27,-255 524.27,-249 524.27,-243 524.27,-243 524.27,-231 524.27,-231 524.27,-225 530.27,-219 536.27,-219 536.27,-219 571.77,-219 571.77,-219 577.77,-219 583.77,-225 583.77,-231 583.77,-231 583.77,-243 583.77,-243 583.77,-249 577.77,-255 571.77,-255"/>
<text xml:space="preserve" text-anchor="middle" x="554.02" y="-232.32" font-family="Helvetica,sans-Serif" font-size="14.00">Divide</text>
</g>
<!-- AbsoluteScaleBy&#45;&gt;Divide4 -->
<g id="edge23" class="edge">
<title>AbsoluteScaleBy&#45;&gt;Divide4</title>
<path fill="none" stroke="black" d="M333.53,-312.37C362.46,-301.16 406.06,-284.89 444.77,-273 472.95,-264.35 483.17,-265.37 513.37,-255.61"/>
<polygon fill="black" stroke="black" points="514.15,-259.04 522.5,-252.51 511.9,-252.41 514.15,-259.04"/>
<text xml:space="preserve" text-anchor="middle" x="504.4" y="-276.95" font-family="Helvetica,sans-Serif" font-size="14.00">Standard Sample</text>
</g>
<!-- Run -->
<g id="node3" class="node">
<title>Run</title>
<ellipse fill="khaki" stroke="black" cx="414.02" cy="-1145.5" rx="30.16" ry="18"/>
<text xml:space="preserve" text-anchor="middle" x="414.02" y="-1140.83" font-family="Helvetica,sans-Serif" font-size="14.00">Run</text>
</g>
<!-- LoadAndMerge -->
<g id="node13" class="node">
<title>LoadAndMerge</title>
<path fill="lightskyblue" stroke="black" d="M461.77,-1090.5C461.77,-1090.5 366.27,-1090.5 366.27,-1090.5 360.27,-1090.5 354.27,-1084.5 354.27,-1078.5 354.27,-1078.5 354.27,-1066.5 354.27,-1066.5 354.27,-1060.5 360.27,-1054.5 366.27,-1054.5 366.27,-1054.5 461.77,-1054.5 461.77,-1054.5 467.77,-1054.5 473.77,-1060.5 473.77,-1066.5 473.77,-1066.5 473.77,-1078.5 473.77,-1078.5 473.77,-1084.5 467.77,-1090.5 461.77,-1090.5"/>
<text xml:space="preserve" text-anchor="middle" x="414.02" y="-1067.83" font-family="Helvetica,sans-Serif" font-size="14.00">LoadAndMerge</text>
</g>
<!-- Run&#45;&gt;LoadAndMerge -->
<g id="edge1" class="edge">
<title>Run&#45;&gt;LoadAndMerge</title>
<path fill="none" stroke="black" d="M414.02,-1127.31C414.02,-1119.73 414.02,-1110.6 414.02,-1102.04"/>
<polygon fill="black" stroke="black" points="417.52,-1102.04 414.02,-1092.04 410.52,-1102.04 417.52,-1102.04"/>
</g>
<!-- BeamInputWorkspace -->
<g id="node4" class="node">
<title>BeamInputWorkspace</title>
<ellipse fill="khaki" stroke="black" cx="118.02" cy="-853.5" rx="118.02" ry="18"/>
<text xml:space="preserve" text-anchor="middle" x="118.02" y="-848.83" font-family="Helvetica,sans-Serif" font-size="14.00">BeamInputWorkspace</text>
</g>
<!-- MoveInstrumentComponent -->
<g id="node16" class="node">
<title>MoveInstrumentComponent</title>
<path fill="lightskyblue" stroke="black" d="M372.15,-798.5C372.15,-798.5 185.9,-798.5 185.9,-798.5 179.9,-798.5 173.9,-792.5 173.9,-786.5 173.9,-786.5 173.9,-774.5 173.9,-774.5 173.9,-768.5 179.9,-762.5 185.9,-762.5 185.9,-762.5 372.15,-762.5 372.15,-762.5 378.15,-762.5 384.15,-768.5 384.15,-774.5 384.15,-774.5 384.15,-786.5 384.15,-786.5 384.15,-792.5 378.15,-798.5 372.15,-798.5"/>
<text xml:space="preserve" text-anchor="middle" x="279.02" y="-775.83" font-family="Helvetica,sans-Serif" font-size="14.00">MoveInstrumentComponent</text>
</g>
<!-- BeamInputWorkspace&#45;&gt;MoveInstrumentComponent -->
<g id="edge7" class="edge">
<title>BeamInputWorkspace&#45;&gt;MoveInstrumentComponent</title>
<path fill="none" stroke="black" d="M155.37,-836.03C177.29,-826.36 205.29,-814.02 229.1,-803.52"/>
<polygon fill="black" stroke="black" points="230.23,-806.84 237.97,-799.6 227.41,-800.44 230.23,-806.84"/>
</g>
<!-- BeamInputWorkspace&#45;&gt;Divide2 -->
<g id="edge19" class="edge">
<title>BeamInputWorkspace&#45;&gt;Divide2</title>
<path fill="none" stroke="black" d="M127.76,-835.29C134.78,-821.27 143.02,-800.71 143.02,-781.5 143.02,-781.5 143.02,-781.5 143.02,-325.25 143.02,-303.9 152.17,-281.58 161.11,-264.86"/>
<polygon fill="black" stroke="black" points="163.93,-266.97 165.82,-256.55 157.84,-263.52 163.93,-266.97"/>
</g>
<!-- TransmissionInputWorkspace -->
<g id="node5" class="node">
<title>TransmissionInputWorkspace</title>
<ellipse fill="khaki" stroke="black" cx="496.02" cy="-691.25" rx="153.8" ry="18"/>
<text xml:space="preserve" text-anchor="middle" x="496.02" y="-686.58" font-family="Helvetica,sans-Serif" font-size="14.00">TransmissionInputWorkspace</text>
</g>
<!-- ApplyTransmissionCorrection -->
<g id="node17" class="node">
<title>ApplyTransmissionCorrection</title>
<path fill="lightskyblue" stroke="black" d="M382.52,-636.25C382.52,-636.25 189.52,-636.25 189.52,-636.25 183.52,-636.25 177.52,-630.25 177.52,-624.25 177.52,-624.25 177.52,-612.25 177.52,-612.25 177.52,-606.25 183.52,-600.25 189.52,-600.25 189.52,-600.25 382.52,-600.25 382.52,-600.25 388.52,-600.25 394.52,-606.25 394.52,-612.25 394.52,-612.25 394.52,-624.25 394.52,-624.25 394.52,-630.25 388.52,-636.25 382.52,-636.25"/>
<text xml:space="preserve" text-anchor="middle" x="286.02" y="-613.58" font-family="Helvetica,sans-Serif" font-size="14.00">ApplyTransmissionCorrection</text>
</g>
<!-- TransmissionInputWorkspace&#45;&gt;ApplyTransmissionCorrection -->
<g id="edge10" class="edge">
<title>TransmissionInputWorkspace&#45;&gt;ApplyTransmissionCorrection</title>
<path fill="none" stroke="black" d="M447.32,-673.78C417.95,-663.85 380.23,-651.1 348.65,-640.42"/>
<polygon fill="black" stroke="black" points="349.79,-637.12 339.2,-637.23 347.55,-643.75 349.79,-637.12"/>
</g>
<!-- AbsorberInputWorkspace -->
<g id="node6" class="node">
<title>AbsorberInputWorkspace</title>
<ellipse fill="khaki" stroke="black" cx="231.02" cy="-926.5" rx="134.86" ry="18"/>
<text xml:space="preserve" text-anchor="middle" x="231.02" y="-921.83" font-family="Helvetica,sans-Serif" font-size="14.00">AbsorberInputWorkspace</text>
</g>
<!-- Minus -->
<g id="node15" class="node">
<title>Minus</title>
<path fill="lightskyblue" stroke="black" d="M299.65,-871.5C299.65,-871.5 266.4,-871.5 266.4,-871.5 260.4,-871.5 254.4,-865.5 254.4,-859.5 254.4,-859.5 254.4,-847.5 254.4,-847.5 254.4,-841.5 260.4,-835.5 266.4,-835.5 266.4,-835.5 299.65,-835.5 299.65,-835.5 305.65,-835.5 311.65,-841.5 311.65,-847.5 311.65,-847.5 311.65,-859.5 311.65,-859.5 311.65,-865.5 305.65,-871.5 299.65,-871.5"/>
<text xml:space="preserve" text-anchor="middle" x="283.02" y="-848.83" font-family="Helvetica,sans-Serif" font-size="14.00">Minus</text>
</g>
<!-- AbsorberInputWorkspace&#45;&gt;Minus -->
<g id="edge5" class="edge">
<title>AbsorberInputWorkspace&#45;&gt;Minus</title>
<path fill="none" stroke="black" d="M243.61,-908.31C249.68,-900.03 257.09,-889.91 263.84,-880.69"/>
<polygon fill="black" stroke="black" points="266.57,-882.89 269.66,-872.75 260.93,-878.75 266.57,-882.89"/>
</g>
<!-- ContainerInputWorkspace -->
<g id="node7" class="node">
<title>ContainerInputWorkspace</title>
<ellipse fill="khaki" stroke="black" cx="550.02" cy="-618.25" rx="137.49" ry="18"/>
<text xml:space="preserve" text-anchor="middle" x="550.02" y="-613.58" font-family="Helvetica,sans-Serif" font-size="14.00">ContainerInputWorkspace</text>
</g>
<!-- Minus2 -->
<g id="node19" class="node">
<title>Minus2</title>
<path fill="lightskyblue" stroke="black" d="M305.65,-563.25C305.65,-563.25 272.4,-563.25 272.4,-563.25 266.4,-563.25 260.4,-557.25 260.4,-551.25 260.4,-551.25 260.4,-539.25 260.4,-539.25 260.4,-533.25 266.4,-527.25 272.4,-527.25 272.4,-527.25 305.65,-527.25 305.65,-527.25 311.65,-527.25 317.65,-533.25 317.65,-539.25 317.65,-539.25 317.65,-551.25 317.65,-551.25 317.65,-557.25 311.65,-563.25 305.65,-563.25"/>
<text xml:space="preserve" text-anchor="middle" x="289.02" y="-540.58" font-family="Helvetica,sans-Serif" font-size="14.00">Minus</text>
</g>
<!-- ContainerInputWorkspace&#45;&gt;Minus2 -->
<g id="edge12" class="edge">
<title>ContainerInputWorkspace&#45;&gt;Minus2</title>
<path fill="none" stroke="black" d="M475.22,-602.72C434.2,-593.92 382.42,-581.47 328.63,-563.48"/>
<polygon fill="black" stroke="black" points="329.88,-560.2 319.28,-560.29 327.62,-566.83 329.88,-560.2"/>
</g>
<!-- SensitivityInputWorkspace -->
<g id="node8" class="node">
<title>SensitivityInputWorkspace</title>
<ellipse fill="khaki" stroke="black" cx="366.02" cy="-237" rx="140.65" ry="18"/>
<text xml:space="preserve" text-anchor="middle" x="366.02" y="-232.32" font-family="Helvetica,sans-Serif" font-size="14.00">SensitivityInputWorkspace</text>
</g>
<!-- Divide3 -->
<g id="node23" class="node">
<title>Divide3</title>
<path fill="lightskyblue" stroke="black" d="M383.77,-182C383.77,-182 348.27,-182 348.27,-182 342.27,-182 336.27,-176 336.27,-170 336.27,-170 336.27,-158 336.27,-158 336.27,-152 342.27,-146 348.27,-146 348.27,-146 383.77,-146 383.77,-146 389.77,-146 395.77,-152 395.77,-158 395.77,-158 395.77,-170 395.77,-170 395.77,-176 389.77,-182 383.77,-182"/>
<text xml:space="preserve" text-anchor="middle" x="366.02" y="-159.32" font-family="Helvetica,sans-Serif" font-size="14.00">Divide</text>
</g>
<!-- SensitivityInputWorkspace&#45;&gt;Divide3 -->
<g id="edge21" class="edge">
<title>SensitivityInputWorkspace&#45;&gt;Divide3</title>
<path fill="none" stroke="black" d="M366.02,-218.81C366.02,-211.23 366.02,-202.1 366.02,-193.54"/>
<polygon fill="black" stroke="black" points="369.52,-193.54 366.02,-183.54 362.52,-193.54 369.52,-193.54"/>
</g>
<!-- ReferenceInputWorkspace -->
<g id="node9" class="node">
<title>ReferenceInputWorkspace</title>
<ellipse fill="khaki" stroke="black" cx="588.02" cy="-326.25" rx="138.54" ry="18"/>
<text xml:space="preserve" text-anchor="middle" x="588.02" y="-321.57" font-family="Helvetica,sans-Serif" font-size="14.00">ReferenceInputWorkspace</text>
</g>
<!-- ReferenceInputWorkspace&#45;&gt;Divide4 -->
<g id="edge24" class="edge">
<title>ReferenceInputWorkspace&#45;&gt;Divide4</title>
<path fill="none" stroke="black" d="M581.31,-308.01C576.6,-295.94 570.22,-279.56 564.81,-265.67"/>
<polygon fill="black" stroke="black" points="568.17,-264.66 561.28,-256.61 561.65,-267.2 568.17,-264.66"/>
</g>
<!-- MaskedInputWorkspace -->
<g id="node10" class="node">
<title>MaskedInputWorkspace</title>
<ellipse fill="khaki" stroke="black" cx="463.02" cy="-545.25" rx="126.97" ry="18"/>
<text xml:space="preserve" text-anchor="middle" x="463.02" y="-540.58" font-family="Helvetica,sans-Serif" font-size="14.00">MaskedInputWorkspace</text>
</g>
<!-- MaskDetectors -->
<g id="node20" class="node">
<title>MaskDetectors</title>
<path fill="lightskyblue" stroke="black" d="M347.4,-490.25C347.4,-490.25 252.65,-490.25 252.65,-490.25 246.65,-490.25 240.65,-484.25 240.65,-478.25 240.65,-478.25 240.65,-466.25 240.65,-466.25 240.65,-460.25 246.65,-454.25 252.65,-454.25 252.65,-454.25 347.4,-454.25 347.4,-454.25 353.4,-454.25 359.4,-460.25 359.4,-466.25 359.4,-466.25 359.4,-478.25 359.4,-478.25 359.4,-484.25 353.4,-490.25 347.4,-490.25"/>
<text xml:space="preserve" text-anchor="middle" x="300.02" y="-467.57" font-family="Helvetica,sans-Serif" font-size="14.00">MaskDetectors</text>
</g>
<!-- MaskedInputWorkspace&#45;&gt;MaskDetectors -->
<g id="edge14" class="edge">
<title>MaskedInputWorkspace&#45;&gt;MaskDetectors</title>
<path fill="none" stroke="black" d="M424.81,-527.6C402.59,-517.93 374.34,-505.62 350.33,-495.16"/>
<polygon fill="black" stroke="black" points="351.94,-492.05 341.38,-491.26 349.15,-498.46 351.94,-492.05"/>
</g>
<!-- SampleThickness -->
<g id="node11" class="node">
<title>SampleThickness</title>
<ellipse fill="khaki" stroke="black" cx="473.02" cy="-472.25" rx="95.93" ry="18"/>
<text xml:space="preserve" text-anchor="middle" x="473.02" y="-467.57" font-family="Helvetica,sans-Serif" font-size="14.00">SampleThickness</text>
</g>
<!-- NormaliseByThickness -->
<g id="node21" class="node">
<title>NormaliseByThickness</title>
<path fill="lightskyblue" stroke="black" d="M375.02,-417.25C375.02,-417.25 227.02,-417.25 227.02,-417.25 221.02,-417.25 215.02,-411.25 215.02,-405.25 215.02,-405.25 215.02,-393.25 215.02,-393.25 215.02,-387.25 221.02,-381.25 227.02,-381.25 227.02,-381.25 375.02,-381.25 375.02,-381.25 381.02,-381.25 387.02,-387.25 387.02,-393.25 387.02,-393.25 387.02,-405.25 387.02,-405.25 387.02,-411.25 381.02,-417.25 375.02,-417.25"/>
<text xml:space="preserve" text-anchor="middle" x="301.02" y="-394.57" font-family="Helvetica,sans-Serif" font-size="14.00">NormaliseByThickness</text>
</g>
<!-- SampleThickness&#45;&gt;NormaliseByThickness -->
<g id="edge16" class="edge">
<title>SampleThickness&#45;&gt;NormaliseByThickness</title>
<path fill="none" stroke="black" d="M434.42,-455.32C410.66,-445.51 379.87,-432.8 353.86,-422.06"/>
<polygon fill="black" stroke="black" points="355.39,-418.91 344.81,-418.33 352.72,-425.38 355.39,-418.91"/>
</g>
<!-- OutputWorkspace -->
<g id="node12" class="node">
<title>OutputWorkspace</title>
<polygon fill="grey" stroke="black" points="565.87,-36 397.49,-36 354.18,0 522.55,0 565.87,-36"/>
<text xml:space="preserve" text-anchor="middle" x="460.02" y="-11.82" font-family="Times,serif" font-size="14.00">OutputWorkspace</text>
</g>
<!-- LoadAndMerge&#45;&gt;NormaliseBy -->
<g id="edge2" class="edge">
<title>LoadAndMerge&#45;&gt;NormaliseBy</title>
<path fill="none" stroke="black" d="M414.02,-1054.31C414.02,-1046.73 414.02,-1037.6 414.02,-1029.04"/>
<polygon fill="black" stroke="black" points="417.52,-1029.04 414.02,-1019.04 410.52,-1029.04 417.52,-1029.04"/>
</g>
<!-- Divide&#45;&gt;Minus -->
<g id="edge4" class="edge">
<title>Divide&#45;&gt;Minus</title>
<path fill="none" stroke="black" d="M383.97,-909.21C365.57,-899.24 341.84,-886.38 322,-875.63"/>
<polygon fill="black" stroke="black" points="323.83,-872.63 313.37,-870.95 320.49,-878.79 323.83,-872.63"/>
</g>
<!-- Minus&#45;&gt;MoveInstrumentComponent -->
<g id="edge6" class="edge">
<title>Minus&#45;&gt;MoveInstrumentComponent</title>
<path fill="none" stroke="black" d="M282.06,-835.31C281.62,-827.64 281.1,-818.39 280.62,-809.74"/>
<polygon fill="black" stroke="black" points="284.13,-809.83 280.07,-800.04 277.14,-810.22 284.13,-809.83"/>
</g>
<!-- SolidAngle -->
<g id="node18" class="node">
<title>SolidAngle</title>
<path fill="lightskyblue" stroke="black" d="M311.77,-709.25C311.77,-709.25 246.27,-709.25 246.27,-709.25 240.27,-709.25 234.27,-703.25 234.27,-697.25 234.27,-697.25 234.27,-685.25 234.27,-685.25 234.27,-679.25 240.27,-673.25 246.27,-673.25 246.27,-673.25 311.77,-673.25 311.77,-673.25 317.77,-673.25 323.77,-679.25 323.77,-685.25 323.77,-685.25 323.77,-697.25 323.77,-697.25 323.77,-703.25 317.77,-709.25 311.77,-709.25"/>
<text xml:space="preserve" text-anchor="middle" x="279.02" y="-686.58" font-family="Helvetica,sans-Serif" font-size="14.00">SolidAngle</text>
</g>
<!-- MoveInstrumentComponent&#45;&gt;SolidAngle -->
<g id="edge8" class="edge">
<title>MoveInstrumentComponent&#45;&gt;SolidAngle</title>
<path fill="none" stroke="black" d="M279.02,-762.26C279.02,-750.43 279.02,-734.45 279.02,-720.75"/>
<polygon fill="black" stroke="black" points="282.52,-720.97 279.02,-710.97 275.52,-720.97 282.52,-720.97"/>
<text xml:space="preserve" text-anchor="middle" x="300.77" y="-731.2" font-family="Helvetica,sans-Serif" font-size="14.00">Divide</text>
</g>
<!-- ApplyTransmissionCorrection&#45;&gt;Minus2 -->
<g id="edge11" class="edge">
<title>ApplyTransmissionCorrection&#45;&gt;Minus2</title>
<path fill="none" stroke="black" d="M286.75,-600.06C287.07,-592.39 287.47,-583.14 287.83,-574.49"/>
<polygon fill="black" stroke="black" points="291.32,-574.93 288.24,-564.79 284.32,-574.63 291.32,-574.93"/>
</g>
<!-- SolidAngle&#45;&gt;ApplyTransmissionCorrection -->
<g id="edge9" class="edge">
<title>SolidAngle&#45;&gt;ApplyTransmissionCorrection</title>
<path fill="none" stroke="black" d="M280.72,-673.06C281.48,-665.39 282.39,-656.14 283.24,-647.49"/>
<polygon fill="black" stroke="black" points="286.7,-648.08 284.2,-637.79 279.73,-647.39 286.7,-648.08"/>
</g>
<!-- Minus2&#45;&gt;MaskDetectors -->
<g id="edge13" class="edge">
<title>Minus2&#45;&gt;MaskDetectors</title>
<path fill="none" stroke="black" d="M291.69,-527.06C292.88,-519.39 294.31,-510.14 295.65,-501.49"/>
<polygon fill="black" stroke="black" points="299.08,-502.19 297.15,-491.77 292.16,-501.12 299.08,-502.19"/>
</g>
<!-- MaskDetectors&#45;&gt;NormaliseByThickness -->
<g id="edge15" class="edge">
<title>MaskDetectors&#45;&gt;NormaliseByThickness</title>
<path fill="none" stroke="black" d="M300.27,-454.06C300.37,-446.48 300.5,-437.35 300.62,-428.79"/>
<polygon fill="black" stroke="black" points="304.12,-428.84 300.76,-418.79 297.12,-428.74 304.12,-428.84"/>
</g>
<!-- NormaliseByThickness&#45;&gt;AbsoluteScaleBy -->
<g id="edge17" class="edge">
<title>NormaliseByThickness&#45;&gt;AbsoluteScaleBy</title>
<path fill="none" stroke="black" d="M301.02,-381.06C301.02,-373.48 301.02,-364.35 301.02,-355.79"/>
<polygon fill="black" stroke="black" points="304.52,-355.79 301.02,-345.79 297.52,-355.79 304.52,-355.79"/>
</g>
<!-- Divide2&#45;&gt;Divide3 -->
<g id="edge20" class="edge">
<title>Divide2&#45;&gt;Divide3</title>
<path fill="none" stroke="black" d="M208.22,-222.25C210.85,-221.12 213.48,-220.03 216.02,-219 252.61,-204.26 294.94,-189.2 325.29,-178.74"/>
<polygon fill="black" stroke="black" points="326.13,-182.15 334.46,-175.59 323.86,-175.52 326.13,-182.15"/>
</g>
<!-- ScaleByFluxFactor -->
<g id="node25" class="node">
<title>ScaleByFluxFactor</title>
<polygon fill="lightseagreen" stroke="black" points="531.02,-109 389.02,-109 389.02,-73 531.02,-73 531.02,-109"/>
<text xml:space="preserve" text-anchor="middle" x="460.02" y="-86.33" font-family="Helvetica,sans-Serif" font-size="14.00">ScaleByFluxFactor</text>
</g>
<!-- Divide3&#45;&gt;ScaleByFluxFactor -->
<g id="edge22" class="edge">
<title>Divide3&#45;&gt;ScaleByFluxFactor</title>
<path fill="none" stroke="black" d="M388.78,-145.81C400.58,-136.9 415.2,-125.86 428.11,-116.1"/>
<polygon fill="black" stroke="black" points="430.08,-119.01 435.95,-110.19 425.86,-113.42 430.08,-119.01"/>
</g>
<!-- Divide4&#45;&gt;ScaleByFluxFactor -->
<g id="edge25" class="edge">
<title>Divide4&#45;&gt;ScaleByFluxFactor</title>
<path fill="none" stroke="black" d="M542.69,-218.63C526.52,-193.87 496.71,-148.21 477.66,-119.01"/>
<polygon fill="black" stroke="black" points="480.63,-117.16 472.23,-110.7 474.77,-120.99 480.63,-117.16"/>
</g>
<!-- ScaleByFluxFactor&#45;&gt;OutputWorkspace -->
<g id="edge26" class="edge">
<title>ScaleByFluxFactor&#45;&gt;OutputWorkspace</title>
<path fill="none" stroke="black" d="M460.02,-72.81C460.02,-65.23 460.02,-56.1 460.02,-47.54"/>
<polygon fill="black" stroke="black" points="463.52,-47.54 460.02,-37.54 456.52,-47.54 463.52,-47.54"/>
</g>
</g>
</svg>
