<?xml version="1.0" encoding="UTF-8" standalone="no"?>
<!DOCTYPE svg PUBLIC "-//W3C//DTD SVG 1.1//EN"
 "http://www.w3.org/Graphics/SVG/1.1/DTD/svg11.dtd">
<!-- Generated by graphviz version 7.0.5 (20221231.0122)
 -->
<!-- Title: Reference Pages: 1 -->
<svg width="1091pt" height="1122pt"
 viewBox="0.00 0.00 1091.50 1122.00" xmlns="http://www.w3.org/2000/svg" xmlns:xlink="http://www.w3.org/1999/xlink">
<g id="graph0" class="graph" transform="scale(1 1) rotate(0) translate(4 1118)">
<title>Reference</title>
<polygon fill="white" stroke="none" points="-4,4 -4,-1118 1087.5,-1118 1087.5,4 -4,4"/>
<!-- NormaliseBy -->
<g id="node1" class="node">
<title>NormaliseBy</title>
<polygon fill="limegreen" stroke="black" points="95.59,-1041 -0.09,-1023 95.59,-1005 191.28,-1023 95.59,-1041"/>
<text text-anchor="middle" x="95.59" y="-1019.3" font-family="Helvetica,sans-Serif" font-size="14.00">NormaliseBy</text>
</g>
<!-- Divide -->
<g id="node15" class="node">
<title>Divide</title>
<path fill="lightskyblue" stroke="black" d="M125.59,-968C125.59,-968 89.59,-968 89.59,-968 83.59,-968 77.59,-962 77.59,-956 77.59,-956 77.59,-944 77.59,-944 77.59,-938 83.59,-932 89.59,-932 89.59,-932 125.59,-932 125.59,-932 131.59,-932 137.59,-938 137.59,-944 137.59,-944 137.59,-956 137.59,-956 137.59,-962 131.59,-968 125.59,-968"/>
<text text-anchor="middle" x="107.59" y="-946.3" font-family="Helvetica,sans-Serif" font-size="14.00">Divide</text>
</g>
<!-- NormaliseBy&#45;&gt;Divide -->
<g id="edge3" class="edge">
<title>NormaliseBy&#45;&gt;Divide</title>
<path fill="none" stroke="black" d="M98.44,-1005.17C99.72,-997.56 101.28,-988.35 102.74,-979.7"/>
<polygon fill="black" stroke="black" points="106.18,-980.38 104.39,-969.94 99.27,-979.22 106.18,-980.38"/>
</g>
<!-- Runs -->
<g id="node2" class="node">
<title>Runs</title>
<ellipse fill="khaki" stroke="black" cx="269.59" cy="-1096" rx="33.29" ry="18"/>
<text text-anchor="middle" x="269.59" y="-1092.3" font-family="Helvetica,sans-Serif" font-size="14.00">Runs</text>
</g>
<!-- LoadAndMerge -->
<g id="node14" class="node">
<title>LoadAndMerge</title>
<path fill="lightskyblue" stroke="black" d="M317.59,-1041C317.59,-1041 221.59,-1041 221.59,-1041 215.59,-1041 209.59,-1035 209.59,-1029 209.59,-1029 209.59,-1017 209.59,-1017 209.59,-1011 215.59,-1005 221.59,-1005 221.59,-1005 317.59,-1005 317.59,-1005 323.59,-1005 329.59,-1011 329.59,-1017 329.59,-1017 329.59,-1029 329.59,-1029 329.59,-1035 323.59,-1041 317.59,-1041"/>
<text text-anchor="middle" x="269.59" y="-1019.3" font-family="Helvetica,sans-Serif" font-size="14.00">LoadAndMerge</text>
</g>
<!-- Runs&#45;&gt;LoadAndMerge -->
<g id="edge1" class="edge">
<title>Runs&#45;&gt;LoadAndMerge</title>
<path fill="none" stroke="black" d="M269.59,-1077.81C269.59,-1070.23 269.59,-1061.1 269.59,-1052.54"/>
<polygon fill="black" stroke="black" points="273.09,-1052.54 269.59,-1042.54 266.09,-1052.54 273.09,-1052.54"/>
</g>
<!-- BeamCenter -->
<g id="node3" class="node">
<title>BeamCenter</title>
<ellipse fill="khaki" stroke="black" cx="490.59" cy="-877" rx="66.89" ry="18"/>
<text text-anchor="middle" x="490.59" y="-873.3" font-family="Helvetica,sans-Serif" font-size="14.00">BeamCenter</text>
</g>
<!-- MoveInstrumentComponent -->
<g id="node17" class="node">
<title>MoveInstrumentComponent</title>
<path fill="lightskyblue" stroke="black" d="M487.09,-822C487.09,-822 300.09,-822 300.09,-822 294.09,-822 288.09,-816 288.09,-810 288.09,-810 288.09,-798 288.09,-798 288.09,-792 294.09,-786 300.09,-786 300.09,-786 487.09,-786 487.09,-786 493.09,-786 499.09,-792 499.09,-798 499.09,-798 499.09,-810 499.09,-810 499.09,-816 493.09,-822 487.09,-822"/>
<text text-anchor="middle" x="393.59" y="-800.3" font-family="Helvetica,sans-Serif" font-size="14.00">MoveInstrumentComponent</text>
</g>
<!-- BeamCenter&#45;&gt;MoveInstrumentComponent -->
<g id="edge8" class="edge">
<title>BeamCenter&#45;&gt;MoveInstrumentComponent</title>
<path fill="none" stroke="black" d="M468.58,-859.89C456.14,-850.78 440.34,-839.22 426.45,-829.05"/>
<polygon fill="black" stroke="black" points="428.57,-826.26 418.43,-823.18 424.43,-831.91 428.57,-826.26"/>
</g>
<!-- DarkCurrentWorkspace -->
<g id="node4" class="node">
<title>DarkCurrentWorkspace</title>
<ellipse fill="khaki" stroke="black" cx="270.59" cy="-950" rx="115.08" ry="18"/>
<text text-anchor="middle" x="270.59" y="-946.3" font-family="Helvetica,sans-Serif" font-size="14.00">DarkCurrentWorkspace</text>
</g>
<!-- Minus -->
<g id="node16" class="node">
<title>Minus</title>
<path fill="lightskyblue" stroke="black" d="M287.59,-895C287.59,-895 253.59,-895 253.59,-895 247.59,-895 241.59,-889 241.59,-883 241.59,-883 241.59,-871 241.59,-871 241.59,-865 247.59,-859 253.59,-859 253.59,-859 287.59,-859 287.59,-859 293.59,-859 299.59,-865 299.59,-871 299.59,-871 299.59,-883 299.59,-883 299.59,-889 293.59,-895 287.59,-895"/>
<text text-anchor="middle" x="270.59" y="-873.3" font-family="Helvetica,sans-Serif" font-size="14.00">Minus</text>
</g>
<!-- DarkCurrentWorkspace&#45;&gt;Minus -->
<g id="edge5" class="edge">
<title>DarkCurrentWorkspace&#45;&gt;Minus</title>
<path fill="none" stroke="black" d="M270.59,-931.81C270.59,-924.23 270.59,-915.1 270.59,-906.54"/>
<polygon fill="black" stroke="black" points="274.09,-906.54 270.59,-896.54 267.09,-906.54 274.09,-906.54"/>
</g>
<!-- EmptyBeamWorkspace -->
<g id="node5" class="node">
<title>EmptyBeamWorkspace</title>
<ellipse fill="khaki" stroke="black" cx="518.59" cy="-950" rx="115.08" ry="18"/>
<text text-anchor="middle" x="518.59" y="-946.3" font-family="Helvetica,sans-Serif" font-size="14.00">EmptyBeamWorkspace</text>
</g>
<!-- EmptyBeamWorkspace&#45;&gt;BeamCenter -->
<g id="edge7" class="edge">
<title>EmptyBeamWorkspace&#45;&gt;BeamCenter</title>
<path fill="none" stroke="black" d="M511.81,-931.81C508.72,-923.96 504.97,-914.47 501.5,-905.66"/>
<polygon fill="black" stroke="black" points="504.79,-904.46 497.86,-896.44 498.28,-907.02 504.79,-904.46"/>
</g>
<!-- FluxWorkspace -->
<g id="node6" class="node">
<title>FluxWorkspace</title>
<ellipse fill="khaki" stroke="black" cx="983.59" cy="-324" rx="79.09" ry="18"/>
<text text-anchor="middle" x="983.59" y="-320.3" font-family="Helvetica,sans-Serif" font-size="14.00">FluxWorkspace</text>
</g>
<!-- Divide4 -->
<g id="node25" class="node">
<title>Divide4</title>
<path fill="lightskyblue" stroke="black" d="M937.59,-255C937.59,-255 901.59,-255 901.59,-255 895.59,-255 889.59,-249 889.59,-243 889.59,-243 889.59,-231 889.59,-231 889.59,-225 895.59,-219 901.59,-219 901.59,-219 937.59,-219 937.59,-219 943.59,-219 949.59,-225 949.59,-231 949.59,-231 949.59,-243 949.59,-243 949.59,-249 943.59,-255 937.59,-255"/>
<text text-anchor="middle" x="919.59" y="-233.3" font-family="Helvetica,sans-Serif" font-size="14.00">Divide</text>
</g>
<!-- FluxWorkspace&#45;&gt;Divide4 -->
<g id="edge21" class="edge">
<title>FluxWorkspace&#45;&gt;Divide4</title>
<path fill="none" stroke="black" d="M970.64,-305.8C961.68,-293.9 949.58,-277.83 939.41,-264.32"/>
<polygon fill="black" stroke="black" points="942.47,-262.56 933.65,-256.68 936.87,-266.77 942.47,-262.56"/>
</g>
<!-- TransmissionWorkspace -->
<g id="node7" class="node">
<title>TransmissionWorkspace</title>
<ellipse fill="khaki" stroke="black" cx="635.59" cy="-804" rx="118.88" ry="18"/>
<text text-anchor="middle" x="635.59" y="-800.3" font-family="Helvetica,sans-Serif" font-size="14.00">TransmissionWorkspace</text>
</g>
<!-- ApplyTransmissionCorrection -->
<g id="node18" class="node">
<title>ApplyTransmissionCorrection</title>
<path fill="lightskyblue" stroke="black" d="M611.59,-749C611.59,-749 417.59,-749 417.59,-749 411.59,-749 405.59,-743 405.59,-737 405.59,-737 405.59,-725 405.59,-725 405.59,-719 411.59,-713 417.59,-713 417.59,-713 611.59,-713 611.59,-713 617.59,-713 623.59,-719 623.59,-725 623.59,-725 623.59,-737 623.59,-737 623.59,-743 617.59,-749 611.59,-749"/>
<text text-anchor="middle" x="514.59" y="-727.3" font-family="Helvetica,sans-Serif" font-size="14.00">ApplyTransmissionCorrection</text>
</g>
<!-- TransmissionWorkspace&#45;&gt;ApplyTransmissionCorrection -->
<g id="edge10" class="edge">
<title>TransmissionWorkspace&#45;&gt;ApplyTransmissionCorrection</title>
<path fill="none" stroke="black" d="M606.92,-786.17C591.14,-776.92 571.34,-765.3 554.12,-755.19"/>
<polygon fill="black" stroke="black" points="556.03,-752.25 545.63,-750.21 552.48,-758.29 556.03,-752.25"/>
</g>
<!-- EmptyContainerWorkspace -->
<g id="node8" class="node">
<title>EmptyContainerWorkspace</title>
<ellipse fill="khaki" stroke="black" cx="695.59" cy="-644" rx="133.48" ry="18"/>
<text text-anchor="middle" x="695.59" y="-640.3" font-family="Helvetica,sans-Serif" font-size="14.00">EmptyContainerWorkspace</text>
</g>
<!-- Minus2 -->
<g id="node20" class="node">
<title>Minus2</title>
<path fill="lightskyblue" stroke="black" d="M621.59,-589C621.59,-589 587.59,-589 587.59,-589 581.59,-589 575.59,-583 575.59,-577 575.59,-577 575.59,-565 575.59,-565 575.59,-559 581.59,-553 587.59,-553 587.59,-553 621.59,-553 621.59,-553 627.59,-553 633.59,-559 633.59,-565 633.59,-565 633.59,-577 633.59,-577 633.59,-583 627.59,-589 621.59,-589"/>
<text text-anchor="middle" x="604.59" y="-567.3" font-family="Helvetica,sans-Serif" font-size="14.00">Minus</text>
</g>
<!-- EmptyContainerWorkspace&#45;&gt;Minus2 -->
<g id="edge13" class="edge">
<title>EmptyContainerWorkspace&#45;&gt;Minus2</title>
<path fill="none" stroke="black" d="M673.56,-625.81C662.14,-616.9 647.99,-605.86 635.48,-596.1"/>
<polygon fill="black" stroke="black" points="637.96,-593.6 627.93,-590.21 633.66,-599.12 637.96,-593.6"/>
</g>
<!-- DefaultMaskWorkspace -->
<g id="node9" class="node">
<title>DefaultMaskWorkspace</title>
<ellipse fill="khaki" stroke="black" cx="767.59" cy="-571" rx="116.18" ry="18"/>
<text text-anchor="middle" x="767.59" y="-567.3" font-family="Helvetica,sans-Serif" font-size="14.00">DefaultMaskWorkspace</text>
</g>
<!-- MaskDetectors -->
<g id="node22" class="node">
<title>MaskDetectors</title>
<path fill="lightskyblue" stroke="black" d="M815.09,-502C815.09,-502 720.09,-502 720.09,-502 714.09,-502 708.09,-496 708.09,-490 708.09,-490 708.09,-478 708.09,-478 708.09,-472 714.09,-466 720.09,-466 720.09,-466 815.09,-466 815.09,-466 821.09,-466 827.09,-472 827.09,-478 827.09,-478 827.09,-490 827.09,-490 827.09,-496 821.09,-502 815.09,-502"/>
<text text-anchor="middle" x="767.59" y="-480.3" font-family="Helvetica,sans-Serif" font-size="14.00">MaskDetectors</text>
</g>
<!-- DefaultMaskWorkspace&#45;&gt;MaskDetectors -->
<g id="edge15" class="edge">
<title>DefaultMaskWorkspace&#45;&gt;MaskDetectors</title>
<path fill="none" stroke="black" d="M767.59,-552.8C767.59,-541.58 767.59,-526.67 767.59,-513.69"/>
<polygon fill="black" stroke="black" points="771.09,-513.98 767.59,-503.98 764.09,-513.98 771.09,-513.98"/>
<text text-anchor="middle" x="789.09" y="-523.8" font-family="Helvetica,sans-Serif" font-size="14.00">Edges</text>
</g>
<!-- MaskWorkspace -->
<g id="node10" class="node">
<title>MaskWorkspace</title>
<ellipse fill="khaki" stroke="black" cx="985.59" cy="-571" rx="83.39" ry="18"/>
<text text-anchor="middle" x="985.59" y="-567.3" font-family="Helvetica,sans-Serif" font-size="14.00">MaskWorkspace</text>
</g>
<!-- MaskWorkspace&#45;&gt;MaskDetectors -->
<g id="edge16" class="edge">
<title>MaskWorkspace&#45;&gt;MaskDetectors</title>
<path fill="none" stroke="black" d="M946.37,-554.71C911.86,-541.25 861.24,-521.52 822.67,-506.48"/>
<polygon fill="black" stroke="black" points="824.14,-503.29 813.55,-502.92 821.59,-509.81 824.14,-503.29"/>
<text text-anchor="middle" x="925.59" y="-523.8" font-family="Helvetica,sans-Serif" font-size="14.00">BeamStop</text>
</g>
<!-- SampleThickness -->
<g id="node11" class="node">
<title>SampleThickness</title>
<ellipse fill="khaki" stroke="black" cx="945.59" cy="-411" rx="89.08" ry="18"/>
<text text-anchor="middle" x="945.59" y="-407.3" font-family="Helvetica,sans-Serif" font-size="14.00">SampleThickness</text>
</g>
<!-- Divide3 -->
<g id="node24" class="node">
<title>Divide3</title>
<path fill="lightskyblue" stroke="black" d="M874.59,-342C874.59,-342 838.59,-342 838.59,-342 832.59,-342 826.59,-336 826.59,-330 826.59,-330 826.59,-318 826.59,-318 826.59,-312 832.59,-306 838.59,-306 838.59,-306 874.59,-306 874.59,-306 880.59,-306 886.59,-312 886.59,-318 886.59,-318 886.59,-330 886.59,-330 886.59,-336 880.59,-342 874.59,-342"/>
<text text-anchor="middle" x="856.59" y="-320.3" font-family="Helvetica,sans-Serif" font-size="14.00">Divide</text>
</g>
<!-- SampleThickness&#45;&gt;Divide3 -->
<g id="edge19" class="edge">
<title>SampleThickness&#45;&gt;Divide3</title>
<path fill="none" stroke="black" d="M928.01,-393.21C915.14,-380.91 897.45,-364.02 882.9,-350.12"/>
<polygon fill="black" stroke="black" points="885.49,-347.76 875.84,-343.39 880.66,-352.83 885.49,-347.76"/>
</g>
<!-- OutputWorkspace -->
<g id="node12" class="node">
<title>OutputWorkspace</title>
<polygon fill="grey" stroke="black" points="1028.36,-182 855.33,-182 810.82,-146 983.85,-146 1028.36,-182"/>
<text text-anchor="middle" x="919.59" y="-160.3" font-family="Times,serif" font-size="14.00">OutputWorkspace</text>
</g>
<!-- CalculateEfficiency -->
<g id="node21" class="node">
<title>CalculateEfficiency</title>
<path fill="lightskyblue" stroke="black" d="M981.09,-109C981.09,-109 858.09,-109 858.09,-109 852.09,-109 846.09,-103 846.09,-97 846.09,-97 846.09,-85 846.09,-85 846.09,-79 852.09,-73 858.09,-73 858.09,-73 981.09,-73 981.09,-73 987.09,-73 993.09,-79 993.09,-85 993.09,-85 993.09,-97 993.09,-97 993.09,-103 987.09,-109 981.09,-109"/>
<text text-anchor="middle" x="919.59" y="-87.3" font-family="Helvetica,sans-Serif" font-size="14.00">CalculateEfficiency</text>
</g>
<!-- OutputWorkspace&#45;&gt;CalculateEfficiency -->
<g id="edge23" class="edge">
<title>OutputWorkspace&#45;&gt;CalculateEfficiency</title>
<path fill="none" stroke="black" d="M919.59,-145.81C919.59,-138.23 919.59,-129.1 919.59,-120.54"/>
<polygon fill="black" stroke="black" points="923.09,-120.54 919.59,-110.54 916.09,-120.54 923.09,-120.54"/>
</g>
<!-- OutputSensitivityWorkspace -->
<g id="node13" class="node">
<title>OutputSensitivityWorkspace</title>
<polygon fill="grey" stroke="black" points="1083.4,-36 822.82,-36 755.78,0 1016.37,0 1083.4,-36"/>
<text text-anchor="middle" x="919.59" y="-14.3" font-family="Times,serif" font-size="14.00">OutputSensitivityWorkspace</text>
</g>
<!-- LoadAndMerge&#45;&gt;Divide -->
<g id="edge2" class="edge">
<title>LoadAndMerge&#45;&gt;Divide</title>
<path fill="none" stroke="black" d="M229.96,-1004.63C205.13,-993.75 173.2,-979.75 148.19,-968.79"/>
<polygon fill="black" stroke="black" points="149.88,-965.71 139.32,-964.9 147.07,-972.12 149.88,-965.71"/>
</g>
<!-- Divide&#45;&gt;Minus -->
<g id="edge4" class="edge">
<title>Divide&#45;&gt;Minus</title>
<path fill="none" stroke="black" d="M137.87,-935.81C164.08,-924.4 202.16,-907.81 230.82,-895.32"/>
<polygon fill="black" stroke="black" points="232.14,-898.57 239.91,-891.36 229.35,-892.15 232.14,-898.57"/>
</g>
<!-- Minus&#45;&gt;MoveInstrumentComponent -->
<g id="edge6" class="edge">
<title>Minus&#45;&gt;MoveInstrumentComponent</title>
<path fill="none" stroke="black" d="M300.05,-858.99C316.09,-849.73 336.17,-838.15 353.61,-828.08"/>
<polygon fill="black" stroke="black" points="355.29,-831.15 362.21,-823.12 351.8,-825.09 355.29,-831.15"/>
</g>
<!-- MoveInstrumentComponent&#45;&gt;ApplyTransmissionCorrection -->
<g id="edge9" class="edge">
<title>MoveInstrumentComponent&#45;&gt;ApplyTransmissionCorrection</title>
<path fill="none" stroke="black" d="M423.19,-785.63C438.87,-776.43 458.32,-765.02 475.25,-755.08"/>
<polygon fill="black" stroke="black" points="476.72,-758.28 483.57,-750.2 473.18,-752.24 476.72,-758.28"/>
</g>
<!-- Divide2 -->
<g id="node23" class="node">
<title>Divide2</title>
<path fill="lightskyblue" stroke="black" d="M532.59,-662C532.59,-662 496.59,-662 496.59,-662 490.59,-662 484.59,-656 484.59,-650 484.59,-650 484.59,-638 484.59,-638 484.59,-632 490.59,-626 496.59,-626 496.59,-626 532.59,-626 532.59,-626 538.59,-626 544.59,-632 544.59,-638 544.59,-638 544.59,-650 544.59,-650 544.59,-656 538.59,-662 532.59,-662"/>
<text text-anchor="middle" x="514.59" y="-640.3" font-family="Helvetica,sans-Serif" font-size="14.00">Divide</text>
</g>
<!-- ApplyTransmissionCorrection&#45;&gt;Divide2 -->
<g id="edge11" class="edge">
<title>ApplyTransmissionCorrection&#45;&gt;Divide2</title>
<path fill="none" stroke="black" d="M514.59,-712.8C514.59,-701.58 514.59,-686.67 514.59,-673.69"/>
<polygon fill="black" stroke="black" points="518.09,-673.98 514.59,-663.98 511.09,-673.98 518.09,-673.98"/>
<text text-anchor="middle" x="551.59" y="-683.8" font-family="Helvetica,sans-Serif" font-size="14.00">SolidAngle</text>
</g>
<!-- ParallaxCorrection -->
<g id="node19" class="node">
<title>ParallaxCorrection</title>
<path fill="lightskyblue" stroke="black" d="M826.09,-429C826.09,-429 709.09,-429 709.09,-429 703.09,-429 697.09,-423 697.09,-417 697.09,-417 697.09,-405 697.09,-405 697.09,-399 703.09,-393 709.09,-393 709.09,-393 826.09,-393 826.09,-393 832.09,-393 838.09,-399 838.09,-405 838.09,-405 838.09,-417 838.09,-417 838.09,-423 832.09,-429 826.09,-429"/>
<text text-anchor="middle" x="767.59" y="-407.3" font-family="Helvetica,sans-Serif" font-size="14.00">ParallaxCorrection</text>
</g>
<!-- ParallaxCorrection&#45;&gt;Divide3 -->
<g id="edge18" class="edge">
<title>ParallaxCorrection&#45;&gt;Divide3</title>
<path fill="none" stroke="black" d="M785.6,-392.8C798.43,-380.55 815.86,-363.9 830.25,-350.16"/>
<polygon fill="black" stroke="black" points="832.39,-352.95 837.21,-343.51 827.56,-347.89 832.39,-352.95"/>
<text text-anchor="middle" x="851.59" y="-363.8" font-family="Helvetica,sans-Serif" font-size="14.00">Thickness</text>
</g>
<!-- Minus2&#45;&gt;MaskDetectors -->
<g id="edge14" class="edge">
<title>Minus2&#45;&gt;MaskDetectors</title>
<path fill="none" stroke="black" d="M633.73,-554.8C658.85,-541.7 695.48,-522.6 724.07,-507.69"/>
<polygon fill="black" stroke="black" points="725.62,-510.84 732.87,-503.11 722.38,-504.63 725.62,-510.84"/>
</g>
<!-- CalculateEfficiency&#45;&gt;OutputSensitivityWorkspace -->
<g id="edge24" class="edge">
<title>CalculateEfficiency&#45;&gt;OutputSensitivityWorkspace</title>
<path fill="none" stroke="black" d="M919.59,-72.81C919.59,-65.23 919.59,-56.1 919.59,-47.54"/>
<polygon fill="black" stroke="black" points="923.09,-47.54 919.59,-37.54 916.09,-47.54 923.09,-47.54"/>
</g>
<!-- MaskDetectors&#45;&gt;ParallaxCorrection -->
<g id="edge17" class="edge">
<title>MaskDetectors&#45;&gt;ParallaxCorrection</title>
<path fill="none" stroke="black" d="M767.59,-465.81C767.59,-458.23 767.59,-449.1 767.59,-440.54"/>
<polygon fill="black" stroke="black" points="771.09,-440.54 767.59,-430.54 764.09,-440.54 771.09,-440.54"/>
</g>
<!-- Divide2&#45;&gt;Minus2 -->
<g id="edge12" class="edge">
<title>Divide2&#45;&gt;Minus2</title>
<path fill="none" stroke="black" d="M536.38,-625.81C547.57,-616.98 561.4,-606.07 573.68,-596.39"/>
<polygon fill="black" stroke="black" points="575.82,-599.15 581.51,-590.21 571.49,-593.66 575.82,-599.15"/>
</g>
<!-- Divide3&#45;&gt;Divide4 -->
<g id="edge20" class="edge">
<title>Divide3&#45;&gt;Divide4</title>
<path fill="none" stroke="black" d="M869.34,-305.8C878.08,-294.01 889.84,-278.14 899.79,-264.72"/>
<polygon fill="black" stroke="black" points="902.6,-266.8 905.74,-256.68 896.98,-262.63 902.6,-266.8"/>
<text text-anchor="middle" x="906.59" y="-276.8" font-family="Helvetica,sans-Serif" font-size="14.00">Flux</text>
</g>
<!-- Divide4&#45;&gt;OutputWorkspace -->
<g id="edge22" class="edge">
<title>Divide4&#45;&gt;OutputWorkspace</title>
<path fill="none" stroke="black" d="M919.59,-218.81C919.59,-211.23 919.59,-202.1 919.59,-193.54"/>
<polygon fill="black" stroke="black" points="923.09,-193.54 919.59,-183.54 916.09,-193.54 923.09,-193.54"/>
</g>
</g>
</svg>
