<?xml version="1.0" encoding="UTF-8" standalone="no"?>
<!DOCTYPE svg PUBLIC "-//W3C//DTD SVG 1.1//EN"
 "http://www.w3.org/Graphics/SVG/1.1/DTD/svg11.dtd">
<!-- Generated by graphviz version 11.0.0 (20240519.1550)
 -->
<!-- Title: Transmission Pages: 1 -->
<svg width="824pt" height="620pt"
 viewBox="0.00 0.00 824.09 620.00" xmlns="http://www.w3.org/2000/svg" xmlns:xlink="http://www.w3.org/1999/xlink">
<g id="graph0" class="graph" transform="scale(1 1) rotate(0) translate(4 616)">
<title>Transmission</title>
<polygon fill="white" stroke="none" points="-4,4 -4,-616 820.09,-616 820.09,4 -4,4"/>
<!-- NormaliseBy -->
<g id="node1" class="node">
<title>NormaliseBy</title>
<polygon fill="limegreen" stroke="black" points="102.18,-468 0,-450 102.18,-432 204.36,-450 102.18,-468"/>
<text text-anchor="middle" x="102.18" y="-445.32" font-family="Helvetica,sans-Serif" font-size="14.00">NormaliseBy</text>
</g>
<!-- Divide -->
<g id="node11" class="node">
<title>Divide</title>
<path fill="lightskyblue" stroke="black" d="M207.93,-396C207.93,-396 172.43,-396 172.43,-396 166.43,-396 160.43,-390 160.43,-384 160.43,-384 160.43,-372 160.43,-372 160.43,-366 166.43,-360 172.43,-360 172.43,-360 207.93,-360 207.93,-360 213.93,-360 219.93,-366 219.93,-372 219.93,-372 219.93,-384 219.93,-384 219.93,-390 213.93,-396 207.93,-396"/>
<text text-anchor="middle" x="190.18" y="-373.32" font-family="Helvetica,sans-Serif" font-size="14.00">Divide</text>
</g>
<!-- NormaliseBy&#45;&gt;Divide -->
<g id="edge4" class="edge">
<title>NormaliseBy&#45;&gt;Divide</title>
<path fill="none" stroke="black" d="M119.99,-434.83C131.33,-425.81 146.33,-413.88 159.55,-403.37"/>
<polygon fill="black" stroke="black" points="161.51,-406.27 167.16,-397.31 157.16,-400.8 161.51,-406.27"/>
</g>
<!-- Runs -->
<g id="node2" class="node">
<title>Runs</title>
<ellipse fill="khaki" stroke="black" cx="278.18" cy="-594" rx="35.42" ry="18"/>
<text text-anchor="middle" x="278.18" y="-589.33" font-family="Helvetica,sans-Serif" font-size="14.00">Runs</text>
</g>
<!-- LoadAndMerge -->
<g id="node9" class="node">
<title>LoadAndMerge</title>
<path fill="lightskyblue" stroke="black" d="M325.93,-540C325.93,-540 230.43,-540 230.43,-540 224.43,-540 218.43,-534 218.43,-528 218.43,-528 218.43,-516 218.43,-516 218.43,-510 224.43,-504 230.43,-504 230.43,-504 325.93,-504 325.93,-504 331.93,-504 337.93,-510 337.93,-516 337.93,-516 337.93,-528 337.93,-528 337.93,-534 331.93,-540 325.93,-540"/>
<text text-anchor="middle" x="278.18" y="-517.33" font-family="Helvetica,sans-Serif" font-size="14.00">LoadAndMerge</text>
</g>
<!-- Runs&#45;&gt;LoadAndMerge -->
<g id="edge1" class="edge">
<title>Runs&#45;&gt;LoadAndMerge</title>
<path fill="none" stroke="black" d="M278.18,-575.7C278.18,-568.41 278.18,-559.73 278.18,-551.54"/>
<polygon fill="black" stroke="black" points="281.68,-551.62 278.18,-541.62 274.68,-551.62 281.68,-551.62"/>
</g>
<!-- BeamCenter -->
<g id="node3" class="node">
<title>BeamCenter</title>
<ellipse fill="khaki" stroke="black" cx="554.18" cy="-306" rx="71.73" ry="18"/>
<text text-anchor="middle" x="554.18" y="-301.32" font-family="Helvetica,sans-Serif" font-size="14.00">BeamCenter</text>
</g>
<!-- MoveInstrumentComponent -->
<g id="node13" class="node">
<title>MoveInstrumentComponent</title>
<path fill="lightskyblue" stroke="black" d="M514.31,-252C514.31,-252 328.06,-252 328.06,-252 322.06,-252 316.06,-246 316.06,-240 316.06,-240 316.06,-228 316.06,-228 316.06,-222 322.06,-216 328.06,-216 328.06,-216 514.31,-216 514.31,-216 520.31,-216 526.31,-222 526.31,-228 526.31,-228 526.31,-240 526.31,-240 526.31,-246 520.31,-252 514.31,-252"/>
<text text-anchor="middle" x="421.18" y="-229.32" font-family="Helvetica,sans-Serif" font-size="14.00">MoveInstrumentComponent</text>
</g>
<!-- BeamCenter&#45;&gt;MoveInstrumentComponent -->
<g id="edge9" class="edge">
<title>BeamCenter&#45;&gt;MoveInstrumentComponent</title>
<path fill="none" stroke="black" d="M524.33,-289.29C506.59,-279.95 483.79,-267.95 464.14,-257.61"/>
<polygon fill="black" stroke="black" points="466.01,-254.64 455.53,-253.08 462.75,-260.84 466.01,-254.64"/>
</g>
<!-- TransmissionBeamRadius -->
<g id="node4" class="node">
<title>TransmissionBeamRadius</title>
<ellipse fill="khaki" stroke="black" cx="680.18" cy="-234" rx="135.91" ry="18"/>
<text text-anchor="middle" x="680.18" y="-229.32" font-family="Helvetica,sans-Serif" font-size="14.00">TransmissionBeamRadius</text>
</g>
<!-- CalculateFlux -->
<g id="node14" class="node">
<title>CalculateFlux</title>
<path fill="lightskyblue" stroke="black" d="M592.68,-180C592.68,-180 507.68,-180 507.68,-180 501.68,-180 495.68,-174 495.68,-168 495.68,-168 495.68,-156 495.68,-156 495.68,-150 501.68,-144 507.68,-144 507.68,-144 592.68,-144 592.68,-144 598.68,-144 604.68,-150 604.68,-156 604.68,-156 604.68,-168 604.68,-168 604.68,-174 598.68,-180 592.68,-180"/>
<text text-anchor="middle" x="550.18" y="-157.32" font-family="Helvetica,sans-Serif" font-size="14.00">CalculateFlux</text>
</g>
<!-- TransmissionBeamRadius&#45;&gt;CalculateFlux -->
<g id="edge11" class="edge">
<title>TransmissionBeamRadius&#45;&gt;CalculateFlux</title>
<path fill="none" stroke="black" d="M648.71,-216.05C631.8,-206.95 610.71,-195.59 592.39,-185.73"/>
<polygon fill="black" stroke="black" points="594.06,-182.65 583.6,-180.99 590.74,-188.82 594.06,-182.65"/>
</g>
<!-- DarkCurrentWorkspace -->
<g id="node5" class="node">
<title>DarkCurrentWorkspace</title>
<ellipse fill="khaki" stroke="black" cx="362.18" cy="-378" rx="123.81" ry="18"/>
<text text-anchor="middle" x="362.18" y="-373.32" font-family="Helvetica,sans-Serif" font-size="14.00">DarkCurrentWorkspace</text>
</g>
<!-- Minus -->
<g id="node12" class="node">
<title>Minus</title>
<path fill="lightskyblue" stroke="black" d="M378.81,-324C378.81,-324 345.56,-324 345.56,-324 339.56,-324 333.56,-318 333.56,-312 333.56,-312 333.56,-300 333.56,-300 333.56,-294 339.56,-288 345.56,-288 345.56,-288 378.81,-288 378.81,-288 384.81,-288 390.81,-294 390.81,-300 390.81,-300 390.81,-312 390.81,-312 390.81,-318 384.81,-324 378.81,-324"/>
<text text-anchor="middle" x="362.18" y="-301.32" font-family="Helvetica,sans-Serif" font-size="14.00">Minus</text>
</g>
<!-- DarkCurrentWorkspace&#45;&gt;Minus -->
<g id="edge6" class="edge">
<title>DarkCurrentWorkspace&#45;&gt;Minus</title>
<path fill="none" stroke="black" d="M362.18,-359.7C362.18,-352.41 362.18,-343.73 362.18,-335.54"/>
<polygon fill="black" stroke="black" points="365.68,-335.62 362.18,-325.62 358.68,-335.62 365.68,-335.62"/>
</g>
<!-- EmptyBeamWorkspace -->
<g id="node6" class="node">
<title>EmptyBeamWorkspace</title>
<ellipse fill="khaki" stroke="black" cx="628.18" cy="-378" rx="123.81" ry="18"/>
<text text-anchor="middle" x="628.18" y="-373.32" font-family="Helvetica,sans-Serif" font-size="14.00">EmptyBeamWorkspace</text>
</g>
<!-- EmptyBeamWorkspace&#45;&gt;BeamCenter -->
<g id="edge8" class="edge">
<title>EmptyBeamWorkspace&#45;&gt;BeamCenter</title>
<path fill="none" stroke="black" d="M610.27,-360.05C601.27,-351.54 590.2,-341.07 580.27,-331.68"/>
<polygon fill="black" stroke="black" points="582.7,-329.16 573.03,-324.83 577.89,-334.24 582.7,-329.16"/>
</g>
<!-- FluxWorkspace -->
<g id="node7" class="node">
<title>FluxWorkspace</title>
<ellipse fill="khaki" stroke="black" cx="707.18" cy="-162" rx="84.88" ry="18"/>
<text text-anchor="middle" x="707.18" y="-157.32" font-family="Helvetica,sans-Serif" font-size="14.00">FluxWorkspace</text>
</g>
<!-- Divide2 -->
<g id="node15" class="node">
<title>Divide2</title>
<path fill="lightskyblue" stroke="black" d="M645.93,-108C645.93,-108 610.43,-108 610.43,-108 604.43,-108 598.43,-102 598.43,-96 598.43,-96 598.43,-84 598.43,-84 598.43,-78 604.43,-72 610.43,-72 610.43,-72 645.93,-72 645.93,-72 651.93,-72 657.93,-78 657.93,-84 657.93,-84 657.93,-96 657.93,-96 657.93,-102 651.93,-108 645.93,-108"/>
<text text-anchor="middle" x="628.18" y="-85.33" font-family="Helvetica,sans-Serif" font-size="14.00">Divide</text>
</g>
<!-- FluxWorkspace&#45;&gt;Divide2 -->
<g id="edge13" class="edge">
<title>FluxWorkspace&#45;&gt;Divide2</title>
<path fill="none" stroke="black" d="M688.06,-144.05C678.5,-135.58 666.74,-125.17 656.19,-115.82"/>
<polygon fill="black" stroke="black" points="658.62,-113.29 648.81,-109.28 653.97,-118.53 658.62,-113.29"/>
</g>
<!-- OutputWorkspace -->
<g id="node8" class="node">
<title>OutputWorkspace</title>
<polygon fill="grey" stroke="black" points="734.02,-36 565.65,-36 522.34,0 690.71,0 734.02,-36"/>
<text text-anchor="middle" x="628.18" y="-11.82" font-family="Times,serif" font-size="14.00">OutputWorkspace</text>
</g>
<!-- ConjoinXRuns -->
<g id="node10" class="node">
<title>ConjoinXRuns</title>
<path fill="lightskyblue" stroke="black" d="M322.18,-468C322.18,-468 234.18,-468 234.18,-468 228.18,-468 222.18,-462 222.18,-456 222.18,-456 222.18,-444 222.18,-444 222.18,-438 228.18,-432 234.18,-432 234.18,-432 322.18,-432 322.18,-432 328.18,-432 334.18,-438 334.18,-444 334.18,-444 334.18,-456 334.18,-456 334.18,-462 328.18,-468 322.18,-468"/>
<text text-anchor="middle" x="278.18" y="-445.32" font-family="Helvetica,sans-Serif" font-size="14.00">ConjoinXRuns</text>
</g>
<!-- LoadAndMerge&#45;&gt;ConjoinXRuns -->
<g id="edge2" class="edge">
<title>LoadAndMerge&#45;&gt;ConjoinXRuns</title>
<path fill="none" stroke="black" d="M278.18,-503.7C278.18,-496.41 278.18,-487.73 278.18,-479.54"/>
<polygon fill="black" stroke="black" points="281.68,-479.62 278.18,-469.62 274.68,-479.62 281.68,-479.62"/>
</g>
<!-- ConjoinXRuns&#45;&gt;Divide -->
<g id="edge3" class="edge">
<title>ConjoinXRuns&#45;&gt;Divide</title>
<path fill="none" stroke="black" d="M256.43,-431.7C245.74,-423.2 232.69,-412.81 221,-403.51"/>
<polygon fill="black" stroke="black" points="223.18,-400.78 213.17,-397.29 218.82,-406.25 223.18,-400.78"/>
</g>
<!-- Divide&#45;&gt;Minus -->
<g id="edge5" class="edge">
<title>Divide&#45;&gt;Minus</title>
<path fill="none" stroke="black" d="M220.37,-363.73C223.34,-362.45 226.32,-361.19 229.18,-360 260.53,-346.92 296.32,-332.7 322.86,-322.29"/>
<polygon fill="black" stroke="black" points="323.83,-325.67 331.87,-318.76 321.28,-319.15 323.83,-325.67"/>
</g>
<!-- Minus&#45;&gt;MoveInstrumentComponent -->
<g id="edge7" class="edge">
<title>Minus&#45;&gt;MoveInstrumentComponent</title>
<path fill="none" stroke="black" d="M376.76,-287.7C383.62,-279.56 391.94,-269.69 399.52,-260.7"/>
<polygon fill="black" stroke="black" points="402.02,-263.16 405.79,-253.26 396.67,-258.65 402.02,-263.16"/>
</g>
<!-- MoveInstrumentComponent&#45;&gt;CalculateFlux -->
<g id="edge10" class="edge">
<title>MoveInstrumentComponent&#45;&gt;CalculateFlux</title>
<path fill="none" stroke="black" d="M453.4,-215.52C470.07,-206.47 490.62,-195.32 508.49,-185.62"/>
<polygon fill="black" stroke="black" points="509.92,-188.83 517.04,-180.98 506.58,-182.68 509.92,-188.83"/>
</g>
<!-- CalculateFlux&#45;&gt;Divide2 -->
<g id="edge12" class="edge">
<title>CalculateFlux&#45;&gt;Divide2</title>
<path fill="none" stroke="black" d="M569.46,-143.7C578.84,-135.28 590.27,-125.02 600.56,-115.79"/>
<polygon fill="black" stroke="black" points="602.62,-118.64 607.72,-109.36 597.94,-113.43 602.62,-118.64"/>
</g>
<!-- Divide2&#45;&gt;OutputWorkspace -->
<g id="edge14" class="edge">
<title>Divide2&#45;&gt;OutputWorkspace</title>
<path fill="none" stroke="black" d="M628.18,-71.7C628.18,-64.41 628.18,-55.73 628.18,-47.54"/>
<polygon fill="black" stroke="black" points="631.68,-47.62 628.18,-37.62 624.68,-47.62 631.68,-47.62"/>
</g>
</g>
</svg>
