<?xml version="1.0" encoding="UTF-8" standalone="no"?>
<!DOCTYPE svg PUBLIC "-//W3C//DTD SVG 1.1//EN"
 "http://www.w3.org/Graphics/SVG/1.1/DTD/svg11.dtd">
<!-- Generated by graphviz version 7.0.5 (20221231.0122)
 -->
<!-- Title: Absorber Pages: 1 -->
<svg width="225pt" height="332pt"
 viewBox="0.00 0.00 225.27 332.00" xmlns="http://www.w3.org/2000/svg" xmlns:xlink="http://www.w3.org/1999/xlink">
<g id="graph0" class="graph" transform="scale(1 1) rotate(0) translate(4 328)">
<title>Absorber</title>
<polygon fill="white" stroke="none" points="-4,4 -4,-328 221.27,-328 221.27,4 -4,4"/>
<!-- NormaliseBy -->
<g id="node1" class="node">
<title>NormaliseBy</title>
<polygon fill="limegreen" stroke="black" points="108.64,-180 12.95,-162 108.64,-144 204.32,-162 108.64,-180"/>
<text text-anchor="middle" x="108.64" y="-158.3" font-family="Helvetica,sans-Serif" font-size="14.00">NormaliseBy</text>
</g>
<!-- Divide -->
<g id="node5" class="node">
<title>Divide</title>
<path fill="lightskyblue" stroke="black" d="M126.64,-108C126.64,-108 90.64,-108 90.64,-108 84.64,-108 78.64,-102 78.64,-96 78.64,-96 78.64,-84 78.64,-84 78.64,-78 84.64,-72 90.64,-72 90.64,-72 126.64,-72 126.64,-72 132.64,-72 138.64,-78 138.64,-84 138.64,-84 138.64,-96 138.64,-96 138.64,-102 132.64,-108 126.64,-108"/>
<text text-anchor="middle" x="108.64" y="-86.3" font-family="Helvetica,sans-Serif" font-size="14.00">Divide</text>
</g>
<!-- NormaliseBy&#45;&gt;Divide -->
<g id="edge3" class="edge">
<title>NormaliseBy&#45;&gt;Divide</title>
<path fill="none" stroke="black" d="M108.64,-143.7C108.64,-136.41 108.64,-127.73 108.64,-119.54"/>
<polygon fill="black" stroke="black" points="112.14,-119.62 108.64,-109.62 105.14,-119.62 112.14,-119.62"/>
</g>
<!-- Run -->
<g id="node2" class="node">
<title>Run</title>
<ellipse fill="khaki" stroke="black" cx="108.64" cy="-306" rx="28.7" ry="18"/>
<text text-anchor="middle" x="108.64" y="-302.3" font-family="Helvetica,sans-Serif" font-size="14.00">Run</text>
</g>
<!-- LoadAndMerge -->
<g id="node4" class="node">
<title>LoadAndMerge</title>
<path fill="lightskyblue" stroke="black" d="M156.64,-252C156.64,-252 60.64,-252 60.64,-252 54.64,-252 48.64,-246 48.64,-240 48.64,-240 48.64,-228 48.64,-228 48.64,-222 54.64,-216 60.64,-216 60.64,-216 156.64,-216 156.64,-216 162.64,-216 168.64,-222 168.64,-228 168.64,-228 168.64,-240 168.64,-240 168.64,-246 162.64,-252 156.64,-252"/>
<text text-anchor="middle" x="108.64" y="-230.3" font-family="Helvetica,sans-Serif" font-size="14.00">LoadAndMerge</text>
</g>
<!-- Run&#45;&gt;LoadAndMerge -->
<g id="edge1" class="edge">
<title>Run&#45;&gt;LoadAndMerge</title>
<path fill="none" stroke="black" d="M108.64,-287.7C108.64,-280.41 108.64,-271.73 108.64,-263.54"/>
<polygon fill="black" stroke="black" points="112.14,-263.62 108.64,-253.62 105.14,-263.62 112.14,-263.62"/>
</g>
<!-- OutputWorkspace -->
<g id="node3" class="node">
<title>OutputWorkspace</title>
<polygon fill="grey" stroke="black" points="217.41,-36 44.38,-36 -0.14,0 172.89,0 217.41,-36"/>
<text text-anchor="middle" x="108.64" y="-14.3" font-family="Times,serif" font-size="14.00">OutputWorkspace</text>
</g>
<!-- LoadAndMerge&#45;&gt;NormaliseBy -->
<g id="edge2" class="edge">
<title>LoadAndMerge&#45;&gt;NormaliseBy</title>
<path fill="none" stroke="black" d="M108.64,-215.7C108.64,-208.41 108.64,-199.73 108.64,-191.54"/>
<polygon fill="black" stroke="black" points="112.14,-191.62 108.64,-181.62 105.14,-191.62 112.14,-191.62"/>
</g>
<!-- Divide&#45;&gt;OutputWorkspace -->
<g id="edge4" class="edge">
<title>Divide&#45;&gt;OutputWorkspace</title>
<path fill="none" stroke="black" d="M108.64,-71.7C108.64,-64.41 108.64,-55.73 108.64,-47.54"/>
<polygon fill="black" stroke="black" points="112.14,-47.62 108.64,-37.62 105.14,-47.62 112.14,-47.62"/>
</g>
</g>
</svg>
