<?xml version="1.0" encoding="UTF-8" standalone="no"?>
<!DOCTYPE svg PUBLIC "-//W3C//DTD SVG 1.1//EN"
 "http://www.w3.org/Graphics/SVG/1.1/DTD/svg11.dtd">
<!-- Generated by graphviz version 13.1.2 (20250809.0930)
 -->
<!-- Title: IndirectFlatePlateAbsorption Pages: 1 -->
<svg width="1902pt" height="1757pt"
 viewBox="0.00 0.00 1902.00 1757.00" xmlns="http://www.w3.org/2000/svg" xmlns:xlink="http://www.w3.org/1999/xlink">
<g id="graph0" class="graph" transform="scale(1 1) rotate(0) translate(4 1752.5)">
<title>IndirectFlatePlateAbsorption</title>
<polygon fill="white" stroke="none" points="-4,4 -4,-1752.5 1898.34,-1752.5 1898.34,4 -4,4"/>
<text xml:space="preserve" text-anchor="middle" x="947.17" y="-1731.2" font-family="Helvetica,sans-Serif" font-size="14.00">IndirectFlatePlateAbsorption Flowchart</text>
<!-- SampleWorkspace1 -->
<g id="node1" class="node">
<title>SampleWorkspace1</title>
<ellipse fill="khaki" stroke="black" cx="1616.09" cy="-1705.25" rx="100.66" ry="18"/>
<text xml:space="preserve" text-anchor="middle" x="1616.09" y="-1700.58" font-family="Helvetica,sans-Serif" font-size="14.00">SampleWorkspace</text>
</g>
<!-- GetEFixed -->
<g id="node23" class="node">
<title>GetEFixed</title>
<path fill="lightskyblue" stroke="black" d="M1646.21,-1650.25C1646.21,-1650.25 1585.96,-1650.25 1585.96,-1650.25 1579.96,-1650.25 1573.96,-1644.25 1573.96,-1638.25 1573.96,-1638.25 1573.96,-1626.25 1573.96,-1626.25 1573.96,-1620.25 1579.96,-1614.25 1585.96,-1614.25 1585.96,-1614.25 1646.21,-1614.25 1646.21,-1614.25 1652.21,-1614.25 1658.21,-1620.25 1658.21,-1626.25 1658.21,-1626.25 1658.21,-1638.25 1658.21,-1638.25 1658.21,-1644.25 1652.21,-1650.25 1646.21,-1650.25"/>
<text xml:space="preserve" text-anchor="middle" x="1616.09" y="-1627.58" font-family="Helvetica,sans-Serif" font-size="14.00">GetEFixed</text>
</g>
<!-- SampleWorkspace1&#45;&gt;GetEFixed -->
<g id="edge1" class="edge">
<title>SampleWorkspace1&#45;&gt;GetEFixed</title>
<path fill="none" stroke="black" d="M1616.09,-1687.06C1616.09,-1679.48 1616.09,-1670.35 1616.09,-1661.79"/>
<polygon fill="black" stroke="black" points="1619.59,-1661.79 1616.09,-1651.79 1612.59,-1661.79 1619.59,-1661.79"/>
</g>
<!-- SampleWorkspace2 -->
<g id="node2" class="node">
<title>SampleWorkspace2</title>
<ellipse fill="khaki" stroke="black" cx="497.09" cy="-1015.75" rx="100.66" ry="18"/>
<text xml:space="preserve" text-anchor="middle" x="497.09" y="-1011.08" font-family="Helvetica,sans-Serif" font-size="14.00">SampleWorkspace</text>
</g>
<!-- Divide1 -->
<g id="node45" class="node">
<title>Divide1</title>
<ellipse fill="lightgrey" stroke="black" cx="732.09" cy="-942.75" rx="48.05" ry="18"/>
<text xml:space="preserve" text-anchor="middle" x="732.09" y="-938.08" font-family="Helvetica,sans-Serif" font-size="14.00">Divide1</text>
</g>
<!-- SampleWorkspace2&#45;&gt;Divide1 -->
<g id="edge23" class="edge">
<title>SampleWorkspace2&#45;&gt;Divide1</title>
<path fill="none" stroke="black" d="M546.93,-999.69C587.57,-987.41 644.59,-970.19 684.58,-958.1"/>
<polygon fill="black" stroke="black" points="685.38,-961.52 693.94,-955.28 683.35,-954.82 685.38,-961.52"/>
</g>
<!-- SampleChemicalFormula -->
<g id="node3" class="node">
<title>SampleChemicalFormula</title>
<ellipse fill="khaki" stroke="black" cx="289.09" cy="-1470" rx="131.18" ry="18"/>
<text xml:space="preserve" text-anchor="middle" x="289.09" y="-1465.33" font-family="Helvetica,sans-Serif" font-size="14.00">SampleChemicalFormula</text>
</g>
<!-- SetSample -->
<g id="node30" class="node">
<title>SetSample</title>
<path fill="lightskyblue" stroke="black" d="M942.21,-1415C942.21,-1415 875.96,-1415 875.96,-1415 869.96,-1415 863.96,-1409 863.96,-1403 863.96,-1403 863.96,-1391 863.96,-1391 863.96,-1385 869.96,-1379 875.96,-1379 875.96,-1379 942.21,-1379 942.21,-1379 948.21,-1379 954.21,-1385 954.21,-1391 954.21,-1391 954.21,-1403 954.21,-1403 954.21,-1409 948.21,-1415 942.21,-1415"/>
<text xml:space="preserve" text-anchor="middle" x="909.09" y="-1392.33" font-family="Helvetica,sans-Serif" font-size="14.00">SetSample</text>
</g>
<!-- SampleChemicalFormula&#45;&gt;SetSample -->
<g id="edge11" class="edge">
<title>SampleChemicalFormula&#45;&gt;SetSample</title>
<path fill="none" stroke="black" d="M383.47,-1457.18C399.03,-1455.36 415.01,-1453.57 430.09,-1452 614.99,-1432.81 667.09,-1451.16 852.37,-1415.29"/>
<polygon fill="black" stroke="black" points="852.98,-1418.74 862.12,-1413.38 851.63,-1411.87 852.98,-1418.74"/>
</g>
<!-- SampleDensity -->
<g id="node4" class="node">
<title>SampleDensity</title>
<ellipse fill="khaki" stroke="black" cx="523.09" cy="-1470" rx="84.35" ry="18"/>
<text xml:space="preserve" text-anchor="middle" x="523.09" y="-1465.33" font-family="Helvetica,sans-Serif" font-size="14.00">SampleDensity</text>
</g>
<!-- SampleDensity&#45;&gt;SetSample -->
<g id="edge12" class="edge">
<title>SampleDensity&#45;&gt;SetSample</title>
<path fill="none" stroke="black" d="M585.08,-1457.43C595.42,-1455.56 606.05,-1453.69 616.09,-1452 718.56,-1434.71 748.45,-1439.1 852.56,-1415.41"/>
<polygon fill="black" stroke="black" points="853.13,-1418.87 862.08,-1413.21 851.55,-1412.05 853.13,-1418.87"/>
</g>
<!-- SampleHeight -->
<g id="node5" class="node">
<title>SampleHeight</title>
<ellipse fill="khaki" stroke="black" cx="705.09" cy="-1470" rx="79.62" ry="18"/>
<text xml:space="preserve" text-anchor="middle" x="705.09" y="-1465.33" font-family="Helvetica,sans-Serif" font-size="14.00">SampleHeight</text>
</g>
<!-- SampleHeight&#45;&gt;SetSample -->
<g id="edge9" class="edge">
<title>SampleHeight&#45;&gt;SetSample</title>
<path fill="none" stroke="black" d="M747.36,-1454.29C778,-1443.62 819.75,-1429.09 853.16,-1417.47"/>
<polygon fill="black" stroke="black" points="853.96,-1420.89 862.26,-1414.3 851.66,-1414.28 853.96,-1420.89"/>
</g>
<!-- SampleInnerRadius -->
<g id="node6" class="node">
<title>SampleInnerRadius</title>
<ellipse fill="khaki" stroke="black" cx="909.09" cy="-1470" rx="106.45" ry="18"/>
<text xml:space="preserve" text-anchor="middle" x="909.09" y="-1465.33" font-family="Helvetica,sans-Serif" font-size="14.00">SampleInnerRadius</text>
</g>
<!-- SampleInnerRadius&#45;&gt;SetSample -->
<g id="edge7" class="edge">
<title>SampleInnerRadius&#45;&gt;SetSample</title>
<path fill="none" stroke="black" d="M909.09,-1451.81C909.09,-1444.23 909.09,-1435.1 909.09,-1426.54"/>
<polygon fill="black" stroke="black" points="912.59,-1426.54 909.09,-1416.54 905.59,-1426.54 912.59,-1426.54"/>
</g>
<!-- SampleOuterRadius -->
<g id="node7" class="node">
<title>SampleOuterRadius</title>
<ellipse fill="khaki" stroke="black" cx="1142.09" cy="-1470" rx="108.55" ry="18"/>
<text xml:space="preserve" text-anchor="middle" x="1142.09" y="-1465.33" font-family="Helvetica,sans-Serif" font-size="14.00">SampleOuterRadius</text>
</g>
<!-- SampleOuterRadius&#45;&gt;SetSample -->
<g id="edge8" class="edge">
<title>SampleOuterRadius&#45;&gt;SetSample</title>
<path fill="none" stroke="black" d="M1091.82,-1453.68C1054.52,-1442.32 1003.66,-1426.82 965.07,-1415.06"/>
<polygon fill="black" stroke="black" points="966.57,-1411.86 955.98,-1412.29 964.53,-1418.55 966.57,-1411.86"/>
</g>
<!-- SampleAngle -->
<g id="node8" class="node">
<title>SampleAngle</title>
<ellipse fill="khaki" stroke="black" cx="1344.09" cy="-1470" rx="75.41" ry="18"/>
<text xml:space="preserve" text-anchor="middle" x="1344.09" y="-1465.33" font-family="Helvetica,sans-Serif" font-size="14.00">SampleAngle</text>
</g>
<!-- SampleAngle&#45;&gt;SetSample -->
<g id="edge10" class="edge">
<title>SampleAngle&#45;&gt;SetSample</title>
<path fill="none" stroke="black" d="M1288.58,-1457.38C1279.09,-1455.51 1269.32,-1453.64 1260.09,-1452 1156.59,-1433.58 1035.25,-1415.74 965.75,-1405.88"/>
<polygon fill="black" stroke="black" points="966.53,-1402.46 956.14,-1404.52 965.55,-1409.39 966.53,-1402.46"/>
</g>
<!-- BeamHeight -->
<g id="node9" class="node">
<title>BeamHeight</title>
<ellipse fill="khaki" stroke="black" cx="1320.09" cy="-1543" rx="71.2" ry="18"/>
<text xml:space="preserve" text-anchor="middle" x="1320.09" y="-1538.33" font-family="Helvetica,sans-Serif" font-size="14.00">BeamHeight</text>
</g>
<!-- SetBeam -->
<g id="node27" class="node">
<title>SetBeam</title>
<path fill="lightskyblue" stroke="black" d="M1504.21,-1488C1504.21,-1488 1449.96,-1488 1449.96,-1488 1443.96,-1488 1437.96,-1482 1437.96,-1476 1437.96,-1476 1437.96,-1464 1437.96,-1464 1437.96,-1458 1443.96,-1452 1449.96,-1452 1449.96,-1452 1504.21,-1452 1504.21,-1452 1510.21,-1452 1516.21,-1458 1516.21,-1464 1516.21,-1464 1516.21,-1476 1516.21,-1476 1516.21,-1482 1510.21,-1488 1504.21,-1488"/>
<text xml:space="preserve" text-anchor="middle" x="1477.09" y="-1465.33" font-family="Helvetica,sans-Serif" font-size="14.00">SetBeam</text>
</g>
<!-- BeamHeight&#45;&gt;SetBeam -->
<g id="edge4" class="edge">
<title>BeamHeight&#45;&gt;SetBeam</title>
<path fill="none" stroke="black" d="M1353.77,-1526.77C1375.43,-1516.97 1403.94,-1504.08 1428.09,-1493.16"/>
<polygon fill="black" stroke="black" points="1429.44,-1496.39 1437.11,-1489.08 1426.56,-1490.01 1429.44,-1496.39"/>
</g>
<!-- BeamWidth -->
<g id="node10" class="node">
<title>BeamWidth</title>
<ellipse fill="khaki" stroke="black" cx="1477.09" cy="-1543" rx="67.52" ry="18"/>
<text xml:space="preserve" text-anchor="middle" x="1477.09" y="-1538.33" font-family="Helvetica,sans-Serif" font-size="14.00">BeamWidth</text>
</g>
<!-- BeamWidth&#45;&gt;SetBeam -->
<g id="edge5" class="edge">
<title>BeamWidth&#45;&gt;SetBeam</title>
<path fill="none" stroke="black" d="M1477.09,-1524.81C1477.09,-1517.23 1477.09,-1508.1 1477.09,-1499.54"/>
<polygon fill="black" stroke="black" points="1480.59,-1499.54 1477.09,-1489.54 1473.59,-1499.54 1480.59,-1499.54"/>
</g>
<!-- Events -->
<g id="node11" class="node">
<title>Events</title>
<ellipse fill="khaki" stroke="black" cx="534.09" cy="-1397" rx="44.37" ry="18"/>
<text xml:space="preserve" text-anchor="middle" x="534.09" y="-1392.33" font-family="Helvetica,sans-Serif" font-size="14.00">Events</text>
</g>
<!-- MonteCarlo -->
<g id="node33" class="node">
<title>MonteCarlo</title>
<path fill="lightskyblue" stroke="black" d="M756.46,-1342C756.46,-1342 685.71,-1342 685.71,-1342 679.71,-1342 673.71,-1336 673.71,-1330 673.71,-1330 673.71,-1318 673.71,-1318 673.71,-1312 679.71,-1306 685.71,-1306 685.71,-1306 756.46,-1306 756.46,-1306 762.46,-1306 768.46,-1312 768.46,-1318 768.46,-1318 768.46,-1330 768.46,-1330 768.46,-1336 762.46,-1342 756.46,-1342"/>
<text xml:space="preserve" text-anchor="middle" x="721.09" y="-1319.33" font-family="Helvetica,sans-Serif" font-size="14.00">MonteCarlo</text>
</g>
<!-- Events&#45;&gt;MonteCarlo -->
<g id="edge14" class="edge">
<title>Events&#45;&gt;MonteCarlo</title>
<path fill="none" stroke="black" d="M565.81,-1383.96C592.77,-1373.72 632.14,-1358.77 664.49,-1346.49"/>
<polygon fill="black" stroke="black" points="665.64,-1349.8 673.75,-1342.97 663.16,-1343.25 665.64,-1349.8"/>
</g>
<!-- NumberOfWavelengths -->
<g id="node12" class="node">
<title>NumberOfWavelengths</title>
<ellipse fill="khaki" stroke="black" cx="721.09" cy="-1397" rx="124.86" ry="18"/>
<text xml:space="preserve" text-anchor="middle" x="721.09" y="-1392.33" font-family="Helvetica,sans-Serif" font-size="14.00">NumberOfWavelengths</text>
</g>
<!-- NumberOfWavelengths&#45;&gt;MonteCarlo -->
<g id="edge15" class="edge">
<title>NumberOfWavelengths&#45;&gt;MonteCarlo</title>
<path fill="none" stroke="black" d="M721.09,-1378.81C721.09,-1371.23 721.09,-1362.1 721.09,-1353.54"/>
<polygon fill="black" stroke="black" points="724.59,-1353.54 721.09,-1343.54 717.59,-1353.54 724.59,-1353.54"/>
</g>
<!-- AbsWorkspace1 -->
<g id="node13" class="node">
<title>AbsWorkspace1</title>
<ellipse fill="khaki" stroke="black" cx="709.09" cy="-1251" rx="117.5" ry="18"/>
<text xml:space="preserve" text-anchor="middle" x="709.09" y="-1246.33" font-family="Helvetica,sans-Serif" font-size="14.00">AbsorptionWorkspace</text>
</g>
<!-- AbsWorkspace2 -->
<g id="node14" class="node">
<title>AbsWorkspace2</title>
<ellipse fill="khaki" stroke="black" cx="733.09" cy="-1015.75" rx="117.5" ry="18"/>
<text xml:space="preserve" text-anchor="middle" x="733.09" y="-1011.08" font-family="Helvetica,sans-Serif" font-size="14.00">AbsorptionWorkspace</text>
</g>
<!-- AbsWorkspace2&#45;&gt;Divide1 -->
<g id="edge24" class="edge">
<title>AbsWorkspace2&#45;&gt;Divide1</title>
<path fill="none" stroke="black" d="M732.85,-997.56C732.74,-989.98 732.61,-980.85 732.49,-972.29"/>
<polygon fill="black" stroke="black" points="735.99,-972.24 732.35,-962.29 728.99,-972.34 735.99,-972.24"/>
</g>
<!-- CanAbsorptionWorkspace -->
<g id="node15" class="node">
<title>CanAbsorptionWorkspace</title>
<ellipse fill="khaki" stroke="black" cx="663.09" cy="-399.25" rx="136.44" ry="18"/>
<text xml:space="preserve" text-anchor="middle" x="663.09" y="-394.57" font-family="Helvetica,sans-Serif" font-size="14.00">CanAbsorptionWorkspace</text>
</g>
<!-- CanWorkspace1 -->
<g id="node16" class="node">
<title>CanWorkspace1</title>
<ellipse fill="khaki" stroke="black" cx="458.09" cy="-780.5" rx="89.61" ry="18"/>
<text xml:space="preserve" text-anchor="middle" x="458.09" y="-775.83" font-family="Helvetica,sans-Serif" font-size="14.00">CanWorkspace1</text>
</g>
<!-- SetBeam1 -->
<g id="node28" class="node">
<title>SetBeam1</title>
<path fill="lightskyblue" stroke="black" d="M262.21,-709.25C262.21,-709.25 207.96,-709.25 207.96,-709.25 201.96,-709.25 195.96,-703.25 195.96,-697.25 195.96,-697.25 195.96,-685.25 195.96,-685.25 195.96,-679.25 201.96,-673.25 207.96,-673.25 207.96,-673.25 262.21,-673.25 262.21,-673.25 268.21,-673.25 274.21,-679.25 274.21,-685.25 274.21,-685.25 274.21,-697.25 274.21,-697.25 274.21,-703.25 268.21,-709.25 262.21,-709.25"/>
<text xml:space="preserve" text-anchor="middle" x="235.09" y="-686.58" font-family="Helvetica,sans-Serif" font-size="14.00">SetBeam</text>
</g>
<!-- CanWorkspace1&#45;&gt;SetBeam1 -->
<g id="edge27" class="edge">
<title>CanWorkspace1&#45;&gt;SetBeam1</title>
<path fill="none" stroke="black" d="M418.48,-764C381.33,-749.47 325.63,-727.67 285.36,-711.92"/>
<polygon fill="black" stroke="black" points="286.7,-708.69 276.11,-708.3 284.15,-715.2 286.7,-708.69"/>
</g>
<!-- CanWorkspace2 -->
<g id="node17" class="node">
<title>CanWorkspace2</title>
<ellipse fill="khaki" stroke="black" cx="729.09" cy="-780.5" rx="89.61" ry="18"/>
<text xml:space="preserve" text-anchor="middle" x="729.09" y="-775.83" font-family="Helvetica,sans-Serif" font-size="14.00">CanWorkspace2</text>
</g>
<!-- SetBeam2 -->
<g id="node29" class="node">
<title>SetBeam2</title>
<path fill="lightskyblue" stroke="black" d="M756.21,-709.25C756.21,-709.25 701.96,-709.25 701.96,-709.25 695.96,-709.25 689.96,-703.25 689.96,-697.25 689.96,-697.25 689.96,-685.25 689.96,-685.25 689.96,-679.25 695.96,-673.25 701.96,-673.25 701.96,-673.25 756.21,-673.25 756.21,-673.25 762.21,-673.25 768.21,-679.25 768.21,-685.25 768.21,-685.25 768.21,-697.25 768.21,-697.25 768.21,-703.25 762.21,-709.25 756.21,-709.25"/>
<text xml:space="preserve" text-anchor="middle" x="729.09" y="-686.58" font-family="Helvetica,sans-Serif" font-size="14.00">SetBeam</text>
</g>
<!-- CanWorkspace2&#45;&gt;SetBeam2 -->
<g id="edge35" class="edge">
<title>CanWorkspace2&#45;&gt;SetBeam2</title>
<path fill="none" stroke="black" d="M729.09,-762.26C729.09,-750.43 729.09,-734.45 729.09,-720.75"/>
<polygon fill="black" stroke="black" points="732.59,-720.97 729.09,-710.97 725.59,-720.97 732.59,-720.97"/>
</g>
<!-- CanChemicalFormula -->
<g id="node18" class="node">
<title>CanChemicalFormula</title>
<ellipse fill="khaki" stroke="black" cx="406.09" cy="-691.25" rx="113.82" ry="18"/>
<text xml:space="preserve" text-anchor="middle" x="406.09" y="-686.58" font-family="Helvetica,sans-Serif" font-size="14.00">CanChemicalFormula</text>
</g>
<!-- SetSample1 -->
<g id="node31" class="node">
<title>SetSample1</title>
<path fill="lightskyblue" stroke="black" d="M439.21,-636.25C439.21,-636.25 372.96,-636.25 372.96,-636.25 366.96,-636.25 360.96,-630.25 360.96,-624.25 360.96,-624.25 360.96,-612.25 360.96,-612.25 360.96,-606.25 366.96,-600.25 372.96,-600.25 372.96,-600.25 439.21,-600.25 439.21,-600.25 445.21,-600.25 451.21,-606.25 451.21,-612.25 451.21,-612.25 451.21,-624.25 451.21,-624.25 451.21,-630.25 445.21,-636.25 439.21,-636.25"/>
<text xml:space="preserve" text-anchor="middle" x="406.09" y="-613.58" font-family="Helvetica,sans-Serif" font-size="14.00">SetSample</text>
</g>
<!-- CanChemicalFormula&#45;&gt;SetSample1 -->
<g id="edge29" class="edge">
<title>CanChemicalFormula&#45;&gt;SetSample1</title>
<path fill="none" stroke="black" d="M406.09,-673.06C406.09,-665.48 406.09,-656.35 406.09,-647.79"/>
<polygon fill="black" stroke="black" points="409.59,-647.79 406.09,-637.79 402.59,-647.79 409.59,-647.79"/>
</g>
<!-- SetSample2 -->
<g id="node32" class="node">
<title>SetSample2</title>
<path fill="lightskyblue" stroke="black" d="M696.21,-636.25C696.21,-636.25 629.96,-636.25 629.96,-636.25 623.96,-636.25 617.96,-630.25 617.96,-624.25 617.96,-624.25 617.96,-612.25 617.96,-612.25 617.96,-606.25 623.96,-600.25 629.96,-600.25 629.96,-600.25 696.21,-600.25 696.21,-600.25 702.21,-600.25 708.21,-606.25 708.21,-612.25 708.21,-612.25 708.21,-624.25 708.21,-624.25 708.21,-630.25 702.21,-636.25 696.21,-636.25"/>
<text xml:space="preserve" text-anchor="middle" x="663.09" y="-613.58" font-family="Helvetica,sans-Serif" font-size="14.00">SetSample</text>
</g>
<!-- CanChemicalFormula&#45;&gt;SetSample2 -->
<g id="edge38" class="edge">
<title>CanChemicalFormula&#45;&gt;SetSample2</title>
<path fill="none" stroke="black" d="M460.91,-675.11C503.9,-663.23 563.5,-646.76 606.85,-634.79"/>
<polygon fill="black" stroke="black" points="607.62,-638.21 616.32,-632.17 605.75,-631.46 607.62,-638.21"/>
</g>
<!-- CanDensity -->
<g id="node19" class="node">
<title>CanDensity</title>
<ellipse fill="khaki" stroke="black" cx="605.09" cy="-691.25" rx="66.99" ry="18"/>
<text xml:space="preserve" text-anchor="middle" x="605.09" y="-686.58" font-family="Helvetica,sans-Serif" font-size="14.00">CanDensity</text>
</g>
<!-- CanDensity&#45;&gt;SetSample1 -->
<g id="edge30" class="edge">
<title>CanDensity&#45;&gt;SetSample1</title>
<path fill="none" stroke="black" d="M565.77,-676.22C536.13,-665.65 495.08,-651 462.02,-639.21"/>
<polygon fill="black" stroke="black" points="463.61,-636.06 453.02,-635.99 461.26,-642.65 463.61,-636.06"/>
</g>
<!-- CanDensity&#45;&gt;SetSample2 -->
<g id="edge39" class="edge">
<title>CanDensity&#45;&gt;SetSample2</title>
<path fill="none" stroke="black" d="M618.83,-673.42C625.62,-665.12 633.96,-654.91 641.56,-645.6"/>
<polygon fill="black" stroke="black" points="644.26,-647.83 647.88,-637.87 638.84,-643.4 644.26,-647.83"/>
</g>
<!-- CanInnerRadius -->
<g id="node20" class="node">
<title>CanInnerRadius</title>
<ellipse fill="khaki" stroke="black" cx="89.09" cy="-691.25" rx="89.09" ry="18"/>
<text xml:space="preserve" text-anchor="middle" x="89.09" y="-686.58" font-family="Helvetica,sans-Serif" font-size="14.00">CanInnerRadius</text>
</g>
<!-- CanInnerRadius&#45;&gt;SetSample1 -->
<g id="edge31" class="edge">
<title>CanInnerRadius&#45;&gt;SetSample1</title>
<path fill="none" stroke="black" d="M147.23,-677.23C204.87,-664.32 292.6,-644.67 349.65,-631.89"/>
<polygon fill="black" stroke="black" points="350.16,-635.36 359.15,-629.76 348.63,-628.53 350.16,-635.36"/>
</g>
<!-- CanOuterRadius -->
<g id="node21" class="node">
<title>CanOuterRadius</title>
<ellipse fill="khaki" stroke="black" cx="877.09" cy="-691.25" rx="91.19" ry="18"/>
<text xml:space="preserve" text-anchor="middle" x="877.09" y="-686.58" font-family="Helvetica,sans-Serif" font-size="14.00">CanOuterRadius</text>
</g>
<!-- CanOuterRadius&#45;&gt;SetSample2 -->
<g id="edge37" class="edge">
<title>CanOuterRadius&#45;&gt;SetSample2</title>
<path fill="none" stroke="black" d="M831.7,-675.19C798.79,-664.27 754.08,-649.44 718.97,-637.79"/>
<polygon fill="black" stroke="black" points="720.44,-634.59 709.84,-634.76 718.23,-641.23 720.44,-634.59"/>
</g>
<!-- OutputWorkspace -->
<g id="node22" class="node">
<title>OutputWorkspace</title>
<ellipse fill="khaki" stroke="black" cx="955.09" cy="-18" rx="98.56" ry="18"/>
<text xml:space="preserve" text-anchor="middle" x="955.09" y="-13.32" font-family="Helvetica,sans-Serif" font-size="14.00">OutputWorkspace</text>
</g>
<!-- ConvertUnits1 -->
<g id="node24" class="node">
<title>ConvertUnits1</title>
<path fill="lightskyblue" stroke="black" d="M1657.46,-1561C1657.46,-1561 1574.71,-1561 1574.71,-1561 1568.71,-1561 1562.71,-1555 1562.71,-1549 1562.71,-1549 1562.71,-1537 1562.71,-1537 1562.71,-1531 1568.71,-1525 1574.71,-1525 1574.71,-1525 1657.46,-1525 1657.46,-1525 1663.46,-1525 1669.46,-1531 1669.46,-1537 1669.46,-1537 1669.46,-1549 1669.46,-1549 1669.46,-1555 1663.46,-1561 1657.46,-1561"/>
<text xml:space="preserve" text-anchor="middle" x="1616.09" y="-1538.33" font-family="Helvetica,sans-Serif" font-size="14.00">ConvertUnits</text>
</g>
<!-- GetEFixed&#45;&gt;ConvertUnits1 -->
<g id="edge2" class="edge">
<title>GetEFixed&#45;&gt;ConvertUnits1</title>
<path fill="none" stroke="black" d="M1616.09,-1614.01C1616.09,-1602.18 1616.09,-1586.2 1616.09,-1572.5"/>
<polygon fill="black" stroke="black" points="1619.59,-1572.72 1616.09,-1562.72 1612.59,-1572.72 1619.59,-1572.72"/>
<text xml:space="preserve" text-anchor="middle" x="1755.21" y="-1582.95" font-family="Helvetica,sans-Serif" font-size="14.00">Convert input workspace to Wavelength</text>
</g>
<!-- ConvertUnits1&#45;&gt;SetBeam -->
<g id="edge3" class="edge">
<title>ConvertUnits1&#45;&gt;SetBeam</title>
<path fill="none" stroke="black" d="M1582.08,-1524.63C1563.83,-1515.31 1541.1,-1503.7 1521.47,-1493.67"/>
<polygon fill="black" stroke="black" points="1523.07,-1490.56 1512.57,-1489.12 1519.88,-1496.79 1523.07,-1490.56"/>
</g>
<!-- ConvertUnits2 -->
<g id="node25" class="node">
<title>ConvertUnits2</title>
<path fill="lightskyblue" stroke="black" d="M1003.46,-1179.75C1003.46,-1179.75 920.71,-1179.75 920.71,-1179.75 914.71,-1179.75 908.71,-1173.75 908.71,-1167.75 908.71,-1167.75 908.71,-1155.75 908.71,-1155.75 908.71,-1149.75 914.71,-1143.75 920.71,-1143.75 920.71,-1143.75 1003.46,-1143.75 1003.46,-1143.75 1009.46,-1143.75 1015.46,-1149.75 1015.46,-1155.75 1015.46,-1155.75 1015.46,-1167.75 1015.46,-1167.75 1015.46,-1173.75 1009.46,-1179.75 1003.46,-1179.75"/>
<text xml:space="preserve" text-anchor="middle" x="962.09" y="-1157.08" font-family="Helvetica,sans-Serif" font-size="14.00">ConvertUnits</text>
</g>
<!-- Scale -->
<g id="node36" class="node">
<title>Scale</title>
<path fill="lightskyblue" stroke="black" d="M922.09,-1106.75C922.09,-1106.75 892.09,-1106.75 892.09,-1106.75 886.09,-1106.75 880.09,-1100.75 880.09,-1094.75 880.09,-1094.75 880.09,-1082.75 880.09,-1082.75 880.09,-1076.75 886.09,-1070.75 892.09,-1070.75 892.09,-1070.75 922.09,-1070.75 922.09,-1070.75 928.09,-1070.75 934.09,-1076.75 934.09,-1082.75 934.09,-1082.75 934.09,-1094.75 934.09,-1094.75 934.09,-1100.75 928.09,-1106.75 922.09,-1106.75"/>
<text xml:space="preserve" text-anchor="middle" x="907.09" y="-1084.08" font-family="Helvetica,sans-Serif" font-size="14.00">Scale</text>
</g>
<!-- ConvertUnits2&#45;&gt;Scale -->
<g id="edge19" class="edge">
<title>ConvertUnits2&#45;&gt;Scale</title>
<path fill="none" stroke="black" d="M948.77,-1143.56C942.29,-1135.19 934.35,-1124.95 927.15,-1115.65"/>
<polygon fill="black" stroke="black" points="930.1,-1113.74 921.21,-1107.98 924.56,-1118.02 930.1,-1113.74"/>
</g>
<!-- Clone -->
<g id="node44" class="node">
<title>Clone</title>
<ellipse fill="lightgrey" stroke="black" cx="907.09" cy="-1015.75" rx="38.58" ry="18"/>
<text xml:space="preserve" text-anchor="middle" x="907.09" y="-1011.08" font-family="Helvetica,sans-Serif" font-size="14.00">Clone</text>
</g>
<!-- ConvertUnits2&#45;&gt;Clone -->
<g id="edge20" class="edge">
<title>ConvertUnits2&#45;&gt;Clone</title>
<path fill="none" stroke="black" d="M960.42,-1143.59C958.18,-1125.04 953.24,-1094.89 943.09,-1070.75 938.9,-1060.79 932.8,-1050.71 926.8,-1042"/>
<polygon fill="black" stroke="black" points="929.76,-1040.12 921.07,-1034.06 924.08,-1044.22 929.76,-1040.12"/>
</g>
<!-- ConvertUnits3 -->
<g id="node26" class="node">
<title>ConvertUnits3</title>
<path fill="lightskyblue" stroke="black" d="M996.46,-255C996.46,-255 913.71,-255 913.71,-255 907.71,-255 901.71,-249 901.71,-243 901.71,-243 901.71,-231 901.71,-231 901.71,-225 907.71,-219 913.71,-219 913.71,-219 996.46,-219 996.46,-219 1002.46,-219 1008.46,-225 1008.46,-231 1008.46,-231 1008.46,-243 1008.46,-243 1008.46,-249 1002.46,-255 996.46,-255"/>
<text xml:space="preserve" text-anchor="middle" x="955.09" y="-232.32" font-family="Helvetica,sans-Serif" font-size="14.00">ConvertUnits</text>
</g>
<!-- AddSampleLogMultiple -->
<g id="node39" class="node">
<title>AddSampleLogMultiple</title>
<path fill="lightskyblue" stroke="black" d="M1030.21,-182C1030.21,-182 879.96,-182 879.96,-182 873.96,-182 867.96,-176 867.96,-170 867.96,-170 867.96,-158 867.96,-158 867.96,-152 873.96,-146 879.96,-146 879.96,-146 1030.21,-146 1030.21,-146 1036.21,-146 1042.21,-152 1042.21,-158 1042.21,-158 1042.21,-170 1042.21,-170 1042.21,-176 1036.21,-182 1030.21,-182"/>
<text xml:space="preserve" text-anchor="middle" x="955.09" y="-159.32" font-family="Helvetica,sans-Serif" font-size="14.00">AddSampleLogMultiple</text>
</g>
<!-- ConvertUnits3&#45;&gt;AddSampleLogMultiple -->
<g id="edge48" class="edge">
<title>ConvertUnits3&#45;&gt;AddSampleLogMultiple</title>
<path fill="none" stroke="black" d="M955.09,-218.81C955.09,-211.23 955.09,-202.1 955.09,-193.54"/>
<polygon fill="black" stroke="black" points="958.59,-193.54 955.09,-183.54 951.59,-193.54 958.59,-193.54"/>
</g>
<!-- SetBeam&#45;&gt;SetSample -->
<g id="edge6" class="edge">
<title>SetBeam&#45;&gt;SetSample</title>
<path fill="none" stroke="black" d="M1437.46,-1454.4C1434.32,-1453.5 1431.16,-1452.68 1428.09,-1452 1262.76,-1415.24 1062.12,-1403.37 965.91,-1399.64"/>
<polygon fill="black" stroke="black" points="966.06,-1396.15 955.94,-1399.27 965.8,-1403.14 966.06,-1396.15"/>
</g>
<!-- SetBeam1&#45;&gt;SetSample1 -->
<g id="edge28" class="edge">
<title>SetBeam1&#45;&gt;SetSample1</title>
<path fill="none" stroke="black" d="M274.32,-673.96C297.79,-664.22 327.91,-651.71 353.43,-641.11"/>
<polygon fill="black" stroke="black" points="354.76,-644.35 362.65,-637.28 352.08,-637.89 354.76,-644.35"/>
</g>
<!-- SetBeam2&#45;&gt;SetSample2 -->
<g id="edge36" class="edge">
<title>SetBeam2&#45;&gt;SetSample2</title>
<path fill="none" stroke="black" d="M713.11,-673.06C705.17,-664.52 695.41,-654.02 686.63,-644.57"/>
<polygon fill="black" stroke="black" points="689.32,-642.33 679.95,-637.39 684.19,-647.09 689.32,-642.33"/>
</g>
<!-- SetSample&#45;&gt;MonteCarlo -->
<g id="edge13" class="edge">
<title>SetSample&#45;&gt;MonteCarlo</title>
<path fill="none" stroke="black" d="M863.58,-1378.81C837.77,-1369.07 805.25,-1356.78 777.8,-1346.42"/>
<polygon fill="black" stroke="black" points="779.16,-1343.19 768.57,-1342.93 776.69,-1349.74 779.16,-1343.19"/>
</g>
<!-- MonteCarlo1 -->
<g id="node34" class="node">
<title>MonteCarlo1</title>
<path fill="lightskyblue" stroke="black" d="M564.46,-563.25C564.46,-563.25 493.71,-563.25 493.71,-563.25 487.71,-563.25 481.71,-557.25 481.71,-551.25 481.71,-551.25 481.71,-539.25 481.71,-539.25 481.71,-533.25 487.71,-527.25 493.71,-527.25 493.71,-527.25 564.46,-527.25 564.46,-527.25 570.46,-527.25 576.46,-533.25 576.46,-539.25 576.46,-539.25 576.46,-551.25 576.46,-551.25 576.46,-557.25 570.46,-563.25 564.46,-563.25"/>
<text xml:space="preserve" text-anchor="middle" x="529.09" y="-540.58" font-family="Helvetica,sans-Serif" font-size="14.00">MonteCarlo</text>
</g>
<!-- SetSample1&#45;&gt;MonteCarlo1 -->
<g id="edge32" class="edge">
<title>SetSample1&#45;&gt;MonteCarlo1</title>
<path fill="none" stroke="black" d="M436.18,-599.88C452.11,-590.68 471.89,-579.27 489.1,-569.33"/>
<polygon fill="black" stroke="black" points="490.66,-572.47 497.57,-564.44 487.16,-566.41 490.66,-572.47"/>
</g>
<!-- MonteCarlo2 -->
<g id="node35" class="node">
<title>MonteCarlo2</title>
<path fill="lightskyblue" stroke="black" d="M698.46,-563.25C698.46,-563.25 627.71,-563.25 627.71,-563.25 621.71,-563.25 615.71,-557.25 615.71,-551.25 615.71,-551.25 615.71,-539.25 615.71,-539.25 615.71,-533.25 621.71,-527.25 627.71,-527.25 627.71,-527.25 698.46,-527.25 698.46,-527.25 704.46,-527.25 710.46,-533.25 710.46,-539.25 710.46,-539.25 710.46,-551.25 710.46,-551.25 710.46,-557.25 704.46,-563.25 698.46,-563.25"/>
<text xml:space="preserve" text-anchor="middle" x="663.09" y="-540.58" font-family="Helvetica,sans-Serif" font-size="14.00">MonteCarlo</text>
</g>
<!-- SetSample2&#45;&gt;MonteCarlo2 -->
<g id="edge40" class="edge">
<title>SetSample2&#45;&gt;MonteCarlo2</title>
<path fill="none" stroke="black" d="M663.09,-600.06C663.09,-592.48 663.09,-583.35 663.09,-574.79"/>
<polygon fill="black" stroke="black" points="666.59,-574.79 663.09,-564.79 659.59,-574.79 666.59,-574.79"/>
</g>
<!-- MonteCarlo&#45;&gt;AbsWorkspace1 -->
<g id="edge16" class="edge">
<title>MonteCarlo&#45;&gt;AbsWorkspace1</title>
<path fill="none" stroke="black" d="M718.18,-1305.81C716.89,-1298.14 715.32,-1288.89 713.86,-1280.24"/>
<polygon fill="black" stroke="black" points="717.34,-1279.8 712.22,-1270.52 710.43,-1280.96 717.34,-1279.8"/>
</g>
<!-- canGiven -->
<g id="node42" class="node">
<title>canGiven</title>
<polygon fill="limegreen" stroke="black" points="1014.09,-1269 844.2,-1251 1014.09,-1233 1183.98,-1251 1014.09,-1269"/>
<text xml:space="preserve" text-anchor="middle" x="1014.09" y="-1246.33" font-family="Helvetica,sans-Serif" font-size="14.00">Container Workspace?</text>
</g>
<!-- MonteCarlo&#45;&gt;canGiven -->
<g id="edge17" class="edge">
<title>MonteCarlo&#45;&gt;canGiven</title>
<path fill="none" stroke="black" d="M768.82,-1311.43C819.03,-1299.27 898.23,-1280.08 952.98,-1266.81"/>
<polygon fill="black" stroke="black" points="953.56,-1270.27 962.46,-1264.51 951.91,-1263.47 953.56,-1270.27"/>
</g>
<!-- Multiply -->
<g id="node41" class="node">
<title>Multiply</title>
<path fill="lightskyblue" stroke="black" d="M686.46,-490.25C686.46,-490.25 639.71,-490.25 639.71,-490.25 633.71,-490.25 627.71,-484.25 627.71,-478.25 627.71,-478.25 627.71,-466.25 627.71,-466.25 627.71,-460.25 633.71,-454.25 639.71,-454.25 639.71,-454.25 686.46,-454.25 686.46,-454.25 692.46,-454.25 698.46,-460.25 698.46,-466.25 698.46,-466.25 698.46,-478.25 698.46,-478.25 698.46,-484.25 692.46,-490.25 686.46,-490.25"/>
<text xml:space="preserve" text-anchor="middle" x="663.09" y="-467.57" font-family="Helvetica,sans-Serif" font-size="14.00">Multiply</text>
</g>
<!-- MonteCarlo1&#45;&gt;Multiply -->
<g id="edge33" class="edge">
<title>MonteCarlo1&#45;&gt;Multiply</title>
<path fill="none" stroke="black" d="M561.87,-526.88C579.39,-517.6 601.18,-506.05 620.05,-496.06"/>
<polygon fill="black" stroke="black" points="621.65,-499.17 628.84,-491.39 618.37,-492.98 621.65,-499.17"/>
</g>
<!-- MonteCarlo2&#45;&gt;Multiply -->
<g id="edge41" class="edge">
<title>MonteCarlo2&#45;&gt;Multiply</title>
<path fill="none" stroke="black" d="M663.09,-527.06C663.09,-519.48 663.09,-510.35 663.09,-501.79"/>
<polygon fill="black" stroke="black" points="666.59,-501.79 663.09,-491.79 659.59,-501.79 666.59,-501.79"/>
</g>
<!-- Scale&#45;&gt;Clone -->
<g id="edge21" class="edge">
<title>Scale&#45;&gt;Clone</title>
<path fill="none" stroke="black" d="M907.09,-1070.56C907.09,-1062.98 907.09,-1053.85 907.09,-1045.29"/>
<polygon fill="black" stroke="black" points="910.59,-1045.29 907.09,-1035.29 903.59,-1045.29 910.59,-1045.29"/>
</g>
<!-- Divide -->
<g id="node37" class="node">
<title>Divide</title>
<path fill="lightskyblue" stroke="black" d="M885.84,-417.25C885.84,-417.25 850.34,-417.25 850.34,-417.25 844.34,-417.25 838.34,-411.25 838.34,-405.25 838.34,-405.25 838.34,-393.25 838.34,-393.25 838.34,-387.25 844.34,-381.25 850.34,-381.25 850.34,-381.25 885.84,-381.25 885.84,-381.25 891.84,-381.25 897.84,-387.25 897.84,-393.25 897.84,-393.25 897.84,-405.25 897.84,-405.25 897.84,-411.25 891.84,-417.25 885.84,-417.25"/>
<text xml:space="preserve" text-anchor="middle" x="868.09" y="-394.57" font-family="Helvetica,sans-Serif" font-size="14.00">Divide</text>
</g>
<!-- Minus -->
<g id="node38" class="node">
<title>Minus</title>
<path fill="lightskyblue" stroke="black" d="M884.71,-344.25C884.71,-344.25 851.46,-344.25 851.46,-344.25 845.46,-344.25 839.46,-338.25 839.46,-332.25 839.46,-332.25 839.46,-320.25 839.46,-320.25 839.46,-314.25 845.46,-308.25 851.46,-308.25 851.46,-308.25 884.71,-308.25 884.71,-308.25 890.71,-308.25 896.71,-314.25 896.71,-320.25 896.71,-320.25 896.71,-332.25 896.71,-332.25 896.71,-338.25 890.71,-344.25 884.71,-344.25"/>
<text xml:space="preserve" text-anchor="middle" x="868.09" y="-321.57" font-family="Helvetica,sans-Serif" font-size="14.00">Minus</text>
</g>
<!-- Divide&#45;&gt;Minus -->
<g id="edge45" class="edge">
<title>Divide&#45;&gt;Minus</title>
<path fill="none" stroke="black" d="M868.09,-381.06C868.09,-373.48 868.09,-364.35 868.09,-355.79"/>
<polygon fill="black" stroke="black" points="871.59,-355.79 868.09,-345.79 864.59,-355.79 871.59,-355.79"/>
</g>
<!-- Minus&#45;&gt;ConvertUnits3 -->
<g id="edge46" class="edge">
<title>Minus&#45;&gt;ConvertUnits3</title>
<path fill="none" stroke="black" d="M863.97,-307.78C862.42,-296.86 862.44,-283.01 869.34,-273 874.85,-265.01 882.53,-258.84 891.05,-254.08"/>
<polygon fill="black" stroke="black" points="892.51,-257.26 900,-249.77 889.47,-250.95 892.51,-257.26"/>
<text xml:space="preserve" text-anchor="middle" x="949.21" y="-276.95" font-family="Helvetica,sans-Serif" font-size="14.00">Convert back to DeltaE</text>
</g>
<!-- GroupWorkspaces -->
<g id="node40" class="node">
<title>GroupWorkspaces</title>
<path fill="lightskyblue" stroke="black" d="M1013.71,-109C1013.71,-109 896.46,-109 896.46,-109 890.46,-109 884.46,-103 884.46,-97 884.46,-97 884.46,-85 884.46,-85 884.46,-79 890.46,-73 896.46,-73 896.46,-73 1013.71,-73 1013.71,-73 1019.71,-73 1025.71,-79 1025.71,-85 1025.71,-85 1025.71,-97 1025.71,-97 1025.71,-103 1019.71,-109 1013.71,-109"/>
<text xml:space="preserve" text-anchor="middle" x="955.09" y="-86.33" font-family="Helvetica,sans-Serif" font-size="14.00">GroupWorkspaces</text>
</g>
<!-- AddSampleLogMultiple&#45;&gt;GroupWorkspaces -->
<g id="edge49" class="edge">
<title>AddSampleLogMultiple&#45;&gt;GroupWorkspaces</title>
<path fill="none" stroke="black" d="M955.09,-145.81C955.09,-138.23 955.09,-129.1 955.09,-120.54"/>
<polygon fill="black" stroke="black" points="958.59,-120.54 955.09,-110.54 951.59,-120.54 958.59,-120.54"/>
</g>
<!-- GroupWorkspaces&#45;&gt;OutputWorkspace -->
<g id="edge50" class="edge">
<title>GroupWorkspaces&#45;&gt;OutputWorkspace</title>
<path fill="none" stroke="black" d="M955.09,-72.81C955.09,-65.23 955.09,-56.1 955.09,-47.54"/>
<polygon fill="black" stroke="black" points="958.59,-47.54 955.09,-37.54 951.59,-47.54 958.59,-47.54"/>
</g>
<!-- Multiply&#45;&gt;CanAbsorptionWorkspace -->
<g id="edge42" class="edge">
<title>Multiply&#45;&gt;CanAbsorptionWorkspace</title>
<path fill="none" stroke="black" d="M663.09,-454.06C663.09,-446.48 663.09,-437.35 663.09,-428.79"/>
<polygon fill="black" stroke="black" points="666.59,-428.79 663.09,-418.79 659.59,-428.79 666.59,-428.79"/>
</g>
<!-- Multiply&#45;&gt;Divide -->
<g id="edge43" class="edge">
<title>Multiply&#45;&gt;Divide</title>
<path fill="none" stroke="black" d="M698.8,-458.88C734.71,-446.44 790.01,-427.29 827.55,-414.29"/>
<polygon fill="black" stroke="black" points="828.38,-417.71 836.68,-411.13 826.09,-411.09 828.38,-417.71"/>
</g>
<!-- canGiven&#45;&gt;ConvertUnits2 -->
<g id="edge18" class="edge">
<title>canGiven&#45;&gt;ConvertUnits2</title>
<path fill="none" stroke="black" d="M1004.31,-1233.59C996.97,-1221.28 986.76,-1204.14 978.22,-1189.81"/>
<polygon fill="black" stroke="black" points="981.26,-1188.08 973.13,-1181.28 975.25,-1191.67 981.26,-1188.08"/>
<text xml:space="preserve" text-anchor="middle" x="1004" y="-1201.7" font-family="Helvetica,sans-Serif" font-size="14.00">Yes</text>
</g>
<!-- canGiven&#45;&gt;ConvertUnits3 -->
<g id="edge47" class="edge">
<title>canGiven&#45;&gt;ConvertUnits3</title>
<path fill="none" stroke="black" d="M1023.1,-1233.49C1031.62,-1216.33 1043.09,-1188.45 1043.09,-1162.75 1043.09,-1162.75 1043.09,-1162.75 1043.09,-325.25 1043.09,-301.21 1044.49,-291.46 1029.09,-273 1025.43,-268.61 1021.09,-264.74 1016.38,-261.33"/>
<polygon fill="black" stroke="black" points="1018.53,-258.55 1008.21,-256.13 1014.77,-264.45 1018.53,-258.55"/>
<text xml:space="preserve" text-anchor="middle" x="1052.46" y="-731.2" font-family="Helvetica,sans-Serif" font-size="14.00">No</text>
</g>
<!-- useCorrections -->
<g id="node43" class="node">
<title>useCorrections</title>
<polygon fill="limegreen" stroke="black" points="729.09,-887.75 556.97,-869.75 729.09,-851.75 901.21,-869.75 729.09,-887.75"/>
<text xml:space="preserve" text-anchor="middle" x="729.09" y="-865.08" font-family="Helvetica,sans-Serif" font-size="14.00">Container Corrections?</text>
</g>
<!-- useCorrections&#45;&gt;CanWorkspace1 -->
<g id="edge26" class="edge">
<title>useCorrections&#45;&gt;CanWorkspace1</title>
<path fill="none" stroke="black" d="M688.22,-855.59C642.12,-840.75 566.81,-816.5 514.97,-799.81"/>
<polygon fill="black" stroke="black" points="516.32,-796.57 505.73,-796.84 514.17,-803.23 516.32,-796.57"/>
<text xml:space="preserve" text-anchor="middle" x="629.11" y="-820.45" font-family="Helvetica,sans-Serif" font-size="14.00">Yes</text>
</g>
<!-- useCorrections&#45;&gt;CanWorkspace2 -->
<g id="edge34" class="edge">
<title>useCorrections&#45;&gt;CanWorkspace2</title>
<path fill="none" stroke="black" d="M729.09,-851.51C729.09,-839.68 729.09,-823.7 729.09,-810"/>
<polygon fill="black" stroke="black" points="732.59,-810.22 729.09,-800.22 725.59,-810.22 732.59,-810.22"/>
<text xml:space="preserve" text-anchor="middle" x="740.34" y="-820.45" font-family="Helvetica,sans-Serif" font-size="14.00">Yes</text>
</g>
<!-- useCorrections&#45;&gt;Divide -->
<g id="edge44" class="edge">
<title>useCorrections&#45;&gt;Divide</title>
<path fill="none" stroke="black" d="M804.17,-859.1C883.14,-846.79 996.09,-822.1 996.09,-781.5 996.09,-781.5 996.09,-781.5 996.09,-471.25 996.09,-430.83 946.68,-413.23 909.26,-405.7"/>
<polygon fill="black" stroke="black" points="910.05,-402.28 899.59,-403.94 908.8,-409.17 910.05,-402.28"/>
<text xml:space="preserve" text-anchor="middle" x="1005.46" y="-613.58" font-family="Helvetica,sans-Serif" font-size="14.00">No</text>
</g>
<!-- Clone&#45;&gt;Divide1 -->
<g id="edge22" class="edge">
<title>Clone&#45;&gt;Divide1</title>
<path fill="none" stroke="black" d="M878.58,-1003.18C850.3,-991.71 806.63,-973.99 774.32,-960.89"/>
<polygon fill="black" stroke="black" points="775.83,-957.72 765.24,-957.2 773.19,-964.2 775.83,-957.72"/>
</g>
<!-- Divide1&#45;&gt;useCorrections -->
<g id="edge25" class="edge">
<title>Divide1&#45;&gt;useCorrections</title>
<path fill="none" stroke="black" d="M731.36,-924.56C731.04,-916.89 730.65,-907.64 730.28,-898.99"/>
<polygon fill="black" stroke="black" points="733.79,-899.13 729.87,-889.29 726.8,-899.43 733.79,-899.13"/>
</g>
</g>
</svg>
