<?xml version="1.0" encoding="UTF-8" standalone="no"?>
<!DOCTYPE svg PUBLIC "-//W3C//DTD SVG 1.1//EN"
 "http://www.w3.org/Graphics/SVG/1.1/DTD/svg11.dtd">
<!-- Generated by graphviz version 9.0.0 (20231125.0833)
 -->
<!-- Title: IndirectILLReductionQENS Pages: 1 -->
<svg width="1605pt" height="789pt"
 viewBox="0.00 0.00 1604.98 789.25" xmlns="http://www.w3.org/2000/svg" xmlns:xlink="http://www.w3.org/1999/xlink">
<g id="graph0" class="graph" transform="scale(1 1) rotate(0) translate(4 785.25)">
<title>IndirectILLReductionQENS</title>
<polygon fill="white" stroke="none" points="-4,4 -4,-785.25 1600.98,-785.25 1600.98,4 -4,4"/>
<text text-anchor="middle" x="798.49" y="-763.95" font-family="Helvetica,sans-Serif" font-size="14.00">IndirectILLReductionQENS Flowchart</text>
<!-- OutputWorkspace -->
<g id="node1" class="node">
<title>OutputWorkspace</title>
<polygon fill="grey" stroke="black" points="394.83,-36 226.45,-36 183.14,0 351.51,0 394.83,-36"/>
<text text-anchor="middle" x="288.98" y="-11.82" font-family="Times,serif" font-size="14.00">OutputWorkspace</text>
</g>
<!-- Run -->
<g id="node2" class="node">
<title>Run</title>
<ellipse fill="khaki" stroke="black" cx="981.98" cy="-594" rx="30.16" ry="18"/>
<text text-anchor="middle" x="981.98" y="-589.33" font-family="Helvetica,sans-Serif" font-size="14.00">Run</text>
</g>
<!-- SelectNexusFilesByMetadata -->
<g id="node12" class="node">
<title>SelectNexusFilesByMetadata</title>
<path fill="lightskyblue" stroke="black" d="M1076.98,-540C1076.98,-540 886.98,-540 886.98,-540 880.98,-540 874.98,-534 874.98,-528 874.98,-528 874.98,-516 874.98,-516 874.98,-510 880.98,-504 886.98,-504 886.98,-504 1076.98,-504 1076.98,-504 1082.98,-504 1088.98,-510 1088.98,-516 1088.98,-516 1088.98,-528 1088.98,-528 1088.98,-534 1082.98,-540 1076.98,-540"/>
<text text-anchor="middle" x="981.98" y="-517.33" font-family="Helvetica,sans-Serif" font-size="14.00">SelectNexusFilesByMetadata</text>
</g>
<!-- Run&#45;&gt;SelectNexusFilesByMetadata -->
<g id="edge1" class="edge">
<title>Run&#45;&gt;SelectNexusFilesByMetadata</title>
<path fill="none" stroke="black" d="M981.98,-575.7C981.98,-568.41 981.98,-559.73 981.98,-551.54"/>
<polygon fill="black" stroke="black" points="985.48,-551.62 981.98,-541.62 978.48,-551.62 985.48,-551.62"/>
</g>
<!-- BackgroundRun -->
<g id="node3" class="node">
<title>BackgroundRun</title>
<ellipse fill="khaki" stroke="black" cx="1489.98" cy="-666" rx="88.56" ry="18"/>
<text text-anchor="middle" x="1489.98" y="-661.33" font-family="Helvetica,sans-Serif" font-size="14.00">BackgroundRun</text>
</g>
<!-- SelectNexusFilesByMetadataB -->
<g id="node14" class="node">
<title>SelectNexusFilesByMetadataB</title>
<path fill="lightskyblue" stroke="black" d="M1584.98,-612C1584.98,-612 1394.98,-612 1394.98,-612 1388.98,-612 1382.98,-606 1382.98,-600 1382.98,-600 1382.98,-588 1382.98,-588 1382.98,-582 1388.98,-576 1394.98,-576 1394.98,-576 1584.98,-576 1584.98,-576 1590.98,-576 1596.98,-582 1596.98,-588 1596.98,-588 1596.98,-600 1596.98,-600 1596.98,-606 1590.98,-612 1584.98,-612"/>
<text text-anchor="middle" x="1489.98" y="-589.33" font-family="Helvetica,sans-Serif" font-size="14.00">SelectNexusFilesByMetadata</text>
</g>
<!-- BackgroundRun&#45;&gt;SelectNexusFilesByMetadataB -->
<g id="edge5" class="edge">
<title>BackgroundRun&#45;&gt;SelectNexusFilesByMetadataB</title>
<path fill="none" stroke="black" d="M1489.98,-647.7C1489.98,-640.41 1489.98,-631.73 1489.98,-623.54"/>
<polygon fill="black" stroke="black" points="1493.48,-623.62 1489.98,-613.62 1486.48,-623.62 1493.48,-623.62"/>
</g>
<!-- CalibrationRun -->
<g id="node4" class="node">
<title>CalibrationRun</title>
<ellipse fill="khaki" stroke="black" cx="217.98" cy="-666" rx="82.77" ry="18"/>
<text text-anchor="middle" x="217.98" y="-661.33" font-family="Helvetica,sans-Serif" font-size="14.00">CalibrationRun</text>
</g>
<!-- SelectNexusFilesByMetadataC -->
<g id="node15" class="node">
<title>SelectNexusFilesByMetadataC</title>
<path fill="lightskyblue" stroke="black" d="M312.98,-612C312.98,-612 122.98,-612 122.98,-612 116.98,-612 110.98,-606 110.98,-600 110.98,-600 110.98,-588 110.98,-588 110.98,-582 116.98,-576 122.98,-576 122.98,-576 312.98,-576 312.98,-576 318.98,-576 324.98,-582 324.98,-588 324.98,-588 324.98,-600 324.98,-600 324.98,-606 318.98,-612 312.98,-612"/>
<text text-anchor="middle" x="217.98" y="-589.33" font-family="Helvetica,sans-Serif" font-size="14.00">SelectNexusFilesByMetadata</text>
</g>
<!-- CalibrationRun&#45;&gt;SelectNexusFilesByMetadataC -->
<g id="edge10" class="edge">
<title>CalibrationRun&#45;&gt;SelectNexusFilesByMetadataC</title>
<path fill="none" stroke="black" d="M217.98,-647.7C217.98,-640.41 217.98,-631.73 217.98,-623.54"/>
<polygon fill="black" stroke="black" points="221.48,-623.62 217.98,-613.62 214.48,-623.62 221.48,-623.62"/>
</g>
<!-- CalibrationBackgroundRun -->
<g id="node5" class="node">
<title>CalibrationBackgroundRun</title>
<ellipse fill="khaki" stroke="black" cx="831.98" cy="-738" rx="141.17" ry="18"/>
<text text-anchor="middle" x="831.98" y="-733.33" font-family="Helvetica,sans-Serif" font-size="14.00">CalibrationBackgroundRun</text>
</g>
<!-- SelectNexusFilesByMetadataD -->
<g id="node16" class="node">
<title>SelectNexusFilesByMetadataD</title>
<path fill="lightskyblue" stroke="black" d="M926.98,-684C926.98,-684 736.98,-684 736.98,-684 730.98,-684 724.98,-678 724.98,-672 724.98,-672 724.98,-660 724.98,-660 724.98,-654 730.98,-648 736.98,-648 736.98,-648 926.98,-648 926.98,-648 932.98,-648 938.98,-654 938.98,-660 938.98,-660 938.98,-672 938.98,-672 938.98,-678 932.98,-684 926.98,-684"/>
<text text-anchor="middle" x="831.98" y="-661.33" font-family="Helvetica,sans-Serif" font-size="14.00">SelectNexusFilesByMetadata</text>
</g>
<!-- CalibrationBackgroundRun&#45;&gt;SelectNexusFilesByMetadataD -->
<g id="edge13" class="edge">
<title>CalibrationBackgroundRun&#45;&gt;SelectNexusFilesByMetadataD</title>
<path fill="none" stroke="black" d="M831.98,-719.7C831.98,-712.41 831.98,-703.73 831.98,-695.54"/>
<polygon fill="black" stroke="black" points="835.48,-695.62 831.98,-685.62 828.48,-695.62 835.48,-695.62"/>
</g>
<!-- AlignmentRun -->
<g id="node6" class="node">
<title>AlignmentRun</title>
<ellipse fill="khaki" stroke="black" cx="148.98" cy="-450" rx="80.14" ry="18"/>
<text text-anchor="middle" x="148.98" y="-445.32" font-family="Helvetica,sans-Serif" font-size="14.00">AlignmentRun</text>
</g>
<!-- SelectNexusFilesByMetadataA -->
<g id="node13" class="node">
<title>SelectNexusFilesByMetadataA</title>
<path fill="lightskyblue" stroke="black" d="M348.98,-396C348.98,-396 158.98,-396 158.98,-396 152.98,-396 146.98,-390 146.98,-384 146.98,-384 146.98,-372 146.98,-372 146.98,-366 152.98,-360 158.98,-360 158.98,-360 348.98,-360 348.98,-360 354.98,-360 360.98,-366 360.98,-372 360.98,-372 360.98,-384 360.98,-384 360.98,-390 354.98,-396 348.98,-396"/>
<text text-anchor="middle" x="253.98" y="-373.32" font-family="Helvetica,sans-Serif" font-size="14.00">SelectNexusFilesByMetadata</text>
</g>
<!-- AlignmentRun&#45;&gt;SelectNexusFilesByMetadataA -->
<g id="edge24" class="edge">
<title>AlignmentRun&#45;&gt;SelectNexusFilesByMetadataA</title>
<path fill="none" stroke="black" d="M173.87,-432.41C187.2,-423.52 203.85,-412.42 218.52,-402.64"/>
<polygon fill="black" stroke="black" points="220.17,-405.75 226.55,-397.29 216.29,-399.92 220.17,-405.75"/>
</g>
<!-- BackgroundScalingFactor -->
<g id="node7" class="node">
<title>BackgroundScalingFactor</title>
<ellipse fill="khaki" stroke="black" cx="1240.98" cy="-522" rx="134.33" ry="18"/>
<text text-anchor="middle" x="1240.98" y="-517.33" font-family="Helvetica,sans-Serif" font-size="14.00">BackgroundScalingFactor</text>
</g>
<!-- ScaleA -->
<g id="node27" class="node">
<title>ScaleA</title>
<path fill="lightskyblue" stroke="black" d="M1255.98,-468C1255.98,-468 1225.98,-468 1225.98,-468 1219.98,-468 1213.98,-462 1213.98,-456 1213.98,-456 1213.98,-444 1213.98,-444 1213.98,-438 1219.98,-432 1225.98,-432 1225.98,-432 1255.98,-432 1255.98,-432 1261.98,-432 1267.98,-438 1267.98,-444 1267.98,-444 1267.98,-456 1267.98,-456 1267.98,-462 1261.98,-468 1255.98,-468"/>
<text text-anchor="middle" x="1240.98" y="-445.32" font-family="Helvetica,sans-Serif" font-size="14.00">Scale</text>
</g>
<!-- BackgroundScalingFactor&#45;&gt;ScaleA -->
<g id="edge8" class="edge">
<title>BackgroundScalingFactor&#45;&gt;ScaleA</title>
<path fill="none" stroke="black" d="M1240.98,-503.7C1240.98,-496.41 1240.98,-487.73 1240.98,-479.54"/>
<polygon fill="black" stroke="black" points="1244.48,-479.62 1240.98,-469.62 1237.48,-479.62 1244.48,-479.62"/>
</g>
<!-- CalibrationBackgroundScalingFactor -->
<g id="node8" class="node">
<title>CalibrationBackgroundScalingFactor</title>
<ellipse fill="khaki" stroke="black" cx="529.98" cy="-594" rx="186.94" ry="18"/>
<text text-anchor="middle" x="529.98" y="-589.33" font-family="Helvetica,sans-Serif" font-size="14.00">CalibrationBackgroundScalingFactor</text>
</g>
<!-- ScaleB -->
<g id="node28" class="node">
<title>ScaleB</title>
<path fill="lightskyblue" stroke="black" d="M544.98,-540C544.98,-540 514.98,-540 514.98,-540 508.98,-540 502.98,-534 502.98,-528 502.98,-528 502.98,-516 502.98,-516 502.98,-510 508.98,-504 514.98,-504 514.98,-504 544.98,-504 544.98,-504 550.98,-504 556.98,-510 556.98,-516 556.98,-516 556.98,-528 556.98,-528 556.98,-534 550.98,-540 544.98,-540"/>
<text text-anchor="middle" x="529.98" y="-517.33" font-family="Helvetica,sans-Serif" font-size="14.00">Scale</text>
</g>
<!-- CalibrationBackgroundScalingFactor&#45;&gt;ScaleB -->
<g id="edge17" class="edge">
<title>CalibrationBackgroundScalingFactor&#45;&gt;ScaleB</title>
<path fill="none" stroke="black" d="M529.98,-575.7C529.98,-568.41 529.98,-559.73 529.98,-551.54"/>
<polygon fill="black" stroke="black" points="533.48,-551.62 529.98,-541.62 526.48,-551.62 533.48,-551.62"/>
</g>
<!-- CalibrationPeakRange -->
<g id="node9" class="node">
<title>CalibrationPeakRange</title>
<ellipse fill="khaki" stroke="black" cx="364.98" cy="-450" rx="118.02" ry="18"/>
<text text-anchor="middle" x="364.98" y="-445.32" font-family="Helvetica,sans-Serif" font-size="14.00">CalibrationPeakRange</text>
</g>
<!-- Integration -->
<g id="node22" class="node">
<title>Integration</title>
<path fill="lightskyblue" stroke="black" d="M481.23,-396C481.23,-396 412.73,-396 412.73,-396 406.73,-396 400.73,-390 400.73,-384 400.73,-384 400.73,-372 400.73,-372 400.73,-366 406.73,-360 412.73,-360 412.73,-360 481.23,-360 481.23,-360 487.23,-360 493.23,-366 493.23,-372 493.23,-372 493.23,-384 493.23,-384 493.23,-390 487.23,-396 481.23,-396"/>
<text text-anchor="middle" x="446.98" y="-373.32" font-family="Helvetica,sans-Serif" font-size="14.00">Integration</text>
</g>
<!-- CalibrationPeakRange&#45;&gt;Integration -->
<g id="edge19" class="edge">
<title>CalibrationPeakRange&#45;&gt;Integration</title>
<path fill="none" stroke="black" d="M384.83,-432.05C394.86,-423.5 407.2,-412.96 418.24,-403.54"/>
<polygon fill="black" stroke="black" points="420.26,-406.41 425.6,-397.26 415.72,-401.09 420.26,-406.41"/>
</g>
<!-- UnmirrorOption -->
<g id="node10" class="node">
<title>UnmirrorOption</title>
<ellipse fill="khaki" stroke="black" cx="86.98" cy="-306" rx="86.98" ry="18"/>
<text text-anchor="middle" x="86.98" y="-301.32" font-family="Helvetica,sans-Serif" font-size="14.00">UnmirrorOption</text>
</g>
<!-- MatchPeaks -->
<g id="node29" class="node">
<title>MatchPeaks</title>
<path fill="lightskyblue" stroke="black" d="M326.23,-252C326.23,-252 251.73,-252 251.73,-252 245.73,-252 239.73,-246 239.73,-240 239.73,-240 239.73,-228 239.73,-228 239.73,-222 245.73,-216 251.73,-216 251.73,-216 326.23,-216 326.23,-216 332.23,-216 338.23,-222 338.23,-228 338.23,-228 338.23,-240 338.23,-240 338.23,-246 332.23,-252 326.23,-252"/>
<text text-anchor="middle" x="288.98" y="-229.32" font-family="Helvetica,sans-Serif" font-size="14.00">MatchPeaks</text>
</g>
<!-- UnmirrorOption&#45;&gt;MatchPeaks -->
<g id="edge23" class="edge">
<title>UnmirrorOption&#45;&gt;MatchPeaks</title>
<path fill="none" stroke="black" d="M130.32,-289.98C159.06,-280.02 197.18,-266.81 228.85,-255.84"/>
<polygon fill="black" stroke="black" points="229.59,-259.29 237.89,-252.7 227.3,-252.67 229.59,-259.29"/>
</g>
<!-- CropDeadMonitorChannels -->
<g id="node11" class="node">
<title>CropDeadMonitorChannels</title>
<ellipse fill="khaki" stroke="black" cx="715.98" cy="-522" rx="141.17" ry="18"/>
<text text-anchor="middle" x="715.98" y="-517.33" font-family="Helvetica,sans-Serif" font-size="14.00">CropDeadMonitorChannels</text>
</g>
<!-- IndirectILLEnergyTransfer -->
<g id="node17" class="node">
<title>IndirectILLEnergyTransfer</title>
<path fill="lightskyblue" stroke="black" d="M933.86,-468C933.86,-468 764.11,-468 764.11,-468 758.11,-468 752.11,-462 752.11,-456 752.11,-456 752.11,-444 752.11,-444 752.11,-438 758.11,-432 764.11,-432 764.11,-432 933.86,-432 933.86,-432 939.86,-432 945.86,-438 945.86,-444 945.86,-444 945.86,-456 945.86,-456 945.86,-462 939.86,-468 933.86,-468"/>
<text text-anchor="middle" x="848.98" y="-445.32" font-family="Helvetica,sans-Serif" font-size="14.00">IndirectILLEnergyTransfer</text>
</g>
<!-- CropDeadMonitorChannels&#45;&gt;IndirectILLEnergyTransfer -->
<g id="edge3" class="edge">
<title>CropDeadMonitorChannels&#45;&gt;IndirectILLEnergyTransfer</title>
<path fill="none" stroke="black" d="M748.18,-504.05C765.56,-494.91 787.25,-483.49 806.06,-473.59"/>
<polygon fill="black" stroke="black" points="807.6,-476.73 814.82,-468.98 804.34,-470.54 807.6,-476.73"/>
</g>
<!-- SelectNexusFilesByMetadata&#45;&gt;IndirectILLEnergyTransfer -->
<g id="edge2" class="edge">
<title>SelectNexusFilesByMetadata&#45;&gt;IndirectILLEnergyTransfer</title>
<path fill="none" stroke="black" d="M948.77,-503.52C931.5,-494.43 910.19,-483.22 891.71,-473.49"/>
<polygon fill="black" stroke="black" points="893.6,-470.53 883.12,-468.97 890.34,-476.72 893.6,-470.53"/>
</g>
<!-- IndirectILLEnergyTransferA -->
<g id="node18" class="node">
<title>IndirectILLEnergyTransferA</title>
<path fill="lightskyblue" stroke="black" d="M373.86,-324C373.86,-324 204.11,-324 204.11,-324 198.11,-324 192.11,-318 192.11,-312 192.11,-312 192.11,-300 192.11,-300 192.11,-294 198.11,-288 204.11,-288 204.11,-288 373.86,-288 373.86,-288 379.86,-288 385.86,-294 385.86,-300 385.86,-300 385.86,-312 385.86,-312 385.86,-318 379.86,-324 373.86,-324"/>
<text text-anchor="middle" x="288.98" y="-301.32" font-family="Helvetica,sans-Serif" font-size="14.00">IndirectILLEnergyTransfer</text>
</g>
<!-- SelectNexusFilesByMetadataA&#45;&gt;IndirectILLEnergyTransferA -->
<g id="edge25" class="edge">
<title>SelectNexusFilesByMetadataA&#45;&gt;IndirectILLEnergyTransferA</title>
<path fill="none" stroke="black" d="M262.64,-359.7C266.45,-352.07 271.03,-342.92 275.29,-334.4"/>
<polygon fill="black" stroke="black" points="278.41,-335.97 279.75,-325.46 272.15,-332.84 278.41,-335.97"/>
</g>
<!-- IndirectILLEnergyTransferB -->
<g id="node19" class="node">
<title>IndirectILLEnergyTransferB</title>
<path fill="lightskyblue" stroke="black" d="M1574.86,-540C1574.86,-540 1405.11,-540 1405.11,-540 1399.11,-540 1393.11,-534 1393.11,-528 1393.11,-528 1393.11,-516 1393.11,-516 1393.11,-510 1399.11,-504 1405.11,-504 1405.11,-504 1574.86,-504 1574.86,-504 1580.86,-504 1586.86,-510 1586.86,-516 1586.86,-516 1586.86,-528 1586.86,-528 1586.86,-534 1580.86,-540 1574.86,-540"/>
<text text-anchor="middle" x="1489.98" y="-517.33" font-family="Helvetica,sans-Serif" font-size="14.00">IndirectILLEnergyTransfer</text>
</g>
<!-- SelectNexusFilesByMetadataB&#45;&gt;IndirectILLEnergyTransferB -->
<g id="edge6" class="edge">
<title>SelectNexusFilesByMetadataB&#45;&gt;IndirectILLEnergyTransferB</title>
<path fill="none" stroke="black" d="M1489.98,-575.7C1489.98,-568.41 1489.98,-559.73 1489.98,-551.54"/>
<polygon fill="black" stroke="black" points="1493.48,-551.62 1489.98,-541.62 1486.48,-551.62 1493.48,-551.62"/>
</g>
<!-- IndirectILLEnergyTransferC -->
<g id="node20" class="node">
<title>IndirectILLEnergyTransferC</title>
<path fill="lightskyblue" stroke="black" d="M387.86,-540C387.86,-540 218.11,-540 218.11,-540 212.11,-540 206.11,-534 206.11,-528 206.11,-528 206.11,-516 206.11,-516 206.11,-510 212.11,-504 218.11,-504 218.11,-504 387.86,-504 387.86,-504 393.86,-504 399.86,-510 399.86,-516 399.86,-516 399.86,-528 399.86,-528 399.86,-534 393.86,-540 387.86,-540"/>
<text text-anchor="middle" x="302.98" y="-517.33" font-family="Helvetica,sans-Serif" font-size="14.00">IndirectILLEnergyTransfer</text>
</g>
<!-- SelectNexusFilesByMetadataC&#45;&gt;IndirectILLEnergyTransferC -->
<g id="edge11" class="edge">
<title>SelectNexusFilesByMetadataC&#45;&gt;IndirectILLEnergyTransferC</title>
<path fill="none" stroke="black" d="M238.99,-575.7C249.31,-567.2 261.93,-556.81 273.22,-547.51"/>
<polygon fill="black" stroke="black" points="275.26,-550.37 280.75,-541.31 270.81,-544.96 275.26,-550.37"/>
</g>
<!-- IndirectILLEnergyTransferD -->
<g id="node21" class="node">
<title>IndirectILLEnergyTransferD</title>
<path fill="lightskyblue" stroke="black" d="M916.86,-612C916.86,-612 747.11,-612 747.11,-612 741.11,-612 735.11,-606 735.11,-600 735.11,-600 735.11,-588 735.11,-588 735.11,-582 741.11,-576 747.11,-576 747.11,-576 916.86,-576 916.86,-576 922.86,-576 928.86,-582 928.86,-588 928.86,-588 928.86,-600 928.86,-600 928.86,-606 922.86,-612 916.86,-612"/>
<text text-anchor="middle" x="831.98" y="-589.33" font-family="Helvetica,sans-Serif" font-size="14.00">IndirectILLEnergyTransfer</text>
</g>
<!-- SelectNexusFilesByMetadataD&#45;&gt;IndirectILLEnergyTransferD -->
<g id="edge14" class="edge">
<title>SelectNexusFilesByMetadataD&#45;&gt;IndirectILLEnergyTransferD</title>
<path fill="none" stroke="black" d="M831.98,-647.7C831.98,-640.41 831.98,-631.73 831.98,-623.54"/>
<polygon fill="black" stroke="black" points="835.48,-623.62 831.98,-613.62 828.48,-623.62 835.48,-623.62"/>
</g>
<!-- MinusA -->
<g id="node23" class="node">
<title>MinusA</title>
<path fill="lightskyblue" stroke="black" d="M865.61,-396C865.61,-396 832.36,-396 832.36,-396 826.36,-396 820.36,-390 820.36,-384 820.36,-384 820.36,-372 820.36,-372 820.36,-366 826.36,-360 832.36,-360 832.36,-360 865.61,-360 865.61,-360 871.61,-360 877.61,-366 877.61,-372 877.61,-372 877.61,-384 877.61,-384 877.61,-390 871.61,-396 865.61,-396"/>
<text text-anchor="middle" x="848.98" y="-373.32" font-family="Helvetica,sans-Serif" font-size="14.00">Minus</text>
</g>
<!-- IndirectILLEnergyTransfer&#45;&gt;MinusA -->
<g id="edge4" class="edge">
<title>IndirectILLEnergyTransfer&#45;&gt;MinusA</title>
<path fill="none" stroke="black" d="M848.98,-431.7C848.98,-424.41 848.98,-415.73 848.98,-407.54"/>
<polygon fill="black" stroke="black" points="852.48,-407.62 848.98,-397.62 845.48,-407.62 852.48,-407.62"/>
</g>
<!-- IndirectILLEnergyTransferA&#45;&gt;MatchPeaks -->
<g id="edge26" class="edge">
<title>IndirectILLEnergyTransferA&#45;&gt;MatchPeaks</title>
<path fill="none" stroke="black" d="M288.98,-287.7C288.98,-280.41 288.98,-271.73 288.98,-263.54"/>
<polygon fill="black" stroke="black" points="292.48,-263.62 288.98,-253.62 285.48,-263.62 292.48,-263.62"/>
</g>
<!-- IndirectILLEnergyTransferB&#45;&gt;ScaleA -->
<g id="edge7" class="edge">
<title>IndirectILLEnergyTransferB&#45;&gt;ScaleA</title>
<path fill="none" stroke="black" d="M1427.79,-503.52C1381.25,-490.43 1319.05,-472.95 1279.5,-461.83"/>
<polygon fill="black" stroke="black" points="1280.51,-458.48 1269.94,-459.14 1278.62,-465.22 1280.51,-458.48"/>
</g>
<!-- MinusB -->
<g id="node24" class="node">
<title>MinusB</title>
<path fill="lightskyblue" stroke="black" d="M546.61,-468C546.61,-468 513.36,-468 513.36,-468 507.36,-468 501.36,-462 501.36,-456 501.36,-456 501.36,-444 501.36,-444 501.36,-438 507.36,-432 513.36,-432 513.36,-432 546.61,-432 546.61,-432 552.61,-432 558.61,-438 558.61,-444 558.61,-444 558.61,-456 558.61,-456 558.61,-462 552.61,-468 546.61,-468"/>
<text text-anchor="middle" x="529.98" y="-445.32" font-family="Helvetica,sans-Serif" font-size="14.00">Minus</text>
</g>
<!-- IndirectILLEnergyTransferC&#45;&gt;MinusB -->
<g id="edge12" class="edge">
<title>IndirectILLEnergyTransferC&#45;&gt;MinusB</title>
<path fill="none" stroke="black" d="M374.67,-503.56C407.61,-494.93 447.26,-483.67 490.38,-468.32"/>
<polygon fill="black" stroke="black" points="491.48,-471.65 499.69,-464.96 489.1,-465.06 491.48,-471.65"/>
</g>
<!-- IndirectILLEnergyTransferD&#45;&gt;ScaleB -->
<g id="edge15" class="edge">
<title>IndirectILLEnergyTransferD&#45;&gt;ScaleB</title>
<path fill="none" stroke="black" d="M734.88,-576.22C677.52,-565.85 609.51,-552.67 567.95,-540.13"/>
<polygon fill="black" stroke="black" points="569.25,-536.87 558.66,-537.16 567.12,-543.54 569.25,-536.87"/>
</g>
<!-- Divide -->
<g id="node25" class="node">
<title>Divide</title>
<path fill="lightskyblue" stroke="black" d="M464.73,-324C464.73,-324 429.23,-324 429.23,-324 423.23,-324 417.23,-318 417.23,-312 417.23,-312 417.23,-300 417.23,-300 417.23,-294 423.23,-288 429.23,-288 429.23,-288 464.73,-288 464.73,-288 470.73,-288 476.73,-294 476.73,-300 476.73,-300 476.73,-312 476.73,-312 476.73,-318 470.73,-324 464.73,-324"/>
<text text-anchor="middle" x="446.98" y="-301.32" font-family="Helvetica,sans-Serif" font-size="14.00">Divide</text>
</g>
<!-- Integration&#45;&gt;Divide -->
<g id="edge20" class="edge">
<title>Integration&#45;&gt;Divide</title>
<path fill="none" stroke="black" d="M446.98,-359.7C446.98,-352.41 446.98,-343.73 446.98,-335.54"/>
<polygon fill="black" stroke="black" points="450.48,-335.62 446.98,-325.62 443.48,-335.62 450.48,-335.62"/>
</g>
<!-- MinusA&#45;&gt;Divide -->
<g id="edge21" class="edge">
<title>MinusA&#45;&gt;Divide</title>
<path fill="none" stroke="black" d="M820.07,-371.97C749.81,-359.73 569.86,-328.4 488.29,-314.19"/>
<polygon fill="black" stroke="black" points="488.93,-310.75 478.48,-312.48 487.73,-317.65 488.93,-310.75"/>
</g>
<!-- MinusB&#45;&gt;Integration -->
<g id="edge18" class="edge">
<title>MinusB&#45;&gt;Integration</title>
<path fill="none" stroke="black" d="M509.47,-431.7C499.39,-423.2 487.08,-412.81 476.05,-403.51"/>
<polygon fill="black" stroke="black" points="478.61,-401.09 468.71,-397.32 474.1,-406.45 478.61,-401.09"/>
</g>
<!-- Divide&#45;&gt;MatchPeaks -->
<g id="edge22" class="edge">
<title>Divide&#45;&gt;MatchPeaks</title>
<path fill="none" stroke="black" d="M416.89,-291.67C394.78,-281.87 364.24,-268.34 338.54,-256.96"/>
<polygon fill="black" stroke="black" points="340.18,-253.85 329.62,-253 337.34,-260.25 340.18,-253.85"/>
</g>
<!-- Plus -->
<g id="node26" class="node">
<title>Plus</title>
<path fill="lightskyblue" stroke="black" d="M303.98,-180C303.98,-180 273.98,-180 273.98,-180 267.98,-180 261.98,-174 261.98,-168 261.98,-168 261.98,-156 261.98,-156 261.98,-150 267.98,-144 273.98,-144 273.98,-144 303.98,-144 303.98,-144 309.98,-144 315.98,-150 315.98,-156 315.98,-156 315.98,-168 315.98,-168 315.98,-174 309.98,-180 303.98,-180"/>
<text text-anchor="middle" x="288.98" y="-157.32" font-family="Helvetica,sans-Serif" font-size="14.00">Plus</text>
</g>
<!-- GroupWorkspaces -->
<g id="node30" class="node">
<title>GroupWorkspaces</title>
<path fill="lightskyblue" stroke="black" d="M347.61,-108C347.61,-108 230.36,-108 230.36,-108 224.36,-108 218.36,-102 218.36,-96 218.36,-96 218.36,-84 218.36,-84 218.36,-78 224.36,-72 230.36,-72 230.36,-72 347.61,-72 347.61,-72 353.61,-72 359.61,-78 359.61,-84 359.61,-84 359.61,-96 359.61,-96 359.61,-102 353.61,-108 347.61,-108"/>
<text text-anchor="middle" x="288.98" y="-85.33" font-family="Helvetica,sans-Serif" font-size="14.00">GroupWorkspaces</text>
</g>
<!-- Plus&#45;&gt;GroupWorkspaces -->
<g id="edge28" class="edge">
<title>Plus&#45;&gt;GroupWorkspaces</title>
<path fill="none" stroke="black" d="M288.98,-143.7C288.98,-136.41 288.98,-127.73 288.98,-119.54"/>
<polygon fill="black" stroke="black" points="292.48,-119.62 288.98,-109.62 285.48,-119.62 292.48,-119.62"/>
</g>
<!-- ScaleA&#45;&gt;MinusA -->
<g id="edge9" class="edge">
<title>ScaleA&#45;&gt;MinusA</title>
<path fill="none" stroke="black" d="M1213.73,-444.13C1145.8,-432 968.69,-400.38 888.94,-386.13"/>
<polygon fill="black" stroke="black" points="889.85,-382.74 879.39,-384.43 888.62,-389.63 889.85,-382.74"/>
</g>
<!-- ScaleB&#45;&gt;MinusB -->
<g id="edge16" class="edge">
<title>ScaleB&#45;&gt;MinusB</title>
<path fill="none" stroke="black" d="M529.98,-503.7C529.98,-496.41 529.98,-487.73 529.98,-479.54"/>
<polygon fill="black" stroke="black" points="533.48,-479.62 529.98,-469.62 526.48,-479.62 533.48,-479.62"/>
</g>
<!-- MatchPeaks&#45;&gt;Plus -->
<g id="edge27" class="edge">
<title>MatchPeaks&#45;&gt;Plus</title>
<path fill="none" stroke="black" d="M288.98,-215.7C288.98,-208.41 288.98,-199.73 288.98,-191.54"/>
<polygon fill="black" stroke="black" points="292.48,-191.62 288.98,-181.62 285.48,-191.62 292.48,-191.62"/>
</g>
<!-- GroupWorkspaces&#45;&gt;OutputWorkspace -->
<g id="edge29" class="edge">
<title>GroupWorkspaces&#45;&gt;OutputWorkspace</title>
<path fill="none" stroke="black" d="M288.98,-71.7C288.98,-64.41 288.98,-55.73 288.98,-47.54"/>
<polygon fill="black" stroke="black" points="292.48,-47.62 288.98,-37.62 285.48,-47.62 292.48,-47.62"/>
</g>
</g>
</svg>
