<?xml version="1.0" encoding="UTF-8" standalone="no"?>
<!DOCTYPE svg PUBLIC "-//W3C//DTD SVG 1.1//EN"
 "http://www.w3.org/Graphics/SVG/1.1/DTD/svg11.dtd">
<!-- Generated by graphviz version 7.0.5 (20221231.0122)
 -->
<!-- Title: IndirectFlatePlateAbsorption Pages: 1 -->
<svg width="1472pt" height="1844pt"
 viewBox="0.00 0.00 1472.13 1844.00" xmlns="http://www.w3.org/2000/svg" xmlns:xlink="http://www.w3.org/1999/xlink">
<g id="graph0" class="graph" transform="scale(1 1) rotate(0) translate(4 1840)">
<title>IndirectFlatePlateAbsorption</title>
<polygon fill="white" stroke="none" points="-4,4 -4,-1840 1468.13,-1840 1468.13,4 -4,4"/>
<text text-anchor="middle" x="732.07" y="-1820.8" font-family="Helvetica,sans-Serif" font-size="14.00">IndirectFlatePlateAbsorption Flowchart</text>
<!-- SampleWorkspace1 -->
<g id="node1" class="node">
<title>SampleWorkspace1</title>
<ellipse fill="khaki" stroke="black" cx="726.09" cy="-1795" rx="93.68" ry="18"/>
<text text-anchor="middle" x="726.09" y="-1791.3" font-family="Helvetica,sans-Serif" font-size="14.00">SampleWorkspace</text>
</g>
<!-- GetEFixed -->
<g id="node25" class="node">
<title>GetEFixed</title>
<path fill="lightskyblue" stroke="black" d="M720.59,-1740C720.59,-1740 659.59,-1740 659.59,-1740 653.59,-1740 647.59,-1734 647.59,-1728 647.59,-1728 647.59,-1716 647.59,-1716 647.59,-1710 653.59,-1704 659.59,-1704 659.59,-1704 720.59,-1704 720.59,-1704 726.59,-1704 732.59,-1710 732.59,-1716 732.59,-1716 732.59,-1728 732.59,-1728 732.59,-1734 726.59,-1740 720.59,-1740"/>
<text text-anchor="middle" x="690.09" y="-1718.3" font-family="Helvetica,sans-Serif" font-size="14.00">GetEFixed</text>
</g>
<!-- SampleWorkspace1&#45;&gt;GetEFixed -->
<g id="edge1" class="edge">
<title>SampleWorkspace1&#45;&gt;GetEFixed</title>
<path fill="none" stroke="black" d="M717.38,-1776.81C713.31,-1768.79 708.37,-1759.05 703.82,-1750.07"/>
<polygon fill="black" stroke="black" points="707.06,-1748.71 699.41,-1741.38 700.81,-1751.88 707.06,-1748.71"/>
</g>
<!-- ConvertUnits1 -->
<g id="node26" class="node">
<title>ConvertUnits1</title>
<path fill="lightskyblue" stroke="black" d="M805.59,-1594C805.59,-1594 722.59,-1594 722.59,-1594 716.59,-1594 710.59,-1588 710.59,-1582 710.59,-1582 710.59,-1570 710.59,-1570 710.59,-1564 716.59,-1558 722.59,-1558 722.59,-1558 805.59,-1558 805.59,-1558 811.59,-1558 817.59,-1564 817.59,-1570 817.59,-1570 817.59,-1582 817.59,-1582 817.59,-1588 811.59,-1594 805.59,-1594"/>
<text text-anchor="middle" x="764.09" y="-1572.3" font-family="Helvetica,sans-Serif" font-size="14.00">ConvertUnits</text>
</g>
<!-- SampleWorkspace1&#45;&gt;ConvertUnits1 -->
<g id="edge4" class="edge">
<title>SampleWorkspace1&#45;&gt;ConvertUnits1</title>
<path fill="none" stroke="black" d="M731.54,-1776.63C734.68,-1766.11 738.51,-1752.38 741.09,-1740 750.82,-1693.36 757.63,-1638.34 761.2,-1605.64"/>
<polygon fill="black" stroke="black" points="764.67,-1606.08 762.25,-1595.76 757.71,-1605.34 764.67,-1606.08"/>
</g>
<!-- SampleWorkspace2 -->
<g id="node2" class="node">
<title>SampleWorkspace2</title>
<ellipse fill="khaki" stroke="black" cx="335.09" cy="-543" rx="93.68" ry="18"/>
<text text-anchor="middle" x="335.09" y="-539.3" font-family="Helvetica,sans-Serif" font-size="14.00">SampleWorkspace</text>
</g>
<!-- Minus1 -->
<g id="node37" class="node">
<title>Minus1</title>
<path fill="lightskyblue" stroke="black" d="M414.09,-415C414.09,-415 380.09,-415 380.09,-415 374.09,-415 368.09,-409 368.09,-403 368.09,-403 368.09,-391 368.09,-391 368.09,-385 374.09,-379 380.09,-379 380.09,-379 414.09,-379 414.09,-379 420.09,-379 426.09,-385 426.09,-391 426.09,-391 426.09,-403 426.09,-403 426.09,-409 420.09,-415 414.09,-415"/>
<text text-anchor="middle" x="397.09" y="-393.3" font-family="Helvetica,sans-Serif" font-size="14.00">Minus</text>
</g>
<!-- SampleWorkspace2&#45;&gt;Minus1 -->
<g id="edge35" class="edge">
<title>SampleWorkspace2&#45;&gt;Minus1</title>
<path fill="none" stroke="black" d="M342.57,-524.63C353.14,-500.09 372.55,-455 385.13,-425.78"/>
<polygon fill="black" stroke="black" points="388.25,-427.39 388.99,-416.82 381.82,-424.62 388.25,-427.39"/>
</g>
<!-- Minus2 -->
<g id="node38" class="node">
<title>Minus2</title>
<path fill="lightskyblue" stroke="black" d="M295.09,-488C295.09,-488 261.09,-488 261.09,-488 255.09,-488 249.09,-482 249.09,-476 249.09,-476 249.09,-464 249.09,-464 249.09,-458 255.09,-452 261.09,-452 261.09,-452 295.09,-452 295.09,-452 301.09,-452 307.09,-458 307.09,-464 307.09,-464 307.09,-476 307.09,-476 307.09,-482 301.09,-488 295.09,-488"/>
<text text-anchor="middle" x="278.09" y="-466.3" font-family="Helvetica,sans-Serif" font-size="14.00">Minus</text>
</g>
<!-- SampleWorkspace2&#45;&gt;Minus2 -->
<g id="edge37" class="edge">
<title>SampleWorkspace2&#45;&gt;Minus2</title>
<path fill="none" stroke="black" d="M321.3,-524.81C314.57,-516.44 306.35,-506.2 298.89,-496.9"/>
<polygon fill="black" stroke="black" points="301.7,-494.82 292.71,-489.21 296.24,-499.2 301.7,-494.82"/>
</g>
<!-- SampleWorkspace_Wave -->
<g id="node3" class="node">
<title>SampleWorkspace_Wave</title>
<ellipse fill="khaki" stroke="black" cx="832.09" cy="-1489" rx="122.38" ry="18"/>
<text text-anchor="middle" x="832.09" y="-1485.3" font-family="Helvetica,sans-Serif" font-size="14.00">SampleWorkspace_Wave</text>
</g>
<!-- SetSampleMaterial1 -->
<g id="node29" class="node">
<title>SetSampleMaterial1</title>
<path fill="lightskyblue" stroke="black" d="M1083.09,-1434C1083.09,-1434 961.09,-1434 961.09,-1434 955.09,-1434 949.09,-1428 949.09,-1422 949.09,-1422 949.09,-1410 949.09,-1410 949.09,-1404 955.09,-1398 961.09,-1398 961.09,-1398 1083.09,-1398 1083.09,-1398 1089.09,-1398 1095.09,-1404 1095.09,-1410 1095.09,-1410 1095.09,-1422 1095.09,-1422 1095.09,-1428 1089.09,-1434 1083.09,-1434"/>
<text text-anchor="middle" x="1022.09" y="-1412.3" font-family="Helvetica,sans-Serif" font-size="14.00">SetSampleMaterial</text>
</g>
<!-- SampleWorkspace_Wave&#45;&gt;SetSampleMaterial1 -->
<g id="edge6" class="edge">
<title>SampleWorkspace_Wave&#45;&gt;SetSampleMaterial1</title>
<path fill="none" stroke="black" d="M875.68,-1471.71C902.11,-1461.84 936.13,-1449.12 964.72,-1438.44"/>
<polygon fill="black" stroke="black" points="965.83,-1441.76 973.97,-1434.98 963.38,-1435.21 965.83,-1441.76"/>
</g>
<!-- SampleWorkspace_Wave2 -->
<g id="node4" class="node">
<title>SampleWorkspace_Wave2</title>
<ellipse fill="khaki" stroke="black" cx="397.09" cy="-324" rx="122.38" ry="18"/>
<text text-anchor="middle" x="397.09" y="-320.3" font-family="Helvetica,sans-Serif" font-size="14.00">SampleWorkspace_Wave</text>
</g>
<!-- ConvertUnits3 -->
<g id="node28" class="node">
<title>ConvertUnits3</title>
<path fill="lightskyblue" stroke="black" d="M438.59,-255C438.59,-255 355.59,-255 355.59,-255 349.59,-255 343.59,-249 343.59,-243 343.59,-243 343.59,-231 343.59,-231 343.59,-225 349.59,-219 355.59,-219 355.59,-219 438.59,-219 438.59,-219 444.59,-219 450.59,-225 450.59,-231 450.59,-231 450.59,-243 450.59,-243 450.59,-249 444.59,-255 438.59,-255"/>
<text text-anchor="middle" x="397.09" y="-233.3" font-family="Helvetica,sans-Serif" font-size="14.00">ConvertUnits</text>
</g>
<!-- SampleWorkspace_Wave2&#45;&gt;ConvertUnits3 -->
<g id="edge45" class="edge">
<title>SampleWorkspace_Wave2&#45;&gt;ConvertUnits3</title>
<path fill="none" stroke="black" d="M397.09,-305.8C397.09,-294.58 397.09,-279.67 397.09,-266.69"/>
<polygon fill="black" stroke="black" points="400.59,-266.98 397.09,-256.98 393.59,-266.98 400.59,-266.98"/>
<text text-anchor="middle" x="477.09" y="-276.8" font-family="Helvetica,sans-Serif" font-size="14.00">Convert back to DeltaE</text>
</g>
<!-- SampleWorkspace_Wave3 -->
<g id="node5" class="node">
<title>SampleWorkspace_Wave3</title>
<ellipse fill="khaki" stroke="black" cx="795.09" cy="-1197" rx="122.38" ry="18"/>
<text text-anchor="middle" x="795.09" y="-1193.3" font-family="Helvetica,sans-Serif" font-size="14.00">SampleWorkspace_Wave</text>
</g>
<!-- Divide3 -->
<g id="node36" class="node">
<title>Divide3</title>
<path fill="lightskyblue" stroke="black" d="M813.09,-1128C813.09,-1128 777.09,-1128 777.09,-1128 771.09,-1128 765.09,-1122 765.09,-1116 765.09,-1116 765.09,-1104 765.09,-1104 765.09,-1098 771.09,-1092 777.09,-1092 777.09,-1092 813.09,-1092 813.09,-1092 819.09,-1092 825.09,-1098 825.09,-1104 825.09,-1104 825.09,-1116 825.09,-1116 825.09,-1122 819.09,-1128 813.09,-1128"/>
<text text-anchor="middle" x="795.09" y="-1106.3" font-family="Helvetica,sans-Serif" font-size="14.00">Divide</text>
</g>
<!-- SampleWorkspace_Wave3&#45;&gt;Divide3 -->
<g id="edge41" class="edge">
<title>SampleWorkspace_Wave3&#45;&gt;Divide3</title>
<path fill="none" stroke="black" d="M795.09,-1178.8C795.09,-1167.58 795.09,-1152.67 795.09,-1139.69"/>
<polygon fill="black" stroke="black" points="798.59,-1139.98 795.09,-1129.98 791.59,-1139.98 798.59,-1139.98"/>
</g>
<!-- SampleChemicalFormula -->
<g id="node6" class="node">
<title>SampleChemicalFormula</title>
<ellipse fill="khaki" stroke="black" cx="1094.09" cy="-1489" rx="122.38" ry="18"/>
<text text-anchor="middle" x="1094.09" y="-1485.3" font-family="Helvetica,sans-Serif" font-size="14.00">SampleChemicalFormula</text>
</g>
<!-- SampleChemicalFormula&#45;&gt;SetSampleMaterial1 -->
<g id="edge7" class="edge">
<title>SampleChemicalFormula&#45;&gt;SetSampleMaterial1</title>
<path fill="none" stroke="black" d="M1076.66,-1470.81C1067.97,-1462.24 1057.29,-1451.71 1047.69,-1442.24"/>
<polygon fill="black" stroke="black" points="1050.27,-1439.87 1040.69,-1435.34 1045.35,-1444.85 1050.27,-1439.87"/>
</g>
<!-- SampleNumberDensity -->
<g id="node7" class="node">
<title>SampleNumberDensity</title>
<ellipse fill="khaki" stroke="black" cx="1349.09" cy="-1489" rx="115.08" ry="18"/>
<text text-anchor="middle" x="1349.09" y="-1485.3" font-family="Helvetica,sans-Serif" font-size="14.00">SampleNumberDensity</text>
</g>
<!-- SampleNumberDensity&#45;&gt;SetSampleMaterial1 -->
<g id="edge8" class="edge">
<title>SampleNumberDensity&#45;&gt;SetSampleMaterial1</title>
<path fill="none" stroke="black" d="M1283.71,-1473.8C1232.79,-1462.75 1161.73,-1447.32 1106.52,-1435.33"/>
<polygon fill="black" stroke="black" points="1107.34,-1431.93 1096.82,-1433.23 1105.85,-1438.77 1107.34,-1431.93"/>
</g>
<!-- SampleHeight1 -->
<g id="node8" class="node">
<title>SampleHeight1</title>
<ellipse fill="khaki" stroke="black" cx="74.09" cy="-1416" rx="74.19" ry="18"/>
<text text-anchor="middle" x="74.09" y="-1412.3" font-family="Helvetica,sans-Serif" font-size="14.00">SampleHeight</text>
</g>
<!-- FlatPlateAbsorption1 -->
<g id="node31" class="node">
<title>FlatPlateAbsorption1</title>
<path fill="lightskyblue" stroke="black" d="M565.09,-1361C565.09,-1361 437.09,-1361 437.09,-1361 431.09,-1361 425.09,-1355 425.09,-1349 425.09,-1349 425.09,-1337 425.09,-1337 425.09,-1331 431.09,-1325 437.09,-1325 437.09,-1325 565.09,-1325 565.09,-1325 571.09,-1325 577.09,-1331 577.09,-1337 577.09,-1337 577.09,-1349 577.09,-1349 577.09,-1355 571.09,-1361 565.09,-1361"/>
<text text-anchor="middle" x="501.09" y="-1339.3" font-family="Helvetica,sans-Serif" font-size="14.00">FlatePlatAbsorption</text>
</g>
<!-- SampleHeight1&#45;&gt;FlatPlateAbsorption1 -->
<g id="edge10" class="edge">
<title>SampleHeight1&#45;&gt;FlatPlateAbsorption1</title>
<path fill="none" stroke="black" d="M128.49,-1403.48C138.01,-1401.57 147.83,-1399.67 157.09,-1398 244.02,-1382.28 343.78,-1366.92 413.41,-1356.62"/>
<polygon fill="black" stroke="black" points="413.87,-1360.09 423.25,-1355.17 412.85,-1353.16 413.87,-1360.09"/>
</g>
<!-- SampleWidth1 -->
<g id="node9" class="node">
<title>SampleWidth1</title>
<ellipse fill="khaki" stroke="black" cx="237.09" cy="-1416" rx="70.69" ry="18"/>
<text text-anchor="middle" x="237.09" y="-1412.3" font-family="Helvetica,sans-Serif" font-size="14.00">SampleWidth</text>
</g>
<!-- SampleWidth1&#45;&gt;FlatPlateAbsorption1 -->
<g id="edge11" class="edge">
<title>SampleWidth1&#45;&gt;FlatPlateAbsorption1</title>
<path fill="none" stroke="black" d="M284.6,-1402.22C323.68,-1391.71 379.82,-1376.62 425.14,-1364.43"/>
<polygon fill="black" stroke="black" points="425.9,-1367.85 434.65,-1361.87 424.08,-1361.09 425.9,-1367.85"/>
</g>
<!-- SampleThickness -->
<g id="node10" class="node">
<title>SampleThickness</title>
<ellipse fill="khaki" stroke="black" cx="415.09" cy="-1416" rx="89.08" ry="18"/>
<text text-anchor="middle" x="415.09" y="-1412.3" font-family="Helvetica,sans-Serif" font-size="14.00">SampleThickness</text>
</g>
<!-- SampleThickness&#45;&gt;FlatPlateAbsorption1 -->
<g id="edge12" class="edge">
<title>SampleThickness&#45;&gt;FlatPlateAbsorption1</title>
<path fill="none" stroke="black" d="M435.47,-1398.17C446.16,-1389.35 459.45,-1378.38 471.28,-1368.62"/>
<polygon fill="black" stroke="black" points="473.31,-1371.48 478.79,-1362.41 468.85,-1366.08 473.31,-1371.48"/>
</g>
<!-- AbsWorkspace1 -->
<g id="node11" class="node">
<title>AbsWorkspace1</title>
<ellipse fill="khaki" stroke="black" cx="501.09" cy="-1270" rx="109.38" ry="18"/>
<text text-anchor="middle" x="501.09" y="-1266.3" font-family="Helvetica,sans-Serif" font-size="14.00">AbsorptionWorkspace</text>
</g>
<!-- canGiven -->
<g id="node41" class="node">
<title>canGiven</title>
<polygon fill="limegreen" stroke="black" points="501.09,-1215 380.77,-1197 501.09,-1179 621.41,-1197 501.09,-1215"/>
<text text-anchor="middle" x="501.09" y="-1193.3" font-family="Helvetica,sans-Serif" font-size="14.00">Can Workspace?</text>
</g>
<!-- AbsWorkspace1&#45;&gt;canGiven -->
<g id="edge16" class="edge">
<title>AbsWorkspace1&#45;&gt;canGiven</title>
<path fill="none" stroke="black" d="M501.09,-1251.81C501.09,-1244.23 501.09,-1235.1 501.09,-1226.54"/>
<polygon fill="black" stroke="black" points="504.59,-1226.54 501.09,-1216.54 497.59,-1226.54 504.59,-1226.54"/>
</g>
<!-- AbsWorkspace2 -->
<g id="node12" class="node">
<title>AbsWorkspace2</title>
<ellipse fill="khaki" stroke="black" cx="122.09" cy="-470" rx="109.38" ry="18"/>
<text text-anchor="middle" x="122.09" y="-466.3" font-family="Helvetica,sans-Serif" font-size="14.00">AbsorptionWorkspace</text>
</g>
<!-- Divide2 -->
<g id="node35" class="node">
<title>Divide2</title>
<path fill="lightskyblue" stroke="black" d="M296.09,-415C296.09,-415 260.09,-415 260.09,-415 254.09,-415 248.09,-409 248.09,-403 248.09,-403 248.09,-391 248.09,-391 248.09,-385 254.09,-379 260.09,-379 260.09,-379 296.09,-379 296.09,-379 302.09,-379 308.09,-385 308.09,-391 308.09,-391 308.09,-403 308.09,-403 308.09,-409 302.09,-415 296.09,-415"/>
<text text-anchor="middle" x="278.09" y="-393.3" font-family="Helvetica,sans-Serif" font-size="14.00">Divide</text>
</g>
<!-- AbsWorkspace2&#45;&gt;Divide2 -->
<g id="edge39" class="edge">
<title>AbsWorkspace2&#45;&gt;Divide2</title>
<path fill="none" stroke="black" d="M158.28,-452.53C181.88,-441.79 212.73,-427.75 237.21,-416.61"/>
<polygon fill="black" stroke="black" points="238.59,-419.82 246.24,-412.5 235.69,-413.45 238.59,-419.82"/>
</g>
<!-- CanWorkspace -->
<g id="node13" class="node">
<title>CanWorkspace</title>
<ellipse fill="khaki" stroke="black" cx="304.09" cy="-1110" rx="77.19" ry="18"/>
<text text-anchor="middle" x="304.09" y="-1106.3" font-family="Helvetica,sans-Serif" font-size="14.00">CanWorkspace</text>
</g>
<!-- ConvertUnits2 -->
<g id="node27" class="node">
<title>ConvertUnits2</title>
<path fill="lightskyblue" stroke="black" d="M195.59,-1055C195.59,-1055 112.59,-1055 112.59,-1055 106.59,-1055 100.59,-1049 100.59,-1043 100.59,-1043 100.59,-1031 100.59,-1031 100.59,-1025 106.59,-1019 112.59,-1019 112.59,-1019 195.59,-1019 195.59,-1019 201.59,-1019 207.59,-1025 207.59,-1031 207.59,-1031 207.59,-1043 207.59,-1043 207.59,-1049 201.59,-1055 195.59,-1055"/>
<text text-anchor="middle" x="154.09" y="-1033.3" font-family="Helvetica,sans-Serif" font-size="14.00">ConvertUnits</text>
</g>
<!-- CanWorkspace&#45;&gt;ConvertUnits2 -->
<g id="edge18" class="edge">
<title>CanWorkspace&#45;&gt;ConvertUnits2</title>
<path fill="none" stroke="black" d="M271.18,-1093.42C250.61,-1083.68 223.8,-1070.99 201.03,-1060.22"/>
<polygon fill="black" stroke="black" points="202.79,-1057.18 192.25,-1056.06 199.79,-1063.5 202.79,-1057.18"/>
</g>
<!-- CanWorkspace_Wave -->
<g id="node14" class="node">
<title>CanWorkspace_Wave</title>
<ellipse fill="khaki" stroke="black" cx="138.09" cy="-950" rx="106.68" ry="18"/>
<text text-anchor="middle" x="138.09" y="-946.3" font-family="Helvetica,sans-Serif" font-size="14.00">CanWorkspace_Wave</text>
</g>
<!-- canScale -->
<g id="node42" class="node">
<title>canScale</title>
<polygon fill="limegreen" stroke="black" points="132.09,-895 47.47,-877 132.09,-859 216.72,-877 132.09,-895"/>
<text text-anchor="middle" x="132.09" y="-873.3" font-family="Helvetica,sans-Serif" font-size="14.00">Can Scale?</text>
</g>
<!-- CanWorkspace_Wave&#45;&gt;canScale -->
<g id="edge21" class="edge">
<title>CanWorkspace_Wave&#45;&gt;canScale</title>
<path fill="none" stroke="black" d="M136.64,-931.81C135.99,-924.14 135.21,-914.89 134.48,-906.24"/>
<polygon fill="black" stroke="black" points="137.99,-906.21 133.66,-896.54 131.01,-906.8 137.99,-906.21"/>
</g>
<!-- CanScale -->
<g id="node15" class="node">
<title>CanScale</title>
<ellipse fill="khaki" stroke="black" cx="287.09" cy="-877" rx="51.99" ry="18"/>
<text text-anchor="middle" x="287.09" y="-873.3" font-family="Helvetica,sans-Serif" font-size="14.00">CanScale</text>
</g>
<!-- Scale -->
<g id="node33" class="node">
<title>Scale</title>
<path fill="lightskyblue" stroke="black" d="M301.09,-808C301.09,-808 271.09,-808 271.09,-808 265.09,-808 259.09,-802 259.09,-796 259.09,-796 259.09,-784 259.09,-784 259.09,-778 265.09,-772 271.09,-772 271.09,-772 301.09,-772 301.09,-772 307.09,-772 313.09,-778 313.09,-784 313.09,-784 313.09,-796 313.09,-796 313.09,-802 307.09,-808 301.09,-808"/>
<text text-anchor="middle" x="286.09" y="-786.3" font-family="Helvetica,sans-Serif" font-size="14.00">Scale</text>
</g>
<!-- CanScale&#45;&gt;Scale -->
<g id="edge23" class="edge">
<title>CanScale&#45;&gt;Scale</title>
<path fill="none" stroke="black" d="M286.89,-858.8C286.76,-847.58 286.58,-832.67 286.43,-819.69"/>
<polygon fill="black" stroke="black" points="289.93,-819.94 286.32,-809.98 282.93,-820.02 289.93,-819.94"/>
</g>
<!-- CanChemicalFormula -->
<g id="node16" class="node">
<title>CanChemicalFormula</title>
<ellipse fill="khaki" stroke="black" cx="452.09" cy="-717" rx="105.88" ry="18"/>
<text text-anchor="middle" x="452.09" y="-713.3" font-family="Helvetica,sans-Serif" font-size="14.00">CanChemicalFormula</text>
</g>
<!-- SetSampleMaterial2 -->
<g id="node30" class="node">
<title>SetSampleMaterial2</title>
<path fill="lightskyblue" stroke="black" d="M749.09,-648C749.09,-648 627.09,-648 627.09,-648 621.09,-648 615.09,-642 615.09,-636 615.09,-636 615.09,-624 615.09,-624 615.09,-618 621.09,-612 627.09,-612 627.09,-612 749.09,-612 749.09,-612 755.09,-612 761.09,-618 761.09,-624 761.09,-624 761.09,-636 761.09,-636 761.09,-642 755.09,-648 749.09,-648"/>
<text text-anchor="middle" x="688.09" y="-626.3" font-family="Helvetica,sans-Serif" font-size="14.00">SetSampleMaterial</text>
</g>
<!-- CanChemicalFormula&#45;&gt;SetSampleMaterial2 -->
<g id="edge27" class="edge">
<title>CanChemicalFormula&#45;&gt;SetSampleMaterial2</title>
<path fill="none" stroke="black" d="M495.93,-700.21C533.37,-686.73 587.57,-667.2 628.87,-652.33"/>
<polygon fill="black" stroke="black" points="629.97,-655.66 638.19,-648.97 627.59,-649.07 629.97,-655.66"/>
</g>
<!-- CanNumberDensity -->
<g id="node17" class="node">
<title>CanNumberDensity</title>
<ellipse fill="khaki" stroke="black" cx="675.09" cy="-717" rx="98.58" ry="18"/>
<text text-anchor="middle" x="675.09" y="-713.3" font-family="Helvetica,sans-Serif" font-size="14.00">CanNumberDensity</text>
</g>
<!-- CanNumberDensity&#45;&gt;SetSampleMaterial2 -->
<g id="edge28" class="edge">
<title>CanNumberDensity&#45;&gt;SetSampleMaterial2</title>
<path fill="none" stroke="black" d="M677.72,-698.8C679.44,-687.58 681.72,-672.67 683.71,-659.69"/>
<polygon fill="black" stroke="black" points="687.14,-660.38 685.19,-649.96 680.22,-659.32 687.14,-660.38"/>
</g>
<!-- CanFrontThickness -->
<g id="node18" class="node">
<title>CanFrontThickness</title>
<ellipse fill="khaki" stroke="black" cx="294.09" cy="-630" rx="95.58" ry="18"/>
<text text-anchor="middle" x="294.09" y="-626.3" font-family="Helvetica,sans-Serif" font-size="14.00">CanFrontThickness</text>
</g>
<!-- FlatPlateAbsorption2 -->
<g id="node32" class="node">
<title>FlatPlateAbsorption2</title>
<path fill="lightskyblue" stroke="black" d="M587.09,-561C587.09,-561 459.09,-561 459.09,-561 453.09,-561 447.09,-555 447.09,-549 447.09,-549 447.09,-537 447.09,-537 447.09,-531 453.09,-525 459.09,-525 459.09,-525 587.09,-525 587.09,-525 593.09,-525 599.09,-531 599.09,-537 599.09,-537 599.09,-549 599.09,-549 599.09,-555 593.09,-561 587.09,-561"/>
<text text-anchor="middle" x="523.09" y="-539.3" font-family="Helvetica,sans-Serif" font-size="14.00">FlatePlatAbsorption</text>
</g>
<!-- CanFrontThickness&#45;&gt;FlatPlateAbsorption2 -->
<g id="edge30" class="edge">
<title>CanFrontThickness&#45;&gt;FlatPlateAbsorption2</title>
<path fill="none" stroke="black" d="M336.1,-613.41C372.41,-599.93 425.24,-580.32 465.5,-565.38"/>
<polygon fill="black" stroke="black" points="466.65,-568.68 474.81,-561.92 464.22,-562.12 466.65,-568.68"/>
</g>
<!-- CanBackThickness -->
<g id="node19" class="node">
<title>CanBackThickness</title>
<ellipse fill="khaki" stroke="black" cx="502.09" cy="-630" rx="94.78" ry="18"/>
<text text-anchor="middle" x="502.09" y="-626.3" font-family="Helvetica,sans-Serif" font-size="14.00">CanBackThickness</text>
</g>
<!-- CanBackThickness&#45;&gt;FlatPlateAbsorption2 -->
<g id="edge31" class="edge">
<title>CanBackThickness&#45;&gt;FlatPlateAbsorption2</title>
<path fill="none" stroke="black" d="M506.34,-611.8C509.14,-600.47 512.87,-585.36 516.1,-572.29"/>
<polygon fill="black" stroke="black" points="519.41,-573.48 518.41,-562.94 512.62,-571.81 519.41,-573.48"/>
</g>
<!-- ElementSize1 -->
<g id="node20" class="node">
<title>ElementSize1</title>
<ellipse fill="khaki" stroke="black" cx="588.09" cy="-1416" rx="66.09" ry="18"/>
<text text-anchor="middle" x="588.09" y="-1412.3" font-family="Helvetica,sans-Serif" font-size="14.00">ElementSize</text>
</g>
<!-- ElementSize1&#45;&gt;FlatPlateAbsorption1 -->
<g id="edge13" class="edge">
<title>ElementSize1&#45;&gt;FlatPlateAbsorption1</title>
<path fill="none" stroke="black" d="M567.92,-1398.53C557.04,-1389.65 543.39,-1378.52 531.27,-1368.63"/>
<polygon fill="black" stroke="black" points="533.51,-1365.94 523.55,-1362.33 529.08,-1371.36 533.51,-1365.94"/>
</g>
<!-- SampleLogs -->
<g id="node21" class="node">
<title>SampleLogs</title>
<ellipse fill="khaki" stroke="black" cx="260.09" cy="-237" rx="65.79" ry="18"/>
<text text-anchor="middle" x="260.09" y="-233.3" font-family="Helvetica,sans-Serif" font-size="14.00">SampleLogs</text>
</g>
<!-- AddSampleLogMultiple -->
<g id="node39" class="node">
<title>AddSampleLogMultiple</title>
<path fill="lightskyblue" stroke="black" d="M347.59,-182C347.59,-182 196.59,-182 196.59,-182 190.59,-182 184.59,-176 184.59,-170 184.59,-170 184.59,-158 184.59,-158 184.59,-152 190.59,-146 196.59,-146 196.59,-146 347.59,-146 347.59,-146 353.59,-146 359.59,-152 359.59,-158 359.59,-158 359.59,-170 359.59,-170 359.59,-176 353.59,-182 347.59,-182"/>
<text text-anchor="middle" x="272.09" y="-160.3" font-family="Helvetica,sans-Serif" font-size="14.00">AddSampleLogMultiple</text>
</g>
<!-- SampleLogs&#45;&gt;AddSampleLogMultiple -->
<g id="edge47" class="edge">
<title>SampleLogs&#45;&gt;AddSampleLogMultiple</title>
<path fill="none" stroke="black" d="M263,-218.81C264.3,-211.14 265.86,-201.89 267.32,-193.24"/>
<polygon fill="black" stroke="black" points="270.75,-193.96 268.96,-183.52 263.85,-192.8 270.75,-193.96"/>
</g>
<!-- EFixed1 -->
<g id="node22" class="node">
<title>EFixed1</title>
<ellipse fill="khaki" stroke="black" cx="682.09" cy="-1649" rx="38.99" ry="18"/>
<text text-anchor="middle" x="682.09" y="-1645.3" font-family="Helvetica,sans-Serif" font-size="14.00">eFixed</text>
</g>
<!-- EFixed1&#45;&gt;ConvertUnits1 -->
<g id="edge3" class="edge">
<title>EFixed1&#45;&gt;ConvertUnits1</title>
<path fill="none" stroke="black" d="M699.89,-1632.59C710.25,-1623.62 723.55,-1612.1 735.36,-1601.88"/>
<polygon fill="black" stroke="black" points="737.62,-1604.55 742.89,-1595.36 733.04,-1599.26 737.62,-1604.55"/>
</g>
<!-- EFixed1&#45;&gt;FlatPlateAbsorption1 -->
<g id="edge14" class="edge">
<title>EFixed1&#45;&gt;FlatPlateAbsorption1</title>
<path fill="none" stroke="black" d="M682.09,-1630.78C682.09,-1616.41 682.09,-1595.37 682.09,-1577 682.09,-1577 682.09,-1577 682.09,-1415 682.09,-1392.93 634.87,-1374.88 588.66,-1362.5"/>
<polygon fill="black" stroke="black" points="589.61,-1359.14 579.06,-1360.02 587.86,-1365.91 589.61,-1359.14"/>
</g>
<!-- EFixed2 -->
<g id="node23" class="node">
<title>EFixed2</title>
<ellipse fill="khaki" stroke="black" cx="154.09" cy="-1110" rx="38.99" ry="18"/>
<text text-anchor="middle" x="154.09" y="-1106.3" font-family="Helvetica,sans-Serif" font-size="14.00">eFixed</text>
</g>
<!-- EFixed2&#45;&gt;ConvertUnits2 -->
<g id="edge19" class="edge">
<title>EFixed2&#45;&gt;ConvertUnits2</title>
<path fill="none" stroke="black" d="M154.09,-1091.81C154.09,-1084.23 154.09,-1075.1 154.09,-1066.54"/>
<polygon fill="black" stroke="black" points="157.59,-1066.54 154.09,-1056.54 150.59,-1066.54 157.59,-1066.54"/>
</g>
<!-- OutputWorkspace -->
<g id="node24" class="node">
<title>OutputWorkspace</title>
<ellipse fill="khaki" stroke="black" cx="272.09" cy="-18" rx="91.78" ry="18"/>
<text text-anchor="middle" x="272.09" y="-14.3" font-family="Helvetica,sans-Serif" font-size="14.00">OutputWorkspace</text>
</g>
<!-- GetEFixed&#45;&gt;EFixed1 -->
<g id="edge2" class="edge">
<title>GetEFixed&#45;&gt;EFixed1</title>
<path fill="none" stroke="black" d="M688.16,-1703.81C687.29,-1696.14 686.25,-1686.89 685.28,-1678.24"/>
<polygon fill="black" stroke="black" points="688.78,-1678.08 684.18,-1668.53 681.82,-1678.86 688.78,-1678.08"/>
</g>
<!-- ConvertUnits1&#45;&gt;SampleWorkspace_Wave -->
<g id="edge5" class="edge">
<title>ConvertUnits1&#45;&gt;SampleWorkspace_Wave</title>
<path fill="none" stroke="black" d="M777.85,-1557.8C787.44,-1545.82 800.4,-1529.62 811.25,-1516.06"/>
<polygon fill="black" stroke="black" points="813.89,-1518.35 817.41,-1508.36 808.43,-1513.98 813.89,-1518.35"/>
<text text-anchor="middle" x="948.09" y="-1528.8" font-family="Helvetica,sans-Serif" font-size="14.00">Convert input workspace into Wavelength</text>
</g>
<!-- ConvertUnits2&#45;&gt;CanWorkspace_Wave -->
<g id="edge20" class="edge">
<title>ConvertUnits2&#45;&gt;CanWorkspace_Wave</title>
<path fill="none" stroke="black" d="M150.86,-1018.8C148.74,-1007.58 145.94,-992.67 143.49,-979.69"/>
<polygon fill="black" stroke="black" points="146.95,-979.13 141.66,-969.95 140.07,-980.43 146.95,-979.13"/>
<text text-anchor="middle" x="287.09" y="-989.8" font-family="Helvetica,sans-Serif" font-size="14.00">Convert can workspace into Wavelength</text>
</g>
<!-- ConvertUnits3&#45;&gt;AddSampleLogMultiple -->
<g id="edge46" class="edge">
<title>ConvertUnits3&#45;&gt;AddSampleLogMultiple</title>
<path fill="none" stroke="black" d="M366.51,-218.63C350.32,-209.43 330.22,-198.02 312.73,-188.08"/>
<polygon fill="black" stroke="black" points="314.53,-185.08 304.11,-183.18 311.07,-191.17 314.53,-185.08"/>
</g>
<!-- SetSampleMaterial1&#45;&gt;FlatPlateAbsorption1 -->
<g id="edge9" class="edge">
<title>SetSampleMaterial1&#45;&gt;FlatPlateAbsorption1</title>
<path fill="none" stroke="black" d="M948.83,-1405.02C854.24,-1392.13 689.81,-1369.72 588.71,-1355.94"/>
<polygon fill="black" stroke="black" points="589.19,-1352.47 578.81,-1354.59 588.25,-1359.41 589.19,-1352.47"/>
</g>
<!-- SetSampleMaterial2&#45;&gt;FlatPlateAbsorption2 -->
<g id="edge29" class="edge">
<title>SetSampleMaterial2&#45;&gt;FlatPlateAbsorption2</title>
<path fill="none" stroke="black" d="M654.31,-611.59C629.06,-598.59 594.33,-580.7 566.94,-566.59"/>
<polygon fill="black" stroke="black" points="568.67,-563.54 558.18,-562.08 565.47,-569.77 568.67,-563.54"/>
</g>
<!-- Divide1 -->
<g id="node34" class="node">
<title>Divide1</title>
<path fill="lightskyblue" stroke="black" d="M541.09,-488C541.09,-488 505.09,-488 505.09,-488 499.09,-488 493.09,-482 493.09,-476 493.09,-476 493.09,-464 493.09,-464 493.09,-458 499.09,-452 505.09,-452 505.09,-452 541.09,-452 541.09,-452 547.09,-452 553.09,-458 553.09,-464 553.09,-464 553.09,-476 553.09,-476 553.09,-482 547.09,-488 541.09,-488"/>
<text text-anchor="middle" x="523.09" y="-466.3" font-family="Helvetica,sans-Serif" font-size="14.00">Divide</text>
</g>
<!-- SetSampleMaterial2&#45;&gt;Divide1 -->
<g id="edge33" class="edge">
<title>SetSampleMaterial2&#45;&gt;Divide1</title>
<path fill="none" stroke="black" d="M677.49,-611.68C663.49,-589.74 637.18,-551.59 608.09,-525 594.54,-512.61 577.81,-501.3 562.78,-492.27"/>
<polygon fill="black" stroke="black" points="564.91,-489.46 554.51,-487.44 561.38,-495.51 564.91,-489.46"/>
</g>
<!-- FlatPlateAbsorption1&#45;&gt;AbsWorkspace1 -->
<g id="edge15" class="edge">
<title>FlatPlateAbsorption1&#45;&gt;AbsWorkspace1</title>
<path fill="none" stroke="black" d="M501.09,-1324.81C501.09,-1317.23 501.09,-1308.1 501.09,-1299.54"/>
<polygon fill="black" stroke="black" points="504.59,-1299.54 501.09,-1289.54 497.59,-1299.54 504.59,-1299.54"/>
</g>
<!-- FlatPlateAbsorption2&#45;&gt;Divide1 -->
<g id="edge32" class="edge">
<title>FlatPlateAbsorption2&#45;&gt;Divide1</title>
<path fill="none" stroke="black" d="M523.09,-524.81C523.09,-517.23 523.09,-508.1 523.09,-499.54"/>
<polygon fill="black" stroke="black" points="526.59,-499.54 523.09,-489.54 519.59,-499.54 526.59,-499.54"/>
</g>
<!-- useCorrections -->
<g id="node43" class="node">
<title>useCorrections</title>
<polygon fill="limegreen" stroke="black" points="170.09,-735 46.76,-717 170.09,-699 293.43,-717 170.09,-735"/>
<text text-anchor="middle" x="170.09" y="-713.3" font-family="Helvetica,sans-Serif" font-size="14.00">Can Corrections?</text>
</g>
<!-- Scale&#45;&gt;useCorrections -->
<g id="edge24" class="edge">
<title>Scale&#45;&gt;useCorrections</title>
<path fill="none" stroke="black" d="M258.6,-772.17C241.76,-761.86 220.11,-748.61 202.44,-737.8"/>
<polygon fill="black" stroke="black" points="204.74,-735.1 194.38,-732.87 201.08,-741.07 204.74,-735.1"/>
</g>
<!-- Divide1&#45;&gt;Minus1 -->
<g id="edge34" class="edge">
<title>Divide1&#45;&gt;Minus1</title>
<path fill="none" stroke="black" d="M492.91,-451.99C476.04,-442.48 454.8,-430.52 436.61,-420.27"/>
<polygon fill="black" stroke="black" points="438.34,-417.23 427.91,-415.37 434.91,-423.32 438.34,-417.23"/>
</g>
<!-- Divide2&#45;&gt;SampleWorkspace_Wave2 -->
<g id="edge43" class="edge">
<title>Divide2&#45;&gt;SampleWorkspace_Wave2</title>
<path fill="none" stroke="black" d="M307.2,-378.63C322.85,-369.3 342.33,-357.68 359.15,-347.64"/>
<polygon fill="black" stroke="black" points="360.6,-350.85 367.39,-342.72 357.01,-344.84 360.6,-350.85"/>
</g>
<!-- Divide3&#45;&gt;SampleWorkspace_Wave2 -->
<g id="edge44" class="edge">
<title>Divide3&#45;&gt;SampleWorkspace_Wave2</title>
<path fill="none" stroke="black" d="M797.78,-1091.54C799.75,-1077.2 802.09,-1056.33 802.09,-1038 802.09,-1038 802.09,-1038 802.09,-396 802.09,-366.57 633.99,-345.59 514.39,-334.39"/>
<polygon fill="black" stroke="black" points="514.76,-330.91 504.48,-333.47 514.12,-337.88 514.76,-330.91"/>
</g>
<!-- Minus1&#45;&gt;SampleWorkspace_Wave2 -->
<g id="edge42" class="edge">
<title>Minus1&#45;&gt;SampleWorkspace_Wave2</title>
<path fill="none" stroke="black" d="M397.09,-378.81C397.09,-371.23 397.09,-362.1 397.09,-353.54"/>
<polygon fill="black" stroke="black" points="400.59,-353.54 397.09,-343.54 393.59,-353.54 400.59,-353.54"/>
</g>
<!-- Minus2&#45;&gt;Divide2 -->
<g id="edge38" class="edge">
<title>Minus2&#45;&gt;Divide2</title>
<path fill="none" stroke="black" d="M278.09,-451.81C278.09,-444.23 278.09,-435.1 278.09,-426.54"/>
<polygon fill="black" stroke="black" points="281.59,-426.54 278.09,-416.54 274.59,-426.54 281.59,-426.54"/>
</g>
<!-- GroupWorkspaces -->
<g id="node40" class="node">
<title>GroupWorkspaces</title>
<path fill="lightskyblue" stroke="black" d="M331.09,-109C331.09,-109 213.09,-109 213.09,-109 207.09,-109 201.09,-103 201.09,-97 201.09,-97 201.09,-85 201.09,-85 201.09,-79 207.09,-73 213.09,-73 213.09,-73 331.09,-73 331.09,-73 337.09,-73 343.09,-79 343.09,-85 343.09,-85 343.09,-97 343.09,-97 343.09,-103 337.09,-109 331.09,-109"/>
<text text-anchor="middle" x="272.09" y="-87.3" font-family="Helvetica,sans-Serif" font-size="14.00">GroupWorkspaces</text>
</g>
<!-- AddSampleLogMultiple&#45;&gt;GroupWorkspaces -->
<g id="edge48" class="edge">
<title>AddSampleLogMultiple&#45;&gt;GroupWorkspaces</title>
<path fill="none" stroke="black" d="M272.09,-145.81C272.09,-138.23 272.09,-129.1 272.09,-120.54"/>
<polygon fill="black" stroke="black" points="275.59,-120.54 272.09,-110.54 268.59,-120.54 275.59,-120.54"/>
</g>
<!-- GroupWorkspaces&#45;&gt;OutputWorkspace -->
<g id="edge49" class="edge">
<title>GroupWorkspaces&#45;&gt;OutputWorkspace</title>
<path fill="none" stroke="black" d="M272.09,-72.81C272.09,-65.23 272.09,-56.1 272.09,-47.54"/>
<polygon fill="black" stroke="black" points="275.59,-47.54 272.09,-37.54 268.59,-47.54 275.59,-47.54"/>
</g>
<!-- canGiven&#45;&gt;CanWorkspace -->
<g id="edge17" class="edge">
<title>canGiven&#45;&gt;CanWorkspace</title>
<path fill="none" stroke="black" d="M471.17,-1183.09C438.9,-1169.17 387.13,-1146.83 349.77,-1130.71"/>
<polygon fill="black" stroke="black" points="351.6,-1127.69 341.03,-1126.94 348.83,-1134.11 351.6,-1127.69"/>
<text text-anchor="middle" x="426.59" y="-1149.8" font-family="Helvetica,sans-Serif" font-size="14.00">Yes</text>
</g>
<!-- canGiven&#45;&gt;Divide3 -->
<g id="edge40" class="edge">
<title>canGiven&#45;&gt;Divide3</title>
<path fill="none" stroke="black" d="M540.74,-1184.54C596.46,-1168.43 697.43,-1139.23 753.95,-1122.9"/>
<polygon fill="black" stroke="black" points="754.88,-1126.27 763.52,-1120.13 752.94,-1119.54 754.88,-1126.27"/>
<text text-anchor="middle" x="675.59" y="-1149.8" font-family="Helvetica,sans-Serif" font-size="14.00">No</text>
</g>
<!-- canScale&#45;&gt;Scale -->
<g id="edge22" class="edge">
<title>canScale&#45;&gt;Scale</title>
<path fill="none" stroke="black" d="M143.89,-861.33C153.59,-850.16 168.28,-835.19 184.09,-826 208.53,-811.8 218.44,-817.43 245.09,-808 246.22,-807.6 247.36,-807.19 248.51,-806.77"/>
<polygon fill="black" stroke="black" points="249.43,-810.16 257.49,-803.29 246.9,-803.63 249.43,-810.16"/>
<text text-anchor="middle" x="233.59" y="-829.8" font-family="Helvetica,sans-Serif" font-size="14.00">Not equal to 1</text>
</g>
<!-- canScale&#45;&gt;useCorrections -->
<g id="edge25" class="edge">
<title>canScale&#45;&gt;useCorrections</title>
<path fill="none" stroke="black" d="M144.6,-861.23C148.95,-855.3 153.41,-848.18 156.09,-841 167.59,-810.2 170.35,-772.29 170.7,-746.77"/>
<polygon fill="black" stroke="black" points="174.2,-746.83 170.71,-736.83 167.2,-746.83 174.2,-746.83"/>
<text text-anchor="middle" x="205.59" y="-786.3" font-family="Helvetica,sans-Serif" font-size="14.00">Equal to 1</text>
</g>
<!-- useCorrections&#45;&gt;SetSampleMaterial2 -->
<g id="edge26" class="edge">
<title>useCorrections&#45;&gt;SetSampleMaterial2</title>
<path fill="none" stroke="black" d="M231.27,-707.44C313.54,-695.71 464.63,-673.4 603.55,-648.42"/>
<polygon fill="black" stroke="black" points="604.1,-651.87 613.32,-646.65 602.86,-644.99 604.1,-651.87"/>
<text text-anchor="middle" x="510.59" y="-669.8" font-family="Helvetica,sans-Serif" font-size="14.00">Yes</text>
</g>
<!-- useCorrections&#45;&gt;Minus2 -->
<g id="edge36" class="edge">
<title>useCorrections&#45;&gt;Minus2</title>
<path fill="none" stroke="black" d="M171.72,-699.07C174.06,-678.19 179.22,-641.79 189.09,-612 202.66,-571.06 208.37,-561.02 232.09,-525 238.53,-515.23 246.52,-505.27 254.03,-496.62"/>
<polygon fill="black" stroke="black" points="256.55,-499.05 260.59,-489.26 251.32,-494.39 256.55,-499.05"/>
<text text-anchor="middle" x="210.59" y="-582.8" font-family="Helvetica,sans-Serif" font-size="14.00">No</text>
</g>
</g>
</svg>
