<?xml version="1.0" encoding="UTF-8" standalone="no"?>
<!DOCTYPE svg PUBLIC "-//W3C//DTD SVG 1.1//EN"
 "http://www.w3.org/Graphics/SVG/1.1/DTD/svg11.dtd">
<!-- Generated by graphviz version 11.0.0 (20240519.1550)
 -->
<!-- Title: IndirectCalibration Pages: 1 -->
<svg width="938pt" height="895pt"
 viewBox="0.00 0.00 937.68 895.25" xmlns="http://www.w3.org/2000/svg" xmlns:xlink="http://www.w3.org/1999/xlink">
<g id="graph0" class="graph" transform="scale(1 1) rotate(0) translate(4 891.25)">
<title>IndirectCalibration</title>
<polygon fill="white" stroke="none" points="-4,4 -4,-891.25 933.68,-891.25 933.68,4 -4,4"/>
<text text-anchor="middle" x="464.84" y="-869.95" font-family="Helvetica,sans-Serif" font-size="14.00">IndirectCalibration Flowchart</text>
<!-- AutoScaleFactor -->
<g id="node1" class="node">
<title>AutoScaleFactor</title>
<polygon fill="grey" stroke="black" points="498.44,-197.25 101.99,-197.25 0,-161.25 396.45,-161.25 498.44,-197.25"/>
<text text-anchor="middle" x="249.22" y="-173.07" font-family="Times,serif" font-size="14.00">1 / (sum / (num_spectra / num_zero_spectra))</text>
</g>
<!-- Scale_Auto -->
<g id="node17" class="node">
<title>Scale_Auto</title>
<path fill="lightskyblue" stroke="black" d="M618.22,-108C618.22,-108 588.22,-108 588.22,-108 582.22,-108 576.22,-102 576.22,-96 576.22,-96 576.22,-84 576.22,-84 576.22,-78 582.22,-72 588.22,-72 588.22,-72 618.22,-72 618.22,-72 624.22,-72 630.22,-78 630.22,-84 630.22,-84 630.22,-96 630.22,-96 630.22,-102 624.22,-108 618.22,-108"/>
<text text-anchor="middle" x="603.22" y="-85.33" font-family="Helvetica,sans-Serif" font-size="14.00">Scale</text>
</g>
<!-- AutoScaleFactor&#45;&gt;Scale_Auto -->
<g id="edge17" class="edge">
<title>AutoScaleFactor&#45;&gt;Scale_Auto</title>
<path fill="none" stroke="black" d="M320.01,-160.8C393.78,-142.62 506.61,-114.81 565.1,-100.4"/>
<polygon fill="black" stroke="black" points="565.7,-103.85 574.58,-98.06 564.03,-97.05 565.7,-103.85"/>
</g>
<!-- UseAutoScale -->
<g id="node2" class="node">
<title>UseAutoScale</title>
<polygon fill="limegreen" stroke="black" points="647.22,-197.25 516.02,-179.25 647.22,-161.25 778.42,-179.25 647.22,-197.25"/>
<text text-anchor="middle" x="647.22" y="-174.57" font-family="Helvetica,sans-Serif" font-size="14.00">ScaleFactor = 1?</text>
</g>
<!-- UseAutoScale&#45;&gt;Scale_Auto -->
<g id="edge14" class="edge">
<title>UseAutoScale&#45;&gt;Scale_Auto</title>
<path fill="none" stroke="black" d="M639.15,-162.25C632.96,-149.97 624.27,-132.75 616.99,-118.31"/>
<polygon fill="black" stroke="black" points="620.3,-117.1 612.67,-109.75 614.05,-120.25 620.3,-117.1"/>
<text text-anchor="middle" x="640.47" y="-129.95" font-family="Helvetica,sans-Serif" font-size="14.00">Yes</text>
</g>
<!-- Scale_Manual -->
<g id="node18" class="node">
<title>Scale_Manual</title>
<path fill="lightskyblue" stroke="black" d="M690.22,-108C690.22,-108 660.22,-108 660.22,-108 654.22,-108 648.22,-102 648.22,-96 648.22,-96 648.22,-84 648.22,-84 648.22,-78 654.22,-72 660.22,-72 660.22,-72 690.22,-72 690.22,-72 696.22,-72 702.22,-78 702.22,-84 702.22,-84 702.22,-96 702.22,-96 702.22,-102 696.22,-108 690.22,-108"/>
<text text-anchor="middle" x="675.22" y="-85.33" font-family="Helvetica,sans-Serif" font-size="14.00">Scale</text>
</g>
<!-- UseAutoScale&#45;&gt;Scale_Manual -->
<g id="edge19" class="edge">
<title>UseAutoScale&#45;&gt;Scale_Manual</title>
<path fill="none" stroke="black" d="M652.49,-161.84C656.36,-149.76 661.72,-133.06 666.26,-118.9"/>
<polygon fill="black" stroke="black" points="669.5,-120.27 669.23,-109.67 662.84,-118.13 669.5,-120.27"/>
<text text-anchor="middle" x="673.59" y="-129.95" font-family="Helvetica,sans-Serif" font-size="14.00">No</text>
</g>
<!-- MultipleFiles -->
<g id="node3" class="node">
<title>MultipleFiles</title>
<polygon fill="limegreen" stroke="black" points="341.22,-718 229.37,-700 341.22,-682 453.07,-700 341.22,-718"/>
<text text-anchor="middle" x="341.22" y="-695.33" font-family="Helvetica,sans-Serif" font-size="14.00">Multiple Files?</text>
</g>
<!-- MergeRuns -->
<g id="node11" class="node">
<title>MergeRuns</title>
<path fill="lightskyblue" stroke="black" d="M287.84,-628.75C287.84,-628.75 218.59,-628.75 218.59,-628.75 212.59,-628.75 206.59,-622.75 206.59,-616.75 206.59,-616.75 206.59,-604.75 206.59,-604.75 206.59,-598.75 212.59,-592.75 218.59,-592.75 218.59,-592.75 287.84,-592.75 287.84,-592.75 293.84,-592.75 299.84,-598.75 299.84,-604.75 299.84,-604.75 299.84,-616.75 299.84,-616.75 299.84,-622.75 293.84,-628.75 287.84,-628.75"/>
<text text-anchor="middle" x="253.22" y="-606.08" font-family="Helvetica,sans-Serif" font-size="14.00">MergeRuns</text>
</g>
<!-- MultipleFiles&#45;&gt;MergeRuns -->
<g id="edge4" class="edge">
<title>MultipleFiles&#45;&gt;MergeRuns</title>
<path fill="none" stroke="black" d="M326.29,-684.2C313.3,-671.32 294.19,-652.37 278.77,-637.08"/>
<polygon fill="black" stroke="black" points="281.28,-634.65 271.72,-630.09 276.35,-639.62 281.28,-634.65"/>
<text text-anchor="middle" x="316.47" y="-650.7" font-family="Helvetica,sans-Serif" font-size="14.00">Yes</text>
</g>
<!-- CalculateFlatBackground -->
<g id="node13" class="node">
<title>CalculateFlatBackground</title>
<path fill="lightskyblue" stroke="black" d="M331.47,-466.5C331.47,-466.5 166.97,-466.5 166.97,-466.5 160.97,-466.5 154.97,-460.5 154.97,-454.5 154.97,-454.5 154.97,-442.5 154.97,-442.5 154.97,-436.5 160.97,-430.5 166.97,-430.5 166.97,-430.5 331.47,-430.5 331.47,-430.5 337.47,-430.5 343.47,-436.5 343.47,-442.5 343.47,-442.5 343.47,-454.5 343.47,-454.5 343.47,-460.5 337.47,-466.5 331.47,-466.5"/>
<text text-anchor="middle" x="249.22" y="-443.82" font-family="Helvetica,sans-Serif" font-size="14.00">CalculateFlatBackground</text>
</g>
<!-- MultipleFiles&#45;&gt;CalculateFlatBackground -->
<g id="edge8" class="edge">
<title>MultipleFiles&#45;&gt;CalculateFlatBackground</title>
<path fill="none" stroke="black" d="M348.83,-682.8C364.32,-647.27 395.09,-561.07 359.22,-503.5 350.72,-489.86 337.65,-479.56 323.46,-471.83"/>
<polygon fill="black" stroke="black" points="325.36,-468.87 314.85,-467.55 322.24,-475.13 325.36,-468.87"/>
<text text-anchor="middle" x="385.59" y="-561.45" font-family="Helvetica,sans-Serif" font-size="14.00">No</text>
</g>
<!-- InputFiles -->
<g id="node4" class="node">
<title>InputFiles</title>
<ellipse fill="khaki" stroke="black" cx="261.22" cy="-844" rx="58.05" ry="18"/>
<text text-anchor="middle" x="261.22" y="-839.33" font-family="Helvetica,sans-Serif" font-size="14.00">InputFiles</text>
</g>
<!-- Load -->
<g id="node10" class="node">
<title>Load</title>
<path fill="lightskyblue" stroke="black" d="M356.22,-790C356.22,-790 326.22,-790 326.22,-790 320.22,-790 314.22,-784 314.22,-778 314.22,-778 314.22,-766 314.22,-766 314.22,-760 320.22,-754 326.22,-754 326.22,-754 356.22,-754 356.22,-754 362.22,-754 368.22,-760 368.22,-766 368.22,-766 368.22,-778 368.22,-778 368.22,-784 362.22,-790 356.22,-790"/>
<text text-anchor="middle" x="341.22" y="-767.33" font-family="Helvetica,sans-Serif" font-size="14.00">Load</text>
</g>
<!-- InputFiles&#45;&gt;Load -->
<g id="edge1" class="edge">
<title>InputFiles&#45;&gt;Load</title>
<path fill="none" stroke="black" d="M279.77,-826.76C289.61,-818.16 301.9,-807.41 312.89,-797.78"/>
<polygon fill="black" stroke="black" points="315.01,-800.59 320.23,-791.37 310.4,-795.32 315.01,-800.59"/>
</g>
<!-- DetectorRange -->
<g id="node5" class="node">
<title>DetectorRange</title>
<ellipse fill="khaki" stroke="black" cx="421.22" cy="-844" rx="83.83" ry="18"/>
<text text-anchor="middle" x="421.22" y="-839.33" font-family="Helvetica,sans-Serif" font-size="14.00">DetectorRange</text>
</g>
<!-- DetectorRange&#45;&gt;Load -->
<g id="edge2" class="edge">
<title>DetectorRange&#45;&gt;Load</title>
<path fill="none" stroke="black" d="M401.85,-826.05C392.17,-817.58 380.27,-807.17 369.58,-797.82"/>
<polygon fill="black" stroke="black" points="371.93,-795.22 362.1,-791.27 367.32,-800.49 371.93,-795.22"/>
</g>
<!-- PeakRange -->
<g id="node6" class="node">
<title>PeakRange</title>
<ellipse fill="khaki" stroke="black" cx="427.22" cy="-448.5" rx="65.41" ry="18"/>
<text text-anchor="middle" x="427.22" y="-443.82" font-family="Helvetica,sans-Serif" font-size="14.00">PeakRange</text>
</g>
<!-- Integration -->
<g id="node15" class="node">
<title>Integration</title>
<path fill="lightskyblue" stroke="black" d="M453.47,-394.5C453.47,-394.5 384.97,-394.5 384.97,-394.5 378.97,-394.5 372.97,-388.5 372.97,-382.5 372.97,-382.5 372.97,-370.5 372.97,-370.5 372.97,-364.5 378.97,-358.5 384.97,-358.5 384.97,-358.5 453.47,-358.5 453.47,-358.5 459.47,-358.5 465.47,-364.5 465.47,-370.5 465.47,-370.5 465.47,-382.5 465.47,-382.5 465.47,-388.5 459.47,-394.5 453.47,-394.5"/>
<text text-anchor="middle" x="419.22" y="-371.82" font-family="Helvetica,sans-Serif" font-size="14.00">Integration</text>
</g>
<!-- PeakRange&#45;&gt;Integration -->
<g id="edge11" class="edge">
<title>PeakRange&#45;&gt;Integration</title>
<path fill="none" stroke="black" d="M425.24,-430.2C424.41,-422.91 423.42,-414.23 422.48,-406.04"/>
<polygon fill="black" stroke="black" points="425.96,-405.65 421.35,-396.11 419,-406.44 425.96,-405.65"/>
</g>
<!-- BackgroundRange -->
<g id="node7" class="node">
<title>BackgroundRange</title>
<ellipse fill="khaki" stroke="black" cx="249.22" cy="-521.5" rx="100.66" ry="18"/>
<text text-anchor="middle" x="249.22" y="-516.83" font-family="Helvetica,sans-Serif" font-size="14.00">BackgroundRange</text>
</g>
<!-- BackgroundRange&#45;&gt;CalculateFlatBackground -->
<g id="edge7" class="edge">
<title>BackgroundRange&#45;&gt;CalculateFlatBackground</title>
<path fill="none" stroke="black" d="M249.22,-503.31C249.22,-495.73 249.22,-486.6 249.22,-478.04"/>
<polygon fill="black" stroke="black" points="252.72,-478.04 249.22,-468.04 245.72,-478.04 252.72,-478.04"/>
</g>
<!-- ScaleFactor -->
<g id="node8" class="node">
<title>ScaleFactor</title>
<ellipse fill="khaki" stroke="black" cx="863.22" cy="-179.25" rx="66.47" ry="18"/>
<text text-anchor="middle" x="863.22" y="-174.57" font-family="Helvetica,sans-Serif" font-size="14.00">ScaleFactor</text>
</g>
<!-- ScaleFactor&#45;&gt;Scale_Manual -->
<g id="edge20" class="edge">
<title>ScaleFactor&#45;&gt;Scale_Manual</title>
<path fill="none" stroke="black" d="M830.9,-163.25C798.08,-148.02 747.29,-124.45 712.71,-108.4"/>
<polygon fill="black" stroke="black" points="714.46,-105.35 703.92,-104.32 711.51,-111.7 714.46,-105.35"/>
</g>
<!-- OutputWorkspace -->
<g id="node9" class="node">
<title>OutputWorkspace</title>
<ellipse fill="khaki" stroke="black" cx="638.22" cy="-18" rx="98.56" ry="18"/>
<text text-anchor="middle" x="638.22" y="-13.32" font-family="Helvetica,sans-Serif" font-size="14.00">OutputWorkspace</text>
</g>
<!-- Load&#45;&gt;MultipleFiles -->
<g id="edge3" class="edge">
<title>Load&#45;&gt;MultipleFiles</title>
<path fill="none" stroke="black" d="M341.22,-753.7C341.22,-746.41 341.22,-737.73 341.22,-729.54"/>
<polygon fill="black" stroke="black" points="344.72,-729.62 341.22,-719.62 337.72,-729.62 344.72,-729.62"/>
</g>
<!-- Scale_Raw -->
<g id="node12" class="node">
<title>Scale_Raw</title>
<path fill="lightskyblue" stroke="black" d="M118.22,-539.5C118.22,-539.5 88.22,-539.5 88.22,-539.5 82.22,-539.5 76.22,-533.5 76.22,-527.5 76.22,-527.5 76.22,-515.5 76.22,-515.5 76.22,-509.5 82.22,-503.5 88.22,-503.5 88.22,-503.5 118.22,-503.5 118.22,-503.5 124.22,-503.5 130.22,-509.5 130.22,-515.5 130.22,-515.5 130.22,-527.5 130.22,-527.5 130.22,-533.5 124.22,-539.5 118.22,-539.5"/>
<text text-anchor="middle" x="103.22" y="-516.83" font-family="Helvetica,sans-Serif" font-size="14.00">Scale</text>
</g>
<!-- MergeRuns&#45;&gt;Scale_Raw -->
<g id="edge5" class="edge">
<title>MergeRuns&#45;&gt;Scale_Raw</title>
<path fill="none" stroke="black" d="M223.22,-592.3C199.37,-578.43 165.89,-558.95 140.35,-544.1"/>
<polygon fill="black" stroke="black" points="142.35,-541.21 131.94,-539.21 138.83,-547.26 142.35,-541.21"/>
</g>
<!-- Scale_Raw&#45;&gt;CalculateFlatBackground -->
<g id="edge6" class="edge">
<title>Scale_Raw&#45;&gt;CalculateFlatBackground</title>
<path fill="none" stroke="black" d="M130.68,-507.15C151.04,-497.24 179.28,-483.51 203.08,-471.94"/>
<polygon fill="black" stroke="black" points="204.5,-475.14 211.96,-467.62 201.44,-468.85 204.5,-475.14"/>
</g>
<!-- FindDetectorsOutsideLimits -->
<g id="node14" class="node">
<title>FindDetectorsOutsideLimits</title>
<path fill="lightskyblue" stroke="black" d="M340.47,-340.5C340.47,-340.5 157.97,-340.5 157.97,-340.5 151.97,-340.5 145.97,-334.5 145.97,-328.5 145.97,-328.5 145.97,-316.5 145.97,-316.5 145.97,-310.5 151.97,-304.5 157.97,-304.5 157.97,-304.5 340.47,-304.5 340.47,-304.5 346.47,-304.5 352.47,-310.5 352.47,-316.5 352.47,-316.5 352.47,-328.5 352.47,-328.5 352.47,-334.5 346.47,-340.5 340.47,-340.5"/>
<text text-anchor="middle" x="249.22" y="-317.82" font-family="Helvetica,sans-Serif" font-size="14.00">FindDetectorsOutsideLimits</text>
</g>
<!-- CalculateFlatBackground&#45;&gt;FindDetectorsOutsideLimits -->
<g id="edge9" class="edge">
<title>CalculateFlatBackground&#45;&gt;FindDetectorsOutsideLimits</title>
<path fill="none" stroke="black" d="M249.22,-430.26C249.22,-410.11 249.22,-376.44 249.22,-352.3"/>
<polygon fill="black" stroke="black" points="252.72,-352.51 249.22,-342.51 245.72,-352.51 252.72,-352.51"/>
</g>
<!-- CalculateFlatBackground&#45;&gt;Integration -->
<g id="edge10" class="edge">
<title>CalculateFlatBackground&#45;&gt;Integration</title>
<path fill="none" stroke="black" d="M291.68,-430.02C314.38,-420.67 342.54,-409.07 366.62,-399.16"/>
<polygon fill="black" stroke="black" points="367.69,-402.5 375.61,-395.46 365.03,-396.03 367.69,-402.5"/>
</g>
<!-- FindDetectorsOutsideLimits&#45;&gt;AutoScaleFactor -->
<g id="edge15" class="edge">
<title>FindDetectorsOutsideLimits&#45;&gt;AutoScaleFactor</title>
<path fill="none" stroke="black" d="M249.22,-304.18C249.22,-280.46 249.22,-237.56 249.22,-208.98"/>
<polygon fill="black" stroke="black" points="252.72,-209.23 249.22,-199.23 245.72,-209.23 252.72,-209.23"/>
<text text-anchor="middle" x="312.22" y="-263.82" font-family="Helvetica,sans-Serif" font-size="14.00">num_zero_spectra</text>
</g>
<!-- Integration&#45;&gt;UseAutoScale -->
<g id="edge12" class="edge">
<title>Integration&#45;&gt;UseAutoScale</title>
<path fill="none" stroke="black" d="M413.99,-358.23C405.25,-325.48 392.07,-254.16 429.22,-215.25 434.24,-209.99 509.96,-198.66 570.77,-190.31"/>
<polygon fill="black" stroke="black" points="570.99,-193.81 580.43,-188.99 570.05,-186.88 570.99,-193.81"/>
</g>
<!-- SumSpectra -->
<g id="node16" class="node">
<title>SumSpectra</title>
<path fill="lightskyblue" stroke="black" d="M521.59,-286.5C521.59,-286.5 444.84,-286.5 444.84,-286.5 438.84,-286.5 432.84,-280.5 432.84,-274.5 432.84,-274.5 432.84,-262.5 432.84,-262.5 432.84,-256.5 438.84,-250.5 444.84,-250.5 444.84,-250.5 521.59,-250.5 521.59,-250.5 527.59,-250.5 533.59,-256.5 533.59,-262.5 533.59,-262.5 533.59,-274.5 533.59,-274.5 533.59,-280.5 527.59,-286.5 521.59,-286.5"/>
<text text-anchor="middle" x="483.22" y="-263.82" font-family="Helvetica,sans-Serif" font-size="14.00">SumSpectra</text>
</g>
<!-- Integration&#45;&gt;SumSpectra -->
<g id="edge13" class="edge">
<title>Integration&#45;&gt;SumSpectra</title>
<path fill="none" stroke="black" d="M429.5,-358.47C439.57,-341.8 455.06,-316.15 466.82,-296.66"/>
<polygon fill="black" stroke="black" points="469.79,-298.51 471.97,-288.14 463.8,-294.89 469.79,-298.51"/>
</g>
<!-- SumSpectra&#45;&gt;AutoScaleFactor -->
<g id="edge16" class="edge">
<title>SumSpectra&#45;&gt;AutoScaleFactor</title>
<path fill="none" stroke="black" d="M436.43,-250.05C399.04,-236.11 346.48,-216.52 306.57,-201.63"/>
<polygon fill="black" stroke="black" points="307.94,-198.41 297.35,-198.2 305.49,-204.97 307.94,-198.41"/>
<text text-anchor="middle" x="402.22" y="-219.2" font-family="Helvetica,sans-Serif" font-size="14.00">sum</text>
</g>
<!-- Scale_Auto&#45;&gt;OutputWorkspace -->
<g id="edge18" class="edge">
<title>Scale_Auto&#45;&gt;OutputWorkspace</title>
<path fill="none" stroke="black" d="M611.87,-71.7C615.69,-64.07 620.26,-54.92 624.52,-46.4"/>
<polygon fill="black" stroke="black" points="627.65,-47.97 628.99,-37.46 621.39,-44.84 627.65,-47.97"/>
</g>
<!-- Scale_Manual&#45;&gt;OutputWorkspace -->
<g id="edge21" class="edge">
<title>Scale_Manual&#45;&gt;OutputWorkspace</title>
<path fill="none" stroke="black" d="M666.07,-71.7C662,-63.98 657.1,-54.71 652.55,-46.11"/>
<polygon fill="black" stroke="black" points="655.73,-44.65 647.97,-37.44 649.55,-47.92 655.73,-44.65"/>
</g>
</g>
</svg>
