<?xml version="1.0" encoding="UTF-8" standalone="no"?>
<!DOCTYPE svg PUBLIC "-//W3C//DTD SVG 1.1//EN"
 "http://www.w3.org/Graphics/SVG/1.1/DTD/svg11.dtd">
<!-- Generated by graphviz version 7.1.0 (20230122.1345)
 -->
<!-- Title: IndirectCalibration Pages: 1 -->
<svg width="923pt" height="888pt"
 viewBox="0.00 0.00 923.13 888.00" xmlns="http://www.w3.org/2000/svg" xmlns:xlink="http://www.w3.org/1999/xlink">
<g id="graph0" class="graph" transform="scale(1 1) rotate(0) translate(4 884)">
<title>IndirectCalibration</title>
<polygon fill="white" stroke="none" points="-4,4 -4,-884 919.13,-884 919.13,4 -4,4"/>
<text text-anchor="middle" x="457.57" y="-864.8" font-family="Helvetica,sans-Serif" font-size="14.00">IndirectCalibration Flowchart</text>
<!-- AutoScaleFactor -->
<g id="node1" class="node">
<title>AutoScaleFactor</title>
<polygon fill="grey" stroke="black" points="510.66,-196 104.58,-196 0.11,-160 406.2,-160 510.66,-196"/>
<text text-anchor="middle" x="255.39" y="-174.3" font-family="Times,serif" font-size="14.00">1 / (sum / (num_spectra / num_zero_spectra))</text>
</g>
<!-- Scale_Auto -->
<g id="node17" class="node">
<title>Scale_Auto</title>
<path fill="lightskyblue" stroke="black" d="M629.39,-109C629.39,-109 599.39,-109 599.39,-109 593.39,-109 587.39,-103 587.39,-97 587.39,-97 587.39,-85 587.39,-85 587.39,-79 593.39,-73 599.39,-73 599.39,-73 629.39,-73 629.39,-73 635.39,-73 641.39,-79 641.39,-85 641.39,-85 641.39,-97 641.39,-97 641.39,-103 635.39,-109 629.39,-109"/>
<text text-anchor="middle" x="614.39" y="-87.3" font-family="Helvetica,sans-Serif" font-size="14.00">Scale</text>
</g>
<!-- AutoScaleFactor&#45;&gt;Scale_Auto -->
<g id="edge17" class="edge">
<title>AutoScaleFactor&#45;&gt;Scale_Auto</title>
<path fill="none" stroke="black" d="M328.9,-159.59C403.91,-141.84 517.37,-114.97 576.12,-101.06"/>
<polygon fill="black" stroke="black" points="576.71,-104.52 585.64,-98.81 575.1,-97.7 576.71,-104.52"/>
</g>
<!-- UseAutoScale -->
<g id="node2" class="node">
<title>UseAutoScale</title>
<polygon fill="limegreen" stroke="black" points="651.39,-196 528.89,-178 651.39,-160 773.88,-178 651.39,-196"/>
<text text-anchor="middle" x="651.39" y="-174.3" font-family="Helvetica,sans-Serif" font-size="14.00">ScaleFactor = 1?</text>
</g>
<!-- UseAutoScale&#45;&gt;Scale_Auto -->
<g id="edge14" class="edge">
<title>UseAutoScale&#45;&gt;Scale_Auto</title>
<path fill="none" stroke="black" d="M644.25,-160.61C639.18,-148.96 632.25,-133.04 626.34,-119.47"/>
<polygon fill="black" stroke="black" points="629.69,-118.37 622.48,-110.6 623.27,-121.17 629.69,-118.37"/>
<text text-anchor="middle" x="646.89" y="-130.8" font-family="Helvetica,sans-Serif" font-size="14.00">Yes</text>
</g>
<!-- Scale_Manual -->
<g id="node18" class="node">
<title>Scale_Manual</title>
<path fill="lightskyblue" stroke="black" d="M701.39,-109C701.39,-109 671.39,-109 671.39,-109 665.39,-109 659.39,-103 659.39,-97 659.39,-97 659.39,-85 659.39,-85 659.39,-79 665.39,-73 671.39,-73 671.39,-73 701.39,-73 701.39,-73 707.39,-73 713.39,-79 713.39,-85 713.39,-85 713.39,-97 713.39,-97 713.39,-103 707.39,-109 701.39,-109"/>
<text text-anchor="middle" x="686.39" y="-87.3" font-family="Helvetica,sans-Serif" font-size="14.00">Scale</text>
</g>
<!-- UseAutoScale&#45;&gt;Scale_Manual -->
<g id="edge19" class="edge">
<title>UseAutoScale&#45;&gt;Scale_Manual</title>
<path fill="none" stroke="black" d="M658.14,-160.61C662.93,-148.96 669.49,-133.04 675.08,-119.47"/>
<polygon fill="black" stroke="black" points="678.15,-121.19 678.72,-110.61 671.68,-118.53 678.15,-121.19"/>
<text text-anchor="middle" x="680.89" y="-130.8" font-family="Helvetica,sans-Serif" font-size="14.00">No</text>
</g>
<!-- MultipleFiles -->
<g id="node3" class="node">
<title>MultipleFiles</title>
<polygon fill="limegreen" stroke="black" points="340.39,-711 236.66,-693 340.39,-675 444.12,-693 340.39,-711"/>
<text text-anchor="middle" x="340.39" y="-689.3" font-family="Helvetica,sans-Serif" font-size="14.00">Multiple Files?</text>
</g>
<!-- MergeRuns -->
<g id="node11" class="node">
<title>MergeRuns</title>
<path fill="lightskyblue" stroke="black" d="M291.39,-624C291.39,-624 221.39,-624 221.39,-624 215.39,-624 209.39,-618 209.39,-612 209.39,-612 209.39,-600 209.39,-600 209.39,-594 215.39,-588 221.39,-588 221.39,-588 291.39,-588 291.39,-588 297.39,-588 303.39,-594 303.39,-600 303.39,-600 303.39,-612 303.39,-612 303.39,-618 297.39,-624 291.39,-624"/>
<text text-anchor="middle" x="256.39" y="-602.3" font-family="Helvetica,sans-Serif" font-size="14.00">MergeRuns</text>
</g>
<!-- MultipleFiles&#45;&gt;MergeRuns -->
<g id="edge4" class="edge">
<title>MultipleFiles&#45;&gt;MergeRuns</title>
<path fill="none" stroke="black" d="M325.76,-677.19C313.58,-664.87 295.95,-647.04 281.52,-632.43"/>
<polygon fill="black" stroke="black" points="284.04,-630 274.52,-625.35 279.06,-634.92 284.04,-630"/>
<text text-anchor="middle" x="315.89" y="-645.8" font-family="Helvetica,sans-Serif" font-size="14.00">Yes</text>
</g>
<!-- CalculateFlatBackground -->
<g id="node13" class="node">
<title>CalculateFlatBackground</title>
<path fill="lightskyblue" stroke="black" d="M337.89,-464C337.89,-464 172.89,-464 172.89,-464 166.89,-464 160.89,-458 160.89,-452 160.89,-452 160.89,-440 160.89,-440 160.89,-434 166.89,-428 172.89,-428 172.89,-428 337.89,-428 337.89,-428 343.89,-428 349.89,-434 349.89,-440 349.89,-440 349.89,-452 349.89,-452 349.89,-458 343.89,-464 337.89,-464"/>
<text text-anchor="middle" x="255.39" y="-442.3" font-family="Helvetica,sans-Serif" font-size="14.00">CalculateFlatBackground</text>
</g>
<!-- MultipleFiles&#45;&gt;CalculateFlatBackground -->
<g id="edge8" class="edge">
<title>MultipleFiles&#45;&gt;CalculateFlatBackground</title>
<path fill="none" stroke="black" d="M347.88,-675.98C362.94,-641.25 392.6,-557.57 358.39,-501 350.32,-487.65 337.74,-477.45 324.1,-469.7"/>
<polygon fill="black" stroke="black" points="325.87,-466.67 315.39,-465.17 322.65,-472.89 325.87,-466.67"/>
<text text-anchor="middle" x="383.89" y="-558.8" font-family="Helvetica,sans-Serif" font-size="14.00">No</text>
</g>
<!-- InputFiles -->
<g id="node4" class="node">
<title>InputFiles</title>
<ellipse fill="khaki" stroke="black" cx="265.39" cy="-839" rx="53.89" ry="18"/>
<text text-anchor="middle" x="265.39" y="-835.3" font-family="Helvetica,sans-Serif" font-size="14.00">InputFiles</text>
</g>
<!-- Load -->
<g id="node10" class="node">
<title>Load</title>
<path fill="lightskyblue" stroke="black" d="M355.39,-784C355.39,-784 325.39,-784 325.39,-784 319.39,-784 313.39,-778 313.39,-772 313.39,-772 313.39,-760 313.39,-760 313.39,-754 319.39,-748 325.39,-748 325.39,-748 355.39,-748 355.39,-748 361.39,-748 367.39,-754 367.39,-760 367.39,-760 367.39,-772 367.39,-772 367.39,-778 361.39,-784 355.39,-784"/>
<text text-anchor="middle" x="340.39" y="-762.3" font-family="Helvetica,sans-Serif" font-size="14.00">Load</text>
</g>
<!-- InputFiles&#45;&gt;Load -->
<g id="edge1" class="edge">
<title>InputFiles&#45;&gt;Load</title>
<path fill="none" stroke="black" d="M282.78,-821.53C291.98,-812.83 303.46,-801.95 313.75,-792.21"/>
<polygon fill="black" stroke="black" points="316.09,-794.83 320.94,-785.41 311.27,-789.74 316.09,-794.83"/>
</g>
<!-- DetectorRange -->
<g id="node5" class="node">
<title>DetectorRange</title>
<ellipse fill="khaki" stroke="black" cx="415.39" cy="-839" rx="77.99" ry="18"/>
<text text-anchor="middle" x="415.39" y="-835.3" font-family="Helvetica,sans-Serif" font-size="14.00">DetectorRange</text>
</g>
<!-- DetectorRange&#45;&gt;Load -->
<g id="edge2" class="edge">
<title>DetectorRange&#45;&gt;Load</title>
<path fill="none" stroke="black" d="M397.61,-821.17C388.48,-812.52 377.15,-801.81 367,-792.19"/>
<polygon fill="black" stroke="black" points="369.58,-789.82 359.92,-785.49 364.77,-794.9 369.58,-789.82"/>
</g>
<!-- PeakRange -->
<g id="node6" class="node">
<title>PeakRange</title>
<ellipse fill="khaki" stroke="black" cx="429.39" cy="-446" rx="61.19" ry="18"/>
<text text-anchor="middle" x="429.39" y="-442.3" font-family="Helvetica,sans-Serif" font-size="14.00">PeakRange</text>
</g>
<!-- Integration -->
<g id="node15" class="node">
<title>Integration</title>
<path fill="lightskyblue" stroke="black" d="M458.89,-391C458.89,-391 389.89,-391 389.89,-391 383.89,-391 377.89,-385 377.89,-379 377.89,-379 377.89,-367 377.89,-367 377.89,-361 383.89,-355 389.89,-355 389.89,-355 458.89,-355 458.89,-355 464.89,-355 470.89,-361 470.89,-367 470.89,-367 470.89,-379 470.89,-379 470.89,-385 464.89,-391 458.89,-391"/>
<text text-anchor="middle" x="424.39" y="-369.3" font-family="Helvetica,sans-Serif" font-size="14.00">Integration</text>
</g>
<!-- PeakRange&#45;&gt;Integration -->
<g id="edge11" class="edge">
<title>PeakRange&#45;&gt;Integration</title>
<path fill="none" stroke="black" d="M428.18,-427.81C427.64,-420.14 426.99,-410.89 426.38,-402.24"/>
<polygon fill="black" stroke="black" points="429.89,-402.27 425.69,-392.54 422.9,-402.76 429.89,-402.27"/>
</g>
<!-- BackgroundRange -->
<g id="node7" class="node">
<title>BackgroundRange</title>
<ellipse fill="khaki" stroke="black" cx="255.39" cy="-519" rx="93.68" ry="18"/>
<text text-anchor="middle" x="255.39" y="-515.3" font-family="Helvetica,sans-Serif" font-size="14.00">BackgroundRange</text>
</g>
<!-- BackgroundRange&#45;&gt;CalculateFlatBackground -->
<g id="edge7" class="edge">
<title>BackgroundRange&#45;&gt;CalculateFlatBackground</title>
<path fill="none" stroke="black" d="M255.39,-500.81C255.39,-493.23 255.39,-484.1 255.39,-475.54"/>
<polygon fill="black" stroke="black" points="258.89,-475.54 255.39,-465.54 251.89,-475.54 258.89,-475.54"/>
</g>
<!-- ScaleFactor -->
<g id="node8" class="node">
<title>ScaleFactor</title>
<ellipse fill="khaki" stroke="black" cx="853.39" cy="-178" rx="61.99" ry="18"/>
<text text-anchor="middle" x="853.39" y="-174.3" font-family="Helvetica,sans-Serif" font-size="14.00">ScaleFactor</text>
</g>
<!-- ScaleFactor&#45;&gt;Scale_Manual -->
<g id="edge20" class="edge">
<title>ScaleFactor&#45;&gt;Scale_Manual</title>
<path fill="none" stroke="black" d="M823.53,-161.8C795.67,-147.62 753.99,-126.41 723.89,-111.09"/>
<polygon fill="black" stroke="black" points="725.62,-108.04 715.12,-106.62 722.44,-114.28 725.62,-108.04"/>
</g>
<!-- OutputWorkspace -->
<g id="node9" class="node">
<title>OutputWorkspace</title>
<ellipse fill="khaki" stroke="black" cx="649.39" cy="-18" rx="91.78" ry="18"/>
<text text-anchor="middle" x="649.39" y="-14.3" font-family="Helvetica,sans-Serif" font-size="14.00">OutputWorkspace</text>
</g>
<!-- Load&#45;&gt;MultipleFiles -->
<g id="edge3" class="edge">
<title>Load&#45;&gt;MultipleFiles</title>
<path fill="none" stroke="black" d="M340.39,-747.81C340.39,-740.23 340.39,-731.1 340.39,-722.54"/>
<polygon fill="black" stroke="black" points="343.89,-722.54 340.39,-712.54 336.89,-722.54 343.89,-722.54"/>
</g>
<!-- Scale_Raw -->
<g id="node12" class="node">
<title>Scale_Raw</title>
<path fill="lightskyblue" stroke="black" d="M131.39,-537C131.39,-537 101.39,-537 101.39,-537 95.39,-537 89.39,-531 89.39,-525 89.39,-525 89.39,-513 89.39,-513 89.39,-507 95.39,-501 101.39,-501 101.39,-501 131.39,-501 131.39,-501 137.39,-501 143.39,-507 143.39,-513 143.39,-513 143.39,-525 143.39,-525 143.39,-531 137.39,-537 131.39,-537"/>
<text text-anchor="middle" x="116.39" y="-515.3" font-family="Helvetica,sans-Serif" font-size="14.00">Scale</text>
</g>
<!-- MergeRuns&#45;&gt;Scale_Raw -->
<g id="edge5" class="edge">
<title>MergeRuns&#45;&gt;Scale_Raw</title>
<path fill="none" stroke="black" d="M227.72,-587.59C206.16,-574.5 176.45,-556.47 153.14,-542.32"/>
<polygon fill="black" stroke="black" points="155.25,-539.5 144.89,-537.3 151.62,-545.48 155.25,-539.5"/>
</g>
<!-- Scale_Raw&#45;&gt;CalculateFlatBackground -->
<g id="edge6" class="edge">
<title>Scale_Raw&#45;&gt;CalculateFlatBackground</title>
<path fill="none" stroke="black" d="M143.85,-503.97C163.04,-494.17 189.09,-480.87 211.18,-469.58"/>
<polygon fill="black" stroke="black" points="212.68,-472.75 219.99,-465.08 209.49,-466.51 212.68,-472.75"/>
</g>
<!-- FindDetectorsOutsideLimits -->
<g id="node14" class="node">
<title>FindDetectorsOutsideLimits</title>
<path fill="lightskyblue" stroke="black" d="M346.89,-337C346.89,-337 163.89,-337 163.89,-337 157.89,-337 151.89,-331 151.89,-325 151.89,-325 151.89,-313 151.89,-313 151.89,-307 157.89,-301 163.89,-301 163.89,-301 346.89,-301 346.89,-301 352.89,-301 358.89,-307 358.89,-313 358.89,-313 358.89,-325 358.89,-325 358.89,-331 352.89,-337 346.89,-337"/>
<text text-anchor="middle" x="255.39" y="-315.3" font-family="Helvetica,sans-Serif" font-size="14.00">FindDetectorsOutsideLimits</text>
</g>
<!-- CalculateFlatBackground&#45;&gt;FindDetectorsOutsideLimits -->
<g id="edge9" class="edge">
<title>CalculateFlatBackground&#45;&gt;FindDetectorsOutsideLimits</title>
<path fill="none" stroke="black" d="M255.39,-427.62C255.39,-407.19 255.39,-372.99 255.39,-348.62"/>
<polygon fill="black" stroke="black" points="258.89,-348.75 255.39,-338.75 251.89,-348.75 258.89,-348.75"/>
</g>
<!-- CalculateFlatBackground&#45;&gt;Integration -->
<g id="edge10" class="edge">
<title>CalculateFlatBackground&#45;&gt;Integration</title>
<path fill="none" stroke="black" d="M296.73,-427.63C319.54,-418.05 348.09,-406.05 372.4,-395.84"/>
<polygon fill="black" stroke="black" points="373.63,-399.12 381.49,-392.02 370.92,-392.67 373.63,-399.12"/>
</g>
<!-- FindDetectorsOutsideLimits&#45;&gt;AutoScaleFactor -->
<g id="edge15" class="edge">
<title>FindDetectorsOutsideLimits&#45;&gt;AutoScaleFactor</title>
<path fill="none" stroke="black" d="M255.39,-300.68C255.39,-277.35 255.39,-235.53 255.39,-207.53"/>
<polygon fill="black" stroke="black" points="258.89,-207.62 255.39,-197.62 251.89,-207.62 258.89,-207.62"/>
<text text-anchor="middle" x="318.89" y="-261.3" font-family="Helvetica,sans-Serif" font-size="14.00">num_zero_spectra</text>
</g>
<!-- Integration&#45;&gt;UseAutoScale -->
<g id="edge12" class="edge">
<title>Integration&#45;&gt;UseAutoScale</title>
<path fill="none" stroke="black" d="M418.63,-354.72C409.14,-322.63 394.52,-253.51 429.39,-214 434.37,-208.36 513.93,-196.81 576.4,-188.52"/>
<polygon fill="black" stroke="black" points="576.49,-192.04 585.95,-187.26 575.58,-185.1 576.49,-192.04"/>
</g>
<!-- SumSpectra -->
<g id="node16" class="node">
<title>SumSpectra</title>
<path fill="lightskyblue" stroke="black" d="M532.89,-283C532.89,-283 455.89,-283 455.89,-283 449.89,-283 443.89,-277 443.89,-271 443.89,-271 443.89,-259 443.89,-259 443.89,-253 449.89,-247 455.89,-247 455.89,-247 532.89,-247 532.89,-247 538.89,-247 544.89,-253 544.89,-259 544.89,-259 544.89,-271 544.89,-271 544.89,-277 538.89,-283 532.89,-283"/>
<text text-anchor="middle" x="494.39" y="-261.3" font-family="Helvetica,sans-Serif" font-size="14.00">SumSpectra</text>
</g>
<!-- Integration&#45;&gt;SumSpectra -->
<g id="edge13" class="edge">
<title>Integration&#45;&gt;SumSpectra</title>
<path fill="none" stroke="black" d="M435.63,-354.97C446.69,-338.22 463.74,-312.41 476.63,-292.89"/>
<polygon fill="black" stroke="black" points="479.51,-294.88 482.1,-284.6 473.67,-291.02 479.51,-294.88"/>
</g>
<!-- SumSpectra&#45;&gt;AutoScaleFactor -->
<g id="edge16" class="edge">
<title>SumSpectra&#45;&gt;AutoScaleFactor</title>
<path fill="none" stroke="black" d="M445.45,-246.59C407.67,-233.16 355.23,-214.51 315,-200.2"/>
<polygon fill="black" stroke="black" points="316.28,-196.94 305.69,-196.89 313.94,-203.54 316.28,-196.94"/>
<text text-anchor="middle" x="404.89" y="-217.8" font-family="Helvetica,sans-Serif" font-size="14.00">sum</text>
</g>
<!-- Scale_Auto&#45;&gt;OutputWorkspace -->
<g id="edge18" class="edge">
<title>Scale_Auto&#45;&gt;OutputWorkspace</title>
<path fill="none" stroke="black" d="M622.86,-72.81C626.82,-64.79 631.62,-55.05 636.04,-46.07"/>
<polygon fill="black" stroke="black" points="639.04,-47.9 640.32,-37.39 632.76,-44.81 639.04,-47.9"/>
</g>
<!-- Scale_Manual&#45;&gt;OutputWorkspace -->
<g id="edge21" class="edge">
<title>Scale_Manual&#45;&gt;OutputWorkspace</title>
<path fill="none" stroke="black" d="M677.43,-72.81C673.25,-64.79 668.17,-55.05 663.49,-46.07"/>
<polygon fill="black" stroke="black" points="666.69,-44.62 658.96,-37.37 660.48,-47.86 666.69,-44.62"/>
</g>
</g>
</svg>
