<?xml version="1.0" encoding="UTF-8" standalone="no"?>
<!DOCTYPE svg PUBLIC "-//W3C//DTD SVG 1.1//EN"
 "http://www.w3.org/Graphics/SVG/1.1/DTD/svg11.dtd">
<!-- Generated by graphviz version 13.1.0 (20250701.1702)
 -->
<!-- Title: IndirectCalibration Pages: 1 -->
<svg width="938pt" height="899pt"
 viewBox="0.00 0.00 938.00 899.00" xmlns="http://www.w3.org/2000/svg" xmlns:xlink="http://www.w3.org/1999/xlink">
<g id="graph0" class="graph" transform="scale(1 1) rotate(0) translate(4 895.25)">
<title>IndirectCalibration</title>
<polygon fill="white" stroke="none" points="-4,4 -4,-895.25 933.68,-895.25 933.68,4 -4,4"/>
<text xml:space="preserve" text-anchor="middle" x="464.84" y="-873.95" font-family="Helvetica,sans-Serif" font-size="14.00">IndirectCalibration Flowchart</text>
<!-- AutoScaleFactor -->
<g id="node1" class="node">
<title>AutoScaleFactor</title>
<polygon fill="grey" stroke="black" points="498.44,-198.25 101.99,-198.25 0,-162.25 396.45,-162.25 498.44,-198.25"/>
<text xml:space="preserve" text-anchor="middle" x="249.22" y="-174.07" font-family="Times,serif" font-size="14.00">1 / (sum / (num_spectra / num_zero_spectra))</text>
</g>
<!-- Scale_Auto -->
<g id="node17" class="node">
<title>Scale_Auto</title>
<path fill="lightskyblue" stroke="black" d="M625.22,-109C625.22,-109 595.22,-109 595.22,-109 589.22,-109 583.22,-103 583.22,-97 583.22,-97 583.22,-85 583.22,-85 583.22,-79 589.22,-73 595.22,-73 595.22,-73 625.22,-73 625.22,-73 631.22,-73 637.22,-79 637.22,-85 637.22,-85 637.22,-97 637.22,-97 637.22,-103 631.22,-109 625.22,-109"/>
<text xml:space="preserve" text-anchor="middle" x="610.22" y="-86.33" font-family="Helvetica,sans-Serif" font-size="14.00">Scale</text>
</g>
<!-- AutoScaleFactor&#45;&gt;Scale_Auto -->
<g id="edge17" class="edge">
<title>AutoScaleFactor&#45;&gt;Scale_Auto</title>
<path fill="none" stroke="black" d="M321.41,-161.8C396.83,-143.57 512.29,-115.67 571.8,-101.28"/>
<polygon fill="black" stroke="black" points="572.56,-104.7 581.46,-98.95 570.92,-97.9 572.56,-104.7"/>
</g>
<!-- UseAutoScale -->
<g id="node2" class="node">
<title>UseAutoScale</title>
<polygon fill="limegreen" stroke="black" points="647.22,-198.25 516.02,-180.25 647.22,-162.25 778.42,-180.25 647.22,-198.25"/>
<text xml:space="preserve" text-anchor="middle" x="647.22" y="-175.57" font-family="Helvetica,sans-Serif" font-size="14.00">ScaleFactor = 1?</text>
</g>
<!-- UseAutoScale&#45;&gt;Scale_Auto -->
<g id="edge14" class="edge">
<title>UseAutoScale&#45;&gt;Scale_Auto</title>
<path fill="none" stroke="black" d="M640.26,-162.84C635.09,-150.64 627.91,-133.73 621.87,-119.48"/>
<polygon fill="black" stroke="black" points="625.24,-118.47 618.12,-110.63 618.8,-121.2 625.24,-118.47"/>
<text xml:space="preserve" text-anchor="middle" x="643.28" y="-130.95" font-family="Helvetica,sans-Serif" font-size="14.00">Yes</text>
</g>
<!-- Scale_Manual -->
<g id="node18" class="node">
<title>Scale_Manual</title>
<path fill="lightskyblue" stroke="black" d="M697.22,-109C697.22,-109 667.22,-109 667.22,-109 661.22,-109 655.22,-103 655.22,-97 655.22,-97 655.22,-85 655.22,-85 655.22,-79 661.22,-73 667.22,-73 667.22,-73 697.22,-73 697.22,-73 703.22,-73 709.22,-79 709.22,-85 709.22,-85 709.22,-97 709.22,-97 709.22,-103 703.22,-109 697.22,-109"/>
<text xml:space="preserve" text-anchor="middle" x="682.22" y="-86.33" font-family="Helvetica,sans-Serif" font-size="14.00">Scale</text>
</g>
<!-- UseAutoScale&#45;&gt;Scale_Manual -->
<g id="edge19" class="edge">
<title>UseAutoScale&#45;&gt;Scale_Manual</title>
<path fill="none" stroke="black" d="M653.8,-162.84C658.65,-150.76 665.35,-134.06 671.03,-119.9"/>
<polygon fill="black" stroke="black" points="674.27,-121.22 674.74,-110.64 667.77,-118.62 674.27,-121.22"/>
<text xml:space="preserve" text-anchor="middle" x="677.23" y="-130.95" font-family="Helvetica,sans-Serif" font-size="14.00">No</text>
</g>
<!-- MultipleFiles -->
<g id="node3" class="node">
<title>MultipleFiles</title>
<polygon fill="limegreen" stroke="black" points="341.22,-720 229.37,-702 341.22,-684 453.07,-702 341.22,-720"/>
<text xml:space="preserve" text-anchor="middle" x="341.22" y="-697.33" font-family="Helvetica,sans-Serif" font-size="14.00">Multiple Files?</text>
</g>
<!-- MergeRuns -->
<g id="node11" class="node">
<title>MergeRuns</title>
<path fill="lightskyblue" stroke="black" d="M287.84,-630.75C287.84,-630.75 218.59,-630.75 218.59,-630.75 212.59,-630.75 206.59,-624.75 206.59,-618.75 206.59,-618.75 206.59,-606.75 206.59,-606.75 206.59,-600.75 212.59,-594.75 218.59,-594.75 218.59,-594.75 287.84,-594.75 287.84,-594.75 293.84,-594.75 299.84,-600.75 299.84,-606.75 299.84,-606.75 299.84,-618.75 299.84,-618.75 299.84,-624.75 293.84,-630.75 287.84,-630.75"/>
<text xml:space="preserve" text-anchor="middle" x="253.22" y="-608.08" font-family="Helvetica,sans-Serif" font-size="14.00">MergeRuns</text>
</g>
<!-- MultipleFiles&#45;&gt;MergeRuns -->
<g id="edge4" class="edge">
<title>MultipleFiles&#45;&gt;MergeRuns</title>
<path fill="none" stroke="black" d="M326.29,-686.2C313.3,-673.32 294.19,-654.37 278.77,-639.08"/>
<polygon fill="black" stroke="black" points="281.28,-636.65 271.72,-632.09 276.35,-641.62 281.28,-636.65"/>
<text xml:space="preserve" text-anchor="middle" x="316.35" y="-652.7" font-family="Helvetica,sans-Serif" font-size="14.00">Yes</text>
</g>
<!-- CalculateFlatBackground -->
<g id="node13" class="node">
<title>CalculateFlatBackground</title>
<path fill="lightskyblue" stroke="black" d="M331.47,-468.5C331.47,-468.5 166.97,-468.5 166.97,-468.5 160.97,-468.5 154.97,-462.5 154.97,-456.5 154.97,-456.5 154.97,-444.5 154.97,-444.5 154.97,-438.5 160.97,-432.5 166.97,-432.5 166.97,-432.5 331.47,-432.5 331.47,-432.5 337.47,-432.5 343.47,-438.5 343.47,-444.5 343.47,-444.5 343.47,-456.5 343.47,-456.5 343.47,-462.5 337.47,-468.5 331.47,-468.5"/>
<text xml:space="preserve" text-anchor="middle" x="249.22" y="-445.82" font-family="Helvetica,sans-Serif" font-size="14.00">CalculateFlatBackground</text>
</g>
<!-- MultipleFiles&#45;&gt;CalculateFlatBackground -->
<g id="edge8" class="edge">
<title>MultipleFiles&#45;&gt;CalculateFlatBackground</title>
<path fill="none" stroke="black" d="M348.83,-684.8C364.32,-649.27 395.09,-563.07 359.22,-505.5 350.72,-491.86 337.65,-481.56 323.46,-473.83"/>
<polygon fill="black" stroke="black" points="325.36,-470.87 314.85,-469.55 322.24,-477.13 325.36,-470.87"/>
<text xml:space="preserve" text-anchor="middle" x="385.29" y="-563.45" font-family="Helvetica,sans-Serif" font-size="14.00">No</text>
</g>
<!-- InputFiles -->
<g id="node4" class="node">
<title>InputFiles</title>
<ellipse fill="khaki" stroke="black" cx="261.22" cy="-848" rx="58.05" ry="18"/>
<text xml:space="preserve" text-anchor="middle" x="261.22" y="-843.33" font-family="Helvetica,sans-Serif" font-size="14.00">InputFiles</text>
</g>
<!-- Load -->
<g id="node10" class="node">
<title>Load</title>
<path fill="lightskyblue" stroke="black" d="M356.22,-793C356.22,-793 326.22,-793 326.22,-793 320.22,-793 314.22,-787 314.22,-781 314.22,-781 314.22,-769 314.22,-769 314.22,-763 320.22,-757 326.22,-757 326.22,-757 356.22,-757 356.22,-757 362.22,-757 368.22,-763 368.22,-769 368.22,-769 368.22,-781 368.22,-781 368.22,-787 362.22,-793 356.22,-793"/>
<text xml:space="preserve" text-anchor="middle" x="341.22" y="-770.33" font-family="Helvetica,sans-Serif" font-size="14.00">Load</text>
</g>
<!-- InputFiles&#45;&gt;Load -->
<g id="edge1" class="edge">
<title>InputFiles&#45;&gt;Load</title>
<path fill="none" stroke="black" d="M279.77,-830.53C289.68,-821.74 302.08,-810.74 313.14,-800.92"/>
<polygon fill="black" stroke="black" points="315.36,-803.63 320.52,-794.37 310.71,-798.39 315.36,-803.63"/>
</g>
<!-- DetectorRange -->
<g id="node5" class="node">
<title>DetectorRange</title>
<ellipse fill="khaki" stroke="black" cx="421.22" cy="-848" rx="83.83" ry="18"/>
<text xml:space="preserve" text-anchor="middle" x="421.22" y="-843.33" font-family="Helvetica,sans-Serif" font-size="14.00">DetectorRange</text>
</g>
<!-- DetectorRange&#45;&gt;Load -->
<g id="edge2" class="edge">
<title>DetectorRange&#45;&gt;Load</title>
<path fill="none" stroke="black" d="M402.26,-830.17C392.42,-821.44 380.2,-810.59 369.28,-800.9"/>
<polygon fill="black" stroke="black" points="371.81,-798.47 362.01,-794.45 367.17,-803.71 371.81,-798.47"/>
</g>
<!-- PeakRange -->
<g id="node6" class="node">
<title>PeakRange</title>
<ellipse fill="khaki" stroke="black" cx="427.22" cy="-450.5" rx="65.41" ry="18"/>
<text xml:space="preserve" text-anchor="middle" x="427.22" y="-445.82" font-family="Helvetica,sans-Serif" font-size="14.00">PeakRange</text>
</g>
<!-- Integration -->
<g id="node15" class="node">
<title>Integration</title>
<path fill="lightskyblue" stroke="black" d="M449.47,-395.5C449.47,-395.5 380.97,-395.5 380.97,-395.5 374.97,-395.5 368.97,-389.5 368.97,-383.5 368.97,-383.5 368.97,-371.5 368.97,-371.5 368.97,-365.5 374.97,-359.5 380.97,-359.5 380.97,-359.5 449.47,-359.5 449.47,-359.5 455.47,-359.5 461.47,-365.5 461.47,-371.5 461.47,-371.5 461.47,-383.5 461.47,-383.5 461.47,-389.5 455.47,-395.5 449.47,-395.5"/>
<text xml:space="preserve" text-anchor="middle" x="415.22" y="-372.82" font-family="Helvetica,sans-Serif" font-size="14.00">Integration</text>
</g>
<!-- PeakRange&#45;&gt;Integration -->
<g id="edge11" class="edge">
<title>PeakRange&#45;&gt;Integration</title>
<path fill="none" stroke="black" d="M424.31,-432.31C423.02,-424.64 421.45,-415.39 419.99,-406.74"/>
<polygon fill="black" stroke="black" points="423.47,-406.3 418.35,-397.02 416.56,-407.46 423.47,-406.3"/>
</g>
<!-- BackgroundRange -->
<g id="node7" class="node">
<title>BackgroundRange</title>
<ellipse fill="khaki" stroke="black" cx="249.22" cy="-523.5" rx="100.66" ry="18"/>
<text xml:space="preserve" text-anchor="middle" x="249.22" y="-518.83" font-family="Helvetica,sans-Serif" font-size="14.00">BackgroundRange</text>
</g>
<!-- BackgroundRange&#45;&gt;CalculateFlatBackground -->
<g id="edge7" class="edge">
<title>BackgroundRange&#45;&gt;CalculateFlatBackground</title>
<path fill="none" stroke="black" d="M249.22,-505.31C249.22,-497.73 249.22,-488.6 249.22,-480.04"/>
<polygon fill="black" stroke="black" points="252.72,-480.04 249.22,-470.04 245.72,-480.04 252.72,-480.04"/>
</g>
<!-- ScaleFactor -->
<g id="node8" class="node">
<title>ScaleFactor</title>
<ellipse fill="khaki" stroke="black" cx="863.22" cy="-180.25" rx="66.47" ry="18"/>
<text xml:space="preserve" text-anchor="middle" x="863.22" y="-175.57" font-family="Helvetica,sans-Serif" font-size="14.00">ScaleFactor</text>
</g>
<!-- ScaleFactor&#45;&gt;Scale_Manual -->
<g id="edge20" class="edge">
<title>ScaleFactor&#45;&gt;Scale_Manual</title>
<path fill="none" stroke="black" d="M831.69,-164.05C800.53,-149.03 752.83,-126.04 719.74,-110.09"/>
<polygon fill="black" stroke="black" points="721.43,-107.02 710.91,-105.83 718.39,-113.32 721.43,-107.02"/>
</g>
<!-- OutputWorkspace -->
<g id="node9" class="node">
<title>OutputWorkspace</title>
<ellipse fill="khaki" stroke="black" cx="645.22" cy="-18" rx="98.56" ry="18"/>
<text xml:space="preserve" text-anchor="middle" x="645.22" y="-13.32" font-family="Helvetica,sans-Serif" font-size="14.00">OutputWorkspace</text>
</g>
<!-- Load&#45;&gt;MultipleFiles -->
<g id="edge3" class="edge">
<title>Load&#45;&gt;MultipleFiles</title>
<path fill="none" stroke="black" d="M341.22,-756.81C341.22,-749.23 341.22,-740.1 341.22,-731.54"/>
<polygon fill="black" stroke="black" points="344.72,-731.54 341.22,-721.54 337.72,-731.54 344.72,-731.54"/>
</g>
<!-- Scale_Raw -->
<g id="node12" class="node">
<title>Scale_Raw</title>
<path fill="lightskyblue" stroke="black" d="M118.22,-541.5C118.22,-541.5 88.22,-541.5 88.22,-541.5 82.22,-541.5 76.22,-535.5 76.22,-529.5 76.22,-529.5 76.22,-517.5 76.22,-517.5 76.22,-511.5 82.22,-505.5 88.22,-505.5 88.22,-505.5 118.22,-505.5 118.22,-505.5 124.22,-505.5 130.22,-511.5 130.22,-517.5 130.22,-517.5 130.22,-529.5 130.22,-529.5 130.22,-535.5 124.22,-541.5 118.22,-541.5"/>
<text xml:space="preserve" text-anchor="middle" x="103.22" y="-518.83" font-family="Helvetica,sans-Serif" font-size="14.00">Scale</text>
</g>
<!-- MergeRuns&#45;&gt;Scale_Raw -->
<g id="edge5" class="edge">
<title>MergeRuns&#45;&gt;Scale_Raw</title>
<path fill="none" stroke="black" d="M223.22,-594.3C199.37,-580.43 165.89,-560.95 140.35,-546.1"/>
<polygon fill="black" stroke="black" points="142.35,-543.21 131.94,-541.21 138.83,-549.26 142.35,-543.21"/>
</g>
<!-- Scale_Raw&#45;&gt;CalculateFlatBackground -->
<g id="edge6" class="edge">
<title>Scale_Raw&#45;&gt;CalculateFlatBackground</title>
<path fill="none" stroke="black" d="M130.68,-509.15C151.04,-499.24 179.28,-485.51 203.08,-473.94"/>
<polygon fill="black" stroke="black" points="204.5,-477.14 211.96,-469.62 201.44,-470.85 204.5,-477.14"/>
</g>
<!-- FindDetectorsOutsideLimits -->
<g id="node14" class="node">
<title>FindDetectorsOutsideLimits</title>
<path fill="lightskyblue" stroke="black" d="M340.47,-341.5C340.47,-341.5 157.97,-341.5 157.97,-341.5 151.97,-341.5 145.97,-335.5 145.97,-329.5 145.97,-329.5 145.97,-317.5 145.97,-317.5 145.97,-311.5 151.97,-305.5 157.97,-305.5 157.97,-305.5 340.47,-305.5 340.47,-305.5 346.47,-305.5 352.47,-311.5 352.47,-317.5 352.47,-317.5 352.47,-329.5 352.47,-329.5 352.47,-335.5 346.47,-341.5 340.47,-341.5"/>
<text xml:space="preserve" text-anchor="middle" x="249.22" y="-318.82" font-family="Helvetica,sans-Serif" font-size="14.00">FindDetectorsOutsideLimits</text>
</g>
<!-- CalculateFlatBackground&#45;&gt;FindDetectorsOutsideLimits -->
<g id="edge9" class="edge">
<title>CalculateFlatBackground&#45;&gt;FindDetectorsOutsideLimits</title>
<path fill="none" stroke="black" d="M249.22,-432.12C249.22,-411.69 249.22,-377.49 249.22,-353.12"/>
<polygon fill="black" stroke="black" points="252.72,-353.25 249.22,-343.25 245.72,-353.25 252.72,-353.25"/>
</g>
<!-- CalculateFlatBackground&#45;&gt;Integration -->
<g id="edge10" class="edge">
<title>CalculateFlatBackground&#45;&gt;Integration</title>
<path fill="none" stroke="black" d="M289.83,-432.13C312.24,-422.55 340.28,-410.55 364.16,-400.34"/>
<polygon fill="black" stroke="black" points="365.25,-403.68 373.06,-396.53 362.49,-397.25 365.25,-403.68"/>
</g>
<!-- FindDetectorsOutsideLimits&#45;&gt;AutoScaleFactor -->
<g id="edge15" class="edge">
<title>FindDetectorsOutsideLimits&#45;&gt;AutoScaleFactor</title>
<path fill="none" stroke="black" d="M249.22,-305.18C249.22,-281.46 249.22,-238.56 249.22,-209.98"/>
<polygon fill="black" stroke="black" points="252.72,-210.23 249.22,-200.23 245.72,-210.23 252.72,-210.23"/>
<text xml:space="preserve" text-anchor="middle" x="312.22" y="-264.82" font-family="Helvetica,sans-Serif" font-size="14.00">num_zero_spectra</text>
</g>
<!-- Integration&#45;&gt;UseAutoScale -->
<g id="edge12" class="edge">
<title>Integration&#45;&gt;UseAutoScale</title>
<path fill="none" stroke="black" d="M409.83,-359.17C400.9,-326.63 387.35,-256.11 423.22,-216.25 428.24,-210.67 506.86,-199.31 569.55,-191.04"/>
<polygon fill="black" stroke="black" points="569.69,-194.55 579.15,-189.78 568.78,-187.61 569.69,-194.55"/>
</g>
<!-- SumSpectra -->
<g id="node16" class="node">
<title>SumSpectra</title>
<path fill="lightskyblue" stroke="black" d="M525.59,-287.5C525.59,-287.5 448.84,-287.5 448.84,-287.5 442.84,-287.5 436.84,-281.5 436.84,-275.5 436.84,-275.5 436.84,-263.5 436.84,-263.5 436.84,-257.5 442.84,-251.5 448.84,-251.5 448.84,-251.5 525.59,-251.5 525.59,-251.5 531.59,-251.5 537.59,-257.5 537.59,-263.5 537.59,-263.5 537.59,-275.5 537.59,-275.5 537.59,-281.5 531.59,-287.5 525.59,-287.5"/>
<text xml:space="preserve" text-anchor="middle" x="487.22" y="-264.82" font-family="Helvetica,sans-Serif" font-size="14.00">SumSpectra</text>
</g>
<!-- Integration&#45;&gt;SumSpectra -->
<g id="edge13" class="edge">
<title>Integration&#45;&gt;SumSpectra</title>
<path fill="none" stroke="black" d="M426.79,-359.47C438.21,-342.65 455.86,-316.67 469.14,-297.12"/>
<polygon fill="black" stroke="black" points="471.87,-299.33 474.59,-289.09 466.08,-295.4 471.87,-299.33"/>
</g>
<!-- SumSpectra&#45;&gt;AutoScaleFactor -->
<g id="edge16" class="edge">
<title>SumSpectra&#45;&gt;AutoScaleFactor</title>
<path fill="none" stroke="black" d="M439.63,-251.05C401.52,-237.08 347.92,-217.43 307.29,-202.54"/>
<polygon fill="black" stroke="black" points="308.74,-199.34 298.15,-199.19 306.33,-205.92 308.74,-199.34"/>
<text xml:space="preserve" text-anchor="middle" x="404.54" y="-220.2" font-family="Helvetica,sans-Serif" font-size="14.00">sum</text>
</g>
<!-- Scale_Auto&#45;&gt;OutputWorkspace -->
<g id="edge18" class="edge">
<title>Scale_Auto&#45;&gt;OutputWorkspace</title>
<path fill="none" stroke="black" d="M618.69,-72.81C622.65,-64.79 627.45,-55.05 631.88,-46.07"/>
<polygon fill="black" stroke="black" points="634.87,-47.9 636.16,-37.39 628.59,-44.81 634.87,-47.9"/>
</g>
<!-- Scale_Manual&#45;&gt;OutputWorkspace -->
<g id="edge21" class="edge">
<title>Scale_Manual&#45;&gt;OutputWorkspace</title>
<path fill="none" stroke="black" d="M673.26,-72.81C669.08,-64.79 664,-55.05 659.33,-46.07"/>
<polygon fill="black" stroke="black" points="662.52,-44.62 654.79,-37.37 656.31,-47.86 662.52,-44.62"/>
</g>
</g>
</svg>
