<?xml version="1.0" encoding="UTF-8" standalone="no"?>
<!DOCTYPE svg PUBLIC "-//W3C//DTD SVG 1.1//EN"
 "http://www.w3.org/Graphics/SVG/1.1/DTD/svg11.dtd">
<!-- Generated by graphviz version 13.1.0 (20250701.1702)
 -->
<!-- Title: IndirectCylinderAbsorption Pages: 1 -->
<svg width="1508pt" height="1897pt"
 viewBox="0.00 0.00 1508.00 1897.00" xmlns="http://www.w3.org/2000/svg" xmlns:xlink="http://www.w3.org/1999/xlink">
<g id="graph0" class="graph" transform="scale(1 1) rotate(0) translate(4 1893)">
<title>IndirectCylinderAbsorption</title>
<polygon fill="white" stroke="none" points="-4,4 -4,-1893 1504.2,-1893 1504.2,4 -4,4"/>
<text xml:space="preserve" text-anchor="middle" x="750.1" y="-1871.7" font-family="Helvetica,sans-Serif" font-size="14.00">IndirectCylinderAbsorption Flowchart</text>
<!-- SampleWorkspace1 -->
<g id="node1" class="node">
<title>SampleWorkspace1</title>
<ellipse fill="khaki" stroke="black" cx="702.5" cy="-1845.75" rx="100.66" ry="18"/>
<text xml:space="preserve" text-anchor="middle" x="702.5" y="-1841.08" font-family="Helvetica,sans-Serif" font-size="14.00">SampleWorkspace</text>
</g>
<!-- GetEFixed -->
<g id="node22" class="node">
<title>GetEFixed</title>
<path fill="lightskyblue" stroke="black" d="M697.62,-1790.75C697.62,-1790.75 637.37,-1790.75 637.37,-1790.75 631.37,-1790.75 625.37,-1784.75 625.37,-1778.75 625.37,-1778.75 625.37,-1766.75 625.37,-1766.75 625.37,-1760.75 631.37,-1754.75 637.37,-1754.75 637.37,-1754.75 697.62,-1754.75 697.62,-1754.75 703.62,-1754.75 709.62,-1760.75 709.62,-1766.75 709.62,-1766.75 709.62,-1778.75 709.62,-1778.75 709.62,-1784.75 703.62,-1790.75 697.62,-1790.75"/>
<text xml:space="preserve" text-anchor="middle" x="667.5" y="-1768.08" font-family="Helvetica,sans-Serif" font-size="14.00">GetEFixed</text>
</g>
<!-- SampleWorkspace1&#45;&gt;GetEFixed -->
<g id="edge1" class="edge">
<title>SampleWorkspace1&#45;&gt;GetEFixed</title>
<path fill="none" stroke="black" d="M694.03,-1827.56C690.07,-1819.54 685.27,-1809.8 680.84,-1800.82"/>
<polygon fill="black" stroke="black" points="684.12,-1799.56 676.56,-1792.14 677.84,-1802.65 684.12,-1799.56"/>
</g>
<!-- ConvertUnits1 -->
<g id="node23" class="node">
<title>ConvertUnits1</title>
<path fill="lightskyblue" stroke="black" d="M784.87,-1644.75C784.87,-1644.75 702.12,-1644.75 702.12,-1644.75 696.12,-1644.75 690.12,-1638.75 690.12,-1632.75 690.12,-1632.75 690.12,-1620.75 690.12,-1620.75 690.12,-1614.75 696.12,-1608.75 702.12,-1608.75 702.12,-1608.75 784.87,-1608.75 784.87,-1608.75 790.87,-1608.75 796.87,-1614.75 796.87,-1620.75 796.87,-1620.75 796.87,-1632.75 796.87,-1632.75 796.87,-1638.75 790.87,-1644.75 784.87,-1644.75"/>
<text xml:space="preserve" text-anchor="middle" x="743.5" y="-1622.08" font-family="Helvetica,sans-Serif" font-size="14.00">ConvertUnits</text>
</g>
<!-- SampleWorkspace1&#45;&gt;ConvertUnits1 -->
<g id="edge4" class="edge">
<title>SampleWorkspace1&#45;&gt;ConvertUnits1</title>
<path fill="none" stroke="black" d="M708.29,-1827.4C711.64,-1816.89 715.72,-1803.15 718.5,-1790.75 728.92,-1744.18 736.37,-1689.14 740.3,-1656.41"/>
<polygon fill="black" stroke="black" points="743.77,-1656.87 741.45,-1646.53 736.82,-1656.05 743.77,-1656.87"/>
</g>
<!-- SampleWorkspace2 -->
<g id="node2" class="node">
<title>SampleWorkspace2</title>
<ellipse fill="khaki" stroke="black" cx="338.5" cy="-545.25" rx="100.66" ry="18"/>
<text xml:space="preserve" text-anchor="middle" x="338.5" y="-540.58" font-family="Helvetica,sans-Serif" font-size="14.00">SampleWorkspace</text>
</g>
<!-- Minus1 -->
<g id="node34" class="node">
<title>Minus1</title>
<path fill="lightskyblue" stroke="black" d="M418.12,-417.25C418.12,-417.25 384.87,-417.25 384.87,-417.25 378.87,-417.25 372.87,-411.25 372.87,-405.25 372.87,-405.25 372.87,-393.25 372.87,-393.25 372.87,-387.25 378.87,-381.25 384.87,-381.25 384.87,-381.25 418.12,-381.25 418.12,-381.25 424.12,-381.25 430.12,-387.25 430.12,-393.25 430.12,-393.25 430.12,-405.25 430.12,-405.25 430.12,-411.25 424.12,-417.25 418.12,-417.25"/>
<text xml:space="preserve" text-anchor="middle" x="401.5" y="-394.57" font-family="Helvetica,sans-Serif" font-size="14.00">Minus</text>
</g>
<!-- SampleWorkspace2&#45;&gt;Minus1 -->
<g id="edge32" class="edge">
<title>SampleWorkspace2&#45;&gt;Minus1</title>
<path fill="none" stroke="black" d="M346.1,-526.88C356.83,-502.34 376.56,-457.25 389.34,-428.03"/>
<polygon fill="black" stroke="black" points="392.46,-429.63 393.26,-419.07 386.05,-426.83 392.46,-429.63"/>
</g>
<!-- Minus2 -->
<g id="node35" class="node">
<title>Minus2</title>
<path fill="lightskyblue" stroke="black" d="M298.12,-490.25C298.12,-490.25 264.87,-490.25 264.87,-490.25 258.87,-490.25 252.87,-484.25 252.87,-478.25 252.87,-478.25 252.87,-466.25 252.87,-466.25 252.87,-460.25 258.87,-454.25 264.87,-454.25 264.87,-454.25 298.12,-454.25 298.12,-454.25 304.12,-454.25 310.12,-460.25 310.12,-466.25 310.12,-466.25 310.12,-478.25 310.12,-478.25 310.12,-484.25 304.12,-490.25 298.12,-490.25"/>
<text xml:space="preserve" text-anchor="middle" x="281.5" y="-467.57" font-family="Helvetica,sans-Serif" font-size="14.00">Minus</text>
</g>
<!-- SampleWorkspace2&#45;&gt;Minus2 -->
<g id="edge34" class="edge">
<title>SampleWorkspace2&#45;&gt;Minus2</title>
<path fill="none" stroke="black" d="M324.7,-527.06C317.98,-518.69 309.75,-508.45 302.29,-499.15"/>
<polygon fill="black" stroke="black" points="305.11,-497.07 296.12,-491.46 299.65,-501.45 305.11,-497.07"/>
</g>
<!-- SampleWorkspace_Wave -->
<g id="node3" class="node">
<title>SampleWorkspace_Wave</title>
<ellipse fill="khaki" stroke="black" cx="1368.5" cy="-1537.5" rx="131.7" ry="18"/>
<text xml:space="preserve" text-anchor="middle" x="1368.5" y="-1532.83" font-family="Helvetica,sans-Serif" font-size="14.00">SampleWorkspace_Wave</text>
</g>
<!-- SetSampleMaterial1 -->
<g id="node26" class="node">
<title>SetSampleMaterial1</title>
<path fill="lightskyblue" stroke="black" d="M1053.37,-1482.5C1053.37,-1482.5 931.62,-1482.5 931.62,-1482.5 925.62,-1482.5 919.62,-1476.5 919.62,-1470.5 919.62,-1470.5 919.62,-1458.5 919.62,-1458.5 919.62,-1452.5 925.62,-1446.5 931.62,-1446.5 931.62,-1446.5 1053.37,-1446.5 1053.37,-1446.5 1059.37,-1446.5 1065.37,-1452.5 1065.37,-1458.5 1065.37,-1458.5 1065.37,-1470.5 1065.37,-1470.5 1065.37,-1476.5 1059.37,-1482.5 1053.37,-1482.5"/>
<text xml:space="preserve" text-anchor="middle" x="992.5" y="-1459.83" font-family="Helvetica,sans-Serif" font-size="14.00">SetSampleMaterial</text>
</g>
<!-- SampleWorkspace_Wave&#45;&gt;SetSampleMaterial1 -->
<g id="edge6" class="edge">
<title>SampleWorkspace_Wave&#45;&gt;SetSampleMaterial1</title>
<path fill="none" stroke="black" d="M1293.31,-1522.3C1230.71,-1510.48 1141.63,-1493.66 1076.66,-1481.39"/>
<polygon fill="black" stroke="black" points="1077.6,-1478.01 1067.12,-1479.59 1076.3,-1484.89 1077.6,-1478.01"/>
</g>
<!-- SampleWorkspace_Wave2 -->
<g id="node4" class="node">
<title>SampleWorkspace_Wave2</title>
<ellipse fill="khaki" stroke="black" cx="401.5" cy="-326.25" rx="131.7" ry="18"/>
<text xml:space="preserve" text-anchor="middle" x="401.5" y="-321.57" font-family="Helvetica,sans-Serif" font-size="14.00">SampleWorkspace_Wave</text>
</g>
<!-- ConvertUnits3 -->
<g id="node25" class="node">
<title>ConvertUnits3</title>
<path fill="lightskyblue" stroke="black" d="M442.87,-255C442.87,-255 360.12,-255 360.12,-255 354.12,-255 348.12,-249 348.12,-243 348.12,-243 348.12,-231 348.12,-231 348.12,-225 354.12,-219 360.12,-219 360.12,-219 442.87,-219 442.87,-219 448.87,-219 454.87,-225 454.87,-231 454.87,-231 454.87,-243 454.87,-243 454.87,-249 448.87,-255 442.87,-255"/>
<text xml:space="preserve" text-anchor="middle" x="401.5" y="-232.32" font-family="Helvetica,sans-Serif" font-size="14.00">ConvertUnits</text>
</g>
<!-- SampleWorkspace_Wave2&#45;&gt;ConvertUnits3 -->
<g id="edge41" class="edge">
<title>SampleWorkspace_Wave2&#45;&gt;ConvertUnits3</title>
<path fill="none" stroke="black" d="M401.5,-308.01C401.5,-296.18 401.5,-280.2 401.5,-266.5"/>
<polygon fill="black" stroke="black" points="405,-266.72 401.5,-256.72 398,-266.72 405,-266.72"/>
<text xml:space="preserve" text-anchor="middle" x="481.37" y="-276.95" font-family="Helvetica,sans-Serif" font-size="14.00">Convert back to DeltaE</text>
</g>
<!-- SampleChemicalFormula -->
<g id="node5" class="node">
<title>SampleChemicalFormula</title>
<ellipse fill="khaki" stroke="black" cx="821.5" cy="-1537.5" rx="131.18" ry="18"/>
<text xml:space="preserve" text-anchor="middle" x="821.5" y="-1532.83" font-family="Helvetica,sans-Serif" font-size="14.00">SampleChemicalFormula</text>
</g>
<!-- SampleChemicalFormula&#45;&gt;SetSampleMaterial1 -->
<g id="edge7" class="edge">
<title>SampleChemicalFormula&#45;&gt;SetSampleMaterial1</title>
<path fill="none" stroke="black" d="M861.16,-1520.03C884.55,-1510.32 914.45,-1497.91 939.81,-1487.38"/>
<polygon fill="black" stroke="black" points="941.07,-1490.64 948.97,-1483.57 938.39,-1484.18 941.07,-1490.64"/>
</g>
<!-- SampleNumberDensity -->
<g id="node6" class="node">
<title>SampleNumberDensity</title>
<ellipse fill="khaki" stroke="black" cx="1094.5" cy="-1537.5" rx="123.81" ry="18"/>
<text xml:space="preserve" text-anchor="middle" x="1094.5" y="-1532.83" font-family="Helvetica,sans-Serif" font-size="14.00">SampleNumberDensity</text>
</g>
<!-- SampleNumberDensity&#45;&gt;SetSampleMaterial1 -->
<g id="edge8" class="edge">
<title>SampleNumberDensity&#45;&gt;SetSampleMaterial1</title>
<path fill="none" stroke="black" d="M1070.07,-1519.49C1057.14,-1510.49 1041.05,-1499.29 1026.88,-1489.43"/>
<polygon fill="black" stroke="black" points="1028.89,-1486.57 1018.68,-1483.73 1024.89,-1492.31 1028.89,-1486.57"/>
</g>
<!-- SampleRadius -->
<g id="node7" class="node">
<title>SampleRadius</title>
<ellipse fill="khaki" stroke="black" cx="393.5" cy="-1464.5" rx="80.67" ry="18"/>
<text xml:space="preserve" text-anchor="middle" x="393.5" y="-1459.83" font-family="Helvetica,sans-Serif" font-size="14.00">SampleRadius</text>
</g>
<!-- CylinderAbsorption1 -->
<g id="node28" class="node">
<title>CylinderAbsorption1</title>
<path fill="lightskyblue" stroke="black" d="M675.25,-1409.5C675.25,-1409.5 549.75,-1409.5 549.75,-1409.5 543.75,-1409.5 537.75,-1403.5 537.75,-1397.5 537.75,-1397.5 537.75,-1385.5 537.75,-1385.5 537.75,-1379.5 543.75,-1373.5 549.75,-1373.5 549.75,-1373.5 675.25,-1373.5 675.25,-1373.5 681.25,-1373.5 687.25,-1379.5 687.25,-1385.5 687.25,-1385.5 687.25,-1397.5 687.25,-1397.5 687.25,-1403.5 681.25,-1409.5 675.25,-1409.5"/>
<text xml:space="preserve" text-anchor="middle" x="612.5" y="-1386.83" font-family="Helvetica,sans-Serif" font-size="14.00">CylinderAbsorption</text>
</g>
<!-- SampleRadius&#45;&gt;CylinderAbsorption1 -->
<g id="edge10" class="edge">
<title>SampleRadius&#45;&gt;CylinderAbsorption1</title>
<path fill="none" stroke="black" d="M438.08,-1449.05C469.7,-1438.79 512.63,-1424.88 547.98,-1413.42"/>
<polygon fill="black" stroke="black" points="548.82,-1416.83 557.25,-1410.41 546.66,-1410.17 548.82,-1416.83"/>
</g>
<!-- SampleThickness -->
<g id="node8" class="node">
<title>SampleThickness</title>
<ellipse fill="khaki" stroke="black" cx="917.5" cy="-1845.75" rx="95.93" ry="18"/>
<text xml:space="preserve" text-anchor="middle" x="917.5" y="-1841.08" font-family="Helvetica,sans-Serif" font-size="14.00">SampleThickness</text>
</g>
<!-- AbsWorkspace1 -->
<g id="node9" class="node">
<title>AbsWorkspace1</title>
<ellipse fill="khaki" stroke="black" cx="612.5" cy="-1318.5" rx="117.5" ry="18"/>
<text xml:space="preserve" text-anchor="middle" x="612.5" y="-1313.83" font-family="Helvetica,sans-Serif" font-size="14.00">AbsorptionWorkspace</text>
</g>
<!-- canGiven -->
<g id="node38" class="node">
<title>canGiven</title>
<polygon fill="limegreen" stroke="black" points="612.5,-1263.5 482.79,-1245.5 612.5,-1227.5 742.21,-1245.5 612.5,-1263.5"/>
<text xml:space="preserve" text-anchor="middle" x="612.5" y="-1240.83" font-family="Helvetica,sans-Serif" font-size="14.00">Can Workspace?</text>
</g>
<!-- AbsWorkspace1&#45;&gt;canGiven -->
<g id="edge14" class="edge">
<title>AbsWorkspace1&#45;&gt;canGiven</title>
<path fill="none" stroke="black" d="M612.5,-1300.31C612.5,-1292.73 612.5,-1283.6 612.5,-1275.04"/>
<polygon fill="black" stroke="black" points="616,-1275.04 612.5,-1265.04 609,-1275.04 616,-1275.04"/>
</g>
<!-- AbsWorkspace2 -->
<g id="node10" class="node">
<title>AbsWorkspace2</title>
<ellipse fill="khaki" stroke="black" cx="117.5" cy="-472.25" rx="117.5" ry="18"/>
<text xml:space="preserve" text-anchor="middle" x="117.5" y="-467.57" font-family="Helvetica,sans-Serif" font-size="14.00">AbsorptionWorkspace</text>
</g>
<!-- Divide2 -->
<g id="node32" class="node">
<title>Divide2</title>
<path fill="lightskyblue" stroke="black" d="M299.25,-417.25C299.25,-417.25 263.75,-417.25 263.75,-417.25 257.75,-417.25 251.75,-411.25 251.75,-405.25 251.75,-405.25 251.75,-393.25 251.75,-393.25 251.75,-387.25 257.75,-381.25 263.75,-381.25 263.75,-381.25 299.25,-381.25 299.25,-381.25 305.25,-381.25 311.25,-387.25 311.25,-393.25 311.25,-393.25 311.25,-405.25 311.25,-405.25 311.25,-411.25 305.25,-417.25 299.25,-417.25"/>
<text xml:space="preserve" text-anchor="middle" x="281.5" y="-394.57" font-family="Helvetica,sans-Serif" font-size="14.00">Divide</text>
</g>
<!-- AbsWorkspace2&#45;&gt;Divide2 -->
<g id="edge36" class="edge">
<title>AbsWorkspace2&#45;&gt;Divide2</title>
<path fill="none" stroke="black" d="M155.53,-454.78C181.15,-443.69 214.89,-429.09 241,-417.78"/>
<polygon fill="black" stroke="black" points="242.15,-421.1 249.93,-413.92 239.37,-414.68 242.15,-421.1"/>
</g>
<!-- CanWorkspace -->
<g id="node11" class="node">
<title>CanWorkspace</title>
<ellipse fill="khaki" stroke="black" cx="490.5" cy="-1156.25" rx="83.3" ry="18"/>
<text xml:space="preserve" text-anchor="middle" x="490.5" y="-1151.58" font-family="Helvetica,sans-Serif" font-size="14.00">CanWorkspace</text>
</g>
<!-- ConvertUnits2 -->
<g id="node24" class="node">
<title>ConvertUnits2</title>
<path fill="lightskyblue" stroke="black" d="M531.87,-1066.25C531.87,-1066.25 449.12,-1066.25 449.12,-1066.25 443.12,-1066.25 437.12,-1060.25 437.12,-1054.25 437.12,-1054.25 437.12,-1042.25 437.12,-1042.25 437.12,-1036.25 443.12,-1030.25 449.12,-1030.25 449.12,-1030.25 531.87,-1030.25 531.87,-1030.25 537.87,-1030.25 543.87,-1036.25 543.87,-1042.25 543.87,-1042.25 543.87,-1054.25 543.87,-1054.25 543.87,-1060.25 537.87,-1066.25 531.87,-1066.25"/>
<text xml:space="preserve" text-anchor="middle" x="490.5" y="-1043.58" font-family="Helvetica,sans-Serif" font-size="14.00">ConvertUnits</text>
</g>
<!-- CanWorkspace&#45;&gt;ConvertUnits2 -->
<g id="edge16" class="edge">
<title>CanWorkspace&#45;&gt;ConvertUnits2</title>
<path fill="none" stroke="black" d="M490.5,-1138.22C490.5,-1122.01 490.5,-1097.31 490.5,-1078.04"/>
<polygon fill="black" stroke="black" points="494,-1078.1 490.5,-1068.1 487,-1078.1 494,-1078.1"/>
</g>
<!-- CanWorkspace_Wave -->
<g id="node12" class="node">
<title>CanWorkspace_Wave</title>
<ellipse fill="khaki" stroke="black" cx="438.5" cy="-959" rx="114.34" ry="18"/>
<text xml:space="preserve" text-anchor="middle" x="438.5" y="-954.33" font-family="Helvetica,sans-Serif" font-size="14.00">CanWorkspace_Wave</text>
</g>
<!-- canScale -->
<g id="node39" class="node">
<title>canScale</title>
<polygon fill="limegreen" stroke="black" points="146.5,-904 55.48,-886 146.5,-868 237.52,-886 146.5,-904"/>
<text xml:space="preserve" text-anchor="middle" x="146.5" y="-881.33" font-family="Helvetica,sans-Serif" font-size="14.00">Can Scale?</text>
</g>
<!-- CanWorkspace_Wave&#45;&gt;canScale -->
<g id="edge19" class="edge">
<title>CanWorkspace_Wave&#45;&gt;canScale</title>
<path fill="none" stroke="black" d="M378,-943.29C324.42,-930.26 247.12,-911.47 196.84,-899.24"/>
<polygon fill="black" stroke="black" points="197.94,-895.91 187.39,-896.94 196.28,-902.71 197.94,-895.91"/>
</g>
<!-- CanScale -->
<g id="node13" class="node">
<title>CanScale</title>
<ellipse fill="khaki" stroke="black" cx="311.5" cy="-886" rx="55.94" ry="18"/>
<text xml:space="preserve" text-anchor="middle" x="311.5" y="-881.33" font-family="Helvetica,sans-Serif" font-size="14.00">CanScale</text>
</g>
<!-- Scale -->
<g id="node30" class="node">
<title>Scale</title>
<path fill="lightskyblue" stroke="black" d="M302.5,-814.75C302.5,-814.75 272.5,-814.75 272.5,-814.75 266.5,-814.75 260.5,-808.75 260.5,-802.75 260.5,-802.75 260.5,-790.75 260.5,-790.75 260.5,-784.75 266.5,-778.75 272.5,-778.75 272.5,-778.75 302.5,-778.75 302.5,-778.75 308.5,-778.75 314.5,-784.75 314.5,-790.75 314.5,-790.75 314.5,-802.75 314.5,-802.75 314.5,-808.75 308.5,-814.75 302.5,-814.75"/>
<text xml:space="preserve" text-anchor="middle" x="287.5" y="-792.08" font-family="Helvetica,sans-Serif" font-size="14.00">Scale</text>
</g>
<!-- CanScale&#45;&gt;Scale -->
<g id="edge21" class="edge">
<title>CanScale&#45;&gt;Scale</title>
<path fill="none" stroke="black" d="M306.76,-867.76C303.47,-855.81 299.02,-839.63 295.22,-825.83"/>
<polygon fill="black" stroke="black" points="298.66,-825.12 292.63,-816.41 291.91,-826.98 298.66,-825.12"/>
</g>
<!-- CanChemicalFormula -->
<g id="node14" class="node">
<title>CanChemicalFormula</title>
<ellipse fill="khaki" stroke="black" cx="665.5" cy="-723.75" rx="113.82" ry="18"/>
<text xml:space="preserve" text-anchor="middle" x="665.5" y="-719.08" font-family="Helvetica,sans-Serif" font-size="14.00">CanChemicalFormula</text>
</g>
<!-- SetSampleMaterial2 -->
<g id="node27" class="node">
<title>SetSampleMaterial2</title>
<path fill="lightskyblue" stroke="black" d="M663.37,-652.5C663.37,-652.5 541.62,-652.5 541.62,-652.5 535.62,-652.5 529.62,-646.5 529.62,-640.5 529.62,-640.5 529.62,-628.5 529.62,-628.5 529.62,-622.5 535.62,-616.5 541.62,-616.5 541.62,-616.5 663.37,-616.5 663.37,-616.5 669.37,-616.5 675.37,-622.5 675.37,-628.5 675.37,-628.5 675.37,-640.5 675.37,-640.5 675.37,-646.5 669.37,-652.5 663.37,-652.5"/>
<text xml:space="preserve" text-anchor="middle" x="602.5" y="-629.83" font-family="Helvetica,sans-Serif" font-size="14.00">SetSampleMaterial</text>
</g>
<!-- CanChemicalFormula&#45;&gt;SetSampleMaterial2 -->
<g id="edge25" class="edge">
<title>CanChemicalFormula&#45;&gt;SetSampleMaterial2</title>
<path fill="none" stroke="black" d="M653.05,-705.51C644.08,-693.08 631.8,-676.08 621.59,-661.94"/>
<polygon fill="black" stroke="black" points="624.5,-659.99 615.8,-653.93 618.82,-664.09 624.5,-659.99"/>
</g>
<!-- CanNumberDensity -->
<g id="node15" class="node">
<title>CanNumberDensity</title>
<ellipse fill="khaki" stroke="black" cx="427.5" cy="-723.75" rx="106.45" ry="18"/>
<text xml:space="preserve" text-anchor="middle" x="427.5" y="-719.08" font-family="Helvetica,sans-Serif" font-size="14.00">CanNumberDensity</text>
</g>
<!-- CanNumberDensity&#45;&gt;SetSampleMaterial2 -->
<g id="edge26" class="edge">
<title>CanNumberDensity&#45;&gt;SetSampleMaterial2</title>
<path fill="none" stroke="black" d="M460.41,-706.34C487.9,-692.63 527.35,-672.97 557.71,-657.83"/>
<polygon fill="black" stroke="black" points="558.89,-661.15 566.28,-653.56 555.77,-654.89 558.89,-661.15"/>
</g>
<!-- CanRadius -->
<g id="node16" class="node">
<title>CanRadius</title>
<ellipse fill="khaki" stroke="black" cx="448.5" cy="-634.5" rx="63.31" ry="18"/>
<text xml:space="preserve" text-anchor="middle" x="448.5" y="-629.83" font-family="Helvetica,sans-Serif" font-size="14.00">CanRadius</text>
</g>
<!-- CylinderAbsorption2 -->
<g id="node29" class="node">
<title>CylinderAbsorption2</title>
<path fill="lightskyblue" stroke="black" d="M594.25,-563.25C594.25,-563.25 468.75,-563.25 468.75,-563.25 462.75,-563.25 456.75,-557.25 456.75,-551.25 456.75,-551.25 456.75,-539.25 456.75,-539.25 456.75,-533.25 462.75,-527.25 468.75,-527.25 468.75,-527.25 594.25,-527.25 594.25,-527.25 600.25,-527.25 606.25,-533.25 606.25,-539.25 606.25,-539.25 606.25,-551.25 606.25,-551.25 606.25,-557.25 600.25,-563.25 594.25,-563.25"/>
<text xml:space="preserve" text-anchor="middle" x="531.5" y="-540.58" font-family="Helvetica,sans-Serif" font-size="14.00">CylinderAbsorption</text>
</g>
<!-- CanRadius&#45;&gt;CylinderAbsorption2 -->
<g id="edge28" class="edge">
<title>CanRadius&#45;&gt;CylinderAbsorption2</title>
<path fill="none" stroke="black" d="M464.5,-616.68C476.63,-603.93 493.5,-586.19 507.28,-571.71"/>
<polygon fill="black" stroke="black" points="509.58,-574.37 513.93,-564.71 504.5,-569.55 509.58,-574.37"/>
</g>
<!-- ElementSize1 -->
<g id="node17" class="node">
<title>ElementSize1</title>
<ellipse fill="khaki" stroke="black" cx="563.5" cy="-1464.5" rx="71.2" ry="18"/>
<text xml:space="preserve" text-anchor="middle" x="563.5" y="-1459.83" font-family="Helvetica,sans-Serif" font-size="14.00">ElementSize</text>
</g>
<!-- ElementSize1&#45;&gt;CylinderAbsorption1 -->
<g id="edge11" class="edge">
<title>ElementSize1&#45;&gt;CylinderAbsorption1</title>
<path fill="none" stroke="black" d="M575.36,-1446.31C581.02,-1438.12 587.91,-1428.12 594.22,-1418.98"/>
<polygon fill="black" stroke="black" points="597.09,-1420.99 599.89,-1410.77 591.33,-1417.02 597.09,-1420.99"/>
</g>
<!-- SampleLogs -->
<g id="node18" class="node">
<title>SampleLogs</title>
<ellipse fill="khaki" stroke="black" cx="259.5" cy="-237" rx="70.15" ry="18"/>
<text xml:space="preserve" text-anchor="middle" x="259.5" y="-232.32" font-family="Helvetica,sans-Serif" font-size="14.00">SampleLogs</text>
</g>
<!-- AddSampleLogMultiple -->
<g id="node36" class="node">
<title>AddSampleLogMultiple</title>
<path fill="lightskyblue" stroke="black" d="M346.62,-182C346.62,-182 196.37,-182 196.37,-182 190.37,-182 184.37,-176 184.37,-170 184.37,-170 184.37,-158 184.37,-158 184.37,-152 190.37,-146 196.37,-146 196.37,-146 346.62,-146 346.62,-146 352.62,-146 358.62,-152 358.62,-158 358.62,-158 358.62,-170 358.62,-170 358.62,-176 352.62,-182 346.62,-182"/>
<text xml:space="preserve" text-anchor="middle" x="271.5" y="-159.32" font-family="Helvetica,sans-Serif" font-size="14.00">AddSampleLogMultiple</text>
</g>
<!-- SampleLogs&#45;&gt;AddSampleLogMultiple -->
<g id="edge43" class="edge">
<title>SampleLogs&#45;&gt;AddSampleLogMultiple</title>
<path fill="none" stroke="black" d="M262.4,-218.81C263.7,-211.14 265.26,-201.89 266.72,-193.24"/>
<polygon fill="black" stroke="black" points="270.15,-193.96 268.37,-183.52 263.25,-192.8 270.15,-193.96"/>
</g>
<!-- EFixed1 -->
<g id="node19" class="node">
<title>EFixed1</title>
<ellipse fill="khaki" stroke="black" cx="662.5" cy="-1699.75" rx="41.74" ry="18"/>
<text xml:space="preserve" text-anchor="middle" x="662.5" y="-1695.08" font-family="Helvetica,sans-Serif" font-size="14.00">eFixed</text>
</g>
<!-- EFixed1&#45;&gt;ConvertUnits1 -->
<g id="edge3" class="edge">
<title>EFixed1&#45;&gt;ConvertUnits1</title>
<path fill="none" stroke="black" d="M680.07,-1683.34C690.31,-1674.37 703.45,-1662.85 715.12,-1652.63"/>
<polygon fill="black" stroke="black" points="717.33,-1655.34 722.54,-1646.12 712.71,-1650.08 717.33,-1655.34"/>
</g>
<!-- EFixed1&#45;&gt;CylinderAbsorption1 -->
<g id="edge12" class="edge">
<title>EFixed1&#45;&gt;CylinderAbsorption1</title>
<path fill="none" stroke="black" d="M662.5,-1681.53C662.5,-1667.16 662.5,-1646.12 662.5,-1627.75 662.5,-1627.75 662.5,-1627.75 662.5,-1463.5 662.5,-1446.23 652.48,-1430.2 641.42,-1417.75"/>
<polygon fill="black" stroke="black" points="644.21,-1415.61 634.75,-1410.83 639.17,-1420.46 644.21,-1415.61"/>
</g>
<!-- EFixed2 -->
<g id="node20" class="node">
<title>EFixed2</title>
<ellipse fill="khaki" stroke="black" cx="633.5" cy="-1156.25" rx="41.74" ry="18"/>
<text xml:space="preserve" text-anchor="middle" x="633.5" y="-1151.58" font-family="Helvetica,sans-Serif" font-size="14.00">eFixed</text>
</g>
<!-- EFixed2&#45;&gt;ConvertUnits2 -->
<g id="edge17" class="edge">
<title>EFixed2&#45;&gt;ConvertUnits2</title>
<path fill="none" stroke="black" d="M613.31,-1140.29C589.8,-1122.86 550.62,-1093.82 522.85,-1073.23"/>
<polygon fill="black" stroke="black" points="525.24,-1070.64 515.12,-1067.5 521.07,-1076.27 525.24,-1070.64"/>
</g>
<!-- OutputWorkspace -->
<g id="node21" class="node">
<title>OutputWorkspace</title>
<ellipse fill="khaki" stroke="black" cx="271.5" cy="-18" rx="98.56" ry="18"/>
<text xml:space="preserve" text-anchor="middle" x="271.5" y="-13.32" font-family="Helvetica,sans-Serif" font-size="14.00">OutputWorkspace</text>
</g>
<!-- GetEFixed&#45;&gt;EFixed1 -->
<g id="edge2" class="edge">
<title>GetEFixed&#45;&gt;EFixed1</title>
<path fill="none" stroke="black" d="M666.29,-1754.56C665.75,-1746.89 665.1,-1737.64 664.49,-1728.99"/>
<polygon fill="black" stroke="black" points="668,-1729.02 663.8,-1719.29 661.01,-1729.51 668,-1729.02"/>
</g>
<!-- ConvertUnits1&#45;&gt;SampleWorkspace_Wave -->
<g id="edge5" class="edge">
<title>ConvertUnits1&#45;&gt;SampleWorkspace_Wave</title>
<path fill="none" stroke="black" d="M797.33,-1618.24C901.8,-1603.65 1133.53,-1571.3 1267.51,-1552.6"/>
<polygon fill="black" stroke="black" points="1267.65,-1556.11 1277.07,-1551.26 1266.68,-1549.18 1267.65,-1556.11"/>
<text xml:space="preserve" text-anchor="middle" x="1257.48" y="-1577.45" font-family="Helvetica,sans-Serif" font-size="14.00">Convert input workspace into Wavelength</text>
</g>
<!-- ConvertUnits2&#45;&gt;CanWorkspace_Wave -->
<g id="edge18" class="edge">
<title>ConvertUnits2&#45;&gt;CanWorkspace_Wave</title>
<path fill="none" stroke="black" d="M480.22,-1030.01C472.89,-1017.7 462.88,-1000.91 454.5,-986.85"/>
<polygon fill="black" stroke="black" points="457.65,-985.3 449.52,-978.5 451.64,-988.88 457.65,-985.3"/>
<text xml:space="preserve" text-anchor="middle" x="609.03" y="-998.95" font-family="Helvetica,sans-Serif" font-size="14.00">Convert can workspace into Wavelength</text>
</g>
<!-- ConvertUnits3&#45;&gt;AddSampleLogMultiple -->
<g id="edge42" class="edge">
<title>ConvertUnits3&#45;&gt;AddSampleLogMultiple</title>
<path fill="none" stroke="black" d="M369.7,-218.63C352.78,-209.39 331.76,-197.91 313.51,-187.95"/>
<polygon fill="black" stroke="black" points="315.2,-184.88 304.75,-183.16 311.85,-191.03 315.2,-184.88"/>
</g>
<!-- SetSampleMaterial1&#45;&gt;CylinderAbsorption1 -->
<g id="edge9" class="edge">
<title>SetSampleMaterial1&#45;&gt;CylinderAbsorption1</title>
<path fill="none" stroke="black" d="M919.23,-1449.81C856.23,-1438.04 765.28,-1421.05 698.78,-1408.62"/>
<polygon fill="black" stroke="black" points="699.45,-1405.19 688.98,-1406.79 698.16,-1412.07 699.45,-1405.19"/>
</g>
<!-- SetSampleMaterial2&#45;&gt;CylinderAbsorption2 -->
<g id="edge27" class="edge">
<title>SetSampleMaterial2&#45;&gt;CylinderAbsorption2</title>
<path fill="none" stroke="black" d="M588.47,-616.26C578.26,-603.71 564.25,-586.5 552.68,-572.28"/>
<polygon fill="black" stroke="black" points="555.48,-570.17 546.45,-564.63 550.05,-574.59 555.48,-570.17"/>
</g>
<!-- Divide1 -->
<g id="node31" class="node">
<title>Divide1</title>
<path fill="lightskyblue" stroke="black" d="M549.25,-490.25C549.25,-490.25 513.75,-490.25 513.75,-490.25 507.75,-490.25 501.75,-484.25 501.75,-478.25 501.75,-478.25 501.75,-466.25 501.75,-466.25 501.75,-460.25 507.75,-454.25 513.75,-454.25 513.75,-454.25 549.25,-454.25 549.25,-454.25 555.25,-454.25 561.25,-460.25 561.25,-466.25 561.25,-466.25 561.25,-478.25 561.25,-478.25 561.25,-484.25 555.25,-490.25 549.25,-490.25"/>
<text xml:space="preserve" text-anchor="middle" x="531.5" y="-467.57" font-family="Helvetica,sans-Serif" font-size="14.00">Divide</text>
</g>
<!-- SetSampleMaterial2&#45;&gt;Divide1 -->
<g id="edge30" class="edge">
<title>SetSampleMaterial2&#45;&gt;Divide1</title>
<path fill="none" stroke="black" d="M610.57,-616.13C619.55,-594.07 630.9,-555.47 615.5,-527.25 606.07,-509.99 588.5,-497.42 571.86,-488.77"/>
<polygon fill="black" stroke="black" points="573.59,-485.72 563.06,-484.55 570.56,-492.03 573.59,-485.72"/>
</g>
<!-- CylinderAbsorption1&#45;&gt;AbsWorkspace1 -->
<g id="edge13" class="edge">
<title>CylinderAbsorption1&#45;&gt;AbsWorkspace1</title>
<path fill="none" stroke="black" d="M612.5,-1373.31C612.5,-1365.73 612.5,-1356.6 612.5,-1348.04"/>
<polygon fill="black" stroke="black" points="616,-1348.04 612.5,-1338.04 609,-1348.04 616,-1348.04"/>
</g>
<!-- CylinderAbsorption2&#45;&gt;Divide1 -->
<g id="edge29" class="edge">
<title>CylinderAbsorption2&#45;&gt;Divide1</title>
<path fill="none" stroke="black" d="M531.5,-527.06C531.5,-519.48 531.5,-510.35 531.5,-501.79"/>
<polygon fill="black" stroke="black" points="535,-501.79 531.5,-491.79 528,-501.79 535,-501.79"/>
</g>
<!-- useCorrections -->
<g id="node40" class="node">
<title>useCorrections</title>
<polygon fill="limegreen" stroke="black" points="171.5,-741.75 39.56,-723.75 171.5,-705.75 303.44,-723.75 171.5,-741.75"/>
<text xml:space="preserve" text-anchor="middle" x="171.5" y="-719.08" font-family="Helvetica,sans-Serif" font-size="14.00">Can Corrections?</text>
</g>
<!-- Scale&#45;&gt;useCorrections -->
<g id="edge22" class="edge">
<title>Scale&#45;&gt;useCorrections</title>
<path fill="none" stroke="black" d="M260.01,-778.92C243.43,-768.78 222.2,-755.79 204.69,-745.07"/>
<polygon fill="black" stroke="black" points="206.52,-742.08 196.17,-739.85 202.87,-748.06 206.52,-742.08"/>
</g>
<!-- Divide1&#45;&gt;Minus1 -->
<g id="edge31" class="edge">
<title>Divide1&#45;&gt;Minus1</title>
<path fill="none" stroke="black" d="M501.35,-454.78C483.29,-444.92 460.14,-432.28 440.68,-421.65"/>
<polygon fill="black" stroke="black" points="442.37,-418.59 431.92,-416.87 439.02,-424.73 442.37,-418.59"/>
</g>
<!-- Divide2&#45;&gt;SampleWorkspace_Wave2 -->
<g id="edge39" class="edge">
<title>Divide2&#45;&gt;SampleWorkspace_Wave2</title>
<path fill="none" stroke="black" d="M310.85,-380.88C326.63,-371.55 346.27,-359.93 363.23,-349.89"/>
<polygon fill="black" stroke="black" points="364.73,-353.07 371.56,-344.96 361.17,-347.04 364.73,-353.07"/>
</g>
<!-- Divide3 -->
<g id="node33" class="node">
<title>Divide3</title>
<path fill="lightskyblue" stroke="black" d="M766.25,-1120.25C766.25,-1120.25 730.75,-1120.25 730.75,-1120.25 724.75,-1120.25 718.75,-1114.25 718.75,-1108.25 718.75,-1108.25 718.75,-1096.25 718.75,-1096.25 718.75,-1090.25 724.75,-1084.25 730.75,-1084.25 730.75,-1084.25 766.25,-1084.25 766.25,-1084.25 772.25,-1084.25 778.25,-1090.25 778.25,-1096.25 778.25,-1096.25 778.25,-1108.25 778.25,-1108.25 778.25,-1114.25 772.25,-1120.25 766.25,-1120.25"/>
<text xml:space="preserve" text-anchor="middle" x="748.5" y="-1097.58" font-family="Helvetica,sans-Serif" font-size="14.00">Divide</text>
</g>
<!-- Divide3&#45;&gt;SampleWorkspace_Wave2 -->
<g id="edge40" class="edge">
<title>Divide3&#45;&gt;SampleWorkspace_Wave2</title>
<path fill="none" stroke="black" d="M767.17,-1083.94C784.45,-1065.96 807.5,-1036.07 807.5,-1004.62 807.5,-1004.62 807.5,-1004.62 807.5,-398.25 807.5,-369.2 644.14,-348.44 524.66,-337.14"/>
<polygon fill="black" stroke="black" points="525.03,-333.65 514.75,-336.21 524.38,-340.62 525.03,-333.65"/>
</g>
<!-- Minus1&#45;&gt;SampleWorkspace_Wave2 -->
<g id="edge38" class="edge">
<title>Minus1&#45;&gt;SampleWorkspace_Wave2</title>
<path fill="none" stroke="black" d="M401.5,-381.06C401.5,-373.48 401.5,-364.35 401.5,-355.79"/>
<polygon fill="black" stroke="black" points="405,-355.79 401.5,-345.79 398,-355.79 405,-355.79"/>
</g>
<!-- Minus2&#45;&gt;Divide2 -->
<g id="edge35" class="edge">
<title>Minus2&#45;&gt;Divide2</title>
<path fill="none" stroke="black" d="M281.5,-454.06C281.5,-446.48 281.5,-437.35 281.5,-428.79"/>
<polygon fill="black" stroke="black" points="285,-428.79 281.5,-418.79 278,-428.79 285,-428.79"/>
</g>
<!-- GroupWorkspaces -->
<g id="node37" class="node">
<title>GroupWorkspaces</title>
<path fill="lightskyblue" stroke="black" d="M330.12,-109C330.12,-109 212.87,-109 212.87,-109 206.87,-109 200.87,-103 200.87,-97 200.87,-97 200.87,-85 200.87,-85 200.87,-79 206.87,-73 212.87,-73 212.87,-73 330.12,-73 330.12,-73 336.12,-73 342.12,-79 342.12,-85 342.12,-85 342.12,-97 342.12,-97 342.12,-103 336.12,-109 330.12,-109"/>
<text xml:space="preserve" text-anchor="middle" x="271.5" y="-86.33" font-family="Helvetica,sans-Serif" font-size="14.00">GroupWorkspaces</text>
</g>
<!-- AddSampleLogMultiple&#45;&gt;GroupWorkspaces -->
<g id="edge44" class="edge">
<title>AddSampleLogMultiple&#45;&gt;GroupWorkspaces</title>
<path fill="none" stroke="black" d="M271.5,-145.81C271.5,-138.23 271.5,-129.1 271.5,-120.54"/>
<polygon fill="black" stroke="black" points="275,-120.54 271.5,-110.54 268,-120.54 275,-120.54"/>
</g>
<!-- GroupWorkspaces&#45;&gt;OutputWorkspace -->
<g id="edge45" class="edge">
<title>GroupWorkspaces&#45;&gt;OutputWorkspace</title>
<path fill="none" stroke="black" d="M271.5,-72.81C271.5,-65.23 271.5,-56.1 271.5,-47.54"/>
<polygon fill="black" stroke="black" points="275,-47.54 271.5,-37.54 268,-47.54 275,-47.54"/>
</g>
<!-- canGiven&#45;&gt;CanWorkspace -->
<g id="edge15" class="edge">
<title>canGiven&#45;&gt;CanWorkspace</title>
<path fill="none" stroke="black" d="M592.08,-1229.9C573.29,-1216.46 545.1,-1196.3 523.18,-1180.62"/>
<polygon fill="black" stroke="black" points="525.31,-1177.84 515.14,-1174.87 521.24,-1183.54 525.31,-1177.84"/>
<text xml:space="preserve" text-anchor="middle" x="573.68" y="-1196.2" font-family="Helvetica,sans-Serif" font-size="14.00">Yes</text>
</g>
<!-- canGiven&#45;&gt;Divide3 -->
<g id="edge37" class="edge">
<title>canGiven&#45;&gt;Divide3</title>
<path fill="none" stroke="black" d="M628.52,-1229.44C643.3,-1215.4 665.74,-1193.77 684.5,-1174.25 698.55,-1159.63 713.78,-1142.78 725.85,-1129.17"/>
<polygon fill="black" stroke="black" points="728.29,-1131.7 732.28,-1121.88 723.04,-1127.07 728.29,-1131.7"/>
<text xml:space="preserve" text-anchor="middle" x="675.9" y="-1196.2" font-family="Helvetica,sans-Serif" font-size="14.00">No</text>
</g>
<!-- canScale&#45;&gt;Scale -->
<g id="edge20" class="edge">
<title>canScale&#45;&gt;Scale</title>
<path fill="none" stroke="black" d="M157.38,-869.86C166.39,-858.3 180.12,-842.71 195.25,-832.75 215.07,-819.71 223.33,-823.2 245.5,-814.75 246.82,-814.25 248.17,-813.73 249.52,-813.2"/>
<polygon fill="black" stroke="black" points="250.57,-816.55 258.59,-809.62 248,-810.04 250.57,-816.55"/>
<text xml:space="preserve" text-anchor="middle" x="244.37" y="-836.7" font-family="Helvetica,sans-Serif" font-size="14.00">Not equal to 1</text>
</g>
<!-- canScale&#45;&gt;useCorrections -->
<g id="edge23" class="edge">
<title>canScale&#45;&gt;useCorrections</title>
<path fill="none" stroke="black" d="M152.31,-868.79C154.22,-862.94 156.18,-856.23 157.5,-850 164.41,-817.25 168.06,-778.92 169.88,-753.37"/>
<polygon fill="black" stroke="black" points="173.37,-753.65 170.53,-743.44 166.38,-753.19 173.37,-753.65"/>
<text xml:space="preserve" text-anchor="middle" x="202.85" y="-792.08" font-family="Helvetica,sans-Serif" font-size="14.00">Equal to 1</text>
</g>
<!-- useCorrections&#45;&gt;SetSampleMaterial2 -->
<g id="edge24" class="edge">
<title>useCorrections&#45;&gt;SetSampleMaterial2</title>
<path fill="none" stroke="black" d="M223.55,-712.37C289.57,-699.18 407.24,-675.61 518.13,-652.98"/>
<polygon fill="black" stroke="black" points="518.6,-656.45 527.7,-651.02 517.2,-649.6 518.6,-656.45"/>
<text xml:space="preserve" text-anchor="middle" x="435.92" y="-674.45" font-family="Helvetica,sans-Serif" font-size="14.00">Yes</text>
</g>
<!-- useCorrections&#45;&gt;Minus2 -->
<g id="edge33" class="edge">
<title>useCorrections&#45;&gt;Minus2</title>
<path fill="none" stroke="black" d="M184.16,-707.15C188.32,-701.35 192.62,-694.53 195.5,-687.75 223.99,-620.73 194.26,-591.53 228.5,-527.25 234.15,-516.64 242.53,-506.72 250.97,-498.34"/>
<polygon fill="black" stroke="black" points="253.31,-500.94 258.22,-491.55 248.53,-495.83 253.31,-500.94"/>
<text xml:space="preserve" text-anchor="middle" x="220.47" y="-585.2" font-family="Helvetica,sans-Serif" font-size="14.00">No</text>
</g>
</g>
</svg>
