<?xml version="1.0" encoding="UTF-8" standalone="no"?>
<!DOCTYPE svg PUBLIC "-//W3C//DTD SVG 1.1//EN"
 "http://www.w3.org/Graphics/SVG/1.1/DTD/svg11.dtd">
<!-- Generated by graphviz version 7.0.5 (20221231.0122)
 -->
<!-- Title: IndirectFlatePlateAbsorption Pages: 1 -->
<svg width="1465pt" height="1670pt"
 viewBox="0.00 0.00 1464.94 1670.00" xmlns="http://www.w3.org/2000/svg" xmlns:xlink="http://www.w3.org/1999/xlink">
<g id="graph0" class="graph" transform="scale(1 1) rotate(0) translate(4 1666)">
<title>IndirectFlatePlateAbsorption</title>
<polygon fill="white" stroke="none" points="-4,4 -4,-1666 1460.94,-1666 1460.94,4 -4,4"/>
<text text-anchor="middle" x="728.47" y="-1646.8" font-family="Helvetica,sans-Serif" font-size="14.00">IndirectFlatePlateAbsorption Flowchart</text>
<!-- SampleWorkspace1 -->
<g id="node1" class="node">
<title>SampleWorkspace1</title>
<ellipse fill="khaki" stroke="black" cx="1177.94" cy="-1621" rx="93.68" ry="18"/>
<text text-anchor="middle" x="1177.94" y="-1617.3" font-family="Helvetica,sans-Serif" font-size="14.00">SampleWorkspace</text>
</g>
<!-- GetEFixed -->
<g id="node19" class="node">
<title>GetEFixed</title>
<path fill="lightskyblue" stroke="black" d="M1208.44,-1566C1208.44,-1566 1147.44,-1566 1147.44,-1566 1141.44,-1566 1135.44,-1560 1135.44,-1554 1135.44,-1554 1135.44,-1542 1135.44,-1542 1135.44,-1536 1141.44,-1530 1147.44,-1530 1147.44,-1530 1208.44,-1530 1208.44,-1530 1214.44,-1530 1220.44,-1536 1220.44,-1542 1220.44,-1542 1220.44,-1554 1220.44,-1554 1220.44,-1560 1214.44,-1566 1208.44,-1566"/>
<text text-anchor="middle" x="1177.94" y="-1544.3" font-family="Helvetica,sans-Serif" font-size="14.00">GetEFixed</text>
</g>
<!-- SampleWorkspace1&#45;&gt;GetEFixed -->
<g id="edge1" class="edge">
<title>SampleWorkspace1&#45;&gt;GetEFixed</title>
<path fill="none" stroke="black" d="M1177.94,-1602.81C1177.94,-1595.23 1177.94,-1586.1 1177.94,-1577.54"/>
<polygon fill="black" stroke="black" points="1181.44,-1577.54 1177.94,-1567.54 1174.44,-1577.54 1181.44,-1577.54"/>
</g>
<!-- SampleWorkspace2 -->
<g id="node2" class="node">
<title>SampleWorkspace2</title>
<ellipse fill="khaki" stroke="black" cx="340.94" cy="-936" rx="93.68" ry="18"/>
<text text-anchor="middle" x="340.94" y="-932.3" font-family="Helvetica,sans-Serif" font-size="14.00">SampleWorkspace</text>
</g>
<!-- Divide1 -->
<g id="node38" class="node">
<title>Divide1</title>
<ellipse fill="lightgrey" stroke="black" cx="561.94" cy="-863" rx="44.69" ry="18"/>
<text text-anchor="middle" x="561.94" y="-859.3" font-family="Helvetica,sans-Serif" font-size="14.00">Divide1</text>
</g>
<!-- SampleWorkspace2&#45;&gt;Divide1 -->
<g id="edge22" class="edge">
<title>SampleWorkspace2&#45;&gt;Divide1</title>
<path fill="none" stroke="black" d="M387.54,-920.03C425.69,-907.77 479.33,-890.54 517.01,-878.43"/>
<polygon fill="black" stroke="black" points="517.79,-881.86 526.24,-875.47 515.65,-875.2 517.79,-881.86"/>
</g>
<!-- SampleChemicalFormula -->
<g id="node3" class="node">
<title>SampleChemicalFormula</title>
<ellipse fill="khaki" stroke="black" cx="193.94" cy="-1388" rx="122.38" ry="18"/>
<text text-anchor="middle" x="193.94" y="-1384.3" font-family="Helvetica,sans-Serif" font-size="14.00">SampleChemicalFormula</text>
</g>
<!-- SetSample -->
<g id="node25" class="node">
<title>SetSample</title>
<path fill="lightskyblue" stroke="black" d="M701.44,-1333C701.44,-1333 634.44,-1333 634.44,-1333 628.44,-1333 622.44,-1327 622.44,-1321 622.44,-1321 622.44,-1309 622.44,-1309 622.44,-1303 628.44,-1297 634.44,-1297 634.44,-1297 701.44,-1297 701.44,-1297 707.44,-1297 713.44,-1303 713.44,-1309 713.44,-1309 713.44,-1321 713.44,-1321 713.44,-1327 707.44,-1333 701.44,-1333"/>
<text text-anchor="middle" x="667.94" y="-1311.3" font-family="Helvetica,sans-Serif" font-size="14.00">SetSample</text>
</g>
<!-- SampleChemicalFormula&#45;&gt;SetSample -->
<g id="edge10" class="edge">
<title>SampleChemicalFormula&#45;&gt;SetSample</title>
<path fill="none" stroke="black" d="M283.43,-1375.37C297.33,-1373.57 311.52,-1371.73 324.94,-1370 449.43,-1353.93 484.9,-1360.02 611.3,-1333.14"/>
<polygon fill="black" stroke="black" points="611.66,-1336.64 620.7,-1331.11 610.19,-1329.8 611.66,-1336.64"/>
</g>
<!-- SampleDensity -->
<g id="node4" class="node">
<title>SampleDensity</title>
<ellipse fill="khaki" stroke="black" cx="412.94" cy="-1388" rx="78.79" ry="18"/>
<text text-anchor="middle" x="412.94" y="-1384.3" font-family="Helvetica,sans-Serif" font-size="14.00">SampleDensity</text>
</g>
<!-- SampleDensity&#45;&gt;SetSample -->
<g id="edge11" class="edge">
<title>SampleDensity&#45;&gt;SetSample</title>
<path fill="none" stroke="black" d="M463.63,-1373.85C501.69,-1363.86 555.35,-1349.52 611.23,-1333.44"/>
<polygon fill="black" stroke="black" points="611.97,-1336.87 620.61,-1330.74 610.03,-1330.15 611.97,-1336.87"/>
</g>
<!-- SampleHeight -->
<g id="node5" class="node">
<title>SampleHeight</title>
<ellipse fill="khaki" stroke="black" cx="583.94" cy="-1388" rx="74.19" ry="18"/>
<text text-anchor="middle" x="583.94" y="-1384.3" font-family="Helvetica,sans-Serif" font-size="14.00">SampleHeight</text>
</g>
<!-- SampleHeight&#45;&gt;SetSample -->
<g id="edge8" class="edge">
<title>SampleHeight&#45;&gt;SetSample</title>
<path fill="none" stroke="black" d="M603.85,-1370.17C614.29,-1361.35 627.27,-1350.38 638.82,-1340.62"/>
<polygon fill="black" stroke="black" points="640.77,-1343.55 646.14,-1334.42 636.25,-1338.21 640.77,-1343.55"/>
</g>
<!-- SampleRadius -->
<g id="node6" class="node">
<title>SampleRadius</title>
<ellipse fill="khaki" stroke="black" cx="750.94" cy="-1388" rx="75.29" ry="18"/>
<text text-anchor="middle" x="750.94" y="-1384.3" font-family="Helvetica,sans-Serif" font-size="14.00">SampleRadius</text>
</g>
<!-- SampleRadius&#45;&gt;SetSample -->
<g id="edge7" class="edge">
<title>SampleRadius&#45;&gt;SetSample</title>
<path fill="none" stroke="black" d="M731.27,-1370.17C721.06,-1361.44 708.38,-1350.59 697.05,-1340.9"/>
<polygon fill="black" stroke="black" points="699.36,-1338.27 689.49,-1334.43 694.81,-1343.59 699.36,-1338.27"/>
</g>
<!-- SampleAngle -->
<g id="node7" class="node">
<title>SampleAngle</title>
<ellipse fill="khaki" stroke="black" cx="914.94" cy="-1388" rx="70.39" ry="18"/>
<text text-anchor="middle" x="914.94" y="-1384.3" font-family="Helvetica,sans-Serif" font-size="14.00">SampleAngle</text>
</g>
<!-- SampleAngle&#45;&gt;SetSample -->
<g id="edge9" class="edge">
<title>SampleAngle&#45;&gt;SetSample</title>
<path fill="none" stroke="black" d="M869.35,-1373.89C828.49,-1362.15 768.39,-1344.87 724.48,-1332.25"/>
<polygon fill="black" stroke="black" points="725.72,-1328.97 715.14,-1329.57 723.78,-1335.69 725.72,-1328.97"/>
</g>
<!-- BeamHeight -->
<g id="node8" class="node">
<title>BeamHeight</title>
<ellipse fill="khaki" stroke="black" cx="895.94" cy="-1461" rx="66.09" ry="18"/>
<text text-anchor="middle" x="895.94" y="-1457.3" font-family="Helvetica,sans-Serif" font-size="14.00">BeamHeight</text>
</g>
<!-- SetBeam -->
<g id="node23" class="node">
<title>SetBeam</title>
<path fill="lightskyblue" stroke="black" d="M1070.44,-1406C1070.44,-1406 1015.44,-1406 1015.44,-1406 1009.44,-1406 1003.44,-1400 1003.44,-1394 1003.44,-1394 1003.44,-1382 1003.44,-1382 1003.44,-1376 1009.44,-1370 1015.44,-1370 1015.44,-1370 1070.44,-1370 1070.44,-1370 1076.44,-1370 1082.44,-1376 1082.44,-1382 1082.44,-1382 1082.44,-1394 1082.44,-1394 1082.44,-1400 1076.44,-1406 1070.44,-1406"/>
<text text-anchor="middle" x="1042.94" y="-1384.3" font-family="Helvetica,sans-Serif" font-size="14.00">SetBeam</text>
</g>
<!-- BeamHeight&#45;&gt;SetBeam -->
<g id="edge4" class="edge">
<title>BeamHeight&#45;&gt;SetBeam</title>
<path fill="none" stroke="black" d="M927.48,-1444.77C947.58,-1435.06 973.97,-1422.31 996.46,-1411.45"/>
<polygon fill="black" stroke="black" points="997.96,-1414.61 1005.44,-1407.11 994.91,-1408.31 997.96,-1414.61"/>
</g>
<!-- BeamWidth -->
<g id="node9" class="node">
<title>BeamWidth</title>
<ellipse fill="khaki" stroke="black" cx="1042.94" cy="-1461" rx="63.09" ry="18"/>
<text text-anchor="middle" x="1042.94" y="-1457.3" font-family="Helvetica,sans-Serif" font-size="14.00">BeamWidth</text>
</g>
<!-- BeamWidth&#45;&gt;SetBeam -->
<g id="edge5" class="edge">
<title>BeamWidth&#45;&gt;SetBeam</title>
<path fill="none" stroke="black" d="M1042.94,-1442.81C1042.94,-1435.23 1042.94,-1426.1 1042.94,-1417.54"/>
<polygon fill="black" stroke="black" points="1046.44,-1417.54 1042.94,-1407.54 1039.44,-1417.54 1046.44,-1417.54"/>
</g>
<!-- Events -->
<g id="node10" class="node">
<title>Events</title>
<ellipse fill="khaki" stroke="black" cx="311.94" cy="-1315" rx="41.69" ry="18"/>
<text text-anchor="middle" x="311.94" y="-1311.3" font-family="Helvetica,sans-Serif" font-size="14.00">Events</text>
</g>
<!-- MonteCarlo -->
<g id="node27" class="node">
<title>MonteCarlo</title>
<path fill="lightskyblue" stroke="black" d="M523.44,-1260C523.44,-1260 452.44,-1260 452.44,-1260 446.44,-1260 440.44,-1254 440.44,-1248 440.44,-1248 440.44,-1236 440.44,-1236 440.44,-1230 446.44,-1224 452.44,-1224 452.44,-1224 523.44,-1224 523.44,-1224 529.44,-1224 535.44,-1230 535.44,-1236 535.44,-1236 535.44,-1248 535.44,-1248 535.44,-1254 529.44,-1260 523.44,-1260"/>
<text text-anchor="middle" x="487.94" y="-1238.3" font-family="Helvetica,sans-Serif" font-size="14.00">MonteCarlo</text>
</g>
<!-- Events&#45;&gt;MonteCarlo -->
<g id="edge13" class="edge">
<title>Events&#45;&gt;MonteCarlo</title>
<path fill="none" stroke="black" d="M341.8,-1301.96C367.06,-1291.76 403.9,-1276.9 434.27,-1264.65"/>
<polygon fill="black" stroke="black" points="435.35,-1267.99 443.31,-1261 432.73,-1261.5 435.35,-1267.99"/>
</g>
<!-- NumberOfWavelengths -->
<g id="node11" class="node">
<title>NumberOfWavelengths</title>
<ellipse fill="khaki" stroke="black" cx="487.94" cy="-1315" rx="116.18" ry="18"/>
<text text-anchor="middle" x="487.94" y="-1311.3" font-family="Helvetica,sans-Serif" font-size="14.00">NumberOfWavelengths</text>
</g>
<!-- NumberOfWavelengths&#45;&gt;MonteCarlo -->
<g id="edge14" class="edge">
<title>NumberOfWavelengths&#45;&gt;MonteCarlo</title>
<path fill="none" stroke="black" d="M487.94,-1296.81C487.94,-1289.23 487.94,-1280.1 487.94,-1271.54"/>
<polygon fill="black" stroke="black" points="491.44,-1271.54 487.94,-1261.54 484.44,-1271.54 491.44,-1271.54"/>
</g>
<!-- AbsWorkspace1 -->
<g id="node12" class="node">
<title>AbsWorkspace1</title>
<ellipse fill="khaki" stroke="black" cx="475.94" cy="-1169" rx="109.38" ry="18"/>
<text text-anchor="middle" x="475.94" y="-1165.3" font-family="Helvetica,sans-Serif" font-size="14.00">AbsorptionWorkspace</text>
</g>
<!-- AbsWorkspace2 -->
<g id="node13" class="node">
<title>AbsWorkspace2</title>
<ellipse fill="khaki" stroke="black" cx="561.94" cy="-936" rx="109.38" ry="18"/>
<text text-anchor="middle" x="561.94" y="-932.3" font-family="Helvetica,sans-Serif" font-size="14.00">AbsorptionWorkspace</text>
</g>
<!-- AbsWorkspace2&#45;&gt;Divide1 -->
<g id="edge23" class="edge">
<title>AbsWorkspace2&#45;&gt;Divide1</title>
<path fill="none" stroke="black" d="M561.94,-917.81C561.94,-910.23 561.94,-901.1 561.94,-892.54"/>
<polygon fill="black" stroke="black" points="565.44,-892.54 561.94,-882.54 558.44,-892.54 565.44,-892.54"/>
</g>
<!-- CanAbsorptionWorkspace -->
<g id="node14" class="node">
<title>CanAbsorptionWorkspace</title>
<ellipse fill="khaki" stroke="black" cx="440.94" cy="-397" rx="126.98" ry="18"/>
<text text-anchor="middle" x="440.94" y="-393.3" font-family="Helvetica,sans-Serif" font-size="14.00">CanAbsorptionWorkspace</text>
</g>
<!-- CanChemicalFormula -->
<g id="node15" class="node">
<title>CanChemicalFormula</title>
<ellipse fill="khaki" stroke="black" cx="105.94" cy="-703" rx="105.88" ry="18"/>
<text text-anchor="middle" x="105.94" y="-699.3" font-family="Helvetica,sans-Serif" font-size="14.00">CanChemicalFormula</text>
</g>
<!-- SetSample1 -->
<g id="node26" class="node">
<title>SetSample1</title>
<path fill="lightskyblue" stroke="black" d="M465.44,-648C465.44,-648 398.44,-648 398.44,-648 392.44,-648 386.44,-642 386.44,-636 386.44,-636 386.44,-624 386.44,-624 386.44,-618 392.44,-612 398.44,-612 398.44,-612 465.44,-612 465.44,-612 471.44,-612 477.44,-618 477.44,-624 477.44,-624 477.44,-636 477.44,-636 477.44,-642 471.44,-648 465.44,-648"/>
<text text-anchor="middle" x="431.94" y="-626.3" font-family="Helvetica,sans-Serif" font-size="14.00">SetSample</text>
</g>
<!-- CanChemicalFormula&#45;&gt;SetSample1 -->
<g id="edge27" class="edge">
<title>CanChemicalFormula&#45;&gt;SetSample1</title>
<path fill="none" stroke="black" d="M169.18,-688.23C228.9,-675.22 317.64,-655.89 375.14,-643.37"/>
<polygon fill="black" stroke="black" points="375.7,-646.83 384.73,-641.28 374.21,-639.99 375.7,-646.83"/>
</g>
<!-- CanDensity -->
<g id="node16" class="node">
<title>CanDensity</title>
<ellipse fill="khaki" stroke="black" cx="291.94" cy="-703" rx="62.29" ry="18"/>
<text text-anchor="middle" x="291.94" y="-699.3" font-family="Helvetica,sans-Serif" font-size="14.00">CanDensity</text>
</g>
<!-- CanDensity&#45;&gt;SetSample1 -->
<g id="edge28" class="edge">
<title>CanDensity&#45;&gt;SetSample1</title>
<path fill="none" stroke="black" d="M321.97,-686.77C341.03,-677.1 366.03,-664.43 387.38,-653.6"/>
<polygon fill="black" stroke="black" points="388.84,-656.78 396.17,-649.14 385.67,-650.54 388.84,-656.78"/>
</g>
<!-- CanRadius -->
<g id="node17" class="node">
<title>CanRadius</title>
<ellipse fill="khaki" stroke="black" cx="431.94" cy="-703" rx="59.29" ry="18"/>
<text text-anchor="middle" x="431.94" y="-699.3" font-family="Helvetica,sans-Serif" font-size="14.00">CanRadius</text>
</g>
<!-- CanRadius&#45;&gt;SetSample1 -->
<g id="edge29" class="edge">
<title>CanRadius&#45;&gt;SetSample1</title>
<path fill="none" stroke="black" d="M431.94,-684.81C431.94,-677.23 431.94,-668.1 431.94,-659.54"/>
<polygon fill="black" stroke="black" points="435.44,-659.54 431.94,-649.54 428.44,-659.54 435.44,-659.54"/>
</g>
<!-- OutputWorkspace -->
<g id="node18" class="node">
<title>OutputWorkspace</title>
<ellipse fill="khaki" stroke="black" cx="702.94" cy="-18" rx="91.78" ry="18"/>
<text text-anchor="middle" x="702.94" y="-14.3" font-family="Helvetica,sans-Serif" font-size="14.00">OutputWorkspace</text>
</g>
<!-- ConvertUnits1 -->
<g id="node20" class="node">
<title>ConvertUnits1</title>
<path fill="lightskyblue" stroke="black" d="M1219.44,-1479C1219.44,-1479 1136.44,-1479 1136.44,-1479 1130.44,-1479 1124.44,-1473 1124.44,-1467 1124.44,-1467 1124.44,-1455 1124.44,-1455 1124.44,-1449 1130.44,-1443 1136.44,-1443 1136.44,-1443 1219.44,-1443 1219.44,-1443 1225.44,-1443 1231.44,-1449 1231.44,-1455 1231.44,-1455 1231.44,-1467 1231.44,-1467 1231.44,-1473 1225.44,-1479 1219.44,-1479"/>
<text text-anchor="middle" x="1177.94" y="-1457.3" font-family="Helvetica,sans-Serif" font-size="14.00">ConvertUnits</text>
</g>
<!-- GetEFixed&#45;&gt;ConvertUnits1 -->
<g id="edge2" class="edge">
<title>GetEFixed&#45;&gt;ConvertUnits1</title>
<path fill="none" stroke="black" d="M1177.94,-1529.8C1177.94,-1518.58 1177.94,-1503.67 1177.94,-1490.69"/>
<polygon fill="black" stroke="black" points="1181.44,-1490.98 1177.94,-1480.98 1174.44,-1490.98 1181.44,-1490.98"/>
<text text-anchor="middle" x="1317.44" y="-1500.8" font-family="Helvetica,sans-Serif" font-size="14.00">Convert input workspace to Wavelength</text>
</g>
<!-- ConvertUnits1&#45;&gt;SetBeam -->
<g id="edge3" class="edge">
<title>ConvertUnits1&#45;&gt;SetBeam</title>
<path fill="none" stroke="black" d="M1144.92,-1442.63C1127.18,-1433.31 1105.11,-1421.7 1086.04,-1411.67"/>
<polygon fill="black" stroke="black" points="1087.91,-1408.7 1077.43,-1407.14 1084.65,-1414.89 1087.91,-1408.7"/>
</g>
<!-- ConvertUnits2 -->
<g id="node21" class="node">
<title>ConvertUnits2</title>
<path fill="lightskyblue" stroke="black" d="M750.44,-1100C750.44,-1100 667.44,-1100 667.44,-1100 661.44,-1100 655.44,-1094 655.44,-1088 655.44,-1088 655.44,-1076 655.44,-1076 655.44,-1070 661.44,-1064 667.44,-1064 667.44,-1064 750.44,-1064 750.44,-1064 756.44,-1064 762.44,-1070 762.44,-1076 762.44,-1076 762.44,-1088 762.44,-1088 762.44,-1094 756.44,-1100 750.44,-1100"/>
<text text-anchor="middle" x="708.94" y="-1078.3" font-family="Helvetica,sans-Serif" font-size="14.00">ConvertUnits</text>
</g>
<!-- Scale -->
<g id="node29" class="node">
<title>Scale</title>
<path fill="lightskyblue" stroke="black" d="M699.94,-1027C699.94,-1027 669.94,-1027 669.94,-1027 663.94,-1027 657.94,-1021 657.94,-1015 657.94,-1015 657.94,-1003 657.94,-1003 657.94,-997 663.94,-991 669.94,-991 669.94,-991 699.94,-991 699.94,-991 705.94,-991 711.94,-997 711.94,-1003 711.94,-1003 711.94,-1015 711.94,-1015 711.94,-1021 705.94,-1027 699.94,-1027"/>
<text text-anchor="middle" x="684.94" y="-1005.3" font-family="Helvetica,sans-Serif" font-size="14.00">Scale</text>
</g>
<!-- ConvertUnits2&#45;&gt;Scale -->
<g id="edge18" class="edge">
<title>ConvertUnits2&#45;&gt;Scale</title>
<path fill="none" stroke="black" d="M703.13,-1063.81C700.48,-1055.96 697.27,-1046.47 694.29,-1037.66"/>
<polygon fill="black" stroke="black" points="697.7,-1036.82 691.18,-1028.46 691.07,-1039.06 697.7,-1036.82"/>
</g>
<!-- Clone -->
<g id="node37" class="node">
<title>Clone</title>
<ellipse fill="lightgrey" stroke="black" cx="725.94" cy="-936" rx="36.29" ry="18"/>
<text text-anchor="middle" x="725.94" y="-932.3" font-family="Helvetica,sans-Serif" font-size="14.00">Clone</text>
</g>
<!-- ConvertUnits2&#45;&gt;Clone -->
<g id="edge19" class="edge">
<title>ConvertUnits2&#45;&gt;Clone</title>
<path fill="none" stroke="black" d="M713.56,-1063.62C716.17,-1053.1 719.23,-1039.37 720.94,-1027 723.76,-1006.6 725,-983.38 725.54,-965.64"/>
<polygon fill="black" stroke="black" points="729.03,-965.93 725.78,-955.85 722.04,-965.76 729.03,-965.93"/>
</g>
<!-- ConvertUnits3 -->
<g id="node22" class="node">
<title>ConvertUnits3</title>
<path fill="lightskyblue" stroke="black" d="M744.44,-255C744.44,-255 661.44,-255 661.44,-255 655.44,-255 649.44,-249 649.44,-243 649.44,-243 649.44,-231 649.44,-231 649.44,-225 655.44,-219 661.44,-219 661.44,-219 744.44,-219 744.44,-219 750.44,-219 756.44,-225 756.44,-231 756.44,-231 756.44,-243 756.44,-243 756.44,-249 750.44,-255 744.44,-255"/>
<text text-anchor="middle" x="702.94" y="-233.3" font-family="Helvetica,sans-Serif" font-size="14.00">ConvertUnits</text>
</g>
<!-- AddSampleLogMultiple -->
<g id="node32" class="node">
<title>AddSampleLogMultiple</title>
<path fill="lightskyblue" stroke="black" d="M778.44,-182C778.44,-182 627.44,-182 627.44,-182 621.44,-182 615.44,-176 615.44,-170 615.44,-170 615.44,-158 615.44,-158 615.44,-152 621.44,-146 627.44,-146 627.44,-146 778.44,-146 778.44,-146 784.44,-146 790.44,-152 790.44,-158 790.44,-158 790.44,-170 790.44,-170 790.44,-176 784.44,-182 778.44,-182"/>
<text text-anchor="middle" x="702.94" y="-160.3" font-family="Helvetica,sans-Serif" font-size="14.00">AddSampleLogMultiple</text>
</g>
<!-- ConvertUnits3&#45;&gt;AddSampleLogMultiple -->
<g id="edge38" class="edge">
<title>ConvertUnits3&#45;&gt;AddSampleLogMultiple</title>
<path fill="none" stroke="black" d="M702.94,-218.81C702.94,-211.23 702.94,-202.1 702.94,-193.54"/>
<polygon fill="black" stroke="black" points="706.44,-193.54 702.94,-183.54 699.44,-193.54 706.44,-193.54"/>
</g>
<!-- SetBeam&#45;&gt;SetSample -->
<g id="edge6" class="edge">
<title>SetBeam&#45;&gt;SetSample</title>
<path fill="none" stroke="black" d="M1003,-1372.52C999.95,-1371.61 996.91,-1370.75 993.94,-1370 901.11,-1346.39 790.68,-1330.61 725.11,-1322.48"/>
<polygon fill="black" stroke="black" points="725.65,-1319.02 715.3,-1321.29 724.81,-1325.97 725.65,-1319.02"/>
</g>
<!-- SetBeam1 -->
<g id="node24" class="node">
<title>SetBeam1</title>
<path fill="lightskyblue" stroke="black" d="M576.44,-721C576.44,-721 521.44,-721 521.44,-721 515.44,-721 509.44,-715 509.44,-709 509.44,-709 509.44,-697 509.44,-697 509.44,-691 515.44,-685 521.44,-685 521.44,-685 576.44,-685 576.44,-685 582.44,-685 588.44,-691 588.44,-697 588.44,-697 588.44,-709 588.44,-709 588.44,-715 582.44,-721 576.44,-721"/>
<text text-anchor="middle" x="548.94" y="-699.3" font-family="Helvetica,sans-Serif" font-size="14.00">SetBeam</text>
</g>
<!-- SetBeam1&#45;&gt;SetSample1 -->
<g id="edge26" class="edge">
<title>SetBeam1&#45;&gt;SetSample1</title>
<path fill="none" stroke="black" d="M520.32,-684.63C505.3,-675.52 486.7,-664.23 470.44,-654.36"/>
<polygon fill="black" stroke="black" points="472.33,-651.42 461.97,-649.22 468.7,-657.4 472.33,-651.42"/>
</g>
<!-- SetSample&#45;&gt;MonteCarlo -->
<g id="edge12" class="edge">
<title>SetSample&#45;&gt;MonteCarlo</title>
<path fill="none" stroke="black" d="M623.91,-1296.63C599.39,-1286.96 568.66,-1274.84 542.61,-1264.56"/>
<polygon fill="black" stroke="black" points="544.14,-1261.4 533.55,-1260.99 541.57,-1267.92 544.14,-1261.4"/>
</g>
<!-- MonteCarlo1 -->
<g id="node28" class="node">
<title>MonteCarlo1</title>
<path fill="lightskyblue" stroke="black" d="M474.44,-561C474.44,-561 403.44,-561 403.44,-561 397.44,-561 391.44,-555 391.44,-549 391.44,-549 391.44,-537 391.44,-537 391.44,-531 397.44,-525 403.44,-525 403.44,-525 474.44,-525 474.44,-525 480.44,-525 486.44,-531 486.44,-537 486.44,-537 486.44,-549 486.44,-549 486.44,-555 480.44,-561 474.44,-561"/>
<text text-anchor="middle" x="438.94" y="-539.3" font-family="Helvetica,sans-Serif" font-size="14.00">MonteCarlo</text>
</g>
<!-- SetSample1&#45;&gt;MonteCarlo1 -->
<g id="edge30" class="edge">
<title>SetSample1&#45;&gt;MonteCarlo1</title>
<path fill="none" stroke="black" d="M433.36,-611.8C434.28,-600.58 435.51,-585.67 436.58,-572.69"/>
<polygon fill="black" stroke="black" points="440.05,-573.23 437.38,-562.98 433.07,-572.65 440.05,-573.23"/>
</g>
<!-- MonteCarlo&#45;&gt;AbsWorkspace1 -->
<g id="edge15" class="edge">
<title>MonteCarlo&#45;&gt;AbsWorkspace1</title>
<path fill="none" stroke="black" d="M485.04,-1223.81C483.74,-1216.14 482.18,-1206.89 480.71,-1198.24"/>
<polygon fill="black" stroke="black" points="484.19,-1197.8 479.07,-1188.52 477.29,-1198.96 484.19,-1197.8"/>
</g>
<!-- canGiven -->
<g id="node35" class="node">
<title>canGiven</title>
<polygon fill="limegreen" stroke="black" points="760.94,-1187 602.75,-1169 760.94,-1151 919.13,-1169 760.94,-1187"/>
<text text-anchor="middle" x="760.94" y="-1165.3" font-family="Helvetica,sans-Serif" font-size="14.00">Container Workspace?</text>
</g>
<!-- MonteCarlo&#45;&gt;canGiven -->
<g id="edge16" class="edge">
<title>MonteCarlo&#45;&gt;canGiven</title>
<path fill="none" stroke="black" d="M535.81,-1228.55C582.58,-1216.39 653.81,-1197.86 703.59,-1184.91"/>
<polygon fill="black" stroke="black" points="704.24,-1188.36 713.03,-1182.46 702.47,-1181.59 704.24,-1188.36"/>
</g>
<!-- Multiply -->
<g id="node34" class="node">
<title>Multiply</title>
<path fill="lightskyblue" stroke="black" d="M464.44,-488C464.44,-488 417.44,-488 417.44,-488 411.44,-488 405.44,-482 405.44,-476 405.44,-476 405.44,-464 405.44,-464 405.44,-458 411.44,-452 417.44,-452 417.44,-452 464.44,-452 464.44,-452 470.44,-452 476.44,-458 476.44,-464 476.44,-464 476.44,-476 476.44,-476 476.44,-482 470.44,-488 464.44,-488"/>
<text text-anchor="middle" x="440.94" y="-466.3" font-family="Helvetica,sans-Serif" font-size="14.00">Multiply</text>
</g>
<!-- MonteCarlo1&#45;&gt;Multiply -->
<g id="edge31" class="edge">
<title>MonteCarlo1&#45;&gt;Multiply</title>
<path fill="none" stroke="black" d="M439.42,-524.81C439.64,-517.14 439.9,-507.89 440.14,-499.24"/>
<polygon fill="black" stroke="black" points="443.64,-499.64 440.42,-489.54 436.64,-499.44 443.64,-499.64"/>
</g>
<!-- Scale&#45;&gt;Clone -->
<g id="edge20" class="edge">
<title>Scale&#45;&gt;Clone</title>
<path fill="none" stroke="black" d="M694.87,-990.81C699.62,-982.58 705.41,-972.54 710.71,-963.38"/>
<polygon fill="black" stroke="black" points="713.66,-965.26 715.63,-954.85 707.6,-961.76 713.66,-965.26"/>
</g>
<!-- Divide -->
<g id="node30" class="node">
<title>Divide</title>
<path fill="lightskyblue" stroke="black" d="M633.94,-415C633.94,-415 597.94,-415 597.94,-415 591.94,-415 585.94,-409 585.94,-403 585.94,-403 585.94,-391 585.94,-391 585.94,-385 591.94,-379 597.94,-379 597.94,-379 633.94,-379 633.94,-379 639.94,-379 645.94,-385 645.94,-391 645.94,-391 645.94,-403 645.94,-403 645.94,-409 639.94,-415 633.94,-415"/>
<text text-anchor="middle" x="615.94" y="-393.3" font-family="Helvetica,sans-Serif" font-size="14.00">Divide</text>
</g>
<!-- Minus -->
<g id="node31" class="node">
<title>Minus</title>
<path fill="lightskyblue" stroke="black" d="M632.94,-342C632.94,-342 598.94,-342 598.94,-342 592.94,-342 586.94,-336 586.94,-330 586.94,-330 586.94,-318 586.94,-318 586.94,-312 592.94,-306 598.94,-306 598.94,-306 632.94,-306 632.94,-306 638.94,-306 644.94,-312 644.94,-318 644.94,-318 644.94,-330 644.94,-330 644.94,-336 638.94,-342 632.94,-342"/>
<text text-anchor="middle" x="615.94" y="-320.3" font-family="Helvetica,sans-Serif" font-size="14.00">Minus</text>
</g>
<!-- Divide&#45;&gt;Minus -->
<g id="edge35" class="edge">
<title>Divide&#45;&gt;Minus</title>
<path fill="none" stroke="black" d="M615.94,-378.81C615.94,-371.23 615.94,-362.1 615.94,-353.54"/>
<polygon fill="black" stroke="black" points="619.44,-353.54 615.94,-343.54 612.44,-353.54 619.44,-353.54"/>
</g>
<!-- Minus&#45;&gt;ConvertUnits3 -->
<g id="edge36" class="edge">
<title>Minus&#45;&gt;ConvertUnits3</title>
<path fill="none" stroke="black" d="M611.85,-305.82C610.39,-295.44 610.45,-282.44 616.94,-273 622.45,-264.98 630.15,-258.8 638.69,-254.03"/>
<polygon fill="black" stroke="black" points="640.17,-257.2 647.66,-249.71 637.14,-250.89 640.17,-257.2"/>
<text text-anchor="middle" x="696.94" y="-276.8" font-family="Helvetica,sans-Serif" font-size="14.00">Convert back to DeltaE</text>
</g>
<!-- GroupWorkspaces -->
<g id="node33" class="node">
<title>GroupWorkspaces</title>
<path fill="lightskyblue" stroke="black" d="M761.94,-109C761.94,-109 643.94,-109 643.94,-109 637.94,-109 631.94,-103 631.94,-97 631.94,-97 631.94,-85 631.94,-85 631.94,-79 637.94,-73 643.94,-73 643.94,-73 761.94,-73 761.94,-73 767.94,-73 773.94,-79 773.94,-85 773.94,-85 773.94,-97 773.94,-97 773.94,-103 767.94,-109 761.94,-109"/>
<text text-anchor="middle" x="702.94" y="-87.3" font-family="Helvetica,sans-Serif" font-size="14.00">GroupWorkspaces</text>
</g>
<!-- AddSampleLogMultiple&#45;&gt;GroupWorkspaces -->
<g id="edge39" class="edge">
<title>AddSampleLogMultiple&#45;&gt;GroupWorkspaces</title>
<path fill="none" stroke="black" d="M702.94,-145.81C702.94,-138.23 702.94,-129.1 702.94,-120.54"/>
<polygon fill="black" stroke="black" points="706.44,-120.54 702.94,-110.54 699.44,-120.54 706.44,-120.54"/>
</g>
<!-- GroupWorkspaces&#45;&gt;OutputWorkspace -->
<g id="edge40" class="edge">
<title>GroupWorkspaces&#45;&gt;OutputWorkspace</title>
<path fill="none" stroke="black" d="M702.94,-72.81C702.94,-65.23 702.94,-56.1 702.94,-47.54"/>
<polygon fill="black" stroke="black" points="706.44,-47.54 702.94,-37.54 699.44,-47.54 706.44,-47.54"/>
</g>
<!-- Multiply&#45;&gt;CanAbsorptionWorkspace -->
<g id="edge32" class="edge">
<title>Multiply&#45;&gt;CanAbsorptionWorkspace</title>
<path fill="none" stroke="black" d="M440.94,-451.81C440.94,-444.23 440.94,-435.1 440.94,-426.54"/>
<polygon fill="black" stroke="black" points="444.44,-426.54 440.94,-416.54 437.44,-426.54 444.44,-426.54"/>
</g>
<!-- Multiply&#45;&gt;Divide -->
<g id="edge33" class="edge">
<title>Multiply&#45;&gt;Divide</title>
<path fill="none" stroke="black" d="M476.86,-455.11C502.1,-445.27 536.88,-431.54 575.35,-415.6"/>
<polygon fill="black" stroke="black" points="576.46,-418.93 584.35,-411.86 573.77,-412.47 576.46,-418.93"/>
</g>
<!-- canGiven&#45;&gt;ConvertUnits2 -->
<g id="edge17" class="edge">
<title>canGiven&#45;&gt;ConvertUnits2</title>
<path fill="none" stroke="black" d="M751.16,-1152.01C743.92,-1140.17 733.87,-1123.76 725.4,-1109.91"/>
<polygon fill="black" stroke="black" points="728.57,-1108.37 720.36,-1101.67 722.6,-1112.03 728.57,-1108.37"/>
<text text-anchor="middle" x="750.44" y="-1121.8" font-family="Helvetica,sans-Serif" font-size="14.00">Yes</text>
</g>
<!-- canGiven&#45;&gt;ConvertUnits3 -->
<g id="edge37" class="edge">
<title>canGiven&#45;&gt;ConvertUnits3</title>
<path fill="none" stroke="black" d="M770.43,-1151.67C779.22,-1134.98 790.94,-1108.04 790.94,-1083 790.94,-1083 790.94,-1083 790.94,-323 790.94,-299.92 791.82,-290.64 776.94,-273 773.25,-268.63 768.9,-264.77 764.18,-261.37"/>
<polygon fill="black" stroke="black" points="766.32,-258.59 756,-256.19 762.57,-264.5 766.32,-258.59"/>
<text text-anchor="middle" x="800.44" y="-699.3" font-family="Helvetica,sans-Serif" font-size="14.00">No</text>
</g>
<!-- useCorrections -->
<g id="node36" class="node">
<title>useCorrections</title>
<polygon fill="limegreen" stroke="black" points="561.94,-808 402.07,-790 561.94,-772 721.81,-790 561.94,-808"/>
<text text-anchor="middle" x="561.94" y="-786.3" font-family="Helvetica,sans-Serif" font-size="14.00">Container Corrections?</text>
</g>
<!-- useCorrections&#45;&gt;SetBeam1 -->
<g id="edge25" class="edge">
<title>useCorrections&#45;&gt;SetBeam1</title>
<path fill="none" stroke="black" d="M559.31,-771.8C557.59,-760.58 555.31,-745.67 553.33,-732.69"/>
<polygon fill="black" stroke="black" points="556.81,-732.32 551.84,-722.96 549.89,-733.38 556.81,-732.32"/>
<text text-anchor="middle" x="568.44" y="-742.8" font-family="Helvetica,sans-Serif" font-size="14.00">Yes</text>
</g>
<!-- useCorrections&#45;&gt;Divide -->
<g id="edge34" class="edge">
<title>useCorrections&#45;&gt;Divide</title>
<path fill="none" stroke="black" d="M579.65,-773.67C595.72,-757.97 616.94,-731.95 616.94,-704 616.94,-704 616.94,-704 616.94,-469 616.94,-455.08 616.75,-439.63 616.53,-426.7"/>
<polygon fill="black" stroke="black" points="620.03,-426.66 616.35,-416.73 613.03,-426.79 620.03,-426.66"/>
<text text-anchor="middle" x="626.44" y="-582.8" font-family="Helvetica,sans-Serif" font-size="14.00">No</text>
</g>
<!-- Clone&#45;&gt;Divide1 -->
<g id="edge21" class="edge">
<title>Clone&#45;&gt;Divide1</title>
<path fill="none" stroke="black" d="M699.23,-923.43C672.84,-912.01 632.15,-894.4 601.92,-881.31"/>
<polygon fill="black" stroke="black" points="603.65,-878.25 593.09,-877.48 600.87,-884.67 603.65,-878.25"/>
</g>
<!-- Divide1&#45;&gt;useCorrections -->
<g id="edge24" class="edge">
<title>Divide1&#45;&gt;useCorrections</title>
<path fill="none" stroke="black" d="M561.94,-844.81C561.94,-837.23 561.94,-828.1 561.94,-819.54"/>
<polygon fill="black" stroke="black" points="565.44,-819.54 561.94,-809.54 558.44,-819.54 565.44,-819.54"/>
</g>
</g>
</svg>
