<?xml version="1.0" encoding="UTF-8" standalone="no"?>
<!DOCTYPE svg PUBLIC "-//W3C//DTD SVG 1.1//EN"
 "http://www.w3.org/Graphics/SVG/1.1/DTD/svg11.dtd">
<!-- Generated by graphviz version 11.0.0 (20240519.1550)
 -->
<!-- Title: IndirectFlatePlateAbsorption Pages: 1 -->
<svg width="1508pt" height="1676pt"
 viewBox="0.00 0.00 1508.07 1675.50" xmlns="http://www.w3.org/2000/svg" xmlns:xlink="http://www.w3.org/1999/xlink">
<g id="graph0" class="graph" transform="scale(1 1) rotate(0) translate(4 1671.5)">
<title>IndirectFlatePlateAbsorption</title>
<polygon fill="white" stroke="none" points="-4,4 -4,-1671.5 1504.07,-1671.5 1504.07,4 -4,4"/>
<text text-anchor="middle" x="750.03" y="-1650.2" font-family="Helvetica,sans-Serif" font-size="14.00">IndirectFlatePlateAbsorption Flowchart</text>
<!-- SampleWorkspace1 -->
<g id="node1" class="node">
<title>SampleWorkspace1</title>
<ellipse fill="khaki" stroke="black" cx="1221.82" cy="-1624.25" rx="100.66" ry="18"/>
<text text-anchor="middle" x="1221.82" y="-1619.58" font-family="Helvetica,sans-Serif" font-size="14.00">SampleWorkspace</text>
</g>
<!-- GetEFixed -->
<g id="node19" class="node">
<title>GetEFixed</title>
<path fill="lightskyblue" stroke="black" d="M1251.94,-1570.25C1251.94,-1570.25 1191.69,-1570.25 1191.69,-1570.25 1185.69,-1570.25 1179.69,-1564.25 1179.69,-1558.25 1179.69,-1558.25 1179.69,-1546.25 1179.69,-1546.25 1179.69,-1540.25 1185.69,-1534.25 1191.69,-1534.25 1191.69,-1534.25 1251.94,-1534.25 1251.94,-1534.25 1257.94,-1534.25 1263.94,-1540.25 1263.94,-1546.25 1263.94,-1546.25 1263.94,-1558.25 1263.94,-1558.25 1263.94,-1564.25 1257.94,-1570.25 1251.94,-1570.25"/>
<text text-anchor="middle" x="1221.82" y="-1547.58" font-family="Helvetica,sans-Serif" font-size="14.00">GetEFixed</text>
</g>
<!-- SampleWorkspace1&#45;&gt;GetEFixed -->
<g id="edge1" class="edge">
<title>SampleWorkspace1&#45;&gt;GetEFixed</title>
<path fill="none" stroke="black" d="M1221.82,-1605.95C1221.82,-1598.66 1221.82,-1589.98 1221.82,-1581.79"/>
<polygon fill="black" stroke="black" points="1225.32,-1581.87 1221.82,-1571.87 1218.32,-1581.87 1225.32,-1581.87"/>
</g>
<!-- SampleWorkspace2 -->
<g id="node2" class="node">
<title>SampleWorkspace2</title>
<ellipse fill="khaki" stroke="black" cx="344.82" cy="-939.75" rx="100.66" ry="18"/>
<text text-anchor="middle" x="344.82" y="-935.08" font-family="Helvetica,sans-Serif" font-size="14.00">SampleWorkspace</text>
</g>
<!-- Divide1 -->
<g id="node38" class="node">
<title>Divide1</title>
<ellipse fill="lightgrey" stroke="black" cx="580.82" cy="-866.75" rx="48.05" ry="18"/>
<text text-anchor="middle" x="580.82" y="-862.08" font-family="Helvetica,sans-Serif" font-size="14.00">Divide1</text>
</g>
<!-- SampleWorkspace2&#45;&gt;Divide1 -->
<g id="edge22" class="edge">
<title>SampleWorkspace2&#45;&gt;Divide1</title>
<path fill="none" stroke="black" d="M394.86,-923.69C435.8,-911.38 493.29,-894.08 533.47,-881.99"/>
<polygon fill="black" stroke="black" points="534.3,-885.4 542.87,-879.17 532.29,-878.69 534.3,-885.4"/>
</g>
<!-- SampleChemicalFormula -->
<g id="node3" class="node">
<title>SampleChemicalFormula</title>
<ellipse fill="khaki" stroke="black" cx="181.82" cy="-1391" rx="131.18" ry="18"/>
<text text-anchor="middle" x="181.82" y="-1386.33" font-family="Helvetica,sans-Serif" font-size="14.00">SampleChemicalFormula</text>
</g>
<!-- SetSample -->
<g id="node25" class="node">
<title>SetSample</title>
<path fill="lightskyblue" stroke="black" d="M719.94,-1337C719.94,-1337 653.69,-1337 653.69,-1337 647.69,-1337 641.69,-1331 641.69,-1325 641.69,-1325 641.69,-1313 641.69,-1313 641.69,-1307 647.69,-1301 653.69,-1301 653.69,-1301 719.94,-1301 719.94,-1301 725.94,-1301 731.94,-1307 731.94,-1313 731.94,-1313 731.94,-1325 731.94,-1325 731.94,-1331 725.94,-1337 719.94,-1337"/>
<text text-anchor="middle" x="686.82" y="-1314.33" font-family="Helvetica,sans-Serif" font-size="14.00">SetSample</text>
</g>
<!-- SampleChemicalFormula&#45;&gt;SetSample -->
<g id="edge10" class="edge">
<title>SampleChemicalFormula&#45;&gt;SetSample</title>
<path fill="none" stroke="black" d="M277.75,-1378.38C292.83,-1376.57 308.25,-1374.72 322.82,-1373 456.93,-1357.13 495.17,-1365.48 630.13,-1337.36"/>
<polygon fill="black" stroke="black" points="630.77,-1340.8 639.83,-1335.3 629.32,-1333.95 630.77,-1340.8"/>
</g>
<!-- SampleDensity -->
<g id="node4" class="node">
<title>SampleDensity</title>
<ellipse fill="khaki" stroke="black" cx="415.82" cy="-1391" rx="84.35" ry="18"/>
<text text-anchor="middle" x="415.82" y="-1386.33" font-family="Helvetica,sans-Serif" font-size="14.00">SampleDensity</text>
</g>
<!-- SampleDensity&#45;&gt;SetSample -->
<g id="edge11" class="edge">
<title>SampleDensity&#45;&gt;SetSample</title>
<path fill="none" stroke="black" d="M472.28,-1377.28C513.66,-1367.71 571.4,-1353.86 630.22,-1337.64"/>
<polygon fill="black" stroke="black" points="631.06,-1341.04 639.75,-1334.99 629.18,-1334.3 631.06,-1341.04"/>
</g>
<!-- SampleHeight -->
<g id="node5" class="node">
<title>SampleHeight</title>
<ellipse fill="khaki" stroke="black" cx="597.82" cy="-1391" rx="79.62" ry="18"/>
<text text-anchor="middle" x="597.82" y="-1386.33" font-family="Helvetica,sans-Serif" font-size="14.00">SampleHeight</text>
</g>
<!-- SampleHeight&#45;&gt;SetSample -->
<g id="edge8" class="edge">
<title>SampleHeight&#45;&gt;SetSample</title>
<path fill="none" stroke="black" d="M618.91,-1373.41C629.88,-1364.78 643.52,-1354.05 655.68,-1344.48"/>
<polygon fill="black" stroke="black" points="657.75,-1347.32 663.44,-1338.38 653.42,-1341.81 657.75,-1347.32"/>
</g>
<!-- SampleRadius -->
<g id="node6" class="node">
<title>SampleRadius</title>
<ellipse fill="khaki" stroke="black" cx="775.82" cy="-1391" rx="80.67" ry="18"/>
<text text-anchor="middle" x="775.82" y="-1386.33" font-family="Helvetica,sans-Serif" font-size="14.00">SampleRadius</text>
</g>
<!-- SampleRadius&#45;&gt;SetSample -->
<g id="edge7" class="edge">
<title>SampleRadius&#45;&gt;SetSample</title>
<path fill="none" stroke="black" d="M754.72,-1373.41C743.75,-1364.78 730.11,-1354.05 717.95,-1344.48"/>
<polygon fill="black" stroke="black" points="720.21,-1341.81 710.19,-1338.38 715.88,-1347.32 720.21,-1341.81"/>
</g>
<!-- SampleAngle -->
<g id="node7" class="node">
<title>SampleAngle</title>
<ellipse fill="khaki" stroke="black" cx="949.82" cy="-1391" rx="75.41" ry="18"/>
<text text-anchor="middle" x="949.82" y="-1386.33" font-family="Helvetica,sans-Serif" font-size="14.00">SampleAngle</text>
</g>
<!-- SampleAngle&#45;&gt;SetSample -->
<g id="edge9" class="edge">
<title>SampleAngle&#45;&gt;SetSample</title>
<path fill="none" stroke="black" d="M900.66,-1376.92C855.92,-1365.01 789.92,-1347.44 743.09,-1334.98"/>
<polygon fill="black" stroke="black" points="744.24,-1331.66 733.68,-1332.47 742.44,-1338.43 744.24,-1331.66"/>
</g>
<!-- BeamHeight -->
<g id="node8" class="node">
<title>BeamHeight</title>
<ellipse fill="khaki" stroke="black" cx="925.82" cy="-1463" rx="71.2" ry="18"/>
<text text-anchor="middle" x="925.82" y="-1458.33" font-family="Helvetica,sans-Serif" font-size="14.00">BeamHeight</text>
</g>
<!-- SetBeam -->
<g id="node23" class="node">
<title>SetBeam</title>
<path fill="lightskyblue" stroke="black" d="M1109.94,-1409C1109.94,-1409 1055.69,-1409 1055.69,-1409 1049.69,-1409 1043.69,-1403 1043.69,-1397 1043.69,-1397 1043.69,-1385 1043.69,-1385 1043.69,-1379 1049.69,-1373 1055.69,-1373 1055.69,-1373 1109.94,-1373 1109.94,-1373 1115.94,-1373 1121.94,-1379 1121.94,-1385 1121.94,-1385 1121.94,-1397 1121.94,-1397 1121.94,-1403 1115.94,-1409 1109.94,-1409"/>
<text text-anchor="middle" x="1082.82" y="-1386.33" font-family="Helvetica,sans-Serif" font-size="14.00">SetBeam</text>
</g>
<!-- BeamHeight&#45;&gt;SetBeam -->
<g id="edge4" class="edge">
<title>BeamHeight&#45;&gt;SetBeam</title>
<path fill="none" stroke="black" d="M959.88,-1446.81C981.41,-1437.21 1009.58,-1424.65 1033.52,-1413.98"/>
<polygon fill="black" stroke="black" points="1034.75,-1417.26 1042.46,-1409.99 1031.9,-1410.87 1034.75,-1417.26"/>
</g>
<!-- BeamWidth -->
<g id="node9" class="node">
<title>BeamWidth</title>
<ellipse fill="khaki" stroke="black" cx="1082.82" cy="-1463" rx="67.52" ry="18"/>
<text text-anchor="middle" x="1082.82" y="-1458.33" font-family="Helvetica,sans-Serif" font-size="14.00">BeamWidth</text>
</g>
<!-- BeamWidth&#45;&gt;SetBeam -->
<g id="edge5" class="edge">
<title>BeamWidth&#45;&gt;SetBeam</title>
<path fill="none" stroke="black" d="M1082.82,-1444.7C1082.82,-1437.41 1082.82,-1428.73 1082.82,-1420.54"/>
<polygon fill="black" stroke="black" points="1086.32,-1420.62 1082.82,-1410.62 1079.32,-1420.62 1086.32,-1420.62"/>
</g>
<!-- Events -->
<g id="node10" class="node">
<title>Events</title>
<ellipse fill="khaki" stroke="black" cx="311.82" cy="-1319" rx="44.37" ry="18"/>
<text text-anchor="middle" x="311.82" y="-1314.33" font-family="Helvetica,sans-Serif" font-size="14.00">Events</text>
</g>
<!-- MonteCarlo -->
<g id="node27" class="node">
<title>MonteCarlo</title>
<path fill="lightskyblue" stroke="black" d="M534.19,-1265C534.19,-1265 463.44,-1265 463.44,-1265 457.44,-1265 451.44,-1259 451.44,-1253 451.44,-1253 451.44,-1241 451.44,-1241 451.44,-1235 457.44,-1229 463.44,-1229 463.44,-1229 534.19,-1229 534.19,-1229 540.19,-1229 546.19,-1235 546.19,-1241 546.19,-1241 546.19,-1253 546.19,-1253 546.19,-1259 540.19,-1265 534.19,-1265"/>
<text text-anchor="middle" x="498.82" y="-1242.33" font-family="Helvetica,sans-Serif" font-size="14.00">MonteCarlo</text>
</g>
<!-- Events&#45;&gt;MonteCarlo -->
<g id="edge13" class="edge">
<title>Events&#45;&gt;MonteCarlo</title>
<path fill="none" stroke="black" d="M343.54,-1306.13C370.31,-1296.1 409.32,-1281.5 441.54,-1269.44"/>
<polygon fill="black" stroke="black" points="442.63,-1272.77 450.76,-1265.99 440.17,-1266.22 442.63,-1272.77"/>
</g>
<!-- NumberOfWavelengths -->
<g id="node11" class="node">
<title>NumberOfWavelengths</title>
<ellipse fill="khaki" stroke="black" cx="498.82" cy="-1319" rx="124.86" ry="18"/>
<text text-anchor="middle" x="498.82" y="-1314.33" font-family="Helvetica,sans-Serif" font-size="14.00">NumberOfWavelengths</text>
</g>
<!-- NumberOfWavelengths&#45;&gt;MonteCarlo -->
<g id="edge14" class="edge">
<title>NumberOfWavelengths&#45;&gt;MonteCarlo</title>
<path fill="none" stroke="black" d="M498.82,-1300.7C498.82,-1293.41 498.82,-1284.73 498.82,-1276.54"/>
<polygon fill="black" stroke="black" points="502.32,-1276.62 498.82,-1266.62 495.32,-1276.62 502.32,-1276.62"/>
</g>
<!-- AbsWorkspace1 -->
<g id="node12" class="node">
<title>AbsWorkspace1</title>
<ellipse fill="khaki" stroke="black" cx="487.82" cy="-1175" rx="117.5" ry="18"/>
<text text-anchor="middle" x="487.82" y="-1170.33" font-family="Helvetica,sans-Serif" font-size="14.00">AbsorptionWorkspace</text>
</g>
<!-- AbsWorkspace2 -->
<g id="node13" class="node">
<title>AbsWorkspace2</title>
<ellipse fill="khaki" stroke="black" cx="580.82" cy="-939.75" rx="117.5" ry="18"/>
<text text-anchor="middle" x="580.82" y="-935.08" font-family="Helvetica,sans-Serif" font-size="14.00">AbsorptionWorkspace</text>
</g>
<!-- AbsWorkspace2&#45;&gt;Divide1 -->
<g id="edge23" class="edge">
<title>AbsWorkspace2&#45;&gt;Divide1</title>
<path fill="none" stroke="black" d="M580.82,-921.56C580.82,-913.98 580.82,-904.85 580.82,-896.29"/>
<polygon fill="black" stroke="black" points="584.32,-896.29 580.82,-886.29 577.32,-896.29 584.32,-896.29"/>
</g>
<!-- CanAbsorptionWorkspace -->
<g id="node14" class="node">
<title>CanAbsorptionWorkspace</title>
<ellipse fill="khaki" stroke="black" cx="462.82" cy="-396.25" rx="136.44" ry="18"/>
<text text-anchor="middle" x="462.82" y="-391.57" font-family="Helvetica,sans-Serif" font-size="14.00">CanAbsorptionWorkspace</text>
</g>
<!-- CanChemicalFormula -->
<g id="node15" class="node">
<title>CanChemicalFormula</title>
<ellipse fill="khaki" stroke="black" cx="113.82" cy="-704.5" rx="113.82" ry="18"/>
<text text-anchor="middle" x="113.82" y="-699.83" font-family="Helvetica,sans-Serif" font-size="14.00">CanChemicalFormula</text>
</g>
<!-- SetSample1 -->
<g id="node26" class="node">
<title>SetSample1</title>
<path fill="lightskyblue" stroke="black" d="M493.94,-649.5C493.94,-649.5 427.69,-649.5 427.69,-649.5 421.69,-649.5 415.69,-643.5 415.69,-637.5 415.69,-637.5 415.69,-625.5 415.69,-625.5 415.69,-619.5 421.69,-613.5 427.69,-613.5 427.69,-613.5 493.94,-613.5 493.94,-613.5 499.94,-613.5 505.94,-619.5 505.94,-625.5 505.94,-625.5 505.94,-637.5 505.94,-637.5 505.94,-643.5 499.94,-649.5 493.94,-649.5"/>
<text text-anchor="middle" x="460.82" y="-626.83" font-family="Helvetica,sans-Serif" font-size="14.00">SetSample</text>
</g>
<!-- CanChemicalFormula&#45;&gt;SetSample1 -->
<g id="edge27" class="edge">
<title>CanChemicalFormula&#45;&gt;SetSample1</title>
<path fill="none" stroke="black" d="M181.54,-689.64C246.53,-676.34 343.53,-656.5 404.43,-644.04"/>
<polygon fill="black" stroke="black" points="404.79,-647.54 413.88,-642.1 403.38,-640.68 404.79,-647.54"/>
</g>
<!-- CanDensity -->
<g id="node16" class="node">
<title>CanDensity</title>
<ellipse fill="khaki" stroke="black" cx="312.82" cy="-704.5" rx="66.99" ry="18"/>
<text text-anchor="middle" x="312.82" y="-699.83" font-family="Helvetica,sans-Serif" font-size="14.00">CanDensity</text>
</g>
<!-- CanDensity&#45;&gt;SetSample1 -->
<g id="edge28" class="edge">
<title>CanDensity&#45;&gt;SetSample1</title>
<path fill="none" stroke="black" d="M344.56,-688.27C364.89,-678.52 391.62,-665.69 414.32,-654.8"/>
<polygon fill="black" stroke="black" points="415.56,-658.09 423.06,-650.61 412.53,-651.78 415.56,-658.09"/>
</g>
<!-- CanRadius -->
<g id="node17" class="node">
<title>CanRadius</title>
<ellipse fill="khaki" stroke="black" cx="460.82" cy="-704.5" rx="63.31" ry="18"/>
<text text-anchor="middle" x="460.82" y="-699.83" font-family="Helvetica,sans-Serif" font-size="14.00">CanRadius</text>
</g>
<!-- CanRadius&#45;&gt;SetSample1 -->
<g id="edge29" class="edge">
<title>CanRadius&#45;&gt;SetSample1</title>
<path fill="none" stroke="black" d="M460.82,-686.31C460.82,-678.73 460.82,-669.6 460.82,-661.04"/>
<polygon fill="black" stroke="black" points="464.32,-661.04 460.82,-651.04 457.32,-661.04 464.32,-661.04"/>
</g>
<!-- OutputWorkspace -->
<g id="node18" class="node">
<title>OutputWorkspace</title>
<ellipse fill="khaki" stroke="black" cx="733.82" cy="-18" rx="98.56" ry="18"/>
<text text-anchor="middle" x="733.82" y="-13.32" font-family="Helvetica,sans-Serif" font-size="14.00">OutputWorkspace</text>
</g>
<!-- ConvertUnits1 -->
<g id="node20" class="node">
<title>ConvertUnits1</title>
<path fill="lightskyblue" stroke="black" d="M1263.19,-1481C1263.19,-1481 1180.44,-1481 1180.44,-1481 1174.44,-1481 1168.44,-1475 1168.44,-1469 1168.44,-1469 1168.44,-1457 1168.44,-1457 1168.44,-1451 1174.44,-1445 1180.44,-1445 1180.44,-1445 1263.19,-1445 1263.19,-1445 1269.19,-1445 1275.19,-1451 1275.19,-1457 1275.19,-1457 1275.19,-1469 1275.19,-1469 1275.19,-1475 1269.19,-1481 1263.19,-1481"/>
<text text-anchor="middle" x="1221.82" y="-1458.33" font-family="Helvetica,sans-Serif" font-size="14.00">ConvertUnits</text>
</g>
<!-- GetEFixed&#45;&gt;ConvertUnits1 -->
<g id="edge2" class="edge">
<title>GetEFixed&#45;&gt;ConvertUnits1</title>
<path fill="none" stroke="black" d="M1221.82,-1534.01C1221.82,-1522.18 1221.82,-1506.2 1221.82,-1492.5"/>
<polygon fill="black" stroke="black" points="1225.32,-1492.72 1221.82,-1482.72 1218.32,-1492.72 1225.32,-1492.72"/>
<text text-anchor="middle" x="1360.94" y="-1502.95" font-family="Helvetica,sans-Serif" font-size="14.00">Convert input workspace to Wavelength</text>
</g>
<!-- ConvertUnits1&#45;&gt;SetBeam -->
<g id="edge3" class="edge">
<title>ConvertUnits1&#45;&gt;SetBeam</title>
<path fill="none" stroke="black" d="M1187.1,-1444.52C1168.97,-1435.39 1146.58,-1424.11 1127.2,-1414.35"/>
<polygon fill="black" stroke="black" points="1128.95,-1411.31 1118.44,-1409.94 1125.8,-1417.57 1128.95,-1411.31"/>
</g>
<!-- ConvertUnits2 -->
<g id="node21" class="node">
<title>ConvertUnits2</title>
<path fill="lightskyblue" stroke="black" d="M782.19,-1103.75C782.19,-1103.75 699.44,-1103.75 699.44,-1103.75 693.44,-1103.75 687.44,-1097.75 687.44,-1091.75 687.44,-1091.75 687.44,-1079.75 687.44,-1079.75 687.44,-1073.75 693.44,-1067.75 699.44,-1067.75 699.44,-1067.75 782.19,-1067.75 782.19,-1067.75 788.19,-1067.75 794.19,-1073.75 794.19,-1079.75 794.19,-1079.75 794.19,-1091.75 794.19,-1091.75 794.19,-1097.75 788.19,-1103.75 782.19,-1103.75"/>
<text text-anchor="middle" x="740.82" y="-1081.08" font-family="Helvetica,sans-Serif" font-size="14.00">ConvertUnits</text>
</g>
<!-- Scale -->
<g id="node29" class="node">
<title>Scale</title>
<path fill="lightskyblue" stroke="black" d="M726.82,-1030.75C726.82,-1030.75 696.82,-1030.75 696.82,-1030.75 690.82,-1030.75 684.82,-1024.75 684.82,-1018.75 684.82,-1018.75 684.82,-1006.75 684.82,-1006.75 684.82,-1000.75 690.82,-994.75 696.82,-994.75 696.82,-994.75 726.82,-994.75 726.82,-994.75 732.82,-994.75 738.82,-1000.75 738.82,-1006.75 738.82,-1006.75 738.82,-1018.75 738.82,-1018.75 738.82,-1024.75 732.82,-1030.75 726.82,-1030.75"/>
<text text-anchor="middle" x="711.82" y="-1008.08" font-family="Helvetica,sans-Serif" font-size="14.00">Scale</text>
</g>
<!-- ConvertUnits2&#45;&gt;Scale -->
<g id="edge18" class="edge">
<title>ConvertUnits2&#45;&gt;Scale</title>
<path fill="none" stroke="black" d="M733.8,-1067.56C730.59,-1059.71 726.71,-1050.22 723.11,-1041.41"/>
<polygon fill="black" stroke="black" points="726.36,-1040.11 719.34,-1032.18 719.88,-1042.76 726.36,-1040.11"/>
</g>
<!-- Clone -->
<g id="node37" class="node">
<title>Clone</title>
<ellipse fill="lightgrey" stroke="black" cx="754.82" cy="-939.75" rx="38.58" ry="18"/>
<text text-anchor="middle" x="754.82" y="-935.08" font-family="Helvetica,sans-Serif" font-size="14.00">Clone</text>
</g>
<!-- ConvertUnits2&#45;&gt;Clone -->
<g id="edge19" class="edge">
<title>ConvertUnits2&#45;&gt;Clone</title>
<path fill="none" stroke="black" d="M743.31,-1067.27C744.76,-1056.71 746.55,-1042.97 747.82,-1030.75 749.94,-1010.23 751.73,-987.02 752.97,-969.31"/>
<polygon fill="black" stroke="black" points="756.45,-969.75 753.63,-959.54 749.46,-969.28 756.45,-969.75"/>
</g>
<!-- ConvertUnits3 -->
<g id="node22" class="node">
<title>ConvertUnits3</title>
<path fill="lightskyblue" stroke="black" d="M775.19,-252C775.19,-252 692.44,-252 692.44,-252 686.44,-252 680.44,-246 680.44,-240 680.44,-240 680.44,-228 680.44,-228 680.44,-222 686.44,-216 692.44,-216 692.44,-216 775.19,-216 775.19,-216 781.19,-216 787.19,-222 787.19,-228 787.19,-228 787.19,-240 787.19,-240 787.19,-246 781.19,-252 775.19,-252"/>
<text text-anchor="middle" x="733.82" y="-229.32" font-family="Helvetica,sans-Serif" font-size="14.00">ConvertUnits</text>
</g>
<!-- AddSampleLogMultiple -->
<g id="node32" class="node">
<title>AddSampleLogMultiple</title>
<path fill="lightskyblue" stroke="black" d="M808.94,-180C808.94,-180 658.69,-180 658.69,-180 652.69,-180 646.69,-174 646.69,-168 646.69,-168 646.69,-156 646.69,-156 646.69,-150 652.69,-144 658.69,-144 658.69,-144 808.94,-144 808.94,-144 814.94,-144 820.94,-150 820.94,-156 820.94,-156 820.94,-168 820.94,-168 820.94,-174 814.94,-180 808.94,-180"/>
<text text-anchor="middle" x="733.82" y="-157.32" font-family="Helvetica,sans-Serif" font-size="14.00">AddSampleLogMultiple</text>
</g>
<!-- ConvertUnits3&#45;&gt;AddSampleLogMultiple -->
<g id="edge38" class="edge">
<title>ConvertUnits3&#45;&gt;AddSampleLogMultiple</title>
<path fill="none" stroke="black" d="M733.82,-215.7C733.82,-208.41 733.82,-199.73 733.82,-191.54"/>
<polygon fill="black" stroke="black" points="737.32,-191.62 733.82,-181.62 730.32,-191.62 737.32,-191.62"/>
</g>
<!-- SetBeam&#45;&gt;SetSample -->
<g id="edge6" class="edge">
<title>SetBeam&#45;&gt;SetSample</title>
<path fill="none" stroke="black" d="M1043.42,-1375.64C1040.19,-1374.68 1036.96,-1373.78 1033.82,-1373 932.95,-1348.02 812.51,-1332.81 743.32,-1325.43"/>
<polygon fill="black" stroke="black" points="744.07,-1321.99 733.76,-1324.43 743.34,-1328.95 744.07,-1321.99"/>
</g>
<!-- SetBeam1 -->
<g id="node24" class="node">
<title>SetBeam1</title>
<path fill="lightskyblue" stroke="black" d="M607.94,-722.5C607.94,-722.5 553.69,-722.5 553.69,-722.5 547.69,-722.5 541.69,-716.5 541.69,-710.5 541.69,-710.5 541.69,-698.5 541.69,-698.5 541.69,-692.5 547.69,-686.5 553.69,-686.5 553.69,-686.5 607.94,-686.5 607.94,-686.5 613.94,-686.5 619.94,-692.5 619.94,-698.5 619.94,-698.5 619.94,-710.5 619.94,-710.5 619.94,-716.5 613.94,-722.5 607.94,-722.5"/>
<text text-anchor="middle" x="580.82" y="-699.83" font-family="Helvetica,sans-Serif" font-size="14.00">SetBeam</text>
</g>
<!-- SetBeam1&#45;&gt;SetSample1 -->
<g id="edge26" class="edge">
<title>SetBeam1&#45;&gt;SetSample1</title>
<path fill="none" stroke="black" d="M551.46,-686.13C535.92,-676.93 516.62,-665.52 499.83,-655.58"/>
<polygon fill="black" stroke="black" points="501.97,-652.79 491.59,-650.71 498.41,-658.81 501.97,-652.79"/>
</g>
<!-- SetSample&#45;&gt;MonteCarlo -->
<g id="edge12" class="edge">
<title>SetSample&#45;&gt;MonteCarlo</title>
<path fill="none" stroke="black" d="M641.31,-1301.05C615.69,-1291.52 583.46,-1279.52 556.14,-1269.34"/>
<polygon fill="black" stroke="black" points="557.55,-1266.14 546.96,-1265.93 555.11,-1272.7 557.55,-1266.14"/>
</g>
<!-- MonteCarlo1 -->
<g id="node28" class="node">
<title>MonteCarlo1</title>
<path fill="lightskyblue" stroke="black" d="M498.19,-560.25C498.19,-560.25 427.44,-560.25 427.44,-560.25 421.44,-560.25 415.44,-554.25 415.44,-548.25 415.44,-548.25 415.44,-536.25 415.44,-536.25 415.44,-530.25 421.44,-524.25 427.44,-524.25 427.44,-524.25 498.19,-524.25 498.19,-524.25 504.19,-524.25 510.19,-530.25 510.19,-536.25 510.19,-536.25 510.19,-548.25 510.19,-548.25 510.19,-554.25 504.19,-560.25 498.19,-560.25"/>
<text text-anchor="middle" x="462.82" y="-537.58" font-family="Helvetica,sans-Serif" font-size="14.00">MonteCarlo</text>
</g>
<!-- SetSample1&#45;&gt;MonteCarlo1 -->
<g id="edge30" class="edge">
<title>SetSample1&#45;&gt;MonteCarlo1</title>
<path fill="none" stroke="black" d="M461.21,-613.26C461.48,-601.43 461.85,-585.45 462.16,-571.75"/>
<polygon fill="black" stroke="black" points="465.66,-572.04 462.39,-561.97 458.66,-571.88 465.66,-572.04"/>
</g>
<!-- MonteCarlo&#45;&gt;AbsWorkspace1 -->
<g id="edge15" class="edge">
<title>MonteCarlo&#45;&gt;AbsWorkspace1</title>
<path fill="none" stroke="black" d="M496.1,-1228.7C494.94,-1221.32 493.55,-1212.52 492.25,-1204.25"/>
<polygon fill="black" stroke="black" points="495.75,-1203.93 490.74,-1194.6 488.83,-1205.02 495.75,-1203.93"/>
</g>
<!-- canGiven -->
<g id="node35" class="node">
<title>canGiven</title>
<polygon fill="limegreen" stroke="black" points="792.82,-1193 622.93,-1175 792.82,-1157 962.7,-1175 792.82,-1193"/>
<text text-anchor="middle" x="792.82" y="-1170.33" font-family="Helvetica,sans-Serif" font-size="14.00">Container Workspace?</text>
</g>
<!-- MonteCarlo&#45;&gt;canGiven -->
<g id="edge16" class="edge">
<title>MonteCarlo&#45;&gt;canGiven</title>
<path fill="none" stroke="black" d="M546.38,-1234.68C596.7,-1222.69 676.3,-1203.74 731.35,-1190.63"/>
<polygon fill="black" stroke="black" points="731.97,-1194.08 740.89,-1188.36 730.35,-1187.27 731.97,-1194.08"/>
</g>
<!-- Multiply -->
<g id="node34" class="node">
<title>Multiply</title>
<path fill="lightskyblue" stroke="black" d="M486.19,-487.25C486.19,-487.25 439.44,-487.25 439.44,-487.25 433.44,-487.25 427.44,-481.25 427.44,-475.25 427.44,-475.25 427.44,-463.25 427.44,-463.25 427.44,-457.25 433.44,-451.25 439.44,-451.25 439.44,-451.25 486.19,-451.25 486.19,-451.25 492.19,-451.25 498.19,-457.25 498.19,-463.25 498.19,-463.25 498.19,-475.25 498.19,-475.25 498.19,-481.25 492.19,-487.25 486.19,-487.25"/>
<text text-anchor="middle" x="462.82" y="-464.57" font-family="Helvetica,sans-Serif" font-size="14.00">Multiply</text>
</g>
<!-- MonteCarlo1&#45;&gt;Multiply -->
<g id="edge31" class="edge">
<title>MonteCarlo1&#45;&gt;Multiply</title>
<path fill="none" stroke="black" d="M462.82,-524.06C462.82,-516.48 462.82,-507.35 462.82,-498.79"/>
<polygon fill="black" stroke="black" points="466.32,-498.79 462.82,-488.79 459.32,-498.79 466.32,-498.79"/>
</g>
<!-- Scale&#45;&gt;Clone -->
<g id="edge20" class="edge">
<title>Scale&#45;&gt;Clone</title>
<path fill="none" stroke="black" d="M722.22,-994.56C727.21,-986.33 733.29,-976.29 738.84,-967.13"/>
<polygon fill="black" stroke="black" points="741.83,-968.95 744.01,-958.58 735.84,-965.33 741.83,-968.95"/>
</g>
<!-- Divide -->
<g id="node30" class="node">
<title>Divide</title>
<path fill="lightskyblue" stroke="black" d="M664.57,-414.25C664.57,-414.25 629.07,-414.25 629.07,-414.25 623.07,-414.25 617.07,-408.25 617.07,-402.25 617.07,-402.25 617.07,-390.25 617.07,-390.25 617.07,-384.25 623.07,-378.25 629.07,-378.25 629.07,-378.25 664.57,-378.25 664.57,-378.25 670.57,-378.25 676.57,-384.25 676.57,-390.25 676.57,-390.25 676.57,-402.25 676.57,-402.25 676.57,-408.25 670.57,-414.25 664.57,-414.25"/>
<text text-anchor="middle" x="646.82" y="-391.57" font-family="Helvetica,sans-Serif" font-size="14.00">Divide</text>
</g>
<!-- Minus -->
<g id="node31" class="node">
<title>Minus</title>
<path fill="lightskyblue" stroke="black" d="M663.44,-341.25C663.44,-341.25 630.19,-341.25 630.19,-341.25 624.19,-341.25 618.19,-335.25 618.19,-329.25 618.19,-329.25 618.19,-317.25 618.19,-317.25 618.19,-311.25 624.19,-305.25 630.19,-305.25 630.19,-305.25 663.44,-305.25 663.44,-305.25 669.44,-305.25 675.44,-311.25 675.44,-317.25 675.44,-317.25 675.44,-329.25 675.44,-329.25 675.44,-335.25 669.44,-341.25 663.44,-341.25"/>
<text text-anchor="middle" x="646.82" y="-318.57" font-family="Helvetica,sans-Serif" font-size="14.00">Minus</text>
</g>
<!-- Divide&#45;&gt;Minus -->
<g id="edge35" class="edge">
<title>Divide&#45;&gt;Minus</title>
<path fill="none" stroke="black" d="M646.82,-378.06C646.82,-370.48 646.82,-361.35 646.82,-352.79"/>
<polygon fill="black" stroke="black" points="650.32,-352.79 646.82,-342.79 643.32,-352.79 650.32,-352.79"/>
</g>
<!-- Minus&#45;&gt;ConvertUnits3 -->
<g id="edge36" class="edge">
<title>Minus&#45;&gt;ConvertUnits3</title>
<path fill="none" stroke="black" d="M642.69,-304.78C641.14,-293.86 641.16,-280.01 648.07,-270 653.58,-262.01 661.26,-255.84 669.78,-251.08"/>
<polygon fill="black" stroke="black" points="671.23,-254.26 678.72,-246.77 668.19,-247.95 671.23,-254.26"/>
<text text-anchor="middle" x="727.69" y="-273.95" font-family="Helvetica,sans-Serif" font-size="14.00">Convert back to DeltaE</text>
</g>
<!-- GroupWorkspaces -->
<g id="node33" class="node">
<title>GroupWorkspaces</title>
<path fill="lightskyblue" stroke="black" d="M792.44,-108C792.44,-108 675.19,-108 675.19,-108 669.19,-108 663.19,-102 663.19,-96 663.19,-96 663.19,-84 663.19,-84 663.19,-78 669.19,-72 675.19,-72 675.19,-72 792.44,-72 792.44,-72 798.44,-72 804.44,-78 804.44,-84 804.44,-84 804.44,-96 804.44,-96 804.44,-102 798.44,-108 792.44,-108"/>
<text text-anchor="middle" x="733.82" y="-85.33" font-family="Helvetica,sans-Serif" font-size="14.00">GroupWorkspaces</text>
</g>
<!-- AddSampleLogMultiple&#45;&gt;GroupWorkspaces -->
<g id="edge39" class="edge">
<title>AddSampleLogMultiple&#45;&gt;GroupWorkspaces</title>
<path fill="none" stroke="black" d="M733.82,-143.7C733.82,-136.41 733.82,-127.73 733.82,-119.54"/>
<polygon fill="black" stroke="black" points="737.32,-119.62 733.82,-109.62 730.32,-119.62 737.32,-119.62"/>
</g>
<!-- GroupWorkspaces&#45;&gt;OutputWorkspace -->
<g id="edge40" class="edge">
<title>GroupWorkspaces&#45;&gt;OutputWorkspace</title>
<path fill="none" stroke="black" d="M733.82,-71.7C733.82,-64.41 733.82,-55.73 733.82,-47.54"/>
<polygon fill="black" stroke="black" points="737.32,-47.62 733.82,-37.62 730.32,-47.62 737.32,-47.62"/>
</g>
<!-- Multiply&#45;&gt;CanAbsorptionWorkspace -->
<g id="edge32" class="edge">
<title>Multiply&#45;&gt;CanAbsorptionWorkspace</title>
<path fill="none" stroke="black" d="M462.82,-451.06C462.82,-443.48 462.82,-434.35 462.82,-425.79"/>
<polygon fill="black" stroke="black" points="466.32,-425.79 462.82,-415.79 459.32,-425.79 466.32,-425.79"/>
</g>
<!-- Multiply&#45;&gt;Divide -->
<g id="edge33" class="edge">
<title>Multiply&#45;&gt;Divide</title>
<path fill="none" stroke="black" d="M498.48,-455.58C525.71,-445.77 564.37,-431.56 606.23,-414.79"/>
<polygon fill="black" stroke="black" points="607.28,-418.14 615.25,-411.16 604.66,-411.65 607.28,-418.14"/>
</g>
<!-- canGiven&#45;&gt;ConvertUnits2 -->
<g id="edge17" class="edge">
<title>canGiven&#45;&gt;ConvertUnits2</title>
<path fill="none" stroke="black" d="M783.03,-1157.59C775.7,-1145.28 765.49,-1128.14 756.94,-1113.81"/>
<polygon fill="black" stroke="black" points="759.99,-1112.08 751.86,-1105.28 753.97,-1115.67 759.99,-1112.08"/>
<text text-anchor="middle" x="782.07" y="-1125.7" font-family="Helvetica,sans-Serif" font-size="14.00">Yes</text>
</g>
<!-- canGiven&#45;&gt;ConvertUnits3 -->
<g id="edge37" class="edge">
<title>canGiven&#45;&gt;ConvertUnits3</title>
<path fill="none" stroke="black" d="M801.83,-1157.49C810.34,-1140.33 821.82,-1112.45 821.82,-1086.75 821.82,-1086.75 821.82,-1086.75 821.82,-322.25 821.82,-298.21 823.22,-288.46 807.82,-270 804.15,-265.61 799.82,-261.74 795.1,-258.33"/>
<polygon fill="black" stroke="black" points="797.26,-255.55 786.94,-253.13 793.5,-261.45 797.26,-255.55"/>
<text text-anchor="middle" x="831.19" y="-699.83" font-family="Helvetica,sans-Serif" font-size="14.00">No</text>
</g>
<!-- useCorrections -->
<g id="node36" class="node">
<title>useCorrections</title>
<polygon fill="limegreen" stroke="black" points="580.82,-811.75 408.7,-793.75 580.82,-775.75 752.93,-793.75 580.82,-811.75"/>
<text text-anchor="middle" x="580.82" y="-789.08" font-family="Helvetica,sans-Serif" font-size="14.00">Container Corrections?</text>
</g>
<!-- useCorrections&#45;&gt;SetBeam1 -->
<g id="edge25" class="edge">
<title>useCorrections&#45;&gt;SetBeam1</title>
<path fill="none" stroke="black" d="M580.82,-775.51C580.82,-763.68 580.82,-747.7 580.82,-734"/>
<polygon fill="black" stroke="black" points="584.32,-734.22 580.82,-724.22 577.32,-734.22 584.32,-734.22"/>
<text text-anchor="middle" x="592.07" y="-744.45" font-family="Helvetica,sans-Serif" font-size="14.00">Yes</text>
</g>
<!-- useCorrections&#45;&gt;Divide -->
<g id="edge34" class="edge">
<title>useCorrections&#45;&gt;Divide</title>
<path fill="none" stroke="black" d="M602.38,-777.74C621.97,-762.17 647.82,-735.87 647.82,-705.5 647.82,-705.5 647.82,-705.5 647.82,-468.25 647.82,-454.33 647.62,-438.88 647.4,-425.95"/>
<polygon fill="black" stroke="black" points="650.9,-425.91 647.22,-415.98 643.9,-426.04 650.9,-425.91"/>
<text text-anchor="middle" x="657.19" y="-582.2" font-family="Helvetica,sans-Serif" font-size="14.00">No</text>
</g>
<!-- Clone&#45;&gt;Divide1 -->
<g id="edge21" class="edge">
<title>Clone&#45;&gt;Divide1</title>
<path fill="none" stroke="black" d="M726.47,-927.18C698.35,-915.71 654.93,-897.99 622.81,-884.89"/>
<polygon fill="black" stroke="black" points="624.37,-881.74 613.79,-881.2 621.73,-888.22 624.37,-881.74"/>
</g>
<!-- Divide1&#45;&gt;useCorrections -->
<g id="edge24" class="edge">
<title>Divide1&#45;&gt;useCorrections</title>
<path fill="none" stroke="black" d="M580.82,-848.56C580.82,-840.98 580.82,-831.85 580.82,-823.29"/>
<polygon fill="black" stroke="black" points="584.32,-823.29 580.82,-813.29 577.32,-823.29 584.32,-823.29"/>
</g>
</g>
</svg>
