<?xml version="1.0" encoding="UTF-8" standalone="no"?>
<!DOCTYPE svg PUBLIC "-//W3C//DTD SVG 1.1//EN"
 "http://www.w3.org/Graphics/SVG/1.1/DTD/svg11.dtd">
<!-- Generated by graphviz version 12.0.0 (20240803.0821)
 -->
<!-- Title: IndirectFlatePlateAbsorption Pages: 1 -->
<svg width="1509pt" height="1684pt"
 viewBox="0.00 0.00 1509.07 1683.50" xmlns="http://www.w3.org/2000/svg" xmlns:xlink="http://www.w3.org/1999/xlink">
<g id="graph0" class="graph" transform="scale(1 1) rotate(0) translate(4 1679.5)">
<title>IndirectFlatePlateAbsorption</title>
<polygon fill="white" stroke="none" points="-4,4 -4,-1679.5 1505.07,-1679.5 1505.07,4 -4,4"/>
<text text-anchor="middle" x="750.53" y="-1658.2" font-family="Helvetica,sans-Serif" font-size="14.00">IndirectFlatePlateAbsorption Flowchart</text>
<!-- SampleWorkspace1 -->
<g id="node1" class="node">
<title>SampleWorkspace1</title>
<ellipse fill="khaki" stroke="black" cx="1222.82" cy="-1632.25" rx="100.66" ry="18"/>
<text text-anchor="middle" x="1222.82" y="-1627.58" font-family="Helvetica,sans-Serif" font-size="14.00">SampleWorkspace</text>
</g>
<!-- GetEFixed -->
<g id="node19" class="node">
<title>GetEFixed</title>
<path fill="lightskyblue" stroke="black" d="M1252.94,-1577.25C1252.94,-1577.25 1192.69,-1577.25 1192.69,-1577.25 1186.69,-1577.25 1180.69,-1571.25 1180.69,-1565.25 1180.69,-1565.25 1180.69,-1553.25 1180.69,-1553.25 1180.69,-1547.25 1186.69,-1541.25 1192.69,-1541.25 1192.69,-1541.25 1252.94,-1541.25 1252.94,-1541.25 1258.94,-1541.25 1264.94,-1547.25 1264.94,-1553.25 1264.94,-1553.25 1264.94,-1565.25 1264.94,-1565.25 1264.94,-1571.25 1258.94,-1577.25 1252.94,-1577.25"/>
<text text-anchor="middle" x="1222.82" y="-1554.58" font-family="Helvetica,sans-Serif" font-size="14.00">GetEFixed</text>
</g>
<!-- SampleWorkspace1&#45;&gt;GetEFixed -->
<g id="edge1" class="edge">
<title>SampleWorkspace1&#45;&gt;GetEFixed</title>
<path fill="none" stroke="black" d="M1222.82,-1614.06C1222.82,-1606.48 1222.82,-1597.35 1222.82,-1588.79"/>
<polygon fill="black" stroke="black" points="1226.32,-1588.79 1222.82,-1578.79 1219.32,-1588.79 1226.32,-1588.79"/>
</g>
<!-- SampleWorkspace2 -->
<g id="node2" class="node">
<title>SampleWorkspace2</title>
<ellipse fill="khaki" stroke="black" cx="344.82" cy="-942.75" rx="100.66" ry="18"/>
<text text-anchor="middle" x="344.82" y="-938.08" font-family="Helvetica,sans-Serif" font-size="14.00">SampleWorkspace</text>
</g>
<!-- Divide1 -->
<g id="node38" class="node">
<title>Divide1</title>
<ellipse fill="lightgrey" stroke="black" cx="580.82" cy="-869.75" rx="48.05" ry="18"/>
<text text-anchor="middle" x="580.82" y="-865.08" font-family="Helvetica,sans-Serif" font-size="14.00">Divide1</text>
</g>
<!-- SampleWorkspace2&#45;&gt;Divide1 -->
<g id="edge22" class="edge">
<title>SampleWorkspace2&#45;&gt;Divide1</title>
<path fill="none" stroke="black" d="M394.86,-926.69C435.8,-914.38 493.29,-897.08 533.47,-884.99"/>
<polygon fill="black" stroke="black" points="534.3,-888.4 542.87,-882.17 532.29,-881.69 534.3,-888.4"/>
</g>
<!-- SampleChemicalFormula -->
<g id="node3" class="node">
<title>SampleChemicalFormula</title>
<ellipse fill="khaki" stroke="black" cx="182.82" cy="-1397" rx="131.18" ry="18"/>
<text text-anchor="middle" x="182.82" y="-1392.33" font-family="Helvetica,sans-Serif" font-size="14.00">SampleChemicalFormula</text>
</g>
<!-- SetSample -->
<g id="node25" class="node">
<title>SetSample</title>
<path fill="lightskyblue" stroke="black" d="M720.94,-1342C720.94,-1342 654.69,-1342 654.69,-1342 648.69,-1342 642.69,-1336 642.69,-1330 642.69,-1330 642.69,-1318 642.69,-1318 642.69,-1312 648.69,-1306 654.69,-1306 654.69,-1306 720.94,-1306 720.94,-1306 726.94,-1306 732.94,-1312 732.94,-1318 732.94,-1318 732.94,-1330 732.94,-1330 732.94,-1336 726.94,-1342 720.94,-1342"/>
<text text-anchor="middle" x="687.82" y="-1319.33" font-family="Helvetica,sans-Serif" font-size="14.00">SetSample</text>
</g>
<!-- SampleChemicalFormula&#45;&gt;SetSample -->
<g id="edge10" class="edge">
<title>SampleChemicalFormula&#45;&gt;SetSample</title>
<path fill="none" stroke="black" d="M278.76,-1384.42C293.84,-1382.6 309.25,-1380.75 323.82,-1379 457.95,-1362.91 496.16,-1370.74 631.13,-1342.37"/>
<polygon fill="black" stroke="black" points="631.78,-1345.81 640.83,-1340.3 630.32,-1338.96 631.78,-1345.81"/>
</g>
<!-- SampleDensity -->
<g id="node4" class="node">
<title>SampleDensity</title>
<ellipse fill="khaki" stroke="black" cx="416.82" cy="-1397" rx="84.35" ry="18"/>
<text text-anchor="middle" x="416.82" y="-1392.33" font-family="Helvetica,sans-Serif" font-size="14.00">SampleDensity</text>
</g>
<!-- SampleDensity&#45;&gt;SetSample -->
<g id="edge11" class="edge">
<title>SampleDensity&#45;&gt;SetSample</title>
<path fill="none" stroke="black" d="M472.36,-1383.17C513.77,-1373.37 571.95,-1359.15 631.15,-1342.67"/>
<polygon fill="black" stroke="black" points="632.07,-1346.05 640.75,-1339.98 630.18,-1339.31 632.07,-1346.05"/>
</g>
<!-- SampleHeight -->
<g id="node5" class="node">
<title>SampleHeight</title>
<ellipse fill="khaki" stroke="black" cx="598.82" cy="-1397" rx="79.62" ry="18"/>
<text text-anchor="middle" x="598.82" y="-1392.33" font-family="Helvetica,sans-Serif" font-size="14.00">SampleHeight</text>
</g>
<!-- SampleHeight&#45;&gt;SetSample -->
<g id="edge8" class="edge">
<title>SampleHeight&#45;&gt;SetSample</title>
<path fill="none" stroke="black" d="M619.91,-1379.17C630.97,-1370.35 644.72,-1359.38 656.96,-1349.62"/>
<polygon fill="black" stroke="black" points="659.13,-1352.36 664.76,-1343.39 654.76,-1346.89 659.13,-1352.36"/>
</g>
<!-- SampleRadius -->
<g id="node6" class="node">
<title>SampleRadius</title>
<ellipse fill="khaki" stroke="black" cx="776.82" cy="-1397" rx="80.67" ry="18"/>
<text text-anchor="middle" x="776.82" y="-1392.33" font-family="Helvetica,sans-Serif" font-size="14.00">SampleRadius</text>
</g>
<!-- SampleRadius&#45;&gt;SetSample -->
<g id="edge7" class="edge">
<title>SampleRadius&#45;&gt;SetSample</title>
<path fill="none" stroke="black" d="M755.72,-1379.17C744.66,-1370.35 730.91,-1359.38 718.67,-1349.62"/>
<polygon fill="black" stroke="black" points="720.87,-1346.89 710.87,-1343.39 716.5,-1352.36 720.87,-1346.89"/>
</g>
<!-- SampleAngle -->
<g id="node7" class="node">
<title>SampleAngle</title>
<ellipse fill="khaki" stroke="black" cx="950.82" cy="-1397" rx="75.41" ry="18"/>
<text text-anchor="middle" x="950.82" y="-1392.33" font-family="Helvetica,sans-Serif" font-size="14.00">SampleAngle</text>
</g>
<!-- SampleAngle&#45;&gt;SetSample -->
<g id="edge9" class="edge">
<title>SampleAngle&#45;&gt;SetSample</title>
<path fill="none" stroke="black" d="M902.27,-1382.89C857.61,-1370.84 791.38,-1352.96 744.36,-1340.26"/>
<polygon fill="black" stroke="black" points="745.46,-1336.94 734.9,-1337.71 743.64,-1343.7 745.46,-1336.94"/>
</g>
<!-- BeamHeight -->
<g id="node8" class="node">
<title>BeamHeight</title>
<ellipse fill="khaki" stroke="black" cx="926.82" cy="-1470" rx="71.2" ry="18"/>
<text text-anchor="middle" x="926.82" y="-1465.33" font-family="Helvetica,sans-Serif" font-size="14.00">BeamHeight</text>
</g>
<!-- SetBeam -->
<g id="node23" class="node">
<title>SetBeam</title>
<path fill="lightskyblue" stroke="black" d="M1110.94,-1415C1110.94,-1415 1056.69,-1415 1056.69,-1415 1050.69,-1415 1044.69,-1409 1044.69,-1403 1044.69,-1403 1044.69,-1391 1044.69,-1391 1044.69,-1385 1050.69,-1379 1056.69,-1379 1056.69,-1379 1110.94,-1379 1110.94,-1379 1116.94,-1379 1122.94,-1385 1122.94,-1391 1122.94,-1391 1122.94,-1403 1122.94,-1403 1122.94,-1409 1116.94,-1415 1110.94,-1415"/>
<text text-anchor="middle" x="1083.82" y="-1392.33" font-family="Helvetica,sans-Serif" font-size="14.00">SetBeam</text>
</g>
<!-- BeamHeight&#45;&gt;SetBeam -->
<g id="edge4" class="edge">
<title>BeamHeight&#45;&gt;SetBeam</title>
<path fill="none" stroke="black" d="M960.5,-1453.77C982.16,-1443.97 1010.67,-1431.08 1034.82,-1420.16"/>
<polygon fill="black" stroke="black" points="1036.17,-1423.39 1043.84,-1416.08 1033.28,-1417.01 1036.17,-1423.39"/>
</g>
<!-- BeamWidth -->
<g id="node9" class="node">
<title>BeamWidth</title>
<ellipse fill="khaki" stroke="black" cx="1083.82" cy="-1470" rx="67.52" ry="18"/>
<text text-anchor="middle" x="1083.82" y="-1465.33" font-family="Helvetica,sans-Serif" font-size="14.00">BeamWidth</text>
</g>
<!-- BeamWidth&#45;&gt;SetBeam -->
<g id="edge5" class="edge">
<title>BeamWidth&#45;&gt;SetBeam</title>
<path fill="none" stroke="black" d="M1083.82,-1451.81C1083.82,-1444.23 1083.82,-1435.1 1083.82,-1426.54"/>
<polygon fill="black" stroke="black" points="1087.32,-1426.54 1083.82,-1416.54 1080.32,-1426.54 1087.32,-1426.54"/>
</g>
<!-- Events -->
<g id="node10" class="node">
<title>Events</title>
<ellipse fill="khaki" stroke="black" cx="312.82" cy="-1324" rx="44.37" ry="18"/>
<text text-anchor="middle" x="312.82" y="-1319.33" font-family="Helvetica,sans-Serif" font-size="14.00">Events</text>
</g>
<!-- MonteCarlo -->
<g id="node27" class="node">
<title>MonteCarlo</title>
<path fill="lightskyblue" stroke="black" d="M535.19,-1269C535.19,-1269 464.44,-1269 464.44,-1269 458.44,-1269 452.44,-1263 452.44,-1257 452.44,-1257 452.44,-1245 452.44,-1245 452.44,-1239 458.44,-1233 464.44,-1233 464.44,-1233 535.19,-1233 535.19,-1233 541.19,-1233 547.19,-1239 547.19,-1245 547.19,-1245 547.19,-1257 547.19,-1257 547.19,-1263 541.19,-1269 535.19,-1269"/>
<text text-anchor="middle" x="499.82" y="-1246.33" font-family="Helvetica,sans-Serif" font-size="14.00">MonteCarlo</text>
</g>
<!-- Events&#45;&gt;MonteCarlo -->
<g id="edge13" class="edge">
<title>Events&#45;&gt;MonteCarlo</title>
<path fill="none" stroke="black" d="M344.54,-1310.96C371.5,-1300.72 410.87,-1285.77 443.22,-1273.49"/>
<polygon fill="black" stroke="black" points="444.37,-1276.8 452.48,-1269.97 441.88,-1270.25 444.37,-1276.8"/>
</g>
<!-- NumberOfWavelengths -->
<g id="node11" class="node">
<title>NumberOfWavelengths</title>
<ellipse fill="khaki" stroke="black" cx="499.82" cy="-1324" rx="124.86" ry="18"/>
<text text-anchor="middle" x="499.82" y="-1319.33" font-family="Helvetica,sans-Serif" font-size="14.00">NumberOfWavelengths</text>
</g>
<!-- NumberOfWavelengths&#45;&gt;MonteCarlo -->
<g id="edge14" class="edge">
<title>NumberOfWavelengths&#45;&gt;MonteCarlo</title>
<path fill="none" stroke="black" d="M499.82,-1305.81C499.82,-1298.23 499.82,-1289.1 499.82,-1280.54"/>
<polygon fill="black" stroke="black" points="503.32,-1280.54 499.82,-1270.54 496.32,-1280.54 503.32,-1280.54"/>
</g>
<!-- AbsWorkspace1 -->
<g id="node12" class="node">
<title>AbsWorkspace1</title>
<ellipse fill="khaki" stroke="black" cx="487.82" cy="-1178" rx="117.5" ry="18"/>
<text text-anchor="middle" x="487.82" y="-1173.33" font-family="Helvetica,sans-Serif" font-size="14.00">AbsorptionWorkspace</text>
</g>
<!-- AbsWorkspace2 -->
<g id="node13" class="node">
<title>AbsWorkspace2</title>
<ellipse fill="khaki" stroke="black" cx="580.82" cy="-942.75" rx="117.5" ry="18"/>
<text text-anchor="middle" x="580.82" y="-938.08" font-family="Helvetica,sans-Serif" font-size="14.00">AbsorptionWorkspace</text>
</g>
<!-- AbsWorkspace2&#45;&gt;Divide1 -->
<g id="edge23" class="edge">
<title>AbsWorkspace2&#45;&gt;Divide1</title>
<path fill="none" stroke="black" d="M580.82,-924.56C580.82,-916.98 580.82,-907.85 580.82,-899.29"/>
<polygon fill="black" stroke="black" points="584.32,-899.29 580.82,-889.29 577.32,-899.29 584.32,-899.29"/>
</g>
<!-- CanAbsorptionWorkspace -->
<g id="node14" class="node">
<title>CanAbsorptionWorkspace</title>
<ellipse fill="khaki" stroke="black" cx="462.82" cy="-399.25" rx="136.44" ry="18"/>
<text text-anchor="middle" x="462.82" y="-394.57" font-family="Helvetica,sans-Serif" font-size="14.00">CanAbsorptionWorkspace</text>
</g>
<!-- CanChemicalFormula -->
<g id="node15" class="node">
<title>CanChemicalFormula</title>
<ellipse fill="khaki" stroke="black" cx="113.82" cy="-707.5" rx="113.82" ry="18"/>
<text text-anchor="middle" x="113.82" y="-702.83" font-family="Helvetica,sans-Serif" font-size="14.00">CanChemicalFormula</text>
</g>
<!-- SetSample1 -->
<g id="node26" class="node">
<title>SetSample1</title>
<path fill="lightskyblue" stroke="black" d="M493.94,-652.5C493.94,-652.5 427.69,-652.5 427.69,-652.5 421.69,-652.5 415.69,-646.5 415.69,-640.5 415.69,-640.5 415.69,-628.5 415.69,-628.5 415.69,-622.5 421.69,-616.5 427.69,-616.5 427.69,-616.5 493.94,-616.5 493.94,-616.5 499.94,-616.5 505.94,-622.5 505.94,-628.5 505.94,-628.5 505.94,-640.5 505.94,-640.5 505.94,-646.5 499.94,-652.5 493.94,-652.5"/>
<text text-anchor="middle" x="460.82" y="-629.83" font-family="Helvetica,sans-Serif" font-size="14.00">SetSample</text>
</g>
<!-- CanChemicalFormula&#45;&gt;SetSample1 -->
<g id="edge27" class="edge">
<title>CanChemicalFormula&#45;&gt;SetSample1</title>
<path fill="none" stroke="black" d="M181.54,-692.64C246.53,-679.34 343.53,-659.5 404.43,-647.04"/>
<polygon fill="black" stroke="black" points="404.79,-650.54 413.88,-645.1 403.38,-643.68 404.79,-650.54"/>
</g>
<!-- CanDensity -->
<g id="node16" class="node">
<title>CanDensity</title>
<ellipse fill="khaki" stroke="black" cx="312.82" cy="-707.5" rx="66.99" ry="18"/>
<text text-anchor="middle" x="312.82" y="-702.83" font-family="Helvetica,sans-Serif" font-size="14.00">CanDensity</text>
</g>
<!-- CanDensity&#45;&gt;SetSample1 -->
<g id="edge28" class="edge">
<title>CanDensity&#45;&gt;SetSample1</title>
<path fill="none" stroke="black" d="M344.56,-691.27C364.89,-681.52 391.62,-668.69 414.32,-657.8"/>
<polygon fill="black" stroke="black" points="415.56,-661.09 423.06,-653.61 412.53,-654.78 415.56,-661.09"/>
</g>
<!-- CanRadius -->
<g id="node17" class="node">
<title>CanRadius</title>
<ellipse fill="khaki" stroke="black" cx="460.82" cy="-707.5" rx="63.31" ry="18"/>
<text text-anchor="middle" x="460.82" y="-702.83" font-family="Helvetica,sans-Serif" font-size="14.00">CanRadius</text>
</g>
<!-- CanRadius&#45;&gt;SetSample1 -->
<g id="edge29" class="edge">
<title>CanRadius&#45;&gt;SetSample1</title>
<path fill="none" stroke="black" d="M460.82,-689.31C460.82,-681.73 460.82,-672.6 460.82,-664.04"/>
<polygon fill="black" stroke="black" points="464.32,-664.04 460.82,-654.04 457.32,-664.04 464.32,-664.04"/>
</g>
<!-- OutputWorkspace -->
<g id="node18" class="node">
<title>OutputWorkspace</title>
<ellipse fill="khaki" stroke="black" cx="733.82" cy="-18" rx="98.56" ry="18"/>
<text text-anchor="middle" x="733.82" y="-13.32" font-family="Helvetica,sans-Serif" font-size="14.00">OutputWorkspace</text>
</g>
<!-- ConvertUnits1 -->
<g id="node20" class="node">
<title>ConvertUnits1</title>
<path fill="lightskyblue" stroke="black" d="M1264.19,-1488C1264.19,-1488 1181.44,-1488 1181.44,-1488 1175.44,-1488 1169.44,-1482 1169.44,-1476 1169.44,-1476 1169.44,-1464 1169.44,-1464 1169.44,-1458 1175.44,-1452 1181.44,-1452 1181.44,-1452 1264.19,-1452 1264.19,-1452 1270.19,-1452 1276.19,-1458 1276.19,-1464 1276.19,-1464 1276.19,-1476 1276.19,-1476 1276.19,-1482 1270.19,-1488 1264.19,-1488"/>
<text text-anchor="middle" x="1222.82" y="-1465.33" font-family="Helvetica,sans-Serif" font-size="14.00">ConvertUnits</text>
</g>
<!-- GetEFixed&#45;&gt;ConvertUnits1 -->
<g id="edge2" class="edge">
<title>GetEFixed&#45;&gt;ConvertUnits1</title>
<path fill="none" stroke="black" d="M1222.82,-1541.01C1222.82,-1529.18 1222.82,-1513.2 1222.82,-1499.5"/>
<polygon fill="black" stroke="black" points="1226.32,-1499.72 1222.82,-1489.72 1219.32,-1499.72 1226.32,-1499.72"/>
<text text-anchor="middle" x="1361.94" y="-1509.95" font-family="Helvetica,sans-Serif" font-size="14.00">Convert input workspace to Wavelength</text>
</g>
<!-- ConvertUnits1&#45;&gt;SetBeam -->
<g id="edge3" class="edge">
<title>ConvertUnits1&#45;&gt;SetBeam</title>
<path fill="none" stroke="black" d="M1188.81,-1451.63C1170.55,-1442.31 1147.83,-1430.7 1128.19,-1420.67"/>
<polygon fill="black" stroke="black" points="1129.79,-1417.56 1119.3,-1416.12 1126.61,-1423.79 1129.79,-1417.56"/>
</g>
<!-- ConvertUnits2 -->
<g id="node21" class="node">
<title>ConvertUnits2</title>
<path fill="lightskyblue" stroke="black" d="M782.19,-1106.75C782.19,-1106.75 699.44,-1106.75 699.44,-1106.75 693.44,-1106.75 687.44,-1100.75 687.44,-1094.75 687.44,-1094.75 687.44,-1082.75 687.44,-1082.75 687.44,-1076.75 693.44,-1070.75 699.44,-1070.75 699.44,-1070.75 782.19,-1070.75 782.19,-1070.75 788.19,-1070.75 794.19,-1076.75 794.19,-1082.75 794.19,-1082.75 794.19,-1094.75 794.19,-1094.75 794.19,-1100.75 788.19,-1106.75 782.19,-1106.75"/>
<text text-anchor="middle" x="740.82" y="-1084.08" font-family="Helvetica,sans-Serif" font-size="14.00">ConvertUnits</text>
</g>
<!-- Scale -->
<g id="node29" class="node">
<title>Scale</title>
<path fill="lightskyblue" stroke="black" d="M727.82,-1033.75C727.82,-1033.75 697.82,-1033.75 697.82,-1033.75 691.82,-1033.75 685.82,-1027.75 685.82,-1021.75 685.82,-1021.75 685.82,-1009.75 685.82,-1009.75 685.82,-1003.75 691.82,-997.75 697.82,-997.75 697.82,-997.75 727.82,-997.75 727.82,-997.75 733.82,-997.75 739.82,-1003.75 739.82,-1009.75 739.82,-1009.75 739.82,-1021.75 739.82,-1021.75 739.82,-1027.75 733.82,-1033.75 727.82,-1033.75"/>
<text text-anchor="middle" x="712.82" y="-1011.08" font-family="Helvetica,sans-Serif" font-size="14.00">Scale</text>
</g>
<!-- ConvertUnits2&#45;&gt;Scale -->
<g id="edge18" class="edge">
<title>ConvertUnits2&#45;&gt;Scale</title>
<path fill="none" stroke="black" d="M734.04,-1070.56C730.94,-1062.71 727.2,-1053.22 723.72,-1044.41"/>
<polygon fill="black" stroke="black" points="727.01,-1043.21 720.09,-1035.19 720.5,-1045.77 727.01,-1043.21"/>
</g>
<!-- Clone -->
<g id="node37" class="node">
<title>Clone</title>
<ellipse fill="lightgrey" stroke="black" cx="754.82" cy="-942.75" rx="38.58" ry="18"/>
<text text-anchor="middle" x="754.82" y="-938.08" font-family="Helvetica,sans-Serif" font-size="14.00">Clone</text>
</g>
<!-- ConvertUnits2&#45;&gt;Clone -->
<g id="edge19" class="edge">
<title>ConvertUnits2&#45;&gt;Clone</title>
<path fill="none" stroke="black" d="M743.77,-1070.29C745.46,-1059.73 747.5,-1046 748.82,-1033.75 751.01,-1013.26 752.54,-990.04 753.5,-972.33"/>
<polygon fill="black" stroke="black" points="756.98,-972.72 754,-962.55 749.99,-972.36 756.98,-972.72"/>
</g>
<!-- ConvertUnits3 -->
<g id="node22" class="node">
<title>ConvertUnits3</title>
<path fill="lightskyblue" stroke="black" d="M775.19,-255C775.19,-255 692.44,-255 692.44,-255 686.44,-255 680.44,-249 680.44,-243 680.44,-243 680.44,-231 680.44,-231 680.44,-225 686.44,-219 692.44,-219 692.44,-219 775.19,-219 775.19,-219 781.19,-219 787.19,-225 787.19,-231 787.19,-231 787.19,-243 787.19,-243 787.19,-249 781.19,-255 775.19,-255"/>
<text text-anchor="middle" x="733.82" y="-232.32" font-family="Helvetica,sans-Serif" font-size="14.00">ConvertUnits</text>
</g>
<!-- AddSampleLogMultiple -->
<g id="node32" class="node">
<title>AddSampleLogMultiple</title>
<path fill="lightskyblue" stroke="black" d="M808.94,-182C808.94,-182 658.69,-182 658.69,-182 652.69,-182 646.69,-176 646.69,-170 646.69,-170 646.69,-158 646.69,-158 646.69,-152 652.69,-146 658.69,-146 658.69,-146 808.94,-146 808.94,-146 814.94,-146 820.94,-152 820.94,-158 820.94,-158 820.94,-170 820.94,-170 820.94,-176 814.94,-182 808.94,-182"/>
<text text-anchor="middle" x="733.82" y="-159.32" font-family="Helvetica,sans-Serif" font-size="14.00">AddSampleLogMultiple</text>
</g>
<!-- ConvertUnits3&#45;&gt;AddSampleLogMultiple -->
<g id="edge38" class="edge">
<title>ConvertUnits3&#45;&gt;AddSampleLogMultiple</title>
<path fill="none" stroke="black" d="M733.82,-218.81C733.82,-211.23 733.82,-202.1 733.82,-193.54"/>
<polygon fill="black" stroke="black" points="737.32,-193.54 733.82,-183.54 730.32,-193.54 737.32,-193.54"/>
</g>
<!-- SetBeam&#45;&gt;SetSample -->
<g id="edge6" class="edge">
<title>SetBeam&#45;&gt;SetSample</title>
<path fill="none" stroke="black" d="M1044.42,-1381.65C1041.19,-1380.68 1037.96,-1379.78 1034.82,-1379 933.94,-1353.87 813.51,-1338.26 744.32,-1330.64"/>
<polygon fill="black" stroke="black" points="745.07,-1327.2 734.75,-1329.6 744.32,-1334.16 745.07,-1327.2"/>
</g>
<!-- SetBeam1 -->
<g id="node24" class="node">
<title>SetBeam1</title>
<path fill="lightskyblue" stroke="black" d="M607.94,-725.5C607.94,-725.5 553.69,-725.5 553.69,-725.5 547.69,-725.5 541.69,-719.5 541.69,-713.5 541.69,-713.5 541.69,-701.5 541.69,-701.5 541.69,-695.5 547.69,-689.5 553.69,-689.5 553.69,-689.5 607.94,-689.5 607.94,-689.5 613.94,-689.5 619.94,-695.5 619.94,-701.5 619.94,-701.5 619.94,-713.5 619.94,-713.5 619.94,-719.5 613.94,-725.5 607.94,-725.5"/>
<text text-anchor="middle" x="580.82" y="-702.83" font-family="Helvetica,sans-Serif" font-size="14.00">SetBeam</text>
</g>
<!-- SetBeam1&#45;&gt;SetSample1 -->
<g id="edge26" class="edge">
<title>SetBeam1&#45;&gt;SetSample1</title>
<path fill="none" stroke="black" d="M551.46,-689.13C535.92,-679.93 516.62,-668.52 499.83,-658.58"/>
<polygon fill="black" stroke="black" points="501.97,-655.79 491.59,-653.71 498.41,-661.81 501.97,-655.79"/>
</g>
<!-- SetSample&#45;&gt;MonteCarlo -->
<g id="edge12" class="edge">
<title>SetSample&#45;&gt;MonteCarlo</title>
<path fill="none" stroke="black" d="M642.31,-1305.81C616.5,-1296.07 583.98,-1283.78 556.52,-1273.42"/>
<polygon fill="black" stroke="black" points="557.89,-1270.19 547.3,-1269.93 555.42,-1276.74 557.89,-1270.19"/>
</g>
<!-- MonteCarlo1 -->
<g id="node28" class="node">
<title>MonteCarlo1</title>
<path fill="lightskyblue" stroke="black" d="M498.19,-563.25C498.19,-563.25 427.44,-563.25 427.44,-563.25 421.44,-563.25 415.44,-557.25 415.44,-551.25 415.44,-551.25 415.44,-539.25 415.44,-539.25 415.44,-533.25 421.44,-527.25 427.44,-527.25 427.44,-527.25 498.19,-527.25 498.19,-527.25 504.19,-527.25 510.19,-533.25 510.19,-539.25 510.19,-539.25 510.19,-551.25 510.19,-551.25 510.19,-557.25 504.19,-563.25 498.19,-563.25"/>
<text text-anchor="middle" x="462.82" y="-540.58" font-family="Helvetica,sans-Serif" font-size="14.00">MonteCarlo</text>
</g>
<!-- SetSample1&#45;&gt;MonteCarlo1 -->
<g id="edge30" class="edge">
<title>SetSample1&#45;&gt;MonteCarlo1</title>
<path fill="none" stroke="black" d="M461.21,-616.26C461.48,-604.43 461.85,-588.45 462.16,-574.75"/>
<polygon fill="black" stroke="black" points="465.66,-575.04 462.39,-564.97 458.66,-574.88 465.66,-575.04"/>
</g>
<!-- MonteCarlo&#45;&gt;AbsWorkspace1 -->
<g id="edge15" class="edge">
<title>MonteCarlo&#45;&gt;AbsWorkspace1</title>
<path fill="none" stroke="black" d="M496.91,-1232.81C495.61,-1225.14 494.05,-1215.89 492.59,-1207.24"/>
<polygon fill="black" stroke="black" points="496.06,-1206.8 490.95,-1197.52 489.16,-1207.96 496.06,-1206.8"/>
</g>
<!-- canGiven -->
<g id="node35" class="node">
<title>canGiven</title>
<polygon fill="limegreen" stroke="black" points="792.82,-1196 622.93,-1178 792.82,-1160 962.7,-1178 792.82,-1196"/>
<text text-anchor="middle" x="792.82" y="-1173.33" font-family="Helvetica,sans-Serif" font-size="14.00">Container Workspace?</text>
</g>
<!-- MonteCarlo&#45;&gt;canGiven -->
<g id="edge16" class="edge">
<title>MonteCarlo&#45;&gt;canGiven</title>
<path fill="none" stroke="black" d="M547.54,-1238.43C597.76,-1226.27 676.95,-1207.08 731.7,-1193.81"/>
<polygon fill="black" stroke="black" points="732.29,-1197.27 741.18,-1191.51 730.64,-1190.47 732.29,-1197.27"/>
</g>
<!-- Multiply -->
<g id="node34" class="node">
<title>Multiply</title>
<path fill="lightskyblue" stroke="black" d="M486.19,-490.25C486.19,-490.25 439.44,-490.25 439.44,-490.25 433.44,-490.25 427.44,-484.25 427.44,-478.25 427.44,-478.25 427.44,-466.25 427.44,-466.25 427.44,-460.25 433.44,-454.25 439.44,-454.25 439.44,-454.25 486.19,-454.25 486.19,-454.25 492.19,-454.25 498.19,-460.25 498.19,-466.25 498.19,-466.25 498.19,-478.25 498.19,-478.25 498.19,-484.25 492.19,-490.25 486.19,-490.25"/>
<text text-anchor="middle" x="462.82" y="-467.57" font-family="Helvetica,sans-Serif" font-size="14.00">Multiply</text>
</g>
<!-- MonteCarlo1&#45;&gt;Multiply -->
<g id="edge31" class="edge">
<title>MonteCarlo1&#45;&gt;Multiply</title>
<path fill="none" stroke="black" d="M462.82,-527.06C462.82,-519.48 462.82,-510.35 462.82,-501.79"/>
<polygon fill="black" stroke="black" points="466.32,-501.79 462.82,-491.79 459.32,-501.79 466.32,-501.79"/>
</g>
<!-- Scale&#45;&gt;Clone -->
<g id="edge20" class="edge">
<title>Scale&#45;&gt;Clone</title>
<path fill="none" stroke="black" d="M722.98,-997.56C727.85,-989.33 733.79,-979.29 739.21,-970.13"/>
<polygon fill="black" stroke="black" points="742.18,-971.98 744.26,-961.59 736.16,-968.42 742.18,-971.98"/>
</g>
<!-- Divide -->
<g id="node30" class="node">
<title>Divide</title>
<path fill="lightskyblue" stroke="black" d="M664.57,-417.25C664.57,-417.25 629.07,-417.25 629.07,-417.25 623.07,-417.25 617.07,-411.25 617.07,-405.25 617.07,-405.25 617.07,-393.25 617.07,-393.25 617.07,-387.25 623.07,-381.25 629.07,-381.25 629.07,-381.25 664.57,-381.25 664.57,-381.25 670.57,-381.25 676.57,-387.25 676.57,-393.25 676.57,-393.25 676.57,-405.25 676.57,-405.25 676.57,-411.25 670.57,-417.25 664.57,-417.25"/>
<text text-anchor="middle" x="646.82" y="-394.57" font-family="Helvetica,sans-Serif" font-size="14.00">Divide</text>
</g>
<!-- Minus -->
<g id="node31" class="node">
<title>Minus</title>
<path fill="lightskyblue" stroke="black" d="M663.44,-344.25C663.44,-344.25 630.19,-344.25 630.19,-344.25 624.19,-344.25 618.19,-338.25 618.19,-332.25 618.19,-332.25 618.19,-320.25 618.19,-320.25 618.19,-314.25 624.19,-308.25 630.19,-308.25 630.19,-308.25 663.44,-308.25 663.44,-308.25 669.44,-308.25 675.44,-314.25 675.44,-320.25 675.44,-320.25 675.44,-332.25 675.44,-332.25 675.44,-338.25 669.44,-344.25 663.44,-344.25"/>
<text text-anchor="middle" x="646.82" y="-321.57" font-family="Helvetica,sans-Serif" font-size="14.00">Minus</text>
</g>
<!-- Divide&#45;&gt;Minus -->
<g id="edge35" class="edge">
<title>Divide&#45;&gt;Minus</title>
<path fill="none" stroke="black" d="M646.82,-381.06C646.82,-373.48 646.82,-364.35 646.82,-355.79"/>
<polygon fill="black" stroke="black" points="650.32,-355.79 646.82,-345.79 643.32,-355.79 650.32,-355.79"/>
</g>
<!-- Minus&#45;&gt;ConvertUnits3 -->
<g id="edge36" class="edge">
<title>Minus&#45;&gt;ConvertUnits3</title>
<path fill="none" stroke="black" d="M642.69,-307.78C641.14,-296.86 641.16,-283.01 648.07,-273 653.58,-265.01 661.26,-258.84 669.78,-254.08"/>
<polygon fill="black" stroke="black" points="671.23,-257.26 678.72,-249.77 668.19,-250.95 671.23,-257.26"/>
<text text-anchor="middle" x="727.69" y="-276.95" font-family="Helvetica,sans-Serif" font-size="14.00">Convert back to DeltaE</text>
</g>
<!-- GroupWorkspaces -->
<g id="node33" class="node">
<title>GroupWorkspaces</title>
<path fill="lightskyblue" stroke="black" d="M792.44,-109C792.44,-109 675.19,-109 675.19,-109 669.19,-109 663.19,-103 663.19,-97 663.19,-97 663.19,-85 663.19,-85 663.19,-79 669.19,-73 675.19,-73 675.19,-73 792.44,-73 792.44,-73 798.44,-73 804.44,-79 804.44,-85 804.44,-85 804.44,-97 804.44,-97 804.44,-103 798.44,-109 792.44,-109"/>
<text text-anchor="middle" x="733.82" y="-86.33" font-family="Helvetica,sans-Serif" font-size="14.00">GroupWorkspaces</text>
</g>
<!-- AddSampleLogMultiple&#45;&gt;GroupWorkspaces -->
<g id="edge39" class="edge">
<title>AddSampleLogMultiple&#45;&gt;GroupWorkspaces</title>
<path fill="none" stroke="black" d="M733.82,-145.81C733.82,-138.23 733.82,-129.1 733.82,-120.54"/>
<polygon fill="black" stroke="black" points="737.32,-120.54 733.82,-110.54 730.32,-120.54 737.32,-120.54"/>
</g>
<!-- GroupWorkspaces&#45;&gt;OutputWorkspace -->
<g id="edge40" class="edge">
<title>GroupWorkspaces&#45;&gt;OutputWorkspace</title>
<path fill="none" stroke="black" d="M733.82,-72.81C733.82,-65.23 733.82,-56.1 733.82,-47.54"/>
<polygon fill="black" stroke="black" points="737.32,-47.54 733.82,-37.54 730.32,-47.54 737.32,-47.54"/>
</g>
<!-- Multiply&#45;&gt;CanAbsorptionWorkspace -->
<g id="edge32" class="edge">
<title>Multiply&#45;&gt;CanAbsorptionWorkspace</title>
<path fill="none" stroke="black" d="M462.82,-454.06C462.82,-446.48 462.82,-437.35 462.82,-428.79"/>
<polygon fill="black" stroke="black" points="466.32,-428.79 462.82,-418.79 459.32,-428.79 466.32,-428.79"/>
</g>
<!-- Multiply&#45;&gt;Divide -->
<g id="edge33" class="edge">
<title>Multiply&#45;&gt;Divide</title>
<path fill="none" stroke="black" d="M498.48,-458.58C525.71,-448.77 564.37,-434.56 606.23,-417.79"/>
<polygon fill="black" stroke="black" points="607.28,-421.14 615.25,-414.16 604.66,-414.65 607.28,-421.14"/>
</g>
<!-- canGiven&#45;&gt;ConvertUnits2 -->
<g id="edge17" class="edge">
<title>canGiven&#45;&gt;ConvertUnits2</title>
<path fill="none" stroke="black" d="M783.03,-1160.59C775.7,-1148.28 765.49,-1131.14 756.94,-1116.81"/>
<polygon fill="black" stroke="black" points="759.99,-1115.08 751.86,-1108.28 753.97,-1118.67 759.99,-1115.08"/>
<text text-anchor="middle" x="782.07" y="-1128.7" font-family="Helvetica,sans-Serif" font-size="14.00">Yes</text>
</g>
<!-- canGiven&#45;&gt;ConvertUnits3 -->
<g id="edge37" class="edge">
<title>canGiven&#45;&gt;ConvertUnits3</title>
<path fill="none" stroke="black" d="M801.83,-1160.49C810.34,-1143.33 821.82,-1115.45 821.82,-1089.75 821.82,-1089.75 821.82,-1089.75 821.82,-325.25 821.82,-301.21 823.22,-291.46 807.82,-273 804.15,-268.61 799.82,-264.74 795.1,-261.33"/>
<polygon fill="black" stroke="black" points="797.26,-258.55 786.94,-256.13 793.5,-264.45 797.26,-258.55"/>
<text text-anchor="middle" x="831.19" y="-702.83" font-family="Helvetica,sans-Serif" font-size="14.00">No</text>
</g>
<!-- useCorrections -->
<g id="node36" class="node">
<title>useCorrections</title>
<polygon fill="limegreen" stroke="black" points="580.82,-814.75 408.7,-796.75 580.82,-778.75 752.93,-796.75 580.82,-814.75"/>
<text text-anchor="middle" x="580.82" y="-792.08" font-family="Helvetica,sans-Serif" font-size="14.00">Container Corrections?</text>
</g>
<!-- useCorrections&#45;&gt;SetBeam1 -->
<g id="edge25" class="edge">
<title>useCorrections&#45;&gt;SetBeam1</title>
<path fill="none" stroke="black" d="M580.82,-778.51C580.82,-766.68 580.82,-750.7 580.82,-737"/>
<polygon fill="black" stroke="black" points="584.32,-737.22 580.82,-727.22 577.32,-737.22 584.32,-737.22"/>
<text text-anchor="middle" x="592.07" y="-747.45" font-family="Helvetica,sans-Serif" font-size="14.00">Yes</text>
</g>
<!-- useCorrections&#45;&gt;Divide -->
<g id="edge34" class="edge">
<title>useCorrections&#45;&gt;Divide</title>
<path fill="none" stroke="black" d="M602.38,-780.74C621.97,-765.17 647.82,-738.87 647.82,-708.5 647.82,-708.5 647.82,-708.5 647.82,-471.25 647.82,-457.33 647.62,-441.88 647.4,-428.95"/>
<polygon fill="black" stroke="black" points="650.9,-428.91 647.22,-418.98 643.9,-429.04 650.9,-428.91"/>
<text text-anchor="middle" x="657.19" y="-585.2" font-family="Helvetica,sans-Serif" font-size="14.00">No</text>
</g>
<!-- Clone&#45;&gt;Divide1 -->
<g id="edge21" class="edge">
<title>Clone&#45;&gt;Divide1</title>
<path fill="none" stroke="black" d="M726.47,-930.18C698.35,-918.71 654.93,-900.99 622.81,-887.89"/>
<polygon fill="black" stroke="black" points="624.37,-884.74 613.79,-884.2 621.73,-891.22 624.37,-884.74"/>
</g>
<!-- Divide1&#45;&gt;useCorrections -->
<g id="edge24" class="edge">
<title>Divide1&#45;&gt;useCorrections</title>
<path fill="none" stroke="black" d="M580.82,-851.56C580.82,-843.98 580.82,-834.85 580.82,-826.29"/>
<polygon fill="black" stroke="black" points="584.32,-826.29 580.82,-816.29 577.32,-826.29 584.32,-826.29"/>
</g>
</g>
</svg>
