<?xml version="1.0" encoding="UTF-8" standalone="no"?>
<!DOCTYPE svg PUBLIC "-//W3C//DTD SVG 1.1//EN"
 "http://www.w3.org/Graphics/SVG/1.1/DTD/svg11.dtd">
<!-- Generated by graphviz version 11.0.0 (20240519.1550)
 -->
<!-- Title: IndirectCylinderAbsorption Pages: 1 -->
<svg width="1604pt" height="1891pt"
 viewBox="0.00 0.00 1604.20 1891.00" xmlns="http://www.w3.org/2000/svg" xmlns:xlink="http://www.w3.org/1999/xlink">
<g id="graph0" class="graph" transform="scale(1 1) rotate(0) translate(4 1887)">
<title>IndirectCylinderAbsorption</title>
<polygon fill="white" stroke="none" points="-4,4 -4,-1887 1600.2,-1887 1600.2,4 -4,4"/>
<text text-anchor="middle" x="798.1" y="-1865.7" font-family="Helvetica,sans-Serif" font-size="14.00">IndirectCylinderAbsorption Flowchart</text>
<!-- SampleWorkspace1 -->
<g id="node1" class="node">
<title>SampleWorkspace1</title>
<ellipse fill="khaki" stroke="black" cx="808.5" cy="-1839.75" rx="100.66" ry="18"/>
<text text-anchor="middle" x="808.5" y="-1835.08" font-family="Helvetica,sans-Serif" font-size="14.00">SampleWorkspace</text>
</g>
<!-- GetEFixed -->
<g id="node22" class="node">
<title>GetEFixed</title>
<path fill="lightskyblue" stroke="black" d="M803.62,-1784.75C803.62,-1784.75 743.37,-1784.75 743.37,-1784.75 737.37,-1784.75 731.37,-1778.75 731.37,-1772.75 731.37,-1772.75 731.37,-1760.75 731.37,-1760.75 731.37,-1754.75 737.37,-1748.75 743.37,-1748.75 743.37,-1748.75 803.62,-1748.75 803.62,-1748.75 809.62,-1748.75 815.62,-1754.75 815.62,-1760.75 815.62,-1760.75 815.62,-1772.75 815.62,-1772.75 815.62,-1778.75 809.62,-1784.75 803.62,-1784.75"/>
<text text-anchor="middle" x="773.5" y="-1762.08" font-family="Helvetica,sans-Serif" font-size="14.00">GetEFixed</text>
</g>
<!-- SampleWorkspace1&#45;&gt;GetEFixed -->
<g id="edge1" class="edge">
<title>SampleWorkspace1&#45;&gt;GetEFixed</title>
<path fill="none" stroke="black" d="M800.03,-1821.56C796.07,-1813.54 791.27,-1803.8 786.84,-1794.82"/>
<polygon fill="black" stroke="black" points="790.12,-1793.56 782.56,-1786.14 783.84,-1796.65 790.12,-1793.56"/>
</g>
<!-- ConvertUnits1 -->
<g id="node23" class="node">
<title>ConvertUnits1</title>
<path fill="lightskyblue" stroke="black" d="M890.87,-1639.75C890.87,-1639.75 808.12,-1639.75 808.12,-1639.75 802.12,-1639.75 796.12,-1633.75 796.12,-1627.75 796.12,-1627.75 796.12,-1615.75 796.12,-1615.75 796.12,-1609.75 802.12,-1603.75 808.12,-1603.75 808.12,-1603.75 890.87,-1603.75 890.87,-1603.75 896.87,-1603.75 902.87,-1609.75 902.87,-1615.75 902.87,-1615.75 902.87,-1627.75 902.87,-1627.75 902.87,-1633.75 896.87,-1639.75 890.87,-1639.75"/>
<text text-anchor="middle" x="849.5" y="-1617.08" font-family="Helvetica,sans-Serif" font-size="14.00">ConvertUnits</text>
</g>
<!-- SampleWorkspace1&#45;&gt;ConvertUnits1 -->
<g id="edge4" class="edge">
<title>SampleWorkspace1&#45;&gt;ConvertUnits1</title>
<path fill="none" stroke="black" d="M814.29,-1821.4C817.63,-1810.88 821.72,-1797.15 824.5,-1784.75 834.88,-1738.46 842.34,-1683.76 846.28,-1651.23"/>
<polygon fill="black" stroke="black" points="849.75,-1651.76 847.44,-1641.42 842.79,-1650.94 849.75,-1651.76"/>
</g>
<!-- SampleWorkspace2 -->
<g id="node2" class="node">
<title>SampleWorkspace2</title>
<ellipse fill="khaki" stroke="black" cx="346.5" cy="-542.25" rx="100.66" ry="18"/>
<text text-anchor="middle" x="346.5" y="-537.58" font-family="Helvetica,sans-Serif" font-size="14.00">SampleWorkspace</text>
</g>
<!-- Minus1 -->
<g id="node34" class="node">
<title>Minus1</title>
<path fill="lightskyblue" stroke="black" d="M429.12,-414.25C429.12,-414.25 395.87,-414.25 395.87,-414.25 389.87,-414.25 383.87,-408.25 383.87,-402.25 383.87,-402.25 383.87,-390.25 383.87,-390.25 383.87,-384.25 389.87,-378.25 395.87,-378.25 395.87,-378.25 429.12,-378.25 429.12,-378.25 435.12,-378.25 441.12,-384.25 441.12,-390.25 441.12,-390.25 441.12,-402.25 441.12,-402.25 441.12,-408.25 435.12,-414.25 429.12,-414.25"/>
<text text-anchor="middle" x="412.5" y="-391.57" font-family="Helvetica,sans-Serif" font-size="14.00">Minus</text>
</g>
<!-- SampleWorkspace2&#45;&gt;Minus1 -->
<g id="edge32" class="edge">
<title>SampleWorkspace2&#45;&gt;Minus1</title>
<path fill="none" stroke="black" d="M352.92,-523.93C355.21,-517.97 357.88,-511.28 360.5,-505.25 372.56,-477.49 387.7,-446.42 398.52,-424.75"/>
<polygon fill="black" stroke="black" points="401.56,-426.5 402.93,-415.99 395.31,-423.36 401.56,-426.5"/>
</g>
<!-- Minus2 -->
<g id="node35" class="node">
<title>Minus2</title>
<path fill="lightskyblue" stroke="black" d="M298.12,-487.25C298.12,-487.25 264.87,-487.25 264.87,-487.25 258.87,-487.25 252.87,-481.25 252.87,-475.25 252.87,-475.25 252.87,-463.25 252.87,-463.25 252.87,-457.25 258.87,-451.25 264.87,-451.25 264.87,-451.25 298.12,-451.25 298.12,-451.25 304.12,-451.25 310.12,-457.25 310.12,-463.25 310.12,-463.25 310.12,-475.25 310.12,-475.25 310.12,-481.25 304.12,-487.25 298.12,-487.25"/>
<text text-anchor="middle" x="281.5" y="-464.57" font-family="Helvetica,sans-Serif" font-size="14.00">Minus</text>
</g>
<!-- SampleWorkspace2&#45;&gt;Minus2 -->
<g id="edge34" class="edge">
<title>SampleWorkspace2&#45;&gt;Minus2</title>
<path fill="none" stroke="black" d="M330.76,-524.06C322.94,-515.52 313.33,-505.02 304.68,-495.57"/>
<polygon fill="black" stroke="black" points="307.44,-493.41 298.11,-488.4 302.28,-498.13 307.44,-493.41"/>
</g>
<!-- SampleWorkspace_Wave -->
<g id="node3" class="node">
<title>SampleWorkspace_Wave</title>
<ellipse fill="khaki" stroke="black" cx="1464.5" cy="-1532.5" rx="131.7" ry="18"/>
<text text-anchor="middle" x="1464.5" y="-1527.83" font-family="Helvetica,sans-Serif" font-size="14.00">SampleWorkspace_Wave</text>
</g>
<!-- SetSampleMaterial1 -->
<g id="node26" class="node">
<title>SetSampleMaterial1</title>
<path fill="lightskyblue" stroke="black" d="M1154.37,-1477.5C1154.37,-1477.5 1032.62,-1477.5 1032.62,-1477.5 1026.62,-1477.5 1020.62,-1471.5 1020.62,-1465.5 1020.62,-1465.5 1020.62,-1453.5 1020.62,-1453.5 1020.62,-1447.5 1026.62,-1441.5 1032.62,-1441.5 1032.62,-1441.5 1154.37,-1441.5 1154.37,-1441.5 1160.37,-1441.5 1166.37,-1447.5 1166.37,-1453.5 1166.37,-1453.5 1166.37,-1465.5 1166.37,-1465.5 1166.37,-1471.5 1160.37,-1477.5 1154.37,-1477.5"/>
<text text-anchor="middle" x="1093.5" y="-1454.83" font-family="Helvetica,sans-Serif" font-size="14.00">SetSampleMaterial</text>
</g>
<!-- SampleWorkspace_Wave&#45;&gt;SetSampleMaterial1 -->
<g id="edge6" class="edge">
<title>SampleWorkspace_Wave&#45;&gt;SetSampleMaterial1</title>
<path fill="none" stroke="black" d="M1390.31,-1517.3C1328.97,-1505.56 1241.86,-1488.89 1177.87,-1476.65"/>
<polygon fill="black" stroke="black" points="1178.57,-1473.22 1168.09,-1474.78 1177.26,-1480.09 1178.57,-1473.22"/>
</g>
<!-- SampleWorkspace_Wave2 -->
<g id="node4" class="node">
<title>SampleWorkspace_Wave2</title>
<ellipse fill="khaki" stroke="black" cx="412.5" cy="-323.25" rx="131.7" ry="18"/>
<text text-anchor="middle" x="412.5" y="-318.57" font-family="Helvetica,sans-Serif" font-size="14.00">SampleWorkspace_Wave</text>
</g>
<!-- ConvertUnits3 -->
<g id="node25" class="node">
<title>ConvertUnits3</title>
<path fill="lightskyblue" stroke="black" d="M453.87,-252C453.87,-252 371.12,-252 371.12,-252 365.12,-252 359.12,-246 359.12,-240 359.12,-240 359.12,-228 359.12,-228 359.12,-222 365.12,-216 371.12,-216 371.12,-216 453.87,-216 453.87,-216 459.87,-216 465.87,-222 465.87,-228 465.87,-228 465.87,-240 465.87,-240 465.87,-246 459.87,-252 453.87,-252"/>
<text text-anchor="middle" x="412.5" y="-229.32" font-family="Helvetica,sans-Serif" font-size="14.00">ConvertUnits</text>
</g>
<!-- SampleWorkspace_Wave2&#45;&gt;ConvertUnits3 -->
<g id="edge41" class="edge">
<title>SampleWorkspace_Wave2&#45;&gt;ConvertUnits3</title>
<path fill="none" stroke="black" d="M412.5,-305.01C412.5,-293.18 412.5,-277.2 412.5,-263.5"/>
<polygon fill="black" stroke="black" points="416,-263.72 412.5,-253.72 409,-263.72 416,-263.72"/>
<text text-anchor="middle" x="492.37" y="-273.95" font-family="Helvetica,sans-Serif" font-size="14.00">Convert back to DeltaE</text>
</g>
<!-- SampleChemicalFormula -->
<g id="node5" class="node">
<title>SampleChemicalFormula</title>
<ellipse fill="khaki" stroke="black" cx="917.5" cy="-1532.5" rx="131.18" ry="18"/>
<text text-anchor="middle" x="917.5" y="-1527.83" font-family="Helvetica,sans-Serif" font-size="14.00">SampleChemicalFormula</text>
</g>
<!-- SampleChemicalFormula&#45;&gt;SetSampleMaterial1 -->
<g id="edge7" class="edge">
<title>SampleChemicalFormula&#45;&gt;SetSampleMaterial1</title>
<path fill="none" stroke="black" d="M958.32,-1515.03C982.51,-1505.28 1013.44,-1492.79 1039.62,-1482.24"/>
<polygon fill="black" stroke="black" points="1040.77,-1485.55 1048.73,-1478.56 1038.15,-1479.06 1040.77,-1485.55"/>
</g>
<!-- SampleNumberDensity -->
<g id="node6" class="node">
<title>SampleNumberDensity</title>
<ellipse fill="khaki" stroke="black" cx="1190.5" cy="-1532.5" rx="123.81" ry="18"/>
<text text-anchor="middle" x="1190.5" y="-1527.83" font-family="Helvetica,sans-Serif" font-size="14.00">SampleNumberDensity</text>
</g>
<!-- SampleNumberDensity&#45;&gt;SetSampleMaterial1 -->
<g id="edge8" class="edge">
<title>SampleNumberDensity&#45;&gt;SetSampleMaterial1</title>
<path fill="none" stroke="black" d="M1167.51,-1514.67C1155.22,-1505.68 1139.87,-1494.45 1126.35,-1484.54"/>
<polygon fill="black" stroke="black" points="1128.69,-1481.92 1118.55,-1478.84 1124.56,-1487.57 1128.69,-1481.92"/>
</g>
<!-- SampleRadius -->
<g id="node7" class="node">
<title>SampleRadius</title>
<ellipse fill="khaki" stroke="black" cx="499.5" cy="-1459.5" rx="80.67" ry="18"/>
<text text-anchor="middle" x="499.5" y="-1454.83" font-family="Helvetica,sans-Serif" font-size="14.00">SampleRadius</text>
</g>
<!-- CylinderAbsorption1 -->
<g id="node28" class="node">
<title>CylinderAbsorption1</title>
<path fill="lightskyblue" stroke="black" d="M781.25,-1404.5C781.25,-1404.5 655.75,-1404.5 655.75,-1404.5 649.75,-1404.5 643.75,-1398.5 643.75,-1392.5 643.75,-1392.5 643.75,-1380.5 643.75,-1380.5 643.75,-1374.5 649.75,-1368.5 655.75,-1368.5 655.75,-1368.5 781.25,-1368.5 781.25,-1368.5 787.25,-1368.5 793.25,-1374.5 793.25,-1380.5 793.25,-1380.5 793.25,-1392.5 793.25,-1392.5 793.25,-1398.5 787.25,-1404.5 781.25,-1404.5"/>
<text text-anchor="middle" x="718.5" y="-1381.83" font-family="Helvetica,sans-Serif" font-size="14.00">CylinderAbsorption</text>
</g>
<!-- SampleRadius&#45;&gt;CylinderAbsorption1 -->
<g id="edge10" class="edge">
<title>SampleRadius&#45;&gt;CylinderAbsorption1</title>
<path fill="none" stroke="black" d="M544.08,-1444.05C575.7,-1433.79 618.63,-1419.88 653.98,-1408.42"/>
<polygon fill="black" stroke="black" points="654.82,-1411.83 663.25,-1405.41 652.66,-1405.17 654.82,-1411.83"/>
</g>
<!-- SampleThickness -->
<g id="node8" class="node">
<title>SampleThickness</title>
<ellipse fill="khaki" stroke="black" cx="1023.5" cy="-1839.75" rx="95.93" ry="18"/>
<text text-anchor="middle" x="1023.5" y="-1835.08" font-family="Helvetica,sans-Serif" font-size="14.00">SampleThickness</text>
</g>
<!-- AbsWorkspace1 -->
<g id="node9" class="node">
<title>AbsWorkspace1</title>
<ellipse fill="khaki" stroke="black" cx="718.5" cy="-1314.5" rx="117.5" ry="18"/>
<text text-anchor="middle" x="718.5" y="-1309.83" font-family="Helvetica,sans-Serif" font-size="14.00">AbsorptionWorkspace</text>
</g>
<!-- canGiven -->
<g id="node38" class="node">
<title>canGiven</title>
<polygon fill="limegreen" stroke="black" points="718.5,-1260.5 588.79,-1242.5 718.5,-1224.5 848.21,-1242.5 718.5,-1260.5"/>
<text text-anchor="middle" x="718.5" y="-1237.83" font-family="Helvetica,sans-Serif" font-size="14.00">Can Workspace?</text>
</g>
<!-- AbsWorkspace1&#45;&gt;canGiven -->
<g id="edge14" class="edge">
<title>AbsWorkspace1&#45;&gt;canGiven</title>
<path fill="none" stroke="black" d="M718.5,-1296.2C718.5,-1288.91 718.5,-1280.23 718.5,-1272.04"/>
<polygon fill="black" stroke="black" points="722,-1272.12 718.5,-1262.12 715,-1272.12 722,-1272.12"/>
</g>
<!-- AbsWorkspace2 -->
<g id="node10" class="node">
<title>AbsWorkspace2</title>
<ellipse fill="khaki" stroke="black" cx="117.5" cy="-469.25" rx="117.5" ry="18"/>
<text text-anchor="middle" x="117.5" y="-464.57" font-family="Helvetica,sans-Serif" font-size="14.00">AbsorptionWorkspace</text>
</g>
<!-- Divide2 -->
<g id="node32" class="node">
<title>Divide2</title>
<path fill="lightskyblue" stroke="black" d="M299.25,-414.25C299.25,-414.25 263.75,-414.25 263.75,-414.25 257.75,-414.25 251.75,-408.25 251.75,-402.25 251.75,-402.25 251.75,-390.25 251.75,-390.25 251.75,-384.25 257.75,-378.25 263.75,-378.25 263.75,-378.25 299.25,-378.25 299.25,-378.25 305.25,-378.25 311.25,-384.25 311.25,-390.25 311.25,-390.25 311.25,-402.25 311.25,-402.25 311.25,-408.25 305.25,-414.25 299.25,-414.25"/>
<text text-anchor="middle" x="281.5" y="-391.57" font-family="Helvetica,sans-Serif" font-size="14.00">Divide</text>
</g>
<!-- AbsWorkspace2&#45;&gt;Divide2 -->
<g id="edge36" class="edge">
<title>AbsWorkspace2&#45;&gt;Divide2</title>
<path fill="none" stroke="black" d="M155.53,-451.78C181.15,-440.69 214.89,-426.09 241,-414.78"/>
<polygon fill="black" stroke="black" points="242.15,-418.1 249.93,-410.92 239.37,-411.68 242.15,-418.1"/>
</g>
<!-- CanWorkspace -->
<g id="node11" class="node">
<title>CanWorkspace</title>
<ellipse fill="khaki" stroke="black" cx="559.5" cy="-1153.25" rx="83.3" ry="18"/>
<text text-anchor="middle" x="559.5" y="-1148.58" font-family="Helvetica,sans-Serif" font-size="14.00">CanWorkspace</text>
</g>
<!-- ConvertUnits2 -->
<g id="node24" class="node">
<title>ConvertUnits2</title>
<path fill="lightskyblue" stroke="black" d="M600.87,-1063.25C600.87,-1063.25 518.12,-1063.25 518.12,-1063.25 512.12,-1063.25 506.12,-1057.25 506.12,-1051.25 506.12,-1051.25 506.12,-1039.25 506.12,-1039.25 506.12,-1033.25 512.12,-1027.25 518.12,-1027.25 518.12,-1027.25 600.87,-1027.25 600.87,-1027.25 606.87,-1027.25 612.87,-1033.25 612.87,-1039.25 612.87,-1039.25 612.87,-1051.25 612.87,-1051.25 612.87,-1057.25 606.87,-1063.25 600.87,-1063.25"/>
<text text-anchor="middle" x="559.5" y="-1040.58" font-family="Helvetica,sans-Serif" font-size="14.00">ConvertUnits</text>
</g>
<!-- CanWorkspace&#45;&gt;ConvertUnits2 -->
<g id="edge16" class="edge">
<title>CanWorkspace&#45;&gt;ConvertUnits2</title>
<path fill="none" stroke="black" d="M559.5,-1135.22C559.5,-1119.01 559.5,-1094.31 559.5,-1075.04"/>
<polygon fill="black" stroke="black" points="563,-1075.1 559.5,-1065.1 556,-1075.1 563,-1075.1"/>
</g>
<!-- CanWorkspace_Wave -->
<g id="node12" class="node">
<title>CanWorkspace_Wave</title>
<ellipse fill="khaki" stroke="black" cx="236.5" cy="-956" rx="114.34" ry="18"/>
<text text-anchor="middle" x="236.5" y="-951.33" font-family="Helvetica,sans-Serif" font-size="14.00">CanWorkspace_Wave</text>
</g>
<!-- canScale -->
<g id="node39" class="node">
<title>canScale</title>
<polygon fill="limegreen" stroke="black" points="155.5,-901 64.48,-883 155.5,-865 246.52,-883 155.5,-901"/>
<text text-anchor="middle" x="155.5" y="-878.33" font-family="Helvetica,sans-Serif" font-size="14.00">Can Scale?</text>
</g>
<!-- CanWorkspace_Wave&#45;&gt;canScale -->
<g id="edge19" class="edge">
<title>CanWorkspace_Wave&#45;&gt;canScale</title>
<path fill="none" stroke="black" d="M216.89,-937.81C205.85,-928.13 191.95,-915.95 180.17,-905.63"/>
<polygon fill="black" stroke="black" points="182.62,-903.12 172.8,-899.16 178.01,-908.39 182.62,-903.12"/>
</g>
<!-- CanScale -->
<g id="node13" class="node">
<title>CanScale</title>
<ellipse fill="khaki" stroke="black" cx="320.5" cy="-883" rx="55.94" ry="18"/>
<text text-anchor="middle" x="320.5" y="-878.33" font-family="Helvetica,sans-Serif" font-size="14.00">CanScale</text>
</g>
<!-- Scale -->
<g id="node30" class="node">
<title>Scale</title>
<path fill="lightskyblue" stroke="black" d="M310.5,-811.75C310.5,-811.75 280.5,-811.75 280.5,-811.75 274.5,-811.75 268.5,-805.75 268.5,-799.75 268.5,-799.75 268.5,-787.75 268.5,-787.75 268.5,-781.75 274.5,-775.75 280.5,-775.75 280.5,-775.75 310.5,-775.75 310.5,-775.75 316.5,-775.75 322.5,-781.75 322.5,-787.75 322.5,-787.75 322.5,-799.75 322.5,-799.75 322.5,-805.75 316.5,-811.75 310.5,-811.75"/>
<text text-anchor="middle" x="295.5" y="-789.08" font-family="Helvetica,sans-Serif" font-size="14.00">Scale</text>
</g>
<!-- CanScale&#45;&gt;Scale -->
<g id="edge21" class="edge">
<title>CanScale&#45;&gt;Scale</title>
<path fill="none" stroke="black" d="M315.56,-864.76C312.13,-852.81 307.5,-836.63 303.55,-822.83"/>
<polygon fill="black" stroke="black" points="306.96,-822.06 300.84,-813.41 300.23,-823.98 306.96,-822.06"/>
</g>
<!-- CanChemicalFormula -->
<g id="node14" class="node">
<title>CanChemicalFormula</title>
<ellipse fill="khaki" stroke="black" cx="673.5" cy="-720.75" rx="113.82" ry="18"/>
<text text-anchor="middle" x="673.5" y="-716.08" font-family="Helvetica,sans-Serif" font-size="14.00">CanChemicalFormula</text>
</g>
<!-- SetSampleMaterial2 -->
<g id="node27" class="node">
<title>SetSampleMaterial2</title>
<path fill="lightskyblue" stroke="black" d="M680.37,-649.5C680.37,-649.5 558.62,-649.5 558.62,-649.5 552.62,-649.5 546.62,-643.5 546.62,-637.5 546.62,-637.5 546.62,-625.5 546.62,-625.5 546.62,-619.5 552.62,-613.5 558.62,-613.5 558.62,-613.5 680.37,-613.5 680.37,-613.5 686.37,-613.5 692.37,-619.5 692.37,-625.5 692.37,-625.5 692.37,-637.5 692.37,-637.5 692.37,-643.5 686.37,-649.5 680.37,-649.5"/>
<text text-anchor="middle" x="619.5" y="-626.83" font-family="Helvetica,sans-Serif" font-size="14.00">SetSampleMaterial</text>
</g>
<!-- CanChemicalFormula&#45;&gt;SetSampleMaterial2 -->
<g id="edge25" class="edge">
<title>CanChemicalFormula&#45;&gt;SetSampleMaterial2</title>
<path fill="none" stroke="black" d="M662.83,-702.51C655.21,-690.2 644.82,-673.41 636.12,-659.35"/>
<polygon fill="black" stroke="black" points="639.18,-657.65 630.94,-650.99 633.23,-661.33 639.18,-657.65"/>
</g>
<!-- CanNumberDensity -->
<g id="node15" class="node">
<title>CanNumberDensity</title>
<ellipse fill="khaki" stroke="black" cx="435.5" cy="-720.75" rx="106.45" ry="18"/>
<text text-anchor="middle" x="435.5" y="-716.08" font-family="Helvetica,sans-Serif" font-size="14.00">CanNumberDensity</text>
</g>
<!-- CanNumberDensity&#45;&gt;SetSampleMaterial2 -->
<g id="edge26" class="edge">
<title>CanNumberDensity&#45;&gt;SetSampleMaterial2</title>
<path fill="none" stroke="black" d="M470.11,-703.34C499.13,-689.58 540.85,-669.79 572.83,-654.63"/>
<polygon fill="black" stroke="black" points="573.93,-657.98 581.47,-650.53 570.93,-651.65 573.93,-657.98"/>
</g>
<!-- CanRadius -->
<g id="node16" class="node">
<title>CanRadius</title>
<ellipse fill="khaki" stroke="black" cx="465.5" cy="-631.5" rx="63.31" ry="18"/>
<text text-anchor="middle" x="465.5" y="-626.83" font-family="Helvetica,sans-Serif" font-size="14.00">CanRadius</text>
</g>
<!-- CylinderAbsorption2 -->
<g id="node29" class="node">
<title>CylinderAbsorption2</title>
<path fill="lightskyblue" stroke="black" d="M602.25,-560.25C602.25,-560.25 476.75,-560.25 476.75,-560.25 470.75,-560.25 464.75,-554.25 464.75,-548.25 464.75,-548.25 464.75,-536.25 464.75,-536.25 464.75,-530.25 470.75,-524.25 476.75,-524.25 476.75,-524.25 602.25,-524.25 602.25,-524.25 608.25,-524.25 614.25,-530.25 614.25,-536.25 614.25,-536.25 614.25,-548.25 614.25,-548.25 614.25,-554.25 608.25,-560.25 602.25,-560.25"/>
<text text-anchor="middle" x="539.5" y="-537.58" font-family="Helvetica,sans-Serif" font-size="14.00">CylinderAbsorption</text>
</g>
<!-- CanRadius&#45;&gt;CylinderAbsorption2 -->
<g id="edge28" class="edge">
<title>CanRadius&#45;&gt;CylinderAbsorption2</title>
<path fill="none" stroke="black" d="M479.77,-613.68C490.48,-601.05 505.34,-583.52 517.56,-569.11"/>
<polygon fill="black" stroke="black" points="519.99,-571.66 523.79,-561.77 514.65,-567.14 519.99,-571.66"/>
</g>
<!-- ElementSize1 -->
<g id="node17" class="node">
<title>ElementSize1</title>
<ellipse fill="khaki" stroke="black" cx="669.5" cy="-1459.5" rx="71.2" ry="18"/>
<text text-anchor="middle" x="669.5" y="-1454.83" font-family="Helvetica,sans-Serif" font-size="14.00">ElementSize</text>
</g>
<!-- ElementSize1&#45;&gt;CylinderAbsorption1 -->
<g id="edge11" class="edge">
<title>ElementSize1&#45;&gt;CylinderAbsorption1</title>
<path fill="none" stroke="black" d="M681.36,-1441.31C687.02,-1433.12 693.91,-1423.12 700.22,-1413.98"/>
<polygon fill="black" stroke="black" points="703.09,-1415.99 705.89,-1405.77 697.33,-1412.02 703.09,-1415.99"/>
</g>
<!-- SampleLogs -->
<g id="node18" class="node">
<title>SampleLogs</title>
<ellipse fill="khaki" stroke="black" cx="270.5" cy="-234" rx="70.15" ry="18"/>
<text text-anchor="middle" x="270.5" y="-229.32" font-family="Helvetica,sans-Serif" font-size="14.00">SampleLogs</text>
</g>
<!-- AddSampleLogMultiple -->
<g id="node36" class="node">
<title>AddSampleLogMultiple</title>
<path fill="lightskyblue" stroke="black" d="M356.62,-180C356.62,-180 206.37,-180 206.37,-180 200.37,-180 194.37,-174 194.37,-168 194.37,-168 194.37,-156 194.37,-156 194.37,-150 200.37,-144 206.37,-144 206.37,-144 356.62,-144 356.62,-144 362.62,-144 368.62,-150 368.62,-156 368.62,-156 368.62,-168 368.62,-168 368.62,-174 362.62,-180 356.62,-180"/>
<text text-anchor="middle" x="281.5" y="-157.32" font-family="Helvetica,sans-Serif" font-size="14.00">AddSampleLogMultiple</text>
</g>
<!-- SampleLogs&#45;&gt;AddSampleLogMultiple -->
<g id="edge43" class="edge">
<title>SampleLogs&#45;&gt;AddSampleLogMultiple</title>
<path fill="none" stroke="black" d="M273.22,-215.7C274.38,-208.32 275.76,-199.52 277.06,-191.25"/>
<polygon fill="black" stroke="black" points="280.48,-192.02 278.58,-181.6 273.57,-190.93 280.48,-192.02"/>
</g>
<!-- EFixed1 -->
<g id="node19" class="node">
<title>EFixed1</title>
<ellipse fill="khaki" stroke="black" cx="768.5" cy="-1694.75" rx="41.74" ry="18"/>
<text text-anchor="middle" x="768.5" y="-1690.08" font-family="Helvetica,sans-Serif" font-size="14.00">eFixed</text>
</g>
<!-- EFixed1&#45;&gt;ConvertUnits1 -->
<g id="edge3" class="edge">
<title>EFixed1&#45;&gt;ConvertUnits1</title>
<path fill="none" stroke="black" d="M786.07,-1678.34C796.31,-1669.37 809.45,-1657.85 821.12,-1647.63"/>
<polygon fill="black" stroke="black" points="823.33,-1650.34 828.54,-1641.12 818.71,-1645.08 823.33,-1650.34"/>
</g>
<!-- EFixed1&#45;&gt;CylinderAbsorption1 -->
<g id="edge12" class="edge">
<title>EFixed1&#45;&gt;CylinderAbsorption1</title>
<path fill="none" stroke="black" d="M768.5,-1676.53C768.5,-1662.16 768.5,-1641.12 768.5,-1622.75 768.5,-1622.75 768.5,-1622.75 768.5,-1458.5 768.5,-1441.23 758.48,-1425.2 747.42,-1412.75"/>
<polygon fill="black" stroke="black" points="750.21,-1410.61 740.75,-1405.83 745.17,-1415.46 750.21,-1410.61"/>
</g>
<!-- EFixed2 -->
<g id="node20" class="node">
<title>EFixed2</title>
<ellipse fill="khaki" stroke="black" cx="702.5" cy="-1153.25" rx="41.74" ry="18"/>
<text text-anchor="middle" x="702.5" y="-1148.58" font-family="Helvetica,sans-Serif" font-size="14.00">eFixed</text>
</g>
<!-- EFixed2&#45;&gt;ConvertUnits2 -->
<g id="edge17" class="edge">
<title>EFixed2&#45;&gt;ConvertUnits2</title>
<path fill="none" stroke="black" d="M682.31,-1137.29C658.8,-1119.86 619.62,-1090.82 591.85,-1070.23"/>
<polygon fill="black" stroke="black" points="594.24,-1067.64 584.12,-1064.5 590.07,-1073.27 594.24,-1067.64"/>
</g>
<!-- OutputWorkspace -->
<g id="node21" class="node">
<title>OutputWorkspace</title>
<ellipse fill="khaki" stroke="black" cx="281.5" cy="-18" rx="98.56" ry="18"/>
<text text-anchor="middle" x="281.5" y="-13.32" font-family="Helvetica,sans-Serif" font-size="14.00">OutputWorkspace</text>
</g>
<!-- GetEFixed&#45;&gt;EFixed1 -->
<g id="edge2" class="edge">
<title>GetEFixed&#45;&gt;EFixed1</title>
<path fill="none" stroke="black" d="M772.26,-1748.45C771.74,-1741.16 771.12,-1732.48 770.54,-1724.29"/>
<polygon fill="black" stroke="black" points="774.03,-1724.09 769.83,-1714.36 767.05,-1724.59 774.03,-1724.09"/>
</g>
<!-- ConvertUnits1&#45;&gt;SampleWorkspace_Wave -->
<g id="edge5" class="edge">
<title>ConvertUnits1&#45;&gt;SampleWorkspace_Wave</title>
<path fill="none" stroke="black" d="M903.27,-1613.12C1006.21,-1598.52 1232.6,-1566.4 1364.23,-1547.73"/>
<polygon fill="black" stroke="black" points="1364.58,-1551.21 1373.99,-1546.34 1363.6,-1544.28 1364.58,-1551.21"/>
<text text-anchor="middle" x="1357" y="-1572.45" font-family="Helvetica,sans-Serif" font-size="14.00">Convert input workspace into Wavelength</text>
</g>
<!-- ConvertUnits2&#45;&gt;CanWorkspace_Wave -->
<g id="edge18" class="edge">
<title>ConvertUnits2&#45;&gt;CanWorkspace_Wave</title>
<path fill="none" stroke="black" d="M505.8,-1029.74C450.24,-1014.74 363.35,-991.27 303.37,-975.06"/>
<polygon fill="black" stroke="black" points="304.52,-971.75 293.96,-972.52 302.7,-978.51 304.52,-971.75"/>
<text text-anchor="middle" x="567.37" y="-995.95" font-family="Helvetica,sans-Serif" font-size="14.00">Convert can workspace into Wavelength</text>
</g>
<!-- ConvertUnits3&#45;&gt;AddSampleLogMultiple -->
<g id="edge42" class="edge">
<title>ConvertUnits3&#45;&gt;AddSampleLogMultiple</title>
<path fill="none" stroke="black" d="M379.78,-215.52C362.85,-206.47 341.98,-195.32 323.84,-185.62"/>
<polygon fill="black" stroke="black" points="325.6,-182.6 315.13,-180.97 322.3,-188.77 325.6,-182.6"/>
</g>
<!-- SetSampleMaterial1&#45;&gt;CylinderAbsorption1 -->
<g id="edge9" class="edge">
<title>SetSampleMaterial1&#45;&gt;CylinderAbsorption1</title>
<path fill="none" stroke="black" d="M1020.3,-1444.64C958.45,-1432.93 869.75,-1416.14 804.51,-1403.78"/>
<polygon fill="black" stroke="black" points="805.4,-1400.39 794.92,-1401.97 804.09,-1407.27 805.4,-1400.39"/>
</g>
<!-- SetSampleMaterial2&#45;&gt;CylinderAbsorption2 -->
<g id="edge27" class="edge">
<title>SetSampleMaterial2&#45;&gt;CylinderAbsorption2</title>
<path fill="none" stroke="black" d="M603.69,-613.26C592.08,-600.6 576.1,-583.17 563,-568.88"/>
<polygon fill="black" stroke="black" points="565.63,-566.57 556.29,-561.57 560.47,-571.3 565.63,-566.57"/>
</g>
<!-- Divide1 -->
<g id="node31" class="node">
<title>Divide1</title>
<path fill="lightskyblue" stroke="black" d="M557.25,-487.25C557.25,-487.25 521.75,-487.25 521.75,-487.25 515.75,-487.25 509.75,-481.25 509.75,-475.25 509.75,-475.25 509.75,-463.25 509.75,-463.25 509.75,-457.25 515.75,-451.25 521.75,-451.25 521.75,-451.25 557.25,-451.25 557.25,-451.25 563.25,-451.25 569.25,-457.25 569.25,-463.25 569.25,-463.25 569.25,-475.25 569.25,-475.25 569.25,-481.25 563.25,-487.25 557.25,-487.25"/>
<text text-anchor="middle" x="539.5" y="-464.57" font-family="Helvetica,sans-Serif" font-size="14.00">Divide</text>
</g>
<!-- SetSampleMaterial2&#45;&gt;Divide1 -->
<g id="edge30" class="edge">
<title>SetSampleMaterial2&#45;&gt;Divide1</title>
<path fill="none" stroke="black" d="M625.31,-613.08C631.59,-590.95 638.8,-552.28 623.5,-524.25 614.07,-506.99 596.5,-494.42 579.86,-485.77"/>
<polygon fill="black" stroke="black" points="581.59,-482.72 571.06,-481.55 578.56,-489.03 581.59,-482.72"/>
</g>
<!-- CylinderAbsorption1&#45;&gt;AbsWorkspace1 -->
<g id="edge13" class="edge">
<title>CylinderAbsorption1&#45;&gt;AbsWorkspace1</title>
<path fill="none" stroke="black" d="M718.5,-1368.2C718.5,-1360.91 718.5,-1352.23 718.5,-1344.04"/>
<polygon fill="black" stroke="black" points="722,-1344.12 718.5,-1334.12 715,-1344.12 722,-1344.12"/>
</g>
<!-- CylinderAbsorption2&#45;&gt;Divide1 -->
<g id="edge29" class="edge">
<title>CylinderAbsorption2&#45;&gt;Divide1</title>
<path fill="none" stroke="black" d="M539.5,-524.06C539.5,-516.48 539.5,-507.35 539.5,-498.79"/>
<polygon fill="black" stroke="black" points="543,-498.79 539.5,-488.79 536,-498.79 543,-498.79"/>
</g>
<!-- useCorrections -->
<g id="node40" class="node">
<title>useCorrections</title>
<polygon fill="limegreen" stroke="black" points="179.5,-738.75 47.56,-720.75 179.5,-702.75 311.44,-720.75 179.5,-738.75"/>
<text text-anchor="middle" x="179.5" y="-716.08" font-family="Helvetica,sans-Serif" font-size="14.00">Can Corrections?</text>
</g>
<!-- Scale&#45;&gt;useCorrections -->
<g id="edge22" class="edge">
<title>Scale&#45;&gt;useCorrections</title>
<path fill="none" stroke="black" d="M268.01,-775.92C251.43,-765.78 230.2,-752.79 212.69,-742.07"/>
<polygon fill="black" stroke="black" points="214.52,-739.08 204.17,-736.85 210.87,-745.06 214.52,-739.08"/>
</g>
<!-- Divide1&#45;&gt;Minus1 -->
<g id="edge31" class="edge">
<title>Divide1&#45;&gt;Minus1</title>
<path fill="none" stroke="black" d="M509.4,-451.42C492.07,-441.74 470.1,-429.45 451.47,-419.04"/>
<polygon fill="black" stroke="black" points="453.26,-416.03 442.83,-414.21 449.85,-422.14 453.26,-416.03"/>
</g>
<!-- Divide2&#45;&gt;SampleWorkspace_Wave2 -->
<g id="edge39" class="edge">
<title>Divide2&#45;&gt;SampleWorkspace_Wave2</title>
<path fill="none" stroke="black" d="M311.55,-378.96C329.22,-369.38 351.82,-357.13 371.16,-346.66"/>
<polygon fill="black" stroke="black" points="372.76,-349.77 379.89,-341.93 369.43,-343.61 372.76,-349.77"/>
</g>
<!-- Divide3 -->
<g id="node33" class="node">
<title>Divide3</title>
<path fill="lightskyblue" stroke="black" d="M828.25,-1117.25C828.25,-1117.25 792.75,-1117.25 792.75,-1117.25 786.75,-1117.25 780.75,-1111.25 780.75,-1105.25 780.75,-1105.25 780.75,-1093.25 780.75,-1093.25 780.75,-1087.25 786.75,-1081.25 792.75,-1081.25 792.75,-1081.25 828.25,-1081.25 828.25,-1081.25 834.25,-1081.25 840.25,-1087.25 840.25,-1093.25 840.25,-1093.25 840.25,-1105.25 840.25,-1105.25 840.25,-1111.25 834.25,-1117.25 828.25,-1117.25"/>
<text text-anchor="middle" x="810.5" y="-1094.58" font-family="Helvetica,sans-Serif" font-size="14.00">Divide</text>
</g>
<!-- Divide3&#45;&gt;SampleWorkspace_Wave2 -->
<g id="edge40" class="edge">
<title>Divide3&#45;&gt;SampleWorkspace_Wave2</title>
<path fill="none" stroke="black" d="M814.26,-1080.89C818.1,-1061.62 823.5,-1029.55 823.5,-1001.62 823.5,-1001.62 823.5,-1001.62 823.5,-395.25 823.5,-365.78 657.3,-345.08 536.27,-333.91"/>
<polygon fill="black" stroke="black" points="536.86,-330.45 526.58,-333.03 536.23,-337.42 536.86,-330.45"/>
</g>
<!-- Minus1&#45;&gt;SampleWorkspace_Wave2 -->
<g id="edge38" class="edge">
<title>Minus1&#45;&gt;SampleWorkspace_Wave2</title>
<path fill="none" stroke="black" d="M412.5,-378.06C412.5,-370.48 412.5,-361.35 412.5,-352.79"/>
<polygon fill="black" stroke="black" points="416,-352.79 412.5,-342.79 409,-352.79 416,-352.79"/>
</g>
<!-- Minus2&#45;&gt;Divide2 -->
<g id="edge35" class="edge">
<title>Minus2&#45;&gt;Divide2</title>
<path fill="none" stroke="black" d="M281.5,-451.06C281.5,-443.48 281.5,-434.35 281.5,-425.79"/>
<polygon fill="black" stroke="black" points="285,-425.79 281.5,-415.79 278,-425.79 285,-425.79"/>
</g>
<!-- GroupWorkspaces -->
<g id="node37" class="node">
<title>GroupWorkspaces</title>
<path fill="lightskyblue" stroke="black" d="M340.12,-108C340.12,-108 222.87,-108 222.87,-108 216.87,-108 210.87,-102 210.87,-96 210.87,-96 210.87,-84 210.87,-84 210.87,-78 216.87,-72 222.87,-72 222.87,-72 340.12,-72 340.12,-72 346.12,-72 352.12,-78 352.12,-84 352.12,-84 352.12,-96 352.12,-96 352.12,-102 346.12,-108 340.12,-108"/>
<text text-anchor="middle" x="281.5" y="-85.33" font-family="Helvetica,sans-Serif" font-size="14.00">GroupWorkspaces</text>
</g>
<!-- AddSampleLogMultiple&#45;&gt;GroupWorkspaces -->
<g id="edge44" class="edge">
<title>AddSampleLogMultiple&#45;&gt;GroupWorkspaces</title>
<path fill="none" stroke="black" d="M281.5,-143.7C281.5,-136.41 281.5,-127.73 281.5,-119.54"/>
<polygon fill="black" stroke="black" points="285,-119.62 281.5,-109.62 278,-119.62 285,-119.62"/>
</g>
<!-- GroupWorkspaces&#45;&gt;OutputWorkspace -->
<g id="edge45" class="edge">
<title>GroupWorkspaces&#45;&gt;OutputWorkspace</title>
<path fill="none" stroke="black" d="M281.5,-71.7C281.5,-64.41 281.5,-55.73 281.5,-47.54"/>
<polygon fill="black" stroke="black" points="285,-47.62 281.5,-37.62 278,-47.62 285,-47.62"/>
</g>
<!-- canGiven&#45;&gt;CanWorkspace -->
<g id="edge15" class="edge">
<title>canGiven&#45;&gt;CanWorkspace</title>
<path fill="none" stroke="black" d="M693.3,-1227.67C668,-1213.79 628.65,-1192.19 599.15,-1176.01"/>
<polygon fill="black" stroke="black" points="600.95,-1173 590.5,-1171.26 597.58,-1179.14 600.95,-1173"/>
<text text-anchor="middle" x="663.75" y="-1193.2" font-family="Helvetica,sans-Serif" font-size="14.00">Yes</text>
</g>
<!-- canGiven&#45;&gt;Divide3 -->
<g id="edge37" class="edge">
<title>canGiven&#45;&gt;Divide3</title>
<path fill="none" stroke="black" d="M728.87,-1225.57C744.43,-1201.69 773.98,-1156.32 792.94,-1127.21"/>
<polygon fill="black" stroke="black" points="795.81,-1129.22 798.33,-1118.93 789.94,-1125.4 795.81,-1129.22"/>
<text text-anchor="middle" x="759.87" y="-1193.2" font-family="Helvetica,sans-Serif" font-size="14.00">No</text>
</g>
<!-- canScale&#45;&gt;Scale -->
<g id="edge20" class="edge">
<title>canScale&#45;&gt;Scale</title>
<path fill="none" stroke="black" d="M166.4,-866.89C175.42,-855.34 189.15,-839.76 204.25,-829.75 223.67,-816.88 231.75,-820.12 253.5,-811.75 255.01,-811.17 256.55,-810.57 258.11,-809.96"/>
<polygon fill="black" stroke="black" points="259.03,-813.36 267.03,-806.42 256.45,-806.85 259.03,-813.36"/>
<text text-anchor="middle" x="253.62" y="-833.7" font-family="Helvetica,sans-Serif" font-size="14.00">Not equal to 1</text>
</g>
<!-- canScale&#45;&gt;useCorrections -->
<g id="edge23" class="edge">
<title>canScale&#45;&gt;useCorrections</title>
<path fill="none" stroke="black" d="M160.75,-865.76C162.48,-859.9 164.27,-853.2 165.5,-847 171.98,-814.16 175.71,-775.85 177.67,-750.33"/>
<polygon fill="black" stroke="black" points="181.15,-750.64 178.38,-740.42 174.17,-750.14 181.15,-750.64"/>
<text text-anchor="middle" x="210.75" y="-789.08" font-family="Helvetica,sans-Serif" font-size="14.00">Equal to 1</text>
</g>
<!-- useCorrections&#45;&gt;SetSampleMaterial2 -->
<g id="edge24" class="edge">
<title>useCorrections&#45;&gt;SetSampleMaterial2</title>
<path fill="none" stroke="black" d="M232.61,-709.51C300.35,-696.41 421.44,-672.86 535.2,-649.95"/>
<polygon fill="black" stroke="black" points="535.59,-653.44 544.7,-648.04 534.21,-646.58 535.59,-653.44"/>
<text text-anchor="middle" x="450.75" y="-671.45" font-family="Helvetica,sans-Serif" font-size="14.00">Yes</text>
</g>
<!-- useCorrections&#45;&gt;Minus2 -->
<g id="edge33" class="edge">
<title>useCorrections&#45;&gt;Minus2</title>
<path fill="none" stroke="black" d="M192.16,-704.15C196.32,-698.35 200.62,-691.53 203.5,-684.75 231.99,-617.73 204.9,-589.86 236.5,-524.25 241.32,-514.24 248.4,-504.52 255.53,-496.14"/>
<polygon fill="black" stroke="black" points="258.08,-498.54 262.17,-488.77 252.88,-493.86 258.08,-498.54"/>
<text text-anchor="middle" x="229.87" y="-582.2" font-family="Helvetica,sans-Serif" font-size="14.00">No</text>
</g>
</g>
</svg>
