<?xml version="1.0" encoding="UTF-8" standalone="no"?>
<!DOCTYPE svg PUBLIC "-//W3C//DTD SVG 1.1//EN"
 "http://www.w3.org/Graphics/SVG/1.1/DTD/svg11.dtd">
<!-- Generated by graphviz version 11.0.0 (20240519.1550)
 -->
<!-- Title: IndirectFlatePlateAbsorption Pages: 1 -->
<svg width="1563pt" height="1856pt"
 viewBox="0.00 0.00 1563.43 1856.00" xmlns="http://www.w3.org/2000/svg" xmlns:xlink="http://www.w3.org/1999/xlink">
<g id="graph0" class="graph" transform="scale(1 1) rotate(0) translate(4 1852)">
<title>IndirectFlatePlateAbsorption</title>
<polygon fill="white" stroke="none" points="-4,4 -4,-1852 1559.43,-1852 1559.43,4 -4,4"/>
<text text-anchor="middle" x="777.71" y="-1830.7" font-family="Helvetica,sans-Serif" font-size="14.00">IndirectFlatePlateAbsorption Flowchart</text>
<!-- SampleWorkspace1 -->
<g id="node1" class="node">
<title>SampleWorkspace1</title>
<ellipse fill="khaki" stroke="black" cx="767.62" cy="-1804.75" rx="100.66" ry="18"/>
<text text-anchor="middle" x="767.62" y="-1800.08" font-family="Helvetica,sans-Serif" font-size="14.00">SampleWorkspace</text>
</g>
<!-- GetEFixed -->
<g id="node25" class="node">
<title>GetEFixed</title>
<path fill="lightskyblue" stroke="black" d="M762.74,-1749.75C762.74,-1749.75 702.49,-1749.75 702.49,-1749.75 696.49,-1749.75 690.49,-1743.75 690.49,-1737.75 690.49,-1737.75 690.49,-1725.75 690.49,-1725.75 690.49,-1719.75 696.49,-1713.75 702.49,-1713.75 702.49,-1713.75 762.74,-1713.75 762.74,-1713.75 768.74,-1713.75 774.74,-1719.75 774.74,-1725.75 774.74,-1725.75 774.74,-1737.75 774.74,-1737.75 774.74,-1743.75 768.74,-1749.75 762.74,-1749.75"/>
<text text-anchor="middle" x="732.62" y="-1727.08" font-family="Helvetica,sans-Serif" font-size="14.00">GetEFixed</text>
</g>
<!-- SampleWorkspace1&#45;&gt;GetEFixed -->
<g id="edge1" class="edge">
<title>SampleWorkspace1&#45;&gt;GetEFixed</title>
<path fill="none" stroke="black" d="M759.15,-1786.56C755.19,-1778.54 750.39,-1768.8 745.96,-1759.82"/>
<polygon fill="black" stroke="black" points="749.24,-1758.56 741.68,-1751.14 742.96,-1761.65 749.24,-1758.56"/>
</g>
<!-- ConvertUnits1 -->
<g id="node26" class="node">
<title>ConvertUnits1</title>
<path fill="lightskyblue" stroke="black" d="M849.99,-1604.75C849.99,-1604.75 767.24,-1604.75 767.24,-1604.75 761.24,-1604.75 755.24,-1598.75 755.24,-1592.75 755.24,-1592.75 755.24,-1580.75 755.24,-1580.75 755.24,-1574.75 761.24,-1568.75 767.24,-1568.75 767.24,-1568.75 849.99,-1568.75 849.99,-1568.75 855.99,-1568.75 861.99,-1574.75 861.99,-1580.75 861.99,-1580.75 861.99,-1592.75 861.99,-1592.75 861.99,-1598.75 855.99,-1604.75 849.99,-1604.75"/>
<text text-anchor="middle" x="808.62" y="-1582.08" font-family="Helvetica,sans-Serif" font-size="14.00">ConvertUnits</text>
</g>
<!-- SampleWorkspace1&#45;&gt;ConvertUnits1 -->
<g id="edge4" class="edge">
<title>SampleWorkspace1&#45;&gt;ConvertUnits1</title>
<path fill="none" stroke="black" d="M773.41,-1786.4C776.75,-1775.88 780.84,-1762.15 783.62,-1749.75 794,-1703.46 801.46,-1648.76 805.4,-1616.23"/>
<polygon fill="black" stroke="black" points="808.87,-1616.76 806.56,-1606.42 801.91,-1615.94 808.87,-1616.76"/>
</g>
<!-- SampleWorkspace2 -->
<g id="node2" class="node">
<title>SampleWorkspace2</title>
<ellipse fill="khaki" stroke="black" cx="401.62" cy="-542.25" rx="100.66" ry="18"/>
<text text-anchor="middle" x="401.62" y="-537.58" font-family="Helvetica,sans-Serif" font-size="14.00">SampleWorkspace</text>
</g>
<!-- Minus1 -->
<g id="node37" class="node">
<title>Minus1</title>
<path fill="lightskyblue" stroke="black" d="M485.24,-414.25C485.24,-414.25 451.99,-414.25 451.99,-414.25 445.99,-414.25 439.99,-408.25 439.99,-402.25 439.99,-402.25 439.99,-390.25 439.99,-390.25 439.99,-384.25 445.99,-378.25 451.99,-378.25 451.99,-378.25 485.24,-378.25 485.24,-378.25 491.24,-378.25 497.24,-384.25 497.24,-390.25 497.24,-390.25 497.24,-402.25 497.24,-402.25 497.24,-408.25 491.24,-414.25 485.24,-414.25"/>
<text text-anchor="middle" x="468.62" y="-391.57" font-family="Helvetica,sans-Serif" font-size="14.00">Minus</text>
</g>
<!-- SampleWorkspace2&#45;&gt;Minus1 -->
<g id="edge35" class="edge">
<title>SampleWorkspace2&#45;&gt;Minus1</title>
<path fill="none" stroke="black" d="M408.02,-523.91C410.31,-517.95 412.98,-511.27 415.62,-505.25 427.82,-477.44 443.27,-446.37 454.33,-424.72"/>
<polygon fill="black" stroke="black" points="457.37,-426.46 458.83,-415.96 451.15,-423.26 457.37,-426.46"/>
</g>
<!-- Minus2 -->
<g id="node38" class="node">
<title>Minus2</title>
<path fill="lightskyblue" stroke="black" d="M353.24,-487.25C353.24,-487.25 319.99,-487.25 319.99,-487.25 313.99,-487.25 307.99,-481.25 307.99,-475.25 307.99,-475.25 307.99,-463.25 307.99,-463.25 307.99,-457.25 313.99,-451.25 319.99,-451.25 319.99,-451.25 353.24,-451.25 353.24,-451.25 359.24,-451.25 365.24,-457.25 365.24,-463.25 365.24,-463.25 365.24,-475.25 365.24,-475.25 365.24,-481.25 359.24,-487.25 353.24,-487.25"/>
<text text-anchor="middle" x="336.62" y="-464.57" font-family="Helvetica,sans-Serif" font-size="14.00">Minus</text>
</g>
<!-- SampleWorkspace2&#45;&gt;Minus2 -->
<g id="edge37" class="edge">
<title>SampleWorkspace2&#45;&gt;Minus2</title>
<path fill="none" stroke="black" d="M385.88,-524.06C378.06,-515.52 368.45,-505.02 359.8,-495.57"/>
<polygon fill="black" stroke="black" points="362.56,-493.41 353.23,-488.4 357.4,-498.13 362.56,-493.41"/>
</g>
<!-- SampleWorkspace_Wave -->
<g id="node3" class="node">
<title>SampleWorkspace_Wave</title>
<ellipse fill="khaki" stroke="black" cx="877.62" cy="-1497.5" rx="131.7" ry="18"/>
<text text-anchor="middle" x="877.62" y="-1492.83" font-family="Helvetica,sans-Serif" font-size="14.00">SampleWorkspace_Wave</text>
</g>
<!-- SetSampleMaterial1 -->
<g id="node29" class="node">
<title>SetSampleMaterial1</title>
<path fill="lightskyblue" stroke="black" d="M1143.49,-1442.5C1143.49,-1442.5 1021.74,-1442.5 1021.74,-1442.5 1015.74,-1442.5 1009.74,-1436.5 1009.74,-1430.5 1009.74,-1430.5 1009.74,-1418.5 1009.74,-1418.5 1009.74,-1412.5 1015.74,-1406.5 1021.74,-1406.5 1021.74,-1406.5 1143.49,-1406.5 1143.49,-1406.5 1149.49,-1406.5 1155.49,-1412.5 1155.49,-1418.5 1155.49,-1418.5 1155.49,-1430.5 1155.49,-1430.5 1155.49,-1436.5 1149.49,-1442.5 1143.49,-1442.5"/>
<text text-anchor="middle" x="1082.62" y="-1419.83" font-family="Helvetica,sans-Serif" font-size="14.00">SetSampleMaterial</text>
</g>
<!-- SampleWorkspace_Wave&#45;&gt;SetSampleMaterial1 -->
<g id="edge6" class="edge">
<title>SampleWorkspace_Wave&#45;&gt;SetSampleMaterial1</title>
<path fill="none" stroke="black" d="M924.65,-1480.21C953.41,-1470.25 990.51,-1457.4 1021.53,-1446.66"/>
<polygon fill="black" stroke="black" points="1022.49,-1450.03 1030.79,-1443.45 1020.2,-1443.41 1022.49,-1450.03"/>
</g>
<!-- SampleWorkspace_Wave2 -->
<g id="node4" class="node">
<title>SampleWorkspace_Wave2</title>
<ellipse fill="khaki" stroke="black" cx="468.62" cy="-323.25" rx="131.7" ry="18"/>
<text text-anchor="middle" x="468.62" y="-318.57" font-family="Helvetica,sans-Serif" font-size="14.00">SampleWorkspace_Wave</text>
</g>
<!-- ConvertUnits3 -->
<g id="node28" class="node">
<title>ConvertUnits3</title>
<path fill="lightskyblue" stroke="black" d="M509.99,-252C509.99,-252 427.24,-252 427.24,-252 421.24,-252 415.24,-246 415.24,-240 415.24,-240 415.24,-228 415.24,-228 415.24,-222 421.24,-216 427.24,-216 427.24,-216 509.99,-216 509.99,-216 515.99,-216 521.99,-222 521.99,-228 521.99,-228 521.99,-240 521.99,-240 521.99,-246 515.99,-252 509.99,-252"/>
<text text-anchor="middle" x="468.62" y="-229.32" font-family="Helvetica,sans-Serif" font-size="14.00">ConvertUnits</text>
</g>
<!-- SampleWorkspace_Wave2&#45;&gt;ConvertUnits3 -->
<g id="edge45" class="edge">
<title>SampleWorkspace_Wave2&#45;&gt;ConvertUnits3</title>
<path fill="none" stroke="black" d="M468.62,-305.01C468.62,-293.18 468.62,-277.2 468.62,-263.5"/>
<polygon fill="black" stroke="black" points="472.12,-263.72 468.62,-253.72 465.12,-263.72 472.12,-263.72"/>
<text text-anchor="middle" x="548.49" y="-273.95" font-family="Helvetica,sans-Serif" font-size="14.00">Convert back to DeltaE</text>
</g>
<!-- SampleWorkspace_Wave3 -->
<g id="node5" class="node">
<title>SampleWorkspace_Wave3</title>
<ellipse fill="khaki" stroke="black" cx="877.62" cy="-1207.5" rx="131.7" ry="18"/>
<text text-anchor="middle" x="877.62" y="-1202.83" font-family="Helvetica,sans-Serif" font-size="14.00">SampleWorkspace_Wave</text>
</g>
<!-- Divide3 -->
<g id="node36" class="node">
<title>Divide3</title>
<path fill="lightskyblue" stroke="black" d="M895.37,-1136.25C895.37,-1136.25 859.87,-1136.25 859.87,-1136.25 853.87,-1136.25 847.87,-1130.25 847.87,-1124.25 847.87,-1124.25 847.87,-1112.25 847.87,-1112.25 847.87,-1106.25 853.87,-1100.25 859.87,-1100.25 859.87,-1100.25 895.37,-1100.25 895.37,-1100.25 901.37,-1100.25 907.37,-1106.25 907.37,-1112.25 907.37,-1112.25 907.37,-1124.25 907.37,-1124.25 907.37,-1130.25 901.37,-1136.25 895.37,-1136.25"/>
<text text-anchor="middle" x="877.62" y="-1113.58" font-family="Helvetica,sans-Serif" font-size="14.00">Divide</text>
</g>
<!-- SampleWorkspace_Wave3&#45;&gt;Divide3 -->
<g id="edge41" class="edge">
<title>SampleWorkspace_Wave3&#45;&gt;Divide3</title>
<path fill="none" stroke="black" d="M877.62,-1189.26C877.62,-1177.43 877.62,-1161.45 877.62,-1147.75"/>
<polygon fill="black" stroke="black" points="881.12,-1147.97 877.62,-1137.97 874.12,-1147.97 881.12,-1147.97"/>
</g>
<!-- SampleChemicalFormula -->
<g id="node6" class="node">
<title>SampleChemicalFormula</title>
<ellipse fill="khaki" stroke="black" cx="1158.62" cy="-1497.5" rx="131.18" ry="18"/>
<text text-anchor="middle" x="1158.62" y="-1492.83" font-family="Helvetica,sans-Serif" font-size="14.00">SampleChemicalFormula</text>
</g>
<!-- SampleChemicalFormula&#45;&gt;SetSampleMaterial1 -->
<g id="edge7" class="edge">
<title>SampleChemicalFormula&#45;&gt;SetSampleMaterial1</title>
<path fill="none" stroke="black" d="M1140.22,-1479.31C1130.95,-1470.66 1119.55,-1460 1109.33,-1450.46"/>
<polygon fill="black" stroke="black" points="1111.91,-1448.08 1102.22,-1443.81 1107.13,-1453.19 1111.91,-1448.08"/>
</g>
<!-- SampleNumberDensity -->
<g id="node7" class="node">
<title>SampleNumberDensity</title>
<ellipse fill="khaki" stroke="black" cx="1431.62" cy="-1497.5" rx="123.81" ry="18"/>
<text text-anchor="middle" x="1431.62" y="-1492.83" font-family="Helvetica,sans-Serif" font-size="14.00">SampleNumberDensity</text>
</g>
<!-- SampleNumberDensity&#45;&gt;SetSampleMaterial1 -->
<g id="edge8" class="edge">
<title>SampleNumberDensity&#45;&gt;SetSampleMaterial1</title>
<path fill="none" stroke="black" d="M1361.83,-1482.3C1305.77,-1470.9 1226.82,-1454.84 1167.17,-1442.7"/>
<polygon fill="black" stroke="black" points="1167.87,-1439.27 1157.38,-1440.71 1166.48,-1446.13 1167.87,-1439.27"/>
</g>
<!-- SampleHeight1 -->
<g id="node8" class="node">
<title>SampleHeight1</title>
<ellipse fill="khaki" stroke="black" cx="79.62" cy="-1424.5" rx="79.62" ry="18"/>
<text text-anchor="middle" x="79.62" y="-1419.83" font-family="Helvetica,sans-Serif" font-size="14.00">SampleHeight</text>
</g>
<!-- FlatPlateAbsorption1 -->
<g id="node31" class="node">
<title>FlatPlateAbsorption1</title>
<path fill="lightskyblue" stroke="black" d="M599.12,-1369.5C599.12,-1369.5 472.12,-1369.5 472.12,-1369.5 466.12,-1369.5 460.12,-1363.5 460.12,-1357.5 460.12,-1357.5 460.12,-1345.5 460.12,-1345.5 460.12,-1339.5 466.12,-1333.5 472.12,-1333.5 472.12,-1333.5 599.12,-1333.5 599.12,-1333.5 605.12,-1333.5 611.12,-1339.5 611.12,-1345.5 611.12,-1345.5 611.12,-1357.5 611.12,-1357.5 611.12,-1363.5 605.12,-1369.5 599.12,-1369.5"/>
<text text-anchor="middle" x="535.62" y="-1346.83" font-family="Helvetica,sans-Serif" font-size="14.00">FlatePlatAbsorption</text>
</g>
<!-- SampleHeight1&#45;&gt;FlatPlateAbsorption1 -->
<g id="edge10" class="edge">
<title>SampleHeight1&#45;&gt;FlatPlateAbsorption1</title>
<path fill="none" stroke="black" d="M137.96,-1411.99C148.17,-1410.08 158.69,-1408.18 168.62,-1406.5 264.2,-1390.35 374.26,-1374.52 448.73,-1364.22"/>
<polygon fill="black" stroke="black" points="448.98,-1367.72 458.41,-1362.89 448.03,-1360.78 448.98,-1367.72"/>
</g>
<!-- SampleWidth1 -->
<g id="node9" class="node">
<title>SampleWidth1</title>
<ellipse fill="khaki" stroke="black" cx="253.62" cy="-1424.5" rx="75.94" ry="18"/>
<text text-anchor="middle" x="253.62" y="-1419.83" font-family="Helvetica,sans-Serif" font-size="14.00">SampleWidth</text>
</g>
<!-- SampleWidth1&#45;&gt;FlatPlateAbsorption1 -->
<g id="edge11" class="edge">
<title>SampleWidth1&#45;&gt;FlatPlateAbsorption1</title>
<path fill="none" stroke="black" d="M304.36,-1410.72C346.29,-1400.17 406.58,-1384.99 455.1,-1372.77"/>
<polygon fill="black" stroke="black" points="455.89,-1376.18 464.74,-1370.35 454.18,-1369.39 455.89,-1376.18"/>
</g>
<!-- SampleThickness -->
<g id="node10" class="node">
<title>SampleThickness</title>
<ellipse fill="khaki" stroke="black" cx="443.62" cy="-1424.5" rx="95.93" ry="18"/>
<text text-anchor="middle" x="443.62" y="-1419.83" font-family="Helvetica,sans-Serif" font-size="14.00">SampleThickness</text>
</g>
<!-- SampleThickness&#45;&gt;FlatPlateAbsorption1 -->
<g id="edge12" class="edge">
<title>SampleThickness&#45;&gt;FlatPlateAbsorption1</title>
<path fill="none" stroke="black" d="M465.42,-1406.67C476.97,-1397.76 491.35,-1386.66 504.09,-1376.83"/>
<polygon fill="black" stroke="black" points="506.03,-1379.75 511.81,-1370.87 501.76,-1374.21 506.03,-1379.75"/>
</g>
<!-- AbsWorkspace1 -->
<g id="node11" class="node">
<title>AbsWorkspace1</title>
<ellipse fill="khaki" stroke="black" cx="535.62" cy="-1279.5" rx="117.5" ry="18"/>
<text text-anchor="middle" x="535.62" y="-1274.83" font-family="Helvetica,sans-Serif" font-size="14.00">AbsorptionWorkspace</text>
</g>
<!-- canGiven -->
<g id="node41" class="node">
<title>canGiven</title>
<polygon fill="limegreen" stroke="black" points="535.62,-1225.5 405.91,-1207.5 535.62,-1189.5 665.33,-1207.5 535.62,-1225.5"/>
<text text-anchor="middle" x="535.62" y="-1202.83" font-family="Helvetica,sans-Serif" font-size="14.00">Can Workspace?</text>
</g>
<!-- AbsWorkspace1&#45;&gt;canGiven -->
<g id="edge16" class="edge">
<title>AbsWorkspace1&#45;&gt;canGiven</title>
<path fill="none" stroke="black" d="M535.62,-1261.2C535.62,-1253.91 535.62,-1245.23 535.62,-1237.04"/>
<polygon fill="black" stroke="black" points="539.12,-1237.12 535.62,-1227.12 532.12,-1237.12 539.12,-1237.12"/>
</g>
<!-- AbsWorkspace2 -->
<g id="node12" class="node">
<title>AbsWorkspace2</title>
<ellipse fill="khaki" stroke="black" cx="172.62" cy="-469.25" rx="117.5" ry="18"/>
<text text-anchor="middle" x="172.62" y="-464.57" font-family="Helvetica,sans-Serif" font-size="14.00">AbsorptionWorkspace</text>
</g>
<!-- Divide2 -->
<g id="node35" class="node">
<title>Divide2</title>
<path fill="lightskyblue" stroke="black" d="M354.37,-414.25C354.37,-414.25 318.87,-414.25 318.87,-414.25 312.87,-414.25 306.87,-408.25 306.87,-402.25 306.87,-402.25 306.87,-390.25 306.87,-390.25 306.87,-384.25 312.87,-378.25 318.87,-378.25 318.87,-378.25 354.37,-378.25 354.37,-378.25 360.37,-378.25 366.37,-384.25 366.37,-390.25 366.37,-390.25 366.37,-402.25 366.37,-402.25 366.37,-408.25 360.37,-414.25 354.37,-414.25"/>
<text text-anchor="middle" x="336.62" y="-391.57" font-family="Helvetica,sans-Serif" font-size="14.00">Divide</text>
</g>
<!-- AbsWorkspace2&#45;&gt;Divide2 -->
<g id="edge39" class="edge">
<title>AbsWorkspace2&#45;&gt;Divide2</title>
<path fill="none" stroke="black" d="M210.66,-451.78C236.27,-440.69 270.01,-426.09 296.12,-414.78"/>
<polygon fill="black" stroke="black" points="297.27,-418.1 305.05,-410.92 294.49,-411.68 297.27,-418.1"/>
</g>
<!-- CanWorkspace -->
<g id="node13" class="node">
<title>CanWorkspace</title>
<ellipse fill="khaki" stroke="black" cx="386.62" cy="-1118.25" rx="83.3" ry="18"/>
<text text-anchor="middle" x="386.62" y="-1113.58" font-family="Helvetica,sans-Serif" font-size="14.00">CanWorkspace</text>
</g>
<!-- ConvertUnits2 -->
<g id="node27" class="node">
<title>ConvertUnits2</title>
<path fill="lightskyblue" stroke="black" d="M253.99,-1063.25C253.99,-1063.25 171.24,-1063.25 171.24,-1063.25 165.24,-1063.25 159.24,-1057.25 159.24,-1051.25 159.24,-1051.25 159.24,-1039.25 159.24,-1039.25 159.24,-1033.25 165.24,-1027.25 171.24,-1027.25 171.24,-1027.25 253.99,-1027.25 253.99,-1027.25 259.99,-1027.25 265.99,-1033.25 265.99,-1039.25 265.99,-1039.25 265.99,-1051.25 265.99,-1051.25 265.99,-1057.25 259.99,-1063.25 253.99,-1063.25"/>
<text text-anchor="middle" x="212.62" y="-1040.58" font-family="Helvetica,sans-Serif" font-size="14.00">ConvertUnits</text>
</g>
<!-- CanWorkspace&#45;&gt;ConvertUnits2 -->
<g id="edge18" class="edge">
<title>CanWorkspace&#45;&gt;ConvertUnits2</title>
<path fill="none" stroke="black" d="M348.86,-1101.84C324.6,-1091.94 292.71,-1078.93 265.89,-1067.99"/>
<polygon fill="black" stroke="black" points="267.48,-1064.86 256.9,-1064.32 264.84,-1071.34 267.48,-1064.86"/>
</g>
<!-- CanWorkspace_Wave -->
<g id="node14" class="node">
<title>CanWorkspace_Wave</title>
<ellipse fill="khaki" stroke="black" cx="185.62" cy="-956" rx="114.34" ry="18"/>
<text text-anchor="middle" x="185.62" y="-951.33" font-family="Helvetica,sans-Serif" font-size="14.00">CanWorkspace_Wave</text>
</g>
<!-- canScale -->
<g id="node42" class="node">
<title>canScale</title>
<polygon fill="limegreen" stroke="black" points="173.62,-901 82.6,-883 173.62,-865 264.64,-883 173.62,-901"/>
<text text-anchor="middle" x="173.62" y="-878.33" font-family="Helvetica,sans-Serif" font-size="14.00">Can Scale?</text>
</g>
<!-- CanWorkspace_Wave&#45;&gt;canScale -->
<g id="edge21" class="edge">
<title>CanWorkspace_Wave&#45;&gt;canScale</title>
<path fill="none" stroke="black" d="M182.71,-937.81C181.4,-930.03 179.81,-920.62 178.33,-911.86"/>
<polygon fill="black" stroke="black" points="181.78,-911.31 176.67,-902.03 174.88,-912.48 181.78,-911.31"/>
</g>
<!-- CanScale -->
<g id="node15" class="node">
<title>CanScale</title>
<ellipse fill="khaki" stroke="black" cx="338.62" cy="-883" rx="55.94" ry="18"/>
<text text-anchor="middle" x="338.62" y="-878.33" font-family="Helvetica,sans-Serif" font-size="14.00">CanScale</text>
</g>
<!-- Scale -->
<g id="node33" class="node">
<title>Scale</title>
<path fill="lightskyblue" stroke="black" d="M351.62,-811.75C351.62,-811.75 321.62,-811.75 321.62,-811.75 315.62,-811.75 309.62,-805.75 309.62,-799.75 309.62,-799.75 309.62,-787.75 309.62,-787.75 309.62,-781.75 315.62,-775.75 321.62,-775.75 321.62,-775.75 351.62,-775.75 351.62,-775.75 357.62,-775.75 363.62,-781.75 363.62,-787.75 363.62,-787.75 363.62,-799.75 363.62,-799.75 363.62,-805.75 357.62,-811.75 351.62,-811.75"/>
<text text-anchor="middle" x="336.62" y="-789.08" font-family="Helvetica,sans-Serif" font-size="14.00">Scale</text>
</g>
<!-- CanScale&#45;&gt;Scale -->
<g id="edge23" class="edge">
<title>CanScale&#45;&gt;Scale</title>
<path fill="none" stroke="black" d="M338.22,-864.76C337.95,-852.93 337.59,-836.95 337.27,-823.25"/>
<polygon fill="black" stroke="black" points="340.78,-823.38 337.05,-813.47 333.78,-823.54 340.78,-823.38"/>
</g>
<!-- CanChemicalFormula -->
<g id="node16" class="node">
<title>CanChemicalFormula</title>
<ellipse fill="khaki" stroke="black" cx="508.62" cy="-720.75" rx="113.82" ry="18"/>
<text text-anchor="middle" x="508.62" y="-716.08" font-family="Helvetica,sans-Serif" font-size="14.00">CanChemicalFormula</text>
</g>
<!-- SetSampleMaterial2 -->
<g id="node30" class="node">
<title>SetSampleMaterial2</title>
<path fill="lightskyblue" stroke="black" d="M828.49,-649.5C828.49,-649.5 706.74,-649.5 706.74,-649.5 700.74,-649.5 694.74,-643.5 694.74,-637.5 694.74,-637.5 694.74,-625.5 694.74,-625.5 694.74,-619.5 700.74,-613.5 706.74,-613.5 706.74,-613.5 828.49,-613.5 828.49,-613.5 834.49,-613.5 840.49,-619.5 840.49,-625.5 840.49,-625.5 840.49,-637.5 840.49,-637.5 840.49,-643.5 834.49,-649.5 828.49,-649.5"/>
<text text-anchor="middle" x="767.62" y="-626.83" font-family="Helvetica,sans-Serif" font-size="14.00">SetSampleMaterial</text>
</g>
<!-- CanChemicalFormula&#45;&gt;SetSampleMaterial2 -->
<g id="edge27" class="edge">
<title>CanChemicalFormula&#45;&gt;SetSampleMaterial2</title>
<path fill="none" stroke="black" d="M555.52,-703.95C597.36,-689.86 658.93,-669.11 704.97,-653.6"/>
<polygon fill="black" stroke="black" points="705.93,-656.97 714.29,-650.46 703.7,-650.34 705.93,-656.97"/>
</g>
<!-- CanNumberDensity -->
<g id="node17" class="node">
<title>CanNumberDensity</title>
<ellipse fill="khaki" stroke="black" cx="746.62" cy="-720.75" rx="106.45" ry="18"/>
<text text-anchor="middle" x="746.62" y="-716.08" font-family="Helvetica,sans-Serif" font-size="14.00">CanNumberDensity</text>
</g>
<!-- CanNumberDensity&#45;&gt;SetSampleMaterial2 -->
<g id="edge28" class="edge">
<title>CanNumberDensity&#45;&gt;SetSampleMaterial2</title>
<path fill="none" stroke="black" d="M750.77,-702.51C753.64,-690.56 757.54,-674.38 760.86,-660.58"/>
<polygon fill="black" stroke="black" points="764.19,-661.71 763.12,-651.17 757.38,-660.08 764.19,-661.71"/>
</g>
<!-- CanFrontThickness -->
<g id="node18" class="node">
<title>CanFrontThickness</title>
<ellipse fill="khaki" stroke="black" cx="351.62" cy="-631.5" rx="102.77" ry="18"/>
<text text-anchor="middle" x="351.62" y="-626.83" font-family="Helvetica,sans-Serif" font-size="14.00">CanFrontThickness</text>
</g>
<!-- FlatPlateAbsorption2 -->
<g id="node32" class="node">
<title>FlatPlateAbsorption2</title>
<path fill="lightskyblue" stroke="black" d="M659.12,-560.25C659.12,-560.25 532.12,-560.25 532.12,-560.25 526.12,-560.25 520.12,-554.25 520.12,-548.25 520.12,-548.25 520.12,-536.25 520.12,-536.25 520.12,-530.25 526.12,-524.25 532.12,-524.25 532.12,-524.25 659.12,-524.25 659.12,-524.25 665.12,-524.25 671.12,-530.25 671.12,-536.25 671.12,-536.25 671.12,-548.25 671.12,-548.25 671.12,-554.25 665.12,-560.25 659.12,-560.25"/>
<text text-anchor="middle" x="595.62" y="-537.58" font-family="Helvetica,sans-Serif" font-size="14.00">FlatePlatAbsorption</text>
</g>
<!-- CanFrontThickness&#45;&gt;FlatPlateAbsorption2 -->
<g id="edge30" class="edge">
<title>CanFrontThickness&#45;&gt;FlatPlateAbsorption2</title>
<path fill="none" stroke="black" d="M395.52,-614.8C434.86,-600.73 492.88,-579.99 536.33,-564.45"/>
<polygon fill="black" stroke="black" points="537.38,-567.79 545.62,-561.13 535.03,-561.2 537.38,-567.79"/>
</g>
<!-- CanBackThickness -->
<g id="node19" class="node">
<title>CanBackThickness</title>
<ellipse fill="khaki" stroke="black" cx="574.62" cy="-631.5" rx="102.24" ry="18"/>
<text text-anchor="middle" x="574.62" y="-626.83" font-family="Helvetica,sans-Serif" font-size="14.00">CanBackThickness</text>
</g>
<!-- CanBackThickness&#45;&gt;FlatPlateAbsorption2 -->
<g id="edge31" class="edge">
<title>CanBackThickness&#45;&gt;FlatPlateAbsorption2</title>
<path fill="none" stroke="black" d="M578.77,-613.26C581.64,-601.31 585.54,-585.13 588.86,-571.33"/>
<polygon fill="black" stroke="black" points="592.19,-572.46 591.12,-561.92 585.38,-570.83 592.19,-572.46"/>
</g>
<!-- ElementSize1 -->
<g id="node20" class="node">
<title>ElementSize1</title>
<ellipse fill="khaki" stroke="black" cx="628.62" cy="-1424.5" rx="71.2" ry="18"/>
<text text-anchor="middle" x="628.62" y="-1419.83" font-family="Helvetica,sans-Serif" font-size="14.00">ElementSize</text>
</g>
<!-- ElementSize1&#45;&gt;FlatPlateAbsorption1 -->
<g id="edge13" class="edge">
<title>ElementSize1&#45;&gt;FlatPlateAbsorption1</title>
<path fill="none" stroke="black" d="M607.05,-1407.03C595.3,-1398.07 580.55,-1386.8 567.5,-1376.84"/>
<polygon fill="black" stroke="black" points="569.64,-1374.07 559.57,-1370.79 565.4,-1379.64 569.64,-1374.07"/>
</g>
<!-- SampleLogs -->
<g id="node21" class="node">
<title>SampleLogs</title>
<ellipse fill="khaki" stroke="black" cx="326.62" cy="-234" rx="70.15" ry="18"/>
<text text-anchor="middle" x="326.62" y="-229.32" font-family="Helvetica,sans-Serif" font-size="14.00">SampleLogs</text>
</g>
<!-- AddSampleLogMultiple -->
<g id="node39" class="node">
<title>AddSampleLogMultiple</title>
<path fill="lightskyblue" stroke="black" d="M412.74,-180C412.74,-180 262.49,-180 262.49,-180 256.49,-180 250.49,-174 250.49,-168 250.49,-168 250.49,-156 250.49,-156 250.49,-150 256.49,-144 262.49,-144 262.49,-144 412.74,-144 412.74,-144 418.74,-144 424.74,-150 424.74,-156 424.74,-156 424.74,-168 424.74,-168 424.74,-174 418.74,-180 412.74,-180"/>
<text text-anchor="middle" x="337.62" y="-157.32" font-family="Helvetica,sans-Serif" font-size="14.00">AddSampleLogMultiple</text>
</g>
<!-- SampleLogs&#45;&gt;AddSampleLogMultiple -->
<g id="edge47" class="edge">
<title>SampleLogs&#45;&gt;AddSampleLogMultiple</title>
<path fill="none" stroke="black" d="M329.34,-215.7C330.5,-208.32 331.88,-199.52 333.18,-191.25"/>
<polygon fill="black" stroke="black" points="336.6,-192.02 334.7,-181.6 329.69,-190.93 336.6,-192.02"/>
</g>
<!-- EFixed1 -->
<g id="node22" class="node">
<title>EFixed1</title>
<ellipse fill="khaki" stroke="black" cx="727.62" cy="-1659.75" rx="41.74" ry="18"/>
<text text-anchor="middle" x="727.62" y="-1655.08" font-family="Helvetica,sans-Serif" font-size="14.00">eFixed</text>
</g>
<!-- EFixed1&#45;&gt;ConvertUnits1 -->
<g id="edge3" class="edge">
<title>EFixed1&#45;&gt;ConvertUnits1</title>
<path fill="none" stroke="black" d="M745.19,-1643.34C755.43,-1634.37 768.57,-1622.85 780.24,-1612.63"/>
<polygon fill="black" stroke="black" points="782.45,-1615.34 787.66,-1606.12 777.83,-1610.08 782.45,-1615.34"/>
</g>
<!-- EFixed1&#45;&gt;FlatPlateAbsorption1 -->
<g id="edge14" class="edge">
<title>EFixed1&#45;&gt;FlatPlateAbsorption1</title>
<path fill="none" stroke="black" d="M727.62,-1641.53C727.62,-1627.16 727.62,-1606.12 727.62,-1587.75 727.62,-1587.75 727.62,-1587.75 727.62,-1423.5 727.62,-1399.33 673.41,-1380.8 622.61,-1368.74"/>
<polygon fill="black" stroke="black" points="623.51,-1365.36 612.98,-1366.53 621.94,-1372.18 623.51,-1365.36"/>
</g>
<!-- EFixed2 -->
<g id="node23" class="node">
<title>EFixed2</title>
<ellipse fill="khaki" stroke="black" cx="212.62" cy="-1118.25" rx="41.74" ry="18"/>
<text text-anchor="middle" x="212.62" y="-1113.58" font-family="Helvetica,sans-Serif" font-size="14.00">eFixed</text>
</g>
<!-- EFixed2&#45;&gt;ConvertUnits2 -->
<g id="edge19" class="edge">
<title>EFixed2&#45;&gt;ConvertUnits2</title>
<path fill="none" stroke="black" d="M212.62,-1100.06C212.62,-1092.48 212.62,-1083.35 212.62,-1074.79"/>
<polygon fill="black" stroke="black" points="216.12,-1074.79 212.62,-1064.79 209.12,-1074.79 216.12,-1074.79"/>
</g>
<!-- OutputWorkspace -->
<g id="node24" class="node">
<title>OutputWorkspace</title>
<ellipse fill="khaki" stroke="black" cx="337.62" cy="-18" rx="98.56" ry="18"/>
<text text-anchor="middle" x="337.62" y="-13.32" font-family="Helvetica,sans-Serif" font-size="14.00">OutputWorkspace</text>
</g>
<!-- GetEFixed&#45;&gt;EFixed1 -->
<g id="edge2" class="edge">
<title>GetEFixed&#45;&gt;EFixed1</title>
<path fill="none" stroke="black" d="M731.38,-1713.45C730.86,-1706.16 730.24,-1697.48 729.66,-1689.29"/>
<polygon fill="black" stroke="black" points="733.15,-1689.09 728.95,-1679.36 726.17,-1689.59 733.15,-1689.09"/>
</g>
<!-- ConvertUnits1&#45;&gt;SampleWorkspace_Wave -->
<g id="edge5" class="edge">
<title>ConvertUnits1&#45;&gt;SampleWorkspace_Wave</title>
<path fill="none" stroke="black" d="M822.25,-1568.51C832.17,-1555.96 845.79,-1538.75 857.03,-1524.53"/>
<polygon fill="black" stroke="black" points="859.62,-1526.9 863.08,-1516.89 854.13,-1522.56 859.62,-1526.9"/>
<text text-anchor="middle" x="994.12" y="-1537.45" font-family="Helvetica,sans-Serif" font-size="14.00">Convert input workspace into Wavelength</text>
</g>
<!-- ConvertUnits2&#45;&gt;CanWorkspace_Wave -->
<g id="edge20" class="edge">
<title>ConvertUnits2&#45;&gt;CanWorkspace_Wave</title>
<path fill="none" stroke="black" d="M207.28,-1027.01C203.59,-1015.06 198.58,-998.88 194.31,-985.08"/>
<polygon fill="black" stroke="black" points="197.69,-984.17 191.39,-975.65 191,-986.24 197.69,-984.17"/>
<text text-anchor="middle" x="340.49" y="-995.95" font-family="Helvetica,sans-Serif" font-size="14.00">Convert can workspace into Wavelength</text>
</g>
<!-- ConvertUnits3&#45;&gt;AddSampleLogMultiple -->
<g id="edge46" class="edge">
<title>ConvertUnits3&#45;&gt;AddSampleLogMultiple</title>
<path fill="none" stroke="black" d="M435.9,-215.52C418.97,-206.47 398.1,-195.32 379.96,-185.62"/>
<polygon fill="black" stroke="black" points="381.72,-182.6 371.25,-180.97 378.43,-188.77 381.72,-182.6"/>
</g>
<!-- SetSampleMaterial1&#45;&gt;FlatPlateAbsorption1 -->
<g id="edge9" class="edge">
<title>SetSampleMaterial1&#45;&gt;FlatPlateAbsorption1</title>
<path fill="none" stroke="black" d="M1009.41,-1414C909.28,-1401 729.85,-1377.71 622.86,-1363.82"/>
<polygon fill="black" stroke="black" points="623.33,-1360.36 612.96,-1362.54 622.43,-1367.3 623.33,-1360.36"/>
</g>
<!-- SetSampleMaterial2&#45;&gt;FlatPlateAbsorption2 -->
<g id="edge29" class="edge">
<title>SetSampleMaterial2&#45;&gt;FlatPlateAbsorption2</title>
<path fill="none" stroke="black" d="M733.22,-613.05C706.39,-599.44 668.92,-580.43 639.85,-565.69"/>
<polygon fill="black" stroke="black" points="641.8,-562.75 631.3,-561.35 638.64,-569 641.8,-562.75"/>
</g>
<!-- Divide1 -->
<g id="node34" class="node">
<title>Divide1</title>
<path fill="lightskyblue" stroke="black" d="M613.37,-487.25C613.37,-487.25 577.87,-487.25 577.87,-487.25 571.87,-487.25 565.87,-481.25 565.87,-475.25 565.87,-475.25 565.87,-463.25 565.87,-463.25 565.87,-457.25 571.87,-451.25 577.87,-451.25 577.87,-451.25 613.37,-451.25 613.37,-451.25 619.37,-451.25 625.37,-457.25 625.37,-463.25 625.37,-463.25 625.37,-475.25 625.37,-475.25 625.37,-481.25 619.37,-487.25 613.37,-487.25"/>
<text text-anchor="middle" x="595.62" y="-464.57" font-family="Helvetica,sans-Serif" font-size="14.00">Divide</text>
</g>
<!-- SetSampleMaterial2&#45;&gt;Divide1 -->
<g id="edge33" class="edge">
<title>SetSampleMaterial2&#45;&gt;Divide1</title>
<path fill="none" stroke="black" d="M756.11,-613.25C740.7,-590.96 711.66,-551.77 680.62,-524.25 666.88,-512.07 650.11,-500.8 635.11,-491.74"/>
<polygon fill="black" stroke="black" points="637.26,-488.94 626.86,-486.88 633.71,-494.97 637.26,-488.94"/>
</g>
<!-- FlatPlateAbsorption1&#45;&gt;AbsWorkspace1 -->
<g id="edge15" class="edge">
<title>FlatPlateAbsorption1&#45;&gt;AbsWorkspace1</title>
<path fill="none" stroke="black" d="M535.62,-1333.2C535.62,-1325.91 535.62,-1317.23 535.62,-1309.04"/>
<polygon fill="black" stroke="black" points="539.12,-1309.12 535.62,-1299.12 532.12,-1309.12 539.12,-1309.12"/>
</g>
<!-- FlatPlateAbsorption2&#45;&gt;Divide1 -->
<g id="edge32" class="edge">
<title>FlatPlateAbsorption2&#45;&gt;Divide1</title>
<path fill="none" stroke="black" d="M595.62,-524.06C595.62,-516.48 595.62,-507.35 595.62,-498.79"/>
<polygon fill="black" stroke="black" points="599.12,-498.79 595.62,-488.79 592.12,-498.79 599.12,-498.79"/>
</g>
<!-- useCorrections -->
<g id="node43" class="node">
<title>useCorrections</title>
<polygon fill="limegreen" stroke="black" points="220.62,-738.75 88.68,-720.75 220.62,-702.75 352.56,-720.75 220.62,-738.75"/>
<text text-anchor="middle" x="220.62" y="-716.08" font-family="Helvetica,sans-Serif" font-size="14.00">Can Corrections?</text>
</g>
<!-- Scale&#45;&gt;useCorrections -->
<g id="edge24" class="edge">
<title>Scale&#45;&gt;useCorrections</title>
<path fill="none" stroke="black" d="M309.13,-775.92C292.55,-765.78 271.32,-752.79 253.81,-742.07"/>
<polygon fill="black" stroke="black" points="255.64,-739.08 245.29,-736.85 251.99,-745.06 255.64,-739.08"/>
</g>
<!-- Divide1&#45;&gt;Minus1 -->
<g id="edge34" class="edge">
<title>Divide1&#45;&gt;Minus1</title>
<path fill="none" stroke="black" d="M565.52,-451.42C548.19,-441.74 526.22,-429.45 507.59,-419.04"/>
<polygon fill="black" stroke="black" points="509.38,-416.03 498.95,-414.21 505.97,-422.14 509.38,-416.03"/>
</g>
<!-- Divide2&#45;&gt;SampleWorkspace_Wave2 -->
<g id="edge43" class="edge">
<title>Divide2&#45;&gt;SampleWorkspace_Wave2</title>
<path fill="none" stroke="black" d="M366.57,-379.14C384.58,-369.45 407.75,-356.99 427.46,-346.39"/>
<polygon fill="black" stroke="black" points="428.92,-349.57 436.07,-341.76 425.61,-343.41 428.92,-349.57"/>
</g>
<!-- Divide3&#45;&gt;SampleWorkspace_Wave2 -->
<g id="edge44" class="edge">
<title>Divide3&#45;&gt;SampleWorkspace_Wave2</title>
<path fill="none" stroke="black" d="M881.84,-1099.86C884.94,-1085.56 888.62,-1064.71 888.62,-1046.25 888.62,-1046.25 888.62,-1046.25 888.62,-395.25 888.62,-365.06 717.76,-344.5 594,-333.57"/>
<polygon fill="black" stroke="black" points="594.33,-330.08 584.06,-332.7 593.72,-337.05 594.33,-330.08"/>
</g>
<!-- Minus1&#45;&gt;SampleWorkspace_Wave2 -->
<g id="edge42" class="edge">
<title>Minus1&#45;&gt;SampleWorkspace_Wave2</title>
<path fill="none" stroke="black" d="M468.62,-378.06C468.62,-370.48 468.62,-361.35 468.62,-352.79"/>
<polygon fill="black" stroke="black" points="472.12,-352.79 468.62,-342.79 465.12,-352.79 472.12,-352.79"/>
</g>
<!-- Minus2&#45;&gt;Divide2 -->
<g id="edge38" class="edge">
<title>Minus2&#45;&gt;Divide2</title>
<path fill="none" stroke="black" d="M336.62,-451.06C336.62,-443.48 336.62,-434.35 336.62,-425.79"/>
<polygon fill="black" stroke="black" points="340.12,-425.79 336.62,-415.79 333.12,-425.79 340.12,-425.79"/>
</g>
<!-- GroupWorkspaces -->
<g id="node40" class="node">
<title>GroupWorkspaces</title>
<path fill="lightskyblue" stroke="black" d="M396.24,-108C396.24,-108 278.99,-108 278.99,-108 272.99,-108 266.99,-102 266.99,-96 266.99,-96 266.99,-84 266.99,-84 266.99,-78 272.99,-72 278.99,-72 278.99,-72 396.24,-72 396.24,-72 402.24,-72 408.24,-78 408.24,-84 408.24,-84 408.24,-96 408.24,-96 408.24,-102 402.24,-108 396.24,-108"/>
<text text-anchor="middle" x="337.62" y="-85.33" font-family="Helvetica,sans-Serif" font-size="14.00">GroupWorkspaces</text>
</g>
<!-- AddSampleLogMultiple&#45;&gt;GroupWorkspaces -->
<g id="edge48" class="edge">
<title>AddSampleLogMultiple&#45;&gt;GroupWorkspaces</title>
<path fill="none" stroke="black" d="M337.62,-143.7C337.62,-136.41 337.62,-127.73 337.62,-119.54"/>
<polygon fill="black" stroke="black" points="341.12,-119.62 337.62,-109.62 334.12,-119.62 341.12,-119.62"/>
</g>
<!-- GroupWorkspaces&#45;&gt;OutputWorkspace -->
<g id="edge49" class="edge">
<title>GroupWorkspaces&#45;&gt;OutputWorkspace</title>
<path fill="none" stroke="black" d="M337.62,-71.7C337.62,-64.41 337.62,-55.73 337.62,-47.54"/>
<polygon fill="black" stroke="black" points="341.12,-47.62 337.62,-37.62 334.12,-47.62 341.12,-47.62"/>
</g>
<!-- canGiven&#45;&gt;CanWorkspace -->
<g id="edge17" class="edge">
<title>canGiven&#45;&gt;CanWorkspace</title>
<path fill="none" stroke="black" d="M511.68,-1192.48C488.09,-1178.67 451.69,-1157.35 424.23,-1141.27"/>
<polygon fill="black" stroke="black" points="426.26,-1138.41 415.87,-1136.38 422.73,-1144.45 426.26,-1138.41"/>
<text text-anchor="middle" x="484.87" y="-1158.2" font-family="Helvetica,sans-Serif" font-size="14.00">Yes</text>
</g>
<!-- canGiven&#45;&gt;Divide3 -->
<g id="edge40" class="edge">
<title>canGiven&#45;&gt;Divide3</title>
<path fill="none" stroke="black" d="M579.98,-1195.18C646.64,-1178.18 771.73,-1146.26 836.46,-1129.75"/>
<polygon fill="black" stroke="black" points="837.15,-1133.19 845.98,-1127.32 835.42,-1126.4 837.15,-1133.19"/>
<text text-anchor="middle" x="745.99" y="-1158.2" font-family="Helvetica,sans-Serif" font-size="14.00">No</text>
</g>
<!-- canScale&#45;&gt;Scale -->
<g id="edge22" class="edge">
<title>canScale&#45;&gt;Scale</title>
<path fill="none" stroke="black" d="M187.27,-867.2C198.8,-855.51 216.28,-839.59 234.37,-829.75 259.29,-816.2 268.86,-821.2 295.62,-811.75 296.74,-811.35 297.88,-810.94 299.03,-810.52"/>
<polygon fill="black" stroke="black" points="299.95,-813.92 308.02,-807.05 297.43,-807.39 299.95,-813.92"/>
<text text-anchor="middle" x="282.74" y="-833.7" font-family="Helvetica,sans-Serif" font-size="14.00">Not equal to 1</text>
</g>
<!-- canScale&#45;&gt;useCorrections -->
<g id="edge25" class="edge">
<title>canScale&#45;&gt;useCorrections</title>
<path fill="none" stroke="black" d="M190.84,-867.97C196.84,-862.14 202.97,-854.88 206.62,-847 220.9,-816.15 223.01,-776.6 222.45,-750.28"/>
<polygon fill="black" stroke="black" points="225.95,-750.24 222.08,-740.38 218.96,-750.5 225.95,-750.24"/>
<text text-anchor="middle" x="256.87" y="-789.08" font-family="Helvetica,sans-Serif" font-size="14.00">Equal to 1</text>
</g>
<!-- useCorrections&#45;&gt;SetSampleMaterial2 -->
<g id="edge26" class="edge">
<title>useCorrections&#45;&gt;SetSampleMaterial2</title>
<path fill="none" stroke="black" d="M285.11,-711.14C372.86,-699.17 535.01,-676.17 683.24,-649.88"/>
<polygon fill="black" stroke="black" points="683.62,-653.37 692.85,-648.16 682.39,-646.47 683.62,-653.37"/>
<text text-anchor="middle" x="581.87" y="-671.45" font-family="Helvetica,sans-Serif" font-size="14.00">Yes</text>
</g>
<!-- useCorrections&#45;&gt;Minus2 -->
<g id="edge36" class="edge">
<title>useCorrections&#45;&gt;Minus2</title>
<path fill="none" stroke="black" d="M221.82,-702.71C223.74,-681.32 228.5,-643.75 239.62,-613.5 256.28,-568.16 290.29,-523.26 313.27,-496.13"/>
<polygon fill="black" stroke="black" points="315.73,-498.64 319.62,-488.78 310.43,-494.07 315.73,-498.64"/>
<text text-anchor="middle" x="263.99" y="-582.2" font-family="Helvetica,sans-Serif" font-size="14.00">No</text>
</g>
</g>
</svg>
