<?xml version="1.0" encoding="UTF-8" standalone="no"?>
<!DOCTYPE svg PUBLIC "-//W3C//DTD SVG 1.1//EN"
 "http://www.w3.org/Graphics/SVG/1.1/DTD/svg11.dtd">
<!-- Generated by graphviz version 7.1.0 (20230122.1345)
 -->
<!-- Title: IndirectAnnulusAbsorption Pages: 1 -->
<svg width="1886pt" height="1879pt"
 viewBox="0.00 0.00 1886.21 1879.00" xmlns="http://www.w3.org/2000/svg" xmlns:xlink="http://www.w3.org/1999/xlink">
<g id="graph0" class="graph" transform="scale(1 1) rotate(0) translate(4 1875)">
<title>IndirectAnnulusAbsorption</title>
<polygon fill="white" stroke="none" points="-4,4 -4,-1875 1882.21,-1875 1882.21,4 -4,4"/>
<text text-anchor="middle" x="939.1" y="-1855.8" font-family="Helvetica,sans-Serif" font-size="14.00">IndirectAnnulusAbsorption Flowchart</text>
<!-- SampleWorkspace1 -->
<g id="node1" class="node">
<title>SampleWorkspace1</title>
<ellipse fill="khaki" stroke="black" cx="1140.17" cy="-1830" rx="93.68" ry="18"/>
<text text-anchor="middle" x="1140.17" y="-1826.3" font-family="Helvetica,sans-Serif" font-size="14.00">SampleWorkspace</text>
</g>
<!-- GetEFixed -->
<g id="node25" class="node">
<title>GetEFixed</title>
<path fill="lightskyblue" stroke="black" d="M1134.67,-1775C1134.67,-1775 1073.67,-1775 1073.67,-1775 1067.67,-1775 1061.67,-1769 1061.67,-1763 1061.67,-1763 1061.67,-1751 1061.67,-1751 1061.67,-1745 1067.67,-1739 1073.67,-1739 1073.67,-1739 1134.67,-1739 1134.67,-1739 1140.67,-1739 1146.67,-1745 1146.67,-1751 1146.67,-1751 1146.67,-1763 1146.67,-1763 1146.67,-1769 1140.67,-1775 1134.67,-1775"/>
<text text-anchor="middle" x="1104.17" y="-1753.3" font-family="Helvetica,sans-Serif" font-size="14.00">GetEFixed</text>
</g>
<!-- SampleWorkspace1&#45;&gt;GetEFixed -->
<g id="edge1" class="edge">
<title>SampleWorkspace1&#45;&gt;GetEFixed</title>
<path fill="none" stroke="black" d="M1131.45,-1811.81C1127.38,-1803.79 1122.44,-1794.05 1117.89,-1785.07"/>
<polygon fill="black" stroke="black" points="1121.13,-1783.71 1113.49,-1776.38 1114.89,-1786.88 1121.13,-1783.71"/>
</g>
<!-- ConvertUnits1 -->
<g id="node26" class="node">
<title>ConvertUnits1</title>
<path fill="lightskyblue" stroke="black" d="M1219.67,-1629C1219.67,-1629 1136.67,-1629 1136.67,-1629 1130.67,-1629 1124.67,-1623 1124.67,-1617 1124.67,-1617 1124.67,-1605 1124.67,-1605 1124.67,-1599 1130.67,-1593 1136.67,-1593 1136.67,-1593 1219.67,-1593 1219.67,-1593 1225.67,-1593 1231.67,-1599 1231.67,-1605 1231.67,-1605 1231.67,-1617 1231.67,-1617 1231.67,-1623 1225.67,-1629 1219.67,-1629"/>
<text text-anchor="middle" x="1178.17" y="-1607.3" font-family="Helvetica,sans-Serif" font-size="14.00">ConvertUnits</text>
</g>
<!-- SampleWorkspace1&#45;&gt;ConvertUnits1 -->
<g id="edge4" class="edge">
<title>SampleWorkspace1&#45;&gt;ConvertUnits1</title>
<path fill="none" stroke="black" d="M1145.61,-1811.63C1148.76,-1801.11 1152.59,-1787.38 1155.17,-1775 1164.89,-1728.36 1171.7,-1673.34 1175.27,-1640.64"/>
<polygon fill="black" stroke="black" points="1178.75,-1641.08 1176.32,-1630.76 1171.79,-1640.34 1178.75,-1641.08"/>
</g>
<!-- SampleWorkspace2 -->
<g id="node2" class="node">
<title>SampleWorkspace2</title>
<ellipse fill="khaki" stroke="black" cx="442.17" cy="-543" rx="93.68" ry="18"/>
<text text-anchor="middle" x="442.17" y="-539.3" font-family="Helvetica,sans-Serif" font-size="14.00">SampleWorkspace</text>
</g>
<!-- Minus1 -->
<g id="node37" class="node">
<title>Minus1</title>
<path fill="lightskyblue" stroke="black" d="M521.17,-415C521.17,-415 487.17,-415 487.17,-415 481.17,-415 475.17,-409 475.17,-403 475.17,-403 475.17,-391 475.17,-391 475.17,-385 481.17,-379 487.17,-379 487.17,-379 521.17,-379 521.17,-379 527.17,-379 533.17,-385 533.17,-391 533.17,-391 533.17,-403 533.17,-403 533.17,-409 527.17,-415 521.17,-415"/>
<text text-anchor="middle" x="504.17" y="-393.3" font-family="Helvetica,sans-Serif" font-size="14.00">Minus</text>
</g>
<!-- SampleWorkspace2&#45;&gt;Minus1 -->
<g id="edge37" class="edge">
<title>SampleWorkspace2&#45;&gt;Minus1</title>
<path fill="none" stroke="black" d="M449.65,-524.63C460.21,-500.09 479.62,-455 492.21,-425.78"/>
<polygon fill="black" stroke="black" points="495.32,-427.39 496.06,-416.82 488.89,-424.62 495.32,-427.39"/>
</g>
<!-- Minus2 -->
<g id="node38" class="node">
<title>Minus2</title>
<path fill="lightskyblue" stroke="black" d="M402.17,-488C402.17,-488 368.17,-488 368.17,-488 362.17,-488 356.17,-482 356.17,-476 356.17,-476 356.17,-464 356.17,-464 356.17,-458 362.17,-452 368.17,-452 368.17,-452 402.17,-452 402.17,-452 408.17,-452 414.17,-458 414.17,-464 414.17,-464 414.17,-476 414.17,-476 414.17,-482 408.17,-488 402.17,-488"/>
<text text-anchor="middle" x="385.17" y="-466.3" font-family="Helvetica,sans-Serif" font-size="14.00">Minus</text>
</g>
<!-- SampleWorkspace2&#45;&gt;Minus2 -->
<g id="edge39" class="edge">
<title>SampleWorkspace2&#45;&gt;Minus2</title>
<path fill="none" stroke="black" d="M428.37,-524.81C421.65,-516.44 413.42,-506.2 405.96,-496.9"/>
<polygon fill="black" stroke="black" points="408.78,-494.82 399.79,-489.21 403.32,-499.2 408.78,-494.82"/>
</g>
<!-- SampleWorkspace_Wave -->
<g id="node3" class="node">
<title>SampleWorkspace_Wave</title>
<ellipse fill="khaki" stroke="black" cx="1246.17" cy="-1524" rx="122.38" ry="18"/>
<text text-anchor="middle" x="1246.17" y="-1520.3" font-family="Helvetica,sans-Serif" font-size="14.00">SampleWorkspace_Wave</text>
</g>
<!-- SetSampleMaterial1 -->
<g id="node29" class="node">
<title>SetSampleMaterial1</title>
<path fill="lightskyblue" stroke="black" d="M1498.17,-1469C1498.17,-1469 1376.17,-1469 1376.17,-1469 1370.17,-1469 1364.17,-1463 1364.17,-1457 1364.17,-1457 1364.17,-1445 1364.17,-1445 1364.17,-1439 1370.17,-1433 1376.17,-1433 1376.17,-1433 1498.17,-1433 1498.17,-1433 1504.17,-1433 1510.17,-1439 1510.17,-1445 1510.17,-1445 1510.17,-1457 1510.17,-1457 1510.17,-1463 1504.17,-1469 1498.17,-1469"/>
<text text-anchor="middle" x="1437.17" y="-1447.3" font-family="Helvetica,sans-Serif" font-size="14.00">SetSampleMaterial</text>
</g>
<!-- SampleWorkspace_Wave&#45;&gt;SetSampleMaterial1 -->
<g id="edge6" class="edge">
<title>SampleWorkspace_Wave&#45;&gt;SetSampleMaterial1</title>
<path fill="none" stroke="black" d="M1289.51,-1506.89C1316.15,-1496.98 1350.61,-1484.18 1379.54,-1473.42"/>
<polygon fill="black" stroke="black" points="1380.75,-1476.71 1388.9,-1469.94 1378.31,-1470.14 1380.75,-1476.71"/>
</g>
<!-- SampleWorkspace_Wave2 -->
<g id="node4" class="node">
<title>SampleWorkspace_Wave2</title>
<ellipse fill="khaki" stroke="black" cx="504.17" cy="-324" rx="122.38" ry="18"/>
<text text-anchor="middle" x="504.17" y="-320.3" font-family="Helvetica,sans-Serif" font-size="14.00">SampleWorkspace_Wave</text>
</g>
<!-- ConvertUnits3 -->
<g id="node28" class="node">
<title>ConvertUnits3</title>
<path fill="lightskyblue" stroke="black" d="M545.67,-255C545.67,-255 462.67,-255 462.67,-255 456.67,-255 450.67,-249 450.67,-243 450.67,-243 450.67,-231 450.67,-231 450.67,-225 456.67,-219 462.67,-219 462.67,-219 545.67,-219 545.67,-219 551.67,-219 557.67,-225 557.67,-231 557.67,-231 557.67,-243 557.67,-243 557.67,-249 551.67,-255 545.67,-255"/>
<text text-anchor="middle" x="504.17" y="-233.3" font-family="Helvetica,sans-Serif" font-size="14.00">ConvertUnits</text>
</g>
<!-- SampleWorkspace_Wave2&#45;&gt;ConvertUnits3 -->
<g id="edge46" class="edge">
<title>SampleWorkspace_Wave2&#45;&gt;ConvertUnits3</title>
<path fill="none" stroke="black" d="M504.17,-305.8C504.17,-294.58 504.17,-279.67 504.17,-266.69"/>
<polygon fill="black" stroke="black" points="507.67,-266.98 504.17,-256.98 500.67,-266.98 507.67,-266.98"/>
<text text-anchor="middle" x="584.17" y="-276.8" font-family="Helvetica,sans-Serif" font-size="14.00">Convert back to DeltaE</text>
</g>
<!-- SampleChemicalFormula -->
<g id="node5" class="node">
<title>SampleChemicalFormula</title>
<ellipse fill="khaki" stroke="black" cx="1508.17" cy="-1524" rx="122.38" ry="18"/>
<text text-anchor="middle" x="1508.17" y="-1520.3" font-family="Helvetica,sans-Serif" font-size="14.00">SampleChemicalFormula</text>
</g>
<!-- SampleChemicalFormula&#45;&gt;SetSampleMaterial1 -->
<g id="edge7" class="edge">
<title>SampleChemicalFormula&#45;&gt;SetSampleMaterial1</title>
<path fill="none" stroke="black" d="M1490.98,-1505.81C1482.35,-1497.18 1471.72,-1486.56 1462.2,-1477.03"/>
<polygon fill="black" stroke="black" points="1464.81,-1474.7 1455.27,-1470.1 1459.86,-1479.65 1464.81,-1474.7"/>
</g>
<!-- SampleNumberDensity -->
<g id="node6" class="node">
<title>SampleNumberDensity</title>
<ellipse fill="khaki" stroke="black" cx="1763.17" cy="-1524" rx="115.08" ry="18"/>
<text text-anchor="middle" x="1763.17" y="-1520.3" font-family="Helvetica,sans-Serif" font-size="14.00">SampleNumberDensity</text>
</g>
<!-- SampleNumberDensity&#45;&gt;SetSampleMaterial1 -->
<g id="edge8" class="edge">
<title>SampleNumberDensity&#45;&gt;SetSampleMaterial1</title>
<path fill="none" stroke="black" d="M1697.98,-1508.8C1647.31,-1497.77 1576.62,-1482.37 1521.62,-1470.39"/>
<polygon fill="black" stroke="black" points="1522.48,-1467 1511.96,-1468.29 1520.99,-1473.84 1522.48,-1467"/>
</g>
<!-- SampleInnerRadius -->
<g id="node7" class="node">
<title>SampleInnerRadius</title>
<ellipse fill="khaki" stroke="black" cx="599.17" cy="-1451" rx="98.58" ry="18"/>
<text text-anchor="middle" x="599.17" y="-1447.3" font-family="Helvetica,sans-Serif" font-size="14.00">SampleInnerRadius</text>
</g>
<!-- AnnulusAbsorption1 -->
<g id="node31" class="node">
<title>AnnulusAbsorption1</title>
<path fill="lightskyblue" stroke="black" d="M1064.67,-1396C1064.67,-1396 939.67,-1396 939.67,-1396 933.67,-1396 927.67,-1390 927.67,-1384 927.67,-1384 927.67,-1372 927.67,-1372 927.67,-1366 933.67,-1360 939.67,-1360 939.67,-1360 1064.67,-1360 1064.67,-1360 1070.67,-1360 1076.67,-1366 1076.67,-1372 1076.67,-1372 1076.67,-1384 1076.67,-1384 1076.67,-1390 1070.67,-1396 1064.67,-1396"/>
<text text-anchor="middle" x="1002.17" y="-1374.3" font-family="Helvetica,sans-Serif" font-size="14.00">AnnulusAbsorption</text>
</g>
<!-- SampleInnerRadius&#45;&gt;AnnulusAbsorption1 -->
<g id="edge10" class="edge">
<title>SampleInnerRadius&#45;&gt;AnnulusAbsorption1</title>
<path fill="none" stroke="black" d="M668.45,-1437.79C737.05,-1425.71 842.27,-1407.17 916.18,-1394.15"/>
<polygon fill="black" stroke="black" points="916.57,-1397.63 925.81,-1392.45 915.36,-1390.74 916.57,-1397.63"/>
</g>
<!-- SampleOuterRadius -->
<g id="node8" class="node">
<title>SampleOuterRadius</title>
<ellipse fill="khaki" stroke="black" cx="817.17" cy="-1451" rx="100.98" ry="18"/>
<text text-anchor="middle" x="817.17" y="-1447.3" font-family="Helvetica,sans-Serif" font-size="14.00">SampleOuterRadius</text>
</g>
<!-- SampleOuterRadius&#45;&gt;AnnulusAbsorption1 -->
<g id="edge11" class="edge">
<title>SampleOuterRadius&#45;&gt;AnnulusAbsorption1</title>
<path fill="none" stroke="black" d="M858.22,-1434.24C884.09,-1424.32 917.82,-1411.37 946.13,-1400.51"/>
<polygon fill="black" stroke="black" points="947.19,-1403.85 955.27,-1397 944.68,-1397.31 947.19,-1403.85"/>
</g>
<!-- SampleInnerRadius2 -->
<g id="node9" class="node">
<title>SampleInnerRadius2</title>
<ellipse fill="khaki" stroke="black" cx="622.17" cy="-630" rx="98.58" ry="18"/>
<text text-anchor="middle" x="622.17" y="-626.3" font-family="Helvetica,sans-Serif" font-size="14.00">SampleInnerRadius</text>
</g>
<!-- AnnulusAbsorption2 -->
<g id="node32" class="node">
<title>AnnulusAbsorption2</title>
<path fill="lightskyblue" stroke="black" d="M690.67,-561C690.67,-561 565.67,-561 565.67,-561 559.67,-561 553.67,-555 553.67,-549 553.67,-549 553.67,-537 553.67,-537 553.67,-531 559.67,-525 565.67,-525 565.67,-525 690.67,-525 690.67,-525 696.67,-525 702.67,-531 702.67,-537 702.67,-537 702.67,-549 702.67,-549 702.67,-555 696.67,-561 690.67,-561"/>
<text text-anchor="middle" x="628.17" y="-539.3" font-family="Helvetica,sans-Serif" font-size="14.00">AnnulusAbsorption</text>
</g>
<!-- SampleInnerRadius2&#45;&gt;AnnulusAbsorption2 -->
<g id="edge31" class="edge">
<title>SampleInnerRadius2&#45;&gt;AnnulusAbsorption2</title>
<path fill="none" stroke="black" d="M623.38,-611.8C624.17,-600.58 625.23,-585.67 626.14,-572.69"/>
<polygon fill="black" stroke="black" points="629.61,-573.2 626.83,-562.98 622.63,-572.71 629.61,-573.2"/>
</g>
<!-- SampleOuterRadius2 -->
<g id="node10" class="node">
<title>SampleOuterRadius2</title>
<ellipse fill="khaki" stroke="black" cx="840.17" cy="-630" rx="100.98" ry="18"/>
<text text-anchor="middle" x="840.17" y="-626.3" font-family="Helvetica,sans-Serif" font-size="14.00">SampleOuterRadius</text>
</g>
<!-- SampleOuterRadius2&#45;&gt;AnnulusAbsorption2 -->
<g id="edge32" class="edge">
<title>SampleOuterRadius2&#45;&gt;AnnulusAbsorption2</title>
<path fill="none" stroke="black" d="M800.29,-613.01C766.89,-599.62 718.89,-580.38 682.07,-565.61"/>
<polygon fill="black" stroke="black" points="683.5,-562.42 672.92,-561.94 680.9,-568.91 683.5,-562.42"/>
</g>
<!-- AbsWorkspace1 -->
<g id="node11" class="node">
<title>AbsWorkspace1</title>
<ellipse fill="khaki" stroke="black" cx="1002.17" cy="-1305" rx="109.38" ry="18"/>
<text text-anchor="middle" x="1002.17" y="-1301.3" font-family="Helvetica,sans-Serif" font-size="14.00">AbsorptionWorkspace</text>
</g>
<!-- canGiven -->
<g id="node41" class="node">
<title>canGiven</title>
<polygon fill="limegreen" stroke="black" points="1002.17,-1250 881.85,-1232 1002.17,-1214 1122.49,-1232 1002.17,-1250"/>
<text text-anchor="middle" x="1002.17" y="-1228.3" font-family="Helvetica,sans-Serif" font-size="14.00">Can Workspace?</text>
</g>
<!-- AbsWorkspace1&#45;&gt;canGiven -->
<g id="edge15" class="edge">
<title>AbsWorkspace1&#45;&gt;canGiven</title>
<path fill="none" stroke="black" d="M1002.17,-1286.81C1002.17,-1279.23 1002.17,-1270.1 1002.17,-1261.54"/>
<polygon fill="black" stroke="black" points="1005.67,-1261.54 1002.17,-1251.54 998.67,-1261.54 1005.67,-1261.54"/>
</g>
<!-- AbsWorkspace2 -->
<g id="node12" class="node">
<title>AbsWorkspace2</title>
<ellipse fill="khaki" stroke="black" cx="229.17" cy="-470" rx="109.38" ry="18"/>
<text text-anchor="middle" x="229.17" y="-466.3" font-family="Helvetica,sans-Serif" font-size="14.00">AbsorptionWorkspace</text>
</g>
<!-- Divide2 -->
<g id="node35" class="node">
<title>Divide2</title>
<path fill="lightskyblue" stroke="black" d="M403.17,-415C403.17,-415 367.17,-415 367.17,-415 361.17,-415 355.17,-409 355.17,-403 355.17,-403 355.17,-391 355.17,-391 355.17,-385 361.17,-379 367.17,-379 367.17,-379 403.17,-379 403.17,-379 409.17,-379 415.17,-385 415.17,-391 415.17,-391 415.17,-403 415.17,-403 415.17,-409 409.17,-415 403.17,-415"/>
<text text-anchor="middle" x="385.17" y="-393.3" font-family="Helvetica,sans-Serif" font-size="14.00">Divide</text>
</g>
<!-- AbsWorkspace2&#45;&gt;Divide2 -->
<g id="edge41" class="edge">
<title>AbsWorkspace2&#45;&gt;Divide2</title>
<path fill="none" stroke="black" d="M265.35,-452.53C288.95,-441.79 319.8,-427.75 344.29,-416.61"/>
<polygon fill="black" stroke="black" points="345.67,-419.82 353.32,-412.5 342.77,-413.45 345.67,-419.82"/>
</g>
<!-- CanWorkspace -->
<g id="node13" class="node">
<title>CanWorkspace</title>
<ellipse fill="khaki" stroke="black" cx="935.17" cy="-1145" rx="77.19" ry="18"/>
<text text-anchor="middle" x="935.17" y="-1141.3" font-family="Helvetica,sans-Serif" font-size="14.00">CanWorkspace</text>
</g>
<!-- ConvertUnits2 -->
<g id="node27" class="node">
<title>ConvertUnits2</title>
<path fill="lightskyblue" stroke="black" d="M814.67,-1055C814.67,-1055 731.67,-1055 731.67,-1055 725.67,-1055 719.67,-1049 719.67,-1043 719.67,-1043 719.67,-1031 719.67,-1031 719.67,-1025 725.67,-1019 731.67,-1019 731.67,-1019 814.67,-1019 814.67,-1019 820.67,-1019 826.67,-1025 826.67,-1031 826.67,-1031 826.67,-1043 826.67,-1043 826.67,-1049 820.67,-1055 814.67,-1055"/>
<text text-anchor="middle" x="773.17" y="-1033.3" font-family="Helvetica,sans-Serif" font-size="14.00">ConvertUnits</text>
</g>
<!-- CanWorkspace&#45;&gt;ConvertUnits2 -->
<g id="edge17" class="edge">
<title>CanWorkspace&#45;&gt;ConvertUnits2</title>
<path fill="none" stroke="black" d="M910.21,-1127.67C883.22,-1110.01 839.95,-1081.7 809.26,-1061.61"/>
<polygon fill="black" stroke="black" points="811.32,-1058.78 801.04,-1056.24 807.49,-1064.64 811.32,-1058.78"/>
</g>
<!-- CanWorkspace_Wave -->
<g id="node14" class="node">
<title>CanWorkspace_Wave</title>
<ellipse fill="khaki" stroke="black" cx="389.17" cy="-950" rx="106.68" ry="18"/>
<text text-anchor="middle" x="389.17" y="-946.3" font-family="Helvetica,sans-Serif" font-size="14.00">CanWorkspace_Wave</text>
</g>
<!-- canScale -->
<g id="node42" class="node">
<title>canScale</title>
<polygon fill="limegreen" stroke="black" points="103.17,-895 18.54,-877 103.17,-859 187.79,-877 103.17,-895"/>
<text text-anchor="middle" x="103.17" y="-873.3" font-family="Helvetica,sans-Serif" font-size="14.00">Can Scale?</text>
</g>
<!-- CanWorkspace_Wave&#45;&gt;canScale -->
<g id="edge20" class="edge">
<title>CanWorkspace_Wave&#45;&gt;canScale</title>
<path fill="none" stroke="black" d="M330.95,-934.55C278.22,-921.46 201.42,-902.39 151.87,-890.09"/>
<polygon fill="black" stroke="black" points="152.83,-886.72 142.28,-887.71 151.14,-893.52 152.83,-886.72"/>
</g>
<!-- CanScale -->
<g id="node15" class="node">
<title>CanScale</title>
<ellipse fill="khaki" stroke="black" cx="258.17" cy="-877" rx="51.99" ry="18"/>
<text text-anchor="middle" x="258.17" y="-873.3" font-family="Helvetica,sans-Serif" font-size="14.00">CanScale</text>
</g>
<!-- Scale -->
<g id="node33" class="node">
<title>Scale</title>
<path fill="lightskyblue" stroke="black" d="M254.17,-808C254.17,-808 224.17,-808 224.17,-808 218.17,-808 212.17,-802 212.17,-796 212.17,-796 212.17,-784 212.17,-784 212.17,-778 218.17,-772 224.17,-772 224.17,-772 254.17,-772 254.17,-772 260.17,-772 266.17,-778 266.17,-784 266.17,-784 266.17,-796 266.17,-796 266.17,-802 260.17,-808 254.17,-808"/>
<text text-anchor="middle" x="239.17" y="-786.3" font-family="Helvetica,sans-Serif" font-size="14.00">Scale</text>
</g>
<!-- CanScale&#45;&gt;Scale -->
<g id="edge22" class="edge">
<title>CanScale&#45;&gt;Scale</title>
<path fill="none" stroke="black" d="M254.32,-858.8C251.81,-847.58 248.48,-832.67 245.58,-819.69"/>
<polygon fill="black" stroke="black" points="249,-818.94 243.4,-809.94 242.17,-820.47 249,-818.94"/>
</g>
<!-- CanChemicalFormula -->
<g id="node16" class="node">
<title>CanChemicalFormula</title>
<ellipse fill="khaki" stroke="black" cx="796.17" cy="-717" rx="105.88" ry="18"/>
<text text-anchor="middle" x="796.17" y="-713.3" font-family="Helvetica,sans-Serif" font-size="14.00">CanChemicalFormula</text>
</g>
<!-- SetSampleMaterial2 -->
<g id="node30" class="node">
<title>SetSampleMaterial2</title>
<path fill="lightskyblue" stroke="black" d="M1093.17,-648C1093.17,-648 971.17,-648 971.17,-648 965.17,-648 959.17,-642 959.17,-636 959.17,-636 959.17,-624 959.17,-624 959.17,-618 965.17,-612 971.17,-612 971.17,-612 1093.17,-612 1093.17,-612 1099.17,-612 1105.17,-618 1105.17,-624 1105.17,-624 1105.17,-636 1105.17,-636 1105.17,-642 1099.17,-648 1093.17,-648"/>
<text text-anchor="middle" x="1032.17" y="-626.3" font-family="Helvetica,sans-Serif" font-size="14.00">SetSampleMaterial</text>
</g>
<!-- CanChemicalFormula&#45;&gt;SetSampleMaterial2 -->
<g id="edge26" class="edge">
<title>CanChemicalFormula&#45;&gt;SetSampleMaterial2</title>
<path fill="none" stroke="black" d="M840,-700.21C877.45,-686.73 931.65,-667.2 972.94,-652.33"/>
<polygon fill="black" stroke="black" points="974.04,-655.66 982.26,-648.97 971.67,-649.07 974.04,-655.66"/>
</g>
<!-- CanNumberDensity -->
<g id="node17" class="node">
<title>CanNumberDensity</title>
<ellipse fill="khaki" stroke="black" cx="1019.17" cy="-717" rx="98.58" ry="18"/>
<text text-anchor="middle" x="1019.17" y="-713.3" font-family="Helvetica,sans-Serif" font-size="14.00">CanNumberDensity</text>
</g>
<!-- CanNumberDensity&#45;&gt;SetSampleMaterial2 -->
<g id="edge27" class="edge">
<title>CanNumberDensity&#45;&gt;SetSampleMaterial2</title>
<path fill="none" stroke="black" d="M1021.8,-698.8C1023.51,-687.58 1025.79,-672.67 1027.78,-659.69"/>
<polygon fill="black" stroke="black" points="1031.21,-660.38 1029.27,-649.96 1024.3,-659.32 1031.21,-660.38"/>
</g>
<!-- CanInnerRadius -->
<g id="node18" class="node">
<title>CanInnerRadius</title>
<ellipse fill="khaki" stroke="black" cx="234.17" cy="-630" rx="83.39" ry="18"/>
<text text-anchor="middle" x="234.17" y="-626.3" font-family="Helvetica,sans-Serif" font-size="14.00">CanInnerRadius</text>
</g>
<!-- CanInnerRadius&#45;&gt;AnnulusAbsorption2 -->
<g id="edge29" class="edge">
<title>CanInnerRadius&#45;&gt;AnnulusAbsorption2</title>
<path fill="none" stroke="black" d="M291.46,-616.64C357.37,-602.42 466.26,-578.93 542.31,-562.52"/>
<polygon fill="black" stroke="black" points="542.77,-566 551.8,-560.47 541.29,-559.16 542.77,-566"/>
</g>
<!-- CanOuterRadius -->
<g id="node19" class="node">
<title>CanOuterRadius</title>
<ellipse fill="khaki" stroke="black" cx="420.17" cy="-630" rx="85.29" ry="18"/>
<text text-anchor="middle" x="420.17" y="-626.3" font-family="Helvetica,sans-Serif" font-size="14.00">CanOuterRadius</text>
</g>
<!-- CanOuterRadius&#45;&gt;AnnulusAbsorption2 -->
<g id="edge30" class="edge">
<title>CanOuterRadius&#45;&gt;AnnulusAbsorption2</title>
<path fill="none" stroke="black" d="M457.83,-613.61C490.55,-600.24 538.28,-580.73 574.9,-565.77"/>
<polygon fill="black" stroke="black" points="576.07,-569.07 584,-562.05 573.42,-562.59 576.07,-569.07"/>
</g>
<!-- ElementSize1 -->
<g id="node20" class="node">
<title>ElementSize1</title>
<ellipse fill="khaki" stroke="black" cx="1002.17" cy="-1451" rx="66.09" ry="18"/>
<text text-anchor="middle" x="1002.17" y="-1447.3" font-family="Helvetica,sans-Serif" font-size="14.00">ElementSize</text>
</g>
<!-- ElementSize1&#45;&gt;AnnulusAbsorption1 -->
<g id="edge12" class="edge">
<title>ElementSize1&#45;&gt;AnnulusAbsorption1</title>
<path fill="none" stroke="black" d="M1002.17,-1432.81C1002.17,-1425.23 1002.17,-1416.1 1002.17,-1407.54"/>
<polygon fill="black" stroke="black" points="1005.67,-1407.54 1002.17,-1397.54 998.67,-1407.54 1005.67,-1407.54"/>
</g>
<!-- SampleLogs -->
<g id="node21" class="node">
<title>SampleLogs</title>
<ellipse fill="khaki" stroke="black" cx="367.17" cy="-237" rx="65.79" ry="18"/>
<text text-anchor="middle" x="367.17" y="-233.3" font-family="Helvetica,sans-Serif" font-size="14.00">SampleLogs</text>
</g>
<!-- AddSampleLogMultiple -->
<g id="node39" class="node">
<title>AddSampleLogMultiple</title>
<path fill="lightskyblue" stroke="black" d="M454.67,-182C454.67,-182 303.67,-182 303.67,-182 297.67,-182 291.67,-176 291.67,-170 291.67,-170 291.67,-158 291.67,-158 291.67,-152 297.67,-146 303.67,-146 303.67,-146 454.67,-146 454.67,-146 460.67,-146 466.67,-152 466.67,-158 466.67,-158 466.67,-170 466.67,-170 466.67,-176 460.67,-182 454.67,-182"/>
<text text-anchor="middle" x="379.17" y="-160.3" font-family="Helvetica,sans-Serif" font-size="14.00">AddSampleLogMultiple</text>
</g>
<!-- SampleLogs&#45;&gt;AddSampleLogMultiple -->
<g id="edge48" class="edge">
<title>SampleLogs&#45;&gt;AddSampleLogMultiple</title>
<path fill="none" stroke="black" d="M370.07,-218.81C371.37,-211.14 372.93,-201.89 374.39,-193.24"/>
<polygon fill="black" stroke="black" points="377.82,-193.96 376.04,-183.52 370.92,-192.8 377.82,-193.96"/>
</g>
<!-- EFixed1 -->
<g id="node22" class="node">
<title>EFixed1</title>
<ellipse fill="khaki" stroke="black" cx="1096.17" cy="-1684" rx="38.99" ry="18"/>
<text text-anchor="middle" x="1096.17" y="-1680.3" font-family="Helvetica,sans-Serif" font-size="14.00">eFixed</text>
</g>
<!-- EFixed1&#45;&gt;ConvertUnits1 -->
<g id="edge3" class="edge">
<title>EFixed1&#45;&gt;ConvertUnits1</title>
<path fill="none" stroke="black" d="M1113.96,-1667.59C1124.32,-1658.62 1137.63,-1647.1 1149.44,-1636.88"/>
<polygon fill="black" stroke="black" points="1151.69,-1639.55 1156.96,-1630.36 1147.11,-1634.26 1151.69,-1639.55"/>
</g>
<!-- EFixed1&#45;&gt;AnnulusAbsorption1 -->
<g id="edge13" class="edge">
<title>EFixed1&#45;&gt;AnnulusAbsorption1</title>
<path fill="none" stroke="black" d="M1096.17,-1665.78C1096.17,-1651.41 1096.17,-1630.37 1096.17,-1612 1096.17,-1612 1096.17,-1612 1096.17,-1450 1096.17,-1428.85 1080.83,-1413.2 1062.54,-1402.06"/>
<polygon fill="black" stroke="black" points="1064.24,-1399 1053.79,-1397.22 1060.85,-1405.12 1064.24,-1399"/>
</g>
<!-- EFixed2 -->
<g id="node23" class="node">
<title>EFixed2</title>
<ellipse fill="khaki" stroke="black" cx="773.17" cy="-1145" rx="38.99" ry="18"/>
<text text-anchor="middle" x="773.17" y="-1141.3" font-family="Helvetica,sans-Serif" font-size="14.00">eFixed</text>
</g>
<!-- EFixed2&#45;&gt;ConvertUnits2 -->
<g id="edge18" class="edge">
<title>EFixed2&#45;&gt;ConvertUnits2</title>
<path fill="none" stroke="black" d="M773.17,-1126.97C773.17,-1110.76 773.17,-1086.06 773.17,-1066.79"/>
<polygon fill="black" stroke="black" points="776.67,-1066.85 773.17,-1056.85 769.67,-1066.85 776.67,-1066.85"/>
</g>
<!-- OutputWorkspace -->
<g id="node24" class="node">
<title>OutputWorkspace</title>
<ellipse fill="khaki" stroke="black" cx="379.17" cy="-18" rx="91.78" ry="18"/>
<text text-anchor="middle" x="379.17" y="-14.3" font-family="Helvetica,sans-Serif" font-size="14.00">OutputWorkspace</text>
</g>
<!-- GetEFixed&#45;&gt;EFixed1 -->
<g id="edge2" class="edge">
<title>GetEFixed&#45;&gt;EFixed1</title>
<path fill="none" stroke="black" d="M1102.23,-1738.81C1101.37,-1731.14 1100.32,-1721.89 1099.35,-1713.24"/>
<polygon fill="black" stroke="black" points="1102.85,-1713.08 1098.26,-1703.53 1095.9,-1713.86 1102.85,-1713.08"/>
</g>
<!-- ConvertUnits1&#45;&gt;SampleWorkspace_Wave -->
<g id="edge5" class="edge">
<title>ConvertUnits1&#45;&gt;SampleWorkspace_Wave</title>
<path fill="none" stroke="black" d="M1191.93,-1592.8C1201.51,-1580.82 1214.47,-1564.62 1225.32,-1551.06"/>
<polygon fill="black" stroke="black" points="1227.97,-1553.35 1231.48,-1543.36 1222.5,-1548.98 1227.97,-1553.35"/>
<text text-anchor="middle" x="1362.17" y="-1563.8" font-family="Helvetica,sans-Serif" font-size="14.00">Convert input workspace into Wavelength</text>
</g>
<!-- ConvertUnits2&#45;&gt;CanWorkspace_Wave -->
<g id="edge19" class="edge">
<title>ConvertUnits2&#45;&gt;CanWorkspace_Wave</title>
<path fill="none" stroke="black" d="M719.37,-1024.09C652.62,-1009.32 538.45,-984.04 463.4,-967.43"/>
<polygon fill="black" stroke="black" points="464.16,-964.02 453.64,-965.27 462.65,-970.85 464.16,-964.02"/>
<text text-anchor="middle" x="744.17" y="-989.8" font-family="Helvetica,sans-Serif" font-size="14.00">Convert can workspace into Wavelength</text>
</g>
<!-- ConvertUnits3&#45;&gt;AddSampleLogMultiple -->
<g id="edge47" class="edge">
<title>ConvertUnits3&#45;&gt;AddSampleLogMultiple</title>
<path fill="none" stroke="black" d="M473.59,-218.63C457.4,-209.43 437.3,-198.02 419.81,-188.08"/>
<polygon fill="black" stroke="black" points="421.6,-185.08 411.18,-183.18 418.15,-191.17 421.6,-185.08"/>
</g>
<!-- SetSampleMaterial1&#45;&gt;AnnulusAbsorption1 -->
<g id="edge9" class="edge">
<title>SetSampleMaterial1&#45;&gt;AnnulusAbsorption1</title>
<path fill="none" stroke="black" d="M1363.87,-1438.04C1287.67,-1425.6 1168.49,-1406.15 1087.96,-1393"/>
<polygon fill="black" stroke="black" points="1088.79,-1389.59 1078.36,-1391.44 1087.66,-1396.5 1088.79,-1389.59"/>
</g>
<!-- SetSampleMaterial2&#45;&gt;AnnulusAbsorption2 -->
<g id="edge28" class="edge">
<title>SetSampleMaterial2&#45;&gt;AnnulusAbsorption2</title>
<path fill="none" stroke="black" d="M959.01,-613.61C890.01,-599.09 786.6,-577.33 713.8,-562.02"/>
<polygon fill="black" stroke="black" points="714.82,-558.66 704.32,-560.02 713.38,-565.51 714.82,-558.66"/>
</g>
<!-- Divide1 -->
<g id="node34" class="node">
<title>Divide1</title>
<path fill="lightskyblue" stroke="black" d="M646.17,-488C646.17,-488 610.17,-488 610.17,-488 604.17,-488 598.17,-482 598.17,-476 598.17,-476 598.17,-464 598.17,-464 598.17,-458 604.17,-452 610.17,-452 610.17,-452 646.17,-452 646.17,-452 652.17,-452 658.17,-458 658.17,-464 658.17,-464 658.17,-476 658.17,-476 658.17,-482 652.17,-488 646.17,-488"/>
<text text-anchor="middle" x="628.17" y="-466.3" font-family="Helvetica,sans-Serif" font-size="14.00">Divide</text>
</g>
<!-- SetSampleMaterial2&#45;&gt;Divide1 -->
<g id="edge35" class="edge">
<title>SetSampleMaterial2&#45;&gt;Divide1</title>
<path fill="none" stroke="black" d="M1031.62,-611.58C1029.87,-588.06 1023.05,-546.61 997.17,-525 948.16,-484.08 755.65,-474.16 669.84,-471.76"/>
<polygon fill="black" stroke="black" points="670.06,-468.27 659.98,-471.51 669.89,-475.26 670.06,-468.27"/>
</g>
<!-- AnnulusAbsorption1&#45;&gt;AbsWorkspace1 -->
<g id="edge14" class="edge">
<title>AnnulusAbsorption1&#45;&gt;AbsWorkspace1</title>
<path fill="none" stroke="black" d="M1002.17,-1359.81C1002.17,-1352.23 1002.17,-1343.1 1002.17,-1334.54"/>
<polygon fill="black" stroke="black" points="1005.67,-1334.54 1002.17,-1324.54 998.67,-1334.54 1005.67,-1334.54"/>
</g>
<!-- AnnulusAbsorption2&#45;&gt;AnnulusAbsorption2 -->
<g id="edge33" class="edge">
<title>AnnulusAbsorption2&#45;&gt;AnnulusAbsorption2</title>
<path fill="none" stroke="black" d="M702.93,-549.14C713.54,-548.15 720.67,-546.1 720.67,-543 720.67,-541.21 718.29,-539.77 714.23,-538.68"/>
<polygon fill="black" stroke="black" points="714.86,-535.23 704.43,-537.1 713.74,-542.15 714.86,-535.23"/>
<text text-anchor="middle" x="854.67" y="-539.3" font-family="Helvetica,sans-Serif" font-size="14.00">Repeated for Inner/Outer, Can/Sample</text>
</g>
<!-- AnnulusAbsorption2&#45;&gt;Divide1 -->
<g id="edge34" class="edge">
<title>AnnulusAbsorption2&#45;&gt;Divide1</title>
<path fill="none" stroke="black" d="M628.17,-524.81C628.17,-517.23 628.17,-508.1 628.17,-499.54"/>
<polygon fill="black" stroke="black" points="631.67,-499.54 628.17,-489.54 624.67,-499.54 631.67,-499.54"/>
</g>
<!-- useCorrections -->
<g id="node43" class="node">
<title>useCorrections</title>
<polygon fill="limegreen" stroke="black" points="123.17,-735 -0.17,-717 123.17,-699 246.5,-717 123.17,-735"/>
<text text-anchor="middle" x="123.17" y="-713.3" font-family="Helvetica,sans-Serif" font-size="14.00">Can Corrections?</text>
</g>
<!-- Scale&#45;&gt;useCorrections -->
<g id="edge23" class="edge">
<title>Scale&#45;&gt;useCorrections</title>
<path fill="none" stroke="black" d="M211.68,-772.17C194.83,-761.86 173.19,-748.61 155.52,-737.8"/>
<polygon fill="black" stroke="black" points="157.81,-735.1 147.46,-732.87 154.16,-741.07 157.81,-735.1"/>
</g>
<!-- Divide1&#45;&gt;Minus1 -->
<g id="edge36" class="edge">
<title>Divide1&#45;&gt;Minus1</title>
<path fill="none" stroke="black" d="M597.83,-451.63C581.41,-442.23 560.94,-430.51 543.32,-420.42"/>
<polygon fill="black" stroke="black" points="545.06,-417.38 534.65,-415.45 541.59,-423.46 545.06,-417.38"/>
</g>
<!-- Divide2&#45;&gt;SampleWorkspace_Wave2 -->
<g id="edge44" class="edge">
<title>Divide2&#45;&gt;SampleWorkspace_Wave2</title>
<path fill="none" stroke="black" d="M414.28,-378.63C429.92,-369.3 449.4,-357.68 466.22,-347.64"/>
<polygon fill="black" stroke="black" points="467.67,-350.85 474.47,-342.72 464.09,-344.84 467.67,-350.85"/>
</g>
<!-- Divide3 -->
<g id="node36" class="node">
<title>Divide3</title>
<path fill="lightskyblue" stroke="black" d="M1118.17,-1109C1118.17,-1109 1082.17,-1109 1082.17,-1109 1076.17,-1109 1070.17,-1103 1070.17,-1097 1070.17,-1097 1070.17,-1085 1070.17,-1085 1070.17,-1079 1076.17,-1073 1082.17,-1073 1082.17,-1073 1118.17,-1073 1118.17,-1073 1124.17,-1073 1130.17,-1079 1130.17,-1085 1130.17,-1085 1130.17,-1097 1130.17,-1097 1130.17,-1103 1124.17,-1109 1118.17,-1109"/>
<text text-anchor="middle" x="1100.17" y="-1087.3" font-family="Helvetica,sans-Serif" font-size="14.00">Divide</text>
</g>
<!-- Divide3&#45;&gt;SampleWorkspace_Wave2 -->
<g id="edge45" class="edge">
<title>Divide3&#45;&gt;SampleWorkspace_Wave2</title>
<path fill="none" stroke="black" d="M1114.47,-1072.55C1127.97,-1054.26 1146.17,-1024.13 1146.17,-994.5 1146.17,-994.5 1146.17,-994.5 1146.17,-396 1146.17,-345.24 825.05,-330.77 637.03,-326.64"/>
<polygon fill="black" stroke="black" points="637.26,-323.15 627.19,-326.43 637.11,-330.14 637.26,-323.15"/>
</g>
<!-- Minus1&#45;&gt;SampleWorkspace_Wave2 -->
<g id="edge43" class="edge">
<title>Minus1&#45;&gt;SampleWorkspace_Wave2</title>
<path fill="none" stroke="black" d="M504.17,-378.81C504.17,-371.23 504.17,-362.1 504.17,-353.54"/>
<polygon fill="black" stroke="black" points="507.67,-353.54 504.17,-343.54 500.67,-353.54 507.67,-353.54"/>
</g>
<!-- Minus2&#45;&gt;Divide2 -->
<g id="edge40" class="edge">
<title>Minus2&#45;&gt;Divide2</title>
<path fill="none" stroke="black" d="M385.17,-451.81C385.17,-444.23 385.17,-435.1 385.17,-426.54"/>
<polygon fill="black" stroke="black" points="388.67,-426.54 385.17,-416.54 381.67,-426.54 388.67,-426.54"/>
</g>
<!-- GroupWorkspaces -->
<g id="node40" class="node">
<title>GroupWorkspaces</title>
<path fill="lightskyblue" stroke="black" d="M438.17,-109C438.17,-109 320.17,-109 320.17,-109 314.17,-109 308.17,-103 308.17,-97 308.17,-97 308.17,-85 308.17,-85 308.17,-79 314.17,-73 320.17,-73 320.17,-73 438.17,-73 438.17,-73 444.17,-73 450.17,-79 450.17,-85 450.17,-85 450.17,-97 450.17,-97 450.17,-103 444.17,-109 438.17,-109"/>
<text text-anchor="middle" x="379.17" y="-87.3" font-family="Helvetica,sans-Serif" font-size="14.00">GroupWorkspaces</text>
</g>
<!-- AddSampleLogMultiple&#45;&gt;GroupWorkspaces -->
<g id="edge49" class="edge">
<title>AddSampleLogMultiple&#45;&gt;GroupWorkspaces</title>
<path fill="none" stroke="black" d="M379.17,-145.81C379.17,-138.23 379.17,-129.1 379.17,-120.54"/>
<polygon fill="black" stroke="black" points="382.67,-120.54 379.17,-110.54 375.67,-120.54 382.67,-120.54"/>
</g>
<!-- GroupWorkspaces&#45;&gt;OutputWorkspace -->
<g id="edge50" class="edge">
<title>GroupWorkspaces&#45;&gt;OutputWorkspace</title>
<path fill="none" stroke="black" d="M379.17,-72.81C379.17,-65.23 379.17,-56.1 379.17,-47.54"/>
<polygon fill="black" stroke="black" points="382.67,-47.54 379.17,-37.54 375.67,-47.54 382.67,-47.54"/>
</g>
<!-- canGiven&#45;&gt;CanWorkspace -->
<g id="edge16" class="edge">
<title>canGiven&#45;&gt;CanWorkspace</title>
<path fill="none" stroke="black" d="M989.88,-1215.41C980.27,-1203.22 966.71,-1186.02 955.49,-1171.79"/>
<polygon fill="black" stroke="black" points="958.4,-1169.82 949.46,-1164.14 952.91,-1174.16 958.4,-1169.82"/>
<text text-anchor="middle" x="984.67" y="-1184.8" font-family="Helvetica,sans-Serif" font-size="14.00">Yes</text>
</g>
<!-- canGiven&#45;&gt;Divide3 -->
<g id="edge42" class="edge">
<title>canGiven&#45;&gt;Divide3</title>
<path fill="none" stroke="black" d="M1013.22,-1215.33C1029.79,-1191.83 1061.27,-1147.17 1081.46,-1118.54"/>
<polygon fill="black" stroke="black" points="1084.31,-1120.56 1087.21,-1110.37 1078.59,-1116.53 1084.31,-1120.56"/>
<text text-anchor="middle" x="1046.67" y="-1184.8" font-family="Helvetica,sans-Serif" font-size="14.00">No</text>
</g>
<!-- canScale&#45;&gt;Scale -->
<g id="edge21" class="edge">
<title>canScale&#45;&gt;Scale</title>
<path fill="none" stroke="black" d="M112.51,-860.95C120.09,-849.88 131.69,-835.21 145.17,-826 165.7,-811.96 174.89,-816.77 198.17,-808 199.28,-807.58 200.42,-807.15 201.56,-806.71"/>
<polygon fill="black" stroke="black" points="202.51,-810.09 210.51,-803.15 199.93,-803.59 202.51,-810.09"/>
<text text-anchor="middle" x="194.67" y="-829.8" font-family="Helvetica,sans-Serif" font-size="14.00">Not equal to 1</text>
</g>
<!-- canScale&#45;&gt;useCorrections -->
<g id="edge24" class="edge">
<title>canScale&#45;&gt;useCorrections</title>
<path fill="none" stroke="black" d="M106.23,-859.3C107.24,-853.51 108.31,-846.98 109.17,-841 113.78,-808.64 117.85,-771.31 120.4,-746.34"/>
<polygon fill="black" stroke="black" points="123.86,-746.96 121.37,-736.66 116.89,-746.26 123.86,-746.96"/>
<text text-anchor="middle" x="153.67" y="-786.3" font-family="Helvetica,sans-Serif" font-size="14.00">Equal to 1</text>
</g>
<!-- useCorrections&#45;&gt;SetSampleMaterial2 -->
<g id="edge25" class="edge">
<title>useCorrections&#45;&gt;SetSampleMaterial2</title>
<path fill="none" stroke="black" d="M215.98,-712.08C367.32,-704.86 676.71,-686.7 947.68,-648.26"/>
<polygon fill="black" stroke="black" points="948.03,-651.74 957.43,-646.86 947.03,-644.81 948.03,-651.74"/>
<text text-anchor="middle" x="804.67" y="-669.8" font-family="Helvetica,sans-Serif" font-size="14.00">Yes</text>
</g>
<!-- useCorrections&#45;&gt;Minus2 -->
<g id="edge38" class="edge">
<title>useCorrections&#45;&gt;Minus2</title>
<path fill="none" stroke="black" d="M122.11,-698.87C121.62,-676.78 123.8,-638.12 142.17,-612 168.16,-575.04 283.82,-517.72 345.73,-488.87"/>
<polygon fill="black" stroke="black" points="346.93,-492.17 354.54,-484.8 343.99,-485.82 346.93,-492.17"/>
<text text-anchor="middle" x="189.67" y="-582.8" font-family="Helvetica,sans-Serif" font-size="14.00">No</text>
</g>
</g>
</svg>
