<?xml version="1.0" encoding="UTF-8" standalone="no"?>
<!DOCTYPE svg PUBLIC "-//W3C//DTD SVG 1.1//EN"
 "http://www.w3.org/Graphics/SVG/1.1/DTD/svg11.dtd">
<!-- Generated by graphviz version 13.0.1 (20250616.1512)
 -->
<!-- Title: IndirectILLReductionFWS Pages: 1 -->
<svg width="931pt" height="832pt"
 viewBox="0.00 0.00 931.00 832.00" xmlns="http://www.w3.org/2000/svg" xmlns:xlink="http://www.w3.org/1999/xlink">
<g id="graph0" class="graph" transform="scale(1 1) rotate(0) translate(4 827.75)">
<title>IndirectILLReductionFWS</title>
<polygon fill="white" stroke="none" points="-4,4 -4,-827.75 927.17,-827.75 927.17,4 -4,4"/>
<text xml:space="preserve" text-anchor="middle" x="461.59" y="-806.45" font-family="Helvetica,sans-Serif" font-size="14.00">IndirectILLReductionFWS Flowchart</text>
<!-- OutputWorkspace -->
<g id="node1" class="node">
<title>OutputWorkspace</title>
<polygon fill="grey" stroke="black" points="518.02,-36 349.64,-36 306.33,0 474.7,0 518.02,-36"/>
<text xml:space="preserve" text-anchor="middle" x="412.17" y="-11.82" font-family="Times,serif" font-size="14.00">OutputWorkspace</text>
</g>
<!-- Run -->
<g id="node2" class="node">
<title>Run</title>
<ellipse fill="khaki" stroke="black" cx="816.17" cy="-634.5" rx="30.16" ry="18"/>
<text xml:space="preserve" text-anchor="middle" x="816.17" y="-629.83" font-family="Helvetica,sans-Serif" font-size="14.00">Run</text>
</g>
<!-- SelectNexusFilesByMetadata -->
<g id="node11" class="node">
<title>SelectNexusFilesByMetadata</title>
<path fill="lightskyblue" stroke="black" d="M911.17,-579.5C911.17,-579.5 721.17,-579.5 721.17,-579.5 715.17,-579.5 709.17,-573.5 709.17,-567.5 709.17,-567.5 709.17,-555.5 709.17,-555.5 709.17,-549.5 715.17,-543.5 721.17,-543.5 721.17,-543.5 911.17,-543.5 911.17,-543.5 917.17,-543.5 923.17,-549.5 923.17,-555.5 923.17,-555.5 923.17,-567.5 923.17,-567.5 923.17,-573.5 917.17,-579.5 911.17,-579.5"/>
<text xml:space="preserve" text-anchor="middle" x="816.17" y="-556.83" font-family="Helvetica,sans-Serif" font-size="14.00">SelectNexusFilesByMetadata</text>
</g>
<!-- Run&#45;&gt;SelectNexusFilesByMetadata -->
<g id="edge1" class="edge">
<title>Run&#45;&gt;SelectNexusFilesByMetadata</title>
<path fill="none" stroke="black" d="M816.17,-616.31C816.17,-608.73 816.17,-599.6 816.17,-591.04"/>
<polygon fill="black" stroke="black" points="819.67,-591.04 816.17,-581.04 812.67,-591.04 819.67,-591.04"/>
</g>
<!-- Observable -->
<g id="node3" class="node">
<title>Observable</title>
<ellipse fill="khaki" stroke="black" cx="685.17" cy="-415.5" rx="66.99" ry="18"/>
<text xml:space="preserve" text-anchor="middle" x="685.17" y="-410.82" font-family="Helvetica,sans-Serif" font-size="14.00">Observable</text>
</g>
<!-- Scan -->
<g id="node29" class="node">
<title>Scan</title>
<polygon fill="lightseagreen" stroke="black" points="716.17,-344.25 662.17,-344.25 662.17,-308.25 716.17,-308.25 716.17,-344.25"/>
<text xml:space="preserve" text-anchor="middle" x="689.17" y="-321.57" font-family="Helvetica,sans-Serif" font-size="14.00">Scan</text>
</g>
<!-- Observable&#45;&gt;Scan -->
<g id="edge5" class="edge">
<title>Observable&#45;&gt;Scan</title>
<path fill="none" stroke="black" d="M685.96,-397.26C686.51,-385.43 687.24,-369.45 687.87,-355.75"/>
<polygon fill="black" stroke="black" points="691.35,-356.11 688.31,-345.96 684.36,-355.79 691.35,-356.11"/>
</g>
<!-- CalibrationRun -->
<g id="node4" class="node">
<title>CalibrationRun</title>
<ellipse fill="khaki" stroke="black" cx="367.17" cy="-707.5" rx="82.77" ry="18"/>
<text xml:space="preserve" text-anchor="middle" x="367.17" y="-702.83" font-family="Helvetica,sans-Serif" font-size="14.00">CalibrationRun</text>
</g>
<!-- SelectNexusFilesByMetadataC -->
<g id="node13" class="node">
<title>SelectNexusFilesByMetadataC</title>
<path fill="lightskyblue" stroke="black" d="M462.17,-652.5C462.17,-652.5 272.17,-652.5 272.17,-652.5 266.17,-652.5 260.17,-646.5 260.17,-640.5 260.17,-640.5 260.17,-628.5 260.17,-628.5 260.17,-622.5 266.17,-616.5 272.17,-616.5 272.17,-616.5 462.17,-616.5 462.17,-616.5 468.17,-616.5 474.17,-622.5 474.17,-628.5 474.17,-628.5 474.17,-640.5 474.17,-640.5 474.17,-646.5 468.17,-652.5 462.17,-652.5"/>
<text xml:space="preserve" text-anchor="middle" x="367.17" y="-629.83" font-family="Helvetica,sans-Serif" font-size="14.00">SelectNexusFilesByMetadata</text>
</g>
<!-- CalibrationRun&#45;&gt;SelectNexusFilesByMetadataC -->
<g id="edge12" class="edge">
<title>CalibrationRun&#45;&gt;SelectNexusFilesByMetadataC</title>
<path fill="none" stroke="black" d="M367.17,-689.31C367.17,-681.73 367.17,-672.6 367.17,-664.04"/>
<polygon fill="black" stroke="black" points="370.67,-664.04 367.17,-654.04 363.67,-664.04 370.67,-664.04"/>
</g>
<!-- BackgroundRun -->
<g id="node5" class="node">
<title>BackgroundRun</title>
<ellipse fill="khaki" stroke="black" cx="599.17" cy="-707.5" rx="88.56" ry="18"/>
<text xml:space="preserve" text-anchor="middle" x="599.17" y="-702.83" font-family="Helvetica,sans-Serif" font-size="14.00">BackgroundRun</text>
</g>
<!-- SelectNexusFilesByMetadataB -->
<g id="node12" class="node">
<title>SelectNexusFilesByMetadataB</title>
<path fill="lightskyblue" stroke="black" d="M694.17,-652.5C694.17,-652.5 504.17,-652.5 504.17,-652.5 498.17,-652.5 492.17,-646.5 492.17,-640.5 492.17,-640.5 492.17,-628.5 492.17,-628.5 492.17,-622.5 498.17,-616.5 504.17,-616.5 504.17,-616.5 694.17,-616.5 694.17,-616.5 700.17,-616.5 706.17,-622.5 706.17,-628.5 706.17,-628.5 706.17,-640.5 706.17,-640.5 706.17,-646.5 700.17,-652.5 694.17,-652.5"/>
<text xml:space="preserve" text-anchor="middle" x="599.17" y="-629.83" font-family="Helvetica,sans-Serif" font-size="14.00">SelectNexusFilesByMetadata</text>
</g>
<!-- BackgroundRun&#45;&gt;SelectNexusFilesByMetadataB -->
<g id="edge6" class="edge">
<title>BackgroundRun&#45;&gt;SelectNexusFilesByMetadataB</title>
<path fill="none" stroke="black" d="M599.17,-689.31C599.17,-681.73 599.17,-672.6 599.17,-664.04"/>
<polygon fill="black" stroke="black" points="602.67,-664.04 599.17,-654.04 595.67,-664.04 602.67,-664.04"/>
</g>
<!-- CalibrationBackgroundRun -->
<g id="node6" class="node">
<title>CalibrationBackgroundRun</title>
<ellipse fill="khaki" stroke="black" cx="141.17" cy="-780.5" rx="141.17" ry="18"/>
<text xml:space="preserve" text-anchor="middle" x="141.17" y="-775.83" font-family="Helvetica,sans-Serif" font-size="14.00">CalibrationBackgroundRun</text>
</g>
<!-- SelectNexusFilesByMetadataCB -->
<g id="node14" class="node">
<title>SelectNexusFilesByMetadataCB</title>
<path fill="lightskyblue" stroke="black" d="M236.17,-725.5C236.17,-725.5 46.17,-725.5 46.17,-725.5 40.17,-725.5 34.17,-719.5 34.17,-713.5 34.17,-713.5 34.17,-701.5 34.17,-701.5 34.17,-695.5 40.17,-689.5 46.17,-689.5 46.17,-689.5 236.17,-689.5 236.17,-689.5 242.17,-689.5 248.17,-695.5 248.17,-701.5 248.17,-701.5 248.17,-713.5 248.17,-713.5 248.17,-719.5 242.17,-725.5 236.17,-725.5"/>
<text xml:space="preserve" text-anchor="middle" x="141.17" y="-702.83" font-family="Helvetica,sans-Serif" font-size="14.00">SelectNexusFilesByMetadata</text>
</g>
<!-- CalibrationBackgroundRun&#45;&gt;SelectNexusFilesByMetadataCB -->
<g id="edge25" class="edge">
<title>CalibrationBackgroundRun&#45;&gt;SelectNexusFilesByMetadataCB</title>
<path fill="none" stroke="black" d="M141.17,-762.31C141.17,-754.73 141.17,-745.6 141.17,-737.04"/>
<polygon fill="black" stroke="black" points="144.67,-737.04 141.17,-727.04 137.67,-737.04 144.67,-737.04"/>
</g>
<!-- IndirectILLEnergyTransfer -->
<g id="node7" class="node">
<title>IndirectILLEnergyTransfer</title>
<path fill="lightskyblue" stroke="black" d="M901.05,-506.5C901.05,-506.5 731.3,-506.5 731.3,-506.5 725.3,-506.5 719.3,-500.5 719.3,-494.5 719.3,-494.5 719.3,-482.5 719.3,-482.5 719.3,-476.5 725.3,-470.5 731.3,-470.5 731.3,-470.5 901.05,-470.5 901.05,-470.5 907.05,-470.5 913.05,-476.5 913.05,-482.5 913.05,-482.5 913.05,-494.5 913.05,-494.5 913.05,-500.5 907.05,-506.5 901.05,-506.5"/>
<text xml:space="preserve" text-anchor="middle" x="816.17" y="-483.82" font-family="Helvetica,sans-Serif" font-size="14.00">IndirectILLEnergyTransfer</text>
</g>
<!-- Integration -->
<g id="node15" class="node">
<title>Integration</title>
<path fill="lightskyblue" stroke="black" d="M850.42,-433.5C850.42,-433.5 781.92,-433.5 781.92,-433.5 775.92,-433.5 769.92,-427.5 769.92,-421.5 769.92,-421.5 769.92,-409.5 769.92,-409.5 769.92,-403.5 775.92,-397.5 781.92,-397.5 781.92,-397.5 850.42,-397.5 850.42,-397.5 856.42,-397.5 862.42,-403.5 862.42,-409.5 862.42,-409.5 862.42,-421.5 862.42,-421.5 862.42,-427.5 856.42,-433.5 850.42,-433.5"/>
<text xml:space="preserve" text-anchor="middle" x="816.17" y="-410.82" font-family="Helvetica,sans-Serif" font-size="14.00">Integration</text>
</g>
<!-- IndirectILLEnergyTransfer&#45;&gt;Integration -->
<g id="edge3" class="edge">
<title>IndirectILLEnergyTransfer&#45;&gt;Integration</title>
<path fill="none" stroke="black" d="M816.17,-470.31C816.17,-462.73 816.17,-453.6 816.17,-445.04"/>
<polygon fill="black" stroke="black" points="819.67,-445.04 816.17,-435.04 812.67,-445.04 819.67,-445.04"/>
</g>
<!-- IndirectILLEnergyTransferB -->
<g id="node8" class="node">
<title>IndirectILLEnergyTransferB</title>
<path fill="lightskyblue" stroke="black" d="M669.05,-579.5C669.05,-579.5 499.3,-579.5 499.3,-579.5 493.3,-579.5 487.3,-573.5 487.3,-567.5 487.3,-567.5 487.3,-555.5 487.3,-555.5 487.3,-549.5 493.3,-543.5 499.3,-543.5 499.3,-543.5 669.05,-543.5 669.05,-543.5 675.05,-543.5 681.05,-549.5 681.05,-555.5 681.05,-555.5 681.05,-567.5 681.05,-567.5 681.05,-573.5 675.05,-579.5 669.05,-579.5"/>
<text xml:space="preserve" text-anchor="middle" x="584.17" y="-556.83" font-family="Helvetica,sans-Serif" font-size="14.00">IndirectILLEnergyTransfer</text>
</g>
<!-- IntegrationB -->
<g id="node16" class="node">
<title>IntegrationB</title>
<path fill="lightskyblue" stroke="black" d="M611.42,-506.5C611.42,-506.5 542.92,-506.5 542.92,-506.5 536.92,-506.5 530.92,-500.5 530.92,-494.5 530.92,-494.5 530.92,-482.5 530.92,-482.5 530.92,-476.5 536.92,-470.5 542.92,-470.5 542.92,-470.5 611.42,-470.5 611.42,-470.5 617.42,-470.5 623.42,-476.5 623.42,-482.5 623.42,-482.5 623.42,-494.5 623.42,-494.5 623.42,-500.5 617.42,-506.5 611.42,-506.5"/>
<text xml:space="preserve" text-anchor="middle" x="577.17" y="-483.82" font-family="Helvetica,sans-Serif" font-size="14.00">Integration</text>
</g>
<!-- IndirectILLEnergyTransferB&#45;&gt;IntegrationB -->
<g id="edge8" class="edge">
<title>IndirectILLEnergyTransferB&#45;&gt;IntegrationB</title>
<path fill="none" stroke="black" d="M582.48,-543.31C581.72,-535.64 580.81,-526.39 579.96,-517.74"/>
<polygon fill="black" stroke="black" points="583.46,-517.64 579,-508.04 576.5,-518.33 583.46,-517.64"/>
</g>
<!-- IndirectILLEnergyTransferC -->
<g id="node9" class="node">
<title>IndirectILLEnergyTransferC</title>
<path fill="lightskyblue" stroke="black" d="M452.05,-579.5C452.05,-579.5 282.3,-579.5 282.3,-579.5 276.3,-579.5 270.3,-573.5 270.3,-567.5 270.3,-567.5 270.3,-555.5 270.3,-555.5 270.3,-549.5 276.3,-543.5 282.3,-543.5 282.3,-543.5 452.05,-543.5 452.05,-543.5 458.05,-543.5 464.05,-549.5 464.05,-555.5 464.05,-555.5 464.05,-567.5 464.05,-567.5 464.05,-573.5 458.05,-579.5 452.05,-579.5"/>
<text xml:space="preserve" text-anchor="middle" x="367.17" y="-556.83" font-family="Helvetica,sans-Serif" font-size="14.00">IndirectILLEnergyTransfer</text>
</g>
<!-- IntegrationC -->
<g id="node17" class="node">
<title>IntegrationC</title>
<path fill="lightskyblue" stroke="black" d="M404.42,-506.5C404.42,-506.5 335.92,-506.5 335.92,-506.5 329.92,-506.5 323.92,-500.5 323.92,-494.5 323.92,-494.5 323.92,-482.5 323.92,-482.5 323.92,-476.5 329.92,-470.5 335.92,-470.5 335.92,-470.5 404.42,-470.5 404.42,-470.5 410.42,-470.5 416.42,-476.5 416.42,-482.5 416.42,-482.5 416.42,-494.5 416.42,-494.5 416.42,-500.5 410.42,-506.5 404.42,-506.5"/>
<text xml:space="preserve" text-anchor="middle" x="370.17" y="-483.82" font-family="Helvetica,sans-Serif" font-size="14.00">Integration</text>
</g>
<!-- IndirectILLEnergyTransferC&#45;&gt;IntegrationC -->
<g id="edge14" class="edge">
<title>IndirectILLEnergyTransferC&#45;&gt;IntegrationC</title>
<path fill="none" stroke="black" d="M367.9,-543.31C368.22,-535.64 368.61,-526.39 368.98,-517.74"/>
<polygon fill="black" stroke="black" points="372.46,-518.18 369.39,-508.04 365.47,-517.88 372.46,-518.18"/>
</g>
<!-- IndirectILLEnergyTransferCB -->
<g id="node10" class="node">
<title>IndirectILLEnergyTransferCB</title>
<path fill="lightskyblue" stroke="black" d="M226.05,-652.5C226.05,-652.5 56.3,-652.5 56.3,-652.5 50.3,-652.5 44.3,-646.5 44.3,-640.5 44.3,-640.5 44.3,-628.5 44.3,-628.5 44.3,-622.5 50.3,-616.5 56.3,-616.5 56.3,-616.5 226.05,-616.5 226.05,-616.5 232.05,-616.5 238.05,-622.5 238.05,-628.5 238.05,-628.5 238.05,-640.5 238.05,-640.5 238.05,-646.5 232.05,-652.5 226.05,-652.5"/>
<text xml:space="preserve" text-anchor="middle" x="141.17" y="-629.83" font-family="Helvetica,sans-Serif" font-size="14.00">IndirectILLEnergyTransfer</text>
</g>
<!-- IntegrationCB -->
<g id="node18" class="node">
<title>IntegrationCB</title>
<path fill="lightskyblue" stroke="black" d="M175.42,-579.5C175.42,-579.5 106.92,-579.5 106.92,-579.5 100.92,-579.5 94.92,-573.5 94.92,-567.5 94.92,-567.5 94.92,-555.5 94.92,-555.5 94.92,-549.5 100.92,-543.5 106.92,-543.5 106.92,-543.5 175.42,-543.5 175.42,-543.5 181.42,-543.5 187.42,-549.5 187.42,-555.5 187.42,-555.5 187.42,-567.5 187.42,-567.5 187.42,-573.5 181.42,-579.5 175.42,-579.5"/>
<text xml:space="preserve" text-anchor="middle" x="141.17" y="-556.83" font-family="Helvetica,sans-Serif" font-size="14.00">Integration</text>
</g>
<!-- IndirectILLEnergyTransferCB&#45;&gt;IntegrationCB -->
<g id="edge27" class="edge">
<title>IndirectILLEnergyTransferCB&#45;&gt;IntegrationCB</title>
<path fill="none" stroke="black" d="M141.17,-616.31C141.17,-608.73 141.17,-599.6 141.17,-591.04"/>
<polygon fill="black" stroke="black" points="144.67,-591.04 141.17,-581.04 137.67,-591.04 144.67,-591.04"/>
</g>
<!-- SelectNexusFilesByMetadata&#45;&gt;IndirectILLEnergyTransfer -->
<g id="edge2" class="edge">
<title>SelectNexusFilesByMetadata&#45;&gt;IndirectILLEnergyTransfer</title>
<path fill="none" stroke="black" d="M816.17,-543.31C816.17,-535.73 816.17,-526.6 816.17,-518.04"/>
<polygon fill="black" stroke="black" points="819.67,-518.04 816.17,-508.04 812.67,-518.04 819.67,-518.04"/>
</g>
<!-- SelectNexusFilesByMetadataB&#45;&gt;IndirectILLEnergyTransferB -->
<g id="edge7" class="edge">
<title>SelectNexusFilesByMetadataB&#45;&gt;IndirectILLEnergyTransferB</title>
<path fill="none" stroke="black" d="M595.54,-616.31C593.92,-608.64 591.97,-599.39 590.14,-590.74"/>
<polygon fill="black" stroke="black" points="593.57,-590.07 588.08,-581.01 586.73,-591.52 593.57,-590.07"/>
</g>
<!-- SelectNexusFilesByMetadataC&#45;&gt;IndirectILLEnergyTransferC -->
<g id="edge13" class="edge">
<title>SelectNexusFilesByMetadataC&#45;&gt;IndirectILLEnergyTransferC</title>
<path fill="none" stroke="black" d="M367.17,-616.31C367.17,-608.73 367.17,-599.6 367.17,-591.04"/>
<polygon fill="black" stroke="black" points="370.67,-591.04 367.17,-581.04 363.67,-591.04 370.67,-591.04"/>
</g>
<!-- SelectNexusFilesByMetadataCB&#45;&gt;IndirectILLEnergyTransferCB -->
<g id="edge26" class="edge">
<title>SelectNexusFilesByMetadataCB&#45;&gt;IndirectILLEnergyTransferCB</title>
<path fill="none" stroke="black" d="M141.17,-689.31C141.17,-681.73 141.17,-672.6 141.17,-664.04"/>
<polygon fill="black" stroke="black" points="144.67,-664.04 141.17,-654.04 137.67,-664.04 144.67,-664.04"/>
</g>
<!-- Integration&#45;&gt;Scan -->
<g id="edge4" class="edge">
<title>Integration&#45;&gt;Scan</title>
<path fill="none" stroke="black" d="M790.78,-397.05C771.57,-383.86 744.98,-365.59 723.82,-351.05"/>
<polygon fill="black" stroke="black" points="726,-348.3 715.77,-345.52 722.03,-354.07 726,-348.3"/>
</g>
<!-- ScanB -->
<g id="node30" class="node">
<title>ScanB</title>
<polygon fill="lightseagreen" stroke="black" points="597.17,-433.5 543.17,-433.5 543.17,-397.5 597.17,-397.5 597.17,-433.5"/>
<text xml:space="preserve" text-anchor="middle" x="570.17" y="-410.82" font-family="Helvetica,sans-Serif" font-size="14.00">Scan</text>
</g>
<!-- IntegrationB&#45;&gt;ScanB -->
<g id="edge9" class="edge">
<title>IntegrationB&#45;&gt;ScanB</title>
<path fill="none" stroke="black" d="M575.48,-470.31C574.72,-462.64 573.81,-453.39 572.96,-444.74"/>
<polygon fill="black" stroke="black" points="576.46,-444.64 572,-435.04 569.5,-445.33 576.46,-444.64"/>
</g>
<!-- ScanC -->
<g id="node31" class="node">
<title>ScanC</title>
<polygon fill="lightseagreen" stroke="black" points="399.17,-433.5 345.17,-433.5 345.17,-397.5 399.17,-397.5 399.17,-433.5"/>
<text xml:space="preserve" text-anchor="middle" x="372.17" y="-410.82" font-family="Helvetica,sans-Serif" font-size="14.00">Scan</text>
</g>
<!-- IntegrationC&#45;&gt;ScanC -->
<g id="edge15" class="edge">
<title>IntegrationC&#45;&gt;ScanC</title>
<path fill="none" stroke="black" d="M370.66,-470.31C370.87,-462.64 371.13,-453.39 371.38,-444.74"/>
<polygon fill="black" stroke="black" points="374.87,-445.14 371.65,-435.04 367.87,-444.94 374.87,-445.14"/>
</g>
<!-- ScanCB -->
<g id="node32" class="node">
<title>ScanCB</title>
<polygon fill="lightseagreen" stroke="black" points="168.17,-506.5 114.17,-506.5 114.17,-470.5 168.17,-470.5 168.17,-506.5"/>
<text xml:space="preserve" text-anchor="middle" x="141.17" y="-483.82" font-family="Helvetica,sans-Serif" font-size="14.00">Scan</text>
</g>
<!-- IntegrationCB&#45;&gt;ScanCB -->
<g id="edge28" class="edge">
<title>IntegrationCB&#45;&gt;ScanCB</title>
<path fill="none" stroke="black" d="M141.17,-543.31C141.17,-535.73 141.17,-526.6 141.17,-518.04"/>
<polygon fill="black" stroke="black" points="144.67,-518.04 141.17,-508.04 137.67,-518.04 144.67,-518.04"/>
</g>
<!-- GroupWorkspaces -->
<g id="node19" class="node">
<title>GroupWorkspaces</title>
<path fill="lightskyblue" stroke="black" d="M470.8,-109C470.8,-109 353.55,-109 353.55,-109 347.55,-109 341.55,-103 341.55,-97 341.55,-97 341.55,-85 341.55,-85 341.55,-79 347.55,-73 353.55,-73 353.55,-73 470.8,-73 470.8,-73 476.8,-73 482.8,-79 482.8,-85 482.8,-85 482.8,-97 482.8,-97 482.8,-103 476.8,-109 470.8,-109"/>
<text xml:space="preserve" text-anchor="middle" x="412.17" y="-86.33" font-family="Helvetica,sans-Serif" font-size="14.00">GroupWorkspaces</text>
</g>
<!-- GroupWorkspaces&#45;&gt;OutputWorkspace -->
<g id="edge34" class="edge">
<title>GroupWorkspaces&#45;&gt;OutputWorkspace</title>
<path fill="none" stroke="black" d="M412.17,-72.81C412.17,-65.23 412.17,-56.1 412.17,-47.54"/>
<polygon fill="black" stroke="black" points="415.67,-47.54 412.17,-37.54 408.67,-47.54 415.67,-47.54"/>
</g>
<!-- SplineInterpolationB -->
<g id="node20" class="node">
<title>SplineInterpolationB</title>
<path fill="lightskyblue" stroke="black" d="M631.8,-344.25C631.8,-344.25 508.55,-344.25 508.55,-344.25 502.55,-344.25 496.55,-338.25 496.55,-332.25 496.55,-332.25 496.55,-320.25 496.55,-320.25 496.55,-314.25 502.55,-308.25 508.55,-308.25 508.55,-308.25 631.8,-308.25 631.8,-308.25 637.8,-308.25 643.8,-314.25 643.8,-320.25 643.8,-320.25 643.8,-332.25 643.8,-332.25 643.8,-338.25 637.8,-344.25 631.8,-344.25"/>
<text xml:space="preserve" text-anchor="middle" x="570.17" y="-321.57" font-family="Helvetica,sans-Serif" font-size="14.00">SplineInterpolation</text>
</g>
<!-- MinusA -->
<g id="node26" class="node">
<title>MinusA</title>
<path fill="lightskyblue" stroke="black" d="M573.8,-255C573.8,-255 540.55,-255 540.55,-255 534.55,-255 528.55,-249 528.55,-243 528.55,-243 528.55,-231 528.55,-231 528.55,-225 534.55,-219 540.55,-219 540.55,-219 573.8,-219 573.8,-219 579.8,-219 585.8,-225 585.8,-231 585.8,-231 585.8,-243 585.8,-243 585.8,-249 579.8,-255 573.8,-255"/>
<text xml:space="preserve" text-anchor="middle" x="557.17" y="-232.32" font-family="Helvetica,sans-Serif" font-size="14.00">Minus</text>
</g>
<!-- SplineInterpolationB&#45;&gt;MinusA -->
<g id="edge21" class="edge">
<title>SplineInterpolationB&#45;&gt;MinusA</title>
<path fill="none" stroke="black" d="M567.6,-308.01C565.84,-296.18 563.46,-280.2 561.42,-266.5"/>
<polygon fill="black" stroke="black" points="564.89,-266.07 559.96,-256.7 557.97,-267.11 564.89,-266.07"/>
</g>
<!-- SplineInterpolationC -->
<g id="node21" class="node">
<title>SplineInterpolationC</title>
<path fill="lightskyblue" stroke="black" d="M473.8,-255C473.8,-255 350.55,-255 350.55,-255 344.55,-255 338.55,-249 338.55,-243 338.55,-243 338.55,-231 338.55,-231 338.55,-225 344.55,-219 350.55,-219 350.55,-219 473.8,-219 473.8,-219 479.8,-219 485.8,-225 485.8,-231 485.8,-231 485.8,-243 485.8,-243 485.8,-249 479.8,-255 473.8,-255"/>
<text xml:space="preserve" text-anchor="middle" x="412.17" y="-232.32" font-family="Helvetica,sans-Serif" font-size="14.00">SplineInterpolation</text>
</g>
<!-- Divide -->
<g id="node28" class="node">
<title>Divide</title>
<path fill="lightskyblue" stroke="black" d="M429.92,-182C429.92,-182 394.42,-182 394.42,-182 388.42,-182 382.42,-176 382.42,-170 382.42,-170 382.42,-158 382.42,-158 382.42,-152 388.42,-146 394.42,-146 394.42,-146 429.92,-146 429.92,-146 435.92,-146 441.92,-152 441.92,-158 441.92,-158 441.92,-170 441.92,-170 441.92,-176 435.92,-182 429.92,-182"/>
<text xml:space="preserve" text-anchor="middle" x="412.17" y="-159.32" font-family="Helvetica,sans-Serif" font-size="14.00">Divide</text>
</g>
<!-- SplineInterpolationC&#45;&gt;Divide -->
<g id="edge24" class="edge">
<title>SplineInterpolationC&#45;&gt;Divide</title>
<path fill="none" stroke="black" d="M412.17,-218.81C412.17,-211.23 412.17,-202.1 412.17,-193.54"/>
<polygon fill="black" stroke="black" points="415.67,-193.54 412.17,-183.54 408.67,-193.54 415.67,-193.54"/>
</g>
<!-- SplineInterpolationCB -->
<g id="node22" class="node">
<title>SplineInterpolationCB</title>
<path fill="lightskyblue" stroke="black" d="M314.8,-433.5C314.8,-433.5 191.55,-433.5 191.55,-433.5 185.55,-433.5 179.55,-427.5 179.55,-421.5 179.55,-421.5 179.55,-409.5 179.55,-409.5 179.55,-403.5 185.55,-397.5 191.55,-397.5 191.55,-397.5 314.8,-397.5 314.8,-397.5 320.8,-397.5 326.8,-403.5 326.8,-409.5 326.8,-409.5 326.8,-421.5 326.8,-421.5 326.8,-427.5 320.8,-433.5 314.8,-433.5"/>
<text xml:space="preserve" text-anchor="middle" x="253.17" y="-410.82" font-family="Helvetica,sans-Serif" font-size="14.00">SplineInterpolation</text>
</g>
<!-- MinusB -->
<g id="node27" class="node">
<title>MinusB</title>
<path fill="lightskyblue" stroke="black" d="M290.8,-344.25C290.8,-344.25 257.55,-344.25 257.55,-344.25 251.55,-344.25 245.55,-338.25 245.55,-332.25 245.55,-332.25 245.55,-320.25 245.55,-320.25 245.55,-314.25 251.55,-308.25 257.55,-308.25 257.55,-308.25 290.8,-308.25 290.8,-308.25 296.8,-308.25 302.8,-314.25 302.8,-320.25 302.8,-320.25 302.8,-332.25 302.8,-332.25 302.8,-338.25 296.8,-344.25 290.8,-344.25"/>
<text xml:space="preserve" text-anchor="middle" x="274.17" y="-321.57" font-family="Helvetica,sans-Serif" font-size="14.00">Minus</text>
</g>
<!-- SplineInterpolationCB&#45;&gt;MinusB -->
<g id="edge32" class="edge">
<title>SplineInterpolationCB&#45;&gt;MinusB</title>
<path fill="none" stroke="black" d="M257.32,-397.26C260.2,-385.31 264.09,-369.13 267.41,-355.33"/>
<polygon fill="black" stroke="black" points="270.74,-356.46 269.68,-345.92 263.94,-354.83 270.74,-356.46"/>
</g>
<!-- IntegrationBB -->
<g id="node23" class="node">
<title>IntegrationBB</title>
<path fill="lightskyblue" stroke="black" d="M466.42,-344.25C466.42,-344.25 397.92,-344.25 397.92,-344.25 391.92,-344.25 385.92,-338.25 385.92,-332.25 385.92,-332.25 385.92,-320.25 385.92,-320.25 385.92,-314.25 391.92,-308.25 397.92,-308.25 397.92,-308.25 466.42,-308.25 466.42,-308.25 472.42,-308.25 478.42,-314.25 478.42,-320.25 478.42,-320.25 478.42,-332.25 478.42,-332.25 478.42,-338.25 472.42,-344.25 466.42,-344.25"/>
<text xml:space="preserve" text-anchor="middle" x="432.17" y="-321.57" font-family="Helvetica,sans-Serif" font-size="14.00">Integration</text>
</g>
<!-- IntegrationBB&#45;&gt;MinusA -->
<g id="edge20" class="edge">
<title>IntegrationBB&#45;&gt;MinusA</title>
<path fill="none" stroke="black" d="M457.17,-307.8C475.99,-294.67 502.01,-276.5 522.79,-262"/>
<polygon fill="black" stroke="black" points="524.78,-264.88 530.98,-256.28 520.78,-259.14 524.78,-264.88"/>
</g>
<!-- IntegrationCC -->
<g id="node24" class="node">
<title>IntegrationCC</title>
<path fill="lightskyblue" stroke="black" d="M308.42,-255C308.42,-255 239.92,-255 239.92,-255 233.92,-255 227.92,-249 227.92,-243 227.92,-243 227.92,-231 227.92,-231 227.92,-225 233.92,-219 239.92,-219 239.92,-219 308.42,-219 308.42,-219 314.42,-219 320.42,-225 320.42,-231 320.42,-231 320.42,-243 320.42,-243 320.42,-249 314.42,-255 308.42,-255"/>
<text xml:space="preserve" text-anchor="middle" x="274.17" y="-232.32" font-family="Helvetica,sans-Serif" font-size="14.00">Integration</text>
</g>
<!-- IntegrationCC&#45;&gt;Divide -->
<g id="edge23" class="edge">
<title>IntegrationCC&#45;&gt;Divide</title>
<path fill="none" stroke="black" d="M307.93,-218.63C327.23,-208.7 351.55,-196.19 371.85,-185.75"/>
<polygon fill="black" stroke="black" points="373.41,-188.88 380.7,-181.19 370.21,-182.65 373.41,-188.88"/>
</g>
<!-- IntegrationCCBB -->
<g id="node25" class="node">
<title>IntegrationCCBB</title>
<path fill="lightskyblue" stroke="black" d="M149.42,-433.5C149.42,-433.5 80.92,-433.5 80.92,-433.5 74.92,-433.5 68.92,-427.5 68.92,-421.5 68.92,-421.5 68.92,-409.5 68.92,-409.5 68.92,-403.5 74.92,-397.5 80.92,-397.5 80.92,-397.5 149.42,-397.5 149.42,-397.5 155.42,-397.5 161.42,-403.5 161.42,-409.5 161.42,-409.5 161.42,-421.5 161.42,-421.5 161.42,-427.5 155.42,-433.5 149.42,-433.5"/>
<text xml:space="preserve" text-anchor="middle" x="115.17" y="-410.82" font-family="Helvetica,sans-Serif" font-size="14.00">Integration</text>
</g>
<!-- IntegrationCCBB&#45;&gt;MinusB -->
<g id="edge30" class="edge">
<title>IntegrationCCBB&#45;&gt;MinusB</title>
<path fill="none" stroke="black" d="M146.97,-397.05C172.36,-383.12 208.06,-363.53 235.18,-348.65"/>
<polygon fill="black" stroke="black" points="236.7,-351.8 243.78,-343.93 233.33,-345.67 236.7,-351.8"/>
</g>
<!-- MinusA&#45;&gt;Divide -->
<g id="edge22" class="edge">
<title>MinusA&#45;&gt;Divide</title>
<path fill="none" stroke="black" d="M528.18,-221.8C506.51,-211.19 476.61,-196.55 452.59,-184.79"/>
<polygon fill="black" stroke="black" points="454.24,-181.7 443.72,-180.45 451.17,-187.99 454.24,-181.7"/>
</g>
<!-- MinusB&#45;&gt;SplineInterpolationC -->
<g id="edge18" class="edge">
<title>MinusB&#45;&gt;SplineInterpolationC</title>
<path fill="none" stroke="black" d="M301.77,-307.8C322.83,-294.49 352.05,-276.01 375.15,-261.41"/>
<polygon fill="black" stroke="black" points="376.76,-264.53 383.35,-256.23 373.02,-258.61 376.76,-264.53"/>
<text xml:space="preserve" text-anchor="middle" x="393.41" y="-276.95" font-family="Helvetica,sans-Serif" font-size="14.00">Interpolate</text>
</g>
<!-- MinusB&#45;&gt;IntegrationCC -->
<g id="edge17" class="edge">
<title>MinusB&#45;&gt;IntegrationCC</title>
<path fill="none" stroke="black" d="M274.17,-308.01C274.17,-296.18 274.17,-280.2 274.17,-266.5"/>
<polygon fill="black" stroke="black" points="277.67,-266.72 274.17,-256.72 270.67,-266.72 277.67,-266.72"/>
<text xml:space="preserve" text-anchor="middle" x="289.92" y="-276.95" font-family="Helvetica,sans-Serif" font-size="14.00">Sum</text>
</g>
<!-- Divide&#45;&gt;GroupWorkspaces -->
<g id="edge33" class="edge">
<title>Divide&#45;&gt;GroupWorkspaces</title>
<path fill="none" stroke="black" d="M412.17,-145.81C412.17,-138.23 412.17,-129.1 412.17,-120.54"/>
<polygon fill="black" stroke="black" points="415.67,-120.54 412.17,-110.54 408.67,-120.54 415.67,-120.54"/>
</g>
<!-- Scan&#45;&gt;MinusA -->
<g id="edge19" class="edge">
<title>Scan&#45;&gt;MinusA</title>
<path fill="none" stroke="black" d="M662.78,-307.8C642.72,-294.55 614.93,-276.17 592.89,-261.61"/>
<polygon fill="black" stroke="black" points="595.06,-258.85 584.78,-256.25 591.2,-264.68 595.06,-258.85"/>
</g>
<!-- ScanB&#45;&gt;SplineInterpolationB -->
<g id="edge11" class="edge">
<title>ScanB&#45;&gt;SplineInterpolationB</title>
<path fill="none" stroke="black" d="M570.17,-397.26C570.17,-385.43 570.17,-369.45 570.17,-355.75"/>
<polygon fill="black" stroke="black" points="573.67,-355.97 570.17,-345.97 566.67,-355.97 573.67,-355.97"/>
<text xml:space="preserve" text-anchor="middle" x="608.05" y="-366.2" font-family="Helvetica,sans-Serif" font-size="14.00">Interpolate</text>
</g>
<!-- ScanB&#45;&gt;IntegrationBB -->
<g id="edge10" class="edge">
<title>ScanB&#45;&gt;IntegrationBB</title>
<path fill="none" stroke="black" d="M542.91,-397.26C521.74,-383.88 492.17,-365.19 468.92,-350.48"/>
<polygon fill="black" stroke="black" points="470.98,-347.65 460.66,-345.26 467.24,-353.56 470.98,-347.65"/>
<text xml:space="preserve" text-anchor="middle" x="529.28" y="-366.2" font-family="Helvetica,sans-Serif" font-size="14.00">Sum</text>
</g>
<!-- ScanC&#45;&gt;MinusB -->
<g id="edge16" class="edge">
<title>ScanC&#45;&gt;MinusB</title>
<path fill="none" stroke="black" d="M352.81,-397.26C338.31,-384.36 318.28,-366.51 302.05,-352.07"/>
<polygon fill="black" stroke="black" points="304.42,-349.49 294.62,-345.46 299.77,-354.72 304.42,-349.49"/>
</g>
<!-- ScanCB&#45;&gt;SplineInterpolationCB -->
<g id="edge31" class="edge">
<title>ScanCB&#45;&gt;SplineInterpolationCB</title>
<path fill="none" stroke="black" d="M168.57,-470.13C182.94,-461.02 200.75,-449.73 216.32,-439.86"/>
<polygon fill="black" stroke="black" points="217.82,-443.06 224.39,-434.75 214.07,-437.14 217.82,-443.06"/>
</g>
<!-- ScanCB&#45;&gt;IntegrationCCBB -->
<g id="edge29" class="edge">
<title>ScanCB&#45;&gt;IntegrationCCBB</title>
<path fill="none" stroke="black" d="M134.88,-470.31C132,-462.46 128.53,-452.97 125.3,-444.16"/>
<polygon fill="black" stroke="black" points="128.65,-443.14 121.93,-434.95 122.08,-445.54 128.65,-443.14"/>
</g>
</g>
</svg>
