<?xml version="1.0" encoding="UTF-8" standalone="no"?>
<!DOCTYPE svg PUBLIC "-//W3C//DTD SVG 1.1//EN"
 "http://www.w3.org/Graphics/SVG/1.1/DTD/svg11.dtd">
<!-- Generated by graphviz version 11.0.0 (20240519.1550)
 -->
<!-- Title: IndirectFlatePlateAbsorption Pages: 1 -->
<svg width="1895pt" height="1749pt"
 viewBox="0.00 0.00 1895.02 1748.50" xmlns="http://www.w3.org/2000/svg" xmlns:xlink="http://www.w3.org/1999/xlink">
<g id="graph0" class="graph" transform="scale(1 1) rotate(0) translate(4 1744.5)">
<title>IndirectFlatePlateAbsorption</title>
<polygon fill="white" stroke="none" points="-4,4 -4,-1744.5 1891.02,-1744.5 1891.02,4 -4,4"/>
<text text-anchor="middle" x="943.51" y="-1723.2" font-family="Helvetica,sans-Serif" font-size="14.00">IndirectFlatePlateAbsorption Flowchart</text>
<!-- SampleWorkspace1 -->
<g id="node1" class="node">
<title>SampleWorkspace1</title>
<ellipse fill="khaki" stroke="black" cx="1608.77" cy="-1697.25" rx="100.66" ry="18"/>
<text text-anchor="middle" x="1608.77" y="-1692.58" font-family="Helvetica,sans-Serif" font-size="14.00">SampleWorkspace</text>
</g>
<!-- GetEFixed -->
<g id="node23" class="node">
<title>GetEFixed</title>
<path fill="lightskyblue" stroke="black" d="M1638.89,-1643.25C1638.89,-1643.25 1578.64,-1643.25 1578.64,-1643.25 1572.64,-1643.25 1566.64,-1637.25 1566.64,-1631.25 1566.64,-1631.25 1566.64,-1619.25 1566.64,-1619.25 1566.64,-1613.25 1572.64,-1607.25 1578.64,-1607.25 1578.64,-1607.25 1638.89,-1607.25 1638.89,-1607.25 1644.89,-1607.25 1650.89,-1613.25 1650.89,-1619.25 1650.89,-1619.25 1650.89,-1631.25 1650.89,-1631.25 1650.89,-1637.25 1644.89,-1643.25 1638.89,-1643.25"/>
<text text-anchor="middle" x="1608.77" y="-1620.58" font-family="Helvetica,sans-Serif" font-size="14.00">GetEFixed</text>
</g>
<!-- SampleWorkspace1&#45;&gt;GetEFixed -->
<g id="edge1" class="edge">
<title>SampleWorkspace1&#45;&gt;GetEFixed</title>
<path fill="none" stroke="black" d="M1608.77,-1678.95C1608.77,-1671.66 1608.77,-1662.98 1608.77,-1654.79"/>
<polygon fill="black" stroke="black" points="1612.27,-1654.87 1608.77,-1644.87 1605.27,-1654.87 1612.27,-1654.87"/>
</g>
<!-- SampleWorkspace2 -->
<g id="node2" class="node">
<title>SampleWorkspace2</title>
<ellipse fill="khaki" stroke="black" cx="537.77" cy="-1012.75" rx="100.66" ry="18"/>
<text text-anchor="middle" x="537.77" y="-1008.08" font-family="Helvetica,sans-Serif" font-size="14.00">SampleWorkspace</text>
</g>
<!-- Divide1 -->
<g id="node45" class="node">
<title>Divide1</title>
<ellipse fill="lightgrey" stroke="black" cx="772.77" cy="-939.75" rx="48.05" ry="18"/>
<text text-anchor="middle" x="772.77" y="-935.08" font-family="Helvetica,sans-Serif" font-size="14.00">Divide1</text>
</g>
<!-- SampleWorkspace2&#45;&gt;Divide1 -->
<g id="edge23" class="edge">
<title>SampleWorkspace2&#45;&gt;Divide1</title>
<path fill="none" stroke="black" d="M587.6,-996.69C628.24,-984.41 685.27,-967.19 725.26,-955.1"/>
<polygon fill="black" stroke="black" points="726.05,-958.52 734.62,-952.28 724.03,-951.82 726.05,-958.52"/>
</g>
<!-- SampleChemicalFormula -->
<g id="node3" class="node">
<title>SampleChemicalFormula</title>
<ellipse fill="khaki" stroke="black" cx="367.77" cy="-1464" rx="131.18" ry="18"/>
<text text-anchor="middle" x="367.77" y="-1459.33" font-family="Helvetica,sans-Serif" font-size="14.00">SampleChemicalFormula</text>
</g>
<!-- SetSample -->
<g id="node30" class="node">
<title>SetSample</title>
<path fill="lightskyblue" stroke="black" d="M990.89,-1410C990.89,-1410 924.64,-1410 924.64,-1410 918.64,-1410 912.64,-1404 912.64,-1398 912.64,-1398 912.64,-1386 912.64,-1386 912.64,-1380 918.64,-1374 924.64,-1374 924.64,-1374 990.89,-1374 990.89,-1374 996.89,-1374 1002.89,-1380 1002.89,-1386 1002.89,-1386 1002.89,-1398 1002.89,-1398 1002.89,-1404 996.89,-1410 990.89,-1410"/>
<text text-anchor="middle" x="957.77" y="-1387.33" font-family="Helvetica,sans-Serif" font-size="14.00">SetSample</text>
</g>
<!-- SampleChemicalFormula&#45;&gt;SetSample -->
<g id="edge11" class="edge">
<title>SampleChemicalFormula&#45;&gt;SetSample</title>
<path fill="none" stroke="black" d="M462.53,-1451.19C477.98,-1449.38 493.81,-1447.58 508.77,-1446 680.39,-1427.84 728.9,-1443.96 901.03,-1410.31"/>
<polygon fill="black" stroke="black" points="901.67,-1413.75 910.8,-1408.37 900.31,-1406.88 901.67,-1413.75"/>
</g>
<!-- SampleDensity -->
<g id="node4" class="node">
<title>SampleDensity</title>
<ellipse fill="khaki" stroke="black" cx="601.77" cy="-1464" rx="84.35" ry="18"/>
<text text-anchor="middle" x="601.77" y="-1459.33" font-family="Helvetica,sans-Serif" font-size="14.00">SampleDensity</text>
</g>
<!-- SampleDensity&#45;&gt;SetSample -->
<g id="edge12" class="edge">
<title>SampleDensity&#45;&gt;SetSample</title>
<path fill="none" stroke="black" d="M664.03,-1451.53C674.3,-1449.66 684.83,-1447.76 694.77,-1446 784.04,-1430.15 810.19,-1432.03 901.11,-1410.48"/>
<polygon fill="black" stroke="black" points="901.85,-1413.91 910.75,-1408.17 900.21,-1407.1 901.85,-1413.91"/>
</g>
<!-- SampleHeight -->
<g id="node5" class="node">
<title>SampleHeight</title>
<ellipse fill="khaki" stroke="black" cx="783.77" cy="-1464" rx="79.62" ry="18"/>
<text text-anchor="middle" x="783.77" y="-1459.33" font-family="Helvetica,sans-Serif" font-size="14.00">SampleHeight</text>
</g>
<!-- SampleHeight&#45;&gt;SetSample -->
<g id="edge7" class="edge">
<title>SampleHeight&#45;&gt;SetSample</title>
<path fill="none" stroke="black" d="M821.52,-1447.81C845.7,-1438.08 877.44,-1425.31 904.21,-1414.55"/>
<polygon fill="black" stroke="black" points="905.2,-1417.92 913.17,-1410.94 902.58,-1411.43 905.2,-1417.92"/>
</g>
<!-- SampleWidth -->
<g id="node6" class="node">
<title>SampleWidth</title>
<ellipse fill="khaki" stroke="black" cx="957.77" cy="-1464" rx="75.94" ry="18"/>
<text text-anchor="middle" x="957.77" y="-1459.33" font-family="Helvetica,sans-Serif" font-size="14.00">SampleWidth</text>
</g>
<!-- SampleWidth&#45;&gt;SetSample -->
<g id="edge8" class="edge">
<title>SampleWidth&#45;&gt;SetSample</title>
<path fill="none" stroke="black" d="M957.77,-1445.7C957.77,-1438.41 957.77,-1429.73 957.77,-1421.54"/>
<polygon fill="black" stroke="black" points="961.27,-1421.62 957.77,-1411.62 954.27,-1421.62 961.27,-1421.62"/>
</g>
<!-- SampleThickness -->
<g id="node7" class="node">
<title>SampleThickness</title>
<ellipse fill="khaki" stroke="black" cx="1147.77" cy="-1464" rx="95.93" ry="18"/>
<text text-anchor="middle" x="1147.77" y="-1459.33" font-family="Helvetica,sans-Serif" font-size="14.00">SampleThickness</text>
</g>
<!-- SampleThickness&#45;&gt;SetSample -->
<g id="edge9" class="edge">
<title>SampleThickness&#45;&gt;SetSample</title>
<path fill="none" stroke="black" d="M1105.6,-1447.46C1078.53,-1437.49 1043.07,-1424.43 1013.67,-1413.59"/>
<polygon fill="black" stroke="black" points="1015.15,-1410.41 1004.55,-1410.24 1012.73,-1416.98 1015.15,-1410.41"/>
</g>
<!-- SampleAngle -->
<g id="node8" class="node">
<title>SampleAngle</title>
<ellipse fill="khaki" stroke="black" cx="1336.77" cy="-1464" rx="75.41" ry="18"/>
<text text-anchor="middle" x="1336.77" y="-1459.33" font-family="Helvetica,sans-Serif" font-size="14.00">SampleAngle</text>
</g>
<!-- SampleAngle&#45;&gt;SetSample -->
<g id="edge10" class="edge">
<title>SampleAngle&#45;&gt;SetSample</title>
<path fill="none" stroke="black" d="M1281.22,-1451.58C1271.74,-1449.68 1261.97,-1447.76 1252.77,-1446 1169.94,-1430.18 1073.76,-1413.15 1014.33,-1402.78"/>
<polygon fill="black" stroke="black" points="1015.25,-1399.39 1004.8,-1401.12 1014.05,-1406.29 1015.25,-1399.39"/>
</g>
<!-- BeamHeight -->
<g id="node9" class="node">
<title>BeamHeight</title>
<ellipse fill="khaki" stroke="black" cx="1312.77" cy="-1536" rx="71.2" ry="18"/>
<text text-anchor="middle" x="1312.77" y="-1531.33" font-family="Helvetica,sans-Serif" font-size="14.00">BeamHeight</text>
</g>
<!-- SetBeam -->
<g id="node27" class="node">
<title>SetBeam</title>
<path fill="lightskyblue" stroke="black" d="M1496.89,-1482C1496.89,-1482 1442.64,-1482 1442.64,-1482 1436.64,-1482 1430.64,-1476 1430.64,-1470 1430.64,-1470 1430.64,-1458 1430.64,-1458 1430.64,-1452 1436.64,-1446 1442.64,-1446 1442.64,-1446 1496.89,-1446 1496.89,-1446 1502.89,-1446 1508.89,-1452 1508.89,-1458 1508.89,-1458 1508.89,-1470 1508.89,-1470 1508.89,-1476 1502.89,-1482 1496.89,-1482"/>
<text text-anchor="middle" x="1469.77" y="-1459.33" font-family="Helvetica,sans-Serif" font-size="14.00">SetBeam</text>
</g>
<!-- BeamHeight&#45;&gt;SetBeam -->
<g id="edge4" class="edge">
<title>BeamHeight&#45;&gt;SetBeam</title>
<path fill="none" stroke="black" d="M1346.83,-1519.81C1368.36,-1510.21 1396.53,-1497.65 1420.47,-1486.98"/>
<polygon fill="black" stroke="black" points="1421.7,-1490.26 1429.41,-1482.99 1418.85,-1483.87 1421.7,-1490.26"/>
</g>
<!-- BeamWidth -->
<g id="node10" class="node">
<title>BeamWidth</title>
<ellipse fill="khaki" stroke="black" cx="1469.77" cy="-1536" rx="67.52" ry="18"/>
<text text-anchor="middle" x="1469.77" y="-1531.33" font-family="Helvetica,sans-Serif" font-size="14.00">BeamWidth</text>
</g>
<!-- BeamWidth&#45;&gt;SetBeam -->
<g id="edge5" class="edge">
<title>BeamWidth&#45;&gt;SetBeam</title>
<path fill="none" stroke="black" d="M1469.77,-1517.7C1469.77,-1510.41 1469.77,-1501.73 1469.77,-1493.54"/>
<polygon fill="black" stroke="black" points="1473.27,-1493.62 1469.77,-1483.62 1466.27,-1493.62 1473.27,-1493.62"/>
</g>
<!-- Events -->
<g id="node11" class="node">
<title>Events</title>
<ellipse fill="khaki" stroke="black" cx="582.77" cy="-1392" rx="44.37" ry="18"/>
<text text-anchor="middle" x="582.77" y="-1387.33" font-family="Helvetica,sans-Serif" font-size="14.00">Events</text>
</g>
<!-- MonteCarlo -->
<g id="node33" class="node">
<title>MonteCarlo</title>
<path fill="lightskyblue" stroke="black" d="M805.14,-1338C805.14,-1338 734.39,-1338 734.39,-1338 728.39,-1338 722.39,-1332 722.39,-1326 722.39,-1326 722.39,-1314 722.39,-1314 722.39,-1308 728.39,-1302 734.39,-1302 734.39,-1302 805.14,-1302 805.14,-1302 811.14,-1302 817.14,-1308 817.14,-1314 817.14,-1314 817.14,-1326 817.14,-1326 817.14,-1332 811.14,-1338 805.14,-1338"/>
<text text-anchor="middle" x="769.77" y="-1315.33" font-family="Helvetica,sans-Serif" font-size="14.00">MonteCarlo</text>
</g>
<!-- Events&#45;&gt;MonteCarlo -->
<g id="edge14" class="edge">
<title>Events&#45;&gt;MonteCarlo</title>
<path fill="none" stroke="black" d="M614.49,-1379.13C641.26,-1369.1 680.27,-1354.5 712.49,-1342.44"/>
<polygon fill="black" stroke="black" points="713.58,-1345.77 721.72,-1338.99 711.12,-1339.22 713.58,-1345.77"/>
</g>
<!-- NumberOfWavelengths -->
<g id="node12" class="node">
<title>NumberOfWavelengths</title>
<ellipse fill="khaki" stroke="black" cx="769.77" cy="-1392" rx="124.86" ry="18"/>
<text text-anchor="middle" x="769.77" y="-1387.33" font-family="Helvetica,sans-Serif" font-size="14.00">NumberOfWavelengths</text>
</g>
<!-- NumberOfWavelengths&#45;&gt;MonteCarlo -->
<g id="edge15" class="edge">
<title>NumberOfWavelengths&#45;&gt;MonteCarlo</title>
<path fill="none" stroke="black" d="M769.77,-1373.7C769.77,-1366.41 769.77,-1357.73 769.77,-1349.54"/>
<polygon fill="black" stroke="black" points="773.27,-1349.62 769.77,-1339.62 766.27,-1349.62 773.27,-1349.62"/>
</g>
<!-- AbsWorkspace1 -->
<g id="node13" class="node">
<title>AbsWorkspace1</title>
<ellipse fill="khaki" stroke="black" cx="758.77" cy="-1248" rx="117.5" ry="18"/>
<text text-anchor="middle" x="758.77" y="-1243.33" font-family="Helvetica,sans-Serif" font-size="14.00">AbsorptionWorkspace</text>
</g>
<!-- AbsWorkspace2 -->
<g id="node14" class="node">
<title>AbsWorkspace2</title>
<ellipse fill="khaki" stroke="black" cx="773.77" cy="-1012.75" rx="117.5" ry="18"/>
<text text-anchor="middle" x="773.77" y="-1008.08" font-family="Helvetica,sans-Serif" font-size="14.00">AbsorptionWorkspace</text>
</g>
<!-- AbsWorkspace2&#45;&gt;Divide1 -->
<g id="edge24" class="edge">
<title>AbsWorkspace2&#45;&gt;Divide1</title>
<path fill="none" stroke="black" d="M773.52,-994.56C773.42,-986.98 773.29,-977.85 773.17,-969.29"/>
<polygon fill="black" stroke="black" points="776.67,-969.24 773.03,-959.29 769.67,-969.34 776.67,-969.24"/>
</g>
<!-- CanAbsorptionWorkspace -->
<g id="node15" class="node">
<title>CanAbsorptionWorkspace</title>
<ellipse fill="khaki" stroke="black" cx="687.77" cy="-396.25" rx="136.44" ry="18"/>
<text text-anchor="middle" x="687.77" y="-391.57" font-family="Helvetica,sans-Serif" font-size="14.00">CanAbsorptionWorkspace</text>
</g>
<!-- CanWorkspace1 -->
<g id="node16" class="node">
<title>CanWorkspace1</title>
<ellipse fill="khaki" stroke="black" cx="486.77" cy="-777.5" rx="89.61" ry="18"/>
<text text-anchor="middle" x="486.77" y="-772.83" font-family="Helvetica,sans-Serif" font-size="14.00">CanWorkspace1</text>
</g>
<!-- SetBeam1 -->
<g id="node28" class="node">
<title>SetBeam1</title>
<path fill="lightskyblue" stroke="black" d="M289.89,-706.25C289.89,-706.25 235.64,-706.25 235.64,-706.25 229.64,-706.25 223.64,-700.25 223.64,-694.25 223.64,-694.25 223.64,-682.25 223.64,-682.25 223.64,-676.25 229.64,-670.25 235.64,-670.25 235.64,-670.25 289.89,-670.25 289.89,-670.25 295.89,-670.25 301.89,-676.25 301.89,-682.25 301.89,-682.25 301.89,-694.25 301.89,-694.25 301.89,-700.25 295.89,-706.25 289.89,-706.25"/>
<text text-anchor="middle" x="262.77" y="-683.58" font-family="Helvetica,sans-Serif" font-size="14.00">SetBeam</text>
</g>
<!-- CanWorkspace1&#45;&gt;SetBeam1 -->
<g id="edge27" class="edge">
<title>CanWorkspace1&#45;&gt;SetBeam1</title>
<path fill="none" stroke="black" d="M446.98,-761C409.55,-746.42 353.37,-724.54 312.89,-708.78"/>
<polygon fill="black" stroke="black" points="314.18,-705.52 303.6,-705.15 311.64,-712.04 314.18,-705.52"/>
</g>
<!-- CanWorkspace2 -->
<g id="node17" class="node">
<title>CanWorkspace2</title>
<ellipse fill="khaki" stroke="black" cx="758.77" cy="-777.5" rx="89.61" ry="18"/>
<text text-anchor="middle" x="758.77" y="-772.83" font-family="Helvetica,sans-Serif" font-size="14.00">CanWorkspace2</text>
</g>
<!-- SetBeam2 -->
<g id="node29" class="node">
<title>SetBeam2</title>
<path fill="lightskyblue" stroke="black" d="M783.89,-706.25C783.89,-706.25 729.64,-706.25 729.64,-706.25 723.64,-706.25 717.64,-700.25 717.64,-694.25 717.64,-694.25 717.64,-682.25 717.64,-682.25 717.64,-676.25 723.64,-670.25 729.64,-670.25 729.64,-670.25 783.89,-670.25 783.89,-670.25 789.89,-670.25 795.89,-676.25 795.89,-682.25 795.89,-682.25 795.89,-694.25 795.89,-694.25 795.89,-700.25 789.89,-706.25 783.89,-706.25"/>
<text text-anchor="middle" x="756.77" y="-683.58" font-family="Helvetica,sans-Serif" font-size="14.00">SetBeam</text>
</g>
<!-- CanWorkspace2&#45;&gt;SetBeam2 -->
<g id="edge35" class="edge">
<title>CanWorkspace2&#45;&gt;SetBeam2</title>
<path fill="none" stroke="black" d="M758.37,-759.26C758.1,-747.43 757.73,-731.45 757.42,-717.75"/>
<polygon fill="black" stroke="black" points="760.92,-717.88 757.2,-707.97 753.93,-718.04 760.92,-717.88"/>
</g>
<!-- CanChemicalFormula -->
<g id="node18" class="node">
<title>CanChemicalFormula</title>
<ellipse fill="khaki" stroke="black" cx="433.77" cy="-688.25" rx="113.82" ry="18"/>
<text text-anchor="middle" x="433.77" y="-683.58" font-family="Helvetica,sans-Serif" font-size="14.00">CanChemicalFormula</text>
</g>
<!-- SetSample1 -->
<g id="node31" class="node">
<title>SetSample1</title>
<path fill="lightskyblue" stroke="black" d="M466.89,-633.25C466.89,-633.25 400.64,-633.25 400.64,-633.25 394.64,-633.25 388.64,-627.25 388.64,-621.25 388.64,-621.25 388.64,-609.25 388.64,-609.25 388.64,-603.25 394.64,-597.25 400.64,-597.25 400.64,-597.25 466.89,-597.25 466.89,-597.25 472.89,-597.25 478.89,-603.25 478.89,-609.25 478.89,-609.25 478.89,-621.25 478.89,-621.25 478.89,-627.25 472.89,-633.25 466.89,-633.25"/>
<text text-anchor="middle" x="433.77" y="-610.58" font-family="Helvetica,sans-Serif" font-size="14.00">SetSample</text>
</g>
<!-- CanChemicalFormula&#45;&gt;SetSample1 -->
<g id="edge30" class="edge">
<title>CanChemicalFormula&#45;&gt;SetSample1</title>
<path fill="none" stroke="black" d="M433.77,-670.06C433.77,-662.48 433.77,-653.35 433.77,-644.79"/>
<polygon fill="black" stroke="black" points="437.27,-644.79 433.77,-634.79 430.27,-644.79 437.27,-644.79"/>
</g>
<!-- SetSample2 -->
<g id="node32" class="node">
<title>SetSample2</title>
<path fill="lightskyblue" stroke="black" d="M720.89,-633.25C720.89,-633.25 654.64,-633.25 654.64,-633.25 648.64,-633.25 642.64,-627.25 642.64,-621.25 642.64,-621.25 642.64,-609.25 642.64,-609.25 642.64,-603.25 648.64,-597.25 654.64,-597.25 654.64,-597.25 720.89,-597.25 720.89,-597.25 726.89,-597.25 732.89,-603.25 732.89,-609.25 732.89,-609.25 732.89,-621.25 732.89,-621.25 732.89,-627.25 726.89,-633.25 720.89,-633.25"/>
<text text-anchor="middle" x="687.77" y="-610.58" font-family="Helvetica,sans-Serif" font-size="14.00">SetSample</text>
</g>
<!-- CanChemicalFormula&#45;&gt;SetSample2 -->
<g id="edge38" class="edge">
<title>CanChemicalFormula&#45;&gt;SetSample2</title>
<path fill="none" stroke="black" d="M473.08,-670.88C490.02,-664.21 510.17,-656.79 528.77,-651.25 562.42,-641.23 600.86,-632.69 631.51,-626.56"/>
<polygon fill="black" stroke="black" points="631.81,-630.06 640.94,-624.7 630.46,-623.2 631.81,-630.06"/>
</g>
<!-- CanDensity -->
<g id="node19" class="node">
<title>CanDensity</title>
<ellipse fill="khaki" stroke="black" cx="632.77" cy="-688.25" rx="66.99" ry="18"/>
<text text-anchor="middle" x="632.77" y="-683.58" font-family="Helvetica,sans-Serif" font-size="14.00">CanDensity</text>
</g>
<!-- CanDensity&#45;&gt;SetSample1 -->
<g id="edge31" class="edge">
<title>CanDensity&#45;&gt;SetSample1</title>
<path fill="none" stroke="black" d="M593.45,-673.22C563.81,-662.65 522.76,-648 489.7,-636.21"/>
<polygon fill="black" stroke="black" points="491.29,-633.06 480.69,-632.99 488.94,-639.65 491.29,-633.06"/>
</g>
<!-- CanDensity&#45;&gt;SetSample2 -->
<g id="edge39" class="edge">
<title>CanDensity&#45;&gt;SetSample2</title>
<path fill="none" stroke="black" d="M645.8,-670.42C652.23,-662.12 660.14,-651.91 667.35,-642.6"/>
<polygon fill="black" stroke="black" points="669.97,-644.94 673.32,-634.89 664.43,-640.66 669.97,-644.94"/>
</g>
<!-- CanFrontThickness -->
<g id="node20" class="node">
<title>CanFrontThickness</title>
<ellipse fill="khaki" stroke="black" cx="102.77" cy="-688.25" rx="102.77" ry="18"/>
<text text-anchor="middle" x="102.77" y="-683.58" font-family="Helvetica,sans-Serif" font-size="14.00">CanFrontThickness</text>
</g>
<!-- CanFrontThickness&#45;&gt;SetSample1 -->
<g id="edge29" class="edge">
<title>CanFrontThickness&#45;&gt;SetSample1</title>
<path fill="none" stroke="black" d="M165.8,-673.73C226.95,-660.61 318.86,-640.9 377.57,-628.3"/>
<polygon fill="black" stroke="black" points="377.97,-631.8 387.01,-626.28 376.5,-624.95 377.97,-631.8"/>
</g>
<!-- CanBackThickness -->
<g id="node21" class="node">
<title>CanBackThickness</title>
<ellipse fill="khaki" stroke="black" cx="915.77" cy="-688.25" rx="102.24" ry="18"/>
<text text-anchor="middle" x="915.77" y="-683.58" font-family="Helvetica,sans-Serif" font-size="14.00">CanBackThickness</text>
</g>
<!-- CanBackThickness&#45;&gt;SetSample2 -->
<g id="edge37" class="edge">
<title>CanBackThickness&#45;&gt;SetSample2</title>
<path fill="none" stroke="black" d="M866.86,-672.02C830.77,-660.78 781.6,-645.47 743.91,-633.73"/>
<polygon fill="black" stroke="black" points="745.14,-630.45 734.55,-630.82 743.06,-637.13 745.14,-630.45"/>
</g>
<!-- OutputWorkspace -->
<g id="node22" class="node">
<title>OutputWorkspace</title>
<ellipse fill="khaki" stroke="black" cx="1004.77" cy="-18" rx="98.56" ry="18"/>
<text text-anchor="middle" x="1004.77" y="-13.32" font-family="Helvetica,sans-Serif" font-size="14.00">OutputWorkspace</text>
</g>
<!-- ConvertUnits1 -->
<g id="node24" class="node">
<title>ConvertUnits1</title>
<path fill="lightskyblue" stroke="black" d="M1650.14,-1554C1650.14,-1554 1567.39,-1554 1567.39,-1554 1561.39,-1554 1555.39,-1548 1555.39,-1542 1555.39,-1542 1555.39,-1530 1555.39,-1530 1555.39,-1524 1561.39,-1518 1567.39,-1518 1567.39,-1518 1650.14,-1518 1650.14,-1518 1656.14,-1518 1662.14,-1524 1662.14,-1530 1662.14,-1530 1662.14,-1542 1662.14,-1542 1662.14,-1548 1656.14,-1554 1650.14,-1554"/>
<text text-anchor="middle" x="1608.77" y="-1531.33" font-family="Helvetica,sans-Serif" font-size="14.00">ConvertUnits</text>
</g>
<!-- GetEFixed&#45;&gt;ConvertUnits1 -->
<g id="edge2" class="edge">
<title>GetEFixed&#45;&gt;ConvertUnits1</title>
<path fill="none" stroke="black" d="M1608.77,-1607.01C1608.77,-1595.18 1608.77,-1579.2 1608.77,-1565.5"/>
<polygon fill="black" stroke="black" points="1612.27,-1565.72 1608.77,-1555.72 1605.27,-1565.72 1612.27,-1565.72"/>
<text text-anchor="middle" x="1747.89" y="-1575.95" font-family="Helvetica,sans-Serif" font-size="14.00">Convert input workspace to Wavelength</text>
</g>
<!-- ConvertUnits1&#45;&gt;SetBeam -->
<g id="edge3" class="edge">
<title>ConvertUnits1&#45;&gt;SetBeam</title>
<path fill="none" stroke="black" d="M1574.05,-1517.52C1555.92,-1508.39 1533.53,-1497.11 1514.16,-1487.35"/>
<polygon fill="black" stroke="black" points="1515.9,-1484.31 1505.39,-1482.94 1512.75,-1490.57 1515.9,-1484.31"/>
</g>
<!-- ConvertUnits2 -->
<g id="node25" class="node">
<title>ConvertUnits2</title>
<path fill="lightskyblue" stroke="black" d="M1053.14,-1176.75C1053.14,-1176.75 970.39,-1176.75 970.39,-1176.75 964.39,-1176.75 958.39,-1170.75 958.39,-1164.75 958.39,-1164.75 958.39,-1152.75 958.39,-1152.75 958.39,-1146.75 964.39,-1140.75 970.39,-1140.75 970.39,-1140.75 1053.14,-1140.75 1053.14,-1140.75 1059.14,-1140.75 1065.14,-1146.75 1065.14,-1152.75 1065.14,-1152.75 1065.14,-1164.75 1065.14,-1164.75 1065.14,-1170.75 1059.14,-1176.75 1053.14,-1176.75"/>
<text text-anchor="middle" x="1011.77" y="-1154.08" font-family="Helvetica,sans-Serif" font-size="14.00">ConvertUnits</text>
</g>
<!-- Scale -->
<g id="node36" class="node">
<title>Scale</title>
<path fill="lightskyblue" stroke="black" d="M963.77,-1103.75C963.77,-1103.75 933.77,-1103.75 933.77,-1103.75 927.77,-1103.75 921.77,-1097.75 921.77,-1091.75 921.77,-1091.75 921.77,-1079.75 921.77,-1079.75 921.77,-1073.75 927.77,-1067.75 933.77,-1067.75 933.77,-1067.75 963.77,-1067.75 963.77,-1067.75 969.77,-1067.75 975.77,-1073.75 975.77,-1079.75 975.77,-1079.75 975.77,-1091.75 975.77,-1091.75 975.77,-1097.75 969.77,-1103.75 963.77,-1103.75"/>
<text text-anchor="middle" x="948.77" y="-1081.08" font-family="Helvetica,sans-Serif" font-size="14.00">Scale</text>
</g>
<!-- ConvertUnits2&#45;&gt;Scale -->
<g id="edge19" class="edge">
<title>ConvertUnits2&#45;&gt;Scale</title>
<path fill="none" stroke="black" d="M996.52,-1140.56C989.01,-1132.1 979.81,-1121.73 971.49,-1112.36"/>
<polygon fill="black" stroke="black" points="974.14,-1110.07 964.88,-1104.91 968.9,-1114.71 974.14,-1110.07"/>
</g>
<!-- Clone -->
<g id="node44" class="node">
<title>Clone</title>
<ellipse fill="lightgrey" stroke="black" cx="948.77" cy="-1012.75" rx="38.58" ry="18"/>
<text text-anchor="middle" x="948.77" y="-1008.08" font-family="Helvetica,sans-Serif" font-size="14.00">Clone</text>
</g>
<!-- ConvertUnits2&#45;&gt;Clone -->
<g id="edge20" class="edge">
<title>ConvertUnits2&#45;&gt;Clone</title>
<path fill="none" stroke="black" d="M1008.15,-1140.27C1003.94,-1121.72 996.09,-1091.81 984.77,-1067.75 980.17,-1057.97 973.96,-1047.94 968,-1039.22"/>
<polygon fill="black" stroke="black" points="970.98,-1037.38 962.34,-1031.25 965.27,-1041.43 970.98,-1037.38"/>
</g>
<!-- ConvertUnits3 -->
<g id="node26" class="node">
<title>ConvertUnits3</title>
<path fill="lightskyblue" stroke="black" d="M1046.14,-252C1046.14,-252 963.39,-252 963.39,-252 957.39,-252 951.39,-246 951.39,-240 951.39,-240 951.39,-228 951.39,-228 951.39,-222 957.39,-216 963.39,-216 963.39,-216 1046.14,-216 1046.14,-216 1052.14,-216 1058.14,-222 1058.14,-228 1058.14,-228 1058.14,-240 1058.14,-240 1058.14,-246 1052.14,-252 1046.14,-252"/>
<text text-anchor="middle" x="1004.77" y="-229.32" font-family="Helvetica,sans-Serif" font-size="14.00">ConvertUnits</text>
</g>
<!-- AddSampleLogMultiple -->
<g id="node39" class="node">
<title>AddSampleLogMultiple</title>
<path fill="lightskyblue" stroke="black" d="M1079.89,-180C1079.89,-180 929.64,-180 929.64,-180 923.64,-180 917.64,-174 917.64,-168 917.64,-168 917.64,-156 917.64,-156 917.64,-150 923.64,-144 929.64,-144 929.64,-144 1079.89,-144 1079.89,-144 1085.89,-144 1091.89,-150 1091.89,-156 1091.89,-156 1091.89,-168 1091.89,-168 1091.89,-174 1085.89,-180 1079.89,-180"/>
<text text-anchor="middle" x="1004.77" y="-157.32" font-family="Helvetica,sans-Serif" font-size="14.00">AddSampleLogMultiple</text>
</g>
<!-- ConvertUnits3&#45;&gt;AddSampleLogMultiple -->
<g id="edge48" class="edge">
<title>ConvertUnits3&#45;&gt;AddSampleLogMultiple</title>
<path fill="none" stroke="black" d="M1004.77,-215.7C1004.77,-208.41 1004.77,-199.73 1004.77,-191.54"/>
<polygon fill="black" stroke="black" points="1008.27,-191.62 1004.77,-181.62 1001.27,-191.62 1008.27,-191.62"/>
</g>
<!-- SetBeam&#45;&gt;SetSample -->
<g id="edge6" class="edge">
<title>SetBeam&#45;&gt;SetSample</title>
<path fill="none" stroke="black" d="M1430.4,-1448.51C1427.17,-1447.57 1423.93,-1446.72 1420.77,-1446 1276.76,-1413.2 1102.69,-1400.23 1014.67,-1395.48"/>
<polygon fill="black" stroke="black" points="1015.02,-1392 1004.85,-1394.97 1014.66,-1398.99 1015.02,-1392"/>
</g>
<!-- SetBeam1&#45;&gt;SetSample1 -->
<g id="edge28" class="edge">
<title>SetBeam1&#45;&gt;SetSample1</title>
<path fill="none" stroke="black" d="M302,-670.96C325.47,-661.22 355.59,-648.71 381.11,-638.11"/>
<polygon fill="black" stroke="black" points="382.44,-641.35 390.33,-634.28 379.75,-634.89 382.44,-641.35"/>
</g>
<!-- SetBeam2&#45;&gt;SetSample2 -->
<g id="edge36" class="edge">
<title>SetBeam2&#45;&gt;SetSample2</title>
<path fill="none" stroke="black" d="M740.06,-670.06C731.67,-661.43 721.35,-650.81 712.1,-641.28"/>
<polygon fill="black" stroke="black" points="714.85,-639.1 705.37,-634.36 709.83,-643.97 714.85,-639.1"/>
</g>
<!-- SetSample&#45;&gt;MonteCarlo -->
<g id="edge13" class="edge">
<title>SetSample&#45;&gt;MonteCarlo</title>
<path fill="none" stroke="black" d="M912.26,-1374.05C886.64,-1364.52 854.41,-1352.52 827.09,-1342.34"/>
<polygon fill="black" stroke="black" points="828.5,-1339.14 817.91,-1338.93 826.06,-1345.7 828.5,-1339.14"/>
</g>
<!-- MonteCarlo1 -->
<g id="node34" class="node">
<title>MonteCarlo1</title>
<path fill="lightskyblue" stroke="black" d="M589.14,-560.25C589.14,-560.25 518.39,-560.25 518.39,-560.25 512.39,-560.25 506.39,-554.25 506.39,-548.25 506.39,-548.25 506.39,-536.25 506.39,-536.25 506.39,-530.25 512.39,-524.25 518.39,-524.25 518.39,-524.25 589.14,-524.25 589.14,-524.25 595.14,-524.25 601.14,-530.25 601.14,-536.25 601.14,-536.25 601.14,-548.25 601.14,-548.25 601.14,-554.25 595.14,-560.25 589.14,-560.25"/>
<text text-anchor="middle" x="553.77" y="-537.58" font-family="Helvetica,sans-Serif" font-size="14.00">MonteCarlo</text>
</g>
<!-- SetSample1&#45;&gt;MonteCarlo1 -->
<g id="edge32" class="edge">
<title>SetSample1&#45;&gt;MonteCarlo1</title>
<path fill="none" stroke="black" d="M463.12,-596.88C478.67,-587.68 497.96,-576.27 514.75,-566.33"/>
<polygon fill="black" stroke="black" points="516.17,-569.56 523,-561.46 512.61,-563.54 516.17,-569.56"/>
</g>
<!-- MonteCarlo2 -->
<g id="node35" class="node">
<title>MonteCarlo2</title>
<path fill="lightskyblue" stroke="black" d="M723.14,-560.25C723.14,-560.25 652.39,-560.25 652.39,-560.25 646.39,-560.25 640.39,-554.25 640.39,-548.25 640.39,-548.25 640.39,-536.25 640.39,-536.25 640.39,-530.25 646.39,-524.25 652.39,-524.25 652.39,-524.25 723.14,-524.25 723.14,-524.25 729.14,-524.25 735.14,-530.25 735.14,-536.25 735.14,-536.25 735.14,-548.25 735.14,-548.25 735.14,-554.25 729.14,-560.25 723.14,-560.25"/>
<text text-anchor="middle" x="687.77" y="-537.58" font-family="Helvetica,sans-Serif" font-size="14.00">MonteCarlo</text>
</g>
<!-- SetSample2&#45;&gt;MonteCarlo2 -->
<g id="edge40" class="edge">
<title>SetSample2&#45;&gt;MonteCarlo2</title>
<path fill="none" stroke="black" d="M687.77,-597.06C687.77,-589.48 687.77,-580.35 687.77,-571.79"/>
<polygon fill="black" stroke="black" points="691.27,-571.79 687.77,-561.79 684.27,-571.79 691.27,-571.79"/>
</g>
<!-- MonteCarlo&#45;&gt;AbsWorkspace1 -->
<g id="edge16" class="edge">
<title>MonteCarlo&#45;&gt;AbsWorkspace1</title>
<path fill="none" stroke="black" d="M767.05,-1301.7C765.89,-1294.32 764.51,-1285.52 763.21,-1277.25"/>
<polygon fill="black" stroke="black" points="766.7,-1276.93 761.69,-1267.6 759.78,-1278.02 766.7,-1276.93"/>
</g>
<!-- canGiven -->
<g id="node42" class="node">
<title>canGiven</title>
<polygon fill="limegreen" stroke="black" points="1063.77,-1266 893.88,-1248 1063.77,-1230 1233.65,-1248 1063.77,-1266"/>
<text text-anchor="middle" x="1063.77" y="-1243.33" font-family="Helvetica,sans-Serif" font-size="14.00">Container Workspace?</text>
</g>
<!-- MonteCarlo&#45;&gt;canGiven -->
<g id="edge17" class="edge">
<title>MonteCarlo&#45;&gt;canGiven</title>
<path fill="none" stroke="black" d="M817.33,-1307.68C867.66,-1295.69 947.25,-1276.74 1002.3,-1263.63"/>
<polygon fill="black" stroke="black" points="1002.93,-1267.08 1011.84,-1261.36 1001.3,-1260.27 1002.93,-1267.08"/>
</g>
<!-- Multiply -->
<g id="node41" class="node">
<title>Multiply</title>
<path fill="lightskyblue" stroke="black" d="M711.14,-487.25C711.14,-487.25 664.39,-487.25 664.39,-487.25 658.39,-487.25 652.39,-481.25 652.39,-475.25 652.39,-475.25 652.39,-463.25 652.39,-463.25 652.39,-457.25 658.39,-451.25 664.39,-451.25 664.39,-451.25 711.14,-451.25 711.14,-451.25 717.14,-451.25 723.14,-457.25 723.14,-463.25 723.14,-463.25 723.14,-475.25 723.14,-475.25 723.14,-481.25 717.14,-487.25 711.14,-487.25"/>
<text text-anchor="middle" x="687.77" y="-464.57" font-family="Helvetica,sans-Serif" font-size="14.00">Multiply</text>
</g>
<!-- MonteCarlo1&#45;&gt;Multiply -->
<g id="edge33" class="edge">
<title>MonteCarlo1&#45;&gt;Multiply</title>
<path fill="none" stroke="black" d="M586.55,-523.88C604.07,-514.6 625.86,-503.05 644.72,-493.06"/>
<polygon fill="black" stroke="black" points="646.33,-496.17 653.52,-488.39 643.05,-489.98 646.33,-496.17"/>
</g>
<!-- MonteCarlo2&#45;&gt;Multiply -->
<g id="edge41" class="edge">
<title>MonteCarlo2&#45;&gt;Multiply</title>
<path fill="none" stroke="black" d="M687.77,-524.06C687.77,-516.48 687.77,-507.35 687.77,-498.79"/>
<polygon fill="black" stroke="black" points="691.27,-498.79 687.77,-488.79 684.27,-498.79 691.27,-498.79"/>
</g>
<!-- Scale&#45;&gt;Clone -->
<g id="edge21" class="edge">
<title>Scale&#45;&gt;Clone</title>
<path fill="none" stroke="black" d="M948.77,-1067.56C948.77,-1059.98 948.77,-1050.85 948.77,-1042.29"/>
<polygon fill="black" stroke="black" points="952.27,-1042.29 948.77,-1032.29 945.27,-1042.29 952.27,-1042.29"/>
</g>
<!-- Divide -->
<g id="node37" class="node">
<title>Divide</title>
<path fill="lightskyblue" stroke="black" d="M935.52,-414.25C935.52,-414.25 900.02,-414.25 900.02,-414.25 894.02,-414.25 888.02,-408.25 888.02,-402.25 888.02,-402.25 888.02,-390.25 888.02,-390.25 888.02,-384.25 894.02,-378.25 900.02,-378.25 900.02,-378.25 935.52,-378.25 935.52,-378.25 941.52,-378.25 947.52,-384.25 947.52,-390.25 947.52,-390.25 947.52,-402.25 947.52,-402.25 947.52,-408.25 941.52,-414.25 935.52,-414.25"/>
<text text-anchor="middle" x="917.77" y="-391.57" font-family="Helvetica,sans-Serif" font-size="14.00">Divide</text>
</g>
<!-- Minus -->
<g id="node38" class="node">
<title>Minus</title>
<path fill="lightskyblue" stroke="black" d="M934.39,-341.25C934.39,-341.25 901.14,-341.25 901.14,-341.25 895.14,-341.25 889.14,-335.25 889.14,-329.25 889.14,-329.25 889.14,-317.25 889.14,-317.25 889.14,-311.25 895.14,-305.25 901.14,-305.25 901.14,-305.25 934.39,-305.25 934.39,-305.25 940.39,-305.25 946.39,-311.25 946.39,-317.25 946.39,-317.25 946.39,-329.25 946.39,-329.25 946.39,-335.25 940.39,-341.25 934.39,-341.25"/>
<text text-anchor="middle" x="917.77" y="-318.57" font-family="Helvetica,sans-Serif" font-size="14.00">Minus</text>
</g>
<!-- Divide&#45;&gt;Minus -->
<g id="edge45" class="edge">
<title>Divide&#45;&gt;Minus</title>
<path fill="none" stroke="black" d="M917.77,-378.06C917.77,-370.48 917.77,-361.35 917.77,-352.79"/>
<polygon fill="black" stroke="black" points="921.27,-352.79 917.77,-342.79 914.27,-352.79 921.27,-352.79"/>
</g>
<!-- Minus&#45;&gt;ConvertUnits3 -->
<g id="edge46" class="edge">
<title>Minus&#45;&gt;ConvertUnits3</title>
<path fill="none" stroke="black" d="M913.65,-304.78C912.1,-293.86 912.12,-280.01 919.02,-270 924.53,-262.01 932.21,-255.84 940.73,-251.08"/>
<polygon fill="black" stroke="black" points="942.18,-254.26 949.67,-246.77 939.15,-247.95 942.18,-254.26"/>
<text text-anchor="middle" x="998.64" y="-273.95" font-family="Helvetica,sans-Serif" font-size="14.00">Convert back to DeltaE</text>
</g>
<!-- GroupWorkspaces -->
<g id="node40" class="node">
<title>GroupWorkspaces</title>
<path fill="lightskyblue" stroke="black" d="M1063.39,-108C1063.39,-108 946.14,-108 946.14,-108 940.14,-108 934.14,-102 934.14,-96 934.14,-96 934.14,-84 934.14,-84 934.14,-78 940.14,-72 946.14,-72 946.14,-72 1063.39,-72 1063.39,-72 1069.39,-72 1075.39,-78 1075.39,-84 1075.39,-84 1075.39,-96 1075.39,-96 1075.39,-102 1069.39,-108 1063.39,-108"/>
<text text-anchor="middle" x="1004.77" y="-85.33" font-family="Helvetica,sans-Serif" font-size="14.00">GroupWorkspaces</text>
</g>
<!-- AddSampleLogMultiple&#45;&gt;GroupWorkspaces -->
<g id="edge49" class="edge">
<title>AddSampleLogMultiple&#45;&gt;GroupWorkspaces</title>
<path fill="none" stroke="black" d="M1004.77,-143.7C1004.77,-136.41 1004.77,-127.73 1004.77,-119.54"/>
<polygon fill="black" stroke="black" points="1008.27,-119.62 1004.77,-109.62 1001.27,-119.62 1008.27,-119.62"/>
</g>
<!-- GroupWorkspaces&#45;&gt;OutputWorkspace -->
<g id="edge50" class="edge">
<title>GroupWorkspaces&#45;&gt;OutputWorkspace</title>
<path fill="none" stroke="black" d="M1004.77,-71.7C1004.77,-64.41 1004.77,-55.73 1004.77,-47.54"/>
<polygon fill="black" stroke="black" points="1008.27,-47.62 1004.77,-37.62 1001.27,-47.62 1008.27,-47.62"/>
</g>
<!-- Multiply&#45;&gt;CanAbsorptionWorkspace -->
<g id="edge42" class="edge">
<title>Multiply&#45;&gt;CanAbsorptionWorkspace</title>
<path fill="none" stroke="black" d="M687.77,-451.06C687.77,-443.48 687.77,-434.35 687.77,-425.79"/>
<polygon fill="black" stroke="black" points="691.27,-425.79 687.77,-415.79 684.27,-425.79 691.27,-425.79"/>
</g>
<!-- Multiply&#45;&gt;Divide -->
<g id="edge43" class="edge">
<title>Multiply&#45;&gt;Divide</title>
<path fill="none" stroke="black" d="M723.45,-457.23C765.01,-444.41 833.5,-423.26 877.08,-409.81"/>
<polygon fill="black" stroke="black" points="877.89,-413.22 886.42,-406.93 875.83,-406.53 877.89,-413.22"/>
</g>
<!-- canGiven&#45;&gt;ConvertUnits2 -->
<g id="edge18" class="edge">
<title>canGiven&#45;&gt;ConvertUnits2</title>
<path fill="none" stroke="black" d="M1053.99,-1230.59C1046.65,-1218.28 1036.44,-1201.14 1027.9,-1186.81"/>
<polygon fill="black" stroke="black" points="1030.94,-1185.08 1022.81,-1178.28 1024.93,-1188.67 1030.94,-1185.08"/>
<text text-anchor="middle" x="1053.02" y="-1198.7" font-family="Helvetica,sans-Serif" font-size="14.00">Yes</text>
</g>
<!-- canGiven&#45;&gt;ConvertUnits3 -->
<g id="edge47" class="edge">
<title>canGiven&#45;&gt;ConvertUnits3</title>
<path fill="none" stroke="black" d="M1072.78,-1230.49C1081.3,-1213.33 1092.77,-1185.45 1092.77,-1159.75 1092.77,-1159.75 1092.77,-1159.75 1092.77,-322.25 1092.77,-298.21 1094.17,-288.46 1078.77,-270 1075.1,-265.61 1070.77,-261.74 1066.06,-258.33"/>
<polygon fill="black" stroke="black" points="1068.21,-255.55 1057.89,-253.13 1064.45,-261.45 1068.21,-255.55"/>
<text text-anchor="middle" x="1102.14" y="-728.2" font-family="Helvetica,sans-Serif" font-size="14.00">No</text>
</g>
<!-- useCorrections -->
<g id="node43" class="node">
<title>useCorrections</title>
<polygon fill="limegreen" stroke="black" points="759.77,-884.75 587.65,-866.75 759.77,-848.75 931.89,-866.75 759.77,-884.75"/>
<text text-anchor="middle" x="759.77" y="-862.08" font-family="Helvetica,sans-Serif" font-size="14.00">Container Corrections?</text>
</g>
<!-- useCorrections&#45;&gt;CanWorkspace1 -->
<g id="edge26" class="edge">
<title>useCorrections&#45;&gt;CanWorkspace1</title>
<path fill="none" stroke="black" d="M718.6,-852.59C672.01,-837.7 595.84,-813.36 543.6,-796.66"/>
<polygon fill="black" stroke="black" points="544.87,-793.4 534.28,-793.69 542.74,-800.06 544.87,-793.4"/>
<text text-anchor="middle" x="658.02" y="-817.45" font-family="Helvetica,sans-Serif" font-size="14.00">Yes</text>
</g>
<!-- useCorrections&#45;&gt;CanWorkspace2 -->
<g id="edge34" class="edge">
<title>useCorrections&#45;&gt;CanWorkspace2</title>
<path fill="none" stroke="black" d="M759.57,-848.51C759.43,-836.68 759.25,-820.7 759.09,-807"/>
<polygon fill="black" stroke="black" points="762.6,-807.17 758.98,-797.22 755.6,-807.25 762.6,-807.17"/>
<text text-anchor="middle" x="770.02" y="-817.45" font-family="Helvetica,sans-Serif" font-size="14.00">Yes</text>
</g>
<!-- useCorrections&#45;&gt;Divide -->
<g id="edge44" class="edge">
<title>useCorrections&#45;&gt;Divide</title>
<path fill="none" stroke="black" d="M841.72,-856.85C926.24,-845.34 1045.77,-821.46 1045.77,-778.5 1045.77,-778.5 1045.77,-778.5 1045.77,-468.25 1045.77,-427.83 996.36,-410.23 958.94,-402.7"/>
<polygon fill="black" stroke="black" points="959.73,-399.28 949.27,-400.94 958.48,-406.17 959.73,-399.28"/>
<text text-anchor="middle" x="1055.14" y="-610.58" font-family="Helvetica,sans-Serif" font-size="14.00">No</text>
</g>
<!-- Clone&#45;&gt;Divide1 -->
<g id="edge22" class="edge">
<title>Clone&#45;&gt;Divide1</title>
<path fill="none" stroke="black" d="M920.1,-1000.18C891.66,-988.71 847.74,-970.99 815.24,-957.89"/>
<polygon fill="black" stroke="black" points="816.69,-954.69 806.11,-954.2 814.07,-961.19 816.69,-954.69"/>
</g>
<!-- Divide1&#45;&gt;useCorrections -->
<g id="edge25" class="edge">
<title>Divide1&#45;&gt;useCorrections</title>
<path fill="none" stroke="black" d="M769.62,-921.56C768.21,-913.89 766.52,-904.64 764.94,-895.99"/>
<polygon fill="black" stroke="black" points="768.4,-895.47 763.16,-886.27 761.52,-896.73 768.4,-895.47"/>
</g>
</g>
</svg>
