<?xml version="1.0" encoding="UTF-8" standalone="no"?>
<!DOCTYPE svg PUBLIC "-//W3C//DTD SVG 1.1//EN"
 "http://www.w3.org/Graphics/SVG/1.1/DTD/svg11.dtd">
<!-- Generated by graphviz version 13.1.1 (20250720.1534)
 -->
<!-- Title: IndirectILLReductionQENS Pages: 1 -->
<svg width="1574pt" height="789pt"
 viewBox="0.00 0.00 1574.00 789.00" xmlns="http://www.w3.org/2000/svg" xmlns:xlink="http://www.w3.org/1999/xlink">
<g id="graph0" class="graph" transform="scale(1 1) rotate(0) translate(4 785.25)">
<title>IndirectILLReductionQENS</title>
<polygon fill="white" stroke="none" points="-4,4 -4,-785.25 1569.98,-785.25 1569.98,4 -4,4"/>
<text xml:space="preserve" text-anchor="middle" x="782.99" y="-763.95" font-family="Helvetica,sans-Serif" font-size="14.00">IndirectILLReductionQENS Flowchart</text>
<!-- OutputWorkspace -->
<g id="node1" class="node">
<title>OutputWorkspace</title>
<polygon fill="grey" stroke="black" points="394.83,-36 226.45,-36 183.14,0 351.51,0 394.83,-36"/>
<text xml:space="preserve" text-anchor="middle" x="288.98" y="-11.82" font-family="Times,serif" font-size="14.00">OutputWorkspace</text>
</g>
<!-- Run -->
<g id="node2" class="node">
<title>Run</title>
<ellipse fill="khaki" stroke="black" cx="950.98" cy="-594" rx="30.16" ry="18"/>
<text xml:space="preserve" text-anchor="middle" x="950.98" y="-589.33" font-family="Helvetica,sans-Serif" font-size="14.00">Run</text>
</g>
<!-- SelectNexusFilesByMetadata -->
<g id="node12" class="node">
<title>SelectNexusFilesByMetadata</title>
<path fill="lightskyblue" stroke="black" d="M1045.98,-540C1045.98,-540 855.98,-540 855.98,-540 849.98,-540 843.98,-534 843.98,-528 843.98,-528 843.98,-516 843.98,-516 843.98,-510 849.98,-504 855.98,-504 855.98,-504 1045.98,-504 1045.98,-504 1051.98,-504 1057.98,-510 1057.98,-516 1057.98,-516 1057.98,-528 1057.98,-528 1057.98,-534 1051.98,-540 1045.98,-540"/>
<text xml:space="preserve" text-anchor="middle" x="950.98" y="-517.33" font-family="Helvetica,sans-Serif" font-size="14.00">SelectNexusFilesByMetadata</text>
</g>
<!-- Run&#45;&gt;SelectNexusFilesByMetadata -->
<g id="edge1" class="edge">
<title>Run&#45;&gt;SelectNexusFilesByMetadata</title>
<path fill="none" stroke="black" d="M950.98,-575.7C950.98,-568.41 950.98,-559.73 950.98,-551.54"/>
<polygon fill="black" stroke="black" points="954.48,-551.62 950.98,-541.62 947.48,-551.62 954.48,-551.62"/>
</g>
<!-- BackgroundRun -->
<g id="node3" class="node">
<title>BackgroundRun</title>
<ellipse fill="khaki" stroke="black" cx="1458.98" cy="-666" rx="88.56" ry="18"/>
<text xml:space="preserve" text-anchor="middle" x="1458.98" y="-661.33" font-family="Helvetica,sans-Serif" font-size="14.00">BackgroundRun</text>
</g>
<!-- SelectNexusFilesByMetadataB -->
<g id="node14" class="node">
<title>SelectNexusFilesByMetadataB</title>
<path fill="lightskyblue" stroke="black" d="M1553.98,-612C1553.98,-612 1363.98,-612 1363.98,-612 1357.98,-612 1351.98,-606 1351.98,-600 1351.98,-600 1351.98,-588 1351.98,-588 1351.98,-582 1357.98,-576 1363.98,-576 1363.98,-576 1553.98,-576 1553.98,-576 1559.98,-576 1565.98,-582 1565.98,-588 1565.98,-588 1565.98,-600 1565.98,-600 1565.98,-606 1559.98,-612 1553.98,-612"/>
<text xml:space="preserve" text-anchor="middle" x="1458.98" y="-589.33" font-family="Helvetica,sans-Serif" font-size="14.00">SelectNexusFilesByMetadata</text>
</g>
<!-- BackgroundRun&#45;&gt;SelectNexusFilesByMetadataB -->
<g id="edge5" class="edge">
<title>BackgroundRun&#45;&gt;SelectNexusFilesByMetadataB</title>
<path fill="none" stroke="black" d="M1458.98,-647.7C1458.98,-640.41 1458.98,-631.73 1458.98,-623.54"/>
<polygon fill="black" stroke="black" points="1462.48,-623.62 1458.98,-613.62 1455.48,-623.62 1462.48,-623.62"/>
</g>
<!-- CalibrationRun -->
<g id="node4" class="node">
<title>CalibrationRun</title>
<ellipse fill="khaki" stroke="black" cx="186.98" cy="-666" rx="82.77" ry="18"/>
<text xml:space="preserve" text-anchor="middle" x="186.98" y="-661.33" font-family="Helvetica,sans-Serif" font-size="14.00">CalibrationRun</text>
</g>
<!-- SelectNexusFilesByMetadataC -->
<g id="node15" class="node">
<title>SelectNexusFilesByMetadataC</title>
<path fill="lightskyblue" stroke="black" d="M281.98,-612C281.98,-612 91.98,-612 91.98,-612 85.98,-612 79.98,-606 79.98,-600 79.98,-600 79.98,-588 79.98,-588 79.98,-582 85.98,-576 91.98,-576 91.98,-576 281.98,-576 281.98,-576 287.98,-576 293.98,-582 293.98,-588 293.98,-588 293.98,-600 293.98,-600 293.98,-606 287.98,-612 281.98,-612"/>
<text xml:space="preserve" text-anchor="middle" x="186.98" y="-589.33" font-family="Helvetica,sans-Serif" font-size="14.00">SelectNexusFilesByMetadata</text>
</g>
<!-- CalibrationRun&#45;&gt;SelectNexusFilesByMetadataC -->
<g id="edge10" class="edge">
<title>CalibrationRun&#45;&gt;SelectNexusFilesByMetadataC</title>
<path fill="none" stroke="black" d="M186.98,-647.7C186.98,-640.41 186.98,-631.73 186.98,-623.54"/>
<polygon fill="black" stroke="black" points="190.48,-623.62 186.98,-613.62 183.48,-623.62 190.48,-623.62"/>
</g>
<!-- CalibrationBackgroundRun -->
<g id="node5" class="node">
<title>CalibrationBackgroundRun</title>
<ellipse fill="khaki" stroke="black" cx="800.98" cy="-738" rx="141.17" ry="18"/>
<text xml:space="preserve" text-anchor="middle" x="800.98" y="-733.33" font-family="Helvetica,sans-Serif" font-size="14.00">CalibrationBackgroundRun</text>
</g>
<!-- SelectNexusFilesByMetadataD -->
<g id="node16" class="node">
<title>SelectNexusFilesByMetadataD</title>
<path fill="lightskyblue" stroke="black" d="M895.98,-684C895.98,-684 705.98,-684 705.98,-684 699.98,-684 693.98,-678 693.98,-672 693.98,-672 693.98,-660 693.98,-660 693.98,-654 699.98,-648 705.98,-648 705.98,-648 895.98,-648 895.98,-648 901.98,-648 907.98,-654 907.98,-660 907.98,-660 907.98,-672 907.98,-672 907.98,-678 901.98,-684 895.98,-684"/>
<text xml:space="preserve" text-anchor="middle" x="800.98" y="-661.33" font-family="Helvetica,sans-Serif" font-size="14.00">SelectNexusFilesByMetadata</text>
</g>
<!-- CalibrationBackgroundRun&#45;&gt;SelectNexusFilesByMetadataD -->
<g id="edge13" class="edge">
<title>CalibrationBackgroundRun&#45;&gt;SelectNexusFilesByMetadataD</title>
<path fill="none" stroke="black" d="M800.98,-719.7C800.98,-712.41 800.98,-703.73 800.98,-695.54"/>
<polygon fill="black" stroke="black" points="804.48,-695.62 800.98,-685.62 797.48,-695.62 804.48,-695.62"/>
</g>
<!-- AlignmentRun -->
<g id="node6" class="node">
<title>AlignmentRun</title>
<ellipse fill="khaki" stroke="black" cx="117.98" cy="-450" rx="80.14" ry="18"/>
<text xml:space="preserve" text-anchor="middle" x="117.98" y="-445.32" font-family="Helvetica,sans-Serif" font-size="14.00">AlignmentRun</text>
</g>
<!-- SelectNexusFilesByMetadataA -->
<g id="node13" class="node">
<title>SelectNexusFilesByMetadataA</title>
<path fill="lightskyblue" stroke="black" d="M265.98,-396C265.98,-396 75.98,-396 75.98,-396 69.98,-396 63.98,-390 63.98,-384 63.98,-384 63.98,-372 63.98,-372 63.98,-366 69.98,-360 75.98,-360 75.98,-360 265.98,-360 265.98,-360 271.98,-360 277.98,-366 277.98,-372 277.98,-372 277.98,-384 277.98,-384 277.98,-390 271.98,-396 265.98,-396"/>
<text xml:space="preserve" text-anchor="middle" x="170.98" y="-373.32" font-family="Helvetica,sans-Serif" font-size="14.00">SelectNexusFilesByMetadata</text>
</g>
<!-- AlignmentRun&#45;&gt;SelectNexusFilesByMetadataA -->
<g id="edge24" class="edge">
<title>AlignmentRun&#45;&gt;SelectNexusFilesByMetadataA</title>
<path fill="none" stroke="black" d="M130.81,-432.05C136.91,-424.01 144.33,-414.2 151.13,-405.23"/>
<polygon fill="black" stroke="black" points="153.74,-407.57 156.99,-397.48 148.16,-403.34 153.74,-407.57"/>
</g>
<!-- BackgroundScalingFactor -->
<g id="node7" class="node">
<title>BackgroundScalingFactor</title>
<ellipse fill="khaki" stroke="black" cx="1209.98" cy="-522" rx="134.33" ry="18"/>
<text xml:space="preserve" text-anchor="middle" x="1209.98" y="-517.33" font-family="Helvetica,sans-Serif" font-size="14.00">BackgroundScalingFactor</text>
</g>
<!-- ScaleA -->
<g id="node27" class="node">
<title>ScaleA</title>
<path fill="lightskyblue" stroke="black" d="M1224.98,-468C1224.98,-468 1194.98,-468 1194.98,-468 1188.98,-468 1182.98,-462 1182.98,-456 1182.98,-456 1182.98,-444 1182.98,-444 1182.98,-438 1188.98,-432 1194.98,-432 1194.98,-432 1224.98,-432 1224.98,-432 1230.98,-432 1236.98,-438 1236.98,-444 1236.98,-444 1236.98,-456 1236.98,-456 1236.98,-462 1230.98,-468 1224.98,-468"/>
<text xml:space="preserve" text-anchor="middle" x="1209.98" y="-445.32" font-family="Helvetica,sans-Serif" font-size="14.00">Scale</text>
</g>
<!-- BackgroundScalingFactor&#45;&gt;ScaleA -->
<g id="edge8" class="edge">
<title>BackgroundScalingFactor&#45;&gt;ScaleA</title>
<path fill="none" stroke="black" d="M1209.98,-503.7C1209.98,-496.41 1209.98,-487.73 1209.98,-479.54"/>
<polygon fill="black" stroke="black" points="1213.48,-479.62 1209.98,-469.62 1206.48,-479.62 1213.48,-479.62"/>
</g>
<!-- CalibrationBackgroundScalingFactor -->
<g id="node8" class="node">
<title>CalibrationBackgroundScalingFactor</title>
<ellipse fill="khaki" stroke="black" cx="498.98" cy="-594" rx="186.94" ry="18"/>
<text xml:space="preserve" text-anchor="middle" x="498.98" y="-589.33" font-family="Helvetica,sans-Serif" font-size="14.00">CalibrationBackgroundScalingFactor</text>
</g>
<!-- ScaleB -->
<g id="node28" class="node">
<title>ScaleB</title>
<path fill="lightskyblue" stroke="black" d="M513.98,-540C513.98,-540 483.98,-540 483.98,-540 477.98,-540 471.98,-534 471.98,-528 471.98,-528 471.98,-516 471.98,-516 471.98,-510 477.98,-504 483.98,-504 483.98,-504 513.98,-504 513.98,-504 519.98,-504 525.98,-510 525.98,-516 525.98,-516 525.98,-528 525.98,-528 525.98,-534 519.98,-540 513.98,-540"/>
<text xml:space="preserve" text-anchor="middle" x="498.98" y="-517.33" font-family="Helvetica,sans-Serif" font-size="14.00">Scale</text>
</g>
<!-- CalibrationBackgroundScalingFactor&#45;&gt;ScaleB -->
<g id="edge17" class="edge">
<title>CalibrationBackgroundScalingFactor&#45;&gt;ScaleB</title>
<path fill="none" stroke="black" d="M498.98,-575.7C498.98,-568.41 498.98,-559.73 498.98,-551.54"/>
<polygon fill="black" stroke="black" points="502.48,-551.62 498.98,-541.62 495.48,-551.62 502.48,-551.62"/>
</g>
<!-- CalibrationPeakRange -->
<g id="node9" class="node">
<title>CalibrationPeakRange</title>
<ellipse fill="khaki" stroke="black" cx="333.98" cy="-450" rx="118.02" ry="18"/>
<text xml:space="preserve" text-anchor="middle" x="333.98" y="-445.32" font-family="Helvetica,sans-Serif" font-size="14.00">CalibrationPeakRange</text>
</g>
<!-- Integration -->
<g id="node22" class="node">
<title>Integration</title>
<path fill="lightskyblue" stroke="black" d="M481.23,-396C481.23,-396 412.73,-396 412.73,-396 406.73,-396 400.73,-390 400.73,-384 400.73,-384 400.73,-372 400.73,-372 400.73,-366 406.73,-360 412.73,-360 412.73,-360 481.23,-360 481.23,-360 487.23,-360 493.23,-366 493.23,-372 493.23,-372 493.23,-384 493.23,-384 493.23,-390 487.23,-396 481.23,-396"/>
<text xml:space="preserve" text-anchor="middle" x="446.98" y="-373.32" font-family="Helvetica,sans-Serif" font-size="14.00">Integration</text>
</g>
<!-- CalibrationPeakRange&#45;&gt;Integration -->
<g id="edge19" class="edge">
<title>CalibrationPeakRange&#45;&gt;Integration</title>
<path fill="none" stroke="black" d="M361.34,-432.05C375.83,-423.07 393.86,-411.91 409.62,-402.14"/>
<polygon fill="black" stroke="black" points="411.15,-405.31 417.81,-397.07 407.47,-399.36 411.15,-405.31"/>
</g>
<!-- UnmirrorOption -->
<g id="node10" class="node">
<title>UnmirrorOption</title>
<ellipse fill="khaki" stroke="black" cx="86.98" cy="-306" rx="86.98" ry="18"/>
<text xml:space="preserve" text-anchor="middle" x="86.98" y="-301.32" font-family="Helvetica,sans-Serif" font-size="14.00">UnmirrorOption</text>
</g>
<!-- MatchPeaks -->
<g id="node29" class="node">
<title>MatchPeaks</title>
<path fill="lightskyblue" stroke="black" d="M326.23,-252C326.23,-252 251.73,-252 251.73,-252 245.73,-252 239.73,-246 239.73,-240 239.73,-240 239.73,-228 239.73,-228 239.73,-222 245.73,-216 251.73,-216 251.73,-216 326.23,-216 326.23,-216 332.23,-216 338.23,-222 338.23,-228 338.23,-228 338.23,-240 338.23,-240 338.23,-246 332.23,-252 326.23,-252"/>
<text xml:space="preserve" text-anchor="middle" x="288.98" y="-229.32" font-family="Helvetica,sans-Serif" font-size="14.00">MatchPeaks</text>
</g>
<!-- UnmirrorOption&#45;&gt;MatchPeaks -->
<g id="edge23" class="edge">
<title>UnmirrorOption&#45;&gt;MatchPeaks</title>
<path fill="none" stroke="black" d="M130.32,-289.98C159.06,-280.02 197.18,-266.81 228.85,-255.84"/>
<polygon fill="black" stroke="black" points="229.59,-259.29 237.89,-252.7 227.3,-252.67 229.59,-259.29"/>
</g>
<!-- CropDeadMonitorChannels -->
<g id="node11" class="node">
<title>CropDeadMonitorChannels</title>
<ellipse fill="khaki" stroke="black" cx="684.98" cy="-522" rx="141.17" ry="18"/>
<text xml:space="preserve" text-anchor="middle" x="684.98" y="-517.33" font-family="Helvetica,sans-Serif" font-size="14.00">CropDeadMonitorChannels</text>
</g>
<!-- IndirectILLEnergyTransfer -->
<g id="node17" class="node">
<title>IndirectILLEnergyTransfer</title>
<path fill="lightskyblue" stroke="black" d="M902.86,-468C902.86,-468 733.11,-468 733.11,-468 727.11,-468 721.11,-462 721.11,-456 721.11,-456 721.11,-444 721.11,-444 721.11,-438 727.11,-432 733.11,-432 733.11,-432 902.86,-432 902.86,-432 908.86,-432 914.86,-438 914.86,-444 914.86,-444 914.86,-456 914.86,-456 914.86,-462 908.86,-468 902.86,-468"/>
<text xml:space="preserve" text-anchor="middle" x="817.98" y="-445.32" font-family="Helvetica,sans-Serif" font-size="14.00">IndirectILLEnergyTransfer</text>
</g>
<!-- CropDeadMonitorChannels&#45;&gt;IndirectILLEnergyTransfer -->
<g id="edge3" class="edge">
<title>CropDeadMonitorChannels&#45;&gt;IndirectILLEnergyTransfer</title>
<path fill="none" stroke="black" d="M717.18,-504.05C734.56,-494.91 756.25,-483.49 775.06,-473.59"/>
<polygon fill="black" stroke="black" points="776.6,-476.73 783.82,-468.98 773.34,-470.54 776.6,-476.73"/>
</g>
<!-- SelectNexusFilesByMetadata&#45;&gt;IndirectILLEnergyTransfer -->
<g id="edge2" class="edge">
<title>SelectNexusFilesByMetadata&#45;&gt;IndirectILLEnergyTransfer</title>
<path fill="none" stroke="black" d="M917.77,-503.52C900.5,-494.43 879.19,-483.22 860.71,-473.49"/>
<polygon fill="black" stroke="black" points="862.6,-470.53 852.12,-468.97 859.34,-476.72 862.6,-470.53"/>
</g>
<!-- IndirectILLEnergyTransferA -->
<g id="node18" class="node">
<title>IndirectILLEnergyTransferA</title>
<path fill="lightskyblue" stroke="black" d="M373.86,-324C373.86,-324 204.11,-324 204.11,-324 198.11,-324 192.11,-318 192.11,-312 192.11,-312 192.11,-300 192.11,-300 192.11,-294 198.11,-288 204.11,-288 204.11,-288 373.86,-288 373.86,-288 379.86,-288 385.86,-294 385.86,-300 385.86,-300 385.86,-312 385.86,-312 385.86,-318 379.86,-324 373.86,-324"/>
<text xml:space="preserve" text-anchor="middle" x="288.98" y="-301.32" font-family="Helvetica,sans-Serif" font-size="14.00">IndirectILLEnergyTransfer</text>
</g>
<!-- SelectNexusFilesByMetadataA&#45;&gt;IndirectILLEnergyTransferA -->
<g id="edge25" class="edge">
<title>SelectNexusFilesByMetadataA&#45;&gt;IndirectILLEnergyTransferA</title>
<path fill="none" stroke="black" d="M200.46,-359.52C215.49,-350.6 233.98,-339.63 250.16,-330.03"/>
<polygon fill="black" stroke="black" points="251.77,-333.15 258.59,-325.03 248.2,-327.12 251.77,-333.15"/>
</g>
<!-- IndirectILLEnergyTransferB -->
<g id="node19" class="node">
<title>IndirectILLEnergyTransferB</title>
<path fill="lightskyblue" stroke="black" d="M1543.86,-540C1543.86,-540 1374.11,-540 1374.11,-540 1368.11,-540 1362.11,-534 1362.11,-528 1362.11,-528 1362.11,-516 1362.11,-516 1362.11,-510 1368.11,-504 1374.11,-504 1374.11,-504 1543.86,-504 1543.86,-504 1549.86,-504 1555.86,-510 1555.86,-516 1555.86,-516 1555.86,-528 1555.86,-528 1555.86,-534 1549.86,-540 1543.86,-540"/>
<text xml:space="preserve" text-anchor="middle" x="1458.98" y="-517.33" font-family="Helvetica,sans-Serif" font-size="14.00">IndirectILLEnergyTransfer</text>
</g>
<!-- SelectNexusFilesByMetadataB&#45;&gt;IndirectILLEnergyTransferB -->
<g id="edge6" class="edge">
<title>SelectNexusFilesByMetadataB&#45;&gt;IndirectILLEnergyTransferB</title>
<path fill="none" stroke="black" d="M1458.98,-575.7C1458.98,-568.41 1458.98,-559.73 1458.98,-551.54"/>
<polygon fill="black" stroke="black" points="1462.48,-551.62 1458.98,-541.62 1455.48,-551.62 1462.48,-551.62"/>
</g>
<!-- IndirectILLEnergyTransferC -->
<g id="node20" class="node">
<title>IndirectILLEnergyTransferC</title>
<path fill="lightskyblue" stroke="black" d="M356.86,-540C356.86,-540 187.11,-540 187.11,-540 181.11,-540 175.11,-534 175.11,-528 175.11,-528 175.11,-516 175.11,-516 175.11,-510 181.11,-504 187.11,-504 187.11,-504 356.86,-504 356.86,-504 362.86,-504 368.86,-510 368.86,-516 368.86,-516 368.86,-528 368.86,-528 368.86,-534 362.86,-540 356.86,-540"/>
<text xml:space="preserve" text-anchor="middle" x="271.98" y="-517.33" font-family="Helvetica,sans-Serif" font-size="14.00">IndirectILLEnergyTransfer</text>
</g>
<!-- SelectNexusFilesByMetadataC&#45;&gt;IndirectILLEnergyTransferC -->
<g id="edge11" class="edge">
<title>SelectNexusFilesByMetadataC&#45;&gt;IndirectILLEnergyTransferC</title>
<path fill="none" stroke="black" d="M207.99,-575.7C218.31,-567.2 230.93,-556.81 242.22,-547.51"/>
<polygon fill="black" stroke="black" points="244.26,-550.37 249.75,-541.31 239.81,-544.96 244.26,-550.37"/>
</g>
<!-- IndirectILLEnergyTransferD -->
<g id="node21" class="node">
<title>IndirectILLEnergyTransferD</title>
<path fill="lightskyblue" stroke="black" d="M885.86,-612C885.86,-612 716.11,-612 716.11,-612 710.11,-612 704.11,-606 704.11,-600 704.11,-600 704.11,-588 704.11,-588 704.11,-582 710.11,-576 716.11,-576 716.11,-576 885.86,-576 885.86,-576 891.86,-576 897.86,-582 897.86,-588 897.86,-588 897.86,-600 897.86,-600 897.86,-606 891.86,-612 885.86,-612"/>
<text xml:space="preserve" text-anchor="middle" x="800.98" y="-589.33" font-family="Helvetica,sans-Serif" font-size="14.00">IndirectILLEnergyTransfer</text>
</g>
<!-- SelectNexusFilesByMetadataD&#45;&gt;IndirectILLEnergyTransferD -->
<g id="edge14" class="edge">
<title>SelectNexusFilesByMetadataD&#45;&gt;IndirectILLEnergyTransferD</title>
<path fill="none" stroke="black" d="M800.98,-647.7C800.98,-640.41 800.98,-631.73 800.98,-623.54"/>
<polygon fill="black" stroke="black" points="804.48,-623.62 800.98,-613.62 797.48,-623.62 804.48,-623.62"/>
</g>
<!-- MinusA -->
<g id="node23" class="node">
<title>MinusA</title>
<path fill="lightskyblue" stroke="black" d="M834.61,-396C834.61,-396 801.36,-396 801.36,-396 795.36,-396 789.36,-390 789.36,-384 789.36,-384 789.36,-372 789.36,-372 789.36,-366 795.36,-360 801.36,-360 801.36,-360 834.61,-360 834.61,-360 840.61,-360 846.61,-366 846.61,-372 846.61,-372 846.61,-384 846.61,-384 846.61,-390 840.61,-396 834.61,-396"/>
<text xml:space="preserve" text-anchor="middle" x="817.98" y="-373.32" font-family="Helvetica,sans-Serif" font-size="14.00">Minus</text>
</g>
<!-- IndirectILLEnergyTransfer&#45;&gt;MinusA -->
<g id="edge4" class="edge">
<title>IndirectILLEnergyTransfer&#45;&gt;MinusA</title>
<path fill="none" stroke="black" d="M817.98,-431.7C817.98,-424.41 817.98,-415.73 817.98,-407.54"/>
<polygon fill="black" stroke="black" points="821.48,-407.62 817.98,-397.62 814.48,-407.62 821.48,-407.62"/>
</g>
<!-- IndirectILLEnergyTransferA&#45;&gt;MatchPeaks -->
<g id="edge26" class="edge">
<title>IndirectILLEnergyTransferA&#45;&gt;MatchPeaks</title>
<path fill="none" stroke="black" d="M288.98,-287.7C288.98,-280.41 288.98,-271.73 288.98,-263.54"/>
<polygon fill="black" stroke="black" points="292.48,-263.62 288.98,-253.62 285.48,-263.62 292.48,-263.62"/>
</g>
<!-- IndirectILLEnergyTransferB&#45;&gt;ScaleA -->
<g id="edge7" class="edge">
<title>IndirectILLEnergyTransferB&#45;&gt;ScaleA</title>
<path fill="none" stroke="black" d="M1396.79,-503.52C1350.25,-490.43 1288.05,-472.95 1248.5,-461.83"/>
<polygon fill="black" stroke="black" points="1249.51,-458.48 1238.94,-459.14 1247.62,-465.22 1249.51,-458.48"/>
</g>
<!-- MinusB -->
<g id="node24" class="node">
<title>MinusB</title>
<path fill="lightskyblue" stroke="black" d="M515.61,-468C515.61,-468 482.36,-468 482.36,-468 476.36,-468 470.36,-462 470.36,-456 470.36,-456 470.36,-444 470.36,-444 470.36,-438 476.36,-432 482.36,-432 482.36,-432 515.61,-432 515.61,-432 521.61,-432 527.61,-438 527.61,-444 527.61,-444 527.61,-456 527.61,-456 527.61,-462 521.61,-468 515.61,-468"/>
<text xml:space="preserve" text-anchor="middle" x="498.98" y="-445.32" font-family="Helvetica,sans-Serif" font-size="14.00">Minus</text>
</g>
<!-- IndirectILLEnergyTransferC&#45;&gt;MinusB -->
<g id="edge12" class="edge">
<title>IndirectILLEnergyTransferC&#45;&gt;MinusB</title>
<path fill="none" stroke="black" d="M343.67,-503.56C376.61,-494.93 416.26,-483.67 459.38,-468.32"/>
<polygon fill="black" stroke="black" points="460.48,-471.65 468.69,-464.96 458.1,-465.06 460.48,-471.65"/>
</g>
<!-- IndirectILLEnergyTransferD&#45;&gt;ScaleB -->
<g id="edge15" class="edge">
<title>IndirectILLEnergyTransferD&#45;&gt;ScaleB</title>
<path fill="none" stroke="black" d="M703.88,-576.22C646.52,-565.85 578.51,-552.67 536.95,-540.13"/>
<polygon fill="black" stroke="black" points="538.25,-536.87 527.66,-537.16 536.12,-543.54 538.25,-536.87"/>
</g>
<!-- Divide -->
<g id="node25" class="node">
<title>Divide</title>
<path fill="lightskyblue" stroke="black" d="M464.73,-324C464.73,-324 429.23,-324 429.23,-324 423.23,-324 417.23,-318 417.23,-312 417.23,-312 417.23,-300 417.23,-300 417.23,-294 423.23,-288 429.23,-288 429.23,-288 464.73,-288 464.73,-288 470.73,-288 476.73,-294 476.73,-300 476.73,-300 476.73,-312 476.73,-312 476.73,-318 470.73,-324 464.73,-324"/>
<text xml:space="preserve" text-anchor="middle" x="446.98" y="-301.32" font-family="Helvetica,sans-Serif" font-size="14.00">Divide</text>
</g>
<!-- Integration&#45;&gt;Divide -->
<g id="edge20" class="edge">
<title>Integration&#45;&gt;Divide</title>
<path fill="none" stroke="black" d="M446.98,-359.7C446.98,-352.41 446.98,-343.73 446.98,-335.54"/>
<polygon fill="black" stroke="black" points="450.48,-335.62 446.98,-325.62 443.48,-335.62 450.48,-335.62"/>
</g>
<!-- MinusA&#45;&gt;Divide -->
<g id="edge21" class="edge">
<title>MinusA&#45;&gt;Divide</title>
<path fill="none" stroke="black" d="M788.87,-371.51C723.23,-359.12 563.53,-328.99 487.94,-314.73"/>
<polygon fill="black" stroke="black" points="488.95,-311.36 478.48,-312.94 487.66,-318.24 488.95,-311.36"/>
</g>
<!-- MinusB&#45;&gt;Integration -->
<g id="edge18" class="edge">
<title>MinusB&#45;&gt;Integration</title>
<path fill="none" stroke="black" d="M486.13,-431.7C480.21,-423.73 473.06,-414.1 466.49,-405.26"/>
<polygon fill="black" stroke="black" points="469.37,-403.26 460.59,-397.32 463.75,-407.43 469.37,-403.26"/>
</g>
<!-- Divide&#45;&gt;MatchPeaks -->
<g id="edge22" class="edge">
<title>Divide&#45;&gt;MatchPeaks</title>
<path fill="none" stroke="black" d="M416.89,-291.67C394.78,-281.87 364.24,-268.34 338.54,-256.96"/>
<polygon fill="black" stroke="black" points="340.18,-253.85 329.62,-253 337.34,-260.25 340.18,-253.85"/>
</g>
<!-- Plus -->
<g id="node26" class="node">
<title>Plus</title>
<path fill="lightskyblue" stroke="black" d="M303.98,-180C303.98,-180 273.98,-180 273.98,-180 267.98,-180 261.98,-174 261.98,-168 261.98,-168 261.98,-156 261.98,-156 261.98,-150 267.98,-144 273.98,-144 273.98,-144 303.98,-144 303.98,-144 309.98,-144 315.98,-150 315.98,-156 315.98,-156 315.98,-168 315.98,-168 315.98,-174 309.98,-180 303.98,-180"/>
<text xml:space="preserve" text-anchor="middle" x="288.98" y="-157.32" font-family="Helvetica,sans-Serif" font-size="14.00">Plus</text>
</g>
<!-- GroupWorkspaces -->
<g id="node30" class="node">
<title>GroupWorkspaces</title>
<path fill="lightskyblue" stroke="black" d="M347.61,-108C347.61,-108 230.36,-108 230.36,-108 224.36,-108 218.36,-102 218.36,-96 218.36,-96 218.36,-84 218.36,-84 218.36,-78 224.36,-72 230.36,-72 230.36,-72 347.61,-72 347.61,-72 353.61,-72 359.61,-78 359.61,-84 359.61,-84 359.61,-96 359.61,-96 359.61,-102 353.61,-108 347.61,-108"/>
<text xml:space="preserve" text-anchor="middle" x="288.98" y="-85.33" font-family="Helvetica,sans-Serif" font-size="14.00">GroupWorkspaces</text>
</g>
<!-- Plus&#45;&gt;GroupWorkspaces -->
<g id="edge28" class="edge">
<title>Plus&#45;&gt;GroupWorkspaces</title>
<path fill="none" stroke="black" d="M288.98,-143.7C288.98,-136.41 288.98,-127.73 288.98,-119.54"/>
<polygon fill="black" stroke="black" points="292.48,-119.62 288.98,-109.62 285.48,-119.62 292.48,-119.62"/>
</g>
<!-- ScaleA&#45;&gt;MinusA -->
<g id="edge9" class="edge">
<title>ScaleA&#45;&gt;MinusA</title>
<path fill="none" stroke="black" d="M1182.73,-444.13C1114.8,-432 937.69,-400.38 857.94,-386.13"/>
<polygon fill="black" stroke="black" points="858.85,-382.74 848.39,-384.43 857.62,-389.63 858.85,-382.74"/>
</g>
<!-- ScaleB&#45;&gt;MinusB -->
<g id="edge16" class="edge">
<title>ScaleB&#45;&gt;MinusB</title>
<path fill="none" stroke="black" d="M498.98,-503.7C498.98,-496.41 498.98,-487.73 498.98,-479.54"/>
<polygon fill="black" stroke="black" points="502.48,-479.62 498.98,-469.62 495.48,-479.62 502.48,-479.62"/>
</g>
<!-- MatchPeaks&#45;&gt;Plus -->
<g id="edge27" class="edge">
<title>MatchPeaks&#45;&gt;Plus</title>
<path fill="none" stroke="black" d="M288.98,-215.7C288.98,-208.41 288.98,-199.73 288.98,-191.54"/>
<polygon fill="black" stroke="black" points="292.48,-191.62 288.98,-181.62 285.48,-191.62 292.48,-191.62"/>
</g>
<!-- GroupWorkspaces&#45;&gt;OutputWorkspace -->
<g id="edge29" class="edge">
<title>GroupWorkspaces&#45;&gt;OutputWorkspace</title>
<path fill="none" stroke="black" d="M288.98,-71.7C288.98,-64.41 288.98,-55.73 288.98,-47.54"/>
<polygon fill="black" stroke="black" points="292.48,-47.62 288.98,-37.62 285.48,-47.62 292.48,-47.62"/>
</g>
</g>
</svg>
