<?xml version="1.0" encoding="UTF-8" standalone="no"?>
<!DOCTYPE svg PUBLIC "-//W3C//DTD SVG 1.1//EN"
 "http://www.w3.org/Graphics/SVG/1.1/DTD/svg11.dtd">
<!-- Generated by graphviz version 9.0.0 (20231125.0833)
 -->
<!-- Title: IndirectTransmissionMonitor Pages: 1 -->
<svg width="1156pt" height="788pt"
 viewBox="0.00 0.00 1155.82 788.25" xmlns="http://www.w3.org/2000/svg" xmlns:xlink="http://www.w3.org/1999/xlink">
<g id="graph0" class="graph" transform="scale(1 1) rotate(0) translate(4 784.25)">
<title>IndirectTransmissionMonitor</title>
<polygon fill="white" stroke="none" points="-4,4 -4,-784.25 1151.82,-784.25 1151.82,4 -4,4"/>
<text text-anchor="middle" x="573.91" y="-762.95" font-family="Helvetica,sans-Serif" font-size="14.00">IndirectTransmissionMonitor Flowchart</text>
<!-- ExtractMonitor_HaveMonitor2_1 -->
<g id="node1" class="node">
<title>ExtractMonitor_HaveMonitor2_1</title>
<polygon fill="limegreen" stroke="black" points="559.26,-665.75 431.04,-647.75 559.26,-629.75 687.48,-647.75 559.26,-665.75"/>
<text text-anchor="middle" x="559.26" y="-643.08" font-family="Helvetica,sans-Serif" font-size="14.00">Have Monitor 2?</text>
</g>
<!-- ExtractMonitor_CropWorkspace_M2 -->
<g id="node10" class="node">
<title>ExtractMonitor_CropWorkspace_M2</title>
<path fill="lightskyblue" stroke="black" d="M659.26,-522.5C659.26,-522.5 559.26,-522.5 559.26,-522.5 553.26,-522.5 547.26,-516.5 547.26,-510.5 547.26,-510.5 547.26,-498.5 547.26,-498.5 547.26,-492.5 553.26,-486.5 559.26,-486.5 559.26,-486.5 659.26,-486.5 659.26,-486.5 665.26,-486.5 671.26,-492.5 671.26,-498.5 671.26,-498.5 671.26,-510.5 671.26,-510.5 671.26,-516.5 665.26,-522.5 659.26,-522.5"/>
<text text-anchor="middle" x="609.26" y="-499.82" font-family="Helvetica,sans-Serif" font-size="14.00">CropWorkspace</text>
</g>
<!-- ExtractMonitor_HaveMonitor2_1&#45;&gt;ExtractMonitor_CropWorkspace_M2 -->
<g id="edge5" class="edge">
<title>ExtractMonitor_HaveMonitor2_1&#45;&gt;ExtractMonitor_CropWorkspace_M2</title>
<path fill="none" stroke="black" d="M567.61,-630.63C574.63,-616.6 584.55,-595.59 591.26,-576.5 596.07,-562.81 600.17,-547.23 603.23,-534.15"/>
<polygon fill="black" stroke="black" points="606.64,-534.97 605.42,-524.45 599.81,-533.44 606.64,-534.97"/>
<text text-anchor="middle" x="595.51" y="-598.45" font-family="Helvetica,sans-Serif" font-size="14.00">Yes</text>
</g>
<!-- ExtractMonitor_HaveMonitor2_2 -->
<g id="node2" class="node">
<title>ExtractMonitor_HaveMonitor2_2</title>
<polygon fill="limegreen" stroke="black" points="454.26,-576.5 326.04,-558.5 454.26,-540.5 582.48,-558.5 454.26,-576.5"/>
<text text-anchor="middle" x="454.26" y="-553.83" font-family="Helvetica,sans-Serif" font-size="14.00">Have Monitor 2?</text>
</g>
<!-- ExtractMonitor_ConvertUnitsMonitor2 -->
<g id="node12" class="node">
<title>ExtractMonitor_ConvertUnitsMonitor2</title>
<path fill="lightskyblue" stroke="black" d="M498.64,-468.5C498.64,-468.5 415.89,-468.5 415.89,-468.5 409.89,-468.5 403.89,-462.5 403.89,-456.5 403.89,-456.5 403.89,-444.5 403.89,-444.5 403.89,-438.5 409.89,-432.5 415.89,-432.5 415.89,-432.5 498.64,-432.5 498.64,-432.5 504.64,-432.5 510.64,-438.5 510.64,-444.5 510.64,-444.5 510.64,-456.5 510.64,-456.5 510.64,-462.5 504.64,-468.5 498.64,-468.5"/>
<text text-anchor="middle" x="457.26" y="-445.82" font-family="Helvetica,sans-Serif" font-size="14.00">ConvertUnits</text>
</g>
<!-- ExtractMonitor_HaveMonitor2_2&#45;&gt;ExtractMonitor_ConvertUnitsMonitor2 -->
<g id="edge14" class="edge">
<title>ExtractMonitor_HaveMonitor2_2&#45;&gt;ExtractMonitor_ConvertUnitsMonitor2</title>
<path fill="none" stroke="black" d="M454.74,-540.47C455.2,-524.26 455.9,-499.56 456.45,-480.29"/>
<polygon fill="black" stroke="black" points="459.94,-480.45 456.73,-470.35 452.95,-480.25 459.94,-480.45"/>
<text text-anchor="middle" x="467.51" y="-499.82" font-family="Helvetica,sans-Serif" font-size="14.00">Yes</text>
</g>
<!-- ExtractMonitor_End -->
<g id="node23" class="node">
<title>ExtractMonitor_End</title>
<ellipse fill="lightgrey" stroke="black" cx="387.26" cy="-18" rx="30.16" ry="18"/>
<text text-anchor="middle" x="387.26" y="-13.32" font-family="Helvetica,sans-Serif" font-size="14.00">End</text>
</g>
<!-- ExtractMonitor_HaveMonitor2_2&#45;&gt;ExtractMonitor_End -->
<g id="edge13" class="edge">
<title>ExtractMonitor_HaveMonitor2_2&#45;&gt;ExtractMonitor_End</title>
<path fill="none" stroke="black" d="M433.92,-543.18C410.51,-524.86 375.26,-490.75 375.26,-451.5 375.26,-451.5 375.26,-451.5 375.26,-90 375.26,-75.74 377.65,-60.09 380.29,-47.12"/>
<polygon fill="black" stroke="black" points="383.66,-48.08 382.4,-37.56 376.83,-46.57 383.66,-48.08"/>
<text text-anchor="middle" x="384.64" y="-264.82" font-family="Helvetica,sans-Serif" font-size="14.00">No</text>
</g>
<!-- ExtractMonitor_IsSameTimeRegime -->
<g id="node3" class="node">
<title>ExtractMonitor_IsSameTimeRegime</title>
<polygon fill="limegreen" stroke="black" points="154.26,-576.5 0,-558.5 154.26,-540.5 308.53,-558.5 154.26,-576.5"/>
<text text-anchor="middle" x="154.26" y="-553.83" font-family="Helvetica,sans-Serif" font-size="14.00">Is Same Start Time?</text>
</g>
<!-- ExtractMonitor_ConvertUnitsMonitor1 -->
<g id="node11" class="node">
<title>ExtractMonitor_ConvertUnitsMonitor1</title>
<path fill="lightskyblue" stroke="black" d="M284.64,-414.5C284.64,-414.5 201.89,-414.5 201.89,-414.5 195.89,-414.5 189.89,-408.5 189.89,-402.5 189.89,-402.5 189.89,-390.5 189.89,-390.5 189.89,-384.5 195.89,-378.5 201.89,-378.5 201.89,-378.5 284.64,-378.5 284.64,-378.5 290.64,-378.5 296.64,-384.5 296.64,-390.5 296.64,-390.5 296.64,-402.5 296.64,-402.5 296.64,-408.5 290.64,-414.5 284.64,-414.5"/>
<text text-anchor="middle" x="243.26" y="-391.82" font-family="Helvetica,sans-Serif" font-size="14.00">ConvertUnits</text>
</g>
<!-- ExtractMonitor_IsSameTimeRegime&#45;&gt;ExtractMonitor_ConvertUnitsMonitor1 -->
<g id="edge11" class="edge">
<title>ExtractMonitor_IsSameTimeRegime&#45;&gt;ExtractMonitor_ConvertUnitsMonitor1</title>
<path fill="none" stroke="black" d="M169.88,-541.83C185.77,-525.05 210.01,-496.98 224.26,-468.5 230.93,-455.17 235.47,-439.23 238.43,-425.83"/>
<polygon fill="black" stroke="black" points="241.81,-426.82 240.35,-416.32 234.94,-425.43 241.81,-426.82"/>
<text text-anchor="middle" x="225.51" y="-499.82" font-family="Helvetica,sans-Serif" font-size="14.00">Yes</text>
</g>
<!-- ExtractMonitor_UnwrapMonitor -->
<g id="node15" class="node">
<title>ExtractMonitor_UnwrapMonitor</title>
<path fill="lightskyblue" stroke="black" d="M203.51,-468.5C203.51,-468.5 105.01,-468.5 105.01,-468.5 99.01,-468.5 93.01,-462.5 93.01,-456.5 93.01,-456.5 93.01,-444.5 93.01,-444.5 93.01,-438.5 99.01,-432.5 105.01,-432.5 105.01,-432.5 203.51,-432.5 203.51,-432.5 209.51,-432.5 215.51,-438.5 215.51,-444.5 215.51,-444.5 215.51,-456.5 215.51,-456.5 215.51,-462.5 209.51,-468.5 203.51,-468.5"/>
<text text-anchor="middle" x="154.26" y="-445.82" font-family="Helvetica,sans-Serif" font-size="14.00">UnwrapMonitor</text>
</g>
<!-- ExtractMonitor_IsSameTimeRegime&#45;&gt;ExtractMonitor_UnwrapMonitor -->
<g id="edge6" class="edge">
<title>ExtractMonitor_IsSameTimeRegime&#45;&gt;ExtractMonitor_UnwrapMonitor</title>
<path fill="none" stroke="black" d="M154.26,-540.47C154.26,-524.26 154.26,-499.56 154.26,-480.29"/>
<polygon fill="black" stroke="black" points="157.76,-480.35 154.26,-470.35 150.76,-480.35 157.76,-480.35"/>
<text text-anchor="middle" x="163.64" y="-499.82" font-family="Helvetica,sans-Serif" font-size="14.00">No</text>
</g>
<!-- SampleWorkspace -->
<g id="node4" class="node">
<title>SampleWorkspace</title>
<ellipse fill="khaki" stroke="black" cx="717.26" cy="-737" rx="100.66" ry="18"/>
<text text-anchor="middle" x="717.26" y="-732.33" font-family="Helvetica,sans-Serif" font-size="14.00">SampleWorkspace</text>
</g>
<!-- GroupWorkspaces -->
<g id="node19" class="node">
<title>GroupWorkspaces</title>
<path fill="lightskyblue" stroke="black" d="M1107.89,-468.5C1107.89,-468.5 990.64,-468.5 990.64,-468.5 984.64,-468.5 978.64,-462.5 978.64,-456.5 978.64,-456.5 978.64,-444.5 978.64,-444.5 978.64,-438.5 984.64,-432.5 990.64,-432.5 990.64,-432.5 1107.89,-432.5 1107.89,-432.5 1113.89,-432.5 1119.89,-438.5 1119.89,-444.5 1119.89,-444.5 1119.89,-456.5 1119.89,-456.5 1119.89,-462.5 1113.89,-468.5 1107.89,-468.5"/>
<text text-anchor="middle" x="1049.26" y="-445.82" font-family="Helvetica,sans-Serif" font-size="14.00">GroupWorkspaces</text>
</g>
<!-- SampleWorkspace&#45;&gt;GroupWorkspaces -->
<g id="edge26" class="edge">
<title>SampleWorkspace&#45;&gt;GroupWorkspaces</title>
<path fill="none" stroke="black" d="M718.61,-718.8C721.17,-696.21 728.5,-656.31 749.26,-629.75 810.99,-550.81 918.18,-499.47 986.33,-473.01"/>
<polygon fill="black" stroke="black" points="987.4,-476.35 995.5,-469.52 984.91,-469.81 987.4,-476.35"/>
</g>
<!-- ExtractMonitor_Sample -->
<g id="node20" class="node">
<title>ExtractMonitor_Sample</title>
<polygon fill="lightseagreen" stroke="black" points="880.51,-665.75 758.01,-665.75 758.01,-629.75 880.51,-629.75 880.51,-665.75"/>
<text text-anchor="middle" x="819.26" y="-643.08" font-family="Helvetica,sans-Serif" font-size="14.00">Extract Monitor</text>
</g>
<!-- SampleWorkspace&#45;&gt;ExtractMonitor_Sample -->
<g id="edge21" class="edge">
<title>SampleWorkspace&#45;&gt;ExtractMonitor_Sample</title>
<path fill="none" stroke="black" d="M736.93,-719.18C752.11,-706.19 773.35,-688.03 790.45,-673.4"/>
<polygon fill="black" stroke="black" points="792.48,-676.26 797.81,-667.1 787.93,-670.94 792.48,-676.26"/>
</g>
<!-- CanWorkspace -->
<g id="node5" class="node">
<title>CanWorkspace</title>
<ellipse fill="khaki" stroke="black" cx="1020.26" cy="-737" rx="83.3" ry="18"/>
<text text-anchor="middle" x="1020.26" y="-732.33" font-family="Helvetica,sans-Serif" font-size="14.00">CanWorkspace</text>
</g>
<!-- CanWorkspace&#45;&gt;GroupWorkspaces -->
<g id="edge27" class="edge">
<title>CanWorkspace&#45;&gt;GroupWorkspaces</title>
<path fill="none" stroke="black" d="M1022.98,-718.71C1025.16,-704.51 1028.17,-683.86 1030.26,-665.75 1037.92,-599.38 1044.16,-521.13 1047.22,-480.03"/>
<polygon fill="black" stroke="black" points="1050.69,-480.49 1047.93,-470.26 1043.71,-479.98 1050.69,-480.49"/>
</g>
<!-- ExtractMonitor_Can -->
<g id="node21" class="node">
<title>ExtractMonitor_Can</title>
<polygon fill="lightseagreen" stroke="black" points="1021.51,-665.75 899.01,-665.75 899.01,-629.75 1021.51,-629.75 1021.51,-665.75"/>
<text text-anchor="middle" x="960.26" y="-643.08" font-family="Helvetica,sans-Serif" font-size="14.00">Extract Monitor</text>
</g>
<!-- CanWorkspace&#45;&gt;ExtractMonitor_Can -->
<g id="edge22" class="edge">
<title>CanWorkspace&#45;&gt;ExtractMonitor_Can</title>
<path fill="none" stroke="black" d="M1008.41,-718.76C999.86,-706.33 988.17,-689.33 978.45,-675.19"/>
<polygon fill="black" stroke="black" points="981.5,-673.46 972.95,-667.2 975.73,-677.42 981.5,-673.46"/>
</g>
<!-- OutputWorkspace -->
<g id="node6" class="node">
<title>OutputWorkspace</title>
<ellipse fill="khaki" stroke="black" cx="1049.26" cy="-342.5" rx="98.56" ry="18"/>
<text text-anchor="middle" x="1049.26" y="-337.82" font-family="Helvetica,sans-Serif" font-size="14.00">OutputWorkspace</text>
</g>
<!-- ExtractMonitor_CropWorkspace_D1 -->
<g id="node7" class="node">
<title>ExtractMonitor_CropWorkspace_D1</title>
<path fill="lightskyblue" stroke="black" d="M372.26,-665.75C372.26,-665.75 272.26,-665.75 272.26,-665.75 266.26,-665.75 260.26,-659.75 260.26,-653.75 260.26,-653.75 260.26,-641.75 260.26,-641.75 260.26,-635.75 266.26,-629.75 272.26,-629.75 272.26,-629.75 372.26,-629.75 372.26,-629.75 378.26,-629.75 384.26,-635.75 384.26,-641.75 384.26,-641.75 384.26,-653.75 384.26,-653.75 384.26,-659.75 378.26,-665.75 372.26,-665.75"/>
<text text-anchor="middle" x="322.26" y="-643.08" font-family="Helvetica,sans-Serif" font-size="14.00">CropWorkspace</text>
</g>
<!-- ExtractMonitor_CropWorkspace_D1&#45;&gt;ExtractMonitor_IsSameTimeRegime -->
<g id="edge3" class="edge">
<title>ExtractMonitor_CropWorkspace_D1&#45;&gt;ExtractMonitor_IsSameTimeRegime</title>
<path fill="none" stroke="black" d="M288.67,-629.3C260.7,-614.78 220.89,-594.1 191.86,-579.03"/>
<polygon fill="black" stroke="black" points="193.52,-575.95 183.04,-574.44 190.3,-582.16 193.52,-575.95"/>
</g>
<!-- ExtractMonitor_CropWorkspace_M1 -->
<g id="node8" class="node">
<title>ExtractMonitor_CropWorkspace_M1</title>
<path fill="lightskyblue" stroke="black" d="M230.26,-665.75C230.26,-665.75 130.26,-665.75 130.26,-665.75 124.26,-665.75 118.26,-659.75 118.26,-653.75 118.26,-653.75 118.26,-641.75 118.26,-641.75 118.26,-635.75 124.26,-629.75 130.26,-629.75 130.26,-629.75 230.26,-629.75 230.26,-629.75 236.26,-629.75 242.26,-635.75 242.26,-641.75 242.26,-641.75 242.26,-653.75 242.26,-653.75 242.26,-659.75 236.26,-665.75 230.26,-665.75"/>
<text text-anchor="middle" x="180.26" y="-643.08" font-family="Helvetica,sans-Serif" font-size="14.00">CropWorkspace</text>
</g>
<!-- ExtractMonitor_CropWorkspace_M1&#45;&gt;ExtractMonitor_HaveMonitor2_2 -->
<g id="edge12" class="edge">
<title>ExtractMonitor_CropWorkspace_M1&#45;&gt;ExtractMonitor_HaveMonitor2_2</title>
<path fill="none" stroke="black" d="M235.05,-629.3C284.89,-613.43 357.77,-590.23 405.6,-575"/>
<polygon fill="black" stroke="black" points="406.39,-578.42 414.86,-572.05 404.27,-571.75 406.39,-578.42"/>
</g>
<!-- ExtractMonitor_CropWorkspace_M1&#45;&gt;ExtractMonitor_IsSameTimeRegime -->
<g id="edge10" class="edge">
<title>ExtractMonitor_CropWorkspace_M1&#45;&gt;ExtractMonitor_IsSameTimeRegime</title>
<path fill="none" stroke="black" d="M175.13,-629.51C171.54,-617.48 166.68,-601.17 162.55,-587.32"/>
<polygon fill="black" stroke="black" points="165.94,-586.44 159.73,-577.86 159.23,-588.44 165.94,-586.44"/>
</g>
<!-- ExtractMonitor_CropWorkspace_M1_2 -->
<g id="node9" class="node">
<title>ExtractMonitor_CropWorkspace_M1_2</title>
<path fill="lightskyblue" stroke="black" d="M293.26,-198.25C293.26,-198.25 193.26,-198.25 193.26,-198.25 187.26,-198.25 181.26,-192.25 181.26,-186.25 181.26,-186.25 181.26,-174.25 181.26,-174.25 181.26,-168.25 187.26,-162.25 193.26,-162.25 193.26,-162.25 293.26,-162.25 293.26,-162.25 299.26,-162.25 305.26,-168.25 305.26,-174.25 305.26,-174.25 305.26,-186.25 305.26,-186.25 305.26,-192.25 299.26,-198.25 293.26,-198.25"/>
<text text-anchor="middle" x="243.26" y="-175.57" font-family="Helvetica,sans-Serif" font-size="14.00">CropWorkspace</text>
</g>
<!-- ExtractMonitor_Divide -->
<g id="node14" class="node">
<title>ExtractMonitor_Divide</title>
<path fill="lightskyblue" stroke="black" d="M451.01,-109C451.01,-109 415.51,-109 415.51,-109 409.51,-109 403.51,-103 403.51,-97 403.51,-97 403.51,-85 403.51,-85 403.51,-79 409.51,-73 415.51,-73 415.51,-73 451.01,-73 451.01,-73 457.01,-73 463.01,-79 463.01,-85 463.01,-85 463.01,-97 463.01,-97 463.01,-103 457.01,-109 451.01,-109"/>
<text text-anchor="middle" x="433.26" y="-86.33" font-family="Helvetica,sans-Serif" font-size="14.00">Divide</text>
</g>
<!-- ExtractMonitor_CropWorkspace_M1_2&#45;&gt;ExtractMonitor_Divide -->
<g id="edge19" class="edge">
<title>ExtractMonitor_CropWorkspace_M1_2&#45;&gt;ExtractMonitor_Divide</title>
<path fill="none" stroke="black" d="M268.16,-161.9C284.73,-150.89 307.27,-136.9 328.51,-127 348.95,-117.48 372.71,-109.32 392.43,-103.28"/>
<polygon fill="black" stroke="black" points="393.18,-106.71 401.77,-100.49 391.18,-100 393.18,-106.71"/>
<text text-anchor="middle" x="385.14" y="-130.95" font-family="Helvetica,sans-Serif" font-size="14.00">RHS (monitor 1)</text>
</g>
<!-- ExtractMonitor_RebinToWorkspace -->
<g id="node13" class="node">
<title>ExtractMonitor_RebinToWorkspace</title>
<path fill="lightskyblue" stroke="black" d="M536.76,-360.5C536.76,-360.5 415.76,-360.5 415.76,-360.5 409.76,-360.5 403.76,-354.5 403.76,-348.5 403.76,-348.5 403.76,-336.5 403.76,-336.5 403.76,-330.5 409.76,-324.5 415.76,-324.5 415.76,-324.5 536.76,-324.5 536.76,-324.5 542.76,-324.5 548.76,-330.5 548.76,-336.5 548.76,-336.5 548.76,-348.5 548.76,-348.5 548.76,-354.5 542.76,-360.5 536.76,-360.5"/>
<text text-anchor="middle" x="476.26" y="-337.82" font-family="Helvetica,sans-Serif" font-size="14.00">RebinToWorkspace</text>
</g>
<!-- ExtractMonitor_CropWorkspace_M2&#45;&gt;ExtractMonitor_RebinToWorkspace -->
<g id="edge17" class="edge">
<title>ExtractMonitor_CropWorkspace_M2&#45;&gt;ExtractMonitor_RebinToWorkspace</title>
<path fill="none" stroke="black" d="M612.59,-486.26C616.64,-459.81 620.06,-409.07 594.26,-378.5 585.18,-367.74 572.96,-360.2 559.81,-354.94"/>
<polygon fill="black" stroke="black" points="561.14,-351.69 550.54,-351.69 558.82,-358.3 561.14,-351.69"/>
<text text-anchor="middle" x="679.76" y="-445.82" font-family="Helvetica,sans-Serif" font-size="14.00">WorkspaceToRebin</text>
</g>
<!-- ExtractMonitor_ConvertUnitsMonitor1&#45;&gt;ExtractMonitor_CropWorkspace_M1_2 -->
<g id="edge15" class="edge">
<title>ExtractMonitor_ConvertUnitsMonitor1&#45;&gt;ExtractMonitor_CropWorkspace_M1_2</title>
<path fill="none" stroke="black" d="M243.26,-378.33C243.26,-341.58 243.26,-255 243.26,-209.82"/>
<polygon fill="black" stroke="black" points="246.76,-210.02 243.26,-200.02 239.76,-210.02 246.76,-210.02"/>
</g>
<!-- ExtractMonitor_ConvertUnitsMonitor2&#45;&gt;ExtractMonitor_RebinToWorkspace -->
<g id="edge16" class="edge">
<title>ExtractMonitor_ConvertUnitsMonitor2&#45;&gt;ExtractMonitor_RebinToWorkspace</title>
<path fill="none" stroke="black" d="M457,-432.06C457.13,-417.55 458.15,-396.45 462.26,-378.5 462.79,-376.21 463.44,-373.87 464.18,-371.54"/>
<polygon fill="black" stroke="black" points="467.38,-372.98 467.52,-362.38 460.81,-370.58 467.38,-372.98"/>
<text text-anchor="middle" x="528.26" y="-391.82" font-family="Helvetica,sans-Serif" font-size="14.00">WorkspaceToMatch</text>
</g>
<!-- ExtractMonitor_RebinToWorkspace&#45;&gt;ExtractMonitor_Divide -->
<g id="edge18" class="edge">
<title>ExtractMonitor_RebinToWorkspace&#45;&gt;ExtractMonitor_Divide</title>
<path fill="none" stroke="black" d="M473.31,-324.35C466.02,-282.06 447.13,-172.47 438.15,-120.34"/>
<polygon fill="black" stroke="black" points="441.64,-120.02 436.5,-110.76 434.75,-121.21 441.64,-120.02"/>
<text text-anchor="middle" x="512.01" y="-220.2" font-family="Helvetica,sans-Serif" font-size="14.00">LHS (monitor 2)</text>
</g>
<!-- ExtractMonitor_Divide&#45;&gt;ExtractMonitor_End -->
<g id="edge20" class="edge">
<title>ExtractMonitor_Divide&#45;&gt;ExtractMonitor_End</title>
<path fill="none" stroke="black" d="M422.13,-72.81C416.66,-64.37 409.96,-54.03 403.9,-44.68"/>
<polygon fill="black" stroke="black" points="406.86,-42.82 398.49,-36.33 400.99,-46.62 406.86,-42.82"/>
</g>
<!-- ExtractMonitor_RemoveBins -->
<g id="node16" class="node">
<title>ExtractMonitor_RemoveBins</title>
<path fill="lightskyblue" stroke="black" d="M201.01,-360.5C201.01,-360.5 123.51,-360.5 123.51,-360.5 117.51,-360.5 111.51,-354.5 111.51,-348.5 111.51,-348.5 111.51,-336.5 111.51,-336.5 111.51,-330.5 117.51,-324.5 123.51,-324.5 123.51,-324.5 201.01,-324.5 201.01,-324.5 207.01,-324.5 213.01,-330.5 213.01,-336.5 213.01,-336.5 213.01,-348.5 213.01,-348.5 213.01,-354.5 207.01,-360.5 201.01,-360.5"/>
<text text-anchor="middle" x="162.26" y="-337.82" font-family="Helvetica,sans-Serif" font-size="14.00">RemoveBins</text>
</g>
<!-- ExtractMonitor_UnwrapMonitor&#45;&gt;ExtractMonitor_RemoveBins -->
<g id="edge7" class="edge">
<title>ExtractMonitor_UnwrapMonitor&#45;&gt;ExtractMonitor_RemoveBins</title>
<path fill="none" stroke="black" d="M155.55,-432.47C156.77,-416.26 158.64,-391.56 160.09,-372.29"/>
<polygon fill="black" stroke="black" points="163.58,-372.58 160.84,-362.35 156.6,-372.06 163.58,-372.58"/>
</g>
<!-- ExtractMonitor_FFTSmooth -->
<g id="node17" class="node">
<title>ExtractMonitor_FFTSmooth</title>
<path fill="lightskyblue" stroke="black" d="M201.89,-287.5C201.89,-287.5 132.64,-287.5 132.64,-287.5 126.64,-287.5 120.64,-281.5 120.64,-275.5 120.64,-275.5 120.64,-263.5 120.64,-263.5 120.64,-257.5 126.64,-251.5 132.64,-251.5 132.64,-251.5 201.89,-251.5 201.89,-251.5 207.89,-251.5 213.89,-257.5 213.89,-263.5 213.89,-263.5 213.89,-275.5 213.89,-275.5 213.89,-281.5 207.89,-287.5 201.89,-287.5"/>
<text text-anchor="middle" x="167.26" y="-264.82" font-family="Helvetica,sans-Serif" font-size="14.00">FFTSmooth</text>
</g>
<!-- ExtractMonitor_RemoveBins&#45;&gt;ExtractMonitor_FFTSmooth -->
<g id="edge8" class="edge">
<title>ExtractMonitor_RemoveBins&#45;&gt;ExtractMonitor_FFTSmooth</title>
<path fill="none" stroke="black" d="M163.47,-324.31C164.01,-316.64 164.66,-307.39 165.27,-298.74"/>
<polygon fill="black" stroke="black" points="168.75,-299.26 165.96,-289.04 161.76,-298.77 168.75,-299.26"/>
</g>
<!-- ExtractMonitor_FFTSmooth&#45;&gt;ExtractMonitor_CropWorkspace_M1_2 -->
<g id="edge9" class="edge">
<title>ExtractMonitor_FFTSmooth&#45;&gt;ExtractMonitor_CropWorkspace_M1_2</title>
<path fill="none" stroke="black" d="M179.41,-251.02C186.91,-240.6 196.94,-227.3 206.76,-216.25 209.7,-212.95 212.89,-209.59 216.12,-206.33"/>
<polygon fill="black" stroke="black" points="218.34,-209.06 223.04,-199.57 213.45,-204.06 218.34,-209.06"/>
<text text-anchor="middle" x="218.51" y="-220.2" font-family="Helvetica,sans-Serif" font-size="14.00">Yes</text>
</g>
<!-- Divide -->
<g id="node18" class="node">
<title>Divide</title>
<path fill="lightskyblue" stroke="black" d="M1125.01,-576.5C1125.01,-576.5 1089.51,-576.5 1089.51,-576.5 1083.51,-576.5 1077.51,-570.5 1077.51,-564.5 1077.51,-564.5 1077.51,-552.5 1077.51,-552.5 1077.51,-546.5 1083.51,-540.5 1089.51,-540.5 1089.51,-540.5 1125.01,-540.5 1125.01,-540.5 1131.01,-540.5 1137.01,-546.5 1137.01,-552.5 1137.01,-552.5 1137.01,-564.5 1137.01,-564.5 1137.01,-570.5 1131.01,-576.5 1125.01,-576.5"/>
<text text-anchor="middle" x="1107.26" y="-553.83" font-family="Helvetica,sans-Serif" font-size="14.00">Divide</text>
</g>
<!-- Divide&#45;&gt;GroupWorkspaces -->
<g id="edge25" class="edge">
<title>Divide&#45;&gt;GroupWorkspaces</title>
<path fill="none" stroke="black" d="M1097.94,-540.47C1088.87,-523.88 1074.92,-498.38 1064.27,-478.93"/>
<polygon fill="black" stroke="black" points="1067.35,-477.26 1059.48,-470.17 1061.21,-480.62 1067.35,-477.26"/>
</g>
<!-- GroupWorkspaces&#45;&gt;OutputWorkspace -->
<g id="edge28" class="edge">
<title>GroupWorkspaces&#45;&gt;OutputWorkspace</title>
<path fill="none" stroke="black" d="M1049.26,-432.47C1049.26,-416.26 1049.26,-391.56 1049.26,-372.29"/>
<polygon fill="black" stroke="black" points="1052.76,-372.35 1049.26,-362.35 1045.76,-372.35 1052.76,-372.35"/>
</g>
<!-- ExtractMonitor_Sample&#45;&gt;Divide -->
<g id="edge23" class="edge">
<title>ExtractMonitor_Sample&#45;&gt;Divide</title>
<path fill="none" stroke="black" d="M875.5,-629.31C908.6,-619.09 951.28,-605.97 989.26,-594.5 1014.81,-586.78 1043.52,-578.27 1066.22,-571.57"/>
<polygon fill="black" stroke="black" points="1067.11,-574.95 1075.72,-568.77 1065.13,-568.24 1067.11,-574.95"/>
<text text-anchor="middle" x="1002.76" y="-598.45" font-family="Helvetica,sans-Serif" font-size="14.00">LHS</text>
</g>
<!-- ExtractMonitor_Can&#45;&gt;Divide -->
<g id="edge24" class="edge">
<title>ExtractMonitor_Can&#45;&gt;Divide</title>
<path fill="none" stroke="black" d="M989.66,-629.3C1012.19,-615.93 1043.5,-597.34 1068.15,-582.71"/>
<polygon fill="black" stroke="black" points="1069.8,-585.8 1076.62,-577.69 1066.23,-579.78 1069.8,-585.8"/>
<text text-anchor="middle" x="1060.89" y="-598.45" font-family="Helvetica,sans-Serif" font-size="14.00">RHS</text>
</g>
<!-- ExtractMonitor_Start -->
<g id="node22" class="node">
<title>ExtractMonitor_Start</title>
<ellipse fill="lightgrey" stroke="black" cx="322.26" cy="-737" rx="85.93" ry="18"/>
<text text-anchor="middle" x="322.26" y="-732.33" font-family="Helvetica,sans-Serif" font-size="14.00">Extract Monitor</text>
</g>
<!-- ExtractMonitor_Start&#45;&gt;ExtractMonitor_HaveMonitor2_1 -->
<g id="edge4" class="edge">
<title>ExtractMonitor_Start&#45;&gt;ExtractMonitor_HaveMonitor2_1</title>
<path fill="none" stroke="black" d="M363.54,-720.8C405.72,-705.27 471.02,-681.23 514.44,-665.25"/>
<polygon fill="black" stroke="black" points="515.39,-668.63 523.56,-661.89 512.97,-662.06 515.39,-668.63"/>
<text text-anchor="middle" x="495.26" y="-687.7" font-family="Helvetica,sans-Serif" font-size="14.00">Monitor 2</text>
</g>
<!-- ExtractMonitor_Start&#45;&gt;ExtractMonitor_CropWorkspace_D1 -->
<g id="edge2" class="edge">
<title>ExtractMonitor_Start&#45;&gt;ExtractMonitor_CropWorkspace_D1</title>
<path fill="none" stroke="black" d="M322.26,-718.76C322.26,-706.93 322.26,-690.95 322.26,-677.25"/>
<polygon fill="black" stroke="black" points="325.76,-677.47 322.26,-667.47 318.76,-677.47 325.76,-677.47"/>
<text text-anchor="middle" x="358.64" y="-687.7" font-family="Helvetica,sans-Serif" font-size="14.00">Detector 1</text>
</g>
<!-- ExtractMonitor_Start&#45;&gt;ExtractMonitor_CropWorkspace_M1 -->
<g id="edge1" class="edge">
<title>ExtractMonitor_Start&#45;&gt;ExtractMonitor_CropWorkspace_M1</title>
<path fill="none" stroke="black" d="M287.83,-720.18C276.31,-714.52 263.53,-707.84 252.26,-701 238.38,-692.57 223.75,-682.24 211.33,-673.01"/>
<polygon fill="black" stroke="black" points="213.61,-670.34 203.52,-667.11 209.39,-675.93 213.61,-670.34"/>
<text text-anchor="middle" x="285.26" y="-687.7" font-family="Helvetica,sans-Serif" font-size="14.00">Monitor 1</text>
</g>
</g>
</svg>
