<?xml version="1.0" encoding="UTF-8" standalone="no"?>
<!DOCTYPE svg PUBLIC "-//W3C//DTD SVG 1.1//EN"
 "http://www.w3.org/Graphics/SVG/1.1/DTD/svg11.dtd">
<!-- Generated by graphviz version 13.1.0 (20250701.1702)
 -->
<!-- Title: IndirectTransmissionMonitor Pages: 1 -->
<svg width="1154pt" height="788pt"
 viewBox="0.00 0.00 1154.00 788.00" xmlns="http://www.w3.org/2000/svg" xmlns:xlink="http://www.w3.org/1999/xlink">
<g id="graph0" class="graph" transform="scale(1 1) rotate(0) translate(4 784.25)">
<title>IndirectTransmissionMonitor</title>
<polygon fill="white" stroke="none" points="-4,4 -4,-784.25 1149.82,-784.25 1149.82,4 -4,4"/>
<text xml:space="preserve" text-anchor="middle" x="572.91" y="-762.95" font-family="Helvetica,sans-Serif" font-size="14.00">IndirectTransmissionMonitor Flowchart</text>
<!-- ExtractMonitor_HaveMonitor2_1 -->
<g id="node1" class="node">
<title>ExtractMonitor_HaveMonitor2_1</title>
<polygon fill="limegreen" stroke="black" points="546.26,-665.75 418.04,-647.75 546.26,-629.75 674.48,-647.75 546.26,-665.75"/>
<text xml:space="preserve" text-anchor="middle" x="546.26" y="-643.08" font-family="Helvetica,sans-Serif" font-size="14.00">Have Monitor 2?</text>
</g>
<!-- ExtractMonitor_CropWorkspace_M2 -->
<g id="node10" class="node">
<title>ExtractMonitor_CropWorkspace_M2</title>
<path fill="lightskyblue" stroke="black" d="M659.26,-522.5C659.26,-522.5 559.26,-522.5 559.26,-522.5 553.26,-522.5 547.26,-516.5 547.26,-510.5 547.26,-510.5 547.26,-498.5 547.26,-498.5 547.26,-492.5 553.26,-486.5 559.26,-486.5 559.26,-486.5 659.26,-486.5 659.26,-486.5 665.26,-486.5 671.26,-492.5 671.26,-498.5 671.26,-498.5 671.26,-510.5 671.26,-510.5 671.26,-516.5 665.26,-522.5 659.26,-522.5"/>
<text xml:space="preserve" text-anchor="middle" x="609.26" y="-499.82" font-family="Helvetica,sans-Serif" font-size="14.00">CropWorkspace</text>
</g>
<!-- ExtractMonitor_HaveMonitor2_1&#45;&gt;ExtractMonitor_CropWorkspace_M2 -->
<g id="edge5" class="edge">
<title>ExtractMonitor_HaveMonitor2_1&#45;&gt;ExtractMonitor_CropWorkspace_M2</title>
<path fill="none" stroke="black" d="M558.37,-631.12C568.47,-617.4 582.56,-596.57 591.26,-576.5 597.13,-562.96 601.38,-547.11 604.27,-533.83"/>
<polygon fill="black" stroke="black" points="607.62,-534.91 606.16,-524.42 600.75,-533.53 607.62,-534.91"/>
<text xml:space="preserve" text-anchor="middle" x="592.99" y="-598.45" font-family="Helvetica,sans-Serif" font-size="14.00">Yes</text>
</g>
<!-- ExtractMonitor_HaveMonitor2_2 -->
<g id="node2" class="node">
<title>ExtractMonitor_HaveMonitor2_2</title>
<polygon fill="limegreen" stroke="black" points="454.26,-576.5 326.04,-558.5 454.26,-540.5 582.48,-558.5 454.26,-576.5"/>
<text xml:space="preserve" text-anchor="middle" x="454.26" y="-553.83" font-family="Helvetica,sans-Serif" font-size="14.00">Have Monitor 2?</text>
</g>
<!-- ExtractMonitor_ConvertUnitsMonitor2 -->
<g id="node12" class="node">
<title>ExtractMonitor_ConvertUnitsMonitor2</title>
<path fill="lightskyblue" stroke="black" d="M498.64,-468.5C498.64,-468.5 415.89,-468.5 415.89,-468.5 409.89,-468.5 403.89,-462.5 403.89,-456.5 403.89,-456.5 403.89,-444.5 403.89,-444.5 403.89,-438.5 409.89,-432.5 415.89,-432.5 415.89,-432.5 498.64,-432.5 498.64,-432.5 504.64,-432.5 510.64,-438.5 510.64,-444.5 510.64,-444.5 510.64,-456.5 510.64,-456.5 510.64,-462.5 504.64,-468.5 498.64,-468.5"/>
<text xml:space="preserve" text-anchor="middle" x="457.26" y="-445.82" font-family="Helvetica,sans-Serif" font-size="14.00">ConvertUnits</text>
</g>
<!-- ExtractMonitor_HaveMonitor2_2&#45;&gt;ExtractMonitor_ConvertUnitsMonitor2 -->
<g id="edge14" class="edge">
<title>ExtractMonitor_HaveMonitor2_2&#45;&gt;ExtractMonitor_ConvertUnitsMonitor2</title>
<path fill="none" stroke="black" d="M454.74,-540.47C455.2,-524.26 455.9,-499.56 456.45,-480.29"/>
<polygon fill="black" stroke="black" points="459.94,-480.45 456.73,-470.35 452.95,-480.25 459.94,-480.45"/>
<text xml:space="preserve" text-anchor="middle" x="467.46" y="-499.82" font-family="Helvetica,sans-Serif" font-size="14.00">Yes</text>
</g>
<!-- ExtractMonitor_End -->
<g id="node23" class="node">
<title>ExtractMonitor_End</title>
<ellipse fill="lightgrey" stroke="black" cx="387.26" cy="-18" rx="30.16" ry="18"/>
<text xml:space="preserve" text-anchor="middle" x="387.26" y="-13.32" font-family="Helvetica,sans-Serif" font-size="14.00">End</text>
</g>
<!-- ExtractMonitor_HaveMonitor2_2&#45;&gt;ExtractMonitor_End -->
<g id="edge13" class="edge">
<title>ExtractMonitor_HaveMonitor2_2&#45;&gt;ExtractMonitor_End</title>
<path fill="none" stroke="black" d="M433.92,-543.18C410.51,-524.86 375.26,-490.75 375.26,-451.5 375.26,-451.5 375.26,-451.5 375.26,-90 375.26,-75.74 377.65,-60.09 380.29,-47.12"/>
<polygon fill="black" stroke="black" points="383.66,-48.08 382.4,-37.56 376.83,-46.57 383.66,-48.08"/>
<text xml:space="preserve" text-anchor="middle" x="384.64" y="-264.82" font-family="Helvetica,sans-Serif" font-size="14.00">No</text>
</g>
<!-- ExtractMonitor_IsSameTimeRegime -->
<g id="node3" class="node">
<title>ExtractMonitor_IsSameTimeRegime</title>
<polygon fill="limegreen" stroke="black" points="154.26,-576.5 0,-558.5 154.26,-540.5 308.53,-558.5 154.26,-576.5"/>
<text xml:space="preserve" text-anchor="middle" x="154.26" y="-553.83" font-family="Helvetica,sans-Serif" font-size="14.00">Is Same Start Time?</text>
</g>
<!-- ExtractMonitor_ConvertUnitsMonitor1 -->
<g id="node11" class="node">
<title>ExtractMonitor_ConvertUnitsMonitor1</title>
<path fill="lightskyblue" stroke="black" d="M284.64,-414.5C284.64,-414.5 201.89,-414.5 201.89,-414.5 195.89,-414.5 189.89,-408.5 189.89,-402.5 189.89,-402.5 189.89,-390.5 189.89,-390.5 189.89,-384.5 195.89,-378.5 201.89,-378.5 201.89,-378.5 284.64,-378.5 284.64,-378.5 290.64,-378.5 296.64,-384.5 296.64,-390.5 296.64,-390.5 296.64,-402.5 296.64,-402.5 296.64,-408.5 290.64,-414.5 284.64,-414.5"/>
<text xml:space="preserve" text-anchor="middle" x="243.26" y="-391.82" font-family="Helvetica,sans-Serif" font-size="14.00">ConvertUnits</text>
</g>
<!-- ExtractMonitor_IsSameTimeRegime&#45;&gt;ExtractMonitor_ConvertUnitsMonitor1 -->
<g id="edge11" class="edge">
<title>ExtractMonitor_IsSameTimeRegime&#45;&gt;ExtractMonitor_ConvertUnitsMonitor1</title>
<path fill="none" stroke="black" d="M169.88,-541.83C185.77,-525.05 210.01,-496.98 224.26,-468.5 230.93,-455.17 235.47,-439.23 238.43,-425.83"/>
<polygon fill="black" stroke="black" points="241.81,-426.82 240.35,-416.32 234.94,-425.43 241.81,-426.82"/>
<text xml:space="preserve" text-anchor="middle" x="224.54" y="-499.82" font-family="Helvetica,sans-Serif" font-size="14.00">Yes</text>
</g>
<!-- ExtractMonitor_UnwrapMonitor -->
<g id="node15" class="node">
<title>ExtractMonitor_UnwrapMonitor</title>
<path fill="lightskyblue" stroke="black" d="M203.51,-468.5C203.51,-468.5 105.01,-468.5 105.01,-468.5 99.01,-468.5 93.01,-462.5 93.01,-456.5 93.01,-456.5 93.01,-444.5 93.01,-444.5 93.01,-438.5 99.01,-432.5 105.01,-432.5 105.01,-432.5 203.51,-432.5 203.51,-432.5 209.51,-432.5 215.51,-438.5 215.51,-444.5 215.51,-444.5 215.51,-456.5 215.51,-456.5 215.51,-462.5 209.51,-468.5 203.51,-468.5"/>
<text xml:space="preserve" text-anchor="middle" x="154.26" y="-445.82" font-family="Helvetica,sans-Serif" font-size="14.00">UnwrapMonitor</text>
</g>
<!-- ExtractMonitor_IsSameTimeRegime&#45;&gt;ExtractMonitor_UnwrapMonitor -->
<g id="edge6" class="edge">
<title>ExtractMonitor_IsSameTimeRegime&#45;&gt;ExtractMonitor_UnwrapMonitor</title>
<path fill="none" stroke="black" d="M154.26,-540.47C154.26,-524.26 154.26,-499.56 154.26,-480.29"/>
<polygon fill="black" stroke="black" points="157.76,-480.35 154.26,-470.35 150.76,-480.35 157.76,-480.35"/>
<text xml:space="preserve" text-anchor="middle" x="163.64" y="-499.82" font-family="Helvetica,sans-Serif" font-size="14.00">No</text>
</g>
<!-- SampleWorkspace -->
<g id="node4" class="node">
<title>SampleWorkspace</title>
<ellipse fill="khaki" stroke="black" cx="716.26" cy="-737" rx="100.66" ry="18"/>
<text xml:space="preserve" text-anchor="middle" x="716.26" y="-732.33" font-family="Helvetica,sans-Serif" font-size="14.00">SampleWorkspace</text>
</g>
<!-- GroupWorkspaces -->
<g id="node19" class="node">
<title>GroupWorkspaces</title>
<path fill="lightskyblue" stroke="black" d="M1105.89,-468.5C1105.89,-468.5 988.64,-468.5 988.64,-468.5 982.64,-468.5 976.64,-462.5 976.64,-456.5 976.64,-456.5 976.64,-444.5 976.64,-444.5 976.64,-438.5 982.64,-432.5 988.64,-432.5 988.64,-432.5 1105.89,-432.5 1105.89,-432.5 1111.89,-432.5 1117.89,-438.5 1117.89,-444.5 1117.89,-444.5 1117.89,-456.5 1117.89,-456.5 1117.89,-462.5 1111.89,-468.5 1105.89,-468.5"/>
<text xml:space="preserve" text-anchor="middle" x="1047.26" y="-445.82" font-family="Helvetica,sans-Serif" font-size="14.00">GroupWorkspaces</text>
</g>
<!-- SampleWorkspace&#45;&gt;GroupWorkspaces -->
<g id="edge26" class="edge">
<title>SampleWorkspace&#45;&gt;GroupWorkspaces</title>
<path fill="none" stroke="black" d="M717.42,-718.8C719.74,-696.22 726.66,-656.33 747.26,-629.75 808.64,-550.54 915.94,-499.28 984.2,-472.91"/>
<polygon fill="black" stroke="black" points="985.28,-476.25 993.39,-469.43 982.8,-469.7 985.28,-476.25"/>
</g>
<!-- ExtractMonitor_Sample -->
<g id="node20" class="node">
<title>ExtractMonitor_Sample</title>
<polygon fill="lightseagreen" stroke="black" points="878.51,-665.75 756.01,-665.75 756.01,-629.75 878.51,-629.75 878.51,-665.75"/>
<text xml:space="preserve" text-anchor="middle" x="817.26" y="-643.08" font-family="Helvetica,sans-Serif" font-size="14.00">Extract Monitor</text>
</g>
<!-- SampleWorkspace&#45;&gt;ExtractMonitor_Sample -->
<g id="edge21" class="edge">
<title>SampleWorkspace&#45;&gt;ExtractMonitor_Sample</title>
<path fill="none" stroke="black" d="M735.74,-719.18C750.77,-706.19 771.8,-688.03 788.73,-673.4"/>
<polygon fill="black" stroke="black" points="790.73,-676.29 796.01,-667.11 786.16,-671 790.73,-676.29"/>
</g>
<!-- CanWorkspace -->
<g id="node5" class="node">
<title>CanWorkspace</title>
<ellipse fill="khaki" stroke="black" cx="1018.26" cy="-737" rx="83.3" ry="18"/>
<text xml:space="preserve" text-anchor="middle" x="1018.26" y="-732.33" font-family="Helvetica,sans-Serif" font-size="14.00">CanWorkspace</text>
</g>
<!-- CanWorkspace&#45;&gt;GroupWorkspaces -->
<g id="edge27" class="edge">
<title>CanWorkspace&#45;&gt;GroupWorkspaces</title>
<path fill="none" stroke="black" d="M1020.98,-718.71C1023.16,-704.51 1026.17,-683.86 1028.26,-665.75 1035.92,-599.38 1042.16,-521.13 1045.22,-480.03"/>
<polygon fill="black" stroke="black" points="1048.69,-480.49 1045.93,-470.26 1041.71,-479.98 1048.69,-480.49"/>
</g>
<!-- ExtractMonitor_Can -->
<g id="node21" class="node">
<title>ExtractMonitor_Can</title>
<polygon fill="lightseagreen" stroke="black" points="1019.51,-665.75 897.01,-665.75 897.01,-629.75 1019.51,-629.75 1019.51,-665.75"/>
<text xml:space="preserve" text-anchor="middle" x="958.26" y="-643.08" font-family="Helvetica,sans-Serif" font-size="14.00">Extract Monitor</text>
</g>
<!-- CanWorkspace&#45;&gt;ExtractMonitor_Can -->
<g id="edge22" class="edge">
<title>CanWorkspace&#45;&gt;ExtractMonitor_Can</title>
<path fill="none" stroke="black" d="M1006.41,-718.76C997.86,-706.33 986.17,-689.33 976.45,-675.19"/>
<polygon fill="black" stroke="black" points="979.5,-673.46 970.95,-667.2 973.73,-677.42 979.5,-673.46"/>
</g>
<!-- OutputWorkspace -->
<g id="node6" class="node">
<title>OutputWorkspace</title>
<ellipse fill="khaki" stroke="black" cx="1047.26" cy="-342.5" rx="98.56" ry="18"/>
<text xml:space="preserve" text-anchor="middle" x="1047.26" y="-337.82" font-family="Helvetica,sans-Serif" font-size="14.00">OutputWorkspace</text>
</g>
<!-- ExtractMonitor_CropWorkspace_D1 -->
<g id="node7" class="node">
<title>ExtractMonitor_CropWorkspace_D1</title>
<path fill="lightskyblue" stroke="black" d="M359.26,-665.75C359.26,-665.75 259.26,-665.75 259.26,-665.75 253.26,-665.75 247.26,-659.75 247.26,-653.75 247.26,-653.75 247.26,-641.75 247.26,-641.75 247.26,-635.75 253.26,-629.75 259.26,-629.75 259.26,-629.75 359.26,-629.75 359.26,-629.75 365.26,-629.75 371.26,-635.75 371.26,-641.75 371.26,-641.75 371.26,-653.75 371.26,-653.75 371.26,-659.75 365.26,-665.75 359.26,-665.75"/>
<text xml:space="preserve" text-anchor="middle" x="309.26" y="-643.08" font-family="Helvetica,sans-Serif" font-size="14.00">CropWorkspace</text>
</g>
<!-- ExtractMonitor_CropWorkspace_D1&#45;&gt;ExtractMonitor_IsSameTimeRegime -->
<g id="edge3" class="edge">
<title>ExtractMonitor_CropWorkspace_D1&#45;&gt;ExtractMonitor_IsSameTimeRegime</title>
<path fill="none" stroke="black" d="M278.27,-629.3C252.57,-614.84 216.06,-594.28 189.3,-579.22"/>
<polygon fill="black" stroke="black" points="191.32,-576.34 180.89,-574.49 187.89,-582.44 191.32,-576.34"/>
</g>
<!-- ExtractMonitor_CropWorkspace_M1 -->
<g id="node8" class="node">
<title>ExtractMonitor_CropWorkspace_M1</title>
<path fill="lightskyblue" stroke="black" d="M217.26,-665.75C217.26,-665.75 117.26,-665.75 117.26,-665.75 111.26,-665.75 105.26,-659.75 105.26,-653.75 105.26,-653.75 105.26,-641.75 105.26,-641.75 105.26,-635.75 111.26,-629.75 117.26,-629.75 117.26,-629.75 217.26,-629.75 217.26,-629.75 223.26,-629.75 229.26,-635.75 229.26,-641.75 229.26,-641.75 229.26,-653.75 229.26,-653.75 229.26,-659.75 223.26,-665.75 217.26,-665.75"/>
<text xml:space="preserve" text-anchor="middle" x="167.26" y="-643.08" font-family="Helvetica,sans-Serif" font-size="14.00">CropWorkspace</text>
</g>
<!-- ExtractMonitor_CropWorkspace_M1&#45;&gt;ExtractMonitor_HaveMonitor2_2 -->
<g id="edge12" class="edge">
<title>ExtractMonitor_CropWorkspace_M1&#45;&gt;ExtractMonitor_HaveMonitor2_2</title>
<path fill="none" stroke="black" d="M224.65,-629.3C277.12,-613.35 353.96,-589.99 404.04,-574.77"/>
<polygon fill="black" stroke="black" points="404.93,-578.16 413.48,-571.9 402.89,-571.46 404.93,-578.16"/>
</g>
<!-- ExtractMonitor_CropWorkspace_M1&#45;&gt;ExtractMonitor_IsSameTimeRegime -->
<g id="edge10" class="edge">
<title>ExtractMonitor_CropWorkspace_M1&#45;&gt;ExtractMonitor_IsSameTimeRegime</title>
<path fill="none" stroke="black" d="M164.69,-629.51C162.93,-617.68 160.55,-601.7 158.51,-588"/>
<polygon fill="black" stroke="black" points="161.98,-587.57 157.05,-578.2 155.06,-588.61 161.98,-587.57"/>
</g>
<!-- ExtractMonitor_CropWorkspace_M1_2 -->
<g id="node9" class="node">
<title>ExtractMonitor_CropWorkspace_M1_2</title>
<path fill="lightskyblue" stroke="black" d="M293.26,-198.25C293.26,-198.25 193.26,-198.25 193.26,-198.25 187.26,-198.25 181.26,-192.25 181.26,-186.25 181.26,-186.25 181.26,-174.25 181.26,-174.25 181.26,-168.25 187.26,-162.25 193.26,-162.25 193.26,-162.25 293.26,-162.25 293.26,-162.25 299.26,-162.25 305.26,-168.25 305.26,-174.25 305.26,-174.25 305.26,-186.25 305.26,-186.25 305.26,-192.25 299.26,-198.25 293.26,-198.25"/>
<text xml:space="preserve" text-anchor="middle" x="243.26" y="-175.57" font-family="Helvetica,sans-Serif" font-size="14.00">CropWorkspace</text>
</g>
<!-- ExtractMonitor_Divide -->
<g id="node14" class="node">
<title>ExtractMonitor_Divide</title>
<path fill="lightskyblue" stroke="black" d="M451.01,-109C451.01,-109 415.51,-109 415.51,-109 409.51,-109 403.51,-103 403.51,-97 403.51,-97 403.51,-85 403.51,-85 403.51,-79 409.51,-73 415.51,-73 415.51,-73 451.01,-73 451.01,-73 457.01,-73 463.01,-79 463.01,-85 463.01,-85 463.01,-97 463.01,-97 463.01,-103 457.01,-109 451.01,-109"/>
<text xml:space="preserve" text-anchor="middle" x="433.26" y="-86.33" font-family="Helvetica,sans-Serif" font-size="14.00">Divide</text>
</g>
<!-- ExtractMonitor_CropWorkspace_M1_2&#45;&gt;ExtractMonitor_Divide -->
<g id="edge19" class="edge">
<title>ExtractMonitor_CropWorkspace_M1_2&#45;&gt;ExtractMonitor_Divide</title>
<path fill="none" stroke="black" d="M268.16,-161.9C284.73,-150.89 307.27,-136.9 328.51,-127 348.95,-117.48 372.71,-109.32 392.43,-103.28"/>
<polygon fill="black" stroke="black" points="393.18,-106.71 401.77,-100.49 391.18,-100 393.18,-106.71"/>
<text xml:space="preserve" text-anchor="middle" x="384.39" y="-130.95" font-family="Helvetica,sans-Serif" font-size="14.00">RHS (monitor 1)</text>
</g>
<!-- ExtractMonitor_RebinToWorkspace -->
<g id="node13" class="node">
<title>ExtractMonitor_RebinToWorkspace</title>
<path fill="lightskyblue" stroke="black" d="M536.76,-360.5C536.76,-360.5 415.76,-360.5 415.76,-360.5 409.76,-360.5 403.76,-354.5 403.76,-348.5 403.76,-348.5 403.76,-336.5 403.76,-336.5 403.76,-330.5 409.76,-324.5 415.76,-324.5 415.76,-324.5 536.76,-324.5 536.76,-324.5 542.76,-324.5 548.76,-330.5 548.76,-336.5 548.76,-336.5 548.76,-348.5 548.76,-348.5 548.76,-354.5 542.76,-360.5 536.76,-360.5"/>
<text xml:space="preserve" text-anchor="middle" x="476.26" y="-337.82" font-family="Helvetica,sans-Serif" font-size="14.00">RebinToWorkspace</text>
</g>
<!-- ExtractMonitor_CropWorkspace_M2&#45;&gt;ExtractMonitor_RebinToWorkspace -->
<g id="edge17" class="edge">
<title>ExtractMonitor_CropWorkspace_M2&#45;&gt;ExtractMonitor_RebinToWorkspace</title>
<path fill="none" stroke="black" d="M612.59,-486.26C616.64,-459.81 620.06,-409.07 594.26,-378.5 585.18,-367.74 572.96,-360.2 559.81,-354.94"/>
<polygon fill="black" stroke="black" points="561.14,-351.69 550.54,-351.69 558.82,-358.3 561.14,-351.69"/>
<text xml:space="preserve" text-anchor="middle" x="679.89" y="-445.82" font-family="Helvetica,sans-Serif" font-size="14.00">WorkspaceToRebin</text>
</g>
<!-- ExtractMonitor_ConvertUnitsMonitor1&#45;&gt;ExtractMonitor_CropWorkspace_M1_2 -->
<g id="edge15" class="edge">
<title>ExtractMonitor_ConvertUnitsMonitor1&#45;&gt;ExtractMonitor_CropWorkspace_M1_2</title>
<path fill="none" stroke="black" d="M243.26,-378.33C243.26,-341.58 243.26,-255 243.26,-209.82"/>
<polygon fill="black" stroke="black" points="246.76,-210.02 243.26,-200.02 239.76,-210.02 246.76,-210.02"/>
</g>
<!-- ExtractMonitor_ConvertUnitsMonitor2&#45;&gt;ExtractMonitor_RebinToWorkspace -->
<g id="edge16" class="edge">
<title>ExtractMonitor_ConvertUnitsMonitor2&#45;&gt;ExtractMonitor_RebinToWorkspace</title>
<path fill="none" stroke="black" d="M457,-432.06C457.13,-417.55 458.15,-396.45 462.26,-378.5 462.79,-376.21 463.44,-373.87 464.18,-371.54"/>
<polygon fill="black" stroke="black" points="467.38,-372.98 467.52,-362.38 460.81,-370.58 467.38,-372.98"/>
<text xml:space="preserve" text-anchor="middle" x="528.26" y="-391.82" font-family="Helvetica,sans-Serif" font-size="14.00">WorkspaceToMatch</text>
</g>
<!-- ExtractMonitor_RebinToWorkspace&#45;&gt;ExtractMonitor_Divide -->
<g id="edge18" class="edge">
<title>ExtractMonitor_RebinToWorkspace&#45;&gt;ExtractMonitor_Divide</title>
<path fill="none" stroke="black" d="M473.31,-324.35C466.02,-282.06 447.13,-172.47 438.15,-120.34"/>
<polygon fill="black" stroke="black" points="441.64,-120.02 436.5,-110.76 434.75,-121.21 441.64,-120.02"/>
<text xml:space="preserve" text-anchor="middle" x="511.99" y="-220.2" font-family="Helvetica,sans-Serif" font-size="14.00">LHS (monitor 2)</text>
</g>
<!-- ExtractMonitor_Divide&#45;&gt;ExtractMonitor_End -->
<g id="edge20" class="edge">
<title>ExtractMonitor_Divide&#45;&gt;ExtractMonitor_End</title>
<path fill="none" stroke="black" d="M422.13,-72.81C416.66,-64.37 409.96,-54.03 403.9,-44.68"/>
<polygon fill="black" stroke="black" points="406.86,-42.82 398.49,-36.33 400.99,-46.62 406.86,-42.82"/>
</g>
<!-- ExtractMonitor_RemoveBins -->
<g id="node16" class="node">
<title>ExtractMonitor_RemoveBins</title>
<path fill="lightskyblue" stroke="black" d="M201.01,-360.5C201.01,-360.5 123.51,-360.5 123.51,-360.5 117.51,-360.5 111.51,-354.5 111.51,-348.5 111.51,-348.5 111.51,-336.5 111.51,-336.5 111.51,-330.5 117.51,-324.5 123.51,-324.5 123.51,-324.5 201.01,-324.5 201.01,-324.5 207.01,-324.5 213.01,-330.5 213.01,-336.5 213.01,-336.5 213.01,-348.5 213.01,-348.5 213.01,-354.5 207.01,-360.5 201.01,-360.5"/>
<text xml:space="preserve" text-anchor="middle" x="162.26" y="-337.82" font-family="Helvetica,sans-Serif" font-size="14.00">RemoveBins</text>
</g>
<!-- ExtractMonitor_UnwrapMonitor&#45;&gt;ExtractMonitor_RemoveBins -->
<g id="edge7" class="edge">
<title>ExtractMonitor_UnwrapMonitor&#45;&gt;ExtractMonitor_RemoveBins</title>
<path fill="none" stroke="black" d="M155.55,-432.47C156.77,-416.26 158.64,-391.56 160.09,-372.29"/>
<polygon fill="black" stroke="black" points="163.58,-372.58 160.84,-362.35 156.6,-372.06 163.58,-372.58"/>
</g>
<!-- ExtractMonitor_FFTSmooth -->
<g id="node17" class="node">
<title>ExtractMonitor_FFTSmooth</title>
<path fill="lightskyblue" stroke="black" d="M201.89,-287.5C201.89,-287.5 132.64,-287.5 132.64,-287.5 126.64,-287.5 120.64,-281.5 120.64,-275.5 120.64,-275.5 120.64,-263.5 120.64,-263.5 120.64,-257.5 126.64,-251.5 132.64,-251.5 132.64,-251.5 201.89,-251.5 201.89,-251.5 207.89,-251.5 213.89,-257.5 213.89,-263.5 213.89,-263.5 213.89,-275.5 213.89,-275.5 213.89,-281.5 207.89,-287.5 201.89,-287.5"/>
<text xml:space="preserve" text-anchor="middle" x="167.26" y="-264.82" font-family="Helvetica,sans-Serif" font-size="14.00">FFTSmooth</text>
</g>
<!-- ExtractMonitor_RemoveBins&#45;&gt;ExtractMonitor_FFTSmooth -->
<g id="edge8" class="edge">
<title>ExtractMonitor_RemoveBins&#45;&gt;ExtractMonitor_FFTSmooth</title>
<path fill="none" stroke="black" d="M163.47,-324.31C164.01,-316.64 164.66,-307.39 165.27,-298.74"/>
<polygon fill="black" stroke="black" points="168.75,-299.26 165.96,-289.04 161.76,-298.77 168.75,-299.26"/>
</g>
<!-- ExtractMonitor_FFTSmooth&#45;&gt;ExtractMonitor_CropWorkspace_M1_2 -->
<g id="edge9" class="edge">
<title>ExtractMonitor_FFTSmooth&#45;&gt;ExtractMonitor_CropWorkspace_M1_2</title>
<path fill="none" stroke="black" d="M179.41,-251.02C186.91,-240.6 196.94,-227.3 206.76,-216.25 209.7,-212.95 212.89,-209.59 216.12,-206.33"/>
<polygon fill="black" stroke="black" points="218.34,-209.06 223.04,-199.57 213.45,-204.06 218.34,-209.06"/>
<text xml:space="preserve" text-anchor="middle" x="218.01" y="-220.2" font-family="Helvetica,sans-Serif" font-size="14.00">Yes</text>
</g>
<!-- Divide -->
<g id="node18" class="node">
<title>Divide</title>
<path fill="lightskyblue" stroke="black" d="M1123.01,-576.5C1123.01,-576.5 1087.51,-576.5 1087.51,-576.5 1081.51,-576.5 1075.51,-570.5 1075.51,-564.5 1075.51,-564.5 1075.51,-552.5 1075.51,-552.5 1075.51,-546.5 1081.51,-540.5 1087.51,-540.5 1087.51,-540.5 1123.01,-540.5 1123.01,-540.5 1129.01,-540.5 1135.01,-546.5 1135.01,-552.5 1135.01,-552.5 1135.01,-564.5 1135.01,-564.5 1135.01,-570.5 1129.01,-576.5 1123.01,-576.5"/>
<text xml:space="preserve" text-anchor="middle" x="1105.26" y="-553.83" font-family="Helvetica,sans-Serif" font-size="14.00">Divide</text>
</g>
<!-- Divide&#45;&gt;GroupWorkspaces -->
<g id="edge25" class="edge">
<title>Divide&#45;&gt;GroupWorkspaces</title>
<path fill="none" stroke="black" d="M1095.94,-540.47C1086.87,-523.88 1072.92,-498.38 1062.27,-478.93"/>
<polygon fill="black" stroke="black" points="1065.35,-477.26 1057.48,-470.17 1059.21,-480.62 1065.35,-477.26"/>
</g>
<!-- GroupWorkspaces&#45;&gt;OutputWorkspace -->
<g id="edge28" class="edge">
<title>GroupWorkspaces&#45;&gt;OutputWorkspace</title>
<path fill="none" stroke="black" d="M1047.26,-432.47C1047.26,-416.26 1047.26,-391.56 1047.26,-372.29"/>
<polygon fill="black" stroke="black" points="1050.76,-372.35 1047.26,-362.35 1043.76,-372.35 1050.76,-372.35"/>
</g>
<!-- ExtractMonitor_Sample&#45;&gt;Divide -->
<g id="edge23" class="edge">
<title>ExtractMonitor_Sample&#45;&gt;Divide</title>
<path fill="none" stroke="black" d="M873.5,-629.31C906.6,-619.09 949.28,-605.97 987.26,-594.5 1012.81,-586.78 1041.52,-578.27 1064.22,-571.57"/>
<polygon fill="black" stroke="black" points="1065.11,-574.95 1073.72,-568.77 1063.13,-568.24 1065.11,-574.95"/>
<text xml:space="preserve" text-anchor="middle" x="1000.76" y="-598.45" font-family="Helvetica,sans-Serif" font-size="14.00">LHS</text>
</g>
<!-- ExtractMonitor_Can&#45;&gt;Divide -->
<g id="edge24" class="edge">
<title>ExtractMonitor_Can&#45;&gt;Divide</title>
<path fill="none" stroke="black" d="M987.66,-629.3C1010.19,-615.93 1041.5,-597.34 1066.15,-582.71"/>
<polygon fill="black" stroke="black" points="1067.8,-585.8 1074.62,-577.69 1064.23,-579.78 1067.8,-585.8"/>
<text xml:space="preserve" text-anchor="middle" x="1059.55" y="-598.45" font-family="Helvetica,sans-Serif" font-size="14.00">RHS</text>
</g>
<!-- ExtractMonitor_Start -->
<g id="node22" class="node">
<title>ExtractMonitor_Start</title>
<ellipse fill="lightgrey" stroke="black" cx="309.26" cy="-737" rx="85.93" ry="18"/>
<text xml:space="preserve" text-anchor="middle" x="309.26" y="-732.33" font-family="Helvetica,sans-Serif" font-size="14.00">Extract Monitor</text>
</g>
<!-- ExtractMonitor_Start&#45;&gt;ExtractMonitor_HaveMonitor2_1 -->
<g id="edge4" class="edge">
<title>ExtractMonitor_Start&#45;&gt;ExtractMonitor_HaveMonitor2_1</title>
<path fill="none" stroke="black" d="M350.54,-720.8C392.72,-705.27 458.02,-681.23 501.44,-665.25"/>
<polygon fill="black" stroke="black" points="502.39,-668.63 510.56,-661.89 499.97,-662.06 502.39,-668.63"/>
<text xml:space="preserve" text-anchor="middle" x="481.99" y="-687.7" font-family="Helvetica,sans-Serif" font-size="14.00">Monitor 2</text>
</g>
<!-- ExtractMonitor_Start&#45;&gt;ExtractMonitor_CropWorkspace_D1 -->
<g id="edge2" class="edge">
<title>ExtractMonitor_Start&#45;&gt;ExtractMonitor_CropWorkspace_D1</title>
<path fill="none" stroke="black" d="M309.26,-718.76C309.26,-706.93 309.26,-690.95 309.26,-677.25"/>
<polygon fill="black" stroke="black" points="312.76,-677.47 309.26,-667.47 305.76,-677.47 312.76,-677.47"/>
<text xml:space="preserve" text-anchor="middle" x="345.64" y="-687.7" font-family="Helvetica,sans-Serif" font-size="14.00">Detector 1</text>
</g>
<!-- ExtractMonitor_Start&#45;&gt;ExtractMonitor_CropWorkspace_M1 -->
<g id="edge1" class="edge">
<title>ExtractMonitor_Start&#45;&gt;ExtractMonitor_CropWorkspace_M1</title>
<path fill="none" stroke="black" d="M274.83,-720.18C263.31,-714.52 250.53,-707.84 239.26,-701 225.38,-692.57 210.75,-682.24 198.33,-673.01"/>
<polygon fill="black" stroke="black" points="200.61,-670.34 190.52,-667.11 196.39,-675.93 200.61,-670.34"/>
<text xml:space="preserve" text-anchor="middle" x="272.26" y="-687.7" font-family="Helvetica,sans-Serif" font-size="14.00">Monitor 1</text>
</g>
</g>
</svg>
