<?xml version="1.0" encoding="UTF-8" standalone="no"?>
<!DOCTYPE svg PUBLIC "-//W3C//DTD SVG 1.1//EN"
 "http://www.w3.org/Graphics/SVG/1.1/DTD/svg11.dtd">
<!-- Generated by graphviz version 7.0.5 (20221231.0122)
 -->
<!-- Title: IndirectFlatePlateAbsorption Pages: 1 -->
<svg width="1830pt" height="1743pt"
 viewBox="0.00 0.00 1830.19 1743.00" xmlns="http://www.w3.org/2000/svg" xmlns:xlink="http://www.w3.org/1999/xlink">
<g id="graph0" class="graph" transform="scale(1 1) rotate(0) translate(4 1739)">
<title>IndirectFlatePlateAbsorption</title>
<polygon fill="white" stroke="none" points="-4,4 -4,-1739 1826.19,-1739 1826.19,4 -4,4"/>
<text text-anchor="middle" x="911.1" y="-1719.8" font-family="Helvetica,sans-Serif" font-size="14.00">IndirectFlatePlateAbsorption Flowchart</text>
<!-- SampleWorkspace1 -->
<g id="node1" class="node">
<title>SampleWorkspace1</title>
<ellipse fill="khaki" stroke="black" cx="1543.19" cy="-1694" rx="93.68" ry="18"/>
<text text-anchor="middle" x="1543.19" y="-1690.3" font-family="Helvetica,sans-Serif" font-size="14.00">SampleWorkspace</text>
</g>
<!-- GetEFixed -->
<g id="node23" class="node">
<title>GetEFixed</title>
<path fill="lightskyblue" stroke="black" d="M1573.69,-1639C1573.69,-1639 1512.69,-1639 1512.69,-1639 1506.69,-1639 1500.69,-1633 1500.69,-1627 1500.69,-1627 1500.69,-1615 1500.69,-1615 1500.69,-1609 1506.69,-1603 1512.69,-1603 1512.69,-1603 1573.69,-1603 1573.69,-1603 1579.69,-1603 1585.69,-1609 1585.69,-1615 1585.69,-1615 1585.69,-1627 1585.69,-1627 1585.69,-1633 1579.69,-1639 1573.69,-1639"/>
<text text-anchor="middle" x="1543.19" y="-1617.3" font-family="Helvetica,sans-Serif" font-size="14.00">GetEFixed</text>
</g>
<!-- SampleWorkspace1&#45;&gt;GetEFixed -->
<g id="edge1" class="edge">
<title>SampleWorkspace1&#45;&gt;GetEFixed</title>
<path fill="none" stroke="black" d="M1543.19,-1675.81C1543.19,-1668.23 1543.19,-1659.1 1543.19,-1650.54"/>
<polygon fill="black" stroke="black" points="1546.69,-1650.54 1543.19,-1640.54 1539.69,-1650.54 1546.69,-1650.54"/>
</g>
<!-- SampleWorkspace2 -->
<g id="node2" class="node">
<title>SampleWorkspace2</title>
<ellipse fill="khaki" stroke="black" cx="474.19" cy="-1009" rx="93.68" ry="18"/>
<text text-anchor="middle" x="474.19" y="-1005.3" font-family="Helvetica,sans-Serif" font-size="14.00">SampleWorkspace</text>
</g>
<!-- Divide1 -->
<g id="node45" class="node">
<title>Divide1</title>
<ellipse fill="lightgrey" stroke="black" cx="694.19" cy="-936" rx="44.69" ry="18"/>
<text text-anchor="middle" x="694.19" y="-932.3" font-family="Helvetica,sans-Serif" font-size="14.00">Divide1</text>
</g>
<!-- SampleWorkspace2&#45;&gt;Divide1 -->
<g id="edge23" class="edge">
<title>SampleWorkspace2&#45;&gt;Divide1</title>
<path fill="none" stroke="black" d="M520.85,-992.94C558.85,-980.68 612.14,-963.48 649.58,-951.4"/>
<polygon fill="black" stroke="black" points="650.29,-954.85 658.73,-948.44 648.14,-948.18 650.29,-954.85"/>
</g>
<!-- SampleChemicalFormula -->
<g id="node3" class="node">
<title>SampleChemicalFormula</title>
<ellipse fill="khaki" stroke="black" cx="292.19" cy="-1461" rx="122.38" ry="18"/>
<text text-anchor="middle" x="292.19" y="-1457.3" font-family="Helvetica,sans-Serif" font-size="14.00">SampleChemicalFormula</text>
</g>
<!-- SetSample -->
<g id="node30" class="node">
<title>SetSample</title>
<path fill="lightskyblue" stroke="black" d="M906.69,-1406C906.69,-1406 839.69,-1406 839.69,-1406 833.69,-1406 827.69,-1400 827.69,-1394 827.69,-1394 827.69,-1382 827.69,-1382 827.69,-1376 833.69,-1370 839.69,-1370 839.69,-1370 906.69,-1370 906.69,-1370 912.69,-1370 918.69,-1376 918.69,-1382 918.69,-1382 918.69,-1394 918.69,-1394 918.69,-1400 912.69,-1406 906.69,-1406"/>
<text text-anchor="middle" x="873.19" y="-1384.3" font-family="Helvetica,sans-Serif" font-size="14.00">SetSample</text>
</g>
<!-- SampleChemicalFormula&#45;&gt;SetSample -->
<g id="edge11" class="edge">
<title>SampleChemicalFormula&#45;&gt;SetSample</title>
<path fill="none" stroke="black" d="M380.22,-1448.14C394.57,-1446.33 409.29,-1444.55 423.19,-1443 594.83,-1423.83 643.29,-1439.76 816.42,-1406.09"/>
<polygon fill="black" stroke="black" points="816.84,-1409.57 825.97,-1404.2 815.48,-1402.71 816.84,-1409.57"/>
</g>
<!-- SampleDensity -->
<g id="node4" class="node">
<title>SampleDensity</title>
<ellipse fill="khaki" stroke="black" cx="511.19" cy="-1461" rx="78.79" ry="18"/>
<text text-anchor="middle" x="511.19" y="-1457.3" font-family="Helvetica,sans-Serif" font-size="14.00">SampleDensity</text>
</g>
<!-- SampleDensity&#45;&gt;SetSample -->
<g id="edge12" class="edge">
<title>SampleDensity&#45;&gt;SetSample</title>
<path fill="none" stroke="black" d="M569.38,-1448.56C579.32,-1446.66 589.55,-1444.75 599.19,-1443 692.82,-1426.05 720.2,-1428.63 816.3,-1406.27"/>
<polygon fill="black" stroke="black" points="817,-1409.7 825.93,-1404 815.39,-1402.89 817,-1409.7"/>
</g>
<!-- SampleHeight -->
<g id="node5" class="node">
<title>SampleHeight</title>
<ellipse fill="khaki" stroke="black" cx="682.19" cy="-1461" rx="74.19" ry="18"/>
<text text-anchor="middle" x="682.19" y="-1457.3" font-family="Helvetica,sans-Serif" font-size="14.00">SampleHeight</text>
</g>
<!-- SampleHeight&#45;&gt;SetSample -->
<g id="edge9" class="edge">
<title>SampleHeight&#45;&gt;SetSample</title>
<path fill="none" stroke="black" d="M721.31,-1445.46C748.84,-1435.23 786.11,-1421.37 816.84,-1409.95"/>
<polygon fill="black" stroke="black" points="817.84,-1413.31 825.99,-1406.55 815.4,-1406.75 817.84,-1413.31"/>
</g>
<!-- SampleInnerRadius -->
<g id="node6" class="node">
<title>SampleInnerRadius</title>
<ellipse fill="khaki" stroke="black" cx="873.19" cy="-1461" rx="98.58" ry="18"/>
<text text-anchor="middle" x="873.19" y="-1457.3" font-family="Helvetica,sans-Serif" font-size="14.00">SampleInnerRadius</text>
</g>
<!-- SampleInnerRadius&#45;&gt;SetSample -->
<g id="edge7" class="edge">
<title>SampleInnerRadius&#45;&gt;SetSample</title>
<path fill="none" stroke="black" d="M873.19,-1442.81C873.19,-1435.23 873.19,-1426.1 873.19,-1417.54"/>
<polygon fill="black" stroke="black" points="876.69,-1417.54 873.19,-1407.54 869.69,-1417.54 876.69,-1417.54"/>
</g>
<!-- SampleOuterRadius -->
<g id="node7" class="node">
<title>SampleOuterRadius</title>
<ellipse fill="khaki" stroke="black" cx="1091.19" cy="-1461" rx="100.98" ry="18"/>
<text text-anchor="middle" x="1091.19" y="-1457.3" font-family="Helvetica,sans-Serif" font-size="14.00">SampleOuterRadius</text>
</g>
<!-- SampleOuterRadius&#45;&gt;SetSample -->
<g id="edge8" class="edge">
<title>SampleOuterRadius&#45;&gt;SetSample</title>
<path fill="none" stroke="black" d="M1044.16,-1444.68C1010.58,-1433.75 965.26,-1418.98 929.71,-1407.41"/>
<polygon fill="black" stroke="black" points="931.05,-1404.16 920.46,-1404.39 928.88,-1410.82 931.05,-1404.16"/>
</g>
<!-- SampleAngle -->
<g id="node8" class="node">
<title>SampleAngle</title>
<ellipse fill="khaki" stroke="black" cx="1280.19" cy="-1461" rx="70.39" ry="18"/>
<text text-anchor="middle" x="1280.19" y="-1457.3" font-family="Helvetica,sans-Serif" font-size="14.00">SampleAngle</text>
</g>
<!-- SampleAngle&#45;&gt;SetSample -->
<g id="edge10" class="edge">
<title>SampleAngle&#45;&gt;SetSample</title>
<path fill="none" stroke="black" d="M1228.42,-1448.48C1219.36,-1446.57 1210.01,-1444.67 1201.19,-1443 1106.52,-1425.03 995.81,-1407.53 930.26,-1397.53"/>
<polygon fill="black" stroke="black" points="930.86,-1394.08 920.45,-1396.04 929.81,-1401 930.86,-1394.08"/>
</g>
<!-- BeamHeight -->
<g id="node9" class="node">
<title>BeamHeight</title>
<ellipse fill="khaki" stroke="black" cx="1261.19" cy="-1534" rx="66.09" ry="18"/>
<text text-anchor="middle" x="1261.19" y="-1530.3" font-family="Helvetica,sans-Serif" font-size="14.00">BeamHeight</text>
</g>
<!-- SetBeam -->
<g id="node27" class="node">
<title>SetBeam</title>
<path fill="lightskyblue" stroke="black" d="M1435.69,-1479C1435.69,-1479 1380.69,-1479 1380.69,-1479 1374.69,-1479 1368.69,-1473 1368.69,-1467 1368.69,-1467 1368.69,-1455 1368.69,-1455 1368.69,-1449 1374.69,-1443 1380.69,-1443 1380.69,-1443 1435.69,-1443 1435.69,-1443 1441.69,-1443 1447.69,-1449 1447.69,-1455 1447.69,-1455 1447.69,-1467 1447.69,-1467 1447.69,-1473 1441.69,-1479 1435.69,-1479"/>
<text text-anchor="middle" x="1408.19" y="-1457.3" font-family="Helvetica,sans-Serif" font-size="14.00">SetBeam</text>
</g>
<!-- BeamHeight&#45;&gt;SetBeam -->
<g id="edge4" class="edge">
<title>BeamHeight&#45;&gt;SetBeam</title>
<path fill="none" stroke="black" d="M1292.73,-1517.77C1312.83,-1508.06 1339.23,-1495.31 1361.71,-1484.45"/>
<polygon fill="black" stroke="black" points="1363.21,-1487.61 1370.69,-1480.11 1360.16,-1481.31 1363.21,-1487.61"/>
</g>
<!-- BeamWidth -->
<g id="node10" class="node">
<title>BeamWidth</title>
<ellipse fill="khaki" stroke="black" cx="1408.19" cy="-1534" rx="63.09" ry="18"/>
<text text-anchor="middle" x="1408.19" y="-1530.3" font-family="Helvetica,sans-Serif" font-size="14.00">BeamWidth</text>
</g>
<!-- BeamWidth&#45;&gt;SetBeam -->
<g id="edge5" class="edge">
<title>BeamWidth&#45;&gt;SetBeam</title>
<path fill="none" stroke="black" d="M1408.19,-1515.81C1408.19,-1508.23 1408.19,-1499.1 1408.19,-1490.54"/>
<polygon fill="black" stroke="black" points="1411.69,-1490.54 1408.19,-1480.54 1404.69,-1490.54 1411.69,-1490.54"/>
</g>
<!-- Events -->
<g id="node11" class="node">
<title>Events</title>
<ellipse fill="khaki" stroke="black" cx="517.19" cy="-1388" rx="41.69" ry="18"/>
<text text-anchor="middle" x="517.19" y="-1384.3" font-family="Helvetica,sans-Serif" font-size="14.00">Events</text>
</g>
<!-- MonteCarlo -->
<g id="node33" class="node">
<title>MonteCarlo</title>
<path fill="lightskyblue" stroke="black" d="M728.69,-1333C728.69,-1333 657.69,-1333 657.69,-1333 651.69,-1333 645.69,-1327 645.69,-1321 645.69,-1321 645.69,-1309 645.69,-1309 645.69,-1303 651.69,-1297 657.69,-1297 657.69,-1297 728.69,-1297 728.69,-1297 734.69,-1297 740.69,-1303 740.69,-1309 740.69,-1309 740.69,-1321 740.69,-1321 740.69,-1327 734.69,-1333 728.69,-1333"/>
<text text-anchor="middle" x="693.19" y="-1311.3" font-family="Helvetica,sans-Serif" font-size="14.00">MonteCarlo</text>
</g>
<!-- Events&#45;&gt;MonteCarlo -->
<g id="edge14" class="edge">
<title>Events&#45;&gt;MonteCarlo</title>
<path fill="none" stroke="black" d="M547.05,-1374.96C572.31,-1364.76 609.16,-1349.9 639.53,-1337.65"/>
<polygon fill="black" stroke="black" points="640.6,-1340.99 648.57,-1334 637.98,-1334.5 640.6,-1340.99"/>
</g>
<!-- NumberOfWavelengths -->
<g id="node12" class="node">
<title>NumberOfWavelengths</title>
<ellipse fill="khaki" stroke="black" cx="693.19" cy="-1388" rx="116.18" ry="18"/>
<text text-anchor="middle" x="693.19" y="-1384.3" font-family="Helvetica,sans-Serif" font-size="14.00">NumberOfWavelengths</text>
</g>
<!-- NumberOfWavelengths&#45;&gt;MonteCarlo -->
<g id="edge15" class="edge">
<title>NumberOfWavelengths&#45;&gt;MonteCarlo</title>
<path fill="none" stroke="black" d="M693.19,-1369.81C693.19,-1362.23 693.19,-1353.1 693.19,-1344.54"/>
<polygon fill="black" stroke="black" points="696.69,-1344.54 693.19,-1334.54 689.69,-1344.54 696.69,-1344.54"/>
</g>
<!-- AbsWorkspace1 -->
<g id="node13" class="node">
<title>AbsWorkspace1</title>
<ellipse fill="khaki" stroke="black" cx="681.19" cy="-1242" rx="109.38" ry="18"/>
<text text-anchor="middle" x="681.19" y="-1238.3" font-family="Helvetica,sans-Serif" font-size="14.00">AbsorptionWorkspace</text>
</g>
<!-- AbsWorkspace2 -->
<g id="node14" class="node">
<title>AbsWorkspace2</title>
<ellipse fill="khaki" stroke="black" cx="695.19" cy="-1009" rx="109.38" ry="18"/>
<text text-anchor="middle" x="695.19" y="-1005.3" font-family="Helvetica,sans-Serif" font-size="14.00">AbsorptionWorkspace</text>
</g>
<!-- AbsWorkspace2&#45;&gt;Divide1 -->
<g id="edge24" class="edge">
<title>AbsWorkspace2&#45;&gt;Divide1</title>
<path fill="none" stroke="black" d="M694.95,-990.81C694.84,-983.23 694.72,-974.1 694.59,-965.54"/>
<polygon fill="black" stroke="black" points="698.09,-965.49 694.45,-955.54 691.1,-965.59 698.09,-965.49"/>
</g>
<!-- CanAbsorptionWorkspace -->
<g id="node15" class="node">
<title>CanAbsorptionWorkspace</title>
<ellipse fill="khaki" stroke="black" cx="627.19" cy="-397" rx="126.98" ry="18"/>
<text text-anchor="middle" x="627.19" y="-393.3" font-family="Helvetica,sans-Serif" font-size="14.00">CanAbsorptionWorkspace</text>
</g>
<!-- CanWorkspace1 -->
<g id="node16" class="node">
<title>CanWorkspace1</title>
<ellipse fill="khaki" stroke="black" cx="438.19" cy="-776" rx="83.39" ry="18"/>
<text text-anchor="middle" x="438.19" y="-772.3" font-family="Helvetica,sans-Serif" font-size="14.00">CanWorkspace1</text>
</g>
<!-- SetBeam1 -->
<g id="node28" class="node">
<title>SetBeam1</title>
<path fill="lightskyblue" stroke="black" d="M251.69,-707C251.69,-707 196.69,-707 196.69,-707 190.69,-707 184.69,-701 184.69,-695 184.69,-695 184.69,-683 184.69,-683 184.69,-677 190.69,-671 196.69,-671 196.69,-671 251.69,-671 251.69,-671 257.69,-671 263.69,-677 263.69,-683 263.69,-683 263.69,-695 263.69,-695 263.69,-701 257.69,-707 251.69,-707"/>
<text text-anchor="middle" x="224.19" y="-685.3" font-family="Helvetica,sans-Serif" font-size="14.00">SetBeam</text>
</g>
<!-- CanWorkspace1&#45;&gt;SetBeam1 -->
<g id="edge27" class="edge">
<title>CanWorkspace1&#45;&gt;SetBeam1</title>
<path fill="none" stroke="black" d="M399.44,-759.61C364.43,-745.7 312.69,-725.15 274.5,-709.98"/>
<polygon fill="black" stroke="black" points="276.1,-706.85 265.52,-706.41 273.52,-713.36 276.1,-706.85"/>
</g>
<!-- CanWorkspace2 -->
<g id="node17" class="node">
<title>CanWorkspace2</title>
<ellipse fill="khaki" stroke="black" cx="693.19" cy="-776" rx="83.39" ry="18"/>
<text text-anchor="middle" x="693.19" y="-772.3" font-family="Helvetica,sans-Serif" font-size="14.00">CanWorkspace2</text>
</g>
<!-- SetBeam2 -->
<g id="node29" class="node">
<title>SetBeam2</title>
<path fill="lightskyblue" stroke="black" d="M720.69,-707C720.69,-707 665.69,-707 665.69,-707 659.69,-707 653.69,-701 653.69,-695 653.69,-695 653.69,-683 653.69,-683 653.69,-677 659.69,-671 665.69,-671 665.69,-671 720.69,-671 720.69,-671 726.69,-671 732.69,-677 732.69,-683 732.69,-683 732.69,-695 732.69,-695 732.69,-701 726.69,-707 720.69,-707"/>
<text text-anchor="middle" x="693.19" y="-685.3" font-family="Helvetica,sans-Serif" font-size="14.00">SetBeam</text>
</g>
<!-- CanWorkspace2&#45;&gt;SetBeam2 -->
<g id="edge35" class="edge">
<title>CanWorkspace2&#45;&gt;SetBeam2</title>
<path fill="none" stroke="black" d="M693.19,-757.8C693.19,-746.58 693.19,-731.67 693.19,-718.69"/>
<polygon fill="black" stroke="black" points="696.69,-718.98 693.19,-708.98 689.69,-718.98 696.69,-718.98"/>
</g>
<!-- CanChemicalFormula -->
<g id="node18" class="node">
<title>CanChemicalFormula</title>
<ellipse fill="khaki" stroke="black" cx="387.19" cy="-689" rx="105.88" ry="18"/>
<text text-anchor="middle" x="387.19" y="-685.3" font-family="Helvetica,sans-Serif" font-size="14.00">CanChemicalFormula</text>
</g>
<!-- SetSample1 -->
<g id="node31" class="node">
<title>SetSample1</title>
<path fill="lightskyblue" stroke="black" d="M420.69,-634C420.69,-634 353.69,-634 353.69,-634 347.69,-634 341.69,-628 341.69,-622 341.69,-622 341.69,-610 341.69,-610 341.69,-604 347.69,-598 353.69,-598 353.69,-598 420.69,-598 420.69,-598 426.69,-598 432.69,-604 432.69,-610 432.69,-610 432.69,-622 432.69,-622 432.69,-628 426.69,-634 420.69,-634"/>
<text text-anchor="middle" x="387.19" y="-612.3" font-family="Helvetica,sans-Serif" font-size="14.00">SetSample</text>
</g>
<!-- CanChemicalFormula&#45;&gt;SetSample1 -->
<g id="edge29" class="edge">
<title>CanChemicalFormula&#45;&gt;SetSample1</title>
<path fill="none" stroke="black" d="M387.19,-670.81C387.19,-663.23 387.19,-654.1 387.19,-645.54"/>
<polygon fill="black" stroke="black" points="390.69,-645.54 387.19,-635.54 383.69,-645.54 390.69,-645.54"/>
</g>
<!-- SetSample2 -->
<g id="node32" class="node">
<title>SetSample2</title>
<path fill="lightskyblue" stroke="black" d="M660.69,-634C660.69,-634 593.69,-634 593.69,-634 587.69,-634 581.69,-628 581.69,-622 581.69,-622 581.69,-610 581.69,-610 581.69,-604 587.69,-598 593.69,-598 593.69,-598 660.69,-598 660.69,-598 666.69,-598 672.69,-604 672.69,-610 672.69,-610 672.69,-622 672.69,-622 672.69,-628 666.69,-634 660.69,-634"/>
<text text-anchor="middle" x="627.19" y="-612.3" font-family="Helvetica,sans-Serif" font-size="14.00">SetSample</text>
</g>
<!-- CanChemicalFormula&#45;&gt;SetSample2 -->
<g id="edge38" class="edge">
<title>CanChemicalFormula&#45;&gt;SetSample2</title>
<path fill="none" stroke="black" d="M438.38,-672.86C477.14,-661.39 530.36,-645.65 570.42,-633.79"/>
<polygon fill="black" stroke="black" points="571.3,-637.18 579.9,-630.99 569.32,-630.47 571.3,-637.18"/>
</g>
<!-- CanDensity -->
<g id="node19" class="node">
<title>CanDensity</title>
<ellipse fill="khaki" stroke="black" cx="573.19" cy="-689" rx="62.29" ry="18"/>
<text text-anchor="middle" x="573.19" y="-685.3" font-family="Helvetica,sans-Serif" font-size="14.00">CanDensity</text>
</g>
<!-- CanDensity&#45;&gt;SetSample1 -->
<g id="edge30" class="edge">
<title>CanDensity&#45;&gt;SetSample1</title>
<path fill="none" stroke="black" d="M536.89,-674.14C510.31,-664 473.75,-650.04 443.41,-638.46"/>
<polygon fill="black" stroke="black" points="444.97,-635.31 434.38,-635.01 442.48,-641.85 444.97,-635.31"/>
</g>
<!-- CanDensity&#45;&gt;SetSample2 -->
<g id="edge39" class="edge">
<title>CanDensity&#45;&gt;SetSample2</title>
<path fill="none" stroke="black" d="M585.99,-671.17C592.31,-662.87 600.07,-652.66 607.15,-643.35"/>
<polygon fill="black" stroke="black" points="609.74,-645.73 613.01,-635.65 604.17,-641.49 609.74,-645.73"/>
</g>
<!-- CanInnerRadius -->
<g id="node20" class="node">
<title>CanInnerRadius</title>
<ellipse fill="khaki" stroke="black" cx="83.19" cy="-689" rx="83.39" ry="18"/>
<text text-anchor="middle" x="83.19" y="-685.3" font-family="Helvetica,sans-Serif" font-size="14.00">CanInnerRadius</text>
</g>
<!-- CanInnerRadius&#45;&gt;SetSample1 -->
<g id="edge31" class="edge">
<title>CanInnerRadius&#45;&gt;SetSample1</title>
<path fill="none" stroke="black" d="M138.24,-675.14C192.67,-662.43 275.56,-643.07 330.53,-630.23"/>
<polygon fill="black" stroke="black" points="331.06,-633.7 340.01,-628.02 329.47,-626.89 331.06,-633.7"/>
</g>
<!-- CanOuterRadius -->
<g id="node21" class="node">
<title>CanOuterRadius</title>
<ellipse fill="khaki" stroke="black" cx="836.19" cy="-689" rx="85.29" ry="18"/>
<text text-anchor="middle" x="836.19" y="-685.3" font-family="Helvetica,sans-Serif" font-size="14.00">CanOuterRadius</text>
</g>
<!-- CanOuterRadius&#45;&gt;SetSample2 -->
<g id="edge37" class="edge">
<title>CanOuterRadius&#45;&gt;SetSample2</title>
<path fill="none" stroke="black" d="M792.38,-673.12C760.84,-662.4 718.02,-647.85 683.87,-636.26"/>
<polygon fill="black" stroke="black" points="685.15,-632.99 674.55,-633.09 682.89,-639.62 685.15,-632.99"/>
</g>
<!-- OutputWorkspace -->
<g id="node22" class="node">
<title>OutputWorkspace</title>
<ellipse fill="khaki" stroke="black" cx="908.19" cy="-18" rx="91.78" ry="18"/>
<text text-anchor="middle" x="908.19" y="-14.3" font-family="Helvetica,sans-Serif" font-size="14.00">OutputWorkspace</text>
</g>
<!-- ConvertUnits1 -->
<g id="node24" class="node">
<title>ConvertUnits1</title>
<path fill="lightskyblue" stroke="black" d="M1584.69,-1552C1584.69,-1552 1501.69,-1552 1501.69,-1552 1495.69,-1552 1489.69,-1546 1489.69,-1540 1489.69,-1540 1489.69,-1528 1489.69,-1528 1489.69,-1522 1495.69,-1516 1501.69,-1516 1501.69,-1516 1584.69,-1516 1584.69,-1516 1590.69,-1516 1596.69,-1522 1596.69,-1528 1596.69,-1528 1596.69,-1540 1596.69,-1540 1596.69,-1546 1590.69,-1552 1584.69,-1552"/>
<text text-anchor="middle" x="1543.19" y="-1530.3" font-family="Helvetica,sans-Serif" font-size="14.00">ConvertUnits</text>
</g>
<!-- GetEFixed&#45;&gt;ConvertUnits1 -->
<g id="edge2" class="edge">
<title>GetEFixed&#45;&gt;ConvertUnits1</title>
<path fill="none" stroke="black" d="M1543.19,-1602.8C1543.19,-1591.58 1543.19,-1576.67 1543.19,-1563.69"/>
<polygon fill="black" stroke="black" points="1546.69,-1563.98 1543.19,-1553.98 1539.69,-1563.98 1546.69,-1563.98"/>
<text text-anchor="middle" x="1682.69" y="-1573.8" font-family="Helvetica,sans-Serif" font-size="14.00">Convert input workspace to Wavelength</text>
</g>
<!-- ConvertUnits1&#45;&gt;SetBeam -->
<g id="edge3" class="edge">
<title>ConvertUnits1&#45;&gt;SetBeam</title>
<path fill="none" stroke="black" d="M1510.17,-1515.63C1492.43,-1506.31 1470.36,-1494.7 1451.29,-1484.67"/>
<polygon fill="black" stroke="black" points="1453.16,-1481.7 1442.68,-1480.14 1449.91,-1487.89 1453.16,-1481.7"/>
</g>
<!-- ConvertUnits2 -->
<g id="node25" class="node">
<title>ConvertUnits2</title>
<path fill="lightskyblue" stroke="black" d="M955.69,-1173C955.69,-1173 872.69,-1173 872.69,-1173 866.69,-1173 860.69,-1167 860.69,-1161 860.69,-1161 860.69,-1149 860.69,-1149 860.69,-1143 866.69,-1137 872.69,-1137 872.69,-1137 955.69,-1137 955.69,-1137 961.69,-1137 967.69,-1143 967.69,-1149 967.69,-1149 967.69,-1161 967.69,-1161 967.69,-1167 961.69,-1173 955.69,-1173"/>
<text text-anchor="middle" x="914.19" y="-1151.3" font-family="Helvetica,sans-Serif" font-size="14.00">ConvertUnits</text>
</g>
<!-- Scale -->
<g id="node36" class="node">
<title>Scale</title>
<path fill="lightskyblue" stroke="black" d="M874.19,-1100C874.19,-1100 844.19,-1100 844.19,-1100 838.19,-1100 832.19,-1094 832.19,-1088 832.19,-1088 832.19,-1076 832.19,-1076 832.19,-1070 838.19,-1064 844.19,-1064 844.19,-1064 874.19,-1064 874.19,-1064 880.19,-1064 886.19,-1070 886.19,-1076 886.19,-1076 886.19,-1088 886.19,-1088 886.19,-1094 880.19,-1100 874.19,-1100"/>
<text text-anchor="middle" x="859.19" y="-1078.3" font-family="Helvetica,sans-Serif" font-size="14.00">Scale</text>
</g>
<!-- ConvertUnits2&#45;&gt;Scale -->
<g id="edge19" class="edge">
<title>ConvertUnits2&#45;&gt;Scale</title>
<path fill="none" stroke="black" d="M900.88,-1136.81C894.39,-1128.44 886.46,-1118.2 879.26,-1108.9"/>
<polygon fill="black" stroke="black" points="882.2,-1106.99 873.31,-1101.23 876.67,-1111.27 882.2,-1106.99"/>
</g>
<!-- Clone -->
<g id="node44" class="node">
<title>Clone</title>
<ellipse fill="lightgrey" stroke="black" cx="859.19" cy="-1009" rx="36.29" ry="18"/>
<text text-anchor="middle" x="859.19" y="-1005.3" font-family="Helvetica,sans-Serif" font-size="14.00">Clone</text>
</g>
<!-- ConvertUnits2&#45;&gt;Clone -->
<g id="edge20" class="edge">
<title>ConvertUnits2&#45;&gt;Clone</title>
<path fill="none" stroke="black" d="M912.53,-1136.84C910.29,-1118.29 905.34,-1088.14 895.19,-1064 891,-1054.04 884.9,-1043.96 878.91,-1035.25"/>
<polygon fill="black" stroke="black" points="881.87,-1033.37 873.18,-1027.31 876.19,-1037.47 881.87,-1033.37"/>
</g>
<!-- ConvertUnits3 -->
<g id="node26" class="node">
<title>ConvertUnits3</title>
<path fill="lightskyblue" stroke="black" d="M949.69,-255C949.69,-255 866.69,-255 866.69,-255 860.69,-255 854.69,-249 854.69,-243 854.69,-243 854.69,-231 854.69,-231 854.69,-225 860.69,-219 866.69,-219 866.69,-219 949.69,-219 949.69,-219 955.69,-219 961.69,-225 961.69,-231 961.69,-231 961.69,-243 961.69,-243 961.69,-249 955.69,-255 949.69,-255"/>
<text text-anchor="middle" x="908.19" y="-233.3" font-family="Helvetica,sans-Serif" font-size="14.00">ConvertUnits</text>
</g>
<!-- AddSampleLogMultiple -->
<g id="node39" class="node">
<title>AddSampleLogMultiple</title>
<path fill="lightskyblue" stroke="black" d="M983.69,-182C983.69,-182 832.69,-182 832.69,-182 826.69,-182 820.69,-176 820.69,-170 820.69,-170 820.69,-158 820.69,-158 820.69,-152 826.69,-146 832.69,-146 832.69,-146 983.69,-146 983.69,-146 989.69,-146 995.69,-152 995.69,-158 995.69,-158 995.69,-170 995.69,-170 995.69,-176 989.69,-182 983.69,-182"/>
<text text-anchor="middle" x="908.19" y="-160.3" font-family="Helvetica,sans-Serif" font-size="14.00">AddSampleLogMultiple</text>
</g>
<!-- ConvertUnits3&#45;&gt;AddSampleLogMultiple -->
<g id="edge48" class="edge">
<title>ConvertUnits3&#45;&gt;AddSampleLogMultiple</title>
<path fill="none" stroke="black" d="M908.19,-218.81C908.19,-211.23 908.19,-202.1 908.19,-193.54"/>
<polygon fill="black" stroke="black" points="911.69,-193.54 908.19,-183.54 904.69,-193.54 911.69,-193.54"/>
</g>
<!-- SetBeam&#45;&gt;SetSample -->
<g id="edge6" class="edge">
<title>SetBeam&#45;&gt;SetSample</title>
<path fill="none" stroke="black" d="M1368.29,-1445.34C1365.24,-1444.47 1362.18,-1443.67 1359.19,-1443 1206.68,-1408.53 1022.07,-1395.71 930.48,-1391.23"/>
<polygon fill="black" stroke="black" points="930.65,-1387.73 920.49,-1390.76 930.32,-1394.72 930.65,-1387.73"/>
</g>
<!-- SetBeam1&#45;&gt;SetSample1 -->
<g id="edge28" class="edge">
<title>SetBeam1&#45;&gt;SetSample1</title>
<path fill="none" stroke="black" d="M264.07,-670.63C285.97,-661.09 313.36,-649.16 336.74,-638.98"/>
<polygon fill="black" stroke="black" points="338.01,-642.24 345.78,-635.04 335.21,-635.82 338.01,-642.24"/>
</g>
<!-- SetBeam2&#45;&gt;SetSample2 -->
<g id="edge36" class="edge">
<title>SetBeam2&#45;&gt;SetSample2</title>
<path fill="none" stroke="black" d="M677.22,-670.81C669.27,-662.27 659.51,-651.77 650.73,-642.32"/>
<polygon fill="black" stroke="black" points="653.42,-640.08 644.05,-635.14 648.3,-644.84 653.42,-640.08"/>
</g>
<!-- SetSample&#45;&gt;MonteCarlo -->
<g id="edge13" class="edge">
<title>SetSample&#45;&gt;MonteCarlo</title>
<path fill="none" stroke="black" d="M829.16,-1369.63C804.64,-1359.96 773.91,-1347.84 747.86,-1337.56"/>
<polygon fill="black" stroke="black" points="749.39,-1334.4 738.8,-1333.99 746.82,-1340.92 749.39,-1334.4"/>
</g>
<!-- MonteCarlo1 -->
<g id="node34" class="node">
<title>MonteCarlo1</title>
<path fill="lightskyblue" stroke="black" d="M513.69,-561C513.69,-561 442.69,-561 442.69,-561 436.69,-561 430.69,-555 430.69,-549 430.69,-549 430.69,-537 430.69,-537 430.69,-531 436.69,-525 442.69,-525 442.69,-525 513.69,-525 513.69,-525 519.69,-525 525.69,-531 525.69,-537 525.69,-537 525.69,-549 525.69,-549 525.69,-555 519.69,-561 513.69,-561"/>
<text text-anchor="middle" x="478.19" y="-539.3" font-family="Helvetica,sans-Serif" font-size="14.00">MonteCarlo</text>
</g>
<!-- SetSample1&#45;&gt;MonteCarlo1 -->
<g id="edge32" class="edge">
<title>SetSample1&#45;&gt;MonteCarlo1</title>
<path fill="none" stroke="black" d="M409.22,-597.81C420.65,-588.9 434.8,-577.86 447.3,-568.1"/>
<polygon fill="black" stroke="black" points="449.13,-571.12 454.86,-562.21 444.82,-565.6 449.13,-571.12"/>
</g>
<!-- MonteCarlo2 -->
<g id="node35" class="node">
<title>MonteCarlo2</title>
<path fill="lightskyblue" stroke="black" d="M662.69,-561C662.69,-561 591.69,-561 591.69,-561 585.69,-561 579.69,-555 579.69,-549 579.69,-549 579.69,-537 579.69,-537 579.69,-531 585.69,-525 591.69,-525 591.69,-525 662.69,-525 662.69,-525 668.69,-525 674.69,-531 674.69,-537 674.69,-537 674.69,-549 674.69,-549 674.69,-555 668.69,-561 662.69,-561"/>
<text text-anchor="middle" x="627.19" y="-539.3" font-family="Helvetica,sans-Serif" font-size="14.00">MonteCarlo</text>
</g>
<!-- SetSample2&#45;&gt;MonteCarlo2 -->
<g id="edge40" class="edge">
<title>SetSample2&#45;&gt;MonteCarlo2</title>
<path fill="none" stroke="black" d="M627.19,-597.81C627.19,-590.23 627.19,-581.1 627.19,-572.54"/>
<polygon fill="black" stroke="black" points="630.69,-572.54 627.19,-562.54 623.69,-572.54 630.69,-572.54"/>
</g>
<!-- MonteCarlo&#45;&gt;AbsWorkspace1 -->
<g id="edge16" class="edge">
<title>MonteCarlo&#45;&gt;AbsWorkspace1</title>
<path fill="none" stroke="black" d="M690.29,-1296.81C688.99,-1289.14 687.43,-1279.89 685.97,-1271.24"/>
<polygon fill="black" stroke="black" points="689.44,-1270.8 684.32,-1261.52 682.54,-1271.96 689.44,-1270.8"/>
</g>
<!-- canGiven -->
<g id="node42" class="node">
<title>canGiven</title>
<polygon fill="limegreen" stroke="black" points="966.19,-1260 808,-1242 966.19,-1224 1124.38,-1242 966.19,-1260"/>
<text text-anchor="middle" x="966.19" y="-1238.3" font-family="Helvetica,sans-Serif" font-size="14.00">Container Workspace?</text>
</g>
<!-- MonteCarlo&#45;&gt;canGiven -->
<g id="edge17" class="edge">
<title>MonteCarlo&#45;&gt;canGiven</title>
<path fill="none" stroke="black" d="M741.06,-1301.55C787.83,-1289.39 859.07,-1270.86 908.84,-1257.91"/>
<polygon fill="black" stroke="black" points="909.49,-1261.36 918.29,-1255.46 907.73,-1254.59 909.49,-1261.36"/>
</g>
<!-- Multiply -->
<g id="node41" class="node">
<title>Multiply</title>
<path fill="lightskyblue" stroke="black" d="M650.69,-488C650.69,-488 603.69,-488 603.69,-488 597.69,-488 591.69,-482 591.69,-476 591.69,-476 591.69,-464 591.69,-464 591.69,-458 597.69,-452 603.69,-452 603.69,-452 650.69,-452 650.69,-452 656.69,-452 662.69,-458 662.69,-464 662.69,-464 662.69,-476 662.69,-476 662.69,-482 656.69,-488 650.69,-488"/>
<text text-anchor="middle" x="627.19" y="-466.3" font-family="Helvetica,sans-Serif" font-size="14.00">Multiply</text>
</g>
<!-- MonteCarlo1&#45;&gt;Multiply -->
<g id="edge33" class="edge">
<title>MonteCarlo1&#45;&gt;Multiply</title>
<path fill="none" stroke="black" d="M514.64,-524.63C534.71,-515.07 559.8,-503.11 581.21,-492.91"/>
<polygon fill="black" stroke="black" points="582.49,-496.18 590.01,-488.72 579.48,-489.86 582.49,-496.18"/>
</g>
<!-- MonteCarlo2&#45;&gt;Multiply -->
<g id="edge41" class="edge">
<title>MonteCarlo2&#45;&gt;Multiply</title>
<path fill="none" stroke="black" d="M627.19,-524.81C627.19,-517.23 627.19,-508.1 627.19,-499.54"/>
<polygon fill="black" stroke="black" points="630.69,-499.54 627.19,-489.54 623.69,-499.54 630.69,-499.54"/>
</g>
<!-- Scale&#45;&gt;Clone -->
<g id="edge21" class="edge">
<title>Scale&#45;&gt;Clone</title>
<path fill="none" stroke="black" d="M859.19,-1063.81C859.19,-1056.23 859.19,-1047.1 859.19,-1038.54"/>
<polygon fill="black" stroke="black" points="862.69,-1038.54 859.19,-1028.54 855.69,-1038.54 862.69,-1038.54"/>
</g>
<!-- Divide -->
<g id="node37" class="node">
<title>Divide</title>
<path fill="lightskyblue" stroke="black" d="M839.19,-415C839.19,-415 803.19,-415 803.19,-415 797.19,-415 791.19,-409 791.19,-403 791.19,-403 791.19,-391 791.19,-391 791.19,-385 797.19,-379 803.19,-379 803.19,-379 839.19,-379 839.19,-379 845.19,-379 851.19,-385 851.19,-391 851.19,-391 851.19,-403 851.19,-403 851.19,-409 845.19,-415 839.19,-415"/>
<text text-anchor="middle" x="821.19" y="-393.3" font-family="Helvetica,sans-Serif" font-size="14.00">Divide</text>
</g>
<!-- Minus -->
<g id="node38" class="node">
<title>Minus</title>
<path fill="lightskyblue" stroke="black" d="M838.19,-342C838.19,-342 804.19,-342 804.19,-342 798.19,-342 792.19,-336 792.19,-330 792.19,-330 792.19,-318 792.19,-318 792.19,-312 798.19,-306 804.19,-306 804.19,-306 838.19,-306 838.19,-306 844.19,-306 850.19,-312 850.19,-318 850.19,-318 850.19,-330 850.19,-330 850.19,-336 844.19,-342 838.19,-342"/>
<text text-anchor="middle" x="821.19" y="-320.3" font-family="Helvetica,sans-Serif" font-size="14.00">Minus</text>
</g>
<!-- Divide&#45;&gt;Minus -->
<g id="edge45" class="edge">
<title>Divide&#45;&gt;Minus</title>
<path fill="none" stroke="black" d="M821.19,-378.81C821.19,-371.23 821.19,-362.1 821.19,-353.54"/>
<polygon fill="black" stroke="black" points="824.69,-353.54 821.19,-343.54 817.69,-353.54 824.69,-353.54"/>
</g>
<!-- Minus&#45;&gt;ConvertUnits3 -->
<g id="edge46" class="edge">
<title>Minus&#45;&gt;ConvertUnits3</title>
<path fill="none" stroke="black" d="M817.1,-305.82C815.64,-295.44 815.7,-282.44 822.19,-273 827.71,-264.98 835.4,-258.8 843.94,-254.03"/>
<polygon fill="black" stroke="black" points="845.42,-257.2 852.92,-249.71 842.39,-250.89 845.42,-257.2"/>
<text text-anchor="middle" x="902.19" y="-276.8" font-family="Helvetica,sans-Serif" font-size="14.00">Convert back to DeltaE</text>
</g>
<!-- GroupWorkspaces -->
<g id="node40" class="node">
<title>GroupWorkspaces</title>
<path fill="lightskyblue" stroke="black" d="M967.19,-109C967.19,-109 849.19,-109 849.19,-109 843.19,-109 837.19,-103 837.19,-97 837.19,-97 837.19,-85 837.19,-85 837.19,-79 843.19,-73 849.19,-73 849.19,-73 967.19,-73 967.19,-73 973.19,-73 979.19,-79 979.19,-85 979.19,-85 979.19,-97 979.19,-97 979.19,-103 973.19,-109 967.19,-109"/>
<text text-anchor="middle" x="908.19" y="-87.3" font-family="Helvetica,sans-Serif" font-size="14.00">GroupWorkspaces</text>
</g>
<!-- AddSampleLogMultiple&#45;&gt;GroupWorkspaces -->
<g id="edge49" class="edge">
<title>AddSampleLogMultiple&#45;&gt;GroupWorkspaces</title>
<path fill="none" stroke="black" d="M908.19,-145.81C908.19,-138.23 908.19,-129.1 908.19,-120.54"/>
<polygon fill="black" stroke="black" points="911.69,-120.54 908.19,-110.54 904.69,-120.54 911.69,-120.54"/>
</g>
<!-- GroupWorkspaces&#45;&gt;OutputWorkspace -->
<g id="edge50" class="edge">
<title>GroupWorkspaces&#45;&gt;OutputWorkspace</title>
<path fill="none" stroke="black" d="M908.19,-72.81C908.19,-65.23 908.19,-56.1 908.19,-47.54"/>
<polygon fill="black" stroke="black" points="911.69,-47.54 908.19,-37.54 904.69,-47.54 911.69,-47.54"/>
</g>
<!-- Multiply&#45;&gt;CanAbsorptionWorkspace -->
<g id="edge42" class="edge">
<title>Multiply&#45;&gt;CanAbsorptionWorkspace</title>
<path fill="none" stroke="black" d="M627.19,-451.81C627.19,-444.23 627.19,-435.1 627.19,-426.54"/>
<polygon fill="black" stroke="black" points="630.69,-426.54 627.19,-416.54 623.69,-426.54 630.69,-426.54"/>
</g>
<!-- Multiply&#45;&gt;Divide -->
<g id="edge43" class="edge">
<title>Multiply&#45;&gt;Divide</title>
<path fill="none" stroke="black" d="M662.78,-455.98C695.94,-443.84 745.38,-425.75 780.19,-413.01"/>
<polygon fill="black" stroke="black" points="781.32,-416.32 789.51,-409.59 778.92,-409.74 781.32,-416.32"/>
</g>
<!-- canGiven&#45;&gt;ConvertUnits2 -->
<g id="edge18" class="edge">
<title>canGiven&#45;&gt;ConvertUnits2</title>
<path fill="none" stroke="black" d="M956.41,-1225.01C949.17,-1213.17 939.13,-1196.76 930.65,-1182.91"/>
<polygon fill="black" stroke="black" points="933.82,-1181.37 925.61,-1174.67 927.85,-1185.03 933.82,-1181.37"/>
<text text-anchor="middle" x="955.69" y="-1194.8" font-family="Helvetica,sans-Serif" font-size="14.00">Yes</text>
</g>
<!-- canGiven&#45;&gt;ConvertUnits3 -->
<g id="edge47" class="edge">
<title>canGiven&#45;&gt;ConvertUnits3</title>
<path fill="none" stroke="black" d="M975.68,-1224.67C984.47,-1207.98 996.19,-1181.04 996.19,-1156 996.19,-1156 996.19,-1156 996.19,-323 996.19,-299.92 997.08,-290.64 982.19,-273 978.51,-268.63 974.15,-264.77 969.43,-261.37"/>
<polygon fill="black" stroke="black" points="971.57,-258.59 961.25,-256.19 967.82,-264.5 971.57,-258.59"/>
<text text-anchor="middle" x="1005.69" y="-728.8" font-family="Helvetica,sans-Serif" font-size="14.00">No</text>
</g>
<!-- useCorrections -->
<g id="node43" class="node">
<title>useCorrections</title>
<polygon fill="limegreen" stroke="black" points="693.19,-881 533.33,-863 693.19,-845 853.06,-863 693.19,-881"/>
<text text-anchor="middle" x="693.19" y="-859.3" font-family="Helvetica,sans-Serif" font-size="14.00">Container Corrections?</text>
</g>
<!-- useCorrections&#45;&gt;CanWorkspace1 -->
<g id="edge26" class="edge">
<title>useCorrections&#45;&gt;CanWorkspace1</title>
<path fill="none" stroke="black" d="M654.19,-849C611.12,-834.64 541.48,-811.43 492.96,-795.26"/>
<polygon fill="black" stroke="black" points="494.36,-792.03 483.77,-792.19 492.15,-798.68 494.36,-792.03"/>
<text text-anchor="middle" x="592.69" y="-815.8" font-family="Helvetica,sans-Serif" font-size="14.00">Yes</text>
</g>
<!-- useCorrections&#45;&gt;CanWorkspace2 -->
<g id="edge34" class="edge">
<title>useCorrections&#45;&gt;CanWorkspace2</title>
<path fill="none" stroke="black" d="M693.19,-844.8C693.19,-833.58 693.19,-818.67 693.19,-805.69"/>
<polygon fill="black" stroke="black" points="696.69,-805.98 693.19,-795.98 689.69,-805.98 696.69,-805.98"/>
<text text-anchor="middle" x="704.69" y="-815.8" font-family="Helvetica,sans-Serif" font-size="14.00">Yes</text>
</g>
<!-- useCorrections&#45;&gt;Divide -->
<g id="edge44" class="edge">
<title>useCorrections&#45;&gt;Divide</title>
<path fill="none" stroke="black" d="M764.16,-852.56C839.92,-840.43 949.19,-816.16 949.19,-777 949.19,-777 949.19,-777 949.19,-469 949.19,-428.7 900.07,-411.08 862.68,-403.51"/>
<polygon fill="black" stroke="black" points="863.48,-400.1 853.02,-401.74 862.22,-406.98 863.48,-400.1"/>
<text text-anchor="middle" x="958.69" y="-612.3" font-family="Helvetica,sans-Serif" font-size="14.00">No</text>
</g>
<!-- Clone&#45;&gt;Divide1 -->
<g id="edge22" class="edge">
<title>Clone&#45;&gt;Divide1</title>
<path fill="none" stroke="black" d="M832.32,-996.43C805.69,-984.98 764.58,-967.29 734.13,-954.19"/>
<polygon fill="black" stroke="black" points="735.81,-951.1 725.24,-950.36 733.04,-957.53 735.81,-951.1"/>
</g>
<!-- Divide1&#45;&gt;useCorrections -->
<g id="edge25" class="edge">
<title>Divide1&#45;&gt;useCorrections</title>
<path fill="none" stroke="black" d="M693.95,-917.81C693.84,-910.23 693.72,-901.1 693.59,-892.54"/>
<polygon fill="black" stroke="black" points="697.09,-892.49 693.45,-882.54 690.1,-892.59 697.09,-892.49"/>
</g>
</g>
</svg>
