<?xml version="1.0" encoding="UTF-8" standalone="no"?>
<!DOCTYPE svg PUBLIC "-//W3C//DTD SVG 1.1//EN"
 "http://www.w3.org/Graphics/SVG/1.1/DTD/svg11.dtd">
<!-- Generated by graphviz version 11.0.0 (20240519.1550)
 -->
<!-- Title: IndirectTransmissionMonitor Pages: 1 -->
<svg width="1152pt" height="788pt"
 viewBox="0.00 0.00 1151.82 788.25" xmlns="http://www.w3.org/2000/svg" xmlns:xlink="http://www.w3.org/1999/xlink">
<g id="graph0" class="graph" transform="scale(1 1) rotate(0) translate(4 784.25)">
<title>IndirectTransmissionMonitor</title>
<polygon fill="white" stroke="none" points="-4,4 -4,-784.25 1147.82,-784.25 1147.82,4 -4,4"/>
<text text-anchor="middle" x="571.91" y="-762.95" font-family="Helvetica,sans-Serif" font-size="14.00">IndirectTransmissionMonitor Flowchart</text>
<!-- ExtractMonitor_HaveMonitor2_1 -->
<g id="node1" class="node">
<title>ExtractMonitor_HaveMonitor2_1</title>
<polygon fill="limegreen" stroke="black" points="544.26,-665.75 416.04,-647.75 544.26,-629.75 672.48,-647.75 544.26,-665.75"/>
<text text-anchor="middle" x="544.26" y="-643.08" font-family="Helvetica,sans-Serif" font-size="14.00">Have Monitor 2?</text>
</g>
<!-- ExtractMonitor_CropWorkspace_M2 -->
<g id="node10" class="node">
<title>ExtractMonitor_CropWorkspace_M2</title>
<path fill="lightskyblue" stroke="black" d="M659.26,-522.5C659.26,-522.5 559.26,-522.5 559.26,-522.5 553.26,-522.5 547.26,-516.5 547.26,-510.5 547.26,-510.5 547.26,-498.5 547.26,-498.5 547.26,-492.5 553.26,-486.5 559.26,-486.5 559.26,-486.5 659.26,-486.5 659.26,-486.5 665.26,-486.5 671.26,-492.5 671.26,-498.5 671.26,-498.5 671.26,-510.5 671.26,-510.5 671.26,-516.5 665.26,-522.5 659.26,-522.5"/>
<text text-anchor="middle" x="609.26" y="-499.82" font-family="Helvetica,sans-Serif" font-size="14.00">CropWorkspace</text>
</g>
<!-- ExtractMonitor_HaveMonitor2_1&#45;&gt;ExtractMonitor_CropWorkspace_M2 -->
<g id="edge5" class="edge">
<title>ExtractMonitor_HaveMonitor2_1&#45;&gt;ExtractMonitor_CropWorkspace_M2</title>
<path fill="none" stroke="black" d="M556.95,-631.21C567.52,-617.55 582.25,-596.74 591.26,-576.5 597.26,-563.02 601.52,-547.18 604.39,-533.88"/>
<polygon fill="black" stroke="black" points="607.74,-534.95 606.26,-524.46 600.88,-533.59 607.74,-534.95"/>
<text text-anchor="middle" x="592.51" y="-598.45" font-family="Helvetica,sans-Serif" font-size="14.00">Yes</text>
</g>
<!-- ExtractMonitor_HaveMonitor2_2 -->
<g id="node2" class="node">
<title>ExtractMonitor_HaveMonitor2_2</title>
<polygon fill="limegreen" stroke="black" points="454.26,-576.5 326.04,-558.5 454.26,-540.5 582.48,-558.5 454.26,-576.5"/>
<text text-anchor="middle" x="454.26" y="-553.83" font-family="Helvetica,sans-Serif" font-size="14.00">Have Monitor 2?</text>
</g>
<!-- ExtractMonitor_ConvertUnitsMonitor2 -->
<g id="node12" class="node">
<title>ExtractMonitor_ConvertUnitsMonitor2</title>
<path fill="lightskyblue" stroke="black" d="M496.64,-468.5C496.64,-468.5 413.89,-468.5 413.89,-468.5 407.89,-468.5 401.89,-462.5 401.89,-456.5 401.89,-456.5 401.89,-444.5 401.89,-444.5 401.89,-438.5 407.89,-432.5 413.89,-432.5 413.89,-432.5 496.64,-432.5 496.64,-432.5 502.64,-432.5 508.64,-438.5 508.64,-444.5 508.64,-444.5 508.64,-456.5 508.64,-456.5 508.64,-462.5 502.64,-468.5 496.64,-468.5"/>
<text text-anchor="middle" x="455.26" y="-445.82" font-family="Helvetica,sans-Serif" font-size="14.00">ConvertUnits</text>
</g>
<!-- ExtractMonitor_HaveMonitor2_2&#45;&gt;ExtractMonitor_ConvertUnitsMonitor2 -->
<g id="edge14" class="edge">
<title>ExtractMonitor_HaveMonitor2_2&#45;&gt;ExtractMonitor_ConvertUnitsMonitor2</title>
<path fill="none" stroke="black" d="M454.42,-540.47C454.58,-524.26 454.81,-499.56 454.99,-480.29"/>
<polygon fill="black" stroke="black" points="458.49,-480.39 455.08,-470.35 451.49,-480.32 458.49,-480.39"/>
<text text-anchor="middle" x="465.51" y="-499.82" font-family="Helvetica,sans-Serif" font-size="14.00">Yes</text>
</g>
<!-- ExtractMonitor_End -->
<g id="node23" class="node">
<title>ExtractMonitor_End</title>
<ellipse fill="lightgrey" stroke="black" cx="389.26" cy="-18" rx="30.16" ry="18"/>
<text text-anchor="middle" x="389.26" y="-13.32" font-family="Helvetica,sans-Serif" font-size="14.00">End</text>
</g>
<!-- ExtractMonitor_HaveMonitor2_2&#45;&gt;ExtractMonitor_End -->
<g id="edge13" class="edge">
<title>ExtractMonitor_HaveMonitor2_2&#45;&gt;ExtractMonitor_End</title>
<path fill="none" stroke="black" d="M433.4,-543.3C409.4,-525.1 373.26,-491.1 373.26,-451.5 373.26,-451.5 373.26,-451.5 373.26,-90 373.26,-75.59 376.44,-59.92 379.96,-46.98"/>
<polygon fill="black" stroke="black" points="383.31,-48.01 382.78,-37.43 376.59,-46.02 383.31,-48.01"/>
<text text-anchor="middle" x="382.64" y="-264.82" font-family="Helvetica,sans-Serif" font-size="14.00">No</text>
</g>
<!-- ExtractMonitor_IsSameTimeRegime -->
<g id="node3" class="node">
<title>ExtractMonitor_IsSameTimeRegime</title>
<polygon fill="limegreen" stroke="black" points="154.26,-576.5 0,-558.5 154.26,-540.5 308.53,-558.5 154.26,-576.5"/>
<text text-anchor="middle" x="154.26" y="-553.83" font-family="Helvetica,sans-Serif" font-size="14.00">Is Same Start Time?</text>
</g>
<!-- ExtractMonitor_ConvertUnitsMonitor1 -->
<g id="node11" class="node">
<title>ExtractMonitor_ConvertUnitsMonitor1</title>
<path fill="lightskyblue" stroke="black" d="M284.64,-414.5C284.64,-414.5 201.89,-414.5 201.89,-414.5 195.89,-414.5 189.89,-408.5 189.89,-402.5 189.89,-402.5 189.89,-390.5 189.89,-390.5 189.89,-384.5 195.89,-378.5 201.89,-378.5 201.89,-378.5 284.64,-378.5 284.64,-378.5 290.64,-378.5 296.64,-384.5 296.64,-390.5 296.64,-390.5 296.64,-402.5 296.64,-402.5 296.64,-408.5 290.64,-414.5 284.64,-414.5"/>
<text text-anchor="middle" x="243.26" y="-391.82" font-family="Helvetica,sans-Serif" font-size="14.00">ConvertUnits</text>
</g>
<!-- ExtractMonitor_IsSameTimeRegime&#45;&gt;ExtractMonitor_ConvertUnitsMonitor1 -->
<g id="edge11" class="edge">
<title>ExtractMonitor_IsSameTimeRegime&#45;&gt;ExtractMonitor_ConvertUnitsMonitor1</title>
<path fill="none" stroke="black" d="M169.88,-541.83C185.77,-525.05 210.01,-496.98 224.26,-468.5 230.93,-455.17 235.47,-439.23 238.43,-425.83"/>
<polygon fill="black" stroke="black" points="241.81,-426.82 240.35,-416.32 234.94,-425.43 241.81,-426.82"/>
<text text-anchor="middle" x="225.51" y="-499.82" font-family="Helvetica,sans-Serif" font-size="14.00">Yes</text>
</g>
<!-- ExtractMonitor_UnwrapMonitor -->
<g id="node15" class="node">
<title>ExtractMonitor_UnwrapMonitor</title>
<path fill="lightskyblue" stroke="black" d="M203.51,-468.5C203.51,-468.5 105.01,-468.5 105.01,-468.5 99.01,-468.5 93.01,-462.5 93.01,-456.5 93.01,-456.5 93.01,-444.5 93.01,-444.5 93.01,-438.5 99.01,-432.5 105.01,-432.5 105.01,-432.5 203.51,-432.5 203.51,-432.5 209.51,-432.5 215.51,-438.5 215.51,-444.5 215.51,-444.5 215.51,-456.5 215.51,-456.5 215.51,-462.5 209.51,-468.5 203.51,-468.5"/>
<text text-anchor="middle" x="154.26" y="-445.82" font-family="Helvetica,sans-Serif" font-size="14.00">UnwrapMonitor</text>
</g>
<!-- ExtractMonitor_IsSameTimeRegime&#45;&gt;ExtractMonitor_UnwrapMonitor -->
<g id="edge6" class="edge">
<title>ExtractMonitor_IsSameTimeRegime&#45;&gt;ExtractMonitor_UnwrapMonitor</title>
<path fill="none" stroke="black" d="M154.26,-540.47C154.26,-524.26 154.26,-499.56 154.26,-480.29"/>
<polygon fill="black" stroke="black" points="157.76,-480.35 154.26,-470.35 150.76,-480.35 157.76,-480.35"/>
<text text-anchor="middle" x="163.64" y="-499.82" font-family="Helvetica,sans-Serif" font-size="14.00">No</text>
</g>
<!-- SampleWorkspace -->
<g id="node4" class="node">
<title>SampleWorkspace</title>
<ellipse fill="khaki" stroke="black" cx="719.26" cy="-737" rx="100.66" ry="18"/>
<text text-anchor="middle" x="719.26" y="-732.33" font-family="Helvetica,sans-Serif" font-size="14.00">SampleWorkspace</text>
</g>
<!-- GroupWorkspaces -->
<g id="node19" class="node">
<title>GroupWorkspaces</title>
<path fill="lightskyblue" stroke="black" d="M1103.89,-468.5C1103.89,-468.5 986.64,-468.5 986.64,-468.5 980.64,-468.5 974.64,-462.5 974.64,-456.5 974.64,-456.5 974.64,-444.5 974.64,-444.5 974.64,-438.5 980.64,-432.5 986.64,-432.5 986.64,-432.5 1103.89,-432.5 1103.89,-432.5 1109.89,-432.5 1115.89,-438.5 1115.89,-444.5 1115.89,-444.5 1115.89,-456.5 1115.89,-456.5 1115.89,-462.5 1109.89,-468.5 1103.89,-468.5"/>
<text text-anchor="middle" x="1045.26" y="-445.82" font-family="Helvetica,sans-Serif" font-size="14.00">GroupWorkspaces</text>
</g>
<!-- SampleWorkspace&#45;&gt;GroupWorkspaces -->
<g id="edge26" class="edge">
<title>SampleWorkspace&#45;&gt;GroupWorkspaces</title>
<path fill="none" stroke="black" d="M719.48,-718.84C720.6,-696.3 725.49,-656.46 745.26,-629.75 804.46,-549.79 911.16,-499.07 980.05,-472.98"/>
<polygon fill="black" stroke="black" points="981.2,-476.28 989.35,-469.52 978.76,-469.72 981.2,-476.28"/>
</g>
<!-- ExtractMonitor_Sample -->
<g id="node20" class="node">
<title>ExtractMonitor_Sample</title>
<polygon fill="lightseagreen" stroke="black" points="876.51,-665.75 754.01,-665.75 754.01,-629.75 876.51,-629.75 876.51,-665.75"/>
<text text-anchor="middle" x="815.26" y="-643.08" font-family="Helvetica,sans-Serif" font-size="14.00">Extract Monitor</text>
</g>
<!-- SampleWorkspace&#45;&gt;ExtractMonitor_Sample -->
<g id="edge21" class="edge">
<title>SampleWorkspace&#45;&gt;ExtractMonitor_Sample</title>
<path fill="none" stroke="black" d="M737.77,-719.18C751.93,-706.31 771.68,-688.36 787.7,-673.8"/>
<polygon fill="black" stroke="black" points="789.99,-676.45 795.03,-667.14 785.28,-671.27 789.99,-676.45"/>
</g>
<!-- CanWorkspace -->
<g id="node5" class="node">
<title>CanWorkspace</title>
<ellipse fill="khaki" stroke="black" cx="1019.26" cy="-737" rx="83.3" ry="18"/>
<text text-anchor="middle" x="1019.26" y="-732.33" font-family="Helvetica,sans-Serif" font-size="14.00">CanWorkspace</text>
</g>
<!-- CanWorkspace&#45;&gt;GroupWorkspaces -->
<g id="edge27" class="edge">
<title>CanWorkspace&#45;&gt;GroupWorkspaces</title>
<path fill="none" stroke="black" d="M1021.04,-718.68C1022.49,-704.47 1024.56,-683.81 1026.26,-665.75 1032.53,-599.23 1039.31,-521.04 1042.84,-479.99"/>
<polygon fill="black" stroke="black" points="1046.3,-480.49 1043.67,-470.23 1039.33,-479.9 1046.3,-480.49"/>
</g>
<!-- ExtractMonitor_Can -->
<g id="node21" class="node">
<title>ExtractMonitor_Can</title>
<polygon fill="lightseagreen" stroke="black" points="1017.51,-665.75 895.01,-665.75 895.01,-629.75 1017.51,-629.75 1017.51,-665.75"/>
<text text-anchor="middle" x="956.26" y="-643.08" font-family="Helvetica,sans-Serif" font-size="14.00">Extract Monitor</text>
</g>
<!-- CanWorkspace&#45;&gt;ExtractMonitor_Can -->
<g id="edge22" class="edge">
<title>CanWorkspace&#45;&gt;ExtractMonitor_Can</title>
<path fill="none" stroke="black" d="M1006.82,-718.76C997.84,-706.33 985.56,-689.33 975.35,-675.19"/>
<polygon fill="black" stroke="black" points="978.26,-673.24 969.57,-667.18 972.59,-677.34 978.26,-673.24"/>
</g>
<!-- OutputWorkspace -->
<g id="node6" class="node">
<title>OutputWorkspace</title>
<ellipse fill="khaki" stroke="black" cx="1045.26" cy="-342.5" rx="98.56" ry="18"/>
<text text-anchor="middle" x="1045.26" y="-337.82" font-family="Helvetica,sans-Serif" font-size="14.00">OutputWorkspace</text>
</g>
<!-- ExtractMonitor_CropWorkspace_D1 -->
<g id="node7" class="node">
<title>ExtractMonitor_CropWorkspace_D1</title>
<path fill="lightskyblue" stroke="black" d="M359.26,-665.75C359.26,-665.75 259.26,-665.75 259.26,-665.75 253.26,-665.75 247.26,-659.75 247.26,-653.75 247.26,-653.75 247.26,-641.75 247.26,-641.75 247.26,-635.75 253.26,-629.75 259.26,-629.75 259.26,-629.75 359.26,-629.75 359.26,-629.75 365.26,-629.75 371.26,-635.75 371.26,-641.75 371.26,-641.75 371.26,-653.75 371.26,-653.75 371.26,-659.75 365.26,-665.75 359.26,-665.75"/>
<text text-anchor="middle" x="309.26" y="-643.08" font-family="Helvetica,sans-Serif" font-size="14.00">CropWorkspace</text>
</g>
<!-- ExtractMonitor_CropWorkspace_D1&#45;&gt;ExtractMonitor_IsSameTimeRegime -->
<g id="edge3" class="edge">
<title>ExtractMonitor_CropWorkspace_D1&#45;&gt;ExtractMonitor_IsSameTimeRegime</title>
<path fill="none" stroke="black" d="M278.27,-629.3C252.57,-614.84 216.06,-594.28 189.3,-579.22"/>
<polygon fill="black" stroke="black" points="191.32,-576.34 180.89,-574.49 187.89,-582.44 191.32,-576.34"/>
</g>
<!-- ExtractMonitor_CropWorkspace_M1 -->
<g id="node8" class="node">
<title>ExtractMonitor_CropWorkspace_M1</title>
<path fill="lightskyblue" stroke="black" d="M217.26,-665.75C217.26,-665.75 117.26,-665.75 117.26,-665.75 111.26,-665.75 105.26,-659.75 105.26,-653.75 105.26,-653.75 105.26,-641.75 105.26,-641.75 105.26,-635.75 111.26,-629.75 117.26,-629.75 117.26,-629.75 217.26,-629.75 217.26,-629.75 223.26,-629.75 229.26,-635.75 229.26,-641.75 229.26,-641.75 229.26,-653.75 229.26,-653.75 229.26,-659.75 223.26,-665.75 217.26,-665.75"/>
<text text-anchor="middle" x="167.26" y="-643.08" font-family="Helvetica,sans-Serif" font-size="14.00">CropWorkspace</text>
</g>
<!-- ExtractMonitor_CropWorkspace_M1&#45;&gt;ExtractMonitor_HaveMonitor2_2 -->
<g id="edge12" class="edge">
<title>ExtractMonitor_CropWorkspace_M1&#45;&gt;ExtractMonitor_HaveMonitor2_2</title>
<path fill="none" stroke="black" d="M179.45,-629.26C188.69,-617.44 202.46,-602.57 218.26,-594.5 225.5,-590.8 312.54,-578.49 378.83,-569.51"/>
<polygon fill="black" stroke="black" points="379.16,-573 388.6,-568.19 378.23,-566.06 379.16,-573"/>
</g>
<!-- ExtractMonitor_CropWorkspace_M1&#45;&gt;ExtractMonitor_IsSameTimeRegime -->
<g id="edge10" class="edge">
<title>ExtractMonitor_CropWorkspace_M1&#45;&gt;ExtractMonitor_IsSameTimeRegime</title>
<path fill="none" stroke="black" d="M164.69,-629.51C162.93,-617.68 160.55,-601.7 158.51,-588"/>
<polygon fill="black" stroke="black" points="161.98,-587.57 157.05,-578.2 155.06,-588.61 161.98,-587.57"/>
</g>
<!-- ExtractMonitor_CropWorkspace_M1_2 -->
<g id="node9" class="node">
<title>ExtractMonitor_CropWorkspace_M1_2</title>
<path fill="lightskyblue" stroke="black" d="M293.26,-198.25C293.26,-198.25 193.26,-198.25 193.26,-198.25 187.26,-198.25 181.26,-192.25 181.26,-186.25 181.26,-186.25 181.26,-174.25 181.26,-174.25 181.26,-168.25 187.26,-162.25 193.26,-162.25 193.26,-162.25 293.26,-162.25 293.26,-162.25 299.26,-162.25 305.26,-168.25 305.26,-174.25 305.26,-174.25 305.26,-186.25 305.26,-186.25 305.26,-192.25 299.26,-198.25 293.26,-198.25"/>
<text text-anchor="middle" x="243.26" y="-175.57" font-family="Helvetica,sans-Serif" font-size="14.00">CropWorkspace</text>
</g>
<!-- ExtractMonitor_Divide -->
<g id="node14" class="node">
<title>ExtractMonitor_Divide</title>
<path fill="lightskyblue" stroke="black" d="M449.01,-109C449.01,-109 413.51,-109 413.51,-109 407.51,-109 401.51,-103 401.51,-97 401.51,-97 401.51,-85 401.51,-85 401.51,-79 407.51,-73 413.51,-73 413.51,-73 449.01,-73 449.01,-73 455.01,-73 461.01,-79 461.01,-85 461.01,-85 461.01,-97 461.01,-97 461.01,-103 455.01,-109 449.01,-109"/>
<text text-anchor="middle" x="431.26" y="-86.33" font-family="Helvetica,sans-Serif" font-size="14.00">Divide</text>
</g>
<!-- ExtractMonitor_CropWorkspace_M1_2&#45;&gt;ExtractMonitor_Divide -->
<g id="edge19" class="edge">
<title>ExtractMonitor_CropWorkspace_M1_2&#45;&gt;ExtractMonitor_Divide</title>
<path fill="none" stroke="black" d="M267.52,-161.86C283.67,-150.83 305.68,-136.84 326.51,-127 346.9,-117.37 370.65,-109.2 390.38,-103.18"/>
<polygon fill="black" stroke="black" points="391.14,-106.61 399.73,-100.41 389.15,-99.9 391.14,-106.61"/>
<text text-anchor="middle" x="383.14" y="-130.95" font-family="Helvetica,sans-Serif" font-size="14.00">RHS (monitor 1)</text>
</g>
<!-- ExtractMonitor_RebinToWorkspace -->
<g id="node13" class="node">
<title>ExtractMonitor_RebinToWorkspace</title>
<path fill="lightskyblue" stroke="black" d="M534.76,-360.5C534.76,-360.5 413.76,-360.5 413.76,-360.5 407.76,-360.5 401.76,-354.5 401.76,-348.5 401.76,-348.5 401.76,-336.5 401.76,-336.5 401.76,-330.5 407.76,-324.5 413.76,-324.5 413.76,-324.5 534.76,-324.5 534.76,-324.5 540.76,-324.5 546.76,-330.5 546.76,-336.5 546.76,-336.5 546.76,-348.5 546.76,-348.5 546.76,-354.5 540.76,-360.5 534.76,-360.5"/>
<text text-anchor="middle" x="474.26" y="-337.82" font-family="Helvetica,sans-Serif" font-size="14.00">RebinToWorkspace</text>
</g>
<!-- ExtractMonitor_CropWorkspace_M2&#45;&gt;ExtractMonitor_RebinToWorkspace -->
<g id="edge17" class="edge">
<title>ExtractMonitor_CropWorkspace_M2&#45;&gt;ExtractMonitor_RebinToWorkspace</title>
<path fill="none" stroke="black" d="M612.1,-486.22C615.4,-459.71 617.46,-408.89 591.26,-378.5 582.39,-368.21 570.64,-360.88 557.99,-355.67"/>
<polygon fill="black" stroke="black" points="559.22,-352.4 548.63,-352.29 556.85,-358.98 559.22,-352.4"/>
<text text-anchor="middle" x="677.76" y="-445.82" font-family="Helvetica,sans-Serif" font-size="14.00">WorkspaceToRebin</text>
</g>
<!-- ExtractMonitor_ConvertUnitsMonitor1&#45;&gt;ExtractMonitor_CropWorkspace_M1_2 -->
<g id="edge15" class="edge">
<title>ExtractMonitor_ConvertUnitsMonitor1&#45;&gt;ExtractMonitor_CropWorkspace_M1_2</title>
<path fill="none" stroke="black" d="M243.26,-378.33C243.26,-341.58 243.26,-255 243.26,-209.82"/>
<polygon fill="black" stroke="black" points="246.76,-210.02 243.26,-200.02 239.76,-210.02 246.76,-210.02"/>
</g>
<!-- ExtractMonitor_ConvertUnitsMonitor2&#45;&gt;ExtractMonitor_RebinToWorkspace -->
<g id="edge16" class="edge">
<title>ExtractMonitor_ConvertUnitsMonitor2&#45;&gt;ExtractMonitor_RebinToWorkspace</title>
<path fill="none" stroke="black" d="M454.57,-432.04C454.39,-417.52 455.06,-396.41 459.26,-378.5 459.81,-376.19 460.49,-373.83 461.27,-371.5"/>
<polygon fill="black" stroke="black" points="464.48,-372.9 464.84,-362.31 457.96,-370.36 464.48,-372.9"/>
<text text-anchor="middle" x="525.26" y="-391.82" font-family="Helvetica,sans-Serif" font-size="14.00">WorkspaceToMatch</text>
</g>
<!-- ExtractMonitor_RebinToWorkspace&#45;&gt;ExtractMonitor_Divide -->
<g id="edge18" class="edge">
<title>ExtractMonitor_RebinToWorkspace&#45;&gt;ExtractMonitor_Divide</title>
<path fill="none" stroke="black" d="M471.31,-324.35C464.02,-282.06 445.13,-172.47 436.15,-120.34"/>
<polygon fill="black" stroke="black" points="439.64,-120.02 434.5,-110.76 432.75,-121.21 439.64,-120.02"/>
<text text-anchor="middle" x="509.01" y="-220.2" font-family="Helvetica,sans-Serif" font-size="14.00">LHS (monitor 2)</text>
</g>
<!-- ExtractMonitor_Divide&#45;&gt;ExtractMonitor_End -->
<g id="edge20" class="edge">
<title>ExtractMonitor_Divide&#45;&gt;ExtractMonitor_End</title>
<path fill="none" stroke="black" d="M421.1,-72.81C416.1,-64.37 409.99,-54.03 404.45,-44.68"/>
<polygon fill="black" stroke="black" points="407.63,-43.18 399.53,-36.36 401.61,-46.75 407.63,-43.18"/>
</g>
<!-- ExtractMonitor_RemoveBins -->
<g id="node16" class="node">
<title>ExtractMonitor_RemoveBins</title>
<path fill="lightskyblue" stroke="black" d="M201.01,-360.5C201.01,-360.5 123.51,-360.5 123.51,-360.5 117.51,-360.5 111.51,-354.5 111.51,-348.5 111.51,-348.5 111.51,-336.5 111.51,-336.5 111.51,-330.5 117.51,-324.5 123.51,-324.5 123.51,-324.5 201.01,-324.5 201.01,-324.5 207.01,-324.5 213.01,-330.5 213.01,-336.5 213.01,-336.5 213.01,-348.5 213.01,-348.5 213.01,-354.5 207.01,-360.5 201.01,-360.5"/>
<text text-anchor="middle" x="162.26" y="-337.82" font-family="Helvetica,sans-Serif" font-size="14.00">RemoveBins</text>
</g>
<!-- ExtractMonitor_UnwrapMonitor&#45;&gt;ExtractMonitor_RemoveBins -->
<g id="edge7" class="edge">
<title>ExtractMonitor_UnwrapMonitor&#45;&gt;ExtractMonitor_RemoveBins</title>
<path fill="none" stroke="black" d="M155.55,-432.47C156.77,-416.26 158.64,-391.56 160.09,-372.29"/>
<polygon fill="black" stroke="black" points="163.58,-372.58 160.84,-362.35 156.6,-372.06 163.58,-372.58"/>
</g>
<!-- ExtractMonitor_FFTSmooth -->
<g id="node17" class="node">
<title>ExtractMonitor_FFTSmooth</title>
<path fill="lightskyblue" stroke="black" d="M201.89,-287.5C201.89,-287.5 132.64,-287.5 132.64,-287.5 126.64,-287.5 120.64,-281.5 120.64,-275.5 120.64,-275.5 120.64,-263.5 120.64,-263.5 120.64,-257.5 126.64,-251.5 132.64,-251.5 132.64,-251.5 201.89,-251.5 201.89,-251.5 207.89,-251.5 213.89,-257.5 213.89,-263.5 213.89,-263.5 213.89,-275.5 213.89,-275.5 213.89,-281.5 207.89,-287.5 201.89,-287.5"/>
<text text-anchor="middle" x="167.26" y="-264.82" font-family="Helvetica,sans-Serif" font-size="14.00">FFTSmooth</text>
</g>
<!-- ExtractMonitor_RemoveBins&#45;&gt;ExtractMonitor_FFTSmooth -->
<g id="edge8" class="edge">
<title>ExtractMonitor_RemoveBins&#45;&gt;ExtractMonitor_FFTSmooth</title>
<path fill="none" stroke="black" d="M163.47,-324.31C164.01,-316.64 164.66,-307.39 165.27,-298.74"/>
<polygon fill="black" stroke="black" points="168.75,-299.26 165.96,-289.04 161.76,-298.77 168.75,-299.26"/>
</g>
<!-- ExtractMonitor_FFTSmooth&#45;&gt;ExtractMonitor_CropWorkspace_M1_2 -->
<g id="edge9" class="edge">
<title>ExtractMonitor_FFTSmooth&#45;&gt;ExtractMonitor_CropWorkspace_M1_2</title>
<path fill="none" stroke="black" d="M179.41,-251.02C186.91,-240.6 196.94,-227.3 206.76,-216.25 209.7,-212.95 212.89,-209.59 216.12,-206.33"/>
<polygon fill="black" stroke="black" points="218.34,-209.06 223.04,-199.57 213.45,-204.06 218.34,-209.06"/>
<text text-anchor="middle" x="218.51" y="-220.2" font-family="Helvetica,sans-Serif" font-size="14.00">Yes</text>
</g>
<!-- Divide -->
<g id="node18" class="node">
<title>Divide</title>
<path fill="lightskyblue" stroke="black" d="M1121.01,-576.5C1121.01,-576.5 1085.51,-576.5 1085.51,-576.5 1079.51,-576.5 1073.51,-570.5 1073.51,-564.5 1073.51,-564.5 1073.51,-552.5 1073.51,-552.5 1073.51,-546.5 1079.51,-540.5 1085.51,-540.5 1085.51,-540.5 1121.01,-540.5 1121.01,-540.5 1127.01,-540.5 1133.01,-546.5 1133.01,-552.5 1133.01,-552.5 1133.01,-564.5 1133.01,-564.5 1133.01,-570.5 1127.01,-576.5 1121.01,-576.5"/>
<text text-anchor="middle" x="1103.26" y="-553.83" font-family="Helvetica,sans-Serif" font-size="14.00">Divide</text>
</g>
<!-- Divide&#45;&gt;GroupWorkspaces -->
<g id="edge25" class="edge">
<title>Divide&#45;&gt;GroupWorkspaces</title>
<path fill="none" stroke="black" d="M1093.94,-540.47C1084.87,-523.88 1070.92,-498.38 1060.27,-478.93"/>
<polygon fill="black" stroke="black" points="1063.35,-477.26 1055.48,-470.17 1057.21,-480.62 1063.35,-477.26"/>
</g>
<!-- GroupWorkspaces&#45;&gt;OutputWorkspace -->
<g id="edge28" class="edge">
<title>GroupWorkspaces&#45;&gt;OutputWorkspace</title>
<path fill="none" stroke="black" d="M1045.26,-432.47C1045.26,-416.26 1045.26,-391.56 1045.26,-372.29"/>
<polygon fill="black" stroke="black" points="1048.76,-372.35 1045.26,-362.35 1041.76,-372.35 1048.76,-372.35"/>
</g>
<!-- ExtractMonitor_Sample&#45;&gt;Divide -->
<g id="edge23" class="edge">
<title>ExtractMonitor_Sample&#45;&gt;Divide</title>
<path fill="none" stroke="black" d="M872.85,-629.3C928.89,-612.33 1012.65,-586.95 1062.23,-571.93"/>
<polygon fill="black" stroke="black" points="1063.17,-575.3 1071.72,-569.05 1061.14,-568.6 1063.17,-575.3"/>
<text text-anchor="middle" x="997.76" y="-598.45" font-family="Helvetica,sans-Serif" font-size="14.00">LHS</text>
</g>
<!-- ExtractMonitor_Can&#45;&gt;Divide -->
<g id="edge24" class="edge">
<title>ExtractMonitor_Can&#45;&gt;Divide</title>
<path fill="none" stroke="black" d="M1013.6,-629.38C1025.82,-624.54 1038.33,-618.67 1049.26,-611.75 1060.74,-604.48 1071.81,-594.48 1080.91,-585.18"/>
<polygon fill="black" stroke="black" points="1083.34,-587.71 1087.63,-578.03 1078.24,-582.92 1083.34,-587.71"/>
<text text-anchor="middle" x="1084.89" y="-598.45" font-family="Helvetica,sans-Serif" font-size="14.00">RHS</text>
</g>
<!-- ExtractMonitor_Start -->
<g id="node22" class="node">
<title>ExtractMonitor_Start</title>
<ellipse fill="lightgrey" stroke="black" cx="309.26" cy="-737" rx="85.93" ry="18"/>
<text text-anchor="middle" x="309.26" y="-732.33" font-family="Helvetica,sans-Serif" font-size="14.00">Extract Monitor</text>
</g>
<!-- ExtractMonitor_Start&#45;&gt;ExtractMonitor_HaveMonitor2_1 -->
<g id="edge4" class="edge">
<title>ExtractMonitor_Start&#45;&gt;ExtractMonitor_HaveMonitor2_1</title>
<path fill="none" stroke="black" d="M350.2,-720.8C391.93,-705.31 456.49,-681.34 499.55,-665.35"/>
<polygon fill="black" stroke="black" points="500.7,-668.66 508.85,-661.9 498.26,-662.1 500.7,-668.66"/>
<text text-anchor="middle" x="480.26" y="-687.7" font-family="Helvetica,sans-Serif" font-size="14.00">Monitor 2</text>
</g>
<!-- ExtractMonitor_Start&#45;&gt;ExtractMonitor_CropWorkspace_D1 -->
<g id="edge2" class="edge">
<title>ExtractMonitor_Start&#45;&gt;ExtractMonitor_CropWorkspace_D1</title>
<path fill="none" stroke="black" d="M309.26,-718.76C309.26,-706.93 309.26,-690.95 309.26,-677.25"/>
<polygon fill="black" stroke="black" points="312.76,-677.47 309.26,-667.47 305.76,-677.47 312.76,-677.47"/>
<text text-anchor="middle" x="345.64" y="-687.7" font-family="Helvetica,sans-Serif" font-size="14.00">Detector 1</text>
</g>
<!-- ExtractMonitor_Start&#45;&gt;ExtractMonitor_CropWorkspace_M1 -->
<g id="edge1" class="edge">
<title>ExtractMonitor_Start&#45;&gt;ExtractMonitor_CropWorkspace_M1</title>
<path fill="none" stroke="black" d="M274.83,-720.18C263.31,-714.52 250.53,-707.84 239.26,-701 225.38,-692.57 210.75,-682.24 198.33,-673.01"/>
<polygon fill="black" stroke="black" points="200.61,-670.34 190.52,-667.11 196.39,-675.93 200.61,-670.34"/>
<text text-anchor="middle" x="272.26" y="-687.7" font-family="Helvetica,sans-Serif" font-size="14.00">Monitor 1</text>
</g>
</g>
</svg>
