<?xml version="1.0" encoding="UTF-8" standalone="no"?>
<!DOCTYPE svg PUBLIC "-//W3C//DTD SVG 1.1//EN"
 "http://www.w3.org/Graphics/SVG/1.1/DTD/svg11.dtd">
<!-- Generated by graphviz version 7.1.0 (20230122.1345)
 -->
<!-- Title: IndirectFlatePlateAbsorption Pages: 1 -->
<svg width="1822pt" height="1743pt"
 viewBox="0.00 0.00 1821.54 1743.00" xmlns="http://www.w3.org/2000/svg" xmlns:xlink="http://www.w3.org/1999/xlink">
<g id="graph0" class="graph" transform="scale(1 1) rotate(0) translate(4 1739)">
<title>IndirectFlatePlateAbsorption</title>
<polygon fill="white" stroke="none" points="-4,4 -4,-1739 1817.54,-1739 1817.54,4 -4,4"/>
<text text-anchor="middle" x="906.77" y="-1719.8" font-family="Helvetica,sans-Serif" font-size="14.00">IndirectFlatePlateAbsorption Flowchart</text>
<!-- SampleWorkspace1 -->
<g id="node1" class="node">
<title>SampleWorkspace1</title>
<ellipse fill="khaki" stroke="black" cx="1534.54" cy="-1694" rx="93.68" ry="18"/>
<text text-anchor="middle" x="1534.54" y="-1690.3" font-family="Helvetica,sans-Serif" font-size="14.00">SampleWorkspace</text>
</g>
<!-- GetEFixed -->
<g id="node23" class="node">
<title>GetEFixed</title>
<path fill="lightskyblue" stroke="black" d="M1565.04,-1639C1565.04,-1639 1504.04,-1639 1504.04,-1639 1498.04,-1639 1492.04,-1633 1492.04,-1627 1492.04,-1627 1492.04,-1615 1492.04,-1615 1492.04,-1609 1498.04,-1603 1504.04,-1603 1504.04,-1603 1565.04,-1603 1565.04,-1603 1571.04,-1603 1577.04,-1609 1577.04,-1615 1577.04,-1615 1577.04,-1627 1577.04,-1627 1577.04,-1633 1571.04,-1639 1565.04,-1639"/>
<text text-anchor="middle" x="1534.54" y="-1617.3" font-family="Helvetica,sans-Serif" font-size="14.00">GetEFixed</text>
</g>
<!-- SampleWorkspace1&#45;&gt;GetEFixed -->
<g id="edge1" class="edge">
<title>SampleWorkspace1&#45;&gt;GetEFixed</title>
<path fill="none" stroke="black" d="M1534.54,-1675.81C1534.54,-1668.23 1534.54,-1659.1 1534.54,-1650.54"/>
<polygon fill="black" stroke="black" points="1538.04,-1650.54 1534.54,-1640.54 1531.04,-1650.54 1538.04,-1650.54"/>
</g>
<!-- SampleWorkspace2 -->
<g id="node2" class="node">
<title>SampleWorkspace2</title>
<ellipse fill="khaki" stroke="black" cx="516.54" cy="-1009" rx="93.68" ry="18"/>
<text text-anchor="middle" x="516.54" y="-1005.3" font-family="Helvetica,sans-Serif" font-size="14.00">SampleWorkspace</text>
</g>
<!-- Divide1 -->
<g id="node45" class="node">
<title>Divide1</title>
<ellipse fill="lightgrey" stroke="black" cx="736.54" cy="-936" rx="44.69" ry="18"/>
<text text-anchor="middle" x="736.54" y="-932.3" font-family="Helvetica,sans-Serif" font-size="14.00">Divide1</text>
</g>
<!-- SampleWorkspace2&#45;&gt;Divide1 -->
<g id="edge23" class="edge">
<title>SampleWorkspace2&#45;&gt;Divide1</title>
<path fill="none" stroke="black" d="M563.2,-992.94C601.2,-980.68 654.49,-963.48 691.93,-951.4"/>
<polygon fill="black" stroke="black" points="692.64,-954.85 701.08,-948.44 690.49,-948.18 692.64,-954.85"/>
</g>
<!-- SampleChemicalFormula -->
<g id="node3" class="node">
<title>SampleChemicalFormula</title>
<ellipse fill="khaki" stroke="black" cx="363.54" cy="-1461" rx="122.38" ry="18"/>
<text text-anchor="middle" x="363.54" y="-1457.3" font-family="Helvetica,sans-Serif" font-size="14.00">SampleChemicalFormula</text>
</g>
<!-- SetSample -->
<g id="node30" class="node">
<title>SetSample</title>
<path fill="lightskyblue" stroke="black" d="M950.04,-1406C950.04,-1406 883.04,-1406 883.04,-1406 877.04,-1406 871.04,-1400 871.04,-1394 871.04,-1394 871.04,-1382 871.04,-1382 871.04,-1376 877.04,-1370 883.04,-1370 883.04,-1370 950.04,-1370 950.04,-1370 956.04,-1370 962.04,-1376 962.04,-1382 962.04,-1382 962.04,-1394 962.04,-1394 962.04,-1400 956.04,-1406 950.04,-1406"/>
<text text-anchor="middle" x="916.54" y="-1384.3" font-family="Helvetica,sans-Serif" font-size="14.00">SetSample</text>
</g>
<!-- SampleChemicalFormula&#45;&gt;SetSample -->
<g id="edge11" class="edge">
<title>SampleChemicalFormula&#45;&gt;SetSample</title>
<path fill="none" stroke="black" d="M451.93,-1448.18C466.17,-1446.38 480.76,-1444.59 494.54,-1443 653.74,-1424.65 698.86,-1437.96 859.54,-1406.15"/>
<polygon fill="black" stroke="black" points="860.21,-1409.59 869.32,-1404.18 858.82,-1402.72 860.21,-1409.59"/>
</g>
<!-- SampleDensity -->
<g id="node4" class="node">
<title>SampleDensity</title>
<ellipse fill="khaki" stroke="black" cx="582.54" cy="-1461" rx="78.79" ry="18"/>
<text text-anchor="middle" x="582.54" y="-1457.3" font-family="Helvetica,sans-Serif" font-size="14.00">SampleDensity</text>
</g>
<!-- SampleDensity&#45;&gt;SetSample -->
<g id="edge12" class="edge">
<title>SampleDensity&#45;&gt;SetSample</title>
<path fill="none" stroke="black" d="M641.35,-1448.64C711.67,-1435.05 823.67,-1413.4 859.76,-1405.95"/>
<polygon fill="black" stroke="black" points="860.22,-1409.43 869.25,-1403.89 858.74,-1402.59 860.22,-1409.43"/>
</g>
<!-- SampleHeight -->
<g id="node5" class="node">
<title>SampleHeight</title>
<ellipse fill="khaki" stroke="black" cx="753.54" cy="-1461" rx="74.19" ry="18"/>
<text text-anchor="middle" x="753.54" y="-1457.3" font-family="Helvetica,sans-Serif" font-size="14.00">SampleHeight</text>
</g>
<!-- SampleHeight&#45;&gt;SetSample -->
<g id="edge7" class="edge">
<title>SampleHeight&#45;&gt;SetSample</title>
<path fill="none" stroke="black" d="M788.51,-1444.77C811.1,-1434.93 840.86,-1421.96 866.01,-1411.01"/>
<polygon fill="black" stroke="black" points="867.31,-1414.26 875.08,-1407.06 864.51,-1407.84 867.31,-1414.26"/>
</g>
<!-- SampleWidth -->
<g id="node6" class="node">
<title>SampleWidth</title>
<ellipse fill="khaki" stroke="black" cx="916.54" cy="-1461" rx="70.69" ry="18"/>
<text text-anchor="middle" x="916.54" y="-1457.3" font-family="Helvetica,sans-Serif" font-size="14.00">SampleWidth</text>
</g>
<!-- SampleWidth&#45;&gt;SetSample -->
<g id="edge8" class="edge">
<title>SampleWidth&#45;&gt;SetSample</title>
<path fill="none" stroke="black" d="M916.54,-1442.81C916.54,-1435.23 916.54,-1426.1 916.54,-1417.54"/>
<polygon fill="black" stroke="black" points="920.04,-1417.54 916.54,-1407.54 913.04,-1417.54 920.04,-1417.54"/>
</g>
<!-- SampleThickness -->
<g id="node7" class="node">
<title>SampleThickness</title>
<ellipse fill="khaki" stroke="black" cx="1094.54" cy="-1461" rx="89.08" ry="18"/>
<text text-anchor="middle" x="1094.54" y="-1457.3" font-family="Helvetica,sans-Serif" font-size="14.00">SampleThickness</text>
</g>
<!-- SampleThickness&#45;&gt;SetSample -->
<g id="edge9" class="edge">
<title>SampleThickness&#45;&gt;SetSample</title>
<path fill="none" stroke="black" d="M1055.48,-1444.42C1030.63,-1434.51 998.11,-1421.54 970.78,-1410.63"/>
<polygon fill="black" stroke="black" points="972.19,-1407.43 961.61,-1406.98 969.6,-1413.93 972.19,-1407.43"/>
</g>
<!-- SampleAngle -->
<g id="node8" class="node">
<title>SampleAngle</title>
<ellipse fill="khaki" stroke="black" cx="1271.54" cy="-1461" rx="70.39" ry="18"/>
<text text-anchor="middle" x="1271.54" y="-1457.3" font-family="Helvetica,sans-Serif" font-size="14.00">SampleAngle</text>
</g>
<!-- SampleAngle&#45;&gt;SetSample -->
<g id="edge10" class="edge">
<title>SampleAngle&#45;&gt;SetSample</title>
<path fill="none" stroke="black" d="M1219.3,-1448.61C1210.38,-1446.71 1201.2,-1444.78 1192.54,-1443 1116.92,-1427.47 1029.43,-1410.52 973.58,-1399.84"/>
<polygon fill="black" stroke="black" points="974.47,-1396.44 963.99,-1398 973.15,-1403.32 974.47,-1396.44"/>
</g>
<!-- BeamHeight -->
<g id="node9" class="node">
<title>BeamHeight</title>
<ellipse fill="khaki" stroke="black" cx="1252.54" cy="-1534" rx="66.09" ry="18"/>
<text text-anchor="middle" x="1252.54" y="-1530.3" font-family="Helvetica,sans-Serif" font-size="14.00">BeamHeight</text>
</g>
<!-- SetBeam -->
<g id="node27" class="node">
<title>SetBeam</title>
<path fill="lightskyblue" stroke="black" d="M1427.04,-1479C1427.04,-1479 1372.04,-1479 1372.04,-1479 1366.04,-1479 1360.04,-1473 1360.04,-1467 1360.04,-1467 1360.04,-1455 1360.04,-1455 1360.04,-1449 1366.04,-1443 1372.04,-1443 1372.04,-1443 1427.04,-1443 1427.04,-1443 1433.04,-1443 1439.04,-1449 1439.04,-1455 1439.04,-1455 1439.04,-1467 1439.04,-1467 1439.04,-1473 1433.04,-1479 1427.04,-1479"/>
<text text-anchor="middle" x="1399.54" y="-1457.3" font-family="Helvetica,sans-Serif" font-size="14.00">SetBeam</text>
</g>
<!-- BeamHeight&#45;&gt;SetBeam -->
<g id="edge4" class="edge">
<title>BeamHeight&#45;&gt;SetBeam</title>
<path fill="none" stroke="black" d="M1284.08,-1517.77C1304.18,-1508.06 1330.58,-1495.31 1353.06,-1484.45"/>
<polygon fill="black" stroke="black" points="1354.56,-1487.61 1362.04,-1480.11 1351.51,-1481.31 1354.56,-1487.61"/>
</g>
<!-- BeamWidth -->
<g id="node10" class="node">
<title>BeamWidth</title>
<ellipse fill="khaki" stroke="black" cx="1399.54" cy="-1534" rx="63.09" ry="18"/>
<text text-anchor="middle" x="1399.54" y="-1530.3" font-family="Helvetica,sans-Serif" font-size="14.00">BeamWidth</text>
</g>
<!-- BeamWidth&#45;&gt;SetBeam -->
<g id="edge5" class="edge">
<title>BeamWidth&#45;&gt;SetBeam</title>
<path fill="none" stroke="black" d="M1399.54,-1515.81C1399.54,-1508.23 1399.54,-1499.1 1399.54,-1490.54"/>
<polygon fill="black" stroke="black" points="1403.04,-1490.54 1399.54,-1480.54 1396.04,-1490.54 1403.04,-1490.54"/>
</g>
<!-- Events -->
<g id="node11" class="node">
<title>Events</title>
<ellipse fill="khaki" stroke="black" cx="560.54" cy="-1388" rx="41.69" ry="18"/>
<text text-anchor="middle" x="560.54" y="-1384.3" font-family="Helvetica,sans-Serif" font-size="14.00">Events</text>
</g>
<!-- MonteCarlo -->
<g id="node33" class="node">
<title>MonteCarlo</title>
<path fill="lightskyblue" stroke="black" d="M772.04,-1333C772.04,-1333 701.04,-1333 701.04,-1333 695.04,-1333 689.04,-1327 689.04,-1321 689.04,-1321 689.04,-1309 689.04,-1309 689.04,-1303 695.04,-1297 701.04,-1297 701.04,-1297 772.04,-1297 772.04,-1297 778.04,-1297 784.04,-1303 784.04,-1309 784.04,-1309 784.04,-1321 784.04,-1321 784.04,-1327 778.04,-1333 772.04,-1333"/>
<text text-anchor="middle" x="736.54" y="-1311.3" font-family="Helvetica,sans-Serif" font-size="14.00">MonteCarlo</text>
</g>
<!-- Events&#45;&gt;MonteCarlo -->
<g id="edge14" class="edge">
<title>Events&#45;&gt;MonteCarlo</title>
<path fill="none" stroke="black" d="M590.4,-1374.96C615.66,-1364.76 652.5,-1349.9 682.88,-1337.65"/>
<polygon fill="black" stroke="black" points="683.95,-1340.99 691.91,-1334 681.33,-1334.5 683.95,-1340.99"/>
</g>
<!-- NumberOfWavelengths -->
<g id="node12" class="node">
<title>NumberOfWavelengths</title>
<ellipse fill="khaki" stroke="black" cx="736.54" cy="-1388" rx="116.18" ry="18"/>
<text text-anchor="middle" x="736.54" y="-1384.3" font-family="Helvetica,sans-Serif" font-size="14.00">NumberOfWavelengths</text>
</g>
<!-- NumberOfWavelengths&#45;&gt;MonteCarlo -->
<g id="edge15" class="edge">
<title>NumberOfWavelengths&#45;&gt;MonteCarlo</title>
<path fill="none" stroke="black" d="M736.54,-1369.81C736.54,-1362.23 736.54,-1353.1 736.54,-1344.54"/>
<polygon fill="black" stroke="black" points="740.04,-1344.54 736.54,-1334.54 733.04,-1344.54 740.04,-1344.54"/>
</g>
<!-- AbsWorkspace1 -->
<g id="node13" class="node">
<title>AbsWorkspace1</title>
<ellipse fill="khaki" stroke="black" cx="724.54" cy="-1242" rx="109.38" ry="18"/>
<text text-anchor="middle" x="724.54" y="-1238.3" font-family="Helvetica,sans-Serif" font-size="14.00">AbsorptionWorkspace</text>
</g>
<!-- AbsWorkspace2 -->
<g id="node14" class="node">
<title>AbsWorkspace2</title>
<ellipse fill="khaki" stroke="black" cx="737.54" cy="-1009" rx="109.38" ry="18"/>
<text text-anchor="middle" x="737.54" y="-1005.3" font-family="Helvetica,sans-Serif" font-size="14.00">AbsorptionWorkspace</text>
</g>
<!-- AbsWorkspace2&#45;&gt;Divide1 -->
<g id="edge24" class="edge">
<title>AbsWorkspace2&#45;&gt;Divide1</title>
<path fill="none" stroke="black" d="M737.3,-990.81C737.19,-983.23 737.06,-974.1 736.94,-965.54"/>
<polygon fill="black" stroke="black" points="740.44,-965.49 736.8,-955.54 733.44,-965.59 740.44,-965.49"/>
</g>
<!-- CanAbsorptionWorkspace -->
<g id="node15" class="node">
<title>CanAbsorptionWorkspace</title>
<ellipse fill="khaki" stroke="black" cx="651.54" cy="-397" rx="126.98" ry="18"/>
<text text-anchor="middle" x="651.54" y="-393.3" font-family="Helvetica,sans-Serif" font-size="14.00">CanAbsorptionWorkspace</text>
</g>
<!-- CanWorkspace1 -->
<g id="node16" class="node">
<title>CanWorkspace1</title>
<ellipse fill="khaki" stroke="black" cx="463.54" cy="-776" rx="83.39" ry="18"/>
<text text-anchor="middle" x="463.54" y="-772.3" font-family="Helvetica,sans-Serif" font-size="14.00">CanWorkspace1</text>
</g>
<!-- SetBeam1 -->
<g id="node28" class="node">
<title>SetBeam1</title>
<path fill="lightskyblue" stroke="black" d="M276.04,-707C276.04,-707 221.04,-707 221.04,-707 215.04,-707 209.04,-701 209.04,-695 209.04,-695 209.04,-683 209.04,-683 209.04,-677 215.04,-671 221.04,-671 221.04,-671 276.04,-671 276.04,-671 282.04,-671 288.04,-677 288.04,-683 288.04,-683 288.04,-695 288.04,-695 288.04,-701 282.04,-707 276.04,-707"/>
<text text-anchor="middle" x="248.54" y="-685.3" font-family="Helvetica,sans-Serif" font-size="14.00">SetBeam</text>
</g>
<!-- CanWorkspace1&#45;&gt;SetBeam1 -->
<g id="edge27" class="edge">
<title>CanWorkspace1&#45;&gt;SetBeam1</title>
<path fill="none" stroke="black" d="M425.1,-759.8C389.88,-745.88 337.52,-725.18 298.95,-709.93"/>
<polygon fill="black" stroke="black" points="300.46,-706.76 289.88,-706.34 297.89,-713.27 300.46,-706.76"/>
</g>
<!-- CanWorkspace2 -->
<g id="node17" class="node">
<title>CanWorkspace2</title>
<ellipse fill="khaki" stroke="black" cx="720.54" cy="-776" rx="83.39" ry="18"/>
<text text-anchor="middle" x="720.54" y="-772.3" font-family="Helvetica,sans-Serif" font-size="14.00">CanWorkspace2</text>
</g>
<!-- SetBeam2 -->
<g id="node29" class="node">
<title>SetBeam2</title>
<path fill="lightskyblue" stroke="black" d="M745.04,-707C745.04,-707 690.04,-707 690.04,-707 684.04,-707 678.04,-701 678.04,-695 678.04,-695 678.04,-683 678.04,-683 678.04,-677 684.04,-671 690.04,-671 690.04,-671 745.04,-671 745.04,-671 751.04,-671 757.04,-677 757.04,-683 757.04,-683 757.04,-695 757.04,-695 757.04,-701 751.04,-707 745.04,-707"/>
<text text-anchor="middle" x="717.54" y="-685.3" font-family="Helvetica,sans-Serif" font-size="14.00">SetBeam</text>
</g>
<!-- CanWorkspace2&#45;&gt;SetBeam2 -->
<g id="edge35" class="edge">
<title>CanWorkspace2&#45;&gt;SetBeam2</title>
<path fill="none" stroke="black" d="M719.93,-757.8C719.54,-746.58 719.01,-731.67 718.55,-718.69"/>
<polygon fill="black" stroke="black" points="722.06,-718.85 718.21,-708.98 715.07,-719.1 722.06,-718.85"/>
</g>
<!-- CanChemicalFormula -->
<g id="node18" class="node">
<title>CanChemicalFormula</title>
<ellipse fill="khaki" stroke="black" cx="411.54" cy="-689" rx="105.88" ry="18"/>
<text text-anchor="middle" x="411.54" y="-685.3" font-family="Helvetica,sans-Serif" font-size="14.00">CanChemicalFormula</text>
</g>
<!-- SetSample1 -->
<g id="node31" class="node">
<title>SetSample1</title>
<path fill="lightskyblue" stroke="black" d="M445.04,-634C445.04,-634 378.04,-634 378.04,-634 372.04,-634 366.04,-628 366.04,-622 366.04,-622 366.04,-610 366.04,-610 366.04,-604 372.04,-598 378.04,-598 378.04,-598 445.04,-598 445.04,-598 451.04,-598 457.04,-604 457.04,-610 457.04,-610 457.04,-622 457.04,-622 457.04,-628 451.04,-634 445.04,-634"/>
<text text-anchor="middle" x="411.54" y="-612.3" font-family="Helvetica,sans-Serif" font-size="14.00">SetSample</text>
</g>
<!-- CanChemicalFormula&#45;&gt;SetSample1 -->
<g id="edge30" class="edge">
<title>CanChemicalFormula&#45;&gt;SetSample1</title>
<path fill="none" stroke="black" d="M411.54,-670.81C411.54,-663.23 411.54,-654.1 411.54,-645.54"/>
<polygon fill="black" stroke="black" points="415.04,-645.54 411.54,-635.54 408.04,-645.54 415.04,-645.54"/>
</g>
<!-- SetSample2 -->
<g id="node32" class="node">
<title>SetSample2</title>
<path fill="lightskyblue" stroke="black" d="M685.04,-634C685.04,-634 618.04,-634 618.04,-634 612.04,-634 606.04,-628 606.04,-622 606.04,-622 606.04,-610 606.04,-610 606.04,-604 612.04,-598 618.04,-598 618.04,-598 685.04,-598 685.04,-598 691.04,-598 697.04,-604 697.04,-610 697.04,-610 697.04,-622 697.04,-622 697.04,-628 691.04,-634 685.04,-634"/>
<text text-anchor="middle" x="651.54" y="-612.3" font-family="Helvetica,sans-Serif" font-size="14.00">SetSample</text>
</g>
<!-- CanChemicalFormula&#45;&gt;SetSample2 -->
<g id="edge38" class="edge">
<title>CanChemicalFormula&#45;&gt;SetSample2</title>
<path fill="none" stroke="black" d="M462.73,-672.86C501.49,-661.39 554.71,-645.65 594.77,-633.79"/>
<polygon fill="black" stroke="black" points="595.65,-637.18 604.25,-630.99 593.67,-630.47 595.65,-637.18"/>
</g>
<!-- CanDensity -->
<g id="node19" class="node">
<title>CanDensity</title>
<ellipse fill="khaki" stroke="black" cx="597.54" cy="-689" rx="62.29" ry="18"/>
<text text-anchor="middle" x="597.54" y="-685.3" font-family="Helvetica,sans-Serif" font-size="14.00">CanDensity</text>
</g>
<!-- CanDensity&#45;&gt;SetSample1 -->
<g id="edge31" class="edge">
<title>CanDensity&#45;&gt;SetSample1</title>
<path fill="none" stroke="black" d="M561.24,-674.14C534.66,-664 498.1,-650.04 467.76,-638.46"/>
<polygon fill="black" stroke="black" points="469.32,-635.31 458.73,-635.01 466.83,-641.85 469.32,-635.31"/>
</g>
<!-- CanDensity&#45;&gt;SetSample2 -->
<g id="edge39" class="edge">
<title>CanDensity&#45;&gt;SetSample2</title>
<path fill="none" stroke="black" d="M610.34,-671.17C616.65,-662.87 624.42,-652.66 631.5,-643.35"/>
<polygon fill="black" stroke="black" points="634.09,-645.73 637.36,-635.65 628.52,-641.49 634.09,-645.73"/>
</g>
<!-- CanFrontThickness -->
<g id="node20" class="node">
<title>CanFrontThickness</title>
<ellipse fill="khaki" stroke="black" cx="95.54" cy="-689" rx="95.58" ry="18"/>
<text text-anchor="middle" x="95.54" y="-685.3" font-family="Helvetica,sans-Serif" font-size="14.00">CanFrontThickness</text>
</g>
<!-- CanFrontThickness&#45;&gt;SetSample1 -->
<g id="edge29" class="edge">
<title>CanFrontThickness&#45;&gt;SetSample1</title>
<path fill="none" stroke="black" d="M155.35,-674.56C212.6,-661.7 298.34,-642.43 354.61,-629.79"/>
<polygon fill="black" stroke="black" points="355.34,-633.22 364.33,-627.61 353.8,-626.39 355.34,-633.22"/>
</g>
<!-- CanBackThickness -->
<g id="node21" class="node">
<title>CanBackThickness</title>
<ellipse fill="khaki" stroke="black" cx="869.54" cy="-689" rx="94.78" ry="18"/>
<text text-anchor="middle" x="869.54" y="-685.3" font-family="Helvetica,sans-Serif" font-size="14.00">CanBackThickness</text>
</g>
<!-- CanBackThickness&#45;&gt;SetSample2 -->
<g id="edge37" class="edge">
<title>CanBackThickness&#45;&gt;SetSample2</title>
<path fill="none" stroke="black" d="M823.04,-672.86C789.39,-661.89 743.72,-647.02 707.97,-635.38"/>
<polygon fill="black" stroke="black" points="709.25,-632.11 698.66,-632.35 707.08,-638.77 709.25,-632.11"/>
</g>
<!-- OutputWorkspace -->
<g id="node22" class="node">
<title>OutputWorkspace</title>
<ellipse fill="khaki" stroke="black" cx="951.54" cy="-18" rx="91.78" ry="18"/>
<text text-anchor="middle" x="951.54" y="-14.3" font-family="Helvetica,sans-Serif" font-size="14.00">OutputWorkspace</text>
</g>
<!-- ConvertUnits1 -->
<g id="node24" class="node">
<title>ConvertUnits1</title>
<path fill="lightskyblue" stroke="black" d="M1576.04,-1552C1576.04,-1552 1493.04,-1552 1493.04,-1552 1487.04,-1552 1481.04,-1546 1481.04,-1540 1481.04,-1540 1481.04,-1528 1481.04,-1528 1481.04,-1522 1487.04,-1516 1493.04,-1516 1493.04,-1516 1576.04,-1516 1576.04,-1516 1582.04,-1516 1588.04,-1522 1588.04,-1528 1588.04,-1528 1588.04,-1540 1588.04,-1540 1588.04,-1546 1582.04,-1552 1576.04,-1552"/>
<text text-anchor="middle" x="1534.54" y="-1530.3" font-family="Helvetica,sans-Serif" font-size="14.00">ConvertUnits</text>
</g>
<!-- GetEFixed&#45;&gt;ConvertUnits1 -->
<g id="edge2" class="edge">
<title>GetEFixed&#45;&gt;ConvertUnits1</title>
<path fill="none" stroke="black" d="M1534.54,-1602.8C1534.54,-1591.58 1534.54,-1576.67 1534.54,-1563.69"/>
<polygon fill="black" stroke="black" points="1538.04,-1563.98 1534.54,-1553.98 1531.04,-1563.98 1538.04,-1563.98"/>
<text text-anchor="middle" x="1674.04" y="-1573.8" font-family="Helvetica,sans-Serif" font-size="14.00">Convert input workspace to Wavelength</text>
</g>
<!-- ConvertUnits1&#45;&gt;SetBeam -->
<g id="edge3" class="edge">
<title>ConvertUnits1&#45;&gt;SetBeam</title>
<path fill="none" stroke="black" d="M1501.52,-1515.63C1483.78,-1506.31 1461.71,-1494.7 1442.64,-1484.67"/>
<polygon fill="black" stroke="black" points="1444.51,-1481.7 1434.03,-1480.14 1441.25,-1487.89 1444.51,-1481.7"/>
</g>
<!-- ConvertUnits2 -->
<g id="node25" class="node">
<title>ConvertUnits2</title>
<path fill="lightskyblue" stroke="black" d="M999.04,-1173C999.04,-1173 916.04,-1173 916.04,-1173 910.04,-1173 904.04,-1167 904.04,-1161 904.04,-1161 904.04,-1149 904.04,-1149 904.04,-1143 910.04,-1137 916.04,-1137 916.04,-1137 999.04,-1137 999.04,-1137 1005.04,-1137 1011.04,-1143 1011.04,-1149 1011.04,-1149 1011.04,-1161 1011.04,-1161 1011.04,-1167 1005.04,-1173 999.04,-1173"/>
<text text-anchor="middle" x="957.54" y="-1151.3" font-family="Helvetica,sans-Serif" font-size="14.00">ConvertUnits</text>
</g>
<!-- Scale -->
<g id="node36" class="node">
<title>Scale</title>
<path fill="lightskyblue" stroke="black" d="M917.54,-1100C917.54,-1100 887.54,-1100 887.54,-1100 881.54,-1100 875.54,-1094 875.54,-1088 875.54,-1088 875.54,-1076 875.54,-1076 875.54,-1070 881.54,-1064 887.54,-1064 887.54,-1064 917.54,-1064 917.54,-1064 923.54,-1064 929.54,-1070 929.54,-1076 929.54,-1076 929.54,-1088 929.54,-1088 929.54,-1094 923.54,-1100 917.54,-1100"/>
<text text-anchor="middle" x="902.54" y="-1078.3" font-family="Helvetica,sans-Serif" font-size="14.00">Scale</text>
</g>
<!-- ConvertUnits2&#45;&gt;Scale -->
<g id="edge19" class="edge">
<title>ConvertUnits2&#45;&gt;Scale</title>
<path fill="none" stroke="black" d="M944.23,-1136.81C937.74,-1128.44 929.81,-1118.2 922.61,-1108.9"/>
<polygon fill="black" stroke="black" points="925.55,-1106.99 916.66,-1101.23 920.02,-1111.27 925.55,-1106.99"/>
</g>
<!-- Clone -->
<g id="node44" class="node">
<title>Clone</title>
<ellipse fill="lightgrey" stroke="black" cx="902.54" cy="-1009" rx="36.29" ry="18"/>
<text text-anchor="middle" x="902.54" y="-1005.3" font-family="Helvetica,sans-Serif" font-size="14.00">Clone</text>
</g>
<!-- ConvertUnits2&#45;&gt;Clone -->
<g id="edge20" class="edge">
<title>ConvertUnits2&#45;&gt;Clone</title>
<path fill="none" stroke="black" d="M955.88,-1136.84C953.64,-1118.29 948.69,-1088.14 938.54,-1064 934.35,-1054.04 928.25,-1043.96 922.26,-1035.25"/>
<polygon fill="black" stroke="black" points="925.21,-1033.37 916.53,-1027.31 919.54,-1037.47 925.21,-1033.37"/>
</g>
<!-- ConvertUnits3 -->
<g id="node26" class="node">
<title>ConvertUnits3</title>
<path fill="lightskyblue" stroke="black" d="M993.04,-255C993.04,-255 910.04,-255 910.04,-255 904.04,-255 898.04,-249 898.04,-243 898.04,-243 898.04,-231 898.04,-231 898.04,-225 904.04,-219 910.04,-219 910.04,-219 993.04,-219 993.04,-219 999.04,-219 1005.04,-225 1005.04,-231 1005.04,-231 1005.04,-243 1005.04,-243 1005.04,-249 999.04,-255 993.04,-255"/>
<text text-anchor="middle" x="951.54" y="-233.3" font-family="Helvetica,sans-Serif" font-size="14.00">ConvertUnits</text>
</g>
<!-- AddSampleLogMultiple -->
<g id="node39" class="node">
<title>AddSampleLogMultiple</title>
<path fill="lightskyblue" stroke="black" d="M1027.04,-182C1027.04,-182 876.04,-182 876.04,-182 870.04,-182 864.04,-176 864.04,-170 864.04,-170 864.04,-158 864.04,-158 864.04,-152 870.04,-146 876.04,-146 876.04,-146 1027.04,-146 1027.04,-146 1033.04,-146 1039.04,-152 1039.04,-158 1039.04,-158 1039.04,-170 1039.04,-170 1039.04,-176 1033.04,-182 1027.04,-182"/>
<text text-anchor="middle" x="951.54" y="-160.3" font-family="Helvetica,sans-Serif" font-size="14.00">AddSampleLogMultiple</text>
</g>
<!-- ConvertUnits3&#45;&gt;AddSampleLogMultiple -->
<g id="edge48" class="edge">
<title>ConvertUnits3&#45;&gt;AddSampleLogMultiple</title>
<path fill="none" stroke="black" d="M951.54,-218.81C951.54,-211.23 951.54,-202.1 951.54,-193.54"/>
<polygon fill="black" stroke="black" points="955.04,-193.54 951.54,-183.54 948.04,-193.54 955.04,-193.54"/>
</g>
<!-- SetBeam&#45;&gt;SetSample -->
<g id="edge6" class="edge">
<title>SetBeam&#45;&gt;SetSample</title>
<path fill="none" stroke="black" d="M1359.63,-1445.39C1356.58,-1444.5 1353.52,-1443.69 1350.54,-1443 1217.59,-1412.03 1057.31,-1397.93 973.68,-1392.27"/>
<polygon fill="black" stroke="black" points="974.11,-1388.79 963.9,-1391.63 973.65,-1395.78 974.11,-1388.79"/>
</g>
<!-- SetBeam1&#45;&gt;SetSample1 -->
<g id="edge28" class="edge">
<title>SetBeam1&#45;&gt;SetSample1</title>
<path fill="none" stroke="black" d="M288.42,-670.63C310.32,-661.09 337.71,-649.16 361.09,-638.98"/>
<polygon fill="black" stroke="black" points="362.36,-642.24 370.13,-635.04 359.56,-635.82 362.36,-642.24"/>
</g>
<!-- SetBeam2&#45;&gt;SetSample2 -->
<g id="edge36" class="edge">
<title>SetBeam2&#45;&gt;SetSample2</title>
<path fill="none" stroke="black" d="M701.56,-670.81C693.62,-662.27 683.86,-651.77 675.08,-642.32"/>
<polygon fill="black" stroke="black" points="677.77,-640.08 668.4,-635.14 672.65,-644.84 677.77,-640.08"/>
</g>
<!-- SetSample&#45;&gt;MonteCarlo -->
<g id="edge13" class="edge">
<title>SetSample&#45;&gt;MonteCarlo</title>
<path fill="none" stroke="black" d="M872.51,-1369.63C847.99,-1359.96 817.26,-1347.84 791.21,-1337.56"/>
<polygon fill="black" stroke="black" points="792.74,-1334.4 782.15,-1333.99 790.17,-1340.92 792.74,-1334.4"/>
</g>
<!-- MonteCarlo1 -->
<g id="node34" class="node">
<title>MonteCarlo1</title>
<path fill="lightskyblue" stroke="black" d="M556.04,-561C556.04,-561 485.04,-561 485.04,-561 479.04,-561 473.04,-555 473.04,-549 473.04,-549 473.04,-537 473.04,-537 473.04,-531 479.04,-525 485.04,-525 485.04,-525 556.04,-525 556.04,-525 562.04,-525 568.04,-531 568.04,-537 568.04,-537 568.04,-549 568.04,-549 568.04,-555 562.04,-561 556.04,-561"/>
<text text-anchor="middle" x="520.54" y="-539.3" font-family="Helvetica,sans-Serif" font-size="14.00">MonteCarlo</text>
</g>
<!-- SetSample1&#45;&gt;MonteCarlo1 -->
<g id="edge32" class="edge">
<title>SetSample1&#45;&gt;MonteCarlo1</title>
<path fill="none" stroke="black" d="M438.21,-597.63C452.06,-588.61 469.2,-577.44 484.24,-567.64"/>
<polygon fill="black" stroke="black" points="486.04,-570.65 492.51,-562.26 482.22,-564.79 486.04,-570.65"/>
</g>
<!-- MonteCarlo2 -->
<g id="node35" class="node">
<title>MonteCarlo2</title>
<path fill="lightskyblue" stroke="black" d="M687.04,-561C687.04,-561 616.04,-561 616.04,-561 610.04,-561 604.04,-555 604.04,-549 604.04,-549 604.04,-537 604.04,-537 604.04,-531 610.04,-525 616.04,-525 616.04,-525 687.04,-525 687.04,-525 693.04,-525 699.04,-531 699.04,-537 699.04,-537 699.04,-549 699.04,-549 699.04,-555 693.04,-561 687.04,-561"/>
<text text-anchor="middle" x="651.54" y="-539.3" font-family="Helvetica,sans-Serif" font-size="14.00">MonteCarlo</text>
</g>
<!-- SetSample2&#45;&gt;MonteCarlo2 -->
<g id="edge40" class="edge">
<title>SetSample2&#45;&gt;MonteCarlo2</title>
<path fill="none" stroke="black" d="M651.54,-597.81C651.54,-590.23 651.54,-581.1 651.54,-572.54"/>
<polygon fill="black" stroke="black" points="655.04,-572.54 651.54,-562.54 648.04,-572.54 655.04,-572.54"/>
</g>
<!-- MonteCarlo&#45;&gt;AbsWorkspace1 -->
<g id="edge16" class="edge">
<title>MonteCarlo&#45;&gt;AbsWorkspace1</title>
<path fill="none" stroke="black" d="M733.64,-1296.81C732.34,-1289.14 730.78,-1279.89 729.32,-1271.24"/>
<polygon fill="black" stroke="black" points="732.79,-1270.8 727.67,-1261.52 725.89,-1271.96 732.79,-1270.8"/>
</g>
<!-- canGiven -->
<g id="node42" class="node">
<title>canGiven</title>
<polygon fill="limegreen" stroke="black" points="1009.54,-1260 851.35,-1242 1009.54,-1224 1167.73,-1242 1009.54,-1260"/>
<text text-anchor="middle" x="1009.54" y="-1238.3" font-family="Helvetica,sans-Serif" font-size="14.00">Container Workspace?</text>
</g>
<!-- MonteCarlo&#45;&gt;canGiven -->
<g id="edge17" class="edge">
<title>MonteCarlo&#45;&gt;canGiven</title>
<path fill="none" stroke="black" d="M784.41,-1301.55C831.18,-1289.39 902.42,-1270.86 952.19,-1257.91"/>
<polygon fill="black" stroke="black" points="952.84,-1261.36 961.63,-1255.46 951.08,-1254.59 952.84,-1261.36"/>
</g>
<!-- Multiply -->
<g id="node41" class="node">
<title>Multiply</title>
<path fill="lightskyblue" stroke="black" d="M675.04,-488C675.04,-488 628.04,-488 628.04,-488 622.04,-488 616.04,-482 616.04,-476 616.04,-476 616.04,-464 616.04,-464 616.04,-458 622.04,-452 628.04,-452 628.04,-452 675.04,-452 675.04,-452 681.04,-452 687.04,-458 687.04,-464 687.04,-464 687.04,-476 687.04,-476 687.04,-482 681.04,-488 675.04,-488"/>
<text text-anchor="middle" x="651.54" y="-466.3" font-family="Helvetica,sans-Serif" font-size="14.00">Multiply</text>
</g>
<!-- MonteCarlo1&#45;&gt;Multiply -->
<g id="edge33" class="edge">
<title>MonteCarlo1&#45;&gt;Multiply</title>
<path fill="none" stroke="black" d="M552.59,-524.63C569.72,-515.35 591.02,-503.8 609.46,-493.81"/>
<polygon fill="black" stroke="black" points="610.92,-497 618.04,-489.16 607.58,-490.84 610.92,-497"/>
</g>
<!-- MonteCarlo2&#45;&gt;Multiply -->
<g id="edge41" class="edge">
<title>MonteCarlo2&#45;&gt;Multiply</title>
<path fill="none" stroke="black" d="M651.54,-524.81C651.54,-517.23 651.54,-508.1 651.54,-499.54"/>
<polygon fill="black" stroke="black" points="655.04,-499.54 651.54,-489.54 648.04,-499.54 655.04,-499.54"/>
</g>
<!-- Scale&#45;&gt;Clone -->
<g id="edge21" class="edge">
<title>Scale&#45;&gt;Clone</title>
<path fill="none" stroke="black" d="M902.54,-1063.81C902.54,-1056.23 902.54,-1047.1 902.54,-1038.54"/>
<polygon fill="black" stroke="black" points="906.04,-1038.54 902.54,-1028.54 899.04,-1038.54 906.04,-1038.54"/>
</g>
<!-- Divide -->
<g id="node37" class="node">
<title>Divide</title>
<path fill="lightskyblue" stroke="black" d="M882.54,-415C882.54,-415 846.54,-415 846.54,-415 840.54,-415 834.54,-409 834.54,-403 834.54,-403 834.54,-391 834.54,-391 834.54,-385 840.54,-379 846.54,-379 846.54,-379 882.54,-379 882.54,-379 888.54,-379 894.54,-385 894.54,-391 894.54,-391 894.54,-403 894.54,-403 894.54,-409 888.54,-415 882.54,-415"/>
<text text-anchor="middle" x="864.54" y="-393.3" font-family="Helvetica,sans-Serif" font-size="14.00">Divide</text>
</g>
<!-- Minus -->
<g id="node38" class="node">
<title>Minus</title>
<path fill="lightskyblue" stroke="black" d="M881.54,-342C881.54,-342 847.54,-342 847.54,-342 841.54,-342 835.54,-336 835.54,-330 835.54,-330 835.54,-318 835.54,-318 835.54,-312 841.54,-306 847.54,-306 847.54,-306 881.54,-306 881.54,-306 887.54,-306 893.54,-312 893.54,-318 893.54,-318 893.54,-330 893.54,-330 893.54,-336 887.54,-342 881.54,-342"/>
<text text-anchor="middle" x="864.54" y="-320.3" font-family="Helvetica,sans-Serif" font-size="14.00">Minus</text>
</g>
<!-- Divide&#45;&gt;Minus -->
<g id="edge45" class="edge">
<title>Divide&#45;&gt;Minus</title>
<path fill="none" stroke="black" d="M864.54,-378.81C864.54,-371.23 864.54,-362.1 864.54,-353.54"/>
<polygon fill="black" stroke="black" points="868.04,-353.54 864.54,-343.54 861.04,-353.54 868.04,-353.54"/>
</g>
<!-- Minus&#45;&gt;ConvertUnits3 -->
<g id="edge46" class="edge">
<title>Minus&#45;&gt;ConvertUnits3</title>
<path fill="none" stroke="black" d="M860.45,-305.82C858.99,-295.44 859.05,-282.44 865.54,-273 871.05,-264.98 878.75,-258.8 887.29,-254.03"/>
<polygon fill="black" stroke="black" points="888.77,-257.2 896.27,-249.71 885.74,-250.89 888.77,-257.2"/>
<text text-anchor="middle" x="945.54" y="-276.8" font-family="Helvetica,sans-Serif" font-size="14.00">Convert back to DeltaE</text>
</g>
<!-- GroupWorkspaces -->
<g id="node40" class="node">
<title>GroupWorkspaces</title>
<path fill="lightskyblue" stroke="black" d="M1010.54,-109C1010.54,-109 892.54,-109 892.54,-109 886.54,-109 880.54,-103 880.54,-97 880.54,-97 880.54,-85 880.54,-85 880.54,-79 886.54,-73 892.54,-73 892.54,-73 1010.54,-73 1010.54,-73 1016.54,-73 1022.54,-79 1022.54,-85 1022.54,-85 1022.54,-97 1022.54,-97 1022.54,-103 1016.54,-109 1010.54,-109"/>
<text text-anchor="middle" x="951.54" y="-87.3" font-family="Helvetica,sans-Serif" font-size="14.00">GroupWorkspaces</text>
</g>
<!-- AddSampleLogMultiple&#45;&gt;GroupWorkspaces -->
<g id="edge49" class="edge">
<title>AddSampleLogMultiple&#45;&gt;GroupWorkspaces</title>
<path fill="none" stroke="black" d="M951.54,-145.81C951.54,-138.23 951.54,-129.1 951.54,-120.54"/>
<polygon fill="black" stroke="black" points="955.04,-120.54 951.54,-110.54 948.04,-120.54 955.04,-120.54"/>
</g>
<!-- GroupWorkspaces&#45;&gt;OutputWorkspace -->
<g id="edge50" class="edge">
<title>GroupWorkspaces&#45;&gt;OutputWorkspace</title>
<path fill="none" stroke="black" d="M951.54,-72.81C951.54,-65.23 951.54,-56.1 951.54,-47.54"/>
<polygon fill="black" stroke="black" points="955.04,-47.54 951.54,-37.54 948.04,-47.54 955.04,-47.54"/>
</g>
<!-- Multiply&#45;&gt;CanAbsorptionWorkspace -->
<g id="edge42" class="edge">
<title>Multiply&#45;&gt;CanAbsorptionWorkspace</title>
<path fill="none" stroke="black" d="M651.54,-451.81C651.54,-444.23 651.54,-435.1 651.54,-426.54"/>
<polygon fill="black" stroke="black" points="655.04,-426.54 651.54,-416.54 648.04,-426.54 655.04,-426.54"/>
</g>
<!-- Multiply&#45;&gt;Divide -->
<g id="edge43" class="edge">
<title>Multiply&#45;&gt;Divide</title>
<path fill="none" stroke="black" d="M687.19,-457.12C724.78,-444.59 783.93,-424.87 823.45,-411.7"/>
<polygon fill="black" stroke="black" points="824.48,-415.04 832.86,-408.56 822.27,-408.4 824.48,-415.04"/>
</g>
<!-- canGiven&#45;&gt;ConvertUnits2 -->
<g id="edge18" class="edge">
<title>canGiven&#45;&gt;ConvertUnits2</title>
<path fill="none" stroke="black" d="M999.76,-1225.01C992.52,-1213.17 982.48,-1196.76 974,-1182.91"/>
<polygon fill="black" stroke="black" points="977.17,-1181.37 968.96,-1174.67 971.2,-1185.03 977.17,-1181.37"/>
<text text-anchor="middle" x="999.04" y="-1194.8" font-family="Helvetica,sans-Serif" font-size="14.00">Yes</text>
</g>
<!-- canGiven&#45;&gt;ConvertUnits3 -->
<g id="edge47" class="edge">
<title>canGiven&#45;&gt;ConvertUnits3</title>
<path fill="none" stroke="black" d="M1019.03,-1224.67C1027.82,-1207.98 1039.54,-1181.04 1039.54,-1156 1039.54,-1156 1039.54,-1156 1039.54,-323 1039.54,-299.92 1040.43,-290.64 1025.54,-273 1021.85,-268.63 1017.5,-264.77 1012.78,-261.37"/>
<polygon fill="black" stroke="black" points="1014.92,-258.59 1004.6,-256.19 1011.17,-264.5 1014.92,-258.59"/>
<text text-anchor="middle" x="1049.04" y="-728.8" font-family="Helvetica,sans-Serif" font-size="14.00">No</text>
</g>
<!-- useCorrections -->
<g id="node43" class="node">
<title>useCorrections</title>
<polygon fill="limegreen" stroke="black" points="721.54,-881 561.67,-863 721.54,-845 881.41,-863 721.54,-881"/>
<text text-anchor="middle" x="721.54" y="-859.3" font-family="Helvetica,sans-Serif" font-size="14.00">Container Corrections?</text>
</g>
<!-- useCorrections&#45;&gt;CanWorkspace1 -->
<g id="edge26" class="edge">
<title>useCorrections&#45;&gt;CanWorkspace1</title>
<path fill="none" stroke="black" d="M682.08,-849C638.38,-834.6 567.62,-811.29 518.51,-795.11"/>
<polygon fill="black" stroke="black" points="519.79,-791.85 509.2,-792.04 517.6,-798.5 519.79,-791.85"/>
<text text-anchor="middle" x="620.04" y="-815.8" font-family="Helvetica,sans-Serif" font-size="14.00">Yes</text>
</g>
<!-- useCorrections&#45;&gt;CanWorkspace2 -->
<g id="edge34" class="edge">
<title>useCorrections&#45;&gt;CanWorkspace2</title>
<path fill="none" stroke="black" d="M721.34,-844.8C721.21,-833.58 721.03,-818.67 720.88,-805.69"/>
<polygon fill="black" stroke="black" points="724.38,-805.94 720.76,-795.98 717.38,-806.02 724.38,-805.94"/>
<text text-anchor="middle" x="733.04" y="-815.8" font-family="Helvetica,sans-Serif" font-size="14.00">Yes</text>
</g>
<!-- useCorrections&#45;&gt;Divide -->
<g id="edge44" class="edge">
<title>useCorrections&#45;&gt;Divide</title>
<path fill="none" stroke="black" d="M797.75,-853.15C877.91,-841.66 992.54,-818.05 992.54,-777 992.54,-777 992.54,-777 992.54,-469 992.54,-428.7 943.42,-411.08 906.03,-403.51"/>
<polygon fill="black" stroke="black" points="906.83,-400.1 896.36,-401.74 905.57,-406.98 906.83,-400.1"/>
<text text-anchor="middle" x="1002.04" y="-612.3" font-family="Helvetica,sans-Serif" font-size="14.00">No</text>
</g>
<!-- Clone&#45;&gt;Divide1 -->
<g id="edge22" class="edge">
<title>Clone&#45;&gt;Divide1</title>
<path fill="none" stroke="black" d="M875.87,-996.59C849.14,-985.16 807.66,-967.42 776.91,-954.26"/>
<polygon fill="black" stroke="black" points="778.48,-951.13 767.91,-950.42 775.73,-957.57 778.48,-951.13"/>
</g>
<!-- Divide1&#45;&gt;useCorrections -->
<g id="edge25" class="edge">
<title>Divide1&#45;&gt;useCorrections</title>
<path fill="none" stroke="black" d="M732.91,-917.81C731.29,-910.14 729.34,-900.89 727.51,-892.24"/>
<polygon fill="black" stroke="black" points="730.94,-891.57 725.45,-882.51 724.09,-893.02 730.94,-891.57"/>
</g>
</g>
</svg>
