<?xml version="1.0" encoding="UTF-8" standalone="no"?>
<!DOCTYPE svg PUBLIC "-//W3C//DTD SVG 1.1//EN"
 "http://www.w3.org/Graphics/SVG/1.1/DTD/svg11.dtd">
<!-- Generated by graphviz version 11.0.0 (20240519.1550)
 -->
<!-- Title: IndirectResolution Pages: 1 -->
<svg width="720pt" height="521pt"
 viewBox="0.00 0.00 719.87 520.50" xmlns="http://www.w3.org/2000/svg" xmlns:xlink="http://www.w3.org/1999/xlink">
<g id="graph0" class="graph" transform="scale(1 1) rotate(0) translate(4 516.5)">
<title>IndirectResolution</title>
<polygon fill="white" stroke="none" points="-4,4 -4,-516.5 715.87,-516.5 715.87,4 -4,4"/>
<text text-anchor="middle" x="355.94" y="-495.2" font-family="Helvetica,sans-Serif" font-size="14.00">IndirectResolution Flowchart</text>
<!-- ScaleFactorIsOne -->
<g id="node1" class="node">
<title>ScaleFactorIsOne</title>
<polygon fill="limegreen" stroke="black" points="165.05,-342.25 34.59,-324.25 165.05,-306.25 295.5,-324.25 165.05,-342.25"/>
<text text-anchor="middle" x="165.05" y="-319.57" font-family="Helvetica,sans-Serif" font-size="14.00">ScaleFactor is 1?</text>
</g>
<!-- Scale -->
<g id="node12" class="node">
<title>Scale</title>
<path fill="lightskyblue" stroke="black" d="M467.05,-253C467.05,-253 437.05,-253 437.05,-253 431.05,-253 425.05,-247 425.05,-241 425.05,-241 425.05,-229 425.05,-229 425.05,-223 431.05,-217 437.05,-217 437.05,-217 467.05,-217 467.05,-217 473.05,-217 479.05,-223 479.05,-229 479.05,-229 479.05,-241 479.05,-241 479.05,-247 473.05,-253 467.05,-253"/>
<text text-anchor="middle" x="452.05" y="-230.32" font-family="Helvetica,sans-Serif" font-size="14.00">Scale</text>
</g>
<!-- ScaleFactorIsOne&#45;&gt;Scale -->
<g id="edge7" class="edge">
<title>ScaleFactorIsOne&#45;&gt;Scale</title>
<path fill="none" stroke="black" d="M212.99,-312.38C261.78,-300.76 339.56,-280.69 414.22,-253.38"/>
<polygon fill="black" stroke="black" points="415.16,-256.77 423.32,-250.01 412.72,-250.2 415.16,-256.77"/>
<text text-anchor="middle" x="371.42" y="-274.95" font-family="Helvetica,sans-Serif" font-size="14.00">No</text>
</g>
<!-- CalculateFlatBackground -->
<g id="node13" class="node">
<title>CalculateFlatBackground</title>
<path fill="lightskyblue" stroke="black" d="M431.3,-180C431.3,-180 266.8,-180 266.8,-180 260.8,-180 254.8,-174 254.8,-168 254.8,-168 254.8,-156 254.8,-156 254.8,-150 260.8,-144 266.8,-144 266.8,-144 431.3,-144 431.3,-144 437.3,-144 443.3,-150 443.3,-156 443.3,-156 443.3,-168 443.3,-168 443.3,-174 437.3,-180 431.3,-180"/>
<text text-anchor="middle" x="349.05" y="-157.32" font-family="Helvetica,sans-Serif" font-size="14.00">CalculateFlatBackground</text>
</g>
<!-- ScaleFactorIsOne&#45;&gt;CalculateFlatBackground -->
<g id="edge9" class="edge">
<title>ScaleFactorIsOne&#45;&gt;CalculateFlatBackground</title>
<path fill="none" stroke="black" d="M161.12,-306.44C156.83,-283.56 153.05,-242.55 173.55,-217 184.12,-203.82 216.04,-192.29 249.81,-183.31"/>
<polygon fill="black" stroke="black" points="250.53,-186.74 259.35,-180.86 248.79,-179.96 250.53,-186.74"/>
<text text-anchor="middle" x="185.3" y="-230.32" font-family="Helvetica,sans-Serif" font-size="14.00">Yes</text>
</g>
<!-- InputFiles -->
<g id="node2" class="node">
<title>InputFiles</title>
<ellipse fill="khaki" stroke="black" cx="58.05" cy="-469.25" rx="58.05" ry="18"/>
<text text-anchor="middle" x="58.05" y="-464.57" font-family="Helvetica,sans-Serif" font-size="14.00">InputFiles</text>
</g>
<!-- ISISIndirectEnergyTransfer -->
<g id="node11" class="node">
<title>ISISIndirectEnergyTransfer</title>
<path fill="lightskyblue" stroke="black" d="M424.67,-415.25C424.67,-415.25 247.42,-415.25 247.42,-415.25 241.42,-415.25 235.42,-409.25 235.42,-403.25 235.42,-403.25 235.42,-391.25 235.42,-391.25 235.42,-385.25 241.42,-379.25 247.42,-379.25 247.42,-379.25 424.67,-379.25 424.67,-379.25 430.67,-379.25 436.67,-385.25 436.67,-391.25 436.67,-391.25 436.67,-403.25 436.67,-403.25 436.67,-409.25 430.67,-415.25 424.67,-415.25"/>
<text text-anchor="middle" x="336.05" y="-392.57" font-family="Helvetica,sans-Serif" font-size="14.00">ISISIndirectEnergyTransfer</text>
</g>
<!-- InputFiles&#45;&gt;ISISIndirectEnergyTransfer -->
<g id="edge1" class="edge">
<title>InputFiles&#45;&gt;ISISIndirectEnergyTransfer</title>
<path fill="none" stroke="black" d="M102.01,-457.08C109.69,-455.13 117.6,-453.13 125.05,-451.25 168.14,-440.37 216.19,-428.3 255.54,-418.42"/>
<polygon fill="black" stroke="black" points="256.35,-421.83 265.19,-416 254.64,-415.04 256.35,-421.83"/>
</g>
<!-- Instrument -->
<g id="node3" class="node">
<title>Instrument</title>
<ellipse fill="khaki" stroke="black" cx="199.05" cy="-469.25" rx="65.41" ry="18"/>
<text text-anchor="middle" x="199.05" y="-464.57" font-family="Helvetica,sans-Serif" font-size="14.00">Instrument</text>
</g>
<!-- Instrument&#45;&gt;ISISIndirectEnergyTransfer -->
<g id="edge2" class="edge">
<title>Instrument&#45;&gt;ISISIndirectEnergyTransfer</title>
<path fill="none" stroke="black" d="M229.11,-452.89C247.58,-443.45 271.55,-431.21 292.11,-420.7"/>
<polygon fill="black" stroke="black" points="293.54,-423.9 300.85,-416.23 290.35,-417.67 293.54,-423.9"/>
</g>
<!-- Analyser -->
<g id="node4" class="node">
<title>Analyser</title>
<ellipse fill="khaki" stroke="black" cx="336.05" cy="-469.25" rx="53.84" ry="18"/>
<text text-anchor="middle" x="336.05" y="-464.57" font-family="Helvetica,sans-Serif" font-size="14.00">Analyser</text>
</g>
<!-- Analyser&#45;&gt;ISISIndirectEnergyTransfer -->
<g id="edge3" class="edge">
<title>Analyser&#45;&gt;ISISIndirectEnergyTransfer</title>
<path fill="none" stroke="black" d="M336.05,-450.95C336.05,-443.66 336.05,-434.98 336.05,-426.79"/>
<polygon fill="black" stroke="black" points="339.55,-426.87 336.05,-416.87 332.55,-426.87 339.55,-426.87"/>
</g>
<!-- Reflection -->
<g id="node5" class="node">
<title>Reflection</title>
<ellipse fill="khaki" stroke="black" cx="467.05" cy="-469.25" rx="59.1" ry="18"/>
<text text-anchor="middle" x="467.05" y="-464.57" font-family="Helvetica,sans-Serif" font-size="14.00">Reflection</text>
</g>
<!-- Reflection&#45;&gt;ISISIndirectEnergyTransfer -->
<g id="edge4" class="edge">
<title>Reflection&#45;&gt;ISISIndirectEnergyTransfer</title>
<path fill="none" stroke="black" d="M438.62,-453.06C421.06,-443.68 398.21,-431.46 378.53,-420.95"/>
<polygon fill="black" stroke="black" points="380.37,-417.97 369.9,-416.34 377.07,-424.14 380.37,-417.97"/>
</g>
<!-- DetectorRange -->
<g id="node6" class="node">
<title>DetectorRange</title>
<ellipse fill="khaki" stroke="black" cx="628.05" cy="-469.25" rx="83.83" ry="18"/>
<text text-anchor="middle" x="628.05" y="-464.57" font-family="Helvetica,sans-Serif" font-size="14.00">DetectorRange</text>
</g>
<!-- DetectorRange&#45;&gt;ISISIndirectEnergyTransfer -->
<g id="edge5" class="edge">
<title>DetectorRange&#45;&gt;ISISIndirectEnergyTransfer</title>
<path fill="none" stroke="black" d="M573.47,-455.17C530.27,-444.81 469.2,-430.17 419.82,-418.33"/>
<polygon fill="black" stroke="black" points="420.84,-414.98 410.3,-416.05 419.21,-421.78 420.84,-414.98"/>
</g>
<!-- BackgroundRange -->
<g id="node7" class="node">
<title>BackgroundRange</title>
<ellipse fill="khaki" stroke="black" cx="306.05" cy="-235" rx="100.66" ry="18"/>
<text text-anchor="middle" x="306.05" y="-230.32" font-family="Helvetica,sans-Serif" font-size="14.00">BackgroundRange</text>
</g>
<!-- BackgroundRange&#45;&gt;CalculateFlatBackground -->
<g id="edge12" class="edge">
<title>BackgroundRange&#45;&gt;CalculateFlatBackground</title>
<path fill="none" stroke="black" d="M316.46,-216.81C321.37,-208.7 327.34,-198.84 332.83,-189.78"/>
<polygon fill="black" stroke="black" points="335.76,-191.69 337.95,-181.32 329.78,-188.06 335.76,-191.69"/>
</g>
<!-- RebinParam -->
<g id="node8" class="node">
<title>RebinParam</title>
<ellipse fill="khaki" stroke="black" cx="168.05" cy="-162" rx="69.1" ry="18"/>
<text text-anchor="middle" x="168.05" y="-157.32" font-family="Helvetica,sans-Serif" font-size="14.00">RebinParam</text>
</g>
<!-- Rebin -->
<g id="node14" class="node">
<title>Rebin</title>
<path fill="lightskyblue" stroke="black" d="M194.55,-108C194.55,-108 163.55,-108 163.55,-108 157.55,-108 151.55,-102 151.55,-96 151.55,-96 151.55,-84 151.55,-84 151.55,-78 157.55,-72 163.55,-72 163.55,-72 194.55,-72 194.55,-72 200.55,-72 206.55,-78 206.55,-84 206.55,-84 206.55,-96 206.55,-96 206.55,-102 200.55,-108 194.55,-108"/>
<text text-anchor="middle" x="179.05" y="-85.33" font-family="Helvetica,sans-Serif" font-size="14.00">Rebin</text>
</g>
<!-- RebinParam&#45;&gt;Rebin -->
<g id="edge14" class="edge">
<title>RebinParam&#45;&gt;Rebin</title>
<path fill="none" stroke="black" d="M170.77,-143.7C171.93,-136.32 173.31,-127.52 174.61,-119.25"/>
<polygon fill="black" stroke="black" points="178.03,-120.02 176.12,-109.6 171.11,-118.93 178.03,-120.02"/>
</g>
<!-- ScaleFactor -->
<g id="node9" class="node">
<title>ScaleFactor</title>
<ellipse fill="khaki" stroke="black" cx="413.05" cy="-324.25" rx="66.47" ry="18"/>
<text text-anchor="middle" x="413.05" y="-319.57" font-family="Helvetica,sans-Serif" font-size="14.00">ScaleFactor</text>
</g>
<!-- ScaleFactor&#45;&gt;Scale -->
<g id="edge8" class="edge">
<title>ScaleFactor&#45;&gt;Scale</title>
<path fill="none" stroke="black" d="M420.75,-306.01C426.15,-293.94 433.47,-277.56 439.68,-263.67"/>
<polygon fill="black" stroke="black" points="442.86,-265.14 443.74,-254.58 436.46,-262.28 442.86,-265.14"/>
</g>
<!-- OutputWorkspace -->
<g id="node10" class="node">
<title>OutputWorkspace</title>
<ellipse fill="khaki" stroke="black" cx="179.05" cy="-18" rx="98.56" ry="18"/>
<text text-anchor="middle" x="179.05" y="-13.32" font-family="Helvetica,sans-Serif" font-size="14.00">OutputWorkspace</text>
</g>
<!-- ISISIndirectEnergyTransfer&#45;&gt;ScaleFactorIsOne -->
<g id="edge6" class="edge">
<title>ISISIndirectEnergyTransfer&#45;&gt;ScaleFactorIsOne</title>
<path fill="none" stroke="black" d="M294.22,-378.88C267.71,-367.88 233.55,-353.69 207.02,-342.68"/>
<polygon fill="black" stroke="black" points="208.5,-339.5 197.93,-338.9 205.82,-345.97 208.5,-339.5"/>
</g>
<!-- ISISIndirectEnergyTransfer&#45;&gt;CalculateFlatBackground -->
<g id="edge11" class="edge">
<title>ISISIndirectEnergyTransfer&#45;&gt;CalculateFlatBackground</title>
<path fill="none" stroke="black" d="M436.83,-379.81C456.9,-371.77 475.61,-359.87 488.05,-342.25 520.15,-296.77 519.49,-262.94 488.05,-217 478.51,-203.07 464.82,-192.73 449.69,-185.06"/>
<polygon fill="black" stroke="black" points="451.5,-182.04 440.96,-181.02 448.57,-188.39 451.5,-182.04"/>
</g>
<!-- Scale&#45;&gt;CalculateFlatBackground -->
<g id="edge10" class="edge">
<title>Scale&#45;&gt;CalculateFlatBackground</title>
<path fill="none" stroke="black" d="M426.85,-216.63C413.88,-207.69 397.87,-196.66 383.75,-186.92"/>
<polygon fill="black" stroke="black" points="385.81,-184.09 375.59,-181.29 381.83,-189.85 385.81,-184.09"/>
</g>
<!-- CalculateFlatBackground&#45;&gt;Rebin -->
<g id="edge13" class="edge">
<title>CalculateFlatBackground&#45;&gt;Rebin</title>
<path fill="none" stroke="black" d="M306.59,-143.52C279.19,-132.23 243.84,-117.68 217.31,-106.76"/>
<polygon fill="black" stroke="black" points="218.87,-103.61 208.29,-103.04 216.2,-110.08 218.87,-103.61"/>
</g>
<!-- Rebin&#45;&gt;OutputWorkspace -->
<g id="edge15" class="edge">
<title>Rebin&#45;&gt;OutputWorkspace</title>
<path fill="none" stroke="black" d="M179.05,-71.7C179.05,-64.41 179.05,-55.73 179.05,-47.54"/>
<polygon fill="black" stroke="black" points="182.55,-47.62 179.05,-37.62 175.55,-47.62 182.55,-47.62"/>
</g>
</g>
</svg>
