<?xml version="1.0" encoding="UTF-8" standalone="no"?>
<!DOCTYPE svg PUBLIC "-//W3C//DTD SVG 1.1//EN"
 "http://www.w3.org/Graphics/SVG/1.1/DTD/svg11.dtd">
<!-- Generated by graphviz version 7.0.5 (20221231.0122)
 -->
<!-- Title: IndirectTransmissionMonitor Pages: 1 -->
<svg width="1105pt" height="777pt"
 viewBox="0.00 0.00 1105.03 777.00" xmlns="http://www.w3.org/2000/svg" xmlns:xlink="http://www.w3.org/1999/xlink">
<g id="graph0" class="graph" transform="scale(1 1) rotate(0) translate(4 773)">
<title>IndirectTransmissionMonitor</title>
<polygon fill="white" stroke="none" points="-4,4 -4,-773 1101.03,-773 1101.03,4 -4,4"/>
<text text-anchor="middle" x="548.52" y="-753.8" font-family="Helvetica,sans-Serif" font-size="14.00">IndirectTransmissionMonitor Flowchart</text>
<!-- ExtractMonitor_HaveMonitor2_1 -->
<g id="node1" class="node">
<title>ExtractMonitor_HaveMonitor2_1</title>
<polygon fill="limegreen" stroke="black" points="535.39,-659 415.91,-641 535.39,-623 654.87,-641 535.39,-659"/>
<text text-anchor="middle" x="535.39" y="-637.3" font-family="Helvetica,sans-Serif" font-size="14.00">Have Monitor 2?</text>
</g>
<!-- ExtractMonitor_CropWorkspace_M2 -->
<g id="node10" class="node">
<title>ExtractMonitor_CropWorkspace_M2</title>
<path fill="lightskyblue" stroke="black" d="M621.89,-518C621.89,-518 520.89,-518 520.89,-518 514.89,-518 508.89,-512 508.89,-506 508.89,-506 508.89,-494 508.89,-494 508.89,-488 514.89,-482 520.89,-482 520.89,-482 621.89,-482 621.89,-482 627.89,-482 633.89,-488 633.89,-494 633.89,-494 633.89,-506 633.89,-506 633.89,-512 627.89,-518 621.89,-518"/>
<text text-anchor="middle" x="571.39" y="-496.3" font-family="Helvetica,sans-Serif" font-size="14.00">CropWorkspace</text>
</g>
<!-- ExtractMonitor_HaveMonitor2_1&#45;&gt;ExtractMonitor_CropWorkspace_M2 -->
<g id="edge5" class="edge">
<title>ExtractMonitor_HaveMonitor2_1&#45;&gt;ExtractMonitor_CropWorkspace_M2</title>
<path fill="none" stroke="black" d="M539.73,-623.23C545.75,-599.98 556.72,-557.63 564.03,-529.4"/>
<polygon fill="black" stroke="black" points="567.42,-530.29 566.54,-519.73 560.64,-528.53 567.42,-530.29"/>
<text text-anchor="middle" x="558.89" y="-593.8" font-family="Helvetica,sans-Serif" font-size="14.00">Yes</text>
</g>
<!-- ExtractMonitor_HaveMonitor2_2 -->
<g id="node2" class="node">
<title>ExtractMonitor_HaveMonitor2_2</title>
<polygon fill="limegreen" stroke="black" points="424.39,-572 304.91,-554 424.39,-536 543.87,-554 424.39,-572"/>
<text text-anchor="middle" x="424.39" y="-550.3" font-family="Helvetica,sans-Serif" font-size="14.00">Have Monitor 2?</text>
</g>
<!-- ExtractMonitor_ConvertUnitsMonitor2 -->
<g id="node12" class="node">
<title>ExtractMonitor_ConvertUnitsMonitor2</title>
<path fill="lightskyblue" stroke="black" d="M465.89,-464C465.89,-464 382.89,-464 382.89,-464 376.89,-464 370.89,-458 370.89,-452 370.89,-452 370.89,-440 370.89,-440 370.89,-434 376.89,-428 382.89,-428 382.89,-428 465.89,-428 465.89,-428 471.89,-428 477.89,-434 477.89,-440 477.89,-440 477.89,-452 477.89,-452 477.89,-458 471.89,-464 465.89,-464"/>
<text text-anchor="middle" x="424.39" y="-442.3" font-family="Helvetica,sans-Serif" font-size="14.00">ConvertUnits</text>
</g>
<!-- ExtractMonitor_HaveMonitor2_2&#45;&gt;ExtractMonitor_ConvertUnitsMonitor2 -->
<g id="edge14" class="edge">
<title>ExtractMonitor_HaveMonitor2_2&#45;&gt;ExtractMonitor_ConvertUnitsMonitor2</title>
<path fill="none" stroke="black" d="M424.39,-535.5C424.39,-519.21 424.39,-494.65 424.39,-475.53"/>
<polygon fill="black" stroke="black" points="427.89,-475.69 424.39,-465.69 420.89,-475.69 427.89,-475.69"/>
<text text-anchor="middle" x="435.89" y="-496.3" font-family="Helvetica,sans-Serif" font-size="14.00">Yes</text>
</g>
<!-- ExtractMonitor_End -->
<g id="node23" class="node">
<title>ExtractMonitor_End</title>
<ellipse fill="lightgrey" stroke="black" cx="354.39" cy="-18" rx="28.7" ry="18"/>
<text text-anchor="middle" x="354.39" y="-14.3" font-family="Helvetica,sans-Serif" font-size="14.00">End</text>
</g>
<!-- ExtractMonitor_HaveMonitor2_2&#45;&gt;ExtractMonitor_End -->
<g id="edge13" class="edge">
<title>ExtractMonitor_HaveMonitor2_2&#45;&gt;ExtractMonitor_End</title>
<path fill="none" stroke="black" d="M403.27,-538.86C378.98,-520.72 342.39,-486.79 342.39,-447 342.39,-447 342.39,-447 342.39,-90 342.39,-75.74 344.77,-60.09 347.41,-47.12"/>
<polygon fill="black" stroke="black" points="350.79,-48.08 349.53,-37.56 343.95,-46.57 350.79,-48.08"/>
<text text-anchor="middle" x="351.89" y="-261.3" font-family="Helvetica,sans-Serif" font-size="14.00">No</text>
</g>
<!-- ExtractMonitor_IsSameTimeRegime -->
<g id="node3" class="node">
<title>ExtractMonitor_IsSameTimeRegime</title>
<polygon fill="limegreen" stroke="black" points="143.39,-572 0.11,-554 143.39,-536 286.67,-554 143.39,-572"/>
<text text-anchor="middle" x="143.39" y="-550.3" font-family="Helvetica,sans-Serif" font-size="14.00">Is Same Start Time?</text>
</g>
<!-- ExtractMonitor_ConvertUnitsMonitor1 -->
<g id="node11" class="node">
<title>ExtractMonitor_ConvertUnitsMonitor1</title>
<path fill="lightskyblue" stroke="black" d="M266.89,-410C266.89,-410 183.89,-410 183.89,-410 177.89,-410 171.89,-404 171.89,-398 171.89,-398 171.89,-386 171.89,-386 171.89,-380 177.89,-374 183.89,-374 183.89,-374 266.89,-374 266.89,-374 272.89,-374 278.89,-380 278.89,-386 278.89,-386 278.89,-398 278.89,-398 278.89,-404 272.89,-410 266.89,-410"/>
<text text-anchor="middle" x="225.39" y="-388.3" font-family="Helvetica,sans-Serif" font-size="14.00">ConvertUnits</text>
</g>
<!-- ExtractMonitor_IsSameTimeRegime&#45;&gt;ExtractMonitor_ConvertUnitsMonitor1 -->
<g id="edge11" class="edge">
<title>ExtractMonitor_IsSameTimeRegime&#45;&gt;ExtractMonitor_ConvertUnitsMonitor1</title>
<path fill="none" stroke="black" d="M157.71,-537.51C172.53,-520.65 195.31,-492.31 208.39,-464 214.6,-450.56 218.68,-434.61 221.28,-421.23"/>
<polygon fill="black" stroke="black" points="224.67,-422.21 222.95,-411.76 217.77,-421 224.67,-422.21"/>
<text text-anchor="middle" x="209.89" y="-496.3" font-family="Helvetica,sans-Serif" font-size="14.00">Yes</text>
</g>
<!-- ExtractMonitor_UnwrapMonitor -->
<g id="node15" class="node">
<title>ExtractMonitor_UnwrapMonitor</title>
<path fill="lightskyblue" stroke="black" d="M187.89,-464C187.89,-464 88.89,-464 88.89,-464 82.89,-464 76.89,-458 76.89,-452 76.89,-452 76.89,-440 76.89,-440 76.89,-434 82.89,-428 88.89,-428 88.89,-428 187.89,-428 187.89,-428 193.89,-428 199.89,-434 199.89,-440 199.89,-440 199.89,-452 199.89,-452 199.89,-458 193.89,-464 187.89,-464"/>
<text text-anchor="middle" x="138.39" y="-442.3" font-family="Helvetica,sans-Serif" font-size="14.00">UnwrapMonitor</text>
</g>
<!-- ExtractMonitor_IsSameTimeRegime&#45;&gt;ExtractMonitor_UnwrapMonitor -->
<g id="edge6" class="edge">
<title>ExtractMonitor_IsSameTimeRegime&#45;&gt;ExtractMonitor_UnwrapMonitor</title>
<path fill="none" stroke="black" d="M142.59,-535.97C141.82,-519.76 140.66,-495.06 139.75,-475.79"/>
<polygon fill="black" stroke="black" points="143.25,-475.68 139.28,-465.85 136.25,-476.01 143.25,-475.68"/>
<text text-anchor="middle" x="151.89" y="-496.3" font-family="Helvetica,sans-Serif" font-size="14.00">No</text>
</g>
<!-- SampleWorkspace -->
<g id="node4" class="node">
<title>SampleWorkspace</title>
<ellipse fill="khaki" stroke="black" cx="672.39" cy="-728" rx="93.68" ry="18"/>
<text text-anchor="middle" x="672.39" y="-724.3" font-family="Helvetica,sans-Serif" font-size="14.00">SampleWorkspace</text>
</g>
<!-- GroupWorkspaces -->
<g id="node19" class="node">
<title>GroupWorkspaces</title>
<path fill="lightskyblue" stroke="black" d="M1064.39,-464C1064.39,-464 946.39,-464 946.39,-464 940.39,-464 934.39,-458 934.39,-452 934.39,-452 934.39,-440 934.39,-440 934.39,-434 940.39,-428 946.39,-428 946.39,-428 1064.39,-428 1064.39,-428 1070.39,-428 1076.39,-434 1076.39,-440 1076.39,-440 1076.39,-452 1076.39,-452 1076.39,-458 1070.39,-464 1064.39,-464"/>
<text text-anchor="middle" x="1005.39" y="-442.3" font-family="Helvetica,sans-Serif" font-size="14.00">GroupWorkspaces</text>
</g>
<!-- SampleWorkspace&#45;&gt;GroupWorkspaces -->
<g id="edge26" class="edge">
<title>SampleWorkspace&#45;&gt;GroupWorkspaces</title>
<path fill="none" stroke="black" d="M673.85,-709.75C676.53,-687.55 683.97,-648.76 704.39,-623 766.3,-544.86 873.13,-494.42 941.46,-468.38"/>
<polygon fill="black" stroke="black" points="942.52,-471.72 950.66,-464.94 940.07,-465.16 942.52,-471.72"/>
</g>
<!-- ExtractMonitor_Sample -->
<g id="node20" class="node">
<title>ExtractMonitor_Sample</title>
<polygon fill="lightseagreen" stroke="black" points="835.89,-659 712.89,-659 712.89,-623 835.89,-623 835.89,-659"/>
<text text-anchor="middle" x="774.39" y="-637.3" font-family="Helvetica,sans-Serif" font-size="14.00">Extract Monitor</text>
</g>
<!-- SampleWorkspace&#45;&gt;ExtractMonitor_Sample -->
<g id="edge21" class="edge">
<title>SampleWorkspace&#45;&gt;ExtractMonitor_Sample</title>
<path fill="none" stroke="black" d="M692.54,-710.21C707.57,-697.68 728.33,-680.39 745.17,-666.35"/>
<polygon fill="black" stroke="black" points="746.97,-669.4 752.42,-660.31 742.49,-664.02 746.97,-669.4"/>
</g>
<!-- CanWorkspace -->
<g id="node5" class="node">
<title>CanWorkspace</title>
<ellipse fill="khaki" stroke="black" cx="976.39" cy="-728" rx="77.19" ry="18"/>
<text text-anchor="middle" x="976.39" y="-724.3" font-family="Helvetica,sans-Serif" font-size="14.00">CanWorkspace</text>
</g>
<!-- CanWorkspace&#45;&gt;GroupWorkspaces -->
<g id="edge27" class="edge">
<title>CanWorkspace&#45;&gt;GroupWorkspaces</title>
<path fill="none" stroke="black" d="M979.21,-709.71C981.38,-695.99 984.34,-676.3 986.39,-659 994.12,-593.65 1000.29,-516.63 1003.33,-475.8"/>
<polygon fill="black" stroke="black" points="1006.82,-476.09 1004.06,-465.86 999.83,-475.57 1006.82,-476.09"/>
</g>
<!-- ExtractMonitor_Can -->
<g id="node21" class="node">
<title>ExtractMonitor_Can</title>
<polygon fill="lightseagreen" stroke="black" points="976.89,-659 853.89,-659 853.89,-623 976.89,-623 976.89,-659"/>
<text text-anchor="middle" x="915.39" y="-637.3" font-family="Helvetica,sans-Serif" font-size="14.00">Extract Monitor</text>
</g>
<!-- CanWorkspace&#45;&gt;ExtractMonitor_Can -->
<g id="edge22" class="edge">
<title>CanWorkspace&#45;&gt;ExtractMonitor_Can</title>
<path fill="none" stroke="black" d="M964.04,-709.8C955.58,-698.01 944.19,-682.14 934.56,-668.72"/>
<polygon fill="black" stroke="black" points="937.48,-666.78 928.81,-660.7 931.79,-670.86 937.48,-666.78"/>
</g>
<!-- OutputWorkspace -->
<g id="node6" class="node">
<title>OutputWorkspace</title>
<ellipse fill="khaki" stroke="black" cx="1005.39" cy="-338" rx="91.78" ry="18"/>
<text text-anchor="middle" x="1005.39" y="-334.3" font-family="Helvetica,sans-Serif" font-size="14.00">OutputWorkspace</text>
</g>
<!-- ExtractMonitor_CropWorkspace_D1 -->
<g id="node7" class="node">
<title>ExtractMonitor_CropWorkspace_D1</title>
<path fill="lightskyblue" stroke="black" d="M381.89,-659C381.89,-659 280.89,-659 280.89,-659 274.89,-659 268.89,-653 268.89,-647 268.89,-647 268.89,-635 268.89,-635 268.89,-629 274.89,-623 280.89,-623 280.89,-623 381.89,-623 381.89,-623 387.89,-623 393.89,-629 393.89,-635 393.89,-635 393.89,-647 393.89,-647 393.89,-653 387.89,-659 381.89,-659"/>
<text text-anchor="middle" x="331.39" y="-637.3" font-family="Helvetica,sans-Serif" font-size="14.00">CropWorkspace</text>
</g>
<!-- ExtractMonitor_CropWorkspace_D1&#45;&gt;ExtractMonitor_IsSameTimeRegime -->
<g id="edge3" class="edge">
<title>ExtractMonitor_CropWorkspace_D1&#45;&gt;ExtractMonitor_IsSameTimeRegime</title>
<path fill="none" stroke="black" d="M292.89,-622.59C261.14,-608.24 216.22,-587.93 183.92,-573.33"/>
<polygon fill="black" stroke="black" points="185.42,-570.16 174.87,-569.23 182.54,-576.54 185.42,-570.16"/>
</g>
<!-- ExtractMonitor_CropWorkspace_M1 -->
<g id="node8" class="node">
<title>ExtractMonitor_CropWorkspace_M1</title>
<path fill="lightskyblue" stroke="black" d="M238.89,-659C238.89,-659 137.89,-659 137.89,-659 131.89,-659 125.89,-653 125.89,-647 125.89,-647 125.89,-635 125.89,-635 125.89,-629 131.89,-623 137.89,-623 137.89,-623 238.89,-623 238.89,-623 244.89,-623 250.89,-629 250.89,-635 250.89,-635 250.89,-647 250.89,-647 250.89,-653 244.89,-659 238.89,-659"/>
<text text-anchor="middle" x="188.39" y="-637.3" font-family="Helvetica,sans-Serif" font-size="14.00">CropWorkspace</text>
</g>
<!-- ExtractMonitor_CropWorkspace_M1&#45;&gt;ExtractMonitor_HaveMonitor2_2 -->
<g id="edge12" class="edge">
<title>ExtractMonitor_CropWorkspace_M1&#45;&gt;ExtractMonitor_HaveMonitor2_2</title>
<path fill="none" stroke="black" d="M236.72,-622.59C278.59,-607.51 338.71,-585.86 379.53,-571.16"/>
<polygon fill="black" stroke="black" points="380.6,-574.49 388.82,-567.81 378.23,-567.91 380.6,-574.49"/>
</g>
<!-- ExtractMonitor_CropWorkspace_M1&#45;&gt;ExtractMonitor_IsSameTimeRegime -->
<g id="edge10" class="edge">
<title>ExtractMonitor_CropWorkspace_M1&#45;&gt;ExtractMonitor_IsSameTimeRegime</title>
<path fill="none" stroke="black" d="M179.28,-622.8C173,-610.93 164.53,-594.93 157.39,-581.45"/>
<polygon fill="black" stroke="black" points="160.5,-579.85 152.73,-572.65 154.32,-583.12 160.5,-579.85"/>
</g>
<!-- ExtractMonitor_CropWorkspace_M1_2 -->
<g id="node9" class="node">
<title>ExtractMonitor_CropWorkspace_M1_2</title>
<path fill="lightskyblue" stroke="black" d="M265.89,-196C265.89,-196 164.89,-196 164.89,-196 158.89,-196 152.89,-190 152.89,-184 152.89,-184 152.89,-172 152.89,-172 152.89,-166 158.89,-160 164.89,-160 164.89,-160 265.89,-160 265.89,-160 271.89,-160 277.89,-166 277.89,-172 277.89,-172 277.89,-184 277.89,-184 277.89,-190 271.89,-196 265.89,-196"/>
<text text-anchor="middle" x="215.39" y="-174.3" font-family="Helvetica,sans-Serif" font-size="14.00">CropWorkspace</text>
</g>
<!-- ExtractMonitor_Divide -->
<g id="node14" class="node">
<title>ExtractMonitor_Divide</title>
<path fill="lightskyblue" stroke="black" d="M418.39,-109C418.39,-109 382.39,-109 382.39,-109 376.39,-109 370.39,-103 370.39,-97 370.39,-97 370.39,-85 370.39,-85 370.39,-79 376.39,-73 382.39,-73 382.39,-73 418.39,-73 418.39,-73 424.39,-73 430.39,-79 430.39,-85 430.39,-85 430.39,-97 430.39,-97 430.39,-103 424.39,-109 418.39,-109"/>
<text text-anchor="middle" x="400.39" y="-87.3" font-family="Helvetica,sans-Serif" font-size="14.00">Divide</text>
</g>
<!-- ExtractMonitor_CropWorkspace_M1_2&#45;&gt;ExtractMonitor_Divide -->
<g id="edge19" class="edge">
<title>ExtractMonitor_CropWorkspace_M1_2&#45;&gt;ExtractMonitor_Divide</title>
<path fill="none" stroke="black" d="M239.75,-159.66C255.17,-149.22 275.83,-136.21 295.39,-127 315.83,-117.37 339.64,-109.21 359.42,-103.19"/>
<polygon fill="black" stroke="black" points="360.19,-106.61 368.79,-100.42 358.21,-99.9 360.19,-106.61"/>
<text text-anchor="middle" x="351.39" y="-130.8" font-family="Helvetica,sans-Serif" font-size="14.00">RHS (monitor 1)</text>
</g>
<!-- ExtractMonitor_RebinToWorkspace -->
<g id="node13" class="node">
<title>ExtractMonitor_RebinToWorkspace</title>
<path fill="lightskyblue" stroke="black" d="M504.39,-356C504.39,-356 382.39,-356 382.39,-356 376.39,-356 370.39,-350 370.39,-344 370.39,-344 370.39,-332 370.39,-332 370.39,-326 376.39,-320 382.39,-320 382.39,-320 504.39,-320 504.39,-320 510.39,-320 516.39,-326 516.39,-332 516.39,-332 516.39,-344 516.39,-344 516.39,-350 510.39,-356 504.39,-356"/>
<text text-anchor="middle" x="443.39" y="-334.3" font-family="Helvetica,sans-Serif" font-size="14.00">RebinToWorkspace</text>
</g>
<!-- ExtractMonitor_CropWorkspace_M2&#45;&gt;ExtractMonitor_RebinToWorkspace -->
<g id="edge17" class="edge">
<title>ExtractMonitor_CropWorkspace_M2&#45;&gt;ExtractMonitor_RebinToWorkspace</title>
<path fill="none" stroke="black" d="M575.02,-481.82C579.52,-455.44 583.79,-404.81 558.39,-374 550.17,-364.04 539.21,-356.85 527.31,-351.67"/>
<polygon fill="black" stroke="black" points="528.66,-348.44 518.07,-348.15 526.17,-354.98 528.66,-348.44"/>
<text text-anchor="middle" x="643.39" y="-442.3" font-family="Helvetica,sans-Serif" font-size="14.00">WorkspaceToRebin</text>
</g>
<!-- ExtractMonitor_ConvertUnitsMonitor1&#45;&gt;ExtractMonitor_CropWorkspace_M1_2 -->
<g id="edge15" class="edge">
<title>ExtractMonitor_ConvertUnitsMonitor1&#45;&gt;ExtractMonitor_CropWorkspace_M1_2</title>
<path fill="none" stroke="black" d="M224.57,-373.65C222.85,-337.22 218.85,-252.45 216.75,-207.76"/>
<polygon fill="black" stroke="black" points="220.24,-207.63 216.28,-197.8 213.25,-207.96 220.24,-207.63"/>
</g>
<!-- ExtractMonitor_ConvertUnitsMonitor2&#45;&gt;ExtractMonitor_RebinToWorkspace -->
<g id="edge16" class="edge">
<title>ExtractMonitor_ConvertUnitsMonitor2&#45;&gt;ExtractMonitor_RebinToWorkspace</title>
<path fill="none" stroke="black" d="M422.46,-427.79C421.34,-413.23 420.91,-391.94 425.39,-374 426.01,-371.52 426.83,-369.02 427.78,-366.56"/>
<polygon fill="black" stroke="black" points="430.92,-368.1 431.93,-357.55 424.57,-365.17 430.92,-368.1"/>
<text text-anchor="middle" x="491.89" y="-388.3" font-family="Helvetica,sans-Serif" font-size="14.00">WorkspaceToMatch</text>
</g>
<!-- ExtractMonitor_RebinToWorkspace&#45;&gt;ExtractMonitor_Divide -->
<g id="edge18" class="edge">
<title>ExtractMonitor_RebinToWorkspace&#45;&gt;ExtractMonitor_Divide</title>
<path fill="none" stroke="black" d="M440.36,-319.77C433.06,-278.13 414.37,-171.66 405.37,-120.41"/>
<polygon fill="black" stroke="black" points="408.85,-119.94 403.67,-110.7 401.95,-121.15 408.85,-119.94"/>
<text text-anchor="middle" x="479.39" y="-217.8" font-family="Helvetica,sans-Serif" font-size="14.00">LHS (monitor 2)</text>
</g>
<!-- ExtractMonitor_Divide&#45;&gt;ExtractMonitor_End -->
<g id="edge20" class="edge">
<title>ExtractMonitor_Divide&#45;&gt;ExtractMonitor_End</title>
<path fill="none" stroke="black" d="M389.25,-72.81C383.79,-64.37 377.09,-54.03 371.03,-44.68"/>
<polygon fill="black" stroke="black" points="373.99,-42.82 365.61,-36.33 368.11,-46.62 373.99,-42.82"/>
</g>
<!-- ExtractMonitor_RemoveBins -->
<g id="node16" class="node">
<title>ExtractMonitor_RemoveBins</title>
<path fill="lightskyblue" stroke="black" d="M183.39,-356C183.39,-356 105.39,-356 105.39,-356 99.39,-356 93.39,-350 93.39,-344 93.39,-344 93.39,-332 93.39,-332 93.39,-326 99.39,-320 105.39,-320 105.39,-320 183.39,-320 183.39,-320 189.39,-320 195.39,-326 195.39,-332 195.39,-332 195.39,-344 195.39,-344 195.39,-350 189.39,-356 183.39,-356"/>
<text text-anchor="middle" x="144.39" y="-334.3" font-family="Helvetica,sans-Serif" font-size="14.00">RemoveBins</text>
</g>
<!-- ExtractMonitor_UnwrapMonitor&#45;&gt;ExtractMonitor_RemoveBins -->
<g id="edge7" class="edge">
<title>ExtractMonitor_UnwrapMonitor&#45;&gt;ExtractMonitor_RemoveBins</title>
<path fill="none" stroke="black" d="M139.35,-427.97C140.27,-411.76 141.67,-387.06 142.76,-367.79"/>
<polygon fill="black" stroke="black" points="146.25,-368.03 143.32,-357.85 139.26,-367.64 146.25,-368.03"/>
</g>
<!-- ExtractMonitor_FFTSmooth -->
<g id="node17" class="node">
<title>ExtractMonitor_FFTSmooth</title>
<path fill="lightskyblue" stroke="black" d="M183.39,-283C183.39,-283 113.39,-283 113.39,-283 107.39,-283 101.39,-277 101.39,-271 101.39,-271 101.39,-259 101.39,-259 101.39,-253 107.39,-247 113.39,-247 113.39,-247 183.39,-247 183.39,-247 189.39,-247 195.39,-253 195.39,-259 195.39,-259 195.39,-271 195.39,-271 195.39,-277 189.39,-283 183.39,-283"/>
<text text-anchor="middle" x="148.39" y="-261.3" font-family="Helvetica,sans-Serif" font-size="14.00">FFTSmooth</text>
</g>
<!-- ExtractMonitor_RemoveBins&#45;&gt;ExtractMonitor_FFTSmooth -->
<g id="edge8" class="edge">
<title>ExtractMonitor_RemoveBins&#45;&gt;ExtractMonitor_FFTSmooth</title>
<path fill="none" stroke="black" d="M145.36,-319.81C145.79,-312.14 146.31,-302.89 146.8,-294.24"/>
<polygon fill="black" stroke="black" points="150.28,-294.72 147.34,-284.54 143.29,-294.33 150.28,-294.72"/>
</g>
<!-- ExtractMonitor_FFTSmooth&#45;&gt;ExtractMonitor_CropWorkspace_M1_2 -->
<g id="edge9" class="edge">
<title>ExtractMonitor_FFTSmooth&#45;&gt;ExtractMonitor_CropWorkspace_M1_2</title>
<path fill="none" stroke="black" d="M161.69,-246.83C169.21,-237.17 178.79,-224.88 187.39,-214 189.66,-211.13 192.03,-208.13 194.41,-205.16"/>
<polygon fill="black" stroke="black" points="196.94,-207.59 200.44,-197.6 191.47,-203.23 196.94,-207.59"/>
<text text-anchor="middle" x="198.89" y="-217.8" font-family="Helvetica,sans-Serif" font-size="14.00">Yes</text>
</g>
<!-- Divide -->
<g id="node18" class="node">
<title>Divide</title>
<path fill="lightskyblue" stroke="black" d="M1081.39,-572C1081.39,-572 1045.39,-572 1045.39,-572 1039.39,-572 1033.39,-566 1033.39,-560 1033.39,-560 1033.39,-548 1033.39,-548 1033.39,-542 1039.39,-536 1045.39,-536 1045.39,-536 1081.39,-536 1081.39,-536 1087.39,-536 1093.39,-542 1093.39,-548 1093.39,-548 1093.39,-560 1093.39,-560 1093.39,-566 1087.39,-572 1081.39,-572"/>
<text text-anchor="middle" x="1063.39" y="-550.3" font-family="Helvetica,sans-Serif" font-size="14.00">Divide</text>
</g>
<!-- Divide&#45;&gt;GroupWorkspaces -->
<g id="edge25" class="edge">
<title>Divide&#45;&gt;GroupWorkspaces</title>
<path fill="none" stroke="black" d="M1054.07,-535.97C1044.99,-519.38 1031.04,-493.88 1020.4,-474.43"/>
<polygon fill="black" stroke="black" points="1023.47,-472.76 1015.6,-465.67 1017.33,-476.12 1023.47,-472.76"/>
</g>
<!-- GroupWorkspaces&#45;&gt;OutputWorkspace -->
<g id="edge28" class="edge">
<title>GroupWorkspaces&#45;&gt;OutputWorkspace</title>
<path fill="none" stroke="black" d="M1005.39,-427.97C1005.39,-411.76 1005.39,-387.06 1005.39,-367.79"/>
<polygon fill="black" stroke="black" points="1008.89,-367.85 1005.39,-357.85 1001.89,-367.85 1008.89,-367.85"/>
</g>
<!-- ExtractMonitor_Sample&#45;&gt;Divide -->
<g id="edge23" class="edge">
<title>ExtractMonitor_Sample&#45;&gt;Divide</title>
<path fill="none" stroke="black" d="M833.57,-622.59C889.8,-606.06 972.87,-581.62 1022.22,-567.11"/>
<polygon fill="black" stroke="black" points="1023.06,-570.51 1031.66,-564.33 1021.08,-563.8 1023.06,-570.51"/>
<text text-anchor="middle" x="949.39" y="-593.8" font-family="Helvetica,sans-Serif" font-size="14.00">LHS</text>
</g>
<!-- ExtractMonitor_Can&#45;&gt;Divide -->
<g id="edge24" class="edge">
<title>ExtractMonitor_Can&#45;&gt;Divide</title>
<path fill="none" stroke="black" d="M945.7,-622.59C968.14,-609.7 998.95,-592.01 1023.41,-577.96"/>
<polygon fill="black" stroke="black" points="1024.88,-581.15 1031.81,-573.14 1021.39,-575.08 1024.88,-581.15"/>
<text text-anchor="middle" x="1012.39" y="-593.8" font-family="Helvetica,sans-Serif" font-size="14.00">RHS</text>
</g>
<!-- ExtractMonitor_Start -->
<g id="node22" class="node">
<title>ExtractMonitor_Start</title>
<ellipse fill="lightgrey" stroke="black" cx="331.39" cy="-728" rx="79.89" ry="18"/>
<text text-anchor="middle" x="331.39" y="-724.3" font-family="Helvetica,sans-Serif" font-size="14.00">Extract Monitor</text>
</g>
<!-- ExtractMonitor_Start&#45;&gt;ExtractMonitor_HaveMonitor2_1 -->
<g id="edge4" class="edge">
<title>ExtractMonitor_Start&#45;&gt;ExtractMonitor_HaveMonitor2_1</title>
<path fill="none" stroke="black" d="M368.33,-711.61C403.86,-696.8 457.47,-674.47 494.32,-659.11"/>
<polygon fill="black" stroke="black" points="495.43,-662.44 503.32,-655.36 492.74,-655.98 495.43,-662.44"/>
<text text-anchor="middle" x="479.89" y="-680.8" font-family="Helvetica,sans-Serif" font-size="14.00">Monitor 2</text>
</g>
<!-- ExtractMonitor_Start&#45;&gt;ExtractMonitor_CropWorkspace_D1 -->
<g id="edge2" class="edge">
<title>ExtractMonitor_Start&#45;&gt;ExtractMonitor_CropWorkspace_D1</title>
<path fill="none" stroke="black" d="M331.39,-709.8C331.39,-698.58 331.39,-683.67 331.39,-670.69"/>
<polygon fill="black" stroke="black" points="334.89,-670.98 331.39,-660.98 327.89,-670.98 334.89,-670.98"/>
<text text-anchor="middle" x="367.89" y="-680.8" font-family="Helvetica,sans-Serif" font-size="14.00">Detector 1</text>
</g>
<!-- ExtractMonitor_Start&#45;&gt;ExtractMonitor_CropWorkspace_M1 -->
<g id="edge1" class="edge">
<title>ExtractMonitor_Start&#45;&gt;ExtractMonitor_CropWorkspace_M1</title>
<path fill="none" stroke="black" d="M297.26,-711.45C285.38,-705.71 272.11,-698.91 260.39,-692 247.04,-684.14 232.93,-674.62 220.76,-666.01"/>
<polygon fill="black" stroke="black" points="222.87,-663.22 212.71,-660.23 218.79,-668.9 222.87,-663.22"/>
<text text-anchor="middle" x="293.89" y="-680.8" font-family="Helvetica,sans-Serif" font-size="14.00">Monitor 1</text>
</g>
</g>
</svg>
