<?xml version="1.0" encoding="UTF-8" standalone="no"?>
<!DOCTYPE svg PUBLIC "-//W3C//DTD SVG 1.1//EN"
 "http://www.w3.org/Graphics/SVG/1.1/DTD/svg11.dtd">
<!-- Generated by graphviz version 11.0.0 (20240519.1550)
 -->
<!-- Title: IqtFitMultiple Pages: 1 -->
<svg width="1779pt" height="986pt"
 viewBox="0.00 0.00 1779.19 986.00" xmlns="http://www.w3.org/2000/svg" xmlns:xlink="http://www.w3.org/1999/xlink">
<g id="graph0" class="graph" transform="scale(1 1) rotate(0) translate(4 982)">
<title>IqtFitMultiple</title>
<polygon fill="white" stroke="none" points="-4,4 -4,-982 1775.19,-982 1775.19,4 -4,4"/>
<text text-anchor="middle" x="885.6" y="-960.7" font-family="Helvetica,sans-Serif" font-size="14.00">IqtFitMultiple Flowchart</text>
<!-- InputWorkspace -->
<g id="node1" class="node">
<title>InputWorkspace</title>
<ellipse fill="khaki" stroke="black" cx="219.19" cy="-934.75" rx="90.14" ry="18"/>
<text text-anchor="middle" x="219.19" y="-930.08" font-family="Helvetica,sans-Serif" font-size="14.00">InputWorkspace</text>
</g>
<!-- CropWorkspace -->
<g id="node17" class="node">
<title>CropWorkspace</title>
<path fill="lightskyblue" stroke="black" d="M554.19,-879.75C554.19,-879.75 454.19,-879.75 454.19,-879.75 448.19,-879.75 442.19,-873.75 442.19,-867.75 442.19,-867.75 442.19,-855.75 442.19,-855.75 442.19,-849.75 448.19,-843.75 454.19,-843.75 454.19,-843.75 554.19,-843.75 554.19,-843.75 560.19,-843.75 566.19,-849.75 566.19,-855.75 566.19,-855.75 566.19,-867.75 566.19,-867.75 566.19,-873.75 560.19,-879.75 554.19,-879.75"/>
<text text-anchor="middle" x="504.19" y="-857.08" font-family="Helvetica,sans-Serif" font-size="14.00">CropWorkspace</text>
</g>
<!-- InputWorkspace&#45;&gt;CropWorkspace -->
<g id="edge1" class="edge">
<title>InputWorkspace&#45;&gt;CropWorkspace</title>
<path fill="none" stroke="black" d="M274.14,-920.06C318.64,-908.98 381.72,-893.26 430.58,-881.09"/>
<polygon fill="black" stroke="black" points="431.4,-884.49 440.26,-878.68 429.71,-877.7 431.4,-884.49"/>
</g>
<!-- ExtractQENSMembers -->
<g id="node24" class="node">
<title>ExtractQENSMembers</title>
<path fill="lightskyblue" stroke="black" d="M307.07,-198.25C307.07,-198.25 161.32,-198.25 161.32,-198.25 155.32,-198.25 149.32,-192.25 149.32,-186.25 149.32,-186.25 149.32,-174.25 149.32,-174.25 149.32,-168.25 155.32,-162.25 161.32,-162.25 161.32,-162.25 307.07,-162.25 307.07,-162.25 313.07,-162.25 319.07,-168.25 319.07,-174.25 319.07,-174.25 319.07,-186.25 319.07,-186.25 319.07,-192.25 313.07,-198.25 307.07,-198.25"/>
<text text-anchor="middle" x="234.19" y="-175.57" font-family="Helvetica,sans-Serif" font-size="14.00">ExtractQENSMembers</text>
</g>
<!-- InputWorkspace&#45;&gt;ExtractQENSMembers -->
<g id="edge29" class="edge">
<title>InputWorkspace&#45;&gt;ExtractQENSMembers</title>
<path fill="none" stroke="black" d="M224.95,-916.46C229.18,-902.21 234.19,-881.4 234.19,-862.75 234.19,-862.75 234.19,-862.75 234.19,-268.5 234.19,-249 234.19,-227.04 234.19,-210.04"/>
<polygon fill="black" stroke="black" points="237.69,-210.15 234.19,-200.15 230.69,-210.15 237.69,-210.15"/>
</g>
<!-- InputWorkspace2 -->
<g id="node2" class="node">
<title>InputWorkspace2</title>
<ellipse fill="khaki" stroke="black" cx="1355.19" cy="-537.25" rx="90.14" ry="18"/>
<text text-anchor="middle" x="1355.19" y="-532.58" font-family="Helvetica,sans-Serif" font-size="14.00">InputWorkspace</text>
</g>
<!-- CopyLogs -->
<g id="node22" class="node">
<title>CopyLogs</title>
<path fill="lightskyblue" stroke="black" d="M894.94,-198.25C894.94,-198.25 835.44,-198.25 835.44,-198.25 829.44,-198.25 823.44,-192.25 823.44,-186.25 823.44,-186.25 823.44,-174.25 823.44,-174.25 823.44,-168.25 829.44,-162.25 835.44,-162.25 835.44,-162.25 894.94,-162.25 894.94,-162.25 900.94,-162.25 906.94,-168.25 906.94,-174.25 906.94,-174.25 906.94,-186.25 906.94,-186.25 906.94,-192.25 900.94,-198.25 894.94,-198.25"/>
<text text-anchor="middle" x="865.19" y="-175.57" font-family="Helvetica,sans-Serif" font-size="14.00">CopyLogs</text>
</g>
<!-- InputWorkspace2&#45;&gt;CopyLogs -->
<g id="edge18" class="edge">
<title>InputWorkspace2&#45;&gt;CopyLogs</title>
<path fill="none" stroke="black" d="M1350.13,-519.04C1345.44,-501.56 1339.19,-473.64 1339.19,-449 1339.19,-449 1339.19,-449 1339.19,-268.5 1339.19,-226.15 1042.7,-196.21 918.7,-185.54"/>
<polygon fill="black" stroke="black" points="919.03,-182.06 908.76,-184.7 918.43,-189.03 919.03,-182.06"/>
<text text-anchor="middle" x="1555.19" y="-354.07" font-family="Helvetica,sans-Serif" font-size="14.00">Copy SampleLogs from InputWorkspace to OutputWorkspaces</text>
</g>
<!-- CopyLogs2 -->
<g id="node23" class="node">
<title>CopyLogs2</title>
<path fill="lightskyblue" stroke="black" d="M371.32,-466C371.32,-466 311.07,-466 311.07,-466 305.07,-466 299.07,-460 299.07,-454 299.07,-454 299.07,-442 299.07,-442 299.07,-436 305.07,-430 311.07,-430 311.07,-430 371.32,-430 371.32,-430 377.32,-430 383.32,-436 383.32,-442 383.32,-442 383.32,-454 383.32,-454 383.32,-460 377.32,-466 371.32,-466"/>
<text text-anchor="middle" x="341.19" y="-443.32" font-family="Helvetica,sans-Serif" font-size="14.00">Copy logs</text>
</g>
<!-- InputWorkspace2&#45;&gt;CopyLogs2 -->
<g id="edge20" class="edge">
<title>InputWorkspace2&#45;&gt;CopyLogs2</title>
<path fill="none" stroke="black" d="M1283.95,-525.95C1196.91,-513.8 1045.07,-493.99 914.19,-484 801.85,-475.42 523.39,-485.91 395.02,-466.07"/>
<polygon fill="black" stroke="black" points="395.75,-462.65 385.31,-464.45 394.59,-469.55 395.75,-462.65"/>
</g>
<!-- Function -->
<g id="node3" class="node">
<title>Function</title>
<ellipse fill="khaki" stroke="black" cx="647.19" cy="-699.5" rx="52.79" ry="18"/>
<text text-anchor="middle" x="647.19" y="-694.83" font-family="Helvetica,sans-Serif" font-size="14.00">Function</text>
</g>
<!-- Fit -->
<g id="node18" class="node">
<title>Fit</title>
<path fill="lightskyblue" stroke="black" d="M548.19,-644.5C548.19,-644.5 518.19,-644.5 518.19,-644.5 512.19,-644.5 506.19,-638.5 506.19,-632.5 506.19,-632.5 506.19,-620.5 506.19,-620.5 506.19,-614.5 512.19,-608.5 518.19,-608.5 518.19,-608.5 548.19,-608.5 548.19,-608.5 554.19,-608.5 560.19,-614.5 560.19,-620.5 560.19,-620.5 560.19,-632.5 560.19,-632.5 560.19,-638.5 554.19,-644.5 548.19,-644.5"/>
<text text-anchor="middle" x="533.19" y="-621.83" font-family="Helvetica,sans-Serif" font-size="14.00">Fit</text>
</g>
<!-- Function&#45;&gt;Fit -->
<g id="edge9" class="edge">
<title>Function&#45;&gt;Fit</title>
<path fill="none" stroke="black" d="M622.74,-683.27C607.42,-673.73 587.4,-661.26 570.17,-650.53"/>
<polygon fill="black" stroke="black" points="572.03,-647.56 561.69,-645.25 568.33,-653.5 572.03,-647.56"/>
</g>
<!-- StartX -->
<g id="node4" class="node">
<title>StartX</title>
<ellipse fill="khaki" stroke="black" cx="619.19" cy="-934.75" rx="41.74" ry="18"/>
<text text-anchor="middle" x="619.19" y="-930.08" font-family="Helvetica,sans-Serif" font-size="14.00">StartX</text>
</g>
<!-- StartX&#45;&gt;CropWorkspace -->
<g id="edge2" class="edge">
<title>StartX&#45;&gt;CropWorkspace</title>
<path fill="none" stroke="black" d="M595.92,-919.38C580.41,-909.81 559.69,-897.01 541.86,-886.01"/>
<polygon fill="black" stroke="black" points="543.94,-883.18 533.59,-880.9 540.26,-889.13 543.94,-883.18"/>
</g>
<!-- EndX -->
<g id="node5" class="node">
<title>EndX</title>
<ellipse fill="khaki" stroke="black" cx="716.19" cy="-934.75" rx="37" ry="18"/>
<text text-anchor="middle" x="716.19" y="-930.08" font-family="Helvetica,sans-Serif" font-size="14.00">EndX</text>
</g>
<!-- EndX&#45;&gt;CropWorkspace -->
<g id="edge3" class="edge">
<title>EndX&#45;&gt;CropWorkspace</title>
<path fill="none" stroke="black" d="M687.55,-922.96C681.81,-920.86 675.82,-918.71 670.19,-916.75 637.56,-905.42 601.07,-893.47 570.63,-883.7"/>
<polygon fill="black" stroke="black" points="571.74,-880.38 561.15,-880.67 569.61,-887.05 571.74,-880.38"/>
</g>
<!-- SpecMin -->
<g id="node6" class="node">
<title>SpecMin</title>
<ellipse fill="khaki" stroke="black" cx="379.19" cy="-934.75" rx="52.26" ry="18"/>
<text text-anchor="middle" x="379.19" y="-930.08" font-family="Helvetica,sans-Serif" font-size="14.00">SpecMin</text>
</g>
<!-- SpecMin&#45;&gt;CropWorkspace -->
<g id="edge4" class="edge">
<title>SpecMin&#45;&gt;CropWorkspace</title>
<path fill="none" stroke="black" d="M405.4,-918.87C422.27,-909.28 444.54,-896.64 463.66,-885.77"/>
<polygon fill="black" stroke="black" points="465.34,-888.85 472.3,-880.86 461.88,-882.76 465.34,-888.85"/>
</g>
<!-- SpecMax -->
<g id="node7" class="node">
<title>SpecMax</title>
<ellipse fill="khaki" stroke="black" cx="504.19" cy="-934.75" rx="54.89" ry="18"/>
<text text-anchor="middle" x="504.19" y="-930.08" font-family="Helvetica,sans-Serif" font-size="14.00">SpecMax</text>
</g>
<!-- SpecMax&#45;&gt;CropWorkspace -->
<g id="edge5" class="edge">
<title>SpecMax&#45;&gt;CropWorkspace</title>
<path fill="none" stroke="black" d="M504.19,-916.56C504.19,-908.98 504.19,-899.85 504.19,-891.29"/>
<polygon fill="black" stroke="black" points="507.69,-891.29 504.19,-881.29 500.69,-891.29 507.69,-891.29"/>
</g>
<!-- Minimizer -->
<g id="node8" class="node">
<title>Minimizer</title>
<ellipse fill="khaki" stroke="black" cx="776.19" cy="-699.5" rx="58.57" ry="18"/>
<text text-anchor="middle" x="776.19" y="-694.83" font-family="Helvetica,sans-Serif" font-size="14.00">Minimizer</text>
</g>
<!-- Minimizer&#45;&gt;Fit -->
<g id="edge10" class="edge">
<title>Minimizer&#45;&gt;Fit</title>
<path fill="none" stroke="black" d="M734.7,-686.38C688.93,-673 615.91,-651.67 571.47,-638.68"/>
<polygon fill="black" stroke="black" points="572.59,-635.36 562.01,-635.92 570.62,-642.08 572.59,-635.36"/>
</g>
<!-- MaxIterations -->
<g id="node9" class="node">
<title>MaxIterations</title>
<ellipse fill="khaki" stroke="black" cx="340.19" cy="-699.5" rx="77.51" ry="18"/>
<text text-anchor="middle" x="340.19" y="-694.83" font-family="Helvetica,sans-Serif" font-size="14.00">MaxIterations</text>
</g>
<!-- MaxIterations&#45;&gt;Fit -->
<g id="edge11" class="edge">
<title>MaxIterations&#45;&gt;Fit</title>
<path fill="none" stroke="black" d="M380.18,-683.79C413.91,-671.38 461.86,-653.74 495.05,-641.53"/>
<polygon fill="black" stroke="black" points="496.1,-644.87 504.28,-638.14 493.69,-638.3 496.1,-644.87"/>
</g>
<!-- ParameterTable -->
<g id="node10" class="node">
<title>ParameterTable</title>
<ellipse fill="khaki" stroke="black" cx="414.19" cy="-537.25" rx="85.93" ry="18"/>
<text text-anchor="middle" x="414.19" y="-532.58" font-family="Helvetica,sans-Serif" font-size="14.00">ParameterTable</text>
</g>
<!-- TransposeFitParametersTable -->
<g id="node26" class="node">
<title>TransposeFitParametersTable</title>
<polygon fill="lightseagreen" stroke="black" points="775.32,-466 559.07,-466 559.07,-430 775.32,-430 775.32,-466"/>
<text text-anchor="middle" x="667.19" y="-443.32" font-family="Helvetica,sans-Serif" font-size="14.00">TransposeFitParametersTable</text>
</g>
<!-- ParameterTable&#45;&gt;TransposeFitParametersTable -->
<g id="edge14" class="edge">
<title>ParameterTable&#45;&gt;TransposeFitParametersTable</title>
<path fill="none" stroke="black" d="M457.4,-521.35C498.29,-507.25 560.1,-485.93 606.04,-470.09"/>
<polygon fill="black" stroke="black" points="607.03,-473.45 615.34,-466.88 604.74,-466.83 607.03,-473.45"/>
<text text-anchor="middle" x="736.44" y="-487.95" font-family="Helvetica,sans-Serif" font-size="14.00">Makes output consistent with PlotPeakByLogValue</text>
</g>
<!-- ParameterNames -->
<g id="node11" class="node">
<title>ParameterNames</title>
<ellipse fill="khaki" stroke="black" cx="888.19" cy="-448" rx="94.88" ry="18"/>
<text text-anchor="middle" x="888.19" y="-443.32" font-family="Helvetica,sans-Serif" font-size="14.00">ParameterNames</text>
</g>
<!-- ConvertParametersToWorkspace -->
<g id="node27" class="node">
<title>ConvertParametersToWorkspace</title>
<polygon fill="lightseagreen" stroke="black" points="907.94,-376.75 668.44,-376.75 668.44,-340.75 907.94,-340.75 907.94,-376.75"/>
<text text-anchor="middle" x="788.19" y="-354.07" font-family="Helvetica,sans-Serif" font-size="14.00">ConvertParametersToWorkspace</text>
</g>
<!-- ParameterNames&#45;&gt;ConvertParametersToWorkspace -->
<g id="edge16" class="edge">
<title>ParameterNames&#45;&gt;ConvertParametersToWorkspace</title>
<path fill="none" stroke="black" d="M819.72,-435.2C807.67,-430.02 796.57,-422.61 788.94,-412 784.05,-405.19 782.59,-396.49 782.73,-388.14"/>
<polygon fill="black" stroke="black" points="786.2,-388.61 783.65,-378.33 779.23,-387.96 786.2,-388.61"/>
<text text-anchor="middle" x="1056.32" y="-398.7" font-family="Helvetica,sans-Serif" font-size="14.00">Convert parameter of interest into MatrixWorkspace containing paramNames</text>
</g>
<!-- FitGroup -->
<g id="node12" class="node">
<title>FitGroup</title>
<ellipse fill="khaki" stroke="black" cx="570.19" cy="-537.25" rx="51.73" ry="18"/>
<text text-anchor="middle" x="570.19" y="-532.58" font-family="Helvetica,sans-Serif" font-size="14.00">FitGroup</text>
</g>
<!-- FitGroup&#45;&gt;CopyLogs2 -->
<g id="edge21" class="edge">
<title>FitGroup&#45;&gt;CopyLogs2</title>
<path fill="none" stroke="black" d="M536.4,-523.38C499.01,-509.13 438.26,-485.98 394.45,-469.29"/>
<polygon fill="black" stroke="black" points="395.71,-466.03 385.12,-465.74 393.22,-472.57 395.71,-466.03"/>
</g>
<!-- FitGroup2 -->
<g id="node13" class="node">
<title>FitGroup2</title>
<ellipse fill="khaki" stroke="black" cx="320.19" cy="-269.5" rx="51.73" ry="18"/>
<text text-anchor="middle" x="320.19" y="-264.82" font-family="Helvetica,sans-Serif" font-size="14.00">FitGroup</text>
</g>
<!-- FitGroup2&#45;&gt;ExtractQENSMembers -->
<g id="edge30" class="edge">
<title>FitGroup2&#45;&gt;ExtractQENSMembers</title>
<path fill="none" stroke="black" d="M304.02,-252.09C291.41,-239.3 273.68,-221.31 259.24,-206.66"/>
<polygon fill="black" stroke="black" points="261.75,-204.23 252.24,-199.56 256.77,-209.14 261.75,-204.23"/>
</g>
<!-- SampleLogs -->
<g id="node14" class="node">
<title>SampleLogs</title>
<ellipse fill="khaki" stroke="black" cx="471.19" cy="-448" rx="70.15" ry="18"/>
<text text-anchor="middle" x="471.19" y="-443.32" font-family="Helvetica,sans-Serif" font-size="14.00">SampleLogs</text>
</g>
<!-- AddSampleLogMultiple -->
<g id="node20" class="node">
<title>AddSampleLogMultiple</title>
<path fill="lightskyblue" stroke="black" d="M562.32,-125.25C562.32,-125.25 412.07,-125.25 412.07,-125.25 406.07,-125.25 400.07,-119.25 400.07,-113.25 400.07,-113.25 400.07,-101.25 400.07,-101.25 400.07,-95.25 406.07,-89.25 412.07,-89.25 412.07,-89.25 562.32,-89.25 562.32,-89.25 568.32,-89.25 574.32,-95.25 574.32,-101.25 574.32,-101.25 574.32,-113.25 574.32,-113.25 574.32,-119.25 568.32,-125.25 562.32,-125.25"/>
<text text-anchor="middle" x="487.19" y="-102.58" font-family="Helvetica,sans-Serif" font-size="14.00">AddSampleLogMultiple</text>
</g>
<!-- SampleLogs&#45;&gt;AddSampleLogMultiple -->
<g id="edge25" class="edge">
<title>SampleLogs&#45;&gt;AddSampleLogMultiple</title>
<path fill="none" stroke="black" d="M471.19,-429.62C471.19,-412.01 471.19,-383.99 471.19,-359.75 471.19,-359.75 471.19,-359.75 471.19,-179.25 471.19,-164.93 474.33,-149.38 477.82,-136.49"/>
<polygon fill="black" stroke="black" points="481.16,-137.55 480.62,-126.96 474.44,-135.57 481.16,-137.55"/>
<text text-anchor="middle" x="611.82" y="-264.82" font-family="Helvetica,sans-Serif" font-size="14.00">Additional SampleLogs based on Fit data</text>
</g>
<!-- AddSampleLogMultiple2 -->
<g id="node21" class="node">
<title>AddSampleLogMultiple2</title>
<path fill="lightskyblue" stroke="black" d="M424.32,-376.75C424.32,-376.75 274.07,-376.75 274.07,-376.75 268.07,-376.75 262.07,-370.75 262.07,-364.75 262.07,-364.75 262.07,-352.75 262.07,-352.75 262.07,-346.75 268.07,-340.75 274.07,-340.75 274.07,-340.75 424.32,-340.75 424.32,-340.75 430.32,-340.75 436.32,-346.75 436.32,-352.75 436.32,-352.75 436.32,-364.75 436.32,-364.75 436.32,-370.75 430.32,-376.75 424.32,-376.75"/>
<text text-anchor="middle" x="349.19" y="-354.07" font-family="Helvetica,sans-Serif" font-size="14.00">AddSampleLogMultiple</text>
</g>
<!-- SampleLogs&#45;&gt;AddSampleLogMultiple2 -->
<g id="edge24" class="edge">
<title>SampleLogs&#45;&gt;AddSampleLogMultiple2</title>
<path fill="none" stroke="black" d="M448.25,-430.59C429.69,-417.32 403.31,-398.45 382.44,-383.53"/>
<polygon fill="black" stroke="black" points="384.69,-380.83 374.52,-377.86 380.62,-386.53 384.69,-380.83"/>
</g>
<!-- ResultWorkspace -->
<g id="node15" class="node">
<title>ResultWorkspace</title>
<ellipse fill="khaki" stroke="black" cx="865.19" cy="-269.5" rx="94.35" ry="18"/>
<text text-anchor="middle" x="865.19" y="-264.82" font-family="Helvetica,sans-Serif" font-size="14.00">ResultWorkspace</text>
</g>
<!-- ResultWorkspace&#45;&gt;CopyLogs -->
<g id="edge19" class="edge">
<title>ResultWorkspace&#45;&gt;CopyLogs</title>
<path fill="none" stroke="black" d="M865.19,-251.26C865.19,-239.43 865.19,-223.45 865.19,-209.75"/>
<polygon fill="black" stroke="black" points="868.69,-209.97 865.19,-199.97 861.69,-209.97 868.69,-209.97"/>
</g>
<!-- ResultWorkspace2 -->
<g id="node16" class="node">
<title>ResultWorkspace2</title>
<ellipse fill="khaki" stroke="black" cx="487.19" cy="-18" rx="94.35" ry="18"/>
<text text-anchor="middle" x="487.19" y="-13.32" font-family="Helvetica,sans-Serif" font-size="14.00">ResultWorkspace</text>
</g>
<!-- ConvertToHistogram -->
<g id="node19" class="node">
<title>ConvertToHistogram</title>
<path fill="lightskyblue" stroke="black" d="M571.69,-806.75C571.69,-806.75 438.69,-806.75 438.69,-806.75 432.69,-806.75 426.69,-800.75 426.69,-794.75 426.69,-794.75 426.69,-782.75 426.69,-782.75 426.69,-776.75 432.69,-770.75 438.69,-770.75 438.69,-770.75 571.69,-770.75 571.69,-770.75 577.69,-770.75 583.69,-776.75 583.69,-782.75 583.69,-782.75 583.69,-794.75 583.69,-794.75 583.69,-800.75 577.69,-806.75 571.69,-806.75"/>
<text text-anchor="middle" x="505.19" y="-784.08" font-family="Helvetica,sans-Serif" font-size="14.00">ConvertToHistogram</text>
</g>
<!-- CropWorkspace&#45;&gt;ConvertToHistogram -->
<g id="edge6" class="edge">
<title>CropWorkspace&#45;&gt;ConvertToHistogram</title>
<path fill="none" stroke="black" d="M504.43,-843.56C504.54,-835.98 504.67,-826.85 504.79,-818.29"/>
<polygon fill="black" stroke="black" points="508.29,-818.34 504.93,-808.29 501.29,-818.24 508.29,-818.34"/>
</g>
<!-- Fit&#45;&gt;ParameterTable -->
<g id="edge12" class="edge">
<title>Fit&#45;&gt;ParameterTable</title>
<path fill="none" stroke="black" d="M509.4,-608.05C491.33,-594.8 466.29,-576.45 446.42,-561.88"/>
<polygon fill="black" stroke="black" points="448.49,-559.06 438.36,-555.97 444.35,-564.7 448.49,-559.06"/>
</g>
<!-- Fit&#45;&gt;FitGroup -->
<g id="edge13" class="edge">
<title>Fit&#45;&gt;FitGroup</title>
<path fill="none" stroke="black" d="M540.5,-608.26C545.62,-596.19 552.57,-579.81 558.46,-565.92"/>
<polygon fill="black" stroke="black" points="561.62,-567.42 562.31,-556.85 555.18,-564.69 561.62,-567.42"/>
<text text-anchor="middle" x="765.32" y="-577.2" font-family="Helvetica,sans-Serif" font-size="14.00">GroupWorkspace containing fitting results from each spectra</text>
</g>
<!-- ConvertToElasticQ -->
<g id="node25" class="node">
<title>ConvertToElasticQ</title>
<polygon fill="lightseagreen" stroke="black" points="576.82,-717.5 435.57,-717.5 435.57,-681.5 576.82,-681.5 576.82,-717.5"/>
<text text-anchor="middle" x="506.19" y="-694.83" font-family="Helvetica,sans-Serif" font-size="14.00">ConvertToElasticQ</text>
</g>
<!-- ConvertToHistogram&#45;&gt;ConvertToElasticQ -->
<g id="edge7" class="edge">
<title>ConvertToHistogram&#45;&gt;ConvertToElasticQ</title>
<path fill="none" stroke="black" d="M505.39,-770.51C505.53,-758.68 505.71,-742.7 505.87,-729"/>
<polygon fill="black" stroke="black" points="509.36,-729.25 505.98,-719.22 502.36,-729.17 509.36,-729.25"/>
<text text-anchor="middle" x="619.57" y="-739.45" font-family="Helvetica,sans-Serif" font-size="14.00">Convert spectrum axis to ElaticQ</text>
</g>
<!-- AddSampleLogMultiple&#45;&gt;ResultWorkspace2 -->
<g id="edge26" class="edge">
<title>AddSampleLogMultiple&#45;&gt;ResultWorkspace2</title>
<path fill="none" stroke="black" d="M487.19,-89.01C487.19,-77.18 487.19,-61.2 487.19,-47.5"/>
<polygon fill="black" stroke="black" points="490.69,-47.72 487.19,-37.72 483.69,-47.72 490.69,-47.72"/>
<text text-anchor="middle" x="548.69" y="-57.95" font-family="Helvetica,sans-Serif" font-size="14.00">Outputworkspace</text>
</g>
<!-- AddSampleLogMultiple2&#45;&gt;FitGroup2 -->
<g id="edge27" class="edge">
<title>AddSampleLogMultiple2&#45;&gt;FitGroup2</title>
<path fill="none" stroke="black" d="M340.25,-340.6C337.56,-335.01 334.78,-328.71 332.69,-322.75 330.02,-315.15 327.73,-306.74 325.87,-298.92"/>
<polygon fill="black" stroke="black" points="329.29,-298.18 323.71,-289.18 322.46,-299.7 329.29,-298.18"/>
<text text-anchor="middle" x="395.44" y="-309.45" font-family="Helvetica,sans-Serif" font-size="14.00">OutputWorkspace</text>
</g>
<!-- CopyLogs&#45;&gt;AddSampleLogMultiple -->
<g id="edge22" class="edge">
<title>CopyLogs&#45;&gt;AddSampleLogMultiple</title>
<path fill="none" stroke="black" d="M823.3,-171.38C766.41,-160.7 662.99,-141.27 585.84,-126.78"/>
<polygon fill="black" stroke="black" points="586.62,-123.36 576.14,-124.96 585.33,-130.24 586.62,-123.36"/>
</g>
<!-- CopyLogs2&#45;&gt;AddSampleLogMultiple2 -->
<g id="edge23" class="edge">
<title>CopyLogs2&#45;&gt;AddSampleLogMultiple2</title>
<path fill="none" stroke="black" d="M342.77,-429.76C343.86,-417.93 345.32,-401.95 346.58,-388.25"/>
<polygon fill="black" stroke="black" points="350.05,-388.74 347.48,-378.46 343.08,-388.1 350.05,-388.74"/>
</g>
<!-- ConvertToElasticQ&#45;&gt;Fit -->
<g id="edge8" class="edge">
<title>ConvertToElasticQ&#45;&gt;Fit</title>
<path fill="none" stroke="black" d="M512.73,-681.31C515.71,-673.46 519.32,-663.97 522.68,-655.16"/>
<polygon fill="black" stroke="black" points="525.9,-656.53 526.18,-645.94 519.35,-654.05 525.9,-656.53"/>
</g>
<!-- TransposeFitParametersTable&#45;&gt;ConvertParametersToWorkspace -->
<g id="edge15" class="edge">
<title>TransposeFitParametersTable&#45;&gt;ConvertParametersToWorkspace</title>
<path fill="none" stroke="black" d="M691.39,-429.55C709.61,-416.42 734.79,-398.25 754.91,-383.75"/>
<polygon fill="black" stroke="black" points="756.75,-386.74 762.81,-378.05 752.65,-381.06 756.75,-386.74"/>
</g>
<!-- ConvertParametersToWorkspace&#45;&gt;ResultWorkspace -->
<g id="edge17" class="edge">
<title>ConvertParametersToWorkspace&#45;&gt;ResultWorkspace</title>
<path fill="none" stroke="black" d="M803.41,-340.51C814.58,-327.85 829.96,-310.42 842.57,-296.13"/>
<polygon fill="black" stroke="black" points="845.02,-298.65 849.01,-288.84 839.77,-294.02 845.02,-298.65"/>
<text text-anchor="middle" x="1057.07" y="-309.45" font-family="Helvetica,sans-Serif" font-size="14.00">Outputs Matrixworkspace containing Tau, Intensity, A0 and Beta</text>
</g>
<!-- ExtractMembers -->
<g id="node28" class="node">
<title>ExtractMembers</title>
<ellipse fill="lightgrey" stroke="black" cx="91.19" cy="-269.5" rx="91.19" ry="18"/>
<text text-anchor="middle" x="91.19" y="-264.82" font-family="Helvetica,sans-Serif" font-size="14.00">ExtractMembers</text>
</g>
<!-- ExtractMembers&#45;&gt;ExtractQENSMembers -->
<g id="edge28" class="edge">
<title>ExtractMembers&#45;&gt;ExtractQENSMembers</title>
<path fill="none" stroke="black" d="M86.77,-251.15C85.01,-240 84.95,-225.86 92.69,-216.25 99.42,-207.9 117.2,-201.25 137.97,-196.08"/>
<polygon fill="black" stroke="black" points="138.64,-199.52 147.59,-193.85 137.06,-192.7 138.64,-199.52"/>
<text text-anchor="middle" x="156.94" y="-220.2" font-family="Helvetica,sans-Serif" font-size="14.00">Extract members?</text>
</g>
</g>
</svg>
