<?xml version="1.0" encoding="UTF-8" standalone="no"?>
<!DOCTYPE svg PUBLIC "-//W3C//DTD SVG 1.1//EN"
 "http://www.w3.org/Graphics/SVG/1.1/DTD/svg11.dtd">
<!-- Generated by graphviz version 9.0.0 (20231125.0833)
 -->
<!-- Title: IqtFitMultiple Pages: 1 -->
<svg width="1784pt" height="986pt"
 viewBox="0.00 0.00 1784.19 986.00" xmlns="http://www.w3.org/2000/svg" xmlns:xlink="http://www.w3.org/1999/xlink">
<g id="graph0" class="graph" transform="scale(1 1) rotate(0) translate(4 982)">
<title>IqtFitMultiple</title>
<polygon fill="white" stroke="none" points="-4,4 -4,-982 1780.19,-982 1780.19,4 -4,4"/>
<text text-anchor="middle" x="888.1" y="-960.7" font-family="Helvetica,sans-Serif" font-size="14.00">IqtFitMultiple Flowchart</text>
<!-- InputWorkspace -->
<g id="node1" class="node">
<title>InputWorkspace</title>
<ellipse fill="khaki" stroke="black" cx="212.19" cy="-934.75" rx="90.14" ry="18"/>
<text text-anchor="middle" x="212.19" y="-930.08" font-family="Helvetica,sans-Serif" font-size="14.00">InputWorkspace</text>
</g>
<!-- CropWorkspace -->
<g id="node17" class="node">
<title>CropWorkspace</title>
<path fill="lightskyblue" stroke="black" d="M548.19,-879.75C548.19,-879.75 448.19,-879.75 448.19,-879.75 442.19,-879.75 436.19,-873.75 436.19,-867.75 436.19,-867.75 436.19,-855.75 436.19,-855.75 436.19,-849.75 442.19,-843.75 448.19,-843.75 448.19,-843.75 548.19,-843.75 548.19,-843.75 554.19,-843.75 560.19,-849.75 560.19,-855.75 560.19,-855.75 560.19,-867.75 560.19,-867.75 560.19,-873.75 554.19,-879.75 548.19,-879.75"/>
<text text-anchor="middle" x="498.19" y="-857.08" font-family="Helvetica,sans-Serif" font-size="14.00">CropWorkspace</text>
</g>
<!-- InputWorkspace&#45;&gt;CropWorkspace -->
<g id="edge1" class="edge">
<title>InputWorkspace&#45;&gt;CropWorkspace</title>
<path fill="none" stroke="black" d="M267,-920.14C311.86,-909.01 375.72,-893.15 424.96,-880.93"/>
<polygon fill="black" stroke="black" points="425.53,-884.39 434.4,-878.59 423.85,-877.6 425.53,-884.39"/>
</g>
<!-- ExtractQENSMembers -->
<g id="node24" class="node">
<title>ExtractQENSMembers</title>
<path fill="lightskyblue" stroke="black" d="M307.07,-198.25C307.07,-198.25 161.32,-198.25 161.32,-198.25 155.32,-198.25 149.32,-192.25 149.32,-186.25 149.32,-186.25 149.32,-174.25 149.32,-174.25 149.32,-168.25 155.32,-162.25 161.32,-162.25 161.32,-162.25 307.07,-162.25 307.07,-162.25 313.07,-162.25 319.07,-168.25 319.07,-174.25 319.07,-174.25 319.07,-186.25 319.07,-186.25 319.07,-192.25 313.07,-198.25 307.07,-198.25"/>
<text text-anchor="middle" x="234.19" y="-175.57" font-family="Helvetica,sans-Serif" font-size="14.00">ExtractQENSMembers</text>
</g>
<!-- InputWorkspace&#45;&gt;ExtractQENSMembers -->
<g id="edge29" class="edge">
<title>InputWorkspace&#45;&gt;ExtractQENSMembers</title>
<path fill="none" stroke="black" d="M220.76,-916.41C226.94,-902.31 234.19,-881.72 234.19,-862.75 234.19,-862.75 234.19,-862.75 234.19,-268.5 234.19,-249 234.19,-227.04 234.19,-210.04"/>
<polygon fill="black" stroke="black" points="237.69,-210.15 234.19,-200.15 230.69,-210.15 237.69,-210.15"/>
</g>
<!-- InputWorkspace2 -->
<g id="node2" class="node">
<title>InputWorkspace2</title>
<ellipse fill="khaki" stroke="black" cx="1356.19" cy="-537.25" rx="90.14" ry="18"/>
<text text-anchor="middle" x="1356.19" y="-532.58" font-family="Helvetica,sans-Serif" font-size="14.00">InputWorkspace</text>
</g>
<!-- CopyLogs -->
<g id="node22" class="node">
<title>CopyLogs</title>
<path fill="lightskyblue" stroke="black" d="M897.94,-198.25C897.94,-198.25 838.44,-198.25 838.44,-198.25 832.44,-198.25 826.44,-192.25 826.44,-186.25 826.44,-186.25 826.44,-174.25 826.44,-174.25 826.44,-168.25 832.44,-162.25 838.44,-162.25 838.44,-162.25 897.94,-162.25 897.94,-162.25 903.94,-162.25 909.94,-168.25 909.94,-174.25 909.94,-174.25 909.94,-186.25 909.94,-186.25 909.94,-192.25 903.94,-198.25 897.94,-198.25"/>
<text text-anchor="middle" x="868.19" y="-175.57" font-family="Helvetica,sans-Serif" font-size="14.00">CopyLogs</text>
</g>
<!-- InputWorkspace2&#45;&gt;CopyLogs -->
<g id="edge18" class="edge">
<title>InputWorkspace2&#45;&gt;CopyLogs</title>
<path fill="none" stroke="black" d="M1352.4,-518.96C1348.88,-501.43 1344.19,-473.46 1344.19,-449 1344.19,-449 1344.19,-449 1344.19,-268.5 1344.19,-225.93 1045.85,-196.08 921.55,-185.49"/>
<polygon fill="black" stroke="black" points="922.2,-182.03 911.94,-184.68 921.61,-189.01 922.2,-182.03"/>
<text text-anchor="middle" x="1560.19" y="-354.07" font-family="Helvetica,sans-Serif" font-size="14.00">Copy SampleLogs from InputWorkspace to OutputWorkspaces</text>
</g>
<!-- CopyLogs2 -->
<g id="node23" class="node">
<title>CopyLogs2</title>
<path fill="lightskyblue" stroke="black" d="M374.32,-466C374.32,-466 314.07,-466 314.07,-466 308.07,-466 302.07,-460 302.07,-454 302.07,-454 302.07,-442 302.07,-442 302.07,-436 308.07,-430 314.07,-430 314.07,-430 374.32,-430 374.32,-430 380.32,-430 386.32,-436 386.32,-442 386.32,-442 386.32,-454 386.32,-454 386.32,-460 380.32,-466 374.32,-466"/>
<text text-anchor="middle" x="344.19" y="-443.32" font-family="Helvetica,sans-Serif" font-size="14.00">Copy logs</text>
</g>
<!-- InputWorkspace2&#45;&gt;CopyLogs2 -->
<g id="edge20" class="edge">
<title>InputWorkspace2&#45;&gt;CopyLogs2</title>
<path fill="none" stroke="black" d="M1287.08,-525.31C1206.45,-513.02 1069.02,-493.55 950.19,-484 830.55,-474.38 533.5,-487.01 397.86,-466.05"/>
<polygon fill="black" stroke="black" points="398.74,-462.65 388.3,-464.45 397.59,-469.55 398.74,-462.65"/>
</g>
<!-- Function -->
<g id="node3" class="node">
<title>Function</title>
<ellipse fill="khaki" stroke="black" cx="647.19" cy="-699.5" rx="52.79" ry="18"/>
<text text-anchor="middle" x="647.19" y="-694.83" font-family="Helvetica,sans-Serif" font-size="14.00">Function</text>
</g>
<!-- Fit -->
<g id="node18" class="node">
<title>Fit</title>
<path fill="lightskyblue" stroke="black" d="M591.19,-644.5C591.19,-644.5 561.19,-644.5 561.19,-644.5 555.19,-644.5 549.19,-638.5 549.19,-632.5 549.19,-632.5 549.19,-620.5 549.19,-620.5 549.19,-614.5 555.19,-608.5 561.19,-608.5 561.19,-608.5 591.19,-608.5 591.19,-608.5 597.19,-608.5 603.19,-614.5 603.19,-620.5 603.19,-620.5 603.19,-632.5 603.19,-632.5 603.19,-638.5 597.19,-644.5 591.19,-644.5"/>
<text text-anchor="middle" x="576.19" y="-621.83" font-family="Helvetica,sans-Serif" font-size="14.00">Fit</text>
</g>
<!-- Function&#45;&gt;Fit -->
<g id="edge9" class="edge">
<title>Function&#45;&gt;Fit</title>
<path fill="none" stroke="black" d="M630.73,-682.03C622.11,-673.41 611.36,-662.67 601.7,-653.01"/>
<polygon fill="black" stroke="black" points="604.18,-650.54 594.63,-645.94 599.23,-655.48 604.18,-650.54"/>
</g>
<!-- StartX -->
<g id="node4" class="node">
<title>StartX</title>
<ellipse fill="khaki" stroke="black" cx="613.19" cy="-934.75" rx="41.74" ry="18"/>
<text text-anchor="middle" x="613.19" y="-930.08" font-family="Helvetica,sans-Serif" font-size="14.00">StartX</text>
</g>
<!-- StartX&#45;&gt;CropWorkspace -->
<g id="edge2" class="edge">
<title>StartX&#45;&gt;CropWorkspace</title>
<path fill="none" stroke="black" d="M589.92,-919.38C574.41,-909.81 553.69,-897.01 535.86,-886.01"/>
<polygon fill="black" stroke="black" points="537.94,-883.18 527.59,-880.9 534.26,-889.13 537.94,-883.18"/>
</g>
<!-- EndX -->
<g id="node5" class="node">
<title>EndX</title>
<ellipse fill="khaki" stroke="black" cx="710.19" cy="-934.75" rx="37" ry="18"/>
<text text-anchor="middle" x="710.19" y="-930.08" font-family="Helvetica,sans-Serif" font-size="14.00">EndX</text>
</g>
<!-- EndX&#45;&gt;CropWorkspace -->
<g id="edge3" class="edge">
<title>EndX&#45;&gt;CropWorkspace</title>
<path fill="none" stroke="black" d="M681.55,-922.96C675.81,-920.86 669.82,-918.71 664.19,-916.75 631.56,-905.42 595.07,-893.47 564.63,-883.7"/>
<polygon fill="black" stroke="black" points="565.74,-880.38 555.15,-880.67 563.61,-887.05 565.74,-880.38"/>
</g>
<!-- SpecMin -->
<g id="node6" class="node">
<title>SpecMin</title>
<ellipse fill="khaki" stroke="black" cx="373.19" cy="-934.75" rx="52.26" ry="18"/>
<text text-anchor="middle" x="373.19" y="-930.08" font-family="Helvetica,sans-Serif" font-size="14.00">SpecMin</text>
</g>
<!-- SpecMin&#45;&gt;CropWorkspace -->
<g id="edge4" class="edge">
<title>SpecMin&#45;&gt;CropWorkspace</title>
<path fill="none" stroke="black" d="M399.4,-918.87C416.27,-909.28 438.54,-896.64 457.66,-885.77"/>
<polygon fill="black" stroke="black" points="459.34,-888.85 466.3,-880.86 455.88,-882.76 459.34,-888.85"/>
</g>
<!-- SpecMax -->
<g id="node7" class="node">
<title>SpecMax</title>
<ellipse fill="khaki" stroke="black" cx="498.19" cy="-934.75" rx="54.89" ry="18"/>
<text text-anchor="middle" x="498.19" y="-930.08" font-family="Helvetica,sans-Serif" font-size="14.00">SpecMax</text>
</g>
<!-- SpecMax&#45;&gt;CropWorkspace -->
<g id="edge5" class="edge">
<title>SpecMax&#45;&gt;CropWorkspace</title>
<path fill="none" stroke="black" d="M498.19,-916.56C498.19,-908.98 498.19,-899.85 498.19,-891.29"/>
<polygon fill="black" stroke="black" points="501.69,-891.29 498.19,-881.29 494.69,-891.29 501.69,-891.29"/>
</g>
<!-- Minimizer -->
<g id="node8" class="node">
<title>Minimizer</title>
<ellipse fill="khaki" stroke="black" cx="776.19" cy="-699.5" rx="58.57" ry="18"/>
<text text-anchor="middle" x="776.19" y="-694.83" font-family="Helvetica,sans-Serif" font-size="14.00">Minimizer</text>
</g>
<!-- Minimizer&#45;&gt;Fit -->
<g id="edge10" class="edge">
<title>Minimizer&#45;&gt;Fit</title>
<path fill="none" stroke="black" d="M739.04,-685.31C703.42,-672.66 649.89,-653.66 614.03,-640.93"/>
<polygon fill="black" stroke="black" points="615.53,-637.75 604.94,-637.71 613.19,-644.35 615.53,-637.75"/>
</g>
<!-- MaxIterations -->
<g id="node9" class="node">
<title>MaxIterations</title>
<ellipse fill="khaki" stroke="black" cx="340.19" cy="-699.5" rx="77.51" ry="18"/>
<text text-anchor="middle" x="340.19" y="-694.83" font-family="Helvetica,sans-Serif" font-size="14.00">MaxIterations</text>
</g>
<!-- MaxIterations&#45;&gt;Fit -->
<g id="edge11" class="edge">
<title>MaxIterations&#45;&gt;Fit</title>
<path fill="none" stroke="black" d="M386.26,-684.64C430.52,-671.33 496.62,-651.44 538.03,-638.98"/>
<polygon fill="black" stroke="black" points="538.99,-642.35 547.56,-636.11 536.98,-635.64 538.99,-642.35"/>
</g>
<!-- ParameterTable -->
<g id="node10" class="node">
<title>ParameterTable</title>
<ellipse fill="khaki" stroke="black" cx="498.19" cy="-537.25" rx="85.93" ry="18"/>
<text text-anchor="middle" x="498.19" y="-532.58" font-family="Helvetica,sans-Serif" font-size="14.00">ParameterTable</text>
</g>
<!-- TransposeFitParametersTable -->
<g id="node26" class="node">
<title>TransposeFitParametersTable</title>
<polygon fill="lightseagreen" stroke="black" points="778.32,-466 562.07,-466 562.07,-430 778.32,-430 778.32,-466"/>
<text text-anchor="middle" x="670.19" y="-443.32" font-family="Helvetica,sans-Serif" font-size="14.00">TransposeFitParametersTable</text>
</g>
<!-- ParameterTable&#45;&gt;TransposeFitParametersTable -->
<g id="edge14" class="edge">
<title>ParameterTable&#45;&gt;TransposeFitParametersTable</title>
<path fill="none" stroke="black" d="M529.74,-520.25C556.63,-506.6 595.6,-486.84 625.67,-471.59"/>
<polygon fill="black" stroke="black" points="627.21,-474.73 634.55,-467.08 624.04,-468.48 627.21,-474.73"/>
<text text-anchor="middle" x="772.44" y="-487.95" font-family="Helvetica,sans-Serif" font-size="14.00">Makes output consistent with PlotPeakByLogValue</text>
</g>
<!-- ParameterNames -->
<g id="node11" class="node">
<title>ParameterNames</title>
<ellipse fill="khaki" stroke="black" cx="891.19" cy="-448" rx="94.88" ry="18"/>
<text text-anchor="middle" x="891.19" y="-443.32" font-family="Helvetica,sans-Serif" font-size="14.00">ParameterNames</text>
</g>
<!-- ConvertParametersToWorkspace -->
<g id="node27" class="node">
<title>ConvertParametersToWorkspace</title>
<polygon fill="lightseagreen" stroke="black" points="912.94,-376.75 673.44,-376.75 673.44,-340.75 912.94,-340.75 912.94,-376.75"/>
<text text-anchor="middle" x="793.19" y="-354.07" font-family="Helvetica,sans-Serif" font-size="14.00">ConvertParametersToWorkspace</text>
</g>
<!-- ParameterNames&#45;&gt;ConvertParametersToWorkspace -->
<g id="edge16" class="edge">
<title>ParameterNames&#45;&gt;ConvertParametersToWorkspace</title>
<path fill="none" stroke="black" d="M824.32,-435.05C812.42,-429.89 801.45,-422.52 793.94,-412 789.07,-405.17 787.62,-396.47 787.75,-388.12"/>
<polygon fill="black" stroke="black" points="791.22,-388.6 788.67,-378.32 784.25,-387.95 791.22,-388.6"/>
<text text-anchor="middle" x="1061.32" y="-398.7" font-family="Helvetica,sans-Serif" font-size="14.00">Convert parameter of interest into MatrixWorkspace containing paramNames</text>
</g>
<!-- FitGroup -->
<g id="node12" class="node">
<title>FitGroup</title>
<ellipse fill="khaki" stroke="black" cx="654.19" cy="-537.25" rx="51.73" ry="18"/>
<text text-anchor="middle" x="654.19" y="-532.58" font-family="Helvetica,sans-Serif" font-size="14.00">FitGroup</text>
</g>
<!-- FitGroup&#45;&gt;CopyLogs2 -->
<g id="edge21" class="edge">
<title>FitGroup&#45;&gt;CopyLogs2</title>
<path fill="none" stroke="black" d="M614.83,-525.22C607.64,-523.22 600.19,-521.17 593.19,-519.25 508.73,-496.12 484.34,-492.51 397.6,-466.65"/>
<polygon fill="black" stroke="black" points="398.74,-463.34 388.16,-463.82 396.73,-470.04 398.74,-463.34"/>
</g>
<!-- FitGroup2 -->
<g id="node13" class="node">
<title>FitGroup2</title>
<ellipse fill="khaki" stroke="black" cx="326.19" cy="-269.5" rx="51.73" ry="18"/>
<text text-anchor="middle" x="326.19" y="-264.82" font-family="Helvetica,sans-Serif" font-size="14.00">FitGroup</text>
</g>
<!-- FitGroup2&#45;&gt;ExtractQENSMembers -->
<g id="edge30" class="edge">
<title>FitGroup2&#45;&gt;ExtractQENSMembers</title>
<path fill="none" stroke="black" d="M308.89,-252.09C295.27,-239.18 276.07,-220.97 260.55,-206.25"/>
<polygon fill="black" stroke="black" points="263.13,-203.87 253.46,-199.52 258.31,-208.95 263.13,-203.87"/>
</g>
<!-- SampleLogs -->
<g id="node14" class="node">
<title>SampleLogs</title>
<ellipse fill="khaki" stroke="black" cx="474.19" cy="-448" rx="70.15" ry="18"/>
<text text-anchor="middle" x="474.19" y="-443.32" font-family="Helvetica,sans-Serif" font-size="14.00">SampleLogs</text>
</g>
<!-- AddSampleLogMultiple -->
<g id="node20" class="node">
<title>AddSampleLogMultiple</title>
<path fill="lightskyblue" stroke="black" d="M561.32,-125.25C561.32,-125.25 411.07,-125.25 411.07,-125.25 405.07,-125.25 399.07,-119.25 399.07,-113.25 399.07,-113.25 399.07,-101.25 399.07,-101.25 399.07,-95.25 405.07,-89.25 411.07,-89.25 411.07,-89.25 561.32,-89.25 561.32,-89.25 567.32,-89.25 573.32,-95.25 573.32,-101.25 573.32,-101.25 573.32,-113.25 573.32,-113.25 573.32,-119.25 567.32,-125.25 561.32,-125.25"/>
<text text-anchor="middle" x="486.19" y="-102.58" font-family="Helvetica,sans-Serif" font-size="14.00">AddSampleLogMultiple</text>
</g>
<!-- SampleLogs&#45;&gt;AddSampleLogMultiple -->
<g id="edge25" class="edge">
<title>SampleLogs&#45;&gt;AddSampleLogMultiple</title>
<path fill="none" stroke="black" d="M474.19,-429.62C474.19,-412.01 474.19,-383.99 474.19,-359.75 474.19,-359.75 474.19,-359.75 474.19,-179.25 474.19,-165.08 476.54,-149.55 479.16,-136.63"/>
<polygon fill="black" stroke="black" points="482.53,-137.62 481.26,-127.1 475.69,-136.11 482.53,-137.62"/>
<text text-anchor="middle" x="614.82" y="-264.82" font-family="Helvetica,sans-Serif" font-size="14.00">Additional SampleLogs based on Fit data</text>
</g>
<!-- AddSampleLogMultiple2 -->
<g id="node21" class="node">
<title>AddSampleLogMultiple2</title>
<path fill="lightskyblue" stroke="black" d="M424.32,-376.75C424.32,-376.75 274.07,-376.75 274.07,-376.75 268.07,-376.75 262.07,-370.75 262.07,-364.75 262.07,-364.75 262.07,-352.75 262.07,-352.75 262.07,-346.75 268.07,-340.75 274.07,-340.75 274.07,-340.75 424.32,-340.75 424.32,-340.75 430.32,-340.75 436.32,-346.75 436.32,-352.75 436.32,-352.75 436.32,-364.75 436.32,-364.75 436.32,-370.75 430.32,-376.75 424.32,-376.75"/>
<text text-anchor="middle" x="349.19" y="-354.07" font-family="Helvetica,sans-Serif" font-size="14.00">AddSampleLogMultiple</text>
</g>
<!-- SampleLogs&#45;&gt;AddSampleLogMultiple2 -->
<g id="edge24" class="edge">
<title>SampleLogs&#45;&gt;AddSampleLogMultiple2</title>
<path fill="none" stroke="black" d="M450.68,-430.59C431.67,-417.32 404.64,-398.45 383.26,-383.53"/>
<polygon fill="black" stroke="black" points="385.33,-380.7 375.12,-377.85 381.32,-386.44 385.33,-380.7"/>
</g>
<!-- ResultWorkspace -->
<g id="node15" class="node">
<title>ResultWorkspace</title>
<ellipse fill="khaki" stroke="black" cx="868.19" cy="-269.5" rx="94.35" ry="18"/>
<text text-anchor="middle" x="868.19" y="-264.82" font-family="Helvetica,sans-Serif" font-size="14.00">ResultWorkspace</text>
</g>
<!-- ResultWorkspace&#45;&gt;CopyLogs -->
<g id="edge19" class="edge">
<title>ResultWorkspace&#45;&gt;CopyLogs</title>
<path fill="none" stroke="black" d="M868.19,-251.26C868.19,-239.43 868.19,-223.45 868.19,-209.75"/>
<polygon fill="black" stroke="black" points="871.69,-209.97 868.19,-199.97 864.69,-209.97 871.69,-209.97"/>
</g>
<!-- ResultWorkspace2 -->
<g id="node16" class="node">
<title>ResultWorkspace2</title>
<ellipse fill="khaki" stroke="black" cx="486.19" cy="-18" rx="94.35" ry="18"/>
<text text-anchor="middle" x="486.19" y="-13.32" font-family="Helvetica,sans-Serif" font-size="14.00">ResultWorkspace</text>
</g>
<!-- ConvertToHistogram -->
<g id="node19" class="node">
<title>ConvertToHistogram</title>
<path fill="lightskyblue" stroke="black" d="M571.69,-806.75C571.69,-806.75 438.69,-806.75 438.69,-806.75 432.69,-806.75 426.69,-800.75 426.69,-794.75 426.69,-794.75 426.69,-782.75 426.69,-782.75 426.69,-776.75 432.69,-770.75 438.69,-770.75 438.69,-770.75 571.69,-770.75 571.69,-770.75 577.69,-770.75 583.69,-776.75 583.69,-782.75 583.69,-782.75 583.69,-794.75 583.69,-794.75 583.69,-800.75 577.69,-806.75 571.69,-806.75"/>
<text text-anchor="middle" x="505.19" y="-784.08" font-family="Helvetica,sans-Serif" font-size="14.00">ConvertToHistogram</text>
</g>
<!-- CropWorkspace&#45;&gt;ConvertToHistogram -->
<g id="edge6" class="edge">
<title>CropWorkspace&#45;&gt;ConvertToHistogram</title>
<path fill="none" stroke="black" d="M499.89,-843.56C500.64,-835.89 501.56,-826.64 502.41,-817.99"/>
<polygon fill="black" stroke="black" points="505.87,-818.58 503.36,-808.29 498.9,-817.89 505.87,-818.58"/>
</g>
<!-- Fit&#45;&gt;ParameterTable -->
<g id="edge12" class="edge">
<title>Fit&#45;&gt;ParameterTable</title>
<path fill="none" stroke="black" d="M560.78,-608.26C549.46,-595.6 533.88,-578.17 521.1,-563.88"/>
<polygon fill="black" stroke="black" points="523.85,-561.7 514.58,-556.58 518.63,-566.37 523.85,-561.7"/>
</g>
<!-- Fit&#45;&gt;FitGroup -->
<g id="edge13" class="edge">
<title>Fit&#45;&gt;FitGroup</title>
<path fill="none" stroke="black" d="M591.6,-608.26C603.07,-595.43 618.91,-577.72 631.78,-563.32"/>
<polygon fill="black" stroke="black" points="634.28,-565.78 638.33,-555.99 629.06,-561.11 634.28,-565.78"/>
<text text-anchor="middle" x="832.32" y="-577.2" font-family="Helvetica,sans-Serif" font-size="14.00">GroupWorkspace containing fitting results from each spectra</text>
</g>
<!-- ConvertToElasticQ -->
<g id="node25" class="node">
<title>ConvertToElasticQ</title>
<polygon fill="lightseagreen" stroke="black" points="576.82,-717.5 435.57,-717.5 435.57,-681.5 576.82,-681.5 576.82,-717.5"/>
<text text-anchor="middle" x="506.19" y="-694.83" font-family="Helvetica,sans-Serif" font-size="14.00">ConvertToElasticQ</text>
</g>
<!-- ConvertToHistogram&#45;&gt;ConvertToElasticQ -->
<g id="edge7" class="edge">
<title>ConvertToHistogram&#45;&gt;ConvertToElasticQ</title>
<path fill="none" stroke="black" d="M505.39,-770.51C505.53,-758.68 505.71,-742.7 505.87,-729"/>
<polygon fill="black" stroke="black" points="509.36,-729.25 505.98,-719.22 502.36,-729.17 509.36,-729.25"/>
<text text-anchor="middle" x="619.57" y="-739.45" font-family="Helvetica,sans-Serif" font-size="14.00">Convert spectrum axis to ElaticQ</text>
</g>
<!-- AddSampleLogMultiple&#45;&gt;ResultWorkspace2 -->
<g id="edge26" class="edge">
<title>AddSampleLogMultiple&#45;&gt;ResultWorkspace2</title>
<path fill="none" stroke="black" d="M486.19,-89.01C486.19,-77.18 486.19,-61.2 486.19,-47.5"/>
<polygon fill="black" stroke="black" points="489.69,-47.72 486.19,-37.72 482.69,-47.72 489.69,-47.72"/>
<text text-anchor="middle" x="547.69" y="-57.95" font-family="Helvetica,sans-Serif" font-size="14.00">Outputworkspace</text>
</g>
<!-- AddSampleLogMultiple2&#45;&gt;FitGroup2 -->
<g id="edge27" class="edge">
<title>AddSampleLogMultiple2&#45;&gt;FitGroup2</title>
<path fill="none" stroke="black" d="M341.81,-340.52C339.61,-334.93 337.35,-328.64 335.69,-322.75 333.54,-315.09 331.76,-306.65 330.34,-298.83"/>
<polygon fill="black" stroke="black" points="333.82,-298.41 328.72,-289.12 326.91,-299.56 333.82,-298.41"/>
<text text-anchor="middle" x="398.44" y="-309.45" font-family="Helvetica,sans-Serif" font-size="14.00">OutputWorkspace</text>
</g>
<!-- CopyLogs&#45;&gt;AddSampleLogMultiple -->
<g id="edge22" class="edge">
<title>CopyLogs&#45;&gt;AddSampleLogMultiple</title>
<path fill="none" stroke="black" d="M826.22,-171.45C768.47,-160.71 662.76,-141.07 584.48,-126.52"/>
<polygon fill="black" stroke="black" points="585.59,-123.16 575.12,-124.78 584.31,-130.05 585.59,-123.16"/>
</g>
<!-- CopyLogs2&#45;&gt;AddSampleLogMultiple2 -->
<g id="edge23" class="edge">
<title>CopyLogs2&#45;&gt;AddSampleLogMultiple2</title>
<path fill="none" stroke="black" d="M345.18,-429.76C345.86,-417.93 346.77,-401.95 347.56,-388.25"/>
<polygon fill="black" stroke="black" points="351.04,-388.65 348.12,-378.46 344.05,-388.25 351.04,-388.65"/>
</g>
<!-- ConvertToElasticQ&#45;&gt;Fit -->
<g id="edge8" class="edge">
<title>ConvertToElasticQ&#45;&gt;Fit</title>
<path fill="none" stroke="black" d="M523.14,-681.31C531.65,-672.68 542.12,-662.06 551.51,-652.53"/>
<polygon fill="black" stroke="black" points="553.81,-655.18 558.34,-645.61 548.83,-650.27 553.81,-655.18"/>
</g>
<!-- TransposeFitParametersTable&#45;&gt;ConvertParametersToWorkspace -->
<g id="edge15" class="edge">
<title>TransposeFitParametersTable&#45;&gt;ConvertParametersToWorkspace</title>
<path fill="none" stroke="black" d="M694.79,-429.55C713.31,-416.42 738.91,-398.25 759.36,-383.75"/>
<polygon fill="black" stroke="black" points="761.27,-386.68 767.41,-378.04 757.22,-380.97 761.27,-386.68"/>
</g>
<!-- ConvertParametersToWorkspace&#45;&gt;ResultWorkspace -->
<g id="edge17" class="edge">
<title>ConvertParametersToWorkspace&#45;&gt;ResultWorkspace</title>
<path fill="none" stroke="black" d="M808.01,-340.51C818.9,-327.85 833.87,-310.42 846.16,-296.13"/>
<polygon fill="black" stroke="black" points="848.55,-298.71 852.42,-288.85 843.25,-294.15 848.55,-298.71"/>
<text text-anchor="middle" x="1061.07" y="-309.45" font-family="Helvetica,sans-Serif" font-size="14.00">Outputs Matrixworkspace containing Tau, Intensity, A0 and Beta</text>
</g>
<!-- ExtractMembers -->
<g id="node28" class="node">
<title>ExtractMembers</title>
<ellipse fill="lightgrey" stroke="black" cx="91.19" cy="-269.5" rx="91.19" ry="18"/>
<text text-anchor="middle" x="91.19" y="-264.82" font-family="Helvetica,sans-Serif" font-size="14.00">ExtractMembers</text>
</g>
<!-- ExtractMembers&#45;&gt;ExtractQENSMembers -->
<g id="edge28" class="edge">
<title>ExtractMembers&#45;&gt;ExtractQENSMembers</title>
<path fill="none" stroke="black" d="M86.77,-251.15C85.01,-240 84.95,-225.86 92.69,-216.25 99.42,-207.9 117.2,-201.25 137.97,-196.08"/>
<polygon fill="black" stroke="black" points="138.64,-199.52 147.59,-193.85 137.06,-192.7 138.64,-199.52"/>
<text text-anchor="middle" x="156.94" y="-220.2" font-family="Helvetica,sans-Serif" font-size="14.00">Extract members?</text>
</g>
</g>
</svg>
