<?xml version="1.0" encoding="UTF-8" standalone="no"?>
<!DOCTYPE svg PUBLIC "-//W3C//DTD SVG 1.1//EN"
 "http://www.w3.org/Graphics/SVG/1.1/DTD/svg11.dtd">
<!-- Generated by graphviz version 13.1.0 (20250701.1702)
 -->
<!-- Title: isisPowderCreateVanadium Pages: 1 -->
<svg width="1183pt" height="378pt"
 viewBox="0.00 0.00 1183.00 378.00" xmlns="http://www.w3.org/2000/svg" xmlns:xlink="http://www.w3.org/1999/xlink">
<g id="graph0" class="graph" transform="scale(1 1) rotate(0) translate(4 373.5)">
<title>isisPowderCreateVanadium</title>
<polygon fill="white" stroke="none" points="-4,4 -4,-373.5 1179.41,-373.5 1179.41,4 -4,4"/>
<text xml:space="preserve" text-anchor="middle" x="587.7" y="-352.2" font-family="Helvetica,sans-Serif" font-size="14.00">ISISPowder &#45; Save Focused Banks</text>
<!-- label_saveFocusedGeneric -->
<g id="node1" class="node">
<title>label_saveFocusedGeneric</title>
<ellipse fill="lightgrey" stroke="black" cx="158.53" cy="-326.25" rx="158.53" ry="18"/>
<text xml:space="preserve" text-anchor="middle" x="158.53" y="-321.57" font-family="Helvetica,sans-Serif" font-size="14.00">Save Focused Banks &#45; Generic</text>
</g>
<!-- alg_SaveNexusProcessedGeneric -->
<g id="node8" class="node">
<title>alg_SaveNexusProcessedGeneric</title>
<path fill="lightskyblue" stroke="black" d="M388.53,-271.25C388.53,-271.25 198.53,-271.25 198.53,-271.25 192.53,-271.25 186.53,-265.25 186.53,-259.25 186.53,-259.25 186.53,-247.25 186.53,-247.25 186.53,-241.25 192.53,-235.25 198.53,-235.25 198.53,-235.25 388.53,-235.25 388.53,-235.25 394.53,-235.25 400.53,-241.25 400.53,-247.25 400.53,-247.25 400.53,-259.25 400.53,-259.25 400.53,-265.25 394.53,-271.25 388.53,-271.25"/>
<text xml:space="preserve" text-anchor="middle" x="293.53" y="-248.57" font-family="Helvetica,sans-Serif" font-size="14.00">Save Nexus Processed &#45; TOF</text>
</g>
<!-- label_saveFocusedGeneric&#45;&gt;alg_SaveNexusProcessedGeneric -->
<g id="edge1" class="edge">
<title>label_saveFocusedGeneric&#45;&gt;alg_SaveNexusProcessedGeneric</title>
<path fill="none" stroke="black" d="M190.87,-308.24C208.72,-298.85 231.13,-287.07 250.45,-276.91"/>
<polygon fill="black" stroke="black" points="251.96,-280.07 259.19,-272.32 248.71,-273.87 251.96,-280.07"/>
</g>
<!-- param_processedBanksGeneric -->
<g id="node2" class="node">
<title>param_processedBanksGeneric</title>
<ellipse fill="khaki" stroke="black" cx="427.53" cy="-326.25" rx="92.77" ry="18"/>
<text xml:space="preserve" text-anchor="middle" x="427.53" y="-321.57" font-family="Helvetica,sans-Serif" font-size="14.00">Processed banks</text>
</g>
<!-- param_processedBanksGeneric&#45;&gt;alg_SaveNexusProcessedGeneric -->
<g id="edge2" class="edge">
<title>param_processedBanksGeneric&#45;&gt;alg_SaveNexusProcessedGeneric</title>
<path fill="none" stroke="black" d="M396.79,-308.96C378.89,-299.48 356.06,-287.38 336.41,-276.97"/>
<polygon fill="black" stroke="black" points="338.29,-274 327.81,-272.41 335.01,-280.19 338.29,-274"/>
</g>
<!-- param_focusModePearl -->
<g id="node3" class="node">
<title>param_focusModePearl</title>
<ellipse fill="khaki" stroke="black" cx="669.53" cy="-326.25" rx="131.7" ry="18"/>
<text xml:space="preserve" text-anchor="middle" x="669.53" y="-321.57" font-family="Helvetica,sans-Serif" font-size="14.00">User param: focus mode</text>
</g>
<!-- if_focusModePearl -->
<g id="node12" class="node">
<title>if_focusModePearl</title>
<polygon fill="limegreen" stroke="black" points="855.53,-271.25 741.45,-253.25 855.53,-235.25 969.62,-253.25 855.53,-271.25"/>
<text xml:space="preserve" text-anchor="middle" x="855.53" y="-248.57" font-family="Helvetica,sans-Serif" font-size="14.00">If: focus mode</text>
</g>
<!-- param_focusModePearl&#45;&gt;if_focusModePearl -->
<g id="edge7" class="edge">
<title>param_focusModePearl&#45;&gt;if_focusModePearl</title>
<path fill="none" stroke="black" d="M712.67,-308.78C742.78,-297.29 782.79,-282.02 812.8,-270.56"/>
<polygon fill="black" stroke="black" points="813.87,-273.9 821.96,-267.07 811.37,-267.36 813.87,-273.9"/>
</g>
<!-- proc_focusModeAllPearl -->
<g id="node4" class="node">
<title>proc_focusModeAllPearl</title>
<polygon fill="lightseagreen" stroke="black" points="673.28,-198.25 547.78,-198.25 547.78,-162.25 673.28,-162.25 673.28,-198.25"/>
<text xml:space="preserve" text-anchor="middle" x="610.53" y="-175.57" font-family="Helvetica,sans-Serif" font-size="14.00">Focus mode: All</text>
</g>
<!-- proc_focusModeGroupsPearl -->
<g id="node5" class="node">
<title>proc_focusModeGroupsPearl</title>
<polygon fill="lightseagreen" stroke="black" points="849.41,-198.25 691.66,-198.25 691.66,-162.25 849.41,-162.25 849.41,-198.25"/>
<text xml:space="preserve" text-anchor="middle" x="770.53" y="-175.57" font-family="Helvetica,sans-Serif" font-size="14.00">Focus mode: Groups</text>
</g>
<!-- proc_focusModeTransPearl -->
<g id="node6" class="node">
<title>proc_focusModeTransPearl</title>
<polygon fill="lightseagreen" stroke="black" points="1175.41,-198.25 1029.66,-198.25 1029.66,-162.25 1175.41,-162.25 1175.41,-198.25"/>
<text xml:space="preserve" text-anchor="middle" x="1102.53" y="-175.57" font-family="Helvetica,sans-Serif" font-size="14.00">Focus mode: Trans</text>
</g>
<!-- proc_focusModeModsPearl -->
<g id="node7" class="node">
<title>proc_focusModeModsPearl</title>
<polygon fill="lightseagreen" stroke="black" points="1012.03,-198.25 867.03,-198.25 867.03,-162.25 1012.03,-162.25 1012.03,-198.25"/>
<text xml:space="preserve" text-anchor="middle" x="939.53" y="-175.57" font-family="Helvetica,sans-Serif" font-size="14.00">Focus mode: Mods</text>
</g>
<!-- alg_SaveGSSProcessedGeneric -->
<g id="node9" class="node">
<title>alg_SaveGSSProcessedGeneric</title>
<path fill="lightskyblue" stroke="black" d="M343.91,-198.25C343.91,-198.25 243.16,-198.25 243.16,-198.25 237.16,-198.25 231.16,-192.25 231.16,-186.25 231.16,-186.25 231.16,-174.25 231.16,-174.25 231.16,-168.25 237.16,-162.25 243.16,-162.25 243.16,-162.25 343.91,-162.25 343.91,-162.25 349.91,-162.25 355.91,-168.25 355.91,-174.25 355.91,-174.25 355.91,-186.25 355.91,-186.25 355.91,-192.25 349.91,-198.25 343.91,-198.25"/>
<text xml:space="preserve" text-anchor="middle" x="293.53" y="-175.57" font-family="Helvetica,sans-Serif" font-size="14.00">Save GSS &#45; TOF</text>
</g>
<!-- alg_SaveNexusProcessedGeneric&#45;&gt;alg_SaveGSSProcessedGeneric -->
<g id="edge3" class="edge">
<title>alg_SaveNexusProcessedGeneric&#45;&gt;alg_SaveGSSProcessedGeneric</title>
<path fill="none" stroke="black" d="M293.53,-235.06C293.53,-227.48 293.53,-218.35 293.53,-209.79"/>
<polygon fill="black" stroke="black" points="297.03,-209.79 293.53,-199.79 290.03,-209.79 297.03,-209.79"/>
</g>
<!-- alg_SaveXyeDSpacing -->
<g id="node10" class="node">
<title>alg_SaveXyeDSpacing</title>
<path fill="lightskyblue" stroke="black" d="M362.28,-109C362.28,-109 224.78,-109 224.78,-109 218.78,-109 212.78,-103 212.78,-97 212.78,-97 212.78,-85 212.78,-85 212.78,-79 218.78,-73 224.78,-73 224.78,-73 362.28,-73 362.28,-73 368.28,-73 374.28,-79 374.28,-85 374.28,-85 374.28,-97 374.28,-97 374.28,-103 368.28,-109 362.28,-109"/>
<text xml:space="preserve" text-anchor="middle" x="293.53" y="-86.33" font-family="Helvetica,sans-Serif" font-size="14.00">Save GSS &#45; dSpacing</text>
</g>
<!-- alg_SaveGSSProcessedGeneric&#45;&gt;alg_SaveXyeDSpacing -->
<g id="edge4" class="edge">
<title>alg_SaveGSSProcessedGeneric&#45;&gt;alg_SaveXyeDSpacing</title>
<path fill="none" stroke="black" d="M293.53,-162.01C293.53,-150.18 293.53,-134.2 293.53,-120.5"/>
<polygon fill="black" stroke="black" points="297.03,-120.72 293.53,-110.72 290.03,-120.72 297.03,-120.72"/>
<text xml:space="preserve" text-anchor="middle" x="407.53" y="-130.95" font-family="Helvetica,sans-Serif" font-size="14.00">XYE files saved into subdirectory</text>
</g>
<!-- alg_SaveXyeTofGeneric -->
<g id="node11" class="node">
<title>alg_SaveXyeTofGeneric</title>
<path fill="lightskyblue" stroke="black" d="M343.16,-36C343.16,-36 243.91,-36 243.91,-36 237.91,-36 231.91,-30 231.91,-24 231.91,-24 231.91,-12 231.91,-12 231.91,-6 237.91,0 243.91,0 243.91,0 343.16,0 343.16,0 349.16,0 355.16,-6 355.16,-12 355.16,-12 355.16,-24 355.16,-24 355.16,-30 349.16,-36 343.16,-36"/>
<text xml:space="preserve" text-anchor="middle" x="293.53" y="-13.32" font-family="Helvetica,sans-Serif" font-size="14.00">Save XYE &#45; TOF</text>
</g>
<!-- alg_SaveXyeDSpacing&#45;&gt;alg_SaveXyeTofGeneric -->
<g id="edge5" class="edge">
<title>alg_SaveXyeDSpacing&#45;&gt;alg_SaveXyeTofGeneric</title>
<path fill="none" stroke="black" d="M293.53,-72.81C293.53,-65.23 293.53,-56.1 293.53,-47.54"/>
<polygon fill="black" stroke="black" points="297.03,-47.54 293.53,-37.54 290.03,-47.54 297.03,-47.54"/>
</g>
<!-- if_focusModePearl&#45;&gt;proc_focusModeAllPearl -->
<g id="edge8" class="edge">
<title>if_focusModePearl&#45;&gt;proc_focusModeAllPearl</title>
<path fill="none" stroke="black" d="M816.44,-240.92C780.2,-230.42 725.41,-214.54 681.46,-201.8"/>
<polygon fill="black" stroke="black" points="682.57,-198.48 671.99,-199.06 680.62,-205.2 682.57,-198.48"/>
</g>
<!-- if_focusModePearl&#45;&gt;proc_focusModeGroupsPearl -->
<g id="edge9" class="edge">
<title>if_focusModePearl&#45;&gt;proc_focusModeGroupsPearl</title>
<path fill="none" stroke="black" d="M837.92,-237.54C827.04,-228.45 812.81,-216.56 800.22,-206.05"/>
<polygon fill="black" stroke="black" points="802.5,-203.39 792.59,-199.67 798.02,-208.77 802.5,-203.39"/>
</g>
<!-- if_focusModePearl&#45;&gt;proc_focusModeTransPearl -->
<g id="edge11" class="edge">
<title>if_focusModePearl&#45;&gt;proc_focusModeTransPearl</title>
<path fill="none" stroke="black" d="M894.67,-241C931.16,-230.51 986.48,-214.61 1030.88,-201.85"/>
<polygon fill="black" stroke="black" points="1031.81,-205.22 1040.46,-199.09 1029.88,-198.49 1031.81,-205.22"/>
</g>
<!-- if_focusModePearl&#45;&gt;proc_focusModeModsPearl -->
<g id="edge10" class="edge">
<title>if_focusModePearl&#45;&gt;proc_focusModeModsPearl</title>
<path fill="none" stroke="black" d="M872.94,-237.54C883.69,-228.45 897.76,-216.56 910.19,-206.05"/>
<polygon fill="black" stroke="black" points="912.36,-208.81 917.73,-199.68 907.84,-203.46 912.36,-208.81"/>
</g>
<!-- label_saveFocusedPearl -->
<g id="node13" class="node">
<title>label_saveFocusedPearl</title>
<ellipse fill="lightgrey" stroke="black" cx="945.53" cy="-326.25" rx="125.92" ry="18"/>
<text xml:space="preserve" text-anchor="middle" x="945.53" y="-321.57" font-family="Helvetica,sans-Serif" font-size="14.00">label_saveFocusedPearl</text>
</g>
<!-- label_saveFocusedPearl&#45;&gt;if_focusModePearl -->
<g id="edge6" class="edge">
<title>label_saveFocusedPearl&#45;&gt;if_focusModePearl</title>
<path fill="none" stroke="black" d="M923.75,-308.06C911.32,-298.26 895.64,-285.89 882.45,-275.48"/>
<polygon fill="black" stroke="black" points="884.99,-273.03 874.97,-269.58 880.66,-278.53 884.99,-273.03"/>
</g>
</g>
</svg>
