<?xml version="1.0" encoding="UTF-8" standalone="no"?>
<!DOCTYPE svg PUBLIC "-//W3C//DTD SVG 1.1//EN"
 "http://www.w3.org/Graphics/SVG/1.1/DTD/svg11.dtd">
<!-- Generated by graphviz version 13.1.0 (20250701.1702)
 -->
<!-- Title: isisPowderCreateVanadium Pages: 1 -->
<svg width="1342pt" height="621pt"
 viewBox="0.00 0.00 1342.00 621.00" xmlns="http://www.w3.org/2000/svg" xmlns:xlink="http://www.w3.org/1999/xlink">
<g id="graph0" class="graph" transform="scale(1 1) rotate(0) translate(4 617.46)">
<title>isisPowderCreateVanadium</title>
<polygon fill="white" stroke="none" points="-4,4 -4,-617.46 1337.69,-617.46 1337.69,4 -4,4"/>
<text xml:space="preserve" text-anchor="middle" x="666.85" y="-596.16" font-family="Helvetica,sans-Serif" font-size="14.00">ISISPowder &#45; Normalise By Current</text>
<!-- label_normaliseByCurrentGeneric -->
<g id="node1" class="node">
<title>label_normaliseByCurrentGeneric</title>
<ellipse fill="lightgrey" stroke="black" cx="161.69" cy="-570.21" rx="161.69" ry="18"/>
<text xml:space="preserve" text-anchor="middle" x="161.69" y="-565.53" font-family="Helvetica,sans-Serif" font-size="14.00">Normalise by Current &#45; Generic</text>
</g>
<!-- alg_NormaliseByCurrent -->
<g id="node7" class="node">
<title>alg_NormaliseByCurrent</title>
<path fill="lightskyblue" stroke="black" d="M231.19,-516.21C231.19,-516.21 92.19,-516.21 92.19,-516.21 86.19,-516.21 80.19,-510.21 80.19,-504.21 80.19,-504.21 80.19,-492.21 80.19,-492.21 80.19,-486.21 86.19,-480.21 92.19,-480.21 92.19,-480.21 231.19,-480.21 231.19,-480.21 237.19,-480.21 243.19,-486.21 243.19,-492.21 243.19,-492.21 243.19,-504.21 243.19,-504.21 243.19,-510.21 237.19,-516.21 231.19,-516.21"/>
<text xml:space="preserve" text-anchor="middle" x="161.69" y="-493.53" font-family="Helvetica,sans-Serif" font-size="14.00">Normalise by Current</text>
</g>
<!-- label_normaliseByCurrentGeneric&#45;&gt;alg_NormaliseByCurrent -->
<g id="edge1" class="edge">
<title>label_normaliseByCurrentGeneric&#45;&gt;alg_NormaliseByCurrent</title>
<path fill="none" stroke="black" d="M161.69,-551.9C161.69,-544.61 161.69,-535.93 161.69,-527.74"/>
<polygon fill="black" stroke="black" points="165.19,-527.83 161.69,-517.83 158.19,-527.83 165.19,-527.83"/>
</g>
<!-- label_normaliseByCurrentPearl -->
<g id="node2" class="node">
<title>label_normaliseByCurrentPearl</title>
<ellipse fill="lightgrey" stroke="black" cx="496.69" cy="-570.21" rx="155.38" ry="18"/>
<text xml:space="preserve" text-anchor="middle" x="496.69" y="-565.53" font-family="Helvetica,sans-Serif" font-size="14.00">Normalise by Current &#45; PEARL</text>
</g>
<!-- alg_ExtractSpectrumPearl -->
<g id="node12" class="node">
<title>alg_ExtractSpectrumPearl</title>
<path fill="lightskyblue" stroke="black" d="M864.44,-516.21C864.44,-516.21 750.94,-516.21 750.94,-516.21 744.94,-516.21 738.94,-510.21 738.94,-504.21 738.94,-504.21 738.94,-492.21 738.94,-492.21 738.94,-486.21 744.94,-480.21 750.94,-480.21 750.94,-480.21 864.44,-480.21 864.44,-480.21 870.44,-480.21 876.44,-486.21 876.44,-492.21 876.44,-492.21 876.44,-504.21 876.44,-504.21 876.44,-510.21 870.44,-516.21 864.44,-516.21"/>
<text xml:space="preserve" text-anchor="middle" x="807.69" y="-493.53" font-family="Helvetica,sans-Serif" font-size="14.00">Extract Spectrum</text>
</g>
<!-- label_normaliseByCurrentPearl&#45;&gt;alg_ExtractSpectrumPearl -->
<g id="edge2" class="edge">
<title>label_normaliseByCurrentPearl&#45;&gt;alg_ExtractSpectrumPearl</title>
<path fill="none" stroke="black" d="M565.71,-553.67C613.54,-542.91 677.38,-528.54 727.48,-517.26"/>
<polygon fill="black" stroke="black" points="728.13,-520.7 737.12,-515.09 726.59,-513.87 728.13,-520.7"/>
</g>
<!-- param_advConfigMonitorSpectrum -->
<g id="node3" class="node">
<title>param_advConfigMonitorSpectrum</title>
<ellipse fill="khaki" stroke="black" cx="825.69" cy="-570.21" rx="155.38" ry="18"/>
<text xml:space="preserve" text-anchor="middle" x="825.69" y="-565.53" font-family="Helvetica,sans-Serif" font-size="14.00">Adv config: Monitor spectrum</text>
</g>
<!-- param_advConfigMonitorSpectrum&#45;&gt;alg_ExtractSpectrumPearl -->
<g id="edge4" class="edge">
<title>param_advConfigMonitorSpectrum&#45;&gt;alg_ExtractSpectrumPearl</title>
<path fill="none" stroke="black" d="M821.24,-551.9C819.35,-544.53 817.08,-535.73 814.96,-527.46"/>
<polygon fill="black" stroke="black" points="818.35,-526.59 812.47,-517.78 811.57,-528.33 818.35,-526.59"/>
</g>
<!-- param_advConfigMonitorLambdaCropRange -->
<g id="node4" class="node">
<title>param_advConfigMonitorLambdaCropRange</title>
<ellipse fill="khaki" stroke="black" cx="1056.69" cy="-414.16" rx="147.61" ry="30.05"/>
<text xml:space="preserve" text-anchor="middle" x="1056.69" y="-418.11" font-family="Helvetica,sans-Serif" font-size="14.00">Adv config:</text>
<text xml:space="preserve" text-anchor="middle" x="1056.69" y="-400.86" font-family="Helvetica,sans-Serif" font-size="14.00"> Monitor lambda crop range</text>
</g>
<!-- alg_CropWorkspace -->
<g id="node11" class="node">
<title>alg_CropWorkspace</title>
<path fill="lightskyblue" stroke="black" d="M919.94,-348.1C919.94,-348.1 815.44,-348.1 815.44,-348.1 809.44,-348.1 803.44,-342.1 803.44,-336.1 803.44,-336.1 803.44,-324.1 803.44,-324.1 803.44,-318.1 809.44,-312.1 815.44,-312.1 815.44,-312.1 919.94,-312.1 919.94,-312.1 925.94,-312.1 931.94,-318.1 931.94,-324.1 931.94,-324.1 931.94,-336.1 931.94,-336.1 931.94,-342.1 925.94,-348.1 919.94,-348.1"/>
<text xml:space="preserve" text-anchor="middle" x="867.69" y="-325.43" font-family="Helvetica,sans-Serif" font-size="14.00">Crop Workspace</text>
</g>
<!-- param_advConfigMonitorLambdaCropRange&#45;&gt;alg_CropWorkspace -->
<g id="edge6" class="edge">
<title>param_advConfigMonitorLambdaCropRange&#45;&gt;alg_CropWorkspace</title>
<path fill="none" stroke="black" d="M995.07,-386.4C970.22,-375.62 941.91,-363.32 918.29,-353.07"/>
<polygon fill="black" stroke="black" points="919.76,-349.89 909.19,-349.12 916.97,-356.31 919.76,-349.89"/>
</g>
<!-- param_advConfigMonitorSplineCoefficient -->
<g id="node5" class="node">
<title>param_advConfigMonitorSplineCoefficient</title>
<ellipse fill="khaki" stroke="black" cx="1066.69" cy="-246.05" rx="137.53" ry="30.05"/>
<text xml:space="preserve" text-anchor="middle" x="1066.69" y="-250" font-family="Helvetica,sans-Serif" font-size="14.00">Adv config:</text>
<text xml:space="preserve" text-anchor="middle" x="1066.69" y="-232.75" font-family="Helvetica,sans-Serif" font-size="14.00"> Monitor spline coefficient</text>
</g>
<!-- alg_SplineBackground -->
<g id="node15" class="node">
<title>alg_SplineBackground</title>
<path fill="lightskyblue" stroke="black" d="M1127.94,-180C1127.94,-180 1005.44,-180 1005.44,-180 999.44,-180 993.44,-174 993.44,-168 993.44,-168 993.44,-156 993.44,-156 993.44,-150 999.44,-144 1005.44,-144 1005.44,-144 1127.94,-144 1127.94,-144 1133.94,-144 1139.94,-150 1139.94,-156 1139.94,-156 1139.94,-168 1139.94,-168 1139.94,-174 1133.94,-180 1127.94,-180"/>
<text xml:space="preserve" text-anchor="middle" x="1066.69" y="-157.32" font-family="Helvetica,sans-Serif" font-size="14.00">Spline Background</text>
</g>
<!-- param_advConfigMonitorSplineCoefficient&#45;&gt;alg_SplineBackground -->
<g id="edge10" class="edge">
<title>param_advConfigMonitorSplineCoefficient&#45;&gt;alg_SplineBackground</title>
<path fill="none" stroke="black" d="M1066.69,-215.89C1066.69,-207.94 1066.69,-199.34 1066.69,-191.42"/>
<polygon fill="black" stroke="black" points="1070.19,-191.64 1066.69,-181.64 1063.19,-191.64 1070.19,-191.64"/>
</g>
<!-- param_inputWorkspace -->
<g id="node6" class="node">
<title>param_inputWorkspace</title>
<ellipse fill="khaki" stroke="black" cx="1197.69" cy="-570.21" rx="127.49" ry="18"/>
<text xml:space="preserve" text-anchor="middle" x="1197.69" y="-565.53" font-family="Helvetica,sans-Serif" font-size="14.00">Workspace to normalise</text>
</g>
<!-- alg_ConvertUnitsWavelengthInputWs -->
<g id="node10" class="node">
<title>alg_ConvertUnitsWavelengthInputWs</title>
<path fill="lightskyblue" stroke="black" d="M1321.69,-348.1C1321.69,-348.1 1143.69,-348.1 1143.69,-348.1 1137.69,-348.1 1131.69,-342.1 1131.69,-336.1 1131.69,-336.1 1131.69,-324.1 1131.69,-324.1 1131.69,-318.1 1137.69,-312.1 1143.69,-312.1 1143.69,-312.1 1321.69,-312.1 1321.69,-312.1 1327.69,-312.1 1333.69,-318.1 1333.69,-324.1 1333.69,-324.1 1333.69,-336.1 1333.69,-336.1 1333.69,-342.1 1327.69,-348.1 1321.69,-348.1"/>
<text xml:space="preserve" text-anchor="middle" x="1232.69" y="-325.43" font-family="Helvetica,sans-Serif" font-size="14.00">Convert Units: Wavelength</text>
</g>
<!-- param_inputWorkspace&#45;&gt;alg_ConvertUnitsWavelengthInputWs -->
<g id="edge11" class="edge">
<title>param_inputWorkspace&#45;&gt;alg_ConvertUnitsWavelengthInputWs</title>
<path fill="none" stroke="black" d="M1200.21,-552.08C1206.16,-511.6 1221.15,-409.63 1228.5,-359.64"/>
<polygon fill="black" stroke="black" points="1231.94,-360.29 1229.93,-349.89 1225.01,-359.27 1231.94,-360.29"/>
</g>
<!-- param_inputWorkspace&#45;&gt;alg_ExtractSpectrumPearl -->
<g id="edge3" class="edge">
<title>param_inputWorkspace&#45;&gt;alg_ExtractSpectrumPearl</title>
<path fill="none" stroke="black" d="M1121.1,-555.46C1053.86,-543.39 956.38,-525.9 888.04,-513.63"/>
<polygon fill="black" stroke="black" points="888.86,-510.22 878.4,-511.9 887.62,-517.11 888.86,-510.22"/>
</g>
<!-- alg_ConvertUnitsTOF -->
<g id="node8" class="node">
<title>alg_ConvertUnitsTOF</title>
<path fill="lightskyblue" stroke="black" d="M1211.69,-36C1211.69,-36 1087.69,-36 1087.69,-36 1081.69,-36 1075.69,-30 1075.69,-24 1075.69,-24 1075.69,-12 1075.69,-12 1075.69,-6 1081.69,0 1087.69,0 1087.69,0 1211.69,0 1211.69,0 1217.69,0 1223.69,-6 1223.69,-12 1223.69,-12 1223.69,-24 1223.69,-24 1223.69,-30 1217.69,-36 1211.69,-36"/>
<text xml:space="preserve" text-anchor="middle" x="1149.69" y="-13.32" font-family="Helvetica,sans-Serif" font-size="14.00">Convert Units: TOF</text>
</g>
<!-- alg_ConvertUnitsWavelength -->
<g id="node9" class="node">
<title>alg_ConvertUnitsWavelength</title>
<path fill="lightskyblue" stroke="black" d="M878.69,-432.16C878.69,-432.16 700.69,-432.16 700.69,-432.16 694.69,-432.16 688.69,-426.16 688.69,-420.16 688.69,-420.16 688.69,-408.16 688.69,-408.16 688.69,-402.16 694.69,-396.16 700.69,-396.16 700.69,-396.16 878.69,-396.16 878.69,-396.16 884.69,-396.16 890.69,-402.16 890.69,-408.16 890.69,-408.16 890.69,-420.16 890.69,-420.16 890.69,-426.16 884.69,-432.16 878.69,-432.16"/>
<text xml:space="preserve" text-anchor="middle" x="789.69" y="-409.48" font-family="Helvetica,sans-Serif" font-size="14.00">Convert Units: Wavelength</text>
</g>
<!-- alg_ConvertUnitsWavelength&#45;&gt;alg_CropWorkspace -->
<g id="edge7" class="edge">
<title>alg_ConvertUnitsWavelength&#45;&gt;alg_CropWorkspace</title>
<path fill="none" stroke="black" d="M806.23,-395.75C816.99,-384.44 831.2,-369.49 843.25,-356.82"/>
<polygon fill="black" stroke="black" points="845.78,-359.24 850.13,-349.58 840.7,-354.41 845.78,-359.24"/>
</g>
<!-- alg_NormaliseToMonitor -->
<g id="node14" class="node">
<title>alg_NormaliseToMonitor</title>
<path fill="lightskyblue" stroke="black" d="M1218.44,-108C1218.44,-108 1080.94,-108 1080.94,-108 1074.94,-108 1068.94,-102 1068.94,-96 1068.94,-96 1068.94,-84 1068.94,-84 1068.94,-78 1074.94,-72 1080.94,-72 1080.94,-72 1218.44,-72 1218.44,-72 1224.44,-72 1230.44,-78 1230.44,-84 1230.44,-84 1230.44,-96 1230.44,-96 1230.44,-102 1224.44,-108 1218.44,-108"/>
<text xml:space="preserve" text-anchor="middle" x="1149.69" y="-85.33" font-family="Helvetica,sans-Serif" font-size="14.00">Normalise to monitor</text>
</g>
<!-- alg_ConvertUnitsWavelengthInputWs&#45;&gt;alg_NormaliseToMonitor -->
<g id="edge13" class="edge">
<title>alg_ConvertUnitsWavelengthInputWs&#45;&gt;alg_NormaliseToMonitor</title>
<path fill="none" stroke="black" d="M1231.44,-311.85C1229.45,-289.32 1224.58,-248.89 1213.69,-216 1201.95,-180.56 1181.36,-142.79 1166.7,-118.17"/>
<polygon fill="black" stroke="black" points="1169.79,-116.5 1161.61,-109.75 1163.8,-120.12 1169.79,-116.5"/>
</g>
<!-- alg_MaskBins -->
<g id="node13" class="node">
<title>alg_MaskBins</title>
<path fill="lightskyblue" stroke="black" d="M898.94,-264.05C898.94,-264.05 836.44,-264.05 836.44,-264.05 830.44,-264.05 824.44,-258.05 824.44,-252.05 824.44,-252.05 824.44,-240.05 824.44,-240.05 824.44,-234.05 830.44,-228.05 836.44,-228.05 836.44,-228.05 898.94,-228.05 898.94,-228.05 904.94,-228.05 910.94,-234.05 910.94,-240.05 910.94,-240.05 910.94,-252.05 910.94,-252.05 910.94,-258.05 904.94,-264.05 898.94,-264.05"/>
<text xml:space="preserve" text-anchor="middle" x="867.69" y="-241.38" font-family="Helvetica,sans-Serif" font-size="14.00">Mask Bins</text>
</g>
<!-- alg_CropWorkspace&#45;&gt;alg_MaskBins -->
<g id="edge8" class="edge">
<title>alg_CropWorkspace&#45;&gt;alg_MaskBins</title>
<path fill="none" stroke="black" d="M867.69,-311.7C867.69,-301.26 867.69,-287.72 867.69,-275.73"/>
<polygon fill="black" stroke="black" points="871.19,-275.94 867.69,-265.94 864.19,-275.94 871.19,-275.94"/>
</g>
<!-- alg_ExtractSpectrumPearl&#45;&gt;alg_ConvertUnitsWavelength -->
<g id="edge5" class="edge">
<title>alg_ExtractSpectrumPearl&#45;&gt;alg_ConvertUnitsWavelength</title>
<path fill="none" stroke="black" d="M803.87,-479.81C801.56,-469.25 798.55,-455.54 795.9,-443.46"/>
<polygon fill="black" stroke="black" points="799.39,-443.03 793.83,-434.01 792.55,-444.53 799.39,-443.03"/>
</g>
<!-- alg_MaskBins&#45;&gt;alg_SplineBackground -->
<g id="edge9" class="edge">
<title>alg_MaskBins&#45;&gt;alg_SplineBackground</title>
<path fill="none" stroke="black" d="M896.96,-227.6C904.26,-223.56 912.16,-219.43 919.69,-216 945.72,-204.13 975.24,-193.05 1000.97,-184.12"/>
<polygon fill="black" stroke="black" points="1001.98,-187.47 1010.31,-180.92 999.71,-180.85 1001.98,-187.47"/>
</g>
<!-- alg_NormaliseToMonitor&#45;&gt;alg_ConvertUnitsTOF -->
<g id="edge14" class="edge">
<title>alg_NormaliseToMonitor&#45;&gt;alg_ConvertUnitsTOF</title>
<path fill="none" stroke="black" d="M1149.69,-71.7C1149.69,-64.41 1149.69,-55.73 1149.69,-47.54"/>
<polygon fill="black" stroke="black" points="1153.19,-47.62 1149.69,-37.62 1146.19,-47.62 1153.19,-47.62"/>
</g>
<!-- alg_SplineBackground&#45;&gt;alg_NormaliseToMonitor -->
<g id="edge12" class="edge">
<title>alg_SplineBackground&#45;&gt;alg_NormaliseToMonitor</title>
<path fill="none" stroke="black" d="M1087.21,-143.7C1097.28,-135.2 1109.6,-124.81 1120.62,-115.51"/>
<polygon fill="black" stroke="black" points="1122.58,-118.45 1127.97,-109.32 1118.06,-113.09 1122.58,-118.45"/>
</g>
</g>
</svg>
