<?xml version="1.0" encoding="UTF-8" standalone="no"?>
<!DOCTYPE svg PUBLIC "-//W3C//DTD SVG 1.1//EN"
 "http://www.w3.org/Graphics/SVG/1.1/DTD/svg11.dtd">
<!-- Generated by graphviz version 13.1.2 (20250809.0930)
 -->
<!-- Title: isisPowderfocus Pages: 1 -->
<svg width="1565pt" height="1521pt"
 viewBox="0.00 0.00 1565.00 1521.00" xmlns="http://www.w3.org/2000/svg" xmlns:xlink="http://www.w3.org/1999/xlink">
<g id="graph0" class="graph" transform="scale(1 1) rotate(0) translate(4 1517.25)">
<title>isisPowderfocus</title>
<polygon fill="white" stroke="none" points="-4,4 -4,-1517.25 1561.04,-1517.25 1561.04,4 -4,4"/>
<text xml:space="preserve" text-anchor="middle" x="778.52" y="-1495.95" font-family="Helvetica,sans-Serif" font-size="14.00">ISISPowder &#45; &#39;focus&#39;</text>
<!-- label_start -->
<g id="node1" class="node">
<title>label_start</title>
<ellipse fill="lightgrey" stroke="black" cx="506.25" cy="-1397" rx="127.49" ry="18"/>
<text xml:space="preserve" text-anchor="middle" x="506.25" y="-1392.33" font-family="Helvetica,sans-Serif" font-size="14.00">Start ISISPowder &#39;focus&#39;</text>
</g>
<!-- param_runNumbers -->
<g id="node2" class="node">
<title>param_runNumbers</title>
<ellipse fill="khaki" stroke="black" cx="506.25" cy="-1324" rx="148.01" ry="18"/>
<text xml:space="preserve" text-anchor="middle" x="506.25" y="-1319.33" font-family="Helvetica,sans-Serif" font-size="14.00">User param: Run number(s)</text>
</g>
<!-- label_start&#45;&gt;param_runNumbers -->
<g id="edge1" class="edge">
<title>label_start&#45;&gt;param_runNumbers</title>
<path fill="none" stroke="black" d="M506.25,-1378.81C506.25,-1371.23 506.25,-1362.1 506.25,-1353.54"/>
<polygon fill="black" stroke="black" points="509.75,-1353.54 506.25,-1343.54 502.75,-1353.54 509.75,-1353.54"/>
</g>
<!-- proc_LoadCurrentNormWS_1 -->
<g id="node11" class="node">
<title>proc_LoadCurrentNormWS_1</title>
<polygon fill="lightseagreen" stroke="black" points="1182.62,-1252.75 901.88,-1252.75 901.88,-1216.75 1182.62,-1216.75 1182.62,-1252.75"/>
<text xml:space="preserve" text-anchor="middle" x="1042.25" y="-1230.08" font-family="Helvetica,sans-Serif" font-size="14.00">Load current normalised workspace(s)</text>
</g>
<!-- param_runNumbers&#45;&gt;proc_LoadCurrentNormWS_1 -->
<g id="edge2" class="edge">
<title>param_runNumbers&#45;&gt;proc_LoadCurrentNormWS_1</title>
<path fill="none" stroke="black" d="M592.37,-1308.98C682.22,-1294.36 823.71,-1271.32 924,-1255"/>
<polygon fill="black" stroke="black" points="924.29,-1258.5 933.6,-1253.44 923.17,-1251.59 924.29,-1258.5"/>
</g>
<!-- param_sampleEmptyRunNumber -->
<g id="node3" class="node">
<title>param_sampleEmptyRunNumber</title>
<ellipse fill="khaki" stroke="black" cx="892.25" cy="-1324" rx="219.56" ry="18"/>
<text xml:space="preserve" text-anchor="middle" x="892.25" y="-1319.33" font-family="Helvetica,sans-Serif" font-size="14.00">User param: Sample empty run number(s)</text>
</g>
<!-- param_sampleEmptyRunNumber&#45;&gt;proc_LoadCurrentNormWS_1 -->
<g id="edge8" class="edge">
<title>param_sampleEmptyRunNumber&#45;&gt;proc_LoadCurrentNormWS_1</title>
<path fill="none" stroke="black" d="M921.89,-1305.76C945.03,-1292.3 977.39,-1273.47 1002.74,-1258.73"/>
<polygon fill="black" stroke="black" points="1004.23,-1261.92 1011.11,-1253.86 1000.71,-1255.86 1004.23,-1261.92"/>
</g>
<!-- param_vanNorm -->
<g id="node4" class="node">
<title>param_vanNorm</title>
<ellipse fill="khaki" stroke="black" cx="310.25" cy="-545.25" rx="192.21" ry="18"/>
<text xml:space="preserve" text-anchor="middle" x="310.25" y="-540.58" font-family="Helvetica,sans-Serif" font-size="14.00">User param: Vanadium normalisation</text>
</g>
<!-- if_van_normalisation -->
<g id="node28" class="node">
<title>if_van_normalisation</title>
<polygon fill="limegreen" stroke="black" points="322.25,-490.25 122.6,-472.25 322.25,-454.25 521.9,-472.25 322.25,-490.25"/>
<text xml:space="preserve" text-anchor="middle" x="322.25" y="-467.57" font-family="Helvetica,sans-Serif" font-size="14.00">If: Vanadium normalisation</text>
</g>
<!-- param_vanNorm&#45;&gt;if_van_normalisation -->
<g id="edge27" class="edge">
<title>param_vanNorm&#45;&gt;if_van_normalisation</title>
<path fill="none" stroke="black" d="M313.15,-527.06C314.45,-519.39 316.01,-510.14 317.48,-501.49"/>
<polygon fill="black" stroke="black" points="320.9,-502.21 319.12,-491.77 314,-501.05 320.9,-502.21"/>
</g>
<!-- param_calFileName -->
<g id="node5" class="node">
<title>param_calFileName</title>
<ellipse fill="khaki" stroke="black" cx="540.25" cy="-999.5" rx="112.24" ry="18"/>
<text xml:space="preserve" text-anchor="middle" x="540.25" y="-994.83" font-family="Helvetica,sans-Serif" font-size="14.00">Calibration file name</text>
</g>
<!-- alg_Align -->
<g id="node15" class="node">
<title>alg_Align</title>
<path fill="lightskyblue" stroke="black" d="M704.5,-944.5C704.5,-944.5 606,-944.5 606,-944.5 600,-944.5 594,-938.5 594,-932.5 594,-932.5 594,-920.5 594,-920.5 594,-914.5 600,-908.5 606,-908.5 606,-908.5 704.5,-908.5 704.5,-908.5 710.5,-908.5 716.5,-914.5 716.5,-920.5 716.5,-920.5 716.5,-932.5 716.5,-932.5 716.5,-938.5 710.5,-944.5 704.5,-944.5"/>
<text xml:space="preserve" text-anchor="middle" x="655.25" y="-921.83" font-family="Helvetica,sans-Serif" font-size="14.00">Align Detectors</text>
</g>
<!-- param_calFileName&#45;&gt;alg_Align -->
<g id="edge16" class="edge">
<title>param_calFileName&#45;&gt;alg_Align</title>
<path fill="none" stroke="black" d="M567.5,-981.67C582.35,-972.51 600.97,-961.01 617.23,-950.97"/>
<polygon fill="black" stroke="black" points="619.03,-953.97 625.7,-945.74 615.36,-948.02 619.03,-953.97"/>
</g>
<!-- param_calMapping_1 -->
<g id="node6" class="node">
<title>param_calMapping_1</title>
<ellipse fill="khaki" stroke="black" cx="1343.25" cy="-1470" rx="128.02" ry="18"/>
<text xml:space="preserve" text-anchor="middle" x="1343.25" y="-1465.33" font-family="Helvetica,sans-Serif" font-size="14.00">Calibration mapping file</text>
</g>
<!-- param_emptyRunNumber -->
<g id="node8" class="node">
<title>param_emptyRunNumber</title>
<ellipse fill="khaki" stroke="black" cx="1343.25" cy="-1397" rx="116.97" ry="18"/>
<text xml:space="preserve" text-anchor="middle" x="1343.25" y="-1392.33" font-family="Helvetica,sans-Serif" font-size="14.00">Empty run number(s)</text>
</g>
<!-- param_calMapping_1&#45;&gt;param_emptyRunNumber -->
<g id="edge3" class="edge">
<title>param_calMapping_1&#45;&gt;param_emptyRunNumber</title>
<path fill="none" stroke="black" d="M1343.25,-1451.81C1343.25,-1444.23 1343.25,-1435.1 1343.25,-1426.54"/>
<polygon fill="black" stroke="black" points="1346.75,-1426.54 1343.25,-1416.54 1339.75,-1426.54 1346.75,-1426.54"/>
</g>
<!-- param_calMapping_2 -->
<g id="node7" class="node">
<title>param_calMapping_2</title>
<ellipse fill="khaki" stroke="black" cx="399.25" cy="-1072.5" rx="128.02" ry="18"/>
<text xml:space="preserve" text-anchor="middle" x="399.25" y="-1067.83" font-family="Helvetica,sans-Serif" font-size="14.00">Calibration mapping file</text>
</g>
<!-- param_calMapping_2&#45;&gt;param_calFileName -->
<g id="edge15" class="edge">
<title>param_calMapping_2&#45;&gt;param_calFileName</title>
<path fill="none" stroke="black" d="M432.67,-1054.67C452.03,-1044.92 476.62,-1032.54 497.4,-1022.08"/>
<polygon fill="black" stroke="black" points="498.85,-1025.26 506.21,-1017.64 495.7,-1019.01 498.85,-1025.26"/>
</g>
<!-- if_presummed_empty_exists -->
<g id="node30" class="node">
<title>if_presummed_empty_exists</title>
<polygon fill="limegreen" stroke="black" points="1343.25,-1342 1129.46,-1324 1343.25,-1306 1557.04,-1324 1343.25,-1342"/>
<text xml:space="preserve" text-anchor="middle" x="1343.25" y="-1319.33" font-family="Helvetica,sans-Serif" font-size="14.00">If: Pre&#45;summed empty exists</text>
</g>
<!-- param_emptyRunNumber&#45;&gt;if_presummed_empty_exists -->
<g id="edge4" class="edge">
<title>param_emptyRunNumber&#45;&gt;if_presummed_empty_exists</title>
<path fill="none" stroke="black" d="M1343.25,-1378.81C1343.25,-1371.23 1343.25,-1362.1 1343.25,-1353.54"/>
<polygon fill="black" stroke="black" points="1346.75,-1353.54 1343.25,-1343.54 1339.75,-1353.54 1346.75,-1353.54"/>
</g>
<!-- param_groupingCalFile -->
<g id="node9" class="node">
<title>param_groupingCalFile</title>
<ellipse fill="khaki" stroke="black" cx="305.25" cy="-764.25" rx="179.05" ry="18"/>
<text xml:space="preserve" text-anchor="middle" x="305.25" y="-759.58" font-family="Helvetica,sans-Serif" font-size="14.00">Adv config: Grouping cal file name</text>
</g>
<!-- alg_DiffractionFocusing -->
<g id="node19" class="node">
<title>alg_DiffractionFocusing</title>
<path fill="lightskyblue" stroke="black" d="M721.25,-709.25C721.25,-709.25 591.25,-709.25 591.25,-709.25 585.25,-709.25 579.25,-703.25 579.25,-697.25 579.25,-697.25 579.25,-685.25 579.25,-685.25 579.25,-679.25 585.25,-673.25 591.25,-673.25 591.25,-673.25 721.25,-673.25 721.25,-673.25 727.25,-673.25 733.25,-679.25 733.25,-685.25 733.25,-685.25 733.25,-697.25 733.25,-697.25 733.25,-703.25 727.25,-709.25 721.25,-709.25"/>
<text xml:space="preserve" text-anchor="middle" x="656.25" y="-686.58" font-family="Helvetica,sans-Serif" font-size="14.00">Diffraction Focusing</text>
</g>
<!-- param_groupingCalFile&#45;&gt;alg_DiffractionFocusing -->
<g id="edge21" class="edge">
<title>param_groupingCalFile&#45;&gt;alg_DiffractionFocusing</title>
<path fill="none" stroke="black" d="M382.71,-747.58C437.41,-736.52 510.82,-721.67 567.81,-710.14"/>
<polygon fill="black" stroke="black" points="568.39,-713.59 577.5,-708.18 567.01,-706.73 568.39,-713.59"/>
</g>
<!-- param_rawTOFCropValues -->
<g id="node10" class="node">
<title>param_rawTOFCropValues</title>
<ellipse fill="khaki" stroke="black" cx="738.25" cy="-1072.5" rx="192.73" ry="18"/>
<text xml:space="preserve" text-anchor="middle" x="738.25" y="-1067.83" font-family="Helvetica,sans-Serif" font-size="14.00">Adv config: Raw TOF cropping values</text>
</g>
<!-- alg_CropRawTOF -->
<g id="node17" class="node">
<title>alg_CropRawTOF</title>
<path fill="lightskyblue" stroke="black" d="M914.25,-1017.5C914.25,-1017.5 736.25,-1017.5 736.25,-1017.5 730.25,-1017.5 724.25,-1011.5 724.25,-1005.5 724.25,-1005.5 724.25,-993.5 724.25,-993.5 724.25,-987.5 730.25,-981.5 736.25,-981.5 736.25,-981.5 914.25,-981.5 914.25,-981.5 920.25,-981.5 926.25,-987.5 926.25,-993.5 926.25,-993.5 926.25,-1005.5 926.25,-1005.5 926.25,-1011.5 920.25,-1017.5 914.25,-1017.5"/>
<text xml:space="preserve" text-anchor="middle" x="825.25" y="-994.83" font-family="Helvetica,sans-Serif" font-size="14.00">Crop data to expected TOF</text>
</g>
<!-- param_rawTOFCropValues&#45;&gt;alg_CropRawTOF -->
<g id="edge12" class="edge">
<title>param_rawTOFCropValues&#45;&gt;alg_CropRawTOF</title>
<path fill="none" stroke="black" d="M759.31,-1054.31C770.13,-1045.48 783.5,-1034.57 795.37,-1024.89"/>
<polygon fill="black" stroke="black" points="797.37,-1027.77 802.91,-1018.73 792.95,-1022.34 797.37,-1027.77"/>
</g>
<!-- alg_Subtract_van_empty -->
<g id="node25" class="node">
<title>alg_Subtract_van_empty</title>
<path fill="lightskyblue" stroke="black" d="M1249.88,-1179.75C1249.88,-1179.75 1018.62,-1179.75 1018.62,-1179.75 1012.62,-1179.75 1006.62,-1173.75 1006.62,-1167.75 1006.62,-1167.75 1006.62,-1155.75 1006.62,-1155.75 1006.62,-1149.75 1012.62,-1143.75 1018.62,-1143.75 1018.62,-1143.75 1249.88,-1143.75 1249.88,-1143.75 1255.88,-1143.75 1261.88,-1149.75 1261.88,-1155.75 1261.88,-1155.75 1261.88,-1167.75 1261.88,-1167.75 1261.88,-1173.75 1255.88,-1179.75 1249.88,-1179.75"/>
<text xml:space="preserve" text-anchor="middle" x="1134.25" y="-1157.08" font-family="Helvetica,sans-Serif" font-size="14.00">Subtract: runs &#45; instrument empty</text>
</g>
<!-- proc_LoadCurrentNormWS_1&#45;&gt;alg_Subtract_van_empty -->
<g id="edge10" class="edge">
<title>proc_LoadCurrentNormWS_1&#45;&gt;alg_Subtract_van_empty</title>
<path fill="none" stroke="black" d="M1064.52,-1216.56C1076.07,-1207.65 1090.38,-1196.61 1103.02,-1186.85"/>
<polygon fill="black" stroke="black" points="1104.89,-1189.83 1110.67,-1180.95 1100.61,-1184.29 1104.89,-1189.83"/>
</g>
<!-- proc_InstApplyAbsorbCorr -->
<g id="node12" class="node">
<title>proc_InstApplyAbsorbCorr</title>
<polygon fill="lightseagreen" stroke="black" points="809.75,-782.25 502.75,-782.25 502.75,-746.25 809.75,-746.25 809.75,-782.25"/>
<text xml:space="preserve" text-anchor="middle" x="656.25" y="-759.58" font-family="Helvetica,sans-Serif" font-size="14.00">Inst specific: Apply absorption corrections</text>
</g>
<!-- proc_InstApplyAbsorbCorr&#45;&gt;alg_DiffractionFocusing -->
<g id="edge23" class="edge">
<title>proc_InstApplyAbsorbCorr&#45;&gt;alg_DiffractionFocusing</title>
<path fill="none" stroke="black" d="M656.25,-746.06C656.25,-738.48 656.25,-729.35 656.25,-720.79"/>
<polygon fill="black" stroke="black" points="659.75,-720.79 656.25,-710.79 652.75,-720.79 659.75,-720.79"/>
</g>
<!-- proc_InstReduceBinWidths -->
<g id="node13" class="node">
<title>proc_InstReduceBinWidths</title>
<polygon fill="lightseagreen" stroke="black" points="496.25,-109 168.25,-109 168.25,-73 496.25,-73 496.25,-109"/>
<text xml:space="preserve" text-anchor="middle" x="332.25" y="-86.33" font-family="Helvetica,sans-Serif" font-size="14.00">Inst specific: Rebin to reduce final bin widths</text>
</g>
<!-- proc_InstSaveFocused -->
<g id="node14" class="node">
<title>proc_InstSaveFocused</title>
<polygon fill="lightseagreen" stroke="black" points="456.12,-36 208.38,-36 208.38,0 456.12,0 456.12,-36"/>
<text xml:space="preserve" text-anchor="middle" x="332.25" y="-13.32" font-family="Helvetica,sans-Serif" font-size="14.00">Inst specific: Save focused banks</text>
</g>
<!-- proc_InstReduceBinWidths&#45;&gt;proc_InstSaveFocused -->
<g id="edge34" class="edge">
<title>proc_InstReduceBinWidths&#45;&gt;proc_InstSaveFocused</title>
<path fill="none" stroke="black" d="M332.25,-72.81C332.25,-65.23 332.25,-56.1 332.25,-47.54"/>
<polygon fill="black" stroke="black" points="335.75,-47.54 332.25,-37.54 328.75,-47.54 335.75,-47.54"/>
</g>
<!-- if_apply_absorb -->
<g id="node27" class="node">
<title>if_apply_absorb</title>
<polygon fill="limegreen" stroke="black" points="751.25,-871.5 590.29,-853.5 751.25,-835.5 912.21,-853.5 751.25,-871.5"/>
<text xml:space="preserve" text-anchor="middle" x="751.25" y="-848.83" font-family="Helvetica,sans-Serif" font-size="14.00">If: absorb corrections</text>
</g>
<!-- alg_Align&#45;&gt;if_apply_absorb -->
<g id="edge18" class="edge">
<title>alg_Align&#45;&gt;if_apply_absorb</title>
<path fill="none" stroke="black" d="M678.49,-908.31C691.47,-898.71 707.79,-886.64 721.68,-876.37"/>
<polygon fill="black" stroke="black" points="723.66,-879.26 729.62,-870.5 719.49,-873.63 723.66,-879.26"/>
</g>
<!-- alg_ConvertUnitsTOFVan -->
<g id="node16" class="node">
<title>alg_ConvertUnitsTOFVan</title>
<path fill="lightskyblue" stroke="black" d="M718.25,-636.25C718.25,-636.25 594.25,-636.25 594.25,-636.25 588.25,-636.25 582.25,-630.25 582.25,-624.25 582.25,-624.25 582.25,-612.25 582.25,-612.25 582.25,-606.25 588.25,-600.25 594.25,-600.25 594.25,-600.25 718.25,-600.25 718.25,-600.25 724.25,-600.25 730.25,-606.25 730.25,-612.25 730.25,-612.25 730.25,-624.25 730.25,-624.25 730.25,-630.25 724.25,-636.25 718.25,-636.25"/>
<text xml:space="preserve" text-anchor="middle" x="656.25" y="-613.58" font-family="Helvetica,sans-Serif" font-size="14.00">Convert Units: TOF</text>
</g>
<!-- alg_ExtractWsSpectra -->
<g id="node21" class="node">
<title>alg_ExtractWsSpectra</title>
<path fill="lightskyblue" stroke="black" d="M779.75,-563.25C779.75,-563.25 532.75,-563.25 532.75,-563.25 526.75,-563.25 520.75,-557.25 520.75,-551.25 520.75,-551.25 520.75,-539.25 520.75,-539.25 520.75,-533.25 526.75,-527.25 532.75,-527.25 532.75,-527.25 779.75,-527.25 779.75,-527.25 785.75,-527.25 791.75,-533.25 791.75,-539.25 791.75,-539.25 791.75,-551.25 791.75,-551.25 791.75,-557.25 785.75,-563.25 779.75,-563.25"/>
<text xml:space="preserve" text-anchor="middle" x="656.25" y="-540.58" font-family="Helvetica,sans-Serif" font-size="14.00">Extract spectra into individual banks</text>
</g>
<!-- alg_ConvertUnitsTOFVan&#45;&gt;alg_ExtractWsSpectra -->
<g id="edge25" class="edge">
<title>alg_ConvertUnitsTOFVan&#45;&gt;alg_ExtractWsSpectra</title>
<path fill="none" stroke="black" d="M656.25,-600.06C656.25,-592.48 656.25,-583.35 656.25,-574.79"/>
<polygon fill="black" stroke="black" points="659.75,-574.79 656.25,-564.79 652.75,-574.79 659.75,-574.79"/>
</g>
<!-- alg_CropRawTOF&#45;&gt;alg_Align -->
<g id="edge17" class="edge">
<title>alg_CropRawTOF&#45;&gt;alg_Align</title>
<path fill="none" stroke="black" d="M783.66,-981.13C760.72,-971.55 732,-959.55 707.54,-949.34"/>
<polygon fill="black" stroke="black" points="708.97,-946.14 698.39,-945.52 706.27,-952.6 708.97,-946.14"/>
</g>
<!-- alg_CropFinalTOF -->
<g id="node18" class="node">
<title>alg_CropFinalTOF</title>
<path fill="lightskyblue" stroke="black" d="M426.88,-182C426.88,-182 237.62,-182 237.62,-182 231.62,-182 225.62,-176 225.62,-170 225.62,-170 225.62,-158 225.62,-158 225.62,-152 231.62,-146 237.62,-146 237.62,-146 426.88,-146 426.88,-146 432.88,-146 438.88,-152 438.88,-158 438.88,-158 438.88,-170 438.88,-170 438.88,-176 432.88,-182 426.88,-182"/>
<text xml:space="preserve" text-anchor="middle" x="332.25" y="-159.32" font-family="Helvetica,sans-Serif" font-size="14.00">Crop data to final TOF range</text>
</g>
<!-- alg_CropFinalTOF&#45;&gt;proc_InstReduceBinWidths -->
<g id="edge33" class="edge">
<title>alg_CropFinalTOF&#45;&gt;proc_InstReduceBinWidths</title>
<path fill="none" stroke="black" d="M332.25,-145.81C332.25,-138.23 332.25,-129.1 332.25,-120.54"/>
<polygon fill="black" stroke="black" points="335.75,-120.54 332.25,-110.54 328.75,-120.54 335.75,-120.54"/>
</g>
<!-- alg_DiffractionFocusing&#45;&gt;alg_ConvertUnitsTOFVan -->
<g id="edge24" class="edge">
<title>alg_DiffractionFocusing&#45;&gt;alg_ConvertUnitsTOFVan</title>
<path fill="none" stroke="black" d="M656.25,-673.06C656.25,-665.48 656.25,-656.35 656.25,-647.79"/>
<polygon fill="black" stroke="black" points="659.75,-647.79 656.25,-637.79 652.75,-647.79 659.75,-647.79"/>
</g>
<!-- alg_DivideVan -->
<g id="node20" class="node">
<title>alg_DivideVan</title>
<path fill="lightskyblue" stroke="black" d="M317.12,-255C317.12,-255 159.38,-255 159.38,-255 153.38,-255 147.38,-249 147.38,-243 147.38,-243 147.38,-231 147.38,-231 147.38,-225 153.38,-219 159.38,-219 159.38,-219 317.12,-219 317.12,-219 323.12,-219 329.12,-225 329.12,-231 329.12,-231 329.12,-243 329.12,-243 329.12,-249 323.12,-255 317.12,-255"/>
<text xml:space="preserve" text-anchor="middle" x="238.25" y="-232.32" font-family="Helvetica,sans-Serif" font-size="14.00">Divide: data / Vanadium</text>
</g>
<!-- alg_DivideVan&#45;&gt;alg_CropFinalTOF -->
<g id="edge32" class="edge">
<title>alg_DivideVan&#45;&gt;alg_CropFinalTOF</title>
<path fill="none" stroke="black" d="M261,-218.81C272.81,-209.9 287.43,-198.86 300.34,-189.1"/>
<polygon fill="black" stroke="black" points="302.3,-192.01 308.17,-183.19 298.08,-186.42 302.3,-192.01"/>
</g>
<!-- alg_ExtractWsSpectra&#45;&gt;if_van_normalisation -->
<g id="edge26" class="edge">
<title>alg_ExtractWsSpectra&#45;&gt;if_van_normalisation</title>
<path fill="none" stroke="black" d="M574.12,-526.79C517.85,-514.83 444.09,-499.15 390.95,-487.85"/>
<polygon fill="black" stroke="black" points="391.92,-484.48 381.41,-485.83 390.47,-491.33 391.92,-484.48"/>
</g>
<!-- alg_LoadNexusVan -->
<g id="node22" class="node">
<title>alg_LoadNexusVan</title>
<path fill="lightskyblue" stroke="black" d="M332.5,-401C332.5,-401 12,-401 12,-401 6,-401 0,-395 0,-389 0,-389 0,-377 0,-377 0,-371 6,-365 12,-365 12,-365 332.5,-365 332.5,-365 338.5,-365 344.5,-371 344.5,-377 344.5,-377 344.5,-389 344.5,-389 344.5,-395 338.5,-401 332.5,-401"/>
<text xml:space="preserve" text-anchor="middle" x="172.25" y="-378.32" font-family="Helvetica,sans-Serif" font-size="14.00">Load splined Vanadium from &#39;create_vanadium&#39;</text>
</g>
<!-- alg_RebinToWorkspaceVan -->
<g id="node23" class="node">
<title>alg_RebinToWorkspaceVan</title>
<path fill="lightskyblue" stroke="black" d="M316.75,-328C316.75,-328 69.75,-328 69.75,-328 63.75,-328 57.75,-322 57.75,-316 57.75,-316 57.75,-304 57.75,-304 57.75,-298 63.75,-292 69.75,-292 69.75,-292 316.75,-292 316.75,-292 322.75,-292 328.75,-298 328.75,-304 328.75,-304 328.75,-316 328.75,-316 328.75,-322 322.75,-328 316.75,-328"/>
<text xml:space="preserve" text-anchor="middle" x="193.25" y="-305.32" font-family="Helvetica,sans-Serif" font-size="14.00">Rebin: Van ws to match data binning</text>
</g>
<!-- alg_LoadNexusVan&#45;&gt;alg_RebinToWorkspaceVan -->
<g id="edge29" class="edge">
<title>alg_LoadNexusVan&#45;&gt;alg_RebinToWorkspaceVan</title>
<path fill="none" stroke="black" d="M177.33,-364.81C179.63,-357.05 182.4,-347.68 184.98,-338.95"/>
<polygon fill="black" stroke="black" points="188.3,-340.06 187.78,-329.48 181.59,-338.08 188.3,-340.06"/>
</g>
<!-- alg_RebinToWorkspaceVan&#45;&gt;alg_DivideVan -->
<g id="edge30" class="edge">
<title>alg_RebinToWorkspaceVan&#45;&gt;alg_DivideVan</title>
<path fill="none" stroke="black" d="M204.14,-291.81C209.34,-283.62 215.67,-273.62 221.46,-264.48"/>
<polygon fill="black" stroke="black" points="224.25,-266.63 226.65,-256.31 218.34,-262.88 224.25,-266.63"/>
</g>
<!-- alg_Subtract_sample_empty -->
<g id="node24" class="node">
<title>alg_Subtract_sample_empty</title>
<path fill="lightskyblue" stroke="black" d="M1165.75,-1090.5C1165.75,-1090.5 960.75,-1090.5 960.75,-1090.5 954.75,-1090.5 948.75,-1084.5 948.75,-1078.5 948.75,-1078.5 948.75,-1066.5 948.75,-1066.5 948.75,-1060.5 954.75,-1054.5 960.75,-1054.5 960.75,-1054.5 1165.75,-1054.5 1165.75,-1054.5 1171.75,-1054.5 1177.75,-1060.5 1177.75,-1066.5 1177.75,-1066.5 1177.75,-1078.5 1177.75,-1078.5 1177.75,-1084.5 1171.75,-1090.5 1165.75,-1090.5"/>
<text xml:space="preserve" text-anchor="middle" x="1063.25" y="-1067.83" font-family="Helvetica,sans-Serif" font-size="14.00">Subtract: runs &#45; sample empty</text>
</g>
<!-- alg_Subtract_sample_empty&#45;&gt;alg_CropRawTOF -->
<g id="edge13" class="edge">
<title>alg_Subtract_sample_empty&#45;&gt;alg_CropRawTOF</title>
<path fill="none" stroke="black" d="M1004.72,-1054.04C971.3,-1044.07 929.2,-1031.51 894.17,-1021.06"/>
<polygon fill="black" stroke="black" points="895.58,-1017.83 885,-1018.32 893.58,-1024.54 895.58,-1017.83"/>
</g>
<!-- alg_Subtract_van_empty&#45;&gt;alg_CropRawTOF -->
<g id="edge14" class="edge">
<title>alg_Subtract_van_empty&#45;&gt;alg_CropRawTOF</title>
<path fill="none" stroke="black" d="M1189.94,-1143.29C1197.2,-1138.7 1203.69,-1132.95 1208.25,-1125.75 1221.92,-1104.16 1202.39,-1066.59 1187.25,-1054.5 1149.6,-1024.42 1029.49,-1011.03 937.85,-1005.11"/>
<polygon fill="black" stroke="black" points="938.25,-1001.63 928.05,-1004.5 937.81,-1008.62 938.25,-1001.63"/>
</g>
<!-- alg_Subtract_van_empty&#45;&gt;alg_Subtract_sample_empty -->
<g id="edge11" class="edge">
<title>alg_Subtract_van_empty&#45;&gt;alg_Subtract_sample_empty</title>
<path fill="none" stroke="black" d="M1066.23,-1143.4C1058.67,-1138.83 1051.94,-1133.05 1047,-1125.75 1041.99,-1118.34 1042.86,-1109.3 1045.98,-1100.84"/>
<polygon fill="black" stroke="black" points="1049.06,-1102.51 1050.19,-1091.97 1042.74,-1099.5 1049.06,-1102.51"/>
<text xml:space="preserve" text-anchor="middle" x="1127.62" y="-1112.45" font-family="Helvetica,sans-Serif" font-size="14.00">If: Sample empty given</text>
</g>
<!-- alg_Load -->
<g id="node26" class="node">
<title>alg_Load</title>
<path fill="lightskyblue" stroke="black" d="M1308.25,-1252.75C1308.25,-1252.75 1278.25,-1252.75 1278.25,-1252.75 1272.25,-1252.75 1266.25,-1246.75 1266.25,-1240.75 1266.25,-1240.75 1266.25,-1228.75 1266.25,-1228.75 1266.25,-1222.75 1272.25,-1216.75 1278.25,-1216.75 1278.25,-1216.75 1308.25,-1216.75 1308.25,-1216.75 1314.25,-1216.75 1320.25,-1222.75 1320.25,-1228.75 1320.25,-1228.75 1320.25,-1240.75 1320.25,-1240.75 1320.25,-1246.75 1314.25,-1252.75 1308.25,-1252.75"/>
<text xml:space="preserve" text-anchor="middle" x="1293.25" y="-1230.08" font-family="Helvetica,sans-Serif" font-size="14.00">Load</text>
</g>
<!-- alg_Load&#45;&gt;alg_Subtract_van_empty -->
<g id="edge9" class="edge">
<title>alg_Load&#45;&gt;alg_Subtract_van_empty</title>
<path fill="none" stroke="black" d="M1265.92,-1221.54C1243.42,-1211.5 1210.95,-1197 1183.88,-1184.91"/>
<polygon fill="black" stroke="black" points="1185.36,-1181.74 1174.8,-1180.86 1182.51,-1188.13 1185.36,-1181.74"/>
</g>
<!-- if_apply_absorb&#45;&gt;proc_InstApplyAbsorbCorr -->
<g id="edge20" class="edge">
<title>if_apply_absorb&#45;&gt;proc_InstApplyAbsorbCorr</title>
<path fill="none" stroke="black" d="M734.27,-836.9C720.09,-823.88 699.61,-805.08 683.2,-790"/>
<polygon fill="black" stroke="black" points="685.89,-787.72 676.15,-783.53 681.15,-792.87 685.89,-787.72"/>
<text xml:space="preserve" text-anchor="middle" x="727.26" y="-804.2" font-family="Helvetica,sans-Serif" font-size="14.00">True</text>
</g>
<!-- if_apply_absorb&#45;&gt;alg_DiffractionFocusing -->
<g id="edge22" class="edge">
<title>if_apply_absorb&#45;&gt;alg_DiffractionFocusing</title>
<path fill="none" stroke="black" d="M772.44,-837.69C799.69,-816.81 840.95,-777.74 818.25,-746.25 801.03,-722.36 772.79,-708.88 744.67,-701.33"/>
<polygon fill="black" stroke="black" points="745.52,-697.94 734.98,-698.98 743.87,-704.74 745.52,-697.94"/>
<text xml:space="preserve" text-anchor="middle" x="842.06" y="-759.58" font-family="Helvetica,sans-Serif" font-size="14.00">False</text>
</g>
<!-- if_van_normalisation&#45;&gt;alg_CropFinalTOF -->
<g id="edge31" class="edge">
<title>if_van_normalisation&#45;&gt;alg_CropFinalTOF</title>
<path fill="none" stroke="black" d="M338.07,-455.43C352.72,-439.03 372.25,-411.93 372.25,-384 372.25,-384 372.25,-384 372.25,-236 372.25,-219.88 364.32,-204.04 355.53,-191.43"/>
<polygon fill="black" stroke="black" points="358.49,-189.54 349.66,-183.67 352.9,-193.76 358.49,-189.54"/>
<text xml:space="preserve" text-anchor="middle" x="389.5" y="-305.32" font-family="Helvetica,sans-Serif" font-size="14.00">False</text>
</g>
<!-- if_van_normalisation&#45;&gt;alg_LoadNexusVan -->
<g id="edge28" class="edge">
<title>if_van_normalisation&#45;&gt;alg_LoadNexusVan</title>
<path fill="none" stroke="black" d="M296.46,-456.25C273.22,-442.73 238.67,-422.64 211.91,-407.07"/>
<polygon fill="black" stroke="black" points="213.79,-404.11 203.38,-402.11 210.27,-410.16 213.79,-404.11"/>
<text xml:space="preserve" text-anchor="middle" x="275.69" y="-422.95" font-family="Helvetica,sans-Serif" font-size="14.00">True</text>
</g>
<!-- if_sample_empty_provided_1 -->
<g id="node29" class="node">
<title>if_sample_empty_provided_1</title>
<polygon fill="limegreen" stroke="black" points="892.25,-1415 716.41,-1397 892.25,-1379 1068.09,-1397 892.25,-1415"/>
<text xml:space="preserve" text-anchor="middle" x="892.25" y="-1392.33" font-family="Helvetica,sans-Serif" font-size="14.00">If: Sample empty given</text>
</g>
<!-- if_sample_empty_provided_1&#45;&gt;param_sampleEmptyRunNumber -->
<g id="edge7" class="edge">
<title>if_sample_empty_provided_1&#45;&gt;param_sampleEmptyRunNumber</title>
<path fill="none" stroke="black" d="M892.25,-1378.81C892.25,-1371.23 892.25,-1362.1 892.25,-1353.54"/>
<polygon fill="black" stroke="black" points="895.75,-1353.54 892.25,-1343.54 888.75,-1353.54 895.75,-1353.54"/>
</g>
<!-- if_presummed_empty_exists&#45;&gt;proc_LoadCurrentNormWS_1 -->
<g id="edge5" class="edge">
<title>if_presummed_empty_exists&#45;&gt;proc_LoadCurrentNormWS_1</title>
<path fill="none" stroke="black" d="M1296.55,-1309.46C1247.63,-1295.28 1170.18,-1272.83 1113.6,-1256.43"/>
<polygon fill="black" stroke="black" points="1114.61,-1253.08 1104.03,-1253.66 1112.66,-1259.8 1114.61,-1253.08"/>
<text xml:space="preserve" text-anchor="middle" x="1236.96" y="-1274.7" font-family="Helvetica,sans-Serif" font-size="14.00">False</text>
</g>
<!-- if_presummed_empty_exists&#45;&gt;alg_Load -->
<g id="edge6" class="edge">
<title>if_presummed_empty_exists&#45;&gt;alg_Load</title>
<path fill="none" stroke="black" d="M1333.85,-1306.59C1326.79,-1294.28 1316.97,-1277.14 1308.76,-1262.81"/>
<polygon fill="black" stroke="black" points="1311.89,-1261.23 1303.88,-1254.3 1305.81,-1264.71 1311.89,-1261.23"/>
<text xml:space="preserve" text-anchor="middle" x="1337.73" y="-1274.7" font-family="Helvetica,sans-Serif" font-size="14.00">True</text>
</g>
<!-- param_apply_absorb -->
<g id="node31" class="node">
<title>param_apply_absorb</title>
<ellipse fill="lightgrey" stroke="black" cx="847.25" cy="-926.5" rx="112.76" ry="18"/>
<text xml:space="preserve" text-anchor="middle" x="847.25" y="-921.83" font-family="Helvetica,sans-Serif" font-size="14.00">param_apply_absorb</text>
</g>
<!-- param_apply_absorb&#45;&gt;if_apply_absorb -->
<g id="edge19" class="edge">
<title>param_apply_absorb&#45;&gt;if_apply_absorb</title>
<path fill="none" stroke="black" d="M824.5,-908.67C811.31,-898.92 794.56,-886.53 780.41,-876.07"/>
<polygon fill="black" stroke="black" points="782.89,-873.55 772.77,-870.42 778.73,-879.18 782.89,-873.55"/>
</g>
</g>
</svg>
