<?xml version="1.0" encoding="UTF-8" standalone="no"?>
<!DOCTYPE svg PUBLIC "-//W3C//DTD SVG 1.1//EN"
 "http://www.w3.org/Graphics/SVG/1.1/DTD/svg11.dtd">
<!-- Generated by graphviz version 11.0.0 (20240519.1550)
 -->
<!-- Title: isisPowderfocus Pages: 1 -->
<svg width="1570pt" height="1511pt"
 viewBox="0.00 0.00 1570.04 1511.25" xmlns="http://www.w3.org/2000/svg" xmlns:xlink="http://www.w3.org/1999/xlink">
<g id="graph0" class="graph" transform="scale(1 1) rotate(0) translate(4 1507.25)">
<title>isisPowderfocus</title>
<polygon fill="white" stroke="none" points="-4,4 -4,-1507.25 1566.04,-1507.25 1566.04,4 -4,4"/>
<text text-anchor="middle" x="781.02" y="-1485.95" font-family="Helvetica,sans-Serif" font-size="14.00">ISISPowder &#45; &#39;focus&#39;</text>
<!-- label_start -->
<g id="node1" class="node">
<title>label_start</title>
<ellipse fill="lightgrey" stroke="black" cx="511.25" cy="-1388" rx="127.49" ry="18"/>
<text text-anchor="middle" x="511.25" y="-1383.33" font-family="Helvetica,sans-Serif" font-size="14.00">Start ISISPowder &#39;focus&#39;</text>
</g>
<!-- param_runNumbers -->
<g id="node2" class="node">
<title>param_runNumbers</title>
<ellipse fill="khaki" stroke="black" cx="511.25" cy="-1316" rx="148.01" ry="18"/>
<text text-anchor="middle" x="511.25" y="-1311.33" font-family="Helvetica,sans-Serif" font-size="14.00">User param: Run number(s)</text>
</g>
<!-- label_start&#45;&gt;param_runNumbers -->
<g id="edge1" class="edge">
<title>label_start&#45;&gt;param_runNumbers</title>
<path fill="none" stroke="black" d="M511.25,-1369.7C511.25,-1362.41 511.25,-1353.73 511.25,-1345.54"/>
<polygon fill="black" stroke="black" points="514.75,-1345.62 511.25,-1335.62 507.75,-1345.62 514.75,-1345.62"/>
</g>
<!-- proc_LoadCurrentNormWS_1 -->
<g id="node11" class="node">
<title>proc_LoadCurrentNormWS_1</title>
<polygon fill="lightseagreen" stroke="black" points="1187.62,-1244.75 906.88,-1244.75 906.88,-1208.75 1187.62,-1208.75 1187.62,-1244.75"/>
<text text-anchor="middle" x="1047.25" y="-1222.08" font-family="Helvetica,sans-Serif" font-size="14.00">Load current normalised workspace(s)</text>
</g>
<!-- param_runNumbers&#45;&gt;proc_LoadCurrentNormWS_1 -->
<g id="edge2" class="edge">
<title>param_runNumbers&#45;&gt;proc_LoadCurrentNormWS_1</title>
<path fill="none" stroke="black" d="M597.37,-1300.98C687.22,-1286.36 828.71,-1263.32 929,-1247"/>
<polygon fill="black" stroke="black" points="929.29,-1250.5 938.6,-1245.44 928.17,-1243.59 929.29,-1250.5"/>
</g>
<!-- param_sampleEmptyRunNumber -->
<g id="node3" class="node">
<title>param_sampleEmptyRunNumber</title>
<ellipse fill="khaki" stroke="black" cx="897.25" cy="-1316" rx="219.56" ry="18"/>
<text text-anchor="middle" x="897.25" y="-1311.33" font-family="Helvetica,sans-Serif" font-size="14.00">User param: Sample empty run number(s)</text>
</g>
<!-- param_sampleEmptyRunNumber&#45;&gt;proc_LoadCurrentNormWS_1 -->
<g id="edge8" class="edge">
<title>param_sampleEmptyRunNumber&#45;&gt;proc_LoadCurrentNormWS_1</title>
<path fill="none" stroke="black" d="M926.89,-1297.76C950.03,-1284.3 982.39,-1265.47 1007.74,-1250.73"/>
<polygon fill="black" stroke="black" points="1009.23,-1253.92 1016.11,-1245.86 1005.71,-1247.86 1009.23,-1253.92"/>
</g>
<!-- param_vanNorm -->
<g id="node4" class="node">
<title>param_vanNorm</title>
<ellipse fill="khaki" stroke="black" cx="311.25" cy="-542.25" rx="192.21" ry="18"/>
<text text-anchor="middle" x="311.25" y="-537.58" font-family="Helvetica,sans-Serif" font-size="14.00">User param: Vanadium normalisation</text>
</g>
<!-- if_van_normalisation -->
<g id="node28" class="node">
<title>if_van_normalisation</title>
<polygon fill="limegreen" stroke="black" points="322.25,-488.25 122.6,-470.25 322.25,-452.25 521.9,-470.25 322.25,-488.25"/>
<text text-anchor="middle" x="322.25" y="-465.57" font-family="Helvetica,sans-Serif" font-size="14.00">If: Vanadium normalisation</text>
</g>
<!-- param_vanNorm&#45;&gt;if_van_normalisation -->
<g id="edge27" class="edge">
<title>param_vanNorm&#45;&gt;if_van_normalisation</title>
<path fill="none" stroke="black" d="M313.97,-523.95C315.13,-516.57 316.51,-507.77 317.81,-499.5"/>
<polygon fill="black" stroke="black" points="321.23,-500.27 319.33,-489.85 314.32,-499.18 321.23,-500.27"/>
</g>
<!-- param_calFileName -->
<g id="node5" class="node">
<title>param_calFileName</title>
<ellipse fill="khaki" stroke="black" cx="541.25" cy="-992.5" rx="112.24" ry="18"/>
<text text-anchor="middle" x="541.25" y="-987.83" font-family="Helvetica,sans-Serif" font-size="14.00">Calibration file name</text>
</g>
<!-- alg_Align -->
<g id="node15" class="node">
<title>alg_Align</title>
<path fill="lightskyblue" stroke="black" d="M705.5,-938.5C705.5,-938.5 607,-938.5 607,-938.5 601,-938.5 595,-932.5 595,-926.5 595,-926.5 595,-914.5 595,-914.5 595,-908.5 601,-902.5 607,-902.5 607,-902.5 705.5,-902.5 705.5,-902.5 711.5,-902.5 717.5,-908.5 717.5,-914.5 717.5,-914.5 717.5,-926.5 717.5,-926.5 717.5,-932.5 711.5,-938.5 705.5,-938.5"/>
<text text-anchor="middle" x="656.25" y="-915.83" font-family="Helvetica,sans-Serif" font-size="14.00">Align Detectors</text>
</g>
<!-- param_calFileName&#45;&gt;alg_Align -->
<g id="edge16" class="edge">
<title>param_calFileName&#45;&gt;alg_Align</title>
<path fill="none" stroke="black" d="M568.8,-974.73C583.54,-965.76 601.94,-954.56 618.05,-944.75"/>
<polygon fill="black" stroke="black" points="619.71,-947.84 626.44,-939.65 616.07,-941.86 619.71,-947.84"/>
</g>
<!-- param_calMapping_1 -->
<g id="node6" class="node">
<title>param_calMapping_1</title>
<ellipse fill="khaki" stroke="black" cx="1348.25" cy="-1460" rx="128.02" ry="18"/>
<text text-anchor="middle" x="1348.25" y="-1455.33" font-family="Helvetica,sans-Serif" font-size="14.00">Calibration mapping file</text>
</g>
<!-- param_emptyRunNumber -->
<g id="node8" class="node">
<title>param_emptyRunNumber</title>
<ellipse fill="khaki" stroke="black" cx="1348.25" cy="-1388" rx="116.97" ry="18"/>
<text text-anchor="middle" x="1348.25" y="-1383.33" font-family="Helvetica,sans-Serif" font-size="14.00">Empty run number(s)</text>
</g>
<!-- param_calMapping_1&#45;&gt;param_emptyRunNumber -->
<g id="edge3" class="edge">
<title>param_calMapping_1&#45;&gt;param_emptyRunNumber</title>
<path fill="none" stroke="black" d="M1348.25,-1441.7C1348.25,-1434.41 1348.25,-1425.73 1348.25,-1417.54"/>
<polygon fill="black" stroke="black" points="1351.75,-1417.62 1348.25,-1407.62 1344.75,-1417.62 1351.75,-1417.62"/>
</g>
<!-- param_calMapping_2 -->
<g id="node7" class="node">
<title>param_calMapping_2</title>
<ellipse fill="khaki" stroke="black" cx="400.25" cy="-1065.5" rx="128.02" ry="18"/>
<text text-anchor="middle" x="400.25" y="-1060.83" font-family="Helvetica,sans-Serif" font-size="14.00">Calibration mapping file</text>
</g>
<!-- param_calMapping_2&#45;&gt;param_calFileName -->
<g id="edge15" class="edge">
<title>param_calMapping_2&#45;&gt;param_calFileName</title>
<path fill="none" stroke="black" d="M433.67,-1047.67C453.03,-1037.92 477.62,-1025.54 498.4,-1015.08"/>
<polygon fill="black" stroke="black" points="499.85,-1018.26 507.21,-1010.64 496.7,-1012.01 499.85,-1018.26"/>
</g>
<!-- if_presummed_empty_exists -->
<g id="node30" class="node">
<title>if_presummed_empty_exists</title>
<polygon fill="limegreen" stroke="black" points="1348.25,-1334 1134.46,-1316 1348.25,-1298 1562.04,-1316 1348.25,-1334"/>
<text text-anchor="middle" x="1348.25" y="-1311.33" font-family="Helvetica,sans-Serif" font-size="14.00">If: Pre&#45;summed empty exists</text>
</g>
<!-- param_emptyRunNumber&#45;&gt;if_presummed_empty_exists -->
<g id="edge4" class="edge">
<title>param_emptyRunNumber&#45;&gt;if_presummed_empty_exists</title>
<path fill="none" stroke="black" d="M1348.25,-1369.7C1348.25,-1362.41 1348.25,-1353.73 1348.25,-1345.54"/>
<polygon fill="black" stroke="black" points="1351.75,-1345.62 1348.25,-1335.62 1344.75,-1345.62 1351.75,-1345.62"/>
</g>
<!-- param_groupingCalFile -->
<g id="node9" class="node">
<title>param_groupingCalFile</title>
<ellipse fill="khaki" stroke="black" cx="306.25" cy="-759.25" rx="179.05" ry="18"/>
<text text-anchor="middle" x="306.25" y="-754.58" font-family="Helvetica,sans-Serif" font-size="14.00">Adv config: Grouping cal file name</text>
</g>
<!-- alg_DiffractionFocusing -->
<g id="node19" class="node">
<title>alg_DiffractionFocusing</title>
<path fill="lightskyblue" stroke="black" d="M722.25,-704.25C722.25,-704.25 592.25,-704.25 592.25,-704.25 586.25,-704.25 580.25,-698.25 580.25,-692.25 580.25,-692.25 580.25,-680.25 580.25,-680.25 580.25,-674.25 586.25,-668.25 592.25,-668.25 592.25,-668.25 722.25,-668.25 722.25,-668.25 728.25,-668.25 734.25,-674.25 734.25,-680.25 734.25,-680.25 734.25,-692.25 734.25,-692.25 734.25,-698.25 728.25,-704.25 722.25,-704.25"/>
<text text-anchor="middle" x="657.25" y="-681.58" font-family="Helvetica,sans-Serif" font-size="14.00">Diffraction Focusing</text>
</g>
<!-- param_groupingCalFile&#45;&gt;alg_DiffractionFocusing -->
<g id="edge21" class="edge">
<title>param_groupingCalFile&#45;&gt;alg_DiffractionFocusing</title>
<path fill="none" stroke="black" d="M383.71,-742.58C438.41,-731.52 511.82,-716.67 568.81,-705.14"/>
<polygon fill="black" stroke="black" points="569.39,-708.59 578.5,-703.18 568.01,-701.73 569.39,-708.59"/>
</g>
<!-- param_rawTOFCropValues -->
<g id="node10" class="node">
<title>param_rawTOFCropValues</title>
<ellipse fill="khaki" stroke="black" cx="739.25" cy="-1065.5" rx="192.73" ry="18"/>
<text text-anchor="middle" x="739.25" y="-1060.83" font-family="Helvetica,sans-Serif" font-size="14.00">Adv config: Raw TOF cropping values</text>
</g>
<!-- alg_CropRawTOF -->
<g id="node17" class="node">
<title>alg_CropRawTOF</title>
<path fill="lightskyblue" stroke="black" d="M915.25,-1010.5C915.25,-1010.5 737.25,-1010.5 737.25,-1010.5 731.25,-1010.5 725.25,-1004.5 725.25,-998.5 725.25,-998.5 725.25,-986.5 725.25,-986.5 725.25,-980.5 731.25,-974.5 737.25,-974.5 737.25,-974.5 915.25,-974.5 915.25,-974.5 921.25,-974.5 927.25,-980.5 927.25,-986.5 927.25,-986.5 927.25,-998.5 927.25,-998.5 927.25,-1004.5 921.25,-1010.5 915.25,-1010.5"/>
<text text-anchor="middle" x="826.25" y="-987.83" font-family="Helvetica,sans-Serif" font-size="14.00">Crop data to expected TOF</text>
</g>
<!-- param_rawTOFCropValues&#45;&gt;alg_CropRawTOF -->
<g id="edge12" class="edge">
<title>param_rawTOFCropValues&#45;&gt;alg_CropRawTOF</title>
<path fill="none" stroke="black" d="M760.31,-1047.31C771.13,-1038.48 784.5,-1027.57 796.37,-1017.89"/>
<polygon fill="black" stroke="black" points="798.37,-1020.77 803.91,-1011.73 793.95,-1015.34 798.37,-1020.77"/>
</g>
<!-- alg_Subtract_van_empty -->
<g id="node25" class="node">
<title>alg_Subtract_van_empty</title>
<path fill="lightskyblue" stroke="black" d="M1254.88,-1172.75C1254.88,-1172.75 1023.62,-1172.75 1023.62,-1172.75 1017.62,-1172.75 1011.62,-1166.75 1011.62,-1160.75 1011.62,-1160.75 1011.62,-1148.75 1011.62,-1148.75 1011.62,-1142.75 1017.62,-1136.75 1023.62,-1136.75 1023.62,-1136.75 1254.88,-1136.75 1254.88,-1136.75 1260.88,-1136.75 1266.88,-1142.75 1266.88,-1148.75 1266.88,-1148.75 1266.88,-1160.75 1266.88,-1160.75 1266.88,-1166.75 1260.88,-1172.75 1254.88,-1172.75"/>
<text text-anchor="middle" x="1139.25" y="-1150.08" font-family="Helvetica,sans-Serif" font-size="14.00">Subtract: runs &#45; instrument empty</text>
</g>
<!-- proc_LoadCurrentNormWS_1&#45;&gt;alg_Subtract_van_empty -->
<g id="edge10" class="edge">
<title>proc_LoadCurrentNormWS_1&#45;&gt;alg_Subtract_van_empty</title>
<path fill="none" stroke="black" d="M1069.99,-1208.45C1081.27,-1199.86 1095.08,-1189.36 1107.39,-1179.99"/>
<polygon fill="black" stroke="black" points="1109.41,-1182.85 1115.25,-1174.01 1105.17,-1177.28 1109.41,-1182.85"/>
</g>
<!-- proc_InstApplyAbsorbCorr -->
<g id="node12" class="node">
<title>proc_InstApplyAbsorbCorr</title>
<polygon fill="lightseagreen" stroke="black" points="810.75,-777.25 503.75,-777.25 503.75,-741.25 810.75,-741.25 810.75,-777.25"/>
<text text-anchor="middle" x="657.25" y="-754.58" font-family="Helvetica,sans-Serif" font-size="14.00">Inst specific: Apply absorption corrections</text>
</g>
<!-- proc_InstApplyAbsorbCorr&#45;&gt;alg_DiffractionFocusing -->
<g id="edge23" class="edge">
<title>proc_InstApplyAbsorbCorr&#45;&gt;alg_DiffractionFocusing</title>
<path fill="none" stroke="black" d="M657.25,-741.06C657.25,-733.48 657.25,-724.35 657.25,-715.79"/>
<polygon fill="black" stroke="black" points="660.75,-715.79 657.25,-705.79 653.75,-715.79 660.75,-715.79"/>
</g>
<!-- proc_InstReduceBinWidths -->
<g id="node13" class="node">
<title>proc_InstReduceBinWidths</title>
<polygon fill="lightseagreen" stroke="black" points="498.25,-108 170.25,-108 170.25,-72 498.25,-72 498.25,-108"/>
<text text-anchor="middle" x="334.25" y="-85.33" font-family="Helvetica,sans-Serif" font-size="14.00">Inst specific: Rebin to reduce final bin widths</text>
</g>
<!-- proc_InstSaveFocused -->
<g id="node14" class="node">
<title>proc_InstSaveFocused</title>
<polygon fill="lightseagreen" stroke="black" points="458.12,-36 210.38,-36 210.38,0 458.12,0 458.12,-36"/>
<text text-anchor="middle" x="334.25" y="-13.32" font-family="Helvetica,sans-Serif" font-size="14.00">Inst specific: Save focused banks</text>
</g>
<!-- proc_InstReduceBinWidths&#45;&gt;proc_InstSaveFocused -->
<g id="edge34" class="edge">
<title>proc_InstReduceBinWidths&#45;&gt;proc_InstSaveFocused</title>
<path fill="none" stroke="black" d="M334.25,-71.7C334.25,-64.41 334.25,-55.73 334.25,-47.54"/>
<polygon fill="black" stroke="black" points="337.75,-47.62 334.25,-37.62 330.75,-47.62 337.75,-47.62"/>
</g>
<!-- if_apply_absorb -->
<g id="node27" class="node">
<title>if_apply_absorb</title>
<polygon fill="limegreen" stroke="black" points="752.25,-866.5 591.29,-848.5 752.25,-830.5 913.21,-848.5 752.25,-866.5"/>
<text text-anchor="middle" x="752.25" y="-843.83" font-family="Helvetica,sans-Serif" font-size="14.00">If: absorb corrections</text>
</g>
<!-- alg_Align&#45;&gt;if_apply_absorb -->
<g id="edge18" class="edge">
<title>alg_Align&#45;&gt;if_apply_absorb</title>
<path fill="none" stroke="black" d="M679.98,-902.2C692.88,-892.79 708.96,-881.07 722.67,-871.07"/>
<polygon fill="black" stroke="black" points="724.48,-874.08 730.5,-865.36 720.35,-868.43 724.48,-874.08"/>
</g>
<!-- alg_ConvertUnitsTOFVan -->
<g id="node16" class="node">
<title>alg_ConvertUnitsTOFVan</title>
<path fill="lightskyblue" stroke="black" d="M719.25,-632.25C719.25,-632.25 595.25,-632.25 595.25,-632.25 589.25,-632.25 583.25,-626.25 583.25,-620.25 583.25,-620.25 583.25,-608.25 583.25,-608.25 583.25,-602.25 589.25,-596.25 595.25,-596.25 595.25,-596.25 719.25,-596.25 719.25,-596.25 725.25,-596.25 731.25,-602.25 731.25,-608.25 731.25,-608.25 731.25,-620.25 731.25,-620.25 731.25,-626.25 725.25,-632.25 719.25,-632.25"/>
<text text-anchor="middle" x="657.25" y="-609.58" font-family="Helvetica,sans-Serif" font-size="14.00">Convert Units: TOF</text>
</g>
<!-- alg_ExtractWsSpectra -->
<g id="node21" class="node">
<title>alg_ExtractWsSpectra</title>
<path fill="lightskyblue" stroke="black" d="M780.75,-560.25C780.75,-560.25 533.75,-560.25 533.75,-560.25 527.75,-560.25 521.75,-554.25 521.75,-548.25 521.75,-548.25 521.75,-536.25 521.75,-536.25 521.75,-530.25 527.75,-524.25 533.75,-524.25 533.75,-524.25 780.75,-524.25 780.75,-524.25 786.75,-524.25 792.75,-530.25 792.75,-536.25 792.75,-536.25 792.75,-548.25 792.75,-548.25 792.75,-554.25 786.75,-560.25 780.75,-560.25"/>
<text text-anchor="middle" x="657.25" y="-537.58" font-family="Helvetica,sans-Serif" font-size="14.00">Extract spectra into individual banks</text>
</g>
<!-- alg_ConvertUnitsTOFVan&#45;&gt;alg_ExtractWsSpectra -->
<g id="edge25" class="edge">
<title>alg_ConvertUnitsTOFVan&#45;&gt;alg_ExtractWsSpectra</title>
<path fill="none" stroke="black" d="M657.25,-595.95C657.25,-588.66 657.25,-579.98 657.25,-571.79"/>
<polygon fill="black" stroke="black" points="660.75,-571.87 657.25,-561.87 653.75,-571.87 660.75,-571.87"/>
</g>
<!-- alg_CropRawTOF&#45;&gt;alg_Align -->
<g id="edge17" class="edge">
<title>alg_CropRawTOF&#45;&gt;alg_Align</title>
<path fill="none" stroke="black" d="M783.79,-974.02C761.09,-964.67 732.93,-953.07 708.85,-943.16"/>
<polygon fill="black" stroke="black" points="710.44,-940.03 699.86,-939.46 707.78,-946.5 710.44,-940.03"/>
</g>
<!-- alg_CropFinalTOF -->
<g id="node18" class="node">
<title>alg_CropFinalTOF</title>
<path fill="lightskyblue" stroke="black" d="M428.88,-180C428.88,-180 239.62,-180 239.62,-180 233.62,-180 227.62,-174 227.62,-168 227.62,-168 227.62,-156 227.62,-156 227.62,-150 233.62,-144 239.62,-144 239.62,-144 428.88,-144 428.88,-144 434.88,-144 440.88,-150 440.88,-156 440.88,-156 440.88,-168 440.88,-168 440.88,-174 434.88,-180 428.88,-180"/>
<text text-anchor="middle" x="334.25" y="-157.32" font-family="Helvetica,sans-Serif" font-size="14.00">Crop data to final TOF range</text>
</g>
<!-- alg_CropFinalTOF&#45;&gt;proc_InstReduceBinWidths -->
<g id="edge33" class="edge">
<title>alg_CropFinalTOF&#45;&gt;proc_InstReduceBinWidths</title>
<path fill="none" stroke="black" d="M334.25,-143.7C334.25,-136.41 334.25,-127.73 334.25,-119.54"/>
<polygon fill="black" stroke="black" points="337.75,-119.62 334.25,-109.62 330.75,-119.62 337.75,-119.62"/>
</g>
<!-- alg_DiffractionFocusing&#45;&gt;alg_ConvertUnitsTOFVan -->
<g id="edge24" class="edge">
<title>alg_DiffractionFocusing&#45;&gt;alg_ConvertUnitsTOFVan</title>
<path fill="none" stroke="black" d="M657.25,-667.95C657.25,-660.66 657.25,-651.98 657.25,-643.79"/>
<polygon fill="black" stroke="black" points="660.75,-643.87 657.25,-633.87 653.75,-643.87 660.75,-643.87"/>
</g>
<!-- alg_DivideVan -->
<g id="node20" class="node">
<title>alg_DivideVan</title>
<path fill="lightskyblue" stroke="black" d="M317.12,-253C317.12,-253 159.38,-253 159.38,-253 153.38,-253 147.38,-247 147.38,-241 147.38,-241 147.38,-229 147.38,-229 147.38,-223 153.38,-217 159.38,-217 159.38,-217 317.12,-217 317.12,-217 323.12,-217 329.12,-223 329.12,-229 329.12,-229 329.12,-241 329.12,-241 329.12,-247 323.12,-253 317.12,-253"/>
<text text-anchor="middle" x="238.25" y="-230.32" font-family="Helvetica,sans-Serif" font-size="14.00">Divide: data / Vanadium</text>
</g>
<!-- alg_DivideVan&#45;&gt;alg_CropFinalTOF -->
<g id="edge32" class="edge">
<title>alg_DivideVan&#45;&gt;alg_CropFinalTOF</title>
<path fill="none" stroke="black" d="M261.49,-216.81C273.55,-207.9 288.47,-196.86 301.66,-187.1"/>
<polygon fill="black" stroke="black" points="303.72,-189.94 309.68,-181.17 299.55,-184.31 303.72,-189.94"/>
</g>
<!-- alg_ExtractWsSpectra&#45;&gt;if_van_normalisation -->
<g id="edge26" class="edge">
<title>alg_ExtractWsSpectra&#45;&gt;if_van_normalisation</title>
<path fill="none" stroke="black" d="M573.58,-523.77C517.49,-512.05 444.51,-496.8 391.65,-485.75"/>
<polygon fill="black" stroke="black" points="392.68,-482.39 382.17,-483.77 391.24,-489.24 392.68,-482.39"/>
</g>
<!-- alg_LoadNexusVan -->
<g id="node22" class="node">
<title>alg_LoadNexusVan</title>
<path fill="lightskyblue" stroke="black" d="M332.5,-399C332.5,-399 12,-399 12,-399 6,-399 0,-393 0,-387 0,-387 0,-375 0,-375 0,-369 6,-363 12,-363 12,-363 332.5,-363 332.5,-363 338.5,-363 344.5,-369 344.5,-375 344.5,-375 344.5,-387 344.5,-387 344.5,-393 338.5,-399 332.5,-399"/>
<text text-anchor="middle" x="172.25" y="-376.32" font-family="Helvetica,sans-Serif" font-size="14.00">Load splined Vanadium from &#39;create_vanadium&#39;</text>
</g>
<!-- alg_RebinToWorkspaceVan -->
<g id="node23" class="node">
<title>alg_RebinToWorkspaceVan</title>
<path fill="lightskyblue" stroke="black" d="M316.75,-326C316.75,-326 69.75,-326 69.75,-326 63.75,-326 57.75,-320 57.75,-314 57.75,-314 57.75,-302 57.75,-302 57.75,-296 63.75,-290 69.75,-290 69.75,-290 316.75,-290 316.75,-290 322.75,-290 328.75,-296 328.75,-302 328.75,-302 328.75,-314 328.75,-314 328.75,-320 322.75,-326 316.75,-326"/>
<text text-anchor="middle" x="193.25" y="-303.32" font-family="Helvetica,sans-Serif" font-size="14.00">Rebin: Van ws to match data binning</text>
</g>
<!-- alg_LoadNexusVan&#45;&gt;alg_RebinToWorkspaceVan -->
<g id="edge29" class="edge">
<title>alg_LoadNexusVan&#45;&gt;alg_RebinToWorkspaceVan</title>
<path fill="none" stroke="black" d="M177.33,-362.81C179.63,-355.05 182.4,-345.68 184.98,-336.95"/>
<polygon fill="black" stroke="black" points="188.3,-338.06 187.78,-327.48 181.59,-336.08 188.3,-338.06"/>
</g>
<!-- alg_RebinToWorkspaceVan&#45;&gt;alg_DivideVan -->
<g id="edge30" class="edge">
<title>alg_RebinToWorkspaceVan&#45;&gt;alg_DivideVan</title>
<path fill="none" stroke="black" d="M204.14,-289.81C209.34,-281.62 215.67,-271.62 221.46,-262.48"/>
<polygon fill="black" stroke="black" points="224.25,-264.63 226.65,-254.31 218.34,-260.88 224.25,-264.63"/>
</g>
<!-- alg_Subtract_sample_empty -->
<g id="node24" class="node">
<title>alg_Subtract_sample_empty</title>
<path fill="lightskyblue" stroke="black" d="M1166.75,-1083.5C1166.75,-1083.5 961.75,-1083.5 961.75,-1083.5 955.75,-1083.5 949.75,-1077.5 949.75,-1071.5 949.75,-1071.5 949.75,-1059.5 949.75,-1059.5 949.75,-1053.5 955.75,-1047.5 961.75,-1047.5 961.75,-1047.5 1166.75,-1047.5 1166.75,-1047.5 1172.75,-1047.5 1178.75,-1053.5 1178.75,-1059.5 1178.75,-1059.5 1178.75,-1071.5 1178.75,-1071.5 1178.75,-1077.5 1172.75,-1083.5 1166.75,-1083.5"/>
<text text-anchor="middle" x="1064.25" y="-1060.83" font-family="Helvetica,sans-Serif" font-size="14.00">Subtract: runs &#45; sample empty</text>
</g>
<!-- alg_Subtract_sample_empty&#45;&gt;alg_CropRawTOF -->
<g id="edge13" class="edge">
<title>alg_Subtract_sample_empty&#45;&gt;alg_CropRawTOF</title>
<path fill="none" stroke="black" d="M1005.72,-1047.04C972.3,-1037.07 930.2,-1024.51 895.17,-1014.06"/>
<polygon fill="black" stroke="black" points="896.58,-1010.83 886,-1011.32 894.58,-1017.54 896.58,-1010.83"/>
</g>
<!-- alg_Subtract_van_empty&#45;&gt;alg_CropRawTOF -->
<g id="edge14" class="edge">
<title>alg_Subtract_van_empty&#45;&gt;alg_CropRawTOF</title>
<path fill="none" stroke="black" d="M1194.94,-1136.29C1202.2,-1131.7 1208.69,-1125.95 1213.25,-1118.75 1228.07,-1095.35 1202.81,-1058.4 1188.25,-1047.5 1149.74,-1018.67 1030.12,-1005.05 938.82,-998.74"/>
<polygon fill="black" stroke="black" points="939.28,-995.26 929.07,-998.08 938.81,-1002.24 939.28,-995.26"/>
</g>
<!-- alg_Subtract_van_empty&#45;&gt;alg_Subtract_sample_empty -->
<g id="edge11" class="edge">
<title>alg_Subtract_van_empty&#45;&gt;alg_Subtract_sample_empty</title>
<path fill="none" stroke="black" d="M1071.23,-1136.4C1063.67,-1131.83 1056.94,-1126.05 1052,-1118.75 1047.14,-1111.56 1047.44,-1102.68 1049.78,-1094.3"/>
<polygon fill="black" stroke="black" points="1052.98,-1095.75 1053.25,-1085.16 1046.43,-1093.27 1052.98,-1095.75"/>
<text text-anchor="middle" x="1131.88" y="-1105.45" font-family="Helvetica,sans-Serif" font-size="14.00">If: Sample empty given</text>
</g>
<!-- alg_Load -->
<g id="node26" class="node">
<title>alg_Load</title>
<path fill="lightskyblue" stroke="black" d="M1313.25,-1244.75C1313.25,-1244.75 1283.25,-1244.75 1283.25,-1244.75 1277.25,-1244.75 1271.25,-1238.75 1271.25,-1232.75 1271.25,-1232.75 1271.25,-1220.75 1271.25,-1220.75 1271.25,-1214.75 1277.25,-1208.75 1283.25,-1208.75 1283.25,-1208.75 1313.25,-1208.75 1313.25,-1208.75 1319.25,-1208.75 1325.25,-1214.75 1325.25,-1220.75 1325.25,-1220.75 1325.25,-1232.75 1325.25,-1232.75 1325.25,-1238.75 1319.25,-1244.75 1313.25,-1244.75"/>
<text text-anchor="middle" x="1298.25" y="-1222.08" font-family="Helvetica,sans-Serif" font-size="14.00">Load</text>
</g>
<!-- alg_Load&#45;&gt;alg_Subtract_van_empty -->
<g id="edge9" class="edge">
<title>alg_Load&#45;&gt;alg_Subtract_van_empty</title>
<path fill="none" stroke="black" d="M1270.92,-1213.72C1248.5,-1203.85 1216.17,-1189.62 1189.16,-1177.72"/>
<polygon fill="black" stroke="black" points="1190.67,-1174.56 1180.11,-1173.74 1187.85,-1180.97 1190.67,-1174.56"/>
</g>
<!-- if_apply_absorb&#45;&gt;proc_InstApplyAbsorbCorr -->
<g id="edge20" class="edge">
<title>if_apply_absorb&#45;&gt;proc_InstApplyAbsorbCorr</title>
<path fill="none" stroke="black" d="M735.27,-831.9C721.09,-818.88 700.61,-800.08 684.2,-785"/>
<polygon fill="black" stroke="black" points="686.89,-782.72 677.15,-778.53 682.15,-787.87 686.89,-782.72"/>
<text text-anchor="middle" x="729.25" y="-799.2" font-family="Helvetica,sans-Serif" font-size="14.00">True</text>
</g>
<!-- if_apply_absorb&#45;&gt;alg_DiffractionFocusing -->
<g id="edge22" class="edge">
<title>if_apply_absorb&#45;&gt;alg_DiffractionFocusing</title>
<path fill="none" stroke="black" d="M773.44,-832.69C800.69,-811.81 841.95,-772.74 819.25,-741.25 802.03,-717.36 773.79,-703.88 745.67,-696.33"/>
<polygon fill="black" stroke="black" points="746.52,-692.94 735.98,-693.98 744.87,-699.74 746.52,-692.94"/>
<text text-anchor="middle" x="843.5" y="-754.58" font-family="Helvetica,sans-Serif" font-size="14.00">False</text>
</g>
<!-- if_van_normalisation&#45;&gt;alg_CropFinalTOF -->
<g id="edge31" class="edge">
<title>if_van_normalisation&#45;&gt;alg_CropFinalTOF</title>
<path fill="none" stroke="black" d="M338.07,-453.43C352.72,-437.03 372.25,-409.93 372.25,-382 372.25,-382 372.25,-382 372.25,-234 372.25,-217.96 364.61,-202.03 356.19,-189.34"/>
<polygon fill="black" stroke="black" points="359.27,-187.63 350.59,-181.55 353.58,-191.71 359.27,-187.63"/>
<text text-anchor="middle" x="389.5" y="-303.32" font-family="Helvetica,sans-Serif" font-size="14.00">False</text>
</g>
<!-- if_van_normalisation&#45;&gt;alg_LoadNexusVan -->
<g id="edge28" class="edge">
<title>if_van_normalisation&#45;&gt;alg_LoadNexusVan</title>
<path fill="none" stroke="black" d="M296.46,-454.25C273.22,-440.73 238.67,-420.64 211.91,-405.07"/>
<polygon fill="black" stroke="black" points="213.79,-402.11 203.38,-400.11 210.27,-408.16 213.79,-402.11"/>
<text text-anchor="middle" x="276.25" y="-420.95" font-family="Helvetica,sans-Serif" font-size="14.00">True</text>
</g>
<!-- if_sample_empty_provided_1 -->
<g id="node29" class="node">
<title>if_sample_empty_provided_1</title>
<polygon fill="limegreen" stroke="black" points="897.25,-1406 721.41,-1388 897.25,-1370 1073.09,-1388 897.25,-1406"/>
<text text-anchor="middle" x="897.25" y="-1383.33" font-family="Helvetica,sans-Serif" font-size="14.00">If: Sample empty given</text>
</g>
<!-- if_sample_empty_provided_1&#45;&gt;param_sampleEmptyRunNumber -->
<g id="edge7" class="edge">
<title>if_sample_empty_provided_1&#45;&gt;param_sampleEmptyRunNumber</title>
<path fill="none" stroke="black" d="M897.25,-1369.7C897.25,-1362.41 897.25,-1353.73 897.25,-1345.54"/>
<polygon fill="black" stroke="black" points="900.75,-1345.62 897.25,-1335.62 893.75,-1345.62 900.75,-1345.62"/>
</g>
<!-- if_presummed_empty_exists&#45;&gt;proc_LoadCurrentNormWS_1 -->
<g id="edge5" class="edge">
<title>if_presummed_empty_exists&#45;&gt;proc_LoadCurrentNormWS_1</title>
<path fill="none" stroke="black" d="M1301.55,-1301.46C1252.63,-1287.28 1175.18,-1264.83 1118.6,-1248.43"/>
<polygon fill="black" stroke="black" points="1119.61,-1245.08 1109.03,-1245.66 1117.66,-1251.8 1119.61,-1245.08"/>
<text text-anchor="middle" x="1241.5" y="-1266.7" font-family="Helvetica,sans-Serif" font-size="14.00">False</text>
</g>
<!-- if_presummed_empty_exists&#45;&gt;alg_Load -->
<g id="edge6" class="edge">
<title>if_presummed_empty_exists&#45;&gt;alg_Load</title>
<path fill="none" stroke="black" d="M1338.85,-1298.59C1331.79,-1286.28 1321.97,-1269.14 1313.76,-1254.81"/>
<polygon fill="black" stroke="black" points="1316.89,-1253.23 1308.88,-1246.3 1310.81,-1256.71 1316.89,-1253.23"/>
<text text-anchor="middle" x="1342.25" y="-1266.7" font-family="Helvetica,sans-Serif" font-size="14.00">True</text>
</g>
<!-- param_apply_absorb -->
<g id="node31" class="node">
<title>param_apply_absorb</title>
<ellipse fill="lightgrey" stroke="black" cx="848.25" cy="-920.5" rx="112.76" ry="18"/>
<text text-anchor="middle" x="848.25" y="-915.83" font-family="Helvetica,sans-Serif" font-size="14.00">param_apply_absorb</text>
</g>
<!-- param_apply_absorb&#45;&gt;if_apply_absorb -->
<g id="edge19" class="edge">
<title>param_apply_absorb&#45;&gt;if_apply_absorb</title>
<path fill="none" stroke="black" d="M825.01,-902.55C812.12,-893.15 795.94,-881.36 782.11,-871.28"/>
<polygon fill="black" stroke="black" points="784.35,-868.58 774.21,-865.51 780.23,-874.23 784.35,-868.58"/>
</g>
</g>
</svg>
