<?xml version="1.0" encoding="UTF-8" standalone="no"?>
<!DOCTYPE svg PUBLIC "-//W3C//DTD SVG 1.1//EN"
 "http://www.w3.org/Graphics/SVG/1.1/DTD/svg11.dtd">
<!-- Generated by graphviz version 9.0.0 (20231125.0833)
 -->
<!-- Title: ISISIndirectDiffractionReduction Pages: 1 -->
<svg width="1405pt" height="1535pt"
 viewBox="0.00 0.00 1405.02 1535.25" xmlns="http://www.w3.org/2000/svg" xmlns:xlink="http://www.w3.org/1999/xlink">
<g id="graph0" class="graph" transform="scale(1 1) rotate(0) translate(4 1531.25)">
<title>ISISIndirectDiffractionReduction</title>
<polygon fill="white" stroke="none" points="-4,4 -4,-1531.25 1401.02,-1531.25 1401.02,4 -4,4"/>
<text text-anchor="middle" x="698.51" y="-1509.95" font-family="Helvetica,sans-Serif" font-size="14.00">ISISIndirectDiffractionReduction Flowchart</text>
<!-- need_to_unwrap -->
<g id="node1" class="node">
<title>need_to_unwrap</title>
<polygon fill="limegreen" stroke="black" points="910.89,-1303.12 718.68,-1285.12 910.89,-1267.12 1103.1,-1285.12 910.89,-1303.12"/>
<text text-anchor="middle" x="910.89" y="-1280.45" font-family="Helvetica,sans-Serif" font-size="14.00">Need To Unwrap Monitor?</text>
</g>
<!-- unwrap_monitor -->
<g id="node18" class="node">
<title>unwrap_monitor</title>
<polygon fill="lightseagreen" stroke="black" points="1062.52,-1202 777.27,-1202 777.27,-1142.25 1062.52,-1142.25 1062.52,-1202"/>
<text text-anchor="middle" x="919.89" y="-1184.7" font-family="Helvetica,sans-Serif" font-size="14.00">unwrap_monitor</text>
<text text-anchor="middle" x="919.89" y="-1167.45" font-family="Helvetica,sans-Serif" font-size="14.00">Unwraps monitor based on IPF options</text>
<text text-anchor="middle" x="919.89" y="-1150.2" font-family="Helvetica,sans-Serif" font-size="14.00">using UnwrapMonitor algorithm.</text>
</g>
<!-- need_to_unwrap&#45;&gt;unwrap_monitor -->
<g id="edge19" class="edge">
<title>need_to_unwrap&#45;&gt;unwrap_monitor</title>
<path fill="none" stroke="black" d="M912.3,-1266.78C913.45,-1252.61 915.12,-1232 916.6,-1213.73"/>
<polygon fill="black" stroke="black" points="920.07,-1214.19 917.39,-1203.94 913.1,-1213.63 920.07,-1214.19"/>
<text text-anchor="middle" x="927.14" y="-1223.95" font-family="Helvetica,sans-Serif" font-size="14.00">Yes</text>
</g>
<!-- process_monitor_efficiency -->
<g id="node19" class="node">
<title>process_monitor_efficiency</title>
<polygon fill="lightseagreen" stroke="black" points="1185.77,-981 938.02,-981 938.02,-921.25 1185.77,-921.25 1185.77,-981"/>
<text text-anchor="middle" x="1061.89" y="-963.7" font-family="Helvetica,sans-Serif" font-size="14.00">process_monitor_efficiency</text>
<text text-anchor="middle" x="1061.89" y="-946.45" font-family="Helvetica,sans-Serif" font-size="14.00">Corrects for monitor efficiency by</text>
<text text-anchor="middle" x="1061.89" y="-929.2" font-family="Helvetica,sans-Serif" font-size="14.00">area, thickness and attenuation.</text>
</g>
<!-- need_to_unwrap&#45;&gt;process_monitor_efficiency -->
<g id="edge24" class="edge">
<title>need_to_unwrap&#45;&gt;process_monitor_efficiency</title>
<path fill="none" stroke="black" d="M965.97,-1271.89C1002.95,-1260.51 1048.95,-1239.46 1071.89,-1202 1111.5,-1137.33 1092.4,-1044.57 1076.27,-992.17"/>
<polygon fill="black" stroke="black" points="1079.64,-991.21 1073.25,-982.75 1072.97,-993.34 1079.64,-991.21"/>
<text text-anchor="middle" x="1104.27" y="-1101.58" font-family="Helvetica,sans-Serif" font-size="14.00">No</text>
</g>
<!-- is_multi_frame -->
<g id="node2" class="node">
<title>is_multi_frame</title>
<polygon fill="limegreen" stroke="black" points="685.89,-391.75 537.58,-373.75 685.89,-355.75 834.2,-373.75 685.89,-391.75"/>
<text text-anchor="middle" x="685.89" y="-369.07" font-family="Helvetica,sans-Serif" font-size="14.00">Is Multiple Frames?</text>
</g>
<!-- fold_chopped -->
<g id="node24" class="node">
<title>fold_chopped</title>
<polygon fill="lightseagreen" stroke="black" points="717.27,-302.5 520.52,-302.5 520.52,-242.75 717.27,-242.75 717.27,-302.5"/>
<text text-anchor="middle" x="618.89" y="-285.2" font-family="Helvetica,sans-Serif" font-size="14.00">fold_chopped</text>
<text text-anchor="middle" x="618.89" y="-267.95" font-family="Helvetica,sans-Serif" font-size="14.00">Folds multiple frames into</text>
<text text-anchor="middle" x="618.89" y="-250.7" font-family="Helvetica,sans-Serif" font-size="14.00">a single reduction.</text>
</g>
<!-- is_multi_frame&#45;&gt;fold_chopped -->
<g id="edge38" class="edge">
<title>is_multi_frame&#45;&gt;fold_chopped</title>
<path fill="none" stroke="black" d="M675.13,-356.82C666.98,-344.77 655.43,-327.69 644.92,-312.13"/>
<polygon fill="black" stroke="black" points="647.9,-310.29 639.4,-303.96 642.1,-314.21 647.9,-310.29"/>
<text text-anchor="middle" x="672.14" y="-324.45" font-family="Helvetica,sans-Serif" font-size="14.00">Yes</text>
</g>
<!-- rename_reduction -->
<g id="node25" class="node">
<title>rename_reduction</title>
<polygon fill="lightseagreen" stroke="black" points="799.27,-205.75 572.52,-205.75 572.52,-146 799.27,-146 799.27,-205.75"/>
<text text-anchor="middle" x="685.89" y="-188.45" font-family="Helvetica,sans-Serif" font-size="14.00">rename_reduction</text>
<text text-anchor="middle" x="685.89" y="-171.2" font-family="Helvetica,sans-Serif" font-size="14.00">Renames reduced workspaces</text>
<text text-anchor="middle" x="685.89" y="-153.95" font-family="Helvetica,sans-Serif" font-size="14.00">as per the IPF options.</text>
</g>
<!-- is_multi_frame&#45;&gt;rename_reduction -->
<g id="edge40" class="edge">
<title>is_multi_frame&#45;&gt;rename_reduction</title>
<path fill="none" stroke="black" d="M698.21,-356.79C707.87,-343.2 720.54,-322.72 725.89,-302.5 732.69,-276.83 733.05,-268.32 725.89,-242.75 723.3,-233.49 719.01,-224.24 714.18,-215.72"/>
<polygon fill="black" stroke="black" points="717.3,-214.11 709.12,-207.39 711.32,-217.75 717.3,-214.11"/>
<text text-anchor="middle" x="740.27" y="-267.95" font-family="Helvetica,sans-Serif" font-size="14.00">No</text>
</g>
<!-- InputFiles -->
<g id="node3" class="node">
<title>InputFiles</title>
<ellipse fill="khaki" stroke="black" cx="617.89" cy="-1484" rx="58.05" ry="18"/>
<text text-anchor="middle" x="617.89" y="-1479.33" font-family="Helvetica,sans-Serif" font-size="14.00">InputFiles</text>
</g>
<!-- load_files -->
<g id="node15" class="node">
<title>load_files</title>
<polygon fill="lightseagreen" stroke="black" points="1045.77,-1429 726.02,-1429 726.02,-1352 1045.77,-1352 1045.77,-1429"/>
<text text-anchor="middle" x="885.89" y="-1411.7" font-family="Helvetica,sans-Serif" font-size="14.00">load_files</text>
<text text-anchor="middle" x="885.89" y="-1394.45" font-family="Helvetica,sans-Serif" font-size="14.00">Loads run files and instrument parameters.</text>
<text text-anchor="middle" x="885.89" y="-1377.2" font-family="Helvetica,sans-Serif" font-size="14.00">Chops data into multiple frames if required.</text>
<text text-anchor="middle" x="885.89" y="-1359.95" font-family="Helvetica,sans-Serif" font-size="14.00">Summs runs if required.</text>
</g>
<!-- InputFiles&#45;&gt;load_files -->
<g id="edge1" class="edge">
<title>InputFiles&#45;&gt;load_files</title>
<path fill="none" stroke="black" d="M656.01,-1469.99C684.46,-1460.27 725.03,-1446.42 764.19,-1433.05"/>
<polygon fill="black" stroke="black" points="764.88,-1436.52 773.21,-1429.97 762.61,-1429.89 764.88,-1436.52"/>
</g>
<!-- SumFiles -->
<g id="node4" class="node">
<title>SumFiles</title>
<ellipse fill="khaki" stroke="black" cx="747.89" cy="-1484" rx="54.36" ry="18"/>
<text text-anchor="middle" x="747.89" y="-1479.33" font-family="Helvetica,sans-Serif" font-size="14.00">SumFiles</text>
</g>
<!-- SumFiles&#45;&gt;load_files -->
<g id="edge5" class="edge">
<title>SumFiles&#45;&gt;load_files</title>
<path fill="none" stroke="black" d="M771.3,-1467.48C784.6,-1458.66 802,-1447.13 819.2,-1435.72"/>
<polygon fill="black" stroke="black" points="821.04,-1438.7 827.44,-1430.25 817.18,-1432.86 821.04,-1438.7"/>
</g>
<!-- CalibrationFile -->
<g id="node5" class="node">
<title>CalibrationFile</title>
<ellipse fill="khaki" stroke="black" cx="212.89" cy="-1052.25" rx="79.62" ry="18"/>
<text text-anchor="middle" x="212.89" y="-1047.58" font-family="Helvetica,sans-Serif" font-size="14.00">CalibrationFile</text>
</g>
<!-- AlignDetectors -->
<g id="node34" class="node">
<title>AlignDetectors</title>
<ellipse fill="lightgrey" stroke="black" cx="220.89" cy="-951.12" rx="82.77" ry="18"/>
<text text-anchor="middle" x="220.89" y="-946.45" font-family="Helvetica,sans-Serif" font-size="14.00">AlignDetectors</text>
</g>
<!-- CalibrationFile&#45;&gt;AlignDetectors -->
<g id="edge8" class="edge">
<title>CalibrationFile&#45;&gt;AlignDetectors</title>
<path fill="none" stroke="black" d="M214.29,-1033.98C215.47,-1019.36 217.18,-998.1 218.57,-980.91"/>
<polygon fill="black" stroke="black" points="222.05,-981.28 219.37,-971.03 215.07,-980.72 222.05,-981.28"/>
</g>
<!-- DiffractionFocussing -->
<g id="node35" class="node">
<title>DiffractionFocussing</title>
<ellipse fill="lightgrey" stroke="black" cx="331.89" cy="-838.12" rx="110.13" ry="18"/>
<text text-anchor="middle" x="331.89" y="-833.45" font-family="Helvetica,sans-Serif" font-size="14.00">DiffractionFocussing</text>
</g>
<!-- CalibrationFile&#45;&gt;DiffractionFocussing -->
<g id="edge10" class="edge">
<title>CalibrationFile&#45;&gt;DiffractionFocussing</title>
<path fill="none" stroke="black" d="M248.34,-1035.67C270.63,-1023.95 297.91,-1005.66 312.89,-981 333.98,-946.28 335.88,-898.05 334.5,-867.72"/>
<polygon fill="black" stroke="black" points="338,-867.56 333.88,-857.8 331.01,-867.99 338,-867.56"/>
</g>
<!-- Instrument -->
<g id="node6" class="node">
<title>Instrument</title>
<ellipse fill="khaki" stroke="black" cx="885.89" cy="-1484" rx="65.41" ry="18"/>
<text text-anchor="middle" x="885.89" y="-1479.33" font-family="Helvetica,sans-Serif" font-size="14.00">Instrument</text>
</g>
<!-- Instrument&#45;&gt;load_files -->
<g id="edge3" class="edge">
<title>Instrument&#45;&gt;load_files</title>
<path fill="none" stroke="black" d="M885.89,-1465.79C885.89,-1458.58 885.89,-1449.8 885.89,-1440.84"/>
<polygon fill="black" stroke="black" points="889.39,-1441 885.89,-1431 882.39,-1441 889.39,-1441"/>
</g>
<!-- Mode -->
<g id="node7" class="node">
<title>Mode</title>
<ellipse fill="khaki" stroke="black" cx="1006.89" cy="-1484" rx="37.53" ry="18"/>
<text text-anchor="middle" x="1006.89" y="-1479.33" font-family="Helvetica,sans-Serif" font-size="14.00">Mode</text>
</g>
<!-- Mode&#45;&gt;load_files -->
<g id="edge4" class="edge">
<title>Mode&#45;&gt;load_files</title>
<path fill="none" stroke="black" d="M987.45,-1468.3C975.84,-1459.52 960.4,-1447.84 945.07,-1436.25"/>
<polygon fill="black" stroke="black" points="947.39,-1433.61 937.3,-1430.37 943.16,-1439.2 947.39,-1433.61"/>
</g>
<!-- SpectraRange -->
<g id="node8" class="node">
<title>SpectraRange</title>
<ellipse fill="khaki" stroke="black" cx="1141.89" cy="-1484" rx="79.62" ry="18"/>
<text text-anchor="middle" x="1141.89" y="-1479.33" font-family="Helvetica,sans-Serif" font-size="14.00">SpectraRange</text>
</g>
<!-- SpectraRange&#45;&gt;load_files -->
<g id="edge2" class="edge">
<title>SpectraRange&#45;&gt;load_files</title>
<path fill="none" stroke="black" d="M1100.48,-1468.2C1073.87,-1458.69 1037.86,-1445.82 1002.94,-1433.34"/>
<polygon fill="black" stroke="black" points="1004.17,-1430.06 993.58,-1429.99 1001.82,-1436.65 1004.17,-1430.06"/>
</g>
<!-- RebinParam -->
<g id="node9" class="node">
<title>RebinParam</title>
<ellipse fill="khaki" stroke="black" cx="609.89" cy="-838.12" rx="69.1" ry="18"/>
<text text-anchor="middle" x="609.89" y="-833.45" font-family="Helvetica,sans-Serif" font-size="14.00">RebinParam</text>
</g>
<!-- get_multi_frame_rebin -->
<g id="node16" class="node">
<title>get_multi_frame_rebin</title>
<polygon fill="lightseagreen" stroke="black" points="591.64,-771.25 352.14,-771.25 352.14,-711.5 591.64,-711.5 591.64,-771.25"/>
<text text-anchor="middle" x="471.89" y="-753.95" font-family="Helvetica,sans-Serif" font-size="14.00">get_multi_frame_rebin</text>
<text text-anchor="middle" x="471.89" y="-736.7" font-family="Helvetica,sans-Serif" font-size="14.00">Gets a rebin string for rebinning</text>
<text text-anchor="middle" x="471.89" y="-719.45" font-family="Helvetica,sans-Serif" font-size="14.00">multiple frames.</text>
</g>
<!-- RebinParam&#45;&gt;get_multi_frame_rebin -->
<g id="edge13" class="edge">
<title>RebinParam&#45;&gt;get_multi_frame_rebin</title>
<path fill="none" stroke="black" d="M586.17,-820.84C569.05,-809.08 545.28,-792.76 523.84,-778.04"/>
<polygon fill="black" stroke="black" points="525.98,-775.27 515.76,-772.49 522.02,-781.04 525.98,-775.27"/>
</g>
<!-- rebin_reduction -->
<g id="node22" class="node">
<title>rebin_reduction</title>
<polygon fill="lightseagreen" stroke="black" points="788.77,-585.25 583.02,-585.25 583.02,-525.5 788.77,-525.5 788.77,-585.25"/>
<text text-anchor="middle" x="685.89" y="-567.95" font-family="Helvetica,sans-Serif" font-size="14.00">rebin_reduction</text>
<text text-anchor="middle" x="685.89" y="-550.7" font-family="Helvetica,sans-Serif" font-size="14.00">Rebins the reduction based</text>
<text text-anchor="middle" x="685.89" y="-533.45" font-family="Helvetica,sans-Serif" font-size="14.00">on the RebinParam option.</text>
</g>
<!-- RebinParam&#45;&gt;rebin_reduction -->
<g id="edge31" class="edge">
<title>RebinParam&#45;&gt;rebin_reduction</title>
<path fill="none" stroke="black" d="M616.11,-820.06C627.45,-788.48 651.71,-718.62 666.89,-658.25 671.94,-638.17 676.29,-615.55 679.55,-596.73"/>
<polygon fill="black" stroke="black" points="682.97,-597.5 681.19,-587.06 676.07,-596.34 682.97,-597.5"/>
</g>
<!-- GroupingMethod -->
<g id="node10" class="node">
<title>GroupingMethod</title>
<ellipse fill="khaki" stroke="black" cx="472.89" cy="-555.38" rx="92.24" ry="18"/>
<text text-anchor="middle" x="472.89" y="-550.7" font-family="Helvetica,sans-Serif" font-size="14.00">GroupingMethod</text>
</g>
<!-- group_spectra -->
<g id="node23" class="node">
<title>group_spectra</title>
<polygon fill="lightseagreen" stroke="black" points="778.27,-488.5 593.52,-488.5 593.52,-428.75 778.27,-428.75 778.27,-488.5"/>
<text text-anchor="middle" x="685.89" y="-471.2" font-family="Helvetica,sans-Serif" font-size="14.00">group_spectra</text>
<text text-anchor="middle" x="685.89" y="-453.95" font-family="Helvetica,sans-Serif" font-size="14.00">Groups spectra based</text>
<text text-anchor="middle" x="685.89" y="-436.7" font-family="Helvetica,sans-Serif" font-size="14.00">on the GroupingMethod.</text>
</g>
<!-- GroupingMethod&#45;&gt;group_spectra -->
<g id="edge35" class="edge">
<title>GroupingMethod&#45;&gt;group_spectra</title>
<path fill="none" stroke="black" d="M508.54,-538.52C536.14,-526.24 575.35,-508.8 609.88,-493.44"/>
<polygon fill="black" stroke="black" points="610.86,-496.83 618.57,-489.57 608.01,-490.44 610.86,-496.83"/>
</g>
<!-- OutputWorkspace -->
<g id="node11" class="node">
<title>OutputWorkspace</title>
<ellipse fill="khaki" stroke="black" cx="685.89" cy="-18" rx="98.56" ry="18"/>
<text text-anchor="middle" x="685.89" y="-13.32" font-family="Helvetica,sans-Serif" font-size="14.00">OutputWorkspace</text>
</g>
<!-- ConvertUnits_unwrap_monitor -->
<g id="node12" class="node">
<title>ConvertUnits_unwrap_monitor</title>
<path fill="lightskyblue" stroke="black" d="M805.27,-1070.25C805.27,-1070.25 722.52,-1070.25 722.52,-1070.25 716.52,-1070.25 710.52,-1064.25 710.52,-1058.25 710.52,-1058.25 710.52,-1046.25 710.52,-1046.25 710.52,-1040.25 716.52,-1034.25 722.52,-1034.25 722.52,-1034.25 805.27,-1034.25 805.27,-1034.25 811.27,-1034.25 817.27,-1040.25 817.27,-1046.25 817.27,-1046.25 817.27,-1058.25 817.27,-1058.25 817.27,-1064.25 811.27,-1070.25 805.27,-1070.25"/>
<text text-anchor="middle" x="763.89" y="-1047.58" font-family="Helvetica,sans-Serif" font-size="14.00">ConvertUnits</text>
</g>
<!-- ConvertUnits_unwrap_monitor&#45;&gt;process_monitor_efficiency -->
<g id="edge23" class="edge">
<title>ConvertUnits_unwrap_monitor&#45;&gt;process_monitor_efficiency</title>
<path fill="none" stroke="black" d="M816.48,-1033.76C856.96,-1020.29 914.06,-1001.3 963,-985.02"/>
<polygon fill="black" stroke="black" points="963.82,-988.44 972.2,-981.96 961.61,-981.8 963.82,-988.44"/>
</g>
<!-- ConvertUnits_dSpacing -->
<g id="node13" class="node">
<title>ConvertUnits_dSpacing</title>
<path fill="lightskyblue" stroke="black" d="M898.27,-658.25C898.27,-658.25 815.52,-658.25 815.52,-658.25 809.52,-658.25 803.52,-652.25 803.52,-646.25 803.52,-646.25 803.52,-634.25 803.52,-634.25 803.52,-628.25 809.52,-622.25 815.52,-622.25 815.52,-622.25 898.27,-622.25 898.27,-622.25 904.27,-622.25 910.27,-628.25 910.27,-634.25 910.27,-634.25 910.27,-646.25 910.27,-646.25 910.27,-652.25 904.27,-658.25 898.27,-658.25"/>
<text text-anchor="middle" x="856.89" y="-635.58" font-family="Helvetica,sans-Serif" font-size="14.00">ConvertUnits</text>
</g>
<!-- ConvertUnits_dSpacing&#45;&gt;rebin_reduction -->
<g id="edge30" class="edge">
<title>ConvertUnits_dSpacing&#45;&gt;rebin_reduction</title>
<path fill="none" stroke="black" d="M821.05,-621.88C802.28,-612.78 778.62,-601.32 756.37,-590.53"/>
<polygon fill="black" stroke="black" points="758.15,-587.51 747.63,-586.3 755.1,-593.81 758.15,-587.51"/>
</g>
<!-- GroupWorkspaces -->
<g id="node14" class="node">
<title>GroupWorkspaces</title>
<path fill="lightskyblue" stroke="black" d="M744.52,-109C744.52,-109 627.27,-109 627.27,-109 621.27,-109 615.27,-103 615.27,-97 615.27,-97 615.27,-85 615.27,-85 615.27,-79 621.27,-73 627.27,-73 627.27,-73 744.52,-73 744.52,-73 750.52,-73 756.52,-79 756.52,-85 756.52,-85 756.52,-97 756.52,-97 756.52,-103 750.52,-109 744.52,-109"/>
<text text-anchor="middle" x="685.89" y="-86.33" font-family="Helvetica,sans-Serif" font-size="14.00">GroupWorkspaces</text>
</g>
<!-- GroupWorkspaces&#45;&gt;OutputWorkspace -->
<g id="edge42" class="edge">
<title>GroupWorkspaces&#45;&gt;OutputWorkspace</title>
<path fill="none" stroke="black" d="M685.89,-72.81C685.89,-65.23 685.89,-56.1 685.89,-47.54"/>
<polygon fill="black" stroke="black" points="689.39,-47.54 685.89,-37.54 682.39,-47.54 689.39,-47.54"/>
</g>
<!-- load_files&#45;&gt;need_to_unwrap -->
<g id="edge18" class="edge">
<title>load_files&#45;&gt;need_to_unwrap</title>
<path fill="none" stroke="black" d="M895.06,-1351.59C898.04,-1339.28 901.29,-1325.83 904.07,-1314.35"/>
<polygon fill="black" stroke="black" points="907.45,-1315.24 906.4,-1304.7 900.65,-1313.59 907.45,-1315.24"/>
</g>
<!-- identify_bad_detectors -->
<g id="node17" class="node">
<title>identify_bad_detectors</title>
<polygon fill="lightseagreen" stroke="black" points="1397.02,-1315 1120.77,-1315 1120.77,-1255.25 1397.02,-1255.25 1397.02,-1315"/>
<text text-anchor="middle" x="1258.89" y="-1297.7" font-family="Helvetica,sans-Serif" font-size="14.00">identify_bad_detectors</text>
<text text-anchor="middle" x="1258.89" y="-1280.45" font-family="Helvetica,sans-Serif" font-size="14.00">Gets a list of noisy detectors using</text>
<text text-anchor="middle" x="1258.89" y="-1263.2" font-family="Helvetica,sans-Serif" font-size="14.00">the IdentifyNoisyDetectors algorithm.</text>
</g>
<!-- load_files&#45;&gt;identify_bad_detectors -->
<g id="edge16" class="edge">
<title>load_files&#45;&gt;identify_bad_detectors</title>
<path fill="none" stroke="black" d="M1022.93,-1351.52C1061.99,-1340.7 1104.17,-1329.01 1141.91,-1318.54"/>
<polygon fill="black" stroke="black" points="1142.79,-1321.93 1151.5,-1315.89 1140.93,-1315.19 1142.79,-1321.93"/>
</g>
<!-- has_calib_file -->
<g id="node33" class="node">
<title>has_calib_file</title>
<polygon fill="limegreen" stroke="black" points="471.89,-1070.25 310.93,-1052.25 471.89,-1034.25 632.85,-1052.25 471.89,-1070.25"/>
<text text-anchor="middle" x="471.89" y="-1047.58" font-family="Helvetica,sans-Serif" font-size="14.00">Using Calibration File</text>
</g>
<!-- load_files&#45;&gt;has_calib_file -->
<g id="edge6" class="edge">
<title>load_files&#45;&gt;has_calib_file</title>
<path fill="none" stroke="black" d="M725.75,-1356.87C639.15,-1330.39 538.94,-1283.54 483.89,-1202 459.6,-1166.01 461.97,-1113.39 466.5,-1081.34"/>
<polygon fill="black" stroke="black" points="469.93,-1082.07 468.06,-1071.64 463.02,-1080.96 469.93,-1082.07"/>
</g>
<!-- multi_frame_rebin_string -->
<g id="node26" class="node">
<title>multi_frame_rebin_string</title>
<polygon fill="grey" stroke="black" points="327.78,-658.25 67.07,-658.25 0,-622.25 260.72,-622.25 327.78,-658.25"/>
<text text-anchor="middle" x="163.89" y="-634.08" font-family="Times,serif" font-size="14.00">Multiple Frame Rebin String</text>
</g>
<!-- get_multi_frame_rebin&#45;&gt;multi_frame_rebin_string -->
<g id="edge14" class="edge">
<title>get_multi_frame_rebin&#45;&gt;multi_frame_rebin_string</title>
<path fill="none" stroke="black" d="M380.73,-711.04C332,-695.35 273.14,-676.41 229.04,-662.22"/>
<polygon fill="black" stroke="black" points="230.2,-658.91 219.61,-659.18 228.05,-665.58 230.2,-658.91"/>
</g>
<!-- multi_frame_num_bins -->
<g id="node27" class="node">
<title>multi_frame_num_bins</title>
<polygon fill="grey" stroke="black" points="658.09,-658.25 409.61,-658.25 345.69,-622.25 594.17,-622.25 658.09,-658.25"/>
<text text-anchor="middle" x="501.89" y="-634.08" font-family="Times,serif" font-size="14.00">Maximum Number of Bins</text>
</g>
<!-- get_multi_frame_rebin&#45;&gt;multi_frame_num_bins -->
<g id="edge15" class="edge">
<title>get_multi_frame_rebin&#45;&gt;multi_frame_num_bins</title>
<path fill="none" stroke="black" d="M480.73,-711.17C484.74,-697.92 489.46,-682.32 493.43,-669.22"/>
<polygon fill="black" stroke="black" points="496.69,-670.51 496.24,-659.92 489.99,-668.48 496.69,-670.51"/>
</g>
<!-- masked_detectors -->
<g id="node28" class="node">
<title>masked_detectors</title>
<polygon fill="grey" stroke="black" points="1341.83,-1124.25 1170.12,-1124.25 1125.95,-1088.25 1297.66,-1088.25 1341.83,-1124.25"/>
<text text-anchor="middle" x="1233.89" y="-1100.08" font-family="Times,serif" font-size="14.00">Masked Detectors</text>
</g>
<!-- identify_bad_detectors&#45;&gt;masked_detectors -->
<g id="edge17" class="edge">
<title>identify_bad_detectors&#45;&gt;masked_detectors</title>
<path fill="none" stroke="black" d="M1254.76,-1254.92C1250.1,-1221.88 1242.54,-1168.45 1237.92,-1135.72"/>
<polygon fill="black" stroke="black" points="1241.43,-1135.59 1236.57,-1126.18 1234.5,-1136.57 1241.43,-1135.59"/>
</g>
<!-- unwrap_monitor&#45;&gt;ConvertUnits_unwrap_monitor -->
<g id="edge20" class="edge">
<title>unwrap_monitor&#45;&gt;ConvertUnits_unwrap_monitor</title>
<path fill="none" stroke="black" d="M881.33,-1141.99C855.09,-1122.16 820.76,-1096.22 796.01,-1077.52"/>
<polygon fill="black" stroke="black" points="798.32,-1074.88 788.23,-1071.64 794.1,-1080.46 798.32,-1074.88"/>
</g>
<!-- scale_monitor -->
<g id="node20" class="node">
<title>scale_monitor</title>
<polygon fill="lightseagreen" stroke="black" points="1151.27,-868 972.52,-868 972.52,-808.25 1151.27,-808.25 1151.27,-868"/>
<text text-anchor="middle" x="1061.89" y="-850.7" font-family="Helvetica,sans-Serif" font-size="14.00">scale_monitor</text>
<text text-anchor="middle" x="1061.89" y="-833.45" font-family="Helvetica,sans-Serif" font-size="14.00">Applies monitor scaling</text>
<text text-anchor="middle" x="1061.89" y="-816.2" font-family="Helvetica,sans-Serif" font-size="14.00">as per the IPF.</text>
</g>
<!-- process_monitor_efficiency&#45;&gt;scale_monitor -->
<g id="edge25" class="edge">
<title>process_monitor_efficiency&#45;&gt;scale_monitor</title>
<path fill="none" stroke="black" d="M1061.89,-920.96C1061.89,-908.32 1061.89,-893.29 1061.89,-879.6"/>
<polygon fill="black" stroke="black" points="1065.39,-879.99 1061.89,-869.99 1058.39,-879.99 1065.39,-879.99"/>
</g>
<!-- scale_detectors -->
<g id="node21" class="node">
<title>scale_detectors</title>
<polygon fill="lightseagreen" stroke="black" points="1151.27,-771.25 972.52,-771.25 972.52,-711.5 1151.27,-711.5 1151.27,-771.25"/>
<text text-anchor="middle" x="1061.89" y="-753.95" font-family="Helvetica,sans-Serif" font-size="14.00">scale_detectors</text>
<text text-anchor="middle" x="1061.89" y="-736.7" font-family="Helvetica,sans-Serif" font-size="14.00">Scales detectors by the</text>
<text text-anchor="middle" x="1061.89" y="-719.45" font-family="Helvetica,sans-Serif" font-size="14.00">monitor intensity.</text>
</g>
<!-- scale_monitor&#45;&gt;scale_detectors -->
<g id="edge26" class="edge">
<title>scale_monitor&#45;&gt;scale_detectors</title>
<path fill="none" stroke="black" d="M1061.89,-807.92C1061.89,-800.09 1061.89,-791.47 1061.89,-783.13"/>
<polygon fill="black" stroke="black" points="1065.39,-783.16 1061.89,-773.16 1058.39,-783.16 1065.39,-783.16"/>
</g>
<!-- scale_detectors&#45;&gt;ConvertUnits_dSpacing -->
<g id="edge27" class="edge">
<title>scale_detectors&#45;&gt;ConvertUnits_dSpacing</title>
<path fill="none" stroke="black" d="M1003.13,-711.06C980.87,-700.04 955.26,-687.46 931.89,-676.25 923.23,-672.09 913.98,-667.72 905.04,-663.53"/>
<polygon fill="black" stroke="black" points="906.65,-660.42 896.11,-659.36 903.69,-666.76 906.65,-660.42"/>
</g>
<!-- rebin_reduction&#45;&gt;group_spectra -->
<g id="edge34" class="edge">
<title>rebin_reduction&#45;&gt;group_spectra</title>
<path fill="none" stroke="black" d="M685.89,-525.17C685.89,-517.34 685.89,-508.72 685.89,-500.38"/>
<polygon fill="black" stroke="black" points="689.39,-500.41 685.89,-490.41 682.39,-500.41 689.39,-500.41"/>
</g>
<!-- group_spectra&#45;&gt;is_multi_frame -->
<g id="edge37" class="edge">
<title>group_spectra&#45;&gt;is_multi_frame</title>
<path fill="none" stroke="black" d="M685.89,-428.64C685.89,-420.49 685.89,-411.62 685.89,-403.48"/>
<polygon fill="black" stroke="black" points="689.39,-403.76 685.89,-393.76 682.39,-403.76 689.39,-403.76"/>
</g>
<!-- fold_chopped&#45;&gt;rename_reduction -->
<g id="edge39" class="edge">
<title>fold_chopped&#45;&gt;rename_reduction</title>
<path fill="none" stroke="black" d="M639.54,-242.42C645.59,-233.87 652.3,-224.38 658.69,-215.34"/>
<polygon fill="black" stroke="black" points="661.41,-217.56 664.32,-207.38 655.69,-213.52 661.41,-217.56"/>
</g>
<!-- rename_reduction&#45;&gt;GroupWorkspaces -->
<g id="edge41" class="edge">
<title>rename_reduction&#45;&gt;GroupWorkspaces</title>
<path fill="none" stroke="black" d="M685.89,-145.89C685.89,-137.74 685.89,-128.87 685.89,-120.73"/>
<polygon fill="black" stroke="black" points="689.39,-121.01 685.89,-111.01 682.39,-121.01 689.39,-121.01"/>
</g>
<!-- multi_frame_rebin_string&#45;&gt;rebin_reduction -->
<g id="edge32" class="edge">
<title>multi_frame_rebin_string&#45;&gt;rebin_reduction</title>
<path fill="none" stroke="black" d="M273.24,-628.5C353.34,-619.77 464.82,-605.86 571.28,-585.67"/>
<polygon fill="black" stroke="black" points="571.91,-589.11 581.07,-583.79 570.59,-582.24 571.91,-589.11"/>
</g>
<!-- multi_frame_num_bins&#45;&gt;rebin_reduction -->
<g id="edge33" class="edge">
<title>multi_frame_num_bins&#45;&gt;rebin_reduction</title>
<path fill="none" stroke="black" d="M540.46,-621.88C560.84,-612.7 586.57,-601.11 610.7,-590.24"/>
<polygon fill="black" stroke="black" points="611.87,-593.55 619.55,-586.26 608.99,-587.17 611.87,-593.55"/>
</g>
<!-- masked_detectors&#45;&gt;group_spectra -->
<g id="edge36" class="edge">
<title>masked_detectors&#45;&gt;group_spectra</title>
<path fill="none" stroke="black" d="M1231.87,-1087.82C1229.8,-1068.49 1226.89,-1036.38 1226.89,-1008.62 1226.89,-1008.62 1226.89,-1008.62 1226.89,-554.38 1226.89,-510.46 946.79,-480.69 789.68,-467.44"/>
<polygon fill="black" stroke="black" points="790.35,-463.98 780.09,-466.64 789.77,-470.96 790.35,-463.98"/>
</g>
<!-- e_mode_unwrap_monitor -->
<g id="node29" class="node">
<title>e_mode_unwrap_monitor</title>
<polygon fill="grey" stroke="black" points="591.08,-1190.12 512.83,-1190.12 492.7,-1154.12 570.95,-1154.12 591.08,-1190.12"/>
<text text-anchor="middle" x="541.89" y="-1165.95" font-family="Times,serif" font-size="14.00">Elastic</text>
</g>
<!-- e_mode_unwrap_monitor&#45;&gt;ConvertUnits_unwrap_monitor -->
<g id="edge22" class="edge">
<title>e_mode_unwrap_monitor&#45;&gt;ConvertUnits_unwrap_monitor</title>
<path fill="none" stroke="black" d="M564.06,-1153.75C588.01,-1135.59 627.8,-1107.17 665.39,-1088.25 676.19,-1082.82 688.04,-1077.84 699.66,-1073.45"/>
<polygon fill="black" stroke="black" points="700.61,-1076.83 708.81,-1070.11 698.21,-1070.25 700.61,-1076.83"/>
<text text-anchor="middle" x="689.14" y="-1101.58" font-family="Helvetica,sans-Serif" font-size="14.00">EMode</text>
</g>
<!-- unit_unwrap_monitor -->
<g id="node30" class="node">
<title>unit_unwrap_monitor</title>
<polygon fill="grey" stroke="black" points="758.96,-1190.12 639.54,-1190.12 608.82,-1154.12 728.24,-1154.12 758.96,-1190.12"/>
<text text-anchor="middle" x="683.89" y="-1165.95" font-family="Times,serif" font-size="14.00">Wavelength</text>
</g>
<!-- unit_unwrap_monitor&#45;&gt;ConvertUnits_unwrap_monitor -->
<g id="edge21" class="edge">
<title>unit_unwrap_monitor&#45;&gt;ConvertUnits_unwrap_monitor</title>
<path fill="none" stroke="black" d="M695.7,-1153.73C708.87,-1134.32 730.35,-1102.67 745.68,-1080.08"/>
<polygon fill="black" stroke="black" points="748.47,-1082.21 751.19,-1071.97 742.68,-1078.28 748.47,-1082.21"/>
<text text-anchor="middle" x="758.89" y="-1101.58" font-family="Helvetica,sans-Serif" font-size="14.00">Target</text>
</g>
<!-- e_mode -->
<g id="node31" class="node">
<title>e_mode</title>
<polygon fill="grey" stroke="black" points="954.08,-759.38 875.83,-759.38 855.7,-723.38 933.95,-723.38 954.08,-759.38"/>
<text text-anchor="middle" x="904.89" y="-735.2" font-family="Times,serif" font-size="14.00">Elastic</text>
</g>
<!-- e_mode&#45;&gt;ConvertUnits_dSpacing -->
<g id="edge29" class="edge">
<title>e_mode&#45;&gt;ConvertUnits_dSpacing</title>
<path fill="none" stroke="black" d="M896.53,-723.11C889.28,-708.13 878.66,-686.19 870.23,-668.79"/>
<polygon fill="black" stroke="black" points="873.49,-667.49 865.98,-660.01 867.19,-670.54 873.49,-667.49"/>
<text text-anchor="middle" x="904.14" y="-680.2" font-family="Helvetica,sans-Serif" font-size="14.00">EMode</text>
</g>
<!-- dspacing_unit -->
<g id="node32" class="node">
<title>dspacing_unit</title>
<polygon fill="grey" stroke="black" points="837.67,-759.38 739.39,-759.38 714.11,-723.38 812.39,-723.38 837.67,-759.38"/>
<text text-anchor="middle" x="775.89" y="-735.2" font-family="Times,serif" font-size="14.00">dSpacing</text>
</g>
<!-- dspacing_unit&#45;&gt;ConvertUnits_dSpacing -->
<g id="edge28" class="edge">
<title>dspacing_unit&#45;&gt;ConvertUnits_dSpacing</title>
<path fill="none" stroke="black" d="M790,-723.11C802.58,-707.71 821.19,-684.94 835.58,-667.33"/>
<polygon fill="black" stroke="black" points="838.1,-669.78 841.72,-659.82 832.68,-665.35 838.1,-669.78"/>
<text text-anchor="middle" x="846.89" y="-680.2" font-family="Helvetica,sans-Serif" font-size="14.00">Target</text>
</g>
<!-- has_calib_file&#45;&gt;get_multi_frame_rebin -->
<g id="edge12" class="edge">
<title>has_calib_file&#45;&gt;get_multi_frame_rebin</title>
<path fill="none" stroke="black" d="M471.89,-1033.76C471.89,-985.74 471.89,-850.95 471.89,-782.85"/>
<polygon fill="black" stroke="black" points="475.39,-783.24 471.89,-773.24 468.39,-783.24 475.39,-783.24"/>
<text text-anchor="middle" x="481.27" y="-889.95" font-family="Helvetica,sans-Serif" font-size="14.00">No</text>
</g>
<!-- has_calib_file&#45;&gt;AlignDetectors -->
<g id="edge7" class="edge">
<title>has_calib_file&#45;&gt;AlignDetectors</title>
<path fill="none" stroke="black" d="M437.52,-1037.67C394.11,-1020.53 319.16,-990.93 269.8,-971.44"/>
<polygon fill="black" stroke="black" points="271.36,-968.29 260.78,-967.88 268.79,-974.8 271.36,-968.29"/>
<text text-anchor="middle" x="388.14" y="-1002.95" font-family="Helvetica,sans-Serif" font-size="14.00">Yes</text>
</g>
<!-- AlignDetectors&#45;&gt;DiffractionFocussing -->
<g id="edge9" class="edge">
<title>AlignDetectors&#45;&gt;DiffractionFocussing</title>
<path fill="none" stroke="black" d="M237.75,-933.27C256.17,-914.85 285.86,-885.16 306.97,-864.05"/>
<polygon fill="black" stroke="black" points="309.21,-866.76 313.81,-857.21 304.26,-861.81 309.21,-866.76"/>
</g>
<!-- DiffractionFocussing&#45;&gt;get_multi_frame_rebin -->
<g id="edge11" class="edge">
<title>DiffractionFocussing&#45;&gt;get_multi_frame_rebin</title>
<path fill="none" stroke="black" d="M356.92,-820.19C374.26,-808.45 397.97,-792.41 419.36,-777.93"/>
<polygon fill="black" stroke="black" points="421.1,-780.98 427.42,-772.47 417.18,-775.18 421.1,-780.98"/>
</g>
</g>
</svg>
