<?xml version="1.0" encoding="UTF-8" standalone="no"?>
<!DOCTYPE svg PUBLIC "-//W3C//DTD SVG 1.1//EN"
 "http://www.w3.org/Graphics/SVG/1.1/DTD/svg11.dtd">
<!-- Generated by graphviz version 13.0.1 (20250616.1512)
 -->
<!-- Title: isisPowderGenericAlgs Pages: 1 -->
<svg width="656pt" height="378pt"
 viewBox="0.00 0.00 656.00 378.00" xmlns="http://www.w3.org/2000/svg" xmlns:xlink="http://www.w3.org/1999/xlink">
<g id="graph0" class="graph" transform="scale(1 1) rotate(0) translate(4 373.5)">
<title>isisPowderGenericAlgs</title>
<polygon fill="white" stroke="none" points="-4,4 -4,-373.5 652.29,-373.5 652.29,4 -4,4"/>
<text xml:space="preserve" text-anchor="middle" x="324.15" y="-352.2" font-family="Helvetica,sans-Serif" font-size="14.00">ISISPowder &#45; Generic Processes</text>
<!-- label_LoadCurrentNormWs -->
<g id="node1" class="node">
<title>label_LoadCurrentNormWs</title>
<ellipse fill="lightgrey" stroke="black" cx="150.64" cy="-326.25" rx="150.64" ry="18"/>
<text xml:space="preserve" text-anchor="middle" x="150.64" y="-321.57" font-family="Helvetica,sans-Serif" font-size="14.00">Load Current Normalised WS</text>
</g>
<!-- alg_Load -->
<g id="node5" class="node">
<title>alg_Load</title>
<path fill="lightskyblue" stroke="black" d="M357.27,-271.25C357.27,-271.25 234.02,-271.25 234.02,-271.25 228.02,-271.25 222.02,-265.25 222.02,-259.25 222.02,-259.25 222.02,-247.25 222.02,-247.25 222.02,-241.25 228.02,-235.25 234.02,-235.25 234.02,-235.25 357.27,-235.25 357.27,-235.25 363.27,-235.25 369.27,-241.25 369.27,-247.25 369.27,-247.25 369.27,-259.25 369.27,-259.25 369.27,-265.25 363.27,-271.25 357.27,-271.25"/>
<text xml:space="preserve" text-anchor="middle" x="295.64" y="-248.57" font-family="Helvetica,sans-Serif" font-size="14.00">Load Workspace(s)</text>
</g>
<!-- label_LoadCurrentNormWs&#45;&gt;alg_Load -->
<g id="edge1" class="edge">
<title>label_LoadCurrentNormWs&#45;&gt;alg_Load</title>
<path fill="none" stroke="black" d="M185.01,-308.42C204.35,-298.95 228.76,-287 249.72,-276.74"/>
<polygon fill="black" stroke="black" points="251.21,-279.9 258.65,-272.36 248.13,-273.62 251.21,-279.9"/>
</g>
<!-- param_runNumbers -->
<g id="node2" class="node">
<title>param_runNumbers</title>
<ellipse fill="khaki" stroke="black" cx="440.64" cy="-326.25" rx="121.18" ry="18"/>
<text xml:space="preserve" text-anchor="middle" x="440.64" y="-321.57" font-family="Helvetica,sans-Serif" font-size="14.00">Param: Run number(s)</text>
</g>
<!-- param_runNumbers&#45;&gt;alg_Load -->
<g id="edge2" class="edge">
<title>param_runNumbers&#45;&gt;alg_Load</title>
<path fill="none" stroke="black" d="M406.65,-308.6C387.15,-299.06 362.43,-286.95 341.26,-276.59"/>
<polygon fill="black" stroke="black" points="343.07,-273.58 332.55,-272.32 340,-279.86 343.07,-273.58"/>
</g>
<!-- param_inputMode -->
<g id="node3" class="node">
<title>param_inputMode</title>
<ellipse fill="khaki" stroke="black" cx="517.64" cy="-253.25" rx="130.65" ry="18"/>
<text xml:space="preserve" text-anchor="middle" x="517.64" y="-248.57" font-family="Helvetica,sans-Serif" font-size="14.00">User param: input mode</text>
</g>
<!-- if_inputMode -->
<g id="node7" class="node">
<title>if_inputMode</title>
<polygon fill="limegreen" stroke="black" points="406.64,-198.25 294.05,-180.25 406.64,-162.25 519.24,-180.25 406.64,-198.25"/>
<text xml:space="preserve" text-anchor="middle" x="406.64" y="-175.57" font-family="Helvetica,sans-Serif" font-size="14.00">If: input mode</text>
</g>
<!-- param_inputMode&#45;&gt;if_inputMode -->
<g id="edge4" class="edge">
<title>param_inputMode&#45;&gt;if_inputMode</title>
<path fill="none" stroke="black" d="M491.06,-235.24C475.08,-225.02 454.67,-211.97 437.92,-201.25"/>
<polygon fill="black" stroke="black" points="440.12,-198.51 429.81,-196.07 436.35,-204.41 440.12,-198.51"/>
</g>
<!-- proc_instNormaliseWorkspaces -->
<g id="node4" class="node">
<title>proc_instNormaliseWorkspaces</title>
<polygon fill="lightseagreen" stroke="black" points="579.39,-36 303.89,-36 303.89,0 579.39,0 579.39,-36"/>
<text xml:space="preserve" text-anchor="middle" x="441.64" y="-13.32" font-family="Helvetica,sans-Serif" font-size="14.00">Inst specific: Normalise Workspace(s)</text>
</g>
<!-- alg_Load&#45;&gt;if_inputMode -->
<g id="edge3" class="edge">
<title>alg_Load&#45;&gt;if_inputMode</title>
<path fill="none" stroke="black" d="M322.8,-234.88C338.78,-224.65 359.06,-211.68 375.67,-201.06"/>
<polygon fill="black" stroke="black" points="377.15,-204.27 383.69,-195.93 373.38,-198.37 377.15,-204.27"/>
</g>
<!-- alg_MergeWorkspaces -->
<g id="node6" class="node">
<title>alg_MergeWorkspaces</title>
<path fill="lightskyblue" stroke="black" d="M401.52,-109C401.52,-109 327.77,-109 327.77,-109 321.77,-109 315.77,-103 315.77,-97 315.77,-97 315.77,-85 315.77,-85 315.77,-79 321.77,-73 327.77,-73 327.77,-73 401.52,-73 401.52,-73 407.52,-73 413.52,-79 413.52,-85 413.52,-85 413.52,-97 413.52,-97 413.52,-103 407.52,-109 401.52,-109"/>
<text xml:space="preserve" text-anchor="middle" x="364.64" y="-86.33" font-family="Helvetica,sans-Serif" font-size="14.00">Merge Runs</text>
</g>
<!-- alg_MergeWorkspaces&#45;&gt;proc_instNormaliseWorkspaces -->
<g id="edge6" class="edge">
<title>alg_MergeWorkspaces&#45;&gt;proc_instNormaliseWorkspaces</title>
<path fill="none" stroke="black" d="M383.28,-72.81C392.67,-64.16 404.23,-53.5 414.58,-43.96"/>
<polygon fill="black" stroke="black" points="416.82,-46.65 421.8,-37.3 412.07,-41.51 416.82,-46.65"/>
</g>
<!-- if_inputMode&#45;&gt;proc_instNormaliseWorkspaces -->
<g id="edge7" class="edge">
<title>if_inputMode&#45;&gt;proc_instNormaliseWorkspaces</title>
<path fill="none" stroke="black" d="M443.13,-167.58C453.89,-162.24 464.44,-154.71 470.64,-144.25 488.73,-113.74 473.19,-72.85 458.8,-46.22"/>
<polygon fill="black" stroke="black" points="461.96,-44.69 453.96,-37.74 455.88,-48.16 461.96,-44.69"/>
<text xml:space="preserve" text-anchor="middle" x="516.61" y="-86.33" font-family="Helvetica,sans-Serif" font-size="14.00">&#39;Individual&#39;</text>
</g>
<!-- if_inputMode&#45;&gt;alg_MergeWorkspaces -->
<g id="edge5" class="edge">
<title>if_inputMode&#45;&gt;alg_MergeWorkspaces</title>
<path fill="none" stroke="black" d="M362.14,-168.88C349.48,-163.66 337.12,-155.86 329.64,-144.25 324.03,-135.53 327.4,-126.09 333.86,-117.66"/>
<polygon fill="black" stroke="black" points="336.3,-120.18 340.45,-110.43 331.13,-115.46 336.3,-120.18"/>
<text xml:space="preserve" text-anchor="middle" x="400.14" y="-130.95" font-family="Helvetica,sans-Serif" font-size="14.00">&#39;Summed&#39; or not set</text>
</g>
</g>
</svg>
