<?xml version="1.0" encoding="UTF-8" standalone="no"?>
<!DOCTYPE svg PUBLIC "-//W3C//DTD SVG 1.1//EN"
 "http://www.w3.org/Graphics/SVG/1.1/DTD/svg11.dtd">
<!-- Generated by graphviz version 13.0.1 (20250616.1512)
 -->
<!-- Title: isisPowderCreateVanadium Pages: 1 -->
<svg width="2651pt" height="806pt"
 viewBox="0.00 0.00 2651.00 806.00" xmlns="http://www.w3.org/2000/svg" xmlns:xlink="http://www.w3.org/1999/xlink">
<g id="graph0" class="graph" transform="scale(1 1) rotate(0) translate(4 801.6)">
<title>isisPowderCreateVanadium</title>
<polygon fill="white" stroke="none" points="-4,4 -4,-801.6 2646.61,-801.6 2646.61,4 -4,4"/>
<text xml:space="preserve" text-anchor="middle" x="1321.3" y="-780.3" font-family="Helvetica,sans-Serif" font-size="14.00">ISISPowder &#45; PEARL Focus Mode saving</text>
<!-- label_focusModeAllPearl -->
<g id="node1" class="node">
<title>label_focusModeAllPearl</title>
<ellipse fill="lightgrey" stroke="black" cx="257.5" cy="-742.3" rx="88.04" ry="18"/>
<text xml:space="preserve" text-anchor="middle" x="257.5" y="-737.63" font-family="Helvetica,sans-Serif" font-size="14.00">Focus mode: All</text>
</g>
<!-- alg_MergeRuns_all -->
<g id="node11" class="node">
<title>alg_MergeRuns_all</title>
<path fill="lightskyblue" stroke="black" d="M205,-672C205,-672 12,-672 12,-672 6,-672 0,-666 0,-660 0,-660 0,-648 0,-648 0,-642 6,-636 12,-636 12,-636 205,-636 205,-636 211,-636 217,-642 217,-648 217,-648 217,-660 217,-660 217,-666 211,-672 205,-672"/>
<text xml:space="preserve" text-anchor="middle" x="108.5" y="-649.33" font-family="Helvetica,sans-Serif" font-size="14.00">Merge Runs: Banks 1&#45;9 (inc.)</text>
</g>
<!-- label_focusModeAllPearl&#45;&gt;alg_MergeRuns_all -->
<g id="edge1" class="edge">
<title>label_focusModeAllPearl&#45;&gt;alg_MergeRuns_all</title>
<path fill="none" stroke="black" d="M229.12,-724.87C206.24,-711.61 173.78,-692.81 148.3,-678.05"/>
<polygon fill="black" stroke="black" points="150.28,-675.15 139.87,-673.17 146.77,-681.21 150.28,-675.15"/>
</g>
<!-- alg_SaveGss_all -->
<g id="node13" class="node">
<title>alg_SaveGss_all</title>
<path fill="lightskyblue" stroke="black" d="M563.5,-675.25C563.5,-675.25 247.5,-675.25 247.5,-675.25 241.5,-675.25 235.5,-669.25 235.5,-663.25 235.5,-663.25 235.5,-644.75 235.5,-644.75 235.5,-638.75 241.5,-632.75 247.5,-632.75 247.5,-632.75 563.5,-632.75 563.5,-632.75 569.5,-632.75 575.5,-638.75 575.5,-644.75 575.5,-644.75 575.5,-663.25 575.5,-663.25 575.5,-669.25 569.5,-675.25 563.5,-675.25"/>
<text xml:space="preserve" text-anchor="middle" x="405.5" y="-657.95" font-family="Helvetica,sans-Serif" font-size="14.00">Save GSS: TOF</text>
<text xml:space="preserve" text-anchor="middle" x="405.5" y="-640.7" font-family="Helvetica,sans-Serif" font-size="14.00"> Appending banks 10&#45;12 (inc.) to merged runs</text>
</g>
<!-- label_focusModeAllPearl&#45;&gt;alg_SaveGss_all -->
<g id="edge9" class="edge">
<title>label_focusModeAllPearl&#45;&gt;alg_SaveGss_all</title>
<path fill="none" stroke="black" d="M285.69,-724.87C306.77,-712.57 336.03,-695.51 360.36,-681.32"/>
<polygon fill="black" stroke="black" points="361.91,-684.47 368.79,-676.41 358.39,-678.42 361.91,-684.47"/>
</g>
<!-- label_focusModeGroupsPearl -->
<g id="node2" class="node">
<title>label_focusModeGroupsPearl</title>
<ellipse fill="lightgrey" stroke="black" cx="1139.5" cy="-742.3" rx="110.66" ry="18"/>
<text xml:space="preserve" text-anchor="middle" x="1139.5" y="-737.63" font-family="Helvetica,sans-Serif" font-size="14.00">Focus mode: Groups</text>
</g>
<!-- alg_MergeRuns_groups -->
<g id="node18" class="node">
<title>alg_MergeRuns_groups</title>
<path fill="lightskyblue" stroke="black" d="M1172,-675.25C1172,-675.25 979,-675.25 979,-675.25 973,-675.25 967,-669.25 967,-663.25 967,-663.25 967,-644.75 967,-644.75 967,-638.75 973,-632.75 979,-632.75 979,-632.75 1172,-632.75 1172,-632.75 1178,-632.75 1184,-638.75 1184,-644.75 1184,-644.75 1184,-663.25 1184,-663.25 1184,-669.25 1178,-675.25 1172,-675.25"/>
<text xml:space="preserve" text-anchor="middle" x="1075.5" y="-657.95" font-family="Helvetica,sans-Serif" font-size="14.00">Merge Runs: (1&#45;3)/(4&#45;6)/(7&#45;9)</text>
<text xml:space="preserve" text-anchor="middle" x="1075.5" y="-640.7" font-family="Helvetica,sans-Serif" font-size="14.00"> All inc.</text>
</g>
<!-- label_focusModeGroupsPearl&#45;&gt;alg_MergeRuns_groups -->
<g id="edge11" class="edge">
<title>label_focusModeGroupsPearl&#45;&gt;alg_MergeRuns_groups</title>
<path fill="none" stroke="black" d="M1126.86,-724.25C1118.53,-713.03 1107.41,-698.02 1097.64,-684.85"/>
<polygon fill="black" stroke="black" points="1100.5,-682.83 1091.73,-676.88 1094.87,-687 1100.5,-682.83"/>
</g>
<!-- alg_SaveGss_groups -->
<g id="node22" class="node">
<title>alg_SaveGss_groups</title>
<path fill="lightskyblue" stroke="black" d="M1536.5,-675.25C1536.5,-675.25 1220.5,-675.25 1220.5,-675.25 1214.5,-675.25 1208.5,-669.25 1208.5,-663.25 1208.5,-663.25 1208.5,-644.75 1208.5,-644.75 1208.5,-638.75 1214.5,-632.75 1220.5,-632.75 1220.5,-632.75 1536.5,-632.75 1536.5,-632.75 1542.5,-632.75 1548.5,-638.75 1548.5,-644.75 1548.5,-644.75 1548.5,-663.25 1548.5,-663.25 1548.5,-669.25 1542.5,-675.25 1536.5,-675.25"/>
<text xml:space="preserve" text-anchor="middle" x="1378.5" y="-657.95" font-family="Helvetica,sans-Serif" font-size="14.00">Save GSS: TOF</text>
<text xml:space="preserve" text-anchor="middle" x="1378.5" y="-640.7" font-family="Helvetica,sans-Serif" font-size="14.00"> Appending banks 10&#45;14 (inc.) to merged runs</text>
</g>
<!-- label_focusModeGroupsPearl&#45;&gt;alg_SaveGss_groups -->
<g id="edge18" class="edge">
<title>label_focusModeGroupsPearl&#45;&gt;alg_SaveGss_groups</title>
<path fill="none" stroke="black" d="M1183.61,-725.37C1219.15,-712.54 1269.72,-694.28 1310.43,-679.58"/>
<polygon fill="black" stroke="black" points="1311.46,-682.93 1319.67,-676.24 1309.08,-676.35 1311.46,-682.93"/>
</g>
<!-- label_focusModeModsPearl -->
<g id="node3" class="node">
<title>label_focusModeModsPearl</title>
<ellipse fill="lightgrey" stroke="black" cx="1711.5" cy="-742.3" rx="101.71" ry="18"/>
<text xml:space="preserve" text-anchor="middle" x="1711.5" y="-737.63" font-family="Helvetica,sans-Serif" font-size="14.00">Focus mode: Mods</text>
</g>
<!-- alg_SaveGss_mods -->
<g id="node25" class="node">
<title>alg_SaveGss_mods</title>
<path fill="lightskyblue" stroke="black" d="M1805.75,-675.25C1805.75,-675.25 1617.25,-675.25 1617.25,-675.25 1611.25,-675.25 1605.25,-669.25 1605.25,-663.25 1605.25,-663.25 1605.25,-644.75 1605.25,-644.75 1605.25,-638.75 1611.25,-632.75 1617.25,-632.75 1617.25,-632.75 1805.75,-632.75 1805.75,-632.75 1811.75,-632.75 1817.75,-638.75 1817.75,-644.75 1817.75,-644.75 1817.75,-663.25 1817.75,-663.25 1817.75,-669.25 1811.75,-675.25 1805.75,-675.25"/>
<text xml:space="preserve" text-anchor="middle" x="1711.5" y="-657.95" font-family="Helvetica,sans-Serif" font-size="14.00">Save GSS: TOF</text>
<text xml:space="preserve" text-anchor="middle" x="1711.5" y="-640.7" font-family="Helvetica,sans-Serif" font-size="14.00"> Appending each workspace</text>
</g>
<!-- label_focusModeModsPearl&#45;&gt;alg_SaveGss_mods -->
<g id="edge20" class="edge">
<title>label_focusModeModsPearl&#45;&gt;alg_SaveGss_mods</title>
<path fill="none" stroke="black" d="M1711.5,-723.84C1711.5,-713.24 1711.5,-699.39 1711.5,-686.89"/>
<polygon fill="black" stroke="black" points="1715,-686.99 1711.5,-676.99 1708,-686.99 1715,-686.99"/>
</g>
<!-- label_focusModeTransPearl -->
<g id="node4" class="node">
<title>label_focusModeTransPearl</title>
<ellipse fill="lightgrey" stroke="black" cx="1944.5" cy="-742.3" rx="102.24" ry="18"/>
<text xml:space="preserve" text-anchor="middle" x="1944.5" y="-737.63" font-family="Helvetica,sans-Serif" font-size="14.00">Focus mode: Trans</text>
</g>
<!-- alg_MergeRuns_trans -->
<g id="node27" class="node">
<title>alg_MergeRuns_trans</title>
<path fill="lightskyblue" stroke="black" d="M2041,-672C2041,-672 1848,-672 1848,-672 1842,-672 1836,-666 1836,-660 1836,-660 1836,-648 1836,-648 1836,-642 1842,-636 1848,-636 1848,-636 2041,-636 2041,-636 2047,-636 2053,-642 2053,-648 2053,-648 2053,-660 2053,-660 2053,-666 2047,-672 2041,-672"/>
<text xml:space="preserve" text-anchor="middle" x="1944.5" y="-649.33" font-family="Helvetica,sans-Serif" font-size="14.00">Merge Runs: Banks 1&#45;9 (inc.)</text>
</g>
<!-- label_focusModeTransPearl&#45;&gt;alg_MergeRuns_trans -->
<g id="edge22" class="edge">
<title>label_focusModeTransPearl&#45;&gt;alg_MergeRuns_trans</title>
<path fill="none" stroke="black" d="M1944.5,-723.84C1944.5,-712.37 1944.5,-697.11 1944.5,-683.86"/>
<polygon fill="black" stroke="black" points="1948,-683.95 1944.5,-673.95 1941,-683.95 1948,-683.95"/>
</g>
<!-- label_attenuateWorkspacePearl -->
<g id="node5" class="node">
<title>label_attenuateWorkspacePearl</title>
<ellipse fill="lightgrey" stroke="black" cx="2179.5" cy="-742.3" rx="114.87" ry="18"/>
<text xml:space="preserve" text-anchor="middle" x="2179.5" y="-737.63" font-family="Helvetica,sans-Serif" font-size="14.00">Attenuate Workspace</text>
</g>
<!-- alg_PearlMCAbsorption -->
<g id="node38" class="node">
<title>alg_PearlMCAbsorption</title>
<path fill="lightskyblue" stroke="black" d="M2500.5,-672C2500.5,-672 2376.5,-672 2376.5,-672 2370.5,-672 2364.5,-666 2364.5,-660 2364.5,-660 2364.5,-648 2364.5,-648 2364.5,-642 2370.5,-636 2376.5,-636 2376.5,-636 2500.5,-636 2500.5,-636 2506.5,-636 2512.5,-642 2512.5,-648 2512.5,-648 2512.5,-660 2512.5,-660 2512.5,-666 2506.5,-672 2500.5,-672"/>
<text xml:space="preserve" text-anchor="middle" x="2438.5" y="-649.33" font-family="Helvetica,sans-Serif" font-size="14.00">PearlMCAbsorption</text>
</g>
<!-- label_attenuateWorkspacePearl&#45;&gt;alg_PearlMCAbsorption -->
<g id="edge33" class="edge">
<title>label_attenuateWorkspacePearl&#45;&gt;alg_PearlMCAbsorption</title>
<path fill="none" stroke="black" d="M2227,-725.47C2268.78,-711.55 2329.9,-691.19 2375.7,-675.93"/>
<polygon fill="black" stroke="black" points="2376.59,-679.32 2384.97,-672.84 2374.37,-672.68 2376.59,-679.32"/>
</g>
<!-- param_attenuatePearl_all -->
<g id="node6" class="node">
<title>param_attenuatePearl_all</title>
<ellipse fill="khaki" stroke="black" cx="712.5" cy="-574.5" rx="121.71" ry="18"/>
<text xml:space="preserve" text-anchor="middle" x="712.5" y="-569.83" font-family="Helvetica,sans-Serif" font-size="14.00">User param: attenuate</text>
</g>
<!-- if_attenuatePearl_all -->
<g id="node40" class="node">
<title>if_attenuatePearl_all</title>
<polygon fill="limegreen" stroke="black" points="594.5,-513 494.55,-495 594.5,-477 694.45,-495 594.5,-513"/>
<text xml:space="preserve" text-anchor="middle" x="594.5" y="-490.32" font-family="Helvetica,sans-Serif" font-size="14.00">If: attenuate</text>
</g>
<!-- param_attenuatePearl_all&#45;&gt;if_attenuatePearl_all -->
<g id="edge4" class="edge">
<title>param_attenuatePearl_all&#45;&gt;if_attenuatePearl_all</title>
<path fill="none" stroke="black" d="M686.6,-556.49C668.35,-544.5 643.84,-528.41 624.69,-515.83"/>
<polygon fill="black" stroke="black" points="626.78,-513.01 616.5,-510.45 622.94,-518.86 626.78,-513.01"/>
</g>
<!-- param_attenuatePearl_trans -->
<g id="node7" class="node">
<title>param_attenuatePearl_trans</title>
<ellipse fill="khaki" stroke="black" cx="2176.5" cy="-574.5" rx="121.71" ry="18"/>
<text xml:space="preserve" text-anchor="middle" x="2176.5" y="-569.83" font-family="Helvetica,sans-Serif" font-size="14.00">User param: attenuate</text>
</g>
<!-- if_attenuatePearl_trans -->
<g id="node41" class="node">
<title>if_attenuatePearl_trans</title>
<polygon fill="limegreen" stroke="black" points="2112.5,-513 2012.55,-495 2112.5,-477 2212.45,-495 2112.5,-513"/>
<text xml:space="preserve" text-anchor="middle" x="2112.5" y="-490.32" font-family="Helvetica,sans-Serif" font-size="14.00">If: attenuate</text>
</g>
<!-- param_attenuatePearl_trans&#45;&gt;if_attenuatePearl_trans -->
<g id="edge25" class="edge">
<title>param_attenuatePearl_trans&#45;&gt;if_attenuatePearl_trans</title>
<path fill="none" stroke="black" d="M2162.3,-556.3C2153.46,-545.6 2141.98,-531.69 2132.26,-519.93"/>
<polygon fill="black" stroke="black" points="2134.96,-517.71 2125.9,-512.22 2129.57,-522.16 2134.96,-517.71"/>
</g>
<!-- param_attenuatePearlFilePath -->
<g id="node8" class="node">
<title>param_attenuatePearlFilePath</title>
<ellipse fill="khaki" stroke="black" cx="2477.5" cy="-742.3" rx="165.11" ry="30.05"/>
<text xml:space="preserve" text-anchor="middle" x="2477.5" y="-746.25" font-family="Helvetica,sans-Serif" font-size="14.00">User param:</text>
<text xml:space="preserve" text-anchor="middle" x="2477.5" y="-729" font-family="Helvetica,sans-Serif" font-size="14.00"> Full file path to attenuation file</text>
</g>
<!-- param_attenuatePearlFilePath&#45;&gt;alg_PearlMCAbsorption -->
<g id="edge34" class="edge">
<title>param_attenuatePearlFilePath&#45;&gt;alg_PearlMCAbsorption</title>
<path fill="none" stroke="black" d="M2464.3,-712.08C2460.01,-702.59 2455.26,-692.1 2451.03,-682.72"/>
<polygon fill="black" stroke="black" points="2454.27,-681.4 2446.97,-673.73 2447.89,-684.29 2454.27,-681.4"/>
</g>
<!-- proc_attenuatePearl_all -->
<g id="node9" class="node">
<title>proc_attenuatePearl_all</title>
<polygon fill="lightseagreen" stroke="black" points="655.38,-417.25 449.62,-417.25 449.62,-381.25 655.38,-381.25 655.38,-417.25"/>
<text xml:space="preserve" text-anchor="middle" x="552.5" y="-394.57" font-family="Helvetica,sans-Serif" font-size="14.00">Pearl: Attenuate workspace</text>
</g>
<!-- alg_SaveGssSummed_all -->
<g id="node14" class="node">
<title>alg_SaveGssSummed_all</title>
<path fill="lightskyblue" stroke="black" d="M698.25,-341C698.25,-341 602.75,-341 602.75,-341 596.75,-341 590.75,-335 590.75,-329 590.75,-329 590.75,-317 590.75,-317 590.75,-311 596.75,-305 602.75,-305 602.75,-305 698.25,-305 698.25,-305 704.25,-305 710.25,-311 710.25,-317 710.25,-317 710.25,-329 710.25,-329 710.25,-335 704.25,-341 698.25,-341"/>
<text xml:space="preserve" text-anchor="middle" x="650.5" y="-318.32" font-family="Helvetica,sans-Serif" font-size="14.00">Save GSS: TOF</text>
</g>
<!-- proc_attenuatePearl_all&#45;&gt;alg_SaveGssSummed_all -->
<g id="edge6" class="edge">
<title>proc_attenuatePearl_all&#45;&gt;alg_SaveGssSummed_all</title>
<path fill="none" stroke="black" d="M575.23,-381.03C588.12,-371.26 604.46,-358.88 618.62,-348.15"/>
<polygon fill="black" stroke="black" points="620.49,-351.13 626.35,-342.3 616.26,-345.55 620.49,-351.13"/>
</g>
<!-- proc_attenuatePearl_trans -->
<g id="node10" class="node">
<title>proc_attenuatePearl_trans</title>
<polygon fill="lightseagreen" stroke="black" points="2115.38,-417.25 1909.62,-417.25 1909.62,-381.25 2115.38,-381.25 2115.38,-417.25"/>
<text xml:space="preserve" text-anchor="middle" x="2012.5" y="-394.57" font-family="Helvetica,sans-Serif" font-size="14.00">Pearl: Attenuate workspace</text>
</g>
<!-- alg_SaveGssSummed_trans -->
<g id="node29" class="node">
<title>alg_SaveGssSummed_trans</title>
<path fill="lightskyblue" stroke="black" d="M2164.25,-341C2164.25,-341 2068.75,-341 2068.75,-341 2062.75,-341 2056.75,-335 2056.75,-329 2056.75,-329 2056.75,-317 2056.75,-317 2056.75,-311 2062.75,-305 2068.75,-305 2068.75,-305 2164.25,-305 2164.25,-305 2170.25,-305 2176.25,-311 2176.25,-317 2176.25,-317 2176.25,-329 2176.25,-329 2176.25,-335 2170.25,-341 2164.25,-341"/>
<text xml:space="preserve" text-anchor="middle" x="2116.5" y="-318.32" font-family="Helvetica,sans-Serif" font-size="14.00">Save GSS: TOF</text>
</g>
<!-- proc_attenuatePearl_trans&#45;&gt;alg_SaveGssSummed_trans -->
<g id="edge28" class="edge">
<title>proc_attenuatePearl_trans&#45;&gt;alg_SaveGssSummed_trans</title>
<path fill="none" stroke="black" d="M2036.88,-380.84C2050.71,-370.97 2068.19,-358.49 2083.26,-347.73"/>
<polygon fill="black" stroke="black" points="2084.93,-350.84 2091.04,-342.18 2080.87,-345.14 2084.93,-350.84"/>
</g>
<!-- alg_Scale_all -->
<g id="node12" class="node">
<title>alg_Scale_all</title>
<path fill="lightskyblue" stroke="black" d="M200.88,-592.5C200.88,-592.5 40.12,-592.5 40.12,-592.5 34.12,-592.5 28.12,-586.5 28.12,-580.5 28.12,-580.5 28.12,-568.5 28.12,-568.5 28.12,-562.5 34.12,-556.5 40.12,-556.5 40.12,-556.5 200.88,-556.5 200.88,-556.5 206.88,-556.5 212.88,-562.5 212.88,-568.5 212.88,-568.5 212.88,-580.5 212.88,-580.5 212.88,-586.5 206.88,-592.5 200.88,-592.5"/>
<text xml:space="preserve" text-anchor="middle" x="120.5" y="-569.83" font-family="Helvetica,sans-Serif" font-size="14.00">Scale: 0.11111111 (1/9)</text>
</g>
<!-- alg_MergeRuns_all&#45;&gt;alg_Scale_all -->
<g id="edge2" class="edge">
<title>alg_MergeRuns_all&#45;&gt;alg_Scale_all</title>
<path fill="none" stroke="black" d="M111.16,-635.8C112.6,-626.53 114.41,-614.86 116.05,-604.25"/>
<polygon fill="black" stroke="black" points="119.5,-604.83 117.57,-594.42 112.58,-603.76 119.5,-604.83"/>
</g>
<!-- alg_Scale_all&#45;&gt;if_attenuatePearl_all -->
<g id="edge3" class="edge">
<title>alg_Scale_all&#45;&gt;if_attenuatePearl_all</title>
<path fill="none" stroke="black" d="M208.11,-556.02C213.32,-555.06 218.47,-554.13 223.5,-553.25 330.35,-534.51 455.1,-515.94 529.3,-505.23"/>
<polygon fill="black" stroke="black" points="529.42,-508.75 538.82,-503.87 528.42,-501.83 529.42,-508.75"/>
</g>
<!-- alg_SaveNexusProcessed_all -->
<g id="node16" class="node">
<title>alg_SaveNexusProcessed_all</title>
<path fill="lightskyblue" stroke="black" d="M560.5,-595.75C560.5,-595.75 244.5,-595.75 244.5,-595.75 238.5,-595.75 232.5,-589.75 232.5,-583.75 232.5,-583.75 232.5,-565.25 232.5,-565.25 232.5,-559.25 238.5,-553.25 244.5,-553.25 244.5,-553.25 560.5,-553.25 560.5,-553.25 566.5,-553.25 572.5,-559.25 572.5,-565.25 572.5,-565.25 572.5,-583.75 572.5,-583.75 572.5,-589.75 566.5,-595.75 560.5,-595.75"/>
<text xml:space="preserve" text-anchor="middle" x="402.5" y="-578.45" font-family="Helvetica,sans-Serif" font-size="14.00">Save Nexus Processed: dSpacing</text>
<text xml:space="preserve" text-anchor="middle" x="402.5" y="-561.2" font-family="Helvetica,sans-Serif" font-size="14.00"> Appending banks 10&#45;12 (inc.) to merged runs</text>
</g>
<!-- alg_SaveGss_all&#45;&gt;alg_SaveNexusProcessed_all -->
<g id="edge10" class="edge">
<title>alg_SaveGss_all&#45;&gt;alg_SaveNexusProcessed_all</title>
<path fill="none" stroke="black" d="M404.71,-632.64C404.41,-624.87 404.06,-615.81 403.73,-607.23"/>
<polygon fill="black" stroke="black" points="407.24,-607.36 403.35,-597.51 400.24,-607.64 407.24,-607.36"/>
</g>
<!-- alg_SaveNexusProcessedSummed_all -->
<g id="node15" class="node">
<title>alg_SaveNexusProcessedSummed_all</title>
<path fill="lightskyblue" stroke="black" d="M761.25,-264.75C761.25,-264.75 539.75,-264.75 539.75,-264.75 533.75,-264.75 527.75,-258.75 527.75,-252.75 527.75,-252.75 527.75,-240.75 527.75,-240.75 527.75,-234.75 533.75,-228.75 539.75,-228.75 539.75,-228.75 761.25,-228.75 761.25,-228.75 767.25,-228.75 773.25,-234.75 773.25,-240.75 773.25,-240.75 773.25,-252.75 773.25,-252.75 773.25,-258.75 767.25,-264.75 761.25,-264.75"/>
<text xml:space="preserve" text-anchor="middle" x="650.5" y="-242.07" font-family="Helvetica,sans-Serif" font-size="14.00">Save Nexus Processed: dSpacing</text>
</g>
<!-- alg_SaveGssSummed_all&#45;&gt;alg_SaveNexusProcessedSummed_all -->
<g id="edge8" class="edge">
<title>alg_SaveGssSummed_all&#45;&gt;alg_SaveNexusProcessedSummed_all</title>
<path fill="none" stroke="black" d="M650.5,-304.78C650.5,-296.41 650.5,-286.11 650.5,-276.59"/>
<polygon fill="black" stroke="black" points="654,-276.65 650.5,-266.65 647,-276.65 654,-276.65"/>
</g>
<!-- alg_Plus_groups -->
<g id="node17" class="node">
<title>alg_Plus_groups</title>
<path fill="lightskyblue" stroke="black" d="M1055,-513C1055,-513 898,-513 898,-513 892,-513 886,-507 886,-501 886,-501 886,-489 886,-489 886,-483 892,-477 898,-477 898,-477 1055,-477 1055,-477 1061,-477 1067,-483 1067,-489 1067,-489 1067,-501 1067,-501 1067,-507 1061,-513 1055,-513"/>
<text xml:space="preserve" text-anchor="middle" x="976.5" y="-490.32" font-family="Helvetica,sans-Serif" font-size="14.00">Plus: Runs (4&#45;6) + (7&#45;9)</text>
</g>
<!-- alg_ScaleHalf_groups -->
<g id="node20" class="node">
<title>alg_ScaleHalf_groups</title>
<path fill="lightskyblue" stroke="black" d="M1040.38,-417.25C1040.38,-417.25 942.62,-417.25 942.62,-417.25 936.62,-417.25 930.62,-411.25 930.62,-405.25 930.62,-405.25 930.62,-393.25 930.62,-393.25 930.62,-387.25 936.62,-381.25 942.62,-381.25 942.62,-381.25 1040.38,-381.25 1040.38,-381.25 1046.38,-381.25 1052.38,-387.25 1052.38,-393.25 1052.38,-393.25 1052.38,-405.25 1052.38,-405.25 1052.38,-411.25 1046.38,-417.25 1040.38,-417.25"/>
<text xml:space="preserve" text-anchor="middle" x="991.5" y="-394.57" font-family="Helvetica,sans-Serif" font-size="14.00">Scale: 0.5 (1/2)</text>
</g>
<!-- alg_Plus_groups&#45;&gt;alg_ScaleHalf_groups -->
<g id="edge14" class="edge">
<title>alg_Plus_groups&#45;&gt;alg_ScaleHalf_groups</title>
<path fill="none" stroke="black" d="M979.25,-476.8C981.39,-463.41 984.42,-444.52 986.92,-428.86"/>
<polygon fill="black" stroke="black" points="990.35,-429.58 988.48,-419.15 983.44,-428.47 990.35,-429.58"/>
</g>
<!-- alg_Scale_groups -->
<g id="node19" class="node">
<title>alg_Scale_groups</title>
<path fill="lightskyblue" stroke="black" d="M1200.25,-592.5C1200.25,-592.5 918.75,-592.5 918.75,-592.5 912.75,-592.5 906.75,-586.5 906.75,-580.5 906.75,-580.5 906.75,-568.5 906.75,-568.5 906.75,-562.5 912.75,-556.5 918.75,-556.5 918.75,-556.5 1200.25,-556.5 1200.25,-556.5 1206.25,-556.5 1212.25,-562.5 1212.25,-568.5 1212.25,-568.5 1212.25,-580.5 1212.25,-580.5 1212.25,-586.5 1206.25,-592.5 1200.25,-592.5"/>
<text xml:space="preserve" text-anchor="middle" x="1059.5" y="-569.83" font-family="Helvetica,sans-Serif" font-size="14.00">Scale: Each workspace by 0.333333 (1/3)</text>
</g>
<!-- alg_MergeRuns_groups&#45;&gt;alg_Scale_groups -->
<g id="edge12" class="edge">
<title>alg_MergeRuns_groups&#45;&gt;alg_Scale_groups</title>
<path fill="none" stroke="black" d="M1071.3,-632.64C1069.48,-623.84 1067.32,-613.39 1065.35,-603.85"/>
<polygon fill="black" stroke="black" points="1068.84,-603.41 1063.39,-594.32 1061.98,-604.82 1068.84,-603.41"/>
</g>
<!-- alg_Scale_groups&#45;&gt;alg_Plus_groups -->
<g id="edge13" class="edge">
<title>alg_Scale_groups&#45;&gt;alg_Plus_groups</title>
<path fill="none" stroke="black" d="M1041.08,-556.3C1029.98,-545.94 1015.65,-532.56 1003.32,-521.04"/>
<polygon fill="black" stroke="black" points="1005.96,-518.72 996.26,-514.45 1001.18,-523.84 1005.96,-518.72"/>
</g>
<!-- alg_SaveGssSummed_groups -->
<g id="node21" class="node">
<title>alg_SaveGssSummed_groups</title>
<path fill="lightskyblue" stroke="black" d="M1131.25,-341C1131.25,-341 1035.75,-341 1035.75,-341 1029.75,-341 1023.75,-335 1023.75,-329 1023.75,-329 1023.75,-317 1023.75,-317 1023.75,-311 1029.75,-305 1035.75,-305 1035.75,-305 1131.25,-305 1131.25,-305 1137.25,-305 1143.25,-311 1143.25,-317 1143.25,-317 1143.25,-329 1143.25,-329 1143.25,-335 1137.25,-341 1131.25,-341"/>
<text xml:space="preserve" text-anchor="middle" x="1083.5" y="-318.32" font-family="Helvetica,sans-Serif" font-size="14.00">Save GSS: TOF</text>
</g>
<!-- alg_Scale_groups&#45;&gt;alg_SaveGssSummed_groups -->
<g id="edge15" class="edge">
<title>alg_Scale_groups&#45;&gt;alg_SaveGssSummed_groups</title>
<path fill="none" stroke="black" d="M1065.46,-556.19C1069.05,-544.95 1073.34,-529.91 1075.5,-516.25 1084.62,-458.64 1085.02,-390.18 1084.35,-352.48"/>
<polygon fill="black" stroke="black" points="1087.86,-352.8 1084.14,-342.88 1080.86,-352.95 1087.86,-352.8"/>
</g>
<!-- alg_ScaleHalf_groups&#45;&gt;alg_SaveGssSummed_groups -->
<g id="edge16" class="edge">
<title>alg_ScaleHalf_groups&#45;&gt;alg_SaveGssSummed_groups</title>
<path fill="none" stroke="black" d="M1012.84,-381.03C1024.83,-371.35 1039.99,-359.11 1053.19,-348.46"/>
<polygon fill="black" stroke="black" points="1055.2,-351.34 1060.78,-342.34 1050.8,-345.89 1055.2,-351.34"/>
</g>
<!-- alg_SaveNexusProcessedSummed_groups -->
<g id="node23" class="node">
<title>alg_SaveNexusProcessedSummed_groups</title>
<path fill="lightskyblue" stroke="black" d="M1194.25,-264.75C1194.25,-264.75 972.75,-264.75 972.75,-264.75 966.75,-264.75 960.75,-258.75 960.75,-252.75 960.75,-252.75 960.75,-240.75 960.75,-240.75 960.75,-234.75 966.75,-228.75 972.75,-228.75 972.75,-228.75 1194.25,-228.75 1194.25,-228.75 1200.25,-228.75 1206.25,-234.75 1206.25,-240.75 1206.25,-240.75 1206.25,-252.75 1206.25,-252.75 1206.25,-258.75 1200.25,-264.75 1194.25,-264.75"/>
<text xml:space="preserve" text-anchor="middle" x="1083.5" y="-242.07" font-family="Helvetica,sans-Serif" font-size="14.00">Save Nexus Processed: dSpacing</text>
</g>
<!-- alg_SaveGssSummed_groups&#45;&gt;alg_SaveNexusProcessedSummed_groups -->
<g id="edge17" class="edge">
<title>alg_SaveGssSummed_groups&#45;&gt;alg_SaveNexusProcessedSummed_groups</title>
<path fill="none" stroke="black" d="M1083.5,-304.78C1083.5,-296.41 1083.5,-286.11 1083.5,-276.59"/>
<polygon fill="black" stroke="black" points="1087,-276.65 1083.5,-266.65 1080,-276.65 1087,-276.65"/>
</g>
<!-- alg_SaveNexusProcessed_groups -->
<g id="node24" class="node">
<title>alg_SaveNexusProcessed_groups</title>
<path fill="lightskyblue" stroke="black" d="M1558.5,-595.75C1558.5,-595.75 1242.5,-595.75 1242.5,-595.75 1236.5,-595.75 1230.5,-589.75 1230.5,-583.75 1230.5,-583.75 1230.5,-565.25 1230.5,-565.25 1230.5,-559.25 1236.5,-553.25 1242.5,-553.25 1242.5,-553.25 1558.5,-553.25 1558.5,-553.25 1564.5,-553.25 1570.5,-559.25 1570.5,-565.25 1570.5,-565.25 1570.5,-583.75 1570.5,-583.75 1570.5,-589.75 1564.5,-595.75 1558.5,-595.75"/>
<text xml:space="preserve" text-anchor="middle" x="1400.5" y="-578.45" font-family="Helvetica,sans-Serif" font-size="14.00">Save Nexus Processed: dSpacing</text>
<text xml:space="preserve" text-anchor="middle" x="1400.5" y="-561.2" font-family="Helvetica,sans-Serif" font-size="14.00"> Appending banks 10&#45;14 (inc.) to merged runs</text>
</g>
<!-- alg_SaveGss_groups&#45;&gt;alg_SaveNexusProcessed_groups -->
<g id="edge19" class="edge">
<title>alg_SaveGss_groups&#45;&gt;alg_SaveNexusProcessed_groups</title>
<path fill="none" stroke="black" d="M1384.28,-632.64C1386.51,-624.78 1389.11,-615.61 1391.57,-606.94"/>
<polygon fill="black" stroke="black" points="1394.9,-608.03 1394.27,-597.45 1388.17,-606.12 1394.9,-608.03"/>
</g>
<!-- alg_SaveNexusProcessed_mods -->
<g id="node26" class="node">
<title>alg_SaveNexusProcessed_mods</title>
<path fill="lightskyblue" stroke="black" d="M1822.25,-595.75C1822.25,-595.75 1600.75,-595.75 1600.75,-595.75 1594.75,-595.75 1588.75,-589.75 1588.75,-583.75 1588.75,-583.75 1588.75,-565.25 1588.75,-565.25 1588.75,-559.25 1594.75,-553.25 1600.75,-553.25 1600.75,-553.25 1822.25,-553.25 1822.25,-553.25 1828.25,-553.25 1834.25,-559.25 1834.25,-565.25 1834.25,-565.25 1834.25,-583.75 1834.25,-583.75 1834.25,-589.75 1828.25,-595.75 1822.25,-595.75"/>
<text xml:space="preserve" text-anchor="middle" x="1711.5" y="-578.45" font-family="Helvetica,sans-Serif" font-size="14.00">Save Nexus Processed: dSpacing</text>
<text xml:space="preserve" text-anchor="middle" x="1711.5" y="-561.2" font-family="Helvetica,sans-Serif" font-size="14.00"> Appending each workspace</text>
</g>
<!-- alg_SaveGss_mods&#45;&gt;alg_SaveNexusProcessed_mods -->
<g id="edge21" class="edge">
<title>alg_SaveGss_mods&#45;&gt;alg_SaveNexusProcessed_mods</title>
<path fill="none" stroke="black" d="M1711.5,-632.64C1711.5,-624.87 1711.5,-615.81 1711.5,-607.23"/>
<polygon fill="black" stroke="black" points="1715,-607.51 1711.5,-597.51 1708,-607.51 1715,-607.51"/>
</g>
<!-- alg_Scale_trans -->
<g id="node28" class="node">
<title>alg_Scale_trans</title>
<path fill="lightskyblue" stroke="black" d="M2024.88,-592.5C2024.88,-592.5 1864.12,-592.5 1864.12,-592.5 1858.12,-592.5 1852.12,-586.5 1852.12,-580.5 1852.12,-580.5 1852.12,-568.5 1852.12,-568.5 1852.12,-562.5 1858.12,-556.5 1864.12,-556.5 1864.12,-556.5 2024.88,-556.5 2024.88,-556.5 2030.88,-556.5 2036.88,-562.5 2036.88,-568.5 2036.88,-568.5 2036.88,-580.5 2036.88,-580.5 2036.88,-586.5 2030.88,-592.5 2024.88,-592.5"/>
<text xml:space="preserve" text-anchor="middle" x="1944.5" y="-569.83" font-family="Helvetica,sans-Serif" font-size="14.00">Scale: 0.11111111 (1/9)</text>
</g>
<!-- alg_MergeRuns_trans&#45;&gt;alg_Scale_trans -->
<g id="edge23" class="edge">
<title>alg_MergeRuns_trans&#45;&gt;alg_Scale_trans</title>
<path fill="none" stroke="black" d="M1944.5,-635.8C1944.5,-626.53 1944.5,-614.86 1944.5,-604.25"/>
<polygon fill="black" stroke="black" points="1948,-604.43 1944.5,-594.43 1941,-604.43 1948,-604.43"/>
</g>
<!-- alg_Scale_trans&#45;&gt;if_attenuatePearl_trans -->
<g id="edge24" class="edge">
<title>alg_Scale_trans&#45;&gt;if_attenuatePearl_trans</title>
<path fill="none" stroke="black" d="M1982.2,-556.11C2009.87,-543.34 2047.29,-526.08 2074.93,-513.33"/>
<polygon fill="black" stroke="black" points="2076.39,-516.51 2084,-509.15 2073.46,-510.16 2076.39,-516.51"/>
</g>
<!-- alg_SaveFocusedXyeTOFSummed_trans -->
<g id="node31" class="node">
<title>alg_SaveFocusedXyeTOFSummed_trans</title>
<path fill="lightskyblue" stroke="black" d="M2194.25,-264.75C2194.25,-264.75 2038.75,-264.75 2038.75,-264.75 2032.75,-264.75 2026.75,-258.75 2026.75,-252.75 2026.75,-252.75 2026.75,-240.75 2026.75,-240.75 2026.75,-234.75 2032.75,-228.75 2038.75,-228.75 2038.75,-228.75 2194.25,-228.75 2194.25,-228.75 2200.25,-228.75 2206.25,-234.75 2206.25,-240.75 2206.25,-240.75 2206.25,-252.75 2206.25,-252.75 2206.25,-258.75 2200.25,-264.75 2194.25,-264.75"/>
<text xml:space="preserve" text-anchor="middle" x="2116.5" y="-242.07" font-family="Helvetica,sans-Serif" font-size="14.00">Save Focused XYE: TOF</text>
</g>
<!-- alg_SaveGssSummed_trans&#45;&gt;alg_SaveFocusedXyeTOFSummed_trans -->
<g id="edge29" class="edge">
<title>alg_SaveGssSummed_trans&#45;&gt;alg_SaveFocusedXyeTOFSummed_trans</title>
<path fill="none" stroke="black" d="M2116.5,-304.78C2116.5,-296.41 2116.5,-286.11 2116.5,-276.59"/>
<polygon fill="black" stroke="black" points="2120,-276.65 2116.5,-266.65 2113,-276.65 2120,-276.65"/>
</g>
<!-- alg_SaveFocusedXyeDSummed_trans -->
<g id="node30" class="node">
<title>alg_SaveFocusedXyeDSummed_trans</title>
<path fill="lightskyblue" stroke="black" d="M2212.62,-188.5C2212.62,-188.5 2020.38,-188.5 2020.38,-188.5 2014.38,-188.5 2008.38,-182.5 2008.38,-176.5 2008.38,-176.5 2008.38,-164.5 2008.38,-164.5 2008.38,-158.5 2014.38,-152.5 2020.38,-152.5 2020.38,-152.5 2212.62,-152.5 2212.62,-152.5 2218.62,-152.5 2224.62,-158.5 2224.62,-164.5 2224.62,-164.5 2224.62,-176.5 2224.62,-176.5 2224.62,-182.5 2218.62,-188.5 2212.62,-188.5"/>
<text xml:space="preserve" text-anchor="middle" x="2116.5" y="-165.82" font-family="Helvetica,sans-Serif" font-size="14.00">Save Focused XYE: dSpacing</text>
</g>
<!-- alg_SaveNexusProcessedSummed_trans -->
<g id="node32" class="node">
<title>alg_SaveNexusProcessedSummed_trans</title>
<path fill="lightskyblue" stroke="black" d="M2227.25,-115.5C2227.25,-115.5 2005.75,-115.5 2005.75,-115.5 1999.75,-115.5 1993.75,-109.5 1993.75,-103.5 1993.75,-103.5 1993.75,-91.5 1993.75,-91.5 1993.75,-85.5 1999.75,-79.5 2005.75,-79.5 2005.75,-79.5 2227.25,-79.5 2227.25,-79.5 2233.25,-79.5 2239.25,-85.5 2239.25,-91.5 2239.25,-91.5 2239.25,-103.5 2239.25,-103.5 2239.25,-109.5 2233.25,-115.5 2227.25,-115.5"/>
<text xml:space="preserve" text-anchor="middle" x="2116.5" y="-92.83" font-family="Helvetica,sans-Serif" font-size="14.00">Save Nexus Processed: dSpacing</text>
</g>
<!-- alg_SaveFocusedXyeDSummed_trans&#45;&gt;alg_SaveNexusProcessedSummed_trans -->
<g id="edge31" class="edge">
<title>alg_SaveFocusedXyeDSummed_trans&#45;&gt;alg_SaveNexusProcessedSummed_trans</title>
<path fill="none" stroke="black" d="M2116.5,-152.31C2116.5,-144.73 2116.5,-135.6 2116.5,-127.04"/>
<polygon fill="black" stroke="black" points="2120,-127.04 2116.5,-117.04 2113,-127.04 2120,-127.04"/>
</g>
<!-- alg_SaveFocusedXyeTOFSummed_trans&#45;&gt;alg_SaveFocusedXyeDSummed_trans -->
<g id="edge30" class="edge">
<title>alg_SaveFocusedXyeTOFSummed_trans&#45;&gt;alg_SaveFocusedXyeDSummed_trans</title>
<path fill="none" stroke="black" d="M2116.5,-228.53C2116.5,-220.16 2116.5,-209.86 2116.5,-200.34"/>
<polygon fill="black" stroke="black" points="2120,-200.4 2116.5,-190.4 2113,-200.4 2120,-200.4"/>
</g>
<!-- alg_SaveNexusProcessed_trans -->
<g id="node33" class="node">
<title>alg_SaveNexusProcessed_trans</title>
<path fill="lightskyblue" stroke="black" d="M2270,-42.5C2270,-42.5 1963,-42.5 1963,-42.5 1957,-42.5 1951,-36.5 1951,-30.5 1951,-30.5 1951,-12 1951,-12 1951,-6 1957,0 1963,0 1963,0 2270,0 2270,0 2276,0 2282,-6 2282,-12 2282,-12 2282,-30.5 2282,-30.5 2282,-36.5 2276,-42.5 2270,-42.5"/>
<text xml:space="preserve" text-anchor="middle" x="2116.5" y="-25.2" font-family="Helvetica,sans-Serif" font-size="14.00">Save Nexus Processed: dSpacing</text>
<text xml:space="preserve" text-anchor="middle" x="2116.5" y="-7.95" font-family="Helvetica,sans-Serif" font-size="14.00"> Appending banks 1&#45;10 (inc.) to merged runs</text>
</g>
<!-- alg_SaveNexusProcessedSummed_trans&#45;&gt;alg_SaveNexusProcessed_trans -->
<g id="edge32" class="edge">
<title>alg_SaveNexusProcessedSummed_trans&#45;&gt;alg_SaveNexusProcessed_trans</title>
<path fill="none" stroke="black" d="M2116.5,-79.28C2116.5,-71.8 2116.5,-62.79 2116.5,-54.16"/>
<polygon fill="black" stroke="black" points="2120,-54.32 2116.5,-44.32 2113,-54.32 2120,-54.32"/>
</g>
<!-- alg_ConvertToHistogram -->
<g id="node34" class="node">
<title>alg_ConvertToHistogram</title>
<path fill="lightskyblue" stroke="black" d="M2509.5,-592.5C2509.5,-592.5 2367.5,-592.5 2367.5,-592.5 2361.5,-592.5 2355.5,-586.5 2355.5,-580.5 2355.5,-580.5 2355.5,-568.5 2355.5,-568.5 2355.5,-562.5 2361.5,-556.5 2367.5,-556.5 2367.5,-556.5 2509.5,-556.5 2509.5,-556.5 2515.5,-556.5 2521.5,-562.5 2521.5,-568.5 2521.5,-568.5 2521.5,-580.5 2521.5,-580.5 2521.5,-586.5 2515.5,-592.5 2509.5,-592.5"/>
<text xml:space="preserve" text-anchor="middle" x="2438.5" y="-569.83" font-family="Helvetica,sans-Serif" font-size="14.00">Convert To Histogram</text>
</g>
<!-- alg_ConvertUnits -->
<g id="node35" class="node">
<title>alg_ConvertUnits</title>
<path fill="lightskyblue" stroke="black" d="M2578.12,-516.25C2578.12,-516.25 2298.88,-516.25 2298.88,-516.25 2292.88,-516.25 2286.88,-510.25 2286.88,-504.25 2286.88,-504.25 2286.88,-485.75 2286.88,-485.75 2286.88,-479.75 2292.88,-473.75 2298.88,-473.75 2298.88,-473.75 2578.12,-473.75 2578.12,-473.75 2584.12,-473.75 2590.12,-479.75 2590.12,-485.75 2590.12,-485.75 2590.12,-504.25 2590.12,-504.25 2590.12,-510.25 2584.12,-516.25 2578.12,-516.25"/>
<text xml:space="preserve" text-anchor="middle" x="2438.5" y="-498.95" font-family="Helvetica,sans-Serif" font-size="14.00">Convert Units:</text>
<text xml:space="preserve" text-anchor="middle" x="2438.5" y="-481.7" font-family="Helvetica,sans-Serif" font-size="14.00"> Match the loaded attenuation workspace</text>
</g>
<!-- alg_ConvertToHistogram&#45;&gt;alg_ConvertUnits -->
<g id="edge36" class="edge">
<title>alg_ConvertToHistogram&#45;&gt;alg_ConvertUnits</title>
<path fill="none" stroke="black" d="M2438.5,-556.3C2438.5,-547.99 2438.5,-537.75 2438.5,-528.08"/>
<polygon fill="black" stroke="black" points="2442,-528.25 2438.5,-518.25 2435,-528.25 2442,-528.25"/>
</g>
<!-- alg_RebinWorkspace -->
<g id="node39" class="node">
<title>alg_RebinWorkspace</title>
<path fill="lightskyblue" stroke="black" d="M2621.62,-420.5C2621.62,-420.5 2255.38,-420.5 2255.38,-420.5 2249.38,-420.5 2243.38,-414.5 2243.38,-408.5 2243.38,-408.5 2243.38,-390 2243.38,-390 2243.38,-384 2249.38,-378 2255.38,-378 2255.38,-378 2621.62,-378 2621.62,-378 2627.62,-378 2633.62,-384 2633.62,-390 2633.62,-390 2633.62,-408.5 2633.62,-408.5 2633.62,-414.5 2627.62,-420.5 2621.62,-420.5"/>
<text xml:space="preserve" text-anchor="middle" x="2438.5" y="-403.2" font-family="Helvetica,sans-Serif" font-size="14.00">Rebin:</text>
<text xml:space="preserve" text-anchor="middle" x="2438.5" y="-385.95" font-family="Helvetica,sans-Serif" font-size="14.00"> Attenuated workspace to match workspace to correct</text>
</g>
<!-- alg_ConvertUnits&#45;&gt;alg_RebinWorkspace -->
<g id="edge37" class="edge">
<title>alg_ConvertUnits&#45;&gt;alg_RebinWorkspace</title>
<path fill="none" stroke="black" d="M2438.5,-473.66C2438.5,-461.58 2438.5,-445.99 2438.5,-432.3"/>
<polygon fill="black" stroke="black" points="2442,-432.39 2438.5,-422.39 2435,-432.39 2442,-432.39"/>
</g>
<!-- alg_ConvertUnitsOriginal -->
<g id="node36" class="node">
<title>alg_ConvertUnitsOriginal</title>
<path fill="lightskyblue" stroke="black" d="M2530.5,-268C2530.5,-268 2346.5,-268 2346.5,-268 2340.5,-268 2334.5,-262 2334.5,-256 2334.5,-256 2334.5,-237.5 2334.5,-237.5 2334.5,-231.5 2340.5,-225.5 2346.5,-225.5 2346.5,-225.5 2530.5,-225.5 2530.5,-225.5 2536.5,-225.5 2542.5,-231.5 2542.5,-237.5 2542.5,-237.5 2542.5,-256 2542.5,-256 2542.5,-262 2536.5,-268 2530.5,-268"/>
<text xml:space="preserve" text-anchor="middle" x="2438.5" y="-250.7" font-family="Helvetica,sans-Serif" font-size="14.00">Convert Units:</text>
<text xml:space="preserve" text-anchor="middle" x="2438.5" y="-233.45" font-family="Helvetica,sans-Serif" font-size="14.00"> Back to original input units</text>
</g>
<!-- alg_Divide -->
<g id="node37" class="node">
<title>alg_Divide</title>
<path fill="lightskyblue" stroke="black" d="M2574.75,-341C2574.75,-341 2302.25,-341 2302.25,-341 2296.25,-341 2290.25,-335 2290.25,-329 2290.25,-329 2290.25,-317 2290.25,-317 2290.25,-311 2296.25,-305 2302.25,-305 2302.25,-305 2574.75,-305 2574.75,-305 2580.75,-305 2586.75,-311 2586.75,-317 2586.75,-317 2586.75,-329 2586.75,-329 2586.75,-335 2580.75,-341 2574.75,-341"/>
<text xml:space="preserve" text-anchor="middle" x="2438.5" y="-318.32" font-family="Helvetica,sans-Serif" font-size="14.00">Divide: Data Ws / Attenuated Workspace</text>
</g>
<!-- alg_Divide&#45;&gt;alg_ConvertUnitsOriginal -->
<g id="edge39" class="edge">
<title>alg_Divide&#45;&gt;alg_ConvertUnitsOriginal</title>
<path fill="none" stroke="black" d="M2438.5,-304.78C2438.5,-297.3 2438.5,-288.29 2438.5,-279.66"/>
<polygon fill="black" stroke="black" points="2442,-279.82 2438.5,-269.82 2435,-279.82 2442,-279.82"/>
</g>
<!-- alg_PearlMCAbsorption&#45;&gt;alg_ConvertToHistogram -->
<g id="edge35" class="edge">
<title>alg_PearlMCAbsorption&#45;&gt;alg_ConvertToHistogram</title>
<path fill="none" stroke="black" d="M2438.5,-635.8C2438.5,-626.53 2438.5,-614.86 2438.5,-604.25"/>
<polygon fill="black" stroke="black" points="2442,-604.43 2438.5,-594.43 2435,-604.43 2442,-604.43"/>
</g>
<!-- alg_RebinWorkspace&#45;&gt;alg_Divide -->
<g id="edge38" class="edge">
<title>alg_RebinWorkspace&#45;&gt;alg_Divide</title>
<path fill="none" stroke="black" d="M2438.5,-377.57C2438.5,-369.75 2438.5,-360.72 2438.5,-352.32"/>
<polygon fill="black" stroke="black" points="2442,-352.58 2438.5,-342.58 2435,-352.58 2442,-352.58"/>
</g>
<!-- if_attenuatePearl_all&#45;&gt;proc_attenuatePearl_all -->
<g id="edge5" class="edge">
<title>if_attenuatePearl_all&#45;&gt;proc_attenuatePearl_all</title>
<path fill="none" stroke="black" d="M587.38,-478.1C581.19,-464.3 572.11,-444.02 564.76,-427.62"/>
<polygon fill="black" stroke="black" points="568.13,-426.58 560.85,-418.89 561.74,-429.44 568.13,-426.58"/>
<text xml:space="preserve" text-anchor="middle" x="592.26" y="-442.45" font-family="Helvetica,sans-Serif" font-size="14.00">True</text>
</g>
<!-- if_attenuatePearl_all&#45;&gt;alg_SaveGssSummed_all -->
<g id="edge7" class="edge">
<title>if_attenuatePearl_all&#45;&gt;alg_SaveGssSummed_all</title>
<path fill="none" stroke="black" d="M614.18,-480.29C631.14,-467.18 654.42,-445.7 664.5,-420.5 673.28,-398.56 668.32,-371.85 661.99,-352.1"/>
<polygon fill="black" stroke="black" points="665.34,-351.06 658.71,-342.79 658.74,-353.38 665.34,-351.06"/>
<text xml:space="preserve" text-anchor="middle" x="686.49" y="-394.57" font-family="Helvetica,sans-Serif" font-size="14.00">False</text>
</g>
<!-- if_attenuatePearl_trans&#45;&gt;proc_attenuatePearl_trans -->
<g id="edge26" class="edge">
<title>if_attenuatePearl_trans&#45;&gt;proc_attenuatePearl_trans</title>
<path fill="none" stroke="black" d="M2096.88,-479.35C2081.44,-464.88 2057.54,-442.47 2039.11,-425.19"/>
<polygon fill="black" stroke="black" points="2041.87,-422.99 2032.18,-418.7 2037.08,-428.09 2041.87,-422.99"/>
<text xml:space="preserve" text-anchor="middle" x="2086.46" y="-442.45" font-family="Helvetica,sans-Serif" font-size="14.00">True</text>
</g>
<!-- if_attenuatePearl_trans&#45;&gt;alg_SaveGssSummed_trans -->
<g id="edge27" class="edge">
<title>if_attenuatePearl_trans&#45;&gt;alg_SaveGssSummed_trans</title>
<path fill="none" stroke="black" d="M2116.05,-477.16C2118.98,-462.33 2122.91,-440.09 2124.5,-420.5 2126.03,-401.67 2125.89,-396.84 2124.5,-378 2123.89,-369.74 2122.77,-360.84 2121.55,-352.68"/>
<polygon fill="black" stroke="black" points="2125.03,-352.25 2119.99,-342.93 2118.11,-353.36 2125.03,-352.25"/>
<text xml:space="preserve" text-anchor="middle" x="2142.84" y="-394.57" font-family="Helvetica,sans-Serif" font-size="14.00">False</text>
</g>
</g>
</svg>
