<?xml version="1.0" encoding="UTF-8" standalone="no"?>
<!DOCTYPE svg PUBLIC "-//W3C//DTD SVG 1.1//EN"
 "http://www.w3.org/Graphics/SVG/1.1/DTD/svg11.dtd">
<!-- Generated by graphviz version 11.0.0 (20240519.1550)
 -->
<!-- Title: isisPowderCreateVanadium Pages: 1 -->
<svg width="2000pt" height="1239pt"
 viewBox="0.00 0.00 2000.17 1239.00" xmlns="http://www.w3.org/2000/svg" xmlns:xlink="http://www.w3.org/1999/xlink">
<g id="graph0" class="graph" transform="scale(1 1) rotate(0) translate(4 1235)">
<title>isisPowderCreateVanadium</title>
<polygon fill="white" stroke="none" points="-4,4 -4,-1235 1996.17,-1235 1996.17,4 -4,4"/>
<text text-anchor="middle" x="996.08" y="-1213.7" font-family="Helvetica,sans-Serif" font-size="14.00">ISISPowder &#45; &#39;create_vanadium&#39;</text>
<!-- label_start -->
<g id="node1" class="node">
<title>label_start</title>
<ellipse fill="lightgrey" stroke="black" cx="267.81" cy="-1187.75" rx="184.31" ry="18"/>
<text text-anchor="middle" x="267.81" y="-1183.08" font-family="Helvetica,sans-Serif" font-size="14.00">Start ISISPowder &#39;create_vanadium&#39;</text>
</g>
<!-- param_calMapping_1 -->
<g id="node4" class="node">
<title>param_calMapping_1</title>
<ellipse fill="khaki" stroke="black" cx="267.81" cy="-1115.75" rx="128.02" ry="18"/>
<text text-anchor="middle" x="267.81" y="-1111.08" font-family="Helvetica,sans-Serif" font-size="14.00">Calibration mapping file</text>
</g>
<!-- label_start&#45;&gt;param_calMapping_1 -->
<g id="edge1" class="edge">
<title>label_start&#45;&gt;param_calMapping_1</title>
<path fill="none" stroke="black" d="M267.81,-1169.45C267.81,-1162.16 267.81,-1153.48 267.81,-1145.29"/>
<polygon fill="black" stroke="black" points="271.31,-1145.37 267.81,-1135.37 264.31,-1145.37 271.31,-1145.37"/>
</g>
<!-- param_apply_absorb -->
<g id="node2" class="node">
<title>param_apply_absorb</title>
<ellipse fill="khaki" stroke="black" cx="989.81" cy="-629.5" rx="183.26" ry="18"/>
<text text-anchor="middle" x="989.81" y="-624.83" font-family="Helvetica,sans-Serif" font-size="14.00">User param: absorption corrections</text>
</g>
<!-- if_apply_absorb -->
<g id="node26" class="node">
<title>if_apply_absorb</title>
<polygon fill="limegreen" stroke="black" points="857.81,-575.5 696.85,-557.5 857.81,-539.5 1018.77,-557.5 857.81,-575.5"/>
<text text-anchor="middle" x="857.81" y="-552.83" font-family="Helvetica,sans-Serif" font-size="14.00">If: absorb corrections</text>
</g>
<!-- param_apply_absorb&#45;&gt;if_apply_absorb -->
<g id="edge15" class="edge">
<title>param_apply_absorb&#45;&gt;if_apply_absorb</title>
<path fill="none" stroke="black" d="M957.52,-611.38C938.62,-601.36 914.7,-588.67 895.02,-578.23"/>
<polygon fill="black" stroke="black" points="896.68,-575.15 886.21,-573.56 893.4,-581.34 896.68,-575.15"/>
</g>
<!-- param_calFileName -->
<g id="node3" class="node">
<title>param_calFileName</title>
<ellipse fill="khaki" stroke="black" cx="857.81" cy="-701.5" rx="112.24" ry="18"/>
<text text-anchor="middle" x="857.81" y="-696.83" font-family="Helvetica,sans-Serif" font-size="14.00">Calibration file name</text>
</g>
<!-- alg_Align -->
<g id="node17" class="node">
<title>alg_Align</title>
<path fill="lightskyblue" stroke="black" d="M776.06,-647.5C776.06,-647.5 677.56,-647.5 677.56,-647.5 671.56,-647.5 665.56,-641.5 665.56,-635.5 665.56,-635.5 665.56,-623.5 665.56,-623.5 665.56,-617.5 671.56,-611.5 677.56,-611.5 677.56,-611.5 776.06,-611.5 776.06,-611.5 782.06,-611.5 788.06,-617.5 788.06,-623.5 788.06,-623.5 788.06,-635.5 788.06,-635.5 788.06,-641.5 782.06,-647.5 776.06,-647.5"/>
<text text-anchor="middle" x="726.81" y="-624.83" font-family="Helvetica,sans-Serif" font-size="14.00">Align Detectors</text>
</g>
<!-- param_calFileName&#45;&gt;alg_Align -->
<g id="edge12" class="edge">
<title>param_calFileName&#45;&gt;alg_Align</title>
<path fill="none" stroke="black" d="M826.43,-683.73C809.31,-674.59 787.88,-663.14 769.29,-653.2"/>
<polygon fill="black" stroke="black" points="771.1,-650.2 760.63,-648.57 767.8,-656.37 771.1,-650.2"/>
</g>
<!-- param_emptyRunNumber -->
<g id="node6" class="node">
<title>param_emptyRunNumber</title>
<ellipse fill="khaki" stroke="black" cx="402.81" cy="-1043.75" rx="116.97" ry="18"/>
<text text-anchor="middle" x="402.81" y="-1039.08" font-family="Helvetica,sans-Serif" font-size="14.00">Empty run number(s)</text>
</g>
<!-- param_calMapping_1&#45;&gt;param_emptyRunNumber -->
<g id="edge4" class="edge">
<title>param_calMapping_1&#45;&gt;param_emptyRunNumber</title>
<path fill="none" stroke="black" d="M300.14,-1097.98C318.26,-1088.59 341.07,-1076.76 360.58,-1066.65"/>
<polygon fill="black" stroke="black" points="362.13,-1069.79 369.39,-1062.08 358.9,-1063.57 362.13,-1069.79"/>
</g>
<!-- param_vanadiumRunNumber -->
<g id="node7" class="node">
<title>param_vanadiumRunNumber</title>
<ellipse fill="khaki" stroke="black" cx="133.81" cy="-1043.75" rx="133.81" ry="18"/>
<text text-anchor="middle" x="133.81" y="-1039.08" font-family="Helvetica,sans-Serif" font-size="14.00">Vanadium run number(s)</text>
</g>
<!-- param_calMapping_1&#45;&gt;param_vanadiumRunNumber -->
<g id="edge2" class="edge">
<title>param_calMapping_1&#45;&gt;param_vanadiumRunNumber</title>
<path fill="none" stroke="black" d="M235.71,-1097.98C217.86,-1088.66 195.42,-1076.94 176.15,-1066.87"/>
<polygon fill="black" stroke="black" points="177.93,-1063.85 167.45,-1062.32 174.69,-1070.06 177.93,-1063.85"/>
</g>
<!-- param_calMapping_2 -->
<g id="node5" class="node">
<title>param_calMapping_2</title>
<ellipse fill="khaki" stroke="black" cx="896.81" cy="-773.5" rx="128.02" ry="18"/>
<text text-anchor="middle" x="896.81" y="-768.83" font-family="Helvetica,sans-Serif" font-size="14.00">Calibration mapping file</text>
</g>
<!-- param_calMapping_2&#45;&gt;param_calFileName -->
<g id="edge11" class="edge">
<title>param_calMapping_2&#45;&gt;param_calFileName</title>
<path fill="none" stroke="black" d="M887.17,-755.2C882.87,-747.48 877.7,-738.21 872.91,-729.61"/>
<polygon fill="black" stroke="black" points="876,-727.96 868.07,-720.93 869.88,-731.37 876,-727.96"/>
</g>
<!-- proc_LoadCurrentNormWS_2 -->
<g id="node13" class="node">
<title>proc_LoadCurrentNormWS_2</title>
<polygon fill="lightseagreen" stroke="black" points="492.18,-972.5 211.43,-972.5 211.43,-936.5 492.18,-936.5 492.18,-972.5"/>
<text text-anchor="middle" x="351.81" y="-949.83" font-family="Helvetica,sans-Serif" font-size="14.00">Load current normalised workspace(s)</text>
</g>
<!-- param_emptyRunNumber&#45;&gt;proc_LoadCurrentNormWS_2 -->
<g id="edge5" class="edge">
<title>param_emptyRunNumber&#45;&gt;proc_LoadCurrentNormWS_2</title>
<path fill="none" stroke="black" d="M392.73,-1025.51C385.54,-1013.2 375.72,-996.41 367.5,-982.35"/>
<polygon fill="black" stroke="black" points="370.69,-980.88 362.63,-974.01 364.65,-984.41 370.69,-980.88"/>
<text text-anchor="middle" x="456.06" y="-994.45" font-family="Helvetica,sans-Serif" font-size="14.00">InputMode=Summed</text>
</g>
<!-- proc_LoadCurrentNormWS_1 -->
<g id="node12" class="node">
<title>proc_LoadCurrentNormWS_1</title>
<polygon fill="lightseagreen" stroke="black" points="324.18,-918.5 43.43,-918.5 43.43,-882.5 324.18,-882.5 324.18,-918.5"/>
<text text-anchor="middle" x="183.81" y="-895.83" font-family="Helvetica,sans-Serif" font-size="14.00">Load current normalised workspace(s)</text>
</g>
<!-- param_vanadiumRunNumber&#45;&gt;proc_LoadCurrentNormWS_1 -->
<g id="edge3" class="edge">
<title>param_vanadiumRunNumber&#45;&gt;proc_LoadCurrentNormWS_1</title>
<path fill="none" stroke="black" d="M139.94,-1025.43C148.41,-1001.5 163.79,-958.04 173.91,-929.47"/>
<polygon fill="black" stroke="black" points="177.08,-930.98 177.12,-920.39 170.48,-928.65 177.08,-930.98"/>
<text text-anchor="middle" x="225.06" y="-994.45" font-family="Helvetica,sans-Serif" font-size="14.00">InputMode=Summed</text>
</g>
<!-- param_groupingCalFile -->
<g id="node8" class="node">
<title>param_groupingCalFile</title>
<ellipse fill="khaki" stroke="black" cx="1184.81" cy="-468.25" rx="179.05" ry="18"/>
<text text-anchor="middle" x="1184.81" y="-463.57" font-family="Helvetica,sans-Serif" font-size="14.00">Adv config: Grouping cal file name</text>
</g>
<!-- alg_DiffractionFocusing -->
<g id="node20" class="node">
<title>alg_DiffractionFocusing</title>
<path fill="lightskyblue" stroke="black" d="M1017.81,-413.25C1017.81,-413.25 887.81,-413.25 887.81,-413.25 881.81,-413.25 875.81,-407.25 875.81,-401.25 875.81,-401.25 875.81,-389.25 875.81,-389.25 875.81,-383.25 881.81,-377.25 887.81,-377.25 887.81,-377.25 1017.81,-377.25 1017.81,-377.25 1023.81,-377.25 1029.81,-383.25 1029.81,-389.25 1029.81,-389.25 1029.81,-401.25 1029.81,-401.25 1029.81,-407.25 1023.81,-413.25 1017.81,-413.25"/>
<text text-anchor="middle" x="952.81" y="-390.57" font-family="Helvetica,sans-Serif" font-size="14.00">Diffraction Focusing</text>
</g>
<!-- param_groupingCalFile&#45;&gt;alg_DiffractionFocusing -->
<g id="edge17" class="edge">
<title>param_groupingCalFile&#45;&gt;alg_DiffractionFocusing</title>
<path fill="none" stroke="black" d="M1130.71,-450.69C1097.82,-440.63 1055.55,-427.69 1020.47,-416.96"/>
<polygon fill="black" stroke="black" points="1021.86,-413.72 1011.28,-414.14 1019.81,-420.42 1021.86,-413.72"/>
</g>
<!-- param_rawTOFCropValues -->
<g id="node9" class="node">
<title>param_rawTOFCropValues</title>
<ellipse fill="khaki" stroke="black" cx="557.81" cy="-773.5" rx="192.73" ry="18"/>
<text text-anchor="middle" x="557.81" y="-768.83" font-family="Helvetica,sans-Serif" font-size="14.00">Adv config: Raw TOF cropping values</text>
</g>
<!-- alg_CropRawTOF -->
<g id="node18" class="node">
<title>alg_CropRawTOF</title>
<path fill="lightskyblue" stroke="black" d="M646.81,-719.5C646.81,-719.5 468.81,-719.5 468.81,-719.5 462.81,-719.5 456.81,-713.5 456.81,-707.5 456.81,-707.5 456.81,-695.5 456.81,-695.5 456.81,-689.5 462.81,-683.5 468.81,-683.5 468.81,-683.5 646.81,-683.5 646.81,-683.5 652.81,-683.5 658.81,-689.5 658.81,-695.5 658.81,-695.5 658.81,-707.5 658.81,-707.5 658.81,-713.5 652.81,-719.5 646.81,-719.5"/>
<text text-anchor="middle" x="557.81" y="-696.83" font-family="Helvetica,sans-Serif" font-size="14.00">Crop data to expected TOF</text>
</g>
<!-- param_rawTOFCropValues&#45;&gt;alg_CropRawTOF -->
<g id="edge9" class="edge">
<title>param_rawTOFCropValues&#45;&gt;alg_CropRawTOF</title>
<path fill="none" stroke="black" d="M557.81,-755.2C557.81,-747.91 557.81,-739.23 557.81,-731.04"/>
<polygon fill="black" stroke="black" points="561.31,-731.12 557.81,-721.12 554.31,-731.12 561.31,-731.12"/>
</g>
<!-- param_vanadiumTOFCropValues -->
<g id="node10" class="node">
<title>param_vanadiumTOFCropValues</title>
<ellipse fill="khaki" stroke="black" cx="1592.81" cy="-306" rx="220.62" ry="18"/>
<text text-anchor="middle" x="1592.81" y="-301.32" font-family="Helvetica,sans-Serif" font-size="14.00">Adv config: Vanadium TOF cropping values</text>
</g>
<!-- alg_CropVanTOF -->
<g id="node19" class="node">
<title>alg_CropVanTOF</title>
<path fill="lightskyblue" stroke="black" d="M1494.81,-252C1494.81,-252 1316.81,-252 1316.81,-252 1310.81,-252 1304.81,-246 1304.81,-240 1304.81,-240 1304.81,-228 1304.81,-228 1304.81,-222 1310.81,-216 1316.81,-216 1316.81,-216 1494.81,-216 1494.81,-216 1500.81,-216 1506.81,-222 1506.81,-228 1506.81,-228 1506.81,-240 1506.81,-240 1506.81,-246 1500.81,-252 1494.81,-252"/>
<text text-anchor="middle" x="1405.81" y="-229.32" font-family="Helvetica,sans-Serif" font-size="14.00">Crop data to expected TOF</text>
</g>
<!-- param_vanadiumTOFCropValues&#45;&gt;alg_CropVanTOF -->
<g id="edge22" class="edge">
<title>param_vanadiumTOFCropValues&#45;&gt;alg_CropVanTOF</title>
<path fill="none" stroke="black" d="M1547.54,-288.05C1522.06,-278.52 1490,-266.52 1462.82,-256.34"/>
<polygon fill="black" stroke="black" points="1464.29,-253.16 1453.7,-252.93 1461.84,-259.71 1464.29,-253.16"/>
</g>
<!-- param_vanadiumSplineCoefficient -->
<g id="node11" class="node">
<title>param_vanadiumSplineCoefficient</title>
<ellipse fill="khaki" stroke="black" cx="1786.81" cy="-162" rx="205.36" ry="18"/>
<text text-anchor="middle" x="1786.81" y="-157.32" font-family="Helvetica,sans-Serif" font-size="14.00">Adv config: Vanadium Spline Coefficient</text>
</g>
<!-- alg_SplineVanadium -->
<g id="node24" class="node">
<title>alg_SplineVanadium</title>
<path fill="lightskyblue" stroke="black" d="M1657.06,-108C1657.06,-108 1534.56,-108 1534.56,-108 1528.56,-108 1522.56,-102 1522.56,-96 1522.56,-96 1522.56,-84 1522.56,-84 1522.56,-78 1528.56,-72 1534.56,-72 1534.56,-72 1657.06,-72 1657.06,-72 1663.06,-72 1669.06,-78 1669.06,-84 1669.06,-84 1669.06,-96 1669.06,-96 1669.06,-102 1663.06,-108 1657.06,-108"/>
<text text-anchor="middle" x="1595.81" y="-85.33" font-family="Helvetica,sans-Serif" font-size="14.00">Spline Background</text>
</g>
<!-- param_vanadiumSplineCoefficient&#45;&gt;alg_SplineVanadium -->
<g id="edge25" class="edge">
<title>param_vanadiumSplineCoefficient&#45;&gt;alg_SplineVanadium</title>
<path fill="none" stroke="black" d="M1740.57,-144.05C1714.55,-134.52 1681.8,-122.52 1654.04,-112.34"/>
<polygon fill="black" stroke="black" points="1655.29,-109.07 1644.7,-108.92 1652.88,-115.65 1655.29,-109.07"/>
</g>
<!-- alg_Subtract_van_empty -->
<g id="node25" class="node">
<title>alg_Subtract_van_empty</title>
<path fill="lightskyblue" stroke="black" d="M334.68,-791.5C334.68,-791.5 146.93,-791.5 146.93,-791.5 140.93,-791.5 134.93,-785.5 134.93,-779.5 134.93,-779.5 134.93,-767.5 134.93,-767.5 134.93,-761.5 140.93,-755.5 146.93,-755.5 146.93,-755.5 334.68,-755.5 334.68,-755.5 340.68,-755.5 346.68,-761.5 346.68,-767.5 346.68,-767.5 346.68,-779.5 346.68,-779.5 346.68,-785.5 340.68,-791.5 334.68,-791.5"/>
<text text-anchor="middle" x="240.81" y="-768.83" font-family="Helvetica,sans-Serif" font-size="14.00">Subtract: vanadium &#45; empty</text>
</g>
<!-- proc_LoadCurrentNormWS_1&#45;&gt;alg_Subtract_van_empty -->
<g id="edge7" class="edge">
<title>proc_LoadCurrentNormWS_1&#45;&gt;alg_Subtract_van_empty</title>
<path fill="none" stroke="black" d="M191.73,-882.12C201.18,-861.41 217.07,-826.55 228.21,-802.13"/>
<polygon fill="black" stroke="black" points="231.36,-803.66 232.32,-793.11 224.99,-800.76 231.36,-803.66"/>
</g>
<!-- alg_SaveNexusProcessedEmpty -->
<g id="node22" class="node">
<title>alg_SaveNexusProcessedEmpty</title>
<path fill="lightskyblue" stroke="black" d="M375.43,-864.5C375.43,-864.5 276.18,-864.5 276.18,-864.5 270.18,-864.5 264.18,-858.5 264.18,-852.5 264.18,-852.5 264.18,-840.5 264.18,-840.5 264.18,-834.5 270.18,-828.5 276.18,-828.5 276.18,-828.5 375.43,-828.5 375.43,-828.5 381.43,-828.5 387.43,-834.5 387.43,-840.5 387.43,-840.5 387.43,-852.5 387.43,-852.5 387.43,-858.5 381.43,-864.5 375.43,-864.5"/>
<text text-anchor="middle" x="325.81" y="-841.83" font-family="Helvetica,sans-Serif" font-size="14.00">Save Nexus file</text>
</g>
<!-- proc_LoadCurrentNormWS_2&#45;&gt;alg_SaveNexusProcessedEmpty -->
<g id="edge6" class="edge">
<title>proc_LoadCurrentNormWS_2&#45;&gt;alg_SaveNexusProcessedEmpty</title>
<path fill="none" stroke="black" d="M347.63,-936.47C343.64,-920.19 337.54,-895.32 332.8,-876.02"/>
<polygon fill="black" stroke="black" points="336.2,-875.19 330.42,-866.31 329.4,-876.86 336.2,-875.19"/>
</g>
<!-- proc_InstApplyAbsorbCorr -->
<g id="node14" class="node">
<title>proc_InstApplyAbsorbCorr</title>
<polygon fill="lightseagreen" stroke="black" points="916.31,-486.25 609.31,-486.25 609.31,-450.25 916.31,-450.25 916.31,-486.25"/>
<text text-anchor="middle" x="762.81" y="-463.57" font-family="Helvetica,sans-Serif" font-size="14.00">Inst specific: Apply absorption corrections</text>
</g>
<!-- proc_InstApplyAbsorbCorr&#45;&gt;alg_DiffractionFocusing -->
<g id="edge19" class="edge">
<title>proc_InstApplyAbsorbCorr&#45;&gt;alg_DiffractionFocusing</title>
<path fill="none" stroke="black" d="M809.29,-449.88C835.28,-440.17 867.9,-427.98 895.46,-417.68"/>
<polygon fill="black" stroke="black" points="896.59,-420.99 904.73,-414.22 894.14,-414.44 896.59,-420.99"/>
</g>
<!-- proc_InstMaskPeaks -->
<g id="node15" class="node">
<title>proc_InstMaskPeaks</title>
<polygon fill="lightseagreen" stroke="black" points="1563.81,-180 1247.81,-180 1247.81,-144 1563.81,-144 1563.81,-180"/>
<text text-anchor="middle" x="1405.81" y="-157.32" font-family="Helvetica,sans-Serif" font-size="14.00">Inst specific: Mask peaks in Vanadium data</text>
</g>
<!-- proc_InstMaskPeaks&#45;&gt;alg_SplineVanadium -->
<g id="edge26" class="edge">
<title>proc_InstMaskPeaks&#45;&gt;alg_SplineVanadium</title>
<path fill="none" stroke="black" d="M1453.26,-143.52C1478.98,-134.04 1510.95,-122.26 1538.1,-112.26"/>
<polygon fill="black" stroke="black" points="1539.03,-115.65 1547.21,-108.9 1536.61,-109.08 1539.03,-115.65"/>
</g>
<!-- proc_InstSaveFocused -->
<g id="node16" class="node">
<title>proc_InstSaveFocused</title>
<polygon fill="lightseagreen" stroke="black" points="1065.68,-324 817.93,-324 817.93,-288 1065.68,-288 1065.68,-324"/>
<text text-anchor="middle" x="941.81" y="-301.32" font-family="Helvetica,sans-Serif" font-size="14.00">Inst specific: Save focused banks</text>
</g>
<!-- alg_Align&#45;&gt;if_apply_absorb -->
<g id="edge14" class="edge">
<title>alg_Align&#45;&gt;if_apply_absorb</title>
<path fill="none" stroke="black" d="M759.53,-611.02C778.16,-601.06 801.55,-588.56 820.84,-578.25"/>
<polygon fill="black" stroke="black" points="822.29,-581.45 829.46,-573.65 818.99,-575.27 822.29,-581.45"/>
</g>
<!-- alg_CropRawTOF&#45;&gt;alg_Align -->
<g id="edge13" class="edge">
<title>alg_CropRawTOF&#45;&gt;alg_Align</title>
<path fill="none" stroke="black" d="M600.02,-683.02C622.59,-673.67 650.58,-662.07 674.51,-652.16"/>
<polygon fill="black" stroke="black" points="675.55,-655.52 683.44,-648.46 672.87,-649.05 675.55,-655.52"/>
</g>
<!-- alg_CropVanTOF&#45;&gt;proc_InstMaskPeaks -->
<g id="edge24" class="edge">
<title>alg_CropVanTOF&#45;&gt;proc_InstMaskPeaks</title>
<path fill="none" stroke="black" d="M1405.81,-215.7C1405.81,-208.41 1405.81,-199.73 1405.81,-191.54"/>
<polygon fill="black" stroke="black" points="1409.31,-191.62 1405.81,-181.62 1402.31,-191.62 1409.31,-191.62"/>
</g>
<!-- alg_DiffractionFocusing&#45;&gt;proc_InstSaveFocused -->
<g id="edge20" class="edge">
<title>alg_DiffractionFocusing&#45;&gt;proc_InstSaveFocused</title>
<path fill="none" stroke="black" d="M950.63,-377.01C949.14,-365.18 947.13,-349.2 945.4,-335.5"/>
<polygon fill="black" stroke="black" points="948.89,-335.19 944.17,-325.7 941.94,-336.06 948.89,-335.19"/>
</g>
<!-- alg_ExtractWsSpectra -->
<g id="node21" class="node">
<title>alg_ExtractWsSpectra</title>
<path fill="lightskyblue" stroke="black" d="M1342.31,-324C1342.31,-324 1095.31,-324 1095.31,-324 1089.31,-324 1083.31,-318 1083.31,-312 1083.31,-312 1083.31,-300 1083.31,-300 1083.31,-294 1089.31,-288 1095.31,-288 1095.31,-288 1342.31,-288 1342.31,-288 1348.31,-288 1354.31,-294 1354.31,-300 1354.31,-300 1354.31,-312 1354.31,-312 1354.31,-318 1348.31,-324 1342.31,-324"/>
<text text-anchor="middle" x="1218.81" y="-301.32" font-family="Helvetica,sans-Serif" font-size="14.00">Extract spectra into individual banks</text>
</g>
<!-- alg_DiffractionFocusing&#45;&gt;alg_ExtractWsSpectra -->
<g id="edge21" class="edge">
<title>alg_DiffractionFocusing&#45;&gt;alg_ExtractWsSpectra</title>
<path fill="none" stroke="black" d="M1006,-376.8C1048.86,-362.75 1109.26,-342.93 1154.77,-328"/>
<polygon fill="black" stroke="black" points="1155.86,-331.33 1164.27,-324.89 1153.68,-324.68 1155.86,-331.33"/>
<text text-anchor="middle" x="1201.43" y="-345.95" font-family="Helvetica,sans-Serif" font-size="14.00">Creating vanadium splines</text>
</g>
<!-- alg_ExtractWsSpectra&#45;&gt;alg_CropVanTOF -->
<g id="edge23" class="edge">
<title>alg_ExtractWsSpectra&#45;&gt;alg_CropVanTOF</title>
<path fill="none" stroke="black" d="M1265.51,-287.52C1290.71,-278.08 1322.01,-266.37 1348.66,-256.39"/>
<polygon fill="black" stroke="black" points="1349.82,-259.7 1357.96,-252.91 1347.36,-253.14 1349.82,-259.7"/>
</g>
<!-- alg_SaveNexusProcessedEmpty&#45;&gt;alg_Subtract_van_empty -->
<g id="edge8" class="edge">
<title>alg_SaveNexusProcessedEmpty&#45;&gt;alg_Subtract_van_empty</title>
<path fill="none" stroke="black" d="M305.23,-828.31C294.66,-819.48 281.6,-808.57 270,-798.89"/>
<polygon fill="black" stroke="black" points="272.57,-796.47 262.65,-792.75 268.08,-801.84 272.57,-796.47"/>
</g>
<!-- alg_SaveNexusProcessed -->
<g id="node23" class="node">
<title>alg_SaveNexusProcessed</title>
<path fill="lightskyblue" stroke="black" d="M1645.43,-36C1645.43,-36 1546.18,-36 1546.18,-36 1540.18,-36 1534.18,-30 1534.18,-24 1534.18,-24 1534.18,-12 1534.18,-12 1534.18,-6 1540.18,0 1546.18,0 1546.18,0 1645.43,0 1645.43,0 1651.43,0 1657.43,-6 1657.43,-12 1657.43,-12 1657.43,-24 1657.43,-24 1657.43,-30 1651.43,-36 1645.43,-36"/>
<text text-anchor="middle" x="1595.81" y="-13.32" font-family="Helvetica,sans-Serif" font-size="14.00">Save Nexus file</text>
</g>
<!-- alg_SplineVanadium&#45;&gt;alg_SaveNexusProcessed -->
<g id="edge27" class="edge">
<title>alg_SplineVanadium&#45;&gt;alg_SaveNexusProcessed</title>
<path fill="none" stroke="black" d="M1595.81,-71.7C1595.81,-64.41 1595.81,-55.73 1595.81,-47.54"/>
<polygon fill="black" stroke="black" points="1599.31,-47.62 1595.81,-37.62 1592.31,-47.62 1599.31,-47.62"/>
</g>
<!-- alg_Subtract_van_empty&#45;&gt;alg_CropRawTOF -->
<g id="edge10" class="edge">
<title>alg_Subtract_van_empty&#45;&gt;alg_CropRawTOF</title>
<path fill="none" stroke="black" d="M319.98,-755.02C364.89,-745.1 421.24,-732.66 467.82,-722.37"/>
<polygon fill="black" stroke="black" points="468.33,-725.84 477.34,-720.27 466.82,-719.01 468.33,-725.84"/>
</g>
<!-- if_apply_absorb&#45;&gt;proc_InstApplyAbsorbCorr -->
<g id="edge16" class="edge">
<title>if_apply_absorb&#45;&gt;proc_InstApplyAbsorbCorr</title>
<path fill="none" stroke="black" d="M840.82,-540.9C826.64,-527.88 806.17,-509.08 789.76,-494"/>
<polygon fill="black" stroke="black" points="792.44,-491.72 782.71,-487.53 787.71,-496.87 792.44,-491.72"/>
<text text-anchor="middle" x="833.81" y="-508.2" font-family="Helvetica,sans-Serif" font-size="14.00">True</text>
</g>
<!-- if_apply_absorb&#45;&gt;alg_DiffractionFocusing -->
<g id="edge18" class="edge">
<title>if_apply_absorb&#45;&gt;alg_DiffractionFocusing</title>
<path fill="none" stroke="black" d="M876.81,-541.38C892.08,-528.29 913.02,-508.07 925.81,-486.25 936.97,-467.2 943.88,-443.14 947.91,-424.69"/>
<polygon fill="black" stroke="black" points="951.33,-425.46 949.86,-414.96 944.46,-424.08 951.33,-425.46"/>
<text text-anchor="middle" x="958.06" y="-463.57" font-family="Helvetica,sans-Serif" font-size="14.00">False</text>
</g>
</g>
</svg>
