<?xml version="1.0" encoding="UTF-8" standalone="no"?>
<!DOCTYPE svg PUBLIC "-//W3C//DTD SVG 1.1//EN"
 "http://www.w3.org/Graphics/SVG/1.1/DTD/svg11.dtd">
<!-- Generated by graphviz version 11.0.0 (20240519.1550)
 -->
<!-- Title: isisPowderCreateVanadium Pages: 1 -->
<svg width="2644pt" height="800pt"
 viewBox="0.00 0.00 2643.61 799.60" xmlns="http://www.w3.org/2000/svg" xmlns:xlink="http://www.w3.org/1999/xlink">
<g id="graph0" class="graph" transform="scale(1 1) rotate(0) translate(4 795.6)">
<title>isisPowderCreateVanadium</title>
<polygon fill="white" stroke="none" points="-4,4 -4,-795.6 2639.61,-795.6 2639.61,4 -4,4"/>
<text text-anchor="middle" x="1317.8" y="-774.3" font-family="Helvetica,sans-Serif" font-size="14.00">ISISPowder &#45; PEARL Focus Mode saving</text>
<!-- label_focusModeAllPearl -->
<g id="node1" class="node">
<title>label_focusModeAllPearl</title>
<ellipse fill="lightgrey" stroke="black" cx="257.5" cy="-736.3" rx="88.04" ry="18"/>
<text text-anchor="middle" x="257.5" y="-731.63" font-family="Helvetica,sans-Serif" font-size="14.00">Focus mode: All</text>
</g>
<!-- alg_MergeRuns_all -->
<g id="node11" class="node">
<title>alg_MergeRuns_all</title>
<path fill="lightskyblue" stroke="black" d="M205,-667C205,-667 12,-667 12,-667 6,-667 0,-661 0,-655 0,-655 0,-643 0,-643 0,-637 6,-631 12,-631 12,-631 205,-631 205,-631 211,-631 217,-637 217,-643 217,-643 217,-655 217,-655 217,-661 211,-667 205,-667"/>
<text text-anchor="middle" x="108.5" y="-644.33" font-family="Helvetica,sans-Serif" font-size="14.00">Merge Runs: Banks 1&#45;9 (inc.)</text>
</g>
<!-- label_focusModeAllPearl&#45;&gt;alg_MergeRuns_all -->
<g id="edge1" class="edge">
<title>label_focusModeAllPearl&#45;&gt;alg_MergeRuns_all</title>
<path fill="none" stroke="black" d="M228.77,-718.85C206,-705.82 173.92,-687.45 148.61,-672.97"/>
<polygon fill="black" stroke="black" points="150.66,-670.11 140.25,-668.17 147.19,-676.18 150.66,-670.11"/>
</g>
<!-- alg_SaveGss_all -->
<g id="node13" class="node">
<title>alg_SaveGss_all</title>
<path fill="lightskyblue" stroke="black" d="M563.5,-670.25C563.5,-670.25 247.5,-670.25 247.5,-670.25 241.5,-670.25 235.5,-664.25 235.5,-658.25 235.5,-658.25 235.5,-639.75 235.5,-639.75 235.5,-633.75 241.5,-627.75 247.5,-627.75 247.5,-627.75 563.5,-627.75 563.5,-627.75 569.5,-627.75 575.5,-633.75 575.5,-639.75 575.5,-639.75 575.5,-658.25 575.5,-658.25 575.5,-664.25 569.5,-670.25 563.5,-670.25"/>
<text text-anchor="middle" x="405.5" y="-652.95" font-family="Helvetica,sans-Serif" font-size="14.00">Save GSS: TOF</text>
<text text-anchor="middle" x="405.5" y="-635.7" font-family="Helvetica,sans-Serif" font-size="14.00"> Appending banks 10&#45;12 (inc.) to merged runs</text>
</g>
<!-- label_focusModeAllPearl&#45;&gt;alg_SaveGss_all -->
<g id="edge9" class="edge">
<title>label_focusModeAllPearl&#45;&gt;alg_SaveGss_all</title>
<path fill="none" stroke="black" d="M286.04,-718.85C307,-706.77 335.92,-690.1 360.05,-676.19"/>
<polygon fill="black" stroke="black" points="361.49,-679.4 368.41,-671.38 358,-673.34 361.49,-679.4"/>
</g>
<!-- label_focusModeGroupsPearl -->
<g id="node2" class="node">
<title>label_focusModeGroupsPearl</title>
<ellipse fill="lightgrey" stroke="black" cx="1205.5" cy="-736.3" rx="110.66" ry="18"/>
<text text-anchor="middle" x="1205.5" y="-731.63" font-family="Helvetica,sans-Serif" font-size="14.00">Focus mode: Groups</text>
</g>
<!-- alg_MergeRuns_groups -->
<g id="node18" class="node">
<title>alg_MergeRuns_groups</title>
<path fill="lightskyblue" stroke="black" d="M1166,-670.25C1166,-670.25 973,-670.25 973,-670.25 967,-670.25 961,-664.25 961,-658.25 961,-658.25 961,-639.75 961,-639.75 961,-633.75 967,-627.75 973,-627.75 973,-627.75 1166,-627.75 1166,-627.75 1172,-627.75 1178,-633.75 1178,-639.75 1178,-639.75 1178,-658.25 1178,-658.25 1178,-664.25 1172,-670.25 1166,-670.25"/>
<text text-anchor="middle" x="1069.5" y="-652.95" font-family="Helvetica,sans-Serif" font-size="14.00">Merge Runs: (1&#45;3)/(4&#45;6)/(7&#45;9)</text>
<text text-anchor="middle" x="1069.5" y="-635.7" font-family="Helvetica,sans-Serif" font-size="14.00"> All inc.</text>
</g>
<!-- label_focusModeGroupsPearl&#45;&gt;alg_MergeRuns_groups -->
<g id="edge11" class="edge">
<title>label_focusModeGroupsPearl&#45;&gt;alg_MergeRuns_groups</title>
<path fill="none" stroke="black" d="M1178.63,-718.45C1159.7,-706.58 1133.96,-690.43 1112.23,-676.8"/>
<polygon fill="black" stroke="black" points="1114.18,-673.89 1103.85,-671.54 1110.46,-679.82 1114.18,-673.89"/>
</g>
<!-- alg_SaveGss_groups -->
<g id="node22" class="node">
<title>alg_SaveGss_groups</title>
<path fill="lightskyblue" stroke="black" d="M1546.5,-670.25C1546.5,-670.25 1230.5,-670.25 1230.5,-670.25 1224.5,-670.25 1218.5,-664.25 1218.5,-658.25 1218.5,-658.25 1218.5,-639.75 1218.5,-639.75 1218.5,-633.75 1224.5,-627.75 1230.5,-627.75 1230.5,-627.75 1546.5,-627.75 1546.5,-627.75 1552.5,-627.75 1558.5,-633.75 1558.5,-639.75 1558.5,-639.75 1558.5,-658.25 1558.5,-658.25 1558.5,-664.25 1552.5,-670.25 1546.5,-670.25"/>
<text text-anchor="middle" x="1388.5" y="-652.95" font-family="Helvetica,sans-Serif" font-size="14.00">Save GSS: TOF</text>
<text text-anchor="middle" x="1388.5" y="-635.7" font-family="Helvetica,sans-Serif" font-size="14.00"> Appending banks 10&#45;14 (inc.) to merged runs</text>
</g>
<!-- label_focusModeGroupsPearl&#45;&gt;alg_SaveGss_groups -->
<g id="edge18" class="edge">
<title>label_focusModeGroupsPearl&#45;&gt;alg_SaveGss_groups</title>
<path fill="none" stroke="black" d="M1240.78,-718.85C1267.17,-706.56 1303.74,-689.51 1333.89,-675.46"/>
<polygon fill="black" stroke="black" points="1335.3,-678.66 1342.89,-671.26 1332.34,-672.31 1335.3,-678.66"/>
</g>
<!-- label_focusModeModsPearl -->
<g id="node3" class="node">
<title>label_focusModeModsPearl</title>
<ellipse fill="lightgrey" stroke="black" cx="1704.5" cy="-736.3" rx="101.71" ry="18"/>
<text text-anchor="middle" x="1704.5" y="-731.63" font-family="Helvetica,sans-Serif" font-size="14.00">Focus mode: Mods</text>
</g>
<!-- alg_SaveGss_mods -->
<g id="node25" class="node">
<title>alg_SaveGss_mods</title>
<path fill="lightskyblue" stroke="black" d="M1798.75,-670.25C1798.75,-670.25 1610.25,-670.25 1610.25,-670.25 1604.25,-670.25 1598.25,-664.25 1598.25,-658.25 1598.25,-658.25 1598.25,-639.75 1598.25,-639.75 1598.25,-633.75 1604.25,-627.75 1610.25,-627.75 1610.25,-627.75 1798.75,-627.75 1798.75,-627.75 1804.75,-627.75 1810.75,-633.75 1810.75,-639.75 1810.75,-639.75 1810.75,-658.25 1810.75,-658.25 1810.75,-664.25 1804.75,-670.25 1798.75,-670.25"/>
<text text-anchor="middle" x="1704.5" y="-652.95" font-family="Helvetica,sans-Serif" font-size="14.00">Save GSS: TOF</text>
<text text-anchor="middle" x="1704.5" y="-635.7" font-family="Helvetica,sans-Serif" font-size="14.00"> Appending each workspace</text>
</g>
<!-- label_focusModeModsPearl&#45;&gt;alg_SaveGss_mods -->
<g id="edge20" class="edge">
<title>label_focusModeModsPearl&#45;&gt;alg_SaveGss_mods</title>
<path fill="none" stroke="black" d="M1704.5,-718.04C1704.5,-707.64 1704.5,-694.06 1704.5,-681.78"/>
<polygon fill="black" stroke="black" points="1708,-682.06 1704.5,-672.06 1701,-682.06 1708,-682.06"/>
</g>
<!-- label_focusModeTransPearl -->
<g id="node4" class="node">
<title>label_focusModeTransPearl</title>
<ellipse fill="lightgrey" stroke="black" cx="1937.5" cy="-736.3" rx="102.24" ry="18"/>
<text text-anchor="middle" x="1937.5" y="-731.63" font-family="Helvetica,sans-Serif" font-size="14.00">Focus mode: Trans</text>
</g>
<!-- alg_MergeRuns_trans -->
<g id="node27" class="node">
<title>alg_MergeRuns_trans</title>
<path fill="lightskyblue" stroke="black" d="M2034,-667C2034,-667 1841,-667 1841,-667 1835,-667 1829,-661 1829,-655 1829,-655 1829,-643 1829,-643 1829,-637 1835,-631 1841,-631 1841,-631 2034,-631 2034,-631 2040,-631 2046,-637 2046,-643 2046,-643 2046,-655 2046,-655 2046,-661 2040,-667 2034,-667"/>
<text text-anchor="middle" x="1937.5" y="-644.33" font-family="Helvetica,sans-Serif" font-size="14.00">Merge Runs: Banks 1&#45;9 (inc.)</text>
</g>
<!-- label_focusModeTransPearl&#45;&gt;alg_MergeRuns_trans -->
<g id="edge22" class="edge">
<title>label_focusModeTransPearl&#45;&gt;alg_MergeRuns_trans</title>
<path fill="none" stroke="black" d="M1937.5,-718.04C1937.5,-706.71 1937.5,-691.62 1937.5,-678.53"/>
<polygon fill="black" stroke="black" points="1941,-678.75 1937.5,-668.75 1934,-678.75 1941,-678.75"/>
</g>
<!-- label_attenuateWorkspacePearl -->
<g id="node5" class="node">
<title>label_attenuateWorkspacePearl</title>
<ellipse fill="lightgrey" stroke="black" cx="2172.5" cy="-736.3" rx="114.87" ry="18"/>
<text text-anchor="middle" x="2172.5" y="-731.63" font-family="Helvetica,sans-Serif" font-size="14.00">Attenuate Workspace</text>
</g>
<!-- alg_PearlMCAbsorption -->
<g id="node38" class="node">
<title>alg_PearlMCAbsorption</title>
<path fill="lightskyblue" stroke="black" d="M2493.5,-667C2493.5,-667 2369.5,-667 2369.5,-667 2363.5,-667 2357.5,-661 2357.5,-655 2357.5,-655 2357.5,-643 2357.5,-643 2357.5,-637 2363.5,-631 2369.5,-631 2369.5,-631 2493.5,-631 2493.5,-631 2499.5,-631 2505.5,-637 2505.5,-643 2505.5,-643 2505.5,-655 2505.5,-655 2505.5,-661 2499.5,-667 2493.5,-667"/>
<text text-anchor="middle" x="2431.5" y="-644.33" font-family="Helvetica,sans-Serif" font-size="14.00">PearlMCAbsorption</text>
</g>
<!-- label_attenuateWorkspacePearl&#45;&gt;alg_PearlMCAbsorption -->
<g id="edge33" class="edge">
<title>label_attenuateWorkspacePearl&#45;&gt;alg_PearlMCAbsorption</title>
<path fill="none" stroke="black" d="M2220.31,-719.56C2261.85,-705.87 2322.35,-685.95 2367.96,-670.93"/>
<polygon fill="black" stroke="black" points="2368.78,-674.34 2377.18,-667.89 2366.59,-667.69 2368.78,-674.34"/>
</g>
<!-- param_attenuatePearl_all -->
<g id="node6" class="node">
<title>param_attenuatePearl_all</title>
<ellipse fill="khaki" stroke="black" cx="712.5" cy="-570.5" rx="121.71" ry="18"/>
<text text-anchor="middle" x="712.5" y="-565.83" font-family="Helvetica,sans-Serif" font-size="14.00">User param: attenuate</text>
</g>
<!-- if_attenuatePearl_all -->
<g id="node40" class="node">
<title>if_attenuatePearl_all</title>
<polygon fill="limegreen" stroke="black" points="573.5,-509 473.55,-491 573.5,-473 673.45,-491 573.5,-509"/>
<text text-anchor="middle" x="573.5" y="-486.32" font-family="Helvetica,sans-Serif" font-size="14.00">If: attenuate</text>
</g>
<!-- param_attenuatePearl_all&#45;&gt;if_attenuatePearl_all -->
<g id="edge4" class="edge">
<title>param_attenuatePearl_all&#45;&gt;if_attenuatePearl_all</title>
<path fill="none" stroke="black" d="M682.34,-552.68C660.18,-540.33 630.07,-523.54 607.14,-510.75"/>
<polygon fill="black" stroke="black" points="608.92,-507.74 598.48,-505.93 605.51,-513.85 608.92,-507.74"/>
</g>
<!-- param_attenuatePearl_trans -->
<g id="node7" class="node">
<title>param_attenuatePearl_trans</title>
<ellipse fill="khaki" stroke="black" cx="2169.5" cy="-570.5" rx="121.71" ry="18"/>
<text text-anchor="middle" x="2169.5" y="-565.83" font-family="Helvetica,sans-Serif" font-size="14.00">User param: attenuate</text>
</g>
<!-- if_attenuatePearl_trans -->
<g id="node41" class="node">
<title>if_attenuatePearl_trans</title>
<polygon fill="limegreen" stroke="black" points="2105.5,-509 2005.55,-491 2105.5,-473 2205.45,-491 2105.5,-509"/>
<text text-anchor="middle" x="2105.5" y="-486.32" font-family="Helvetica,sans-Serif" font-size="14.00">If: attenuate</text>
</g>
<!-- param_attenuatePearl_trans&#45;&gt;if_attenuatePearl_trans -->
<g id="edge25" class="edge">
<title>param_attenuatePearl_trans&#45;&gt;if_attenuatePearl_trans</title>
<path fill="none" stroke="black" d="M2155.3,-552.3C2146.46,-541.6 2134.98,-527.69 2125.26,-515.93"/>
<polygon fill="black" stroke="black" points="2127.96,-513.71 2118.9,-508.22 2122.57,-518.16 2127.96,-513.71"/>
</g>
<!-- param_attenuatePearlFilePath -->
<g id="node8" class="node">
<title>param_attenuatePearlFilePath</title>
<ellipse fill="khaki" stroke="black" cx="2470.5" cy="-736.3" rx="165.11" ry="30.05"/>
<text text-anchor="middle" x="2470.5" y="-740.25" font-family="Helvetica,sans-Serif" font-size="14.00">User param:</text>
<text text-anchor="middle" x="2470.5" y="-723" font-family="Helvetica,sans-Serif" font-size="14.00"> Full file path to attenuation file</text>
</g>
<!-- param_attenuatePearlFilePath&#45;&gt;alg_PearlMCAbsorption -->
<g id="edge34" class="edge">
<title>param_attenuatePearlFilePath&#45;&gt;alg_PearlMCAbsorption</title>
<path fill="none" stroke="black" d="M2457.08,-705.95C2452.88,-696.76 2448.26,-686.67 2444.12,-677.61"/>
<polygon fill="black" stroke="black" points="2447.34,-676.22 2440,-668.58 2440.97,-679.13 2447.34,-676.22"/>
</g>
<!-- proc_attenuatePearl_all -->
<g id="node9" class="node">
<title>proc_attenuatePearl_all</title>
<polygon fill="lightseagreen" stroke="black" points="640.38,-413.25 434.62,-413.25 434.62,-377.25 640.38,-377.25 640.38,-413.25"/>
<text text-anchor="middle" x="537.5" y="-390.57" font-family="Helvetica,sans-Serif" font-size="14.00">Pearl: Attenuate workspace</text>
</g>
<!-- alg_SaveGssSummed_all -->
<g id="node14" class="node">
<title>alg_SaveGssSummed_all</title>
<path fill="lightskyblue" stroke="black" d="M654.25,-337C654.25,-337 558.75,-337 558.75,-337 552.75,-337 546.75,-331 546.75,-325 546.75,-325 546.75,-313 546.75,-313 546.75,-307 552.75,-301 558.75,-301 558.75,-301 654.25,-301 654.25,-301 660.25,-301 666.25,-307 666.25,-313 666.25,-313 666.25,-325 666.25,-325 666.25,-331 660.25,-337 654.25,-337"/>
<text text-anchor="middle" x="606.5" y="-314.32" font-family="Helvetica,sans-Serif" font-size="14.00">Save GSS: TOF</text>
</g>
<!-- proc_attenuatePearl_all&#45;&gt;alg_SaveGssSummed_all -->
<g id="edge6" class="edge">
<title>proc_attenuatePearl_all&#45;&gt;alg_SaveGssSummed_all</title>
<path fill="none" stroke="black" d="M553.5,-377.03C562.15,-367.72 573,-356.05 582.62,-345.69"/>
<polygon fill="black" stroke="black" points="585.07,-348.2 589.31,-338.49 579.94,-343.44 585.07,-348.2"/>
</g>
<!-- proc_attenuatePearl_trans -->
<g id="node10" class="node">
<title>proc_attenuatePearl_trans</title>
<polygon fill="lightseagreen" stroke="black" points="2108.38,-413.25 1902.62,-413.25 1902.62,-377.25 2108.38,-377.25 2108.38,-413.25"/>
<text text-anchor="middle" x="2005.5" y="-390.57" font-family="Helvetica,sans-Serif" font-size="14.00">Pearl: Attenuate workspace</text>
</g>
<!-- alg_SaveGssSummed_trans -->
<g id="node29" class="node">
<title>alg_SaveGssSummed_trans</title>
<path fill="lightskyblue" stroke="black" d="M2153.25,-337C2153.25,-337 2057.75,-337 2057.75,-337 2051.75,-337 2045.75,-331 2045.75,-325 2045.75,-325 2045.75,-313 2045.75,-313 2045.75,-307 2051.75,-301 2057.75,-301 2057.75,-301 2153.25,-301 2153.25,-301 2159.25,-301 2165.25,-307 2165.25,-313 2165.25,-313 2165.25,-325 2165.25,-325 2165.25,-331 2159.25,-337 2153.25,-337"/>
<text text-anchor="middle" x="2105.5" y="-314.32" font-family="Helvetica,sans-Serif" font-size="14.00">Save GSS: TOF</text>
</g>
<!-- proc_attenuatePearl_trans&#45;&gt;alg_SaveGssSummed_trans -->
<g id="edge28" class="edge">
<title>proc_attenuatePearl_trans&#45;&gt;alg_SaveGssSummed_trans</title>
<path fill="none" stroke="black" d="M2028.95,-376.84C2042.11,-367.07 2058.74,-354.72 2073.13,-344.04"/>
<polygon fill="black" stroke="black" points="2075.04,-346.97 2080.99,-338.2 2070.87,-341.35 2075.04,-346.97"/>
</g>
<!-- alg_Scale_all -->
<g id="node12" class="node">
<title>alg_Scale_all</title>
<path fill="lightskyblue" stroke="black" d="M200.88,-588.5C200.88,-588.5 40.12,-588.5 40.12,-588.5 34.12,-588.5 28.12,-582.5 28.12,-576.5 28.12,-576.5 28.12,-564.5 28.12,-564.5 28.12,-558.5 34.12,-552.5 40.12,-552.5 40.12,-552.5 200.88,-552.5 200.88,-552.5 206.88,-552.5 212.88,-558.5 212.88,-564.5 212.88,-564.5 212.88,-576.5 212.88,-576.5 212.88,-582.5 206.88,-588.5 200.88,-588.5"/>
<text text-anchor="middle" x="120.5" y="-565.83" font-family="Helvetica,sans-Serif" font-size="14.00">Scale: 0.11111111 (1/9)</text>
</g>
<!-- alg_MergeRuns_all&#45;&gt;alg_Scale_all -->
<g id="edge2" class="edge">
<title>alg_MergeRuns_all&#45;&gt;alg_Scale_all</title>
<path fill="none" stroke="black" d="M111.22,-630.64C112.65,-621.54 114.43,-610.17 116.05,-599.84"/>
<polygon fill="black" stroke="black" points="119.46,-600.71 117.55,-590.29 112.55,-599.62 119.46,-600.71"/>
</g>
<!-- alg_Scale_all&#45;&gt;if_attenuatePearl_all -->
<g id="edge3" class="edge">
<title>alg_Scale_all&#45;&gt;if_attenuatePearl_all</title>
<path fill="none" stroke="black" d="M208.4,-552.02C213.51,-551.07 218.57,-550.14 223.5,-549.25 323.38,-531.27 439.73,-512.71 509.94,-501.77"/>
<polygon fill="black" stroke="black" points="510.39,-505.24 519.73,-500.25 509.31,-498.33 510.39,-505.24"/>
</g>
<!-- alg_SaveNexusProcessed_all -->
<g id="node16" class="node">
<title>alg_SaveNexusProcessed_all</title>
<path fill="lightskyblue" stroke="black" d="M560.5,-591.75C560.5,-591.75 244.5,-591.75 244.5,-591.75 238.5,-591.75 232.5,-585.75 232.5,-579.75 232.5,-579.75 232.5,-561.25 232.5,-561.25 232.5,-555.25 238.5,-549.25 244.5,-549.25 244.5,-549.25 560.5,-549.25 560.5,-549.25 566.5,-549.25 572.5,-555.25 572.5,-561.25 572.5,-561.25 572.5,-579.75 572.5,-579.75 572.5,-585.75 566.5,-591.75 560.5,-591.75"/>
<text text-anchor="middle" x="402.5" y="-574.45" font-family="Helvetica,sans-Serif" font-size="14.00">Save Nexus Processed: dSpacing</text>
<text text-anchor="middle" x="402.5" y="-557.2" font-family="Helvetica,sans-Serif" font-size="14.00"> Appending banks 10&#45;12 (inc.) to merged runs</text>
</g>
<!-- alg_SaveGss_all&#45;&gt;alg_SaveNexusProcessed_all -->
<g id="edge10" class="edge">
<title>alg_SaveGss_all&#45;&gt;alg_SaveNexusProcessed_all</title>
<path fill="none" stroke="black" d="M404.7,-627.5C404.41,-620.12 404.07,-611.62 403.75,-603.5"/>
<polygon fill="black" stroke="black" points="407.25,-603.42 403.37,-593.57 400.26,-603.7 407.25,-603.42"/>
</g>
<!-- alg_SaveNexusProcessedSummed_all -->
<g id="node15" class="node">
<title>alg_SaveNexusProcessedSummed_all</title>
<path fill="lightskyblue" stroke="black" d="M717.25,-261.75C717.25,-261.75 495.75,-261.75 495.75,-261.75 489.75,-261.75 483.75,-255.75 483.75,-249.75 483.75,-249.75 483.75,-237.75 483.75,-237.75 483.75,-231.75 489.75,-225.75 495.75,-225.75 495.75,-225.75 717.25,-225.75 717.25,-225.75 723.25,-225.75 729.25,-231.75 729.25,-237.75 729.25,-237.75 729.25,-249.75 729.25,-249.75 729.25,-255.75 723.25,-261.75 717.25,-261.75"/>
<text text-anchor="middle" x="606.5" y="-239.07" font-family="Helvetica,sans-Serif" font-size="14.00">Save Nexus Processed: dSpacing</text>
</g>
<!-- alg_SaveGssSummed_all&#45;&gt;alg_SaveNexusProcessedSummed_all -->
<g id="edge8" class="edge">
<title>alg_SaveGssSummed_all&#45;&gt;alg_SaveNexusProcessedSummed_all</title>
<path fill="none" stroke="black" d="M606.5,-300.64C606.5,-292.58 606.5,-282.78 606.5,-273.65"/>
<polygon fill="black" stroke="black" points="610,-273.75 606.5,-263.75 603,-273.75 610,-273.75"/>
</g>
<!-- alg_Plus_groups -->
<g id="node17" class="node">
<title>alg_Plus_groups</title>
<path fill="lightskyblue" stroke="black" d="M1045,-509C1045,-509 888,-509 888,-509 882,-509 876,-503 876,-497 876,-497 876,-485 876,-485 876,-479 882,-473 888,-473 888,-473 1045,-473 1045,-473 1051,-473 1057,-479 1057,-485 1057,-485 1057,-497 1057,-497 1057,-503 1051,-509 1045,-509"/>
<text text-anchor="middle" x="966.5" y="-486.32" font-family="Helvetica,sans-Serif" font-size="14.00">Plus: Runs (4&#45;6) + (7&#45;9)</text>
</g>
<!-- alg_ScaleHalf_groups -->
<g id="node20" class="node">
<title>alg_ScaleHalf_groups</title>
<path fill="lightskyblue" stroke="black" d="M1030.38,-413.25C1030.38,-413.25 932.62,-413.25 932.62,-413.25 926.62,-413.25 920.62,-407.25 920.62,-401.25 920.62,-401.25 920.62,-389.25 920.62,-389.25 920.62,-383.25 926.62,-377.25 932.62,-377.25 932.62,-377.25 1030.38,-377.25 1030.38,-377.25 1036.38,-377.25 1042.38,-383.25 1042.38,-389.25 1042.38,-389.25 1042.38,-401.25 1042.38,-401.25 1042.38,-407.25 1036.38,-413.25 1030.38,-413.25"/>
<text text-anchor="middle" x="981.5" y="-390.57" font-family="Helvetica,sans-Serif" font-size="14.00">Scale: 0.5 (1/2)</text>
</g>
<!-- alg_Plus_groups&#45;&gt;alg_ScaleHalf_groups -->
<g id="edge14" class="edge">
<title>alg_Plus_groups&#45;&gt;alg_ScaleHalf_groups</title>
<path fill="none" stroke="black" d="M969.25,-472.8C971.39,-459.41 974.42,-440.52 976.92,-424.86"/>
<polygon fill="black" stroke="black" points="980.35,-425.58 978.48,-415.15 973.44,-424.47 980.35,-425.58"/>
</g>
<!-- alg_Scale_groups -->
<g id="node19" class="node">
<title>alg_Scale_groups</title>
<path fill="lightskyblue" stroke="black" d="M1193.25,-588.5C1193.25,-588.5 911.75,-588.5 911.75,-588.5 905.75,-588.5 899.75,-582.5 899.75,-576.5 899.75,-576.5 899.75,-564.5 899.75,-564.5 899.75,-558.5 905.75,-552.5 911.75,-552.5 911.75,-552.5 1193.25,-552.5 1193.25,-552.5 1199.25,-552.5 1205.25,-558.5 1205.25,-564.5 1205.25,-564.5 1205.25,-576.5 1205.25,-576.5 1205.25,-582.5 1199.25,-588.5 1193.25,-588.5"/>
<text text-anchor="middle" x="1052.5" y="-565.83" font-family="Helvetica,sans-Serif" font-size="14.00">Scale: Each workspace by 0.333333 (1/3)</text>
</g>
<!-- alg_MergeRuns_groups&#45;&gt;alg_Scale_groups -->
<g id="edge12" class="edge">
<title>alg_MergeRuns_groups&#45;&gt;alg_Scale_groups</title>
<path fill="none" stroke="black" d="M1064.94,-627.5C1063.06,-619.04 1060.85,-609.08 1058.82,-599.93"/>
<polygon fill="black" stroke="black" points="1062.29,-599.42 1056.7,-590.42 1055.46,-600.94 1062.29,-599.42"/>
</g>
<!-- alg_Scale_groups&#45;&gt;alg_Plus_groups -->
<g id="edge13" class="edge">
<title>alg_Scale_groups&#45;&gt;alg_Plus_groups</title>
<path fill="none" stroke="black" d="M1033.41,-552.3C1021.91,-541.94 1007.07,-528.56 994.29,-517.04"/>
<polygon fill="black" stroke="black" points="996.73,-514.53 986.95,-510.43 992.04,-519.73 996.73,-514.53"/>
</g>
<!-- alg_SaveGssSummed_groups -->
<g id="node21" class="node">
<title>alg_SaveGssSummed_groups</title>
<path fill="lightskyblue" stroke="black" d="M1081.25,-337C1081.25,-337 985.75,-337 985.75,-337 979.75,-337 973.75,-331 973.75,-325 973.75,-325 973.75,-313 973.75,-313 973.75,-307 979.75,-301 985.75,-301 985.75,-301 1081.25,-301 1081.25,-301 1087.25,-301 1093.25,-307 1093.25,-313 1093.25,-313 1093.25,-325 1093.25,-325 1093.25,-331 1087.25,-337 1081.25,-337"/>
<text text-anchor="middle" x="1033.5" y="-314.32" font-family="Helvetica,sans-Serif" font-size="14.00">Save GSS: TOF</text>
</g>
<!-- alg_Scale_groups&#45;&gt;alg_SaveGssSummed_groups -->
<g id="edge15" class="edge">
<title>alg_Scale_groups&#45;&gt;alg_SaveGssSummed_groups</title>
<path fill="none" stroke="black" d="M1057.51,-552.13C1060.49,-540.87 1063.98,-525.82 1065.5,-512.25 1072.38,-450.88 1065.79,-434.08 1051.5,-374 1049.46,-365.41 1046.65,-356.23 1043.85,-347.93"/>
<polygon fill="black" stroke="black" points="1047.23,-347 1040.63,-338.71 1040.63,-349.31 1047.23,-347"/>
</g>
<!-- alg_ScaleHalf_groups&#45;&gt;alg_SaveGssSummed_groups -->
<g id="edge16" class="edge">
<title>alg_ScaleHalf_groups&#45;&gt;alg_SaveGssSummed_groups</title>
<path fill="none" stroke="black" d="M993.56,-377.03C999.88,-368 1007.76,-356.75 1014.85,-346.63"/>
<polygon fill="black" stroke="black" points="1017.59,-348.82 1020.46,-338.62 1011.85,-344.81 1017.59,-348.82"/>
</g>
<!-- alg_SaveNexusProcessedSummed_groups -->
<g id="node23" class="node">
<title>alg_SaveNexusProcessedSummed_groups</title>
<path fill="lightskyblue" stroke="black" d="M1144.25,-261.75C1144.25,-261.75 922.75,-261.75 922.75,-261.75 916.75,-261.75 910.75,-255.75 910.75,-249.75 910.75,-249.75 910.75,-237.75 910.75,-237.75 910.75,-231.75 916.75,-225.75 922.75,-225.75 922.75,-225.75 1144.25,-225.75 1144.25,-225.75 1150.25,-225.75 1156.25,-231.75 1156.25,-237.75 1156.25,-237.75 1156.25,-249.75 1156.25,-249.75 1156.25,-255.75 1150.25,-261.75 1144.25,-261.75"/>
<text text-anchor="middle" x="1033.5" y="-239.07" font-family="Helvetica,sans-Serif" font-size="14.00">Save Nexus Processed: dSpacing</text>
</g>
<!-- alg_SaveGssSummed_groups&#45;&gt;alg_SaveNexusProcessedSummed_groups -->
<g id="edge17" class="edge">
<title>alg_SaveGssSummed_groups&#45;&gt;alg_SaveNexusProcessedSummed_groups</title>
<path fill="none" stroke="black" d="M1033.5,-300.64C1033.5,-292.58 1033.5,-282.78 1033.5,-273.65"/>
<polygon fill="black" stroke="black" points="1037,-273.75 1033.5,-263.75 1030,-273.75 1037,-273.75"/>
</g>
<!-- alg_SaveNexusProcessed_groups -->
<g id="node24" class="node">
<title>alg_SaveNexusProcessed_groups</title>
<path fill="lightskyblue" stroke="black" d="M1551.5,-591.75C1551.5,-591.75 1235.5,-591.75 1235.5,-591.75 1229.5,-591.75 1223.5,-585.75 1223.5,-579.75 1223.5,-579.75 1223.5,-561.25 1223.5,-561.25 1223.5,-555.25 1229.5,-549.25 1235.5,-549.25 1235.5,-549.25 1551.5,-549.25 1551.5,-549.25 1557.5,-549.25 1563.5,-555.25 1563.5,-561.25 1563.5,-561.25 1563.5,-579.75 1563.5,-579.75 1563.5,-585.75 1557.5,-591.75 1551.5,-591.75"/>
<text text-anchor="middle" x="1393.5" y="-574.45" font-family="Helvetica,sans-Serif" font-size="14.00">Save Nexus Processed: dSpacing</text>
<text text-anchor="middle" x="1393.5" y="-557.2" font-family="Helvetica,sans-Serif" font-size="14.00"> Appending banks 10&#45;14 (inc.) to merged runs</text>
</g>
<!-- alg_SaveGss_groups&#45;&gt;alg_SaveNexusProcessed_groups -->
<g id="edge19" class="edge">
<title>alg_SaveGss_groups&#45;&gt;alg_SaveNexusProcessed_groups</title>
<path fill="none" stroke="black" d="M1389.84,-627.5C1390.32,-620.12 1390.88,-611.62 1391.41,-603.5"/>
<polygon fill="black" stroke="black" points="1394.9,-603.77 1392.06,-593.57 1387.91,-603.32 1394.9,-603.77"/>
</g>
<!-- alg_SaveNexusProcessed_mods -->
<g id="node26" class="node">
<title>alg_SaveNexusProcessed_mods</title>
<path fill="lightskyblue" stroke="black" d="M1815.25,-591.75C1815.25,-591.75 1593.75,-591.75 1593.75,-591.75 1587.75,-591.75 1581.75,-585.75 1581.75,-579.75 1581.75,-579.75 1581.75,-561.25 1581.75,-561.25 1581.75,-555.25 1587.75,-549.25 1593.75,-549.25 1593.75,-549.25 1815.25,-549.25 1815.25,-549.25 1821.25,-549.25 1827.25,-555.25 1827.25,-561.25 1827.25,-561.25 1827.25,-579.75 1827.25,-579.75 1827.25,-585.75 1821.25,-591.75 1815.25,-591.75"/>
<text text-anchor="middle" x="1704.5" y="-574.45" font-family="Helvetica,sans-Serif" font-size="14.00">Save Nexus Processed: dSpacing</text>
<text text-anchor="middle" x="1704.5" y="-557.2" font-family="Helvetica,sans-Serif" font-size="14.00"> Appending each workspace</text>
</g>
<!-- alg_SaveGss_mods&#45;&gt;alg_SaveNexusProcessed_mods -->
<g id="edge21" class="edge">
<title>alg_SaveGss_mods&#45;&gt;alg_SaveNexusProcessed_mods</title>
<path fill="none" stroke="black" d="M1704.5,-627.5C1704.5,-620.12 1704.5,-611.62 1704.5,-603.5"/>
<polygon fill="black" stroke="black" points="1708,-603.57 1704.5,-593.57 1701,-603.57 1708,-603.57"/>
</g>
<!-- alg_Scale_trans -->
<g id="node28" class="node">
<title>alg_Scale_trans</title>
<path fill="lightskyblue" stroke="black" d="M2017.88,-588.5C2017.88,-588.5 1857.12,-588.5 1857.12,-588.5 1851.12,-588.5 1845.12,-582.5 1845.12,-576.5 1845.12,-576.5 1845.12,-564.5 1845.12,-564.5 1845.12,-558.5 1851.12,-552.5 1857.12,-552.5 1857.12,-552.5 2017.88,-552.5 2017.88,-552.5 2023.88,-552.5 2029.88,-558.5 2029.88,-564.5 2029.88,-564.5 2029.88,-576.5 2029.88,-576.5 2029.88,-582.5 2023.88,-588.5 2017.88,-588.5"/>
<text text-anchor="middle" x="1937.5" y="-565.83" font-family="Helvetica,sans-Serif" font-size="14.00">Scale: 0.11111111 (1/9)</text>
</g>
<!-- alg_MergeRuns_trans&#45;&gt;alg_Scale_trans -->
<g id="edge23" class="edge">
<title>alg_MergeRuns_trans&#45;&gt;alg_Scale_trans</title>
<path fill="none" stroke="black" d="M1937.5,-630.64C1937.5,-621.64 1937.5,-610.42 1937.5,-600.17"/>
<polygon fill="black" stroke="black" points="1941,-600.3 1937.5,-590.3 1934,-600.3 1941,-600.3"/>
</g>
<!-- alg_Scale_trans&#45;&gt;if_attenuatePearl_trans -->
<g id="edge24" class="edge">
<title>alg_Scale_trans&#45;&gt;if_attenuatePearl_trans</title>
<path fill="none" stroke="black" d="M1975.2,-552.11C2002.87,-539.34 2040.29,-522.08 2067.93,-509.33"/>
<polygon fill="black" stroke="black" points="2069.39,-512.51 2077,-505.15 2066.46,-506.16 2069.39,-512.51"/>
</g>
<!-- alg_SaveFocusedXyeTOFSummed_trans -->
<g id="node31" class="node">
<title>alg_SaveFocusedXyeTOFSummed_trans</title>
<path fill="lightskyblue" stroke="black" d="M2183.25,-261.75C2183.25,-261.75 2027.75,-261.75 2027.75,-261.75 2021.75,-261.75 2015.75,-255.75 2015.75,-249.75 2015.75,-249.75 2015.75,-237.75 2015.75,-237.75 2015.75,-231.75 2021.75,-225.75 2027.75,-225.75 2027.75,-225.75 2183.25,-225.75 2183.25,-225.75 2189.25,-225.75 2195.25,-231.75 2195.25,-237.75 2195.25,-237.75 2195.25,-249.75 2195.25,-249.75 2195.25,-255.75 2189.25,-261.75 2183.25,-261.75"/>
<text text-anchor="middle" x="2105.5" y="-239.07" font-family="Helvetica,sans-Serif" font-size="14.00">Save Focused XYE: TOF</text>
</g>
<!-- alg_SaveGssSummed_trans&#45;&gt;alg_SaveFocusedXyeTOFSummed_trans -->
<g id="edge29" class="edge">
<title>alg_SaveGssSummed_trans&#45;&gt;alg_SaveFocusedXyeTOFSummed_trans</title>
<path fill="none" stroke="black" d="M2105.5,-300.64C2105.5,-292.58 2105.5,-282.78 2105.5,-273.65"/>
<polygon fill="black" stroke="black" points="2109,-273.75 2105.5,-263.75 2102,-273.75 2109,-273.75"/>
</g>
<!-- alg_SaveFocusedXyeDSummed_trans -->
<g id="node30" class="node">
<title>alg_SaveFocusedXyeDSummed_trans</title>
<path fill="lightskyblue" stroke="black" d="M2201.62,-186.5C2201.62,-186.5 2009.38,-186.5 2009.38,-186.5 2003.38,-186.5 1997.38,-180.5 1997.38,-174.5 1997.38,-174.5 1997.38,-162.5 1997.38,-162.5 1997.38,-156.5 2003.38,-150.5 2009.38,-150.5 2009.38,-150.5 2201.62,-150.5 2201.62,-150.5 2207.62,-150.5 2213.62,-156.5 2213.62,-162.5 2213.62,-162.5 2213.62,-174.5 2213.62,-174.5 2213.62,-180.5 2207.62,-186.5 2201.62,-186.5"/>
<text text-anchor="middle" x="2105.5" y="-163.82" font-family="Helvetica,sans-Serif" font-size="14.00">Save Focused XYE: dSpacing</text>
</g>
<!-- alg_SaveNexusProcessedSummed_trans -->
<g id="node32" class="node">
<title>alg_SaveNexusProcessedSummed_trans</title>
<path fill="lightskyblue" stroke="black" d="M2216.25,-114.5C2216.25,-114.5 1994.75,-114.5 1994.75,-114.5 1988.75,-114.5 1982.75,-108.5 1982.75,-102.5 1982.75,-102.5 1982.75,-90.5 1982.75,-90.5 1982.75,-84.5 1988.75,-78.5 1994.75,-78.5 1994.75,-78.5 2216.25,-78.5 2216.25,-78.5 2222.25,-78.5 2228.25,-84.5 2228.25,-90.5 2228.25,-90.5 2228.25,-102.5 2228.25,-102.5 2228.25,-108.5 2222.25,-114.5 2216.25,-114.5"/>
<text text-anchor="middle" x="2105.5" y="-91.83" font-family="Helvetica,sans-Serif" font-size="14.00">Save Nexus Processed: dSpacing</text>
</g>
<!-- alg_SaveFocusedXyeDSummed_trans&#45;&gt;alg_SaveNexusProcessedSummed_trans -->
<g id="edge31" class="edge">
<title>alg_SaveFocusedXyeDSummed_trans&#45;&gt;alg_SaveNexusProcessedSummed_trans</title>
<path fill="none" stroke="black" d="M2105.5,-150.2C2105.5,-142.91 2105.5,-134.23 2105.5,-126.04"/>
<polygon fill="black" stroke="black" points="2109,-126.12 2105.5,-116.12 2102,-126.12 2109,-126.12"/>
</g>
<!-- alg_SaveFocusedXyeTOFSummed_trans&#45;&gt;alg_SaveFocusedXyeDSummed_trans -->
<g id="edge30" class="edge">
<title>alg_SaveFocusedXyeTOFSummed_trans&#45;&gt;alg_SaveFocusedXyeDSummed_trans</title>
<path fill="none" stroke="black" d="M2105.5,-225.39C2105.5,-217.33 2105.5,-207.53 2105.5,-198.4"/>
<polygon fill="black" stroke="black" points="2109,-198.5 2105.5,-188.5 2102,-198.5 2109,-198.5"/>
</g>
<!-- alg_SaveNexusProcessed_trans -->
<g id="node33" class="node">
<title>alg_SaveNexusProcessed_trans</title>
<path fill="lightskyblue" stroke="black" d="M2259,-42.5C2259,-42.5 1952,-42.5 1952,-42.5 1946,-42.5 1940,-36.5 1940,-30.5 1940,-30.5 1940,-12 1940,-12 1940,-6 1946,0 1952,0 1952,0 2259,0 2259,0 2265,0 2271,-6 2271,-12 2271,-12 2271,-30.5 2271,-30.5 2271,-36.5 2265,-42.5 2259,-42.5"/>
<text text-anchor="middle" x="2105.5" y="-25.2" font-family="Helvetica,sans-Serif" font-size="14.00">Save Nexus Processed: dSpacing</text>
<text text-anchor="middle" x="2105.5" y="-7.95" font-family="Helvetica,sans-Serif" font-size="14.00"> Appending banks 1&#45;10 (inc.) to merged runs</text>
</g>
<!-- alg_SaveNexusProcessedSummed_trans&#45;&gt;alg_SaveNexusProcessed_trans -->
<g id="edge32" class="edge">
<title>alg_SaveNexusProcessedSummed_trans&#45;&gt;alg_SaveNexusProcessed_trans</title>
<path fill="none" stroke="black" d="M2105.5,-78.14C2105.5,-70.95 2105.5,-62.38 2105.5,-54.13"/>
<polygon fill="black" stroke="black" points="2109,-54.38 2105.5,-44.38 2102,-54.38 2109,-54.38"/>
</g>
<!-- alg_ConvertToHistogram -->
<g id="node34" class="node">
<title>alg_ConvertToHistogram</title>
<path fill="lightskyblue" stroke="black" d="M2502.5,-588.5C2502.5,-588.5 2360.5,-588.5 2360.5,-588.5 2354.5,-588.5 2348.5,-582.5 2348.5,-576.5 2348.5,-576.5 2348.5,-564.5 2348.5,-564.5 2348.5,-558.5 2354.5,-552.5 2360.5,-552.5 2360.5,-552.5 2502.5,-552.5 2502.5,-552.5 2508.5,-552.5 2514.5,-558.5 2514.5,-564.5 2514.5,-564.5 2514.5,-576.5 2514.5,-576.5 2514.5,-582.5 2508.5,-588.5 2502.5,-588.5"/>
<text text-anchor="middle" x="2431.5" y="-565.83" font-family="Helvetica,sans-Serif" font-size="14.00">Convert To Histogram</text>
</g>
<!-- alg_ConvertUnits -->
<g id="node35" class="node">
<title>alg_ConvertUnits</title>
<path fill="lightskyblue" stroke="black" d="M2571.12,-512.25C2571.12,-512.25 2291.88,-512.25 2291.88,-512.25 2285.88,-512.25 2279.88,-506.25 2279.88,-500.25 2279.88,-500.25 2279.88,-481.75 2279.88,-481.75 2279.88,-475.75 2285.88,-469.75 2291.88,-469.75 2291.88,-469.75 2571.12,-469.75 2571.12,-469.75 2577.12,-469.75 2583.12,-475.75 2583.12,-481.75 2583.12,-481.75 2583.12,-500.25 2583.12,-500.25 2583.12,-506.25 2577.12,-512.25 2571.12,-512.25"/>
<text text-anchor="middle" x="2431.5" y="-494.95" font-family="Helvetica,sans-Serif" font-size="14.00">Convert Units:</text>
<text text-anchor="middle" x="2431.5" y="-477.7" font-family="Helvetica,sans-Serif" font-size="14.00"> Match the loaded attenuation workspace</text>
</g>
<!-- alg_ConvertToHistogram&#45;&gt;alg_ConvertUnits -->
<g id="edge36" class="edge">
<title>alg_ConvertToHistogram&#45;&gt;alg_ConvertUnits</title>
<path fill="none" stroke="black" d="M2431.5,-552.3C2431.5,-543.99 2431.5,-533.75 2431.5,-524.08"/>
<polygon fill="black" stroke="black" points="2435,-524.25 2431.5,-514.25 2428,-524.25 2435,-524.25"/>
</g>
<!-- alg_RebinWorkspace -->
<g id="node39" class="node">
<title>alg_RebinWorkspace</title>
<path fill="lightskyblue" stroke="black" d="M2614.62,-416.5C2614.62,-416.5 2248.38,-416.5 2248.38,-416.5 2242.38,-416.5 2236.38,-410.5 2236.38,-404.5 2236.38,-404.5 2236.38,-386 2236.38,-386 2236.38,-380 2242.38,-374 2248.38,-374 2248.38,-374 2614.62,-374 2614.62,-374 2620.62,-374 2626.62,-380 2626.62,-386 2626.62,-386 2626.62,-404.5 2626.62,-404.5 2626.62,-410.5 2620.62,-416.5 2614.62,-416.5"/>
<text text-anchor="middle" x="2431.5" y="-399.2" font-family="Helvetica,sans-Serif" font-size="14.00">Rebin:</text>
<text text-anchor="middle" x="2431.5" y="-381.95" font-family="Helvetica,sans-Serif" font-size="14.00"> Attenuated workspace to match workspace to correct</text>
</g>
<!-- alg_ConvertUnits&#45;&gt;alg_RebinWorkspace -->
<g id="edge37" class="edge">
<title>alg_ConvertUnits&#45;&gt;alg_RebinWorkspace</title>
<path fill="none" stroke="black" d="M2431.5,-469.66C2431.5,-457.58 2431.5,-441.99 2431.5,-428.3"/>
<polygon fill="black" stroke="black" points="2435,-428.39 2431.5,-418.39 2428,-428.39 2435,-428.39"/>
</g>
<!-- alg_ConvertUnitsOriginal -->
<g id="node36" class="node">
<title>alg_ConvertUnitsOriginal</title>
<path fill="lightskyblue" stroke="black" d="M2523.5,-265C2523.5,-265 2339.5,-265 2339.5,-265 2333.5,-265 2327.5,-259 2327.5,-253 2327.5,-253 2327.5,-234.5 2327.5,-234.5 2327.5,-228.5 2333.5,-222.5 2339.5,-222.5 2339.5,-222.5 2523.5,-222.5 2523.5,-222.5 2529.5,-222.5 2535.5,-228.5 2535.5,-234.5 2535.5,-234.5 2535.5,-253 2535.5,-253 2535.5,-259 2529.5,-265 2523.5,-265"/>
<text text-anchor="middle" x="2431.5" y="-247.7" font-family="Helvetica,sans-Serif" font-size="14.00">Convert Units:</text>
<text text-anchor="middle" x="2431.5" y="-230.45" font-family="Helvetica,sans-Serif" font-size="14.00"> Back to original input units</text>
</g>
<!-- alg_Divide -->
<g id="node37" class="node">
<title>alg_Divide</title>
<path fill="lightskyblue" stroke="black" d="M2567.75,-337C2567.75,-337 2295.25,-337 2295.25,-337 2289.25,-337 2283.25,-331 2283.25,-325 2283.25,-325 2283.25,-313 2283.25,-313 2283.25,-307 2289.25,-301 2295.25,-301 2295.25,-301 2567.75,-301 2567.75,-301 2573.75,-301 2579.75,-307 2579.75,-313 2579.75,-313 2579.75,-325 2579.75,-325 2579.75,-331 2573.75,-337 2567.75,-337"/>
<text text-anchor="middle" x="2431.5" y="-314.32" font-family="Helvetica,sans-Serif" font-size="14.00">Divide: Data Ws / Attenuated Workspace</text>
</g>
<!-- alg_Divide&#45;&gt;alg_ConvertUnitsOriginal -->
<g id="edge39" class="edge">
<title>alg_Divide&#45;&gt;alg_ConvertUnitsOriginal</title>
<path fill="none" stroke="black" d="M2431.5,-300.64C2431.5,-293.45 2431.5,-284.88 2431.5,-276.63"/>
<polygon fill="black" stroke="black" points="2435,-276.88 2431.5,-266.88 2428,-276.88 2435,-276.88"/>
</g>
<!-- alg_PearlMCAbsorption&#45;&gt;alg_ConvertToHistogram -->
<g id="edge35" class="edge">
<title>alg_PearlMCAbsorption&#45;&gt;alg_ConvertToHistogram</title>
<path fill="none" stroke="black" d="M2431.5,-630.64C2431.5,-621.64 2431.5,-610.42 2431.5,-600.17"/>
<polygon fill="black" stroke="black" points="2435,-600.3 2431.5,-590.3 2428,-600.3 2435,-600.3"/>
</g>
<!-- alg_RebinWorkspace&#45;&gt;alg_Divide -->
<g id="edge38" class="edge">
<title>alg_RebinWorkspace&#45;&gt;alg_Divide</title>
<path fill="none" stroke="black" d="M2431.5,-373.57C2431.5,-365.75 2431.5,-356.72 2431.5,-348.32"/>
<polygon fill="black" stroke="black" points="2435,-348.58 2431.5,-338.58 2428,-348.58 2435,-348.58"/>
</g>
<!-- if_attenuatePearl_all&#45;&gt;proc_attenuatePearl_all -->
<g id="edge5" class="edge">
<title>if_attenuatePearl_all&#45;&gt;proc_attenuatePearl_all</title>
<path fill="none" stroke="black" d="M567.23,-473.67C561.99,-460.03 554.41,-440.28 548.21,-424.14"/>
<polygon fill="black" stroke="black" points="551.58,-423.16 544.73,-415.08 545.05,-425.67 551.58,-423.16"/>
<text text-anchor="middle" x="574.5" y="-438.45" font-family="Helvetica,sans-Serif" font-size="14.00">True</text>
</g>
<!-- if_attenuatePearl_all&#45;&gt;alg_SaveGssSummed_all -->
<g id="edge7" class="edge">
<title>if_attenuatePearl_all&#45;&gt;alg_SaveGssSummed_all</title>
<path fill="none" stroke="black" d="M595.18,-476.44C613.53,-463.56 638.54,-442.36 649.5,-416.5 656.87,-399.11 655.73,-391.83 649.5,-374 645.9,-363.7 639.42,-353.89 632.56,-345.53"/>
<polygon fill="black" stroke="black" points="635.34,-343.39 626.1,-338.21 630.09,-348.02 635.34,-343.39"/>
<text text-anchor="middle" x="672.75" y="-390.57" font-family="Helvetica,sans-Serif" font-size="14.00">False</text>
</g>
<!-- if_attenuatePearl_trans&#45;&gt;proc_attenuatePearl_trans -->
<g id="edge26" class="edge">
<title>if_attenuatePearl_trans&#45;&gt;proc_attenuatePearl_trans</title>
<path fill="none" stroke="black" d="M2089.88,-475.35C2074.44,-460.88 2050.54,-438.47 2032.11,-421.19"/>
<polygon fill="black" stroke="black" points="2034.87,-418.99 2025.18,-414.7 2030.08,-424.09 2034.87,-418.99"/>
<text text-anchor="middle" x="2079.5" y="-438.45" font-family="Helvetica,sans-Serif" font-size="14.00">True</text>
</g>
<!-- if_attenuatePearl_trans&#45;&gt;alg_SaveGssSummed_trans -->
<g id="edge27" class="edge">
<title>if_attenuatePearl_trans&#45;&gt;alg_SaveGssSummed_trans</title>
<path fill="none" stroke="black" d="M2109.42,-473.47C2114.26,-450.97 2121.39,-409.42 2117.5,-374 2116.57,-365.56 2114.86,-356.52 2113.01,-348.29"/>
<polygon fill="black" stroke="black" points="2116.47,-347.72 2110.72,-338.82 2109.66,-349.36 2116.47,-347.72"/>
<text text-anchor="middle" x="2136.75" y="-390.57" font-family="Helvetica,sans-Serif" font-size="14.00">False</text>
</g>
</g>
</svg>
