<?xml version="1.0" encoding="UTF-8" standalone="no"?>
<!DOCTYPE svg PUBLIC "-//W3C//DTD SVG 1.1//EN"
 "http://www.w3.org/Graphics/SVG/1.1/DTD/svg11.dtd">
<!-- Generated by graphviz version 7.1.0 (20230122.1345)
 -->
<!-- Title: isisPowderCreateVanadium Pages: 1 -->
<svg width="2695pt" height="768pt"
 viewBox="0.00 0.00 2695.46 767.74" xmlns="http://www.w3.org/2000/svg" xmlns:xlink="http://www.w3.org/1999/xlink">
<g id="graph0" class="graph" transform="scale(1 1) rotate(0) translate(4 763.74)">
<title>isisPowderCreateVanadium</title>
<polygon fill="white" stroke="none" points="-4,4 -4,-763.74 2691.46,-763.74 2691.46,4 -4,4"/>
<text text-anchor="middle" x="1343.73" y="-744.54" font-family="Helvetica,sans-Serif" font-size="14.00">ISISPowder &#45; PEARL Focus Mode saving</text>
<!-- label_focusModeAllPearl -->
<g id="node1" class="node">
<title>label_focusModeAllPearl</title>
<ellipse fill="lightgrey" stroke="black" cx="292" cy="-709.87" rx="81.79" ry="18"/>
<text text-anchor="middle" x="292" y="-706.17" font-family="Helvetica,sans-Serif" font-size="14.00">Focus mode: All</text>
</g>
<!-- alg_MergeRuns_all -->
<g id="node11" class="node">
<title>alg_MergeRuns_all</title>
<path fill="lightskyblue" stroke="black" d="M206,-645C206,-645 12,-645 12,-645 6,-645 0,-639 0,-633 0,-633 0,-621 0,-621 0,-615 6,-609 12,-609 12,-609 206,-609 206,-609 212,-609 218,-615 218,-621 218,-621 218,-633 218,-633 218,-639 212,-645 206,-645"/>
<text text-anchor="middle" x="109" y="-623.3" font-family="Helvetica,sans-Serif" font-size="14.00">Merge Runs: Banks 1&#45;9 (inc.)</text>
</g>
<!-- label_focusModeAllPearl&#45;&gt;alg_MergeRuns_all -->
<g id="edge1" class="edge">
<title>label_focusModeAllPearl&#45;&gt;alg_MergeRuns_all</title>
<path fill="none" stroke="black" d="M256.72,-693.28C228.81,-680.95 189.53,-663.59 158.48,-649.87"/>
<polygon fill="black" stroke="black" points="160.25,-646.82 149.68,-645.98 157.42,-653.22 160.25,-646.82"/>
</g>
<!-- alg_SaveGss_all -->
<g id="node13" class="node">
<title>alg_SaveGss_all</title>
<path fill="lightskyblue" stroke="black" d="M565.5,-646C565.5,-646 248.5,-646 248.5,-646 242.5,-646 236.5,-640 236.5,-634 236.5,-634 236.5,-620 236.5,-620 236.5,-614 242.5,-608 248.5,-608 248.5,-608 565.5,-608 565.5,-608 571.5,-608 577.5,-614 577.5,-620 577.5,-620 577.5,-634 577.5,-634 577.5,-640 571.5,-646 565.5,-646"/>
<text text-anchor="middle" x="407" y="-630.8" font-family="Helvetica,sans-Serif" font-size="14.00">Save GSS: TOF</text>
<text text-anchor="middle" x="407" y="-615.8" font-family="Helvetica,sans-Serif" font-size="14.00"> Appending banks 10&#45;12 (inc.) to merged runs</text>
</g>
<!-- label_focusModeAllPearl&#45;&gt;alg_SaveGss_all -->
<g id="edge9" class="edge">
<title>label_focusModeAllPearl&#45;&gt;alg_SaveGss_all</title>
<path fill="none" stroke="black" d="M315.55,-692.31C331.78,-680.9 353.63,-665.53 371.9,-652.68"/>
<polygon fill="black" stroke="black" points="373.67,-655.71 379.84,-647.1 369.65,-649.99 373.67,-655.71"/>
</g>
<!-- label_focusModeGroupsPearl -->
<g id="node2" class="node">
<title>label_focusModeGroupsPearl</title>
<ellipse fill="lightgrey" stroke="black" cx="1170" cy="-709.87" rx="102.88" ry="18"/>
<text text-anchor="middle" x="1170" y="-706.17" font-family="Helvetica,sans-Serif" font-size="14.00">Focus mode: Groups</text>
</g>
<!-- alg_MergeRuns_groups -->
<g id="node18" class="node">
<title>alg_MergeRuns_groups</title>
<path fill="lightskyblue" stroke="black" d="M1129,-646C1129,-646 935,-646 935,-646 929,-646 923,-640 923,-634 923,-634 923,-620 923,-620 923,-614 929,-608 935,-608 935,-608 1129,-608 1129,-608 1135,-608 1141,-614 1141,-620 1141,-620 1141,-634 1141,-634 1141,-640 1135,-646 1129,-646"/>
<text text-anchor="middle" x="1032" y="-630.8" font-family="Helvetica,sans-Serif" font-size="14.00">Merge Runs: (1&#45;3)/(4&#45;6)/(7&#45;9)</text>
<text text-anchor="middle" x="1032" y="-615.8" font-family="Helvetica,sans-Serif" font-size="14.00"> All inc.</text>
</g>
<!-- label_focusModeGroupsPearl&#45;&gt;alg_MergeRuns_groups -->
<g id="edge11" class="edge">
<title>label_focusModeGroupsPearl&#45;&gt;alg_MergeRuns_groups</title>
<path fill="none" stroke="black" d="M1141.41,-692.11C1121.69,-680.56 1095.18,-665.02 1073.19,-652.14"/>
<polygon fill="black" stroke="black" points="1075.15,-649.23 1064.75,-647.19 1071.61,-655.27 1075.15,-649.23"/>
</g>
<!-- alg_SaveGss_groups -->
<g id="node22" class="node">
<title>alg_SaveGss_groups</title>
<path fill="lightskyblue" stroke="black" d="M1510.5,-646C1510.5,-646 1193.5,-646 1193.5,-646 1187.5,-646 1181.5,-640 1181.5,-634 1181.5,-634 1181.5,-620 1181.5,-620 1181.5,-614 1187.5,-608 1193.5,-608 1193.5,-608 1510.5,-608 1510.5,-608 1516.5,-608 1522.5,-614 1522.5,-620 1522.5,-620 1522.5,-634 1522.5,-634 1522.5,-640 1516.5,-646 1510.5,-646"/>
<text text-anchor="middle" x="1352" y="-630.8" font-family="Helvetica,sans-Serif" font-size="14.00">Save GSS: TOF</text>
<text text-anchor="middle" x="1352" y="-615.8" font-family="Helvetica,sans-Serif" font-size="14.00"> Appending banks 10&#45;14 (inc.) to merged runs</text>
</g>
<!-- label_focusModeGroupsPearl&#45;&gt;alg_SaveGss_groups -->
<g id="edge18" class="edge">
<title>label_focusModeGroupsPearl&#45;&gt;alg_SaveGss_groups</title>
<path fill="none" stroke="black" d="M1206.39,-692.7C1233.3,-680.74 1270.32,-664.29 1300.3,-650.97"/>
<polygon fill="black" stroke="black" points="1301.48,-654.28 1309.2,-647.02 1298.64,-647.88 1301.48,-654.28"/>
</g>
<!-- label_focusModeModsPearl -->
<g id="node3" class="node">
<title>label_focusModeModsPearl</title>
<ellipse fill="lightgrey" stroke="black" cx="1669" cy="-709.87" rx="94.78" ry="18"/>
<text text-anchor="middle" x="1669" y="-706.17" font-family="Helvetica,sans-Serif" font-size="14.00">Focus mode: Mods</text>
</g>
<!-- alg_SaveGss_mods -->
<g id="node25" class="node">
<title>alg_SaveGss_mods</title>
<path fill="lightskyblue" stroke="black" d="M1763.5,-646C1763.5,-646 1574.5,-646 1574.5,-646 1568.5,-646 1562.5,-640 1562.5,-634 1562.5,-634 1562.5,-620 1562.5,-620 1562.5,-614 1568.5,-608 1574.5,-608 1574.5,-608 1763.5,-608 1763.5,-608 1769.5,-608 1775.5,-614 1775.5,-620 1775.5,-620 1775.5,-634 1775.5,-634 1775.5,-640 1769.5,-646 1763.5,-646"/>
<text text-anchor="middle" x="1669" y="-630.8" font-family="Helvetica,sans-Serif" font-size="14.00">Save GSS: TOF</text>
<text text-anchor="middle" x="1669" y="-615.8" font-family="Helvetica,sans-Serif" font-size="14.00"> Appending each workspace</text>
</g>
<!-- label_focusModeModsPearl&#45;&gt;alg_SaveGss_mods -->
<g id="edge20" class="edge">
<title>label_focusModeModsPearl&#45;&gt;alg_SaveGss_mods</title>
<path fill="none" stroke="black" d="M1669,-691.72C1669,-681.81 1669,-669.07 1669,-657.59"/>
<polygon fill="black" stroke="black" points="1672.5,-657.76 1669,-647.76 1665.5,-657.76 1672.5,-657.76"/>
</g>
<!-- label_focusModeTransPearl -->
<g id="node4" class="node">
<title>label_focusModeTransPearl</title>
<ellipse fill="lightgrey" stroke="black" cx="1903" cy="-709.87" rx="94.78" ry="18"/>
<text text-anchor="middle" x="1903" y="-706.17" font-family="Helvetica,sans-Serif" font-size="14.00">Focus mode: Trans</text>
</g>
<!-- alg_MergeRuns_trans -->
<g id="node27" class="node">
<title>alg_MergeRuns_trans</title>
<path fill="lightskyblue" stroke="black" d="M2000,-645C2000,-645 1806,-645 1806,-645 1800,-645 1794,-639 1794,-633 1794,-633 1794,-621 1794,-621 1794,-615 1800,-609 1806,-609 1806,-609 2000,-609 2000,-609 2006,-609 2012,-615 2012,-621 2012,-621 2012,-633 2012,-633 2012,-639 2006,-645 2000,-645"/>
<text text-anchor="middle" x="1903" y="-623.3" font-family="Helvetica,sans-Serif" font-size="14.00">Merge Runs: Banks 1&#45;9 (inc.)</text>
</g>
<!-- label_focusModeTransPearl&#45;&gt;alg_MergeRuns_trans -->
<g id="edge22" class="edge">
<title>label_focusModeTransPearl&#45;&gt;alg_MergeRuns_trans</title>
<path fill="none" stroke="black" d="M1903,-691.72C1903,-681.6 1903,-668.54 1903,-656.87"/>
<polygon fill="black" stroke="black" points="1906.5,-656.92 1903,-646.92 1899.5,-656.92 1906.5,-656.92"/>
</g>
<!-- label_attenuateWorkspacePearl -->
<g id="node5" class="node">
<title>label_attenuateWorkspacePearl</title>
<ellipse fill="lightgrey" stroke="black" cx="2232" cy="-709.87" rx="106.68" ry="18"/>
<text text-anchor="middle" x="2232" y="-706.17" font-family="Helvetica,sans-Serif" font-size="14.00">Attenuate Workspace</text>
</g>
<!-- alg_PearlMCAbsorption -->
<g id="node38" class="node">
<title>alg_PearlMCAbsorption</title>
<path fill="lightskyblue" stroke="black" d="M2415.5,-645C2415.5,-645 2290.5,-645 2290.5,-645 2284.5,-645 2278.5,-639 2278.5,-633 2278.5,-633 2278.5,-621 2278.5,-621 2278.5,-615 2284.5,-609 2290.5,-609 2290.5,-609 2415.5,-609 2415.5,-609 2421.5,-609 2427.5,-615 2427.5,-621 2427.5,-621 2427.5,-633 2427.5,-633 2427.5,-639 2421.5,-645 2415.5,-645"/>
<text text-anchor="middle" x="2353" y="-623.3" font-family="Helvetica,sans-Serif" font-size="14.00">PearlMCAbsorption</text>
</g>
<!-- label_attenuateWorkspacePearl&#45;&gt;alg_PearlMCAbsorption -->
<g id="edge33" class="edge">
<title>label_attenuateWorkspacePearl&#45;&gt;alg_PearlMCAbsorption</title>
<path fill="none" stroke="black" d="M2257.37,-691.92C2274.79,-680.27 2298.18,-664.64 2317.46,-651.75"/>
<polygon fill="black" stroke="black" points="2319.2,-654.8 2325.57,-646.33 2315.31,-648.98 2319.2,-654.8"/>
</g>
<!-- param_attenuatePearl_all -->
<g id="node6" class="node">
<title>param_attenuatePearl_all</title>
<ellipse fill="khaki" stroke="black" cx="706" cy="-552" rx="113.18" ry="18"/>
<text text-anchor="middle" x="706" y="-548.3" font-family="Helvetica,sans-Serif" font-size="14.00">User param: attenuate</text>
</g>
<!-- if_attenuatePearl_all -->
<g id="node40" class="node">
<title>if_attenuatePearl_all</title>
<polygon fill="limegreen" stroke="black" points="694,-495 601.33,-477 694,-459 786.67,-477 694,-495"/>
<text text-anchor="middle" x="694" y="-473.3" font-family="Helvetica,sans-Serif" font-size="14.00">If: attenuate</text>
</g>
<!-- param_attenuatePearl_all&#45;&gt;if_attenuatePearl_all -->
<g id="edge4" class="edge">
<title>param_attenuatePearl_all&#45;&gt;if_attenuatePearl_all</title>
<path fill="none" stroke="black" d="M703.16,-533.7C701.8,-525.46 700.15,-515.39 698.62,-506.09"/>
<polygon fill="black" stroke="black" points="702.1,-505.72 697.03,-496.42 695.2,-506.85 702.1,-505.72"/>
</g>
<!-- param_attenuatePearl_trans -->
<g id="node7" class="node">
<title>param_attenuatePearl_trans</title>
<ellipse fill="khaki" stroke="black" cx="2127" cy="-552" rx="113.18" ry="18"/>
<text text-anchor="middle" x="2127" y="-548.3" font-family="Helvetica,sans-Serif" font-size="14.00">User param: attenuate</text>
</g>
<!-- if_attenuatePearl_trans -->
<g id="node41" class="node">
<title>if_attenuatePearl_trans</title>
<polygon fill="limegreen" stroke="black" points="2024,-495 1931.33,-477 2024,-459 2116.67,-477 2024,-495"/>
<text text-anchor="middle" x="2024" y="-473.3" font-family="Helvetica,sans-Serif" font-size="14.00">If: attenuate</text>
</g>
<!-- param_attenuatePearl_trans&#45;&gt;if_attenuatePearl_trans -->
<g id="edge25" class="edge">
<title>param_attenuatePearl_trans&#45;&gt;if_attenuatePearl_trans</title>
<path fill="none" stroke="black" d="M2103.11,-534.07C2088.05,-523.4 2068.52,-509.55 2052.63,-498.29"/>
<polygon fill="black" stroke="black" points="2054.7,-495.47 2044.52,-492.54 2050.65,-501.18 2054.7,-495.47"/>
</g>
<!-- param_attenuatePearlFilePath -->
<g id="node8" class="node">
<title>param_attenuatePearlFilePath</title>
<ellipse fill="khaki" stroke="black" cx="2522" cy="-709.87" rx="165.43" ry="26.74"/>
<text text-anchor="middle" x="2522" y="-713.67" font-family="Helvetica,sans-Serif" font-size="14.00">User param:</text>
<text text-anchor="middle" x="2522" y="-698.67" font-family="Helvetica,sans-Serif" font-size="14.00"> Full file path to attenuation file</text>
</g>
<!-- param_attenuatePearlFilePath&#45;&gt;alg_PearlMCAbsorption -->
<g id="edge34" class="edge">
<title>param_attenuatePearlFilePath&#45;&gt;alg_PearlMCAbsorption</title>
<path fill="none" stroke="black" d="M2470.38,-684.17C2447.75,-673.34 2421.4,-660.73 2399.4,-650.21"/>
<polygon fill="black" stroke="black" points="2401.21,-647.19 2390.68,-646.03 2398.19,-653.5 2401.21,-647.19"/>
</g>
<!-- proc_attenuatePearl_all -->
<g id="node9" class="node">
<title>proc_attenuatePearl_all</title>
<polygon fill="lightseagreen" stroke="black" points="778,-406 572,-406 572,-370 778,-370 778,-406"/>
<text text-anchor="middle" x="675" y="-384.3" font-family="Helvetica,sans-Serif" font-size="14.00">Pearl: Attenuate workspace</text>
</g>
<!-- alg_SaveGssSummed_all -->
<g id="node14" class="node">
<title>alg_SaveGssSummed_all</title>
<path fill="lightskyblue" stroke="black" d="M768,-332C768,-332 672,-332 672,-332 666,-332 660,-326 660,-320 660,-320 660,-308 660,-308 660,-302 666,-296 672,-296 672,-296 768,-296 768,-296 774,-296 780,-302 780,-308 780,-308 780,-320 780,-320 780,-326 774,-332 768,-332"/>
<text text-anchor="middle" x="720" y="-310.3" font-family="Helvetica,sans-Serif" font-size="14.00">Save GSS: TOF</text>
</g>
<!-- proc_attenuatePearl_all&#45;&gt;alg_SaveGssSummed_all -->
<g id="edge6" class="edge">
<title>proc_attenuatePearl_all&#45;&gt;alg_SaveGssSummed_all</title>
<path fill="none" stroke="black" d="M685.89,-369.57C691.09,-361.26 697.42,-351.12 703.21,-341.86"/>
<polygon fill="black" stroke="black" points="706.07,-343.89 708.4,-333.55 700.14,-340.18 706.07,-343.89"/>
</g>
<!-- proc_attenuatePearl_trans -->
<g id="node10" class="node">
<title>proc_attenuatePearl_trans</title>
<polygon fill="lightseagreen" stroke="black" points="2061,-406 1855,-406 1855,-370 2061,-370 2061,-406"/>
<text text-anchor="middle" x="1958" y="-384.3" font-family="Helvetica,sans-Serif" font-size="14.00">Pearl: Attenuate workspace</text>
</g>
<!-- alg_SaveGssSummed_trans -->
<g id="node29" class="node">
<title>alg_SaveGssSummed_trans</title>
<path fill="lightskyblue" stroke="black" d="M2075,-332C2075,-332 1979,-332 1979,-332 1973,-332 1967,-326 1967,-320 1967,-320 1967,-308 1967,-308 1967,-302 1973,-296 1979,-296 1979,-296 2075,-296 2075,-296 2081,-296 2087,-302 2087,-308 2087,-308 2087,-320 2087,-320 2087,-326 2081,-332 2075,-332"/>
<text text-anchor="middle" x="2027" y="-310.3" font-family="Helvetica,sans-Serif" font-size="14.00">Save GSS: TOF</text>
</g>
<!-- proc_attenuatePearl_trans&#45;&gt;alg_SaveGssSummed_trans -->
<g id="edge28" class="edge">
<title>proc_attenuatePearl_trans&#45;&gt;alg_SaveGssSummed_trans</title>
<path fill="none" stroke="black" d="M1974.7,-369.57C1983.09,-360.82 1993.42,-350.04 2002.67,-340.39"/>
<polygon fill="black" stroke="black" points="2005.01,-343 2009.4,-333.36 1999.96,-338.16 2005.01,-343"/>
</g>
<!-- alg_Scale_all -->
<g id="node12" class="node">
<title>alg_Scale_all</title>
<path fill="lightskyblue" stroke="black" d="M201.5,-570C201.5,-570 40.5,-570 40.5,-570 34.5,-570 28.5,-564 28.5,-558 28.5,-558 28.5,-546 28.5,-546 28.5,-540 34.5,-534 40.5,-534 40.5,-534 201.5,-534 201.5,-534 207.5,-534 213.5,-540 213.5,-546 213.5,-546 213.5,-558 213.5,-558 213.5,-564 207.5,-570 201.5,-570"/>
<text text-anchor="middle" x="121" y="-548.3" font-family="Helvetica,sans-Serif" font-size="14.00">Scale: 0.11111111 (1/9)</text>
</g>
<!-- alg_MergeRuns_all&#45;&gt;alg_Scale_all -->
<g id="edge2" class="edge">
<title>alg_MergeRuns_all&#45;&gt;alg_Scale_all</title>
<path fill="none" stroke="black" d="M111.84,-608.7C113.18,-600.58 114.81,-590.68 116.32,-581.5"/>
<polygon fill="black" stroke="black" points="119.72,-582.36 117.89,-571.92 112.81,-581.22 119.72,-582.36"/>
</g>
<!-- alg_Scale_all&#45;&gt;if_attenuatePearl_all -->
<g id="edge3" class="edge">
<title>alg_Scale_all&#45;&gt;if_attenuatePearl_all</title>
<path fill="none" stroke="black" d="M213.88,-534.52C217.3,-533.99 220.68,-533.48 224,-533 365.11,-512.43 530.94,-494.47 623.09,-485.04"/>
<polygon fill="black" stroke="black" points="623.4,-488.52 633,-484.03 622.69,-481.56 623.4,-488.52"/>
</g>
<!-- alg_SaveNexusProcessed_all -->
<g id="node16" class="node">
<title>alg_SaveNexusProcessed_all</title>
<path fill="lightskyblue" stroke="black" d="M562.5,-571C562.5,-571 245.5,-571 245.5,-571 239.5,-571 233.5,-565 233.5,-559 233.5,-559 233.5,-545 233.5,-545 233.5,-539 239.5,-533 245.5,-533 245.5,-533 562.5,-533 562.5,-533 568.5,-533 574.5,-539 574.5,-545 574.5,-545 574.5,-559 574.5,-559 574.5,-565 568.5,-571 562.5,-571"/>
<text text-anchor="middle" x="404" y="-555.8" font-family="Helvetica,sans-Serif" font-size="14.00">Save Nexus Processed: dSpacing</text>
<text text-anchor="middle" x="404" y="-540.8" font-family="Helvetica,sans-Serif" font-size="14.00"> Appending banks 10&#45;12 (inc.) to merged runs</text>
</g>
<!-- alg_SaveGss_all&#45;&gt;alg_SaveNexusProcessed_all -->
<g id="edge10" class="edge">
<title>alg_SaveGss_all&#45;&gt;alg_SaveNexusProcessed_all</title>
<path fill="none" stroke="black" d="M406.24,-607.58C405.93,-600.06 405.57,-591.17 405.22,-582.77"/>
<polygon fill="black" stroke="black" points="408.73,-582.78 404.82,-572.93 401.73,-583.06 408.73,-582.78"/>
</g>
<!-- alg_SaveNexusProcessedSummed_all -->
<g id="node15" class="node">
<title>alg_SaveNexusProcessedSummed_all</title>
<path fill="lightskyblue" stroke="black" d="M831,-258C831,-258 609,-258 609,-258 603,-258 597,-252 597,-246 597,-246 597,-234 597,-234 597,-228 603,-222 609,-222 609,-222 831,-222 831,-222 837,-222 843,-228 843,-234 843,-234 843,-246 843,-246 843,-252 837,-258 831,-258"/>
<text text-anchor="middle" x="720" y="-236.3" font-family="Helvetica,sans-Serif" font-size="14.00">Save Nexus Processed: dSpacing</text>
</g>
<!-- alg_SaveGssSummed_all&#45;&gt;alg_SaveNexusProcessedSummed_all -->
<g id="edge8" class="edge">
<title>alg_SaveGssSummed_all&#45;&gt;alg_SaveNexusProcessedSummed_all</title>
<path fill="none" stroke="black" d="M720,-295.57C720,-287.79 720,-278.41 720,-269.64"/>
<polygon fill="black" stroke="black" points="723.5,-269.78 720,-259.78 716.5,-269.78 723.5,-269.78"/>
</g>
<!-- alg_Plus_groups -->
<g id="node17" class="node">
<title>alg_Plus_groups</title>
<path fill="lightskyblue" stroke="black" d="M1015,-495C1015,-495 857,-495 857,-495 851,-495 845,-489 845,-483 845,-483 845,-471 845,-471 845,-465 851,-459 857,-459 857,-459 1015,-459 1015,-459 1021,-459 1027,-465 1027,-471 1027,-471 1027,-483 1027,-483 1027,-489 1021,-495 1015,-495"/>
<text text-anchor="middle" x="936" y="-473.3" font-family="Helvetica,sans-Serif" font-size="14.00">Plus: Runs (4&#45;6) + (7&#45;9)</text>
</g>
<!-- alg_ScaleHalf_groups -->
<g id="node20" class="node">
<title>alg_ScaleHalf_groups</title>
<path fill="lightskyblue" stroke="black" d="M1007,-406C1007,-406 909,-406 909,-406 903,-406 897,-400 897,-394 897,-394 897,-382 897,-382 897,-376 903,-370 909,-370 909,-370 1007,-370 1007,-370 1013,-370 1019,-376 1019,-382 1019,-382 1019,-394 1019,-394 1019,-400 1013,-406 1007,-406"/>
<text text-anchor="middle" x="958" y="-384.3" font-family="Helvetica,sans-Serif" font-size="14.00">Scale: 0.5 (1/2)</text>
</g>
<!-- alg_Plus_groups&#45;&gt;alg_ScaleHalf_groups -->
<g id="edge14" class="edge">
<title>alg_Plus_groups&#45;&gt;alg_ScaleHalf_groups</title>
<path fill="none" stroke="black" d="M940.35,-458.81C943.34,-446.97 947.39,-430.97 950.85,-417.27"/>
<polygon fill="black" stroke="black" points="954.16,-418.47 953.22,-407.92 947.37,-416.75 954.16,-418.47"/>
</g>
<!-- alg_Scale_groups -->
<g id="node19" class="node">
<title>alg_Scale_groups</title>
<path fill="lightskyblue" stroke="black" d="M1156,-570C1156,-570 874,-570 874,-570 868,-570 862,-564 862,-558 862,-558 862,-546 862,-546 862,-540 868,-534 874,-534 874,-534 1156,-534 1156,-534 1162,-534 1168,-540 1168,-546 1168,-546 1168,-558 1168,-558 1168,-564 1162,-570 1156,-570"/>
<text text-anchor="middle" x="1015" y="-548.3" font-family="Helvetica,sans-Serif" font-size="14.00">Scale: Each workspace by 0.333333 (1/3)</text>
</g>
<!-- alg_MergeRuns_groups&#45;&gt;alg_Scale_groups -->
<g id="edge12" class="edge">
<title>alg_MergeRuns_groups&#45;&gt;alg_Scale_groups</title>
<path fill="none" stroke="black" d="M1027.71,-607.58C1025.86,-599.65 1023.66,-590.2 1021.61,-581.4"/>
<polygon fill="black" stroke="black" points="1025.07,-580.83 1019.4,-571.88 1018.26,-582.42 1025.07,-580.83"/>
</g>
<!-- alg_Scale_groups&#45;&gt;alg_Plus_groups -->
<g id="edge13" class="edge">
<title>alg_Scale_groups&#45;&gt;alg_Plus_groups</title>
<path fill="none" stroke="black" d="M996.28,-533.7C986.41,-524.58 974.13,-513.24 963.23,-503.16"/>
<polygon fill="black" stroke="black" points="965.69,-500.67 955.97,-496.46 960.94,-505.81 965.69,-500.67"/>
</g>
<!-- alg_SaveGssSummed_groups -->
<g id="node21" class="node">
<title>alg_SaveGssSummed_groups</title>
<path fill="lightskyblue" stroke="black" d="M1086,-332C1086,-332 990,-332 990,-332 984,-332 978,-326 978,-320 978,-320 978,-308 978,-308 978,-302 984,-296 990,-296 990,-296 1086,-296 1086,-296 1092,-296 1098,-302 1098,-308 1098,-308 1098,-320 1098,-320 1098,-326 1092,-332 1086,-332"/>
<text text-anchor="middle" x="1038" y="-310.3" font-family="Helvetica,sans-Serif" font-size="14.00">Save GSS: TOF</text>
</g>
<!-- alg_Scale_groups&#45;&gt;alg_SaveGssSummed_groups -->
<g id="edge15" class="edge">
<title>alg_Scale_groups&#45;&gt;alg_SaveGssSummed_groups</title>
<path fill="none" stroke="black" d="M1023.45,-533.63C1028.14,-523.03 1033.52,-509.05 1036,-496 1046.1,-442.88 1043.53,-379.41 1040.75,-343.49"/>
<polygon fill="black" stroke="black" points="1044.28,-343.6 1039.95,-333.93 1037.3,-344.19 1044.28,-343.6"/>
</g>
<!-- alg_ScaleHalf_groups&#45;&gt;alg_SaveGssSummed_groups -->
<g id="edge16" class="edge">
<title>alg_ScaleHalf_groups&#45;&gt;alg_SaveGssSummed_groups</title>
<path fill="none" stroke="black" d="M977.37,-369.57C987.29,-360.64 999.55,-349.61 1010.44,-339.8"/>
<polygon fill="black" stroke="black" points="1012.6,-342.57 1017.69,-333.28 1007.91,-337.37 1012.6,-342.57"/>
</g>
<!-- alg_SaveNexusProcessedSummed_groups -->
<g id="node23" class="node">
<title>alg_SaveNexusProcessedSummed_groups</title>
<path fill="lightskyblue" stroke="black" d="M1149,-258C1149,-258 927,-258 927,-258 921,-258 915,-252 915,-246 915,-246 915,-234 915,-234 915,-228 921,-222 927,-222 927,-222 1149,-222 1149,-222 1155,-222 1161,-228 1161,-234 1161,-234 1161,-246 1161,-246 1161,-252 1155,-258 1149,-258"/>
<text text-anchor="middle" x="1038" y="-236.3" font-family="Helvetica,sans-Serif" font-size="14.00">Save Nexus Processed: dSpacing</text>
</g>
<!-- alg_SaveGssSummed_groups&#45;&gt;alg_SaveNexusProcessedSummed_groups -->
<g id="edge17" class="edge">
<title>alg_SaveGssSummed_groups&#45;&gt;alg_SaveNexusProcessedSummed_groups</title>
<path fill="none" stroke="black" d="M1038,-295.57C1038,-287.79 1038,-278.41 1038,-269.64"/>
<polygon fill="black" stroke="black" points="1041.5,-269.78 1038,-259.78 1034.5,-269.78 1041.5,-269.78"/>
</g>
<!-- alg_SaveNexusProcessed_groups -->
<g id="node24" class="node">
<title>alg_SaveNexusProcessed_groups</title>
<path fill="lightskyblue" stroke="black" d="M1515.5,-571C1515.5,-571 1198.5,-571 1198.5,-571 1192.5,-571 1186.5,-565 1186.5,-559 1186.5,-559 1186.5,-545 1186.5,-545 1186.5,-539 1192.5,-533 1198.5,-533 1198.5,-533 1515.5,-533 1515.5,-533 1521.5,-533 1527.5,-539 1527.5,-545 1527.5,-545 1527.5,-559 1527.5,-559 1527.5,-565 1521.5,-571 1515.5,-571"/>
<text text-anchor="middle" x="1357" y="-555.8" font-family="Helvetica,sans-Serif" font-size="14.00">Save Nexus Processed: dSpacing</text>
<text text-anchor="middle" x="1357" y="-540.8" font-family="Helvetica,sans-Serif" font-size="14.00"> Appending banks 10&#45;14 (inc.) to merged runs</text>
</g>
<!-- alg_SaveGss_groups&#45;&gt;alg_SaveNexusProcessed_groups -->
<g id="edge19" class="edge">
<title>alg_SaveGss_groups&#45;&gt;alg_SaveNexusProcessed_groups</title>
<path fill="none" stroke="black" d="M1353.26,-607.58C1353.78,-600.06 1354.39,-591.17 1354.96,-582.77"/>
<polygon fill="black" stroke="black" points="1358.44,-583.14 1355.64,-572.93 1351.46,-582.66 1358.44,-583.14"/>
</g>
<!-- alg_SaveNexusProcessed_mods -->
<g id="node26" class="node">
<title>alg_SaveNexusProcessed_mods</title>
<path fill="lightskyblue" stroke="black" d="M1780,-571C1780,-571 1558,-571 1558,-571 1552,-571 1546,-565 1546,-559 1546,-559 1546,-545 1546,-545 1546,-539 1552,-533 1558,-533 1558,-533 1780,-533 1780,-533 1786,-533 1792,-539 1792,-545 1792,-545 1792,-559 1792,-559 1792,-565 1786,-571 1780,-571"/>
<text text-anchor="middle" x="1669" y="-555.8" font-family="Helvetica,sans-Serif" font-size="14.00">Save Nexus Processed: dSpacing</text>
<text text-anchor="middle" x="1669" y="-540.8" font-family="Helvetica,sans-Serif" font-size="14.00"> Appending each workspace</text>
</g>
<!-- alg_SaveGss_mods&#45;&gt;alg_SaveNexusProcessed_mods -->
<g id="edge21" class="edge">
<title>alg_SaveGss_mods&#45;&gt;alg_SaveNexusProcessed_mods</title>
<path fill="none" stroke="black" d="M1669,-607.58C1669,-600.06 1669,-591.17 1669,-582.77"/>
<polygon fill="black" stroke="black" points="1672.5,-582.93 1669,-572.93 1665.5,-582.93 1672.5,-582.93"/>
</g>
<!-- alg_Scale_trans -->
<g id="node28" class="node">
<title>alg_Scale_trans</title>
<path fill="lightskyblue" stroke="black" d="M1983.5,-570C1983.5,-570 1822.5,-570 1822.5,-570 1816.5,-570 1810.5,-564 1810.5,-558 1810.5,-558 1810.5,-546 1810.5,-546 1810.5,-540 1816.5,-534 1822.5,-534 1822.5,-534 1983.5,-534 1983.5,-534 1989.5,-534 1995.5,-540 1995.5,-546 1995.5,-546 1995.5,-558 1995.5,-558 1995.5,-564 1989.5,-570 1983.5,-570"/>
<text text-anchor="middle" x="1903" y="-548.3" font-family="Helvetica,sans-Serif" font-size="14.00">Scale: 0.11111111 (1/9)</text>
</g>
<!-- alg_MergeRuns_trans&#45;&gt;alg_Scale_trans -->
<g id="edge23" class="edge">
<title>alg_MergeRuns_trans&#45;&gt;alg_Scale_trans</title>
<path fill="none" stroke="black" d="M1903,-608.7C1903,-600.67 1903,-590.9 1903,-581.8"/>
<polygon fill="black" stroke="black" points="1906.5,-581.94 1903,-571.94 1899.5,-581.94 1906.5,-581.94"/>
</g>
<!-- alg_Scale_trans&#45;&gt;if_attenuatePearl_trans -->
<g id="edge24" class="edge">
<title>alg_Scale_trans&#45;&gt;if_attenuatePearl_trans</title>
<path fill="none" stroke="black" d="M1931.98,-533.51C1950.15,-522.55 1973.58,-508.42 1992.25,-497.15"/>
<polygon fill="black" stroke="black" points="1994.02,-500.17 2000.78,-492.01 1990.41,-494.18 1994.02,-500.17"/>
</g>
<!-- alg_SaveFocusedXyeTOFSummed_trans -->
<g id="node31" class="node">
<title>alg_SaveFocusedXyeTOFSummed_trans</title>
<path fill="lightskyblue" stroke="black" d="M2105,-258C2105,-258 1949,-258 1949,-258 1943,-258 1937,-252 1937,-246 1937,-246 1937,-234 1937,-234 1937,-228 1943,-222 1949,-222 1949,-222 2105,-222 2105,-222 2111,-222 2117,-228 2117,-234 2117,-234 2117,-246 2117,-246 2117,-252 2111,-258 2105,-258"/>
<text text-anchor="middle" x="2027" y="-236.3" font-family="Helvetica,sans-Serif" font-size="14.00">Save Focused XYE: TOF</text>
</g>
<!-- alg_SaveGssSummed_trans&#45;&gt;alg_SaveFocusedXyeTOFSummed_trans -->
<g id="edge29" class="edge">
<title>alg_SaveGssSummed_trans&#45;&gt;alg_SaveFocusedXyeTOFSummed_trans</title>
<path fill="none" stroke="black" d="M2027,-295.57C2027,-287.79 2027,-278.41 2027,-269.64"/>
<polygon fill="black" stroke="black" points="2030.5,-269.78 2027,-259.78 2023.5,-269.78 2030.5,-269.78"/>
</g>
<!-- alg_SaveFocusedXyeDSummed_trans -->
<g id="node30" class="node">
<title>alg_SaveFocusedXyeDSummed_trans</title>
<path fill="lightskyblue" stroke="black" d="M2123.5,-184C2123.5,-184 1930.5,-184 1930.5,-184 1924.5,-184 1918.5,-178 1918.5,-172 1918.5,-172 1918.5,-160 1918.5,-160 1918.5,-154 1924.5,-148 1930.5,-148 1930.5,-148 2123.5,-148 2123.5,-148 2129.5,-148 2135.5,-154 2135.5,-160 2135.5,-160 2135.5,-172 2135.5,-172 2135.5,-178 2129.5,-184 2123.5,-184"/>
<text text-anchor="middle" x="2027" y="-162.3" font-family="Helvetica,sans-Serif" font-size="14.00">Save Focused XYE: dSpacing</text>
</g>
<!-- alg_SaveNexusProcessedSummed_trans -->
<g id="node32" class="node">
<title>alg_SaveNexusProcessedSummed_trans</title>
<path fill="lightskyblue" stroke="black" d="M2138,-111C2138,-111 1916,-111 1916,-111 1910,-111 1904,-105 1904,-99 1904,-99 1904,-87 1904,-87 1904,-81 1910,-75 1916,-75 1916,-75 2138,-75 2138,-75 2144,-75 2150,-81 2150,-87 2150,-87 2150,-99 2150,-99 2150,-105 2144,-111 2138,-111"/>
<text text-anchor="middle" x="2027" y="-89.3" font-family="Helvetica,sans-Serif" font-size="14.00">Save Nexus Processed: dSpacing</text>
</g>
<!-- alg_SaveFocusedXyeDSummed_trans&#45;&gt;alg_SaveNexusProcessedSummed_trans -->
<g id="edge31" class="edge">
<title>alg_SaveFocusedXyeDSummed_trans&#45;&gt;alg_SaveNexusProcessedSummed_trans</title>
<path fill="none" stroke="black" d="M2027,-147.81C2027,-140.23 2027,-131.1 2027,-122.54"/>
<polygon fill="black" stroke="black" points="2030.5,-122.54 2027,-112.54 2023.5,-122.54 2030.5,-122.54"/>
</g>
<!-- alg_SaveFocusedXyeTOFSummed_trans&#45;&gt;alg_SaveFocusedXyeDSummed_trans -->
<g id="edge30" class="edge">
<title>alg_SaveFocusedXyeTOFSummed_trans&#45;&gt;alg_SaveFocusedXyeDSummed_trans</title>
<path fill="none" stroke="black" d="M2027,-221.57C2027,-213.79 2027,-204.41 2027,-195.64"/>
<polygon fill="black" stroke="black" points="2030.5,-195.78 2027,-185.78 2023.5,-195.78 2030.5,-195.78"/>
</g>
<!-- alg_SaveNexusProcessed_trans -->
<g id="node33" class="node">
<title>alg_SaveNexusProcessed_trans</title>
<path fill="lightskyblue" stroke="black" d="M2181,-38C2181,-38 1873,-38 1873,-38 1867,-38 1861,-32 1861,-26 1861,-26 1861,-12 1861,-12 1861,-6 1867,0 1873,0 1873,0 2181,0 2181,0 2187,0 2193,-6 2193,-12 2193,-12 2193,-26 2193,-26 2193,-32 2187,-38 2181,-38"/>
<text text-anchor="middle" x="2027" y="-22.8" font-family="Helvetica,sans-Serif" font-size="14.00">Save Nexus Processed: dSpacing</text>
<text text-anchor="middle" x="2027" y="-7.8" font-family="Helvetica,sans-Serif" font-size="14.00"> Appending banks 1&#45;10 (inc.) to merged runs</text>
</g>
<!-- alg_SaveNexusProcessedSummed_trans&#45;&gt;alg_SaveNexusProcessed_trans -->
<g id="edge32" class="edge">
<title>alg_SaveNexusProcessedSummed_trans&#45;&gt;alg_SaveNexusProcessed_trans</title>
<path fill="none" stroke="black" d="M2027,-74.57C2027,-67.1 2027,-58.17 2027,-49.71"/>
<polygon fill="black" stroke="black" points="2030.5,-49.79 2027,-39.79 2023.5,-49.79 2030.5,-49.79"/>
</g>
<!-- alg_ConvertToHistogram -->
<g id="node34" class="node">
<title>alg_ConvertToHistogram</title>
<path fill="lightskyblue" stroke="black" d="M2424.5,-570C2424.5,-570 2281.5,-570 2281.5,-570 2275.5,-570 2269.5,-564 2269.5,-558 2269.5,-558 2269.5,-546 2269.5,-546 2269.5,-540 2275.5,-534 2281.5,-534 2281.5,-534 2424.5,-534 2424.5,-534 2430.5,-534 2436.5,-540 2436.5,-546 2436.5,-546 2436.5,-558 2436.5,-558 2436.5,-564 2430.5,-570 2424.5,-570"/>
<text text-anchor="middle" x="2353" y="-548.3" font-family="Helvetica,sans-Serif" font-size="14.00">Convert To Histogram</text>
</g>
<!-- alg_ConvertUnits -->
<g id="node35" class="node">
<title>alg_ConvertUnits</title>
<path fill="lightskyblue" stroke="black" d="M2493,-496C2493,-496 2213,-496 2213,-496 2207,-496 2201,-490 2201,-484 2201,-484 2201,-470 2201,-470 2201,-464 2207,-458 2213,-458 2213,-458 2493,-458 2493,-458 2499,-458 2505,-464 2505,-470 2505,-470 2505,-484 2505,-484 2505,-490 2499,-496 2493,-496"/>
<text text-anchor="middle" x="2353" y="-480.8" font-family="Helvetica,sans-Serif" font-size="14.00">Convert Units:</text>
<text text-anchor="middle" x="2353" y="-465.8" font-family="Helvetica,sans-Serif" font-size="14.00"> Match the loaded attenuation workspace</text>
</g>
<!-- alg_ConvertToHistogram&#45;&gt;alg_ConvertUnits -->
<g id="edge36" class="edge">
<title>alg_ConvertToHistogram&#45;&gt;alg_ConvertUnits</title>
<path fill="none" stroke="black" d="M2353,-533.7C2353,-525.99 2353,-516.68 2353,-507.9"/>
<polygon fill="black" stroke="black" points="2356.5,-507.97 2353,-497.97 2349.5,-507.97 2356.5,-507.97"/>
</g>
<!-- alg_RebinWorkspace -->
<g id="node39" class="node">
<title>alg_RebinWorkspace</title>
<path fill="lightskyblue" stroke="black" d="M2536.5,-407C2536.5,-407 2169.5,-407 2169.5,-407 2163.5,-407 2157.5,-401 2157.5,-395 2157.5,-395 2157.5,-381 2157.5,-381 2157.5,-375 2163.5,-369 2169.5,-369 2169.5,-369 2536.5,-369 2536.5,-369 2542.5,-369 2548.5,-375 2548.5,-381 2548.5,-381 2548.5,-395 2548.5,-395 2548.5,-401 2542.5,-407 2536.5,-407"/>
<text text-anchor="middle" x="2353" y="-391.8" font-family="Helvetica,sans-Serif" font-size="14.00">Rebin:</text>
<text text-anchor="middle" x="2353" y="-376.8" font-family="Helvetica,sans-Serif" font-size="14.00"> Attenuated workspace to match workspace to correct</text>
</g>
<!-- alg_ConvertUnits&#45;&gt;alg_RebinWorkspace -->
<g id="edge37" class="edge">
<title>alg_ConvertUnits&#45;&gt;alg_RebinWorkspace</title>
<path fill="none" stroke="black" d="M2353,-457.55C2353,-446.25 2353,-431.52 2353,-418.61"/>
<polygon fill="black" stroke="black" points="2356.5,-418.94 2353,-408.94 2349.5,-418.94 2356.5,-418.94"/>
</g>
<!-- alg_ConvertUnitsOriginal -->
<g id="node36" class="node">
<title>alg_ConvertUnitsOriginal</title>
<path fill="lightskyblue" stroke="black" d="M2445.5,-259C2445.5,-259 2260.5,-259 2260.5,-259 2254.5,-259 2248.5,-253 2248.5,-247 2248.5,-247 2248.5,-233 2248.5,-233 2248.5,-227 2254.5,-221 2260.5,-221 2260.5,-221 2445.5,-221 2445.5,-221 2451.5,-221 2457.5,-227 2457.5,-233 2457.5,-233 2457.5,-247 2457.5,-247 2457.5,-253 2451.5,-259 2445.5,-259"/>
<text text-anchor="middle" x="2353" y="-243.8" font-family="Helvetica,sans-Serif" font-size="14.00">Convert Units:</text>
<text text-anchor="middle" x="2353" y="-228.8" font-family="Helvetica,sans-Serif" font-size="14.00"> Back to original input units</text>
</g>
<!-- alg_Divide -->
<g id="node37" class="node">
<title>alg_Divide</title>
<path fill="lightskyblue" stroke="black" d="M2489.5,-332C2489.5,-332 2216.5,-332 2216.5,-332 2210.5,-332 2204.5,-326 2204.5,-320 2204.5,-320 2204.5,-308 2204.5,-308 2204.5,-302 2210.5,-296 2216.5,-296 2216.5,-296 2489.5,-296 2489.5,-296 2495.5,-296 2501.5,-302 2501.5,-308 2501.5,-308 2501.5,-320 2501.5,-320 2501.5,-326 2495.5,-332 2489.5,-332"/>
<text text-anchor="middle" x="2353" y="-310.3" font-family="Helvetica,sans-Serif" font-size="14.00">Divide: Data Ws / Attenuated Workspace</text>
</g>
<!-- alg_Divide&#45;&gt;alg_ConvertUnitsOriginal -->
<g id="edge39" class="edge">
<title>alg_Divide&#45;&gt;alg_ConvertUnitsOriginal</title>
<path fill="none" stroke="black" d="M2353,-295.57C2353,-288.1 2353,-279.17 2353,-270.71"/>
<polygon fill="black" stroke="black" points="2356.5,-270.79 2353,-260.79 2349.5,-270.79 2356.5,-270.79"/>
</g>
<!-- alg_PearlMCAbsorption&#45;&gt;alg_ConvertToHistogram -->
<g id="edge35" class="edge">
<title>alg_PearlMCAbsorption&#45;&gt;alg_ConvertToHistogram</title>
<path fill="none" stroke="black" d="M2353,-608.7C2353,-600.67 2353,-590.9 2353,-581.8"/>
<polygon fill="black" stroke="black" points="2356.5,-581.94 2353,-571.94 2349.5,-581.94 2356.5,-581.94"/>
</g>
<!-- alg_RebinWorkspace&#45;&gt;alg_Divide -->
<g id="edge38" class="edge">
<title>alg_RebinWorkspace&#45;&gt;alg_Divide</title>
<path fill="none" stroke="black" d="M2353,-368.83C2353,-361.24 2353,-352.24 2353,-343.79"/>
<polygon fill="black" stroke="black" points="2356.5,-343.93 2353,-333.93 2349.5,-343.93 2356.5,-343.93"/>
</g>
<!-- if_attenuatePearl_all&#45;&gt;proc_attenuatePearl_all -->
<g id="edge5" class="edge">
<title>if_attenuatePearl_all&#45;&gt;proc_attenuatePearl_all</title>
<path fill="none" stroke="black" d="M690.34,-459.23C687.74,-447.34 684.2,-431.12 681.17,-417.26"/>
<polygon fill="black" stroke="black" points="684.66,-416.82 679.11,-407.8 677.82,-418.31 684.66,-416.82"/>
<text text-anchor="middle" x="701.5" y="-428.8" font-family="Helvetica,sans-Serif" font-size="14.00">True</text>
</g>
<!-- if_attenuatePearl_all&#45;&gt;alg_SaveGssSummed_all -->
<g id="edge7" class="edge">
<title>if_attenuatePearl_all&#45;&gt;alg_SaveGssSummed_all</title>
<path fill="none" stroke="black" d="M721.66,-464.16C743.84,-453 773.44,-433.94 787,-407 794.59,-391.91 794.29,-384.24 787,-369 781.37,-357.22 771.77,-347.19 761.57,-339.09"/>
<polygon fill="black" stroke="black" points="763.9,-336.45 753.76,-333.36 759.76,-342.1 763.9,-336.45"/>
<text text-anchor="middle" x="810.5" y="-384.3" font-family="Helvetica,sans-Serif" font-size="14.00">False</text>
</g>
<!-- if_attenuatePearl_trans&#45;&gt;proc_attenuatePearl_trans -->
<g id="edge26" class="edge">
<title>if_attenuatePearl_trans&#45;&gt;proc_attenuatePearl_trans</title>
<path fill="none" stroke="black" d="M2012.5,-460.85C2002.96,-448.27 1989.17,-430.09 1977.85,-415.16"/>
<polygon fill="black" stroke="black" points="1980.92,-413.43 1972.09,-407.58 1975.35,-417.66 1980.92,-413.43"/>
<text text-anchor="middle" x="2010.5" y="-428.8" font-family="Helvetica,sans-Serif" font-size="14.00">True</text>
</g>
<!-- if_attenuatePearl_trans&#45;&gt;alg_SaveGssSummed_trans -->
<g id="edge27" class="edge">
<title>if_attenuatePearl_trans&#45;&gt;alg_SaveGssSummed_trans</title>
<path fill="none" stroke="black" d="M2037.69,-461.2C2048.83,-448.07 2063.7,-427.81 2070,-407 2074.89,-390.84 2075.57,-384.94 2070,-369 2066.4,-358.7 2059.92,-348.89 2053.06,-340.53"/>
<polygon fill="black" stroke="black" points="2055.84,-338.39 2046.6,-333.21 2050.59,-343.02 2055.84,-338.39"/>
<text text-anchor="middle" x="2091.5" y="-384.3" font-family="Helvetica,sans-Serif" font-size="14.00">False</text>
</g>
</g>
</svg>
