<?xml version="1.0" encoding="UTF-8" standalone="no"?>
<!DOCTYPE svg PUBLIC "-//W3C//DTD SVG 1.1//EN"
 "http://www.w3.org/Graphics/SVG/1.1/DTD/svg11.dtd">
<!-- Generated by graphviz version 9.0.0 (20231125.0833)
 -->
<!-- Title: isisPowderCreateVanadium Pages: 1 -->
<svg width="2653pt" height="806pt"
 viewBox="0.00 0.00 2652.62 805.60" xmlns="http://www.w3.org/2000/svg" xmlns:xlink="http://www.w3.org/1999/xlink">
<g id="graph0" class="graph" transform="scale(1 1) rotate(0) translate(4 801.6)">
<title>isisPowderCreateVanadium</title>
<polygon fill="white" stroke="none" points="-4,4 -4,-801.6 2648.62,-801.6 2648.62,4 -4,4"/>
<text text-anchor="middle" x="1322.31" y="-780.3" font-family="Helvetica,sans-Serif" font-size="14.00">ISISPowder &#45; PEARL Focus Mode saving</text>
<!-- label_focusModeAllPearl -->
<g id="node1" class="node">
<title>label_focusModeAllPearl</title>
<ellipse fill="lightgrey" stroke="black" cx="257.5" cy="-742.3" rx="88.04" ry="18"/>
<text text-anchor="middle" x="257.5" y="-737.63" font-family="Helvetica,sans-Serif" font-size="14.00">Focus mode: All</text>
</g>
<!-- alg_MergeRuns_all -->
<g id="node11" class="node">
<title>alg_MergeRuns_all</title>
<path fill="lightskyblue" stroke="black" d="M205,-672C205,-672 12,-672 12,-672 6,-672 0,-666 0,-660 0,-660 0,-648 0,-648 0,-642 6,-636 12,-636 12,-636 205,-636 205,-636 211,-636 217,-642 217,-648 217,-648 217,-660 217,-660 217,-666 211,-672 205,-672"/>
<text text-anchor="middle" x="108.5" y="-649.33" font-family="Helvetica,sans-Serif" font-size="14.00">Merge Runs: Banks 1&#45;9 (inc.)</text>
</g>
<!-- label_focusModeAllPearl&#45;&gt;alg_MergeRuns_all -->
<g id="edge1" class="edge">
<title>label_focusModeAllPearl&#45;&gt;alg_MergeRuns_all</title>
<path fill="none" stroke="black" d="M229.12,-724.87C206.24,-711.61 173.78,-692.81 148.3,-678.05"/>
<polygon fill="black" stroke="black" points="150.28,-675.15 139.87,-673.17 146.77,-681.21 150.28,-675.15"/>
</g>
<!-- alg_SaveGss_all -->
<g id="node13" class="node">
<title>alg_SaveGss_all</title>
<path fill="lightskyblue" stroke="black" d="M563.5,-675.25C563.5,-675.25 247.5,-675.25 247.5,-675.25 241.5,-675.25 235.5,-669.25 235.5,-663.25 235.5,-663.25 235.5,-644.75 235.5,-644.75 235.5,-638.75 241.5,-632.75 247.5,-632.75 247.5,-632.75 563.5,-632.75 563.5,-632.75 569.5,-632.75 575.5,-638.75 575.5,-644.75 575.5,-644.75 575.5,-663.25 575.5,-663.25 575.5,-669.25 569.5,-675.25 563.5,-675.25"/>
<text text-anchor="middle" x="405.5" y="-657.95" font-family="Helvetica,sans-Serif" font-size="14.00">Save GSS: TOF</text>
<text text-anchor="middle" x="405.5" y="-640.7" font-family="Helvetica,sans-Serif" font-size="14.00"> Appending banks 10&#45;12 (inc.) to merged runs</text>
</g>
<!-- label_focusModeAllPearl&#45;&gt;alg_SaveGss_all -->
<g id="edge9" class="edge">
<title>label_focusModeAllPearl&#45;&gt;alg_SaveGss_all</title>
<path fill="none" stroke="black" d="M285.69,-724.87C306.77,-712.57 336.03,-695.51 360.36,-681.32"/>
<polygon fill="black" stroke="black" points="361.91,-684.47 368.79,-676.41 358.39,-678.42 361.91,-684.47"/>
</g>
<!-- label_focusModeGroupsPearl -->
<g id="node2" class="node">
<title>label_focusModeGroupsPearl</title>
<ellipse fill="lightgrey" stroke="black" cx="1139.5" cy="-742.3" rx="110.66" ry="18"/>
<text text-anchor="middle" x="1139.5" y="-737.63" font-family="Helvetica,sans-Serif" font-size="14.00">Focus mode: Groups</text>
</g>
<!-- alg_MergeRuns_groups -->
<g id="node18" class="node">
<title>alg_MergeRuns_groups</title>
<path fill="lightskyblue" stroke="black" d="M1172,-675.25C1172,-675.25 979,-675.25 979,-675.25 973,-675.25 967,-669.25 967,-663.25 967,-663.25 967,-644.75 967,-644.75 967,-638.75 973,-632.75 979,-632.75 979,-632.75 1172,-632.75 1172,-632.75 1178,-632.75 1184,-638.75 1184,-644.75 1184,-644.75 1184,-663.25 1184,-663.25 1184,-669.25 1178,-675.25 1172,-675.25"/>
<text text-anchor="middle" x="1075.5" y="-657.95" font-family="Helvetica,sans-Serif" font-size="14.00">Merge Runs: (1&#45;3)/(4&#45;6)/(7&#45;9)</text>
<text text-anchor="middle" x="1075.5" y="-640.7" font-family="Helvetica,sans-Serif" font-size="14.00"> All inc.</text>
</g>
<!-- label_focusModeGroupsPearl&#45;&gt;alg_MergeRuns_groups -->
<g id="edge11" class="edge">
<title>label_focusModeGroupsPearl&#45;&gt;alg_MergeRuns_groups</title>
<path fill="none" stroke="black" d="M1126.86,-724.25C1118.53,-713.03 1107.41,-698.02 1097.64,-684.85"/>
<polygon fill="black" stroke="black" points="1100.5,-682.83 1091.73,-676.88 1094.87,-687 1100.5,-682.83"/>
</g>
<!-- alg_SaveGss_groups -->
<g id="node22" class="node">
<title>alg_SaveGss_groups</title>
<path fill="lightskyblue" stroke="black" d="M1536.5,-675.25C1536.5,-675.25 1220.5,-675.25 1220.5,-675.25 1214.5,-675.25 1208.5,-669.25 1208.5,-663.25 1208.5,-663.25 1208.5,-644.75 1208.5,-644.75 1208.5,-638.75 1214.5,-632.75 1220.5,-632.75 1220.5,-632.75 1536.5,-632.75 1536.5,-632.75 1542.5,-632.75 1548.5,-638.75 1548.5,-644.75 1548.5,-644.75 1548.5,-663.25 1548.5,-663.25 1548.5,-669.25 1542.5,-675.25 1536.5,-675.25"/>
<text text-anchor="middle" x="1378.5" y="-657.95" font-family="Helvetica,sans-Serif" font-size="14.00">Save GSS: TOF</text>
<text text-anchor="middle" x="1378.5" y="-640.7" font-family="Helvetica,sans-Serif" font-size="14.00"> Appending banks 10&#45;14 (inc.) to merged runs</text>
</g>
<!-- label_focusModeGroupsPearl&#45;&gt;alg_SaveGss_groups -->
<g id="edge18" class="edge">
<title>label_focusModeGroupsPearl&#45;&gt;alg_SaveGss_groups</title>
<path fill="none" stroke="black" d="M1183.61,-725.37C1219.15,-712.54 1269.72,-694.28 1310.43,-679.58"/>
<polygon fill="black" stroke="black" points="1311.46,-682.93 1319.67,-676.24 1309.08,-676.35 1311.46,-682.93"/>
</g>
<!-- label_focusModeModsPearl -->
<g id="node3" class="node">
<title>label_focusModeModsPearl</title>
<ellipse fill="lightgrey" stroke="black" cx="1711.5" cy="-742.3" rx="101.71" ry="18"/>
<text text-anchor="middle" x="1711.5" y="-737.63" font-family="Helvetica,sans-Serif" font-size="14.00">Focus mode: Mods</text>
</g>
<!-- alg_SaveGss_mods -->
<g id="node25" class="node">
<title>alg_SaveGss_mods</title>
<path fill="lightskyblue" stroke="black" d="M1805.75,-675.25C1805.75,-675.25 1617.25,-675.25 1617.25,-675.25 1611.25,-675.25 1605.25,-669.25 1605.25,-663.25 1605.25,-663.25 1605.25,-644.75 1605.25,-644.75 1605.25,-638.75 1611.25,-632.75 1617.25,-632.75 1617.25,-632.75 1805.75,-632.75 1805.75,-632.75 1811.75,-632.75 1817.75,-638.75 1817.75,-644.75 1817.75,-644.75 1817.75,-663.25 1817.75,-663.25 1817.75,-669.25 1811.75,-675.25 1805.75,-675.25"/>
<text text-anchor="middle" x="1711.5" y="-657.95" font-family="Helvetica,sans-Serif" font-size="14.00">Save GSS: TOF</text>
<text text-anchor="middle" x="1711.5" y="-640.7" font-family="Helvetica,sans-Serif" font-size="14.00"> Appending each workspace</text>
</g>
<!-- label_focusModeModsPearl&#45;&gt;alg_SaveGss_mods -->
<g id="edge20" class="edge">
<title>label_focusModeModsPearl&#45;&gt;alg_SaveGss_mods</title>
<path fill="none" stroke="black" d="M1711.5,-723.84C1711.5,-713.24 1711.5,-699.39 1711.5,-686.89"/>
<polygon fill="black" stroke="black" points="1715,-686.99 1711.5,-676.99 1708,-686.99 1715,-686.99"/>
</g>
<!-- label_focusModeTransPearl -->
<g id="node4" class="node">
<title>label_focusModeTransPearl</title>
<ellipse fill="lightgrey" stroke="black" cx="1944.5" cy="-742.3" rx="102.24" ry="18"/>
<text text-anchor="middle" x="1944.5" y="-737.63" font-family="Helvetica,sans-Serif" font-size="14.00">Focus mode: Trans</text>
</g>
<!-- alg_MergeRuns_trans -->
<g id="node27" class="node">
<title>alg_MergeRuns_trans</title>
<path fill="lightskyblue" stroke="black" d="M2041,-672C2041,-672 1848,-672 1848,-672 1842,-672 1836,-666 1836,-660 1836,-660 1836,-648 1836,-648 1836,-642 1842,-636 1848,-636 1848,-636 2041,-636 2041,-636 2047,-636 2053,-642 2053,-648 2053,-648 2053,-660 2053,-660 2053,-666 2047,-672 2041,-672"/>
<text text-anchor="middle" x="1944.5" y="-649.33" font-family="Helvetica,sans-Serif" font-size="14.00">Merge Runs: Banks 1&#45;9 (inc.)</text>
</g>
<!-- label_focusModeTransPearl&#45;&gt;alg_MergeRuns_trans -->
<g id="edge22" class="edge">
<title>label_focusModeTransPearl&#45;&gt;alg_MergeRuns_trans</title>
<path fill="none" stroke="black" d="M1944.5,-723.84C1944.5,-712.37 1944.5,-697.11 1944.5,-683.86"/>
<polygon fill="black" stroke="black" points="1948,-683.95 1944.5,-673.95 1941,-683.95 1948,-683.95"/>
</g>
<!-- label_attenuateWorkspacePearl -->
<g id="node5" class="node">
<title>label_attenuateWorkspacePearl</title>
<ellipse fill="lightgrey" stroke="black" cx="2179.5" cy="-742.3" rx="114.87" ry="18"/>
<text text-anchor="middle" x="2179.5" y="-737.63" font-family="Helvetica,sans-Serif" font-size="14.00">Attenuate Workspace</text>
</g>
<!-- alg_PearlMCAbsorption -->
<g id="node38" class="node">
<title>alg_PearlMCAbsorption</title>
<path fill="lightskyblue" stroke="black" d="M2511.5,-672C2511.5,-672 2387.5,-672 2387.5,-672 2381.5,-672 2375.5,-666 2375.5,-660 2375.5,-660 2375.5,-648 2375.5,-648 2375.5,-642 2381.5,-636 2387.5,-636 2387.5,-636 2511.5,-636 2511.5,-636 2517.5,-636 2523.5,-642 2523.5,-648 2523.5,-648 2523.5,-660 2523.5,-660 2523.5,-666 2517.5,-672 2511.5,-672"/>
<text text-anchor="middle" x="2449.5" y="-649.33" font-family="Helvetica,sans-Serif" font-size="14.00">PearlMCAbsorption</text>
</g>
<!-- label_attenuateWorkspacePearl&#45;&gt;alg_PearlMCAbsorption -->
<g id="edge33" class="edge">
<title>label_attenuateWorkspacePearl&#45;&gt;alg_PearlMCAbsorption</title>
<path fill="none" stroke="black" d="M2228.71,-725.57C2272.31,-711.64 2336.3,-691.18 2384.18,-675.88"/>
<polygon fill="black" stroke="black" points="2385.16,-679.24 2393.62,-672.86 2383.03,-672.57 2385.16,-679.24"/>
</g>
<!-- param_attenuatePearl_all -->
<g id="node6" class="node">
<title>param_attenuatePearl_all</title>
<ellipse fill="khaki" stroke="black" cx="712.5" cy="-574.5" rx="121.71" ry="18"/>
<text text-anchor="middle" x="712.5" y="-569.83" font-family="Helvetica,sans-Serif" font-size="14.00">User param: attenuate</text>
</g>
<!-- if_attenuatePearl_all -->
<g id="node40" class="node">
<title>if_attenuatePearl_all</title>
<polygon fill="limegreen" stroke="black" points="594.5,-513 494.55,-495 594.5,-477 694.45,-495 594.5,-513"/>
<text text-anchor="middle" x="594.5" y="-490.32" font-family="Helvetica,sans-Serif" font-size="14.00">If: attenuate</text>
</g>
<!-- param_attenuatePearl_all&#45;&gt;if_attenuatePearl_all -->
<g id="edge4" class="edge">
<title>param_attenuatePearl_all&#45;&gt;if_attenuatePearl_all</title>
<path fill="none" stroke="black" d="M686.6,-556.49C668.35,-544.5 643.84,-528.41 624.69,-515.83"/>
<polygon fill="black" stroke="black" points="626.78,-513.01 616.5,-510.45 622.94,-518.86 626.78,-513.01"/>
</g>
<!-- param_attenuatePearl_trans -->
<g id="node7" class="node">
<title>param_attenuatePearl_trans</title>
<ellipse fill="khaki" stroke="black" cx="2176.5" cy="-574.5" rx="121.71" ry="18"/>
<text text-anchor="middle" x="2176.5" y="-569.83" font-family="Helvetica,sans-Serif" font-size="14.00">User param: attenuate</text>
</g>
<!-- if_attenuatePearl_trans -->
<g id="node41" class="node">
<title>if_attenuatePearl_trans</title>
<polygon fill="limegreen" stroke="black" points="2103.5,-513 2003.55,-495 2103.5,-477 2203.45,-495 2103.5,-513"/>
<text text-anchor="middle" x="2103.5" y="-490.32" font-family="Helvetica,sans-Serif" font-size="14.00">If: attenuate</text>
</g>
<!-- param_attenuatePearl_trans&#45;&gt;if_attenuatePearl_trans -->
<g id="edge25" class="edge">
<title>param_attenuatePearl_trans&#45;&gt;if_attenuatePearl_trans</title>
<path fill="none" stroke="black" d="M2160.3,-556.3C2149.96,-545.32 2136.42,-530.95 2125.16,-519"/>
<polygon fill="black" stroke="black" points="2127.89,-516.78 2118.48,-511.9 2122.79,-521.58 2127.89,-516.78"/>
</g>
<!-- param_attenuatePearlFilePath -->
<g id="node8" class="node">
<title>param_attenuatePearlFilePath</title>
<ellipse fill="khaki" stroke="black" cx="2477.5" cy="-742.3" rx="165.11" ry="30.05"/>
<text text-anchor="middle" x="2477.5" y="-746.25" font-family="Helvetica,sans-Serif" font-size="14.00">User param:</text>
<text text-anchor="middle" x="2477.5" y="-729" font-family="Helvetica,sans-Serif" font-size="14.00"> Full file path to attenuation file</text>
</g>
<!-- param_attenuatePearlFilePath&#45;&gt;alg_PearlMCAbsorption -->
<g id="edge34" class="edge">
<title>param_attenuatePearlFilePath&#45;&gt;alg_PearlMCAbsorption</title>
<path fill="none" stroke="black" d="M2468.02,-712.08C2464.98,-702.7 2461.61,-692.33 2458.59,-683.03"/>
<polygon fill="black" stroke="black" points="2462.01,-682.23 2455.6,-673.79 2455.35,-684.39 2462.01,-682.23"/>
</g>
<!-- proc_attenuatePearl_all -->
<g id="node9" class="node">
<title>proc_attenuatePearl_all</title>
<polygon fill="lightseagreen" stroke="black" points="655.38,-417.25 449.62,-417.25 449.62,-381.25 655.38,-381.25 655.38,-417.25"/>
<text text-anchor="middle" x="552.5" y="-394.57" font-family="Helvetica,sans-Serif" font-size="14.00">Pearl: Attenuate workspace</text>
</g>
<!-- alg_SaveGssSummed_all -->
<g id="node14" class="node">
<title>alg_SaveGssSummed_all</title>
<path fill="lightskyblue" stroke="black" d="M698.25,-341C698.25,-341 602.75,-341 602.75,-341 596.75,-341 590.75,-335 590.75,-329 590.75,-329 590.75,-317 590.75,-317 590.75,-311 596.75,-305 602.75,-305 602.75,-305 698.25,-305 698.25,-305 704.25,-305 710.25,-311 710.25,-317 710.25,-317 710.25,-329 710.25,-329 710.25,-335 704.25,-341 698.25,-341"/>
<text text-anchor="middle" x="650.5" y="-318.32" font-family="Helvetica,sans-Serif" font-size="14.00">Save GSS: TOF</text>
</g>
<!-- proc_attenuatePearl_all&#45;&gt;alg_SaveGssSummed_all -->
<g id="edge6" class="edge">
<title>proc_attenuatePearl_all&#45;&gt;alg_SaveGssSummed_all</title>
<path fill="none" stroke="black" d="M575.23,-381.03C588.12,-371.26 604.46,-358.88 618.62,-348.15"/>
<polygon fill="black" stroke="black" points="620.49,-351.13 626.35,-342.3 616.26,-345.55 620.49,-351.13"/>
</g>
<!-- proc_attenuatePearl_trans -->
<g id="node10" class="node">
<title>proc_attenuatePearl_trans</title>
<polygon fill="lightseagreen" stroke="black" points="2136.38,-417.25 1930.62,-417.25 1930.62,-381.25 2136.38,-381.25 2136.38,-417.25"/>
<text text-anchor="middle" x="2033.5" y="-394.57" font-family="Helvetica,sans-Serif" font-size="14.00">Pearl: Attenuate workspace</text>
</g>
<!-- alg_SaveGssSummed_trans -->
<g id="node29" class="node">
<title>alg_SaveGssSummed_trans</title>
<path fill="lightskyblue" stroke="black" d="M2185.25,-341C2185.25,-341 2089.75,-341 2089.75,-341 2083.75,-341 2077.75,-335 2077.75,-329 2077.75,-329 2077.75,-317 2077.75,-317 2077.75,-311 2083.75,-305 2089.75,-305 2089.75,-305 2185.25,-305 2185.25,-305 2191.25,-305 2197.25,-311 2197.25,-317 2197.25,-317 2197.25,-329 2197.25,-329 2197.25,-335 2191.25,-341 2185.25,-341"/>
<text text-anchor="middle" x="2137.5" y="-318.32" font-family="Helvetica,sans-Serif" font-size="14.00">Save GSS: TOF</text>
</g>
<!-- proc_attenuatePearl_trans&#45;&gt;alg_SaveGssSummed_trans -->
<g id="edge28" class="edge">
<title>proc_attenuatePearl_trans&#45;&gt;alg_SaveGssSummed_trans</title>
<path fill="none" stroke="black" d="M2057.88,-380.84C2071.71,-370.97 2089.19,-358.49 2104.26,-347.73"/>
<polygon fill="black" stroke="black" points="2105.93,-350.84 2112.04,-342.18 2101.87,-345.14 2105.93,-350.84"/>
</g>
<!-- alg_Scale_all -->
<g id="node12" class="node">
<title>alg_Scale_all</title>
<path fill="lightskyblue" stroke="black" d="M200.88,-592.5C200.88,-592.5 40.12,-592.5 40.12,-592.5 34.12,-592.5 28.12,-586.5 28.12,-580.5 28.12,-580.5 28.12,-568.5 28.12,-568.5 28.12,-562.5 34.12,-556.5 40.12,-556.5 40.12,-556.5 200.88,-556.5 200.88,-556.5 206.88,-556.5 212.88,-562.5 212.88,-568.5 212.88,-568.5 212.88,-580.5 212.88,-580.5 212.88,-586.5 206.88,-592.5 200.88,-592.5"/>
<text text-anchor="middle" x="120.5" y="-569.83" font-family="Helvetica,sans-Serif" font-size="14.00">Scale: 0.11111111 (1/9)</text>
</g>
<!-- alg_MergeRuns_all&#45;&gt;alg_Scale_all -->
<g id="edge2" class="edge">
<title>alg_MergeRuns_all&#45;&gt;alg_Scale_all</title>
<path fill="none" stroke="black" d="M111.16,-635.8C112.6,-626.53 114.41,-614.86 116.05,-604.25"/>
<polygon fill="black" stroke="black" points="119.5,-604.83 117.57,-594.42 112.58,-603.76 119.5,-604.83"/>
</g>
<!-- alg_Scale_all&#45;&gt;if_attenuatePearl_all -->
<g id="edge3" class="edge">
<title>alg_Scale_all&#45;&gt;if_attenuatePearl_all</title>
<path fill="none" stroke="black" d="M208.11,-556.02C213.32,-555.06 218.47,-554.13 223.5,-553.25 330.35,-534.51 455.1,-515.94 529.3,-505.23"/>
<polygon fill="black" stroke="black" points="529.42,-508.75 538.82,-503.87 528.42,-501.83 529.42,-508.75"/>
</g>
<!-- alg_SaveNexusProcessed_all -->
<g id="node16" class="node">
<title>alg_SaveNexusProcessed_all</title>
<path fill="lightskyblue" stroke="black" d="M560.5,-595.75C560.5,-595.75 244.5,-595.75 244.5,-595.75 238.5,-595.75 232.5,-589.75 232.5,-583.75 232.5,-583.75 232.5,-565.25 232.5,-565.25 232.5,-559.25 238.5,-553.25 244.5,-553.25 244.5,-553.25 560.5,-553.25 560.5,-553.25 566.5,-553.25 572.5,-559.25 572.5,-565.25 572.5,-565.25 572.5,-583.75 572.5,-583.75 572.5,-589.75 566.5,-595.75 560.5,-595.75"/>
<text text-anchor="middle" x="402.5" y="-578.45" font-family="Helvetica,sans-Serif" font-size="14.00">Save Nexus Processed: dSpacing</text>
<text text-anchor="middle" x="402.5" y="-561.2" font-family="Helvetica,sans-Serif" font-size="14.00"> Appending banks 10&#45;12 (inc.) to merged runs</text>
</g>
<!-- alg_SaveGss_all&#45;&gt;alg_SaveNexusProcessed_all -->
<g id="edge10" class="edge">
<title>alg_SaveGss_all&#45;&gt;alg_SaveNexusProcessed_all</title>
<path fill="none" stroke="black" d="M404.71,-632.64C404.41,-624.87 404.06,-615.81 403.73,-607.23"/>
<polygon fill="black" stroke="black" points="407.24,-607.36 403.35,-597.51 400.24,-607.64 407.24,-607.36"/>
</g>
<!-- alg_SaveNexusProcessedSummed_all -->
<g id="node15" class="node">
<title>alg_SaveNexusProcessedSummed_all</title>
<path fill="lightskyblue" stroke="black" d="M761.25,-264.75C761.25,-264.75 539.75,-264.75 539.75,-264.75 533.75,-264.75 527.75,-258.75 527.75,-252.75 527.75,-252.75 527.75,-240.75 527.75,-240.75 527.75,-234.75 533.75,-228.75 539.75,-228.75 539.75,-228.75 761.25,-228.75 761.25,-228.75 767.25,-228.75 773.25,-234.75 773.25,-240.75 773.25,-240.75 773.25,-252.75 773.25,-252.75 773.25,-258.75 767.25,-264.75 761.25,-264.75"/>
<text text-anchor="middle" x="650.5" y="-242.07" font-family="Helvetica,sans-Serif" font-size="14.00">Save Nexus Processed: dSpacing</text>
</g>
<!-- alg_SaveGssSummed_all&#45;&gt;alg_SaveNexusProcessedSummed_all -->
<g id="edge8" class="edge">
<title>alg_SaveGssSummed_all&#45;&gt;alg_SaveNexusProcessedSummed_all</title>
<path fill="none" stroke="black" d="M650.5,-304.78C650.5,-296.41 650.5,-286.11 650.5,-276.59"/>
<polygon fill="black" stroke="black" points="654,-276.65 650.5,-266.65 647,-276.65 654,-276.65"/>
</g>
<!-- alg_Plus_groups -->
<g id="node17" class="node">
<title>alg_Plus_groups</title>
<path fill="lightskyblue" stroke="black" d="M1055,-513C1055,-513 898,-513 898,-513 892,-513 886,-507 886,-501 886,-501 886,-489 886,-489 886,-483 892,-477 898,-477 898,-477 1055,-477 1055,-477 1061,-477 1067,-483 1067,-489 1067,-489 1067,-501 1067,-501 1067,-507 1061,-513 1055,-513"/>
<text text-anchor="middle" x="976.5" y="-490.32" font-family="Helvetica,sans-Serif" font-size="14.00">Plus: Runs (4&#45;6) + (7&#45;9)</text>
</g>
<!-- alg_ScaleHalf_groups -->
<g id="node20" class="node">
<title>alg_ScaleHalf_groups</title>
<path fill="lightskyblue" stroke="black" d="M1040.38,-417.25C1040.38,-417.25 942.62,-417.25 942.62,-417.25 936.62,-417.25 930.62,-411.25 930.62,-405.25 930.62,-405.25 930.62,-393.25 930.62,-393.25 930.62,-387.25 936.62,-381.25 942.62,-381.25 942.62,-381.25 1040.38,-381.25 1040.38,-381.25 1046.38,-381.25 1052.38,-387.25 1052.38,-393.25 1052.38,-393.25 1052.38,-405.25 1052.38,-405.25 1052.38,-411.25 1046.38,-417.25 1040.38,-417.25"/>
<text text-anchor="middle" x="991.5" y="-394.57" font-family="Helvetica,sans-Serif" font-size="14.00">Scale: 0.5 (1/2)</text>
</g>
<!-- alg_Plus_groups&#45;&gt;alg_ScaleHalf_groups -->
<g id="edge14" class="edge">
<title>alg_Plus_groups&#45;&gt;alg_ScaleHalf_groups</title>
<path fill="none" stroke="black" d="M979.25,-476.8C981.39,-463.41 984.42,-444.52 986.92,-428.86"/>
<polygon fill="black" stroke="black" points="990.35,-429.58 988.48,-419.15 983.44,-428.47 990.35,-429.58"/>
</g>
<!-- alg_Scale_groups -->
<g id="node19" class="node">
<title>alg_Scale_groups</title>
<path fill="lightskyblue" stroke="black" d="M1200.25,-592.5C1200.25,-592.5 918.75,-592.5 918.75,-592.5 912.75,-592.5 906.75,-586.5 906.75,-580.5 906.75,-580.5 906.75,-568.5 906.75,-568.5 906.75,-562.5 912.75,-556.5 918.75,-556.5 918.75,-556.5 1200.25,-556.5 1200.25,-556.5 1206.25,-556.5 1212.25,-562.5 1212.25,-568.5 1212.25,-568.5 1212.25,-580.5 1212.25,-580.5 1212.25,-586.5 1206.25,-592.5 1200.25,-592.5"/>
<text text-anchor="middle" x="1059.5" y="-569.83" font-family="Helvetica,sans-Serif" font-size="14.00">Scale: Each workspace by 0.333333 (1/3)</text>
</g>
<!-- alg_MergeRuns_groups&#45;&gt;alg_Scale_groups -->
<g id="edge12" class="edge">
<title>alg_MergeRuns_groups&#45;&gt;alg_Scale_groups</title>
<path fill="none" stroke="black" d="M1071.3,-632.64C1069.48,-623.84 1067.32,-613.39 1065.35,-603.85"/>
<polygon fill="black" stroke="black" points="1068.84,-603.41 1063.39,-594.32 1061.98,-604.82 1068.84,-603.41"/>
</g>
<!-- alg_Scale_groups&#45;&gt;alg_Plus_groups -->
<g id="edge13" class="edge">
<title>alg_Scale_groups&#45;&gt;alg_Plus_groups</title>
<path fill="none" stroke="black" d="M1041.08,-556.3C1029.98,-545.94 1015.65,-532.56 1003.32,-521.04"/>
<polygon fill="black" stroke="black" points="1005.96,-518.72 996.26,-514.45 1001.18,-523.84 1005.96,-518.72"/>
</g>
<!-- alg_SaveGssSummed_groups -->
<g id="node21" class="node">
<title>alg_SaveGssSummed_groups</title>
<path fill="lightskyblue" stroke="black" d="M1131.25,-341C1131.25,-341 1035.75,-341 1035.75,-341 1029.75,-341 1023.75,-335 1023.75,-329 1023.75,-329 1023.75,-317 1023.75,-317 1023.75,-311 1029.75,-305 1035.75,-305 1035.75,-305 1131.25,-305 1131.25,-305 1137.25,-305 1143.25,-311 1143.25,-317 1143.25,-317 1143.25,-329 1143.25,-329 1143.25,-335 1137.25,-341 1131.25,-341"/>
<text text-anchor="middle" x="1083.5" y="-318.32" font-family="Helvetica,sans-Serif" font-size="14.00">Save GSS: TOF</text>
</g>
<!-- alg_Scale_groups&#45;&gt;alg_SaveGssSummed_groups -->
<g id="edge15" class="edge">
<title>alg_Scale_groups&#45;&gt;alg_SaveGssSummed_groups</title>
<path fill="none" stroke="black" d="M1065.46,-556.19C1069.05,-544.95 1073.34,-529.91 1075.5,-516.25 1084.62,-458.64 1085.02,-390.18 1084.35,-352.48"/>
<polygon fill="black" stroke="black" points="1087.86,-352.8 1084.14,-342.88 1080.86,-352.95 1087.86,-352.8"/>
</g>
<!-- alg_ScaleHalf_groups&#45;&gt;alg_SaveGssSummed_groups -->
<g id="edge16" class="edge">
<title>alg_ScaleHalf_groups&#45;&gt;alg_SaveGssSummed_groups</title>
<path fill="none" stroke="black" d="M1012.84,-381.03C1024.83,-371.35 1039.99,-359.11 1053.19,-348.46"/>
<polygon fill="black" stroke="black" points="1055.2,-351.34 1060.78,-342.34 1050.8,-345.89 1055.2,-351.34"/>
</g>
<!-- alg_SaveNexusProcessedSummed_groups -->
<g id="node23" class="node">
<title>alg_SaveNexusProcessedSummed_groups</title>
<path fill="lightskyblue" stroke="black" d="M1194.25,-264.75C1194.25,-264.75 972.75,-264.75 972.75,-264.75 966.75,-264.75 960.75,-258.75 960.75,-252.75 960.75,-252.75 960.75,-240.75 960.75,-240.75 960.75,-234.75 966.75,-228.75 972.75,-228.75 972.75,-228.75 1194.25,-228.75 1194.25,-228.75 1200.25,-228.75 1206.25,-234.75 1206.25,-240.75 1206.25,-240.75 1206.25,-252.75 1206.25,-252.75 1206.25,-258.75 1200.25,-264.75 1194.25,-264.75"/>
<text text-anchor="middle" x="1083.5" y="-242.07" font-family="Helvetica,sans-Serif" font-size="14.00">Save Nexus Processed: dSpacing</text>
</g>
<!-- alg_SaveGssSummed_groups&#45;&gt;alg_SaveNexusProcessedSummed_groups -->
<g id="edge17" class="edge">
<title>alg_SaveGssSummed_groups&#45;&gt;alg_SaveNexusProcessedSummed_groups</title>
<path fill="none" stroke="black" d="M1083.5,-304.78C1083.5,-296.41 1083.5,-286.11 1083.5,-276.59"/>
<polygon fill="black" stroke="black" points="1087,-276.65 1083.5,-266.65 1080,-276.65 1087,-276.65"/>
</g>
<!-- alg_SaveNexusProcessed_groups -->
<g id="node24" class="node">
<title>alg_SaveNexusProcessed_groups</title>
<path fill="lightskyblue" stroke="black" d="M1558.5,-595.75C1558.5,-595.75 1242.5,-595.75 1242.5,-595.75 1236.5,-595.75 1230.5,-589.75 1230.5,-583.75 1230.5,-583.75 1230.5,-565.25 1230.5,-565.25 1230.5,-559.25 1236.5,-553.25 1242.5,-553.25 1242.5,-553.25 1558.5,-553.25 1558.5,-553.25 1564.5,-553.25 1570.5,-559.25 1570.5,-565.25 1570.5,-565.25 1570.5,-583.75 1570.5,-583.75 1570.5,-589.75 1564.5,-595.75 1558.5,-595.75"/>
<text text-anchor="middle" x="1400.5" y="-578.45" font-family="Helvetica,sans-Serif" font-size="14.00">Save Nexus Processed: dSpacing</text>
<text text-anchor="middle" x="1400.5" y="-561.2" font-family="Helvetica,sans-Serif" font-size="14.00"> Appending banks 10&#45;14 (inc.) to merged runs</text>
</g>
<!-- alg_SaveGss_groups&#45;&gt;alg_SaveNexusProcessed_groups -->
<g id="edge19" class="edge">
<title>alg_SaveGss_groups&#45;&gt;alg_SaveNexusProcessed_groups</title>
<path fill="none" stroke="black" d="M1384.28,-632.64C1386.51,-624.78 1389.11,-615.61 1391.57,-606.94"/>
<polygon fill="black" stroke="black" points="1394.9,-608.03 1394.27,-597.45 1388.17,-606.12 1394.9,-608.03"/>
</g>
<!-- alg_SaveNexusProcessed_mods -->
<g id="node26" class="node">
<title>alg_SaveNexusProcessed_mods</title>
<path fill="lightskyblue" stroke="black" d="M1822.25,-595.75C1822.25,-595.75 1600.75,-595.75 1600.75,-595.75 1594.75,-595.75 1588.75,-589.75 1588.75,-583.75 1588.75,-583.75 1588.75,-565.25 1588.75,-565.25 1588.75,-559.25 1594.75,-553.25 1600.75,-553.25 1600.75,-553.25 1822.25,-553.25 1822.25,-553.25 1828.25,-553.25 1834.25,-559.25 1834.25,-565.25 1834.25,-565.25 1834.25,-583.75 1834.25,-583.75 1834.25,-589.75 1828.25,-595.75 1822.25,-595.75"/>
<text text-anchor="middle" x="1711.5" y="-578.45" font-family="Helvetica,sans-Serif" font-size="14.00">Save Nexus Processed: dSpacing</text>
<text text-anchor="middle" x="1711.5" y="-561.2" font-family="Helvetica,sans-Serif" font-size="14.00"> Appending each workspace</text>
</g>
<!-- alg_SaveGss_mods&#45;&gt;alg_SaveNexusProcessed_mods -->
<g id="edge21" class="edge">
<title>alg_SaveGss_mods&#45;&gt;alg_SaveNexusProcessed_mods</title>
<path fill="none" stroke="black" d="M1711.5,-632.64C1711.5,-624.87 1711.5,-615.81 1711.5,-607.23"/>
<polygon fill="black" stroke="black" points="1715,-607.51 1711.5,-597.51 1708,-607.51 1715,-607.51"/>
</g>
<!-- alg_Scale_trans -->
<g id="node28" class="node">
<title>alg_Scale_trans</title>
<path fill="lightskyblue" stroke="black" d="M2024.88,-592.5C2024.88,-592.5 1864.12,-592.5 1864.12,-592.5 1858.12,-592.5 1852.12,-586.5 1852.12,-580.5 1852.12,-580.5 1852.12,-568.5 1852.12,-568.5 1852.12,-562.5 1858.12,-556.5 1864.12,-556.5 1864.12,-556.5 2024.88,-556.5 2024.88,-556.5 2030.88,-556.5 2036.88,-562.5 2036.88,-568.5 2036.88,-568.5 2036.88,-580.5 2036.88,-580.5 2036.88,-586.5 2030.88,-592.5 2024.88,-592.5"/>
<text text-anchor="middle" x="1944.5" y="-569.83" font-family="Helvetica,sans-Serif" font-size="14.00">Scale: 0.11111111 (1/9)</text>
</g>
<!-- alg_MergeRuns_trans&#45;&gt;alg_Scale_trans -->
<g id="edge23" class="edge">
<title>alg_MergeRuns_trans&#45;&gt;alg_Scale_trans</title>
<path fill="none" stroke="black" d="M1944.5,-635.8C1944.5,-626.53 1944.5,-614.86 1944.5,-604.25"/>
<polygon fill="black" stroke="black" points="1948,-604.43 1944.5,-594.43 1941,-604.43 1948,-604.43"/>
</g>
<!-- alg_Scale_trans&#45;&gt;if_attenuatePearl_trans -->
<g id="edge24" class="edge">
<title>alg_Scale_trans&#45;&gt;if_attenuatePearl_trans</title>
<path fill="none" stroke="black" d="M1980.18,-556.11C2006.09,-543.48 2041.04,-526.45 2067.11,-513.74"/>
<polygon fill="black" stroke="black" points="2068.52,-516.94 2075.98,-509.42 2065.45,-510.65 2068.52,-516.94"/>
</g>
<!-- alg_SaveFocusedXyeTOFSummed_trans -->
<g id="node31" class="node">
<title>alg_SaveFocusedXyeTOFSummed_trans</title>
<path fill="lightskyblue" stroke="black" d="M2215.25,-264.75C2215.25,-264.75 2059.75,-264.75 2059.75,-264.75 2053.75,-264.75 2047.75,-258.75 2047.75,-252.75 2047.75,-252.75 2047.75,-240.75 2047.75,-240.75 2047.75,-234.75 2053.75,-228.75 2059.75,-228.75 2059.75,-228.75 2215.25,-228.75 2215.25,-228.75 2221.25,-228.75 2227.25,-234.75 2227.25,-240.75 2227.25,-240.75 2227.25,-252.75 2227.25,-252.75 2227.25,-258.75 2221.25,-264.75 2215.25,-264.75"/>
<text text-anchor="middle" x="2137.5" y="-242.07" font-family="Helvetica,sans-Serif" font-size="14.00">Save Focused XYE: TOF</text>
</g>
<!-- alg_SaveGssSummed_trans&#45;&gt;alg_SaveFocusedXyeTOFSummed_trans -->
<g id="edge29" class="edge">
<title>alg_SaveGssSummed_trans&#45;&gt;alg_SaveFocusedXyeTOFSummed_trans</title>
<path fill="none" stroke="black" d="M2137.5,-304.78C2137.5,-296.41 2137.5,-286.11 2137.5,-276.59"/>
<polygon fill="black" stroke="black" points="2141,-276.65 2137.5,-266.65 2134,-276.65 2141,-276.65"/>
</g>
<!-- alg_SaveFocusedXyeDSummed_trans -->
<g id="node30" class="node">
<title>alg_SaveFocusedXyeDSummed_trans</title>
<path fill="lightskyblue" stroke="black" d="M2233.62,-188.5C2233.62,-188.5 2041.38,-188.5 2041.38,-188.5 2035.38,-188.5 2029.38,-182.5 2029.38,-176.5 2029.38,-176.5 2029.38,-164.5 2029.38,-164.5 2029.38,-158.5 2035.38,-152.5 2041.38,-152.5 2041.38,-152.5 2233.62,-152.5 2233.62,-152.5 2239.62,-152.5 2245.62,-158.5 2245.62,-164.5 2245.62,-164.5 2245.62,-176.5 2245.62,-176.5 2245.62,-182.5 2239.62,-188.5 2233.62,-188.5"/>
<text text-anchor="middle" x="2137.5" y="-165.82" font-family="Helvetica,sans-Serif" font-size="14.00">Save Focused XYE: dSpacing</text>
</g>
<!-- alg_SaveNexusProcessedSummed_trans -->
<g id="node32" class="node">
<title>alg_SaveNexusProcessedSummed_trans</title>
<path fill="lightskyblue" stroke="black" d="M2248.25,-115.5C2248.25,-115.5 2026.75,-115.5 2026.75,-115.5 2020.75,-115.5 2014.75,-109.5 2014.75,-103.5 2014.75,-103.5 2014.75,-91.5 2014.75,-91.5 2014.75,-85.5 2020.75,-79.5 2026.75,-79.5 2026.75,-79.5 2248.25,-79.5 2248.25,-79.5 2254.25,-79.5 2260.25,-85.5 2260.25,-91.5 2260.25,-91.5 2260.25,-103.5 2260.25,-103.5 2260.25,-109.5 2254.25,-115.5 2248.25,-115.5"/>
<text text-anchor="middle" x="2137.5" y="-92.83" font-family="Helvetica,sans-Serif" font-size="14.00">Save Nexus Processed: dSpacing</text>
</g>
<!-- alg_SaveFocusedXyeDSummed_trans&#45;&gt;alg_SaveNexusProcessedSummed_trans -->
<g id="edge31" class="edge">
<title>alg_SaveFocusedXyeDSummed_trans&#45;&gt;alg_SaveNexusProcessedSummed_trans</title>
<path fill="none" stroke="black" d="M2137.5,-152.31C2137.5,-144.73 2137.5,-135.6 2137.5,-127.04"/>
<polygon fill="black" stroke="black" points="2141,-127.04 2137.5,-117.04 2134,-127.04 2141,-127.04"/>
</g>
<!-- alg_SaveFocusedXyeTOFSummed_trans&#45;&gt;alg_SaveFocusedXyeDSummed_trans -->
<g id="edge30" class="edge">
<title>alg_SaveFocusedXyeTOFSummed_trans&#45;&gt;alg_SaveFocusedXyeDSummed_trans</title>
<path fill="none" stroke="black" d="M2137.5,-228.53C2137.5,-220.16 2137.5,-209.86 2137.5,-200.34"/>
<polygon fill="black" stroke="black" points="2141,-200.4 2137.5,-190.4 2134,-200.4 2141,-200.4"/>
</g>
<!-- alg_SaveNexusProcessed_trans -->
<g id="node33" class="node">
<title>alg_SaveNexusProcessed_trans</title>
<path fill="lightskyblue" stroke="black" d="M2291,-42.5C2291,-42.5 1984,-42.5 1984,-42.5 1978,-42.5 1972,-36.5 1972,-30.5 1972,-30.5 1972,-12 1972,-12 1972,-6 1978,0 1984,0 1984,0 2291,0 2291,0 2297,0 2303,-6 2303,-12 2303,-12 2303,-30.5 2303,-30.5 2303,-36.5 2297,-42.5 2291,-42.5"/>
<text text-anchor="middle" x="2137.5" y="-25.2" font-family="Helvetica,sans-Serif" font-size="14.00">Save Nexus Processed: dSpacing</text>
<text text-anchor="middle" x="2137.5" y="-7.95" font-family="Helvetica,sans-Serif" font-size="14.00"> Appending banks 1&#45;10 (inc.) to merged runs</text>
</g>
<!-- alg_SaveNexusProcessedSummed_trans&#45;&gt;alg_SaveNexusProcessed_trans -->
<g id="edge32" class="edge">
<title>alg_SaveNexusProcessedSummed_trans&#45;&gt;alg_SaveNexusProcessed_trans</title>
<path fill="none" stroke="black" d="M2137.5,-79.28C2137.5,-71.8 2137.5,-62.79 2137.5,-54.16"/>
<polygon fill="black" stroke="black" points="2141,-54.32 2137.5,-44.32 2134,-54.32 2141,-54.32"/>
</g>
<!-- alg_ConvertToHistogram -->
<g id="node34" class="node">
<title>alg_ConvertToHistogram</title>
<path fill="lightskyblue" stroke="black" d="M2520.5,-592.5C2520.5,-592.5 2378.5,-592.5 2378.5,-592.5 2372.5,-592.5 2366.5,-586.5 2366.5,-580.5 2366.5,-580.5 2366.5,-568.5 2366.5,-568.5 2366.5,-562.5 2372.5,-556.5 2378.5,-556.5 2378.5,-556.5 2520.5,-556.5 2520.5,-556.5 2526.5,-556.5 2532.5,-562.5 2532.5,-568.5 2532.5,-568.5 2532.5,-580.5 2532.5,-580.5 2532.5,-586.5 2526.5,-592.5 2520.5,-592.5"/>
<text text-anchor="middle" x="2449.5" y="-569.83" font-family="Helvetica,sans-Serif" font-size="14.00">Convert To Histogram</text>
</g>
<!-- alg_ConvertUnits -->
<g id="node35" class="node">
<title>alg_ConvertUnits</title>
<path fill="lightskyblue" stroke="black" d="M2589.12,-516.25C2589.12,-516.25 2309.88,-516.25 2309.88,-516.25 2303.88,-516.25 2297.88,-510.25 2297.88,-504.25 2297.88,-504.25 2297.88,-485.75 2297.88,-485.75 2297.88,-479.75 2303.88,-473.75 2309.88,-473.75 2309.88,-473.75 2589.12,-473.75 2589.12,-473.75 2595.12,-473.75 2601.12,-479.75 2601.12,-485.75 2601.12,-485.75 2601.12,-504.25 2601.12,-504.25 2601.12,-510.25 2595.12,-516.25 2589.12,-516.25"/>
<text text-anchor="middle" x="2449.5" y="-498.95" font-family="Helvetica,sans-Serif" font-size="14.00">Convert Units:</text>
<text text-anchor="middle" x="2449.5" y="-481.7" font-family="Helvetica,sans-Serif" font-size="14.00"> Match the loaded attenuation workspace</text>
</g>
<!-- alg_ConvertToHistogram&#45;&gt;alg_ConvertUnits -->
<g id="edge36" class="edge">
<title>alg_ConvertToHistogram&#45;&gt;alg_ConvertUnits</title>
<path fill="none" stroke="black" d="M2449.5,-556.3C2449.5,-547.99 2449.5,-537.75 2449.5,-528.08"/>
<polygon fill="black" stroke="black" points="2453,-528.25 2449.5,-518.25 2446,-528.25 2453,-528.25"/>
</g>
<!-- alg_RebinWorkspace -->
<g id="node39" class="node">
<title>alg_RebinWorkspace</title>
<path fill="lightskyblue" stroke="black" d="M2632.62,-420.5C2632.62,-420.5 2266.38,-420.5 2266.38,-420.5 2260.38,-420.5 2254.38,-414.5 2254.38,-408.5 2254.38,-408.5 2254.38,-390 2254.38,-390 2254.38,-384 2260.38,-378 2266.38,-378 2266.38,-378 2632.62,-378 2632.62,-378 2638.62,-378 2644.62,-384 2644.62,-390 2644.62,-390 2644.62,-408.5 2644.62,-408.5 2644.62,-414.5 2638.62,-420.5 2632.62,-420.5"/>
<text text-anchor="middle" x="2449.5" y="-403.2" font-family="Helvetica,sans-Serif" font-size="14.00">Rebin:</text>
<text text-anchor="middle" x="2449.5" y="-385.95" font-family="Helvetica,sans-Serif" font-size="14.00"> Attenuated workspace to match workspace to correct</text>
</g>
<!-- alg_ConvertUnits&#45;&gt;alg_RebinWorkspace -->
<g id="edge37" class="edge">
<title>alg_ConvertUnits&#45;&gt;alg_RebinWorkspace</title>
<path fill="none" stroke="black" d="M2449.5,-473.66C2449.5,-461.58 2449.5,-445.99 2449.5,-432.3"/>
<polygon fill="black" stroke="black" points="2453,-432.39 2449.5,-422.39 2446,-432.39 2453,-432.39"/>
</g>
<!-- alg_ConvertUnitsOriginal -->
<g id="node36" class="node">
<title>alg_ConvertUnitsOriginal</title>
<path fill="lightskyblue" stroke="black" d="M2541.5,-268C2541.5,-268 2357.5,-268 2357.5,-268 2351.5,-268 2345.5,-262 2345.5,-256 2345.5,-256 2345.5,-237.5 2345.5,-237.5 2345.5,-231.5 2351.5,-225.5 2357.5,-225.5 2357.5,-225.5 2541.5,-225.5 2541.5,-225.5 2547.5,-225.5 2553.5,-231.5 2553.5,-237.5 2553.5,-237.5 2553.5,-256 2553.5,-256 2553.5,-262 2547.5,-268 2541.5,-268"/>
<text text-anchor="middle" x="2449.5" y="-250.7" font-family="Helvetica,sans-Serif" font-size="14.00">Convert Units:</text>
<text text-anchor="middle" x="2449.5" y="-233.45" font-family="Helvetica,sans-Serif" font-size="14.00"> Back to original input units</text>
</g>
<!-- alg_Divide -->
<g id="node37" class="node">
<title>alg_Divide</title>
<path fill="lightskyblue" stroke="black" d="M2585.75,-341C2585.75,-341 2313.25,-341 2313.25,-341 2307.25,-341 2301.25,-335 2301.25,-329 2301.25,-329 2301.25,-317 2301.25,-317 2301.25,-311 2307.25,-305 2313.25,-305 2313.25,-305 2585.75,-305 2585.75,-305 2591.75,-305 2597.75,-311 2597.75,-317 2597.75,-317 2597.75,-329 2597.75,-329 2597.75,-335 2591.75,-341 2585.75,-341"/>
<text text-anchor="middle" x="2449.5" y="-318.32" font-family="Helvetica,sans-Serif" font-size="14.00">Divide: Data Ws / Attenuated Workspace</text>
</g>
<!-- alg_Divide&#45;&gt;alg_ConvertUnitsOriginal -->
<g id="edge39" class="edge">
<title>alg_Divide&#45;&gt;alg_ConvertUnitsOriginal</title>
<path fill="none" stroke="black" d="M2449.5,-304.78C2449.5,-297.3 2449.5,-288.29 2449.5,-279.66"/>
<polygon fill="black" stroke="black" points="2453,-279.82 2449.5,-269.82 2446,-279.82 2453,-279.82"/>
</g>
<!-- alg_PearlMCAbsorption&#45;&gt;alg_ConvertToHistogram -->
<g id="edge35" class="edge">
<title>alg_PearlMCAbsorption&#45;&gt;alg_ConvertToHistogram</title>
<path fill="none" stroke="black" d="M2449.5,-635.8C2449.5,-626.53 2449.5,-614.86 2449.5,-604.25"/>
<polygon fill="black" stroke="black" points="2453,-604.43 2449.5,-594.43 2446,-604.43 2453,-604.43"/>
</g>
<!-- alg_RebinWorkspace&#45;&gt;alg_Divide -->
<g id="edge38" class="edge">
<title>alg_RebinWorkspace&#45;&gt;alg_Divide</title>
<path fill="none" stroke="black" d="M2449.5,-377.57C2449.5,-369.75 2449.5,-360.72 2449.5,-352.32"/>
<polygon fill="black" stroke="black" points="2453,-352.58 2449.5,-342.58 2446,-352.58 2453,-352.58"/>
</g>
<!-- if_attenuatePearl_all&#45;&gt;proc_attenuatePearl_all -->
<g id="edge5" class="edge">
<title>if_attenuatePearl_all&#45;&gt;proc_attenuatePearl_all</title>
<path fill="none" stroke="black" d="M587.38,-478.1C581.19,-464.3 572.11,-444.02 564.76,-427.62"/>
<polygon fill="black" stroke="black" points="568.13,-426.58 560.85,-418.89 561.74,-429.44 568.13,-426.58"/>
<text text-anchor="middle" x="592.5" y="-442.45" font-family="Helvetica,sans-Serif" font-size="14.00">True</text>
</g>
<!-- if_attenuatePearl_all&#45;&gt;alg_SaveGssSummed_all -->
<g id="edge7" class="edge">
<title>if_attenuatePearl_all&#45;&gt;alg_SaveGssSummed_all</title>
<path fill="none" stroke="black" d="M614.18,-480.29C631.14,-467.18 654.42,-445.7 664.5,-420.5 673.28,-398.56 668.32,-371.85 661.99,-352.1"/>
<polygon fill="black" stroke="black" points="665.34,-351.06 658.71,-342.79 658.74,-353.38 665.34,-351.06"/>
<text text-anchor="middle" x="686.75" y="-394.57" font-family="Helvetica,sans-Serif" font-size="14.00">False</text>
</g>
<!-- if_attenuatePearl_trans&#45;&gt;proc_attenuatePearl_trans -->
<g id="edge26" class="edge">
<title>if_attenuatePearl_trans&#45;&gt;proc_attenuatePearl_trans</title>
<path fill="none" stroke="black" d="M2092.25,-478.94C2081.69,-464.79 2065.66,-443.32 2053.01,-426.37"/>
<polygon fill="black" stroke="black" points="2056.08,-424.63 2047.29,-418.72 2050.47,-428.82 2056.08,-424.63"/>
<text text-anchor="middle" x="2090.5" y="-442.45" font-family="Helvetica,sans-Serif" font-size="14.00">True</text>
</g>
<!-- if_attenuatePearl_trans&#45;&gt;alg_SaveGssSummed_trans -->
<g id="edge27" class="edge">
<title>if_attenuatePearl_trans&#45;&gt;alg_SaveGssSummed_trans</title>
<path fill="none" stroke="black" d="M2115.42,-478.71C2125.67,-464.53 2139.69,-442.37 2145.5,-420.5 2151.43,-398.16 2148.69,-371.99 2144.87,-352.54"/>
<polygon fill="black" stroke="black" points="2148.31,-351.89 2142.75,-342.87 2141.47,-353.39 2148.31,-351.89"/>
<text text-anchor="middle" x="2166.75" y="-394.57" font-family="Helvetica,sans-Serif" font-size="14.00">False</text>
</g>
</g>
</svg>
