<?xml version="1.0" encoding="UTF-8" standalone="no"?>
<!DOCTYPE svg PUBLIC "-//W3C//DTD SVG 1.1//EN"
 "http://www.w3.org/Graphics/SVG/1.1/DTD/svg11.dtd">
<!-- Generated by graphviz version 11.0.0 (20240519.1550)
 -->
<!-- Title: LoadEventAndCompress Pages: 1 -->
<svg width="402pt" height="538pt"
 viewBox="0.00 0.00 402.24 537.75" xmlns="http://www.w3.org/2000/svg" xmlns:xlink="http://www.w3.org/1999/xlink">
<g id="graph0" class="graph" transform="scale(1 1) rotate(0) translate(4 533.75)">
<title>LoadEventAndCompress</title>
<polygon fill="white" stroke="none" points="-4,4 -4,-533.75 398.24,-533.75 398.24,4 -4,4"/>
<text text-anchor="middle" x="197.12" y="-512.45" font-family="Helvetica,sans-Serif" font-size="14.00">LoadEventAndCompress Flowchart</text>
<!-- file1 -->
<g id="node1" class="node">
<title>file1</title>
<ellipse fill="khaki" stroke="black" cx="101.88" cy="-486.5" rx="54.36" ry="18"/>
<text text-anchor="middle" x="101.88" y="-481.82" font-family="Helvetica,sans-Serif" font-size="14.00">Filename</text>
</g>
<!-- determineChunking -->
<g id="node8" class="node">
<title>determineChunking</title>
<path fill="lightskyblue" stroke="black" d="M255.13,-432.5C255.13,-432.5 102.63,-432.5 102.63,-432.5 96.63,-432.5 90.63,-426.5 90.63,-420.5 90.63,-420.5 90.63,-408.5 90.63,-408.5 90.63,-402.5 96.63,-396.5 102.63,-396.5 102.63,-396.5 255.13,-396.5 255.13,-396.5 261.13,-396.5 267.13,-402.5 267.13,-408.5 267.13,-408.5 267.13,-420.5 267.13,-420.5 267.13,-426.5 261.13,-432.5 255.13,-432.5"/>
<text text-anchor="middle" x="178.88" y="-409.82" font-family="Helvetica,sans-Serif" font-size="14.00">DetermineChunking v1</text>
</g>
<!-- file1&#45;&gt;determineChunking -->
<g id="edge1" class="edge">
<title>file1&#45;&gt;determineChunking</title>
<path fill="none" stroke="black" d="M119.74,-469.26C129.11,-460.75 140.8,-450.12 151.3,-440.57"/>
<polygon fill="black" stroke="black" points="153.61,-443.21 158.65,-433.89 148.9,-438.03 153.61,-443.21"/>
</g>
<!-- file2 -->
<g id="node2" class="node">
<title>file2</title>
<ellipse fill="khaki" stroke="black" cx="339.88" cy="-414.5" rx="54.36" ry="18"/>
<text text-anchor="middle" x="339.88" y="-409.82" font-family="Helvetica,sans-Serif" font-size="14.00">Filename</text>
</g>
<!-- loadEventNexus -->
<g id="node6" class="node">
<title>loadEventNexus</title>
<path fill="lightskyblue" stroke="black" d="M329.88,-343.25C329.88,-343.25 199.88,-343.25 199.88,-343.25 193.88,-343.25 187.88,-337.25 187.88,-331.25 187.88,-331.25 187.88,-319.25 187.88,-319.25 187.88,-313.25 193.88,-307.25 199.88,-307.25 199.88,-307.25 329.88,-307.25 329.88,-307.25 335.88,-307.25 341.88,-313.25 341.88,-319.25 341.88,-319.25 341.88,-331.25 341.88,-331.25 341.88,-337.25 335.88,-343.25 329.88,-343.25"/>
<text text-anchor="middle" x="264.88" y="-320.57" font-family="Helvetica,sans-Serif" font-size="14.00">LoadEventNexus v1</text>
</g>
<!-- file2&#45;&gt;loadEventNexus -->
<g id="edge3" class="edge">
<title>file2&#45;&gt;loadEventNexus</title>
<path fill="none" stroke="black" d="M333,-396.33C328.13,-385.52 320.88,-371.7 311.88,-361.25 308.74,-357.61 305.16,-354.12 301.41,-350.85"/>
<polygon fill="black" stroke="black" points="303.63,-348.14 293.64,-344.6 299.24,-353.6 303.63,-348.14"/>
</g>
<!-- OutputWorkspace -->
<g id="node3" class="node">
<title>OutputWorkspace</title>
<ellipse fill="khaki" stroke="black" cx="211.88" cy="-18" rx="98.56" ry="18"/>
<text text-anchor="middle" x="211.88" y="-13.32" font-family="Helvetica,sans-Serif" font-size="14.00">OutputWorkspace</text>
</g>
<!-- MaxChunkSize -->
<g id="node4" class="node">
<title>MaxChunkSize</title>
<ellipse fill="khaki" stroke="black" cx="256.88" cy="-486.5" rx="82.77" ry="18"/>
<text text-anchor="middle" x="256.88" y="-481.82" font-family="Helvetica,sans-Serif" font-size="14.00">MaxChunkSize</text>
</g>
<!-- MaxChunkSize&#45;&gt;determineChunking -->
<g id="edge2" class="edge">
<title>MaxChunkSize&#45;&gt;determineChunking</title>
<path fill="none" stroke="black" d="M238,-468.55C228.56,-460.08 216.95,-449.67 206.53,-440.32"/>
<polygon fill="black" stroke="black" points="209.04,-437.86 199.26,-433.79 204.36,-443.07 209.04,-437.86"/>
</g>
<!-- FilterBadPulses -->
<g id="node5" class="node">
<title>FilterBadPulses</title>
<ellipse fill="khaki" stroke="black" cx="84.88" cy="-325.25" rx="84.88" ry="18"/>
<text text-anchor="middle" x="84.88" y="-320.57" font-family="Helvetica,sans-Serif" font-size="14.00">FilterBadPulses</text>
</g>
<!-- filterBadPulses -->
<g id="node9" class="node">
<title>filterBadPulses</title>
<path fill="lightskyblue" stroke="black" d="M219.25,-270.25C219.25,-270.25 100.5,-270.25 100.5,-270.25 94.5,-270.25 88.5,-264.25 88.5,-258.25 88.5,-258.25 88.5,-246.25 88.5,-246.25 88.5,-240.25 94.5,-234.25 100.5,-234.25 100.5,-234.25 219.25,-234.25 219.25,-234.25 225.25,-234.25 231.25,-240.25 231.25,-246.25 231.25,-246.25 231.25,-258.25 231.25,-258.25 231.25,-264.25 225.25,-270.25 219.25,-270.25"/>
<text text-anchor="middle" x="159.88" y="-247.57" font-family="Helvetica,sans-Serif" font-size="14.00">FilterBadPulses v1</text>
</g>
<!-- FilterBadPulses&#45;&gt;filterBadPulses -->
<g id="edge6" class="edge">
<title>FilterBadPulses&#45;&gt;filterBadPulses</title>
<path fill="none" stroke="black" d="M102.65,-307.42C111.79,-298.77 123.11,-288.06 133.27,-278.44"/>
<polygon fill="black" stroke="black" points="135.49,-281.15 140.35,-271.74 130.68,-276.07 135.49,-281.15"/>
</g>
<!-- loadEventNexus&#45;&gt;filterBadPulses -->
<g id="edge5" class="edge">
<title>loadEventNexus&#45;&gt;filterBadPulses</title>
<path fill="none" stroke="black" d="M239.19,-306.88C225.85,-297.86 209.34,-286.69 194.84,-276.89"/>
<polygon fill="black" stroke="black" points="197.16,-274.24 186.92,-271.53 193.24,-280.03 197.16,-274.24"/>
</g>
<!-- compressEvents -->
<g id="node7" class="node">
<title>compressEvents</title>
<path fill="lightskyblue" stroke="black" d="M224.88,-181C224.88,-181 94.88,-181 94.88,-181 88.88,-181 82.88,-175 82.88,-169 82.88,-169 82.88,-157 82.88,-157 82.88,-151 88.88,-145 94.88,-145 94.88,-145 224.88,-145 224.88,-145 230.88,-145 236.88,-151 236.88,-157 236.88,-157 236.88,-169 236.88,-169 236.88,-175 230.88,-181 224.88,-181"/>
<text text-anchor="middle" x="159.88" y="-158.32" font-family="Helvetica,sans-Serif" font-size="14.00">CompressEvents v1</text>
</g>
<!-- plus -->
<g id="node10" class="node">
<title>plus</title>
<path fill="lightskyblue" stroke="black" d="M233,-108C233,-108 190.75,-108 190.75,-108 184.75,-108 178.75,-102 178.75,-96 178.75,-96 178.75,-84 178.75,-84 178.75,-78 184.75,-72 190.75,-72 190.75,-72 233,-72 233,-72 239,-72 245,-78 245,-84 245,-84 245,-96 245,-96 245,-102 239,-108 233,-108"/>
<text text-anchor="middle" x="211.88" y="-85.33" font-family="Helvetica,sans-Serif" font-size="14.00">Plus v1</text>
</g>
<!-- compressEvents&#45;&gt;plus -->
<g id="edge8" class="edge">
<title>compressEvents&#45;&gt;plus</title>
<path fill="none" stroke="black" d="M172.47,-144.81C178.53,-136.53 185.94,-126.41 192.7,-117.19"/>
<polygon fill="black" stroke="black" points="195.43,-119.39 198.51,-109.25 189.78,-115.25 195.43,-119.39"/>
</g>
<!-- determineChunking&#45;&gt;loadEventNexus -->
<g id="edge4" class="edge">
<title>determineChunking&#45;&gt;loadEventNexus</title>
<path fill="none" stroke="black" d="M178.21,-396.34C178.64,-385.27 180.91,-371.15 188.63,-361.25 191.98,-356.95 195.98,-353.17 200.37,-349.83"/>
<polygon fill="black" stroke="black" points="202.14,-352.85 208.57,-344.43 198.29,-347.01 202.14,-352.85"/>
<text text-anchor="middle" x="248.5" y="-365.2" font-family="Helvetica,sans-Serif" font-size="14.00">loop over chunks</text>
</g>
<!-- filterBadPulses&#45;&gt;compressEvents -->
<g id="edge7" class="edge">
<title>filterBadPulses&#45;&gt;compressEvents</title>
<path fill="none" stroke="black" d="M159.88,-234.01C159.88,-222.18 159.88,-206.2 159.88,-192.5"/>
<polygon fill="black" stroke="black" points="163.38,-192.72 159.88,-182.72 156.38,-192.72 163.38,-192.72"/>
</g>
<!-- plus&#45;&gt;OutputWorkspace -->
<g id="edge10" class="edge">
<title>plus&#45;&gt;OutputWorkspace</title>
<path fill="none" stroke="black" d="M211.88,-71.7C211.88,-64.41 211.88,-55.73 211.88,-47.54"/>
<polygon fill="black" stroke="black" points="215.38,-47.62 211.88,-37.62 208.38,-47.62 215.38,-47.62"/>
</g>
<!-- plus&#45;&gt;loadEventNexus -->
<g id="edge9" class="edge">
<title>plus&#45;&gt;loadEventNexus</title>
<path fill="none" stroke="black" d="M225.74,-108.43C233,-118.52 241.31,-131.81 245.88,-145 263.56,-196 266.04,-259.66 265.78,-295.76"/>
<polygon fill="black" stroke="black" points="262.28,-295.32 265.63,-305.37 269.28,-295.43 262.28,-295.32"/>
<text text-anchor="middle" x="301" y="-202.95" font-family="Helvetica,sans-Serif" font-size="14.00">accumulate</text>
</g>
</g>
</svg>
