<?xml version="1.0" encoding="UTF-8" standalone="no"?>
<!DOCTYPE svg PUBLIC "-//W3C//DTD SVG 1.1//EN"
 "http://www.w3.org/Graphics/SVG/1.1/DTD/svg11.dtd">
<!-- Generated by graphviz version 7.1.0 (20230122.1345)
 -->
<!-- Title: LoadEventAndCompress Pages: 1 -->
<svg width="386pt" height="533pt"
 viewBox="0.00 0.00 385.99 533.00" xmlns="http://www.w3.org/2000/svg" xmlns:xlink="http://www.w3.org/1999/xlink">
<g id="graph0" class="graph" transform="scale(1 1) rotate(0) translate(4 529)">
<title>LoadEventAndCompress</title>
<polygon fill="white" stroke="none" points="-4,4 -4,-529 381.99,-529 381.99,4 -4,4"/>
<text text-anchor="middle" x="188.99" y="-509.8" font-family="Helvetica,sans-Serif" font-size="14.00">LoadEventAndCompress Flowchart</text>
<!-- file1 -->
<g id="node1" class="node">
<title>file1</title>
<ellipse fill="khaki" stroke="black" cx="97.29" cy="-484" rx="50.89" ry="18"/>
<text text-anchor="middle" x="97.29" y="-480.3" font-family="Helvetica,sans-Serif" font-size="14.00">Filename</text>
</g>
<!-- determineChunking -->
<g id="node8" class="node">
<title>determineChunking</title>
<path fill="lightskyblue" stroke="black" d="M246.79,-429C246.79,-429 93.79,-429 93.79,-429 87.79,-429 81.79,-423 81.79,-417 81.79,-417 81.79,-405 81.79,-405 81.79,-399 87.79,-393 93.79,-393 93.79,-393 246.79,-393 246.79,-393 252.79,-393 258.79,-399 258.79,-405 258.79,-405 258.79,-417 258.79,-417 258.79,-423 252.79,-429 246.79,-429"/>
<text text-anchor="middle" x="170.29" y="-407.3" font-family="Helvetica,sans-Serif" font-size="14.00">DetermineChunking v1</text>
</g>
<!-- file1&#45;&gt;determineChunking -->
<g id="edge1" class="edge">
<title>file1&#45;&gt;determineChunking</title>
<path fill="none" stroke="black" d="M113.86,-466.89C122.86,-458.13 134.2,-447.1 144.35,-437.23"/>
<polygon fill="black" stroke="black" points="146.7,-439.82 151.43,-430.34 141.82,-434.81 146.7,-439.82"/>
</g>
<!-- file2 -->
<g id="node2" class="node">
<title>file2</title>
<ellipse fill="khaki" stroke="black" cx="327.29" cy="-411" rx="50.89" ry="18"/>
<text text-anchor="middle" x="327.29" y="-407.3" font-family="Helvetica,sans-Serif" font-size="14.00">Filename</text>
</g>
<!-- loadEventNexus -->
<g id="node6" class="node">
<title>loadEventNexus</title>
<path fill="lightskyblue" stroke="black" d="M319.79,-342C319.79,-342 188.79,-342 188.79,-342 182.79,-342 176.79,-336 176.79,-330 176.79,-330 176.79,-318 176.79,-318 176.79,-312 182.79,-306 188.79,-306 188.79,-306 319.79,-306 319.79,-306 325.79,-306 331.79,-312 331.79,-318 331.79,-318 331.79,-330 331.79,-330 331.79,-336 325.79,-342 319.79,-342"/>
<text text-anchor="middle" x="254.29" y="-320.3" font-family="Helvetica,sans-Serif" font-size="14.00">LoadEventNexus v1</text>
</g>
<!-- file2&#45;&gt;loadEventNexus -->
<g id="edge3" class="edge">
<title>file2&#45;&gt;loadEventNexus</title>
<path fill="none" stroke="black" d="M322.43,-392.96C318.88,-382.63 313.28,-369.64 305.29,-360 302.08,-356.13 298.34,-352.5 294.37,-349.16"/>
<polygon fill="black" stroke="black" points="296.7,-346.53 286.63,-343.24 292.44,-352.09 296.7,-346.53"/>
</g>
<!-- OutputWorkspace -->
<g id="node3" class="node">
<title>OutputWorkspace</title>
<ellipse fill="khaki" stroke="black" cx="201.29" cy="-18" rx="91.78" ry="18"/>
<text text-anchor="middle" x="201.29" y="-14.3" font-family="Helvetica,sans-Serif" font-size="14.00">OutputWorkspace</text>
</g>
<!-- MaxChunkSize -->
<g id="node4" class="node">
<title>MaxChunkSize</title>
<ellipse fill="khaki" stroke="black" cx="243.29" cy="-484" rx="77.19" ry="18"/>
<text text-anchor="middle" x="243.29" y="-480.3" font-family="Helvetica,sans-Serif" font-size="14.00">MaxChunkSize</text>
</g>
<!-- MaxChunkSize&#45;&gt;determineChunking -->
<g id="edge2" class="edge">
<title>MaxChunkSize&#45;&gt;determineChunking</title>
<path fill="none" stroke="black" d="M225.99,-466.17C217.1,-457.52 206.08,-446.81 196.2,-437.19"/>
<polygon fill="black" stroke="black" points="198.92,-434.97 189.32,-430.5 194.04,-439.98 198.92,-434.97"/>
</g>
<!-- FilterBadPulses -->
<g id="node5" class="node">
<title>FilterBadPulses</title>
<ellipse fill="khaki" stroke="black" cx="79.29" cy="-324" rx="79.09" ry="18"/>
<text text-anchor="middle" x="79.29" y="-320.3" font-family="Helvetica,sans-Serif" font-size="14.00">FilterBadPulses</text>
</g>
<!-- filterBadPulses -->
<g id="node9" class="node">
<title>filterBadPulses</title>
<path fill="lightskyblue" stroke="black" d="M207.79,-269C207.79,-269 88.79,-269 88.79,-269 82.79,-269 76.79,-263 76.79,-257 76.79,-257 76.79,-245 76.79,-245 76.79,-239 82.79,-233 88.79,-233 88.79,-233 207.79,-233 207.79,-233 213.79,-233 219.79,-239 219.79,-245 219.79,-245 219.79,-257 219.79,-257 219.79,-263 213.79,-269 207.79,-269"/>
<text text-anchor="middle" x="148.29" y="-247.3" font-family="Helvetica,sans-Serif" font-size="14.00">FilterBadPulses v1</text>
</g>
<!-- FilterBadPulses&#45;&gt;filterBadPulses -->
<g id="edge6" class="edge">
<title>FilterBadPulses&#45;&gt;filterBadPulses</title>
<path fill="none" stroke="black" d="M95.65,-306.17C103.97,-297.61 114.26,-287.02 123.53,-277.48"/>
<polygon fill="black" stroke="black" points="125.82,-280.14 130.28,-270.53 120.8,-275.26 125.82,-280.14"/>
</g>
<!-- loadEventNexus&#45;&gt;filterBadPulses -->
<g id="edge5" class="edge">
<title>loadEventNexus&#45;&gt;filterBadPulses</title>
<path fill="none" stroke="black" d="M228.36,-305.63C214.89,-296.61 198.22,-285.44 183.59,-275.64"/>
<polygon fill="black" stroke="black" points="185.84,-272.93 175.58,-270.28 181.94,-278.75 185.84,-272.93"/>
</g>
<!-- compressEvents -->
<g id="node7" class="node">
<title>compressEvents</title>
<path fill="lightskyblue" stroke="black" d="M213.79,-182C213.79,-182 82.79,-182 82.79,-182 76.79,-182 70.79,-176 70.79,-170 70.79,-170 70.79,-158 70.79,-158 70.79,-152 76.79,-146 82.79,-146 82.79,-146 213.79,-146 213.79,-146 219.79,-146 225.79,-152 225.79,-158 225.79,-158 225.79,-170 225.79,-170 225.79,-176 219.79,-182 213.79,-182"/>
<text text-anchor="middle" x="148.29" y="-160.3" font-family="Helvetica,sans-Serif" font-size="14.00">CompressEvents v1</text>
</g>
<!-- plus -->
<g id="node10" class="node">
<title>plus</title>
<path fill="lightskyblue" stroke="black" d="M222.79,-109C222.79,-109 179.79,-109 179.79,-109 173.79,-109 167.79,-103 167.79,-97 167.79,-97 167.79,-85 167.79,-85 167.79,-79 173.79,-73 179.79,-73 179.79,-73 222.79,-73 222.79,-73 228.79,-73 234.79,-79 234.79,-85 234.79,-85 234.79,-97 234.79,-97 234.79,-103 228.79,-109 222.79,-109"/>
<text text-anchor="middle" x="201.29" y="-87.3" font-family="Helvetica,sans-Serif" font-size="14.00">Plus v1</text>
</g>
<!-- compressEvents&#45;&gt;plus -->
<g id="edge8" class="edge">
<title>compressEvents&#45;&gt;plus</title>
<path fill="none" stroke="black" d="M161.12,-145.81C167.31,-137.53 174.86,-127.41 181.74,-118.19"/>
<polygon fill="black" stroke="black" points="184.5,-120.35 187.68,-110.24 178.89,-116.16 184.5,-120.35"/>
</g>
<!-- determineChunking&#45;&gt;loadEventNexus -->
<g id="edge4" class="edge">
<title>determineChunking&#45;&gt;loadEventNexus</title>
<path fill="none" stroke="black" d="M170.41,-392.64C171.31,-382.2 174.01,-369.2 181.29,-360 184.66,-355.75 188.67,-351.98 193.06,-348.66"/>
<polygon fill="black" stroke="black" points="194.82,-351.69 201.23,-343.25 190.96,-345.85 194.82,-351.69"/>
<text text-anchor="middle" x="241.29" y="-363.8" font-family="Helvetica,sans-Serif" font-size="14.00">loop over chunks</text>
</g>
<!-- filterBadPulses&#45;&gt;compressEvents -->
<g id="edge7" class="edge">
<title>filterBadPulses&#45;&gt;compressEvents</title>
<path fill="none" stroke="black" d="M148.29,-232.8C148.29,-221.58 148.29,-206.67 148.29,-193.69"/>
<polygon fill="black" stroke="black" points="151.79,-193.98 148.29,-183.98 144.79,-193.98 151.79,-193.98"/>
</g>
<!-- plus&#45;&gt;OutputWorkspace -->
<g id="edge10" class="edge">
<title>plus&#45;&gt;OutputWorkspace</title>
<path fill="none" stroke="black" d="M201.29,-72.81C201.29,-65.23 201.29,-56.1 201.29,-47.54"/>
<polygon fill="black" stroke="black" points="204.79,-47.54 201.29,-37.54 197.79,-47.54 204.79,-47.54"/>
</g>
<!-- plus&#45;&gt;loadEventNexus -->
<g id="edge9" class="edge">
<title>plus&#45;&gt;loadEventNexus</title>
<path fill="none" stroke="black" d="M215.15,-109.43C222.4,-119.53 230.71,-132.81 235.29,-146 252.67,-196.01 255.3,-258.35 255.14,-294.12"/>
<polygon fill="black" stroke="black" points="251.64,-294.04 255,-304.09 258.64,-294.14 251.64,-294.04"/>
<text text-anchor="middle" x="290.79" y="-203.8" font-family="Helvetica,sans-Serif" font-size="14.00">accumulate</text>
</g>
</g>
</svg>
