<?xml version="1.0" encoding="UTF-8" standalone="no"?>
<!DOCTYPE svg PUBLIC "-//W3C//DTD SVG 1.1//EN"
 "http://www.w3.org/Graphics/SVG/1.1/DTD/svg11.dtd">
<!-- Generated by graphviz version 13.1.2 (20250809.0930)
 -->
<!-- Title: LoadWANDSCD Pages: 1 -->
<svg width="1051pt" height="758pt"
 viewBox="0.00 0.00 1051.00 758.00" xmlns="http://www.w3.org/2000/svg" xmlns:xlink="http://www.w3.org/1999/xlink">
<g id="graph0" class="graph" transform="scale(1 1) rotate(0) translate(4 753.5)">
<title>LoadWANDSCD</title>
<polygon fill="white" stroke="none" points="-4,4 -4,-753.5 1046.63,-753.5 1046.63,4 -4,4"/>
<!-- param_data -->
<g id="node1" class="node">
<title>param_data</title>
<ellipse fill="khaki" stroke="black" cx="351.88" cy="-707.5" rx="130.65" ry="18"/>
<text xml:space="preserve" text-anchor="middle" x="351.88" y="-702.83" font-family="Helvetica,sans-Serif" font-size="14.00">Data File(s), IPTS+run(s)</text>
</g>
<!-- load_and_group -->
<g id="node12" class="node">
<title>load_and_group</title>
<polygon fill="lightseagreen" stroke="black" points="415.01,-652.5 288.76,-652.5 288.76,-616.5 415.01,-616.5 415.01,-652.5"/>
<text xml:space="preserve" text-anchor="middle" x="351.88" y="-629.83" font-family="Helvetica,sans-Serif" font-size="14.00">Load and Group</text>
</g>
<!-- param_data&#45;&gt;load_and_group -->
<g id="edge1" class="edge">
<title>param_data&#45;&gt;load_and_group</title>
<path fill="none" stroke="black" d="M351.88,-689.31C351.88,-681.73 351.88,-672.6 351.88,-664.04"/>
<polygon fill="black" stroke="black" points="355.38,-664.04 351.88,-654.04 348.38,-664.04 355.38,-664.04"/>
</g>
<!-- param_vanadium -->
<g id="node2" class="node">
<title>param_vanadium</title>
<ellipse fill="khaki" stroke="black" cx="215.88" cy="-326.25" rx="215.88" ry="18"/>
<text xml:space="preserve" text-anchor="middle" x="215.88" y="-321.57" font-family="Helvetica,sans-Serif" font-size="14.00">Vanadium IPTS+run(s), File(s), Workspace</text>
</g>
<!-- normalize -->
<g id="node7" class="node">
<title>normalize</title>
<path fill="lightskyblue" stroke="black" d="M355.01,-255C355.01,-255 198.76,-255 198.76,-255 192.76,-255 186.76,-249 186.76,-243 186.76,-243 186.76,-231 186.76,-231 186.76,-225 192.76,-219 198.76,-219 198.76,-219 355.01,-219 355.01,-219 361.01,-219 367.01,-225 367.01,-231 367.01,-231 367.01,-243 367.01,-243 367.01,-249 361.01,-255 355.01,-255"/>
<text xml:space="preserve" text-anchor="middle" x="276.88" y="-232.32" font-family="Helvetica,sans-Serif" font-size="14.00">Normalize by vanadium</text>
</g>
<!-- param_vanadium&#45;&gt;normalize -->
<g id="edge7" class="edge">
<title>param_vanadium&#45;&gt;normalize</title>
<path fill="none" stroke="black" d="M227.93,-308.01C236.62,-295.58 248.51,-278.58 258.39,-264.44"/>
<polygon fill="black" stroke="black" points="261.13,-266.64 263.99,-256.44 255.39,-262.63 261.13,-266.64"/>
</g>
<!-- query_normalization -->
<g id="node3" class="node">
<title>query_normalization</title>
<polygon fill="limegreen" stroke="black" points="351.88,-433.5 172.32,-415.5 351.88,-397.5 531.44,-415.5 351.88,-433.5"/>
<text xml:space="preserve" text-anchor="middle" x="351.88" y="-410.82" font-family="Helvetica,sans-Serif" font-size="14.00">Normalization required?</text>
</g>
<!-- query_normalization&#45;&gt;param_vanadium -->
<g id="edge5" class="edge">
<title>query_normalization&#45;&gt;param_vanadium</title>
<path fill="none" stroke="black" d="M328.5,-399.5C307.54,-386.05 276.46,-366.11 252.25,-350.58"/>
<polygon fill="black" stroke="black" points="254.26,-347.72 243.96,-345.26 250.48,-353.61 254.26,-347.72"/>
<text xml:space="preserve" text-anchor="middle" x="308.06" y="-366.2" font-family="Helvetica,sans-Serif" font-size="14.00">yes</text>
</g>
<!-- output_workspace -->
<g id="node20" class="node">
<title>output_workspace</title>
<polygon fill="grey" stroke="black" points="495.72,-182 327.35,-182 284.04,-146 452.41,-146 495.72,-182"/>
<text xml:space="preserve" text-anchor="middle" x="389.88" y="-157.82" font-family="Times,serif" font-size="14.00">OutputWorkspace</text>
</g>
<!-- query_normalization&#45;&gt;output_workspace -->
<g id="edge6" class="edge">
<title>query_normalization&#45;&gt;output_workspace</title>
<path fill="none" stroke="black" d="M381.86,-400.08C402.64,-388.27 428.69,-369.4 440.88,-344.25 465.71,-293.02 432.31,-227.53 409,-191.59"/>
<polygon fill="black" stroke="black" points="412.07,-189.88 403.59,-183.53 406.26,-193.78 412.07,-189.88"/>
<text xml:space="preserve" text-anchor="middle" x="457.41" y="-276.95" font-family="Helvetica,sans-Serif" font-size="14.00">no</text>
</g>
<!-- create_mdworkspace -->
<g id="node4" class="node">
<title>create_mdworkspace</title>
<path fill="lightskyblue" stroke="black" d="M437.13,-506.5C437.13,-506.5 266.63,-506.5 266.63,-506.5 260.63,-506.5 254.63,-500.5 254.63,-494.5 254.63,-494.5 254.63,-482.5 254.63,-482.5 254.63,-476.5 260.63,-470.5 266.63,-470.5 266.63,-470.5 437.13,-470.5 437.13,-470.5 443.13,-470.5 449.13,-476.5 449.13,-482.5 449.13,-482.5 449.13,-494.5 449.13,-494.5 449.13,-500.5 443.13,-506.5 437.13,-506.5"/>
<text xml:space="preserve" text-anchor="middle" x="351.88" y="-483.82" font-family="Helvetica,sans-Serif" font-size="14.00">CreateMDHistoWorkspace</text>
</g>
<!-- create_mdworkspace&#45;&gt;query_normalization -->
<g id="edge4" class="edge">
<title>create_mdworkspace&#45;&gt;query_normalization</title>
<path fill="none" stroke="black" d="M351.88,-470.31C351.88,-462.73 351.88,-453.6 351.88,-445.04"/>
<polygon fill="black" stroke="black" points="355.38,-445.04 351.88,-435.04 348.38,-445.04 355.38,-445.04"/>
</g>
<!-- load_first_run -->
<g id="node5" class="node">
<title>load_first_run</title>
<path fill="lightskyblue" stroke="black" d="M723.63,-725.5C723.63,-725.5 544.13,-725.5 544.13,-725.5 538.13,-725.5 532.13,-719.5 532.13,-713.5 532.13,-713.5 532.13,-701.5 532.13,-701.5 532.13,-695.5 538.13,-689.5 544.13,-689.5 544.13,-689.5 723.63,-689.5 723.63,-689.5 729.63,-689.5 735.63,-695.5 735.63,-701.5 735.63,-701.5 735.63,-713.5 735.63,-713.5 735.63,-719.5 729.63,-725.5 723.63,-725.5"/>
<text xml:space="preserve" text-anchor="middle" x="633.88" y="-702.83" font-family="Helvetica,sans-Serif" font-size="14.00">LoadEventNexus (first run)</text>
</g>
<!-- remove_logs -->
<g id="node6" class="node">
<title>remove_logs</title>
<path fill="lightskyblue" stroke="black" d="M749.51,-652.5C749.51,-652.5 518.26,-652.5 518.26,-652.5 512.26,-652.5 506.26,-646.5 506.26,-640.5 506.26,-640.5 506.26,-628.5 506.26,-628.5 506.26,-622.5 512.26,-616.5 518.26,-616.5 518.26,-616.5 749.51,-616.5 749.51,-616.5 755.51,-616.5 761.51,-622.5 761.51,-628.5 761.51,-628.5 761.51,-640.5 761.51,-640.5 761.51,-646.5 755.51,-652.5 749.51,-652.5"/>
<text xml:space="preserve" text-anchor="middle" x="633.88" y="-629.83" font-family="Helvetica,sans-Serif" font-size="14.00">RemoveLogs (keep essential ones)</text>
</g>
<!-- load_first_run&#45;&gt;remove_logs -->
<g id="edge9" class="edge">
<title>load_first_run&#45;&gt;remove_logs</title>
<path fill="none" stroke="black" d="M633.88,-689.31C633.88,-681.73 633.88,-672.6 633.88,-664.04"/>
<polygon fill="black" stroke="black" points="637.38,-664.04 633.88,-654.04 630.38,-664.04 637.38,-664.04"/>
</g>
<!-- determine_ub -->
<g id="node14" class="node">
<title>determine_ub</title>
<polygon fill="lightseagreen" stroke="black" points="715.01,-579.5 552.76,-579.5 552.76,-543.5 715.01,-543.5 715.01,-579.5"/>
<text xml:space="preserve" text-anchor="middle" x="633.88" y="-556.83" font-family="Helvetica,sans-Serif" font-size="14.00">Determine UB matrix</text>
</g>
<!-- remove_logs&#45;&gt;determine_ub -->
<g id="edge10" class="edge">
<title>remove_logs&#45;&gt;determine_ub</title>
<path fill="none" stroke="black" d="M633.88,-616.31C633.88,-608.73 633.88,-599.6 633.88,-591.04"/>
<polygon fill="black" stroke="black" points="637.38,-591.04 633.88,-581.04 630.38,-591.04 637.38,-591.04"/>
</g>
<!-- normalize&#45;&gt;output_workspace -->
<g id="edge8" class="edge">
<title>normalize&#45;&gt;output_workspace</title>
<path fill="none" stroke="black" d="M304.52,-218.63C319.02,-209.52 336.99,-198.23 352.7,-188.36"/>
<polygon fill="black" stroke="black" points="354.24,-191.52 360.85,-183.24 350.52,-185.6 354.24,-191.52"/>
</g>
<!-- set_ub -->
<g id="node8" class="node">
<title>set_ub</title>
<path fill="lightskyblue" stroke="black" d="M651.26,-433.5C651.26,-433.5 616.51,-433.5 616.51,-433.5 610.51,-433.5 604.51,-427.5 604.51,-421.5 604.51,-421.5 604.51,-409.5 604.51,-409.5 604.51,-403.5 610.51,-397.5 616.51,-397.5 616.51,-397.5 651.26,-397.5 651.26,-397.5 657.26,-397.5 663.26,-403.5 663.26,-409.5 663.26,-409.5 663.26,-421.5 663.26,-421.5 663.26,-427.5 657.26,-433.5 651.26,-433.5"/>
<text xml:space="preserve" text-anchor="middle" x="633.88" y="-410.82" font-family="Helvetica,sans-Serif" font-size="14.00">SetUB</text>
</g>
<!-- group_detectors -->
<g id="node9" class="node">
<title>group_detectors</title>
<path fill="lightskyblue" stroke="black" d="M727.38,-344.25C727.38,-344.25 540.38,-344.25 540.38,-344.25 534.38,-344.25 528.38,-338.25 528.38,-332.25 528.38,-332.25 528.38,-320.25 528.38,-320.25 528.38,-314.25 534.38,-308.25 540.38,-308.25 540.38,-308.25 727.38,-308.25 727.38,-308.25 733.38,-308.25 739.38,-314.25 739.38,-320.25 739.38,-320.25 739.38,-332.25 739.38,-332.25 739.38,-338.25 733.38,-344.25 727.38,-344.25"/>
<text xml:space="preserve" text-anchor="middle" x="633.88" y="-321.57" font-family="Helvetica,sans-Serif" font-size="14.00">GroupDetectors (if required)</text>
</g>
<!-- set_ub&#45;&gt;group_detectors -->
<g id="edge13" class="edge">
<title>set_ub&#45;&gt;group_detectors</title>
<path fill="none" stroke="black" d="M633.88,-397.26C633.88,-385.43 633.88,-369.45 633.88,-355.75"/>
<polygon fill="black" stroke="black" points="637.38,-355.97 633.88,-345.97 630.38,-355.97 637.38,-355.97"/>
</g>
<!-- detector_orientation -->
<g id="node16" class="node">
<title>detector_orientation</title>
<polygon fill="lightseagreen" stroke="black" points="722.88,-255 544.88,-255 544.88,-219 722.88,-219 722.88,-255"/>
<text xml:space="preserve" text-anchor="middle" x="633.88" y="-232.32" font-family="Helvetica,sans-Serif" font-size="14.00">log detectors theta, phi</text>
</g>
<!-- group_detectors&#45;&gt;detector_orientation -->
<g id="edge14" class="edge">
<title>group_detectors&#45;&gt;detector_orientation</title>
<path fill="none" stroke="black" d="M633.88,-308.01C633.88,-296.18 633.88,-280.2 633.88,-266.5"/>
<polygon fill="black" stroke="black" points="637.38,-266.72 633.88,-256.72 630.38,-266.72 637.38,-266.72"/>
</g>
<!-- set_goniometer -->
<g id="node10" class="node">
<title>set_goniometer</title>
<path fill="lightskyblue" stroke="black" d="M681.63,-36C681.63,-36 586.13,-36 586.13,-36 580.13,-36 574.13,-30 574.13,-24 574.13,-24 574.13,-12 574.13,-12 574.13,-6 580.13,0 586.13,0 586.13,0 681.63,0 681.63,0 687.63,0 693.63,-6 693.63,-12 693.63,-12 693.63,-24 693.63,-24 693.63,-30 687.63,-36 681.63,-36"/>
<text xml:space="preserve" text-anchor="middle" x="633.88" y="-13.32" font-family="Helvetica,sans-Serif" font-size="14.00">SetGoniometer</text>
</g>
<!-- divide_md -->
<g id="node11" class="node">
<title>divide_md</title>
<path fill="lightskyblue" stroke="black" d="M939.88,-725.5C939.88,-725.5 881.88,-725.5 881.88,-725.5 875.88,-725.5 869.88,-719.5 869.88,-713.5 869.88,-713.5 869.88,-701.5 869.88,-701.5 869.88,-695.5 875.88,-689.5 881.88,-689.5 881.88,-689.5 939.88,-689.5 939.88,-689.5 945.88,-689.5 951.88,-695.5 951.88,-701.5 951.88,-701.5 951.88,-713.5 951.88,-713.5 951.88,-719.5 945.88,-725.5 939.88,-725.5"/>
<text xml:space="preserve" text-anchor="middle" x="910.88" y="-702.83" font-family="Helvetica,sans-Serif" font-size="14.00">DivideMD</text>
</g>
<!-- scale_signal -->
<g id="node19" class="node">
<title>scale_signal</title>
<polygon fill="lightseagreen" stroke="black" points="1042.63,-652.5 779.13,-652.5 779.13,-616.5 1042.63,-616.5 1042.63,-652.5"/>
<text xml:space="preserve" text-anchor="middle" x="910.88" y="-629.83" font-family="Helvetica,sans-Serif" font-size="14.00">Scale by time, monitor, total counts</text>
</g>
<!-- divide_md&#45;&gt;scale_signal -->
<g id="edge18" class="edge">
<title>divide_md&#45;&gt;scale_signal</title>
<path fill="none" stroke="black" d="M910.88,-689.31C910.88,-681.73 910.88,-672.6 910.88,-664.04"/>
<polygon fill="black" stroke="black" points="914.38,-664.04 910.88,-654.04 907.38,-664.04 914.38,-664.04"/>
</g>
<!-- collect_intensities -->
<g id="node13" class="node">
<title>collect_intensities</title>
<polygon fill="lightseagreen" stroke="black" points="462.26,-579.5 241.51,-579.5 241.51,-543.5 462.26,-543.5 462.26,-579.5"/>
<text xml:space="preserve" text-anchor="middle" x="351.88" y="-556.83" font-family="Helvetica,sans-Serif" font-size="14.00">Collect pixel/group Intensities</text>
</g>
<!-- load_and_group&#45;&gt;collect_intensities -->
<g id="edge2" class="edge">
<title>load_and_group&#45;&gt;collect_intensities</title>
<path fill="none" stroke="black" d="M351.88,-616.31C351.88,-608.73 351.88,-599.6 351.88,-591.04"/>
<polygon fill="black" stroke="black" points="355.38,-591.04 351.88,-581.04 348.38,-591.04 355.38,-591.04"/>
</g>
<!-- collect_intensities&#45;&gt;create_mdworkspace -->
<g id="edge3" class="edge">
<title>collect_intensities&#45;&gt;create_mdworkspace</title>
<path fill="none" stroke="black" d="M351.88,-543.31C351.88,-535.73 351.88,-526.6 351.88,-518.04"/>
<polygon fill="black" stroke="black" points="355.38,-518.04 351.88,-508.04 348.38,-518.04 355.38,-518.04"/>
</g>
<!-- goniometer_tilt -->
<g id="node15" class="node">
<title>goniometer_tilt</title>
<polygon fill="lightseagreen" stroke="black" points="730.01,-506.5 537.76,-506.5 537.76,-470.5 730.01,-470.5 730.01,-506.5"/>
<text xml:space="preserve" text-anchor="middle" x="633.88" y="-483.82" font-family="Helvetica,sans-Serif" font-size="14.00">Goniometer tilt correction</text>
</g>
<!-- determine_ub&#45;&gt;goniometer_tilt -->
<g id="edge11" class="edge">
<title>determine_ub&#45;&gt;goniometer_tilt</title>
<path fill="none" stroke="black" d="M633.88,-543.31C633.88,-535.73 633.88,-526.6 633.88,-518.04"/>
<polygon fill="black" stroke="black" points="637.38,-518.04 633.88,-508.04 630.38,-518.04 637.38,-518.04"/>
</g>
<!-- goniometer_tilt&#45;&gt;set_ub -->
<g id="edge12" class="edge">
<title>goniometer_tilt&#45;&gt;set_ub</title>
<path fill="none" stroke="black" d="M633.88,-470.31C633.88,-462.73 633.88,-453.6 633.88,-445.04"/>
<polygon fill="black" stroke="black" points="637.38,-445.04 633.88,-435.04 630.38,-445.04 637.38,-445.04"/>
</g>
<!-- experiment_info -->
<g id="node17" class="node">
<title>experiment_info</title>
<polygon fill="lightseagreen" stroke="black" points="724.01,-182 543.76,-182 543.76,-146 724.01,-146 724.01,-182"/>
<text xml:space="preserve" text-anchor="middle" x="633.88" y="-159.32" font-family="Helvetica,sans-Serif" font-size="14.00">extract Experiment info</text>
</g>
<!-- detector_orientation&#45;&gt;experiment_info -->
<g id="edge15" class="edge">
<title>detector_orientation&#45;&gt;experiment_info</title>
<path fill="none" stroke="black" d="M633.88,-218.81C633.88,-211.23 633.88,-202.1 633.88,-193.54"/>
<polygon fill="black" stroke="black" points="637.38,-193.54 633.88,-183.54 630.38,-193.54 637.38,-193.54"/>
</g>
<!-- goniometer_axes -->
<g id="node18" class="node">
<title>goniometer_axes</title>
<polygon fill="lightseagreen" stroke="black" points="712.38,-109 555.38,-109 555.38,-73 712.38,-73 712.38,-109"/>
<text xml:space="preserve" text-anchor="middle" x="633.88" y="-86.33" font-family="Helvetica,sans-Serif" font-size="14.00">log goniometer axes</text>
</g>
<!-- experiment_info&#45;&gt;goniometer_axes -->
<g id="edge16" class="edge">
<title>experiment_info&#45;&gt;goniometer_axes</title>
<path fill="none" stroke="black" d="M633.88,-145.81C633.88,-138.23 633.88,-129.1 633.88,-120.54"/>
<polygon fill="black" stroke="black" points="637.38,-120.54 633.88,-110.54 630.38,-120.54 637.38,-120.54"/>
</g>
<!-- goniometer_axes&#45;&gt;set_goniometer -->
<g id="edge17" class="edge">
<title>goniometer_axes&#45;&gt;set_goniometer</title>
<path fill="none" stroke="black" d="M633.88,-72.81C633.88,-65.23 633.88,-56.1 633.88,-47.54"/>
<polygon fill="black" stroke="black" points="637.38,-47.54 633.88,-37.54 630.38,-47.54 637.38,-47.54"/>
</g>
</g>
</svg>
