<?xml version="1.0" encoding="UTF-8" standalone="no"?>
<!DOCTYPE svg PUBLIC "-//W3C//DTD SVG 1.1//EN"
 "http://www.w3.org/Graphics/SVG/1.1/DTD/svg11.dtd">
<!-- Generated by graphviz version 13.1.0 (20250701.1702)
 -->
<!-- Title: LoadEventAndCompress Pages: 1 -->
<svg width="400pt" height="540pt"
 viewBox="0.00 0.00 400.00 540.00" xmlns="http://www.w3.org/2000/svg" xmlns:xlink="http://www.w3.org/1999/xlink">
<g id="graph0" class="graph" transform="scale(1 1) rotate(0) translate(4 535.75)">
<title>LoadEventAndCompress</title>
<polygon fill="white" stroke="none" points="-4,4 -4,-535.75 396.24,-535.75 396.24,4 -4,4"/>
<text xml:space="preserve" text-anchor="middle" x="196.12" y="-514.45" font-family="Helvetica,sans-Serif" font-size="14.00">LoadEventAndCompress Flowchart</text>
<!-- file1 -->
<g id="node1" class="node">
<title>file1</title>
<ellipse fill="khaki" stroke="black" cx="99.88" cy="-488.5" rx="54.36" ry="18"/>
<text xml:space="preserve" text-anchor="middle" x="99.88" y="-483.82" font-family="Helvetica,sans-Serif" font-size="14.00">Filename</text>
</g>
<!-- determineChunking -->
<g id="node8" class="node">
<title>determineChunking</title>
<path fill="lightskyblue" stroke="black" d="M253.13,-433.5C253.13,-433.5 100.63,-433.5 100.63,-433.5 94.63,-433.5 88.63,-427.5 88.63,-421.5 88.63,-421.5 88.63,-409.5 88.63,-409.5 88.63,-403.5 94.63,-397.5 100.63,-397.5 100.63,-397.5 253.13,-397.5 253.13,-397.5 259.13,-397.5 265.13,-403.5 265.13,-409.5 265.13,-409.5 265.13,-421.5 265.13,-421.5 265.13,-427.5 259.13,-433.5 253.13,-433.5"/>
<text xml:space="preserve" text-anchor="middle" x="176.88" y="-410.82" font-family="Helvetica,sans-Serif" font-size="14.00">DetermineChunking v1</text>
</g>
<!-- file1&#45;&gt;determineChunking -->
<g id="edge1" class="edge">
<title>file1&#45;&gt;determineChunking</title>
<path fill="none" stroke="black" d="M117.74,-471.03C127.27,-462.24 139.21,-451.24 149.85,-441.42"/>
<polygon fill="black" stroke="black" points="151.95,-444.25 156.93,-434.89 147.21,-439.1 151.95,-444.25"/>
</g>
<!-- file2 -->
<g id="node2" class="node">
<title>file2</title>
<ellipse fill="khaki" stroke="black" cx="337.88" cy="-415.5" rx="54.36" ry="18"/>
<text xml:space="preserve" text-anchor="middle" x="337.88" y="-410.82" font-family="Helvetica,sans-Serif" font-size="14.00">Filename</text>
</g>
<!-- loadEventNexus -->
<g id="node6" class="node">
<title>loadEventNexus</title>
<path fill="lightskyblue" stroke="black" d="M329.88,-344.25C329.88,-344.25 199.88,-344.25 199.88,-344.25 193.88,-344.25 187.88,-338.25 187.88,-332.25 187.88,-332.25 187.88,-320.25 187.88,-320.25 187.88,-314.25 193.88,-308.25 199.88,-308.25 199.88,-308.25 329.88,-308.25 329.88,-308.25 335.88,-308.25 341.88,-314.25 341.88,-320.25 341.88,-320.25 341.88,-332.25 341.88,-332.25 341.88,-338.25 335.88,-344.25 329.88,-344.25"/>
<text xml:space="preserve" text-anchor="middle" x="264.88" y="-321.57" font-family="Helvetica,sans-Serif" font-size="14.00">LoadEventNexus v1</text>
</g>
<!-- file2&#45;&gt;loadEventNexus -->
<g id="edge3" class="edge">
<title>file2&#45;&gt;loadEventNexus</title>
<path fill="none" stroke="black" d="M332.53,-397.24C328.58,-386.39 322.4,-372.56 313.88,-362.25 310.72,-358.43 307.05,-354.82 303.17,-351.48"/>
<polygon fill="black" stroke="black" points="305.66,-348.99 295.64,-345.55 301.33,-354.49 305.66,-348.99"/>
</g>
<!-- OutputWorkspace -->
<g id="node3" class="node">
<title>OutputWorkspace</title>
<ellipse fill="khaki" stroke="black" cx="211.88" cy="-18" rx="98.56" ry="18"/>
<text xml:space="preserve" text-anchor="middle" x="211.88" y="-13.32" font-family="Helvetica,sans-Serif" font-size="14.00">OutputWorkspace</text>
</g>
<!-- MaxChunkSize -->
<g id="node4" class="node">
<title>MaxChunkSize</title>
<ellipse fill="khaki" stroke="black" cx="254.88" cy="-488.5" rx="82.77" ry="18"/>
<text xml:space="preserve" text-anchor="middle" x="254.88" y="-483.82" font-family="Helvetica,sans-Serif" font-size="14.00">MaxChunkSize</text>
</g>
<!-- MaxChunkSize&#45;&gt;determineChunking -->
<g id="edge2" class="edge">
<title>MaxChunkSize&#45;&gt;determineChunking</title>
<path fill="none" stroke="black" d="M236.39,-470.67C226.89,-462.02 215.12,-451.31 204.56,-441.69"/>
<polygon fill="black" stroke="black" points="206.92,-439.11 197.17,-434.97 202.2,-444.29 206.92,-439.11"/>
</g>
<!-- FilterBadPulses -->
<g id="node5" class="node">
<title>FilterBadPulses</title>
<ellipse fill="khaki" stroke="black" cx="84.88" cy="-326.25" rx="84.88" ry="18"/>
<text xml:space="preserve" text-anchor="middle" x="84.88" y="-321.57" font-family="Helvetica,sans-Serif" font-size="14.00">FilterBadPulses</text>
</g>
<!-- filterBadPulses -->
<g id="node9" class="node">
<title>filterBadPulses</title>
<path fill="lightskyblue" stroke="black" d="M219.25,-271.25C219.25,-271.25 100.5,-271.25 100.5,-271.25 94.5,-271.25 88.5,-265.25 88.5,-259.25 88.5,-259.25 88.5,-247.25 88.5,-247.25 88.5,-241.25 94.5,-235.25 100.5,-235.25 100.5,-235.25 219.25,-235.25 219.25,-235.25 225.25,-235.25 231.25,-241.25 231.25,-247.25 231.25,-247.25 231.25,-259.25 231.25,-259.25 231.25,-265.25 225.25,-271.25 219.25,-271.25"/>
<text xml:space="preserve" text-anchor="middle" x="159.88" y="-248.57" font-family="Helvetica,sans-Serif" font-size="14.00">FilterBadPulses v1</text>
</g>
<!-- FilterBadPulses&#45;&gt;filterBadPulses -->
<g id="edge6" class="edge">
<title>FilterBadPulses&#45;&gt;filterBadPulses</title>
<path fill="none" stroke="black" d="M102.65,-308.42C111.79,-299.77 123.11,-289.06 133.27,-279.44"/>
<polygon fill="black" stroke="black" points="135.49,-282.15 140.35,-272.74 130.68,-277.07 135.49,-282.15"/>
</g>
<!-- loadEventNexus&#45;&gt;filterBadPulses -->
<g id="edge5" class="edge">
<title>loadEventNexus&#45;&gt;filterBadPulses</title>
<path fill="none" stroke="black" d="M239.19,-307.88C225.85,-298.86 209.34,-287.69 194.84,-277.89"/>
<polygon fill="black" stroke="black" points="197.16,-275.24 186.92,-272.53 193.24,-281.03 197.16,-275.24"/>
</g>
<!-- compressEvents -->
<g id="node7" class="node">
<title>compressEvents</title>
<path fill="lightskyblue" stroke="black" d="M224.88,-182C224.88,-182 94.88,-182 94.88,-182 88.88,-182 82.88,-176 82.88,-170 82.88,-170 82.88,-158 82.88,-158 82.88,-152 88.88,-146 94.88,-146 94.88,-146 224.88,-146 224.88,-146 230.88,-146 236.88,-152 236.88,-158 236.88,-158 236.88,-170 236.88,-170 236.88,-176 230.88,-182 224.88,-182"/>
<text xml:space="preserve" text-anchor="middle" x="159.88" y="-159.32" font-family="Helvetica,sans-Serif" font-size="14.00">CompressEvents v1</text>
</g>
<!-- plus -->
<g id="node10" class="node">
<title>plus</title>
<path fill="lightskyblue" stroke="black" d="M233,-109C233,-109 190.75,-109 190.75,-109 184.75,-109 178.75,-103 178.75,-97 178.75,-97 178.75,-85 178.75,-85 178.75,-79 184.75,-73 190.75,-73 190.75,-73 233,-73 233,-73 239,-73 245,-79 245,-85 245,-85 245,-97 245,-97 245,-103 239,-109 233,-109"/>
<text xml:space="preserve" text-anchor="middle" x="211.88" y="-86.33" font-family="Helvetica,sans-Serif" font-size="14.00">Plus v1</text>
</g>
<!-- compressEvents&#45;&gt;plus -->
<g id="edge8" class="edge">
<title>compressEvents&#45;&gt;plus</title>
<path fill="none" stroke="black" d="M172.47,-145.81C178.53,-137.53 185.94,-127.41 192.7,-118.19"/>
<polygon fill="black" stroke="black" points="195.43,-120.39 198.51,-110.25 189.78,-116.25 195.43,-120.39"/>
</g>
<!-- determineChunking&#45;&gt;loadEventNexus -->
<g id="edge4" class="edge">
<title>determineChunking&#45;&gt;loadEventNexus</title>
<path fill="none" stroke="black" d="M177.73,-397.29C179.1,-386.19 182.47,-372.06 190.63,-362.25 194.15,-358.02 198.29,-354.27 202.79,-350.95"/>
<polygon fill="black" stroke="black" points="204.67,-353.91 211.18,-345.55 200.88,-348.03 204.67,-353.91"/>
<text xml:space="preserve" text-anchor="middle" x="250.25" y="-366.2" font-family="Helvetica,sans-Serif" font-size="14.00">loop over chunks</text>
</g>
<!-- filterBadPulses&#45;&gt;compressEvents -->
<g id="edge7" class="edge">
<title>filterBadPulses&#45;&gt;compressEvents</title>
<path fill="none" stroke="black" d="M159.88,-235.01C159.88,-223.18 159.88,-207.2 159.88,-193.5"/>
<polygon fill="black" stroke="black" points="163.38,-193.72 159.88,-183.72 156.38,-193.72 163.38,-193.72"/>
</g>
<!-- plus&#45;&gt;OutputWorkspace -->
<g id="edge10" class="edge">
<title>plus&#45;&gt;OutputWorkspace</title>
<path fill="none" stroke="black" d="M211.88,-72.81C211.88,-65.23 211.88,-56.1 211.88,-47.54"/>
<polygon fill="black" stroke="black" points="215.38,-47.54 211.88,-37.54 208.38,-47.54 215.38,-47.54"/>
</g>
<!-- plus&#45;&gt;loadEventNexus -->
<g id="edge9" class="edge">
<title>plus&#45;&gt;loadEventNexus</title>
<path fill="none" stroke="black" d="M225.74,-109.43C233,-119.52 241.31,-132.81 245.88,-146 263.56,-197 266.04,-260.66 265.78,-296.76"/>
<polygon fill="black" stroke="black" points="262.28,-296.32 265.63,-306.37 269.28,-296.43 262.28,-296.32"/>
<text xml:space="preserve" text-anchor="middle" x="301.45" y="-203.95" font-family="Helvetica,sans-Serif" font-size="14.00">accumulate</text>
</g>
</g>
</svg>
