<?xml version="1.0" encoding="UTF-8" standalone="no"?>
<!DOCTYPE svg PUBLIC "-//W3C//DTD SVG 1.1//EN"
 "http://www.w3.org/Graphics/SVG/1.1/DTD/svg11.dtd">
<!-- Generated by graphviz version 7.1.0 (20230122.1345)
 -->
<!-- Title: MolDyn Pages: 1 -->
<svg width="1034pt" height="648pt"
 viewBox="0.00 0.00 1033.69 648.00" xmlns="http://www.w3.org/2000/svg" xmlns:xlink="http://www.w3.org/1999/xlink">
<g id="graph0" class="graph" transform="scale(1 1) rotate(0) translate(4 644)">
<title>MolDyn</title>
<polygon fill="white" stroke="none" points="-4,4 -4,-644 1029.69,-644 1029.69,4 -4,4"/>
<text text-anchor="middle" x="512.84" y="-624.8" font-family="Helvetica,sans-Serif" font-size="14.00">MolDyn Flowchart</text>
<!-- Version -->
<g id="node1" class="node">
<title>Version</title>
<polygon fill="limegreen" stroke="black" points="168.64,-544 48.32,-526 168.64,-508 288.96,-526 168.64,-544"/>
<text text-anchor="middle" x="168.64" y="-522.3" font-family="Helvetica,sans-Serif" font-size="14.00">nMoldyn version</text>
</g>
<!-- LoadNMoldyn3Ascii -->
<g id="node13" class="node">
<title>LoadNMoldyn3Ascii</title>
<path fill="lightskyblue" stroke="black" d="M248.64,-457C248.64,-457 120.64,-457 120.64,-457 114.64,-457 108.64,-451 108.64,-445 108.64,-445 108.64,-433 108.64,-433 108.64,-427 114.64,-421 120.64,-421 120.64,-421 248.64,-421 248.64,-421 254.64,-421 260.64,-427 260.64,-433 260.64,-433 260.64,-445 260.64,-445 260.64,-451 254.64,-457 248.64,-457"/>
<text text-anchor="middle" x="184.64" y="-435.3" font-family="Helvetica,sans-Serif" font-size="14.00">LoadNMoldyn3Ascii</text>
</g>
<!-- Version&#45;&gt;LoadNMoldyn3Ascii -->
<g id="edge3" class="edge">
<title>Version&#45;&gt;LoadNMoldyn3Ascii</title>
<path fill="none" stroke="black" d="M171.8,-508.21C173.94,-496.83 176.83,-481.52 179.32,-468.29"/>
<polygon fill="black" stroke="black" points="182.69,-469.3 181.1,-458.83 175.81,-468.01 182.69,-469.3"/>
<text text-anchor="middle" x="182.64" y="-478.8" font-family="Helvetica,sans-Serif" font-size="14.00">3</text>
</g>
<!-- LoadNMoldyn4Ascii -->
<g id="node14" class="node">
<title>LoadNMoldyn4Ascii</title>
<path fill="lightskyblue" stroke="black" d="M418.64,-457C418.64,-457 290.64,-457 290.64,-457 284.64,-457 278.64,-451 278.64,-445 278.64,-445 278.64,-433 278.64,-433 278.64,-427 284.64,-421 290.64,-421 290.64,-421 418.64,-421 418.64,-421 424.64,-421 430.64,-427 430.64,-433 430.64,-433 430.64,-445 430.64,-445 430.64,-451 424.64,-457 418.64,-457"/>
<text text-anchor="middle" x="354.64" y="-435.3" font-family="Helvetica,sans-Serif" font-size="14.00">LoadNMoldyn4Ascii</text>
</g>
<!-- Version&#45;&gt;LoadNMoldyn4Ascii -->
<g id="edge5" class="edge">
<title>Version&#45;&gt;LoadNMoldyn4Ascii</title>
<path fill="none" stroke="black" d="M197.3,-511.91C226.29,-498.65 271.66,-477.92 306.25,-462.12"/>
<polygon fill="black" stroke="black" points="307.59,-465.35 315.23,-458.01 304.68,-458.99 307.59,-465.35"/>
<text text-anchor="middle" x="278.64" y="-478.8" font-family="Helvetica,sans-Serif" font-size="14.00">4</text>
</g>
<!-- IfSave -->
<g id="node2" class="node">
<title>IfSave</title>
<polygon fill="limegreen" stroke="black" points="254.64,-283 201.52,-265 254.64,-247 307.76,-265 254.64,-283"/>
<text text-anchor="middle" x="254.64" y="-261.3" font-family="Helvetica,sans-Serif" font-size="14.00">Save?</text>
</g>
<!-- SaveNexus -->
<g id="node15" class="node">
<title>SaveNexus</title>
<path fill="lightskyblue" stroke="black" d="M289.64,-196C289.64,-196 219.64,-196 219.64,-196 213.64,-196 207.64,-190 207.64,-184 207.64,-184 207.64,-172 207.64,-172 207.64,-166 213.64,-160 219.64,-160 219.64,-160 289.64,-160 289.64,-160 295.64,-160 301.64,-166 301.64,-172 301.64,-172 301.64,-184 301.64,-184 301.64,-190 295.64,-196 289.64,-196"/>
<text text-anchor="middle" x="254.64" y="-174.3" font-family="Helvetica,sans-Serif" font-size="14.00">SaveNexus</text>
</g>
<!-- IfSave&#45;&gt;SaveNexus -->
<g id="edge10" class="edge">
<title>IfSave&#45;&gt;SaveNexus</title>
<path fill="none" stroke="black" d="M254.64,-246.8C254.64,-235.58 254.64,-220.67 254.64,-207.69"/>
<polygon fill="black" stroke="black" points="258.14,-207.98 254.64,-197.98 251.14,-207.98 258.14,-207.98"/>
<text text-anchor="middle" x="266.14" y="-217.8" font-family="Helvetica,sans-Serif" font-size="14.00">Yes</text>
</g>
<!-- IsWorkspaceInEnergy -->
<g id="node3" class="node">
<title>IsWorkspaceInEnergy</title>
<polygon fill="limegreen" stroke="black" points="855.64,-544 685.55,-526 855.64,-508 1025.73,-526 855.64,-544"/>
<text text-anchor="middle" x="855.64" y="-522.3" font-family="Helvetica,sans-Serif" font-size="14.00">Is workspace in energy?</text>
</g>
<!-- IfSymmetrise -->
<g id="node4" class="node">
<title>IfSymmetrise</title>
<polygon fill="limegreen" stroke="black" points="727.64,-457 584.36,-439 727.64,-421 870.92,-439 727.64,-457"/>
<text text-anchor="middle" x="727.64" y="-435.3" font-family="Helvetica,sans-Serif" font-size="14.00">SymmetriseEnergy?</text>
</g>
<!-- IsWorkspaceInEnergy&#45;&gt;IfSymmetrise -->
<g id="edge12" class="edge">
<title>IsWorkspaceInEnergy&#45;&gt;IfSymmetrise</title>
<path fill="none" stroke="black" d="M833.05,-510C812.45,-496.32 781.83,-475.98 758.89,-460.75"/>
<polygon fill="black" stroke="black" points="761.11,-458.02 750.84,-455.4 757.23,-463.85 761.11,-458.02"/>
<text text-anchor="middle" x="811.14" y="-478.8" font-family="Helvetica,sans-Serif" font-size="14.00">Yes</text>
</g>
<!-- ProcessEnergyWorkspaces_End -->
<g id="node20" class="node">
<title>ProcessEnergyWorkspaces_End</title>
<ellipse fill="lightgrey" stroke="black" cx="706.64" cy="-18" rx="28.7" ry="18"/>
<text text-anchor="middle" x="706.64" y="-14.3" font-family="Helvetica,sans-Serif" font-size="14.00">End</text>
</g>
<!-- IsWorkspaceInEnergy&#45;&gt;ProcessEnergyWorkspaces_End -->
<g id="edge25" class="edge">
<title>IsWorkspaceInEnergy&#45;&gt;ProcessEnergyWorkspaces_End</title>
<path fill="none" stroke="black" d="M869.48,-508.96C882.05,-492.72 898.64,-466.3 898.64,-440 898.64,-440 898.64,-440 898.64,-90 898.64,-57.73 802.04,-35.52 745.88,-25.33"/>
<polygon fill="black" stroke="black" points="746.51,-21.89 736.05,-23.6 745.29,-28.78 746.51,-21.89"/>
<text text-anchor="middle" x="908.14" y="-261.3" font-family="Helvetica,sans-Serif" font-size="14.00">No</text>
</g>
<!-- IfCrop -->
<g id="node5" class="node">
<title>IfCrop</title>
<polygon fill="limegreen" stroke="black" points="740.64,-370 610.94,-352 740.64,-334 870.34,-352 740.64,-370"/>
<text text-anchor="middle" x="740.64" y="-348.3" font-family="Helvetica,sans-Serif" font-size="14.00">Have MaxEnergy?</text>
</g>
<!-- IfSymmetrise&#45;&gt;IfCrop -->
<g id="edge16" class="edge">
<title>IfSymmetrise&#45;&gt;IfCrop</title>
<path fill="none" stroke="black" d="M730.21,-421.21C731.94,-409.87 734.28,-394.63 736.29,-381.43"/>
<polygon fill="black" stroke="black" points="739.75,-381.96 737.81,-371.55 732.83,-380.9 739.75,-381.96"/>
<text text-anchor="middle" x="745.14" y="-391.8" font-family="Helvetica,sans-Serif" font-size="14.00">No</text>
</g>
<!-- Symmetrise -->
<g id="node16" class="node">
<title>Symmetrise</title>
<path fill="lightskyblue" stroke="black" d="M554.64,-283C554.64,-283 478.64,-283 478.64,-283 472.64,-283 466.64,-277 466.64,-271 466.64,-271 466.64,-259 466.64,-259 466.64,-253 472.64,-247 478.64,-247 478.64,-247 554.64,-247 554.64,-247 560.64,-247 566.64,-253 566.64,-259 566.64,-259 566.64,-271 566.64,-271 566.64,-277 560.64,-283 554.64,-283"/>
<text text-anchor="middle" x="516.64" y="-261.3" font-family="Helvetica,sans-Serif" font-size="14.00">Symmetrise</text>
</g>
<!-- IfSymmetrise&#45;&gt;Symmetrise -->
<g id="edge14" class="edge">
<title>IfSymmetrise&#45;&gt;Symmetrise</title>
<path fill="none" stroke="black" d="M649.14,-430.38C572.74,-421.15 464.48,-402.63 438.64,-370 417.21,-342.94 449.23,-311.09 478.48,-289.84"/>
<polygon fill="black" stroke="black" points="480.37,-292.78 486.57,-284.19 476.36,-287.04 480.37,-292.78"/>
<text text-anchor="middle" x="450.14" y="-348.3" font-family="Helvetica,sans-Serif" font-size="14.00">Yes</text>
</g>
<!-- IfConvolve -->
<g id="node6" class="node">
<title>IfConvolve</title>
<polygon fill="limegreen" stroke="black" points="667.64,-196 469.9,-178 667.64,-160 865.38,-178 667.64,-196"/>
<text text-anchor="middle" x="667.64" y="-174.3" font-family="Helvetica,sans-Serif" font-size="14.00">Have Resolution workspace?</text>
</g>
<!-- IfCrop&#45;&gt;IfConvolve -->
<g id="edge20" class="edge">
<title>IfCrop&#45;&gt;IfConvolve</title>
<path fill="none" stroke="black" d="M739.29,-333.72C737.12,-312.49 731.68,-275.74 718.64,-247 711.55,-231.37 700.37,-215.9 690.28,-203.67"/>
<polygon fill="black" stroke="black" points="693.01,-201.48 683.85,-196.16 687.69,-206.03 693.01,-201.48"/>
<text text-anchor="middle" x="740.14" y="-261.3" font-family="Helvetica,sans-Serif" font-size="14.00">No</text>
</g>
<!-- CropWorkspace -->
<g id="node17" class="node">
<title>CropWorkspace</title>
<path fill="lightskyblue" stroke="black" d="M698.14,-283C698.14,-283 597.14,-283 597.14,-283 591.14,-283 585.14,-277 585.14,-271 585.14,-271 585.14,-259 585.14,-259 585.14,-253 591.14,-247 597.14,-247 597.14,-247 698.14,-247 698.14,-247 704.14,-247 710.14,-253 710.14,-259 710.14,-259 710.14,-271 710.14,-271 710.14,-277 704.14,-283 698.14,-283"/>
<text text-anchor="middle" x="647.64" y="-261.3" font-family="Helvetica,sans-Serif" font-size="14.00">CropWorkspace</text>
</g>
<!-- IfCrop&#45;&gt;CropWorkspace -->
<g id="edge18" class="edge">
<title>IfCrop&#45;&gt;CropWorkspace</title>
<path fill="none" stroke="black" d="M724.02,-335.8C710.44,-323.39 690.97,-305.6 675.08,-291.08"/>
<polygon fill="black" stroke="black" points="677.55,-288.59 667.81,-284.43 672.83,-293.76 677.55,-288.59"/>
<text text-anchor="middle" x="712.14" y="-304.8" font-family="Helvetica,sans-Serif" font-size="14.00">Yes</text>
</g>
<!-- ConvolveWorkspaces -->
<g id="node18" class="node">
<title>ConvolveWorkspaces</title>
<path fill="lightskyblue" stroke="black" d="M658.64,-109C658.64,-109 518.64,-109 518.64,-109 512.64,-109 506.64,-103 506.64,-97 506.64,-97 506.64,-85 506.64,-85 506.64,-79 512.64,-73 518.64,-73 518.64,-73 658.64,-73 658.64,-73 664.64,-73 670.64,-79 670.64,-85 670.64,-85 670.64,-97 670.64,-97 670.64,-103 664.64,-109 658.64,-109"/>
<text text-anchor="middle" x="588.64" y="-87.3" font-family="Helvetica,sans-Serif" font-size="14.00">ConvolveWorkspaces</text>
</g>
<!-- IfConvolve&#45;&gt;ConvolveWorkspaces -->
<g id="edge21" class="edge">
<title>IfConvolve&#45;&gt;ConvolveWorkspaces</title>
<path fill="none" stroke="black" d="M652.78,-161.01C641.46,-148.83 625.63,-131.8 612.53,-117.7"/>
<polygon fill="black" stroke="black" points="615.2,-115.43 605.82,-110.49 610.07,-120.2 615.2,-115.43"/>
<text text-anchor="middle" x="645.14" y="-130.8" font-family="Helvetica,sans-Serif" font-size="14.00">Yes</text>
</g>
<!-- IfConvolve&#45;&gt;ProcessEnergyWorkspaces_End -->
<g id="edge24" class="edge">
<title>IfConvolve&#45;&gt;ProcessEnergyWorkspaces_End</title>
<path fill="none" stroke="black" d="M671.82,-160.09C678.47,-133.15 691.54,-80.18 699.64,-47.36"/>
<polygon fill="black" stroke="black" points="703.02,-48.28 702.02,-37.74 696.22,-46.61 703.02,-48.28"/>
<text text-anchor="middle" x="703.14" y="-87.3" font-family="Helvetica,sans-Serif" font-size="14.00">No</text>
</g>
<!-- ProcessEnergyWorkspaces -->
<g id="node7" class="node">
<title>ProcessEnergyWorkspaces</title>
<polygon fill="lightseagreen" stroke="black" points="319.64,-370 111.64,-370 111.64,-334 319.64,-334 319.64,-370"/>
<text text-anchor="middle" x="215.64" y="-348.3" font-family="Helvetica,sans-Serif" font-size="14.00">Process energy workspaces</text>
</g>
<!-- ProcessEnergyWorkspaces&#45;&gt;IfSave -->
<g id="edge9" class="edge">
<title>ProcessEnergyWorkspaces&#45;&gt;IfSave</title>
<path fill="none" stroke="black" d="M223.53,-333.8C229.15,-321.55 236.8,-304.89 243.1,-291.16"/>
<polygon fill="black" stroke="black" points="246.18,-292.83 247.17,-282.28 239.82,-289.91 246.18,-292.83"/>
</g>
<!-- OutputWorkspace -->
<g id="node12" class="node">
<title>OutputWorkspace</title>
<ellipse fill="khaki" stroke="black" cx="91.64" cy="-265" rx="91.78" ry="18"/>
<text text-anchor="middle" x="91.64" y="-261.3" font-family="Helvetica,sans-Serif" font-size="14.00">OutputWorkspace</text>
</g>
<!-- ProcessEnergyWorkspaces&#45;&gt;OutputWorkspace -->
<g id="edge8" class="edge">
<title>ProcessEnergyWorkspaces&#45;&gt;OutputWorkspace</title>
<path fill="none" stroke="black" d="M190.25,-333.59C171.53,-320.76 145.88,-303.18 125.43,-289.16"/>
<polygon fill="black" stroke="black" points="127.63,-286.43 117.4,-283.66 123.67,-292.2 127.63,-286.43"/>
</g>
<!-- Data -->
<g id="node8" class="node">
<title>Data</title>
<ellipse fill="khaki" stroke="black" cx="168.64" cy="-599" rx="31.7" ry="18"/>
<text text-anchor="middle" x="168.64" y="-595.3" font-family="Helvetica,sans-Serif" font-size="14.00">Data</text>
</g>
<!-- Data&#45;&gt;Version -->
<g id="edge1" class="edge">
<title>Data&#45;&gt;Version</title>
<path fill="none" stroke="black" d="M168.64,-580.81C168.64,-573.23 168.64,-564.1 168.64,-555.54"/>
<polygon fill="black" stroke="black" points="172.14,-555.54 168.64,-545.54 165.14,-555.54 172.14,-555.54"/>
</g>
<!-- Functions -->
<g id="node9" class="node">
<title>Functions</title>
<ellipse fill="khaki" stroke="black" cx="360.64" cy="-526" rx="53.89" ry="18"/>
<text text-anchor="middle" x="360.64" y="-522.3" font-family="Helvetica,sans-Serif" font-size="14.00">Functions</text>
</g>
<!-- Functions&#45;&gt;LoadNMoldyn3Ascii -->
<g id="edge2" class="edge">
<title>Functions&#45;&gt;LoadNMoldyn3Ascii</title>
<path fill="none" stroke="black" d="M330.79,-510.58C303.47,-497.39 262.63,-477.66 231.06,-462.42"/>
<polygon fill="black" stroke="black" points="232.63,-459.29 222.1,-458.09 229.58,-465.59 232.63,-459.29"/>
</g>
<!-- Functions&#45;&gt;LoadNMoldyn4Ascii -->
<g id="edge4" class="edge">
<title>Functions&#45;&gt;LoadNMoldyn4Ascii</title>
<path fill="none" stroke="black" d="M359.43,-507.8C358.64,-496.58 357.58,-481.67 356.67,-468.69"/>
<polygon fill="black" stroke="black" points="360.18,-468.71 355.98,-458.98 353.19,-469.2 360.18,-468.71"/>
</g>
<!-- Resolution -->
<g id="node10" class="node">
<title>Resolution</title>
<ellipse fill="khaki" stroke="black" cx="394.64" cy="-178" rx="57.69" ry="18"/>
<text text-anchor="middle" x="394.64" y="-174.3" font-family="Helvetica,sans-Serif" font-size="14.00">Resolution</text>
</g>
<!-- Resolution&#45;&gt;ConvolveWorkspaces -->
<g id="edge22" class="edge">
<title>Resolution&#45;&gt;ConvolveWorkspaces</title>
<path fill="none" stroke="black" d="M427.11,-162.77C457.51,-149.45 503.39,-129.35 538.5,-113.97"/>
<polygon fill="black" stroke="black" points="539.87,-117.19 547.63,-109.97 537.06,-110.78 539.87,-117.19"/>
</g>
<!-- MaxEnergy -->
<g id="node11" class="node">
<title>MaxEnergy</title>
<ellipse fill="khaki" stroke="black" cx="531.64" cy="-352" rx="61.19" ry="18"/>
<text text-anchor="middle" x="531.64" y="-348.3" font-family="Helvetica,sans-Serif" font-size="14.00">MaxEnergy</text>
</g>
<!-- MaxEnergy&#45;&gt;Symmetrise -->
<g id="edge13" class="edge">
<title>MaxEnergy&#45;&gt;Symmetrise</title>
<path fill="none" stroke="black" d="M528.61,-333.8C526.63,-322.58 524,-307.67 521.7,-294.69"/>
<polygon fill="black" stroke="black" points="525.17,-294.2 519.99,-284.96 518.28,-295.41 525.17,-294.2"/>
</g>
<!-- MaxEnergy&#45;&gt;CropWorkspace -->
<g id="edge17" class="edge">
<title>MaxEnergy&#45;&gt;CropWorkspace</title>
<path fill="none" stroke="black" d="M553.73,-334.81C571.02,-322.15 595.32,-304.34 614.87,-290.01"/>
<polygon fill="black" stroke="black" points="616.82,-292.92 622.82,-284.19 612.68,-287.28 616.82,-292.92"/>
</g>
<!-- LoadNMoldyn3Ascii&#45;&gt;ProcessEnergyWorkspaces -->
<g id="edge6" class="edge">
<title>LoadNMoldyn3Ascii&#45;&gt;ProcessEnergyWorkspaces</title>
<path fill="none" stroke="black" d="M190.92,-420.8C195.09,-409.35 200.67,-394.06 205.47,-380.89"/>
<polygon fill="black" stroke="black" points="208.61,-382.48 208.75,-371.89 202.04,-380.08 208.61,-382.48"/>
</g>
<!-- LoadNMoldyn4Ascii&#45;&gt;ProcessEnergyWorkspaces -->
<g id="edge7" class="edge">
<title>LoadNMoldyn4Ascii&#45;&gt;ProcessEnergyWorkspaces</title>
<path fill="none" stroke="black" d="M326.18,-420.59C305.28,-407.82 276.68,-390.32 253.8,-376.34"/>
<polygon fill="black" stroke="black" points="255.72,-373.4 245.36,-371.17 252.06,-379.38 255.72,-373.4"/>
</g>
<!-- Symmetrise&#45;&gt;IfConvolve -->
<g id="edge15" class="edge">
<title>Symmetrise&#45;&gt;IfConvolve</title>
<path fill="none" stroke="black" d="M547.56,-246.59C571.94,-232.87 605.97,-213.72 631.58,-199.3"/>
<polygon fill="black" stroke="black" points="632.98,-202.53 639.98,-194.57 629.55,-196.43 632.98,-202.53"/>
</g>
<!-- CropWorkspace&#45;&gt;IfConvolve -->
<g id="edge19" class="edge">
<title>CropWorkspace&#45;&gt;IfConvolve</title>
<path fill="none" stroke="black" d="M651.69,-246.8C654.39,-235.32 658,-219.96 661.11,-206.77"/>
<polygon fill="black" stroke="black" points="664.44,-207.89 663.32,-197.36 657.62,-206.29 664.44,-207.89"/>
</g>
<!-- ConvolveWorkspaces&#45;&gt;ProcessEnergyWorkspaces_End -->
<g id="edge23" class="edge">
<title>ConvolveWorkspaces&#45;&gt;ProcessEnergyWorkspaces_End</title>
<path fill="none" stroke="black" d="M617.51,-72.63C635.5,-61.81 658.61,-47.9 676.78,-36.97"/>
<polygon fill="black" stroke="black" points="678.51,-40.01 685.28,-31.86 674.9,-34.01 678.51,-40.01"/>
</g>
<!-- ProcessEnergyWorkspaces_Start -->
<g id="node19" class="node">
<title>ProcessEnergyWorkspaces_Start</title>
<ellipse fill="lightgrey" stroke="black" cx="855.64" cy="-599" rx="135.38" ry="18"/>
<text text-anchor="middle" x="855.64" y="-595.3" font-family="Helvetica,sans-Serif" font-size="14.00">Process energy workspaces</text>
</g>
<!-- ProcessEnergyWorkspaces_Start&#45;&gt;IsWorkspaceInEnergy -->
<g id="edge11" class="edge">
<title>ProcessEnergyWorkspaces_Start&#45;&gt;IsWorkspaceInEnergy</title>
<path fill="none" stroke="black" d="M855.64,-580.81C855.64,-573.23 855.64,-564.1 855.64,-555.54"/>
<polygon fill="black" stroke="black" points="859.14,-555.54 855.64,-545.54 852.14,-555.54 859.14,-555.54"/>
</g>
</g>
</svg>
