<?xml version="1.0" encoding="UTF-8" standalone="no"?>
<!DOCTYPE svg PUBLIC "-//W3C//DTD SVG 1.1//EN"
 "http://www.w3.org/Graphics/SVG/1.1/DTD/svg11.dtd">
<!-- Generated by graphviz version 13.1.0 (20250701.1702)
 -->
<!-- Title: MolDyn Pages: 1 -->
<svg width="1086pt" height="662pt"
 viewBox="0.00 0.00 1086.00 662.00" xmlns="http://www.w3.org/2000/svg" xmlns:xlink="http://www.w3.org/1999/xlink">
<g id="graph0" class="graph" transform="scale(1 1) rotate(0) translate(4 657.5)">
<title>MolDyn</title>
<polygon fill="white" stroke="none" points="-4,4 -4,-657.5 1082.09,-657.5 1082.09,4 -4,4"/>
<text xml:space="preserve" text-anchor="middle" x="539.05" y="-636.2" font-family="Helvetica,sans-Serif" font-size="14.00">MolDyn Flowchart</text>
<!-- Version -->
<g id="node1" class="node">
<title>Version</title>
<polygon fill="limegreen" stroke="black" points="169.56,-555.25 39.85,-537.25 169.56,-519.25 299.27,-537.25 169.56,-555.25"/>
<text xml:space="preserve" text-anchor="middle" x="169.56" y="-532.58" font-family="Helvetica,sans-Serif" font-size="14.00">nMoldyn version</text>
</g>
<!-- LoadNMoldyn3Ascii -->
<g id="node13" class="node">
<title>LoadNMoldyn3Ascii</title>
<path fill="lightskyblue" stroke="black" d="M260.06,-466C260.06,-466 133.06,-466 133.06,-466 127.06,-466 121.06,-460 121.06,-454 121.06,-454 121.06,-442 121.06,-442 121.06,-436 127.06,-430 133.06,-430 133.06,-430 260.06,-430 260.06,-430 266.06,-430 272.06,-436 272.06,-442 272.06,-442 272.06,-454 272.06,-454 272.06,-460 266.06,-466 260.06,-466"/>
<text xml:space="preserve" text-anchor="middle" x="196.56" y="-443.32" font-family="Helvetica,sans-Serif" font-size="14.00">LoadNMoldyn3Ascii</text>
</g>
<!-- Version&#45;&gt;LoadNMoldyn3Ascii -->
<g id="edge3" class="edge">
<title>Version&#45;&gt;LoadNMoldyn3Ascii</title>
<path fill="none" stroke="black" d="M174.64,-519.84C178.37,-507.76 183.54,-491.06 187.92,-476.9"/>
<polygon fill="black" stroke="black" points="191.16,-478.27 190.78,-467.68 184.48,-476.2 191.16,-478.27"/>
<text xml:space="preserve" text-anchor="middle" x="189.98" y="-487.95" font-family="Helvetica,sans-Serif" font-size="14.00">3</text>
</g>
<!-- LoadNMoldyn4Ascii -->
<g id="node14" class="node">
<title>LoadNMoldyn4Ascii</title>
<path fill="lightskyblue" stroke="black" d="M429.06,-466C429.06,-466 302.06,-466 302.06,-466 296.06,-466 290.06,-460 290.06,-454 290.06,-454 290.06,-442 290.06,-442 290.06,-436 296.06,-430 302.06,-430 302.06,-430 429.06,-430 429.06,-430 435.06,-430 441.06,-436 441.06,-442 441.06,-442 441.06,-454 441.06,-454 441.06,-460 435.06,-466 429.06,-466"/>
<text xml:space="preserve" text-anchor="middle" x="365.56" y="-443.32" font-family="Helvetica,sans-Serif" font-size="14.00">LoadNMoldyn4Ascii</text>
</g>
<!-- Version&#45;&gt;LoadNMoldyn4Ascii -->
<g id="edge5" class="edge">
<title>Version&#45;&gt;LoadNMoldyn4Ascii</title>
<path fill="none" stroke="black" d="M199.33,-523C230.22,-509.24 279.09,-487.49 315.85,-471.13"/>
<polygon fill="black" stroke="black" points="317.26,-474.33 324.98,-467.06 314.42,-467.93 317.26,-474.33"/>
<text xml:space="preserve" text-anchor="middle" x="289.61" y="-487.95" font-family="Helvetica,sans-Serif" font-size="14.00">4</text>
</g>
<!-- IfSave -->
<g id="node2" class="node">
<title>IfSave</title>
<polygon fill="limegreen" stroke="black" points="271.56,-287.5 214.76,-269.5 271.56,-251.5 328.35,-269.5 271.56,-287.5"/>
<text xml:space="preserve" text-anchor="middle" x="271.56" y="-264.82" font-family="Helvetica,sans-Serif" font-size="14.00">Save?</text>
</g>
<!-- SaveNexus -->
<g id="node15" class="node">
<title>SaveNexus</title>
<path fill="lightskyblue" stroke="black" d="M306.18,-198.25C306.18,-198.25 236.93,-198.25 236.93,-198.25 230.93,-198.25 224.93,-192.25 224.93,-186.25 224.93,-186.25 224.93,-174.25 224.93,-174.25 224.93,-168.25 230.93,-162.25 236.93,-162.25 236.93,-162.25 306.18,-162.25 306.18,-162.25 312.18,-162.25 318.18,-168.25 318.18,-174.25 318.18,-174.25 318.18,-186.25 318.18,-186.25 318.18,-192.25 312.18,-198.25 306.18,-198.25"/>
<text xml:space="preserve" text-anchor="middle" x="271.56" y="-175.57" font-family="Helvetica,sans-Serif" font-size="14.00">SaveNexus</text>
</g>
<!-- IfSave&#45;&gt;SaveNexus -->
<g id="edge10" class="edge">
<title>IfSave&#45;&gt;SaveNexus</title>
<path fill="none" stroke="black" d="M271.56,-251.26C271.56,-239.43 271.56,-223.45 271.56,-209.75"/>
<polygon fill="black" stroke="black" points="275.06,-209.97 271.56,-199.97 268.06,-209.97 275.06,-209.97"/>
<text xml:space="preserve" text-anchor="middle" x="282.81" y="-220.2" font-family="Helvetica,sans-Serif" font-size="14.00">Yes</text>
</g>
<!-- IsWorkspaceInEnergy -->
<g id="node3" class="node">
<title>IsWorkspaceInEnergy</title>
<polygon fill="limegreen" stroke="black" points="895.56,-555.25 713.02,-537.25 895.56,-519.25 1078.09,-537.25 895.56,-555.25"/>
<text xml:space="preserve" text-anchor="middle" x="895.56" y="-532.58" font-family="Helvetica,sans-Serif" font-size="14.00">Is workspace in energy?</text>
</g>
<!-- IfSymmetrise -->
<g id="node4" class="node">
<title>IfSymmetrise</title>
<polygon fill="limegreen" stroke="black" points="759.56,-466 605.3,-448 759.56,-430 913.82,-448 759.56,-466"/>
<text xml:space="preserve" text-anchor="middle" x="759.56" y="-443.32" font-family="Helvetica,sans-Serif" font-size="14.00">SymmetriseEnergy?</text>
</g>
<!-- IsWorkspaceInEnergy&#45;&gt;IfSymmetrise -->
<g id="edge12" class="edge">
<title>IsWorkspaceInEnergy&#45;&gt;IfSymmetrise</title>
<path fill="none" stroke="black" d="M872.18,-521.25C850.15,-507.12 816.94,-485.81 792.28,-470"/>
<polygon fill="black" stroke="black" points="794.21,-467.07 783.91,-464.62 790.43,-472.97 794.21,-467.07"/>
<text xml:space="preserve" text-anchor="middle" x="850.99" y="-487.95" font-family="Helvetica,sans-Serif" font-size="14.00">Yes</text>
</g>
<!-- ProcessEnergyWorkspaces_End -->
<g id="node20" class="node">
<title>ProcessEnergyWorkspaces_End</title>
<ellipse fill="lightgrey" stroke="black" cx="736.56" cy="-18" rx="30.16" ry="18"/>
<text xml:space="preserve" text-anchor="middle" x="736.56" y="-13.32" font-family="Helvetica,sans-Serif" font-size="14.00">End</text>
</g>
<!-- IsWorkspaceInEnergy&#45;&gt;ProcessEnergyWorkspaces_End -->
<g id="edge25" class="edge">
<title>IsWorkspaceInEnergy&#45;&gt;ProcessEnergyWorkspaces_End</title>
<path fill="none" stroke="black" d="M910.11,-520.2C923.59,-503.63 941.56,-476.4 941.56,-449 941.56,-449 941.56,-449 941.56,-90 941.56,-55.57 837.02,-34.11 777.24,-24.65"/>
<polygon fill="black" stroke="black" points="777.84,-21.2 767.43,-23.15 776.78,-28.12 777.84,-21.2"/>
<text xml:space="preserve" text-anchor="middle" x="950.93" y="-264.82" font-family="Helvetica,sans-Serif" font-size="14.00">No</text>
</g>
<!-- IfCrop -->
<g id="node5" class="node">
<title>IfCrop</title>
<polygon fill="limegreen" stroke="black" points="774.56,-376.75 635.18,-358.75 774.56,-340.75 913.94,-358.75 774.56,-376.75"/>
<text xml:space="preserve" text-anchor="middle" x="774.56" y="-354.07" font-family="Helvetica,sans-Serif" font-size="14.00">Have MaxEnergy?</text>
</g>
<!-- IfSymmetrise&#45;&gt;IfCrop -->
<g id="edge16" class="edge">
<title>IfSymmetrise&#45;&gt;IfCrop</title>
<path fill="none" stroke="black" d="M762.45,-430.18C764.51,-418.18 767.33,-401.78 769.73,-387.82"/>
<polygon fill="black" stroke="black" points="773.12,-388.76 771.37,-378.31 766.22,-387.57 773.12,-388.76"/>
<text xml:space="preserve" text-anchor="middle" x="777.78" y="-398.7" font-family="Helvetica,sans-Serif" font-size="14.00">No</text>
</g>
<!-- Symmetrise -->
<g id="node16" class="node">
<title>Symmetrise</title>
<path fill="lightskyblue" stroke="black" d="M586.18,-287.5C586.18,-287.5 510.93,-287.5 510.93,-287.5 504.93,-287.5 498.93,-281.5 498.93,-275.5 498.93,-275.5 498.93,-263.5 498.93,-263.5 498.93,-257.5 504.93,-251.5 510.93,-251.5 510.93,-251.5 586.18,-251.5 586.18,-251.5 592.18,-251.5 598.18,-257.5 598.18,-263.5 598.18,-263.5 598.18,-275.5 598.18,-275.5 598.18,-281.5 592.18,-287.5 586.18,-287.5"/>
<text xml:space="preserve" text-anchor="middle" x="548.56" y="-264.82" font-family="Helvetica,sans-Serif" font-size="14.00">Symmetrise</text>
</g>
<!-- IfSymmetrise&#45;&gt;Symmetrise -->
<g id="edge14" class="edge">
<title>IfSymmetrise&#45;&gt;Symmetrise</title>
<path fill="none" stroke="black" d="M676.11,-439.28C595.67,-429.9 482.25,-410.93 455.06,-376.75 431.5,-347.13 470.13,-314.7 504.65,-293.55"/>
<polygon fill="black" stroke="black" points="506.09,-296.77 512.92,-288.67 502.53,-290.74 506.09,-296.77"/>
<text xml:space="preserve" text-anchor="middle" x="466.31" y="-354.07" font-family="Helvetica,sans-Serif" font-size="14.00">Yes</text>
</g>
<!-- IfConvolve -->
<g id="node6" class="node">
<title>IfConvolve</title>
<polygon fill="limegreen" stroke="black" points="697.56,-198.25 485.26,-180.25 697.56,-162.25 909.85,-180.25 697.56,-198.25"/>
<text xml:space="preserve" text-anchor="middle" x="697.56" y="-175.57" font-family="Helvetica,sans-Serif" font-size="14.00">Have Resolution workspace?</text>
</g>
<!-- IfCrop&#45;&gt;IfConvolve -->
<g id="edge20" class="edge">
<title>IfCrop&#45;&gt;IfConvolve</title>
<path fill="none" stroke="black" d="M772.68,-340.49C769.84,-318.87 763.27,-281.07 749.56,-251.5 741.96,-235.11 730.17,-218.76 719.75,-205.97"/>
<polygon fill="black" stroke="black" points="722.56,-203.88 713.45,-198.49 717.21,-208.39 722.56,-203.88"/>
<text xml:space="preserve" text-anchor="middle" x="771.67" y="-264.82" font-family="Helvetica,sans-Serif" font-size="14.00">No</text>
</g>
<!-- CropWorkspace -->
<g id="node17" class="node">
<title>CropWorkspace</title>
<path fill="lightskyblue" stroke="black" d="M728.56,-287.5C728.56,-287.5 628.56,-287.5 628.56,-287.5 622.56,-287.5 616.56,-281.5 616.56,-275.5 616.56,-275.5 616.56,-263.5 616.56,-263.5 616.56,-257.5 622.56,-251.5 628.56,-251.5 628.56,-251.5 728.56,-251.5 728.56,-251.5 734.56,-251.5 740.56,-257.5 740.56,-263.5 740.56,-263.5 740.56,-275.5 740.56,-275.5 740.56,-281.5 734.56,-287.5 728.56,-287.5"/>
<text xml:space="preserve" text-anchor="middle" x="678.56" y="-264.82" font-family="Helvetica,sans-Serif" font-size="14.00">CropWorkspace</text>
</g>
<!-- IfCrop&#45;&gt;CropWorkspace -->
<g id="edge18" class="edge">
<title>IfCrop&#45;&gt;CropWorkspace</title>
<path fill="none" stroke="black" d="M757.84,-342.55C743.56,-329.58 722.76,-310.67 706.04,-295.48"/>
<polygon fill="black" stroke="black" points="708.6,-293.07 698.85,-288.94 703.89,-298.25 708.6,-293.07"/>
<text xml:space="preserve" text-anchor="middle" x="746.41" y="-309.45" font-family="Helvetica,sans-Serif" font-size="14.00">Yes</text>
</g>
<!-- ConvolveWorkspaces -->
<g id="node18" class="node">
<title>ConvolveWorkspaces</title>
<path fill="lightskyblue" stroke="black" d="M688.06,-109C688.06,-109 549.06,-109 549.06,-109 543.06,-109 537.06,-103 537.06,-97 537.06,-97 537.06,-85 537.06,-85 537.06,-79 543.06,-73 549.06,-73 549.06,-73 688.06,-73 688.06,-73 694.06,-73 700.06,-79 700.06,-85 700.06,-85 700.06,-97 700.06,-97 700.06,-103 694.06,-109 688.06,-109"/>
<text xml:space="preserve" text-anchor="middle" x="618.56" y="-86.33" font-family="Helvetica,sans-Serif" font-size="14.00">ConvolveWorkspaces</text>
</g>
<!-- IfConvolve&#45;&gt;ConvolveWorkspaces -->
<g id="edge21" class="edge">
<title>IfConvolve&#45;&gt;ConvolveWorkspaces</title>
<path fill="none" stroke="black" d="M683.07,-163.25C671.52,-150.5 655.14,-132.4 641.77,-117.64"/>
<polygon fill="black" stroke="black" points="644.63,-115.58 635.33,-110.52 639.44,-120.28 644.63,-115.58"/>
<text xml:space="preserve" text-anchor="middle" x="676.38" y="-130.95" font-family="Helvetica,sans-Serif" font-size="14.00">Yes</text>
</g>
<!-- IfConvolve&#45;&gt;ProcessEnergyWorkspaces_End -->
<g id="edge24" class="edge">
<title>IfConvolve&#45;&gt;ProcessEnergyWorkspaces_End</title>
<path fill="none" stroke="black" d="M701.66,-162.4C708.34,-134.94 721.65,-80.26 729.76,-46.93"/>
<polygon fill="black" stroke="black" points="733.07,-48.12 732.04,-37.57 726.27,-46.46 733.07,-48.12"/>
<text xml:space="preserve" text-anchor="middle" x="732.52" y="-86.33" font-family="Helvetica,sans-Serif" font-size="14.00">No</text>
</g>
<!-- ProcessEnergyWorkspaces -->
<g id="node7" class="node">
<title>ProcessEnergyWorkspaces</title>
<polygon fill="lightseagreen" stroke="black" points="324.18,-376.75 116.93,-376.75 116.93,-340.75 324.18,-340.75 324.18,-376.75"/>
<text xml:space="preserve" text-anchor="middle" x="220.56" y="-354.07" font-family="Helvetica,sans-Serif" font-size="14.00">Process energy workspaces</text>
</g>
<!-- ProcessEnergyWorkspaces&#45;&gt;IfSave -->
<g id="edge9" class="edge">
<title>ProcessEnergyWorkspaces&#45;&gt;IfSave</title>
<path fill="none" stroke="black" d="M230.63,-340.51C238.25,-327.48 248.8,-309.43 257.29,-294.91"/>
<polygon fill="black" stroke="black" points="260.24,-296.8 262.26,-286.4 254.19,-293.27 260.24,-296.8"/>
</g>
<!-- OutputWorkspace -->
<g id="node12" class="node">
<title>OutputWorkspace</title>
<ellipse fill="khaki" stroke="black" cx="98.56" cy="-269.5" rx="98.56" ry="18"/>
<text xml:space="preserve" text-anchor="middle" x="98.56" y="-264.82" font-family="Helvetica,sans-Serif" font-size="14.00">OutputWorkspace</text>
</g>
<!-- ProcessEnergyWorkspaces&#45;&gt;OutputWorkspace -->
<g id="edge8" class="edge">
<title>ProcessEnergyWorkspaces&#45;&gt;OutputWorkspace</title>
<path fill="none" stroke="black" d="M196.16,-340.3C177.55,-326.99 151.73,-308.53 131.32,-293.93"/>
<polygon fill="black" stroke="black" points="133.48,-291.17 123.31,-288.2 129.41,-296.87 133.48,-291.17"/>
</g>
<!-- Data -->
<g id="node8" class="node">
<title>Data</title>
<ellipse fill="khaki" stroke="black" cx="169.56" cy="-610.25" rx="33.85" ry="18"/>
<text xml:space="preserve" text-anchor="middle" x="169.56" y="-605.58" font-family="Helvetica,sans-Serif" font-size="14.00">Data</text>
</g>
<!-- Data&#45;&gt;Version -->
<g id="edge1" class="edge">
<title>Data&#45;&gt;Version</title>
<path fill="none" stroke="black" d="M169.56,-592.06C169.56,-584.48 169.56,-575.35 169.56,-566.79"/>
<polygon fill="black" stroke="black" points="173.06,-566.79 169.56,-556.79 166.06,-566.79 173.06,-566.79"/>
</g>
<!-- Functions -->
<g id="node9" class="node">
<title>Functions</title>
<ellipse fill="khaki" stroke="black" cx="375.56" cy="-537.25" rx="58.05" ry="18"/>
<text xml:space="preserve" text-anchor="middle" x="375.56" y="-532.58" font-family="Helvetica,sans-Serif" font-size="14.00">Functions</text>
</g>
<!-- Functions&#45;&gt;LoadNMoldyn3Ascii -->
<g id="edge2" class="edge">
<title>Functions&#45;&gt;LoadNMoldyn3Ascii</title>
<path fill="none" stroke="black" d="M345.19,-521.45C317.02,-507.72 274.7,-487.09 242.42,-471.35"/>
<polygon fill="black" stroke="black" points="244.2,-468.33 233.68,-467.09 241.13,-474.62 244.2,-468.33"/>
</g>
<!-- Functions&#45;&gt;LoadNMoldyn4Ascii -->
<g id="edge4" class="edge">
<title>Functions&#45;&gt;LoadNMoldyn4Ascii</title>
<path fill="none" stroke="black" d="M373.58,-519.01C372.23,-507.18 370.4,-491.2 368.82,-477.5"/>
<polygon fill="black" stroke="black" points="372.32,-477.24 367.7,-467.71 365.36,-478.04 372.32,-477.24"/>
</g>
<!-- Resolution -->
<g id="node10" class="node">
<title>Resolution</title>
<ellipse fill="khaki" stroke="black" cx="405.56" cy="-180.25" rx="61.73" ry="18"/>
<text xml:space="preserve" text-anchor="middle" x="405.56" y="-175.57" font-family="Helvetica,sans-Serif" font-size="14.00">Resolution</text>
</g>
<!-- Resolution&#45;&gt;ConvolveWorkspaces -->
<g id="edge22" class="edge">
<title>Resolution&#45;&gt;ConvolveWorkspaces</title>
<path fill="none" stroke="black" d="M440.25,-165.04C474.27,-151.1 526.57,-129.68 565.75,-113.63"/>
<polygon fill="black" stroke="black" points="566.84,-116.97 574.77,-109.94 564.19,-110.49 566.84,-116.97"/>
</g>
<!-- MaxEnergy -->
<g id="node11" class="node">
<title>MaxEnergy</title>
<ellipse fill="khaki" stroke="black" cx="551.56" cy="-358.75" rx="65.41" ry="18"/>
<text xml:space="preserve" text-anchor="middle" x="551.56" y="-354.07" font-family="Helvetica,sans-Serif" font-size="14.00">MaxEnergy</text>
</g>
<!-- MaxEnergy&#45;&gt;Symmetrise -->
<g id="edge13" class="edge">
<title>MaxEnergy&#45;&gt;Symmetrise</title>
<path fill="none" stroke="black" d="M550.97,-340.51C550.56,-328.68 550.01,-312.7 549.54,-299"/>
<polygon fill="black" stroke="black" points="553.04,-299.09 549.2,-289.21 546.05,-299.33 553.04,-299.09"/>
</g>
<!-- MaxEnergy&#45;&gt;CropWorkspace -->
<g id="edge17" class="edge">
<title>MaxEnergy&#45;&gt;CropWorkspace</title>
<path fill="none" stroke="black" d="M575.15,-341.54C594.52,-328.24 622.22,-309.2 644.08,-294.19"/>
<polygon fill="black" stroke="black" points="645.85,-297.22 652.11,-288.67 641.88,-291.45 645.85,-297.22"/>
</g>
<!-- LoadNMoldyn3Ascii&#45;&gt;ProcessEnergyWorkspaces -->
<g id="edge6" class="edge">
<title>LoadNMoldyn3Ascii&#45;&gt;ProcessEnergyWorkspaces</title>
<path fill="none" stroke="black" d="M201.3,-429.76C204.59,-417.81 209.04,-401.63 212.83,-387.83"/>
<polygon fill="black" stroke="black" points="216.15,-388.98 215.42,-378.41 209.4,-387.12 216.15,-388.98"/>
</g>
<!-- LoadNMoldyn4Ascii&#45;&gt;ProcessEnergyWorkspaces -->
<g id="edge7" class="edge">
<title>LoadNMoldyn4Ascii&#45;&gt;ProcessEnergyWorkspaces</title>
<path fill="none" stroke="black" d="M336.56,-429.55C314.34,-416.18 283.45,-397.59 259.14,-382.96"/>
<polygon fill="black" stroke="black" points="261.17,-380.1 250.8,-377.95 257.56,-386.1 261.17,-380.1"/>
</g>
<!-- Symmetrise&#45;&gt;IfConvolve -->
<g id="edge15" class="edge">
<title>Symmetrise&#45;&gt;IfConvolve</title>
<path fill="none" stroke="black" d="M578.35,-251.05C602.49,-236.92 636.57,-216.96 662.11,-202"/>
<polygon fill="black" stroke="black" points="663.62,-205.18 670.49,-197.1 660.09,-199.14 663.62,-205.18"/>
</g>
<!-- CropWorkspace&#45;&gt;IfConvolve -->
<g id="edge19" class="edge">
<title>CropWorkspace&#45;&gt;IfConvolve</title>
<path fill="none" stroke="black" d="M682.31,-251.26C684.93,-239.23 688.48,-222.92 691.5,-209.07"/>
<polygon fill="black" stroke="black" points="694.85,-210.15 693.55,-199.63 688.01,-208.66 694.85,-210.15"/>
</g>
<!-- ConvolveWorkspaces&#45;&gt;ProcessEnergyWorkspaces_End -->
<g id="edge23" class="edge">
<title>ConvolveWorkspaces&#45;&gt;ProcessEnergyWorkspaces_End</title>
<path fill="none" stroke="black" d="M647.42,-72.63C665.19,-61.94 687.93,-48.26 706,-37.39"/>
<polygon fill="black" stroke="black" points="707.7,-40.45 714.46,-32.29 704.09,-34.45 707.7,-40.45"/>
</g>
<!-- ProcessEnergyWorkspaces_Start -->
<g id="node19" class="node">
<title>ProcessEnergyWorkspaces_Start</title>
<ellipse fill="lightgrey" stroke="black" cx="895.56" cy="-610.25" rx="145.38" ry="18"/>
<text xml:space="preserve" text-anchor="middle" x="895.56" y="-605.58" font-family="Helvetica,sans-Serif" font-size="14.00">Process energy workspaces</text>
</g>
<!-- ProcessEnergyWorkspaces_Start&#45;&gt;IsWorkspaceInEnergy -->
<g id="edge11" class="edge">
<title>ProcessEnergyWorkspaces_Start&#45;&gt;IsWorkspaceInEnergy</title>
<path fill="none" stroke="black" d="M895.56,-592.06C895.56,-584.48 895.56,-575.35 895.56,-566.79"/>
<polygon fill="black" stroke="black" points="899.06,-566.79 895.56,-556.79 892.06,-566.79 899.06,-566.79"/>
</g>
</g>
</svg>
