<?xml version="1.0" encoding="UTF-8" standalone="no"?>
<!DOCTYPE svg PUBLIC "-//W3C//DTD SVG 1.1//EN"
 "http://www.w3.org/Graphics/SVG/1.1/DTD/svg11.dtd">
<!-- Generated by graphviz version 13.1.1 (20250720.1534)
 -->
<!-- Title: MSDFit Pages: 1 -->
<svg width="745pt" height="575pt"
 viewBox="0.00 0.00 745.00 575.00" xmlns="http://www.w3.org/2000/svg" xmlns:xlink="http://www.w3.org/1999/xlink">
<g id="graph0" class="graph" transform="scale(1 1) rotate(0) translate(4 570.75)">
<title>MSDFit</title>
<polygon fill="white" stroke="none" points="-4,4 -4,-570.75 741.27,-570.75 741.27,4 -4,4"/>
<text xml:space="preserve" text-anchor="middle" x="368.63" y="-549.45" font-family="Helvetica,sans-Serif" font-size="14.00">MSDFit Flowchart</text>
<!-- InputWorkspace -->
<g id="node1" class="node">
<title>InputWorkspace</title>
<ellipse fill="khaki" stroke="black" cx="90.14" cy="-523.5" rx="90.14" ry="18"/>
<text xml:space="preserve" text-anchor="middle" x="90.14" y="-518.83" font-family="Helvetica,sans-Serif" font-size="14.00">InputWorkspace</text>
</g>
<!-- FitFunction -->
<g id="node15" class="node">
<title>FitFunction</title>
<polygon fill="grey" stroke="black" points="370.31,-468.5 247.55,-468.5 215.97,-432.5 338.73,-432.5 370.31,-468.5"/>
<text xml:space="preserve" text-anchor="middle" x="293.14" y="-444.32" font-family="Times,serif" font-size="14.00">Fit Function</text>
</g>
<!-- InputWorkspace&#45;&gt;FitFunction -->
<g id="edge1" class="edge">
<title>InputWorkspace&#45;&gt;FitFunction</title>
<path fill="none" stroke="black" d="M133.19,-507.44C163.1,-496.98 203.27,-482.93 235.87,-471.53"/>
<polygon fill="black" stroke="black" points="236.9,-474.88 245.19,-468.27 234.59,-468.27 236.9,-474.88"/>
</g>
<!-- Model -->
<g id="node2" class="node">
<title>Model</title>
<ellipse fill="khaki" stroke="black" cx="238.14" cy="-523.5" rx="40.16" ry="18"/>
<text xml:space="preserve" text-anchor="middle" x="238.14" y="-518.83" font-family="Helvetica,sans-Serif" font-size="14.00">Model</text>
</g>
<!-- Model&#45;&gt;FitFunction -->
<g id="edge2" class="edge">
<title>Model&#45;&gt;FitFunction</title>
<path fill="none" stroke="black" d="M250.9,-506.03C257.37,-497.68 265.39,-487.32 272.7,-477.89"/>
<polygon fill="black" stroke="black" points="275.4,-480.11 278.76,-470.07 269.87,-475.83 275.4,-480.11"/>
</g>
<!-- XStart -->
<g id="node3" class="node">
<title>XStart</title>
<ellipse fill="khaki" stroke="black" cx="430.14" cy="-450.5" rx="41.74" ry="18"/>
<text xml:space="preserve" text-anchor="middle" x="430.14" y="-445.82" font-family="Helvetica,sans-Serif" font-size="14.00">XStart</text>
</g>
<!-- PlotPeakByLogValue -->
<g id="node10" class="node">
<title>PlotPeakByLogValue</title>
<path fill="lightskyblue" stroke="black" d="M495.52,-395.5C495.52,-395.5 364.77,-395.5 364.77,-395.5 358.77,-395.5 352.77,-389.5 352.77,-383.5 352.77,-383.5 352.77,-371.5 352.77,-371.5 352.77,-365.5 358.77,-359.5 364.77,-359.5 364.77,-359.5 495.52,-359.5 495.52,-359.5 501.52,-359.5 507.52,-365.5 507.52,-371.5 507.52,-371.5 507.52,-383.5 507.52,-383.5 507.52,-389.5 501.52,-395.5 495.52,-395.5"/>
<text xml:space="preserve" text-anchor="middle" x="430.14" y="-372.82" font-family="Helvetica,sans-Serif" font-size="14.00">PlotPeakByLogValue</text>
</g>
<!-- XStart&#45;&gt;PlotPeakByLogValue -->
<g id="edge6" class="edge">
<title>XStart&#45;&gt;PlotPeakByLogValue</title>
<path fill="none" stroke="black" d="M430.14,-432.31C430.14,-424.73 430.14,-415.6 430.14,-407.04"/>
<polygon fill="black" stroke="black" points="433.64,-407.04 430.14,-397.04 426.64,-407.04 433.64,-407.04"/>
</g>
<!-- XEnd -->
<g id="node4" class="node">
<title>XEnd</title>
<ellipse fill="khaki" stroke="black" cx="527.14" cy="-450.5" rx="37" ry="18"/>
<text xml:space="preserve" text-anchor="middle" x="527.14" y="-445.82" font-family="Helvetica,sans-Serif" font-size="14.00">XEnd</text>
</g>
<!-- XEnd&#45;&gt;PlotPeakByLogValue -->
<g id="edge7" class="edge">
<title>XEnd&#45;&gt;PlotPeakByLogValue</title>
<path fill="none" stroke="black" d="M507.51,-435.13C494.67,-425.74 477.6,-413.24 462.75,-402.37"/>
<polygon fill="black" stroke="black" points="465.21,-399.83 455.07,-396.75 461.08,-405.48 465.21,-399.83"/>
</g>
<!-- SpecMin -->
<g id="node5" class="node">
<title>SpecMin</title>
<ellipse fill="khaki" stroke="black" cx="348.14" cy="-523.5" rx="52.26" ry="18"/>
<text xml:space="preserve" text-anchor="middle" x="348.14" y="-518.83" font-family="Helvetica,sans-Serif" font-size="14.00">SpecMin</text>
</g>
<!-- SpecMin&#45;&gt;FitFunction -->
<g id="edge3" class="edge">
<title>SpecMin&#45;&gt;FitFunction</title>
<path fill="none" stroke="black" d="M335.11,-505.67C328.67,-497.37 320.76,-487.16 313.55,-477.85"/>
<polygon fill="black" stroke="black" points="316.47,-475.91 307.58,-470.14 310.94,-480.19 316.47,-475.91"/>
</g>
<!-- SpecMax -->
<g id="node6" class="node">
<title>SpecMax</title>
<ellipse fill="khaki" stroke="black" cx="473.14" cy="-523.5" rx="54.89" ry="18"/>
<text xml:space="preserve" text-anchor="middle" x="473.14" y="-518.83" font-family="Helvetica,sans-Serif" font-size="14.00">SpecMax</text>
</g>
<!-- SpecMax&#45;&gt;FitFunction -->
<g id="edge4" class="edge">
<title>SpecMax&#45;&gt;FitFunction</title>
<path fill="none" stroke="black" d="M438.86,-508.98C413.15,-498.84 377.44,-484.75 347.81,-473.06"/>
<polygon fill="black" stroke="black" points="349.19,-469.84 338.6,-469.43 346.62,-476.36 349.19,-469.84"/>
</g>
<!-- OutputWorkspace -->
<g id="node7" class="node">
<title>OutputWorkspace</title>
<ellipse fill="khaki" stroke="black" cx="546.14" cy="-18" rx="98.56" ry="18"/>
<text xml:space="preserve" text-anchor="middle" x="546.14" y="-13.32" font-family="Helvetica,sans-Serif" font-size="14.00">OutputWorkspace</text>
</g>
<!-- ParameterWorkspace -->
<g id="node8" class="node">
<title>ParameterWorkspace</title>
<ellipse fill="khaki" stroke="black" cx="143.14" cy="-288.25" rx="114.34" ry="18"/>
<text xml:space="preserve" text-anchor="middle" x="143.14" y="-283.57" font-family="Helvetica,sans-Serif" font-size="14.00">ParameterWorkspace</text>
</g>
<!-- FitWorkspaces -->
<g id="node9" class="node">
<title>FitWorkspaces</title>
<ellipse fill="khaki" stroke="black" cx="356.14" cy="-288.25" rx="80.67" ry="18"/>
<text xml:space="preserve" text-anchor="middle" x="356.14" y="-283.57" font-family="Helvetica,sans-Serif" font-size="14.00">FitWorkspaces</text>
</g>
<!-- PlotPeakByLogValue&#45;&gt;ParameterWorkspace -->
<g id="edge8" class="edge">
<title>PlotPeakByLogValue&#45;&gt;ParameterWorkspace</title>
<path fill="none" stroke="black" d="M352.46,-362.68C325.56,-357.11 295.39,-349.98 268.39,-341.5 241.29,-332.99 211.95,-320.91 188.47,-310.51"/>
<polygon fill="black" stroke="black" points="190.07,-307.39 179.51,-306.49 187.2,-313.78 190.07,-307.39"/>
<text xml:space="preserve" text-anchor="middle" x="307.77" y="-328.2" font-family="Helvetica,sans-Serif" font-size="14.00">Parameters</text>
</g>
<!-- PlotPeakByLogValue&#45;&gt;FitWorkspaces -->
<g id="edge9" class="edge">
<title>PlotPeakByLogValue&#45;&gt;FitWorkspaces</title>
<path fill="none" stroke="black" d="M375.67,-359.07C368.35,-354.47 361.78,-348.71 357.14,-341.5 352.72,-334.63 351.29,-326.13 351.29,-317.99"/>
<polygon fill="black" stroke="black" points="354.77,-318.31 352.01,-308.08 347.79,-317.8 354.77,-318.31"/>
<text xml:space="preserve" text-anchor="middle" x="420.14" y="-328.2" font-family="Helvetica,sans-Serif" font-size="14.00">Fitted Workspaces</text>
</g>
<!-- ConvertToMatrixWorkspace_A0 -->
<g id="node11" class="node">
<title>ConvertToMatrixWorkspace_A0</title>
<path fill="lightskyblue" stroke="black" d="M601.27,-252.25C601.27,-252.25 421.02,-252.25 421.02,-252.25 415.02,-252.25 409.02,-246.25 409.02,-240.25 409.02,-240.25 409.02,-228.25 409.02,-228.25 409.02,-222.25 415.02,-216.25 421.02,-216.25 421.02,-216.25 601.27,-216.25 601.27,-216.25 607.27,-216.25 613.27,-222.25 613.27,-228.25 613.27,-228.25 613.27,-240.25 613.27,-240.25 613.27,-246.25 607.27,-252.25 601.27,-252.25"/>
<text xml:space="preserve" text-anchor="middle" x="511.14" y="-229.57" font-family="Helvetica,sans-Serif" font-size="14.00">ConvertToMatrixWorkspace</text>
</g>
<!-- PlotPeakByLogValue&#45;&gt;ConvertToMatrixWorkspace_A0 -->
<g id="edge10" class="edge">
<title>PlotPeakByLogValue&#45;&gt;ConvertToMatrixWorkspace_A0</title>
<path fill="none" stroke="black" d="M464.65,-359.02C471.6,-354.16 478.25,-348.31 483.14,-341.5 499.54,-318.64 506.34,-286.85 509.15,-264.01"/>
<polygon fill="black" stroke="black" points="512.62,-264.48 510.16,-254.18 505.66,-263.77 512.62,-264.48"/>
<text xml:space="preserve" text-anchor="middle" x="532.12" y="-328.2" font-family="Helvetica,sans-Serif" font-size="14.00">Parameters</text>
</g>
<!-- ConvertToMatrixWorkspace_A1 -->
<g id="node12" class="node">
<title>ConvertToMatrixWorkspace_A1</title>
<path fill="lightskyblue" stroke="black" d="M725.27,-306.25C725.27,-306.25 545.02,-306.25 545.02,-306.25 539.02,-306.25 533.02,-300.25 533.02,-294.25 533.02,-294.25 533.02,-282.25 533.02,-282.25 533.02,-276.25 539.02,-270.25 545.02,-270.25 545.02,-270.25 725.27,-270.25 725.27,-270.25 731.27,-270.25 737.27,-276.25 737.27,-282.25 737.27,-282.25 737.27,-294.25 737.27,-294.25 737.27,-300.25 731.27,-306.25 725.27,-306.25"/>
<text xml:space="preserve" text-anchor="middle" x="635.14" y="-283.57" font-family="Helvetica,sans-Serif" font-size="14.00">ConvertToMatrixWorkspace</text>
</g>
<!-- PlotPeakByLogValue&#45;&gt;ConvertToMatrixWorkspace_A1 -->
<g id="edge12" class="edge">
<title>PlotPeakByLogValue&#45;&gt;ConvertToMatrixWorkspace_A1</title>
<path fill="none" stroke="black" d="M507.61,-369.12C534.46,-364.1 563.87,-355.66 588.14,-341.5 599.24,-335.02 609.16,-325.03 617,-315.51"/>
<polygon fill="black" stroke="black" points="619.57,-317.91 622.92,-307.86 614.03,-313.63 619.57,-317.91"/>
<text xml:space="preserve" text-anchor="middle" x="648.25" y="-328.2" font-family="Helvetica,sans-Serif" font-size="14.00">Parameters</text>
</g>
<!-- GroupWorkspaces -->
<g id="node14" class="node">
<title>GroupWorkspaces</title>
<path fill="lightskyblue" stroke="black" d="M604.77,-109C604.77,-109 487.52,-109 487.52,-109 481.52,-109 475.52,-103 475.52,-97 475.52,-97 475.52,-85 475.52,-85 475.52,-79 481.52,-73 487.52,-73 487.52,-73 604.77,-73 604.77,-73 610.77,-73 616.77,-79 616.77,-85 616.77,-85 616.77,-97 616.77,-97 616.77,-103 610.77,-109 604.77,-109"/>
<text xml:space="preserve" text-anchor="middle" x="546.14" y="-86.33" font-family="Helvetica,sans-Serif" font-size="14.00">GroupWorkspaces</text>
</g>
<!-- ConvertToMatrixWorkspace_A0&#45;&gt;GroupWorkspaces -->
<g id="edge11" class="edge">
<title>ConvertToMatrixWorkspace_A0&#45;&gt;GroupWorkspaces</title>
<path fill="none" stroke="black" d="M515.43,-215.93C521.34,-192.1 532.04,-148.92 539.12,-120.35"/>
<polygon fill="black" stroke="black" points="542.44,-121.48 541.45,-110.93 535.65,-119.8 542.44,-121.48"/>
<text xml:space="preserve" text-anchor="middle" x="538.02" y="-175.57" font-family="Helvetica,sans-Serif" font-size="14.00">A0</text>
</g>
<!-- SortXAxis -->
<g id="node13" class="node">
<title>SortXAxis</title>
<path fill="lightskyblue" stroke="black" d="M649.89,-198.25C649.89,-198.25 590.39,-198.25 590.39,-198.25 584.39,-198.25 578.39,-192.25 578.39,-186.25 578.39,-186.25 578.39,-174.25 578.39,-174.25 578.39,-168.25 584.39,-162.25 590.39,-162.25 590.39,-162.25 649.89,-162.25 649.89,-162.25 655.89,-162.25 661.89,-168.25 661.89,-174.25 661.89,-174.25 661.89,-186.25 661.89,-186.25 661.89,-192.25 655.89,-198.25 649.89,-198.25"/>
<text xml:space="preserve" text-anchor="middle" x="620.14" y="-175.57" font-family="Helvetica,sans-Serif" font-size="14.00">SortXAxis</text>
</g>
<!-- ConvertToMatrixWorkspace_A1&#45;&gt;SortXAxis -->
<g id="edge13" class="edge">
<title>ConvertToMatrixWorkspace_A1&#45;&gt;SortXAxis</title>
<path fill="none" stroke="black" d="M632.73,-270.22C630.43,-253.94 626.91,-229.07 624.18,-209.77"/>
<polygon fill="black" stroke="black" points="627.67,-209.5 622.81,-200.09 620.74,-210.48 627.67,-209.5"/>
</g>
<!-- SortXAxis&#45;&gt;GroupWorkspaces -->
<g id="edge14" class="edge">
<title>SortXAxis&#45;&gt;GroupWorkspaces</title>
<path fill="none" stroke="black" d="M605.52,-162.01C594.78,-149.35 580,-131.92 567.88,-117.63"/>
<polygon fill="black" stroke="black" points="570.85,-115.72 561.71,-110.36 565.51,-120.25 570.85,-115.72"/>
<text xml:space="preserve" text-anchor="middle" x="599.14" y="-130.95" font-family="Helvetica,sans-Serif" font-size="14.00">A1</text>
</g>
<!-- GroupWorkspaces&#45;&gt;OutputWorkspace -->
<g id="edge15" class="edge">
<title>GroupWorkspaces&#45;&gt;OutputWorkspace</title>
<path fill="none" stroke="black" d="M546.14,-72.81C546.14,-65.23 546.14,-56.1 546.14,-47.54"/>
<polygon fill="black" stroke="black" points="549.64,-47.54 546.14,-37.54 542.64,-47.54 549.64,-47.54"/>
</g>
<!-- FitFunction&#45;&gt;PlotPeakByLogValue -->
<g id="edge5" class="edge">
<title>FitFunction&#45;&gt;PlotPeakByLogValue</title>
<path fill="none" stroke="black" d="M326.65,-432.13C344.65,-422.81 367.05,-411.2 386.4,-401.17"/>
<polygon fill="black" stroke="black" points="387.89,-404.34 395.15,-396.63 384.66,-398.13 387.89,-404.34"/>
</g>
</g>
</svg>
