<?xml version="1.0" encoding="UTF-8" standalone="no"?>
<!DOCTYPE svg PUBLIC "-//W3C//DTD SVG 1.1//EN"
 "http://www.w3.org/Graphics/SVG/1.1/DTD/svg11.dtd">
<!-- Generated by graphviz version 7.0.5 (20221231.0122)
 -->
<!-- Title: MSDFit Pages: 1 -->
<svg width="728pt" height="568pt"
 viewBox="0.00 0.00 728.34 568.00" xmlns="http://www.w3.org/2000/svg" xmlns:xlink="http://www.w3.org/1999/xlink">
<g id="graph0" class="graph" transform="scale(1 1) rotate(0) translate(4 564)">
<title>MSDFit</title>
<polygon fill="white" stroke="none" points="-4,4 -4,-564 724.34,-564 724.34,4 -4,4"/>
<text text-anchor="middle" x="360.17" y="-544.8" font-family="Helvetica,sans-Serif" font-size="14.00">MSDFit Flowchart</text>
<!-- InputWorkspace -->
<g id="node1" class="node">
<title>InputWorkspace</title>
<ellipse fill="khaki" stroke="black" cx="83.84" cy="-519" rx="83.69" ry="18"/>
<text text-anchor="middle" x="83.84" y="-515.3" font-family="Helvetica,sans-Serif" font-size="14.00">InputWorkspace</text>
</g>
<!-- FitFunction -->
<g id="node15" class="node">
<title>FitFunction</title>
<polygon fill="grey" stroke="black" points="355.03,-464 229.06,-464 196.65,-428 322.62,-428 355.03,-464"/>
<text text-anchor="middle" x="275.84" y="-442.3" font-family="Times,serif" font-size="14.00">Fit Function</text>
</g>
<!-- InputWorkspace&#45;&gt;FitFunction -->
<g id="edge1" class="edge">
<title>InputWorkspace&#45;&gt;FitFunction</title>
<path fill="none" stroke="black" d="M124.56,-502.94C151.84,-492.86 188.14,-479.43 218.35,-468.26"/>
<polygon fill="black" stroke="black" points="219.17,-471.69 227.34,-464.94 216.75,-465.12 219.17,-471.69"/>
</g>
<!-- Model -->
<g id="node2" class="node">
<title>Model</title>
<ellipse fill="khaki" stroke="black" cx="223.84" cy="-519" rx="37.89" ry="18"/>
<text text-anchor="middle" x="223.84" y="-515.3" font-family="Helvetica,sans-Serif" font-size="14.00">Model</text>
</g>
<!-- Model&#45;&gt;FitFunction -->
<g id="edge2" class="edge">
<title>Model&#45;&gt;FitFunction</title>
<path fill="none" stroke="black" d="M235.9,-501.53C242.02,-493.18 249.61,-482.82 256.52,-473.39"/>
<polygon fill="black" stroke="black" points="259.14,-475.73 262.23,-465.59 253.5,-471.59 259.14,-475.73"/>
</g>
<!-- XStart -->
<g id="node3" class="node">
<title>XStart</title>
<ellipse fill="khaki" stroke="black" cx="411.84" cy="-446" rx="38.99" ry="18"/>
<text text-anchor="middle" x="411.84" y="-442.3" font-family="Helvetica,sans-Serif" font-size="14.00">XStart</text>
</g>
<!-- PlotPeakByLogValue -->
<g id="node10" class="node">
<title>PlotPeakByLogValue</title>
<path fill="lightskyblue" stroke="black" d="M477.34,-391C477.34,-391 346.34,-391 346.34,-391 340.34,-391 334.34,-385 334.34,-379 334.34,-379 334.34,-367 334.34,-367 334.34,-361 340.34,-355 346.34,-355 346.34,-355 477.34,-355 477.34,-355 483.34,-355 489.34,-361 489.34,-367 489.34,-367 489.34,-379 489.34,-379 489.34,-385 483.34,-391 477.34,-391"/>
<text text-anchor="middle" x="411.84" y="-369.3" font-family="Helvetica,sans-Serif" font-size="14.00">PlotPeakByLogValue</text>
</g>
<!-- XStart&#45;&gt;PlotPeakByLogValue -->
<g id="edge6" class="edge">
<title>XStart&#45;&gt;PlotPeakByLogValue</title>
<path fill="none" stroke="black" d="M411.84,-427.81C411.84,-420.23 411.84,-411.1 411.84,-402.54"/>
<polygon fill="black" stroke="black" points="415.34,-402.54 411.84,-392.54 408.34,-402.54 415.34,-402.54"/>
</g>
<!-- XEnd -->
<g id="node4" class="node">
<title>XEnd</title>
<ellipse fill="khaki" stroke="black" cx="502.84" cy="-446" rx="34.39" ry="18"/>
<text text-anchor="middle" x="502.84" y="-442.3" font-family="Helvetica,sans-Serif" font-size="14.00">XEnd</text>
</g>
<!-- XEnd&#45;&gt;PlotPeakByLogValue -->
<g id="edge7" class="edge">
<title>XEnd&#45;&gt;PlotPeakByLogValue</title>
<path fill="none" stroke="black" d="M484.43,-430.63C472.5,-421.33 456.66,-408.97 442.83,-398.18"/>
<polygon fill="black" stroke="black" points="445.32,-395.68 435.28,-392.29 441.01,-401.2 445.32,-395.68"/>
</g>
<!-- SpecMin -->
<g id="node5" class="node">
<title>SpecMin</title>
<ellipse fill="khaki" stroke="black" cx="327.84" cy="-519" rx="48.99" ry="18"/>
<text text-anchor="middle" x="327.84" y="-515.3" font-family="Helvetica,sans-Serif" font-size="14.00">SpecMin</text>
</g>
<!-- SpecMin&#45;&gt;FitFunction -->
<g id="edge3" class="edge">
<title>SpecMin&#45;&gt;FitFunction</title>
<path fill="none" stroke="black" d="M315.52,-501.17C309.5,-492.96 302.12,-482.87 295.36,-473.64"/>
<polygon fill="black" stroke="black" points="298.25,-471.67 289.51,-465.67 292.6,-475.8 298.25,-471.67"/>
</g>
<!-- SpecMax -->
<g id="node6" class="node">
<title>SpecMax</title>
<ellipse fill="khaki" stroke="black" cx="445.84" cy="-519" rx="51.19" ry="18"/>
<text text-anchor="middle" x="445.84" y="-515.3" font-family="Helvetica,sans-Serif" font-size="14.00">SpecMax</text>
</g>
<!-- SpecMax&#45;&gt;FitFunction -->
<g id="edge4" class="edge">
<title>SpecMax&#45;&gt;FitFunction</title>
<path fill="none" stroke="black" d="M413.87,-504.65C389.73,-494.57 356.1,-480.52 328.08,-468.81"/>
<polygon fill="black" stroke="black" points="329.61,-465.66 319.04,-465.04 326.92,-472.12 329.61,-465.66"/>
</g>
<!-- OutputWorkspace -->
<g id="node7" class="node">
<title>OutputWorkspace</title>
<ellipse fill="khaki" stroke="black" cx="527.84" cy="-18" rx="91.78" ry="18"/>
<text text-anchor="middle" x="527.84" y="-14.3" font-family="Helvetica,sans-Serif" font-size="14.00">OutputWorkspace</text>
</g>
<!-- ParameterWorkspace -->
<g id="node8" class="node">
<title>ParameterWorkspace</title>
<ellipse fill="khaki" stroke="black" cx="136.84" cy="-286" rx="106.68" ry="18"/>
<text text-anchor="middle" x="136.84" y="-282.3" font-family="Helvetica,sans-Serif" font-size="14.00">ParameterWorkspace</text>
</g>
<!-- FitWorkspaces -->
<g id="node9" class="node">
<title>FitWorkspaces</title>
<ellipse fill="khaki" stroke="black" cx="336.84" cy="-286" rx="75.29" ry="18"/>
<text text-anchor="middle" x="336.84" y="-282.3" font-family="Helvetica,sans-Serif" font-size="14.00">FitWorkspaces</text>
</g>
<!-- PlotPeakByLogValue&#45;&gt;ParameterWorkspace -->
<g id="edge8" class="edge">
<title>PlotPeakByLogValue&#45;&gt;ParameterWorkspace</title>
<path fill="none" stroke="black" d="M334.03,-358.35C307.35,-352.81 277.51,-345.65 250.84,-337 226.75,-329.18 200.82,-318.05 179.79,-308.26"/>
<polygon fill="black" stroke="black" points="181.49,-305.2 170.95,-304.09 178.5,-311.53 181.49,-305.2"/>
<text text-anchor="middle" x="290.34" y="-325.8" font-family="Helvetica,sans-Serif" font-size="14.00">Parameters</text>
</g>
<!-- PlotPeakByLogValue&#45;&gt;FitWorkspaces -->
<g id="edge9" class="edge">
<title>PlotPeakByLogValue&#45;&gt;FitWorkspaces</title>
<path fill="none" stroke="black" d="M356.65,-354.68C349.22,-350.07 342.55,-344.28 337.84,-337 333.76,-330.69 332.32,-322.92 332.21,-315.41"/>
<polygon fill="black" stroke="black" points="335.69,-315.77 332.84,-305.57 328.71,-315.32 335.69,-315.77"/>
<text text-anchor="middle" x="401.34" y="-325.8" font-family="Helvetica,sans-Serif" font-size="14.00">Fitted Workspaces</text>
</g>
<!-- ConvertToMatrixWorkspace_A0 -->
<g id="node11" class="node">
<title>ConvertToMatrixWorkspace_A0</title>
<path fill="lightskyblue" stroke="black" d="M583.34,-250C583.34,-250 402.34,-250 402.34,-250 396.34,-250 390.34,-244 390.34,-238 390.34,-238 390.34,-226 390.34,-226 390.34,-220 396.34,-214 402.34,-214 402.34,-214 583.34,-214 583.34,-214 589.34,-214 595.34,-220 595.34,-226 595.34,-226 595.34,-238 595.34,-238 595.34,-244 589.34,-250 583.34,-250"/>
<text text-anchor="middle" x="492.84" y="-228.3" font-family="Helvetica,sans-Serif" font-size="14.00">ConvertToMatrixWorkspace</text>
</g>
<!-- PlotPeakByLogValue&#45;&gt;ConvertToMatrixWorkspace_A0 -->
<g id="edge10" class="edge">
<title>PlotPeakByLogValue&#45;&gt;ConvertToMatrixWorkspace_A0</title>
<path fill="none" stroke="black" d="M446.33,-354.5C453.28,-349.64 459.94,-343.8 464.84,-337 480.81,-314.87 487.68,-284.16 490.62,-261.86"/>
<polygon fill="black" stroke="black" points="494.1,-262.27 491.72,-251.94 487.14,-261.49 494.1,-262.27"/>
<text text-anchor="middle" x="512.34" y="-325.8" font-family="Helvetica,sans-Serif" font-size="14.00">Parameters</text>
</g>
<!-- ConvertToMatrixWorkspace_A1 -->
<g id="node12" class="node">
<title>ConvertToMatrixWorkspace_A1</title>
<path fill="lightskyblue" stroke="black" d="M708.34,-304C708.34,-304 527.34,-304 527.34,-304 521.34,-304 515.34,-298 515.34,-292 515.34,-292 515.34,-280 515.34,-280 515.34,-274 521.34,-268 527.34,-268 527.34,-268 708.34,-268 708.34,-268 714.34,-268 720.34,-274 720.34,-280 720.34,-280 720.34,-292 720.34,-292 720.34,-298 714.34,-304 708.34,-304"/>
<text text-anchor="middle" x="617.84" y="-282.3" font-family="Helvetica,sans-Serif" font-size="14.00">ConvertToMatrixWorkspace</text>
</g>
<!-- PlotPeakByLogValue&#45;&gt;ConvertToMatrixWorkspace_A1 -->
<g id="edge12" class="edge">
<title>PlotPeakByLogValue&#45;&gt;ConvertToMatrixWorkspace_A1</title>
<path fill="none" stroke="black" d="M489.47,-364.1C516.18,-359.03 545.47,-350.69 569.84,-337 580.54,-330.99 590.34,-321.83 598.25,-312.99"/>
<polygon fill="black" stroke="black" points="600.76,-315.44 604.52,-305.53 595.4,-310.93 600.76,-315.44"/>
<text text-anchor="middle" x="628.34" y="-325.8" font-family="Helvetica,sans-Serif" font-size="14.00">Parameters</text>
</g>
<!-- GroupWorkspaces -->
<g id="node14" class="node">
<title>GroupWorkspaces</title>
<path fill="lightskyblue" stroke="black" d="M586.84,-109C586.84,-109 468.84,-109 468.84,-109 462.84,-109 456.84,-103 456.84,-97 456.84,-97 456.84,-85 456.84,-85 456.84,-79 462.84,-73 468.84,-73 468.84,-73 586.84,-73 586.84,-73 592.84,-73 598.84,-79 598.84,-85 598.84,-85 598.84,-97 598.84,-97 598.84,-103 592.84,-109 586.84,-109"/>
<text text-anchor="middle" x="527.84" y="-87.3" font-family="Helvetica,sans-Serif" font-size="14.00">GroupWorkspaces</text>
</g>
<!-- ConvertToMatrixWorkspace_A0&#45;&gt;GroupWorkspaces -->
<g id="edge11" class="edge">
<title>ConvertToMatrixWorkspace_A0&#45;&gt;GroupWorkspaces</title>
<path fill="none" stroke="black" d="M497.2,-213.68C503.11,-190.24 513.7,-148.16 520.75,-120.15"/>
<polygon fill="black" stroke="black" points="524.12,-121.12 523.17,-110.57 517.33,-119.42 524.12,-121.12"/>
<text text-anchor="middle" x="519.34" y="-174.3" font-family="Helvetica,sans-Serif" font-size="14.00">A0</text>
</g>
<!-- SortXAxis -->
<g id="node13" class="node">
<title>SortXAxis</title>
<path fill="lightskyblue" stroke="black" d="M631.84,-196C631.84,-196 571.84,-196 571.84,-196 565.84,-196 559.84,-190 559.84,-184 559.84,-184 559.84,-172 559.84,-172 559.84,-166 565.84,-160 571.84,-160 571.84,-160 631.84,-160 631.84,-160 637.84,-160 643.84,-166 643.84,-172 643.84,-172 643.84,-184 643.84,-184 643.84,-190 637.84,-196 631.84,-196"/>
<text text-anchor="middle" x="601.84" y="-174.3" font-family="Helvetica,sans-Serif" font-size="14.00">SortXAxis</text>
</g>
<!-- ConvertToMatrixWorkspace_A1&#45;&gt;SortXAxis -->
<g id="edge13" class="edge">
<title>ConvertToMatrixWorkspace_A1&#45;&gt;SortXAxis</title>
<path fill="none" stroke="black" d="M615.27,-267.97C612.81,-251.69 609.06,-226.82 606.15,-207.52"/>
<polygon fill="black" stroke="black" points="609.64,-207.2 604.69,-197.84 602.72,-208.25 609.64,-207.2"/>
</g>
<!-- SortXAxis&#45;&gt;GroupWorkspaces -->
<g id="edge14" class="edge">
<title>SortXAxis&#45;&gt;GroupWorkspaces</title>
<path fill="none" stroke="black" d="M586.87,-159.8C576.41,-147.78 562.25,-131.52 550.42,-117.94"/>
<polygon fill="black" stroke="black" points="553.25,-115.85 544.04,-110.61 547.97,-120.45 553.25,-115.85"/>
<text text-anchor="middle" x="578.34" y="-130.8" font-family="Helvetica,sans-Serif" font-size="14.00">A1</text>
</g>
<!-- GroupWorkspaces&#45;&gt;OutputWorkspace -->
<g id="edge15" class="edge">
<title>GroupWorkspaces&#45;&gt;OutputWorkspace</title>
<path fill="none" stroke="black" d="M527.84,-72.81C527.84,-65.23 527.84,-56.1 527.84,-47.54"/>
<polygon fill="black" stroke="black" points="531.34,-47.54 527.84,-37.54 524.34,-47.54 531.34,-47.54"/>
</g>
<!-- FitFunction&#45;&gt;PlotPeakByLogValue -->
<g id="edge5" class="edge">
<title>FitFunction&#45;&gt;PlotPeakByLogValue</title>
<path fill="none" stroke="black" d="M309.11,-427.63C326.98,-418.31 349.21,-406.7 368.42,-396.67"/>
<polygon fill="black" stroke="black" points="369.86,-399.87 377.1,-392.14 366.62,-393.66 369.86,-399.87"/>
</g>
</g>
</svg>
