<?xml version="1.0" encoding="UTF-8" standalone="no"?>
<!DOCTYPE svg PUBLIC "-//W3C//DTD SVG 1.1//EN"
 "http://www.w3.org/Graphics/SVG/1.1/DTD/svg11.dtd">
<!-- Generated by graphviz version 11.0.0 (20240519.1550)
 -->
<!-- Title: MSDFit Pages: 1 -->
<svg width="745pt" height="572pt"
 viewBox="0.00 0.00 745.27 571.75" xmlns="http://www.w3.org/2000/svg" xmlns:xlink="http://www.w3.org/1999/xlink">
<g id="graph0" class="graph" transform="scale(1 1) rotate(0) translate(4 567.75)">
<title>MSDFit</title>
<polygon fill="white" stroke="none" points="-4,4 -4,-567.75 741.27,-567.75 741.27,4 -4,4"/>
<text text-anchor="middle" x="368.63" y="-546.45" font-family="Helvetica,sans-Serif" font-size="14.00">MSDFit Flowchart</text>
<!-- InputWorkspace -->
<g id="node1" class="node">
<title>InputWorkspace</title>
<ellipse fill="khaki" stroke="black" cx="90.14" cy="-520.5" rx="90.14" ry="18"/>
<text text-anchor="middle" x="90.14" y="-515.83" font-family="Helvetica,sans-Serif" font-size="14.00">InputWorkspace</text>
</g>
<!-- FitFunction -->
<g id="node15" class="node">
<title>FitFunction</title>
<polygon fill="grey" stroke="black" points="370.31,-466.5 247.55,-466.5 215.97,-430.5 338.73,-430.5 370.31,-466.5"/>
<text text-anchor="middle" x="293.14" y="-442.32" font-family="Times,serif" font-size="14.00">Fit Function</text>
</g>
<!-- InputWorkspace&#45;&gt;FitFunction -->
<g id="edge1" class="edge">
<title>InputWorkspace&#45;&gt;FitFunction</title>
<path fill="none" stroke="black" d="M133.69,-504.48C163.52,-494.2 203.39,-480.45 235.8,-469.27"/>
<polygon fill="black" stroke="black" points="236.74,-472.65 245.05,-466.08 234.46,-466.03 236.74,-472.65"/>
</g>
<!-- Model -->
<g id="node2" class="node">
<title>Model</title>
<ellipse fill="khaki" stroke="black" cx="238.14" cy="-520.5" rx="40.16" ry="18"/>
<text text-anchor="middle" x="238.14" y="-515.83" font-family="Helvetica,sans-Serif" font-size="14.00">Model</text>
</g>
<!-- Model&#45;&gt;FitFunction -->
<g id="edge2" class="edge">
<title>Model&#45;&gt;FitFunction</title>
<path fill="none" stroke="black" d="M250.9,-503.26C257.37,-495.03 265.39,-484.82 272.7,-475.52"/>
<polygon fill="black" stroke="black" points="275.32,-477.84 278.75,-467.81 269.82,-473.51 275.32,-477.84"/>
</g>
<!-- XStart -->
<g id="node3" class="node">
<title>XStart</title>
<ellipse fill="khaki" stroke="black" cx="430.14" cy="-448.5" rx="41.74" ry="18"/>
<text text-anchor="middle" x="430.14" y="-443.82" font-family="Helvetica,sans-Serif" font-size="14.00">XStart</text>
</g>
<!-- PlotPeakByLogValue -->
<g id="node10" class="node">
<title>PlotPeakByLogValue</title>
<path fill="lightskyblue" stroke="black" d="M495.52,-394.5C495.52,-394.5 364.77,-394.5 364.77,-394.5 358.77,-394.5 352.77,-388.5 352.77,-382.5 352.77,-382.5 352.77,-370.5 352.77,-370.5 352.77,-364.5 358.77,-358.5 364.77,-358.5 364.77,-358.5 495.52,-358.5 495.52,-358.5 501.52,-358.5 507.52,-364.5 507.52,-370.5 507.52,-370.5 507.52,-382.5 507.52,-382.5 507.52,-388.5 501.52,-394.5 495.52,-394.5"/>
<text text-anchor="middle" x="430.14" y="-371.82" font-family="Helvetica,sans-Serif" font-size="14.00">PlotPeakByLogValue</text>
</g>
<!-- XStart&#45;&gt;PlotPeakByLogValue -->
<g id="edge6" class="edge">
<title>XStart&#45;&gt;PlotPeakByLogValue</title>
<path fill="none" stroke="black" d="M430.14,-430.2C430.14,-422.91 430.14,-414.23 430.14,-406.04"/>
<polygon fill="black" stroke="black" points="433.64,-406.12 430.14,-396.12 426.64,-406.12 433.64,-406.12"/>
</g>
<!-- XEnd -->
<g id="node4" class="node">
<title>XEnd</title>
<ellipse fill="khaki" stroke="black" cx="527.14" cy="-448.5" rx="37" ry="18"/>
<text text-anchor="middle" x="527.14" y="-443.82" font-family="Helvetica,sans-Serif" font-size="14.00">XEnd</text>
</g>
<!-- XEnd&#45;&gt;PlotPeakByLogValue -->
<g id="edge7" class="edge">
<title>XEnd&#45;&gt;PlotPeakByLogValue</title>
<path fill="none" stroke="black" d="M507.04,-433C494.48,-423.93 477.99,-412.03 463.5,-401.58"/>
<polygon fill="black" stroke="black" points="465.72,-398.86 455.56,-395.84 461.62,-404.53 465.72,-398.86"/>
</g>
<!-- SpecMin -->
<g id="node5" class="node">
<title>SpecMin</title>
<ellipse fill="khaki" stroke="black" cx="348.14" cy="-520.5" rx="52.26" ry="18"/>
<text text-anchor="middle" x="348.14" y="-515.83" font-family="Helvetica,sans-Serif" font-size="14.00">SpecMin</text>
</g>
<!-- SpecMin&#45;&gt;FitFunction -->
<g id="edge3" class="edge">
<title>SpecMin&#45;&gt;FitFunction</title>
<path fill="none" stroke="black" d="M335.11,-502.91C328.79,-494.87 321.04,-485.01 313.94,-475.97"/>
<polygon fill="black" stroke="black" points="316.71,-473.84 307.78,-468.14 311.21,-478.16 316.71,-473.84"/>
</g>
<!-- SpecMax -->
<g id="node6" class="node">
<title>SpecMax</title>
<ellipse fill="khaki" stroke="black" cx="473.14" cy="-520.5" rx="54.89" ry="18"/>
<text text-anchor="middle" x="473.14" y="-515.83" font-family="Helvetica,sans-Serif" font-size="14.00">SpecMax</text>
</g>
<!-- SpecMax&#45;&gt;FitFunction -->
<g id="edge4" class="edge">
<title>SpecMax&#45;&gt;FitFunction</title>
<path fill="none" stroke="black" d="M438.86,-506.17C413.33,-496.24 377.94,-482.48 348.43,-471"/>
<polygon fill="black" stroke="black" points="349.86,-467.8 339.27,-467.44 347.32,-474.33 349.86,-467.8"/>
</g>
<!-- OutputWorkspace -->
<g id="node7" class="node">
<title>OutputWorkspace</title>
<ellipse fill="khaki" stroke="black" cx="546.14" cy="-18" rx="98.56" ry="18"/>
<text text-anchor="middle" x="546.14" y="-13.32" font-family="Helvetica,sans-Serif" font-size="14.00">OutputWorkspace</text>
</g>
<!-- ParameterWorkspace -->
<g id="node8" class="node">
<title>ParameterWorkspace</title>
<ellipse fill="khaki" stroke="black" cx="143.14" cy="-287.25" rx="114.34" ry="18"/>
<text text-anchor="middle" x="143.14" y="-282.57" font-family="Helvetica,sans-Serif" font-size="14.00">ParameterWorkspace</text>
</g>
<!-- FitWorkspaces -->
<g id="node9" class="node">
<title>FitWorkspaces</title>
<ellipse fill="khaki" stroke="black" cx="356.14" cy="-287.25" rx="80.67" ry="18"/>
<text text-anchor="middle" x="356.14" y="-282.57" font-family="Helvetica,sans-Serif" font-size="14.00">FitWorkspaces</text>
</g>
<!-- PlotPeakByLogValue&#45;&gt;ParameterWorkspace -->
<g id="edge8" class="edge">
<title>PlotPeakByLogValue&#45;&gt;ParameterWorkspace</title>
<path fill="none" stroke="black" d="M352.55,-361.52C325.92,-355.95 296.1,-348.86 269.39,-340.5 242.1,-331.96 212.52,-319.88 188.86,-309.48"/>
<polygon fill="black" stroke="black" points="190.37,-306.32 179.81,-305.46 187.53,-312.72 190.37,-306.32"/>
<text text-anchor="middle" x="309.52" y="-327.2" font-family="Helvetica,sans-Serif" font-size="14.00">Parameters</text>
</g>
<!-- PlotPeakByLogValue&#45;&gt;FitWorkspaces -->
<g id="edge9" class="edge">
<title>PlotPeakByLogValue&#45;&gt;FitWorkspaces</title>
<path fill="none" stroke="black" d="M375.67,-358.07C368.35,-353.47 361.78,-347.71 357.14,-340.5 352.72,-333.63 351.29,-325.13 351.29,-316.99"/>
<polygon fill="black" stroke="black" points="354.77,-317.31 352.01,-307.08 347.79,-316.8 354.77,-317.31"/>
<text text-anchor="middle" x="420.14" y="-327.2" font-family="Helvetica,sans-Serif" font-size="14.00">Fitted Workspaces</text>
</g>
<!-- ConvertToMatrixWorkspace_A0 -->
<g id="node11" class="node">
<title>ConvertToMatrixWorkspace_A0</title>
<path fill="lightskyblue" stroke="black" d="M597.27,-251.25C597.27,-251.25 417.02,-251.25 417.02,-251.25 411.02,-251.25 405.02,-245.25 405.02,-239.25 405.02,-239.25 405.02,-227.25 405.02,-227.25 405.02,-221.25 411.02,-215.25 417.02,-215.25 417.02,-215.25 597.27,-215.25 597.27,-215.25 603.27,-215.25 609.27,-221.25 609.27,-227.25 609.27,-227.25 609.27,-239.25 609.27,-239.25 609.27,-245.25 603.27,-251.25 597.27,-251.25"/>
<text text-anchor="middle" x="507.14" y="-228.57" font-family="Helvetica,sans-Serif" font-size="14.00">ConvertToMatrixWorkspace</text>
</g>
<!-- PlotPeakByLogValue&#45;&gt;ConvertToMatrixWorkspace_A0 -->
<g id="edge10" class="edge">
<title>PlotPeakByLogValue&#45;&gt;ConvertToMatrixWorkspace_A0</title>
<path fill="none" stroke="black" d="M464.83,-358.15C471.77,-353.28 478.38,-347.39 483.14,-340.5 499,-317.55 504.55,-285.78 506.41,-262.97"/>
<polygon fill="black" stroke="black" points="509.89,-263.34 507,-253.15 502.9,-262.92 509.89,-263.34"/>
<text text-anchor="middle" x="531.52" y="-327.2" font-family="Helvetica,sans-Serif" font-size="14.00">Parameters</text>
</g>
<!-- ConvertToMatrixWorkspace_A1 -->
<g id="node12" class="node">
<title>ConvertToMatrixWorkspace_A1</title>
<path fill="lightskyblue" stroke="black" d="M725.27,-305.25C725.27,-305.25 545.02,-305.25 545.02,-305.25 539.02,-305.25 533.02,-299.25 533.02,-293.25 533.02,-293.25 533.02,-281.25 533.02,-281.25 533.02,-275.25 539.02,-269.25 545.02,-269.25 545.02,-269.25 725.27,-269.25 725.27,-269.25 731.27,-269.25 737.27,-275.25 737.27,-281.25 737.27,-281.25 737.27,-293.25 737.27,-293.25 737.27,-299.25 731.27,-305.25 725.27,-305.25"/>
<text text-anchor="middle" x="635.14" y="-282.57" font-family="Helvetica,sans-Serif" font-size="14.00">ConvertToMatrixWorkspace</text>
</g>
<!-- PlotPeakByLogValue&#45;&gt;ConvertToMatrixWorkspace_A1 -->
<g id="edge12" class="edge">
<title>PlotPeakByLogValue&#45;&gt;ConvertToMatrixWorkspace_A1</title>
<path fill="none" stroke="black" d="M507.61,-368.12C534.46,-363.1 563.87,-354.66 588.14,-340.5 599.24,-334.02 609.16,-324.03 617,-314.51"/>
<polygon fill="black" stroke="black" points="619.57,-316.91 622.92,-306.86 614.03,-312.63 619.57,-316.91"/>
<text text-anchor="middle" x="647.52" y="-327.2" font-family="Helvetica,sans-Serif" font-size="14.00">Parameters</text>
</g>
<!-- GroupWorkspaces -->
<g id="node14" class="node">
<title>GroupWorkspaces</title>
<path fill="lightskyblue" stroke="black" d="M604.77,-108C604.77,-108 487.52,-108 487.52,-108 481.52,-108 475.52,-102 475.52,-96 475.52,-96 475.52,-84 475.52,-84 475.52,-78 481.52,-72 487.52,-72 487.52,-72 604.77,-72 604.77,-72 610.77,-72 616.77,-78 616.77,-84 616.77,-84 616.77,-96 616.77,-96 616.77,-102 610.77,-108 604.77,-108"/>
<text text-anchor="middle" x="546.14" y="-85.33" font-family="Helvetica,sans-Serif" font-size="14.00">GroupWorkspaces</text>
</g>
<!-- ConvertToMatrixWorkspace_A0&#45;&gt;GroupWorkspaces -->
<g id="edge11" class="edge">
<title>ConvertToMatrixWorkspace_A0&#45;&gt;GroupWorkspaces</title>
<path fill="none" stroke="black" d="M511.92,-214.93C518.5,-191.1 530.42,-147.92 538.31,-119.35"/>
<polygon fill="black" stroke="black" points="541.63,-120.49 540.92,-109.92 534.88,-118.63 541.63,-120.49"/>
<text text-anchor="middle" x="535.52" y="-174.57" font-family="Helvetica,sans-Serif" font-size="14.00">A0</text>
</g>
<!-- SortXAxis -->
<g id="node13" class="node">
<title>SortXAxis</title>
<path fill="lightskyblue" stroke="black" d="M650.89,-197.25C650.89,-197.25 591.39,-197.25 591.39,-197.25 585.39,-197.25 579.39,-191.25 579.39,-185.25 579.39,-185.25 579.39,-173.25 579.39,-173.25 579.39,-167.25 585.39,-161.25 591.39,-161.25 591.39,-161.25 650.89,-161.25 650.89,-161.25 656.89,-161.25 662.89,-167.25 662.89,-173.25 662.89,-173.25 662.89,-185.25 662.89,-185.25 662.89,-191.25 656.89,-197.25 650.89,-197.25"/>
<text text-anchor="middle" x="621.14" y="-174.57" font-family="Helvetica,sans-Serif" font-size="14.00">SortXAxis</text>
</g>
<!-- ConvertToMatrixWorkspace_A1&#45;&gt;SortXAxis -->
<g id="edge13" class="edge">
<title>ConvertToMatrixWorkspace_A1&#45;&gt;SortXAxis</title>
<path fill="none" stroke="black" d="M632.89,-269.22C630.74,-252.94 627.46,-228.07 624.91,-208.77"/>
<polygon fill="black" stroke="black" points="628.41,-208.55 623.63,-199.09 621.47,-209.46 628.41,-208.55"/>
</g>
<!-- SortXAxis&#45;&gt;GroupWorkspaces -->
<g id="edge14" class="edge">
<title>SortXAxis&#45;&gt;GroupWorkspaces</title>
<path fill="none" stroke="black" d="M606.32,-161.01C595.43,-148.35 580.46,-130.92 568.17,-116.63"/>
<polygon fill="black" stroke="black" points="571.09,-114.65 561.91,-109.35 565.78,-119.21 571.09,-114.65"/>
<text text-anchor="middle" x="599.52" y="-129.95" font-family="Helvetica,sans-Serif" font-size="14.00">A1</text>
</g>
<!-- GroupWorkspaces&#45;&gt;OutputWorkspace -->
<g id="edge15" class="edge">
<title>GroupWorkspaces&#45;&gt;OutputWorkspace</title>
<path fill="none" stroke="black" d="M546.14,-71.7C546.14,-64.41 546.14,-55.73 546.14,-47.54"/>
<polygon fill="black" stroke="black" points="549.64,-47.62 546.14,-37.62 542.64,-47.62 549.64,-47.62"/>
</g>
<!-- FitFunction&#45;&gt;PlotPeakByLogValue -->
<g id="edge5" class="edge">
<title>FitFunction&#45;&gt;PlotPeakByLogValue</title>
<path fill="none" stroke="black" d="M327.36,-430.02C345.15,-420.93 367.09,-409.72 386.13,-399.99"/>
<polygon fill="black" stroke="black" points="387.7,-403.12 395.01,-395.45 384.51,-396.88 387.7,-403.12"/>
</g>
</g>
</svg>
