<?xml version="1.0" encoding="UTF-8" standalone="no"?>
<!DOCTYPE svg PUBLIC "-//W3C//DTD SVG 1.1//EN"
 "http://www.w3.org/Graphics/SVG/1.1/DTD/svg11.dtd">
<!-- Generated by graphviz version 13.1.2 (20250809.0930)
 -->
<!-- Title: OSIRISDiffractionReduction Pages: 1 -->
<svg width="2102pt" height="2594pt"
 viewBox="0.00 0.00 2102.00 2594.00" xmlns="http://www.w3.org/2000/svg" xmlns:xlink="http://www.w3.org/1999/xlink">
<g id="graph0" class="graph" transform="scale(1 1) rotate(0) translate(4 2590)">
<title>OSIRISDiffractionReduction</title>
<polygon fill="white" stroke="none" points="-4,4 -4,-2590 2098.18,-2590 2098.18,4 -4,4"/>
<text xml:space="preserve" text-anchor="middle" x="1047.09" y="-2568.7" font-family="Helvetica,sans-Serif" font-size="14.00">OSIRISDiffractionReduction Flowchart</text>
<!-- CalibrationFile -->
<g id="node1" class="node">
<title>CalibrationFile</title>
<ellipse fill="khaki" stroke="black" cx="1041" cy="-1437" rx="79.62" ry="18"/>
<text xml:space="preserve" text-anchor="middle" x="1041" y="-1432.33" font-family="Helvetica,sans-Serif" font-size="14.00">CalibrationFile</text>
</g>
<!-- Rebin1 -->
<g id="node22" class="node">
<title>Rebin1</title>
<path fill="lightskyblue" stroke="black" d="M1094.5,-1130.5C1094.5,-1130.5 1063.5,-1130.5 1063.5,-1130.5 1057.5,-1130.5 1051.5,-1124.5 1051.5,-1118.5 1051.5,-1118.5 1051.5,-1106.5 1051.5,-1106.5 1051.5,-1100.5 1057.5,-1094.5 1063.5,-1094.5 1063.5,-1094.5 1094.5,-1094.5 1094.5,-1094.5 1100.5,-1094.5 1106.5,-1100.5 1106.5,-1106.5 1106.5,-1106.5 1106.5,-1118.5 1106.5,-1118.5 1106.5,-1124.5 1100.5,-1130.5 1094.5,-1130.5"/>
<text xml:space="preserve" text-anchor="middle" x="1079" y="-1107.83" font-family="Helvetica,sans-Serif" font-size="14.00">Rebin</text>
</g>
<!-- CalibrationFile&#45;&gt;Rebin1 -->
<g id="edge35" class="edge">
<title>CalibrationFile&#45;&gt;Rebin1</title>
<path fill="none" stroke="black" d="M1045.61,-1418.63C1048.99,-1404.34 1053,-1383.5 1053,-1365 1053,-1365 1053,-1365 1053,-1184.5 1053,-1169.53 1058.16,-1153.8 1063.89,-1140.97"/>
<polygon fill="black" stroke="black" points="1066.87,-1142.84 1068.07,-1132.31 1060.57,-1139.79 1066.87,-1142.84"/>
</g>
<!-- ApplyDiffCal -->
<g id="node25" class="node">
<title>ApplyDiffCal</title>
<path fill="lightskyblue" stroke="black" d="M1404.75,-1382C1404.75,-1382 1327.25,-1382 1327.25,-1382 1321.25,-1382 1315.25,-1376 1315.25,-1370 1315.25,-1370 1315.25,-1358 1315.25,-1358 1315.25,-1352 1321.25,-1346 1327.25,-1346 1327.25,-1346 1404.75,-1346 1404.75,-1346 1410.75,-1346 1416.75,-1352 1416.75,-1358 1416.75,-1358 1416.75,-1370 1416.75,-1370 1416.75,-1376 1410.75,-1382 1404.75,-1382"/>
<text xml:space="preserve" text-anchor="middle" x="1366" y="-1359.33" font-family="Helvetica,sans-Serif" font-size="14.00">ApplyDiffCal</text>
</g>
<!-- CalibrationFile&#45;&gt;ApplyDiffCal -->
<g id="edge28" class="edge">
<title>CalibrationFile&#45;&gt;ApplyDiffCal</title>
<path fill="none" stroke="black" d="M1101.81,-1424.95C1153.18,-1415.32 1228.92,-1400.4 1303.94,-1382.41"/>
<polygon fill="black" stroke="black" points="1304.64,-1385.84 1313.53,-1380.09 1302.99,-1379.04 1304.64,-1385.84"/>
</g>
<!-- OutputWorkspace -->
<g id="node2" class="node">
<title>OutputWorkspace</title>
<ellipse fill="khaki" stroke="black" cx="423" cy="-18" rx="98.56" ry="18"/>
<text xml:space="preserve" text-anchor="middle" x="423" y="-13.32" font-family="Helvetica,sans-Serif" font-size="14.00">OutputWorkspace</text>
</g>
<!-- SampleRuns -->
<g id="node3" class="node">
<title>SampleRuns</title>
<ellipse fill="khaki" stroke="black" cx="1115" cy="-2542.75" rx="71.73" ry="18"/>
<text xml:space="preserve" text-anchor="middle" x="1115" y="-2538.07" font-family="Helvetica,sans-Serif" font-size="14.00">SampleRuns</text>
</g>
<!-- Load -->
<g id="node18" class="node">
<title>Load</title>
<path fill="lightskyblue" stroke="black" d="M1381,-2487.75C1381,-2487.75 1351,-2487.75 1351,-2487.75 1345,-2487.75 1339,-2481.75 1339,-2475.75 1339,-2475.75 1339,-2463.75 1339,-2463.75 1339,-2457.75 1345,-2451.75 1351,-2451.75 1351,-2451.75 1381,-2451.75 1381,-2451.75 1387,-2451.75 1393,-2457.75 1393,-2463.75 1393,-2463.75 1393,-2475.75 1393,-2475.75 1393,-2481.75 1387,-2487.75 1381,-2487.75"/>
<text xml:space="preserve" text-anchor="middle" x="1366" y="-2465.07" font-family="Helvetica,sans-Serif" font-size="14.00">Load</text>
</g>
<!-- SampleRuns&#45;&gt;Load -->
<g id="edge1" class="edge">
<title>SampleRuns&#45;&gt;Load</title>
<path fill="none" stroke="black" d="M1161.33,-2528.64C1209.15,-2515.12 1282.9,-2494.26 1327.59,-2481.62"/>
<polygon fill="black" stroke="black" points="1328.43,-2485.01 1337.1,-2478.92 1326.53,-2478.28 1328.43,-2485.01"/>
</g>
<!-- VanadiumRuns -->
<g id="node4" class="node">
<title>VanadiumRuns</title>
<ellipse fill="khaki" stroke="black" cx="1289" cy="-2542.75" rx="83.83" ry="18"/>
<text xml:space="preserve" text-anchor="middle" x="1289" y="-2538.07" font-family="Helvetica,sans-Serif" font-size="14.00">VanadiumRuns</text>
</g>
<!-- VanadiumRuns&#45;&gt;Load -->
<g id="edge2" class="edge">
<title>VanadiumRuns&#45;&gt;Load</title>
<path fill="none" stroke="black" d="M1307.25,-2524.92C1316.63,-2516.27 1328.25,-2505.56 1338.68,-2495.94"/>
<polygon fill="black" stroke="black" points="1340.99,-2498.57 1345.97,-2489.22 1336.24,-2493.43 1340.99,-2498.57"/>
</g>
<!-- ContainerFiles -->
<g id="node5" class="node">
<title>ContainerFiles</title>
<ellipse fill="khaki" stroke="black" cx="1462" cy="-2199.5" rx="79.62" ry="18"/>
<text xml:space="preserve" text-anchor="middle" x="1462" y="-2194.82" font-family="Helvetica,sans-Serif" font-size="14.00">ContainerFiles</text>
</g>
<!-- Load1 -->
<g id="node19" class="node">
<title>Load1</title>
<path fill="lightskyblue" stroke="black" d="M1855,-2144.5C1855,-2144.5 1825,-2144.5 1825,-2144.5 1819,-2144.5 1813,-2138.5 1813,-2132.5 1813,-2132.5 1813,-2120.5 1813,-2120.5 1813,-2114.5 1819,-2108.5 1825,-2108.5 1825,-2108.5 1855,-2108.5 1855,-2108.5 1861,-2108.5 1867,-2114.5 1867,-2120.5 1867,-2120.5 1867,-2132.5 1867,-2132.5 1867,-2138.5 1861,-2144.5 1855,-2144.5"/>
<text xml:space="preserve" text-anchor="middle" x="1840" y="-2121.82" font-family="Helvetica,sans-Serif" font-size="14.00">Load</text>
</g>
<!-- ContainerFiles&#45;&gt;Load1 -->
<g id="edge9" class="edge">
<title>ContainerFiles&#45;&gt;Load1</title>
<path fill="none" stroke="black" d="M1521.9,-2187.25C1600.45,-2172.5 1736,-2147.03 1801.86,-2134.66"/>
<polygon fill="black" stroke="black" points="1802.28,-2138.15 1811.46,-2132.86 1800.99,-2131.27 1802.28,-2138.15"/>
</g>
<!-- ContainerWorkspaces -->
<g id="node6" class="node">
<title>ContainerWorkspaces</title>
<ellipse fill="khaki" stroke="black" cx="1717" cy="-1891.25" rx="116.97" ry="18"/>
<text xml:space="preserve" text-anchor="middle" x="1717" y="-1886.58" font-family="Helvetica,sans-Serif" font-size="14.00">ContainerWorkspaces</text>
</g>
<!-- Rebin -->
<g id="node21" class="node">
<title>Rebin</title>
<path fill="lightskyblue" stroke="black" d="M1807.5,-1836.25C1807.5,-1836.25 1776.5,-1836.25 1776.5,-1836.25 1770.5,-1836.25 1764.5,-1830.25 1764.5,-1824.25 1764.5,-1824.25 1764.5,-1812.25 1764.5,-1812.25 1764.5,-1806.25 1770.5,-1800.25 1776.5,-1800.25 1776.5,-1800.25 1807.5,-1800.25 1807.5,-1800.25 1813.5,-1800.25 1819.5,-1806.25 1819.5,-1812.25 1819.5,-1812.25 1819.5,-1824.25 1819.5,-1824.25 1819.5,-1830.25 1813.5,-1836.25 1807.5,-1836.25"/>
<text xml:space="preserve" text-anchor="middle" x="1792" y="-1813.58" font-family="Helvetica,sans-Serif" font-size="14.00">Rebin</text>
</g>
<!-- ContainerWorkspaces&#45;&gt;Rebin -->
<g id="edge17" class="edge">
<title>ContainerWorkspaces&#45;&gt;Rebin</title>
<path fill="none" stroke="black" d="M1735.16,-1873.06C1744.3,-1864.41 1755.56,-1853.75 1765.64,-1844.21"/>
<polygon fill="black" stroke="black" points="1767.8,-1846.98 1772.65,-1837.57 1762.98,-1841.9 1767.8,-1846.98"/>
</g>
<!-- ContainerScaleFactor -->
<g id="node7" class="node">
<title>ContainerScaleFactor</title>
<ellipse fill="khaki" stroke="black" cx="1712" cy="-2053.5" rx="113.82" ry="18"/>
<text xml:space="preserve" text-anchor="middle" x="1712" y="-2048.82" font-family="Helvetica,sans-Serif" font-size="14.00">ContainerScaleFactor</text>
</g>
<!-- Scale -->
<g id="node20" class="node">
<title>Scale</title>
<path fill="lightskyblue" stroke="black" d="M1732,-1982.25C1732,-1982.25 1702,-1982.25 1702,-1982.25 1696,-1982.25 1690,-1976.25 1690,-1970.25 1690,-1970.25 1690,-1958.25 1690,-1958.25 1690,-1952.25 1696,-1946.25 1702,-1946.25 1702,-1946.25 1732,-1946.25 1732,-1946.25 1738,-1946.25 1744,-1952.25 1744,-1958.25 1744,-1958.25 1744,-1970.25 1744,-1970.25 1744,-1976.25 1738,-1982.25 1732,-1982.25"/>
<text xml:space="preserve" text-anchor="middle" x="1717" y="-1959.58" font-family="Helvetica,sans-Serif" font-size="14.00">Scale</text>
</g>
<!-- ContainerScaleFactor&#45;&gt;Scale -->
<g id="edge14" class="edge">
<title>ContainerScaleFactor&#45;&gt;Scale</title>
<path fill="none" stroke="black" d="M1712.99,-2035.26C1713.67,-2023.43 1714.58,-2007.45 1715.37,-1993.75"/>
<polygon fill="black" stroke="black" points="1718.85,-1994.15 1715.93,-1983.96 1711.86,-1993.75 1718.85,-1994.15"/>
</g>
<!-- SpecMin -->
<g id="node8" class="node">
<title>SpecMin</title>
<ellipse fill="khaki" stroke="black" cx="1443" cy="-2542.75" rx="52.26" ry="18"/>
<text xml:space="preserve" text-anchor="middle" x="1443" y="-2538.07" font-family="Helvetica,sans-Serif" font-size="14.00">SpecMin</text>
</g>
<!-- SpecMin&#45;&gt;Load -->
<g id="edge3" class="edge">
<title>SpecMin&#45;&gt;Load</title>
<path fill="none" stroke="black" d="M1425.53,-2525.64C1415.93,-2516.79 1403.83,-2505.63 1393.04,-2495.69"/>
<polygon fill="black" stroke="black" points="1395.59,-2493.27 1385.86,-2489.06 1390.84,-2498.42 1395.59,-2493.27"/>
</g>
<!-- SpecMin1 -->
<g id="node9" class="node">
<title>SpecMin1</title>
<ellipse fill="khaki" stroke="black" cx="1778" cy="-2199.5" rx="52.26" ry="18"/>
<text xml:space="preserve" text-anchor="middle" x="1778" y="-2194.82" font-family="Helvetica,sans-Serif" font-size="14.00">SpecMin</text>
</g>
<!-- SpecMin1&#45;&gt;Load1 -->
<g id="edge10" class="edge">
<title>SpecMin1&#45;&gt;Load1</title>
<path fill="none" stroke="black" d="M1792.38,-2182.03C1799.83,-2173.5 1809.1,-2162.89 1817.47,-2153.3"/>
<polygon fill="black" stroke="black" points="1819.9,-2155.84 1823.84,-2146.01 1814.62,-2151.24 1819.9,-2155.84"/>
</g>
<!-- SpecMin2 -->
<g id="node10" class="node">
<title>SpecMin2</title>
<ellipse fill="khaki" stroke="black" cx="176" cy="-1112.5" rx="52.26" ry="18"/>
<text xml:space="preserve" text-anchor="middle" x="176" y="-1107.83" font-family="Helvetica,sans-Serif" font-size="14.00">SpecMin</text>
</g>
<!-- group_spectra -->
<g id="node40" class="node">
<title>group_spectra</title>
<polygon fill="lightseagreen" stroke="black" points="754.38,-1057.5 569.62,-1057.5 569.62,-997.75 754.38,-997.75 754.38,-1057.5"/>
<text xml:space="preserve" text-anchor="middle" x="662" y="-1040.2" font-family="Helvetica,sans-Serif" font-size="14.00">group_spectra</text>
<text xml:space="preserve" text-anchor="middle" x="662" y="-1022.95" font-family="Helvetica,sans-Serif" font-size="14.00">Groups spectra based</text>
<text xml:space="preserve" text-anchor="middle" x="662" y="-1005.7" font-family="Helvetica,sans-Serif" font-size="14.00">on the GroupingMethod.</text>
</g>
<!-- SpecMin2&#45;&gt;group_spectra -->
<g id="edge41" class="edge">
<title>SpecMin2&#45;&gt;group_spectra</title>
<path fill="none" stroke="black" d="M214.55,-1100.02C221.96,-1098.02 229.69,-1096.08 237,-1094.5 345.61,-1071.03 471.57,-1052.59 558,-1041.26"/>
<polygon fill="black" stroke="black" points="558.43,-1044.73 567.9,-1039.97 557.53,-1037.79 558.43,-1044.73"/>
</g>
<!-- SpecMax -->
<g id="node11" class="node">
<title>SpecMax</title>
<ellipse fill="khaki" stroke="black" cx="1568" cy="-2542.75" rx="54.89" ry="18"/>
<text xml:space="preserve" text-anchor="middle" x="1568" y="-2538.07" font-family="Helvetica,sans-Serif" font-size="14.00">SpecMax</text>
</g>
<!-- SpecMax&#45;&gt;Load -->
<g id="edge4" class="edge">
<title>SpecMax&#45;&gt;Load</title>
<path fill="none" stroke="black" d="M1531.42,-2528.89C1495.36,-2516.22 1440.49,-2496.93 1403.96,-2484.09"/>
<polygon fill="black" stroke="black" points="1405.27,-2480.84 1394.68,-2480.83 1402.95,-2487.45 1405.27,-2480.84"/>
</g>
<!-- SpecMax1 -->
<g id="node12" class="node">
<title>SpecMax1</title>
<ellipse fill="khaki" stroke="black" cx="1903" cy="-2199.5" rx="54.89" ry="18"/>
<text xml:space="preserve" text-anchor="middle" x="1903" y="-2194.82" font-family="Helvetica,sans-Serif" font-size="14.00">SpecMax</text>
</g>
<!-- SpecMax1&#45;&gt;Load1 -->
<g id="edge11" class="edge">
<title>SpecMax1&#45;&gt;Load1</title>
<path fill="none" stroke="black" d="M1888.39,-2182.03C1880.82,-2173.5 1871.4,-2162.89 1862.89,-2153.3"/>
<polygon fill="black" stroke="black" points="1865.67,-2151.16 1856.42,-2146 1860.44,-2155.8 1865.67,-2151.16"/>
</g>
<!-- SpecMax2 -->
<g id="node13" class="node">
<title>SpecMax2</title>
<ellipse fill="khaki" stroke="black" cx="301" cy="-1112.5" rx="54.89" ry="18"/>
<text xml:space="preserve" text-anchor="middle" x="301" y="-1107.83" font-family="Helvetica,sans-Serif" font-size="14.00">SpecMax</text>
</g>
<!-- SpecMax2&#45;&gt;group_spectra -->
<g id="edge42" class="edge">
<title>SpecMax2&#45;&gt;group_spectra</title>
<path fill="none" stroke="black" d="M342.25,-1100.27C349.8,-1098.3 357.63,-1096.3 365,-1094.5 428.86,-1078.94 500.82,-1062.94 557.92,-1050.61"/>
<polygon fill="black" stroke="black" points="558.61,-1054.04 567.65,-1048.51 557.14,-1047.2 558.61,-1054.04"/>
</g>
<!-- GroupingMethod -->
<g id="node14" class="node">
<title>GroupingMethod</title>
<ellipse fill="khaki" stroke="black" cx="466" cy="-1112.5" rx="92.24" ry="18"/>
<text xml:space="preserve" text-anchor="middle" x="466" y="-1107.83" font-family="Helvetica,sans-Serif" font-size="14.00">GroupingMethod</text>
</g>
<!-- GroupingMethod&#45;&gt;group_spectra -->
<g id="edge37" class="edge">
<title>GroupingMethod&#45;&gt;group_spectra</title>
<path fill="none" stroke="black" d="M503.33,-1095.72C525.68,-1086.26 554.99,-1073.87 582.32,-1062.32"/>
<polygon fill="black" stroke="black" points="583.44,-1065.64 591.28,-1058.53 580.71,-1059.2 583.44,-1065.64"/>
</g>
<!-- GroupingString -->
<g id="node15" class="node">
<title>GroupingString</title>
<ellipse fill="khaki" stroke="black" cx="662" cy="-1112.5" rx="85.41" ry="18"/>
<text xml:space="preserve" text-anchor="middle" x="662" y="-1107.83" font-family="Helvetica,sans-Serif" font-size="14.00">GroupingString</text>
</g>
<!-- GroupingString&#45;&gt;group_spectra -->
<g id="edge38" class="edge">
<title>GroupingString&#45;&gt;group_spectra</title>
<path fill="none" stroke="black" d="M662,-1094.33C662,-1087.01 662,-1078.13 662,-1069.3"/>
<polygon fill="black" stroke="black" points="665.5,-1069.37 662,-1059.37 658.5,-1069.37 665.5,-1069.37"/>
</g>
<!-- GroupingFile -->
<g id="node16" class="node">
<title>GroupingFile</title>
<ellipse fill="khaki" stroke="black" cx="837" cy="-1112.5" rx="71.73" ry="18"/>
<text xml:space="preserve" text-anchor="middle" x="837" y="-1107.83" font-family="Helvetica,sans-Serif" font-size="14.00">GroupingFile</text>
</g>
<!-- GroupingFile&#45;&gt;group_spectra -->
<g id="edge39" class="edge">
<title>GroupingFile&#45;&gt;group_spectra</title>
<path fill="none" stroke="black" d="M804.49,-1096.11C784.69,-1086.73 758.56,-1074.35 734.09,-1062.77"/>
<polygon fill="black" stroke="black" points="735.63,-1059.62 725.1,-1058.51 732.64,-1065.95 735.63,-1059.62"/>
</g>
<!-- NGroups -->
<g id="node17" class="node">
<title>NGroups</title>
<ellipse fill="khaki" stroke="black" cx="980" cy="-1112.5" rx="53.31" ry="18"/>
<text xml:space="preserve" text-anchor="middle" x="980" y="-1107.83" font-family="Helvetica,sans-Serif" font-size="14.00">NGroups</text>
</g>
<!-- NGroups&#45;&gt;group_spectra -->
<g id="edge40" class="edge">
<title>NGroups&#45;&gt;group_spectra</title>
<path fill="none" stroke="black" d="M939.67,-1100.34C932.46,-1098.38 925.01,-1096.36 918,-1094.5 868.01,-1081.22 812.41,-1066.86 765.84,-1054.95"/>
<polygon fill="black" stroke="black" points="766.84,-1051.59 756.28,-1052.51 765.11,-1058.37 766.84,-1051.59"/>
</g>
<!-- SampleWorkspaceMap -->
<g id="node41" class="node">
<title>SampleWorkspaceMap</title>
<ellipse fill="lightgrey" stroke="black" cx="1503" cy="-2396.75" rx="121.18" ry="18"/>
<text xml:space="preserve" text-anchor="middle" x="1503" y="-2392.07" font-family="Helvetica,sans-Serif" font-size="14.00">SampleWorkspaceMap</text>
</g>
<!-- Load&#45;&gt;SampleWorkspaceMap -->
<g id="edge6" class="edge">
<title>Load&#45;&gt;SampleWorkspaceMap</title>
<path fill="none" stroke="black" d="M1393.39,-2454.55C1412.67,-2444.56 1438.85,-2431 1460.78,-2419.63"/>
<polygon fill="black" stroke="black" points="1462.23,-2422.82 1469.5,-2415.11 1459.01,-2416.61 1462.23,-2422.82"/>
</g>
<!-- VanadiumWorkspaceMap -->
<g id="node47" class="node">
<title>VanadiumWorkspaceMap</title>
<ellipse fill="lightgrey" stroke="black" cx="1354" cy="-2342.75" rx="133.28" ry="18"/>
<text xml:space="preserve" text-anchor="middle" x="1354" y="-2338.07" font-family="Helvetica,sans-Serif" font-size="14.00">VanadiumWorkspaceMap</text>
</g>
<!-- Load&#45;&gt;VanadiumWorkspaceMap -->
<g id="edge5" class="edge">
<title>Load&#45;&gt;VanadiumWorkspaceMap</title>
<path fill="none" stroke="black" d="M1364.33,-2451.37C1362.37,-2430.94 1359.09,-2396.74 1356.75,-2372.37"/>
<polygon fill="black" stroke="black" points="1360.24,-2372.11 1355.8,-2362.49 1353.27,-2372.78 1360.24,-2372.11"/>
</g>
<!-- scaleContainer -->
<g id="node34" class="node">
<title>scaleContainer</title>
<polygon fill="limegreen" stroke="black" points="1968,-2071.5 1844.24,-2053.5 1968,-2035.5 2091.76,-2053.5 1968,-2071.5"/>
<text xml:space="preserve" text-anchor="middle" x="1968" y="-2048.82" font-family="Helvetica,sans-Serif" font-size="14.00">Scale Container</text>
</g>
<!-- Load1&#45;&gt;scaleContainer -->
<g id="edge12" class="edge">
<title>Load1&#45;&gt;scaleContainer</title>
<path fill="none" stroke="black" d="M1867.46,-2110.27C1886.69,-2099.6 1912.54,-2085.26 1933.21,-2073.8"/>
<polygon fill="black" stroke="black" points="1934.82,-2076.91 1941.86,-2069 1931.42,-2070.79 1934.82,-2076.91"/>
</g>
<!-- Scale&#45;&gt;ContainerWorkspaces -->
<g id="edge15" class="edge">
<title>Scale&#45;&gt;ContainerWorkspaces</title>
<path fill="none" stroke="black" d="M1717,-1946.06C1717,-1938.48 1717,-1929.35 1717,-1920.79"/>
<polygon fill="black" stroke="black" points="1720.5,-1920.79 1717,-1910.79 1713.5,-1920.79 1720.5,-1920.79"/>
</g>
<!-- Minus -->
<g id="node23" class="node">
<title>Minus</title>
<path fill="lightskyblue" stroke="black" d="M1808.62,-1763.25C1808.62,-1763.25 1775.38,-1763.25 1775.38,-1763.25 1769.38,-1763.25 1763.38,-1757.25 1763.38,-1751.25 1763.38,-1751.25 1763.38,-1739.25 1763.38,-1739.25 1763.38,-1733.25 1769.38,-1727.25 1775.38,-1727.25 1775.38,-1727.25 1808.62,-1727.25 1808.62,-1727.25 1814.62,-1727.25 1820.62,-1733.25 1820.62,-1739.25 1820.62,-1739.25 1820.62,-1751.25 1820.62,-1751.25 1820.62,-1757.25 1814.62,-1763.25 1808.62,-1763.25"/>
<text xml:space="preserve" text-anchor="middle" x="1792" y="-1740.58" font-family="Helvetica,sans-Serif" font-size="14.00">Minus</text>
</g>
<!-- Rebin&#45;&gt;Minus -->
<g id="edge19" class="edge">
<title>Rebin&#45;&gt;Minus</title>
<path fill="none" stroke="black" d="M1792,-1800.06C1792,-1792.48 1792,-1783.35 1792,-1774.79"/>
<polygon fill="black" stroke="black" points="1795.5,-1774.79 1792,-1764.79 1788.5,-1774.79 1795.5,-1774.79"/>
</g>
<!-- Rebin1&#45;&gt;group_spectra -->
<g id="edge36" class="edge">
<title>Rebin1&#45;&gt;group_spectra</title>
<path fill="none" stroke="black" d="M1051.01,-1097.73C1048.01,-1096.53 1044.97,-1095.42 1042,-1094.5 950.73,-1066.15 843.11,-1048.94 765.75,-1039.25"/>
<polygon fill="black" stroke="black" points="766.41,-1035.81 756.06,-1038.06 765.56,-1042.76 766.41,-1035.81"/>
</g>
<!-- SampleWorkspaceMap2 -->
<g id="node43" class="node">
<title>SampleWorkspaceMap2</title>
<ellipse fill="lightgrey" stroke="black" cx="1570" cy="-1672.25" rx="121.18" ry="18"/>
<text xml:space="preserve" text-anchor="middle" x="1570" y="-1667.58" font-family="Helvetica,sans-Serif" font-size="14.00">SampleWorkspaceMap</text>
</g>
<!-- Minus&#45;&gt;SampleWorkspaceMap2 -->
<g id="edge21" class="edge">
<title>Minus&#45;&gt;SampleWorkspaceMap2</title>
<path fill="none" stroke="black" d="M1762.98,-1734.97C1729.46,-1724.25 1673.41,-1706.32 1630.33,-1692.54"/>
<polygon fill="black" stroke="black" points="1631.43,-1689.22 1620.84,-1689.51 1629.3,-1695.89 1631.43,-1689.22"/>
</g>
<!-- NormaliseByCurrent -->
<g id="node24" class="node">
<title>NormaliseByCurrent</title>
<path fill="lightskyblue" stroke="black" d="M1431.38,-1455C1431.38,-1455 1300.62,-1455 1300.62,-1455 1294.62,-1455 1288.62,-1449 1288.62,-1443 1288.62,-1443 1288.62,-1431 1288.62,-1431 1288.62,-1425 1294.62,-1419 1300.62,-1419 1300.62,-1419 1431.38,-1419 1431.38,-1419 1437.38,-1419 1443.38,-1425 1443.38,-1431 1443.38,-1431 1443.38,-1443 1443.38,-1443 1443.38,-1449 1437.38,-1455 1431.38,-1455"/>
<text xml:space="preserve" text-anchor="middle" x="1366" y="-1432.33" font-family="Helvetica,sans-Serif" font-size="14.00">NormaliseByCurrent</text>
</g>
<!-- NormaliseByCurrent&#45;&gt;ApplyDiffCal -->
<g id="edge27" class="edge">
<title>NormaliseByCurrent&#45;&gt;ApplyDiffCal</title>
<path fill="none" stroke="black" d="M1366,-1418.81C1366,-1411.23 1366,-1402.1 1366,-1393.54"/>
<polygon fill="black" stroke="black" points="1369.5,-1393.54 1366,-1383.54 1362.5,-1393.54 1369.5,-1393.54"/>
</g>
<!-- ConvertUnits -->
<g id="node27" class="node">
<title>ConvertUnits</title>
<path fill="lightskyblue" stroke="black" d="M1282.38,-1292.75C1282.38,-1292.75 1199.62,-1292.75 1199.62,-1292.75 1193.62,-1292.75 1187.62,-1286.75 1187.62,-1280.75 1187.62,-1280.75 1187.62,-1268.75 1187.62,-1268.75 1187.62,-1262.75 1193.62,-1256.75 1199.62,-1256.75 1199.62,-1256.75 1282.38,-1256.75 1282.38,-1256.75 1288.38,-1256.75 1294.38,-1262.75 1294.38,-1268.75 1294.38,-1268.75 1294.38,-1280.75 1294.38,-1280.75 1294.38,-1286.75 1288.38,-1292.75 1282.38,-1292.75"/>
<text xml:space="preserve" text-anchor="middle" x="1241" y="-1270.08" font-family="Helvetica,sans-Serif" font-size="14.00">ConvertUnits</text>
</g>
<!-- ApplyDiffCal&#45;&gt;ConvertUnits -->
<g id="edge29" class="edge">
<title>ApplyDiffCal&#45;&gt;ConvertUnits</title>
<path fill="none" stroke="black" d="M1341,-1345.55C1322.18,-1332.42 1296.16,-1314.25 1275.38,-1299.75"/>
<polygon fill="black" stroke="black" points="1277.4,-1296.89 1267.19,-1294.03 1273.39,-1302.63 1277.4,-1296.89"/>
</g>
<!-- ApplyDiffCal1 -->
<g id="node26" class="node">
<title>ApplyDiffCal1</title>
<path fill="lightskyblue" stroke="black" d="M1170.75,-1203.5C1170.75,-1203.5 1093.25,-1203.5 1093.25,-1203.5 1087.25,-1203.5 1081.25,-1197.5 1081.25,-1191.5 1081.25,-1191.5 1081.25,-1179.5 1081.25,-1179.5 1081.25,-1173.5 1087.25,-1167.5 1093.25,-1167.5 1093.25,-1167.5 1170.75,-1167.5 1170.75,-1167.5 1176.75,-1167.5 1182.75,-1173.5 1182.75,-1179.5 1182.75,-1179.5 1182.75,-1191.5 1182.75,-1191.5 1182.75,-1197.5 1176.75,-1203.5 1170.75,-1203.5"/>
<text xml:space="preserve" text-anchor="middle" x="1132" y="-1180.83" font-family="Helvetica,sans-Serif" font-size="14.00">ApplyDiffCal</text>
</g>
<!-- ApplyDiffCal1&#45;&gt;Rebin1 -->
<g id="edge34" class="edge">
<title>ApplyDiffCal1&#45;&gt;Rebin1</title>
<path fill="none" stroke="black" d="M1119.17,-1167.31C1112.99,-1159.03 1105.43,-1148.91 1098.55,-1139.69"/>
<polygon fill="black" stroke="black" points="1101.4,-1137.66 1092.62,-1131.74 1095.79,-1141.85 1101.4,-1137.66"/>
</g>
<!-- ConvertUnits&#45;&gt;ApplyDiffCal1 -->
<g id="edge32" class="edge">
<title>ConvertUnits&#45;&gt;ApplyDiffCal1</title>
<path fill="none" stroke="black" d="M1240.33,-1256.29C1239.02,-1245.09 1235.61,-1230.93 1227,-1221.5 1218.02,-1211.66 1206.03,-1204.58 1193.6,-1199.49"/>
<polygon fill="black" stroke="black" points="1195.13,-1196.32 1184.54,-1196.18 1192.73,-1202.9 1195.13,-1196.32"/>
</g>
<!-- CropWorkspace -->
<g id="node28" class="node">
<title>CropWorkspace</title>
<path fill="lightskyblue" stroke="black" d="M712,-960.75C712,-960.75 612,-960.75 612,-960.75 606,-960.75 600,-954.75 600,-948.75 600,-948.75 600,-936.75 600,-936.75 600,-930.75 606,-924.75 612,-924.75 612,-924.75 712,-924.75 712,-924.75 718,-924.75 724,-930.75 724,-936.75 724,-936.75 724,-948.75 724,-948.75 724,-954.75 718,-960.75 712,-960.75"/>
<text xml:space="preserve" text-anchor="middle" x="662" y="-938.08" font-family="Helvetica,sans-Serif" font-size="14.00">CropWorkspace</text>
</g>
<!-- SampleWorkspaceMap3 -->
<g id="node44" class="node">
<title>SampleWorkspaceMap3</title>
<ellipse fill="lightgrey" stroke="black" cx="662" cy="-869.75" rx="121.18" ry="18"/>
<text xml:space="preserve" text-anchor="middle" x="662" y="-865.08" font-family="Helvetica,sans-Serif" font-size="14.00">SampleWorkspaceMap</text>
</g>
<!-- CropWorkspace&#45;&gt;SampleWorkspaceMap3 -->
<g id="edge44" class="edge">
<title>CropWorkspace&#45;&gt;SampleWorkspaceMap3</title>
<path fill="none" stroke="black" d="M662,-924.56C662,-916.98 662,-907.85 662,-899.29"/>
<polygon fill="black" stroke="black" points="665.5,-899.29 662,-889.29 658.5,-899.29 665.5,-899.29"/>
</g>
<!-- Divide -->
<g id="node29" class="node">
<title>Divide</title>
<path fill="lightskyblue" stroke="black" d="M563.75,-579.5C563.75,-579.5 528.25,-579.5 528.25,-579.5 522.25,-579.5 516.25,-573.5 516.25,-567.5 516.25,-567.5 516.25,-555.5 516.25,-555.5 516.25,-549.5 522.25,-543.5 528.25,-543.5 528.25,-543.5 563.75,-543.5 563.75,-543.5 569.75,-543.5 575.75,-549.5 575.75,-555.5 575.75,-555.5 575.75,-567.5 575.75,-567.5 575.75,-573.5 569.75,-579.5 563.75,-579.5"/>
<text xml:space="preserve" text-anchor="middle" x="546" y="-556.83" font-family="Helvetica,sans-Serif" font-size="14.00">Divide</text>
</g>
<!-- ReplaceSpecialValues -->
<g id="node30" class="node">
<title>ReplaceSpecialValues</title>
<path fill="lightskyblue" stroke="black" d="M616.25,-506.5C616.25,-506.5 475.75,-506.5 475.75,-506.5 469.75,-506.5 463.75,-500.5 463.75,-494.5 463.75,-494.5 463.75,-482.5 463.75,-482.5 463.75,-476.5 469.75,-470.5 475.75,-470.5 475.75,-470.5 616.25,-470.5 616.25,-470.5 622.25,-470.5 628.25,-476.5 628.25,-482.5 628.25,-482.5 628.25,-494.5 628.25,-494.5 628.25,-500.5 622.25,-506.5 616.25,-506.5"/>
<text xml:space="preserve" text-anchor="middle" x="546" y="-483.82" font-family="Helvetica,sans-Serif" font-size="14.00">ReplaceSpecialValues</text>
</g>
<!-- Divide&#45;&gt;ReplaceSpecialValues -->
<g id="edge52" class="edge">
<title>Divide&#45;&gt;ReplaceSpecialValues</title>
<path fill="none" stroke="black" d="M546,-543.31C546,-535.73 546,-526.6 546,-518.04"/>
<polygon fill="black" stroke="black" points="549.5,-518.04 546,-508.04 542.5,-518.04 549.5,-518.04"/>
</g>
<!-- processedWks -->
<g id="node35" class="node">
<title>processedWks</title>
<polygon fill="limegreen" stroke="black" points="601,-433.5 350.76,-415.5 601,-397.5 851.24,-415.5 601,-433.5"/>
<text xml:space="preserve" text-anchor="middle" x="601" y="-410.82" font-family="Helvetica,sans-Serif" font-size="14.00">Processed all workspaces in maps</text>
</g>
<!-- ReplaceSpecialValues&#45;&gt;processedWks -->
<g id="edge53" class="edge">
<title>ReplaceSpecialValues&#45;&gt;processedWks</title>
<path fill="none" stroke="black" d="M559.31,-470.31C565.89,-461.82 573.97,-451.4 581.25,-441.99"/>
<polygon fill="black" stroke="black" points="583.9,-444.29 587.26,-434.24 578.37,-440 583.9,-444.29"/>
</g>
<!-- MergeRuns -->
<g id="node31" class="node">
<title>MergeRuns</title>
<path fill="lightskyblue" stroke="black" d="M566.62,-255C566.62,-255 497.38,-255 497.38,-255 491.38,-255 485.38,-249 485.38,-243 485.38,-243 485.38,-231 485.38,-231 485.38,-225 491.38,-219 497.38,-219 497.38,-219 566.62,-219 566.62,-219 572.62,-219 578.62,-225 578.62,-231 578.62,-231 578.62,-243 578.62,-243 578.62,-249 572.62,-255 566.62,-255"/>
<text xml:space="preserve" text-anchor="middle" x="532" y="-232.32" font-family="Helvetica,sans-Serif" font-size="14.00">MergeRuns</text>
</g>
<!-- ResultWorkspace -->
<g id="node56" class="node">
<title>ResultWorkspace</title>
<ellipse fill="lightgrey" stroke="black" cx="602" cy="-164" rx="94.35" ry="18"/>
<text xml:space="preserve" text-anchor="middle" x="602" y="-159.32" font-family="Helvetica,sans-Serif" font-size="14.00">ResultWorkspace</text>
</g>
<!-- MergeRuns&#45;&gt;ResultWorkspace -->
<g id="edge58" class="edge">
<title>MergeRuns&#45;&gt;ResultWorkspace</title>
<path fill="none" stroke="black" d="M548.95,-218.81C557.46,-210.18 567.93,-199.56 577.32,-190.03"/>
<polygon fill="black" stroke="black" points="579.62,-192.68 584.15,-183.11 574.64,-187.77 579.62,-192.68"/>
</g>
<!-- RenameWorkspace -->
<g id="node32" class="node">
<title>RenameWorkspace</title>
<path fill="lightskyblue" stroke="black" d="M733,-255C733,-255 609,-255 609,-255 603,-255 597,-249 597,-243 597,-243 597,-231 597,-231 597,-225 603,-219 609,-219 609,-219 733,-219 733,-219 739,-219 745,-225 745,-231 745,-231 745,-243 745,-243 745,-249 739,-255 733,-255"/>
<text xml:space="preserve" text-anchor="middle" x="671" y="-232.32" font-family="Helvetica,sans-Serif" font-size="14.00">RenameWorkspace</text>
</g>
<!-- RenameWorkspace&#45;&gt;ResultWorkspace -->
<g id="edge59" class="edge">
<title>RenameWorkspace&#45;&gt;ResultWorkspace</title>
<path fill="none" stroke="black" d="M654.3,-218.81C645.91,-210.18 635.58,-199.56 626.33,-190.03"/>
<polygon fill="black" stroke="black" points="629.08,-187.85 619.6,-183.11 624.06,-192.72 629.08,-187.85"/>
</g>
<!-- useContainer -->
<g id="node33" class="node">
<title>useContainer</title>
<polygon fill="limegreen" stroke="black" points="1503,-2306.75 1394.87,-2288.75 1503,-2270.75 1611.13,-2288.75 1503,-2306.75"/>
<text xml:space="preserve" text-anchor="middle" x="1503" y="-2284.07" font-family="Helvetica,sans-Serif" font-size="14.00">Container file</text>
</g>
<!-- useContainer&#45;&gt;ContainerFiles -->
<g id="edge8" class="edge">
<title>useContainer&#45;&gt;ContainerFiles</title>
<path fill="none" stroke="black" d="M1495.48,-2271.75C1489.77,-2259.59 1481.78,-2242.58 1475.03,-2228.23"/>
<polygon fill="black" stroke="black" points="1478.24,-2226.83 1470.82,-2219.27 1471.9,-2229.81 1478.24,-2226.83"/>
<text xml:space="preserve" text-anchor="middle" x="1497.42" y="-2239.45" font-family="Helvetica,sans-Serif" font-size="14.00">Yes</text>
</g>
<!-- useContainer&#45;&gt;SampleWorkspaceMap2 -->
<g id="edge22" class="edge">
<title>useContainer&#45;&gt;SampleWorkspaceMap2</title>
<path fill="none" stroke="black" d="M1523.1,-2273.9C1542.84,-2258.49 1570,-2231.63 1570,-2200.5 1570,-2200.5 1570,-2200.5 1570,-1744.25 1570,-1730.33 1570,-1714.88 1570,-1701.95"/>
<polygon fill="black" stroke="black" points="1573.5,-1701.98 1570,-1691.98 1566.5,-1701.98 1573.5,-1701.98"/>
<text xml:space="preserve" text-anchor="middle" x="1579.38" y="-1959.58" font-family="Helvetica,sans-Serif" font-size="14.00">No</text>
</g>
<!-- scaleContainer&#45;&gt;ContainerWorkspaces -->
<g id="edge16" class="edge">
<title>scaleContainer&#45;&gt;ContainerWorkspaces</title>
<path fill="none" stroke="black" d="M1947.24,-2038.08C1931.83,-2027.45 1910.24,-2012.74 1891,-2000.25 1844.39,-1969.99 1789.83,-1936.42 1754.41,-1914.86"/>
<polygon fill="black" stroke="black" points="1756.6,-1912.1 1746.24,-1909.9 1752.97,-1918.08 1756.6,-1912.1"/>
<text xml:space="preserve" text-anchor="middle" x="1871.65" y="-1959.58" font-family="Helvetica,sans-Serif" font-size="14.00">No</text>
</g>
<!-- scaleContainer&#45;&gt;Scale -->
<g id="edge13" class="edge">
<title>scaleContainer&#45;&gt;Scale</title>
<path fill="none" stroke="black" d="M1932.57,-2040.18C1885.56,-2023.84 1802.9,-1995.11 1754.75,-1978.37"/>
<polygon fill="black" stroke="black" points="1756.18,-1975.17 1745.59,-1975.19 1753.88,-1981.78 1756.18,-1975.17"/>
<text xml:space="preserve" text-anchor="middle" x="1876.23" y="-2004.2" font-family="Helvetica,sans-Serif" font-size="14.00">Yes</text>
</g>
<!-- runNumbers -->
<g id="node36" class="node">
<title>runNumbers</title>
<polygon fill="limegreen" stroke="black" points="601,-344.25 475.75,-326.25 601,-308.25 726.25,-326.25 601,-344.25"/>
<text xml:space="preserve" text-anchor="middle" x="601" y="-321.57" font-family="Helvetica,sans-Serif" font-size="14.00">Number of runs</text>
</g>
<!-- processedWks&#45;&gt;runNumbers -->
<g id="edge55" class="edge">
<title>processedWks&#45;&gt;runNumbers</title>
<path fill="none" stroke="black" d="M601,-397.26C601,-385.51 601,-369.66 601,-356.02"/>
<polygon fill="black" stroke="black" points="604.5,-356.26 601,-346.26 597.5,-356.26 604.5,-356.26"/>
<text xml:space="preserve" text-anchor="middle" x="612.25" y="-366.2" font-family="Helvetica,sans-Serif" font-size="14.00">Yes</text>
</g>
<!-- SampleWorkspaceMap4 -->
<g id="node45" class="node">
<title>SampleWorkspaceMap4</title>
<ellipse fill="lightgrey" stroke="black" cx="527" cy="-707.5" rx="121.18" ry="18"/>
<text xml:space="preserve" text-anchor="middle" x="527" y="-702.83" font-family="Helvetica,sans-Serif" font-size="14.00">SampleWorkspaceMap</text>
</g>
<!-- processedWks&#45;&gt;SampleWorkspaceMap4 -->
<g id="edge54" class="edge">
<title>processedWks&#45;&gt;SampleWorkspaceMap4</title>
<path fill="none" stroke="black" d="M623.05,-432.22C638.36,-445.12 656,-464.89 656,-487.5 656,-635.5 656,-635.5 656,-635.5 656,-661.68 635.36,-678.27 610.6,-688.76"/>
<polygon fill="black" stroke="black" points="609.67,-685.37 601.58,-692.22 612.17,-691.91 609.67,-685.37"/>
<text xml:space="preserve" text-anchor="middle" x="665.38" y="-556.83" font-family="Helvetica,sans-Serif" font-size="14.00">No</text>
</g>
<!-- runNumbers&#45;&gt;MergeRuns -->
<g id="edge56" class="edge">
<title>runNumbers&#45;&gt;MergeRuns</title>
<path fill="none" stroke="black" d="M578.98,-310.98C571.26,-305.21 562.97,-298.07 556.75,-290.25 550.93,-282.93 546.07,-274.02 542.24,-265.64"/>
<polygon fill="black" stroke="black" points="545.5,-264.37 538.39,-256.51 539.05,-267.09 545.5,-264.37"/>
<text xml:space="preserve" text-anchor="middle" x="598.38" y="-276.95" font-family="Helvetica,sans-Serif" font-size="14.00">More than 1</text>
</g>
<!-- runNumbers&#45;&gt;RenameWorkspace -->
<g id="edge57" class="edge">
<title>runNumbers&#45;&gt;RenameWorkspace</title>
<path fill="none" stroke="black" d="M619.57,-310.62C626.43,-304.71 634,-297.56 640,-290.25 646.28,-282.6 652.12,-273.54 657,-265.13"/>
<polygon fill="black" stroke="black" points="659.91,-267.09 661.71,-256.65 653.8,-263.69 659.91,-267.09"/>
<text xml:space="preserve" text-anchor="middle" x="691.75" y="-276.95" font-family="Helvetica,sans-Serif" font-size="14.00">Less than 1</text>
</g>
<!-- averageWorkspaces -->
<g id="node37" class="node">
<title>averageWorkspaces</title>
<polygon fill="lightseagreen" stroke="black" points="1591.88,-1617.25 1140.12,-1617.25 1140.12,-1581.25 1591.88,-1581.25 1591.88,-1617.25"/>
<text xml:space="preserve" text-anchor="middle" x="1366" y="-1594.58" font-family="Helvetica,sans-Serif" font-size="14.00">Average together any workspaces that have the same DRange</text>
</g>
<!-- CurrentWorkspace -->
<g id="node53" class="node">
<title>CurrentWorkspace</title>
<ellipse fill="lightgrey" stroke="black" cx="1366" cy="-1510" rx="100.66" ry="18"/>
<text xml:space="preserve" text-anchor="middle" x="1366" y="-1505.33" font-family="Helvetica,sans-Serif" font-size="14.00">CurrentWorkspace</text>
</g>
<!-- averageWorkspaces&#45;&gt;CurrentWorkspace -->
<g id="edge25" class="edge">
<title>averageWorkspaces&#45;&gt;CurrentWorkspace</title>
<path fill="none" stroke="black" d="M1366,-1581.01C1366,-1569.18 1366,-1553.2 1366,-1539.5"/>
<polygon fill="black" stroke="black" points="1369.5,-1539.72 1366,-1529.72 1362.5,-1539.72 1369.5,-1539.72"/>
<text xml:space="preserve" text-anchor="middle" x="1593.25" y="-1549.95" font-family="Helvetica,sans-Serif" font-size="14.00">Extract next workspace from either the vanadium or sample map</text>
</g>
<!-- getIntersection -->
<g id="node38" class="node">
<title>getIntersection</title>
<polygon fill="lightseagreen" stroke="black" points="490,-182 0,-182 0,-146 490,-146 490,-182"/>
<text xml:space="preserve" text-anchor="middle" x="245" y="-159.32" font-family="Helvetica,sans-Serif" font-size="14.00">Create scalar data for where merge has combined overlapping data.</text>
</g>
<!-- appendResults -->
<g id="node39" class="node">
<title>appendResults</title>
<polygon fill="lightseagreen" stroke="black" points="584.38,-109 261.62,-109 261.62,-73 584.38,-73 584.38,-109"/>
<text xml:space="preserve" text-anchor="middle" x="423" y="-86.33" font-family="Helvetica,sans-Serif" font-size="14.00">Add the scalar data to the result workspace.</text>
</g>
<!-- getIntersection&#45;&gt;appendResults -->
<g id="edge61" class="edge">
<title>getIntersection&#45;&gt;appendResults</title>
<path fill="none" stroke="black" d="M288.54,-145.63C312.79,-135.96 343.18,-123.84 368.94,-113.56"/>
<polygon fill="black" stroke="black" points="369.89,-116.95 377.88,-110 367.3,-110.45 369.89,-116.95"/>
</g>
<!-- appendResults&#45;&gt;OutputWorkspace -->
<g id="edge63" class="edge">
<title>appendResults&#45;&gt;OutputWorkspace</title>
<path fill="none" stroke="black" d="M423,-72.81C423,-65.23 423,-56.1 423,-47.54"/>
<polygon fill="black" stroke="black" points="426.5,-47.54 423,-37.54 419.5,-47.54 426.5,-47.54"/>
</g>
<!-- group_spectra&#45;&gt;CropWorkspace -->
<g id="edge43" class="edge">
<title>group_spectra&#45;&gt;CropWorkspace</title>
<path fill="none" stroke="black" d="M662,-997.64C662,-989.49 662,-980.62 662,-972.48"/>
<polygon fill="black" stroke="black" points="665.5,-972.76 662,-962.76 658.5,-972.76 665.5,-972.76"/>
</g>
<!-- SampleWorkspaceMap&#45;&gt;useContainer -->
<g id="edge7" class="edge">
<title>SampleWorkspaceMap&#45;&gt;useContainer</title>
<path fill="none" stroke="black" d="M1503,-2378.72C1503,-2362.51 1503,-2337.81 1503,-2318.54"/>
<polygon fill="black" stroke="black" points="1506.5,-2318.6 1503,-2308.6 1499.5,-2318.6 1506.5,-2318.6"/>
</g>
<!-- SampleWorkspaceMap1 -->
<g id="node42" class="node">
<title>SampleWorkspaceMap1</title>
<ellipse fill="lightgrey" stroke="black" cx="1973" cy="-1891.25" rx="121.18" ry="18"/>
<text xml:space="preserve" text-anchor="middle" x="1973" y="-1886.58" font-family="Helvetica,sans-Serif" font-size="14.00">SampleWorkspaceMap</text>
</g>
<!-- SampleWorkspaceMap1&#45;&gt;Rebin -->
<g id="edge18" class="edge">
<title>SampleWorkspaceMap1&#45;&gt;Rebin</title>
<path fill="none" stroke="black" d="M1931.47,-1873.96C1900.99,-1862 1859.88,-1845.88 1830.21,-1834.24"/>
<polygon fill="black" stroke="black" points="1831.83,-1831.11 1821.24,-1830.72 1829.27,-1837.63 1831.83,-1831.11"/>
</g>
<!-- SampleWorkspaceMap1&#45;&gt;Minus -->
<g id="edge20" class="edge">
<title>SampleWorkspaceMap1&#45;&gt;Minus</title>
<path fill="none" stroke="black" d="M1951.53,-1873.17C1919.5,-1847.69 1859.08,-1799.61 1822.48,-1770.5"/>
<polygon fill="black" stroke="black" points="1824.92,-1767.97 1814.91,-1764.48 1820.56,-1773.44 1824.92,-1767.97"/>
</g>
<!-- SampleWorkspaceMap2&#45;&gt;averageWorkspaces -->
<g id="edge24" class="edge">
<title>SampleWorkspaceMap2&#45;&gt;averageWorkspaces</title>
<path fill="none" stroke="black" d="M1523.96,-1655.23C1495.27,-1645.24 1458.01,-1632.27 1426.88,-1621.44"/>
<polygon fill="black" stroke="black" points="1428.18,-1618.18 1417.58,-1618.2 1425.88,-1624.8 1428.18,-1618.18"/>
</g>
<!-- dRange -->
<g id="node54" class="node">
<title>dRange</title>
<ellipse fill="lightgrey" stroke="black" cx="662" cy="-780.5" rx="48.58" ry="18"/>
<text xml:space="preserve" text-anchor="middle" x="662" y="-775.83" font-family="Helvetica,sans-Serif" font-size="14.00">dRange</text>
</g>
<!-- SampleWorkspaceMap3&#45;&gt;dRange -->
<g id="edge45" class="edge">
<title>SampleWorkspaceMap3&#45;&gt;dRange</title>
<path fill="none" stroke="black" d="M662,-851.51C662,-839.68 662,-823.7 662,-810"/>
<polygon fill="black" stroke="black" points="665.5,-810.22 662,-800.22 658.5,-810.22 665.5,-810.22"/>
<text xml:space="preserve" text-anchor="middle" x="751.62" y="-820.45" font-family="Helvetica,sans-Serif" font-size="14.00">Extract dRange from map</text>
</g>
<!-- SampleWorkspace -->
<g id="node49" class="node">
<title>SampleWorkspace</title>
<ellipse fill="lightgrey" stroke="black" cx="527" cy="-634.5" rx="100.66" ry="18"/>
<text xml:space="preserve" text-anchor="middle" x="527" y="-629.83" font-family="Helvetica,sans-Serif" font-size="14.00">SampleWorkspace</text>
</g>
<!-- SampleWorkspaceMap4&#45;&gt;SampleWorkspace -->
<g id="edge48" class="edge">
<title>SampleWorkspaceMap4&#45;&gt;SampleWorkspace</title>
<path fill="none" stroke="black" d="M527,-689.31C527,-681.73 527,-672.6 527,-664.04"/>
<polygon fill="black" stroke="black" points="530.5,-664.04 527,-654.04 523.5,-664.04 530.5,-664.04"/>
</g>
<!-- SampleWorkspaceMap5 -->
<g id="node46" class="node">
<title>SampleWorkspaceMap5</title>
<ellipse fill="lightgrey" stroke="black" cx="245" cy="-237" rx="121.18" ry="18"/>
<text xml:space="preserve" text-anchor="middle" x="245" y="-232.32" font-family="Helvetica,sans-Serif" font-size="14.00">SampleWorkspaceMap</text>
</g>
<!-- SampleWorkspaceMap5&#45;&gt;getIntersection -->
<g id="edge60" class="edge">
<title>SampleWorkspaceMap5&#45;&gt;getIntersection</title>
<path fill="none" stroke="black" d="M245,-218.81C245,-211.23 245,-202.1 245,-193.54"/>
<polygon fill="black" stroke="black" points="248.5,-193.54 245,-183.54 241.5,-193.54 248.5,-193.54"/>
</g>
<!-- VanadiumWorkspaceMap&#45;&gt;averageWorkspaces -->
<g id="edge23" class="edge">
<title>VanadiumWorkspaceMap&#45;&gt;averageWorkspaces</title>
<path fill="none" stroke="black" d="M1354,-2324.29C1354,-2304.94 1354,-2272.8 1354,-2245.12 1354,-2245.12 1354,-2245.12 1354,-1671.25 1354,-1657.08 1356.35,-1641.55 1358.97,-1628.63"/>
<polygon fill="black" stroke="black" points="1362.34,-1629.62 1361.07,-1619.1 1355.5,-1628.11 1362.34,-1629.62"/>
</g>
<!-- VanadiumWorkspaceMap1 -->
<g id="node48" class="node">
<title>VanadiumWorkspaceMap1</title>
<ellipse fill="lightgrey" stroke="black" cx="799" cy="-707.5" rx="133.28" ry="18"/>
<text xml:space="preserve" text-anchor="middle" x="799" y="-702.83" font-family="Helvetica,sans-Serif" font-size="14.00">VanadiumWorkspaceMap</text>
</g>
<!-- VanadiumWorkspace -->
<g id="node55" class="node">
<title>VanadiumWorkspace</title>
<ellipse fill="lightgrey" stroke="black" cx="798" cy="-634.5" rx="112.76" ry="18"/>
<text xml:space="preserve" text-anchor="middle" x="798" y="-629.83" font-family="Helvetica,sans-Serif" font-size="14.00">VanadiumWorkspace</text>
</g>
<!-- VanadiumWorkspaceMap1&#45;&gt;VanadiumWorkspace -->
<g id="edge49" class="edge">
<title>VanadiumWorkspaceMap1&#45;&gt;VanadiumWorkspace</title>
<path fill="none" stroke="black" d="M798.76,-689.31C798.65,-681.73 798.52,-672.6 798.4,-664.04"/>
<polygon fill="black" stroke="black" points="801.9,-663.99 798.26,-654.04 794.9,-664.09 801.9,-663.99"/>
</g>
<!-- SampleWorkspace&#45;&gt;Divide -->
<g id="edge50" class="edge">
<title>SampleWorkspace&#45;&gt;Divide</title>
<path fill="none" stroke="black" d="M531.6,-616.31C533.68,-608.55 536.18,-599.18 538.52,-590.45"/>
<polygon fill="black" stroke="black" points="541.85,-591.56 541.05,-580.99 535.09,-589.75 541.85,-591.56"/>
</g>
<!-- e_mode -->
<g id="node50" class="node">
<title>e_mode</title>
<ellipse fill="lightgrey" stroke="black" cx="1124" cy="-1364" rx="42.79" ry="18"/>
<text xml:space="preserve" text-anchor="middle" x="1124" y="-1359.33" font-family="Helvetica,sans-Serif" font-size="14.00">Elastic</text>
</g>
<!-- e_mode&#45;&gt;ConvertUnits -->
<g id="edge31" class="edge">
<title>e_mode&#45;&gt;ConvertUnits</title>
<path fill="none" stroke="black" d="M1142.97,-1347.6C1156.15,-1337.03 1174.2,-1322.79 1190.5,-1310.75 1195.49,-1307.07 1200.81,-1303.25 1206.07,-1299.56"/>
<polygon fill="black" stroke="black" points="1207.91,-1302.54 1214.12,-1293.95 1203.91,-1296.79 1207.91,-1302.54"/>
<text xml:space="preserve" text-anchor="middle" x="1213.75" y="-1314.7" font-family="Helvetica,sans-Serif" font-size="14.00">EMode</text>
</g>
<!-- dspacing_unit -->
<g id="node51" class="node">
<title>dspacing_unit</title>
<ellipse fill="lightgrey" stroke="black" cx="1241" cy="-1364" rx="56.47" ry="18"/>
<text xml:space="preserve" text-anchor="middle" x="1241" y="-1359.33" font-family="Helvetica,sans-Serif" font-size="14.00">dSpacing</text>
</g>
<!-- dspacing_unit&#45;&gt;ConvertUnits -->
<g id="edge30" class="edge">
<title>dspacing_unit&#45;&gt;ConvertUnits</title>
<path fill="none" stroke="black" d="M1241,-1345.76C1241,-1333.93 1241,-1317.95 1241,-1304.25"/>
<polygon fill="black" stroke="black" points="1244.5,-1304.47 1241,-1294.47 1237.5,-1304.47 1244.5,-1304.47"/>
<text xml:space="preserve" text-anchor="middle" x="1262" y="-1314.7" font-family="Helvetica,sans-Serif" font-size="14.00">Target</text>
</g>
<!-- clear_calib -->
<g id="node52" class="node">
<title>clear_calib</title>
<ellipse fill="lightgrey" stroke="black" cx="1115" cy="-1274.75" rx="32.27" ry="18"/>
<text xml:space="preserve" text-anchor="middle" x="1115" y="-1270.08" font-family="Helvetica,sans-Serif" font-size="14.00">True</text>
</g>
<!-- clear_calib&#45;&gt;ApplyDiffCal1 -->
<g id="edge33" class="edge">
<title>clear_calib&#45;&gt;ApplyDiffCal1</title>
<path fill="none" stroke="black" d="M1113.58,-1256.59C1113.16,-1246.29 1113.38,-1233 1116,-1221.5 1116.53,-1219.16 1117.23,-1216.79 1118.04,-1214.43"/>
<polygon fill="black" stroke="black" points="1121.27,-1215.79 1121.82,-1205.21 1114.79,-1213.14 1121.27,-1215.79"/>
<text xml:space="preserve" text-anchor="middle" x="1171.5" y="-1225.45" font-family="Helvetica,sans-Serif" font-size="14.00">ClearCalibration</text>
</g>
<!-- CurrentWorkspace&#45;&gt;NormaliseByCurrent -->
<g id="edge26" class="edge">
<title>CurrentWorkspace&#45;&gt;NormaliseByCurrent</title>
<path fill="none" stroke="black" d="M1366,-1491.81C1366,-1484.23 1366,-1475.1 1366,-1466.54"/>
<polygon fill="black" stroke="black" points="1369.5,-1466.54 1366,-1456.54 1362.5,-1466.54 1369.5,-1466.54"/>
</g>
<!-- dRange&#45;&gt;SampleWorkspaceMap4 -->
<g id="edge46" class="edge">
<title>dRange&#45;&gt;SampleWorkspaceMap4</title>
<path fill="none" stroke="black" d="M634.68,-765.13C615.88,-755.24 590.53,-741.91 569.15,-730.67"/>
<polygon fill="black" stroke="black" points="570.84,-727.6 560.36,-726.05 567.59,-733.8 570.84,-727.6"/>
</g>
<!-- dRange&#45;&gt;VanadiumWorkspaceMap1 -->
<g id="edge47" class="edge">
<title>dRange&#45;&gt;VanadiumWorkspaceMap1</title>
<path fill="none" stroke="black" d="M689.39,-765.3C708.54,-755.38 734.48,-741.94 756.32,-730.62"/>
<polygon fill="black" stroke="black" points="757.73,-733.83 765,-726.12 754.51,-727.61 757.73,-733.83"/>
</g>
<!-- VanadiumWorkspace&#45;&gt;Divide -->
<g id="edge51" class="edge">
<title>VanadiumWorkspace&#45;&gt;Divide</title>
<path fill="none" stroke="black" d="M743.94,-618.27C696.81,-604.99 629.49,-586.02 586.77,-573.99"/>
<polygon fill="black" stroke="black" points="587.97,-570.69 577.4,-571.35 586.07,-577.43 587.97,-570.69"/>
</g>
<!-- ResultWorkspace&#45;&gt;appendResults -->
<g id="edge62" class="edge">
<title>ResultWorkspace&#45;&gt;appendResults</title>
<path fill="none" stroke="black" d="M562.27,-147.24C537.36,-137.36 504.9,-124.49 477.59,-113.65"/>
<polygon fill="black" stroke="black" points="479,-110.45 468.42,-110.01 476.42,-116.96 479,-110.45"/>
</g>
</g>
</svg>
