<?xml version="1.0" encoding="UTF-8" standalone="no"?>
<!DOCTYPE svg PUBLIC "-//W3C//DTD SVG 1.1//EN"
 "http://www.w3.org/Graphics/SVG/1.1/DTD/svg11.dtd">
<!-- Generated by graphviz version 13.1.0 (20250701.1702)
 -->
<!-- Title: PDToGUDRUN Pages: 1 -->
<svg width="431pt" height="597pt"
 viewBox="0.00 0.00 431.00 597.00" xmlns="http://www.w3.org/2000/svg" xmlns:xlink="http://www.w3.org/1999/xlink">
<g id="graph0" class="graph" transform="scale(1 1) rotate(0) translate(4 592.5)">
<title>PDToGUDRUN</title>
<polygon fill="white" stroke="none" points="-4,4 -4,-592.5 427.12,-592.5 427.12,4 -4,4"/>
<text xml:space="preserve" text-anchor="middle" x="211.56" y="-571.2" font-family="Helvetica,sans-Serif" font-size="14.00">PDToGUDRUN Flowchart</text>
<!-- InputWorkspace -->
<g id="node1" class="node">
<title>InputWorkspace</title>
<ellipse fill="khaki" stroke="black" cx="319.5" cy="-472.25" rx="90.14" ry="18"/>
<text xml:space="preserve" text-anchor="middle" x="319.5" y="-467.57" font-family="Helvetica,sans-Serif" font-size="14.00">InputWorkspace</text>
</g>
<!-- determineChar -->
<g id="node4" class="node">
<title>determineChar</title>
<path fill="lightskyblue" stroke="black" d="M279.5,-417.25C279.5,-417.25 53.5,-417.25 53.5,-417.25 47.5,-417.25 41.5,-411.25 41.5,-405.25 41.5,-405.25 41.5,-393.25 41.5,-393.25 41.5,-387.25 47.5,-381.25 53.5,-381.25 53.5,-381.25 279.5,-381.25 279.5,-381.25 285.5,-381.25 291.5,-387.25 291.5,-393.25 291.5,-393.25 291.5,-405.25 291.5,-405.25 291.5,-411.25 285.5,-417.25 279.5,-417.25"/>
<text xml:space="preserve" text-anchor="middle" x="166.5" y="-394.57" font-family="Helvetica,sans-Serif" font-size="14.00">PDDetermineCharacterizations v1</text>
</g>
<!-- InputWorkspace&#45;&gt;determineChar -->
<g id="edge3" class="edge">
<title>InputWorkspace&#45;&gt;determineChar</title>
<path fill="none" stroke="black" d="M285.16,-455.32C264.31,-445.64 237.37,-433.14 214.43,-422.49"/>
<polygon fill="black" stroke="black" points="216.12,-419.42 205.58,-418.39 213.18,-425.77 216.12,-419.42"/>
</g>
<!-- alignAndFocus -->
<g id="node5" class="node">
<title>alignAndFocus</title>
<path fill="lightskyblue" stroke="black" d="M326.25,-344.25C326.25,-344.25 158.75,-344.25 158.75,-344.25 152.75,-344.25 146.75,-338.25 146.75,-332.25 146.75,-332.25 146.75,-320.25 146.75,-320.25 146.75,-314.25 152.75,-308.25 158.75,-308.25 158.75,-308.25 326.25,-308.25 326.25,-308.25 332.25,-308.25 338.25,-314.25 338.25,-320.25 338.25,-320.25 338.25,-332.25 338.25,-332.25 338.25,-338.25 332.25,-344.25 326.25,-344.25"/>
<text xml:space="preserve" text-anchor="middle" x="242.5" y="-321.57" font-family="Helvetica,sans-Serif" font-size="14.00">AlignAndFocusPowder v1</text>
</g>
<!-- InputWorkspace&#45;&gt;alignAndFocus -->
<g id="edge4" class="edge">
<title>InputWorkspace&#45;&gt;alignAndFocus</title>
<path fill="none" stroke="black" d="M318.92,-453.91C317.61,-434.94 313.47,-404.19 300.5,-381.25 294.34,-370.36 285.24,-360.39 276.06,-352.07"/>
<polygon fill="black" stroke="black" points="278.36,-349.43 268.49,-345.59 273.82,-354.75 278.36,-349.43"/>
</g>
<!-- loadChar -->
<g id="node2" class="node">
<title>loadChar</title>
<path fill="lightskyblue" stroke="black" d="M199,-490.25C199,-490.25 12,-490.25 12,-490.25 6,-490.25 0,-484.25 0,-478.25 0,-478.25 0,-466.25 0,-466.25 0,-460.25 6,-454.25 12,-454.25 12,-454.25 199,-454.25 199,-454.25 205,-454.25 211,-460.25 211,-466.25 211,-466.25 211,-478.25 211,-478.25 211,-484.25 205,-490.25 199,-490.25"/>
<text xml:space="preserve" text-anchor="middle" x="105.5" y="-467.57" font-family="Helvetica,sans-Serif" font-size="14.00">PDLoadCharacterizations v1</text>
</g>
<!-- loadChar&#45;&gt;determineChar -->
<g id="edge1" class="edge">
<title>loadChar&#45;&gt;determineChar</title>
<path fill="none" stroke="black" d="M120.27,-454.06C127.53,-445.6 136.44,-435.23 144.49,-425.86"/>
<polygon fill="black" stroke="black" points="147.02,-428.29 150.88,-418.43 141.71,-423.73 147.02,-428.29"/>
</g>
<!-- loadEvent -->
<g id="node3" class="node">
<title>loadEvent</title>
<path fill="lightskyblue" stroke="black" d="M411.12,-563.25C411.12,-563.25 227.88,-563.25 227.88,-563.25 221.88,-563.25 215.88,-557.25 215.88,-551.25 215.88,-551.25 215.88,-539.25 215.88,-539.25 215.88,-533.25 221.88,-527.25 227.88,-527.25 227.88,-527.25 411.12,-527.25 411.12,-527.25 417.12,-527.25 423.12,-533.25 423.12,-539.25 423.12,-539.25 423.12,-551.25 423.12,-551.25 423.12,-557.25 417.12,-563.25 411.12,-563.25"/>
<text xml:space="preserve" text-anchor="middle" x="319.5" y="-540.58" font-family="Helvetica,sans-Serif" font-size="14.00">LoadEventAndCompress v1</text>
</g>
<!-- loadEvent&#45;&gt;InputWorkspace -->
<g id="edge2" class="edge">
<title>loadEvent&#45;&gt;InputWorkspace</title>
<path fill="none" stroke="black" d="M319.5,-527.06C319.5,-519.48 319.5,-510.35 319.5,-501.79"/>
<polygon fill="black" stroke="black" points="323,-501.79 319.5,-491.79 316,-501.79 323,-501.79"/>
</g>
<!-- determineChar&#45;&gt;alignAndFocus -->
<g id="edge5" class="edge">
<title>determineChar&#45;&gt;alignAndFocus</title>
<path fill="none" stroke="black" d="M184.9,-381.06C194.16,-372.41 205.57,-361.75 215.78,-352.21"/>
<polygon fill="black" stroke="black" points="217.98,-354.94 222.9,-345.56 213.21,-349.83 217.98,-354.94"/>
</g>
<!-- norm -->
<g id="node6" class="node">
<title>norm</title>
<path fill="lightskyblue" stroke="black" d="M318.75,-271.25C318.75,-271.25 166.25,-271.25 166.25,-271.25 160.25,-271.25 154.25,-265.25 154.25,-259.25 154.25,-259.25 154.25,-247.25 154.25,-247.25 154.25,-241.25 160.25,-235.25 166.25,-235.25 166.25,-235.25 318.75,-235.25 318.75,-235.25 324.75,-235.25 330.75,-241.25 330.75,-247.25 330.75,-247.25 330.75,-259.25 330.75,-259.25 330.75,-265.25 324.75,-271.25 318.75,-271.25"/>
<text xml:space="preserve" text-anchor="middle" x="242.5" y="-248.57" font-family="Helvetica,sans-Serif" font-size="14.00">NormaliseByCurrent v1</text>
</g>
<!-- alignAndFocus&#45;&gt;norm -->
<g id="edge6" class="edge">
<title>alignAndFocus&#45;&gt;norm</title>
<path fill="none" stroke="black" d="M242.5,-308.06C242.5,-300.48 242.5,-291.35 242.5,-282.79"/>
<polygon fill="black" stroke="black" points="246,-282.79 242.5,-272.79 239,-282.79 246,-282.79"/>
</g>
<!-- ifSetUncert -->
<g id="node9" class="node">
<title>ifSetUncert</title>
<polygon fill="limegreen" stroke="black" points="242.5,-198.25 98.65,-180.25 242.5,-162.25 386.35,-180.25 242.5,-198.25"/>
<text xml:space="preserve" text-anchor="middle" x="242.5" y="-175.57" font-family="Helvetica,sans-Serif" font-size="14.00">If SetUncertainties</text>
</g>
<!-- norm&#45;&gt;ifSetUncert -->
<g id="edge7" class="edge">
<title>norm&#45;&gt;ifSetUncert</title>
<path fill="none" stroke="black" d="M242.5,-235.06C242.5,-227.48 242.5,-218.35 242.5,-209.79"/>
<polygon fill="black" stroke="black" points="246,-209.79 242.5,-199.79 239,-209.79 246,-209.79"/>
</g>
<!-- setUncert -->
<g id="node7" class="node">
<title>setUncert</title>
<path fill="lightskyblue" stroke="black" d="M250.75,-109C250.75,-109 122.25,-109 122.25,-109 116.25,-109 110.25,-103 110.25,-97 110.25,-97 110.25,-85 110.25,-85 110.25,-79 116.25,-73 122.25,-73 122.25,-73 250.75,-73 250.75,-73 256.75,-73 262.75,-79 262.75,-85 262.75,-85 262.75,-97 262.75,-97 262.75,-103 256.75,-109 250.75,-109"/>
<text xml:space="preserve" text-anchor="middle" x="186.5" y="-86.33" font-family="Helvetica,sans-Serif" font-size="14.00">SetUncertainties v1</text>
</g>
<!-- saveNexusPD -->
<g id="node8" class="node">
<title>saveNexusPD</title>
<path fill="lightskyblue" stroke="black" d="M297.38,-36C297.38,-36 187.62,-36 187.62,-36 181.62,-36 175.62,-30 175.62,-24 175.62,-24 175.62,-12 175.62,-12 175.62,-6 181.62,0 187.62,0 187.62,0 297.38,0 297.38,0 303.38,0 309.38,-6 309.38,-12 309.38,-12 309.38,-24 309.38,-24 309.38,-30 303.38,-36 297.38,-36"/>
<text xml:space="preserve" text-anchor="middle" x="242.5" y="-13.32" font-family="Helvetica,sans-Serif" font-size="14.00">SaveNexusPD v1</text>
</g>
<!-- setUncert&#45;&gt;saveNexusPD -->
<g id="edge10" class="edge">
<title>setUncert&#45;&gt;saveNexusPD</title>
<path fill="none" stroke="black" d="M200.06,-72.81C206.66,-64.44 214.74,-54.2 222.07,-44.9"/>
<polygon fill="black" stroke="black" points="224.69,-47.24 228.13,-37.22 219.19,-42.9 224.69,-47.24"/>
</g>
<!-- ifSetUncert&#45;&gt;setUncert -->
<g id="edge8" class="edge">
<title>ifSetUncert&#45;&gt;setUncert</title>
<path fill="none" stroke="black" d="M232.23,-163.25C224.28,-150.86 213.08,-133.41 203.76,-118.89"/>
<polygon fill="black" stroke="black" points="206.83,-117.2 198.48,-110.67 200.94,-120.98 206.83,-117.2"/>
<text xml:space="preserve" text-anchor="middle" x="230.77" y="-130.95" font-family="Helvetica,sans-Serif" font-size="14.00">Yes</text>
</g>
<!-- ifSetUncert&#45;&gt;saveNexusPD -->
<g id="edge9" class="edge">
<title>ifSetUncert&#45;&gt;saveNexusPD</title>
<path fill="none" stroke="black" d="M252.21,-163.1C263.49,-142.32 279.57,-105.08 271.5,-73 269.16,-63.71 264.89,-54.28 260.32,-45.95"/>
<polygon fill="black" stroke="black" points="263.37,-44.23 255.28,-37.4 257.34,-47.79 263.37,-44.23"/>
<text xml:space="preserve" text-anchor="middle" x="283.05" y="-86.33" font-family="Helvetica,sans-Serif" font-size="14.00">No</text>
</g>
</g>
</svg>
