<?xml version="1.0" encoding="UTF-8" standalone="no"?>
<!DOCTYPE svg PUBLIC "-//W3C//DTD SVG 1.1//EN"
 "http://www.w3.org/Graphics/SVG/1.1/DTD/svg11.dtd">
<!-- Generated by graphviz version 11.0.0 (20240519.1550)
 -->
<!-- Title: PDToGUDRUN Pages: 1 -->
<svg width="431pt" height="594pt"
 viewBox="0.00 0.00 431.12 593.50" xmlns="http://www.w3.org/2000/svg" xmlns:xlink="http://www.w3.org/1999/xlink">
<g id="graph0" class="graph" transform="scale(1 1) rotate(0) translate(4 589.5)">
<title>PDToGUDRUN</title>
<polygon fill="white" stroke="none" points="-4,4 -4,-589.5 427.12,-589.5 427.12,4 -4,4"/>
<text text-anchor="middle" x="211.56" y="-568.2" font-family="Helvetica,sans-Serif" font-size="14.00">PDToGUDRUN Flowchart</text>
<!-- InputWorkspace -->
<g id="node1" class="node">
<title>InputWorkspace</title>
<ellipse fill="khaki" stroke="black" cx="319.5" cy="-470.25" rx="90.14" ry="18"/>
<text text-anchor="middle" x="319.5" y="-465.57" font-family="Helvetica,sans-Serif" font-size="14.00">InputWorkspace</text>
</g>
<!-- determineChar -->
<g id="node4" class="node">
<title>determineChar</title>
<path fill="lightskyblue" stroke="black" d="M271.5,-415.25C271.5,-415.25 45.5,-415.25 45.5,-415.25 39.5,-415.25 33.5,-409.25 33.5,-403.25 33.5,-403.25 33.5,-391.25 33.5,-391.25 33.5,-385.25 39.5,-379.25 45.5,-379.25 45.5,-379.25 271.5,-379.25 271.5,-379.25 277.5,-379.25 283.5,-385.25 283.5,-391.25 283.5,-391.25 283.5,-403.25 283.5,-403.25 283.5,-409.25 277.5,-415.25 271.5,-415.25"/>
<text text-anchor="middle" x="158.5" y="-392.57" font-family="Helvetica,sans-Serif" font-size="14.00">PDDetermineCharacterizations v1</text>
</g>
<!-- InputWorkspace&#45;&gt;determineChar -->
<g id="edge3" class="edge">
<title>InputWorkspace&#45;&gt;determineChar</title>
<path fill="none" stroke="black" d="M283.37,-453.32C261.32,-443.59 232.82,-431.02 208.61,-420.35"/>
<polygon fill="black" stroke="black" points="210.13,-417.19 199.56,-416.36 207.3,-423.6 210.13,-417.19"/>
</g>
<!-- alignAndFocus -->
<g id="node5" class="node">
<title>alignAndFocus</title>
<path fill="lightskyblue" stroke="black" d="M322.25,-342.25C322.25,-342.25 154.75,-342.25 154.75,-342.25 148.75,-342.25 142.75,-336.25 142.75,-330.25 142.75,-330.25 142.75,-318.25 142.75,-318.25 142.75,-312.25 148.75,-306.25 154.75,-306.25 154.75,-306.25 322.25,-306.25 322.25,-306.25 328.25,-306.25 334.25,-312.25 334.25,-318.25 334.25,-318.25 334.25,-330.25 334.25,-330.25 334.25,-336.25 328.25,-342.25 322.25,-342.25"/>
<text text-anchor="middle" x="238.5" y="-319.57" font-family="Helvetica,sans-Serif" font-size="14.00">AlignAndFocusPowder v1</text>
</g>
<!-- InputWorkspace&#45;&gt;alignAndFocus -->
<g id="edge4" class="edge">
<title>InputWorkspace&#45;&gt;alignAndFocus</title>
<path fill="none" stroke="black" d="M316.92,-451.98C313.53,-433.07 306.3,-402.36 292.5,-379.25 286.21,-368.73 277.43,-358.76 268.76,-350.32"/>
<polygon fill="black" stroke="black" points="271.4,-348 261.69,-343.76 266.64,-353.13 271.4,-348"/>
</g>
<!-- loadChar -->
<g id="node2" class="node">
<title>loadChar</title>
<path fill="lightskyblue" stroke="black" d="M199,-488.25C199,-488.25 12,-488.25 12,-488.25 6,-488.25 0,-482.25 0,-476.25 0,-476.25 0,-464.25 0,-464.25 0,-458.25 6,-452.25 12,-452.25 12,-452.25 199,-452.25 199,-452.25 205,-452.25 211,-458.25 211,-464.25 211,-464.25 211,-476.25 211,-476.25 211,-482.25 205,-488.25 199,-488.25"/>
<text text-anchor="middle" x="105.5" y="-465.57" font-family="Helvetica,sans-Serif" font-size="14.00">PDLoadCharacterizations v1</text>
</g>
<!-- loadChar&#45;&gt;determineChar -->
<g id="edge1" class="edge">
<title>loadChar&#45;&gt;determineChar</title>
<path fill="none" stroke="black" d="M118.33,-452.06C124.51,-443.78 132.07,-433.66 138.95,-424.44"/>
<polygon fill="black" stroke="black" points="141.71,-426.6 144.88,-416.49 136.1,-422.41 141.71,-426.6"/>
</g>
<!-- loadEvent -->
<g id="node3" class="node">
<title>loadEvent</title>
<path fill="lightskyblue" stroke="black" d="M411.12,-560.25C411.12,-560.25 227.88,-560.25 227.88,-560.25 221.88,-560.25 215.88,-554.25 215.88,-548.25 215.88,-548.25 215.88,-536.25 215.88,-536.25 215.88,-530.25 221.88,-524.25 227.88,-524.25 227.88,-524.25 411.12,-524.25 411.12,-524.25 417.12,-524.25 423.12,-530.25 423.12,-536.25 423.12,-536.25 423.12,-548.25 423.12,-548.25 423.12,-554.25 417.12,-560.25 411.12,-560.25"/>
<text text-anchor="middle" x="319.5" y="-537.58" font-family="Helvetica,sans-Serif" font-size="14.00">LoadEventAndCompress v1</text>
</g>
<!-- loadEvent&#45;&gt;InputWorkspace -->
<g id="edge2" class="edge">
<title>loadEvent&#45;&gt;InputWorkspace</title>
<path fill="none" stroke="black" d="M319.5,-523.95C319.5,-516.66 319.5,-507.98 319.5,-499.79"/>
<polygon fill="black" stroke="black" points="323,-499.87 319.5,-489.87 316,-499.87 323,-499.87"/>
</g>
<!-- determineChar&#45;&gt;alignAndFocus -->
<g id="edge5" class="edge">
<title>determineChar&#45;&gt;alignAndFocus</title>
<path fill="none" stroke="black" d="M177.87,-379.06C187.72,-370.32 199.87,-359.53 210.7,-349.92"/>
<polygon fill="black" stroke="black" points="212.75,-352.79 217.9,-343.53 208.1,-347.55 212.75,-352.79"/>
</g>
<!-- norm -->
<g id="node6" class="node">
<title>norm</title>
<path fill="lightskyblue" stroke="black" d="M314.75,-270.25C314.75,-270.25 162.25,-270.25 162.25,-270.25 156.25,-270.25 150.25,-264.25 150.25,-258.25 150.25,-258.25 150.25,-246.25 150.25,-246.25 150.25,-240.25 156.25,-234.25 162.25,-234.25 162.25,-234.25 314.75,-234.25 314.75,-234.25 320.75,-234.25 326.75,-240.25 326.75,-246.25 326.75,-246.25 326.75,-258.25 326.75,-258.25 326.75,-264.25 320.75,-270.25 314.75,-270.25"/>
<text text-anchor="middle" x="238.5" y="-247.57" font-family="Helvetica,sans-Serif" font-size="14.00">NormaliseByCurrent v1</text>
</g>
<!-- alignAndFocus&#45;&gt;norm -->
<g id="edge6" class="edge">
<title>alignAndFocus&#45;&gt;norm</title>
<path fill="none" stroke="black" d="M238.5,-305.95C238.5,-298.66 238.5,-289.98 238.5,-281.79"/>
<polygon fill="black" stroke="black" points="242,-281.87 238.5,-271.87 235,-281.87 242,-281.87"/>
</g>
<!-- ifSetUncert -->
<g id="node9" class="node">
<title>ifSetUncert</title>
<polygon fill="limegreen" stroke="black" points="238.5,-198.25 94.65,-180.25 238.5,-162.25 382.35,-180.25 238.5,-198.25"/>
<text text-anchor="middle" x="238.5" y="-175.57" font-family="Helvetica,sans-Serif" font-size="14.00">If SetUncertainties</text>
</g>
<!-- norm&#45;&gt;ifSetUncert -->
<g id="edge7" class="edge">
<title>norm&#45;&gt;ifSetUncert</title>
<path fill="none" stroke="black" d="M238.5,-233.95C238.5,-226.66 238.5,-217.98 238.5,-209.79"/>
<polygon fill="black" stroke="black" points="242,-209.87 238.5,-199.87 235,-209.87 242,-209.87"/>
</g>
<!-- setUncert -->
<g id="node7" class="node">
<title>setUncert</title>
<path fill="lightskyblue" stroke="black" d="M246.75,-109C246.75,-109 118.25,-109 118.25,-109 112.25,-109 106.25,-103 106.25,-97 106.25,-97 106.25,-85 106.25,-85 106.25,-79 112.25,-73 118.25,-73 118.25,-73 246.75,-73 246.75,-73 252.75,-73 258.75,-79 258.75,-85 258.75,-85 258.75,-97 258.75,-97 258.75,-103 252.75,-109 246.75,-109"/>
<text text-anchor="middle" x="182.5" y="-86.33" font-family="Helvetica,sans-Serif" font-size="14.00">SetUncertainties v1</text>
</g>
<!-- saveNexusPD -->
<g id="node8" class="node">
<title>saveNexusPD</title>
<path fill="lightskyblue" stroke="black" d="M293.38,-36C293.38,-36 183.62,-36 183.62,-36 177.62,-36 171.62,-30 171.62,-24 171.62,-24 171.62,-12 171.62,-12 171.62,-6 177.62,0 183.62,0 183.62,0 293.38,0 293.38,0 299.38,0 305.38,-6 305.38,-12 305.38,-12 305.38,-24 305.38,-24 305.38,-30 299.38,-36 293.38,-36"/>
<text text-anchor="middle" x="238.5" y="-13.32" font-family="Helvetica,sans-Serif" font-size="14.00">SaveNexusPD v1</text>
</g>
<!-- setUncert&#45;&gt;saveNexusPD -->
<g id="edge10" class="edge">
<title>setUncert&#45;&gt;saveNexusPD</title>
<path fill="none" stroke="black" d="M196.06,-72.81C202.66,-64.44 210.74,-54.2 218.07,-44.9"/>
<polygon fill="black" stroke="black" points="220.69,-47.24 224.13,-37.22 215.19,-42.9 220.69,-47.24"/>
</g>
<!-- ifSetUncert&#45;&gt;setUncert -->
<g id="edge8" class="edge">
<title>ifSetUncert&#45;&gt;setUncert</title>
<path fill="none" stroke="black" d="M228.23,-163.25C220.28,-150.86 209.08,-133.41 199.76,-118.89"/>
<polygon fill="black" stroke="black" points="202.83,-117.2 194.48,-110.67 196.94,-120.98 202.83,-117.2"/>
<text text-anchor="middle" x="226.75" y="-130.95" font-family="Helvetica,sans-Serif" font-size="14.00">Yes</text>
</g>
<!-- ifSetUncert&#45;&gt;saveNexusPD -->
<g id="edge9" class="edge">
<title>ifSetUncert&#45;&gt;saveNexusPD</title>
<path fill="none" stroke="black" d="M248.21,-163.1C259.49,-142.32 275.57,-105.08 267.5,-73 265.16,-63.71 260.89,-54.28 256.32,-45.95"/>
<polygon fill="black" stroke="black" points="259.37,-44.23 251.28,-37.4 253.34,-47.79 259.37,-44.23"/>
<text text-anchor="middle" x="278.88" y="-86.33" font-family="Helvetica,sans-Serif" font-size="14.00">No</text>
</g>
</g>
</svg>
