<?xml version="1.0" encoding="UTF-8" standalone="no"?>
<!DOCTYPE svg PUBLIC "-//W3C//DTD SVG 1.1//EN"
 "http://www.w3.org/Graphics/SVG/1.1/DTD/svg11.dtd">
<!-- Generated by graphviz version 11.0.0 (20240519.1550)
 -->
<!-- Title: PelicanReduction Pages: 1 -->
<svg width="877pt" height="776pt"
 viewBox="0.00 0.00 877.35 775.75" xmlns="http://www.w3.org/2000/svg" xmlns:xlink="http://www.w3.org/1999/xlink">
<g id="graph0" class="graph" transform="scale(1 1) rotate(0) translate(4 771.75)">
<title>PelicanReduction</title>
<polygon fill="white" stroke="none" points="-4,4 -4,-771.75 873.35,-771.75 873.35,4 -4,4"/>
<text text-anchor="middle" x="434.67" y="-750.45" font-family="Helvetica,sans-Serif" font-size="14.00">PelicanReduction Flowchart</text>
<g id="clust5" class="cluster">
<title>cluster</title>
<polygon fill="none" stroke="orange" points="713.35,-513.25 713.35,-734.5 861.35,-734.5 861.35,-513.25 713.35,-513.25"/>
<text text-anchor="middle" x="787.35" y="-717.2" font-family="Helvetica,sans-Serif" font-size="14.00">LoadMergeTransfer</text>
</g>
<!-- SOFQWWorkspaces -->
<g id="node1" class="node">
<title>SOFQWWorkspaces</title>
<polygon fill="grey" stroke="black" points="544.87,-36 353.14,-36 303.82,0 495.55,0 544.87,-36"/>
<text text-anchor="middle" x="424.35" y="-11.82" font-family="Times,serif" font-size="14.00">SOFQWWorkspaces</text>
</g>
<!-- NXSPEWorkspace -->
<g id="node2" class="node">
<title>NXSPEWorkspace</title>
<polygon fill="grey" stroke="black" points="286.08,-36 109.92,-36 64.61,0 240.77,0 286.08,-36"/>
<text text-anchor="middle" x="175.35" y="-11.82" font-family="Times,serif" font-size="14.00">NXSPEWorkspace</text>
</g>
<!-- ProcessMode -->
<g id="node3" class="node">
<title>ProcessMode</title>
<polygon fill="limegreen" stroke="black" points="335.35,-269.25 230.19,-251.25 335.35,-233.25 440.5,-251.25 335.35,-269.25"/>
<text text-anchor="middle" x="335.35" y="-246.57" font-family="Helvetica,sans-Serif" font-size="14.00">ProcessMode</text>
</g>
<!-- ExtractMonitors -->
<g id="node13" class="node">
<title>ExtractMonitors</title>
<path fill="lightskyblue" stroke="black" d="M329.1,-180C329.1,-180 227.6,-180 227.6,-180 221.6,-180 215.6,-174 215.6,-168 215.6,-168 215.6,-156 215.6,-156 215.6,-150 221.6,-144 227.6,-144 227.6,-144 329.1,-144 329.1,-144 335.1,-144 341.1,-150 341.1,-156 341.1,-156 341.1,-168 341.1,-168 341.1,-174 335.1,-180 329.1,-180"/>
<text text-anchor="middle" x="278.35" y="-157.32" font-family="Helvetica,sans-Serif" font-size="14.00">ExtractMonitors</text>
</g>
<!-- ProcessMode&#45;&gt;ExtractMonitors -->
<g id="edge17" class="edge">
<title>ProcessMode&#45;&gt;ExtractMonitors</title>
<path fill="none" stroke="black" d="M325.15,-234.65C317.04,-222.23 305.48,-204.54 295.89,-189.85"/>
<polygon fill="black" stroke="black" points="298.85,-187.98 290.45,-181.52 292.99,-191.81 298.85,-187.98"/>
<text text-anchor="middle" x="334.6" y="-201.95" font-family="Helvetica,sans-Serif" font-size="14.00">NXSPE</text>
</g>
<!-- SOFQW -->
<g id="node15" class="node">
<title>SOFQW</title>
<path fill="lightskyblue" stroke="black" d="M423.97,-180C423.97,-180 378.72,-180 378.72,-180 372.72,-180 366.72,-174 366.72,-168 366.72,-168 366.72,-156 366.72,-156 366.72,-150 372.72,-144 378.72,-144 378.72,-144 423.97,-144 423.97,-144 429.97,-144 435.97,-150 435.97,-156 435.97,-156 435.97,-168 435.97,-168 435.97,-174 429.97,-180 423.97,-180"/>
<text text-anchor="middle" x="401.35" y="-157.32" font-family="Helvetica,sans-Serif" font-size="14.00">SOFQW</text>
</g>
<!-- ProcessMode&#45;&gt;SOFQW -->
<g id="edge20" class="edge">
<title>ProcessMode&#45;&gt;SOFQW</title>
<path fill="none" stroke="black" d="M347.23,-234.96C351.95,-228.84 357.43,-221.73 362.35,-215.25 368.64,-206.95 375.45,-197.87 381.59,-189.64"/>
<polygon fill="black" stroke="black" points="384.35,-191.79 387.51,-181.68 378.73,-187.61 384.35,-191.79"/>
<text text-anchor="middle" x="400.97" y="-201.95" font-family="Helvetica,sans-Serif" font-size="14.00">SOFQW</text>
</g>
<!-- SampleRuns -->
<g id="node4" class="node">
<title>SampleRuns</title>
<ellipse fill="khaki" stroke="black" cx="298.35" cy="-539.25" rx="71.73" ry="18"/>
<text text-anchor="middle" x="298.35" y="-534.58" font-family="Helvetica,sans-Serif" font-size="14.00">SampleRuns</text>
</g>
<!-- LoadMergeTransfer -->
<g id="node21" class="node">
<title>LoadMergeTransfer</title>
<ellipse fill="orange" stroke="black" cx="289.35" cy="-467.25" rx="104.35" ry="18"/>
<text text-anchor="middle" x="289.35" y="-462.57" font-family="Helvetica,sans-Serif" font-size="14.00">LoadMergeTransfer</text>
</g>
<!-- SampleRuns&#45;&gt;LoadMergeTransfer -->
<g id="edge3" class="edge">
<title>SampleRuns&#45;&gt;LoadMergeTransfer</title>
<path fill="none" stroke="black" d="M296.12,-520.95C295.17,-513.57 294.04,-504.77 292.98,-496.5"/>
<polygon fill="black" stroke="black" points="296.48,-496.33 291.74,-486.86 289.54,-497.22 296.48,-496.33"/>
</g>
<!-- EmptyRuns -->
<g id="node5" class="node">
<title>EmptyRuns</title>
<ellipse fill="khaki" stroke="black" cx="104.35" cy="-611.25" rx="66.99" ry="18"/>
<text text-anchor="middle" x="104.35" y="-606.58" font-family="Helvetica,sans-Serif" font-size="14.00">EmptyRuns</text>
</g>
<!-- LoadMergeTransferA -->
<g id="node22" class="node">
<title>LoadMergeTransferA</title>
<ellipse fill="orange" stroke="black" cx="104.35" cy="-539.25" rx="104.35" ry="18"/>
<text text-anchor="middle" x="104.35" y="-534.58" font-family="Helvetica,sans-Serif" font-size="14.00">LoadMergeTransfer</text>
</g>
<!-- EmptyRuns&#45;&gt;LoadMergeTransferA -->
<g id="edge4" class="edge">
<title>EmptyRuns&#45;&gt;LoadMergeTransferA</title>
<path fill="none" stroke="black" d="M104.35,-592.95C104.35,-585.66 104.35,-576.98 104.35,-568.79"/>
<polygon fill="black" stroke="black" points="107.85,-568.87 104.35,-558.87 100.85,-568.87 107.85,-568.87"/>
</g>
<!-- CalibrationRuns -->
<g id="node6" class="node">
<title>CalibrationRuns</title>
<ellipse fill="khaki" stroke="black" cx="608.35" cy="-611.25" rx="88.04" ry="18"/>
<text text-anchor="middle" x="608.35" y="-606.58" font-family="Helvetica,sans-Serif" font-size="14.00">CalibrationRuns</text>
</g>
<!-- LoadMergeTransferB -->
<g id="node23" class="node">
<title>LoadMergeTransferB</title>
<ellipse fill="orange" stroke="black" cx="599.35" cy="-539.25" rx="104.35" ry="18"/>
<text text-anchor="middle" x="599.35" y="-534.58" font-family="Helvetica,sans-Serif" font-size="14.00">LoadMergeTransfer</text>
</g>
<!-- CalibrationRuns&#45;&gt;LoadMergeTransferB -->
<g id="edge8" class="edge">
<title>CalibrationRuns&#45;&gt;LoadMergeTransferB</title>
<path fill="none" stroke="black" d="M606.12,-592.95C605.17,-585.57 604.04,-576.77 602.98,-568.5"/>
<polygon fill="black" stroke="black" points="606.48,-568.33 601.74,-558.86 599.54,-569.22 606.48,-568.33"/>
</g>
<!-- EmptyCalibrationRuns -->
<g id="node7" class="node">
<title>EmptyCalibrationRuns</title>
<ellipse fill="khaki" stroke="black" cx="398.35" cy="-683.25" rx="119.6" ry="18"/>
<text text-anchor="middle" x="398.35" y="-678.58" font-family="Helvetica,sans-Serif" font-size="14.00">EmptyCalibrationRuns</text>
</g>
<!-- LoadMergeTransferC -->
<g id="node24" class="node">
<title>LoadMergeTransferC</title>
<ellipse fill="orange" stroke="black" cx="398.35" cy="-611.25" rx="104.35" ry="18"/>
<text text-anchor="middle" x="398.35" y="-606.58" font-family="Helvetica,sans-Serif" font-size="14.00">LoadMergeTransfer</text>
</g>
<!-- EmptyCalibrationRuns&#45;&gt;LoadMergeTransferC -->
<g id="edge10" class="edge">
<title>EmptyCalibrationRuns&#45;&gt;LoadMergeTransferC</title>
<path fill="none" stroke="black" d="M398.35,-664.95C398.35,-657.66 398.35,-648.98 398.35,-640.79"/>
<polygon fill="black" stroke="black" points="401.85,-640.87 398.35,-630.87 394.85,-640.87 401.85,-640.87"/>
</g>
<!-- ScaleA -->
<g id="node8" class="node">
<title>ScaleA</title>
<path fill="lightskyblue" stroke="black" d="M145.35,-485.25C145.35,-485.25 115.35,-485.25 115.35,-485.25 109.35,-485.25 103.35,-479.25 103.35,-473.25 103.35,-473.25 103.35,-461.25 103.35,-461.25 103.35,-455.25 109.35,-449.25 115.35,-449.25 115.35,-449.25 145.35,-449.25 145.35,-449.25 151.35,-449.25 157.35,-455.25 157.35,-461.25 157.35,-461.25 157.35,-473.25 157.35,-473.25 157.35,-479.25 151.35,-485.25 145.35,-485.25"/>
<text text-anchor="middle" x="130.35" y="-462.57" font-family="Helvetica,sans-Serif" font-size="14.00">Scale</text>
</g>
<!-- MinusA -->
<g id="node10" class="node">
<title>MinusA</title>
<path fill="lightskyblue" stroke="black" d="M305.97,-413.25C305.97,-413.25 272.72,-413.25 272.72,-413.25 266.72,-413.25 260.72,-407.25 260.72,-401.25 260.72,-401.25 260.72,-389.25 260.72,-389.25 260.72,-383.25 266.72,-377.25 272.72,-377.25 272.72,-377.25 305.97,-377.25 305.97,-377.25 311.97,-377.25 317.97,-383.25 317.97,-389.25 317.97,-389.25 317.97,-401.25 317.97,-401.25 317.97,-407.25 311.97,-413.25 305.97,-413.25"/>
<text text-anchor="middle" x="289.35" y="-390.57" font-family="Helvetica,sans-Serif" font-size="14.00">Minus</text>
</g>
<!-- ScaleA&#45;&gt;MinusA -->
<g id="edge7" class="edge">
<title>ScaleA&#45;&gt;MinusA</title>
<path fill="none" stroke="black" d="M157.68,-454.22C183.11,-443.02 221.29,-426.21 250,-413.57"/>
<polygon fill="black" stroke="black" points="251.36,-416.8 259.1,-409.56 248.54,-410.39 251.36,-416.8"/>
</g>
<!-- ScaleB -->
<g id="node9" class="node">
<title>ScaleB</title>
<path fill="lightskyblue" stroke="black" d="M435.35,-557.25C435.35,-557.25 405.35,-557.25 405.35,-557.25 399.35,-557.25 393.35,-551.25 393.35,-545.25 393.35,-545.25 393.35,-533.25 393.35,-533.25 393.35,-527.25 399.35,-521.25 405.35,-521.25 405.35,-521.25 435.35,-521.25 435.35,-521.25 441.35,-521.25 447.35,-527.25 447.35,-533.25 447.35,-533.25 447.35,-545.25 447.35,-545.25 447.35,-551.25 441.35,-557.25 435.35,-557.25"/>
<text text-anchor="middle" x="420.35" y="-534.58" font-family="Helvetica,sans-Serif" font-size="14.00">Scale</text>
</g>
<!-- MinusB -->
<g id="node11" class="node">
<title>MinusB</title>
<path fill="lightskyblue" stroke="black" d="M456.97,-485.25C456.97,-485.25 423.72,-485.25 423.72,-485.25 417.72,-485.25 411.72,-479.25 411.72,-473.25 411.72,-473.25 411.72,-461.25 411.72,-461.25 411.72,-455.25 417.72,-449.25 423.72,-449.25 423.72,-449.25 456.97,-449.25 456.97,-449.25 462.97,-449.25 468.97,-455.25 468.97,-461.25 468.97,-461.25 468.97,-473.25 468.97,-473.25 468.97,-479.25 462.97,-485.25 456.97,-485.25"/>
<text text-anchor="middle" x="440.35" y="-462.57" font-family="Helvetica,sans-Serif" font-size="14.00">Minus</text>
</g>
<!-- ScaleB&#45;&gt;MinusB -->
<g id="edge12" class="edge">
<title>ScaleB&#45;&gt;MinusB</title>
<path fill="none" stroke="black" d="M425.29,-520.95C427.42,-513.49 429.97,-504.57 432.36,-496.22"/>
<polygon fill="black" stroke="black" points="435.66,-497.39 435.04,-486.81 428.93,-495.46 435.66,-497.39"/>
</g>
<!-- Divide -->
<g id="node17" class="node">
<title>Divide</title>
<path fill="lightskyblue" stroke="black" d="M353.1,-341.25C353.1,-341.25 317.6,-341.25 317.6,-341.25 311.6,-341.25 305.6,-335.25 305.6,-329.25 305.6,-329.25 305.6,-317.25 305.6,-317.25 305.6,-311.25 311.6,-305.25 317.6,-305.25 317.6,-305.25 353.1,-305.25 353.1,-305.25 359.1,-305.25 365.1,-311.25 365.1,-317.25 365.1,-317.25 365.1,-329.25 365.1,-329.25 365.1,-335.25 359.1,-341.25 353.1,-341.25"/>
<text text-anchor="middle" x="335.35" y="-318.57" font-family="Helvetica,sans-Serif" font-size="14.00">Divide</text>
</g>
<!-- MinusA&#45;&gt;Divide -->
<g id="edge14" class="edge">
<title>MinusA&#45;&gt;Divide</title>
<path fill="none" stroke="black" d="M300.72,-376.95C305.9,-369.06 312.15,-359.55 317.9,-350.8"/>
<polygon fill="black" stroke="black" points="320.71,-352.9 323.27,-342.62 314.86,-349.05 320.71,-352.9"/>
</g>
<!-- Integration -->
<g id="node12" class="node">
<title>Integration</title>
<path fill="lightskyblue" stroke="black" d="M445.6,-413.25C445.6,-413.25 377.1,-413.25 377.1,-413.25 371.1,-413.25 365.1,-407.25 365.1,-401.25 365.1,-401.25 365.1,-389.25 365.1,-389.25 365.1,-383.25 371.1,-377.25 377.1,-377.25 377.1,-377.25 445.6,-377.25 445.6,-377.25 451.6,-377.25 457.6,-383.25 457.6,-389.25 457.6,-389.25 457.6,-401.25 457.6,-401.25 457.6,-407.25 451.6,-413.25 445.6,-413.25"/>
<text text-anchor="middle" x="411.35" y="-390.57" font-family="Helvetica,sans-Serif" font-size="14.00">Integration</text>
</g>
<!-- MinusB&#45;&gt;Integration -->
<g id="edge13" class="edge">
<title>MinusB&#45;&gt;Integration</title>
<path fill="none" stroke="black" d="M433.18,-448.95C430.05,-441.4 426.31,-432.37 422.81,-423.93"/>
<polygon fill="black" stroke="black" points="426.07,-422.65 419.01,-414.75 419.6,-425.33 426.07,-422.65"/>
</g>
<!-- Integration&#45;&gt;Divide -->
<g id="edge15" class="edge">
<title>Integration&#45;&gt;Divide</title>
<path fill="none" stroke="black" d="M392.56,-376.95C383.52,-368.62 372.5,-358.47 362.56,-349.32"/>
<polygon fill="black" stroke="black" points="365.02,-346.82 355.29,-342.62 360.28,-351.97 365.02,-346.82"/>
</g>
<!-- SaveNXSPE -->
<g id="node14" class="node">
<title>SaveNXSPE</title>
<path fill="lightskyblue" stroke="black" d="M244.47,-108C244.47,-108 172.22,-108 172.22,-108 166.22,-108 160.22,-102 160.22,-96 160.22,-96 160.22,-84 160.22,-84 160.22,-78 166.22,-72 172.22,-72 172.22,-72 244.47,-72 244.47,-72 250.47,-72 256.47,-78 256.47,-84 256.47,-84 256.47,-96 256.47,-96 256.47,-102 250.47,-108 244.47,-108"/>
<text text-anchor="middle" x="208.35" y="-85.33" font-family="Helvetica,sans-Serif" font-size="14.00">SaveNXSPE</text>
</g>
<!-- ExtractMonitors&#45;&gt;SaveNXSPE -->
<g id="edge18" class="edge">
<title>ExtractMonitors&#45;&gt;SaveNXSPE</title>
<path fill="none" stroke="black" d="M261.04,-143.7C252.73,-135.39 242.62,-125.28 233.49,-116.14"/>
<polygon fill="black" stroke="black" points="236.07,-113.77 226.52,-109.17 231.12,-118.72 236.07,-113.77"/>
</g>
<!-- SaveNXSPE&#45;&gt;NXSPEWorkspace -->
<g id="edge19" class="edge">
<title>SaveNXSPE&#45;&gt;NXSPEWorkspace</title>
<path fill="none" stroke="black" d="M200.19,-71.7C196.59,-64.07 192.28,-54.92 188.26,-46.4"/>
<polygon fill="black" stroke="black" points="191.48,-45.03 184.05,-37.47 185.15,-48.01 191.48,-45.03"/>
</g>
<!-- CorrectKiKf -->
<g id="node16" class="node">
<title>CorrectKiKf</title>
<path fill="lightskyblue" stroke="black" d="M454.6,-108C454.6,-108 386.1,-108 386.1,-108 380.1,-108 374.1,-102 374.1,-96 374.1,-96 374.1,-84 374.1,-84 374.1,-78 380.1,-72 386.1,-72 386.1,-72 454.6,-72 454.6,-72 460.6,-72 466.6,-78 466.6,-84 466.6,-84 466.6,-96 466.6,-96 466.6,-102 460.6,-108 454.6,-108"/>
<text text-anchor="middle" x="420.35" y="-85.33" font-family="Helvetica,sans-Serif" font-size="14.00">CorrectKiKf</text>
</g>
<!-- SOFQW&#45;&gt;CorrectKiKf -->
<g id="edge21" class="edge">
<title>SOFQW&#45;&gt;CorrectKiKf</title>
<path fill="none" stroke="black" d="M406.04,-143.7C408.07,-136.24 410.49,-127.32 412.75,-118.97"/>
<polygon fill="black" stroke="black" points="416.06,-120.13 415.31,-109.57 409.31,-118.3 416.06,-120.13"/>
</g>
<!-- CorrectKiKf&#45;&gt;SOFQWWorkspaces -->
<g id="edge22" class="edge">
<title>CorrectKiKf&#45;&gt;SOFQWWorkspaces</title>
<path fill="none" stroke="black" d="M421.33,-71.7C421.75,-64.41 422.25,-55.73 422.71,-47.54"/>
<polygon fill="black" stroke="black" points="426.21,-47.8 423.28,-37.62 419.22,-47.4 426.21,-47.8"/>
</g>
<!-- Divide&#45;&gt;ProcessMode -->
<g id="edge16" class="edge">
<title>Divide&#45;&gt;ProcessMode</title>
<path fill="none" stroke="black" d="M335.35,-304.95C335.35,-297.66 335.35,-288.98 335.35,-280.79"/>
<polygon fill="black" stroke="black" points="338.85,-280.87 335.35,-270.87 331.85,-280.87 338.85,-280.87"/>
</g>
<!-- MergeRuns -->
<g id="node18" class="node">
<title>MergeRuns</title>
<path fill="lightskyblue" stroke="black" d="M809.97,-629.25C809.97,-629.25 740.72,-629.25 740.72,-629.25 734.72,-629.25 728.72,-623.25 728.72,-617.25 728.72,-617.25 728.72,-605.25 728.72,-605.25 728.72,-599.25 734.72,-593.25 740.72,-593.25 740.72,-593.25 809.97,-593.25 809.97,-593.25 815.97,-593.25 821.97,-599.25 821.97,-605.25 821.97,-605.25 821.97,-617.25 821.97,-617.25 821.97,-623.25 815.97,-629.25 809.97,-629.25"/>
<text text-anchor="middle" x="775.35" y="-606.58" font-family="Helvetica,sans-Serif" font-size="14.00">MergeRuns</text>
</g>
<!-- ConvertUnits -->
<g id="node20" class="node">
<title>ConvertUnits</title>
<path fill="lightskyblue" stroke="black" d="M816.72,-557.25C816.72,-557.25 733.97,-557.25 733.97,-557.25 727.97,-557.25 721.97,-551.25 721.97,-545.25 721.97,-545.25 721.97,-533.25 721.97,-533.25 721.97,-527.25 727.97,-521.25 733.97,-521.25 733.97,-521.25 816.72,-521.25 816.72,-521.25 822.72,-521.25 828.72,-527.25 828.72,-533.25 828.72,-533.25 828.72,-545.25 828.72,-545.25 828.72,-551.25 822.72,-557.25 816.72,-557.25"/>
<text text-anchor="middle" x="775.35" y="-534.58" font-family="Helvetica,sans-Serif" font-size="14.00">ConvertUnits</text>
</g>
<!-- MergeRuns&#45;&gt;ConvertUnits -->
<g id="edge2" class="edge">
<title>MergeRuns&#45;&gt;ConvertUnits</title>
<path fill="none" stroke="black" d="M775.35,-592.95C775.35,-585.66 775.35,-576.98 775.35,-568.79"/>
<polygon fill="black" stroke="black" points="778.85,-568.87 775.35,-558.87 771.85,-568.87 778.85,-568.87"/>
</g>
<!-- LoadPLN -->
<g id="node19" class="node">
<title>LoadPLN</title>
<path fill="lightskyblue" stroke="black" d="M800.97,-701.25C800.97,-701.25 749.72,-701.25 749.72,-701.25 743.72,-701.25 737.72,-695.25 737.72,-689.25 737.72,-689.25 737.72,-677.25 737.72,-677.25 737.72,-671.25 743.72,-665.25 749.72,-665.25 749.72,-665.25 800.97,-665.25 800.97,-665.25 806.97,-665.25 812.97,-671.25 812.97,-677.25 812.97,-677.25 812.97,-689.25 812.97,-689.25 812.97,-695.25 806.97,-701.25 800.97,-701.25"/>
<text text-anchor="middle" x="775.35" y="-678.58" font-family="Helvetica,sans-Serif" font-size="14.00">LoadPLN</text>
</g>
<!-- LoadPLN&#45;&gt;MergeRuns -->
<g id="edge1" class="edge">
<title>LoadPLN&#45;&gt;MergeRuns</title>
<path fill="none" stroke="black" d="M775.35,-664.95C775.35,-657.66 775.35,-648.98 775.35,-640.79"/>
<polygon fill="black" stroke="black" points="778.85,-640.87 775.35,-630.87 771.85,-640.87 778.85,-640.87"/>
</g>
<!-- LoadMergeTransfer&#45;&gt;MinusA -->
<g id="edge6" class="edge">
<title>LoadMergeTransfer&#45;&gt;MinusA</title>
<path fill="none" stroke="black" d="M289.35,-448.95C289.35,-441.66 289.35,-432.98 289.35,-424.79"/>
<polygon fill="black" stroke="black" points="292.85,-424.87 289.35,-414.87 285.85,-424.87 292.85,-424.87"/>
</g>
<!-- LoadMergeTransferA&#45;&gt;ScaleA -->
<g id="edge5" class="edge">
<title>LoadMergeTransferA&#45;&gt;ScaleA</title>
<path fill="none" stroke="black" d="M110.77,-520.95C113.57,-513.4 116.93,-504.37 120.06,-495.93"/>
<polygon fill="black" stroke="black" points="123.26,-497.37 123.47,-486.77 116.7,-494.93 123.26,-497.37"/>
</g>
<!-- LoadMergeTransferB&#45;&gt;MinusB -->
<g id="edge9" class="edge">
<title>LoadMergeTransferB&#45;&gt;MinusB</title>
<path fill="none" stroke="black" d="M562.47,-522.01C537.66,-511.09 505,-496.71 479.7,-485.57"/>
<polygon fill="black" stroke="black" points="481.29,-482.45 470.73,-481.63 478.47,-488.86 481.29,-482.45"/>
</g>
<!-- LoadMergeTransferC&#45;&gt;ScaleB -->
<g id="edge11" class="edge">
<title>LoadMergeTransferC&#45;&gt;ScaleB</title>
<path fill="none" stroke="black" d="M403.78,-592.95C406.13,-585.49 408.93,-576.57 411.56,-568.22"/>
<polygon fill="black" stroke="black" points="414.86,-569.39 414.52,-558.8 408.18,-567.29 414.86,-569.39"/>
</g>
</g>
</svg>
