<?xml version="1.0" encoding="UTF-8" standalone="no"?>
<!DOCTYPE svg PUBLIC "-//W3C//DTD SVG 1.1//EN"
 "http://www.w3.org/Graphics/SVG/1.1/DTD/svg11.dtd">
<!-- Generated by graphviz version 7.0.5 (20221231.0122)
 -->
<!-- Title: Transmission Pages: 1 -->
<svg width="548pt" height="404pt"
 viewBox="0.00 0.00 547.99 404.00" xmlns="http://www.w3.org/2000/svg" xmlns:xlink="http://www.w3.org/1999/xlink">
<g id="graph0" class="graph" transform="scale(1 1) rotate(0) translate(4 400)">
<title>Transmission</title>
<polygon fill="white" stroke="none" points="-4,4 -4,-400 543.99,-400 543.99,4 -4,4"/>
<!-- Run -->
<g id="node1" class="node">
<title>Run</title>
<ellipse fill="khaki" stroke="black" cx="98.5" cy="-378" rx="28.7" ry="18"/>
<text text-anchor="middle" x="98.5" y="-374.3" font-family="Helvetica,sans-Serif" font-size="14.00">Run</text>
</g>
<!-- LoadAndMerge -->
<g id="node5" class="node">
<title>LoadAndMerge</title>
<path fill="lightskyblue" stroke="black" d="M146.5,-324C146.5,-324 50.5,-324 50.5,-324 44.5,-324 38.5,-318 38.5,-312 38.5,-312 38.5,-300 38.5,-300 38.5,-294 44.5,-288 50.5,-288 50.5,-288 146.5,-288 146.5,-288 152.5,-288 158.5,-294 158.5,-300 158.5,-300 158.5,-312 158.5,-312 158.5,-318 152.5,-324 146.5,-324"/>
<text text-anchor="middle" x="98.5" y="-302.3" font-family="Helvetica,sans-Serif" font-size="14.00">LoadAndMerge</text>
</g>
<!-- Run&#45;&gt;LoadAndMerge -->
<g id="edge1" class="edge">
<title>Run&#45;&gt;LoadAndMerge</title>
<path fill="none" stroke="black" d="M98.5,-359.7C98.5,-352.41 98.5,-343.73 98.5,-335.54"/>
<polygon fill="black" stroke="black" points="102,-335.62 98.5,-325.62 95,-335.62 102,-335.62"/>
</g>
<!-- CadmiumTransmissionWorkspace -->
<g id="node2" class="node">
<title>CadmiumTransmissionWorkspace</title>
<ellipse fill="khaki" stroke="black" cx="377.5" cy="-234" rx="162.47" ry="18"/>
<text text-anchor="middle" x="377.5" y="-230.3" font-family="Helvetica,sans-Serif" font-size="14.00">CadmiumTransmissionWorkspace</text>
</g>
<!-- Minus -->
<g id="node8" class="node">
<title>Minus</title>
<path fill="lightskyblue" stroke="black" d="M254.5,-180C254.5,-180 220.5,-180 220.5,-180 214.5,-180 208.5,-174 208.5,-168 208.5,-168 208.5,-156 208.5,-156 208.5,-150 214.5,-144 220.5,-144 220.5,-144 254.5,-144 254.5,-144 260.5,-144 266.5,-150 266.5,-156 266.5,-156 266.5,-168 266.5,-168 266.5,-174 260.5,-180 254.5,-180"/>
<text text-anchor="middle" x="237.5" y="-158.3" font-family="Helvetica,sans-Serif" font-size="14.00">Minus</text>
</g>
<!-- CadmiumTransmissionWorkspace&#45;&gt;Minus -->
<g id="edge4" class="edge">
<title>CadmiumTransmissionWorkspace&#45;&gt;Minus</title>
<path fill="none" stroke="black" d="M343.61,-216.05C323.53,-206.02 298,-193.25 277.01,-182.76"/>
<polygon fill="black" stroke="black" points="278.67,-179.67 268.17,-178.33 275.54,-185.94 278.67,-179.67"/>
</g>
<!-- EmptyBeamWorkspace -->
<g id="node3" class="node">
<title>EmptyBeamWorkspace</title>
<ellipse fill="khaki" stroke="black" cx="399.5" cy="-162" rx="115.08" ry="18"/>
<text text-anchor="middle" x="399.5" y="-158.3" font-family="Helvetica,sans-Serif" font-size="14.00">EmptyBeamWorkspace</text>
</g>
<!-- Divide2 -->
<g id="node7" class="node">
<title>Divide2</title>
<path fill="lightskyblue" stroke="black" d="M336.5,-108C336.5,-108 300.5,-108 300.5,-108 294.5,-108 288.5,-102 288.5,-96 288.5,-96 288.5,-84 288.5,-84 288.5,-78 294.5,-72 300.5,-72 300.5,-72 336.5,-72 336.5,-72 342.5,-72 348.5,-78 348.5,-84 348.5,-84 348.5,-96 348.5,-96 348.5,-102 342.5,-108 336.5,-108"/>
<text text-anchor="middle" x="318.5" y="-86.3" font-family="Helvetica,sans-Serif" font-size="14.00">Divide</text>
</g>
<!-- EmptyBeamWorkspace&#45;&gt;Divide2 -->
<g id="edge6" class="edge">
<title>EmptyBeamWorkspace&#45;&gt;Divide2</title>
<path fill="none" stroke="black" d="M379.89,-144.05C369.99,-135.5 357.8,-124.96 346.89,-115.54"/>
<polygon fill="black" stroke="black" points="349.49,-113.16 339.64,-109.26 344.91,-118.45 349.49,-113.16"/>
</g>
<!-- OutputWorkspace -->
<g id="node4" class="node">
<title>OutputWorkspace</title>
<polygon fill="grey" stroke="black" points="427.27,-36 254.24,-36 209.73,0 382.76,0 427.27,-36"/>
<text text-anchor="middle" x="318.5" y="-14.3" font-family="Times,serif" font-size="14.00">OutputWorkspace</text>
</g>
<!-- Divide -->
<g id="node6" class="node">
<title>Divide</title>
<path fill="lightskyblue" stroke="black" d="M185,-252C185,-252 12,-252 12,-252 6,-252 0,-246 0,-240 0,-240 0,-228 0,-228 0,-222 6,-216 12,-216 12,-216 185,-216 185,-216 191,-216 197,-222 197,-228 197,-228 197,-240 197,-240 197,-246 191,-252 185,-252"/>
<text text-anchor="middle" x="98.5" y="-230.3" font-family="Helvetica,sans-Serif" font-size="14.00">Normalize to monitor/time</text>
</g>
<!-- LoadAndMerge&#45;&gt;Divide -->
<g id="edge2" class="edge">
<title>LoadAndMerge&#45;&gt;Divide</title>
<path fill="none" stroke="black" d="M98.5,-287.7C98.5,-280.41 98.5,-271.73 98.5,-263.54"/>
<polygon fill="black" stroke="black" points="102,-263.62 98.5,-253.62 95,-263.62 102,-263.62"/>
</g>
<!-- Divide&#45;&gt;Minus -->
<g id="edge3" class="edge">
<title>Divide&#45;&gt;Minus</title>
<path fill="none" stroke="black" d="M133.22,-215.52C152.94,-205.59 177.69,-193.12 198.14,-182.82"/>
<polygon fill="black" stroke="black" points="199.67,-185.97 207.03,-178.34 196.52,-179.72 199.67,-185.97"/>
</g>
<!-- Divide2&#45;&gt;OutputWorkspace -->
<g id="edge7" class="edge">
<title>Divide2&#45;&gt;OutputWorkspace</title>
<path fill="none" stroke="black" d="M318.5,-71.7C318.5,-64.41 318.5,-55.73 318.5,-47.54"/>
<polygon fill="black" stroke="black" points="322,-47.62 318.5,-37.62 315,-47.62 322,-47.62"/>
</g>
<!-- Minus&#45;&gt;Divide2 -->
<g id="edge5" class="edge">
<title>Minus&#45;&gt;Divide2</title>
<path fill="none" stroke="black" d="M257.52,-143.7C267.26,-135.28 279.14,-125.02 289.81,-115.79"/>
<polygon fill="black" stroke="black" points="292,-118.52 297.28,-109.34 287.43,-113.23 292,-118.52"/>
</g>
</g>
</svg>
