<?xml version="1.0" encoding="UTF-8" standalone="no"?>
<!DOCTYPE svg PUBLIC "-//W3C//DTD SVG 1.1//EN"
 "http://www.w3.org/Graphics/SVG/1.1/DTD/svg11.dtd">
<!-- Generated by graphviz version 13.1.2 (20250809.0930)
 -->
<!-- Title: Transmission Pages: 1 -->
<svg width="572pt" height="404pt"
 viewBox="0.00 0.00 572.00 404.00" xmlns="http://www.w3.org/2000/svg" xmlns:xlink="http://www.w3.org/1999/xlink">
<g id="graph0" class="graph" transform="scale(1 1) rotate(0) translate(4 400)">
<title>Transmission</title>
<polygon fill="white" stroke="none" points="-4,4 -4,-400 568.22,-400 568.22,4 -4,4"/>
<!-- Run -->
<g id="node1" class="node">
<title>Run</title>
<ellipse fill="khaki" stroke="black" cx="98.38" cy="-378" rx="30.16" ry="18"/>
<text xml:space="preserve" text-anchor="middle" x="98.38" y="-373.32" font-family="Helvetica,sans-Serif" font-size="14.00">Run</text>
</g>
<!-- LoadAndMerge -->
<g id="node5" class="node">
<title>LoadAndMerge</title>
<path fill="lightskyblue" stroke="black" d="M146.12,-324C146.12,-324 50.62,-324 50.62,-324 44.62,-324 38.62,-318 38.62,-312 38.62,-312 38.62,-300 38.62,-300 38.62,-294 44.62,-288 50.62,-288 50.62,-288 146.12,-288 146.12,-288 152.12,-288 158.12,-294 158.12,-300 158.12,-300 158.12,-312 158.12,-312 158.12,-318 152.12,-324 146.12,-324"/>
<text xml:space="preserve" text-anchor="middle" x="98.38" y="-301.32" font-family="Helvetica,sans-Serif" font-size="14.00">LoadAndMerge</text>
</g>
<!-- Run&#45;&gt;LoadAndMerge -->
<g id="edge1" class="edge">
<title>Run&#45;&gt;LoadAndMerge</title>
<path fill="none" stroke="black" d="M98.38,-359.7C98.38,-352.41 98.38,-343.73 98.38,-335.54"/>
<polygon fill="black" stroke="black" points="101.88,-335.62 98.38,-325.62 94.88,-335.62 101.88,-335.62"/>
</g>
<!-- CadmiumTransmissionWorkspace -->
<g id="node2" class="node">
<title>CadmiumTransmissionWorkspace</title>
<ellipse fill="khaki" stroke="black" cx="389.38" cy="-234" rx="174.84" ry="18"/>
<text xml:space="preserve" text-anchor="middle" x="389.38" y="-229.32" font-family="Helvetica,sans-Serif" font-size="14.00">CadmiumTransmissionWorkspace</text>
</g>
<!-- Minus -->
<g id="node8" class="node">
<title>Minus</title>
<path fill="lightskyblue" stroke="black" d="M260,-180C260,-180 226.75,-180 226.75,-180 220.75,-180 214.75,-174 214.75,-168 214.75,-168 214.75,-156 214.75,-156 214.75,-150 220.75,-144 226.75,-144 226.75,-144 260,-144 260,-144 266,-144 272,-150 272,-156 272,-156 272,-168 272,-168 272,-174 266,-180 260,-180"/>
<text xml:space="preserve" text-anchor="middle" x="243.38" y="-157.32" font-family="Helvetica,sans-Serif" font-size="14.00">Minus</text>
</g>
<!-- CadmiumTransmissionWorkspace&#45;&gt;Minus -->
<g id="edge4" class="edge">
<title>CadmiumTransmissionWorkspace&#45;&gt;Minus</title>
<path fill="none" stroke="black" d="M354.03,-216.05C332.32,-205.65 304.49,-192.3 282.17,-181.6"/>
<polygon fill="black" stroke="black" points="283.92,-178.56 273.39,-177.39 280.9,-184.87 283.92,-178.56"/>
</g>
<!-- EmptyBeamWorkspace -->
<g id="node3" class="node">
<title>EmptyBeamWorkspace</title>
<ellipse fill="khaki" stroke="black" cx="413.38" cy="-162" rx="123.81" ry="18"/>
<text xml:space="preserve" text-anchor="middle" x="413.38" y="-157.32" font-family="Helvetica,sans-Serif" font-size="14.00">EmptyBeamWorkspace</text>
</g>
<!-- Divide2 -->
<g id="node7" class="node">
<title>Divide2</title>
<path fill="lightskyblue" stroke="black" d="M346.12,-108C346.12,-108 310.62,-108 310.62,-108 304.62,-108 298.62,-102 298.62,-96 298.62,-96 298.62,-84 298.62,-84 298.62,-78 304.62,-72 310.62,-72 310.62,-72 346.12,-72 346.12,-72 352.12,-72 358.12,-78 358.12,-84 358.12,-84 358.12,-96 358.12,-96 358.12,-102 352.12,-108 346.12,-108"/>
<text xml:space="preserve" text-anchor="middle" x="328.38" y="-85.33" font-family="Helvetica,sans-Serif" font-size="14.00">Divide</text>
</g>
<!-- EmptyBeamWorkspace&#45;&gt;Divide2 -->
<g id="edge6" class="edge">
<title>EmptyBeamWorkspace&#45;&gt;Divide2</title>
<path fill="none" stroke="black" d="M392.8,-144.05C382.41,-135.5 369.61,-124.96 358.17,-115.54"/>
<polygon fill="black" stroke="black" points="360.46,-112.89 350.52,-109.24 356.01,-118.3 360.46,-112.89"/>
</g>
<!-- OutputWorkspace -->
<g id="node4" class="node">
<title>OutputWorkspace</title>
<polygon fill="grey" stroke="black" points="434.22,-36 265.85,-36 222.53,0 390.9,0 434.22,-36"/>
<text xml:space="preserve" text-anchor="middle" x="328.38" y="-11.82" font-family="Times,serif" font-size="14.00">OutputWorkspace</text>
</g>
<!-- Divide -->
<g id="node6" class="node">
<title>Divide</title>
<path fill="lightskyblue" stroke="black" d="M184.75,-252C184.75,-252 12,-252 12,-252 6,-252 0,-246 0,-240 0,-240 0,-228 0,-228 0,-222 6,-216 12,-216 12,-216 184.75,-216 184.75,-216 190.75,-216 196.75,-222 196.75,-228 196.75,-228 196.75,-240 196.75,-240 196.75,-246 190.75,-252 184.75,-252"/>
<text xml:space="preserve" text-anchor="middle" x="98.38" y="-229.32" font-family="Helvetica,sans-Serif" font-size="14.00">Normalize to monitor/time</text>
</g>
<!-- LoadAndMerge&#45;&gt;Divide -->
<g id="edge2" class="edge">
<title>LoadAndMerge&#45;&gt;Divide</title>
<path fill="none" stroke="black" d="M98.38,-287.7C98.38,-280.41 98.38,-271.73 98.38,-263.54"/>
<polygon fill="black" stroke="black" points="101.88,-263.62 98.38,-253.62 94.88,-263.62 101.88,-263.62"/>
</g>
<!-- Divide&#45;&gt;Minus -->
<g id="edge3" class="edge">
<title>Divide&#45;&gt;Minus</title>
<path fill="none" stroke="black" d="M134.59,-215.52C155.78,-205.29 182.55,-192.36 204.23,-181.9"/>
<polygon fill="black" stroke="black" points="205.57,-185.14 213.05,-177.64 202.53,-178.83 205.57,-185.14"/>
</g>
<!-- Divide2&#45;&gt;OutputWorkspace -->
<g id="edge7" class="edge">
<title>Divide2&#45;&gt;OutputWorkspace</title>
<path fill="none" stroke="black" d="M328.38,-71.7C328.38,-64.41 328.38,-55.73 328.38,-47.54"/>
<polygon fill="black" stroke="black" points="331.88,-47.62 328.38,-37.62 324.88,-47.62 331.88,-47.62"/>
</g>
<!-- Minus&#45;&gt;Divide2 -->
<g id="edge5" class="edge">
<title>Minus&#45;&gt;Divide2</title>
<path fill="none" stroke="black" d="M264.39,-143.7C274.7,-135.2 287.32,-124.81 298.61,-115.51"/>
<polygon fill="black" stroke="black" points="300.65,-118.37 306.14,-109.31 296.2,-112.96 300.65,-118.37"/>
</g>
</g>
</svg>
