<?xml version="1.0" encoding="UTF-8" standalone="no"?>
<!DOCTYPE svg PUBLIC "-//W3C//DTD SVG 1.1//EN"
 "http://www.w3.org/Graphics/SVG/1.1/DTD/svg11.dtd">
<!-- Generated by graphviz version 13.1.1 (20250720.1534)
 -->
<!-- Title: Container Pages: 1 -->
<svg width="220pt" height="260pt"
 viewBox="0.00 0.00 220.00 260.00" xmlns="http://www.w3.org/2000/svg" xmlns:xlink="http://www.w3.org/1999/xlink">
<g id="graph0" class="graph" transform="scale(1 1) rotate(0) translate(4 256)">
<title>Container</title>
<polygon fill="white" stroke="none" points="-4,4 -4,-256 215.68,-256 215.68,4 -4,4"/>
<!-- Run -->
<g id="node1" class="node">
<title>Run</title>
<ellipse fill="khaki" stroke="black" cx="105.84" cy="-234" rx="30.16" ry="18"/>
<text xml:space="preserve" text-anchor="middle" x="105.84" y="-229.32" font-family="Helvetica,sans-Serif" font-size="14.00">Run</text>
</g>
<!-- LoadAndMerge -->
<g id="node3" class="node">
<title>LoadAndMerge</title>
<path fill="lightskyblue" stroke="black" d="M153.59,-180C153.59,-180 58.09,-180 58.09,-180 52.09,-180 46.09,-174 46.09,-168 46.09,-168 46.09,-156 46.09,-156 46.09,-150 52.09,-144 58.09,-144 58.09,-144 153.59,-144 153.59,-144 159.59,-144 165.59,-150 165.59,-156 165.59,-156 165.59,-168 165.59,-168 165.59,-174 159.59,-180 153.59,-180"/>
<text xml:space="preserve" text-anchor="middle" x="105.84" y="-157.32" font-family="Helvetica,sans-Serif" font-size="14.00">LoadAndMerge</text>
</g>
<!-- Run&#45;&gt;LoadAndMerge -->
<g id="edge1" class="edge">
<title>Run&#45;&gt;LoadAndMerge</title>
<path fill="none" stroke="black" d="M105.84,-215.7C105.84,-208.41 105.84,-199.73 105.84,-191.54"/>
<polygon fill="black" stroke="black" points="109.34,-191.62 105.84,-181.62 102.34,-191.62 109.34,-191.62"/>
</g>
<!-- OutputWorkspace -->
<g id="node2" class="node">
<title>OutputWorkspace</title>
<polygon fill="grey" stroke="black" points="211.68,-36 43.31,-36 0,0 168.37,0 211.68,-36"/>
<text xml:space="preserve" text-anchor="middle" x="105.84" y="-11.82" font-family="Times,serif" font-size="14.00">OutputWorkspace</text>
</g>
<!-- Divide -->
<g id="node4" class="node">
<title>Divide</title>
<path fill="lightskyblue" stroke="black" d="M192.22,-108C192.22,-108 19.47,-108 19.47,-108 13.47,-108 7.47,-102 7.47,-96 7.47,-96 7.47,-84 7.47,-84 7.47,-78 13.47,-72 19.47,-72 19.47,-72 192.22,-72 192.22,-72 198.22,-72 204.22,-78 204.22,-84 204.22,-84 204.22,-96 204.22,-96 204.22,-102 198.22,-108 192.22,-108"/>
<text xml:space="preserve" text-anchor="middle" x="105.84" y="-85.33" font-family="Helvetica,sans-Serif" font-size="14.00">Normalize to monitor/time</text>
</g>
<!-- LoadAndMerge&#45;&gt;Divide -->
<g id="edge2" class="edge">
<title>LoadAndMerge&#45;&gt;Divide</title>
<path fill="none" stroke="black" d="M105.84,-143.7C105.84,-136.41 105.84,-127.73 105.84,-119.54"/>
<polygon fill="black" stroke="black" points="109.34,-119.62 105.84,-109.62 102.34,-119.62 109.34,-119.62"/>
</g>
<!-- Divide&#45;&gt;OutputWorkspace -->
<g id="edge3" class="edge">
<title>Divide&#45;&gt;OutputWorkspace</title>
<path fill="none" stroke="black" d="M105.84,-71.7C105.84,-64.41 105.84,-55.73 105.84,-47.54"/>
<polygon fill="black" stroke="black" points="109.34,-47.62 105.84,-37.62 102.34,-47.62 109.34,-47.62"/>
</g>
</g>
</svg>
