<?xml version="1.0" encoding="UTF-8" standalone="no"?>
<!DOCTYPE svg PUBLIC "-//W3C//DTD SVG 1.1//EN"
 "http://www.w3.org/Graphics/SVG/1.1/DTD/svg11.dtd">
<!-- Generated by graphviz version 9.0.0 (20231125.0833)
 -->
<!-- Title: Quartz Pages: 1 -->
<svg width="939pt" height="404pt"
 viewBox="0.00 0.00 939.05 404.00" xmlns="http://www.w3.org/2000/svg" xmlns:xlink="http://www.w3.org/1999/xlink">
<g id="graph0" class="graph" transform="scale(1 1) rotate(0) translate(4 400)">
<title>Quartz</title>
<polygon fill="white" stroke="none" points="-4,4 -4,-400 935.05,-400 935.05,4 -4,4"/>
<!-- Run -->
<g id="node1" class="node">
<title>Run</title>
<ellipse fill="khaki" stroke="black" cx="30.16" cy="-378" rx="30.16" ry="18"/>
<text text-anchor="middle" x="30.16" y="-373.32" font-family="Helvetica,sans-Serif" font-size="14.00">Run</text>
</g>
<!-- LoadAndMerge -->
<g id="node7" class="node">
<title>LoadAndMerge</title>
<path fill="lightskyblue" stroke="black" d="M167.91,-324C167.91,-324 72.41,-324 72.41,-324 66.41,-324 60.41,-318 60.41,-312 60.41,-312 60.41,-300 60.41,-300 60.41,-294 66.41,-288 72.41,-288 72.41,-288 167.91,-288 167.91,-288 173.91,-288 179.91,-294 179.91,-300 179.91,-300 179.91,-312 179.91,-312 179.91,-318 173.91,-324 167.91,-324"/>
<text text-anchor="middle" x="120.16" y="-301.32" font-family="Helvetica,sans-Serif" font-size="14.00">LoadAndMerge</text>
</g>
<!-- Run&#45;&gt;LoadAndMerge -->
<g id="edge1" class="edge">
<title>Run&#45;&gt;LoadAndMerge</title>
<path fill="none" stroke="black" d="M47.94,-363.17C59.71,-354.02 75.45,-341.77 89.24,-331.05"/>
<polygon fill="black" stroke="black" points="91.01,-334.11 96.76,-325.2 86.72,-328.58 91.01,-334.11"/>
</g>
<!-- D7YIGPositionCalibration -->
<g id="node2" class="node">
<title>D7YIGPositionCalibration</title>
<ellipse fill="khaki" stroke="black" cx="210.16" cy="-378" rx="131.7" ry="18"/>
<text text-anchor="middle" x="210.16" y="-373.32" font-family="Helvetica,sans-Serif" font-size="14.00">D7YIGPositionCalibration</text>
</g>
<!-- D7YIGPositionCalibration&#45;&gt;LoadAndMerge -->
<g id="edge2" class="edge">
<title>D7YIGPositionCalibration&#45;&gt;LoadAndMerge</title>
<path fill="none" stroke="black" d="M188.38,-360.05C177.27,-351.41 163.56,-340.75 151.35,-331.26"/>
<polygon fill="black" stroke="black" points="153.61,-328.58 143.57,-325.2 149.31,-334.11 153.61,-328.58"/>
</g>
<!-- CadmiumWorkspace -->
<g id="node3" class="node">
<title>CadmiumWorkspace</title>
<ellipse fill="khaki" stroke="black" cx="348.16" cy="-234" rx="111.18" ry="18"/>
<text text-anchor="middle" x="348.16" y="-229.32" font-family="Helvetica,sans-Serif" font-size="14.00">CadmiumWorkspace</text>
</g>
<!-- Minus -->
<g id="node9" class="node">
<title>Minus</title>
<path fill="lightskyblue" stroke="black" d="M553.29,-180C553.29,-180 415.04,-180 415.04,-180 409.04,-180 403.04,-174 403.04,-168 403.04,-168 403.04,-156 403.04,-156 403.04,-150 409.04,-144 415.04,-144 415.04,-144 553.29,-144 553.29,-144 559.29,-144 565.29,-150 565.29,-156 565.29,-156 565.29,-168 565.29,-168 565.29,-174 559.29,-180 553.29,-180"/>
<text text-anchor="middle" x="484.16" y="-157.32" font-family="Helvetica,sans-Serif" font-size="14.00">Subtract background</text>
</g>
<!-- CadmiumWorkspace&#45;&gt;Minus -->
<g id="edge5" class="edge">
<title>CadmiumWorkspace&#45;&gt;Minus</title>
<path fill="none" stroke="black" d="M380.39,-216.41C398.24,-207.23 420.68,-195.68 440.12,-185.67"/>
<polygon fill="black" stroke="black" points="441.63,-188.83 448.92,-181.14 438.43,-182.6 441.63,-188.83"/>
</g>
<!-- EmptyContainerWorkspace -->
<g id="node4" class="node">
<title>EmptyContainerWorkspace</title>
<ellipse fill="khaki" stroke="black" cx="620.16" cy="-234" rx="143.28" ry="18"/>
<text text-anchor="middle" x="620.16" y="-229.32" font-family="Helvetica,sans-Serif" font-size="14.00">EmptyContainerWorkspace</text>
</g>
<!-- EmptyContainerWorkspace&#45;&gt;Minus -->
<g id="edge6" class="edge">
<title>EmptyContainerWorkspace&#45;&gt;Minus</title>
<path fill="none" stroke="black" d="M587.24,-216.05C569.38,-206.86 547.08,-195.38 527.79,-185.46"/>
<polygon fill="black" stroke="black" points="529.57,-182.43 519.07,-180.97 526.36,-188.66 529.57,-182.43"/>
</g>
<!-- Transmission -->
<g id="node5" class="node">
<title>Transmission</title>
<ellipse fill="khaki" stroke="black" cx="856.16" cy="-234" rx="74.88" ry="18"/>
<text text-anchor="middle" x="856.16" y="-229.32" font-family="Helvetica,sans-Serif" font-size="14.00">Transmission</text>
</g>
<!-- Transmission&#45;&gt;Minus -->
<g id="edge7" class="edge">
<title>Transmission&#45;&gt;Minus</title>
<path fill="none" stroke="black" d="M800.61,-221.61C791.13,-219.71 781.37,-217.78 772.16,-216 706.88,-203.39 633.14,-189.83 576.61,-179.58"/>
<polygon fill="black" stroke="black" points="577.5,-176.19 567.04,-177.85 576.25,-183.08 577.5,-176.19"/>
</g>
<!-- OutputWorkspace -->
<g id="node6" class="node">
<title>OutputWorkspace</title>
<polygon fill="grey" stroke="black" points="590.01,-36 421.63,-36 378.32,0 546.69,0 590.01,-36"/>
<text text-anchor="middle" x="484.16" y="-11.82" font-family="Times,serif" font-size="14.00">OutputWorkspace</text>
</g>
<!-- Divide -->
<g id="node8" class="node">
<title>Divide</title>
<path fill="lightskyblue" stroke="black" d="M206.54,-252C206.54,-252 33.79,-252 33.79,-252 27.79,-252 21.79,-246 21.79,-240 21.79,-240 21.79,-228 21.79,-228 21.79,-222 27.79,-216 33.79,-216 33.79,-216 206.54,-216 206.54,-216 212.54,-216 218.54,-222 218.54,-228 218.54,-228 218.54,-240 218.54,-240 218.54,-246 212.54,-252 206.54,-252"/>
<text text-anchor="middle" x="120.16" y="-229.32" font-family="Helvetica,sans-Serif" font-size="14.00">Normalize to monitor/time</text>
</g>
<!-- LoadAndMerge&#45;&gt;Divide -->
<g id="edge3" class="edge">
<title>LoadAndMerge&#45;&gt;Divide</title>
<path fill="none" stroke="black" d="M120.16,-287.7C120.16,-280.41 120.16,-271.73 120.16,-263.54"/>
<polygon fill="black" stroke="black" points="123.66,-263.62 120.16,-253.62 116.66,-263.62 123.66,-263.62"/>
</g>
<!-- Divide&#45;&gt;Minus -->
<g id="edge4" class="edge">
<title>Divide&#45;&gt;Minus</title>
<path fill="none" stroke="black" d="M211.08,-215.52C266.14,-204.93 336.19,-191.46 391.55,-180.81"/>
<polygon fill="black" stroke="black" points="392.13,-184.26 401.29,-178.94 390.81,-177.39 392.13,-184.26"/>
</g>
<!-- Divide2 -->
<g id="node10" class="node">
<title>Divide2</title>
<path fill="lightskyblue" stroke="black" d="M589.29,-108C589.29,-108 379.04,-108 379.04,-108 373.04,-108 367.04,-102 367.04,-96 367.04,-96 367.04,-84 367.04,-84 367.04,-78 373.04,-72 379.04,-72 379.04,-72 589.29,-72 589.29,-72 595.29,-72 601.29,-78 601.29,-84 601.29,-84 601.29,-96 601.29,-96 601.29,-102 595.29,-108 589.29,-108"/>
<text text-anchor="middle" x="484.16" y="-85.33" font-family="Helvetica,sans-Serif" font-size="14.00">Calculate polarising efficiencies</text>
</g>
<!-- Minus&#45;&gt;Divide2 -->
<g id="edge8" class="edge">
<title>Minus&#45;&gt;Divide2</title>
<path fill="none" stroke="black" d="M484.16,-143.7C484.16,-136.41 484.16,-127.73 484.16,-119.54"/>
<polygon fill="black" stroke="black" points="487.66,-119.62 484.16,-109.62 480.66,-119.62 487.66,-119.62"/>
</g>
<!-- Divide2&#45;&gt;OutputWorkspace -->
<g id="edge9" class="edge">
<title>Divide2&#45;&gt;OutputWorkspace</title>
<path fill="none" stroke="black" d="M484.16,-71.7C484.16,-64.41 484.16,-55.73 484.16,-47.54"/>
<polygon fill="black" stroke="black" points="487.66,-47.62 484.16,-37.62 480.66,-47.62 487.66,-47.62"/>
</g>
</g>
</svg>
