<?xml version="1.0" encoding="UTF-8" standalone="no"?>
<!DOCTYPE svg PUBLIC "-//W3C//DTD SVG 1.1//EN"
 "http://www.w3.org/Graphics/SVG/1.1/DTD/svg11.dtd">
<!-- Generated by graphviz version 13.1.1 (20250720.1534)
 -->
<!-- Title: Beam Pages: 1 -->
<svg width="572pt" height="332pt"
 viewBox="0.00 0.00 572.00 332.00" xmlns="http://www.w3.org/2000/svg" xmlns:xlink="http://www.w3.org/1999/xlink">
<g id="graph0" class="graph" transform="scale(1 1) rotate(0) translate(4 328)">
<title>Beam</title>
<polygon fill="white" stroke="none" points="-4,4 -4,-328 568.22,-328 568.22,4 -4,4"/>
<!-- Run -->
<g id="node1" class="node">
<title>Run</title>
<ellipse fill="khaki" stroke="black" cx="98.38" cy="-306" rx="30.16" ry="18"/>
<text xml:space="preserve" text-anchor="middle" x="98.38" y="-301.32" font-family="Helvetica,sans-Serif" font-size="14.00">Run</text>
</g>
<!-- LoadAndMerge -->
<g id="node4" class="node">
<title>LoadAndMerge</title>
<path fill="lightskyblue" stroke="black" d="M146.12,-252C146.12,-252 50.62,-252 50.62,-252 44.62,-252 38.62,-246 38.62,-240 38.62,-240 38.62,-228 38.62,-228 38.62,-222 44.62,-216 50.62,-216 50.62,-216 146.12,-216 146.12,-216 152.12,-216 158.12,-222 158.12,-228 158.12,-228 158.12,-240 158.12,-240 158.12,-246 152.12,-252 146.12,-252"/>
<text xml:space="preserve" text-anchor="middle" x="98.38" y="-229.32" font-family="Helvetica,sans-Serif" font-size="14.00">LoadAndMerge</text>
</g>
<!-- Run&#45;&gt;LoadAndMerge -->
<g id="edge1" class="edge">
<title>Run&#45;&gt;LoadAndMerge</title>
<path fill="none" stroke="black" d="M98.38,-287.7C98.38,-280.41 98.38,-271.73 98.38,-263.54"/>
<polygon fill="black" stroke="black" points="101.88,-263.62 98.38,-253.62 94.88,-263.62 101.88,-263.62"/>
</g>
<!-- CadmiumTransmissionWorkspace -->
<g id="node2" class="node">
<title>CadmiumTransmissionWorkspace</title>
<ellipse fill="khaki" stroke="black" cx="389.38" cy="-162" rx="174.84" ry="18"/>
<text xml:space="preserve" text-anchor="middle" x="389.38" y="-157.32" font-family="Helvetica,sans-Serif" font-size="14.00">CadmiumTransmissionWorkspace</text>
</g>
<!-- Minus -->
<g id="node6" class="node">
<title>Minus</title>
<path fill="lightskyblue" stroke="black" d="M260,-108C260,-108 226.75,-108 226.75,-108 220.75,-108 214.75,-102 214.75,-96 214.75,-96 214.75,-84 214.75,-84 214.75,-78 220.75,-72 226.75,-72 226.75,-72 260,-72 260,-72 266,-72 272,-78 272,-84 272,-84 272,-96 272,-96 272,-102 266,-108 260,-108"/>
<text xml:space="preserve" text-anchor="middle" x="243.38" y="-85.33" font-family="Helvetica,sans-Serif" font-size="14.00">Minus</text>
</g>
<!-- CadmiumTransmissionWorkspace&#45;&gt;Minus -->
<g id="edge4" class="edge">
<title>CadmiumTransmissionWorkspace&#45;&gt;Minus</title>
<path fill="none" stroke="black" d="M354.03,-144.05C332.32,-133.65 304.49,-120.3 282.17,-109.6"/>
<polygon fill="black" stroke="black" points="283.92,-106.56 273.39,-105.39 280.9,-112.87 283.92,-106.56"/>
</g>
<!-- OutputWorkspace -->
<g id="node3" class="node">
<title>OutputWorkspace</title>
<polygon fill="grey" stroke="black" points="349.22,-36 180.85,-36 137.53,0 305.9,0 349.22,-36"/>
<text xml:space="preserve" text-anchor="middle" x="243.38" y="-11.82" font-family="Times,serif" font-size="14.00">OutputWorkspace</text>
</g>
<!-- Divide -->
<g id="node5" class="node">
<title>Divide</title>
<path fill="lightskyblue" stroke="black" d="M184.75,-180C184.75,-180 12,-180 12,-180 6,-180 0,-174 0,-168 0,-168 0,-156 0,-156 0,-150 6,-144 12,-144 12,-144 184.75,-144 184.75,-144 190.75,-144 196.75,-150 196.75,-156 196.75,-156 196.75,-168 196.75,-168 196.75,-174 190.75,-180 184.75,-180"/>
<text xml:space="preserve" text-anchor="middle" x="98.38" y="-157.32" font-family="Helvetica,sans-Serif" font-size="14.00">Normalize to monitor/time</text>
</g>
<!-- LoadAndMerge&#45;&gt;Divide -->
<g id="edge2" class="edge">
<title>LoadAndMerge&#45;&gt;Divide</title>
<path fill="none" stroke="black" d="M98.38,-215.7C98.38,-208.41 98.38,-199.73 98.38,-191.54"/>
<polygon fill="black" stroke="black" points="101.88,-191.62 98.38,-181.62 94.88,-191.62 101.88,-191.62"/>
</g>
<!-- Divide&#45;&gt;Minus -->
<g id="edge3" class="edge">
<title>Divide&#45;&gt;Minus</title>
<path fill="none" stroke="black" d="M134.59,-143.52C155.78,-133.29 182.55,-120.36 204.23,-109.9"/>
<polygon fill="black" stroke="black" points="205.57,-113.14 213.05,-105.64 202.53,-106.83 205.57,-113.14"/>
</g>
<!-- Minus&#45;&gt;OutputWorkspace -->
<g id="edge5" class="edge">
<title>Minus&#45;&gt;OutputWorkspace</title>
<path fill="none" stroke="black" d="M243.38,-71.7C243.38,-64.41 243.38,-55.73 243.38,-47.54"/>
<polygon fill="black" stroke="black" points="246.88,-47.62 243.38,-37.62 239.88,-47.62 246.88,-47.62"/>
</g>
</g>
</svg>
