<?xml version="1.0" encoding="UTF-8" standalone="no"?>
<!DOCTYPE svg PUBLIC "-//W3C//DTD SVG 1.1//EN"
 "http://www.w3.org/Graphics/SVG/1.1/DTD/svg11.dtd">
<!-- Generated by graphviz version 7.0.5 (20221231.0122)
 -->
<!-- Title: Vanadium Pages: 1 -->
<svg width="1078pt" height="1196pt"
 viewBox="0.00 0.00 1078.27 1196.00" xmlns="http://www.w3.org/2000/svg" xmlns:xlink="http://www.w3.org/1999/xlink">
<g id="graph0" class="graph" transform="scale(1 1) rotate(0) translate(4 1192)">
<title>Vanadium</title>
<polygon fill="white" stroke="none" points="-4,4 -4,-1192 1074.27,-1192 1074.27,4 -4,4"/>
<!-- AverageCounts -->
<g id="node1" class="node">
<title>AverageCounts</title>
<polygon fill="limegreen" stroke="black" points="534.09,-252 421.81,-234 534.09,-216 646.36,-234 534.09,-252"/>
<text text-anchor="middle" x="534.09" y="-230.3" font-family="Helvetica,sans-Serif" font-size="14.00">AverageCounts</text>
</g>
<!-- Plus -->
<g id="node19" class="node">
<title>Plus</title>
<path fill="lightskyblue" stroke="black" d="M693.59,-180C693.59,-180 508.59,-180 508.59,-180 502.59,-180 496.59,-174 496.59,-168 496.59,-168 496.59,-156 496.59,-156 496.59,-150 502.59,-144 508.59,-144 508.59,-144 693.59,-144 693.59,-144 699.59,-144 705.59,-150 705.59,-156 705.59,-156 705.59,-168 705.59,-168 705.59,-174 699.59,-180 693.59,-180"/>
<text text-anchor="middle" x="601.09" y="-158.3" font-family="Helvetica,sans-Serif" font-size="14.00">Average polarization/2theta</text>
</g>
<!-- AverageCounts&#45;&gt;Plus -->
<g id="edge31" class="edge">
<title>AverageCounts&#45;&gt;Plus</title>
<path fill="none" stroke="black" d="M548.29,-218.15C556.58,-209.5 567.25,-198.35 576.82,-188.35"/>
<polygon fill="black" stroke="black" points="579.1,-191.03 583.49,-181.39 574.04,-186.19 579.1,-191.03"/>
</g>
<!-- Divide3 -->
<g id="node23" class="node">
<title>Divide3</title>
<path fill="lightskyblue" stroke="black" d="M565.09,-108C565.09,-108 503.09,-108 503.09,-108 497.09,-108 491.09,-102 491.09,-96 491.09,-96 491.09,-84 491.09,-84 491.09,-78 497.09,-72 503.09,-72 503.09,-72 565.09,-72 565.09,-72 571.09,-72 577.09,-78 577.09,-84 577.09,-84 577.09,-96 577.09,-96 577.09,-102 571.09,-108 565.09,-108"/>
<text text-anchor="middle" x="534.09" y="-86.3" font-family="Helvetica,sans-Serif" font-size="14.00">Normalize</text>
</g>
<!-- AverageCounts&#45;&gt;Divide3 -->
<g id="edge30" class="edge">
<title>AverageCounts&#45;&gt;Divide3</title>
<path fill="none" stroke="black" d="M516.59,-218.78C506.13,-209.1 493.8,-195.29 488.09,-180 482.49,-165.01 482.49,-158.99 488.09,-144 491.84,-133.94 498.46,-124.53 505.53,-116.51"/>
<polygon fill="black" stroke="black" points="507.86,-119.14 512.22,-109.48 502.79,-114.31 507.86,-119.14"/>
</g>
<!-- SelfAttenuationMethod -->
<g id="node2" class="node">
<title>SelfAttenuationMethod</title>
<polygon fill="limegreen" stroke="black" points="509.09,-684 348.38,-666 509.09,-648 669.79,-666 509.09,-684"/>
<text text-anchor="middle" x="509.09" y="-662.3" font-family="Helvetica,sans-Serif" font-size="14.00">SelfAttenuationMethod</text>
</g>
<!-- TimeOfFlight2 -->
<g id="node4" class="node">
<title>TimeOfFlight2</title>
<polygon fill="limegreen" stroke="black" points="545.09,-468 443.87,-450 545.09,-432 646.3,-450 545.09,-468"/>
<text text-anchor="middle" x="545.09" y="-446.3" font-family="Helvetica,sans-Serif" font-size="14.00">Time&#45;of&#45;flight</text>
</g>
<!-- SelfAttenuationMethod&#45;&gt;TimeOfFlight2 -->
<g id="edge23" class="edge">
<title>SelfAttenuationMethod&#45;&gt;TimeOfFlight2</title>
<path fill="none" stroke="black" d="M612.64,-659.13C731.3,-651.32 912.17,-635.69 933.09,-612 1024.75,-508.17 766.88,-469.79 627.64,-456.89"/>
<polygon fill="black" stroke="black" points="627.97,-453.41 617.69,-456 627.34,-460.38 627.97,-453.41"/>
</g>
<!-- SampleSelfAttenuationFactors -->
<g id="node11" class="node">
<title>SampleSelfAttenuationFactors</title>
<ellipse fill="khaki" stroke="black" cx="778.09" cy="-594" rx="145.67" ry="18"/>
<text text-anchor="middle" x="778.09" y="-590.3" font-family="Helvetica,sans-Serif" font-size="14.00">SampleSelfAttenuationFactors</text>
</g>
<!-- SelfAttenuationMethod&#45;&gt;SampleSelfAttenuationFactors -->
<g id="edge21" class="edge">
<title>SelfAttenuationMethod&#45;&gt;SampleSelfAttenuationFactors</title>
<path fill="none" stroke="black" d="M555.94,-652.81C597.56,-641.98 659,-625.99 706.72,-613.57"/>
<polygon fill="black" stroke="black" points="707.35,-617.02 716.15,-611.12 705.59,-610.25 707.35,-617.02"/>
</g>
<!-- Divide2 -->
<g id="node18" class="node">
<title>Divide2</title>
<path fill="lightskyblue" stroke="black" d="M403.09,-540C403.09,-540 251.09,-540 251.09,-540 245.09,-540 239.09,-534 239.09,-528 239.09,-528 239.09,-516 239.09,-516 239.09,-510 245.09,-504 251.09,-504 251.09,-504 403.09,-504 403.09,-504 409.09,-504 415.09,-510 415.09,-516 415.09,-516 415.09,-528 415.09,-528 415.09,-534 409.09,-540 403.09,-540"/>
<text text-anchor="middle" x="327.09" y="-518.3" font-family="Helvetica,sans-Serif" font-size="14.00">Divide by transmission</text>
</g>
<!-- SelfAttenuationMethod&#45;&gt;Divide2 -->
<g id="edge15" class="edge">
<title>SelfAttenuationMethod&#45;&gt;Divide2</title>
<path fill="none" stroke="black" d="M431.65,-656.25C401.37,-649.02 368.78,-635.87 347.09,-612 332.33,-595.77 327.69,-571.06 326.53,-551.79"/>
<polygon fill="black" stroke="black" points="330.03,-551.75 326.25,-541.85 323.04,-551.95 330.03,-551.75"/>
</g>
<!-- PaalmanPingsMonteCarloAbsorption -->
<g id="node20" class="node">
<title>PaalmanPingsMonteCarloAbsorption</title>
<path fill="lightskyblue" stroke="black" d="M286.59,-612C286.59,-612 43.59,-612 43.59,-612 37.59,-612 31.59,-606 31.59,-600 31.59,-600 31.59,-588 31.59,-588 31.59,-582 37.59,-576 43.59,-576 43.59,-576 286.59,-576 286.59,-576 292.59,-576 298.59,-582 298.59,-588 298.59,-588 298.59,-600 298.59,-600 298.59,-606 292.59,-612 286.59,-612"/>
<text text-anchor="middle" x="165.09" y="-590.3" font-family="Helvetica,sans-Serif" font-size="14.00">PaalmanPingsMonteCarloAbsorption</text>
</g>
<!-- SelfAttenuationMethod&#45;&gt;PaalmanPingsMonteCarloAbsorption -->
<g id="edge14" class="edge">
<title>SelfAttenuationMethod&#45;&gt;PaalmanPingsMonteCarloAbsorption</title>
<path fill="none" stroke="black" d="M453.82,-653.75C402.13,-643.24 323.81,-627.3 261.77,-614.67"/>
<polygon fill="black" stroke="black" points="262.76,-611.3 252.27,-612.74 261.37,-618.16 262.76,-611.3"/>
</g>
<!-- PaalmanPingsAbsorptionCorrection -->
<g id="node21" class="node">
<title>PaalmanPingsAbsorptionCorrection</title>
<path fill="lightskyblue" stroke="black" d="M602.59,-612C602.59,-612 367.59,-612 367.59,-612 361.59,-612 355.59,-606 355.59,-600 355.59,-600 355.59,-588 355.59,-588 355.59,-582 361.59,-576 367.59,-576 367.59,-576 602.59,-576 602.59,-576 608.59,-576 614.59,-582 614.59,-588 614.59,-588 614.59,-600 614.59,-600 614.59,-606 608.59,-612 602.59,-612"/>
<text text-anchor="middle" x="485.09" y="-590.3" font-family="Helvetica,sans-Serif" font-size="14.00">PaalmanPingsAbsorptionCorrection</text>
</g>
<!-- SelfAttenuationMethod&#45;&gt;PaalmanPingsAbsorptionCorrection -->
<g id="edge18" class="edge">
<title>SelfAttenuationMethod&#45;&gt;PaalmanPingsAbsorptionCorrection</title>
<path fill="none" stroke="black" d="M503.4,-648.41C500.81,-640.88 497.69,-631.75 494.75,-623.19"/>
<polygon fill="black" stroke="black" points="498.11,-622.2 491.56,-613.88 491.49,-624.47 498.11,-622.2"/>
</g>
<!-- TimeOfFlight1 -->
<g id="node3" class="node">
<title>TimeOfFlight1</title>
<polygon fill="limegreen" stroke="black" points="583.09,-900 481.87,-882 583.09,-864 684.3,-882 583.09,-900"/>
<text text-anchor="middle" x="583.09" y="-878.3" font-family="Helvetica,sans-Serif" font-size="14.00">Time&#45;of&#45;flight</text>
</g>
<!-- Multiply -->
<g id="node16" class="node">
<title>Multiply</title>
<path fill="lightskyblue" stroke="black" d="M601.59,-756C601.59,-756 416.59,-756 416.59,-756 410.59,-756 404.59,-750 404.59,-744 404.59,-744 404.59,-732 404.59,-732 404.59,-726 410.59,-720 416.59,-720 416.59,-720 601.59,-720 601.59,-720 607.59,-720 613.59,-726 613.59,-732 613.59,-732 613.59,-744 613.59,-744 613.59,-750 607.59,-756 601.59,-756"/>
<text text-anchor="middle" x="509.09" y="-734.3" font-family="Helvetica,sans-Serif" font-size="14.00">Correct polarising efficiency</text>
</g>
<!-- TimeOfFlight1&#45;&gt;Multiply -->
<g id="edge11" class="edge">
<title>TimeOfFlight1&#45;&gt;Multiply</title>
<path fill="none" stroke="black" d="M604.2,-867.29C616.61,-857.9 631.19,-844.23 638.09,-828 644.34,-813.28 646.99,-805.29 638.09,-792 629.16,-778.68 616.22,-768.71 601.94,-761.24"/>
<polygon fill="black" stroke="black" points="603.77,-758.23 593.24,-757.11 600.77,-764.56 603.77,-758.23"/>
</g>
<!-- FrameOverlapCorrection -->
<g id="node24" class="node">
<title>FrameOverlapCorrection</title>
<ellipse fill="lightgrey" stroke="black" cx="509.09" cy="-810" rx="120.48" ry="18"/>
<text text-anchor="middle" x="509.09" y="-806.3" font-family="Helvetica,sans-Serif" font-size="14.00">FrameOverlapCorrection</text>
</g>
<!-- TimeOfFlight1&#45;&gt;FrameOverlapCorrection -->
<g id="edge9" class="edge">
<title>TimeOfFlight1&#45;&gt;FrameOverlapCorrection</title>
<path fill="none" stroke="black" d="M567.75,-866.5C558.47,-857.71 546.37,-846.27 535.57,-836.06"/>
<polygon fill="black" stroke="black" points="538.04,-833.57 528.37,-829.24 533.23,-838.66 538.04,-833.57"/>
</g>
<!-- TimeOfFlight2&#45;&gt;AverageCounts -->
<g id="edge26" class="edge">
<title>TimeOfFlight2&#45;&gt;AverageCounts</title>
<path fill="none" stroke="black" d="M521.73,-435.81C507.99,-426.62 491.83,-412.98 484.09,-396 474.21,-374.34 492.19,-294.98 495.09,-288 499.39,-277.62 506.15,-267.38 512.84,-258.72"/>
<polygon fill="black" stroke="black" points="515.38,-261.14 518.99,-251.18 509.96,-256.71 515.38,-261.14"/>
</g>
<!-- EnergyEfficiencyCorrection -->
<g id="node25" class="node">
<title>EnergyEfficiencyCorrection</title>
<ellipse fill="lightgrey" stroke="black" cx="625.09" cy="-378" rx="131.88" ry="18"/>
<text text-anchor="middle" x="625.09" y="-374.3" font-family="Helvetica,sans-Serif" font-size="14.00">EnergyEfficiencyCorrection</text>
</g>
<!-- TimeOfFlight2&#45;&gt;EnergyEfficiencyCorrection -->
<g id="edge27" class="edge">
<title>TimeOfFlight2&#45;&gt;EnergyEfficiencyCorrection</title>
<path fill="none" stroke="black" d="M561.66,-434.5C571.8,-425.62 585.04,-414.04 596.8,-403.75"/>
<polygon fill="black" stroke="black" points="599.06,-406.42 604.28,-397.2 594.45,-401.15 599.06,-406.42"/>
</g>
<!-- Run -->
<g id="node5" class="node">
<title>Run</title>
<ellipse fill="khaki" stroke="black" cx="779.09" cy="-1170" rx="28.7" ry="18"/>
<text text-anchor="middle" x="779.09" y="-1166.3" font-family="Helvetica,sans-Serif" font-size="14.00">Run</text>
</g>
<!-- LoadAndMerge -->
<g id="node14" class="node">
<title>LoadAndMerge</title>
<path fill="lightskyblue" stroke="black" d="M911.09,-1116C911.09,-1116 815.09,-1116 815.09,-1116 809.09,-1116 803.09,-1110 803.09,-1104 803.09,-1104 803.09,-1092 803.09,-1092 803.09,-1086 809.09,-1080 815.09,-1080 815.09,-1080 911.09,-1080 911.09,-1080 917.09,-1080 923.09,-1086 923.09,-1092 923.09,-1092 923.09,-1104 923.09,-1104 923.09,-1110 917.09,-1116 911.09,-1116"/>
<text text-anchor="middle" x="863.09" y="-1094.3" font-family="Helvetica,sans-Serif" font-size="14.00">LoadAndMerge</text>
</g>
<!-- Run&#45;&gt;LoadAndMerge -->
<g id="edge1" class="edge">
<title>Run&#45;&gt;LoadAndMerge</title>
<path fill="none" stroke="black" d="M795.68,-1155.17C806.56,-1146.11 821.08,-1134.01 833.85,-1123.36"/>
<polygon fill="black" stroke="black" points="835.75,-1126.33 841.19,-1117.24 831.27,-1120.96 835.75,-1126.33"/>
</g>
<!-- D7YIGPositionCalibration -->
<g id="node6" class="node">
<title>D7YIGPositionCalibration</title>
<ellipse fill="khaki" stroke="black" cx="948.09" cy="-1170" rx="122.38" ry="18"/>
<text text-anchor="middle" x="948.09" y="-1166.3" font-family="Helvetica,sans-Serif" font-size="14.00">D7YIGPositionCalibration</text>
</g>
<!-- D7YIGPositionCalibration&#45;&gt;LoadAndMerge -->
<g id="edge2" class="edge">
<title>D7YIGPositionCalibration&#45;&gt;LoadAndMerge</title>
<path fill="none" stroke="black" d="M927.51,-1152.05C917.12,-1143.5 904.32,-1132.96 892.88,-1123.54"/>
<polygon fill="black" stroke="black" points="895.18,-1120.89 885.23,-1117.24 890.73,-1126.3 895.18,-1120.89"/>
</g>
<!-- CadmiumWorkspace -->
<g id="node7" class="node">
<title>CadmiumWorkspace</title>
<ellipse fill="khaki" stroke="black" cx="218.09" cy="-1026" rx="103.18" ry="18"/>
<text text-anchor="middle" x="218.09" y="-1022.3" font-family="Helvetica,sans-Serif" font-size="14.00">CadmiumWorkspace</text>
</g>
<!-- Minus -->
<g id="node17" class="node">
<title>Minus</title>
<path fill="lightskyblue" stroke="black" d="M652.59,-972C652.59,-972 513.59,-972 513.59,-972 507.59,-972 501.59,-966 501.59,-960 501.59,-960 501.59,-948 501.59,-948 501.59,-942 507.59,-936 513.59,-936 513.59,-936 652.59,-936 652.59,-936 658.59,-936 664.59,-942 664.59,-948 664.59,-948 664.59,-960 664.59,-960 664.59,-966 658.59,-972 652.59,-972"/>
<text text-anchor="middle" x="583.09" y="-950.3" font-family="Helvetica,sans-Serif" font-size="14.00">Subtract background</text>
</g>
<!-- CadmiumWorkspace&#45;&gt;Minus -->
<g id="edge5" class="edge">
<title>CadmiumWorkspace&#45;&gt;Minus</title>
<path fill="none" stroke="black" d="M285.46,-1012.08C342.88,-1001.07 426,-985.13 489.81,-972.89"/>
<polygon fill="black" stroke="black" points="490.44,-976.33 499.6,-971.01 489.12,-969.46 490.44,-976.33"/>
</g>
<!-- EmptyContainerWorkspace -->
<g id="node8" class="node">
<title>EmptyContainerWorkspace</title>
<ellipse fill="khaki" stroke="black" cx="473.09" cy="-1026" rx="133.48" ry="18"/>
<text text-anchor="middle" x="473.09" y="-1022.3" font-family="Helvetica,sans-Serif" font-size="14.00">EmptyContainerWorkspace</text>
</g>
<!-- EmptyContainerWorkspace&#45;&gt;Minus -->
<g id="edge6" class="edge">
<title>EmptyContainerWorkspace&#45;&gt;Minus</title>
<path fill="none" stroke="black" d="M499.71,-1008.05C513.69,-999.16 531.04,-988.12 546.28,-978.42"/>
<polygon fill="black" stroke="black" points="548.1,-981.41 554.66,-973.09 544.35,-975.5 548.1,-981.41"/>
</g>
<!-- QuartzWorkspace -->
<g id="node9" class="node">
<title>QuartzWorkspace</title>
<ellipse fill="khaki" stroke="black" cx="280.09" cy="-810" rx="90.98" ry="18"/>
<text text-anchor="middle" x="280.09" y="-806.3" font-family="Helvetica,sans-Serif" font-size="14.00">QuartzWorkspace</text>
</g>
<!-- QuartzWorkspace&#45;&gt;Multiply -->
<g id="edge12" class="edge">
<title>QuartzWorkspace&#45;&gt;Multiply</title>
<path fill="none" stroke="black" d="M328.09,-794.33C361.04,-784.25 405.22,-770.75 441.69,-759.6"/>
<polygon fill="black" stroke="black" points="442.26,-763.09 450.8,-756.82 440.21,-756.39 442.26,-763.09"/>
</g>
<!-- Transmission -->
<g id="node10" class="node">
<title>Transmission</title>
<ellipse fill="khaki" stroke="black" cx="694.09" cy="-1026" rx="69.59" ry="18"/>
<text text-anchor="middle" x="694.09" y="-1022.3" font-family="Helvetica,sans-Serif" font-size="14.00">Transmission</text>
</g>
<!-- Transmission&#45;&gt;Minus -->
<g id="edge7" class="edge">
<title>Transmission&#45;&gt;Minus</title>
<path fill="none" stroke="black" d="M668.62,-1008.94C654.31,-999.92 636.18,-988.49 620.31,-978.47"/>
<polygon fill="black" stroke="black" points="622.37,-975.64 612.05,-973.26 618.64,-981.56 622.37,-975.64"/>
</g>
<!-- ApplyPaalmanPingsCorrection -->
<g id="node22" class="node">
<title>ApplyPaalmanPingsCorrection</title>
<path fill="lightskyblue" stroke="black" d="M644.59,-540C644.59,-540 445.59,-540 445.59,-540 439.59,-540 433.59,-534 433.59,-528 433.59,-528 433.59,-516 433.59,-516 433.59,-510 439.59,-504 445.59,-504 445.59,-504 644.59,-504 644.59,-504 650.59,-504 656.59,-510 656.59,-516 656.59,-516 656.59,-528 656.59,-528 656.59,-534 650.59,-540 644.59,-540"/>
<text text-anchor="middle" x="545.09" y="-518.3" font-family="Helvetica,sans-Serif" font-size="14.00">ApplyPaalmanPingsCorrection</text>
</g>
<!-- SampleSelfAttenuationFactors&#45;&gt;ApplyPaalmanPingsCorrection -->
<g id="edge22" class="edge">
<title>SampleSelfAttenuationFactors&#45;&gt;ApplyPaalmanPingsCorrection</title>
<path fill="none" stroke="black" d="M724.34,-576.85C691.45,-566.97 649.06,-554.24 613.76,-543.63"/>
<polygon fill="black" stroke="black" points="615.08,-540.37 604.5,-540.85 613.07,-547.08 615.08,-540.37"/>
</g>
<!-- SampleAndEnvironmentProperties -->
<g id="node12" class="node">
<title>SampleAndEnvironmentProperties</title>
<ellipse fill="khaki" stroke="black" cx="165.09" cy="-666" rx="165.17" ry="18"/>
<text text-anchor="middle" x="165.09" y="-662.3" font-family="Helvetica,sans-Serif" font-size="14.00">SampleAndEnvironmentProperties</text>
</g>
<!-- SampleAndEnvironmentProperties&#45;&gt;PaalmanPingsMonteCarloAbsorption -->
<g id="edge16" class="edge">
<title>SampleAndEnvironmentProperties&#45;&gt;PaalmanPingsMonteCarloAbsorption</title>
<path fill="none" stroke="black" d="M165.09,-647.7C165.09,-640.41 165.09,-631.73 165.09,-623.54"/>
<polygon fill="black" stroke="black" points="168.59,-623.62 165.09,-613.62 161.59,-623.62 168.59,-623.62"/>
</g>
<!-- SampleAndEnvironmentProperties&#45;&gt;PaalmanPingsAbsorptionCorrection -->
<g id="edge19" class="edge">
<title>SampleAndEnvironmentProperties&#45;&gt;PaalmanPingsAbsorptionCorrection</title>
<path fill="none" stroke="black" d="M236.5,-649.38C283,-639.21 344.06,-625.85 394.03,-614.92"/>
<polygon fill="black" stroke="black" points="394.67,-618.36 403.69,-612.8 393.18,-611.52 394.67,-618.36"/>
</g>
<!-- OutputWorkspace -->
<g id="node13" class="node">
<title>OutputWorkspace</title>
<polygon fill="grey" stroke="black" points="642.86,-36 469.83,-36 425.32,0 598.34,0 642.86,-36"/>
<text text-anchor="middle" x="534.09" y="-14.3" font-family="Times,serif" font-size="14.00">OutputWorkspace</text>
</g>
<!-- Divide -->
<g id="node15" class="node">
<title>Divide</title>
<path fill="lightskyblue" stroke="black" d="M932.09,-1044C932.09,-1044 794.09,-1044 794.09,-1044 788.09,-1044 782.09,-1038 782.09,-1032 782.09,-1032 782.09,-1020 782.09,-1020 782.09,-1014 788.09,-1008 794.09,-1008 794.09,-1008 932.09,-1008 932.09,-1008 938.09,-1008 944.09,-1014 944.09,-1020 944.09,-1020 944.09,-1032 944.09,-1032 944.09,-1038 938.09,-1044 932.09,-1044"/>
<text text-anchor="middle" x="863.09" y="-1022.3" font-family="Helvetica,sans-Serif" font-size="14.00">Normalize to monitor</text>
</g>
<!-- LoadAndMerge&#45;&gt;Divide -->
<g id="edge3" class="edge">
<title>LoadAndMerge&#45;&gt;Divide</title>
<path fill="none" stroke="black" d="M863.09,-1079.7C863.09,-1072.41 863.09,-1063.73 863.09,-1055.54"/>
<polygon fill="black" stroke="black" points="866.59,-1055.62 863.09,-1045.62 859.59,-1055.62 866.59,-1055.62"/>
</g>
<!-- Divide&#45;&gt;Minus -->
<g id="edge4" class="edge">
<title>Divide&#45;&gt;Minus</title>
<path fill="none" stroke="black" d="M793.15,-1007.52C753.83,-997.69 704.58,-985.37 663.65,-975.14"/>
<polygon fill="black" stroke="black" points="664.63,-971.78 654.08,-972.75 662.93,-978.57 664.63,-971.78"/>
</g>
<!-- Multiply&#45;&gt;SelfAttenuationMethod -->
<g id="edge13" class="edge">
<title>Multiply&#45;&gt;SelfAttenuationMethod</title>
<path fill="none" stroke="black" d="M509.09,-719.7C509.09,-712.41 509.09,-703.73 509.09,-695.54"/>
<polygon fill="black" stroke="black" points="512.59,-695.62 509.09,-685.62 505.59,-695.62 512.59,-695.62"/>
</g>
<!-- Minus&#45;&gt;TimeOfFlight1 -->
<g id="edge8" class="edge">
<title>Minus&#45;&gt;TimeOfFlight1</title>
<path fill="none" stroke="black" d="M583.09,-935.7C583.09,-928.41 583.09,-919.73 583.09,-911.54"/>
<polygon fill="black" stroke="black" points="586.59,-911.62 583.09,-901.62 579.59,-911.62 586.59,-911.62"/>
</g>
<!-- Divide2&#45;&gt;TimeOfFlight2 -->
<g id="edge25" class="edge">
<title>Divide2&#45;&gt;TimeOfFlight2</title>
<path fill="none" stroke="black" d="M381.53,-503.52C417.84,-491.86 465.01,-476.71 499.36,-465.68"/>
<polygon fill="black" stroke="black" points="500.14,-469.11 508.6,-462.72 498,-462.44 500.14,-469.11"/>
</g>
<!-- Plus&#45;&gt;Divide3 -->
<g id="edge32" class="edge">
<title>Plus&#45;&gt;Divide3</title>
<path fill="none" stroke="black" d="M584.52,-143.7C576.65,-135.47 567.09,-125.48 558.42,-116.42"/>
<polygon fill="black" stroke="black" points="560.95,-114 551.5,-109.2 555.89,-118.84 560.95,-114"/>
</g>
<!-- PaalmanPingsMonteCarloAbsorption&#45;&gt;ApplyPaalmanPingsCorrection -->
<g id="edge17" class="edge">
<title>PaalmanPingsMonteCarloAbsorption&#45;&gt;ApplyPaalmanPingsCorrection</title>
<path fill="none" stroke="black" d="M260,-575.52C314.51,-565.48 383.09,-552.84 439.32,-542.48"/>
<polygon fill="black" stroke="black" points="439.71,-545.97 448.91,-540.72 438.44,-539.09 439.71,-545.97"/>
</g>
<!-- PaalmanPingsAbsorptionCorrection&#45;&gt;ApplyPaalmanPingsCorrection -->
<g id="edge20" class="edge">
<title>PaalmanPingsAbsorptionCorrection&#45;&gt;ApplyPaalmanPingsCorrection</title>
<path fill="none" stroke="black" d="M499.92,-575.7C506.89,-567.56 515.35,-557.69 523.06,-548.7"/>
<polygon fill="black" stroke="black" points="525.59,-551.12 529.44,-541.25 520.27,-546.57 525.59,-551.12"/>
</g>
<!-- ApplyPaalmanPingsCorrection&#45;&gt;TimeOfFlight2 -->
<g id="edge24" class="edge">
<title>ApplyPaalmanPingsCorrection&#45;&gt;TimeOfFlight2</title>
<path fill="none" stroke="black" d="M545.09,-503.7C545.09,-496.41 545.09,-487.73 545.09,-479.54"/>
<polygon fill="black" stroke="black" points="548.59,-479.62 545.09,-469.62 541.59,-479.62 548.59,-479.62"/>
</g>
<!-- Divide3&#45;&gt;OutputWorkspace -->
<g id="edge33" class="edge">
<title>Divide3&#45;&gt;OutputWorkspace</title>
<path fill="none" stroke="black" d="M534.09,-71.7C534.09,-64.41 534.09,-55.73 534.09,-47.54"/>
<polygon fill="black" stroke="black" points="537.59,-47.62 534.09,-37.62 530.59,-47.62 537.59,-47.62"/>
</g>
<!-- FrameOverlapCorrection&#45;&gt;Multiply -->
<g id="edge10" class="edge">
<title>FrameOverlapCorrection&#45;&gt;Multiply</title>
<path fill="none" stroke="black" d="M509.09,-791.7C509.09,-784.41 509.09,-775.73 509.09,-767.54"/>
<polygon fill="black" stroke="black" points="512.59,-767.62 509.09,-757.62 505.59,-767.62 512.59,-767.62"/>
</g>
<!-- ElasticPeakCalibration -->
<g id="node26" class="node">
<title>ElasticPeakCalibration</title>
<ellipse fill="lightgrey" stroke="black" cx="614.09" cy="-306" rx="110.48" ry="18"/>
<text text-anchor="middle" x="614.09" y="-302.3" font-family="Helvetica,sans-Serif" font-size="14.00">ElasticPeakCalibration</text>
</g>
<!-- EnergyEfficiencyCorrection&#45;&gt;ElasticPeakCalibration -->
<g id="edge28" class="edge">
<title>EnergyEfficiencyCorrection&#45;&gt;ElasticPeakCalibration</title>
<path fill="none" stroke="black" d="M622.37,-359.7C621.21,-352.32 619.82,-343.52 618.52,-335.25"/>
<polygon fill="black" stroke="black" points="622.02,-334.93 617.01,-325.6 615.1,-336.02 622.02,-334.93"/>
</g>
<!-- ElasticPeakCalibration&#45;&gt;AverageCounts -->
<g id="edge29" class="edge">
<title>ElasticPeakCalibration&#45;&gt;AverageCounts</title>
<path fill="none" stroke="black" d="M594.72,-288.05C584.03,-278.7 570.64,-266.99 559.16,-256.94"/>
<polygon fill="black" stroke="black" points="561.8,-254.6 551.97,-250.65 557.19,-259.87 561.8,-254.6"/>
</g>
</g>
</svg>
