<?xml version="1.0" encoding="UTF-8" standalone="no"?>
<!DOCTYPE svg PUBLIC "-//W3C//DTD SVG 1.1//EN"
 "http://www.w3.org/Graphics/SVG/1.1/DTD/svg11.dtd">
<!-- Generated by graphviz version 9.0.0 (20231125.0833)
 -->
<!-- Title: Sample Pages: 1 -->
<svg width="1190pt" height="1412pt"
 viewBox="0.00 0.00 1189.63 1412.00" xmlns="http://www.w3.org/2000/svg" xmlns:xlink="http://www.w3.org/1999/xlink">
<g id="graph0" class="graph" transform="scale(1 1) rotate(0) translate(4 1408)">
<title>Sample</title>
<polygon fill="white" stroke="none" points="-4,4 -4,-1408 1185.63,-1408 1185.63,4 -4,4"/>
<!-- AverageCounts -->
<g id="node1" class="node">
<title>AverageCounts</title>
<polygon fill="limegreen" stroke="black" points="797.94,-180 622.1,-162 797.94,-144 973.78,-162 797.94,-180"/>
<text text-anchor="middle" x="797.94" y="-157.32" font-family="Helvetica,sans-Serif" font-size="14.00">Average counts or sum</text>
</g>
<!-- OutputWorkspace -->
<g id="node16" class="node">
<title>OutputWorkspace</title>
<polygon fill="grey" stroke="black" points="903.79,-36 735.42,-36 692.1,0 860.47,0 903.79,-36"/>
<text text-anchor="middle" x="797.94" y="-11.82" font-family="Times,serif" font-size="14.00">OutputWorkspace</text>
</g>
<!-- AverageCounts&#45;&gt;OutputWorkspace -->
<g id="edge39" class="edge">
<title>AverageCounts&#45;&gt;OutputWorkspace</title>
<path fill="none" stroke="black" d="M852.33,-149.1C874.46,-141.3 897.87,-128.57 910.94,-108 919.53,-94.5 919.53,-85.5 910.94,-72 902.62,-58.9 890.11,-48.99 876.41,-41.49"/>
<polygon fill="black" stroke="black" points="878.13,-38.44 867.62,-37.13 875.02,-44.71 878.13,-38.44"/>
</g>
<!-- Plus -->
<g id="node25" class="node">
<title>Plus</title>
<path fill="lightskyblue" stroke="black" d="M889.94,-108C889.94,-108 705.94,-108 705.94,-108 699.94,-108 693.94,-102 693.94,-96 693.94,-96 693.94,-84 693.94,-84 693.94,-78 699.94,-72 705.94,-72 705.94,-72 889.94,-72 889.94,-72 895.94,-72 901.94,-78 901.94,-84 901.94,-84 901.94,-96 901.94,-96 901.94,-102 895.94,-108 889.94,-108"/>
<text text-anchor="middle" x="797.94" y="-85.33" font-family="Helvetica,sans-Serif" font-size="14.00">Average polarization/2theta</text>
</g>
<!-- AverageCounts&#45;&gt;Plus -->
<g id="edge38" class="edge">
<title>AverageCounts&#45;&gt;Plus</title>
<path fill="none" stroke="black" d="M797.94,-143.7C797.94,-136.41 797.94,-127.73 797.94,-119.54"/>
<polygon fill="black" stroke="black" points="801.44,-119.62 797.94,-109.62 794.44,-119.62 801.44,-119.62"/>
</g>
<!-- SumOverlappingTubes -->
<g id="node29" class="node">
<title>SumOverlappingTubes</title>
<path fill="lightskyblue" stroke="black" d="M663.69,-108C663.69,-108 514.19,-108 514.19,-108 508.19,-108 502.19,-102 502.19,-96 502.19,-96 502.19,-84 502.19,-84 502.19,-78 508.19,-72 514.19,-72 514.19,-72 663.69,-72 663.69,-72 669.69,-72 675.69,-78 675.69,-84 675.69,-84 675.69,-96 675.69,-96 675.69,-102 669.69,-108 663.69,-108"/>
<text text-anchor="middle" x="588.94" y="-85.33" font-family="Helvetica,sans-Serif" font-size="14.00">SumOverlappingTubes</text>
</g>
<!-- AverageCounts&#45;&gt;SumOverlappingTubes -->
<g id="edge37" class="edge">
<title>AverageCounts&#45;&gt;SumOverlappingTubes</title>
<path fill="none" stroke="black" d="M758.14,-147.67C727.98,-137.57 685.97,-123.5 651.35,-111.9"/>
<polygon fill="black" stroke="black" points="652.9,-108.73 642.3,-108.87 650.67,-115.37 652.9,-108.73"/>
</g>
<!-- SelfAttenuationMethod -->
<g id="node2" class="node">
<title>SelfAttenuationMethod</title>
<polygon fill="limegreen" stroke="black" points="558.94,-756 386.08,-738 558.94,-720 731.81,-738 558.94,-756"/>
<text text-anchor="middle" x="558.94" y="-733.33" font-family="Helvetica,sans-Serif" font-size="14.00">SelfAttenuationMethod</text>
</g>
<!-- TimeOfFlight2 -->
<g id="node5" class="node">
<title>TimeOfFlight2</title>
<polygon fill="limegreen" stroke="black" points="618.94,-540 510.81,-522 618.94,-504 727.08,-522 618.94,-540"/>
<text text-anchor="middle" x="618.94" y="-517.33" font-family="Helvetica,sans-Serif" font-size="14.00">Time&#45;of&#45;flight</text>
</g>
<!-- SelfAttenuationMethod&#45;&gt;TimeOfFlight2 -->
<g id="edge26" class="edge">
<title>SelfAttenuationMethod&#45;&gt;TimeOfFlight2</title>
<path fill="none" stroke="black" d="M676.59,-731.78C808.11,-724.7 1005.81,-709.89 1028.94,-684 1125.1,-576.39 856.71,-539.95 708.97,-528.22"/>
<polygon fill="black" stroke="black" points="709.42,-524.74 699.18,-527.47 708.89,-531.72 709.42,-524.74"/>
</g>
<!-- PaalmanPingsMonteCarloAbsorption -->
<g id="node13" class="node">
<title>PaalmanPingsMonteCarloAbsorption</title>
<ellipse fill="khaki" stroke="black" cx="186.94" cy="-666" rx="186.94" ry="18"/>
<text text-anchor="middle" x="186.94" y="-661.33" font-family="Helvetica,sans-Serif" font-size="14.00">PaalmanPingsMonteCarloAbsorption</text>
</g>
<!-- SelfAttenuationMethod&#45;&gt;PaalmanPingsMonteCarloAbsorption -->
<g id="edge17" class="edge">
<title>SelfAttenuationMethod&#45;&gt;PaalmanPingsMonteCarloAbsorption</title>
<path fill="none" stroke="black" d="M499.18,-725.75C440.32,-714.68 349.55,-697.6 281.02,-684.7"/>
<polygon fill="black" stroke="black" points="281.75,-681.28 271.27,-682.87 280.45,-688.16 281.75,-681.28"/>
</g>
<!-- PaalmanPingsAbsorptionCorrection -->
<g id="node26" class="node">
<title>PaalmanPingsAbsorptionCorrection</title>
<path fill="lightskyblue" stroke="black" d="M676.07,-684C676.07,-684 441.82,-684 441.82,-684 435.82,-684 429.82,-678 429.82,-672 429.82,-672 429.82,-660 429.82,-660 429.82,-654 435.82,-648 441.82,-648 441.82,-648 676.07,-648 676.07,-648 682.07,-648 688.07,-654 688.07,-660 688.07,-660 688.07,-672 688.07,-672 688.07,-678 682.07,-684 676.07,-684"/>
<text text-anchor="middle" x="558.94" y="-661.33" font-family="Helvetica,sans-Serif" font-size="14.00">PaalmanPingsAbsorptionCorrection</text>
</g>
<!-- SelfAttenuationMethod&#45;&gt;PaalmanPingsAbsorptionCorrection -->
<g id="edge21" class="edge">
<title>SelfAttenuationMethod&#45;&gt;PaalmanPingsAbsorptionCorrection</title>
<path fill="none" stroke="black" d="M558.94,-719.7C558.94,-712.41 558.94,-703.73 558.94,-695.54"/>
<polygon fill="black" stroke="black" points="562.44,-695.62 558.94,-685.62 555.44,-695.62 562.44,-695.62"/>
</g>
<!-- Divide2 -->
<g id="node28" class="node">
<title>Divide2</title>
<path fill="lightskyblue" stroke="black" d="M477.44,-612C477.44,-612 326.44,-612 326.44,-612 320.44,-612 314.44,-606 314.44,-600 314.44,-600 314.44,-588 314.44,-588 314.44,-582 320.44,-576 326.44,-576 326.44,-576 477.44,-576 477.44,-576 483.44,-576 489.44,-582 489.44,-588 489.44,-588 489.44,-600 489.44,-600 489.44,-606 483.44,-612 477.44,-612"/>
<text text-anchor="middle" x="401.94" y="-589.33" font-family="Helvetica,sans-Serif" font-size="14.00">Divide by transmission</text>
</g>
<!-- SelfAttenuationMethod&#45;&gt;Divide2 -->
<g id="edge18" class="edge">
<title>SelfAttenuationMethod&#45;&gt;Divide2</title>
<path fill="none" stroke="black" d="M494.8,-726.3C468.37,-718.73 439.62,-705.85 420.94,-684 406.73,-667.37 402.33,-642.69 401.29,-623.54"/>
<polygon fill="black" stroke="black" points="404.8,-623.59 401.06,-613.68 397.8,-623.76 404.8,-623.59"/>
</g>
<!-- SampleSelfAttenuationFactors -->
<g id="node31" class="node">
<title>SampleSelfAttenuationFactors</title>
<ellipse fill="lightgrey" stroke="black" cx="862.94" cy="-666" rx="156.96" ry="18"/>
<text text-anchor="middle" x="862.94" y="-661.33" font-family="Helvetica,sans-Serif" font-size="14.00">SampleSelfAttenuationFactors</text>
</g>
<!-- SelfAttenuationMethod&#45;&gt;SampleSelfAttenuationFactors -->
<g id="edge24" class="edge">
<title>SelfAttenuationMethod&#45;&gt;SampleSelfAttenuationFactors</title>
<path fill="none" stroke="black" d="M611.2,-724.97C658.77,-714.01 729.67,-697.69 784.12,-685.15"/>
<polygon fill="black" stroke="black" points="784.69,-688.61 793.65,-682.96 783.12,-681.79 784.69,-688.61"/>
</g>
<!-- SingleCrystal -->
<g id="node3" class="node">
<title>SingleCrystal</title>
<polygon fill="limegreen" stroke="black" points="926.94,-1260 820.3,-1242 926.94,-1224 1033.59,-1242 926.94,-1260"/>
<text text-anchor="middle" x="926.94" y="-1237.33" font-family="Helvetica,sans-Serif" font-size="14.00">SingleCrystal</text>
</g>
<!-- Divide -->
<g id="node18" class="node">
<title>Divide</title>
<path fill="lightskyblue" stroke="black" d="M1014.32,-1116C1014.32,-1116 841.57,-1116 841.57,-1116 835.57,-1116 829.57,-1110 829.57,-1104 829.57,-1104 829.57,-1092 829.57,-1092 829.57,-1086 835.57,-1080 841.57,-1080 841.57,-1080 1014.32,-1080 1014.32,-1080 1020.32,-1080 1026.32,-1086 1026.32,-1092 1026.32,-1092 1026.32,-1104 1026.32,-1104 1026.32,-1110 1020.32,-1116 1014.32,-1116"/>
<text text-anchor="middle" x="927.94" y="-1093.33" font-family="Helvetica,sans-Serif" font-size="14.00">Normalize to monitor/time</text>
</g>
<!-- SingleCrystal&#45;&gt;Divide -->
<g id="edge4" class="edge">
<title>SingleCrystal&#45;&gt;Divide</title>
<path fill="none" stroke="black" d="M915.46,-1225.7C908.6,-1215.58 900.55,-1201.7 896.94,-1188 892.87,-1172.53 892.76,-1167.44 896.94,-1152 899.41,-1142.88 903.89,-1133.73 908.68,-1125.66"/>
<polygon fill="black" stroke="black" points="911.54,-1127.68 913.98,-1117.37 905.65,-1123.91 911.54,-1127.68"/>
</g>
<!-- MergeOmegaScan -->
<g id="node19" class="node">
<title>MergeOmegaScan</title>
<path fill="lightskyblue" stroke="black" d="M1036.32,-1188C1036.32,-1188 917.57,-1188 917.57,-1188 911.57,-1188 905.57,-1182 905.57,-1176 905.57,-1176 905.57,-1164 905.57,-1164 905.57,-1158 911.57,-1152 917.57,-1152 917.57,-1152 1036.32,-1152 1036.32,-1152 1042.32,-1152 1048.32,-1158 1048.32,-1164 1048.32,-1164 1048.32,-1176 1048.32,-1176 1048.32,-1182 1042.32,-1188 1036.32,-1188"/>
<text text-anchor="middle" x="976.94" y="-1165.33" font-family="Helvetica,sans-Serif" font-size="14.00">MergeOmegaScan</text>
</g>
<!-- SingleCrystal&#45;&gt;MergeOmegaScan -->
<g id="edge5" class="edge">
<title>SingleCrystal&#45;&gt;MergeOmegaScan</title>
<path fill="none" stroke="black" d="M938.04,-1225.46C943.85,-1217.33 951.12,-1207.15 957.81,-1197.79"/>
<polygon fill="black" stroke="black" points="960.63,-1199.86 963.59,-1189.69 954.93,-1195.8 960.63,-1199.86"/>
</g>
<!-- TimeOfFlight1 -->
<g id="node4" class="node">
<title>TimeOfFlight1</title>
<polygon fill="limegreen" stroke="black" points="618.94,-972 510.81,-954 618.94,-936 727.08,-954 618.94,-972"/>
<text text-anchor="middle" x="618.94" y="-949.33" font-family="Helvetica,sans-Serif" font-size="14.00">Time&#45;of&#45;flight</text>
</g>
<!-- Multiply -->
<g id="node20" class="node">
<title>Multiply</title>
<path fill="lightskyblue" stroke="black" d="M651.32,-828C651.32,-828 466.57,-828 466.57,-828 460.57,-828 454.57,-822 454.57,-816 454.57,-816 454.57,-804 454.57,-804 454.57,-798 460.57,-792 466.57,-792 466.57,-792 651.32,-792 651.32,-792 657.32,-792 663.32,-798 663.32,-804 663.32,-804 663.32,-816 663.32,-816 663.32,-822 657.32,-828 651.32,-828"/>
<text text-anchor="middle" x="558.94" y="-805.33" font-family="Helvetica,sans-Serif" font-size="14.00">Correct polarising efficiency</text>
</g>
<!-- TimeOfFlight1&#45;&gt;Multiply -->
<g id="edge14" class="edge">
<title>TimeOfFlight1&#45;&gt;Multiply</title>
<path fill="none" stroke="black" d="M634.48,-938.31C651.65,-920.24 674.99,-888.89 659.94,-864 652.19,-851.17 640.19,-841.3 627.13,-833.75"/>
<polygon fill="black" stroke="black" points="628.81,-830.68 618.33,-829.12 625.56,-836.87 628.81,-830.68"/>
</g>
<!-- FrameOverlapCorrection -->
<g id="node21" class="node">
<title>FrameOverlapCorrection</title>
<path fill="lightskyblue" stroke="black" d="M638.94,-900C638.94,-900 478.94,-900 478.94,-900 472.94,-900 466.94,-894 466.94,-888 466.94,-888 466.94,-876 466.94,-876 466.94,-870 472.94,-864 478.94,-864 478.94,-864 638.94,-864 638.94,-864 644.94,-864 650.94,-870 650.94,-876 650.94,-876 650.94,-888 650.94,-888 650.94,-894 644.94,-900 638.94,-900"/>
<text text-anchor="middle" x="558.94" y="-877.33" font-family="Helvetica,sans-Serif" font-size="14.00">FrameOverlapCorrection</text>
</g>
<!-- TimeOfFlight1&#45;&gt;FrameOverlapCorrection -->
<g id="edge12" class="edge">
<title>TimeOfFlight1&#45;&gt;FrameOverlapCorrection</title>
<path fill="none" stroke="black" d="M605.93,-937.81C598.64,-929.31 589.37,-918.49 580.99,-908.72"/>
<polygon fill="black" stroke="black" points="583.77,-906.59 574.61,-901.28 578.46,-911.15 583.77,-906.59"/>
</g>
<!-- TimeOfFlight2&#45;&gt;AverageCounts -->
<g id="edge29" class="edge">
<title>TimeOfFlight2&#45;&gt;AverageCounts</title>
<path fill="none" stroke="black" d="M612.97,-504.64C603.96,-478.47 587.94,-425.43 587.94,-379 587.94,-379 587.94,-379 587.94,-305 587.94,-234.21 670.84,-196.32 732.47,-177.93"/>
<polygon fill="black" stroke="black" points="733.21,-181.36 741.86,-175.24 731.29,-174.63 733.21,-181.36"/>
</g>
<!-- FindEPP -->
<g id="node30" class="node">
<title>FindEPP</title>
<path fill="lightskyblue" stroke="black" d="M872.94,-468C872.94,-468 826.94,-468 826.94,-468 820.94,-468 814.94,-462 814.94,-456 814.94,-456 814.94,-444 814.94,-444 814.94,-438 820.94,-432 826.94,-432 826.94,-432 872.94,-432 872.94,-432 878.94,-432 884.94,-438 884.94,-444 884.94,-444 884.94,-456 884.94,-456 884.94,-462 878.94,-468 872.94,-468"/>
<text text-anchor="middle" x="849.94" y="-445.32" font-family="Helvetica,sans-Serif" font-size="14.00">FindEPP</text>
</g>
<!-- TimeOfFlight2&#45;&gt;FindEPP -->
<g id="edge30" class="edge">
<title>TimeOfFlight2&#45;&gt;FindEPP</title>
<path fill="none" stroke="black" d="M656.06,-509.75C696.3,-497.56 760.58,-478.08 803.98,-464.93"/>
<polygon fill="black" stroke="black" points="804.81,-468.33 813.37,-462.08 802.78,-461.63 804.81,-468.33"/>
</g>
<!-- ConvertToEnergy -->
<g id="node6" class="node">
<title>ConvertToEnergy</title>
<polygon fill="limegreen" stroke="black" points="1048.94,-396 916.26,-378 1048.94,-360 1181.63,-378 1048.94,-396"/>
<text text-anchor="middle" x="1048.94" y="-373.32" font-family="Helvetica,sans-Serif" font-size="14.00">ConvertToEnergy</text>
</g>
<!-- ConvertToEnergy&#45;&gt;AverageCounts -->
<g id="edge36" class="edge">
<title>ConvertToEnergy&#45;&gt;AverageCounts</title>
<path fill="none" stroke="black" d="M1038.57,-361.4C1017.24,-330.32 965.61,-259.86 907.94,-216 889.28,-201.8 866.21,-189.98 846.02,-181.13"/>
<polygon fill="black" stroke="black" points="847.42,-177.92 836.85,-177.24 844.69,-184.37 847.42,-177.92"/>
</g>
<!-- ElasticPeakCalibration -->
<g id="node23" class="node">
<title>ElasticPeakCalibration</title>
<path fill="lightskyblue" stroke="black" d="M870.44,-324C870.44,-324 725.44,-324 725.44,-324 719.44,-324 713.44,-318 713.44,-312 713.44,-312 713.44,-300 713.44,-300 713.44,-294 719.44,-288 725.44,-288 725.44,-288 870.44,-288 870.44,-288 876.44,-288 882.44,-294 882.44,-300 882.44,-300 882.44,-312 882.44,-312 882.44,-318 876.44,-324 870.44,-324"/>
<text text-anchor="middle" x="797.94" y="-301.32" font-family="Helvetica,sans-Serif" font-size="14.00">ElasticPeakCalibration</text>
</g>
<!-- ConvertToEnergy&#45;&gt;ElasticPeakCalibration -->
<g id="edge33" class="edge">
<title>ConvertToEnergy&#45;&gt;ElasticPeakCalibration</title>
<path fill="none" stroke="black" d="M1006.93,-365.28C970.01,-354.99 915.44,-339.77 871.32,-327.46"/>
<polygon fill="black" stroke="black" points="872.38,-324.12 861.8,-324.81 870.5,-330.87 872.38,-324.12"/>
</g>
<!-- Run -->
<g id="node7" class="node">
<title>Run</title>
<ellipse fill="khaki" stroke="black" cx="836.94" cy="-1386" rx="30.16" ry="18"/>
<text text-anchor="middle" x="836.94" y="-1381.33" font-family="Helvetica,sans-Serif" font-size="14.00">Run</text>
</g>
<!-- LoadAndMerge -->
<g id="node17" class="node">
<title>LoadAndMerge</title>
<path fill="lightskyblue" stroke="black" d="M974.69,-1332C974.69,-1332 879.19,-1332 879.19,-1332 873.19,-1332 867.19,-1326 867.19,-1320 867.19,-1320 867.19,-1308 867.19,-1308 867.19,-1302 873.19,-1296 879.19,-1296 879.19,-1296 974.69,-1296 974.69,-1296 980.69,-1296 986.69,-1302 986.69,-1308 986.69,-1308 986.69,-1320 986.69,-1320 986.69,-1326 980.69,-1332 974.69,-1332"/>
<text text-anchor="middle" x="926.94" y="-1309.33" font-family="Helvetica,sans-Serif" font-size="14.00">LoadAndMerge</text>
</g>
<!-- Run&#45;&gt;LoadAndMerge -->
<g id="edge1" class="edge">
<title>Run&#45;&gt;LoadAndMerge</title>
<path fill="none" stroke="black" d="M854.73,-1371.17C866.49,-1362.02 882.24,-1349.77 896.02,-1339.05"/>
<polygon fill="black" stroke="black" points="897.79,-1342.11 903.54,-1333.2 893.5,-1336.58 897.79,-1342.11"/>
</g>
<!-- D7YIGPositionCalibration -->
<g id="node8" class="node">
<title>D7YIGPositionCalibration</title>
<ellipse fill="khaki" stroke="black" cx="1016.94" cy="-1386" rx="131.7" ry="18"/>
<text text-anchor="middle" x="1016.94" y="-1381.33" font-family="Helvetica,sans-Serif" font-size="14.00">D7YIGPositionCalibration</text>
</g>
<!-- D7YIGPositionCalibration&#45;&gt;LoadAndMerge -->
<g id="edge2" class="edge">
<title>D7YIGPositionCalibration&#45;&gt;LoadAndMerge</title>
<path fill="none" stroke="black" d="M995.16,-1368.05C984.05,-1359.41 970.34,-1348.75 958.13,-1339.26"/>
<polygon fill="black" stroke="black" points="960.39,-1336.58 950.35,-1333.2 956.09,-1342.11 960.39,-1336.58"/>
</g>
<!-- CadmiumWorkspace -->
<g id="node9" class="node">
<title>CadmiumWorkspace</title>
<ellipse fill="khaki" stroke="black" cx="228.94" cy="-1098" rx="111.18" ry="18"/>
<text text-anchor="middle" x="228.94" y="-1093.33" font-family="Helvetica,sans-Serif" font-size="14.00">CadmiumWorkspace</text>
</g>
<!-- Minus -->
<g id="node24" class="node">
<title>Minus</title>
<path fill="lightskyblue" stroke="black" d="M688.07,-1044C688.07,-1044 549.82,-1044 549.82,-1044 543.82,-1044 537.82,-1038 537.82,-1032 537.82,-1032 537.82,-1020 537.82,-1020 537.82,-1014 543.82,-1008 549.82,-1008 549.82,-1008 688.07,-1008 688.07,-1008 694.07,-1008 700.07,-1014 700.07,-1020 700.07,-1020 700.07,-1032 700.07,-1032 700.07,-1038 694.07,-1044 688.07,-1044"/>
<text text-anchor="middle" x="618.94" y="-1021.33" font-family="Helvetica,sans-Serif" font-size="14.00">Subtract background</text>
</g>
<!-- CadmiumWorkspace&#45;&gt;Minus -->
<g id="edge8" class="edge">
<title>CadmiumWorkspace&#45;&gt;Minus</title>
<path fill="none" stroke="black" d="M301.39,-1084C364.82,-1072.61 457.36,-1056 526.19,-1043.65"/>
<polygon fill="black" stroke="black" points="526.74,-1047.11 535.97,-1041.89 525.5,-1040.22 526.74,-1047.11"/>
</g>
<!-- EmptyContainerWorkspace -->
<g id="node10" class="node">
<title>EmptyContainerWorkspace</title>
<ellipse fill="khaki" stroke="black" cx="500.94" cy="-1098" rx="143.28" ry="18"/>
<text text-anchor="middle" x="500.94" y="-1093.33" font-family="Helvetica,sans-Serif" font-size="14.00">EmptyContainerWorkspace</text>
</g>
<!-- EmptyContainerWorkspace&#45;&gt;Minus -->
<g id="edge9" class="edge">
<title>EmptyContainerWorkspace&#45;&gt;Minus</title>
<path fill="none" stroke="black" d="M529.51,-1080.05C544.65,-1071.07 563.47,-1059.91 579.93,-1050.14"/>
<polygon fill="black" stroke="black" points="581.71,-1053.16 588.52,-1045.05 578.14,-1047.14 581.71,-1053.16"/>
</g>
<!-- QuartzWorkspace -->
<g id="node11" class="node">
<title>QuartzWorkspace</title>
<ellipse fill="khaki" stroke="black" cx="350.94" cy="-882" rx="97.51" ry="18"/>
<text text-anchor="middle" x="350.94" y="-877.33" font-family="Helvetica,sans-Serif" font-size="14.00">QuartzWorkspace</text>
</g>
<!-- QuartzWorkspace&#45;&gt;Multiply -->
<g id="edge15" class="edge">
<title>QuartzWorkspace&#45;&gt;Multiply</title>
<path fill="none" stroke="black" d="M396.59,-865.64C425.92,-855.77 464.41,-842.81 496.55,-832"/>
<polygon fill="black" stroke="black" points="497.39,-835.41 505.75,-828.9 495.15,-828.77 497.39,-835.41"/>
</g>
<!-- Transmission -->
<g id="node12" class="node">
<title>Transmission</title>
<ellipse fill="khaki" stroke="black" cx="736.94" cy="-1098" rx="74.88" ry="18"/>
<text text-anchor="middle" x="736.94" y="-1093.33" font-family="Helvetica,sans-Serif" font-size="14.00">Transmission</text>
</g>
<!-- Transmission&#45;&gt;Minus -->
<g id="edge10" class="edge">
<title>Transmission&#45;&gt;Minus</title>
<path fill="none" stroke="black" d="M709.58,-1080.76C694.21,-1071.65 674.78,-1060.12 657.85,-1050.08"/>
<polygon fill="black" stroke="black" points="659.91,-1047.23 649.53,-1045.14 656.34,-1053.26 659.91,-1047.23"/>
</g>
<!-- ApplyPaalmanPingsCorrection -->
<g id="node27" class="node">
<title>ApplyPaalmanPingsCorrection</title>
<path fill="lightskyblue" stroke="black" d="M718.07,-612C718.07,-612 519.82,-612 519.82,-612 513.82,-612 507.82,-606 507.82,-600 507.82,-600 507.82,-588 507.82,-588 507.82,-582 513.82,-576 519.82,-576 519.82,-576 718.07,-576 718.07,-576 724.07,-576 730.07,-582 730.07,-588 730.07,-588 730.07,-600 730.07,-600 730.07,-606 724.07,-612 718.07,-612"/>
<text text-anchor="middle" x="618.94" y="-589.33" font-family="Helvetica,sans-Serif" font-size="14.00">ApplyPaalmanPingsCorrection</text>
</g>
<!-- PaalmanPingsMonteCarloAbsorption&#45;&gt;ApplyPaalmanPingsCorrection -->
<g id="edge20" class="edge">
<title>PaalmanPingsMonteCarloAbsorption&#45;&gt;ApplyPaalmanPingsCorrection</title>
<path fill="none" stroke="black" d="M279.88,-649.94C344.38,-639.49 430.84,-625.48 500.31,-614.22"/>
<polygon fill="black" stroke="black" points="500.51,-617.74 509.82,-612.68 499.39,-610.83 500.51,-617.74"/>
</g>
<!-- SampleAndEnvironmentProperties -->
<g id="node14" class="node">
<title>SampleAndEnvironmentProperties</title>
<ellipse fill="khaki" stroke="black" cx="188.94" cy="-738" rx="178" ry="18"/>
<text text-anchor="middle" x="188.94" y="-733.33" font-family="Helvetica,sans-Serif" font-size="14.00">SampleAndEnvironmentProperties</text>
</g>
<!-- SampleAndEnvironmentProperties&#45;&gt;PaalmanPingsMonteCarloAbsorption -->
<g id="edge19" class="edge">
<title>SampleAndEnvironmentProperties&#45;&gt;PaalmanPingsMonteCarloAbsorption</title>
<path fill="none" stroke="black" d="M188.45,-719.7C188.24,-712.41 187.99,-703.73 187.76,-695.54"/>
<polygon fill="black" stroke="black" points="191.26,-695.51 187.48,-685.62 184.26,-695.71 191.26,-695.51"/>
</g>
<!-- SampleAndEnvironmentProperties&#45;&gt;PaalmanPingsAbsorptionCorrection -->
<g id="edge22" class="edge">
<title>SampleAndEnvironmentProperties&#45;&gt;PaalmanPingsAbsorptionCorrection</title>
<path fill="none" stroke="black" d="M270.6,-721.55C325.08,-711.24 397.17,-697.61 455.63,-686.55"/>
<polygon fill="black" stroke="black" points="456.1,-690.02 465.27,-684.72 454.8,-683.14 456.1,-690.02"/>
</g>
<!-- ElasticChannelsWorkspace -->
<g id="node15" class="node">
<title>ElasticChannelsWorkspace</title>
<ellipse fill="khaki" stroke="black" cx="756.94" cy="-378" rx="141.17" ry="18"/>
<text text-anchor="middle" x="756.94" y="-373.32" font-family="Helvetica,sans-Serif" font-size="14.00">ElasticChannelsWorkspace</text>
</g>
<!-- ElasticChannelsWorkspace&#45;&gt;ElasticPeakCalibration -->
<g id="edge31" class="edge">
<title>ElasticChannelsWorkspace&#45;&gt;ElasticPeakCalibration</title>
<path fill="none" stroke="black" d="M767.08,-359.7C771.65,-351.9 777.15,-342.51 782.23,-333.83"/>
<polygon fill="black" stroke="black" points="785.13,-335.81 787.16,-325.41 779.09,-332.27 785.13,-335.81"/>
</g>
<!-- LoadAndMerge&#45;&gt;SingleCrystal -->
<g id="edge3" class="edge">
<title>LoadAndMerge&#45;&gt;SingleCrystal</title>
<path fill="none" stroke="black" d="M926.94,-1295.7C926.94,-1288.41 926.94,-1279.73 926.94,-1271.54"/>
<polygon fill="black" stroke="black" points="930.44,-1271.62 926.94,-1261.62 923.44,-1271.62 930.44,-1271.62"/>
</g>
<!-- Divide&#45;&gt;Minus -->
<g id="edge7" class="edge">
<title>Divide&#45;&gt;Minus</title>
<path fill="none" stroke="black" d="M850.77,-1079.52C807.09,-1069.62 752.3,-1057.21 706.95,-1046.94"/>
<polygon fill="black" stroke="black" points="707.94,-1043.57 697.42,-1044.78 706.4,-1050.4 707.94,-1043.57"/>
</g>
<!-- MergeOmegaScan&#45;&gt;Divide -->
<g id="edge6" class="edge">
<title>MergeOmegaScan&#45;&gt;Divide</title>
<path fill="none" stroke="black" d="M964.83,-1151.7C959.25,-1143.73 952.51,-1134.1 946.33,-1125.26"/>
<polygon fill="black" stroke="black" points="949.39,-1123.53 940.79,-1117.34 943.65,-1127.54 949.39,-1123.53"/>
</g>
<!-- Multiply&#45;&gt;SelfAttenuationMethod -->
<g id="edge16" class="edge">
<title>Multiply&#45;&gt;SelfAttenuationMethod</title>
<path fill="none" stroke="black" d="M558.94,-791.7C558.94,-784.41 558.94,-775.73 558.94,-767.54"/>
<polygon fill="black" stroke="black" points="562.44,-767.62 558.94,-757.62 555.44,-767.62 562.44,-767.62"/>
</g>
<!-- FrameOverlapCorrection&#45;&gt;Multiply -->
<g id="edge13" class="edge">
<title>FrameOverlapCorrection&#45;&gt;Multiply</title>
<path fill="none" stroke="black" d="M558.94,-863.7C558.94,-856.41 558.94,-847.73 558.94,-839.54"/>
<polygon fill="black" stroke="black" points="562.44,-839.62 558.94,-829.62 555.44,-839.62 562.44,-839.62"/>
</g>
<!-- EnergyEfficiencyCorrection -->
<g id="node22" class="node">
<title>EnergyEfficiencyCorrection</title>
<path fill="lightskyblue" stroke="black" d="M886.94,-252C886.94,-252 708.94,-252 708.94,-252 702.94,-252 696.94,-246 696.94,-240 696.94,-240 696.94,-228 696.94,-228 696.94,-222 702.94,-216 708.94,-216 708.94,-216 886.94,-216 886.94,-216 892.94,-216 898.94,-222 898.94,-228 898.94,-228 898.94,-240 898.94,-240 898.94,-246 892.94,-252 886.94,-252"/>
<text text-anchor="middle" x="797.94" y="-229.32" font-family="Helvetica,sans-Serif" font-size="14.00">EnergyEfficiencyCorrection</text>
</g>
<!-- EnergyEfficiencyCorrection&#45;&gt;AverageCounts -->
<g id="edge35" class="edge">
<title>EnergyEfficiencyCorrection&#45;&gt;AverageCounts</title>
<path fill="none" stroke="black" d="M797.94,-215.7C797.94,-208.41 797.94,-199.73 797.94,-191.54"/>
<polygon fill="black" stroke="black" points="801.44,-191.62 797.94,-181.62 794.44,-191.62 801.44,-191.62"/>
</g>
<!-- ElasticPeakCalibration&#45;&gt;EnergyEfficiencyCorrection -->
<g id="edge34" class="edge">
<title>ElasticPeakCalibration&#45;&gt;EnergyEfficiencyCorrection</title>
<path fill="none" stroke="black" d="M797.94,-287.7C797.94,-280.41 797.94,-271.73 797.94,-263.54"/>
<polygon fill="black" stroke="black" points="801.44,-263.62 797.94,-253.62 794.44,-263.62 801.44,-263.62"/>
</g>
<!-- Minus&#45;&gt;TimeOfFlight1 -->
<g id="edge11" class="edge">
<title>Minus&#45;&gt;TimeOfFlight1</title>
<path fill="none" stroke="black" d="M618.94,-1007.7C618.94,-1000.41 618.94,-991.73 618.94,-983.54"/>
<polygon fill="black" stroke="black" points="622.44,-983.62 618.94,-973.62 615.44,-983.62 622.44,-983.62"/>
</g>
<!-- Plus&#45;&gt;OutputWorkspace -->
<g id="edge41" class="edge">
<title>Plus&#45;&gt;OutputWorkspace</title>
<path fill="none" stroke="black" d="M797.94,-71.7C797.94,-64.41 797.94,-55.73 797.94,-47.54"/>
<polygon fill="black" stroke="black" points="801.44,-47.62 797.94,-37.62 794.44,-47.62 801.44,-47.62"/>
</g>
<!-- PaalmanPingsAbsorptionCorrection&#45;&gt;ApplyPaalmanPingsCorrection -->
<g id="edge23" class="edge">
<title>PaalmanPingsAbsorptionCorrection&#45;&gt;ApplyPaalmanPingsCorrection</title>
<path fill="none" stroke="black" d="M573.78,-647.7C580.75,-639.56 589.21,-629.69 596.91,-620.7"/>
<polygon fill="black" stroke="black" points="599.45,-623.12 603.3,-613.25 594.13,-618.57 599.45,-623.12"/>
</g>
<!-- ApplyPaalmanPingsCorrection&#45;&gt;TimeOfFlight2 -->
<g id="edge27" class="edge">
<title>ApplyPaalmanPingsCorrection&#45;&gt;TimeOfFlight2</title>
<path fill="none" stroke="black" d="M618.94,-575.7C618.94,-568.41 618.94,-559.73 618.94,-551.54"/>
<polygon fill="black" stroke="black" points="622.44,-551.62 618.94,-541.62 615.44,-551.62 622.44,-551.62"/>
</g>
<!-- Divide2&#45;&gt;TimeOfFlight2 -->
<g id="edge28" class="edge">
<title>Divide2&#45;&gt;TimeOfFlight2</title>
<path fill="none" stroke="black" d="M456.14,-575.52C492.05,-563.93 538.65,-548.9 572.79,-537.89"/>
<polygon fill="black" stroke="black" points="573.52,-541.33 581.96,-534.93 571.37,-534.67 573.52,-541.33"/>
</g>
<!-- SumOverlappingTubes&#45;&gt;OutputWorkspace -->
<g id="edge40" class="edge">
<title>SumOverlappingTubes&#45;&gt;OutputWorkspace</title>
<path fill="none" stroke="black" d="M641.14,-71.52C669.68,-61.96 705.23,-50.05 735.26,-40"/>
<polygon fill="black" stroke="black" points="736.24,-43.36 744.61,-36.86 734.02,-36.72 736.24,-43.36"/>
</g>
<!-- FindEPP&#45;&gt;ConvertToEnergy -->
<g id="edge32" class="edge">
<title>FindEPP&#45;&gt;ConvertToEnergy</title>
<path fill="none" stroke="black" d="M885.06,-436.65C917.73,-425.16 966.61,-407.96 1002.49,-395.34"/>
<polygon fill="black" stroke="black" points="1003.47,-398.71 1011.74,-392.09 1001.15,-392.1 1003.47,-398.71"/>
</g>
<!-- SampleSelfAttenuationFactors&#45;&gt;ApplyPaalmanPingsCorrection -->
<g id="edge25" class="edge">
<title>SampleSelfAttenuationFactors&#45;&gt;ApplyPaalmanPingsCorrection</title>
<path fill="none" stroke="black" d="M806.35,-648.76C771.88,-638.88 727.53,-626.15 690.62,-615.56"/>
<polygon fill="black" stroke="black" points="691.96,-612.31 681.38,-612.91 690.03,-619.03 691.96,-612.31"/>
</g>
</g>
</svg>
