<?xml version="1.0" encoding="UTF-8" standalone="no"?>
<!DOCTYPE svg PUBLIC "-//W3C//DTD SVG 1.1//EN"
 "http://www.w3.org/Graphics/SVG/1.1/DTD/svg11.dtd">
<!-- Generated by graphviz version 11.0.0 (20240519.1550)
 -->
<!-- Title: PowderILLParameterScan Pages: 1 -->
<svg width="750pt" height="1293pt"
 viewBox="0.00 0.00 749.86 1293.25" xmlns="http://www.w3.org/2000/svg" xmlns:xlink="http://www.w3.org/1999/xlink">
<g id="graph0" class="graph" transform="scale(1 1) rotate(0) translate(4 1289.25)">
<title>PowderILLParameterScan</title>
<polygon fill="white" stroke="none" points="-4,4 -4,-1289.25 745.86,-1289.25 745.86,4 -4,4"/>
<text text-anchor="middle" x="370.93" y="-1267.95" font-family="Helvetica,sans-Serif" font-size="14.00">PowderILLParameterScan flowchart</text>
<!-- CalibrationProvided -->
<g id="node1" class="node">
<title>CalibrationProvided</title>
<polygon fill="limegreen" stroke="black" points="464.61,-882.75 314.81,-864.75 464.61,-846.75 614.41,-864.75 464.61,-882.75"/>
<text text-anchor="middle" x="464.61" y="-860.08" font-family="Helvetica,sans-Serif" font-size="14.00">CalibrationProvided</text>
</g>
<!-- ROCCorrectionProvided -->
<g id="node4" class="node">
<title>ROCCorrectionProvided</title>
<polygon fill="limegreen" stroke="black" points="429.61,-720.5 253.77,-702.5 429.61,-684.5 605.45,-702.5 429.61,-720.5"/>
<text text-anchor="middle" x="429.61" y="-697.83" font-family="Helvetica,sans-Serif" font-size="14.00">ROCCorrectionProvided</text>
</g>
<!-- CalibrationProvided&#45;&gt;ROCCorrectionProvided -->
<g id="edge15" class="edge">
<title>CalibrationProvided&#45;&gt;ROCCorrectionProvided</title>
<path fill="none" stroke="black" d="M460.93,-846.9C454.93,-819.44 442.99,-764.76 435.71,-731.43"/>
<polygon fill="black" stroke="black" points="439.22,-731.1 433.67,-722.08 432.38,-732.6 439.22,-731.1"/>
<text text-anchor="middle" x="457.99" y="-770.83" font-family="Helvetica,sans-Serif" font-size="14.00">No</text>
</g>
<!-- Calibrate -->
<g id="node18" class="node">
<title>Calibrate</title>
<path fill="lightskyblue" stroke="black" d="M416.99,-793.5C416.99,-793.5 370.24,-793.5 370.24,-793.5 364.24,-793.5 358.24,-787.5 358.24,-781.5 358.24,-781.5 358.24,-769.5 358.24,-769.5 358.24,-763.5 364.24,-757.5 370.24,-757.5 370.24,-757.5 416.99,-757.5 416.99,-757.5 422.99,-757.5 428.99,-763.5 428.99,-769.5 428.99,-769.5 428.99,-781.5 428.99,-781.5 428.99,-787.5 422.99,-793.5 416.99,-793.5"/>
<text text-anchor="middle" x="393.61" y="-770.83" font-family="Helvetica,sans-Serif" font-size="14.00">Multiply</text>
</g>
<!-- CalibrationProvided&#45;&gt;Calibrate -->
<g id="edge12" class="edge">
<title>CalibrationProvided&#45;&gt;Calibrate</title>
<path fill="none" stroke="black" d="M447.1,-848.46C440.8,-842.58 433.84,-835.63 428.11,-828.75 421.51,-820.83 415.06,-811.6 409.56,-803.13"/>
<polygon fill="black" stroke="black" points="412.68,-801.52 404.39,-794.92 406.76,-805.25 412.68,-801.52"/>
<text text-anchor="middle" x="438.86" y="-815.45" font-family="Helvetica,sans-Serif" font-size="14.00">Yes</text>
</g>
<!-- NormaliseTo -->
<g id="node2" class="node">
<title>NormaliseTo</title>
<polygon fill="limegreen" stroke="black" points="527.61,-1044 429.15,-1026 527.61,-1008 626.07,-1026 527.61,-1044"/>
<text text-anchor="middle" x="527.61" y="-1021.33" font-family="Helvetica,sans-Serif" font-size="14.00">NormaliseTo</text>
</g>
<!-- NormaliseToMonitor -->
<g id="node20" class="node">
<title>NormaliseToMonitor</title>
<path fill="lightskyblue" stroke="black" d="M482.36,-954.75C482.36,-954.75 446.86,-954.75 446.86,-954.75 440.86,-954.75 434.86,-948.75 434.86,-942.75 434.86,-942.75 434.86,-930.75 434.86,-930.75 434.86,-924.75 440.86,-918.75 446.86,-918.75 446.86,-918.75 482.36,-918.75 482.36,-918.75 488.36,-918.75 494.36,-924.75 494.36,-930.75 494.36,-930.75 494.36,-942.75 494.36,-942.75 494.36,-948.75 488.36,-954.75 482.36,-954.75"/>
<text text-anchor="middle" x="464.61" y="-932.08" font-family="Helvetica,sans-Serif" font-size="14.00">Divide</text>
</g>
<!-- NormaliseTo&#45;&gt;NormaliseToMonitor -->
<g id="edge5" class="edge">
<title>NormaliseTo&#45;&gt;NormaliseToMonitor</title>
<path fill="none" stroke="black" d="M483.37,-1015.61C469.73,-1010.41 456.19,-1002.38 448.11,-990 443.34,-982.69 444.11,-973.9 447.06,-965.64"/>
<polygon fill="black" stroke="black" points="450.22,-967.16 451.28,-956.62 443.87,-964.2 450.22,-967.16"/>
<text text-anchor="middle" x="473.86" y="-976.7" font-family="Helvetica,sans-Serif" font-size="14.00">Monitor</text>
</g>
<!-- NormaliseToTime -->
<g id="node21" class="node">
<title>NormaliseToTime</title>
<path fill="lightskyblue" stroke="black" d="M579.36,-954.75C579.36,-954.75 543.86,-954.75 543.86,-954.75 537.86,-954.75 531.86,-948.75 531.86,-942.75 531.86,-942.75 531.86,-930.75 531.86,-930.75 531.86,-924.75 537.86,-918.75 543.86,-918.75 543.86,-918.75 579.36,-918.75 579.36,-918.75 585.36,-918.75 591.36,-924.75 591.36,-930.75 591.36,-930.75 591.36,-942.75 591.36,-942.75 591.36,-948.75 585.36,-954.75 579.36,-954.75"/>
<text text-anchor="middle" x="561.61" y="-932.08" font-family="Helvetica,sans-Serif" font-size="14.00">Divide</text>
</g>
<!-- NormaliseTo&#45;&gt;NormaliseToTime -->
<g id="edge8" class="edge">
<title>NormaliseTo&#45;&gt;NormaliseToTime</title>
<path fill="none" stroke="black" d="M538.87,-1009.58C542.74,-1003.69 546.8,-996.76 549.61,-990 552.69,-982.58 555.06,-974.22 556.84,-966.4"/>
<polygon fill="black" stroke="black" points="560.27,-967.12 558.82,-956.62 553.41,-965.73 560.27,-967.12"/>
<text text-anchor="middle" x="571.49" y="-976.7" font-family="Helvetica,sans-Serif" font-size="14.00">Time</text>
</g>
<!-- NormaliseToROI -->
<g id="node22" class="node">
<title>NormaliseToROI</title>
<path fill="lightskyblue" stroke="black" d="M404.36,-954.75C404.36,-954.75 368.86,-954.75 368.86,-954.75 362.86,-954.75 356.86,-948.75 356.86,-942.75 356.86,-942.75 356.86,-930.75 356.86,-930.75 356.86,-924.75 362.86,-918.75 368.86,-918.75 368.86,-918.75 404.36,-918.75 404.36,-918.75 410.36,-918.75 416.36,-924.75 416.36,-930.75 416.36,-930.75 416.36,-942.75 416.36,-942.75 416.36,-948.75 410.36,-954.75 404.36,-954.75"/>
<text text-anchor="middle" x="386.61" y="-932.08" font-family="Helvetica,sans-Serif" font-size="14.00">Divide</text>
</g>
<!-- NormaliseTo&#45;&gt;NormaliseToROI -->
<g id="edge6" class="edge">
<title>NormaliseTo&#45;&gt;NormaliseToROI</title>
<path fill="none" stroke="black" d="M523.11,-1008.46C519.08,-996.79 512.02,-981.69 500.61,-972.75 476.16,-953.59 461.12,-963.32 427.65,-954.76"/>
<polygon fill="black" stroke="black" points="428.67,-951.41 418.09,-951.9 426.67,-958.12 428.67,-951.41"/>
<text text-anchor="middle" x="527.36" y="-976.7" font-family="Helvetica,sans-Serif" font-size="14.00">ROI</text>
</g>
<!-- SortObservableAxis -->
<g id="node3" class="node">
<title>SortObservableAxis</title>
<polygon fill="limegreen" stroke="black" points="393.61,-558.25 241.58,-540.25 393.61,-522.25 545.64,-540.25 393.61,-558.25"/>
<text text-anchor="middle" x="393.61" y="-535.58" font-family="Helvetica,sans-Serif" font-size="14.00">SortObservableAxis</text>
</g>
<!-- SortXAxis -->
<g id="node15" class="node">
<title>SortXAxis</title>
<path fill="lightskyblue" stroke="black" d="M384.36,-469C384.36,-469 324.86,-469 324.86,-469 318.86,-469 312.86,-463 312.86,-457 312.86,-457 312.86,-445 312.86,-445 312.86,-439 318.86,-433 324.86,-433 324.86,-433 384.36,-433 384.36,-433 390.36,-433 396.36,-439 396.36,-445 396.36,-445 396.36,-457 396.36,-457 396.36,-463 390.36,-469 384.36,-469"/>
<text text-anchor="middle" x="354.61" y="-446.32" font-family="Helvetica,sans-Serif" font-size="14.00">SortXAxis</text>
</g>
<!-- SortObservableAxis&#45;&gt;SortXAxis -->
<g id="edge22" class="edge">
<title>SortObservableAxis&#45;&gt;SortXAxis</title>
<path fill="none" stroke="black" d="M386.27,-522.84C380.82,-510.64 373.26,-493.73 366.89,-479.48"/>
<polygon fill="black" stroke="black" points="370.21,-478.32 362.93,-470.61 363.82,-481.17 370.21,-478.32"/>
<text text-anchor="middle" x="387.86" y="-490.95" font-family="Helvetica,sans-Serif" font-size="14.00">Yes</text>
</g>
<!-- crop_negative_2theta -->
<g id="node25" class="node">
<title>crop_negative_2theta</title>
<polygon fill="lightseagreen" stroke="black" points="475.86,-396 311.36,-396 311.36,-360 475.86,-360 475.86,-396"/>
<text text-anchor="middle" x="393.61" y="-373.32" font-family="Helvetica,sans-Serif" font-size="14.00">crop_negative_2theta</text>
</g>
<!-- SortObservableAxis&#45;&gt;crop_negative_2theta -->
<g id="edge24" class="edge">
<title>SortObservableAxis&#45;&gt;crop_negative_2theta</title>
<path fill="none" stroke="black" d="M399.16,-522.69C400.87,-516.92 402.58,-510.36 403.61,-504.25 408.89,-473.01 409.07,-464.49 405.61,-433 404.68,-424.56 402.97,-415.52 401.12,-407.29"/>
<polygon fill="black" stroke="black" points="404.58,-406.72 398.83,-397.82 397.78,-408.36 404.58,-406.72"/>
</g>
<!-- ROCCorrectionProvided&#45;&gt;SortObservableAxis -->
<g id="edge21" class="edge">
<title>ROCCorrectionProvided&#45;&gt;SortObservableAxis</title>
<path fill="none" stroke="black" d="M425.83,-684.65C419.65,-657.17 407.35,-602.42 399.86,-569.09"/>
<polygon fill="black" stroke="black" points="403.28,-568.34 397.68,-559.35 396.45,-569.87 403.28,-568.34"/>
<text text-anchor="middle" x="422.99" y="-608.58" font-family="Helvetica,sans-Serif" font-size="14.00">No</text>
</g>
<!-- ROCCorrect -->
<g id="node19" class="node">
<title>ROCCorrect</title>
<path fill="lightskyblue" stroke="black" d="M381.99,-631.25C381.99,-631.25 335.24,-631.25 335.24,-631.25 329.24,-631.25 323.24,-625.25 323.24,-619.25 323.24,-619.25 323.24,-607.25 323.24,-607.25 323.24,-601.25 329.24,-595.25 335.24,-595.25 335.24,-595.25 381.99,-595.25 381.99,-595.25 387.99,-595.25 393.99,-601.25 393.99,-607.25 393.99,-607.25 393.99,-619.25 393.99,-619.25 393.99,-625.25 387.99,-631.25 381.99,-631.25"/>
<text text-anchor="middle" x="358.61" y="-608.58" font-family="Helvetica,sans-Serif" font-size="14.00">Multiply</text>
</g>
<!-- ROCCorrectionProvided&#45;&gt;ROCCorrect -->
<g id="edge17" class="edge">
<title>ROCCorrectionProvided&#45;&gt;ROCCorrect</title>
<path fill="none" stroke="black" d="M411.73,-685.86C405.53,-680.06 398.73,-673.24 393.11,-666.5 386.51,-658.58 380.06,-649.35 374.56,-640.88"/>
<polygon fill="black" stroke="black" points="377.68,-639.27 369.39,-632.67 371.76,-643 377.68,-639.27"/>
<text text-anchor="middle" x="403.86" y="-653.2" font-family="Helvetica,sans-Serif" font-size="14.00">Yes</text>
</g>
<!-- Run -->
<g id="node5" class="node">
<title>Run</title>
<ellipse fill="khaki" stroke="black" cx="671.61" cy="-1242" rx="30.16" ry="18"/>
<text text-anchor="middle" x="671.61" y="-1237.33" font-family="Helvetica,sans-Serif" font-size="14.00">Run</text>
</g>
<!-- LoadILLDiffraction -->
<g id="node13" class="node">
<title>LoadILLDiffraction</title>
<path fill="lightskyblue" stroke="black" d="M729.86,-1188C729.86,-1188 613.36,-1188 613.36,-1188 607.36,-1188 601.36,-1182 601.36,-1176 601.36,-1176 601.36,-1164 601.36,-1164 601.36,-1158 607.36,-1152 613.36,-1152 613.36,-1152 729.86,-1152 729.86,-1152 735.86,-1152 741.86,-1158 741.86,-1164 741.86,-1164 741.86,-1176 741.86,-1176 741.86,-1182 735.86,-1188 729.86,-1188"/>
<text text-anchor="middle" x="671.61" y="-1165.33" font-family="Helvetica,sans-Serif" font-size="14.00">LoadILLDiffraction</text>
</g>
<!-- Run&#45;&gt;LoadILLDiffraction -->
<g id="edge1" class="edge">
<title>Run&#45;&gt;LoadILLDiffraction</title>
<path fill="none" stroke="black" d="M671.61,-1223.7C671.61,-1216.41 671.61,-1207.73 671.61,-1199.54"/>
<polygon fill="black" stroke="black" points="675.11,-1199.62 671.61,-1189.62 668.11,-1199.62 675.11,-1199.62"/>
</g>
<!-- ROI -->
<g id="node6" class="node">
<title>ROI</title>
<ellipse fill="khaki" stroke="black" cx="381.61" cy="-1026" rx="29.11" ry="18"/>
<text text-anchor="middle" x="381.61" y="-1021.33" font-family="Helvetica,sans-Serif" font-size="14.00">ROI</text>
</g>
<!-- ROI&#45;&gt;NormaliseToROI -->
<g id="edge7" class="edge">
<title>ROI&#45;&gt;NormaliseToROI</title>
<path fill="none" stroke="black" d="M382.6,-1007.76C383.28,-995.93 384.19,-979.95 384.98,-966.25"/>
<polygon fill="black" stroke="black" points="388.46,-966.65 385.54,-956.46 381.47,-966.25 388.46,-966.65"/>
</g>
<!-- Observable -->
<g id="node7" class="node">
<title>Observable</title>
<ellipse fill="khaki" stroke="black" cx="516.61" cy="-1170" rx="66.99" ry="18"/>
<text text-anchor="middle" x="516.61" y="-1165.33" font-family="Helvetica,sans-Serif" font-size="14.00">Observable</text>
</g>
<!-- ConjoinXRuns -->
<g id="node14" class="node">
<title>ConjoinXRuns</title>
<path fill="lightskyblue" stroke="black" d="M571.61,-1116C571.61,-1116 483.61,-1116 483.61,-1116 477.61,-1116 471.61,-1110 471.61,-1104 471.61,-1104 471.61,-1092 471.61,-1092 471.61,-1086 477.61,-1080 483.61,-1080 483.61,-1080 571.61,-1080 571.61,-1080 577.61,-1080 583.61,-1086 583.61,-1092 583.61,-1092 583.61,-1104 583.61,-1104 583.61,-1110 577.61,-1116 571.61,-1116"/>
<text text-anchor="middle" x="527.61" y="-1093.33" font-family="Helvetica,sans-Serif" font-size="14.00">ConjoinXRuns</text>
</g>
<!-- Observable&#45;&gt;ConjoinXRuns -->
<g id="edge3" class="edge">
<title>Observable&#45;&gt;ConjoinXRuns</title>
<path fill="none" stroke="black" d="M519.33,-1151.7C520.49,-1144.32 521.87,-1135.52 523.17,-1127.25"/>
<polygon fill="black" stroke="black" points="526.59,-1128.02 524.69,-1117.6 519.68,-1126.93 526.59,-1128.02"/>
</g>
<!-- CalibrationFile -->
<g id="node8" class="node">
<title>CalibrationFile</title>
<ellipse fill="khaki" stroke="black" cx="215.61" cy="-936.75" rx="79.62" ry="18"/>
<text text-anchor="middle" x="215.61" y="-932.08" font-family="Helvetica,sans-Serif" font-size="14.00">CalibrationFile</text>
</g>
<!-- LoadCalibration -->
<g id="node23" class="node">
<title>LoadCalibration</title>
<path fill="lightskyblue" stroke="black" d="M284.74,-882.75C284.74,-882.75 146.49,-882.75 146.49,-882.75 140.49,-882.75 134.49,-876.75 134.49,-870.75 134.49,-870.75 134.49,-858.75 134.49,-858.75 134.49,-852.75 140.49,-846.75 146.49,-846.75 146.49,-846.75 284.74,-846.75 284.74,-846.75 290.74,-846.75 296.74,-852.75 296.74,-858.75 296.74,-858.75 296.74,-870.75 296.74,-870.75 296.74,-876.75 290.74,-882.75 284.74,-882.75"/>
<text text-anchor="middle" x="215.61" y="-860.08" font-family="Helvetica,sans-Serif" font-size="14.00">LoadNexusProcessed</text>
</g>
<!-- CalibrationFile&#45;&gt;LoadCalibration -->
<g id="edge13" class="edge">
<title>CalibrationFile&#45;&gt;LoadCalibration</title>
<path fill="none" stroke="black" d="M215.61,-918.45C215.61,-911.16 215.61,-902.48 215.61,-894.29"/>
<polygon fill="black" stroke="black" points="219.11,-894.37 215.61,-884.37 212.11,-894.37 219.11,-894.37"/>
</g>
<!-- OutputWorkspace -->
<g id="node9" class="node">
<title>OutputWorkspace</title>
<ellipse fill="khaki" stroke="black" cx="110.61" cy="-18" rx="98.56" ry="18"/>
<text text-anchor="middle" x="110.61" y="-13.32" font-family="Helvetica,sans-Serif" font-size="14.00">OutputWorkspace</text>
</g>
<!-- ScanAxisBinWidth -->
<g id="node10" class="node">
<title>ScanAxisBinWidth</title>
<ellipse fill="khaki" stroke="black" cx="99.61" cy="-162" rx="99.61" ry="18"/>
<text text-anchor="middle" x="99.61" y="-157.32" font-family="Helvetica,sans-Serif" font-size="14.00">ScanAxisBinWidth</text>
</g>
<!-- group_spectra -->
<g id="node27" class="node">
<title>group_spectra</title>
<polygon fill="lightseagreen" stroke="black" points="168.11,-108 53.11,-108 53.11,-72 168.11,-72 168.11,-108"/>
<text text-anchor="middle" x="110.61" y="-85.33" font-family="Helvetica,sans-Serif" font-size="14.00">group_spectra</text>
</g>
<!-- ScanAxisBinWidth&#45;&gt;group_spectra -->
<g id="edge29" class="edge">
<title>ScanAxisBinWidth&#45;&gt;group_spectra</title>
<path fill="none" stroke="black" d="M102.33,-143.7C103.49,-136.32 104.87,-127.52 106.17,-119.25"/>
<polygon fill="black" stroke="black" points="109.59,-120.02 107.69,-109.6 102.68,-118.93 109.59,-120.02"/>
</g>
<!-- ROCCorrectionFile -->
<g id="node11" class="node">
<title>ROCCorrectionFile</title>
<ellipse fill="khaki" stroke="black" cx="154.61" cy="-775.5" rx="98.03" ry="18"/>
<text text-anchor="middle" x="154.61" y="-770.83" font-family="Helvetica,sans-Serif" font-size="14.00">ROCCorrectionFile</text>
</g>
<!-- LoadROC -->
<g id="node24" class="node">
<title>LoadROC</title>
<path fill="lightskyblue" stroke="black" d="M223.74,-720.5C223.74,-720.5 85.49,-720.5 85.49,-720.5 79.49,-720.5 73.49,-714.5 73.49,-708.5 73.49,-708.5 73.49,-696.5 73.49,-696.5 73.49,-690.5 79.49,-684.5 85.49,-684.5 85.49,-684.5 223.74,-684.5 223.74,-684.5 229.74,-684.5 235.74,-690.5 235.74,-696.5 235.74,-696.5 235.74,-708.5 235.74,-708.5 235.74,-714.5 229.74,-720.5 223.74,-720.5"/>
<text text-anchor="middle" x="154.61" y="-697.83" font-family="Helvetica,sans-Serif" font-size="14.00">LoadNexusProcessed</text>
</g>
<!-- ROCCorrectionFile&#45;&gt;LoadROC -->
<g id="edge18" class="edge">
<title>ROCCorrectionFile&#45;&gt;LoadROC</title>
<path fill="none" stroke="black" d="M154.61,-757.31C154.61,-749.73 154.61,-740.6 154.61,-732.04"/>
<polygon fill="black" stroke="black" points="158.11,-732.04 154.61,-722.04 151.11,-732.04 158.11,-732.04"/>
</g>
<!-- Unit -->
<g id="node12" class="node">
<title>Unit</title>
<ellipse fill="khaki" stroke="black" cx="249.61" cy="-306" rx="31.22" ry="18"/>
<text text-anchor="middle" x="249.61" y="-301.32" font-family="Helvetica,sans-Serif" font-size="14.00">Unit</text>
</g>
<!-- ConvertSpectrumAxis -->
<g id="node16" class="node">
<title>ConvertSpectrumAxis</title>
<path fill="lightskyblue" stroke="black" d="M332.36,-252C332.36,-252 188.86,-252 188.86,-252 182.86,-252 176.86,-246 176.86,-240 176.86,-240 176.86,-228 176.86,-228 176.86,-222 182.86,-216 188.86,-216 188.86,-216 332.36,-216 332.36,-216 338.36,-216 344.36,-222 344.36,-228 344.36,-228 344.36,-240 344.36,-240 344.36,-246 338.36,-252 332.36,-252"/>
<text text-anchor="middle" x="260.61" y="-229.32" font-family="Helvetica,sans-Serif" font-size="14.00">ConvertSpectrumAxis</text>
</g>
<!-- Unit&#45;&gt;ConvertSpectrumAxis -->
<g id="edge27" class="edge">
<title>Unit&#45;&gt;ConvertSpectrumAxis</title>
<path fill="none" stroke="black" d="M252.33,-287.7C253.49,-280.32 254.87,-271.52 256.17,-263.25"/>
<polygon fill="black" stroke="black" points="259.59,-264.02 257.69,-253.6 252.68,-262.93 259.59,-264.02"/>
</g>
<!-- LoadILLDiffraction&#45;&gt;ConjoinXRuns -->
<g id="edge2" class="edge">
<title>LoadILLDiffraction&#45;&gt;ConjoinXRuns</title>
<path fill="none" stroke="black" d="M635.64,-1151.52C616.77,-1142.34 593.46,-1131.01 573.32,-1121.22"/>
<polygon fill="black" stroke="black" points="575,-1118.15 564.48,-1116.92 571.94,-1124.44 575,-1118.15"/>
</g>
<!-- ConjoinXRuns&#45;&gt;NormaliseTo -->
<g id="edge4" class="edge">
<title>ConjoinXRuns&#45;&gt;NormaliseTo</title>
<path fill="none" stroke="black" d="M527.61,-1079.7C527.61,-1072.41 527.61,-1063.73 527.61,-1055.54"/>
<polygon fill="black" stroke="black" points="531.11,-1055.62 527.61,-1045.62 524.11,-1055.62 531.11,-1055.62"/>
</g>
<!-- SortXAxis&#45;&gt;crop_negative_2theta -->
<g id="edge23" class="edge">
<title>SortXAxis&#45;&gt;crop_negative_2theta</title>
<path fill="none" stroke="black" d="M364.05,-432.81C368.46,-424.79 373.81,-415.05 378.74,-406.07"/>
<polygon fill="black" stroke="black" points="381.78,-407.81 383.53,-397.36 375.65,-404.44 381.78,-407.81"/>
</g>
<!-- Transpose -->
<g id="node17" class="node">
<title>Transpose</title>
<path fill="lightskyblue" stroke="black" d="M291.86,-180C291.86,-180 229.36,-180 229.36,-180 223.36,-180 217.36,-174 217.36,-168 217.36,-168 217.36,-156 217.36,-156 217.36,-150 223.36,-144 229.36,-144 229.36,-144 291.86,-144 291.86,-144 297.86,-144 303.86,-150 303.86,-156 303.86,-156 303.86,-168 303.86,-168 303.86,-174 297.86,-180 291.86,-180"/>
<text text-anchor="middle" x="260.61" y="-157.32" font-family="Helvetica,sans-Serif" font-size="14.00">Transpose</text>
</g>
<!-- ConvertSpectrumAxis&#45;&gt;Transpose -->
<g id="edge28" class="edge">
<title>ConvertSpectrumAxis&#45;&gt;Transpose</title>
<path fill="none" stroke="black" d="M260.61,-215.7C260.61,-208.41 260.61,-199.73 260.61,-191.54"/>
<polygon fill="black" stroke="black" points="264.11,-191.62 260.61,-181.62 257.11,-191.62 264.11,-191.62"/>
</g>
<!-- Transpose&#45;&gt;group_spectra -->
<g id="edge30" class="edge">
<title>Transpose&#45;&gt;group_spectra</title>
<path fill="none" stroke="black" d="M223.15,-143.52C203.47,-134.34 179.16,-122.99 158.17,-113.2"/>
<polygon fill="black" stroke="black" points="159.77,-110.08 149.23,-109.02 156.81,-116.42 159.77,-110.08"/>
</g>
<!-- Calibrate&#45;&gt;ROCCorrectionProvided -->
<g id="edge16" class="edge">
<title>Calibrate&#45;&gt;ROCCorrectionProvided</title>
<path fill="none" stroke="black" d="M402.32,-757.31C406.45,-749.17 411.48,-739.26 416.09,-730.17"/>
<polygon fill="black" stroke="black" points="419.14,-731.89 420.54,-721.39 412.9,-728.73 419.14,-731.89"/>
</g>
<!-- ROCCorrect&#45;&gt;SortObservableAxis -->
<g id="edge20" class="edge">
<title>ROCCorrect&#45;&gt;SortObservableAxis</title>
<path fill="none" stroke="black" d="M367.08,-595.06C371.15,-586.8 376.12,-576.72 380.66,-567.53"/>
<polygon fill="black" stroke="black" points="383.74,-569.18 385.03,-558.66 377.47,-566.08 383.74,-569.18"/>
</g>
<!-- NormaliseToMonitor&#45;&gt;CalibrationProvided -->
<g id="edge11" class="edge">
<title>NormaliseToMonitor&#45;&gt;CalibrationProvided</title>
<path fill="none" stroke="black" d="M464.61,-918.45C464.61,-911.16 464.61,-902.48 464.61,-894.29"/>
<polygon fill="black" stroke="black" points="468.11,-894.37 464.61,-884.37 461.11,-894.37 468.11,-894.37"/>
</g>
<!-- NormaliseToTime&#45;&gt;CalibrationProvided -->
<g id="edge9" class="edge">
<title>NormaliseToTime&#45;&gt;CalibrationProvided</title>
<path fill="none" stroke="black" d="M537.63,-918.45C524.6,-909.04 508.35,-897.32 494.5,-887.32"/>
<polygon fill="black" stroke="black" points="496.74,-884.62 486.58,-881.61 492.64,-890.3 496.74,-884.62"/>
</g>
<!-- NormaliseToROI&#45;&gt;CalibrationProvided -->
<g id="edge10" class="edge">
<title>NormaliseToROI&#45;&gt;CalibrationProvided</title>
<path fill="none" stroke="black" d="M405.89,-918.45C415.93,-909.44 428.33,-898.31 439.15,-888.6"/>
<polygon fill="black" stroke="black" points="441.18,-891.48 446.28,-882.2 436.5,-886.27 441.18,-891.48"/>
</g>
<!-- LoadCalibration&#45;&gt;Calibrate -->
<g id="edge14" class="edge">
<title>LoadCalibration&#45;&gt;Calibrate</title>
<path fill="none" stroke="black" d="M251.2,-846.3C278.97,-832.69 317.75,-813.68 347.83,-798.94"/>
<polygon fill="black" stroke="black" points="349.28,-802.13 356.72,-794.58 346.2,-795.84 349.28,-802.13"/>
</g>
<!-- LoadROC&#45;&gt;ROCCorrect -->
<g id="edge19" class="edge">
<title>LoadROC&#45;&gt;ROCCorrect</title>
<path fill="none" stroke="black" d="M195.4,-684.05C229.23,-669.59 277.3,-649.02 312.52,-633.96"/>
<polygon fill="black" stroke="black" points="313.79,-637.23 321.61,-630.08 311.04,-630.79 313.79,-637.23"/>
</g>
<!-- treat_zero_counting_cells -->
<g id="node26" class="node">
<title>treat_zero_counting_cells</title>
<polygon fill="lightseagreen" stroke="black" points="488.24,-324 298.99,-324 298.99,-288 488.24,-288 488.24,-324"/>
<text text-anchor="middle" x="393.61" y="-301.32" font-family="Helvetica,sans-Serif" font-size="14.00">treat_zero_counting_cells</text>
</g>
<!-- crop_negative_2theta&#45;&gt;treat_zero_counting_cells -->
<g id="edge25" class="edge">
<title>crop_negative_2theta&#45;&gt;treat_zero_counting_cells</title>
<path fill="none" stroke="black" d="M393.61,-359.7C393.61,-352.41 393.61,-343.73 393.61,-335.54"/>
<polygon fill="black" stroke="black" points="397.11,-335.62 393.61,-325.62 390.11,-335.62 397.11,-335.62"/>
</g>
<!-- treat_zero_counting_cells&#45;&gt;ConvertSpectrumAxis -->
<g id="edge26" class="edge">
<title>treat_zero_counting_cells&#45;&gt;ConvertSpectrumAxis</title>
<path fill="none" stroke="black" d="M360.39,-287.52C343.12,-278.43 321.82,-267.22 303.34,-257.49"/>
<polygon fill="black" stroke="black" points="305.22,-254.53 294.74,-252.97 301.96,-260.72 305.22,-254.53"/>
</g>
<!-- group_spectra&#45;&gt;OutputWorkspace -->
<g id="edge31" class="edge">
<title>group_spectra&#45;&gt;OutputWorkspace</title>
<path fill="none" stroke="black" d="M110.61,-71.7C110.61,-64.41 110.61,-55.73 110.61,-47.54"/>
<polygon fill="black" stroke="black" points="114.11,-47.62 110.61,-37.62 107.11,-47.62 114.11,-47.62"/>
</g>
</g>
</svg>
