<?xml version="1.0" encoding="UTF-8" standalone="no"?>
<!DOCTYPE svg PUBLIC "-//W3C//DTD SVG 1.1//EN"
 "http://www.w3.org/Graphics/SVG/1.1/DTD/svg11.dtd">
<!-- Generated by graphviz version 11.0.0 (20240519.1550)
 -->
<!-- Title: PowderReduceP2D_FocusAndSum Pages: 1 -->
<svg width="495pt" height="1615pt"
 viewBox="0.00 0.00 494.73 1614.50" xmlns="http://www.w3.org/2000/svg" xmlns:xlink="http://www.w3.org/1999/xlink">
<g id="graph0" class="graph" transform="scale(1 1) rotate(0) translate(4 1610.5)">
<title>PowderReduceP2D_FocusAndSum</title>
<polygon fill="white" stroke="none" points="-4,4 -4,-1610.5 490.73,-1610.5 490.73,4 -4,4"/>
<text text-anchor="middle" x="243.37" y="-1589.2" font-family="Helvetica,sans-Serif" font-size="14.00">Process Sample Run Workflow</text>
<!-- SampleData -->
<g id="node1" class="node">
<title>SampleData</title>
<ellipse fill="lightgrey" stroke="black" cx="251.62" cy="-1563.25" rx="70.15" ry="18"/>
<text text-anchor="middle" x="251.62" y="-1558.58" font-family="Helvetica,sans-Serif" font-size="14.00">SampleData</text>
</g>
<!-- maskFile -->
<g id="node18" class="node">
<title>maskFile</title>
<polygon fill="limegreen" stroke="black" points="251.62,-1509.25 61.65,-1491.25 251.62,-1473.25 441.6,-1491.25 251.62,-1509.25"/>
<text text-anchor="middle" x="251.62" y="-1486.58" font-family="Helvetica,sans-Serif" font-size="14.00">Is masking file specified?</text>
</g>
<!-- SampleData&#45;&gt;maskFile -->
<g id="edge1" class="edge">
<title>SampleData&#45;&gt;maskFile</title>
<path fill="none" stroke="black" d="M251.62,-1544.95C251.62,-1537.66 251.62,-1528.98 251.62,-1520.79"/>
<polygon fill="black" stroke="black" points="255.13,-1520.87 251.63,-1510.87 248.13,-1520.87 255.13,-1520.87"/>
</g>
<!-- OutputWorkspace -->
<g id="node2" class="node">
<title>OutputWorkspace</title>
<ellipse fill="lightgrey" stroke="black" cx="250.62" cy="-18" rx="98.56" ry="18"/>
<text text-anchor="middle" x="250.62" y="-13.32" font-family="Helvetica,sans-Serif" font-size="14.00">OutputWorkspace</text>
</g>
<!-- LoadMask -->
<g id="node3" class="node">
<title>LoadMask</title>
<path fill="lightskyblue" stroke="black" d="M248,-1420C248,-1420 165.25,-1420 165.25,-1420 159.25,-1420 153.25,-1414 153.25,-1408 153.25,-1408 153.25,-1396 153.25,-1396 153.25,-1390 159.25,-1384 165.25,-1384 165.25,-1384 248,-1384 248,-1384 254,-1384 260,-1390 260,-1396 260,-1396 260,-1408 260,-1408 260,-1414 254,-1420 248,-1420"/>
<text text-anchor="middle" x="206.62" y="-1397.33" font-family="Helvetica,sans-Serif" font-size="14.00">LoadMask v1</text>
</g>
<!-- detcal -->
<g id="node19" class="node">
<title>detcal</title>
<polygon fill="limegreen" stroke="black" points="250.63,-1347 14.52,-1329 250.62,-1311 486.73,-1329 250.63,-1347"/>
<text text-anchor="middle" x="250.62" y="-1324.33" font-family="Helvetica,sans-Serif" font-size="14.00">Is calibration file of type detcal?</text>
</g>
<!-- LoadMask&#45;&gt;detcal -->
<g id="edge4" class="edge">
<title>LoadMask&#45;&gt;detcal</title>
<path fill="none" stroke="black" d="M217.28,-1383.81C222.43,-1375.49 228.73,-1365.33 234.46,-1356.08"/>
<polygon fill="black" stroke="black" points="237.28,-1358.17 239.58,-1347.83 231.33,-1354.48 237.28,-1358.17"/>
</g>
<!-- LoadDetcal -->
<g id="node4" class="node">
<title>LoadDetcal</title>
<path fill="lightskyblue" stroke="black" d="M257.62,-1257.75C257.62,-1257.75 133.62,-1257.75 133.62,-1257.75 127.62,-1257.75 121.62,-1251.75 121.62,-1245.75 121.62,-1245.75 121.62,-1233.75 121.62,-1233.75 121.62,-1227.75 127.62,-1221.75 133.62,-1221.75 133.62,-1221.75 257.62,-1221.75 257.62,-1221.75 263.62,-1221.75 269.62,-1227.75 269.62,-1233.75 269.62,-1233.75 269.62,-1245.75 269.62,-1245.75 269.62,-1251.75 263.62,-1257.75 257.62,-1257.75"/>
<text text-anchor="middle" x="195.62" y="-1235.08" font-family="Helvetica,sans-Serif" font-size="14.00">LoadIsawDetCal v1</text>
</g>
<!-- FindDetectorsPar -->
<g id="node5" class="node">
<title>FindDetectorsPar</title>
<path fill="lightskyblue" stroke="black" d="M316,-1184.75C316,-1184.75 185.25,-1184.75 185.25,-1184.75 179.25,-1184.75 173.25,-1178.75 173.25,-1172.75 173.25,-1172.75 173.25,-1160.75 173.25,-1160.75 173.25,-1154.75 179.25,-1148.75 185.25,-1148.75 185.25,-1148.75 316,-1148.75 316,-1148.75 322,-1148.75 328,-1154.75 328,-1160.75 328,-1160.75 328,-1172.75 328,-1172.75 328,-1178.75 322,-1184.75 316,-1184.75"/>
<text text-anchor="middle" x="250.62" y="-1162.08" font-family="Helvetica,sans-Serif" font-size="14.00">FindDetectorsPar v1</text>
</g>
<!-- LoadDetcal&#45;&gt;FindDetectorsPar -->
<g id="edge7" class="edge">
<title>LoadDetcal&#45;&gt;FindDetectorsPar</title>
<path fill="none" stroke="black" d="M208.94,-1221.56C215.42,-1213.19 223.36,-1202.95 230.56,-1193.65"/>
<polygon fill="black" stroke="black" points="233.15,-1196.02 236.51,-1185.98 227.62,-1191.74 233.15,-1196.02"/>
</g>
<!-- FilterBadPulses -->
<g id="node6" class="node">
<title>FilterBadPulses</title>
<path fill="lightskyblue" stroke="black" d="M310,-1112.75C310,-1112.75 191.25,-1112.75 191.25,-1112.75 185.25,-1112.75 179.25,-1106.75 179.25,-1100.75 179.25,-1100.75 179.25,-1088.75 179.25,-1088.75 179.25,-1082.75 185.25,-1076.75 191.25,-1076.75 191.25,-1076.75 310,-1076.75 310,-1076.75 316,-1076.75 322,-1082.75 322,-1088.75 322,-1088.75 322,-1100.75 322,-1100.75 322,-1106.75 316,-1112.75 310,-1112.75"/>
<text text-anchor="middle" x="250.62" y="-1090.08" font-family="Helvetica,sans-Serif" font-size="14.00">FilterBadPulses v1</text>
</g>
<!-- FindDetectorsPar&#45;&gt;FilterBadPulses -->
<g id="edge8" class="edge">
<title>FindDetectorsPar&#45;&gt;FilterBadPulses</title>
<path fill="none" stroke="black" d="M250.62,-1148.45C250.62,-1141.16 250.62,-1132.48 250.62,-1124.29"/>
<polygon fill="black" stroke="black" points="254.13,-1124.37 250.63,-1114.37 247.13,-1124.37 254.13,-1124.37"/>
</g>
<!-- RemovePromptPulse -->
<g id="node7" class="node">
<title>RemovePromptPulse</title>
<path fill="lightskyblue" stroke="black" d="M328.38,-1040.75C328.38,-1040.75 172.88,-1040.75 172.88,-1040.75 166.88,-1040.75 160.88,-1034.75 160.88,-1028.75 160.88,-1028.75 160.88,-1016.75 160.88,-1016.75 160.88,-1010.75 166.88,-1004.75 172.88,-1004.75 172.88,-1004.75 328.38,-1004.75 328.38,-1004.75 334.38,-1004.75 340.38,-1010.75 340.38,-1016.75 340.38,-1016.75 340.38,-1028.75 340.38,-1028.75 340.38,-1034.75 334.38,-1040.75 328.38,-1040.75"/>
<text text-anchor="middle" x="250.62" y="-1018.08" font-family="Helvetica,sans-Serif" font-size="14.00">RemovePromptPulse v1</text>
</g>
<!-- FilterBadPulses&#45;&gt;RemovePromptPulse -->
<g id="edge9" class="edge">
<title>FilterBadPulses&#45;&gt;RemovePromptPulse</title>
<path fill="none" stroke="black" d="M250.62,-1076.45C250.62,-1069.16 250.62,-1060.48 250.62,-1052.29"/>
<polygon fill="black" stroke="black" points="254.13,-1052.37 250.63,-1042.37 247.13,-1052.37 254.13,-1052.37"/>
</g>
<!-- detcal2 -->
<g id="node20" class="node">
<title>detcal2</title>
<polygon fill="limegreen" stroke="black" points="250.63,-968.75 14.52,-950.75 250.62,-932.75 486.73,-950.75 250.63,-968.75"/>
<text text-anchor="middle" x="250.62" y="-946.08" font-family="Helvetica,sans-Serif" font-size="14.00">Is calibration file of type detcal?</text>
</g>
<!-- RemovePromptPulse&#45;&gt;detcal2 -->
<g id="edge10" class="edge">
<title>RemovePromptPulse&#45;&gt;detcal2</title>
<path fill="none" stroke="black" d="M250.62,-1004.45C250.62,-997.16 250.62,-988.48 250.62,-980.29"/>
<polygon fill="black" stroke="black" points="254.13,-980.37 250.63,-970.37 247.13,-980.37 254.13,-980.37"/>
</g>
<!-- LoadDiffCal -->
<g id="node8" class="node">
<title>LoadDiffCal</title>
<path fill="lightskyblue" stroke="black" d="M249.88,-879.5C249.88,-879.5 157.38,-879.5 157.38,-879.5 151.38,-879.5 145.38,-873.5 145.38,-867.5 145.38,-867.5 145.38,-855.5 145.38,-855.5 145.38,-849.5 151.38,-843.5 157.38,-843.5 157.38,-843.5 249.88,-843.5 249.88,-843.5 255.88,-843.5 261.88,-849.5 261.88,-855.5 261.88,-855.5 261.88,-867.5 261.88,-867.5 261.88,-873.5 255.88,-879.5 249.88,-879.5"/>
<text text-anchor="middle" x="203.62" y="-856.83" font-family="Helvetica,sans-Serif" font-size="14.00">LoadDiffCal v1</text>
</g>
<!-- MaskDetectors -->
<g id="node9" class="node">
<title>MaskDetectors</title>
<path fill="lightskyblue" stroke="black" d="M308.88,-806.5C308.88,-806.5 192.38,-806.5 192.38,-806.5 186.38,-806.5 180.38,-800.5 180.38,-794.5 180.38,-794.5 180.38,-782.5 180.38,-782.5 180.38,-776.5 186.38,-770.5 192.38,-770.5 192.38,-770.5 308.88,-770.5 308.88,-770.5 314.88,-770.5 320.88,-776.5 320.88,-782.5 320.88,-782.5 320.88,-794.5 320.88,-794.5 320.88,-800.5 314.88,-806.5 308.88,-806.5"/>
<text text-anchor="middle" x="250.62" y="-783.83" font-family="Helvetica,sans-Serif" font-size="14.00">MaskDetectors v1</text>
</g>
<!-- LoadDiffCal&#45;&gt;MaskDetectors -->
<g id="edge13" class="edge">
<title>LoadDiffCal&#45;&gt;MaskDetectors</title>
<path fill="none" stroke="black" d="M215,-843.31C220.43,-835.12 227.04,-825.12 233.09,-815.98"/>
<polygon fill="black" stroke="black" points="235.92,-818.06 238.52,-807.79 230.08,-814.2 235.92,-818.06"/>
</g>
<!-- detcal3 -->
<g id="node21" class="node">
<title>detcal3</title>
<polygon fill="limegreen" stroke="black" points="250.63,-734.5 14.52,-716.5 250.62,-698.5 486.73,-716.5 250.63,-734.5"/>
<text text-anchor="middle" x="250.62" y="-711.83" font-family="Helvetica,sans-Serif" font-size="14.00">Is calibration file of type detcal?</text>
</g>
<!-- MaskDetectors&#45;&gt;detcal3 -->
<g id="edge14" class="edge">
<title>MaskDetectors&#45;&gt;detcal3</title>
<path fill="none" stroke="black" d="M250.62,-770.2C250.62,-762.91 250.62,-754.23 250.62,-746.04"/>
<polygon fill="black" stroke="black" points="254.13,-746.12 250.63,-736.12 247.13,-746.12 254.13,-746.12"/>
</g>
<!-- ApplyDiffCal -->
<g id="node10" class="node">
<title>ApplyDiffCal</title>
<path fill="lightskyblue" stroke="black" d="M251.25,-645.25C251.25,-645.25 152,-645.25 152,-645.25 146,-645.25 140,-639.25 140,-633.25 140,-633.25 140,-621.25 140,-621.25 140,-615.25 146,-609.25 152,-609.25 152,-609.25 251.25,-609.25 251.25,-609.25 257.25,-609.25 263.25,-615.25 263.25,-621.25 263.25,-621.25 263.25,-633.25 263.25,-633.25 263.25,-639.25 257.25,-645.25 251.25,-645.25"/>
<text text-anchor="middle" x="201.62" y="-622.58" font-family="Helvetica,sans-Serif" font-size="14.00">ApplyDiffCal v1</text>
</g>
<!-- ConvertUnits -->
<g id="node11" class="node">
<title>ConvertUnits</title>
<path fill="lightskyblue" stroke="black" d="M331,-572.25C331,-572.25 170.25,-572.25 170.25,-572.25 164.25,-572.25 158.25,-566.25 158.25,-560.25 158.25,-560.25 158.25,-541.75 158.25,-541.75 158.25,-535.75 164.25,-529.75 170.25,-529.75 170.25,-529.75 331,-529.75 331,-529.75 337,-529.75 343,-535.75 343,-541.75 343,-541.75 343,-560.25 343,-560.25 343,-566.25 337,-572.25 331,-572.25"/>
<text text-anchor="middle" x="250.62" y="-554.95" font-family="Helvetica,sans-Serif" font-size="14.00">ConvertUnits v1</text>
<text text-anchor="middle" x="250.62" y="-537.7" font-family="Helvetica,sans-Serif" font-size="14.00">with target &#39;Wavelength&#39;</text>
</g>
<!-- ApplyDiffCal&#45;&gt;ConvertUnits -->
<g id="edge17" class="edge">
<title>ApplyDiffCal&#45;&gt;ConvertUnits</title>
<path fill="none" stroke="black" d="M212.99,-609.03C218.26,-601.04 224.69,-591.3 230.73,-582.15"/>
<polygon fill="black" stroke="black" points="233.64,-584.1 236.22,-573.82 227.79,-580.24 233.64,-584.1"/>
</g>
<!-- CylinderAbsorption -->
<g id="node12" class="node">
<title>CylinderAbsorption</title>
<path fill="lightskyblue" stroke="black" d="M422.25,-492.75C422.25,-492.75 275,-492.75 275,-492.75 269,-492.75 263,-486.75 263,-480.75 263,-480.75 263,-468.75 263,-468.75 263,-462.75 269,-456.75 275,-456.75 275,-456.75 422.25,-456.75 422.25,-456.75 428.25,-456.75 434.25,-462.75 434.25,-468.75 434.25,-468.75 434.25,-480.75 434.25,-480.75 434.25,-486.75 428.25,-492.75 422.25,-492.75"/>
<text text-anchor="middle" x="348.62" y="-470.07" font-family="Helvetica,sans-Serif" font-size="14.00">CylinderAbsorption v1</text>
</g>
<!-- ConvertUnits&#45;&gt;CylinderAbsorption -->
<g id="edge19" class="edge">
<title>ConvertUnits&#45;&gt;CylinderAbsorption</title>
<path fill="none" stroke="black" d="M277.92,-529.32C289.93,-520.22 304.11,-509.48 316.61,-500.01"/>
<polygon fill="black" stroke="black" points="318.71,-502.8 324.57,-493.97 314.49,-497.22 318.71,-502.8"/>
</g>
<!-- edgebinning -->
<g id="node22" class="node">
<title>edgebinning</title>
<polygon fill="limegreen" stroke="black" points="250.62,-347.75 58.42,-329.75 250.62,-311.75 442.83,-329.75 250.62,-347.75"/>
<text text-anchor="middle" x="250.62" y="-325.07" font-family="Helvetica,sans-Serif" font-size="14.00">Is edgebinning specified?</text>
</g>
<!-- ConvertUnits&#45;&gt;edgebinning -->
<g id="edge18" class="edge">
<title>ConvertUnits&#45;&gt;edgebinning</title>
<path fill="none" stroke="black" d="M250.62,-529.37C250.62,-490.02 250.62,-404.16 250.62,-359.32"/>
<polygon fill="black" stroke="black" points="254.13,-359.6 250.63,-349.6 247.13,-359.6 254.13,-359.6"/>
</g>
<!-- Divide -->
<g id="node13" class="node">
<title>Divide</title>
<path fill="lightskyblue" stroke="black" d="M354.25,-420.75C354.25,-420.75 297,-420.75 297,-420.75 291,-420.75 285,-414.75 285,-408.75 285,-408.75 285,-396.75 285,-396.75 285,-390.75 291,-384.75 297,-384.75 297,-384.75 354.25,-384.75 354.25,-384.75 360.25,-384.75 366.25,-390.75 366.25,-396.75 366.25,-396.75 366.25,-408.75 366.25,-408.75 366.25,-414.75 360.25,-420.75 354.25,-420.75"/>
<text text-anchor="middle" x="325.62" y="-398.07" font-family="Helvetica,sans-Serif" font-size="14.00">Divide v1</text>
</g>
<!-- CylinderAbsorption&#45;&gt;Divide -->
<g id="edge20" class="edge">
<title>CylinderAbsorption&#45;&gt;Divide</title>
<path fill="none" stroke="black" d="M342.94,-456.45C340.49,-448.99 337.56,-440.07 334.81,-431.72"/>
<polygon fill="black" stroke="black" points="338.16,-430.7 331.72,-422.29 331.51,-432.89 338.16,-430.7"/>
</g>
<!-- Divide&#45;&gt;edgebinning -->
<g id="edge21" class="edge">
<title>Divide&#45;&gt;edgebinning</title>
<path fill="none" stroke="black" d="M307.47,-384.56C297.92,-375.52 286.06,-364.3 275.65,-354.44"/>
<polygon fill="black" stroke="black" points="278.1,-351.94 268.43,-347.61 273.29,-357.02 278.1,-351.94"/>
</g>
<!-- Bin2DPowderDiffraction1 -->
<g id="node14" class="node">
<title>Bin2DPowderDiffraction1</title>
<path fill="lightskyblue" stroke="black" d="M243.25,-258.5C243.25,-258.5 12,-258.5 12,-258.5 6,-258.5 0,-252.5 0,-246.5 0,-246.5 0,-228 0,-228 0,-222 6,-216 12,-216 12,-216 243.25,-216 243.25,-216 249.25,-216 255.25,-222 255.25,-228 255.25,-228 255.25,-246.5 255.25,-246.5 255.25,-252.5 249.25,-258.5 243.25,-258.5"/>
<text text-anchor="middle" x="127.62" y="-241.2" font-family="Helvetica,sans-Serif" font-size="14.00">Bin2DPowderDiffraction v1</text>
<text text-anchor="middle" x="127.62" y="-223.95" font-family="Helvetica,sans-Serif" font-size="14.00">using a specified edgebinning file.</text>
</g>
<!-- StripVanadiumPeaks -->
<g id="node16" class="node">
<title>StripVanadiumPeaks</title>
<path fill="lightskyblue" stroke="black" d="M328.75,-180C328.75,-180 172.5,-180 172.5,-180 166.5,-180 160.5,-174 160.5,-168 160.5,-168 160.5,-156 160.5,-156 160.5,-150 166.5,-144 172.5,-144 172.5,-144 328.75,-144 328.75,-144 334.75,-144 340.75,-150 340.75,-156 340.75,-156 340.75,-168 340.75,-168 340.75,-174 334.75,-180 328.75,-180"/>
<text text-anchor="middle" x="250.62" y="-157.32" font-family="Helvetica,sans-Serif" font-size="14.00">StripVanadiumPeaks v2</text>
</g>
<!-- Bin2DPowderDiffraction1&#45;&gt;StripVanadiumPeaks -->
<g id="edge24" class="edge">
<title>Bin2DPowderDiffraction1&#45;&gt;StripVanadiumPeaks</title>
<path fill="none" stroke="black" d="M162.21,-215.65C177.63,-206.47 195.86,-195.61 211.75,-186.15"/>
<polygon fill="black" stroke="black" points="213.19,-189.37 219.99,-181.24 209.61,-183.35 213.19,-189.37"/>
</g>
<!-- Bin2DPowderDiffraction2 -->
<g id="node15" class="node">
<title>Bin2DPowderDiffraction2</title>
<path fill="lightskyblue" stroke="black" d="M464,-258.5C464,-258.5 285.25,-258.5 285.25,-258.5 279.25,-258.5 273.25,-252.5 273.25,-246.5 273.25,-246.5 273.25,-228 273.25,-228 273.25,-222 279.25,-216 285.25,-216 285.25,-216 464,-216 464,-216 470,-216 476,-222 476,-228 476,-228 476,-246.5 476,-246.5 476,-252.5 470,-258.5 464,-258.5"/>
<text text-anchor="middle" x="374.62" y="-241.2" font-family="Helvetica,sans-Serif" font-size="14.00">Bin2DPowderDiffraction v1</text>
<text text-anchor="middle" x="374.62" y="-223.95" font-family="Helvetica,sans-Serif" font-size="14.00">using logbinning.</text>
</g>
<!-- Bin2DPowderDiffraction2&#45;&gt;StripVanadiumPeaks -->
<g id="edge25" class="edge">
<title>Bin2DPowderDiffraction2&#45;&gt;StripVanadiumPeaks</title>
<path fill="none" stroke="black" d="M339.75,-215.65C324.21,-206.47 305.84,-195.61 289.82,-186.15"/>
<polygon fill="black" stroke="black" points="291.89,-183.31 281.5,-181.24 288.33,-189.34 291.89,-183.31"/>
</g>
<!-- FFTSmooth -->
<g id="node17" class="node">
<title>FFTSmooth</title>
<path fill="lightskyblue" stroke="black" d="M296.12,-108C296.12,-108 205.12,-108 205.12,-108 199.12,-108 193.12,-102 193.12,-96 193.12,-96 193.12,-84 193.12,-84 193.12,-78 199.12,-72 205.12,-72 205.12,-72 296.12,-72 296.12,-72 302.12,-72 308.12,-78 308.12,-84 308.12,-84 308.12,-96 308.12,-96 308.12,-102 302.12,-108 296.12,-108"/>
<text text-anchor="middle" x="250.62" y="-85.33" font-family="Helvetica,sans-Serif" font-size="14.00">FFTSmooth v2</text>
</g>
<!-- StripVanadiumPeaks&#45;&gt;FFTSmooth -->
<g id="edge26" class="edge">
<title>StripVanadiumPeaks&#45;&gt;FFTSmooth</title>
<path fill="none" stroke="black" d="M250.62,-143.7C250.62,-136.41 250.62,-127.73 250.62,-119.54"/>
<polygon fill="black" stroke="black" points="254.13,-119.62 250.63,-109.62 247.13,-119.62 254.13,-119.62"/>
</g>
<!-- FFTSmooth&#45;&gt;OutputWorkspace -->
<g id="edge27" class="edge">
<title>FFTSmooth&#45;&gt;OutputWorkspace</title>
<path fill="none" stroke="black" d="M250.62,-71.7C250.62,-64.41 250.62,-55.73 250.62,-47.54"/>
<polygon fill="black" stroke="black" points="254.13,-47.62 250.63,-37.62 247.13,-47.62 254.13,-47.62"/>
</g>
<!-- maskFile&#45;&gt;LoadMask -->
<g id="edge2" class="edge">
<title>maskFile&#45;&gt;LoadMask</title>
<path fill="none" stroke="black" d="M243.16,-1473.84C236.81,-1461.53 227.97,-1444.39 220.58,-1430.06"/>
<polygon fill="black" stroke="black" points="223.9,-1428.86 216.21,-1421.58 217.68,-1432.07 223.9,-1428.86"/>
<text text-anchor="middle" x="244.88" y="-1441.95" font-family="Helvetica,sans-Serif" font-size="14.00">Yes</text>
</g>
<!-- maskFile&#45;&gt;detcal -->
<g id="edge3" class="edge">
<title>maskFile&#45;&gt;detcal</title>
<path fill="none" stroke="black" d="M257.58,-1473.68C264.33,-1452.78 273.77,-1415.72 268.62,-1384 267.19,-1375.15 264.51,-1365.79 261.65,-1357.39"/>
<polygon fill="black" stroke="black" points="264.97,-1356.29 258.25,-1348.09 258.4,-1358.69 264.97,-1356.29"/>
<text text-anchor="middle" x="279" y="-1397.33" font-family="Helvetica,sans-Serif" font-size="14.00">No</text>
</g>
<!-- detcal&#45;&gt;LoadDetcal -->
<g id="edge5" class="edge">
<title>detcal&#45;&gt;LoadDetcal</title>
<path fill="none" stroke="black" d="M240.28,-1311.59C232.44,-1299.16 221.51,-1281.81 212.42,-1267.4"/>
<polygon fill="black" stroke="black" points="215.59,-1265.86 207.3,-1259.26 209.67,-1269.59 215.59,-1265.86"/>
<text text-anchor="middle" x="239.88" y="-1279.7" font-family="Helvetica,sans-Serif" font-size="14.00">Yes</text>
</g>
<!-- detcal&#45;&gt;FindDetectorsPar -->
<g id="edge6" class="edge">
<title>detcal&#45;&gt;FindDetectorsPar</title>
<path fill="none" stroke="black" d="M260.2,-1311.48C271.09,-1290.63 286.4,-1253.63 278.62,-1221.75 276.37,-1212.52 272.24,-1203.1 267.84,-1194.77"/>
<polygon fill="black" stroke="black" points="270.96,-1193.18 262.97,-1186.22 264.87,-1196.64 270.96,-1193.18"/>
<text text-anchor="middle" x="290" y="-1235.08" font-family="Helvetica,sans-Serif" font-size="14.00">No</text>
</g>
<!-- detcal2&#45;&gt;LoadDiffCal -->
<g id="edge11" class="edge">
<title>detcal2&#45;&gt;LoadDiffCal</title>
<path fill="none" stroke="black" d="M241.78,-933.34C235.15,-921.03 225.92,-903.89 218.2,-889.56"/>
<polygon fill="black" stroke="black" points="221.45,-888.21 213.63,-881.07 215.29,-891.53 221.45,-888.21"/>
<text text-anchor="middle" x="241" y="-901.45" font-family="Helvetica,sans-Serif" font-size="14.00">No</text>
</g>
<!-- detcal2&#45;&gt;MaskDetectors -->
<g id="edge12" class="edge">
<title>detcal2&#45;&gt;MaskDetectors</title>
<path fill="none" stroke="black" d="M257.65,-932.84C265.46,-911.89 276.29,-875.09 270.62,-843.5 269.05,-834.71 266.14,-825.47 263.01,-817.17"/>
<polygon fill="black" stroke="black" points="266.28,-815.93 259.29,-807.97 259.79,-818.56 266.28,-815.93"/>
<text text-anchor="middle" x="282.88" y="-856.83" font-family="Helvetica,sans-Serif" font-size="14.00">Yes</text>
</g>
<!-- detcal3&#45;&gt;ApplyDiffCal -->
<g id="edge15" class="edge">
<title>detcal3&#45;&gt;ApplyDiffCal</title>
<path fill="none" stroke="black" d="M241.41,-699.09C234.49,-686.78 224.87,-669.64 216.82,-655.31"/>
<polygon fill="black" stroke="black" points="219.99,-653.81 212.04,-646.8 213.89,-657.24 219.99,-653.81"/>
<text text-anchor="middle" x="240" y="-667.2" font-family="Helvetica,sans-Serif" font-size="14.00">No</text>
</g>
<!-- detcal3&#45;&gt;ConvertUnits -->
<g id="edge16" class="edge">
<title>detcal3&#45;&gt;ConvertUnits</title>
<path fill="none" stroke="black" d="M258.23,-698.61C266.71,-677.69 278.5,-640.92 272.62,-609.25 271,-600.51 268.1,-591.39 264.93,-583.06"/>
<polygon fill="black" stroke="black" points="268.28,-582 261.25,-574.07 261.8,-584.65 268.28,-582"/>
<text text-anchor="middle" x="284.88" y="-622.58" font-family="Helvetica,sans-Serif" font-size="14.00">Yes</text>
</g>
<!-- edgebinning&#45;&gt;Bin2DPowderDiffraction1 -->
<g id="edge22" class="edge">
<title>edgebinning&#45;&gt;Bin2DPowderDiffraction1</title>
<path fill="none" stroke="black" d="M229.76,-313.4C211.97,-300.31 185.96,-281.17 164.65,-265.49"/>
<polygon fill="black" stroke="black" points="166.88,-262.79 156.75,-259.68 162.73,-268.43 166.88,-262.79"/>
<text text-anchor="middle" x="211.88" y="-280.45" font-family="Helvetica,sans-Serif" font-size="14.00">Yes</text>
</g>
<!-- edgebinning&#45;&gt;Bin2DPowderDiffraction2 -->
<g id="edge23" class="edge">
<title>edgebinning&#45;&gt;Bin2DPowderDiffraction2</title>
<path fill="none" stroke="black" d="M271.66,-313.4C289.6,-300.31 315.81,-281.17 337.3,-265.49"/>
<polygon fill="black" stroke="black" points="339.25,-268.4 345.27,-259.68 335.13,-262.74 339.25,-268.4"/>
<text text-anchor="middle" x="329" y="-280.45" font-family="Helvetica,sans-Serif" font-size="14.00">No</text>
</g>
</g>
</svg>
