<?xml version="1.0" encoding="UTF-8" standalone="no"?>
<!DOCTYPE svg PUBLIC "-//W3C//DTD SVG 1.1//EN"
 "http://www.w3.org/Graphics/SVG/1.1/DTD/svg11.dtd">
<!-- Generated by graphviz version 11.0.0 (20240519.1550)
 -->
<!-- Title: PowderReduceP2D Pages: 1 -->
<svg width="360pt" height="1274pt"
 viewBox="0.00 0.00 360.27 1273.50" xmlns="http://www.w3.org/2000/svg" xmlns:xlink="http://www.w3.org/1999/xlink">
<g id="graph0" class="graph" transform="scale(1 1) rotate(0) translate(4 1269.5)">
<title>PowderReduceP2D</title>
<polygon fill="white" stroke="none" points="-4,4 -4,-1269.5 356.27,-1269.5 356.27,4 -4,4"/>
<text text-anchor="middle" x="176.14" y="-1248.2" font-family="Helvetica,sans-Serif" font-size="14.00">PowderReduceP2D Flowchart</text>
<!-- SampleData -->
<g id="node1" class="node">
<title>SampleData</title>
<ellipse fill="khaki" stroke="black" cx="70.15" cy="-1222.25" rx="70.15" ry="18"/>
<text text-anchor="middle" x="70.15" y="-1217.58" font-family="Helvetica,sans-Serif" font-size="14.00">SampleData</text>
</g>
<!-- ProcessSampleRun -->
<g id="node4" class="node">
<title>ProcessSampleRun</title>
<path fill="lightskyblue" stroke="black" d="M231.9,-1168.25C231.9,-1168.25 76.4,-1168.25 76.4,-1168.25 70.4,-1168.25 64.4,-1162.25 64.4,-1156.25 64.4,-1156.25 64.4,-1137.75 64.4,-1137.75 64.4,-1131.75 70.4,-1125.75 76.4,-1125.75 76.4,-1125.75 231.9,-1125.75 231.9,-1125.75 237.9,-1125.75 243.9,-1131.75 243.9,-1137.75 243.9,-1137.75 243.9,-1156.25 243.9,-1156.25 243.9,-1162.25 237.9,-1168.25 231.9,-1168.25"/>
<text text-anchor="middle" x="154.15" y="-1150.95" font-family="Helvetica,sans-Serif" font-size="14.00">Process Sample Run</text>
<text text-anchor="middle" x="154.15" y="-1133.7" font-family="Helvetica,sans-Serif" font-size="14.00">(see workflow diagram)</text>
</g>
<!-- SampleData&#45;&gt;ProcessSampleRun -->
<g id="edge1" class="edge">
<title>SampleData&#45;&gt;ProcessSampleRun</title>
<path fill="none" stroke="black" d="M89.21,-1204.63C98.83,-1196.24 110.78,-1185.82 121.79,-1176.22"/>
<polygon fill="black" stroke="black" points="123.98,-1178.95 129.21,-1169.74 119.38,-1173.68 123.98,-1178.95"/>
</g>
<!-- CalibrationFile -->
<g id="node2" class="node">
<title>CalibrationFile</title>
<ellipse fill="khaki" stroke="black" cx="238.15" cy="-1222.25" rx="79.62" ry="18"/>
<text text-anchor="middle" x="238.15" y="-1217.58" font-family="Helvetica,sans-Serif" font-size="14.00">CalibrationFile</text>
</g>
<!-- CalibrationFile&#45;&gt;ProcessSampleRun -->
<g id="edge2" class="edge">
<title>CalibrationFile&#45;&gt;ProcessSampleRun</title>
<path fill="none" stroke="black" d="M219.09,-1204.63C209.46,-1196.24 197.52,-1185.82 186.51,-1176.22"/>
<polygon fill="black" stroke="black" points="188.92,-1173.68 179.08,-1169.74 184.32,-1178.95 188.92,-1173.68"/>
</g>
<!-- OutputP2dFile -->
<g id="node3" class="node">
<title>OutputP2dFile</title>
<ellipse fill="khaki" stroke="black" cx="154.15" cy="-18" rx="79.62" ry="18"/>
<text text-anchor="middle" x="154.15" y="-13.32" font-family="Helvetica,sans-Serif" font-size="14.00">OutputP2dFile</text>
</g>
<!-- SamRun -->
<g id="node14" class="node">
<title>SamRun</title>
<polygon fill="grey" stroke="black" points="226.72,-1089.75 111.27,-1089.75 81.58,-1016.75 197.02,-1016.75 226.72,-1089.75"/>
<text text-anchor="middle" x="154.15" y="-1054.2" font-family="Times,serif" font-size="14.00">Processed</text>
<text text-anchor="middle" x="154.15" y="-1039.95" font-family="Times,serif" font-size="14.00">Sample</text>
</g>
<!-- ProcessSampleRun&#45;&gt;SamRun -->
<g id="edge3" class="edge">
<title>ProcessSampleRun&#45;&gt;SamRun</title>
<path fill="none" stroke="black" d="M154.15,-1125.64C154.15,-1118.45 154.15,-1110.04 154.15,-1101.56"/>
<polygon fill="black" stroke="black" points="157.65,-1101.59 154.15,-1091.59 150.65,-1101.59 157.65,-1101.59"/>
</g>
<!-- ProcessCanRun -->
<g id="node5" class="node">
<title>ProcessCanRun</title>
<path fill="lightskyblue" stroke="black" d="M334.9,-842.5C334.9,-842.5 179.4,-842.5 179.4,-842.5 173.4,-842.5 167.4,-836.5 167.4,-830.5 167.4,-830.5 167.4,-812 167.4,-812 167.4,-806 173.4,-800 179.4,-800 179.4,-800 334.9,-800 334.9,-800 340.9,-800 346.9,-806 346.9,-812 346.9,-812 346.9,-830.5 346.9,-830.5 346.9,-836.5 340.9,-842.5 334.9,-842.5"/>
<text text-anchor="middle" x="257.15" y="-825.2" font-family="Helvetica,sans-Serif" font-size="14.00">Process Container Run</text>
<text text-anchor="middle" x="257.15" y="-807.95" font-family="Helvetica,sans-Serif" font-size="14.00">(see workflow diagram)</text>
</g>
<!-- Minus -->
<g id="node6" class="node">
<title>Minus</title>
<path fill="lightskyblue" stroke="black" d="M340.27,-746.75C340.27,-746.75 178.02,-746.75 178.02,-746.75 172.02,-746.75 166.02,-740.75 166.02,-734.75 166.02,-734.75 166.02,-699 166.02,-699 166.02,-693 172.02,-687 178.02,-687 178.02,-687 340.27,-687 340.27,-687 346.27,-687 352.27,-693 352.27,-699 352.27,-699 352.27,-734.75 352.27,-734.75 352.27,-740.75 346.27,-746.75 340.27,-746.75"/>
<text text-anchor="middle" x="259.15" y="-729.45" font-family="Helvetica,sans-Serif" font-size="14.00">Substract Container Run</text>
<text text-anchor="middle" x="259.15" y="-712.2" font-family="Helvetica,sans-Serif" font-size="14.00">from Sample Run</text>
<text text-anchor="middle" x="259.15" y="-694.95" font-family="Helvetica,sans-Serif" font-size="14.00">using Minus v1.</text>
</g>
<!-- ProcessCanRun&#45;&gt;Minus -->
<g id="edge7" class="edge">
<title>ProcessCanRun&#45;&gt;Minus</title>
<path fill="none" stroke="black" d="M257.55,-799.53C257.78,-787.76 258.08,-772.6 258.35,-758.54"/>
<polygon fill="black" stroke="black" points="261.85,-758.68 258.55,-748.61 254.85,-758.54 261.85,-758.68"/>
</g>
<!-- isVanRunDefined -->
<g id="node12" class="node">
<title>isVanRunDefined</title>
<polygon fill="limegreen" stroke="black" points="154.15,-650 24.15,-607.5 154.15,-565 284.15,-607.5 154.15,-650"/>
<text text-anchor="middle" x="154.15" y="-611.45" font-family="Helvetica,sans-Serif" font-size="14.00">Is Vanadium run</text>
<text text-anchor="middle" x="154.15" y="-594.2" font-family="Helvetica,sans-Serif" font-size="14.00">specified?</text>
</g>
<!-- Minus&#45;&gt;isVanRunDefined -->
<g id="edge8" class="edge">
<title>Minus&#45;&gt;isVanRunDefined</title>
<path fill="none" stroke="black" d="M230.46,-686.53C218.9,-674.72 205.39,-660.9 192.98,-648.21"/>
<polygon fill="black" stroke="black" points="195.56,-645.85 186.07,-641.15 190.56,-650.74 195.56,-645.85"/>
</g>
<!-- processVanRun -->
<g id="node7" class="node">
<title>processVanRun</title>
<path fill="lightskyblue" stroke="black" d="M333.9,-511.75C333.9,-511.75 178.4,-511.75 178.4,-511.75 172.4,-511.75 166.4,-505.75 166.4,-499.75 166.4,-499.75 166.4,-481.25 166.4,-481.25 166.4,-475.25 172.4,-469.25 178.4,-469.25 178.4,-469.25 333.9,-469.25 333.9,-469.25 339.9,-469.25 345.9,-475.25 345.9,-481.25 345.9,-481.25 345.9,-499.75 345.9,-499.75 345.9,-505.75 339.9,-511.75 333.9,-511.75"/>
<text text-anchor="middle" x="256.15" y="-494.45" font-family="Helvetica,sans-Serif" font-size="14.00">Process Vanadium Run</text>
<text text-anchor="middle" x="256.15" y="-477.2" font-family="Helvetica,sans-Serif" font-size="14.00">(see workflow diagram)</text>
</g>
<!-- Divide -->
<g id="node8" class="node">
<title>Divide</title>
<path fill="lightskyblue" stroke="black" d="M309.77,-416C309.77,-416 186.52,-416 186.52,-416 180.52,-416 174.52,-410 174.52,-404 174.52,-404 174.52,-368.25 174.52,-368.25 174.52,-362.25 180.52,-356.25 186.52,-356.25 186.52,-356.25 309.77,-356.25 309.77,-356.25 315.77,-356.25 321.77,-362.25 321.77,-368.25 321.77,-368.25 321.77,-404 321.77,-404 321.77,-410 315.77,-416 309.77,-416"/>
<text text-anchor="middle" x="248.15" y="-398.7" font-family="Helvetica,sans-Serif" font-size="14.00">Divide Sample Run</text>
<text text-anchor="middle" x="248.15" y="-381.45" font-family="Helvetica,sans-Serif" font-size="14.00">by Vanadium Run</text>
<text text-anchor="middle" x="248.15" y="-364.2" font-family="Helvetica,sans-Serif" font-size="14.00">using Divide v1.</text>
</g>
<!-- processVanRun&#45;&gt;Divide -->
<g id="edge11" class="edge">
<title>processVanRun&#45;&gt;Divide</title>
<path fill="none" stroke="black" d="M254.53,-468.78C253.61,-457.01 252.42,-441.85 251.33,-427.79"/>
<polygon fill="black" stroke="black" points="254.82,-427.55 250.55,-417.85 247.84,-428.1 254.82,-427.55"/>
</g>
<!-- mustDataPositive -->
<g id="node13" class="node">
<title>mustDataPositive</title>
<polygon fill="limegreen" stroke="black" points="154.15,-319.25 12.15,-276.75 154.15,-234.25 296.15,-276.75 154.15,-319.25"/>
<text text-anchor="middle" x="154.15" y="-280.7" font-family="Helvetica,sans-Serif" font-size="14.00">Does data have to</text>
<text text-anchor="middle" x="154.15" y="-263.45" font-family="Helvetica,sans-Serif" font-size="14.00">be positive?</text>
</g>
<!-- Divide&#45;&gt;mustDataPositive -->
<g id="edge12" class="edge">
<title>Divide&#45;&gt;mustDataPositive</title>
<path fill="none" stroke="black" d="M222.46,-355.78C212.66,-344.59 201.3,-331.61 190.68,-319.48"/>
<polygon fill="black" stroke="black" points="193.34,-317.2 184.12,-311.98 188.07,-321.81 193.34,-317.2"/>
</g>
<!-- resetNegatives2D -->
<g id="node9" class="node">
<title>resetNegatives2D</title>
<path fill="lightskyblue" stroke="black" d="M165.4,-181C165.4,-181 24.9,-181 24.9,-181 18.9,-181 12.9,-175 12.9,-169 12.9,-169 12.9,-157 12.9,-157 12.9,-151 18.9,-145 24.9,-145 24.9,-145 165.4,-145 165.4,-145 171.4,-145 177.4,-151 177.4,-157 177.4,-157 177.4,-169 177.4,-169 177.4,-175 171.4,-181 165.4,-181"/>
<text text-anchor="middle" x="95.15" y="-158.32" font-family="Helvetica,sans-Serif" font-size="14.00">ResetNegatives2D v1</text>
</g>
<!-- SaveP2D -->
<g id="node10" class="node">
<title>SaveP2D</title>
<path fill="lightskyblue" stroke="black" d="M201.9,-108C201.9,-108 106.4,-108 106.4,-108 100.4,-108 94.4,-102 94.4,-96 94.4,-96 94.4,-84 94.4,-84 94.4,-78 100.4,-72 106.4,-72 106.4,-72 201.9,-72 201.9,-72 207.9,-72 213.9,-78 213.9,-84 213.9,-84 213.9,-96 213.9,-96 213.9,-102 207.9,-108 201.9,-108"/>
<text text-anchor="middle" x="154.15" y="-85.33" font-family="Helvetica,sans-Serif" font-size="14.00">Create p2d File</text>
</g>
<!-- resetNegatives2D&#45;&gt;SaveP2D -->
<g id="edge14" class="edge">
<title>resetNegatives2D&#45;&gt;SaveP2D</title>
<path fill="none" stroke="black" d="M109.43,-144.81C116.46,-136.35 125.08,-125.98 132.86,-116.61"/>
<polygon fill="black" stroke="black" points="135.33,-119.12 139.03,-109.19 129.95,-114.65 135.33,-119.12"/>
</g>
<!-- SaveP2D&#45;&gt;OutputP2dFile -->
<g id="edge16" class="edge">
<title>SaveP2D&#45;&gt;OutputP2dFile</title>
<path fill="none" stroke="black" d="M154.15,-71.7C154.15,-64.41 154.15,-55.73 154.15,-47.54"/>
<polygon fill="black" stroke="black" points="157.65,-47.62 154.15,-37.62 150.65,-47.62 157.65,-47.62"/>
</g>
<!-- isCanRunDefined -->
<g id="node11" class="node">
<title>isCanRunDefined</title>
<polygon fill="limegreen" stroke="black" points="154.15,-980.75 27.9,-938.25 154.15,-895.75 280.4,-938.25 154.15,-980.75"/>
<text text-anchor="middle" x="154.15" y="-942.2" font-family="Helvetica,sans-Serif" font-size="14.00">Is container run</text>
<text text-anchor="middle" x="154.15" y="-924.95" font-family="Helvetica,sans-Serif" font-size="14.00">specified?</text>
</g>
<!-- isCanRunDefined&#45;&gt;ProcessCanRun -->
<g id="edge6" class="edge">
<title>isCanRunDefined&#45;&gt;ProcessCanRun</title>
<path fill="none" stroke="black" d="M182.84,-905.22C198.05,-888.24 216.58,-867.55 231.33,-851.08"/>
<polygon fill="black" stroke="black" points="233.59,-853.8 237.65,-844.02 228.37,-849.13 233.59,-853.8"/>
<text text-anchor="middle" x="231.4" y="-864.45" font-family="Helvetica,sans-Serif" font-size="14.00">Yes</text>
</g>
<!-- isCanRunDefined&#45;&gt;isVanRunDefined -->
<g id="edge5" class="edge">
<title>isCanRunDefined&#45;&gt;isVanRunDefined</title>
<path fill="none" stroke="black" d="M154.15,-895.28C154.15,-835.76 154.15,-726.84 154.15,-661.72"/>
<polygon fill="black" stroke="black" points="157.65,-661.99 154.15,-651.99 150.65,-661.99 157.65,-661.99"/>
<text text-anchor="middle" x="163.52" y="-768.7" font-family="Helvetica,sans-Serif" font-size="14.00">No</text>
</g>
<!-- isVanRunDefined&#45;&gt;processVanRun -->
<g id="edge10" class="edge">
<title>isVanRunDefined&#45;&gt;processVanRun</title>
<path fill="none" stroke="black" d="M182.83,-574.16C197.75,-557.34 215.83,-536.95 230.31,-520.63"/>
<polygon fill="black" stroke="black" points="232.92,-522.96 236.94,-513.16 227.68,-518.32 232.92,-522.96"/>
<text text-anchor="middle" x="231.4" y="-533.7" font-family="Helvetica,sans-Serif" font-size="14.00">Yes</text>
</g>
<!-- isVanRunDefined&#45;&gt;mustDataPositive -->
<g id="edge9" class="edge">
<title>isVanRunDefined&#45;&gt;mustDataPositive</title>
<path fill="none" stroke="black" d="M154.15,-564.53C154.15,-505.01 154.15,-396.09 154.15,-330.97"/>
<polygon fill="black" stroke="black" points="157.65,-331.24 154.15,-321.24 150.65,-331.24 157.65,-331.24"/>
<text text-anchor="middle" x="163.52" y="-437.95" font-family="Helvetica,sans-Serif" font-size="14.00">No</text>
</g>
<!-- mustDataPositive&#45;&gt;resetNegatives2D -->
<g id="edge13" class="edge">
<title>mustDataPositive&#45;&gt;resetNegatives2D</title>
<path fill="none" stroke="black" d="M134.99,-239.47C126.71,-223.78 117.18,-205.72 109.51,-191.21"/>
<polygon fill="black" stroke="black" points="112.78,-189.9 105.01,-182.69 106.59,-193.16 112.78,-189.9"/>
<text text-anchor="middle" x="132.4" y="-202.95" font-family="Helvetica,sans-Serif" font-size="14.00">Yes</text>
</g>
<!-- mustDataPositive&#45;&gt;SaveP2D -->
<g id="edge15" class="edge">
<title>mustDataPositive&#45;&gt;SaveP2D</title>
<path fill="none" stroke="black" d="M172.99,-239.54C184.26,-213.22 194.86,-176.78 186.15,-145 183.57,-135.59 178.88,-126.15 173.86,-117.86"/>
<polygon fill="black" stroke="black" points="176.92,-116.14 168.54,-109.66 171.05,-119.95 176.92,-116.14"/>
<text text-anchor="middle" x="199.52" y="-158.32" font-family="Helvetica,sans-Serif" font-size="14.00">No</text>
</g>
<!-- SamRun&#45;&gt;isCanRunDefined -->
<g id="edge4" class="edge">
<title>SamRun&#45;&gt;isCanRunDefined</title>
<path fill="none" stroke="black" d="M154.15,-1016.5C154.15,-1008.85 154.15,-1000.61 154.15,-992.47"/>
<polygon fill="black" stroke="black" points="157.65,-992.6 154.15,-982.6 150.65,-992.6 157.65,-992.6"/>
</g>
</g>
</svg>
