<?xml version="1.0" encoding="UTF-8" standalone="no"?>
<!DOCTYPE svg PUBLIC "-//W3C//DTD SVG 1.1//EN"
 "http://www.w3.org/Graphics/SVG/1.1/DTD/svg11.dtd">
<!-- Generated by graphviz version 7.1.0 (20230122.1345)
 -->
<!-- Title: PowderILLEfficiency Pages: 1 -->
<svg width="698pt" height="665pt"
 viewBox="0.00 0.00 697.85 665.00" xmlns="http://www.w3.org/2000/svg" xmlns:xlink="http://www.w3.org/1999/xlink">
<g id="graph0" class="graph" transform="scale(1 1) rotate(0) translate(4 661)">
<title>PowderILLEfficiency</title>
<polygon fill="white" stroke="none" points="-4,4 -4,-661 693.85,-661 693.85,4 -4,4"/>
<text text-anchor="middle" x="344.92" y="-641.8" font-family="Helvetica,sans-Serif" font-size="14.00">GlobalSummedReference2D Flowchart</text>
<!-- reference -->
<g id="node1" class="node">
<title>reference</title>
<polygon fill="grey" stroke="black" points="689.69,-634 588.37,-634 562.31,-598 663.63,-598 689.69,-634"/>
<text text-anchor="middle" x="626" y="-612.3" font-family="Times,serif" font-size="14.00">reference</text>
</g>
<!-- Divide -->
<g id="node13" class="node">
<title>Divide</title>
<path fill="lightskyblue" stroke="black" d="M389,-561C389,-561 353,-561 353,-561 347,-561 341,-555 341,-549 341,-549 341,-537 341,-537 341,-531 347,-525 353,-525 353,-525 389,-525 389,-525 395,-525 401,-531 401,-537 401,-537 401,-549 401,-549 401,-555 395,-561 389,-561"/>
<text text-anchor="middle" x="371" y="-539.3" font-family="Helvetica,sans-Serif" font-size="14.00">Divide</text>
</g>
<!-- reference&#45;&gt;Divide -->
<g id="edge6" class="edge">
<title>reference&#45;&gt;Divide</title>
<path fill="none" stroke="black" d="M565.17,-602.63C524.1,-593.63 468.62,-580.24 412.35,-561.53"/>
<polygon fill="black" stroke="black" points="413.5,-558.23 402.9,-558.34 411.25,-564.86 413.5,-558.23"/>
</g>
<!-- single_tube -->
<g id="node2" class="node">
<title>single_tube</title>
<polygon fill="grey" stroke="black" points="205.07,-36 85.65,-36 54.93,0 174.35,0 205.07,-36"/>
<text text-anchor="middle" x="130" y="-14.3" font-family="Times,serif" font-size="14.00">single_tube</text>
</g>
<!-- single_tube&#45;&gt;Divide -->
<g id="edge7" class="edge">
<title>single_tube&#45;&gt;Divide</title>
<path fill="none" stroke="black" d="M77.12,-26.61C41.13,-35.13 0,-52.97 0,-90 0,-471 0,-471 0,-471 0,-537.42 232.26,-543.18 329.24,-542.69"/>
<polygon fill="black" stroke="black" points="329.15,-546.19 339.13,-542.61 329.1,-539.19 329.15,-546.19"/>
</g>
<!-- input_data -->
<g id="node3" class="node">
<title>input_data</title>
<polygon fill="grey" stroke="black" points="275.54,-109 163.33,-109 134.46,-73 246.67,-73 275.54,-109"/>
<text text-anchor="middle" x="205" y="-87.3" font-family="Times,serif" font-size="14.00">input_data</text>
</g>
<!-- input_data&#45;&gt;single_tube -->
<g id="edge3" class="edge">
<title>input_data&#45;&gt;single_tube</title>
<path fill="none" stroke="black" d="M186.84,-72.81C177.7,-64.16 166.44,-53.5 156.36,-43.96"/>
<polygon fill="black" stroke="black" points="159.02,-41.65 149.35,-37.32 154.2,-46.73 159.02,-41.65"/>
</g>
<!-- SumOverlappingTubes -->
<g id="node10" class="node">
<title>SumOverlappingTubes</title>
<path fill="lightskyblue" stroke="black" d="M537,-36C537,-36 387,-36 387,-36 381,-36 375,-30 375,-24 375,-24 375,-12 375,-12 375,-6 381,0 387,0 387,0 537,0 537,0 543,0 549,-6 549,-12 549,-12 549,-24 549,-24 549,-30 543,-36 537,-36"/>
<text text-anchor="middle" x="462" y="-14.3" font-family="Helvetica,sans-Serif" font-size="14.00">SumOverlappingTubes</text>
</g>
<!-- input_data&#45;&gt;SumOverlappingTubes -->
<g id="edge4" class="edge">
<title>input_data&#45;&gt;SumOverlappingTubes</title>
<path fill="none" stroke="black" d="M250.65,-77.39C288.68,-66.88 343.59,-51.71 387.91,-39.47"/>
<polygon fill="black" stroke="black" points="388.76,-42.86 397.47,-36.83 386.9,-36.12 388.76,-42.86"/>
</g>
<!-- factor -->
<g id="node4" class="node">
<title>factor</title>
<polygon fill="grey" stroke="black" points="504.98,-342 431.83,-342 413.02,-306 486.17,-306 504.98,-342"/>
<text text-anchor="middle" x="459" y="-320.3" font-family="Times,serif" font-size="14.00">factor</text>
</g>
<!-- Iterate -->
<g id="node5" class="node">
<title>Iterate</title>
<polygon fill="limegreen" stroke="black" points="459,-269 402.02,-251 459,-233 515.98,-251 459,-269"/>
<text text-anchor="middle" x="459" y="-247.3" font-family="Helvetica,sans-Serif" font-size="14.00">Iterate</text>
</g>
<!-- factor&#45;&gt;Iterate -->
<g id="edge12" class="edge">
<title>factor&#45;&gt;Iterate</title>
<path fill="none" stroke="black" d="M459,-305.81C459,-298.34 459,-289.37 459,-280.92"/>
<polygon fill="black" stroke="black" points="462.5,-281.04 459,-271.04 455.5,-281.04 462.5,-281.04"/>
</g>
<!-- OutputWorkspace -->
<g id="node8" class="node">
<title>OutputWorkspace</title>
<ellipse fill="khaki" stroke="black" cx="494" cy="-164" rx="91.78" ry="18"/>
<text text-anchor="middle" x="494" y="-160.3" font-family="Helvetica,sans-Serif" font-size="14.00">OutputWorkspace</text>
</g>
<!-- Iterate&#45;&gt;OutputWorkspace -->
<g id="edge15" class="edge">
<title>Iterate&#45;&gt;OutputWorkspace</title>
<path fill="none" stroke="black" d="M465.26,-234.8C470.04,-223.2 476.75,-206.88 482.49,-192.94"/>
<polygon fill="black" stroke="black" points="485.68,-194.39 486.26,-183.81 479.21,-191.72 485.68,-194.39"/>
<text text-anchor="middle" x="487.5" y="-203.8" font-family="Helvetica,sans-Serif" font-size="14.00">No</text>
</g>
<!-- ApplyDetectorScanEffCorr -->
<g id="node11" class="node">
<title>ApplyDetectorScanEffCorr</title>
<path fill="lightskyblue" stroke="black" d="M372.5,-182C372.5,-182 199.5,-182 199.5,-182 193.5,-182 187.5,-176 187.5,-170 187.5,-170 187.5,-158 187.5,-158 187.5,-152 193.5,-146 199.5,-146 199.5,-146 372.5,-146 372.5,-146 378.5,-146 384.5,-152 384.5,-158 384.5,-158 384.5,-170 384.5,-170 384.5,-176 378.5,-182 372.5,-182"/>
<text text-anchor="middle" x="286" y="-160.3" font-family="Helvetica,sans-Serif" font-size="14.00">ApplyDetectorScanEffCorr</text>
</g>
<!-- Iterate&#45;&gt;ApplyDetectorScanEffCorr -->
<g id="edge13" class="edge">
<title>Iterate&#45;&gt;ApplyDetectorScanEffCorr</title>
<path fill="none" stroke="black" d="M437.44,-239.41C411.09,-226.46 365.79,-204.21 331.59,-187.4"/>
<polygon fill="black" stroke="black" points="333.24,-184.31 322.72,-183.04 330.15,-190.59 333.24,-184.31"/>
<text text-anchor="middle" x="394.5" y="-203.8" font-family="Helvetica,sans-Serif" font-size="14.00">Yes</text>
</g>
<!-- CalibrationRun -->
<g id="node6" class="node">
<title>CalibrationRun</title>
<ellipse fill="khaki" stroke="black" cx="105" cy="-251" rx="77.19" ry="18"/>
<text text-anchor="middle" x="105" y="-247.3" font-family="Helvetica,sans-Serif" font-size="14.00">CalibrationRun</text>
</g>
<!-- LoadILLDiffraction -->
<g id="node9" class="node">
<title>LoadILLDiffraction</title>
<path fill="lightskyblue" stroke="black" d="M157.5,-182C157.5,-182 40.5,-182 40.5,-182 34.5,-182 28.5,-176 28.5,-170 28.5,-170 28.5,-158 28.5,-158 28.5,-152 34.5,-146 40.5,-146 40.5,-146 157.5,-146 157.5,-146 163.5,-146 169.5,-152 169.5,-158 169.5,-158 169.5,-170 169.5,-170 169.5,-176 163.5,-182 157.5,-182"/>
<text text-anchor="middle" x="99" y="-160.3" font-family="Helvetica,sans-Serif" font-size="14.00">LoadILLDiffraction</text>
</g>
<!-- CalibrationRun&#45;&gt;LoadILLDiffraction -->
<g id="edge1" class="edge">
<title>CalibrationRun&#45;&gt;LoadILLDiffraction</title>
<path fill="none" stroke="black" d="M103.79,-232.8C102.99,-221.58 101.94,-206.67 101.02,-193.69"/>
<polygon fill="black" stroke="black" points="104.54,-193.71 100.34,-183.98 97.55,-194.2 104.54,-193.71"/>
</g>
<!-- ExcludedRange -->
<g id="node7" class="node">
<title>ExcludedRange</title>
<ellipse fill="khaki" stroke="black" cx="500" cy="-543" rx="81.49" ry="18"/>
<text text-anchor="middle" x="500" y="-539.3" font-family="Helvetica,sans-Serif" font-size="14.00">ExcludedRange</text>
</g>
<!-- MaskBins -->
<g id="node12" class="node">
<title>MaskBins</title>
<path fill="lightskyblue" stroke="black" d="M488.5,-488C488.5,-488 429.5,-488 429.5,-488 423.5,-488 417.5,-482 417.5,-476 417.5,-476 417.5,-464 417.5,-464 417.5,-458 423.5,-452 429.5,-452 429.5,-452 488.5,-452 488.5,-452 494.5,-452 500.5,-458 500.5,-464 500.5,-464 500.5,-476 500.5,-476 500.5,-482 494.5,-488 488.5,-488"/>
<text text-anchor="middle" x="459" y="-466.3" font-family="Helvetica,sans-Serif" font-size="14.00">MaskBins</text>
</g>
<!-- ExcludedRange&#45;&gt;MaskBins -->
<g id="edge9" class="edge">
<title>ExcludedRange&#45;&gt;MaskBins</title>
<path fill="none" stroke="black" d="M490.08,-524.81C485.39,-516.7 479.69,-506.84 474.46,-497.78"/>
<polygon fill="black" stroke="black" points="477.62,-496.25 469.59,-489.34 471.56,-499.75 477.62,-496.25"/>
</g>
<!-- LoadILLDiffraction&#45;&gt;input_data -->
<g id="edge2" class="edge">
<title>LoadILLDiffraction&#45;&gt;input_data</title>
<path fill="none" stroke="black" d="M124.93,-145.63C138.41,-136.61 155.07,-125.44 169.7,-115.64"/>
<polygon fill="black" stroke="black" points="171.35,-118.75 177.71,-110.28 167.46,-112.93 171.35,-118.75"/>
</g>
<!-- SumOverlappingTubes&#45;&gt;reference -->
<g id="edge5" class="edge">
<title>SumOverlappingTubes&#45;&gt;reference</title>
<path fill="none" stroke="black" d="M549.1,-29.29C583.06,-38.62 614,-56.36 614,-90 614,-544 614,-544 614,-544 614,-558.17 616.35,-573.7 618.97,-586.62"/>
<polygon fill="black" stroke="black" points="615.5,-587.14 621.07,-596.15 622.34,-585.63 615.5,-587.14"/>
</g>
<!-- ApplyDetectorScanEffCorr&#45;&gt;input_data -->
<g id="edge14" class="edge">
<title>ApplyDetectorScanEffCorr&#45;&gt;input_data</title>
<path fill="none" stroke="black" d="M266.39,-145.81C256.42,-137.07 244.11,-126.28 233.15,-116.67"/>
<polygon fill="black" stroke="black" points="235.67,-114.23 225.85,-110.27 231.06,-119.5 235.67,-114.23"/>
</g>
<!-- Median -->
<g id="node14" class="node">
<title>Median</title>
<polygon fill="lightseagreen" stroke="black" points="492.5,-415 425.5,-415 425.5,-379 492.5,-379 492.5,-415"/>
<text text-anchor="middle" x="459" y="-393.3" font-family="Helvetica,sans-Serif" font-size="14.00">Median</text>
</g>
<!-- MaskBins&#45;&gt;Median -->
<g id="edge10" class="edge">
<title>MaskBins&#45;&gt;Median</title>
<path fill="none" stroke="black" d="M459,-451.81C459,-444.23 459,-435.1 459,-426.54"/>
<polygon fill="black" stroke="black" points="462.5,-426.54 459,-416.54 455.5,-426.54 462.5,-426.54"/>
</g>
<!-- Divide&#45;&gt;MaskBins -->
<g id="edge8" class="edge">
<title>Divide&#45;&gt;MaskBins</title>
<path fill="none" stroke="black" d="M392.3,-524.81C403.25,-515.98 416.77,-505.07 428.77,-495.39"/>
<polygon fill="black" stroke="black" points="430.83,-498.23 436.41,-489.23 426.43,-492.78 430.83,-498.23"/>
</g>
<!-- Median&#45;&gt;factor -->
<g id="edge11" class="edge">
<title>Median&#45;&gt;factor</title>
<path fill="none" stroke="black" d="M459,-378.81C459,-371.23 459,-362.1 459,-353.54"/>
<polygon fill="black" stroke="black" points="462.5,-353.54 459,-343.54 455.5,-353.54 462.5,-353.54"/>
</g>
</g>
</svg>
