<?xml version="1.0" encoding="UTF-8" standalone="no"?>
<!DOCTYPE svg PUBLIC "-//W3C//DTD SVG 1.1//EN"
 "http://www.w3.org/Graphics/SVG/1.1/DTD/svg11.dtd">
<!-- Generated by graphviz version 7.1.0 (20230122.1345)
 -->
<!-- Title: PowderReduceP2D_ProcessCanRun Pages: 1 -->
<svg width="486pt" height="815pt"
 viewBox="0.00 0.00 485.50 815.00" xmlns="http://www.w3.org/2000/svg" xmlns:xlink="http://www.w3.org/1999/xlink">
<g id="graph0" class="graph" transform="scale(1 1) rotate(0) translate(4 811)">
<title>PowderReduceP2D_ProcessCanRun</title>
<polygon fill="white" stroke="none" points="-4,4 -4,-811 481.5,-811 481.5,4 -4,4"/>
<text text-anchor="middle" x="238.75" y="-791.8" font-family="Helvetica,sans-Serif" font-size="14.00">Process Can Run Workflow</text>
<!-- CanData -->
<g id="node1" class="node">
<title>CanData</title>
<ellipse fill="khaki" stroke="black" cx="252" cy="-766" rx="49.29" ry="18"/>
<text text-anchor="middle" x="252" y="-762.3" font-family="Helvetica,sans-Serif" font-size="14.00">CanData</text>
</g>
<!-- FindDetectorsPar -->
<g id="node3" class="node">
<title>FindDetectorsPar</title>
<path fill="lightskyblue" stroke="black" d="M317.5,-711C317.5,-711 186.5,-711 186.5,-711 180.5,-711 174.5,-705 174.5,-699 174.5,-699 174.5,-687 174.5,-687 174.5,-681 180.5,-675 186.5,-675 186.5,-675 317.5,-675 317.5,-675 323.5,-675 329.5,-681 329.5,-687 329.5,-687 329.5,-699 329.5,-699 329.5,-705 323.5,-711 317.5,-711"/>
<text text-anchor="middle" x="252" y="-689.3" font-family="Helvetica,sans-Serif" font-size="14.00">FindDetectorsPar v1</text>
</g>
<!-- CanData&#45;&gt;FindDetectorsPar -->
<g id="edge1" class="edge">
<title>CanData&#45;&gt;FindDetectorsPar</title>
<path fill="none" stroke="black" d="M252,-747.81C252,-740.23 252,-731.1 252,-722.54"/>
<polygon fill="black" stroke="black" points="255.5,-722.54 252,-712.54 248.5,-722.54 255.5,-722.54"/>
</g>
<!-- OutputWorkspace -->
<g id="node2" class="node">
<title>OutputWorkspace</title>
<ellipse fill="khaki" stroke="black" cx="251" cy="-18" rx="91.78" ry="18"/>
<text text-anchor="middle" x="251" y="-14.3" font-family="Helvetica,sans-Serif" font-size="14.00">OutputWorkspace</text>
</g>
<!-- FilterBadPulses -->
<g id="node4" class="node">
<title>FilterBadPulses</title>
<path fill="lightskyblue" stroke="black" d="M311.5,-638C311.5,-638 192.5,-638 192.5,-638 186.5,-638 180.5,-632 180.5,-626 180.5,-626 180.5,-614 180.5,-614 180.5,-608 186.5,-602 192.5,-602 192.5,-602 311.5,-602 311.5,-602 317.5,-602 323.5,-608 323.5,-614 323.5,-614 323.5,-626 323.5,-626 323.5,-632 317.5,-638 311.5,-638"/>
<text text-anchor="middle" x="252" y="-616.3" font-family="Helvetica,sans-Serif" font-size="14.00">FilterBadPulses v1</text>
</g>
<!-- FindDetectorsPar&#45;&gt;FilterBadPulses -->
<g id="edge2" class="edge">
<title>FindDetectorsPar&#45;&gt;FilterBadPulses</title>
<path fill="none" stroke="black" d="M252,-674.81C252,-667.23 252,-658.1 252,-649.54"/>
<polygon fill="black" stroke="black" points="255.5,-649.54 252,-639.54 248.5,-649.54 255.5,-649.54"/>
</g>
<!-- RemovePromptPulse -->
<g id="node5" class="node">
<title>RemovePromptPulse</title>
<path fill="lightskyblue" stroke="black" d="M330,-565C330,-565 174,-565 174,-565 168,-565 162,-559 162,-553 162,-553 162,-541 162,-541 162,-535 168,-529 174,-529 174,-529 330,-529 330,-529 336,-529 342,-535 342,-541 342,-541 342,-553 342,-553 342,-559 336,-565 330,-565"/>
<text text-anchor="middle" x="252" y="-543.3" font-family="Helvetica,sans-Serif" font-size="14.00">RemovePromptPulse v1</text>
</g>
<!-- FilterBadPulses&#45;&gt;RemovePromptPulse -->
<g id="edge3" class="edge">
<title>FilterBadPulses&#45;&gt;RemovePromptPulse</title>
<path fill="none" stroke="black" d="M252,-601.81C252,-594.23 252,-585.1 252,-576.54"/>
<polygon fill="black" stroke="black" points="255.5,-576.54 252,-566.54 248.5,-576.54 255.5,-576.54"/>
</g>
<!-- LoadDiffCal -->
<g id="node6" class="node">
<title>LoadDiffCal</title>
<path fill="lightskyblue" stroke="black" d="M298.5,-492C298.5,-492 205.5,-492 205.5,-492 199.5,-492 193.5,-486 193.5,-480 193.5,-480 193.5,-468 193.5,-468 193.5,-462 199.5,-456 205.5,-456 205.5,-456 298.5,-456 298.5,-456 304.5,-456 310.5,-462 310.5,-468 310.5,-468 310.5,-480 310.5,-480 310.5,-486 304.5,-492 298.5,-492"/>
<text text-anchor="middle" x="252" y="-470.3" font-family="Helvetica,sans-Serif" font-size="14.00">LoadDiffCal v1</text>
</g>
<!-- RemovePromptPulse&#45;&gt;LoadDiffCal -->
<g id="edge4" class="edge">
<title>RemovePromptPulse&#45;&gt;LoadDiffCal</title>
<path fill="none" stroke="black" d="M252,-528.81C252,-521.23 252,-512.1 252,-503.54"/>
<polygon fill="black" stroke="black" points="255.5,-503.54 252,-493.54 248.5,-503.54 255.5,-503.54"/>
</g>
<!-- MaskDetectors -->
<g id="node7" class="node">
<title>MaskDetectors</title>
<path fill="lightskyblue" stroke="black" d="M310.5,-419C310.5,-419 193.5,-419 193.5,-419 187.5,-419 181.5,-413 181.5,-407 181.5,-407 181.5,-395 181.5,-395 181.5,-389 187.5,-383 193.5,-383 193.5,-383 310.5,-383 310.5,-383 316.5,-383 322.5,-389 322.5,-395 322.5,-395 322.5,-407 322.5,-407 322.5,-413 316.5,-419 310.5,-419"/>
<text text-anchor="middle" x="252" y="-397.3" font-family="Helvetica,sans-Serif" font-size="14.00">MaskDetectors v1</text>
</g>
<!-- LoadDiffCal&#45;&gt;MaskDetectors -->
<g id="edge5" class="edge">
<title>LoadDiffCal&#45;&gt;MaskDetectors</title>
<path fill="none" stroke="black" d="M252,-455.81C252,-448.23 252,-439.1 252,-430.54"/>
<polygon fill="black" stroke="black" points="255.5,-430.54 252,-420.54 248.5,-430.54 255.5,-430.54"/>
</g>
<!-- AlignDetectors -->
<g id="node8" class="node">
<title>AlignDetectors</title>
<path fill="lightskyblue" stroke="black" d="M310,-346C310,-346 194,-346 194,-346 188,-346 182,-340 182,-334 182,-334 182,-322 182,-322 182,-316 188,-310 194,-310 194,-310 310,-310 310,-310 316,-310 322,-316 322,-322 322,-322 322,-334 322,-334 322,-340 316,-346 310,-346"/>
<text text-anchor="middle" x="252" y="-324.3" font-family="Helvetica,sans-Serif" font-size="14.00">AlignDetectors v1</text>
</g>
<!-- MaskDetectors&#45;&gt;AlignDetectors -->
<g id="edge6" class="edge">
<title>MaskDetectors&#45;&gt;AlignDetectors</title>
<path fill="none" stroke="black" d="M252,-382.81C252,-375.23 252,-366.1 252,-357.54"/>
<polygon fill="black" stroke="black" points="255.5,-357.54 252,-347.54 248.5,-357.54 255.5,-357.54"/>
</g>
<!-- ConvertUnits -->
<g id="node9" class="node">
<title>ConvertUnits</title>
<path fill="lightskyblue" stroke="black" d="M332.5,-273C332.5,-273 171.5,-273 171.5,-273 165.5,-273 159.5,-267 159.5,-261 159.5,-261 159.5,-247 159.5,-247 159.5,-241 165.5,-235 171.5,-235 171.5,-235 332.5,-235 332.5,-235 338.5,-235 344.5,-241 344.5,-247 344.5,-247 344.5,-261 344.5,-261 344.5,-267 338.5,-273 332.5,-273"/>
<text text-anchor="middle" x="252" y="-257.8" font-family="Helvetica,sans-Serif" font-size="14.00">ConvertUnits v1</text>
<text text-anchor="middle" x="252" y="-242.8" font-family="Helvetica,sans-Serif" font-size="14.00">with target &#39;Wavelength&#39;</text>
</g>
<!-- AlignDetectors&#45;&gt;ConvertUnits -->
<g id="edge7" class="edge">
<title>AlignDetectors&#45;&gt;ConvertUnits</title>
<path fill="none" stroke="black" d="M252,-309.57C252,-302.1 252,-293.17 252,-284.71"/>
<polygon fill="black" stroke="black" points="255.5,-284.79 252,-274.79 248.5,-284.79 255.5,-284.79"/>
</g>
<!-- edgebinning -->
<g id="node12" class="node">
<title>edgebinning</title>
<polygon fill="limegreen" stroke="black" points="252,-198 73.87,-180 252,-162 430.13,-180 252,-198"/>
<text text-anchor="middle" x="252" y="-176.3" font-family="Helvetica,sans-Serif" font-size="14.00">Is edgebinning specified?</text>
</g>
<!-- ConvertUnits&#45;&gt;edgebinning -->
<g id="edge8" class="edge">
<title>ConvertUnits&#45;&gt;edgebinning</title>
<path fill="none" stroke="black" d="M252,-234.83C252,-227.24 252,-218.24 252,-209.79"/>
<polygon fill="black" stroke="black" points="255.5,-209.93 252,-199.93 248.5,-209.93 255.5,-209.93"/>
</g>
<!-- Bin2DPowderDiffraction1 -->
<g id="node10" class="node">
<title>Bin2DPowderDiffraction1</title>
<path fill="lightskyblue" stroke="black" d="M244,-111C244,-111 12,-111 12,-111 6,-111 0,-105 0,-99 0,-99 0,-85 0,-85 0,-79 6,-73 12,-73 12,-73 244,-73 244,-73 250,-73 256,-79 256,-85 256,-85 256,-99 256,-99 256,-105 250,-111 244,-111"/>
<text text-anchor="middle" x="128" y="-95.8" font-family="Helvetica,sans-Serif" font-size="14.00">Bin2DPowderDiffraction v1</text>
<text text-anchor="middle" x="128" y="-80.8" font-family="Helvetica,sans-Serif" font-size="14.00">using a specified edgebinning file.</text>
</g>
<!-- Bin2DPowderDiffraction1&#45;&gt;OutputWorkspace -->
<g id="edge11" class="edge">
<title>Bin2DPowderDiffraction1&#45;&gt;OutputWorkspace</title>
<path fill="none" stroke="black" d="M159.36,-72.65C175.66,-63.1 195.72,-51.36 212.91,-41.3"/>
<polygon fill="black" stroke="black" points="214.48,-44.44 221.34,-36.36 210.94,-38.39 214.48,-44.44"/>
</g>
<!-- Bin2DPowderDiffraction2 -->
<g id="node11" class="node">
<title>Bin2DPowderDiffraction2</title>
<path fill="lightskyblue" stroke="black" d="M465.5,-111C465.5,-111 286.5,-111 286.5,-111 280.5,-111 274.5,-105 274.5,-99 274.5,-99 274.5,-85 274.5,-85 274.5,-79 280.5,-73 286.5,-73 286.5,-73 465.5,-73 465.5,-73 471.5,-73 477.5,-79 477.5,-85 477.5,-85 477.5,-99 477.5,-99 477.5,-105 471.5,-111 465.5,-111"/>
<text text-anchor="middle" x="376" y="-95.8" font-family="Helvetica,sans-Serif" font-size="14.00">Bin2DPowderDiffraction v1</text>
<text text-anchor="middle" x="376" y="-80.8" font-family="Helvetica,sans-Serif" font-size="14.00">using logbinning.</text>
</g>
<!-- Bin2DPowderDiffraction2&#45;&gt;OutputWorkspace -->
<g id="edge12" class="edge">
<title>Bin2DPowderDiffraction2&#45;&gt;OutputWorkspace</title>
<path fill="none" stroke="black" d="M344.13,-72.65C327.45,-63.03 306.89,-51.19 289.33,-41.08"/>
<polygon fill="black" stroke="black" points="291.12,-38.07 280.71,-36.11 287.63,-44.14 291.12,-38.07"/>
</g>
<!-- edgebinning&#45;&gt;Bin2DPowderDiffraction1 -->
<g id="edge9" class="edge">
<title>edgebinning&#45;&gt;Bin2DPowderDiffraction1</title>
<path fill="none" stroke="black" d="M230.12,-163.82C211.79,-151.11 185.26,-132.71 163.84,-117.86"/>
<polygon fill="black" stroke="black" points="165.86,-115 155.65,-112.17 161.87,-120.75 165.86,-115"/>
<text text-anchor="middle" x="213.5" y="-132.8" font-family="Helvetica,sans-Serif" font-size="14.00">Yes</text>
</g>
<!-- edgebinning&#45;&gt;Bin2DPowderDiffraction2 -->
<g id="edge10" class="edge">
<title>edgebinning&#45;&gt;Bin2DPowderDiffraction2</title>
<path fill="none" stroke="black" d="M273.88,-163.82C292.21,-151.11 318.74,-132.71 340.16,-117.86"/>
<polygon fill="black" stroke="black" points="342.13,-120.75 348.35,-112.17 338.14,-115 342.13,-120.75"/>
<text text-anchor="middle" x="330.5" y="-132.8" font-family="Helvetica,sans-Serif" font-size="14.00">No</text>
</g>
</g>
</svg>
