<?xml version="1.0" encoding="UTF-8" standalone="no"?>
<!DOCTYPE svg PUBLIC "-//W3C//DTD SVG 1.1//EN"
 "http://www.w3.org/Graphics/SVG/1.1/DTD/svg11.dtd">
<!-- Generated by graphviz version 7.1.0 (20230122.1345)
 -->
<!-- Title: PowderReduceP2D_ProcessCanRun Pages: 1 -->
<svg width="486pt" height="1309pt"
 viewBox="0.00 0.00 485.50 1309.00" xmlns="http://www.w3.org/2000/svg" xmlns:xlink="http://www.w3.org/1999/xlink">
<g id="graph0" class="graph" transform="scale(1 1) rotate(0) translate(4 1305)">
<title>PowderReduceP2D_ProcessCanRun</title>
<polygon fill="white" stroke="none" points="-4,4 -4,-1305 481.5,-1305 481.5,4 -4,4"/>
<text text-anchor="middle" x="238.75" y="-1285.8" font-family="Helvetica,sans-Serif" font-size="14.00">Process Can Run Workflow</text>
<!-- SampleData -->
<g id="node1" class="node">
<title>SampleData</title>
<ellipse fill="khaki" stroke="black" cx="254" cy="-1260" rx="65.79" ry="18"/>
<text text-anchor="middle" x="254" y="-1256.3" font-family="Helvetica,sans-Serif" font-size="14.00">SampleData</text>
</g>
<!-- maskFile -->
<g id="node14" class="node">
<title>maskFile</title>
<polygon fill="limegreen" stroke="black" points="254,-1205 77.54,-1187 254,-1169 430.46,-1187 254,-1205"/>
<text text-anchor="middle" x="254" y="-1183.3" font-family="Helvetica,sans-Serif" font-size="14.00">Is masking file specified?</text>
</g>
<!-- SampleData&#45;&gt;maskFile -->
<g id="edge1" class="edge">
<title>SampleData&#45;&gt;maskFile</title>
<path fill="none" stroke="black" d="M254,-1241.81C254,-1234.23 254,-1225.1 254,-1216.54"/>
<polygon fill="black" stroke="black" points="257.5,-1216.54 254,-1206.54 250.5,-1216.54 257.5,-1216.54"/>
</g>
<!-- OutputWorkspace -->
<g id="node2" class="node">
<title>OutputWorkspace</title>
<ellipse fill="khaki" stroke="black" cx="251" cy="-18" rx="91.78" ry="18"/>
<text text-anchor="middle" x="251" y="-14.3" font-family="Helvetica,sans-Serif" font-size="14.00">OutputWorkspace</text>
</g>
<!-- LoadMask -->
<g id="node3" class="node">
<title>LoadMask</title>
<path fill="lightskyblue" stroke="black" d="M250.5,-1118C250.5,-1118 167.5,-1118 167.5,-1118 161.5,-1118 155.5,-1112 155.5,-1106 155.5,-1106 155.5,-1094 155.5,-1094 155.5,-1088 161.5,-1082 167.5,-1082 167.5,-1082 250.5,-1082 250.5,-1082 256.5,-1082 262.5,-1088 262.5,-1094 262.5,-1094 262.5,-1106 262.5,-1106 262.5,-1112 256.5,-1118 250.5,-1118"/>
<text text-anchor="middle" x="209" y="-1096.3" font-family="Helvetica,sans-Serif" font-size="14.00">LoadMask v1</text>
</g>
<!-- detcal -->
<g id="node15" class="node">
<title>detcal</title>
<polygon fill="limegreen" stroke="black" points="254,-1045 34.14,-1027 254,-1009 473.86,-1027 254,-1045"/>
<text text-anchor="middle" x="254" y="-1023.3" font-family="Helvetica,sans-Serif" font-size="14.00">Is calibration file of type detcal?</text>
</g>
<!-- LoadMask&#45;&gt;detcal -->
<g id="edge4" class="edge">
<title>LoadMask&#45;&gt;detcal</title>
<path fill="none" stroke="black" d="M219.89,-1081.81C225.17,-1073.49 231.61,-1063.33 237.47,-1054.08"/>
<polygon fill="black" stroke="black" points="240.31,-1056.14 242.71,-1045.82 234.4,-1052.39 240.31,-1056.14"/>
</g>
<!-- LoadDetcal -->
<g id="node4" class="node">
<title>LoadDetcal</title>
<path fill="lightskyblue" stroke="black" d="M260.5,-958C260.5,-958 135.5,-958 135.5,-958 129.5,-958 123.5,-952 123.5,-946 123.5,-946 123.5,-934 123.5,-934 123.5,-928 129.5,-922 135.5,-922 135.5,-922 260.5,-922 260.5,-922 266.5,-922 272.5,-928 272.5,-934 272.5,-934 272.5,-946 272.5,-946 272.5,-952 266.5,-958 260.5,-958"/>
<text text-anchor="middle" x="198" y="-936.3" font-family="Helvetica,sans-Serif" font-size="14.00">LoadIsawDetCal v1</text>
</g>
<!-- FindDetectorsPar -->
<g id="node5" class="node">
<title>FindDetectorsPar</title>
<path fill="lightskyblue" stroke="black" d="M318.5,-885C318.5,-885 187.5,-885 187.5,-885 181.5,-885 175.5,-879 175.5,-873 175.5,-873 175.5,-861 175.5,-861 175.5,-855 181.5,-849 187.5,-849 187.5,-849 318.5,-849 318.5,-849 324.5,-849 330.5,-855 330.5,-861 330.5,-861 330.5,-873 330.5,-873 330.5,-879 324.5,-885 318.5,-885"/>
<text text-anchor="middle" x="253" y="-863.3" font-family="Helvetica,sans-Serif" font-size="14.00">FindDetectorsPar v1</text>
</g>
<!-- LoadDetcal&#45;&gt;FindDetectorsPar -->
<g id="edge7" class="edge">
<title>LoadDetcal&#45;&gt;FindDetectorsPar</title>
<path fill="none" stroke="black" d="M211.31,-921.81C217.8,-913.44 225.73,-903.2 232.93,-893.9"/>
<polygon fill="black" stroke="black" points="235.52,-896.27 238.88,-886.23 229.99,-891.99 235.52,-896.27"/>
</g>
<!-- FilterBadPulses -->
<g id="node6" class="node">
<title>FilterBadPulses</title>
<path fill="lightskyblue" stroke="black" d="M312.5,-812C312.5,-812 193.5,-812 193.5,-812 187.5,-812 181.5,-806 181.5,-800 181.5,-800 181.5,-788 181.5,-788 181.5,-782 187.5,-776 193.5,-776 193.5,-776 312.5,-776 312.5,-776 318.5,-776 324.5,-782 324.5,-788 324.5,-788 324.5,-800 324.5,-800 324.5,-806 318.5,-812 312.5,-812"/>
<text text-anchor="middle" x="253" y="-790.3" font-family="Helvetica,sans-Serif" font-size="14.00">FilterBadPulses v1</text>
</g>
<!-- FindDetectorsPar&#45;&gt;FilterBadPulses -->
<g id="edge8" class="edge">
<title>FindDetectorsPar&#45;&gt;FilterBadPulses</title>
<path fill="none" stroke="black" d="M253,-848.81C253,-841.23 253,-832.1 253,-823.54"/>
<polygon fill="black" stroke="black" points="256.5,-823.54 253,-813.54 249.5,-823.54 256.5,-823.54"/>
</g>
<!-- RemovePromptPulse -->
<g id="node7" class="node">
<title>RemovePromptPulse</title>
<path fill="lightskyblue" stroke="black" d="M331,-739C331,-739 175,-739 175,-739 169,-739 163,-733 163,-727 163,-727 163,-715 163,-715 163,-709 169,-703 175,-703 175,-703 331,-703 331,-703 337,-703 343,-709 343,-715 343,-715 343,-727 343,-727 343,-733 337,-739 331,-739"/>
<text text-anchor="middle" x="253" y="-717.3" font-family="Helvetica,sans-Serif" font-size="14.00">RemovePromptPulse v1</text>
</g>
<!-- FilterBadPulses&#45;&gt;RemovePromptPulse -->
<g id="edge9" class="edge">
<title>FilterBadPulses&#45;&gt;RemovePromptPulse</title>
<path fill="none" stroke="black" d="M253,-775.81C253,-768.23 253,-759.1 253,-750.54"/>
<polygon fill="black" stroke="black" points="256.5,-750.54 253,-740.54 249.5,-750.54 256.5,-750.54"/>
</g>
<!-- detcal2 -->
<g id="node16" class="node">
<title>detcal2</title>
<polygon fill="limegreen" stroke="black" points="253,-666 33.14,-648 253,-630 472.86,-648 253,-666"/>
<text text-anchor="middle" x="253" y="-644.3" font-family="Helvetica,sans-Serif" font-size="14.00">Is calibration file of type detcal?</text>
</g>
<!-- RemovePromptPulse&#45;&gt;detcal2 -->
<g id="edge10" class="edge">
<title>RemovePromptPulse&#45;&gt;detcal2</title>
<path fill="none" stroke="black" d="M253,-702.81C253,-695.23 253,-686.1 253,-677.54"/>
<polygon fill="black" stroke="black" points="256.5,-677.54 253,-667.54 249.5,-677.54 256.5,-677.54"/>
</g>
<!-- LoadDiffCal -->
<g id="node8" class="node">
<title>LoadDiffCal</title>
<path fill="lightskyblue" stroke="black" d="M251.5,-579C251.5,-579 158.5,-579 158.5,-579 152.5,-579 146.5,-573 146.5,-567 146.5,-567 146.5,-555 146.5,-555 146.5,-549 152.5,-543 158.5,-543 158.5,-543 251.5,-543 251.5,-543 257.5,-543 263.5,-549 263.5,-555 263.5,-555 263.5,-567 263.5,-567 263.5,-573 257.5,-579 251.5,-579"/>
<text text-anchor="middle" x="205" y="-557.3" font-family="Helvetica,sans-Serif" font-size="14.00">LoadDiffCal v1</text>
</g>
<!-- MaskDetectors -->
<g id="node9" class="node">
<title>MaskDetectors</title>
<path fill="lightskyblue" stroke="black" d="M310.5,-506C310.5,-506 193.5,-506 193.5,-506 187.5,-506 181.5,-500 181.5,-494 181.5,-494 181.5,-482 181.5,-482 181.5,-476 187.5,-470 193.5,-470 193.5,-470 310.5,-470 310.5,-470 316.5,-470 322.5,-476 322.5,-482 322.5,-482 322.5,-494 322.5,-494 322.5,-500 316.5,-506 310.5,-506"/>
<text text-anchor="middle" x="252" y="-484.3" font-family="Helvetica,sans-Serif" font-size="14.00">MaskDetectors v1</text>
</g>
<!-- LoadDiffCal&#45;&gt;MaskDetectors -->
<g id="edge13" class="edge">
<title>LoadDiffCal&#45;&gt;MaskDetectors</title>
<path fill="none" stroke="black" d="M216.38,-542.81C221.8,-534.62 228.42,-524.62 234.47,-515.48"/>
<polygon fill="black" stroke="black" points="237.29,-517.56 239.89,-507.29 231.45,-513.7 237.29,-517.56"/>
</g>
<!-- detcal3 -->
<g id="node17" class="node">
<title>detcal3</title>
<polygon fill="limegreen" stroke="black" points="252,-433 32.14,-415 252,-397 471.86,-415 252,-433"/>
<text text-anchor="middle" x="252" y="-411.3" font-family="Helvetica,sans-Serif" font-size="14.00">Is calibration file of type detcal?</text>
</g>
<!-- MaskDetectors&#45;&gt;detcal3 -->
<g id="edge14" class="edge">
<title>MaskDetectors&#45;&gt;detcal3</title>
<path fill="none" stroke="black" d="M252,-469.81C252,-462.23 252,-453.1 252,-444.54"/>
<polygon fill="black" stroke="black" points="255.5,-444.54 252,-434.54 248.5,-444.54 255.5,-444.54"/>
</g>
<!-- ApplyDiffCal -->
<g id="node10" class="node">
<title>ApplyDiffCal</title>
<path fill="lightskyblue" stroke="black" d="M253,-346C253,-346 153,-346 153,-346 147,-346 141,-340 141,-334 141,-334 141,-322 141,-322 141,-316 147,-310 153,-310 153,-310 253,-310 253,-310 259,-310 265,-316 265,-322 265,-322 265,-334 265,-334 265,-340 259,-346 253,-346"/>
<text text-anchor="middle" x="203" y="-324.3" font-family="Helvetica,sans-Serif" font-size="14.00">ApplyDiffCal v1</text>
</g>
<!-- ConvertUnits -->
<g id="node11" class="node">
<title>ConvertUnits</title>
<path fill="lightskyblue" stroke="black" d="M332.5,-273C332.5,-273 171.5,-273 171.5,-273 165.5,-273 159.5,-267 159.5,-261 159.5,-261 159.5,-247 159.5,-247 159.5,-241 165.5,-235 171.5,-235 171.5,-235 332.5,-235 332.5,-235 338.5,-235 344.5,-241 344.5,-247 344.5,-247 344.5,-261 344.5,-261 344.5,-267 338.5,-273 332.5,-273"/>
<text text-anchor="middle" x="252" y="-257.8" font-family="Helvetica,sans-Serif" font-size="14.00">ConvertUnits v1</text>
<text text-anchor="middle" x="252" y="-242.8" font-family="Helvetica,sans-Serif" font-size="14.00">with target &#39;Wavelength&#39;</text>
</g>
<!-- ApplyDiffCal&#45;&gt;ConvertUnits -->
<g id="edge17" class="edge">
<title>ApplyDiffCal&#45;&gt;ConvertUnits</title>
<path fill="none" stroke="black" d="M214.86,-309.57C220.35,-301.5 227.01,-291.72 233.16,-282.68"/>
<polygon fill="black" stroke="black" points="235.98,-284.76 238.71,-274.52 230.19,-280.82 235.98,-284.76"/>
</g>
<!-- edgebinning -->
<g id="node18" class="node">
<title>edgebinning</title>
<polygon fill="limegreen" stroke="black" points="252,-198 73.87,-180 252,-162 430.13,-180 252,-198"/>
<text text-anchor="middle" x="252" y="-176.3" font-family="Helvetica,sans-Serif" font-size="14.00">Is edgebinning specified?</text>
</g>
<!-- ConvertUnits&#45;&gt;edgebinning -->
<g id="edge18" class="edge">
<title>ConvertUnits&#45;&gt;edgebinning</title>
<path fill="none" stroke="black" d="M252,-234.83C252,-227.24 252,-218.24 252,-209.79"/>
<polygon fill="black" stroke="black" points="255.5,-209.93 252,-199.93 248.5,-209.93 255.5,-209.93"/>
</g>
<!-- Bin2DPowderDiffraction1 -->
<g id="node12" class="node">
<title>Bin2DPowderDiffraction1</title>
<path fill="lightskyblue" stroke="black" d="M244,-111C244,-111 12,-111 12,-111 6,-111 0,-105 0,-99 0,-99 0,-85 0,-85 0,-79 6,-73 12,-73 12,-73 244,-73 244,-73 250,-73 256,-79 256,-85 256,-85 256,-99 256,-99 256,-105 250,-111 244,-111"/>
<text text-anchor="middle" x="128" y="-95.8" font-family="Helvetica,sans-Serif" font-size="14.00">Bin2DPowderDiffraction v1</text>
<text text-anchor="middle" x="128" y="-80.8" font-family="Helvetica,sans-Serif" font-size="14.00">using a specified edgebinning file.</text>
</g>
<!-- Bin2DPowderDiffraction1&#45;&gt;OutputWorkspace -->
<g id="edge21" class="edge">
<title>Bin2DPowderDiffraction1&#45;&gt;OutputWorkspace</title>
<path fill="none" stroke="black" d="M159.36,-72.65C175.66,-63.1 195.72,-51.36 212.91,-41.3"/>
<polygon fill="black" stroke="black" points="214.48,-44.44 221.34,-36.36 210.94,-38.39 214.48,-44.44"/>
</g>
<!-- Bin2DPowderDiffraction2 -->
<g id="node13" class="node">
<title>Bin2DPowderDiffraction2</title>
<path fill="lightskyblue" stroke="black" d="M465.5,-111C465.5,-111 286.5,-111 286.5,-111 280.5,-111 274.5,-105 274.5,-99 274.5,-99 274.5,-85 274.5,-85 274.5,-79 280.5,-73 286.5,-73 286.5,-73 465.5,-73 465.5,-73 471.5,-73 477.5,-79 477.5,-85 477.5,-85 477.5,-99 477.5,-99 477.5,-105 471.5,-111 465.5,-111"/>
<text text-anchor="middle" x="376" y="-95.8" font-family="Helvetica,sans-Serif" font-size="14.00">Bin2DPowderDiffraction v1</text>
<text text-anchor="middle" x="376" y="-80.8" font-family="Helvetica,sans-Serif" font-size="14.00">using logbinning.</text>
</g>
<!-- Bin2DPowderDiffraction2&#45;&gt;OutputWorkspace -->
<g id="edge22" class="edge">
<title>Bin2DPowderDiffraction2&#45;&gt;OutputWorkspace</title>
<path fill="none" stroke="black" d="M344.13,-72.65C327.45,-63.03 306.89,-51.19 289.33,-41.08"/>
<polygon fill="black" stroke="black" points="291.12,-38.07 280.71,-36.11 287.63,-44.14 291.12,-38.07"/>
</g>
<!-- maskFile&#45;&gt;LoadMask -->
<g id="edge2" class="edge">
<title>maskFile&#45;&gt;LoadMask</title>
<path fill="none" stroke="black" d="M245.32,-1169.61C239.1,-1157.85 230.56,-1141.73 223.33,-1128.07"/>
<polygon fill="black" stroke="black" points="226.59,-1126.75 218.82,-1119.55 220.41,-1130.03 226.59,-1126.75"/>
<text text-anchor="middle" x="246.5" y="-1139.8" font-family="Helvetica,sans-Serif" font-size="14.00">Yes</text>
</g>
<!-- maskFile&#45;&gt;detcal -->
<g id="edge3" class="edge">
<title>maskFile&#45;&gt;detcal</title>
<path fill="none" stroke="black" d="M260.3,-1169.45C267.3,-1148.94 277.02,-1112.93 272,-1082 270.56,-1073.15 267.88,-1063.79 265.02,-1055.39"/>
<polygon fill="black" stroke="black" points="268.35,-1054.29 261.63,-1046.09 261.77,-1056.69 268.35,-1054.29"/>
<text text-anchor="middle" x="283.5" y="-1096.3" font-family="Helvetica,sans-Serif" font-size="14.00">No</text>
</g>
<!-- detcal&#45;&gt;LoadDetcal -->
<g id="edge5" class="edge">
<title>detcal&#45;&gt;LoadDetcal</title>
<path fill="none" stroke="black" d="M243.2,-1009.61C235.38,-997.73 224.62,-981.41 215.57,-967.67"/>
<polygon fill="black" stroke="black" points="218.6,-965.9 210.17,-959.48 212.75,-969.75 218.6,-965.9"/>
<text text-anchor="middle" x="241.5" y="-979.8" font-family="Helvetica,sans-Serif" font-size="14.00">Yes</text>
</g>
<!-- detcal&#45;&gt;FindDetectorsPar -->
<g id="edge6" class="edge">
<title>detcal&#45;&gt;FindDetectorsPar</title>
<path fill="none" stroke="black" d="M263.45,-1009.47C273.97,-988.98 288.56,-952.99 281,-922 278.75,-912.77 274.62,-903.35 270.21,-895.02"/>
<polygon fill="black" stroke="black" points="273.33,-893.43 265.35,-886.47 267.25,-896.89 273.33,-893.43"/>
<text text-anchor="middle" x="293.5" y="-936.3" font-family="Helvetica,sans-Serif" font-size="14.00">No</text>
</g>
<!-- detcal2&#45;&gt;LoadDiffCal -->
<g id="edge11" class="edge">
<title>detcal2&#45;&gt;LoadDiffCal</title>
<path fill="none" stroke="black" d="M243.75,-630.61C237.1,-618.85 228,-602.73 220.28,-589.07"/>
<polygon fill="black" stroke="black" points="223.43,-587.52 215.46,-580.53 217.33,-590.96 223.43,-587.52"/>
<text text-anchor="middle" x="241.5" y="-600.8" font-family="Helvetica,sans-Serif" font-size="14.00">No</text>
</g>
<!-- detcal2&#45;&gt;MaskDetectors -->
<g id="edge12" class="edge">
<title>detcal2&#45;&gt;MaskDetectors</title>
<path fill="none" stroke="black" d="M260.07,-630.44C267.93,-609.92 278.8,-573.9 273,-543 271.34,-534.16 268.28,-524.92 265,-516.62"/>
<polygon fill="black" stroke="black" points="268.22,-515.26 261.09,-507.42 261.78,-517.99 268.22,-515.26"/>
<text text-anchor="middle" x="286.5" y="-557.3" font-family="Helvetica,sans-Serif" font-size="14.00">Yes</text>
</g>
<!-- detcal3&#45;&gt;ApplyDiffCal -->
<g id="edge15" class="edge">
<title>detcal3&#45;&gt;ApplyDiffCal</title>
<path fill="none" stroke="black" d="M242.55,-397.61C235.77,-385.85 226.48,-369.73 218.6,-356.07"/>
<polygon fill="black" stroke="black" points="221.71,-354.44 213.68,-347.53 215.64,-357.94 221.71,-354.44"/>
<text text-anchor="middle" x="240.5" y="-367.8" font-family="Helvetica,sans-Serif" font-size="14.00">No</text>
</g>
<!-- detcal3&#45;&gt;ConvertUnits -->
<g id="edge16" class="edge">
<title>detcal3&#45;&gt;ConvertUnits</title>
<path fill="none" stroke="black" d="M259.64,-397.47C268.15,-376.98 279.97,-340.99 274,-310 272.3,-301.15 269.18,-291.92 265.82,-283.6"/>
<polygon fill="black" stroke="black" points="269.15,-282.48 261.96,-274.69 262.73,-285.26 269.15,-282.48"/>
<text text-anchor="middle" x="287.5" y="-324.3" font-family="Helvetica,sans-Serif" font-size="14.00">Yes</text>
</g>
<!-- edgebinning&#45;&gt;Bin2DPowderDiffraction1 -->
<g id="edge19" class="edge">
<title>edgebinning&#45;&gt;Bin2DPowderDiffraction1</title>
<path fill="none" stroke="black" d="M230.12,-163.82C211.79,-151.11 185.26,-132.71 163.84,-117.86"/>
<polygon fill="black" stroke="black" points="165.86,-115 155.65,-112.17 161.87,-120.75 165.86,-115"/>
<text text-anchor="middle" x="213.5" y="-132.8" font-family="Helvetica,sans-Serif" font-size="14.00">Yes</text>
</g>
<!-- edgebinning&#45;&gt;Bin2DPowderDiffraction2 -->
<g id="edge20" class="edge">
<title>edgebinning&#45;&gt;Bin2DPowderDiffraction2</title>
<path fill="none" stroke="black" d="M273.88,-163.82C292.21,-151.11 318.74,-132.71 340.16,-117.86"/>
<polygon fill="black" stroke="black" points="342.13,-120.75 348.35,-112.17 338.14,-115 342.13,-120.75"/>
<text text-anchor="middle" x="330.5" y="-132.8" font-family="Helvetica,sans-Serif" font-size="14.00">No</text>
</g>
</g>
</svg>
