<?xml version="1.0" encoding="UTF-8" standalone="no"?>
<!DOCTYPE svg PUBLIC "-//W3C//DTD SVG 1.1//EN"
 "http://www.w3.org/Graphics/SVG/1.1/DTD/svg11.dtd">
<!-- Generated by graphviz version 7.1.0 (20230122.1345)
 -->
<!-- Title: PowderReduceP2D_ProcessVanRun Pages: 1 -->
<svg width="486pt" height="1107pt"
 viewBox="0.00 0.00 485.50 1107.00" xmlns="http://www.w3.org/2000/svg" xmlns:xlink="http://www.w3.org/1999/xlink">
<g id="graph0" class="graph" transform="scale(1 1) rotate(0) translate(4 1103)">
<title>PowderReduceP2D_ProcessVanRun</title>
<polygon fill="white" stroke="none" points="-4,4 -4,-1103 481.5,-1103 481.5,4 -4,4"/>
<text text-anchor="middle" x="238.75" y="-1083.8" font-family="Helvetica,sans-Serif" font-size="14.00">Process Vanadium Run Workflow</text>
<!-- VanadiumData -->
<g id="node1" class="node">
<title>VanadiumData</title>
<ellipse fill="khaki" stroke="black" cx="252" cy="-1058" rx="76.89" ry="18"/>
<text text-anchor="middle" x="252" y="-1054.3" font-family="Helvetica,sans-Serif" font-size="14.00">VanadiumData</text>
</g>
<!-- FindDetectorsPar -->
<g id="node3" class="node">
<title>FindDetectorsPar</title>
<path fill="lightskyblue" stroke="black" d="M317.5,-1003C317.5,-1003 186.5,-1003 186.5,-1003 180.5,-1003 174.5,-997 174.5,-991 174.5,-991 174.5,-979 174.5,-979 174.5,-973 180.5,-967 186.5,-967 186.5,-967 317.5,-967 317.5,-967 323.5,-967 329.5,-973 329.5,-979 329.5,-979 329.5,-991 329.5,-991 329.5,-997 323.5,-1003 317.5,-1003"/>
<text text-anchor="middle" x="252" y="-981.3" font-family="Helvetica,sans-Serif" font-size="14.00">FindDetectorsPar v1</text>
</g>
<!-- VanadiumData&#45;&gt;FindDetectorsPar -->
<g id="edge1" class="edge">
<title>VanadiumData&#45;&gt;FindDetectorsPar</title>
<path fill="none" stroke="black" d="M252,-1039.81C252,-1032.23 252,-1023.1 252,-1014.54"/>
<polygon fill="black" stroke="black" points="255.5,-1014.54 252,-1004.54 248.5,-1014.54 255.5,-1014.54"/>
</g>
<!-- OutputWorkspace -->
<g id="node2" class="node">
<title>OutputWorkspace</title>
<ellipse fill="khaki" stroke="black" cx="251" cy="-18" rx="91.78" ry="18"/>
<text text-anchor="middle" x="251" y="-14.3" font-family="Helvetica,sans-Serif" font-size="14.00">OutputWorkspace</text>
</g>
<!-- FilterBadPulses -->
<g id="node4" class="node">
<title>FilterBadPulses</title>
<path fill="lightskyblue" stroke="black" d="M311.5,-930C311.5,-930 192.5,-930 192.5,-930 186.5,-930 180.5,-924 180.5,-918 180.5,-918 180.5,-906 180.5,-906 180.5,-900 186.5,-894 192.5,-894 192.5,-894 311.5,-894 311.5,-894 317.5,-894 323.5,-900 323.5,-906 323.5,-906 323.5,-918 323.5,-918 323.5,-924 317.5,-930 311.5,-930"/>
<text text-anchor="middle" x="252" y="-908.3" font-family="Helvetica,sans-Serif" font-size="14.00">FilterBadPulses v1</text>
</g>
<!-- FindDetectorsPar&#45;&gt;FilterBadPulses -->
<g id="edge2" class="edge">
<title>FindDetectorsPar&#45;&gt;FilterBadPulses</title>
<path fill="none" stroke="black" d="M252,-966.81C252,-959.23 252,-950.1 252,-941.54"/>
<polygon fill="black" stroke="black" points="255.5,-941.54 252,-931.54 248.5,-941.54 255.5,-941.54"/>
</g>
<!-- RemovePromptPulse -->
<g id="node5" class="node">
<title>RemovePromptPulse</title>
<path fill="lightskyblue" stroke="black" d="M330,-857C330,-857 174,-857 174,-857 168,-857 162,-851 162,-845 162,-845 162,-833 162,-833 162,-827 168,-821 174,-821 174,-821 330,-821 330,-821 336,-821 342,-827 342,-833 342,-833 342,-845 342,-845 342,-851 336,-857 330,-857"/>
<text text-anchor="middle" x="252" y="-835.3" font-family="Helvetica,sans-Serif" font-size="14.00">RemovePromptPulse v1</text>
</g>
<!-- FilterBadPulses&#45;&gt;RemovePromptPulse -->
<g id="edge3" class="edge">
<title>FilterBadPulses&#45;&gt;RemovePromptPulse</title>
<path fill="none" stroke="black" d="M252,-893.81C252,-886.23 252,-877.1 252,-868.54"/>
<polygon fill="black" stroke="black" points="255.5,-868.54 252,-858.54 248.5,-868.54 255.5,-868.54"/>
</g>
<!-- LoadDiffCal -->
<g id="node6" class="node">
<title>LoadDiffCal</title>
<path fill="lightskyblue" stroke="black" d="M298.5,-784C298.5,-784 205.5,-784 205.5,-784 199.5,-784 193.5,-778 193.5,-772 193.5,-772 193.5,-760 193.5,-760 193.5,-754 199.5,-748 205.5,-748 205.5,-748 298.5,-748 298.5,-748 304.5,-748 310.5,-754 310.5,-760 310.5,-760 310.5,-772 310.5,-772 310.5,-778 304.5,-784 298.5,-784"/>
<text text-anchor="middle" x="252" y="-762.3" font-family="Helvetica,sans-Serif" font-size="14.00">LoadDiffCal v1</text>
</g>
<!-- RemovePromptPulse&#45;&gt;LoadDiffCal -->
<g id="edge4" class="edge">
<title>RemovePromptPulse&#45;&gt;LoadDiffCal</title>
<path fill="none" stroke="black" d="M252,-820.81C252,-813.23 252,-804.1 252,-795.54"/>
<polygon fill="black" stroke="black" points="255.5,-795.54 252,-785.54 248.5,-795.54 255.5,-795.54"/>
</g>
<!-- MaskDetectors -->
<g id="node7" class="node">
<title>MaskDetectors</title>
<path fill="lightskyblue" stroke="black" d="M310.5,-711C310.5,-711 193.5,-711 193.5,-711 187.5,-711 181.5,-705 181.5,-699 181.5,-699 181.5,-687 181.5,-687 181.5,-681 187.5,-675 193.5,-675 193.5,-675 310.5,-675 310.5,-675 316.5,-675 322.5,-681 322.5,-687 322.5,-687 322.5,-699 322.5,-699 322.5,-705 316.5,-711 310.5,-711"/>
<text text-anchor="middle" x="252" y="-689.3" font-family="Helvetica,sans-Serif" font-size="14.00">MaskDetectors v1</text>
</g>
<!-- LoadDiffCal&#45;&gt;MaskDetectors -->
<g id="edge5" class="edge">
<title>LoadDiffCal&#45;&gt;MaskDetectors</title>
<path fill="none" stroke="black" d="M252,-747.81C252,-740.23 252,-731.1 252,-722.54"/>
<polygon fill="black" stroke="black" points="255.5,-722.54 252,-712.54 248.5,-722.54 255.5,-722.54"/>
</g>
<!-- AlignDetectors -->
<g id="node8" class="node">
<title>AlignDetectors</title>
<path fill="lightskyblue" stroke="black" d="M310,-638C310,-638 194,-638 194,-638 188,-638 182,-632 182,-626 182,-626 182,-614 182,-614 182,-608 188,-602 194,-602 194,-602 310,-602 310,-602 316,-602 322,-608 322,-614 322,-614 322,-626 322,-626 322,-632 316,-638 310,-638"/>
<text text-anchor="middle" x="252" y="-616.3" font-family="Helvetica,sans-Serif" font-size="14.00">AlignDetectors v1</text>
</g>
<!-- MaskDetectors&#45;&gt;AlignDetectors -->
<g id="edge6" class="edge">
<title>MaskDetectors&#45;&gt;AlignDetectors</title>
<path fill="none" stroke="black" d="M252,-674.81C252,-667.23 252,-658.1 252,-649.54"/>
<polygon fill="black" stroke="black" points="255.5,-649.54 252,-639.54 248.5,-649.54 255.5,-649.54"/>
</g>
<!-- ConvertUnits -->
<g id="node9" class="node">
<title>ConvertUnits</title>
<path fill="lightskyblue" stroke="black" d="M332.5,-565C332.5,-565 171.5,-565 171.5,-565 165.5,-565 159.5,-559 159.5,-553 159.5,-553 159.5,-539 159.5,-539 159.5,-533 165.5,-527 171.5,-527 171.5,-527 332.5,-527 332.5,-527 338.5,-527 344.5,-533 344.5,-539 344.5,-539 344.5,-553 344.5,-553 344.5,-559 338.5,-565 332.5,-565"/>
<text text-anchor="middle" x="252" y="-549.8" font-family="Helvetica,sans-Serif" font-size="14.00">ConvertUnits v1</text>
<text text-anchor="middle" x="252" y="-534.8" font-family="Helvetica,sans-Serif" font-size="14.00">with target &#39;Wavelength&#39;</text>
</g>
<!-- AlignDetectors&#45;&gt;ConvertUnits -->
<g id="edge7" class="edge">
<title>AlignDetectors&#45;&gt;ConvertUnits</title>
<path fill="none" stroke="black" d="M252,-601.57C252,-594.1 252,-585.17 252,-576.71"/>
<polygon fill="black" stroke="black" points="255.5,-576.79 252,-566.79 248.5,-576.79 255.5,-576.79"/>
</g>
<!-- CylinderAbsorption -->
<g id="node10" class="node">
<title>CylinderAbsorption</title>
<path fill="lightskyblue" stroke="black" d="M326,-490C326,-490 178,-490 178,-490 172,-490 166,-484 166,-478 166,-478 166,-466 166,-466 166,-460 172,-454 178,-454 178,-454 326,-454 326,-454 332,-454 338,-460 338,-466 338,-466 338,-478 338,-478 338,-484 332,-490 326,-490"/>
<text text-anchor="middle" x="252" y="-468.3" font-family="Helvetica,sans-Serif" font-size="14.00">CylinderAbsorption v1</text>
</g>
<!-- ConvertUnits&#45;&gt;CylinderAbsorption -->
<g id="edge8" class="edge">
<title>ConvertUnits&#45;&gt;CylinderAbsorption</title>
<path fill="none" stroke="black" d="M252,-526.83C252,-519.24 252,-510.24 252,-501.79"/>
<polygon fill="black" stroke="black" points="255.5,-501.93 252,-491.93 248.5,-501.93 255.5,-501.93"/>
</g>
<!-- Divide -->
<g id="node11" class="node">
<title>Divide</title>
<path fill="lightskyblue" stroke="black" d="M281,-417C281,-417 223,-417 223,-417 217,-417 211,-411 211,-405 211,-405 211,-393 211,-393 211,-387 217,-381 223,-381 223,-381 281,-381 281,-381 287,-381 293,-387 293,-393 293,-393 293,-405 293,-405 293,-411 287,-417 281,-417"/>
<text text-anchor="middle" x="252" y="-395.3" font-family="Helvetica,sans-Serif" font-size="14.00">Divide v1</text>
</g>
<!-- CylinderAbsorption&#45;&gt;Divide -->
<g id="edge9" class="edge">
<title>CylinderAbsorption&#45;&gt;Divide</title>
<path fill="none" stroke="black" d="M252,-453.81C252,-446.23 252,-437.1 252,-428.54"/>
<polygon fill="black" stroke="black" points="255.5,-428.54 252,-418.54 248.5,-428.54 255.5,-428.54"/>
</g>
<!-- edgebinning -->
<g id="node16" class="node">
<title>edgebinning</title>
<polygon fill="limegreen" stroke="black" points="252,-344 73.87,-326 252,-308 430.13,-326 252,-344"/>
<text text-anchor="middle" x="252" y="-322.3" font-family="Helvetica,sans-Serif" font-size="14.00">Is edgebinning specified?</text>
</g>
<!-- Divide&#45;&gt;edgebinning -->
<g id="edge10" class="edge">
<title>Divide&#45;&gt;edgebinning</title>
<path fill="none" stroke="black" d="M252,-380.81C252,-373.23 252,-364.1 252,-355.54"/>
<polygon fill="black" stroke="black" points="255.5,-355.54 252,-345.54 248.5,-355.54 255.5,-355.54"/>
</g>
<!-- Bin2DPowderDiffraction1 -->
<g id="node12" class="node">
<title>Bin2DPowderDiffraction1</title>
<path fill="lightskyblue" stroke="black" d="M244,-257C244,-257 12,-257 12,-257 6,-257 0,-251 0,-245 0,-245 0,-231 0,-231 0,-225 6,-219 12,-219 12,-219 244,-219 244,-219 250,-219 256,-225 256,-231 256,-231 256,-245 256,-245 256,-251 250,-257 244,-257"/>
<text text-anchor="middle" x="128" y="-241.8" font-family="Helvetica,sans-Serif" font-size="14.00">Bin2DPowderDiffraction v1</text>
<text text-anchor="middle" x="128" y="-226.8" font-family="Helvetica,sans-Serif" font-size="14.00">using a specified edgebinning file.</text>
</g>
<!-- StripVanadiumPeaks -->
<g id="node14" class="node">
<title>StripVanadiumPeaks</title>
<path fill="lightskyblue" stroke="black" d="M329.5,-182C329.5,-182 172.5,-182 172.5,-182 166.5,-182 160.5,-176 160.5,-170 160.5,-170 160.5,-158 160.5,-158 160.5,-152 166.5,-146 172.5,-146 172.5,-146 329.5,-146 329.5,-146 335.5,-146 341.5,-152 341.5,-158 341.5,-158 341.5,-170 341.5,-170 341.5,-176 335.5,-182 329.5,-182"/>
<text text-anchor="middle" x="251" y="-160.3" font-family="Helvetica,sans-Serif" font-size="14.00">StripVanadiumPeaks v2</text>
</g>
<!-- Bin2DPowderDiffraction1&#45;&gt;StripVanadiumPeaks -->
<g id="edge13" class="edge">
<title>Bin2DPowderDiffraction1&#45;&gt;StripVanadiumPeaks</title>
<path fill="none" stroke="black" d="M159.36,-218.65C175.3,-209.31 194.84,-197.87 211.77,-187.96"/>
<polygon fill="black" stroke="black" points="213.23,-191.17 220.09,-183.09 209.69,-185.13 213.23,-191.17"/>
</g>
<!-- Bin2DPowderDiffraction2 -->
<g id="node13" class="node">
<title>Bin2DPowderDiffraction2</title>
<path fill="lightskyblue" stroke="black" d="M465.5,-257C465.5,-257 286.5,-257 286.5,-257 280.5,-257 274.5,-251 274.5,-245 274.5,-245 274.5,-231 274.5,-231 274.5,-225 280.5,-219 286.5,-219 286.5,-219 465.5,-219 465.5,-219 471.5,-219 477.5,-225 477.5,-231 477.5,-231 477.5,-245 477.5,-245 477.5,-251 471.5,-257 465.5,-257"/>
<text text-anchor="middle" x="376" y="-241.8" font-family="Helvetica,sans-Serif" font-size="14.00">Bin2DPowderDiffraction v1</text>
<text text-anchor="middle" x="376" y="-226.8" font-family="Helvetica,sans-Serif" font-size="14.00">using logbinning.</text>
</g>
<!-- Bin2DPowderDiffraction2&#45;&gt;StripVanadiumPeaks -->
<g id="edge14" class="edge">
<title>Bin2DPowderDiffraction2&#45;&gt;StripVanadiumPeaks</title>
<path fill="none" stroke="black" d="M344.13,-218.65C327.93,-209.31 308.07,-197.87 290.87,-187.96"/>
<polygon fill="black" stroke="black" points="292.81,-185.04 282.4,-183.09 289.32,-191.11 292.81,-185.04"/>
</g>
<!-- FFTSmooth -->
<g id="node15" class="node">
<title>FFTSmooth</title>
<path fill="lightskyblue" stroke="black" d="M297,-109C297,-109 205,-109 205,-109 199,-109 193,-103 193,-97 193,-97 193,-85 193,-85 193,-79 199,-73 205,-73 205,-73 297,-73 297,-73 303,-73 309,-79 309,-85 309,-85 309,-97 309,-97 309,-103 303,-109 297,-109"/>
<text text-anchor="middle" x="251" y="-87.3" font-family="Helvetica,sans-Serif" font-size="14.00">FFTSmooth v2</text>
</g>
<!-- StripVanadiumPeaks&#45;&gt;FFTSmooth -->
<g id="edge15" class="edge">
<title>StripVanadiumPeaks&#45;&gt;FFTSmooth</title>
<path fill="none" stroke="black" d="M251,-145.81C251,-138.23 251,-129.1 251,-120.54"/>
<polygon fill="black" stroke="black" points="254.5,-120.54 251,-110.54 247.5,-120.54 254.5,-120.54"/>
</g>
<!-- FFTSmooth&#45;&gt;OutputWorkspace -->
<g id="edge16" class="edge">
<title>FFTSmooth&#45;&gt;OutputWorkspace</title>
<path fill="none" stroke="black" d="M251,-72.81C251,-65.23 251,-56.1 251,-47.54"/>
<polygon fill="black" stroke="black" points="254.5,-47.54 251,-37.54 247.5,-47.54 254.5,-47.54"/>
</g>
<!-- edgebinning&#45;&gt;Bin2DPowderDiffraction1 -->
<g id="edge11" class="edge">
<title>edgebinning&#45;&gt;Bin2DPowderDiffraction1</title>
<path fill="none" stroke="black" d="M230.12,-309.82C211.79,-297.11 185.26,-278.71 163.84,-263.86"/>
<polygon fill="black" stroke="black" points="165.86,-261 155.65,-258.17 161.87,-266.75 165.86,-261"/>
<text text-anchor="middle" x="213.5" y="-278.8" font-family="Helvetica,sans-Serif" font-size="14.00">Yes</text>
</g>
<!-- edgebinning&#45;&gt;Bin2DPowderDiffraction2 -->
<g id="edge12" class="edge">
<title>edgebinning&#45;&gt;Bin2DPowderDiffraction2</title>
<path fill="none" stroke="black" d="M273.88,-309.82C292.21,-297.11 318.74,-278.71 340.16,-263.86"/>
<polygon fill="black" stroke="black" points="342.13,-266.75 348.35,-258.17 338.14,-261 342.13,-266.75"/>
<text text-anchor="middle" x="330.5" y="-278.8" font-family="Helvetica,sans-Serif" font-size="14.00">No</text>
</g>
</g>
</svg>
