<?xml version="1.0" encoding="UTF-8" standalone="no"?>
<!DOCTYPE svg PUBLIC "-//W3C//DTD SVG 1.1//EN"
 "http://www.w3.org/Graphics/SVG/1.1/DTD/svg11.dtd">
<!-- Generated by graphviz version 12.0.0 (20240803.0821)
 -->
<!-- Title: PowderReduceP2D Pages: 1 -->
<svg width="360pt" height="1278pt"
 viewBox="0.00 0.00 360.27 1277.50" xmlns="http://www.w3.org/2000/svg" xmlns:xlink="http://www.w3.org/1999/xlink">
<g id="graph0" class="graph" transform="scale(1 1) rotate(0) translate(4 1273.5)">
<title>PowderReduceP2D</title>
<polygon fill="white" stroke="none" points="-4,4 -4,-1273.5 356.27,-1273.5 356.27,4 -4,4"/>
<text text-anchor="middle" x="176.14" y="-1252.2" font-family="Helvetica,sans-Serif" font-size="14.00">PowderReduceP2D Flowchart</text>
<!-- SampleData -->
<g id="node1" class="node">
<title>SampleData</title>
<ellipse fill="khaki" stroke="black" cx="70.15" cy="-1226.25" rx="70.15" ry="18"/>
<text text-anchor="middle" x="70.15" y="-1221.58" font-family="Helvetica,sans-Serif" font-size="14.00">SampleData</text>
</g>
<!-- ProcessSampleRun -->
<g id="node4" class="node">
<title>ProcessSampleRun</title>
<path fill="lightskyblue" stroke="black" d="M231.9,-1171.25C231.9,-1171.25 76.4,-1171.25 76.4,-1171.25 70.4,-1171.25 64.4,-1165.25 64.4,-1159.25 64.4,-1159.25 64.4,-1140.75 64.4,-1140.75 64.4,-1134.75 70.4,-1128.75 76.4,-1128.75 76.4,-1128.75 231.9,-1128.75 231.9,-1128.75 237.9,-1128.75 243.9,-1134.75 243.9,-1140.75 243.9,-1140.75 243.9,-1159.25 243.9,-1159.25 243.9,-1165.25 237.9,-1171.25 231.9,-1171.25"/>
<text text-anchor="middle" x="154.15" y="-1153.95" font-family="Helvetica,sans-Serif" font-size="14.00">Process Sample Run</text>
<text text-anchor="middle" x="154.15" y="-1136.7" font-family="Helvetica,sans-Serif" font-size="14.00">(see workflow diagram)</text>
</g>
<!-- SampleData&#45;&gt;ProcessSampleRun -->
<g id="edge1" class="edge">
<title>SampleData&#45;&gt;ProcessSampleRun</title>
<path fill="none" stroke="black" d="M88.79,-1208.77C98.65,-1200.06 111.03,-1189.11 122.35,-1179.1"/>
<polygon fill="black" stroke="black" points="124.44,-1181.93 129.62,-1172.69 119.8,-1176.69 124.44,-1181.93"/>
</g>
<!-- CalibrationFile -->
<g id="node2" class="node">
<title>CalibrationFile</title>
<ellipse fill="khaki" stroke="black" cx="238.15" cy="-1226.25" rx="79.62" ry="18"/>
<text text-anchor="middle" x="238.15" y="-1221.58" font-family="Helvetica,sans-Serif" font-size="14.00">CalibrationFile</text>
</g>
<!-- CalibrationFile&#45;&gt;ProcessSampleRun -->
<g id="edge2" class="edge">
<title>CalibrationFile&#45;&gt;ProcessSampleRun</title>
<path fill="none" stroke="black" d="M219.09,-1208.4C209.21,-1199.67 196.9,-1188.79 185.65,-1178.85"/>
<polygon fill="black" stroke="black" points="188.27,-1176.49 178.46,-1172.49 183.63,-1181.73 188.27,-1176.49"/>
</g>
<!-- OutputP2dFile -->
<g id="node3" class="node">
<title>OutputP2dFile</title>
<ellipse fill="khaki" stroke="black" cx="146.15" cy="-18" rx="79.62" ry="18"/>
<text text-anchor="middle" x="146.15" y="-13.32" font-family="Helvetica,sans-Serif" font-size="14.00">OutputP2dFile</text>
</g>
<!-- SamRun -->
<g id="node14" class="node">
<title>SamRun</title>
<polygon fill="grey" stroke="black" points="226.72,-1091.75 111.27,-1091.75 81.58,-1018.75 197.02,-1018.75 226.72,-1091.75"/>
<text text-anchor="middle" x="154.15" y="-1056.2" font-family="Times,serif" font-size="14.00">Processed</text>
<text text-anchor="middle" x="154.15" y="-1041.95" font-family="Times,serif" font-size="14.00">Sample</text>
</g>
<!-- ProcessSampleRun&#45;&gt;SamRun -->
<g id="edge3" class="edge">
<title>ProcessSampleRun&#45;&gt;SamRun</title>
<path fill="none" stroke="black" d="M154.15,-1128.42C154.15,-1120.99 154.15,-1112.28 154.15,-1103.52"/>
<polygon fill="black" stroke="black" points="157.65,-1103.61 154.15,-1093.61 150.65,-1103.61 157.65,-1103.61"/>
</g>
<!-- ProcessCanRun -->
<g id="node5" class="node">
<title>ProcessCanRun</title>
<path fill="lightskyblue" stroke="black" d="M334.9,-843.5C334.9,-843.5 179.4,-843.5 179.4,-843.5 173.4,-843.5 167.4,-837.5 167.4,-831.5 167.4,-831.5 167.4,-813 167.4,-813 167.4,-807 173.4,-801 179.4,-801 179.4,-801 334.9,-801 334.9,-801 340.9,-801 346.9,-807 346.9,-813 346.9,-813 346.9,-831.5 346.9,-831.5 346.9,-837.5 340.9,-843.5 334.9,-843.5"/>
<text text-anchor="middle" x="257.15" y="-826.2" font-family="Helvetica,sans-Serif" font-size="14.00">Process Container Run</text>
<text text-anchor="middle" x="257.15" y="-808.95" font-family="Helvetica,sans-Serif" font-size="14.00">(see workflow diagram)</text>
</g>
<!-- Minus -->
<g id="node6" class="node">
<title>Minus</title>
<path fill="lightskyblue" stroke="black" d="M340.27,-747.75C340.27,-747.75 178.02,-747.75 178.02,-747.75 172.02,-747.75 166.02,-741.75 166.02,-735.75 166.02,-735.75 166.02,-700 166.02,-700 166.02,-694 172.02,-688 178.02,-688 178.02,-688 340.27,-688 340.27,-688 346.27,-688 352.27,-694 352.27,-700 352.27,-700 352.27,-735.75 352.27,-735.75 352.27,-741.75 346.27,-747.75 340.27,-747.75"/>
<text text-anchor="middle" x="259.15" y="-730.45" font-family="Helvetica,sans-Serif" font-size="14.00">Substract Container Run</text>
<text text-anchor="middle" x="259.15" y="-713.2" font-family="Helvetica,sans-Serif" font-size="14.00">from Sample Run</text>
<text text-anchor="middle" x="259.15" y="-695.95" font-family="Helvetica,sans-Serif" font-size="14.00">using Minus v1.</text>
</g>
<!-- ProcessCanRun&#45;&gt;Minus -->
<g id="edge7" class="edge">
<title>ProcessCanRun&#45;&gt;Minus</title>
<path fill="none" stroke="black" d="M257.55,-800.53C257.78,-788.76 258.08,-773.6 258.35,-759.54"/>
<polygon fill="black" stroke="black" points="261.85,-759.68 258.55,-749.61 254.85,-759.54 261.85,-759.68"/>
</g>
<!-- isVanRunDefined -->
<g id="node12" class="node">
<title>isVanRunDefined</title>
<polygon fill="limegreen" stroke="black" points="150.15,-651 20.15,-608.5 150.15,-566 280.15,-608.5 150.15,-651"/>
<text text-anchor="middle" x="150.15" y="-612.45" font-family="Helvetica,sans-Serif" font-size="14.00">Is Vanadium run</text>
<text text-anchor="middle" x="150.15" y="-595.2" font-family="Helvetica,sans-Serif" font-size="14.00">specified?</text>
</g>
<!-- Minus&#45;&gt;isVanRunDefined -->
<g id="edge8" class="edge">
<title>Minus&#45;&gt;isVanRunDefined</title>
<path fill="none" stroke="black" d="M229.36,-687.53C217.15,-675.5 202.83,-661.4 189.76,-648.52"/>
<polygon fill="black" stroke="black" points="192.46,-646.27 182.88,-641.75 187.55,-651.26 192.46,-646.27"/>
</g>
<!-- processVanRun -->
<g id="node7" class="node">
<title>processVanRun</title>
<path fill="lightskyblue" stroke="black" d="M329.9,-512.75C329.9,-512.75 174.4,-512.75 174.4,-512.75 168.4,-512.75 162.4,-506.75 162.4,-500.75 162.4,-500.75 162.4,-482.25 162.4,-482.25 162.4,-476.25 168.4,-470.25 174.4,-470.25 174.4,-470.25 329.9,-470.25 329.9,-470.25 335.9,-470.25 341.9,-476.25 341.9,-482.25 341.9,-482.25 341.9,-500.75 341.9,-500.75 341.9,-506.75 335.9,-512.75 329.9,-512.75"/>
<text text-anchor="middle" x="252.15" y="-495.45" font-family="Helvetica,sans-Serif" font-size="14.00">Process Vanadium Run</text>
<text text-anchor="middle" x="252.15" y="-478.2" font-family="Helvetica,sans-Serif" font-size="14.00">(see workflow diagram)</text>
</g>
<!-- Divide -->
<g id="node8" class="node">
<title>Divide</title>
<path fill="lightskyblue" stroke="black" d="M305.77,-417C305.77,-417 182.52,-417 182.52,-417 176.52,-417 170.52,-411 170.52,-405 170.52,-405 170.52,-369.25 170.52,-369.25 170.52,-363.25 176.52,-357.25 182.52,-357.25 182.52,-357.25 305.77,-357.25 305.77,-357.25 311.77,-357.25 317.77,-363.25 317.77,-369.25 317.77,-369.25 317.77,-405 317.77,-405 317.77,-411 311.77,-417 305.77,-417"/>
<text text-anchor="middle" x="244.15" y="-399.7" font-family="Helvetica,sans-Serif" font-size="14.00">Divide Sample Run</text>
<text text-anchor="middle" x="244.15" y="-382.45" font-family="Helvetica,sans-Serif" font-size="14.00">by Vanadium Run</text>
<text text-anchor="middle" x="244.15" y="-365.2" font-family="Helvetica,sans-Serif" font-size="14.00">using Divide v1.</text>
</g>
<!-- processVanRun&#45;&gt;Divide -->
<g id="edge11" class="edge">
<title>processVanRun&#45;&gt;Divide</title>
<path fill="none" stroke="black" d="M250.53,-469.78C249.61,-458.01 248.42,-442.85 247.33,-428.79"/>
<polygon fill="black" stroke="black" points="250.82,-428.55 246.55,-418.85 243.84,-429.1 250.82,-428.55"/>
</g>
<!-- mustDataPositive -->
<g id="node13" class="node">
<title>mustDataPositive</title>
<polygon fill="limegreen" stroke="black" points="146.15,-320.25 4.15,-277.75 146.15,-235.25 288.15,-277.75 146.15,-320.25"/>
<text text-anchor="middle" x="146.15" y="-281.7" font-family="Helvetica,sans-Serif" font-size="14.00">Does data have to</text>
<text text-anchor="middle" x="146.15" y="-264.45" font-family="Helvetica,sans-Serif" font-size="14.00">be positive?</text>
</g>
<!-- Divide&#45;&gt;mustDataPositive -->
<g id="edge12" class="edge">
<title>Divide&#45;&gt;mustDataPositive</title>
<path fill="none" stroke="black" d="M217.37,-356.78C206.96,-345.38 194.86,-332.12 183.62,-319.8"/>
<polygon fill="black" stroke="black" points="186.35,-317.6 177.02,-312.58 181.18,-322.32 186.35,-317.6"/>
</g>
<!-- resetNegatives2D -->
<g id="node9" class="node">
<title>resetNegatives2D</title>
<path fill="lightskyblue" stroke="black" d="M157.4,-182C157.4,-182 16.9,-182 16.9,-182 10.9,-182 4.9,-176 4.9,-170 4.9,-170 4.9,-158 4.9,-158 4.9,-152 10.9,-146 16.9,-146 16.9,-146 157.4,-146 157.4,-146 163.4,-146 169.4,-152 169.4,-158 169.4,-158 169.4,-170 169.4,-170 169.4,-176 163.4,-182 157.4,-182"/>
<text text-anchor="middle" x="87.15" y="-159.32" font-family="Helvetica,sans-Serif" font-size="14.00">ResetNegatives2D v1</text>
</g>
<!-- SaveP2D -->
<g id="node10" class="node">
<title>SaveP2D</title>
<path fill="lightskyblue" stroke="black" d="M193.9,-109C193.9,-109 98.4,-109 98.4,-109 92.4,-109 86.4,-103 86.4,-97 86.4,-97 86.4,-85 86.4,-85 86.4,-79 92.4,-73 98.4,-73 98.4,-73 193.9,-73 193.9,-73 199.9,-73 205.9,-79 205.9,-85 205.9,-85 205.9,-97 205.9,-97 205.9,-103 199.9,-109 193.9,-109"/>
<text text-anchor="middle" x="146.15" y="-86.33" font-family="Helvetica,sans-Serif" font-size="14.00">Create p2d File</text>
</g>
<!-- resetNegatives2D&#45;&gt;SaveP2D -->
<g id="edge14" class="edge">
<title>resetNegatives2D&#45;&gt;SaveP2D</title>
<path fill="none" stroke="black" d="M101.43,-145.81C108.46,-137.35 117.08,-126.98 124.86,-117.61"/>
<polygon fill="black" stroke="black" points="127.33,-120.12 131.03,-110.19 121.95,-115.65 127.33,-120.12"/>
</g>
<!-- SaveP2D&#45;&gt;OutputP2dFile -->
<g id="edge16" class="edge">
<title>SaveP2D&#45;&gt;OutputP2dFile</title>
<path fill="none" stroke="black" d="M146.15,-72.81C146.15,-65.23 146.15,-56.1 146.15,-47.54"/>
<polygon fill="black" stroke="black" points="149.65,-47.54 146.15,-37.54 142.65,-47.54 149.65,-47.54"/>
</g>
<!-- isCanRunDefined -->
<g id="node11" class="node">
<title>isCanRunDefined</title>
<polygon fill="limegreen" stroke="black" points="154.15,-981.75 27.9,-939.25 154.15,-896.75 280.4,-939.25 154.15,-981.75"/>
<text text-anchor="middle" x="154.15" y="-943.2" font-family="Helvetica,sans-Serif" font-size="14.00">Is container run</text>
<text text-anchor="middle" x="154.15" y="-925.95" font-family="Helvetica,sans-Serif" font-size="14.00">specified?</text>
</g>
<!-- isCanRunDefined&#45;&gt;ProcessCanRun -->
<g id="edge6" class="edge">
<title>isCanRunDefined&#45;&gt;ProcessCanRun</title>
<path fill="none" stroke="black" d="M182.84,-906.22C198.05,-889.24 216.58,-868.55 231.33,-852.08"/>
<polygon fill="black" stroke="black" points="233.59,-854.8 237.65,-845.02 228.37,-850.13 233.59,-854.8"/>
<text text-anchor="middle" x="231.4" y="-865.45" font-family="Helvetica,sans-Serif" font-size="14.00">Yes</text>
</g>
<!-- isCanRunDefined&#45;&gt;isVanRunDefined -->
<g id="edge5" class="edge">
<title>isCanRunDefined&#45;&gt;isVanRunDefined</title>
<path fill="none" stroke="black" d="M153.64,-896.61C152.92,-837.12 151.59,-727.79 150.79,-662.57"/>
<polygon fill="black" stroke="black" points="154.3,-662.79 150.68,-652.83 147.3,-662.87 154.3,-662.79"/>
<text text-anchor="middle" x="162.52" y="-769.7" font-family="Helvetica,sans-Serif" font-size="14.00">No</text>
</g>
<!-- isVanRunDefined&#45;&gt;processVanRun -->
<g id="edge10" class="edge">
<title>isVanRunDefined&#45;&gt;processVanRun</title>
<path fill="none" stroke="black" d="M178.83,-575.16C193.75,-558.34 211.83,-537.95 226.31,-521.63"/>
<polygon fill="black" stroke="black" points="228.92,-523.96 232.94,-514.16 223.68,-519.32 228.92,-523.96"/>
<text text-anchor="middle" x="227.4" y="-534.7" font-family="Helvetica,sans-Serif" font-size="14.00">Yes</text>
</g>
<!-- isVanRunDefined&#45;&gt;mustDataPositive -->
<g id="edge9" class="edge">
<title>isVanRunDefined&#45;&gt;mustDataPositive</title>
<path fill="none" stroke="black" d="M149.64,-565.86C148.92,-506.37 147.59,-397.04 146.79,-331.82"/>
<polygon fill="black" stroke="black" points="150.3,-332.04 146.68,-322.08 143.3,-332.12 150.3,-332.04"/>
<text text-anchor="middle" x="158.52" y="-438.95" font-family="Helvetica,sans-Serif" font-size="14.00">No</text>
</g>
<!-- mustDataPositive&#45;&gt;resetNegatives2D -->
<g id="edge13" class="edge">
<title>mustDataPositive&#45;&gt;resetNegatives2D</title>
<path fill="none" stroke="black" d="M126.99,-240.47C118.71,-224.78 109.18,-206.72 101.51,-192.21"/>
<polygon fill="black" stroke="black" points="104.78,-190.9 97.01,-183.69 98.59,-194.16 104.78,-190.9"/>
<text text-anchor="middle" x="124.4" y="-203.95" font-family="Helvetica,sans-Serif" font-size="14.00">Yes</text>
</g>
<!-- mustDataPositive&#45;&gt;SaveP2D -->
<g id="edge15" class="edge">
<title>mustDataPositive&#45;&gt;SaveP2D</title>
<path fill="none" stroke="black" d="M164.99,-240.54C176.26,-214.22 186.86,-177.78 178.15,-146 175.57,-136.59 170.88,-127.15 165.86,-118.86"/>
<polygon fill="black" stroke="black" points="168.92,-117.14 160.54,-110.66 163.05,-120.95 168.92,-117.14"/>
<text text-anchor="middle" x="191.52" y="-159.32" font-family="Helvetica,sans-Serif" font-size="14.00">No</text>
</g>
<!-- SamRun&#45;&gt;isCanRunDefined -->
<g id="edge4" class="edge">
<title>SamRun&#45;&gt;isCanRunDefined</title>
<path fill="none" stroke="black" d="M154.15,-1018.49C154.15,-1010.59 154.15,-1002.05 154.15,-993.62"/>
<polygon fill="black" stroke="black" points="157.65,-993.78 154.15,-983.78 150.65,-993.78 157.65,-993.78"/>
</g>
</g>
</svg>
