<?xml version="1.0" encoding="UTF-8" standalone="no"?>
<!DOCTYPE svg PUBLIC "-//W3C//DTD SVG 1.1//EN"
 "http://www.w3.org/Graphics/SVG/1.1/DTD/svg11.dtd">
<!-- Generated by graphviz version 13.1.1 (20250720.1534)
 -->
<!-- Title: PowderILLDetectorScan Pages: 1 -->
<svg width="610pt" height="750pt"
 viewBox="0.00 0.00 610.00 750.00" xmlns="http://www.w3.org/2000/svg" xmlns:xlink="http://www.w3.org/1999/xlink">
<g id="graph0" class="graph" transform="scale(1 1) rotate(0) translate(4 745.75)">
<title>PowderILLDetectorScan</title>
<polygon fill="white" stroke="none" points="-4,4 -4,-745.75 605.82,-745.75 605.82,4 -4,4"/>
<!-- MergeType -->
<g id="node1" class="node">
<title>MergeType</title>
<polygon fill="limegreen" stroke="black" points="179.07,-595.75 89.54,-577.75 179.07,-559.75 268.6,-577.75 179.07,-595.75"/>
<text xml:space="preserve" text-anchor="middle" x="179.07" y="-573.08" font-family="Helvetica,sans-Serif" font-size="14.00">MergeType</text>
</g>
<!-- NormaliseTo -->
<g id="node2" class="node">
<title>NormaliseTo</title>
<polygon fill="limegreen" stroke="black" points="178.07,-433.5 79.61,-415.5 178.07,-397.5 276.53,-415.5 178.07,-433.5"/>
<text xml:space="preserve" text-anchor="middle" x="178.07" y="-410.82" font-family="Helvetica,sans-Serif" font-size="14.00">NormaliseTo</text>
</g>
<!-- MergeType&#45;&gt;NormaliseTo -->
<g id="edge6" class="edge">
<title>MergeType&#45;&gt;NormaliseTo</title>
<path fill="none" stroke="black" d="M193.6,-562.38C198.56,-556.5 203.5,-549.3 206.07,-541.75 217.52,-508.16 203.89,-467.9 191.95,-442.26"/>
<polygon fill="black" stroke="black" points="195.24,-441.01 187.69,-433.58 188.96,-444.1 195.24,-441.01"/>
<text xml:space="preserve" text-anchor="middle" x="248.73" y="-483.82" font-family="Helvetica,sans-Serif" font-size="14.00">Skip Merge</text>
</g>
<!-- MergeRuns -->
<g id="node9" class="node">
<title>MergeRuns</title>
<path fill="lightskyblue" stroke="black" d="M171.7,-506.5C171.7,-506.5 102.45,-506.5 102.45,-506.5 96.45,-506.5 90.45,-500.5 90.45,-494.5 90.45,-494.5 90.45,-482.5 90.45,-482.5 90.45,-476.5 96.45,-470.5 102.45,-470.5 102.45,-470.5 171.7,-470.5 171.7,-470.5 177.7,-470.5 183.7,-476.5 183.7,-482.5 183.7,-482.5 183.7,-494.5 183.7,-494.5 183.7,-500.5 177.7,-506.5 171.7,-506.5"/>
<text xml:space="preserve" text-anchor="middle" x="137.07" y="-483.82" font-family="Helvetica,sans-Serif" font-size="14.00">MergeRuns</text>
</g>
<!-- MergeType&#45;&gt;MergeRuns -->
<g id="edge4" class="edge">
<title>MergeType&#45;&gt;MergeRuns</title>
<path fill="none" stroke="black" d="M171.56,-561.15C165.64,-548.85 157.23,-531.38 150.2,-516.77"/>
<polygon fill="black" stroke="black" points="153.53,-515.61 146.04,-508.12 147.22,-518.65 153.53,-515.61"/>
<text xml:space="preserve" text-anchor="middle" x="183.21" y="-528.45" font-family="Helvetica,sans-Serif" font-size="14.00">Merge</text>
</g>
<!-- OutputWorkspaceTypes -->
<g id="node3" class="node">
<title>OutputWorkspaceTypes</title>
<polygon fill="limegreen" stroke="black" points="178.07,-271.25 0,-253.25 178.07,-235.25 356.14,-253.25 178.07,-271.25"/>
<text xml:space="preserve" text-anchor="middle" x="178.07" y="-248.57" font-family="Helvetica,sans-Serif" font-size="14.00">OutputWorkspaceTypes</text>
</g>
<!-- NormaliseTo&#45;&gt;OutputWorkspaceTypes -->
<g id="edge8" class="edge">
<title>NormaliseTo&#45;&gt;OutputWorkspaceTypes</title>
<path fill="none" stroke="black" d="M196.65,-400.43C202.77,-394.69 208.82,-387.51 212.07,-379.5 225.55,-346.29 209.15,-305.99 194.8,-280.23"/>
<polygon fill="black" stroke="black" points="197.91,-278.63 189.83,-271.78 191.88,-282.17 197.91,-278.63"/>
<text xml:space="preserve" text-anchor="middle" x="234.71" y="-321.57" font-family="Helvetica,sans-Serif" font-size="14.00">None</text>
</g>
<!-- NormaliseToMonitor -->
<g id="node10" class="node">
<title>NormaliseToMonitor</title>
<path fill="lightskyblue" stroke="black" d="M185.95,-344.25C185.95,-344.25 58.2,-344.25 58.2,-344.25 52.2,-344.25 46.2,-338.25 46.2,-332.25 46.2,-332.25 46.2,-320.25 46.2,-320.25 46.2,-314.25 52.2,-308.25 58.2,-308.25 58.2,-308.25 185.95,-308.25 185.95,-308.25 191.95,-308.25 197.95,-314.25 197.95,-320.25 197.95,-320.25 197.95,-332.25 197.95,-332.25 197.95,-338.25 191.95,-344.25 185.95,-344.25"/>
<text xml:space="preserve" text-anchor="middle" x="122.07" y="-321.57" font-family="Helvetica,sans-Serif" font-size="14.00">NormaliseToMonitor</text>
</g>
<!-- NormaliseTo&#45;&gt;NormaliseToMonitor -->
<g id="edge7" class="edge">
<title>NormaliseTo&#45;&gt;NormaliseToMonitor</title>
<path fill="none" stroke="black" d="M168.06,-398.9C160.08,-386.48 148.73,-368.79 139.3,-354.1"/>
<polygon fill="black" stroke="black" points="142.31,-352.31 133.97,-345.78 136.42,-356.09 142.31,-352.31"/>
<text xml:space="preserve" text-anchor="middle" x="181.34" y="-366.2" font-family="Helvetica,sans-Serif" font-size="14.00">Monitor</text>
</g>
<!-- SumOverlappingTubes2DTubes -->
<g id="node11" class="node">
<title>SumOverlappingTubes2DTubes</title>
<path fill="lightskyblue" stroke="black" d="M205.82,-182C205.82,-182 56.32,-182 56.32,-182 50.32,-182 44.32,-176 44.32,-170 44.32,-170 44.32,-158 44.32,-158 44.32,-152 50.32,-146 56.32,-146 56.32,-146 205.82,-146 205.82,-146 211.82,-146 217.82,-152 217.82,-158 217.82,-158 217.82,-170 217.82,-170 217.82,-176 211.82,-182 205.82,-182"/>
<text xml:space="preserve" text-anchor="middle" x="131.07" y="-159.32" font-family="Helvetica,sans-Serif" font-size="14.00">SumOverlappingTubes</text>
</g>
<!-- OutputWorkspaceTypes&#45;&gt;SumOverlappingTubes2DTubes -->
<g id="edge10" class="edge">
<title>OutputWorkspaceTypes&#45;&gt;SumOverlappingTubes2DTubes</title>
<path fill="none" stroke="black" d="M169.23,-235.84C162.6,-223.53 153.37,-206.39 145.65,-192.06"/>
<polygon fill="black" stroke="black" points="148.9,-190.71 141.07,-183.57 142.73,-194.03 148.9,-190.71"/>
<text xml:space="preserve" text-anchor="middle" x="188.78" y="-203.95" font-family="Helvetica,sans-Serif" font-size="14.00">2DTubes</text>
</g>
<!-- SumOverlappingTubes2D -->
<g id="node12" class="node">
<title>SumOverlappingTubes2D</title>
<path fill="lightskyblue" stroke="black" d="M397.82,-182C397.82,-182 248.32,-182 248.32,-182 242.32,-182 236.32,-176 236.32,-170 236.32,-170 236.32,-158 236.32,-158 236.32,-152 242.32,-146 248.32,-146 248.32,-146 397.82,-146 397.82,-146 403.82,-146 409.82,-152 409.82,-158 409.82,-158 409.82,-170 409.82,-170 409.82,-176 403.82,-182 397.82,-182"/>
<text xml:space="preserve" text-anchor="middle" x="323.07" y="-159.32" font-family="Helvetica,sans-Serif" font-size="14.00">SumOverlappingTubes</text>
</g>
<!-- OutputWorkspaceTypes&#45;&gt;SumOverlappingTubes2D -->
<g id="edge14" class="edge">
<title>OutputWorkspaceTypes&#45;&gt;SumOverlappingTubes2D</title>
<path fill="none" stroke="black" d="M202.67,-237.45C225.09,-223.96 258.59,-203.8 284.56,-188.17"/>
<polygon fill="black" stroke="black" points="286.04,-191.36 292.81,-183.21 282.44,-185.37 286.04,-191.36"/>
<text xml:space="preserve" text-anchor="middle" x="273.31" y="-203.95" font-family="Helvetica,sans-Serif" font-size="14.00">2D</text>
</g>
<!-- SumOverlappingTubes1D -->
<g id="node13" class="node">
<title>SumOverlappingTubes1D</title>
<path fill="lightskyblue" stroke="black" d="M589.82,-182C589.82,-182 440.32,-182 440.32,-182 434.32,-182 428.32,-176 428.32,-170 428.32,-170 428.32,-158 428.32,-158 428.32,-152 434.32,-146 440.32,-146 440.32,-146 589.82,-146 589.82,-146 595.82,-146 601.82,-152 601.82,-158 601.82,-158 601.82,-170 601.82,-170 601.82,-176 595.82,-182 589.82,-182"/>
<text xml:space="preserve" text-anchor="middle" x="515.07" y="-159.32" font-family="Helvetica,sans-Serif" font-size="14.00">SumOverlappingTubes</text>
</g>
<!-- OutputWorkspaceTypes&#45;&gt;SumOverlappingTubes1D -->
<g id="edge15" class="edge">
<title>OutputWorkspaceTypes&#45;&gt;SumOverlappingTubes1D</title>
<path fill="none" stroke="black" d="M226.36,-239.75C281.24,-225.54 371.62,-202.14 436.66,-185.3"/>
<polygon fill="black" stroke="black" points="437.41,-188.72 446.21,-182.83 435.65,-181.95 437.41,-188.72"/>
<text xml:space="preserve" text-anchor="middle" x="386.51" y="-203.95" font-family="Helvetica,sans-Serif" font-size="14.00">1D</text>
</g>
<!-- Run -->
<g id="node4" class="node">
<title>Run</title>
<ellipse fill="khaki" stroke="black" cx="104.07" cy="-723.75" rx="30.16" ry="18"/>
<text xml:space="preserve" text-anchor="middle" x="104.07" y="-719.08" font-family="Helvetica,sans-Serif" font-size="14.00">Run</text>
</g>
<!-- LoadILLDiffraction -->
<g id="node8" class="node">
<title>LoadILLDiffraction</title>
<path fill="lightskyblue" stroke="black" d="M237.32,-668.75C237.32,-668.75 120.82,-668.75 120.82,-668.75 114.82,-668.75 108.82,-662.75 108.82,-656.75 108.82,-656.75 108.82,-644.75 108.82,-644.75 108.82,-638.75 114.82,-632.75 120.82,-632.75 120.82,-632.75 237.32,-632.75 237.32,-632.75 243.32,-632.75 249.32,-638.75 249.32,-644.75 249.32,-644.75 249.32,-656.75 249.32,-656.75 249.32,-662.75 243.32,-668.75 237.32,-668.75"/>
<text xml:space="preserve" text-anchor="middle" x="179.07" y="-646.08" font-family="Helvetica,sans-Serif" font-size="14.00">LoadILLDiffraction</text>
</g>
<!-- Run&#45;&gt;LoadILLDiffraction -->
<g id="edge1" class="edge">
<title>Run&#45;&gt;LoadILLDiffraction</title>
<path fill="none" stroke="black" d="M119.61,-708.04C129.12,-699.04 141.53,-687.29 152.55,-676.86"/>
<polygon fill="black" stroke="black" points="154.68,-679.66 159.54,-670.24 149.87,-674.57 154.68,-679.66"/>
</g>
<!-- UseCalibratedData -->
<g id="node5" class="node">
<title>UseCalibratedData</title>
<ellipse fill="khaki" stroke="black" cx="254.07" cy="-723.75" rx="102.24" ry="18"/>
<text xml:space="preserve" text-anchor="middle" x="254.07" y="-719.08" font-family="Helvetica,sans-Serif" font-size="14.00">UseCalibratedData</text>
</g>
<!-- UseCalibratedData&#45;&gt;LoadILLDiffraction -->
<g id="edge2" class="edge">
<title>UseCalibratedData&#45;&gt;LoadILLDiffraction</title>
<path fill="none" stroke="black" d="M235.92,-705.56C226.77,-696.91 215.51,-686.25 205.44,-676.71"/>
<polygon fill="black" stroke="black" points="208.09,-674.4 198.42,-670.07 203.27,-679.48 208.09,-674.4"/>
</g>
<!-- HeightRange -->
<g id="node6" class="node">
<title>HeightRange</title>
<ellipse fill="khaki" stroke="black" cx="448.07" cy="-253.25" rx="74.36" ry="18"/>
<text xml:space="preserve" text-anchor="middle" x="448.07" y="-248.57" font-family="Helvetica,sans-Serif" font-size="14.00">HeightRange</text>
</g>
<!-- HeightRange&#45;&gt;SumOverlappingTubes2DTubes -->
<g id="edge11" class="edge">
<title>HeightRange&#45;&gt;SumOverlappingTubes2DTubes</title>
<path fill="none" stroke="black" d="M393.34,-240.67C369.75,-234.88 342.11,-227 318.07,-217.25 303.46,-211.32 301.8,-205.62 287.07,-200 275.6,-195.63 253.43,-190.1 229.33,-184.73"/>
<polygon fill="black" stroke="black" points="230.15,-181.33 219.63,-182.61 228.65,-188.17 230.15,-181.33"/>
</g>
<!-- HeightRange&#45;&gt;SumOverlappingTubes2D -->
<g id="edge12" class="edge">
<title>HeightRange&#45;&gt;SumOverlappingTubes2D</title>
<path fill="none" stroke="black" d="M424.56,-235.84C405.55,-222.57 378.52,-203.7 357.14,-188.78"/>
<polygon fill="black" stroke="black" points="359.21,-185.95 349,-183.1 355.2,-191.69 359.21,-185.95"/>
</g>
<!-- HeightRange&#45;&gt;SumOverlappingTubes1D -->
<g id="edge13" class="edge">
<title>HeightRange&#45;&gt;SumOverlappingTubes1D</title>
<path fill="none" stroke="black" d="M460.99,-235.43C470.6,-222.92 483.89,-205.6 494.9,-191.27"/>
<polygon fill="black" stroke="black" points="497.5,-193.63 500.81,-183.57 491.95,-189.37 497.5,-193.63"/>
</g>
<!-- OutputWorkspace -->
<g id="node7" class="node">
<title>OutputWorkspace</title>
<ellipse fill="khaki" stroke="black" cx="323.07" cy="-18" rx="98.56" ry="18"/>
<text xml:space="preserve" text-anchor="middle" x="323.07" y="-13.32" font-family="Helvetica,sans-Serif" font-size="14.00">OutputWorkspace</text>
</g>
<!-- LoadILLDiffraction&#45;&gt;MergeType -->
<g id="edge3" class="edge">
<title>LoadILLDiffraction&#45;&gt;MergeType</title>
<path fill="none" stroke="black" d="M179.07,-632.56C179.07,-624.98 179.07,-615.85 179.07,-607.29"/>
<polygon fill="black" stroke="black" points="182.57,-607.29 179.07,-597.29 175.57,-607.29 182.57,-607.29"/>
</g>
<!-- MergeRuns&#45;&gt;NormaliseTo -->
<g id="edge5" class="edge">
<title>MergeRuns&#45;&gt;NormaliseTo</title>
<path fill="none" stroke="black" d="M147,-470.31C151.94,-461.75 158.01,-451.24 163.47,-441.78"/>
<polygon fill="black" stroke="black" points="166.35,-443.8 168.32,-433.39 160.29,-440.3 166.35,-443.8"/>
</g>
<!-- NormaliseToMonitor&#45;&gt;OutputWorkspaceTypes -->
<g id="edge9" class="edge">
<title>NormaliseToMonitor&#45;&gt;OutputWorkspaceTypes</title>
<path fill="none" stroke="black" d="M135.63,-308.06C142.43,-299.44 150.79,-288.84 158.29,-279.34"/>
<polygon fill="black" stroke="black" points="161.03,-281.51 164.47,-271.49 155.53,-277.18 161.03,-281.51"/>
</g>
<!-- GroupWorkspaces -->
<g id="node14" class="node">
<title>GroupWorkspaces</title>
<path fill="lightskyblue" stroke="black" d="M381.7,-109C381.7,-109 264.45,-109 264.45,-109 258.45,-109 252.45,-103 252.45,-97 252.45,-97 252.45,-85 252.45,-85 252.45,-79 258.45,-73 264.45,-73 264.45,-73 381.7,-73 381.7,-73 387.7,-73 393.7,-79 393.7,-85 393.7,-85 393.7,-97 393.7,-97 393.7,-103 387.7,-109 381.7,-109"/>
<text xml:space="preserve" text-anchor="middle" x="323.07" y="-86.33" font-family="Helvetica,sans-Serif" font-size="14.00">GroupWorkspaces</text>
</g>
<!-- SumOverlappingTubes2DTubes&#45;&gt;GroupWorkspaces -->
<g id="edge16" class="edge">
<title>SumOverlappingTubes2DTubes&#45;&gt;GroupWorkspaces</title>
<path fill="none" stroke="black" d="M178.04,-145.63C204.31,-135.92 237.27,-123.73 265.13,-113.43"/>
<polygon fill="black" stroke="black" points="266.34,-116.71 274.5,-109.96 263.91,-110.15 266.34,-116.71"/>
</g>
<!-- SumOverlappingTubes2D&#45;&gt;GroupWorkspaces -->
<g id="edge17" class="edge">
<title>SumOverlappingTubes2D&#45;&gt;GroupWorkspaces</title>
<path fill="none" stroke="black" d="M323.07,-145.81C323.07,-138.23 323.07,-129.1 323.07,-120.54"/>
<polygon fill="black" stroke="black" points="326.57,-120.54 323.07,-110.54 319.57,-120.54 326.57,-120.54"/>
</g>
<!-- SumOverlappingTubes1D&#45;&gt;GroupWorkspaces -->
<g id="edge18" class="edge">
<title>SumOverlappingTubes1D&#45;&gt;GroupWorkspaces</title>
<path fill="none" stroke="black" d="M468.1,-145.63C441.84,-135.92 408.88,-123.73 381.02,-113.43"/>
<polygon fill="black" stroke="black" points="382.23,-110.15 371.64,-109.96 379.81,-116.71 382.23,-110.15"/>
</g>
<!-- GroupWorkspaces&#45;&gt;OutputWorkspace -->
<g id="edge19" class="edge">
<title>GroupWorkspaces&#45;&gt;OutputWorkspace</title>
<path fill="none" stroke="black" d="M323.07,-72.81C323.07,-65.23 323.07,-56.1 323.07,-47.54"/>
<polygon fill="black" stroke="black" points="326.57,-47.54 323.07,-37.54 319.57,-47.54 326.57,-47.54"/>
</g>
</g>
</svg>
