<?xml version="1.0" encoding="UTF-8" standalone="no"?>
<!DOCTYPE svg PUBLIC "-//W3C//DTD SVG 1.1//EN"
 "http://www.w3.org/Graphics/SVG/1.1/DTD/svg11.dtd">
<!-- Generated by graphviz version 7.0.5 (20221231.0122)
 -->
<!-- Title: PowderILLEfficiency Pages: 1 -->
<svg width="810pt" height="1406pt"
 viewBox="0.00 0.00 809.56 1406.00" xmlns="http://www.w3.org/2000/svg" xmlns:xlink="http://www.w3.org/1999/xlink">
<g id="graph0" class="graph" transform="scale(1 1) rotate(0) translate(4 1402)">
<title>PowderILLEfficiency</title>
<polygon fill="white" stroke="none" points="-4,4 -4,-1402 805.56,-1402 805.56,4 -4,4"/>
<text text-anchor="middle" x="400.78" y="-1382.8" font-family="Helvetica,sans-Serif" font-size="14.00">SequentialSummedReference1D Flowchart</text>
<!-- reference -->
<g id="node1" class="node">
<title>reference</title>
<polygon fill="grey" stroke="black" points="127.54,-735 26.22,-735 0.15,-699 101.48,-699 127.54,-735"/>
<text text-anchor="middle" x="63.85" y="-713.3" font-family="Times,serif" font-size="14.00">reference</text>
</g>
<!-- OutputResponseWorkspace -->
<g id="node14" class="node">
<title>OutputResponseWorkspace</title>
<ellipse fill="khaki" stroke="black" cx="235.85" cy="-630" rx="135.38" ry="18"/>
<text text-anchor="middle" x="235.85" y="-626.3" font-family="Helvetica,sans-Serif" font-size="14.00">OutputResponseWorkspace</text>
</g>
<!-- reference&#45;&gt;OutputResponseWorkspace -->
<g id="edge37" class="edge">
<title>reference&#45;&gt;OutputResponseWorkspace</title>
<path fill="none" stroke="black" d="M99.07,-698.59C125.85,-685.36 162.88,-667.06 191.65,-652.84"/>
<polygon fill="black" stroke="black" points="193.07,-656.04 200.49,-648.47 189.97,-649.77 193.07,-656.04"/>
</g>
<!-- WeightedMean -->
<g id="node18" class="node">
<title>WeightedMean</title>
<path fill="lightskyblue" stroke="black" d="M111.35,-109C111.35,-109 16.35,-109 16.35,-109 10.35,-109 4.35,-103 4.35,-97 4.35,-97 4.35,-85 4.35,-85 4.35,-79 10.35,-73 16.35,-73 16.35,-73 111.35,-73 111.35,-73 117.35,-73 123.35,-79 123.35,-85 123.35,-85 123.35,-97 123.35,-97 123.35,-103 117.35,-109 111.35,-109"/>
<text text-anchor="middle" x="63.85" y="-87.3" font-family="Helvetica,sans-Serif" font-size="14.00">WeightedMean</text>
</g>
<!-- reference&#45;&gt;WeightedMean -->
<g id="edge32" class="edge">
<title>reference&#45;&gt;WeightedMean</title>
<path fill="none" stroke="black" d="M57,-698.74C54.85,-681.57 54.85,-654.46 54.85,-631 54.85,-631 54.85,-631 54.85,-163 54.85,-148.94 54.85,-133.31 55.64,-120.3"/>
<polygon fill="black" stroke="black" points="59.1,-120.99 56.49,-110.72 52.12,-120.38 59.1,-120.99"/>
</g>
<!-- Divide -->
<g id="node20" class="node">
<title>Divide</title>
<path fill="lightskyblue" stroke="black" d="M479.85,-561C479.85,-561 443.85,-561 443.85,-561 437.85,-561 431.85,-555 431.85,-549 431.85,-549 431.85,-537 431.85,-537 431.85,-531 437.85,-525 443.85,-525 443.85,-525 479.85,-525 479.85,-525 485.85,-525 491.85,-531 491.85,-537 491.85,-537 491.85,-549 491.85,-549 491.85,-555 485.85,-561 479.85,-561"/>
<text text-anchor="middle" x="461.85" y="-539.3" font-family="Helvetica,sans-Serif" font-size="14.00">Divide</text>
</g>
<!-- reference&#45;&gt;Divide -->
<g id="edge13" class="edge">
<title>reference&#45;&gt;Divide</title>
<path fill="none" stroke="black" d="M57.73,-698.61C50.95,-675.88 43.47,-636.15 63.85,-612 109.15,-558.3 327.55,-547 420.18,-544.63"/>
<polygon fill="black" stroke="black" points="420.18,-548.13 430.09,-544.4 420.02,-541.13 420.18,-548.13"/>
<text text-anchor="middle" x="77.85" y="-626.3" font-family="Helvetica,sans-Serif" font-size="14.00">LHS</text>
</g>
<!-- SplineInterpolation -->
<g id="node22" class="node">
<title>SplineInterpolation</title>
<path fill="lightskyblue" stroke="black" d="M524.85,-648C524.85,-648 400.85,-648 400.85,-648 394.85,-648 388.85,-642 388.85,-636 388.85,-636 388.85,-624 388.85,-624 388.85,-618 394.85,-612 400.85,-612 400.85,-612 524.85,-612 524.85,-612 530.85,-612 536.85,-618 536.85,-624 536.85,-624 536.85,-636 536.85,-636 536.85,-642 530.85,-648 524.85,-648"/>
<text text-anchor="middle" x="462.85" y="-626.3" font-family="Helvetica,sans-Serif" font-size="14.00">SplineInterpolation</text>
</g>
<!-- reference&#45;&gt;SplineInterpolation -->
<g id="edge18" class="edge">
<title>reference&#45;&gt;SplineInterpolation</title>
<path fill="none" stroke="black" d="M107.45,-706.53C154.06,-696.42 230.15,-679.96 295.85,-666 322.34,-660.37 351.21,-654.29 377.39,-648.81"/>
<polygon fill="black" stroke="black" points="377.87,-652.29 386.94,-646.81 376.44,-645.44 377.87,-652.29"/>
<text text-anchor="middle" x="362.35" y="-669.8" font-family="Helvetica,sans-Serif" font-size="14.00">WorkspaceToMatch</text>
</g>
<!-- factor -->
<g id="node2" class="node">
<title>factor</title>
<polygon fill="grey" stroke="black" points="470.83,-255 397.68,-255 378.86,-219 452.01,-219 470.83,-255"/>
<text text-anchor="middle" x="424.85" y="-233.3" font-family="Times,serif" font-size="14.00">factor</text>
</g>
<!-- single_cell_responseAfter -->
<g id="node4" class="node">
<title>single_cell_responseAfter</title>
<polygon fill="grey" stroke="black" points="353.71,-182 158.27,-182 107.99,-146 303.43,-146 353.71,-182"/>
<text text-anchor="middle" x="230.85" y="-160.3" font-family="Times,serif" font-size="14.00">single_cell_response</text>
</g>
<!-- factor&#45;&gt;single_cell_responseAfter -->
<g id="edge30" class="edge">
<title>factor&#45;&gt;single_cell_responseAfter</title>
<path fill="none" stroke="black" d="M378.38,-218.99C351.64,-209.21 317.8,-196.82 289.27,-186.38"/>
<polygon fill="black" stroke="black" points="290.64,-183.16 280.04,-183 288.23,-189.73 290.64,-183.16"/>
</g>
<!-- factors -->
<g id="node5" class="node">
<title>factors</title>
<polygon fill="grey" stroke="black" points="475.36,-182 395.01,-182 374.34,-146 454.69,-146 475.36,-182"/>
<text text-anchor="middle" x="424.85" y="-160.3" font-family="Times,serif" font-size="14.00">factors</text>
</g>
<!-- factor&#45;&gt;factors -->
<g id="edge34" class="edge">
<title>factor&#45;&gt;factors</title>
<path fill="none" stroke="black" d="M424.85,-218.81C424.85,-211.23 424.85,-202.1 424.85,-193.54"/>
<polygon fill="black" stroke="black" points="428.35,-193.54 424.85,-183.54 421.35,-193.54 428.35,-193.54"/>
</g>
<!-- single_cell_response -->
<g id="node3" class="node">
<title>single_cell_response</title>
<polygon fill="grey" stroke="black" points="531.71,-822 336.27,-822 285.99,-786 481.43,-786 531.71,-822"/>
<text text-anchor="middle" x="408.85" y="-800.3" font-family="Times,serif" font-size="14.00">single_cell_response</text>
</g>
<!-- single_cell_response&#45;&gt;reference -->
<g id="edge12" class="edge">
<title>single_cell_response&#45;&gt;reference</title>
<path fill="none" stroke="black" d="M338.2,-785.59C279.86,-771.22 197.31,-750.88 138.02,-736.27"/>
<polygon fill="black" stroke="black" points="138.88,-732.88 128.33,-733.89 137.2,-739.68 138.88,-732.88"/>
<text text-anchor="middle" x="316.85" y="-756.8" font-family="Helvetica,sans-Serif" font-size="14.00">For the first pixel</text>
</g>
<!-- InterpolateOverlappingAngles -->
<g id="node9" class="node">
<title>InterpolateOverlappingAngles</title>
<polygon fill="limegreen" stroke="black" points="408.85,-735 202.23,-717 408.85,-699 615.47,-717 408.85,-735"/>
<text text-anchor="middle" x="408.85" y="-713.3" font-family="Helvetica,sans-Serif" font-size="14.00">InterpolateOverlappingAngles</text>
</g>
<!-- single_cell_response&#45;&gt;InterpolateOverlappingAngles -->
<g id="edge14" class="edge">
<title>single_cell_response&#45;&gt;InterpolateOverlappingAngles</title>
<path fill="none" stroke="black" d="M408.85,-785.8C408.85,-774.58 408.85,-759.67 408.85,-746.69"/>
<polygon fill="black" stroke="black" points="412.35,-746.98 408.85,-736.98 405.35,-746.98 412.35,-746.98"/>
</g>
<!-- single_cell_response&#45;&gt;SplineInterpolation -->
<g id="edge16" class="edge">
<title>single_cell_response&#45;&gt;SplineInterpolation</title>
<path fill="none" stroke="black" d="M499.74,-798.63C545.06,-791.28 596.19,-774.07 624.85,-735 652.87,-696.8 600.2,-669.02 547.61,-651.83"/>
<polygon fill="black" stroke="black" points="548.8,-648.54 538.21,-648.88 546.7,-655.22 548.8,-648.54"/>
<text text-anchor="middle" x="715.85" y="-713.3" font-family="Helvetica,sans-Serif" font-size="14.00">WorkspaceToInterpolate</text>
</g>
<!-- single_cell_responseAfter&#45;&gt;WeightedMean -->
<g id="edge31" class="edge">
<title>single_cell_responseAfter&#45;&gt;WeightedMean</title>
<path fill="none" stroke="black" d="M189.99,-145.63C167.45,-136.05 139.24,-124.05 115.22,-113.84"/>
<polygon fill="black" stroke="black" points="116.82,-110.72 106.25,-110.03 114.08,-117.16 116.82,-110.72"/>
</g>
<!-- absolute_normalise -->
<g id="node25" class="node">
<title>absolute_normalise</title>
<polygon fill="lightseagreen" stroke="black" points="499.85,-109 349.85,-109 349.85,-73 499.85,-73 499.85,-109"/>
<text text-anchor="middle" x="424.85" y="-87.3" font-family="Helvetica,sans-Serif" font-size="14.00">absolute_normalise</text>
</g>
<!-- factors&#45;&gt;absolute_normalise -->
<g id="edge35" class="edge">
<title>factors&#45;&gt;absolute_normalise</title>
<path fill="none" stroke="black" d="M424.85,-145.81C424.85,-138.23 424.85,-129.1 424.85,-120.54"/>
<polygon fill="black" stroke="black" points="428.35,-120.54 424.85,-110.54 421.35,-120.54 428.35,-120.54"/>
</g>
<!-- CalibrationMethod -->
<g id="node6" class="node">
<title>CalibrationMethod</title>
<polygon fill="limegreen" stroke="black" points="447.85,-415 316.47,-397 447.85,-379 579.23,-397 447.85,-415"/>
<text text-anchor="middle" x="447.85" y="-393.3" font-family="Helvetica,sans-Serif" font-size="14.00">CalibrationMethod</text>
</g>
<!-- MostLikelyMean -->
<g id="node17" class="node">
<title>MostLikelyMean</title>
<path fill="lightskyblue" stroke="black" d="M366.85,-328C366.85,-328 264.85,-328 264.85,-328 258.85,-328 252.85,-322 252.85,-316 252.85,-316 252.85,-304 252.85,-304 252.85,-298 258.85,-292 264.85,-292 264.85,-292 366.85,-292 366.85,-292 372.85,-292 378.85,-298 378.85,-304 378.85,-304 378.85,-316 378.85,-316 378.85,-322 372.85,-328 366.85,-328"/>
<text text-anchor="middle" x="315.85" y="-306.3" font-family="Helvetica,sans-Serif" font-size="14.00">MostLikelyMean</text>
</g>
<!-- CalibrationMethod&#45;&gt;MostLikelyMean -->
<g id="edge23" class="edge">
<title>CalibrationMethod&#45;&gt;MostLikelyMean</title>
<path fill="none" stroke="black" d="M370.94,-389.04C352.84,-383.82 335.23,-375.17 322.85,-361 317.71,-355.13 315.3,-347.3 314.34,-339.58"/>
<polygon fill="black" stroke="black" points="317.85,-339.56 313.9,-329.73 310.85,-339.88 317.85,-339.56"/>
<text text-anchor="middle" x="377.85" y="-349.8" font-family="Helvetica,sans-Serif" font-size="14.00">MostLikelyMean</text>
</g>
<!-- mean -->
<g id="node28" class="node">
<title>mean</title>
<polygon fill="lightseagreen" stroke="black" points="454.85,-328 398.85,-328 398.85,-292 454.85,-292 454.85,-328"/>
<text text-anchor="middle" x="426.85" y="-306.3" font-family="Helvetica,sans-Serif" font-size="14.00">mean</text>
</g>
<!-- CalibrationMethod&#45;&gt;mean -->
<g id="edge24" class="edge">
<title>CalibrationMethod&#45;&gt;mean</title>
<path fill="none" stroke="black" d="M443.7,-379.21C440.89,-367.83 437.1,-352.52 433.84,-339.29"/>
<polygon fill="black" stroke="black" points="437.29,-338.68 431.49,-329.81 430.5,-340.36 437.29,-338.68"/>
<text text-anchor="middle" x="457.85" y="-349.8" font-family="Helvetica,sans-Serif" font-size="14.00">Mean</text>
</g>
<!-- median -->
<g id="node29" class="node">
<title>median</title>
<polygon fill="lightseagreen" stroke="black" points="541.85,-328 473.85,-328 473.85,-292 541.85,-292 541.85,-328"/>
<text text-anchor="middle" x="507.85" y="-306.3" font-family="Helvetica,sans-Serif" font-size="14.00">median</text>
</g>
<!-- CalibrationMethod&#45;&gt;median -->
<g id="edge25" class="edge">
<title>CalibrationMethod&#45;&gt;median</title>
<path fill="none" stroke="black" d="M463.89,-380.74C469.61,-374.86 475.86,-367.91 480.85,-361 485.87,-354.04 490.6,-346.04 494.65,-338.5"/>
<polygon fill="black" stroke="black" points="497.74,-340.16 499.2,-329.67 491.51,-336.96 497.74,-340.16"/>
<text text-anchor="middle" x="516.35" y="-349.8" font-family="Helvetica,sans-Serif" font-size="14.00">Median</text>
</g>
<!-- CalibrationProvided -->
<g id="node7" class="node">
<title>CalibrationProvided</title>
<polygon fill="limegreen" stroke="black" points="661.85,-1215 521.92,-1197 661.85,-1179 801.77,-1197 661.85,-1215"/>
<text text-anchor="middle" x="661.85" y="-1193.3" font-family="Helvetica,sans-Serif" font-size="14.00">CalibrationProvided</text>
</g>
<!-- normalise -->
<g id="node23" class="node">
<title>normalise</title>
<polygon fill="lightseagreen" stroke="black" points="596.85,-1055 512.85,-1055 512.85,-1019 596.85,-1019 596.85,-1055"/>
<text text-anchor="middle" x="554.85" y="-1033.3" font-family="Helvetica,sans-Serif" font-size="14.00">normalise</text>
</g>
<!-- CalibrationProvided&#45;&gt;normalise -->
<g id="edge6" class="edge">
<title>CalibrationProvided&#45;&gt;normalise</title>
<path fill="none" stroke="black" d="M665.61,-1178.99C669.48,-1157.03 672.79,-1118.52 655.85,-1092 644.7,-1074.55 625.9,-1062.36 607.53,-1054.04"/>
<polygon fill="black" stroke="black" points="609.1,-1050.9 598.52,-1050.28 606.4,-1057.36 609.1,-1050.9"/>
<text text-anchor="middle" x="676.35" y="-1106.3" font-family="Helvetica,sans-Serif" font-size="14.00">No</text>
</g>
<!-- calibrate -->
<g id="node24" class="node">
<title>calibrate</title>
<polygon fill="lightseagreen" stroke="black" points="445.35,-1128 368.35,-1128 368.35,-1092 445.35,-1092 445.35,-1128"/>
<text text-anchor="middle" x="406.85" y="-1106.3" font-family="Helvetica,sans-Serif" font-size="14.00">calibrate</text>
</g>
<!-- CalibrationProvided&#45;&gt;calibrate -->
<g id="edge3" class="edge">
<title>CalibrationProvided&#45;&gt;calibrate</title>
<path fill="none" stroke="black" d="M622.62,-1183.58C582.93,-1170.92 519.53,-1150.46 456.34,-1128.82"/>
<polygon fill="black" stroke="black" points="457.82,-1125.63 447.23,-1125.69 455.55,-1132.25 457.82,-1125.63"/>
<text text-anchor="middle" x="562.35" y="-1149.8" font-family="Helvetica,sans-Serif" font-size="14.00">Yes</text>
</g>
<!-- NormaliseTo -->
<g id="node8" class="node">
<title>NormaliseTo</title>
<polygon fill="limegreen" stroke="black" points="554.85,-1128 463.02,-1110 554.85,-1092 646.68,-1110 554.85,-1128"/>
<text text-anchor="middle" x="554.85" y="-1106.3" font-family="Helvetica,sans-Serif" font-size="14.00">NormaliseTo</text>
</g>
<!-- NormaliseTo&#45;&gt;normalise -->
<g id="edge7" class="edge">
<title>NormaliseTo&#45;&gt;normalise</title>
<path fill="none" stroke="black" d="M554.85,-1091.81C554.85,-1084.23 554.85,-1075.1 554.85,-1066.54"/>
<polygon fill="black" stroke="black" points="558.35,-1066.54 554.85,-1056.54 551.35,-1066.54 558.35,-1066.54"/>
</g>
<!-- InterpolateOverlappingAngles&#45;&gt;Divide -->
<g id="edge17" class="edge">
<title>InterpolateOverlappingAngles&#45;&gt;Divide</title>
<path fill="none" stroke="black" d="M464.61,-703.43C494.22,-693.62 528.08,-676.66 545.85,-648 564.39,-618.1 531.52,-587.14 501.62,-566.86"/>
<polygon fill="black" stroke="black" points="503.65,-564.01 493.35,-561.5 499.83,-569.88 503.65,-564.01"/>
<text text-anchor="middle" x="561.35" y="-626.3" font-family="Helvetica,sans-Serif" font-size="14.00">No</text>
</g>
<!-- InterpolateOverlappingAngles&#45;&gt;SplineInterpolation -->
<g id="edge15" class="edge">
<title>InterpolateOverlappingAngles&#45;&gt;SplineInterpolation</title>
<path fill="none" stroke="black" d="M419.26,-699.61C426.81,-687.73 437.17,-671.41 445.91,-657.67"/>
<polygon fill="black" stroke="black" points="448.69,-659.81 451.1,-649.49 442.78,-656.06 448.69,-659.81"/>
<text text-anchor="middle" x="452.35" y="-669.8" font-family="Helvetica,sans-Serif" font-size="14.00">yes</text>
</g>
<!-- CalibrationRun -->
<g id="node10" class="node">
<title>CalibrationRun</title>
<ellipse fill="khaki" stroke="black" cx="661.85" cy="-1357" rx="77.19" ry="18"/>
<text text-anchor="middle" x="661.85" y="-1353.3" font-family="Helvetica,sans-Serif" font-size="14.00">CalibrationRun</text>
</g>
<!-- LoadILLDiffraction -->
<g id="node16" class="node">
<title>LoadILLDiffraction</title>
<path fill="lightskyblue" stroke="black" d="M720.35,-1288C720.35,-1288 603.35,-1288 603.35,-1288 597.35,-1288 591.35,-1282 591.35,-1276 591.35,-1276 591.35,-1264 591.35,-1264 591.35,-1258 597.35,-1252 603.35,-1252 603.35,-1252 720.35,-1252 720.35,-1252 726.35,-1252 732.35,-1258 732.35,-1264 732.35,-1264 732.35,-1276 732.35,-1276 732.35,-1282 726.35,-1288 720.35,-1288"/>
<text text-anchor="middle" x="661.85" y="-1266.3" font-family="Helvetica,sans-Serif" font-size="14.00">LoadILLDiffraction</text>
</g>
<!-- CalibrationRun&#45;&gt;LoadILLDiffraction -->
<g id="edge1" class="edge">
<title>CalibrationRun&#45;&gt;LoadILLDiffraction</title>
<path fill="none" stroke="black" d="M661.85,-1338.8C661.85,-1327.58 661.85,-1312.67 661.85,-1299.69"/>
<polygon fill="black" stroke="black" points="665.35,-1299.98 661.85,-1289.98 658.35,-1299.98 665.35,-1299.98"/>
<text text-anchor="middle" x="708.85" y="-1309.8" font-family="Helvetica,sans-Serif" font-size="14.00">DetectorScan</text>
</g>
<!-- CalibrationFile -->
<g id="node11" class="node">
<title>CalibrationFile</title>
<ellipse fill="khaki" stroke="black" cx="406.85" cy="-1197" rx="74.19" ry="18"/>
<text text-anchor="middle" x="406.85" y="-1193.3" font-family="Helvetica,sans-Serif" font-size="14.00">CalibrationFile</text>
</g>
<!-- CalibrationFile&#45;&gt;calibrate -->
<g id="edge4" class="edge">
<title>CalibrationFile&#45;&gt;calibrate</title>
<path fill="none" stroke="black" d="M406.85,-1178.8C406.85,-1167.58 406.85,-1152.67 406.85,-1139.69"/>
<polygon fill="black" stroke="black" points="410.35,-1139.98 406.85,-1129.98 403.35,-1139.98 410.35,-1139.98"/>
</g>
<!-- ExcludedRange -->
<g id="node12" class="node">
<title>ExcludedRange</title>
<ellipse fill="khaki" stroke="black" cx="590.85" cy="-543" rx="81.49" ry="18"/>
<text text-anchor="middle" x="590.85" y="-539.3" font-family="Helvetica,sans-Serif" font-size="14.00">ExcludedRange</text>
</g>
<!-- exclude_ranges -->
<g id="node26" class="node">
<title>exclude_ranges</title>
<polygon fill="lightseagreen" stroke="black" points="524.35,-488 399.35,-488 399.35,-452 524.35,-452 524.35,-488"/>
<text text-anchor="middle" x="461.85" y="-466.3" font-family="Helvetica,sans-Serif" font-size="14.00">exclude_ranges</text>
</g>
<!-- ExcludedRange&#45;&gt;exclude_ranges -->
<g id="edge21" class="edge">
<title>ExcludedRange&#45;&gt;exclude_ranges</title>
<path fill="none" stroke="black" d="M561.57,-525.89C544.31,-516.39 522.19,-504.21 503.17,-493.74"/>
<polygon fill="black" stroke="black" points="505.03,-490.77 494.58,-489.02 501.66,-496.91 505.03,-490.77"/>
</g>
<!-- OutputWorkspace -->
<g id="node13" class="node">
<title>OutputWorkspace</title>
<ellipse fill="khaki" stroke="black" cx="424.85" cy="-18" rx="91.78" ry="18"/>
<text text-anchor="middle" x="424.85" y="-14.3" font-family="Helvetica,sans-Serif" font-size="14.00">OutputWorkspace</text>
</g>
<!-- PixelRange -->
<g id="node15" class="node">
<title>PixelRange</title>
<ellipse fill="khaki" stroke="black" cx="392.85" cy="-964" rx="59.59" ry="18"/>
<text text-anchor="middle" x="392.85" y="-960.3" font-family="Helvetica,sans-Serif" font-size="14.00">PixelRange</text>
</g>
<!-- extract_single_cell -->
<g id="node27" class="node">
<title>extract_single_cell</title>
<polygon fill="lightseagreen" stroke="black" points="480.35,-895 337.35,-895 337.35,-859 480.35,-859 480.35,-895"/>
<text text-anchor="middle" x="408.85" y="-873.3" font-family="Helvetica,sans-Serif" font-size="14.00">extract_single_cell</text>
</g>
<!-- PixelRange&#45;&gt;extract_single_cell -->
<g id="edge10" class="edge">
<title>PixelRange&#45;&gt;extract_single_cell</title>
<path fill="none" stroke="black" d="M396.08,-945.8C398.2,-934.58 401,-919.67 403.45,-906.69"/>
<polygon fill="black" stroke="black" points="406.87,-907.43 405.28,-896.95 399.99,-906.13 406.87,-907.43"/>
</g>
<!-- LoadILLDiffraction&#45;&gt;CalibrationProvided -->
<g id="edge2" class="edge">
<title>LoadILLDiffraction&#45;&gt;CalibrationProvided</title>
<path fill="none" stroke="black" d="M661.85,-1251.81C661.85,-1244.23 661.85,-1235.1 661.85,-1226.54"/>
<polygon fill="black" stroke="black" points="665.35,-1226.54 661.85,-1216.54 658.35,-1226.54 665.35,-1226.54"/>
</g>
<!-- MostLikelyMean&#45;&gt;factor -->
<g id="edge26" class="edge">
<title>MostLikelyMean&#45;&gt;factor</title>
<path fill="none" stroke="black" d="M342.51,-291.63C356.37,-282.61 373.5,-271.44 388.55,-261.64"/>
<polygon fill="black" stroke="black" points="390.34,-264.65 396.81,-256.26 386.52,-258.79 390.34,-264.65"/>
</g>
<!-- WeightedMean&#45;&gt;reference -->
<g id="edge33" class="edge">
<title>WeightedMean&#45;&gt;reference</title>
<path fill="none" stroke="black" d="M71.07,-109.22C72.85,-123.59 72.85,-144.63 72.85,-163 72.85,-631 72.85,-631 72.85,-631 72.85,-649.88 72.85,-671.12 71.72,-687.65"/>
<polygon fill="black" stroke="black" points="68.27,-686.96 70.83,-697.24 75.24,-687.6 68.27,-686.96"/>
</g>
<!-- ConvertSpectrumAxis -->
<g id="node19" class="node">
<title>ConvertSpectrumAxis</title>
<path fill="lightskyblue" stroke="black" d="M626.85,-982C626.85,-982 482.85,-982 482.85,-982 476.85,-982 470.85,-976 470.85,-970 470.85,-970 470.85,-958 470.85,-958 470.85,-952 476.85,-946 482.85,-946 482.85,-946 626.85,-946 626.85,-946 632.85,-946 638.85,-952 638.85,-958 638.85,-958 638.85,-970 638.85,-970 638.85,-976 632.85,-982 626.85,-982"/>
<text text-anchor="middle" x="554.85" y="-960.3" font-family="Helvetica,sans-Serif" font-size="14.00">ConvertSpectrumAxis</text>
</g>
<!-- ConvertSpectrumAxis&#45;&gt;extract_single_cell -->
<g id="edge9" class="edge">
<title>ConvertSpectrumAxis&#45;&gt;extract_single_cell</title>
<path fill="none" stroke="black" d="M524.95,-945.59C502.9,-932.76 472.69,-915.17 448.61,-901.15"/>
<polygon fill="black" stroke="black" points="450.42,-898.15 440.01,-896.14 446.89,-904.2 450.42,-898.15"/>
<text text-anchor="middle" x="502.85" y="-916.8" font-family="Helvetica,sans-Serif" font-size="14.00">i&#45;th</text>
</g>
<!-- Divide&#45;&gt;exclude_ranges -->
<g id="edge20" class="edge">
<title>Divide&#45;&gt;exclude_ranges</title>
<path fill="none" stroke="black" d="M461.85,-524.81C461.85,-517.23 461.85,-508.1 461.85,-499.54"/>
<polygon fill="black" stroke="black" points="465.35,-499.54 461.85,-489.54 458.35,-499.54 465.35,-499.54"/>
</g>
<!-- Scale -->
<g id="node21" class="node">
<title>Scale</title>
<path fill="lightskyblue" stroke="black" d="M245.85,-255C245.85,-255 215.85,-255 215.85,-255 209.85,-255 203.85,-249 203.85,-243 203.85,-243 203.85,-231 203.85,-231 203.85,-225 209.85,-219 215.85,-219 215.85,-219 245.85,-219 245.85,-219 251.85,-219 257.85,-225 257.85,-231 257.85,-231 257.85,-243 257.85,-243 257.85,-249 251.85,-255 245.85,-255"/>
<text text-anchor="middle" x="230.85" y="-233.3" font-family="Helvetica,sans-Serif" font-size="14.00">Scale</text>
</g>
<!-- Scale&#45;&gt;single_cell_responseAfter -->
<g id="edge29" class="edge">
<title>Scale&#45;&gt;single_cell_responseAfter</title>
<path fill="none" stroke="black" d="M230.85,-218.81C230.85,-211.23 230.85,-202.1 230.85,-193.54"/>
<polygon fill="black" stroke="black" points="234.35,-193.54 230.85,-183.54 227.35,-193.54 234.35,-193.54"/>
</g>
<!-- SplineInterpolation&#45;&gt;Divide -->
<g id="edge19" class="edge">
<title>SplineInterpolation&#45;&gt;Divide</title>
<path fill="none" stroke="black" d="M462.64,-611.8C462.51,-600.58 462.34,-585.67 462.18,-572.69"/>
<polygon fill="black" stroke="black" points="465.69,-572.94 462.07,-562.98 458.69,-573.02 465.69,-572.94"/>
<text text-anchor="middle" x="477.85" y="-582.8" font-family="Helvetica,sans-Serif" font-size="14.00">RHS</text>
</g>
<!-- normalise&#45;&gt;ConvertSpectrumAxis -->
<g id="edge8" class="edge">
<title>normalise&#45;&gt;ConvertSpectrumAxis</title>
<path fill="none" stroke="black" d="M554.85,-1018.81C554.85,-1011.23 554.85,-1002.1 554.85,-993.54"/>
<polygon fill="black" stroke="black" points="558.35,-993.54 554.85,-983.54 551.35,-993.54 558.35,-993.54"/>
</g>
<!-- calibrate&#45;&gt;normalise -->
<g id="edge5" class="edge">
<title>calibrate&#45;&gt;normalise</title>
<path fill="none" stroke="black" d="M443.05,-1091.63C462.67,-1082.22 487.14,-1070.48 508.17,-1060.39"/>
<polygon fill="black" stroke="black" points="509.64,-1063.57 517.14,-1056.09 506.61,-1057.26 509.64,-1063.57"/>
</g>
<!-- absolute_normalise&#45;&gt;OutputWorkspace -->
<g id="edge36" class="edge">
<title>absolute_normalise&#45;&gt;OutputWorkspace</title>
<path fill="none" stroke="black" d="M424.85,-72.81C424.85,-65.23 424.85,-56.1 424.85,-47.54"/>
<polygon fill="black" stroke="black" points="428.35,-47.54 424.85,-37.54 421.35,-47.54 428.35,-47.54"/>
</g>
<!-- exclude_ranges&#45;&gt;CalibrationMethod -->
<g id="edge22" class="edge">
<title>exclude_ranges&#45;&gt;CalibrationMethod</title>
<path fill="none" stroke="black" d="M458.46,-451.81C456.94,-444.14 455.12,-434.89 453.42,-426.24"/>
<polygon fill="black" stroke="black" points="456.87,-425.65 451.5,-416.51 450,-427 456.87,-425.65"/>
</g>
<!-- extract_single_cell&#45;&gt;single_cell_response -->
<g id="edge11" class="edge">
<title>extract_single_cell&#45;&gt;single_cell_response</title>
<path fill="none" stroke="black" d="M408.85,-858.81C408.85,-851.23 408.85,-842.1 408.85,-833.54"/>
<polygon fill="black" stroke="black" points="412.35,-833.54 408.85,-823.54 405.35,-833.54 412.35,-833.54"/>
</g>
<!-- mean&#45;&gt;factor -->
<g id="edge27" class="edge">
<title>mean&#45;&gt;factor</title>
<path fill="none" stroke="black" d="M426.36,-291.81C426.15,-284.14 425.89,-274.89 425.64,-266.24"/>
<polygon fill="black" stroke="black" points="429.15,-266.44 425.37,-256.54 422.15,-266.64 429.15,-266.44"/>
</g>
<!-- median&#45;&gt;factor -->
<g id="edge28" class="edge">
<title>median&#45;&gt;factor</title>
<path fill="none" stroke="black" d="M487.75,-291.81C477.53,-283.07 464.93,-272.28 453.69,-262.67"/>
<polygon fill="black" stroke="black" points="456.07,-260.1 446.19,-256.26 451.52,-265.42 456.07,-260.1"/>
</g>
</g>
</svg>
