<?xml version="1.0" encoding="UTF-8" standalone="no"?>
<!DOCTYPE svg PUBLIC "-//W3C//DTD SVG 1.1//EN"
 "http://www.w3.org/Graphics/SVG/1.1/DTD/svg11.dtd">
<!-- Generated by graphviz version 9.0.0 (20231125.0833)
 -->
<!-- Title: PowderReduceP2D_FocusAndSum Pages: 1 -->
<svg width="495pt" height="1332pt"
 viewBox="0.00 0.00 494.73 1331.50" xmlns="http://www.w3.org/2000/svg" xmlns:xlink="http://www.w3.org/1999/xlink">
<g id="graph0" class="graph" transform="scale(1 1) rotate(0) translate(4 1327.5)">
<title>PowderReduceP2D_FocusAndSum</title>
<polygon fill="white" stroke="none" points="-4,4 -4,-1327.5 490.73,-1327.5 490.73,4 -4,4"/>
<text text-anchor="middle" x="243.37" y="-1306.2" font-family="Helvetica,sans-Serif" font-size="14.00">Process Sample Run Workflow</text>
<!-- SampleData -->
<g id="node1" class="node">
<title>SampleData</title>
<ellipse fill="khaki" stroke="black" cx="251.62" cy="-1280.25" rx="70.15" ry="18"/>
<text text-anchor="middle" x="251.62" y="-1275.58" font-family="Helvetica,sans-Serif" font-size="14.00">SampleData</text>
</g>
<!-- maskFile -->
<g id="node14" class="node">
<title>maskFile</title>
<polygon fill="limegreen" stroke="black" points="251.62,-1225.25 61.65,-1207.25 251.62,-1189.25 441.6,-1207.25 251.62,-1225.25"/>
<text text-anchor="middle" x="251.62" y="-1202.58" font-family="Helvetica,sans-Serif" font-size="14.00">Is masking file specified?</text>
</g>
<!-- SampleData&#45;&gt;maskFile -->
<g id="edge1" class="edge">
<title>SampleData&#45;&gt;maskFile</title>
<path fill="none" stroke="black" d="M251.62,-1262.06C251.62,-1254.48 251.62,-1245.35 251.62,-1236.79"/>
<polygon fill="black" stroke="black" points="255.13,-1236.79 251.63,-1226.79 248.13,-1236.79 255.13,-1236.79"/>
</g>
<!-- OutputWorkspace -->
<g id="node2" class="node">
<title>OutputWorkspace</title>
<ellipse fill="khaki" stroke="black" cx="250.62" cy="-18" rx="98.56" ry="18"/>
<text text-anchor="middle" x="250.62" y="-13.32" font-family="Helvetica,sans-Serif" font-size="14.00">OutputWorkspace</text>
</g>
<!-- LoadMask -->
<g id="node3" class="node">
<title>LoadMask</title>
<path fill="lightskyblue" stroke="black" d="M248,-1136C248,-1136 165.25,-1136 165.25,-1136 159.25,-1136 153.25,-1130 153.25,-1124 153.25,-1124 153.25,-1112 153.25,-1112 153.25,-1106 159.25,-1100 165.25,-1100 165.25,-1100 248,-1100 248,-1100 254,-1100 260,-1106 260,-1112 260,-1112 260,-1124 260,-1124 260,-1130 254,-1136 248,-1136"/>
<text text-anchor="middle" x="206.62" y="-1113.33" font-family="Helvetica,sans-Serif" font-size="14.00">LoadMask v1</text>
</g>
<!-- detcal -->
<g id="node15" class="node">
<title>detcal</title>
<polygon fill="limegreen" stroke="black" points="250.63,-1063 14.52,-1045 250.62,-1027 486.73,-1045 250.63,-1063"/>
<text text-anchor="middle" x="250.62" y="-1040.33" font-family="Helvetica,sans-Serif" font-size="14.00">Is calibration file of type detcal?</text>
</g>
<!-- LoadMask&#45;&gt;detcal -->
<g id="edge4" class="edge">
<title>LoadMask&#45;&gt;detcal</title>
<path fill="none" stroke="black" d="M217.28,-1099.81C222.43,-1091.49 228.73,-1081.33 234.46,-1072.08"/>
<polygon fill="black" stroke="black" points="237.28,-1074.17 239.58,-1063.83 231.33,-1070.48 237.28,-1074.17"/>
</g>
<!-- LoadDetcal -->
<g id="node4" class="node">
<title>LoadDetcal</title>
<path fill="lightskyblue" stroke="black" d="M257.62,-973.75C257.62,-973.75 133.62,-973.75 133.62,-973.75 127.62,-973.75 121.62,-967.75 121.62,-961.75 121.62,-961.75 121.62,-949.75 121.62,-949.75 121.62,-943.75 127.62,-937.75 133.62,-937.75 133.62,-937.75 257.62,-937.75 257.62,-937.75 263.62,-937.75 269.62,-943.75 269.62,-949.75 269.62,-949.75 269.62,-961.75 269.62,-961.75 269.62,-967.75 263.62,-973.75 257.62,-973.75"/>
<text text-anchor="middle" x="195.62" y="-951.08" font-family="Helvetica,sans-Serif" font-size="14.00">LoadIsawDetCal v1</text>
</g>
<!-- FindDetectorsPar -->
<g id="node5" class="node">
<title>FindDetectorsPar</title>
<path fill="lightskyblue" stroke="black" d="M316,-900.75C316,-900.75 185.25,-900.75 185.25,-900.75 179.25,-900.75 173.25,-894.75 173.25,-888.75 173.25,-888.75 173.25,-876.75 173.25,-876.75 173.25,-870.75 179.25,-864.75 185.25,-864.75 185.25,-864.75 316,-864.75 316,-864.75 322,-864.75 328,-870.75 328,-876.75 328,-876.75 328,-888.75 328,-888.75 328,-894.75 322,-900.75 316,-900.75"/>
<text text-anchor="middle" x="250.62" y="-878.08" font-family="Helvetica,sans-Serif" font-size="14.00">FindDetectorsPar v1</text>
</g>
<!-- LoadDetcal&#45;&gt;FindDetectorsPar -->
<g id="edge7" class="edge">
<title>LoadDetcal&#45;&gt;FindDetectorsPar</title>
<path fill="none" stroke="black" d="M208.94,-937.56C215.42,-929.19 223.36,-918.95 230.56,-909.65"/>
<polygon fill="black" stroke="black" points="233.15,-912.02 236.51,-901.98 227.62,-907.74 233.15,-912.02"/>
</g>
<!-- FilterBadPulses -->
<g id="node6" class="node">
<title>FilterBadPulses</title>
<path fill="lightskyblue" stroke="black" d="M310,-827.75C310,-827.75 191.25,-827.75 191.25,-827.75 185.25,-827.75 179.25,-821.75 179.25,-815.75 179.25,-815.75 179.25,-803.75 179.25,-803.75 179.25,-797.75 185.25,-791.75 191.25,-791.75 191.25,-791.75 310,-791.75 310,-791.75 316,-791.75 322,-797.75 322,-803.75 322,-803.75 322,-815.75 322,-815.75 322,-821.75 316,-827.75 310,-827.75"/>
<text text-anchor="middle" x="250.62" y="-805.08" font-family="Helvetica,sans-Serif" font-size="14.00">FilterBadPulses v1</text>
</g>
<!-- FindDetectorsPar&#45;&gt;FilterBadPulses -->
<g id="edge8" class="edge">
<title>FindDetectorsPar&#45;&gt;FilterBadPulses</title>
<path fill="none" stroke="black" d="M250.62,-864.56C250.62,-856.98 250.62,-847.85 250.62,-839.29"/>
<polygon fill="black" stroke="black" points="254.13,-839.29 250.63,-829.29 247.13,-839.29 254.13,-839.29"/>
</g>
<!-- RemovePromptPulse -->
<g id="node7" class="node">
<title>RemovePromptPulse</title>
<path fill="lightskyblue" stroke="black" d="M328.38,-754.75C328.38,-754.75 172.88,-754.75 172.88,-754.75 166.88,-754.75 160.88,-748.75 160.88,-742.75 160.88,-742.75 160.88,-730.75 160.88,-730.75 160.88,-724.75 166.88,-718.75 172.88,-718.75 172.88,-718.75 328.38,-718.75 328.38,-718.75 334.38,-718.75 340.38,-724.75 340.38,-730.75 340.38,-730.75 340.38,-742.75 340.38,-742.75 340.38,-748.75 334.38,-754.75 328.38,-754.75"/>
<text text-anchor="middle" x="250.62" y="-732.08" font-family="Helvetica,sans-Serif" font-size="14.00">RemovePromptPulse v1</text>
</g>
<!-- FilterBadPulses&#45;&gt;RemovePromptPulse -->
<g id="edge9" class="edge">
<title>FilterBadPulses&#45;&gt;RemovePromptPulse</title>
<path fill="none" stroke="black" d="M250.62,-791.56C250.62,-783.98 250.62,-774.85 250.62,-766.29"/>
<polygon fill="black" stroke="black" points="254.13,-766.29 250.63,-756.29 247.13,-766.29 254.13,-766.29"/>
</g>
<!-- detcal2 -->
<g id="node16" class="node">
<title>detcal2</title>
<polygon fill="limegreen" stroke="black" points="250.63,-681.75 14.52,-663.75 250.62,-645.75 486.73,-663.75 250.63,-681.75"/>
<text text-anchor="middle" x="250.62" y="-659.08" font-family="Helvetica,sans-Serif" font-size="14.00">Is calibration file of type detcal?</text>
</g>
<!-- RemovePromptPulse&#45;&gt;detcal2 -->
<g id="edge10" class="edge">
<title>RemovePromptPulse&#45;&gt;detcal2</title>
<path fill="none" stroke="black" d="M250.62,-718.56C250.62,-710.98 250.62,-701.85 250.62,-693.29"/>
<polygon fill="black" stroke="black" points="254.13,-693.29 250.63,-683.29 247.13,-693.29 254.13,-693.29"/>
</g>
<!-- LoadDiffCal -->
<g id="node8" class="node">
<title>LoadDiffCal</title>
<path fill="lightskyblue" stroke="black" d="M249.88,-592.5C249.88,-592.5 157.38,-592.5 157.38,-592.5 151.38,-592.5 145.38,-586.5 145.38,-580.5 145.38,-580.5 145.38,-568.5 145.38,-568.5 145.38,-562.5 151.38,-556.5 157.38,-556.5 157.38,-556.5 249.88,-556.5 249.88,-556.5 255.88,-556.5 261.88,-562.5 261.88,-568.5 261.88,-568.5 261.88,-580.5 261.88,-580.5 261.88,-586.5 255.88,-592.5 249.88,-592.5"/>
<text text-anchor="middle" x="203.62" y="-569.83" font-family="Helvetica,sans-Serif" font-size="14.00">LoadDiffCal v1</text>
</g>
<!-- MaskDetectors -->
<g id="node9" class="node">
<title>MaskDetectors</title>
<path fill="lightskyblue" stroke="black" d="M308.88,-519.5C308.88,-519.5 192.38,-519.5 192.38,-519.5 186.38,-519.5 180.38,-513.5 180.38,-507.5 180.38,-507.5 180.38,-495.5 180.38,-495.5 180.38,-489.5 186.38,-483.5 192.38,-483.5 192.38,-483.5 308.88,-483.5 308.88,-483.5 314.88,-483.5 320.88,-489.5 320.88,-495.5 320.88,-495.5 320.88,-507.5 320.88,-507.5 320.88,-513.5 314.88,-519.5 308.88,-519.5"/>
<text text-anchor="middle" x="250.62" y="-496.82" font-family="Helvetica,sans-Serif" font-size="14.00">MaskDetectors v1</text>
</g>
<!-- LoadDiffCal&#45;&gt;MaskDetectors -->
<g id="edge13" class="edge">
<title>LoadDiffCal&#45;&gt;MaskDetectors</title>
<path fill="none" stroke="black" d="M215,-556.31C220.43,-548.12 227.04,-538.12 233.09,-528.98"/>
<polygon fill="black" stroke="black" points="235.92,-531.06 238.52,-520.79 230.08,-527.2 235.92,-531.06"/>
</g>
<!-- detcal3 -->
<g id="node17" class="node">
<title>detcal3</title>
<polygon fill="limegreen" stroke="black" points="250.63,-446.5 14.52,-428.5 250.62,-410.5 486.73,-428.5 250.63,-446.5"/>
<text text-anchor="middle" x="250.62" y="-423.82" font-family="Helvetica,sans-Serif" font-size="14.00">Is calibration file of type detcal?</text>
</g>
<!-- MaskDetectors&#45;&gt;detcal3 -->
<g id="edge14" class="edge">
<title>MaskDetectors&#45;&gt;detcal3</title>
<path fill="none" stroke="black" d="M250.62,-483.31C250.62,-475.73 250.62,-466.6 250.62,-458.04"/>
<polygon fill="black" stroke="black" points="254.13,-458.04 250.63,-448.04 247.13,-458.04 254.13,-458.04"/>
</g>
<!-- ApplyDiffCal -->
<g id="node10" class="node">
<title>ApplyDiffCal</title>
<path fill="lightskyblue" stroke="black" d="M251.25,-357.25C251.25,-357.25 152,-357.25 152,-357.25 146,-357.25 140,-351.25 140,-345.25 140,-345.25 140,-333.25 140,-333.25 140,-327.25 146,-321.25 152,-321.25 152,-321.25 251.25,-321.25 251.25,-321.25 257.25,-321.25 263.25,-327.25 263.25,-333.25 263.25,-333.25 263.25,-345.25 263.25,-345.25 263.25,-351.25 257.25,-357.25 251.25,-357.25"/>
<text text-anchor="middle" x="201.62" y="-334.57" font-family="Helvetica,sans-Serif" font-size="14.00">ApplyDiffCal v1</text>
</g>
<!-- ConvertUnits -->
<g id="node11" class="node">
<title>ConvertUnits</title>
<path fill="lightskyblue" stroke="black" d="M331,-284.25C331,-284.25 170.25,-284.25 170.25,-284.25 164.25,-284.25 158.25,-278.25 158.25,-272.25 158.25,-272.25 158.25,-253.75 158.25,-253.75 158.25,-247.75 164.25,-241.75 170.25,-241.75 170.25,-241.75 331,-241.75 331,-241.75 337,-241.75 343,-247.75 343,-253.75 343,-253.75 343,-272.25 343,-272.25 343,-278.25 337,-284.25 331,-284.25"/>
<text text-anchor="middle" x="250.62" y="-266.95" font-family="Helvetica,sans-Serif" font-size="14.00">ConvertUnits v1</text>
<text text-anchor="middle" x="250.62" y="-249.7" font-family="Helvetica,sans-Serif" font-size="14.00">with target &#39;Wavelength&#39;</text>
</g>
<!-- ApplyDiffCal&#45;&gt;ConvertUnits -->
<g id="edge17" class="edge">
<title>ApplyDiffCal&#45;&gt;ConvertUnits</title>
<path fill="none" stroke="black" d="M212.99,-321.03C218.26,-313.04 224.69,-303.3 230.73,-294.15"/>
<polygon fill="black" stroke="black" points="233.64,-296.1 236.22,-285.82 227.79,-292.24 233.64,-296.1"/>
</g>
<!-- edgebinning -->
<g id="node18" class="node">
<title>edgebinning</title>
<polygon fill="limegreen" stroke="black" points="250.62,-204.75 58.42,-186.75 250.62,-168.75 442.83,-186.75 250.62,-204.75"/>
<text text-anchor="middle" x="250.62" y="-182.07" font-family="Helvetica,sans-Serif" font-size="14.00">Is edgebinning specified?</text>
</g>
<!-- ConvertUnits&#45;&gt;edgebinning -->
<g id="edge18" class="edge">
<title>ConvertUnits&#45;&gt;edgebinning</title>
<path fill="none" stroke="black" d="M250.62,-241.32C250.62,-233.5 250.62,-224.47 250.62,-216.07"/>
<polygon fill="black" stroke="black" points="254.13,-216.33 250.63,-206.33 247.13,-216.33 254.13,-216.33"/>
</g>
<!-- Bin2DPowderDiffraction1 -->
<g id="node12" class="node">
<title>Bin2DPowderDiffraction1</title>
<path fill="lightskyblue" stroke="black" d="M243.25,-115.5C243.25,-115.5 12,-115.5 12,-115.5 6,-115.5 0,-109.5 0,-103.5 0,-103.5 0,-85 0,-85 0,-79 6,-73 12,-73 12,-73 243.25,-73 243.25,-73 249.25,-73 255.25,-79 255.25,-85 255.25,-85 255.25,-103.5 255.25,-103.5 255.25,-109.5 249.25,-115.5 243.25,-115.5"/>
<text text-anchor="middle" x="127.62" y="-98.2" font-family="Helvetica,sans-Serif" font-size="14.00">Bin2DPowderDiffraction v1</text>
<text text-anchor="middle" x="127.62" y="-80.95" font-family="Helvetica,sans-Serif" font-size="14.00">using a specified edgebinning file.</text>
</g>
<!-- Bin2DPowderDiffraction1&#45;&gt;OutputWorkspace -->
<g id="edge21" class="edge">
<title>Bin2DPowderDiffraction1&#45;&gt;OutputWorkspace</title>
<path fill="none" stroke="black" d="M161.89,-72.57C177.9,-62.9 197,-51.37 213.37,-41.49"/>
<polygon fill="black" stroke="black" points="215.11,-44.53 221.86,-36.36 211.49,-38.54 215.11,-44.53"/>
</g>
<!-- Bin2DPowderDiffraction2 -->
<g id="node13" class="node">
<title>Bin2DPowderDiffraction2</title>
<path fill="lightskyblue" stroke="black" d="M464,-115.5C464,-115.5 285.25,-115.5 285.25,-115.5 279.25,-115.5 273.25,-109.5 273.25,-103.5 273.25,-103.5 273.25,-85 273.25,-85 273.25,-79 279.25,-73 285.25,-73 285.25,-73 464,-73 464,-73 470,-73 476,-79 476,-85 476,-85 476,-103.5 476,-103.5 476,-109.5 470,-115.5 464,-115.5"/>
<text text-anchor="middle" x="374.62" y="-98.2" font-family="Helvetica,sans-Serif" font-size="14.00">Bin2DPowderDiffraction v1</text>
<text text-anchor="middle" x="374.62" y="-80.95" font-family="Helvetica,sans-Serif" font-size="14.00">using logbinning.</text>
</g>
<!-- Bin2DPowderDiffraction2&#45;&gt;OutputWorkspace -->
<g id="edge22" class="edge">
<title>Bin2DPowderDiffraction2&#45;&gt;OutputWorkspace</title>
<path fill="none" stroke="black" d="M340.08,-72.57C323.94,-62.9 304.69,-51.37 288.19,-41.49"/>
<polygon fill="black" stroke="black" points="289.99,-38.49 279.62,-36.36 286.4,-44.5 289.99,-38.49"/>
</g>
<!-- maskFile&#45;&gt;LoadMask -->
<g id="edge2" class="edge">
<title>maskFile&#45;&gt;LoadMask</title>
<path fill="none" stroke="black" d="M243.16,-1189.84C236.81,-1177.53 227.97,-1160.39 220.58,-1146.06"/>
<polygon fill="black" stroke="black" points="223.9,-1144.86 216.21,-1137.58 217.68,-1148.07 223.9,-1144.86"/>
<text text-anchor="middle" x="244.88" y="-1157.95" font-family="Helvetica,sans-Serif" font-size="14.00">Yes</text>
</g>
<!-- maskFile&#45;&gt;detcal -->
<g id="edge3" class="edge">
<title>maskFile&#45;&gt;detcal</title>
<path fill="none" stroke="black" d="M257.58,-1189.68C264.33,-1168.78 273.77,-1131.72 268.62,-1100 267.19,-1091.15 264.51,-1081.79 261.65,-1073.39"/>
<polygon fill="black" stroke="black" points="264.97,-1072.29 258.25,-1064.09 258.4,-1074.69 264.97,-1072.29"/>
<text text-anchor="middle" x="280" y="-1113.33" font-family="Helvetica,sans-Serif" font-size="14.00">No</text>
</g>
<!-- detcal&#45;&gt;LoadDetcal -->
<g id="edge5" class="edge">
<title>detcal&#45;&gt;LoadDetcal</title>
<path fill="none" stroke="black" d="M240.28,-1027.59C232.44,-1015.16 221.51,-997.81 212.42,-983.4"/>
<polygon fill="black" stroke="black" points="215.59,-981.86 207.3,-975.26 209.67,-985.59 215.59,-981.86"/>
<text text-anchor="middle" x="239.88" y="-995.7" font-family="Helvetica,sans-Serif" font-size="14.00">Yes</text>
</g>
<!-- detcal&#45;&gt;FindDetectorsPar -->
<g id="edge6" class="edge">
<title>detcal&#45;&gt;FindDetectorsPar</title>
<path fill="none" stroke="black" d="M260.2,-1027.48C271.09,-1006.63 286.4,-969.63 278.62,-937.75 276.37,-928.52 272.24,-919.1 267.84,-910.77"/>
<polygon fill="black" stroke="black" points="270.96,-909.18 262.97,-902.22 264.87,-912.64 270.96,-909.18"/>
<text text-anchor="middle" x="291" y="-951.08" font-family="Helvetica,sans-Serif" font-size="14.00">No</text>
</g>
<!-- detcal2&#45;&gt;LoadDiffCal -->
<g id="edge11" class="edge">
<title>detcal2&#45;&gt;LoadDiffCal</title>
<path fill="none" stroke="black" d="M241.78,-646.34C235.15,-634.03 225.92,-616.89 218.2,-602.56"/>
<polygon fill="black" stroke="black" points="221.45,-601.21 213.63,-594.07 215.29,-604.53 221.45,-601.21"/>
<text text-anchor="middle" x="241" y="-614.45" font-family="Helvetica,sans-Serif" font-size="14.00">No</text>
</g>
<!-- detcal2&#45;&gt;MaskDetectors -->
<g id="edge12" class="edge">
<title>detcal2&#45;&gt;MaskDetectors</title>
<path fill="none" stroke="black" d="M257.65,-645.84C265.46,-624.89 276.29,-588.09 270.62,-556.5 269.05,-547.71 266.14,-538.47 263.01,-530.17"/>
<polygon fill="black" stroke="black" points="266.28,-528.93 259.29,-520.97 259.79,-531.56 266.28,-528.93"/>
<text text-anchor="middle" x="283.88" y="-569.83" font-family="Helvetica,sans-Serif" font-size="14.00">Yes</text>
</g>
<!-- detcal3&#45;&gt;ApplyDiffCal -->
<g id="edge15" class="edge">
<title>detcal3&#45;&gt;ApplyDiffCal</title>
<path fill="none" stroke="black" d="M241.41,-411.09C234.49,-398.78 224.87,-381.64 216.82,-367.31"/>
<polygon fill="black" stroke="black" points="219.99,-365.81 212.04,-358.8 213.89,-369.24 219.99,-365.81"/>
<text text-anchor="middle" x="240" y="-379.2" font-family="Helvetica,sans-Serif" font-size="14.00">No</text>
</g>
<!-- detcal3&#45;&gt;ConvertUnits -->
<g id="edge16" class="edge">
<title>detcal3&#45;&gt;ConvertUnits</title>
<path fill="none" stroke="black" d="M258.23,-410.61C266.71,-389.69 278.5,-352.92 272.62,-321.25 271,-312.51 268.1,-303.39 264.93,-295.06"/>
<polygon fill="black" stroke="black" points="268.28,-294 261.25,-286.07 261.8,-296.65 268.28,-294"/>
<text text-anchor="middle" x="285.88" y="-334.57" font-family="Helvetica,sans-Serif" font-size="14.00">Yes</text>
</g>
<!-- edgebinning&#45;&gt;Bin2DPowderDiffraction1 -->
<g id="edge19" class="edge">
<title>edgebinning&#45;&gt;Bin2DPowderDiffraction1</title>
<path fill="none" stroke="black" d="M229.76,-170.4C211.97,-157.31 185.96,-138.17 164.65,-122.49"/>
<polygon fill="black" stroke="black" points="166.88,-119.79 156.75,-116.68 162.73,-125.43 166.88,-119.79"/>
<text text-anchor="middle" x="211.88" y="-137.45" font-family="Helvetica,sans-Serif" font-size="14.00">Yes</text>
</g>
<!-- edgebinning&#45;&gt;Bin2DPowderDiffraction2 -->
<g id="edge20" class="edge">
<title>edgebinning&#45;&gt;Bin2DPowderDiffraction2</title>
<path fill="none" stroke="black" d="M271.66,-170.4C289.6,-157.31 315.81,-138.17 337.3,-122.49"/>
<polygon fill="black" stroke="black" points="339.25,-125.4 345.27,-116.68 335.13,-119.74 339.25,-125.4"/>
<text text-anchor="middle" x="329" y="-137.45" font-family="Helvetica,sans-Serif" font-size="14.00">No</text>
</g>
</g>
</svg>
