<?xml version="1.0" encoding="UTF-8" standalone="no"?>
<!DOCTYPE svg PUBLIC "-//W3C//DTD SVG 1.1//EN"
 "http://www.w3.org/Graphics/SVG/1.1/DTD/svg11.dtd">
<!-- Generated by graphviz version 11.0.0 (20240519.1550)
 -->
<!-- Title: PowderReduceP2D_ProcessCanRun Pages: 1 -->
<svg width="495pt" height="1325pt"
 viewBox="0.00 0.00 494.73 1324.50" xmlns="http://www.w3.org/2000/svg" xmlns:xlink="http://www.w3.org/1999/xlink">
<g id="graph0" class="graph" transform="scale(1 1) rotate(0) translate(4 1320.5)">
<title>PowderReduceP2D_ProcessCanRun</title>
<polygon fill="white" stroke="none" points="-4,4 -4,-1320.5 490.73,-1320.5 490.73,4 -4,4"/>
<text text-anchor="middle" x="243.37" y="-1299.2" font-family="Helvetica,sans-Serif" font-size="14.00">Process Can Run Workflow</text>
<!-- SampleData -->
<g id="node1" class="node">
<title>SampleData</title>
<ellipse fill="khaki" stroke="black" cx="251.62" cy="-1273.25" rx="70.15" ry="18"/>
<text text-anchor="middle" x="251.62" y="-1268.58" font-family="Helvetica,sans-Serif" font-size="14.00">SampleData</text>
</g>
<!-- maskFile -->
<g id="node14" class="node">
<title>maskFile</title>
<polygon fill="limegreen" stroke="black" points="251.62,-1219.25 61.65,-1201.25 251.62,-1183.25 441.6,-1201.25 251.62,-1219.25"/>
<text text-anchor="middle" x="251.62" y="-1196.58" font-family="Helvetica,sans-Serif" font-size="14.00">Is masking file specified?</text>
</g>
<!-- SampleData&#45;&gt;maskFile -->
<g id="edge1" class="edge">
<title>SampleData&#45;&gt;maskFile</title>
<path fill="none" stroke="black" d="M251.62,-1254.95C251.62,-1247.66 251.62,-1238.98 251.62,-1230.79"/>
<polygon fill="black" stroke="black" points="255.13,-1230.87 251.63,-1220.87 248.13,-1230.87 255.13,-1230.87"/>
</g>
<!-- OutputWorkspace -->
<g id="node2" class="node">
<title>OutputWorkspace</title>
<ellipse fill="khaki" stroke="black" cx="250.62" cy="-18" rx="98.56" ry="18"/>
<text text-anchor="middle" x="250.62" y="-13.32" font-family="Helvetica,sans-Serif" font-size="14.00">OutputWorkspace</text>
</g>
<!-- LoadMask -->
<g id="node3" class="node">
<title>LoadMask</title>
<path fill="lightskyblue" stroke="black" d="M248,-1130C248,-1130 165.25,-1130 165.25,-1130 159.25,-1130 153.25,-1124 153.25,-1118 153.25,-1118 153.25,-1106 153.25,-1106 153.25,-1100 159.25,-1094 165.25,-1094 165.25,-1094 248,-1094 248,-1094 254,-1094 260,-1100 260,-1106 260,-1106 260,-1118 260,-1118 260,-1124 254,-1130 248,-1130"/>
<text text-anchor="middle" x="206.62" y="-1107.33" font-family="Helvetica,sans-Serif" font-size="14.00">LoadMask v1</text>
</g>
<!-- detcal -->
<g id="node15" class="node">
<title>detcal</title>
<polygon fill="limegreen" stroke="black" points="250.63,-1057 14.52,-1039 250.62,-1021 486.73,-1039 250.63,-1057"/>
<text text-anchor="middle" x="250.62" y="-1034.33" font-family="Helvetica,sans-Serif" font-size="14.00">Is calibration file of type detcal?</text>
</g>
<!-- LoadMask&#45;&gt;detcal -->
<g id="edge4" class="edge">
<title>LoadMask&#45;&gt;detcal</title>
<path fill="none" stroke="black" d="M217.28,-1093.81C222.43,-1085.49 228.73,-1075.33 234.46,-1066.08"/>
<polygon fill="black" stroke="black" points="237.28,-1068.17 239.58,-1057.83 231.33,-1064.48 237.28,-1068.17"/>
</g>
<!-- LoadDetcal -->
<g id="node4" class="node">
<title>LoadDetcal</title>
<path fill="lightskyblue" stroke="black" d="M257.62,-967.75C257.62,-967.75 133.62,-967.75 133.62,-967.75 127.62,-967.75 121.62,-961.75 121.62,-955.75 121.62,-955.75 121.62,-943.75 121.62,-943.75 121.62,-937.75 127.62,-931.75 133.62,-931.75 133.62,-931.75 257.62,-931.75 257.62,-931.75 263.62,-931.75 269.62,-937.75 269.62,-943.75 269.62,-943.75 269.62,-955.75 269.62,-955.75 269.62,-961.75 263.62,-967.75 257.62,-967.75"/>
<text text-anchor="middle" x="195.62" y="-945.08" font-family="Helvetica,sans-Serif" font-size="14.00">LoadIsawDetCal v1</text>
</g>
<!-- FindDetectorsPar -->
<g id="node5" class="node">
<title>FindDetectorsPar</title>
<path fill="lightskyblue" stroke="black" d="M316,-894.75C316,-894.75 185.25,-894.75 185.25,-894.75 179.25,-894.75 173.25,-888.75 173.25,-882.75 173.25,-882.75 173.25,-870.75 173.25,-870.75 173.25,-864.75 179.25,-858.75 185.25,-858.75 185.25,-858.75 316,-858.75 316,-858.75 322,-858.75 328,-864.75 328,-870.75 328,-870.75 328,-882.75 328,-882.75 328,-888.75 322,-894.75 316,-894.75"/>
<text text-anchor="middle" x="250.62" y="-872.08" font-family="Helvetica,sans-Serif" font-size="14.00">FindDetectorsPar v1</text>
</g>
<!-- LoadDetcal&#45;&gt;FindDetectorsPar -->
<g id="edge7" class="edge">
<title>LoadDetcal&#45;&gt;FindDetectorsPar</title>
<path fill="none" stroke="black" d="M208.94,-931.56C215.42,-923.19 223.36,-912.95 230.56,-903.65"/>
<polygon fill="black" stroke="black" points="233.15,-906.02 236.51,-895.98 227.62,-901.74 233.15,-906.02"/>
</g>
<!-- FilterBadPulses -->
<g id="node6" class="node">
<title>FilterBadPulses</title>
<path fill="lightskyblue" stroke="black" d="M310,-822.75C310,-822.75 191.25,-822.75 191.25,-822.75 185.25,-822.75 179.25,-816.75 179.25,-810.75 179.25,-810.75 179.25,-798.75 179.25,-798.75 179.25,-792.75 185.25,-786.75 191.25,-786.75 191.25,-786.75 310,-786.75 310,-786.75 316,-786.75 322,-792.75 322,-798.75 322,-798.75 322,-810.75 322,-810.75 322,-816.75 316,-822.75 310,-822.75"/>
<text text-anchor="middle" x="250.62" y="-800.08" font-family="Helvetica,sans-Serif" font-size="14.00">FilterBadPulses v1</text>
</g>
<!-- FindDetectorsPar&#45;&gt;FilterBadPulses -->
<g id="edge8" class="edge">
<title>FindDetectorsPar&#45;&gt;FilterBadPulses</title>
<path fill="none" stroke="black" d="M250.62,-858.45C250.62,-851.16 250.62,-842.48 250.62,-834.29"/>
<polygon fill="black" stroke="black" points="254.13,-834.37 250.63,-824.37 247.13,-834.37 254.13,-834.37"/>
</g>
<!-- RemovePromptPulse -->
<g id="node7" class="node">
<title>RemovePromptPulse</title>
<path fill="lightskyblue" stroke="black" d="M328.38,-750.75C328.38,-750.75 172.88,-750.75 172.88,-750.75 166.88,-750.75 160.88,-744.75 160.88,-738.75 160.88,-738.75 160.88,-726.75 160.88,-726.75 160.88,-720.75 166.88,-714.75 172.88,-714.75 172.88,-714.75 328.38,-714.75 328.38,-714.75 334.38,-714.75 340.38,-720.75 340.38,-726.75 340.38,-726.75 340.38,-738.75 340.38,-738.75 340.38,-744.75 334.38,-750.75 328.38,-750.75"/>
<text text-anchor="middle" x="250.62" y="-728.08" font-family="Helvetica,sans-Serif" font-size="14.00">RemovePromptPulse v1</text>
</g>
<!-- FilterBadPulses&#45;&gt;RemovePromptPulse -->
<g id="edge9" class="edge">
<title>FilterBadPulses&#45;&gt;RemovePromptPulse</title>
<path fill="none" stroke="black" d="M250.62,-786.45C250.62,-779.16 250.62,-770.48 250.62,-762.29"/>
<polygon fill="black" stroke="black" points="254.13,-762.37 250.63,-752.37 247.13,-762.37 254.13,-762.37"/>
</g>
<!-- detcal2 -->
<g id="node16" class="node">
<title>detcal2</title>
<polygon fill="limegreen" stroke="black" points="250.63,-678.75 14.52,-660.75 250.62,-642.75 486.73,-660.75 250.63,-678.75"/>
<text text-anchor="middle" x="250.62" y="-656.08" font-family="Helvetica,sans-Serif" font-size="14.00">Is calibration file of type detcal?</text>
</g>
<!-- RemovePromptPulse&#45;&gt;detcal2 -->
<g id="edge10" class="edge">
<title>RemovePromptPulse&#45;&gt;detcal2</title>
<path fill="none" stroke="black" d="M250.62,-714.45C250.62,-707.16 250.62,-698.48 250.62,-690.29"/>
<polygon fill="black" stroke="black" points="254.13,-690.37 250.63,-680.37 247.13,-690.37 254.13,-690.37"/>
</g>
<!-- LoadDiffCal -->
<g id="node8" class="node">
<title>LoadDiffCal</title>
<path fill="lightskyblue" stroke="black" d="M249.88,-589.5C249.88,-589.5 157.38,-589.5 157.38,-589.5 151.38,-589.5 145.38,-583.5 145.38,-577.5 145.38,-577.5 145.38,-565.5 145.38,-565.5 145.38,-559.5 151.38,-553.5 157.38,-553.5 157.38,-553.5 249.88,-553.5 249.88,-553.5 255.88,-553.5 261.88,-559.5 261.88,-565.5 261.88,-565.5 261.88,-577.5 261.88,-577.5 261.88,-583.5 255.88,-589.5 249.88,-589.5"/>
<text text-anchor="middle" x="203.62" y="-566.83" font-family="Helvetica,sans-Serif" font-size="14.00">LoadDiffCal v1</text>
</g>
<!-- MaskDetectors -->
<g id="node9" class="node">
<title>MaskDetectors</title>
<path fill="lightskyblue" stroke="black" d="M308.88,-516.5C308.88,-516.5 192.38,-516.5 192.38,-516.5 186.38,-516.5 180.38,-510.5 180.38,-504.5 180.38,-504.5 180.38,-492.5 180.38,-492.5 180.38,-486.5 186.38,-480.5 192.38,-480.5 192.38,-480.5 308.88,-480.5 308.88,-480.5 314.88,-480.5 320.88,-486.5 320.88,-492.5 320.88,-492.5 320.88,-504.5 320.88,-504.5 320.88,-510.5 314.88,-516.5 308.88,-516.5"/>
<text text-anchor="middle" x="250.62" y="-493.82" font-family="Helvetica,sans-Serif" font-size="14.00">MaskDetectors v1</text>
</g>
<!-- LoadDiffCal&#45;&gt;MaskDetectors -->
<g id="edge13" class="edge">
<title>LoadDiffCal&#45;&gt;MaskDetectors</title>
<path fill="none" stroke="black" d="M215,-553.31C220.43,-545.12 227.04,-535.12 233.09,-525.98"/>
<polygon fill="black" stroke="black" points="235.92,-528.06 238.52,-517.79 230.08,-524.2 235.92,-528.06"/>
</g>
<!-- detcal3 -->
<g id="node17" class="node">
<title>detcal3</title>
<polygon fill="limegreen" stroke="black" points="250.63,-444.5 14.52,-426.5 250.62,-408.5 486.73,-426.5 250.63,-444.5"/>
<text text-anchor="middle" x="250.62" y="-421.82" font-family="Helvetica,sans-Serif" font-size="14.00">Is calibration file of type detcal?</text>
</g>
<!-- MaskDetectors&#45;&gt;detcal3 -->
<g id="edge14" class="edge">
<title>MaskDetectors&#45;&gt;detcal3</title>
<path fill="none" stroke="black" d="M250.62,-480.2C250.62,-472.91 250.62,-464.23 250.62,-456.04"/>
<polygon fill="black" stroke="black" points="254.13,-456.12 250.63,-446.12 247.13,-456.12 254.13,-456.12"/>
</g>
<!-- ApplyDiffCal -->
<g id="node10" class="node">
<title>ApplyDiffCal</title>
<path fill="lightskyblue" stroke="black" d="M251.25,-355.25C251.25,-355.25 152,-355.25 152,-355.25 146,-355.25 140,-349.25 140,-343.25 140,-343.25 140,-331.25 140,-331.25 140,-325.25 146,-319.25 152,-319.25 152,-319.25 251.25,-319.25 251.25,-319.25 257.25,-319.25 263.25,-325.25 263.25,-331.25 263.25,-331.25 263.25,-343.25 263.25,-343.25 263.25,-349.25 257.25,-355.25 251.25,-355.25"/>
<text text-anchor="middle" x="201.62" y="-332.57" font-family="Helvetica,sans-Serif" font-size="14.00">ApplyDiffCal v1</text>
</g>
<!-- ConvertUnits -->
<g id="node11" class="node">
<title>ConvertUnits</title>
<path fill="lightskyblue" stroke="black" d="M331,-282.25C331,-282.25 170.25,-282.25 170.25,-282.25 164.25,-282.25 158.25,-276.25 158.25,-270.25 158.25,-270.25 158.25,-251.75 158.25,-251.75 158.25,-245.75 164.25,-239.75 170.25,-239.75 170.25,-239.75 331,-239.75 331,-239.75 337,-239.75 343,-245.75 343,-251.75 343,-251.75 343,-270.25 343,-270.25 343,-276.25 337,-282.25 331,-282.25"/>
<text text-anchor="middle" x="250.62" y="-264.95" font-family="Helvetica,sans-Serif" font-size="14.00">ConvertUnits v1</text>
<text text-anchor="middle" x="250.62" y="-247.7" font-family="Helvetica,sans-Serif" font-size="14.00">with target &#39;Wavelength&#39;</text>
</g>
<!-- ApplyDiffCal&#45;&gt;ConvertUnits -->
<g id="edge17" class="edge">
<title>ApplyDiffCal&#45;&gt;ConvertUnits</title>
<path fill="none" stroke="black" d="M212.99,-319.03C218.26,-311.04 224.69,-301.3 230.73,-292.15"/>
<polygon fill="black" stroke="black" points="233.64,-294.1 236.22,-283.82 227.79,-290.24 233.64,-294.1"/>
</g>
<!-- edgebinning -->
<g id="node18" class="node">
<title>edgebinning</title>
<polygon fill="limegreen" stroke="black" points="250.62,-203.75 58.42,-185.75 250.62,-167.75 442.83,-185.75 250.62,-203.75"/>
<text text-anchor="middle" x="250.62" y="-181.07" font-family="Helvetica,sans-Serif" font-size="14.00">Is edgebinning specified?</text>
</g>
<!-- ConvertUnits&#45;&gt;edgebinning -->
<g id="edge18" class="edge">
<title>ConvertUnits&#45;&gt;edgebinning</title>
<path fill="none" stroke="black" d="M250.62,-239.6C250.62,-232.09 250.62,-223.44 250.62,-215.34"/>
<polygon fill="black" stroke="black" points="254.13,-215.58 250.63,-205.58 247.13,-215.58 254.13,-215.58"/>
</g>
<!-- Bin2DPowderDiffraction1 -->
<g id="node12" class="node">
<title>Bin2DPowderDiffraction1</title>
<path fill="lightskyblue" stroke="black" d="M243.25,-114.5C243.25,-114.5 12,-114.5 12,-114.5 6,-114.5 0,-108.5 0,-102.5 0,-102.5 0,-84 0,-84 0,-78 6,-72 12,-72 12,-72 243.25,-72 243.25,-72 249.25,-72 255.25,-78 255.25,-84 255.25,-84 255.25,-102.5 255.25,-102.5 255.25,-108.5 249.25,-114.5 243.25,-114.5"/>
<text text-anchor="middle" x="127.62" y="-97.2" font-family="Helvetica,sans-Serif" font-size="14.00">Bin2DPowderDiffraction v1</text>
<text text-anchor="middle" x="127.62" y="-79.95" font-family="Helvetica,sans-Serif" font-size="14.00">using a specified edgebinning file.</text>
</g>
<!-- Bin2DPowderDiffraction1&#45;&gt;OutputWorkspace -->
<g id="edge21" class="edge">
<title>Bin2DPowderDiffraction1&#45;&gt;OutputWorkspace</title>
<path fill="none" stroke="black" d="M162.21,-71.65C178.1,-62.19 196.97,-50.95 213.19,-41.29"/>
<polygon fill="black" stroke="black" points="214.8,-44.41 221.6,-36.29 211.22,-38.39 214.8,-44.41"/>
</g>
<!-- Bin2DPowderDiffraction2 -->
<g id="node13" class="node">
<title>Bin2DPowderDiffraction2</title>
<path fill="lightskyblue" stroke="black" d="M464,-114.5C464,-114.5 285.25,-114.5 285.25,-114.5 279.25,-114.5 273.25,-108.5 273.25,-102.5 273.25,-102.5 273.25,-84 273.25,-84 273.25,-78 279.25,-72 285.25,-72 285.25,-72 464,-72 464,-72 470,-72 476,-78 476,-84 476,-84 476,-102.5 476,-102.5 476,-108.5 470,-114.5 464,-114.5"/>
<text text-anchor="middle" x="374.62" y="-97.2" font-family="Helvetica,sans-Serif" font-size="14.00">Bin2DPowderDiffraction v1</text>
<text text-anchor="middle" x="374.62" y="-79.95" font-family="Helvetica,sans-Serif" font-size="14.00">using logbinning.</text>
</g>
<!-- Bin2DPowderDiffraction2&#45;&gt;OutputWorkspace -->
<g id="edge22" class="edge">
<title>Bin2DPowderDiffraction2&#45;&gt;OutputWorkspace</title>
<path fill="none" stroke="black" d="M339.75,-71.65C323.74,-62.19 304.71,-50.95 288.36,-41.29"/>
<polygon fill="black" stroke="black" points="290.27,-38.35 279.88,-36.28 286.71,-44.38 290.27,-38.35"/>
</g>
<!-- maskFile&#45;&gt;LoadMask -->
<g id="edge2" class="edge">
<title>maskFile&#45;&gt;LoadMask</title>
<path fill="none" stroke="black" d="M243.16,-1183.84C236.81,-1171.53 227.97,-1154.39 220.58,-1140.06"/>
<polygon fill="black" stroke="black" points="223.9,-1138.86 216.21,-1131.58 217.68,-1142.07 223.9,-1138.86"/>
<text text-anchor="middle" x="244.88" y="-1151.95" font-family="Helvetica,sans-Serif" font-size="14.00">Yes</text>
</g>
<!-- maskFile&#45;&gt;detcal -->
<g id="edge3" class="edge">
<title>maskFile&#45;&gt;detcal</title>
<path fill="none" stroke="black" d="M257.58,-1183.68C264.33,-1162.78 273.77,-1125.72 268.62,-1094 267.19,-1085.15 264.51,-1075.79 261.65,-1067.39"/>
<polygon fill="black" stroke="black" points="264.97,-1066.29 258.25,-1058.09 258.4,-1068.69 264.97,-1066.29"/>
<text text-anchor="middle" x="279" y="-1107.33" font-family="Helvetica,sans-Serif" font-size="14.00">No</text>
</g>
<!-- detcal&#45;&gt;LoadDetcal -->
<g id="edge5" class="edge">
<title>detcal&#45;&gt;LoadDetcal</title>
<path fill="none" stroke="black" d="M240.28,-1021.59C232.44,-1009.16 221.51,-991.81 212.42,-977.4"/>
<polygon fill="black" stroke="black" points="215.59,-975.86 207.3,-969.26 209.67,-979.59 215.59,-975.86"/>
<text text-anchor="middle" x="239.88" y="-989.7" font-family="Helvetica,sans-Serif" font-size="14.00">Yes</text>
</g>
<!-- detcal&#45;&gt;FindDetectorsPar -->
<g id="edge6" class="edge">
<title>detcal&#45;&gt;FindDetectorsPar</title>
<path fill="none" stroke="black" d="M260.2,-1021.48C271.09,-1000.63 286.4,-963.63 278.62,-931.75 276.37,-922.52 272.24,-913.1 267.84,-904.77"/>
<polygon fill="black" stroke="black" points="270.96,-903.18 262.97,-896.22 264.87,-906.64 270.96,-903.18"/>
<text text-anchor="middle" x="290" y="-945.08" font-family="Helvetica,sans-Serif" font-size="14.00">No</text>
</g>
<!-- detcal2&#45;&gt;LoadDiffCal -->
<g id="edge11" class="edge">
<title>detcal2&#45;&gt;LoadDiffCal</title>
<path fill="none" stroke="black" d="M241.78,-643.34C235.15,-631.03 225.92,-613.89 218.2,-599.56"/>
<polygon fill="black" stroke="black" points="221.45,-598.21 213.63,-591.07 215.29,-601.53 221.45,-598.21"/>
<text text-anchor="middle" x="241" y="-611.45" font-family="Helvetica,sans-Serif" font-size="14.00">No</text>
</g>
<!-- detcal2&#45;&gt;MaskDetectors -->
<g id="edge12" class="edge">
<title>detcal2&#45;&gt;MaskDetectors</title>
<path fill="none" stroke="black" d="M257.65,-642.84C265.46,-621.89 276.29,-585.09 270.62,-553.5 269.05,-544.71 266.14,-535.47 263.01,-527.17"/>
<polygon fill="black" stroke="black" points="266.28,-525.93 259.29,-517.97 259.79,-528.56 266.28,-525.93"/>
<text text-anchor="middle" x="282.88" y="-566.83" font-family="Helvetica,sans-Serif" font-size="14.00">Yes</text>
</g>
<!-- detcal3&#45;&gt;ApplyDiffCal -->
<g id="edge15" class="edge">
<title>detcal3&#45;&gt;ApplyDiffCal</title>
<path fill="none" stroke="black" d="M241.41,-409.09C234.49,-396.78 224.87,-379.64 216.82,-365.31"/>
<polygon fill="black" stroke="black" points="219.99,-363.81 212.04,-356.8 213.89,-367.24 219.99,-363.81"/>
<text text-anchor="middle" x="240" y="-377.2" font-family="Helvetica,sans-Serif" font-size="14.00">No</text>
</g>
<!-- detcal3&#45;&gt;ConvertUnits -->
<g id="edge16" class="edge">
<title>detcal3&#45;&gt;ConvertUnits</title>
<path fill="none" stroke="black" d="M258.23,-408.61C266.71,-387.69 278.5,-350.92 272.62,-319.25 271,-310.51 268.1,-301.39 264.93,-293.06"/>
<polygon fill="black" stroke="black" points="268.28,-292 261.25,-284.07 261.8,-294.65 268.28,-292"/>
<text text-anchor="middle" x="284.88" y="-332.57" font-family="Helvetica,sans-Serif" font-size="14.00">Yes</text>
</g>
<!-- edgebinning&#45;&gt;Bin2DPowderDiffraction1 -->
<g id="edge19" class="edge">
<title>edgebinning&#45;&gt;Bin2DPowderDiffraction1</title>
<path fill="none" stroke="black" d="M229.76,-169.4C211.97,-156.31 185.96,-137.17 164.65,-121.49"/>
<polygon fill="black" stroke="black" points="166.88,-118.79 156.75,-115.68 162.73,-124.43 166.88,-118.79"/>
<text text-anchor="middle" x="211.88" y="-136.45" font-family="Helvetica,sans-Serif" font-size="14.00">Yes</text>
</g>
<!-- edgebinning&#45;&gt;Bin2DPowderDiffraction2 -->
<g id="edge20" class="edge">
<title>edgebinning&#45;&gt;Bin2DPowderDiffraction2</title>
<path fill="none" stroke="black" d="M271.66,-169.4C289.6,-156.31 315.81,-137.17 337.3,-121.49"/>
<polygon fill="black" stroke="black" points="339.25,-124.4 345.27,-115.68 335.13,-118.74 339.25,-124.4"/>
<text text-anchor="middle" x="329" y="-136.45" font-family="Helvetica,sans-Serif" font-size="14.00">No</text>
</g>
</g>
</svg>
