<?xml version="1.0" encoding="UTF-8" standalone="no"?>
<!DOCTYPE svg PUBLIC "-//W3C//DTD SVG 1.1//EN"
 "http://www.w3.org/Graphics/SVG/1.1/DTD/svg11.dtd">
<!-- Generated by graphviz version 11.0.0 (20240519.1550)
 -->
<!-- Title: PowderILLDetectorScan Pages: 1 -->
<svg width="616pt" height="746pt"
 viewBox="0.00 0.00 615.82 745.75" xmlns="http://www.w3.org/2000/svg" xmlns:xlink="http://www.w3.org/1999/xlink">
<g id="graph0" class="graph" transform="scale(1 1) rotate(0) translate(4 741.75)">
<title>PowderILLDetectorScan</title>
<polygon fill="white" stroke="none" points="-4,4 -4,-741.75 611.82,-741.75 611.82,4 -4,4"/>
<!-- MergeType -->
<g id="node1" class="node">
<title>MergeType</title>
<polygon fill="limegreen" stroke="black" points="179.07,-593.75 89.54,-575.75 179.07,-557.75 268.6,-575.75 179.07,-593.75"/>
<text text-anchor="middle" x="179.07" y="-571.08" font-family="Helvetica,sans-Serif" font-size="14.00">MergeType</text>
</g>
<!-- NormaliseTo -->
<g id="node2" class="node">
<title>NormaliseTo</title>
<polygon fill="limegreen" stroke="black" points="178.07,-431.5 79.61,-413.5 178.07,-395.5 276.53,-413.5 178.07,-431.5"/>
<text text-anchor="middle" x="178.07" y="-408.82" font-family="Helvetica,sans-Serif" font-size="14.00">NormaliseTo</text>
</g>
<!-- MergeType&#45;&gt;NormaliseTo -->
<g id="edge6" class="edge">
<title>MergeType&#45;&gt;NormaliseTo</title>
<path fill="none" stroke="black" d="M193.6,-560.38C198.56,-554.5 203.5,-547.3 206.07,-539.75 217.52,-506.16 203.89,-465.9 191.95,-440.26"/>
<polygon fill="black" stroke="black" points="195.24,-439.01 187.69,-431.58 188.96,-442.1 195.24,-439.01"/>
<text text-anchor="middle" x="249.7" y="-481.82" font-family="Helvetica,sans-Serif" font-size="14.00">Skip Merge</text>
</g>
<!-- MergeRuns -->
<g id="node9" class="node">
<title>MergeRuns</title>
<path fill="lightskyblue" stroke="black" d="M171.7,-504.5C171.7,-504.5 102.45,-504.5 102.45,-504.5 96.45,-504.5 90.45,-498.5 90.45,-492.5 90.45,-492.5 90.45,-480.5 90.45,-480.5 90.45,-474.5 96.45,-468.5 102.45,-468.5 102.45,-468.5 171.7,-468.5 171.7,-468.5 177.7,-468.5 183.7,-474.5 183.7,-480.5 183.7,-480.5 183.7,-492.5 183.7,-492.5 183.7,-498.5 177.7,-504.5 171.7,-504.5"/>
<text text-anchor="middle" x="137.07" y="-481.82" font-family="Helvetica,sans-Serif" font-size="14.00">MergeRuns</text>
</g>
<!-- MergeType&#45;&gt;MergeRuns -->
<g id="edge4" class="edge">
<title>MergeType&#45;&gt;MergeRuns</title>
<path fill="none" stroke="black" d="M171.56,-559.15C165.64,-546.85 157.23,-529.38 150.2,-514.77"/>
<polygon fill="black" stroke="black" points="153.53,-513.61 146.04,-506.12 147.22,-516.65 153.53,-513.61"/>
<text text-anchor="middle" x="183.45" y="-526.45" font-family="Helvetica,sans-Serif" font-size="14.00">Merge</text>
</g>
<!-- OutputWorkspaceTypes -->
<g id="node3" class="node">
<title>OutputWorkspaceTypes</title>
<polygon fill="limegreen" stroke="black" points="178.07,-269.25 0,-251.25 178.07,-233.25 356.14,-251.25 178.07,-269.25"/>
<text text-anchor="middle" x="178.07" y="-246.57" font-family="Helvetica,sans-Serif" font-size="14.00">OutputWorkspaceTypes</text>
</g>
<!-- NormaliseTo&#45;&gt;OutputWorkspaceTypes -->
<g id="edge8" class="edge">
<title>NormaliseTo&#45;&gt;OutputWorkspaceTypes</title>
<path fill="none" stroke="black" d="M196.65,-398.43C202.77,-392.69 208.82,-385.51 212.07,-377.5 225.55,-344.29 209.15,-303.99 194.8,-278.23"/>
<polygon fill="black" stroke="black" points="197.91,-276.63 189.83,-269.78 191.88,-280.17 197.91,-276.63"/>
<text text-anchor="middle" x="235.07" y="-319.57" font-family="Helvetica,sans-Serif" font-size="14.00">None</text>
</g>
<!-- NormaliseToMonitor -->
<g id="node10" class="node">
<title>NormaliseToMonitor</title>
<path fill="lightskyblue" stroke="black" d="M185.95,-342.25C185.95,-342.25 58.2,-342.25 58.2,-342.25 52.2,-342.25 46.2,-336.25 46.2,-330.25 46.2,-330.25 46.2,-318.25 46.2,-318.25 46.2,-312.25 52.2,-306.25 58.2,-306.25 58.2,-306.25 185.95,-306.25 185.95,-306.25 191.95,-306.25 197.95,-312.25 197.95,-318.25 197.95,-318.25 197.95,-330.25 197.95,-330.25 197.95,-336.25 191.95,-342.25 185.95,-342.25"/>
<text text-anchor="middle" x="122.07" y="-319.57" font-family="Helvetica,sans-Serif" font-size="14.00">NormaliseToMonitor</text>
</g>
<!-- NormaliseTo&#45;&gt;NormaliseToMonitor -->
<g id="edge7" class="edge">
<title>NormaliseTo&#45;&gt;NormaliseToMonitor</title>
<path fill="none" stroke="black" d="M168.06,-396.9C160.08,-384.48 148.73,-366.79 139.3,-352.1"/>
<polygon fill="black" stroke="black" points="142.31,-350.31 133.97,-343.78 136.42,-354.09 142.31,-350.31"/>
<text text-anchor="middle" x="182.32" y="-364.2" font-family="Helvetica,sans-Serif" font-size="14.00">Monitor</text>
</g>
<!-- SumOverlappingTubes2DTubes -->
<g id="node11" class="node">
<title>SumOverlappingTubes2DTubes</title>
<path fill="lightskyblue" stroke="black" d="M211.82,-180C211.82,-180 62.32,-180 62.32,-180 56.32,-180 50.32,-174 50.32,-168 50.32,-168 50.32,-156 50.32,-156 50.32,-150 56.32,-144 62.32,-144 62.32,-144 211.82,-144 211.82,-144 217.82,-144 223.82,-150 223.82,-156 223.82,-156 223.82,-168 223.82,-168 223.82,-174 217.82,-180 211.82,-180"/>
<text text-anchor="middle" x="137.07" y="-157.32" font-family="Helvetica,sans-Serif" font-size="14.00">SumOverlappingTubes</text>
</g>
<!-- OutputWorkspaceTypes&#45;&gt;SumOverlappingTubes2DTubes -->
<g id="edge10" class="edge">
<title>OutputWorkspaceTypes&#45;&gt;SumOverlappingTubes2DTubes</title>
<path fill="none" stroke="black" d="M170.36,-233.84C164.63,-221.64 156.68,-204.73 149.99,-190.48"/>
<polygon fill="black" stroke="black" points="153.23,-189.16 145.81,-181.6 146.9,-192.14 153.23,-189.16"/>
<text text-anchor="middle" x="192.07" y="-201.95" font-family="Helvetica,sans-Serif" font-size="14.00">2DTubes</text>
</g>
<!-- SumOverlappingTubes2D -->
<g id="node12" class="node">
<title>SumOverlappingTubes2D</title>
<path fill="lightskyblue" stroke="black" d="M403.82,-180C403.82,-180 254.32,-180 254.32,-180 248.32,-180 242.32,-174 242.32,-168 242.32,-168 242.32,-156 242.32,-156 242.32,-150 248.32,-144 254.32,-144 254.32,-144 403.82,-144 403.82,-144 409.82,-144 415.82,-150 415.82,-156 415.82,-156 415.82,-168 415.82,-168 415.82,-174 409.82,-180 403.82,-180"/>
<text text-anchor="middle" x="329.07" y="-157.32" font-family="Helvetica,sans-Serif" font-size="14.00">SumOverlappingTubes</text>
</g>
<!-- OutputWorkspaceTypes&#45;&gt;SumOverlappingTubes2D -->
<g id="edge14" class="edge">
<title>OutputWorkspaceTypes&#45;&gt;SumOverlappingTubes2D</title>
<path fill="none" stroke="black" d="M203.69,-235.45C227.04,-221.96 261.92,-201.8 288.97,-186.17"/>
<polygon fill="black" stroke="black" points="290.69,-189.22 297.6,-181.19 287.19,-183.16 290.69,-189.22"/>
<text text-anchor="middle" x="276.82" y="-201.95" font-family="Helvetica,sans-Serif" font-size="14.00">2D</text>
</g>
<!-- SumOverlappingTubes1D -->
<g id="node13" class="node">
<title>SumOverlappingTubes1D</title>
<path fill="lightskyblue" stroke="black" d="M595.82,-180C595.82,-180 446.32,-180 446.32,-180 440.32,-180 434.32,-174 434.32,-168 434.32,-168 434.32,-156 434.32,-156 434.32,-150 440.32,-144 446.32,-144 446.32,-144 595.82,-144 595.82,-144 601.82,-144 607.82,-150 607.82,-156 607.82,-156 607.82,-168 607.82,-168 607.82,-174 601.82,-180 595.82,-180"/>
<text text-anchor="middle" x="521.07" y="-157.32" font-family="Helvetica,sans-Serif" font-size="14.00">SumOverlappingTubes</text>
</g>
<!-- OutputWorkspaceTypes&#45;&gt;SumOverlappingTubes1D -->
<g id="edge15" class="edge">
<title>OutputWorkspaceTypes&#45;&gt;SumOverlappingTubes1D</title>
<path fill="none" stroke="black" d="M231.07,-238.2C255.9,-232.1 285.75,-224.11 312.07,-215.25 331,-208.88 334.49,-203.9 353.57,-198 367.29,-193.76 394.52,-187.73 423.11,-181.87"/>
<polygon fill="black" stroke="black" points="423.53,-185.36 432.63,-179.94 422.13,-178.5 423.53,-185.36"/>
<text text-anchor="middle" x="362.82" y="-201.95" font-family="Helvetica,sans-Serif" font-size="14.00">1D</text>
</g>
<!-- Run -->
<g id="node4" class="node">
<title>Run</title>
<ellipse fill="khaki" stroke="black" cx="104.07" cy="-719.75" rx="30.16" ry="18"/>
<text text-anchor="middle" x="104.07" y="-715.08" font-family="Helvetica,sans-Serif" font-size="14.00">Run</text>
</g>
<!-- LoadILLDiffraction -->
<g id="node8" class="node">
<title>LoadILLDiffraction</title>
<path fill="lightskyblue" stroke="black" d="M237.32,-665.75C237.32,-665.75 120.82,-665.75 120.82,-665.75 114.82,-665.75 108.82,-659.75 108.82,-653.75 108.82,-653.75 108.82,-641.75 108.82,-641.75 108.82,-635.75 114.82,-629.75 120.82,-629.75 120.82,-629.75 237.32,-629.75 237.32,-629.75 243.32,-629.75 249.32,-635.75 249.32,-641.75 249.32,-641.75 249.32,-653.75 249.32,-653.75 249.32,-659.75 243.32,-665.75 237.32,-665.75"/>
<text text-anchor="middle" x="179.07" y="-643.08" font-family="Helvetica,sans-Serif" font-size="14.00">LoadILLDiffraction</text>
</g>
<!-- Run&#45;&gt;LoadILLDiffraction -->
<g id="edge1" class="edge">
<title>Run&#45;&gt;LoadILLDiffraction</title>
<path fill="none" stroke="black" d="M119.61,-704.25C128.96,-695.52 141.11,-684.18 151.99,-674.03"/>
<polygon fill="black" stroke="black" points="154.34,-676.62 159.26,-667.24 149.56,-671.51 154.34,-676.62"/>
</g>
<!-- UseCalibratedData -->
<g id="node5" class="node">
<title>UseCalibratedData</title>
<ellipse fill="khaki" stroke="black" cx="254.07" cy="-719.75" rx="102.24" ry="18"/>
<text text-anchor="middle" x="254.07" y="-715.08" font-family="Helvetica,sans-Serif" font-size="14.00">UseCalibratedData</text>
</g>
<!-- UseCalibratedData&#45;&gt;LoadILLDiffraction -->
<g id="edge2" class="edge">
<title>UseCalibratedData&#45;&gt;LoadILLDiffraction</title>
<path fill="none" stroke="black" d="M235.92,-701.8C226.93,-693.42 215.9,-683.13 205.96,-673.85"/>
<polygon fill="black" stroke="black" points="208.39,-671.32 198.69,-667.06 203.61,-676.44 208.39,-671.32"/>
</g>
<!-- HeightRange -->
<g id="node6" class="node">
<title>HeightRange</title>
<ellipse fill="khaki" stroke="black" cx="448.07" cy="-251.25" rx="74.36" ry="18"/>
<text text-anchor="middle" x="448.07" y="-246.57" font-family="Helvetica,sans-Serif" font-size="14.00">HeightRange</text>
</g>
<!-- HeightRange&#45;&gt;SumOverlappingTubes2DTubes -->
<g id="edge11" class="edge">
<title>HeightRange&#45;&gt;SumOverlappingTubes2DTubes</title>
<path fill="none" stroke="black" d="M394.67,-238.38C371.64,-232.54 344.63,-224.71 321.07,-215.25 306.08,-209.23 304.19,-203.7 289.07,-198 272.07,-191.59 253.55,-186.14 235.46,-181.59"/>
<polygon fill="black" stroke="black" points="236.29,-178.19 225.75,-179.22 234.63,-184.99 236.29,-178.19"/>
</g>
<!-- HeightRange&#45;&gt;SumOverlappingTubes2D -->
<g id="edge12" class="edge">
<title>HeightRange&#45;&gt;SumOverlappingTubes2D</title>
<path fill="none" stroke="black" d="M425.41,-233.63C407.48,-220.49 382.19,-201.95 362.02,-187.16"/>
<polygon fill="black" stroke="black" points="364.23,-184.44 354.09,-181.35 360.09,-190.08 364.23,-184.44"/>
</g>
<!-- HeightRange&#45;&gt;SumOverlappingTubes1D -->
<g id="edge13" class="edge">
<title>HeightRange&#45;&gt;SumOverlappingTubes1D</title>
<path fill="none" stroke="black" d="M462.15,-233.43C472.71,-220.8 487.38,-203.27 499.43,-188.86"/>
<polygon fill="black" stroke="black" points="501.84,-191.44 505.57,-181.53 496.47,-186.95 501.84,-191.44"/>
</g>
<!-- OutputWorkspace -->
<g id="node7" class="node">
<title>OutputWorkspace</title>
<ellipse fill="khaki" stroke="black" cx="329.07" cy="-18" rx="98.56" ry="18"/>
<text text-anchor="middle" x="329.07" y="-13.32" font-family="Helvetica,sans-Serif" font-size="14.00">OutputWorkspace</text>
</g>
<!-- LoadILLDiffraction&#45;&gt;MergeType -->
<g id="edge3" class="edge">
<title>LoadILLDiffraction&#45;&gt;MergeType</title>
<path fill="none" stroke="black" d="M179.07,-629.45C179.07,-622.16 179.07,-613.48 179.07,-605.29"/>
<polygon fill="black" stroke="black" points="182.57,-605.37 179.07,-595.37 175.57,-605.37 182.57,-605.37"/>
</g>
<!-- MergeRuns&#45;&gt;NormaliseTo -->
<g id="edge5" class="edge">
<title>MergeRuns&#45;&gt;NormaliseTo</title>
<path fill="none" stroke="black" d="M147,-468.31C151.94,-459.75 158.01,-449.24 163.47,-439.78"/>
<polygon fill="black" stroke="black" points="166.35,-441.8 168.32,-431.39 160.29,-438.3 166.35,-441.8"/>
</g>
<!-- NormaliseToMonitor&#45;&gt;OutputWorkspaceTypes -->
<g id="edge9" class="edge">
<title>NormaliseToMonitor&#45;&gt;OutputWorkspaceTypes</title>
<path fill="none" stroke="black" d="M135.63,-306.06C142.43,-297.44 150.79,-286.84 158.29,-277.34"/>
<polygon fill="black" stroke="black" points="161.03,-279.51 164.47,-269.49 155.53,-275.18 161.03,-279.51"/>
</g>
<!-- GroupWorkspaces -->
<g id="node14" class="node">
<title>GroupWorkspaces</title>
<path fill="lightskyblue" stroke="black" d="M387.7,-108C387.7,-108 270.45,-108 270.45,-108 264.45,-108 258.45,-102 258.45,-96 258.45,-96 258.45,-84 258.45,-84 258.45,-78 264.45,-72 270.45,-72 270.45,-72 387.7,-72 387.7,-72 393.7,-72 399.7,-78 399.7,-84 399.7,-84 399.7,-96 399.7,-96 399.7,-102 393.7,-108 387.7,-108"/>
<text text-anchor="middle" x="329.07" y="-85.33" font-family="Helvetica,sans-Serif" font-size="14.00">GroupWorkspaces</text>
</g>
<!-- SumOverlappingTubes2DTubes&#45;&gt;GroupWorkspaces -->
<g id="edge16" class="edge">
<title>SumOverlappingTubes2DTubes&#45;&gt;GroupWorkspaces</title>
<path fill="none" stroke="black" d="M185.03,-143.52C211.01,-134.04 243.32,-122.26 270.76,-112.26"/>
<polygon fill="black" stroke="black" points="271.78,-115.61 279.97,-108.9 269.38,-109.04 271.78,-115.61"/>
</g>
<!-- SumOverlappingTubes2D&#45;&gt;GroupWorkspaces -->
<g id="edge17" class="edge">
<title>SumOverlappingTubes2D&#45;&gt;GroupWorkspaces</title>
<path fill="none" stroke="black" d="M329.07,-143.7C329.07,-136.41 329.07,-127.73 329.07,-119.54"/>
<polygon fill="black" stroke="black" points="332.57,-119.62 329.07,-109.62 325.57,-119.62 332.57,-119.62"/>
</g>
<!-- SumOverlappingTubes1D&#45;&gt;GroupWorkspaces -->
<g id="edge18" class="edge">
<title>SumOverlappingTubes1D&#45;&gt;GroupWorkspaces</title>
<path fill="none" stroke="black" d="M473.12,-143.52C447.13,-134.04 414.82,-122.26 387.39,-112.26"/>
<polygon fill="black" stroke="black" points="388.76,-109.04 378.17,-108.9 386.37,-115.61 388.76,-109.04"/>
</g>
<!-- GroupWorkspaces&#45;&gt;OutputWorkspace -->
<g id="edge19" class="edge">
<title>GroupWorkspaces&#45;&gt;OutputWorkspace</title>
<path fill="none" stroke="black" d="M329.07,-71.7C329.07,-64.41 329.07,-55.73 329.07,-47.54"/>
<polygon fill="black" stroke="black" points="332.57,-47.62 329.07,-37.62 325.57,-47.62 332.57,-47.62"/>
</g>
</g>
</svg>
