<?xml version="1.0" encoding="UTF-8" standalone="no"?>
<!DOCTYPE svg PUBLIC "-//W3C//DTD SVG 1.1//EN"
 "http://www.w3.org/Graphics/SVG/1.1/DTD/svg11.dtd">
<!-- Generated by graphviz version 13.1.1 (20250720.1534)
 -->
<!-- Title: PowderILLEfficiency Pages: 1 -->
<svg width="844pt" height="1424pt"
 viewBox="0.00 0.00 844.00 1424.00" xmlns="http://www.w3.org/2000/svg" xmlns:xlink="http://www.w3.org/1999/xlink">
<g id="graph0" class="graph" transform="scale(1 1) rotate(0) translate(4 1420)">
<title>PowderILLEfficiency</title>
<polygon fill="white" stroke="none" points="-4,4 -4,-1420 839.58,-1420 839.58,4 -4,4"/>
<text xml:space="preserve" text-anchor="middle" x="417.79" y="-1398.7" font-family="Helvetica,sans-Serif" font-size="14.00">SequentialSummedReference1D Flowchart</text>
<!-- reference -->
<g id="node1" class="node">
<title>reference</title>
<polygon fill="grey" stroke="black" points="123.56,-741.75 25.28,-741.75 0,-705.75 98.28,-705.75 123.56,-741.75"/>
<text xml:space="preserve" text-anchor="middle" x="61.78" y="-717.58" font-family="Times,serif" font-size="14.00">reference</text>
</g>
<!-- OutputResponseWorkspace -->
<g id="node14" class="node">
<title>OutputResponseWorkspace</title>
<ellipse fill="khaki" stroke="black" cx="243.78" cy="-634.5" rx="145.38" ry="18"/>
<text xml:space="preserve" text-anchor="middle" x="243.78" y="-629.83" font-family="Helvetica,sans-Serif" font-size="14.00">OutputResponseWorkspace</text>
</g>
<!-- reference&#45;&gt;OutputResponseWorkspace -->
<g id="edge37" class="edge">
<title>reference&#45;&gt;OutputResponseWorkspace</title>
<path fill="none" stroke="black" d="M98.17,-705.3C127.06,-691.45 167.61,-672.02 198.58,-657.17"/>
<polygon fill="black" stroke="black" points="199.82,-660.46 207.32,-652.98 196.79,-654.14 199.82,-660.46"/>
</g>
<!-- WeightedMean -->
<g id="node18" class="node">
<title>WeightedMean</title>
<path fill="lightskyblue" stroke="black" d="M109.16,-109C109.16,-109 14.41,-109 14.41,-109 8.41,-109 2.41,-103 2.41,-97 2.41,-97 2.41,-85 2.41,-85 2.41,-79 8.41,-73 14.41,-73 14.41,-73 109.16,-73 109.16,-73 115.16,-73 121.16,-79 121.16,-85 121.16,-85 121.16,-97 121.16,-97 121.16,-103 115.16,-109 109.16,-109"/>
<text xml:space="preserve" text-anchor="middle" x="61.78" y="-86.33" font-family="Helvetica,sans-Serif" font-size="14.00">WeightedMean</text>
</g>
<!-- reference&#45;&gt;WeightedMean -->
<g id="edge32" class="edge">
<title>reference&#45;&gt;WeightedMean</title>
<path fill="none" stroke="black" d="M54.98,-705.37C52.78,-687.76 52.78,-659.74 52.78,-635.5 52.78,-635.5 52.78,-635.5 52.78,-163 52.78,-148.94 52.78,-133.31 53.58,-120.3"/>
<polygon fill="black" stroke="black" points="57.03,-120.99 54.42,-110.72 50.06,-120.38 57.03,-120.99"/>
</g>
<!-- Divide -->
<g id="node20" class="node">
<title>Divide</title>
<path fill="lightskyblue" stroke="black" d="M497.53,-563.25C497.53,-563.25 462.03,-563.25 462.03,-563.25 456.03,-563.25 450.03,-557.25 450.03,-551.25 450.03,-551.25 450.03,-539.25 450.03,-539.25 450.03,-533.25 456.03,-527.25 462.03,-527.25 462.03,-527.25 497.53,-527.25 497.53,-527.25 503.53,-527.25 509.53,-533.25 509.53,-539.25 509.53,-539.25 509.53,-551.25 509.53,-551.25 509.53,-557.25 503.53,-563.25 497.53,-563.25"/>
<text xml:space="preserve" text-anchor="middle" x="479.78" y="-540.58" font-family="Helvetica,sans-Serif" font-size="14.00">Divide</text>
</g>
<!-- reference&#45;&gt;Divide -->
<g id="edge13" class="edge">
<title>reference&#45;&gt;Divide</title>
<path fill="none" stroke="black" d="M55.84,-705.34C49.13,-682.15 41.7,-641.19 62.78,-616.5 110.94,-560.09 342.89,-548.96 438.47,-546.78"/>
<polygon fill="black" stroke="black" points="438.26,-550.28 448.19,-546.58 438.12,-543.29 438.26,-550.28"/>
<text xml:space="preserve" text-anchor="middle" x="76.28" y="-629.83" font-family="Helvetica,sans-Serif" font-size="14.00">LHS</text>
</g>
<!-- SplineInterpolation -->
<g id="node22" class="node">
<title>SplineInterpolation</title>
<path fill="lightskyblue" stroke="black" d="M542.41,-652.5C542.41,-652.5 419.16,-652.5 419.16,-652.5 413.16,-652.5 407.16,-646.5 407.16,-640.5 407.16,-640.5 407.16,-628.5 407.16,-628.5 407.16,-622.5 413.16,-616.5 419.16,-616.5 419.16,-616.5 542.41,-616.5 542.41,-616.5 548.41,-616.5 554.41,-622.5 554.41,-628.5 554.41,-628.5 554.41,-640.5 554.41,-640.5 554.41,-646.5 548.41,-652.5 542.41,-652.5"/>
<text xml:space="preserve" text-anchor="middle" x="480.78" y="-629.83" font-family="Helvetica,sans-Serif" font-size="14.00">SplineInterpolation</text>
</g>
<!-- reference&#45;&gt;SplineInterpolation -->
<g id="edge18" class="edge">
<title>reference&#45;&gt;SplineInterpolation</title>
<path fill="none" stroke="black" d="M104.33,-713.71C153.72,-703.23 237.62,-685.48 309.78,-670.5 345.66,-663.05 356.86,-660.86 395.86,-652.89"/>
<polygon fill="black" stroke="black" points="396.44,-656.35 405.53,-650.91 395.03,-649.49 396.44,-656.35"/>
<text xml:space="preserve" text-anchor="middle" x="375.78" y="-674.45" font-family="Helvetica,sans-Serif" font-size="14.00">WorkspaceToMatch</text>
</g>
<!-- factor -->
<g id="node2" class="node">
<title>factor</title>
<polygon fill="grey" stroke="black" points="459.08,-255 388.61,-255 370.48,-219 440.95,-219 459.08,-255"/>
<text xml:space="preserve" text-anchor="middle" x="414.78" y="-230.82" font-family="Times,serif" font-size="14.00">factor</text>
</g>
<!-- single_cell_responseAfter -->
<g id="node4" class="node">
<title>single_cell_responseAfter</title>
<polygon fill="grey" stroke="black" points="344.61,-182 153.99,-182 104.95,-146 295.57,-146 344.61,-182"/>
<text xml:space="preserve" text-anchor="middle" x="224.78" y="-157.82" font-family="Times,serif" font-size="14.00">single_cell_response</text>
</g>
<!-- factor&#45;&gt;single_cell_responseAfter -->
<g id="edge30" class="edge">
<title>factor&#45;&gt;single_cell_responseAfter</title>
<path fill="none" stroke="black" d="M370.23,-219.35C343.88,-209.5 310.22,-196.93 281.92,-186.35"/>
<polygon fill="black" stroke="black" points="283.38,-183.16 272.78,-182.94 280.92,-189.72 283.38,-183.16"/>
</g>
<!-- factors -->
<g id="node5" class="node">
<title>factors</title>
<polygon fill="grey" stroke="black" points="463.97,-182 385.72,-182 365.59,-146 443.84,-146 463.97,-182"/>
<text xml:space="preserve" text-anchor="middle" x="414.78" y="-157.82" font-family="Times,serif" font-size="14.00">factors</text>
</g>
<!-- factor&#45;&gt;factors -->
<g id="edge34" class="edge">
<title>factor&#45;&gt;factors</title>
<path fill="none" stroke="black" d="M414.78,-218.81C414.78,-211.23 414.78,-202.1 414.78,-193.54"/>
<polygon fill="black" stroke="black" points="418.28,-193.54 414.78,-183.54 411.28,-193.54 418.28,-193.54"/>
</g>
<!-- single_cell_response -->
<g id="node3" class="node">
<title>single_cell_response</title>
<polygon fill="grey" stroke="black" points="541.61,-831 350.99,-831 301.95,-795 492.57,-795 541.61,-831"/>
<text xml:space="preserve" text-anchor="middle" x="421.78" y="-806.83" font-family="Times,serif" font-size="14.00">single_cell_response</text>
</g>
<!-- single_cell_response&#45;&gt;reference -->
<g id="edge12" class="edge">
<title>single_cell_response&#45;&gt;reference</title>
<path fill="none" stroke="black" d="M349.79,-794.55C286.98,-779.33 196.32,-757.36 133.57,-742.15"/>
<polygon fill="black" stroke="black" points="134.59,-738.8 124.05,-739.84 132.94,-745.6 134.59,-738.8"/>
<text xml:space="preserve" text-anchor="middle" x="332.9" y="-763.7" font-family="Helvetica,sans-Serif" font-size="14.00">For the first pixel</text>
</g>
<!-- InterpolateOverlappingAngles -->
<g id="node9" class="node">
<title>InterpolateOverlappingAngles</title>
<polygon fill="limegreen" stroke="black" points="421.78,-741.75 199.07,-723.75 421.78,-705.75 644.49,-723.75 421.78,-741.75"/>
<text xml:space="preserve" text-anchor="middle" x="421.78" y="-719.08" font-family="Helvetica,sans-Serif" font-size="14.00">InterpolateOverlappingAngles</text>
</g>
<!-- single_cell_response&#45;&gt;InterpolateOverlappingAngles -->
<g id="edge14" class="edge">
<title>single_cell_response&#45;&gt;InterpolateOverlappingAngles</title>
<path fill="none" stroke="black" d="M421.78,-794.76C421.78,-783.01 421.78,-767.16 421.78,-753.52"/>
<polygon fill="black" stroke="black" points="425.28,-753.76 421.78,-743.76 418.28,-753.76 425.28,-753.76"/>
</g>
<!-- single_cell_response&#45;&gt;SplineInterpolation -->
<g id="edge16" class="edge">
<title>single_cell_response&#45;&gt;SplineInterpolation</title>
<path fill="none" stroke="black" d="M498.49,-798.88C558.55,-786.86 634.97,-767.1 653.78,-741.75 684.58,-700.25 623.34,-671.43 565.4,-654.38"/>
<polygon fill="black" stroke="black" points="566.67,-651.11 556.1,-651.75 564.77,-657.84 566.67,-651.11"/>
<text xml:space="preserve" text-anchor="middle" x="744.88" y="-719.08" font-family="Helvetica,sans-Serif" font-size="14.00">WorkspaceToInterpolate</text>
</g>
<!-- single_cell_responseAfter&#45;&gt;WeightedMean -->
<g id="edge31" class="edge">
<title>single_cell_responseAfter&#45;&gt;WeightedMean</title>
<path fill="none" stroke="black" d="M184.91,-145.63C163,-136.09 135.61,-124.16 112.23,-113.98"/>
<polygon fill="black" stroke="black" points="113.76,-110.82 103.2,-110.04 110.97,-117.24 113.76,-110.82"/>
</g>
<!-- absolute_normalise -->
<g id="node25" class="node">
<title>absolute_normalise</title>
<polygon fill="lightseagreen" stroke="black" points="489.53,-109 340.03,-109 340.03,-73 489.53,-73 489.53,-109"/>
<text xml:space="preserve" text-anchor="middle" x="414.78" y="-86.33" font-family="Helvetica,sans-Serif" font-size="14.00">absolute_normalise</text>
</g>
<!-- factors&#45;&gt;absolute_normalise -->
<g id="edge35" class="edge">
<title>factors&#45;&gt;absolute_normalise</title>
<path fill="none" stroke="black" d="M414.78,-145.81C414.78,-138.23 414.78,-129.1 414.78,-120.54"/>
<polygon fill="black" stroke="black" points="418.28,-120.54 414.78,-110.54 411.28,-120.54 418.28,-120.54"/>
</g>
<!-- CalibrationMethod -->
<g id="node6" class="node">
<title>CalibrationMethod</title>
<polygon fill="limegreen" stroke="black" points="451.78,-417.25 310.17,-399.25 451.78,-381.25 593.39,-399.25 451.78,-417.25"/>
<text xml:space="preserve" text-anchor="middle" x="451.78" y="-394.57" font-family="Helvetica,sans-Serif" font-size="14.00">CalibrationMethod</text>
</g>
<!-- MostLikelyMean -->
<g id="node17" class="node">
<title>MostLikelyMean</title>
<path fill="lightskyblue" stroke="black" d="M356.53,-328C356.53,-328 255.03,-328 255.03,-328 249.03,-328 243.03,-322 243.03,-316 243.03,-316 243.03,-304 243.03,-304 243.03,-298 249.03,-292 255.03,-292 255.03,-292 356.53,-292 356.53,-292 362.53,-292 368.53,-298 368.53,-304 368.53,-304 368.53,-316 368.53,-316 368.53,-322 362.53,-328 356.53,-328"/>
<text xml:space="preserve" text-anchor="middle" x="305.78" y="-305.32" font-family="Helvetica,sans-Serif" font-size="14.00">MostLikelyMean</text>
</g>
<!-- CalibrationMethod&#45;&gt;MostLikelyMean -->
<g id="edge23" class="edge">
<title>CalibrationMethod&#45;&gt;MostLikelyMean</title>
<path fill="none" stroke="black" d="M368.51,-391.38C349.51,-386.11 330.92,-377.42 317.28,-363.25 311.17,-356.9 308.01,-348.08 306.45,-339.5"/>
<polygon fill="black" stroke="black" points="309.94,-339.24 305.36,-329.69 302.99,-340.01 309.94,-339.24"/>
<text xml:space="preserve" text-anchor="middle" x="372.03" y="-349.95" font-family="Helvetica,sans-Serif" font-size="14.00">MostLikelyMean</text>
</g>
<!-- mean -->
<g id="node28" class="node">
<title>mean</title>
<polygon fill="lightseagreen" stroke="black" points="444.28,-328 389.28,-328 389.28,-292 444.28,-292 444.28,-328"/>
<text xml:space="preserve" text-anchor="middle" x="416.78" y="-305.32" font-family="Helvetica,sans-Serif" font-size="14.00">mean</text>
</g>
<!-- CalibrationMethod&#45;&gt;mean -->
<g id="edge24" class="edge">
<title>CalibrationMethod&#45;&gt;mean</title>
<path fill="none" stroke="black" d="M445.2,-381.84C440.35,-369.76 433.65,-353.06 427.97,-338.9"/>
<polygon fill="black" stroke="black" points="431.23,-337.62 424.26,-329.64 424.73,-340.22 431.23,-337.62"/>
<text xml:space="preserve" text-anchor="middle" x="456.17" y="-349.95" font-family="Helvetica,sans-Serif" font-size="14.00">Mean</text>
</g>
<!-- median -->
<g id="node29" class="node">
<title>median</title>
<polygon fill="lightseagreen" stroke="black" points="531.66,-328 463.91,-328 463.91,-292 531.66,-292 531.66,-328"/>
<text xml:space="preserve" text-anchor="middle" x="497.78" y="-305.32" font-family="Helvetica,sans-Serif" font-size="14.00">median</text>
</g>
<!-- CalibrationMethod&#45;&gt;median -->
<g id="edge25" class="edge">
<title>CalibrationMethod&#45;&gt;median</title>
<path fill="none" stroke="black" d="M464.32,-382.39C468.59,-376.57 473.19,-369.8 476.78,-363.25 480.93,-355.67 484.72,-347.1 487.9,-339.13"/>
<polygon fill="black" stroke="black" points="491.15,-340.42 491.43,-329.83 484.61,-337.93 491.15,-340.42"/>
<text xml:space="preserve" text-anchor="middle" x="509.95" y="-349.95" font-family="Helvetica,sans-Serif" font-size="14.00">Median</text>
</g>
<!-- CalibrationProvided -->
<g id="node7" class="node">
<title>CalibrationProvided</title>
<polygon fill="limegreen" stroke="black" points="685.78,-1228.5 535.98,-1210.5 685.78,-1192.5 835.58,-1210.5 685.78,-1228.5"/>
<text xml:space="preserve" text-anchor="middle" x="685.78" y="-1205.83" font-family="Helvetica,sans-Serif" font-size="14.00">CalibrationProvided</text>
</g>
<!-- normalise -->
<g id="node23" class="node">
<title>normalise</title>
<polygon fill="lightseagreen" stroke="black" points="613.53,-1066.25 530.03,-1066.25 530.03,-1030.25 613.53,-1030.25 613.53,-1066.25"/>
<text xml:space="preserve" text-anchor="middle" x="571.78" y="-1043.58" font-family="Helvetica,sans-Serif" font-size="14.00">normalise</text>
</g>
<!-- CalibrationProvided&#45;&gt;normalise -->
<g id="edge6" class="edge">
<title>CalibrationProvided&#45;&gt;normalise</title>
<path fill="none" stroke="black" d="M689.42,-1192.81C693.31,-1170.43 696.74,-1130.38 678.78,-1103.25 666.27,-1084.35 645.04,-1071.76 624.77,-1063.53"/>
<polygon fill="black" stroke="black" points="626,-1060.25 615.4,-1060.03 623.55,-1066.81 626,-1060.25"/>
<text xml:space="preserve" text-anchor="middle" x="700.62" y="-1116.58" font-family="Helvetica,sans-Serif" font-size="14.00">No</text>
</g>
<!-- calibrate -->
<g id="node24" class="node">
<title>calibrate</title>
<polygon fill="lightseagreen" stroke="black" points="455.78,-1139.25 379.78,-1139.25 379.78,-1103.25 455.78,-1103.25 455.78,-1139.25"/>
<text xml:space="preserve" text-anchor="middle" x="417.78" y="-1116.58" font-family="Helvetica,sans-Serif" font-size="14.00">calibrate</text>
</g>
<!-- CalibrationProvided&#45;&gt;calibrate -->
<g id="edge3" class="edge">
<title>CalibrationProvided&#45;&gt;calibrate</title>
<path fill="none" stroke="black" d="M644.89,-1197.03C602.67,-1184.04 534.65,-1162.78 467.05,-1139.96"/>
<polygon fill="black" stroke="black" points="468.24,-1136.67 457.64,-1136.78 465.99,-1143.3 468.24,-1136.67"/>
<text xml:space="preserve" text-anchor="middle" x="578.66" y="-1161.2" font-family="Helvetica,sans-Serif" font-size="14.00">Yes</text>
</g>
<!-- NormaliseTo -->
<g id="node8" class="node">
<title>NormaliseTo</title>
<polygon fill="limegreen" stroke="black" points="571.78,-1139.25 473.32,-1121.25 571.78,-1103.25 670.24,-1121.25 571.78,-1139.25"/>
<text xml:space="preserve" text-anchor="middle" x="571.78" y="-1116.58" font-family="Helvetica,sans-Serif" font-size="14.00">NormaliseTo</text>
</g>
<!-- NormaliseTo&#45;&gt;normalise -->
<g id="edge7" class="edge">
<title>NormaliseTo&#45;&gt;normalise</title>
<path fill="none" stroke="black" d="M571.78,-1103.06C571.78,-1095.48 571.78,-1086.35 571.78,-1077.79"/>
<polygon fill="black" stroke="black" points="575.28,-1077.79 571.78,-1067.79 568.28,-1077.79 575.28,-1077.79"/>
</g>
<!-- InterpolateOverlappingAngles&#45;&gt;Divide -->
<g id="edge17" class="edge">
<title>InterpolateOverlappingAngles&#45;&gt;Divide</title>
<path fill="none" stroke="black" d="M479.21,-709.94C509.99,-699.83 545.28,-682.29 563.78,-652.5 582.64,-622.13 549.47,-590.35 519.41,-569.56"/>
<polygon fill="black" stroke="black" points="521.37,-566.65 511.1,-564.04 517.5,-572.49 521.37,-566.65"/>
<text xml:space="preserve" text-anchor="middle" x="578.67" y="-629.83" font-family="Helvetica,sans-Serif" font-size="14.00">No</text>
</g>
<!-- InterpolateOverlappingAngles&#45;&gt;SplineInterpolation -->
<g id="edge15" class="edge">
<title>InterpolateOverlappingAngles&#45;&gt;SplineInterpolation</title>
<path fill="none" stroke="black" d="M432.88,-706.34C441.29,-693.91 453.01,-676.56 462.76,-662.15"/>
<polygon fill="black" stroke="black" points="465.58,-664.23 468.28,-653.99 459.78,-660.31 465.58,-664.23"/>
<text xml:space="preserve" text-anchor="middle" x="468.56" y="-674.45" font-family="Helvetica,sans-Serif" font-size="14.00">yes</text>
</g>
<!-- CalibrationRun -->
<g id="node10" class="node">
<title>CalibrationRun</title>
<ellipse fill="khaki" stroke="black" cx="685.78" cy="-1372.75" rx="82.77" ry="18"/>
<text xml:space="preserve" text-anchor="middle" x="685.78" y="-1368.08" font-family="Helvetica,sans-Serif" font-size="14.00">CalibrationRun</text>
</g>
<!-- LoadILLDiffraction -->
<g id="node16" class="node">
<title>LoadILLDiffraction</title>
<path fill="lightskyblue" stroke="black" d="M744.03,-1301.5C744.03,-1301.5 627.53,-1301.5 627.53,-1301.5 621.53,-1301.5 615.53,-1295.5 615.53,-1289.5 615.53,-1289.5 615.53,-1277.5 615.53,-1277.5 615.53,-1271.5 621.53,-1265.5 627.53,-1265.5 627.53,-1265.5 744.03,-1265.5 744.03,-1265.5 750.03,-1265.5 756.03,-1271.5 756.03,-1277.5 756.03,-1277.5 756.03,-1289.5 756.03,-1289.5 756.03,-1295.5 750.03,-1301.5 744.03,-1301.5"/>
<text xml:space="preserve" text-anchor="middle" x="685.78" y="-1278.83" font-family="Helvetica,sans-Serif" font-size="14.00">LoadILLDiffraction</text>
</g>
<!-- CalibrationRun&#45;&gt;LoadILLDiffraction -->
<g id="edge1" class="edge">
<title>CalibrationRun&#45;&gt;LoadILLDiffraction</title>
<path fill="none" stroke="black" d="M685.78,-1354.51C685.78,-1342.68 685.78,-1326.7 685.78,-1313"/>
<polygon fill="black" stroke="black" points="689.28,-1313.22 685.78,-1303.22 682.28,-1313.22 689.28,-1313.22"/>
<text xml:space="preserve" text-anchor="middle" x="732.28" y="-1323.45" font-family="Helvetica,sans-Serif" font-size="14.00">DetectorScan</text>
</g>
<!-- CalibrationFile -->
<g id="node11" class="node">
<title>CalibrationFile</title>
<ellipse fill="khaki" stroke="black" cx="417.78" cy="-1210.5" rx="79.62" ry="18"/>
<text xml:space="preserve" text-anchor="middle" x="417.78" y="-1205.83" font-family="Helvetica,sans-Serif" font-size="14.00">CalibrationFile</text>
</g>
<!-- CalibrationFile&#45;&gt;calibrate -->
<g id="edge4" class="edge">
<title>CalibrationFile&#45;&gt;calibrate</title>
<path fill="none" stroke="black" d="M417.78,-1192.26C417.78,-1180.43 417.78,-1164.45 417.78,-1150.75"/>
<polygon fill="black" stroke="black" points="421.28,-1150.97 417.78,-1140.97 414.28,-1150.97 421.28,-1150.97"/>
</g>
<!-- ExcludedRange -->
<g id="node12" class="node">
<title>ExcludedRange</title>
<ellipse fill="khaki" stroke="black" cx="614.78" cy="-545.25" rx="86.98" ry="18"/>
<text xml:space="preserve" text-anchor="middle" x="614.78" y="-540.58" font-family="Helvetica,sans-Serif" font-size="14.00">ExcludedRange</text>
</g>
<!-- exclude_ranges -->
<g id="node26" class="node">
<title>exclude_ranges</title>
<polygon fill="lightseagreen" stroke="black" points="542.16,-490.25 417.41,-490.25 417.41,-454.25 542.16,-454.25 542.16,-490.25"/>
<text xml:space="preserve" text-anchor="middle" x="479.78" y="-467.57" font-family="Helvetica,sans-Serif" font-size="14.00">exclude_ranges</text>
</g>
<!-- ExcludedRange&#45;&gt;exclude_ranges -->
<g id="edge21" class="edge">
<title>ExcludedRange&#45;&gt;exclude_ranges</title>
<path fill="none" stroke="black" d="M583.81,-527.96C565.78,-518.48 542.77,-506.38 522.98,-495.97"/>
<polygon fill="black" stroke="black" points="524.79,-492.97 514.31,-491.41 521.53,-499.16 524.79,-492.97"/>
</g>
<!-- OutputWorkspace -->
<g id="node13" class="node">
<title>OutputWorkspace</title>
<ellipse fill="khaki" stroke="black" cx="414.78" cy="-18" rx="98.56" ry="18"/>
<text xml:space="preserve" text-anchor="middle" x="414.78" y="-13.32" font-family="Helvetica,sans-Serif" font-size="14.00">OutputWorkspace</text>
</g>
<!-- PixelRange -->
<g id="node15" class="node">
<title>PixelRange</title>
<ellipse fill="khaki" stroke="black" cx="405.78" cy="-975.25" rx="64.36" ry="18"/>
<text xml:space="preserve" text-anchor="middle" x="405.78" y="-970.58" font-family="Helvetica,sans-Serif" font-size="14.00">PixelRange</text>
</g>
<!-- extract_single_cell -->
<g id="node27" class="node">
<title>extract_single_cell</title>
<polygon fill="lightseagreen" stroke="black" points="493.16,-904 350.41,-904 350.41,-868 493.16,-868 493.16,-904"/>
<text xml:space="preserve" text-anchor="middle" x="421.78" y="-881.33" font-family="Helvetica,sans-Serif" font-size="14.00">extract_single_cell</text>
</g>
<!-- PixelRange&#45;&gt;extract_single_cell -->
<g id="edge10" class="edge">
<title>PixelRange&#45;&gt;extract_single_cell</title>
<path fill="none" stroke="black" d="M408.94,-957.01C411.11,-945.18 414.04,-929.2 416.55,-915.5"/>
<polygon fill="black" stroke="black" points="419.99,-916.16 418.35,-905.69 413.11,-914.9 419.99,-916.16"/>
</g>
<!-- LoadILLDiffraction&#45;&gt;CalibrationProvided -->
<g id="edge2" class="edge">
<title>LoadILLDiffraction&#45;&gt;CalibrationProvided</title>
<path fill="none" stroke="black" d="M685.78,-1265.31C685.78,-1257.73 685.78,-1248.6 685.78,-1240.04"/>
<polygon fill="black" stroke="black" points="689.28,-1240.04 685.78,-1230.04 682.28,-1240.04 689.28,-1240.04"/>
</g>
<!-- MostLikelyMean&#45;&gt;factor -->
<g id="edge26" class="edge">
<title>MostLikelyMean&#45;&gt;factor</title>
<path fill="none" stroke="black" d="M332.44,-291.63C346.4,-282.54 363.69,-271.28 378.82,-261.42"/>
<polygon fill="black" stroke="black" points="380.65,-264.41 387.12,-256.02 376.83,-258.54 380.65,-264.41"/>
</g>
<!-- WeightedMean&#45;&gt;reference -->
<g id="edge33" class="edge">
<title>WeightedMean&#45;&gt;reference</title>
<path fill="none" stroke="black" d="M69.01,-109.22C70.78,-123.59 70.78,-144.63 70.78,-163 70.78,-635.5 70.78,-635.5 70.78,-635.5 70.78,-655 70.78,-676.96 69.64,-693.96"/>
<polygon fill="black" stroke="black" points="66.16,-693.58 68.72,-703.86 73.13,-694.22 66.16,-693.58"/>
</g>
<!-- ConvertSpectrumAxis -->
<g id="node19" class="node">
<title>ConvertSpectrumAxis</title>
<path fill="lightskyblue" stroke="black" d="M643.53,-993.25C643.53,-993.25 500.03,-993.25 500.03,-993.25 494.03,-993.25 488.03,-987.25 488.03,-981.25 488.03,-981.25 488.03,-969.25 488.03,-969.25 488.03,-963.25 494.03,-957.25 500.03,-957.25 500.03,-957.25 643.53,-957.25 643.53,-957.25 649.53,-957.25 655.53,-963.25 655.53,-969.25 655.53,-969.25 655.53,-981.25 655.53,-981.25 655.53,-987.25 649.53,-993.25 643.53,-993.25"/>
<text xml:space="preserve" text-anchor="middle" x="571.78" y="-970.58" font-family="Helvetica,sans-Serif" font-size="14.00">ConvertSpectrumAxis</text>
</g>
<!-- ConvertSpectrumAxis&#45;&gt;extract_single_cell -->
<g id="edge9" class="edge">
<title>ConvertSpectrumAxis&#45;&gt;extract_single_cell</title>
<path fill="none" stroke="black" d="M541.79,-956.8C518.69,-943.37 486.56,-924.68 461.36,-910.02"/>
<polygon fill="black" stroke="black" points="463.43,-907.18 453.03,-905.18 459.92,-913.23 463.43,-907.18"/>
<text xml:space="preserve" text-anchor="middle" x="521.84" y="-925.95" font-family="Helvetica,sans-Serif" font-size="14.00">i&#45;th</text>
</g>
<!-- Divide&#45;&gt;exclude_ranges -->
<g id="edge20" class="edge">
<title>Divide&#45;&gt;exclude_ranges</title>
<path fill="none" stroke="black" d="M479.78,-527.06C479.78,-519.48 479.78,-510.35 479.78,-501.79"/>
<polygon fill="black" stroke="black" points="483.28,-501.79 479.78,-491.79 476.28,-501.79 483.28,-501.79"/>
</g>
<!-- Scale -->
<g id="node21" class="node">
<title>Scale</title>
<path fill="lightskyblue" stroke="black" d="M239.78,-255C239.78,-255 209.78,-255 209.78,-255 203.78,-255 197.78,-249 197.78,-243 197.78,-243 197.78,-231 197.78,-231 197.78,-225 203.78,-219 209.78,-219 209.78,-219 239.78,-219 239.78,-219 245.78,-219 251.78,-225 251.78,-231 251.78,-231 251.78,-243 251.78,-243 251.78,-249 245.78,-255 239.78,-255"/>
<text xml:space="preserve" text-anchor="middle" x="224.78" y="-232.32" font-family="Helvetica,sans-Serif" font-size="14.00">Scale</text>
</g>
<!-- Scale&#45;&gt;single_cell_responseAfter -->
<g id="edge29" class="edge">
<title>Scale&#45;&gt;single_cell_responseAfter</title>
<path fill="none" stroke="black" d="M224.78,-218.81C224.78,-211.23 224.78,-202.1 224.78,-193.54"/>
<polygon fill="black" stroke="black" points="228.28,-193.54 224.78,-183.54 221.28,-193.54 228.28,-193.54"/>
</g>
<!-- SplineInterpolation&#45;&gt;Divide -->
<g id="edge19" class="edge">
<title>SplineInterpolation&#45;&gt;Divide</title>
<path fill="none" stroke="black" d="M480.58,-616.26C480.45,-604.43 480.26,-588.45 480.11,-574.75"/>
<polygon fill="black" stroke="black" points="483.61,-574.92 479.99,-564.97 476.61,-575 483.61,-574.92"/>
<text xml:space="preserve" text-anchor="middle" x="494.99" y="-585.2" font-family="Helvetica,sans-Serif" font-size="14.00">RHS</text>
</g>
<!-- normalise&#45;&gt;ConvertSpectrumAxis -->
<g id="edge8" class="edge">
<title>normalise&#45;&gt;ConvertSpectrumAxis</title>
<path fill="none" stroke="black" d="M571.78,-1030.06C571.78,-1022.48 571.78,-1013.35 571.78,-1004.79"/>
<polygon fill="black" stroke="black" points="575.28,-1004.79 571.78,-994.79 568.28,-1004.79 575.28,-1004.79"/>
</g>
<!-- calibrate&#45;&gt;normalise -->
<g id="edge5" class="edge">
<title>calibrate&#45;&gt;normalise</title>
<path fill="none" stroke="black" d="M455.45,-1102.88C475.96,-1093.43 501.56,-1081.63 523.51,-1071.5"/>
<polygon fill="black" stroke="black" points="524.97,-1074.68 532.59,-1067.32 522.04,-1068.33 524.97,-1074.68"/>
</g>
<!-- absolute_normalise&#45;&gt;OutputWorkspace -->
<g id="edge36" class="edge">
<title>absolute_normalise&#45;&gt;OutputWorkspace</title>
<path fill="none" stroke="black" d="M414.78,-72.81C414.78,-65.23 414.78,-56.1 414.78,-47.54"/>
<polygon fill="black" stroke="black" points="418.28,-47.54 414.78,-37.54 411.28,-47.54 418.28,-47.54"/>
</g>
<!-- exclude_ranges&#45;&gt;CalibrationMethod -->
<g id="edge22" class="edge">
<title>exclude_ranges&#45;&gt;CalibrationMethod</title>
<path fill="none" stroke="black" d="M473,-454.06C469.83,-446.01 465.97,-436.23 462.42,-427.22"/>
<polygon fill="black" stroke="black" points="465.78,-426.22 458.86,-418.2 459.27,-428.78 465.78,-426.22"/>
</g>
<!-- extract_single_cell&#45;&gt;single_cell_response -->
<g id="edge11" class="edge">
<title>extract_single_cell&#45;&gt;single_cell_response</title>
<path fill="none" stroke="black" d="M421.78,-867.81C421.78,-860.23 421.78,-851.1 421.78,-842.54"/>
<polygon fill="black" stroke="black" points="425.28,-842.54 421.78,-832.54 418.28,-842.54 425.28,-842.54"/>
</g>
<!-- mean&#45;&gt;factor -->
<g id="edge27" class="edge">
<title>mean&#45;&gt;factor</title>
<path fill="none" stroke="black" d="M416.3,-291.81C416.08,-284.14 415.82,-274.89 415.58,-266.24"/>
<polygon fill="black" stroke="black" points="419.08,-266.44 415.3,-256.54 412.09,-266.64 419.08,-266.44"/>
</g>
<!-- median&#45;&gt;factor -->
<g id="edge28" class="edge">
<title>median&#45;&gt;factor</title>
<path fill="none" stroke="black" d="M477.69,-291.81C467.47,-283.07 454.86,-272.28 443.62,-262.67"/>
<polygon fill="black" stroke="black" points="446,-260.1 436.12,-256.26 441.45,-265.42 446,-260.1"/>
</g>
</g>
</svg>
