<?xml version="1.0" encoding="UTF-8" standalone="no"?>
<!DOCTYPE svg PUBLIC "-//W3C//DTD SVG 1.1//EN"
 "http://www.w3.org/Graphics/SVG/1.1/DTD/svg11.dtd">
<!-- Generated by graphviz version 13.0.1 (20250616.1512)
 -->
<!-- Title: PowderILLEfficiency Pages: 1 -->
<svg width="746pt" height="670pt"
 viewBox="0.00 0.00 746.00 670.00" xmlns="http://www.w3.org/2000/svg" xmlns:xlink="http://www.w3.org/1999/xlink">
<g id="graph0" class="graph" transform="scale(1 1) rotate(0) translate(4 665.5)">
<title>PowderILLEfficiency</title>
<polygon fill="white" stroke="none" points="-4,4 -4,-665.5 741.75,-665.5 741.75,4 -4,4"/>
<text xml:space="preserve" text-anchor="middle" x="368.88" y="-644.2" font-family="Helvetica,sans-Serif" font-size="14.00">GlobalSummedReference2D Flowchart</text>
<!-- reference -->
<g id="node1" class="node">
<title>reference</title>
<polygon fill="grey" stroke="black" points="737.75,-636.25 639.47,-636.25 614.19,-600.25 712.47,-600.25 737.75,-636.25"/>
<text xml:space="preserve" text-anchor="middle" x="675.97" y="-612.08" font-family="Times,serif" font-size="14.00">reference</text>
</g>
<!-- Divide -->
<g id="node13" class="node">
<title>Divide</title>
<path fill="lightskyblue" stroke="black" d="M425.72,-563.25C425.72,-563.25 390.22,-563.25 390.22,-563.25 384.22,-563.25 378.22,-557.25 378.22,-551.25 378.22,-551.25 378.22,-539.25 378.22,-539.25 378.22,-533.25 384.22,-527.25 390.22,-527.25 390.22,-527.25 425.72,-527.25 425.72,-527.25 431.72,-527.25 437.72,-533.25 437.72,-539.25 437.72,-539.25 437.72,-551.25 437.72,-551.25 437.72,-557.25 431.72,-563.25 425.72,-563.25"/>
<text xml:space="preserve" text-anchor="middle" x="407.97" y="-540.58" font-family="Helvetica,sans-Serif" font-size="14.00">Divide</text>
</g>
<!-- reference&#45;&gt;Divide -->
<g id="edge6" class="edge">
<title>reference&#45;&gt;Divide</title>
<path fill="none" stroke="black" d="M618.24,-606.63C574.01,-597.82 511.44,-583.9 448.85,-563.57"/>
<polygon fill="black" stroke="black" points="450.03,-560.27 439.43,-560.45 447.83,-566.91 450.03,-560.27"/>
</g>
<!-- single_tube -->
<g id="node2" class="node">
<title>single_tube</title>
<polygon fill="grey" stroke="black" points="145.94,-36 29.86,-36 0,0 116.08,0 145.94,-36"/>
<text xml:space="preserve" text-anchor="middle" x="72.97" y="-11.82" font-family="Times,serif" font-size="14.00">single_tube</text>
</g>
<!-- single_tube&#45;&gt;Divide -->
<g id="edge7" class="edge">
<title>single_tube&#45;&gt;Divide</title>
<path fill="none" stroke="black" d="M58.33,-36.45C48.36,-50.12 36.97,-70.1 36.97,-90 36.97,-473.25 36.97,-473.25 36.97,-473.25 36.97,-539.74 269.78,-545.44 366.55,-544.94"/>
<polygon fill="black" stroke="black" points="366.44,-548.44 376.41,-544.86 366.38,-541.44 366.44,-548.44"/>
</g>
<!-- input_data -->
<g id="node3" class="node">
<title>input_data</title>
<polygon fill="grey" stroke="black" points="276.05,-109 167.75,-109 139.9,-73 248.19,-73 276.05,-109"/>
<text xml:space="preserve" text-anchor="middle" x="207.97" y="-84.83" font-family="Times,serif" font-size="14.00">input_data</text>
</g>
<!-- input_data&#45;&gt;single_tube -->
<g id="edge3" class="edge">
<title>input_data&#45;&gt;single_tube</title>
<path fill="none" stroke="black" d="M174.95,-72.63C157.21,-63.31 135.14,-51.7 116.07,-41.67"/>
<polygon fill="black" stroke="black" points="117.94,-38.7 107.46,-37.14 114.68,-44.89 117.94,-38.7"/>
</g>
<!-- SumOverlappingTubes -->
<g id="node10" class="node">
<title>SumOverlappingTubes</title>
<path fill="lightskyblue" stroke="black" d="M532.72,-36C532.72,-36 383.22,-36 383.22,-36 377.22,-36 371.22,-30 371.22,-24 371.22,-24 371.22,-12 371.22,-12 371.22,-6 377.22,0 383.22,0 383.22,0 532.72,0 532.72,0 538.72,0 544.72,-6 544.72,-12 544.72,-12 544.72,-24 544.72,-24 544.72,-30 538.72,-36 532.72,-36"/>
<text xml:space="preserve" text-anchor="middle" x="457.97" y="-13.32" font-family="Helvetica,sans-Serif" font-size="14.00">SumOverlappingTubes</text>
</g>
<!-- input_data&#45;&gt;SumOverlappingTubes -->
<g id="edge4" class="edge">
<title>input_data&#45;&gt;SumOverlappingTubes</title>
<path fill="none" stroke="black" d="M252.09,-77.47C288.97,-67 342.31,-51.85 385.46,-39.59"/>
<polygon fill="black" stroke="black" points="386.36,-42.98 395.02,-36.88 384.44,-36.24 386.36,-42.98"/>
</g>
<!-- factor -->
<g id="node4" class="node">
<title>factor</title>
<polygon fill="grey" stroke="black" points="544.27,-344.25 473.8,-344.25 455.68,-308.25 526.14,-308.25 544.27,-344.25"/>
<text xml:space="preserve" text-anchor="middle" x="499.97" y="-320.07" font-family="Times,serif" font-size="14.00">factor</text>
</g>
<!-- Iterate -->
<g id="node5" class="node">
<title>Iterate</title>
<polygon fill="limegreen" stroke="black" points="499.97,-271.25 438.71,-253.25 499.97,-235.25 561.23,-253.25 499.97,-271.25"/>
<text xml:space="preserve" text-anchor="middle" x="499.97" y="-248.57" font-family="Helvetica,sans-Serif" font-size="14.00">Iterate</text>
</g>
<!-- factor&#45;&gt;Iterate -->
<g id="edge12" class="edge">
<title>factor&#45;&gt;Iterate</title>
<path fill="none" stroke="black" d="M499.97,-308.06C499.97,-300.48 499.97,-291.35 499.97,-282.79"/>
<polygon fill="black" stroke="black" points="503.47,-282.79 499.97,-272.79 496.47,-282.79 503.47,-282.79"/>
</g>
<!-- OutputWorkspace -->
<g id="node8" class="node">
<title>OutputWorkspace</title>
<ellipse fill="khaki" stroke="black" cx="536.97" cy="-164" rx="98.56" ry="18"/>
<text xml:space="preserve" text-anchor="middle" x="536.97" y="-159.32" font-family="Helvetica,sans-Serif" font-size="14.00">OutputWorkspace</text>
</g>
<!-- Iterate&#45;&gt;OutputWorkspace -->
<g id="edge15" class="edge">
<title>Iterate&#45;&gt;OutputWorkspace</title>
<path fill="none" stroke="black" d="M506.42,-237.05C511.56,-224.91 518.92,-207.57 525.12,-192.95"/>
<polygon fill="black" stroke="black" points="528.31,-194.39 528.99,-183.81 521.87,-191.65 528.31,-194.39"/>
<text xml:space="preserve" text-anchor="middle" x="531.16" y="-203.95" font-family="Helvetica,sans-Serif" font-size="14.00">No</text>
</g>
<!-- ApplyDetectorScanEffCorr -->
<g id="node11" class="node">
<title>ApplyDetectorScanEffCorr</title>
<path fill="lightskyblue" stroke="black" d="M408.35,-182C408.35,-182 235.6,-182 235.6,-182 229.6,-182 223.6,-176 223.6,-170 223.6,-170 223.6,-158 223.6,-158 223.6,-152 229.6,-146 235.6,-146 235.6,-146 408.35,-146 408.35,-146 414.35,-146 420.35,-152 420.35,-158 420.35,-158 420.35,-170 420.35,-170 420.35,-176 414.35,-182 408.35,-182"/>
<text xml:space="preserve" text-anchor="middle" x="321.97" y="-159.32" font-family="Helvetica,sans-Serif" font-size="14.00">ApplyDetectorScanEffCorr</text>
</g>
<!-- Iterate&#45;&gt;ApplyDetectorScanEffCorr -->
<g id="edge13" class="edge">
<title>Iterate&#45;&gt;ApplyDetectorScanEffCorr</title>
<path fill="none" stroke="black" d="M477.79,-241.38C450.3,-227.91 402.79,-204.62 367.44,-187.29"/>
<polygon fill="black" stroke="black" points="369.23,-184.27 358.71,-183.01 366.15,-190.55 369.23,-184.27"/>
<text xml:space="preserve" text-anchor="middle" x="438.16" y="-203.95" font-family="Helvetica,sans-Serif" font-size="14.00">Yes</text>
</g>
<!-- CalibrationRun -->
<g id="node6" class="node">
<title>CalibrationRun</title>
<ellipse fill="khaki" stroke="black" cx="147.97" cy="-253.25" rx="82.77" ry="18"/>
<text xml:space="preserve" text-anchor="middle" x="147.97" y="-248.57" font-family="Helvetica,sans-Serif" font-size="14.00">CalibrationRun</text>
</g>
<!-- LoadILLDiffraction -->
<g id="node9" class="node">
<title>LoadILLDiffraction</title>
<path fill="lightskyblue" stroke="black" d="M193.22,-182C193.22,-182 76.72,-182 76.72,-182 70.72,-182 64.72,-176 64.72,-170 64.72,-170 64.72,-158 64.72,-158 64.72,-152 70.72,-146 76.72,-146 76.72,-146 193.22,-146 193.22,-146 199.22,-146 205.22,-152 205.22,-158 205.22,-158 205.22,-170 205.22,-170 205.22,-176 199.22,-182 193.22,-182"/>
<text xml:space="preserve" text-anchor="middle" x="134.97" y="-159.32" font-family="Helvetica,sans-Serif" font-size="14.00">LoadILLDiffraction</text>
</g>
<!-- CalibrationRun&#45;&gt;LoadILLDiffraction -->
<g id="edge1" class="edge">
<title>CalibrationRun&#45;&gt;LoadILLDiffraction</title>
<path fill="none" stroke="black" d="M145.4,-235.01C143.64,-223.18 141.26,-207.2 139.22,-193.5"/>
<polygon fill="black" stroke="black" points="142.69,-193.07 137.76,-183.7 135.77,-194.11 142.69,-193.07"/>
</g>
<!-- ExcludedRange -->
<g id="node7" class="node">
<title>ExcludedRange</title>
<ellipse fill="khaki" stroke="black" cx="542.97" cy="-545.25" rx="86.98" ry="18"/>
<text xml:space="preserve" text-anchor="middle" x="542.97" y="-540.58" font-family="Helvetica,sans-Serif" font-size="14.00">ExcludedRange</text>
</g>
<!-- MaskBins -->
<g id="node12" class="node">
<title>MaskBins</title>
<path fill="lightskyblue" stroke="black" d="M528.97,-490.25C528.97,-490.25 470.97,-490.25 470.97,-490.25 464.97,-490.25 458.97,-484.25 458.97,-478.25 458.97,-478.25 458.97,-466.25 458.97,-466.25 458.97,-460.25 464.97,-454.25 470.97,-454.25 470.97,-454.25 528.97,-454.25 528.97,-454.25 534.97,-454.25 540.97,-460.25 540.97,-466.25 540.97,-466.25 540.97,-478.25 540.97,-478.25 540.97,-484.25 534.97,-490.25 528.97,-490.25"/>
<text xml:space="preserve" text-anchor="middle" x="499.97" y="-467.57" font-family="Helvetica,sans-Serif" font-size="14.00">MaskBins</text>
</g>
<!-- ExcludedRange&#45;&gt;MaskBins -->
<g id="edge9" class="edge">
<title>ExcludedRange&#45;&gt;MaskBins</title>
<path fill="none" stroke="black" d="M532.56,-527.06C527.65,-518.95 521.67,-509.09 516.19,-500.03"/>
<polygon fill="black" stroke="black" points="519.24,-498.31 511.07,-491.57 513.25,-501.94 519.24,-498.31"/>
</g>
<!-- LoadILLDiffraction&#45;&gt;input_data -->
<g id="edge2" class="edge">
<title>LoadILLDiffraction&#45;&gt;input_data</title>
<path fill="none" stroke="black" d="M152.64,-145.81C161.45,-137.24 172.28,-126.71 182.02,-117.24"/>
<polygon fill="black" stroke="black" points="184.4,-119.81 189.12,-110.33 179.52,-114.79 184.4,-119.81"/>
</g>
<!-- SumOverlappingTubes&#45;&gt;reference -->
<g id="edge5" class="edge">
<title>SumOverlappingTubes&#45;&gt;reference</title>
<path fill="none" stroke="black" d="M545.03,-32.9C601.26,-44.43 663.97,-63.28 663.97,-90 663.97,-546.25 663.97,-546.25 663.97,-546.25 663.97,-560.42 666.32,-575.95 668.94,-588.87"/>
<polygon fill="black" stroke="black" points="665.47,-589.39 671.04,-598.4 672.31,-587.88 665.47,-589.39"/>
</g>
<!-- ApplyDetectorScanEffCorr&#45;&gt;input_data -->
<g id="edge14" class="edge">
<title>ApplyDetectorScanEffCorr&#45;&gt;input_data</title>
<path fill="none" stroke="black" d="M294.08,-145.63C279.45,-136.52 261.33,-125.23 245.48,-115.36"/>
<polygon fill="black" stroke="black" points="247.59,-112.55 237.25,-110.24 243.89,-118.49 247.59,-112.55"/>
</g>
<!-- Median -->
<g id="node14" class="node">
<title>Median</title>
<polygon fill="lightseagreen" stroke="black" points="533.1,-417.25 466.85,-417.25 466.85,-381.25 533.1,-381.25 533.1,-417.25"/>
<text xml:space="preserve" text-anchor="middle" x="499.97" y="-394.57" font-family="Helvetica,sans-Serif" font-size="14.00">Median</text>
</g>
<!-- MaskBins&#45;&gt;Median -->
<g id="edge10" class="edge">
<title>MaskBins&#45;&gt;Median</title>
<path fill="none" stroke="black" d="M499.97,-454.06C499.97,-446.48 499.97,-437.35 499.97,-428.79"/>
<polygon fill="black" stroke="black" points="503.47,-428.79 499.97,-418.79 496.47,-428.79 503.47,-428.79"/>
</g>
<!-- Divide&#45;&gt;MaskBins -->
<g id="edge8" class="edge">
<title>Divide&#45;&gt;MaskBins</title>
<path fill="none" stroke="black" d="M430.24,-527.06C441.8,-518.15 456.1,-507.11 468.74,-497.35"/>
<polygon fill="black" stroke="black" points="470.61,-500.33 476.39,-491.45 466.33,-494.79 470.61,-500.33"/>
</g>
<!-- Median&#45;&gt;factor -->
<g id="edge11" class="edge">
<title>Median&#45;&gt;factor</title>
<path fill="none" stroke="black" d="M499.97,-381.06C499.97,-373.48 499.97,-364.35 499.97,-355.79"/>
<polygon fill="black" stroke="black" points="503.47,-355.79 499.97,-345.79 496.47,-355.79 503.47,-355.79"/>
</g>
</g>
</svg>
