<?xml version="1.0" encoding="UTF-8" standalone="no"?>
<!DOCTYPE svg PUBLIC "-//W3C//DTD SVG 1.1//EN"
 "http://www.w3.org/Graphics/SVG/1.1/DTD/svg11.dtd">
<!-- Generated by graphviz version 7.1.0 (20230122.1345)
 -->
<!-- Title: PowderILLDetectorScan Pages: 1 -->
<svg width="598pt" height="743pt"
 viewBox="0.00 0.00 598.45 743.00" xmlns="http://www.w3.org/2000/svg" xmlns:xlink="http://www.w3.org/1999/xlink">
<g id="graph0" class="graph" transform="scale(1 1) rotate(0) translate(4 739)">
<title>PowderILLDetectorScan</title>
<polygon fill="white" stroke="none" points="-4,4 -4,-739 594.45,-739 594.45,4 -4,4"/>
<!-- MergeType -->
<g id="node1" class="node">
<title>MergeType</title>
<polygon fill="limegreen" stroke="black" points="166.45,-589 82.66,-571 166.45,-553 250.24,-571 166.45,-589"/>
<text text-anchor="middle" x="166.45" y="-567.3" font-family="Helvetica,sans-Serif" font-size="14.00">MergeType</text>
</g>
<!-- NormaliseTo -->
<g id="node2" class="node">
<title>NormaliseTo</title>
<polygon fill="limegreen" stroke="black" points="165.45,-429 73.62,-411 165.45,-393 257.28,-411 165.45,-429"/>
<text text-anchor="middle" x="165.45" y="-407.3" font-family="Helvetica,sans-Serif" font-size="14.00">NormaliseTo</text>
</g>
<!-- MergeType&#45;&gt;NormaliseTo -->
<g id="edge6" class="edge">
<title>MergeType&#45;&gt;NormaliseTo</title>
<path fill="none" stroke="black" d="M180.98,-555.63C185.93,-549.75 190.87,-542.55 193.45,-535 204.65,-502.14 191.24,-462.8 179.4,-437.62"/>
<polygon fill="black" stroke="black" points="182.6,-436.18 175.01,-428.79 176.33,-439.3 182.6,-436.18"/>
<text text-anchor="middle" x="237.45" y="-480.3" font-family="Helvetica,sans-Serif" font-size="14.00">Skip Merge</text>
</g>
<!-- MergeRuns -->
<g id="node9" class="node">
<title>MergeRuns</title>
<path fill="lightskyblue" stroke="black" d="M159.45,-502C159.45,-502 89.45,-502 89.45,-502 83.45,-502 77.45,-496 77.45,-490 77.45,-490 77.45,-478 77.45,-478 77.45,-472 83.45,-466 89.45,-466 89.45,-466 159.45,-466 159.45,-466 165.45,-466 171.45,-472 171.45,-478 171.45,-478 171.45,-490 171.45,-490 171.45,-496 165.45,-502 159.45,-502"/>
<text text-anchor="middle" x="124.45" y="-480.3" font-family="Helvetica,sans-Serif" font-size="14.00">MergeRuns</text>
</g>
<!-- MergeType&#45;&gt;MergeRuns -->
<g id="edge4" class="edge">
<title>MergeType&#45;&gt;MergeRuns</title>
<path fill="none" stroke="black" d="M158.74,-554.41C152.93,-542.65 144.81,-526.21 137.93,-512.29"/>
<polygon fill="black" stroke="black" points="141.21,-511.02 133.64,-503.6 134.93,-514.12 141.21,-511.02"/>
<text text-anchor="middle" x="169.95" y="-523.8" font-family="Helvetica,sans-Serif" font-size="14.00">Merge</text>
</g>
<!-- OutputWorkspaceTypes -->
<g id="node3" class="node">
<title>OutputWorkspaceTypes</title>
<polygon fill="limegreen" stroke="black" points="165.45,-269 0.05,-251 165.45,-233 330.84,-251 165.45,-269"/>
<text text-anchor="middle" x="165.45" y="-247.3" font-family="Helvetica,sans-Serif" font-size="14.00">OutputWorkspaceTypes</text>
</g>
<!-- NormaliseTo&#45;&gt;OutputWorkspaceTypes -->
<g id="edge8" class="edge">
<title>NormaliseTo&#45;&gt;OutputWorkspaceTypes</title>
<path fill="none" stroke="black" d="M183.14,-396.17C189.2,-390.36 195.24,-383.07 198.45,-375 211.3,-342.64 195.85,-303.54 182.05,-278.24"/>
<polygon fill="black" stroke="black" points="185.11,-276.54 177.09,-269.62 179.04,-280.03 185.11,-276.54"/>
<text text-anchor="middle" x="221.95" y="-320.3" font-family="Helvetica,sans-Serif" font-size="14.00">None</text>
</g>
<!-- NormaliseToMonitor -->
<g id="node10" class="node">
<title>NormaliseToMonitor</title>
<path fill="lightskyblue" stroke="black" d="M173.45,-342C173.45,-342 45.45,-342 45.45,-342 39.45,-342 33.45,-336 33.45,-330 33.45,-330 33.45,-318 33.45,-318 33.45,-312 39.45,-306 45.45,-306 45.45,-306 173.45,-306 173.45,-306 179.45,-306 185.45,-312 185.45,-318 185.45,-318 185.45,-330 185.45,-330 185.45,-336 179.45,-342 173.45,-342"/>
<text text-anchor="middle" x="109.45" y="-320.3" font-family="Helvetica,sans-Serif" font-size="14.00">NormaliseToMonitor</text>
</g>
<!-- NormaliseTo&#45;&gt;NormaliseToMonitor -->
<g id="edge7" class="edge">
<title>NormaliseTo&#45;&gt;NormaliseToMonitor</title>
<path fill="none" stroke="black" d="M155.44,-394.8C147.56,-382.85 136.4,-365.91 127.04,-351.71"/>
<polygon fill="black" stroke="black" points="130.18,-350.1 121.75,-343.67 124.33,-353.95 130.18,-350.1"/>
<text text-anchor="middle" x="167.95" y="-363.8" font-family="Helvetica,sans-Serif" font-size="14.00">Monitor</text>
</g>
<!-- SumOverlappingTubes2DTubes -->
<g id="node11" class="node">
<title>SumOverlappingTubes2DTubes</title>
<path fill="lightskyblue" stroke="black" d="M194.45,-182C194.45,-182 44.45,-182 44.45,-182 38.45,-182 32.45,-176 32.45,-170 32.45,-170 32.45,-158 32.45,-158 32.45,-152 38.45,-146 44.45,-146 44.45,-146 194.45,-146 194.45,-146 200.45,-146 206.45,-152 206.45,-158 206.45,-158 206.45,-170 206.45,-170 206.45,-176 200.45,-182 194.45,-182"/>
<text text-anchor="middle" x="119.45" y="-160.3" font-family="Helvetica,sans-Serif" font-size="14.00">SumOverlappingTubes</text>
</g>
<!-- OutputWorkspaceTypes&#45;&gt;SumOverlappingTubes2DTubes -->
<g id="edge10" class="edge">
<title>OutputWorkspaceTypes&#45;&gt;SumOverlappingTubes2DTubes</title>
<path fill="none" stroke="black" d="M156.58,-233.61C150.21,-221.85 141.49,-205.73 134.1,-192.07"/>
<polygon fill="black" stroke="black" points="137.32,-190.67 129.48,-183.54 131.17,-194.01 137.32,-190.67"/>
<text text-anchor="middle" x="175.95" y="-203.8" font-family="Helvetica,sans-Serif" font-size="14.00">2DTubes</text>
</g>
<!-- SumOverlappingTubes2D -->
<g id="node12" class="node">
<title>SumOverlappingTubes2D</title>
<path fill="lightskyblue" stroke="black" d="M386.45,-182C386.45,-182 236.45,-182 236.45,-182 230.45,-182 224.45,-176 224.45,-170 224.45,-170 224.45,-158 224.45,-158 224.45,-152 230.45,-146 236.45,-146 236.45,-146 386.45,-146 386.45,-146 392.45,-146 398.45,-152 398.45,-158 398.45,-158 398.45,-170 398.45,-170 398.45,-176 392.45,-182 386.45,-182"/>
<text text-anchor="middle" x="311.45" y="-160.3" font-family="Helvetica,sans-Serif" font-size="14.00">SumOverlappingTubes</text>
</g>
<!-- OutputWorkspaceTypes&#45;&gt;SumOverlappingTubes2D -->
<g id="edge14" class="edge">
<title>OutputWorkspaceTypes&#45;&gt;SumOverlappingTubes2D</title>
<path fill="none" stroke="black" d="M190.55,-235.39C212.86,-222.4 245.86,-203.18 271.75,-188.11"/>
<polygon fill="black" stroke="black" points="273.45,-191.17 280.34,-183.11 269.93,-185.12 273.45,-191.17"/>
<text text-anchor="middle" x="256.45" y="-203.8" font-family="Helvetica,sans-Serif" font-size="14.00">2D</text>
</g>
<!-- SumOverlappingTubes1D -->
<g id="node13" class="node">
<title>SumOverlappingTubes1D</title>
<path fill="lightskyblue" stroke="black" d="M578.45,-182C578.45,-182 428.45,-182 428.45,-182 422.45,-182 416.45,-176 416.45,-170 416.45,-170 416.45,-158 416.45,-158 416.45,-152 422.45,-146 428.45,-146 428.45,-146 578.45,-146 578.45,-146 584.45,-146 590.45,-152 590.45,-158 590.45,-158 590.45,-170 590.45,-170 590.45,-176 584.45,-182 578.45,-182"/>
<text text-anchor="middle" x="503.45" y="-160.3" font-family="Helvetica,sans-Serif" font-size="14.00">SumOverlappingTubes</text>
</g>
<!-- OutputWorkspaceTypes&#45;&gt;SumOverlappingTubes1D -->
<g id="edge15" class="edge">
<title>OutputWorkspaceTypes&#45;&gt;SumOverlappingTubes1D</title>
<path fill="none" stroke="black" d="M213.88,-237.82C268.4,-224.11 357.87,-201.61 422.95,-185.24"/>
<polygon fill="black" stroke="black" points="423.68,-188.67 432.52,-182.84 421.97,-181.88 423.68,-188.67"/>
<text text-anchor="middle" x="364.45" y="-203.8" font-family="Helvetica,sans-Serif" font-size="14.00">1D</text>
</g>
<!-- Run -->
<g id="node4" class="node">
<title>Run</title>
<ellipse fill="khaki" stroke="black" cx="96.45" cy="-717" rx="28.7" ry="18"/>
<text text-anchor="middle" x="96.45" y="-713.3" font-family="Helvetica,sans-Serif" font-size="14.00">Run</text>
</g>
<!-- LoadILLDiffraction -->
<g id="node8" class="node">
<title>LoadILLDiffraction</title>
<path fill="lightskyblue" stroke="black" d="M224.95,-662C224.95,-662 107.95,-662 107.95,-662 101.95,-662 95.95,-656 95.95,-650 95.95,-650 95.95,-638 95.95,-638 95.95,-632 101.95,-626 107.95,-626 107.95,-626 224.95,-626 224.95,-626 230.95,-626 236.95,-632 236.95,-638 236.95,-638 236.95,-650 236.95,-650 236.95,-656 230.95,-662 224.95,-662"/>
<text text-anchor="middle" x="166.45" y="-640.3" font-family="Helvetica,sans-Serif" font-size="14.00">LoadILLDiffraction</text>
</g>
<!-- Run&#45;&gt;LoadILLDiffraction -->
<g id="edge1" class="edge">
<title>Run&#45;&gt;LoadILLDiffraction</title>
<path fill="none" stroke="black" d="M110.95,-701.29C119.74,-692.38 131.18,-680.77 141.39,-670.41"/>
<polygon fill="black" stroke="black" points="143.65,-673.11 148.18,-663.53 138.67,-668.19 143.65,-673.11"/>
</g>
<!-- UseCalibratedData -->
<g id="node5" class="node">
<title>UseCalibratedData</title>
<ellipse fill="khaki" stroke="black" cx="237.45" cy="-717" rx="94.78" ry="18"/>
<text text-anchor="middle" x="237.45" y="-713.3" font-family="Helvetica,sans-Serif" font-size="14.00">UseCalibratedData</text>
</g>
<!-- UseCalibratedData&#45;&gt;LoadILLDiffraction -->
<g id="edge2" class="edge">
<title>UseCalibratedData&#45;&gt;LoadILLDiffraction</title>
<path fill="none" stroke="black" d="M220.26,-698.81C211.63,-690.18 201,-679.56 191.48,-670.03"/>
<polygon fill="black" stroke="black" points="194.09,-667.7 184.55,-663.1 189.14,-672.65 194.09,-667.7"/>
</g>
<!-- HeightRange -->
<g id="node6" class="node">
<title>HeightRange</title>
<ellipse fill="khaki" stroke="black" cx="418.45" cy="-251" rx="69.59" ry="18"/>
<text text-anchor="middle" x="418.45" y="-247.3" font-family="Helvetica,sans-Serif" font-size="14.00">HeightRange</text>
</g>
<!-- HeightRange&#45;&gt;SumOverlappingTubes2DTubes -->
<g id="edge11" class="edge">
<title>HeightRange&#45;&gt;SumOverlappingTubes2DTubes</title>
<path fill="none" stroke="black" d="M368.49,-238.08C346.36,-232.16 320.23,-224.28 297.45,-215 284.37,-209.68 282.66,-204.98 269.45,-200 252.97,-193.79 235.05,-188.46 217.52,-183.97"/>
<polygon fill="black" stroke="black" points="218.69,-180.65 208.14,-181.64 217,-187.44 218.69,-180.65"/>
</g>
<!-- HeightRange&#45;&gt;SumOverlappingTubes2D -->
<g id="edge12" class="edge">
<title>HeightRange&#45;&gt;SumOverlappingTubes2D</title>
<path fill="none" stroke="black" d="M397.56,-233.41C381.82,-220.9 359.98,-203.55 342.24,-189.46"/>
<polygon fill="black" stroke="black" points="344.58,-186.85 334.57,-183.37 340.22,-192.33 344.58,-186.85"/>
</g>
<!-- HeightRange&#45;&gt;SumOverlappingTubes1D -->
<g id="edge13" class="edge">
<title>HeightRange&#45;&gt;SumOverlappingTubes1D</title>
<path fill="none" stroke="black" d="M435.24,-233.21C447.54,-220.91 464.43,-204.02 478.33,-190.12"/>
<polygon fill="black" stroke="black" points="480.44,-192.96 485.04,-183.41 475.49,-188.01 480.44,-192.96"/>
</g>
<!-- OutputWorkspace -->
<g id="node7" class="node">
<title>OutputWorkspace</title>
<ellipse fill="khaki" stroke="black" cx="311.45" cy="-18" rx="91.78" ry="18"/>
<text text-anchor="middle" x="311.45" y="-14.3" font-family="Helvetica,sans-Serif" font-size="14.00">OutputWorkspace</text>
</g>
<!-- LoadILLDiffraction&#45;&gt;MergeType -->
<g id="edge3" class="edge">
<title>LoadILLDiffraction&#45;&gt;MergeType</title>
<path fill="none" stroke="black" d="M166.45,-625.81C166.45,-618.23 166.45,-609.1 166.45,-600.54"/>
<polygon fill="black" stroke="black" points="169.95,-600.54 166.45,-590.54 162.95,-600.54 169.95,-600.54"/>
</g>
<!-- MergeRuns&#45;&gt;NormaliseTo -->
<g id="edge5" class="edge">
<title>MergeRuns&#45;&gt;NormaliseTo</title>
<path fill="none" stroke="black" d="M134.37,-465.81C139.32,-457.25 145.39,-446.74 150.85,-437.28"/>
<polygon fill="black" stroke="black" points="153.73,-439.3 155.7,-428.89 147.67,-435.8 153.73,-439.3"/>
</g>
<!-- NormaliseToMonitor&#45;&gt;OutputWorkspaceTypes -->
<g id="edge9" class="edge">
<title>NormaliseToMonitor&#45;&gt;OutputWorkspaceTypes</title>
<path fill="none" stroke="black" d="M123,-305.81C129.8,-297.19 138.16,-286.59 145.66,-277.09"/>
<polygon fill="black" stroke="black" points="148.4,-279.26 151.85,-269.24 142.91,-274.93 148.4,-279.26"/>
</g>
<!-- GroupWorkspaces -->
<g id="node14" class="node">
<title>GroupWorkspaces</title>
<path fill="lightskyblue" stroke="black" d="M370.45,-109C370.45,-109 252.45,-109 252.45,-109 246.45,-109 240.45,-103 240.45,-97 240.45,-97 240.45,-85 240.45,-85 240.45,-79 246.45,-73 252.45,-73 252.45,-73 370.45,-73 370.45,-73 376.45,-73 382.45,-79 382.45,-85 382.45,-85 382.45,-97 382.45,-97 382.45,-103 376.45,-109 370.45,-109"/>
<text text-anchor="middle" x="311.45" y="-87.3" font-family="Helvetica,sans-Serif" font-size="14.00">GroupWorkspaces</text>
</g>
<!-- SumOverlappingTubes2DTubes&#45;&gt;GroupWorkspaces -->
<g id="edge16" class="edge">
<title>SumOverlappingTubes2DTubes&#45;&gt;GroupWorkspaces</title>
<path fill="none" stroke="black" d="M166.42,-145.63C192.68,-135.92 225.64,-123.73 253.5,-113.43"/>
<polygon fill="black" stroke="black" points="254.71,-116.71 262.88,-109.96 252.29,-110.15 254.71,-116.71"/>
</g>
<!-- SumOverlappingTubes2D&#45;&gt;GroupWorkspaces -->
<g id="edge17" class="edge">
<title>SumOverlappingTubes2D&#45;&gt;GroupWorkspaces</title>
<path fill="none" stroke="black" d="M311.45,-145.81C311.45,-138.23 311.45,-129.1 311.45,-120.54"/>
<polygon fill="black" stroke="black" points="314.95,-120.54 311.45,-110.54 307.95,-120.54 314.95,-120.54"/>
</g>
<!-- SumOverlappingTubes1D&#45;&gt;GroupWorkspaces -->
<g id="edge18" class="edge">
<title>SumOverlappingTubes1D&#45;&gt;GroupWorkspaces</title>
<path fill="none" stroke="black" d="M456.48,-145.63C430.21,-135.92 397.25,-123.73 369.39,-113.43"/>
<polygon fill="black" stroke="black" points="370.61,-110.15 360.02,-109.96 368.18,-116.71 370.61,-110.15"/>
</g>
<!-- GroupWorkspaces&#45;&gt;OutputWorkspace -->
<g id="edge19" class="edge">
<title>GroupWorkspaces&#45;&gt;OutputWorkspace</title>
<path fill="none" stroke="black" d="M311.45,-72.81C311.45,-65.23 311.45,-56.1 311.45,-47.54"/>
<polygon fill="black" stroke="black" points="314.95,-47.54 311.45,-37.54 307.95,-47.54 314.95,-47.54"/>
</g>
</g>
</svg>
