<?xml version="1.0" encoding="UTF-8" standalone="no"?>
<!DOCTYPE svg PUBLIC "-//W3C//DTD SVG 1.1//EN"
 "http://www.w3.org/Graphics/SVG/1.1/DTD/svg11.dtd">
<!-- Generated by graphviz version 11.0.0 (20240519.1550)
 -->
<!-- Title: PowderILLEfficiency Pages: 1 -->
<svg width="749pt" height="670pt"
 viewBox="0.00 0.00 748.75 669.50" xmlns="http://www.w3.org/2000/svg" xmlns:xlink="http://www.w3.org/1999/xlink">
<g id="graph0" class="graph" transform="scale(1 1) rotate(0) translate(4 665.5)">
<title>PowderILLEfficiency</title>
<polygon fill="white" stroke="none" points="-4,4 -4,-665.5 744.75,-665.5 744.75,4 -4,4"/>
<text text-anchor="middle" x="370.38" y="-644.2" font-family="Helvetica,sans-Serif" font-size="14.00">GlobalSummedReference2D Flowchart</text>
<!-- reference -->
<g id="node1" class="node">
<title>reference</title>
<polygon fill="grey" stroke="black" points="740.75,-636.25 642.47,-636.25 617.19,-600.25 715.47,-600.25 740.75,-636.25"/>
<text text-anchor="middle" x="678.97" y="-612.08" font-family="Times,serif" font-size="14.00">reference</text>
</g>
<!-- Divide -->
<g id="node13" class="node">
<title>Divide</title>
<path fill="lightskyblue" stroke="black" d="M424.72,-563.25C424.72,-563.25 389.22,-563.25 389.22,-563.25 383.22,-563.25 377.22,-557.25 377.22,-551.25 377.22,-551.25 377.22,-539.25 377.22,-539.25 377.22,-533.25 383.22,-527.25 389.22,-527.25 389.22,-527.25 424.72,-527.25 424.72,-527.25 430.72,-527.25 436.72,-533.25 436.72,-539.25 436.72,-539.25 436.72,-551.25 436.72,-551.25 436.72,-557.25 430.72,-563.25 424.72,-563.25"/>
<text text-anchor="middle" x="406.97" y="-540.58" font-family="Helvetica,sans-Serif" font-size="14.00">Divide</text>
</g>
<!-- reference&#45;&gt;Divide -->
<g id="edge6" class="edge">
<title>reference&#45;&gt;Divide</title>
<path fill="none" stroke="black" d="M621.67,-607.02C576.52,-598.27 511.96,-584.25 447.71,-563.51"/>
<polygon fill="black" stroke="black" points="449.02,-560.26 438.43,-560.46 446.84,-566.91 449.02,-560.26"/>
</g>
<!-- single_tube -->
<g id="node2" class="node">
<title>single_tube</title>
<polygon fill="grey" stroke="black" points="145.94,-36 29.86,-36 0,0 116.08,0 145.94,-36"/>
<text text-anchor="middle" x="72.97" y="-11.82" font-family="Times,serif" font-size="14.00">single_tube</text>
</g>
<!-- single_tube&#45;&gt;Divide -->
<g id="edge7" class="edge">
<title>single_tube&#45;&gt;Divide</title>
<path fill="none" stroke="black" d="M57.92,-36.39C47.68,-50.02 35.97,-69.98 35.97,-90 35.97,-473.25 35.97,-473.25 35.97,-473.25 35.97,-539.74 268.78,-545.44 365.55,-544.94"/>
<polygon fill="black" stroke="black" points="365.44,-548.44 375.41,-544.86 365.38,-541.44 365.44,-548.44"/>
</g>
<!-- input_data -->
<g id="node3" class="node">
<title>input_data</title>
<polygon fill="grey" stroke="black" points="275.05,-109 166.75,-109 138.9,-73 247.19,-73 275.05,-109"/>
<text text-anchor="middle" x="206.97" y="-84.83" font-family="Times,serif" font-size="14.00">input_data</text>
</g>
<!-- input_data&#45;&gt;single_tube -->
<g id="edge3" class="edge">
<title>input_data&#45;&gt;single_tube</title>
<path fill="none" stroke="black" d="M174.19,-72.63C156.67,-63.35 134.88,-51.8 116.01,-41.81"/>
<polygon fill="black" stroke="black" points="117.69,-38.73 107.21,-37.14 114.41,-44.92 117.69,-38.73"/>
</g>
<!-- SumOverlappingTubes -->
<g id="node10" class="node">
<title>SumOverlappingTubes</title>
<path fill="lightskyblue" stroke="black" d="M531.72,-36C531.72,-36 382.22,-36 382.22,-36 376.22,-36 370.22,-30 370.22,-24 370.22,-24 370.22,-12 370.22,-12 370.22,-6 376.22,0 382.22,0 382.22,0 531.72,0 531.72,0 537.72,0 543.72,-6 543.72,-12 543.72,-12 543.72,-24 543.72,-24 543.72,-30 537.72,-36 531.72,-36"/>
<text text-anchor="middle" x="456.97" y="-13.32" font-family="Helvetica,sans-Serif" font-size="14.00">SumOverlappingTubes</text>
</g>
<!-- input_data&#45;&gt;SumOverlappingTubes -->
<g id="edge4" class="edge">
<title>input_data&#45;&gt;SumOverlappingTubes</title>
<path fill="none" stroke="black" d="M251.09,-77.47C287.97,-67 341.31,-51.85 384.46,-39.59"/>
<polygon fill="black" stroke="black" points="385.36,-42.98 394.02,-36.88 383.44,-36.24 385.36,-42.98"/>
</g>
<!-- factor -->
<g id="node4" class="node">
<title>factor</title>
<polygon fill="grey" stroke="black" points="544.27,-344.25 473.8,-344.25 455.68,-308.25 526.14,-308.25 544.27,-344.25"/>
<text text-anchor="middle" x="499.97" y="-320.07" font-family="Times,serif" font-size="14.00">factor</text>
</g>
<!-- Iterate -->
<g id="node5" class="node">
<title>Iterate</title>
<polygon fill="limegreen" stroke="black" points="499.97,-271.25 438.71,-253.25 499.97,-235.25 561.23,-253.25 499.97,-271.25"/>
<text text-anchor="middle" x="499.97" y="-248.57" font-family="Helvetica,sans-Serif" font-size="14.00">Iterate</text>
</g>
<!-- factor&#45;&gt;Iterate -->
<g id="edge12" class="edge">
<title>factor&#45;&gt;Iterate</title>
<path fill="none" stroke="black" d="M499.97,-308.06C499.97,-300.48 499.97,-291.35 499.97,-282.79"/>
<polygon fill="black" stroke="black" points="503.47,-282.79 499.97,-272.79 496.47,-282.79 503.47,-282.79"/>
</g>
<!-- OutputWorkspace -->
<g id="node8" class="node">
<title>OutputWorkspace</title>
<ellipse fill="khaki" stroke="black" cx="535.97" cy="-164" rx="98.56" ry="18"/>
<text text-anchor="middle" x="535.97" y="-159.32" font-family="Helvetica,sans-Serif" font-size="14.00">OutputWorkspace</text>
</g>
<!-- Iterate&#45;&gt;OutputWorkspace -->
<g id="edge15" class="edge">
<title>Iterate&#45;&gt;OutputWorkspace</title>
<path fill="none" stroke="black" d="M506.41,-236.65C511.43,-224.46 518.55,-207.22 524.54,-192.7"/>
<polygon fill="black" stroke="black" points="527.69,-194.24 528.27,-183.66 521.22,-191.57 527.69,-194.24"/>
<text text-anchor="middle" x="530.35" y="-203.95" font-family="Helvetica,sans-Serif" font-size="14.00">No</text>
</g>
<!-- ApplyDetectorScanEffCorr -->
<g id="node11" class="node">
<title>ApplyDetectorScanEffCorr</title>
<path fill="lightskyblue" stroke="black" d="M407.35,-182C407.35,-182 234.6,-182 234.6,-182 228.6,-182 222.6,-176 222.6,-170 222.6,-170 222.6,-158 222.6,-158 222.6,-152 228.6,-146 234.6,-146 234.6,-146 407.35,-146 407.35,-146 413.35,-146 419.35,-152 419.35,-158 419.35,-158 419.35,-170 419.35,-170 419.35,-176 413.35,-182 407.35,-182"/>
<text text-anchor="middle" x="320.97" y="-159.32" font-family="Helvetica,sans-Serif" font-size="14.00">ApplyDetectorScanEffCorr</text>
</g>
<!-- Iterate&#45;&gt;ApplyDetectorScanEffCorr -->
<g id="edge13" class="edge">
<title>Iterate&#45;&gt;ApplyDetectorScanEffCorr</title>
<path fill="none" stroke="black" d="M477.66,-241.38C450.03,-227.91 402.24,-204.62 366.69,-187.29"/>
<polygon fill="black" stroke="black" points="368.44,-184.24 357.91,-183.01 365.37,-190.53 368.44,-184.24"/>
<text text-anchor="middle" x="438.22" y="-203.95" font-family="Helvetica,sans-Serif" font-size="14.00">Yes</text>
</g>
<!-- CalibrationRun -->
<g id="node6" class="node">
<title>CalibrationRun</title>
<ellipse fill="khaki" stroke="black" cx="146.97" cy="-253.25" rx="82.77" ry="18"/>
<text text-anchor="middle" x="146.97" y="-248.57" font-family="Helvetica,sans-Serif" font-size="14.00">CalibrationRun</text>
</g>
<!-- LoadILLDiffraction -->
<g id="node9" class="node">
<title>LoadILLDiffraction</title>
<path fill="lightskyblue" stroke="black" d="M192.22,-182C192.22,-182 75.72,-182 75.72,-182 69.72,-182 63.72,-176 63.72,-170 63.72,-170 63.72,-158 63.72,-158 63.72,-152 69.72,-146 75.72,-146 75.72,-146 192.22,-146 192.22,-146 198.22,-146 204.22,-152 204.22,-158 204.22,-158 204.22,-170 204.22,-170 204.22,-176 198.22,-182 192.22,-182"/>
<text text-anchor="middle" x="133.97" y="-159.32" font-family="Helvetica,sans-Serif" font-size="14.00">LoadILLDiffraction</text>
</g>
<!-- CalibrationRun&#45;&gt;LoadILLDiffraction -->
<g id="edge1" class="edge">
<title>CalibrationRun&#45;&gt;LoadILLDiffraction</title>
<path fill="none" stroke="black" d="M144.4,-235.01C142.64,-223.18 140.26,-207.2 138.22,-193.5"/>
<polygon fill="black" stroke="black" points="141.69,-193.07 136.76,-183.7 134.77,-194.11 141.69,-193.07"/>
</g>
<!-- ExcludedRange -->
<g id="node7" class="node">
<title>ExcludedRange</title>
<ellipse fill="khaki" stroke="black" cx="541.97" cy="-545.25" rx="86.98" ry="18"/>
<text text-anchor="middle" x="541.97" y="-540.58" font-family="Helvetica,sans-Serif" font-size="14.00">ExcludedRange</text>
</g>
<!-- MaskBins -->
<g id="node12" class="node">
<title>MaskBins</title>
<path fill="lightskyblue" stroke="black" d="M528.97,-490.25C528.97,-490.25 470.97,-490.25 470.97,-490.25 464.97,-490.25 458.97,-484.25 458.97,-478.25 458.97,-478.25 458.97,-466.25 458.97,-466.25 458.97,-460.25 464.97,-454.25 470.97,-454.25 470.97,-454.25 528.97,-454.25 528.97,-454.25 534.97,-454.25 540.97,-460.25 540.97,-466.25 540.97,-466.25 540.97,-478.25 540.97,-478.25 540.97,-484.25 534.97,-490.25 528.97,-490.25"/>
<text text-anchor="middle" x="499.97" y="-467.57" font-family="Helvetica,sans-Serif" font-size="14.00">MaskBins</text>
</g>
<!-- ExcludedRange&#45;&gt;MaskBins -->
<g id="edge9" class="edge">
<title>ExcludedRange&#45;&gt;MaskBins</title>
<path fill="none" stroke="black" d="M531.8,-527.06C527.01,-518.95 521.17,-509.09 515.81,-500.03"/>
<polygon fill="black" stroke="black" points="518.92,-498.41 510.81,-491.58 512.89,-501.97 518.92,-498.41"/>
</g>
<!-- LoadILLDiffraction&#45;&gt;input_data -->
<g id="edge2" class="edge">
<title>LoadILLDiffraction&#45;&gt;input_data</title>
<path fill="none" stroke="black" d="M151.64,-145.81C160.45,-137.24 171.28,-126.71 181.02,-117.24"/>
<polygon fill="black" stroke="black" points="183.4,-119.81 188.12,-110.33 178.52,-114.79 183.4,-119.81"/>
</g>
<!-- SumOverlappingTubes&#45;&gt;reference -->
<g id="edge5" class="edge">
<title>SumOverlappingTubes&#45;&gt;reference</title>
<path fill="none" stroke="black" d="M544.03,-32.9C600.26,-44.43 662.97,-63.28 662.97,-90 662.97,-546.25 662.97,-546.25 662.97,-546.25 662.97,-560.57 666.11,-576.12 669.6,-589.01"/>
<polygon fill="black" stroke="black" points="666.22,-589.93 672.4,-598.54 672.94,-587.95 666.22,-589.93"/>
</g>
<!-- ApplyDetectorScanEffCorr&#45;&gt;input_data -->
<g id="edge14" class="edge">
<title>ApplyDetectorScanEffCorr&#45;&gt;input_data</title>
<path fill="none" stroke="black" d="M293.08,-145.63C278.45,-136.52 260.33,-125.23 244.48,-115.36"/>
<polygon fill="black" stroke="black" points="246.59,-112.55 236.25,-110.24 242.89,-118.49 246.59,-112.55"/>
</g>
<!-- Median -->
<g id="node14" class="node">
<title>Median</title>
<polygon fill="lightseagreen" stroke="black" points="533.1,-417.25 466.85,-417.25 466.85,-381.25 533.1,-381.25 533.1,-417.25"/>
<text text-anchor="middle" x="499.97" y="-394.57" font-family="Helvetica,sans-Serif" font-size="14.00">Median</text>
</g>
<!-- MaskBins&#45;&gt;Median -->
<g id="edge10" class="edge">
<title>MaskBins&#45;&gt;Median</title>
<path fill="none" stroke="black" d="M499.97,-454.06C499.97,-446.48 499.97,-437.35 499.97,-428.79"/>
<polygon fill="black" stroke="black" points="503.47,-428.79 499.97,-418.79 496.47,-428.79 503.47,-428.79"/>
</g>
<!-- Divide&#45;&gt;MaskBins -->
<g id="edge8" class="edge">
<title>Divide&#45;&gt;MaskBins</title>
<path fill="none" stroke="black" d="M429.48,-527.06C441.16,-518.15 455.62,-507.11 468.4,-497.35"/>
<polygon fill="black" stroke="black" points="470.32,-500.29 476.14,-491.44 466.07,-494.73 470.32,-500.29"/>
</g>
<!-- Median&#45;&gt;factor -->
<g id="edge11" class="edge">
<title>Median&#45;&gt;factor</title>
<path fill="none" stroke="black" d="M499.97,-381.06C499.97,-373.48 499.97,-364.35 499.97,-355.79"/>
<polygon fill="black" stroke="black" points="503.47,-355.79 499.97,-345.79 496.47,-355.79 503.47,-355.79"/>
</g>
</g>
</svg>
