<?xml version="1.0" encoding="UTF-8" standalone="no"?>
<!DOCTYPE svg PUBLIC "-//W3C//DTD SVG 1.1//EN"
 "http://www.w3.org/Graphics/SVG/1.1/DTD/svg11.dtd">
<!-- Generated by graphviz version 7.1.0 (20230122.1345)
 -->
<!-- Title: ProcessIndirectFitParameters Pages: 1 -->
<svg width="1230pt" height="1173pt"
 viewBox="0.00 0.00 1229.63 1173.00" xmlns="http://www.w3.org/2000/svg" xmlns:xlink="http://www.w3.org/1999/xlink">
<g id="graph0" class="graph" transform="scale(1 1) rotate(0) translate(4 1169)">
<title>ProcessIndirectFitParameters</title>
<polygon fill="white" stroke="none" points="-4,4 -4,-1169 1225.63,-1169 1225.63,4 -4,4"/>
<text text-anchor="middle" x="610.81" y="-1149.8" font-family="Helvetica,sans-Serif" font-size="14.00">ProcessIndirectFitParameters Flowchart</text>
<!-- InputWorkspace -->
<g id="node1" class="node">
<title>InputWorkspace</title>
<ellipse fill="khaki" stroke="black" cx="722.13" cy="-1124" rx="83.69" ry="18"/>
<text text-anchor="middle" x="722.13" y="-1120.3" font-family="Helvetica,sans-Serif" font-size="14.00">InputWorkspace</text>
</g>
<!-- allColumnNames -->
<g id="node6" class="node">
<title>allColumnNames</title>
<ellipse fill="khaki" stroke="black" cx="722.13" cy="-1037" rx="87.18" ry="18"/>
<text text-anchor="middle" x="722.13" y="-1033.3" font-family="Helvetica,sans-Serif" font-size="14.00">allColumnNames</text>
</g>
<!-- InputWorkspace&#45;&gt;allColumnNames -->
<g id="edge1" class="edge">
<title>InputWorkspace&#45;&gt;allColumnNames</title>
<path fill="none" stroke="black" d="M722.13,-1105.8C722.13,-1094.58 722.13,-1079.67 722.13,-1066.69"/>
<polygon fill="black" stroke="black" points="725.63,-1066.98 722.13,-1056.98 718.63,-1066.98 725.63,-1066.98"/>
<text text-anchor="middle" x="887.63" y="-1076.8" font-family="Helvetica,sans-Serif" font-size="14.00">Get all column names from the TableWorkspace</text>
</g>
<!-- ColumnX -->
<g id="node2" class="node">
<title>ColumnX</title>
<ellipse fill="khaki" stroke="black" cx="644.13" cy="-790" rx="51.99" ry="18"/>
<text text-anchor="middle" x="644.13" y="-786.3" font-family="Helvetica,sans-Serif" font-size="14.00">ColumnX</text>
</g>
<!-- ConvertTableToMatrixWorkspace -->
<g id="node12" class="node">
<title>ConvertTableToMatrixWorkspace</title>
<path fill="lightskyblue" stroke="black" d="M670.13,-721C670.13,-721 454.13,-721 454.13,-721 448.13,-721 442.13,-715 442.13,-709 442.13,-709 442.13,-697 442.13,-697 442.13,-691 448.13,-685 454.13,-685 454.13,-685 670.13,-685 670.13,-685 676.13,-685 682.13,-691 682.13,-697 682.13,-697 682.13,-709 682.13,-709 682.13,-715 676.13,-721 670.13,-721"/>
<text text-anchor="middle" x="562.13" y="-699.3" font-family="Helvetica,sans-Serif" font-size="14.00">ConvertTableToMatrixWorkspace</text>
</g>
<!-- ColumnX&#45;&gt;ConvertTableToMatrixWorkspace -->
<g id="edge7" class="edge">
<title>ColumnX&#45;&gt;ConvertTableToMatrixWorkspace</title>
<path fill="none" stroke="black" d="M628.32,-772.61C616.52,-760.39 600.19,-743.46 586.7,-729.47"/>
<polygon fill="black" stroke="black" points="589.25,-727.07 579.79,-722.3 584.21,-731.93 589.25,-727.07"/>
<text text-anchor="middle" x="613.13" y="-742.8" font-family="Helvetica,sans-Serif" font-size="14.00">X</text>
</g>
<!-- ParameterNames -->
<g id="node3" class="node">
<title>ParameterNames</title>
<ellipse fill="khaki" stroke="black" cx="690.13" cy="-950" rx="88.28" ry="18"/>
<text text-anchor="middle" x="690.13" y="-946.3" font-family="Helvetica,sans-Serif" font-size="14.00">ParameterNames</text>
</g>
<!-- searchForParams -->
<g id="node15" class="node">
<title>searchForParams</title>
<polygon fill="lightseagreen" stroke="black" points="760.13,-895 200.13,-895 200.13,-859 760.13,-859 760.13,-895"/>
<text text-anchor="middle" x="480.13" y="-873.3" font-family="Helvetica,sans-Serif" font-size="14.00">searchforFitParams: Search for strings that have the given word as their suffix</text>
</g>
<!-- ParameterNames&#45;&gt;searchForParams -->
<g id="edge4" class="edge">
<title>ParameterNames&#45;&gt;searchForParams</title>
<path fill="none" stroke="black" d="M645.85,-934.03C615.77,-923.86 575.57,-910.27 542.29,-899.02"/>
<polygon fill="black" stroke="black" points="543.78,-895.82 533.18,-895.94 541.54,-902.46 543.78,-895.82"/>
</g>
<!-- XAxisUnit -->
<g id="node4" class="node">
<title>XAxisUnit</title>
<ellipse fill="khaki" stroke="black" cx="1144.13" cy="-164" rx="54.69" ry="18"/>
<text text-anchor="middle" x="1144.13" y="-160.3" font-family="Helvetica,sans-Serif" font-size="14.00">XAxisUnit</text>
</g>
<!-- replaceXUnit -->
<g id="node19" class="node">
<title>replaceXUnit</title>
<polygon fill="lightseagreen" stroke="black" points="1184.13,-109 864.13,-109 864.13,-73 1184.13,-73 1184.13,-109"/>
<text text-anchor="middle" x="1024.13" y="-87.3" font-family="Helvetica,sans-Serif" font-size="14.00">Replace the x axis unit with algorithm input</text>
</g>
<!-- XAxisUnit&#45;&gt;replaceXUnit -->
<g id="edge19" class="edge">
<title>XAxisUnit&#45;&gt;replaceXUnit</title>
<path fill="none" stroke="black" d="M1118.39,-147.77C1102.35,-138.28 1081.4,-125.89 1063.33,-115.19"/>
<polygon fill="black" stroke="black" points="1065.32,-112.31 1054.93,-110.23 1061.76,-118.33 1065.32,-112.31"/>
</g>
<!-- OutputWorkspace -->
<g id="node5" class="node">
<title>OutputWorkspace</title>
<ellipse fill="khaki" stroke="black" cx="1024.13" cy="-18" rx="91.78" ry="18"/>
<text text-anchor="middle" x="1024.13" y="-14.3" font-family="Helvetica,sans-Serif" font-size="14.00">OutputWorkspace</text>
</g>
<!-- currentColumnName -->
<g id="node7" class="node">
<title>currentColumnName</title>
<ellipse fill="khaki" stroke="black" cx="480.13" cy="-950" rx="103.98" ry="18"/>
<text text-anchor="middle" x="480.13" y="-946.3" font-family="Helvetica,sans-Serif" font-size="14.00">currentColumnName</text>
</g>
<!-- allColumnNames&#45;&gt;currentColumnName -->
<g id="edge2" class="edge">
<title>allColumnNames&#45;&gt;currentColumnName</title>
<path fill="none" stroke="black" d="M679.14,-1020.9C639.07,-1006.83 579.11,-985.77 535.48,-970.44"/>
<polygon fill="black" stroke="black" points="536.78,-967.19 526.19,-967.18 534.46,-973.79 536.78,-967.19"/>
<text text-anchor="middle" x="761.13" y="-989.8" font-family="Helvetica,sans-Serif" font-size="14.00">Extract ColumnName to be used in a loop</text>
</g>
<!-- currentColumnName&#45;&gt;searchForParams -->
<g id="edge3" class="edge">
<title>currentColumnName&#45;&gt;searchForParams</title>
<path fill="none" stroke="black" d="M480.13,-931.81C480.13,-924.23 480.13,-915.1 480.13,-906.54"/>
<polygon fill="black" stroke="black" points="483.63,-906.54 480.13,-896.54 476.63,-906.54 483.63,-906.54"/>
</g>
<!-- ErrorColumnName -->
<g id="node8" class="node">
<title>ErrorColumnName</title>
<ellipse fill="khaki" stroke="black" cx="480.13" cy="-790" rx="93.68" ry="18"/>
<text text-anchor="middle" x="480.13" y="-786.3" font-family="Helvetica,sans-Serif" font-size="14.00">ErrorColumnName</text>
</g>
<!-- ErrorColumnName&#45;&gt;ConvertTableToMatrixWorkspace -->
<g id="edge9" class="edge">
<title>ErrorColumnName&#45;&gt;ConvertTableToMatrixWorkspace</title>
<path fill="none" stroke="black" d="M496.72,-771.8C508.43,-759.67 524.3,-743.21 537.48,-729.55"/>
<polygon fill="black" stroke="black" points="539.8,-732.18 544.23,-722.56 534.77,-727.32 539.8,-732.18"/>
<text text-anchor="middle" x="531.13" y="-742.8" font-family="Helvetica,sans-Serif" font-size="14.00">E</text>
</g>
<!-- ColumnName -->
<g id="node9" class="node">
<title>ColumnName</title>
<ellipse fill="khaki" stroke="black" cx="143.13" cy="-790" rx="71.49" ry="18"/>
<text text-anchor="middle" x="143.13" y="-786.3" font-family="Helvetica,sans-Serif" font-size="14.00">ColumnName</text>
</g>
<!-- ColumnName&#45;&gt;ConvertTableToMatrixWorkspace -->
<g id="edge8" class="edge">
<title>ColumnName&#45;&gt;ConvertTableToMatrixWorkspace</title>
<path fill="none" stroke="black" d="M197.48,-777.97C265.11,-764.25 381.84,-740.57 465,-723.7"/>
<polygon fill="black" stroke="black" points="465.66,-727.14 474.77,-721.72 464.27,-720.28 465.66,-727.14"/>
<text text-anchor="middle" x="382.63" y="-742.8" font-family="Helvetica,sans-Serif" font-size="14.00">Y</text>
</g>
<!-- PeakWorkspaces -->
<g id="node10" class="node">
<title>PeakWorkspaces</title>
<ellipse fill="khaki" stroke="black" cx="905.13" cy="-383" rx="86.38" ry="18"/>
<text text-anchor="middle" x="905.13" y="-379.3" font-family="Helvetica,sans-Serif" font-size="14.00">PeakWorkspaces</text>
</g>
<!-- conjoinPeaks -->
<g id="node17" class="node">
<title>conjoinPeaks</title>
<polygon fill="lightseagreen" stroke="black" points="1109.13,-328 701.13,-328 701.13,-292 1109.13,-292 1109.13,-328"/>
<text text-anchor="middle" x="905.13" y="-306.3" font-family="Helvetica,sans-Serif" font-size="14.00">Conjoin all the peak workspaces into a single workspace</text>
</g>
<!-- PeakWorkspaces&#45;&gt;conjoinPeaks -->
<g id="edge15" class="edge">
<title>PeakWorkspaces&#45;&gt;conjoinPeaks</title>
<path fill="none" stroke="black" d="M905.13,-364.81C905.13,-357.23 905.13,-348.1 905.13,-339.54"/>
<polygon fill="black" stroke="black" points="908.63,-339.54 905.13,-329.54 901.63,-339.54 908.63,-339.54"/>
</g>
<!-- WorkspaceNames -->
<g id="node11" class="node">
<title>WorkspaceNames</title>
<ellipse fill="khaki" stroke="black" cx="754.13" cy="-616" rx="90.98" ry="18"/>
<text text-anchor="middle" x="754.13" y="-612.3" font-family="Helvetica,sans-Serif" font-size="14.00">WorkspaceNames</text>
</g>
<!-- processedAllColumns -->
<g id="node14" class="node">
<title>processedAllColumns</title>
<polygon fill="limegreen" stroke="black" points="905.13,-561 720.63,-543 905.13,-525 1089.63,-543 905.13,-561"/>
<text text-anchor="middle" x="905.13" y="-539.3" font-family="Helvetica,sans-Serif" font-size="14.00">All columns to workspaces</text>
</g>
<!-- WorkspaceNames&#45;&gt;processedAllColumns -->
<g id="edge11" class="edge">
<title>WorkspaceNames&#45;&gt;processedAllColumns</title>
<path fill="none" stroke="black" d="M788.39,-598.89C810.9,-588.3 840.47,-574.4 864.22,-563.24"/>
<polygon fill="black" stroke="black" points="865.4,-566.55 872.96,-559.12 862.43,-560.21 865.4,-566.55"/>
</g>
<!-- ConvertTableToMatrixWorkspace&#45;&gt;WorkspaceNames -->
<g id="edge10" class="edge">
<title>ConvertTableToMatrixWorkspace&#45;&gt;WorkspaceNames</title>
<path fill="none" stroke="black" d="M594.61,-684.72C613.99,-674.68 639.2,-662.06 662.13,-652 674.48,-646.58 687.95,-641.18 700.69,-636.29"/>
<polygon fill="black" stroke="black" points="701.64,-639.68 709.76,-632.86 699.16,-633.13 701.64,-639.68"/>
<text text-anchor="middle" x="806.63" y="-655.8" font-family="Helvetica,sans-Serif" font-size="14.00">Vector to store workspaces for Conjoining</text>
</g>
<!-- RenameWorkspace -->
<g id="node13" class="node">
<title>RenameWorkspace</title>
<path fill="lightskyblue" stroke="black" d="M967.63,-255C967.63,-255 842.63,-255 842.63,-255 836.63,-255 830.63,-249 830.63,-243 830.63,-243 830.63,-231 830.63,-231 830.63,-225 836.63,-219 842.63,-219 842.63,-219 967.63,-219 967.63,-219 973.63,-219 979.63,-225 979.63,-231 979.63,-231 979.63,-243 979.63,-243 979.63,-249 973.63,-255 967.63,-255"/>
<text text-anchor="middle" x="905.13" y="-233.3" font-family="Helvetica,sans-Serif" font-size="14.00">RenameWorkspace</text>
</g>
<!-- replaceXAxis -->
<g id="node18" class="node">
<title>replaceXAxis</title>
<polygon fill="lightseagreen" stroke="black" points="1071.13,-182 739.13,-182 739.13,-146 1071.13,-146 1071.13,-182"/>
<text text-anchor="middle" x="905.13" y="-160.3" font-family="Helvetica,sans-Serif" font-size="14.00">Replace the x axis with the parameter names</text>
</g>
<!-- RenameWorkspace&#45;&gt;replaceXAxis -->
<g id="edge17" class="edge">
<title>RenameWorkspace&#45;&gt;replaceXAxis</title>
<path fill="none" stroke="black" d="M905.13,-218.81C905.13,-211.23 905.13,-202.1 905.13,-193.54"/>
<polygon fill="black" stroke="black" points="908.63,-193.54 905.13,-183.54 901.63,-193.54 908.63,-193.54"/>
</g>
<!-- processedAllColumns&#45;&gt;allColumnNames -->
<g id="edge12" class="edge">
<title>processedAllColumns&#45;&gt;allColumnNames</title>
<path fill="none" stroke="black" d="M928.84,-559.01C945.61,-571.66 965.13,-591.44 965.13,-615 965.13,-951 965.13,-951 965.13,-951 965.13,-984.04 939.72,-986.31 910.13,-1001 881.13,-1015.4 846.94,-1023.91 815.73,-1028.92"/>
<polygon fill="black" stroke="black" points="815.25,-1025.46 805.87,-1030.4 816.28,-1032.38 815.25,-1025.46"/>
<text text-anchor="middle" x="974.63" y="-786.3" font-family="Helvetica,sans-Serif" font-size="14.00">No</text>
</g>
<!-- conjoinParams -->
<g id="node16" class="node">
<title>conjoinParams</title>
<polygon fill="lightseagreen" stroke="black" points="1221.63,-474 588.63,-474 588.63,-438 1221.63,-438 1221.63,-474"/>
<text text-anchor="middle" x="905.13" y="-452.3" font-family="Helvetica,sans-Serif" font-size="14.00">Conjoin all the workspaces that are about the same peak (Could be multiple Lorentzians)</text>
</g>
<!-- processedAllColumns&#45;&gt;conjoinParams -->
<g id="edge13" class="edge">
<title>processedAllColumns&#45;&gt;conjoinParams</title>
<path fill="none" stroke="black" d="M905.13,-524.8C905.13,-513.58 905.13,-498.67 905.13,-485.69"/>
<polygon fill="black" stroke="black" points="908.63,-485.98 905.13,-475.98 901.63,-485.98 908.63,-485.98"/>
<text text-anchor="middle" x="916.63" y="-495.8" font-family="Helvetica,sans-Serif" font-size="14.00">Yes</text>
</g>
<!-- searchForParams&#45;&gt;ErrorColumnName -->
<g id="edge6" class="edge">
<title>searchForParams&#45;&gt;ErrorColumnName</title>
<path fill="none" stroke="black" d="M480.13,-858.8C480.13,-847.58 480.13,-832.67 480.13,-819.69"/>
<polygon fill="black" stroke="black" points="483.63,-819.98 480.13,-809.98 476.63,-819.98 483.63,-819.98"/>
<text text-anchor="middle" x="715.13" y="-829.8" font-family="Helvetica,sans-Serif" font-size="14.00">Corresponding errors for currentColumnName from tableWorkspace</text>
</g>
<!-- searchForParams&#45;&gt;ColumnName -->
<g id="edge5" class="edge">
<title>searchForParams&#45;&gt;ColumnName</title>
<path fill="none" stroke="black" d="M199.87,-870.57C106.42,-865.82 22.05,-857.06 7.13,-841 -15.74,-816.38 22.28,-803.84 63.87,-797.48"/>
<polygon fill="black" stroke="black" points="64.15,-800.97 73.57,-796.12 63.18,-794.04 64.15,-800.97"/>
<text text-anchor="middle" x="241.63" y="-829.8" font-family="Helvetica,sans-Serif" font-size="14.00">Corresponding name for currentColumnName from tableWorkspace</text>
</g>
<!-- conjoinParams&#45;&gt;PeakWorkspaces -->
<g id="edge14" class="edge">
<title>conjoinParams&#45;&gt;PeakWorkspaces</title>
<path fill="none" stroke="black" d="M905.13,-437.81C905.13,-430.23 905.13,-421.1 905.13,-412.54"/>
<polygon fill="black" stroke="black" points="908.63,-412.54 905.13,-402.54 901.63,-412.54 908.63,-412.54"/>
</g>
<!-- conjoinPeaks&#45;&gt;RenameWorkspace -->
<g id="edge16" class="edge">
<title>conjoinPeaks&#45;&gt;RenameWorkspace</title>
<path fill="none" stroke="black" d="M905.13,-291.81C905.13,-284.23 905.13,-275.1 905.13,-266.54"/>
<polygon fill="black" stroke="black" points="908.63,-266.54 905.13,-256.54 901.63,-266.54 908.63,-266.54"/>
</g>
<!-- replaceXAxis&#45;&gt;replaceXUnit -->
<g id="edge18" class="edge">
<title>replaceXAxis&#45;&gt;replaceXUnit</title>
<path fill="none" stroke="black" d="M934.24,-145.63C949.65,-136.43 968.79,-125.02 985.44,-115.08"/>
<polygon fill="black" stroke="black" points="986.81,-118.34 993.61,-110.21 983.23,-112.33 986.81,-118.34"/>
</g>
<!-- replaceXUnit&#45;&gt;OutputWorkspace -->
<g id="edge20" class="edge">
<title>replaceXUnit&#45;&gt;OutputWorkspace</title>
<path fill="none" stroke="black" d="M1024.13,-72.81C1024.13,-65.23 1024.13,-56.1 1024.13,-47.54"/>
<polygon fill="black" stroke="black" points="1027.63,-47.54 1024.13,-37.54 1020.63,-47.54 1027.63,-47.54"/>
</g>
</g>
</svg>
