<?xml version="1.0" encoding="UTF-8" standalone="no"?>
<!DOCTYPE svg PUBLIC "-//W3C//DTD SVG 1.1//EN"
 "http://www.w3.org/Graphics/SVG/1.1/DTD/svg11.dtd">
<!-- Generated by graphviz version 11.0.0 (20240519.1550)
 -->
<!-- Title: QENSFitSimultaneous Pages: 1 -->
<svg width="3511pt" height="719pt"
 viewBox="0.00 0.00 3510.55 718.75" xmlns="http://www.w3.org/2000/svg" xmlns:xlink="http://www.w3.org/1999/xlink">
<g id="graph0" class="graph" transform="scale(1 1) rotate(0) translate(4 714.75)">
<title>QENSFitSimultaneous</title>
<polygon fill="white" stroke="none" points="-4,4 -4,-714.75 3506.55,-714.75 3506.55,4 -4,4"/>
<text text-anchor="middle" x="1751.28" y="-693.45" font-family="Helvetica,sans-Serif" font-size="14.00">QENSFitSimultaneous Flowchart</text>
<!-- InputWorkspace -->
<g id="node1" class="node">
<title>InputWorkspace</title>
<ellipse fill="khaki" stroke="black" cx="342.55" cy="-638.38" rx="90.14" ry="18"/>
<text text-anchor="middle" x="342.55" y="-633.7" font-family="Helvetica,sans-Serif" font-size="14.00">InputWorkspace</text>
</g>
<!-- ConvertSpectrumAxis -->
<g id="node27" class="node">
<title>ConvertSpectrumAxis</title>
<path fill="lightskyblue" stroke="black" d="M180.3,-538C180.3,-538 36.8,-538 36.8,-538 30.8,-538 24.8,-532 24.8,-526 24.8,-526 24.8,-514 24.8,-514 24.8,-508 30.8,-502 36.8,-502 36.8,-502 180.3,-502 180.3,-502 186.3,-502 192.3,-508 192.3,-514 192.3,-514 192.3,-526 192.3,-526 192.3,-532 186.3,-538 180.3,-538"/>
<text text-anchor="middle" x="108.55" y="-515.33" font-family="Helvetica,sans-Serif" font-size="14.00">ConvertSpectrumAxis</text>
</g>
<!-- InputWorkspace&#45;&gt;ConvertSpectrumAxis -->
<g id="edge7" class="edge">
<title>InputWorkspace&#45;&gt;ConvertSpectrumAxis</title>
<path fill="none" stroke="black" d="M270.8,-627.15C209.93,-616.84 129.41,-598.8 109.55,-573.25 104.41,-566.63 102.85,-557.98 102.95,-549.62"/>
<polygon fill="black" stroke="black" points="106.43,-550.05 103.88,-539.76 99.46,-549.39 106.43,-550.05"/>
<text text-anchor="middle" x="219.05" y="-559.95" font-family="Helvetica,sans-Serif" font-size="14.00">Attempt conversion to Elastic Q</text>
</g>
<!-- Fit -->
<g id="node28" class="node">
<title>Fit</title>
<path fill="lightskyblue" stroke="black" d="M1310.55,-448.75C1310.55,-448.75 1280.55,-448.75 1280.55,-448.75 1274.55,-448.75 1268.55,-442.75 1268.55,-436.75 1268.55,-436.75 1268.55,-424.75 1268.55,-424.75 1268.55,-418.75 1274.55,-412.75 1280.55,-412.75 1280.55,-412.75 1310.55,-412.75 1310.55,-412.75 1316.55,-412.75 1322.55,-418.75 1322.55,-424.75 1322.55,-424.75 1322.55,-436.75 1322.55,-436.75 1322.55,-442.75 1316.55,-448.75 1310.55,-448.75"/>
<text text-anchor="middle" x="1295.55" y="-426.07" font-family="Helvetica,sans-Serif" font-size="14.00">Fit</text>
</g>
<!-- InputWorkspace&#45;&gt;Fit -->
<g id="edge9" class="edge">
<title>InputWorkspace&#45;&gt;Fit</title>
<path fill="none" stroke="black" d="M342.61,-619.95C343.78,-589.91 351.04,-528.98 389.55,-502 454.18,-456.73 485.25,-476.5 563.55,-466.75 827.02,-433.96 1147.35,-431.37 1256.77,-431.53"/>
<polygon fill="black" stroke="black" points="1256.65,-435.03 1266.66,-431.56 1256.67,-428.03 1256.65,-435.03"/>
</g>
<!-- CopyLogs -->
<g id="node32" class="node">
<title>CopyLogs</title>
<path fill="lightskyblue" stroke="black" d="M549.3,-108C549.3,-108 489.8,-108 489.8,-108 483.8,-108 477.8,-102 477.8,-96 477.8,-96 477.8,-84 477.8,-84 477.8,-78 483.8,-72 489.8,-72 489.8,-72 549.3,-72 549.3,-72 555.3,-72 561.3,-78 561.3,-84 561.3,-84 561.3,-96 561.3,-96 561.3,-102 555.3,-108 549.3,-108"/>
<text text-anchor="middle" x="519.55" y="-85.33" font-family="Helvetica,sans-Serif" font-size="14.00">CopyLogs</text>
</g>
<!-- InputWorkspace&#45;&gt;CopyLogs -->
<g id="edge30" class="edge">
<title>InputWorkspace&#45;&gt;CopyLogs</title>
<path fill="none" stroke="black" d="M349.48,-619.95C357.77,-597.46 370.55,-556.95 370.55,-521 370.55,-521 370.55,-521 370.55,-162 370.55,-118.2 423.67,-101.4 466.47,-94.96"/>
<polygon fill="black" stroke="black" points="466.7,-98.46 476.15,-93.67 465.78,-91.52 466.7,-98.46"/>
</g>
<!-- do_extract_members -->
<g id="node34" class="node">
<title>do_extract_members</title>
<polygon fill="limegreen" stroke="black" points="2007.55,-270.25 1843.62,-252.25 2007.55,-234.25 2171.49,-252.25 2007.55,-270.25"/>
<text text-anchor="middle" x="2007.55" y="-247.57" font-family="Helvetica,sans-Serif" font-size="14.00">Do Extract Members?</text>
</g>
<!-- InputWorkspace&#45;&gt;do_extract_members -->
<g id="edge39" class="edge">
<title>InputWorkspace&#45;&gt;do_extract_members</title>
<path fill="none" stroke="black" d="M432.51,-636.36C798.54,-631.67 2156.55,-608.38 2156.55,-521 2156.55,-521 2156.55,-521 2156.55,-340.5 2156.55,-301.04 2117.16,-279.1 2078.89,-267.08"/>
<polygon fill="black" stroke="black" points="2080.19,-263.82 2069.61,-264.37 2078.23,-270.54 2080.19,-263.82"/>
</g>
<!-- FitFunction -->
<g id="node36" class="node">
<title>FitFunction</title>
<ellipse fill="lightgrey" stroke="black" cx="2248.55" cy="-520" rx="63.83" ry="18"/>
<text text-anchor="middle" x="2248.55" y="-515.33" font-family="Helvetica,sans-Serif" font-size="14.00">FitFunction</text>
</g>
<!-- InputWorkspace&#45;&gt;FitFunction -->
<g id="edge1" class="edge">
<title>InputWorkspace&#45;&gt;FitFunction</title>
<path fill="none" stroke="black" d="M255.1,-633.78C165.88,-627.21 47.41,-608.61 99.55,-556 119.48,-535.9 2109.34,-540.27 2137.55,-538 2152.96,-536.76 2169.46,-534.66 2184.91,-532.35"/>
<polygon fill="black" stroke="black" points="2185.1,-535.86 2194.45,-530.87 2184.03,-528.94 2185.1,-535.86"/>
</g>
<!-- Input -->
<g id="node2" class="node">
<title>Input</title>
<ellipse fill="khaki" stroke="black" cx="2097.55" cy="-638.38" rx="37" ry="18"/>
<text text-anchor="middle" x="2097.55" y="-633.7" font-family="Helvetica,sans-Serif" font-size="14.00">Input</text>
</g>
<!-- Input&#45;&gt;FitFunction -->
<g id="edge2" class="edge">
<title>Input&#45;&gt;FitFunction</title>
<path fill="none" stroke="black" d="M2111.76,-621.64C2120.51,-612.34 2132.2,-600.59 2143.55,-591.25 2155.95,-581.06 2188.47,-559.57 2214.07,-543.03"/>
<polygon fill="black" stroke="black" points="2215.7,-546.14 2222.21,-537.78 2211.91,-540.26 2215.7,-546.14"/>
</g>
<!-- FitParameters -->
<g id="node3" class="node">
<title>FitParameters</title>
<ellipse fill="khaki" stroke="black" cx="2230.55" cy="-638.38" rx="77.51" ry="18"/>
<text text-anchor="middle" x="2230.55" y="-633.7" font-family="Helvetica,sans-Serif" font-size="14.00">FitParameters</text>
</g>
<!-- FitParameters&#45;&gt;FitFunction -->
<g id="edge4" class="edge">
<title>FitParameters&#45;&gt;FitFunction</title>
<path fill="none" stroke="black" d="M2233.25,-619.95C2236.13,-601.33 2240.74,-571.53 2244.15,-549.49"/>
<polygon fill="black" stroke="black" points="2247.6,-550.08 2245.67,-539.66 2240.68,-549 2247.6,-550.08"/>
</g>
<!-- Function -->
<g id="node4" class="node">
<title>Function</title>
<ellipse fill="khaki" stroke="black" cx="2378.55" cy="-638.38" rx="52.79" ry="18"/>
<text text-anchor="middle" x="2378.55" y="-633.7" font-family="Helvetica,sans-Serif" font-size="14.00">Function</text>
</g>
<!-- Function&#45;&gt;FitFunction -->
<g id="edge3" class="edge">
<title>Function&#45;&gt;FitFunction</title>
<path fill="none" stroke="black" d="M2360.48,-621.19C2338.39,-601.42 2300.81,-567.78 2275.35,-544.99"/>
<polygon fill="black" stroke="black" points="2277.81,-542.49 2268.02,-538.43 2273.14,-547.71 2277.81,-542.49"/>
</g>
<!-- StartX -->
<g id="node5" class="node">
<title>StartX</title>
<ellipse fill="khaki" stroke="black" cx="440.55" cy="-520" rx="41.74" ry="18"/>
<text text-anchor="middle" x="440.55" y="-515.33" font-family="Helvetica,sans-Serif" font-size="14.00">StartX</text>
</g>
<!-- StartX&#45;&gt;Fit -->
<g id="edge11" class="edge">
<title>StartX&#45;&gt;Fit</title>
<path fill="none" stroke="black" d="M471.92,-507.82C478.36,-505.73 485.14,-503.67 491.55,-502 572.12,-480.96 592.92,-476.95 675.55,-466.75 894.33,-439.74 1159.16,-433.55 1256.9,-432.15"/>
<polygon fill="black" stroke="black" points="1256.78,-435.65 1266.73,-432.02 1256.68,-428.65 1256.78,-435.65"/>
</g>
<!-- EndX -->
<g id="node6" class="node">
<title>EndX</title>
<ellipse fill="khaki" stroke="black" cx="537.55" cy="-520" rx="37" ry="18"/>
<text text-anchor="middle" x="537.55" y="-515.33" font-family="Helvetica,sans-Serif" font-size="14.00">EndX</text>
</g>
<!-- EndX&#45;&gt;Fit -->
<g id="edge12" class="edge">
<title>EndX&#45;&gt;Fit</title>
<path fill="none" stroke="black" d="M564.94,-507.59C570.98,-505.44 577.42,-503.42 583.55,-502 835.82,-443.76 1149.3,-433.79 1257.08,-432.09"/>
<polygon fill="black" stroke="black" points="1256.85,-435.6 1266.8,-431.96 1256.75,-428.6 1256.85,-435.6"/>
</g>
<!-- SpecMin -->
<g id="node7" class="node">
<title>SpecMin</title>
<ellipse fill="khaki" stroke="black" cx="2501.55" cy="-638.38" rx="52.26" ry="18"/>
<text text-anchor="middle" x="2501.55" y="-633.7" font-family="Helvetica,sans-Serif" font-size="14.00">SpecMin</text>
</g>
<!-- SpecMin&#45;&gt;FitFunction -->
<g id="edge5" class="edge">
<title>SpecMin&#45;&gt;FitFunction</title>
<path fill="none" stroke="black" d="M2483.05,-621.08C2471.44,-611.46 2455.83,-599.57 2440.55,-591.25 2396.92,-567.46 2343.59,-548.68 2304.21,-536.55"/>
<polygon fill="black" stroke="black" points="2305.27,-533.21 2294.69,-533.66 2303.24,-539.91 2305.27,-533.21"/>
</g>
<!-- SpecMax -->
<g id="node8" class="node">
<title>SpecMax</title>
<ellipse fill="khaki" stroke="black" cx="2626.55" cy="-638.38" rx="54.89" ry="18"/>
<text text-anchor="middle" x="2626.55" y="-633.7" font-family="Helvetica,sans-Serif" font-size="14.00">SpecMax</text>
</g>
<!-- SpecMax&#45;&gt;FitFunction -->
<g id="edge6" class="edge">
<title>SpecMax&#45;&gt;FitFunction</title>
<path fill="none" stroke="black" d="M2608.21,-621.06C2596.04,-611.06 2579.29,-598.77 2562.55,-591.25 2483.36,-555.67 2384.59,-537.4 2319.21,-528.53"/>
<polygon fill="black" stroke="black" points="2319.67,-525.06 2309.3,-527.23 2318.76,-532 2319.67,-525.06"/>
</g>
<!-- ConvolveMembers -->
<g id="node9" class="node">
<title>ConvolveMembers</title>
<ellipse fill="khaki" stroke="black" cx="693.55" cy="-520" rx="101.19" ry="18"/>
<text text-anchor="middle" x="693.55" y="-515.33" font-family="Helvetica,sans-Serif" font-size="14.00">ConvolveMembers</text>
</g>
<!-- ConvolveMembers&#45;&gt;Fit -->
<g id="edge13" class="edge">
<title>ConvolveMembers&#45;&gt;Fit</title>
<path fill="none" stroke="black" d="M768.17,-507.47C780.33,-505.62 792.79,-503.74 804.55,-502 972.82,-477.08 1173.75,-448.79 1256.75,-437.17"/>
<polygon fill="black" stroke="black" points="1257.21,-440.64 1266.63,-435.79 1256.24,-433.71 1257.21,-440.64"/>
</g>
<!-- ExtractMembers -->
<g id="node10" class="node">
<title>ExtractMembers</title>
<ellipse fill="khaki" stroke="black" cx="2007.55" cy="-341.5" rx="91.19" ry="18"/>
<text text-anchor="middle" x="2007.55" y="-336.82" font-family="Helvetica,sans-Serif" font-size="14.00">ExtractMembers</text>
</g>
<!-- ExtractMembers&#45;&gt;do_extract_members -->
<g id="edge37" class="edge">
<title>ExtractMembers&#45;&gt;do_extract_members</title>
<path fill="none" stroke="black" d="M2007.55,-323.26C2007.55,-311.51 2007.55,-295.66 2007.55,-282.02"/>
<polygon fill="black" stroke="black" points="2011.05,-282.26 2007.55,-272.26 2004.05,-282.26 2011.05,-282.26"/>
</g>
<!-- PassWSIndexToFunction -->
<g id="node11" class="node">
<title>PassWSIndexToFunction</title>
<ellipse fill="khaki" stroke="black" cx="940.55" cy="-520" rx="127.49" ry="18"/>
<text text-anchor="middle" x="940.55" y="-515.33" font-family="Helvetica,sans-Serif" font-size="14.00">PassWSIndexToFunction</text>
</g>
<!-- PassWSIndexToFunction&#45;&gt;Fit -->
<g id="edge19" class="edge">
<title>PassWSIndexToFunction&#45;&gt;Fit</title>
<path fill="none" stroke="black" d="M1001.99,-503.9C1075.44,-485.85 1196.12,-456.19 1257.35,-441.14"/>
<polygon fill="black" stroke="black" points="1258.08,-444.57 1266.95,-438.78 1256.4,-437.77 1258.08,-444.57"/>
</g>
<!-- Minimizer -->
<g id="node12" class="node">
<title>Minimizer</title>
<ellipse fill="khaki" stroke="black" cx="1144.55" cy="-520" rx="58.57" ry="18"/>
<text text-anchor="middle" x="1144.55" y="-515.33" font-family="Helvetica,sans-Serif" font-size="14.00">Minimizer</text>
</g>
<!-- Minimizer&#45;&gt;Fit -->
<g id="edge15" class="edge">
<title>Minimizer&#45;&gt;Fit</title>
<path fill="none" stroke="black" d="M1171.2,-503.6C1195.38,-489.63 1231.26,-468.9 1258.28,-453.29"/>
<polygon fill="black" stroke="black" points="1259.94,-456.37 1266.84,-448.34 1256.43,-450.31 1259.94,-456.37"/>
</g>
<!-- CostFunction -->
<g id="node13" class="node">
<title>CostFunction</title>
<ellipse fill="khaki" stroke="black" cx="1295.55" cy="-520" rx="74.36" ry="18"/>
<text text-anchor="middle" x="1295.55" y="-515.33" font-family="Helvetica,sans-Serif" font-size="14.00">CostFunction</text>
</g>
<!-- CostFunction&#45;&gt;Fit -->
<g id="edge16" class="edge">
<title>CostFunction&#45;&gt;Fit</title>
<path fill="none" stroke="black" d="M1295.55,-501.76C1295.55,-489.93 1295.55,-473.95 1295.55,-460.25"/>
<polygon fill="black" stroke="black" points="1299.05,-460.47 1295.55,-450.47 1292.05,-460.47 1299.05,-460.47"/>
</g>
<!-- MaxIterations -->
<g id="node14" class="node">
<title>MaxIterations</title>
<ellipse fill="khaki" stroke="black" cx="1465.55" cy="-520" rx="77.51" ry="18"/>
<text text-anchor="middle" x="1465.55" y="-515.33" font-family="Helvetica,sans-Serif" font-size="14.00">MaxIterations</text>
</g>
<!-- MaxIterations&#45;&gt;Fit -->
<g id="edge14" class="edge">
<title>MaxIterations&#45;&gt;Fit</title>
<path fill="none" stroke="black" d="M1434.77,-503.2C1406.14,-488.51 1363.44,-466.59 1332.88,-450.91"/>
<polygon fill="black" stroke="black" points="1334.86,-447.99 1324.37,-446.54 1331.67,-454.22 1334.86,-447.99"/>
</g>
<!-- PeakRadius -->
<g id="node15" class="node">
<title>PeakRadius</title>
<ellipse fill="khaki" stroke="black" cx="1628.55" cy="-520" rx="67.52" ry="18"/>
<text text-anchor="middle" x="1628.55" y="-515.33" font-family="Helvetica,sans-Serif" font-size="14.00">PeakRadius</text>
</g>
<!-- PeakRadius&#45;&gt;Fit -->
<g id="edge17" class="edge">
<title>PeakRadius&#45;&gt;Fit</title>
<path fill="none" stroke="black" d="M1581.55,-506.68C1515.19,-489.3 1395.31,-457.89 1333.97,-441.82"/>
<polygon fill="black" stroke="black" points="1334.89,-438.44 1324.33,-439.29 1333.12,-445.21 1334.89,-438.44"/>
</g>
<!-- EvaluationType -->
<g id="node16" class="node">
<title>EvaluationType</title>
<ellipse fill="khaki" stroke="black" cx="1798.55" cy="-520" rx="84.35" ry="18"/>
<text text-anchor="middle" x="1798.55" y="-515.33" font-family="Helvetica,sans-Serif" font-size="14.00">EvaluationType</text>
</g>
<!-- EvaluationType&#45;&gt;Fit -->
<g id="edge20" class="edge">
<title>EvaluationType&#45;&gt;Fit</title>
<path fill="none" stroke="black" d="M1736.29,-507.52C1726.02,-505.66 1715.49,-503.76 1705.55,-502 1569.15,-477.85 1406.96,-450.45 1334.22,-438.23"/>
<polygon fill="black" stroke="black" points="1334.86,-434.79 1324.41,-436.58 1333.7,-441.69 1334.86,-434.79"/>
</g>
<!-- Exclude -->
<g id="node17" class="node">
<title>Exclude</title>
<ellipse fill="khaki" stroke="black" cx="1950.55" cy="-520" rx="49.63" ry="18"/>
<text text-anchor="middle" x="1950.55" y="-515.33" font-family="Helvetica,sans-Serif" font-size="14.00">Exclude</text>
</g>
<!-- Exclude&#45;&gt;Fit -->
<g id="edge21" class="edge">
<title>Exclude&#45;&gt;Fit</title>
<path fill="none" stroke="black" d="M1913.96,-507.46C1906.59,-505.42 1898.87,-503.48 1891.55,-502 1683.71,-459.88 1429.6,-440.33 1334.19,-434.08"/>
<polygon fill="black" stroke="black" points="1334.55,-430.6 1324.35,-433.45 1334.1,-437.59 1334.55,-430.6"/>
</g>
<!-- LogValue -->
<g id="node18" class="node">
<title>LogValue</title>
<ellipse fill="khaki" stroke="black" cx="2073.55" cy="-520" rx="54.89" ry="18"/>
<text text-anchor="middle" x="2073.55" y="-515.33" font-family="Helvetica,sans-Serif" font-size="14.00">LogValue</text>
</g>
<!-- LogValue&#45;&gt;Fit -->
<g id="edge18" class="edge">
<title>LogValue&#45;&gt;Fit</title>
<path fill="none" stroke="black" d="M2033.08,-507.56C2025.31,-505.56 2017.2,-503.61 2009.55,-502 1755.48,-448.6 1441.81,-435.58 1334.03,-432.59"/>
<polygon fill="black" stroke="black" points="1334.39,-429.1 1324.3,-432.34 1334.2,-436.1 1334.39,-429.1"/>
</g>
<!-- ParameterTable -->
<g id="node19" class="node">
<title>ParameterTable</title>
<ellipse fill="khaki" stroke="black" cx="1295.55" cy="-341.5" rx="85.93" ry="18"/>
<text text-anchor="middle" x="1295.55" y="-336.82" font-family="Helvetica,sans-Serif" font-size="14.00">ParameterTable</text>
</g>
<!-- ProcessIndirectFitParameters -->
<g id="node31" class="node">
<title>ProcessIndirectFitParameters</title>
<path fill="lightskyblue" stroke="black" d="M759.3,-270.25C759.3,-270.25 567.8,-270.25 567.8,-270.25 561.8,-270.25 555.8,-264.25 555.8,-258.25 555.8,-258.25 555.8,-246.25 555.8,-246.25 555.8,-240.25 561.8,-234.25 567.8,-234.25 567.8,-234.25 759.3,-234.25 759.3,-234.25 765.3,-234.25 771.3,-240.25 771.3,-246.25 771.3,-246.25 771.3,-258.25 771.3,-258.25 771.3,-264.25 765.3,-270.25 759.3,-270.25"/>
<text text-anchor="middle" x="663.55" y="-247.57" font-family="Helvetica,sans-Serif" font-size="14.00">ProcessIndirectFitParameters</text>
</g>
<!-- ParameterTable&#45;&gt;ProcessIndirectFitParameters -->
<g id="edge27" class="edge">
<title>ParameterTable&#45;&gt;ProcessIndirectFitParameters</title>
<path fill="none" stroke="black" d="M1289.26,-323.19C1283.89,-311.14 1274.88,-295.9 1261.55,-288.25 1225.47,-267.54 929.08,-272.82 887.55,-270.25 853.63,-268.15 816.84,-265.51 783.08,-262.94"/>
<polygon fill="black" stroke="black" points="783.5,-259.46 773.26,-262.18 782.96,-266.44 783.5,-259.46"/>
</g>
<!-- RenameWorkspace -->
<g id="node33" class="node">
<title>RenameWorkspace</title>
<path fill="lightskyblue" stroke="black" d="M1524.55,-270.25C1524.55,-270.25 1400.55,-270.25 1400.55,-270.25 1394.55,-270.25 1388.55,-264.25 1388.55,-258.25 1388.55,-258.25 1388.55,-246.25 1388.55,-246.25 1388.55,-240.25 1394.55,-234.25 1400.55,-234.25 1400.55,-234.25 1524.55,-234.25 1524.55,-234.25 1530.55,-234.25 1536.55,-240.25 1536.55,-246.25 1536.55,-246.25 1536.55,-258.25 1536.55,-258.25 1536.55,-264.25 1530.55,-270.25 1524.55,-270.25"/>
<text text-anchor="middle" x="1462.55" y="-247.57" font-family="Helvetica,sans-Serif" font-size="14.00">RenameWorkspace</text>
</g>
<!-- ParameterTable&#45;&gt;RenameWorkspace -->
<g id="edge35" class="edge">
<title>ParameterTable&#45;&gt;RenameWorkspace</title>
<path fill="none" stroke="black" d="M1293.75,-323.3C1293.55,-311.93 1295.34,-297.47 1304.05,-288.25 1314.7,-276.98 1345.48,-268.94 1377.11,-263.42"/>
<polygon fill="black" stroke="black" points="1377.51,-266.9 1386.81,-261.82 1376.37,-260 1377.51,-266.9"/>
<text text-anchor="middle" x="1449.3" y="-292.2" font-family="Helvetica,sans-Serif" font-size="14.00">Change name to expected name for table</text>
</g>
<!-- FitWorkspaces -->
<g id="node20" class="node">
<title>FitWorkspaces</title>
<ellipse fill="khaki" stroke="black" cx="1619.55" cy="-341.5" rx="80.67" ry="18"/>
<text text-anchor="middle" x="1619.55" y="-336.82" font-family="Helvetica,sans-Serif" font-size="14.00">FitWorkspaces</text>
</g>
<!-- FitWorkspaces&#45;&gt;RenameWorkspace -->
<g id="edge36" class="edge">
<title>FitWorkspaces&#45;&gt;RenameWorkspace</title>
<path fill="none" stroke="black" d="M1616.39,-323.09C1613.42,-311.62 1607.83,-297.13 1597.55,-288.25 1583.6,-276.18 1566,-268.2 1548.15,-262.94"/>
<polygon fill="black" stroke="black" points="1549.06,-259.56 1538.5,-260.39 1547.27,-266.33 1549.06,-259.56"/>
<text text-anchor="middle" x="1721.18" y="-292.2" font-family="Helvetica,sans-Serif" font-size="14.00">Renames to match input names</text>
</g>
<!-- FitWorkspaces&#45;&gt;do_extract_members -->
<g id="edge38" class="edge">
<title>FitWorkspaces&#45;&gt;do_extract_members</title>
<path fill="none" stroke="black" d="M1688.11,-331.79C1730.8,-325.78 1786.7,-316.82 1835.55,-305.5 1877.66,-295.74 1924.56,-281.24 1958.73,-270"/>
<polygon fill="black" stroke="black" points="1959.53,-273.42 1967.92,-266.95 1957.33,-266.77 1959.53,-273.42"/>
</g>
<!-- NormalisedCovarianceWorkspace -->
<g id="node21" class="node">
<title>NormalisedCovarianceWorkspace</title>
<ellipse fill="khaki" stroke="black" cx="995.55" cy="-341.5" rx="173.27" ry="18"/>
<text text-anchor="middle" x="995.55" y="-336.82" font-family="Helvetica,sans-Serif" font-size="14.00">NormalisedCovarianceWorkspace</text>
</g>
<!-- DeleteWorkspace -->
<g id="node29" class="node">
<title>DeleteWorkspace</title>
<path fill="lightskyblue" stroke="black" d="M1020.55,-270.25C1020.55,-270.25 908.55,-270.25 908.55,-270.25 902.55,-270.25 896.55,-264.25 896.55,-258.25 896.55,-258.25 896.55,-246.25 896.55,-246.25 896.55,-240.25 902.55,-234.25 908.55,-234.25 908.55,-234.25 1020.55,-234.25 1020.55,-234.25 1026.55,-234.25 1032.55,-240.25 1032.55,-246.25 1032.55,-246.25 1032.55,-258.25 1032.55,-258.25 1032.55,-264.25 1026.55,-270.25 1020.55,-270.25"/>
<text text-anchor="middle" x="964.55" y="-247.57" font-family="Helvetica,sans-Serif" font-size="14.00">DeleteWorkspace</text>
</g>
<!-- NormalisedCovarianceWorkspace&#45;&gt;DeleteWorkspace -->
<g id="edge25" class="edge">
<title>NormalisedCovarianceWorkspace&#45;&gt;DeleteWorkspace</title>
<path fill="none" stroke="black" d="M976.5,-323.24C971.98,-318.02 967.76,-311.96 965.3,-305.5 962.48,-298.07 961.5,-289.6 961.43,-281.68"/>
<polygon fill="black" stroke="black" points="964.92,-281.92 961.85,-271.79 957.93,-281.63 964.92,-281.92"/>
<text text-anchor="middle" x="1113.68" y="-292.2" font-family="Helvetica,sans-Serif" font-size="14.00">Unrequired product of PlotPeakByLogValue</text>
</g>
<!-- ParameterNames -->
<g id="node22" class="node">
<title>ParameterNames</title>
<ellipse fill="khaki" stroke="black" cx="663.55" cy="-341.5" rx="94.88" ry="18"/>
<text text-anchor="middle" x="663.55" y="-336.82" font-family="Helvetica,sans-Serif" font-size="14.00">ParameterNames</text>
</g>
<!-- ParameterNames&#45;&gt;ProcessIndirectFitParameters -->
<g id="edge28" class="edge">
<title>ParameterNames&#45;&gt;ProcessIndirectFitParameters</title>
<path fill="none" stroke="black" d="M663.55,-323.26C663.55,-311.43 663.55,-295.45 663.55,-281.75"/>
<polygon fill="black" stroke="black" points="667.05,-281.97 663.55,-271.97 660.05,-281.97 667.05,-281.97"/>
</g>
<!-- OutputWorkspace -->
<g id="node23" class="node">
<title>OutputWorkspace</title>
<ellipse fill="khaki" stroke="black" cx="519.55" cy="-18" rx="98.56" ry="18"/>
<text text-anchor="middle" x="519.55" y="-13.32" font-family="Helvetica,sans-Serif" font-size="14.00">OutputWorkspace</text>
</g>
<!-- OutputParameterWorkspace -->
<g id="node24" class="node">
<title>OutputParameterWorkspace</title>
<ellipse fill="khaki" stroke="black" cx="2847.55" cy="-638.38" rx="148.54" ry="18"/>
<text text-anchor="middle" x="2847.55" y="-633.7" font-family="Helvetica,sans-Serif" font-size="14.00">OutputParameterWorkspace</text>
</g>
<!-- OutputWorkspaceGroup -->
<g id="node25" class="node">
<title>OutputWorkspaceGroup</title>
<ellipse fill="khaki" stroke="black" cx="3142.55" cy="-638.38" rx="128.02" ry="18"/>
<text text-anchor="middle" x="3142.55" y="-633.7" font-family="Helvetica,sans-Serif" font-size="14.00">OutputWorkspaceGroup</text>
</g>
<!-- SampleLog -->
<g id="node26" class="node">
<title>SampleLog</title>
<ellipse fill="khaki" stroke="black" cx="469.55" cy="-163" rx="64.89" ry="18"/>
<text text-anchor="middle" x="469.55" y="-158.32" font-family="Helvetica,sans-Serif" font-size="14.00">SampleLog</text>
</g>
<!-- SampleLog&#45;&gt;CopyLogs -->
<g id="edge33" class="edge">
<title>SampleLog&#45;&gt;CopyLogs</title>
<path fill="none" stroke="black" d="M481.4,-145.17C487.19,-136.96 494.29,-126.87 500.79,-117.64"/>
<polygon fill="black" stroke="black" points="503.5,-119.88 506.4,-109.68 497.78,-115.85 503.5,-119.88"/>
</g>
<!-- PlotPeakByLogValue -->
<g id="node37" class="node">
<title>PlotPeakByLogValue</title>
<ellipse fill="lightgrey" stroke="black" cx="108.55" cy="-430.75" rx="108.55" ry="18"/>
<text text-anchor="middle" x="108.55" y="-426.07" font-family="Helvetica,sans-Serif" font-size="14.00">PlotPeakByLogValue</text>
</g>
<!-- ConvertSpectrumAxis&#45;&gt;PlotPeakByLogValue -->
<g id="edge8" class="edge">
<title>ConvertSpectrumAxis&#45;&gt;PlotPeakByLogValue</title>
<path fill="none" stroke="black" d="M108.55,-501.76C108.55,-489.93 108.55,-473.95 108.55,-460.25"/>
<polygon fill="black" stroke="black" points="112.05,-460.47 108.55,-450.47 105.05,-460.47 112.05,-460.47"/>
<text text-anchor="middle" x="164.8" y="-470.7" font-family="Helvetica,sans-Serif" font-size="14.00">InputWorkspace</text>
</g>
<!-- Fit&#45;&gt;ParameterTable -->
<g id="edge23" class="edge">
<title>Fit&#45;&gt;ParameterTable</title>
<path fill="none" stroke="black" d="M1295.55,-412.51C1295.55,-400.68 1295.55,-384.7 1295.55,-371"/>
<polygon fill="black" stroke="black" points="1299.05,-371.22 1295.55,-361.22 1292.05,-371.22 1299.05,-371.22"/>
</g>
<!-- Fit&#45;&gt;FitWorkspaces -->
<g id="edge24" class="edge">
<title>Fit&#45;&gt;FitWorkspaces</title>
<path fill="none" stroke="black" d="M1322.9,-422.39C1374.6,-408.46 1487.81,-377.98 1558.47,-358.95"/>
<polygon fill="black" stroke="black" points="1559.22,-362.37 1567.97,-356.39 1557.4,-355.61 1559.22,-362.37"/>
</g>
<!-- Fit&#45;&gt;NormalisedCovarianceWorkspace -->
<g id="edge22" class="edge">
<title>Fit&#45;&gt;NormalisedCovarianceWorkspace</title>
<path fill="none" stroke="black" d="M1268.14,-421.78C1222.06,-408.37 1127.79,-380.96 1063.14,-362.16"/>
<polygon fill="black" stroke="black" points="1064.27,-358.84 1053.69,-359.41 1062.31,-365.56 1064.27,-358.84"/>
</g>
<!-- ExtractQENSMembers -->
<g id="node30" class="node">
<title>ExtractQENSMembers</title>
<path fill="lightskyblue" stroke="black" d="M2080.43,-181C2080.43,-181 1934.68,-181 1934.68,-181 1928.68,-181 1922.68,-175 1922.68,-169 1922.68,-169 1922.68,-157 1922.68,-157 1922.68,-151 1928.68,-145 1934.68,-145 1934.68,-145 2080.43,-145 2080.43,-145 2086.43,-145 2092.43,-151 2092.43,-157 2092.43,-157 2092.43,-169 2092.43,-169 2092.43,-175 2086.43,-181 2080.43,-181"/>
<text text-anchor="middle" x="2007.55" y="-158.32" font-family="Helvetica,sans-Serif" font-size="14.00">ExtractQENSMembers</text>
</g>
<!-- ResultWorkspace -->
<g id="node39" class="node">
<title>ResultWorkspace</title>
<ellipse fill="lightgrey" stroke="black" cx="646.55" cy="-163" rx="94.35" ry="18"/>
<text text-anchor="middle" x="646.55" y="-158.32" font-family="Helvetica,sans-Serif" font-size="14.00">ResultWorkspace</text>
</g>
<!-- ProcessIndirectFitParameters&#45;&gt;ResultWorkspace -->
<g id="edge29" class="edge">
<title>ProcessIndirectFitParameters&#45;&gt;ResultWorkspace</title>
<path fill="none" stroke="black" d="M660.2,-234.01C657.89,-222.18 654.78,-206.2 652.11,-192.5"/>
<polygon fill="black" stroke="black" points="655.54,-191.83 650.2,-182.69 648.67,-193.17 655.54,-191.83"/>
</g>
<!-- CopyLogs&#45;&gt;OutputWorkspace -->
<g id="edge32" class="edge">
<title>CopyLogs&#45;&gt;OutputWorkspace</title>
<path fill="none" stroke="black" d="M519.55,-71.7C519.55,-64.41 519.55,-55.73 519.55,-47.54"/>
<polygon fill="black" stroke="black" points="523.05,-47.62 519.55,-37.62 516.05,-47.62 523.05,-47.62"/>
</g>
<!-- do_extract_members&#45;&gt;ExtractQENSMembers -->
<g id="edge40" class="edge">
<title>do_extract_members&#45;&gt;ExtractQENSMembers</title>
<path fill="none" stroke="black" d="M2007.55,-234.01C2007.55,-222.18 2007.55,-206.2 2007.55,-192.5"/>
<polygon fill="black" stroke="black" points="2011.05,-192.72 2007.55,-182.72 2004.05,-192.72 2011.05,-192.72"/>
<text text-anchor="middle" x="2018.8" y="-202.95" font-family="Helvetica,sans-Serif" font-size="14.00">Yes</text>
</g>
<!-- extract_members -->
<g id="node35" class="node">
<title>extract_members</title>
<polygon fill="lightseagreen" stroke="black" points="3502.55,-685.5 3288.55,-685.5 3288.55,-591.25 3502.55,-591.25 3502.55,-685.5"/>
<text text-anchor="middle" x="3395.55" y="-668.2" font-family="Helvetica,sans-Serif" font-size="14.00">extract_members</text>
<text text-anchor="middle" x="3395.55" y="-650.95" font-family="Helvetica,sans-Serif" font-size="14.00">Extracts the members of</text>
<text text-anchor="middle" x="3395.55" y="-633.7" font-family="Helvetica,sans-Serif" font-size="14.00">the convolution fit, into</text>
<text text-anchor="middle" x="3395.55" y="-616.45" font-family="Helvetica,sans-Serif" font-size="14.00"> their own workspace, which</text>
<text text-anchor="middle" x="3395.55" y="-599.2" font-family="Helvetica,sans-Serif" font-size="14.00"> are subsequently grouped.</text>
</g>
<!-- FitFunction&#45;&gt;Fit -->
<g id="edge10" class="edge">
<title>FitFunction&#45;&gt;Fit</title>
<path fill="none" stroke="black" d="M2193.52,-510.51C2175.67,-507.77 2155.77,-504.74 2137.55,-502 2031.38,-486.04 2005.37,-477.7 1898.55,-466.75 1686.22,-444.97 1430.34,-435.7 1334.39,-432.81"/>
<polygon fill="black" stroke="black" points="1334.58,-429.32 1324.48,-432.52 1334.37,-436.31 1334.58,-429.32"/>
</g>
<!-- FitType -->
<g id="node38" class="node">
<title>FitType</title>
<ellipse fill="lightgrey" stroke="black" cx="663.55" cy="-430.75" rx="44.37" ry="18"/>
<text text-anchor="middle" x="663.55" y="-426.07" font-family="Helvetica,sans-Serif" font-size="14.00">FitType</text>
</g>
<!-- FitType&#45;&gt;ParameterNames -->
<g id="edge26" class="edge">
<title>FitType&#45;&gt;ParameterNames</title>
<path fill="none" stroke="black" d="M663.55,-412.51C663.55,-400.68 663.55,-384.7 663.55,-371"/>
<polygon fill="black" stroke="black" points="667.05,-371.22 663.55,-361.22 660.05,-371.22 667.05,-371.22"/>
<text text-anchor="middle" x="809.05" y="-381.45" font-family="Helvetica,sans-Serif" font-size="14.00">Desired parameters obtained from FitType</text>
</g>
<!-- ResultWorkspace&#45;&gt;CopyLogs -->
<g id="edge31" class="edge">
<title>ResultWorkspace&#45;&gt;CopyLogs</title>
<path fill="none" stroke="black" d="M617.1,-145.53C600.28,-136.13 578.94,-124.2 560.51,-113.9"/>
<polygon fill="black" stroke="black" points="562.38,-110.93 551.94,-109.11 558.96,-117.04 562.38,-110.93"/>
</g>
<!-- FitWorkspace -->
<g id="node40" class="node">
<title>FitWorkspace</title>
<ellipse fill="lightgrey" stroke="black" cx="834.55" cy="-163" rx="75.41" ry="18"/>
<text text-anchor="middle" x="834.55" y="-158.32" font-family="Helvetica,sans-Serif" font-size="14.00">FitWorkspace</text>
</g>
<!-- FitWorkspace&#45;&gt;CopyLogs -->
<g id="edge34" class="edge">
<title>FitWorkspace&#45;&gt;CopyLogs</title>
<path fill="none" stroke="black" d="M781.12,-149.96C723.03,-136.86 630.76,-116.06 572.76,-102.99"/>
<polygon fill="black" stroke="black" points="573.64,-99.6 563.11,-100.82 572.1,-106.43 573.64,-99.6"/>
</g>
</g>
</svg>
