<?xml version="1.0" encoding="UTF-8" standalone="no"?>
<!DOCTYPE svg PUBLIC "-//W3C//DTD SVG 1.1//EN"
 "http://www.w3.org/Graphics/SVG/1.1/DTD/svg11.dtd">
<!-- Generated by graphviz version 11.0.0 (20240519.1550)
 -->
<!-- Title: QENSFitSequential Pages: 1 -->
<svg width="2164pt" height="719pt"
 viewBox="0.00 0.00 2164.36 718.75" xmlns="http://www.w3.org/2000/svg" xmlns:xlink="http://www.w3.org/1999/xlink">
<g id="graph0" class="graph" transform="scale(1 1) rotate(0) translate(4 714.75)">
<title>QENSFitSequential</title>
<polygon fill="white" stroke="none" points="-4,4 -4,-714.75 2160.36,-714.75 2160.36,4 -4,4"/>
<text text-anchor="middle" x="1078.18" y="-693.45" font-family="Helvetica,sans-Serif" font-size="14.00">QENSFitSequential Flowchart</text>
<!-- InputWorkspace -->
<g id="node1" class="node">
<title>InputWorkspace</title>
<ellipse fill="khaki" stroke="black" cx="1834.36" cy="-638.38" rx="90.14" ry="18"/>
<text text-anchor="middle" x="1834.36" y="-633.7" font-family="Helvetica,sans-Serif" font-size="14.00">InputWorkspace</text>
</g>
<!-- ConvertSpectrumAxis -->
<g id="node25" class="node">
<title>ConvertSpectrumAxis</title>
<path fill="lightskyblue" stroke="black" d="M1246.11,-538C1246.11,-538 1102.61,-538 1102.61,-538 1096.61,-538 1090.61,-532 1090.61,-526 1090.61,-526 1090.61,-514 1090.61,-514 1090.61,-508 1096.61,-502 1102.61,-502 1102.61,-502 1246.11,-502 1246.11,-502 1252.11,-502 1258.11,-508 1258.11,-514 1258.11,-514 1258.11,-526 1258.11,-526 1258.11,-532 1252.11,-538 1246.11,-538"/>
<text text-anchor="middle" x="1174.36" y="-515.33" font-family="Helvetica,sans-Serif" font-size="14.00">ConvertSpectrumAxis</text>
</g>
<!-- InputWorkspace&#45;&gt;ConvertSpectrumAxis -->
<g id="edge7" class="edge">
<title>InputWorkspace&#45;&gt;ConvertSpectrumAxis</title>
<path fill="none" stroke="black" d="M1774.92,-624.45C1693.92,-607.16 1544.18,-576.32 1415.36,-556 1353.36,-546.22 1334.8,-547.76 1269.78,-538.29"/>
<polygon fill="black" stroke="black" points="1270.37,-534.84 1259.97,-536.83 1269.34,-541.77 1270.37,-534.84"/>
<text text-anchor="middle" x="1616.86" y="-559.95" font-family="Helvetica,sans-Serif" font-size="14.00">Attempt conversion to Elastic Q</text>
</g>
<!-- CopyLogs -->
<g id="node30" class="node">
<title>CopyLogs</title>
<path fill="lightskyblue" stroke="black" d="M1855.11,-108C1855.11,-108 1795.61,-108 1795.61,-108 1789.61,-108 1783.61,-102 1783.61,-96 1783.61,-96 1783.61,-84 1783.61,-84 1783.61,-78 1789.61,-72 1795.61,-72 1795.61,-72 1855.11,-72 1855.11,-72 1861.11,-72 1867.11,-78 1867.11,-84 1867.11,-84 1867.11,-96 1867.11,-96 1867.11,-102 1861.11,-108 1855.11,-108"/>
<text text-anchor="middle" x="1825.36" y="-85.33" font-family="Helvetica,sans-Serif" font-size="14.00">CopyLogs</text>
</g>
<!-- InputWorkspace&#45;&gt;CopyLogs -->
<g id="edge29" class="edge">
<title>InputWorkspace&#45;&gt;CopyLogs</title>
<path fill="none" stroke="black" d="M1870.62,-621.5C1921.35,-598.12 2007.36,-553.67 2007.36,-521 2007.36,-521 2007.36,-521 2007.36,-178.25 2007.36,-120.79 1932.69,-101.15 1879.01,-94.44"/>
<polygon fill="black" stroke="black" points="1879.4,-90.97 1869.07,-93.34 1878.62,-97.92 1879.4,-90.97"/>
</g>
<!-- do_extract_members -->
<g id="node32" class="node">
<title>do_extract_members</title>
<polygon fill="limegreen" stroke="black" points="1186.36,-197.25 1022.42,-179.25 1186.36,-161.25 1350.29,-179.25 1186.36,-197.25"/>
<text text-anchor="middle" x="1186.36" y="-174.57" font-family="Helvetica,sans-Serif" font-size="14.00">Do Extract Members?</text>
</g>
<!-- InputWorkspace&#45;&gt;do_extract_members -->
<g id="edge38" class="edge">
<title>InputWorkspace&#45;&gt;do_extract_members</title>
<path fill="none" stroke="black" d="M1864.37,-621.14C1883.62,-611.3 1909.41,-599.16 1933.36,-591.25 1971.27,-578.73 1996.11,-604.18 2021.36,-573.25 2041.67,-548.36 2014.88,-519.72 1988.36,-502 1956.56,-480.76 1677.16,-473.9 1648.36,-448.75 1592.27,-399.78 1653.93,-339.96 1600.36,-288.25 1553.17,-242.71 1374.13,-208.61 1267.57,-191.84"/>
<polygon fill="black" stroke="black" points="1268.13,-188.38 1257.72,-190.31 1267.06,-195.3 1268.13,-188.38"/>
</g>
<!-- FitFunction -->
<g id="node34" class="node">
<title>FitFunction</title>
<ellipse fill="lightgrey" stroke="black" cx="907.36" cy="-520" rx="63.83" ry="18"/>
<text text-anchor="middle" x="907.36" y="-515.33" font-family="Helvetica,sans-Serif" font-size="14.00">FitFunction</text>
</g>
<!-- InputWorkspace&#45;&gt;FitFunction -->
<g id="edge1" class="edge">
<title>InputWorkspace&#45;&gt;FitFunction</title>
<path fill="none" stroke="black" d="M1760.51,-627.71C1637.72,-611.79 1383.74,-579.47 1168.36,-556 1084.91,-546.91 1063.19,-551.55 980.36,-538 975.17,-537.15 969.81,-536.15 964.45,-535.06"/>
<polygon fill="black" stroke="black" points="965.5,-531.71 954.99,-533.04 964.04,-538.55 965.5,-531.71"/>
</g>
<!-- Input -->
<g id="node2" class="node">
<title>Input</title>
<ellipse fill="khaki" stroke="black" cx="746.36" cy="-638.38" rx="37" ry="18"/>
<text text-anchor="middle" x="746.36" y="-633.7" font-family="Helvetica,sans-Serif" font-size="14.00">Input</text>
</g>
<!-- PlotPeakByLogValue -->
<g id="node26" class="node">
<title>PlotPeakByLogValue</title>
<path fill="lightskyblue" stroke="black" d="M1065.73,-448.75C1065.73,-448.75 934.98,-448.75 934.98,-448.75 928.98,-448.75 922.98,-442.75 922.98,-436.75 922.98,-436.75 922.98,-424.75 922.98,-424.75 922.98,-418.75 928.98,-412.75 934.98,-412.75 934.98,-412.75 1065.73,-412.75 1065.73,-412.75 1071.73,-412.75 1077.73,-418.75 1077.73,-424.75 1077.73,-424.75 1077.73,-436.75 1077.73,-436.75 1077.73,-442.75 1071.73,-448.75 1065.73,-448.75"/>
<text text-anchor="middle" x="1000.36" y="-426.07" font-family="Helvetica,sans-Serif" font-size="14.00">PlotPeakByLogValue</text>
</g>
<!-- Input&#45;&gt;PlotPeakByLogValue -->
<g id="edge9" class="edge">
<title>Input&#45;&gt;PlotPeakByLogValue</title>
<path fill="none" stroke="black" d="M761.58,-621.89C770.49,-612.89 781.99,-601.35 792.36,-591.25 800.69,-583.13 805.09,-583.05 811.36,-573.25 829.35,-545.09 812.66,-526.53 835.36,-502 856.36,-479.3 885.89,-463.65 914.19,-452.98"/>
<polygon fill="black" stroke="black" points="915.28,-456.3 923.52,-449.64 912.93,-449.71 915.28,-456.3"/>
</g>
<!-- Input&#45;&gt;FitFunction -->
<g id="edge2" class="edge">
<title>Input&#45;&gt;FitFunction</title>
<path fill="none" stroke="black" d="M760.43,-621.47C769.13,-612.1 780.81,-600.35 792.36,-591.25 816.2,-572.45 845.43,-554.66 868.45,-541.68"/>
<polygon fill="black" stroke="black" points="869.86,-544.9 876.91,-536.98 866.46,-538.78 869.86,-544.9"/>
</g>
<!-- FitParameters -->
<g id="node3" class="node">
<title>FitParameters</title>
<ellipse fill="khaki" stroke="black" cx="879.36" cy="-638.38" rx="77.51" ry="18"/>
<text text-anchor="middle" x="879.36" y="-633.7" font-family="Helvetica,sans-Serif" font-size="14.00">FitParameters</text>
</g>
<!-- FitParameters&#45;&gt;FitFunction -->
<g id="edge4" class="edge">
<title>FitParameters&#45;&gt;FitFunction</title>
<path fill="none" stroke="black" d="M883.55,-619.95C888.05,-601.25 895.27,-571.25 900.58,-549.18"/>
<polygon fill="black" stroke="black" points="903.94,-550.17 902.87,-539.63 897.13,-548.54 903.94,-550.17"/>
</g>
<!-- Function -->
<g id="node4" class="node">
<title>Function</title>
<ellipse fill="khaki" stroke="black" cx="1027.36" cy="-638.38" rx="52.79" ry="18"/>
<text text-anchor="middle" x="1027.36" y="-633.7" font-family="Helvetica,sans-Serif" font-size="14.00">Function</text>
</g>
<!-- Function&#45;&gt;FitFunction -->
<g id="edge3" class="edge">
<title>Function&#45;&gt;FitFunction</title>
<path fill="none" stroke="black" d="M1010.42,-620.95C990.16,-601.31 956.07,-568.25 932.69,-545.56"/>
<polygon fill="black" stroke="black" points="935.3,-543.22 925.68,-538.77 930.43,-548.25 935.3,-543.22"/>
</g>
<!-- StartX -->
<g id="node5" class="node">
<title>StartX</title>
<ellipse fill="khaki" stroke="black" cx="1031.36" cy="-520" rx="41.74" ry="18"/>
<text text-anchor="middle" x="1031.36" y="-515.33" font-family="Helvetica,sans-Serif" font-size="14.00">StartX</text>
</g>
<!-- StartX&#45;&gt;PlotPeakByLogValue -->
<g id="edge11" class="edge">
<title>StartX&#45;&gt;PlotPeakByLogValue</title>
<path fill="none" stroke="black" d="M1025.23,-501.76C1020.94,-489.69 1015.12,-473.31 1010.19,-459.42"/>
<polygon fill="black" stroke="black" points="1013.62,-458.63 1006.98,-450.38 1007.03,-460.97 1013.62,-458.63"/>
</g>
<!-- EndX -->
<g id="node6" class="node">
<title>EndX</title>
<ellipse fill="khaki" stroke="black" cx="1313.36" cy="-520" rx="37" ry="18"/>
<text text-anchor="middle" x="1313.36" y="-515.33" font-family="Helvetica,sans-Serif" font-size="14.00">EndX</text>
</g>
<!-- EndX&#45;&gt;PlotPeakByLogValue -->
<g id="edge12" class="edge">
<title>EndX&#45;&gt;PlotPeakByLogValue</title>
<path fill="none" stroke="black" d="M1292.7,-504.73C1274.29,-492.71 1246.18,-476.02 1219.36,-466.75 1177.86,-452.4 1129.88,-443.89 1089.43,-438.87"/>
<polygon fill="black" stroke="black" points="1090.07,-435.42 1079.73,-437.72 1089.25,-442.37 1090.07,-435.42"/>
</g>
<!-- SpecMin -->
<g id="node7" class="node">
<title>SpecMin</title>
<ellipse fill="khaki" stroke="black" cx="1150.36" cy="-638.38" rx="52.26" ry="18"/>
<text text-anchor="middle" x="1150.36" y="-633.7" font-family="Helvetica,sans-Serif" font-size="14.00">SpecMin</text>
</g>
<!-- SpecMin&#45;&gt;FitFunction -->
<g id="edge5" class="edge">
<title>SpecMin&#45;&gt;FitFunction</title>
<path fill="none" stroke="black" d="M1131.8,-621.17C1120.17,-611.59 1104.55,-599.71 1089.36,-591.25 1048.15,-568.31 997.92,-549.54 960.67,-537.19"/>
<polygon fill="black" stroke="black" points="962.08,-533.97 951.49,-534.2 959.91,-540.62 962.08,-533.97"/>
</g>
<!-- SpecMax -->
<g id="node8" class="node">
<title>SpecMax</title>
<ellipse fill="khaki" stroke="black" cx="1275.36" cy="-638.38" rx="54.89" ry="18"/>
<text text-anchor="middle" x="1275.36" y="-633.7" font-family="Helvetica,sans-Serif" font-size="14.00">SpecMax</text>
</g>
<!-- SpecMax&#45;&gt;FitFunction -->
<g id="edge6" class="edge">
<title>SpecMax&#45;&gt;FitFunction</title>
<path fill="none" stroke="black" d="M1256.99,-621.09C1244.82,-611.11 1228.07,-598.83 1211.36,-591.25 1115.39,-547.76 1083,-561.78 980.36,-538 975.79,-536.94 971.07,-535.85 966.32,-534.74"/>
<polygon fill="black" stroke="black" points="967.27,-531.37 956.73,-532.51 965.68,-538.19 967.27,-531.37"/>
</g>
<!-- ConvolveMembers -->
<g id="node9" class="node">
<title>ConvolveMembers</title>
<ellipse fill="khaki" stroke="black" cx="1469.36" cy="-520" rx="101.19" ry="18"/>
<text text-anchor="middle" x="1469.36" y="-515.33" font-family="Helvetica,sans-Serif" font-size="14.00">ConvolveMembers</text>
</g>
<!-- ConvolveMembers&#45;&gt;PlotPeakByLogValue -->
<g id="edge13" class="edge">
<title>ConvolveMembers&#45;&gt;PlotPeakByLogValue</title>
<path fill="none" stroke="black" d="M1416.89,-504.16C1374.84,-492.69 1314.17,-477.07 1260.36,-466.75 1203.8,-455.91 1139.69,-447.24 1089.28,-441.24"/>
<polygon fill="black" stroke="black" points="1089.93,-437.79 1079.59,-440.1 1089.11,-444.74 1089.93,-437.79"/>
</g>
<!-- ExtractMembers -->
<g id="node10" class="node">
<title>ExtractMembers</title>
<ellipse fill="khaki" stroke="black" cx="561.36" cy="-252.25" rx="91.19" ry="18"/>
<text text-anchor="middle" x="561.36" y="-247.57" font-family="Helvetica,sans-Serif" font-size="14.00">ExtractMembers</text>
</g>
<!-- ExtractMembers&#45;&gt;do_extract_members -->
<g id="edge36" class="edge">
<title>ExtractMembers&#45;&gt;do_extract_members</title>
<path fill="none" stroke="black" d="M627.16,-239.43C638.54,-237.57 650.28,-235.76 661.36,-234.25 807.86,-214.28 978.27,-198.03 1084.24,-188.75"/>
<polygon fill="black" stroke="black" points="1084.39,-192.25 1094.05,-187.89 1083.79,-185.27 1084.39,-192.25"/>
</g>
<!-- PassWSIndexToFunction -->
<g id="node11" class="node">
<title>PassWSIndexToFunction</title>
<ellipse fill="khaki" stroke="black" cx="1716.36" cy="-520" rx="127.49" ry="18"/>
<text text-anchor="middle" x="1716.36" y="-515.33" font-family="Helvetica,sans-Serif" font-size="14.00">PassWSIndexToFunction</text>
</g>
<!-- PassWSIndexToFunction&#45;&gt;PlotPeakByLogValue -->
<g id="edge19" class="edge">
<title>PassWSIndexToFunction&#45;&gt;PlotPeakByLogValue</title>
<path fill="none" stroke="black" d="M1630.75,-506.27C1554.41,-495.12 1439.56,-478.86 1339.36,-466.75 1254.64,-456.51 1157.79,-446.7 1089.36,-440.08"/>
<polygon fill="black" stroke="black" points="1089.99,-436.63 1079.71,-439.15 1089.32,-443.6 1089.99,-436.63"/>
</g>
<!-- Minimizer -->
<g id="node12" class="node">
<title>Minimizer</title>
<ellipse fill="khaki" stroke="black" cx="1920.36" cy="-520" rx="58.57" ry="18"/>
<text text-anchor="middle" x="1920.36" y="-515.33" font-family="Helvetica,sans-Serif" font-size="14.00">Minimizer</text>
</g>
<!-- Minimizer&#45;&gt;PlotPeakByLogValue -->
<g id="edge15" class="edge">
<title>Minimizer&#45;&gt;PlotPeakByLogValue</title>
<path fill="none" stroke="black" d="M1877.77,-507.29C1869.39,-505.29 1860.63,-503.41 1852.36,-502 1576.66,-455.2 1245.28,-439.24 1089.52,-434.07"/>
<polygon fill="black" stroke="black" points="1089.78,-430.58 1079.67,-433.75 1089.55,-437.57 1089.78,-430.58"/>
</g>
<!-- CostFunction -->
<g id="node13" class="node">
<title>CostFunction</title>
<ellipse fill="khaki" stroke="black" cx="74.36" cy="-520" rx="74.36" ry="18"/>
<text text-anchor="middle" x="74.36" y="-515.33" font-family="Helvetica,sans-Serif" font-size="14.00">CostFunction</text>
</g>
<!-- CostFunction&#45;&gt;PlotPeakByLogValue -->
<g id="edge16" class="edge">
<title>CostFunction&#45;&gt;PlotPeakByLogValue</title>
<path fill="none" stroke="black" d="M128.27,-507.33C137.93,-505.41 147.92,-503.55 157.36,-502 429.85,-457.13 756.88,-440.28 911.29,-434.49"/>
<polygon fill="black" stroke="black" points="911.18,-437.99 921.04,-434.13 910.92,-431 911.18,-437.99"/>
</g>
<!-- MaxIterations -->
<g id="node14" class="node">
<title>MaxIterations</title>
<ellipse fill="khaki" stroke="black" cx="244.36" cy="-520" rx="77.51" ry="18"/>
<text text-anchor="middle" x="244.36" y="-515.33" font-family="Helvetica,sans-Serif" font-size="14.00">MaxIterations</text>
</g>
<!-- MaxIterations&#45;&gt;PlotPeakByLogValue -->
<g id="edge14" class="edge">
<title>MaxIterations&#45;&gt;PlotPeakByLogValue</title>
<path fill="none" stroke="black" d="M300.71,-507.39C310.58,-505.5 320.75,-503.62 330.36,-502 441.43,-483.24 469.41,-479.28 581.36,-466.75 694.93,-454.04 826.29,-443.79 911.21,-437.74"/>
<polygon fill="black" stroke="black" points="911.38,-441.24 921.11,-437.04 910.89,-434.25 911.38,-441.24"/>
</g>
<!-- PeakRadius -->
<g id="node15" class="node">
<title>PeakRadius</title>
<ellipse fill="khaki" stroke="black" cx="407.36" cy="-520" rx="67.52" ry="18"/>
<text text-anchor="middle" x="407.36" y="-515.33" font-family="Helvetica,sans-Serif" font-size="14.00">PeakRadius</text>
</g>
<!-- PeakRadius&#45;&gt;PlotPeakByLogValue -->
<g id="edge17" class="edge">
<title>PeakRadius&#45;&gt;PlotPeakByLogValue</title>
<path fill="none" stroke="black" d="M457.39,-507.54C466.35,-505.6 475.62,-503.68 484.36,-502 579.45,-483.72 603.46,-480.18 699.36,-466.75 770.45,-456.79 851.27,-447.51 911.26,-441.01"/>
<polygon fill="black" stroke="black" points="911.51,-444.5 921.08,-439.95 910.76,-437.54 911.51,-444.5"/>
</g>
<!-- EvaluationType -->
<g id="node16" class="node">
<title>EvaluationType</title>
<ellipse fill="khaki" stroke="black" cx="577.36" cy="-520" rx="84.35" ry="18"/>
<text text-anchor="middle" x="577.36" y="-515.33" font-family="Helvetica,sans-Serif" font-size="14.00">EvaluationType</text>
</g>
<!-- EvaluationType&#45;&gt;PlotPeakByLogValue -->
<g id="edge20" class="edge">
<title>EvaluationType&#45;&gt;PlotPeakByLogValue</title>
<path fill="none" stroke="black" d="M625.44,-504.81C665.33,-493.41 723.68,-477.56 775.36,-466.75 819.93,-457.43 869.94,-449.41 911.48,-443.41"/>
<polygon fill="black" stroke="black" points="911.78,-446.9 921.18,-442.02 910.79,-439.97 911.78,-446.9"/>
</g>
<!-- LogValue -->
<g id="node17" class="node">
<title>LogValue</title>
<ellipse fill="khaki" stroke="black" cx="734.36" cy="-520" rx="54.89" ry="18"/>
<text text-anchor="middle" x="734.36" y="-515.33" font-family="Helvetica,sans-Serif" font-size="14.00">LogValue</text>
</g>
<!-- LogValue&#45;&gt;PlotPeakByLogValue -->
<g id="edge18" class="edge">
<title>LogValue&#45;&gt;PlotPeakByLogValue</title>
<path fill="none" stroke="black" d="M753.32,-502.82C768.16,-491.01 789.84,-475.59 811.36,-466.75 842.84,-453.82 879.23,-445.64 911.62,-440.48"/>
<polygon fill="black" stroke="black" points="912.04,-443.95 921.4,-439 910.99,-437.03 912.04,-443.95"/>
</g>
<!-- FitWorkspaces -->
<g id="node18" class="node">
<title>FitWorkspaces</title>
<ellipse fill="khaki" stroke="black" cx="1359.36" cy="-341.5" rx="80.67" ry="18"/>
<text text-anchor="middle" x="1359.36" y="-336.82" font-family="Helvetica,sans-Serif" font-size="14.00">FitWorkspaces</text>
</g>
<!-- RenameWorkspace -->
<g id="node31" class="node">
<title>RenameWorkspace</title>
<path fill="lightskyblue" stroke="black" d="M1248.36,-270.25C1248.36,-270.25 1124.36,-270.25 1124.36,-270.25 1118.36,-270.25 1112.36,-264.25 1112.36,-258.25 1112.36,-258.25 1112.36,-246.25 1112.36,-246.25 1112.36,-240.25 1118.36,-234.25 1124.36,-234.25 1124.36,-234.25 1248.36,-234.25 1248.36,-234.25 1254.36,-234.25 1260.36,-240.25 1260.36,-246.25 1260.36,-246.25 1260.36,-258.25 1260.36,-258.25 1260.36,-264.25 1254.36,-270.25 1248.36,-270.25"/>
<text text-anchor="middle" x="1186.36" y="-247.57" font-family="Helvetica,sans-Serif" font-size="14.00">RenameWorkspace</text>
</g>
<!-- FitWorkspaces&#45;&gt;RenameWorkspace -->
<g id="edge35" class="edge">
<title>FitWorkspaces&#45;&gt;RenameWorkspace</title>
<path fill="none" stroke="black" d="M1370.12,-323.25C1375.54,-312.13 1379.43,-298 1371.36,-288.25 1358.37,-272.57 1314.21,-263.86 1272.29,-259.06"/>
<polygon fill="black" stroke="black" points="1272.67,-255.58 1262.35,-257.99 1271.92,-262.54 1272.67,-255.58"/>
<text text-anchor="middle" x="1485.98" y="-292.2" font-family="Helvetica,sans-Serif" font-size="14.00">Renames to match input names</text>
</g>
<!-- NormalisedCovarianceWorkspace -->
<g id="node19" class="node">
<title>NormalisedCovarianceWorkspace</title>
<ellipse fill="khaki" stroke="black" cx="738.36" cy="-341.5" rx="173.27" ry="18"/>
<text text-anchor="middle" x="738.36" y="-336.82" font-family="Helvetica,sans-Serif" font-size="14.00">NormalisedCovarianceWorkspace</text>
</g>
<!-- DeleteWorkspace -->
<g id="node27" class="node">
<title>DeleteWorkspace</title>
<path fill="lightskyblue" stroke="black" d="M794.36,-270.25C794.36,-270.25 682.36,-270.25 682.36,-270.25 676.36,-270.25 670.36,-264.25 670.36,-258.25 670.36,-258.25 670.36,-246.25 670.36,-246.25 670.36,-240.25 676.36,-234.25 682.36,-234.25 682.36,-234.25 794.36,-234.25 794.36,-234.25 800.36,-234.25 806.36,-240.25 806.36,-246.25 806.36,-246.25 806.36,-258.25 806.36,-258.25 806.36,-264.25 800.36,-270.25 794.36,-270.25"/>
<text text-anchor="middle" x="738.36" y="-247.57" font-family="Helvetica,sans-Serif" font-size="14.00">DeleteWorkspace</text>
</g>
<!-- NormalisedCovarianceWorkspace&#45;&gt;DeleteWorkspace -->
<g id="edge24" class="edge">
<title>NormalisedCovarianceWorkspace&#45;&gt;DeleteWorkspace</title>
<path fill="none" stroke="black" d="M738.36,-323.26C738.36,-311.43 738.36,-295.45 738.36,-281.75"/>
<polygon fill="black" stroke="black" points="741.86,-281.97 738.36,-271.97 734.86,-281.97 741.86,-281.97"/>
<text text-anchor="middle" x="886.48" y="-292.2" font-family="Helvetica,sans-Serif" font-size="14.00">Unrequired product of PlotPeakByLogValue</text>
</g>
<!-- ParameterNames -->
<g id="node20" class="node">
<title>ParameterNames</title>
<ellipse fill="khaki" stroke="black" cx="1755.36" cy="-341.5" rx="94.88" ry="18"/>
<text text-anchor="middle" x="1755.36" y="-336.82" font-family="Helvetica,sans-Serif" font-size="14.00">ParameterNames</text>
</g>
<!-- ProcessIndirectFitParameters -->
<g id="node29" class="node">
<title>ProcessIndirectFitParameters</title>
<path fill="lightskyblue" stroke="black" d="M1859.11,-270.25C1859.11,-270.25 1667.61,-270.25 1667.61,-270.25 1661.61,-270.25 1655.61,-264.25 1655.61,-258.25 1655.61,-258.25 1655.61,-246.25 1655.61,-246.25 1655.61,-240.25 1661.61,-234.25 1667.61,-234.25 1667.61,-234.25 1859.11,-234.25 1859.11,-234.25 1865.11,-234.25 1871.11,-240.25 1871.11,-246.25 1871.11,-246.25 1871.11,-258.25 1871.11,-258.25 1871.11,-264.25 1865.11,-270.25 1859.11,-270.25"/>
<text text-anchor="middle" x="1763.36" y="-247.57" font-family="Helvetica,sans-Serif" font-size="14.00">ProcessIndirectFitParameters</text>
</g>
<!-- ParameterNames&#45;&gt;ProcessIndirectFitParameters -->
<g id="edge27" class="edge">
<title>ParameterNames&#45;&gt;ProcessIndirectFitParameters</title>
<path fill="none" stroke="black" d="M1756.94,-323.26C1758.02,-311.43 1759.49,-295.45 1760.74,-281.75"/>
<polygon fill="black" stroke="black" points="1764.21,-282.24 1761.64,-271.96 1757.24,-281.6 1764.21,-282.24"/>
</g>
<!-- OutputWorkspace -->
<g id="node21" class="node">
<title>OutputWorkspace</title>
<ellipse fill="khaki" stroke="black" cx="1825.36" cy="-18" rx="98.56" ry="18"/>
<text text-anchor="middle" x="1825.36" y="-13.32" font-family="Helvetica,sans-Serif" font-size="14.00">OutputWorkspace</text>
</g>
<!-- OutputParameterWorkspace -->
<g id="node22" class="node">
<title>OutputParameterWorkspace</title>
<ellipse fill="khaki" stroke="black" cx="1078.36" cy="-341.5" rx="148.54" ry="18"/>
<text text-anchor="middle" x="1078.36" y="-336.82" font-family="Helvetica,sans-Serif" font-size="14.00">OutputParameterWorkspace</text>
</g>
<!-- OutputParameterWorkspace&#45;&gt;ProcessIndirectFitParameters -->
<g id="edge26" class="edge">
<title>OutputParameterWorkspace&#45;&gt;ProcessIndirectFitParameters</title>
<path fill="none" stroke="black" d="M1069.26,-323.28C1064.64,-311.89 1061.63,-297.43 1070.36,-288.25 1080.1,-278 1448.33,-263.96 1643.96,-257.2"/>
<polygon fill="black" stroke="black" points="1644.05,-260.7 1653.93,-256.86 1643.81,-253.7 1644.05,-260.7"/>
</g>
<!-- OutputParameterWorkspace&#45;&gt;RenameWorkspace -->
<g id="edge34" class="edge">
<title>OutputParameterWorkspace&#45;&gt;RenameWorkspace</title>
<path fill="none" stroke="black" d="M1074.96,-323.27C1073.79,-312.17 1074.3,-298.04 1081.86,-288.25 1087.28,-281.22 1094.17,-275.59 1101.82,-271.08"/>
<polygon fill="black" stroke="black" points="1103.2,-274.31 1110.51,-266.64 1100.02,-268.07 1103.2,-274.31"/>
<text text-anchor="middle" x="1226.11" y="-292.2" font-family="Helvetica,sans-Serif" font-size="14.00">Change name to expected name for table</text>
</g>
<!-- OutputWorkspaceGroup -->
<g id="node23" class="node">
<title>OutputWorkspaceGroup</title>
<ellipse fill="khaki" stroke="black" cx="1186.36" cy="-18" rx="128.02" ry="18"/>
<text text-anchor="middle" x="1186.36" y="-13.32" font-family="Helvetica,sans-Serif" font-size="14.00">OutputWorkspaceGroup</text>
</g>
<!-- SampleLog -->
<g id="node24" class="node">
<title>SampleLog</title>
<ellipse fill="khaki" stroke="black" cx="1746.36" cy="-179.25" rx="64.89" ry="18"/>
<text text-anchor="middle" x="1746.36" y="-174.57" font-family="Helvetica,sans-Serif" font-size="14.00">SampleLog</text>
</g>
<!-- SampleLog&#45;&gt;CopyLogs -->
<g id="edge32" class="edge">
<title>SampleLog&#45;&gt;CopyLogs</title>
<path fill="none" stroke="black" d="M1761.59,-161.43C1773.03,-148.8 1788.89,-131.27 1801.94,-116.86"/>
<polygon fill="black" stroke="black" points="1804.5,-119.25 1808.62,-109.49 1799.31,-114.55 1804.5,-119.25"/>
</g>
<!-- ConvertSpectrumAxis&#45;&gt;PlotPeakByLogValue -->
<g id="edge8" class="edge">
<title>ConvertSpectrumAxis&#45;&gt;PlotPeakByLogValue</title>
<path fill="none" stroke="black" d="M1139.56,-501.55C1112.42,-487.94 1074.51,-468.93 1045.1,-454.19"/>
<polygon fill="black" stroke="black" points="1046.95,-451.2 1036.44,-449.84 1043.81,-457.46 1046.95,-451.2"/>
<text text-anchor="middle" x="1158.61" y="-470.7" font-family="Helvetica,sans-Serif" font-size="14.00">InputWorkspace</text>
</g>
<!-- PlotPeakByLogValue&#45;&gt;FitWorkspaces -->
<g id="edge23" class="edge">
<title>PlotPeakByLogValue&#45;&gt;FitWorkspaces</title>
<path fill="none" stroke="black" d="M1072.14,-412.3C1137.29,-396.47 1232.48,-373.34 1295.15,-358.1"/>
<polygon fill="black" stroke="black" points="1295.72,-361.57 1304.61,-355.81 1294.06,-354.77 1295.72,-361.57"/>
</g>
<!-- PlotPeakByLogValue&#45;&gt;NormalisedCovarianceWorkspace -->
<g id="edge21" class="edge">
<title>PlotPeakByLogValue&#45;&gt;NormalisedCovarianceWorkspace</title>
<path fill="none" stroke="black" d="M947.97,-412.3C905.06,-398.02 844.3,-377.78 799.24,-362.78"/>
<polygon fill="black" stroke="black" points="800.46,-359.49 789.87,-359.65 798.25,-366.13 800.46,-359.49"/>
</g>
<!-- PlotPeakByLogValue&#45;&gt;OutputParameterWorkspace -->
<g id="edge22" class="edge">
<title>PlotPeakByLogValue&#45;&gt;OutputParameterWorkspace</title>
<path fill="none" stroke="black" d="M1015.77,-412.51C1027.09,-399.85 1042.67,-382.42 1055.45,-368.13"/>
<polygon fill="black" stroke="black" points="1057.91,-370.62 1061.97,-360.83 1052.7,-365.95 1057.91,-370.62"/>
</g>
<!-- ExtractQENSMembers -->
<g id="node28" class="node">
<title>ExtractQENSMembers</title>
<path fill="lightskyblue" stroke="black" d="M1259.23,-108C1259.23,-108 1113.48,-108 1113.48,-108 1107.48,-108 1101.48,-102 1101.48,-96 1101.48,-96 1101.48,-84 1101.48,-84 1101.48,-78 1107.48,-72 1113.48,-72 1113.48,-72 1259.23,-72 1259.23,-72 1265.23,-72 1271.23,-78 1271.23,-84 1271.23,-84 1271.23,-96 1271.23,-96 1271.23,-102 1265.23,-108 1259.23,-108"/>
<text text-anchor="middle" x="1186.36" y="-85.33" font-family="Helvetica,sans-Serif" font-size="14.00">ExtractQENSMembers</text>
</g>
<!-- ExtractQENSMembers&#45;&gt;OutputWorkspaceGroup -->
<g id="edge40" class="edge">
<title>ExtractQENSMembers&#45;&gt;OutputWorkspaceGroup</title>
<path fill="none" stroke="black" d="M1186.36,-71.7C1186.36,-64.41 1186.36,-55.73 1186.36,-47.54"/>
<polygon fill="black" stroke="black" points="1189.86,-47.62 1186.36,-37.62 1182.86,-47.62 1189.86,-47.62"/>
</g>
<!-- ResultWorkspace -->
<g id="node36" class="node">
<title>ResultWorkspace</title>
<ellipse fill="lightgrey" stroke="black" cx="1569.36" cy="-179.25" rx="94.35" ry="18"/>
<text text-anchor="middle" x="1569.36" y="-174.57" font-family="Helvetica,sans-Serif" font-size="14.00">ResultWorkspace</text>
</g>
<!-- ProcessIndirectFitParameters&#45;&gt;ResultWorkspace -->
<g id="edge28" class="edge">
<title>ProcessIndirectFitParameters&#45;&gt;ResultWorkspace</title>
<path fill="none" stroke="black" d="M1715.9,-233.88C1687.53,-223.5 1651.42,-210.28 1622.15,-199.57"/>
<polygon fill="black" stroke="black" points="1623.72,-196.42 1613.12,-196.27 1621.31,-202.99 1623.72,-196.42"/>
</g>
<!-- CopyLogs&#45;&gt;OutputWorkspace -->
<g id="edge31" class="edge">
<title>CopyLogs&#45;&gt;OutputWorkspace</title>
<path fill="none" stroke="black" d="M1825.36,-71.7C1825.36,-64.41 1825.36,-55.73 1825.36,-47.54"/>
<polygon fill="black" stroke="black" points="1828.86,-47.62 1825.36,-37.62 1821.86,-47.62 1828.86,-47.62"/>
</g>
<!-- RenameWorkspace&#45;&gt;do_extract_members -->
<g id="edge37" class="edge">
<title>RenameWorkspace&#45;&gt;do_extract_members</title>
<path fill="none" stroke="black" d="M1186.36,-234.06C1186.36,-226.48 1186.36,-217.35 1186.36,-208.79"/>
<polygon fill="black" stroke="black" points="1189.86,-208.79 1186.36,-198.79 1182.86,-208.79 1189.86,-208.79"/>
</g>
<!-- do_extract_members&#45;&gt;ExtractQENSMembers -->
<g id="edge39" class="edge">
<title>do_extract_members&#45;&gt;ExtractQENSMembers</title>
<path fill="none" stroke="black" d="M1186.36,-161.01C1186.36,-149.18 1186.36,-133.2 1186.36,-119.5"/>
<polygon fill="black" stroke="black" points="1189.86,-119.72 1186.36,-109.72 1182.86,-119.72 1189.86,-119.72"/>
<text text-anchor="middle" x="1197.61" y="-129.95" font-family="Helvetica,sans-Serif" font-size="14.00">Yes</text>
</g>
<!-- extract_members -->
<g id="node33" class="node">
<title>extract_members</title>
<polygon fill="lightseagreen" stroke="black" points="2156.36,-685.5 1942.36,-685.5 1942.36,-591.25 2156.36,-591.25 2156.36,-685.5"/>
<text text-anchor="middle" x="2049.36" y="-668.2" font-family="Helvetica,sans-Serif" font-size="14.00">ExtractQENSMembers:</text>
<text text-anchor="middle" x="2049.36" y="-650.95" font-family="Helvetica,sans-Serif" font-size="14.00">Extracts the members of</text>
<text text-anchor="middle" x="2049.36" y="-633.7" font-family="Helvetica,sans-Serif" font-size="14.00">the convolution fit, into</text>
<text text-anchor="middle" x="2049.36" y="-616.45" font-family="Helvetica,sans-Serif" font-size="14.00"> their own workspace, which</text>
<text text-anchor="middle" x="2049.36" y="-599.2" font-family="Helvetica,sans-Serif" font-size="14.00"> are subsequently grouped.</text>
</g>
<!-- FitFunction&#45;&gt;PlotPeakByLogValue -->
<g id="edge10" class="edge">
<title>FitFunction&#45;&gt;PlotPeakByLogValue</title>
<path fill="none" stroke="black" d="M924.85,-502.59C938.61,-489.68 958.02,-471.47 973.71,-456.75"/>
<polygon fill="black" stroke="black" points="975.99,-459.41 980.88,-450.02 971.2,-454.31 975.99,-459.41"/>
</g>
<!-- FitType -->
<g id="node35" class="node">
<title>FitType</title>
<ellipse fill="lightgrey" stroke="black" cx="1701.36" cy="-430.75" rx="44.37" ry="18"/>
<text text-anchor="middle" x="1701.36" y="-426.07" font-family="Helvetica,sans-Serif" font-size="14.00">FitType</text>
</g>
<!-- FitType&#45;&gt;ParameterNames -->
<g id="edge25" class="edge">
<title>FitType&#45;&gt;ParameterNames</title>
<path fill="none" stroke="black" d="M1697.83,-412.72C1696.5,-401.97 1696.49,-388.15 1702.36,-377.5 1704.79,-373.09 1708.03,-369.14 1711.73,-365.62"/>
<polygon fill="black" stroke="black" points="1713.65,-368.57 1719.23,-359.56 1709.25,-363.13 1713.65,-368.57"/>
<text text-anchor="middle" x="1847.86" y="-381.45" font-family="Helvetica,sans-Serif" font-size="14.00">Desired parameters obtained from FitType</text>
</g>
<!-- ResultWorkspace&#45;&gt;CopyLogs -->
<g id="edge30" class="edge">
<title>ResultWorkspace&#45;&gt;CopyLogs</title>
<path fill="none" stroke="black" d="M1593.35,-161.37C1610.79,-149.83 1635.35,-135.06 1658.86,-126 1695.35,-111.94 1738.62,-103.06 1771.91,-97.77"/>
<polygon fill="black" stroke="black" points="1772.39,-101.23 1781.74,-96.27 1771.33,-94.31 1772.39,-101.23"/>
<text text-anchor="middle" x="1716.11" y="-129.95" font-family="Helvetica,sans-Serif" font-size="14.00">Input workspace</text>
</g>
<!-- FitWorkspace -->
<g id="node37" class="node">
<title>FitWorkspace</title>
<ellipse fill="lightgrey" stroke="black" cx="1904.36" cy="-179.25" rx="75.41" ry="18"/>
<text text-anchor="middle" x="1904.36" y="-174.57" font-family="Helvetica,sans-Serif" font-size="14.00">FitWorkspace</text>
</g>
<!-- FitWorkspace&#45;&gt;CopyLogs -->
<g id="edge33" class="edge">
<title>FitWorkspace&#45;&gt;CopyLogs</title>
<path fill="none" stroke="black" d="M1889.12,-161.43C1877.69,-148.8 1861.82,-131.27 1848.78,-116.86"/>
<polygon fill="black" stroke="black" points="1851.41,-114.55 1842.1,-109.49 1846.22,-119.25 1851.41,-114.55"/>
</g>
</g>
</svg>
