<?xml version="1.0" encoding="UTF-8" standalone="no"?>
<!DOCTYPE svg PUBLIC "-//W3C//DTD SVG 1.1//EN"
 "http://www.w3.org/Graphics/SVG/1.1/DTD/svg11.dtd">
<!-- Generated by graphviz version 9.0.0 (20231125.0833)
 -->
<!-- Title: QENSFitSimultaneous Pages: 1 -->
<svg width="3518pt" height="720pt"
 viewBox="0.00 0.00 3517.55 719.75" xmlns="http://www.w3.org/2000/svg" xmlns:xlink="http://www.w3.org/1999/xlink">
<g id="graph0" class="graph" transform="scale(1 1) rotate(0) translate(4 715.75)">
<title>QENSFitSimultaneous</title>
<polygon fill="white" stroke="none" points="-4,4 -4,-715.75 3513.55,-715.75 3513.55,4 -4,4"/>
<text text-anchor="middle" x="1754.78" y="-694.45" font-family="Helvetica,sans-Serif" font-size="14.00">QENSFitSimultaneous Flowchart</text>
<!-- InputWorkspace -->
<g id="node1" class="node">
<title>InputWorkspace</title>
<ellipse fill="khaki" stroke="black" cx="342.55" cy="-639.38" rx="90.14" ry="18"/>
<text text-anchor="middle" x="342.55" y="-634.7" font-family="Helvetica,sans-Serif" font-size="14.00">InputWorkspace</text>
</g>
<!-- ConvertSpectrumAxis -->
<g id="node27" class="node">
<title>ConvertSpectrumAxis</title>
<path fill="lightskyblue" stroke="black" d="M180.3,-539C180.3,-539 36.8,-539 36.8,-539 30.8,-539 24.8,-533 24.8,-527 24.8,-527 24.8,-515 24.8,-515 24.8,-509 30.8,-503 36.8,-503 36.8,-503 180.3,-503 180.3,-503 186.3,-503 192.3,-509 192.3,-515 192.3,-515 192.3,-527 192.3,-527 192.3,-533 186.3,-539 180.3,-539"/>
<text text-anchor="middle" x="108.55" y="-516.33" font-family="Helvetica,sans-Serif" font-size="14.00">ConvertSpectrumAxis</text>
</g>
<!-- InputWorkspace&#45;&gt;ConvertSpectrumAxis -->
<g id="edge7" class="edge">
<title>InputWorkspace&#45;&gt;ConvertSpectrumAxis</title>
<path fill="none" stroke="black" d="M270.8,-628.15C209.93,-617.84 129.41,-599.8 109.55,-574.25 104.41,-567.63 102.85,-558.98 102.95,-550.62"/>
<polygon fill="black" stroke="black" points="106.43,-551.05 103.88,-540.76 99.46,-550.39 106.43,-551.05"/>
<text text-anchor="middle" x="219.05" y="-560.95" font-family="Helvetica,sans-Serif" font-size="14.00">Attempt conversion to Elastic Q</text>
</g>
<!-- Fit -->
<g id="node28" class="node">
<title>Fit</title>
<path fill="lightskyblue" stroke="black" d="M1320.55,-449.75C1320.55,-449.75 1290.55,-449.75 1290.55,-449.75 1284.55,-449.75 1278.55,-443.75 1278.55,-437.75 1278.55,-437.75 1278.55,-425.75 1278.55,-425.75 1278.55,-419.75 1284.55,-413.75 1290.55,-413.75 1290.55,-413.75 1320.55,-413.75 1320.55,-413.75 1326.55,-413.75 1332.55,-419.75 1332.55,-425.75 1332.55,-425.75 1332.55,-437.75 1332.55,-437.75 1332.55,-443.75 1326.55,-449.75 1320.55,-449.75"/>
<text text-anchor="middle" x="1305.55" y="-427.07" font-family="Helvetica,sans-Serif" font-size="14.00">Fit</text>
</g>
<!-- InputWorkspace&#45;&gt;Fit -->
<g id="edge9" class="edge">
<title>InputWorkspace&#45;&gt;Fit</title>
<path fill="none" stroke="black" d="M344.11,-621.09C347.82,-591.26 360.08,-530.65 399.55,-503 464.18,-457.73 495.25,-477.5 573.55,-467.75 709.61,-450.82 1135.39,-437.59 1266.64,-433.83"/>
<polygon fill="black" stroke="black" points="1266.65,-437.33 1276.54,-433.55 1266.45,-430.33 1266.65,-437.33"/>
</g>
<!-- CopyLogs -->
<g id="node32" class="node">
<title>CopyLogs</title>
<path fill="lightskyblue" stroke="black" d="M563.3,-109C563.3,-109 503.8,-109 503.8,-109 497.8,-109 491.8,-103 491.8,-97 491.8,-97 491.8,-85 491.8,-85 491.8,-79 497.8,-73 503.8,-73 503.8,-73 563.3,-73 563.3,-73 569.3,-73 575.3,-79 575.3,-85 575.3,-85 575.3,-97 575.3,-97 575.3,-103 569.3,-109 563.3,-109"/>
<text text-anchor="middle" x="533.55" y="-86.33" font-family="Helvetica,sans-Serif" font-size="14.00">CopyLogs</text>
</g>
<!-- InputWorkspace&#45;&gt;CopyLogs -->
<g id="edge30" class="edge">
<title>InputWorkspace&#45;&gt;CopyLogs</title>
<path fill="none" stroke="black" d="M351.95,-621.2C363.2,-598.99 380.55,-558.77 380.55,-522 380.55,-522 380.55,-522 380.55,-163 380.55,-117.88 435.98,-101.35 480.12,-95.34"/>
<polygon fill="black" stroke="black" points="480.32,-98.85 489.84,-94.18 479.49,-91.89 480.32,-98.85"/>
</g>
<!-- do_extract_members -->
<g id="node34" class="node">
<title>do_extract_members</title>
<polygon fill="limegreen" stroke="black" points="1997.55,-271.25 1833.62,-253.25 1997.55,-235.25 2161.49,-253.25 1997.55,-271.25"/>
<text text-anchor="middle" x="1997.55" y="-248.57" font-family="Helvetica,sans-Serif" font-size="14.00">Do Extract Members?</text>
</g>
<!-- InputWorkspace&#45;&gt;do_extract_members -->
<g id="edge39" class="edge">
<title>InputWorkspace&#45;&gt;do_extract_members</title>
<path fill="none" stroke="black" d="M432.38,-637.4C799.51,-632.83 2166.55,-609.9 2166.55,-522 2166.55,-522 2166.55,-522 2166.55,-341.5 2166.55,-299.28 2124.39,-277.47 2082.18,-266.21"/>
<polygon fill="black" stroke="black" points="2083.2,-262.86 2072.66,-263.87 2081.53,-269.65 2083.2,-262.86"/>
</g>
<!-- FitFunction -->
<g id="node36" class="node">
<title>FitFunction</title>
<ellipse fill="lightgrey" stroke="black" cx="2258.55" cy="-521" rx="63.83" ry="18"/>
<text text-anchor="middle" x="2258.55" y="-516.33" font-family="Helvetica,sans-Serif" font-size="14.00">FitFunction</text>
</g>
<!-- InputWorkspace&#45;&gt;FitFunction -->
<g id="edge1" class="edge">
<title>InputWorkspace&#45;&gt;FitFunction</title>
<path fill="none" stroke="black" d="M255.1,-634.78C165.88,-628.21 47.4,-609.61 99.55,-557 119.58,-536.8 2119.2,-541.28 2147.55,-539 2162.96,-537.76 2179.46,-535.66 2194.91,-533.35"/>
<polygon fill="black" stroke="black" points="2195.1,-536.86 2204.45,-531.87 2194.03,-529.94 2195.1,-536.86"/>
</g>
<!-- Input -->
<g id="node2" class="node">
<title>Input</title>
<ellipse fill="khaki" stroke="black" cx="2104.55" cy="-639.38" rx="37" ry="18"/>
<text text-anchor="middle" x="2104.55" y="-634.7" font-family="Helvetica,sans-Serif" font-size="14.00">Input</text>
</g>
<!-- Input&#45;&gt;FitFunction -->
<g id="edge2" class="edge">
<title>Input&#45;&gt;FitFunction</title>
<path fill="none" stroke="black" d="M2118.72,-622.59C2127.45,-613.26 2139.14,-601.51 2150.55,-592.25 2153.97,-589.48 2194.04,-563.54 2224.39,-543.98"/>
<polygon fill="black" stroke="black" points="2226.05,-547.07 2232.56,-538.71 2222.26,-541.18 2226.05,-547.07"/>
</g>
<!-- FitParameters -->
<g id="node3" class="node">
<title>FitParameters</title>
<ellipse fill="khaki" stroke="black" cx="2237.55" cy="-639.38" rx="77.51" ry="18"/>
<text text-anchor="middle" x="2237.55" y="-634.7" font-family="Helvetica,sans-Serif" font-size="14.00">FitParameters</text>
</g>
<!-- FitParameters&#45;&gt;FitFunction -->
<g id="edge4" class="edge">
<title>FitParameters&#45;&gt;FitFunction</title>
<path fill="none" stroke="black" d="M2240.7,-620.95C2244.06,-602.33 2249.44,-572.53 2253.41,-550.49"/>
<polygon fill="black" stroke="black" points="2256.86,-551.11 2255.19,-540.65 2249.97,-549.87 2256.86,-551.11"/>
</g>
<!-- Function -->
<g id="node4" class="node">
<title>Function</title>
<ellipse fill="khaki" stroke="black" cx="2385.55" cy="-639.38" rx="52.79" ry="18"/>
<text text-anchor="middle" x="2385.55" y="-634.7" font-family="Helvetica,sans-Serif" font-size="14.00">Function</text>
</g>
<!-- Function&#45;&gt;FitFunction -->
<g id="edge3" class="edge">
<title>Function&#45;&gt;FitFunction</title>
<path fill="none" stroke="black" d="M2367.9,-622.19C2346.31,-602.42 2309.6,-568.78 2284.73,-545.99"/>
<polygon fill="black" stroke="black" points="2287.33,-543.62 2277.59,-539.44 2282.6,-548.78 2287.33,-543.62"/>
</g>
<!-- StartX -->
<g id="node5" class="node">
<title>StartX</title>
<ellipse fill="khaki" stroke="black" cx="450.55" cy="-521" rx="41.74" ry="18"/>
<text text-anchor="middle" x="450.55" y="-516.33" font-family="Helvetica,sans-Serif" font-size="14.00">StartX</text>
</g>
<!-- StartX&#45;&gt;Fit -->
<g id="edge11" class="edge">
<title>StartX&#45;&gt;Fit</title>
<path fill="none" stroke="black" d="M481.92,-508.82C488.36,-506.73 495.14,-504.67 501.55,-503 582.12,-481.96 602.92,-477.95 685.55,-467.75 904.33,-440.74 1169.16,-434.55 1266.9,-433.15"/>
<polygon fill="black" stroke="black" points="1266.78,-436.65 1276.73,-433.02 1266.68,-429.65 1266.78,-436.65"/>
</g>
<!-- EndX -->
<g id="node6" class="node">
<title>EndX</title>
<ellipse fill="khaki" stroke="black" cx="547.55" cy="-521" rx="37" ry="18"/>
<text text-anchor="middle" x="547.55" y="-516.33" font-family="Helvetica,sans-Serif" font-size="14.00">EndX</text>
</g>
<!-- EndX&#45;&gt;Fit -->
<g id="edge12" class="edge">
<title>EndX&#45;&gt;Fit</title>
<path fill="none" stroke="black" d="M574.94,-508.59C580.98,-506.44 587.42,-504.42 593.55,-503 845.82,-444.76 1159.3,-434.79 1267.08,-433.09"/>
<polygon fill="black" stroke="black" points="1266.85,-436.6 1276.8,-432.96 1266.75,-429.6 1266.85,-436.6"/>
</g>
<!-- SpecMin -->
<g id="node7" class="node">
<title>SpecMin</title>
<ellipse fill="khaki" stroke="black" cx="2508.55" cy="-639.38" rx="52.26" ry="18"/>
<text text-anchor="middle" x="2508.55" y="-634.7" font-family="Helvetica,sans-Serif" font-size="14.00">SpecMin</text>
</g>
<!-- SpecMin&#45;&gt;FitFunction -->
<g id="edge5" class="edge">
<title>SpecMin&#45;&gt;FitFunction</title>
<path fill="none" stroke="black" d="M2490.03,-622.11C2478.42,-612.5 2462.8,-600.61 2447.55,-592.25 2404.49,-568.63 2351.86,-549.8 2313.08,-537.6"/>
<polygon fill="black" stroke="black" points="2314.56,-534.4 2303.98,-534.79 2312.5,-541.09 2314.56,-534.4"/>
</g>
<!-- SpecMax -->
<g id="node8" class="node">
<title>SpecMax</title>
<ellipse fill="khaki" stroke="black" cx="2633.55" cy="-639.38" rx="54.89" ry="18"/>
<text text-anchor="middle" x="2633.55" y="-634.7" font-family="Helvetica,sans-Serif" font-size="14.00">SpecMax</text>
</g>
<!-- SpecMax&#45;&gt;FitFunction -->
<g id="edge6" class="edge">
<title>SpecMax&#45;&gt;FitFunction</title>
<path fill="none" stroke="black" d="M2615.2,-622.07C2603.04,-612.07 2586.29,-599.79 2569.55,-592.25 2491.24,-556.96 2393.59,-538.64 2328.83,-529.69"/>
<polygon fill="black" stroke="black" points="2329.4,-526.23 2319.03,-528.37 2328.47,-533.17 2329.4,-526.23"/>
</g>
<!-- ConvolveMembers -->
<g id="node9" class="node">
<title>ConvolveMembers</title>
<ellipse fill="khaki" stroke="black" cx="703.55" cy="-521" rx="101.19" ry="18"/>
<text text-anchor="middle" x="703.55" y="-516.33" font-family="Helvetica,sans-Serif" font-size="14.00">ConvolveMembers</text>
</g>
<!-- ConvolveMembers&#45;&gt;Fit -->
<g id="edge13" class="edge">
<title>ConvolveMembers&#45;&gt;Fit</title>
<path fill="none" stroke="black" d="M778.17,-508.47C790.33,-506.62 802.79,-504.74 814.55,-503 982.82,-478.08 1183.75,-449.79 1266.75,-438.17"/>
<polygon fill="black" stroke="black" points="1267.21,-441.64 1276.63,-436.79 1266.24,-434.71 1267.21,-441.64"/>
</g>
<!-- ExtractMembers -->
<g id="node10" class="node">
<title>ExtractMembers</title>
<ellipse fill="khaki" stroke="black" cx="1997.55" cy="-342.5" rx="91.19" ry="18"/>
<text text-anchor="middle" x="1997.55" y="-337.82" font-family="Helvetica,sans-Serif" font-size="14.00">ExtractMembers</text>
</g>
<!-- ExtractMembers&#45;&gt;do_extract_members -->
<g id="edge37" class="edge">
<title>ExtractMembers&#45;&gt;do_extract_members</title>
<path fill="none" stroke="black" d="M1997.55,-324.26C1997.55,-312.51 1997.55,-296.66 1997.55,-283.02"/>
<polygon fill="black" stroke="black" points="2001.05,-283.26 1997.55,-273.26 1994.05,-283.26 2001.05,-283.26"/>
</g>
<!-- PassWSIndexToFunction -->
<g id="node11" class="node">
<title>PassWSIndexToFunction</title>
<ellipse fill="khaki" stroke="black" cx="950.55" cy="-521" rx="127.49" ry="18"/>
<text text-anchor="middle" x="950.55" y="-516.33" font-family="Helvetica,sans-Serif" font-size="14.00">PassWSIndexToFunction</text>
</g>
<!-- PassWSIndexToFunction&#45;&gt;Fit -->
<g id="edge19" class="edge">
<title>PassWSIndexToFunction&#45;&gt;Fit</title>
<path fill="none" stroke="black" d="M1011.99,-504.9C1085.44,-486.85 1206.12,-457.19 1267.35,-442.14"/>
<polygon fill="black" stroke="black" points="1268.08,-445.57 1276.95,-439.78 1266.4,-438.77 1268.08,-445.57"/>
</g>
<!-- Minimizer -->
<g id="node12" class="node">
<title>Minimizer</title>
<ellipse fill="khaki" stroke="black" cx="1154.55" cy="-521" rx="58.57" ry="18"/>
<text text-anchor="middle" x="1154.55" y="-516.33" font-family="Helvetica,sans-Serif" font-size="14.00">Minimizer</text>
</g>
<!-- Minimizer&#45;&gt;Fit -->
<g id="edge15" class="edge">
<title>Minimizer&#45;&gt;Fit</title>
<path fill="none" stroke="black" d="M1181.2,-504.6C1205.38,-490.63 1241.26,-469.9 1268.28,-454.29"/>
<polygon fill="black" stroke="black" points="1269.94,-457.37 1276.84,-449.34 1266.43,-451.31 1269.94,-457.37"/>
</g>
<!-- CostFunction -->
<g id="node13" class="node">
<title>CostFunction</title>
<ellipse fill="khaki" stroke="black" cx="1305.55" cy="-521" rx="74.36" ry="18"/>
<text text-anchor="middle" x="1305.55" y="-516.33" font-family="Helvetica,sans-Serif" font-size="14.00">CostFunction</text>
</g>
<!-- CostFunction&#45;&gt;Fit -->
<g id="edge16" class="edge">
<title>CostFunction&#45;&gt;Fit</title>
<path fill="none" stroke="black" d="M1305.55,-502.76C1305.55,-490.93 1305.55,-474.95 1305.55,-461.25"/>
<polygon fill="black" stroke="black" points="1309.05,-461.47 1305.55,-451.47 1302.05,-461.47 1309.05,-461.47"/>
</g>
<!-- MaxIterations -->
<g id="node14" class="node">
<title>MaxIterations</title>
<ellipse fill="khaki" stroke="black" cx="1475.55" cy="-521" rx="77.51" ry="18"/>
<text text-anchor="middle" x="1475.55" y="-516.33" font-family="Helvetica,sans-Serif" font-size="14.00">MaxIterations</text>
</g>
<!-- MaxIterations&#45;&gt;Fit -->
<g id="edge14" class="edge">
<title>MaxIterations&#45;&gt;Fit</title>
<path fill="none" stroke="black" d="M1444.77,-504.2C1416.14,-489.51 1373.44,-467.59 1342.88,-451.91"/>
<polygon fill="black" stroke="black" points="1344.86,-448.99 1334.37,-447.54 1341.67,-455.22 1344.86,-448.99"/>
</g>
<!-- PeakRadius -->
<g id="node15" class="node">
<title>PeakRadius</title>
<ellipse fill="khaki" stroke="black" cx="1638.55" cy="-521" rx="67.52" ry="18"/>
<text text-anchor="middle" x="1638.55" y="-516.33" font-family="Helvetica,sans-Serif" font-size="14.00">PeakRadius</text>
</g>
<!-- PeakRadius&#45;&gt;Fit -->
<g id="edge17" class="edge">
<title>PeakRadius&#45;&gt;Fit</title>
<path fill="none" stroke="black" d="M1591.55,-507.68C1525.19,-490.3 1405.31,-458.89 1343.97,-442.82"/>
<polygon fill="black" stroke="black" points="1344.89,-439.44 1334.33,-440.29 1343.12,-446.21 1344.89,-439.44"/>
</g>
<!-- EvaluationType -->
<g id="node16" class="node">
<title>EvaluationType</title>
<ellipse fill="khaki" stroke="black" cx="1808.55" cy="-521" rx="84.35" ry="18"/>
<text text-anchor="middle" x="1808.55" y="-516.33" font-family="Helvetica,sans-Serif" font-size="14.00">EvaluationType</text>
</g>
<!-- EvaluationType&#45;&gt;Fit -->
<g id="edge20" class="edge">
<title>EvaluationType&#45;&gt;Fit</title>
<path fill="none" stroke="black" d="M1746.29,-508.52C1736.02,-506.66 1725.49,-504.76 1715.55,-503 1579.15,-478.85 1416.96,-451.45 1344.22,-439.23"/>
<polygon fill="black" stroke="black" points="1344.86,-435.79 1334.41,-437.58 1343.7,-442.69 1344.86,-435.79"/>
</g>
<!-- Exclude -->
<g id="node17" class="node">
<title>Exclude</title>
<ellipse fill="khaki" stroke="black" cx="1960.55" cy="-521" rx="49.63" ry="18"/>
<text text-anchor="middle" x="1960.55" y="-516.33" font-family="Helvetica,sans-Serif" font-size="14.00">Exclude</text>
</g>
<!-- Exclude&#45;&gt;Fit -->
<g id="edge21" class="edge">
<title>Exclude&#45;&gt;Fit</title>
<path fill="none" stroke="black" d="M1923.96,-508.45C1916.59,-506.41 1908.87,-504.47 1901.55,-503 1693.67,-461.09 1439.58,-441.41 1344.18,-435.11"/>
<polygon fill="black" stroke="black" points="1344.55,-431.63 1334.34,-434.47 1344.09,-438.61 1344.55,-431.63"/>
</g>
<!-- LogValue -->
<g id="node18" class="node">
<title>LogValue</title>
<ellipse fill="khaki" stroke="black" cx="2083.55" cy="-521" rx="54.89" ry="18"/>
<text text-anchor="middle" x="2083.55" y="-516.33" font-family="Helvetica,sans-Serif" font-size="14.00">LogValue</text>
</g>
<!-- LogValue&#45;&gt;Fit -->
<g id="edge18" class="edge">
<title>LogValue&#45;&gt;Fit</title>
<path fill="none" stroke="black" d="M2043.11,-508.42C2035.33,-506.43 2027.22,-504.52 2019.55,-503 1764.89,-452.52 1451.59,-437.67 1343.96,-433.9"/>
<polygon fill="black" stroke="black" points="1344.37,-430.41 1334.25,-433.57 1344.13,-437.4 1344.37,-430.41"/>
</g>
<!-- ParameterTable -->
<g id="node19" class="node">
<title>ParameterTable</title>
<ellipse fill="khaki" stroke="black" cx="1305.55" cy="-342.5" rx="85.93" ry="18"/>
<text text-anchor="middle" x="1305.55" y="-337.82" font-family="Helvetica,sans-Serif" font-size="14.00">ParameterTable</text>
</g>
<!-- ProcessIndirectFitParameters -->
<g id="node31" class="node">
<title>ProcessIndirectFitParameters</title>
<path fill="lightskyblue" stroke="black" d="M812.3,-271.25C812.3,-271.25 620.8,-271.25 620.8,-271.25 614.8,-271.25 608.8,-265.25 608.8,-259.25 608.8,-259.25 608.8,-247.25 608.8,-247.25 608.8,-241.25 614.8,-235.25 620.8,-235.25 620.8,-235.25 812.3,-235.25 812.3,-235.25 818.3,-235.25 824.3,-241.25 824.3,-247.25 824.3,-247.25 824.3,-259.25 824.3,-259.25 824.3,-265.25 818.3,-271.25 812.3,-271.25"/>
<text text-anchor="middle" x="716.55" y="-248.57" font-family="Helvetica,sans-Serif" font-size="14.00">ProcessIndirectFitParameters</text>
</g>
<!-- ParameterTable&#45;&gt;ProcessIndirectFitParameters -->
<g id="edge27" class="edge">
<title>ParameterTable&#45;&gt;ProcessIndirectFitParameters</title>
<path fill="none" stroke="black" d="M1300.54,-324.25C1296.07,-312.23 1288.23,-297 1275.55,-289.25 1240.06,-267.55 943.06,-274.15 901.55,-271.25 880.32,-269.76 857.74,-267.91 835.92,-265.99"/>
<polygon fill="black" stroke="black" points="836.37,-262.51 826.09,-265.11 835.74,-269.49 836.37,-262.51"/>
</g>
<!-- RenameWorkspace -->
<g id="node33" class="node">
<title>RenameWorkspace</title>
<path fill="lightskyblue" stroke="black" d="M1540.55,-271.25C1540.55,-271.25 1416.55,-271.25 1416.55,-271.25 1410.55,-271.25 1404.55,-265.25 1404.55,-259.25 1404.55,-259.25 1404.55,-247.25 1404.55,-247.25 1404.55,-241.25 1410.55,-235.25 1416.55,-235.25 1416.55,-235.25 1540.55,-235.25 1540.55,-235.25 1546.55,-235.25 1552.55,-241.25 1552.55,-247.25 1552.55,-247.25 1552.55,-259.25 1552.55,-259.25 1552.55,-265.25 1546.55,-271.25 1540.55,-271.25"/>
<text text-anchor="middle" x="1478.55" y="-248.57" font-family="Helvetica,sans-Serif" font-size="14.00">RenameWorkspace</text>
</g>
<!-- ParameterTable&#45;&gt;RenameWorkspace -->
<g id="edge35" class="edge">
<title>ParameterTable&#45;&gt;RenameWorkspace</title>
<path fill="none" stroke="black" d="M1305.95,-324.13C1307.15,-312.67 1310.63,-298.19 1320.05,-289.25 1331.26,-278.63 1361.91,-270.69 1393.31,-265.08"/>
<polygon fill="black" stroke="black" points="1393.65,-268.57 1402.93,-263.44 1392.48,-261.67 1393.65,-268.57"/>
<text text-anchor="middle" x="1465.3" y="-293.2" font-family="Helvetica,sans-Serif" font-size="14.00">Change name to expected name for table</text>
</g>
<!-- FitWorkspaces -->
<g id="node20" class="node">
<title>FitWorkspaces</title>
<ellipse fill="khaki" stroke="black" cx="1635.55" cy="-342.5" rx="80.67" ry="18"/>
<text text-anchor="middle" x="1635.55" y="-337.82" font-family="Helvetica,sans-Serif" font-size="14.00">FitWorkspaces</text>
</g>
<!-- FitWorkspaces&#45;&gt;RenameWorkspace -->
<g id="edge36" class="edge">
<title>FitWorkspaces&#45;&gt;RenameWorkspace</title>
<path fill="none" stroke="black" d="M1632.39,-324.09C1629.42,-312.62 1623.83,-298.13 1613.55,-289.25 1599.6,-277.18 1582,-269.2 1564.15,-263.94"/>
<polygon fill="black" stroke="black" points="1565.06,-260.56 1554.5,-261.39 1563.27,-267.33 1565.06,-260.56"/>
<text text-anchor="middle" x="1737.18" y="-293.2" font-family="Helvetica,sans-Serif" font-size="14.00">Renames to match input names</text>
</g>
<!-- FitWorkspaces&#45;&gt;do_extract_members -->
<g id="edge38" class="edge">
<title>FitWorkspaces&#45;&gt;do_extract_members</title>
<path fill="none" stroke="black" d="M1705.78,-333.43C1748.35,-327.72 1803.55,-318.87 1851.55,-306.5 1886.69,-297.45 1925.3,-283.44 1953.98,-272.21"/>
<polygon fill="black" stroke="black" points="1955.05,-275.55 1963.06,-268.62 1952.47,-269.05 1955.05,-275.55"/>
</g>
<!-- NormalisedCovarianceWorkspace -->
<g id="node21" class="node">
<title>NormalisedCovarianceWorkspace</title>
<ellipse fill="khaki" stroke="black" cx="1011.55" cy="-342.5" rx="173.27" ry="18"/>
<text text-anchor="middle" x="1011.55" y="-337.82" font-family="Helvetica,sans-Serif" font-size="14.00">NormalisedCovarianceWorkspace</text>
</g>
<!-- DeleteWorkspace -->
<g id="node29" class="node">
<title>DeleteWorkspace</title>
<path fill="lightskyblue" stroke="black" d="M1034.55,-271.25C1034.55,-271.25 922.55,-271.25 922.55,-271.25 916.55,-271.25 910.55,-265.25 910.55,-259.25 910.55,-259.25 910.55,-247.25 910.55,-247.25 910.55,-241.25 916.55,-235.25 922.55,-235.25 922.55,-235.25 1034.55,-235.25 1034.55,-235.25 1040.55,-235.25 1046.55,-241.25 1046.55,-247.25 1046.55,-247.25 1046.55,-259.25 1046.55,-259.25 1046.55,-265.25 1040.55,-271.25 1034.55,-271.25"/>
<text text-anchor="middle" x="978.55" y="-248.57" font-family="Helvetica,sans-Serif" font-size="14.00">DeleteWorkspace</text>
</g>
<!-- NormalisedCovarianceWorkspace&#45;&gt;DeleteWorkspace -->
<g id="edge25" class="edge">
<title>NormalisedCovarianceWorkspace&#45;&gt;DeleteWorkspace</title>
<path fill="none" stroke="black" d="M1005.03,-324.26C1000.47,-312.19 994.27,-295.81 989.02,-281.92"/>
<polygon fill="black" stroke="black" points="992.41,-280.98 985.6,-272.87 985.86,-283.46 992.41,-280.98"/>
<text text-anchor="middle" x="1146.68" y="-293.2" font-family="Helvetica,sans-Serif" font-size="14.00">Unrequired product of PlotPeakByLogValue</text>
</g>
<!-- ParameterNames -->
<g id="node22" class="node">
<title>ParameterNames</title>
<ellipse fill="khaki" stroke="black" cx="716.55" cy="-342.5" rx="94.88" ry="18"/>
<text text-anchor="middle" x="716.55" y="-337.82" font-family="Helvetica,sans-Serif" font-size="14.00">ParameterNames</text>
</g>
<!-- ParameterNames&#45;&gt;ProcessIndirectFitParameters -->
<g id="edge28" class="edge">
<title>ParameterNames&#45;&gt;ProcessIndirectFitParameters</title>
<path fill="none" stroke="black" d="M716.55,-324.26C716.55,-312.43 716.55,-296.45 716.55,-282.75"/>
<polygon fill="black" stroke="black" points="720.05,-282.97 716.55,-272.97 713.05,-282.97 720.05,-282.97"/>
</g>
<!-- OutputWorkspace -->
<g id="node23" class="node">
<title>OutputWorkspace</title>
<ellipse fill="khaki" stroke="black" cx="533.55" cy="-18" rx="98.56" ry="18"/>
<text text-anchor="middle" x="533.55" y="-13.32" font-family="Helvetica,sans-Serif" font-size="14.00">OutputWorkspace</text>
</g>
<!-- OutputParameterWorkspace -->
<g id="node24" class="node">
<title>OutputParameterWorkspace</title>
<ellipse fill="khaki" stroke="black" cx="2854.55" cy="-639.38" rx="148.54" ry="18"/>
<text text-anchor="middle" x="2854.55" y="-634.7" font-family="Helvetica,sans-Serif" font-size="14.00">OutputParameterWorkspace</text>
</g>
<!-- OutputWorkspaceGroup -->
<g id="node25" class="node">
<title>OutputWorkspaceGroup</title>
<ellipse fill="khaki" stroke="black" cx="3149.55" cy="-639.38" rx="128.02" ry="18"/>
<text text-anchor="middle" x="3149.55" y="-634.7" font-family="Helvetica,sans-Serif" font-size="14.00">OutputWorkspaceGroup</text>
</g>
<!-- SampleLog -->
<g id="node26" class="node">
<title>SampleLog</title>
<ellipse fill="khaki" stroke="black" cx="483.55" cy="-164" rx="64.89" ry="18"/>
<text text-anchor="middle" x="483.55" y="-159.32" font-family="Helvetica,sans-Serif" font-size="14.00">SampleLog</text>
</g>
<!-- SampleLog&#45;&gt;CopyLogs -->
<g id="edge33" class="edge">
<title>SampleLog&#45;&gt;CopyLogs</title>
<path fill="none" stroke="black" d="M495.4,-146.17C501.19,-137.96 508.29,-127.87 514.79,-118.64"/>
<polygon fill="black" stroke="black" points="517.5,-120.88 520.4,-110.68 511.78,-116.85 517.5,-120.88"/>
</g>
<!-- PlotPeakByLogValue -->
<g id="node37" class="node">
<title>PlotPeakByLogValue</title>
<ellipse fill="lightgrey" stroke="black" cx="108.55" cy="-431.75" rx="108.55" ry="18"/>
<text text-anchor="middle" x="108.55" y="-427.07" font-family="Helvetica,sans-Serif" font-size="14.00">PlotPeakByLogValue</text>
</g>
<!-- ConvertSpectrumAxis&#45;&gt;PlotPeakByLogValue -->
<g id="edge8" class="edge">
<title>ConvertSpectrumAxis&#45;&gt;PlotPeakByLogValue</title>
<path fill="none" stroke="black" d="M108.55,-502.76C108.55,-490.93 108.55,-474.95 108.55,-461.25"/>
<polygon fill="black" stroke="black" points="112.05,-461.47 108.55,-451.47 105.05,-461.47 112.05,-461.47"/>
<text text-anchor="middle" x="164.8" y="-471.7" font-family="Helvetica,sans-Serif" font-size="14.00">InputWorkspace</text>
</g>
<!-- Fit&#45;&gt;ParameterTable -->
<g id="edge23" class="edge">
<title>Fit&#45;&gt;ParameterTable</title>
<path fill="none" stroke="black" d="M1305.55,-413.51C1305.55,-401.68 1305.55,-385.7 1305.55,-372"/>
<polygon fill="black" stroke="black" points="1309.05,-372.22 1305.55,-362.22 1302.05,-372.22 1309.05,-372.22"/>
</g>
<!-- Fit&#45;&gt;FitWorkspaces -->
<g id="edge24" class="edge">
<title>Fit&#45;&gt;FitWorkspaces</title>
<path fill="none" stroke="black" d="M1332.84,-423.54C1385.42,-409.63 1501.96,-378.82 1574.13,-359.74"/>
<polygon fill="black" stroke="black" points="1574.64,-363.23 1583.41,-357.29 1572.85,-356.46 1574.64,-363.23"/>
</g>
<!-- Fit&#45;&gt;NormalisedCovarianceWorkspace -->
<g id="edge22" class="edge">
<title>Fit&#45;&gt;NormalisedCovarianceWorkspace</title>
<path fill="none" stroke="black" d="M1278.16,-422.62C1232.81,-409.16 1140.91,-381.89 1077.79,-363.16"/>
<polygon fill="black" stroke="black" points="1079.18,-359.92 1068.6,-360.43 1077.19,-366.63 1079.18,-359.92"/>
</g>
<!-- ExtractQENSMembers -->
<g id="node30" class="node">
<title>ExtractQENSMembers</title>
<path fill="lightskyblue" stroke="black" d="M2070.43,-182C2070.43,-182 1924.68,-182 1924.68,-182 1918.68,-182 1912.68,-176 1912.68,-170 1912.68,-170 1912.68,-158 1912.68,-158 1912.68,-152 1918.68,-146 1924.68,-146 1924.68,-146 2070.43,-146 2070.43,-146 2076.43,-146 2082.43,-152 2082.43,-158 2082.43,-158 2082.43,-170 2082.43,-170 2082.43,-176 2076.43,-182 2070.43,-182"/>
<text text-anchor="middle" x="1997.55" y="-159.32" font-family="Helvetica,sans-Serif" font-size="14.00">ExtractQENSMembers</text>
</g>
<!-- ResultWorkspace -->
<g id="node39" class="node">
<title>ResultWorkspace</title>
<ellipse fill="lightgrey" stroke="black" cx="660.55" cy="-164" rx="94.35" ry="18"/>
<text text-anchor="middle" x="660.55" y="-159.32" font-family="Helvetica,sans-Serif" font-size="14.00">ResultWorkspace</text>
</g>
<!-- ProcessIndirectFitParameters&#45;&gt;ResultWorkspace -->
<g id="edge29" class="edge">
<title>ProcessIndirectFitParameters&#45;&gt;ResultWorkspace</title>
<path fill="none" stroke="black" d="M705.49,-235.01C697.59,-222.7 686.81,-205.91 677.79,-191.85"/>
<polygon fill="black" stroke="black" points="680.76,-190 672.41,-183.48 674.87,-193.78 680.76,-190"/>
</g>
<!-- CopyLogs&#45;&gt;OutputWorkspace -->
<g id="edge32" class="edge">
<title>CopyLogs&#45;&gt;OutputWorkspace</title>
<path fill="none" stroke="black" d="M533.55,-72.81C533.55,-65.23 533.55,-56.1 533.55,-47.54"/>
<polygon fill="black" stroke="black" points="537.05,-47.54 533.55,-37.54 530.05,-47.54 537.05,-47.54"/>
</g>
<!-- do_extract_members&#45;&gt;ExtractQENSMembers -->
<g id="edge40" class="edge">
<title>do_extract_members&#45;&gt;ExtractQENSMembers</title>
<path fill="none" stroke="black" d="M1997.55,-235.01C1997.55,-223.18 1997.55,-207.2 1997.55,-193.5"/>
<polygon fill="black" stroke="black" points="2001.05,-193.72 1997.55,-183.72 1994.05,-193.72 2001.05,-193.72"/>
<text text-anchor="middle" x="2008.8" y="-203.95" font-family="Helvetica,sans-Serif" font-size="14.00">Yes</text>
</g>
<!-- extract_members -->
<g id="node35" class="node">
<title>extract_members</title>
<polygon fill="lightseagreen" stroke="black" points="3509.55,-686.5 3295.55,-686.5 3295.55,-592.25 3509.55,-592.25 3509.55,-686.5"/>
<text text-anchor="middle" x="3402.55" y="-669.2" font-family="Helvetica,sans-Serif" font-size="14.00">extract_members</text>
<text text-anchor="middle" x="3402.55" y="-651.95" font-family="Helvetica,sans-Serif" font-size="14.00">Extracts the members of</text>
<text text-anchor="middle" x="3402.55" y="-634.7" font-family="Helvetica,sans-Serif" font-size="14.00">the convolution fit, into</text>
<text text-anchor="middle" x="3402.55" y="-617.45" font-family="Helvetica,sans-Serif" font-size="14.00"> their own workspace, which</text>
<text text-anchor="middle" x="3402.55" y="-600.2" font-family="Helvetica,sans-Serif" font-size="14.00"> are subsequently grouped.</text>
</g>
<!-- FitFunction&#45;&gt;Fit -->
<g id="edge10" class="edge">
<title>FitFunction&#45;&gt;Fit</title>
<path fill="none" stroke="black" d="M2203.83,-511.33C2185.91,-508.57 2165.9,-505.57 2147.55,-503 2024.21,-485.74 1993.55,-479.45 1869.55,-467.75 1672.56,-449.17 1435.88,-438.14 1344.33,-434.3"/>
<polygon fill="black" stroke="black" points="1344.54,-430.8 1334.41,-433.89 1344.25,-437.8 1344.54,-430.8"/>
</g>
<!-- FitType -->
<g id="node38" class="node">
<title>FitType</title>
<ellipse fill="lightgrey" stroke="black" cx="716.55" cy="-431.75" rx="44.37" ry="18"/>
<text text-anchor="middle" x="716.55" y="-427.07" font-family="Helvetica,sans-Serif" font-size="14.00">FitType</text>
</g>
<!-- FitType&#45;&gt;ParameterNames -->
<g id="edge26" class="edge">
<title>FitType&#45;&gt;ParameterNames</title>
<path fill="none" stroke="black" d="M716.55,-413.51C716.55,-401.68 716.55,-385.7 716.55,-372"/>
<polygon fill="black" stroke="black" points="720.05,-372.22 716.55,-362.22 713.05,-372.22 720.05,-372.22"/>
<text text-anchor="middle" x="862.05" y="-382.45" font-family="Helvetica,sans-Serif" font-size="14.00">Desired parameters obtained from FitType</text>
</g>
<!-- ResultWorkspace&#45;&gt;CopyLogs -->
<g id="edge31" class="edge">
<title>ResultWorkspace&#45;&gt;CopyLogs</title>
<path fill="none" stroke="black" d="M631.1,-146.53C614.28,-137.13 592.94,-125.2 574.51,-114.9"/>
<polygon fill="black" stroke="black" points="576.38,-111.93 565.94,-110.11 572.96,-118.04 576.38,-111.93"/>
</g>
<!-- FitWorkspace -->
<g id="node40" class="node">
<title>FitWorkspace</title>
<ellipse fill="lightgrey" stroke="black" cx="848.55" cy="-164" rx="75.41" ry="18"/>
<text text-anchor="middle" x="848.55" y="-159.32" font-family="Helvetica,sans-Serif" font-size="14.00">FitWorkspace</text>
</g>
<!-- FitWorkspace&#45;&gt;CopyLogs -->
<g id="edge34" class="edge">
<title>FitWorkspace&#45;&gt;CopyLogs</title>
<path fill="none" stroke="black" d="M795.12,-150.96C737.03,-137.86 644.76,-117.06 586.76,-103.99"/>
<polygon fill="black" stroke="black" points="587.64,-100.6 577.11,-101.82 586.1,-107.43 587.64,-100.6"/>
</g>
</g>
</svg>
