<?xml version="1.0" encoding="UTF-8" standalone="no"?>
<!DOCTYPE svg PUBLIC "-//W3C//DTD SVG 1.1//EN"
 "http://www.w3.org/Graphics/SVG/1.1/DTD/svg11.dtd">
<!-- Generated by graphviz version 7.1.0 (20230122.1345)
 -->
<!-- Title: QENSFitSimultaneous Pages: 1 -->
<svg width="3337pt" height="695pt"
 viewBox="0.00 0.00 3337.24 695.00" xmlns="http://www.w3.org/2000/svg" xmlns:xlink="http://www.w3.org/1999/xlink">
<g id="graph0" class="graph" transform="scale(1 1) rotate(0) translate(4 691)">
<title>QENSFitSimultaneous</title>
<polygon fill="white" stroke="none" points="-4,4 -4,-691 3333.24,-691 3333.24,4 -4,4"/>
<text text-anchor="middle" x="1664.62" y="-671.8" font-family="Helvetica,sans-Serif" font-size="14.00">QENSFitSimultaneous Flowchart</text>
<!-- InputWorkspace -->
<g id="node1" class="node">
<title>InputWorkspace</title>
<ellipse fill="khaki" stroke="black" cx="335.74" cy="-622.5" rx="83.69" ry="18"/>
<text text-anchor="middle" x="335.74" y="-618.8" font-family="Helvetica,sans-Serif" font-size="14.00">InputWorkspace</text>
</g>
<!-- ConvertSpectrumAxis -->
<g id="node27" class="node">
<title>ConvertSpectrumAxis</title>
<path fill="lightskyblue" stroke="black" d="M172.74,-530C172.74,-530 28.74,-530 28.74,-530 22.74,-530 16.74,-524 16.74,-518 16.74,-518 16.74,-506 16.74,-506 16.74,-500 22.74,-494 28.74,-494 28.74,-494 172.74,-494 172.74,-494 178.74,-494 184.74,-500 184.74,-506 184.74,-506 184.74,-518 184.74,-518 184.74,-524 178.74,-530 172.74,-530"/>
<text text-anchor="middle" x="100.74" y="-508.3" font-family="Helvetica,sans-Serif" font-size="14.00">ConvertSpectrumAxis</text>
</g>
<!-- InputWorkspace&#45;&gt;ConvertSpectrumAxis -->
<g id="edge7" class="edge">
<title>InputWorkspace&#45;&gt;ConvertSpectrumAxis</title>
<path fill="none" stroke="black" d="M263.47,-613.05C202.43,-604.26 121.84,-588.22 101.74,-563 96.93,-556.96 95.34,-549.08 95.31,-541.36"/>
<polygon fill="black" stroke="black" points="98.79,-541.81 96.14,-531.55 91.81,-541.22 98.79,-541.81"/>
<text text-anchor="middle" x="211.74" y="-551.8" font-family="Helvetica,sans-Serif" font-size="14.00">Attempt conversion to Elastic Q</text>
</g>
<!-- Fit -->
<g id="node28" class="node">
<title>Fit</title>
<path fill="lightskyblue" stroke="black" d="M1257.74,-443C1257.74,-443 1227.74,-443 1227.74,-443 1221.74,-443 1215.74,-437 1215.74,-431 1215.74,-431 1215.74,-419 1215.74,-419 1215.74,-413 1221.74,-407 1227.74,-407 1227.74,-407 1257.74,-407 1257.74,-407 1263.74,-407 1269.74,-413 1269.74,-419 1269.74,-419 1269.74,-431 1269.74,-431 1269.74,-437 1263.74,-443 1257.74,-443"/>
<text text-anchor="middle" x="1242.74" y="-421.3" font-family="Helvetica,sans-Serif" font-size="14.00">Fit</text>
</g>
<!-- InputWorkspace&#45;&gt;Fit -->
<g id="edge9" class="edge">
<title>InputWorkspace&#45;&gt;Fit</title>
<path fill="none" stroke="black" d="M337.82,-604.36C342.27,-576.01 355.54,-519.93 392.74,-494 459.99,-447.13 1047.1,-430.46 1204.21,-426.82"/>
<polygon fill="black" stroke="black" points="1204.17,-430.32 1214.09,-426.6 1204.01,-423.32 1204.17,-430.32"/>
</g>
<!-- CopyLogs -->
<g id="node32" class="node">
<title>CopyLogs</title>
<path fill="lightskyblue" stroke="black" d="M545.74,-109C545.74,-109 485.74,-109 485.74,-109 479.74,-109 473.74,-103 473.74,-97 473.74,-97 473.74,-85 473.74,-85 473.74,-79 479.74,-73 485.74,-73 485.74,-73 545.74,-73 545.74,-73 551.74,-73 557.74,-79 557.74,-85 557.74,-85 557.74,-97 557.74,-97 557.74,-103 551.74,-109 545.74,-109"/>
<text text-anchor="middle" x="515.74" y="-87.3" font-family="Helvetica,sans-Serif" font-size="14.00">CopyLogs</text>
</g>
<!-- InputWorkspace&#45;&gt;CopyLogs -->
<g id="edge30" class="edge">
<title>InputWorkspace&#45;&gt;CopyLogs</title>
<path fill="none" stroke="black" d="M345.73,-604.48C356.98,-583.64 373.74,-546.93 373.74,-513 373.74,-513 373.74,-513 373.74,-163 373.74,-121.9 421.93,-104.59 462.16,-97.3"/>
<polygon fill="black" stroke="black" points="462.72,-100.76 472.03,-95.7 461.6,-93.85 462.72,-100.76"/>
</g>
<!-- do_extract_members -->
<g id="node34" class="node">
<title>do_extract_members</title>
<polygon fill="limegreen" stroke="black" points="1900.74,-269 1748.08,-251 1900.74,-233 2053.4,-251 1900.74,-269"/>
<text text-anchor="middle" x="1900.74" y="-247.3" font-family="Helvetica,sans-Serif" font-size="14.00">Do Extract Members?</text>
</g>
<!-- InputWorkspace&#45;&gt;do_extract_members -->
<g id="edge39" class="edge">
<title>InputWorkspace&#45;&gt;do_extract_members</title>
<path fill="none" stroke="black" d="M419.22,-620.24C740.12,-614.96 1883.85,-591.94 2033.74,-530 2044.21,-525.67 2052.74,-524.33 2052.74,-513 2052.74,-513 2052.74,-513 2052.74,-337 2052.74,-297.62 2013.39,-276.31 1974.73,-264.87"/>
<polygon fill="black" stroke="black" points="1975.91,-261.57 1965.34,-262.3 1974.06,-268.32 1975.91,-261.57"/>
</g>
<!-- FitFunction -->
<g id="node36" class="node">
<title>FitFunction</title>
<ellipse fill="lightgrey" stroke="black" cx="2140.74" cy="-512" rx="59.59" ry="18"/>
<text text-anchor="middle" x="2140.74" y="-508.3" font-family="Helvetica,sans-Serif" font-size="14.00">FitFunction</text>
</g>
<!-- InputWorkspace&#45;&gt;FitFunction -->
<g id="edge1" class="edge">
<title>InputWorkspace&#45;&gt;FitFunction</title>
<path fill="none" stroke="black" d="M252.46,-620.14C163.01,-616 40.32,-600.91 92.74,-548 111.72,-528.85 2006.88,-532.25 2033.74,-530 2048.83,-528.74 2065,-526.59 2080.09,-524.24"/>
<polygon fill="black" stroke="black" points="2080.58,-527.7 2089.89,-522.65 2079.46,-520.79 2080.58,-527.7"/>
</g>
<!-- Input -->
<g id="node2" class="node">
<title>Input</title>
<ellipse fill="khaki" stroke="black" cx="1996.74" cy="-622.5" rx="34.39" ry="18"/>
<text text-anchor="middle" x="1996.74" y="-618.8" font-family="Helvetica,sans-Serif" font-size="14.00">Input</text>
</g>
<!-- Input&#45;&gt;FitFunction -->
<g id="edge2" class="edge">
<title>Input&#45;&gt;FitFunction</title>
<path fill="none" stroke="black" d="M2012.13,-606.3C2020.36,-598.44 2030.82,-588.87 2040.74,-581 2061.71,-564.37 2086.59,-547.44 2106.28,-534.64"/>
<polygon fill="black" stroke="black" points="2108,-537.7 2114.51,-529.34 2104.21,-531.81 2108,-537.7"/>
</g>
<!-- FitParameters -->
<g id="node3" class="node">
<title>FitParameters</title>
<ellipse fill="khaki" stroke="black" cx="2121.74" cy="-622.5" rx="72.29" ry="18"/>
<text text-anchor="middle" x="2121.74" y="-618.8" font-family="Helvetica,sans-Serif" font-size="14.00">FitParameters</text>
</g>
<!-- FitParameters&#45;&gt;FitFunction -->
<g id="edge4" class="edge">
<title>FitParameters&#45;&gt;FitFunction</title>
<path fill="none" stroke="black" d="M2124.79,-604.07C2127.74,-587.22 2132.26,-561.41 2135.74,-541.56"/>
<polygon fill="black" stroke="black" points="2139.16,-542.33 2137.43,-531.88 2132.26,-541.13 2139.16,-542.33"/>
</g>
<!-- Function -->
<g id="node4" class="node">
<title>Function</title>
<ellipse fill="khaki" stroke="black" cx="2261.74" cy="-622.5" rx="49.29" ry="18"/>
<text text-anchor="middle" x="2261.74" y="-618.8" font-family="Helvetica,sans-Serif" font-size="14.00">Function</text>
</g>
<!-- Function&#45;&gt;FitFunction -->
<g id="edge3" class="edge">
<title>Function&#45;&gt;FitFunction</title>
<path fill="none" stroke="black" d="M2243.89,-605.49C2223.72,-587.41 2190.68,-557.78 2167.44,-536.94"/>
<polygon fill="black" stroke="black" points="2169.97,-534.51 2160.19,-530.44 2165.3,-539.72 2169.97,-534.51"/>
</g>
<!-- StartX -->
<g id="node5" class="node">
<title>StartX</title>
<ellipse fill="khaki" stroke="black" cx="440.74" cy="-512" rx="38.99" ry="18"/>
<text text-anchor="middle" x="440.74" y="-508.3" font-family="Helvetica,sans-Serif" font-size="14.00">StartX</text>
</g>
<!-- StartX&#45;&gt;Fit -->
<g id="edge11" class="edge">
<title>StartX&#45;&gt;Fit</title>
<path fill="none" stroke="black" d="M470.22,-499.77C476.29,-497.68 482.68,-495.64 488.74,-494 564.3,-473.54 584.07,-470.71 661.74,-461 864.91,-435.61 1110.43,-428.49 1203.99,-426.62"/>
<polygon fill="black" stroke="black" points="1203.96,-430.12 1213.89,-426.43 1203.82,-423.12 1203.96,-430.12"/>
</g>
<!-- EndX -->
<g id="node6" class="node">
<title>EndX</title>
<ellipse fill="khaki" stroke="black" cx="531.74" cy="-512" rx="34.39" ry="18"/>
<text text-anchor="middle" x="531.74" y="-508.3" font-family="Helvetica,sans-Serif" font-size="14.00">EndX</text>
</g>
<!-- EndX&#45;&gt;Fit -->
<g id="edge12" class="edge">
<title>EndX&#45;&gt;Fit</title>
<path fill="none" stroke="black" d="M557.43,-499.76C563.35,-497.54 569.69,-495.45 575.74,-494 809.57,-437.98 1100.33,-428.09 1203.9,-426.36"/>
<polygon fill="black" stroke="black" points="1203.84,-429.86 1213.79,-426.21 1203.74,-422.86 1203.84,-429.86"/>
</g>
<!-- SpecMin -->
<g id="node7" class="node">
<title>SpecMin</title>
<ellipse fill="khaki" stroke="black" cx="2377.74" cy="-622.5" rx="48.99" ry="18"/>
<text text-anchor="middle" x="2377.74" y="-618.8" font-family="Helvetica,sans-Serif" font-size="14.00">SpecMin</text>
</g>
<!-- SpecMin&#45;&gt;FitFunction -->
<g id="edge5" class="edge">
<title>SpecMin&#45;&gt;FitFunction</title>
<path fill="none" stroke="black" d="M2357.86,-605.78C2347.01,-597.69 2333.1,-588.06 2319.74,-581 2278.72,-559.32 2229.23,-541.07 2192.69,-528.95"/>
<polygon fill="black" stroke="black" points="2193.82,-525.64 2183.23,-525.86 2191.65,-532.29 2193.82,-525.64"/>
</g>
<!-- SpecMax -->
<g id="node8" class="node">
<title>SpecMax</title>
<ellipse fill="khaki" stroke="black" cx="2495.74" cy="-622.5" rx="51.19" ry="18"/>
<text text-anchor="middle" x="2495.74" y="-618.8" font-family="Helvetica,sans-Serif" font-size="14.00">SpecMax</text>
</g>
<!-- SpecMax&#45;&gt;FitFunction -->
<g id="edge6" class="edge">
<title>SpecMax&#45;&gt;FitFunction</title>
<path fill="none" stroke="black" d="M2476,-605.46C2464.79,-597.07 2450.15,-587.26 2435.74,-581 2360.65,-548.35 2267.69,-530.25 2206.43,-521.09"/>
<polygon fill="black" stroke="black" points="2207.27,-517.68 2196.87,-519.7 2206.26,-524.6 2207.27,-517.68"/>
</g>
<!-- ConvolveMembers -->
<g id="node9" class="node">
<title>ConvolveMembers</title>
<ellipse fill="khaki" stroke="black" cx="678.74" cy="-512" rx="94.48" ry="18"/>
<text text-anchor="middle" x="678.74" y="-508.3" font-family="Helvetica,sans-Serif" font-size="14.00">ConvolveMembers</text>
</g>
<!-- ConvolveMembers&#45;&gt;Fit -->
<g id="edge13" class="edge">
<title>ConvolveMembers&#45;&gt;Fit</title>
<path fill="none" stroke="black" d="M748.37,-499.47C759.85,-497.61 771.62,-495.73 782.74,-494 938.85,-469.7 1125.11,-442.82 1204.19,-431.5"/>
<polygon fill="black" stroke="black" points="1204.6,-434.97 1214,-430.09 1203.61,-428.04 1204.6,-434.97"/>
</g>
<!-- ExtractMembers -->
<g id="node10" class="node">
<title>ExtractMembers</title>
<ellipse fill="khaki" stroke="black" cx="1900.74" cy="-338" rx="85.29" ry="18"/>
<text text-anchor="middle" x="1900.74" y="-334.3" font-family="Helvetica,sans-Serif" font-size="14.00">ExtractMembers</text>
</g>
<!-- ExtractMembers&#45;&gt;do_extract_members -->
<g id="edge37" class="edge">
<title>ExtractMembers&#45;&gt;do_extract_members</title>
<path fill="none" stroke="black" d="M1900.74,-319.8C1900.74,-308.58 1900.74,-293.67 1900.74,-280.69"/>
<polygon fill="black" stroke="black" points="1904.24,-280.98 1900.74,-270.98 1897.24,-280.98 1904.24,-280.98"/>
</g>
<!-- PassWSIndexToFunction -->
<g id="node11" class="node">
<title>PassWSIndexToFunction</title>
<ellipse fill="khaki" stroke="black" cx="909.74" cy="-512" rx="118.08" ry="18"/>
<text text-anchor="middle" x="909.74" y="-508.3" font-family="Helvetica,sans-Serif" font-size="14.00">PassWSIndexToFunction</text>
</g>
<!-- PassWSIndexToFunction&#45;&gt;Fit -->
<g id="edge19" class="edge">
<title>PassWSIndexToFunction&#45;&gt;Fit</title>
<path fill="none" stroke="black" d="M968.51,-496C1036.6,-478.62 1146.82,-450.48 1204.61,-435.73"/>
<polygon fill="black" stroke="black" points="1205.15,-439.21 1213.97,-433.34 1203.42,-432.42 1205.15,-439.21"/>
</g>
<!-- Minimizer -->
<g id="node12" class="node">
<title>Minimizer</title>
<ellipse fill="khaki" stroke="black" cx="1100.74" cy="-512" rx="54.69" ry="18"/>
<text text-anchor="middle" x="1100.74" y="-508.3" font-family="Helvetica,sans-Serif" font-size="14.00">Minimizer</text>
</g>
<!-- Minimizer&#45;&gt;Fit -->
<g id="edge15" class="edge">
<title>Minimizer&#45;&gt;Fit</title>
<path fill="none" stroke="black" d="M1126.13,-495.8C1148.38,-482.48 1181,-462.95 1206.09,-447.94"/>
<polygon fill="black" stroke="black" points="1207.56,-451.14 1214.34,-443 1203.96,-445.13 1207.56,-451.14"/>
</g>
<!-- CostFunction -->
<g id="node13" class="node">
<title>CostFunction</title>
<ellipse fill="khaki" stroke="black" cx="1242.74" cy="-512" rx="69.59" ry="18"/>
<text text-anchor="middle" x="1242.74" y="-508.3" font-family="Helvetica,sans-Serif" font-size="14.00">CostFunction</text>
</g>
<!-- CostFunction&#45;&gt;Fit -->
<g id="edge16" class="edge">
<title>CostFunction&#45;&gt;Fit</title>
<path fill="none" stroke="black" d="M1242.74,-493.8C1242.74,-482.58 1242.74,-467.67 1242.74,-454.69"/>
<polygon fill="black" stroke="black" points="1246.24,-454.98 1242.74,-444.98 1239.24,-454.98 1246.24,-454.98"/>
</g>
<!-- MaxIterations -->
<g id="node14" class="node">
<title>MaxIterations</title>
<ellipse fill="khaki" stroke="black" cx="1402.74" cy="-512" rx="72.29" ry="18"/>
<text text-anchor="middle" x="1402.74" y="-508.3" font-family="Helvetica,sans-Serif" font-size="14.00">MaxIterations</text>
</g>
<!-- MaxIterations&#45;&gt;Fit -->
<g id="edge14" class="edge">
<title>MaxIterations&#45;&gt;Fit</title>
<path fill="none" stroke="black" d="M1373.02,-495.21C1346.78,-481.27 1308.41,-460.89 1280.1,-445.85"/>
<polygon fill="black" stroke="black" points="1281.97,-442.88 1271.5,-441.28 1278.69,-449.06 1281.97,-442.88"/>
</g>
<!-- PeakRadius -->
<g id="node15" class="node">
<title>PeakRadius</title>
<ellipse fill="khaki" stroke="black" cx="1555.74" cy="-512" rx="63.09" ry="18"/>
<text text-anchor="middle" x="1555.74" y="-508.3" font-family="Helvetica,sans-Serif" font-size="14.00">PeakRadius</text>
</g>
<!-- PeakRadius&#45;&gt;Fit -->
<g id="edge17" class="edge">
<title>PeakRadius&#45;&gt;Fit</title>
<path fill="none" stroke="black" d="M1511.23,-498.91C1449.52,-482.15 1339.03,-452.15 1280.9,-436.36"/>
<polygon fill="black" stroke="black" points="1282.03,-433.04 1271.46,-433.8 1280.19,-439.8 1282.03,-433.04"/>
</g>
<!-- EvaluationType -->
<g id="node16" class="node">
<title>EvaluationType</title>
<ellipse fill="khaki" stroke="black" cx="1715.74" cy="-512" rx="78.79" ry="18"/>
<text text-anchor="middle" x="1715.74" y="-508.3" font-family="Helvetica,sans-Serif" font-size="14.00">EvaluationType</text>
</g>
<!-- EvaluationType&#45;&gt;Fit -->
<g id="edge20" class="edge">
<title>EvaluationType&#45;&gt;Fit</title>
<path fill="none" stroke="black" d="M1657.54,-499.62C1647.61,-497.72 1637.38,-495.78 1627.74,-494 1500.92,-470.55 1350.27,-444.45 1281.02,-432.55"/>
<polygon fill="black" stroke="black" points="1281.78,-429.13 1271.33,-430.89 1280.6,-436.03 1281.78,-429.13"/>
</g>
<!-- Exclude -->
<g id="node17" class="node">
<title>Exclude</title>
<ellipse fill="khaki" stroke="black" cx="1858.74" cy="-512" rx="46.29" ry="18"/>
<text text-anchor="middle" x="1858.74" y="-508.3" font-family="Helvetica,sans-Serif" font-size="14.00">Exclude</text>
</g>
<!-- Exclude&#45;&gt;Fit -->
<g id="edge21" class="edge">
<title>Exclude&#45;&gt;Fit</title>
<path fill="none" stroke="black" d="M1824.66,-499.43C1817.8,-497.39 1810.58,-495.46 1803.74,-494 1610.22,-452.71 1373.4,-434.27 1281.64,-428.31"/>
<polygon fill="black" stroke="black" points="1281.89,-424.82 1271.68,-427.67 1281.44,-431.8 1281.89,-424.82"/>
</g>
<!-- LogValue -->
<g id="node18" class="node">
<title>LogValue</title>
<ellipse fill="khaki" stroke="black" cx="1973.74" cy="-512" rx="51.19" ry="18"/>
<text text-anchor="middle" x="1973.74" y="-508.3" font-family="Helvetica,sans-Serif" font-size="14.00">LogValue</text>
</g>
<!-- LogValue&#45;&gt;Fit -->
<g id="edge18" class="edge">
<title>LogValue&#45;&gt;Fit</title>
<path fill="none" stroke="black" d="M1936.17,-499.49C1928.78,-497.47 1921.05,-495.53 1913.74,-494 1677,-444.44 1385.42,-430.59 1281.65,-427.08"/>
<polygon fill="black" stroke="black" points="1281.84,-423.59 1271.73,-426.76 1281.62,-430.58 1281.84,-423.59"/>
</g>
<!-- ParameterTable -->
<g id="node19" class="node">
<title>ParameterTable</title>
<ellipse fill="khaki" stroke="black" cx="1242.74" cy="-338" rx="79.89" ry="18"/>
<text text-anchor="middle" x="1242.74" y="-334.3" font-family="Helvetica,sans-Serif" font-size="14.00">ParameterTable</text>
</g>
<!-- ProcessIndirectFitParameters -->
<g id="node31" class="node">
<title>ProcessIndirectFitParameters</title>
<path fill="lightskyblue" stroke="black" d="M744.74,-269C744.74,-269 552.74,-269 552.74,-269 546.74,-269 540.74,-263 540.74,-257 540.74,-257 540.74,-245 540.74,-245 540.74,-239 546.74,-233 552.74,-233 552.74,-233 744.74,-233 744.74,-233 750.74,-233 756.74,-239 756.74,-245 756.74,-245 756.74,-257 756.74,-257 756.74,-263 750.74,-269 744.74,-269"/>
<text text-anchor="middle" x="648.74" y="-247.3" font-family="Helvetica,sans-Serif" font-size="14.00">ProcessIndirectFitParameters</text>
</g>
<!-- ParameterTable&#45;&gt;ProcessIndirectFitParameters -->
<g id="edge27" class="edge">
<title>ParameterTable&#45;&gt;ProcessIndirectFitParameters</title>
<path fill="none" stroke="black" d="M1237.34,-319.99C1232.74,-308.55 1224.9,-294.28 1212.74,-287 1176.85,-265.53 878.47,-271.88 836.74,-269 814.65,-267.47 791.11,-265.57 768.44,-263.59"/>
<polygon fill="black" stroke="black" points="768.82,-260.11 758.55,-262.72 768.2,-267.08 768.82,-260.11"/>
</g>
<!-- RenameWorkspace -->
<g id="node33" class="node">
<title>RenameWorkspace</title>
<path fill="lightskyblue" stroke="black" d="M1478.24,-269C1478.24,-269 1353.24,-269 1353.24,-269 1347.24,-269 1341.24,-263 1341.24,-257 1341.24,-257 1341.24,-245 1341.24,-245 1341.24,-239 1347.24,-233 1353.24,-233 1353.24,-233 1478.24,-233 1478.24,-233 1484.24,-233 1490.24,-239 1490.24,-245 1490.24,-245 1490.24,-257 1490.24,-257 1490.24,-263 1484.24,-269 1478.24,-269"/>
<text text-anchor="middle" x="1415.74" y="-247.3" font-family="Helvetica,sans-Serif" font-size="14.00">RenameWorkspace</text>
</g>
<!-- ParameterTable&#45;&gt;RenameWorkspace -->
<g id="edge35" class="edge">
<title>ParameterTable&#45;&gt;RenameWorkspace</title>
<path fill="none" stroke="black" d="M1243.21,-319.89C1244.44,-309.01 1247.83,-295.42 1256.74,-287 1267.95,-276.41 1298.5,-268.48 1329.86,-262.88"/>
<polygon fill="black" stroke="black" points="1330.19,-266.37 1339.46,-261.25 1329.02,-259.47 1330.19,-266.37"/>
<text text-anchor="middle" x="1401.74" y="-290.8" font-family="Helvetica,sans-Serif" font-size="14.00">Change name to expected name for table</text>
</g>
<!-- FitWorkspaces -->
<g id="node20" class="node">
<title>FitWorkspaces</title>
<ellipse fill="khaki" stroke="black" cx="1572.74" cy="-338" rx="75.29" ry="18"/>
<text text-anchor="middle" x="1572.74" y="-334.3" font-family="Helvetica,sans-Serif" font-size="14.00">FitWorkspaces</text>
</g>
<!-- FitWorkspaces&#45;&gt;RenameWorkspace -->
<g id="edge36" class="edge">
<title>FitWorkspaces&#45;&gt;RenameWorkspace</title>
<path fill="none" stroke="black" d="M1569.25,-319.85C1566.16,-308.95 1560.56,-295.36 1550.74,-287 1536.77,-275.11 1519.24,-267.19 1501.48,-261.94"/>
<polygon fill="black" stroke="black" points="1502.46,-258.58 1491.89,-259.39 1500.66,-265.34 1502.46,-258.58"/>
<text text-anchor="middle" x="1672.74" y="-290.8" font-family="Helvetica,sans-Serif" font-size="14.00">Renames to match input names</text>
</g>
<!-- FitWorkspaces&#45;&gt;do_extract_members -->
<g id="edge38" class="edge">
<title>FitWorkspaces&#45;&gt;do_extract_members</title>
<path fill="none" stroke="black" d="M1641.52,-330.33C1684.22,-325.09 1739.89,-316.23 1787.74,-302 1814.07,-294.17 1842.33,-281.67 1864.01,-271.12"/>
<polygon fill="black" stroke="black" points="1865.32,-274.38 1872.72,-266.8 1862.21,-268.1 1865.32,-274.38"/>
</g>
<!-- NormalisedCovarianceWorkspace -->
<g id="node21" class="node">
<title>NormalisedCovarianceWorkspace</title>
<ellipse fill="khaki" stroke="black" cx="959.74" cy="-338" rx="161.37" ry="18"/>
<text text-anchor="middle" x="959.74" y="-334.3" font-family="Helvetica,sans-Serif" font-size="14.00">NormalisedCovarianceWorkspace</text>
</g>
<!-- DeleteWorkspace -->
<g id="node29" class="node">
<title>DeleteWorkspace</title>
<path fill="lightskyblue" stroke="black" d="M971.24,-269C971.24,-269 858.24,-269 858.24,-269 852.24,-269 846.24,-263 846.24,-257 846.24,-257 846.24,-245 846.24,-245 846.24,-239 852.24,-233 858.24,-233 858.24,-233 971.24,-233 971.24,-233 977.24,-233 983.24,-239 983.24,-245 983.24,-245 983.24,-257 983.24,-257 983.24,-263 977.24,-269 971.24,-269"/>
<text text-anchor="middle" x="914.74" y="-247.3" font-family="Helvetica,sans-Serif" font-size="14.00">DeleteWorkspace</text>
</g>
<!-- NormalisedCovarianceWorkspace&#45;&gt;DeleteWorkspace -->
<g id="edge25" class="edge">
<title>NormalisedCovarianceWorkspace&#45;&gt;DeleteWorkspace</title>
<path fill="none" stroke="black" d="M950.21,-319.59C947.16,-313.98 943.79,-307.74 940.74,-302 936.85,-294.69 932.7,-286.74 928.87,-279.38"/>
<polygon fill="black" stroke="black" points="931.98,-277.77 924.27,-270.51 925.76,-281 931.98,-277.77"/>
<text text-anchor="middle" x="1089.24" y="-290.8" font-family="Helvetica,sans-Serif" font-size="14.00">Unrequired product of PlotPeakByLogValue</text>
</g>
<!-- ParameterNames -->
<g id="node22" class="node">
<title>ParameterNames</title>
<ellipse fill="khaki" stroke="black" cx="648.74" cy="-338" rx="88.28" ry="18"/>
<text text-anchor="middle" x="648.74" y="-334.3" font-family="Helvetica,sans-Serif" font-size="14.00">ParameterNames</text>
</g>
<!-- ParameterNames&#45;&gt;ProcessIndirectFitParameters -->
<g id="edge28" class="edge">
<title>ParameterNames&#45;&gt;ProcessIndirectFitParameters</title>
<path fill="none" stroke="black" d="M648.74,-319.8C648.74,-308.58 648.74,-293.67 648.74,-280.69"/>
<polygon fill="black" stroke="black" points="652.24,-280.98 648.74,-270.98 645.24,-280.98 652.24,-280.98"/>
</g>
<!-- OutputWorkspace -->
<g id="node23" class="node">
<title>OutputWorkspace</title>
<ellipse fill="khaki" stroke="black" cx="515.74" cy="-18" rx="91.78" ry="18"/>
<text text-anchor="middle" x="515.74" y="-14.3" font-family="Helvetica,sans-Serif" font-size="14.00">OutputWorkspace</text>
</g>
<!-- OutputParameterWorkspace -->
<g id="node24" class="node">
<title>OutputParameterWorkspace</title>
<ellipse fill="khaki" stroke="black" cx="2702.74" cy="-622.5" rx="137.58" ry="18"/>
<text text-anchor="middle" x="2702.74" y="-618.8" font-family="Helvetica,sans-Serif" font-size="14.00">OutputParameterWorkspace</text>
</g>
<!-- OutputWorkspaceGroup -->
<g id="node25" class="node">
<title>OutputWorkspaceGroup</title>
<ellipse fill="khaki" stroke="black" cx="2977.74" cy="-622.5" rx="118.88" ry="18"/>
<text text-anchor="middle" x="2977.74" y="-618.8" font-family="Helvetica,sans-Serif" font-size="14.00">OutputWorkspaceGroup</text>
</g>
<!-- SampleLog -->
<g id="node26" class="node">
<title>SampleLog</title>
<ellipse fill="khaki" stroke="black" cx="467.74" cy="-164" rx="60.39" ry="18"/>
<text text-anchor="middle" x="467.74" y="-160.3" font-family="Helvetica,sans-Serif" font-size="14.00">SampleLog</text>
</g>
<!-- SampleLog&#45;&gt;CopyLogs -->
<g id="edge33" class="edge">
<title>SampleLog&#45;&gt;CopyLogs</title>
<path fill="none" stroke="black" d="M479.12,-146.17C484.61,-138.04 491.35,-128.08 497.53,-118.93"/>
<polygon fill="black" stroke="black" points="500.4,-120.95 503.1,-110.7 494.6,-117.02 500.4,-120.95"/>
</g>
<!-- PlotPeakByLogValue -->
<g id="node37" class="node">
<title>PlotPeakByLogValue</title>
<ellipse fill="lightgrey" stroke="black" cx="100.74" cy="-425" rx="100.98" ry="18"/>
<text text-anchor="middle" x="100.74" y="-421.3" font-family="Helvetica,sans-Serif" font-size="14.00">PlotPeakByLogValue</text>
</g>
<!-- ConvertSpectrumAxis&#45;&gt;PlotPeakByLogValue -->
<g id="edge8" class="edge">
<title>ConvertSpectrumAxis&#45;&gt;PlotPeakByLogValue</title>
<path fill="none" stroke="black" d="M100.74,-493.8C100.74,-482.58 100.74,-467.67 100.74,-454.69"/>
<polygon fill="black" stroke="black" points="104.24,-454.98 100.74,-444.98 97.24,-454.98 104.24,-454.98"/>
<text text-anchor="middle" x="157.24" y="-464.8" font-family="Helvetica,sans-Serif" font-size="14.00">InputWorkspace</text>
</g>
<!-- Fit&#45;&gt;ParameterTable -->
<g id="edge23" class="edge">
<title>Fit&#45;&gt;ParameterTable</title>
<path fill="none" stroke="black" d="M1242.74,-406.8C1242.74,-395.58 1242.74,-380.67 1242.74,-367.69"/>
<polygon fill="black" stroke="black" points="1246.24,-367.98 1242.74,-357.98 1239.24,-367.98 1246.24,-367.98"/>
</g>
<!-- Fit&#45;&gt;FitWorkspaces -->
<g id="edge24" class="edge">
<title>Fit&#45;&gt;FitWorkspaces</title>
<path fill="none" stroke="black" d="M1270.03,-416.97C1322.83,-403.37 1440.13,-373.16 1512.22,-354.59"/>
<polygon fill="black" stroke="black" points="1512.67,-358.09 1521.48,-352.2 1510.92,-351.31 1512.67,-358.09"/>
</g>
<!-- Fit&#45;&gt;NormalisedCovarianceWorkspace -->
<g id="edge22" class="edge">
<title>Fit&#45;&gt;NormalisedCovarianceWorkspace</title>
<path fill="none" stroke="black" d="M1215.35,-415.77C1171.73,-402.67 1085.29,-376.71 1025.07,-358.62"/>
<polygon fill="black" stroke="black" points="1026.18,-355.3 1015.59,-355.78 1024.16,-362 1026.18,-355.3"/>
</g>
<!-- ExtractQENSMembers -->
<g id="node30" class="node">
<title>ExtractQENSMembers</title>
<path fill="lightskyblue" stroke="black" d="M1973.74,-182C1973.74,-182 1827.74,-182 1827.74,-182 1821.74,-182 1815.74,-176 1815.74,-170 1815.74,-170 1815.74,-158 1815.74,-158 1815.74,-152 1821.74,-146 1827.74,-146 1827.74,-146 1973.74,-146 1973.74,-146 1979.74,-146 1985.74,-152 1985.74,-158 1985.74,-158 1985.74,-170 1985.74,-170 1985.74,-176 1979.74,-182 1973.74,-182"/>
<text text-anchor="middle" x="1900.74" y="-160.3" font-family="Helvetica,sans-Serif" font-size="14.00">ExtractQENSMembers</text>
</g>
<!-- ResultWorkspace -->
<g id="node39" class="node">
<title>ResultWorkspace</title>
<ellipse fill="lightgrey" stroke="black" cx="633.74" cy="-164" rx="87.99" ry="18"/>
<text text-anchor="middle" x="633.74" y="-160.3" font-family="Helvetica,sans-Serif" font-size="14.00">ResultWorkspace</text>
</g>
<!-- ProcessIndirectFitParameters&#45;&gt;ResultWorkspace -->
<g id="edge29" class="edge">
<title>ProcessIndirectFitParameters&#45;&gt;ResultWorkspace</title>
<path fill="none" stroke="black" d="M645.71,-232.8C643.73,-221.58 641.09,-206.67 638.8,-193.69"/>
<polygon fill="black" stroke="black" points="642.27,-193.2 637.09,-183.96 635.38,-194.41 642.27,-193.2"/>
</g>
<!-- CopyLogs&#45;&gt;OutputWorkspace -->
<g id="edge32" class="edge">
<title>CopyLogs&#45;&gt;OutputWorkspace</title>
<path fill="none" stroke="black" d="M515.74,-72.81C515.74,-65.23 515.74,-56.1 515.74,-47.54"/>
<polygon fill="black" stroke="black" points="519.24,-47.54 515.74,-37.54 512.24,-47.54 519.24,-47.54"/>
</g>
<!-- do_extract_members&#45;&gt;ExtractQENSMembers -->
<g id="edge40" class="edge">
<title>do_extract_members&#45;&gt;ExtractQENSMembers</title>
<path fill="none" stroke="black" d="M1900.74,-232.8C1900.74,-221.58 1900.74,-206.67 1900.74,-193.69"/>
<polygon fill="black" stroke="black" points="1904.24,-193.98 1900.74,-183.98 1897.24,-193.98 1904.24,-193.98"/>
<text text-anchor="middle" x="1912.24" y="-203.8" font-family="Helvetica,sans-Serif" font-size="14.00">Yes</text>
</g>
<!-- extract_members -->
<g id="node35" class="node">
<title>extract_members</title>
<polygon fill="lightseagreen" stroke="black" points="3329.24,-664 3114.24,-664 3114.24,-581 3329.24,-581 3329.24,-664"/>
<text text-anchor="middle" x="3221.74" y="-648.8" font-family="Helvetica,sans-Serif" font-size="14.00">extract_members</text>
<text text-anchor="middle" x="3221.74" y="-633.8" font-family="Helvetica,sans-Serif" font-size="14.00">Extracts the members of</text>
<text text-anchor="middle" x="3221.74" y="-618.8" font-family="Helvetica,sans-Serif" font-size="14.00">the convolution fit, into</text>
<text text-anchor="middle" x="3221.74" y="-603.8" font-family="Helvetica,sans-Serif" font-size="14.00"> their own workspace, which</text>
<text text-anchor="middle" x="3221.74" y="-588.8" font-family="Helvetica,sans-Serif" font-size="14.00"> are subsequently grouped.</text>
</g>
<!-- FitFunction&#45;&gt;Fit -->
<g id="edge10" class="edge">
<title>FitFunction&#45;&gt;Fit</title>
<path fill="none" stroke="black" d="M2089.35,-502.55C2071.74,-499.73 2051.89,-496.63 2033.74,-494 1922.39,-477.84 1894.72,-471.98 1782.74,-461 1595.25,-442.62 1370.14,-431.56 1281.4,-427.63"/>
<polygon fill="black" stroke="black" points="1281.7,-424.14 1271.56,-427.2 1281.39,-431.13 1281.7,-424.14"/>
</g>
<!-- FitType -->
<g id="node38" class="node">
<title>FitType</title>
<ellipse fill="lightgrey" stroke="black" cx="648.74" cy="-425" rx="41.69" ry="18"/>
<text text-anchor="middle" x="648.74" y="-421.3" font-family="Helvetica,sans-Serif" font-size="14.00">FitType</text>
</g>
<!-- FitType&#45;&gt;ParameterNames -->
<g id="edge26" class="edge">
<title>FitType&#45;&gt;ParameterNames</title>
<path fill="none" stroke="black" d="M648.74,-406.8C648.74,-395.58 648.74,-380.67 648.74,-367.69"/>
<polygon fill="black" stroke="black" points="652.24,-367.98 648.74,-357.98 645.24,-367.98 652.24,-367.98"/>
<text text-anchor="middle" x="794.74" y="-377.8" font-family="Helvetica,sans-Serif" font-size="14.00">Desired parameters obtained from FitType</text>
</g>
<!-- ResultWorkspace&#45;&gt;CopyLogs -->
<g id="edge31" class="edge">
<title>ResultWorkspace&#45;&gt;CopyLogs</title>
<path fill="none" stroke="black" d="M606.37,-146.53C590.89,-137.22 571.29,-125.42 554.27,-115.19"/>
<polygon fill="black" stroke="black" points="556.28,-112.31 545.9,-110.15 552.67,-118.3 556.28,-112.31"/>
</g>
<!-- FitWorkspace -->
<g id="node40" class="node">
<title>FitWorkspace</title>
<ellipse fill="lightgrey" stroke="black" cx="809.74" cy="-164" rx="70.39" ry="18"/>
<text text-anchor="middle" x="809.74" y="-160.3" font-family="Helvetica,sans-Serif" font-size="14.00">FitWorkspace</text>
</g>
<!-- FitWorkspace&#45;&gt;CopyLogs -->
<g id="edge34" class="edge">
<title>FitWorkspace&#45;&gt;CopyLogs</title>
<path fill="none" stroke="black" d="M759.87,-150.96C706.95,-138.18 623.63,-118.05 569.34,-104.94"/>
<polygon fill="black" stroke="black" points="570.22,-101.56 559.68,-102.61 568.58,-108.36 570.22,-101.56"/>
</g>
</g>
</svg>
