<?xml version="1.0" encoding="UTF-8" standalone="no"?>
<!DOCTYPE svg PUBLIC "-//W3C//DTD SVG 1.1//EN"
 "http://www.w3.org/Graphics/SVG/1.1/DTD/svg11.dtd">
<!-- Generated by graphviz version 9.0.0 (20231125.0833)
 -->
<!-- Title: QENSFitSequential Pages: 1 -->
<svg width="2171pt" height="720pt"
 viewBox="0.00 0.00 2171.36 719.75" xmlns="http://www.w3.org/2000/svg" xmlns:xlink="http://www.w3.org/1999/xlink">
<g id="graph0" class="graph" transform="scale(1 1) rotate(0) translate(4 715.75)">
<title>QENSFitSequential</title>
<polygon fill="white" stroke="none" points="-4,4 -4,-715.75 2167.36,-715.75 2167.36,4 -4,4"/>
<text text-anchor="middle" x="1081.68" y="-694.45" font-family="Helvetica,sans-Serif" font-size="14.00">QENSFitSequential Flowchart</text>
<!-- InputWorkspace -->
<g id="node1" class="node">
<title>InputWorkspace</title>
<ellipse fill="khaki" stroke="black" cx="1841.36" cy="-639.38" rx="90.14" ry="18"/>
<text text-anchor="middle" x="1841.36" y="-634.7" font-family="Helvetica,sans-Serif" font-size="14.00">InputWorkspace</text>
</g>
<!-- ConvertSpectrumAxis -->
<g id="node25" class="node">
<title>ConvertSpectrumAxis</title>
<path fill="lightskyblue" stroke="black" d="M1248.11,-539C1248.11,-539 1104.61,-539 1104.61,-539 1098.61,-539 1092.61,-533 1092.61,-527 1092.61,-527 1092.61,-515 1092.61,-515 1092.61,-509 1098.61,-503 1104.61,-503 1104.61,-503 1248.11,-503 1248.11,-503 1254.11,-503 1260.11,-509 1260.11,-515 1260.11,-515 1260.11,-527 1260.11,-527 1260.11,-533 1254.11,-539 1248.11,-539"/>
<text text-anchor="middle" x="1176.36" y="-516.33" font-family="Helvetica,sans-Serif" font-size="14.00">ConvertSpectrumAxis</text>
</g>
<!-- InputWorkspace&#45;&gt;ConvertSpectrumAxis -->
<g id="edge7" class="edge">
<title>InputWorkspace&#45;&gt;ConvertSpectrumAxis</title>
<path fill="none" stroke="black" d="M1793.86,-623.68C1731.19,-604.94 1617.14,-573.03 1517.36,-557 1411.76,-540.04 1380.95,-552.12 1271.63,-539.17"/>
<polygon fill="black" stroke="black" points="1272.3,-535.73 1261.95,-537.98 1271.44,-542.67 1272.3,-535.73"/>
<text text-anchor="middle" x="1706.86" y="-560.95" font-family="Helvetica,sans-Serif" font-size="14.00">Attempt conversion to Elastic Q</text>
</g>
<!-- CopyLogs -->
<g id="node30" class="node">
<title>CopyLogs</title>
<path fill="lightskyblue" stroke="black" d="M1857.11,-109C1857.11,-109 1797.61,-109 1797.61,-109 1791.61,-109 1785.61,-103 1785.61,-97 1785.61,-97 1785.61,-85 1785.61,-85 1785.61,-79 1791.61,-73 1797.61,-73 1797.61,-73 1857.11,-73 1857.11,-73 1863.11,-73 1869.11,-79 1869.11,-85 1869.11,-85 1869.11,-97 1869.11,-97 1869.11,-103 1863.11,-109 1857.11,-109"/>
<text text-anchor="middle" x="1827.36" y="-86.33" font-family="Helvetica,sans-Serif" font-size="14.00">CopyLogs</text>
</g>
<!-- InputWorkspace&#45;&gt;CopyLogs -->
<g id="edge29" class="edge">
<title>InputWorkspace&#45;&gt;CopyLogs</title>
<path fill="none" stroke="black" d="M1876.58,-622.33C1925.84,-598.74 2009.36,-554.02 2009.36,-522 2009.36,-522 2009.36,-522 2009.36,-179.25 2009.36,-121.79 1934.69,-102.15 1881.01,-95.44"/>
<polygon fill="black" stroke="black" points="1881.4,-91.97 1871.07,-94.34 1880.62,-98.92 1881.4,-91.97"/>
</g>
<!-- do_extract_members -->
<g id="node32" class="node">
<title>do_extract_members</title>
<polygon fill="limegreen" stroke="black" points="1188.36,-198.25 1024.42,-180.25 1188.36,-162.25 1352.29,-180.25 1188.36,-198.25"/>
<text text-anchor="middle" x="1188.36" y="-175.57" font-family="Helvetica,sans-Serif" font-size="14.00">Do Extract Members?</text>
</g>
<!-- InputWorkspace&#45;&gt;do_extract_members -->
<g id="edge38" class="edge">
<title>InputWorkspace&#45;&gt;do_extract_members</title>
<path fill="none" stroke="black" d="M1871.84,-622.01C1891.06,-612.25 1916.64,-600.24 1940.36,-592.25 1976.13,-580.21 1999.66,-603.63 2023.36,-574.25 2043.51,-549.26 2016.3,-520.33 1990.36,-503 1863.16,-418.06 1765.57,-550.35 1650.36,-449.75 1594.27,-400.78 1655.93,-340.96 1602.36,-289.25 1555.17,-243.71 1376.13,-209.61 1269.57,-192.84"/>
<polygon fill="black" stroke="black" points="1270.13,-189.38 1259.72,-191.31 1269.06,-196.3 1270.13,-189.38"/>
</g>
<!-- FitFunction -->
<g id="node34" class="node">
<title>FitFunction</title>
<ellipse fill="lightgrey" stroke="black" cx="909.36" cy="-521" rx="63.83" ry="18"/>
<text text-anchor="middle" x="909.36" y="-516.33" font-family="Helvetica,sans-Serif" font-size="14.00">FitFunction</text>
</g>
<!-- InputWorkspace&#45;&gt;FitFunction -->
<g id="edge1" class="edge">
<title>InputWorkspace&#45;&gt;FitFunction</title>
<path fill="none" stroke="black" d="M1763.85,-629.92C1567.1,-608.38 1058.44,-552.22 982.36,-539 977.39,-538.14 972.26,-537.15 967.12,-536.09"/>
<polygon fill="black" stroke="black" points="967.92,-532.68 957.41,-533.99 966.45,-539.52 967.92,-532.68"/>
</g>
<!-- Input -->
<g id="node2" class="node">
<title>Input</title>
<ellipse fill="khaki" stroke="black" cx="743.36" cy="-639.38" rx="37" ry="18"/>
<text text-anchor="middle" x="743.36" y="-634.7" font-family="Helvetica,sans-Serif" font-size="14.00">Input</text>
</g>
<!-- PlotPeakByLogValue -->
<g id="node26" class="node">
<title>PlotPeakByLogValue</title>
<path fill="lightskyblue" stroke="black" d="M1036.73,-449.75C1036.73,-449.75 905.98,-449.75 905.98,-449.75 899.98,-449.75 893.98,-443.75 893.98,-437.75 893.98,-437.75 893.98,-425.75 893.98,-425.75 893.98,-419.75 899.98,-413.75 905.98,-413.75 905.98,-413.75 1036.73,-413.75 1036.73,-413.75 1042.73,-413.75 1048.73,-419.75 1048.73,-425.75 1048.73,-425.75 1048.73,-437.75 1048.73,-437.75 1048.73,-443.75 1042.73,-449.75 1036.73,-449.75"/>
<text text-anchor="middle" x="971.36" y="-427.07" font-family="Helvetica,sans-Serif" font-size="14.00">PlotPeakByLogValue</text>
</g>
<!-- Input&#45;&gt;PlotPeakByLogValue -->
<g id="edge9" class="edge">
<title>Input&#45;&gt;PlotPeakByLogValue</title>
<path fill="none" stroke="black" d="M751.5,-621.43C765.54,-593.68 796.64,-538.14 836.36,-503 859.14,-482.84 888.74,-466.61 914.41,-454.84"/>
<polygon fill="black" stroke="black" points="915.67,-458.11 923.39,-450.85 912.83,-451.72 915.67,-458.11"/>
</g>
<!-- Input&#45;&gt;FitFunction -->
<g id="edge2" class="edge">
<title>Input&#45;&gt;FitFunction</title>
<path fill="none" stroke="black" d="M757.37,-622.39C766.05,-613 777.73,-601.24 789.36,-592.25 814.17,-573.06 844.71,-555.25 868.77,-542.37"/>
<polygon fill="black" stroke="black" points="870.1,-545.63 877.31,-537.86 866.83,-539.43 870.1,-545.63"/>
</g>
<!-- FitParameters -->
<g id="node3" class="node">
<title>FitParameters</title>
<ellipse fill="khaki" stroke="black" cx="876.36" cy="-639.38" rx="77.51" ry="18"/>
<text text-anchor="middle" x="876.36" y="-634.7" font-family="Helvetica,sans-Serif" font-size="14.00">FitParameters</text>
</g>
<!-- FitParameters&#45;&gt;FitFunction -->
<g id="edge4" class="edge">
<title>FitParameters&#45;&gt;FitFunction</title>
<path fill="none" stroke="black" d="M881.3,-620.95C886.6,-602.25 895.11,-572.25 901.37,-550.18"/>
<polygon fill="black" stroke="black" points="904.72,-551.19 904.08,-540.62 897.98,-549.28 904.72,-551.19"/>
</g>
<!-- Function -->
<g id="node4" class="node">
<title>Function</title>
<ellipse fill="khaki" stroke="black" cx="1024.36" cy="-639.38" rx="52.79" ry="18"/>
<text text-anchor="middle" x="1024.36" y="-634.7" font-family="Helvetica,sans-Serif" font-size="14.00">Function</text>
</g>
<!-- Function&#45;&gt;FitFunction -->
<g id="edge3" class="edge">
<title>Function&#45;&gt;FitFunction</title>
<path fill="none" stroke="black" d="M1008.37,-622.19C989.1,-602.7 956.53,-569.74 934.04,-546.97"/>
<polygon fill="black" stroke="black" points="936.54,-544.53 927.02,-539.87 931.56,-549.45 936.54,-544.53"/>
</g>
<!-- StartX -->
<g id="node5" class="node">
<title>StartX</title>
<ellipse fill="khaki" stroke="black" cx="1033.36" cy="-521" rx="41.74" ry="18"/>
<text text-anchor="middle" x="1033.36" y="-516.33" font-family="Helvetica,sans-Serif" font-size="14.00">StartX</text>
</g>
<!-- StartX&#45;&gt;PlotPeakByLogValue -->
<g id="edge11" class="edge">
<title>StartX&#45;&gt;PlotPeakByLogValue</title>
<path fill="none" stroke="black" d="M1021.7,-503.59C1012.77,-491.04 1000.3,-473.48 990,-458.98"/>
<polygon fill="black" stroke="black" points="993.12,-457.34 984.48,-451.22 987.42,-461.4 993.12,-457.34"/>
</g>
<!-- EndX -->
<g id="node6" class="node">
<title>EndX</title>
<ellipse fill="khaki" stroke="black" cx="1315.36" cy="-521" rx="37" ry="18"/>
<text text-anchor="middle" x="1315.36" y="-516.33" font-family="Helvetica,sans-Serif" font-size="14.00">EndX</text>
</g>
<!-- EndX&#45;&gt;PlotPeakByLogValue -->
<g id="edge12" class="edge">
<title>EndX&#45;&gt;PlotPeakByLogValue</title>
<path fill="none" stroke="black" d="M1292.83,-506.45C1271.73,-494.39 1238.96,-477.23 1208.36,-467.75 1160.56,-452.94 1105.35,-444.32 1060.24,-439.34"/>
<polygon fill="black" stroke="black" points="1060.82,-435.89 1050.51,-438.32 1060.09,-442.85 1060.82,-435.89"/>
</g>
<!-- SpecMin -->
<g id="node7" class="node">
<title>SpecMin</title>
<ellipse fill="khaki" stroke="black" cx="1147.36" cy="-639.38" rx="52.26" ry="18"/>
<text text-anchor="middle" x="1147.36" y="-634.7" font-family="Helvetica,sans-Serif" font-size="14.00">SpecMin</text>
</g>
<!-- SpecMin&#45;&gt;FitFunction -->
<g id="edge5" class="edge">
<title>SpecMin&#45;&gt;FitFunction</title>
<path fill="none" stroke="black" d="M1128.77,-622.22C1117.13,-612.66 1101.51,-600.78 1086.36,-592.25 1046.54,-569.84 998.13,-551.15 962.01,-538.7"/>
<polygon fill="black" stroke="black" points="963.24,-535.42 952.65,-535.52 960.99,-542.05 963.24,-535.42"/>
</g>
<!-- SpecMax -->
<g id="node8" class="node">
<title>SpecMax</title>
<ellipse fill="khaki" stroke="black" cx="1272.36" cy="-639.38" rx="54.89" ry="18"/>
<text text-anchor="middle" x="1272.36" y="-634.7" font-family="Helvetica,sans-Serif" font-size="14.00">SpecMax</text>
</g>
<!-- SpecMax&#45;&gt;FitFunction -->
<g id="edge6" class="edge">
<title>SpecMax&#45;&gt;FitFunction</title>
<path fill="none" stroke="black" d="M1253.98,-622.12C1241.81,-612.14 1225.06,-599.86 1208.36,-592.25 1206.97,-591.62 1055.21,-556.09 968.46,-535.81"/>
<polygon fill="black" stroke="black" points="969.45,-532.45 958.92,-533.58 967.86,-539.27 969.45,-532.45"/>
</g>
<!-- ConvolveMembers -->
<g id="node9" class="node">
<title>ConvolveMembers</title>
<ellipse fill="khaki" stroke="black" cx="1471.36" cy="-521" rx="101.19" ry="18"/>
<text text-anchor="middle" x="1471.36" y="-516.33" font-family="Helvetica,sans-Serif" font-size="14.00">ConvolveMembers</text>
</g>
<!-- ConvolveMembers&#45;&gt;PlotPeakByLogValue -->
<g id="edge13" class="edge">
<title>ConvolveMembers&#45;&gt;PlotPeakByLogValue</title>
<path fill="none" stroke="black" d="M1415.45,-505.59C1369.48,-494.12 1302.52,-478.31 1243.36,-467.75 1182.53,-456.89 1113.48,-448.05 1060.17,-441.97"/>
<polygon fill="black" stroke="black" points="1060.88,-438.53 1050.55,-440.88 1060.09,-445.48 1060.88,-438.53"/>
</g>
<!-- ExtractMembers -->
<g id="node10" class="node">
<title>ExtractMembers</title>
<ellipse fill="khaki" stroke="black" cx="561.36" cy="-253.25" rx="91.19" ry="18"/>
<text text-anchor="middle" x="561.36" y="-248.57" font-family="Helvetica,sans-Serif" font-size="14.00">ExtractMembers</text>
</g>
<!-- ExtractMembers&#45;&gt;do_extract_members -->
<g id="edge36" class="edge">
<title>ExtractMembers&#45;&gt;do_extract_members</title>
<path fill="none" stroke="black" d="M627.16,-240.43C638.54,-238.56 650.28,-236.76 661.36,-235.25 808.42,-215.24 979.48,-199 1085.85,-189.73"/>
<polygon fill="black" stroke="black" points="1086.05,-193.22 1095.71,-188.87 1085.44,-186.25 1086.05,-193.22"/>
</g>
<!-- PassWSIndexToFunction -->
<g id="node11" class="node">
<title>PassWSIndexToFunction</title>
<ellipse fill="khaki" stroke="black" cx="1718.36" cy="-521" rx="127.49" ry="18"/>
<text text-anchor="middle" x="1718.36" y="-516.33" font-family="Helvetica,sans-Serif" font-size="14.00">PassWSIndexToFunction</text>
</g>
<!-- PassWSIndexToFunction&#45;&gt;PlotPeakByLogValue -->
<g id="edge19" class="edge">
<title>PassWSIndexToFunction&#45;&gt;PlotPeakByLogValue</title>
<path fill="none" stroke="black" d="M1626.43,-508.15C1541.17,-497.26 1410.76,-480.87 1297.36,-467.75 1217.18,-458.47 1125.8,-448.73 1060.24,-441.89"/>
<polygon fill="black" stroke="black" points="1060.94,-438.45 1050.63,-440.89 1060.21,-445.41 1060.94,-438.45"/>
</g>
<!-- Minimizer -->
<g id="node12" class="node">
<title>Minimizer</title>
<ellipse fill="khaki" stroke="black" cx="1922.36" cy="-521" rx="58.57" ry="18"/>
<text text-anchor="middle" x="1922.36" y="-516.33" font-family="Helvetica,sans-Serif" font-size="14.00">Minimizer</text>
</g>
<!-- Minimizer&#45;&gt;PlotPeakByLogValue -->
<g id="edge15" class="edge">
<title>Minimizer&#45;&gt;PlotPeakByLogValue</title>
<path fill="none" stroke="black" d="M1879.78,-508.21C1871.4,-506.22 1862.64,-504.36 1854.36,-503 1566.28,-455.86 1219.94,-440.01 1060.12,-434.96"/>
<polygon fill="black" stroke="black" points="1060.56,-431.47 1050.46,-434.66 1060.34,-438.47 1060.56,-431.47"/>
</g>
<!-- CostFunction -->
<g id="node13" class="node">
<title>CostFunction</title>
<ellipse fill="khaki" stroke="black" cx="74.36" cy="-521" rx="74.36" ry="18"/>
<text text-anchor="middle" x="74.36" y="-516.33" font-family="Helvetica,sans-Serif" font-size="14.00">CostFunction</text>
</g>
<!-- CostFunction&#45;&gt;PlotPeakByLogValue -->
<g id="edge16" class="edge">
<title>CostFunction&#45;&gt;PlotPeakByLogValue</title>
<path fill="none" stroke="black" d="M128.26,-508.3C137.92,-506.39 147.92,-504.54 157.36,-503 418.83,-460.46 732.02,-442.6 882.31,-436.05"/>
<polygon fill="black" stroke="black" points="882.37,-439.55 892.21,-435.63 882.07,-432.56 882.37,-439.55"/>
</g>
<!-- MaxIterations -->
<g id="node14" class="node">
<title>MaxIterations</title>
<ellipse fill="khaki" stroke="black" cx="244.36" cy="-521" rx="77.51" ry="18"/>
<text text-anchor="middle" x="244.36" y="-516.33" font-family="Helvetica,sans-Serif" font-size="14.00">MaxIterations</text>
</g>
<!-- MaxIterations&#45;&gt;PlotPeakByLogValue -->
<g id="edge14" class="edge">
<title>MaxIterations&#45;&gt;PlotPeakByLogValue</title>
<path fill="none" stroke="black" d="M300.71,-508.37C310.57,-506.47 320.75,-504.61 330.36,-503 526.04,-470.27 757.97,-449.19 882.2,-439.32"/>
<polygon fill="black" stroke="black" points="882.31,-442.82 892,-438.54 881.76,-435.84 882.31,-442.82"/>
</g>
<!-- PeakRadius -->
<g id="node15" class="node">
<title>PeakRadius</title>
<ellipse fill="khaki" stroke="black" cx="407.36" cy="-521" rx="67.52" ry="18"/>
<text text-anchor="middle" x="407.36" y="-516.33" font-family="Helvetica,sans-Serif" font-size="14.00">PeakRadius</text>
</g>
<!-- PeakRadius&#45;&gt;PlotPeakByLogValue -->
<g id="edge17" class="edge">
<title>PeakRadius&#45;&gt;PlotPeakByLogValue</title>
<path fill="none" stroke="black" d="M457.4,-508.55C466.36,-506.62 475.62,-504.69 484.36,-503 622.51,-476.28 784.51,-454.86 882.47,-442.98"/>
<polygon fill="black" stroke="black" points="882.79,-446.47 892.3,-441.8 881.95,-439.52 882.79,-446.47"/>
</g>
<!-- EvaluationType -->
<g id="node16" class="node">
<title>EvaluationType</title>
<ellipse fill="khaki" stroke="black" cx="577.36" cy="-521" rx="84.35" ry="18"/>
<text text-anchor="middle" x="577.36" y="-516.33" font-family="Helvetica,sans-Serif" font-size="14.00">EvaluationType</text>
</g>
<!-- EvaluationType&#45;&gt;PlotPeakByLogValue -->
<g id="edge20" class="edge">
<title>EvaluationType&#45;&gt;PlotPeakByLogValue</title>
<path fill="none" stroke="black" d="M625.04,-505.78C663.92,-494.5 720.37,-478.84 770.36,-467.75 806.86,-459.65 847.44,-452.28 882.53,-446.41"/>
<polygon fill="black" stroke="black" points="882.93,-449.89 892.22,-444.81 881.79,-442.99 882.93,-449.89"/>
</g>
<!-- LogValue -->
<g id="node17" class="node">
<title>LogValue</title>
<ellipse fill="khaki" stroke="black" cx="734.36" cy="-521" rx="54.89" ry="18"/>
<text text-anchor="middle" x="734.36" y="-516.33" font-family="Helvetica,sans-Serif" font-size="14.00">LogValue</text>
</g>
<!-- LogValue&#45;&gt;PlotPeakByLogValue -->
<g id="edge18" class="edge">
<title>LogValue&#45;&gt;PlotPeakByLogValue</title>
<path fill="none" stroke="black" d="M751.39,-503.65C764.56,-491.91 783.8,-476.64 803.36,-467.75 828.04,-456.53 856.4,-448.86 882.71,-443.64"/>
<polygon fill="black" stroke="black" points="883.17,-447.12 892.35,-441.83 881.88,-440.24 883.17,-447.12"/>
</g>
<!-- FitWorkspaces -->
<g id="node18" class="node">
<title>FitWorkspaces</title>
<ellipse fill="khaki" stroke="black" cx="1360.36" cy="-342.5" rx="80.67" ry="18"/>
<text text-anchor="middle" x="1360.36" y="-337.82" font-family="Helvetica,sans-Serif" font-size="14.00">FitWorkspaces</text>
</g>
<!-- RenameWorkspace -->
<g id="node31" class="node">
<title>RenameWorkspace</title>
<path fill="lightskyblue" stroke="black" d="M1250.36,-271.25C1250.36,-271.25 1126.36,-271.25 1126.36,-271.25 1120.36,-271.25 1114.36,-265.25 1114.36,-259.25 1114.36,-259.25 1114.36,-247.25 1114.36,-247.25 1114.36,-241.25 1120.36,-235.25 1126.36,-235.25 1126.36,-235.25 1250.36,-235.25 1250.36,-235.25 1256.36,-235.25 1262.36,-241.25 1262.36,-247.25 1262.36,-247.25 1262.36,-259.25 1262.36,-259.25 1262.36,-265.25 1256.36,-271.25 1250.36,-271.25"/>
<text text-anchor="middle" x="1188.36" y="-248.57" font-family="Helvetica,sans-Serif" font-size="14.00">RenameWorkspace</text>
</g>
<!-- FitWorkspaces&#45;&gt;RenameWorkspace -->
<g id="edge35" class="edge">
<title>FitWorkspaces&#45;&gt;RenameWorkspace</title>
<path fill="none" stroke="black" d="M1371.59,-324.27C1377.29,-313.17 1381.47,-299.04 1373.36,-289.25 1360.37,-273.57 1316.21,-264.86 1274.29,-260.06"/>
<polygon fill="black" stroke="black" points="1274.67,-256.58 1264.35,-258.99 1273.92,-263.54 1274.67,-256.58"/>
<text text-anchor="middle" x="1487.98" y="-293.2" font-family="Helvetica,sans-Serif" font-size="14.00">Renames to match input names</text>
</g>
<!-- NormalisedCovarianceWorkspace -->
<g id="node19" class="node">
<title>NormalisedCovarianceWorkspace</title>
<ellipse fill="khaki" stroke="black" cx="738.36" cy="-342.5" rx="173.27" ry="18"/>
<text text-anchor="middle" x="738.36" y="-337.82" font-family="Helvetica,sans-Serif" font-size="14.00">NormalisedCovarianceWorkspace</text>
</g>
<!-- DeleteWorkspace -->
<g id="node27" class="node">
<title>DeleteWorkspace</title>
<path fill="lightskyblue" stroke="black" d="M794.36,-271.25C794.36,-271.25 682.36,-271.25 682.36,-271.25 676.36,-271.25 670.36,-265.25 670.36,-259.25 670.36,-259.25 670.36,-247.25 670.36,-247.25 670.36,-241.25 676.36,-235.25 682.36,-235.25 682.36,-235.25 794.36,-235.25 794.36,-235.25 800.36,-235.25 806.36,-241.25 806.36,-247.25 806.36,-247.25 806.36,-259.25 806.36,-259.25 806.36,-265.25 800.36,-271.25 794.36,-271.25"/>
<text text-anchor="middle" x="738.36" y="-248.57" font-family="Helvetica,sans-Serif" font-size="14.00">DeleteWorkspace</text>
</g>
<!-- NormalisedCovarianceWorkspace&#45;&gt;DeleteWorkspace -->
<g id="edge24" class="edge">
<title>NormalisedCovarianceWorkspace&#45;&gt;DeleteWorkspace</title>
<path fill="none" stroke="black" d="M738.36,-324.26C738.36,-312.43 738.36,-296.45 738.36,-282.75"/>
<polygon fill="black" stroke="black" points="741.86,-282.97 738.36,-272.97 734.86,-282.97 741.86,-282.97"/>
<text text-anchor="middle" x="886.48" y="-293.2" font-family="Helvetica,sans-Serif" font-size="14.00">Unrequired product of PlotPeakByLogValue</text>
</g>
<!-- ParameterNames -->
<g id="node20" class="node">
<title>ParameterNames</title>
<ellipse fill="khaki" stroke="black" cx="1757.36" cy="-342.5" rx="94.88" ry="18"/>
<text text-anchor="middle" x="1757.36" y="-337.82" font-family="Helvetica,sans-Serif" font-size="14.00">ParameterNames</text>
</g>
<!-- ProcessIndirectFitParameters -->
<g id="node29" class="node">
<title>ProcessIndirectFitParameters</title>
<path fill="lightskyblue" stroke="black" d="M1861.11,-271.25C1861.11,-271.25 1669.61,-271.25 1669.61,-271.25 1663.61,-271.25 1657.61,-265.25 1657.61,-259.25 1657.61,-259.25 1657.61,-247.25 1657.61,-247.25 1657.61,-241.25 1663.61,-235.25 1669.61,-235.25 1669.61,-235.25 1861.11,-235.25 1861.11,-235.25 1867.11,-235.25 1873.11,-241.25 1873.11,-247.25 1873.11,-247.25 1873.11,-259.25 1873.11,-259.25 1873.11,-265.25 1867.11,-271.25 1861.11,-271.25"/>
<text text-anchor="middle" x="1765.36" y="-248.57" font-family="Helvetica,sans-Serif" font-size="14.00">ProcessIndirectFitParameters</text>
</g>
<!-- ParameterNames&#45;&gt;ProcessIndirectFitParameters -->
<g id="edge27" class="edge">
<title>ParameterNames&#45;&gt;ProcessIndirectFitParameters</title>
<path fill="none" stroke="black" d="M1758.94,-324.26C1760.02,-312.43 1761.49,-296.45 1762.74,-282.75"/>
<polygon fill="black" stroke="black" points="1766.21,-283.24 1763.64,-272.96 1759.24,-282.6 1766.21,-283.24"/>
</g>
<!-- OutputWorkspace -->
<g id="node21" class="node">
<title>OutputWorkspace</title>
<ellipse fill="khaki" stroke="black" cx="1827.36" cy="-18" rx="98.56" ry="18"/>
<text text-anchor="middle" x="1827.36" y="-13.32" font-family="Helvetica,sans-Serif" font-size="14.00">OutputWorkspace</text>
</g>
<!-- OutputParameterWorkspace -->
<g id="node22" class="node">
<title>OutputParameterWorkspace</title>
<ellipse fill="khaki" stroke="black" cx="1078.36" cy="-342.5" rx="148.54" ry="18"/>
<text text-anchor="middle" x="1078.36" y="-337.82" font-family="Helvetica,sans-Serif" font-size="14.00">OutputParameterWorkspace</text>
</g>
<!-- OutputParameterWorkspace&#45;&gt;ProcessIndirectFitParameters -->
<g id="edge26" class="edge">
<title>OutputParameterWorkspace&#45;&gt;ProcessIndirectFitParameters</title>
<path fill="none" stroke="black" d="M1070.17,-324.25C1066.1,-312.85 1063.67,-298.38 1072.36,-289.25 1082.1,-279 1450.33,-264.96 1645.96,-258.2"/>
<polygon fill="black" stroke="black" points="1646.05,-261.7 1655.93,-257.86 1645.81,-254.7 1646.05,-261.7"/>
</g>
<!-- OutputParameterWorkspace&#45;&gt;RenameWorkspace -->
<g id="edge34" class="edge">
<title>OutputParameterWorkspace&#45;&gt;RenameWorkspace</title>
<path fill="none" stroke="black" d="M1075.73,-324.2C1075.03,-313.07 1076.09,-298.92 1083.86,-289.25 1089.31,-282.45 1096.13,-276.97 1103.66,-272.54"/>
<polygon fill="black" stroke="black" points="1105.24,-275.66 1112.56,-268 1102.06,-269.43 1105.24,-275.66"/>
<text text-anchor="middle" x="1228.11" y="-293.2" font-family="Helvetica,sans-Serif" font-size="14.00">Change name to expected name for table</text>
</g>
<!-- OutputWorkspaceGroup -->
<g id="node23" class="node">
<title>OutputWorkspaceGroup</title>
<ellipse fill="khaki" stroke="black" cx="1188.36" cy="-18" rx="128.02" ry="18"/>
<text text-anchor="middle" x="1188.36" y="-13.32" font-family="Helvetica,sans-Serif" font-size="14.00">OutputWorkspaceGroup</text>
</g>
<!-- SampleLog -->
<g id="node24" class="node">
<title>SampleLog</title>
<ellipse fill="khaki" stroke="black" cx="1748.36" cy="-180.25" rx="64.89" ry="18"/>
<text text-anchor="middle" x="1748.36" y="-175.57" font-family="Helvetica,sans-Serif" font-size="14.00">SampleLog</text>
</g>
<!-- SampleLog&#45;&gt;CopyLogs -->
<g id="edge32" class="edge">
<title>SampleLog&#45;&gt;CopyLogs</title>
<path fill="none" stroke="black" d="M1763.59,-162.43C1775.03,-149.8 1790.89,-132.27 1803.94,-117.86"/>
<polygon fill="black" stroke="black" points="1806.5,-120.25 1810.62,-110.49 1801.31,-115.55 1806.5,-120.25"/>
</g>
<!-- ConvertSpectrumAxis&#45;&gt;PlotPeakByLogValue -->
<g id="edge8" class="edge">
<title>ConvertSpectrumAxis&#45;&gt;PlotPeakByLogValue</title>
<path fill="none" stroke="black" d="M1135.36,-502.55C1102.96,-488.76 1057.55,-469.43 1022.72,-454.61"/>
<polygon fill="black" stroke="black" points="1024.24,-451.45 1013.67,-450.76 1021.5,-457.9 1024.24,-451.45"/>
<text text-anchor="middle" x="1147.61" y="-471.7" font-family="Helvetica,sans-Serif" font-size="14.00">InputWorkspace</text>
</g>
<!-- PlotPeakByLogValue&#45;&gt;FitWorkspaces -->
<g id="edge23" class="edge">
<title>PlotPeakByLogValue&#45;&gt;FitWorkspaces</title>
<path fill="none" stroke="black" d="M1049.14,-413.3C1120.87,-397.22 1226.19,-373.59 1294.03,-358.38"/>
<polygon fill="black" stroke="black" points="1294.53,-361.85 1303.52,-356.25 1293,-355.02 1294.53,-361.85"/>
</g>
<!-- PlotPeakByLogValue&#45;&gt;NormalisedCovarianceWorkspace -->
<g id="edge21" class="edge">
<title>PlotPeakByLogValue&#45;&gt;NormalisedCovarianceWorkspace</title>
<path fill="none" stroke="black" d="M924.77,-413.3C887.05,-399.18 833.83,-379.25 793.91,-364.3"/>
<polygon fill="black" stroke="black" points="795.29,-361.08 784.7,-360.85 792.84,-367.64 795.29,-361.08"/>
</g>
<!-- PlotPeakByLogValue&#45;&gt;OutputParameterWorkspace -->
<g id="edge22" class="edge">
<title>PlotPeakByLogValue&#45;&gt;OutputParameterWorkspace</title>
<path fill="none" stroke="black" d="M992.75,-413.3C1008.75,-400.26 1030.82,-382.26 1048.55,-367.81"/>
<polygon fill="black" stroke="black" points="1050.65,-370.61 1056.19,-361.58 1046.23,-365.18 1050.65,-370.61"/>
</g>
<!-- ExtractQENSMembers -->
<g id="node28" class="node">
<title>ExtractQENSMembers</title>
<path fill="lightskyblue" stroke="black" d="M1261.23,-109C1261.23,-109 1115.48,-109 1115.48,-109 1109.48,-109 1103.48,-103 1103.48,-97 1103.48,-97 1103.48,-85 1103.48,-85 1103.48,-79 1109.48,-73 1115.48,-73 1115.48,-73 1261.23,-73 1261.23,-73 1267.23,-73 1273.23,-79 1273.23,-85 1273.23,-85 1273.23,-97 1273.23,-97 1273.23,-103 1267.23,-109 1261.23,-109"/>
<text text-anchor="middle" x="1188.36" y="-86.33" font-family="Helvetica,sans-Serif" font-size="14.00">ExtractQENSMembers</text>
</g>
<!-- ExtractQENSMembers&#45;&gt;OutputWorkspaceGroup -->
<g id="edge40" class="edge">
<title>ExtractQENSMembers&#45;&gt;OutputWorkspaceGroup</title>
<path fill="none" stroke="black" d="M1188.36,-72.81C1188.36,-65.23 1188.36,-56.1 1188.36,-47.54"/>
<polygon fill="black" stroke="black" points="1191.86,-47.54 1188.36,-37.54 1184.86,-47.54 1191.86,-47.54"/>
</g>
<!-- ResultWorkspace -->
<g id="node36" class="node">
<title>ResultWorkspace</title>
<ellipse fill="lightgrey" stroke="black" cx="1571.36" cy="-180.25" rx="94.35" ry="18"/>
<text text-anchor="middle" x="1571.36" y="-175.57" font-family="Helvetica,sans-Serif" font-size="14.00">ResultWorkspace</text>
</g>
<!-- ProcessIndirectFitParameters&#45;&gt;ResultWorkspace -->
<g id="edge28" class="edge">
<title>ProcessIndirectFitParameters&#45;&gt;ResultWorkspace</title>
<path fill="none" stroke="black" d="M1717.9,-234.88C1689.53,-224.5 1653.42,-211.28 1624.15,-200.57"/>
<polygon fill="black" stroke="black" points="1625.72,-197.42 1615.12,-197.27 1623.31,-203.99 1625.72,-197.42"/>
</g>
<!-- CopyLogs&#45;&gt;OutputWorkspace -->
<g id="edge31" class="edge">
<title>CopyLogs&#45;&gt;OutputWorkspace</title>
<path fill="none" stroke="black" d="M1827.36,-72.81C1827.36,-65.23 1827.36,-56.1 1827.36,-47.54"/>
<polygon fill="black" stroke="black" points="1830.86,-47.54 1827.36,-37.54 1823.86,-47.54 1830.86,-47.54"/>
</g>
<!-- RenameWorkspace&#45;&gt;do_extract_members -->
<g id="edge37" class="edge">
<title>RenameWorkspace&#45;&gt;do_extract_members</title>
<path fill="none" stroke="black" d="M1188.36,-235.06C1188.36,-227.48 1188.36,-218.35 1188.36,-209.79"/>
<polygon fill="black" stroke="black" points="1191.86,-209.79 1188.36,-199.79 1184.86,-209.79 1191.86,-209.79"/>
</g>
<!-- do_extract_members&#45;&gt;ExtractQENSMembers -->
<g id="edge39" class="edge">
<title>do_extract_members&#45;&gt;ExtractQENSMembers</title>
<path fill="none" stroke="black" d="M1188.36,-162.01C1188.36,-150.18 1188.36,-134.2 1188.36,-120.5"/>
<polygon fill="black" stroke="black" points="1191.86,-120.72 1188.36,-110.72 1184.86,-120.72 1191.86,-120.72"/>
<text text-anchor="middle" x="1199.61" y="-130.95" font-family="Helvetica,sans-Serif" font-size="14.00">Yes</text>
</g>
<!-- extract_members -->
<g id="node33" class="node">
<title>extract_members</title>
<polygon fill="lightseagreen" stroke="black" points="2163.36,-686.5 1949.36,-686.5 1949.36,-592.25 2163.36,-592.25 2163.36,-686.5"/>
<text text-anchor="middle" x="2056.36" y="-669.2" font-family="Helvetica,sans-Serif" font-size="14.00">ExtractQENSMembers:</text>
<text text-anchor="middle" x="2056.36" y="-651.95" font-family="Helvetica,sans-Serif" font-size="14.00">Extracts the members of</text>
<text text-anchor="middle" x="2056.36" y="-634.7" font-family="Helvetica,sans-Serif" font-size="14.00">the convolution fit, into</text>
<text text-anchor="middle" x="2056.36" y="-617.45" font-family="Helvetica,sans-Serif" font-size="14.00"> their own workspace, which</text>
<text text-anchor="middle" x="2056.36" y="-600.2" font-family="Helvetica,sans-Serif" font-size="14.00"> are subsequently grouped.</text>
</g>
<!-- FitFunction&#45;&gt;PlotPeakByLogValue -->
<g id="edge10" class="edge">
<title>FitFunction&#45;&gt;PlotPeakByLogValue</title>
<path fill="none" stroke="black" d="M921.31,-503.18C930.12,-490.79 942.27,-473.68 952.4,-459.43"/>
<polygon fill="black" stroke="black" points="955.2,-461.53 958.14,-451.35 949.49,-457.48 955.2,-461.53"/>
</g>
<!-- FitType -->
<g id="node35" class="node">
<title>FitType</title>
<ellipse fill="lightgrey" stroke="black" cx="1703.36" cy="-431.75" rx="44.37" ry="18"/>
<text text-anchor="middle" x="1703.36" y="-427.07" font-family="Helvetica,sans-Serif" font-size="14.00">FitType</text>
</g>
<!-- FitType&#45;&gt;ParameterNames -->
<g id="edge25" class="edge">
<title>FitType&#45;&gt;ParameterNames</title>
<path fill="none" stroke="black" d="M1699.83,-413.72C1698.5,-402.97 1698.49,-389.15 1704.36,-378.5 1706.79,-374.09 1710.03,-370.14 1713.73,-366.62"/>
<polygon fill="black" stroke="black" points="1715.65,-369.57 1721.23,-360.56 1711.25,-364.13 1715.65,-369.57"/>
<text text-anchor="middle" x="1849.86" y="-382.45" font-family="Helvetica,sans-Serif" font-size="14.00">Desired parameters obtained from FitType</text>
</g>
<!-- ResultWorkspace&#45;&gt;CopyLogs -->
<g id="edge30" class="edge">
<title>ResultWorkspace&#45;&gt;CopyLogs</title>
<path fill="none" stroke="black" d="M1595.35,-162.37C1612.79,-150.83 1637.35,-136.06 1660.86,-127 1697.35,-112.94 1740.62,-104.06 1773.91,-98.77"/>
<polygon fill="black" stroke="black" points="1774.39,-102.23 1783.74,-97.27 1773.33,-95.31 1774.39,-102.23"/>
<text text-anchor="middle" x="1718.11" y="-130.95" font-family="Helvetica,sans-Serif" font-size="14.00">Input workspace</text>
</g>
<!-- FitWorkspace -->
<g id="node37" class="node">
<title>FitWorkspace</title>
<ellipse fill="lightgrey" stroke="black" cx="1906.36" cy="-180.25" rx="75.41" ry="18"/>
<text text-anchor="middle" x="1906.36" y="-175.57" font-family="Helvetica,sans-Serif" font-size="14.00">FitWorkspace</text>
</g>
<!-- FitWorkspace&#45;&gt;CopyLogs -->
<g id="edge33" class="edge">
<title>FitWorkspace&#45;&gt;CopyLogs</title>
<path fill="none" stroke="black" d="M1891.12,-162.43C1879.69,-149.8 1863.82,-132.27 1850.78,-117.86"/>
<polygon fill="black" stroke="black" points="1853.41,-115.55 1844.1,-110.49 1848.22,-120.25 1853.41,-115.55"/>
</g>
</g>
</svg>
