<?xml version="1.0" encoding="UTF-8" standalone="no"?>
<!DOCTYPE svg PUBLIC "-//W3C//DTD SVG 1.1//EN"
 "http://www.w3.org/Graphics/SVG/1.1/DTD/svg11.dtd">
<!-- Generated by graphviz version 13.1.0 (20250701.1702)
 -->
<!-- Title: QENSFitSequential Pages: 1 -->
<svg width="2165pt" height="720pt"
 viewBox="0.00 0.00 2165.00 720.00" xmlns="http://www.w3.org/2000/svg" xmlns:xlink="http://www.w3.org/1999/xlink">
<g id="graph0" class="graph" transform="scale(1 1) rotate(0) translate(4 715.75)">
<title>QENSFitSequential</title>
<polygon fill="white" stroke="none" points="-4,4 -4,-715.75 2161.36,-715.75 2161.36,4 -4,4"/>
<text xml:space="preserve" text-anchor="middle" x="1078.68" y="-694.45" font-family="Helvetica,sans-Serif" font-size="14.00">QENSFitSequential Flowchart</text>
<!-- InputWorkspace -->
<g id="node1" class="node">
<title>InputWorkspace</title>
<ellipse fill="khaki" stroke="black" cx="1835.36" cy="-639.38" rx="90.14" ry="18"/>
<text xml:space="preserve" text-anchor="middle" x="1835.36" y="-634.7" font-family="Helvetica,sans-Serif" font-size="14.00">InputWorkspace</text>
</g>
<!-- ConvertSpectrumAxis -->
<g id="node25" class="node">
<title>ConvertSpectrumAxis</title>
<path fill="lightskyblue" stroke="black" d="M1248.11,-539C1248.11,-539 1104.61,-539 1104.61,-539 1098.61,-539 1092.61,-533 1092.61,-527 1092.61,-527 1092.61,-515 1092.61,-515 1092.61,-509 1098.61,-503 1104.61,-503 1104.61,-503 1248.11,-503 1248.11,-503 1254.11,-503 1260.11,-509 1260.11,-515 1260.11,-515 1260.11,-527 1260.11,-527 1260.11,-533 1254.11,-539 1248.11,-539"/>
<text xml:space="preserve" text-anchor="middle" x="1176.36" y="-516.33" font-family="Helvetica,sans-Serif" font-size="14.00">ConvertSpectrumAxis</text>
</g>
<!-- InputWorkspace&#45;&gt;ConvertSpectrumAxis -->
<g id="edge7" class="edge">
<title>InputWorkspace&#45;&gt;ConvertSpectrumAxis</title>
<path fill="none" stroke="black" d="M1775.48,-625.53C1693.88,-608.33 1543.05,-577.59 1413.36,-557 1353.02,-547.42 1334.98,-548.63 1271.51,-539.26"/>
<polygon fill="black" stroke="black" points="1272.38,-535.85 1261.97,-537.82 1271.33,-542.78 1272.38,-535.85"/>
<text xml:space="preserve" text-anchor="middle" x="1615.7" y="-560.95" font-family="Helvetica,sans-Serif" font-size="14.00">Attempt conversion to Elastic Q</text>
</g>
<!-- CopyLogs -->
<g id="node30" class="node">
<title>CopyLogs</title>
<path fill="lightskyblue" stroke="black" d="M1857.11,-109C1857.11,-109 1797.61,-109 1797.61,-109 1791.61,-109 1785.61,-103 1785.61,-97 1785.61,-97 1785.61,-85 1785.61,-85 1785.61,-79 1791.61,-73 1797.61,-73 1797.61,-73 1857.11,-73 1857.11,-73 1863.11,-73 1869.11,-79 1869.11,-85 1869.11,-85 1869.11,-97 1869.11,-97 1869.11,-103 1863.11,-109 1857.11,-109"/>
<text xml:space="preserve" text-anchor="middle" x="1827.36" y="-86.33" font-family="Helvetica,sans-Serif" font-size="14.00">CopyLogs</text>
</g>
<!-- InputWorkspace&#45;&gt;CopyLogs -->
<g id="edge29" class="edge">
<title>InputWorkspace&#45;&gt;CopyLogs</title>
<path fill="none" stroke="black" d="M1871.83,-622.54C1922.86,-599.2 2009.36,-554.8 2009.36,-522 2009.36,-522 2009.36,-522 2009.36,-179.25 2009.36,-121.79 1934.69,-102.15 1881.01,-95.44"/>
<polygon fill="black" stroke="black" points="1881.4,-91.97 1871.07,-94.34 1880.62,-98.92 1881.4,-91.97"/>
</g>
<!-- do_extract_members -->
<g id="node32" class="node">
<title>do_extract_members</title>
<polygon fill="limegreen" stroke="black" points="1188.36,-198.25 1024.42,-180.25 1188.36,-162.25 1352.29,-180.25 1188.36,-198.25"/>
<text xml:space="preserve" text-anchor="middle" x="1188.36" y="-175.57" font-family="Helvetica,sans-Serif" font-size="14.00">Do Extract Members?</text>
</g>
<!-- InputWorkspace&#45;&gt;do_extract_members -->
<g id="edge38" class="edge">
<title>InputWorkspace&#45;&gt;do_extract_members</title>
<path fill="none" stroke="black" d="M1865.37,-622.12C1884.62,-612.27 1910.4,-600.13 1934.36,-592.25 1972.69,-579.64 1997.81,-605.49 2023.36,-574.25 2043.7,-549.38 2016.99,-520.79 1990.36,-503 1863.16,-418.06 1765.28,-550.68 1650.36,-449.75 1594.51,-400.7 1656.7,-341.01 1603.36,-289.25 1556.14,-243.44 1376.3,-209.4 1269.48,-192.72"/>
<polygon fill="black" stroke="black" points="1270.33,-189.31 1259.92,-191.25 1269.27,-196.23 1270.33,-189.31"/>
</g>
<!-- FitFunction -->
<g id="node34" class="node">
<title>FitFunction</title>
<ellipse fill="lightgrey" stroke="black" cx="909.36" cy="-521" rx="63.83" ry="18"/>
<text xml:space="preserve" text-anchor="middle" x="909.36" y="-516.33" font-family="Helvetica,sans-Serif" font-size="14.00">FitFunction</text>
</g>
<!-- InputWorkspace&#45;&gt;FitFunction -->
<g id="edge1" class="edge">
<title>InputWorkspace&#45;&gt;FitFunction</title>
<path fill="none" stroke="black" d="M1758.04,-629.87C1562.4,-608.29 1057.86,-552.15 982.36,-539 977.39,-538.14 972.26,-537.14 967.12,-536.08"/>
<polygon fill="black" stroke="black" points="967.92,-532.67 957.41,-533.99 966.45,-539.52 967.92,-532.67"/>
</g>
<!-- Input -->
<g id="node2" class="node">
<title>Input</title>
<ellipse fill="khaki" stroke="black" cx="730.36" cy="-639.38" rx="37" ry="18"/>
<text xml:space="preserve" text-anchor="middle" x="730.36" y="-634.7" font-family="Helvetica,sans-Serif" font-size="14.00">Input</text>
</g>
<!-- PlotPeakByLogValue -->
<g id="node26" class="node">
<title>PlotPeakByLogValue</title>
<path fill="lightskyblue" stroke="black" d="M1067.73,-449.75C1067.73,-449.75 936.98,-449.75 936.98,-449.75 930.98,-449.75 924.98,-443.75 924.98,-437.75 924.98,-437.75 924.98,-425.75 924.98,-425.75 924.98,-419.75 930.98,-413.75 936.98,-413.75 936.98,-413.75 1067.73,-413.75 1067.73,-413.75 1073.73,-413.75 1079.73,-419.75 1079.73,-425.75 1079.73,-425.75 1079.73,-437.75 1079.73,-437.75 1079.73,-443.75 1073.73,-449.75 1067.73,-449.75"/>
<text xml:space="preserve" text-anchor="middle" x="1002.36" y="-427.07" font-family="Helvetica,sans-Serif" font-size="14.00">PlotPeakByLogValue</text>
</g>
<!-- Input&#45;&gt;PlotPeakByLogValue -->
<g id="edge9" class="edge">
<title>Input&#45;&gt;PlotPeakByLogValue</title>
<path fill="none" stroke="black" d="M739.65,-621.57C755.9,-593.53 792.04,-536.93 836.36,-503 864.36,-481.56 899.89,-465.38 930.88,-453.99"/>
<polygon fill="black" stroke="black" points="931.96,-457.32 940.21,-450.66 929.61,-450.72 931.96,-457.32"/>
</g>
<!-- Input&#45;&gt;FitFunction -->
<g id="edge2" class="edge">
<title>Input&#45;&gt;FitFunction</title>
<path fill="none" stroke="black" d="M744.22,-622.2C752.85,-612.74 764.53,-600.99 776.36,-592.25 803.89,-571.91 838.1,-553.98 864.93,-541.32"/>
<polygon fill="black" stroke="black" points="866.22,-544.58 873.82,-537.2 863.28,-538.23 866.22,-544.58"/>
</g>
<!-- FitParameters -->
<g id="node3" class="node">
<title>FitParameters</title>
<ellipse fill="khaki" stroke="black" cx="863.36" cy="-639.38" rx="77.51" ry="18"/>
<text xml:space="preserve" text-anchor="middle" x="863.36" y="-634.7" font-family="Helvetica,sans-Serif" font-size="14.00">FitParameters</text>
</g>
<!-- FitParameters&#45;&gt;FitFunction -->
<g id="edge4" class="edge">
<title>FitParameters&#45;&gt;FitFunction</title>
<path fill="none" stroke="black" d="M870.24,-620.95C877.7,-602.08 889.71,-571.7 898.46,-549.57"/>
<polygon fill="black" stroke="black" points="901.6,-551.16 902.02,-540.57 895.09,-548.58 901.6,-551.16"/>
</g>
<!-- Function -->
<g id="node4" class="node">
<title>Function</title>
<ellipse fill="khaki" stroke="black" cx="1011.36" cy="-639.38" rx="52.79" ry="18"/>
<text xml:space="preserve" text-anchor="middle" x="1011.36" y="-634.7" font-family="Helvetica,sans-Serif" font-size="14.00">Function</text>
</g>
<!-- Function&#45;&gt;FitFunction -->
<g id="edge3" class="edge">
<title>Function&#45;&gt;FitFunction</title>
<path fill="none" stroke="black" d="M996.74,-621.7C979.62,-602.17 951.1,-569.62 931.31,-547.05"/>
<polygon fill="black" stroke="black" points="934.16,-544.99 924.94,-539.78 928.9,-549.61 934.16,-544.99"/>
</g>
<!-- StartX -->
<g id="node5" class="node">
<title>StartX</title>
<ellipse fill="khaki" stroke="black" cx="1033.36" cy="-521" rx="41.74" ry="18"/>
<text xml:space="preserve" text-anchor="middle" x="1033.36" y="-516.33" font-family="Helvetica,sans-Serif" font-size="14.00">StartX</text>
</g>
<!-- StartX&#45;&gt;PlotPeakByLogValue -->
<g id="edge11" class="edge">
<title>StartX&#45;&gt;PlotPeakByLogValue</title>
<path fill="none" stroke="black" d="M1027.23,-502.76C1022.94,-490.69 1017.12,-474.31 1012.19,-460.42"/>
<polygon fill="black" stroke="black" points="1015.62,-459.63 1008.98,-451.38 1009.03,-461.97 1015.62,-459.63"/>
</g>
<!-- EndX -->
<g id="node6" class="node">
<title>EndX</title>
<ellipse fill="khaki" stroke="black" cx="1315.36" cy="-521" rx="37" ry="18"/>
<text xml:space="preserve" text-anchor="middle" x="1315.36" y="-516.33" font-family="Helvetica,sans-Serif" font-size="14.00">EndX</text>
</g>
<!-- EndX&#45;&gt;PlotPeakByLogValue -->
<g id="edge12" class="edge">
<title>EndX&#45;&gt;PlotPeakByLogValue</title>
<path fill="none" stroke="black" d="M1294.7,-505.73C1276.29,-493.71 1248.18,-477.02 1221.36,-467.75 1179.86,-453.4 1131.88,-444.89 1091.43,-439.87"/>
<polygon fill="black" stroke="black" points="1092.07,-436.42 1081.73,-438.72 1091.25,-443.37 1092.07,-436.42"/>
</g>
<!-- SpecMin -->
<g id="node7" class="node">
<title>SpecMin</title>
<ellipse fill="khaki" stroke="black" cx="1134.36" cy="-639.38" rx="52.26" ry="18"/>
<text xml:space="preserve" text-anchor="middle" x="1134.36" y="-634.7" font-family="Helvetica,sans-Serif" font-size="14.00">SpecMin</text>
</g>
<!-- SpecMin&#45;&gt;FitFunction -->
<g id="edge5" class="edge">
<title>SpecMin&#45;&gt;FitFunction</title>
<path fill="none" stroke="black" d="M1115.42,-622.15C1103.78,-612.68 1088.28,-600.92 1073.36,-592.25 1036.62,-570.92 992.17,-552.28 958.82,-539.57"/>
<polygon fill="black" stroke="black" points="960.41,-536.43 949.82,-536.19 957.95,-542.98 960.41,-536.43"/>
</g>
<!-- SpecMax -->
<g id="node8" class="node">
<title>SpecMax</title>
<ellipse fill="khaki" stroke="black" cx="1259.36" cy="-639.38" rx="54.89" ry="18"/>
<text xml:space="preserve" text-anchor="middle" x="1259.36" y="-634.7" font-family="Helvetica,sans-Serif" font-size="14.00">SpecMax</text>
</g>
<!-- SpecMax&#45;&gt;FitFunction -->
<g id="edge6" class="edge">
<title>SpecMax&#45;&gt;FitFunction</title>
<path fill="none" stroke="black" d="M1240.96,-622.18C1228.77,-612.22 1212.02,-599.95 1195.36,-592.25 1184.95,-587.44 1048.8,-554.9 968.17,-535.84"/>
<polygon fill="black" stroke="black" points="969.19,-532.48 958.65,-533.59 967.58,-539.3 969.19,-532.48"/>
</g>
<!-- ConvolveMembers -->
<g id="node9" class="node">
<title>ConvolveMembers</title>
<ellipse fill="khaki" stroke="black" cx="1471.36" cy="-521" rx="101.19" ry="18"/>
<text xml:space="preserve" text-anchor="middle" x="1471.36" y="-516.33" font-family="Helvetica,sans-Serif" font-size="14.00">ConvolveMembers</text>
</g>
<!-- ConvolveMembers&#45;&gt;PlotPeakByLogValue -->
<g id="edge13" class="edge">
<title>ConvolveMembers&#45;&gt;PlotPeakByLogValue</title>
<path fill="none" stroke="black" d="M1417.28,-505.41C1373.57,-494 1310.33,-478.35 1254.36,-467.75 1200.62,-457.57 1139.91,-449.05 1091.55,-442.97"/>
<polygon fill="black" stroke="black" points="1092.02,-439.5 1081.66,-441.74 1091.15,-446.45 1092.02,-439.5"/>
</g>
<!-- ExtractMembers -->
<g id="node10" class="node">
<title>ExtractMembers</title>
<ellipse fill="khaki" stroke="black" cx="561.36" cy="-253.25" rx="91.19" ry="18"/>
<text xml:space="preserve" text-anchor="middle" x="561.36" y="-248.57" font-family="Helvetica,sans-Serif" font-size="14.00">ExtractMembers</text>
</g>
<!-- ExtractMembers&#45;&gt;do_extract_members -->
<g id="edge36" class="edge">
<title>ExtractMembers&#45;&gt;do_extract_members</title>
<path fill="none" stroke="black" d="M627.16,-240.43C638.54,-238.56 650.28,-236.76 661.36,-235.25 808.42,-215.24 979.48,-199 1085.85,-189.73"/>
<polygon fill="black" stroke="black" points="1086.05,-193.22 1095.71,-188.87 1085.44,-186.25 1086.05,-193.22"/>
</g>
<!-- PassWSIndexToFunction -->
<g id="node11" class="node">
<title>PassWSIndexToFunction</title>
<ellipse fill="khaki" stroke="black" cx="1718.36" cy="-521" rx="127.49" ry="18"/>
<text xml:space="preserve" text-anchor="middle" x="1718.36" y="-516.33" font-family="Helvetica,sans-Serif" font-size="14.00">PassWSIndexToFunction</text>
</g>
<!-- PassWSIndexToFunction&#45;&gt;PlotPeakByLogValue -->
<g id="edge19" class="edge">
<title>PassWSIndexToFunction&#45;&gt;PlotPeakByLogValue</title>
<path fill="none" stroke="black" d="M1626.98,-508.06C1543.72,-497.26 1417.33,-481.05 1307.36,-467.75 1234.63,-458.95 1152.08,-449.51 1091.22,-442.66"/>
<polygon fill="black" stroke="black" points="1091.94,-439.22 1081.61,-441.58 1091.16,-446.17 1091.94,-439.22"/>
</g>
<!-- Minimizer -->
<g id="node12" class="node">
<title>Minimizer</title>
<ellipse fill="khaki" stroke="black" cx="1922.36" cy="-521" rx="58.57" ry="18"/>
<text xml:space="preserve" text-anchor="middle" x="1922.36" y="-516.33" font-family="Helvetica,sans-Serif" font-size="14.00">Minimizer</text>
</g>
<!-- Minimizer&#45;&gt;PlotPeakByLogValue -->
<g id="edge15" class="edge">
<title>Minimizer&#45;&gt;PlotPeakByLogValue</title>
<path fill="none" stroke="black" d="M1879.78,-508.23C1871.4,-506.23 1862.64,-504.37 1854.36,-503 1578.46,-457.45 1247.17,-440.9 1091.47,-435.33"/>
<polygon fill="black" stroke="black" points="1091.75,-431.84 1081.63,-434.98 1091.5,-438.83 1091.75,-431.84"/>
</g>
<!-- CostFunction -->
<g id="node13" class="node">
<title>CostFunction</title>
<ellipse fill="khaki" stroke="black" cx="74.36" cy="-521" rx="74.36" ry="18"/>
<text xml:space="preserve" text-anchor="middle" x="74.36" y="-516.33" font-family="Helvetica,sans-Serif" font-size="14.00">CostFunction</text>
</g>
<!-- CostFunction&#45;&gt;PlotPeakByLogValue -->
<g id="edge16" class="edge">
<title>CostFunction&#45;&gt;PlotPeakByLogValue</title>
<path fill="none" stroke="black" d="M128.27,-508.33C137.93,-506.42 147.92,-504.56 157.36,-503 430.66,-457.94 758.72,-441.17 913.38,-435.44"/>
<polygon fill="black" stroke="black" points="913.28,-438.95 923.15,-435.09 913.03,-431.95 913.28,-438.95"/>
</g>
<!-- MaxIterations -->
<g id="node14" class="node">
<title>MaxIterations</title>
<ellipse fill="khaki" stroke="black" cx="244.36" cy="-521" rx="77.51" ry="18"/>
<text xml:space="preserve" text-anchor="middle" x="244.36" y="-516.33" font-family="Helvetica,sans-Serif" font-size="14.00">MaxIterations</text>
</g>
<!-- MaxIterations&#45;&gt;PlotPeakByLogValue -->
<g id="edge14" class="edge">
<title>MaxIterations&#45;&gt;PlotPeakByLogValue</title>
<path fill="none" stroke="black" d="M300.71,-508.4C310.58,-506.5 320.75,-504.63 330.36,-503 440.56,-484.32 468.28,-480.2 579.36,-467.75 694.47,-454.85 827.7,-444.6 913.4,-438.6"/>
<polygon fill="black" stroke="black" points="913.41,-442.11 923.14,-437.93 912.92,-435.13 913.41,-442.11"/>
</g>
<!-- PeakRadius -->
<g id="node15" class="node">
<title>PeakRadius</title>
<ellipse fill="khaki" stroke="black" cx="407.36" cy="-521" rx="67.52" ry="18"/>
<text xml:space="preserve" text-anchor="middle" x="407.36" y="-516.33" font-family="Helvetica,sans-Serif" font-size="14.00">PeakRadius</text>
</g>
<!-- PeakRadius&#45;&gt;PlotPeakByLogValue -->
<g id="edge17" class="edge">
<title>PeakRadius&#45;&gt;PlotPeakByLogValue</title>
<path fill="none" stroke="black" d="M457.4,-508.55C466.36,-506.62 475.62,-504.69 484.36,-503 578.14,-484.86 601.77,-481.01 696.36,-467.75 769.26,-457.53 852.26,-448.18 913.4,-441.72"/>
<polygon fill="black" stroke="black" points="913.47,-445.23 923.05,-440.7 912.74,-438.27 913.47,-445.23"/>
</g>
<!-- EvaluationType -->
<g id="node16" class="node">
<title>EvaluationType</title>
<ellipse fill="khaki" stroke="black" cx="577.36" cy="-521" rx="84.35" ry="18"/>
<text xml:space="preserve" text-anchor="middle" x="577.36" y="-516.33" font-family="Helvetica,sans-Serif" font-size="14.00">EvaluationType</text>
</g>
<!-- EvaluationType&#45;&gt;PlotPeakByLogValue -->
<g id="edge20" class="edge">
<title>EvaluationType&#45;&gt;PlotPeakByLogValue</title>
<path fill="none" stroke="black" d="M624.19,-505.7C663.05,-494.23 719.91,-478.35 770.36,-467.75 817.2,-457.91 869.91,-449.73 913.24,-443.76"/>
<polygon fill="black" stroke="black" points="913.69,-447.23 923.13,-442.41 912.75,-440.29 913.69,-447.23"/>
</g>
<!-- LogValue -->
<g id="node17" class="node">
<title>LogValue</title>
<ellipse fill="khaki" stroke="black" cx="734.36" cy="-521" rx="54.89" ry="18"/>
<text xml:space="preserve" text-anchor="middle" x="734.36" y="-516.33" font-family="Helvetica,sans-Serif" font-size="14.00">LogValue</text>
</g>
<!-- LogValue&#45;&gt;PlotPeakByLogValue -->
<g id="edge18" class="edge">
<title>LogValue&#45;&gt;PlotPeakByLogValue</title>
<path fill="none" stroke="black" d="M751.31,-503.47C764.44,-491.63 783.66,-476.34 803.36,-467.75 837.74,-452.76 878.12,-444.19 913.49,-439.28"/>
<polygon fill="black" stroke="black" points="913.81,-442.77 923.28,-438.01 912.91,-435.83 913.81,-442.77"/>
</g>
<!-- FitWorkspaces -->
<g id="node18" class="node">
<title>FitWorkspaces</title>
<ellipse fill="khaki" stroke="black" cx="1360.36" cy="-342.5" rx="80.67" ry="18"/>
<text xml:space="preserve" text-anchor="middle" x="1360.36" y="-337.82" font-family="Helvetica,sans-Serif" font-size="14.00">FitWorkspaces</text>
</g>
<!-- RenameWorkspace -->
<g id="node31" class="node">
<title>RenameWorkspace</title>
<path fill="lightskyblue" stroke="black" d="M1250.36,-271.25C1250.36,-271.25 1126.36,-271.25 1126.36,-271.25 1120.36,-271.25 1114.36,-265.25 1114.36,-259.25 1114.36,-259.25 1114.36,-247.25 1114.36,-247.25 1114.36,-241.25 1120.36,-235.25 1126.36,-235.25 1126.36,-235.25 1250.36,-235.25 1250.36,-235.25 1256.36,-235.25 1262.36,-241.25 1262.36,-247.25 1262.36,-247.25 1262.36,-259.25 1262.36,-259.25 1262.36,-265.25 1256.36,-271.25 1250.36,-271.25"/>
<text xml:space="preserve" text-anchor="middle" x="1188.36" y="-248.57" font-family="Helvetica,sans-Serif" font-size="14.00">RenameWorkspace</text>
</g>
<!-- FitWorkspaces&#45;&gt;RenameWorkspace -->
<g id="edge35" class="edge">
<title>FitWorkspaces&#45;&gt;RenameWorkspace</title>
<path fill="none" stroke="black" d="M1371.59,-324.27C1377.29,-313.17 1381.47,-299.04 1373.36,-289.25 1360.37,-273.57 1316.21,-264.86 1274.29,-260.06"/>
<polygon fill="black" stroke="black" points="1274.67,-256.58 1264.35,-258.99 1273.92,-263.54 1274.67,-256.58"/>
<text xml:space="preserve" text-anchor="middle" x="1488.5" y="-293.2" font-family="Helvetica,sans-Serif" font-size="14.00">Renames to match input names</text>
</g>
<!-- NormalisedCovarianceWorkspace -->
<g id="node19" class="node">
<title>NormalisedCovarianceWorkspace</title>
<ellipse fill="khaki" stroke="black" cx="738.36" cy="-342.5" rx="173.27" ry="18"/>
<text xml:space="preserve" text-anchor="middle" x="738.36" y="-337.82" font-family="Helvetica,sans-Serif" font-size="14.00">NormalisedCovarianceWorkspace</text>
</g>
<!-- DeleteWorkspace -->
<g id="node27" class="node">
<title>DeleteWorkspace</title>
<path fill="lightskyblue" stroke="black" d="M794.36,-271.25C794.36,-271.25 682.36,-271.25 682.36,-271.25 676.36,-271.25 670.36,-265.25 670.36,-259.25 670.36,-259.25 670.36,-247.25 670.36,-247.25 670.36,-241.25 676.36,-235.25 682.36,-235.25 682.36,-235.25 794.36,-235.25 794.36,-235.25 800.36,-235.25 806.36,-241.25 806.36,-247.25 806.36,-247.25 806.36,-259.25 806.36,-259.25 806.36,-265.25 800.36,-271.25 794.36,-271.25"/>
<text xml:space="preserve" text-anchor="middle" x="738.36" y="-248.57" font-family="Helvetica,sans-Serif" font-size="14.00">DeleteWorkspace</text>
</g>
<!-- NormalisedCovarianceWorkspace&#45;&gt;DeleteWorkspace -->
<g id="edge24" class="edge">
<title>NormalisedCovarianceWorkspace&#45;&gt;DeleteWorkspace</title>
<path fill="none" stroke="black" d="M738.36,-324.26C738.36,-312.43 738.36,-296.45 738.36,-282.75"/>
<polygon fill="black" stroke="black" points="741.86,-282.97 738.36,-272.97 734.86,-282.97 741.86,-282.97"/>
<text xml:space="preserve" text-anchor="middle" x="886.48" y="-293.2" font-family="Helvetica,sans-Serif" font-size="14.00">Unrequired product of PlotPeakByLogValue</text>
</g>
<!-- ParameterNames -->
<g id="node20" class="node">
<title>ParameterNames</title>
<ellipse fill="khaki" stroke="black" cx="1760.36" cy="-342.5" rx="94.88" ry="18"/>
<text xml:space="preserve" text-anchor="middle" x="1760.36" y="-337.82" font-family="Helvetica,sans-Serif" font-size="14.00">ParameterNames</text>
</g>
<!-- ProcessIndirectFitParameters -->
<g id="node29" class="node">
<title>ProcessIndirectFitParameters</title>
<path fill="lightskyblue" stroke="black" d="M1861.11,-271.25C1861.11,-271.25 1669.61,-271.25 1669.61,-271.25 1663.61,-271.25 1657.61,-265.25 1657.61,-259.25 1657.61,-259.25 1657.61,-247.25 1657.61,-247.25 1657.61,-241.25 1663.61,-235.25 1669.61,-235.25 1669.61,-235.25 1861.11,-235.25 1861.11,-235.25 1867.11,-235.25 1873.11,-241.25 1873.11,-247.25 1873.11,-247.25 1873.11,-259.25 1873.11,-259.25 1873.11,-265.25 1867.11,-271.25 1861.11,-271.25"/>
<text xml:space="preserve" text-anchor="middle" x="1765.36" y="-248.57" font-family="Helvetica,sans-Serif" font-size="14.00">ProcessIndirectFitParameters</text>
</g>
<!-- ParameterNames&#45;&gt;ProcessIndirectFitParameters -->
<g id="edge27" class="edge">
<title>ParameterNames&#45;&gt;ProcessIndirectFitParameters</title>
<path fill="none" stroke="black" d="M1761.34,-324.26C1762.02,-312.43 1762.94,-296.45 1763.72,-282.75"/>
<polygon fill="black" stroke="black" points="1767.21,-283.15 1764.28,-272.96 1760.22,-282.75 1767.21,-283.15"/>
</g>
<!-- OutputWorkspace -->
<g id="node21" class="node">
<title>OutputWorkspace</title>
<ellipse fill="khaki" stroke="black" cx="1827.36" cy="-18" rx="98.56" ry="18"/>
<text xml:space="preserve" text-anchor="middle" x="1827.36" y="-13.32" font-family="Helvetica,sans-Serif" font-size="14.00">OutputWorkspace</text>
</g>
<!-- OutputParameterWorkspace -->
<g id="node22" class="node">
<title>OutputParameterWorkspace</title>
<ellipse fill="khaki" stroke="black" cx="1078.36" cy="-342.5" rx="148.54" ry="18"/>
<text xml:space="preserve" text-anchor="middle" x="1078.36" y="-337.82" font-family="Helvetica,sans-Serif" font-size="14.00">OutputParameterWorkspace</text>
</g>
<!-- OutputParameterWorkspace&#45;&gt;ProcessIndirectFitParameters -->
<g id="edge26" class="edge">
<title>OutputParameterWorkspace&#45;&gt;ProcessIndirectFitParameters</title>
<path fill="none" stroke="black" d="M1070.17,-324.25C1066.1,-312.85 1063.67,-298.38 1072.36,-289.25 1082.1,-279 1450.33,-264.96 1645.96,-258.2"/>
<polygon fill="black" stroke="black" points="1646.05,-261.7 1655.93,-257.86 1645.81,-254.7 1646.05,-261.7"/>
</g>
<!-- OutputParameterWorkspace&#45;&gt;RenameWorkspace -->
<g id="edge34" class="edge">
<title>OutputParameterWorkspace&#45;&gt;RenameWorkspace</title>
<path fill="none" stroke="black" d="M1075.73,-324.2C1075.03,-313.07 1076.09,-298.92 1083.86,-289.25 1089.31,-282.45 1096.13,-276.97 1103.66,-272.54"/>
<polygon fill="black" stroke="black" points="1105.24,-275.66 1112.56,-268 1102.06,-269.43 1105.24,-275.66"/>
<text xml:space="preserve" text-anchor="middle" x="1228.61" y="-293.2" font-family="Helvetica,sans-Serif" font-size="14.00">Change name to expected name for table</text>
</g>
<!-- OutputWorkspaceGroup -->
<g id="node23" class="node">
<title>OutputWorkspaceGroup</title>
<ellipse fill="khaki" stroke="black" cx="1188.36" cy="-18" rx="128.02" ry="18"/>
<text xml:space="preserve" text-anchor="middle" x="1188.36" y="-13.32" font-family="Helvetica,sans-Serif" font-size="14.00">OutputWorkspaceGroup</text>
</g>
<!-- SampleLog -->
<g id="node24" class="node">
<title>SampleLog</title>
<ellipse fill="khaki" stroke="black" cx="1748.36" cy="-180.25" rx="64.89" ry="18"/>
<text xml:space="preserve" text-anchor="middle" x="1748.36" y="-175.57" font-family="Helvetica,sans-Serif" font-size="14.00">SampleLog</text>
</g>
<!-- SampleLog&#45;&gt;CopyLogs -->
<g id="edge32" class="edge">
<title>SampleLog&#45;&gt;CopyLogs</title>
<path fill="none" stroke="black" d="M1763.59,-162.43C1775.03,-149.8 1790.89,-132.27 1803.94,-117.86"/>
<polygon fill="black" stroke="black" points="1806.5,-120.25 1810.62,-110.49 1801.31,-115.55 1806.5,-120.25"/>
</g>
<!-- ConvertSpectrumAxis&#45;&gt;PlotPeakByLogValue -->
<g id="edge8" class="edge">
<title>ConvertSpectrumAxis&#45;&gt;PlotPeakByLogValue</title>
<path fill="none" stroke="black" d="M1141.56,-502.55C1114.42,-488.94 1076.51,-469.93 1047.1,-455.19"/>
<polygon fill="black" stroke="black" points="1048.95,-452.2 1038.44,-450.84 1045.81,-458.46 1048.95,-452.2"/>
<text xml:space="preserve" text-anchor="middle" x="1161.19" y="-471.7" font-family="Helvetica,sans-Serif" font-size="14.00">InputWorkspace</text>
</g>
<!-- PlotPeakByLogValue&#45;&gt;FitWorkspaces -->
<g id="edge23" class="edge">
<title>PlotPeakByLogValue&#45;&gt;FitWorkspaces</title>
<path fill="none" stroke="black" d="M1073.94,-413.3C1138.91,-397.47 1233.83,-374.34 1296.33,-359.1"/>
<polygon fill="black" stroke="black" points="1296.87,-362.58 1305.75,-356.81 1295.21,-355.77 1296.87,-362.58"/>
</g>
<!-- PlotPeakByLogValue&#45;&gt;NormalisedCovarianceWorkspace -->
<g id="edge21" class="edge">
<title>PlotPeakByLogValue&#45;&gt;NormalisedCovarianceWorkspace</title>
<path fill="none" stroke="black" d="M949.57,-413.3C906.33,-399.02 845.11,-378.78 799.71,-363.78"/>
<polygon fill="black" stroke="black" points="800.85,-360.47 790.25,-360.65 798.65,-367.11 800.85,-360.47"/>
</g>
<!-- PlotPeakByLogValue&#45;&gt;OutputParameterWorkspace -->
<g id="edge22" class="edge">
<title>PlotPeakByLogValue&#45;&gt;OutputParameterWorkspace</title>
<path fill="none" stroke="black" d="M1017.37,-413.51C1028.41,-400.85 1043.58,-383.42 1056.03,-369.13"/>
<polygon fill="black" stroke="black" points="1058.45,-371.68 1062.38,-361.84 1053.17,-367.08 1058.45,-371.68"/>
</g>
<!-- ExtractQENSMembers -->
<g id="node28" class="node">
<title>ExtractQENSMembers</title>
<path fill="lightskyblue" stroke="black" d="M1261.23,-109C1261.23,-109 1115.48,-109 1115.48,-109 1109.48,-109 1103.48,-103 1103.48,-97 1103.48,-97 1103.48,-85 1103.48,-85 1103.48,-79 1109.48,-73 1115.48,-73 1115.48,-73 1261.23,-73 1261.23,-73 1267.23,-73 1273.23,-79 1273.23,-85 1273.23,-85 1273.23,-97 1273.23,-97 1273.23,-103 1267.23,-109 1261.23,-109"/>
<text xml:space="preserve" text-anchor="middle" x="1188.36" y="-86.33" font-family="Helvetica,sans-Serif" font-size="14.00">ExtractQENSMembers</text>
</g>
<!-- ExtractQENSMembers&#45;&gt;OutputWorkspaceGroup -->
<g id="edge40" class="edge">
<title>ExtractQENSMembers&#45;&gt;OutputWorkspaceGroup</title>
<path fill="none" stroke="black" d="M1188.36,-72.81C1188.36,-65.23 1188.36,-56.1 1188.36,-47.54"/>
<polygon fill="black" stroke="black" points="1191.86,-47.54 1188.36,-37.54 1184.86,-47.54 1191.86,-47.54"/>
</g>
<!-- ResultWorkspace -->
<g id="node36" class="node">
<title>ResultWorkspace</title>
<ellipse fill="lightgrey" stroke="black" cx="1571.36" cy="-180.25" rx="94.35" ry="18"/>
<text xml:space="preserve" text-anchor="middle" x="1571.36" y="-175.57" font-family="Helvetica,sans-Serif" font-size="14.00">ResultWorkspace</text>
</g>
<!-- ProcessIndirectFitParameters&#45;&gt;ResultWorkspace -->
<g id="edge28" class="edge">
<title>ProcessIndirectFitParameters&#45;&gt;ResultWorkspace</title>
<path fill="none" stroke="black" d="M1717.9,-234.88C1689.53,-224.5 1653.42,-211.28 1624.15,-200.57"/>
<polygon fill="black" stroke="black" points="1625.72,-197.42 1615.12,-197.27 1623.31,-203.99 1625.72,-197.42"/>
</g>
<!-- CopyLogs&#45;&gt;OutputWorkspace -->
<g id="edge31" class="edge">
<title>CopyLogs&#45;&gt;OutputWorkspace</title>
<path fill="none" stroke="black" d="M1827.36,-72.81C1827.36,-65.23 1827.36,-56.1 1827.36,-47.54"/>
<polygon fill="black" stroke="black" points="1830.86,-47.54 1827.36,-37.54 1823.86,-47.54 1830.86,-47.54"/>
</g>
<!-- RenameWorkspace&#45;&gt;do_extract_members -->
<g id="edge37" class="edge">
<title>RenameWorkspace&#45;&gt;do_extract_members</title>
<path fill="none" stroke="black" d="M1188.36,-235.06C1188.36,-227.48 1188.36,-218.35 1188.36,-209.79"/>
<polygon fill="black" stroke="black" points="1191.86,-209.79 1188.36,-199.79 1184.86,-209.79 1191.86,-209.79"/>
</g>
<!-- do_extract_members&#45;&gt;ExtractQENSMembers -->
<g id="edge39" class="edge">
<title>do_extract_members&#45;&gt;ExtractQENSMembers</title>
<path fill="none" stroke="black" d="M1188.36,-162.01C1188.36,-150.18 1188.36,-134.2 1188.36,-120.5"/>
<polygon fill="black" stroke="black" points="1191.86,-120.72 1188.36,-110.72 1184.86,-120.72 1191.86,-120.72"/>
<text xml:space="preserve" text-anchor="middle" x="1199.61" y="-130.95" font-family="Helvetica,sans-Serif" font-size="14.00">Yes</text>
</g>
<!-- extract_members -->
<g id="node33" class="node">
<title>extract_members</title>
<polygon fill="lightseagreen" stroke="black" points="2157.36,-686.5 1943.36,-686.5 1943.36,-592.25 2157.36,-592.25 2157.36,-686.5"/>
<text xml:space="preserve" text-anchor="middle" x="2050.36" y="-669.2" font-family="Helvetica,sans-Serif" font-size="14.00">ExtractQENSMembers:</text>
<text xml:space="preserve" text-anchor="middle" x="2050.36" y="-651.95" font-family="Helvetica,sans-Serif" font-size="14.00">Extracts the members of</text>
<text xml:space="preserve" text-anchor="middle" x="2050.36" y="-634.7" font-family="Helvetica,sans-Serif" font-size="14.00">the convolution fit, into</text>
<text xml:space="preserve" text-anchor="middle" x="2050.36" y="-617.45" font-family="Helvetica,sans-Serif" font-size="14.00"> their own workspace, which</text>
<text xml:space="preserve" text-anchor="middle" x="2050.36" y="-600.2" font-family="Helvetica,sans-Serif" font-size="14.00"> are subsequently grouped.</text>
</g>
<!-- FitFunction&#45;&gt;PlotPeakByLogValue -->
<g id="edge10" class="edge">
<title>FitFunction&#45;&gt;PlotPeakByLogValue</title>
<path fill="none" stroke="black" d="M926.85,-503.59C940.61,-490.68 960.02,-472.47 975.71,-457.75"/>
<polygon fill="black" stroke="black" points="977.99,-460.41 982.88,-451.02 973.2,-455.31 977.99,-460.41"/>
</g>
<!-- FitType -->
<g id="node35" class="node">
<title>FitType</title>
<ellipse fill="lightgrey" stroke="black" cx="1703.36" cy="-431.75" rx="44.37" ry="18"/>
<text xml:space="preserve" text-anchor="middle" x="1703.36" y="-427.07" font-family="Helvetica,sans-Serif" font-size="14.00">FitType</text>
</g>
<!-- FitType&#45;&gt;ParameterNames -->
<g id="edge25" class="edge">
<title>FitType&#45;&gt;ParameterNames</title>
<path fill="none" stroke="black" d="M1699.74,-413.67C1698.37,-402.9 1698.36,-389.08 1704.36,-378.5 1706.91,-374 1710.3,-370 1714.15,-366.47"/>
<polygon fill="black" stroke="black" points="1716.24,-369.28 1721.99,-360.38 1711.94,-363.75 1716.24,-369.28"/>
<text xml:space="preserve" text-anchor="middle" x="1849.86" y="-382.45" font-family="Helvetica,sans-Serif" font-size="14.00">Desired parameters obtained from FitType</text>
</g>
<!-- ResultWorkspace&#45;&gt;CopyLogs -->
<g id="edge30" class="edge">
<title>ResultWorkspace&#45;&gt;CopyLogs</title>
<path fill="none" stroke="black" d="M1595.35,-162.37C1612.79,-150.83 1637.35,-136.06 1660.86,-127 1697.35,-112.94 1740.62,-104.06 1773.91,-98.77"/>
<polygon fill="black" stroke="black" points="1774.39,-102.23 1783.74,-97.27 1773.33,-95.31 1774.39,-102.23"/>
<text xml:space="preserve" text-anchor="middle" x="1718.61" y="-130.95" font-family="Helvetica,sans-Serif" font-size="14.00">Input workspace</text>
</g>
<!-- FitWorkspace -->
<g id="node37" class="node">
<title>FitWorkspace</title>
<ellipse fill="lightgrey" stroke="black" cx="1906.36" cy="-180.25" rx="75.41" ry="18"/>
<text xml:space="preserve" text-anchor="middle" x="1906.36" y="-175.57" font-family="Helvetica,sans-Serif" font-size="14.00">FitWorkspace</text>
</g>
<!-- FitWorkspace&#45;&gt;CopyLogs -->
<g id="edge33" class="edge">
<title>FitWorkspace&#45;&gt;CopyLogs</title>
<path fill="none" stroke="black" d="M1891.12,-162.43C1879.69,-149.8 1863.82,-132.27 1850.78,-117.86"/>
<polygon fill="black" stroke="black" points="1853.41,-115.55 1844.1,-110.49 1848.22,-120.25 1853.41,-115.55"/>
</g>
</g>
</svg>
