<?xml version="1.0" encoding="UTF-8" standalone="no"?>
<!DOCTYPE svg PUBLIC "-//W3C//DTD SVG 1.1//EN"
 "http://www.w3.org/Graphics/SVG/1.1/DTD/svg11.dtd">
<!-- Generated by graphviz version 7.0.5 (20221231.0122)
 -->
<!-- Title: ReflectometryReductionOne Pages: 1 -->
<svg width="696pt" height="621pt"
 viewBox="0.00 0.00 696.41 621.00" xmlns="http://www.w3.org/2000/svg" xmlns:xlink="http://www.w3.org/1999/xlink">
<g id="graph0" class="graph" transform="scale(1 1) rotate(0) translate(4 617)">
<title>ReflectometryReductionOne</title>
<polygon fill="white" stroke="none" points="-4,4 -4,-617 692.41,-617 692.41,4 -4,4"/>
<!-- inputWorkspace -->
<g id="node1" class="node">
<title>inputWorkspace</title>
<ellipse fill="khaki" stroke="black" cx="148.94" cy="-571" rx="144.87" ry="18"/>
<text text-anchor="middle" x="148.94" y="-567.3" font-family="Helvetica,sans-Serif" font-size="14.00">OutputWorkspaceWavelength</text>
</g>
<!-- checkSumInQ -->
<g id="node6" class="node">
<title>checkSumInQ</title>
<polygon fill="limegreen" stroke="black" points="148.94,-516 67.33,-498 148.94,-480 230.55,-498 148.94,-516"/>
<text text-anchor="middle" x="148.94" y="-494.3" font-family="Helvetica,sans-Serif" font-size="14.00">Sum in Q?</text>
</g>
<!-- inputWorkspace&#45;&gt;checkSumInQ -->
<g id="edge1" class="edge">
<title>inputWorkspace&#45;&gt;checkSumInQ</title>
<path fill="none" stroke="black" d="M148.94,-552.81C148.94,-545.23 148.94,-536.1 148.94,-527.54"/>
<polygon fill="black" stroke="black" points="152.44,-527.54 148.94,-517.54 145.44,-527.54 152.44,-527.54"/>
</g>
<!-- outputWorkspaceWav -->
<g id="node2" class="node">
<title>outputWorkspaceWav</title>
<ellipse fill="khaki" stroke="black" cx="144.94" cy="-18" rx="144.87" ry="18"/>
<text text-anchor="middle" x="144.94" y="-14.3" font-family="Helvetica,sans-Serif" font-size="14.00">OutputWorkspaceWavelength</text>
</g>
<!-- procCommands -->
<g id="node3" class="node">
<title>procCommands</title>
<ellipse fill="khaki" stroke="black" cx="272.94" cy="-411" rx="112.38" ry="18"/>
<text text-anchor="middle" x="272.94" y="-407.3" font-family="Helvetica,sans-Serif" font-size="14.00">ProcessingInstructions</text>
</g>
<!-- projectCounts -->
<g id="node9" class="node">
<title>projectCounts</title>
<polygon fill="lightseagreen" stroke="black" points="368.94,-342 176.94,-342 176.94,-306 368.94,-306 368.94,-342"/>
<text text-anchor="start" x="184.94" y="-321.3" font-family="Helvetica,sans-Serif" font-size="14.00">Project input counts to λ</text>
<text text-anchor="start" x="353.94" y="-321.3" font-family="Helvetica,sans-Serif" baseline-shift="sub" font-size="14.00">v</text>
</g>
<!-- procCommands&#45;&gt;projectCounts -->
<g id="edge6" class="edge">
<title>procCommands&#45;&gt;projectCounts</title>
<path fill="none" stroke="black" d="M272.94,-392.8C272.94,-381.58 272.94,-366.67 272.94,-353.69"/>
<polygon fill="black" stroke="black" points="276.44,-353.98 272.94,-343.98 269.44,-353.98 276.44,-353.98"/>
</g>
<!-- wavMin -->
<g id="node4" class="node">
<title>wavMin</title>
<ellipse fill="khaki" stroke="black" cx="352.94" cy="-237" rx="79.89" ry="18"/>
<text text-anchor="middle" x="352.94" y="-233.3" font-family="Helvetica,sans-Serif" font-size="14.00">WavelengthMin</text>
</g>
<!-- projectMinMax -->
<g id="node11" class="node">
<title>projectMinMax</title>
<polygon fill="lightseagreen" stroke="black" points="447.44,-182 258.44,-182 258.44,-146 447.44,-146 447.44,-182"/>
<text text-anchor="start" x="266.44" y="-161.3" font-family="Helvetica,sans-Serif" font-size="14.00">Convert crop range to λ</text>
<text text-anchor="start" x="432.44" y="-161.3" font-family="Helvetica,sans-Serif" baseline-shift="sub" font-size="14.00">v</text>
</g>
<!-- wavMin&#45;&gt;projectMinMax -->
<g id="edge8" class="edge">
<title>wavMin&#45;&gt;projectMinMax</title>
<path fill="none" stroke="black" d="M352.94,-218.81C352.94,-211.23 352.94,-202.1 352.94,-193.54"/>
<polygon fill="black" stroke="black" points="356.44,-193.54 352.94,-183.54 349.44,-193.54 356.44,-193.54"/>
</g>
<!-- wavMax -->
<g id="node5" class="node">
<title>wavMax</title>
<ellipse fill="khaki" stroke="black" cx="532.94" cy="-237" rx="82.59" ry="18"/>
<text text-anchor="middle" x="532.94" y="-233.3" font-family="Helvetica,sans-Serif" font-size="14.00">WavelengthMax</text>
</g>
<!-- wavMax&#45;&gt;projectMinMax -->
<g id="edge9" class="edge">
<title>wavMax&#45;&gt;projectMinMax</title>
<path fill="none" stroke="black" d="M494.32,-220.77C469.04,-210.8 435.62,-197.62 407.63,-186.57"/>
<polygon fill="black" stroke="black" points="409.18,-183.42 398.6,-183.01 406.62,-189.94 409.18,-183.42"/>
</g>
<!-- checkSumInQ&#45;&gt;outputWorkspaceWav -->
<g id="edge2" class="edge">
<title>checkSumInQ&#45;&gt;outputWorkspaceWav</title>
<path fill="none" stroke="black" d="M144.05,-480.87C139.34,-463.9 132.94,-436.33 132.94,-412 132.94,-412 132.94,-412 132.94,-90 132.94,-75.83 135.29,-60.3 137.91,-47.38"/>
<polygon fill="black" stroke="black" points="141.28,-48.37 140.01,-37.85 134.44,-46.86 141.28,-48.37"/>
<text text-anchor="middle" x="142.44" y="-233.3" font-family="Helvetica,sans-Serif" font-size="14.00">No</text>
</g>
<!-- checkSumDone -->
<g id="node7" class="node">
<title>checkSumDone</title>
<polygon fill="limegreen" stroke="black" points="545.94,-429 403.5,-411 545.94,-393 688.38,-411 545.94,-429"/>
<text text-anchor="middle" x="545.94" y="-407.3" font-family="Helvetica,sans-Serif" font-size="14.00">Reduction required?</text>
</g>
<!-- checkSumInQ&#45;&gt;checkSumDone -->
<g id="edge3" class="edge">
<title>checkSumInQ&#45;&gt;checkSumDone</title>
<path fill="none" stroke="black" d="M189.19,-488.38C258.57,-473.53 401.13,-443 483.49,-425.37"/>
<polygon fill="black" stroke="black" points="484.17,-428.8 493.21,-423.29 482.7,-421.96 484.17,-428.8"/>
<text text-anchor="middle" x="382.44" y="-450.8" font-family="Helvetica,sans-Serif" font-size="14.00">Yes</text>
</g>
<!-- checkSumDone&#45;&gt;projectCounts -->
<g id="edge4" class="edge">
<title>checkSumDone&#45;&gt;projectCounts</title>
<path fill="none" stroke="black" d="M506.24,-397.64C462.68,-384.08 392.03,-362.08 339.87,-345.84"/>
<polygon fill="black" stroke="black" points="341.07,-342.55 330.48,-342.92 338.99,-349.23 341.07,-342.55"/>
<text text-anchor="middle" x="436.44" y="-363.8" font-family="Helvetica,sans-Serif" font-size="14.00">Yes</text>
</g>
<!-- checkSumDone&#45;&gt;projectMinMax -->
<g id="edge5" class="edge">
<title>checkSumDone&#45;&gt;projectMinMax</title>
<path fill="none" stroke="black" d="M561.9,-394.8C596.27,-360.27 670.59,-274.61 624.94,-219 603.78,-193.23 525.86,-179.53 458.82,-172.39"/>
<polygon fill="black" stroke="black" points="459.54,-168.95 449.24,-171.42 458.83,-175.91 459.54,-168.95"/>
<text text-anchor="middle" x="647.44" y="-276.8" font-family="Helvetica,sans-Serif" font-size="14.00">No</text>
</g>
<!-- cropWav -->
<g id="node8" class="node">
<title>cropWav</title>
<path fill="lightskyblue" stroke="black" d="M338.44,-109C338.44,-109 237.44,-109 237.44,-109 231.44,-109 225.44,-103 225.44,-97 225.44,-97 225.44,-85 225.44,-85 225.44,-79 231.44,-73 237.44,-73 237.44,-73 338.44,-73 338.44,-73 344.44,-73 350.44,-79 350.44,-85 350.44,-85 350.44,-97 350.44,-97 350.44,-103 344.44,-109 338.44,-109"/>
<text text-anchor="middle" x="287.94" y="-87.3" font-family="Helvetica,sans-Serif" font-size="14.00">CropWorkspace</text>
</g>
<!-- cropWav&#45;&gt;outputWorkspaceWav -->
<g id="edge12" class="edge">
<title>cropWav&#45;&gt;outputWorkspaceWav</title>
<path fill="none" stroke="black" d="M252.96,-72.63C233.72,-63.08 209.65,-51.13 189.13,-40.94"/>
<polygon fill="black" stroke="black" points="190.93,-37.93 180.42,-36.62 187.82,-44.2 190.93,-37.93"/>
</g>
<!-- sumInQ -->
<g id="node10" class="node">
<title>sumInQ</title>
<polygon fill="lightseagreen" stroke="black" points="255.44,-255 170.44,-255 170.44,-219 255.44,-219 255.44,-255"/>
<text text-anchor="start" x="178.44" y="-234.3" font-family="Helvetica,sans-Serif" font-size="14.00">Sum in λ</text>
<text text-anchor="start" x="240.44" y="-234.3" font-family="Helvetica,sans-Serif" baseline-shift="sub" font-size="14.00">v</text>
</g>
<!-- projectCounts&#45;&gt;sumInQ -->
<g id="edge7" class="edge">
<title>projectCounts&#45;&gt;sumInQ</title>
<path fill="none" stroke="black" d="M260.8,-305.8C252.47,-294.01 241.27,-278.14 231.79,-264.72"/>
<polygon fill="black" stroke="black" points="234.77,-262.85 226.14,-256.7 229.05,-266.89 234.77,-262.85"/>
</g>
<!-- sumInQ&#45;&gt;projectMinMax -->
<g id="edge10" class="edge">
<title>sumInQ&#45;&gt;projectMinMax</title>
<path fill="none" stroke="black" d="M247.18,-218.63C265.66,-209.26 288.68,-197.59 308.51,-187.53"/>
<polygon fill="black" stroke="black" points="309.87,-190.76 317.21,-183.12 306.71,-184.52 309.87,-190.76"/>
</g>
<!-- projectMinMax&#45;&gt;cropWav -->
<g id="edge11" class="edge">
<title>projectMinMax&#45;&gt;cropWav</title>
<path fill="none" stroke="black" d="M337.2,-145.81C329.38,-137.27 319.77,-126.77 311.12,-117.32"/>
<polygon fill="black" stroke="black" points="313.88,-115.16 304.55,-110.15 308.72,-119.88 313.88,-115.16"/>
</g>
</g>
</svg>
