<?xml version="1.0" encoding="UTF-8" standalone="no"?>
<!DOCTYPE svg PUBLIC "-//W3C//DTD SVG 1.1//EN"
 "http://www.w3.org/Graphics/SVG/1.1/DTD/svg11.dtd">
<!-- Generated by graphviz version 12.0.0 (20240803.0821)
 -->
<!-- Title: ReflectometryReductionOne Pages: 1 -->
<svg width="994pt" height="787pt"
 viewBox="0.00 0.00 993.89 787.00" xmlns="http://www.w3.org/2000/svg" xmlns:xlink="http://www.w3.org/1999/xlink">
<g id="graph0" class="graph" transform="scale(1 1) rotate(0) translate(4 783)">
<title>ReflectometryReductionOne</title>
<polygon fill="white" stroke="none" points="-4,4 -4,-783 989.89,-783 989.89,4 -4,4"/>
<!-- inputWS -->
<g id="node1" class="node">
<title>inputWS</title>
<ellipse fill="khaki" stroke="black" cx="465.32" cy="-737" rx="90.14" ry="18"/>
<text text-anchor="middle" x="465.32" y="-732.33" font-family="Helvetica,sans-Serif" font-size="14.00">InputWorkspace</text>
</g>
<!-- checkSumInLam -->
<g id="node6" class="node">
<title>checkSumInLam</title>
<polygon fill="limegreen" stroke="black" points="84.32,-665.75 0,-647.75 84.32,-629.75 168.65,-647.75 84.32,-665.75"/>
<text text-anchor="middle" x="84.32" y="-643.08" font-family="Helvetica,sans-Serif" font-size="14.00">Sum in λ?</text>
</g>
<!-- inputWS&#45;&gt;checkSumInLam -->
<g id="edge1" class="edge">
<title>inputWS&#45;&gt;checkSumInLam</title>
<path fill="none" stroke="black" d="M407.87,-722.84C333.58,-705.83 205.36,-676.47 134.7,-660.29"/>
<polygon fill="black" stroke="black" points="135.87,-656.96 125.34,-658.14 134.31,-663.79 135.87,-656.96"/>
<text text-anchor="middle" x="341.7" y="-687.7" font-family="Helvetica,sans-Serif" font-size="14.00">Detectors</text>
</g>
<!-- createDBWS -->
<g id="node13" class="node">
<title>createDBWS</title>
<polygon fill="lightseagreen" stroke="black" points="537.32,-497.25 389.32,-497.25 389.32,-454.75 537.32,-454.75 537.32,-497.25"/>
<text text-anchor="middle" x="463.32" y="-479.95" font-family="Helvetica,sans-Serif" font-size="14.00">Create direct beam</text>
<text text-anchor="middle" x="463.32" y="-462.7" font-family="Helvetica,sans-Serif" font-size="14.00">workspace</text>
</g>
<!-- inputWS&#45;&gt;createDBWS -->
<g id="edge2" class="edge">
<title>inputWS&#45;&gt;createDBWS</title>
<path fill="none" stroke="black" d="M465.32,-718.7C465.32,-694.92 465.32,-656.38 465.32,-656.38 465.32,-656.38 464.26,-560.67 463.69,-508.69"/>
<polygon fill="black" stroke="black" points="467.19,-508.87 463.58,-498.91 460.19,-508.95 467.19,-508.87"/>
<text text-anchor="middle" x="507.7" y="-643.08" font-family="Helvetica,sans-Serif" font-size="14.00">Direct Beam</text>
</g>
<!-- createMonWS -->
<g id="node14" class="node">
<title>createMonWS</title>
<polygon fill="lightseagreen" stroke="black" points="638.07,-611.75 518.57,-611.75 518.57,-569.25 638.07,-569.25 638.07,-611.75"/>
<text text-anchor="middle" x="578.32" y="-594.45" font-family="Helvetica,sans-Serif" font-size="14.00">Create monitor</text>
<text text-anchor="middle" x="578.32" y="-577.2" font-family="Helvetica,sans-Serif" font-size="14.00">workspace</text>
</g>
<!-- inputWS&#45;&gt;createMonWS -->
<g id="edge3" class="edge">
<title>inputWS&#45;&gt;createMonWS</title>
<path fill="none" stroke="black" d="M513.9,-721.52C544.53,-711.77 578.32,-701 578.32,-701 578.32,-701 578.32,-655.97 578.32,-623.4"/>
<polygon fill="black" stroke="black" points="581.82,-623.58 578.32,-613.58 574.82,-623.58 581.82,-623.58"/>
<text text-anchor="middle" x="608.32" y="-687.7" font-family="Helvetica,sans-Serif" font-size="14.00">Monitors</text>
</g>
<!-- outputWS -->
<g id="node2" class="node">
<title>outputWS</title>
<ellipse fill="khaki" stroke="black" cx="517.32" cy="-18" rx="155.9" ry="18"/>
<text text-anchor="middle" x="517.32" y="-13.32" font-family="Helvetica,sans-Serif" font-size="14.00">OutputWorkspaceWavelength</text>
</g>
<!-- procCommands -->
<g id="node3" class="node">
<title>procCommands</title>
<ellipse fill="khaki" stroke="black" cx="308.32" cy="-647.75" rx="121.18" ry="18"/>
<text text-anchor="middle" x="308.32" y="-643.08" font-family="Helvetica,sans-Serif" font-size="14.00">ProcessingInstructions</text>
</g>
<!-- groupDet -->
<g id="node9" class="node">
<title>groupDet</title>
<path fill="lightskyblue" stroke="black" d="M317.7,-551.25C317.7,-551.25 216.95,-551.25 216.95,-551.25 210.95,-551.25 204.95,-545.25 204.95,-539.25 204.95,-539.25 204.95,-527.25 204.95,-527.25 204.95,-521.25 210.95,-515.25 216.95,-515.25 216.95,-515.25 317.7,-515.25 317.7,-515.25 323.7,-515.25 329.7,-521.25 329.7,-527.25 329.7,-527.25 329.7,-539.25 329.7,-539.25 329.7,-545.25 323.7,-551.25 317.7,-551.25"/>
<text text-anchor="middle" x="267.32" y="-528.58" font-family="Helvetica,sans-Serif" font-size="14.00">GroupDetectors</text>
</g>
<!-- procCommands&#45;&gt;groupDet -->
<g id="edge6" class="edge">
<title>procCommands&#45;&gt;groupDet</title>
<path fill="none" stroke="black" d="M302.1,-629.66C295.56,-611.74 285.19,-583.28 277.48,-562.11"/>
<polygon fill="black" stroke="black" points="280.84,-561.12 274.13,-552.92 274.26,-563.51 280.84,-561.12"/>
</g>
<!-- wavMin -->
<g id="node4" class="node">
<title>wavMin</title>
<ellipse fill="khaki" stroke="black" cx="705.32" cy="-180.25" rx="85.93" ry="18"/>
<text text-anchor="middle" x="705.32" y="-175.57" font-family="Helvetica,sans-Serif" font-size="14.00">WavelengthMin</text>
</g>
<!-- cropWav -->
<g id="node10" class="node">
<title>cropWav</title>
<path fill="lightskyblue" stroke="black" d="M714.32,-109C714.32,-109 614.32,-109 614.32,-109 608.32,-109 602.32,-103 602.32,-97 602.32,-97 602.32,-85 602.32,-85 602.32,-79 608.32,-73 614.32,-73 614.32,-73 714.32,-73 714.32,-73 720.32,-73 726.32,-79 726.32,-85 726.32,-85 726.32,-97 726.32,-97 726.32,-103 720.32,-109 714.32,-109"/>
<text text-anchor="middle" x="664.32" y="-86.33" font-family="Helvetica,sans-Serif" font-size="14.00">CropWorkspace</text>
</g>
<!-- wavMin&#45;&gt;cropWav -->
<g id="edge15" class="edge">
<title>wavMin&#45;&gt;cropWav</title>
<path fill="none" stroke="black" d="M697.22,-162.01C691.5,-149.82 683.7,-133.23 677.13,-119.26"/>
<polygon fill="black" stroke="black" points="680.47,-118.13 673.05,-110.57 674.14,-121.11 680.47,-118.13"/>
</g>
<!-- wavMax -->
<g id="node5" class="node">
<title>wavMax</title>
<ellipse fill="khaki" stroke="black" cx="897.32" cy="-180.25" rx="88.56" ry="18"/>
<text text-anchor="middle" x="897.32" y="-175.57" font-family="Helvetica,sans-Serif" font-size="14.00">WavelengthMax</text>
</g>
<!-- wavMax&#45;&gt;cropWav -->
<g id="edge16" class="edge">
<title>wavMax&#45;&gt;cropWav</title>
<path fill="none" stroke="black" d="M856.2,-163.85C818.83,-149.86 763.31,-129.07 721.59,-113.45"/>
<polygon fill="black" stroke="black" points="723.05,-110.25 712.45,-110.02 720.59,-116.81 723.05,-110.25"/>
</g>
<!-- convertDet -->
<g id="node8" class="node">
<title>convertDet</title>
<path fill="lightskyblue" stroke="black" d="M326.7,-436.75C326.7,-436.75 207.95,-436.75 207.95,-436.75 201.95,-436.75 195.95,-430.75 195.95,-424.75 195.95,-424.75 195.95,-406.25 195.95,-406.25 195.95,-400.25 201.95,-394.25 207.95,-394.25 207.95,-394.25 326.7,-394.25 326.7,-394.25 332.7,-394.25 338.7,-400.25 338.7,-406.25 338.7,-406.25 338.7,-424.75 338.7,-424.75 338.7,-430.75 332.7,-436.75 326.7,-436.75"/>
<text text-anchor="middle" x="267.32" y="-419.45" font-family="Helvetica,sans-Serif" font-size="14.00">ConvertUnits</text>
<text text-anchor="middle" x="267.32" y="-402.2" font-family="Helvetica,sans-Serif" font-size="14.00">(AlignBins = True)</text>
</g>
<!-- checkSumInLam&#45;&gt;convertDet -->
<g id="edge4" class="edge">
<title>checkSumInLam&#45;&gt;convertDet</title>
<path fill="none" stroke="black" d="M94.88,-631.65C116.77,-598.28 165.07,-524.62 165.07,-524.62 165.07,-524.62 209.1,-477.64 239.38,-445.33"/>
<polygon fill="black" stroke="black" points="241.8,-447.85 246.09,-438.16 236.7,-443.07 241.8,-447.85"/>
<text text-anchor="middle" x="155.7" y="-528.58" font-family="Helvetica,sans-Serif" font-size="14.00">No</text>
</g>
<!-- checkSumInLam&#45;&gt;groupDet -->
<g id="edge5" class="edge">
<title>checkSumInLam&#45;&gt;groupDet</title>
<path fill="none" stroke="black" d="M105.32,-633.84C135.57,-615.25 191.9,-580.62 229.51,-557.49"/>
<polygon fill="black" stroke="black" points="231.14,-560.6 237.83,-552.38 227.47,-554.64 231.14,-560.6"/>
<text text-anchor="middle" x="227.57" y="-585.83" font-family="Helvetica,sans-Serif" font-size="14.00">Yes</text>
</g>
<!-- checkSumInLam2 -->
<g id="node7" class="node">
<title>checkSumInLam2</title>
<polygon fill="limegreen" stroke="black" points="517.32,-198.25 433,-180.25 517.32,-162.25 601.65,-180.25 517.32,-198.25"/>
<text text-anchor="middle" x="517.32" y="-175.57" font-family="Helvetica,sans-Serif" font-size="14.00">Sum in λ?</text>
</g>
<!-- checkSumInLam2&#45;&gt;outputWS -->
<g id="edge13" class="edge">
<title>checkSumInLam2&#45;&gt;outputWS</title>
<path fill="none" stroke="black" d="M517.32,-161.95C517.32,-138.17 517.32,-99.62 517.32,-99.62 517.32,-99.62 517.32,-70.75 517.32,-47.34"/>
<polygon fill="black" stroke="black" points="520.82,-47.63 517.32,-37.63 513.82,-47.63 520.82,-47.63"/>
<text text-anchor="middle" x="526.7" y="-86.33" font-family="Helvetica,sans-Serif" font-size="14.00">No</text>
</g>
<!-- checkSumInLam2&#45;&gt;cropWav -->
<g id="edge14" class="edge">
<title>checkSumInLam2&#45;&gt;cropWav</title>
<path fill="none" stroke="black" d="M539.01,-166.38C561.63,-152.95 597.57,-131.62 625.17,-115.24"/>
<polygon fill="black" stroke="black" points="626.81,-118.34 633.62,-110.22 623.24,-112.32 626.81,-118.34"/>
<text text-anchor="middle" x="614.57" y="-130.95" font-family="Helvetica,sans-Serif" font-size="14.00">Yes</text>
</g>
<!-- divideDetDB -->
<g id="node11" class="node">
<title>divideDetDB</title>
<path fill="lightskyblue" stroke="black" d="M537.82,-357.25C537.82,-357.25 374.82,-357.25 374.82,-357.25 368.82,-357.25 362.82,-351.25 362.82,-345.25 362.82,-345.25 362.82,-326.75 362.82,-326.75 362.82,-320.75 368.82,-314.75 374.82,-314.75 374.82,-314.75 537.82,-314.75 537.82,-314.75 543.82,-314.75 549.82,-320.75 549.82,-326.75 549.82,-326.75 549.82,-345.25 549.82,-345.25 549.82,-351.25 543.82,-357.25 537.82,-357.25"/>
<text text-anchor="middle" x="456.32" y="-339.95" font-family="Helvetica,sans-Serif" font-size="14.00">Divide</text>
<text text-anchor="middle" x="456.32" y="-322.7" font-family="Helvetica,sans-Serif" font-size="14.00">(Detectors / DirectBeam)</text>
</g>
<!-- convertDet&#45;&gt;divideDetDB -->
<g id="edge8" class="edge">
<title>convertDet&#45;&gt;divideDetDB</title>
<path fill="none" stroke="black" d="M317.48,-393.93C341.4,-384.13 370.22,-372.31 395.4,-361.98"/>
<polygon fill="black" stroke="black" points="396.61,-365.27 404.54,-358.24 393.96,-358.79 396.61,-365.27"/>
</g>
<!-- groupDet&#45;&gt;convertDet -->
<g id="edge7" class="edge">
<title>groupDet&#45;&gt;convertDet</title>
<path fill="none" stroke="black" d="M267.32,-514.92C267.32,-497.36 267.32,-469.79 267.32,-448.29"/>
<polygon fill="black" stroke="black" points="270.82,-448.59 267.32,-438.59 263.82,-448.59 270.82,-448.59"/>
</g>
<!-- cropWav&#45;&gt;outputWS -->
<g id="edge17" class="edge">
<title>cropWav&#45;&gt;outputWS</title>
<path fill="none" stroke="black" d="M628.36,-72.63C608.59,-63.08 583.85,-51.13 562.75,-40.94"/>
<polygon fill="black" stroke="black" points="564.3,-37.8 553.77,-36.6 561.25,-44.1 564.3,-37.8"/>
</g>
<!-- divideDetMon -->
<g id="node12" class="node">
<title>divideDetMon</title>
<path fill="lightskyblue" stroke="black" d="M588.7,-277.75C588.7,-277.75 445.95,-277.75 445.95,-277.75 439.95,-277.75 433.95,-271.75 433.95,-265.75 433.95,-265.75 433.95,-247.25 433.95,-247.25 433.95,-241.25 439.95,-235.25 445.95,-235.25 445.95,-235.25 588.7,-235.25 588.7,-235.25 594.7,-235.25 600.7,-241.25 600.7,-247.25 600.7,-247.25 600.7,-265.75 600.7,-265.75 600.7,-271.75 594.7,-277.75 588.7,-277.75"/>
<text text-anchor="middle" x="517.32" y="-260.45" font-family="Helvetica,sans-Serif" font-size="14.00">Divide</text>
<text text-anchor="middle" x="517.32" y="-243.2" font-family="Helvetica,sans-Serif" font-size="14.00">(Detectors / Monitors)</text>
</g>
<!-- divideDetDB&#45;&gt;divideDetMon -->
<g id="edge10" class="edge">
<title>divideDetDB&#45;&gt;divideDetMon</title>
<path fill="none" stroke="black" d="M472.35,-314.64C479.02,-306.16 486.9,-296.16 494.18,-286.91"/>
<polygon fill="black" stroke="black" points="496.82,-289.21 500.26,-279.18 491.32,-284.88 496.82,-289.21"/>
</g>
<!-- divideDetMon&#45;&gt;checkSumInLam2 -->
<g id="edge12" class="edge">
<title>divideDetMon&#45;&gt;checkSumInLam2</title>
<path fill="none" stroke="black" d="M517.32,-234.82C517.32,-227 517.32,-217.97 517.32,-209.57"/>
<polygon fill="black" stroke="black" points="520.82,-209.83 517.32,-199.83 513.82,-209.83 520.82,-209.83"/>
</g>
<!-- createDBWS&#45;&gt;divideDetDB -->
<g id="edge9" class="edge">
<title>createDBWS&#45;&gt;divideDetDB</title>
<path fill="none" stroke="black" d="M462.25,-454.43C461.1,-431.55 459.28,-395.13 457.96,-368.71"/>
<polygon fill="black" stroke="black" points="461.46,-368.69 457.47,-358.87 454.47,-369.04 461.46,-368.69"/>
</g>
<!-- createMonWS&#45;&gt;divideDetMon -->
<g id="edge11" class="edge">
<title>createMonWS&#45;&gt;divideDetMon</title>
<path fill="none" stroke="black" d="M574.37,-568.84C563.96,-511.84 535.75,-357.37 523.33,-289.38"/>
<polygon fill="black" stroke="black" points="526.78,-288.81 521.54,-279.6 519.9,-290.06 526.78,-288.81"/>
</g>
</g>
</svg>
