<?xml version="1.0" encoding="UTF-8" standalone="no"?>
<!DOCTYPE svg PUBLIC "-//W3C//DTD SVG 1.1//EN"
 "http://www.w3.org/Graphics/SVG/1.1/DTD/svg11.dtd">
<!-- Generated by graphviz version 11.0.0 (20240519.1550)
 -->
<!-- Title: ReflectometryReductionOne Pages: 1 -->
<svg width="743pt" height="627pt"
 viewBox="0.00 0.00 743.42 626.75" xmlns="http://www.w3.org/2000/svg" xmlns:xlink="http://www.w3.org/1999/xlink">
<g id="graph0" class="graph" transform="scale(1 1) rotate(0) translate(4 622.75)">
<title>ReflectometryReductionOne</title>
<polygon fill="white" stroke="none" points="-4,4 -4,-622.75 739.42,-622.75 739.42,4 -4,4"/>
<!-- inputWorkspace -->
<g id="node1" class="node">
<title>inputWorkspace</title>
<ellipse fill="khaki" stroke="black" cx="155.9" cy="-576.75" rx="155.9" ry="18"/>
<text text-anchor="middle" x="155.9" y="-572.08" font-family="Helvetica,sans-Serif" font-size="14.00">OutputWorkspaceWavelength</text>
</g>
<!-- checkSumInQ -->
<g id="node6" class="node">
<title>checkSumInQ</title>
<polygon fill="limegreen" stroke="black" points="155.9,-522.75 68.6,-504.75 155.9,-486.75 243.2,-504.75 155.9,-522.75"/>
<text text-anchor="middle" x="155.9" y="-500.07" font-family="Helvetica,sans-Serif" font-size="14.00">Sum in Q?</text>
</g>
<!-- inputWorkspace&#45;&gt;checkSumInQ -->
<g id="edge1" class="edge">
<title>inputWorkspace&#45;&gt;checkSumInQ</title>
<path fill="none" stroke="black" d="M155.9,-558.45C155.9,-551.16 155.9,-542.48 155.9,-534.29"/>
<polygon fill="black" stroke="black" points="159.4,-534.37 155.9,-524.37 152.4,-534.37 159.4,-534.37"/>
</g>
<!-- outputWorkspaceWav -->
<g id="node2" class="node">
<title>outputWorkspaceWav</title>
<ellipse fill="khaki" stroke="black" cx="155.9" cy="-18" rx="155.9" ry="18"/>
<text text-anchor="middle" x="155.9" y="-13.32" font-family="Helvetica,sans-Serif" font-size="14.00">OutputWorkspaceWavelength</text>
</g>
<!-- procCommands -->
<g id="node3" class="node">
<title>procCommands</title>
<ellipse fill="khaki" stroke="black" cx="288.9" cy="-415.5" rx="121.18" ry="18"/>
<text text-anchor="middle" x="288.9" y="-410.82" font-family="Helvetica,sans-Serif" font-size="14.00">ProcessingInstructions</text>
</g>
<!-- projectCounts -->
<g id="node9" class="node">
<title>projectCounts</title>
<polygon fill="lightseagreen" stroke="black" points="384.65,-344.25 193.15,-344.25 193.15,-308.25 384.65,-308.25 384.65,-344.25"/>
<text text-anchor="start" x="201.15" y="-322.57" font-family="Helvetica,sans-Serif" font-size="14.00">Project input counts to λ</text>
<text text-anchor="start" x="369.9" y="-322.57" font-family="Helvetica,sans-Serif" baseline-shift="sub" font-size="14.00">v</text>
</g>
<!-- procCommands&#45;&gt;projectCounts -->
<g id="edge6" class="edge">
<title>procCommands&#45;&gt;projectCounts</title>
<path fill="none" stroke="black" d="M288.9,-397.26C288.9,-385.43 288.9,-369.45 288.9,-355.75"/>
<polygon fill="black" stroke="black" points="292.4,-355.97 288.9,-345.97 285.4,-355.97 292.4,-355.97"/>
</g>
<!-- wavMin -->
<g id="node4" class="node">
<title>wavMin</title>
<ellipse fill="khaki" stroke="black" cx="364.9" cy="-237" rx="85.93" ry="18"/>
<text text-anchor="middle" x="364.9" y="-232.32" font-family="Helvetica,sans-Serif" font-size="14.00">WavelengthMin</text>
</g>
<!-- projectMinMax -->
<g id="node11" class="node">
<title>projectMinMax</title>
<polygon fill="lightseagreen" stroke="black" points="458.78,-182 271.03,-182 271.03,-146 458.78,-146 458.78,-182"/>
<text text-anchor="start" x="279.03" y="-160.32" font-family="Helvetica,sans-Serif" font-size="14.00">Convert crop range to λ</text>
<text text-anchor="start" x="444.03" y="-160.32" font-family="Helvetica,sans-Serif" baseline-shift="sub" font-size="14.00">v</text>
</g>
<!-- wavMin&#45;&gt;projectMinMax -->
<g id="edge8" class="edge">
<title>wavMin&#45;&gt;projectMinMax</title>
<path fill="none" stroke="black" d="M364.9,-218.81C364.9,-211.23 364.9,-202.1 364.9,-193.54"/>
<polygon fill="black" stroke="black" points="368.4,-193.54 364.9,-183.54 361.4,-193.54 368.4,-193.54"/>
</g>
<!-- wavMax -->
<g id="node5" class="node">
<title>wavMax</title>
<ellipse fill="khaki" stroke="black" cx="556.9" cy="-237" rx="88.56" ry="18"/>
<text text-anchor="middle" x="556.9" y="-232.32" font-family="Helvetica,sans-Serif" font-size="14.00">WavelengthMax</text>
</g>
<!-- wavMax&#45;&gt;projectMinMax -->
<g id="edge9" class="edge">
<title>wavMax&#45;&gt;projectMinMax</title>
<path fill="none" stroke="black" d="M515.72,-220.77C488.63,-210.75 452.79,-197.5 422.85,-186.43"/>
<polygon fill="black" stroke="black" points="424.12,-183.17 413.53,-182.98 421.69,-189.73 424.12,-183.17"/>
</g>
<!-- checkSumInQ&#45;&gt;outputWorkspaceWav -->
<g id="edge2" class="edge">
<title>checkSumInQ&#45;&gt;outputWorkspaceWav</title>
<path fill="none" stroke="black" d="M151.1,-487.51C146.39,-470.11 139.9,-441.6 139.9,-416.5 139.9,-416.5 139.9,-416.5 139.9,-90 139.9,-75.68 143.04,-60.13 146.53,-47.24"/>
<polygon fill="black" stroke="black" points="149.87,-48.3 149.34,-37.71 143.16,-46.32 149.87,-48.3"/>
<text text-anchor="middle" x="149.28" y="-232.32" font-family="Helvetica,sans-Serif" font-size="14.00">No</text>
</g>
<!-- checkSumDone -->
<g id="node7" class="node">
<title>checkSumDone</title>
<polygon fill="limegreen" stroke="black" points="581.9,-433.5 428.39,-415.5 581.9,-397.5 735.42,-415.5 581.9,-433.5"/>
<text text-anchor="middle" x="581.9" y="-410.82" font-family="Helvetica,sans-Serif" font-size="14.00">Reduction required?</text>
</g>
<!-- checkSumInQ&#45;&gt;checkSumDone -->
<g id="edge3" class="edge">
<title>checkSumInQ&#45;&gt;checkSumDone</title>
<path fill="none" stroke="black" d="M198.31,-495.07C272.91,-479.79 428.07,-448.01 516.49,-429.9"/>
<polygon fill="black" stroke="black" points="517.14,-433.34 526.24,-427.9 515.74,-426.48 517.14,-433.34"/>
<text text-anchor="middle" x="418.15" y="-455.45" font-family="Helvetica,sans-Serif" font-size="14.00">Yes</text>
</g>
<!-- checkSumDone&#45;&gt;projectCounts -->
<g id="edge4" class="edge">
<title>checkSumDone&#45;&gt;projectCounts</title>
<path fill="none" stroke="black" d="M539.92,-402C492.6,-387.91 414.92,-364.77 358.49,-347.97"/>
<polygon fill="black" stroke="black" points="359.53,-344.63 348.95,-345.13 357.54,-351.34 359.53,-344.63"/>
<text text-anchor="middle" x="472.15" y="-366.2" font-family="Helvetica,sans-Serif" font-size="14.00">Yes</text>
</g>
<!-- checkSumDone&#45;&gt;projectMinMax -->
<g id="edge5" class="edge">
<title>checkSumDone&#45;&gt;projectMinMax</title>
<path fill="none" stroke="black" d="M597.01,-399.06C629.9,-363.59 701.45,-275.01 654.9,-219 631.44,-190.76 543.28,-177.21 470.26,-170.76"/>
<polygon fill="black" stroke="black" points="470.91,-167.3 460.65,-169.95 470.32,-174.28 470.91,-167.3"/>
<text text-anchor="middle" x="678.28" y="-276.95" font-family="Helvetica,sans-Serif" font-size="14.00">No</text>
</g>
<!-- cropWav -->
<g id="node8" class="node">
<title>cropWav</title>
<path fill="lightskyblue" stroke="black" d="M346.9,-109C346.9,-109 246.9,-109 246.9,-109 240.9,-109 234.9,-103 234.9,-97 234.9,-97 234.9,-85 234.9,-85 234.9,-79 240.9,-73 246.9,-73 246.9,-73 346.9,-73 346.9,-73 352.9,-73 358.9,-79 358.9,-85 358.9,-85 358.9,-97 358.9,-97 358.9,-103 352.9,-109 346.9,-109"/>
<text text-anchor="middle" x="296.9" y="-86.33" font-family="Helvetica,sans-Serif" font-size="14.00">CropWorkspace</text>
</g>
<!-- cropWav&#45;&gt;outputWorkspaceWav -->
<g id="edge12" class="edge">
<title>cropWav&#45;&gt;outputWorkspaceWav</title>
<path fill="none" stroke="black" d="M262.41,-72.63C243.53,-63.12 219.93,-51.24 199.75,-41.08"/>
<polygon fill="black" stroke="black" points="201.41,-38 190.91,-36.62 198.26,-44.25 201.41,-38"/>
</g>
<!-- sumInQ -->
<g id="node10" class="node">
<title>sumInQ</title>
<polygon fill="lightseagreen" stroke="black" points="261.03,-255 176.78,-255 176.78,-219 261.03,-219 261.03,-255"/>
<text text-anchor="start" x="184.78" y="-233.32" font-family="Helvetica,sans-Serif" font-size="14.00">Sum in λ</text>
<text text-anchor="start" x="246.28" y="-233.32" font-family="Helvetica,sans-Serif" baseline-shift="sub" font-size="14.00">v</text>
</g>
<!-- projectCounts&#45;&gt;sumInQ -->
<g id="edge7" class="edge">
<title>projectCounts&#45;&gt;sumInQ</title>
<path fill="none" stroke="black" d="M275.07,-308.01C265.01,-295.46 251.2,-278.25 239.79,-264.03"/>
<polygon fill="black" stroke="black" points="242.64,-261.99 233.65,-256.38 237.18,-266.37 242.64,-261.99"/>
</g>
<!-- sumInQ&#45;&gt;projectMinMax -->
<g id="edge10" class="edge">
<title>sumInQ&#45;&gt;projectMinMax</title>
<path fill="none" stroke="black" d="M254.62,-218.63C273.97,-209.22 298.11,-197.48 318.86,-187.39"/>
<polygon fill="black" stroke="black" points="320.23,-190.62 327.69,-183.1 317.17,-184.32 320.23,-190.62"/>
</g>
<!-- projectMinMax&#45;&gt;cropWav -->
<g id="edge11" class="edge">
<title>projectMinMax&#45;&gt;cropWav</title>
<path fill="none" stroke="black" d="M348.44,-145.81C340.26,-137.27 330.2,-126.77 321.16,-117.32"/>
<polygon fill="black" stroke="black" points="323.7,-114.92 314.26,-110.12 318.65,-119.76 323.7,-114.92"/>
</g>
</g>
</svg>
