<?xml version="1.0" encoding="UTF-8" standalone="no"?>
<!DOCTYPE svg PUBLIC "-//W3C//DTD SVG 1.1//EN"
 "http://www.w3.org/Graphics/SVG/1.1/DTD/svg11.dtd">
<!-- Generated by graphviz version 11.0.0 (20240519.1550)
 -->
<!-- Title: ReflectometryReductionOne Pages: 1 -->
<svg width="994pt" height="786pt"
 viewBox="0.00 0.00 993.89 786.00" xmlns="http://www.w3.org/2000/svg" xmlns:xlink="http://www.w3.org/1999/xlink">
<g id="graph0" class="graph" transform="scale(1 1) rotate(0) translate(4 782)">
<title>ReflectometryReductionOne</title>
<polygon fill="white" stroke="none" points="-4,4 -4,-782 989.89,-782 989.89,4 -4,4"/>
<!-- inputWS -->
<g id="node1" class="node">
<title>inputWS</title>
<ellipse fill="khaki" stroke="black" cx="465.32" cy="-736" rx="90.14" ry="18"/>
<text text-anchor="middle" x="465.32" y="-731.33" font-family="Helvetica,sans-Serif" font-size="14.00">InputWorkspace</text>
</g>
<!-- checkSumInLam -->
<g id="node6" class="node">
<title>checkSumInLam</title>
<polygon fill="limegreen" stroke="black" points="84.32,-664.75 0,-646.75 84.32,-628.75 168.65,-646.75 84.32,-664.75"/>
<text text-anchor="middle" x="84.32" y="-642.08" font-family="Helvetica,sans-Serif" font-size="14.00">Sum in λ?</text>
</g>
<!-- inputWS&#45;&gt;checkSumInLam -->
<g id="edge1" class="edge">
<title>inputWS&#45;&gt;checkSumInLam</title>
<path fill="none" stroke="black" d="M407.87,-721.84C333.58,-704.83 205.36,-675.47 134.7,-659.29"/>
<polygon fill="black" stroke="black" points="135.87,-655.96 125.34,-657.14 134.31,-662.79 135.87,-655.96"/>
<text text-anchor="middle" x="341.7" y="-686.7" font-family="Helvetica,sans-Serif" font-size="14.00">Detectors</text>
</g>
<!-- createDBWS -->
<g id="node13" class="node">
<title>createDBWS</title>
<polygon fill="lightseagreen" stroke="black" points="537.32,-496.25 389.32,-496.25 389.32,-453.75 537.32,-453.75 537.32,-496.25"/>
<text text-anchor="middle" x="463.32" y="-478.95" font-family="Helvetica,sans-Serif" font-size="14.00">Create direct beam</text>
<text text-anchor="middle" x="463.32" y="-461.7" font-family="Helvetica,sans-Serif" font-size="14.00">workspace</text>
</g>
<!-- inputWS&#45;&gt;createDBWS -->
<g id="edge2" class="edge">
<title>inputWS&#45;&gt;createDBWS</title>
<path fill="none" stroke="black" d="M465.32,-717.7C465.32,-693.92 465.32,-655.38 465.32,-655.38 465.32,-655.38 464.26,-559.67 463.69,-507.69"/>
<polygon fill="black" stroke="black" points="467.19,-507.87 463.58,-497.91 460.19,-507.95 467.19,-507.87"/>
<text text-anchor="middle" x="507.7" y="-642.08" font-family="Helvetica,sans-Serif" font-size="14.00">Direct Beam</text>
</g>
<!-- createMonWS -->
<g id="node14" class="node">
<title>createMonWS</title>
<polygon fill="lightseagreen" stroke="black" points="638.07,-610.75 518.57,-610.75 518.57,-568.25 638.07,-568.25 638.07,-610.75"/>
<text text-anchor="middle" x="578.32" y="-593.45" font-family="Helvetica,sans-Serif" font-size="14.00">Create monitor</text>
<text text-anchor="middle" x="578.32" y="-576.2" font-family="Helvetica,sans-Serif" font-size="14.00">workspace</text>
</g>
<!-- inputWS&#45;&gt;createMonWS -->
<g id="edge3" class="edge">
<title>inputWS&#45;&gt;createMonWS</title>
<path fill="none" stroke="black" d="M513.9,-720.52C544.53,-710.77 578.32,-700 578.32,-700 578.32,-700 578.32,-654.97 578.32,-622.4"/>
<polygon fill="black" stroke="black" points="581.82,-622.58 578.32,-612.58 574.82,-622.58 581.82,-622.58"/>
<text text-anchor="middle" x="608.32" y="-686.7" font-family="Helvetica,sans-Serif" font-size="14.00">Monitors</text>
</g>
<!-- outputWS -->
<g id="node2" class="node">
<title>outputWS</title>
<ellipse fill="khaki" stroke="black" cx="517.32" cy="-18" rx="155.9" ry="18"/>
<text text-anchor="middle" x="517.32" y="-13.32" font-family="Helvetica,sans-Serif" font-size="14.00">OutputWorkspaceWavelength</text>
</g>
<!-- procCommands -->
<g id="node3" class="node">
<title>procCommands</title>
<ellipse fill="khaki" stroke="black" cx="308.32" cy="-646.75" rx="121.18" ry="18"/>
<text text-anchor="middle" x="308.32" y="-642.08" font-family="Helvetica,sans-Serif" font-size="14.00">ProcessingInstructions</text>
</g>
<!-- groupDet -->
<g id="node9" class="node">
<title>groupDet</title>
<path fill="lightskyblue" stroke="black" d="M315.7,-550.25C315.7,-550.25 214.95,-550.25 214.95,-550.25 208.95,-550.25 202.95,-544.25 202.95,-538.25 202.95,-538.25 202.95,-526.25 202.95,-526.25 202.95,-520.25 208.95,-514.25 214.95,-514.25 214.95,-514.25 315.7,-514.25 315.7,-514.25 321.7,-514.25 327.7,-520.25 327.7,-526.25 327.7,-526.25 327.7,-538.25 327.7,-538.25 327.7,-544.25 321.7,-550.25 315.7,-550.25"/>
<text text-anchor="middle" x="265.32" y="-527.58" font-family="Helvetica,sans-Serif" font-size="14.00">GroupDetectors</text>
</g>
<!-- procCommands&#45;&gt;groupDet -->
<g id="edge6" class="edge">
<title>procCommands&#45;&gt;groupDet</title>
<path fill="none" stroke="black" d="M301.79,-628.66C294.94,-610.74 284.07,-582.28 275.97,-561.11"/>
<polygon fill="black" stroke="black" points="279.3,-560 272.46,-551.91 272.76,-562.5 279.3,-560"/>
</g>
<!-- wavMin -->
<g id="node4" class="node">
<title>wavMin</title>
<ellipse fill="khaki" stroke="black" cx="705.32" cy="-180.25" rx="85.93" ry="18"/>
<text text-anchor="middle" x="705.32" y="-175.57" font-family="Helvetica,sans-Serif" font-size="14.00">WavelengthMin</text>
</g>
<!-- cropWav -->
<g id="node10" class="node">
<title>cropWav</title>
<path fill="lightskyblue" stroke="black" d="M716.32,-109C716.32,-109 616.32,-109 616.32,-109 610.32,-109 604.32,-103 604.32,-97 604.32,-97 604.32,-85 604.32,-85 604.32,-79 610.32,-73 616.32,-73 616.32,-73 716.32,-73 716.32,-73 722.32,-73 728.32,-79 728.32,-85 728.32,-85 728.32,-97 728.32,-97 728.32,-103 722.32,-109 716.32,-109"/>
<text text-anchor="middle" x="666.32" y="-86.33" font-family="Helvetica,sans-Serif" font-size="14.00">CropWorkspace</text>
</g>
<!-- wavMin&#45;&gt;cropWav -->
<g id="edge15" class="edge">
<title>wavMin&#45;&gt;cropWav</title>
<path fill="none" stroke="black" d="M697.62,-162.01C692.22,-149.94 684.9,-133.56 678.69,-119.67"/>
<polygon fill="black" stroke="black" points="681.91,-118.28 674.63,-110.58 675.52,-121.14 681.91,-118.28"/>
</g>
<!-- wavMax -->
<g id="node5" class="node">
<title>wavMax</title>
<ellipse fill="khaki" stroke="black" cx="897.32" cy="-180.25" rx="88.56" ry="18"/>
<text text-anchor="middle" x="897.32" y="-175.57" font-family="Helvetica,sans-Serif" font-size="14.00">WavelengthMax</text>
</g>
<!-- wavMax&#45;&gt;cropWav -->
<g id="edge16" class="edge">
<title>wavMax&#45;&gt;cropWav</title>
<path fill="none" stroke="black" d="M856.56,-163.85C819.58,-149.89 764.69,-129.15 723.37,-113.55"/>
<polygon fill="black" stroke="black" points="724.64,-110.29 714.05,-110.03 722.17,-116.83 724.64,-110.29"/>
</g>
<!-- convertDet -->
<g id="node8" class="node">
<title>convertDet</title>
<path fill="lightskyblue" stroke="black" d="M324.7,-435.75C324.7,-435.75 205.95,-435.75 205.95,-435.75 199.95,-435.75 193.95,-429.75 193.95,-423.75 193.95,-423.75 193.95,-405.25 193.95,-405.25 193.95,-399.25 199.95,-393.25 205.95,-393.25 205.95,-393.25 324.7,-393.25 324.7,-393.25 330.7,-393.25 336.7,-399.25 336.7,-405.25 336.7,-405.25 336.7,-423.75 336.7,-423.75 336.7,-429.75 330.7,-435.75 324.7,-435.75"/>
<text text-anchor="middle" x="265.32" y="-418.45" font-family="Helvetica,sans-Serif" font-size="14.00">ConvertUnits</text>
<text text-anchor="middle" x="265.32" y="-401.2" font-family="Helvetica,sans-Serif" font-size="14.00">(AlignBins = True)</text>
</g>
<!-- checkSumInLam&#45;&gt;convertDet -->
<g id="edge4" class="edge">
<title>checkSumInLam&#45;&gt;convertDet</title>
<path fill="none" stroke="black" d="M94.88,-630.65C116.77,-597.28 165.07,-523.62 165.07,-523.62 165.07,-523.62 208.24,-476.64 237.92,-444.33"/>
<polygon fill="black" stroke="black" points="240.31,-446.91 244.49,-437.17 235.15,-442.17 240.31,-446.91"/>
<text text-anchor="middle" x="155.7" y="-527.58" font-family="Helvetica,sans-Serif" font-size="14.00">No</text>
</g>
<!-- checkSumInLam&#45;&gt;groupDet -->
<g id="edge5" class="edge">
<title>checkSumInLam&#45;&gt;groupDet</title>
<path fill="none" stroke="black" d="M105.09,-632.84C135.01,-614.25 190.73,-579.62 227.93,-556.49"/>
<polygon fill="black" stroke="black" points="229.49,-559.64 236.14,-551.39 225.8,-553.7 229.49,-559.64"/>
<text text-anchor="middle" x="226.57" y="-584.83" font-family="Helvetica,sans-Serif" font-size="14.00">Yes</text>
</g>
<!-- checkSumInLam2 -->
<g id="node7" class="node">
<title>checkSumInLam2</title>
<polygon fill="limegreen" stroke="black" points="517.32,-198.25 433,-180.25 517.32,-162.25 601.65,-180.25 517.32,-198.25"/>
<text text-anchor="middle" x="517.32" y="-175.57" font-family="Helvetica,sans-Serif" font-size="14.00">Sum in λ?</text>
</g>
<!-- checkSumInLam2&#45;&gt;outputWS -->
<g id="edge13" class="edge">
<title>checkSumInLam2&#45;&gt;outputWS</title>
<path fill="none" stroke="black" d="M517.32,-161.95C517.32,-138.17 517.32,-99.62 517.32,-99.62 517.32,-99.62 517.32,-70.75 517.32,-47.34"/>
<polygon fill="black" stroke="black" points="520.82,-47.63 517.32,-37.63 513.82,-47.63 520.82,-47.63"/>
<text text-anchor="middle" x="526.7" y="-86.33" font-family="Helvetica,sans-Serif" font-size="14.00">No</text>
</g>
<!-- checkSumInLam2&#45;&gt;cropWav -->
<g id="edge14" class="edge">
<title>checkSumInLam2&#45;&gt;cropWav</title>
<path fill="none" stroke="black" d="M538.99,-166.56C561.92,-153.14 598.61,-131.65 626.73,-115.19"/>
<polygon fill="black" stroke="black" points="628.49,-118.21 635.35,-110.14 624.96,-112.17 628.49,-118.21"/>
<text text-anchor="middle" x="615.57" y="-130.95" font-family="Helvetica,sans-Serif" font-size="14.00">Yes</text>
</g>
<!-- divideDetDB -->
<g id="node11" class="node">
<title>divideDetDB</title>
<path fill="lightskyblue" stroke="black" d="M537.82,-356.25C537.82,-356.25 374.82,-356.25 374.82,-356.25 368.82,-356.25 362.82,-350.25 362.82,-344.25 362.82,-344.25 362.82,-325.75 362.82,-325.75 362.82,-319.75 368.82,-313.75 374.82,-313.75 374.82,-313.75 537.82,-313.75 537.82,-313.75 543.82,-313.75 549.82,-319.75 549.82,-325.75 549.82,-325.75 549.82,-344.25 549.82,-344.25 549.82,-350.25 543.82,-356.25 537.82,-356.25"/>
<text text-anchor="middle" x="456.32" y="-338.95" font-family="Helvetica,sans-Serif" font-size="14.00">Divide</text>
<text text-anchor="middle" x="456.32" y="-321.7" font-family="Helvetica,sans-Serif" font-size="14.00">(Detectors / DirectBeam)</text>
</g>
<!-- convertDet&#45;&gt;divideDetDB -->
<g id="edge8" class="edge">
<title>convertDet&#45;&gt;divideDetDB</title>
<path fill="none" stroke="black" d="M316.26,-392.83C340.33,-383.06 369.28,-371.32 394.6,-361.05"/>
<polygon fill="black" stroke="black" points="395.85,-364.32 403.8,-357.31 393.22,-357.83 395.85,-364.32"/>
</g>
<!-- groupDet&#45;&gt;convertDet -->
<g id="edge7" class="edge">
<title>groupDet&#45;&gt;convertDet</title>
<path fill="none" stroke="black" d="M265.32,-513.92C265.32,-496.36 265.32,-468.79 265.32,-447.29"/>
<polygon fill="black" stroke="black" points="268.82,-447.59 265.32,-437.59 261.82,-447.59 268.82,-447.59"/>
</g>
<!-- cropWav&#45;&gt;outputWS -->
<g id="edge17" class="edge">
<title>cropWav&#45;&gt;outputWS</title>
<path fill="none" stroke="black" d="M629.87,-72.63C609.74,-63.04 584.53,-51.02 563.07,-40.8"/>
<polygon fill="black" stroke="black" points="564.78,-37.74 554.25,-36.6 561.77,-44.06 564.78,-37.74"/>
</g>
<!-- divideDetMon -->
<g id="node12" class="node">
<title>divideDetMon</title>
<path fill="lightskyblue" stroke="black" d="M588.7,-276.75C588.7,-276.75 445.95,-276.75 445.95,-276.75 439.95,-276.75 433.95,-270.75 433.95,-264.75 433.95,-264.75 433.95,-246.25 433.95,-246.25 433.95,-240.25 439.95,-234.25 445.95,-234.25 445.95,-234.25 588.7,-234.25 588.7,-234.25 594.7,-234.25 600.7,-240.25 600.7,-246.25 600.7,-246.25 600.7,-264.75 600.7,-264.75 600.7,-270.75 594.7,-276.75 588.7,-276.75"/>
<text text-anchor="middle" x="517.32" y="-259.45" font-family="Helvetica,sans-Serif" font-size="14.00">Divide</text>
<text text-anchor="middle" x="517.32" y="-242.2" font-family="Helvetica,sans-Serif" font-size="14.00">(Detectors / Monitors)</text>
</g>
<!-- divideDetDB&#45;&gt;divideDetMon -->
<g id="edge10" class="edge">
<title>divideDetDB&#45;&gt;divideDetMon</title>
<path fill="none" stroke="black" d="M472.35,-313.64C479.02,-305.16 486.9,-295.16 494.18,-285.91"/>
<polygon fill="black" stroke="black" points="496.82,-288.21 500.26,-278.18 491.32,-283.88 496.82,-288.21"/>
</g>
<!-- divideDetMon&#45;&gt;checkSumInLam2 -->
<g id="edge12" class="edge">
<title>divideDetMon&#45;&gt;checkSumInLam2</title>
<path fill="none" stroke="black" d="M517.32,-234.1C517.32,-226.59 517.32,-217.94 517.32,-209.84"/>
<polygon fill="black" stroke="black" points="520.82,-210.08 517.32,-200.08 513.82,-210.08 520.82,-210.08"/>
</g>
<!-- createDBWS&#45;&gt;divideDetDB -->
<g id="edge9" class="edge">
<title>createDBWS&#45;&gt;divideDetDB</title>
<path fill="none" stroke="black" d="M461.9,-453.5C460.75,-436.11 459.32,-414.5 459.32,-414.5 459.32,-414.5 458.4,-389.9 457.57,-368.07"/>
<polygon fill="black" stroke="black" points="461.08,-368.1 457.2,-358.24 454.08,-368.36 461.08,-368.1"/>
</g>
<!-- createMonWS&#45;&gt;divideDetMon -->
<g id="edge11" class="edge">
<title>createMonWS&#45;&gt;divideDetMon</title>
<path fill="none" stroke="black" d="M578.32,-568.04C578.32,-521.31 578.32,-414.5 578.32,-414.5 578.32,-414.5 547.49,-334.14 529.67,-287.68"/>
<polygon fill="black" stroke="black" points="532.94,-286.44 526.09,-278.36 526.41,-288.95 532.94,-286.44"/>
</g>
</g>
</svg>
