<?xml version="1.0" encoding="UTF-8" standalone="no"?>
<!DOCTYPE svg PUBLIC "-//W3C//DTD SVG 1.1//EN"
 "http://www.w3.org/Graphics/SVG/1.1/DTD/svg11.dtd">
<!-- Generated by graphviz version 7.0.5 (20221231.0122)
 -->
<!-- Title: ReflectometryReductionOne Pages: 1 -->
<svg width="1166pt" height="503pt"
 viewBox="0.00 0.00 1166.03 503.00" xmlns="http://www.w3.org/2000/svg" xmlns:xlink="http://www.w3.org/1999/xlink">
<g id="graph0" class="graph" transform="scale(1 1) rotate(0) translate(4 499)">
<title>ReflectometryReductionOne</title>
<polygon fill="white" stroke="none" points="-4,4 -4,-499 1162.03,-499 1162.03,4 -4,4"/>
<!-- inputWorkspace -->
<g id="node1" class="node">
<title>inputWorkspace</title>
<ellipse fill="khaki" stroke="black" cx="522.79" cy="-453" rx="144.87" ry="18"/>
<text text-anchor="middle" x="522.79" y="-449.3" font-family="Helvetica,sans-Serif" font-size="14.00">OutputWorkspaceWavelength</text>
</g>
<!-- checkTransRun -->
<g id="node9" class="node">
<title>checkTransRun</title>
<polygon fill="limegreen" stroke="black" points="522.79,-325 358.79,-287 522.79,-249 686.79,-287 522.79,-325"/>
<text text-anchor="middle" x="522.79" y="-290.8" font-family="Helvetica,sans-Serif" font-size="14.00">FirstTransmissionRun</text>
<text text-anchor="middle" x="522.79" y="-275.8" font-family="Helvetica,sans-Serif" font-size="14.00">given?</text>
</g>
<!-- inputWorkspace&#45;&gt;checkTransRun -->
<g id="edge1" class="edge">
<title>inputWorkspace&#45;&gt;checkTransRun</title>
<path fill="none" stroke="black" d="M522.79,-434.76C522.79,-411.66 522.79,-369.74 522.79,-336.59"/>
<polygon fill="black" stroke="black" points="526.29,-336.8 522.79,-326.8 519.29,-336.8 526.29,-336.8"/>
</g>
<!-- rebinByTransWS -->
<g id="node11" class="node">
<title>rebinByTransWS</title>
<path fill="lightskyblue" stroke="black" d="M838.79,-305C838.79,-305 716.79,-305 716.79,-305 710.79,-305 704.79,-299 704.79,-293 704.79,-293 704.79,-281 704.79,-281 704.79,-275 710.79,-269 716.79,-269 716.79,-269 838.79,-269 838.79,-269 844.79,-269 850.79,-275 850.79,-281 850.79,-281 850.79,-293 850.79,-293 850.79,-299 844.79,-305 838.79,-305"/>
<text text-anchor="middle" x="777.79" y="-283.3" font-family="Helvetica,sans-Serif" font-size="14.00">RebinToWorkspace</text>
</g>
<!-- inputWorkspace&#45;&gt;rebinByTransWS -->
<g id="edge16" class="edge">
<title>inputWorkspace&#45;&gt;rebinByTransWS</title>
<path fill="none" stroke="black" d="M549.12,-435.07C594.91,-405.62 689.28,-344.93 741.33,-311.45"/>
<polygon fill="black" stroke="black" points="743.05,-314.51 749.57,-306.15 739.27,-308.62 743.05,-314.51"/>
</g>
<!-- outputWorkspace -->
<g id="node2" class="node">
<title>outputWorkspace</title>
<ellipse fill="khaki" stroke="black" cx="412.79" cy="-18" rx="144.87" ry="18"/>
<text text-anchor="middle" x="412.79" y="-14.3" font-family="Helvetica,sans-Serif" font-size="14.00">OutputWorkspaceWavelength</text>
</g>
<!-- corrAlg -->
<g id="node3" class="node">
<title>corrAlg</title>
<ellipse fill="khaki" stroke="black" cx="239.79" cy="-287" rx="100.98" ry="18"/>
<text text-anchor="middle" x="239.79" y="-283.3" font-family="Helvetica,sans-Serif" font-size="14.00">CorrectionAlgorithm</text>
</g>
<!-- checkCorrAlg -->
<g id="node10" class="node">
<title>checkCorrAlg</title>
<polygon fill="limegreen" stroke="black" points="287.79,-197 138.15,-179 287.79,-161 437.44,-179 287.79,-197"/>
<text text-anchor="middle" x="287.79" y="-175.3" font-family="Helvetica,sans-Serif" font-size="14.00">CorrectionAlgorithm?</text>
</g>
<!-- corrAlg&#45;&gt;checkCorrAlg -->
<g id="edge4" class="edge">
<title>corrAlg&#45;&gt;checkCorrAlg</title>
<path fill="none" stroke="black" d="M247.51,-268.97C255.12,-252.16 266.87,-226.21 275.72,-206.67"/>
<polygon fill="black" stroke="black" points="278.86,-208.22 279.79,-197.67 272.48,-205.34 278.86,-208.22"/>
</g>
<!-- firstTransRun -->
<g id="node4" class="node">
<title>firstTransRun</title>
<ellipse fill="khaki" stroke="black" cx="792.79" cy="-453" rx="106.68" ry="18"/>
<text text-anchor="middle" x="792.79" y="-449.3" font-family="Helvetica,sans-Serif" font-size="14.00">FirstTransmissionRun</text>
</g>
<!-- createTransWS -->
<g id="node14" class="node">
<title>createTransWS</title>
<path fill="lightskyblue" stroke="black" d="M894.79,-398C894.79,-398 690.79,-398 690.79,-398 684.79,-398 678.79,-392 678.79,-386 678.79,-386 678.79,-374 678.79,-374 678.79,-368 684.79,-362 690.79,-362 690.79,-362 894.79,-362 894.79,-362 900.79,-362 906.79,-368 906.79,-374 906.79,-374 906.79,-386 906.79,-386 906.79,-392 900.79,-398 894.79,-398"/>
<text text-anchor="middle" x="792.79" y="-376.3" font-family="Helvetica,sans-Serif" font-size="14.00">CreateTransmissionWorkspace</text>
</g>
<!-- firstTransRun&#45;&gt;createTransWS -->
<g id="edge13" class="edge">
<title>firstTransRun&#45;&gt;createTransWS</title>
<path fill="none" stroke="black" d="M792.79,-434.81C792.79,-427.23 792.79,-418.1 792.79,-409.54"/>
<polygon fill="black" stroke="black" points="796.29,-409.54 792.79,-399.54 789.29,-409.54 796.29,-409.54"/>
</g>
<!-- secondTransRun -->
<g id="node5" class="node">
<title>secondTransRun</title>
<ellipse fill="khaki" stroke="black" cx="1037.79" cy="-453" rx="120.48" ry="18"/>
<text text-anchor="middle" x="1037.79" y="-449.3" font-family="Helvetica,sans-Serif" font-size="14.00">SecondTransmissionRun</text>
</g>
<!-- secondTransRun&#45;&gt;createTransWS -->
<g id="edge14" class="edge">
<title>secondTransRun&#45;&gt;createTransWS</title>
<path fill="none" stroke="black" d="M984.33,-436.51C948.94,-426.25 902.13,-412.69 863.65,-401.53"/>
<polygon fill="black" stroke="black" points="865.06,-398.3 854.49,-398.88 863.12,-405.02 865.06,-398.3"/>
</g>
<!-- polynomial -->
<g id="node6" class="node">
<title>polynomial</title>
<ellipse fill="khaki" stroke="black" cx="59.79" cy="-179" rx="59.59" ry="18"/>
<text text-anchor="middle" x="59.79" y="-175.3" font-family="Helvetica,sans-Serif" font-size="14.00">Polynomial</text>
</g>
<!-- polyCorr -->
<g id="node12" class="node">
<title>polyCorr</title>
<path fill="lightskyblue" stroke="black" d="M294.79,-109C294.79,-109 156.79,-109 156.79,-109 150.79,-109 144.79,-103 144.79,-97 144.79,-97 144.79,-85 144.79,-85 144.79,-79 150.79,-73 156.79,-73 156.79,-73 294.79,-73 294.79,-73 300.79,-73 306.79,-79 306.79,-85 306.79,-85 306.79,-97 306.79,-97 306.79,-103 300.79,-109 294.79,-109"/>
<text text-anchor="middle" x="225.79" y="-87.3" font-family="Helvetica,sans-Serif" font-size="14.00">PolynomialCorrection</text>
</g>
<!-- polynomial&#45;&gt;polyCorr -->
<g id="edge5" class="edge">
<title>polynomial&#45;&gt;polyCorr</title>
<path fill="none" stroke="black" d="M88.71,-163.02C114.47,-149.67 152.54,-129.95 182.03,-114.68"/>
<polygon fill="black" stroke="black" points="183.45,-117.88 190.72,-110.17 180.23,-111.66 183.45,-117.88"/>
</g>
<!-- c0 -->
<g id="node7" class="node">
<title>c0</title>
<ellipse fill="khaki" stroke="black" cx="482.79" cy="-179" rx="27" ry="18"/>
<text text-anchor="middle" x="482.79" y="-175.3" font-family="Helvetica,sans-Serif" font-size="14.00">C0</text>
</g>
<!-- expCorr -->
<g id="node13" class="node">
<title>expCorr</title>
<path fill="lightskyblue" stroke="black" d="M555.29,-109C555.29,-109 410.29,-109 410.29,-109 404.29,-109 398.29,-103 398.29,-97 398.29,-97 398.29,-85 398.29,-85 398.29,-79 404.29,-73 410.29,-73 410.29,-73 555.29,-73 555.29,-73 561.29,-73 567.29,-79 567.29,-85 567.29,-85 567.29,-97 567.29,-97 567.29,-103 561.29,-109 555.29,-109"/>
<text text-anchor="middle" x="482.79" y="-87.3" font-family="Helvetica,sans-Serif" font-size="14.00">ExponentialCorrection</text>
</g>
<!-- c0&#45;&gt;expCorr -->
<g id="edge8" class="edge">
<title>c0&#45;&gt;expCorr</title>
<path fill="none" stroke="black" d="M482.79,-160.6C482.79,-149.17 482.79,-133.96 482.79,-120.76"/>
<polygon fill="black" stroke="black" points="486.29,-120.89 482.79,-110.89 479.29,-120.89 486.29,-120.89"/>
</g>
<!-- c1 -->
<g id="node8" class="node">
<title>c1</title>
<ellipse fill="khaki" stroke="black" cx="554.79" cy="-179" rx="27" ry="18"/>
<text text-anchor="middle" x="554.79" y="-175.3" font-family="Helvetica,sans-Serif" font-size="14.00">C1</text>
</g>
<!-- c1&#45;&gt;expCorr -->
<g id="edge9" class="edge">
<title>c1&#45;&gt;expCorr</title>
<path fill="none" stroke="black" d="M542.25,-163.02C531.91,-150.67 516.99,-132.85 504.68,-118.15"/>
<polygon fill="black" stroke="black" points="507.5,-116.06 498.4,-110.64 502.13,-120.55 507.5,-116.06"/>
</g>
<!-- checkTransRun&#45;&gt;checkCorrAlg -->
<g id="edge2" class="edge">
<title>checkTransRun&#45;&gt;checkCorrAlg</title>
<path fill="none" stroke="black" d="M467.99,-261.28C425.35,-242.05 367.12,-215.78 328.53,-198.37"/>
<polygon fill="black" stroke="black" points="330.13,-195.26 319.58,-194.34 327.25,-201.64 330.13,-195.26"/>
<text text-anchor="middle" x="408.29" y="-219.8" font-family="Helvetica,sans-Serif" font-size="14.00">No</text>
</g>
<!-- divideTrans -->
<g id="node15" class="node">
<title>divideTrans</title>
<path fill="lightskyblue" stroke="black" d="M721.79,-198C721.79,-198 611.79,-198 611.79,-198 605.79,-198 599.79,-192 599.79,-186 599.79,-186 599.79,-172 599.79,-172 599.79,-166 605.79,-160 611.79,-160 611.79,-160 721.79,-160 721.79,-160 727.79,-160 733.79,-166 733.79,-172 733.79,-172 733.79,-186 733.79,-186 733.79,-192 727.79,-198 721.79,-198"/>
<text text-anchor="middle" x="666.79" y="-182.8" font-family="Helvetica,sans-Serif" font-size="14.00">Divide by</text>
<text text-anchor="middle" x="666.79" y="-167.8" font-family="Helvetica,sans-Serif" font-size="14.00">transmission run</text>
</g>
<!-- checkTransRun&#45;&gt;divideTrans -->
<g id="edge3" class="edge">
<title>checkTransRun&#45;&gt;divideTrans</title>
<path fill="none" stroke="black" d="M561.38,-257.59C583.59,-241.25 611.25,-220.89 632.66,-205.13"/>
<polygon fill="black" stroke="black" points="634.52,-208.11 640.5,-199.36 630.37,-202.47 634.52,-208.11"/>
<text text-anchor="middle" x="627.29" y="-219.8" font-family="Helvetica,sans-Serif" font-size="14.00">Yes</text>
</g>
<!-- checkCorrAlg&#45;&gt;outputWorkspace -->
<g id="edge7" class="edge">
<title>checkCorrAlg&#45;&gt;outputWorkspace</title>
<path fill="none" stroke="black" d="M308.65,-163.33C315.86,-157.4 323.45,-150.05 328.79,-142 346.67,-115.07 333.97,-99.97 351.79,-73 359.15,-61.87 369.37,-51.6 379.35,-43.08"/>
<polygon fill="black" stroke="black" points="381.25,-46.05 386.8,-37.02 376.83,-40.62 381.25,-46.05"/>
<text text-anchor="middle" x="370.29" y="-87.3" font-family="Helvetica,sans-Serif" font-size="14.00">None</text>
</g>
<!-- checkCorrAlg&#45;&gt;polyCorr -->
<g id="edge6" class="edge">
<title>checkCorrAlg&#45;&gt;polyCorr</title>
<path fill="none" stroke="black" d="M271.1,-162.73C264.94,-156.62 258.16,-149.31 252.79,-142 247.72,-135.08 242.97,-127.09 238.92,-119.56"/>
<polygon fill="black" stroke="black" points="242.06,-118.01 234.38,-110.71 235.83,-121.21 242.06,-118.01"/>
<text text-anchor="middle" x="290.79" y="-130.8" font-family="Helvetica,sans-Serif" font-size="14.00">Polynomial</text>
</g>
<!-- checkCorrAlg&#45;&gt;expCorr -->
<g id="edge10" class="edge">
<title>checkCorrAlg&#45;&gt;expCorr</title>
<path fill="none" stroke="black" d="M316.3,-164.18C338.19,-153.68 369.23,-139.05 396.79,-127 406.99,-122.55 417.93,-117.95 428.48,-113.61"/>
<polygon fill="black" stroke="black" points="429.53,-116.97 437.46,-109.95 426.88,-110.49 429.53,-116.97"/>
<text text-anchor="middle" x="437.79" y="-130.8" font-family="Helvetica,sans-Serif" font-size="14.00">Exponential</text>
</g>
<!-- rebinByTransWS&#45;&gt;divideTrans -->
<g id="edge17" class="edge">
<title>rebinByTransWS&#45;&gt;divideTrans</title>
<path fill="none" stroke="black" d="M759.96,-268.97C742.27,-252.07 714.9,-225.94 694.39,-206.36"/>
<polygon fill="black" stroke="black" points="696.82,-203.83 687.17,-199.46 691.99,-208.9 696.82,-203.83"/>
</g>
<!-- polyCorr&#45;&gt;outputWorkspace -->
<g id="edge11" class="edge">
<title>polyCorr&#45;&gt;outputWorkspace</title>
<path fill="none" stroke="black" d="M271.54,-72.63C297.79,-62.66 330.91,-50.09 358.47,-39.62"/>
<polygon fill="black" stroke="black" points="359.61,-42.94 367.71,-36.12 357.12,-36.39 359.61,-42.94"/>
</g>
<!-- expCorr&#45;&gt;outputWorkspace -->
<g id="edge12" class="edge">
<title>expCorr&#45;&gt;outputWorkspace</title>
<path fill="none" stroke="black" d="M465.85,-72.81C457.34,-64.18 446.86,-53.56 437.48,-44.03"/>
<polygon fill="black" stroke="black" points="440.16,-41.77 430.65,-37.11 435.17,-46.68 440.16,-41.77"/>
</g>
<!-- createTransWS&#45;&gt;rebinByTransWS -->
<g id="edge15" class="edge">
<title>createTransWS&#45;&gt;rebinByTransWS</title>
<path fill="none" stroke="black" d="M789.97,-361.88C787.87,-349.13 784.95,-331.42 782.5,-316.53"/>
<polygon fill="black" stroke="black" points="785.98,-316.14 780.9,-306.84 779.07,-317.28 785.98,-316.14"/>
</g>
<!-- divideTrans&#45;&gt;outputWorkspace -->
<g id="edge18" class="edge">
<title>divideTrans&#45;&gt;outputWorkspace</title>
<path fill="none" stroke="black" d="M655.51,-159.75C640.2,-136.43 610.71,-96.29 575.79,-73 551.93,-57.08 522.97,-45.5 496.12,-37.24"/>
<polygon fill="black" stroke="black" points="497.19,-33.91 486.61,-34.44 495.22,-40.62 497.19,-33.91"/>
</g>
</g>
</svg>
