<?xml version="1.0" encoding="UTF-8" standalone="no"?>
<!DOCTYPE svg PUBLIC "-//W3C//DTD SVG 1.1//EN"
 "http://www.w3.org/Graphics/SVG/1.1/DTD/svg11.dtd">
<!-- Generated by graphviz version 7.1.0 (20230122.1345)
 -->
<!-- Title: ReflectometryILLSumForeground Pages: 1 -->
<svg width="1003pt" height="927pt"
 viewBox="0.00 0.00 1003.18 927.22" xmlns="http://www.w3.org/2000/svg" xmlns:xlink="http://www.w3.org/1999/xlink">
<g id="graph0" class="graph" transform="scale(1 1) rotate(0) translate(4 923.22)">
<title>ReflectometryILLSumForeground</title>
<polygon fill="white" stroke="none" points="-4,4 -4,-923.22 999.18,-923.22 999.18,4 -4,4"/>
<text text-anchor="middle" x="497.59" y="-904.02" font-family="Helvetica,sans-Serif" font-size="14.00">ReflectometryILLSumForeground workflow diagram</text>
<!-- input -->
<g id="node1" class="node">
<title>input</title>
<ellipse fill="khaki" stroke="black" cx="868.18" cy="-878.22" rx="83.69" ry="18"/>
<text text-anchor="middle" x="868.18" y="-874.52" font-family="Helvetica,sans-Serif" font-size="14.00">InputWorkspace</text>
</g>
<!-- is_statistics_required -->
<g id="node20" class="node">
<title>is_statistics_required</title>
<polygon fill="limegreen" stroke="black" points="868.18,-823.22 741.18,-785.22 868.18,-747.22 995.18,-785.22 868.18,-823.22"/>
<text text-anchor="middle" x="868.18" y="-789.02" font-family="Helvetica,sans-Serif" font-size="14.00">Summing direct</text>
<text text-anchor="middle" x="868.18" y="-774.02" font-family="Helvetica,sans-Serif" font-size="14.00">or reflected?</text>
</g>
<!-- input&#45;&gt;is_statistics_required -->
<g id="edge1" class="edge">
<title>input&#45;&gt;is_statistics_required</title>
<path fill="none" stroke="black" d="M868.18,-860.1C868.18,-852.86 868.18,-844.03 868.18,-835.02"/>
<polygon fill="black" stroke="black" points="871.68,-835.13 868.18,-825.13 864.68,-835.13 871.68,-835.13"/>
</g>
<!-- output -->
<g id="node2" class="node">
<title>output</title>
<ellipse fill="khaki" stroke="black" cx="399.18" cy="-18" rx="91.78" ry="18"/>
<text text-anchor="middle" x="399.18" y="-14.3" font-family="Helvetica,sans-Serif" font-size="14.00">OutputWorkspace</text>
</g>
<!-- direct -->
<g id="node3" class="node">
<title>direct</title>
<ellipse fill="khaki" stroke="black" cx="611.18" cy="-785.22" rx="104.78" ry="18"/>
<text text-anchor="middle" x="611.18" y="-781.52" font-family="Helvetica,sans-Serif" font-size="14.00">DirectLineWorkspace</text>
</g>
<!-- statistics -->
<g id="node18" class="node">
<title>statistics</title>
<path fill="lightskyblue" stroke="black" d="M707.18,-696.22C707.18,-696.22 515.18,-696.22 515.18,-696.22 509.18,-696.22 503.18,-690.22 503.18,-684.22 503.18,-684.22 503.18,-672.22 503.18,-672.22 503.18,-666.22 509.18,-660.22 515.18,-660.22 515.18,-660.22 707.18,-660.22 707.18,-660.22 713.18,-660.22 719.18,-666.22 719.18,-672.22 719.18,-672.22 719.18,-684.22 719.18,-684.22 719.18,-690.22 713.18,-696.22 707.18,-696.22"/>
<text text-anchor="middle" x="611.18" y="-674.52" font-family="Helvetica,sans-Serif" font-size="14.00">ReflectometryBeamStatistics</text>
</g>
<!-- direct&#45;&gt;statistics -->
<g id="edge3" class="edge">
<title>direct&#45;&gt;statistics</title>
<path fill="none" stroke="black" d="M611.18,-766.88C611.18,-750.92 611.18,-726.94 611.18,-708.09"/>
<polygon fill="black" stroke="black" points="614.68,-708.1 611.18,-698.1 607.68,-708.1 614.68,-708.1"/>
</g>
<!-- l_direct_foreground -->
<g id="node4" class="node">
<title>l_direct_foreground</title>
<ellipse fill="khaki" stroke="black" cx="467.18" cy="-271" rx="137.58" ry="18"/>
<text text-anchor="middle" x="467.18" y="-267.3" font-family="Helvetica,sans-Serif" font-size="14.00">DirectForegroundWorkspace</text>
</g>
<!-- l_rebin -->
<g id="node15" class="node">
<title>l_rebin</title>
<path fill="lightskyblue" stroke="black" d="M561.18,-182C561.18,-182 403.18,-182 403.18,-182 397.18,-182 391.18,-176 391.18,-170 391.18,-170 391.18,-158 391.18,-158 391.18,-152 397.18,-146 403.18,-146 403.18,-146 561.18,-146 561.18,-146 567.18,-146 573.18,-152 573.18,-158 573.18,-158 573.18,-170 573.18,-170 573.18,-176 567.18,-182 561.18,-182"/>
<text text-anchor="middle" x="482.18" y="-160.3" font-family="Helvetica,sans-Serif" font-size="14.00">Rebin reflected to direct</text>
</g>
<!-- l_direct_foreground&#45;&gt;l_rebin -->
<g id="edge21" class="edge">
<title>l_direct_foreground&#45;&gt;l_rebin</title>
<path fill="none" stroke="black" d="M469.65,-252.66C471.94,-236.63 475.39,-212.49 478.09,-193.6"/>
<polygon fill="black" stroke="black" points="481.53,-194.26 479.48,-183.86 474.6,-193.27 481.53,-194.26"/>
</g>
<!-- q_direct_foreground -->
<g id="node5" class="node">
<title>q_direct_foreground</title>
<ellipse fill="khaki" stroke="black" cx="285.18" cy="-582.35" rx="137.58" ry="18"/>
<text text-anchor="middle" x="285.18" y="-578.65" font-family="Helvetica,sans-Serif" font-size="14.00">DirectForegroundWorkspace</text>
</g>
<!-- q_rebin -->
<g id="node16" class="node">
<title>q_rebin</title>
<path fill="lightskyblue" stroke="black" d="M516.18,-495.61C516.18,-495.61 358.18,-495.61 358.18,-495.61 352.18,-495.61 346.18,-489.61 346.18,-483.61 346.18,-483.61 346.18,-471.61 346.18,-471.61 346.18,-465.61 352.18,-459.61 358.18,-459.61 358.18,-459.61 516.18,-459.61 516.18,-459.61 522.18,-459.61 528.18,-465.61 528.18,-471.61 528.18,-471.61 528.18,-483.61 528.18,-483.61 528.18,-489.61 522.18,-495.61 516.18,-495.61"/>
<text text-anchor="middle" x="437.18" y="-473.91" font-family="Helvetica,sans-Serif" font-size="14.00">Rebin reflected to direct</text>
</g>
<!-- q_direct_foreground&#45;&gt;q_rebin -->
<g id="edge7" class="edge">
<title>q_direct_foreground&#45;&gt;q_rebin</title>
<path fill="none" stroke="black" d="M310.27,-564.38C335.32,-547.46 374,-521.31 402.08,-502.33"/>
<polygon fill="black" stroke="black" points="403.95,-505.29 410.28,-496.79 400.03,-499.49 403.95,-505.29"/>
</g>
<!-- divide_before -->
<g id="node17" class="node">
<title>divide_before</title>
<path fill="lightskyblue" stroke="black" d="M352.18,-390.87C352.18,-390.87 316.18,-390.87 316.18,-390.87 310.18,-390.87 304.18,-384.87 304.18,-378.87 304.18,-378.87 304.18,-366.87 304.18,-366.87 304.18,-360.87 310.18,-354.87 316.18,-354.87 316.18,-354.87 352.18,-354.87 352.18,-354.87 358.18,-354.87 364.18,-360.87 364.18,-366.87 364.18,-366.87 364.18,-378.87 364.18,-378.87 364.18,-384.87 358.18,-390.87 352.18,-390.87"/>
<text text-anchor="middle" x="334.18" y="-369.17" font-family="Helvetica,sans-Serif" font-size="14.00">Divide</text>
</g>
<!-- q_direct_foreground&#45;&gt;divide_before -->
<g id="edge9" class="edge">
<title>q_direct_foreground&#45;&gt;divide_before</title>
<path fill="none" stroke="black" d="M287.11,-564.25C290.16,-539.11 296.84,-490.82 307.18,-450.74 311.41,-434.31 317.6,-416.4 322.99,-402.01"/>
<polygon fill="black" stroke="black" points="326.24,-403.32 326.54,-392.73 319.7,-400.82 326.24,-403.32"/>
<text text-anchor="middle" x="322.18" y="-473.91" font-family="Helvetica,sans-Serif" font-size="14.00">RHS</text>
</g>
<!-- l_foreground_centre -->
<g id="node6" class="node">
<title>l_foreground_centre</title>
<ellipse fill="khaki" stroke="black" cx="780.18" cy="-582.35" rx="67.35" ry="26.74"/>
<text text-anchor="middle" x="780.18" y="-586.15" font-family="Helvetica,sans-Serif" font-size="14.00">Foreground</text>
<text text-anchor="middle" x="780.18" y="-571.15" font-family="Helvetica,sans-Serif" font-size="14.00">centre</text>
</g>
<!-- extract_spectrum -->
<g id="node12" class="node">
<title>extract_spectrum</title>
<path fill="lightskyblue" stroke="black" d="M862.18,-495.61C862.18,-495.61 710.18,-495.61 710.18,-495.61 704.18,-495.61 698.18,-489.61 698.18,-483.61 698.18,-483.61 698.18,-471.61 698.18,-471.61 698.18,-465.61 704.18,-459.61 710.18,-459.61 710.18,-459.61 862.18,-459.61 862.18,-459.61 868.18,-459.61 874.18,-465.61 874.18,-471.61 874.18,-471.61 874.18,-483.61 874.18,-483.61 874.18,-489.61 868.18,-495.61 862.18,-495.61"/>
<text text-anchor="middle" x="786.18" y="-473.91" font-family="Helvetica,sans-Serif" font-size="14.00">ExtractSingleSpectrum</text>
</g>
<!-- l_foreground_centre&#45;&gt;extract_spectrum -->
<g id="edge15" class="edge">
<title>l_foreground_centre&#45;&gt;extract_spectrum</title>
<path fill="none" stroke="black" d="M781.7,-555.16C782.56,-540.52 783.63,-522.26 784.5,-507.25"/>
<polygon fill="black" stroke="black" points="787.98,-507.73 785.07,-497.55 780.99,-507.32 787.98,-507.73"/>
</g>
<!-- q_foreground_centre -->
<g id="node7" class="node">
<title>q_foreground_centre</title>
<ellipse fill="khaki" stroke="black" cx="67.18" cy="-372.87" rx="67.35" ry="26.74"/>
<text text-anchor="middle" x="67.18" y="-376.67" font-family="Helvetica,sans-Serif" font-size="14.00">Foreground</text>
<text text-anchor="middle" x="67.18" y="-361.67" font-family="Helvetica,sans-Serif" font-size="14.00">centre</text>
</g>
<!-- sum_foreground_q -->
<g id="node13" class="node">
<title>sum_foreground_q</title>
<path fill="lightskyblue" stroke="black" d="M299.68,-290C299.68,-290 138.68,-290 138.68,-290 132.68,-290 126.68,-284 126.68,-278 126.68,-278 126.68,-264 126.68,-264 126.68,-258 132.68,-252 138.68,-252 138.68,-252 299.68,-252 299.68,-252 305.68,-252 311.68,-258 311.68,-264 311.68,-264 311.68,-278 311.68,-278 311.68,-284 305.68,-290 299.68,-290"/>
<text text-anchor="middle" x="219.18" y="-274.8" font-family="Helvetica,sans-Serif" font-size="14.00">Sum foreground spectra</text>
<text text-anchor="middle" x="219.18" y="-259.8" font-family="Helvetica,sans-Serif" font-size="14.00">in Q</text>
</g>
<!-- q_foreground_centre&#45;&gt;sum_foreground_q -->
<g id="edge11" class="edge">
<title>q_foreground_centre&#45;&gt;sum_foreground_q</title>
<path fill="none" stroke="black" d="M101.29,-349.46C125.24,-333.72 157.27,-312.67 181.9,-296.49"/>
<polygon fill="black" stroke="black" points="183.57,-299.58 190.01,-291.16 179.73,-293.73 183.57,-299.58"/>
</g>
<!-- l_foreground_widths -->
<g id="node8" class="node">
<title>l_foreground_widths</title>
<ellipse fill="khaki" stroke="black" cx="613.18" cy="-477.61" rx="67.35" ry="26.74"/>
<text text-anchor="middle" x="613.18" y="-481.41" font-family="Helvetica,sans-Serif" font-size="14.00">Foreground</text>
<text text-anchor="middle" x="613.18" y="-466.41" font-family="Helvetica,sans-Serif" font-size="14.00">widths</text>
</g>
<!-- sum_foreground_wavelength -->
<g id="node14" class="node">
<title>sum_foreground_wavelength</title>
<path fill="lightskyblue" stroke="black" d="M830.68,-391.87C830.68,-391.87 669.68,-391.87 669.68,-391.87 663.68,-391.87 657.68,-385.87 657.68,-379.87 657.68,-379.87 657.68,-365.87 657.68,-365.87 657.68,-359.87 663.68,-353.87 669.68,-353.87 669.68,-353.87 830.68,-353.87 830.68,-353.87 836.68,-353.87 842.68,-359.87 842.68,-365.87 842.68,-365.87 842.68,-379.87 842.68,-379.87 842.68,-385.87 836.68,-391.87 830.68,-391.87"/>
<text text-anchor="middle" x="750.18" y="-376.67" font-family="Helvetica,sans-Serif" font-size="14.00">Sum foreground spectra</text>
<text text-anchor="middle" x="750.18" y="-361.67" font-family="Helvetica,sans-Serif" font-size="14.00">in wavelength</text>
</g>
<!-- l_foreground_widths&#45;&gt;sum_foreground_wavelength -->
<g id="edge17" class="edge">
<title>l_foreground_widths&#45;&gt;sum_foreground_wavelength</title>
<path fill="none" stroke="black" d="M643.92,-453.55C665.6,-437.3 694.61,-415.54 716.84,-398.87"/>
<polygon fill="black" stroke="black" points="718.8,-401.78 724.7,-392.98 714.6,-396.18 718.8,-401.78"/>
</g>
<!-- q_foreground_widths -->
<g id="node9" class="node">
<title>q_foreground_widths</title>
<ellipse fill="khaki" stroke="black" cx="219.18" cy="-372.87" rx="67.35" ry="26.74"/>
<text text-anchor="middle" x="219.18" y="-376.67" font-family="Helvetica,sans-Serif" font-size="14.00">Foreground</text>
<text text-anchor="middle" x="219.18" y="-361.67" font-family="Helvetica,sans-Serif" font-size="14.00">widths</text>
</g>
<!-- q_foreground_widths&#45;&gt;sum_foreground_q -->
<g id="edge12" class="edge">
<title>q_foreground_widths&#45;&gt;sum_foreground_q</title>
<path fill="none" stroke="black" d="M219.18,-345.89C219.18,-332.26 219.18,-315.5 219.18,-301.39"/>
<polygon fill="black" stroke="black" points="222.68,-301.8 219.18,-291.8 215.68,-301.8 222.68,-301.8"/>
</g>
<!-- wavelength_range -->
<g id="node10" class="node">
<title>wavelength_range</title>
<ellipse fill="khaki" stroke="black" cx="242.18" cy="-164" rx="92.88" ry="18"/>
<text text-anchor="middle" x="242.18" y="-160.3" font-family="Helvetica,sans-Serif" font-size="14.00">WavelengthRange</text>
</g>
<!-- crop -->
<g id="node11" class="node">
<title>crop</title>
<path fill="lightskyblue" stroke="black" d="M449.68,-109C449.68,-109 348.68,-109 348.68,-109 342.68,-109 336.68,-103 336.68,-97 336.68,-97 336.68,-85 336.68,-85 336.68,-79 342.68,-73 348.68,-73 348.68,-73 449.68,-73 449.68,-73 455.68,-73 461.68,-79 461.68,-85 461.68,-85 461.68,-97 461.68,-97 461.68,-103 455.68,-109 449.68,-109"/>
<text text-anchor="middle" x="399.18" y="-87.3" font-family="Helvetica,sans-Serif" font-size="14.00">CropWorkspace</text>
</g>
<!-- wavelength_range&#45;&gt;crop -->
<g id="edge23" class="edge">
<title>wavelength_range&#45;&gt;crop</title>
<path fill="none" stroke="black" d="M277.41,-147.07C298.81,-137.39 326.46,-124.89 349.99,-114.24"/>
<polygon fill="black" stroke="black" points="351.43,-117.43 359.1,-110.12 348.55,-111.05 351.43,-117.43"/>
</g>
<!-- crop&#45;&gt;output -->
<g id="edge24" class="edge">
<title>crop&#45;&gt;output</title>
<path fill="none" stroke="black" d="M399.18,-72.81C399.18,-65.23 399.18,-56.1 399.18,-47.54"/>
<polygon fill="black" stroke="black" points="402.68,-47.54 399.18,-37.54 395.68,-47.54 402.68,-47.54"/>
</g>
<!-- extract_spectrum&#45;&gt;sum_foreground_wavelength -->
<g id="edge16" class="edge">
<title>extract_spectrum&#45;&gt;sum_foreground_wavelength</title>
<path fill="none" stroke="black" d="M780.07,-459.18C774.68,-443.8 766.71,-421.07 760.36,-402.93"/>
<polygon fill="black" stroke="black" points="763.67,-401.79 757.06,-393.51 757.06,-404.1 763.67,-401.79"/>
</g>
<!-- sum_foreground_q&#45;&gt;crop -->
<g id="edge13" class="edge">
<title>sum_foreground_q&#45;&gt;crop</title>
<path fill="none" stroke="black" d="M252.8,-251.53C279.73,-235.59 317.32,-210.66 344.18,-182 361.63,-163.37 376.39,-138.34 386.21,-119.41"/>
<polygon fill="black" stroke="black" points="389.23,-121.19 390.59,-110.68 382.97,-118.04 389.23,-121.19"/>
</g>
<!-- is_rebin_required -->
<g id="node19" class="node">
<title>is_rebin_required</title>
<polygon fill="limegreen" stroke="black" points="750.18,-309 623.18,-271 750.18,-233 877.18,-271 750.18,-309"/>
<text text-anchor="middle" x="750.18" y="-274.8" font-family="Helvetica,sans-Serif" font-size="14.00">Summing direct</text>
<text text-anchor="middle" x="750.18" y="-259.8" font-family="Helvetica,sans-Serif" font-size="14.00">or reflected?</text>
</g>
<!-- sum_foreground_wavelength&#45;&gt;is_rebin_required -->
<g id="edge18" class="edge">
<title>sum_foreground_wavelength&#45;&gt;is_rebin_required</title>
<path fill="none" stroke="black" d="M750.18,-353.55C750.18,-344.16 750.18,-332.24 750.18,-320.43"/>
<polygon fill="black" stroke="black" points="753.68,-320.75 750.18,-310.75 746.68,-320.75 753.68,-320.75"/>
</g>
<!-- l_rebin&#45;&gt;crop -->
<g id="edge22" class="edge">
<title>l_rebin&#45;&gt;crop</title>
<path fill="none" stroke="black" d="M462.08,-145.81C451.86,-137.07 439.25,-126.28 428.02,-116.67"/>
<polygon fill="black" stroke="black" points="430.39,-114.1 420.52,-110.26 425.84,-119.42 430.39,-114.1"/>
</g>
<!-- q_rebin&#45;&gt;divide_before -->
<g id="edge8" class="edge">
<title>q_rebin&#45;&gt;divide_before</title>
<path fill="none" stroke="black" d="M419.7,-459.18C403.18,-442.7 378.19,-417.78 359.49,-399.12"/>
<polygon fill="black" stroke="black" points="362.01,-396.69 352.46,-392.11 357.07,-401.65 362.01,-396.69"/>
<text text-anchor="middle" x="406.18" y="-421.54" font-family="Helvetica,sans-Serif" font-size="14.00">LHS</text>
</g>
<!-- divide_before&#45;&gt;sum_foreground_q -->
<g id="edge10" class="edge">
<title>divide_before&#45;&gt;sum_foreground_q</title>
<path fill="none" stroke="black" d="M314.14,-354.47C296.09,-338.8 269.32,-315.55 248.79,-297.72"/>
<polygon fill="black" stroke="black" points="251.13,-295.12 241.29,-291.2 246.54,-300.4 251.13,-295.12"/>
</g>
<!-- which_sum_type -->
<g id="node21" class="node">
<title>which_sum_type</title>
<polygon fill="limegreen" stroke="black" points="571.18,-600.35 447,-582.35 571.18,-564.35 695.35,-582.35 571.18,-600.35"/>
<text text-anchor="middle" x="571.18" y="-578.65" font-family="Helvetica,sans-Serif" font-size="14.00">SummationType?</text>
</g>
<!-- statistics&#45;&gt;which_sum_type -->
<g id="edge4" class="edge">
<title>statistics&#45;&gt;which_sum_type</title>
<path fill="none" stroke="black" d="M603.84,-660C597.9,-646.07 589.43,-626.2 582.61,-610.18"/>
<polygon fill="black" stroke="black" points="585.93,-609.05 578.79,-601.22 579.49,-611.79 585.93,-609.05"/>
</g>
<!-- is_rebin_required&#45;&gt;crop -->
<g id="edge19" class="edge">
<title>is_rebin_required&#45;&gt;crop</title>
<path fill="none" stroke="black" d="M716.44,-242.91C675.95,-210.79 610.01,-159.84 582.18,-146 547.78,-128.9 507,-116.21 472.68,-107.45"/>
<polygon fill="black" stroke="black" points="473.79,-104.12 463.24,-105.11 472.11,-110.91 473.79,-104.12"/>
<text text-anchor="middle" x="657.68" y="-160.3" font-family="Helvetica,sans-Serif" font-size="14.00">Direct</text>
</g>
<!-- is_rebin_required&#45;&gt;l_rebin -->
<g id="edge20" class="edge">
<title>is_rebin_required&#45;&gt;l_rebin</title>
<path fill="none" stroke="black" d="M695.94,-248.75C649.68,-230.63 583.48,-204.69 537.04,-186.5"/>
<polygon fill="black" stroke="black" points="538.57,-183.34 527.98,-182.95 536.01,-189.85 538.57,-183.34"/>
<text text-anchor="middle" x="640.68" y="-203.8" font-family="Helvetica,sans-Serif" font-size="14.00">Reflected</text>
</g>
<!-- is_statistics_required&#45;&gt;extract_spectrum -->
<g id="edge5" class="edge">
<title>is_statistics_required&#45;&gt;extract_spectrum</title>
<path fill="none" stroke="black" d="M873.48,-748.5C878.8,-702.06 882.84,-619.33 856.18,-555.48 847.8,-535.43 831.83,-517.24 817.25,-503.59"/>
<polygon fill="black" stroke="black" points="819.81,-501.18 810.02,-497.11 815.13,-506.4 819.81,-501.18"/>
<text text-anchor="middle" x="895.68" y="-631.02" font-family="Helvetica,sans-Serif" font-size="14.00">Direct</text>
</g>
<!-- is_statistics_required&#45;&gt;statistics -->
<g id="edge2" class="edge">
<title>is_statistics_required&#45;&gt;statistics</title>
<path fill="none" stroke="black" d="M815.24,-762.59C771.12,-744.57 708.57,-719.01 664.38,-700.96"/>
<polygon fill="black" stroke="black" points="665.82,-697.77 655.24,-697.23 663.18,-704.25 665.82,-697.77"/>
<text text-anchor="middle" x="764.68" y="-718.02" font-family="Helvetica,sans-Serif" font-size="14.00">Reflected</text>
</g>
<!-- which_sum_type&#45;&gt;extract_spectrum -->
<g id="edge14" class="edge">
<title>which_sum_type&#45;&gt;extract_spectrum</title>
<path fill="none" stroke="black" d="M594.31,-567.4C615.5,-554.9 647.91,-536.43 677.18,-522.48 693.72,-514.59 712.08,-506.84 728.94,-500.1"/>
<polygon fill="black" stroke="black" points="729.79,-503.52 737.81,-496.59 727.22,-497.01 729.79,-503.52"/>
<text text-anchor="middle" x="727.68" y="-526.28" font-family="Helvetica,sans-Serif" font-size="14.00">SumInLambda</text>
</g>
<!-- which_sum_type&#45;&gt;q_rebin -->
<g id="edge6" class="edge">
<title>which_sum_type&#45;&gt;q_rebin</title>
<path fill="none" stroke="black" d="M551.98,-566.63C530.32,-550.03 494.76,-522.76 468.95,-502.97"/>
<polygon fill="black" stroke="black" points="471.19,-500.28 461.13,-496.97 466.93,-505.84 471.19,-500.28"/>
<text text-anchor="middle" x="541.68" y="-526.28" font-family="Helvetica,sans-Serif" font-size="14.00">SumInQ</text>
</g>
</g>
</svg>
