<?xml version="1.0" encoding="UTF-8" standalone="no"?>
<!DOCTYPE svg PUBLIC "-//W3C//DTD SVG 1.1//EN"
 "http://www.w3.org/Graphics/SVG/1.1/DTD/svg11.dtd">
<!-- Generated by graphviz version 7.0.5 (20221231.0122)
 -->
<!-- Title: ReflectometryReductionOne Pages: 1 -->
<svg width="688pt" height="303pt"
 viewBox="0.00 0.00 687.70 303.00" xmlns="http://www.w3.org/2000/svg" xmlns:xlink="http://www.w3.org/1999/xlink">
<g id="graph0" class="graph" transform="scale(1 1) rotate(0) translate(4 299)">
<title>ReflectometryReductionOne</title>
<polygon fill="white" stroke="none" points="-4,4 -4,-299 683.7,-299 683.7,4 -4,4"/>
<!-- inputWorkspace -->
<g id="node1" class="node">
<title>inputWorkspace</title>
<ellipse fill="khaki" stroke="black" cx="285.86" cy="-253" rx="144.87" ry="18"/>
<text text-anchor="middle" x="285.86" y="-249.3" font-family="Helvetica,sans-Serif" font-size="14.00">OutputWorkspaceWavelength</text>
</g>
<!-- checkCorrectAngle -->
<g id="node4" class="node">
<title>checkCorrectAngle</title>
<polygon fill="limegreen" stroke="black" points="285.86,-198 0.14,-180 285.86,-162 571.57,-180 285.86,-198"/>
<text text-anchor="middle" x="285.86" y="-176.3" font-family="Helvetica,sans-Serif" font-size="14.00">Sum in wavelength and ThetaIn provided?</text>
</g>
<!-- inputWorkspace&#45;&gt;checkCorrectAngle -->
<g id="edge1" class="edge">
<title>inputWorkspace&#45;&gt;checkCorrectAngle</title>
<path fill="none" stroke="black" d="M285.86,-234.81C285.86,-227.23 285.86,-218.1 285.86,-209.54"/>
<polygon fill="black" stroke="black" points="289.36,-209.54 285.86,-199.54 282.36,-209.54 289.36,-209.54"/>
</g>
<!-- thetaIn -->
<g id="node2" class="node">
<title>thetaIn</title>
<ellipse fill="khaki" stroke="black" cx="634.86" cy="-180" rx="44.69" ry="18"/>
<text text-anchor="middle" x="634.86" y="-176.3" font-family="Helvetica,sans-Serif" font-size="14.00">ThetaIn</text>
</g>
<!-- refRoi -->
<g id="node6" class="node">
<title>refRoi</title>
<path fill="lightskyblue" stroke="black" d="M421.86,-110C421.86,-110 385.86,-110 385.86,-110 379.86,-110 373.86,-104 373.86,-98 373.86,-98 373.86,-86 373.86,-86 373.86,-80 379.86,-74 385.86,-74 385.86,-74 421.86,-74 421.86,-74 427.86,-74 433.86,-80 433.86,-86 433.86,-86 433.86,-98 433.86,-98 433.86,-104 427.86,-110 421.86,-110"/>
<text text-anchor="middle" x="403.86" y="-88.3" font-family="Helvetica,sans-Serif" font-size="14.00">RefRoi</text>
</g>
<!-- thetaIn&#45;&gt;refRoi -->
<g id="edge5" class="edge">
<title>thetaIn&#45;&gt;refRoi</title>
<path fill="none" stroke="black" d="M602.74,-167.04C561.51,-151.69 489.93,-125.04 444.82,-108.25"/>
<polygon fill="black" stroke="black" points="446.25,-105.05 435.65,-104.84 443.8,-111.61 446.25,-105.05"/>
</g>
<!-- outputWorkspace -->
<g id="node3" class="node">
<title>outputWorkspace</title>
<ellipse fill="khaki" stroke="black" cx="343.86" cy="-18" rx="91.78" ry="18"/>
<text text-anchor="middle" x="343.86" y="-14.3" font-family="Helvetica,sans-Serif" font-size="14.00">OutputWorkspace</text>
</g>
<!-- convertUnits -->
<g id="node5" class="node">
<title>convertUnits</title>
<path fill="lightskyblue" stroke="black" d="M343.36,-111C343.36,-111 228.36,-111 228.36,-111 222.36,-111 216.36,-105 216.36,-99 216.36,-99 216.36,-85 216.36,-85 216.36,-79 222.36,-73 228.36,-73 228.36,-73 343.36,-73 343.36,-73 349.36,-73 355.36,-79 355.36,-85 355.36,-85 355.36,-99 355.36,-99 355.36,-105 349.36,-111 343.36,-111"/>
<text text-anchor="middle" x="285.86" y="-95.8" font-family="Helvetica,sans-Serif" font-size="14.00">ConvertUnits</text>
<text text-anchor="middle" x="285.86" y="-80.8" font-family="Helvetica,sans-Serif" font-size="14.00">(AlignBins=False)</text>
</g>
<!-- checkCorrectAngle&#45;&gt;convertUnits -->
<g id="edge2" class="edge">
<title>checkCorrectAngle&#45;&gt;convertUnits</title>
<path fill="none" stroke="black" d="M285.86,-161.6C285.86,-150.4 285.86,-135.56 285.86,-122.55"/>
<polygon fill="black" stroke="black" points="289.36,-122.78 285.86,-112.78 282.36,-122.78 289.36,-122.78"/>
<text text-anchor="middle" x="295.36" y="-132.8" font-family="Helvetica,sans-Serif" font-size="14.00">No</text>
</g>
<!-- checkCorrectAngle&#45;&gt;refRoi -->
<g id="edge3" class="edge">
<title>checkCorrectAngle&#45;&gt;refRoi</title>
<path fill="none" stroke="black" d="M307.78,-163.03C325.5,-150.11 350.73,-131.72 370.88,-117.03"/>
<polygon fill="black" stroke="black" points="372.79,-119.98 378.81,-111.26 368.66,-114.32 372.79,-119.98"/>
<text text-anchor="middle" x="364.36" y="-132.8" font-family="Helvetica,sans-Serif" font-size="14.00">Yes</text>
</g>
<!-- convertUnits&#45;&gt;outputWorkspace -->
<g id="edge4" class="edge">
<title>convertUnits&#45;&gt;outputWorkspace</title>
<path fill="none" stroke="black" d="M300.49,-72.83C307.34,-64.33 315.61,-54.06 323.09,-44.78"/>
<polygon fill="black" stroke="black" points="325.73,-47.09 329.27,-37.1 320.27,-42.7 325.73,-47.09"/>
</g>
<!-- refRoi&#45;&gt;outputWorkspace -->
<g id="edge6" class="edge">
<title>refRoi&#45;&gt;outputWorkspace</title>
<path fill="none" stroke="black" d="M389.33,-73.57C382.18,-64.99 373.42,-54.48 365.5,-44.97"/>
<polygon fill="black" stroke="black" points="368.31,-42.87 359.22,-37.43 362.93,-47.35 368.31,-42.87"/>
</g>
</g>
</svg>
