<?xml version="1.0" encoding="UTF-8" standalone="no"?>
<!DOCTYPE svg PUBLIC "-//W3C//DTD SVG 1.1//EN"
 "http://www.w3.org/Graphics/SVG/1.1/DTD/svg11.dtd">
<!-- Generated by graphviz version 13.1.2 (20250809.0930)
 -->
<!-- Title: ReflectometryReductionOne Pages: 1 -->
<svg width="738pt" height="310pt"
 viewBox="0.00 0.00 738.00 310.00" xmlns="http://www.w3.org/2000/svg" xmlns:xlink="http://www.w3.org/1999/xlink">
<g id="graph0" class="graph" transform="scale(1 1) rotate(0) translate(4 305.75)">
<title>ReflectometryReductionOne</title>
<polygon fill="white" stroke="none" points="-4,4 -4,-305.75 733.58,-305.75 733.58,4 -4,4"/>
<!-- inputWorkspace -->
<g id="node1" class="node">
<title>inputWorkspace</title>
<ellipse fill="khaki" stroke="black" cx="307.53" cy="-259.75" rx="155.9" ry="18"/>
<text xml:space="preserve" text-anchor="middle" x="307.53" y="-255.07" font-family="Helvetica,sans-Serif" font-size="14.00">OutputWorkspaceWavelength</text>
</g>
<!-- checkCorrectAngle -->
<g id="node4" class="node">
<title>checkCorrectAngle</title>
<polygon fill="limegreen" stroke="black" points="307.53,-204.75 0,-186.75 307.53,-168.75 615.07,-186.75 307.53,-204.75"/>
<text xml:space="preserve" text-anchor="middle" x="307.53" y="-182.07" font-family="Helvetica,sans-Serif" font-size="14.00">Sum in wavelength and ThetaIn provided?</text>
</g>
<!-- inputWorkspace&#45;&gt;checkCorrectAngle -->
<g id="edge1" class="edge">
<title>inputWorkspace&#45;&gt;checkCorrectAngle</title>
<path fill="none" stroke="black" d="M307.53,-241.56C307.53,-233.98 307.53,-224.85 307.53,-216.29"/>
<polygon fill="black" stroke="black" points="311.03,-216.29 307.53,-206.29 304.03,-216.29 311.03,-216.29"/>
</g>
<!-- thetaIn -->
<g id="node2" class="node">
<title>thetaIn</title>
<ellipse fill="khaki" stroke="black" cx="681.53" cy="-186.75" rx="48.05" ry="18"/>
<text xml:space="preserve" text-anchor="middle" x="681.53" y="-182.07" font-family="Helvetica,sans-Serif" font-size="14.00">ThetaIn</text>
</g>
<!-- refRoi -->
<g id="node6" class="node">
<title>refRoi</title>
<path fill="lightskyblue" stroke="black" d="M442.28,-112.25C442.28,-112.25 406.78,-112.25 406.78,-112.25 400.78,-112.25 394.78,-106.25 394.78,-100.25 394.78,-100.25 394.78,-88.25 394.78,-88.25 394.78,-82.25 400.78,-76.25 406.78,-76.25 406.78,-76.25 442.28,-76.25 442.28,-76.25 448.28,-76.25 454.28,-82.25 454.28,-88.25 454.28,-88.25 454.28,-100.25 454.28,-100.25 454.28,-106.25 448.28,-112.25 442.28,-112.25"/>
<text xml:space="preserve" text-anchor="middle" x="424.53" y="-89.58" font-family="Helvetica,sans-Serif" font-size="14.00">RefRoi</text>
</g>
<!-- thetaIn&#45;&gt;refRoi -->
<g id="edge5" class="edge">
<title>thetaIn&#45;&gt;refRoi</title>
<path fill="none" stroke="black" d="M647.41,-173.73C600.31,-157.15 515.52,-127.29 465.2,-109.57"/>
<polygon fill="black" stroke="black" points="466.43,-106.29 455.83,-106.27 464.1,-112.89 466.43,-106.29"/>
</g>
<!-- outputWorkspace -->
<g id="node3" class="node">
<title>outputWorkspace</title>
<ellipse fill="khaki" stroke="black" cx="365.53" cy="-18" rx="98.56" ry="18"/>
<text xml:space="preserve" text-anchor="middle" x="365.53" y="-13.32" font-family="Helvetica,sans-Serif" font-size="14.00">OutputWorkspace</text>
</g>
<!-- convertUnits -->
<g id="node5" class="node">
<title>convertUnits</title>
<path fill="lightskyblue" stroke="black" d="M364.66,-115.5C364.66,-115.5 250.41,-115.5 250.41,-115.5 244.41,-115.5 238.41,-109.5 238.41,-103.5 238.41,-103.5 238.41,-85 238.41,-85 238.41,-79 244.41,-73 250.41,-73 250.41,-73 364.66,-73 364.66,-73 370.66,-73 376.66,-79 376.66,-85 376.66,-85 376.66,-103.5 376.66,-103.5 376.66,-109.5 370.66,-115.5 364.66,-115.5"/>
<text xml:space="preserve" text-anchor="middle" x="307.53" y="-98.2" font-family="Helvetica,sans-Serif" font-size="14.00">ConvertUnits</text>
<text xml:space="preserve" text-anchor="middle" x="307.53" y="-80.95" font-family="Helvetica,sans-Serif" font-size="14.00">(AlignBins=False)</text>
</g>
<!-- checkCorrectAngle&#45;&gt;convertUnits -->
<g id="edge2" class="edge">
<title>checkCorrectAngle&#45;&gt;convertUnits</title>
<path fill="none" stroke="black" d="M307.53,-168.3C307.53,-156.58 307.53,-140.81 307.53,-126.91"/>
<polygon fill="black" stroke="black" points="311.03,-127.33 307.53,-117.33 304.03,-127.33 311.03,-127.33"/>
<text xml:space="preserve" text-anchor="middle" x="316.91" y="-137.45" font-family="Helvetica,sans-Serif" font-size="14.00">No</text>
</g>
<!-- checkCorrectAngle&#45;&gt;refRoi -->
<g id="edge3" class="edge">
<title>checkCorrectAngle&#45;&gt;refRoi</title>
<path fill="none" stroke="black" d="M328.45,-169.57C346.46,-155.64 372.72,-135.33 393.23,-119.46"/>
<polygon fill="black" stroke="black" points="395.24,-122.33 401.01,-113.45 390.95,-116.8 395.24,-122.33"/>
<text xml:space="preserve" text-anchor="middle" x="384.29" y="-137.45" font-family="Helvetica,sans-Serif" font-size="14.00">Yes</text>
</g>
<!-- convertUnits&#45;&gt;outputWorkspace -->
<g id="edge4" class="edge">
<title>convertUnits&#45;&gt;outputWorkspace</title>
<path fill="none" stroke="black" d="M323.69,-72.57C330.36,-64.03 338.16,-54.04 345.21,-45.02"/>
<polygon fill="black" stroke="black" points="347.87,-47.29 351.27,-37.26 342.36,-42.99 347.87,-47.29"/>
</g>
<!-- refRoi&#45;&gt;outputWorkspace -->
<g id="edge6" class="edge">
<title>refRoi&#45;&gt;outputWorkspace</title>
<path fill="none" stroke="black" d="M410.85,-76.03C403.55,-66.85 394.42,-55.35 386.27,-45.1"/>
<polygon fill="black" stroke="black" points="389.05,-42.96 380.08,-37.31 383.57,-47.32 389.05,-42.96"/>
</g>
</g>
</svg>
