<?xml version="1.0" encoding="UTF-8" standalone="no"?>
<!DOCTYPE svg PUBLIC "-//W3C//DTD SVG 1.1//EN"
 "http://www.w3.org/Graphics/SVG/1.1/DTD/svg11.dtd">
<!-- Generated by graphviz version 13.1.1 (20250720.1534)
 -->
<!-- Title: ReflectometryReductionOne Pages: 1 -->
<svg width="373pt" height="315pt"
 viewBox="0.00 0.00 373.00 315.00" xmlns="http://www.w3.org/2000/svg" xmlns:xlink="http://www.w3.org/1999/xlink">
<g id="graph0" class="graph" transform="scale(1 1) rotate(0) translate(4 310.6)">
<title>ReflectometryReductionOne</title>
<polygon fill="white" stroke="none" points="-4,4 -4,-310.6 368.71,-310.6 368.71,4 -4,4"/>
<!-- inputWS -->
<g id="node1" class="node">
<title>inputWS</title>
<ellipse fill="khaki" stroke="black" cx="120.65" cy="-252.55" rx="90.14" ry="18"/>
<text xml:space="preserve" text-anchor="middle" x="120.65" y="-247.88" font-family="Helvetica,sans-Serif" font-size="14.00">InputWorkspace</text>
</g>
<!-- groupDetRDB -->
<g id="node5" class="node">
<title>groupDetRDB</title>
<path fill="lightskyblue" stroke="black" d="M171.03,-186.5C171.03,-186.5 70.28,-186.5 70.28,-186.5 64.28,-186.5 58.28,-180.5 58.28,-174.5 58.28,-174.5 58.28,-162.5 58.28,-162.5 58.28,-156.5 64.28,-150.5 70.28,-150.5 70.28,-150.5 171.03,-150.5 171.03,-150.5 177.03,-150.5 183.03,-156.5 183.03,-162.5 183.03,-162.5 183.03,-174.5 183.03,-174.5 183.03,-180.5 177.03,-186.5 171.03,-186.5"/>
<text xml:space="preserve" text-anchor="middle" x="120.65" y="-163.82" font-family="Helvetica,sans-Serif" font-size="14.00">GroupDetectors</text>
</g>
<!-- inputWS&#45;&gt;groupDetRDB -->
<g id="edge1" class="edge">
<title>inputWS&#45;&gt;groupDetRDB</title>
<path fill="none" stroke="black" d="M120.65,-234.15C120.65,-223.71 120.65,-210.17 120.65,-198.18"/>
<polygon fill="black" stroke="black" points="124.15,-198.39 120.65,-188.39 117.15,-198.39 124.15,-198.39"/>
</g>
<!-- outputWS -->
<g id="node2" class="node">
<title>outputWS</title>
<ellipse fill="khaki" stroke="black" cx="120.65" cy="-18" rx="120.65" ry="18"/>
<text xml:space="preserve" text-anchor="middle" x="120.65" y="-13.32" font-family="Helvetica,sans-Serif" font-size="14.00">DirectBeamWorkspace</text>
</g>
<!-- regionOfDirectBeam -->
<g id="node3" class="node">
<title>regionOfDirectBeam</title>
<ellipse fill="khaki" stroke="black" cx="296.65" cy="-252.55" rx="68.06" ry="30.05"/>
<text xml:space="preserve" text-anchor="middle" x="296.65" y="-256.5" font-family="Helvetica,sans-Serif" font-size="14.00">RegionOf&#45;</text>
<text xml:space="preserve" text-anchor="middle" x="296.65" y="-239.25" font-family="Helvetica,sans-Serif" font-size="14.00">DirectBeam</text>
</g>
<!-- regionOfDirectBeam&#45;&gt;groupDetRDB -->
<g id="edge2" class="edge">
<title>regionOfDirectBeam&#45;&gt;groupDetRDB</title>
<path fill="none" stroke="black" d="M250.87,-230.21C225.45,-218.36 193.86,-203.63 168.17,-191.65"/>
<polygon fill="black" stroke="black" points="169.83,-188.56 159.29,-187.51 166.87,-194.91 169.83,-188.56"/>
</g>
<!-- convertDB -->
<g id="node4" class="node">
<title>convertDB</title>
<path fill="lightskyblue" stroke="black" d="M180.03,-114.5C180.03,-114.5 61.28,-114.5 61.28,-114.5 55.28,-114.5 49.28,-108.5 49.28,-102.5 49.28,-102.5 49.28,-84 49.28,-84 49.28,-78 55.28,-72 61.28,-72 61.28,-72 180.03,-72 180.03,-72 186.03,-72 192.03,-78 192.03,-84 192.03,-84 192.03,-102.5 192.03,-102.5 192.03,-108.5 186.03,-114.5 180.03,-114.5"/>
<text xml:space="preserve" text-anchor="middle" x="120.65" y="-97.2" font-family="Helvetica,sans-Serif" font-size="14.00">ConvertUnits</text>
<text xml:space="preserve" text-anchor="middle" x="120.65" y="-79.95" font-family="Helvetica,sans-Serif" font-size="14.00">(AlignBins = True)</text>
</g>
<!-- convertDB&#45;&gt;outputWS -->
<g id="edge4" class="edge">
<title>convertDB&#45;&gt;outputWS</title>
<path fill="none" stroke="black" d="M120.65,-71.85C120.65,-64.34 120.65,-55.69 120.65,-47.59"/>
<polygon fill="black" stroke="black" points="124.15,-47.83 120.65,-37.83 117.15,-47.83 124.15,-47.83"/>
</g>
<!-- groupDetRDB&#45;&gt;convertDB -->
<g id="edge3" class="edge">
<title>groupDetRDB&#45;&gt;convertDB</title>
<path fill="none" stroke="black" d="M120.65,-150.14C120.65,-142.95 120.65,-134.38 120.65,-126.13"/>
<polygon fill="black" stroke="black" points="124.15,-126.38 120.65,-116.38 117.15,-126.38 124.15,-126.38"/>
</g>
</g>
</svg>
