<?xml version="1.0" encoding="UTF-8" standalone="no"?>
<!DOCTYPE svg PUBLIC "-//W3C//DTD SVG 1.1//EN"
 "http://www.w3.org/Graphics/SVG/1.1/DTD/svg11.dtd">
<!-- Generated by graphviz version 7.1.0 (20230122.1345)
 -->
<!-- Title: ReflectometryILLConvertToQ Pages: 1 -->
<svg width="722pt" height="737pt"
 viewBox="0.00 0.00 721.79 737.00" xmlns="http://www.w3.org/2000/svg" xmlns:xlink="http://www.w3.org/1999/xlink">
<g id="graph0" class="graph" transform="scale(1 1) rotate(0) translate(4 733)">
<title>ReflectometryILLConvertToQ</title>
<polygon fill="white" stroke="none" points="-4,4 -4,-733 717.79,-733 717.79,4 -4,4"/>
<text text-anchor="middle" x="356.89" y="-713.8" font-family="Helvetica,sans-Serif" font-size="14.00">ReflectometryILLConvertToQ workflow diagram</text>
<!-- input -->
<g id="node1" class="node">
<title>input</title>
<ellipse fill="khaki" stroke="black" cx="271" cy="-688" rx="83.69" ry="18"/>
<text text-anchor="middle" x="271" y="-684.3" font-family="Helvetica,sans-Serif" font-size="14.00">InputWorkspace</text>
</g>
<!-- refl_to_q -->
<g id="node9" class="node">
<title>refl_to_q</title>
<path fill="lightskyblue" stroke="black" d="M383.5,-633C383.5,-633 158.5,-633 158.5,-633 152.5,-633 146.5,-627 146.5,-621 146.5,-621 146.5,-609 146.5,-609 146.5,-603 152.5,-597 158.5,-597 158.5,-597 383.5,-597 383.5,-597 389.5,-597 395.5,-603 395.5,-609 395.5,-609 395.5,-621 395.5,-621 395.5,-627 389.5,-633 383.5,-633"/>
<text text-anchor="middle" x="271" y="-611.3" font-family="Helvetica,sans-Serif" font-size="14.00">ReflectometryMomentumTransfer</text>
</g>
<!-- input&#45;&gt;refl_to_q -->
<g id="edge1" class="edge">
<title>input&#45;&gt;refl_to_q</title>
<path fill="none" stroke="black" d="M271,-669.81C271,-662.23 271,-653.1 271,-644.54"/>
<polygon fill="black" stroke="black" points="274.5,-644.54 271,-634.54 267.5,-644.54 274.5,-644.54"/>
</g>
<!-- output -->
<g id="node2" class="node">
<title>output</title>
<ellipse fill="khaki" stroke="black" cx="355" cy="-18" rx="91.78" ry="18"/>
<text text-anchor="middle" x="355" y="-14.3" font-family="Helvetica,sans-Serif" font-size="14.00">OutputWorkspace</text>
</g>
<!-- direct_foreground -->
<g id="node3" class="node">
<title>direct_foreground</title>
<ellipse fill="khaki" stroke="black" cx="576" cy="-615" rx="137.58" ry="18"/>
<text text-anchor="middle" x="576" y="-611.3" font-family="Helvetica,sans-Serif" font-size="14.00">DirectForegroundWorkspace</text>
</g>
<!-- direct_to_q -->
<g id="node6" class="node">
<title>direct_to_q</title>
<path fill="lightskyblue" stroke="black" d="M644,-546C644,-546 508,-546 508,-546 502,-546 496,-540 496,-534 496,-534 496,-520 496,-520 496,-514 502,-508 508,-508 508,-508 644,-508 644,-508 650,-508 656,-514 656,-520 656,-520 656,-534 656,-534 656,-540 650,-546 644,-546"/>
<text text-anchor="middle" x="576" y="-530.8" font-family="Helvetica,sans-Serif" font-size="14.00">Copy Q and dQ from</text>
<text text-anchor="middle" x="576" y="-515.8" font-family="Helvetica,sans-Serif" font-size="14.00">reflected</text>
</g>
<!-- direct_foreground&#45;&gt;direct_to_q -->
<g id="edge12" class="edge">
<title>direct_foreground&#45;&gt;direct_to_q</title>
<path fill="none" stroke="black" d="M576,-596.6C576,-585.4 576,-570.56 576,-557.55"/>
<polygon fill="black" stroke="black" points="579.5,-557.78 576,-547.78 572.5,-557.78 579.5,-557.78"/>
</g>
<!-- q_grouping -->
<g id="node4" class="node">
<title>q_grouping</title>
<ellipse fill="khaki" stroke="black" cx="383" cy="-527" rx="94.78" ry="18"/>
<text text-anchor="middle" x="383" y="-523.3" font-family="Helvetica,sans-Serif" font-size="14.00">GroupingQFraction</text>
</g>
<!-- direct_group_points -->
<g id="node8" class="node">
<title>direct_group_points</title>
<path fill="lightskyblue" stroke="black" d="M641.5,-377C641.5,-377 486.5,-377 486.5,-377 480.5,-377 474.5,-371 474.5,-365 474.5,-365 474.5,-351 474.5,-351 474.5,-345 480.5,-339 486.5,-339 486.5,-339 641.5,-339 641.5,-339 647.5,-339 653.5,-345 653.5,-351 653.5,-351 653.5,-365 653.5,-365 653.5,-371 647.5,-377 641.5,-377"/>
<text text-anchor="middle" x="564" y="-361.8" font-family="Helvetica,sans-Serif" font-size="14.00">Optionally group points</text>
<text text-anchor="middle" x="564" y="-346.8" font-family="Helvetica,sans-Serif" font-size="14.00">to Q resolution</text>
</g>
<!-- q_grouping&#45;&gt;direct_group_points -->
<g id="edge18" class="edge">
<title>q_grouping&#45;&gt;direct_group_points</title>
<path fill="none" stroke="black" d="M401.35,-509.07C433.1,-479.77 498.47,-419.46 535.95,-384.88"/>
<polygon fill="black" stroke="black" points="537.86,-387.88 542.84,-378.52 533.12,-382.73 537.86,-387.88"/>
</g>
<!-- refl_group_points -->
<g id="node11" class="node">
<title>refl_group_points</title>
<path fill="lightskyblue" stroke="black" d="M305.5,-471C305.5,-471 150.5,-471 150.5,-471 144.5,-471 138.5,-465 138.5,-459 138.5,-459 138.5,-445 138.5,-445 138.5,-439 144.5,-433 150.5,-433 150.5,-433 305.5,-433 305.5,-433 311.5,-433 317.5,-439 317.5,-445 317.5,-445 317.5,-459 317.5,-459 317.5,-465 311.5,-471 305.5,-471"/>
<text text-anchor="middle" x="228" y="-455.8" font-family="Helvetica,sans-Serif" font-size="14.00">Optionally group points</text>
<text text-anchor="middle" x="228" y="-440.8" font-family="Helvetica,sans-Serif" font-size="14.00">to Q resolution</text>
</g>
<!-- q_grouping&#45;&gt;refl_group_points -->
<g id="edge17" class="edge">
<title>q_grouping&#45;&gt;refl_group_points</title>
<path fill="none" stroke="black" d="M348.6,-509.8C327.72,-499.96 300.71,-487.25 277.55,-476.34"/>
<polygon fill="black" stroke="black" points="279.13,-473.21 268.59,-472.12 276.14,-479.54 279.13,-473.21"/>
</g>
<!-- ThetaCorrection -->
<g id="node5" class="node">
<title>ThetaCorrection</title>
<ellipse fill="khaki" stroke="black" cx="479" cy="-178" rx="81.79" ry="18"/>
<text text-anchor="middle" x="479" y="-174.3" font-family="Helvetica,sans-Serif" font-size="14.00">ThetaCorrection</text>
</g>
<!-- gravityCorrection -->
<g id="node12" class="node">
<title>gravityCorrection</title>
<path fill="lightskyblue" stroke="black" d="M555,-109C555,-109 391,-109 391,-109 385,-109 379,-103 379,-97 379,-97 379,-85 379,-85 379,-79 385,-73 391,-73 391,-73 555,-73 555,-73 561,-73 567,-79 567,-85 567,-85 567,-97 567,-97 567,-103 561,-109 555,-109"/>
<text text-anchor="middle" x="473" y="-87.3" font-family="Helvetica,sans-Serif" font-size="14.00">Gravity correction step 1</text>
</g>
<!-- ThetaCorrection&#45;&gt;gravityCorrection -->
<g id="edge9" class="edge">
<title>ThetaCorrection&#45;&gt;gravityCorrection</title>
<path fill="none" stroke="black" d="M477.79,-159.8C476.99,-148.58 475.94,-133.67 475.02,-120.69"/>
<polygon fill="black" stroke="black" points="478.54,-120.71 474.34,-110.98 471.55,-121.2 478.54,-120.71"/>
</g>
<!-- direct_to_point_data -->
<g id="node7" class="node">
<title>direct_to_point_data</title>
<path fill="lightskyblue" stroke="black" d="M635,-470C635,-470 507,-470 507,-470 501,-470 495,-464 495,-458 495,-458 495,-446 495,-446 495,-440 501,-434 507,-434 507,-434 635,-434 635,-434 641,-434 647,-440 647,-446 647,-446 647,-458 647,-458 647,-464 641,-470 635,-470"/>
<text text-anchor="middle" x="571" y="-448.3" font-family="Helvetica,sans-Serif" font-size="14.00">ConvertToPointData</text>
</g>
<!-- direct_to_q&#45;&gt;direct_to_point_data -->
<g id="edge14" class="edge">
<title>direct_to_q&#45;&gt;direct_to_point_data</title>
<path fill="none" stroke="black" d="M574.74,-507.58C574.2,-499.74 573.56,-490.41 572.97,-481.7"/>
<polygon fill="black" stroke="black" points="576.47,-481.66 572.3,-471.92 569.49,-482.14 576.47,-481.66"/>
</g>
<!-- direct_to_point_data&#45;&gt;direct_group_points -->
<g id="edge15" class="edge">
<title>direct_to_point_data&#45;&gt;direct_group_points</title>
<path fill="none" stroke="black" d="M569.68,-433.7C568.72,-421.05 567.39,-403.57 566.26,-388.71"/>
<polygon fill="black" stroke="black" points="569.77,-388.7 565.52,-379 562.79,-389.24 569.77,-388.7"/>
</g>
<!-- divide -->
<g id="node13" class="node">
<title>divide</title>
<path fill="lightskyblue" stroke="black" d="M312,-269C312,-269 276,-269 276,-269 270,-269 264,-263 264,-257 264,-257 264,-245 264,-245 264,-239 270,-233 276,-233 276,-233 312,-233 312,-233 318,-233 324,-239 324,-245 324,-245 324,-257 324,-257 324,-263 318,-269 312,-269"/>
<text text-anchor="middle" x="294" y="-247.3" font-family="Helvetica,sans-Serif" font-size="14.00">Divide</text>
</g>
<!-- direct_group_points&#45;&gt;divide -->
<g id="edge16" class="edge">
<title>direct_group_points&#45;&gt;divide</title>
<path fill="none" stroke="black" d="M516.66,-338.59C465.2,-318.58 383.8,-286.92 334.98,-267.94"/>
<polygon fill="black" stroke="black" points="336.49,-264.77 325.9,-264.4 333.95,-271.29 336.49,-264.77"/>
<text text-anchor="middle" x="436" y="-290.8" font-family="Helvetica,sans-Serif" font-size="14.00">RHS</text>
</g>
<!-- refl_to_q&#45;&gt;direct_to_q -->
<g id="edge13" class="edge">
<title>refl_to_q&#45;&gt;direct_to_q</title>
<path fill="none" stroke="black" d="M332.72,-596.6C380.8,-583.04 447.82,-564.14 499.34,-549.62"/>
<polygon fill="black" stroke="black" points="500.28,-552.99 508.96,-546.9 498.38,-546.25 500.28,-552.99"/>
<text text-anchor="middle" x="493.5" y="-567.8" font-family="Helvetica,sans-Serif" font-size="14.00">Q and dQ data</text>
</g>
<!-- refl_to_point_data -->
<g id="node10" class="node">
<title>refl_to_point_data</title>
<path fill="lightskyblue" stroke="black" d="M258,-545C258,-545 130,-545 130,-545 124,-545 118,-539 118,-533 118,-533 118,-521 118,-521 118,-515 124,-509 130,-509 130,-509 258,-509 258,-509 264,-509 270,-515 270,-521 270,-521 270,-533 270,-533 270,-539 264,-545 258,-545"/>
<text text-anchor="middle" x="194" y="-523.3" font-family="Helvetica,sans-Serif" font-size="14.00">ConvertToPointData</text>
</g>
<!-- refl_to_q&#45;&gt;refl_to_point_data -->
<g id="edge2" class="edge">
<title>refl_to_q&#45;&gt;refl_to_point_data</title>
<path fill="none" stroke="black" d="M255.42,-596.6C244.35,-584.24 229.32,-567.45 216.9,-553.57"/>
<polygon fill="black" stroke="black" points="219.85,-551.62 210.57,-546.51 214.63,-556.29 219.85,-551.62"/>
</g>
<!-- refl_to_point_data&#45;&gt;refl_group_points -->
<g id="edge3" class="edge">
<title>refl_to_point_data&#45;&gt;refl_group_points</title>
<path fill="none" stroke="black" d="M202.06,-508.7C205.81,-500.64 210.38,-490.83 214.63,-481.71"/>
<polygon fill="black" stroke="black" points="217.72,-483.37 218.77,-472.82 211.37,-480.41 217.72,-483.37"/>
</g>
<!-- if_direct_foreground -->
<g id="node14" class="node">
<title>if_direct_foreground</title>
<polygon fill="limegreen" stroke="black" points="228,-396 0,-358 228,-320 456,-358 228,-396"/>
<text text-anchor="middle" x="228" y="-361.8" font-family="Helvetica,sans-Serif" font-size="14.00">Is DirectForegroundWorkspace</text>
<text text-anchor="middle" x="228" y="-346.8" font-family="Helvetica,sans-Serif" font-size="14.00">available?</text>
</g>
<!-- refl_group_points&#45;&gt;if_direct_foreground -->
<g id="edge4" class="edge">
<title>refl_group_points&#45;&gt;if_direct_foreground</title>
<path fill="none" stroke="black" d="M228,-432.82C228,-425.46 228,-416.57 228,-407.55"/>
<polygon fill="black" stroke="black" points="231.5,-407.68 228,-397.68 224.5,-407.68 231.5,-407.68"/>
</g>
<!-- gravityCorrection&#45;&gt;output -->
<g id="edge10" class="edge">
<title>gravityCorrection&#45;&gt;output</title>
<path fill="none" stroke="black" d="M444.13,-72.63C428.39,-63.16 408.74,-51.33 391.89,-41.2"/>
<polygon fill="black" stroke="black" points="394.02,-38.39 383.65,-36.24 390.41,-44.39 394.02,-38.39"/>
</g>
<!-- correctGravity -->
<g id="node15" class="node">
<title>correctGravity</title>
<polygon fill="limegreen" stroke="black" points="240,-196 101.41,-178 240,-160 378.59,-178 240,-196"/>
<text text-anchor="middle" x="240" y="-174.3" font-family="Helvetica,sans-Serif" font-size="14.00">Correct for gravity?</text>
</g>
<!-- divide&#45;&gt;correctGravity -->
<g id="edge7" class="edge">
<title>divide&#45;&gt;correctGravity</title>
<path fill="none" stroke="black" d="M280.93,-232.81C274.28,-224.07 266.08,-213.29 258.77,-203.68"/>
<polygon fill="black" stroke="black" points="261.6,-201.62 252.76,-195.78 256.03,-205.86 261.6,-201.62"/>
</g>
<!-- if_direct_foreground&#45;&gt;divide -->
<g id="edge6" class="edge">
<title>if_direct_foreground&#45;&gt;divide</title>
<path fill="none" stroke="black" d="M249.25,-323.2C258.25,-308.87 268.61,-292.4 277.09,-278.91"/>
<polygon fill="black" stroke="black" points="279.99,-280.87 282.34,-270.54 274.06,-277.15 279.99,-280.87"/>
<text text-anchor="middle" x="301.5" y="-290.8" font-family="Helvetica,sans-Serif" font-size="14.00">yes, LHS</text>
</g>
<!-- if_direct_foreground&#45;&gt;correctGravity -->
<g id="edge5" class="edge">
<title>if_direct_foreground&#45;&gt;correctGravity</title>
<path fill="none" stroke="black" d="M230.49,-320.12C232.75,-286.5 236.05,-237.55 238.11,-207.03"/>
<polygon fill="black" stroke="black" points="241.58,-207.65 238.76,-197.44 234.59,-207.18 241.58,-207.65"/>
<text text-anchor="middle" x="246" y="-247.3" font-family="Helvetica,sans-Serif" font-size="14.00">no</text>
</g>
<!-- correctGravity&#45;&gt;output -->
<g id="edge11" class="edge">
<title>correctGravity&#45;&gt;output</title>
<path fill="none" stroke="black" d="M291.56,-166.33C305.48,-161.12 319.35,-153.41 329,-142 340.88,-127.96 348.38,-79.13 352.13,-47.38"/>
<polygon fill="black" stroke="black" points="355.58,-47.99 353.21,-37.66 348.62,-47.21 355.58,-47.99"/>
<text text-anchor="middle" x="358" y="-87.3" font-family="Helvetica,sans-Serif" font-size="14.00">no</text>
</g>
<!-- correctGravity&#45;&gt;gravityCorrection -->
<g id="edge8" class="edge">
<title>correctGravity&#45;&gt;gravityCorrection</title>
<path fill="none" stroke="black" d="M275.13,-164.18C312.13,-150.69 370.99,-129.21 414.91,-113.19"/>
<polygon fill="black" stroke="black" points="415.83,-116.58 424.03,-109.87 413.43,-110 415.83,-116.58"/>
<text text-anchor="middle" x="415" y="-130.8" font-family="Helvetica,sans-Serif" font-size="14.00">yes, FIGARO</text>
</g>
</g>
</svg>
