<?xml version="1.0" encoding="UTF-8" standalone="no"?>
<!DOCTYPE svg PUBLIC "-//W3C//DTD SVG 1.1//EN"
 "http://www.w3.org/Graphics/SVG/1.1/DTD/svg11.dtd">
<!-- Generated by graphviz version 11.0.0 (20240519.1550)
 -->
<!-- Title: ReflectometryReductionOne Pages: 1 -->
<svg width="357pt" height="627pt"
 viewBox="0.00 0.00 357.28 627.00" xmlns="http://www.w3.org/2000/svg" xmlns:xlink="http://www.w3.org/1999/xlink">
<g id="graph0" class="graph" transform="scale(1 1) rotate(0) translate(4 623)">
<title>ReflectometryReductionOne</title>
<polygon fill="white" stroke="none" points="-4,4 -4,-623 353.28,-623 353.28,4 -4,4"/>
<!-- inputWS -->
<g id="node1" class="node">
<title>inputWS</title>
<ellipse fill="khaki" stroke="black" cx="155.9" cy="-577" rx="90.14" ry="18"/>
<text text-anchor="middle" x="155.9" y="-572.33" font-family="Helvetica,sans-Serif" font-size="14.00">InputWorkspace</text>
</g>
<!-- checkSumDone -->
<g id="node4" class="node">
<title>checkSumDone</title>
<polygon fill="limegreen" stroke="black" points="155.9,-523 2.39,-505 155.9,-487 309.42,-505 155.9,-523"/>
<text text-anchor="middle" x="155.9" y="-500.32" font-family="Helvetica,sans-Serif" font-size="14.00">Reduction required?</text>
</g>
<!-- inputWS&#45;&gt;checkSumDone -->
<g id="edge1" class="edge">
<title>inputWS&#45;&gt;checkSumDone</title>
<path fill="none" stroke="black" d="M155.9,-558.7C155.9,-551.41 155.9,-542.73 155.9,-534.54"/>
<polygon fill="black" stroke="black" points="159.4,-534.62 155.9,-524.62 152.4,-534.62 159.4,-534.62"/>
</g>
<!-- outputWSWL -->
<g id="node2" class="node">
<title>outputWSWL</title>
<ellipse fill="khaki" stroke="black" cx="155.9" cy="-168.5" rx="155.9" ry="18"/>
<text text-anchor="middle" x="155.9" y="-163.82" font-family="Helvetica,sans-Serif" font-size="14.00">OutputWorkspaceWavelength</text>
</g>
<!-- convertMom -->
<g id="node8" class="node">
<title>convertMom</title>
<polygon fill="lightseagreen" stroke="black" points="242.65,-114.5 69.15,-114.5 69.15,-72 242.65,-72 242.65,-114.5"/>
<text text-anchor="middle" x="155.9" y="-97.2" font-family="Helvetica,sans-Serif" font-size="14.00">Convert to momentum</text>
<text text-anchor="middle" x="155.9" y="-79.95" font-family="Helvetica,sans-Serif" font-size="14.00">transfer</text>
</g>
<!-- outputWSWL&#45;&gt;convertMom -->
<g id="edge7" class="edge">
<title>outputWSWL&#45;&gt;convertMom</title>
<path fill="none" stroke="black" d="M155.9,-150.14C155.9,-142.95 155.9,-134.38 155.9,-126.13"/>
<polygon fill="black" stroke="black" points="159.4,-126.38 155.9,-116.38 152.4,-126.38 159.4,-126.38"/>
</g>
<!-- outputWSFinal -->
<g id="node3" class="node">
<title>outputWSFinal</title>
<ellipse fill="khaki" stroke="black" cx="155.9" cy="-18" rx="98.56" ry="18"/>
<text text-anchor="middle" x="155.9" y="-13.32" font-family="Helvetica,sans-Serif" font-size="14.00">OutputWorkspace</text>
</g>
<!-- convertUnits -->
<g id="node5" class="node">
<title>convertUnits</title>
<polygon fill="lightseagreen" stroke="black" points="349.28,-433.75 176.53,-433.75 176.53,-374 349.28,-374 349.28,-433.75"/>
<text text-anchor="middle" x="262.9" y="-416.45" font-family="Helvetica,sans-Serif" font-size="14.00">Convert to λ</text>
<text text-anchor="middle" x="262.9" y="-399.2" font-family="Helvetica,sans-Serif" font-size="14.00">Sum in λ</text>
<text text-anchor="middle" x="262.9" y="-381.95" font-family="Helvetica,sans-Serif" font-size="14.00">Normalize by monitors</text>
</g>
<!-- checkSumDone&#45;&gt;convertUnits -->
<g id="edge3" class="edge">
<title>checkSumDone&#45;&gt;convertUnits</title>
<path fill="none" stroke="black" d="M172.62,-488.51C186.06,-476.06 205.49,-458.06 222.89,-441.94"/>
<polygon fill="black" stroke="black" points="225.17,-444.61 230.12,-435.24 220.41,-439.47 225.17,-444.61"/>
<text text-anchor="middle" x="220.15" y="-455.7" font-family="Helvetica,sans-Serif" font-size="14.00">Yes</text>
</g>
<!-- applyCorrTrans -->
<g id="node6" class="node">
<title>applyCorrTrans</title>
<polygon fill="lightseagreen" stroke="black" points="230.65,-337 81.15,-337 81.15,-294.5 230.65,-294.5 230.65,-337"/>
<text text-anchor="middle" x="155.9" y="-319.7" font-family="Helvetica,sans-Serif" font-size="14.00">Apply transmission</text>
<text text-anchor="middle" x="155.9" y="-302.45" font-family="Helvetica,sans-Serif" font-size="14.00"> corrections</text>
</g>
<!-- checkSumDone&#45;&gt;applyCorrTrans -->
<g id="edge2" class="edge">
<title>checkSumDone&#45;&gt;applyCorrTrans</title>
<path fill="none" stroke="black" d="M153.81,-487C152.17,-472.79 150.03,-451.99 149.15,-433.75 147.88,-407.22 147.6,-400.51 149.15,-374 149.64,-365.72 150.52,-356.79 151.49,-348.51"/>
<polygon fill="black" stroke="black" points="154.92,-349.23 152.69,-338.87 147.98,-348.36 154.92,-349.23"/>
<text text-anchor="middle" x="158.28" y="-399.2" font-family="Helvetica,sans-Serif" font-size="14.00">No</text>
</g>
<!-- convertUnits&#45;&gt;applyCorrTrans -->
<g id="edge4" class="edge">
<title>convertUnits&#45;&gt;applyCorrTrans</title>
<path fill="none" stroke="black" d="M226.68,-373.72C215.01,-364.32 202.1,-353.94 190.55,-344.64"/>
<polygon fill="black" stroke="black" points="192.78,-341.94 182.8,-338.4 188.39,-347.39 192.78,-341.94"/>
</g>
<!-- sumInQ -->
<g id="node7" class="node">
<title>sumInQ</title>
<polygon fill="lightseagreen" stroke="black" points="196.15,-258.5 115.65,-258.5 115.65,-222.5 196.15,-222.5 196.15,-258.5"/>
<text text-anchor="middle" x="155.9" y="-235.82" font-family="Helvetica,sans-Serif" font-size="14.00">Sum in Q</text>
</g>
<!-- applyCorrTrans&#45;&gt;sumInQ -->
<g id="edge5" class="edge">
<title>applyCorrTrans&#45;&gt;sumInQ</title>
<path fill="none" stroke="black" d="M155.9,-294.35C155.9,-286.84 155.9,-278.19 155.9,-270.09"/>
<polygon fill="black" stroke="black" points="159.4,-270.33 155.9,-260.33 152.4,-270.33 159.4,-270.33"/>
</g>
<!-- sumInQ&#45;&gt;outputWSWL -->
<g id="edge6" class="edge">
<title>sumInQ&#45;&gt;outputWSWL</title>
<path fill="none" stroke="black" d="M155.9,-222.2C155.9,-214.91 155.9,-206.23 155.9,-198.04"/>
<polygon fill="black" stroke="black" points="159.4,-198.12 155.9,-188.12 152.4,-198.12 159.4,-198.12"/>
</g>
<!-- convertMom&#45;&gt;outputWSFinal -->
<g id="edge8" class="edge">
<title>convertMom&#45;&gt;outputWSFinal</title>
<path fill="none" stroke="black" d="M155.9,-71.85C155.9,-64.34 155.9,-55.69 155.9,-47.59"/>
<polygon fill="black" stroke="black" points="159.4,-47.83 155.9,-37.83 152.4,-47.83 159.4,-47.83"/>
</g>
</g>
</svg>
