<?xml version="1.0" encoding="UTF-8" standalone="no"?>
<!DOCTYPE svg PUBLIC "-//W3C//DTD SVG 1.1//EN"
 "http://www.w3.org/Graphics/SVG/1.1/DTD/svg11.dtd">
<!-- Generated by graphviz version 7.0.5 (20221231.0122)
 -->
<!-- Title: ReflectometryILLPreprocess Pages: 1 -->
<svg width="423pt" height="906pt"
 viewBox="0.00 0.00 423.00 906.00" xmlns="http://www.w3.org/2000/svg" xmlns:xlink="http://www.w3.org/1999/xlink">
<g id="graph0" class="graph" transform="scale(1 1) rotate(0) translate(4 902)">
<title>ReflectometryILLPreprocess</title>
<polygon fill="white" stroke="none" points="-4,4 -4,-902 419,-902 419,4 -4,4"/>
<text text-anchor="middle" x="207.5" y="-882.8" font-family="Helvetica,sans-Serif" font-size="14.00">Direct Beam Preprocessing</text>
<!-- run -->
<g id="node1" class="node">
<title>run</title>
<ellipse fill="khaki" stroke="black" cx="63" cy="-857" rx="28.7" ry="18"/>
<text text-anchor="middle" x="63" y="-853.3" font-family="Helvetica,sans-Serif" font-size="14.00">Run</text>
</g>
<!-- load -->
<g id="node7" class="node">
<title>load</title>
<path fill="lightskyblue" stroke="black" d="M111,-802C111,-802 15,-802 15,-802 9,-802 3,-796 3,-790 3,-790 3,-778 3,-778 3,-772 9,-766 15,-766 15,-766 111,-766 111,-766 117,-766 123,-772 123,-778 123,-778 123,-790 123,-790 123,-796 117,-802 111,-802"/>
<text text-anchor="middle" x="63" y="-780.3" font-family="Helvetica,sans-Serif" font-size="14.00">LoadAndMerge</text>
</g>
<!-- run&#45;&gt;load -->
<g id="edge1" class="edge">
<title>run&#45;&gt;load</title>
<path fill="none" stroke="black" d="M63,-838.81C63,-831.23 63,-822.1 63,-813.54"/>
<polygon fill="black" stroke="black" points="66.5,-813.54 63,-803.54 59.5,-813.54 66.5,-813.54"/>
</g>
<!-- output -->
<g id="node2" class="node">
<title>output</title>
<ellipse fill="khaki" stroke="black" cx="211" cy="-18" rx="91.78" ry="18"/>
<text text-anchor="middle" x="211" y="-14.3" font-family="Helvetica,sans-Serif" font-size="14.00">OutputWorkspace</text>
</g>
<!-- waterReference -->
<g id="node3" class="node">
<title>waterReference</title>
<ellipse fill="khaki" stroke="black" cx="230" cy="-711" rx="86.38" ry="18"/>
<text text-anchor="middle" x="230" y="-707.3" font-family="Helvetica,sans-Serif" font-size="14.00">WaterWorkspace</text>
</g>
<!-- waterNorm -->
<g id="node8" class="node">
<title>waterNorm</title>
<path fill="lightskyblue" stroke="black" d="M230.5,-642C230.5,-642 129.5,-642 129.5,-642 123.5,-642 117.5,-636 117.5,-630 117.5,-630 117.5,-616 117.5,-616 117.5,-610 123.5,-604 129.5,-604 129.5,-604 230.5,-604 230.5,-604 236.5,-604 242.5,-610 242.5,-616 242.5,-616 242.5,-630 242.5,-630 242.5,-636 236.5,-642 230.5,-642"/>
<text text-anchor="middle" x="180" y="-626.8" font-family="Helvetica,sans-Serif" font-size="14.00">Divide by</text>
<text text-anchor="middle" x="180" y="-611.8" font-family="Helvetica,sans-Serif" font-size="14.00">water reference</text>
</g>
<!-- waterReference&#45;&gt;waterNorm -->
<g id="edge4" class="edge">
<title>waterReference&#45;&gt;waterNorm</title>
<path fill="none" stroke="black" d="M220.12,-693.01C213.36,-681.38 204.24,-665.7 196.41,-652.22"/>
<polygon fill="black" stroke="black" points="199.54,-650.64 191.48,-643.75 193.48,-654.16 199.54,-650.64"/>
<text text-anchor="middle" x="229" y="-663.8" font-family="Helvetica,sans-Serif" font-size="14.00">Rebin</text>
</g>
<!-- toWavelength -->
<g id="node4" class="node">
<title>toWavelength</title>
<path fill="lightskyblue" stroke="black" d="M269,-257C269,-257 153,-257 153,-257 147,-257 141,-251 141,-245 141,-245 141,-231 141,-231 141,-225 147,-219 153,-219 153,-219 269,-219 269,-219 275,-219 281,-225 281,-231 281,-231 281,-245 281,-245 281,-251 275,-257 269,-257"/>
<text text-anchor="middle" x="211" y="-241.8" font-family="Helvetica,sans-Serif" font-size="14.00">Convert from TOF</text>
<text text-anchor="middle" x="211" y="-226.8" font-family="Helvetica,sans-Serif" font-size="14.00"> to wavelength</text>
</g>
<!-- correctGravity -->
<g id="node13" class="node">
<title>correctGravity</title>
<polygon fill="limegreen" stroke="black" points="211,-182 72.41,-164 211,-146 349.59,-164 211,-182"/>
<text text-anchor="middle" x="211" y="-160.3" font-family="Helvetica,sans-Serif" font-size="14.00">Correct for gravity?</text>
</g>
<!-- toWavelength&#45;&gt;correctGravity -->
<g id="edge11" class="edge">
<title>toWavelength&#45;&gt;correctGravity</title>
<path fill="none" stroke="black" d="M211,-218.83C211,-211.24 211,-202.24 211,-193.79"/>
<polygon fill="black" stroke="black" points="214.5,-193.93 211,-183.93 207.5,-193.93 214.5,-193.93"/>
</g>
<!-- extractMonitors -->
<g id="node5" class="node">
<title>extractMonitors</title>
<path fill="lightskyblue" stroke="black" d="M114,-729C114,-729 12,-729 12,-729 6,-729 0,-723 0,-717 0,-717 0,-705 0,-705 0,-699 6,-693 12,-693 12,-693 114,-693 114,-693 120,-693 126,-699 126,-705 126,-705 126,-717 126,-717 126,-723 120,-729 114,-729"/>
<text text-anchor="middle" x="63" y="-707.3" font-family="Helvetica,sans-Serif" font-size="14.00">ExtractMonitors</text>
</g>
<!-- extractMonitors&#45;&gt;waterNorm -->
<g id="edge3" class="edge">
<title>extractMonitors&#45;&gt;waterNorm</title>
<path fill="none" stroke="black" d="M86.68,-692.6C103.7,-680.08 126.91,-663.03 145.92,-649.05"/>
<polygon fill="black" stroke="black" points="147.94,-651.91 153.93,-643.16 143.8,-646.27 147.94,-651.91"/>
</g>
<!-- fluxNorm -->
<g id="node6" class="node">
<title>fluxNorm</title>
<path fill="lightskyblue" stroke="black" d="M273.5,-405C273.5,-405 148.5,-405 148.5,-405 142.5,-405 136.5,-399 136.5,-393 136.5,-393 136.5,-379 136.5,-379 136.5,-373 142.5,-367 148.5,-367 148.5,-367 273.5,-367 273.5,-367 279.5,-367 285.5,-373 285.5,-379 285.5,-379 285.5,-393 285.5,-393 285.5,-399 279.5,-405 273.5,-405"/>
<text text-anchor="middle" x="211" y="-389.8" font-family="Helvetica,sans-Serif" font-size="14.00">Divide by duration/</text>
<text text-anchor="middle" x="211" y="-374.8" font-family="Helvetica,sans-Serif" font-size="14.00">monitor counts</text>
</g>
<!-- subtractBkg -->
<g id="node10" class="node">
<title>subtractBkg</title>
<path fill="lightskyblue" stroke="black" d="M280.5,-330C280.5,-330 141.5,-330 141.5,-330 135.5,-330 129.5,-324 129.5,-318 129.5,-318 129.5,-306 129.5,-306 129.5,-300 135.5,-294 141.5,-294 141.5,-294 280.5,-294 280.5,-294 286.5,-294 292.5,-300 292.5,-306 292.5,-306 292.5,-318 292.5,-318 292.5,-324 286.5,-330 280.5,-330"/>
<text text-anchor="middle" x="211" y="-308.3" font-family="Helvetica,sans-Serif" font-size="14.00">Subtract background</text>
</g>
<!-- fluxNorm&#45;&gt;subtractBkg -->
<g id="edge9" class="edge">
<title>fluxNorm&#45;&gt;subtractBkg</title>
<path fill="none" stroke="black" d="M211,-366.83C211,-359.24 211,-350.24 211,-341.79"/>
<polygon fill="black" stroke="black" points="214.5,-341.93 211,-331.93 207.5,-341.93 214.5,-341.93"/>
</g>
<!-- load&#45;&gt;extractMonitors -->
<g id="edge2" class="edge">
<title>load&#45;&gt;extractMonitors</title>
<path fill="none" stroke="black" d="M63,-765.81C63,-758.23 63,-749.1 63,-740.54"/>
<polygon fill="black" stroke="black" points="66.5,-740.54 63,-730.54 59.5,-740.54 66.5,-740.54"/>
</g>
<!-- isSlitNorm -->
<g id="node12" class="node">
<title>isSlitNorm</title>
<polygon fill="limegreen" stroke="black" points="180,-567 50.3,-549 180,-531 309.7,-549 180,-567"/>
<text text-anchor="middle" x="180" y="-545.3" font-family="Helvetica,sans-Serif" font-size="14.00">SlitNormalisation?</text>
</g>
<!-- waterNorm&#45;&gt;isSlitNorm -->
<g id="edge5" class="edge">
<title>waterNorm&#45;&gt;isSlitNorm</title>
<path fill="none" stroke="black" d="M180,-603.83C180,-596.24 180,-587.24 180,-578.79"/>
<polygon fill="black" stroke="black" points="183.5,-578.93 180,-568.93 176.5,-578.93 183.5,-578.93"/>
</g>
<!-- slitNorm -->
<g id="node9" class="node">
<title>slitNorm</title>
<path fill="lightskyblue" stroke="black" d="M184,-480C184,-480 76,-480 76,-480 70,-480 64,-474 64,-468 64,-468 64,-454 64,-454 64,-448 70,-442 76,-442 76,-442 184,-442 184,-442 190,-442 196,-448 196,-454 196,-454 196,-468 196,-468 196,-474 190,-480 184,-480"/>
<text text-anchor="middle" x="130" y="-464.8" font-family="Helvetica,sans-Serif" font-size="14.00">Divide by</text>
<text text-anchor="middle" x="130" y="-449.8" font-family="Helvetica,sans-Serif" font-size="14.00">slit opening area</text>
</g>
<!-- slitNorm&#45;&gt;fluxNorm -->
<g id="edge8" class="edge">
<title>slitNorm&#45;&gt;fluxNorm</title>
<path fill="none" stroke="black" d="M150.44,-441.58C160.03,-432.93 171.63,-422.48 182.11,-413.04"/>
<polygon fill="black" stroke="black" points="184.36,-415.72 189.44,-406.43 179.67,-410.52 184.36,-415.72"/>
</g>
<!-- subtractBkg&#45;&gt;toWavelength -->
<g id="edge10" class="edge">
<title>subtractBkg&#45;&gt;toWavelength</title>
<path fill="none" stroke="black" d="M211,-293.57C211,-286.1 211,-277.17 211,-268.71"/>
<polygon fill="black" stroke="black" points="214.5,-268.79 211,-258.79 207.5,-268.79 214.5,-268.79"/>
</g>
<!-- gravityCorrection -->
<g id="node11" class="node">
<title>gravityCorrection</title>
<path fill="lightskyblue" stroke="black" d="M403,-109C403,-109 239,-109 239,-109 233,-109 227,-103 227,-97 227,-97 227,-85 227,-85 227,-79 233,-73 239,-73 239,-73 403,-73 403,-73 409,-73 415,-79 415,-85 415,-85 415,-97 415,-97 415,-103 409,-109 403,-109"/>
<text text-anchor="middle" x="321" y="-87.3" font-family="Helvetica,sans-Serif" font-size="14.00">Gravity correction step 1</text>
</g>
<!-- gravityCorrection&#45;&gt;output -->
<g id="edge14" class="edge">
<title>gravityCorrection&#45;&gt;output</title>
<path fill="none" stroke="black" d="M294.09,-72.63C279.66,-63.32 261.7,-51.72 246.17,-41.7"/>
<polygon fill="black" stroke="black" points="248.45,-39 238.15,-36.52 244.65,-44.88 248.45,-39"/>
</g>
<!-- isSlitNorm&#45;&gt;fluxNorm -->
<g id="edge7" class="edge">
<title>isSlitNorm&#45;&gt;fluxNorm</title>
<path fill="none" stroke="black" d="M220.13,-536.15C231.07,-530.88 241.64,-523.43 248,-513 266.74,-482.28 248.31,-441.54 231.41,-414.82"/>
<polygon fill="black" stroke="black" points="234.38,-412.97 225.93,-406.58 228.56,-416.84 234.38,-412.97"/>
<text text-anchor="middle" x="332" y="-457.3" font-family="Helvetica,sans-Serif" font-size="14.00">Slit Normalisation OFF</text>
</g>
<!-- isSlitNorm&#45;&gt;slitNorm -->
<g id="edge6" class="edge">
<title>isSlitNorm&#45;&gt;slitNorm</title>
<path fill="none" stroke="black" d="M132.13,-537.34C119.57,-532.13 107.47,-524.42 100,-513 95.04,-505.42 97.06,-497.01 101.83,-489.25"/>
<polygon fill="black" stroke="black" points="104.54,-491.47 107.82,-481.4 98.97,-487.23 104.54,-491.47"/>
<text text-anchor="middle" x="174" y="-501.8" font-family="Helvetica,sans-Serif" font-size="14.00">Slit Normalisation ON</text>
</g>
<!-- correctGravity&#45;&gt;output -->
<g id="edge12" class="edge">
<title>correctGravity&#45;&gt;output</title>
<path fill="none" stroke="black" d="M211,-145.63C211,-121.3 211,-76.8 211,-47.56"/>
<polygon fill="black" stroke="black" points="214.5,-47.94 211,-37.94 207.5,-47.94 214.5,-47.94"/>
</g>
<!-- correctGravity&#45;&gt;gravityCorrection -->
<g id="edge13" class="edge">
<title>correctGravity&#45;&gt;gravityCorrection</title>
<path fill="none" stroke="black" d="M233.53,-148.46C248.24,-138.96 267.78,-126.35 284.66,-115.46"/>
<polygon fill="black" stroke="black" points="286.46,-118.46 292.96,-110.1 282.66,-112.58 286.46,-118.46"/>
</g>
</g>
</svg>
