<?xml version="1.0" encoding="UTF-8" standalone="no"?>
<!DOCTYPE svg PUBLIC "-//W3C//DTD SVG 1.1//EN"
 "http://www.w3.org/Graphics/SVG/1.1/DTD/svg11.dtd">
<!-- Generated by graphviz version 11.0.0 (20240519.1550)
 -->
<!-- Title: ReflectometryILLPreprocess Pages: 1 -->
<svg width="705pt" height="592pt"
 viewBox="0.00 0.00 705.06 591.50" xmlns="http://www.w3.org/2000/svg" xmlns:xlink="http://www.w3.org/1999/xlink">
<g id="graph0" class="graph" transform="scale(1 1) rotate(0) translate(4 587.5)">
<title>ReflectometryILLPreprocess</title>
<polygon fill="white" stroke="none" points="-4,4 -4,-587.5 701.06,-587.5 701.06,4 -4,4"/>
<text text-anchor="middle" x="348.53" y="-566.2" font-family="Helvetica,sans-Serif" font-size="14.00">High level diagram demonstrating the processing steps for each angle configuration.</text>
<!-- directRun -->
<g id="node1" class="node">
<title>directRun</title>
<ellipse fill="khaki" stroke="black" cx="368.81" cy="-540.25" rx="58.57" ry="18"/>
<text text-anchor="middle" x="368.81" y="-535.58" font-family="Helvetica,sans-Serif" font-size="14.00">DirectRun</text>
</g>
<!-- preProcessDirect -->
<g id="node7" class="node">
<title>preProcessDirect</title>
<path fill="lightskyblue" stroke="black" d="M460.06,-486.25C460.06,-486.25 277.56,-486.25 277.56,-486.25 271.56,-486.25 265.56,-480.25 265.56,-474.25 265.56,-474.25 265.56,-462.25 265.56,-462.25 265.56,-456.25 271.56,-450.25 277.56,-450.25 277.56,-450.25 460.06,-450.25 460.06,-450.25 466.06,-450.25 472.06,-456.25 472.06,-462.25 472.06,-462.25 472.06,-474.25 472.06,-474.25 472.06,-480.25 466.06,-486.25 460.06,-486.25"/>
<text text-anchor="middle" x="368.81" y="-463.57" font-family="Helvetica,sans-Serif" font-size="14.00">ReflectometryILLPreProcess</text>
</g>
<!-- directRun&#45;&gt;preProcessDirect -->
<g id="edge1" class="edge">
<title>directRun&#45;&gt;preProcessDirect</title>
<path fill="none" stroke="black" d="M368.81,-521.95C368.81,-514.66 368.81,-505.98 368.81,-497.79"/>
<polygon fill="black" stroke="black" points="372.31,-497.87 368.81,-487.87 365.31,-497.87 372.31,-497.87"/>
</g>
<!-- reflectedRun -->
<g id="node2" class="node">
<title>reflectedRun</title>
<ellipse fill="khaki" stroke="black" cx="593.81" cy="-540.25" rx="75.41" ry="18"/>
<text text-anchor="middle" x="593.81" y="-535.58" font-family="Helvetica,sans-Serif" font-size="14.00">ReflectedRun</text>
</g>
<!-- preProcessReflected -->
<g id="node8" class="node">
<title>preProcessReflected</title>
<path fill="lightskyblue" stroke="black" d="M685.06,-486.25C685.06,-486.25 502.56,-486.25 502.56,-486.25 496.56,-486.25 490.56,-480.25 490.56,-474.25 490.56,-474.25 490.56,-462.25 490.56,-462.25 490.56,-456.25 496.56,-450.25 502.56,-450.25 502.56,-450.25 685.06,-450.25 685.06,-450.25 691.06,-450.25 697.06,-456.25 697.06,-462.25 697.06,-462.25 697.06,-474.25 697.06,-474.25 697.06,-480.25 691.06,-486.25 685.06,-486.25"/>
<text text-anchor="middle" x="593.81" y="-463.57" font-family="Helvetica,sans-Serif" font-size="14.00">ReflectometryILLPreProcess</text>
</g>
<!-- reflectedRun&#45;&gt;preProcessReflected -->
<g id="edge2" class="edge">
<title>reflectedRun&#45;&gt;preProcessReflected</title>
<path fill="none" stroke="black" d="M593.81,-521.95C593.81,-514.66 593.81,-505.98 593.81,-497.79"/>
<polygon fill="black" stroke="black" points="597.31,-497.87 593.81,-487.87 590.31,-497.87 597.31,-497.87"/>
</g>
<!-- method -->
<g id="node3" class="node">
<title>method</title>
<ellipse fill="khaki" stroke="black" cx="123.81" cy="-468.25" rx="123.81" ry="18"/>
<text text-anchor="middle" x="123.81" y="-463.57" font-family="Helvetica,sans-Serif" font-size="14.00">Coherent or Incoherent</text>
</g>
<!-- sumForeground -->
<g id="node9" class="node">
<title>sumForeground</title>
<path fill="lightskyblue" stroke="black" d="M478.06,-414.25C478.06,-414.25 259.56,-414.25 259.56,-414.25 253.56,-414.25 247.56,-408.25 247.56,-402.25 247.56,-402.25 247.56,-390.25 247.56,-390.25 247.56,-384.25 253.56,-378.25 259.56,-378.25 259.56,-378.25 478.06,-378.25 478.06,-378.25 484.06,-378.25 490.06,-384.25 490.06,-390.25 490.06,-390.25 490.06,-402.25 490.06,-402.25 490.06,-408.25 484.06,-414.25 478.06,-414.25"/>
<text text-anchor="middle" x="368.81" y="-391.57" font-family="Helvetica,sans-Serif" font-size="14.00">ReflectometryILLSumForeground</text>
</g>
<!-- method&#45;&gt;sumForeground -->
<g id="edge5" class="edge">
<title>method&#45;&gt;sumForeground</title>
<path fill="none" stroke="black" d="M178.18,-451.71C213.08,-441.74 258.8,-428.68 296.72,-417.85"/>
<polygon fill="black" stroke="black" points="297.59,-421.24 306.24,-415.13 295.67,-414.51 297.59,-421.24"/>
</g>
<!-- output -->
<g id="node4" class="node">
<title>output</title>
<ellipse fill="khaki" stroke="black" cx="291.81" cy="-18" rx="98.56" ry="18"/>
<text text-anchor="middle" x="291.81" y="-13.32" font-family="Helvetica,sans-Serif" font-size="14.00">OutputWorkspace</text>
</g>
<!-- reflectivity -->
<g id="node5" class="node">
<title>reflectivity</title>
<ellipse fill="khaki" stroke="black" cx="368.81" cy="-324.25" rx="64.89" ry="18"/>
<text text-anchor="middle" x="368.81" y="-319.57" font-family="Helvetica,sans-Serif" font-size="14.00">Reflectivity</text>
</g>
<!-- polarized -->
<g id="node12" class="node">
<title>polarized</title>
<polygon fill="limegreen" stroke="black" points="368.81,-270.25 283,-252.25 368.81,-234.25 454.62,-252.25 368.81,-270.25"/>
<text text-anchor="middle" x="368.81" y="-247.57" font-family="Helvetica,sans-Serif" font-size="14.00">Polarized?</text>
</g>
<!-- reflectivity&#45;&gt;polarized -->
<g id="edge7" class="edge">
<title>reflectivity&#45;&gt;polarized</title>
<path fill="none" stroke="black" d="M368.81,-305.95C368.81,-298.66 368.81,-289.98 368.81,-281.79"/>
<polygon fill="black" stroke="black" points="372.31,-281.87 368.81,-271.87 365.31,-281.87 372.31,-281.87"/>
</g>
<!-- polEfficiency -->
<g id="node6" class="node">
<title>polEfficiency</title>
<ellipse fill="khaki" stroke="black" cx="150.81" cy="-252.25" rx="114.34" ry="18"/>
<text text-anchor="middle" x="150.81" y="-247.57" font-family="Helvetica,sans-Serif" font-size="14.00">PolarizationEfficiency</text>
</g>
<!-- polarization -->
<g id="node11" class="node">
<title>polarization</title>
<path fill="lightskyblue" stroke="black" d="M321.06,-181C321.06,-181 108.56,-181 108.56,-181 102.56,-181 96.56,-175 96.56,-169 96.56,-169 96.56,-157 96.56,-157 96.56,-151 102.56,-145 108.56,-145 108.56,-145 321.06,-145 321.06,-145 327.06,-145 333.06,-151 333.06,-157 333.06,-157 333.06,-169 333.06,-169 333.06,-175 327.06,-181 321.06,-181"/>
<text text-anchor="middle" x="214.81" y="-158.32" font-family="Helvetica,sans-Serif" font-size="14.00">ReflectometryILLPolarizationCor</text>
</g>
<!-- polEfficiency&#45;&gt;polarization -->
<g id="edge11" class="edge">
<title>polEfficiency&#45;&gt;polarization</title>
<path fill="none" stroke="black" d="M163.46,-234.01C172.57,-221.58 185.05,-204.58 195.42,-190.44"/>
<polygon fill="black" stroke="black" points="198.21,-192.56 201.3,-182.42 192.56,-188.42 198.21,-192.56"/>
</g>
<!-- preProcessDirect&#45;&gt;sumForeground -->
<g id="edge3" class="edge">
<title>preProcessDirect&#45;&gt;sumForeground</title>
<path fill="none" stroke="black" d="M368.81,-449.95C368.81,-442.66 368.81,-433.98 368.81,-425.79"/>
<polygon fill="black" stroke="black" points="372.31,-425.87 368.81,-415.87 365.31,-425.87 372.31,-425.87"/>
</g>
<!-- preProcessReflected&#45;&gt;sumForeground -->
<g id="edge4" class="edge">
<title>preProcessReflected&#45;&gt;sumForeground</title>
<path fill="none" stroke="black" d="M537.61,-449.77C506.62,-440.13 467.95,-428.09 435.45,-417.98"/>
<polygon fill="black" stroke="black" points="436.71,-414.71 426.13,-415.08 434.64,-421.39 436.71,-414.71"/>
</g>
<!-- sumForeground&#45;&gt;reflectivity -->
<g id="edge6" class="edge">
<title>sumForeground&#45;&gt;reflectivity</title>
<path fill="none" stroke="black" d="M368.81,-377.95C368.81,-370.66 368.81,-361.98 368.81,-353.79"/>
<polygon fill="black" stroke="black" points="372.31,-353.87 368.81,-343.87 365.31,-353.87 372.31,-353.87"/>
</g>
<!-- convertToQ -->
<g id="node10" class="node">
<title>convertToQ</title>
<path fill="lightskyblue" stroke="black" d="M386.06,-108C386.06,-108 197.56,-108 197.56,-108 191.56,-108 185.56,-102 185.56,-96 185.56,-96 185.56,-84 185.56,-84 185.56,-78 191.56,-72 197.56,-72 197.56,-72 386.06,-72 386.06,-72 392.06,-72 398.06,-78 398.06,-84 398.06,-84 398.06,-96 398.06,-96 398.06,-102 392.06,-108 386.06,-108"/>
<text text-anchor="middle" x="291.81" y="-85.33" font-family="Helvetica,sans-Serif" font-size="14.00">ReflectometryILLConvertToQ</text>
</g>
<!-- convertToQ&#45;&gt;output -->
<g id="edge12" class="edge">
<title>convertToQ&#45;&gt;output</title>
<path fill="none" stroke="black" d="M291.81,-71.7C291.81,-64.41 291.81,-55.73 291.81,-47.54"/>
<polygon fill="black" stroke="black" points="295.31,-47.62 291.81,-37.62 288.31,-47.62 295.31,-47.62"/>
</g>
<!-- polarization&#45;&gt;convertToQ -->
<g id="edge10" class="edge">
<title>polarization&#45;&gt;convertToQ</title>
<path fill="none" stroke="black" d="M233.45,-144.81C242.84,-136.16 254.4,-125.5 264.74,-115.96"/>
<polygon fill="black" stroke="black" points="266.98,-118.65 271.96,-109.3 262.24,-113.51 266.98,-118.65"/>
</g>
<!-- polarized&#45;&gt;convertToQ -->
<g id="edge9" class="edge">
<title>polarized&#45;&gt;convertToQ</title>
<path fill="none" stroke="black" d="M367.1,-234.11C364.34,-212.28 357.54,-173.93 341.81,-145 336.18,-134.64 328.12,-124.74 320.1,-116.31"/>
<polygon fill="black" stroke="black" points="322.81,-114.07 313.27,-109.47 317.86,-119.02 322.81,-114.07"/>
<text text-anchor="middle" x="365.19" y="-158.32" font-family="Helvetica,sans-Serif" font-size="14.00">No</text>
</g>
<!-- polarized&#45;&gt;polarization -->
<g id="edge8" class="edge">
<title>polarized&#45;&gt;polarization</title>
<path fill="none" stroke="black" d="M346.42,-238.56C322.61,-225.08 284.46,-203.46 255.35,-186.97"/>
<polygon fill="black" stroke="black" points="257.21,-184 246.79,-182.12 253.76,-190.09 257.21,-184"/>
<text text-anchor="middle" x="317.06" y="-202.95" font-family="Helvetica,sans-Serif" font-size="14.00">Yes</text>
</g>
</g>
</svg>
