<?xml version="1.0" encoding="UTF-8" standalone="no"?>
<!DOCTYPE svg PUBLIC "-//W3C//DTD SVG 1.1//EN"
 "http://www.w3.org/Graphics/SVG/1.1/DTD/svg11.dtd">
<!-- Generated by graphviz version 13.1.0 (20250701.1702)
 -->
<!-- Title: ReflectometryReductionOne Pages: 1 -->
<svg width="361pt" height="632pt"
 viewBox="0.00 0.00 361.00 632.00" xmlns="http://www.w3.org/2000/svg" xmlns:xlink="http://www.w3.org/1999/xlink">
<g id="graph0" class="graph" transform="scale(1 1) rotate(0) translate(4 628)">
<title>ReflectometryReductionOne</title>
<polygon fill="white" stroke="none" points="-4,4 -4,-628 357.28,-628 357.28,4 -4,4"/>
<!-- inputWS -->
<g id="node1" class="node">
<title>inputWS</title>
<ellipse fill="khaki" stroke="black" cx="159.9" cy="-582" rx="90.14" ry="18"/>
<text xml:space="preserve" text-anchor="middle" x="159.9" y="-577.33" font-family="Helvetica,sans-Serif" font-size="14.00">InputWorkspace</text>
</g>
<!-- checkSumDone -->
<g id="node4" class="node">
<title>checkSumDone</title>
<polygon fill="limegreen" stroke="black" points="159.9,-527 6.39,-509 159.9,-491 313.42,-509 159.9,-527"/>
<text xml:space="preserve" text-anchor="middle" x="159.9" y="-504.32" font-family="Helvetica,sans-Serif" font-size="14.00">Reduction required?</text>
</g>
<!-- inputWS&#45;&gt;checkSumDone -->
<g id="edge1" class="edge">
<title>inputWS&#45;&gt;checkSumDone</title>
<path fill="none" stroke="black" d="M159.9,-563.81C159.9,-556.23 159.9,-547.1 159.9,-538.54"/>
<polygon fill="black" stroke="black" points="163.4,-538.54 159.9,-528.54 156.4,-538.54 163.4,-538.54"/>
</g>
<!-- outputWSWL -->
<g id="node2" class="node">
<title>outputWSWL</title>
<ellipse fill="khaki" stroke="black" cx="155.9" cy="-170.5" rx="155.9" ry="18"/>
<text xml:space="preserve" text-anchor="middle" x="155.9" y="-165.82" font-family="Helvetica,sans-Serif" font-size="14.00">OutputWorkspaceWavelength</text>
</g>
<!-- convertMom -->
<g id="node8" class="node">
<title>convertMom</title>
<polygon fill="lightseagreen" stroke="black" points="242.65,-115.5 69.15,-115.5 69.15,-73 242.65,-73 242.65,-115.5"/>
<text xml:space="preserve" text-anchor="middle" x="155.9" y="-98.2" font-family="Helvetica,sans-Serif" font-size="14.00">Convert to momentum</text>
<text xml:space="preserve" text-anchor="middle" x="155.9" y="-80.95" font-family="Helvetica,sans-Serif" font-size="14.00">transfer</text>
</g>
<!-- outputWSWL&#45;&gt;convertMom -->
<g id="edge7" class="edge">
<title>outputWSWL&#45;&gt;convertMom</title>
<path fill="none" stroke="black" d="M155.9,-152.28C155.9,-144.8 155.9,-135.79 155.9,-127.16"/>
<polygon fill="black" stroke="black" points="159.4,-127.32 155.9,-117.32 152.4,-127.32 159.4,-127.32"/>
</g>
<!-- outputWSFinal -->
<g id="node3" class="node">
<title>outputWSFinal</title>
<ellipse fill="khaki" stroke="black" cx="155.9" cy="-18" rx="98.56" ry="18"/>
<text xml:space="preserve" text-anchor="middle" x="155.9" y="-13.32" font-family="Helvetica,sans-Serif" font-size="14.00">OutputWorkspace</text>
</g>
<!-- convertUnits -->
<g id="node5" class="node">
<title>convertUnits</title>
<polygon fill="lightseagreen" stroke="black" points="353.28,-437.75 180.53,-437.75 180.53,-378 353.28,-378 353.28,-437.75"/>
<text xml:space="preserve" text-anchor="middle" x="266.9" y="-420.45" font-family="Helvetica,sans-Serif" font-size="14.00">Convert to λ</text>
<text xml:space="preserve" text-anchor="middle" x="266.9" y="-403.2" font-family="Helvetica,sans-Serif" font-size="14.00">Sum in λ</text>
<text xml:space="preserve" text-anchor="middle" x="266.9" y="-385.95" font-family="Helvetica,sans-Serif" font-size="14.00">Normalize by monitors</text>
</g>
<!-- checkSumDone&#45;&gt;convertUnits -->
<g id="edge3" class="edge">
<title>checkSumDone&#45;&gt;convertUnits</title>
<path fill="none" stroke="black" d="M176.62,-492.51C190.06,-480.06 209.49,-462.06 226.89,-445.94"/>
<polygon fill="black" stroke="black" points="229.17,-448.61 234.12,-439.24 224.41,-443.47 229.17,-448.61"/>
<text xml:space="preserve" text-anchor="middle" x="224.65" y="-459.7" font-family="Helvetica,sans-Serif" font-size="14.00">Yes</text>
</g>
<!-- applyCorrTrans -->
<g id="node6" class="node">
<title>applyCorrTrans</title>
<polygon fill="lightseagreen" stroke="black" points="230.65,-341 81.15,-341 81.15,-298.5 230.65,-298.5 230.65,-341"/>
<text xml:space="preserve" text-anchor="middle" x="155.9" y="-323.7" font-family="Helvetica,sans-Serif" font-size="14.00">Apply transmission</text>
<text xml:space="preserve" text-anchor="middle" x="155.9" y="-306.45" font-family="Helvetica,sans-Serif" font-size="14.00"> corrections</text>
</g>
<!-- checkSumDone&#45;&gt;applyCorrTrans -->
<g id="edge2" class="edge">
<title>checkSumDone&#45;&gt;applyCorrTrans</title>
<path fill="none" stroke="black" d="M157.81,-491C156.17,-476.79 154.03,-455.99 153.15,-437.75 151.88,-411.22 152.52,-404.55 153.15,-378 153.35,-369.85 153.7,-361.04 154.09,-352.85"/>
<polygon fill="black" stroke="black" points="157.58,-353.09 154.59,-342.92 150.59,-352.73 157.58,-353.09"/>
<text xml:space="preserve" text-anchor="middle" x="162.53" y="-403.2" font-family="Helvetica,sans-Serif" font-size="14.00">No</text>
</g>
<!-- convertUnits&#45;&gt;applyCorrTrans -->
<g id="edge4" class="edge">
<title>convertUnits&#45;&gt;applyCorrTrans</title>
<path fill="none" stroke="black" d="M229.32,-377.72C217.1,-368.23 203.57,-357.73 191.49,-348.36"/>
<polygon fill="black" stroke="black" points="193.82,-345.74 183.78,-342.38 189.53,-351.27 193.82,-345.74"/>
</g>
<!-- sumInQ -->
<g id="node7" class="node">
<title>sumInQ</title>
<polygon fill="lightseagreen" stroke="black" points="196.15,-261.5 115.65,-261.5 115.65,-225.5 196.15,-225.5 196.15,-261.5"/>
<text xml:space="preserve" text-anchor="middle" x="155.9" y="-238.82" font-family="Helvetica,sans-Serif" font-size="14.00">Sum in Q</text>
</g>
<!-- applyCorrTrans&#45;&gt;sumInQ -->
<g id="edge5" class="edge">
<title>applyCorrTrans&#45;&gt;sumInQ</title>
<path fill="none" stroke="black" d="M155.9,-298.07C155.9,-290.25 155.9,-281.22 155.9,-272.82"/>
<polygon fill="black" stroke="black" points="159.4,-273.08 155.9,-263.08 152.4,-273.08 159.4,-273.08"/>
</g>
<!-- sumInQ&#45;&gt;outputWSWL -->
<g id="edge6" class="edge">
<title>sumInQ&#45;&gt;outputWSWL</title>
<path fill="none" stroke="black" d="M155.9,-225.31C155.9,-217.73 155.9,-208.6 155.9,-200.04"/>
<polygon fill="black" stroke="black" points="159.4,-200.04 155.9,-190.04 152.4,-200.04 159.4,-200.04"/>
</g>
<!-- convertMom&#45;&gt;outputWSFinal -->
<g id="edge8" class="edge">
<title>convertMom&#45;&gt;outputWSFinal</title>
<path fill="none" stroke="black" d="M155.9,-72.57C155.9,-64.75 155.9,-55.72 155.9,-47.32"/>
<polygon fill="black" stroke="black" points="159.4,-47.58 155.9,-37.58 152.4,-47.58 159.4,-47.58"/>
</g>
</g>
</svg>
