<?xml version="1.0" encoding="UTF-8" standalone="no"?>
<!DOCTYPE svg PUBLIC "-//W3C//DTD SVG 1.1//EN"
 "http://www.w3.org/Graphics/SVG/1.1/DTD/svg11.dtd">
<!-- Generated by graphviz version 11.0.0 (20240519.1550)
 -->
<!-- Title: ReflectometryILLPolarizationCor Pages: 1 -->
<svg width="416pt" height="567pt"
 viewBox="0.00 0.00 415.94 567.35" xmlns="http://www.w3.org/2000/svg" xmlns:xlink="http://www.w3.org/1999/xlink">
<g id="graph0" class="graph" transform="scale(1 1) rotate(0) translate(4 563.35)">
<title>ReflectometryILLPolarizationCor</title>
<polygon fill="white" stroke="none" points="-4,4 -4,-563.35 411.94,-563.35 411.94,4 -4,4"/>
<text text-anchor="middle" x="203.97" y="-542.05" font-family="Helvetica,sans-Serif" font-size="14.00">ReflectometryILLPolarizationCor workflow diagram</text>
<!-- input -->
<g id="node1" class="node">
<title>input</title>
<ellipse fill="khaki" stroke="black" cx="138.82" cy="-516.1" rx="95.4" ry="18"/>
<text text-anchor="middle" x="138.82" y="-511.43" font-family="Helvetica,sans-Serif" font-size="14.00">InputWorkspaces</text>
</g>
<!-- pick_reference -->
<g id="node7" class="node">
<title>pick_reference</title>
<path fill="lightskyblue" stroke="black" d="M222.94,-462.1C222.94,-462.1 54.69,-462.1 54.69,-462.1 48.69,-462.1 42.69,-456.1 42.69,-450.1 42.69,-450.1 42.69,-438.1 42.69,-438.1 42.69,-432.1 48.69,-426.1 54.69,-426.1 54.69,-426.1 222.94,-426.1 222.94,-426.1 228.94,-426.1 234.94,-432.1 234.94,-438.1 234.94,-438.1 234.94,-450.1 234.94,-450.1 234.94,-456.1 228.94,-462.1 222.94,-462.1"/>
<text text-anchor="middle" x="138.82" y="-439.43" font-family="Helvetica,sans-Serif" font-size="14.00">Pick reference workspace</text>
</g>
<!-- input&#45;&gt;pick_reference -->
<g id="edge1" class="edge">
<title>input&#45;&gt;pick_reference</title>
<path fill="none" stroke="black" d="M138.82,-497.8C138.82,-490.51 138.82,-481.83 138.82,-473.64"/>
<polygon fill="black" stroke="black" points="142.32,-473.72 138.82,-463.72 135.32,-473.72 142.32,-473.72"/>
</g>
<!-- output -->
<g id="node2" class="node">
<title>output</title>
<ellipse fill="khaki" stroke="black" cx="181.82" cy="-18" rx="98.56" ry="18"/>
<text text-anchor="middle" x="181.82" y="-13.32" font-family="Helvetica,sans-Serif" font-size="14.00">OutputWorkspace</text>
</g>
<!-- reference -->
<g id="node3" class="node">
<title>reference</title>
<ellipse fill="khaki" stroke="black" cx="63.82" cy="-360.05" rx="63.82" ry="30.05"/>
<text text-anchor="middle" x="63.82" y="-364" font-family="Helvetica,sans-Serif" font-size="14.00">Reference</text>
<text text-anchor="middle" x="63.82" y="-346.75" font-family="Helvetica,sans-Serif" font-size="14.00">workspace</text>
</g>
<!-- correction -->
<g id="node6" class="node">
<title>correction</title>
<path fill="lightskyblue" stroke="black" d="M263.32,-108C263.32,-108 100.32,-108 100.32,-108 94.32,-108 88.32,-102 88.32,-96 88.32,-96 88.32,-84 88.32,-84 88.32,-78 94.32,-72 100.32,-72 100.32,-72 263.32,-72 263.32,-72 269.32,-72 275.32,-78 275.32,-84 275.32,-84 275.32,-96 275.32,-96 275.32,-102 269.32,-108 263.32,-108"/>
<text text-anchor="middle" x="181.82" y="-85.33" font-family="Helvetica,sans-Serif" font-size="14.00">PolarizationEfficiencyCor</text>
</g>
<!-- reference&#45;&gt;correction -->
<g id="edge5" class="edge">
<title>reference&#45;&gt;correction</title>
<path fill="none" stroke="black" d="M111.94,-339.93C137.39,-329.35 164.16,-317.3 167.82,-312 208.14,-253.64 197.61,-164.6 188.58,-119.42"/>
<polygon fill="black" stroke="black" points="192.06,-118.95 186.55,-109.9 185.21,-120.41 192.06,-118.95"/>
<text text-anchor="middle" x="241.82" y="-209.45" font-family="Helvetica,sans-Serif" font-size="14.00">No analyzer?</text>
</g>
<!-- match_binning -->
<g id="node8" class="node">
<title>match_binning</title>
<path fill="lightskyblue" stroke="black" d="M141.32,-276.75C141.32,-276.75 20.32,-276.75 20.32,-276.75 14.32,-276.75 8.32,-270.75 8.32,-264.75 8.32,-264.75 8.32,-252.75 8.32,-252.75 8.32,-246.75 14.32,-240.75 20.32,-240.75 20.32,-240.75 141.32,-240.75 141.32,-240.75 147.32,-240.75 153.32,-246.75 153.32,-252.75 153.32,-252.75 153.32,-264.75 153.32,-264.75 153.32,-270.75 147.32,-276.75 141.32,-276.75"/>
<text text-anchor="middle" x="80.82" y="-254.07" font-family="Helvetica,sans-Serif" font-size="14.00">RebinToWorkspace</text>
</g>
<!-- reference&#45;&gt;match_binning -->
<g id="edge4" class="edge">
<title>reference&#45;&gt;match_binning</title>
<path fill="none" stroke="black" d="M40.95,-331.59C34.2,-320.1 29.99,-306.67 35.82,-294.75 37.57,-291.17 39.88,-287.86 42.53,-284.81"/>
<polygon fill="black" stroke="black" points="44.85,-287.43 49.63,-277.97 40,-282.38 44.85,-287.43"/>
<text text-anchor="middle" x="101.82" y="-298.7" font-family="Helvetica,sans-Serif" font-size="14.00">WorkspaceToMatch</text>
</g>
<!-- workspaces -->
<g id="node4" class="node">
<title>workspaces</title>
<ellipse fill="khaki" stroke="black" cx="214.82" cy="-360.05" rx="69.12" ry="30.05"/>
<text text-anchor="middle" x="214.82" y="-364" font-family="Helvetica,sans-Serif" font-size="14.00">Rest of the</text>
<text text-anchor="middle" x="214.82" y="-346.75" font-family="Helvetica,sans-Serif" font-size="14.00">workspaces</text>
</g>
<!-- workspaces&#45;&gt;match_binning -->
<g id="edge6" class="edge">
<title>workspaces&#45;&gt;match_binning</title>
<path fill="none" stroke="black" d="M200.65,-330.14C193.44,-317.86 183.67,-304.22 171.82,-294.75 165.86,-289.99 159.19,-285.83 152.24,-282.19"/>
<polygon fill="black" stroke="black" points="153.79,-279.05 143.26,-277.89 150.76,-285.37 153.79,-279.05"/>
<text text-anchor="middle" x="252.32" y="-298.7" font-family="Helvetica,sans-Serif" font-size="14.00">WorkspaceToRebin</text>
</g>
<!-- efficiencies -->
<g id="node5" class="node">
<title>efficiencies</title>
<ellipse fill="khaki" stroke="black" cx="308.82" cy="-258.75" rx="73.83" ry="18"/>
<text text-anchor="middle" x="308.82" y="-254.07" font-family="Helvetica,sans-Serif" font-size="14.00">EfficiencyFile</text>
</g>
<!-- load_efficiencies -->
<g id="node10" class="node">
<title>load_efficiencies</title>
<path fill="lightskyblue" stroke="black" d="M395.94,-184.25C395.94,-184.25 221.69,-184.25 221.69,-184.25 215.69,-184.25 209.69,-178.25 209.69,-172.25 209.69,-172.25 209.69,-160.25 209.69,-160.25 209.69,-154.25 215.69,-148.25 221.69,-148.25 221.69,-148.25 395.94,-148.25 395.94,-148.25 401.94,-148.25 407.94,-154.25 407.94,-160.25 407.94,-160.25 407.94,-172.25 407.94,-172.25 407.94,-178.25 401.94,-184.25 395.94,-184.25"/>
<text text-anchor="middle" x="308.82" y="-161.57" font-family="Helvetica,sans-Serif" font-size="14.00">LoadILLPolarizationFactors</text>
</g>
<!-- efficiencies&#45;&gt;load_efficiencies -->
<g id="edge9" class="edge">
<title>efficiencies&#45;&gt;load_efficiencies</title>
<path fill="none" stroke="black" d="M308.82,-240.3C308.82,-227.78 308.82,-210.62 308.82,-196.08"/>
<polygon fill="black" stroke="black" points="312.32,-196.16 308.82,-186.16 305.32,-196.16 312.32,-196.16"/>
</g>
<!-- correction&#45;&gt;output -->
<g id="edge11" class="edge">
<title>correction&#45;&gt;output</title>
<path fill="none" stroke="black" d="M181.82,-71.7C181.82,-64.41 181.82,-55.73 181.82,-47.54"/>
<polygon fill="black" stroke="black" points="185.32,-47.62 181.82,-37.62 178.32,-47.62 185.32,-47.62"/>
</g>
<!-- pick_reference&#45;&gt;reference -->
<g id="edge2" class="edge">
<title>pick_reference&#45;&gt;reference</title>
<path fill="none" stroke="black" d="M122.91,-425.7C115.12,-417.18 105.44,-406.58 96.18,-396.46"/>
<polygon fill="black" stroke="black" points="98.91,-394.25 89.58,-389.24 93.74,-398.98 98.91,-394.25"/>
</g>
<!-- pick_reference&#45;&gt;workspaces -->
<g id="edge3" class="edge">
<title>pick_reference&#45;&gt;workspaces</title>
<path fill="none" stroke="black" d="M154.93,-425.7C162.76,-417.25 172.47,-406.77 181.78,-396.72"/>
<polygon fill="black" stroke="black" points="184.19,-399.26 188.42,-389.55 179.06,-394.51 184.19,-399.26"/>
</g>
<!-- determine_flippers -->
<g id="node9" class="node">
<title>determine_flippers</title>
<path fill="lightskyblue" stroke="black" d="M140.57,-187.5C140.57,-187.5 27.07,-187.5 27.07,-187.5 21.07,-187.5 15.07,-181.5 15.07,-175.5 15.07,-175.5 15.07,-157 15.07,-157 15.07,-151 21.07,-145 27.07,-145 27.07,-145 140.57,-145 140.57,-145 146.57,-145 152.57,-151 152.57,-157 152.57,-157 152.57,-175.5 152.57,-175.5 152.57,-181.5 146.57,-187.5 140.57,-187.5"/>
<text text-anchor="middle" x="83.82" y="-170.2" font-family="Helvetica,sans-Serif" font-size="14.00">Determine flipper</text>
<text text-anchor="middle" x="83.82" y="-152.95" font-family="Helvetica,sans-Serif" font-size="14.00">settings</text>
</g>
<!-- match_binning&#45;&gt;determine_flippers -->
<g id="edge7" class="edge">
<title>match_binning&#45;&gt;determine_flippers</title>
<path fill="none" stroke="black" d="M81.39,-240.3C81.78,-228.58 82.31,-212.81 82.77,-198.91"/>
<polygon fill="black" stroke="black" points="86.25,-199.44 83.08,-189.33 79.26,-199.21 86.25,-199.44"/>
</g>
<!-- determine_flippers&#45;&gt;correction -->
<g id="edge8" class="edge">
<title>determine_flippers&#45;&gt;correction</title>
<path fill="none" stroke="black" d="M111.11,-144.57C123.12,-135.47 137.3,-124.73 149.8,-115.26"/>
<polygon fill="black" stroke="black" points="151.91,-118.05 157.76,-109.22 147.68,-112.47 151.91,-118.05"/>
</g>
<!-- load_efficiencies&#45;&gt;correction -->
<g id="edge10" class="edge">
<title>load_efficiencies&#45;&gt;correction</title>
<path fill="none" stroke="black" d="M279.04,-147.84C261.76,-137.74 239.8,-124.9 221.11,-113.97"/>
<polygon fill="black" stroke="black" points="223.11,-111.09 212.71,-109.06 219.58,-117.13 223.11,-111.09"/>
</g>
</g>
</svg>
