<?xml version="1.0" encoding="UTF-8" standalone="no"?>
<!DOCTYPE svg PUBLIC "-//W3C//DTD SVG 1.1//EN"
 "http://www.w3.org/Graphics/SVG/1.1/DTD/svg11.dtd">
<!-- Generated by graphviz version 13.1.0 (20250701.1702)
 -->
<!-- Title: ReflectometryILLPreprocess Pages: 1 -->
<svg width="705pt" height="597pt"
 viewBox="0.00 0.00 705.00 597.00" xmlns="http://www.w3.org/2000/svg" xmlns:xlink="http://www.w3.org/1999/xlink">
<g id="graph0" class="graph" transform="scale(1 1) rotate(0) translate(4 592.5)">
<title>ReflectometryILLPreprocess</title>
<polygon fill="white" stroke="none" points="-4,4 -4,-592.5 701.06,-592.5 701.06,4 -4,4"/>
<text xml:space="preserve" text-anchor="middle" x="348.53" y="-571.2" font-family="Helvetica,sans-Serif" font-size="14.00">High level diagram demonstrating the processing steps for each angle configuration.</text>
<!-- directRun -->
<g id="node1" class="node">
<title>directRun</title>
<ellipse fill="khaki" stroke="black" cx="368.81" cy="-545.25" rx="58.57" ry="18"/>
<text xml:space="preserve" text-anchor="middle" x="368.81" y="-540.58" font-family="Helvetica,sans-Serif" font-size="14.00">DirectRun</text>
</g>
<!-- preProcessDirect -->
<g id="node7" class="node">
<title>preProcessDirect</title>
<path fill="lightskyblue" stroke="black" d="M460.06,-490.25C460.06,-490.25 277.56,-490.25 277.56,-490.25 271.56,-490.25 265.56,-484.25 265.56,-478.25 265.56,-478.25 265.56,-466.25 265.56,-466.25 265.56,-460.25 271.56,-454.25 277.56,-454.25 277.56,-454.25 460.06,-454.25 460.06,-454.25 466.06,-454.25 472.06,-460.25 472.06,-466.25 472.06,-466.25 472.06,-478.25 472.06,-478.25 472.06,-484.25 466.06,-490.25 460.06,-490.25"/>
<text xml:space="preserve" text-anchor="middle" x="368.81" y="-467.57" font-family="Helvetica,sans-Serif" font-size="14.00">ReflectometryILLPreProcess</text>
</g>
<!-- directRun&#45;&gt;preProcessDirect -->
<g id="edge1" class="edge">
<title>directRun&#45;&gt;preProcessDirect</title>
<path fill="none" stroke="black" d="M368.81,-527.06C368.81,-519.48 368.81,-510.35 368.81,-501.79"/>
<polygon fill="black" stroke="black" points="372.31,-501.79 368.81,-491.79 365.31,-501.79 372.31,-501.79"/>
</g>
<!-- reflectedRun -->
<g id="node2" class="node">
<title>reflectedRun</title>
<ellipse fill="khaki" stroke="black" cx="593.81" cy="-545.25" rx="75.41" ry="18"/>
<text xml:space="preserve" text-anchor="middle" x="593.81" y="-540.58" font-family="Helvetica,sans-Serif" font-size="14.00">ReflectedRun</text>
</g>
<!-- preProcessReflected -->
<g id="node8" class="node">
<title>preProcessReflected</title>
<path fill="lightskyblue" stroke="black" d="M685.06,-490.25C685.06,-490.25 502.56,-490.25 502.56,-490.25 496.56,-490.25 490.56,-484.25 490.56,-478.25 490.56,-478.25 490.56,-466.25 490.56,-466.25 490.56,-460.25 496.56,-454.25 502.56,-454.25 502.56,-454.25 685.06,-454.25 685.06,-454.25 691.06,-454.25 697.06,-460.25 697.06,-466.25 697.06,-466.25 697.06,-478.25 697.06,-478.25 697.06,-484.25 691.06,-490.25 685.06,-490.25"/>
<text xml:space="preserve" text-anchor="middle" x="593.81" y="-467.57" font-family="Helvetica,sans-Serif" font-size="14.00">ReflectometryILLPreProcess</text>
</g>
<!-- reflectedRun&#45;&gt;preProcessReflected -->
<g id="edge2" class="edge">
<title>reflectedRun&#45;&gt;preProcessReflected</title>
<path fill="none" stroke="black" d="M593.81,-527.06C593.81,-519.48 593.81,-510.35 593.81,-501.79"/>
<polygon fill="black" stroke="black" points="597.31,-501.79 593.81,-491.79 590.31,-501.79 597.31,-501.79"/>
</g>
<!-- method -->
<g id="node3" class="node">
<title>method</title>
<ellipse fill="khaki" stroke="black" cx="123.81" cy="-472.25" rx="123.81" ry="18"/>
<text xml:space="preserve" text-anchor="middle" x="123.81" y="-467.57" font-family="Helvetica,sans-Serif" font-size="14.00">Coherent or Incoherent</text>
</g>
<!-- sumForeground -->
<g id="node9" class="node">
<title>sumForeground</title>
<path fill="lightskyblue" stroke="black" d="M478.06,-417.25C478.06,-417.25 259.56,-417.25 259.56,-417.25 253.56,-417.25 247.56,-411.25 247.56,-405.25 247.56,-405.25 247.56,-393.25 247.56,-393.25 247.56,-387.25 253.56,-381.25 259.56,-381.25 259.56,-381.25 478.06,-381.25 478.06,-381.25 484.06,-381.25 490.06,-387.25 490.06,-393.25 490.06,-393.25 490.06,-405.25 490.06,-405.25 490.06,-411.25 484.06,-417.25 478.06,-417.25"/>
<text xml:space="preserve" text-anchor="middle" x="368.81" y="-394.57" font-family="Helvetica,sans-Serif" font-size="14.00">ReflectometryILLSumForeground</text>
</g>
<!-- method&#45;&gt;sumForeground -->
<g id="edge5" class="edge">
<title>method&#45;&gt;sumForeground</title>
<path fill="none" stroke="black" d="M177.58,-455.67C212.98,-445.41 259.72,-431.86 298.12,-420.73"/>
<polygon fill="black" stroke="black" points="298.64,-424.23 307.27,-418.09 296.69,-417.51 298.64,-424.23"/>
</g>
<!-- output -->
<g id="node4" class="node">
<title>output</title>
<ellipse fill="khaki" stroke="black" cx="291.81" cy="-18" rx="98.56" ry="18"/>
<text xml:space="preserve" text-anchor="middle" x="291.81" y="-13.32" font-family="Helvetica,sans-Serif" font-size="14.00">OutputWorkspace</text>
</g>
<!-- reflectivity -->
<g id="node5" class="node">
<title>reflectivity</title>
<ellipse fill="khaki" stroke="black" cx="368.81" cy="-326.25" rx="64.89" ry="18"/>
<text xml:space="preserve" text-anchor="middle" x="368.81" y="-321.57" font-family="Helvetica,sans-Serif" font-size="14.00">Reflectivity</text>
</g>
<!-- polarized -->
<g id="node12" class="node">
<title>polarized</title>
<polygon fill="limegreen" stroke="black" points="368.81,-271.25 283,-253.25 368.81,-235.25 454.62,-253.25 368.81,-271.25"/>
<text xml:space="preserve" text-anchor="middle" x="368.81" y="-248.57" font-family="Helvetica,sans-Serif" font-size="14.00">Polarized?</text>
</g>
<!-- reflectivity&#45;&gt;polarized -->
<g id="edge7" class="edge">
<title>reflectivity&#45;&gt;polarized</title>
<path fill="none" stroke="black" d="M368.81,-308.06C368.81,-300.48 368.81,-291.35 368.81,-282.79"/>
<polygon fill="black" stroke="black" points="372.31,-282.79 368.81,-272.79 365.31,-282.79 372.31,-282.79"/>
</g>
<!-- polEfficiency -->
<g id="node6" class="node">
<title>polEfficiency</title>
<ellipse fill="khaki" stroke="black" cx="150.81" cy="-253.25" rx="114.34" ry="18"/>
<text xml:space="preserve" text-anchor="middle" x="150.81" y="-248.57" font-family="Helvetica,sans-Serif" font-size="14.00">PolarizationEfficiency</text>
</g>
<!-- polarization -->
<g id="node11" class="node">
<title>polarization</title>
<path fill="lightskyblue" stroke="black" d="M321.06,-182C321.06,-182 108.56,-182 108.56,-182 102.56,-182 96.56,-176 96.56,-170 96.56,-170 96.56,-158 96.56,-158 96.56,-152 102.56,-146 108.56,-146 108.56,-146 321.06,-146 321.06,-146 327.06,-146 333.06,-152 333.06,-158 333.06,-158 333.06,-170 333.06,-170 333.06,-176 327.06,-182 321.06,-182"/>
<text xml:space="preserve" text-anchor="middle" x="214.81" y="-159.32" font-family="Helvetica,sans-Serif" font-size="14.00">ReflectometryILLPolarizationCor</text>
</g>
<!-- polEfficiency&#45;&gt;polarization -->
<g id="edge11" class="edge">
<title>polEfficiency&#45;&gt;polarization</title>
<path fill="none" stroke="black" d="M163.46,-235.01C172.57,-222.58 185.05,-205.58 195.42,-191.44"/>
<polygon fill="black" stroke="black" points="198.21,-193.56 201.3,-183.42 192.56,-189.42 198.21,-193.56"/>
</g>
<!-- preProcessDirect&#45;&gt;sumForeground -->
<g id="edge3" class="edge">
<title>preProcessDirect&#45;&gt;sumForeground</title>
<path fill="none" stroke="black" d="M368.81,-454.06C368.81,-446.48 368.81,-437.35 368.81,-428.79"/>
<polygon fill="black" stroke="black" points="372.31,-428.79 368.81,-418.79 365.31,-428.79 372.31,-428.79"/>
</g>
<!-- preProcessReflected&#45;&gt;sumForeground -->
<g id="edge4" class="edge">
<title>preProcessReflected&#45;&gt;sumForeground</title>
<path fill="none" stroke="black" d="M538.48,-453.79C507.15,-443.9 467.77,-431.48 434.83,-421.08"/>
<polygon fill="black" stroke="black" points="435.96,-417.77 425.37,-418.1 433.85,-424.44 435.96,-417.77"/>
</g>
<!-- sumForeground&#45;&gt;reflectivity -->
<g id="edge6" class="edge">
<title>sumForeground&#45;&gt;reflectivity</title>
<path fill="none" stroke="black" d="M368.81,-381.06C368.81,-373.48 368.81,-364.35 368.81,-355.79"/>
<polygon fill="black" stroke="black" points="372.31,-355.79 368.81,-345.79 365.31,-355.79 372.31,-355.79"/>
</g>
<!-- convertToQ -->
<g id="node10" class="node">
<title>convertToQ</title>
<path fill="lightskyblue" stroke="black" d="M386.06,-109C386.06,-109 197.56,-109 197.56,-109 191.56,-109 185.56,-103 185.56,-97 185.56,-97 185.56,-85 185.56,-85 185.56,-79 191.56,-73 197.56,-73 197.56,-73 386.06,-73 386.06,-73 392.06,-73 398.06,-79 398.06,-85 398.06,-85 398.06,-97 398.06,-97 398.06,-103 392.06,-109 386.06,-109"/>
<text xml:space="preserve" text-anchor="middle" x="291.81" y="-86.33" font-family="Helvetica,sans-Serif" font-size="14.00">ReflectometryILLConvertToQ</text>
</g>
<!-- convertToQ&#45;&gt;output -->
<g id="edge12" class="edge">
<title>convertToQ&#45;&gt;output</title>
<path fill="none" stroke="black" d="M291.81,-72.81C291.81,-65.23 291.81,-56.1 291.81,-47.54"/>
<polygon fill="black" stroke="black" points="295.31,-47.54 291.81,-37.54 288.31,-47.54 295.31,-47.54"/>
</g>
<!-- polarization&#45;&gt;convertToQ -->
<g id="edge10" class="edge">
<title>polarization&#45;&gt;convertToQ</title>
<path fill="none" stroke="black" d="M233.45,-145.81C242.84,-137.16 254.4,-126.5 264.74,-116.96"/>
<polygon fill="black" stroke="black" points="266.98,-119.65 271.96,-110.3 262.24,-114.51 266.98,-119.65"/>
</g>
<!-- polarized&#45;&gt;convertToQ -->
<g id="edge9" class="edge">
<title>polarized&#45;&gt;convertToQ</title>
<path fill="none" stroke="black" d="M367.1,-235.11C364.34,-213.28 357.54,-174.93 341.81,-146 336.18,-135.64 328.12,-125.74 320.1,-117.31"/>
<polygon fill="black" stroke="black" points="322.81,-115.07 313.27,-110.47 317.86,-120.02 322.81,-115.07"/>
<text xml:space="preserve" text-anchor="middle" x="365.46" y="-159.32" font-family="Helvetica,sans-Serif" font-size="14.00">No</text>
</g>
<!-- polarized&#45;&gt;polarization -->
<g id="edge8" class="edge">
<title>polarized&#45;&gt;polarization</title>
<path fill="none" stroke="black" d="M346.42,-239.56C322.61,-226.08 284.46,-204.46 255.35,-187.97"/>
<polygon fill="black" stroke="black" points="257.21,-185 246.79,-183.12 253.76,-191.09 257.21,-185"/>
<text xml:space="preserve" text-anchor="middle" x="316.85" y="-203.95" font-family="Helvetica,sans-Serif" font-size="14.00">Yes</text>
</g>
</g>
</svg>
