<?xml version="1.0" encoding="UTF-8" standalone="no"?>
<!DOCTYPE svg PUBLIC "-//W3C//DTD SVG 1.1//EN"
 "http://www.w3.org/Graphics/SVG/1.1/DTD/svg11.dtd">
<!-- Generated by graphviz version 7.0.5 (20221231.0122)
 -->
<!-- Title: ReflectometryILLPreprocess Pages: 1 -->
<svg width="689pt" height="592pt"
 viewBox="0.00 0.00 688.54 592.00" xmlns="http://www.w3.org/2000/svg" xmlns:xlink="http://www.w3.org/1999/xlink">
<g id="graph0" class="graph" transform="scale(1 1) rotate(0) translate(4 588)">
<title>ReflectometryILLPreprocess</title>
<polygon fill="white" stroke="none" points="-4,4 -4,-588 684.54,-588 684.54,4 -4,4"/>
<text text-anchor="middle" x="340.27" y="-568.8" font-family="Helvetica,sans-Serif" font-size="14.00">High level diagram demonstrating the processing steps for each angle configuration.</text>
<!-- directRun -->
<g id="node1" class="node">
<title>directRun</title>
<ellipse fill="khaki" stroke="black" cx="352.04" cy="-543" rx="54.69" ry="18"/>
<text text-anchor="middle" x="352.04" y="-539.3" font-family="Helvetica,sans-Serif" font-size="14.00">DirectRun</text>
</g>
<!-- preProcessDirect -->
<g id="node7" class="node">
<title>preProcessDirect</title>
<path fill="lightskyblue" stroke="black" d="M443.54,-488C443.54,-488 260.54,-488 260.54,-488 254.54,-488 248.54,-482 248.54,-476 248.54,-476 248.54,-464 248.54,-464 248.54,-458 254.54,-452 260.54,-452 260.54,-452 443.54,-452 443.54,-452 449.54,-452 455.54,-458 455.54,-464 455.54,-464 455.54,-476 455.54,-476 455.54,-482 449.54,-488 443.54,-488"/>
<text text-anchor="middle" x="352.04" y="-466.3" font-family="Helvetica,sans-Serif" font-size="14.00">ReflectometryILLPreProcess</text>
</g>
<!-- directRun&#45;&gt;preProcessDirect -->
<g id="edge1" class="edge">
<title>directRun&#45;&gt;preProcessDirect</title>
<path fill="none" stroke="black" d="M352.04,-524.81C352.04,-517.23 352.04,-508.1 352.04,-499.54"/>
<polygon fill="black" stroke="black" points="355.54,-499.54 352.04,-489.54 348.54,-499.54 355.54,-499.54"/>
</g>
<!-- reflectedRun -->
<g id="node2" class="node">
<title>reflectedRun</title>
<ellipse fill="khaki" stroke="black" cx="577.04" cy="-543" rx="70.39" ry="18"/>
<text text-anchor="middle" x="577.04" y="-539.3" font-family="Helvetica,sans-Serif" font-size="14.00">ReflectedRun</text>
</g>
<!-- preProcessReflected -->
<g id="node8" class="node">
<title>preProcessReflected</title>
<path fill="lightskyblue" stroke="black" d="M668.54,-488C668.54,-488 485.54,-488 485.54,-488 479.54,-488 473.54,-482 473.54,-476 473.54,-476 473.54,-464 473.54,-464 473.54,-458 479.54,-452 485.54,-452 485.54,-452 668.54,-452 668.54,-452 674.54,-452 680.54,-458 680.54,-464 680.54,-464 680.54,-476 680.54,-476 680.54,-482 674.54,-488 668.54,-488"/>
<text text-anchor="middle" x="577.04" y="-466.3" font-family="Helvetica,sans-Serif" font-size="14.00">ReflectometryILLPreProcess</text>
</g>
<!-- reflectedRun&#45;&gt;preProcessReflected -->
<g id="edge2" class="edge">
<title>reflectedRun&#45;&gt;preProcessReflected</title>
<path fill="none" stroke="black" d="M577.04,-524.81C577.04,-517.23 577.04,-508.1 577.04,-499.54"/>
<polygon fill="black" stroke="black" points="580.54,-499.54 577.04,-489.54 573.54,-499.54 580.54,-499.54"/>
</g>
<!-- method -->
<g id="node3" class="node">
<title>method</title>
<ellipse fill="khaki" stroke="black" cx="115.04" cy="-470" rx="115.08" ry="18"/>
<text text-anchor="middle" x="115.04" y="-466.3" font-family="Helvetica,sans-Serif" font-size="14.00">Coherent or Incoherent</text>
</g>
<!-- sumForeground -->
<g id="node9" class="node">
<title>sumForeground</title>
<path fill="lightskyblue" stroke="black" d="M461.54,-415C461.54,-415 242.54,-415 242.54,-415 236.54,-415 230.54,-409 230.54,-403 230.54,-403 230.54,-391 230.54,-391 230.54,-385 236.54,-379 242.54,-379 242.54,-379 461.54,-379 461.54,-379 467.54,-379 473.54,-385 473.54,-391 473.54,-391 473.54,-403 473.54,-403 473.54,-409 467.54,-415 461.54,-415"/>
<text text-anchor="middle" x="352.04" y="-393.3" font-family="Helvetica,sans-Serif" font-size="14.00">ReflectometryILLSumForeground</text>
</g>
<!-- method&#45;&gt;sumForeground -->
<g id="edge5" class="edge">
<title>method&#45;&gt;sumForeground</title>
<path fill="none" stroke="black" d="M166.76,-453.51C200.85,-443.29 245.89,-429.8 283.02,-418.68"/>
<polygon fill="black" stroke="black" points="283.74,-422.11 292.32,-415.89 281.74,-415.41 283.74,-422.11"/>
</g>
<!-- output -->
<g id="node4" class="node">
<title>output</title>
<ellipse fill="khaki" stroke="black" cx="274.04" cy="-18" rx="91.78" ry="18"/>
<text text-anchor="middle" x="274.04" y="-14.3" font-family="Helvetica,sans-Serif" font-size="14.00">OutputWorkspace</text>
</g>
<!-- reflectivity -->
<g id="node5" class="node">
<title>reflectivity</title>
<ellipse fill="khaki" stroke="black" cx="352.04" cy="-324" rx="60.39" ry="18"/>
<text text-anchor="middle" x="352.04" y="-320.3" font-family="Helvetica,sans-Serif" font-size="14.00">Reflectivity</text>
</g>
<!-- polarized -->
<g id="node12" class="node">
<title>polarized</title>
<polygon fill="limegreen" stroke="black" points="352.04,-269 272.11,-251 352.04,-233 431.97,-251 352.04,-269"/>
<text text-anchor="middle" x="352.04" y="-247.3" font-family="Helvetica,sans-Serif" font-size="14.00">Polarized?</text>
</g>
<!-- reflectivity&#45;&gt;polarized -->
<g id="edge7" class="edge">
<title>reflectivity&#45;&gt;polarized</title>
<path fill="none" stroke="black" d="M352.04,-305.81C352.04,-298.23 352.04,-289.1 352.04,-280.54"/>
<polygon fill="black" stroke="black" points="355.54,-280.54 352.04,-270.54 348.54,-280.54 355.54,-280.54"/>
</g>
<!-- polEfficiency -->
<g id="node6" class="node">
<title>polEfficiency</title>
<ellipse fill="khaki" stroke="black" cx="147.04" cy="-251" rx="106.68" ry="18"/>
<text text-anchor="middle" x="147.04" y="-247.3" font-family="Helvetica,sans-Serif" font-size="14.00">PolarizationEfficiency</text>
</g>
<!-- polarization -->
<g id="node11" class="node">
<title>polarization</title>
<path fill="lightskyblue" stroke="black" d="M303.54,-182C303.54,-182 90.54,-182 90.54,-182 84.54,-182 78.54,-176 78.54,-170 78.54,-170 78.54,-158 78.54,-158 78.54,-152 84.54,-146 90.54,-146 90.54,-146 303.54,-146 303.54,-146 309.54,-146 315.54,-152 315.54,-158 315.54,-158 315.54,-170 315.54,-170 315.54,-176 309.54,-182 303.54,-182"/>
<text text-anchor="middle" x="197.04" y="-160.3" font-family="Helvetica,sans-Serif" font-size="14.00">ReflectometryILLPolarizationCor</text>
</g>
<!-- polEfficiency&#45;&gt;polarization -->
<g id="edge11" class="edge">
<title>polEfficiency&#45;&gt;polarization</title>
<path fill="none" stroke="black" d="M157.16,-232.8C164.03,-221.12 173.25,-205.45 181.09,-192.11"/>
<polygon fill="black" stroke="black" points="183.94,-194.17 186,-183.77 177.91,-190.62 183.94,-194.17"/>
</g>
<!-- preProcessDirect&#45;&gt;sumForeground -->
<g id="edge3" class="edge">
<title>preProcessDirect&#45;&gt;sumForeground</title>
<path fill="none" stroke="black" d="M352.04,-451.81C352.04,-444.23 352.04,-435.1 352.04,-426.54"/>
<polygon fill="black" stroke="black" points="355.54,-426.54 352.04,-416.54 348.54,-426.54 355.54,-426.54"/>
</g>
<!-- preProcessReflected&#45;&gt;sumForeground -->
<g id="edge4" class="edge">
<title>preProcessReflected&#45;&gt;sumForeground</title>
<path fill="none" stroke="black" d="M521.71,-451.54C490.38,-441.65 450.99,-429.23 418.06,-418.83"/>
<polygon fill="black" stroke="black" points="419.19,-415.52 408.6,-415.85 417.08,-422.19 419.19,-415.52"/>
</g>
<!-- sumForeground&#45;&gt;reflectivity -->
<g id="edge6" class="edge">
<title>sumForeground&#45;&gt;reflectivity</title>
<path fill="none" stroke="black" d="M352.04,-378.81C352.04,-371.23 352.04,-362.1 352.04,-353.54"/>
<polygon fill="black" stroke="black" points="355.54,-353.54 352.04,-343.54 348.54,-353.54 355.54,-353.54"/>
</g>
<!-- convertToQ -->
<g id="node10" class="node">
<title>convertToQ</title>
<path fill="lightskyblue" stroke="black" d="M368.54,-109C368.54,-109 179.54,-109 179.54,-109 173.54,-109 167.54,-103 167.54,-97 167.54,-97 167.54,-85 167.54,-85 167.54,-79 173.54,-73 179.54,-73 179.54,-73 368.54,-73 368.54,-73 374.54,-73 380.54,-79 380.54,-85 380.54,-85 380.54,-97 380.54,-97 380.54,-103 374.54,-109 368.54,-109"/>
<text text-anchor="middle" x="274.04" y="-87.3" font-family="Helvetica,sans-Serif" font-size="14.00">ReflectometryILLConvertToQ</text>
</g>
<!-- convertToQ&#45;&gt;output -->
<g id="edge12" class="edge">
<title>convertToQ&#45;&gt;output</title>
<path fill="none" stroke="black" d="M274.04,-72.81C274.04,-65.23 274.04,-56.1 274.04,-47.54"/>
<polygon fill="black" stroke="black" points="277.54,-47.54 274.04,-37.54 270.54,-47.54 277.54,-47.54"/>
</g>
<!-- polarization&#45;&gt;convertToQ -->
<g id="edge10" class="edge">
<title>polarization&#45;&gt;convertToQ</title>
<path fill="none" stroke="black" d="M215.68,-145.81C225.07,-137.16 236.63,-126.5 246.97,-116.96"/>
<polygon fill="black" stroke="black" points="249.21,-119.65 254.19,-110.3 244.47,-114.51 249.21,-119.65"/>
</g>
<!-- polarized&#45;&gt;convertToQ -->
<g id="edge9" class="edge">
<title>polarized&#45;&gt;convertToQ</title>
<path fill="none" stroke="black" d="M350.05,-233.22C346.97,-211.85 339.69,-174.31 324.04,-146 318.29,-135.6 310.12,-125.63 302.05,-117.15"/>
<polygon fill="black" stroke="black" points="304.72,-114.87 295.17,-110.28 299.77,-119.82 304.72,-114.87"/>
<text text-anchor="middle" x="348.54" y="-160.3" font-family="Helvetica,sans-Serif" font-size="14.00">No</text>
</g>
<!-- polarized&#45;&gt;polarization -->
<g id="edge8" class="edge">
<title>polarized&#45;&gt;polarization</title>
<path fill="none" stroke="black" d="M329.5,-237.64C305.77,-224.62 267.87,-203.84 238.67,-187.83"/>
<polygon fill="black" stroke="black" points="240.53,-184.86 230.08,-183.12 237.16,-190.99 240.53,-184.86"/>
<text text-anchor="middle" x="295.54" y="-203.8" font-family="Helvetica,sans-Serif" font-size="14.00">Yes</text>
</g>
</g>
</svg>
