<?xml version="1.0" encoding="UTF-8" standalone="no"?>
<!DOCTYPE svg PUBLIC "-//W3C//DTD SVG 1.1//EN"
 "http://www.w3.org/Graphics/SVG/1.1/DTD/svg11.dtd">
<!-- Generated by graphviz version 12.0.0 (20240803.0821)
 -->
<!-- Title: ReflectometryReductionOne Pages: 1 -->
<svg width="1230pt" height="521pt"
 viewBox="0.00 0.00 1230.43 521.00" xmlns="http://www.w3.org/2000/svg" xmlns:xlink="http://www.w3.org/1999/xlink">
<g id="graph0" class="graph" transform="scale(1 1) rotate(0) translate(4 517)">
<title>ReflectometryReductionOne</title>
<polygon fill="white" stroke="none" points="-4,4 -4,-517 1226.43,-517 1226.43,4 -4,4"/>
<!-- inputWorkspace -->
<g id="node1" class="node">
<title>inputWorkspace</title>
<ellipse fill="khaki" stroke="black" cx="542.83" cy="-471" rx="155.9" ry="18"/>
<text text-anchor="middle" x="542.83" y="-466.32" font-family="Helvetica,sans-Serif" font-size="14.00">OutputWorkspaceWavelength</text>
</g>
<!-- checkTransRun -->
<g id="node9" class="node">
<title>checkTransRun</title>
<polygon fill="limegreen" stroke="black" points="542.83,-343 379.83,-300.5 542.83,-258 705.83,-300.5 542.83,-343"/>
<text text-anchor="middle" x="542.83" y="-304.45" font-family="Helvetica,sans-Serif" font-size="14.00">FirstTransmissionRun</text>
<text text-anchor="middle" x="542.83" y="-287.2" font-family="Helvetica,sans-Serif" font-size="14.00">given?</text>
</g>
<!-- inputWorkspace&#45;&gt;checkTransRun -->
<g id="edge1" class="edge">
<title>inputWorkspace&#45;&gt;checkTransRun</title>
<path fill="none" stroke="black" d="M542.83,-452.6C542.83,-429.64 542.83,-388.17 542.83,-354.48"/>
<polygon fill="black" stroke="black" points="546.33,-354.91 542.83,-344.91 539.33,-354.91 546.33,-354.91"/>
</g>
<!-- rebinByTransWS -->
<g id="node11" class="node">
<title>rebinByTransWS</title>
<path fill="lightskyblue" stroke="black" d="M857.33,-318.5C857.33,-318.5 736.33,-318.5 736.33,-318.5 730.33,-318.5 724.33,-312.5 724.33,-306.5 724.33,-306.5 724.33,-294.5 724.33,-294.5 724.33,-288.5 730.33,-282.5 736.33,-282.5 736.33,-282.5 857.33,-282.5 857.33,-282.5 863.33,-282.5 869.33,-288.5 869.33,-294.5 869.33,-294.5 869.33,-306.5 869.33,-306.5 869.33,-312.5 863.33,-318.5 857.33,-318.5"/>
<text text-anchor="middle" x="796.83" y="-295.82" font-family="Helvetica,sans-Serif" font-size="14.00">RebinToWorkspace</text>
</g>
<!-- inputWorkspace&#45;&gt;rebinByTransWS -->
<g id="edge16" class="edge">
<title>inputWorkspace&#45;&gt;rebinByTransWS</title>
<path fill="none" stroke="black" d="M568.59,-452.92C614.2,-422.65 709.27,-359.59 761.16,-325.16"/>
<polygon fill="black" stroke="black" points="762.97,-328.16 769.37,-319.72 759.1,-322.33 762.97,-328.16"/>
</g>
<!-- outputWorkspace -->
<g id="node2" class="node">
<title>outputWorkspace</title>
<ellipse fill="khaki" stroke="black" cx="443.83" cy="-18" rx="155.9" ry="18"/>
<text text-anchor="middle" x="443.83" y="-13.32" font-family="Helvetica,sans-Serif" font-size="14.00">OutputWorkspaceWavelength</text>
</g>
<!-- corrAlg -->
<g id="node3" class="node">
<title>corrAlg</title>
<ellipse fill="khaki" stroke="black" cx="252.83" cy="-300.5" rx="108.55" ry="18"/>
<text text-anchor="middle" x="252.83" y="-295.82" font-family="Helvetica,sans-Serif" font-size="14.00">CorrectionAlgorithm</text>
</g>
<!-- checkCorrAlg -->
<g id="node10" class="node">
<title>checkCorrAlg</title>
<polygon fill="limegreen" stroke="black" points="306.83,-201.5 145.88,-183.5 306.83,-165.5 467.79,-183.5 306.83,-201.5"/>
<text text-anchor="middle" x="306.83" y="-178.82" font-family="Helvetica,sans-Serif" font-size="14.00">CorrectionAlgorithm?</text>
</g>
<!-- corrAlg&#45;&gt;checkCorrAlg -->
<g id="edge4" class="edge">
<title>corrAlg&#45;&gt;checkCorrAlg</title>
<path fill="none" stroke="black" d="M260.8,-282.53C269.64,-263.72 284,-233.12 294.34,-211.12"/>
<polygon fill="black" stroke="black" points="297.46,-212.7 298.54,-202.16 291.12,-209.73 297.46,-212.7"/>
</g>
<!-- firstTransRun -->
<g id="node4" class="node">
<title>firstTransRun</title>
<ellipse fill="khaki" stroke="black" cx="830.83" cy="-471" rx="114.34" ry="18"/>
<text text-anchor="middle" x="830.83" y="-466.32" font-family="Helvetica,sans-Serif" font-size="14.00">FirstTransmissionRun</text>
</g>
<!-- createTransWS -->
<g id="node14" class="node">
<title>createTransWS</title>
<path fill="lightskyblue" stroke="black" d="M932.58,-416C932.58,-416 729.08,-416 729.08,-416 723.08,-416 717.08,-410 717.08,-404 717.08,-404 717.08,-392 717.08,-392 717.08,-386 723.08,-380 729.08,-380 729.08,-380 932.58,-380 932.58,-380 938.58,-380 944.58,-386 944.58,-392 944.58,-392 944.58,-404 944.58,-404 944.58,-410 938.58,-416 932.58,-416"/>
<text text-anchor="middle" x="830.83" y="-393.32" font-family="Helvetica,sans-Serif" font-size="14.00">CreateTransmissionWorkspace</text>
</g>
<!-- firstTransRun&#45;&gt;createTransWS -->
<g id="edge13" class="edge">
<title>firstTransRun&#45;&gt;createTransWS</title>
<path fill="none" stroke="black" d="M830.83,-452.81C830.83,-445.23 830.83,-436.1 830.83,-427.54"/>
<polygon fill="black" stroke="black" points="834.33,-427.54 830.83,-417.54 827.33,-427.54 834.33,-427.54"/>
</g>
<!-- secondTransRun -->
<g id="node5" class="node">
<title>secondTransRun</title>
<ellipse fill="khaki" stroke="black" cx="1092.83" cy="-471" rx="129.6" ry="18"/>
<text text-anchor="middle" x="1092.83" y="-466.32" font-family="Helvetica,sans-Serif" font-size="14.00">SecondTransmissionRun</text>
</g>
<!-- secondTransRun&#45;&gt;createTransWS -->
<g id="edge14" class="edge">
<title>secondTransRun&#45;&gt;createTransWS</title>
<path fill="none" stroke="black" d="M1035.34,-454.42C997.39,-444.14 947.28,-430.56 906.16,-419.41"/>
<polygon fill="black" stroke="black" points="907.12,-416.05 896.56,-416.81 905.29,-422.8 907.12,-416.05"/>
</g>
<!-- polynomial -->
<g id="node6" class="node">
<title>polynomial</title>
<ellipse fill="khaki" stroke="black" cx="63.83" cy="-183.5" rx="63.83" ry="18"/>
<text text-anchor="middle" x="63.83" y="-178.82" font-family="Helvetica,sans-Serif" font-size="14.00">Polynomial</text>
</g>
<!-- polyCorr -->
<g id="node12" class="node">
<title>polyCorr</title>
<path fill="lightskyblue" stroke="black" d="M326.58,-109C326.58,-109 189.08,-109 189.08,-109 183.08,-109 177.08,-103 177.08,-97 177.08,-97 177.08,-85 177.08,-85 177.08,-79 183.08,-73 189.08,-73 189.08,-73 326.58,-73 326.58,-73 332.58,-73 338.58,-79 338.58,-85 338.58,-85 338.58,-97 338.58,-97 338.58,-103 332.58,-109 326.58,-109"/>
<text text-anchor="middle" x="257.83" y="-86.33" font-family="Helvetica,sans-Serif" font-size="14.00">PolynomialCorrection</text>
</g>
<!-- polynomial&#45;&gt;polyCorr -->
<g id="edge5" class="edge">
<title>polynomial&#45;&gt;polyCorr</title>
<path fill="none" stroke="black" d="M95.87,-167.56C127.02,-153.03 174.71,-130.78 210.28,-114.18"/>
<polygon fill="black" stroke="black" points="211.48,-117.49 219.07,-110.09 208.52,-111.14 211.48,-117.49"/>
</g>
<!-- c0 -->
<g id="node7" class="node">
<title>c0</title>
<ellipse fill="khaki" stroke="black" cx="512.83" cy="-183.5" rx="27" ry="18"/>
<text text-anchor="middle" x="512.83" y="-178.82" font-family="Helvetica,sans-Serif" font-size="14.00">C0</text>
</g>
<!-- expCorr -->
<g id="node13" class="node">
<title>expCorr</title>
<path fill="lightskyblue" stroke="black" d="M584.96,-109C584.96,-109 440.71,-109 440.71,-109 434.71,-109 428.71,-103 428.71,-97 428.71,-97 428.71,-85 428.71,-85 428.71,-79 434.71,-73 440.71,-73 440.71,-73 584.96,-73 584.96,-73 590.96,-73 596.96,-79 596.96,-85 596.96,-85 596.96,-97 596.96,-97 596.96,-103 590.96,-109 584.96,-109"/>
<text text-anchor="middle" x="512.83" y="-86.33" font-family="Helvetica,sans-Serif" font-size="14.00">ExponentialCorrection</text>
</g>
<!-- c0&#45;&gt;expCorr -->
<g id="edge8" class="edge">
<title>c0&#45;&gt;expCorr</title>
<path fill="none" stroke="black" d="M512.83,-165.05C512.83,-152.53 512.83,-135.37 512.83,-120.83"/>
<polygon fill="black" stroke="black" points="516.33,-120.91 512.83,-110.91 509.33,-120.91 516.33,-120.91"/>
</g>
<!-- c1 -->
<g id="node8" class="node">
<title>c1</title>
<ellipse fill="khaki" stroke="black" cx="584.83" cy="-183.5" rx="27" ry="18"/>
<text text-anchor="middle" x="584.83" y="-178.82" font-family="Helvetica,sans-Serif" font-size="14.00">C1</text>
</g>
<!-- c1&#45;&gt;expCorr -->
<g id="edge9" class="edge">
<title>c1&#45;&gt;expCorr</title>
<path fill="none" stroke="black" d="M572.62,-167.15C561.96,-153.74 546.25,-134 533.61,-118.11"/>
<polygon fill="black" stroke="black" points="536.49,-116.11 527.53,-110.47 531.01,-120.47 536.49,-116.11"/>
</g>
<!-- checkTransRun&#45;&gt;checkCorrAlg -->
<g id="edge2" class="edge">
<title>checkTransRun&#45;&gt;checkCorrAlg</title>
<path fill="none" stroke="black" d="M486.91,-272.25C443.55,-251.12 384.56,-222.37 346.1,-203.63"/>
<polygon fill="black" stroke="black" points="347.71,-200.52 337.19,-199.29 344.64,-206.82 347.71,-200.52"/>
<text text-anchor="middle" x="426.21" y="-226.7" font-family="Helvetica,sans-Serif" font-size="14.00">No</text>
</g>
<!-- divideTrans -->
<g id="node15" class="node">
<title>divideTrans</title>
<path fill="lightskyblue" stroke="black" d="M751.71,-204.75C751.71,-204.75 641.96,-204.75 641.96,-204.75 635.96,-204.75 629.96,-198.75 629.96,-192.75 629.96,-192.75 629.96,-174.25 629.96,-174.25 629.96,-168.25 635.96,-162.25 641.96,-162.25 641.96,-162.25 751.71,-162.25 751.71,-162.25 757.71,-162.25 763.71,-168.25 763.71,-174.25 763.71,-174.25 763.71,-192.75 763.71,-192.75 763.71,-198.75 757.71,-204.75 751.71,-204.75"/>
<text text-anchor="middle" x="696.83" y="-187.45" font-family="Helvetica,sans-Serif" font-size="14.00">Divide by</text>
<text text-anchor="middle" x="696.83" y="-170.2" font-family="Helvetica,sans-Serif" font-size="14.00">transmission run</text>
</g>
<!-- checkTransRun&#45;&gt;divideTrans -->
<g id="edge3" class="edge">
<title>checkTransRun&#45;&gt;divideTrans</title>
<path fill="none" stroke="black" d="M584.51,-268.38C608.15,-250.72 637.47,-228.83 660.22,-211.84"/>
<polygon fill="black" stroke="black" points="662.09,-214.81 668.01,-206.02 657.9,-209.2 662.09,-214.81"/>
<text text-anchor="middle" x="653.08" y="-226.7" font-family="Helvetica,sans-Serif" font-size="14.00">Yes</text>
</g>
<!-- checkCorrAlg&#45;&gt;outputWorkspace -->
<g id="edge7" class="edge">
<title>checkCorrAlg&#45;&gt;outputWorkspace</title>
<path fill="none" stroke="black" d="M334.14,-168.06C343.72,-161.84 353.83,-153.79 360.83,-144.25 380.53,-117.43 365.74,-100.92 383.83,-73 390.95,-62.02 400.87,-51.86 410.59,-43.39"/>
<polygon fill="black" stroke="black" points="412.74,-46.15 418.21,-37.07 408.27,-40.76 412.74,-46.15"/>
<text text-anchor="middle" x="401.83" y="-86.33" font-family="Helvetica,sans-Serif" font-size="14.00">None</text>
</g>
<!-- checkCorrAlg&#45;&gt;polyCorr -->
<g id="edge6" class="edge">
<title>checkCorrAlg&#45;&gt;polyCorr</title>
<path fill="none" stroke="black" d="M297.81,-166.14C294.08,-159.37 289.74,-151.44 285.83,-144.25 281.47,-136.2 276.75,-127.43 272.46,-119.42"/>
<polygon fill="black" stroke="black" points="275.64,-117.94 267.84,-110.78 269.47,-121.24 275.64,-117.94"/>
<text text-anchor="middle" x="323.33" y="-130.95" font-family="Helvetica,sans-Serif" font-size="14.00">Polynomial</text>
</g>
<!-- checkCorrAlg&#45;&gt;expCorr -->
<g id="edge10" class="edge">
<title>checkCorrAlg&#45;&gt;expCorr</title>
<path fill="none" stroke="black" d="M336.93,-168.42C366.66,-154.55 410.06,-134.4 427.08,-127 437.26,-122.58 448.18,-118 458.7,-113.66"/>
<polygon fill="black" stroke="black" points="459.72,-117.03 467.65,-110 457.07,-110.55 459.72,-117.03"/>
<text text-anchor="middle" x="467.71" y="-130.95" font-family="Helvetica,sans-Serif" font-size="14.00">Exponential</text>
</g>
<!-- rebinByTransWS&#45;&gt;divideTrans -->
<g id="edge17" class="edge">
<title>rebinByTransWS&#45;&gt;divideTrans</title>
<path fill="none" stroke="black" d="M781.65,-282.03C765.8,-263.81 740.69,-234.93 721.9,-213.32"/>
<polygon fill="black" stroke="black" points="724.73,-211.24 715.52,-205.99 719.44,-215.84 724.73,-211.24"/>
</g>
<!-- polyCorr&#45;&gt;outputWorkspace -->
<g id="edge11" class="edge">
<title>polyCorr&#45;&gt;outputWorkspace</title>
<path fill="none" stroke="black" d="M303.34,-72.63C329.35,-62.7 362.14,-50.18 389.5,-39.74"/>
<polygon fill="black" stroke="black" points="390.58,-43.08 398.67,-36.24 388.08,-36.54 390.58,-43.08"/>
</g>
<!-- expCorr&#45;&gt;outputWorkspace -->
<g id="edge12" class="edge">
<title>expCorr&#45;&gt;outputWorkspace</title>
<path fill="none" stroke="black" d="M496.13,-72.81C487.74,-64.18 477.42,-53.56 468.16,-44.03"/>
<polygon fill="black" stroke="black" points="470.92,-41.85 461.44,-37.11 465.9,-46.72 470.92,-41.85"/>
</g>
<!-- createTransWS&#45;&gt;rebinByTransWS -->
<g id="edge15" class="edge">
<title>createTransWS&#45;&gt;rebinByTransWS</title>
<path fill="none" stroke="black" d="M824.76,-379.93C819.76,-365.89 812.58,-345.72 806.75,-329.35"/>
<polygon fill="black" stroke="black" points="810.13,-328.42 803.48,-320.17 803.54,-330.77 810.13,-328.42"/>
</g>
<!-- divideTrans&#45;&gt;outputWorkspace -->
<g id="edge18" class="edge">
<title>divideTrans&#45;&gt;outputWorkspace</title>
<path fill="none" stroke="black" d="M684.67,-161.76C669.27,-137.22 640.53,-96.71 605.83,-73 582.71,-57.19 554.59,-45.7 528.31,-37.49"/>
<polygon fill="black" stroke="black" points="529.6,-34.22 519.02,-34.71 527.6,-40.93 529.6,-34.22"/>
</g>
</g>
</svg>
