<?xml version="1.0" encoding="UTF-8" standalone="no"?>
<!DOCTYPE svg PUBLIC "-//W3C//DTD SVG 1.1//EN"
 "http://www.w3.org/Graphics/SVG/1.1/DTD/svg11.dtd">
<!-- Generated by graphviz version 7.1.0 (20230122.1345)
 -->
<!-- Title: ReflectometryILLPolarizationCor Pages: 1 -->
<svg width="419pt" height="553pt"
 viewBox="0.00 0.00 418.85 552.74" xmlns="http://www.w3.org/2000/svg" xmlns:xlink="http://www.w3.org/1999/xlink">
<g id="graph0" class="graph" transform="scale(1 1) rotate(0) translate(4 548.74)">
<title>ReflectometryILLPolarizationCor</title>
<polygon fill="white" stroke="none" points="-4,4 -4,-548.74 414.85,-548.74 414.85,4 -4,4"/>
<text text-anchor="middle" x="205.42" y="-529.54" font-family="Helvetica,sans-Serif" font-size="14.00">ReflectometryILLPolarizationCor workflow diagram</text>
<!-- input -->
<g id="node1" class="node">
<title>input</title>
<ellipse fill="khaki" stroke="black" cx="139.35" cy="-503.74" rx="89.08" ry="18"/>
<text text-anchor="middle" x="139.35" y="-500.04" font-family="Helvetica,sans-Serif" font-size="14.00">InputWorkspaces</text>
</g>
<!-- pick_reference -->
<g id="node7" class="node">
<title>pick_reference</title>
<path fill="lightskyblue" stroke="black" d="M223.85,-448.74C223.85,-448.74 54.85,-448.74 54.85,-448.74 48.85,-448.74 42.85,-442.74 42.85,-436.74 42.85,-436.74 42.85,-424.74 42.85,-424.74 42.85,-418.74 48.85,-412.74 54.85,-412.74 54.85,-412.74 223.85,-412.74 223.85,-412.74 229.85,-412.74 235.85,-418.74 235.85,-424.74 235.85,-424.74 235.85,-436.74 235.85,-436.74 235.85,-442.74 229.85,-448.74 223.85,-448.74"/>
<text text-anchor="middle" x="139.35" y="-427.04" font-family="Helvetica,sans-Serif" font-size="14.00">Pick reference workspace</text>
</g>
<!-- input&#45;&gt;pick_reference -->
<g id="edge1" class="edge">
<title>input&#45;&gt;pick_reference</title>
<path fill="none" stroke="black" d="M139.35,-485.55C139.35,-477.97 139.35,-468.84 139.35,-460.28"/>
<polygon fill="black" stroke="black" points="142.85,-460.28 139.35,-450.28 135.85,-460.28 142.85,-460.28"/>
</g>
<!-- output -->
<g id="node2" class="node">
<title>output</title>
<ellipse fill="khaki" stroke="black" cx="183.35" cy="-18" rx="91.78" ry="18"/>
<text text-anchor="middle" x="183.35" y="-14.3" font-family="Helvetica,sans-Serif" font-size="14.00">OutputWorkspace</text>
</g>
<!-- reference -->
<g id="node3" class="node">
<title>reference</title>
<ellipse fill="khaki" stroke="black" cx="64.35" cy="-348.87" rx="64.19" ry="26.74"/>
<text text-anchor="middle" x="64.35" y="-352.67" font-family="Helvetica,sans-Serif" font-size="14.00">Reference</text>
<text text-anchor="middle" x="64.35" y="-337.67" font-family="Helvetica,sans-Serif" font-size="14.00">workspace</text>
</g>
<!-- correction -->
<g id="node6" class="node">
<title>correction</title>
<path fill="lightskyblue" stroke="black" d="M265.35,-109C265.35,-109 101.35,-109 101.35,-109 95.35,-109 89.35,-103 89.35,-97 89.35,-97 89.35,-85 89.35,-85 89.35,-79 95.35,-73 101.35,-73 101.35,-73 265.35,-73 265.35,-73 271.35,-73 277.35,-79 277.35,-85 277.35,-85 277.35,-97 277.35,-97 277.35,-103 271.35,-109 265.35,-109"/>
<text text-anchor="middle" x="183.35" y="-87.3" font-family="Helvetica,sans-Serif" font-size="14.00">PolarizationEfficiencyCor</text>
</g>
<!-- reference&#45;&gt;correction -->
<g id="edge5" class="edge">
<title>reference&#45;&gt;correction</title>
<path fill="none" stroke="black" d="M112.01,-330.58C137.97,-320.72 165.57,-309.28 169.35,-304 208.55,-249.14 198.9,-164.52 190.18,-120.62"/>
<polygon fill="black" stroke="black" points="193.61,-119.91 188.1,-110.86 186.76,-121.37 193.61,-119.91"/>
<text text-anchor="middle" x="243.85" y="-205.8" font-family="Helvetica,sans-Serif" font-size="14.00">No analyzer?</text>
</g>
<!-- match_binning -->
<g id="node8" class="node">
<title>match_binning</title>
<path fill="lightskyblue" stroke="black" d="M143.35,-271C143.35,-271 21.35,-271 21.35,-271 15.35,-271 9.35,-265 9.35,-259 9.35,-259 9.35,-247 9.35,-247 9.35,-241 15.35,-235 21.35,-235 21.35,-235 143.35,-235 143.35,-235 149.35,-235 155.35,-241 155.35,-247 155.35,-247 155.35,-259 155.35,-259 155.35,-265 149.35,-271 143.35,-271"/>
<text text-anchor="middle" x="82.35" y="-249.3" font-family="Helvetica,sans-Serif" font-size="14.00">RebinToWorkspace</text>
</g>
<!-- reference&#45;&gt;match_binning -->
<g id="edge4" class="edge">
<title>reference&#45;&gt;match_binning</title>
<path fill="none" stroke="black" d="M42.2,-323.44C35.29,-312.82 30.77,-300.26 36.35,-289 38.09,-285.48 40.38,-282.21 43.01,-279.21"/>
<polygon fill="black" stroke="black" points="45.23,-281.93 50.03,-272.49 40.39,-276.87 45.23,-281.93"/>
<text text-anchor="middle" x="102.85" y="-292.8" font-family="Helvetica,sans-Serif" font-size="14.00">WorkspaceToMatch</text>
</g>
<!-- workspaces -->
<g id="node4" class="node">
<title>workspaces</title>
<ellipse fill="khaki" stroke="black" cx="216.35" cy="-348.87" rx="69.09" ry="26.74"/>
<text text-anchor="middle" x="216.35" y="-352.67" font-family="Helvetica,sans-Serif" font-size="14.00">Rest of the</text>
<text text-anchor="middle" x="216.35" y="-337.67" font-family="Helvetica,sans-Serif" font-size="14.00">workspaces</text>
</g>
<!-- workspaces&#45;&gt;match_binning -->
<g id="edge6" class="edge">
<title>workspaces&#45;&gt;match_binning</title>
<path fill="none" stroke="black" d="M202.29,-322.32C194.92,-310.85 185,-297.93 173.35,-289 166.97,-284.12 159.83,-279.84 152.44,-276.12"/>
<polygon fill="black" stroke="black" points="154.15,-273.06 143.61,-272.01 151.2,-279.4 154.15,-273.06"/>
<text text-anchor="middle" x="253.35" y="-292.8" font-family="Helvetica,sans-Serif" font-size="14.00">WorkspaceToRebin</text>
</g>
<!-- efficiencies -->
<g id="node5" class="node">
<title>efficiencies</title>
<ellipse fill="khaki" stroke="black" cx="311.35" cy="-253" rx="68.79" ry="18"/>
<text text-anchor="middle" x="311.35" y="-249.3" font-family="Helvetica,sans-Serif" font-size="14.00">EfficiencyFile</text>
</g>
<!-- load_efficiencies -->
<g id="node10" class="node">
<title>load_efficiencies</title>
<path fill="lightskyblue" stroke="black" d="M398.85,-183C398.85,-183 223.85,-183 223.85,-183 217.85,-183 211.85,-177 211.85,-171 211.85,-171 211.85,-159 211.85,-159 211.85,-153 217.85,-147 223.85,-147 223.85,-147 398.85,-147 398.85,-147 404.85,-147 410.85,-153 410.85,-159 410.85,-159 410.85,-171 410.85,-171 410.85,-177 404.85,-183 398.85,-183"/>
<text text-anchor="middle" x="311.35" y="-161.3" font-family="Helvetica,sans-Serif" font-size="14.00">LoadILLPolarizationFactors</text>
</g>
<!-- efficiencies&#45;&gt;load_efficiencies -->
<g id="edge9" class="edge">
<title>efficiencies&#45;&gt;load_efficiencies</title>
<path fill="none" stroke="black" d="M311.35,-234.6C311.35,-223.17 311.35,-207.96 311.35,-194.76"/>
<polygon fill="black" stroke="black" points="314.85,-194.89 311.35,-184.89 307.85,-194.89 314.85,-194.89"/>
</g>
<!-- correction&#45;&gt;output -->
<g id="edge11" class="edge">
<title>correction&#45;&gt;output</title>
<path fill="none" stroke="black" d="M183.35,-72.81C183.35,-65.23 183.35,-56.1 183.35,-47.54"/>
<polygon fill="black" stroke="black" points="186.85,-47.54 183.35,-37.54 179.85,-47.54 186.85,-47.54"/>
</g>
<!-- pick_reference&#45;&gt;reference -->
<g id="edge2" class="edge">
<title>pick_reference&#45;&gt;reference</title>
<path fill="none" stroke="black" d="M123.07,-412.41C114.86,-403.66 104.62,-392.76 95.01,-382.52"/>
<polygon fill="black" stroke="black" points="97.57,-380.13 88.17,-375.24 92.46,-384.92 97.57,-380.13"/>
</g>
<!-- pick_reference&#45;&gt;workspaces -->
<g id="edge3" class="edge">
<title>pick_reference&#45;&gt;workspaces</title>
<path fill="none" stroke="black" d="M156.05,-412.41C164.5,-403.65 175.03,-392.72 184.92,-382.47"/>
<polygon fill="black" stroke="black" points="187.19,-385.16 191.61,-375.53 182.15,-380.3 187.19,-385.16"/>
</g>
<!-- determine_flippers -->
<g id="node9" class="node">
<title>determine_flippers</title>
<path fill="lightskyblue" stroke="black" d="M142.35,-184C142.35,-184 28.35,-184 28.35,-184 22.35,-184 16.35,-178 16.35,-172 16.35,-172 16.35,-158 16.35,-158 16.35,-152 22.35,-146 28.35,-146 28.35,-146 142.35,-146 142.35,-146 148.35,-146 154.35,-152 154.35,-158 154.35,-158 154.35,-172 154.35,-172 154.35,-178 148.35,-184 142.35,-184"/>
<text text-anchor="middle" x="85.35" y="-168.8" font-family="Helvetica,sans-Serif" font-size="14.00">Determine flipper</text>
<text text-anchor="middle" x="85.35" y="-153.8" font-family="Helvetica,sans-Serif" font-size="14.00">settings</text>
</g>
<!-- match_binning&#45;&gt;determine_flippers -->
<g id="edge7" class="edge">
<title>match_binning&#45;&gt;determine_flippers</title>
<path fill="none" stroke="black" d="M82.95,-234.6C83.34,-223.4 83.86,-208.56 84.32,-195.55"/>
<polygon fill="black" stroke="black" points="87.81,-195.9 84.66,-185.78 80.81,-195.65 87.81,-195.9"/>
</g>
<!-- determine_flippers&#45;&gt;correction -->
<g id="edge8" class="edge">
<title>determine_flippers&#45;&gt;correction</title>
<path fill="none" stroke="black" d="M110.33,-145.65C122.56,-136.66 137.44,-125.73 150.57,-116.08"/>
<polygon fill="black" stroke="black" points="152.55,-118.97 158.54,-110.23 148.41,-113.33 152.55,-118.97"/>
</g>
<!-- load_efficiencies&#45;&gt;correction -->
<g id="edge10" class="edge">
<title>load_efficiencies&#45;&gt;correction</title>
<path fill="none" stroke="black" d="M280.36,-146.57C263.38,-137.02 242.13,-125.07 223.85,-114.78"/>
<polygon fill="black" stroke="black" points="225.8,-111.86 215.37,-110.01 222.37,-117.96 225.8,-111.86"/>
</g>
</g>
</svg>
