<?xml version="1.0" encoding="UTF-8" standalone="no"?>
<!DOCTYPE svg PUBLIC "-//W3C//DTD SVG 1.1//EN"
 "http://www.w3.org/Graphics/SVG/1.1/DTD/svg11.dtd">
<!-- Generated by graphviz version 11.0.0 (20240519.1550)
 -->
<!-- Title: ReflectometryReductionOne Pages: 1 -->
<svg width="748pt" height="476pt"
 viewBox="0.00 0.00 748.38 476.21" xmlns="http://www.w3.org/2000/svg" xmlns:xlink="http://www.w3.org/1999/xlink">
<g id="graph0" class="graph" transform="scale(1 1) rotate(0) translate(4 472.21)">
<title>ReflectometryReductionOne</title>
<polygon fill="white" stroke="none" points="-4,4 -4,-472.21 744.38,-472.21 744.38,4 -4,4"/>
<!-- inputWS -->
<g id="node1" class="node">
<title>inputWS</title>
<ellipse fill="khaki" stroke="black" cx="90.14" cy="-426.21" rx="90.14" ry="18"/>
<text text-anchor="middle" x="90.14" y="-421.53" font-family="Helvetica,sans-Serif" font-size="14.00">InputWorkspace</text>
</g>
<!-- cropMonWS -->
<g id="node9" class="node">
<title>cropMonWS</title>
<path fill="lightskyblue" stroke="black" d="M236.14,-372.21C236.14,-372.21 136.14,-372.21 136.14,-372.21 130.14,-372.21 124.14,-366.21 124.14,-360.21 124.14,-360.21 124.14,-348.21 124.14,-348.21 124.14,-342.21 130.14,-336.21 136.14,-336.21 136.14,-336.21 236.14,-336.21 236.14,-336.21 242.14,-336.21 248.14,-342.21 248.14,-348.21 248.14,-348.21 248.14,-360.21 248.14,-360.21 248.14,-366.21 242.14,-372.21 236.14,-372.21"/>
<text text-anchor="middle" x="186.14" y="-349.53" font-family="Helvetica,sans-Serif" font-size="14.00">CropWorkspace</text>
</g>
<!-- inputWS&#45;&gt;cropMonWS -->
<g id="edge1" class="edge">
<title>inputWS&#45;&gt;cropMonWS</title>
<path fill="none" stroke="black" d="M112.89,-408.62C124.85,-399.9 139.73,-389.05 152.95,-379.41"/>
<polygon fill="black" stroke="black" points="154.97,-382.27 160.99,-373.55 150.85,-376.61 154.97,-382.27"/>
</g>
<!-- outputWS -->
<g id="node2" class="node">
<title>outputWS</title>
<ellipse fill="khaki" stroke="black" cx="186.14" cy="-18" rx="101.19" ry="18"/>
<text text-anchor="middle" x="186.14" y="-13.32" font-family="Helvetica,sans-Serif" font-size="14.00">MonitorWorkspace</text>
</g>
<!-- monitorIndex -->
<g id="node3" class="node">
<title>monitorIndex</title>
<ellipse fill="khaki" stroke="black" cx="283.14" cy="-426.21" rx="84.88" ry="18"/>
<text text-anchor="middle" x="283.14" y="-421.53" font-family="Helvetica,sans-Serif" font-size="14.00">I0MonitorIndex</text>
</g>
<!-- monitorIndex&#45;&gt;cropMonWS -->
<g id="edge2" class="edge">
<title>monitorIndex&#45;&gt;cropMonWS</title>
<path fill="none" stroke="black" d="M260.15,-408.62C247.95,-399.82 232.74,-388.84 219.29,-379.13"/>
<polygon fill="black" stroke="black" points="221.7,-376.55 211.54,-373.54 217.6,-382.23 221.7,-376.55"/>
</g>
<!-- monIntWavMax -->
<g id="node4" class="node">
<title>monIntWavMax</title>
<ellipse fill="khaki" stroke="black" cx="404.14" cy="-174.05" rx="106.24" ry="30.05"/>
<text text-anchor="middle" x="404.14" y="-178" font-family="Helvetica,sans-Serif" font-size="14.00">MonitorIntegration&#45;</text>
<text text-anchor="middle" x="404.14" y="-160.75" font-family="Helvetica,sans-Serif" font-size="14.00">WavelengthMax</text>
</g>
<!-- intMon -->
<g id="node11" class="node">
<title>intMon</title>
<path fill="lightskyblue" stroke="black" d="M220.39,-108C220.39,-108 151.89,-108 151.89,-108 145.89,-108 139.89,-102 139.89,-96 139.89,-96 139.89,-84 139.89,-84 139.89,-78 145.89,-72 151.89,-72 151.89,-72 220.39,-72 220.39,-72 226.39,-72 232.39,-78 232.39,-84 232.39,-84 232.39,-96 232.39,-96 232.39,-102 226.39,-108 220.39,-108"/>
<text text-anchor="middle" x="186.14" y="-85.33" font-family="Helvetica,sans-Serif" font-size="14.00">Integration</text>
</g>
<!-- monIntWavMax&#45;&gt;intMon -->
<g id="edge9" class="edge">
<title>monIntWavMax&#45;&gt;intMon</title>
<path fill="none" stroke="black" d="M341.38,-149.43C310.46,-137.79 273.45,-123.86 243.32,-112.52"/>
<polygon fill="black" stroke="black" points="244.56,-109.25 233.97,-109 242.1,-115.8 244.56,-109.25"/>
</g>
<!-- monIntWavMin -->
<g id="node5" class="node">
<title>monIntWavMin</title>
<ellipse fill="khaki" stroke="black" cx="634.14" cy="-174.05" rx="106.24" ry="30.05"/>
<text text-anchor="middle" x="634.14" y="-178" font-family="Helvetica,sans-Serif" font-size="14.00">MonitorIntegration&#45;</text>
<text text-anchor="middle" x="634.14" y="-160.75" font-family="Helvetica,sans-Serif" font-size="14.00">WavelengthMin</text>
</g>
<!-- monIntWavMin&#45;&gt;intMon -->
<g id="edge8" class="edge">
<title>monIntWavMin&#45;&gt;intMon</title>
<path fill="none" stroke="black" d="M545.9,-156.89C456.43,-140.5 320.56,-115.62 243.96,-101.59"/>
<polygon fill="black" stroke="black" points="244.6,-98.15 234.13,-99.79 243.34,-105.03 244.6,-98.15"/>
</g>
<!-- monBackWavMin -->
<g id="node6" class="node">
<title>monBackWavMin</title>
<ellipse fill="khaki" stroke="black" cx="386.14" cy="-270.16" rx="111.02" ry="30.05"/>
<text text-anchor="middle" x="386.14" y="-274.11" font-family="Helvetica,sans-Serif" font-size="14.00">MonitorBackground&#45;</text>
<text text-anchor="middle" x="386.14" y="-256.86" font-family="Helvetica,sans-Serif" font-size="14.00">WavelengthMin</text>
</g>
<!-- calcFlatBg -->
<g id="node10" class="node">
<title>calcFlatBg</title>
<path fill="lightskyblue" stroke="black" d="M268.39,-192.05C268.39,-192.05 103.89,-192.05 103.89,-192.05 97.89,-192.05 91.89,-186.05 91.89,-180.05 91.89,-180.05 91.89,-168.05 91.89,-168.05 91.89,-162.05 97.89,-156.05 103.89,-156.05 103.89,-156.05 268.39,-156.05 268.39,-156.05 274.39,-156.05 280.39,-162.05 280.39,-168.05 280.39,-168.05 280.39,-180.05 280.39,-180.05 280.39,-186.05 274.39,-192.05 268.39,-192.05"/>
<text text-anchor="middle" x="186.14" y="-169.38" font-family="Helvetica,sans-Serif" font-size="14.00">CalculateFlatBackground</text>
</g>
<!-- monBackWavMin&#45;&gt;calcFlatBg -->
<g id="edge5" class="edge">
<title>monBackWavMin&#45;&gt;calcFlatBg</title>
<path fill="none" stroke="black" d="M331.75,-243.57C300.92,-229.06 262.72,-211.08 233.18,-197.19"/>
<polygon fill="black" stroke="black" points="235.03,-194.19 224.49,-193.1 232.05,-200.52 235.03,-194.19"/>
</g>
<!-- monBackWavMax -->
<g id="node7" class="node">
<title>monBackWavMax</title>
<ellipse fill="khaki" stroke="black" cx="626.14" cy="-270.16" rx="111.02" ry="30.05"/>
<text text-anchor="middle" x="626.14" y="-274.11" font-family="Helvetica,sans-Serif" font-size="14.00">MonitorBackground&#45;</text>
<text text-anchor="middle" x="626.14" y="-256.86" font-family="Helvetica,sans-Serif" font-size="14.00">WavelengthMax</text>
</g>
<!-- monBackWavMax&#45;&gt;calcFlatBg -->
<g id="edge6" class="edge">
<title>monBackWavMax&#45;&gt;calcFlatBg</title>
<path fill="none" stroke="black" d="M540.26,-250.79C465.05,-234.7 356.03,-211.39 278.86,-194.88"/>
<polygon fill="black" stroke="black" points="279.71,-191.48 269.2,-192.82 278.24,-198.33 279.71,-191.48"/>
</g>
<!-- convertMon -->
<g id="node8" class="node">
<title>convertMon</title>
<path fill="lightskyblue" stroke="black" d="M245.52,-291.41C245.52,-291.41 126.77,-291.41 126.77,-291.41 120.77,-291.41 114.77,-285.41 114.77,-279.41 114.77,-279.41 114.77,-260.91 114.77,-260.91 114.77,-254.91 120.77,-248.91 126.77,-248.91 126.77,-248.91 245.52,-248.91 245.52,-248.91 251.52,-248.91 257.52,-254.91 257.52,-260.91 257.52,-260.91 257.52,-279.41 257.52,-279.41 257.52,-285.41 251.52,-291.41 245.52,-291.41"/>
<text text-anchor="middle" x="186.14" y="-274.11" font-family="Helvetica,sans-Serif" font-size="14.00">ConvertUnits</text>
<text text-anchor="middle" x="186.14" y="-256.86" font-family="Helvetica,sans-Serif" font-size="14.00">(AlignBins = True)</text>
</g>
<!-- convertMon&#45;&gt;calcFlatBg -->
<g id="edge4" class="edge">
<title>convertMon&#45;&gt;calcFlatBg</title>
<path fill="none" stroke="black" d="M186.14,-248.74C186.14,-235.56 186.14,-218.23 186.14,-203.69"/>
<polygon fill="black" stroke="black" points="189.64,-203.79 186.14,-193.79 182.64,-203.79 189.64,-203.79"/>
</g>
<!-- cropMonWS&#45;&gt;convertMon -->
<g id="edge3" class="edge">
<title>cropMonWS&#45;&gt;convertMon</title>
<path fill="none" stroke="black" d="M186.14,-335.81C186.14,-326.24 186.14,-314.07 186.14,-302.88"/>
<polygon fill="black" stroke="black" points="189.64,-303.24 186.14,-293.24 182.64,-303.24 189.64,-303.24"/>
</g>
<!-- calcFlatBg&#45;&gt;intMon -->
<g id="edge7" class="edge">
<title>calcFlatBg&#45;&gt;intMon</title>
<path fill="none" stroke="black" d="M186.14,-155.65C186.14,-145.21 186.14,-131.67 186.14,-119.68"/>
<polygon fill="black" stroke="black" points="189.64,-119.89 186.14,-109.89 182.64,-119.89 189.64,-119.89"/>
</g>
<!-- intMon&#45;&gt;outputWS -->
<g id="edge10" class="edge">
<title>intMon&#45;&gt;outputWS</title>
<path fill="none" stroke="black" d="M186.14,-71.7C186.14,-64.41 186.14,-55.73 186.14,-47.54"/>
<polygon fill="black" stroke="black" points="189.64,-47.62 186.14,-37.62 182.64,-47.62 189.64,-47.62"/>
</g>
</g>
</svg>
