<?xml version="1.0" encoding="UTF-8" standalone="no"?>
<!DOCTYPE svg PUBLIC "-//W3C//DTD SVG 1.1//EN"
 "http://www.w3.org/Graphics/SVG/1.1/DTD/svg11.dtd">
<!-- Generated by graphviz version 7.0.5 (20221231.0122)
 -->
<!-- Title: ReflectometryReductionOne Pages: 1 -->
<svg width="351pt" height="614pt"
 viewBox="0.00 0.00 351.44 614.00" xmlns="http://www.w3.org/2000/svg" xmlns:xlink="http://www.w3.org/1999/xlink">
<g id="graph0" class="graph" transform="scale(1 1) rotate(0) translate(4 610)">
<title>ReflectometryReductionOne</title>
<polygon fill="white" stroke="none" points="-4,4 -4,-610 347.44,-610 347.44,4 -4,4"/>
<!-- inputWS -->
<g id="node1" class="node">
<title>inputWS</title>
<ellipse fill="khaki" stroke="black" cx="148.94" cy="-564" rx="83.69" ry="18"/>
<text text-anchor="middle" x="148.94" y="-560.3" font-family="Helvetica,sans-Serif" font-size="14.00">InputWorkspace</text>
</g>
<!-- checkSumDone -->
<g id="node4" class="node">
<title>checkSumDone</title>
<polygon fill="limegreen" stroke="black" points="148.94,-509 6.5,-491 148.94,-473 291.38,-491 148.94,-509"/>
<text text-anchor="middle" x="148.94" y="-487.3" font-family="Helvetica,sans-Serif" font-size="14.00">Reduction required?</text>
</g>
<!-- inputWS&#45;&gt;checkSumDone -->
<g id="edge1" class="edge">
<title>inputWS&#45;&gt;checkSumDone</title>
<path fill="none" stroke="black" d="M148.94,-545.81C148.94,-538.23 148.94,-529.1 148.94,-520.54"/>
<polygon fill="black" stroke="black" points="152.44,-520.54 148.94,-510.54 145.44,-520.54 152.44,-520.54"/>
</g>
<!-- outputWSWL -->
<g id="node2" class="node">
<title>outputWSWL</title>
<ellipse fill="khaki" stroke="black" cx="144.94" cy="-166" rx="144.87" ry="18"/>
<text text-anchor="middle" x="144.94" y="-162.3" font-family="Helvetica,sans-Serif" font-size="14.00">OutputWorkspaceWavelength</text>
</g>
<!-- convertMom -->
<g id="node8" class="node">
<title>convertMom</title>
<polygon fill="lightseagreen" stroke="black" points="231.94,-111 57.94,-111 57.94,-73 231.94,-73 231.94,-111"/>
<text text-anchor="middle" x="144.94" y="-95.8" font-family="Helvetica,sans-Serif" font-size="14.00">Convert to momentum</text>
<text text-anchor="middle" x="144.94" y="-80.8" font-family="Helvetica,sans-Serif" font-size="14.00">transfer</text>
</g>
<!-- outputWSWL&#45;&gt;convertMom -->
<g id="edge7" class="edge">
<title>outputWSWL&#45;&gt;convertMom</title>
<path fill="none" stroke="black" d="M144.94,-147.57C144.94,-140.1 144.94,-131.17 144.94,-122.71"/>
<polygon fill="black" stroke="black" points="148.44,-122.79 144.94,-112.79 141.44,-122.79 148.44,-122.79"/>
</g>
<!-- outputWSFinal -->
<g id="node3" class="node">
<title>outputWSFinal</title>
<ellipse fill="khaki" stroke="black" cx="144.94" cy="-18" rx="91.78" ry="18"/>
<text text-anchor="middle" x="144.94" y="-14.3" font-family="Helvetica,sans-Serif" font-size="14.00">OutputWorkspace</text>
</g>
<!-- convertUnits -->
<g id="node5" class="node">
<title>convertUnits</title>
<polygon fill="lightseagreen" stroke="black" points="343.44,-422 170.44,-422 170.44,-369 343.44,-369 343.44,-422"/>
<text text-anchor="middle" x="256.94" y="-406.8" font-family="Helvetica,sans-Serif" font-size="14.00">Convert to λ</text>
<text text-anchor="middle" x="256.94" y="-391.8" font-family="Helvetica,sans-Serif" font-size="14.00">Sum in λ</text>
<text text-anchor="middle" x="256.94" y="-376.8" font-family="Helvetica,sans-Serif" font-size="14.00">Normalize by monitors</text>
</g>
<!-- checkSumDone&#45;&gt;convertUnits -->
<g id="edge3" class="edge">
<title>checkSumDone&#45;&gt;convertUnits</title>
<path fill="none" stroke="black" d="M166.29,-474.98C180.33,-462.82 200.63,-445.25 218.46,-429.81"/>
<polygon fill="black" stroke="black" points="220.56,-432.62 225.83,-423.43 215.98,-427.33 220.56,-432.62"/>
<text text-anchor="middle" x="217.44" y="-443.8" font-family="Helvetica,sans-Serif" font-size="14.00">Yes</text>
</g>
<!-- applyCorrTrans -->
<g id="node6" class="node">
<title>applyCorrTrans</title>
<polygon fill="lightseagreen" stroke="black" points="219.94,-332 69.94,-332 69.94,-294 219.94,-294 219.94,-332"/>
<text text-anchor="middle" x="144.94" y="-316.8" font-family="Helvetica,sans-Serif" font-size="14.00">Apply transmission</text>
<text text-anchor="middle" x="144.94" y="-301.8" font-family="Helvetica,sans-Serif" font-size="14.00"> corrections</text>
</g>
<!-- checkSumDone&#45;&gt;applyCorrTrans -->
<g id="edge2" class="edge">
<title>checkSumDone&#45;&gt;applyCorrTrans</title>
<path fill="none" stroke="black" d="M147.02,-472.98C145.57,-459.24 143.7,-439.4 142.94,-422 141.9,-398.47 142.51,-392.55 142.94,-369 143.09,-360.78 143.36,-351.88 143.66,-343.68"/>
<polygon fill="black" stroke="black" points="147.15,-343.97 144.04,-333.84 140.16,-343.7 147.15,-343.97"/>
<text text-anchor="middle" x="152.44" y="-391.8" font-family="Helvetica,sans-Serif" font-size="14.00">No</text>
</g>
<!-- convertUnits&#45;&gt;applyCorrTrans -->
<g id="edge4" class="edge">
<title>convertUnits&#45;&gt;applyCorrTrans</title>
<path fill="none" stroke="black" d="M220.88,-368.59C207.71,-359.12 192.84,-348.43 179.78,-339.04"/>
<polygon fill="black" stroke="black" points="182.02,-336.35 171.86,-333.35 177.94,-342.03 182.02,-336.35"/>
</g>
<!-- sumInQ -->
<g id="node7" class="node">
<title>sumInQ</title>
<polygon fill="lightseagreen" stroke="black" points="185.44,-257 104.44,-257 104.44,-221 185.44,-221 185.44,-257"/>
<text text-anchor="middle" x="144.94" y="-235.3" font-family="Helvetica,sans-Serif" font-size="14.00">Sum in Q</text>
</g>
<!-- applyCorrTrans&#45;&gt;sumInQ -->
<g id="edge5" class="edge">
<title>applyCorrTrans&#45;&gt;sumInQ</title>
<path fill="none" stroke="black" d="M144.94,-293.83C144.94,-286.24 144.94,-277.24 144.94,-268.79"/>
<polygon fill="black" stroke="black" points="148.44,-268.93 144.94,-258.93 141.44,-268.93 148.44,-268.93"/>
</g>
<!-- sumInQ&#45;&gt;outputWSWL -->
<g id="edge6" class="edge">
<title>sumInQ&#45;&gt;outputWSWL</title>
<path fill="none" stroke="black" d="M144.94,-220.81C144.94,-213.23 144.94,-204.1 144.94,-195.54"/>
<polygon fill="black" stroke="black" points="148.44,-195.54 144.94,-185.54 141.44,-195.54 148.44,-195.54"/>
</g>
<!-- convertMom&#45;&gt;outputWSFinal -->
<g id="edge8" class="edge">
<title>convertMom&#45;&gt;outputWSFinal</title>
<path fill="none" stroke="black" d="M144.94,-72.83C144.94,-65.24 144.94,-56.24 144.94,-47.79"/>
<polygon fill="black" stroke="black" points="148.44,-47.93 144.94,-37.93 141.44,-47.93 148.44,-47.93"/>
</g>
</g>
</svg>
