<?xml version="1.0" encoding="UTF-8" standalone="no"?>
<!DOCTYPE svg PUBLIC "-//W3C//DTD SVG 1.1//EN"
 "http://www.w3.org/Graphics/SVG/1.1/DTD/svg11.dtd">
<!-- Generated by graphviz version 13.1.2 (20250809.0930)
 -->
<!-- Title: ResNorm2 Pages: 1 -->
<svg width="976pt" height="613pt"
 viewBox="0.00 0.00 976.00 613.00" xmlns="http://www.w3.org/2000/svg" xmlns:xlink="http://www.w3.org/1999/xlink">
<g id="graph0" class="graph" transform="scale(1 1) rotate(0) translate(4 608.75)">
<title>ResNorm2</title>
<polygon fill="white" stroke="none" points="-4,4 -4,-608.75 972.07,-608.75 972.07,4 -4,4"/>
<text xml:space="preserve" text-anchor="middle" x="484.03" y="-587.45" font-family="Helvetica,sans-Serif" font-size="14.00">ResNorm v2 Flowchart</text>
<!-- ExtractStretch -->
<g id="node1" class="node">
<title>ExtractStretch</title>
<polygon fill="lightseagreen" stroke="black" points="362.53,-255 117.03,-255 117.03,-219 362.53,-219 362.53,-255"/>
<text xml:space="preserve" text-anchor="middle" x="239.78" y="-232.32" font-family="Helvetica,sans-Serif" font-size="14.00">Extract stretch factors (XScaling)</text>
</g>
<!-- CreateWorkspace_Stretch -->
<g id="node14" class="node">
<title>CreateWorkspace_Stretch</title>
<path fill="lightskyblue" stroke="black" d="M374.16,-182C374.16,-182 261.41,-182 261.41,-182 255.41,-182 249.41,-176 249.41,-170 249.41,-170 249.41,-158 249.41,-158 249.41,-152 255.41,-146 261.41,-146 261.41,-146 374.16,-146 374.16,-146 380.16,-146 386.16,-152 386.16,-158 386.16,-158 386.16,-170 386.16,-170 386.16,-176 380.16,-182 374.16,-182"/>
<text xml:space="preserve" text-anchor="middle" x="317.78" y="-159.32" font-family="Helvetica,sans-Serif" font-size="14.00">CreateWorkspace</text>
</g>
<!-- ExtractStretch&#45;&gt;CreateWorkspace_Stretch -->
<g id="edge12" class="edge">
<title>ExtractStretch&#45;&gt;CreateWorkspace_Stretch</title>
<path fill="none" stroke="black" d="M258.66,-218.81C268.17,-210.16 279.88,-199.5 290.36,-189.96"/>
<polygon fill="black" stroke="black" points="292.65,-192.61 297.69,-183.29 287.93,-187.44 292.65,-192.61"/>
</g>
<!-- ExtractScaling -->
<g id="node2" class="node">
<title>ExtractScaling</title>
<polygon fill="lightseagreen" stroke="black" points="617.03,-255 380.53,-255 380.53,-219 617.03,-219 617.03,-255"/>
<text xml:space="preserve" text-anchor="middle" x="498.78" y="-232.32" font-family="Helvetica,sans-Serif" font-size="14.00">Extract scaling factors (Scaling)</text>
</g>
<!-- CreateWorkspace_Scaling -->
<g id="node15" class="node">
<title>CreateWorkspace_Scaling</title>
<path fill="lightskyblue" stroke="black" d="M542.16,-182C542.16,-182 429.41,-182 429.41,-182 423.41,-182 417.41,-176 417.41,-170 417.41,-170 417.41,-158 417.41,-158 417.41,-152 423.41,-146 429.41,-146 429.41,-146 542.16,-146 542.16,-146 548.16,-146 554.16,-152 554.16,-158 554.16,-158 554.16,-170 554.16,-170 554.16,-176 548.16,-182 542.16,-182"/>
<text xml:space="preserve" text-anchor="middle" x="485.78" y="-159.32" font-family="Helvetica,sans-Serif" font-size="14.00">CreateWorkspace</text>
</g>
<!-- ExtractScaling&#45;&gt;CreateWorkspace_Scaling -->
<g id="edge15" class="edge">
<title>ExtractScaling&#45;&gt;CreateWorkspace_Scaling</title>
<path fill="none" stroke="black" d="M495.64,-218.81C494.23,-211.14 492.54,-201.89 490.95,-193.24"/>
<polygon fill="black" stroke="black" points="494.42,-192.72 489.17,-183.52 487.53,-193.98 494.42,-192.72"/>
</g>
<!-- ResolutionWorkspace -->
<g id="node3" class="node">
<title>ResolutionWorkspace</title>
<ellipse fill="khaki" stroke="black" cx="474.78" cy="-561.5" rx="114.87" ry="18"/>
<text xml:space="preserve" text-anchor="middle" x="474.78" y="-556.83" font-family="Helvetica,sans-Serif" font-size="14.00">ResolutionWorkspace</text>
</g>
<!-- NormaliseToUnity -->
<g id="node9" class="node">
<title>NormaliseToUnity</title>
<path fill="lightskyblue" stroke="black" d="M568.78,-490.25C568.78,-490.25 456.78,-490.25 456.78,-490.25 450.78,-490.25 444.78,-484.25 444.78,-478.25 444.78,-478.25 444.78,-466.25 444.78,-466.25 444.78,-460.25 450.78,-454.25 456.78,-454.25 456.78,-454.25 568.78,-454.25 568.78,-454.25 574.78,-454.25 580.78,-460.25 580.78,-466.25 580.78,-466.25 580.78,-478.25 580.78,-478.25 580.78,-484.25 574.78,-490.25 568.78,-490.25"/>
<text xml:space="preserve" text-anchor="middle" x="512.78" y="-467.57" font-family="Helvetica,sans-Serif" font-size="14.00">NormaliseToUnity</text>
</g>
<!-- ResolutionWorkspace&#45;&gt;NormaliseToUnity -->
<g id="edge3" class="edge">
<title>ResolutionWorkspace&#45;&gt;NormaliseToUnity</title>
<path fill="none" stroke="black" d="M482.29,-543.26C487.55,-531.19 494.68,-514.81 500.73,-500.92"/>
<polygon fill="black" stroke="black" points="503.9,-502.41 504.69,-491.84 497.48,-499.61 503.9,-502.41"/>
</g>
<!-- VanadiumWorkspace -->
<g id="node4" class="node">
<title>VanadiumWorkspace</title>
<ellipse fill="khaki" stroke="black" cx="720.78" cy="-561.5" rx="112.76" ry="18"/>
<text xml:space="preserve" text-anchor="middle" x="720.78" y="-556.83" font-family="Helvetica,sans-Serif" font-size="14.00">VanadiumWorkspace</text>
</g>
<!-- ConvertSpectrumAxis -->
<g id="node13" class="node">
<title>ConvertSpectrumAxis</title>
<path fill="lightskyblue" stroke="black" d="M792.53,-490.25C792.53,-490.25 649.03,-490.25 649.03,-490.25 643.03,-490.25 637.03,-484.25 637.03,-478.25 637.03,-478.25 637.03,-466.25 637.03,-466.25 637.03,-460.25 643.03,-454.25 649.03,-454.25 649.03,-454.25 792.53,-454.25 792.53,-454.25 798.53,-454.25 804.53,-460.25 804.53,-466.25 804.53,-466.25 804.53,-478.25 804.53,-478.25 804.53,-484.25 798.53,-490.25 792.53,-490.25"/>
<text xml:space="preserve" text-anchor="middle" x="720.78" y="-467.57" font-family="Helvetica,sans-Serif" font-size="14.00">ConvertSpectrumAxis</text>
</g>
<!-- VanadiumWorkspace&#45;&gt;ConvertSpectrumAxis -->
<g id="edge1" class="edge">
<title>VanadiumWorkspace&#45;&gt;ConvertSpectrumAxis</title>
<path fill="none" stroke="black" d="M720.78,-543.26C720.78,-531.43 720.78,-515.45 720.78,-501.75"/>
<polygon fill="black" stroke="black" points="724.28,-501.97 720.78,-491.97 717.28,-501.97 724.28,-501.97"/>
</g>
<!-- EnergyMin -->
<g id="node5" class="node">
<title>EnergyMin</title>
<ellipse fill="khaki" stroke="black" cx="62.78" cy="-399.25" rx="62.78" ry="18"/>
<text xml:space="preserve" text-anchor="middle" x="62.78" y="-394.57" font-family="Helvetica,sans-Serif" font-size="14.00">EnergyMin</text>
</g>
<!-- PlotPeakByLogValue -->
<g id="node12" class="node">
<title>PlotPeakByLogValue</title>
<path fill="lightskyblue" stroke="black" d="M434.16,-344.25C434.16,-344.25 303.41,-344.25 303.41,-344.25 297.41,-344.25 291.41,-338.25 291.41,-332.25 291.41,-332.25 291.41,-320.25 291.41,-320.25 291.41,-314.25 297.41,-308.25 303.41,-308.25 303.41,-308.25 434.16,-308.25 434.16,-308.25 440.16,-308.25 446.16,-314.25 446.16,-320.25 446.16,-320.25 446.16,-332.25 446.16,-332.25 446.16,-338.25 440.16,-344.25 434.16,-344.25"/>
<text xml:space="preserve" text-anchor="middle" x="368.78" y="-321.57" font-family="Helvetica,sans-Serif" font-size="14.00">PlotPeakByLogValue</text>
</g>
<!-- EnergyMin&#45;&gt;PlotPeakByLogValue -->
<g id="edge8" class="edge">
<title>EnergyMin&#45;&gt;PlotPeakByLogValue</title>
<path fill="none" stroke="black" d="M110.02,-387.06C118.28,-385.12 126.78,-383.12 134.78,-381.25 183.35,-369.91 237.61,-357.38 281.65,-347.25"/>
<polygon fill="black" stroke="black" points="282.18,-350.72 291.14,-345.06 280.61,-343.89 282.18,-350.72"/>
</g>
<!-- EnergyMax -->
<g id="node6" class="node">
<title>EnergyMax</title>
<ellipse fill="khaki" stroke="black" cx="208.78" cy="-399.25" rx="65.41" ry="18"/>
<text xml:space="preserve" text-anchor="middle" x="208.78" y="-394.57" font-family="Helvetica,sans-Serif" font-size="14.00">EnergyMax</text>
</g>
<!-- EnergyMax&#45;&gt;PlotPeakByLogValue -->
<g id="edge9" class="edge">
<title>EnergyMax&#45;&gt;PlotPeakByLogValue</title>
<path fill="none" stroke="black" d="M242.32,-383.37C264.53,-373.51 294.05,-360.41 318.99,-349.35"/>
<polygon fill="black" stroke="black" points="320.25,-352.61 327.97,-345.36 317.41,-346.22 320.25,-352.61"/>
</g>
<!-- CreateOutput -->
<g id="node7" class="node">
<title>CreateOutput</title>
<ellipse fill="khaki" stroke="black" cx="368.78" cy="-399.25" rx="76.99" ry="18"/>
<text xml:space="preserve" text-anchor="middle" x="368.78" y="-394.57" font-family="Helvetica,sans-Serif" font-size="14.00">CreateOutput</text>
</g>
<!-- CreateOutput&#45;&gt;PlotPeakByLogValue -->
<g id="edge10" class="edge">
<title>CreateOutput&#45;&gt;PlotPeakByLogValue</title>
<path fill="none" stroke="black" d="M368.78,-381.06C368.78,-373.48 368.78,-364.35 368.78,-355.79"/>
<polygon fill="black" stroke="black" points="372.28,-355.79 368.78,-345.79 365.28,-355.79 372.28,-355.79"/>
</g>
<!-- OutputWorkspace -->
<g id="node8" class="node">
<title>OutputWorkspace</title>
<ellipse fill="khaki" stroke="black" cx="394.78" cy="-18" rx="98.56" ry="18"/>
<text xml:space="preserve" text-anchor="middle" x="394.78" y="-13.32" font-family="Helvetica,sans-Serif" font-size="14.00">OutputWorkspace</text>
</g>
<!-- AppendSpectra -->
<g id="node10" class="node">
<title>AppendSpectra</title>
<path fill="lightskyblue" stroke="black" d="M575.41,-417.25C575.41,-417.25 476.16,-417.25 476.16,-417.25 470.16,-417.25 464.16,-411.25 464.16,-405.25 464.16,-405.25 464.16,-393.25 464.16,-393.25 464.16,-387.25 470.16,-381.25 476.16,-381.25 476.16,-381.25 575.41,-381.25 575.41,-381.25 581.41,-381.25 587.41,-387.25 587.41,-393.25 587.41,-393.25 587.41,-405.25 587.41,-405.25 587.41,-411.25 581.41,-417.25 575.41,-417.25"/>
<text xml:space="preserve" text-anchor="middle" x="525.78" y="-394.57" font-family="Helvetica,sans-Serif" font-size="14.00">AppendSpectra</text>
</g>
<!-- NormaliseToUnity&#45;&gt;AppendSpectra -->
<g id="edge4" class="edge">
<title>NormaliseToUnity&#45;&gt;AppendSpectra</title>
<path fill="none" stroke="black" d="M515.93,-454.06C517.33,-446.39 519.03,-437.14 520.61,-428.49"/>
<polygon fill="black" stroke="black" points="524.03,-429.23 522.39,-418.77 517.15,-427.97 524.03,-429.23"/>
</g>
<!-- AppendSpectra&#45;&gt;PlotPeakByLogValue -->
<g id="edge5" class="edge">
<title>AppendSpectra&#45;&gt;PlotPeakByLogValue</title>
<path fill="none" stroke="black" d="M487.38,-380.88C466.37,-371.38 440.14,-359.52 417.68,-349.36"/>
<polygon fill="black" stroke="black" points="419.27,-346.24 408.72,-345.31 416.39,-352.62 419.27,-346.24"/>
</g>
<!-- GroupWorkspaces -->
<g id="node11" class="node">
<title>GroupWorkspaces</title>
<path fill="lightskyblue" stroke="black" d="M453.41,-109C453.41,-109 336.16,-109 336.16,-109 330.16,-109 324.16,-103 324.16,-97 324.16,-97 324.16,-85 324.16,-85 324.16,-79 330.16,-73 336.16,-73 336.16,-73 453.41,-73 453.41,-73 459.41,-73 465.41,-79 465.41,-85 465.41,-85 465.41,-97 465.41,-97 465.41,-103 459.41,-109 453.41,-109"/>
<text xml:space="preserve" text-anchor="middle" x="394.78" y="-86.33" font-family="Helvetica,sans-Serif" font-size="14.00">GroupWorkspaces</text>
</g>
<!-- GroupWorkspaces&#45;&gt;OutputWorkspace -->
<g id="edge17" class="edge">
<title>GroupWorkspaces&#45;&gt;OutputWorkspace</title>
<path fill="none" stroke="black" d="M394.78,-72.81C394.78,-65.23 394.78,-56.1 394.78,-47.54"/>
<polygon fill="black" stroke="black" points="398.28,-47.54 394.78,-37.54 391.28,-47.54 398.28,-47.54"/>
</g>
<!-- PlotPeakByLogValue&#45;&gt;ExtractStretch -->
<g id="edge11" class="edge">
<title>PlotPeakByLogValue&#45;&gt;ExtractStretch</title>
<path fill="none" stroke="black" d="M342.99,-307.8C323.48,-294.61 296.47,-276.34 274.97,-261.8"/>
<polygon fill="black" stroke="black" points="277.03,-258.97 266.79,-256.26 273.11,-264.77 277.03,-258.97"/>
<text xml:space="preserve" text-anchor="middle" x="355.21" y="-276.95" font-family="Helvetica,sans-Serif" font-size="14.00">Parameters</text>
</g>
<!-- PlotPeakByLogValue&#45;&gt;ExtractScaling -->
<g id="edge14" class="edge">
<title>PlotPeakByLogValue&#45;&gt;ExtractScaling</title>
<path fill="none" stroke="black" d="M394.78,-307.8C414.44,-294.61 441.66,-276.34 463.32,-261.8"/>
<polygon fill="black" stroke="black" points="465.22,-264.74 471.58,-256.26 461.32,-258.93 465.22,-264.74"/>
<text xml:space="preserve" text-anchor="middle" x="484.8" y="-276.95" font-family="Helvetica,sans-Serif" font-size="14.00">Parameters</text>
</g>
<!-- FitFunction -->
<g id="node16" class="node">
<title>FitFunction</title>
<polygon fill="grey" stroke="black" points="765.95,-417.25 643.19,-417.25 611.62,-381.25 734.37,-381.25 765.95,-417.25"/>
<text xml:space="preserve" text-anchor="middle" x="688.78" y="-393.07" font-family="Times,serif" font-size="14.00">Fit Function</text>
</g>
<!-- ConvertSpectrumAxis&#45;&gt;FitFunction -->
<g id="edge6" class="edge">
<title>ConvertSpectrumAxis&#45;&gt;FitFunction</title>
<path fill="none" stroke="black" d="M713.04,-454.06C709.46,-446.13 705.12,-436.51 701.11,-427.61"/>
<polygon fill="black" stroke="black" points="704.38,-426.34 697.08,-418.66 698,-429.21 704.38,-426.34"/>
</g>
<!-- CreateWorkspace_Stretch&#45;&gt;GroupWorkspaces -->
<g id="edge13" class="edge">
<title>CreateWorkspace_Stretch&#45;&gt;GroupWorkspaces</title>
<path fill="none" stroke="black" d="M336.42,-145.81C345.81,-137.16 357.37,-126.5 367.72,-116.96"/>
<polygon fill="black" stroke="black" points="369.96,-119.65 374.93,-110.3 365.21,-114.51 369.96,-119.65"/>
</g>
<!-- CreateWorkspace_Scaling&#45;&gt;GroupWorkspaces -->
<g id="edge16" class="edge">
<title>CreateWorkspace_Scaling&#45;&gt;GroupWorkspaces</title>
<path fill="none" stroke="black" d="M463.75,-145.81C452.33,-136.9 438.18,-125.86 425.67,-116.1"/>
<polygon fill="black" stroke="black" points="428.15,-113.6 418.12,-110.21 423.85,-119.12 428.15,-113.6"/>
</g>
<!-- FitFunction&#45;&gt;PlotPeakByLogValue -->
<g id="edge7" class="edge">
<title>FitFunction&#45;&gt;PlotPeakByLogValue</title>
<path fill="none" stroke="black" d="M610.91,-380.97C564.57,-370.69 505.62,-357.61 457.49,-346.93"/>
<polygon fill="black" stroke="black" points="458.45,-343.56 447.93,-344.81 456.93,-350.39 458.45,-343.56"/>
</g>
<!-- ConvertSpectrumAxis_Target -->
<g id="node17" class="node">
<title>ConvertSpectrumAxis_Target</title>
<polygon fill="grey" stroke="black" points="968.07,-579.5 875.35,-579.5 851.5,-543.5 944.21,-543.5 968.07,-579.5"/>
<text xml:space="preserve" text-anchor="middle" x="909.78" y="-555.33" font-family="Times,serif" font-size="14.00">ElasticQ</text>
</g>
<!-- ConvertSpectrumAxis_Target&#45;&gt;ConvertSpectrumAxis -->
<g id="edge2" class="edge">
<title>ConvertSpectrumAxis_Target&#45;&gt;ConvertSpectrumAxis</title>
<path fill="none" stroke="black" d="M871.99,-543.05C842.25,-529.32 800.61,-510.1 768.55,-495.3"/>
<polygon fill="black" stroke="black" points="770.43,-492.31 759.88,-491.3 767.5,-498.67 770.43,-492.31"/>
<text xml:space="preserve" text-anchor="middle" x="853.21" y="-512.2" font-family="Helvetica,sans-Serif" font-size="14.00">Target</text>
</g>
</g>
</svg>
