<?xml version="1.0" encoding="UTF-8" standalone="no"?>
<!DOCTYPE svg PUBLIC "-//W3C//DTD SVG 1.1//EN"
 "http://www.w3.org/Graphics/SVG/1.1/DTD/svg11.dtd">
<!-- Generated by graphviz version 13.1.1 (20250720.1534)
 -->
<!-- Title: SansStitch Pages: 1 -->
<svg width="2062pt" height="1010pt"
 viewBox="0.00 0.00 2062.00 1010.00" xmlns="http://www.w3.org/2000/svg" xmlns:xlink="http://www.w3.org/1999/xlink">
<g id="graph0" class="graph" transform="scale(1 1) rotate(0) translate(4 1005.5)">
<title>SansStitch</title>
<polygon fill="white" stroke="none" points="-4,4 -4,-1005.5 2057.66,-1005.5 2057.66,4 -4,4"/>
<text xml:space="preserve" text-anchor="middle" x="1026.83" y="-984.2" font-family="Helvetica,sans-Serif" font-size="14.00">SANSStitch Flowchart</text>
<g id="clust5" class="cluster">
<title>cluster</title>
<polygon fill="none" stroke="blue" points="8,-462.5 8,-824 721,-824 721,-462.5 8,-462.5"/>
<text xml:space="preserve" text-anchor="middle" x="364.5" y="-806.7" font-family="Helvetica,sans-Serif" font-size="14.00">Can Processing</text>
</g>
<!-- hABCountsSample -->
<g id="node1" class="node">
<title>hABCountsSample</title>
<ellipse fill="khaki" stroke="black" cx="1199" cy="-674.5" rx="102.24" ry="18"/>
<text xml:space="preserve" text-anchor="middle" x="1199" y="-669.83" font-family="Helvetica,sans-Serif" font-size="14.00">HABCountsSample</text>
</g>
<!-- divideHABSample -->
<g id="node18" class="node">
<title>divideHABSample</title>
<path fill="lightskyblue" stroke="black" d="M1136.38,-619.5C1136.38,-619.5 999.62,-619.5 999.62,-619.5 993.62,-619.5 987.62,-613.5 987.62,-607.5 987.62,-607.5 987.62,-571.75 987.62,-571.75 987.62,-565.75 993.62,-559.75 999.62,-559.75 999.62,-559.75 1136.38,-559.75 1136.38,-559.75 1142.38,-559.75 1148.38,-565.75 1148.38,-571.75 1148.38,-571.75 1148.38,-607.5 1148.38,-607.5 1148.38,-613.5 1142.38,-619.5 1136.38,-619.5"/>
<text xml:space="preserve" text-anchor="middle" x="1068" y="-602.2" font-family="Helvetica,sans-Serif" font-size="14.00">Divide</text>
<text xml:space="preserve" text-anchor="middle" x="1068" y="-584.95" font-family="Helvetica,sans-Serif" font-size="14.00">HAB sample</text>
<text xml:space="preserve" text-anchor="middle" x="1068" y="-567.7" font-family="Helvetica,sans-Serif" font-size="14.00">counts/normalization</text>
</g>
<!-- hABCountsSample&#45;&gt;divideHABSample -->
<g id="edge16" class="edge">
<title>hABCountsSample&#45;&gt;divideHABSample</title>
<path fill="none" stroke="black" d="M1172.49,-656.73C1158.42,-647.83 1140.58,-636.54 1123.64,-625.83"/>
<polygon fill="black" stroke="black" points="1125.96,-623.15 1115.63,-620.76 1122.21,-629.06 1125.96,-623.15"/>
</g>
<!-- calculateMergedQ -->
<g id="node27" class="node">
<title>calculateMergedQ</title>
<polygon fill="lightseagreen" stroke="black" points="887.88,-271.25 736.12,-271.25 736.12,-235.25 887.88,-235.25 887.88,-271.25"/>
<text xml:space="preserve" text-anchor="middle" x="812" y="-248.57" font-family="Helvetica,sans-Serif" font-size="14.00">Calculate Merged Q</text>
</g>
<!-- hABCountsSample&#45;&gt;calculateMergedQ -->
<g id="edge45" class="edge">
<title>hABCountsSample&#45;&gt;calculateMergedQ</title>
<path fill="none" stroke="black" d="M1210.91,-656.61C1230.95,-625.96 1265.99,-560.96 1231,-524.5 1197.51,-489.59 834.32,-536.03 796,-506.5 773.3,-489.01 777,-473.54 777,-444.88 777,-444.88 777,-444.88 777,-325.25 777,-309.53 783.99,-293.68 791.72,-280.95"/>
<polygon fill="black" stroke="black" points="794.55,-283.02 797.13,-272.74 788.71,-279.17 794.55,-283.02"/>
</g>
<!-- lABCountsSample -->
<g id="node2" class="node">
<title>lABCountsSample</title>
<ellipse fill="khaki" stroke="black" cx="1953" cy="-674.5" rx="100.66" ry="18"/>
<text xml:space="preserve" text-anchor="middle" x="1953" y="-669.83" font-family="Helvetica,sans-Serif" font-size="14.00">LABCountsSample</text>
</g>
<!-- divideLABSample -->
<g id="node19" class="node">
<title>divideLABSample</title>
<path fill="lightskyblue" stroke="black" d="M1492.38,-619.5C1492.38,-619.5 1355.62,-619.5 1355.62,-619.5 1349.62,-619.5 1343.62,-613.5 1343.62,-607.5 1343.62,-607.5 1343.62,-571.75 1343.62,-571.75 1343.62,-565.75 1349.62,-559.75 1355.62,-559.75 1355.62,-559.75 1492.38,-559.75 1492.38,-559.75 1498.38,-559.75 1504.38,-565.75 1504.38,-571.75 1504.38,-571.75 1504.38,-607.5 1504.38,-607.5 1504.38,-613.5 1498.38,-619.5 1492.38,-619.5"/>
<text xml:space="preserve" text-anchor="middle" x="1424" y="-602.2" font-family="Helvetica,sans-Serif" font-size="14.00">Divide</text>
<text xml:space="preserve" text-anchor="middle" x="1424" y="-584.95" font-family="Helvetica,sans-Serif" font-size="14.00">LAB sample</text>
<text xml:space="preserve" text-anchor="middle" x="1424" y="-567.7" font-family="Helvetica,sans-Serif" font-size="14.00">counts/normalization</text>
</g>
<!-- lABCountsSample&#45;&gt;divideLABSample -->
<g id="edge18" class="edge">
<title>lABCountsSample&#45;&gt;divideLABSample</title>
<path fill="none" stroke="black" d="M1864.78,-665.55C1779.42,-657.07 1646.63,-641.76 1533,-619.5 1527.38,-618.4 1521.62,-617.17 1515.83,-615.86"/>
<polygon fill="black" stroke="black" points="1516.69,-612.47 1506.15,-613.6 1515.09,-619.29 1516.69,-612.47"/>
</g>
<!-- lABCountsSample&#45;&gt;calculateMergedQ -->
<g id="edge47" class="edge">
<title>lABCountsSample&#45;&gt;calculateMergedQ</title>
<path fill="none" stroke="black" d="M1957.33,-656.16C1961.11,-639.48 1966,-613.49 1966,-590.62 1966,-590.62 1966,-590.62 1966,-325.25 1966,-271.85 1168.48,-258.17 899.43,-255.07"/>
<polygon fill="black" stroke="black" points="899.72,-251.57 889.68,-254.96 899.64,-258.57 899.72,-251.57"/>
</g>
<!-- hABNormSample -->
<g id="node3" class="node">
<title>hABNormSample</title>
<ellipse fill="khaki" stroke="black" cx="879" cy="-674.5" rx="94.88" ry="18"/>
<text xml:space="preserve" text-anchor="middle" x="879" y="-669.83" font-family="Helvetica,sans-Serif" font-size="14.00">HABNormSample</text>
</g>
<!-- hABNormSample&#45;&gt;divideHABSample -->
<g id="edge17" class="edge">
<title>hABNormSample&#45;&gt;divideHABSample</title>
<path fill="none" stroke="black" d="M915.44,-657.52C936.84,-648.14 964.73,-635.91 990.8,-624.48"/>
<polygon fill="black" stroke="black" points="991.93,-627.8 999.68,-620.58 989.12,-621.39 991.93,-627.8"/>
</g>
<!-- hABNormSample&#45;&gt;calculateMergedQ -->
<g id="edge46" class="edge">
<title>hABNormSample&#45;&gt;calculateMergedQ</title>
<path fill="none" stroke="black" d="M853.65,-656.73C813.3,-627.8 739,-564.36 739,-489.5 739,-489.5 739,-489.5 739,-325.25 739,-305.74 752.56,-289.86 768,-278.1"/>
<polygon fill="black" stroke="black" points="769.78,-281.13 775.97,-272.53 765.77,-275.39 769.78,-281.13"/>
</g>
<!-- lABNormSample -->
<g id="node4" class="node">
<title>lABNormSample</title>
<ellipse fill="khaki" stroke="black" cx="1609" cy="-674.5" rx="93.3" ry="18"/>
<text xml:space="preserve" text-anchor="middle" x="1609" y="-669.83" font-family="Helvetica,sans-Serif" font-size="14.00">LABNormSample</text>
</g>
<!-- lABNormSample&#45;&gt;divideLABSample -->
<g id="edge19" class="edge">
<title>lABNormSample&#45;&gt;divideLABSample</title>
<path fill="none" stroke="black" d="M1573.33,-657.52C1552.47,-648.18 1525.32,-636.02 1499.9,-624.63"/>
<polygon fill="black" stroke="black" points="1501.46,-621.49 1490.9,-620.59 1498.59,-627.88 1501.46,-621.49"/>
</g>
<!-- lABNormSample&#45;&gt;calculateMergedQ -->
<g id="edge48" class="edge">
<title>lABNormSample&#45;&gt;calculateMergedQ</title>
<path fill="none" stroke="black" d="M1694.92,-667.09C1785.75,-657.88 1916,-636.65 1916,-590.62 1916,-590.62 1916,-590.62 1916,-325.25 1916,-274.42 1160.83,-259.1 899.64,-255.33"/>
<polygon fill="black" stroke="black" points="899.88,-251.83 889.83,-255.19 899.78,-258.83 899.88,-251.83"/>
</g>
<!-- hABCountsCan -->
<g id="node5" class="node">
<title>hABCountsCan</title>
<ellipse fill="khaki" stroke="black" cx="101" cy="-674.5" rx="84.88" ry="18"/>
<text xml:space="preserve" text-anchor="middle" x="101" y="-669.83" font-family="Helvetica,sans-Serif" font-size="14.00">HABCountsCan</text>
</g>
<!-- divideHABCan -->
<g id="node20" class="node">
<title>divideHABCan</title>
<path fill="lightskyblue" stroke="black" d="M321.38,-619.5C321.38,-619.5 184.62,-619.5 184.62,-619.5 178.62,-619.5 172.62,-613.5 172.62,-607.5 172.62,-607.5 172.62,-571.75 172.62,-571.75 172.62,-565.75 178.62,-559.75 184.62,-559.75 184.62,-559.75 321.38,-559.75 321.38,-559.75 327.38,-559.75 333.38,-565.75 333.38,-571.75 333.38,-571.75 333.38,-607.5 333.38,-607.5 333.38,-613.5 327.38,-619.5 321.38,-619.5"/>
<text xml:space="preserve" text-anchor="middle" x="253" y="-602.2" font-family="Helvetica,sans-Serif" font-size="14.00">Divide</text>
<text xml:space="preserve" text-anchor="middle" x="253" y="-584.95" font-family="Helvetica,sans-Serif" font-size="14.00">HAB can</text>
<text xml:space="preserve" text-anchor="middle" x="253" y="-567.7" font-family="Helvetica,sans-Serif" font-size="14.00">counts/normalization</text>
</g>
<!-- hABCountsCan&#45;&gt;divideHABCan -->
<g id="edge5" class="edge">
<title>hABCountsCan&#45;&gt;divideHABCan</title>
<path fill="none" stroke="black" d="M130.67,-657.32C147.45,-648.18 169.1,-636.37 189.51,-625.24"/>
<polygon fill="black" stroke="black" points="190.98,-628.43 198.08,-620.57 187.62,-622.28 190.98,-628.43"/>
</g>
<!-- calculateMergedQCan -->
<g id="node28" class="node">
<title>calculateMergedQCan</title>
<polygon fill="lightseagreen" stroke="black" points="534.62,-607.62 351.38,-607.62 351.38,-571.62 534.62,-571.62 534.62,-607.62"/>
<text xml:space="preserve" text-anchor="middle" x="443" y="-584.95" font-family="Helvetica,sans-Serif" font-size="14.00">Calculate Merged Q Can</text>
</g>
<!-- hABCountsCan&#45;&gt;calculateMergedQCan -->
<g id="edge11" class="edge">
<title>hABCountsCan&#45;&gt;calculateMergedQCan</title>
<path fill="none" stroke="black" d="M160.16,-661.25C209.09,-650.87 280.3,-635.22 342,-619.5 352.17,-616.91 362.86,-614.03 373.34,-611.11"/>
<polygon fill="black" stroke="black" points="374.01,-614.56 382.68,-608.48 372.11,-607.82 374.01,-614.56"/>
</g>
<!-- lABCountsCan -->
<g id="node6" class="node">
<title>lABCountsCan</title>
<ellipse fill="khaki" stroke="black" cx="460" cy="-674.5" rx="83.3" ry="18"/>
<text xml:space="preserve" text-anchor="middle" x="460" y="-669.83" font-family="Helvetica,sans-Serif" font-size="14.00">LABCountsCan</text>
</g>
<!-- divideLABCan -->
<g id="node21" class="node">
<title>divideLABCan</title>
<path fill="lightskyblue" stroke="black" d="M701.38,-619.5C701.38,-619.5 564.62,-619.5 564.62,-619.5 558.62,-619.5 552.62,-613.5 552.62,-607.5 552.62,-607.5 552.62,-571.75 552.62,-571.75 552.62,-565.75 558.62,-559.75 564.62,-559.75 564.62,-559.75 701.38,-559.75 701.38,-559.75 707.38,-559.75 713.38,-565.75 713.38,-571.75 713.38,-571.75 713.38,-607.5 713.38,-607.5 713.38,-613.5 707.38,-619.5 701.38,-619.5"/>
<text xml:space="preserve" text-anchor="middle" x="633" y="-602.2" font-family="Helvetica,sans-Serif" font-size="14.00">Divide</text>
<text xml:space="preserve" text-anchor="middle" x="633" y="-584.95" font-family="Helvetica,sans-Serif" font-size="14.00">LAB can</text>
<text xml:space="preserve" text-anchor="middle" x="633" y="-567.7" font-family="Helvetica,sans-Serif" font-size="14.00">counts/normalization</text>
</g>
<!-- lABCountsCan&#45;&gt;divideLABCan -->
<g id="edge7" class="edge">
<title>lABCountsCan&#45;&gt;divideLABCan</title>
<path fill="none" stroke="black" d="M492.95,-657.72C512.42,-648.39 537.86,-636.2 561.71,-624.78"/>
<polygon fill="black" stroke="black" points="562.94,-628.07 570.45,-620.59 559.92,-621.75 562.94,-628.07"/>
</g>
<!-- lABCountsCan&#45;&gt;calculateMergedQCan -->
<g id="edge13" class="edge">
<title>lABCountsCan&#45;&gt;calculateMergedQCan</title>
<path fill="none" stroke="black" d="M456.48,-656.33C454.28,-645.62 451.4,-631.58 448.87,-619.22"/>
<polygon fill="black" stroke="black" points="452.32,-618.64 446.88,-609.54 445.46,-620.04 452.32,-618.64"/>
</g>
<!-- hABNormCan -->
<g id="node7" class="node">
<title>hABNormCan</title>
<ellipse fill="khaki" stroke="black" cx="281" cy="-674.5" rx="77.51" ry="18"/>
<text xml:space="preserve" text-anchor="middle" x="281" y="-669.83" font-family="Helvetica,sans-Serif" font-size="14.00">HABNormCan</text>
</g>
<!-- hABNormCan&#45;&gt;divideHABCan -->
<g id="edge6" class="edge">
<title>hABNormCan&#45;&gt;divideHABCan</title>
<path fill="none" stroke="black" d="M275.2,-656.33C272.67,-648.85 269.59,-639.73 266.54,-630.71"/>
<polygon fill="black" stroke="black" points="269.88,-629.64 263.36,-621.29 263.24,-631.88 269.88,-629.64"/>
</g>
<!-- hABNormCan&#45;&gt;calculateMergedQCan -->
<g id="edge12" class="edge">
<title>hABNormCan&#45;&gt;calculateMergedQCan</title>
<path fill="none" stroke="black" d="M311.85,-657.72C336.44,-645.14 371.18,-627.37 398.73,-613.27"/>
<polygon fill="black" stroke="black" points="400.25,-616.43 407.55,-608.76 397.06,-610.2 400.25,-616.43"/>
</g>
<!-- lABNormCan -->
<g id="node8" class="node">
<title>lABNormCan</title>
<ellipse fill="khaki" stroke="black" cx="637" cy="-674.5" rx="75.94" ry="18"/>
<text xml:space="preserve" text-anchor="middle" x="637" y="-669.83" font-family="Helvetica,sans-Serif" font-size="14.00">LABNormCan</text>
</g>
<!-- lABNormCan&#45;&gt;divideLABCan -->
<g id="edge8" class="edge">
<title>lABNormCan&#45;&gt;divideLABCan</title>
<path fill="none" stroke="black" d="M636.17,-656.33C635.82,-649.01 635.39,-640.13 634.96,-631.3"/>
<polygon fill="black" stroke="black" points="638.46,-631.18 634.48,-621.36 631.47,-631.52 638.46,-631.18"/>
</g>
<!-- lABNormCan&#45;&gt;calculateMergedQCan -->
<g id="edge14" class="edge">
<title>lABNormCan&#45;&gt;calculateMergedQCan</title>
<path fill="none" stroke="black" d="M601.42,-658.3C571.28,-645.43 527.71,-626.81 493.89,-612.36"/>
<polygon fill="black" stroke="black" points="495.69,-609.33 485.12,-608.62 492.94,-615.77 495.69,-609.33"/>
</g>
<!-- processCan -->
<g id="node9" class="node">
<title>processCan</title>
<ellipse fill="khaki" stroke="black" cx="370" cy="-958.25" rx="66.99" ry="18"/>
<text xml:space="preserve" text-anchor="middle" x="370" y="-953.58" font-family="Helvetica,sans-Serif" font-size="14.00">ProcessCan</text>
</g>
<!-- checkProcessCan -->
<g id="node16" class="node">
<title>checkProcessCan</title>
<polygon fill="limegreen" stroke="black" points="370,-903.25 238.8,-885.25 370,-867.25 501.2,-885.25 370,-903.25"/>
<text xml:space="preserve" text-anchor="middle" x="370" y="-880.58" font-family="Helvetica,sans-Serif" font-size="14.00">Process the can?</text>
</g>
<!-- processCan&#45;&gt;checkProcessCan -->
<g id="edge22" class="edge">
<title>processCan&#45;&gt;checkProcessCan</title>
<path fill="none" stroke="black" d="M370,-940.06C370,-932.48 370,-923.35 370,-914.79"/>
<polygon fill="black" stroke="black" points="373.5,-914.79 370,-904.79 366.5,-914.79 373.5,-914.79"/>
</g>
<!-- scaleFactor -->
<g id="node10" class="node">
<title>scaleFactor</title>
<ellipse fill="khaki" stroke="black" cx="871" cy="-488.5" rx="66.47" ry="18"/>
<text xml:space="preserve" text-anchor="middle" x="871" y="-483.82" font-family="Helvetica,sans-Serif" font-size="14.00">ScaleFactor</text>
</g>
<!-- sansFitShiftScale -->
<g id="node24" class="node">
<title>sansFitShiftScale</title>
<path fill="lightskyblue" stroke="black" d="M1183.12,-417.25C1183.12,-417.25 1068.88,-417.25 1068.88,-417.25 1062.88,-417.25 1056.88,-411.25 1056.88,-405.25 1056.88,-405.25 1056.88,-393.25 1056.88,-393.25 1056.88,-387.25 1062.88,-381.25 1068.88,-381.25 1068.88,-381.25 1183.12,-381.25 1183.12,-381.25 1189.12,-381.25 1195.12,-387.25 1195.12,-393.25 1195.12,-393.25 1195.12,-405.25 1195.12,-405.25 1195.12,-411.25 1189.12,-417.25 1183.12,-417.25"/>
<text xml:space="preserve" text-anchor="middle" x="1126" y="-394.57" font-family="Helvetica,sans-Serif" font-size="14.00">SANSFitShiftScale</text>
</g>
<!-- scaleFactor&#45;&gt;sansFitShiftScale -->
<g id="edge32" class="edge">
<title>scaleFactor&#45;&gt;sansFitShiftScale</title>
<path fill="none" stroke="black" d="M911.12,-473.77C952.24,-459.7 1016.72,-437.64 1064.33,-421.35"/>
<polygon fill="black" stroke="black" points="1065.37,-424.7 1073.69,-418.15 1063.1,-418.07 1065.37,-424.7"/>
</g>
<!-- copyScaleFactor -->
<g id="node31" class="node">
<title>copyScaleFactor</title>
<polygon fill="lightseagreen" stroke="black" points="958.5,-417.25 819.5,-417.25 819.5,-381.25 958.5,-381.25 958.5,-417.25"/>
<text xml:space="preserve" text-anchor="middle" x="889" y="-394.57" font-family="Helvetica,sans-Serif" font-size="14.00">Copy Scale Factor</text>
</g>
<!-- scaleFactor&#45;&gt;copyScaleFactor -->
<g id="edge38" class="edge">
<title>scaleFactor&#45;&gt;copyScaleFactor</title>
<path fill="none" stroke="black" d="M874.56,-470.26C877.02,-458.31 880.36,-442.13 883.21,-428.33"/>
<polygon fill="black" stroke="black" points="886.55,-429.44 885.15,-418.93 879.7,-428.02 886.55,-429.44"/>
</g>
<!-- shiftFactor -->
<g id="node11" class="node">
<title>shiftFactor</title>
<ellipse fill="khaki" stroke="black" cx="1825" cy="-488.5" rx="62.78" ry="18"/>
<text xml:space="preserve" text-anchor="middle" x="1825" y="-483.82" font-family="Helvetica,sans-Serif" font-size="14.00">ShiftFactor</text>
</g>
<!-- shiftFactor&#45;&gt;sansFitShiftScale -->
<g id="edge33" class="edge">
<title>shiftFactor&#45;&gt;sansFitShiftScale</title>
<path fill="none" stroke="black" d="M1789.17,-473.45C1777.75,-469.41 1764.97,-465.34 1753,-462.5 1719.85,-454.65 1710.54,-458.5 1677,-452.5 1642.9,-446.4 1635.26,-440.37 1601,-435.25 1463.47,-414.69 1301.66,-406.04 1206.81,-402.52"/>
<polygon fill="black" stroke="black" points="1207.22,-399.04 1197.1,-402.17 1206.97,-406.03 1207.22,-399.04"/>
</g>
<!-- copyShiftFactor -->
<g id="node30" class="node">
<title>copyShiftFactor</title>
<polygon fill="lightseagreen" stroke="black" points="1646.88,-417.25 1513.12,-417.25 1513.12,-381.25 1646.88,-381.25 1646.88,-417.25"/>
<text xml:space="preserve" text-anchor="middle" x="1580" y="-394.57" font-family="Helvetica,sans-Serif" font-size="14.00">Copy Shift Factor</text>
</g>
<!-- shiftFactor&#45;&gt;copyShiftFactor -->
<g id="edge39" class="edge">
<title>shiftFactor&#45;&gt;copyShiftFactor</title>
<path fill="none" stroke="black" d="M1786.72,-473.87C1747.35,-459.85 1685.48,-437.81 1639.68,-421.5"/>
<polygon fill="black" stroke="black" points="1641.01,-418.26 1630.42,-418.2 1638.66,-424.86 1641.01,-418.26"/>
</g>
<!-- outputWorkspace -->
<g id="node12" class="node">
<title>outputWorkspace</title>
<ellipse fill="khaki" stroke="black" cx="472" cy="-18" rx="98.56" ry="18"/>
<text xml:space="preserve" text-anchor="middle" x="472" y="-13.32" font-family="Helvetica,sans-Serif" font-size="14.00">OutputWorkspace</text>
</g>
<!-- outScaleFactor -->
<g id="node13" class="node">
<title>outScaleFactor</title>
<ellipse fill="khaki" stroke="black" cx="889" cy="-326.25" rx="84.35" ry="18"/>
<text xml:space="preserve" text-anchor="middle" x="889" y="-321.57" font-family="Helvetica,sans-Serif" font-size="14.00">OutScaleFactor</text>
</g>
<!-- outScaleFactor&#45;&gt;calculateMergedQ -->
<g id="edge42" class="edge">
<title>outScaleFactor&#45;&gt;calculateMergedQ</title>
<path fill="none" stroke="black" d="M870.75,-308.42C861.37,-299.77 849.75,-289.06 839.32,-279.44"/>
<polygon fill="black" stroke="black" points="841.76,-276.93 832.03,-272.72 837.01,-282.07 841.76,-276.93"/>
</g>
<!-- outScaleFactor&#45;&gt;calculateMergedQCan -->
<g id="edge44" class="edge">
<title>outScaleFactor&#45;&gt;calculateMergedQCan</title>
<path fill="none" stroke="black" d="M856.02,-343.28C820.5,-361.76 763.87,-394.82 725,-435.25 699.37,-461.91 710.77,-483.26 682,-506.5 668.22,-517.63 576.7,-547.4 511.01,-567.87"/>
<polygon fill="black" stroke="black" points="510.26,-564.44 501.75,-570.75 512.34,-571.12 510.26,-564.44"/>
</g>
<!-- outShiftFactor -->
<g id="node14" class="node">
<title>outShiftFactor</title>
<ellipse fill="khaki" stroke="black" cx="1126" cy="-326.25" rx="80.67" ry="18"/>
<text xml:space="preserve" text-anchor="middle" x="1126" y="-321.57" font-family="Helvetica,sans-Serif" font-size="14.00">OutShiftFactor</text>
</g>
<!-- outShiftFactor&#45;&gt;calculateMergedQ -->
<g id="edge43" class="edge">
<title>outShiftFactor&#45;&gt;calculateMergedQ</title>
<path fill="none" stroke="black" d="M1070.95,-312.8C1023.56,-302.09 954.33,-286.43 899.38,-274.01"/>
<polygon fill="black" stroke="black" points="900.24,-270.61 889.71,-271.82 898.69,-277.44 900.24,-270.61"/>
</g>
<!-- mode -->
<g id="node15" class="node">
<title>mode</title>
<ellipse fill="khaki" stroke="black" cx="1580" cy="-589.62" rx="37.53" ry="18"/>
<text xml:space="preserve" text-anchor="middle" x="1580" y="-584.95" font-family="Helvetica,sans-Serif" font-size="14.00">Mode</text>
</g>
<!-- checkModeForFit -->
<g id="node17" class="node">
<title>checkModeForFit</title>
<polygon fill="limegreen" stroke="black" points="1580,-506.5 1416.06,-488.5 1580,-470.5 1743.94,-488.5 1580,-506.5"/>
<text xml:space="preserve" text-anchor="middle" x="1580" y="-483.82" font-family="Helvetica,sans-Serif" font-size="14.00">Mode Requires Fitting</text>
</g>
<!-- mode&#45;&gt;checkModeForFit -->
<g id="edge28" class="edge">
<title>mode&#45;&gt;checkModeForFit</title>
<path fill="none" stroke="black" d="M1580,-571.36C1580,-556.74 1580,-535.47 1580,-518.28"/>
<polygon fill="black" stroke="black" points="1583.5,-518.41 1580,-508.41 1576.5,-518.41 1583.5,-518.41"/>
</g>
<!-- readCanInputs -->
<g id="node29" class="node">
<title>readCanInputs</title>
<polygon fill="lightseagreen" stroke="black" points="435.38,-765.5 304.62,-765.5 304.62,-729.5 435.38,-729.5 435.38,-765.5"/>
<text xml:space="preserve" text-anchor="middle" x="370" y="-742.83" font-family="Helvetica,sans-Serif" font-size="14.00">Read Can Inputs</text>
</g>
<!-- checkProcessCan&#45;&gt;readCanInputs -->
<g id="edge27" class="edge">
<title>checkProcessCan&#45;&gt;readCanInputs</title>
<path fill="none" stroke="black" d="M370,-866.78C370,-844.18 370,-804.49 370,-777.37"/>
<polygon fill="black" stroke="black" points="373.5,-777.42 370,-767.42 366.5,-777.42 373.5,-777.42"/>
<text xml:space="preserve" text-anchor="middle" x="382" y="-835.95" font-family="Helvetica,sans-Serif" font-size="14.00">yes</text>
</g>
<!-- checkModeForFit&#45;&gt;sansFitShiftScale -->
<g id="edge29" class="edge">
<title>checkModeForFit&#45;&gt;sansFitShiftScale</title>
<path fill="none" stroke="black" d="M1522.04,-476.36C1441.95,-460.97 1297.1,-433.13 1206.53,-415.73"/>
<polygon fill="black" stroke="black" points="1207.46,-412.34 1196.98,-413.89 1206.14,-419.22 1207.46,-412.34"/>
<text xml:space="preserve" text-anchor="middle" x="1405.66" y="-439.2" font-family="Helvetica,sans-Serif" font-size="14.00">yes</text>
</g>
<!-- checkModeForFit&#45;&gt;copyShiftFactor -->
<g id="edge37" class="edge">
<title>checkModeForFit&#45;&gt;copyShiftFactor</title>
<path fill="none" stroke="black" d="M1580,-470.26C1580,-458.43 1580,-442.45 1580,-428.75"/>
<polygon fill="black" stroke="black" points="1583.5,-428.97 1580,-418.97 1576.5,-428.97 1583.5,-428.97"/>
<text xml:space="preserve" text-anchor="middle" x="1588.62" y="-439.2" font-family="Helvetica,sans-Serif" font-size="14.00">no</text>
</g>
<!-- checkModeForFit&#45;&gt;copyScaleFactor -->
<g id="edge36" class="edge">
<title>checkModeForFit&#45;&gt;copyScaleFactor</title>
<path fill="none" stroke="black" d="M1514.81,-477.17C1482.44,-472.28 1442.72,-466.61 1407,-462.5 1355.48,-456.57 1342.31,-458.07 1290.75,-452.5 1179.38,-440.47 1051.1,-423.19 970.04,-411.84"/>
<polygon fill="black" stroke="black" points="970.81,-408.42 960.42,-410.49 969.84,-415.35 970.81,-408.42"/>
<text xml:space="preserve" text-anchor="middle" x="1299.38" y="-439.2" font-family="Helvetica,sans-Serif" font-size="14.00">no</text>
</g>
<!-- subtractCanHAB -->
<g id="node22" class="node">
<title>subtractCanHAB</title>
<path fill="lightskyblue" stroke="black" d="M567.62,-506.5C567.62,-506.5 516.38,-506.5 516.38,-506.5 510.38,-506.5 504.38,-500.5 504.38,-494.5 504.38,-494.5 504.38,-482.5 504.38,-482.5 504.38,-476.5 510.38,-470.5 516.38,-470.5 516.38,-470.5 567.62,-470.5 567.62,-470.5 573.62,-470.5 579.62,-476.5 579.62,-482.5 579.62,-482.5 579.62,-494.5 579.62,-494.5 579.62,-500.5 573.62,-506.5 567.62,-506.5"/>
<text xml:space="preserve" text-anchor="middle" x="542" y="-483.82" font-family="Helvetica,sans-Serif" font-size="14.00">Subtract</text>
</g>
<!-- divideHABSample&#45;&gt;subtractCanHAB -->
<g id="edge23" class="edge">
<title>divideHABSample&#45;&gt;subtractCanHAB</title>
<path fill="none" stroke="black" d="M987.52,-579.81C893.65,-568.43 733.99,-545.64 590.71,-507.04"/>
<polygon fill="black" stroke="black" points="592.02,-503.76 581.45,-504.51 590.18,-510.52 592.02,-503.76"/>
</g>
<!-- valQHAB -->
<g id="node33" class="node">
<title>valQHAB</title>
<polygon fill="grey" stroke="black" points="1170.24,-506.5 999.64,-506.5 955.76,-470.5 1126.36,-470.5 1170.24,-506.5"/>
<text xml:space="preserve" text-anchor="middle" x="1063" y="-482.32" font-family="Times,serif" font-size="14.00">HAB Normalized</text>
</g>
<!-- divideHABSample&#45;&gt;valQHAB -->
<g id="edge21" class="edge">
<title>divideHABSample&#45;&gt;valQHAB</title>
<path fill="none" stroke="black" d="M1066.53,-559.42C1065.87,-546.3 1065.09,-530.88 1064.43,-517.87"/>
<polygon fill="black" stroke="black" points="1067.94,-518.05 1063.95,-508.24 1060.95,-518.4 1067.94,-518.05"/>
<text xml:space="preserve" text-anchor="middle" x="1146.12" y="-528.45" font-family="Helvetica,sans-Serif" font-size="14.00">If can is not processed.</text>
</g>
<!-- subtractCanLAB -->
<g id="node23" class="node">
<title>subtractCanLAB</title>
<path fill="lightskyblue" stroke="black" d="M660.62,-506.5C660.62,-506.5 609.38,-506.5 609.38,-506.5 603.38,-506.5 597.38,-500.5 597.38,-494.5 597.38,-494.5 597.38,-482.5 597.38,-482.5 597.38,-476.5 603.38,-470.5 609.38,-470.5 609.38,-470.5 660.62,-470.5 660.62,-470.5 666.62,-470.5 672.62,-476.5 672.62,-482.5 672.62,-482.5 672.62,-494.5 672.62,-494.5 672.62,-500.5 666.62,-506.5 660.62,-506.5"/>
<text xml:space="preserve" text-anchor="middle" x="635" y="-483.82" font-family="Helvetica,sans-Serif" font-size="14.00">Subtract</text>
</g>
<!-- divideLABSample&#45;&gt;subtractCanLAB -->
<g id="edge24" class="edge">
<title>divideLABSample&#45;&gt;subtractCanLAB</title>
<path fill="none" stroke="black" d="M1351.94,-559.35C1316.19,-546.21 1271.98,-532 1231,-524.5 1040.66,-489.65 988.98,-520.67 796,-506.5 758.43,-503.74 716.06,-499.21 684.22,-495.52"/>
<polygon fill="black" stroke="black" points="684.84,-492.07 674.5,-494.38 684.03,-499.02 684.84,-492.07"/>
</g>
<!-- valQLAB -->
<g id="node32" class="node">
<title>valQLAB</title>
<polygon fill="grey" stroke="black" points="1398.14,-506.5 1230.88,-506.5 1187.86,-470.5 1355.12,-470.5 1398.14,-506.5"/>
<text xml:space="preserve" text-anchor="middle" x="1293" y="-482.32" font-family="Times,serif" font-size="14.00">LAB Normalized</text>
</g>
<!-- divideLABSample&#45;&gt;valQLAB -->
<g id="edge20" class="edge">
<title>divideLABSample&#45;&gt;valQLAB</title>
<path fill="none" stroke="black" d="M1385.4,-559.42C1366.12,-544.83 1343.08,-527.39 1324.83,-513.58"/>
<polygon fill="black" stroke="black" points="1327.06,-510.88 1316.97,-507.64 1322.83,-516.46 1327.06,-510.88"/>
<text xml:space="preserve" text-anchor="middle" x="1439.12" y="-528.45" font-family="Helvetica,sans-Serif" font-size="14.00">If can is not processed.</text>
</g>
<!-- divideHABCan&#45;&gt;subtractCanHAB -->
<g id="edge9" class="edge">
<title>divideHABCan&#45;&gt;subtractCanHAB</title>
<path fill="none" stroke="black" d="M333.64,-562C378.35,-547.09 435.18,-527.9 493.38,-507.39"/>
<polygon fill="black" stroke="black" points="494.19,-510.82 502.45,-504.19 491.85,-504.22 494.19,-510.82"/>
</g>
<!-- divideLABCan&#45;&gt;subtractCanLAB -->
<g id="edge10" class="edge">
<title>divideLABCan&#45;&gt;subtractCanLAB</title>
<path fill="none" stroke="black" d="M633.59,-559.42C633.85,-546.3 634.17,-530.88 634.43,-517.87"/>
<polygon fill="black" stroke="black" points="637.92,-518.31 634.62,-508.24 630.92,-518.16 637.92,-518.31"/>
</g>
<!-- subtractCanHAB&#45;&gt;valQHAB -->
<g id="edge25" class="edge">
<title>subtractCanHAB&#45;&gt;valQHAB</title>
<path fill="none" stroke="black" d="M579.94,-504.09C582.64,-504.97 585.35,-505.79 588,-506.5 670.88,-528.75 693.3,-529.15 778.88,-535.65 838.37,-540.16 854.15,-544.7 913.12,-535.65 944.66,-530.8 978.67,-520.54 1006.31,-510.83"/>
<polygon fill="black" stroke="black" points="1007.3,-514.19 1015.53,-507.51 1004.94,-507.6 1007.3,-514.19"/>
<text xml:space="preserve" text-anchor="middle" x="846" y="-528.45" font-family="Helvetica,sans-Serif" font-size="14.00">If can is processed.</text>
</g>
<!-- subtractCanLAB&#45;&gt;valQLAB -->
<g id="edge26" class="edge">
<title>subtractCanLAB&#45;&gt;valQLAB</title>
<path fill="none" stroke="black" d="M672.92,-498.13C746.14,-515.53 912.13,-549.22 1052.12,-535.65 1107.88,-530.24 1169.89,-517.95 1217.03,-507.28"/>
<polygon fill="black" stroke="black" points="1217.63,-510.73 1226.6,-505.09 1216.07,-503.91 1217.63,-510.73"/>
<text xml:space="preserve" text-anchor="middle" x="985" y="-528.45" font-family="Helvetica,sans-Serif" font-size="14.00">If can is processed.</text>
</g>
<!-- sansFitShiftScale&#45;&gt;outScaleFactor -->
<g id="edge35" class="edge">
<title>sansFitShiftScale&#45;&gt;outScaleFactor</title>
<path fill="none" stroke="black" d="M1067.72,-380.79C1031.2,-369.85 984.29,-355.8 947.7,-344.83"/>
<polygon fill="black" stroke="black" points="948.73,-341.49 938.14,-341.97 946.72,-348.2 948.73,-341.49"/>
</g>
<!-- sansFitShiftScale&#45;&gt;outShiftFactor -->
<g id="edge34" class="edge">
<title>sansFitShiftScale&#45;&gt;outShiftFactor</title>
<path fill="none" stroke="black" d="M1126,-381.06C1126,-373.48 1126,-364.35 1126,-355.79"/>
<polygon fill="black" stroke="black" points="1129.5,-355.79 1126,-345.79 1122.5,-355.79 1129.5,-355.79"/>
</g>
<!-- subtractMerged -->
<g id="node25" class="node">
<title>subtractMerged</title>
<path fill="lightskyblue" stroke="black" d="M474.62,-506.5C474.62,-506.5 423.38,-506.5 423.38,-506.5 417.38,-506.5 411.38,-500.5 411.38,-494.5 411.38,-494.5 411.38,-482.5 411.38,-482.5 411.38,-476.5 417.38,-470.5 423.38,-470.5 423.38,-470.5 474.62,-470.5 474.62,-470.5 480.62,-470.5 486.62,-476.5 486.62,-482.5 486.62,-482.5 486.62,-494.5 486.62,-494.5 486.62,-500.5 480.62,-506.5 474.62,-506.5"/>
<text xml:space="preserve" text-anchor="middle" x="449" y="-483.82" font-family="Helvetica,sans-Serif" font-size="14.00">Subtract</text>
</g>
<!-- mergedQ -->
<g id="node34" class="node">
<title>mergedQ</title>
<polygon fill="grey" stroke="black" points="526.79,-182 439.63,-182 417.21,-146 504.37,-146 526.79,-182"/>
<text xml:space="preserve" text-anchor="middle" x="472" y="-157.82" font-family="Times,serif" font-size="14.00">Merged</text>
</g>
<!-- subtractMerged&#45;&gt;mergedQ -->
<g id="edge51" class="edge">
<title>subtractMerged&#45;&gt;mergedQ</title>
<path fill="none" stroke="black" d="M451.21,-470.15C453.27,-452.57 456,-424.56 456,-400.25 456,-400.25 456,-400.25 456,-252.25 456,-232.23 460.13,-210.04 464.19,-193.05"/>
<polygon fill="black" stroke="black" points="467.5,-194.23 466.57,-183.68 460.71,-192.51 467.5,-194.23"/>
<text xml:space="preserve" text-anchor="middle" x="536.62" y="-321.57" font-family="Helvetica,sans-Serif" font-size="14.00">If can is not processed.</text>
</g>
<!-- errorCorrection -->
<g id="node26" class="node">
<title>errorCorrection</title>
<polygon fill="lightseagreen" stroke="black" points="602.62,-109 341.38,-109 341.38,-73 602.62,-73 602.62,-109"/>
<text xml:space="preserve" text-anchor="middle" x="472" y="-86.33" font-family="Helvetica,sans-Serif" font-size="14.00">Error Correction Merged Workspace</text>
</g>
<!-- errorCorrection&#45;&gt;outputWorkspace -->
<g id="edge53" class="edge">
<title>errorCorrection&#45;&gt;outputWorkspace</title>
<path fill="none" stroke="black" d="M472,-72.81C472,-65.23 472,-56.1 472,-47.54"/>
<polygon fill="black" stroke="black" points="475.5,-47.54 472,-37.54 468.5,-47.54 475.5,-47.54"/>
</g>
<!-- calculateMergedQ&#45;&gt;subtractMerged -->
<g id="edge49" class="edge">
<title>calculateMergedQ&#45;&gt;subtractMerged</title>
<path fill="none" stroke="black" d="M762.73,-271.68C750.15,-276.77 736.84,-282.74 725,-289.25 628.84,-342.12 526.7,-422.83 478.04,-463"/>
<polygon fill="black" stroke="black" points="475.94,-460.2 470.48,-469.28 480.41,-465.59 475.94,-460.2"/>
</g>
<!-- calculateMergedQ&#45;&gt;mergedQ -->
<g id="edge50" class="edge">
<title>calculateMergedQ&#45;&gt;mergedQ</title>
<path fill="none" stroke="black" d="M744.01,-234.8C683.48,-219.27 595.56,-196.71 536.2,-181.48"/>
<polygon fill="black" stroke="black" points="537.12,-178.1 526.56,-179 535.38,-184.88 537.12,-178.1"/>
<text xml:space="preserve" text-anchor="middle" x="739.58" y="-203.95" font-family="Helvetica,sans-Serif" font-size="14.00">If can is processed.</text>
</g>
<!-- calculateMergedQCan&#45;&gt;subtractMerged -->
<g id="edge15" class="edge">
<title>calculateMergedQCan&#45;&gt;subtractMerged</title>
<path fill="none" stroke="black" d="M444.05,-571.36C444.93,-556.74 446.22,-535.47 447.26,-518.28"/>
<polygon fill="black" stroke="black" points="450.74,-518.6 447.86,-508.41 443.76,-518.18 450.74,-518.6"/>
</g>
<!-- readCanInputs&#45;&gt;hABCountsCan -->
<g id="edge1" class="edge">
<title>readCanInputs&#45;&gt;hABCountsCan</title>
<path fill="none" stroke="black" d="M304.2,-729.13C261.36,-717.83 205.82,-703.17 163.63,-692.03"/>
<polygon fill="black" stroke="black" points="164.69,-688.69 154.13,-689.52 162.9,-695.46 164.69,-688.69"/>
</g>
<!-- readCanInputs&#45;&gt;lABCountsCan -->
<g id="edge2" class="edge">
<title>readCanInputs&#45;&gt;lABCountsCan</title>
<path fill="none" stroke="black" d="M391.79,-729.31C403.26,-720.26 417.5,-709.03 430,-699.17"/>
<polygon fill="black" stroke="black" points="431.85,-702.16 437.54,-693.22 427.52,-696.67 431.85,-702.16"/>
</g>
<!-- readCanInputs&#45;&gt;hABNormCan -->
<g id="edge3" class="edge">
<title>readCanInputs&#45;&gt;hABNormCan</title>
<path fill="none" stroke="black" d="M348.46,-729.31C337.22,-720.35 323.3,-709.25 311.03,-699.46"/>
<polygon fill="black" stroke="black" points="313.22,-696.73 303.22,-693.23 308.86,-702.2 313.22,-696.73"/>
</g>
<!-- readCanInputs&#45;&gt;lABNormCan -->
<g id="edge4" class="edge">
<title>readCanInputs&#45;&gt;lABNormCan</title>
<path fill="none" stroke="black" d="M435.66,-729.04C478.89,-717.54 535.05,-702.61 577.07,-691.44"/>
<polygon fill="black" stroke="black" points="577.75,-694.88 586.51,-688.93 575.95,-688.11 577.75,-694.88"/>
</g>
<!-- copyShiftFactor&#45;&gt;outShiftFactor -->
<g id="edge41" class="edge">
<title>copyShiftFactor&#45;&gt;outShiftFactor</title>
<path fill="none" stroke="black" d="M1513.01,-387.77C1429.95,-374.78 1288.74,-352.7 1201.8,-339.1"/>
<polygon fill="black" stroke="black" points="1202.61,-335.69 1192.18,-337.6 1201.52,-342.6 1202.61,-335.69"/>
</g>
<!-- copyScaleFactor&#45;&gt;outScaleFactor -->
<g id="edge40" class="edge">
<title>copyScaleFactor&#45;&gt;outScaleFactor</title>
<path fill="none" stroke="black" d="M889,-381.06C889,-373.48 889,-364.35 889,-355.79"/>
<polygon fill="black" stroke="black" points="892.5,-355.79 889,-345.79 885.5,-355.79 892.5,-355.79"/>
</g>
<!-- valQLAB&#45;&gt;sansFitShiftScale -->
<g id="edge31" class="edge">
<title>valQLAB&#45;&gt;sansFitShiftScale</title>
<path fill="none" stroke="black" d="M1232.03,-470.08C1218.48,-465.2 1204.45,-459.33 1192,-452.5 1178.25,-444.96 1164.43,-434.56 1153.01,-425.02"/>
<polygon fill="black" stroke="black" points="1155.43,-422.49 1145.57,-418.62 1150.87,-427.79 1155.43,-422.49"/>
</g>
<!-- valQHAB&#45;&gt;sansFitShiftScale -->
<g id="edge30" class="edge">
<title>valQHAB&#45;&gt;sansFitShiftScale</title>
<path fill="none" stroke="black" d="M1075.45,-470.26C1084.42,-457.83 1096.7,-440.83 1106.91,-426.69"/>
<polygon fill="black" stroke="black" points="1109.68,-428.84 1112.69,-418.68 1104,-424.74 1109.68,-428.84"/>
</g>
<!-- mergedQ&#45;&gt;errorCorrection -->
<g id="edge52" class="edge">
<title>mergedQ&#45;&gt;errorCorrection</title>
<path fill="none" stroke="black" d="M472,-145.81C472,-138.23 472,-129.1 472,-120.54"/>
<polygon fill="black" stroke="black" points="475.5,-120.54 472,-110.54 468.5,-120.54 475.5,-120.54"/>
</g>
</g>
</svg>
