<?xml version="1.0" encoding="UTF-8" standalone="no"?>
<!DOCTYPE svg PUBLIC "-//W3C//DTD SVG 1.1//EN"
 "http://www.w3.org/Graphics/SVG/1.1/DTD/svg11.dtd">
<!-- Generated by graphviz version 11.0.0 (20240519.1550)
 -->
<!-- Title: SANSBeamFluxCorrection Pages: 1 -->
<svg width="675pt" height="522pt"
 viewBox="0.00 0.00 674.85 521.50" xmlns="http://www.w3.org/2000/svg" xmlns:xlink="http://www.w3.org/1999/xlink">
<g id="graph0" class="graph" transform="scale(1 1) rotate(0) translate(4 517.5)">
<title>SANSBeamFluxCorrection</title>
<polygon fill="white" stroke="none" points="-4,4 -4,-517.5 670.85,-517.5 670.85,4 -4,4"/>
<text text-anchor="middle" x="333.43" y="-496.2" font-family="Helvetica,sans-Serif" font-size="14.00">SANSBeamFluxCorrection Flowchart</text>
<!-- flexRefWS -->
<g id="node1" class="node">
<title>flexRefWS</title>
<ellipse fill="khaki" stroke="black" cx="148.66" cy="-308" rx="100.14" ry="18"/>
<text text-anchor="middle" x="148.66" y="-303.32" font-family="Helvetica,sans-Serif" font-size="14.00">FlexRefWorkspace</text>
</g>
<!-- convertToHist -->
<g id="node6" class="node">
<title>convertToHist</title>
<path fill="lightskyblue" stroke="black" d="M258.04,-253C258.04,-253 103.29,-253 103.29,-253 97.29,-253 91.29,-247 91.29,-241 91.29,-241 91.29,-229 91.29,-229 91.29,-223 97.29,-217 103.29,-217 103.29,-217 258.04,-217 258.04,-217 264.04,-217 270.04,-223 270.04,-229 270.04,-229 270.04,-241 270.04,-241 270.04,-247 264.04,-253 258.04,-253"/>
<text text-anchor="middle" x="180.66" y="-230.32" font-family="Helvetica,sans-Serif" font-size="14.00">ConvertToHistogram v1</text>
</g>
<!-- flexRefWS&#45;&gt;convertToHist -->
<g id="edge4" class="edge">
<title>flexRefWS&#45;&gt;convertToHist</title>
<path fill="none" stroke="black" d="M156.41,-289.81C159.98,-281.88 164.32,-272.26 168.33,-263.36"/>
<polygon fill="black" stroke="black" points="171.45,-264.96 172.36,-254.41 165.06,-262.09 171.45,-264.96"/>
</g>
<!-- monitorWS -->
<g id="node2" class="node">
<title>monitorWS</title>
<ellipse fill="khaki" stroke="black" cx="565.66" cy="-308" rx="101.19" ry="18"/>
<text text-anchor="middle" x="565.66" y="-303.32" font-family="Helvetica,sans-Serif" font-size="14.00">MonitorWorkspace</text>
</g>
<!-- rebinToWs2 -->
<g id="node8" class="node">
<title>rebinToWs2</title>
<path fill="lightskyblue" stroke="black" d="M544.04,-253C544.04,-253 401.29,-253 401.29,-253 395.29,-253 389.29,-247 389.29,-241 389.29,-241 389.29,-229 389.29,-229 389.29,-223 395.29,-217 401.29,-217 401.29,-217 544.04,-217 544.04,-217 550.04,-217 556.04,-223 556.04,-229 556.04,-229 556.04,-241 556.04,-241 556.04,-247 550.04,-253 544.04,-253"/>
<text text-anchor="middle" x="472.66" y="-230.32" font-family="Helvetica,sans-Serif" font-size="14.00">RebinToWorkspace v1</text>
</g>
<!-- monitorWS&#45;&gt;rebinToWs2 -->
<g id="edge9" class="edge">
<title>monitorWS&#45;&gt;rebinToWs2</title>
<path fill="none" stroke="black" d="M543.62,-290.17C531.95,-281.26 517.41,-270.16 504.53,-260.33"/>
<polygon fill="black" stroke="black" points="506.79,-257.65 496.72,-254.37 502.54,-263.22 506.79,-257.65"/>
</g>
<!-- inputWS -->
<g id="node3" class="node">
<title>inputWS</title>
<ellipse fill="khaki" stroke="black" cx="356.66" cy="-308" rx="90.14" ry="18"/>
<text text-anchor="middle" x="356.66" y="-303.32" font-family="Helvetica,sans-Serif" font-size="14.00">InputWorkspace</text>
</g>
<!-- rebinToWs -->
<g id="node7" class="node">
<title>rebinToWs</title>
<path fill="lightskyblue" stroke="black" d="M333.04,-180C333.04,-180 190.29,-180 190.29,-180 184.29,-180 178.29,-174 178.29,-168 178.29,-168 178.29,-156 178.29,-156 178.29,-150 184.29,-144 190.29,-144 190.29,-144 333.04,-144 333.04,-144 339.04,-144 345.04,-150 345.04,-156 345.04,-156 345.04,-168 345.04,-168 345.04,-174 339.04,-180 333.04,-180"/>
<text text-anchor="middle" x="261.66" y="-157.32" font-family="Helvetica,sans-Serif" font-size="14.00">RebinToWorkspace v1</text>
</g>
<!-- inputWS&#45;&gt;rebinToWs -->
<g id="edge6" class="edge">
<title>inputWS&#45;&gt;rebinToWs</title>
<path fill="none" stroke="black" d="M345.39,-289.92C329.04,-265.12 298.57,-218.95 279.25,-189.66"/>
<polygon fill="black" stroke="black" points="282.18,-187.75 273.75,-181.33 276.34,-191.6 282.18,-187.75"/>
</g>
<!-- inputWS&#45;&gt;rebinToWs2 -->
<g id="edge8" class="edge">
<title>inputWS&#45;&gt;rebinToWs2</title>
<path fill="none" stroke="black" d="M383.86,-290.35C399.08,-281.03 418.3,-269.27 434.96,-259.08"/>
<polygon fill="black" stroke="black" points="436.43,-262.28 443.13,-254.07 432.78,-256.31 436.43,-262.28"/>
</g>
<!-- divide -->
<g id="node9" class="node">
<title>divide</title>
<path fill="lightskyblue" stroke="black" d="M432.29,-180C432.29,-180 375.04,-180 375.04,-180 369.04,-180 363.04,-174 363.04,-168 363.04,-168 363.04,-156 363.04,-156 363.04,-150 369.04,-144 375.04,-144 375.04,-144 432.29,-144 432.29,-144 438.29,-144 444.29,-150 444.29,-156 444.29,-156 444.29,-168 444.29,-168 444.29,-174 438.29,-180 432.29,-180"/>
<text text-anchor="middle" x="403.66" y="-157.32" font-family="Helvetica,sans-Serif" font-size="14.00">Divide v1</text>
</g>
<!-- inputWS&#45;&gt;divide -->
<g id="edge11" class="edge">
<title>inputWS&#45;&gt;divide</title>
<path fill="none" stroke="black" d="M360.87,-289.56C365.42,-271.3 373.18,-241.86 381.66,-217 384.62,-208.34 388.23,-199.06 391.66,-190.69"/>
<polygon fill="black" stroke="black" points="394.79,-192.29 395.42,-181.71 388.33,-189.58 394.79,-192.29"/>
</g>
<!-- outputWS -->
<g id="node4" class="node">
<title>outputWS</title>
<ellipse fill="khaki" stroke="black" cx="331.66" cy="-18" rx="98.56" ry="18"/>
<text text-anchor="middle" x="331.66" y="-13.32" font-family="Helvetica,sans-Serif" font-size="14.00">OutputWorkspace</text>
</g>
<!-- isEntryName -->
<g id="node5" class="node">
<title>isEntryName</title>
<polygon fill="limegreen" stroke="black" points="135.66,-488.25 0,-470.25 135.66,-452.25 271.32,-470.25 135.66,-488.25"/>
<text text-anchor="middle" x="135.66" y="-465.57" font-family="Helvetica,sans-Serif" font-size="14.00">Has Entry Name?</text>
</g>
<!-- isEntryName&#45;&gt;flexRefWS -->
<g id="edge2" class="edge">
<title>isEntryName&#45;&gt;flexRefWS</title>
<path fill="none" stroke="black" d="M143.12,-452.86C145.37,-447.1 147.54,-440.5 148.66,-434.25 154.55,-401.51 153.4,-363.18 151.52,-337.62"/>
<polygon fill="black" stroke="black" points="155.01,-337.37 150.69,-327.7 148.04,-337.95 155.01,-337.37"/>
<text text-anchor="middle" x="229.16" y="-376.32" font-family="Helvetica,sans-Serif" font-size="14.00">No. Empty Workspace</text>
</g>
<!-- load -->
<g id="node11" class="node">
<title>load</title>
<path fill="lightskyblue" stroke="black" d="M123.04,-399C123.04,-399 76.29,-399 76.29,-399 70.29,-399 64.29,-393 64.29,-387 64.29,-387 64.29,-375 64.29,-375 64.29,-369 70.29,-363 76.29,-363 76.29,-363 123.04,-363 123.04,-363 129.04,-363 135.04,-369 135.04,-375 135.04,-375 135.04,-387 135.04,-387 135.04,-393 129.04,-399 123.04,-399"/>
<text text-anchor="middle" x="99.66" y="-376.32" font-family="Helvetica,sans-Serif" font-size="14.00">Load v1</text>
</g>
<!-- isEntryName&#45;&gt;load -->
<g id="edge1" class="edge">
<title>isEntryName&#45;&gt;load</title>
<path fill="none" stroke="black" d="M128.89,-452.84C123.86,-440.64 116.88,-423.73 111,-409.48"/>
<polygon fill="black" stroke="black" points="114.4,-408.54 107.35,-400.63 107.93,-411.21 114.4,-408.54"/>
<text text-anchor="middle" x="132.91" y="-420.95" font-family="Helvetica,sans-Serif" font-size="14.00">Yes</text>
</g>
<!-- convertToHist&#45;&gt;rebinToWs -->
<g id="edge5" class="edge">
<title>convertToHist&#45;&gt;rebinToWs</title>
<path fill="none" stroke="black" d="M200.27,-216.81C210.24,-208.07 222.55,-197.28 233.52,-187.67"/>
<polygon fill="black" stroke="black" points="235.6,-190.5 240.82,-181.27 230.99,-185.23 235.6,-190.5"/>
</g>
<!-- divide2 -->
<g id="node10" class="node">
<title>divide2</title>
<path fill="lightskyblue" stroke="black" d="M360.29,-108C360.29,-108 303.04,-108 303.04,-108 297.04,-108 291.04,-102 291.04,-96 291.04,-96 291.04,-84 291.04,-84 291.04,-78 297.04,-72 303.04,-72 303.04,-72 360.29,-72 360.29,-72 366.29,-72 372.29,-78 372.29,-84 372.29,-84 372.29,-96 372.29,-96 372.29,-102 366.29,-108 360.29,-108"/>
<text text-anchor="middle" x="331.66" y="-85.33" font-family="Helvetica,sans-Serif" font-size="14.00">Divide v1</text>
</g>
<!-- rebinToWs&#45;&gt;divide2 -->
<g id="edge7" class="edge">
<title>rebinToWs&#45;&gt;divide2</title>
<path fill="none" stroke="black" d="M278.97,-143.7C287.27,-135.39 297.38,-125.28 306.52,-116.14"/>
<polygon fill="black" stroke="black" points="308.89,-118.72 313.49,-109.17 303.94,-113.77 308.89,-118.72"/>
</g>
<!-- rebinToWs2&#45;&gt;divide -->
<g id="edge10" class="edge">
<title>rebinToWs2&#45;&gt;divide</title>
<path fill="none" stroke="black" d="M455.96,-216.81C447.57,-208.18 437.24,-197.56 427.99,-188.03"/>
<polygon fill="black" stroke="black" points="430.75,-185.85 421.27,-181.11 425.73,-190.72 430.75,-185.85"/>
</g>
<!-- divide&#45;&gt;divide2 -->
<g id="edge12" class="edge">
<title>divide&#45;&gt;divide2</title>
<path fill="none" stroke="black" d="M385.86,-143.7C377.38,-135.45 367.07,-125.43 357.73,-116.35"/>
<polygon fill="black" stroke="black" points="360.2,-113.86 350.59,-109.4 355.32,-118.88 360.2,-113.86"/>
</g>
<!-- divide2&#45;&gt;outputWS -->
<g id="edge13" class="edge">
<title>divide2&#45;&gt;outputWS</title>
<path fill="none" stroke="black" d="M331.66,-71.7C331.66,-64.41 331.66,-55.73 331.66,-47.54"/>
<polygon fill="black" stroke="black" points="335.16,-47.62 331.66,-37.62 328.16,-47.62 335.16,-47.62"/>
</g>
<!-- load&#45;&gt;flexRefWS -->
<g id="edge3" class="edge">
<title>load&#45;&gt;flexRefWS</title>
<path fill="none" stroke="black" d="M111.52,-362.81C117.18,-354.62 124.08,-344.62 130.38,-335.48"/>
<polygon fill="black" stroke="black" points="133.25,-337.49 136.05,-327.27 127.49,-333.52 133.25,-337.49"/>
</g>
</g>
</svg>
