<?xml version="1.0" encoding="UTF-8" standalone="no"?>
<!DOCTYPE svg PUBLIC "-//W3C//DTD SVG 1.1//EN"
 "http://www.w3.org/Graphics/SVG/1.1/DTD/svg11.dtd">
<!-- Generated by graphviz version 9.0.0 (20231125.0833)
 -->
<!-- Title: SansStitch Pages: 1 -->
<svg width="2063pt" height="1010pt"
 viewBox="0.00 0.00 2062.66 1009.50" xmlns="http://www.w3.org/2000/svg" xmlns:xlink="http://www.w3.org/1999/xlink">
<g id="graph0" class="graph" transform="scale(1 1) rotate(0) translate(4 1005.5)">
<title>SansStitch</title>
<polygon fill="white" stroke="none" points="-4,4 -4,-1005.5 2058.66,-1005.5 2058.66,4 -4,4"/>
<text text-anchor="middle" x="1027.33" y="-984.2" font-family="Helvetica,sans-Serif" font-size="14.00">SANSStitch Flowchart</text>
<g id="clust5" class="cluster">
<title>cluster</title>
<polygon fill="none" stroke="blue" points="8,-462.5 8,-824 721,-824 721,-462.5 8,-462.5"/>
<text text-anchor="middle" x="364.5" y="-806.7" font-family="Helvetica,sans-Serif" font-size="14.00">Can Processing</text>
</g>
<!-- hABCountsSample -->
<g id="node1" class="node">
<title>hABCountsSample</title>
<ellipse fill="khaki" stroke="black" cx="1229" cy="-674.5" rx="102.24" ry="18"/>
<text text-anchor="middle" x="1229" y="-669.83" font-family="Helvetica,sans-Serif" font-size="14.00">HABCountsSample</text>
</g>
<!-- divideHABSample -->
<g id="node18" class="node">
<title>divideHABSample</title>
<path fill="lightskyblue" stroke="black" d="M1055.38,-619.5C1055.38,-619.5 918.62,-619.5 918.62,-619.5 912.62,-619.5 906.62,-613.5 906.62,-607.5 906.62,-607.5 906.62,-571.75 906.62,-571.75 906.62,-565.75 912.62,-559.75 918.62,-559.75 918.62,-559.75 1055.38,-559.75 1055.38,-559.75 1061.38,-559.75 1067.38,-565.75 1067.38,-571.75 1067.38,-571.75 1067.38,-607.5 1067.38,-607.5 1067.38,-613.5 1061.38,-619.5 1055.38,-619.5"/>
<text text-anchor="middle" x="987" y="-602.2" font-family="Helvetica,sans-Serif" font-size="14.00">Divide</text>
<text text-anchor="middle" x="987" y="-584.95" font-family="Helvetica,sans-Serif" font-size="14.00">HAB sample</text>
<text text-anchor="middle" x="987" y="-567.7" font-family="Helvetica,sans-Serif" font-size="14.00">counts/normalization</text>
</g>
<!-- hABCountsSample&#45;&gt;divideHABSample -->
<g id="edge16" class="edge">
<title>hABCountsSample&#45;&gt;divideHABSample</title>
<path fill="none" stroke="black" d="M1183.77,-658.01C1154.13,-647.86 1114.35,-634.24 1078.32,-621.9"/>
<polygon fill="black" stroke="black" points="1079.79,-618.7 1069.2,-618.77 1077.53,-625.33 1079.79,-618.7"/>
</g>
<!-- calculateMergedQ -->
<g id="node27" class="node">
<title>calculateMergedQ</title>
<polygon fill="lightseagreen" stroke="black" points="887.88,-271.25 736.12,-271.25 736.12,-235.25 887.88,-235.25 887.88,-271.25"/>
<text text-anchor="middle" x="812" y="-248.57" font-family="Helvetica,sans-Serif" font-size="14.00">Calculate Merged Q</text>
</g>
<!-- hABCountsSample&#45;&gt;calculateMergedQ -->
<g id="edge45" class="edge">
<title>hABCountsSample&#45;&gt;calculateMergedQ</title>
<path fill="none" stroke="black" d="M1234.93,-656.35C1244.46,-625.27 1258.81,-559.6 1224,-524.5 1190.49,-490.7 833.69,-535.57 796,-506.5 773.3,-489 777,-473.54 777,-444.88 777,-444.88 777,-444.88 777,-325.25 777,-309.53 783.99,-293.68 791.72,-280.95"/>
<polygon fill="black" stroke="black" points="794.55,-283.02 797.13,-272.74 788.71,-279.17 794.55,-283.02"/>
</g>
<!-- lABCountsSample -->
<g id="node2" class="node">
<title>lABCountsSample</title>
<ellipse fill="khaki" stroke="black" cx="1954" cy="-674.5" rx="100.66" ry="18"/>
<text text-anchor="middle" x="1954" y="-669.83" font-family="Helvetica,sans-Serif" font-size="14.00">LABCountsSample</text>
</g>
<!-- divideLABSample -->
<g id="node19" class="node">
<title>divideLABSample</title>
<path fill="lightskyblue" stroke="black" d="M1492.38,-619.5C1492.38,-619.5 1355.62,-619.5 1355.62,-619.5 1349.62,-619.5 1343.62,-613.5 1343.62,-607.5 1343.62,-607.5 1343.62,-571.75 1343.62,-571.75 1343.62,-565.75 1349.62,-559.75 1355.62,-559.75 1355.62,-559.75 1492.38,-559.75 1492.38,-559.75 1498.38,-559.75 1504.38,-565.75 1504.38,-571.75 1504.38,-571.75 1504.38,-607.5 1504.38,-607.5 1504.38,-613.5 1498.38,-619.5 1492.38,-619.5"/>
<text text-anchor="middle" x="1424" y="-602.2" font-family="Helvetica,sans-Serif" font-size="14.00">Divide</text>
<text text-anchor="middle" x="1424" y="-584.95" font-family="Helvetica,sans-Serif" font-size="14.00">LAB sample</text>
<text text-anchor="middle" x="1424" y="-567.7" font-family="Helvetica,sans-Serif" font-size="14.00">counts/normalization</text>
</g>
<!-- lABCountsSample&#45;&gt;divideLABSample -->
<g id="edge18" class="edge">
<title>lABCountsSample&#45;&gt;divideLABSample</title>
<path fill="none" stroke="black" d="M1865.57,-665.57C1780,-657.09 1646.9,-641.79 1533,-619.5 1527.38,-618.4 1521.62,-617.17 1515.83,-615.87"/>
<polygon fill="black" stroke="black" points="1516.69,-612.47 1506.15,-613.61 1515.09,-619.29 1516.69,-612.47"/>
</g>
<!-- lABCountsSample&#45;&gt;calculateMergedQ -->
<g id="edge47" class="edge">
<title>lABCountsSample&#45;&gt;calculateMergedQ</title>
<path fill="none" stroke="black" d="M1958,-656.14C1961.49,-639.45 1966,-613.45 1966,-590.62 1966,-590.62 1966,-590.62 1966,-325.25 1966,-271.85 1168.48,-258.17 899.43,-255.07"/>
<polygon fill="black" stroke="black" points="899.72,-251.57 889.68,-254.96 899.64,-258.57 899.72,-251.57"/>
</g>
<!-- hABNormSample -->
<g id="node3" class="node">
<title>hABNormSample</title>
<ellipse fill="khaki" stroke="black" cx="920" cy="-674.5" rx="94.88" ry="18"/>
<text text-anchor="middle" x="920" y="-669.83" font-family="Helvetica,sans-Serif" font-size="14.00">HABNormSample</text>
</g>
<!-- hABNormSample&#45;&gt;divideHABSample -->
<g id="edge17" class="edge">
<title>hABNormSample&#45;&gt;divideHABSample</title>
<path fill="none" stroke="black" d="M933.88,-656.33C940.4,-648.27 948.44,-638.32 956.28,-628.62"/>
<polygon fill="black" stroke="black" points="958.85,-631.01 962.42,-621.03 953.41,-626.61 958.85,-631.01"/>
</g>
<!-- hABNormSample&#45;&gt;calculateMergedQ -->
<g id="edge46" class="edge">
<title>hABNormSample&#45;&gt;calculateMergedQ</title>
<path fill="none" stroke="black" d="M884.67,-657.37C832,-630.61 739,-571.73 739,-489.5 739,-489.5 739,-489.5 739,-325.25 739,-305.74 752.56,-289.86 768,-278.1"/>
<polygon fill="black" stroke="black" points="769.78,-281.13 775.97,-272.53 765.77,-275.39 769.78,-281.13"/>
</g>
<!-- lABNormSample -->
<g id="node4" class="node">
<title>lABNormSample</title>
<ellipse fill="khaki" stroke="black" cx="1490" cy="-674.5" rx="93.3" ry="18"/>
<text text-anchor="middle" x="1490" y="-669.83" font-family="Helvetica,sans-Serif" font-size="14.00">LABNormSample</text>
</g>
<!-- lABNormSample&#45;&gt;divideLABSample -->
<g id="edge19" class="edge">
<title>lABNormSample&#45;&gt;divideLABSample</title>
<path fill="none" stroke="black" d="M1476.32,-656.33C1469.91,-648.27 1461.98,-638.32 1454.26,-628.62"/>
<polygon fill="black" stroke="black" points="1457.19,-626.68 1448.22,-621.04 1451.71,-631.04 1457.19,-626.68"/>
</g>
<!-- lABNormSample&#45;&gt;calculateMergedQ -->
<g id="edge48" class="edge">
<title>lABNormSample&#45;&gt;calculateMergedQ</title>
<path fill="none" stroke="black" d="M1583.49,-673.8C1708.89,-671.63 1916,-657.87 1916,-590.62 1916,-590.62 1916,-590.62 1916,-325.25 1916,-274.42 1160.83,-259.1 899.64,-255.33"/>
<polygon fill="black" stroke="black" points="899.88,-251.83 889.83,-255.19 899.78,-258.83 899.88,-251.83"/>
</g>
<!-- hABCountsCan -->
<g id="node5" class="node">
<title>hABCountsCan</title>
<ellipse fill="khaki" stroke="black" cx="101" cy="-674.5" rx="84.88" ry="18"/>
<text text-anchor="middle" x="101" y="-669.83" font-family="Helvetica,sans-Serif" font-size="14.00">HABCountsCan</text>
</g>
<!-- divideHABCan -->
<g id="node20" class="node">
<title>divideHABCan</title>
<path fill="lightskyblue" stroke="black" d="M321.38,-619.5C321.38,-619.5 184.62,-619.5 184.62,-619.5 178.62,-619.5 172.62,-613.5 172.62,-607.5 172.62,-607.5 172.62,-571.75 172.62,-571.75 172.62,-565.75 178.62,-559.75 184.62,-559.75 184.62,-559.75 321.38,-559.75 321.38,-559.75 327.38,-559.75 333.38,-565.75 333.38,-571.75 333.38,-571.75 333.38,-607.5 333.38,-607.5 333.38,-613.5 327.38,-619.5 321.38,-619.5"/>
<text text-anchor="middle" x="253" y="-602.2" font-family="Helvetica,sans-Serif" font-size="14.00">Divide</text>
<text text-anchor="middle" x="253" y="-584.95" font-family="Helvetica,sans-Serif" font-size="14.00">HAB can</text>
<text text-anchor="middle" x="253" y="-567.7" font-family="Helvetica,sans-Serif" font-size="14.00">counts/normalization</text>
</g>
<!-- hABCountsCan&#45;&gt;divideHABCan -->
<g id="edge5" class="edge">
<title>hABCountsCan&#45;&gt;divideHABCan</title>
<path fill="none" stroke="black" d="M130.67,-657.32C147.45,-648.18 169.1,-636.37 189.51,-625.24"/>
<polygon fill="black" stroke="black" points="190.98,-628.43 198.08,-620.57 187.62,-622.28 190.98,-628.43"/>
</g>
<!-- calculateMergedQCan -->
<g id="node28" class="node">
<title>calculateMergedQCan</title>
<polygon fill="lightseagreen" stroke="black" points="534.62,-607.62 351.38,-607.62 351.38,-571.62 534.62,-571.62 534.62,-607.62"/>
<text text-anchor="middle" x="443" y="-584.95" font-family="Helvetica,sans-Serif" font-size="14.00">Calculate Merged Q Can</text>
</g>
<!-- hABCountsCan&#45;&gt;calculateMergedQCan -->
<g id="edge11" class="edge">
<title>hABCountsCan&#45;&gt;calculateMergedQCan</title>
<path fill="none" stroke="black" d="M160.16,-661.25C209.09,-650.87 280.3,-635.22 342,-619.5 352.17,-616.91 362.86,-614.03 373.34,-611.11"/>
<polygon fill="black" stroke="black" points="374.01,-614.56 382.68,-608.48 372.11,-607.82 374.01,-614.56"/>
</g>
<!-- lABCountsCan -->
<g id="node6" class="node">
<title>lABCountsCan</title>
<ellipse fill="khaki" stroke="black" cx="460" cy="-674.5" rx="83.3" ry="18"/>
<text text-anchor="middle" x="460" y="-669.83" font-family="Helvetica,sans-Serif" font-size="14.00">LABCountsCan</text>
</g>
<!-- divideLABCan -->
<g id="node21" class="node">
<title>divideLABCan</title>
<path fill="lightskyblue" stroke="black" d="M701.38,-619.5C701.38,-619.5 564.62,-619.5 564.62,-619.5 558.62,-619.5 552.62,-613.5 552.62,-607.5 552.62,-607.5 552.62,-571.75 552.62,-571.75 552.62,-565.75 558.62,-559.75 564.62,-559.75 564.62,-559.75 701.38,-559.75 701.38,-559.75 707.38,-559.75 713.38,-565.75 713.38,-571.75 713.38,-571.75 713.38,-607.5 713.38,-607.5 713.38,-613.5 707.38,-619.5 701.38,-619.5"/>
<text text-anchor="middle" x="633" y="-602.2" font-family="Helvetica,sans-Serif" font-size="14.00">Divide</text>
<text text-anchor="middle" x="633" y="-584.95" font-family="Helvetica,sans-Serif" font-size="14.00">LAB can</text>
<text text-anchor="middle" x="633" y="-567.7" font-family="Helvetica,sans-Serif" font-size="14.00">counts/normalization</text>
</g>
<!-- lABCountsCan&#45;&gt;divideLABCan -->
<g id="edge7" class="edge">
<title>lABCountsCan&#45;&gt;divideLABCan</title>
<path fill="none" stroke="black" d="M492.95,-657.72C512.42,-648.39 537.86,-636.2 561.71,-624.78"/>
<polygon fill="black" stroke="black" points="562.94,-628.07 570.45,-620.59 559.92,-621.75 562.94,-628.07"/>
</g>
<!-- lABCountsCan&#45;&gt;calculateMergedQCan -->
<g id="edge13" class="edge">
<title>lABCountsCan&#45;&gt;calculateMergedQCan</title>
<path fill="none" stroke="black" d="M456.48,-656.33C454.28,-645.62 451.4,-631.58 448.87,-619.22"/>
<polygon fill="black" stroke="black" points="452.32,-618.64 446.88,-609.54 445.46,-620.04 452.32,-618.64"/>
</g>
<!-- hABNormCan -->
<g id="node7" class="node">
<title>hABNormCan</title>
<ellipse fill="khaki" stroke="black" cx="281" cy="-674.5" rx="77.51" ry="18"/>
<text text-anchor="middle" x="281" y="-669.83" font-family="Helvetica,sans-Serif" font-size="14.00">HABNormCan</text>
</g>
<!-- hABNormCan&#45;&gt;divideHABCan -->
<g id="edge6" class="edge">
<title>hABNormCan&#45;&gt;divideHABCan</title>
<path fill="none" stroke="black" d="M275.2,-656.33C272.67,-648.85 269.59,-639.73 266.54,-630.71"/>
<polygon fill="black" stroke="black" points="269.88,-629.64 263.36,-621.29 263.24,-631.88 269.88,-629.64"/>
</g>
<!-- hABNormCan&#45;&gt;calculateMergedQCan -->
<g id="edge12" class="edge">
<title>hABNormCan&#45;&gt;calculateMergedQCan</title>
<path fill="none" stroke="black" d="M311.85,-657.72C336.44,-645.14 371.18,-627.37 398.73,-613.27"/>
<polygon fill="black" stroke="black" points="400.25,-616.43 407.55,-608.76 397.06,-610.2 400.25,-616.43"/>
</g>
<!-- lABNormCan -->
<g id="node8" class="node">
<title>lABNormCan</title>
<ellipse fill="khaki" stroke="black" cx="637" cy="-674.5" rx="75.94" ry="18"/>
<text text-anchor="middle" x="637" y="-669.83" font-family="Helvetica,sans-Serif" font-size="14.00">LABNormCan</text>
</g>
<!-- lABNormCan&#45;&gt;divideLABCan -->
<g id="edge8" class="edge">
<title>lABNormCan&#45;&gt;divideLABCan</title>
<path fill="none" stroke="black" d="M636.17,-656.33C635.82,-649.01 635.39,-640.13 634.96,-631.3"/>
<polygon fill="black" stroke="black" points="638.46,-631.18 634.48,-621.36 631.47,-631.52 638.46,-631.18"/>
</g>
<!-- lABNormCan&#45;&gt;calculateMergedQCan -->
<g id="edge14" class="edge">
<title>lABNormCan&#45;&gt;calculateMergedQCan</title>
<path fill="none" stroke="black" d="M601.42,-658.3C571.28,-645.43 527.71,-626.81 493.89,-612.36"/>
<polygon fill="black" stroke="black" points="495.69,-609.33 485.12,-608.62 492.94,-615.77 495.69,-609.33"/>
</g>
<!-- processCan -->
<g id="node9" class="node">
<title>processCan</title>
<ellipse fill="khaki" stroke="black" cx="371" cy="-958.25" rx="66.99" ry="18"/>
<text text-anchor="middle" x="371" y="-953.58" font-family="Helvetica,sans-Serif" font-size="14.00">ProcessCan</text>
</g>
<!-- checkProcessCan -->
<g id="node16" class="node">
<title>checkProcessCan</title>
<polygon fill="limegreen" stroke="black" points="371,-903.25 239.8,-885.25 371,-867.25 502.2,-885.25 371,-903.25"/>
<text text-anchor="middle" x="371" y="-880.58" font-family="Helvetica,sans-Serif" font-size="14.00">Process the can?</text>
</g>
<!-- processCan&#45;&gt;checkProcessCan -->
<g id="edge22" class="edge">
<title>processCan&#45;&gt;checkProcessCan</title>
<path fill="none" stroke="black" d="M371,-940.06C371,-932.48 371,-923.35 371,-914.79"/>
<polygon fill="black" stroke="black" points="374.5,-914.79 371,-904.79 367.5,-914.79 374.5,-914.79"/>
</g>
<!-- scaleFactor -->
<g id="node10" class="node">
<title>scaleFactor</title>
<ellipse fill="khaki" stroke="black" cx="871" cy="-488.5" rx="66.47" ry="18"/>
<text text-anchor="middle" x="871" y="-483.82" font-family="Helvetica,sans-Serif" font-size="14.00">ScaleFactor</text>
</g>
<!-- sansFitShiftScale -->
<g id="node24" class="node">
<title>sansFitShiftScale</title>
<path fill="lightskyblue" stroke="black" d="M1185.12,-417.25C1185.12,-417.25 1070.88,-417.25 1070.88,-417.25 1064.88,-417.25 1058.88,-411.25 1058.88,-405.25 1058.88,-405.25 1058.88,-393.25 1058.88,-393.25 1058.88,-387.25 1064.88,-381.25 1070.88,-381.25 1070.88,-381.25 1185.12,-381.25 1185.12,-381.25 1191.12,-381.25 1197.12,-387.25 1197.12,-393.25 1197.12,-393.25 1197.12,-405.25 1197.12,-405.25 1197.12,-411.25 1191.12,-417.25 1185.12,-417.25"/>
<text text-anchor="middle" x="1128" y="-394.57" font-family="Helvetica,sans-Serif" font-size="14.00">SANSFitShiftScale</text>
</g>
<!-- scaleFactor&#45;&gt;sansFitShiftScale -->
<g id="edge32" class="edge">
<title>scaleFactor&#45;&gt;sansFitShiftScale</title>
<path fill="none" stroke="black" d="M911.44,-473.77C952.88,-459.7 1017.86,-437.64 1065.84,-421.35"/>
<polygon fill="black" stroke="black" points="1066.95,-424.67 1075.29,-418.14 1064.7,-418.04 1066.95,-424.67"/>
</g>
<!-- copyScaleFactor -->
<g id="node31" class="node">
<title>copyScaleFactor</title>
<polygon fill="lightseagreen" stroke="black" points="958.5,-417.25 819.5,-417.25 819.5,-381.25 958.5,-381.25 958.5,-417.25"/>
<text text-anchor="middle" x="889" y="-394.57" font-family="Helvetica,sans-Serif" font-size="14.00">Copy Scale Factor</text>
</g>
<!-- scaleFactor&#45;&gt;copyScaleFactor -->
<g id="edge38" class="edge">
<title>scaleFactor&#45;&gt;copyScaleFactor</title>
<path fill="none" stroke="black" d="M874.56,-470.26C877.02,-458.31 880.36,-442.13 883.21,-428.33"/>
<polygon fill="black" stroke="black" points="886.55,-429.44 885.15,-418.93 879.7,-428.02 886.55,-429.44"/>
</g>
<!-- shiftFactor -->
<g id="node11" class="node">
<title>shiftFactor</title>
<ellipse fill="khaki" stroke="black" cx="1825" cy="-488.5" rx="62.78" ry="18"/>
<text text-anchor="middle" x="1825" y="-483.82" font-family="Helvetica,sans-Serif" font-size="14.00">ShiftFactor</text>
</g>
<!-- shiftFactor&#45;&gt;sansFitShiftScale -->
<g id="edge33" class="edge">
<title>shiftFactor&#45;&gt;sansFitShiftScale</title>
<path fill="none" stroke="black" d="M1789.17,-473.44C1777.75,-469.4 1764.98,-465.33 1753,-462.5 1719.41,-454.58 1709.97,-458.6 1676,-452.5 1642.33,-446.46 1634.82,-440.36 1601,-435.25 1464.22,-414.58 1303.27,-405.97 1208.77,-402.49"/>
<polygon fill="black" stroke="black" points="1208.93,-398.99 1198.81,-402.13 1208.68,-405.99 1208.93,-398.99"/>
</g>
<!-- copyShiftFactor -->
<g id="node30" class="node">
<title>copyShiftFactor</title>
<polygon fill="lightseagreen" stroke="black" points="1646.88,-417.25 1513.12,-417.25 1513.12,-381.25 1646.88,-381.25 1646.88,-417.25"/>
<text text-anchor="middle" x="1580" y="-394.57" font-family="Helvetica,sans-Serif" font-size="14.00">Copy Shift Factor</text>
</g>
<!-- shiftFactor&#45;&gt;copyShiftFactor -->
<g id="edge39" class="edge">
<title>shiftFactor&#45;&gt;copyShiftFactor</title>
<path fill="none" stroke="black" d="M1786.72,-473.87C1747.35,-459.85 1685.48,-437.81 1639.68,-421.5"/>
<polygon fill="black" stroke="black" points="1641.01,-418.26 1630.42,-418.2 1638.66,-424.86 1641.01,-418.26"/>
</g>
<!-- outputWorkspace -->
<g id="node12" class="node">
<title>outputWorkspace</title>
<ellipse fill="khaki" stroke="black" cx="472" cy="-18" rx="98.56" ry="18"/>
<text text-anchor="middle" x="472" y="-13.32" font-family="Helvetica,sans-Serif" font-size="14.00">OutputWorkspace</text>
</g>
<!-- outScaleFactor -->
<g id="node13" class="node">
<title>outScaleFactor</title>
<ellipse fill="khaki" stroke="black" cx="889" cy="-326.25" rx="84.35" ry="18"/>
<text text-anchor="middle" x="889" y="-321.57" font-family="Helvetica,sans-Serif" font-size="14.00">OutScaleFactor</text>
</g>
<!-- outScaleFactor&#45;&gt;calculateMergedQ -->
<g id="edge42" class="edge">
<title>outScaleFactor&#45;&gt;calculateMergedQ</title>
<path fill="none" stroke="black" d="M870.75,-308.42C861.37,-299.77 849.75,-289.06 839.32,-279.44"/>
<polygon fill="black" stroke="black" points="841.76,-276.93 832.03,-272.72 837.01,-282.07 841.76,-276.93"/>
</g>
<!-- outScaleFactor&#45;&gt;calculateMergedQCan -->
<g id="edge44" class="edge">
<title>outScaleFactor&#45;&gt;calculateMergedQCan</title>
<path fill="none" stroke="black" d="M856.02,-343.28C820.5,-361.76 763.87,-394.82 725,-435.25 699.37,-461.91 710.77,-483.26 682,-506.5 668.22,-517.63 576.7,-547.4 511.01,-567.87"/>
<polygon fill="black" stroke="black" points="510.26,-564.44 501.75,-570.75 512.34,-571.12 510.26,-564.44"/>
</g>
<!-- outShiftFactor -->
<g id="node14" class="node">
<title>outShiftFactor</title>
<ellipse fill="khaki" stroke="black" cx="1128" cy="-326.25" rx="80.67" ry="18"/>
<text text-anchor="middle" x="1128" y="-321.57" font-family="Helvetica,sans-Serif" font-size="14.00">OutShiftFactor</text>
</g>
<!-- outShiftFactor&#45;&gt;calculateMergedQ -->
<g id="edge43" class="edge">
<title>outShiftFactor&#45;&gt;calculateMergedQ</title>
<path fill="none" stroke="black" d="M1072.6,-312.8C1024.74,-302.05 954.75,-286.32 899.36,-273.88"/>
<polygon fill="black" stroke="black" points="900.13,-270.46 889.61,-271.69 898.6,-277.29 900.13,-270.46"/>
</g>
<!-- mode -->
<g id="node15" class="node">
<title>mode</title>
<ellipse fill="khaki" stroke="black" cx="1580" cy="-589.62" rx="37.53" ry="18"/>
<text text-anchor="middle" x="1580" y="-584.95" font-family="Helvetica,sans-Serif" font-size="14.00">Mode</text>
</g>
<!-- checkModeForFit -->
<g id="node17" class="node">
<title>checkModeForFit</title>
<polygon fill="limegreen" stroke="black" points="1580,-506.5 1416.06,-488.5 1580,-470.5 1743.94,-488.5 1580,-506.5"/>
<text text-anchor="middle" x="1580" y="-483.82" font-family="Helvetica,sans-Serif" font-size="14.00">Mode Requires Fitting</text>
</g>
<!-- mode&#45;&gt;checkModeForFit -->
<g id="edge28" class="edge">
<title>mode&#45;&gt;checkModeForFit</title>
<path fill="none" stroke="black" d="M1580,-571.36C1580,-556.74 1580,-535.47 1580,-518.28"/>
<polygon fill="black" stroke="black" points="1583.5,-518.41 1580,-508.41 1576.5,-518.41 1583.5,-518.41"/>
</g>
<!-- readCanInputs -->
<g id="node29" class="node">
<title>readCanInputs</title>
<polygon fill="lightseagreen" stroke="black" points="436.38,-765.5 305.62,-765.5 305.62,-729.5 436.38,-729.5 436.38,-765.5"/>
<text text-anchor="middle" x="371" y="-742.83" font-family="Helvetica,sans-Serif" font-size="14.00">Read Can Inputs</text>
</g>
<!-- checkProcessCan&#45;&gt;readCanInputs -->
<g id="edge27" class="edge">
<title>checkProcessCan&#45;&gt;readCanInputs</title>
<path fill="none" stroke="black" d="M371,-866.78C371,-844.18 371,-804.49 371,-777.37"/>
<polygon fill="black" stroke="black" points="374.5,-777.42 371,-767.42 367.5,-777.42 374.5,-777.42"/>
<text text-anchor="middle" x="383" y="-835.95" font-family="Helvetica,sans-Serif" font-size="14.00">yes</text>
</g>
<!-- checkModeForFit&#45;&gt;sansFitShiftScale -->
<g id="edge29" class="edge">
<title>checkModeForFit&#45;&gt;sansFitShiftScale</title>
<path fill="none" stroke="black" d="M1539.03,-474.58C1500.61,-462.87 1441.39,-445.88 1389,-435.25 1329,-423.08 1260.34,-414.06 1208.51,-408.23"/>
<polygon fill="black" stroke="black" points="1209.21,-404.79 1198.89,-407.17 1208.44,-411.75 1209.21,-404.79"/>
<text text-anchor="middle" x="1469" y="-439.2" font-family="Helvetica,sans-Serif" font-size="14.00">yes</text>
</g>
<!-- checkModeForFit&#45;&gt;copyShiftFactor -->
<g id="edge37" class="edge">
<title>checkModeForFit&#45;&gt;copyShiftFactor</title>
<path fill="none" stroke="black" d="M1580,-470.26C1580,-458.43 1580,-442.45 1580,-428.75"/>
<polygon fill="black" stroke="black" points="1583.5,-428.97 1580,-418.97 1576.5,-428.97 1583.5,-428.97"/>
<text text-anchor="middle" x="1588.62" y="-439.2" font-family="Helvetica,sans-Serif" font-size="14.00">no</text>
</g>
<!-- checkModeForFit&#45;&gt;copyScaleFactor -->
<g id="edge36" class="edge">
<title>checkModeForFit&#45;&gt;copyScaleFactor</title>
<path fill="none" stroke="black" d="M1512.68,-477.39C1480.69,-472.68 1441.9,-467.12 1407,-462.5 1252.51,-442.06 1071.7,-420.98 969.74,-409.35"/>
<polygon fill="black" stroke="black" points="970.44,-405.9 960.11,-408.25 969.65,-412.86 970.44,-405.9"/>
<text text-anchor="middle" x="1330.62" y="-439.2" font-family="Helvetica,sans-Serif" font-size="14.00">no</text>
</g>
<!-- subtractCanHAB -->
<g id="node22" class="node">
<title>subtractCanHAB</title>
<path fill="lightskyblue" stroke="black" d="M567.62,-506.5C567.62,-506.5 516.38,-506.5 516.38,-506.5 510.38,-506.5 504.38,-500.5 504.38,-494.5 504.38,-494.5 504.38,-482.5 504.38,-482.5 504.38,-476.5 510.38,-470.5 516.38,-470.5 516.38,-470.5 567.62,-470.5 567.62,-470.5 573.62,-470.5 579.62,-476.5 579.62,-482.5 579.62,-482.5 579.62,-494.5 579.62,-494.5 579.62,-500.5 573.62,-506.5 567.62,-506.5"/>
<text text-anchor="middle" x="542" y="-483.82" font-family="Helvetica,sans-Serif" font-size="14.00">Subtract</text>
</g>
<!-- divideHABSample&#45;&gt;subtractCanHAB -->
<g id="edge23" class="edge">
<title>divideHABSample&#45;&gt;subtractCanHAB</title>
<path fill="none" stroke="black" d="M906.27,-575.7C827.59,-562.27 704.61,-539.07 590.97,-507.16"/>
<polygon fill="black" stroke="black" points="592.04,-503.83 581.46,-504.46 590.13,-510.56 592.04,-503.83"/>
</g>
<!-- valQHAB -->
<g id="node33" class="node">
<title>valQHAB</title>
<polygon fill="grey" stroke="black" points="1170.24,-506.5 999.64,-506.5 955.76,-470.5 1126.36,-470.5 1170.24,-506.5"/>
<text text-anchor="middle" x="1063" y="-482.32" font-family="Times,serif" font-size="14.00">HAB Normalized</text>
</g>
<!-- divideHABSample&#45;&gt;valQHAB -->
<g id="edge21" class="edge">
<title>divideHABSample&#45;&gt;valQHAB</title>
<path fill="none" stroke="black" d="M1037.44,-559.34C1043.39,-554.13 1048.82,-548.25 1053,-541.75 1057.5,-534.75 1060.07,-526.22 1061.51,-518.09"/>
<polygon fill="black" stroke="black" points="1064.98,-518.55 1062.73,-508.2 1058.03,-517.7 1064.98,-518.55"/>
<text text-anchor="middle" x="1139.62" y="-528.45" font-family="Helvetica,sans-Serif" font-size="14.00">If can is not processed.</text>
</g>
<!-- subtractCanLAB -->
<g id="node23" class="node">
<title>subtractCanLAB</title>
<path fill="lightskyblue" stroke="black" d="M660.62,-506.5C660.62,-506.5 609.38,-506.5 609.38,-506.5 603.38,-506.5 597.38,-500.5 597.38,-494.5 597.38,-494.5 597.38,-482.5 597.38,-482.5 597.38,-476.5 603.38,-470.5 609.38,-470.5 609.38,-470.5 660.62,-470.5 660.62,-470.5 666.62,-470.5 672.62,-476.5 672.62,-482.5 672.62,-482.5 672.62,-494.5 672.62,-494.5 672.62,-500.5 666.62,-506.5 660.62,-506.5"/>
<text text-anchor="middle" x="635" y="-483.82" font-family="Helvetica,sans-Serif" font-size="14.00">Subtract</text>
</g>
<!-- divideLABSample&#45;&gt;subtractCanLAB -->
<g id="edge24" class="edge">
<title>divideLABSample&#45;&gt;subtractCanLAB</title>
<path fill="none" stroke="black" d="M1349.23,-559.39C1312.16,-546.25 1266.36,-532.04 1224,-524.5 1036.56,-491.14 985.87,-520.5 796,-506.5 758.43,-503.73 716.06,-499.2 684.22,-495.51"/>
<polygon fill="black" stroke="black" points="684.84,-492.06 674.5,-494.37 684.03,-499.01 684.84,-492.06"/>
</g>
<!-- valQLAB -->
<g id="node32" class="node">
<title>valQLAB</title>
<polygon fill="grey" stroke="black" points="1398.14,-506.5 1230.88,-506.5 1187.86,-470.5 1355.12,-470.5 1398.14,-506.5"/>
<text text-anchor="middle" x="1293" y="-482.32" font-family="Times,serif" font-size="14.00">LAB Normalized</text>
</g>
<!-- divideLABSample&#45;&gt;valQLAB -->
<g id="edge20" class="edge">
<title>divideLABSample&#45;&gt;valQLAB</title>
<path fill="none" stroke="black" d="M1385.4,-559.42C1366.12,-544.83 1343.08,-527.39 1324.83,-513.58"/>
<polygon fill="black" stroke="black" points="1327.06,-510.88 1316.97,-507.64 1322.83,-516.46 1327.06,-510.88"/>
<text text-anchor="middle" x="1438.62" y="-528.45" font-family="Helvetica,sans-Serif" font-size="14.00">If can is not processed.</text>
</g>
<!-- divideHABCan&#45;&gt;subtractCanHAB -->
<g id="edge9" class="edge">
<title>divideHABCan&#45;&gt;subtractCanHAB</title>
<path fill="none" stroke="black" d="M333.64,-562C378.35,-547.09 435.18,-527.9 493.38,-507.39"/>
<polygon fill="black" stroke="black" points="494.19,-510.82 502.45,-504.19 491.85,-504.22 494.19,-510.82"/>
</g>
<!-- divideLABCan&#45;&gt;subtractCanLAB -->
<g id="edge10" class="edge">
<title>divideLABCan&#45;&gt;subtractCanLAB</title>
<path fill="none" stroke="black" d="M633.59,-559.42C633.85,-546.3 634.17,-530.88 634.43,-517.87"/>
<polygon fill="black" stroke="black" points="637.92,-518.31 634.62,-508.24 630.92,-518.16 637.92,-518.31"/>
</g>
<!-- subtractCanHAB&#45;&gt;valQHAB -->
<g id="edge25" class="edge">
<title>subtractCanHAB&#45;&gt;valQHAB</title>
<path fill="none" stroke="black" d="M579.94,-504.09C582.64,-504.97 585.35,-505.79 588,-506.5 670.88,-528.75 693.3,-529.15 778.88,-535.65 838.37,-540.16 854.15,-544.7 913.12,-535.65 944.66,-530.8 978.67,-520.54 1006.31,-510.83"/>
<polygon fill="black" stroke="black" points="1007.3,-514.19 1015.53,-507.51 1004.94,-507.6 1007.3,-514.19"/>
<text text-anchor="middle" x="846" y="-528.45" font-family="Helvetica,sans-Serif" font-size="14.00">If can is processed.</text>
</g>
<!-- subtractCanLAB&#45;&gt;valQLAB -->
<g id="edge26" class="edge">
<title>subtractCanLAB&#45;&gt;valQLAB</title>
<path fill="none" stroke="black" d="M672.92,-498.13C746.14,-515.53 912.13,-549.22 1052.12,-535.65 1107.88,-530.24 1169.89,-517.95 1217.03,-507.28"/>
<polygon fill="black" stroke="black" points="1217.63,-510.73 1226.6,-505.09 1216.07,-503.91 1217.63,-510.73"/>
<text text-anchor="middle" x="985" y="-528.45" font-family="Helvetica,sans-Serif" font-size="14.00">If can is processed.</text>
</g>
<!-- sansFitShiftScale&#45;&gt;outScaleFactor -->
<g id="edge35" class="edge">
<title>sansFitShiftScale&#45;&gt;outScaleFactor</title>
<path fill="none" stroke="black" d="M1069.23,-380.79C1032.12,-369.77 984.37,-355.58 947.34,-344.58"/>
<polygon fill="black" stroke="black" points="948.74,-341.35 938.16,-341.85 946.75,-348.06 948.74,-341.35"/>
</g>
<!-- sansFitShiftScale&#45;&gt;outShiftFactor -->
<g id="edge34" class="edge">
<title>sansFitShiftScale&#45;&gt;outShiftFactor</title>
<path fill="none" stroke="black" d="M1128,-381.06C1128,-373.48 1128,-364.35 1128,-355.79"/>
<polygon fill="black" stroke="black" points="1131.5,-355.79 1128,-345.79 1124.5,-355.79 1131.5,-355.79"/>
</g>
<!-- subtractMerged -->
<g id="node25" class="node">
<title>subtractMerged</title>
<path fill="lightskyblue" stroke="black" d="M474.62,-506.5C474.62,-506.5 423.38,-506.5 423.38,-506.5 417.38,-506.5 411.38,-500.5 411.38,-494.5 411.38,-494.5 411.38,-482.5 411.38,-482.5 411.38,-476.5 417.38,-470.5 423.38,-470.5 423.38,-470.5 474.62,-470.5 474.62,-470.5 480.62,-470.5 486.62,-476.5 486.62,-482.5 486.62,-482.5 486.62,-494.5 486.62,-494.5 486.62,-500.5 480.62,-506.5 474.62,-506.5"/>
<text text-anchor="middle" x="449" y="-483.82" font-family="Helvetica,sans-Serif" font-size="14.00">Subtract</text>
</g>
<!-- mergedQ -->
<g id="node34" class="node">
<title>mergedQ</title>
<polygon fill="grey" stroke="black" points="526.79,-182 439.63,-182 417.21,-146 504.37,-146 526.79,-182"/>
<text text-anchor="middle" x="472" y="-157.82" font-family="Times,serif" font-size="14.00">Merged</text>
</g>
<!-- subtractMerged&#45;&gt;mergedQ -->
<g id="edge51" class="edge">
<title>subtractMerged&#45;&gt;mergedQ</title>
<path fill="none" stroke="black" d="M451.21,-470.15C453.27,-452.57 456,-424.56 456,-400.25 456,-400.25 456,-400.25 456,-252.25 456,-232.23 460.13,-210.04 464.19,-193.05"/>
<polygon fill="black" stroke="black" points="467.5,-194.23 466.57,-183.68 460.71,-192.51 467.5,-194.23"/>
<text text-anchor="middle" x="536.62" y="-321.57" font-family="Helvetica,sans-Serif" font-size="14.00">If can is not processed.</text>
</g>
<!-- errorCorrection -->
<g id="node26" class="node">
<title>errorCorrection</title>
<polygon fill="lightseagreen" stroke="black" points="602.62,-109 341.38,-109 341.38,-73 602.62,-73 602.62,-109"/>
<text text-anchor="middle" x="472" y="-86.33" font-family="Helvetica,sans-Serif" font-size="14.00">Error Correction Merged Workspace</text>
</g>
<!-- errorCorrection&#45;&gt;outputWorkspace -->
<g id="edge53" class="edge">
<title>errorCorrection&#45;&gt;outputWorkspace</title>
<path fill="none" stroke="black" d="M472,-72.81C472,-65.23 472,-56.1 472,-47.54"/>
<polygon fill="black" stroke="black" points="475.5,-47.54 472,-37.54 468.5,-47.54 475.5,-47.54"/>
</g>
<!-- calculateMergedQ&#45;&gt;subtractMerged -->
<g id="edge49" class="edge">
<title>calculateMergedQ&#45;&gt;subtractMerged</title>
<path fill="none" stroke="black" d="M762.73,-271.68C750.15,-276.77 736.84,-282.74 725,-289.25 628.84,-342.12 526.7,-422.83 478.04,-463"/>
<polygon fill="black" stroke="black" points="475.94,-460.2 470.48,-469.28 480.41,-465.59 475.94,-460.2"/>
</g>
<!-- calculateMergedQ&#45;&gt;mergedQ -->
<g id="edge50" class="edge">
<title>calculateMergedQ&#45;&gt;mergedQ</title>
<path fill="none" stroke="black" d="M744.01,-234.8C683.48,-219.27 595.56,-196.71 536.2,-181.48"/>
<polygon fill="black" stroke="black" points="537.12,-178.1 526.56,-179 535.38,-184.88 537.12,-178.1"/>
<text text-anchor="middle" x="739.12" y="-203.95" font-family="Helvetica,sans-Serif" font-size="14.00">If can is processed.</text>
</g>
<!-- calculateMergedQCan&#45;&gt;subtractMerged -->
<g id="edge15" class="edge">
<title>calculateMergedQCan&#45;&gt;subtractMerged</title>
<path fill="none" stroke="black" d="M444.05,-571.36C444.93,-556.74 446.22,-535.47 447.26,-518.28"/>
<polygon fill="black" stroke="black" points="450.74,-518.6 447.86,-508.41 443.76,-518.18 450.74,-518.6"/>
</g>
<!-- readCanInputs&#45;&gt;hABCountsCan -->
<g id="edge1" class="edge">
<title>readCanInputs&#45;&gt;hABCountsCan</title>
<path fill="none" stroke="black" d="M305.3,-729.22C262.31,-717.92 206.46,-703.23 164.02,-692.07"/>
<polygon fill="black" stroke="black" points="165.01,-688.71 154.45,-689.56 163.23,-695.48 165.01,-688.71"/>
</g>
<!-- readCanInputs&#45;&gt;lABCountsCan -->
<g id="edge2" class="edge">
<title>readCanInputs&#45;&gt;lABCountsCan</title>
<path fill="none" stroke="black" d="M392.54,-729.31C403.78,-720.35 417.7,-709.25 429.97,-699.46"/>
<polygon fill="black" stroke="black" points="432.14,-702.2 437.78,-693.23 427.78,-696.73 432.14,-702.2"/>
</g>
<!-- readCanInputs&#45;&gt;hABNormCan -->
<g id="edge3" class="edge">
<title>readCanInputs&#45;&gt;hABNormCan</title>
<path fill="none" stroke="black" d="M349.21,-729.31C337.74,-720.26 323.5,-709.03 311,-699.17"/>
<polygon fill="black" stroke="black" points="313.48,-696.67 303.46,-693.22 309.15,-702.16 313.48,-696.67"/>
</g>
<!-- readCanInputs&#45;&gt;lABNormCan -->
<g id="edge4" class="edge">
<title>readCanInputs&#45;&gt;lABNormCan</title>
<path fill="none" stroke="black" d="M436.41,-729.04C479.48,-717.54 535.43,-702.61 577.29,-691.44"/>
<polygon fill="black" stroke="black" points="577.93,-694.89 586.69,-688.93 576.13,-688.12 577.93,-694.89"/>
</g>
<!-- copyShiftFactor&#45;&gt;outShiftFactor -->
<g id="edge41" class="edge">
<title>copyShiftFactor&#45;&gt;outShiftFactor</title>
<path fill="none" stroke="black" d="M1512.82,-387.7C1430.21,-374.72 1290.35,-352.75 1203.92,-339.18"/>
<polygon fill="black" stroke="black" points="1204.53,-335.73 1194.11,-337.63 1203.45,-342.64 1204.53,-335.73"/>
</g>
<!-- copyScaleFactor&#45;&gt;outScaleFactor -->
<g id="edge40" class="edge">
<title>copyScaleFactor&#45;&gt;outScaleFactor</title>
<path fill="none" stroke="black" d="M889,-381.06C889,-373.48 889,-364.35 889,-355.79"/>
<polygon fill="black" stroke="black" points="892.5,-355.79 889,-345.79 885.5,-355.79 892.5,-355.79"/>
</g>
<!-- valQLAB&#45;&gt;sansFitShiftScale -->
<g id="edge31" class="edge">
<title>valQLAB&#45;&gt;sansFitShiftScale</title>
<path fill="none" stroke="black" d="M1260.01,-470.05C1234.38,-456.5 1198.63,-437.6 1170.8,-422.88"/>
<polygon fill="black" stroke="black" points="1172.75,-419.95 1162.27,-418.37 1169.48,-426.14 1172.75,-419.95"/>
</g>
<!-- valQHAB&#45;&gt;sansFitShiftScale -->
<g id="edge30" class="edge">
<title>valQHAB&#45;&gt;sansFitShiftScale</title>
<path fill="none" stroke="black" d="M1075.84,-470.26C1085.19,-457.71 1098.01,-440.5 1108.61,-426.28"/>
<polygon fill="black" stroke="black" points="1111.11,-428.78 1114.28,-418.67 1105.5,-424.59 1111.11,-428.78"/>
</g>
<!-- mergedQ&#45;&gt;errorCorrection -->
<g id="edge52" class="edge">
<title>mergedQ&#45;&gt;errorCorrection</title>
<path fill="none" stroke="black" d="M472,-145.81C472,-138.23 472,-129.1 472,-120.54"/>
<polygon fill="black" stroke="black" points="475.5,-120.54 472,-110.54 468.5,-120.54 475.5,-120.54"/>
</g>
</g>
</svg>
