<?xml version="1.0" encoding="UTF-8" standalone="no"?>
<!DOCTYPE svg PUBLIC "-//W3C//DTD SVG 1.1//EN"
 "http://www.w3.org/Graphics/SVG/1.1/DTD/svg11.dtd">
<!-- Generated by graphviz version 13.1.2 (20250809.0930)
 -->
<!-- Title: SansStitch Pages: 1 -->
<svg width="2063pt" height="1010pt"
 viewBox="0.00 0.00 2063.00 1010.00" xmlns="http://www.w3.org/2000/svg" xmlns:xlink="http://www.w3.org/1999/xlink">
<g id="graph0" class="graph" transform="scale(1 1) rotate(0) translate(4 1005.5)">
<title>SansStitch</title>
<polygon fill="white" stroke="none" points="-4,4 -4,-1005.5 2058.66,-1005.5 2058.66,4 -4,4"/>
<text xml:space="preserve" text-anchor="middle" x="1027.33" y="-984.2" font-family="Helvetica,sans-Serif" font-size="14.00">SANSStitch Flowchart</text>
<g id="clust5" class="cluster">
<title>cluster</title>
<polygon fill="none" stroke="blue" points="8,-462.5 8,-824 721,-824 721,-462.5 8,-462.5"/>
<text xml:space="preserve" text-anchor="middle" x="364.5" y="-806.7" font-family="Helvetica,sans-Serif" font-size="14.00">Can Processing</text>
</g>
<!-- hABCountsSample -->
<g id="node1" class="node">
<title>hABCountsSample</title>
<ellipse fill="khaki" stroke="black" cx="1172" cy="-674.5" rx="102.24" ry="18"/>
<text xml:space="preserve" text-anchor="middle" x="1172" y="-669.83" font-family="Helvetica,sans-Serif" font-size="14.00">HABCountsSample</text>
</g>
<!-- divideHABSample -->
<g id="node18" class="node">
<title>divideHABSample</title>
<path fill="lightskyblue" stroke="black" d="M1126.38,-619.5C1126.38,-619.5 989.62,-619.5 989.62,-619.5 983.62,-619.5 977.62,-613.5 977.62,-607.5 977.62,-607.5 977.62,-571.75 977.62,-571.75 977.62,-565.75 983.62,-559.75 989.62,-559.75 989.62,-559.75 1126.38,-559.75 1126.38,-559.75 1132.38,-559.75 1138.38,-565.75 1138.38,-571.75 1138.38,-571.75 1138.38,-607.5 1138.38,-607.5 1138.38,-613.5 1132.38,-619.5 1126.38,-619.5"/>
<text xml:space="preserve" text-anchor="middle" x="1058" y="-602.2" font-family="Helvetica,sans-Serif" font-size="14.00">Divide</text>
<text xml:space="preserve" text-anchor="middle" x="1058" y="-584.95" font-family="Helvetica,sans-Serif" font-size="14.00">HAB sample</text>
<text xml:space="preserve" text-anchor="middle" x="1058" y="-567.7" font-family="Helvetica,sans-Serif" font-size="14.00">counts/normalization</text>
</g>
<!-- hABCountsSample&#45;&gt;divideHABSample -->
<g id="edge16" class="edge">
<title>hABCountsSample&#45;&gt;divideHABSample</title>
<path fill="none" stroke="black" d="M1148.66,-656.53C1136.79,-647.91 1121.9,-637.08 1107.63,-626.71"/>
<polygon fill="black" stroke="black" points="1109.76,-623.92 1099.61,-620.87 1105.64,-629.59 1109.76,-623.92"/>
</g>
<!-- calculateMergedQ -->
<g id="node27" class="node">
<title>calculateMergedQ</title>
<polygon fill="lightseagreen" stroke="black" points="886.88,-271.25 735.12,-271.25 735.12,-235.25 886.88,-235.25 886.88,-271.25"/>
<text xml:space="preserve" text-anchor="middle" x="811" y="-248.57" font-family="Helvetica,sans-Serif" font-size="14.00">Calculate Merged Q</text>
</g>
<!-- hABCountsSample&#45;&gt;calculateMergedQ -->
<g id="edge45" class="edge">
<title>hABCountsSample&#45;&gt;calculateMergedQ</title>
<path fill="none" stroke="black" d="M1188.13,-656.42C1214.91,-626.03 1262.18,-562.23 1226,-524.5 1192.9,-489.99 833.87,-535.7 796,-506.5 773.3,-489 777,-473.54 777,-444.88 777,-444.88 777,-444.88 777,-325.25 777,-309.61 783.79,-293.77 791.3,-281.03"/>
<polygon fill="black" stroke="black" points="794.12,-283.13 796.55,-272.82 788.22,-279.36 794.12,-283.13"/>
</g>
<!-- lABCountsSample -->
<g id="node2" class="node">
<title>lABCountsSample</title>
<ellipse fill="khaki" stroke="black" cx="1954" cy="-674.5" rx="100.66" ry="18"/>
<text xml:space="preserve" text-anchor="middle" x="1954" y="-669.83" font-family="Helvetica,sans-Serif" font-size="14.00">LABCountsSample</text>
</g>
<!-- divideLABSample -->
<g id="node19" class="node">
<title>divideLABSample</title>
<path fill="lightskyblue" stroke="black" d="M1492.38,-619.5C1492.38,-619.5 1355.62,-619.5 1355.62,-619.5 1349.62,-619.5 1343.62,-613.5 1343.62,-607.5 1343.62,-607.5 1343.62,-571.75 1343.62,-571.75 1343.62,-565.75 1349.62,-559.75 1355.62,-559.75 1355.62,-559.75 1492.38,-559.75 1492.38,-559.75 1498.38,-559.75 1504.38,-565.75 1504.38,-571.75 1504.38,-571.75 1504.38,-607.5 1504.38,-607.5 1504.38,-613.5 1498.38,-619.5 1492.38,-619.5"/>
<text xml:space="preserve" text-anchor="middle" x="1424" y="-602.2" font-family="Helvetica,sans-Serif" font-size="14.00">Divide</text>
<text xml:space="preserve" text-anchor="middle" x="1424" y="-584.95" font-family="Helvetica,sans-Serif" font-size="14.00">LAB sample</text>
<text xml:space="preserve" text-anchor="middle" x="1424" y="-567.7" font-family="Helvetica,sans-Serif" font-size="14.00">counts/normalization</text>
</g>
<!-- lABCountsSample&#45;&gt;divideLABSample -->
<g id="edge18" class="edge">
<title>lABCountsSample&#45;&gt;divideLABSample</title>
<path fill="none" stroke="black" d="M1865.57,-665.57C1780,-657.09 1646.9,-641.79 1533,-619.5 1527.38,-618.4 1521.62,-617.17 1515.83,-615.87"/>
<polygon fill="black" stroke="black" points="1516.69,-612.47 1506.15,-613.61 1515.09,-619.29 1516.69,-612.47"/>
</g>
<!-- lABCountsSample&#45;&gt;calculateMergedQ -->
<g id="edge47" class="edge">
<title>lABCountsSample&#45;&gt;calculateMergedQ</title>
<path fill="none" stroke="black" d="M1958,-656.14C1961.49,-639.45 1966,-613.45 1966,-590.62 1966,-590.62 1966,-590.62 1966,-325.25 1966,-271.81 1167.79,-258.15 898.5,-255.07"/>
<polygon fill="black" stroke="black" points="898.78,-251.57 888.74,-254.96 898.7,-258.57 898.78,-251.57"/>
</g>
<!-- hABNormSample -->
<g id="node3" class="node">
<title>hABNormSample</title>
<ellipse fill="khaki" stroke="black" cx="949" cy="-674.5" rx="94.88" ry="18"/>
<text xml:space="preserve" text-anchor="middle" x="949" y="-669.83" font-family="Helvetica,sans-Serif" font-size="14.00">HABNormSample</text>
</g>
<!-- hABNormSample&#45;&gt;divideHABSample -->
<g id="edge17" class="edge">
<title>hABNormSample&#45;&gt;divideHABSample</title>
<path fill="none" stroke="black" d="M971.32,-656.53C982.66,-647.91 996.9,-637.08 1010.54,-626.71"/>
<polygon fill="black" stroke="black" points="1012.34,-629.74 1018.18,-620.9 1008.1,-624.17 1012.34,-629.74"/>
</g>
<!-- hABNormSample&#45;&gt;calculateMergedQ -->
<g id="edge46" class="edge">
<title>hABNormSample&#45;&gt;calculateMergedQ</title>
<path fill="none" stroke="black" d="M905.74,-658.07C844.27,-633.04 739,-577.36 739,-489.5 739,-489.5 739,-489.5 739,-325.25 739,-305.73 752.58,-289.78 767.94,-277.97"/>
<polygon fill="black" stroke="black" points="769.72,-281 775.87,-272.37 765.68,-275.28 769.72,-281"/>
</g>
<!-- lABNormSample -->
<g id="node4" class="node">
<title>lABNormSample</title>
<ellipse fill="khaki" stroke="black" cx="1662" cy="-674.5" rx="93.3" ry="18"/>
<text xml:space="preserve" text-anchor="middle" x="1662" y="-669.83" font-family="Helvetica,sans-Serif" font-size="14.00">LABNormSample</text>
</g>
<!-- lABNormSample&#45;&gt;divideLABSample -->
<g id="edge19" class="edge">
<title>lABNormSample&#45;&gt;divideLABSample</title>
<path fill="none" stroke="black" d="M1618.07,-658.2C1589.34,-648.2 1550.75,-634.76 1515.55,-622.5"/>
<polygon fill="black" stroke="black" points="1516.77,-619.22 1506.18,-619.24 1514.47,-625.83 1516.77,-619.22"/>
</g>
<!-- lABNormSample&#45;&gt;calculateMergedQ -->
<g id="edge48" class="edge">
<title>lABNormSample&#45;&gt;calculateMergedQ</title>
<path fill="none" stroke="black" d="M1737.86,-663.66C1812.71,-651.76 1916,-628.49 1916,-590.62 1916,-590.62 1916,-590.62 1916,-325.25 1916,-274.34 1159.27,-259.07 898.26,-255.31"/>
<polygon fill="black" stroke="black" points="898.51,-251.82 888.46,-255.18 898.41,-258.82 898.51,-251.82"/>
</g>
<!-- hABCountsCan -->
<g id="node5" class="node">
<title>hABCountsCan</title>
<ellipse fill="khaki" stroke="black" cx="101" cy="-674.5" rx="84.88" ry="18"/>
<text xml:space="preserve" text-anchor="middle" x="101" y="-669.83" font-family="Helvetica,sans-Serif" font-size="14.00">HABCountsCan</text>
</g>
<!-- divideHABCan -->
<g id="node20" class="node">
<title>divideHABCan</title>
<path fill="lightskyblue" stroke="black" d="M321.38,-619.5C321.38,-619.5 184.62,-619.5 184.62,-619.5 178.62,-619.5 172.62,-613.5 172.62,-607.5 172.62,-607.5 172.62,-571.75 172.62,-571.75 172.62,-565.75 178.62,-559.75 184.62,-559.75 184.62,-559.75 321.38,-559.75 321.38,-559.75 327.38,-559.75 333.38,-565.75 333.38,-571.75 333.38,-571.75 333.38,-607.5 333.38,-607.5 333.38,-613.5 327.38,-619.5 321.38,-619.5"/>
<text xml:space="preserve" text-anchor="middle" x="253" y="-602.2" font-family="Helvetica,sans-Serif" font-size="14.00">Divide</text>
<text xml:space="preserve" text-anchor="middle" x="253" y="-584.95" font-family="Helvetica,sans-Serif" font-size="14.00">HAB can</text>
<text xml:space="preserve" text-anchor="middle" x="253" y="-567.7" font-family="Helvetica,sans-Serif" font-size="14.00">counts/normalization</text>
</g>
<!-- hABCountsCan&#45;&gt;divideHABCan -->
<g id="edge5" class="edge">
<title>hABCountsCan&#45;&gt;divideHABCan</title>
<path fill="none" stroke="black" d="M130.67,-657.32C147.45,-648.18 169.1,-636.37 189.51,-625.24"/>
<polygon fill="black" stroke="black" points="190.98,-628.43 198.08,-620.57 187.62,-622.28 190.98,-628.43"/>
</g>
<!-- calculateMergedQCan -->
<g id="node28" class="node">
<title>calculateMergedQCan</title>
<polygon fill="lightseagreen" stroke="black" points="534.62,-607.62 351.38,-607.62 351.38,-571.62 534.62,-571.62 534.62,-607.62"/>
<text xml:space="preserve" text-anchor="middle" x="443" y="-584.95" font-family="Helvetica,sans-Serif" font-size="14.00">Calculate Merged Q Can</text>
</g>
<!-- hABCountsCan&#45;&gt;calculateMergedQCan -->
<g id="edge11" class="edge">
<title>hABCountsCan&#45;&gt;calculateMergedQCan</title>
<path fill="none" stroke="black" d="M160.16,-661.25C209.09,-650.87 280.3,-635.22 342,-619.5 352.17,-616.91 362.86,-614.03 373.34,-611.11"/>
<polygon fill="black" stroke="black" points="374.01,-614.56 382.68,-608.48 372.11,-607.82 374.01,-614.56"/>
</g>
<!-- lABCountsCan -->
<g id="node6" class="node">
<title>lABCountsCan</title>
<ellipse fill="khaki" stroke="black" cx="460" cy="-674.5" rx="83.3" ry="18"/>
<text xml:space="preserve" text-anchor="middle" x="460" y="-669.83" font-family="Helvetica,sans-Serif" font-size="14.00">LABCountsCan</text>
</g>
<!-- divideLABCan -->
<g id="node21" class="node">
<title>divideLABCan</title>
<path fill="lightskyblue" stroke="black" d="M701.38,-619.5C701.38,-619.5 564.62,-619.5 564.62,-619.5 558.62,-619.5 552.62,-613.5 552.62,-607.5 552.62,-607.5 552.62,-571.75 552.62,-571.75 552.62,-565.75 558.62,-559.75 564.62,-559.75 564.62,-559.75 701.38,-559.75 701.38,-559.75 707.38,-559.75 713.38,-565.75 713.38,-571.75 713.38,-571.75 713.38,-607.5 713.38,-607.5 713.38,-613.5 707.38,-619.5 701.38,-619.5"/>
<text xml:space="preserve" text-anchor="middle" x="633" y="-602.2" font-family="Helvetica,sans-Serif" font-size="14.00">Divide</text>
<text xml:space="preserve" text-anchor="middle" x="633" y="-584.95" font-family="Helvetica,sans-Serif" font-size="14.00">LAB can</text>
<text xml:space="preserve" text-anchor="middle" x="633" y="-567.7" font-family="Helvetica,sans-Serif" font-size="14.00">counts/normalization</text>
</g>
<!-- lABCountsCan&#45;&gt;divideLABCan -->
<g id="edge7" class="edge">
<title>lABCountsCan&#45;&gt;divideLABCan</title>
<path fill="none" stroke="black" d="M492.95,-657.72C512.42,-648.39 537.86,-636.2 561.71,-624.78"/>
<polygon fill="black" stroke="black" points="562.94,-628.07 570.45,-620.59 559.92,-621.75 562.94,-628.07"/>
</g>
<!-- lABCountsCan&#45;&gt;calculateMergedQCan -->
<g id="edge13" class="edge">
<title>lABCountsCan&#45;&gt;calculateMergedQCan</title>
<path fill="none" stroke="black" d="M456.48,-656.33C454.28,-645.62 451.4,-631.58 448.87,-619.22"/>
<polygon fill="black" stroke="black" points="452.32,-618.64 446.88,-609.54 445.46,-620.04 452.32,-618.64"/>
</g>
<!-- hABNormCan -->
<g id="node7" class="node">
<title>hABNormCan</title>
<ellipse fill="khaki" stroke="black" cx="281" cy="-674.5" rx="77.51" ry="18"/>
<text xml:space="preserve" text-anchor="middle" x="281" y="-669.83" font-family="Helvetica,sans-Serif" font-size="14.00">HABNormCan</text>
</g>
<!-- hABNormCan&#45;&gt;divideHABCan -->
<g id="edge6" class="edge">
<title>hABNormCan&#45;&gt;divideHABCan</title>
<path fill="none" stroke="black" d="M275.2,-656.33C272.67,-648.85 269.59,-639.73 266.54,-630.71"/>
<polygon fill="black" stroke="black" points="269.88,-629.64 263.36,-621.29 263.24,-631.88 269.88,-629.64"/>
</g>
<!-- hABNormCan&#45;&gt;calculateMergedQCan -->
<g id="edge12" class="edge">
<title>hABNormCan&#45;&gt;calculateMergedQCan</title>
<path fill="none" stroke="black" d="M311.85,-657.72C336.44,-645.14 371.18,-627.37 398.73,-613.27"/>
<polygon fill="black" stroke="black" points="400.25,-616.43 407.55,-608.76 397.06,-610.2 400.25,-616.43"/>
</g>
<!-- lABNormCan -->
<g id="node8" class="node">
<title>lABNormCan</title>
<ellipse fill="khaki" stroke="black" cx="637" cy="-674.5" rx="75.94" ry="18"/>
<text xml:space="preserve" text-anchor="middle" x="637" y="-669.83" font-family="Helvetica,sans-Serif" font-size="14.00">LABNormCan</text>
</g>
<!-- lABNormCan&#45;&gt;divideLABCan -->
<g id="edge8" class="edge">
<title>lABNormCan&#45;&gt;divideLABCan</title>
<path fill="none" stroke="black" d="M636.17,-656.33C635.82,-649.01 635.39,-640.13 634.96,-631.3"/>
<polygon fill="black" stroke="black" points="638.46,-631.18 634.48,-621.36 631.47,-631.52 638.46,-631.18"/>
</g>
<!-- lABNormCan&#45;&gt;calculateMergedQCan -->
<g id="edge14" class="edge">
<title>lABNormCan&#45;&gt;calculateMergedQCan</title>
<path fill="none" stroke="black" d="M601.42,-658.3C571.28,-645.43 527.71,-626.81 493.89,-612.36"/>
<polygon fill="black" stroke="black" points="495.69,-609.33 485.12,-608.62 492.94,-615.77 495.69,-609.33"/>
</g>
<!-- processCan -->
<g id="node9" class="node">
<title>processCan</title>
<ellipse fill="khaki" stroke="black" cx="370" cy="-958.25" rx="66.99" ry="18"/>
<text xml:space="preserve" text-anchor="middle" x="370" y="-953.58" font-family="Helvetica,sans-Serif" font-size="14.00">ProcessCan</text>
</g>
<!-- checkProcessCan -->
<g id="node16" class="node">
<title>checkProcessCan</title>
<polygon fill="limegreen" stroke="black" points="370,-903.25 238.8,-885.25 370,-867.25 501.2,-885.25 370,-903.25"/>
<text xml:space="preserve" text-anchor="middle" x="370" y="-880.58" font-family="Helvetica,sans-Serif" font-size="14.00">Process the can?</text>
</g>
<!-- processCan&#45;&gt;checkProcessCan -->
<g id="edge22" class="edge">
<title>processCan&#45;&gt;checkProcessCan</title>
<path fill="none" stroke="black" d="M370,-940.06C370,-932.48 370,-923.35 370,-914.79"/>
<polygon fill="black" stroke="black" points="373.5,-914.79 370,-904.79 366.5,-914.79 373.5,-914.79"/>
</g>
<!-- scaleFactor -->
<g id="node10" class="node">
<title>scaleFactor</title>
<ellipse fill="khaki" stroke="black" cx="871" cy="-488.5" rx="66.47" ry="18"/>
<text xml:space="preserve" text-anchor="middle" x="871" y="-483.82" font-family="Helvetica,sans-Serif" font-size="14.00">ScaleFactor</text>
</g>
<!-- sansFitShiftScale -->
<g id="node24" class="node">
<title>sansFitShiftScale</title>
<path fill="lightskyblue" stroke="black" d="M1185.12,-417.25C1185.12,-417.25 1070.88,-417.25 1070.88,-417.25 1064.88,-417.25 1058.88,-411.25 1058.88,-405.25 1058.88,-405.25 1058.88,-393.25 1058.88,-393.25 1058.88,-387.25 1064.88,-381.25 1070.88,-381.25 1070.88,-381.25 1185.12,-381.25 1185.12,-381.25 1191.12,-381.25 1197.12,-387.25 1197.12,-393.25 1197.12,-393.25 1197.12,-405.25 1197.12,-405.25 1197.12,-411.25 1191.12,-417.25 1185.12,-417.25"/>
<text xml:space="preserve" text-anchor="middle" x="1128" y="-394.57" font-family="Helvetica,sans-Serif" font-size="14.00">SANSFitShiftScale</text>
</g>
<!-- scaleFactor&#45;&gt;sansFitShiftScale -->
<g id="edge32" class="edge">
<title>scaleFactor&#45;&gt;sansFitShiftScale</title>
<path fill="none" stroke="black" d="M911.44,-473.77C952.88,-459.7 1017.86,-437.64 1065.84,-421.35"/>
<polygon fill="black" stroke="black" points="1066.95,-424.67 1075.29,-418.14 1064.7,-418.04 1066.95,-424.67"/>
</g>
<!-- copyScaleFactor -->
<g id="node31" class="node">
<title>copyScaleFactor</title>
<polygon fill="lightseagreen" stroke="black" points="958.5,-417.25 819.5,-417.25 819.5,-381.25 958.5,-381.25 958.5,-417.25"/>
<text xml:space="preserve" text-anchor="middle" x="889" y="-394.57" font-family="Helvetica,sans-Serif" font-size="14.00">Copy Scale Factor</text>
</g>
<!-- scaleFactor&#45;&gt;copyScaleFactor -->
<g id="edge38" class="edge">
<title>scaleFactor&#45;&gt;copyScaleFactor</title>
<path fill="none" stroke="black" d="M874.56,-470.26C877.02,-458.31 880.36,-442.13 883.21,-428.33"/>
<polygon fill="black" stroke="black" points="886.55,-429.44 885.15,-418.93 879.7,-428.02 886.55,-429.44"/>
</g>
<!-- shiftFactor -->
<g id="node11" class="node">
<title>shiftFactor</title>
<ellipse fill="khaki" stroke="black" cx="1825" cy="-488.5" rx="62.78" ry="18"/>
<text xml:space="preserve" text-anchor="middle" x="1825" y="-483.82" font-family="Helvetica,sans-Serif" font-size="14.00">ShiftFactor</text>
</g>
<!-- shiftFactor&#45;&gt;sansFitShiftScale -->
<g id="edge33" class="edge">
<title>shiftFactor&#45;&gt;sansFitShiftScale</title>
<path fill="none" stroke="black" d="M1789.17,-473.45C1777.75,-469.41 1764.97,-465.34 1753,-462.5 1719.85,-454.65 1710.54,-458.5 1677,-452.5 1642.9,-446.4 1635.26,-440.38 1601,-435.25 1464.19,-414.78 1303.25,-406.1 1208.76,-402.56"/>
<polygon fill="black" stroke="black" points="1208.93,-399.06 1198.8,-402.2 1208.67,-406.06 1208.93,-399.06"/>
</g>
<!-- copyShiftFactor -->
<g id="node30" class="node">
<title>copyShiftFactor</title>
<polygon fill="lightseagreen" stroke="black" points="1646.88,-417.25 1513.12,-417.25 1513.12,-381.25 1646.88,-381.25 1646.88,-417.25"/>
<text xml:space="preserve" text-anchor="middle" x="1580" y="-394.57" font-family="Helvetica,sans-Serif" font-size="14.00">Copy Shift Factor</text>
</g>
<!-- shiftFactor&#45;&gt;copyShiftFactor -->
<g id="edge39" class="edge">
<title>shiftFactor&#45;&gt;copyShiftFactor</title>
<path fill="none" stroke="black" d="M1786.72,-473.87C1747.35,-459.85 1685.48,-437.81 1639.68,-421.5"/>
<polygon fill="black" stroke="black" points="1641.01,-418.26 1630.42,-418.2 1638.66,-424.86 1641.01,-418.26"/>
</g>
<!-- outputWorkspace -->
<g id="node12" class="node">
<title>outputWorkspace</title>
<ellipse fill="khaki" stroke="black" cx="472" cy="-18" rx="98.56" ry="18"/>
<text xml:space="preserve" text-anchor="middle" x="472" y="-13.32" font-family="Helvetica,sans-Serif" font-size="14.00">OutputWorkspace</text>
</g>
<!-- outScaleFactor -->
<g id="node13" class="node">
<title>outScaleFactor</title>
<ellipse fill="khaki" stroke="black" cx="889" cy="-326.25" rx="84.35" ry="18"/>
<text xml:space="preserve" text-anchor="middle" x="889" y="-321.57" font-family="Helvetica,sans-Serif" font-size="14.00">OutScaleFactor</text>
</g>
<!-- outScaleFactor&#45;&gt;calculateMergedQ -->
<g id="edge42" class="edge">
<title>outScaleFactor&#45;&gt;calculateMergedQ</title>
<path fill="none" stroke="black" d="M870.52,-308.42C861.01,-299.77 849.24,-289.06 838.68,-279.44"/>
<polygon fill="black" stroke="black" points="841.04,-276.86 831.29,-272.72 836.33,-282.04 841.04,-276.86"/>
</g>
<!-- outScaleFactor&#45;&gt;calculateMergedQCan -->
<g id="edge44" class="edge">
<title>outScaleFactor&#45;&gt;calculateMergedQCan</title>
<path fill="none" stroke="black" d="M856.02,-343.28C820.5,-361.76 763.87,-394.82 725,-435.25 699.37,-461.91 710.77,-483.26 682,-506.5 668.22,-517.63 576.7,-547.4 511.01,-567.87"/>
<polygon fill="black" stroke="black" points="510.26,-564.44 501.75,-570.75 512.34,-571.12 510.26,-564.44"/>
</g>
<!-- outShiftFactor -->
<g id="node14" class="node">
<title>outShiftFactor</title>
<ellipse fill="khaki" stroke="black" cx="1128" cy="-326.25" rx="80.67" ry="18"/>
<text xml:space="preserve" text-anchor="middle" x="1128" y="-321.57" font-family="Helvetica,sans-Serif" font-size="14.00">OutShiftFactor</text>
</g>
<!-- outShiftFactor&#45;&gt;calculateMergedQ -->
<g id="edge43" class="edge">
<title>outShiftFactor&#45;&gt;calculateMergedQ</title>
<path fill="none" stroke="black" d="M1072.42,-312.8C1024.31,-302.03 953.91,-286.26 898.29,-273.8"/>
<polygon fill="black" stroke="black" points="899.37,-270.46 888.85,-271.69 897.84,-277.29 899.37,-270.46"/>
</g>
<!-- mode -->
<g id="node15" class="node">
<title>mode</title>
<ellipse fill="khaki" stroke="black" cx="1580" cy="-589.62" rx="37.53" ry="18"/>
<text xml:space="preserve" text-anchor="middle" x="1580" y="-584.95" font-family="Helvetica,sans-Serif" font-size="14.00">Mode</text>
</g>
<!-- checkModeForFit -->
<g id="node17" class="node">
<title>checkModeForFit</title>
<polygon fill="limegreen" stroke="black" points="1580,-506.5 1416.06,-488.5 1580,-470.5 1743.94,-488.5 1580,-506.5"/>
<text xml:space="preserve" text-anchor="middle" x="1580" y="-483.82" font-family="Helvetica,sans-Serif" font-size="14.00">Mode Requires Fitting</text>
</g>
<!-- mode&#45;&gt;checkModeForFit -->
<g id="edge28" class="edge">
<title>mode&#45;&gt;checkModeForFit</title>
<path fill="none" stroke="black" d="M1580,-571.36C1580,-556.74 1580,-535.47 1580,-518.28"/>
<polygon fill="black" stroke="black" points="1583.5,-518.41 1580,-508.41 1576.5,-518.41 1583.5,-518.41"/>
</g>
<!-- readCanInputs -->
<g id="node29" class="node">
<title>readCanInputs</title>
<polygon fill="lightseagreen" stroke="black" points="435.38,-765.5 304.62,-765.5 304.62,-729.5 435.38,-729.5 435.38,-765.5"/>
<text xml:space="preserve" text-anchor="middle" x="370" y="-742.83" font-family="Helvetica,sans-Serif" font-size="14.00">Read Can Inputs</text>
</g>
<!-- checkProcessCan&#45;&gt;readCanInputs -->
<g id="edge27" class="edge">
<title>checkProcessCan&#45;&gt;readCanInputs</title>
<path fill="none" stroke="black" d="M370,-866.78C370,-844.18 370,-804.49 370,-777.37"/>
<polygon fill="black" stroke="black" points="373.5,-777.42 370,-767.42 366.5,-777.42 373.5,-777.42"/>
<text xml:space="preserve" text-anchor="middle" x="382" y="-835.95" font-family="Helvetica,sans-Serif" font-size="14.00">yes</text>
</g>
<!-- checkModeForFit&#45;&gt;sansFitShiftScale -->
<g id="edge29" class="edge">
<title>checkModeForFit&#45;&gt;sansFitShiftScale</title>
<path fill="none" stroke="black" d="M1539.03,-474.58C1500.61,-462.87 1441.39,-445.88 1389,-435.25 1329,-423.08 1260.34,-414.06 1208.51,-408.23"/>
<polygon fill="black" stroke="black" points="1209.21,-404.79 1198.89,-407.17 1208.44,-411.75 1209.21,-404.79"/>
<text xml:space="preserve" text-anchor="middle" x="1469.86" y="-439.2" font-family="Helvetica,sans-Serif" font-size="14.00">yes</text>
</g>
<!-- checkModeForFit&#45;&gt;copyShiftFactor -->
<g id="edge37" class="edge">
<title>checkModeForFit&#45;&gt;copyShiftFactor</title>
<path fill="none" stroke="black" d="M1580,-470.26C1580,-458.43 1580,-442.45 1580,-428.75"/>
<polygon fill="black" stroke="black" points="1583.5,-428.97 1580,-418.97 1576.5,-428.97 1583.5,-428.97"/>
<text xml:space="preserve" text-anchor="middle" x="1588.62" y="-439.2" font-family="Helvetica,sans-Serif" font-size="14.00">no</text>
</g>
<!-- checkModeForFit&#45;&gt;copyScaleFactor -->
<g id="edge36" class="edge">
<title>checkModeForFit&#45;&gt;copyScaleFactor</title>
<path fill="none" stroke="black" d="M1512.68,-477.39C1480.69,-472.68 1441.9,-467.12 1407,-462.5 1252.51,-442.06 1071.7,-420.98 969.74,-409.35"/>
<polygon fill="black" stroke="black" points="970.44,-405.9 960.11,-408.25 969.65,-412.86 970.44,-405.9"/>
<text xml:space="preserve" text-anchor="middle" x="1330.95" y="-439.2" font-family="Helvetica,sans-Serif" font-size="14.00">no</text>
</g>
<!-- subtractCanHAB -->
<g id="node22" class="node">
<title>subtractCanHAB</title>
<path fill="lightskyblue" stroke="black" d="M567.62,-506.5C567.62,-506.5 516.38,-506.5 516.38,-506.5 510.38,-506.5 504.38,-500.5 504.38,-494.5 504.38,-494.5 504.38,-482.5 504.38,-482.5 504.38,-476.5 510.38,-470.5 516.38,-470.5 516.38,-470.5 567.62,-470.5 567.62,-470.5 573.62,-470.5 579.62,-476.5 579.62,-482.5 579.62,-482.5 579.62,-494.5 579.62,-494.5 579.62,-500.5 573.62,-506.5 567.62,-506.5"/>
<text xml:space="preserve" text-anchor="middle" x="542" y="-483.82" font-family="Helvetica,sans-Serif" font-size="14.00">Subtract</text>
</g>
<!-- divideHABSample&#45;&gt;subtractCanHAB -->
<g id="edge23" class="edge">
<title>divideHABSample&#45;&gt;subtractCanHAB</title>
<path fill="none" stroke="black" d="M977.13,-579.28C885.05,-567.57 730.27,-544.65 590.85,-507.07"/>
<polygon fill="black" stroke="black" points="592.02,-503.76 581.45,-504.51 590.18,-510.52 592.02,-503.76"/>
</g>
<!-- valQHAB -->
<g id="node33" class="node">
<title>valQHAB</title>
<polygon fill="grey" stroke="black" points="1170.24,-506.5 999.64,-506.5 955.76,-470.5 1126.36,-470.5 1170.24,-506.5"/>
<text xml:space="preserve" text-anchor="middle" x="1063" y="-482.32" font-family="Times,serif" font-size="14.00">HAB Normalized</text>
</g>
<!-- divideHABSample&#45;&gt;valQHAB -->
<g id="edge21" class="edge">
<title>divideHABSample&#45;&gt;valQHAB</title>
<path fill="none" stroke="black" d="M1059.47,-559.42C1060.13,-546.3 1060.91,-530.88 1061.57,-517.87"/>
<polygon fill="black" stroke="black" points="1065.05,-518.4 1062.05,-508.24 1058.06,-518.05 1065.05,-518.4"/>
<text xml:space="preserve" text-anchor="middle" x="1141.72" y="-528.45" font-family="Helvetica,sans-Serif" font-size="14.00">If can is not processed.</text>
</g>
<!-- subtractCanLAB -->
<g id="node23" class="node">
<title>subtractCanLAB</title>
<path fill="lightskyblue" stroke="black" d="M660.62,-506.5C660.62,-506.5 609.38,-506.5 609.38,-506.5 603.38,-506.5 597.38,-500.5 597.38,-494.5 597.38,-494.5 597.38,-482.5 597.38,-482.5 597.38,-476.5 603.38,-470.5 609.38,-470.5 609.38,-470.5 660.62,-470.5 660.62,-470.5 666.62,-470.5 672.62,-476.5 672.62,-482.5 672.62,-482.5 672.62,-494.5 672.62,-494.5 672.62,-500.5 666.62,-506.5 660.62,-506.5"/>
<text xml:space="preserve" text-anchor="middle" x="635" y="-483.82" font-family="Helvetica,sans-Serif" font-size="14.00">Subtract</text>
</g>
<!-- divideLABSample&#45;&gt;subtractCanLAB -->
<g id="edge24" class="edge">
<title>divideLABSample&#45;&gt;subtractCanLAB</title>
<path fill="none" stroke="black" d="M1350.01,-559.38C1313.31,-546.24 1267.97,-532.03 1226,-524.5 1037.73,-490.72 986.76,-520.55 796,-506.5 758.43,-503.73 716.06,-499.2 684.22,-495.51"/>
<polygon fill="black" stroke="black" points="684.84,-492.06 674.5,-494.38 684.03,-499.02 684.84,-492.06"/>
</g>
<!-- valQLAB -->
<g id="node32" class="node">
<title>valQLAB</title>
<polygon fill="grey" stroke="black" points="1398.14,-506.5 1230.88,-506.5 1187.86,-470.5 1355.12,-470.5 1398.14,-506.5"/>
<text xml:space="preserve" text-anchor="middle" x="1293" y="-482.32" font-family="Times,serif" font-size="14.00">LAB Normalized</text>
</g>
<!-- divideLABSample&#45;&gt;valQLAB -->
<g id="edge20" class="edge">
<title>divideLABSample&#45;&gt;valQLAB</title>
<path fill="none" stroke="black" d="M1385.4,-559.42C1366.12,-544.83 1343.08,-527.39 1324.83,-513.58"/>
<polygon fill="black" stroke="black" points="1327.06,-510.88 1316.97,-507.64 1322.83,-516.46 1327.06,-510.88"/>
<text xml:space="preserve" text-anchor="middle" x="1439.12" y="-528.45" font-family="Helvetica,sans-Serif" font-size="14.00">If can is not processed.</text>
</g>
<!-- divideHABCan&#45;&gt;subtractCanHAB -->
<g id="edge9" class="edge">
<title>divideHABCan&#45;&gt;subtractCanHAB</title>
<path fill="none" stroke="black" d="M333.64,-562C378.35,-547.09 435.18,-527.9 493.38,-507.39"/>
<polygon fill="black" stroke="black" points="494.19,-510.82 502.45,-504.19 491.85,-504.22 494.19,-510.82"/>
</g>
<!-- divideLABCan&#45;&gt;subtractCanLAB -->
<g id="edge10" class="edge">
<title>divideLABCan&#45;&gt;subtractCanLAB</title>
<path fill="none" stroke="black" d="M633.59,-559.42C633.85,-546.3 634.17,-530.88 634.43,-517.87"/>
<polygon fill="black" stroke="black" points="637.92,-518.31 634.62,-508.24 630.92,-518.16 637.92,-518.31"/>
</g>
<!-- subtractCanHAB&#45;&gt;valQHAB -->
<g id="edge25" class="edge">
<title>subtractCanHAB&#45;&gt;valQHAB</title>
<path fill="none" stroke="black" d="M579.94,-504.09C582.64,-504.97 585.35,-505.79 588,-506.5 670.88,-528.75 693.3,-529.15 778.88,-535.65 838.37,-540.16 854.15,-544.7 913.12,-535.65 944.66,-530.8 978.67,-520.54 1006.31,-510.83"/>
<polygon fill="black" stroke="black" points="1007.3,-514.19 1015.53,-507.51 1004.94,-507.6 1007.3,-514.19"/>
<text xml:space="preserve" text-anchor="middle" x="846" y="-528.45" font-family="Helvetica,sans-Serif" font-size="14.00">If can is processed.</text>
</g>
<!-- subtractCanLAB&#45;&gt;valQLAB -->
<g id="edge26" class="edge">
<title>subtractCanLAB&#45;&gt;valQLAB</title>
<path fill="none" stroke="black" d="M672.92,-498.13C746.14,-515.53 912.13,-549.22 1052.12,-535.65 1107.88,-530.24 1169.89,-517.95 1217.03,-507.28"/>
<polygon fill="black" stroke="black" points="1217.63,-510.73 1226.6,-505.09 1216.07,-503.91 1217.63,-510.73"/>
<text xml:space="preserve" text-anchor="middle" x="985" y="-528.45" font-family="Helvetica,sans-Serif" font-size="14.00">If can is processed.</text>
</g>
<!-- sansFitShiftScale&#45;&gt;outScaleFactor -->
<g id="edge35" class="edge">
<title>sansFitShiftScale&#45;&gt;outScaleFactor</title>
<path fill="none" stroke="black" d="M1069.23,-380.79C1032.12,-369.77 984.37,-355.58 947.34,-344.58"/>
<polygon fill="black" stroke="black" points="948.74,-341.35 938.16,-341.85 946.75,-348.06 948.74,-341.35"/>
</g>
<!-- sansFitShiftScale&#45;&gt;outShiftFactor -->
<g id="edge34" class="edge">
<title>sansFitShiftScale&#45;&gt;outShiftFactor</title>
<path fill="none" stroke="black" d="M1128,-381.06C1128,-373.48 1128,-364.35 1128,-355.79"/>
<polygon fill="black" stroke="black" points="1131.5,-355.79 1128,-345.79 1124.5,-355.79 1131.5,-355.79"/>
</g>
<!-- subtractMerged -->
<g id="node25" class="node">
<title>subtractMerged</title>
<path fill="lightskyblue" stroke="black" d="M474.62,-506.5C474.62,-506.5 423.38,-506.5 423.38,-506.5 417.38,-506.5 411.38,-500.5 411.38,-494.5 411.38,-494.5 411.38,-482.5 411.38,-482.5 411.38,-476.5 417.38,-470.5 423.38,-470.5 423.38,-470.5 474.62,-470.5 474.62,-470.5 480.62,-470.5 486.62,-476.5 486.62,-482.5 486.62,-482.5 486.62,-494.5 486.62,-494.5 486.62,-500.5 480.62,-506.5 474.62,-506.5"/>
<text xml:space="preserve" text-anchor="middle" x="449" y="-483.82" font-family="Helvetica,sans-Serif" font-size="14.00">Subtract</text>
</g>
<!-- mergedQ -->
<g id="node34" class="node">
<title>mergedQ</title>
<polygon fill="grey" stroke="black" points="526.79,-182 439.63,-182 417.21,-146 504.37,-146 526.79,-182"/>
<text xml:space="preserve" text-anchor="middle" x="472" y="-157.82" font-family="Times,serif" font-size="14.00">Merged</text>
</g>
<!-- subtractMerged&#45;&gt;mergedQ -->
<g id="edge51" class="edge">
<title>subtractMerged&#45;&gt;mergedQ</title>
<path fill="none" stroke="black" d="M451.21,-470.15C453.27,-452.57 456,-424.56 456,-400.25 456,-400.25 456,-400.25 456,-252.25 456,-232.23 460.13,-210.04 464.19,-193.05"/>
<polygon fill="black" stroke="black" points="467.5,-194.23 466.57,-183.68 460.71,-192.51 467.5,-194.23"/>
<text xml:space="preserve" text-anchor="middle" x="536.62" y="-321.57" font-family="Helvetica,sans-Serif" font-size="14.00">If can is not processed.</text>
</g>
<!-- errorCorrection -->
<g id="node26" class="node">
<title>errorCorrection</title>
<polygon fill="lightseagreen" stroke="black" points="602.62,-109 341.38,-109 341.38,-73 602.62,-73 602.62,-109"/>
<text xml:space="preserve" text-anchor="middle" x="472" y="-86.33" font-family="Helvetica,sans-Serif" font-size="14.00">Error Correction Merged Workspace</text>
</g>
<!-- errorCorrection&#45;&gt;outputWorkspace -->
<g id="edge53" class="edge">
<title>errorCorrection&#45;&gt;outputWorkspace</title>
<path fill="none" stroke="black" d="M472,-72.81C472,-65.23 472,-56.1 472,-47.54"/>
<polygon fill="black" stroke="black" points="475.5,-47.54 472,-37.54 468.5,-47.54 475.5,-47.54"/>
</g>
<!-- calculateMergedQ&#45;&gt;subtractMerged -->
<g id="edge49" class="edge">
<title>calculateMergedQ&#45;&gt;subtractMerged</title>
<path fill="none" stroke="black" d="M762.3,-271.73C749.87,-276.83 736.71,-282.78 725,-289.25 629.18,-342.18 527.28,-422.53 478.44,-462.74"/>
<polygon fill="black" stroke="black" points="476.31,-459.96 470.84,-469.04 480.77,-465.35 476.31,-459.96"/>
</g>
<!-- calculateMergedQ&#45;&gt;mergedQ -->
<g id="edge50" class="edge">
<title>calculateMergedQ&#45;&gt;mergedQ</title>
<path fill="none" stroke="black" d="M743.21,-234.8C682.95,-219.29 595.46,-196.78 536.28,-181.54"/>
<polygon fill="black" stroke="black" points="537.23,-178.17 526.67,-179.07 535.49,-184.95 537.23,-178.17"/>
<text xml:space="preserve" text-anchor="middle" x="738.99" y="-203.95" font-family="Helvetica,sans-Serif" font-size="14.00">If can is processed.</text>
</g>
<!-- calculateMergedQCan&#45;&gt;subtractMerged -->
<g id="edge15" class="edge">
<title>calculateMergedQCan&#45;&gt;subtractMerged</title>
<path fill="none" stroke="black" d="M444.05,-571.36C444.93,-556.74 446.22,-535.47 447.26,-518.28"/>
<polygon fill="black" stroke="black" points="450.74,-518.6 447.86,-508.41 443.76,-518.18 450.74,-518.6"/>
</g>
<!-- readCanInputs&#45;&gt;hABCountsCan -->
<g id="edge1" class="edge">
<title>readCanInputs&#45;&gt;hABCountsCan</title>
<path fill="none" stroke="black" d="M304.2,-729.13C261.36,-717.83 205.82,-703.17 163.63,-692.03"/>
<polygon fill="black" stroke="black" points="164.69,-688.69 154.13,-689.52 162.9,-695.46 164.69,-688.69"/>
</g>
<!-- readCanInputs&#45;&gt;lABCountsCan -->
<g id="edge2" class="edge">
<title>readCanInputs&#45;&gt;lABCountsCan</title>
<path fill="none" stroke="black" d="M391.79,-729.31C403.26,-720.26 417.5,-709.03 430,-699.17"/>
<polygon fill="black" stroke="black" points="431.85,-702.16 437.54,-693.22 427.52,-696.67 431.85,-702.16"/>
</g>
<!-- readCanInputs&#45;&gt;hABNormCan -->
<g id="edge3" class="edge">
<title>readCanInputs&#45;&gt;hABNormCan</title>
<path fill="none" stroke="black" d="M348.46,-729.31C337.22,-720.35 323.3,-709.25 311.03,-699.46"/>
<polygon fill="black" stroke="black" points="313.22,-696.73 303.22,-693.23 308.86,-702.2 313.22,-696.73"/>
</g>
<!-- readCanInputs&#45;&gt;lABNormCan -->
<g id="edge4" class="edge">
<title>readCanInputs&#45;&gt;lABNormCan</title>
<path fill="none" stroke="black" d="M435.66,-729.04C478.89,-717.54 535.05,-702.61 577.07,-691.44"/>
<polygon fill="black" stroke="black" points="577.75,-694.88 586.51,-688.93 575.95,-688.11 577.75,-694.88"/>
</g>
<!-- copyShiftFactor&#45;&gt;outShiftFactor -->
<g id="edge41" class="edge">
<title>copyShiftFactor&#45;&gt;outShiftFactor</title>
<path fill="none" stroke="black" d="M1512.82,-387.7C1430.21,-374.72 1290.35,-352.75 1203.92,-339.18"/>
<polygon fill="black" stroke="black" points="1204.53,-335.73 1194.11,-337.63 1203.45,-342.64 1204.53,-335.73"/>
</g>
<!-- copyScaleFactor&#45;&gt;outScaleFactor -->
<g id="edge40" class="edge">
<title>copyScaleFactor&#45;&gt;outScaleFactor</title>
<path fill="none" stroke="black" d="M889,-381.06C889,-373.48 889,-364.35 889,-355.79"/>
<polygon fill="black" stroke="black" points="892.5,-355.79 889,-345.79 885.5,-355.79 892.5,-355.79"/>
</g>
<!-- valQLAB&#45;&gt;sansFitShiftScale -->
<g id="edge31" class="edge">
<title>valQLAB&#45;&gt;sansFitShiftScale</title>
<path fill="none" stroke="black" d="M1260.01,-470.05C1234.38,-456.5 1198.63,-437.6 1170.8,-422.88"/>
<polygon fill="black" stroke="black" points="1172.75,-419.95 1162.27,-418.37 1169.48,-426.14 1172.75,-419.95"/>
</g>
<!-- valQHAB&#45;&gt;sansFitShiftScale -->
<g id="edge30" class="edge">
<title>valQHAB&#45;&gt;sansFitShiftScale</title>
<path fill="none" stroke="black" d="M1075.84,-470.26C1085.19,-457.71 1098.01,-440.5 1108.61,-426.28"/>
<polygon fill="black" stroke="black" points="1111.11,-428.78 1114.28,-418.67 1105.5,-424.59 1111.11,-428.78"/>
</g>
<!-- mergedQ&#45;&gt;errorCorrection -->
<g id="edge52" class="edge">
<title>mergedQ&#45;&gt;errorCorrection</title>
<path fill="none" stroke="black" d="M472,-145.81C472,-138.23 472,-129.1 472,-120.54"/>
<polygon fill="black" stroke="black" points="475.5,-120.54 472,-110.54 468.5,-120.54 475.5,-120.54"/>
</g>
</g>
</svg>
