<?xml version="1.0" encoding="UTF-8" standalone="no"?>
<!DOCTYPE svg PUBLIC "-//W3C//DTD SVG 1.1//EN"
 "http://www.w3.org/Graphics/SVG/1.1/DTD/svg11.dtd">
<!-- Generated by graphviz version 7.1.0 (20230122.1345)
 -->
<!-- Title: SansStitch Pages: 1 -->
<svg width="1980pt" height="987pt"
 viewBox="0.00 0.00 1979.59 987.00" xmlns="http://www.w3.org/2000/svg" xmlns:xlink="http://www.w3.org/1999/xlink">
<g id="graph0" class="graph" transform="scale(1 1) rotate(0) translate(4 983)">
<title>SansStitch</title>
<polygon fill="white" stroke="none" points="-4,4 -4,-983 1975.59,-983 1975.59,4 -4,4"/>
<text text-anchor="middle" x="985.8" y="-963.8" font-family="Helvetica,sans-Serif" font-size="14.00">SANSStitch Flowchart</text>
<g id="clust5" class="cluster">
<title>cluster</title>
<polygon fill="none" stroke="blue" points="8,-458 8,-806 676,-806 676,-458 8,-458"/>
<text text-anchor="middle" x="342" y="-790.8" font-family="Helvetica,sans-Serif" font-size="14.00">Can Processing</text>
</g>
<!-- hABCountsSample -->
<g id="node1" class="node">
<title>hABCountsSample</title>
<ellipse fill="khaki" stroke="black" cx="1163" cy="-661" rx="94.78" ry="18"/>
<text text-anchor="middle" x="1163" y="-657.3" font-family="Helvetica,sans-Serif" font-size="14.00">HABCountsSample</text>
</g>
<!-- divideHABSample -->
<g id="node18" class="node">
<title>divideHABSample</title>
<path fill="lightskyblue" stroke="black" d="M1089.5,-606C1089.5,-606 952.5,-606 952.5,-606 946.5,-606 940.5,-600 940.5,-594 940.5,-594 940.5,-565 940.5,-565 940.5,-559 946.5,-553 952.5,-553 952.5,-553 1089.5,-553 1089.5,-553 1095.5,-553 1101.5,-559 1101.5,-565 1101.5,-565 1101.5,-594 1101.5,-594 1101.5,-600 1095.5,-606 1089.5,-606"/>
<text text-anchor="middle" x="1021" y="-590.8" font-family="Helvetica,sans-Serif" font-size="14.00">Divide</text>
<text text-anchor="middle" x="1021" y="-575.8" font-family="Helvetica,sans-Serif" font-size="14.00">HAB sample</text>
<text text-anchor="middle" x="1021" y="-560.8" font-family="Helvetica,sans-Serif" font-size="14.00">counts/normalization</text>
</g>
<!-- hABCountsSample&#45;&gt;divideHABSample -->
<g id="edge16" class="edge">
<title>hABCountsSample&#45;&gt;divideHABSample</title>
<path fill="none" stroke="black" d="M1133.58,-643.53C1117.32,-634.43 1096.57,-622.81 1077.33,-612.04"/>
<polygon fill="black" stroke="black" points="1079.19,-609.07 1068.76,-607.24 1075.77,-615.18 1079.19,-609.07"/>
</g>
<!-- calculateMergedQ -->
<g id="node27" class="node">
<title>calculateMergedQ</title>
<polygon fill="lightseagreen" stroke="black" points="841,-269 689,-269 689,-233 841,-233 841,-269"/>
<text text-anchor="middle" x="765" y="-247.3" font-family="Helvetica,sans-Serif" font-size="14.00">Calculate Merged Q</text>
</g>
<!-- hABCountsSample&#45;&gt;calculateMergedQ -->
<g id="edge45" class="edge">
<title>hABCountsSample&#45;&gt;calculateMergedQ</title>
<path fill="none" stroke="black" d="M1173.07,-642.66C1188.71,-613.18 1213.92,-553.28 1182,-520 1148.82,-485.41 789.04,-531.16 751,-502 728.63,-484.85 732,-469.68 732,-441.5 732,-441.5 732,-441.5 732,-323 732,-307.45 738.59,-291.62 745.88,-278.86"/>
<polygon fill="black" stroke="black" points="748.68,-280.98 750.97,-270.64 742.73,-277.3 748.68,-280.98"/>
</g>
<!-- lABCountsSample -->
<g id="node2" class="node">
<title>lABCountsSample</title>
<ellipse fill="khaki" stroke="black" cx="1878" cy="-661" rx="93.68" ry="18"/>
<text text-anchor="middle" x="1878" y="-657.3" font-family="Helvetica,sans-Serif" font-size="14.00">LABCountsSample</text>
</g>
<!-- divideLABSample -->
<g id="node19" class="node">
<title>divideLABSample</title>
<path fill="lightskyblue" stroke="black" d="M1439.5,-606C1439.5,-606 1302.5,-606 1302.5,-606 1296.5,-606 1290.5,-600 1290.5,-594 1290.5,-594 1290.5,-565 1290.5,-565 1290.5,-559 1296.5,-553 1302.5,-553 1302.5,-553 1439.5,-553 1439.5,-553 1445.5,-553 1451.5,-559 1451.5,-565 1451.5,-565 1451.5,-594 1451.5,-594 1451.5,-600 1445.5,-606 1439.5,-606"/>
<text text-anchor="middle" x="1371" y="-590.8" font-family="Helvetica,sans-Serif" font-size="14.00">Divide</text>
<text text-anchor="middle" x="1371" y="-575.8" font-family="Helvetica,sans-Serif" font-size="14.00">LAB sample</text>
<text text-anchor="middle" x="1371" y="-560.8" font-family="Helvetica,sans-Serif" font-size="14.00">counts/normalization</text>
</g>
<!-- lABCountsSample&#45;&gt;divideLABSample -->
<g id="edge18" class="edge">
<title>lABCountsSample&#45;&gt;divideLABSample</title>
<path fill="none" stroke="black" d="M1798.02,-651.24C1717.8,-641.95 1590.87,-625.89 1482,-606 1475.71,-604.85 1469.23,-603.58 1462.72,-602.25"/>
<polygon fill="black" stroke="black" points="1463.74,-598.89 1453.24,-600.26 1462.31,-605.74 1463.74,-598.89"/>
</g>
<!-- lABCountsSample&#45;&gt;calculateMergedQ -->
<g id="edge47" class="edge">
<title>lABCountsSample&#45;&gt;calculateMergedQ</title>
<path fill="none" stroke="black" d="M1882.47,-642.76C1886.23,-626.75 1891,-602.18 1891,-580.5 1891,-580.5 1891,-580.5 1891,-323 1891,-271.04 1117.2,-256.44 852.53,-252.96"/>
<polygon fill="black" stroke="black" points="852.63,-249.46 842.58,-252.83 852.54,-256.46 852.63,-249.46"/>
</g>
<!-- hABNormSample -->
<g id="node3" class="node">
<title>hABNormSample</title>
<ellipse fill="khaki" stroke="black" cx="962" cy="-661" rx="88.28" ry="18"/>
<text text-anchor="middle" x="962" y="-657.3" font-family="Helvetica,sans-Serif" font-size="14.00">HABNormSample</text>
</g>
<!-- hABNormSample&#45;&gt;divideHABSample -->
<g id="edge17" class="edge">
<title>hABNormSample&#45;&gt;divideHABSample</title>
<path fill="none" stroke="black" d="M974.8,-642.75C980.7,-634.8 987.92,-625.07 994.89,-615.68"/>
<polygon fill="black" stroke="black" points="997.67,-617.81 1000.81,-607.7 992.04,-613.64 997.67,-617.81"/>
</g>
<!-- hABNormSample&#45;&gt;calculateMergedQ -->
<g id="edge46" class="edge">
<title>hABNormSample&#45;&gt;calculateMergedQ</title>
<path fill="none" stroke="black" d="M899.5,-647.98C820.31,-628.71 694,-582.66 694,-485 694,-485 694,-485 694,-323 694,-303.62 707.39,-287.68 722.54,-275.85"/>
<polygon fill="black" stroke="black" points="724.27,-278.92 730.35,-270.25 720.18,-273.23 724.27,-278.92"/>
</g>
<!-- lABNormSample -->
<g id="node4" class="node">
<title>lABNormSample</title>
<ellipse fill="khaki" stroke="black" cx="1551" cy="-661" rx="87.18" ry="18"/>
<text text-anchor="middle" x="1551" y="-657.3" font-family="Helvetica,sans-Serif" font-size="14.00">LABNormSample</text>
</g>
<!-- lABNormSample&#45;&gt;divideLABSample -->
<g id="edge19" class="edge">
<title>lABNormSample&#45;&gt;divideLABSample</title>
<path fill="none" stroke="black" d="M1515.44,-644.29C1493.92,-634.79 1465.74,-622.34 1440,-610.97"/>
<polygon fill="black" stroke="black" points="1441.46,-607.79 1430.9,-606.96 1438.63,-614.2 1441.46,-607.79"/>
</g>
<!-- lABNormSample&#45;&gt;calculateMergedQ -->
<g id="edge48" class="edge">
<title>lABNormSample&#45;&gt;calculateMergedQ</title>
<path fill="none" stroke="black" d="M1631.4,-653.7C1717.22,-644.7 1841,-624.16 1841,-580.5 1841,-580.5 1841,-580.5 1841,-323 1841,-273.59 1109.13,-257.39 852.58,-253.23"/>
<polygon fill="black" stroke="black" points="852.66,-249.73 842.6,-253.07 852.55,-256.73 852.66,-249.73"/>
</g>
<!-- hABCountsCan -->
<g id="node5" class="node">
<title>hABCountsCan</title>
<ellipse fill="khaki" stroke="black" cx="95" cy="-661" rx="79.09" ry="18"/>
<text text-anchor="middle" x="95" y="-657.3" font-family="Helvetica,sans-Serif" font-size="14.00">HABCountsCan</text>
</g>
<!-- divideHABCan -->
<g id="node20" class="node">
<title>divideHABCan</title>
<path fill="lightskyblue" stroke="black" d="M273.5,-606C273.5,-606 136.5,-606 136.5,-606 130.5,-606 124.5,-600 124.5,-594 124.5,-594 124.5,-565 124.5,-565 124.5,-559 130.5,-553 136.5,-553 136.5,-553 273.5,-553 273.5,-553 279.5,-553 285.5,-559 285.5,-565 285.5,-565 285.5,-594 285.5,-594 285.5,-600 279.5,-606 273.5,-606"/>
<text text-anchor="middle" x="205" y="-590.8" font-family="Helvetica,sans-Serif" font-size="14.00">Divide</text>
<text text-anchor="middle" x="205" y="-575.8" font-family="Helvetica,sans-Serif" font-size="14.00">HAB can</text>
<text text-anchor="middle" x="205" y="-560.8" font-family="Helvetica,sans-Serif" font-size="14.00">counts/normalization</text>
</g>
<!-- hABCountsCan&#45;&gt;divideHABCan -->
<g id="edge5" class="edge">
<title>hABCountsCan&#45;&gt;divideHABCan</title>
<path fill="none" stroke="black" d="M118.06,-643.33C130.26,-634.52 145.66,-623.39 160.1,-612.95"/>
<polygon fill="black" stroke="black" points="162.13,-615.8 168.18,-607.11 158.03,-610.13 162.13,-615.8"/>
</g>
<!-- calculateMergedQCan -->
<g id="node28" class="node">
<title>calculateMergedQCan</title>
<polygon fill="lightseagreen" stroke="black" points="488,-597.5 304,-597.5 304,-561.5 488,-561.5 488,-597.5"/>
<text text-anchor="middle" x="396" y="-575.8" font-family="Helvetica,sans-Serif" font-size="14.00">Calculate Merged Q Can</text>
</g>
<!-- hABCountsCan&#45;&gt;calculateMergedQCan -->
<g id="edge11" class="edge">
<title>hABCountsCan&#45;&gt;calculateMergedQCan</title>
<path fill="none" stroke="black" d="M145.38,-646.69C192.74,-634.18 264.32,-615.28 318.87,-600.87"/>
<polygon fill="black" stroke="black" points="319.65,-604.29 328.42,-598.35 317.86,-597.52 319.65,-604.29"/>
</g>
<!-- lABCountsCan -->
<g id="node6" class="node">
<title>lABCountsCan</title>
<ellipse fill="khaki" stroke="black" cx="431" cy="-661" rx="77.19" ry="18"/>
<text text-anchor="middle" x="431" y="-657.3" font-family="Helvetica,sans-Serif" font-size="14.00">LABCountsCan</text>
</g>
<!-- divideLABCan -->
<g id="node21" class="node">
<title>divideLABCan</title>
<path fill="lightskyblue" stroke="black" d="M655.5,-606C655.5,-606 518.5,-606 518.5,-606 512.5,-606 506.5,-600 506.5,-594 506.5,-594 506.5,-565 506.5,-565 506.5,-559 512.5,-553 518.5,-553 518.5,-553 655.5,-553 655.5,-553 661.5,-553 667.5,-559 667.5,-565 667.5,-565 667.5,-594 667.5,-594 667.5,-600 661.5,-606 655.5,-606"/>
<text text-anchor="middle" x="587" y="-590.8" font-family="Helvetica,sans-Serif" font-size="14.00">Divide</text>
<text text-anchor="middle" x="587" y="-575.8" font-family="Helvetica,sans-Serif" font-size="14.00">LAB can</text>
<text text-anchor="middle" x="587" y="-560.8" font-family="Helvetica,sans-Serif" font-size="14.00">counts/normalization</text>
</g>
<!-- lABCountsCan&#45;&gt;divideLABCan -->
<g id="edge7" class="edge">
<title>lABCountsCan&#45;&gt;divideLABCan</title>
<path fill="none" stroke="black" d="M462.19,-644.1C480.46,-634.79 504.17,-622.71 526,-611.58"/>
<polygon fill="black" stroke="black" points="527.54,-614.73 534.86,-607.07 524.36,-608.49 527.54,-614.73"/>
</g>
<!-- lABCountsCan&#45;&gt;calculateMergedQCan -->
<g id="edge13" class="edge">
<title>lABCountsCan&#45;&gt;calculateMergedQCan</title>
<path fill="none" stroke="black" d="M423.41,-642.75C418.99,-632.71 413.31,-619.82 408.27,-608.38"/>
<polygon fill="black" stroke="black" points="411.54,-607.12 404.31,-599.38 405.14,-609.94 411.54,-607.12"/>
</g>
<!-- hABNormCan -->
<g id="node7" class="node">
<title>hABNormCan</title>
<ellipse fill="khaki" stroke="black" cx="264" cy="-661" rx="72.29" ry="18"/>
<text text-anchor="middle" x="264" y="-657.3" font-family="Helvetica,sans-Serif" font-size="14.00">HABNormCan</text>
</g>
<!-- hABNormCan&#45;&gt;divideHABCan -->
<g id="edge6" class="edge">
<title>hABNormCan&#45;&gt;divideHABCan</title>
<path fill="none" stroke="black" d="M251.49,-643.14C245.49,-635.06 238.07,-625.06 230.93,-615.44"/>
<polygon fill="black" stroke="black" points="233.9,-613.57 225.13,-607.63 228.28,-617.75 233.9,-613.57"/>
</g>
<!-- hABNormCan&#45;&gt;calculateMergedQCan -->
<g id="edge12" class="edge">
<title>hABNormCan&#45;&gt;calculateMergedQCan</title>
<path fill="none" stroke="black" d="M290.71,-643.91C309.83,-632.4 335.87,-616.72 357.27,-603.83"/>
<polygon fill="black" stroke="black" points="358.98,-606.88 365.74,-598.72 355.37,-600.89 358.98,-606.88"/>
</g>
<!-- lABNormCan -->
<g id="node8" class="node">
<title>lABNormCan</title>
<ellipse fill="khaki" stroke="black" cx="597" cy="-661" rx="70.69" ry="18"/>
<text text-anchor="middle" x="597" y="-657.3" font-family="Helvetica,sans-Serif" font-size="14.00">LABNormCan</text>
</g>
<!-- lABNormCan&#45;&gt;divideLABCan -->
<g id="edge8" class="edge">
<title>lABNormCan&#45;&gt;divideLABCan</title>
<path fill="none" stroke="black" d="M594.83,-642.75C593.9,-635.38 592.78,-626.48 591.68,-617.74"/>
<polygon fill="black" stroke="black" points="595.18,-617.47 590.46,-607.98 588.23,-618.34 595.18,-617.47"/>
</g>
<!-- lABNormCan&#45;&gt;calculateMergedQCan -->
<g id="edge14" class="edge">
<title>lABNormCan&#45;&gt;calculateMergedQCan</title>
<path fill="none" stroke="black" d="M560.13,-645.42C529.42,-633.27 485.25,-615.8 450.46,-602.04"/>
<polygon fill="black" stroke="black" points="451.98,-598.88 441.4,-598.46 449.41,-605.39 451.98,-598.88"/>
</g>
<!-- processCan -->
<g id="node9" class="node">
<title>processCan</title>
<ellipse fill="khaki" stroke="black" cx="347" cy="-938" rx="62.29" ry="18"/>
<text text-anchor="middle" x="347" y="-934.3" font-family="Helvetica,sans-Serif" font-size="14.00">ProcessCan</text>
</g>
<!-- checkProcessCan -->
<g id="node16" class="node">
<title>checkProcessCan</title>
<polygon fill="limegreen" stroke="black" points="347,-883 224.5,-865 347,-847 469.5,-865 347,-883"/>
<text text-anchor="middle" x="347" y="-861.3" font-family="Helvetica,sans-Serif" font-size="14.00">Process the can?</text>
</g>
<!-- processCan&#45;&gt;checkProcessCan -->
<g id="edge22" class="edge">
<title>processCan&#45;&gt;checkProcessCan</title>
<path fill="none" stroke="black" d="M347,-919.81C347,-912.23 347,-903.1 347,-894.54"/>
<polygon fill="black" stroke="black" points="350.5,-894.54 347,-884.54 343.5,-894.54 350.5,-894.54"/>
</g>
<!-- scaleFactor -->
<g id="node10" class="node">
<title>scaleFactor</title>
<ellipse fill="khaki" stroke="black" cx="822" cy="-484" rx="61.99" ry="18"/>
<text text-anchor="middle" x="822" y="-480.3" font-family="Helvetica,sans-Serif" font-size="14.00">ScaleFactor</text>
</g>
<!-- sansFitShiftScale -->
<g id="node24" class="node">
<title>sansFitShiftScale</title>
<path fill="lightskyblue" stroke="black" d="M1167.5,-415C1167.5,-415 1052.5,-415 1052.5,-415 1046.5,-415 1040.5,-409 1040.5,-403 1040.5,-403 1040.5,-391 1040.5,-391 1040.5,-385 1046.5,-379 1052.5,-379 1052.5,-379 1167.5,-379 1167.5,-379 1173.5,-379 1179.5,-385 1179.5,-391 1179.5,-391 1179.5,-403 1179.5,-403 1179.5,-409 1173.5,-415 1167.5,-415"/>
<text text-anchor="middle" x="1110" y="-393.3" font-family="Helvetica,sans-Serif" font-size="14.00">SANSFitShiftScale</text>
</g>
<!-- scaleFactor&#45;&gt;sansFitShiftScale -->
<g id="edge32" class="edge">
<title>scaleFactor&#45;&gt;sansFitShiftScale</title>
<path fill="none" stroke="black" d="M858.88,-469.25C869.52,-465.44 881.17,-461.42 892,-458 937.53,-443.63 989.01,-429.37 1030.5,-418.36"/>
<polygon fill="black" stroke="black" points="1031.14,-421.81 1039.91,-415.87 1029.35,-415.04 1031.14,-421.81"/>
</g>
<!-- copyScaleFactor -->
<g id="node31" class="node">
<title>copyScaleFactor</title>
<polygon fill="lightseagreen" stroke="black" points="909,-415 769,-415 769,-379 909,-379 909,-415"/>
<text text-anchor="middle" x="839" y="-393.3" font-family="Helvetica,sans-Serif" font-size="14.00">Copy Scale Factor</text>
</g>
<!-- scaleFactor&#45;&gt;copyScaleFactor -->
<g id="edge38" class="edge">
<title>scaleFactor&#45;&gt;copyScaleFactor</title>
<path fill="none" stroke="black" d="M825.44,-465.8C827.68,-454.58 830.67,-439.67 833.26,-426.69"/>
<polygon fill="black" stroke="black" points="836.68,-427.44 835.21,-416.95 829.82,-426.07 836.68,-427.44"/>
</g>
<!-- shiftFactor -->
<g id="node11" class="node">
<title>shiftFactor</title>
<ellipse fill="khaki" stroke="black" cx="1755" cy="-484" rx="58.49" ry="18"/>
<text text-anchor="middle" x="1755" y="-480.3" font-family="Helvetica,sans-Serif" font-size="14.00">ShiftFactor</text>
</g>
<!-- shiftFactor&#45;&gt;sansFitShiftScale -->
<g id="edge33" class="edge">
<title>shiftFactor&#45;&gt;sansFitShiftScale</title>
<path fill="none" stroke="black" d="M1721.37,-468.82C1710.84,-464.83 1699.07,-460.81 1688,-458 1657.11,-450.16 1648.37,-453.61 1617,-448 1586.11,-442.47 1579.04,-437.59 1548,-433 1424.2,-414.68 1279.19,-405.47 1191,-401.21"/>
<polygon fill="black" stroke="black" points="1191.4,-397.73 1181.25,-400.75 1191.07,-404.72 1191.4,-397.73"/>
</g>
<!-- copyShiftFactor -->
<g id="node30" class="node">
<title>copyShiftFactor</title>
<polygon fill="lightseagreen" stroke="black" points="1593,-415 1459,-415 1459,-379 1593,-379 1593,-415"/>
<text text-anchor="middle" x="1526" y="-393.3" font-family="Helvetica,sans-Serif" font-size="14.00">Copy Shift Factor</text>
</g>
<!-- shiftFactor&#45;&gt;copyShiftFactor -->
<g id="edge39" class="edge">
<title>shiftFactor&#45;&gt;copyShiftFactor</title>
<path fill="none" stroke="black" d="M1718.84,-469.49C1708.85,-465.76 1698.01,-461.72 1688,-458 1653.42,-445.15 1614.67,-430.79 1583.75,-419.35"/>
<polygon fill="black" stroke="black" points="1585.16,-416.14 1574.57,-415.95 1582.74,-422.71 1585.16,-416.14"/>
</g>
<!-- outputWorkspace -->
<g id="node12" class="node">
<title>outputWorkspace</title>
<ellipse fill="khaki" stroke="black" cx="425" cy="-18" rx="91.78" ry="18"/>
<text text-anchor="middle" x="425" y="-14.3" font-family="Helvetica,sans-Serif" font-size="14.00">OutputWorkspace</text>
</g>
<!-- outScaleFactor -->
<g id="node13" class="node">
<title>outScaleFactor</title>
<ellipse fill="khaki" stroke="black" cx="839" cy="-324" rx="78.79" ry="18"/>
<text text-anchor="middle" x="839" y="-320.3" font-family="Helvetica,sans-Serif" font-size="14.00">OutScaleFactor</text>
</g>
<!-- outScaleFactor&#45;&gt;calculateMergedQ -->
<g id="edge42" class="edge">
<title>outScaleFactor&#45;&gt;calculateMergedQ</title>
<path fill="none" stroke="black" d="M821.46,-306.17C812.45,-297.52 801.28,-286.81 791.26,-277.19"/>
<polygon fill="black" stroke="black" points="793.92,-274.89 784.28,-270.49 789.07,-279.94 793.92,-274.89"/>
</g>
<!-- outScaleFactor&#45;&gt;calculateMergedQCan -->
<g id="edge44" class="edge">
<title>outScaleFactor&#45;&gt;calculateMergedQCan</title>
<path fill="none" stroke="black" d="M808.1,-340.85C773.85,-359.51 718.39,-393.07 680,-433 654.96,-459.05 665.54,-479.83 637,-502 623.35,-512.6 535.29,-539.11 469.54,-557.94"/>
<polygon fill="black" stroke="black" points="468.89,-554.49 460.24,-560.6 470.81,-561.22 468.89,-554.49"/>
</g>
<!-- outShiftFactor -->
<g id="node14" class="node">
<title>outShiftFactor</title>
<ellipse fill="khaki" stroke="black" cx="1110" cy="-324" rx="75.29" ry="18"/>
<text text-anchor="middle" x="1110" y="-320.3" font-family="Helvetica,sans-Serif" font-size="14.00">OutShiftFactor</text>
</g>
<!-- outShiftFactor&#45;&gt;calculateMergedQ -->
<g id="edge43" class="edge">
<title>outShiftFactor&#45;&gt;calculateMergedQ</title>
<path fill="none" stroke="black" d="M1054.19,-311.51C999.67,-300.3 915.9,-283.05 852.52,-270.01"/>
<polygon fill="black" stroke="black" points="853.32,-266.6 842.82,-268.01 851.91,-273.46 853.32,-266.6"/>
</g>
<!-- mode -->
<g id="node15" class="node">
<title>mode</title>
<ellipse fill="khaki" stroke="black" cx="1526" cy="-579.5" rx="35.19" ry="18"/>
<text text-anchor="middle" x="1526" y="-575.8" font-family="Helvetica,sans-Serif" font-size="14.00">Mode</text>
</g>
<!-- checkModeForFit -->
<g id="node17" class="node">
<title>checkModeForFit</title>
<polygon fill="limegreen" stroke="black" points="1526,-502 1373.34,-484 1526,-466 1678.66,-484 1526,-502"/>
<text text-anchor="middle" x="1526" y="-480.3" font-family="Helvetica,sans-Serif" font-size="14.00">Mode Requires Fitting</text>
</g>
<!-- mode&#45;&gt;checkModeForFit -->
<g id="edge28" class="edge">
<title>mode&#45;&gt;checkModeForFit</title>
<path fill="none" stroke="black" d="M1526,-561.35C1526,-547.99 1526,-529.15 1526,-513.53"/>
<polygon fill="black" stroke="black" points="1529.5,-513.87 1526,-503.87 1522.5,-513.87 1529.5,-513.87"/>
</g>
<!-- readCanInputs -->
<g id="node29" class="node">
<title>readCanInputs</title>
<polygon fill="lightseagreen" stroke="black" points="412.5,-752 281.5,-752 281.5,-716 412.5,-716 412.5,-752"/>
<text text-anchor="middle" x="347" y="-730.3" font-family="Helvetica,sans-Serif" font-size="14.00">Read Can Inputs</text>
</g>
<!-- checkProcessCan&#45;&gt;readCanInputs -->
<g id="edge27" class="edge">
<title>checkProcessCan&#45;&gt;readCanInputs</title>
<path fill="none" stroke="black" d="M347,-846.6C347,-825.33 347,-789.01 347,-763.61"/>
<polygon fill="black" stroke="black" points="350.5,-763.64 347,-753.64 343.5,-763.64 350.5,-763.64"/>
<text text-anchor="middle" x="359.5" y="-817.8" font-family="Helvetica,sans-Serif" font-size="14.00">yes</text>
</g>
<!-- checkModeForFit&#45;&gt;sansFitShiftScale -->
<g id="edge29" class="edge">
<title>checkModeForFit&#45;&gt;sansFitShiftScale</title>
<path fill="none" stroke="black" d="M1485.04,-470.41C1447.97,-459.36 1391.72,-443.47 1342,-433 1292.32,-422.54 1236.01,-413.97 1191.31,-407.92"/>
<polygon fill="black" stroke="black" points="1191.79,-404.46 1181.42,-406.6 1190.87,-411.4 1191.79,-404.46"/>
<text text-anchor="middle" x="1415.5" y="-436.8" font-family="Helvetica,sans-Serif" font-size="14.00">yes</text>
</g>
<!-- checkModeForFit&#45;&gt;copyShiftFactor -->
<g id="edge37" class="edge">
<title>checkModeForFit&#45;&gt;copyShiftFactor</title>
<path fill="none" stroke="black" d="M1526,-465.8C1526,-454.58 1526,-439.67 1526,-426.69"/>
<polygon fill="black" stroke="black" points="1529.5,-426.98 1526,-416.98 1522.5,-426.98 1529.5,-426.98"/>
<text text-anchor="middle" x="1535" y="-436.8" font-family="Helvetica,sans-Serif" font-size="14.00">no</text>
</g>
<!-- checkModeForFit&#45;&gt;copyScaleFactor -->
<g id="edge36" class="edge">
<title>checkModeForFit&#45;&gt;copyScaleFactor</title>
<path fill="none" stroke="black" d="M1464.16,-472.8C1434.25,-468.02 1397.8,-462.42 1365,-458 1208.06,-436.87 1024.12,-417.01 920.6,-406.27"/>
<polygon fill="black" stroke="black" points="921.12,-402.81 910.81,-405.26 920.4,-409.77 921.12,-402.81"/>
<text text-anchor="middle" x="1288" y="-436.8" font-family="Helvetica,sans-Serif" font-size="14.00">no</text>
</g>
<!-- subtractCanHAB -->
<g id="node22" class="node">
<title>subtractCanHAB</title>
<path fill="lightskyblue" stroke="black" d="M522,-502C522,-502 470,-502 470,-502 464,-502 458,-496 458,-490 458,-490 458,-478 458,-478 458,-472 464,-466 470,-466 470,-466 522,-466 522,-466 528,-466 534,-472 534,-478 534,-478 534,-490 534,-490 534,-496 528,-502 522,-502"/>
<text text-anchor="middle" x="496" y="-480.3" font-family="Helvetica,sans-Serif" font-size="14.00">Subtract</text>
</g>
<!-- divideHABSample&#45;&gt;subtractCanHAB -->
<g id="edge23" class="edge">
<title>divideHABSample&#45;&gt;subtractCanHAB</title>
<path fill="none" stroke="black" d="M940.04,-570.58C846.48,-560.3 688.04,-539.44 545.01,-502.29"/>
<polygon fill="black" stroke="black" points="546.33,-499.02 535.76,-499.86 544.54,-505.79 546.33,-499.02"/>
</g>
<!-- valQHAB -->
<g id="node33" class="node">
<title>valQHAB</title>
<polygon fill="grey" stroke="black" points="1122.58,-502 946.67,-502 901.42,-466 1077.33,-466 1122.58,-502"/>
<text text-anchor="middle" x="1012" y="-480.3" font-family="Times,serif" font-size="14.00">HAB Normalized</text>
</g>
<!-- divideHABSample&#45;&gt;valQHAB -->
<g id="edge21" class="edge">
<title>divideHABSample&#45;&gt;valQHAB</title>
<path fill="none" stroke="black" d="M1018.54,-552.95C1017.37,-540.74 1015.95,-526.08 1014.74,-513.51"/>
<polygon fill="black" stroke="black" points="1018.25,-513.37 1013.8,-503.75 1011.28,-514.04 1018.25,-513.37"/>
<text text-anchor="middle" x="1097" y="-523.8" font-family="Helvetica,sans-Serif" font-size="14.00">If can is not processed.</text>
</g>
<!-- subtractCanLAB -->
<g id="node23" class="node">
<title>subtractCanLAB</title>
<path fill="lightskyblue" stroke="black" d="M616,-502C616,-502 564,-502 564,-502 558,-502 552,-496 552,-490 552,-490 552,-478 552,-478 552,-472 558,-466 564,-466 564,-466 616,-466 616,-466 622,-466 628,-472 628,-478 628,-478 628,-490 628,-490 628,-496 622,-502 616,-502"/>
<text text-anchor="middle" x="590" y="-480.3" font-family="Helvetica,sans-Serif" font-size="14.00">Subtract</text>
</g>
<!-- divideLABSample&#45;&gt;subtractCanLAB -->
<g id="edge24" class="edge">
<title>divideLABSample&#45;&gt;subtractCanLAB</title>
<path fill="none" stroke="black" d="M1302.48,-552.6C1267.05,-540.42 1222.79,-527.04 1182,-520 993.07,-487.38 942.21,-516.07 751,-502 713.55,-499.24 671.34,-494.73 639.54,-491.05"/>
<polygon fill="black" stroke="black" points="640.17,-487.6 629.83,-489.91 639.35,-494.55 640.17,-487.6"/>
</g>
<!-- valQLAB -->
<g id="node32" class="node">
<title>valQLAB</title>
<polygon fill="grey" stroke="black" points="1355.86,-502 1184.28,-502 1140.14,-466 1311.72,-466 1355.86,-502"/>
<text text-anchor="middle" x="1248" y="-480.3" font-family="Times,serif" font-size="14.00">LAB Normalized</text>
</g>
<!-- divideLABSample&#45;&gt;valQLAB -->
<g id="edge20" class="edge">
<title>divideLABSample&#45;&gt;valQLAB</title>
<path fill="none" stroke="black" d="M1337.06,-552.7C1319.14,-539.08 1297.28,-522.46 1279.7,-509.1"/>
<polygon fill="black" stroke="black" points="1282.23,-506.62 1272.15,-503.36 1277.99,-512.19 1282.23,-506.62"/>
<text text-anchor="middle" x="1394" y="-523.8" font-family="Helvetica,sans-Serif" font-size="14.00">If can is not processed.</text>
</g>
<!-- divideHABCan&#45;&gt;subtractCanHAB -->
<g id="edge9" class="edge">
<title>divideHABCan&#45;&gt;subtractCanHAB</title>
<path fill="none" stroke="black" d="M285.78,-554.13C330.74,-540.35 387.93,-522.44 446.93,-502.64"/>
<polygon fill="black" stroke="black" points="447.78,-506.05 456.14,-499.54 445.54,-499.41 447.78,-506.05"/>
</g>
<!-- divideLABCan&#45;&gt;subtractCanLAB -->
<g id="edge10" class="edge">
<title>divideLABCan&#45;&gt;subtractCanLAB</title>
<path fill="none" stroke="black" d="M587.82,-552.95C588.21,-540.74 588.68,-526.08 589.09,-513.51"/>
<polygon fill="black" stroke="black" points="592.58,-513.86 589.4,-503.76 585.58,-513.64 592.58,-513.86"/>
</g>
<!-- subtractCanHAB&#45;&gt;valQHAB -->
<g id="edge25" class="edge">
<title>subtractCanHAB&#45;&gt;valQHAB</title>
<path fill="none" stroke="black" d="M534.24,-499.45C537.18,-500.39 540.12,-501.26 543,-502 626.22,-523.53 648.75,-523.05 734.5,-529.08 794.35,-533.29 810.2,-538.24 869.5,-529.08 898.56,-524.6 929.81,-515.25 955.62,-506.22"/>
<polygon fill="black" stroke="black" points="956.67,-509.57 964.9,-502.9 954.31,-502.98 956.67,-509.57"/>
<text text-anchor="middle" x="802" y="-523.8" font-family="Helvetica,sans-Serif" font-size="14.00">If can is processed.</text>
</g>
<!-- subtractCanLAB&#45;&gt;valQLAB -->
<g id="edge26" class="edge">
<title>subtractCanLAB&#45;&gt;valQLAB</title>
<path fill="none" stroke="black" d="M628.43,-493.31C702.22,-510.03 868.93,-542.25 1009.5,-529.08 1063.67,-524.01 1123.86,-512.59 1170.22,-502.51"/>
<polygon fill="black" stroke="black" points="1170.9,-505.94 1179.92,-500.37 1169.4,-499.11 1170.9,-505.94"/>
<text text-anchor="middle" x="942" y="-523.8" font-family="Helvetica,sans-Serif" font-size="14.00">If can is processed.</text>
</g>
<!-- sansFitShiftScale&#45;&gt;outScaleFactor -->
<g id="edge35" class="edge">
<title>sansFitShiftScale&#45;&gt;outScaleFactor</title>
<path fill="none" stroke="black" d="M1043.36,-378.54C999.62,-367.08 942.85,-352.21 900.25,-341.05"/>
<polygon fill="black" stroke="black" points="901.21,-337.68 890.65,-338.53 899.44,-344.45 901.21,-337.68"/>
</g>
<!-- sansFitShiftScale&#45;&gt;outShiftFactor -->
<g id="edge34" class="edge">
<title>sansFitShiftScale&#45;&gt;outShiftFactor</title>
<path fill="none" stroke="black" d="M1110,-378.81C1110,-371.23 1110,-362.1 1110,-353.54"/>
<polygon fill="black" stroke="black" points="1113.5,-353.54 1110,-343.54 1106.5,-353.54 1113.5,-353.54"/>
</g>
<!-- subtractMerged -->
<g id="node25" class="node">
<title>subtractMerged</title>
<path fill="lightskyblue" stroke="black" d="M428,-502C428,-502 376,-502 376,-502 370,-502 364,-496 364,-490 364,-490 364,-478 364,-478 364,-472 370,-466 376,-466 376,-466 428,-466 428,-466 434,-466 440,-472 440,-478 440,-478 440,-490 440,-490 440,-496 434,-502 428,-502"/>
<text text-anchor="middle" x="402" y="-480.3" font-family="Helvetica,sans-Serif" font-size="14.00">Subtract</text>
</g>
<!-- mergedQ -->
<g id="node34" class="node">
<title>mergedQ</title>
<polygon fill="grey" stroke="black" points="481.45,-182 391.65,-182 368.55,-146 458.35,-146 481.45,-182"/>
<text text-anchor="middle" x="425" y="-160.3" font-family="Times,serif" font-size="14.00">Merged</text>
</g>
<!-- subtractMerged&#45;&gt;mergedQ -->
<g id="edge51" class="edge">
<title>subtractMerged&#45;&gt;mergedQ</title>
<path fill="none" stroke="black" d="M404.25,-465.78C406.3,-448.63 409,-421.54 409,-398 409,-398 409,-398 409,-250 409,-230.91 412.95,-209.81 416.92,-193.42"/>
<polygon fill="black" stroke="black" points="420.27,-194.42 419.38,-183.87 413.5,-192.68 420.27,-194.42"/>
<text text-anchor="middle" x="490" y="-320.3" font-family="Helvetica,sans-Serif" font-size="14.00">If can is not processed.</text>
</g>
<!-- errorCorrection -->
<g id="node26" class="node">
<title>errorCorrection</title>
<polygon fill="lightseagreen" stroke="black" points="556,-109 294,-109 294,-73 556,-73 556,-109"/>
<text text-anchor="middle" x="425" y="-87.3" font-family="Helvetica,sans-Serif" font-size="14.00">Error Correction Merged Workspace</text>
</g>
<!-- errorCorrection&#45;&gt;outputWorkspace -->
<g id="edge53" class="edge">
<title>errorCorrection&#45;&gt;outputWorkspace</title>
<path fill="none" stroke="black" d="M425,-72.81C425,-65.23 425,-56.1 425,-47.54"/>
<polygon fill="black" stroke="black" points="428.5,-47.54 425,-37.54 421.5,-47.54 428.5,-47.54"/>
</g>
<!-- calculateMergedQ&#45;&gt;subtractMerged -->
<g id="edge49" class="edge">
<title>calculateMergedQ&#45;&gt;subtractMerged</title>
<path fill="none" stroke="black" d="M717.36,-269.43C704.94,-274.56 691.75,-280.55 680,-287 583.97,-339.76 481.11,-419 431.76,-458.62"/>
<polygon fill="black" stroke="black" points="429.66,-455.82 424.08,-464.82 434.06,-461.26 429.66,-455.82"/>
</g>
<!-- calculateMergedQ&#45;&gt;mergedQ -->
<g id="edge50" class="edge">
<title>calculateMergedQ&#45;&gt;mergedQ</title>
<path fill="none" stroke="black" d="M695.38,-232.59C635.42,-217.6 549.51,-196.13 490.72,-181.43"/>
<polygon fill="black" stroke="black" points="491.72,-178.07 481.17,-179.04 490.02,-184.86 491.72,-178.07"/>
<text text-anchor="middle" x="682.5" y="-203.8" font-family="Helvetica,sans-Serif" font-size="14.00">If can is processed.</text>
</g>
<!-- calculateMergedQCan&#45;&gt;subtractMerged -->
<g id="edge15" class="edge">
<title>calculateMergedQCan&#45;&gt;subtractMerged</title>
<path fill="none" stroke="black" d="M397.1,-561.35C397.96,-547.99 399.17,-529.15 400.17,-513.53"/>
<polygon fill="black" stroke="black" points="403.64,-514.07 400.79,-503.87 396.66,-513.62 403.64,-514.07"/>
</g>
<!-- readCanInputs&#45;&gt;hABCountsCan -->
<g id="edge1" class="edge">
<title>readCanInputs&#45;&gt;hABCountsCan</title>
<path fill="none" stroke="black" d="M285.03,-715.54C245.15,-704.31 193.62,-689.79 154.28,-678.7"/>
<polygon fill="black" stroke="black" points="155.3,-675.35 144.73,-676.01 153.41,-682.09 155.3,-675.35"/>
</g>
<!-- readCanInputs&#45;&gt;lABCountsCan -->
<g id="edge2" class="edge">
<title>readCanInputs&#45;&gt;lABCountsCan</title>
<path fill="none" stroke="black" d="M367.33,-715.81C377.94,-706.85 391.07,-695.75 402.66,-685.96"/>
<polygon fill="black" stroke="black" points="404.61,-688.89 409.99,-679.76 400.09,-683.54 404.61,-688.89"/>
</g>
<!-- readCanInputs&#45;&gt;hABNormCan -->
<g id="edge3" class="edge">
<title>readCanInputs&#45;&gt;hABNormCan</title>
<path fill="none" stroke="black" d="M326.91,-715.81C316.54,-706.94 303.71,-695.96 292.34,-686.25"/>
<polygon fill="black" stroke="black" points="294.64,-683.61 284.77,-679.77 290.09,-688.93 294.64,-683.61"/>
</g>
<!-- readCanInputs&#45;&gt;lABNormCan -->
<g id="edge4" class="edge">
<title>readCanInputs&#45;&gt;lABNormCan</title>
<path fill="none" stroke="black" d="M408.48,-715.54C448.7,-704.12 500.87,-689.3 540.13,-678.15"/>
<polygon fill="black" stroke="black" points="540.98,-681.55 549.64,-675.45 539.06,-674.82 540.98,-681.55"/>
</g>
<!-- copyShiftFactor&#45;&gt;outShiftFactor -->
<g id="edge41" class="edge">
<title>copyShiftFactor&#45;&gt;outShiftFactor</title>
<path fill="none" stroke="black" d="M1458.7,-384.51C1382.54,-371.51 1258.99,-350.43 1181.24,-337.16"/>
<polygon fill="black" stroke="black" points="1182.05,-333.75 1171.6,-335.51 1180.87,-340.65 1182.05,-333.75"/>
</g>
<!-- copyScaleFactor&#45;&gt;outScaleFactor -->
<g id="edge40" class="edge">
<title>copyScaleFactor&#45;&gt;outScaleFactor</title>
<path fill="none" stroke="black" d="M839,-378.81C839,-371.23 839,-362.1 839,-353.54"/>
<polygon fill="black" stroke="black" points="842.5,-353.54 839,-343.54 835.5,-353.54 842.5,-353.54"/>
</g>
<!-- valQLAB&#45;&gt;sansFitShiftScale -->
<g id="edge31" class="edge">
<title>valQLAB&#45;&gt;sansFitShiftScale</title>
<path fill="none" stroke="black" d="M1219.74,-465.59C1199,-452.82 1170.6,-435.32 1147.89,-421.34"/>
<polygon fill="black" stroke="black" points="1149.86,-418.44 1139.51,-416.18 1146.19,-424.4 1149.86,-418.44"/>
</g>
<!-- valQHAB&#45;&gt;sansFitShiftScale -->
<g id="edge30" class="edge">
<title>valQHAB&#45;&gt;sansFitShiftScale</title>
<path fill="none" stroke="black" d="M1031.83,-465.8C1046.08,-453.44 1065.51,-436.59 1081.43,-422.78"/>
<polygon fill="black" stroke="black" points="1083.46,-425.66 1088.72,-416.46 1078.87,-420.37 1083.46,-425.66"/>
</g>
<!-- mergedQ&#45;&gt;errorCorrection -->
<g id="edge52" class="edge">
<title>mergedQ&#45;&gt;errorCorrection</title>
<path fill="none" stroke="black" d="M425,-145.81C425,-138.23 425,-129.1 425,-120.54"/>
<polygon fill="black" stroke="black" points="428.5,-120.54 425,-110.54 421.5,-120.54 428.5,-120.54"/>
</g>
</g>
</svg>
