<?xml version="1.0" encoding="UTF-8" standalone="no"?>
<!DOCTYPE svg PUBLIC "-//W3C//DTD SVG 1.1//EN"
 "http://www.w3.org/Graphics/SVG/1.1/DTD/svg11.dtd">
<!-- Generated by graphviz version 11.0.0 (20240519.1550)
 -->
<!-- Title: SimpleShapeMonteCarloAbsorption Pages: 1 -->
<svg width="1302pt" height="736pt"
 viewBox="0.00 0.00 1302.36 735.50" xmlns="http://www.w3.org/2000/svg" xmlns:xlink="http://www.w3.org/1999/xlink">
<g id="graph0" class="graph" transform="scale(1 1) rotate(0) translate(4 731.5)">
<title>SimpleShapeMonteCarloAbsorption</title>
<polygon fill="white" stroke="none" points="-4,4 -4,-731.5 1298.36,-731.5 1298.36,4 -4,4"/>
<text text-anchor="middle" x="647.18" y="-710.2" font-family="Helvetica,sans-Serif" font-size="14.00">SimpleShapeMonteCarloAbsorption Flowchart</text>
<!-- InputWorkspace -->
<g id="node1" class="node">
<title>InputWorkspace</title>
<ellipse fill="khaki" stroke="black" cx="336.11" cy="-684.25" rx="90.14" ry="18"/>
<text text-anchor="middle" x="336.11" y="-679.58" font-family="Helvetica,sans-Serif" font-size="14.00">InputWorkspace</text>
</g>
<!-- SetBeam -->
<g id="node22" class="node">
<title>SetBeam</title>
<path fill="lightskyblue" stroke="black" d="M542.23,-630.25C542.23,-630.25 487.98,-630.25 487.98,-630.25 481.98,-630.25 475.98,-624.25 475.98,-618.25 475.98,-618.25 475.98,-606.25 475.98,-606.25 475.98,-600.25 481.98,-594.25 487.98,-594.25 487.98,-594.25 542.23,-594.25 542.23,-594.25 548.23,-594.25 554.23,-600.25 554.23,-606.25 554.23,-606.25 554.23,-618.25 554.23,-618.25 554.23,-624.25 548.23,-630.25 542.23,-630.25"/>
<text text-anchor="middle" x="515.11" y="-607.58" font-family="Helvetica,sans-Serif" font-size="14.00">SetBeam</text>
</g>
<!-- InputWorkspace&#45;&gt;SetBeam -->
<g id="edge1" class="edge">
<title>InputWorkspace&#45;&gt;SetBeam</title>
<path fill="none" stroke="black" d="M375.83,-667.71C402.14,-657.43 436.85,-643.85 465.04,-632.83"/>
<polygon fill="black" stroke="black" points="466.04,-636.19 474.08,-629.29 463.5,-629.68 466.04,-636.19"/>
</g>
<!-- OutputWorkspace -->
<g id="node2" class="node">
<title>OutputWorkspace</title>
<ellipse fill="khaki" stroke="black" cx="464.11" cy="-18" rx="98.56" ry="18"/>
<text text-anchor="middle" x="464.11" y="-13.32" font-family="Helvetica,sans-Serif" font-size="14.00">OutputWorkspace</text>
</g>
<!-- BeamHeight -->
<g id="node3" class="node">
<title>BeamHeight</title>
<ellipse fill="khaki" stroke="black" cx="515.11" cy="-684.25" rx="71.2" ry="18"/>
<text text-anchor="middle" x="515.11" y="-679.58" font-family="Helvetica,sans-Serif" font-size="14.00">BeamHeight</text>
</g>
<!-- BeamHeight&#45;&gt;SetBeam -->
<g id="edge2" class="edge">
<title>BeamHeight&#45;&gt;SetBeam</title>
<path fill="none" stroke="black" d="M515.11,-665.95C515.11,-658.66 515.11,-649.98 515.11,-641.79"/>
<polygon fill="black" stroke="black" points="518.61,-641.87 515.11,-631.87 511.61,-641.87 518.61,-641.87"/>
</g>
<!-- BeamWidth -->
<g id="node4" class="node">
<title>BeamWidth</title>
<ellipse fill="khaki" stroke="black" cx="672.11" cy="-684.25" rx="67.52" ry="18"/>
<text text-anchor="middle" x="672.11" y="-679.58" font-family="Helvetica,sans-Serif" font-size="14.00">BeamWidth</text>
</g>
<!-- BeamWidth&#45;&gt;SetBeam -->
<g id="edge3" class="edge">
<title>BeamWidth&#45;&gt;SetBeam</title>
<path fill="none" stroke="black" d="M638.43,-668.23C616.92,-658.64 588.67,-646.05 564.63,-635.33"/>
<polygon fill="black" stroke="black" points="566.21,-632.2 555.65,-631.33 563.36,-638.6 566.21,-632.2"/>
</g>
<!-- ChemicalFormula -->
<g id="node5" class="node">
<title>ChemicalFormula</title>
<ellipse fill="khaki" stroke="black" cx="818.11" cy="-540.25" rx="94.88" ry="18"/>
<text text-anchor="middle" x="818.11" y="-535.58" font-family="Helvetica,sans-Serif" font-size="14.00">ChemicalFormula</text>
</g>
<!-- Material -->
<g id="node26" class="node">
<title>Material</title>
<polygon fill="grey" stroke="black" points="826.09,-469 732.26,-469 708.12,-433 801.95,-433 826.09,-469"/>
<text text-anchor="middle" x="767.11" y="-444.82" font-family="Times,serif" font-size="14.00">Material</text>
</g>
<!-- ChemicalFormula&#45;&gt;Material -->
<g id="edge7" class="edge">
<title>ChemicalFormula&#45;&gt;Material</title>
<path fill="none" stroke="black" d="M808.03,-522.01C800.84,-509.7 791.02,-492.91 782.8,-478.85"/>
<polygon fill="black" stroke="black" points="785.99,-477.38 777.93,-470.51 779.95,-480.91 785.99,-477.38"/>
</g>
<!-- Density -->
<g id="node6" class="node">
<title>Density</title>
<ellipse fill="khaki" stroke="black" cx="1049.11" cy="-540.25" rx="118.55" ry="18"/>
<text text-anchor="middle" x="1049.11" y="-535.58" font-family="Helvetica,sans-Serif" font-size="14.00">Mass/Number Density</text>
</g>
<!-- Density&#45;&gt;Material -->
<g id="edge8" class="edge">
<title>Density&#45;&gt;Material</title>
<path fill="none" stroke="black" d="M998.37,-523.55C952.42,-509.34 884.42,-488.3 834.04,-472.71"/>
<polygon fill="black" stroke="black" points="835.28,-469.43 824.69,-469.82 833.21,-476.12 835.28,-469.43"/>
</g>
<!-- Height1 -->
<g id="node7" class="node">
<title>Height1</title>
<ellipse fill="khaki" stroke="black" cx="139.11" cy="-378" rx="43.32" ry="18"/>
<text text-anchor="middle" x="139.11" y="-373.32" font-family="Helvetica,sans-Serif" font-size="14.00">Height</text>
</g>
<!-- FlatPlate -->
<g id="node27" class="node">
<title>FlatPlate</title>
<polygon fill="grey" stroke="black" points="417.49,-324 321.44,-324 296.73,-288 392.78,-288 417.49,-324"/>
<text text-anchor="middle" x="357.11" y="-299.82" font-family="Times,serif" font-size="14.00">FlatPlate</text>
</g>
<!-- Height1&#45;&gt;FlatPlate -->
<g id="edge14" class="edge">
<title>Height1&#45;&gt;FlatPlate</title>
<path fill="none" stroke="black" d="M172.38,-366.08C178.6,-364.05 185.05,-361.96 191.11,-360 230.03,-347.42 274.15,-333.35 307.11,-322.86"/>
<polygon fill="black" stroke="black" points="307.93,-326.28 316.4,-319.91 305.81,-319.61 307.93,-326.28"/>
</g>
<!-- Height2 -->
<g id="node8" class="node">
<title>Height2</title>
<ellipse fill="khaki" stroke="black" cx="826.11" cy="-378" rx="43.32" ry="18"/>
<text text-anchor="middle" x="826.11" y="-373.32" font-family="Helvetica,sans-Serif" font-size="14.00">Height</text>
</g>
<!-- Cylinder -->
<g id="node28" class="node">
<title>Cylinder</title>
<polygon fill="grey" stroke="black" points="779.09,-324 685.26,-324 661.12,-288 754.95,-288 779.09,-324"/>
<text text-anchor="middle" x="720.11" y="-299.82" font-family="Times,serif" font-size="14.00">Cylinder</text>
</g>
<!-- Height2&#45;&gt;Cylinder -->
<g id="edge19" class="edge">
<title>Height2&#45;&gt;Cylinder</title>
<path fill="none" stroke="black" d="M803.63,-362.15C789.74,-352.98 771.6,-341.01 755.79,-330.56"/>
<polygon fill="black" stroke="black" points="757.83,-327.72 747.56,-325.13 753.97,-333.56 757.83,-327.72"/>
</g>
<!-- Height3 -->
<g id="node9" class="node">
<title>Height3</title>
<ellipse fill="khaki" stroke="black" cx="931.11" cy="-378" rx="43.32" ry="18"/>
<text text-anchor="middle" x="931.11" y="-373.32" font-family="Helvetica,sans-Serif" font-size="14.00">Height</text>
</g>
<!-- Annulus -->
<g id="node29" class="node">
<title>Annulus</title>
<polygon fill="grey" stroke="black" points="988.69,-324 897.09,-324 873.52,-288 965.13,-288 988.69,-324"/>
<text text-anchor="middle" x="931.11" y="-299.82" font-family="Times,serif" font-size="14.00">Annulus</text>
</g>
<!-- Height3&#45;&gt;Annulus -->
<g id="edge20" class="edge">
<title>Height3&#45;&gt;Annulus</title>
<path fill="none" stroke="black" d="M931.11,-359.7C931.11,-352.41 931.11,-343.73 931.11,-335.54"/>
<polygon fill="black" stroke="black" points="934.61,-335.62 931.11,-325.62 927.61,-335.62 934.61,-335.62"/>
</g>
<!-- Width -->
<g id="node10" class="node">
<title>Width</title>
<ellipse fill="khaki" stroke="black" cx="240.11" cy="-378" rx="39.63" ry="18"/>
<text text-anchor="middle" x="240.11" y="-373.32" font-family="Helvetica,sans-Serif" font-size="14.00">Width</text>
</g>
<!-- Width&#45;&gt;FlatPlate -->
<g id="edge13" class="edge">
<title>Width&#45;&gt;FlatPlate</title>
<path fill="none" stroke="black" d="M263.5,-363C279.15,-353.64 300.1,-341.11 318.22,-330.27"/>
<polygon fill="black" stroke="black" points="319.86,-333.37 326.64,-325.23 316.26,-327.36 319.86,-333.37"/>
</g>
<!-- Thickness -->
<g id="node11" class="node">
<title>Thickness</title>
<ellipse fill="khaki" stroke="black" cx="357.11" cy="-378" rx="59.63" ry="18"/>
<text text-anchor="middle" x="357.11" y="-373.32" font-family="Helvetica,sans-Serif" font-size="14.00">Thickness</text>
</g>
<!-- Thickness&#45;&gt;FlatPlate -->
<g id="edge15" class="edge">
<title>Thickness&#45;&gt;FlatPlate</title>
<path fill="none" stroke="black" d="M357.11,-359.7C357.11,-352.41 357.11,-343.73 357.11,-335.54"/>
<polygon fill="black" stroke="black" points="360.61,-335.62 357.11,-325.62 353.61,-335.62 360.61,-335.62"/>
</g>
<!-- Center -->
<g id="node12" class="node">
<title>Center</title>
<ellipse fill="khaki" stroke="black" cx="478.11" cy="-378" rx="43.84" ry="18"/>
<text text-anchor="middle" x="478.11" y="-373.32" font-family="Helvetica,sans-Serif" font-size="14.00">Center</text>
</g>
<!-- Center&#45;&gt;FlatPlate -->
<g id="edge16" class="edge">
<title>Center&#45;&gt;FlatPlate</title>
<path fill="none" stroke="black" d="M453.33,-362.67C437.04,-353.24 415.36,-340.7 396.7,-329.91"/>
<polygon fill="black" stroke="black" points="398.71,-327.02 388.3,-325.04 395.2,-333.08 398.71,-327.02"/>
</g>
<!-- Angle -->
<g id="node13" class="node">
<title>Angle</title>
<ellipse fill="khaki" stroke="black" cx="39.11" cy="-378" rx="39.11" ry="18"/>
<text text-anchor="middle" x="39.11" y="-373.32" font-family="Helvetica,sans-Serif" font-size="14.00">Angle</text>
</g>
<!-- Angle&#45;&gt;FlatPlate -->
<g id="edge17" class="edge">
<title>Angle&#45;&gt;FlatPlate</title>
<path fill="none" stroke="black" d="M68.59,-365.79C74.67,-363.7 81.05,-361.66 87.11,-360 160.88,-339.81 247.99,-324.15 302.89,-315.24"/>
<polygon fill="black" stroke="black" points="303.29,-318.72 312.61,-313.68 302.18,-311.81 303.29,-318.72"/>
</g>
<!-- Radius -->
<g id="node14" class="node">
<title>Radius</title>
<ellipse fill="khaki" stroke="black" cx="720.11" cy="-378" rx="44.37" ry="18"/>
<text text-anchor="middle" x="720.11" y="-373.32" font-family="Helvetica,sans-Serif" font-size="14.00">Radius</text>
</g>
<!-- Radius&#45;&gt;Cylinder -->
<g id="edge18" class="edge">
<title>Radius&#45;&gt;Cylinder</title>
<path fill="none" stroke="black" d="M720.11,-359.7C720.11,-352.41 720.11,-343.73 720.11,-335.54"/>
<polygon fill="black" stroke="black" points="723.61,-335.62 720.11,-325.62 716.61,-335.62 723.61,-335.62"/>
</g>
<!-- InnerRadius -->
<g id="node15" class="node">
<title>InnerRadius</title>
<ellipse fill="khaki" stroke="black" cx="1062.11" cy="-378" rx="70.15" ry="18"/>
<text text-anchor="middle" x="1062.11" y="-373.32" font-family="Helvetica,sans-Serif" font-size="14.00">InnerRadius</text>
</g>
<!-- InnerRadius&#45;&gt;Annulus -->
<g id="edge21" class="edge">
<title>InnerRadius&#45;&gt;Annulus</title>
<path fill="none" stroke="black" d="M1032.71,-361.29C1015.32,-352 992.98,-340.06 973.69,-329.75"/>
<polygon fill="black" stroke="black" points="975.43,-326.72 964.96,-325.09 972.13,-332.89 975.43,-326.72"/>
</g>
<!-- OuterRadius -->
<g id="node16" class="node">
<title>OuterRadius</title>
<ellipse fill="khaki" stroke="black" cx="1222.11" cy="-378" rx="72.25" ry="18"/>
<text text-anchor="middle" x="1222.11" y="-373.32" font-family="Helvetica,sans-Serif" font-size="14.00">OuterRadius</text>
</g>
<!-- OuterRadius&#45;&gt;Annulus -->
<g id="edge22" class="edge">
<title>OuterRadius&#45;&gt;Annulus</title>
<path fill="none" stroke="black" d="M1171.42,-364.81C1123.3,-353.23 1050.69,-335.76 997.87,-323.06"/>
<polygon fill="black" stroke="black" points="998.93,-319.72 988.39,-320.78 997.29,-326.52 998.93,-319.72"/>
</g>
<!-- EventsPerPoint -->
<g id="node17" class="node">
<title>EventsPerPoint</title>
<ellipse fill="khaki" stroke="black" cx="93.11" cy="-234" rx="84.35" ry="18"/>
<text text-anchor="middle" x="93.11" y="-229.32" font-family="Helvetica,sans-Serif" font-size="14.00">EventsPerPoint</text>
</g>
<!-- MonteCarloAbsorption -->
<g id="node24" class="node">
<title>MonteCarloAbsorption</title>
<path fill="lightskyblue" stroke="black" d="M537.36,-180C537.36,-180 390.86,-180 390.86,-180 384.86,-180 378.86,-174 378.86,-168 378.86,-168 378.86,-156 378.86,-156 378.86,-150 384.86,-144 390.86,-144 390.86,-144 537.36,-144 537.36,-144 543.36,-144 549.36,-150 549.36,-156 549.36,-156 549.36,-168 549.36,-168 549.36,-174 543.36,-180 537.36,-180"/>
<text text-anchor="middle" x="464.11" y="-157.32" font-family="Helvetica,sans-Serif" font-size="14.00">MonteCarloAbsorption</text>
</g>
<!-- EventsPerPoint&#45;&gt;MonteCarloAbsorption -->
<g id="edge27" class="edge">
<title>EventsPerPoint&#45;&gt;MonteCarloAbsorption</title>
<path fill="none" stroke="black" d="M154.79,-221.36C212.76,-210.42 300.41,-193.89 367.63,-181.2"/>
<polygon fill="black" stroke="black" points="367.99,-184.7 377.17,-179.4 366.69,-177.82 367.99,-184.7"/>
</g>
<!-- NumberOfWavelengthPoints -->
<g id="node18" class="node">
<title>NumberOfWavelengthPoints</title>
<ellipse fill="khaki" stroke="black" cx="344.11" cy="-234" rx="149.06" ry="18"/>
<text text-anchor="middle" x="344.11" y="-229.32" font-family="Helvetica,sans-Serif" font-size="14.00">NumberOfWavelengthPoints</text>
</g>
<!-- NumberOfWavelengthPoints&#45;&gt;MonteCarloAbsorption -->
<g id="edge28" class="edge">
<title>NumberOfWavelengthPoints&#45;&gt;MonteCarloAbsorption</title>
<path fill="none" stroke="black" d="M373.46,-215.88C388.89,-206.88 408.02,-195.72 424.72,-185.98"/>
<polygon fill="black" stroke="black" points="426.04,-189.26 432.91,-181.2 422.51,-183.21 426.04,-189.26"/>
</g>
<!-- Interpolation -->
<g id="node19" class="node">
<title>Interpolation</title>
<ellipse fill="khaki" stroke="black" cx="584.11" cy="-234" rx="73.3" ry="18"/>
<text text-anchor="middle" x="584.11" y="-229.32" font-family="Helvetica,sans-Serif" font-size="14.00">Interpolation</text>
</g>
<!-- Interpolation&#45;&gt;MonteCarloAbsorption -->
<g id="edge29" class="edge">
<title>Interpolation&#45;&gt;MonteCarloAbsorption</title>
<path fill="none" stroke="black" d="M556.58,-216.94C540.96,-207.83 521.14,-196.27 503.86,-186.19"/>
<polygon fill="black" stroke="black" points="505.74,-183.23 495.34,-181.22 502.21,-189.28 505.74,-183.23"/>
</g>
<!-- material_already_defined -->
<g id="node20" class="node">
<title>material_already_defined</title>
<polygon fill="limegreen" stroke="black" points="515.11,-558.25 325.13,-540.25 515.11,-522.25 705.08,-540.25 515.11,-558.25"/>
<text text-anchor="middle" x="515.11" y="-535.58" font-family="Helvetica,sans-Serif" font-size="14.00">Material already defined?</text>
</g>
<!-- Shape -->
<g id="node21" class="node">
<title>Shape</title>
<polygon fill="limegreen" stroke="black" points="599.11,-396 540.08,-378 599.11,-360 658.13,-378 599.11,-396"/>
<text text-anchor="middle" x="599.11" y="-373.32" font-family="Helvetica,sans-Serif" font-size="14.00">Shape</text>
</g>
<!-- material_already_defined&#45;&gt;Shape -->
<g id="edge5" class="edge">
<title>material_already_defined&#45;&gt;Shape</title>
<path fill="none" stroke="black" d="M523.78,-522.7C538.61,-494.42 568.9,-436.63 586.21,-403.6"/>
<polygon fill="black" stroke="black" points="589.1,-405.64 590.64,-395.16 582.9,-402.39 589.1,-405.64"/>
<text text-anchor="middle" x="581.36" y="-446.32" font-family="Helvetica,sans-Serif" font-size="14.00">Yes</text>
</g>
<!-- material_already_defined&#45;&gt;Material -->
<g id="edge6" class="edge">
<title>material_already_defined&#45;&gt;Material</title>
<path fill="none" stroke="black" d="M554.76,-525.52C599.12,-510.16 671,-485.27 718.66,-468.77"/>
<polygon fill="black" stroke="black" points="719.6,-472.15 727.9,-465.57 717.31,-465.54 719.6,-472.15"/>
<text text-anchor="middle" x="672.48" y="-490.95" font-family="Helvetica,sans-Serif" font-size="14.00">No</text>
</g>
<!-- Shape&#45;&gt;FlatPlate -->
<g id="edge10" class="edge">
<title>Shape&#45;&gt;FlatPlate</title>
<path fill="none" stroke="black" d="M569.92,-368.56C535.05,-358.47 475.49,-341.24 428.24,-327.58"/>
<polygon fill="black" stroke="black" points="429.47,-324.29 418.89,-324.87 427.53,-331.01 429.47,-324.29"/>
</g>
<!-- Shape&#45;&gt;Cylinder -->
<g id="edge11" class="edge">
<title>Shape&#45;&gt;Cylinder</title>
<path fill="none" stroke="black" d="M618.82,-365.6C635.39,-356.01 659.61,-342 680.21,-330.08"/>
<polygon fill="black" stroke="black" points="681.77,-333.22 688.67,-325.18 678.26,-327.16 681.77,-333.22"/>
</g>
<!-- Shape&#45;&gt;Annulus -->
<g id="edge12" class="edge">
<title>Shape&#45;&gt;Annulus</title>
<path fill="none" stroke="black" d="M629.84,-368.99C641.48,-366.04 654.88,-362.75 667.11,-360 740.61,-343.44 826.2,-326.73 879.53,-316.61"/>
<polygon fill="black" stroke="black" points="880.07,-320.07 889.24,-314.78 878.77,-313.2 880.07,-320.07"/>
</g>
<!-- SetBeam&#45;&gt;material_already_defined -->
<g id="edge4" class="edge">
<title>SetBeam&#45;&gt;material_already_defined</title>
<path fill="none" stroke="black" d="M515.11,-593.95C515.11,-586.66 515.11,-577.98 515.11,-569.79"/>
<polygon fill="black" stroke="black" points="518.61,-569.87 515.11,-559.87 511.61,-569.87 518.61,-569.87"/>
</g>
<!-- SetSample -->
<g id="node23" class="node">
<title>SetSample</title>
<path fill="lightskyblue" stroke="black" d="M753.23,-252C753.23,-252 686.98,-252 686.98,-252 680.98,-252 674.98,-246 674.98,-240 674.98,-240 674.98,-228 674.98,-228 674.98,-222 680.98,-216 686.98,-216 686.98,-216 753.23,-216 753.23,-216 759.23,-216 765.23,-222 765.23,-228 765.23,-228 765.23,-240 765.23,-240 765.23,-246 759.23,-252 753.23,-252"/>
<text text-anchor="middle" x="720.11" y="-229.32" font-family="Helvetica,sans-Serif" font-size="14.00">SetSample</text>
</g>
<!-- SetSample&#45;&gt;MonteCarloAbsorption -->
<g id="edge26" class="edge">
<title>SetSample&#45;&gt;MonteCarloAbsorption</title>
<path fill="none" stroke="black" d="M674.49,-218.47C671.66,-217.62 668.85,-216.79 666.11,-216 626.32,-204.52 581.82,-192.74 544.74,-183.2"/>
<polygon fill="black" stroke="black" points="546,-179.91 535.45,-180.82 544.27,-186.69 546,-179.91"/>
</g>
<!-- AddSampleLogMultiple -->
<g id="node25" class="node">
<title>AddSampleLogMultiple</title>
<path fill="lightskyblue" stroke="black" d="M539.23,-108C539.23,-108 388.98,-108 388.98,-108 382.98,-108 376.98,-102 376.98,-96 376.98,-96 376.98,-84 376.98,-84 376.98,-78 382.98,-72 388.98,-72 388.98,-72 539.23,-72 539.23,-72 545.23,-72 551.23,-78 551.23,-84 551.23,-84 551.23,-96 551.23,-96 551.23,-102 545.23,-108 539.23,-108"/>
<text text-anchor="middle" x="464.11" y="-85.33" font-family="Helvetica,sans-Serif" font-size="14.00">AddSampleLogMultiple</text>
</g>
<!-- MonteCarloAbsorption&#45;&gt;AddSampleLogMultiple -->
<g id="edge30" class="edge">
<title>MonteCarloAbsorption&#45;&gt;AddSampleLogMultiple</title>
<path fill="none" stroke="black" d="M464.11,-143.7C464.11,-136.41 464.11,-127.73 464.11,-119.54"/>
<polygon fill="black" stroke="black" points="467.61,-119.62 464.11,-109.62 460.61,-119.62 467.61,-119.62"/>
</g>
<!-- AddSampleLogMultiple&#45;&gt;OutputWorkspace -->
<g id="edge31" class="edge">
<title>AddSampleLogMultiple&#45;&gt;OutputWorkspace</title>
<path fill="none" stroke="black" d="M464.11,-71.7C464.11,-64.41 464.11,-55.73 464.11,-47.54"/>
<polygon fill="black" stroke="black" points="467.61,-47.62 464.11,-37.62 460.61,-47.62 467.61,-47.62"/>
</g>
<!-- Material&#45;&gt;Shape -->
<g id="edge9" class="edge">
<title>Material&#45;&gt;Shape</title>
<path fill="none" stroke="black" d="M726.01,-432.63C697.66,-420.65 660.41,-404.91 633.61,-393.58"/>
<polygon fill="black" stroke="black" points="635.14,-390.43 624.57,-389.76 632.42,-396.88 635.14,-390.43"/>
</g>
<!-- FlatPlate&#45;&gt;SetSample -->
<g id="edge23" class="edge">
<title>FlatPlate&#45;&gt;SetSample</title>
<path fill="none" stroke="black" d="M400.98,-299.38C459.06,-291.52 564.74,-275.79 663.49,-252.47"/>
<polygon fill="black" stroke="black" points="664.18,-255.9 673.09,-250.17 662.55,-249.09 664.18,-255.9"/>
</g>
<!-- Cylinder&#45;&gt;SetSample -->
<g id="edge24" class="edge">
<title>Cylinder&#45;&gt;SetSample</title>
<path fill="none" stroke="black" d="M720.11,-287.7C720.11,-280.41 720.11,-271.73 720.11,-263.54"/>
<polygon fill="black" stroke="black" points="723.61,-263.62 720.11,-253.62 716.61,-263.62 723.61,-263.62"/>
</g>
<!-- Annulus&#45;&gt;SetSample -->
<g id="edge25" class="edge">
<title>Annulus&#45;&gt;SetSample</title>
<path fill="none" stroke="black" d="M878.41,-287.52C847.4,-277.23 808.19,-264.22 776.55,-253.72"/>
<polygon fill="black" stroke="black" points="777.73,-250.43 767.14,-250.6 775.53,-257.07 777.73,-250.43"/>
</g>
</g>
</svg>
