<?xml version="1.0" encoding="UTF-8" standalone="no"?>
<!DOCTYPE svg PUBLIC "-//W3C//DTD SVG 1.1//EN"
 "http://www.w3.org/Graphics/SVG/1.1/DTD/svg11.dtd">
<!-- Generated by graphviz version 13.1.1 (20250720.1534)
 -->
<!-- Title: SimpleShapeMonteCarloAbsorption Pages: 1 -->
<svg width="1302pt" height="743pt"
 viewBox="0.00 0.00 1302.00 743.00" xmlns="http://www.w3.org/2000/svg" xmlns:xlink="http://www.w3.org/1999/xlink">
<g id="graph0" class="graph" transform="scale(1 1) rotate(0) translate(4 738.5)">
<title>SimpleShapeMonteCarloAbsorption</title>
<polygon fill="white" stroke="none" points="-4,4 -4,-738.5 1298.36,-738.5 1298.36,4 -4,4"/>
<text xml:space="preserve" text-anchor="middle" x="647.18" y="-717.2" font-family="Helvetica,sans-Serif" font-size="14.00">SimpleShapeMonteCarloAbsorption Flowchart</text>
<!-- InputWorkspace -->
<g id="node1" class="node">
<title>InputWorkspace</title>
<ellipse fill="khaki" stroke="black" cx="337.11" cy="-691.25" rx="90.14" ry="18"/>
<text xml:space="preserve" text-anchor="middle" x="337.11" y="-686.58" font-family="Helvetica,sans-Serif" font-size="14.00">InputWorkspace</text>
</g>
<!-- SetBeam -->
<g id="node22" class="node">
<title>SetBeam</title>
<path fill="lightskyblue" stroke="black" d="M543.23,-636.25C543.23,-636.25 488.98,-636.25 488.98,-636.25 482.98,-636.25 476.98,-630.25 476.98,-624.25 476.98,-624.25 476.98,-612.25 476.98,-612.25 476.98,-606.25 482.98,-600.25 488.98,-600.25 488.98,-600.25 543.23,-600.25 543.23,-600.25 549.23,-600.25 555.23,-606.25 555.23,-612.25 555.23,-612.25 555.23,-624.25 555.23,-624.25 555.23,-630.25 549.23,-636.25 543.23,-636.25"/>
<text xml:space="preserve" text-anchor="middle" x="516.11" y="-613.58" font-family="Helvetica,sans-Serif" font-size="14.00">SetBeam</text>
</g>
<!-- InputWorkspace&#45;&gt;SetBeam -->
<g id="edge1" class="edge">
<title>InputWorkspace&#45;&gt;SetBeam</title>
<path fill="none" stroke="black" d="M376.39,-674.67C402.76,-664.21 437.74,-650.34 466.09,-639.09"/>
<polygon fill="black" stroke="black" points="467.2,-642.42 475.2,-635.48 464.62,-635.91 467.2,-642.42"/>
</g>
<!-- OutputWorkspace -->
<g id="node2" class="node">
<title>OutputWorkspace</title>
<ellipse fill="khaki" stroke="black" cx="464.11" cy="-18" rx="98.56" ry="18"/>
<text xml:space="preserve" text-anchor="middle" x="464.11" y="-13.32" font-family="Helvetica,sans-Serif" font-size="14.00">OutputWorkspace</text>
</g>
<!-- BeamHeight -->
<g id="node3" class="node">
<title>BeamHeight</title>
<ellipse fill="khaki" stroke="black" cx="516.11" cy="-691.25" rx="71.2" ry="18"/>
<text xml:space="preserve" text-anchor="middle" x="516.11" y="-686.58" font-family="Helvetica,sans-Serif" font-size="14.00">BeamHeight</text>
</g>
<!-- BeamHeight&#45;&gt;SetBeam -->
<g id="edge2" class="edge">
<title>BeamHeight&#45;&gt;SetBeam</title>
<path fill="none" stroke="black" d="M516.11,-673.06C516.11,-665.48 516.11,-656.35 516.11,-647.79"/>
<polygon fill="black" stroke="black" points="519.61,-647.79 516.11,-637.79 512.61,-647.79 519.61,-647.79"/>
</g>
<!-- BeamWidth -->
<g id="node4" class="node">
<title>BeamWidth</title>
<ellipse fill="khaki" stroke="black" cx="673.11" cy="-691.25" rx="67.52" ry="18"/>
<text xml:space="preserve" text-anchor="middle" x="673.11" y="-686.58" font-family="Helvetica,sans-Serif" font-size="14.00">BeamWidth</text>
</g>
<!-- BeamWidth&#45;&gt;SetBeam -->
<g id="edge3" class="edge">
<title>BeamWidth&#45;&gt;SetBeam</title>
<path fill="none" stroke="black" d="M639.81,-675.19C618.09,-665.37 589.37,-652.38 565.07,-641.39"/>
<polygon fill="black" stroke="black" points="566.54,-638.22 555.99,-637.28 563.66,-644.59 566.54,-638.22"/>
</g>
<!-- ChemicalFormula -->
<g id="node5" class="node">
<title>ChemicalFormula</title>
<ellipse fill="khaki" stroke="black" cx="819.11" cy="-545.25" rx="94.88" ry="18"/>
<text xml:space="preserve" text-anchor="middle" x="819.11" y="-540.58" font-family="Helvetica,sans-Serif" font-size="14.00">ChemicalFormula</text>
</g>
<!-- Material -->
<g id="node26" class="node">
<title>Material</title>
<polygon fill="grey" stroke="black" points="828.09,-474 734.26,-474 710.12,-438 803.95,-438 828.09,-474"/>
<text xml:space="preserve" text-anchor="middle" x="769.11" y="-449.82" font-family="Times,serif" font-size="14.00">Material</text>
</g>
<!-- ChemicalFormula&#45;&gt;Material -->
<g id="edge7" class="edge">
<title>ChemicalFormula&#45;&gt;Material</title>
<path fill="none" stroke="black" d="M809.23,-527.01C802.18,-514.7 792.55,-497.91 784.49,-483.85"/>
<polygon fill="black" stroke="black" points="787.73,-482.45 779.72,-475.52 781.65,-485.93 787.73,-482.45"/>
</g>
<!-- Density -->
<g id="node6" class="node">
<title>Density</title>
<ellipse fill="khaki" stroke="black" cx="1050.11" cy="-545.25" rx="118.55" ry="18"/>
<text xml:space="preserve" text-anchor="middle" x="1050.11" y="-540.58" font-family="Helvetica,sans-Serif" font-size="14.00">Mass/Number Density</text>
</g>
<!-- Density&#45;&gt;Material -->
<g id="edge8" class="edge">
<title>Density&#45;&gt;Material</title>
<path fill="none" stroke="black" d="M999.55,-528.55C953.76,-514.34 886,-493.3 835.8,-477.71"/>
<polygon fill="black" stroke="black" points="837.08,-474.44 826.49,-474.82 835,-481.13 837.08,-474.44"/>
</g>
<!-- Height1 -->
<g id="node7" class="node">
<title>Height1</title>
<ellipse fill="khaki" stroke="black" cx="139.11" cy="-383" rx="43.32" ry="18"/>
<text xml:space="preserve" text-anchor="middle" x="139.11" y="-378.32" font-family="Helvetica,sans-Serif" font-size="14.00">Height</text>
</g>
<!-- FlatPlate -->
<g id="node27" class="node">
<title>FlatPlate</title>
<polygon fill="grey" stroke="black" points="417.49,-328 321.44,-328 296.73,-292 392.78,-292 417.49,-328"/>
<text xml:space="preserve" text-anchor="middle" x="357.11" y="-303.82" font-family="Times,serif" font-size="14.00">FlatPlate</text>
</g>
<!-- Height1&#45;&gt;FlatPlate -->
<g id="edge14" class="edge">
<title>Height1&#45;&gt;FlatPlate</title>
<path fill="none" stroke="black" d="M172.39,-371.11C178.61,-369.08 185.06,-366.97 191.11,-365 230.2,-352.25 274.47,-337.85 307.46,-327.13"/>
<polygon fill="black" stroke="black" points="308.33,-330.53 316.76,-324.11 306.16,-323.87 308.33,-330.53"/>
</g>
<!-- Height2 -->
<g id="node8" class="node">
<title>Height2</title>
<ellipse fill="khaki" stroke="black" cx="826.11" cy="-383" rx="43.32" ry="18"/>
<text xml:space="preserve" text-anchor="middle" x="826.11" y="-378.32" font-family="Helvetica,sans-Serif" font-size="14.00">Height</text>
</g>
<!-- Cylinder -->
<g id="node28" class="node">
<title>Cylinder</title>
<polygon fill="grey" stroke="black" points="779.09,-328 685.26,-328 661.12,-292 754.95,-292 779.09,-328"/>
<text xml:space="preserve" text-anchor="middle" x="720.11" y="-303.82" font-family="Times,serif" font-size="14.00">Cylinder</text>
</g>
<!-- Height2&#45;&gt;Cylinder -->
<g id="edge19" class="edge">
<title>Height2&#45;&gt;Cylinder</title>
<path fill="none" stroke="black" d="M803.89,-367.12C789.78,-357.67 771.22,-345.23 755.15,-334.47"/>
<polygon fill="black" stroke="black" points="757.55,-331.87 747.29,-329.21 753.65,-337.68 757.55,-331.87"/>
</g>
<!-- Height3 -->
<g id="node9" class="node">
<title>Height3</title>
<ellipse fill="khaki" stroke="black" cx="931.11" cy="-383" rx="43.32" ry="18"/>
<text xml:space="preserve" text-anchor="middle" x="931.11" y="-378.32" font-family="Helvetica,sans-Serif" font-size="14.00">Height</text>
</g>
<!-- Annulus -->
<g id="node29" class="node">
<title>Annulus</title>
<polygon fill="grey" stroke="black" points="988.69,-328 897.09,-328 873.52,-292 965.13,-292 988.69,-328"/>
<text xml:space="preserve" text-anchor="middle" x="931.11" y="-303.82" font-family="Times,serif" font-size="14.00">Annulus</text>
</g>
<!-- Height3&#45;&gt;Annulus -->
<g id="edge20" class="edge">
<title>Height3&#45;&gt;Annulus</title>
<path fill="none" stroke="black" d="M931.11,-364.81C931.11,-357.23 931.11,-348.1 931.11,-339.54"/>
<polygon fill="black" stroke="black" points="934.61,-339.54 931.11,-329.54 927.61,-339.54 934.61,-339.54"/>
</g>
<!-- Width -->
<g id="node10" class="node">
<title>Width</title>
<ellipse fill="khaki" stroke="black" cx="240.11" cy="-383" rx="39.63" ry="18"/>
<text xml:space="preserve" text-anchor="middle" x="240.11" y="-378.32" font-family="Helvetica,sans-Serif" font-size="14.00">Width</text>
</g>
<!-- Width&#45;&gt;FlatPlate -->
<g id="edge13" class="edge">
<title>Width&#45;&gt;FlatPlate</title>
<path fill="none" stroke="black" d="M263.22,-367.97C279.07,-358.36 300.46,-345.37 318.83,-334.23"/>
<polygon fill="black" stroke="black" points="320.63,-337.23 327.37,-329.05 317,-331.24 320.63,-337.23"/>
</g>
<!-- Thickness -->
<g id="node11" class="node">
<title>Thickness</title>
<ellipse fill="khaki" stroke="black" cx="357.11" cy="-383" rx="59.63" ry="18"/>
<text xml:space="preserve" text-anchor="middle" x="357.11" y="-378.32" font-family="Helvetica,sans-Serif" font-size="14.00">Thickness</text>
</g>
<!-- Thickness&#45;&gt;FlatPlate -->
<g id="edge15" class="edge">
<title>Thickness&#45;&gt;FlatPlate</title>
<path fill="none" stroke="black" d="M357.11,-364.81C357.11,-357.23 357.11,-348.1 357.11,-339.54"/>
<polygon fill="black" stroke="black" points="360.61,-339.54 357.11,-329.54 353.61,-339.54 360.61,-339.54"/>
</g>
<!-- Center -->
<g id="node12" class="node">
<title>Center</title>
<ellipse fill="khaki" stroke="black" cx="478.11" cy="-383" rx="43.84" ry="18"/>
<text xml:space="preserve" text-anchor="middle" x="478.11" y="-378.32" font-family="Helvetica,sans-Serif" font-size="14.00">Center</text>
</g>
<!-- Center&#45;&gt;FlatPlate -->
<g id="edge16" class="edge">
<title>Center&#45;&gt;FlatPlate</title>
<path fill="none" stroke="black" d="M453.62,-367.63C437.23,-358.01 415.3,-345.14 396.48,-334.1"/>
<polygon fill="black" stroke="black" points="398.39,-331.17 387.99,-329.12 394.85,-337.2 398.39,-331.17"/>
</g>
<!-- Angle -->
<g id="node13" class="node">
<title>Angle</title>
<ellipse fill="khaki" stroke="black" cx="39.11" cy="-383" rx="39.11" ry="18"/>
<text xml:space="preserve" text-anchor="middle" x="39.11" y="-378.32" font-family="Helvetica,sans-Serif" font-size="14.00">Angle</text>
</g>
<!-- Angle&#45;&gt;FlatPlate -->
<g id="edge17" class="edge">
<title>Angle&#45;&gt;FlatPlate</title>
<path fill="none" stroke="black" d="M68.6,-370.81C74.67,-368.72 81.06,-366.67 87.11,-365 160.9,-344.67 248,-328.64 302.9,-319.49"/>
<polygon fill="black" stroke="black" points="303.32,-322.97 312.62,-317.89 302.18,-316.07 303.32,-322.97"/>
</g>
<!-- Radius -->
<g id="node14" class="node">
<title>Radius</title>
<ellipse fill="khaki" stroke="black" cx="720.11" cy="-383" rx="44.37" ry="18"/>
<text xml:space="preserve" text-anchor="middle" x="720.11" y="-378.32" font-family="Helvetica,sans-Serif" font-size="14.00">Radius</text>
</g>
<!-- Radius&#45;&gt;Cylinder -->
<g id="edge18" class="edge">
<title>Radius&#45;&gt;Cylinder</title>
<path fill="none" stroke="black" d="M720.11,-364.81C720.11,-357.23 720.11,-348.1 720.11,-339.54"/>
<polygon fill="black" stroke="black" points="723.61,-339.54 720.11,-329.54 716.61,-339.54 723.61,-339.54"/>
</g>
<!-- InnerRadius -->
<g id="node15" class="node">
<title>InnerRadius</title>
<ellipse fill="khaki" stroke="black" cx="1062.11" cy="-383" rx="70.15" ry="18"/>
<text xml:space="preserve" text-anchor="middle" x="1062.11" y="-378.32" font-family="Helvetica,sans-Serif" font-size="14.00">InnerRadius</text>
</g>
<!-- InnerRadius&#45;&gt;Annulus -->
<g id="edge21" class="edge">
<title>InnerRadius&#45;&gt;Annulus</title>
<path fill="none" stroke="black" d="M1033.03,-366.24C1015.45,-356.71 992.72,-344.39 973.19,-333.81"/>
<polygon fill="black" stroke="black" points="975.11,-330.87 964.65,-329.18 971.77,-337.02 975.11,-330.87"/>
</g>
<!-- OuterRadius -->
<g id="node16" class="node">
<title>OuterRadius</title>
<ellipse fill="khaki" stroke="black" cx="1222.11" cy="-383" rx="72.25" ry="18"/>
<text xml:space="preserve" text-anchor="middle" x="1222.11" y="-378.32" font-family="Helvetica,sans-Serif" font-size="14.00">OuterRadius</text>
</g>
<!-- OuterRadius&#45;&gt;Annulus -->
<g id="edge22" class="edge">
<title>OuterRadius&#45;&gt;Annulus</title>
<path fill="none" stroke="black" d="M1171.75,-369.71C1123.68,-357.99 1050.95,-340.24 998.03,-327.33"/>
<polygon fill="black" stroke="black" points="999.07,-323.98 988.52,-325.01 997.41,-330.78 999.07,-323.98"/>
</g>
<!-- EventsPerPoint -->
<g id="node17" class="node">
<title>EventsPerPoint</title>
<ellipse fill="khaki" stroke="black" cx="93.11" cy="-237" rx="84.35" ry="18"/>
<text xml:space="preserve" text-anchor="middle" x="93.11" y="-232.32" font-family="Helvetica,sans-Serif" font-size="14.00">EventsPerPoint</text>
</g>
<!-- MonteCarloAbsorption -->
<g id="node24" class="node">
<title>MonteCarloAbsorption</title>
<path fill="lightskyblue" stroke="black" d="M537.36,-182C537.36,-182 390.86,-182 390.86,-182 384.86,-182 378.86,-176 378.86,-170 378.86,-170 378.86,-158 378.86,-158 378.86,-152 384.86,-146 390.86,-146 390.86,-146 537.36,-146 537.36,-146 543.36,-146 549.36,-152 549.36,-158 549.36,-158 549.36,-170 549.36,-170 549.36,-176 543.36,-182 537.36,-182"/>
<text xml:space="preserve" text-anchor="middle" x="464.11" y="-159.32" font-family="Helvetica,sans-Serif" font-size="14.00">MonteCarloAbsorption</text>
</g>
<!-- EventsPerPoint&#45;&gt;MonteCarloAbsorption -->
<g id="edge27" class="edge">
<title>EventsPerPoint&#45;&gt;MonteCarloAbsorption</title>
<path fill="none" stroke="black" d="M154.37,-224.28C212.27,-213.19 300.06,-196.39 367.41,-183.51"/>
<polygon fill="black" stroke="black" points="367.81,-186.99 376.97,-181.68 366.49,-180.12 367.81,-186.99"/>
</g>
<!-- NumberOfWavelengthPoints -->
<g id="node18" class="node">
<title>NumberOfWavelengthPoints</title>
<ellipse fill="khaki" stroke="black" cx="344.11" cy="-237" rx="149.06" ry="18"/>
<text xml:space="preserve" text-anchor="middle" x="344.11" y="-232.32" font-family="Helvetica,sans-Serif" font-size="14.00">NumberOfWavelengthPoints</text>
</g>
<!-- NumberOfWavelengthPoints&#45;&gt;MonteCarloAbsorption -->
<g id="edge28" class="edge">
<title>NumberOfWavelengthPoints&#45;&gt;MonteCarloAbsorption</title>
<path fill="none" stroke="black" d="M372.85,-218.99C388.5,-209.73 408.09,-198.15 425.1,-188.08"/>
<polygon fill="black" stroke="black" points="426.64,-191.24 433.46,-183.13 423.07,-185.21 426.64,-191.24"/>
</g>
<!-- Interpolation -->
<g id="node19" class="node">
<title>Interpolation</title>
<ellipse fill="khaki" stroke="black" cx="584.11" cy="-237" rx="73.3" ry="18"/>
<text xml:space="preserve" text-anchor="middle" x="584.11" y="-232.32" font-family="Helvetica,sans-Serif" font-size="14.00">Interpolation</text>
</g>
<!-- Interpolation&#45;&gt;MonteCarloAbsorption -->
<g id="edge29" class="edge">
<title>Interpolation&#45;&gt;MonteCarloAbsorption</title>
<path fill="none" stroke="black" d="M556.88,-219.89C540.89,-210.43 520.43,-198.32 502.79,-187.89"/>
<polygon fill="black" stroke="black" points="505.02,-185.14 494.63,-183.06 501.45,-191.16 505.02,-185.14"/>
</g>
<!-- material_already_defined -->
<g id="node20" class="node">
<title>material_already_defined</title>
<polygon fill="limegreen" stroke="black" points="516.11,-563.25 326.13,-545.25 516.11,-527.25 706.08,-545.25 516.11,-563.25"/>
<text xml:space="preserve" text-anchor="middle" x="516.11" y="-540.58" font-family="Helvetica,sans-Serif" font-size="14.00">Material already defined?</text>
</g>
<!-- Shape -->
<g id="node21" class="node">
<title>Shape</title>
<polygon fill="limegreen" stroke="black" points="599.11,-401 540.08,-383 599.11,-365 658.13,-383 599.11,-401"/>
<text xml:space="preserve" text-anchor="middle" x="599.11" y="-378.32" font-family="Helvetica,sans-Serif" font-size="14.00">Shape</text>
</g>
<!-- material_already_defined&#45;&gt;Shape -->
<g id="edge5" class="edge">
<title>material_already_defined&#45;&gt;Shape</title>
<path fill="none" stroke="black" d="M524.68,-527.7C539.26,-499.54 569,-442.13 586.14,-409.03"/>
<polygon fill="black" stroke="black" points="589.25,-410.65 590.74,-400.16 583.03,-407.43 589.25,-410.65"/>
<text xml:space="preserve" text-anchor="middle" x="581.8" y="-451.32" font-family="Helvetica,sans-Serif" font-size="14.00">Yes</text>
</g>
<!-- material_already_defined&#45;&gt;Material -->
<g id="edge6" class="edge">
<title>material_already_defined&#45;&gt;Material</title>
<path fill="none" stroke="black" d="M555.92,-530.52C600.46,-515.16 672.62,-490.27 720.47,-473.77"/>
<polygon fill="black" stroke="black" points="721.44,-477.14 729.75,-470.57 719.16,-470.52 721.44,-477.14"/>
<text xml:space="preserve" text-anchor="middle" x="674.64" y="-495.95" font-family="Helvetica,sans-Serif" font-size="14.00">No</text>
</g>
<!-- Shape&#45;&gt;FlatPlate -->
<g id="edge10" class="edge">
<title>Shape&#45;&gt;FlatPlate</title>
<path fill="none" stroke="black" d="M569.92,-373.44C534.81,-363.14 474.7,-345.5 427.29,-331.59"/>
<polygon fill="black" stroke="black" points="428.5,-328.3 417.92,-328.84 426.53,-335.01 428.5,-328.3"/>
</g>
<!-- Shape&#45;&gt;Cylinder -->
<g id="edge11" class="edge">
<title>Shape&#45;&gt;Cylinder</title>
<path fill="none" stroke="black" d="M617.87,-370.33C629.42,-363.2 644.55,-353.96 658.11,-346 664.77,-342.09 671.87,-338 678.8,-334.06"/>
<polygon fill="black" stroke="black" points="680.47,-337.14 687.45,-329.17 677.02,-331.05 680.47,-337.14"/>
</g>
<!-- Shape&#45;&gt;Annulus -->
<g id="edge12" class="edge">
<title>Shape&#45;&gt;Annulus</title>
<path fill="none" stroke="black" d="M629.84,-374.02C641.49,-371.07 654.88,-367.78 667.11,-365 740.64,-348.3 826.22,-331.22 879.54,-320.86"/>
<polygon fill="black" stroke="black" points="880.1,-324.32 889.25,-318.98 878.77,-317.45 880.1,-324.32"/>
</g>
<!-- SetBeam&#45;&gt;material_already_defined -->
<g id="edge4" class="edge">
<title>SetBeam&#45;&gt;material_already_defined</title>
<path fill="none" stroke="black" d="M516.11,-600.06C516.11,-592.48 516.11,-583.35 516.11,-574.79"/>
<polygon fill="black" stroke="black" points="519.61,-574.79 516.11,-564.79 512.61,-574.79 519.61,-574.79"/>
</g>
<!-- SetSample -->
<g id="node23" class="node">
<title>SetSample</title>
<path fill="lightskyblue" stroke="black" d="M753.23,-255C753.23,-255 686.98,-255 686.98,-255 680.98,-255 674.98,-249 674.98,-243 674.98,-243 674.98,-231 674.98,-231 674.98,-225 680.98,-219 686.98,-219 686.98,-219 753.23,-219 753.23,-219 759.23,-219 765.23,-225 765.23,-231 765.23,-231 765.23,-243 765.23,-243 765.23,-249 759.23,-255 753.23,-255"/>
<text xml:space="preserve" text-anchor="middle" x="720.11" y="-232.32" font-family="Helvetica,sans-Serif" font-size="14.00">SetSample</text>
</g>
<!-- SetSample&#45;&gt;MonteCarloAbsorption -->
<g id="edge26" class="edge">
<title>SetSample&#45;&gt;MonteCarloAbsorption</title>
<path fill="none" stroke="black" d="M674.49,-221.48C671.65,-220.63 668.84,-219.8 666.11,-219 625.66,-207.23 580.37,-195.04 542.95,-185.22"/>
<polygon fill="black" stroke="black" points="544.13,-181.91 533.57,-182.77 542.36,-188.68 544.13,-181.91"/>
</g>
<!-- AddSampleLogMultiple -->
<g id="node25" class="node">
<title>AddSampleLogMultiple</title>
<path fill="lightskyblue" stroke="black" d="M539.23,-109C539.23,-109 388.98,-109 388.98,-109 382.98,-109 376.98,-103 376.98,-97 376.98,-97 376.98,-85 376.98,-85 376.98,-79 382.98,-73 388.98,-73 388.98,-73 539.23,-73 539.23,-73 545.23,-73 551.23,-79 551.23,-85 551.23,-85 551.23,-97 551.23,-97 551.23,-103 545.23,-109 539.23,-109"/>
<text xml:space="preserve" text-anchor="middle" x="464.11" y="-86.33" font-family="Helvetica,sans-Serif" font-size="14.00">AddSampleLogMultiple</text>
</g>
<!-- MonteCarloAbsorption&#45;&gt;AddSampleLogMultiple -->
<g id="edge30" class="edge">
<title>MonteCarloAbsorption&#45;&gt;AddSampleLogMultiple</title>
<path fill="none" stroke="black" d="M464.11,-145.81C464.11,-138.23 464.11,-129.1 464.11,-120.54"/>
<polygon fill="black" stroke="black" points="467.61,-120.54 464.11,-110.54 460.61,-120.54 467.61,-120.54"/>
</g>
<!-- AddSampleLogMultiple&#45;&gt;OutputWorkspace -->
<g id="edge31" class="edge">
<title>AddSampleLogMultiple&#45;&gt;OutputWorkspace</title>
<path fill="none" stroke="black" d="M464.11,-72.81C464.11,-65.23 464.11,-56.1 464.11,-47.54"/>
<polygon fill="black" stroke="black" points="467.61,-47.54 464.11,-37.54 460.61,-47.54 467.61,-47.54"/>
</g>
<!-- Material&#45;&gt;Shape -->
<g id="edge9" class="edge">
<title>Material&#45;&gt;Shape</title>
<path fill="none" stroke="black" d="M727.52,-437.63C698.67,-425.58 660.69,-409.72 633.53,-398.38"/>
<polygon fill="black" stroke="black" points="634.95,-395.18 624.37,-394.55 632.25,-401.63 634.95,-395.18"/>
</g>
<!-- FlatPlate&#45;&gt;SetSample -->
<g id="edge23" class="edge">
<title>FlatPlate&#45;&gt;SetSample</title>
<path fill="none" stroke="black" d="M400.98,-303.19C459.05,-295.1 564.73,-278.98 663.49,-255.48"/>
<polygon fill="black" stroke="black" points="664.19,-258.91 673.09,-253.16 662.55,-252.1 664.19,-258.91"/>
</g>
<!-- Cylinder&#45;&gt;SetSample -->
<g id="edge24" class="edge">
<title>Cylinder&#45;&gt;SetSample</title>
<path fill="none" stroke="black" d="M720.11,-291.81C720.11,-284.23 720.11,-275.1 720.11,-266.54"/>
<polygon fill="black" stroke="black" points="723.61,-266.54 720.11,-256.54 716.61,-266.54 723.61,-266.54"/>
</g>
<!-- Annulus&#45;&gt;SetSample -->
<g id="edge25" class="edge">
<title>Annulus&#45;&gt;SetSample</title>
<path fill="none" stroke="black" d="M879.22,-291.54C847.98,-281.03 808.19,-267.64 776.22,-256.88"/>
<polygon fill="black" stroke="black" points="777.72,-253.69 767.13,-253.82 775.49,-260.33 777.72,-253.69"/>
</g>
</g>
</svg>
