<?xml version="1.0" encoding="UTF-8" standalone="no"?>
<!DOCTYPE svg PUBLIC "-//W3C//DTD SVG 1.1//EN"
 "http://www.w3.org/Graphics/SVG/1.1/DTD/svg11.dtd">
<!-- Generated by graphviz version 7.1.0 (20230122.1345)
 -->
<!-- Title: SimulatedDensityOfStates Pages: 1 -->
<svg width="3967pt" height="707pt"
 viewBox="0.00 0.00 3967.00 707.00" xmlns="http://www.w3.org/2000/svg" xmlns:xlink="http://www.w3.org/1999/xlink">
<g id="graph0" class="graph" transform="scale(1 1) rotate(0) translate(4 703)">
<title>SimulatedDensityOfStates</title>
<polygon fill="white" stroke="none" points="-4,4 -4,-703 3963,-703 3963,4 -4,4"/>
<text text-anchor="middle" x="1979.5" y="-683.8" font-family="Helvetica,sans-Serif" font-size="14.00">SimulatedDensityOfStates Flowchart</text>
<!-- CASTEPFile -->
<g id="node1" class="node">
<title>CASTEPFile</title>
<ellipse fill="khaki" stroke="black" cx="1356" cy="-658" rx="60.39" ry="18"/>
<text text-anchor="middle" x="1356" y="-654.3" font-family="Helvetica,sans-Serif" font-size="14.00">CASTEPFile</text>
</g>
<!-- read_data_from_file -->
<g id="node23" class="node">
<title>read_data_from_file</title>
<polygon fill="lightseagreen" stroke="black" points="1504,-603 1352,-603 1352,-567 1504,-567 1504,-603"/>
<text text-anchor="middle" x="1428" y="-581.3" font-family="Helvetica,sans-Serif" font-size="14.00">read_data_from_file</text>
</g>
<!-- CASTEPFile&#45;&gt;read_data_from_file -->
<g id="edge1" class="edge">
<title>CASTEPFile&#45;&gt;read_data_from_file</title>
<path fill="none" stroke="black" d="M1372.7,-640.53C1381.53,-631.83 1392.55,-620.95 1402.43,-611.21"/>
<polygon fill="black" stroke="black" points="1404.65,-613.94 1409.31,-604.43 1399.73,-608.96 1404.65,-613.94"/>
</g>
<!-- PHONONFile -->
<g id="node2" class="node">
<title>PHONONFile</title>
<ellipse fill="khaki" stroke="black" cx="1500" cy="-658" rx="65.79" ry="18"/>
<text text-anchor="middle" x="1500" y="-654.3" font-family="Helvetica,sans-Serif" font-size="14.00">PHONONFile</text>
</g>
<!-- PHONONFile&#45;&gt;read_data_from_file -->
<g id="edge2" class="edge">
<title>PHONONFile&#45;&gt;read_data_from_file</title>
<path fill="none" stroke="black" d="M1482.94,-640.17C1474.25,-631.61 1463.51,-621.02 1453.84,-611.48"/>
<polygon fill="black" stroke="black" points="1456.35,-609.04 1446.77,-604.51 1451.43,-614.02 1456.35,-609.04"/>
</g>
<!-- SpectrumType -->
<g id="node3" class="node">
<title>SpectrumType</title>
<ellipse fill="khaki" stroke="black" cx="1428" cy="-439" rx="75.29" ry="18"/>
<text text-anchor="middle" x="1428" y="-435.3" font-family="Helvetica,sans-Serif" font-size="14.00">SpectrumType</text>
</g>
<!-- Ions -->
<g id="node4" class="node">
<title>Ions</title>
<ellipse fill="khaki" stroke="black" cx="1319" cy="-352" rx="29.8" ry="18"/>
<text text-anchor="middle" x="1319" y="-348.3" font-family="Helvetica,sans-Serif" font-size="14.00">Ions</text>
</g>
<!-- SpectrumType&#45;&gt;Ions -->
<g id="edge18" class="edge">
<title>SpectrumType&#45;&gt;Ions</title>
<path fill="none" stroke="black" d="M1424.06,-420.71C1420.83,-410.02 1415.23,-396.73 1406,-388 1389.45,-372.34 1379.12,-378.56 1358,-370 1356.26,-369.29 1354.48,-368.56 1352.68,-367.81"/>
<polygon fill="black" stroke="black" points="1354.39,-364.74 1343.82,-364.04 1351.65,-371.18 1354.39,-364.74"/>
<text text-anchor="middle" x="1529.5" y="-391.8" font-family="Helvetica,sans-Serif" font-size="14.00">DOS and scale_by_cross_section</text>
</g>
<!-- partial_ions -->
<g id="node18" class="node">
<title>partial_ions</title>
<ellipse fill="khaki" stroke="black" cx="1209" cy="-352" rx="62.29" ry="18"/>
<text text-anchor="middle" x="1209" y="-348.3" font-family="Helvetica,sans-Serif" font-size="14.00">partial_ions</text>
</g>
<!-- SpectrumType&#45;&gt;partial_ions -->
<g id="edge9" class="edge">
<title>SpectrumType&#45;&gt;partial_ions</title>
<path fill="none" stroke="black" d="M1353.11,-436.3C1296.27,-433.25 1224.79,-424.99 1206,-403 1200.91,-397.05 1199.78,-389.1 1200.44,-381.29"/>
<polygon fill="black" stroke="black" points="1203.84,-382.16 1202.18,-371.7 1196.95,-380.91 1203.84,-382.16"/>
<text text-anchor="middle" x="1304" y="-391.8" font-family="Helvetica,sans-Serif" font-size="14.00">DOS and ions given in input</text>
</g>
<!-- ion_table_process -->
<g id="node24" class="node">
<title>ion_table_process</title>
<polygon fill="lightseagreen" stroke="black" points="659,-370 5,-370 5,-334 659,-334 659,-370"/>
<text text-anchor="middle" x="332" y="-348.3" font-family="Helvetica,sans-Serif" font-size="14.00">Extract ion data from file, convert data to cartesian coordinates and add to table workspace</text>
</g>
<!-- SpectrumType&#45;&gt;ion_table_process -->
<g id="edge5" class="edge">
<title>SpectrumType&#45;&gt;ion_table_process</title>
<path fill="none" stroke="black" d="M1357.35,-432.52C1201.05,-420.4 819.93,-390.84 568.95,-371.38"/>
<polygon fill="black" stroke="black" points="569.23,-367.89 558.98,-370.6 568.68,-374.87 569.23,-367.89"/>
<text text-anchor="middle" x="975" y="-391.8" font-family="Helvetica,sans-Serif" font-size="14.00">IonTable</text>
</g>
<!-- bond_table_process -->
<g id="node25" class="node">
<title>bond_table_process</title>
<polygon fill="lightseagreen" stroke="black" points="1128.5,-370 677.5,-370 677.5,-334 1128.5,-334 1128.5,-370"/>
<text text-anchor="middle" x="903" y="-348.3" font-family="Helvetica,sans-Serif" font-size="14.00">Extract bond data from file and add the data to the bond table</text>
</g>
<!-- SpectrumType&#45;&gt;bond_table_process -->
<g id="edge7" class="edge">
<title>SpectrumType&#45;&gt;bond_table_process</title>
<path fill="none" stroke="black" d="M1357.9,-432.04C1296.29,-426.29 1204.35,-416.48 1125,-403 1077.45,-394.92 1024.76,-383.18 982.65,-373.1"/>
<polygon fill="black" stroke="black" points="983.64,-369.74 973.1,-370.8 982,-376.54 983.64,-369.74"/>
<text text-anchor="middle" x="1161" y="-391.8" font-family="Helvetica,sans-Serif" font-size="14.00">BondTable</text>
</g>
<!-- compute_DOS -->
<g id="node28" class="node">
<title>compute_DOS</title>
<polygon fill="lightseagreen" stroke="black" points="2201.5,-370 1482.5,-370 1482.5,-334 2201.5,-334 2201.5,-370"/>
<text text-anchor="middle" x="1842" y="-348.3" font-family="Helvetica,sans-Serif" font-size="14.00">Uses frequencies and weights from file to create a matrix workspace containing the Density of states</text>
</g>
<!-- SpectrumType&#45;&gt;compute_DOS -->
<g id="edge25" class="edge">
<title>SpectrumType&#45;&gt;compute_DOS</title>
<path fill="none" stroke="black" d="M1492.19,-429.26C1535.76,-422.94 1594.58,-413.66 1646,-403 1686.82,-394.53 1731.93,-383.17 1768.58,-373.41"/>
<polygon fill="black" stroke="black" points="1769.45,-376.8 1778.2,-370.83 1767.64,-370.04 1769.45,-376.8"/>
<text text-anchor="middle" x="1726.5" y="-391.8" font-family="Helvetica,sans-Serif" font-size="14.00">DOS</text>
</g>
<!-- compute_DOS_IR -->
<g id="node29" class="node">
<title>compute_DOS_IR</title>
<polygon fill="lightseagreen" stroke="black" points="3062.5,-370 2219.5,-370 2219.5,-334 3062.5,-334 3062.5,-370"/>
<text text-anchor="middle" x="2641" y="-348.3" font-family="Helvetica,sans-Serif" font-size="14.00">Uses frequencies, ir_intensities and weights from the file to create a matrix workspace containing the Density of states</text>
</g>
<!-- SpectrumType&#45;&gt;compute_DOS_IR -->
<g id="edge28" class="edge">
<title>SpectrumType&#45;&gt;compute_DOS_IR</title>
<path fill="none" stroke="black" d="M1499.35,-433C1668.11,-421.17 2098.73,-391 2380.21,-371.27"/>
<polygon fill="black" stroke="black" points="2380.17,-374.79 2389.9,-370.6 2379.68,-367.8 2380.17,-374.79"/>
<text text-anchor="middle" x="2139" y="-391.8" font-family="Helvetica,sans-Serif" font-size="14.00">IR_Active</text>
</g>
<!-- compute_DOS_Ramen -->
<g id="node30" class="node">
<title>compute_DOS_Ramen</title>
<polygon fill="lightseagreen" stroke="black" points="3959,-370 3081,-370 3081,-334 3959,-334 3959,-370"/>
<text text-anchor="middle" x="3520" y="-348.3" font-family="Helvetica,sans-Serif" font-size="14.00">Uses frequencies, ramen_intensities and weights from the file to create a matrix workspace containing the Density of states</text>
</g>
<!-- SpectrumType&#45;&gt;compute_DOS_Ramen -->
<g id="edge31" class="edge">
<title>SpectrumType&#45;&gt;compute_DOS_Ramen</title>
<path fill="none" stroke="black" d="M1501.84,-435C1749.28,-424.95 2562.53,-391.9 3078.02,-370.96"/>
<polygon fill="black" stroke="black" points="3078.02,-374.46 3087.87,-370.56 3077.74,-367.47 3078.02,-374.46"/>
<text text-anchor="middle" x="2648" y="-391.8" font-family="Helvetica,sans-Serif" font-size="14.00">Raman_Active</text>
</g>
<!-- all_ions -->
<g id="node33" class="node">
<title>all_ions</title>
<ellipse fill="lightgrey" stroke="black" cx="1054" cy="-265" rx="44.39" ry="18"/>
<text text-anchor="middle" x="1054" y="-261.3" font-family="Helvetica,sans-Serif" font-size="14.00">all_ions</text>
</g>
<!-- Ions&#45;&gt;all_ions -->
<g id="edge19" class="edge">
<title>Ions&#45;&gt;all_ions</title>
<path fill="none" stroke="black" d="M1296.21,-340.11C1290.97,-337.87 1285.35,-335.69 1280,-334 1241.51,-321.87 1229.84,-326.95 1191,-316 1158.12,-306.73 1121.85,-293.35 1094.89,-282.76"/>
<polygon fill="black" stroke="black" points="1096.3,-279.55 1085.72,-279.12 1093.72,-286.06 1096.3,-279.55"/>
<text text-anchor="middle" x="1302.5" y="-304.8" font-family="Helvetica,sans-Serif" font-size="14.00">Convert user input to dictionary</text>
</g>
<!-- SumContributions -->
<g id="node5" class="node">
<title>SumContributions</title>
<ellipse fill="khaki" stroke="black" cx="1419" cy="-178" rx="92.08" ry="18"/>
<text text-anchor="middle" x="1419" y="-174.3" font-family="Helvetica,sans-Serif" font-size="14.00">SumContributions</text>
</g>
<!-- sum_workspace -->
<g id="node19" class="node">
<title>sum_workspace</title>
<ellipse fill="khaki" stroke="black" cx="1389" cy="-91" rx="83.39" ry="18"/>
<text text-anchor="middle" x="1389" y="-87.3" font-family="Helvetica,sans-Serif" font-size="14.00">sum_workspace</text>
</g>
<!-- SumContributions&#45;&gt;sum_workspace -->
<g id="edge13" class="edge">
<title>SumContributions&#45;&gt;sum_workspace</title>
<path fill="none" stroke="black" d="M1395.7,-160.44C1390.17,-155.23 1385.01,-148.98 1382,-142 1379.12,-135.32 1378.85,-127.71 1379.79,-120.49"/>
<polygon fill="black" stroke="black" points="1383.2,-121.26 1381.86,-110.75 1376.35,-119.81 1383.2,-121.26"/>
<text text-anchor="middle" x="1393.5" y="-130.8" font-family="Helvetica,sans-Serif" font-size="14.00">Yes</text>
</g>
<!-- GroupWorkspaces -->
<g id="node32" class="node">
<title>GroupWorkspaces</title>
<ellipse fill="lightgrey" stroke="black" cx="1196" cy="-91" rx="92.08" ry="18"/>
<text text-anchor="middle" x="1196" y="-87.3" font-family="Helvetica,sans-Serif" font-size="14.00">GroupWorkspaces</text>
</g>
<!-- SumContributions&#45;&gt;GroupWorkspaces -->
<g id="edge15" class="edge">
<title>SumContributions&#45;&gt;GroupWorkspaces</title>
<path fill="none" stroke="black" d="M1418.67,-159.74C1417.5,-148.79 1414.12,-135.19 1405,-127 1386.89,-110.75 1321,-113.02 1297,-109 1289.95,-107.82 1282.63,-106.59 1275.29,-105.36"/>
<polygon fill="black" stroke="black" points="1276.11,-101.95 1265.67,-103.74 1274.95,-108.85 1276.11,-101.95"/>
<text text-anchor="middle" x="1424.5" y="-130.8" font-family="Helvetica,sans-Serif" font-size="14.00">No</text>
</g>
<!-- ScaleByCrossSection -->
<g id="node6" class="node">
<title>ScaleByCrossSection</title>
<ellipse fill="khaki" stroke="black" cx="303" cy="-265" rx="104.78" ry="18"/>
<text text-anchor="middle" x="303" y="-261.3" font-family="Helvetica,sans-Serif" font-size="14.00">ScaleByCrossSection</text>
</g>
<!-- compute_partial_ion_workflow1 -->
<g id="node27" class="node">
<title>compute_partial_ion_workflow1</title>
<polygon fill="lightseagreen" stroke="black" points="606,-196 0,-196 0,-160 606,-160 606,-196"/>
<text text-anchor="middle" x="303" y="-174.3" font-family="Helvetica,sans-Serif" font-size="14.00">Compute partial DoS workspaces for a given set of ions then sum into single spectra</text>
</g>
<!-- ScaleByCrossSection&#45;&gt;compute_partial_ion_workflow1 -->
<g id="edge22" class="edge">
<title>ScaleByCrossSection&#45;&gt;compute_partial_ion_workflow1</title>
<path fill="none" stroke="black" d="M303,-246.8C303,-235.58 303,-220.67 303,-207.69"/>
<polygon fill="black" stroke="black" points="306.5,-207.98 303,-197.98 299.5,-207.98 306.5,-207.98"/>
</g>
<!-- OutputWorkspace -->
<g id="node7" class="node">
<title>OutputWorkspace</title>
<ellipse fill="khaki" stroke="black" cx="517" cy="-265" rx="91.78" ry="18"/>
<text text-anchor="middle" x="517" y="-261.3" font-family="Helvetica,sans-Serif" font-size="14.00">OutputWorkspace</text>
</g>
<!-- OutputWorkspace1 -->
<g id="node8" class="node">
<title>OutputWorkspace1</title>
<ellipse fill="khaki" stroke="black" cx="900" cy="-265" rx="91.78" ry="18"/>
<text text-anchor="middle" x="900" y="-261.3" font-family="Helvetica,sans-Serif" font-size="14.00">OutputWorkspace</text>
</g>
<!-- OutputWorkspace2 -->
<g id="node9" class="node">
<title>OutputWorkspace2</title>
<ellipse fill="khaki" stroke="black" cx="1293" cy="-18" rx="91.78" ry="18"/>
<text text-anchor="middle" x="1293" y="-14.3" font-family="Helvetica,sans-Serif" font-size="14.00">OutputWorkspace</text>
</g>
<!-- OutputWorkspace3 -->
<g id="node10" class="node">
<title>OutputWorkspace3</title>
<ellipse fill="khaki" stroke="black" cx="303" cy="-18" rx="91.78" ry="18"/>
<text text-anchor="middle" x="303" y="-14.3" font-family="Helvetica,sans-Serif" font-size="14.00">OutputWorkspace</text>
</g>
<!-- OutputWorkspace4 -->
<g id="node11" class="node">
<title>OutputWorkspace4</title>
<ellipse fill="khaki" stroke="black" cx="1842" cy="-178" rx="91.78" ry="18"/>
<text text-anchor="middle" x="1842" y="-174.3" font-family="Helvetica,sans-Serif" font-size="14.00">OutputWorkspace</text>
</g>
<!-- OutputWorkspace5 -->
<g id="node12" class="node">
<title>OutputWorkspace5</title>
<ellipse fill="khaki" stroke="black" cx="2641" cy="-178" rx="91.78" ry="18"/>
<text text-anchor="middle" x="2641" y="-174.3" font-family="Helvetica,sans-Serif" font-size="14.00">OutputWorkspace</text>
</g>
<!-- OutputWorkspace6 -->
<g id="node13" class="node">
<title>OutputWorkspace6</title>
<ellipse fill="khaki" stroke="black" cx="3520" cy="-178" rx="91.78" ry="18"/>
<text text-anchor="middle" x="3520" y="-174.3" font-family="Helvetica,sans-Serif" font-size="14.00">OutputWorkspace</text>
</g>
<!-- file_data -->
<g id="node14" class="node">
<title>file_data</title>
<ellipse fill="khaki" stroke="black" cx="1428" cy="-512" rx="48.99" ry="18"/>
<text text-anchor="middle" x="1428" y="-508.3" font-family="Helvetica,sans-Serif" font-size="14.00">file_data</text>
</g>
<!-- file_data&#45;&gt;SpectrumType -->
<g id="edge4" class="edge">
<title>file_data&#45;&gt;SpectrumType</title>
<path fill="none" stroke="black" d="M1428,-493.81C1428,-486.23 1428,-477.1 1428,-468.54"/>
<polygon fill="black" stroke="black" points="1431.5,-468.54 1428,-458.54 1424.5,-468.54 1431.5,-468.54"/>
</g>
<!-- file_data1 -->
<g id="node15" class="node">
<title>file_data1</title>
<ellipse fill="khaki" stroke="black" cx="1416" cy="-352" rx="48.99" ry="18"/>
<text text-anchor="middle" x="1416" y="-348.3" font-family="Helvetica,sans-Serif" font-size="14.00">file_data</text>
</g>
<!-- compute_partial_ion_workflow -->
<g id="node26" class="node">
<title>compute_partial_ion_workflow</title>
<polygon fill="lightseagreen" stroke="black" points="1722,-283 1116,-283 1116,-247 1722,-247 1722,-283"/>
<text text-anchor="middle" x="1419" y="-261.3" font-family="Helvetica,sans-Serif" font-size="14.00">Compute partial DoS workspaces for a given set of ions then sum into single spectra</text>
</g>
<!-- file_data1&#45;&gt;compute_partial_ion_workflow -->
<g id="edge11" class="edge">
<title>file_data1&#45;&gt;compute_partial_ion_workflow</title>
<path fill="none" stroke="black" d="M1416.61,-333.8C1417,-322.58 1417.53,-307.67 1417.99,-294.69"/>
<polygon fill="black" stroke="black" points="1421.48,-295.1 1418.33,-284.98 1414.48,-294.85 1421.48,-295.1"/>
</g>
<!-- file_data2 -->
<g id="node16" class="node">
<title>file_data2</title>
<ellipse fill="khaki" stroke="black" cx="132" cy="-265" rx="48.99" ry="18"/>
<text text-anchor="middle" x="132" y="-261.3" font-family="Helvetica,sans-Serif" font-size="14.00">file_data</text>
</g>
<!-- file_data2&#45;&gt;compute_partial_ion_workflow1 -->
<g id="edge21" class="edge">
<title>file_data2&#45;&gt;compute_partial_ion_workflow1</title>
<path fill="none" stroke="black" d="M160.24,-249.96C186.74,-236.79 226.84,-216.86 257.79,-201.47"/>
<polygon fill="black" stroke="black" points="259.16,-204.7 266.55,-197.12 256.04,-198.43 259.16,-204.7"/>
</g>
<!-- partial_workspaces -->
<g id="node17" class="node">
<title>partial_workspaces</title>
<ellipse fill="khaki" stroke="black" cx="1196" cy="-178" rx="96.68" ry="18"/>
<text text-anchor="middle" x="1196" y="-174.3" font-family="Helvetica,sans-Serif" font-size="14.00">partial_workspaces</text>
</g>
<!-- partial_workspaces&#45;&gt;GroupWorkspaces -->
<g id="edge16" class="edge">
<title>partial_workspaces&#45;&gt;GroupWorkspaces</title>
<path fill="none" stroke="black" d="M1196,-159.8C1196,-148.58 1196,-133.67 1196,-120.69"/>
<polygon fill="black" stroke="black" points="1199.5,-120.98 1196,-110.98 1192.5,-120.98 1199.5,-120.98"/>
</g>
<!-- partial_ions&#45;&gt;compute_partial_ion_workflow -->
<g id="edge10" class="edge">
<title>partial_ions&#45;&gt;compute_partial_ion_workflow</title>
<path fill="none" stroke="black" d="M1179.66,-335.73C1164.67,-325.97 1151.58,-312.94 1162,-301 1166.59,-295.74 1173.85,-291.24 1183.06,-287.39"/>
<polygon fill="black" stroke="black" points="1184.16,-290.71 1192.35,-283.99 1181.76,-284.14 1184.16,-290.71"/>
</g>
<!-- sum_workspace&#45;&gt;OutputWorkspace2 -->
<g id="edge14" class="edge">
<title>sum_workspace&#45;&gt;OutputWorkspace2</title>
<path fill="none" stroke="black" d="M1366.73,-73.53C1354.31,-64.35 1338.63,-52.75 1324.92,-42.61"/>
<polygon fill="black" stroke="black" points="1327.15,-39.9 1317.03,-36.77 1322.99,-45.53 1327.15,-39.9"/>
</g>
<!-- DoS_Workspace -->
<g id="node20" class="node">
<title>DoS_Workspace</title>
<ellipse fill="khaki" stroke="black" cx="1842" cy="-265" rx="82.59" ry="18"/>
<text text-anchor="middle" x="1842" y="-261.3" font-family="Helvetica,sans-Serif" font-size="14.00">DoS_Workspace</text>
</g>
<!-- DoS_Workspace&#45;&gt;OutputWorkspace4 -->
<g id="edge27" class="edge">
<title>DoS_Workspace&#45;&gt;OutputWorkspace4</title>
<path fill="none" stroke="black" d="M1842,-246.8C1842,-235.58 1842,-220.67 1842,-207.69"/>
<polygon fill="black" stroke="black" points="1845.5,-207.98 1842,-197.98 1838.5,-207.98 1845.5,-207.98"/>
</g>
<!-- DoS_Workspace1 -->
<g id="node21" class="node">
<title>DoS_Workspace1</title>
<ellipse fill="khaki" stroke="black" cx="2641" cy="-265" rx="82.59" ry="18"/>
<text text-anchor="middle" x="2641" y="-261.3" font-family="Helvetica,sans-Serif" font-size="14.00">DoS_Workspace</text>
</g>
<!-- DoS_Workspace1&#45;&gt;OutputWorkspace5 -->
<g id="edge30" class="edge">
<title>DoS_Workspace1&#45;&gt;OutputWorkspace5</title>
<path fill="none" stroke="black" d="M2641,-246.8C2641,-235.58 2641,-220.67 2641,-207.69"/>
<polygon fill="black" stroke="black" points="2644.5,-207.98 2641,-197.98 2637.5,-207.98 2644.5,-207.98"/>
</g>
<!-- DoS_Workspace2 -->
<g id="node22" class="node">
<title>DoS_Workspace2</title>
<ellipse fill="khaki" stroke="black" cx="3520" cy="-265" rx="82.59" ry="18"/>
<text text-anchor="middle" x="3520" y="-261.3" font-family="Helvetica,sans-Serif" font-size="14.00">DoS_Workspace</text>
</g>
<!-- DoS_Workspace2&#45;&gt;OutputWorkspace6 -->
<g id="edge33" class="edge">
<title>DoS_Workspace2&#45;&gt;OutputWorkspace6</title>
<path fill="none" stroke="black" d="M3520,-246.8C3520,-235.58 3520,-220.67 3520,-207.69"/>
<polygon fill="black" stroke="black" points="3523.5,-207.98 3520,-197.98 3516.5,-207.98 3523.5,-207.98"/>
</g>
<!-- read_data_from_file&#45;&gt;file_data -->
<g id="edge3" class="edge">
<title>read_data_from_file&#45;&gt;file_data</title>
<path fill="none" stroke="black" d="M1428,-566.81C1428,-559.23 1428,-550.1 1428,-541.54"/>
<polygon fill="black" stroke="black" points="1431.5,-541.54 1428,-531.54 1424.5,-541.54 1431.5,-541.54"/>
</g>
<!-- ion_table_process&#45;&gt;OutputWorkspace -->
<g id="edge6" class="edge">
<title>ion_table_process&#45;&gt;OutputWorkspace</title>
<path fill="none" stroke="black" d="M369.88,-333.59C399.42,-320.02 440.53,-301.13 471.79,-286.77"/>
<polygon fill="black" stroke="black" points="472.98,-290.08 480.61,-282.72 470.06,-283.72 472.98,-290.08"/>
<text text-anchor="middle" x="506.5" y="-304.8" font-family="Helvetica,sans-Serif" font-size="14.00">Output Table of Ions</text>
</g>
<!-- bond_table_process&#45;&gt;OutputWorkspace1 -->
<g id="edge8" class="edge">
<title>bond_table_process&#45;&gt;OutputWorkspace1</title>
<path fill="none" stroke="black" d="M902.39,-333.8C902,-322.58 901.47,-307.67 901.01,-294.69"/>
<polygon fill="black" stroke="black" points="904.52,-294.85 900.67,-284.98 897.52,-295.1 904.52,-294.85"/>
<text text-anchor="middle" x="979.5" y="-304.8" font-family="Helvetica,sans-Serif" font-size="14.00">Output Table of Bonds</text>
</g>
<!-- compute_partial_ion_workflow&#45;&gt;SumContributions -->
<g id="edge12" class="edge">
<title>compute_partial_ion_workflow&#45;&gt;SumContributions</title>
<path fill="none" stroke="black" d="M1419,-246.8C1419,-235.58 1419,-220.67 1419,-207.69"/>
<polygon fill="black" stroke="black" points="1422.5,-207.98 1419,-197.98 1415.5,-207.98 1422.5,-207.98"/>
<text text-anchor="middle" x="1589" y="-217.8" font-family="Helvetica,sans-Serif" font-size="14.00">Outputs partial_workspaces and sum_workspace</text>
</g>
<!-- sum_workspace1 -->
<g id="node31" class="node">
<title>sum_workspace1</title>
<polygon fill="lightseagreen" stroke="black" points="367,-109 239,-109 239,-73 367,-73 367,-109"/>
<text text-anchor="middle" x="303" y="-87.3" font-family="Helvetica,sans-Serif" font-size="14.00">sum_workspace</text>
</g>
<!-- compute_partial_ion_workflow1&#45;&gt;sum_workspace1 -->
<g id="edge23" class="edge">
<title>compute_partial_ion_workflow1&#45;&gt;sum_workspace1</title>
<path fill="none" stroke="black" d="M303,-159.8C303,-148.58 303,-133.67 303,-120.69"/>
<polygon fill="black" stroke="black" points="306.5,-120.98 303,-110.98 299.5,-120.98 306.5,-120.98"/>
</g>
<!-- compute_DOS&#45;&gt;DoS_Workspace -->
<g id="edge26" class="edge">
<title>compute_DOS&#45;&gt;DoS_Workspace</title>
<path fill="none" stroke="black" d="M1842,-333.8C1842,-322.58 1842,-307.67 1842,-294.69"/>
<polygon fill="black" stroke="black" points="1845.5,-294.98 1842,-284.98 1838.5,-294.98 1845.5,-294.98"/>
</g>
<!-- compute_DOS_IR&#45;&gt;DoS_Workspace1 -->
<g id="edge29" class="edge">
<title>compute_DOS_IR&#45;&gt;DoS_Workspace1</title>
<path fill="none" stroke="black" d="M2641,-333.8C2641,-322.58 2641,-307.67 2641,-294.69"/>
<polygon fill="black" stroke="black" points="2644.5,-294.98 2641,-284.98 2637.5,-294.98 2644.5,-294.98"/>
</g>
<!-- compute_DOS_Ramen&#45;&gt;DoS_Workspace2 -->
<g id="edge32" class="edge">
<title>compute_DOS_Ramen&#45;&gt;DoS_Workspace2</title>
<path fill="none" stroke="black" d="M3520,-333.8C3520,-322.58 3520,-307.67 3520,-294.69"/>
<polygon fill="black" stroke="black" points="3523.5,-294.98 3520,-284.98 3516.5,-294.98 3523.5,-294.98"/>
</g>
<!-- sum_workspace1&#45;&gt;OutputWorkspace3 -->
<g id="edge24" class="edge">
<title>sum_workspace1&#45;&gt;OutputWorkspace3</title>
<path fill="none" stroke="black" d="M303,-72.81C303,-65.23 303,-56.1 303,-47.54"/>
<polygon fill="black" stroke="black" points="306.5,-47.54 303,-37.54 299.5,-47.54 306.5,-47.54"/>
</g>
<!-- GroupWorkspaces&#45;&gt;OutputWorkspace2 -->
<g id="edge17" class="edge">
<title>GroupWorkspaces&#45;&gt;OutputWorkspace2</title>
<path fill="none" stroke="black" d="M1218.99,-73.17C1231.55,-63.98 1247.31,-52.45 1261.05,-42.39"/>
<polygon fill="black" stroke="black" points="1262.95,-45.33 1268.96,-36.6 1258.82,-39.68 1262.95,-45.33"/>
</g>
<!-- all_ions&#45;&gt;compute_partial_ion_workflow1 -->
<g id="edge20" class="edge">
<title>all_ions&#45;&gt;compute_partial_ion_workflow1</title>
<path fill="none" stroke="black" d="M1021.5,-252.37C1014.79,-250.31 1007.72,-248.39 1001,-247 876.85,-221.35 738.22,-205.31 617.42,-195.32"/>
<polygon fill="black" stroke="black" points="617.92,-191.85 607.67,-194.52 617.35,-198.82 617.92,-191.85"/>
</g>
</g>
</svg>
