<?xml version="1.0" encoding="UTF-8" standalone="no"?>
<!DOCTYPE svg PUBLIC "-//W3C//DTD SVG 1.1//EN"
 "http://www.w3.org/Graphics/SVG/1.1/DTD/svg11.dtd">
<!-- Generated by graphviz version 9.0.0 (20231125.0833)
 -->
<!-- Title: SimulatedDensityOfStates Pages: 1 -->
<svg width="4008pt" height="718pt"
 viewBox="0.00 0.00 4007.62 718.25" xmlns="http://www.w3.org/2000/svg" xmlns:xlink="http://www.w3.org/1999/xlink">
<g id="graph0" class="graph" transform="scale(1 1) rotate(0) translate(4 714.25)">
<title>SimulatedDensityOfStates</title>
<polygon fill="white" stroke="none" points="-4,4 -4,-714.25 4003.62,-714.25 4003.62,4 -4,4"/>
<text text-anchor="middle" x="1999.81" y="-692.95" font-family="Helvetica,sans-Serif" font-size="14.00">SimulatedDensityOfStates Flowchart</text>
<!-- CASTEPFile -->
<g id="node1" class="node">
<title>CASTEPFile</title>
<ellipse fill="khaki" stroke="black" cx="1375.75" cy="-667" rx="64.89" ry="18"/>
<text text-anchor="middle" x="1375.75" y="-662.33" font-family="Helvetica,sans-Serif" font-size="14.00">CASTEPFile</text>
</g>
<!-- read_data_from_file -->
<g id="node23" class="node">
<title>read_data_from_file</title>
<polygon fill="lightseagreen" stroke="black" points="1528.25,-612 1377.25,-612 1377.25,-576 1528.25,-576 1528.25,-612"/>
<text text-anchor="middle" x="1452.75" y="-589.33" font-family="Helvetica,sans-Serif" font-size="14.00">read_data_from_file</text>
</g>
<!-- CASTEPFile&#45;&gt;read_data_from_file -->
<g id="edge1" class="edge">
<title>CASTEPFile&#45;&gt;read_data_from_file</title>
<path fill="none" stroke="black" d="M1393.61,-649.53C1403.14,-640.74 1415.08,-629.74 1425.72,-619.92"/>
<polygon fill="black" stroke="black" points="1427.82,-622.75 1432.8,-613.39 1423.08,-617.6 1427.82,-622.75"/>
</g>
<!-- PHONONFile -->
<g id="node2" class="node">
<title>PHONONFile</title>
<ellipse fill="khaki" stroke="black" cx="1529.75" cy="-667" rx="70.67" ry="18"/>
<text text-anchor="middle" x="1529.75" y="-662.33" font-family="Helvetica,sans-Serif" font-size="14.00">PHONONFile</text>
</g>
<!-- PHONONFile&#45;&gt;read_data_from_file -->
<g id="edge2" class="edge">
<title>PHONONFile&#45;&gt;read_data_from_file</title>
<path fill="none" stroke="black" d="M1511.5,-649.17C1502.12,-640.52 1490.5,-629.81 1480.07,-620.19"/>
<polygon fill="black" stroke="black" points="1482.51,-617.68 1472.78,-613.47 1477.76,-622.82 1482.51,-617.68"/>
</g>
<!-- SpectrumType -->
<g id="node3" class="node">
<title>SpectrumType</title>
<ellipse fill="khaki" stroke="black" cx="1452.75" cy="-448" rx="80.67" ry="18"/>
<text text-anchor="middle" x="1452.75" y="-443.32" font-family="Helvetica,sans-Serif" font-size="14.00">SpectrumType</text>
</g>
<!-- Ions -->
<g id="node4" class="node">
<title>Ions</title>
<ellipse fill="khaki" stroke="black" cx="1351.75" cy="-358.75" rx="31.74" ry="18"/>
<text text-anchor="middle" x="1351.75" y="-354.07" font-family="Helvetica,sans-Serif" font-size="14.00">Ions</text>
</g>
<!-- SpectrumType&#45;&gt;Ions -->
<g id="edge18" class="edge">
<title>SpectrumType&#45;&gt;Ions</title>
<path fill="none" stroke="black" d="M1448.96,-429.62C1445.75,-418.45 1440.13,-404.3 1430.75,-394.75 1428.98,-392.95 1407.25,-383.37 1387.03,-374.69"/>
<polygon fill="black" stroke="black" points="1388.67,-371.59 1378.1,-370.88 1385.92,-378.02 1388.67,-371.59"/>
<text text-anchor="middle" x="1554.88" y="-398.7" font-family="Helvetica,sans-Serif" font-size="14.00">DOS and scale_by_cross_section</text>
</g>
<!-- partial_ions -->
<g id="node18" class="node">
<title>partial_ions</title>
<ellipse fill="khaki" stroke="black" cx="1234.75" cy="-358.75" rx="66.99" ry="18"/>
<text text-anchor="middle" x="1234.75" y="-354.07" font-family="Helvetica,sans-Serif" font-size="14.00">partial_ions</text>
</g>
<!-- SpectrumType&#45;&gt;partial_ions -->
<g id="edge9" class="edge">
<title>SpectrumType&#45;&gt;partial_ions</title>
<path fill="none" stroke="black" d="M1372.71,-444.94C1317.1,-441.63 1249.85,-433.19 1231.75,-412 1226.15,-405.44 1225.11,-396.57 1226.03,-388"/>
<polygon fill="black" stroke="black" points="1229.45,-388.71 1227.94,-378.23 1222.58,-387.37 1229.45,-388.71"/>
<text text-anchor="middle" x="1329.25" y="-398.7" font-family="Helvetica,sans-Serif" font-size="14.00">DOS and ions given in input</text>
</g>
<!-- ion_table_process -->
<g id="node24" class="node">
<title>ion_table_process</title>
<polygon fill="lightseagreen" stroke="black" points="681.5,-376.75 28,-376.75 28,-340.75 681.5,-340.75 681.5,-376.75"/>
<text text-anchor="middle" x="354.75" y="-354.07" font-family="Helvetica,sans-Serif" font-size="14.00">Extract ion data from file, convert data to cartesian coordinates and add to table workspace</text>
</g>
<!-- SpectrumType&#45;&gt;ion_table_process -->
<g id="edge5" class="edge">
<title>SpectrumType&#45;&gt;ion_table_process</title>
<path fill="none" stroke="black" d="M1377.5,-441.07C1289.36,-434.13 1138.95,-422.26 1009.75,-412 868.59,-400.79 710.33,-388.17 584.73,-378.14"/>
<polygon fill="black" stroke="black" points="585.21,-374.67 574.96,-377.36 584.65,-381.64 585.21,-374.67"/>
<text text-anchor="middle" x="1038.25" y="-398.7" font-family="Helvetica,sans-Serif" font-size="14.00">IonTable</text>
</g>
<!-- bond_table_process -->
<g id="node25" class="node">
<title>bond_table_process</title>
<polygon fill="lightseagreen" stroke="black" points="1149.88,-376.75 699.62,-376.75 699.62,-340.75 1149.88,-340.75 1149.88,-376.75"/>
<text text-anchor="middle" x="924.75" y="-354.07" font-family="Helvetica,sans-Serif" font-size="14.00">Extract bond data from file and add the data to the bond table</text>
</g>
<!-- SpectrumType&#45;&gt;bond_table_process -->
<g id="edge7" class="edge">
<title>SpectrumType&#45;&gt;bond_table_process</title>
<path fill="none" stroke="black" d="M1378.45,-440.68C1317.28,-434.92 1228.42,-425.29 1151.5,-412 1101.51,-403.36 1046.01,-390.63 1002.43,-379.89"/>
<polygon fill="black" stroke="black" points="1003.35,-376.52 992.8,-377.5 1001.66,-383.31 1003.35,-376.52"/>
<text text-anchor="middle" x="1187.38" y="-398.7" font-family="Helvetica,sans-Serif" font-size="14.00">BondTable</text>
</g>
<!-- compute_DOS -->
<g id="node28" class="node">
<title>compute_DOS</title>
<polygon fill="lightseagreen" stroke="black" points="2243.12,-376.75 1524.38,-376.75 1524.38,-340.75 2243.12,-340.75 2243.12,-376.75"/>
<text text-anchor="middle" x="1883.75" y="-354.07" font-family="Helvetica,sans-Serif" font-size="14.00">Uses frequencies and weights from file to create a matrix workspace containing the Density of states</text>
</g>
<!-- SpectrumType&#45;&gt;compute_DOS -->
<g id="edge25" class="edge">
<title>SpectrumType&#45;&gt;compute_DOS</title>
<path fill="none" stroke="black" d="M1519.79,-437.68C1563.04,-431.31 1620.41,-422.2 1670.75,-412 1716.46,-402.74 1767.19,-390.38 1807.67,-380.01"/>
<polygon fill="black" stroke="black" points="1808.53,-383.4 1817.34,-377.52 1806.78,-376.62 1808.53,-383.4"/>
<text text-anchor="middle" x="1762.12" y="-398.7" font-family="Helvetica,sans-Serif" font-size="14.00">DOS</text>
</g>
<!-- compute_DOS_IR -->
<g id="node29" class="node">
<title>compute_DOS_IR</title>
<polygon fill="lightseagreen" stroke="black" points="3104,-376.75 2261.5,-376.75 2261.5,-340.75 3104,-340.75 3104,-376.75"/>
<text text-anchor="middle" x="2682.75" y="-354.07" font-family="Helvetica,sans-Serif" font-size="14.00">Uses frequencies, ir_intensities and weights from the file to create a matrix workspace containing the Density of states</text>
</g>
<!-- SpectrumType&#45;&gt;compute_DOS_IR -->
<g id="edge28" class="edge">
<title>SpectrumType&#45;&gt;compute_DOS_IR</title>
<path fill="none" stroke="black" d="M1528.76,-441.61C1703.72,-429.2 2141.58,-398.14 2424.83,-378.05"/>
<polygon fill="black" stroke="black" points="2424.86,-381.55 2434.59,-377.35 2424.36,-374.57 2424.86,-381.55"/>
<text text-anchor="middle" x="2209.25" y="-398.7" font-family="Helvetica,sans-Serif" font-size="14.00">IR_Active</text>
</g>
<!-- compute_DOS_Ramen -->
<g id="node30" class="node">
<title>compute_DOS_Ramen</title>
<polygon fill="lightseagreen" stroke="black" points="3999.62,-376.75 3121.88,-376.75 3121.88,-340.75 3999.62,-340.75 3999.62,-376.75"/>
<text text-anchor="middle" x="3560.75" y="-354.07" font-family="Helvetica,sans-Serif" font-size="14.00">Uses frequencies, ramen_intensities and weights from the file to create a matrix workspace containing the Density of states</text>
</g>
<!-- SpectrumType&#45;&gt;compute_DOS_Ramen -->
<g id="edge31" class="edge">
<title>SpectrumType&#45;&gt;compute_DOS_Ramen</title>
<path fill="none" stroke="black" d="M1531.54,-443.74C1787.84,-433.13 2611.04,-399.06 3126.82,-377.71"/>
<polygon fill="black" stroke="black" points="3126.83,-381.21 3136.68,-377.3 3126.54,-374.22 3126.83,-381.21"/>
<text text-anchor="middle" x="2743.5" y="-398.7" font-family="Helvetica,sans-Serif" font-size="14.00">Raman_Active</text>
</g>
<!-- all_ions -->
<g id="node33" class="node">
<title>all_ions</title>
<ellipse fill="lightgrey" stroke="black" cx="1086.75" cy="-269.5" rx="47" ry="18"/>
<text text-anchor="middle" x="1086.75" y="-264.82" font-family="Helvetica,sans-Serif" font-size="14.00">all_ions</text>
</g>
<!-- Ions&#45;&gt;all_ions -->
<g id="edge19" class="edge">
<title>Ions&#45;&gt;all_ions</title>
<path fill="none" stroke="black" d="M1327.3,-346.78C1321.91,-344.6 1316.19,-342.46 1310.75,-340.75 1275.16,-329.56 1264.56,-333.22 1228.75,-322.75 1194.47,-312.73 1156.55,-298.62 1128.53,-287.58"/>
<polygon fill="black" stroke="black" points="1129.91,-284.37 1119.33,-283.93 1127.33,-290.87 1129.91,-284.37"/>
<text text-anchor="middle" x="1339.75" y="-309.45" font-family="Helvetica,sans-Serif" font-size="14.00">Convert user input to dictionary</text>
</g>
<!-- SumContributions -->
<g id="node5" class="node">
<title>SumContributions</title>
<ellipse fill="khaki" stroke="black" cx="1454.75" cy="-180.25" rx="99.08" ry="18"/>
<text text-anchor="middle" x="1454.75" y="-175.57" font-family="Helvetica,sans-Serif" font-size="14.00">SumContributions</text>
</g>
<!-- sum_workspace -->
<g id="node19" class="node">
<title>sum_workspace</title>
<ellipse fill="khaki" stroke="black" cx="1424.75" cy="-91" rx="89.09" ry="18"/>
<text text-anchor="middle" x="1424.75" y="-86.33" font-family="Helvetica,sans-Serif" font-size="14.00">sum_workspace</text>
</g>
<!-- SumContributions&#45;&gt;sum_workspace -->
<g id="edge13" class="edge">
<title>SumContributions&#45;&gt;sum_workspace</title>
<path fill="none" stroke="black" d="M1431.38,-162.27C1426.07,-157.13 1421.14,-151.03 1418.25,-144.25 1415.07,-136.79 1414.87,-128.23 1415.97,-120.23"/>
<polygon fill="black" stroke="black" points="1419.37,-121.08 1418.01,-110.57 1412.52,-119.63 1419.37,-121.08"/>
<text text-anchor="middle" x="1430" y="-130.95" font-family="Helvetica,sans-Serif" font-size="14.00">Yes</text>
</g>
<!-- GroupWorkspaces -->
<g id="node32" class="node">
<title>GroupWorkspaces</title>
<ellipse fill="lightgrey" stroke="black" cx="1218.75" cy="-91" rx="99.08" ry="18"/>
<text text-anchor="middle" x="1218.75" y="-86.33" font-family="Helvetica,sans-Serif" font-size="14.00">GroupWorkspaces</text>
</g>
<!-- SumContributions&#45;&gt;GroupWorkspaces -->
<g id="edge15" class="edge">
<title>SumContributions&#45;&gt;GroupWorkspaces</title>
<path fill="none" stroke="black" d="M1454.75,-162.2C1453.79,-150.6 1450.52,-135.79 1440.75,-127 1440.75,-127 1365.73,-115.17 1302.91,-105.27"/>
<polygon fill="black" stroke="black" points="1303.67,-101.84 1293.24,-103.74 1302.58,-108.76 1303.67,-101.84"/>
<text text-anchor="middle" x="1461.12" y="-130.95" font-family="Helvetica,sans-Serif" font-size="14.00">No</text>
</g>
<!-- ScaleByCrossSection -->
<g id="node6" class="node">
<title>ScaleByCrossSection</title>
<ellipse fill="khaki" stroke="black" cx="302.75" cy="-269.5" rx="112.24" ry="18"/>
<text text-anchor="middle" x="302.75" y="-264.82" font-family="Helvetica,sans-Serif" font-size="14.00">ScaleByCrossSection</text>
</g>
<!-- compute_partial_ion_workflow1 -->
<g id="node27" class="node">
<title>compute_partial_ion_workflow1</title>
<polygon fill="lightseagreen" stroke="black" points="605.5,-198.25 0,-198.25 0,-162.25 605.5,-162.25 605.5,-198.25"/>
<text text-anchor="middle" x="302.75" y="-175.57" font-family="Helvetica,sans-Serif" font-size="14.00">Compute partial DoS workspaces for a given set of ions then sum into single spectra</text>
</g>
<!-- ScaleByCrossSection&#45;&gt;compute_partial_ion_workflow1 -->
<g id="edge22" class="edge">
<title>ScaleByCrossSection&#45;&gt;compute_partial_ion_workflow1</title>
<path fill="none" stroke="black" d="M302.75,-251.26C302.75,-239.43 302.75,-223.45 302.75,-209.75"/>
<polygon fill="black" stroke="black" points="306.25,-209.97 302.75,-199.97 299.25,-209.97 306.25,-209.97"/>
</g>
<!-- OutputWorkspace -->
<g id="node7" class="node">
<title>OutputWorkspace</title>
<ellipse fill="khaki" stroke="black" cx="531.75" cy="-269.5" rx="98.56" ry="18"/>
<text text-anchor="middle" x="531.75" y="-264.82" font-family="Helvetica,sans-Serif" font-size="14.00">OutputWorkspace</text>
</g>
<!-- OutputWorkspace1 -->
<g id="node8" class="node">
<title>OutputWorkspace1</title>
<ellipse fill="khaki" stroke="black" cx="922.75" cy="-269.5" rx="98.56" ry="18"/>
<text text-anchor="middle" x="922.75" y="-264.82" font-family="Helvetica,sans-Serif" font-size="14.00">OutputWorkspace</text>
</g>
<!-- OutputWorkspace2 -->
<g id="node9" class="node">
<title>OutputWorkspace2</title>
<ellipse fill="khaki" stroke="black" cx="1321.75" cy="-18" rx="98.56" ry="18"/>
<text text-anchor="middle" x="1321.75" y="-13.32" font-family="Helvetica,sans-Serif" font-size="14.00">OutputWorkspace</text>
</g>
<!-- OutputWorkspace3 -->
<g id="node10" class="node">
<title>OutputWorkspace3</title>
<ellipse fill="khaki" stroke="black" cx="302.75" cy="-18" rx="98.56" ry="18"/>
<text text-anchor="middle" x="302.75" y="-13.32" font-family="Helvetica,sans-Serif" font-size="14.00">OutputWorkspace</text>
</g>
<!-- OutputWorkspace4 -->
<g id="node11" class="node">
<title>OutputWorkspace4</title>
<ellipse fill="khaki" stroke="black" cx="1883.75" cy="-180.25" rx="98.56" ry="18"/>
<text text-anchor="middle" x="1883.75" y="-175.57" font-family="Helvetica,sans-Serif" font-size="14.00">OutputWorkspace</text>
</g>
<!-- OutputWorkspace5 -->
<g id="node12" class="node">
<title>OutputWorkspace5</title>
<ellipse fill="khaki" stroke="black" cx="2682.75" cy="-180.25" rx="98.56" ry="18"/>
<text text-anchor="middle" x="2682.75" y="-175.57" font-family="Helvetica,sans-Serif" font-size="14.00">OutputWorkspace</text>
</g>
<!-- OutputWorkspace6 -->
<g id="node13" class="node">
<title>OutputWorkspace6</title>
<ellipse fill="khaki" stroke="black" cx="3560.75" cy="-180.25" rx="98.56" ry="18"/>
<text text-anchor="middle" x="3560.75" y="-175.57" font-family="Helvetica,sans-Serif" font-size="14.00">OutputWorkspace</text>
</g>
<!-- file_data -->
<g id="node14" class="node">
<title>file_data</title>
<ellipse fill="khaki" stroke="black" cx="1452.75" cy="-521" rx="52.26" ry="18"/>
<text text-anchor="middle" x="1452.75" y="-516.33" font-family="Helvetica,sans-Serif" font-size="14.00">file_data</text>
</g>
<!-- file_data&#45;&gt;SpectrumType -->
<g id="edge4" class="edge">
<title>file_data&#45;&gt;SpectrumType</title>
<path fill="none" stroke="black" d="M1452.75,-502.81C1452.75,-495.23 1452.75,-486.1 1452.75,-477.54"/>
<polygon fill="black" stroke="black" points="1456.25,-477.54 1452.75,-467.54 1449.25,-477.54 1456.25,-477.54"/>
</g>
<!-- file_data1 -->
<g id="node15" class="node">
<title>file_data1</title>
<ellipse fill="khaki" stroke="black" cx="1453.75" cy="-358.75" rx="52.26" ry="18"/>
<text text-anchor="middle" x="1453.75" y="-354.07" font-family="Helvetica,sans-Serif" font-size="14.00">file_data</text>
</g>
<!-- compute_partial_ion_workflow -->
<g id="node26" class="node">
<title>compute_partial_ion_workflow</title>
<polygon fill="lightseagreen" stroke="black" points="1757.5,-287.5 1152,-287.5 1152,-251.5 1757.5,-251.5 1757.5,-287.5"/>
<text text-anchor="middle" x="1454.75" y="-264.82" font-family="Helvetica,sans-Serif" font-size="14.00">Compute partial DoS workspaces for a given set of ions then sum into single spectra</text>
</g>
<!-- file_data1&#45;&gt;compute_partial_ion_workflow -->
<g id="edge11" class="edge">
<title>file_data1&#45;&gt;compute_partial_ion_workflow</title>
<path fill="none" stroke="black" d="M1453.95,-340.51C1454.08,-328.68 1454.27,-312.7 1454.42,-299"/>
<polygon fill="black" stroke="black" points="1457.92,-299.25 1454.54,-289.22 1450.92,-299.17 1457.92,-299.25"/>
</g>
<!-- file_data2 -->
<g id="node16" class="node">
<title>file_data2</title>
<ellipse fill="khaki" stroke="black" cx="120.75" cy="-269.5" rx="52.26" ry="18"/>
<text text-anchor="middle" x="120.75" y="-264.82" font-family="Helvetica,sans-Serif" font-size="14.00">file_data</text>
</g>
<!-- file_data2&#45;&gt;compute_partial_ion_workflow1 -->
<g id="edge21" class="edge">
<title>file_data2&#45;&gt;compute_partial_ion_workflow1</title>
<path fill="none" stroke="black" d="M150.4,-254.29C179.15,-240.5 223.2,-219.38 256.55,-203.4"/>
<polygon fill="black" stroke="black" points="257.66,-206.75 265.17,-199.27 254.64,-200.43 257.66,-206.75"/>
</g>
<!-- partial_workspaces -->
<g id="node17" class="node">
<title>partial_workspaces</title>
<ellipse fill="khaki" stroke="black" cx="1218.75" cy="-180.25" rx="104.35" ry="18"/>
<text text-anchor="middle" x="1218.75" y="-175.57" font-family="Helvetica,sans-Serif" font-size="14.00">partial_workspaces</text>
</g>
<!-- partial_workspaces&#45;&gt;GroupWorkspaces -->
<g id="edge16" class="edge">
<title>partial_workspaces&#45;&gt;GroupWorkspaces</title>
<path fill="none" stroke="black" d="M1218.75,-162.01C1218.75,-150.18 1218.75,-134.2 1218.75,-120.5"/>
<polygon fill="black" stroke="black" points="1222.25,-120.72 1218.75,-110.72 1215.25,-120.72 1222.25,-120.72"/>
</g>
<!-- partial_ions&#45;&gt;compute_partial_ion_workflow -->
<g id="edge10" class="edge">
<title>partial_ions&#45;&gt;compute_partial_ion_workflow</title>
<path fill="none" stroke="black" d="M1211.94,-341.51C1199.68,-330.83 1188.9,-316.79 1198.75,-305.5 1203.35,-300.23 1210.64,-295.72 1219.88,-291.87"/>
<polygon fill="black" stroke="black" points="1221.03,-295.17 1229.23,-288.46 1218.64,-288.6 1221.03,-295.17"/>
</g>
<!-- sum_workspace&#45;&gt;OutputWorkspace2 -->
<g id="edge14" class="edge">
<title>sum_workspace&#45;&gt;OutputWorkspace2</title>
<path fill="none" stroke="black" d="M1400.6,-73.35C1387.14,-64.07 1370.16,-52.37 1355.42,-42.21"/>
<polygon fill="black" stroke="black" points="1357.57,-39.44 1347.35,-36.65 1353.6,-45.2 1357.57,-39.44"/>
</g>
<!-- DoS_Workspace -->
<g id="node20" class="node">
<title>DoS_Workspace</title>
<ellipse fill="khaki" stroke="black" cx="1883.75" cy="-269.5" rx="88.56" ry="18"/>
<text text-anchor="middle" x="1883.75" y="-264.82" font-family="Helvetica,sans-Serif" font-size="14.00">DoS_Workspace</text>
</g>
<!-- DoS_Workspace&#45;&gt;OutputWorkspace4 -->
<g id="edge27" class="edge">
<title>DoS_Workspace&#45;&gt;OutputWorkspace4</title>
<path fill="none" stroke="black" d="M1883.75,-251.26C1883.75,-239.43 1883.75,-223.45 1883.75,-209.75"/>
<polygon fill="black" stroke="black" points="1887.25,-209.97 1883.75,-199.97 1880.25,-209.97 1887.25,-209.97"/>
</g>
<!-- DoS_Workspace1 -->
<g id="node21" class="node">
<title>DoS_Workspace1</title>
<ellipse fill="khaki" stroke="black" cx="2682.75" cy="-269.5" rx="88.56" ry="18"/>
<text text-anchor="middle" x="2682.75" y="-264.82" font-family="Helvetica,sans-Serif" font-size="14.00">DoS_Workspace</text>
</g>
<!-- DoS_Workspace1&#45;&gt;OutputWorkspace5 -->
<g id="edge30" class="edge">
<title>DoS_Workspace1&#45;&gt;OutputWorkspace5</title>
<path fill="none" stroke="black" d="M2682.75,-251.26C2682.75,-239.43 2682.75,-223.45 2682.75,-209.75"/>
<polygon fill="black" stroke="black" points="2686.25,-209.97 2682.75,-199.97 2679.25,-209.97 2686.25,-209.97"/>
</g>
<!-- DoS_Workspace2 -->
<g id="node22" class="node">
<title>DoS_Workspace2</title>
<ellipse fill="khaki" stroke="black" cx="3560.75" cy="-269.5" rx="88.56" ry="18"/>
<text text-anchor="middle" x="3560.75" y="-264.82" font-family="Helvetica,sans-Serif" font-size="14.00">DoS_Workspace</text>
</g>
<!-- DoS_Workspace2&#45;&gt;OutputWorkspace6 -->
<g id="edge33" class="edge">
<title>DoS_Workspace2&#45;&gt;OutputWorkspace6</title>
<path fill="none" stroke="black" d="M3560.75,-251.26C3560.75,-239.43 3560.75,-223.45 3560.75,-209.75"/>
<polygon fill="black" stroke="black" points="3564.25,-209.97 3560.75,-199.97 3557.25,-209.97 3564.25,-209.97"/>
</g>
<!-- read_data_from_file&#45;&gt;file_data -->
<g id="edge3" class="edge">
<title>read_data_from_file&#45;&gt;file_data</title>
<path fill="none" stroke="black" d="M1452.75,-575.81C1452.75,-568.23 1452.75,-559.1 1452.75,-550.54"/>
<polygon fill="black" stroke="black" points="1456.25,-550.54 1452.75,-540.54 1449.25,-550.54 1456.25,-550.54"/>
</g>
<!-- ion_table_process&#45;&gt;OutputWorkspace -->
<g id="edge6" class="edge">
<title>ion_table_process&#45;&gt;OutputWorkspace</title>
<path fill="none" stroke="black" d="M390.14,-340.3C418.39,-326.38 458.09,-306.81 488.27,-291.93"/>
<polygon fill="black" stroke="black" points="489.73,-295.11 497.16,-287.55 486.64,-288.83 489.73,-295.11"/>
<text text-anchor="middle" x="529.88" y="-309.45" font-family="Helvetica,sans-Serif" font-size="14.00">Output Table of Ions</text>
</g>
<!-- bond_table_process&#45;&gt;OutputWorkspace1 -->
<g id="edge8" class="edge">
<title>bond_table_process&#45;&gt;OutputWorkspace1</title>
<path fill="none" stroke="black" d="M924.35,-340.51C924.08,-328.68 923.72,-312.7 923.4,-299"/>
<polygon fill="black" stroke="black" points="926.91,-299.13 923.18,-289.22 919.91,-299.29 926.91,-299.13"/>
<text text-anchor="middle" x="1002" y="-309.45" font-family="Helvetica,sans-Serif" font-size="14.00">Output Table of Bonds</text>
</g>
<!-- compute_partial_ion_workflow&#45;&gt;SumContributions -->
<g id="edge12" class="edge">
<title>compute_partial_ion_workflow&#45;&gt;SumContributions</title>
<path fill="none" stroke="black" d="M1454.75,-251.26C1454.75,-239.43 1454.75,-223.45 1454.75,-209.75"/>
<polygon fill="black" stroke="black" points="1458.25,-209.97 1454.75,-199.97 1451.25,-209.97 1458.25,-209.97"/>
<text text-anchor="middle" x="1624.62" y="-220.2" font-family="Helvetica,sans-Serif" font-size="14.00">Outputs partial_workspaces and sum_workspace</text>
</g>
<!-- sum_workspace1 -->
<g id="node31" class="node">
<title>sum_workspace1</title>
<polygon fill="lightseagreen" stroke="black" points="366.25,-109 239.25,-109 239.25,-73 366.25,-73 366.25,-109"/>
<text text-anchor="middle" x="302.75" y="-86.33" font-family="Helvetica,sans-Serif" font-size="14.00">sum_workspace</text>
</g>
<!-- compute_partial_ion_workflow1&#45;&gt;sum_workspace1 -->
<g id="edge23" class="edge">
<title>compute_partial_ion_workflow1&#45;&gt;sum_workspace1</title>
<path fill="none" stroke="black" d="M302.75,-162.01C302.75,-150.18 302.75,-134.2 302.75,-120.5"/>
<polygon fill="black" stroke="black" points="306.25,-120.72 302.75,-110.72 299.25,-120.72 306.25,-120.72"/>
</g>
<!-- compute_DOS&#45;&gt;DoS_Workspace -->
<g id="edge26" class="edge">
<title>compute_DOS&#45;&gt;DoS_Workspace</title>
<path fill="none" stroke="black" d="M1883.75,-340.51C1883.75,-328.68 1883.75,-312.7 1883.75,-299"/>
<polygon fill="black" stroke="black" points="1887.25,-299.22 1883.75,-289.22 1880.25,-299.22 1887.25,-299.22"/>
</g>
<!-- compute_DOS_IR&#45;&gt;DoS_Workspace1 -->
<g id="edge29" class="edge">
<title>compute_DOS_IR&#45;&gt;DoS_Workspace1</title>
<path fill="none" stroke="black" d="M2682.75,-340.51C2682.75,-328.68 2682.75,-312.7 2682.75,-299"/>
<polygon fill="black" stroke="black" points="2686.25,-299.22 2682.75,-289.22 2679.25,-299.22 2686.25,-299.22"/>
</g>
<!-- compute_DOS_Ramen&#45;&gt;DoS_Workspace2 -->
<g id="edge32" class="edge">
<title>compute_DOS_Ramen&#45;&gt;DoS_Workspace2</title>
<path fill="none" stroke="black" d="M3560.75,-340.51C3560.75,-328.68 3560.75,-312.7 3560.75,-299"/>
<polygon fill="black" stroke="black" points="3564.25,-299.22 3560.75,-289.22 3557.25,-299.22 3564.25,-299.22"/>
</g>
<!-- sum_workspace1&#45;&gt;OutputWorkspace3 -->
<g id="edge24" class="edge">
<title>sum_workspace1&#45;&gt;OutputWorkspace3</title>
<path fill="none" stroke="black" d="M302.75,-72.81C302.75,-65.23 302.75,-56.1 302.75,-47.54"/>
<polygon fill="black" stroke="black" points="306.25,-47.54 302.75,-37.54 299.25,-47.54 306.25,-47.54"/>
</g>
<!-- GroupWorkspaces&#45;&gt;OutputWorkspace2 -->
<g id="edge17" class="edge">
<title>GroupWorkspaces&#45;&gt;OutputWorkspace2</title>
<path fill="none" stroke="black" d="M1243.16,-73.17C1256.63,-63.89 1273.55,-52.22 1288.24,-42.1"/>
<polygon fill="black" stroke="black" points="1290.02,-45.12 1296.27,-36.56 1286.05,-39.36 1290.02,-45.12"/>
</g>
<!-- all_ions&#45;&gt;compute_partial_ion_workflow1 -->
<g id="edge20" class="edge">
<title>all_ions&#45;&gt;compute_partial_ion_workflow1</title>
<path fill="none" stroke="black" d="M1052.37,-256.89C1045.29,-254.83 1037.83,-252.9 1030.75,-251.5 896.41,-224.9 746.04,-208.25 617,-197.88"/>
<polygon fill="black" stroke="black" points="617.53,-194.41 607.28,-197.1 616.97,-201.38 617.53,-194.41"/>
</g>
</g>
</svg>
