<?xml version="1.0" encoding="UTF-8" standalone="no"?>
<!DOCTYPE svg PUBLIC "-//W3C//DTD SVG 1.1//EN"
 "http://www.w3.org/Graphics/SVG/1.1/DTD/svg11.dtd">
<!-- Generated by graphviz version 13.1.1 (20250720.1534)
 -->
<!-- Title: SingleCrystalDiffuseReduction Pages: 1 -->
<svg width="762pt" height="723pt"
 viewBox="0.00 0.00 762.00 723.00" xmlns="http://www.w3.org/2000/svg" xmlns:xlink="http://www.w3.org/1999/xlink">
<g id="graph0" class="graph" transform="scale(1 1) rotate(0) translate(4 718.85)">
<title>SingleCrystalDiffuseReduction</title>
<polygon fill="white" stroke="none" points="-4,4 -4,-718.85 757.66,-718.85 757.66,4 -4,4"/>
<text xml:space="preserve" text-anchor="middle" x="376.83" y="-697.55" font-family="Helvetica,sans-Serif" font-size="14.00">Single Crystal Diffuse Reduction</text>
<!-- Load -->
<g id="node1" class="node">
<title>Load</title>
<path fill="lightskyblue" stroke="black" d="M516.78,-592.5C516.78,-592.5 486.78,-592.5 486.78,-592.5 480.78,-592.5 474.78,-586.5 474.78,-580.5 474.78,-580.5 474.78,-568.5 474.78,-568.5 474.78,-562.5 480.78,-556.5 486.78,-556.5 486.78,-556.5 516.78,-556.5 516.78,-556.5 522.78,-556.5 528.78,-562.5 528.78,-568.5 528.78,-568.5 528.78,-580.5 528.78,-580.5 528.78,-586.5 522.78,-592.5 516.78,-592.5"/>
<text xml:space="preserve" text-anchor="middle" x="501.78" y="-569.83" font-family="Helvetica,sans-Serif" font-size="14.00">Load</text>
</g>
<!-- LoadIsawUB -->
<g id="node2" class="node">
<title>LoadIsawUB</title>
<path fill="lightskyblue" stroke="black" d="M501.16,-519.5C501.16,-519.5 424.41,-519.5 424.41,-519.5 418.41,-519.5 412.41,-513.5 412.41,-507.5 412.41,-507.5 412.41,-495.5 412.41,-495.5 412.41,-489.5 418.41,-483.5 424.41,-483.5 424.41,-483.5 501.16,-483.5 501.16,-483.5 507.16,-483.5 513.16,-489.5 513.16,-495.5 513.16,-495.5 513.16,-507.5 513.16,-507.5 513.16,-513.5 507.16,-519.5 501.16,-519.5"/>
<text xml:space="preserve" text-anchor="middle" x="462.78" y="-496.82" font-family="Helvetica,sans-Serif" font-size="14.00">LoadIsawUB</text>
</g>
<!-- Load&#45;&gt;LoadIsawUB -->
<g id="edge2" class="edge">
<title>Load&#45;&gt;LoadIsawUB</title>
<path fill="none" stroke="black" d="M492.34,-556.31C487.93,-548.29 482.58,-538.55 477.65,-529.57"/>
<polygon fill="black" stroke="black" points="480.75,-527.94 472.87,-520.86 474.61,-531.31 480.75,-527.94"/>
</g>
<!-- ConvertToMD -->
<g id="node3" class="node">
<title>ConvertToMD</title>
<path fill="lightskyblue" stroke="black" d="M501.53,-446.5C501.53,-446.5 418.03,-446.5 418.03,-446.5 412.03,-446.5 406.03,-440.5 406.03,-434.5 406.03,-434.5 406.03,-422.5 406.03,-422.5 406.03,-416.5 412.03,-410.5 418.03,-410.5 418.03,-410.5 501.53,-410.5 501.53,-410.5 507.53,-410.5 513.53,-416.5 513.53,-422.5 513.53,-422.5 513.53,-434.5 513.53,-434.5 513.53,-440.5 507.53,-446.5 501.53,-446.5"/>
<text xml:space="preserve" text-anchor="middle" x="459.78" y="-423.82" font-family="Helvetica,sans-Serif" font-size="14.00">ConvertToMD</text>
</g>
<!-- LoadIsawUB&#45;&gt;ConvertToMD -->
<g id="edge3" class="edge">
<title>LoadIsawUB&#45;&gt;ConvertToMD</title>
<path fill="none" stroke="black" d="M462.06,-483.31C461.73,-475.64 461.34,-466.39 460.98,-457.74"/>
<polygon fill="black" stroke="black" points="464.49,-457.88 460.57,-448.04 457.49,-458.18 464.49,-457.88"/>
</g>
<!-- MDNorm -->
<g id="node4" class="node">
<title>MDNorm</title>
<path fill="lightskyblue" stroke="black" d="M424.66,-373.5C424.66,-373.5 176.91,-373.5 176.91,-373.5 170.91,-373.5 164.91,-367.5 164.91,-361.5 164.91,-361.5 164.91,-343 164.91,-343 164.91,-337 170.91,-331 176.91,-331 176.91,-331 424.66,-331 424.66,-331 430.66,-331 436.66,-337 436.66,-343 436.66,-343 436.66,-361.5 436.66,-361.5 436.66,-367.5 430.66,-373.5 424.66,-373.5"/>
<text xml:space="preserve" text-anchor="middle" x="300.78" y="-356.2" font-family="Helvetica,sans-Serif" font-size="14.00">MDNorm</text>
<text xml:space="preserve" text-anchor="middle" x="300.78" y="-338.95" font-family="Helvetica,sans-Serif" font-size="14.00">(Accumulate data and normalisation)</text>
</g>
<!-- ConvertToMD&#45;&gt;MDNorm -->
<g id="edge4" class="edge">
<title>ConvertToMD&#45;&gt;MDNorm</title>
<path fill="none" stroke="black" d="M422.5,-410.09C402.54,-400.77 377.56,-389.1 355.44,-378.77"/>
<polygon fill="black" stroke="black" points="357.09,-375.68 346.55,-374.62 354.13,-382.02 357.09,-375.68"/>
</g>
<!-- isLastRunNumber -->
<g id="node7" class="node">
<title>isLastRunNumber</title>
<polygon fill="limegreen" stroke="black" points="300.78,-294 89.23,-276 300.78,-258 512.34,-276 300.78,-294"/>
<text xml:space="preserve" text-anchor="middle" x="300.78" y="-271.32" font-family="Helvetica,sans-Serif" font-size="14.00">Is last Sample Run Number?</text>
</g>
<!-- MDNorm&#45;&gt;isLastRunNumber -->
<g id="edge5" class="edge">
<title>MDNorm&#45;&gt;isLastRunNumber</title>
<path fill="none" stroke="black" d="M300.78,-330.57C300.78,-322.75 300.78,-313.72 300.78,-305.32"/>
<polygon fill="black" stroke="black" points="304.28,-305.58 300.78,-295.58 297.28,-305.58 304.28,-305.58"/>
</g>
<!-- DivideMDbkg -->
<g id="node5" class="node">
<title>DivideMDbkg</title>
<path fill="lightskyblue" stroke="black" d="M741.66,-115.5C741.66,-115.5 331.91,-115.5 331.91,-115.5 325.91,-115.5 319.91,-109.5 319.91,-103.5 319.91,-103.5 319.91,-85 319.91,-85 319.91,-79 325.91,-73 331.91,-73 331.91,-73 741.66,-73 741.66,-73 747.66,-73 753.66,-79 753.66,-85 753.66,-85 753.66,-103.5 753.66,-103.5 753.66,-109.5 747.66,-115.5 741.66,-115.5"/>
<text xml:space="preserve" text-anchor="middle" x="536.78" y="-98.2" font-family="Helvetica,sans-Serif" font-size="14.00">MinusMD</text>
<text xml:space="preserve" text-anchor="middle" x="536.78" y="-80.95" font-family="Helvetica,sans-Serif" font-size="14.00">normalizedData &#45; normalizaedBackground*BackgroundScale</text>
</g>
<!-- OutputWorkspace -->
<g id="node12" class="node">
<title>OutputWorkspace</title>
<polygon fill="grey" stroke="black" points="400.62,-36 232.25,-36 188.94,0 357.31,0 400.62,-36"/>
<text xml:space="preserve" text-anchor="middle" x="294.78" y="-11.82" font-family="Times,serif" font-size="14.00">OutputWorkspace</text>
</g>
<!-- DivideMDbkg&#45;&gt;OutputWorkspace -->
<g id="edge11" class="edge">
<title>DivideMDbkg&#45;&gt;OutputWorkspace</title>
<path fill="none" stroke="black" d="M469.37,-72.57C435.93,-62.31 395.64,-49.95 362.2,-39.68"/>
<polygon fill="black" stroke="black" points="363.63,-36.46 353.05,-36.88 361.58,-43.16 363.63,-36.46"/>
</g>
<!-- Background -->
<g id="node6" class="node">
<title>Background</title>
<polygon fill="limegreen" stroke="black" points="298.78,-204.75 108.81,-186.75 298.78,-168.75 488.76,-186.75 298.78,-204.75"/>
<text xml:space="preserve" text-anchor="middle" x="298.78" y="-182.07" font-family="Helvetica,sans-Serif" font-size="14.00">Subtracting background?</text>
</g>
<!-- Background&#45;&gt;DivideMDbkg -->
<g id="edge10" class="edge">
<title>Background&#45;&gt;DivideMDbkg</title>
<path fill="none" stroke="black" d="M335.45,-171.81C371.71,-158.02 427.97,-136.63 471.81,-119.96"/>
<polygon fill="black" stroke="black" points="472.86,-123.3 480.97,-116.47 470.38,-116.76 472.86,-123.3"/>
<text xml:space="preserve" text-anchor="middle" x="443.28" y="-137.45" font-family="Helvetica,sans-Serif" font-size="14.00">Yes</text>
</g>
<!-- Background&#45;&gt;OutputWorkspace -->
<g id="edge9" class="edge">
<title>Background&#45;&gt;OutputWorkspace</title>
<path fill="none" stroke="black" d="M296.66,-168.46C295.02,-154.26 292.9,-133.61 292.03,-115.5 291.13,-96.63 291.55,-91.88 292.03,-73 292.24,-64.68 292.64,-55.64 293.07,-47.38"/>
<polygon fill="black" stroke="black" points="296.55,-47.71 293.61,-37.53 289.56,-47.32 296.55,-47.71"/>
<text xml:space="preserve" text-anchor="middle" x="301.41" y="-89.58" font-family="Helvetica,sans-Serif" font-size="14.00">No</text>
</g>
<!-- isLastRunNumber&#45;&gt;Background -->
<g id="edge6" class="edge">
<title>isLastRunNumber&#45;&gt;Background</title>
<path fill="none" stroke="black" d="M300.39,-257.76C300.12,-245.93 299.75,-229.95 299.44,-216.25"/>
<polygon fill="black" stroke="black" points="302.94,-216.38 299.21,-206.47 295.94,-216.54 302.94,-216.38"/>
<text xml:space="preserve" text-anchor="middle" x="311.21" y="-226.7" font-family="Helvetica,sans-Serif" font-size="14.00">Yes</text>
</g>
<!-- NextFile -->
<g id="node13" class="node">
<title>NextFile</title>
<polygon fill="lightseagreen" stroke="black" points="577.16,-204.75 506.41,-204.75 506.41,-168.75 577.16,-168.75 577.16,-204.75"/>
<text xml:space="preserve" text-anchor="middle" x="541.78" y="-182.07" font-family="Helvetica,sans-Serif" font-size="14.00">NextFile</text>
</g>
<!-- isLastRunNumber&#45;&gt;NextFile -->
<g id="edge7" class="edge">
<title>isLastRunNumber&#45;&gt;NextFile</title>
<path fill="none" stroke="black" d="M340.89,-261.04C378.51,-247.87 436.61,-227.34 495.63,-205.51"/>
<polygon fill="black" stroke="black" points="496.69,-208.85 504.85,-202.09 494.26,-202.28 496.69,-208.85"/>
<text xml:space="preserve" text-anchor="middle" x="453.21" y="-226.7" font-family="Helvetica,sans-Serif" font-size="14.00">No</text>
</g>
<!-- RunNumberList -->
<g id="node8" class="node">
<title>RunNumberList</title>
<ellipse fill="khaki" stroke="black" cx="501.78" cy="-659.55" rx="146.02" ry="30.05"/>
<text xml:space="preserve" text-anchor="middle" x="501.78" y="-663.5" font-family="Helvetica,sans-Serif" font-size="14.00">Filename</text>
<text xml:space="preserve" text-anchor="middle" x="501.78" y="-646.25" font-family="Helvetica,sans-Serif" font-size="14.00">(Loop for all files to reduce)</text>
</g>
<!-- RunNumberList&#45;&gt;Load -->
<g id="edge1" class="edge">
<title>RunNumberList&#45;&gt;Load</title>
<path fill="none" stroke="black" d="M501.78,-629.04C501.78,-620.99 501.78,-612.28 501.78,-604.27"/>
<polygon fill="black" stroke="black" points="505.28,-604.34 501.78,-594.34 498.28,-604.35 505.28,-604.34"/>
</g>
<!-- SolidAngle -->
<g id="node9" class="node">
<title>SolidAngle</title>
<ellipse fill="khaki" stroke="black" cx="62.78" cy="-428.5" rx="62.78" ry="18"/>
<text xml:space="preserve" text-anchor="middle" x="62.78" y="-423.82" font-family="Helvetica,sans-Serif" font-size="14.00">SolidAngle</text>
</g>
<!-- SolidAngle&#45;&gt;MDNorm -->
<g id="edge12" class="edge">
<title>SolidAngle&#45;&gt;MDNorm</title>
<path fill="none" stroke="black" d="M104.24,-414.57C137.18,-404.29 184.16,-389.63 223.92,-377.23"/>
<polygon fill="black" stroke="black" points="224.72,-380.65 233.22,-374.33 222.63,-373.97 224.72,-380.65"/>
</g>
<!-- Flux -->
<g id="node10" class="node">
<title>Flux</title>
<ellipse fill="khaki" stroke="black" cx="175.78" cy="-428.5" rx="31.74" ry="18"/>
<text xml:space="preserve" text-anchor="middle" x="175.78" y="-423.82" font-family="Helvetica,sans-Serif" font-size="14.00">Flux</text>
</g>
<!-- Flux&#45;&gt;MDNorm -->
<g id="edge13" class="edge">
<title>Flux&#45;&gt;MDNorm</title>
<path fill="none" stroke="black" d="M197.27,-414.74C213.39,-405.16 236.04,-391.71 256.03,-379.83"/>
<polygon fill="black" stroke="black" points="257.79,-382.86 264.6,-374.74 254.21,-376.84 257.79,-382.86"/>
</g>
<!-- SymmetryOps -->
<g id="node11" class="node">
<title>SymmetryOps</title>
<ellipse fill="khaki" stroke="black" cx="306.78" cy="-428.5" rx="81.2" ry="18"/>
<text xml:space="preserve" text-anchor="middle" x="306.78" y="-423.82" font-family="Helvetica,sans-Serif" font-size="14.00">SymmetryOps</text>
</g>
<!-- SymmetryOps&#45;&gt;MDNorm -->
<g id="edge14" class="edge">
<title>SymmetryOps&#45;&gt;MDNorm</title>
<path fill="none" stroke="black" d="M305.39,-410.28C304.79,-402.8 304.06,-393.79 303.36,-385.16"/>
<polygon fill="black" stroke="black" points="306.86,-385 302.57,-375.32 299.88,-385.57 306.86,-385"/>
</g>
<!-- NextFile&#45;&gt;Load -->
<g id="edge8" class="edge">
<title>NextFile&#45;&gt;Load</title>
<path fill="none" stroke="black" d="M541.78,-205.13C541.78,-222.74 541.78,-250.76 541.78,-275 541.78,-502.5 541.78,-502.5 541.78,-502.5 541.78,-518.62 533.86,-534.46 525.06,-547.07"/>
<polygon fill="black" stroke="black" points="522.43,-544.74 519.2,-554.83 528.02,-548.96 522.43,-544.74"/>
</g>
</g>
</svg>
