<?xml version="1.0" encoding="UTF-8" standalone="no"?>
<!DOCTYPE svg PUBLIC "-//W3C//DTD SVG 1.1//EN"
 "http://www.w3.org/Graphics/SVG/1.1/DTD/svg11.dtd">
<!-- Generated by graphviz version 7.0.5 (20221231.0122)
 -->
<!-- Title: SingleCrystalDiffuseReduction Pages: 1 -->
<svg width="749pt" height="701pt"
 viewBox="0.00 0.00 749.49 700.74" xmlns="http://www.w3.org/2000/svg" xmlns:xlink="http://www.w3.org/1999/xlink">
<g id="graph0" class="graph" transform="scale(1 1) rotate(0) translate(4 696.74)">
<title>SingleCrystalDiffuseReduction</title>
<polygon fill="white" stroke="none" points="-4,4 -4,-696.74 745.49,-696.74 745.49,4 -4,4"/>
<text text-anchor="middle" x="370.75" y="-677.54" font-family="Helvetica,sans-Serif" font-size="14.00">Single Crystal Diffuse Reduction</text>
<!-- Load -->
<g id="node1" class="node">
<title>Load</title>
<path fill="lightskyblue" stroke="black" d="M491.49,-579C491.49,-579 461.49,-579 461.49,-579 455.49,-579 449.49,-573 449.49,-567 449.49,-567 449.49,-555 449.49,-555 449.49,-549 455.49,-543 461.49,-543 461.49,-543 491.49,-543 491.49,-543 497.49,-543 503.49,-549 503.49,-555 503.49,-555 503.49,-567 503.49,-567 503.49,-573 497.49,-579 491.49,-579"/>
<text text-anchor="middle" x="476.49" y="-557.3" font-family="Helvetica,sans-Serif" font-size="14.00">Load</text>
</g>
<!-- LoadIsawUB -->
<g id="node2" class="node">
<title>LoadIsawUB</title>
<path fill="lightskyblue" stroke="black" d="M474.99,-506C474.99,-506 397.99,-506 397.99,-506 391.99,-506 385.99,-500 385.99,-494 385.99,-494 385.99,-482 385.99,-482 385.99,-476 391.99,-470 397.99,-470 397.99,-470 474.99,-470 474.99,-470 480.99,-470 486.99,-476 486.99,-482 486.99,-482 486.99,-494 486.99,-494 486.99,-500 480.99,-506 474.99,-506"/>
<text text-anchor="middle" x="436.49" y="-484.3" font-family="Helvetica,sans-Serif" font-size="14.00">LoadIsawUB</text>
</g>
<!-- Load&#45;&gt;LoadIsawUB -->
<g id="edge2" class="edge">
<title>Load&#45;&gt;LoadIsawUB</title>
<path fill="none" stroke="black" d="M466.81,-542.81C462.24,-534.7 456.68,-524.84 451.58,-515.78"/>
<polygon fill="black" stroke="black" points="454.79,-514.34 446.83,-507.35 448.69,-517.78 454.79,-514.34"/>
</g>
<!-- ConvertToMD -->
<g id="node3" class="node">
<title>ConvertToMD</title>
<path fill="lightskyblue" stroke="black" d="M476.49,-433C476.49,-433 392.49,-433 392.49,-433 386.49,-433 380.49,-427 380.49,-421 380.49,-421 380.49,-409 380.49,-409 380.49,-403 386.49,-397 392.49,-397 392.49,-397 476.49,-397 476.49,-397 482.49,-397 488.49,-403 488.49,-409 488.49,-409 488.49,-421 488.49,-421 488.49,-427 482.49,-433 476.49,-433"/>
<text text-anchor="middle" x="434.49" y="-411.3" font-family="Helvetica,sans-Serif" font-size="14.00">ConvertToMD</text>
</g>
<!-- LoadIsawUB&#45;&gt;ConvertToMD -->
<g id="edge3" class="edge">
<title>LoadIsawUB&#45;&gt;ConvertToMD</title>
<path fill="none" stroke="black" d="M436.01,-469.81C435.79,-462.14 435.53,-452.89 435.29,-444.24"/>
<polygon fill="black" stroke="black" points="438.8,-444.44 435.02,-434.54 431.8,-444.64 438.8,-444.44"/>
</g>
<!-- MDNorm -->
<g id="node4" class="node">
<title>MDNorm</title>
<path fill="lightskyblue" stroke="black" d="M410.49,-360C410.49,-360 162.49,-360 162.49,-360 156.49,-360 150.49,-354 150.49,-348 150.49,-348 150.49,-334 150.49,-334 150.49,-328 156.49,-322 162.49,-322 162.49,-322 410.49,-322 410.49,-322 416.49,-322 422.49,-328 422.49,-334 422.49,-334 422.49,-348 422.49,-348 422.49,-354 416.49,-360 410.49,-360"/>
<text text-anchor="middle" x="286.49" y="-344.8" font-family="Helvetica,sans-Serif" font-size="14.00">MDNorm</text>
<text text-anchor="middle" x="286.49" y="-329.8" font-family="Helvetica,sans-Serif" font-size="14.00">(Accumulate data and normalisation)</text>
</g>
<!-- ConvertToMD&#45;&gt;MDNorm -->
<g id="edge4" class="edge">
<title>ConvertToMD&#45;&gt;MDNorm</title>
<path fill="none" stroke="black" d="M398.67,-396.57C379.42,-387.21 355.43,-375.54 334.58,-365.39"/>
<polygon fill="black" stroke="black" points="336.2,-362.29 325.68,-361.06 333.14,-368.58 336.2,-362.29"/>
</g>
<!-- isLastRunNumber -->
<g id="node7" class="node">
<title>isLastRunNumber</title>
<polygon fill="limegreen" stroke="black" points="286.49,-285 89.6,-267 286.49,-249 483.39,-267 286.49,-285"/>
<text text-anchor="middle" x="286.49" y="-263.3" font-family="Helvetica,sans-Serif" font-size="14.00">Is last Sample Run Number?</text>
</g>
<!-- MDNorm&#45;&gt;isLastRunNumber -->
<g id="edge5" class="edge">
<title>MDNorm&#45;&gt;isLastRunNumber</title>
<path fill="none" stroke="black" d="M286.49,-321.83C286.49,-314.24 286.49,-305.24 286.49,-296.79"/>
<polygon fill="black" stroke="black" points="289.99,-296.93 286.49,-286.93 282.99,-296.93 289.99,-296.93"/>
</g>
<!-- DivideMDbkg -->
<g id="node5" class="node">
<title>DivideMDbkg</title>
<path fill="lightskyblue" stroke="black" d="M729.49,-111C729.49,-111 319.49,-111 319.49,-111 313.49,-111 307.49,-105 307.49,-99 307.49,-99 307.49,-85 307.49,-85 307.49,-79 313.49,-73 319.49,-73 319.49,-73 729.49,-73 729.49,-73 735.49,-73 741.49,-79 741.49,-85 741.49,-85 741.49,-99 741.49,-99 741.49,-105 735.49,-111 729.49,-111"/>
<text text-anchor="middle" x="524.49" y="-95.8" font-family="Helvetica,sans-Serif" font-size="14.00">MinusMD</text>
<text text-anchor="middle" x="524.49" y="-80.8" font-family="Helvetica,sans-Serif" font-size="14.00">normalizedData &#45; normalizaedBackground*BackgroundScale</text>
</g>
<!-- OutputWorkspace -->
<g id="node12" class="node">
<title>OutputWorkspace</title>
<polygon fill="grey" stroke="black" points="391.27,-36 218.24,-36 173.72,0 346.75,0 391.27,-36"/>
<text text-anchor="middle" x="282.49" y="-14.3" font-family="Times,serif" font-size="14.00">OutputWorkspace</text>
</g>
<!-- DivideMDbkg&#45;&gt;OutputWorkspace -->
<g id="edge11" class="edge">
<title>DivideMDbkg&#45;&gt;OutputWorkspace</title>
<path fill="none" stroke="black" d="M462.49,-72.55C428.6,-62.47 386.54,-49.96 351.61,-39.56"/>
<polygon fill="black" stroke="black" points="353.04,-36.34 342.46,-36.84 351.05,-43.05 353.04,-36.34"/>
</g>
<!-- Background -->
<g id="node6" class="node">
<title>Background</title>
<polygon fill="limegreen" stroke="black" points="286.49,-198 110.04,-180 286.49,-162 462.95,-180 286.49,-198"/>
<text text-anchor="middle" x="286.49" y="-176.3" font-family="Helvetica,sans-Serif" font-size="14.00">Subtracting background?</text>
</g>
<!-- Background&#45;&gt;DivideMDbkg -->
<g id="edge10" class="edge">
<title>Background&#45;&gt;DivideMDbkg</title>
<path fill="none" stroke="black" d="M324.21,-165.37C361.5,-151.9 419.2,-131.05 463.11,-115.18"/>
<polygon fill="black" stroke="black" points="464.03,-118.57 472.25,-111.88 461.65,-111.99 464.03,-118.57"/>
<text text-anchor="middle" x="430.99" y="-132.8" font-family="Helvetica,sans-Serif" font-size="14.00">Yes</text>
</g>
<!-- Background&#45;&gt;OutputWorkspace -->
<g id="edge9" class="edge">
<title>Background&#45;&gt;OutputWorkspace</title>
<path fill="none" stroke="black" d="M284.25,-161.99C282.56,-148.26 280.39,-128.42 279.49,-111 278.63,-94.13 279.03,-89.88 279.49,-73 279.72,-64.8 280.14,-55.91 280.6,-47.76"/>
<polygon fill="black" stroke="black" points="284.08,-48.2 281.19,-38.01 277.09,-47.78 284.08,-48.2"/>
<text text-anchor="middle" x="288.99" y="-88.3" font-family="Helvetica,sans-Serif" font-size="14.00">No</text>
</g>
<!-- isLastRunNumber&#45;&gt;Background -->
<g id="edge6" class="edge">
<title>isLastRunNumber&#45;&gt;Background</title>
<path fill="none" stroke="black" d="M286.49,-248.8C286.49,-237.58 286.49,-222.67 286.49,-209.69"/>
<polygon fill="black" stroke="black" points="289.99,-209.98 286.49,-199.98 282.99,-209.98 289.99,-209.98"/>
<text text-anchor="middle" x="297.99" y="-219.8" font-family="Helvetica,sans-Serif" font-size="14.00">Yes</text>
</g>
<!-- NextFile -->
<g id="node13" class="node">
<title>NextFile</title>
<polygon fill="lightseagreen" stroke="black" points="551.99,-198 480.99,-198 480.99,-162 551.99,-162 551.99,-198"/>
<text text-anchor="middle" x="516.49" y="-176.3" font-family="Helvetica,sans-Serif" font-size="14.00">NextFile</text>
</g>
<!-- isLastRunNumber&#45;&gt;NextFile -->
<g id="edge7" class="edge">
<title>isLastRunNumber&#45;&gt;NextFile</title>
<path fill="none" stroke="black" d="M324.8,-252.03C360.04,-239.16 414.04,-219.37 470.15,-198.49"/>
<polygon fill="black" stroke="black" points="471.08,-201.88 479.23,-195.1 468.63,-195.32 471.08,-201.88"/>
<text text-anchor="middle" x="429.99" y="-219.8" font-family="Helvetica,sans-Serif" font-size="14.00">No</text>
</g>
<!-- RunNumberList -->
<g id="node8" class="node">
<title>RunNumberList</title>
<ellipse fill="khaki" stroke="black" cx="476.49" cy="-642.87" rx="146.24" ry="26.74"/>
<text text-anchor="middle" x="476.49" y="-646.67" font-family="Helvetica,sans-Serif" font-size="14.00">Filename</text>
<text text-anchor="middle" x="476.49" y="-631.67" font-family="Helvetica,sans-Serif" font-size="14.00">(Loop for all files to reduce)</text>
</g>
<!-- RunNumberList&#45;&gt;Load -->
<g id="edge1" class="edge">
<title>RunNumberList&#45;&gt;Load</title>
<path fill="none" stroke="black" d="M476.49,-615.72C476.49,-607.65 476.49,-598.72 476.49,-590.5"/>
<polygon fill="black" stroke="black" points="479.99,-590.66 476.49,-580.66 472.99,-590.66 479.99,-590.66"/>
</g>
<!-- SolidAngle -->
<g id="node9" class="node">
<title>SolidAngle</title>
<ellipse fill="khaki" stroke="black" cx="58.49" cy="-415" rx="58.49" ry="18"/>
<text text-anchor="middle" x="58.49" y="-411.3" font-family="Helvetica,sans-Serif" font-size="14.00">SolidAngle</text>
</g>
<!-- SolidAngle&#45;&gt;MDNorm -->
<g id="edge12" class="edge">
<title>SolidAngle&#45;&gt;MDNorm</title>
<path fill="none" stroke="black" d="M98.21,-401.46C130.98,-391.11 178.26,-376.18 217.24,-363.87"/>
<polygon fill="black" stroke="black" points="218.07,-367.28 226.55,-360.93 215.96,-360.6 218.07,-367.28"/>
</g>
<!-- Flux -->
<g id="node10" class="node">
<title>Flux</title>
<ellipse fill="khaki" stroke="black" cx="164.49" cy="-415" rx="29.8" ry="18"/>
<text text-anchor="middle" x="164.49" y="-411.3" font-family="Helvetica,sans-Serif" font-size="14.00">Flux</text>
</g>
<!-- Flux&#45;&gt;MDNorm -->
<g id="edge13" class="edge">
<title>Flux&#45;&gt;MDNorm</title>
<path fill="none" stroke="black" d="M185.19,-401.79C201.78,-391.99 225.58,-377.95 245.93,-365.94"/>
<polygon fill="black" stroke="black" points="247.47,-369.1 254.3,-361 243.91,-363.07 247.47,-369.1"/>
</g>
<!-- SymmetryOps -->
<g id="node11" class="node">
<title>SymmetryOps</title>
<ellipse fill="khaki" stroke="black" cx="287.49" cy="-415" rx="75.29" ry="18"/>
<text text-anchor="middle" x="287.49" y="-411.3" font-family="Helvetica,sans-Serif" font-size="14.00">SymmetryOps</text>
</g>
<!-- SymmetryOps&#45;&gt;MDNorm -->
<g id="edge14" class="edge">
<title>SymmetryOps&#45;&gt;MDNorm</title>
<path fill="none" stroke="black" d="M287.25,-396.57C287.15,-389.1 287.02,-380.17 286.91,-371.71"/>
<polygon fill="black" stroke="black" points="290.41,-371.74 286.77,-361.79 283.41,-371.83 290.41,-371.74"/>
</g>
<!-- NextFile&#45;&gt;Load -->
<g id="edge8" class="edge">
<title>NextFile&#45;&gt;Load</title>
<path fill="none" stroke="black" d="M516.49,-198.26C516.49,-215.43 516.49,-242.54 516.49,-266 516.49,-489 516.49,-489 516.49,-489 516.49,-505.12 508.57,-520.96 499.77,-533.57"/>
<polygon fill="black" stroke="black" points="497.15,-531.24 493.91,-541.33 502.73,-535.46 497.15,-531.24"/>
</g>
</g>
</svg>
