<?xml version="1.0" encoding="UTF-8" standalone="no"?>
<!DOCTYPE svg PUBLIC "-//W3C//DTD SVG 1.1//EN"
 "http://www.w3.org/Graphics/SVG/1.1/DTD/svg11.dtd">
<!-- Generated by graphviz version 7.0.5 (20221231.0122)
 -->
<!-- Title: LoadAndSum Pages: 1 -->
<svg width="351pt" height="594pt"
 viewBox="0.00 0.00 351.00 594.00" xmlns="http://www.w3.org/2000/svg" xmlns:xlink="http://www.w3.org/1999/xlink">
<g id="graph0" class="graph" transform="scale(1 1) rotate(0) translate(4 590)">
<title>LoadAndSum</title>
<polygon fill="white" stroke="none" points="-4,4 -4,-590 347,-590 347,4 -4,4"/>
<text text-anchor="middle" x="171.5" y="-570.8" font-family="Helvetica,sans-Serif" font-size="14.00">SNSPowderReduction Load And Sum Flowchart</text>
<!-- RunNumberList -->
<g id="node1" class="node">
<title>RunNumberList</title>
<ellipse fill="khaki" stroke="black" cx="192.01" cy="-545" rx="80.69" ry="18"/>
<text text-anchor="middle" x="192.01" y="-541.3" font-family="Helvetica,sans-Serif" font-size="14.00">RunNumberList</text>
</g>
<!-- getRunNumber -->
<g id="node3" class="node">
<title>getRunNumber</title>
<path fill="lightskyblue" stroke="black" d="M250.51,-490C250.51,-490 133.51,-490 133.51,-490 127.51,-490 121.51,-484 121.51,-478 121.51,-478 121.51,-466 121.51,-466 121.51,-460 127.51,-454 133.51,-454 133.51,-454 250.51,-454 250.51,-454 256.51,-454 262.51,-460 262.51,-466 262.51,-466 262.51,-478 262.51,-478 262.51,-484 256.51,-490 250.51,-490"/>
<text text-anchor="middle" x="192.01" y="-468.3" font-family="Helvetica,sans-Serif" font-size="14.00">Get a run number</text>
</g>
<!-- RunNumberList&#45;&gt;getRunNumber -->
<g id="edge1" class="edge">
<title>RunNumberList&#45;&gt;getRunNumber</title>
<path fill="none" stroke="black" d="M192.01,-526.81C192.01,-519.23 192.01,-510.1 192.01,-501.54"/>
<polygon fill="black" stroke="black" points="195.51,-501.54 192.01,-491.54 188.51,-501.54 195.51,-501.54"/>
</g>
<!-- OutputWorkspace -->
<g id="node2" class="node">
<title>OutputWorkspace</title>
<ellipse fill="khaki" stroke="black" cx="191.01" cy="-18" rx="91.78" ry="18"/>
<text text-anchor="middle" x="191.01" y="-14.3" font-family="Helvetica,sans-Serif" font-size="14.00">OutputWorkspace</text>
</g>
<!-- RunNumber -->
<g id="node8" class="node">
<title>RunNumber</title>
<polygon fill="grey" stroke="black" points="212.73,-417 79.55,-417 45.29,-381 178.47,-381 212.73,-417"/>
<text text-anchor="middle" x="129.01" y="-395.3" font-family="Times,serif" font-size="14.00">Run Number</text>
</g>
<!-- getRunNumber&#45;&gt;RunNumber -->
<g id="edge2" class="edge">
<title>getRunNumber&#45;&gt;RunNumber</title>
<path fill="none" stroke="black" d="M176.76,-453.81C169.25,-445.35 160.05,-434.98 151.73,-425.61"/>
<polygon fill="black" stroke="black" points="154.38,-423.32 145.12,-418.16 149.14,-427.96 154.38,-423.32"/>
</g>
<!-- loadAndCompress -->
<g id="node4" class="node">
<title>loadAndCompress</title>
<path fill="lightskyblue" stroke="black" d="M200.01,-344C200.01,-344 16.01,-344 16.01,-344 10.01,-344 4.01,-338 4.01,-332 4.01,-332 4.01,-320 4.01,-320 4.01,-314 10.01,-308 16.01,-308 16.01,-308 200.01,-308 200.01,-308 206.01,-308 212.01,-314 212.01,-320 212.01,-320 212.01,-332 212.01,-332 212.01,-338 206.01,-344 200.01,-344"/>
<text text-anchor="middle" x="108.01" y="-322.3" font-family="Helvetica,sans-Serif" font-size="14.00">LoadEventAndCompress v1</text>
</g>
<!-- plus -->
<g id="node5" class="node">
<title>plus</title>
<path fill="lightskyblue" stroke="black" d="M200.01,-271C200.01,-271 68.01,-271 68.01,-271 62.01,-271 56.01,-265 56.01,-259 56.01,-259 56.01,-245 56.01,-245 56.01,-239 62.01,-233 68.01,-233 68.01,-233 200.01,-233 200.01,-233 206.01,-233 212.01,-239 212.01,-245 212.01,-245 212.01,-259 212.01,-259 212.01,-265 206.01,-271 200.01,-271"/>
<text text-anchor="middle" x="134.01" y="-255.8" font-family="Helvetica,sans-Serif" font-size="14.00">Plus v1</text>
<text text-anchor="middle" x="134.01" y="-240.8" font-family="Helvetica,sans-Serif" font-size="14.00">summed workspace</text>
</g>
<!-- loadAndCompress&#45;&gt;plus -->
<g id="edge4" class="edge">
<title>loadAndCompress&#45;&gt;plus</title>
<path fill="none" stroke="black" d="M114.3,-307.57C117.09,-299.85 120.45,-290.55 123.59,-281.84"/>
<polygon fill="black" stroke="black" points="126.79,-283.29 126.9,-272.7 120.21,-280.91 126.79,-283.29"/>
</g>
<!-- isLastRunNumber -->
<g id="node7" class="node">
<title>isLastRunNumber</title>
<polygon fill="limegreen" stroke="black" points="191.01,-196 43.04,-178 191.01,-160 338.98,-178 191.01,-196"/>
<text text-anchor="middle" x="191.01" y="-174.3" font-family="Helvetica,sans-Serif" font-size="14.00">Is Last Run Number?</text>
</g>
<!-- plus&#45;&gt;isLastRunNumber -->
<g id="edge5" class="edge">
<title>plus&#45;&gt;isLastRunNumber</title>
<path fill="none" stroke="black" d="M148.39,-232.83C155.32,-224.08 163.73,-213.46 171.25,-203.96"/>
<polygon fill="black" stroke="black" points="173.97,-206.16 177.44,-196.14 168.48,-201.81 173.97,-206.16"/>
</g>
<!-- normaliseByCurrent -->
<g id="node6" class="node">
<title>normaliseByCurrent</title>
<path fill="lightskyblue" stroke="black" d="M267.51,-109C267.51,-109 114.51,-109 114.51,-109 108.51,-109 102.51,-103 102.51,-97 102.51,-97 102.51,-85 102.51,-85 102.51,-79 108.51,-73 114.51,-73 114.51,-73 267.51,-73 267.51,-73 273.51,-73 279.51,-79 279.51,-85 279.51,-85 279.51,-97 279.51,-97 279.51,-103 273.51,-109 267.51,-109"/>
<text text-anchor="middle" x="191.01" y="-87.3" font-family="Helvetica,sans-Serif" font-size="14.00">NormaliseByCurrent v1</text>
</g>
<!-- normaliseByCurrent&#45;&gt;OutputWorkspace -->
<g id="edge8" class="edge">
<title>normaliseByCurrent&#45;&gt;OutputWorkspace</title>
<path fill="none" stroke="black" d="M191.01,-72.81C191.01,-65.23 191.01,-56.1 191.01,-47.54"/>
<polygon fill="black" stroke="black" points="194.51,-47.54 191.01,-37.54 187.51,-47.54 194.51,-47.54"/>
</g>
<!-- isLastRunNumber&#45;&gt;getRunNumber -->
<g id="edge6" class="edge">
<title>isLastRunNumber&#45;&gt;getRunNumber</title>
<path fill="none" stroke="black" d="M212.56,-193.77C228.7,-206.75 248.01,-227.25 248.01,-251 248.01,-400 248.01,-400 248.01,-400 248.01,-417.9 236.9,-433.94 224.58,-446.23"/>
<polygon fill="black" stroke="black" points="222.51,-443.37 217.52,-452.71 227.25,-448.52 222.51,-443.37"/>
<text text-anchor="middle" x="257.51" y="-322.3" font-family="Helvetica,sans-Serif" font-size="14.00">No</text>
</g>
<!-- isLastRunNumber&#45;&gt;normaliseByCurrent -->
<g id="edge7" class="edge">
<title>isLastRunNumber&#45;&gt;normaliseByCurrent</title>
<path fill="none" stroke="black" d="M191.01,-159.8C191.01,-148.58 191.01,-133.67 191.01,-120.69"/>
<polygon fill="black" stroke="black" points="194.51,-120.98 191.01,-110.98 187.51,-120.98 194.51,-120.98"/>
<text text-anchor="middle" x="202.51" y="-130.8" font-family="Helvetica,sans-Serif" font-size="14.00">Yes</text>
</g>
<!-- RunNumber&#45;&gt;loadAndCompress -->
<g id="edge3" class="edge">
<title>RunNumber&#45;&gt;loadAndCompress</title>
<path fill="none" stroke="black" d="M123.92,-380.81C121.63,-373.05 118.86,-363.68 116.27,-354.95"/>
<polygon fill="black" stroke="black" points="119.67,-354.08 113.47,-345.48 112.95,-356.06 119.67,-354.08"/>
</g>
</g>
</svg>
