<?xml version="1.0" encoding="UTF-8" standalone="no"?>
<!DOCTYPE svg PUBLIC "-//W3C//DTD SVG 1.1//EN"
 "http://www.w3.org/Graphics/SVG/1.1/DTD/svg11.dtd">
<!-- Generated by graphviz version 7.0.5 (20221231.0122)
 -->
<!-- Title: FocusAndSum Pages: 1 -->
<svg width="358pt" height="900pt"
 viewBox="0.00 0.00 358.00 900.00" xmlns="http://www.w3.org/2000/svg" xmlns:xlink="http://www.w3.org/1999/xlink">
<g id="graph0" class="graph" transform="scale(1 1) rotate(0) translate(4 896)">
<title>FocusAndSum</title>
<polygon fill="white" stroke="none" points="-4,4 -4,-896 354,-896 354,4 -4,4"/>
<text text-anchor="middle" x="175" y="-876.8" font-family="Helvetica,sans-Serif" font-size="14.00">SNSPowderReduction Focus And Sum Flowchart</text>
<!-- RunNumberList -->
<g id="node1" class="node">
<title>RunNumberList</title>
<ellipse fill="khaki" stroke="black" cx="191.26" cy="-851" rx="80.69" ry="18"/>
<text text-anchor="middle" x="191.26" y="-847.3" font-family="Helvetica,sans-Serif" font-size="14.00">RunNumberList</text>
</g>
<!-- getRunNumber -->
<g id="node4" class="node">
<title>getRunNumber</title>
<path fill="lightskyblue" stroke="black" d="M249.76,-796C249.76,-796 132.76,-796 132.76,-796 126.76,-796 120.76,-790 120.76,-784 120.76,-784 120.76,-772 120.76,-772 120.76,-766 126.76,-760 132.76,-760 132.76,-760 249.76,-760 249.76,-760 255.76,-760 261.76,-766 261.76,-772 261.76,-772 261.76,-784 261.76,-784 261.76,-790 255.76,-796 249.76,-796"/>
<text text-anchor="middle" x="191.26" y="-774.3" font-family="Helvetica,sans-Serif" font-size="14.00">Get a run number</text>
</g>
<!-- RunNumberList&#45;&gt;getRunNumber -->
<g id="edge1" class="edge">
<title>RunNumberList&#45;&gt;getRunNumber</title>
<path fill="none" stroke="black" d="M191.26,-832.81C191.26,-825.23 191.26,-816.1 191.26,-807.54"/>
<polygon fill="black" stroke="black" points="194.76,-807.54 191.26,-797.54 187.76,-807.54 194.76,-807.54"/>
</g>
<!-- OutputWorkspace -->
<g id="node2" class="node">
<title>OutputWorkspace</title>
<ellipse fill="khaki" stroke="black" cx="192.26" cy="-18" rx="91.78" ry="18"/>
<text text-anchor="middle" x="192.26" y="-14.3" font-family="Helvetica,sans-Serif" font-size="14.00">OutputWorkspace</text>
</g>
<!-- alignAndFocusPowder -->
<g id="node3" class="node">
<title>alignAndFocusPowder</title>
<path fill="lightskyblue" stroke="black" d="M205.26,-504C205.26,-504 37.26,-504 37.26,-504 31.26,-504 25.26,-498 25.26,-492 25.26,-492 25.26,-480 25.26,-480 25.26,-474 31.26,-468 37.26,-468 37.26,-468 205.26,-468 205.26,-468 211.26,-468 217.26,-474 217.26,-480 217.26,-480 217.26,-492 217.26,-492 217.26,-498 211.26,-504 205.26,-504"/>
<text text-anchor="middle" x="121.26" y="-482.3" font-family="Helvetica,sans-Serif" font-size="14.00">AlignAndFocusPowder v1</text>
</g>
<!-- mergeWorkspace -->
<g id="node8" class="node">
<title>mergeWorkspace</title>
<path fill="lightskyblue" stroke="black" d="M206.76,-417C206.76,-417 21.76,-417 21.76,-417 15.76,-417 9.76,-411 9.76,-405 9.76,-405 9.76,-393 9.76,-393 9.76,-387 15.76,-381 21.76,-381 21.76,-381 206.76,-381 206.76,-381 212.76,-381 218.76,-387 218.76,-393 218.76,-393 218.76,-405 218.76,-405 218.76,-411 212.76,-417 206.76,-417"/>
<text text-anchor="middle" x="114.26" y="-395.3" font-family="Helvetica,sans-Serif" font-size="14.00">Merge chunked workspaces</text>
</g>
<!-- alignAndFocusPowder&#45;&gt;mergeWorkspace -->
<g id="edge6" class="edge">
<title>alignAndFocusPowder&#45;&gt;mergeWorkspace</title>
<path fill="none" stroke="black" d="M119.84,-467.8C118.92,-456.58 117.69,-441.67 116.62,-428.69"/>
<polygon fill="black" stroke="black" points="120.13,-428.65 115.82,-418.98 113.15,-429.23 120.13,-428.65"/>
</g>
<!-- RunNumber -->
<g id="node12" class="node">
<title>RunNumber</title>
<polygon fill="grey" stroke="black" points="218.98,-723 85.8,-723 51.54,-687 184.72,-687 218.98,-723"/>
<text text-anchor="middle" x="135.26" y="-701.3" font-family="Times,serif" font-size="14.00">Run Number</text>
</g>
<!-- getRunNumber&#45;&gt;RunNumber -->
<g id="edge2" class="edge">
<title>getRunNumber&#45;&gt;RunNumber</title>
<path fill="none" stroke="black" d="M177.7,-759.81C171.1,-751.44 163.02,-741.2 155.69,-731.9"/>
<polygon fill="black" stroke="black" points="158.57,-729.9 149.63,-724.22 153.07,-734.24 158.57,-729.9"/>
</g>
<!-- plus -->
<g id="node5" class="node">
<title>plus</title>
<path fill="lightskyblue" stroke="black" d="M203.26,-198C203.26,-198 71.26,-198 71.26,-198 65.26,-198 59.26,-192 59.26,-186 59.26,-186 59.26,-172 59.26,-172 59.26,-166 65.26,-160 71.26,-160 71.26,-160 203.26,-160 203.26,-160 209.26,-160 215.26,-166 215.26,-172 215.26,-172 215.26,-186 215.26,-186 215.26,-192 209.26,-198 203.26,-198"/>
<text text-anchor="middle" x="137.26" y="-182.8" font-family="Helvetica,sans-Serif" font-size="14.00">Plus v1</text>
<text text-anchor="middle" x="137.26" y="-167.8" font-family="Helvetica,sans-Serif" font-size="14.00">summed workspace</text>
</g>
<!-- isLastRunNumber -->
<g id="node11" class="node">
<title>isLastRunNumber</title>
<polygon fill="limegreen" stroke="black" points="192.26,-123 44.29,-105 192.26,-87 340.23,-105 192.26,-123"/>
<text text-anchor="middle" x="192.26" y="-101.3" font-family="Helvetica,sans-Serif" font-size="14.00">Is Last Run Number?</text>
</g>
<!-- plus&#45;&gt;isLastRunNumber -->
<g id="edge10" class="edge">
<title>plus&#45;&gt;isLastRunNumber</title>
<path fill="none" stroke="black" d="M151.14,-159.83C157.82,-151.08 165.94,-140.46 173.19,-130.96"/>
<polygon fill="black" stroke="black" points="175.86,-133.23 179.15,-123.16 170.3,-128.98 175.86,-133.23"/>
</g>
<!-- load -->
<g id="node6" class="node">
<title>load</title>
<path fill="lightskyblue" stroke="black" d="M157.76,-650C157.76,-650 110.76,-650 110.76,-650 104.76,-650 98.76,-644 98.76,-638 98.76,-638 98.76,-626 98.76,-626 98.76,-620 104.76,-614 110.76,-614 110.76,-614 157.76,-614 157.76,-614 163.76,-614 169.76,-620 169.76,-626 169.76,-626 169.76,-638 169.76,-638 169.76,-644 163.76,-650 157.76,-650"/>
<text text-anchor="middle" x="134.26" y="-628.3" font-family="Helvetica,sans-Serif" font-size="14.00">Load v1</text>
</g>
<!-- split -->
<g id="node7" class="node">
<title>split</title>
<path fill="lightskyblue" stroke="black" d="M176.26,-577C176.26,-577 84.26,-577 84.26,-577 78.26,-577 72.26,-571 72.26,-565 72.26,-565 72.26,-553 72.26,-553 72.26,-547 78.26,-541 84.26,-541 84.26,-541 176.26,-541 176.26,-541 182.26,-541 188.26,-547 188.26,-553 188.26,-553 188.26,-565 188.26,-565 188.26,-571 182.26,-577 176.26,-577"/>
<text text-anchor="middle" x="130.26" y="-555.3" font-family="Helvetica,sans-Serif" font-size="14.00">SplitEvents v1</text>
</g>
<!-- load&#45;&gt;split -->
<g id="edge4" class="edge">
<title>load&#45;&gt;split</title>
<path fill="none" stroke="black" d="M133.29,-613.81C132.86,-606.14 132.34,-596.89 131.85,-588.24"/>
<polygon fill="black" stroke="black" points="135.36,-588.33 131.3,-578.54 128.37,-588.72 135.36,-588.33"/>
</g>
<!-- split&#45;&gt;alignAndFocusPowder -->
<g id="edge5" class="edge">
<title>split&#45;&gt;alignAndFocusPowder</title>
<path fill="none" stroke="black" d="M128.08,-540.81C127.11,-533.14 125.93,-523.89 124.84,-515.24"/>
<polygon fill="black" stroke="black" points="128.34,-515.01 123.61,-505.53 121.39,-515.89 128.34,-515.01"/>
</g>
<!-- gatherWorkspace -->
<g id="node9" class="node">
<title>gatherWorkspace</title>
<path fill="lightskyblue" stroke="black" d="M202.76,-344C202.76,-344 47.76,-344 47.76,-344 41.76,-344 35.76,-338 35.76,-332 35.76,-332 35.76,-320 35.76,-320 35.76,-314 41.76,-308 47.76,-308 47.76,-308 202.76,-308 202.76,-308 208.76,-308 214.76,-314 214.76,-320 214.76,-320 214.76,-332 214.76,-332 214.76,-338 208.76,-344 202.76,-344"/>
<text text-anchor="middle" x="125.26" y="-322.3" font-family="Helvetica,sans-Serif" font-size="14.00">Gather workspaces MPI</text>
</g>
<!-- mergeWorkspace&#45;&gt;gatherWorkspace -->
<g id="edge7" class="edge">
<title>mergeWorkspace&#45;&gt;gatherWorkspace</title>
<path fill="none" stroke="black" d="M116.92,-380.81C118.11,-373.14 119.54,-363.89 120.88,-355.24"/>
<polygon fill="black" stroke="black" points="124.32,-355.94 122.39,-345.52 117.4,-354.87 124.32,-355.94"/>
</g>
<!-- normaliseByCurrent -->
<g id="node10" class="node">
<title>normaliseByCurrent</title>
<path fill="lightskyblue" stroke="black" d="M204.76,-271C204.76,-271 51.76,-271 51.76,-271 45.76,-271 39.76,-265 39.76,-259 39.76,-259 39.76,-247 39.76,-247 39.76,-241 45.76,-235 51.76,-235 51.76,-235 204.76,-235 204.76,-235 210.76,-235 216.76,-241 216.76,-247 216.76,-247 216.76,-259 216.76,-259 216.76,-265 210.76,-271 204.76,-271"/>
<text text-anchor="middle" x="128.26" y="-249.3" font-family="Helvetica,sans-Serif" font-size="14.00">NormaliseByCurrent v1</text>
</g>
<!-- gatherWorkspace&#45;&gt;normaliseByCurrent -->
<g id="edge8" class="edge">
<title>gatherWorkspace&#45;&gt;normaliseByCurrent</title>
<path fill="none" stroke="black" d="M125.98,-307.81C126.31,-300.14 126.7,-290.89 127.06,-282.24"/>
<polygon fill="black" stroke="black" points="130.55,-282.68 127.47,-272.54 123.56,-282.38 130.55,-282.68"/>
</g>
<!-- normaliseByCurrent&#45;&gt;plus -->
<g id="edge9" class="edge">
<title>normaliseByCurrent&#45;&gt;plus</title>
<path fill="none" stroke="black" d="M130.44,-234.57C131.38,-227.02 132.51,-217.96 133.58,-209.42"/>
<polygon fill="black" stroke="black" points="137.02,-210.13 134.79,-199.78 130.07,-209.26 137.02,-210.13"/>
</g>
<!-- isLastRunNumber&#45;&gt;OutputWorkspace -->
<g id="edge11" class="edge">
<title>isLastRunNumber&#45;&gt;OutputWorkspace</title>
<path fill="none" stroke="black" d="M192.26,-86.8C192.26,-75.58 192.26,-60.67 192.26,-47.69"/>
<polygon fill="black" stroke="black" points="195.76,-47.98 192.26,-37.98 188.76,-47.98 195.76,-47.98"/>
<text text-anchor="middle" x="203.76" y="-57.8" font-family="Helvetica,sans-Serif" font-size="14.00">Yes</text>
</g>
<!-- isLastRunNumber&#45;&gt;getRunNumber -->
<g id="edge12" class="edge">
<title>isLastRunNumber&#45;&gt;getRunNumber</title>
<path fill="none" stroke="black" d="M213.05,-120.94C228.63,-134.02 247.26,-154.56 247.26,-178 247.26,-706 247.26,-706 247.26,-706 247.26,-723.9 236.15,-739.94 223.83,-752.23"/>
<polygon fill="black" stroke="black" points="221.76,-749.37 216.77,-758.71 226.5,-754.52 221.76,-749.37"/>
<text text-anchor="middle" x="256.76" y="-438.8" font-family="Helvetica,sans-Serif" font-size="14.00">No</text>
</g>
<!-- RunNumber&#45;&gt;load -->
<g id="edge3" class="edge">
<title>RunNumber&#45;&gt;load</title>
<path fill="none" stroke="black" d="M135.02,-686.81C134.91,-679.23 134.78,-670.1 134.66,-661.54"/>
<polygon fill="black" stroke="black" points="138.16,-661.49 134.52,-651.54 131.16,-661.59 138.16,-661.49"/>
</g>
</g>
</svg>
