<?xml version="1.0" encoding="UTF-8" standalone="no"?>
<!DOCTYPE svg PUBLIC "-//W3C//DTD SVG 1.1//EN"
 "http://www.w3.org/Graphics/SVG/1.1/DTD/svg11.dtd">
<!-- Generated by graphviz version 9.0.0 (20231125.0833)
 -->
<!-- Title: FocusChunks Pages: 1 -->
<svg width="758pt" height="1452pt"
 viewBox="0.00 0.00 758.34 1452.25" xmlns="http://www.w3.org/2000/svg" xmlns:xlink="http://www.w3.org/1999/xlink">
<g id="graph0" class="graph" transform="scale(1 1) rotate(0) translate(4 1448.25)">
<title>FocusChunks</title>
<polygon fill="white" stroke="none" points="-4,4 -4,-1448.25 754.34,-1448.25 754.34,4 -4,4"/>
<text text-anchor="middle" x="375.17" y="-1426.95" font-family="Helvetica,sans-Serif" font-size="14.00">FocusAndSum Flowchart</text>
<!-- RunNumberList -->
<g id="node1" class="node">
<title>RunNumberList</title>
<ellipse fill="khaki" stroke="black" cx="611.87" cy="-1401" rx="86.46" ry="18"/>
<text text-anchor="middle" x="611.87" y="-1396.33" font-family="Helvetica,sans-Serif" font-size="14.00">RunNumberList</text>
</g>
<!-- getRunNumber -->
<g id="node8" class="node">
<title>getRunNumber</title>
<path fill="lightskyblue" stroke="black" d="M670.12,-1346C670.12,-1346 553.62,-1346 553.62,-1346 547.62,-1346 541.62,-1340 541.62,-1334 541.62,-1334 541.62,-1322 541.62,-1322 541.62,-1316 547.62,-1310 553.62,-1310 553.62,-1310 670.12,-1310 670.12,-1310 676.12,-1310 682.12,-1316 682.12,-1322 682.12,-1322 682.12,-1334 682.12,-1334 682.12,-1340 676.12,-1346 670.12,-1346"/>
<text text-anchor="middle" x="611.87" y="-1323.33" font-family="Helvetica,sans-Serif" font-size="14.00">Get a run number</text>
</g>
<!-- RunNumberList&#45;&gt;getRunNumber -->
<g id="edge1" class="edge">
<title>RunNumberList&#45;&gt;getRunNumber</title>
<path fill="none" stroke="black" d="M611.87,-1382.81C611.87,-1375.23 611.87,-1366.1 611.87,-1357.54"/>
<polygon fill="black" stroke="black" points="615.37,-1357.54 611.87,-1347.54 608.37,-1357.54 615.37,-1357.54"/>
</g>
<!-- FilterWall -->
<g id="node2" class="node">
<title>FilterWall</title>
<ellipse fill="khaki" stroke="black" cx="388.87" cy="-1182" rx="54.89" ry="18"/>
<text text-anchor="middle" x="388.87" y="-1177.33" font-family="Helvetica,sans-Serif" font-size="14.00">FilterWall</text>
</g>
<!-- load -->
<g id="node9" class="node">
<title>load</title>
<path fill="lightskyblue" stroke="black" d="M412.25,-1127C412.25,-1127 365.5,-1127 365.5,-1127 359.5,-1127 353.5,-1121 353.5,-1115 353.5,-1115 353.5,-1103 353.5,-1103 353.5,-1097 359.5,-1091 365.5,-1091 365.5,-1091 412.25,-1091 412.25,-1091 418.25,-1091 424.25,-1097 424.25,-1103 424.25,-1103 424.25,-1115 424.25,-1115 424.25,-1121 418.25,-1127 412.25,-1127"/>
<text text-anchor="middle" x="388.87" y="-1104.33" font-family="Helvetica,sans-Serif" font-size="14.00">Load v1</text>
</g>
<!-- FilterWall&#45;&gt;load -->
<g id="edge5" class="edge">
<title>FilterWall&#45;&gt;load</title>
<path fill="none" stroke="black" d="M388.87,-1163.81C388.87,-1156.23 388.87,-1147.1 388.87,-1138.54"/>
<polygon fill="black" stroke="black" points="392.37,-1138.54 388.87,-1128.54 385.37,-1138.54 392.37,-1138.54"/>
</g>
<!-- CalibrationFile -->
<g id="node3" class="node">
<title>CalibrationFile</title>
<ellipse fill="khaki" stroke="black" cx="482.87" cy="-946.75" rx="79.62" ry="18"/>
<text text-anchor="middle" x="482.87" y="-942.08" font-family="Helvetica,sans-Serif" font-size="14.00">CalibrationFile</text>
</g>
<!-- alignAndFocusPowder -->
<g id="node7" class="node">
<title>alignAndFocusPowder</title>
<path fill="lightskyblue" stroke="black" d="M481.62,-891.75C481.62,-891.75 314.12,-891.75 314.12,-891.75 308.12,-891.75 302.12,-885.75 302.12,-879.75 302.12,-879.75 302.12,-867.75 302.12,-867.75 302.12,-861.75 308.12,-855.75 314.12,-855.75 314.12,-855.75 481.62,-855.75 481.62,-855.75 487.62,-855.75 493.62,-861.75 493.62,-867.75 493.62,-867.75 493.62,-879.75 493.62,-879.75 493.62,-885.75 487.62,-891.75 481.62,-891.75"/>
<text text-anchor="middle" x="397.87" y="-869.08" font-family="Helvetica,sans-Serif" font-size="14.00">AlignAndFocusPowder v1</text>
</g>
<!-- CalibrationFile&#45;&gt;alignAndFocusPowder -->
<g id="edge9" class="edge">
<title>CalibrationFile&#45;&gt;alignAndFocusPowder</title>
<path fill="none" stroke="black" d="M462.73,-928.92C452.16,-920.1 439.03,-909.13 427.34,-899.37"/>
<polygon fill="black" stroke="black" points="429.84,-896.89 419.92,-893.17 425.35,-902.26 429.84,-896.89"/>
</g>
<!-- SplittersWorkspace -->
<g id="node4" class="node">
<title>SplittersWorkspace</title>
<ellipse fill="khaki" stroke="black" cx="104.87" cy="-1036" rx="104.87" ry="18"/>
<text text-anchor="middle" x="104.87" y="-1031.33" font-family="Helvetica,sans-Serif" font-size="14.00">SplittersWorkspace</text>
</g>
<!-- split -->
<g id="node10" class="node">
<title>split</title>
<path fill="lightskyblue" stroke="black" d="M318.75,-964.75C318.75,-964.75 227,-964.75 227,-964.75 221,-964.75 215,-958.75 215,-952.75 215,-952.75 215,-940.75 215,-940.75 215,-934.75 221,-928.75 227,-928.75 227,-928.75 318.75,-928.75 318.75,-928.75 324.75,-928.75 330.75,-934.75 330.75,-940.75 330.75,-940.75 330.75,-952.75 330.75,-952.75 330.75,-958.75 324.75,-964.75 318.75,-964.75"/>
<text text-anchor="middle" x="272.87" y="-942.08" font-family="Helvetica,sans-Serif" font-size="14.00">SplitEvents v1</text>
</g>
<!-- SplittersWorkspace&#45;&gt;split -->
<g id="edge8" class="edge">
<title>SplittersWorkspace&#45;&gt;split</title>
<path fill="none" stroke="black" d="M136.87,-1018.38C163.1,-1004.76 200.48,-985.35 229.42,-970.32"/>
<polygon fill="black" stroke="black" points="230.66,-973.61 237.93,-965.9 227.44,-967.4 230.66,-973.61"/>
</g>
<!-- OutputWorkspacesList -->
<g id="node5" class="node">
<title>OutputWorkspacesList</title>
<ellipse fill="khaki" stroke="black" cx="590.87" cy="-18" rx="120.65" ry="18"/>
<text text-anchor="middle" x="590.87" y="-13.32" font-family="Helvetica,sans-Serif" font-size="14.00">OutputWorkspacesList</text>
</g>
<!-- getChunk -->
<g id="node6" class="node">
<title>getChunk</title>
<path fill="lightskyblue" stroke="black" d="M626.75,-1200C626.75,-1200 475,-1200 475,-1200 469,-1200 463,-1194 463,-1188 463,-1188 463,-1176 463,-1176 463,-1170 469,-1164 475,-1164 475,-1164 626.75,-1164 626.75,-1164 632.75,-1164 638.75,-1170 638.75,-1176 638.75,-1176 638.75,-1188 638.75,-1188 638.75,-1194 632.75,-1200 626.75,-1200"/>
<text text-anchor="middle" x="550.87" y="-1177.33" font-family="Helvetica,sans-Serif" font-size="14.00">Get a chunk to process</text>
</g>
<!-- getChunk&#45;&gt;load -->
<g id="edge4" class="edge">
<title>getChunk&#45;&gt;load</title>
<path fill="none" stroke="black" d="M511.24,-1163.63C488.15,-1153.51 458.93,-1140.7 434.83,-1130.14"/>
<polygon fill="black" stroke="black" points="436.45,-1127.03 425.89,-1126.22 433.64,-1133.44 436.45,-1127.03"/>
</g>
<!-- plusAmongChunks -->
<g id="node14" class="node">
<title>plusAmongChunks</title>
<path fill="lightskyblue" stroke="black" d="M540.5,-818.75C540.5,-818.75 303.25,-818.75 303.25,-818.75 297.25,-818.75 291.25,-812.75 291.25,-806.75 291.25,-806.75 291.25,-771 291.25,-771 291.25,-765 297.25,-759 303.25,-759 303.25,-759 540.5,-759 540.5,-759 546.5,-759 552.5,-765 552.5,-771 552.5,-771 552.5,-806.75 552.5,-806.75 552.5,-812.75 546.5,-818.75 540.5,-818.75"/>
<text text-anchor="middle" x="421.87" y="-801.45" font-family="Helvetica,sans-Serif" font-size="14.00">Plus v1</text>
<text text-anchor="middle" x="421.87" y="-784.2" font-family="Helvetica,sans-Serif" font-size="14.00"> workspaces from different chunks </text>
<text text-anchor="middle" x="421.87" y="-766.95" font-family="Helvetica,sans-Serif" font-size="14.00">but same time range.</text>
</g>
<!-- alignAndFocusPowder&#45;&gt;plusAmongChunks -->
<g id="edge12" class="edge">
<title>alignAndFocusPowder&#45;&gt;plusAmongChunks</title>
<path fill="none" stroke="black" d="M402.84,-855.58C405.01,-848.1 407.65,-838.98 410.26,-829.96"/>
<polygon fill="black" stroke="black" points="413.57,-831.14 412.99,-820.56 406.84,-829.19 413.57,-831.14"/>
</g>
<!-- RunNumber -->
<g id="node20" class="node">
<title>RunNumber</title>
<polygon fill="grey" stroke="black" points="637.23,-1273 507.8,-1273 474.51,-1237 603.94,-1237 637.23,-1273"/>
<text text-anchor="middle" x="555.87" y="-1248.83" font-family="Times,serif" font-size="14.00">Run Number</text>
</g>
<!-- getRunNumber&#45;&gt;RunNumber -->
<g id="edge2" class="edge">
<title>getRunNumber&#45;&gt;RunNumber</title>
<path fill="none" stroke="black" d="M598.32,-1309.81C591.71,-1301.44 583.63,-1291.2 576.3,-1281.9"/>
<polygon fill="black" stroke="black" points="579.18,-1279.9 570.24,-1274.22 573.68,-1284.24 579.18,-1279.9"/>
</g>
<!-- doSplitWorkspace -->
<g id="node16" class="node">
<title>doSplitWorkspace</title>
<polygon fill="limegreen" stroke="black" points="388.87,-1054 227.91,-1036 388.87,-1018 549.83,-1036 388.87,-1054"/>
<text text-anchor="middle" x="388.87" y="-1031.33" font-family="Helvetica,sans-Serif" font-size="14.00">Do split workspaces?</text>
</g>
<!-- load&#45;&gt;doSplitWorkspace -->
<g id="edge6" class="edge">
<title>load&#45;&gt;doSplitWorkspace</title>
<path fill="none" stroke="black" d="M388.87,-1090.81C388.87,-1083.23 388.87,-1074.1 388.87,-1065.54"/>
<polygon fill="black" stroke="black" points="392.37,-1065.54 388.87,-1055.54 385.37,-1065.54 392.37,-1065.54"/>
</g>
<!-- split&#45;&gt;alignAndFocusPowder -->
<g id="edge10" class="edge">
<title>split&#45;&gt;alignAndFocusPowder</title>
<path fill="none" stroke="black" d="M303.45,-928.38C319.64,-919.18 339.74,-907.77 357.23,-897.83"/>
<polygon fill="black" stroke="black" points="358.89,-900.92 365.86,-892.93 355.44,-894.83 358.89,-900.92"/>
</g>
<!-- gatherWorkspace -->
<g id="node11" class="node">
<title>gatherWorkspace</title>
<path fill="lightskyblue" stroke="black" d="M500.25,-527.25C500.25,-527.25 345.5,-527.25 345.5,-527.25 339.5,-527.25 333.5,-521.25 333.5,-515.25 333.5,-515.25 333.5,-503.25 333.5,-503.25 333.5,-497.25 339.5,-491.25 345.5,-491.25 345.5,-491.25 500.25,-491.25 500.25,-491.25 506.25,-491.25 512.25,-497.25 512.25,-503.25 512.25,-503.25 512.25,-515.25 512.25,-515.25 512.25,-521.25 506.25,-527.25 500.25,-527.25"/>
<text text-anchor="middle" x="422.87" y="-504.57" font-family="Helvetica,sans-Serif" font-size="14.00">Gather workspaces MPI</text>
</g>
<!-- setGSASParamFile -->
<g id="node15" class="node">
<title>setGSASParamFile</title>
<path fill="lightskyblue" stroke="black" d="M607.12,-454.25C607.12,-454.25 424.62,-454.25 424.62,-454.25 418.62,-454.25 412.62,-448.25 412.62,-442.25 412.62,-442.25 412.62,-430.25 412.62,-430.25 412.62,-424.25 418.62,-418.25 424.62,-418.25 424.62,-418.25 607.12,-418.25 607.12,-418.25 613.12,-418.25 619.12,-424.25 619.12,-430.25 619.12,-430.25 619.12,-442.25 619.12,-442.25 619.12,-448.25 613.12,-454.25 607.12,-454.25"/>
<text text-anchor="middle" x="515.87" y="-431.57" font-family="Helvetica,sans-Serif" font-size="14.00">Set GSAS iparam file to run</text>
</g>
<!-- gatherWorkspace&#45;&gt;setGSASParamFile -->
<g id="edge17" class="edge">
<title>gatherWorkspace&#45;&gt;setGSASParamFile</title>
<path fill="none" stroke="black" d="M445.38,-491.06C457.06,-482.15 471.52,-471.11 484.3,-461.35"/>
<polygon fill="black" stroke="black" points="486.22,-464.29 492.04,-455.44 481.97,-458.73 486.22,-464.29"/>
</g>
<!-- compressEvents -->
<g id="node12" class="node">
<title>compressEvents</title>
<path fill="lightskyblue" stroke="black" d="M580.87,-381.25C580.87,-381.25 450.87,-381.25 450.87,-381.25 444.87,-381.25 438.87,-375.25 438.87,-369.25 438.87,-369.25 438.87,-357.25 438.87,-357.25 438.87,-351.25 444.87,-345.25 450.87,-345.25 450.87,-345.25 580.87,-345.25 580.87,-345.25 586.87,-345.25 592.87,-351.25 592.87,-357.25 592.87,-357.25 592.87,-369.25 592.87,-369.25 592.87,-375.25 586.87,-381.25 580.87,-381.25"/>
<text text-anchor="middle" x="515.87" y="-358.57" font-family="Helvetica,sans-Serif" font-size="14.00">CompressEvents v1</text>
</g>
<!-- normaliseByCurrent -->
<g id="node13" class="node">
<title>normaliseByCurrent</title>
<path fill="lightskyblue" stroke="black" d="M592.12,-308.25C592.12,-308.25 439.62,-308.25 439.62,-308.25 433.62,-308.25 427.62,-302.25 427.62,-296.25 427.62,-296.25 427.62,-284.25 427.62,-284.25 427.62,-278.25 433.62,-272.25 439.62,-272.25 439.62,-272.25 592.12,-272.25 592.12,-272.25 598.12,-272.25 604.12,-278.25 604.12,-284.25 604.12,-284.25 604.12,-296.25 604.12,-296.25 604.12,-302.25 598.12,-308.25 592.12,-308.25"/>
<text text-anchor="middle" x="515.87" y="-285.57" font-family="Helvetica,sans-Serif" font-size="14.00">NormaliseByCurrent v1</text>
</g>
<!-- compressEvents&#45;&gt;normaliseByCurrent -->
<g id="edge20" class="edge">
<title>compressEvents&#45;&gt;normaliseByCurrent</title>
<path fill="none" stroke="black" d="M515.87,-345.06C515.87,-337.48 515.87,-328.35 515.87,-319.79"/>
<polygon fill="black" stroke="black" points="519.37,-319.79 515.87,-309.79 512.37,-319.79 519.37,-319.79"/>
</g>
<!-- RunOutputWorkspacesList -->
<g id="node21" class="node">
<title>RunOutputWorkspacesList</title>
<polygon fill="grey" stroke="black" points="638.99,-235.25 443.14,-235.25 392.76,-162.25 588.6,-162.25 638.99,-235.25"/>
<text text-anchor="middle" x="515.87" y="-199.7" font-family="Times,serif" font-size="14.00">OutputWorkspaces</text>
<text text-anchor="middle" x="515.87" y="-185.45" font-family="Times,serif" font-size="14.00">for a run number</text>
</g>
<!-- normaliseByCurrent&#45;&gt;RunOutputWorkspacesList -->
<g id="edge21" class="edge">
<title>normaliseByCurrent&#45;&gt;RunOutputWorkspacesList</title>
<path fill="none" stroke="black" d="M515.87,-271.99C515.87,-264.71 515.87,-255.83 515.87,-246.83"/>
<polygon fill="black" stroke="black" points="519.37,-246.99 515.87,-236.99 512.37,-246.99 519.37,-246.99"/>
</g>
<!-- allChunksProcessed -->
<g id="node19" class="node">
<title>allChunksProcessed</title>
<polygon fill="limegreen" stroke="black" points="448.87,-705.75 260.38,-687.75 448.87,-669.75 637.36,-687.75 448.87,-705.75"/>
<text text-anchor="middle" x="448.87" y="-683.08" font-family="Helvetica,sans-Serif" font-size="14.00">Are All Chunks Reduced?</text>
</g>
<!-- plusAmongChunks&#45;&gt;allChunksProcessed -->
<g id="edge13" class="edge">
<title>plusAmongChunks&#45;&gt;allChunksProcessed</title>
<path fill="none" stroke="black" d="M429.83,-758.67C433.46,-745.33 437.74,-729.61 441.32,-716.46"/>
<polygon fill="black" stroke="black" points="444.61,-717.71 443.86,-707.14 437.86,-715.87 444.61,-717.71"/>
</g>
<!-- setGSASParamFile&#45;&gt;compressEvents -->
<g id="edge19" class="edge">
<title>setGSASParamFile&#45;&gt;compressEvents</title>
<path fill="none" stroke="black" d="M515.87,-418.06C515.87,-410.48 515.87,-401.35 515.87,-392.79"/>
<polygon fill="black" stroke="black" points="519.37,-392.79 515.87,-382.79 512.37,-392.79 519.37,-392.79"/>
</g>
<!-- doSplitWorkspace&#45;&gt;alignAndFocusPowder -->
<g id="edge11" class="edge">
<title>doSplitWorkspace&#45;&gt;alignAndFocusPowder</title>
<path fill="none" stroke="black" d="M383.36,-1018.32C377.17,-997.29 368.79,-960.11 375.12,-928.75 376.91,-919.88 380.21,-910.64 383.75,-902.38"/>
<polygon fill="black" stroke="black" points="386.81,-904.1 387.8,-893.55 380.45,-901.18 386.81,-904.1"/>
<text text-anchor="middle" x="384.25" y="-942.08" font-family="Helvetica,sans-Serif" font-size="14.00">No</text>
</g>
<!-- doSplitWorkspace&#45;&gt;split -->
<g id="edge7" class="edge">
<title>doSplitWorkspace&#45;&gt;split</title>
<path fill="none" stroke="black" d="M362.24,-1020.56C351.99,-1014.62 340.35,-1007.41 330.37,-1000 319.42,-991.88 308.16,-982.02 298.53,-973.07"/>
<polygon fill="black" stroke="black" points="300.97,-970.56 291.31,-966.22 296.16,-975.64 300.97,-970.56"/>
<text text-anchor="middle" x="341.12" y="-986.7" font-family="Helvetica,sans-Serif" font-size="14.00">Yes</text>
</g>
<!-- haveMPI -->
<g id="node17" class="node">
<title>haveMPI</title>
<polygon fill="limegreen" stroke="black" points="448.87,-616.5 361.57,-598.5 448.87,-580.5 536.17,-598.5 448.87,-616.5"/>
<text text-anchor="middle" x="448.87" y="-593.83" font-family="Helvetica,sans-Serif" font-size="14.00">Have MPI?</text>
</g>
<!-- haveMPI&#45;&gt;gatherWorkspace -->
<g id="edge16" class="edge">
<title>haveMPI&#45;&gt;gatherWorkspace</title>
<path fill="none" stroke="black" d="M443.98,-581.09C440.38,-569.01 435.4,-552.31 431.19,-538.15"/>
<polygon fill="black" stroke="black" points="434.65,-537.52 428.44,-528.93 427.94,-539.52 434.65,-537.52"/>
<text text-anchor="middle" x="449.12" y="-549.2" font-family="Helvetica,sans-Serif" font-size="14.00">Yes</text>
</g>
<!-- haveMPI&#45;&gt;setGSASParamFile -->
<g id="edge18" class="edge">
<title>haveMPI&#45;&gt;setGSASParamFile</title>
<path fill="none" stroke="black" d="M469.42,-584.49C486.8,-572.16 510.49,-551.87 520.87,-527.25 529.05,-507.85 527.25,-483.98 523.7,-465.71"/>
<polygon fill="black" stroke="black" points="527.15,-465.07 521.54,-456.08 520.32,-466.6 527.15,-465.07"/>
<text text-anchor="middle" x="535.25" y="-504.57" font-family="Helvetica,sans-Serif" font-size="14.00">No</text>
</g>
<!-- isLastRunNumber -->
<g id="node18" class="node">
<title>isLastRunNumber</title>
<polygon fill="limegreen" stroke="black" points="590.87,-125.25 431.4,-107.25 590.87,-89.25 750.34,-107.25 590.87,-125.25"/>
<text text-anchor="middle" x="590.87" y="-102.58" font-family="Helvetica,sans-Serif" font-size="14.00">Is Last Run Number?</text>
</g>
<!-- isLastRunNumber&#45;&gt;OutputWorkspacesList -->
<g id="edge24" class="edge">
<title>isLastRunNumber&#45;&gt;OutputWorkspacesList</title>
<path fill="none" stroke="black" d="M590.87,-89.01C590.87,-77.18 590.87,-61.2 590.87,-47.5"/>
<polygon fill="black" stroke="black" points="594.37,-47.72 590.87,-37.72 587.37,-47.72 594.37,-47.72"/>
<text text-anchor="middle" x="602.12" y="-57.95" font-family="Helvetica,sans-Serif" font-size="14.00">Yes</text>
</g>
<!-- isLastRunNumber&#45;&gt;getRunNumber -->
<g id="edge23" class="edge">
<title>isLastRunNumber&#45;&gt;getRunNumber</title>
<path fill="none" stroke="black" d="M614.92,-122.81C637.18,-138.33 666.87,-165.13 666.87,-197.75 666.87,-1256 666.87,-1256 666.87,-1256 666.87,-1273.61 656.17,-1289.5 644.2,-1301.76"/>
<polygon fill="black" stroke="black" points="641.81,-1299.2 636.94,-1308.61 646.61,-1304.3 641.81,-1299.2"/>
<text text-anchor="middle" x="676.25" y="-727.7" font-family="Helvetica,sans-Serif" font-size="14.00">No</text>
</g>
<!-- allChunksProcessed&#45;&gt;getChunk -->
<g id="edge14" class="edge">
<title>allChunksProcessed&#45;&gt;getChunk</title>
<path fill="none" stroke="black" d="M503.02,-701.05C545.99,-714.38 598.87,-740.43 598.87,-787.88 598.87,-1110 598.87,-1110 598.87,-1110 598.87,-1126.88 589.44,-1142.75 578.94,-1155.18"/>
<polygon fill="black" stroke="black" points="576.43,-1152.74 572.25,-1162.47 581.59,-1157.47 576.43,-1152.74"/>
<text text-anchor="middle" x="608.25" y="-942.08" font-family="Helvetica,sans-Serif" font-size="14.00">No</text>
</g>
<!-- allChunksProcessed&#45;&gt;haveMPI -->
<g id="edge15" class="edge">
<title>allChunksProcessed&#45;&gt;haveMPI</title>
<path fill="none" stroke="black" d="M448.87,-669.51C448.87,-657.76 448.87,-641.91 448.87,-628.27"/>
<polygon fill="black" stroke="black" points="452.37,-628.51 448.87,-618.51 445.37,-628.51 452.37,-628.51"/>
<text text-anchor="middle" x="460.12" y="-638.45" font-family="Helvetica,sans-Serif" font-size="14.00">Yes</text>
</g>
<!-- RunNumber&#45;&gt;getChunk -->
<g id="edge3" class="edge">
<title>RunNumber&#45;&gt;getChunk</title>
<path fill="none" stroke="black" d="M554.66,-1236.81C554.12,-1229.14 553.47,-1219.89 552.86,-1211.24"/>
<polygon fill="black" stroke="black" points="556.37,-1211.27 552.18,-1201.54 549.39,-1211.76 556.37,-1211.27"/>
</g>
<!-- RunOutputWorkspacesList&#45;&gt;isLastRunNumber -->
<g id="edge22" class="edge">
<title>RunOutputWorkspacesList&#45;&gt;isLastRunNumber</title>
<path fill="none" stroke="black" d="M545.94,-161.86C554.17,-152.05 562.9,-141.63 570.45,-132.63"/>
<polygon fill="black" stroke="black" points="573.11,-134.9 576.85,-124.99 567.74,-130.4 573.11,-134.9"/>
</g>
</g>
</svg>
