<?xml version="1.0" encoding="UTF-8" standalone="no"?>
<!DOCTYPE svg PUBLIC "-//W3C//DTD SVG 1.1//EN"
 "http://www.w3.org/Graphics/SVG/1.1/DTD/svg11.dtd">
<!-- Generated by graphviz version 7.1.0 (20230122.1345)
 -->
<!-- Title: FocusChunks Pages: 1 -->
<svg width="733pt" height="1435pt"
 viewBox="0.00 0.00 733.48 1435.00" xmlns="http://www.w3.org/2000/svg" xmlns:xlink="http://www.w3.org/1999/xlink">
<g id="graph0" class="graph" transform="scale(1 1) rotate(0) translate(4 1431)">
<title>FocusChunks</title>
<polygon fill="white" stroke="none" points="-4,4 -4,-1431 729.48,-1431 729.48,4 -4,4"/>
<text text-anchor="middle" x="362.74" y="-1411.8" font-family="Helvetica,sans-Serif" font-size="14.00">FocusAndSum Flowchart</text>
<!-- RunNumberList -->
<g id="node1" class="node">
<title>RunNumberList</title>
<ellipse fill="khaki" stroke="black" cx="597.49" cy="-1386" rx="80.69" ry="18"/>
<text text-anchor="middle" x="597.49" y="-1382.3" font-family="Helvetica,sans-Serif" font-size="14.00">RunNumberList</text>
</g>
<!-- getRunNumber -->
<g id="node8" class="node">
<title>getRunNumber</title>
<path fill="lightskyblue" stroke="black" d="M655.99,-1331C655.99,-1331 538.99,-1331 538.99,-1331 532.99,-1331 526.99,-1325 526.99,-1319 526.99,-1319 526.99,-1307 526.99,-1307 526.99,-1301 532.99,-1295 538.99,-1295 538.99,-1295 655.99,-1295 655.99,-1295 661.99,-1295 667.99,-1301 667.99,-1307 667.99,-1307 667.99,-1319 667.99,-1319 667.99,-1325 661.99,-1331 655.99,-1331"/>
<text text-anchor="middle" x="597.49" y="-1309.3" font-family="Helvetica,sans-Serif" font-size="14.00">Get a run number</text>
</g>
<!-- RunNumberList&#45;&gt;getRunNumber -->
<g id="edge1" class="edge">
<title>RunNumberList&#45;&gt;getRunNumber</title>
<path fill="none" stroke="black" d="M597.49,-1367.81C597.49,-1360.23 597.49,-1351.1 597.49,-1342.54"/>
<polygon fill="black" stroke="black" points="600.99,-1342.54 597.49,-1332.54 593.99,-1342.54 600.99,-1342.54"/>
</g>
<!-- FilterWall -->
<g id="node2" class="node">
<title>FilterWall</title>
<ellipse fill="khaki" stroke="black" cx="370.49" cy="-1167" rx="51.19" ry="18"/>
<text text-anchor="middle" x="370.49" y="-1163.3" font-family="Helvetica,sans-Serif" font-size="14.00">FilterWall</text>
</g>
<!-- load -->
<g id="node9" class="node">
<title>load</title>
<path fill="lightskyblue" stroke="black" d="M393.99,-1112C393.99,-1112 346.99,-1112 346.99,-1112 340.99,-1112 334.99,-1106 334.99,-1100 334.99,-1100 334.99,-1088 334.99,-1088 334.99,-1082 340.99,-1076 346.99,-1076 346.99,-1076 393.99,-1076 393.99,-1076 399.99,-1076 405.99,-1082 405.99,-1088 405.99,-1088 405.99,-1100 405.99,-1100 405.99,-1106 399.99,-1112 393.99,-1112"/>
<text text-anchor="middle" x="370.49" y="-1090.3" font-family="Helvetica,sans-Serif" font-size="14.00">Load v1</text>
</g>
<!-- FilterWall&#45;&gt;load -->
<g id="edge5" class="edge">
<title>FilterWall&#45;&gt;load</title>
<path fill="none" stroke="black" d="M370.49,-1148.81C370.49,-1141.23 370.49,-1132.1 370.49,-1123.54"/>
<polygon fill="black" stroke="black" points="373.99,-1123.54 370.49,-1113.54 366.99,-1123.54 373.99,-1123.54"/>
</g>
<!-- CalibrationFile -->
<g id="node3" class="node">
<title>CalibrationFile</title>
<ellipse fill="khaki" stroke="black" cx="441.49" cy="-934" rx="74.19" ry="18"/>
<text text-anchor="middle" x="441.49" y="-930.3" font-family="Helvetica,sans-Serif" font-size="14.00">CalibrationFile</text>
</g>
<!-- alignAndFocusPowder -->
<g id="node7" class="node">
<title>alignAndFocusPowder</title>
<path fill="lightskyblue" stroke="black" d="M428.49,-879C428.49,-879 260.49,-879 260.49,-879 254.49,-879 248.49,-873 248.49,-867 248.49,-867 248.49,-855 248.49,-855 248.49,-849 254.49,-843 260.49,-843 260.49,-843 428.49,-843 428.49,-843 434.49,-843 440.49,-849 440.49,-855 440.49,-855 440.49,-867 440.49,-867 440.49,-873 434.49,-879 428.49,-879"/>
<text text-anchor="middle" x="344.49" y="-857.3" font-family="Helvetica,sans-Serif" font-size="14.00">AlignAndFocusPowder v1</text>
</g>
<!-- CalibrationFile&#45;&gt;alignAndFocusPowder -->
<g id="edge9" class="edge">
<title>CalibrationFile&#45;&gt;alignAndFocusPowder</title>
<path fill="none" stroke="black" d="M418.99,-916.53C406.63,-907.48 391.05,-896.08 377.35,-886.05"/>
<polygon fill="black" stroke="black" points="379.58,-883.34 369.44,-880.26 375.44,-888.99 379.58,-883.34"/>
</g>
<!-- SplittersWorkspace -->
<g id="node4" class="node">
<title>SplittersWorkspace</title>
<ellipse fill="khaki" stroke="black" cx="97.49" cy="-1021" rx="97.48" ry="18"/>
<text text-anchor="middle" x="97.49" y="-1017.3" font-family="Helvetica,sans-Serif" font-size="14.00">SplittersWorkspace</text>
</g>
<!-- split -->
<g id="node10" class="node">
<title>split</title>
<path fill="lightskyblue" stroke="black" d="M282.49,-952C282.49,-952 190.49,-952 190.49,-952 184.49,-952 178.49,-946 178.49,-940 178.49,-940 178.49,-928 178.49,-928 178.49,-922 184.49,-916 190.49,-916 190.49,-916 282.49,-916 282.49,-916 288.49,-916 294.49,-922 294.49,-928 294.49,-928 294.49,-940 294.49,-940 294.49,-946 288.49,-952 282.49,-952"/>
<text text-anchor="middle" x="236.49" y="-930.3" font-family="Helvetica,sans-Serif" font-size="14.00">SplitEvents v1</text>
</g>
<!-- SplittersWorkspace&#45;&gt;split -->
<g id="edge8" class="edge">
<title>SplittersWorkspace&#45;&gt;split</title>
<path fill="none" stroke="black" d="M124.62,-1003.41C145.64,-990.56 175.01,-972.6 198.39,-958.3"/>
<polygon fill="black" stroke="black" points="200,-961.42 206.7,-953.22 196.35,-955.45 200,-961.42"/>
</g>
<!-- OutputWorkspacesList -->
<g id="node5" class="node">
<title>OutputWorkspacesList</title>
<ellipse fill="khaki" stroke="black" cx="577.49" cy="-18" rx="112.38" ry="18"/>
<text text-anchor="middle" x="577.49" y="-14.3" font-family="Helvetica,sans-Serif" font-size="14.00">OutputWorkspacesList</text>
</g>
<!-- getChunk -->
<g id="node6" class="node">
<title>getChunk</title>
<path fill="lightskyblue" stroke="black" d="M613.49,-1185C613.49,-1185 461.49,-1185 461.49,-1185 455.49,-1185 449.49,-1179 449.49,-1173 449.49,-1173 449.49,-1161 449.49,-1161 449.49,-1155 455.49,-1149 461.49,-1149 461.49,-1149 613.49,-1149 613.49,-1149 619.49,-1149 625.49,-1155 625.49,-1161 625.49,-1161 625.49,-1173 625.49,-1173 625.49,-1179 619.49,-1185 613.49,-1185"/>
<text text-anchor="middle" x="537.49" y="-1163.3" font-family="Helvetica,sans-Serif" font-size="14.00">Get a chunk to process</text>
</g>
<!-- getChunk&#45;&gt;load -->
<g id="edge4" class="edge">
<title>getChunk&#45;&gt;load</title>
<path fill="none" stroke="black" d="M496.64,-1148.63C472.47,-1138.36 441.79,-1125.31 416.74,-1114.66"/>
<polygon fill="black" stroke="black" points="418.35,-1111.54 407.78,-1110.85 415.61,-1117.99 418.35,-1111.54"/>
</g>
<!-- plusAmongChunks -->
<g id="node14" class="node">
<title>plusAmongChunks</title>
<path fill="lightskyblue" stroke="black" d="M509.49,-806C509.49,-806 271.49,-806 271.49,-806 265.49,-806 259.49,-800 259.49,-794 259.49,-794 259.49,-765 259.49,-765 259.49,-759 265.49,-753 271.49,-753 271.49,-753 509.49,-753 509.49,-753 515.49,-753 521.49,-759 521.49,-765 521.49,-765 521.49,-794 521.49,-794 521.49,-800 515.49,-806 509.49,-806"/>
<text text-anchor="middle" x="390.49" y="-790.8" font-family="Helvetica,sans-Serif" font-size="14.00">Plus v1</text>
<text text-anchor="middle" x="390.49" y="-775.8" font-family="Helvetica,sans-Serif" font-size="14.00"> workspaces from different chunks </text>
<text text-anchor="middle" x="390.49" y="-760.8" font-family="Helvetica,sans-Serif" font-size="14.00">but same time range.</text>
</g>
<!-- alignAndFocusPowder&#45;&gt;plusAmongChunks -->
<g id="edge12" class="edge">
<title>alignAndFocusPowder&#45;&gt;plusAmongChunks</title>
<path fill="none" stroke="black" d="M354.47,-842.75C358.97,-834.97 364.47,-825.47 369.8,-816.27"/>
<polygon fill="black" stroke="black" points="372.72,-818.2 374.7,-807.79 366.66,-814.7 372.72,-818.2"/>
</g>
<!-- RunNumber -->
<g id="node20" class="node">
<title>RunNumber</title>
<polygon fill="grey" stroke="black" points="624.21,-1258 491.03,-1258 456.77,-1222 589.95,-1222 624.21,-1258"/>
<text text-anchor="middle" x="540.49" y="-1236.3" font-family="Times,serif" font-size="14.00">Run Number</text>
</g>
<!-- getRunNumber&#45;&gt;RunNumber -->
<g id="edge2" class="edge">
<title>getRunNumber&#45;&gt;RunNumber</title>
<path fill="none" stroke="black" d="M583.69,-1294.81C576.97,-1286.44 568.75,-1276.2 561.29,-1266.9"/>
<polygon fill="black" stroke="black" points="564.1,-1264.82 555.11,-1259.21 558.64,-1269.2 564.1,-1264.82"/>
</g>
<!-- doSplitWorkspace -->
<g id="node16" class="node">
<title>doSplitWorkspace</title>
<polygon fill="limegreen" stroke="black" points="362.49,-1039 212.85,-1021 362.49,-1003 512.14,-1021 362.49,-1039"/>
<text text-anchor="middle" x="362.49" y="-1017.3" font-family="Helvetica,sans-Serif" font-size="14.00">Do split workspaces?</text>
</g>
<!-- load&#45;&gt;doSplitWorkspace -->
<g id="edge6" class="edge">
<title>load&#45;&gt;doSplitWorkspace</title>
<path fill="none" stroke="black" d="M368.55,-1075.81C367.69,-1068.14 366.65,-1058.89 365.67,-1050.24"/>
<polygon fill="black" stroke="black" points="369.18,-1050.08 364.58,-1040.53 362.22,-1050.86 369.18,-1050.08"/>
</g>
<!-- split&#45;&gt;alignAndFocusPowder -->
<g id="edge10" class="edge">
<title>split&#45;&gt;alignAndFocusPowder</title>
<path fill="none" stroke="black" d="M262.91,-915.63C276.64,-906.61 293.62,-895.44 308.53,-885.64"/>
<polygon fill="black" stroke="black" points="310.27,-888.68 316.71,-880.27 306.43,-882.84 310.27,-888.68"/>
</g>
<!-- gatherWorkspace -->
<g id="node11" class="node">
<title>gatherWorkspace</title>
<path fill="lightskyblue" stroke="black" d="M467.99,-528C467.99,-528 312.99,-528 312.99,-528 306.99,-528 300.99,-522 300.99,-516 300.99,-516 300.99,-504 300.99,-504 300.99,-498 306.99,-492 312.99,-492 312.99,-492 467.99,-492 467.99,-492 473.99,-492 479.99,-498 479.99,-504 479.99,-504 479.99,-516 479.99,-516 479.99,-522 473.99,-528 467.99,-528"/>
<text text-anchor="middle" x="390.49" y="-506.3" font-family="Helvetica,sans-Serif" font-size="14.00">Gather workspaces MPI</text>
</g>
<!-- setGSASParamFile -->
<g id="node15" class="node">
<title>setGSASParamFile</title>
<path fill="lightskyblue" stroke="black" d="M593.99,-455C593.99,-455 410.99,-455 410.99,-455 404.99,-455 398.99,-449 398.99,-443 398.99,-443 398.99,-431 398.99,-431 398.99,-425 404.99,-419 410.99,-419 410.99,-419 593.99,-419 593.99,-419 599.99,-419 605.99,-425 605.99,-431 605.99,-431 605.99,-443 605.99,-443 605.99,-449 599.99,-455 593.99,-455"/>
<text text-anchor="middle" x="502.49" y="-433.3" font-family="Helvetica,sans-Serif" font-size="14.00">Set GSAS iparam file to run</text>
</g>
<!-- gatherWorkspace&#45;&gt;setGSASParamFile -->
<g id="edge17" class="edge">
<title>gatherWorkspace&#45;&gt;setGSASParamFile</title>
<path fill="none" stroke="black" d="M417.89,-491.63C432.26,-482.52 450.07,-471.23 465.64,-461.36"/>
<polygon fill="black" stroke="black" points="467.14,-464.56 473.71,-456.25 463.39,-458.64 467.14,-464.56"/>
</g>
<!-- compressEvents -->
<g id="node12" class="node">
<title>compressEvents</title>
<path fill="lightskyblue" stroke="black" d="M567.99,-382C567.99,-382 436.99,-382 436.99,-382 430.99,-382 424.99,-376 424.99,-370 424.99,-370 424.99,-358 424.99,-358 424.99,-352 430.99,-346 436.99,-346 436.99,-346 567.99,-346 567.99,-346 573.99,-346 579.99,-352 579.99,-358 579.99,-358 579.99,-370 579.99,-370 579.99,-376 573.99,-382 567.99,-382"/>
<text text-anchor="middle" x="502.49" y="-360.3" font-family="Helvetica,sans-Serif" font-size="14.00">CompressEvents v1</text>
</g>
<!-- normaliseByCurrent -->
<g id="node13" class="node">
<title>normaliseByCurrent</title>
<path fill="lightskyblue" stroke="black" d="M578.99,-309C578.99,-309 425.99,-309 425.99,-309 419.99,-309 413.99,-303 413.99,-297 413.99,-297 413.99,-285 413.99,-285 413.99,-279 419.99,-273 425.99,-273 425.99,-273 578.99,-273 578.99,-273 584.99,-273 590.99,-279 590.99,-285 590.99,-285 590.99,-297 590.99,-297 590.99,-303 584.99,-309 578.99,-309"/>
<text text-anchor="middle" x="502.49" y="-287.3" font-family="Helvetica,sans-Serif" font-size="14.00">NormaliseByCurrent v1</text>
</g>
<!-- compressEvents&#45;&gt;normaliseByCurrent -->
<g id="edge20" class="edge">
<title>compressEvents&#45;&gt;normaliseByCurrent</title>
<path fill="none" stroke="black" d="M502.49,-345.81C502.49,-338.23 502.49,-329.1 502.49,-320.54"/>
<polygon fill="black" stroke="black" points="505.99,-320.54 502.49,-310.54 498.99,-320.54 505.99,-320.54"/>
</g>
<!-- RunOutputWorkspacesList -->
<g id="node21" class="node">
<title>RunOutputWorkspacesList</title>
<polygon fill="grey" stroke="black" points="625.74,-236 429.68,-236 379.24,-160 575.3,-160 625.74,-236"/>
<text text-anchor="middle" x="502.49" y="-201.8" font-family="Times,serif" font-size="14.00">OutputWorkspaces</text>
<text text-anchor="middle" x="502.49" y="-186.8" font-family="Times,serif" font-size="14.00">for a run number</text>
</g>
<!-- normaliseByCurrent&#45;&gt;RunOutputWorkspacesList -->
<g id="edge21" class="edge">
<title>normaliseByCurrent&#45;&gt;RunOutputWorkspacesList</title>
<path fill="none" stroke="black" d="M502.49,-272.88C502.49,-265.64 502.49,-256.81 502.49,-247.8"/>
<polygon fill="black" stroke="black" points="505.99,-247.91 502.49,-237.91 498.99,-247.91 505.99,-247.91"/>
</g>
<!-- allChunksProcessed -->
<g id="node19" class="node">
<title>allChunksProcessed</title>
<polygon fill="limegreen" stroke="black" points="405.49,-702 229.87,-684 405.49,-666 581.11,-684 405.49,-702"/>
<text text-anchor="middle" x="405.49" y="-680.3" font-family="Helvetica,sans-Serif" font-size="14.00">Are All Chunks Reduced?</text>
</g>
<!-- plusAmongChunks&#45;&gt;allChunksProcessed -->
<g id="edge13" class="edge">
<title>plusAmongChunks&#45;&gt;allChunksProcessed</title>
<path fill="none" stroke="black" d="M394.59,-752.95C396.56,-740.66 398.93,-725.88 400.96,-713.26"/>
<polygon fill="black" stroke="black" points="404.4,-713.88 402.53,-703.45 397.49,-712.77 404.4,-713.88"/>
</g>
<!-- setGSASParamFile&#45;&gt;compressEvents -->
<g id="edge19" class="edge">
<title>setGSASParamFile&#45;&gt;compressEvents</title>
<path fill="none" stroke="black" d="M502.49,-418.81C502.49,-411.23 502.49,-402.1 502.49,-393.54"/>
<polygon fill="black" stroke="black" points="505.99,-393.54 502.49,-383.54 498.99,-393.54 505.99,-393.54"/>
</g>
<!-- doSplitWorkspace&#45;&gt;alignAndFocusPowder -->
<g id="edge11" class="edge">
<title>doSplitWorkspace&#45;&gt;alignAndFocusPowder</title>
<path fill="none" stroke="black" d="M355.26,-1003.62C349.71,-990.08 342.49,-970.2 339.49,-952 336.89,-936.21 338.75,-931.98 339.49,-916 339.87,-907.79 340.57,-898.89 341.33,-890.73"/>
<polygon fill="black" stroke="black" points="344.8,-891.29 342.31,-880.99 337.83,-890.59 344.8,-891.29"/>
<text text-anchor="middle" x="348.99" y="-930.3" font-family="Helvetica,sans-Serif" font-size="14.00">No</text>
</g>
<!-- doSplitWorkspace&#45;&gt;split -->
<g id="edge7" class="edge">
<title>doSplitWorkspace&#45;&gt;split</title>
<path fill="none" stroke="black" d="M331.33,-1006.25C319.14,-1000.35 305.28,-992.98 293.49,-985 282.75,-977.73 271.83,-968.66 262.47,-960.24"/>
<polygon fill="black" stroke="black" points="264.86,-957.68 255.14,-953.47 260.11,-962.82 264.86,-957.68"/>
<text text-anchor="middle" x="304.99" y="-973.8" font-family="Helvetica,sans-Serif" font-size="14.00">Yes</text>
</g>
<!-- haveMPI -->
<g id="node17" class="node">
<title>haveMPI</title>
<polygon fill="limegreen" stroke="black" points="405.49,-615 323.88,-597 405.49,-579 487.1,-597 405.49,-615"/>
<text text-anchor="middle" x="405.49" y="-593.3" font-family="Helvetica,sans-Serif" font-size="14.00">Have MPI?</text>
</g>
<!-- haveMPI&#45;&gt;gatherWorkspace -->
<g id="edge16" class="edge">
<title>haveMPI&#45;&gt;gatherWorkspace</title>
<path fill="none" stroke="black" d="M402.53,-579.21C400.52,-567.83 397.82,-552.52 395.48,-539.29"/>
<polygon fill="black" stroke="black" points="399,-539.07 393.81,-529.83 392.11,-540.29 399,-539.07"/>
<text text-anchor="middle" x="409.99" y="-549.8" font-family="Helvetica,sans-Serif" font-size="14.00">Yes</text>
</g>
<!-- haveMPI&#45;&gt;setGSASParamFile -->
<g id="edge18" class="edge">
<title>haveMPI&#45;&gt;setGSASParamFile</title>
<path fill="none" stroke="black" d="M428.84,-583.73C448.43,-572.12 475.4,-552.79 489.49,-528 500.05,-509.42 503.08,-485.33 503.59,-466.75"/>
<polygon fill="black" stroke="black" points="507.09,-466.97 503.61,-456.96 500.09,-466.95 507.09,-466.97"/>
<text text-anchor="middle" x="509.99" y="-506.3" font-family="Helvetica,sans-Serif" font-size="14.00">No</text>
</g>
<!-- isLastRunNumber -->
<g id="node18" class="node">
<title>isLastRunNumber</title>
<polygon fill="limegreen" stroke="black" points="577.49,-123 429.52,-105 577.49,-87 725.46,-105 577.49,-123"/>
<text text-anchor="middle" x="577.49" y="-101.3" font-family="Helvetica,sans-Serif" font-size="14.00">Is Last Run Number?</text>
</g>
<!-- isLastRunNumber&#45;&gt;OutputWorkspacesList -->
<g id="edge24" class="edge">
<title>isLastRunNumber&#45;&gt;OutputWorkspacesList</title>
<path fill="none" stroke="black" d="M577.49,-86.8C577.49,-75.58 577.49,-60.67 577.49,-47.69"/>
<polygon fill="black" stroke="black" points="580.99,-47.98 577.49,-37.98 573.99,-47.98 580.99,-47.98"/>
<text text-anchor="middle" x="588.99" y="-57.8" font-family="Helvetica,sans-Serif" font-size="14.00">Yes</text>
</g>
<!-- isLastRunNumber&#45;&gt;getRunNumber -->
<g id="edge23" class="edge">
<title>isLastRunNumber&#45;&gt;getRunNumber</title>
<path fill="none" stroke="black" d="M601.12,-120.6C623.43,-136.41 653.49,-163.86 653.49,-197 653.49,-1241 653.49,-1241 653.49,-1241 653.49,-1258.9 642.38,-1274.94 630.06,-1287.23"/>
<polygon fill="black" stroke="black" points="628,-1284.37 623,-1293.71 632.73,-1289.52 628,-1284.37"/>
<text text-anchor="middle" x="662.99" y="-723.8" font-family="Helvetica,sans-Serif" font-size="14.00">No</text>
</g>
<!-- allChunksProcessed&#45;&gt;getChunk -->
<g id="edge14" class="edge">
<title>allChunksProcessed&#45;&gt;getChunk</title>
<path fill="none" stroke="black" d="M460.69,-696.84C502.03,-709.34 551.49,-733.65 551.49,-778.5 551.49,-1095 551.49,-1095 551.49,-1095 551.49,-1109.24 548.75,-1124.78 545.69,-1137.68"/>
<polygon fill="black" stroke="black" points="542.34,-1136.66 543.24,-1147.21 549.12,-1138.4 542.34,-1136.66"/>
<text text-anchor="middle" x="560.99" y="-930.3" font-family="Helvetica,sans-Serif" font-size="14.00">No</text>
</g>
<!-- allChunksProcessed&#45;&gt;haveMPI -->
<g id="edge15" class="edge">
<title>allChunksProcessed&#45;&gt;haveMPI</title>
<path fill="none" stroke="black" d="M405.49,-665.8C405.49,-654.58 405.49,-639.67 405.49,-626.69"/>
<polygon fill="black" stroke="black" points="408.99,-626.98 405.49,-616.98 401.99,-626.98 408.99,-626.98"/>
<text text-anchor="middle" x="416.99" y="-636.8" font-family="Helvetica,sans-Serif" font-size="14.00">Yes</text>
</g>
<!-- RunNumber&#45;&gt;getChunk -->
<g id="edge3" class="edge">
<title>RunNumber&#45;&gt;getChunk</title>
<path fill="none" stroke="black" d="M539.77,-1221.81C539.44,-1214.14 539.05,-1204.89 538.68,-1196.24"/>
<polygon fill="black" stroke="black" points="542.19,-1196.38 538.27,-1186.54 535.2,-1196.68 542.19,-1196.38"/>
</g>
<!-- RunOutputWorkspacesList&#45;&gt;isLastRunNumber -->
<g id="edge22" class="edge">
<title>RunOutputWorkspacesList&#45;&gt;isLastRunNumber</title>
<path fill="none" stroke="black" d="M533.21,-159.72C541.38,-149.82 549.99,-139.37 557.42,-130.35"/>
<polygon fill="black" stroke="black" points="560.06,-132.66 563.72,-122.71 554.65,-128.21 560.06,-132.66"/>
</g>
</g>
</svg>
