<?xml version="1.0" encoding="UTF-8" standalone="no"?>
<!DOCTYPE svg PUBLIC "-//W3C//DTD SVG 1.1//EN"
 "http://www.w3.org/Graphics/SVG/1.1/DTD/svg11.dtd">
<!-- Generated by graphviz version 11.0.0 (20240519.1550)
 -->
<!-- Title: SNSPowderReduction Pages: 1 -->
<svg width="688pt" height="1489pt"
 viewBox="0.00 0.00 687.55 1488.75" xmlns="http://www.w3.org/2000/svg" xmlns:xlink="http://www.w3.org/1999/xlink">
<g id="graph0" class="graph" transform="scale(1 1) rotate(0) translate(4 1484.75)">
<title>SNSPowderReduction</title>
<polygon fill="white" stroke="none" points="-4,4 -4,-1484.75 683.55,-1484.75 683.55,4 -4,4"/>
<text text-anchor="middle" x="339.77" y="-1463.45" font-family="Helvetica,sans-Serif" font-size="14.00">SNSPowderReduction Flowchart</text>
<!-- SampleRunList -->
<g id="node1" class="node">
<title>SampleRunList</title>
<ellipse fill="khaki" stroke="black" cx="107.92" cy="-1437.5" rx="83.3" ry="18"/>
<text text-anchor="middle" x="107.92" y="-1432.83" font-family="Helvetica,sans-Serif" font-size="14.00">SampleRunList</text>
</g>
<!-- isSum -->
<g id="node15" class="node">
<title>isSum</title>
<polygon fill="limegreen" stroke="black" points="107.92,-1383.5 2.77,-1365.5 107.92,-1347.5 213.08,-1365.5 107.92,-1383.5"/>
<text text-anchor="middle" x="107.92" y="-1360.83" font-family="Helvetica,sans-Serif" font-size="14.00">Is Sum True?</text>
</g>
<!-- SampleRunList&#45;&gt;isSum -->
<g id="edge1" class="edge">
<title>SampleRunList&#45;&gt;isSum</title>
<path fill="none" stroke="black" d="M107.92,-1419.2C107.92,-1411.91 107.92,-1403.23 107.92,-1395.04"/>
<polygon fill="black" stroke="black" points="111.42,-1395.12 107.92,-1385.12 104.42,-1395.12 111.42,-1395.12"/>
</g>
<!-- TimeFilterWall -->
<g id="node2" class="node">
<title>TimeFilterWall</title>
<ellipse fill="khaki" stroke="black" cx="387.92" cy="-1276.25" rx="78.57" ry="18"/>
<text text-anchor="middle" x="387.92" y="-1271.58" font-family="Helvetica,sans-Serif" font-size="14.00">TimeFilterWall</text>
</g>
<!-- focusAndSum -->
<g id="node5" class="node">
<title>focusAndSum</title>
<path fill="lightskyblue" stroke="black" d="M261.17,-1221.25C261.17,-1221.25 162.67,-1221.25 162.67,-1221.25 156.67,-1221.25 150.67,-1215.25 150.67,-1209.25 150.67,-1209.25 150.67,-1197.25 150.67,-1197.25 150.67,-1191.25 156.67,-1185.25 162.67,-1185.25 162.67,-1185.25 261.17,-1185.25 261.17,-1185.25 267.17,-1185.25 273.17,-1191.25 273.17,-1197.25 273.17,-1197.25 273.17,-1209.25 273.17,-1209.25 273.17,-1215.25 267.17,-1221.25 261.17,-1221.25"/>
<text text-anchor="middle" x="211.92" y="-1198.58" font-family="Helvetica,sans-Serif" font-size="14.00">Focus and Sum</text>
</g>
<!-- TimeFilterWall&#45;&gt;focusAndSum -->
<g id="edge3" class="edge">
<title>TimeFilterWall&#45;&gt;focusAndSum</title>
<path fill="none" stroke="black" d="M350.17,-1260.02C325.55,-1250.09 293.06,-1236.98 265.76,-1225.97"/>
<polygon fill="black" stroke="black" points="267.18,-1222.77 256.59,-1222.27 264.56,-1229.26 267.18,-1222.77"/>
</g>
<!-- focusChunks -->
<g id="node6" class="node">
<title>focusChunks</title>
<path fill="lightskyblue" stroke="black" d="M446.17,-1221.25C446.17,-1221.25 359.67,-1221.25 359.67,-1221.25 353.67,-1221.25 347.67,-1215.25 347.67,-1209.25 347.67,-1209.25 347.67,-1197.25 347.67,-1197.25 347.67,-1191.25 353.67,-1185.25 359.67,-1185.25 359.67,-1185.25 446.17,-1185.25 446.17,-1185.25 452.17,-1185.25 458.17,-1191.25 458.17,-1197.25 458.17,-1197.25 458.17,-1209.25 458.17,-1209.25 458.17,-1215.25 452.17,-1221.25 446.17,-1221.25"/>
<text text-anchor="middle" x="402.92" y="-1198.58" font-family="Helvetica,sans-Serif" font-size="14.00">Focus chunks</text>
</g>
<!-- TimeFilterWall&#45;&gt;focusChunks -->
<g id="edge8" class="edge">
<title>TimeFilterWall&#45;&gt;focusChunks</title>
<path fill="none" stroke="black" d="M391.55,-1258.06C393.17,-1250.39 395.13,-1241.14 396.95,-1232.49"/>
<polygon fill="black" stroke="black" points="400.37,-1233.27 399.01,-1222.76 393.52,-1231.82 400.37,-1233.27"/>
</g>
<!-- CalibrationFile -->
<g id="node3" class="node">
<title>CalibrationFile</title>
<ellipse fill="khaki" stroke="black" cx="211.92" cy="-1276.25" rx="79.62" ry="18"/>
<text text-anchor="middle" x="211.92" y="-1271.58" font-family="Helvetica,sans-Serif" font-size="14.00">CalibrationFile</text>
</g>
<!-- CalibrationFile&#45;&gt;focusAndSum -->
<g id="edge4" class="edge">
<title>CalibrationFile&#45;&gt;focusAndSum</title>
<path fill="none" stroke="black" d="M211.92,-1258.06C211.92,-1250.48 211.92,-1241.35 211.92,-1232.79"/>
<polygon fill="black" stroke="black" points="215.42,-1232.79 211.92,-1222.79 208.42,-1232.79 215.42,-1232.79"/>
</g>
<!-- CalibrationFile&#45;&gt;focusChunks -->
<g id="edge9" class="edge">
<title>CalibrationFile&#45;&gt;focusChunks</title>
<path fill="none" stroke="black" d="M247.25,-1259.76C262.7,-1253.17 281.1,-1245.56 297.92,-1239.25 310.5,-1234.53 324.04,-1229.77 337.08,-1225.36"/>
<polygon fill="black" stroke="black" points="338.08,-1228.72 346.45,-1222.22 335.85,-1222.08 338.08,-1228.72"/>
</g>
<!-- OutputWorkspaces -->
<g id="node4" class="node">
<title>OutputWorkspaces</title>
<ellipse fill="khaki" stroke="black" cx="226.92" cy="-18" rx="103.82" ry="18"/>
<text text-anchor="middle" x="226.92" y="-13.32" font-family="Helvetica,sans-Serif" font-size="14.00">OutputWorkspaces</text>
</g>
<!-- SamRunList -->
<g id="node21" class="node">
<title>SamRunList</title>
<polygon fill="grey" stroke="black" points="344.82,-932.75 158.86,-932.75 111.03,-859.75 296.98,-859.75 344.82,-932.75"/>
<text text-anchor="middle" x="227.92" y="-897.2" font-family="Times,serif" font-size="14.00">Processed</text>
<text text-anchor="middle" x="227.92" y="-882.95" font-family="Times,serif" font-size="14.00">Sample Runs List</text>
</g>
<!-- focusAndSum&#45;&gt;SamRunList -->
<g id="edge5" class="edge">
<title>focusAndSum&#45;&gt;SamRunList</title>
<path fill="none" stroke="black" d="M212.83,-1184.98C215.23,-1139.23 221.81,-1013.72 225.44,-944.55"/>
<polygon fill="black" stroke="black" points="228.93,-944.82 225.96,-934.65 221.94,-944.45 228.93,-944.82"/>
</g>
<!-- SamRun -->
<g id="node20" class="node">
<title>SamRun</title>
<polygon fill="grey" stroke="black" points="504.49,-1132 389.05,-1132 359.35,-1059 474.8,-1059 504.49,-1132"/>
<text text-anchor="middle" x="431.92" y="-1096.45" font-family="Times,serif" font-size="14.00">Processed</text>
<text text-anchor="middle" x="431.92" y="-1082.2" font-family="Times,serif" font-size="14.00">Sample</text>
</g>
<!-- focusChunks&#45;&gt;SamRun -->
<g id="edge10" class="edge">
<title>focusChunks&#45;&gt;SamRun</title>
<path fill="none" stroke="black" d="M407.71,-1184.79C410.81,-1173.47 415.01,-1158.16 419.04,-1143.46"/>
<polygon fill="black" stroke="black" points="422.4,-1144.45 421.67,-1133.88 415.65,-1142.6 422.4,-1144.45"/>
</g>
<!-- getSampleRun -->
<g id="node7" class="node">
<title>getSampleRun</title>
<path fill="lightskyblue" stroke="black" d="M667.55,-1294.25C667.55,-1294.25 496.3,-1294.25 496.3,-1294.25 490.3,-1294.25 484.3,-1288.25 484.3,-1282.25 484.3,-1282.25 484.3,-1270.25 484.3,-1270.25 484.3,-1264.25 490.3,-1258.25 496.3,-1258.25 496.3,-1258.25 667.55,-1258.25 667.55,-1258.25 673.55,-1258.25 679.55,-1264.25 679.55,-1270.25 679.55,-1270.25 679.55,-1282.25 679.55,-1282.25 679.55,-1288.25 673.55,-1294.25 667.55,-1294.25"/>
<text text-anchor="middle" x="581.92" y="-1271.58" font-family="Helvetica,sans-Serif" font-size="14.00">Get a sample run number</text>
</g>
<!-- getSampleRun&#45;&gt;focusChunks -->
<g id="edge7" class="edge">
<title>getSampleRun&#45;&gt;focusChunks</title>
<path fill="none" stroke="black" d="M538.13,-1257.88C513.75,-1248.21 483.19,-1236.09 457.29,-1225.81"/>
<polygon fill="black" stroke="black" points="458.87,-1222.68 448.29,-1222.24 456.29,-1229.18 458.87,-1222.68"/>
</g>
<!-- getProcessedSam -->
<g id="node8" class="node">
<title>getProcessedSam</title>
<path fill="lightskyblue" stroke="black" d="M360.8,-823.75C360.8,-823.75 95.05,-823.75 95.05,-823.75 89.05,-823.75 83.05,-817.75 83.05,-811.75 83.05,-811.75 83.05,-799.75 83.05,-799.75 83.05,-793.75 89.05,-787.75 95.05,-787.75 95.05,-787.75 360.8,-787.75 360.8,-787.75 366.8,-787.75 372.8,-793.75 372.8,-799.75 372.8,-799.75 372.8,-811.75 372.8,-811.75 372.8,-817.75 366.8,-823.75 360.8,-823.75"/>
<text text-anchor="middle" x="227.92" y="-801.08" font-family="Helvetica,sans-Serif" font-size="14.00">Get a processed sample run workspace</text>
</g>
<!-- isCanRunDefined -->
<g id="node17" class="node">
<title>isCanRunDefined</title>
<polygon fill="limegreen" stroke="black" points="227.92,-751.75 29.02,-733.75 227.92,-715.75 426.83,-733.75 227.92,-751.75"/>
<text text-anchor="middle" x="227.92" y="-729.08" font-family="Helvetica,sans-Serif" font-size="14.00">Is container run specified?</text>
</g>
<!-- getProcessedSam&#45;&gt;isCanRunDefined -->
<g id="edge15" class="edge">
<title>getProcessedSam&#45;&gt;isCanRunDefined</title>
<path fill="none" stroke="black" d="M227.92,-787.45C227.92,-780.16 227.92,-771.48 227.92,-763.29"/>
<polygon fill="black" stroke="black" points="231.42,-763.37 227.92,-753.37 224.42,-763.37 231.42,-763.37"/>
</g>
<!-- compressEvents -->
<g id="node9" class="node">
<title>compressEvents</title>
<path fill="lightskyblue" stroke="black" d="M292.92,-414.25C292.92,-414.25 162.92,-414.25 162.92,-414.25 156.92,-414.25 150.92,-408.25 150.92,-402.25 150.92,-402.25 150.92,-390.25 150.92,-390.25 150.92,-384.25 156.92,-378.25 162.92,-378.25 162.92,-378.25 292.92,-378.25 292.92,-378.25 298.92,-378.25 304.92,-384.25 304.92,-390.25 304.92,-390.25 304.92,-402.25 304.92,-402.25 304.92,-408.25 298.92,-414.25 292.92,-414.25"/>
<text text-anchor="middle" x="227.92" y="-391.57" font-family="Helvetica,sans-Serif" font-size="14.00">CompressEvents v1</text>
</g>
<!-- mustDataPositive -->
<g id="node19" class="node">
<title>mustDataPositive</title>
<polygon fill="limegreen" stroke="black" points="227.92,-342.25 0,-324.25 227.92,-306.25 455.84,-324.25 227.92,-342.25"/>
<text text-anchor="middle" x="227.92" y="-319.57" font-family="Helvetica,sans-Serif" font-size="14.00">Does data have to be positive?</text>
</g>
<!-- compressEvents&#45;&gt;mustDataPositive -->
<g id="edge22" class="edge">
<title>compressEvents&#45;&gt;mustDataPositive</title>
<path fill="none" stroke="black" d="M227.92,-377.95C227.92,-370.66 227.92,-361.98 227.92,-353.79"/>
<polygon fill="black" stroke="black" points="231.42,-353.87 227.92,-343.87 224.42,-353.87 231.42,-353.87"/>
</g>
<!-- processCanRun -->
<g id="node10" class="node">
<title>processCanRun</title>
<path fill="lightskyblue" stroke="black" d="M579.05,-662.5C579.05,-662.5 260.8,-662.5 260.8,-662.5 254.8,-662.5 248.8,-656.5 248.8,-650.5 248.8,-650.5 248.8,-632 248.8,-632 248.8,-626 254.8,-620 260.8,-620 260.8,-620 579.05,-620 579.05,-620 585.05,-620 591.05,-626 591.05,-632 591.05,-632 591.05,-650.5 591.05,-650.5 591.05,-656.5 585.05,-662.5 579.05,-662.5"/>
<text text-anchor="middle" x="419.92" y="-645.2" font-family="Helvetica,sans-Serif" font-size="14.00">Process Container Run</text>
<text text-anchor="middle" x="419.92" y="-627.95" font-family="Helvetica,sans-Serif" font-size="14.00">(see workflow diagram &#39;Process Container Run&#39;</text>
</g>
<!-- isVanRunDefined -->
<g id="node18" class="node">
<title>isVanRunDefined</title>
<polygon fill="limegreen" stroke="black" points="227.92,-583 25.3,-565 227.92,-547 430.55,-565 227.92,-583"/>
<text text-anchor="middle" x="227.92" y="-560.33" font-family="Helvetica,sans-Serif" font-size="14.00">Is Vanadium run specified?</text>
</g>
<!-- processCanRun&#45;&gt;isVanRunDefined -->
<g id="edge18" class="edge">
<title>processCanRun&#45;&gt;isVanRunDefined</title>
<path fill="none" stroke="black" d="M366.44,-619.57C337.84,-608.51 302.92,-595 275.3,-584.32"/>
<polygon fill="black" stroke="black" points="276.72,-581.12 266.13,-580.78 274.2,-587.65 276.72,-581.12"/>
</g>
<!-- processVanRun -->
<g id="node11" class="node">
<title>processVanRun</title>
<path fill="lightskyblue" stroke="black" d="M580.8,-493.75C580.8,-493.75 261.05,-493.75 261.05,-493.75 255.05,-493.75 249.05,-487.75 249.05,-481.75 249.05,-481.75 249.05,-463.25 249.05,-463.25 249.05,-457.25 255.05,-451.25 261.05,-451.25 261.05,-451.25 580.8,-451.25 580.8,-451.25 586.8,-451.25 592.8,-457.25 592.8,-463.25 592.8,-463.25 592.8,-481.75 592.8,-481.75 592.8,-487.75 586.8,-493.75 580.8,-493.75"/>
<text text-anchor="middle" x="420.92" y="-476.45" font-family="Helvetica,sans-Serif" font-size="14.00">Process Vanadium Run</text>
<text text-anchor="middle" x="420.92" y="-459.2" font-family="Helvetica,sans-Serif" font-size="14.00">(see workflow diagram &#39;Process Vanadium Run&#39;</text>
</g>
<!-- processVanRun&#45;&gt;compressEvents -->
<g id="edge21" class="edge">
<title>processVanRun&#45;&gt;compressEvents</title>
<path fill="none" stroke="black" d="M367.16,-450.82C341.18,-440.82 310.03,-428.84 283.78,-418.74"/>
<polygon fill="black" stroke="black" points="285.24,-415.55 274.65,-415.23 282.72,-422.08 285.24,-415.55"/>
</g>
<!-- resetNegatives -->
<g id="node12" class="node">
<title>resetNegatives</title>
<path fill="lightskyblue" stroke="black" d="M233.42,-253C233.42,-253 112.42,-253 112.42,-253 106.42,-253 100.42,-247 100.42,-241 100.42,-241 100.42,-229 100.42,-229 100.42,-223 106.42,-217 112.42,-217 112.42,-217 233.42,-217 233.42,-217 239.42,-217 245.42,-223 245.42,-229 245.42,-229 245.42,-241 245.42,-241 245.42,-247 239.42,-253 233.42,-253"/>
<text text-anchor="middle" x="172.92" y="-230.32" font-family="Helvetica,sans-Serif" font-size="14.00">ResetNegatives v1</text>
</g>
<!-- scale -->
<g id="node13" class="node">
<title>scale</title>
<path fill="lightskyblue" stroke="black" d="M252.17,-180C252.17,-180 201.67,-180 201.67,-180 195.67,-180 189.67,-174 189.67,-168 189.67,-168 189.67,-156 189.67,-156 189.67,-150 195.67,-144 201.67,-144 201.67,-144 252.17,-144 252.17,-144 258.17,-144 264.17,-150 264.17,-156 264.17,-156 264.17,-168 264.17,-168 264.17,-174 258.17,-180 252.17,-180"/>
<text text-anchor="middle" x="226.92" y="-157.32" font-family="Helvetica,sans-Serif" font-size="14.00">Scale v1</text>
</g>
<!-- resetNegatives&#45;&gt;scale -->
<g id="edge24" class="edge">
<title>resetNegatives&#45;&gt;scale</title>
<path fill="none" stroke="black" d="M185.99,-216.81C192.36,-208.44 200.15,-198.2 207.22,-188.9"/>
<polygon fill="black" stroke="black" points="209.79,-191.31 213.05,-181.23 204.21,-187.07 209.79,-191.31"/>
</g>
<!-- convertUnits -->
<g id="node14" class="node">
<title>convertUnits</title>
<path fill="lightskyblue" stroke="black" d="M279.17,-108C279.17,-108 174.67,-108 174.67,-108 168.67,-108 162.67,-102 162.67,-96 162.67,-96 162.67,-84 162.67,-84 162.67,-78 168.67,-72 174.67,-72 174.67,-72 279.17,-72 279.17,-72 285.17,-72 291.17,-78 291.17,-84 291.17,-84 291.17,-96 291.17,-96 291.17,-102 285.17,-108 279.17,-108"/>
<text text-anchor="middle" x="226.92" y="-85.33" font-family="Helvetica,sans-Serif" font-size="14.00">ConvertUnits v1</text>
</g>
<!-- scale&#45;&gt;convertUnits -->
<g id="edge26" class="edge">
<title>scale&#45;&gt;convertUnits</title>
<path fill="none" stroke="black" d="M226.92,-143.7C226.92,-136.41 226.92,-127.73 226.92,-119.54"/>
<polygon fill="black" stroke="black" points="230.42,-119.62 226.92,-109.62 223.42,-119.62 230.42,-119.62"/>
</g>
<!-- convertUnits&#45;&gt;OutputWorkspaces -->
<g id="edge27" class="edge">
<title>convertUnits&#45;&gt;OutputWorkspaces</title>
<path fill="none" stroke="black" d="M226.92,-71.7C226.92,-64.41 226.92,-55.73 226.92,-47.54"/>
<polygon fill="black" stroke="black" points="230.42,-47.62 226.92,-37.62 223.42,-47.62 230.42,-47.62"/>
</g>
<!-- isSum&#45;&gt;focusAndSum -->
<g id="edge2" class="edge">
<title>isSum&#45;&gt;focusAndSum</title>
<path fill="none" stroke="black" d="M101.25,-1348.31C93.28,-1326.16 83.04,-1285.98 100.42,-1258.25 109.7,-1243.45 124.31,-1232.61 139.94,-1224.7"/>
<polygon fill="black" stroke="black" points="141.32,-1227.91 148.94,-1220.55 138.39,-1221.56 141.32,-1227.91"/>
<text text-anchor="middle" x="112.17" y="-1271.58" font-family="Helvetica,sans-Serif" font-size="14.00">Yes</text>
</g>
<!-- isSum&#45;&gt;getSampleRun -->
<g id="edge6" class="edge">
<title>isSum&#45;&gt;getSampleRun</title>
<path fill="none" stroke="black" d="M156.86,-1355.49C231.68,-1341.72 376.29,-1315.1 475.89,-1296.77"/>
<polygon fill="black" stroke="black" points="476.51,-1300.21 485.72,-1294.96 475.25,-1293.33 476.51,-1300.21"/>
<text text-anchor="middle" x="396.3" y="-1316.2" font-family="Helvetica,sans-Serif" font-size="14.00">No</text>
</g>
<!-- isLastSampleRun -->
<g id="node16" class="node">
<title>isLastSampleRun</title>
<polygon fill="limegreen" stroke="black" points="454.92,-1022 239.65,-1004 454.92,-986 670.19,-1004 454.92,-1022"/>
<text text-anchor="middle" x="454.92" y="-999.33" font-family="Helvetica,sans-Serif" font-size="14.00">Is Last Sample Run Number?</text>
</g>
<!-- isLastSampleRun&#45;&gt;getSampleRun -->
<g id="edge12" class="edge">
<title>isLastSampleRun&#45;&gt;getSampleRun</title>
<path fill="none" stroke="black" d="M476.97,-1020.53C489.39,-1030.3 504.3,-1043.89 513.92,-1059 552.39,-1119.4 570.53,-1203.19 577.8,-1246.61"/>
<polygon fill="black" stroke="black" points="574.35,-1247.16 579.37,-1256.48 581.26,-1246.06 574.35,-1247.16"/>
<text text-anchor="middle" x="568.3" y="-1153.95" font-family="Helvetica,sans-Serif" font-size="14.00">No</text>
</g>
<!-- isLastSampleRun&#45;&gt;SamRunList -->
<g id="edge13" class="edge">
<title>isLastSampleRun&#45;&gt;SamRunList</title>
<path fill="none" stroke="black" d="M423.36,-988.3C395.4,-975.27 353.24,-955.63 315.23,-937.92"/>
<polygon fill="black" stroke="black" points="317.06,-934.92 306.52,-933.87 314.11,-941.26 317.06,-934.92"/>
<text text-anchor="middle" x="386.17" y="-954.7" font-family="Helvetica,sans-Serif" font-size="14.00">Yes</text>
</g>
<!-- isCanRunDefined&#45;&gt;processCanRun -->
<g id="edge17" class="edge">
<title>isCanRunDefined&#45;&gt;processCanRun</title>
<path fill="none" stroke="black" d="M258.77,-718.21C287.49,-704.67 330.95,-684.19 365.5,-667.9"/>
<polygon fill="black" stroke="black" points="366.99,-671.07 374.54,-663.64 364.01,-664.74 366.99,-671.07"/>
<text text-anchor="middle" x="346.17" y="-684.45" font-family="Helvetica,sans-Serif" font-size="14.00">Yes</text>
</g>
<!-- isCanRunDefined&#45;&gt;isVanRunDefined -->
<g id="edge16" class="edge">
<title>isCanRunDefined&#45;&gt;isVanRunDefined</title>
<path fill="none" stroke="black" d="M225.59,-715.56C222.89,-693.45 219.06,-653.86 221.17,-620 221.69,-611.64 222.66,-602.59 223.71,-594.33"/>
<polygon fill="black" stroke="black" points="227.17,-594.85 225.05,-584.47 220.23,-593.91 227.17,-594.85"/>
<text text-anchor="middle" x="231.3" y="-636.58" font-family="Helvetica,sans-Serif" font-size="14.00">No</text>
</g>
<!-- isVanRunDefined&#45;&gt;compressEvents -->
<g id="edge19" class="edge">
<title>isVanRunDefined&#45;&gt;compressEvents</title>
<path fill="none" stroke="black" d="M225.59,-546.81C222.89,-524.7 219.06,-485.11 221.17,-451.25 221.68,-443.01 222.63,-434.11 223.66,-425.96"/>
<polygon fill="black" stroke="black" points="227.11,-426.59 224.98,-416.21 220.17,-425.65 227.11,-426.59"/>
<text text-anchor="middle" x="231.3" y="-467.82" font-family="Helvetica,sans-Serif" font-size="14.00">No</text>
</g>
<!-- isVanRunDefined&#45;&gt;processVanRun -->
<g id="edge20" class="edge">
<title>isVanRunDefined&#45;&gt;processVanRun</title>
<path fill="none" stroke="black" d="M258.93,-549.46C287.93,-535.86 331.86,-515.26 366.67,-498.94"/>
<polygon fill="black" stroke="black" points="367.74,-502.3 375.31,-494.89 364.77,-495.96 367.74,-502.3"/>
<text text-anchor="middle" x="347.17" y="-515.7" font-family="Helvetica,sans-Serif" font-size="14.00">Yes</text>
</g>
<!-- mustDataPositive&#45;&gt;resetNegatives -->
<g id="edge23" class="edge">
<title>mustDataPositive&#45;&gt;resetNegatives</title>
<path fill="none" stroke="black" d="M217.58,-306.84C209.74,-294.41 198.81,-277.06 189.72,-262.65"/>
<polygon fill="black" stroke="black" points="192.89,-261.11 184.59,-254.51 186.96,-264.84 192.89,-261.11"/>
<text text-anchor="middle" x="217.17" y="-274.95" font-family="Helvetica,sans-Serif" font-size="14.00">Yes</text>
</g>
<!-- mustDataPositive&#45;&gt;scale -->
<g id="edge25" class="edge">
<title>mustDataPositive&#45;&gt;scale</title>
<path fill="none" stroke="black" d="M236.91,-306.71C247.11,-285.82 261.43,-248.79 253.92,-217 251.75,-207.82 247.77,-198.42 243.52,-190.09"/>
<polygon fill="black" stroke="black" points="246.71,-188.62 238.84,-181.53 240.57,-191.99 246.71,-188.62"/>
<text text-anchor="middle" x="266.3" y="-230.32" font-family="Helvetica,sans-Serif" font-size="14.00">No</text>
</g>
<!-- SamRun&#45;&gt;isLastSampleRun -->
<g id="edge11" class="edge">
<title>SamRun&#45;&gt;isLastSampleRun</title>
<path fill="none" stroke="black" d="M441.14,-1058.61C443.33,-1050.12 445.62,-1041.18 447.7,-1033.09"/>
<polygon fill="black" stroke="black" points="451.08,-1034.01 450.18,-1023.45 444.3,-1032.27 451.08,-1034.01"/>
</g>
<!-- SamRunList&#45;&gt;getProcessedSam -->
<g id="edge14" class="edge">
<title>SamRunList&#45;&gt;getProcessedSam</title>
<path fill="none" stroke="black" d="M227.92,-859.25C227.92,-851.21 227.92,-842.8 227.92,-835.12"/>
<polygon fill="black" stroke="black" points="231.42,-835.33 227.92,-825.33 224.42,-835.33 231.42,-835.33"/>
</g>
</g>
</svg>
