<?xml version="1.0" encoding="UTF-8" standalone="no"?>
<!DOCTYPE svg PUBLIC "-//W3C//DTD SVG 1.1//EN"
 "http://www.w3.org/Graphics/SVG/1.1/DTD/svg11.dtd">
<!-- Generated by graphviz version 13.1.2 (20250809.0930)
 -->
<!-- Title: LoadAndSum Pages: 1 -->
<svg width="354pt" height="603pt"
 viewBox="0.00 0.00 354.00 603.00" xmlns="http://www.w3.org/2000/svg" xmlns:xlink="http://www.w3.org/1999/xlink">
<g id="graph0" class="graph" transform="scale(1 1) rotate(0) translate(4 599)">
<title>LoadAndSum</title>
<polygon fill="white" stroke="none" points="-4,4 -4,-599 350.1,-599 350.1,4 -4,4"/>
<text xml:space="preserve" text-anchor="middle" x="173.05" y="-577.7" font-family="Helvetica,sans-Serif" font-size="14.00">SNSPowderReduction Load And Sum Flowchart</text>
<!-- RunNumberList -->
<g id="node1" class="node">
<title>RunNumberList</title>
<ellipse fill="khaki" stroke="black" cx="188.62" cy="-551.75" rx="86.46" ry="18"/>
<text xml:space="preserve" text-anchor="middle" x="188.62" y="-547.08" font-family="Helvetica,sans-Serif" font-size="14.00">RunNumberList</text>
</g>
<!-- getRunNumber -->
<g id="node3" class="node">
<title>getRunNumber</title>
<path fill="lightskyblue" stroke="black" d="M246.88,-496.75C246.88,-496.75 130.38,-496.75 130.38,-496.75 124.38,-496.75 118.38,-490.75 118.38,-484.75 118.38,-484.75 118.38,-472.75 118.38,-472.75 118.38,-466.75 124.38,-460.75 130.38,-460.75 130.38,-460.75 246.88,-460.75 246.88,-460.75 252.88,-460.75 258.88,-466.75 258.88,-472.75 258.88,-472.75 258.88,-484.75 258.88,-484.75 258.88,-490.75 252.88,-496.75 246.88,-496.75"/>
<text xml:space="preserve" text-anchor="middle" x="188.62" y="-474.07" font-family="Helvetica,sans-Serif" font-size="14.00">Get a run number</text>
</g>
<!-- RunNumberList&#45;&gt;getRunNumber -->
<g id="edge1" class="edge">
<title>RunNumberList&#45;&gt;getRunNumber</title>
<path fill="none" stroke="black" d="M188.62,-533.56C188.62,-525.98 188.62,-516.85 188.62,-508.29"/>
<polygon fill="black" stroke="black" points="192.13,-508.29 188.63,-498.29 185.13,-508.29 192.13,-508.29"/>
</g>
<!-- OutputWorkspace -->
<g id="node2" class="node">
<title>OutputWorkspace</title>
<ellipse fill="khaki" stroke="black" cx="186.62" cy="-18" rx="98.56" ry="18"/>
<text xml:space="preserve" text-anchor="middle" x="186.62" y="-13.32" font-family="Helvetica,sans-Serif" font-size="14.00">OutputWorkspace</text>
</g>
<!-- RunNumber -->
<g id="node8" class="node">
<title>RunNumber</title>
<polygon fill="grey" stroke="black" points="207.99,-423.75 78.56,-423.75 45.26,-387.75 174.69,-387.75 207.99,-423.75"/>
<text xml:space="preserve" text-anchor="middle" x="126.62" y="-399.57" font-family="Times,serif" font-size="14.00">Run Number</text>
</g>
<!-- getRunNumber&#45;&gt;RunNumber -->
<g id="edge2" class="edge">
<title>getRunNumber&#45;&gt;RunNumber</title>
<path fill="none" stroke="black" d="M173.62,-460.56C166.23,-452.1 157.17,-441.73 148.99,-432.36"/>
<polygon fill="black" stroke="black" points="151.7,-430.15 142.49,-424.92 146.43,-434.75 151.7,-430.15"/>
</g>
<!-- loadAndCompress -->
<g id="node4" class="node">
<title>loadAndCompress</title>
<path fill="lightskyblue" stroke="black" d="M195.25,-350.75C195.25,-350.75 12,-350.75 12,-350.75 6,-350.75 0,-344.75 0,-338.75 0,-338.75 0,-326.75 0,-326.75 0,-320.75 6,-314.75 12,-314.75 12,-314.75 195.25,-314.75 195.25,-314.75 201.25,-314.75 207.25,-320.75 207.25,-326.75 207.25,-326.75 207.25,-338.75 207.25,-338.75 207.25,-344.75 201.25,-350.75 195.25,-350.75"/>
<text xml:space="preserve" text-anchor="middle" x="103.62" y="-328.07" font-family="Helvetica,sans-Serif" font-size="14.00">LoadEventAndCompress v1</text>
</g>
<!-- plus -->
<g id="node5" class="node">
<title>plus</title>
<path fill="lightskyblue" stroke="black" d="M195.38,-277.75C195.38,-277.75 63.88,-277.75 63.88,-277.75 57.88,-277.75 51.88,-271.75 51.88,-265.75 51.88,-265.75 51.88,-247.25 51.88,-247.25 51.88,-241.25 57.88,-235.25 63.88,-235.25 63.88,-235.25 195.38,-235.25 195.38,-235.25 201.38,-235.25 207.38,-241.25 207.38,-247.25 207.38,-247.25 207.38,-265.75 207.38,-265.75 207.38,-271.75 201.38,-277.75 195.38,-277.75"/>
<text xml:space="preserve" text-anchor="middle" x="129.62" y="-260.45" font-family="Helvetica,sans-Serif" font-size="14.00">Plus v1</text>
<text xml:space="preserve" text-anchor="middle" x="129.62" y="-243.2" font-family="Helvetica,sans-Serif" font-size="14.00">summed workspace</text>
</g>
<!-- loadAndCompress&#45;&gt;plus -->
<g id="edge4" class="edge">
<title>loadAndCompress&#45;&gt;plus</title>
<path fill="none" stroke="black" d="M109.66,-314.53C112.33,-306.88 115.57,-297.63 118.66,-288.82"/>
<polygon fill="black" stroke="black" points="121.92,-290.08 121.93,-279.49 115.32,-287.77 121.92,-290.08"/>
</g>
<!-- isLastRunNumber -->
<g id="node7" class="node">
<title>isLastRunNumber</title>
<polygon fill="limegreen" stroke="black" points="186.62,-198.25 27.15,-180.25 186.62,-162.25 346.1,-180.25 186.62,-198.25"/>
<text xml:space="preserve" text-anchor="middle" x="186.62" y="-175.57" font-family="Helvetica,sans-Serif" font-size="14.00">Is Last Run Number?</text>
</g>
<!-- plus&#45;&gt;isLastRunNumber -->
<g id="edge5" class="edge">
<title>plus&#45;&gt;isLastRunNumber</title>
<path fill="none" stroke="black" d="M145.5,-234.82C152.25,-226.03 160.18,-215.7 167.27,-206.46"/>
<polygon fill="black" stroke="black" points="170.03,-208.62 173.34,-198.55 164.48,-204.35 170.03,-208.62"/>
</g>
<!-- normaliseByCurrent -->
<g id="node6" class="node">
<title>normaliseByCurrent</title>
<path fill="lightskyblue" stroke="black" d="M262.88,-109C262.88,-109 110.38,-109 110.38,-109 104.38,-109 98.38,-103 98.38,-97 98.38,-97 98.38,-85 98.38,-85 98.38,-79 104.38,-73 110.38,-73 110.38,-73 262.88,-73 262.88,-73 268.88,-73 274.88,-79 274.88,-85 274.88,-85 274.88,-97 274.88,-97 274.88,-103 268.88,-109 262.88,-109"/>
<text xml:space="preserve" text-anchor="middle" x="186.62" y="-86.33" font-family="Helvetica,sans-Serif" font-size="14.00">NormaliseByCurrent v1</text>
</g>
<!-- normaliseByCurrent&#45;&gt;OutputWorkspace -->
<g id="edge8" class="edge">
<title>normaliseByCurrent&#45;&gt;OutputWorkspace</title>
<path fill="none" stroke="black" d="M186.62,-72.81C186.62,-65.23 186.62,-56.1 186.62,-47.54"/>
<polygon fill="black" stroke="black" points="190.13,-47.54 186.63,-37.54 183.13,-47.54 190.13,-47.54"/>
</g>
<!-- isLastRunNumber&#45;&gt;getRunNumber -->
<g id="edge6" class="edge">
<title>isLastRunNumber&#45;&gt;getRunNumber</title>
<path fill="none" stroke="black" d="M207.53,-196.09C223.79,-209.54 243.62,-230.96 243.62,-255.5 243.62,-406.75 243.62,-406.75 243.62,-406.75 243.62,-424.36 232.92,-440.25 220.96,-452.51"/>
<polygon fill="black" stroke="black" points="218.57,-449.95 213.69,-459.36 223.37,-455.05 218.57,-449.95"/>
<text xml:space="preserve" text-anchor="middle" x="253" y="-328.07" font-family="Helvetica,sans-Serif" font-size="14.00">No</text>
</g>
<!-- isLastRunNumber&#45;&gt;normaliseByCurrent -->
<g id="edge7" class="edge">
<title>isLastRunNumber&#45;&gt;normaliseByCurrent</title>
<path fill="none" stroke="black" d="M186.62,-162.01C186.62,-150.18 186.62,-134.2 186.62,-120.5"/>
<polygon fill="black" stroke="black" points="190.13,-120.72 186.63,-110.72 183.13,-120.72 190.13,-120.72"/>
<text xml:space="preserve" text-anchor="middle" x="197.88" y="-130.95" font-family="Helvetica,sans-Serif" font-size="14.00">Yes</text>
</g>
<!-- RunNumber&#45;&gt;loadAndCompress -->
<g id="edge3" class="edge">
<title>RunNumber&#45;&gt;loadAndCompress</title>
<path fill="none" stroke="black" d="M121.06,-387.56C118.54,-379.8 115.51,-370.43 112.68,-361.7"/>
<polygon fill="black" stroke="black" points="116.02,-360.65 109.61,-352.22 109.36,-362.81 116.02,-360.65"/>
</g>
</g>
</svg>
