<?xml version="1.0" encoding="UTF-8" standalone="no"?>
<!DOCTYPE svg PUBLIC "-//W3C//DTD SVG 1.1//EN"
 "http://www.w3.org/Graphics/SVG/1.1/DTD/svg11.dtd">
<!-- Generated by graphviz version 11.0.0 (20240519.1550)
 -->
<!-- Title: SNSPowderReductionContainer Pages: 1 -->
<svg width="605pt" height="532pt"
 viewBox="0.00 0.00 604.93 531.50" xmlns="http://www.w3.org/2000/svg" xmlns:xlink="http://www.w3.org/1999/xlink">
<g id="graph0" class="graph" transform="scale(1 1) rotate(0) translate(4 527.5)">
<title>SNSPowderReductionContainer</title>
<polygon fill="white" stroke="none" points="-4,4 -4,-527.5 600.93,-527.5 600.93,4 -4,4"/>
<text text-anchor="middle" x="298.46" y="-506.2" font-family="Helvetica,sans-Serif" font-size="14.00">Process Container Run Flowchart</text>
<!-- ContainerRunNumber -->
<g id="node1" class="node">
<title>ContainerRunNumber</title>
<ellipse fill="khaki" stroke="black" cx="479.96" cy="-480.25" rx="116.97" ry="18"/>
<text text-anchor="middle" x="479.96" y="-475.57" font-family="Helvetica,sans-Serif" font-size="14.00">ContainerRunNumber</text>
</g>
<!-- isSum -->
<g id="node9" class="node">
<title>isSum</title>
<polygon fill="limegreen" stroke="black" points="479.96,-426.25 374.8,-408.25 479.96,-390.25 585.11,-408.25 479.96,-426.25"/>
<text text-anchor="middle" x="479.96" y="-403.57" font-family="Helvetica,sans-Serif" font-size="14.00">Is Sum True?</text>
</g>
<!-- ContainerRunNumber&#45;&gt;isSum -->
<g id="edge1" class="edge">
<title>ContainerRunNumber&#45;&gt;isSum</title>
<path fill="none" stroke="black" d="M479.96,-461.95C479.96,-454.66 479.96,-445.98 479.96,-437.79"/>
<polygon fill="black" stroke="black" points="483.46,-437.87 479.96,-427.87 476.46,-437.87 483.46,-437.87"/>
</g>
<!-- TimeFilterWall -->
<g id="node2" class="node">
<title>TimeFilterWall</title>
<ellipse fill="khaki" stroke="black" cx="277.96" cy="-408.25" rx="78.57" ry="18"/>
<text text-anchor="middle" x="277.96" y="-403.57" font-family="Helvetica,sans-Serif" font-size="14.00">TimeFilterWall</text>
</g>
<!-- focusAndSum -->
<g id="node5" class="node">
<title>focusAndSum</title>
<path fill="lightskyblue" stroke="black" d="M377.46,-337C377.46,-337 286.46,-337 286.46,-337 280.46,-337 274.46,-331 274.46,-325 274.46,-325 274.46,-313 274.46,-313 274.46,-307 280.46,-301 286.46,-301 286.46,-301 377.46,-301 377.46,-301 383.46,-301 389.46,-307 389.46,-313 389.46,-313 389.46,-325 389.46,-325 389.46,-331 383.46,-337 377.46,-337"/>
<text text-anchor="middle" x="331.96" y="-314.32" font-family="Helvetica,sans-Serif" font-size="14.00">FocusAndSum</text>
</g>
<!-- TimeFilterWall&#45;&gt;focusAndSum -->
<g id="edge3" class="edge">
<title>TimeFilterWall&#45;&gt;focusAndSum</title>
<path fill="none" stroke="black" d="M288.62,-390.01C296.24,-377.7 306.64,-360.91 315.34,-346.85"/>
<polygon fill="black" stroke="black" points="318.23,-348.83 320.51,-338.49 312.27,-345.15 318.23,-348.83"/>
</g>
<!-- focusChunks -->
<g id="node6" class="node">
<title>focusChunks</title>
<path fill="lightskyblue" stroke="black" d="M504.08,-337C504.08,-337 419.83,-337 419.83,-337 413.83,-337 407.83,-331 407.83,-325 407.83,-325 407.83,-313 407.83,-313 407.83,-307 413.83,-301 419.83,-301 419.83,-301 504.08,-301 504.08,-301 510.08,-301 516.08,-307 516.08,-313 516.08,-313 516.08,-325 516.08,-325 516.08,-331 510.08,-337 504.08,-337"/>
<text text-anchor="middle" x="461.96" y="-314.32" font-family="Helvetica,sans-Serif" font-size="14.00">FocusChunks</text>
</g>
<!-- TimeFilterWall&#45;&gt;focusChunks -->
<g id="edge6" class="edge">
<title>TimeFilterWall&#45;&gt;focusChunks</title>
<path fill="none" stroke="black" d="M310.68,-391.69C332.55,-381.29 361.97,-367.32 387.96,-355 396.63,-350.89 405.88,-346.51 414.8,-342.29"/>
<polygon fill="black" stroke="black" points="416.15,-345.52 423.69,-338.08 413.16,-339.19 416.15,-345.52"/>
</g>
<!-- BackgroundSmoothParameter -->
<g id="node3" class="node">
<title>BackgroundSmoothParameter</title>
<ellipse fill="khaki" stroke="black" cx="156.96" cy="-171.75" rx="156.96" ry="18"/>
<text text-anchor="middle" x="156.96" y="-167.07" font-family="Helvetica,sans-Serif" font-size="14.00">BackgroundSmoothParameter</text>
</g>
<!-- fftSmooth -->
<g id="node8" class="node">
<title>fftSmooth</title>
<path fill="lightskyblue" stroke="black" d="M213.46,-114.5C213.46,-114.5 122.46,-114.5 122.46,-114.5 116.46,-114.5 110.46,-108.5 110.46,-102.5 110.46,-102.5 110.46,-84 110.46,-84 110.46,-78 116.46,-72 122.46,-72 122.46,-72 213.46,-72 213.46,-72 219.46,-72 225.46,-78 225.46,-84 225.46,-84 225.46,-102.5 225.46,-102.5 225.46,-108.5 219.46,-114.5 213.46,-114.5"/>
<text text-anchor="middle" x="167.96" y="-97.2" font-family="Helvetica,sans-Serif" font-size="14.00">FFTSmooth v1</text>
<text text-anchor="middle" x="167.96" y="-79.95" font-family="Helvetica,sans-Serif" font-size="14.00">Butterworth</text>
</g>
<!-- BackgroundSmoothParameter&#45;&gt;fftSmooth -->
<g id="edge10" class="edge">
<title>BackgroundSmoothParameter&#45;&gt;fftSmooth</title>
<path fill="none" stroke="black" d="M159.45,-153.39C160.61,-145.33 162.03,-135.49 163.37,-126.16"/>
<polygon fill="black" stroke="black" points="166.83,-126.69 164.79,-116.3 159.9,-125.7 166.83,-126.69"/>
</g>
<!-- ProcessedCanRun -->
<g id="node4" class="node">
<title>ProcessedCanRun</title>
<ellipse fill="khaki" stroke="black" cx="167.96" cy="-18" rx="98.03" ry="18"/>
<text text-anchor="middle" x="167.96" y="-13.32" font-family="Helvetica,sans-Serif" font-size="14.00">ProcessedCanRun</text>
</g>
<!-- CanRunWorkspace -->
<g id="node10" class="node">
<title>CanRunWorkspace</title>
<polygon fill="grey" stroke="black" points="537.47,-265 312.35,-265 254.44,-229 479.56,-229 537.47,-265"/>
<text text-anchor="middle" x="395.96" y="-240.82" font-family="Times,serif" font-size="14.00">ContainerRunWorkspace</text>
</g>
<!-- focusAndSum&#45;&gt;CanRunWorkspace -->
<g id="edge4" class="edge">
<title>focusAndSum&#45;&gt;CanRunWorkspace</title>
<path fill="none" stroke="black" d="M347.78,-300.7C355.29,-292.47 364.43,-282.48 372.71,-273.42"/>
<polygon fill="black" stroke="black" points="375.13,-275.96 379.3,-266.22 369.97,-271.24 375.13,-275.96"/>
</g>
<!-- focusChunks&#45;&gt;CanRunWorkspace -->
<g id="edge7" class="edge">
<title>focusChunks&#45;&gt;CanRunWorkspace</title>
<path fill="none" stroke="black" d="M445.64,-300.7C437.89,-292.47 428.47,-282.48 419.92,-273.42"/>
<polygon fill="black" stroke="black" points="422.53,-271.08 413.12,-266.21 417.43,-275.88 422.53,-271.08"/>
</g>
<!-- convertUnits1 -->
<g id="node7" class="node">
<title>convertUnits1</title>
<path fill="lightskyblue" stroke="black" d="M448.21,-193C448.21,-193 343.71,-193 343.71,-193 337.71,-193 331.71,-187 331.71,-181 331.71,-181 331.71,-162.5 331.71,-162.5 331.71,-156.5 337.71,-150.5 343.71,-150.5 343.71,-150.5 448.21,-150.5 448.21,-150.5 454.21,-150.5 460.21,-156.5 460.21,-162.5 460.21,-162.5 460.21,-181 460.21,-181 460.21,-187 454.21,-193 448.21,-193"/>
<text text-anchor="middle" x="395.96" y="-175.7" font-family="Helvetica,sans-Serif" font-size="14.00">ConvertUnits v1</text>
<text text-anchor="middle" x="395.96" y="-158.45" font-family="Helvetica,sans-Serif" font-size="14.00">to T.O.F.</text>
</g>
<!-- convertUnits1&#45;&gt;fftSmooth -->
<g id="edge9" class="edge">
<title>convertUnits1&#45;&gt;fftSmooth</title>
<path fill="none" stroke="black" d="M334.26,-150.05C304.06,-139.91 267.6,-127.68 236.53,-117.26"/>
<polygon fill="black" stroke="black" points="237.81,-114 227.22,-114.13 235.59,-120.63 237.81,-114"/>
</g>
<!-- fftSmooth&#45;&gt;ProcessedCanRun -->
<g id="edge11" class="edge">
<title>fftSmooth&#45;&gt;ProcessedCanRun</title>
<path fill="none" stroke="black" d="M167.96,-71.85C167.96,-64.34 167.96,-55.69 167.96,-47.59"/>
<polygon fill="black" stroke="black" points="171.46,-47.83 167.96,-37.83 164.46,-47.83 171.46,-47.83"/>
</g>
<!-- isSum&#45;&gt;focusAndSum -->
<g id="edge2" class="edge">
<title>isSum&#45;&gt;focusAndSum</title>
<path fill="none" stroke="black" d="M457.16,-393.81C434.26,-380.31 398.55,-359.26 371.11,-343.08"/>
<polygon fill="black" stroke="black" points="373.12,-340.2 362.72,-338.14 369.56,-346.23 373.12,-340.2"/>
<text text-anchor="middle" x="430.21" y="-358.95" font-family="Helvetica,sans-Serif" font-size="14.00">Yes</text>
</g>
<!-- isSum&#45;&gt;focusChunks -->
<g id="edge5" class="edge">
<title>isSum&#45;&gt;focusChunks</title>
<path fill="none" stroke="black" d="M476.49,-390.43C474.03,-378.51 470.67,-362.24 467.8,-348.34"/>
<polygon fill="black" stroke="black" points="471.29,-347.94 465.85,-338.85 464.44,-349.35 471.29,-347.94"/>
<text text-anchor="middle" x="481.33" y="-358.95" font-family="Helvetica,sans-Serif" font-size="14.00">No</text>
</g>
<!-- CanRunWorkspace&#45;&gt;convertUnits1 -->
<g id="edge8" class="edge">
<title>CanRunWorkspace&#45;&gt;convertUnits1</title>
<path fill="none" stroke="black" d="M395.96,-228.64C395.96,-221.45 395.96,-212.88 395.96,-204.63"/>
<polygon fill="black" stroke="black" points="399.46,-204.88 395.96,-194.88 392.46,-204.88 399.46,-204.88"/>
</g>
</g>
</svg>
