<?xml version="1.0" encoding="UTF-8" standalone="no"?>
<!DOCTYPE svg PUBLIC "-//W3C//DTD SVG 1.1//EN"
 "http://www.w3.org/Graphics/SVG/1.1/DTD/svg11.dtd">
<!-- Generated by graphviz version 7.0.5 (20221231.0122)
 -->
<!-- Title: SNSPowderReduction Pages: 1 -->
<svg width="664pt" height="1476pt"
 viewBox="0.00 0.00 664.41 1476.00" xmlns="http://www.w3.org/2000/svg" xmlns:xlink="http://www.w3.org/1999/xlink">
<g id="graph0" class="graph" transform="scale(1 1) rotate(0) translate(4 1472)">
<title>SNSPowderReduction</title>
<polygon fill="white" stroke="none" points="-4,4 -4,-1472 660.41,-1472 660.41,4 -4,4"/>
<text text-anchor="middle" x="328.2" y="-1452.8" font-family="Helvetica,sans-Serif" font-size="14.00">SNSPowderReduction Flowchart</text>
<!-- SampleRunList -->
<g id="node1" class="node">
<title>SampleRunList</title>
<ellipse fill="khaki" stroke="black" cx="104.41" cy="-1427" rx="77.19" ry="18"/>
<text text-anchor="middle" x="104.41" y="-1423.3" font-family="Helvetica,sans-Serif" font-size="14.00">SampleRunList</text>
</g>
<!-- isSum -->
<g id="node15" class="node">
<title>isSum</title>
<polygon fill="limegreen" stroke="black" points="104.41,-1372 6.21,-1354 104.41,-1336 202.61,-1354 104.41,-1372"/>
<text text-anchor="middle" x="104.41" y="-1350.3" font-family="Helvetica,sans-Serif" font-size="14.00">Is Sum True?</text>
</g>
<!-- SampleRunList&#45;&gt;isSum -->
<g id="edge1" class="edge">
<title>SampleRunList&#45;&gt;isSum</title>
<path fill="none" stroke="black" d="M104.41,-1408.81C104.41,-1401.23 104.41,-1392.1 104.41,-1383.54"/>
<polygon fill="black" stroke="black" points="107.91,-1383.54 104.41,-1373.54 100.91,-1383.54 107.91,-1383.54"/>
</g>
<!-- TimeFilterWall -->
<g id="node2" class="node">
<title>TimeFilterWall</title>
<ellipse fill="khaki" stroke="black" cx="369.41" cy="-1267" rx="73.39" ry="18"/>
<text text-anchor="middle" x="369.41" y="-1263.3" font-family="Helvetica,sans-Serif" font-size="14.00">TimeFilterWall</text>
</g>
<!-- focusAndSum -->
<g id="node5" class="node">
<title>focusAndSum</title>
<path fill="lightskyblue" stroke="black" d="M252.91,-1212C252.91,-1212 153.91,-1212 153.91,-1212 147.91,-1212 141.91,-1206 141.91,-1200 141.91,-1200 141.91,-1188 141.91,-1188 141.91,-1182 147.91,-1176 153.91,-1176 153.91,-1176 252.91,-1176 252.91,-1176 258.91,-1176 264.91,-1182 264.91,-1188 264.91,-1188 264.91,-1200 264.91,-1200 264.91,-1206 258.91,-1212 252.91,-1212"/>
<text text-anchor="middle" x="203.41" y="-1190.3" font-family="Helvetica,sans-Serif" font-size="14.00">Focus and Sum</text>
</g>
<!-- TimeFilterWall&#45;&gt;focusAndSum -->
<g id="edge3" class="edge">
<title>TimeFilterWall&#45;&gt;focusAndSum</title>
<path fill="none" stroke="black" d="M334.2,-1250.94C311.03,-1241.03 280.32,-1227.9 254.48,-1216.85"/>
<polygon fill="black" stroke="black" points="256.08,-1213.72 245.51,-1213.01 253.32,-1220.16 256.08,-1213.72"/>
</g>
<!-- focusChunks -->
<g id="node6" class="node">
<title>focusChunks</title>
<path fill="lightskyblue" stroke="black" d="M426.91,-1212C426.91,-1212 339.91,-1212 339.91,-1212 333.91,-1212 327.91,-1206 327.91,-1200 327.91,-1200 327.91,-1188 327.91,-1188 327.91,-1182 333.91,-1176 339.91,-1176 339.91,-1176 426.91,-1176 426.91,-1176 432.91,-1176 438.91,-1182 438.91,-1188 438.91,-1188 438.91,-1200 438.91,-1200 438.91,-1206 432.91,-1212 426.91,-1212"/>
<text text-anchor="middle" x="383.41" y="-1190.3" font-family="Helvetica,sans-Serif" font-size="14.00">Focus chunks</text>
</g>
<!-- TimeFilterWall&#45;&gt;focusChunks -->
<g id="edge8" class="edge">
<title>TimeFilterWall&#45;&gt;focusChunks</title>
<path fill="none" stroke="black" d="M372.8,-1248.81C374.31,-1241.14 376.13,-1231.89 377.84,-1223.24"/>
<polygon fill="black" stroke="black" points="381.25,-1224 379.76,-1213.51 374.39,-1222.65 381.25,-1224"/>
</g>
<!-- CalibrationFile -->
<g id="node3" class="node">
<title>CalibrationFile</title>
<ellipse fill="khaki" stroke="black" cx="203.41" cy="-1267" rx="74.19" ry="18"/>
<text text-anchor="middle" x="203.41" y="-1263.3" font-family="Helvetica,sans-Serif" font-size="14.00">CalibrationFile</text>
</g>
<!-- CalibrationFile&#45;&gt;focusAndSum -->
<g id="edge4" class="edge">
<title>CalibrationFile&#45;&gt;focusAndSum</title>
<path fill="none" stroke="black" d="M203.41,-1248.81C203.41,-1241.23 203.41,-1232.1 203.41,-1223.54"/>
<polygon fill="black" stroke="black" points="206.91,-1223.54 203.41,-1213.54 199.91,-1223.54 206.91,-1223.54"/>
</g>
<!-- CalibrationFile&#45;&gt;focusChunks -->
<g id="edge9" class="edge">
<title>CalibrationFile&#45;&gt;focusChunks</title>
<path fill="none" stroke="black" d="M241.14,-1251.12C266.46,-1241.13 300.23,-1227.81 328.51,-1216.65"/>
<polygon fill="black" stroke="black" points="329.63,-1219.98 337.65,-1213.05 327.06,-1213.46 329.63,-1219.98"/>
</g>
<!-- OutputWorkspaces -->
<g id="node4" class="node">
<title>OutputWorkspaces</title>
<ellipse fill="khaki" stroke="black" cx="210.41" cy="-18" rx="96.68" ry="18"/>
<text text-anchor="middle" x="210.41" y="-14.3" font-family="Helvetica,sans-Serif" font-size="14.00">OutputWorkspaces</text>
</g>
<!-- SamRunList -->
<g id="node21" class="node">
<title>SamRunList</title>
<polygon fill="grey" stroke="black" points="336.71,-925 150.1,-925 102.1,-849 288.71,-849 336.71,-925"/>
<text text-anchor="middle" x="219.41" y="-890.8" font-family="Times,serif" font-size="14.00">Processed</text>
<text text-anchor="middle" x="219.41" y="-875.8" font-family="Times,serif" font-size="14.00">Sample Runs List</text>
</g>
<!-- focusAndSum&#45;&gt;SamRunList -->
<g id="edge5" class="edge">
<title>focusAndSum&#45;&gt;SamRunList</title>
<path fill="none" stroke="black" d="M204.31,-1175.73C206.69,-1130.34 213.19,-1006.43 216.84,-936.93"/>
<polygon fill="black" stroke="black" points="220.33,-937.12 217.36,-926.95 213.34,-936.75 220.33,-937.12"/>
</g>
<!-- SamRun -->
<g id="node20" class="node">
<title>SamRun</title>
<polygon fill="grey" stroke="black" points="484.13,-1125 366.85,-1125 336.69,-1049 453.96,-1049 484.13,-1125"/>
<text text-anchor="middle" x="410.41" y="-1090.8" font-family="Times,serif" font-size="14.00">Processed</text>
<text text-anchor="middle" x="410.41" y="-1075.8" font-family="Times,serif" font-size="14.00">Sample</text>
</g>
<!-- focusChunks&#45;&gt;SamRun -->
<g id="edge10" class="edge">
<title>focusChunks&#45;&gt;SamRun</title>
<path fill="none" stroke="black" d="M387.86,-1175.66C390.63,-1164.91 394.33,-1150.51 397.94,-1136.49"/>
<polygon fill="black" stroke="black" points="401.31,-1137.43 400.41,-1126.88 394.53,-1135.69 401.31,-1137.43"/>
</g>
<!-- getSampleRun -->
<g id="node7" class="node">
<title>getSampleRun</title>
<path fill="lightskyblue" stroke="black" d="M644.41,-1285C644.41,-1285 472.41,-1285 472.41,-1285 466.41,-1285 460.41,-1279 460.41,-1273 460.41,-1273 460.41,-1261 460.41,-1261 460.41,-1255 466.41,-1249 472.41,-1249 472.41,-1249 644.41,-1249 644.41,-1249 650.41,-1249 656.41,-1255 656.41,-1261 656.41,-1261 656.41,-1273 656.41,-1273 656.41,-1279 650.41,-1285 644.41,-1285"/>
<text text-anchor="middle" x="558.41" y="-1263.3" font-family="Helvetica,sans-Serif" font-size="14.00">Get a sample run number</text>
</g>
<!-- getSampleRun&#45;&gt;focusChunks -->
<g id="edge7" class="edge">
<title>getSampleRun&#45;&gt;focusChunks</title>
<path fill="none" stroke="black" d="M515.6,-1248.63C491.87,-1239 462.15,-1226.95 436.9,-1216.7"/>
<polygon fill="black" stroke="black" points="438.37,-1213.52 427.78,-1213 435.73,-1220.01 438.37,-1213.52"/>
</g>
<!-- getProcessedSam -->
<g id="node8" class="node">
<title>getProcessedSam</title>
<path fill="lightskyblue" stroke="black" d="M352.41,-812C352.41,-812 86.41,-812 86.41,-812 80.41,-812 74.41,-806 74.41,-800 74.41,-800 74.41,-788 74.41,-788 74.41,-782 80.41,-776 86.41,-776 86.41,-776 352.41,-776 352.41,-776 358.41,-776 364.41,-782 364.41,-788 364.41,-788 364.41,-800 364.41,-800 364.41,-806 358.41,-812 352.41,-812"/>
<text text-anchor="middle" x="219.41" y="-790.3" font-family="Helvetica,sans-Serif" font-size="14.00">Get a processed sample run workspace</text>
</g>
<!-- isCanRunDefined -->
<g id="node17" class="node">
<title>isCanRunDefined</title>
<polygon fill="limegreen" stroke="black" points="219.41,-739 34.9,-721 219.41,-703 403.91,-721 219.41,-739"/>
<text text-anchor="middle" x="219.41" y="-717.3" font-family="Helvetica,sans-Serif" font-size="14.00">Is container run specified?</text>
</g>
<!-- getProcessedSam&#45;&gt;isCanRunDefined -->
<g id="edge15" class="edge">
<title>getProcessedSam&#45;&gt;isCanRunDefined</title>
<path fill="none" stroke="black" d="M219.41,-775.81C219.41,-768.23 219.41,-759.1 219.41,-750.54"/>
<polygon fill="black" stroke="black" points="222.91,-750.54 219.41,-740.54 215.91,-750.54 222.91,-750.54"/>
</g>
<!-- compressEvents -->
<g id="node9" class="node">
<title>compressEvents</title>
<path fill="lightskyblue" stroke="black" d="M276.91,-415C276.91,-415 145.91,-415 145.91,-415 139.91,-415 133.91,-409 133.91,-403 133.91,-403 133.91,-391 133.91,-391 133.91,-385 139.91,-379 145.91,-379 145.91,-379 276.91,-379 276.91,-379 282.91,-379 288.91,-385 288.91,-391 288.91,-391 288.91,-403 288.91,-403 288.91,-409 282.91,-415 276.91,-415"/>
<text text-anchor="middle" x="211.41" y="-393.3" font-family="Helvetica,sans-Serif" font-size="14.00">CompressEvents v1</text>
</g>
<!-- mustDataPositive -->
<g id="node19" class="node">
<title>mustDataPositive</title>
<polygon fill="limegreen" stroke="black" points="211.41,-342 0.09,-324 211.41,-306 422.72,-324 211.41,-342"/>
<text text-anchor="middle" x="211.41" y="-320.3" font-family="Helvetica,sans-Serif" font-size="14.00">Does data have to be positive?</text>
</g>
<!-- compressEvents&#45;&gt;mustDataPositive -->
<g id="edge22" class="edge">
<title>compressEvents&#45;&gt;mustDataPositive</title>
<path fill="none" stroke="black" d="M211.41,-378.81C211.41,-371.23 211.41,-362.1 211.41,-353.54"/>
<polygon fill="black" stroke="black" points="214.91,-353.54 211.41,-343.54 207.91,-353.54 214.91,-353.54"/>
</g>
<!-- processCanRun -->
<g id="node10" class="node">
<title>processCanRun</title>
<path fill="lightskyblue" stroke="black" d="M571.91,-652C571.91,-652 252.91,-652 252.91,-652 246.91,-652 240.91,-646 240.91,-640 240.91,-640 240.91,-626 240.91,-626 240.91,-620 246.91,-614 252.91,-614 252.91,-614 571.91,-614 571.91,-614 577.91,-614 583.91,-620 583.91,-626 583.91,-626 583.91,-640 583.91,-640 583.91,-646 577.91,-652 571.91,-652"/>
<text text-anchor="middle" x="412.41" y="-636.8" font-family="Helvetica,sans-Serif" font-size="14.00">Process Container Run</text>
<text text-anchor="middle" x="412.41" y="-621.8" font-family="Helvetica,sans-Serif" font-size="14.00">(see workflow diagram &#39;Process Container Run&#39;</text>
</g>
<!-- isVanRunDefined -->
<g id="node18" class="node">
<title>isVanRunDefined</title>
<polygon fill="limegreen" stroke="black" points="215.41,-577 27.05,-559 215.41,-541 403.76,-559 215.41,-577"/>
<text text-anchor="middle" x="215.41" y="-555.3" font-family="Helvetica,sans-Serif" font-size="14.00">Is Vanadium run specified?</text>
</g>
<!-- processCanRun&#45;&gt;isVanRunDefined -->
<g id="edge18" class="edge">
<title>processCanRun&#45;&gt;isVanRunDefined</title>
<path fill="none" stroke="black" d="M361.93,-613.55C331.77,-602.53 293.67,-588.6 263.88,-577.72"/>
<polygon fill="black" stroke="black" points="265.32,-574.52 254.73,-574.37 262.92,-581.09 265.32,-574.52"/>
</g>
<!-- processVanRun -->
<g id="node11" class="node">
<title>processVanRun</title>
<path fill="lightskyblue" stroke="black" d="M568.41,-490C568.41,-490 248.41,-490 248.41,-490 242.41,-490 236.41,-484 236.41,-478 236.41,-478 236.41,-464 236.41,-464 236.41,-458 242.41,-452 248.41,-452 248.41,-452 568.41,-452 568.41,-452 574.41,-452 580.41,-458 580.41,-464 580.41,-464 580.41,-478 580.41,-478 580.41,-484 574.41,-490 568.41,-490"/>
<text text-anchor="middle" x="408.41" y="-474.8" font-family="Helvetica,sans-Serif" font-size="14.00">Process Vanadium Run</text>
<text text-anchor="middle" x="408.41" y="-459.8" font-family="Helvetica,sans-Serif" font-size="14.00">(see workflow diagram &#39;Process Vanadium Run&#39;</text>
</g>
<!-- processVanRun&#45;&gt;compressEvents -->
<g id="edge21" class="edge">
<title>processVanRun&#45;&gt;compressEvents</title>
<path fill="none" stroke="black" d="M357.93,-451.55C330.94,-441.69 297.58,-429.5 269.51,-419.24"/>
<polygon fill="black" stroke="black" points="271.06,-416.07 260.46,-415.93 268.65,-422.65 271.06,-416.07"/>
</g>
<!-- resetNegatives -->
<g id="node12" class="node">
<title>resetNegatives</title>
<path fill="lightskyblue" stroke="black" d="M217.41,-255C217.41,-255 95.41,-255 95.41,-255 89.41,-255 83.41,-249 83.41,-243 83.41,-243 83.41,-231 83.41,-231 83.41,-225 89.41,-219 95.41,-219 95.41,-219 217.41,-219 217.41,-219 223.41,-219 229.41,-225 229.41,-231 229.41,-231 229.41,-243 229.41,-243 229.41,-249 223.41,-255 217.41,-255"/>
<text text-anchor="middle" x="156.41" y="-233.3" font-family="Helvetica,sans-Serif" font-size="14.00">ResetNegatives v1</text>
</g>
<!-- scale -->
<g id="node13" class="node">
<title>scale</title>
<path fill="lightskyblue" stroke="black" d="M235.91,-182C235.91,-182 184.91,-182 184.91,-182 178.91,-182 172.91,-176 172.91,-170 172.91,-170 172.91,-158 172.91,-158 172.91,-152 178.91,-146 184.91,-146 184.91,-146 235.91,-146 235.91,-146 241.91,-146 247.91,-152 247.91,-158 247.91,-158 247.91,-170 247.91,-170 247.91,-176 241.91,-182 235.91,-182"/>
<text text-anchor="middle" x="210.41" y="-160.3" font-family="Helvetica,sans-Serif" font-size="14.00">Scale v1</text>
</g>
<!-- resetNegatives&#45;&gt;scale -->
<g id="edge24" class="edge">
<title>resetNegatives&#45;&gt;scale</title>
<path fill="none" stroke="black" d="M169.48,-218.81C175.85,-210.44 183.64,-200.2 190.71,-190.9"/>
<polygon fill="black" stroke="black" points="193.27,-193.31 196.54,-183.23 187.7,-189.07 193.27,-193.31"/>
</g>
<!-- convertUnits -->
<g id="node14" class="node">
<title>convertUnits</title>
<path fill="lightskyblue" stroke="black" d="M262.91,-109C262.91,-109 157.91,-109 157.91,-109 151.91,-109 145.91,-103 145.91,-97 145.91,-97 145.91,-85 145.91,-85 145.91,-79 151.91,-73 157.91,-73 157.91,-73 262.91,-73 262.91,-73 268.91,-73 274.91,-79 274.91,-85 274.91,-85 274.91,-97 274.91,-97 274.91,-103 268.91,-109 262.91,-109"/>
<text text-anchor="middle" x="210.41" y="-87.3" font-family="Helvetica,sans-Serif" font-size="14.00">ConvertUnits v1</text>
</g>
<!-- scale&#45;&gt;convertUnits -->
<g id="edge26" class="edge">
<title>scale&#45;&gt;convertUnits</title>
<path fill="none" stroke="black" d="M210.41,-145.81C210.41,-138.23 210.41,-129.1 210.41,-120.54"/>
<polygon fill="black" stroke="black" points="213.91,-120.54 210.41,-110.54 206.91,-120.54 213.91,-120.54"/>
</g>
<!-- convertUnits&#45;&gt;OutputWorkspaces -->
<g id="edge27" class="edge">
<title>convertUnits&#45;&gt;OutputWorkspaces</title>
<path fill="none" stroke="black" d="M210.41,-72.81C210.41,-65.23 210.41,-56.1 210.41,-47.54"/>
<polygon fill="black" stroke="black" points="213.91,-47.54 210.41,-37.54 206.91,-47.54 213.91,-47.54"/>
</g>
<!-- isSum&#45;&gt;focusAndSum -->
<g id="edge2" class="edge">
<title>isSum&#45;&gt;focusAndSum</title>
<path fill="none" stroke="black" d="M97.91,-1336.83C90.31,-1315.13 80.76,-1276.16 97.41,-1249 105.61,-1235.61 118.3,-1225.41 132.07,-1217.69"/>
<polygon fill="black" stroke="black" points="133.59,-1220.84 140.9,-1213.18 130.41,-1214.61 133.59,-1220.84"/>
<text text-anchor="middle" x="108.91" y="-1263.3" font-family="Helvetica,sans-Serif" font-size="14.00">Yes</text>
</g>
<!-- isSum&#45;&gt;getSampleRun -->
<g id="edge6" class="edge">
<title>isSum&#45;&gt;getSampleRun</title>
<path fill="none" stroke="black" d="M151.28,-1344.22C222.22,-1330.94 358.65,-1305.4 453.94,-1287.56"/>
<polygon fill="black" stroke="black" points="454.38,-1291.04 463.57,-1285.76 453.1,-1284.16 454.38,-1291.04"/>
<text text-anchor="middle" x="367.91" y="-1306.8" font-family="Helvetica,sans-Serif" font-size="14.00">No</text>
</g>
<!-- isLastSampleRun -->
<g id="node16" class="node">
<title>isLastSampleRun</title>
<polygon fill="limegreen" stroke="black" points="431.41,-1012 231.15,-994 431.41,-976 631.66,-994 431.41,-1012"/>
<text text-anchor="middle" x="431.41" y="-990.3" font-family="Helvetica,sans-Serif" font-size="14.00">Is Last Sample Run Number?</text>
</g>
<!-- isLastSampleRun&#45;&gt;getSampleRun -->
<g id="edge12" class="edge">
<title>isLastSampleRun&#45;&gt;getSampleRun</title>
<path fill="none" stroke="black" d="M454.68,-1010.26C467.76,-1019.93 483.43,-1033.52 493.41,-1049 532.27,-1109.27 548.75,-1193.79 555.01,-1237.42"/>
<polygon fill="black" stroke="black" points="551.51,-1237.65 556.32,-1247.09 558.45,-1236.71 551.51,-1237.65"/>
<text text-anchor="middle" x="547.91" y="-1146.8" font-family="Helvetica,sans-Serif" font-size="14.00">No</text>
</g>
<!-- isLastSampleRun&#45;&gt;SamRunList -->
<g id="edge13" class="edge">
<title>isLastSampleRun&#45;&gt;SamRunList</title>
<path fill="none" stroke="black" d="M401.93,-978.4C376.77,-965.94 339.28,-947.37 304.82,-930.3"/>
<polygon fill="black" stroke="black" points="306.59,-927.27 296.07,-925.97 303.48,-933.55 306.59,-927.27"/>
<text text-anchor="middle" x="367.91" y="-946.8" font-family="Helvetica,sans-Serif" font-size="14.00">Yes</text>
</g>
<!-- isCanRunDefined&#45;&gt;processCanRun -->
<g id="edge17" class="edge">
<title>isCanRunDefined&#45;&gt;processCanRun</title>
<path fill="none" stroke="black" d="M251.28,-705.8C280.97,-692.57 325.76,-672.61 360.59,-657.09"/>
<polygon fill="black" stroke="black" points="361.96,-660.31 369.67,-653.04 359.11,-653.92 361.96,-660.31"/>
<text text-anchor="middle" x="338.91" y="-673.8" font-family="Helvetica,sans-Serif" font-size="14.00">Yes</text>
</g>
<!-- isCanRunDefined&#45;&gt;isVanRunDefined -->
<g id="edge16" class="edge">
<title>isCanRunDefined&#45;&gt;isVanRunDefined</title>
<path fill="none" stroke="black" d="M217.17,-702.99C215.48,-689.26 213.3,-669.42 212.41,-652 211.54,-635.13 211.94,-630.88 212.41,-614 212.64,-605.68 213.07,-596.64 213.53,-588.38"/>
<polygon fill="black" stroke="black" points="217.02,-588.72 214.13,-578.53 210.03,-588.3 217.02,-588.72"/>
<text text-anchor="middle" x="221.91" y="-629.3" font-family="Helvetica,sans-Serif" font-size="14.00">No</text>
</g>
<!-- isVanRunDefined&#45;&gt;compressEvents -->
<g id="edge19" class="edge">
<title>isVanRunDefined&#45;&gt;compressEvents</title>
<path fill="none" stroke="black" d="M213.17,-540.99C211.48,-527.26 209.3,-507.42 208.41,-490 207.54,-473.13 207.94,-468.88 208.41,-452 208.63,-443.8 209.06,-434.91 209.51,-426.76"/>
<polygon fill="black" stroke="black" points="212.99,-427.2 210.1,-417.01 206,-426.78 212.99,-427.2"/>
<text text-anchor="middle" x="217.91" y="-467.3" font-family="Helvetica,sans-Serif" font-size="14.00">No</text>
</g>
<!-- isVanRunDefined&#45;&gt;processVanRun -->
<g id="edge20" class="edge">
<title>isVanRunDefined&#45;&gt;processVanRun</title>
<path fill="none" stroke="black" d="M247.71,-543.61C277.37,-530.39 321.84,-510.57 356.49,-495.14"/>
<polygon fill="black" stroke="black" points="357.8,-498.38 365.51,-491.11 354.95,-491.99 357.8,-498.38"/>
<text text-anchor="middle" x="334.91" y="-511.8" font-family="Helvetica,sans-Serif" font-size="14.00">Yes</text>
</g>
<!-- mustDataPositive&#45;&gt;resetNegatives -->
<g id="edge23" class="edge">
<title>mustDataPositive&#45;&gt;resetNegatives</title>
<path fill="none" stroke="black" d="M200.8,-306.61C193.12,-294.73 182.55,-278.41 173.66,-264.67"/>
<polygon fill="black" stroke="black" points="176.74,-262.98 168.37,-256.48 170.86,-266.78 176.74,-262.98"/>
<text text-anchor="middle" x="198.91" y="-276.8" font-family="Helvetica,sans-Serif" font-size="14.00">Yes</text>
</g>
<!-- mustDataPositive&#45;&gt;scale -->
<g id="edge25" class="edge">
<title>mustDataPositive&#45;&gt;scale</title>
<path fill="none" stroke="black" d="M220.86,-306.47C231.38,-285.98 245.96,-249.99 238.41,-219 236.15,-209.77 232.03,-200.35 227.62,-192.02"/>
<polygon fill="black" stroke="black" points="230.74,-190.43 222.75,-183.47 224.65,-193.89 230.74,-190.43"/>
<text text-anchor="middle" x="250.91" y="-233.3" font-family="Helvetica,sans-Serif" font-size="14.00">No</text>
</g>
<!-- SamRun&#45;&gt;isLastSampleRun -->
<g id="edge11" class="edge">
<title>SamRun&#45;&gt;isLastSampleRun</title>
<path fill="none" stroke="black" d="M419.01,-1048.72C420.99,-1040.15 423.06,-1031.17 424.93,-1023.07"/>
<polygon fill="black" stroke="black" points="428.31,-1023.96 427.15,-1013.43 421.49,-1022.39 428.31,-1023.96"/>
</g>
<!-- SamRunList&#45;&gt;getProcessedSam -->
<g id="edge14" class="edge">
<title>SamRunList&#45;&gt;getProcessedSam</title>
<path fill="none" stroke="black" d="M219.41,-848.72C219.41,-840.38 219.41,-831.65 219.41,-823.72"/>
<polygon fill="black" stroke="black" points="222.91,-823.95 219.41,-813.95 215.91,-823.95 222.91,-823.95"/>
</g>
</g>
</svg>
