<?xml version="1.0" encoding="UTF-8" standalone="no"?>
<!DOCTYPE svg PUBLIC "-//W3C//DTD SVG 1.1//EN"
 "http://www.w3.org/Graphics/SVG/1.1/DTD/svg11.dtd">
<!-- Generated by graphviz version 7.1.0 (20230122.1345)
 -->
<!-- Title: SNSPowderReductionContainer Pages: 1 -->
<svg width="571pt" height="523pt"
 viewBox="0.00 0.00 571.13 523.00" xmlns="http://www.w3.org/2000/svg" xmlns:xlink="http://www.w3.org/1999/xlink">
<g id="graph0" class="graph" transform="scale(1 1) rotate(0) translate(4 519)">
<title>SNSPowderReductionContainer</title>
<polygon fill="white" stroke="none" points="-4,4 -4,-519 567.13,-519 567.13,4 -4,4"/>
<text text-anchor="middle" x="281.56" y="-499.8" font-family="Helvetica,sans-Serif" font-size="14.00">Process Container Run Flowchart</text>
<!-- ContainerRunNumber -->
<g id="node1" class="node">
<title>ContainerRunNumber</title>
<ellipse fill="khaki" stroke="black" cx="454.59" cy="-474" rx="108.58" ry="18"/>
<text text-anchor="middle" x="454.59" y="-470.3" font-family="Helvetica,sans-Serif" font-size="14.00">ContainerRunNumber</text>
</g>
<!-- isSum -->
<g id="node9" class="node">
<title>isSum</title>
<polygon fill="limegreen" stroke="black" points="454.59,-419 356.39,-401 454.59,-383 552.79,-401 454.59,-419"/>
<text text-anchor="middle" x="454.59" y="-397.3" font-family="Helvetica,sans-Serif" font-size="14.00">Is Sum True?</text>
</g>
<!-- ContainerRunNumber&#45;&gt;isSum -->
<g id="edge1" class="edge">
<title>ContainerRunNumber&#45;&gt;isSum</title>
<path fill="none" stroke="black" d="M454.59,-455.81C454.59,-448.23 454.59,-439.1 454.59,-430.54"/>
<polygon fill="black" stroke="black" points="458.09,-430.54 454.59,-420.54 451.09,-430.54 458.09,-430.54"/>
</g>
<!-- TimeFilterWall -->
<g id="node2" class="node">
<title>TimeFilterWall</title>
<ellipse fill="khaki" stroke="black" cx="264.59" cy="-401" rx="73.39" ry="18"/>
<text text-anchor="middle" x="264.59" y="-397.3" font-family="Helvetica,sans-Serif" font-size="14.00">TimeFilterWall</text>
</g>
<!-- focusAndSum -->
<g id="node5" class="node">
<title>focusAndSum</title>
<path fill="lightskyblue" stroke="black" d="M354.59,-332C354.59,-332 262.59,-332 262.59,-332 256.59,-332 250.59,-326 250.59,-320 250.59,-320 250.59,-308 250.59,-308 250.59,-302 256.59,-296 262.59,-296 262.59,-296 354.59,-296 354.59,-296 360.59,-296 366.59,-302 366.59,-308 366.59,-308 366.59,-320 366.59,-320 366.59,-326 360.59,-332 354.59,-332"/>
<text text-anchor="middle" x="308.59" y="-310.3" font-family="Helvetica,sans-Serif" font-size="14.00">FocusAndSum</text>
</g>
<!-- TimeFilterWall&#45;&gt;focusAndSum -->
<g id="edge3" class="edge">
<title>TimeFilterWall&#45;&gt;focusAndSum</title>
<path fill="none" stroke="black" d="M273.49,-382.8C279.48,-371.24 287.49,-355.75 294.35,-342.5"/>
<polygon fill="black" stroke="black" points="297.36,-344.3 298.85,-333.81 291.14,-341.08 297.36,-344.3"/>
</g>
<!-- focusChunks -->
<g id="node6" class="node">
<title>focusChunks</title>
<path fill="lightskyblue" stroke="black" d="M482.09,-332C482.09,-332 397.09,-332 397.09,-332 391.09,-332 385.09,-326 385.09,-320 385.09,-320 385.09,-308 385.09,-308 385.09,-302 391.09,-296 397.09,-296 397.09,-296 482.09,-296 482.09,-296 488.09,-296 494.09,-302 494.09,-308 494.09,-308 494.09,-320 494.09,-320 494.09,-326 488.09,-332 482.09,-332"/>
<text text-anchor="middle" x="439.59" y="-310.3" font-family="Helvetica,sans-Serif" font-size="14.00">FocusChunks</text>
</g>
<!-- TimeFilterWall&#45;&gt;focusChunks -->
<g id="edge6" class="edge">
<title>TimeFilterWall&#45;&gt;focusChunks</title>
<path fill="none" stroke="black" d="M296.68,-384.41C323.9,-371.19 363.27,-352.07 393.79,-337.24"/>
<polygon fill="black" stroke="black" points="394.95,-340.57 402.41,-333.06 391.89,-334.28 394.95,-340.57"/>
</g>
<!-- BackgroundSmoothParameter -->
<g id="node3" class="node">
<title>BackgroundSmoothParameter</title>
<ellipse fill="khaki" stroke="black" cx="145.59" cy="-167" rx="145.67" ry="18"/>
<text text-anchor="middle" x="145.59" y="-163.3" font-family="Helvetica,sans-Serif" font-size="14.00">BackgroundSmoothParameter</text>
</g>
<!-- fftSmooth -->
<g id="node8" class="node">
<title>fftSmooth</title>
<path fill="lightskyblue" stroke="black" d="M203.59,-111C203.59,-111 111.59,-111 111.59,-111 105.59,-111 99.59,-105 99.59,-99 99.59,-99 99.59,-85 99.59,-85 99.59,-79 105.59,-73 111.59,-73 111.59,-73 203.59,-73 203.59,-73 209.59,-73 215.59,-79 215.59,-85 215.59,-85 215.59,-99 215.59,-99 215.59,-105 209.59,-111 203.59,-111"/>
<text text-anchor="middle" x="157.59" y="-95.8" font-family="Helvetica,sans-Serif" font-size="14.00">FFTSmooth v1</text>
<text text-anchor="middle" x="157.59" y="-80.8" font-family="Helvetica,sans-Serif" font-size="14.00">Butterworth</text>
</g>
<!-- BackgroundSmoothParameter&#45;&gt;fftSmooth -->
<g id="edge10" class="edge">
<title>BackgroundSmoothParameter&#45;&gt;fftSmooth</title>
<path fill="none" stroke="black" d="M148.43,-148.7C149.71,-140.9 151.26,-131.47 152.72,-122.6"/>
<polygon fill="black" stroke="black" points="156.14,-123.38 154.31,-112.95 149.23,-122.25 156.14,-123.38"/>
</g>
<!-- ProcessedCanRun -->
<g id="node4" class="node">
<title>ProcessedCanRun</title>
<ellipse fill="khaki" stroke="black" cx="157.59" cy="-18" rx="90.98" ry="18"/>
<text text-anchor="middle" x="157.59" y="-14.3" font-family="Helvetica,sans-Serif" font-size="14.00">ProcessedCanRun</text>
</g>
<!-- CanRunWorkspace -->
<g id="node10" class="node">
<title>CanRunWorkspace</title>
<polygon fill="grey" stroke="black" points="518.28,-259 288.11,-259 228.89,-223 459.07,-223 518.28,-259"/>
<text text-anchor="middle" x="373.59" y="-237.3" font-family="Times,serif" font-size="14.00">ContainerRunWorkspace</text>
</g>
<!-- focusAndSum&#45;&gt;CanRunWorkspace -->
<g id="edge4" class="edge">
<title>focusAndSum&#45;&gt;CanRunWorkspace</title>
<path fill="none" stroke="black" d="M324.32,-295.81C332.15,-287.27 341.76,-276.77 350.4,-267.32"/>
<polygon fill="black" stroke="black" points="352.8,-269.88 356.98,-260.15 347.64,-265.16 352.8,-269.88"/>
</g>
<!-- focusChunks&#45;&gt;CanRunWorkspace -->
<g id="edge7" class="edge">
<title>focusChunks&#45;&gt;CanRunWorkspace</title>
<path fill="none" stroke="black" d="M423.61,-295.81C415.67,-287.27 405.91,-276.77 397.13,-267.32"/>
<polygon fill="black" stroke="black" points="399.82,-265.08 390.45,-260.14 394.69,-269.84 399.82,-265.08"/>
</g>
<!-- convertUnits1 -->
<g id="node7" class="node">
<title>convertUnits1</title>
<path fill="lightskyblue" stroke="black" d="M426.09,-186C426.09,-186 321.09,-186 321.09,-186 315.09,-186 309.09,-180 309.09,-174 309.09,-174 309.09,-160 309.09,-160 309.09,-154 315.09,-148 321.09,-148 321.09,-148 426.09,-148 426.09,-148 432.09,-148 438.09,-154 438.09,-160 438.09,-160 438.09,-174 438.09,-174 438.09,-180 432.09,-186 426.09,-186"/>
<text text-anchor="middle" x="373.59" y="-170.8" font-family="Helvetica,sans-Serif" font-size="14.00">ConvertUnits v1</text>
<text text-anchor="middle" x="373.59" y="-155.8" font-family="Helvetica,sans-Serif" font-size="14.00">to T.O.F.</text>
</g>
<!-- convertUnits1&#45;&gt;fftSmooth -->
<g id="edge9" class="edge">
<title>convertUnits1&#45;&gt;fftSmooth</title>
<path fill="none" stroke="black" d="M319.08,-147.58C289.79,-137.68 253.48,-125.41 222.71,-115.01"/>
<polygon fill="black" stroke="black" points="224.1,-111.79 213.51,-111.9 221.86,-118.42 224.1,-111.79"/>
</g>
<!-- fftSmooth&#45;&gt;ProcessedCanRun -->
<g id="edge11" class="edge">
<title>fftSmooth&#45;&gt;ProcessedCanRun</title>
<path fill="none" stroke="black" d="M157.59,-72.83C157.59,-65.24 157.59,-56.24 157.59,-47.79"/>
<polygon fill="black" stroke="black" points="161.09,-47.93 157.59,-37.93 154.09,-47.93 161.09,-47.93"/>
</g>
<!-- isSum&#45;&gt;focusAndSum -->
<g id="edge2" class="edge">
<title>isSum&#45;&gt;focusAndSum</title>
<path fill="none" stroke="black" d="M431.77,-386.72C409.52,-373.76 375.19,-353.78 348.42,-338.19"/>
<polygon fill="black" stroke="black" points="350.28,-335.23 339.88,-333.22 346.76,-341.28 350.28,-335.23"/>
<text text-anchor="middle" x="401.09" y="-353.8" font-family="Helvetica,sans-Serif" font-size="14.00">Yes</text>
</g>
<!-- isSum&#45;&gt;focusChunks -->
<g id="edge5" class="edge">
<title>isSum&#45;&gt;focusChunks</title>
<path fill="none" stroke="black" d="M451.62,-383.21C449.62,-371.83 446.91,-356.52 444.58,-343.29"/>
<polygon fill="black" stroke="black" points="448.1,-343.07 442.91,-333.83 441.2,-344.29 448.1,-343.07"/>
<text text-anchor="middle" x="457.09" y="-353.8" font-family="Helvetica,sans-Serif" font-size="14.00">No</text>
</g>
<!-- CanRunWorkspace&#45;&gt;convertUnits1 -->
<g id="edge8" class="edge">
<title>CanRunWorkspace&#45;&gt;convertUnits1</title>
<path fill="none" stroke="black" d="M373.59,-222.57C373.59,-215.1 373.59,-206.17 373.59,-197.71"/>
<polygon fill="black" stroke="black" points="377.09,-197.79 373.59,-187.79 370.09,-197.79 377.09,-197.79"/>
</g>
</g>
</svg>
