<?xml version="1.0" encoding="UTF-8" standalone="no"?>
<!DOCTYPE svg PUBLIC "-//W3C//DTD SVG 1.1//EN"
 "http://www.w3.org/Graphics/SVG/1.1/DTD/svg11.dtd">
<!-- Generated by graphviz version 13.1.1 (20250720.1534)
 -->
<!-- Title: SNSPowderReduction Pages: 1 -->
<svg width="696pt" height="1495pt"
 viewBox="0.00 0.00 696.00 1495.00" xmlns="http://www.w3.org/2000/svg" xmlns:xlink="http://www.w3.org/1999/xlink">
<g id="graph0" class="graph" transform="scale(1 1) rotate(0) translate(4 1490.75)">
<title>SNSPowderReduction</title>
<polygon fill="white" stroke="none" points="-4,4 -4,-1490.75 691.55,-1490.75 691.55,4 -4,4"/>
<text xml:space="preserve" text-anchor="middle" x="343.77" y="-1469.45" font-family="Helvetica,sans-Serif" font-size="14.00">SNSPowderReduction Flowchart</text>
<!-- SampleRunList -->
<g id="node1" class="node">
<title>SampleRunList</title>
<ellipse fill="khaki" stroke="black" cx="115.92" cy="-1443.5" rx="83.3" ry="18"/>
<text xml:space="preserve" text-anchor="middle" x="115.92" y="-1438.83" font-family="Helvetica,sans-Serif" font-size="14.00">SampleRunList</text>
</g>
<!-- isSum -->
<g id="node15" class="node">
<title>isSum</title>
<polygon fill="limegreen" stroke="black" points="115.92,-1388.5 10.77,-1370.5 115.92,-1352.5 221.08,-1370.5 115.92,-1388.5"/>
<text xml:space="preserve" text-anchor="middle" x="115.92" y="-1365.83" font-family="Helvetica,sans-Serif" font-size="14.00">Is Sum True?</text>
</g>
<!-- SampleRunList&#45;&gt;isSum -->
<g id="edge1" class="edge">
<title>SampleRunList&#45;&gt;isSum</title>
<path fill="none" stroke="black" d="M115.92,-1425.31C115.92,-1417.73 115.92,-1408.6 115.92,-1400.04"/>
<polygon fill="black" stroke="black" points="119.42,-1400.04 115.92,-1390.04 112.42,-1400.04 119.42,-1400.04"/>
</g>
<!-- TimeFilterWall -->
<g id="node2" class="node">
<title>TimeFilterWall</title>
<ellipse fill="khaki" stroke="black" cx="395.92" cy="-1281.25" rx="78.57" ry="18"/>
<text xml:space="preserve" text-anchor="middle" x="395.92" y="-1276.58" font-family="Helvetica,sans-Serif" font-size="14.00">TimeFilterWall</text>
</g>
<!-- focusAndSum -->
<g id="node5" class="node">
<title>focusAndSum</title>
<path fill="lightskyblue" stroke="black" d="M269.17,-1226.25C269.17,-1226.25 170.67,-1226.25 170.67,-1226.25 164.67,-1226.25 158.67,-1220.25 158.67,-1214.25 158.67,-1214.25 158.67,-1202.25 158.67,-1202.25 158.67,-1196.25 164.67,-1190.25 170.67,-1190.25 170.67,-1190.25 269.17,-1190.25 269.17,-1190.25 275.17,-1190.25 281.17,-1196.25 281.17,-1202.25 281.17,-1202.25 281.17,-1214.25 281.17,-1214.25 281.17,-1220.25 275.17,-1226.25 269.17,-1226.25"/>
<text xml:space="preserve" text-anchor="middle" x="219.92" y="-1203.58" font-family="Helvetica,sans-Serif" font-size="14.00">Focus and Sum</text>
</g>
<!-- TimeFilterWall&#45;&gt;focusAndSum -->
<g id="edge3" class="edge">
<title>TimeFilterWall&#45;&gt;focusAndSum</title>
<path fill="none" stroke="black" d="M358.17,-1265.02C333.55,-1255.09 301.06,-1241.98 273.76,-1230.97"/>
<polygon fill="black" stroke="black" points="275.18,-1227.77 264.59,-1227.27 272.56,-1234.26 275.18,-1227.77"/>
</g>
<!-- focusChunks -->
<g id="node6" class="node">
<title>focusChunks</title>
<path fill="lightskyblue" stroke="black" d="M454.17,-1226.25C454.17,-1226.25 367.67,-1226.25 367.67,-1226.25 361.67,-1226.25 355.67,-1220.25 355.67,-1214.25 355.67,-1214.25 355.67,-1202.25 355.67,-1202.25 355.67,-1196.25 361.67,-1190.25 367.67,-1190.25 367.67,-1190.25 454.17,-1190.25 454.17,-1190.25 460.17,-1190.25 466.17,-1196.25 466.17,-1202.25 466.17,-1202.25 466.17,-1214.25 466.17,-1214.25 466.17,-1220.25 460.17,-1226.25 454.17,-1226.25"/>
<text xml:space="preserve" text-anchor="middle" x="410.92" y="-1203.58" font-family="Helvetica,sans-Serif" font-size="14.00">Focus chunks</text>
</g>
<!-- TimeFilterWall&#45;&gt;focusChunks -->
<g id="edge8" class="edge">
<title>TimeFilterWall&#45;&gt;focusChunks</title>
<path fill="none" stroke="black" d="M399.55,-1263.06C401.17,-1255.39 403.13,-1246.14 404.95,-1237.49"/>
<polygon fill="black" stroke="black" points="408.37,-1238.27 407.01,-1227.76 401.52,-1236.82 408.37,-1238.27"/>
</g>
<!-- CalibrationFile -->
<g id="node3" class="node">
<title>CalibrationFile</title>
<ellipse fill="khaki" stroke="black" cx="219.92" cy="-1281.25" rx="79.62" ry="18"/>
<text xml:space="preserve" text-anchor="middle" x="219.92" y="-1276.58" font-family="Helvetica,sans-Serif" font-size="14.00">CalibrationFile</text>
</g>
<!-- CalibrationFile&#45;&gt;focusAndSum -->
<g id="edge4" class="edge">
<title>CalibrationFile&#45;&gt;focusAndSum</title>
<path fill="none" stroke="black" d="M219.92,-1263.06C219.92,-1255.48 219.92,-1246.35 219.92,-1237.79"/>
<polygon fill="black" stroke="black" points="223.42,-1237.79 219.92,-1227.79 216.42,-1237.79 223.42,-1237.79"/>
</g>
<!-- CalibrationFile&#45;&gt;focusChunks -->
<g id="edge9" class="edge">
<title>CalibrationFile&#45;&gt;focusChunks</title>
<path fill="none" stroke="black" d="M259.96,-1265.37C286.95,-1255.33 322.98,-1241.94 353.07,-1230.76"/>
<polygon fill="black" stroke="black" points="354.29,-1234.04 362.44,-1227.27 351.85,-1227.48 354.29,-1234.04"/>
</g>
<!-- OutputWorkspaces -->
<g id="node4" class="node">
<title>OutputWorkspaces</title>
<ellipse fill="khaki" stroke="black" cx="226.92" cy="-18" rx="103.82" ry="18"/>
<text xml:space="preserve" text-anchor="middle" x="226.92" y="-13.32" font-family="Helvetica,sans-Serif" font-size="14.00">OutputWorkspaces</text>
</g>
<!-- SamRunList -->
<g id="node21" class="node">
<title>SamRunList</title>
<polygon fill="grey" stroke="black" points="352.82,-937.75 166.86,-937.75 119.03,-864.75 304.98,-864.75 352.82,-937.75"/>
<text xml:space="preserve" text-anchor="middle" x="235.92" y="-902.2" font-family="Times,serif" font-size="14.00">Processed</text>
<text xml:space="preserve" text-anchor="middle" x="235.92" y="-887.95" font-family="Times,serif" font-size="14.00">Sample Runs List</text>
</g>
<!-- focusAndSum&#45;&gt;SamRunList -->
<g id="edge5" class="edge">
<title>focusAndSum&#45;&gt;SamRunList</title>
<path fill="none" stroke="black" d="M220.83,-1189.98C223.23,-1144.23 229.81,-1018.72 233.44,-949.55"/>
<polygon fill="black" stroke="black" points="236.93,-949.82 233.96,-939.65 229.94,-949.45 236.93,-949.82"/>
</g>
<!-- SamRun -->
<g id="node20" class="node">
<title>SamRun</title>
<polygon fill="grey" stroke="black" points="512.49,-1137 397.05,-1137 367.35,-1064 482.8,-1064 512.49,-1137"/>
<text xml:space="preserve" text-anchor="middle" x="439.92" y="-1101.45" font-family="Times,serif" font-size="14.00">Processed</text>
<text xml:space="preserve" text-anchor="middle" x="439.92" y="-1087.2" font-family="Times,serif" font-size="14.00">Sample</text>
</g>
<!-- focusChunks&#45;&gt;SamRun -->
<g id="edge10" class="edge">
<title>focusChunks&#45;&gt;SamRun</title>
<path fill="none" stroke="black" d="M415.71,-1189.79C418.81,-1178.47 423.01,-1163.16 427.04,-1148.46"/>
<polygon fill="black" stroke="black" points="430.4,-1149.45 429.67,-1138.88 423.65,-1147.6 430.4,-1149.45"/>
</g>
<!-- getSampleRun -->
<g id="node7" class="node">
<title>getSampleRun</title>
<path fill="lightskyblue" stroke="black" d="M675.55,-1299.25C675.55,-1299.25 504.3,-1299.25 504.3,-1299.25 498.3,-1299.25 492.3,-1293.25 492.3,-1287.25 492.3,-1287.25 492.3,-1275.25 492.3,-1275.25 492.3,-1269.25 498.3,-1263.25 504.3,-1263.25 504.3,-1263.25 675.55,-1263.25 675.55,-1263.25 681.55,-1263.25 687.55,-1269.25 687.55,-1275.25 687.55,-1275.25 687.55,-1287.25 687.55,-1287.25 687.55,-1293.25 681.55,-1299.25 675.55,-1299.25"/>
<text xml:space="preserve" text-anchor="middle" x="589.92" y="-1276.58" font-family="Helvetica,sans-Serif" font-size="14.00">Get a sample run number</text>
</g>
<!-- getSampleRun&#45;&gt;focusChunks -->
<g id="edge7" class="edge">
<title>getSampleRun&#45;&gt;focusChunks</title>
<path fill="none" stroke="black" d="M546.13,-1262.88C521.75,-1253.21 491.19,-1241.09 465.29,-1230.81"/>
<polygon fill="black" stroke="black" points="466.87,-1227.68 456.29,-1227.24 464.29,-1234.18 466.87,-1227.68"/>
</g>
<!-- getProcessedSam -->
<g id="node8" class="node">
<title>getProcessedSam</title>
<path fill="lightskyblue" stroke="black" d="M368.8,-827.75C368.8,-827.75 103.05,-827.75 103.05,-827.75 97.05,-827.75 91.05,-821.75 91.05,-815.75 91.05,-815.75 91.05,-803.75 91.05,-803.75 91.05,-797.75 97.05,-791.75 103.05,-791.75 103.05,-791.75 368.8,-791.75 368.8,-791.75 374.8,-791.75 380.8,-797.75 380.8,-803.75 380.8,-803.75 380.8,-815.75 380.8,-815.75 380.8,-821.75 374.8,-827.75 368.8,-827.75"/>
<text xml:space="preserve" text-anchor="middle" x="235.92" y="-805.08" font-family="Helvetica,sans-Serif" font-size="14.00">Get a processed sample run workspace</text>
</g>
<!-- isCanRunDefined -->
<g id="node17" class="node">
<title>isCanRunDefined</title>
<polygon fill="limegreen" stroke="black" points="235.92,-754.75 37.02,-736.75 235.92,-718.75 434.83,-736.75 235.92,-754.75"/>
<text xml:space="preserve" text-anchor="middle" x="235.92" y="-732.08" font-family="Helvetica,sans-Serif" font-size="14.00">Is container run specified?</text>
</g>
<!-- getProcessedSam&#45;&gt;isCanRunDefined -->
<g id="edge15" class="edge">
<title>getProcessedSam&#45;&gt;isCanRunDefined</title>
<path fill="none" stroke="black" d="M235.92,-791.56C235.92,-783.98 235.92,-774.85 235.92,-766.29"/>
<polygon fill="black" stroke="black" points="239.42,-766.29 235.92,-756.29 232.42,-766.29 239.42,-766.29"/>
</g>
<!-- compressEvents -->
<g id="node9" class="node">
<title>compressEvents</title>
<path fill="lightskyblue" stroke="black" d="M292.92,-417.25C292.92,-417.25 162.92,-417.25 162.92,-417.25 156.92,-417.25 150.92,-411.25 150.92,-405.25 150.92,-405.25 150.92,-393.25 150.92,-393.25 150.92,-387.25 156.92,-381.25 162.92,-381.25 162.92,-381.25 292.92,-381.25 292.92,-381.25 298.92,-381.25 304.92,-387.25 304.92,-393.25 304.92,-393.25 304.92,-405.25 304.92,-405.25 304.92,-411.25 298.92,-417.25 292.92,-417.25"/>
<text xml:space="preserve" text-anchor="middle" x="227.92" y="-394.57" font-family="Helvetica,sans-Serif" font-size="14.00">CompressEvents v1</text>
</g>
<!-- mustDataPositive -->
<g id="node19" class="node">
<title>mustDataPositive</title>
<polygon fill="limegreen" stroke="black" points="227.92,-344.25 0,-326.25 227.92,-308.25 455.84,-326.25 227.92,-344.25"/>
<text xml:space="preserve" text-anchor="middle" x="227.92" y="-321.57" font-family="Helvetica,sans-Serif" font-size="14.00">Does data have to be positive?</text>
</g>
<!-- compressEvents&#45;&gt;mustDataPositive -->
<g id="edge22" class="edge">
<title>compressEvents&#45;&gt;mustDataPositive</title>
<path fill="none" stroke="black" d="M227.92,-381.06C227.92,-373.48 227.92,-364.35 227.92,-355.79"/>
<polygon fill="black" stroke="black" points="231.42,-355.79 227.92,-345.79 224.42,-355.79 231.42,-355.79"/>
</g>
<!-- processCanRun -->
<g id="node10" class="node">
<title>processCanRun</title>
<path fill="lightskyblue" stroke="black" d="M587.05,-665.5C587.05,-665.5 268.8,-665.5 268.8,-665.5 262.8,-665.5 256.8,-659.5 256.8,-653.5 256.8,-653.5 256.8,-635 256.8,-635 256.8,-629 262.8,-623 268.8,-623 268.8,-623 587.05,-623 587.05,-623 593.05,-623 599.05,-629 599.05,-635 599.05,-635 599.05,-653.5 599.05,-653.5 599.05,-659.5 593.05,-665.5 587.05,-665.5"/>
<text xml:space="preserve" text-anchor="middle" x="427.92" y="-648.2" font-family="Helvetica,sans-Serif" font-size="14.00">Process Container Run</text>
<text xml:space="preserve" text-anchor="middle" x="427.92" y="-630.95" font-family="Helvetica,sans-Serif" font-size="14.00">(see workflow diagram &#39;Process Container Run&#39;</text>
</g>
<!-- isVanRunDefined -->
<g id="node18" class="node">
<title>isVanRunDefined</title>
<polygon fill="limegreen" stroke="black" points="231.92,-586 29.3,-568 231.92,-550 434.55,-568 231.92,-586"/>
<text xml:space="preserve" text-anchor="middle" x="231.92" y="-563.33" font-family="Helvetica,sans-Serif" font-size="14.00">Is Vanadium run specified?</text>
</g>
<!-- processCanRun&#45;&gt;isVanRunDefined -->
<g id="edge18" class="edge">
<title>processCanRun&#45;&gt;isVanRunDefined</title>
<path fill="none" stroke="black" d="M373.32,-622.57C343.9,-611.42 307.92,-597.79 279.63,-587.07"/>
<polygon fill="black" stroke="black" points="281.19,-583.92 270.6,-583.65 278.71,-590.47 281.19,-583.92"/>
</g>
<!-- processVanRun -->
<g id="node11" class="node">
<title>processVanRun</title>
<path fill="lightskyblue" stroke="black" d="M584.8,-496.75C584.8,-496.75 265.05,-496.75 265.05,-496.75 259.05,-496.75 253.05,-490.75 253.05,-484.75 253.05,-484.75 253.05,-466.25 253.05,-466.25 253.05,-460.25 259.05,-454.25 265.05,-454.25 265.05,-454.25 584.8,-454.25 584.8,-454.25 590.8,-454.25 596.8,-460.25 596.8,-466.25 596.8,-466.25 596.8,-484.75 596.8,-484.75 596.8,-490.75 590.8,-496.75 584.8,-496.75"/>
<text xml:space="preserve" text-anchor="middle" x="424.92" y="-479.45" font-family="Helvetica,sans-Serif" font-size="14.00">Process Vanadium Run</text>
<text xml:space="preserve" text-anchor="middle" x="424.92" y="-462.2" font-family="Helvetica,sans-Serif" font-size="14.00">(see workflow diagram &#39;Process Vanadium Run&#39;</text>
</g>
<!-- processVanRun&#45;&gt;compressEvents -->
<g id="edge21" class="edge">
<title>processVanRun&#45;&gt;compressEvents</title>
<path fill="none" stroke="black" d="M370.05,-453.82C343.53,-443.82 311.73,-431.84 284.94,-421.74"/>
<polygon fill="black" stroke="black" points="286.18,-418.47 275.59,-418.22 283.71,-425.02 286.18,-418.47"/>
</g>
<!-- resetNegatives -->
<g id="node12" class="node">
<title>resetNegatives</title>
<path fill="lightskyblue" stroke="black" d="M233.42,-255C233.42,-255 112.42,-255 112.42,-255 106.42,-255 100.42,-249 100.42,-243 100.42,-243 100.42,-231 100.42,-231 100.42,-225 106.42,-219 112.42,-219 112.42,-219 233.42,-219 233.42,-219 239.42,-219 245.42,-225 245.42,-231 245.42,-231 245.42,-243 245.42,-243 245.42,-249 239.42,-255 233.42,-255"/>
<text xml:space="preserve" text-anchor="middle" x="172.92" y="-232.32" font-family="Helvetica,sans-Serif" font-size="14.00">ResetNegatives v1</text>
</g>
<!-- scale -->
<g id="node13" class="node">
<title>scale</title>
<path fill="lightskyblue" stroke="black" d="M252.17,-182C252.17,-182 201.67,-182 201.67,-182 195.67,-182 189.67,-176 189.67,-170 189.67,-170 189.67,-158 189.67,-158 189.67,-152 195.67,-146 201.67,-146 201.67,-146 252.17,-146 252.17,-146 258.17,-146 264.17,-152 264.17,-158 264.17,-158 264.17,-170 264.17,-170 264.17,-176 258.17,-182 252.17,-182"/>
<text xml:space="preserve" text-anchor="middle" x="226.92" y="-159.32" font-family="Helvetica,sans-Serif" font-size="14.00">Scale v1</text>
</g>
<!-- resetNegatives&#45;&gt;scale -->
<g id="edge24" class="edge">
<title>resetNegatives&#45;&gt;scale</title>
<path fill="none" stroke="black" d="M185.99,-218.81C192.36,-210.44 200.15,-200.2 207.22,-190.9"/>
<polygon fill="black" stroke="black" points="209.79,-193.31 213.05,-183.23 204.21,-189.07 209.79,-193.31"/>
</g>
<!-- convertUnits -->
<g id="node14" class="node">
<title>convertUnits</title>
<path fill="lightskyblue" stroke="black" d="M279.17,-109C279.17,-109 174.67,-109 174.67,-109 168.67,-109 162.67,-103 162.67,-97 162.67,-97 162.67,-85 162.67,-85 162.67,-79 168.67,-73 174.67,-73 174.67,-73 279.17,-73 279.17,-73 285.17,-73 291.17,-79 291.17,-85 291.17,-85 291.17,-97 291.17,-97 291.17,-103 285.17,-109 279.17,-109"/>
<text xml:space="preserve" text-anchor="middle" x="226.92" y="-86.33" font-family="Helvetica,sans-Serif" font-size="14.00">ConvertUnits v1</text>
</g>
<!-- scale&#45;&gt;convertUnits -->
<g id="edge26" class="edge">
<title>scale&#45;&gt;convertUnits</title>
<path fill="none" stroke="black" d="M226.92,-145.81C226.92,-138.23 226.92,-129.1 226.92,-120.54"/>
<polygon fill="black" stroke="black" points="230.42,-120.54 226.92,-110.54 223.42,-120.54 230.42,-120.54"/>
</g>
<!-- convertUnits&#45;&gt;OutputWorkspaces -->
<g id="edge27" class="edge">
<title>convertUnits&#45;&gt;OutputWorkspaces</title>
<path fill="none" stroke="black" d="M226.92,-72.81C226.92,-65.23 226.92,-56.1 226.92,-47.54"/>
<polygon fill="black" stroke="black" points="230.42,-47.54 226.92,-37.54 223.42,-47.54 230.42,-47.54"/>
</g>
<!-- isSum&#45;&gt;focusAndSum -->
<g id="edge2" class="edge">
<title>isSum&#45;&gt;focusAndSum</title>
<path fill="none" stroke="black" d="M109.25,-1353.31C101.28,-1331.16 91.04,-1290.98 108.42,-1263.25 117.7,-1248.45 132.31,-1237.61 147.94,-1229.7"/>
<polygon fill="black" stroke="black" points="149.32,-1232.91 156.94,-1225.55 146.39,-1226.56 149.32,-1232.91"/>
<text xml:space="preserve" text-anchor="middle" x="119.67" y="-1276.58" font-family="Helvetica,sans-Serif" font-size="14.00">Yes</text>
</g>
<!-- isSum&#45;&gt;getSampleRun -->
<g id="edge6" class="edge">
<title>isSum&#45;&gt;getSampleRun</title>
<path fill="none" stroke="black" d="M164.86,-1360.49C239.68,-1346.72 384.29,-1320.1 483.89,-1301.77"/>
<polygon fill="black" stroke="black" points="484.51,-1305.21 493.72,-1299.96 483.25,-1298.33 484.51,-1305.21"/>
<text xml:space="preserve" text-anchor="middle" x="404.75" y="-1321.2" font-family="Helvetica,sans-Serif" font-size="14.00">No</text>
</g>
<!-- isLastSampleRun -->
<g id="node16" class="node">
<title>isLastSampleRun</title>
<polygon fill="limegreen" stroke="black" points="462.92,-1027 247.65,-1009 462.92,-991 678.19,-1009 462.92,-1027"/>
<text xml:space="preserve" text-anchor="middle" x="462.92" y="-1004.33" font-family="Helvetica,sans-Serif" font-size="14.00">Is Last Sample Run Number?</text>
</g>
<!-- isLastSampleRun&#45;&gt;getSampleRun -->
<g id="edge12" class="edge">
<title>isLastSampleRun&#45;&gt;getSampleRun</title>
<path fill="none" stroke="black" d="M484.97,-1025.53C497.39,-1035.3 512.3,-1048.89 521.92,-1064 560.39,-1124.4 578.53,-1208.19 585.8,-1251.61"/>
<polygon fill="black" stroke="black" points="582.35,-1252.16 587.37,-1261.48 589.26,-1251.06 582.35,-1252.16"/>
<text xml:space="preserve" text-anchor="middle" x="576.76" y="-1158.95" font-family="Helvetica,sans-Serif" font-size="14.00">No</text>
</g>
<!-- isLastSampleRun&#45;&gt;SamRunList -->
<g id="edge13" class="edge">
<title>isLastSampleRun&#45;&gt;SamRunList</title>
<path fill="none" stroke="black" d="M431.36,-993.3C403.4,-980.27 361.24,-960.63 323.23,-942.92"/>
<polygon fill="black" stroke="black" points="325.06,-939.92 314.52,-938.87 322.11,-946.26 325.06,-939.92"/>
<text xml:space="preserve" text-anchor="middle" x="394.27" y="-959.7" font-family="Helvetica,sans-Serif" font-size="14.00">Yes</text>
</g>
<!-- isCanRunDefined&#45;&gt;processCanRun -->
<g id="edge17" class="edge">
<title>isCanRunDefined&#45;&gt;processCanRun</title>
<path fill="none" stroke="black" d="M266.77,-721.21C295.49,-707.67 338.95,-687.19 373.5,-670.9"/>
<polygon fill="black" stroke="black" points="374.99,-674.07 382.54,-666.64 372.01,-667.74 374.99,-674.07"/>
<text xml:space="preserve" text-anchor="middle" x="354.67" y="-687.45" font-family="Helvetica,sans-Serif" font-size="14.00">Yes</text>
</g>
<!-- isCanRunDefined&#45;&gt;isVanRunDefined -->
<g id="edge16" class="edge">
<title>isCanRunDefined&#45;&gt;isVanRunDefined</title>
<path fill="none" stroke="black" d="M233.79,-718.46C232.16,-704.26 230.04,-683.61 229.17,-665.5 228.27,-646.63 228.69,-641.88 229.17,-623 229.38,-614.68 229.78,-605.64 230.2,-597.38"/>
<polygon fill="black" stroke="black" points="233.69,-597.71 230.75,-587.53 226.7,-597.32 233.69,-597.71"/>
<text xml:space="preserve" text-anchor="middle" x="238.55" y="-639.58" font-family="Helvetica,sans-Serif" font-size="14.00">No</text>
</g>
<!-- isVanRunDefined&#45;&gt;compressEvents -->
<g id="edge19" class="edge">
<title>isVanRunDefined&#45;&gt;compressEvents</title>
<path fill="none" stroke="black" d="M229.79,-549.71C228.16,-535.51 226.04,-514.86 225.17,-496.75 224.27,-477.88 224.69,-473.13 225.17,-454.25 225.38,-445.93 225.78,-436.89 226.2,-428.63"/>
<polygon fill="black" stroke="black" points="229.69,-428.96 226.75,-418.78 222.7,-428.57 229.69,-428.96"/>
<text xml:space="preserve" text-anchor="middle" x="234.55" y="-470.82" font-family="Helvetica,sans-Serif" font-size="14.00">No</text>
</g>
<!-- isVanRunDefined&#45;&gt;processVanRun -->
<g id="edge20" class="edge">
<title>isVanRunDefined&#45;&gt;processVanRun</title>
<path fill="none" stroke="black" d="M262.93,-552.46C291.93,-538.86 335.86,-518.26 370.67,-501.94"/>
<polygon fill="black" stroke="black" points="371.74,-505.3 379.31,-497.89 368.77,-498.96 371.74,-505.3"/>
<text xml:space="preserve" text-anchor="middle" x="351.23" y="-518.7" font-family="Helvetica,sans-Serif" font-size="14.00">Yes</text>
</g>
<!-- mustDataPositive&#45;&gt;resetNegatives -->
<g id="edge23" class="edge">
<title>mustDataPositive&#45;&gt;resetNegatives</title>
<path fill="none" stroke="black" d="M217.58,-308.84C209.74,-296.41 198.81,-279.06 189.72,-264.65"/>
<polygon fill="black" stroke="black" points="192.89,-263.11 184.59,-256.51 186.96,-266.84 192.89,-263.11"/>
<text xml:space="preserve" text-anchor="middle" x="216.6" y="-276.95" font-family="Helvetica,sans-Serif" font-size="14.00">Yes</text>
</g>
<!-- mustDataPositive&#45;&gt;scale -->
<g id="edge25" class="edge">
<title>mustDataPositive&#45;&gt;scale</title>
<path fill="none" stroke="black" d="M236.91,-308.71C247.11,-287.82 261.43,-250.79 253.92,-219 251.75,-209.82 247.77,-200.42 243.52,-192.09"/>
<polygon fill="black" stroke="black" points="246.71,-190.62 238.84,-183.53 240.57,-193.99 246.71,-190.62"/>
<text xml:space="preserve" text-anchor="middle" x="265.39" y="-232.32" font-family="Helvetica,sans-Serif" font-size="14.00">No</text>
</g>
<!-- SamRun&#45;&gt;isLastSampleRun -->
<g id="edge11" class="edge">
<title>SamRun&#45;&gt;isLastSampleRun</title>
<path fill="none" stroke="black" d="M449.14,-1063.61C451.33,-1055.12 453.62,-1046.18 455.7,-1038.09"/>
<polygon fill="black" stroke="black" points="459.08,-1039.01 458.18,-1028.45 452.3,-1037.27 459.08,-1039.01"/>
</g>
<!-- SamRunList&#45;&gt;getProcessedSam -->
<g id="edge14" class="edge">
<title>SamRunList&#45;&gt;getProcessedSam</title>
<path fill="none" stroke="black" d="M235.92,-864.36C235.92,-856.1 235.92,-847.41 235.92,-839.49"/>
<polygon fill="black" stroke="black" points="239.42,-839.73 235.92,-829.73 232.42,-839.73 239.42,-839.73"/>
</g>
</g>
</svg>
