<?xml version="1.0" encoding="UTF-8" standalone="no"?>
<!DOCTYPE svg PUBLIC "-//W3C//DTD SVG 1.1//EN"
 "http://www.w3.org/Graphics/SVG/1.1/DTD/svg11.dtd">
<!-- Generated by graphviz version 13.1.1 (20250720.1534)
 -->
<!-- Title: SNSPowderReductionContainer Pages: 1 -->
<svg width="605pt" height="537pt"
 viewBox="0.00 0.00 605.00 537.00" xmlns="http://www.w3.org/2000/svg" xmlns:xlink="http://www.w3.org/1999/xlink">
<g id="graph0" class="graph" transform="scale(1 1) rotate(0) translate(4 532.5)">
<title>SNSPowderReductionContainer</title>
<polygon fill="white" stroke="none" points="-4,4 -4,-532.5 600.93,-532.5 600.93,4 -4,4"/>
<text xml:space="preserve" text-anchor="middle" x="298.46" y="-511.2" font-family="Helvetica,sans-Serif" font-size="14.00">Process Container Run Flowchart</text>
<!-- ContainerRunNumber -->
<g id="node1" class="node">
<title>ContainerRunNumber</title>
<ellipse fill="khaki" stroke="black" cx="479.96" cy="-485.25" rx="116.97" ry="18"/>
<text xml:space="preserve" text-anchor="middle" x="479.96" y="-480.57" font-family="Helvetica,sans-Serif" font-size="14.00">ContainerRunNumber</text>
</g>
<!-- isSum -->
<g id="node9" class="node">
<title>isSum</title>
<polygon fill="limegreen" stroke="black" points="479.96,-430.25 374.8,-412.25 479.96,-394.25 585.11,-412.25 479.96,-430.25"/>
<text xml:space="preserve" text-anchor="middle" x="479.96" y="-407.57" font-family="Helvetica,sans-Serif" font-size="14.00">Is Sum True?</text>
</g>
<!-- ContainerRunNumber&#45;&gt;isSum -->
<g id="edge1" class="edge">
<title>ContainerRunNumber&#45;&gt;isSum</title>
<path fill="none" stroke="black" d="M479.96,-467.06C479.96,-459.48 479.96,-450.35 479.96,-441.79"/>
<polygon fill="black" stroke="black" points="483.46,-441.79 479.96,-431.79 476.46,-441.79 483.46,-441.79"/>
</g>
<!-- TimeFilterWall -->
<g id="node2" class="node">
<title>TimeFilterWall</title>
<ellipse fill="khaki" stroke="black" cx="277.96" cy="-412.25" rx="78.57" ry="18"/>
<text xml:space="preserve" text-anchor="middle" x="277.96" y="-407.57" font-family="Helvetica,sans-Serif" font-size="14.00">TimeFilterWall</text>
</g>
<!-- focusAndSum -->
<g id="node5" class="node">
<title>focusAndSum</title>
<path fill="lightskyblue" stroke="black" d="M377.46,-341C377.46,-341 286.46,-341 286.46,-341 280.46,-341 274.46,-335 274.46,-329 274.46,-329 274.46,-317 274.46,-317 274.46,-311 280.46,-305 286.46,-305 286.46,-305 377.46,-305 377.46,-305 383.46,-305 389.46,-311 389.46,-317 389.46,-317 389.46,-329 389.46,-329 389.46,-335 383.46,-341 377.46,-341"/>
<text xml:space="preserve" text-anchor="middle" x="331.96" y="-318.32" font-family="Helvetica,sans-Serif" font-size="14.00">FocusAndSum</text>
</g>
<!-- TimeFilterWall&#45;&gt;focusAndSum -->
<g id="edge3" class="edge">
<title>TimeFilterWall&#45;&gt;focusAndSum</title>
<path fill="none" stroke="black" d="M288.62,-394.01C296.24,-381.7 306.64,-364.91 315.34,-350.85"/>
<polygon fill="black" stroke="black" points="318.23,-352.83 320.51,-342.49 312.27,-349.15 318.23,-352.83"/>
</g>
<!-- focusChunks -->
<g id="node6" class="node">
<title>focusChunks</title>
<path fill="lightskyblue" stroke="black" d="M504.08,-341C504.08,-341 419.83,-341 419.83,-341 413.83,-341 407.83,-335 407.83,-329 407.83,-329 407.83,-317 407.83,-317 407.83,-311 413.83,-305 419.83,-305 419.83,-305 504.08,-305 504.08,-305 510.08,-305 516.08,-311 516.08,-317 516.08,-317 516.08,-329 516.08,-329 516.08,-335 510.08,-341 504.08,-341"/>
<text xml:space="preserve" text-anchor="middle" x="461.96" y="-318.32" font-family="Helvetica,sans-Serif" font-size="14.00">FocusChunks</text>
</g>
<!-- TimeFilterWall&#45;&gt;focusChunks -->
<g id="edge6" class="edge">
<title>TimeFilterWall&#45;&gt;focusChunks</title>
<path fill="none" stroke="black" d="M310.85,-395.65C339.86,-381.9 382.46,-361.69 415.04,-346.24"/>
<polygon fill="black" stroke="black" points="416.34,-349.51 423.87,-342.06 413.34,-343.18 416.34,-349.51"/>
</g>
<!-- BackgroundSmoothParameter -->
<g id="node3" class="node">
<title>BackgroundSmoothParameter</title>
<ellipse fill="khaki" stroke="black" cx="156.96" cy="-173.75" rx="156.96" ry="18"/>
<text xml:space="preserve" text-anchor="middle" x="156.96" y="-169.07" font-family="Helvetica,sans-Serif" font-size="14.00">BackgroundSmoothParameter</text>
</g>
<!-- fftSmooth -->
<g id="node8" class="node">
<title>fftSmooth</title>
<path fill="lightskyblue" stroke="black" d="M214.46,-115.5C214.46,-115.5 123.46,-115.5 123.46,-115.5 117.46,-115.5 111.46,-109.5 111.46,-103.5 111.46,-103.5 111.46,-85 111.46,-85 111.46,-79 117.46,-73 123.46,-73 123.46,-73 214.46,-73 214.46,-73 220.46,-73 226.46,-79 226.46,-85 226.46,-85 226.46,-103.5 226.46,-103.5 226.46,-109.5 220.46,-115.5 214.46,-115.5"/>
<text xml:space="preserve" text-anchor="middle" x="168.96" y="-98.2" font-family="Helvetica,sans-Serif" font-size="14.00">FFTSmooth v1</text>
<text xml:space="preserve" text-anchor="middle" x="168.96" y="-80.95" font-family="Helvetica,sans-Serif" font-size="14.00">Butterworth</text>
</g>
<!-- BackgroundSmoothParameter&#45;&gt;fftSmooth -->
<g id="edge10" class="edge">
<title>BackgroundSmoothParameter&#45;&gt;fftSmooth</title>
<path fill="none" stroke="black" d="M159.62,-155.55C160.91,-147.24 162.49,-137 163.99,-127.33"/>
<polygon fill="black" stroke="black" points="167.44,-127.9 165.51,-117.48 160.53,-126.83 167.44,-127.9"/>
</g>
<!-- ProcessedCanRun -->
<g id="node4" class="node">
<title>ProcessedCanRun</title>
<ellipse fill="khaki" stroke="black" cx="168.96" cy="-18" rx="98.03" ry="18"/>
<text xml:space="preserve" text-anchor="middle" x="168.96" y="-13.32" font-family="Helvetica,sans-Serif" font-size="14.00">ProcessedCanRun</text>
</g>
<!-- CanRunWorkspace -->
<g id="node10" class="node">
<title>CanRunWorkspace</title>
<polygon fill="grey" stroke="black" points="537.47,-268 312.35,-268 254.44,-232 479.56,-232 537.47,-268"/>
<text xml:space="preserve" text-anchor="middle" x="395.96" y="-243.82" font-family="Times,serif" font-size="14.00">ContainerRunWorkspace</text>
</g>
<!-- focusAndSum&#45;&gt;CanRunWorkspace -->
<g id="edge4" class="edge">
<title>focusAndSum&#45;&gt;CanRunWorkspace</title>
<path fill="none" stroke="black" d="M347.45,-304.81C355.15,-296.27 364.61,-285.77 373.13,-276.32"/>
<polygon fill="black" stroke="black" points="375.5,-278.92 379.59,-269.15 370.3,-274.24 375.5,-278.92"/>
</g>
<!-- focusChunks&#45;&gt;CanRunWorkspace -->
<g id="edge7" class="edge">
<title>focusChunks&#45;&gt;CanRunWorkspace</title>
<path fill="none" stroke="black" d="M445.98,-304.81C438.03,-296.27 428.28,-285.77 419.5,-276.32"/>
<polygon fill="black" stroke="black" points="422.19,-274.08 412.82,-269.14 417.06,-278.84 422.19,-274.08"/>
</g>
<!-- convertUnits1 -->
<g id="node7" class="node">
<title>convertUnits1</title>
<path fill="lightskyblue" stroke="black" d="M448.21,-195C448.21,-195 343.71,-195 343.71,-195 337.71,-195 331.71,-189 331.71,-183 331.71,-183 331.71,-164.5 331.71,-164.5 331.71,-158.5 337.71,-152.5 343.71,-152.5 343.71,-152.5 448.21,-152.5 448.21,-152.5 454.21,-152.5 460.21,-158.5 460.21,-164.5 460.21,-164.5 460.21,-183 460.21,-183 460.21,-189 454.21,-195 448.21,-195"/>
<text xml:space="preserve" text-anchor="middle" x="395.96" y="-177.7" font-family="Helvetica,sans-Serif" font-size="14.00">ConvertUnits v1</text>
<text xml:space="preserve" text-anchor="middle" x="395.96" y="-160.45" font-family="Helvetica,sans-Serif" font-size="14.00">to T.O.F.</text>
</g>
<!-- convertUnits1&#45;&gt;fftSmooth -->
<g id="edge9" class="edge">
<title>convertUnits1&#45;&gt;fftSmooth</title>
<path fill="none" stroke="black" d="M335.42,-152.08C305.23,-141.77 268.59,-129.27 237.38,-118.61"/>
<polygon fill="black" stroke="black" points="238.61,-115.33 228.02,-115.41 236.35,-121.96 238.61,-115.33"/>
</g>
<!-- fftSmooth&#45;&gt;ProcessedCanRun -->
<g id="edge11" class="edge">
<title>fftSmooth&#45;&gt;ProcessedCanRun</title>
<path fill="none" stroke="black" d="M168.96,-72.57C168.96,-64.75 168.96,-55.72 168.96,-47.32"/>
<polygon fill="black" stroke="black" points="172.46,-47.58 168.96,-37.58 165.46,-47.58 172.46,-47.58"/>
</g>
<!-- isSum&#45;&gt;focusAndSum -->
<g id="edge2" class="edge">
<title>isSum&#45;&gt;focusAndSum</title>
<path fill="none" stroke="black" d="M457.16,-397.81C434.26,-384.31 398.55,-363.26 371.11,-347.08"/>
<polygon fill="black" stroke="black" points="373.12,-344.2 362.72,-342.14 369.56,-350.23 373.12,-344.2"/>
<text xml:space="preserve" text-anchor="middle" x="430.46" y="-362.95" font-family="Helvetica,sans-Serif" font-size="14.00">Yes</text>
</g>
<!-- isSum&#45;&gt;focusChunks -->
<g id="edge5" class="edge">
<title>isSum&#45;&gt;focusChunks</title>
<path fill="none" stroke="black" d="M476.49,-394.43C474.03,-382.51 470.67,-366.24 467.8,-352.34"/>
<polygon fill="black" stroke="black" points="471.29,-351.94 465.85,-342.85 464.44,-353.35 471.29,-351.94"/>
<text xml:space="preserve" text-anchor="middle" x="481.94" y="-362.95" font-family="Helvetica,sans-Serif" font-size="14.00">No</text>
</g>
<!-- CanRunWorkspace&#45;&gt;convertUnits1 -->
<g id="edge8" class="edge">
<title>CanRunWorkspace&#45;&gt;convertUnits1</title>
<path fill="none" stroke="black" d="M395.96,-231.78C395.96,-224.3 395.96,-215.29 395.96,-206.66"/>
<polygon fill="black" stroke="black" points="399.46,-206.82 395.96,-196.82 392.46,-206.82 399.46,-206.82"/>
</g>
</g>
</svg>
