<?xml version="1.0" encoding="UTF-8" standalone="no"?>
<!DOCTYPE svg PUBLIC "-//W3C//DTD SVG 1.1//EN"
 "http://www.w3.org/Graphics/SVG/1.1/DTD/svg11.dtd">
<!-- Generated by graphviz version 13.0.1 (20250616.1512)
 -->
<!-- Pages: 1 -->
<svg width="736pt" height="206pt"
 viewBox="0.00 0.00 736.00 206.00" xmlns="http://www.w3.org/2000/svg" xmlns:xlink="http://www.w3.org/1999/xlink">
<g id="graph0" class="graph" transform="scale(1 1) rotate(0) translate(4 202.25)">
<polygon fill="white" stroke="none" points="-4,4 -4,-202.25 732.11,-202.25 732.11,4 -4,4"/>
<!-- Method -->
<g id="node1" class="node">
<title>Method</title>
<ellipse fill="khaki" stroke="black" cx="47.53" cy="-180.25" rx="47.53" ry="18"/>
<text xml:space="preserve" text-anchor="middle" x="47.53" y="-175.57" font-family="Helvetica,sans-Serif" font-size="14.00">Method</text>
</g>
<!-- SofQW -->
<g id="node6" class="node">
<title>SofQW</title>
<path fill="lightskyblue" stroke="black" d="M408.15,-125.25C408.15,-125.25 368.9,-125.25 368.9,-125.25 362.9,-125.25 356.9,-119.25 356.9,-113.25 356.9,-113.25 356.9,-101.25 356.9,-101.25 356.9,-95.25 362.9,-89.25 368.9,-89.25 368.9,-89.25 408.15,-89.25 408.15,-89.25 414.15,-89.25 420.15,-95.25 420.15,-101.25 420.15,-101.25 420.15,-113.25 420.15,-113.25 420.15,-119.25 414.15,-125.25 408.15,-125.25"/>
<text xml:space="preserve" text-anchor="middle" x="388.53" y="-102.58" font-family="Helvetica,sans-Serif" font-size="14.00">SofQW</text>
</g>
<!-- Method&#45;&gt;SofQW -->
<g id="edge1" class="edge">
<title>Method&#45;&gt;SofQW</title>
<path fill="none" stroke="black" d="M83.25,-167.99C90.27,-165.95 97.6,-163.94 104.53,-162.25 189.2,-141.63 289.68,-124.14 345.55,-115.02"/>
<polygon fill="black" stroke="black" points="345.97,-118.5 355.29,-113.44 344.85,-111.58 345.97,-118.5"/>
</g>
<!-- InputWorkspace -->
<g id="node2" class="node">
<title>InputWorkspace</title>
<ellipse fill="khaki" stroke="black" cx="203.53" cy="-180.25" rx="90.14" ry="18"/>
<text xml:space="preserve" text-anchor="middle" x="203.53" y="-175.57" font-family="Helvetica,sans-Serif" font-size="14.00">InputWorkspace</text>
</g>
<!-- InputWorkspace&#45;&gt;SofQW -->
<g id="edge2" class="edge">
<title>InputWorkspace&#45;&gt;SofQW</title>
<path fill="none" stroke="black" d="M243.67,-163.84C273.9,-152.24 315.25,-136.37 346.04,-124.56"/>
<polygon fill="black" stroke="black" points="346.95,-127.95 355.04,-121.1 344.45,-121.42 346.95,-127.95"/>
</g>
<!-- QAxisBinning -->
<g id="node3" class="node">
<title>QAxisBinning</title>
<ellipse fill="khaki" stroke="black" cx="388.53" cy="-180.25" rx="76.99" ry="18"/>
<text xml:space="preserve" text-anchor="middle" x="388.53" y="-175.57" font-family="Helvetica,sans-Serif" font-size="14.00">QAxisBinning</text>
</g>
<!-- QAxisBinning&#45;&gt;SofQW -->
<g id="edge3" class="edge">
<title>QAxisBinning&#45;&gt;SofQW</title>
<path fill="none" stroke="black" d="M388.53,-162.06C388.53,-154.48 388.53,-145.35 388.53,-136.79"/>
<polygon fill="black" stroke="black" points="392.03,-136.79 388.53,-126.79 385.03,-136.79 392.03,-136.79"/>
</g>
<!-- EMode -->
<g id="node4" class="node">
<title>EMode</title>
<ellipse fill="khaki" stroke="black" cx="527.53" cy="-180.25" rx="43.84" ry="18"/>
<text xml:space="preserve" text-anchor="middle" x="527.53" y="-175.57" font-family="Helvetica,sans-Serif" font-size="14.00">EMode</text>
</g>
<!-- EMode&#45;&gt;SofQW -->
<g id="edge4" class="edge">
<title>EMode&#45;&gt;SofQW</title>
<path fill="none" stroke="black" d="M500.72,-165.56C480.89,-155.43 453.47,-141.42 430.7,-129.79"/>
<polygon fill="black" stroke="black" points="432.46,-126.76 421.96,-125.33 429.27,-132.99 432.46,-126.76"/>
</g>
<!-- EFixed -->
<g id="node5" class="node">
<title>EFixed</title>
<ellipse fill="khaki" stroke="black" cx="631.53" cy="-180.25" rx="42.26" ry="18"/>
<text xml:space="preserve" text-anchor="middle" x="631.53" y="-175.57" font-family="Helvetica,sans-Serif" font-size="14.00">EFixed</text>
</g>
<!-- EFixed&#45;&gt;SofQW -->
<g id="edge5" class="edge">
<title>EFixed&#45;&gt;SofQW</title>
<path fill="none" stroke="black" d="M599.22,-168.23C593.03,-166.19 586.59,-164.11 580.53,-162.25 529.61,-146.61 470.56,-130.27 431.54,-119.72"/>
<polygon fill="black" stroke="black" points="432.62,-116.39 422.06,-117.16 430.8,-123.14 432.62,-116.39"/>
</g>
<!-- SofQWCentre -->
<g id="node7" class="node">
<title>SofQWCentre</title>
<path fill="lightskyblue" stroke="black" d="M298.03,-36C298.03,-36 213.03,-36 213.03,-36 207.03,-36 201.03,-30 201.03,-24 201.03,-24 201.03,-12 201.03,-12 201.03,-6 207.03,0 213.03,0 213.03,0 298.03,0 298.03,0 304.03,0 310.03,-6 310.03,-12 310.03,-12 310.03,-24 310.03,-24 310.03,-30 304.03,-36 298.03,-36"/>
<text xml:space="preserve" text-anchor="middle" x="255.53" y="-13.32" font-family="Helvetica,sans-Serif" font-size="14.00">SofQWCentre</text>
</g>
<!-- SofQW&#45;&gt;SofQWCentre -->
<g id="edge6" class="edge">
<title>SofQW&#45;&gt;SofQWCentre</title>
<path fill="none" stroke="black" d="M356.56,-103.97C331.46,-100.56 297.15,-92.12 275.03,-71.25 268.27,-64.87 263.84,-55.94 260.94,-47.26"/>
<polygon fill="black" stroke="black" points="264.34,-46.42 258.34,-37.69 257.58,-48.25 264.34,-46.42"/>
<text xml:space="preserve" text-anchor="middle" x="329.78" y="-57.95" font-family="Helvetica,sans-Serif" font-size="14.00">Method=Centre</text>
</g>
<!-- SofQWPolygon -->
<g id="node8" class="node">
<title>SofQWPolygon</title>
<path fill="lightskyblue" stroke="black" d="M435.53,-36C435.53,-36 341.53,-36 341.53,-36 335.53,-36 329.53,-30 329.53,-24 329.53,-24 329.53,-12 329.53,-12 329.53,-6 335.53,0 341.53,0 341.53,0 435.53,0 435.53,0 441.53,0 447.53,-6 447.53,-12 447.53,-12 447.53,-24 447.53,-24 447.53,-30 441.53,-36 435.53,-36"/>
<text xml:space="preserve" text-anchor="middle" x="388.53" y="-13.32" font-family="Helvetica,sans-Serif" font-size="14.00">SofQWPolygon</text>
</g>
<!-- SofQW&#45;&gt;SofQWPolygon -->
<g id="edge7" class="edge">
<title>SofQW&#45;&gt;SofQWPolygon</title>
<path fill="none" stroke="black" d="M388.53,-89.01C388.53,-77.18 388.53,-61.2 388.53,-47.5"/>
<polygon fill="black" stroke="black" points="392.03,-47.72 388.53,-37.72 385.03,-47.72 392.03,-47.72"/>
<text xml:space="preserve" text-anchor="middle" x="447.78" y="-57.95" font-family="Helvetica,sans-Serif" font-size="14.00">Method=Polygon</text>
</g>
<!-- SofQWNormalisedPolygon -->
<g id="node9" class="node">
<title>SofQWNormalisedPolygon</title>
<path fill="lightskyblue" stroke="black" d="M649.53,-36C649.53,-36 477.53,-36 477.53,-36 471.53,-36 465.53,-30 465.53,-24 465.53,-24 465.53,-12 465.53,-12 465.53,-6 471.53,0 477.53,0 477.53,0 649.53,0 649.53,0 655.53,0 661.53,-6 661.53,-12 661.53,-12 661.53,-24 661.53,-24 661.53,-30 655.53,-36 649.53,-36"/>
<text xml:space="preserve" text-anchor="middle" x="563.53" y="-13.32" font-family="Helvetica,sans-Serif" font-size="14.00">SofQWNormalisedPolygon</text>
</g>
<!-- SofQW&#45;&gt;SofQWNormalisedPolygon -->
<g id="edge8" class="edge">
<title>SofQW&#45;&gt;SofQWNormalisedPolygon</title>
<path fill="none" stroke="black" d="M420.57,-101.55C446.24,-96.77 482.46,-87.65 510.53,-71.25 522.31,-64.36 533.4,-54.26 542.35,-44.77"/>
<polygon fill="black" stroke="black" points="544.84,-47.24 548.93,-37.46 539.64,-42.56 544.84,-47.24"/>
<text xml:space="preserve" text-anchor="middle" x="629.86" y="-57.95" font-family="Helvetica,sans-Serif" font-size="14.00">Method=NormalisedPolygon</text>
</g>
</g>
</svg>
