<?xml version="1.0" encoding="UTF-8" standalone="no"?>
<!DOCTYPE svg PUBLIC "-//W3C//DTD SVG 1.1//EN"
 "http://www.w3.org/Graphics/SVG/1.1/DTD/svg11.dtd">
<!-- Generated by graphviz version 13.1.2 (20250809.0930)
 -->
<!-- Title: SofQWMoments Pages: 1 -->
<svg width="654pt" height="1723pt"
 viewBox="0.00 0.00 654.00 1723.00" xmlns="http://www.w3.org/2000/svg" xmlns:xlink="http://www.w3.org/1999/xlink">
<g id="graph0" class="graph" transform="scale(1 1) rotate(0) translate(4 1719.25)">
<title>SofQWMoments</title>
<polygon fill="white" stroke="none" points="-4,4 -4,-1719.25 649.91,-1719.25 649.91,4 -4,4"/>
<text xml:space="preserve" text-anchor="middle" x="322.96" y="-1697.95" font-family="Helvetica,sans-Serif" font-size="14.00">SofQWMoments Flowchart</text>
<!-- NoScaleFactor -->
<g id="node1" class="node">
<title>NoScaleFactor</title>
<polygon fill="limegreen" stroke="black" points="434.5,-1544 304.05,-1526 434.5,-1508 564.95,-1526 434.5,-1544"/>
<text xml:space="preserve" text-anchor="middle" x="434.5" y="-1521.33" font-family="Helvetica,sans-Serif" font-size="14.00">ScaleFactor is 1?</text>
</g>
<!-- Scale -->
<g id="node9" class="node">
<title>Scale</title>
<path fill="lightskyblue" stroke="black" d="M386.5,-1454.75C386.5,-1454.75 356.5,-1454.75 356.5,-1454.75 350.5,-1454.75 344.5,-1448.75 344.5,-1442.75 344.5,-1442.75 344.5,-1430.75 344.5,-1430.75 344.5,-1424.75 350.5,-1418.75 356.5,-1418.75 356.5,-1418.75 386.5,-1418.75 386.5,-1418.75 392.5,-1418.75 398.5,-1424.75 398.5,-1430.75 398.5,-1430.75 398.5,-1442.75 398.5,-1442.75 398.5,-1448.75 392.5,-1454.75 386.5,-1454.75"/>
<text xml:space="preserve" text-anchor="middle" x="371.5" y="-1432.08" font-family="Helvetica,sans-Serif" font-size="14.00">Scale</text>
</g>
<!-- NoScaleFactor&#45;&gt;Scale -->
<g id="edge5" class="edge">
<title>NoScaleFactor&#45;&gt;Scale</title>
<path fill="none" stroke="black" d="M419.03,-1509.99C413.28,-1504.03 406.91,-1496.95 401.75,-1490 395.95,-1482.19 390.38,-1473.17 385.64,-1464.85"/>
<polygon fill="black" stroke="black" points="388.74,-1463.22 380.84,-1456.16 382.6,-1466.6 388.74,-1463.22"/>
<text xml:space="preserve" text-anchor="middle" x="411.12" y="-1476.7" font-family="Helvetica,sans-Serif" font-size="14.00">No</text>
</g>
<!-- ConvertToPointData -->
<g id="node10" class="node">
<title>ConvertToPointData</title>
<path fill="lightskyblue" stroke="black" d="M466.38,-1381.75C466.38,-1381.75 338.62,-1381.75 338.62,-1381.75 332.62,-1381.75 326.62,-1375.75 326.62,-1369.75 326.62,-1369.75 326.62,-1357.75 326.62,-1357.75 326.62,-1351.75 332.62,-1345.75 338.62,-1345.75 338.62,-1345.75 466.38,-1345.75 466.38,-1345.75 472.38,-1345.75 478.38,-1351.75 478.38,-1357.75 478.38,-1357.75 478.38,-1369.75 478.38,-1369.75 478.38,-1375.75 472.38,-1381.75 466.38,-1381.75"/>
<text xml:space="preserve" text-anchor="middle" x="402.5" y="-1359.08" font-family="Helvetica,sans-Serif" font-size="14.00">ConvertToPointData</text>
</g>
<!-- NoScaleFactor&#45;&gt;ConvertToPointData -->
<g id="edge8" class="edge">
<title>NoScaleFactor&#45;&gt;ConvertToPointData</title>
<path fill="none" stroke="black" d="M431.14,-1508.15C425.68,-1480.81 414.83,-1426.49 408.16,-1393.11"/>
<polygon fill="black" stroke="black" points="411.6,-1392.46 406.21,-1383.34 404.74,-1393.83 411.6,-1392.46"/>
<text xml:space="preserve" text-anchor="middle" x="431.61" y="-1432.08" font-family="Helvetica,sans-Serif" font-size="14.00">Yes</text>
</g>
<!-- Save -->
<g id="node2" class="node">
<title>Save</title>
<polygon fill="limegreen" stroke="black" points="514.5,-125.25 457.71,-107.25 514.5,-89.25 571.29,-107.25 514.5,-125.25"/>
<text xml:space="preserve" text-anchor="middle" x="514.5" y="-102.58" font-family="Helvetica,sans-Serif" font-size="14.00">Save?</text>
</g>
<!-- SaveNexusProcessed -->
<g id="node13" class="node">
<title>SaveNexusProcessed</title>
<path fill="lightskyblue" stroke="black" d="M584,-36C584,-36 445,-36 445,-36 439,-36 433,-30 433,-24 433,-24 433,-12 433,-12 433,-6 439,0 445,0 445,0 584,0 584,0 590,0 596,-6 596,-12 596,-12 596,-24 596,-24 596,-30 590,-36 584,-36"/>
<text xml:space="preserve" text-anchor="middle" x="514.5" y="-13.32" font-family="Helvetica,sans-Serif" font-size="14.00">SaveNexusProcessed</text>
</g>
<!-- Save&#45;&gt;SaveNexusProcessed -->
<g id="edge50" class="edge">
<title>Save&#45;&gt;SaveNexusProcessed</title>
<path fill="none" stroke="black" d="M514.5,-89.01C514.5,-77.18 514.5,-61.2 514.5,-47.5"/>
<polygon fill="black" stroke="black" points="518,-47.72 514.5,-37.72 511,-47.72 518,-47.72"/>
<text xml:space="preserve" text-anchor="middle" x="525.75" y="-57.95" font-family="Helvetica,sans-Serif" font-size="14.00">Yes</text>
</g>
<!-- Sample -->
<g id="node3" class="node">
<title>Sample</title>
<ellipse fill="khaki" stroke="black" cx="306.5" cy="-1672" rx="47.53" ry="18"/>
<text xml:space="preserve" text-anchor="middle" x="306.5" y="-1667.33" font-family="Helvetica,sans-Serif" font-size="14.00">Sample</text>
</g>
<!-- CropWorkspace -->
<g id="node8" class="node">
<title>CropWorkspace</title>
<path fill="lightskyblue" stroke="black" d="M484.5,-1617C484.5,-1617 384.5,-1617 384.5,-1617 378.5,-1617 372.5,-1611 372.5,-1605 372.5,-1605 372.5,-1593 372.5,-1593 372.5,-1587 378.5,-1581 384.5,-1581 384.5,-1581 484.5,-1581 484.5,-1581 490.5,-1581 496.5,-1587 496.5,-1593 496.5,-1593 496.5,-1605 496.5,-1605 496.5,-1611 490.5,-1617 484.5,-1617"/>
<text xml:space="preserve" text-anchor="middle" x="434.5" y="-1594.33" font-family="Helvetica,sans-Serif" font-size="14.00">CropWorkspace</text>
</g>
<!-- Sample&#45;&gt;CropWorkspace -->
<g id="edge1" class="edge">
<title>Sample&#45;&gt;CropWorkspace</title>
<path fill="none" stroke="black" d="M332.4,-1656.63C349.9,-1646.93 373.37,-1633.91 393.4,-1622.8"/>
<polygon fill="black" stroke="black" points="394.84,-1626 401.88,-1618.09 391.44,-1619.88 394.84,-1626"/>
</g>
<!-- ScaleFactor -->
<g id="node4" class="node">
<title>ScaleFactor</title>
<ellipse fill="khaki" stroke="black" cx="219.5" cy="-1526" rx="66.47" ry="18"/>
<text xml:space="preserve" text-anchor="middle" x="219.5" y="-1521.33" font-family="Helvetica,sans-Serif" font-size="14.00">ScaleFactor</text>
</g>
<!-- ScaleFactor&#45;&gt;Scale -->
<g id="edge6" class="edge">
<title>ScaleFactor&#45;&gt;Scale</title>
<path fill="none" stroke="black" d="M247.03,-1509.2C271.45,-1495.18 307.35,-1474.58 334.32,-1459.09"/>
<polygon fill="black" stroke="black" points="335.94,-1462.2 342.87,-1454.19 332.45,-1456.13 335.94,-1462.2"/>
</g>
<!-- EnergyMin -->
<g id="node5" class="node">
<title>EnergyMin</title>
<ellipse fill="khaki" stroke="black" cx="434.5" cy="-1672" rx="62.78" ry="18"/>
<text xml:space="preserve" text-anchor="middle" x="434.5" y="-1667.33" font-family="Helvetica,sans-Serif" font-size="14.00">EnergyMin</text>
</g>
<!-- EnergyMin&#45;&gt;CropWorkspace -->
<g id="edge2" class="edge">
<title>EnergyMin&#45;&gt;CropWorkspace</title>
<path fill="none" stroke="black" d="M434.5,-1653.81C434.5,-1646.23 434.5,-1637.1 434.5,-1628.54"/>
<polygon fill="black" stroke="black" points="438,-1628.54 434.5,-1618.54 431,-1628.54 438,-1628.54"/>
</g>
<!-- EnergyMax -->
<g id="node6" class="node">
<title>EnergyMax</title>
<ellipse fill="khaki" stroke="black" cx="580.5" cy="-1672" rx="65.41" ry="18"/>
<text xml:space="preserve" text-anchor="middle" x="580.5" y="-1667.33" font-family="Helvetica,sans-Serif" font-size="14.00">EnergyMax</text>
</g>
<!-- EnergyMax&#45;&gt;CropWorkspace -->
<g id="edge3" class="edge">
<title>EnergyMax&#45;&gt;CropWorkspace</title>
<path fill="none" stroke="black" d="M549.18,-1655.77C529.22,-1646.06 503,-1633.31 480.67,-1622.45"/>
<polygon fill="black" stroke="black" points="482.28,-1619.34 471.75,-1618.12 479.22,-1625.64 482.28,-1619.34"/>
</g>
<!-- OutputWorkspace -->
<g id="node7" class="node">
<title>OutputWorkspace</title>
<ellipse fill="khaki" stroke="black" cx="341.5" cy="-107.25" rx="98.56" ry="18"/>
<text xml:space="preserve" text-anchor="middle" x="341.5" y="-102.58" font-family="Helvetica,sans-Serif" font-size="14.00">OutputWorkspace</text>
</g>
<!-- CropWorkspace&#45;&gt;NoScaleFactor -->
<g id="edge4" class="edge">
<title>CropWorkspace&#45;&gt;NoScaleFactor</title>
<path fill="none" stroke="black" d="M434.5,-1580.81C434.5,-1573.23 434.5,-1564.1 434.5,-1555.54"/>
<polygon fill="black" stroke="black" points="438,-1555.54 434.5,-1545.54 431,-1555.54 438,-1555.54"/>
</g>
<!-- Scale&#45;&gt;ConvertToPointData -->
<g id="edge7" class="edge">
<title>Scale&#45;&gt;ConvertToPointData</title>
<path fill="none" stroke="black" d="M379,-1418.56C382.47,-1410.63 386.67,-1401.01 390.55,-1392.11"/>
<polygon fill="black" stroke="black" points="393.67,-1393.73 394.46,-1383.17 387.25,-1390.93 393.67,-1393.73"/>
</g>
<!-- CreateWorkspace -->
<g id="node11" class="node">
<title>CreateWorkspace</title>
<path fill="lightskyblue" stroke="black" d="M362.88,-1292.5C362.88,-1292.5 250.12,-1292.5 250.12,-1292.5 244.12,-1292.5 238.12,-1286.5 238.12,-1280.5 238.12,-1280.5 238.12,-1268.5 238.12,-1268.5 238.12,-1262.5 244.12,-1256.5 250.12,-1256.5 250.12,-1256.5 362.88,-1256.5 362.88,-1256.5 368.88,-1256.5 374.88,-1262.5 374.88,-1268.5 374.88,-1268.5 374.88,-1280.5 374.88,-1280.5 374.88,-1286.5 368.88,-1292.5 362.88,-1292.5"/>
<text xml:space="preserve" text-anchor="middle" x="306.5" y="-1269.83" font-family="Helvetica,sans-Serif" font-size="14.00">CreateWorkspace</text>
</g>
<!-- ConvertToPointData&#45;&gt;CreateWorkspace -->
<g id="edge9" class="edge">
<title>ConvertToPointData&#45;&gt;CreateWorkspace</title>
<path fill="none" stroke="black" d="M353.54,-1345.41C344.68,-1340.68 336.1,-1334.85 329.25,-1327.75 322.75,-1321.02 317.95,-1312.13 314.48,-1303.6"/>
<polygon fill="black" stroke="black" points="317.79,-1302.48 311.15,-1294.22 311.2,-1304.82 317.79,-1302.48"/>
<text xml:space="preserve" text-anchor="middle" x="358.88" y="-1314.45" font-family="Helvetica,sans-Serif" font-size="14.00">X values</text>
</g>
<!-- ConvertToHistogram -->
<g id="node12" class="node">
<title>ConvertToHistogram</title>
<path fill="lightskyblue" stroke="black" d="M563,-1238.5C563,-1238.5 430,-1238.5 430,-1238.5 424,-1238.5 418,-1232.5 418,-1226.5 418,-1226.5 418,-1214.5 418,-1214.5 418,-1208.5 424,-1202.5 430,-1202.5 430,-1202.5 563,-1202.5 563,-1202.5 569,-1202.5 575,-1208.5 575,-1214.5 575,-1214.5 575,-1226.5 575,-1226.5 575,-1232.5 569,-1238.5 563,-1238.5"/>
<text xml:space="preserve" text-anchor="middle" x="496.5" y="-1215.83" font-family="Helvetica,sans-Serif" font-size="14.00">ConvertToHistogram</text>
</g>
<!-- ConvertToPointData&#45;&gt;ConvertToHistogram -->
<g id="edge18" class="edge">
<title>ConvertToPointData&#45;&gt;ConvertToHistogram</title>
<path fill="none" stroke="black" d="M414.03,-1345.43C430.16,-1321.18 459.64,-1276.88 478.64,-1248.34"/>
<polygon fill="black" stroke="black" points="481.41,-1250.49 484.04,-1240.22 475.59,-1246.61 481.41,-1250.49"/>
<text xml:space="preserve" text-anchor="middle" x="446.09" y="-1314.45" font-family="Helvetica,sans-Serif" font-size="14.00">M0</text>
</g>
<!-- Multiply_M1 -->
<g id="node15" class="node">
<title>Multiply_M1</title>
<path fill="lightskyblue" stroke="black" d="M284.88,-1184.5C284.88,-1184.5 238.12,-1184.5 238.12,-1184.5 232.12,-1184.5 226.12,-1178.5 226.12,-1172.5 226.12,-1172.5 226.12,-1160.5 226.12,-1160.5 226.12,-1154.5 232.12,-1148.5 238.12,-1148.5 238.12,-1148.5 284.88,-1148.5 284.88,-1148.5 290.88,-1148.5 296.88,-1154.5 296.88,-1160.5 296.88,-1160.5 296.88,-1172.5 296.88,-1172.5 296.88,-1178.5 290.88,-1184.5 284.88,-1184.5"/>
<text xml:space="preserve" text-anchor="middle" x="261.5" y="-1161.83" font-family="Helvetica,sans-Serif" font-size="14.00">Multiply</text>
</g>
<!-- ConvertToPointData&#45;&gt;Multiply_M1 -->
<g id="edge11" class="edge">
<title>ConvertToPointData&#45;&gt;Multiply_M1</title>
<path fill="none" stroke="black" d="M403.22,-1345.54C403.35,-1323.3 400.78,-1284.15 383.5,-1256.5 365.26,-1227.33 333.66,-1204.67 307.19,-1189.53"/>
<polygon fill="black" stroke="black" points="309.11,-1186.59 298.66,-1184.82 305.73,-1192.71 309.11,-1186.59"/>
</g>
<!-- CreateWorkspace&#45;&gt;Multiply_M1 -->
<g id="edge10" class="edge">
<title>CreateWorkspace&#45;&gt;Multiply_M1</title>
<path fill="none" stroke="black" d="M299.27,-1256.47C292.26,-1239.95 281.5,-1214.62 273.26,-1195.2"/>
<polygon fill="black" stroke="black" points="276.58,-1194.07 269.45,-1186.23 270.14,-1196.81 276.58,-1194.07"/>
<text xml:space="preserve" text-anchor="middle" x="301.16" y="-1215.83" font-family="Helvetica,sans-Serif" font-size="14.00">M1</text>
</g>
<!-- Multiply_M2 -->
<g id="node16" class="node">
<title>Multiply_M2</title>
<path fill="lightskyblue" stroke="black" d="M189.88,-1095.25C189.88,-1095.25 143.12,-1095.25 143.12,-1095.25 137.12,-1095.25 131.12,-1089.25 131.12,-1083.25 131.12,-1083.25 131.12,-1071.25 131.12,-1071.25 131.12,-1065.25 137.12,-1059.25 143.12,-1059.25 143.12,-1059.25 189.88,-1059.25 189.88,-1059.25 195.88,-1059.25 201.88,-1065.25 201.88,-1071.25 201.88,-1071.25 201.88,-1083.25 201.88,-1083.25 201.88,-1089.25 195.88,-1095.25 189.88,-1095.25"/>
<text xml:space="preserve" text-anchor="middle" x="166.5" y="-1072.58" font-family="Helvetica,sans-Serif" font-size="14.00">Multiply</text>
</g>
<!-- CreateWorkspace&#45;&gt;Multiply_M2 -->
<g id="edge12" class="edge">
<title>CreateWorkspace&#45;&gt;Multiply_M2</title>
<path fill="none" stroke="black" d="M275.97,-1256.18C251.06,-1240.53 216.78,-1215.26 196.5,-1184.5 180.94,-1160.9 173.35,-1129.22 169.71,-1106.61"/>
<polygon fill="black" stroke="black" points="173.2,-1106.3 168.33,-1096.9 166.28,-1107.29 173.2,-1106.3"/>
<text xml:space="preserve" text-anchor="middle" x="207" y="-1161.83" font-family="Helvetica,sans-Serif" font-size="14.00">M2</text>
</g>
<!-- Multiply_M3 -->
<g id="node17" class="node">
<title>Multiply_M3</title>
<path fill="lightskyblue" stroke="black" d="M337.88,-987.25C337.88,-987.25 291.12,-987.25 291.12,-987.25 285.12,-987.25 279.12,-981.25 279.12,-975.25 279.12,-975.25 279.12,-963.25 279.12,-963.25 279.12,-957.25 285.12,-951.25 291.12,-951.25 291.12,-951.25 337.88,-951.25 337.88,-951.25 343.88,-951.25 349.88,-957.25 349.88,-963.25 349.88,-963.25 349.88,-975.25 349.88,-975.25 349.88,-981.25 343.88,-987.25 337.88,-987.25"/>
<text xml:space="preserve" text-anchor="middle" x="314.5" y="-964.58" font-family="Helvetica,sans-Serif" font-size="14.00">Multiply</text>
</g>
<!-- CreateWorkspace&#45;&gt;Multiply_M3 -->
<g id="edge14" class="edge">
<title>CreateWorkspace&#45;&gt;Multiply_M3</title>
<path fill="none" stroke="black" d="M308.32,-1256.05C312.24,-1217.4 321.39,-1121.67 324.5,-1041.25 325.12,-1025.26 326.72,-1021.1 324.5,-1005.25 324.19,-1003.04 323.78,-1000.78 323.29,-998.52"/>
<polygon fill="black" stroke="black" points="326.71,-997.77 320.83,-988.96 319.94,-999.51 326.71,-997.77"/>
</g>
<!-- Multiply_M4 -->
<g id="node18" class="node">
<title>Multiply_M4</title>
<path fill="lightskyblue" stroke="black" d="M378.88,-879.25C378.88,-879.25 332.12,-879.25 332.12,-879.25 326.12,-879.25 320.12,-873.25 320.12,-867.25 320.12,-867.25 320.12,-855.25 320.12,-855.25 320.12,-849.25 326.12,-843.25 332.12,-843.25 332.12,-843.25 378.88,-843.25 378.88,-843.25 384.88,-843.25 390.88,-849.25 390.88,-855.25 390.88,-855.25 390.88,-867.25 390.88,-867.25 390.88,-873.25 384.88,-879.25 378.88,-879.25"/>
<text xml:space="preserve" text-anchor="middle" x="355.5" y="-856.58" font-family="Helvetica,sans-Serif" font-size="14.00">Multiply</text>
</g>
<!-- CreateWorkspace&#45;&gt;Multiply_M4 -->
<g id="edge16" class="edge">
<title>CreateWorkspace&#45;&gt;Multiply_M4</title>
<path fill="none" stroke="black" d="M327.42,-1256.34C348.36,-1237.11 377.5,-1203.83 377.5,-1167.5 377.5,-1167.5 377.5,-1167.5 377.5,-968.25 377.5,-941.45 370.67,-911.62 364.63,-890.45"/>
<polygon fill="black" stroke="black" points="368.05,-889.68 361.83,-881.1 361.34,-891.68 368.05,-889.68"/>
<text xml:space="preserve" text-anchor="middle" x="388" y="-1072.58" font-family="Helvetica,sans-Serif" font-size="14.00">M4</text>
</g>
<!-- Integration_M0 -->
<g id="node34" class="node">
<title>Integration_M0</title>
<path fill="lightskyblue" stroke="black" d="M500.75,-663.25C500.75,-663.25 432.25,-663.25 432.25,-663.25 426.25,-663.25 420.25,-657.25 420.25,-651.25 420.25,-651.25 420.25,-639.25 420.25,-639.25 420.25,-633.25 426.25,-627.25 432.25,-627.25 432.25,-627.25 500.75,-627.25 500.75,-627.25 506.75,-627.25 512.75,-633.25 512.75,-639.25 512.75,-639.25 512.75,-651.25 512.75,-651.25 512.75,-657.25 506.75,-663.25 500.75,-663.25"/>
<text xml:space="preserve" text-anchor="middle" x="466.5" y="-640.58" font-family="Helvetica,sans-Serif" font-size="14.00">Integration</text>
</g>
<!-- ConvertToHistogram&#45;&gt;Integration_M0 -->
<g id="edge19" class="edge">
<title>ConvertToHistogram&#45;&gt;Integration_M0</title>
<path fill="none" stroke="black" d="M492.16,-1202.17C487.73,-1182.93 481.5,-1150.89 481.5,-1122.88 481.5,-1122.88 481.5,-1122.88 481.5,-752.25 481.5,-725.71 476.83,-695.81 472.71,-674.54"/>
<polygon fill="black" stroke="black" points="476.17,-673.99 470.74,-664.89 469.31,-675.38 476.17,-673.99"/>
<text xml:space="preserve" text-anchor="middle" x="492" y="-964.58" font-family="Helvetica,sans-Serif" font-size="14.00">M0</text>
</g>
<!-- GroupWorkspaces -->
<g id="node14" class="node">
<title>GroupWorkspaces</title>
<path fill="lightskyblue" stroke="black" d="M412.12,-198.25C412.12,-198.25 294.88,-198.25 294.88,-198.25 288.88,-198.25 282.88,-192.25 282.88,-186.25 282.88,-186.25 282.88,-174.25 282.88,-174.25 282.88,-168.25 288.88,-162.25 294.88,-162.25 294.88,-162.25 412.12,-162.25 412.12,-162.25 418.12,-162.25 424.12,-168.25 424.12,-174.25 424.12,-174.25 424.12,-186.25 424.12,-186.25 424.12,-192.25 418.12,-198.25 412.12,-198.25"/>
<text xml:space="preserve" text-anchor="middle" x="353.5" y="-175.57" font-family="Helvetica,sans-Serif" font-size="14.00">GroupWorkspaces</text>
</g>
<!-- GroupWorkspaces&#45;&gt;Save -->
<g id="edge49" class="edge">
<title>GroupWorkspaces&#45;&gt;Save</title>
<path fill="none" stroke="black" d="M392.89,-161.88C419.93,-149.96 455.43,-134.3 481.09,-122.98"/>
<polygon fill="black" stroke="black" points="482.31,-126.27 490.05,-119.03 479.49,-119.86 482.31,-126.27"/>
</g>
<!-- GroupWorkspaces&#45;&gt;OutputWorkspace -->
<g id="edge48" class="edge">
<title>GroupWorkspaces&#45;&gt;OutputWorkspace</title>
<path fill="none" stroke="black" d="M350.6,-162.06C349.3,-154.39 347.74,-145.14 346.27,-136.49"/>
<polygon fill="black" stroke="black" points="349.75,-136.05 344.63,-126.77 342.85,-137.21 349.75,-136.05"/>
</g>
<!-- Multiply_M1&#45;&gt;Multiply_M2 -->
<g id="edge13" class="edge">
<title>Multiply_M1&#45;&gt;Multiply_M2</title>
<path fill="none" stroke="black" d="M242.73,-1148.26C228.68,-1135.36 209.25,-1117.51 193.53,-1103.07"/>
<polygon fill="black" stroke="black" points="196.08,-1100.66 186.34,-1096.48 191.34,-1105.82 196.08,-1100.66"/>
</g>
<!-- ConvertToHistogram_M1 -->
<g id="node28" class="node">
<title>ConvertToHistogram_M1</title>
<path fill="lightskyblue" stroke="black" d="M311,-1041.25C311,-1041.25 178,-1041.25 178,-1041.25 172,-1041.25 166,-1035.25 166,-1029.25 166,-1029.25 166,-1017.25 166,-1017.25 166,-1011.25 172,-1005.25 178,-1005.25 178,-1005.25 311,-1005.25 311,-1005.25 317,-1005.25 323,-1011.25 323,-1017.25 323,-1017.25 323,-1029.25 323,-1029.25 323,-1035.25 317,-1041.25 311,-1041.25"/>
<text xml:space="preserve" text-anchor="middle" x="244.5" y="-1018.58" font-family="Helvetica,sans-Serif" font-size="14.00">ConvertToHistogram</text>
</g>
<!-- Multiply_M1&#45;&gt;ConvertToHistogram_M1 -->
<g id="edge20" class="edge">
<title>Multiply_M1&#45;&gt;ConvertToHistogram_M1</title>
<path fill="none" stroke="black" d="M259.42,-1148.18C256.56,-1124.46 251.4,-1081.56 247.96,-1052.98"/>
<polygon fill="black" stroke="black" points="251.45,-1052.72 246.78,-1043.21 244.5,-1053.56 251.45,-1052.72"/>
<text xml:space="preserve" text-anchor="middle" x="267.7" y="-1117.2" font-family="Helvetica,sans-Serif" font-size="14.00">M1</text>
</g>
<!-- Multiply_M2&#45;&gt;Multiply_M3 -->
<g id="edge15" class="edge">
<title>Multiply_M2&#45;&gt;Multiply_M3</title>
<path fill="none" stroke="black" d="M135.28,-1058.81C129.32,-1053.94 123.89,-1048.08 120.5,-1041.25 113.39,-1026.91 110.24,-1017.53 120.5,-1005.25 138.88,-983.26 216.22,-975.06 267.52,-972.02"/>
<polygon fill="black" stroke="black" points="267.69,-975.52 277.49,-971.48 267.31,-968.53 267.69,-975.52"/>
</g>
<!-- ConvertToHistogram_M2 -->
<g id="node29" class="node">
<title>ConvertToHistogram_M2</title>
<path fill="lightskyblue" stroke="black" d="M206,-933.25C206,-933.25 73,-933.25 73,-933.25 67,-933.25 61,-927.25 61,-921.25 61,-921.25 61,-909.25 61,-909.25 61,-903.25 67,-897.25 73,-897.25 73,-897.25 206,-897.25 206,-897.25 212,-897.25 218,-903.25 218,-909.25 218,-909.25 218,-921.25 218,-921.25 218,-927.25 212,-933.25 206,-933.25"/>
<text xml:space="preserve" text-anchor="middle" x="139.5" y="-910.58" font-family="Helvetica,sans-Serif" font-size="14.00">ConvertToHistogram</text>
</g>
<!-- Multiply_M2&#45;&gt;ConvertToHistogram_M2 -->
<g id="edge24" class="edge">
<title>Multiply_M2&#45;&gt;ConvertToHistogram_M2</title>
<path fill="none" stroke="black" d="M146.92,-1059.08C142.29,-1053.87 137.98,-1047.78 135.5,-1041.25 123.55,-1009.74 127.56,-970.48 132.57,-944.46"/>
<polygon fill="black" stroke="black" points="135.93,-945.5 134.58,-934.99 129.08,-944.05 135.93,-945.5"/>
<text xml:space="preserve" text-anchor="middle" x="146" y="-1018.58" font-family="Helvetica,sans-Serif" font-size="14.00">M2</text>
</g>
<!-- Multiply_M3&#45;&gt;Multiply_M4 -->
<g id="edge17" class="edge">
<title>Multiply_M3&#45;&gt;Multiply_M4</title>
<path fill="none" stroke="black" d="M321.09,-951.22C327.45,-934.78 337.18,-909.6 344.68,-890.22"/>
<polygon fill="black" stroke="black" points="347.9,-891.59 348.25,-881 341.37,-889.07 347.9,-891.59"/>
</g>
<!-- ConvertToHistogram_M4 -->
<g id="node30" class="node">
<title>ConvertToHistogram_M4</title>
<path fill="lightskyblue" stroke="black" d="M422,-771.25C422,-771.25 289,-771.25 289,-771.25 283,-771.25 277,-765.25 277,-759.25 277,-759.25 277,-747.25 277,-747.25 277,-741.25 283,-735.25 289,-735.25 289,-735.25 422,-735.25 422,-735.25 428,-735.25 434,-741.25 434,-747.25 434,-747.25 434,-759.25 434,-759.25 434,-765.25 428,-771.25 422,-771.25"/>
<text xml:space="preserve" text-anchor="middle" x="355.5" y="-748.58" font-family="Helvetica,sans-Serif" font-size="14.00">ConvertToHistogram</text>
</g>
<!-- Multiply_M4&#45;&gt;ConvertToHistogram_M4 -->
<g id="edge28" class="edge">
<title>Multiply_M4&#45;&gt;ConvertToHistogram_M4</title>
<path fill="none" stroke="black" d="M355.5,-843.22C355.5,-827.01 355.5,-802.31 355.5,-783.04"/>
<polygon fill="black" stroke="black" points="359,-783.1 355.5,-773.1 352,-783.1 359,-783.1"/>
<text xml:space="preserve" text-anchor="middle" x="366" y="-802.58" font-family="Helvetica,sans-Serif" font-size="14.00">M4</text>
</g>
<!-- Transpose_M0 -->
<g id="node19" class="node">
<title>Transpose_M0</title>
<path fill="lightskyblue" stroke="black" d="M521.75,-574C521.75,-574 459.25,-574 459.25,-574 453.25,-574 447.25,-568 447.25,-562 447.25,-562 447.25,-550 447.25,-550 447.25,-544 453.25,-538 459.25,-538 459.25,-538 521.75,-538 521.75,-538 527.75,-538 533.75,-544 533.75,-550 533.75,-550 533.75,-562 533.75,-562 533.75,-568 527.75,-574 521.75,-574"/>
<text xml:space="preserve" text-anchor="middle" x="490.5" y="-551.33" font-family="Helvetica,sans-Serif" font-size="14.00">Transpose</text>
</g>
<!-- ConvertToHistogram_M0 -->
<g id="node27" class="node">
<title>ConvertToHistogram_M0</title>
<path fill="lightskyblue" stroke="black" d="M602,-484.75C602,-484.75 469,-484.75 469,-484.75 463,-484.75 457,-478.75 457,-472.75 457,-472.75 457,-460.75 457,-460.75 457,-454.75 463,-448.75 469,-448.75 469,-448.75 602,-448.75 602,-448.75 608,-448.75 614,-454.75 614,-460.75 614,-460.75 614,-472.75 614,-472.75 614,-478.75 608,-484.75 602,-484.75"/>
<text xml:space="preserve" text-anchor="middle" x="535.5" y="-462.07" font-family="Helvetica,sans-Serif" font-size="14.00">ConvertToHistogram</text>
</g>
<!-- Transpose_M0&#45;&gt;ConvertToHistogram_M0 -->
<g id="edge33" class="edge">
<title>Transpose_M0&#45;&gt;ConvertToHistogram_M0</title>
<path fill="none" stroke="black" d="M499.39,-537.76C505.68,-525.57 514.23,-508.98 521.44,-495.01"/>
<polygon fill="black" stroke="black" points="524.46,-496.79 525.93,-486.3 518.24,-493.58 524.46,-496.79"/>
<text xml:space="preserve" text-anchor="middle" x="527.53" y="-506.7" font-family="Helvetica,sans-Serif" font-size="14.00">M0</text>
</g>
<!-- Transpose_M1 -->
<g id="node20" class="node">
<title>Transpose_M1</title>
<path fill="lightskyblue" stroke="black" d="M284.75,-484.75C284.75,-484.75 222.25,-484.75 222.25,-484.75 216.25,-484.75 210.25,-478.75 210.25,-472.75 210.25,-472.75 210.25,-460.75 210.25,-460.75 210.25,-454.75 216.25,-448.75 222.25,-448.75 222.25,-448.75 284.75,-448.75 284.75,-448.75 290.75,-448.75 296.75,-454.75 296.75,-460.75 296.75,-460.75 296.75,-472.75 296.75,-472.75 296.75,-478.75 290.75,-484.75 284.75,-484.75"/>
<text xml:space="preserve" text-anchor="middle" x="253.5" y="-462.07" font-family="Helvetica,sans-Serif" font-size="14.00">Transpose</text>
</g>
<!-- ConvertToHistogram_M1_2 -->
<g id="node31" class="node">
<title>ConvertToHistogram_M1_2</title>
<path fill="lightskyblue" stroke="black" d="M320,-395.5C320,-395.5 187,-395.5 187,-395.5 181,-395.5 175,-389.5 175,-383.5 175,-383.5 175,-371.5 175,-371.5 175,-365.5 181,-359.5 187,-359.5 187,-359.5 320,-359.5 320,-359.5 326,-359.5 332,-365.5 332,-371.5 332,-371.5 332,-383.5 332,-383.5 332,-389.5 326,-395.5 320,-395.5"/>
<text xml:space="preserve" text-anchor="middle" x="253.5" y="-372.82" font-family="Helvetica,sans-Serif" font-size="14.00">ConvertToHistogram</text>
</g>
<!-- Transpose_M1&#45;&gt;ConvertToHistogram_M1_2 -->
<g id="edge36" class="edge">
<title>Transpose_M1&#45;&gt;ConvertToHistogram_M1_2</title>
<path fill="none" stroke="black" d="M253.5,-448.51C253.5,-436.68 253.5,-420.7 253.5,-407"/>
<polygon fill="black" stroke="black" points="257,-407.22 253.5,-397.22 250,-407.22 257,-407.22"/>
<text xml:space="preserve" text-anchor="middle" x="264" y="-417.45" font-family="Helvetica,sans-Serif" font-size="14.00">M1</text>
</g>
<!-- Transpose_M2 -->
<g id="node21" class="node">
<title>Transpose_M2</title>
<path fill="lightskyblue" stroke="black" d="M170.75,-484.75C170.75,-484.75 108.25,-484.75 108.25,-484.75 102.25,-484.75 96.25,-478.75 96.25,-472.75 96.25,-472.75 96.25,-460.75 96.25,-460.75 96.25,-454.75 102.25,-448.75 108.25,-448.75 108.25,-448.75 170.75,-448.75 170.75,-448.75 176.75,-448.75 182.75,-454.75 182.75,-460.75 182.75,-460.75 182.75,-472.75 182.75,-472.75 182.75,-478.75 176.75,-484.75 170.75,-484.75"/>
<text xml:space="preserve" text-anchor="middle" x="139.5" y="-462.07" font-family="Helvetica,sans-Serif" font-size="14.00">Transpose</text>
</g>
<!-- ConvertToHistogram_M2_2 -->
<g id="node32" class="node">
<title>ConvertToHistogram_M2_2</title>
<path fill="lightskyblue" stroke="black" d="M145,-395.5C145,-395.5 12,-395.5 12,-395.5 6,-395.5 0,-389.5 0,-383.5 0,-383.5 0,-371.5 0,-371.5 0,-365.5 6,-359.5 12,-359.5 12,-359.5 145,-359.5 145,-359.5 151,-359.5 157,-365.5 157,-371.5 157,-371.5 157,-383.5 157,-383.5 157,-389.5 151,-395.5 145,-395.5"/>
<text xml:space="preserve" text-anchor="middle" x="78.5" y="-372.82" font-family="Helvetica,sans-Serif" font-size="14.00">ConvertToHistogram</text>
</g>
<!-- Transpose_M2&#45;&gt;ConvertToHistogram_M2_2 -->
<g id="edge39" class="edge">
<title>Transpose_M2&#45;&gt;ConvertToHistogram_M2_2</title>
<path fill="none" stroke="black" d="M127.45,-448.51C118.76,-436.08 106.87,-419.08 96.99,-404.94"/>
<polygon fill="black" stroke="black" points="99.99,-403.13 91.39,-396.94 94.26,-407.14 99.99,-403.13"/>
<text xml:space="preserve" text-anchor="middle" x="124.96" y="-417.45" font-family="Helvetica,sans-Serif" font-size="14.00">M2</text>
</g>
<!-- Transpose_M4 -->
<g id="node22" class="node">
<title>Transpose_M4</title>
<path fill="lightskyblue" stroke="black" d="M426.75,-484.75C426.75,-484.75 364.25,-484.75 364.25,-484.75 358.25,-484.75 352.25,-478.75 352.25,-472.75 352.25,-472.75 352.25,-460.75 352.25,-460.75 352.25,-454.75 358.25,-448.75 364.25,-448.75 364.25,-448.75 426.75,-448.75 426.75,-448.75 432.75,-448.75 438.75,-454.75 438.75,-460.75 438.75,-460.75 438.75,-472.75 438.75,-472.75 438.75,-478.75 432.75,-484.75 426.75,-484.75"/>
<text xml:space="preserve" text-anchor="middle" x="395.5" y="-462.07" font-family="Helvetica,sans-Serif" font-size="14.00">Transpose</text>
</g>
<!-- ConvertToHistogram_M4_2 -->
<g id="node33" class="node">
<title>ConvertToHistogram_M4_2</title>
<path fill="lightskyblue" stroke="black" d="M495,-395.5C495,-395.5 362,-395.5 362,-395.5 356,-395.5 350,-389.5 350,-383.5 350,-383.5 350,-371.5 350,-371.5 350,-365.5 356,-359.5 362,-359.5 362,-359.5 495,-359.5 495,-359.5 501,-359.5 507,-365.5 507,-371.5 507,-371.5 507,-383.5 507,-383.5 507,-389.5 501,-395.5 495,-395.5"/>
<text xml:space="preserve" text-anchor="middle" x="428.5" y="-372.82" font-family="Helvetica,sans-Serif" font-size="14.00">ConvertToHistogram</text>
</g>
<!-- Transpose_M4&#45;&gt;ConvertToHistogram_M4_2 -->
<g id="edge42" class="edge">
<title>Transpose_M4&#45;&gt;ConvertToHistogram_M4_2</title>
<path fill="none" stroke="black" d="M402.02,-448.51C406.58,-436.44 412.78,-420.06 418.03,-406.17"/>
<polygon fill="black" stroke="black" points="421.19,-407.71 421.46,-397.12 414.65,-405.23 421.19,-407.71"/>
<text xml:space="preserve" text-anchor="middle" x="425.46" y="-417.45" font-family="Helvetica,sans-Serif" font-size="14.00">M4</text>
</g>
<!-- ConvertUnits_M0 -->
<g id="node23" class="node">
<title>ConvertUnits_M0</title>
<path fill="lightskyblue" stroke="black" d="M554.88,-341.5C554.88,-341.5 472.12,-341.5 472.12,-341.5 466.12,-341.5 460.12,-335.5 460.12,-329.5 460.12,-329.5 460.12,-317.5 460.12,-317.5 460.12,-311.5 466.12,-305.5 472.12,-305.5 472.12,-305.5 554.88,-305.5 554.88,-305.5 560.88,-305.5 566.88,-311.5 566.88,-317.5 566.88,-317.5 566.88,-329.5 566.88,-329.5 566.88,-335.5 560.88,-341.5 554.88,-341.5"/>
<text xml:space="preserve" text-anchor="middle" x="513.5" y="-318.82" font-family="Helvetica,sans-Serif" font-size="14.00">ConvertUnits</text>
</g>
<!-- ConvertUnits_M0&#45;&gt;GroupWorkspaces -->
<g id="edge44" class="edge">
<title>ConvertUnits_M0&#45;&gt;GroupWorkspaces</title>
<path fill="none" stroke="black" d="M506.51,-305.08C499.63,-289.6 487.93,-267.07 472.5,-251.5 453.03,-231.84 426.95,-215.64 404.16,-203.76"/>
<polygon fill="black" stroke="black" points="405.82,-200.68 395.32,-199.3 402.67,-206.93 405.82,-200.68"/>
<text xml:space="preserve" text-anchor="middle" x="507.79" y="-264.82" font-family="Helvetica,sans-Serif" font-size="14.00">M0</text>
</g>
<!-- ConvertUnits_M1 -->
<g id="node24" class="node">
<title>ConvertUnits_M1</title>
<path fill="lightskyblue" stroke="black" d="M306.88,-287.5C306.88,-287.5 224.12,-287.5 224.12,-287.5 218.12,-287.5 212.12,-281.5 212.12,-275.5 212.12,-275.5 212.12,-263.5 212.12,-263.5 212.12,-257.5 218.12,-251.5 224.12,-251.5 224.12,-251.5 306.88,-251.5 306.88,-251.5 312.88,-251.5 318.88,-257.5 318.88,-263.5 318.88,-263.5 318.88,-275.5 318.88,-275.5 318.88,-281.5 312.88,-287.5 306.88,-287.5"/>
<text xml:space="preserve" text-anchor="middle" x="265.5" y="-264.82" font-family="Helvetica,sans-Serif" font-size="14.00">ConvertUnits</text>
</g>
<!-- ConvertUnits_M1&#45;&gt;GroupWorkspaces -->
<g id="edge45" class="edge">
<title>ConvertUnits_M1&#45;&gt;GroupWorkspaces</title>
<path fill="none" stroke="black" d="M282.89,-251.26C295.78,-238.48 313.57,-220.84 328.06,-206.47"/>
<polygon fill="black" stroke="black" points="330.44,-209.04 335.08,-199.52 325.51,-204.07 330.44,-209.04"/>
<text xml:space="preserve" text-anchor="middle" x="327.88" y="-220.2" font-family="Helvetica,sans-Serif" font-size="14.00">M1</text>
</g>
<!-- ConvertUnits_M2 -->
<g id="node25" class="node">
<title>ConvertUnits_M2</title>
<path fill="lightskyblue" stroke="black" d="M169.88,-287.5C169.88,-287.5 87.12,-287.5 87.12,-287.5 81.12,-287.5 75.12,-281.5 75.12,-275.5 75.12,-275.5 75.12,-263.5 75.12,-263.5 75.12,-257.5 81.12,-251.5 87.12,-251.5 87.12,-251.5 169.88,-251.5 169.88,-251.5 175.88,-251.5 181.88,-257.5 181.88,-263.5 181.88,-263.5 181.88,-275.5 181.88,-275.5 181.88,-281.5 175.88,-287.5 169.88,-287.5"/>
<text xml:space="preserve" text-anchor="middle" x="128.5" y="-264.82" font-family="Helvetica,sans-Serif" font-size="14.00">ConvertUnits</text>
</g>
<!-- ConvertUnits_M2&#45;&gt;GroupWorkspaces -->
<g id="edge46" class="edge">
<title>ConvertUnits_M2&#45;&gt;GroupWorkspaces</title>
<path fill="none" stroke="black" d="M173.49,-251.05C209.36,-237.14 259.76,-217.6 298.11,-202.73"/>
<polygon fill="black" stroke="black" points="299.12,-206.09 307.18,-199.21 296.59,-199.57 299.12,-206.09"/>
<text xml:space="preserve" text-anchor="middle" x="271.65" y="-220.2" font-family="Helvetica,sans-Serif" font-size="14.00">M2</text>
</g>
<!-- ConvertUnits_M4 -->
<g id="node26" class="node">
<title>ConvertUnits_M4</title>
<path fill="lightskyblue" stroke="black" d="M451.88,-287.5C451.88,-287.5 369.12,-287.5 369.12,-287.5 363.12,-287.5 357.12,-281.5 357.12,-275.5 357.12,-275.5 357.12,-263.5 357.12,-263.5 357.12,-257.5 363.12,-251.5 369.12,-251.5 369.12,-251.5 451.88,-251.5 451.88,-251.5 457.88,-251.5 463.88,-257.5 463.88,-263.5 463.88,-263.5 463.88,-275.5 463.88,-275.5 463.88,-281.5 457.88,-287.5 451.88,-287.5"/>
<text xml:space="preserve" text-anchor="middle" x="410.5" y="-264.82" font-family="Helvetica,sans-Serif" font-size="14.00">ConvertUnits</text>
</g>
<!-- ConvertUnits_M4&#45;&gt;GroupWorkspaces -->
<g id="edge47" class="edge">
<title>ConvertUnits_M4&#45;&gt;GroupWorkspaces</title>
<path fill="none" stroke="black" d="M399.24,-251.26C391.12,-238.83 380.01,-221.83 370.77,-207.69"/>
<polygon fill="black" stroke="black" points="373.97,-206.18 365.57,-199.72 368.1,-210.01 373.97,-206.18"/>
<text xml:space="preserve" text-anchor="middle" x="397.61" y="-220.2" font-family="Helvetica,sans-Serif" font-size="14.00">M4</text>
</g>
<!-- ConvertToHistogram_M0&#45;&gt;ConvertUnits_M0 -->
<g id="edge34" class="edge">
<title>ConvertToHistogram_M0&#45;&gt;ConvertUnits_M0</title>
<path fill="none" stroke="black" d="M532.8,-448.43C529.11,-424.71 522.43,-381.81 517.98,-353.23"/>
<polygon fill="black" stroke="black" points="521.45,-352.8 516.45,-343.46 514.53,-353.88 521.45,-352.8"/>
<text xml:space="preserve" text-anchor="middle" x="540.44" y="-417.45" font-family="Helvetica,sans-Serif" font-size="14.00">M0</text>
</g>
<!-- Integration_M1 -->
<g id="node35" class="node">
<title>Integration_M1</title>
<path fill="lightskyblue" stroke="black" d="M278.75,-825.25C278.75,-825.25 210.25,-825.25 210.25,-825.25 204.25,-825.25 198.25,-819.25 198.25,-813.25 198.25,-813.25 198.25,-801.25 198.25,-801.25 198.25,-795.25 204.25,-789.25 210.25,-789.25 210.25,-789.25 278.75,-789.25 278.75,-789.25 284.75,-789.25 290.75,-795.25 290.75,-801.25 290.75,-801.25 290.75,-813.25 290.75,-813.25 290.75,-819.25 284.75,-825.25 278.75,-825.25"/>
<text xml:space="preserve" text-anchor="middle" x="244.5" y="-802.58" font-family="Helvetica,sans-Serif" font-size="14.00">Integration</text>
</g>
<!-- ConvertToHistogram_M1&#45;&gt;Integration_M1 -->
<g id="edge21" class="edge">
<title>ConvertToHistogram_M1&#45;&gt;Integration_M1</title>
<path fill="none" stroke="black" d="M244.5,-1005.1C244.5,-968.39 244.5,-881.91 244.5,-836.78"/>
<polygon fill="black" stroke="black" points="248,-837 244.5,-827 241,-837 248,-837"/>
<text xml:space="preserve" text-anchor="middle" x="255" y="-910.58" font-family="Helvetica,sans-Serif" font-size="14.00">M1</text>
</g>
<!-- Integration_M2 -->
<g id="node36" class="node">
<title>Integration_M2</title>
<path fill="lightskyblue" stroke="black" d="M173.75,-717.25C173.75,-717.25 105.25,-717.25 105.25,-717.25 99.25,-717.25 93.25,-711.25 93.25,-705.25 93.25,-705.25 93.25,-693.25 93.25,-693.25 93.25,-687.25 99.25,-681.25 105.25,-681.25 105.25,-681.25 173.75,-681.25 173.75,-681.25 179.75,-681.25 185.75,-687.25 185.75,-693.25 185.75,-693.25 185.75,-705.25 185.75,-705.25 185.75,-711.25 179.75,-717.25 173.75,-717.25"/>
<text xml:space="preserve" text-anchor="middle" x="139.5" y="-694.58" font-family="Helvetica,sans-Serif" font-size="14.00">Integration</text>
</g>
<!-- ConvertToHistogram_M2&#45;&gt;Integration_M2 -->
<g id="edge25" class="edge">
<title>ConvertToHistogram_M2&#45;&gt;Integration_M2</title>
<path fill="none" stroke="black" d="M139.5,-897.1C139.5,-860.39 139.5,-773.91 139.5,-728.78"/>
<polygon fill="black" stroke="black" points="143,-729 139.5,-719 136,-729 143,-729"/>
<text xml:space="preserve" text-anchor="middle" x="150" y="-802.58" font-family="Helvetica,sans-Serif" font-size="14.00">M2</text>
</g>
<!-- Integration_M4 -->
<g id="node37" class="node">
<title>Integration_M4</title>
<path fill="lightskyblue" stroke="black" d="M389.75,-663.25C389.75,-663.25 321.25,-663.25 321.25,-663.25 315.25,-663.25 309.25,-657.25 309.25,-651.25 309.25,-651.25 309.25,-639.25 309.25,-639.25 309.25,-633.25 315.25,-627.25 321.25,-627.25 321.25,-627.25 389.75,-627.25 389.75,-627.25 395.75,-627.25 401.75,-633.25 401.75,-639.25 401.75,-639.25 401.75,-651.25 401.75,-651.25 401.75,-657.25 395.75,-663.25 389.75,-663.25"/>
<text xml:space="preserve" text-anchor="middle" x="355.5" y="-640.58" font-family="Helvetica,sans-Serif" font-size="14.00">Integration</text>
</g>
<!-- ConvertToHistogram_M4&#45;&gt;Integration_M4 -->
<g id="edge29" class="edge">
<title>ConvertToHistogram_M4&#45;&gt;Integration_M4</title>
<path fill="none" stroke="black" d="M355.5,-735.22C355.5,-719.01 355.5,-694.31 355.5,-675.04"/>
<polygon fill="black" stroke="black" points="359,-675.1 355.5,-665.1 352,-675.1 359,-675.1"/>
<text xml:space="preserve" text-anchor="middle" x="366" y="-694.58" font-family="Helvetica,sans-Serif" font-size="14.00">M4</text>
</g>
<!-- ConvertToHistogram_M1_2&#45;&gt;ConvertUnits_M1 -->
<g id="edge37" class="edge">
<title>ConvertToHistogram_M1_2&#45;&gt;ConvertUnits_M1</title>
<path fill="none" stroke="black" d="M255.43,-359.47C257.27,-343.19 260.09,-318.32 262.27,-299.02"/>
<polygon fill="black" stroke="black" points="265.72,-299.67 263.37,-289.34 258.76,-298.89 265.72,-299.67"/>
<text xml:space="preserve" text-anchor="middle" x="271.78" y="-318.82" font-family="Helvetica,sans-Serif" font-size="14.00">M1</text>
</g>
<!-- ConvertToHistogram_M2_2&#45;&gt;ConvertUnits_M2 -->
<g id="edge40" class="edge">
<title>ConvertToHistogram_M2_2&#45;&gt;ConvertUnits_M2</title>
<path fill="none" stroke="black" d="M86.53,-359.47C94.32,-342.95 106.27,-317.62 115.43,-298.2"/>
<polygon fill="black" stroke="black" points="118.57,-299.75 119.67,-289.21 112.24,-296.76 118.57,-299.75"/>
<text xml:space="preserve" text-anchor="middle" x="121.4" y="-318.82" font-family="Helvetica,sans-Serif" font-size="14.00">M2</text>
</g>
<!-- ConvertToHistogram_M4_2&#45;&gt;ConvertUnits_M4 -->
<g id="edge43" class="edge">
<title>ConvertToHistogram_M4_2&#45;&gt;ConvertUnits_M4</title>
<path fill="none" stroke="black" d="M425.61,-359.47C422.84,-343.19 418.62,-318.32 415.34,-299.02"/>
<polygon fill="black" stroke="black" points="418.82,-298.61 413.7,-289.33 411.92,-299.78 418.82,-298.61"/>
<text xml:space="preserve" text-anchor="middle" x="432.66" y="-318.82" font-family="Helvetica,sans-Serif" font-size="14.00">M4</text>
</g>
<!-- Integration_M0&#45;&gt;Transpose_M0 -->
<g id="edge32" class="edge">
<title>Integration_M0&#45;&gt;Transpose_M0</title>
<path fill="none" stroke="black" d="M471.24,-627.01C474.53,-615.06 478.98,-598.88 482.77,-585.08"/>
<polygon fill="black" stroke="black" points="486.09,-586.23 485.37,-575.66 479.34,-584.37 486.09,-586.23"/>
<text xml:space="preserve" text-anchor="middle" x="491.15" y="-595.95" font-family="Helvetica,sans-Serif" font-size="14.00">M0</text>
</g>
<!-- Divide_M1 -->
<g id="node38" class="node">
<title>Divide_M1</title>
<path fill="lightskyblue" stroke="black" d="M271.25,-574C271.25,-574 235.75,-574 235.75,-574 229.75,-574 223.75,-568 223.75,-562 223.75,-562 223.75,-550 223.75,-550 223.75,-544 229.75,-538 235.75,-538 235.75,-538 271.25,-538 271.25,-538 277.25,-538 283.25,-544 283.25,-550 283.25,-550 283.25,-562 283.25,-562 283.25,-568 277.25,-574 271.25,-574"/>
<text xml:space="preserve" text-anchor="middle" x="253.5" y="-551.33" font-family="Helvetica,sans-Serif" font-size="14.00">Divide</text>
</g>
<!-- Integration_M0&#45;&gt;Divide_M1 -->
<g id="edge23" class="edge">
<title>Integration_M0&#45;&gt;Divide_M1</title>
<path fill="none" stroke="black" d="M419.84,-628.72C403.2,-622.93 384.4,-616.09 367.5,-609.25 342.7,-599.21 315.44,-586.77 293.8,-576.54"/>
<polygon fill="black" stroke="black" points="295.56,-573.51 285.03,-572.37 292.55,-579.83 295.56,-573.51"/>
</g>
<!-- Divide_M2 -->
<g id="node39" class="node">
<title>Divide_M2</title>
<path fill="lightskyblue" stroke="black" d="M157.25,-574C157.25,-574 121.75,-574 121.75,-574 115.75,-574 109.75,-568 109.75,-562 109.75,-562 109.75,-550 109.75,-550 109.75,-544 115.75,-538 121.75,-538 121.75,-538 157.25,-538 157.25,-538 163.25,-538 169.25,-544 169.25,-550 169.25,-550 169.25,-562 169.25,-562 169.25,-568 163.25,-574 157.25,-574"/>
<text xml:space="preserve" text-anchor="middle" x="139.5" y="-551.33" font-family="Helvetica,sans-Serif" font-size="14.00">Divide</text>
</g>
<!-- Integration_M0&#45;&gt;Divide_M2 -->
<g id="edge27" class="edge">
<title>Integration_M0&#45;&gt;Divide_M2</title>
<path fill="none" stroke="black" d="M443.86,-626.89C427.05,-614.97 403.04,-599.93 379.5,-592 309.59,-568.46 287.26,-586.17 214.5,-574 203.46,-572.15 191.6,-569.69 180.65,-567.22"/>
<polygon fill="black" stroke="black" points="181.64,-563.85 171.11,-565 180.06,-570.67 181.64,-563.85"/>
</g>
<!-- Divide_M4 -->
<g id="node40" class="node">
<title>Divide_M4</title>
<path fill="lightskyblue" stroke="black" d="M413.25,-574C413.25,-574 377.75,-574 377.75,-574 371.75,-574 365.75,-568 365.75,-562 365.75,-562 365.75,-550 365.75,-550 365.75,-544 371.75,-538 377.75,-538 377.75,-538 413.25,-538 413.25,-538 419.25,-538 425.25,-544 425.25,-550 425.25,-550 425.25,-562 425.25,-562 425.25,-568 419.25,-574 413.25,-574"/>
<text xml:space="preserve" text-anchor="middle" x="395.5" y="-551.33" font-family="Helvetica,sans-Serif" font-size="14.00">Divide</text>
</g>
<!-- Integration_M0&#45;&gt;Divide_M4 -->
<g id="edge31" class="edge">
<title>Integration_M0&#45;&gt;Divide_M4</title>
<path fill="none" stroke="black" d="M452.47,-627.01C442.26,-614.46 428.26,-597.25 416.69,-583.03"/>
<polygon fill="black" stroke="black" points="419.48,-580.92 410.45,-575.38 414.05,-585.34 419.48,-580.92"/>
</g>
<!-- Integration_M1&#45;&gt;Divide_M1 -->
<g id="edge22" class="edge">
<title>Integration_M1&#45;&gt;Divide_M1</title>
<path fill="none" stroke="black" d="M245.12,-789.12C246.64,-746.96 250.58,-637.85 252.47,-585.65"/>
<polygon fill="black" stroke="black" points="255.96,-585.88 252.82,-575.76 248.96,-585.63 255.96,-585.88"/>
<text xml:space="preserve" text-anchor="middle" x="259.5" y="-694.58" font-family="Helvetica,sans-Serif" font-size="14.00">M1</text>
</g>
<!-- Integration_M2&#45;&gt;Divide_M2 -->
<g id="edge26" class="edge">
<title>Integration_M2&#45;&gt;Divide_M2</title>
<path fill="none" stroke="black" d="M139.5,-680.93C139.5,-657.21 139.5,-614.31 139.5,-585.73"/>
<polygon fill="black" stroke="black" points="143,-585.98 139.5,-575.98 136,-585.98 143,-585.98"/>
<text xml:space="preserve" text-anchor="middle" x="150" y="-640.58" font-family="Helvetica,sans-Serif" font-size="14.00">M2</text>
</g>
<!-- Integration_M4&#45;&gt;Divide_M4 -->
<g id="edge30" class="edge">
<title>Integration_M4&#45;&gt;Divide_M4</title>
<path fill="none" stroke="black" d="M363.4,-627.01C368.99,-614.82 376.6,-598.23 383,-584.26"/>
<polygon fill="black" stroke="black" points="386,-586.13 386.98,-575.58 379.63,-583.21 386,-586.13"/>
<text xml:space="preserve" text-anchor="middle" x="389.58" y="-595.95" font-family="Helvetica,sans-Serif" font-size="14.00">M4</text>
</g>
<!-- Divide_M1&#45;&gt;Transpose_M1 -->
<g id="edge35" class="edge">
<title>Divide_M1&#45;&gt;Transpose_M1</title>
<path fill="none" stroke="black" d="M253.5,-537.76C253.5,-525.93 253.5,-509.95 253.5,-496.25"/>
<polygon fill="black" stroke="black" points="257,-496.47 253.5,-486.47 250,-496.47 257,-496.47"/>
<text xml:space="preserve" text-anchor="middle" x="264" y="-506.7" font-family="Helvetica,sans-Serif" font-size="14.00">M1</text>
</g>
<!-- Divide_M2&#45;&gt;Transpose_M2 -->
<g id="edge38" class="edge">
<title>Divide_M2&#45;&gt;Transpose_M2</title>
<path fill="none" stroke="black" d="M139.5,-537.76C139.5,-525.93 139.5,-509.95 139.5,-496.25"/>
<polygon fill="black" stroke="black" points="143,-496.47 139.5,-486.47 136,-496.47 143,-496.47"/>
<text xml:space="preserve" text-anchor="middle" x="150" y="-506.7" font-family="Helvetica,sans-Serif" font-size="14.00">M2</text>
</g>
<!-- Divide_M4&#45;&gt;Transpose_M4 -->
<g id="edge41" class="edge">
<title>Divide_M4&#45;&gt;Transpose_M4</title>
<path fill="none" stroke="black" d="M395.5,-537.76C395.5,-525.93 395.5,-509.95 395.5,-496.25"/>
<polygon fill="black" stroke="black" points="399,-496.47 395.5,-486.47 392,-496.47 399,-496.47"/>
<text xml:space="preserve" text-anchor="middle" x="406" y="-506.7" font-family="Helvetica,sans-Serif" font-size="14.00">M4</text>
</g>
</g>
</svg>
