<?xml version="1.0" encoding="UTF-8" standalone="no"?>
<!DOCTYPE svg PUBLIC "-//W3C//DTD SVG 1.1//EN"
 "http://www.w3.org/Graphics/SVG/1.1/DTD/svg11.dtd">
<!-- Generated by graphviz version 7.0.5 (20221231.0122)
 -->
<!-- Title: Stitch1DMany Pages: 1 -->
<svg width="892pt" height="780pt"
 viewBox="0.00 0.00 892.44 780.00" xmlns="http://www.w3.org/2000/svg" xmlns:xlink="http://www.w3.org/1999/xlink">
<g id="graph0" class="graph" transform="scale(1 1) rotate(0) translate(4 776)">
<title>Stitch1DMany</title>
<polygon fill="white" stroke="none" points="-4,4 -4,-776 888.44,-776 888.44,4 -4,4"/>
<text text-anchor="middle" x="442.22" y="-756.8" font-family="Helvetica,sans-Serif" font-size="14.00">Stitch1DMany Flowchart</text>
<!-- inputWS -->
<g id="node1" class="node">
<title>inputWS</title>
<ellipse fill="khaki" stroke="black" cx="166" cy="-731" rx="89.08" ry="18"/>
<text text-anchor="middle" x="166" y="-727.3" font-family="Helvetica,sans-Serif" font-size="14.00">InputWorkspaces</text>
</g>
<!-- checkGroups -->
<g id="node9" class="node">
<title>checkGroups</title>
<polygon fill="limegreen" stroke="black" points="166,-676 0,-638 166,-600 332,-638 166,-676"/>
<text text-anchor="middle" x="166" y="-641.8" font-family="Helvetica,sans-Serif" font-size="14.00">Input workspaces are</text>
<text text-anchor="middle" x="166" y="-626.8" font-family="Helvetica,sans-Serif" font-size="14.00">group workspaces?</text>
</g>
<!-- inputWS&#45;&gt;checkGroups -->
<g id="edge1" class="edge">
<title>inputWS&#45;&gt;checkGroups</title>
<path fill="none" stroke="black" d="M166,-712.88C166,-705.64 166,-696.81 166,-687.8"/>
<polygon fill="black" stroke="black" points="169.5,-687.91 166,-677.91 162.5,-687.91 169.5,-687.91"/>
</g>
<!-- outWS -->
<g id="node2" class="node">
<title>outWS</title>
<ellipse fill="khaki" stroke="black" cx="328" cy="-18" rx="91.78" ry="18"/>
<text text-anchor="middle" x="328" y="-14.3" font-family="Helvetica,sans-Serif" font-size="14.00">OutputWorkspace</text>
</g>
<!-- outSF -->
<g id="node3" class="node">
<title>outSF</title>
<ellipse fill="khaki" stroke="black" cx="525" cy="-18" rx="83.39" ry="18"/>
<text text-anchor="middle" x="525" y="-14.3" font-family="Helvetica,sans-Serif" font-size="14.00">OutScaleFactors</text>
</g>
<!-- useManSF -->
<g id="node4" class="node">
<title>useManSF</title>
<ellipse fill="khaki" stroke="black" cx="462" cy="-638" rx="111.58" ry="18"/>
<text text-anchor="middle" x="462" y="-634.3" font-family="Helvetica,sans-Serif" font-size="14.00">UseManualScaleFactor</text>
</g>
<!-- checkSFFP -->
<g id="node10" class="node">
<title>checkSFFP</title>
<polygon fill="limegreen" stroke="black" points="462,-549 282,-511 462,-473 642,-511 462,-549"/>
<text text-anchor="middle" x="462" y="-514.8" font-family="Helvetica,sans-Serif" font-size="14.00">Using</text>
<text text-anchor="middle" x="462" y="-499.8" font-family="Helvetica,sans-Serif" font-size="14.00">ScaleFactorFromPeriod?</text>
</g>
<!-- useManSF&#45;&gt;checkSFFP -->
<g id="edge6" class="edge">
<title>useManSF&#45;&gt;checkSFFP</title>
<path fill="none" stroke="black" d="M462,-619.62C462,-604.34 462,-581.35 462,-560.54"/>
<polygon fill="black" stroke="black" points="465.5,-560.77 462,-550.77 458.5,-560.77 465.5,-560.77"/>
</g>
<!-- manSF -->
<g id="node5" class="node">
<title>manSF</title>
<ellipse fill="khaki" stroke="black" cx="687" cy="-638" rx="94.78" ry="18"/>
<text text-anchor="middle" x="687" y="-634.3" font-family="Helvetica,sans-Serif" font-size="14.00">ManualScaleFactor</text>
</g>
<!-- manSF&#45;&gt;checkSFFP -->
<g id="edge7" class="edge">
<title>manSF&#45;&gt;checkSFFP</title>
<path fill="none" stroke="black" d="M657.59,-620.66C623,-601.44 564.73,-569.07 520.77,-544.65"/>
<polygon fill="black" stroke="black" points="522.54,-541.63 512.1,-539.83 519.14,-547.75 522.54,-541.63"/>
</g>
<!-- sffp -->
<g id="node6" class="node">
<title>sffp</title>
<ellipse fill="khaki" stroke="black" cx="772" cy="-511" rx="112.38" ry="18"/>
<text text-anchor="middle" x="772" y="-507.3" font-family="Helvetica,sans-Serif" font-size="14.00">ScaleFactorFromPeriod</text>
</g>
<!-- S1DM_Period -->
<g id="node14" class="node">
<title>S1DM_Period</title>
<path fill="lightskyblue" stroke="black" d="M735,-422C735,-422 577,-422 577,-422 571,-422 565,-416 565,-410 565,-410 565,-381 565,-381 565,-375 571,-369 577,-369 577,-369 735,-369 735,-369 741,-369 747,-375 747,-381 747,-381 747,-410 747,-410 747,-416 741,-422 735,-422"/>
<text text-anchor="middle" x="656" y="-406.8" font-family="Helvetica,sans-Serif" font-size="14.00">Stitch1D all workspaces</text>
<text text-anchor="middle" x="656" y="-391.8" font-family="Helvetica,sans-Serif" font-size="14.00">in period given by</text>
<text text-anchor="middle" x="656" y="-376.8" font-family="Helvetica,sans-Serif" font-size="14.00">ScaleFactorFromPeriod</text>
</g>
<!-- sffp&#45;&gt;S1DM_Period -->
<g id="edge10" class="edge">
<title>sffp&#45;&gt;S1DM_Period</title>
<path fill="none" stroke="black" d="M754.38,-492.76C737.48,-476.23 711.51,-450.81 690.49,-430.25"/>
<polygon fill="black" stroke="black" points="693.09,-427.9 683.5,-423.4 688.2,-432.9 693.09,-427.9"/>
</g>
<!-- psf -->
<g id="node7" class="node">
<title>psf</title>
<ellipse fill="khaki" stroke="black" cx="655" cy="-314" rx="100.98" ry="18"/>
<text text-anchor="middle" x="655" y="-310.3" font-family="Helvetica,sans-Serif" font-size="14.00">Period Scale Factors</text>
</g>
<!-- S1D_Groups -->
<g id="node12" class="node">
<title>S1D_Groups</title>
<path fill="lightskyblue" stroke="black" d="M716.5,-259C716.5,-259 565.5,-259 565.5,-259 559.5,-259 553.5,-253 553.5,-247 553.5,-247 553.5,-233 553.5,-233 553.5,-227 559.5,-221 565.5,-221 565.5,-221 716.5,-221 716.5,-221 722.5,-221 728.5,-227 728.5,-233 728.5,-233 728.5,-247 728.5,-247 728.5,-253 722.5,-259 716.5,-259"/>
<text text-anchor="middle" x="641" y="-243.8" font-family="Helvetica,sans-Serif" font-size="14.00">Stitch1D all</text>
<text text-anchor="middle" x="641" y="-228.8" font-family="Helvetica,sans-Serif" font-size="14.00">workspaces per period</text>
</g>
<!-- psf&#45;&gt;S1D_Groups -->
<g id="edge14" class="edge">
<title>psf&#45;&gt;S1D_Groups</title>
<path fill="none" stroke="black" d="M651.61,-295.57C650.14,-288.02 648.38,-278.96 646.72,-270.42"/>
<polygon fill="black" stroke="black" points="650.19,-269.91 644.84,-260.76 643.32,-271.24 650.19,-269.91"/>
</g>
<!-- stitchedWSVec -->
<g id="node8" class="node">
<title>stitchedWSVec</title>
<ellipse fill="khaki" stroke="black" cx="349" cy="-166" rx="147.57" ry="18"/>
<text text-anchor="middle" x="349" y="-162.3" font-family="Helvetica,sans-Serif" font-size="14.00">Vector of Stitched Workspaces</text>
</g>
<!-- groupWS -->
<g id="node15" class="node">
<title>groupWS</title>
<path fill="lightskyblue" stroke="black" d="M408,-110C408,-110 290,-110 290,-110 284,-110 278,-104 278,-98 278,-98 278,-86 278,-86 278,-80 284,-74 290,-74 290,-74 408,-74 408,-74 414,-74 420,-80 420,-86 420,-86 420,-98 420,-98 420,-104 414,-110 408,-110"/>
<text text-anchor="middle" x="349" y="-88.3" font-family="Helvetica,sans-Serif" font-size="14.00">GroupWorkspaces</text>
</g>
<!-- stitchedWSVec&#45;&gt;groupWS -->
<g id="edge17" class="edge">
<title>stitchedWSVec&#45;&gt;groupWS</title>
<path fill="none" stroke="black" d="M349,-147.57C349,-139.79 349,-130.41 349,-121.64"/>
<polygon fill="black" stroke="black" points="352.5,-121.78 349,-111.78 345.5,-121.78 352.5,-121.78"/>
</g>
<!-- checkGroups&#45;&gt;checkSFFP -->
<g id="edge3" class="edge">
<title>checkGroups&#45;&gt;checkSFFP</title>
<path fill="none" stroke="black" d="M223.42,-612.75C271.79,-592.33 341.12,-563.05 392.59,-541.31"/>
<polygon fill="black" stroke="black" points="393.72,-544.63 401.57,-537.52 391,-538.19 393.72,-544.63"/>
<text text-anchor="middle" x="344.5" y="-570.8" font-family="Helvetica,sans-Serif" font-size="14.00">yes</text>
</g>
<!-- S1D_WS -->
<g id="node11" class="node">
<title>S1D_WS</title>
<path fill="lightskyblue" stroke="black" d="M248,-111C248,-111 174,-111 174,-111 168,-111 162,-105 162,-99 162,-99 162,-85 162,-85 162,-79 168,-73 174,-73 174,-73 248,-73 248,-73 254,-73 260,-79 260,-85 260,-85 260,-99 260,-99 260,-105 254,-111 248,-111"/>
<text text-anchor="middle" x="211" y="-95.8" font-family="Helvetica,sans-Serif" font-size="14.00">Stitch1D all</text>
<text text-anchor="middle" x="211" y="-80.8" font-family="Helvetica,sans-Serif" font-size="14.00">workspaces</text>
</g>
<!-- checkGroups&#45;&gt;S1D_WS -->
<g id="edge2" class="edge">
<title>checkGroups&#45;&gt;S1D_WS</title>
<path fill="none" stroke="black" d="M168.68,-600.38C170.28,-575.47 172,-541.77 172,-512 172,-512 172,-512 172,-165 172,-149.03 179.51,-133.21 187.94,-120.48"/>
<polygon fill="black" stroke="black" points="190.59,-122.79 193.58,-112.63 184.9,-118.71 190.59,-122.79"/>
<text text-anchor="middle" x="181" y="-310.3" font-family="Helvetica,sans-Serif" font-size="14.00">no</text>
</g>
<!-- S1DM_Global -->
<g id="node13" class="node">
<title>S1DM_Global</title>
<path fill="lightskyblue" stroke="black" d="M534.5,-414.5C534.5,-414.5 383.5,-414.5 383.5,-414.5 377.5,-414.5 371.5,-408.5 371.5,-402.5 371.5,-402.5 371.5,-388.5 371.5,-388.5 371.5,-382.5 377.5,-376.5 383.5,-376.5 383.5,-376.5 534.5,-376.5 534.5,-376.5 540.5,-376.5 546.5,-382.5 546.5,-388.5 546.5,-388.5 546.5,-402.5 546.5,-402.5 546.5,-408.5 540.5,-414.5 534.5,-414.5"/>
<text text-anchor="middle" x="459" y="-399.3" font-family="Helvetica,sans-Serif" font-size="14.00">Stitch1D all</text>
<text text-anchor="middle" x="459" y="-384.3" font-family="Helvetica,sans-Serif" font-size="14.00">workspaces per period</text>
</g>
<!-- checkSFFP&#45;&gt;S1DM_Global -->
<g id="edge8" class="edge">
<title>checkSFFP&#45;&gt;S1DM_Global</title>
<path fill="none" stroke="black" d="M461.02,-472.84C460.62,-457.68 460.16,-440.41 459.78,-426.13"/>
<polygon fill="black" stroke="black" points="463.29,-426.37 459.53,-416.46 456.29,-426.55 463.29,-426.37"/>
<text text-anchor="middle" x="470" y="-443.8" font-family="Helvetica,sans-Serif" font-size="14.00">no</text>
</g>
<!-- checkSFFP&#45;&gt;S1DM_Period -->
<g id="edge9" class="edge">
<title>checkSFFP&#45;&gt;S1DM_Period</title>
<path fill="none" stroke="black" d="M508.96,-482.52C537.07,-466.08 572.9,-445.12 602.15,-428"/>
<polygon fill="black" stroke="black" points="603.63,-431.19 610.49,-423.12 600.1,-425.15 603.63,-431.19"/>
<text text-anchor="middle" x="589.5" y="-443.8" font-family="Helvetica,sans-Serif" font-size="14.00">yes</text>
</g>
<!-- S1D_WS&#45;&gt;outWS -->
<g id="edge4" class="edge">
<title>S1D_WS&#45;&gt;outWS</title>
<path fill="none" stroke="black" d="M240.83,-72.65C256.19,-63.19 275.06,-51.58 291.3,-41.58"/>
<polygon fill="black" stroke="black" points="293.06,-44.61 299.74,-36.39 289.39,-38.65 293.06,-44.61"/>
</g>
<!-- S1D_WS&#45;&gt;outSF -->
<g id="edge5" class="edge">
<title>S1D_WS&#45;&gt;outSF</title>
<path fill="none" stroke="black" d="M260.27,-75.37C263.22,-74.54 266.14,-73.74 269,-73 330.23,-57.08 400.61,-42.5 452.06,-32.51"/>
<polygon fill="black" stroke="black" points="452.43,-36 461.58,-30.67 451.1,-29.13 452.43,-36"/>
</g>
<!-- S1D_Groups&#45;&gt;outSF -->
<g id="edge16" class="edge">
<title>S1D_Groups&#45;&gt;outSF</title>
<path fill="none" stroke="black" d="M631.31,-220.62C610.89,-181.9 563.37,-91.77 539.39,-46.28"/>
<polygon fill="black" stroke="black" points="542.56,-44.81 534.8,-37.6 536.37,-48.07 542.56,-44.81"/>
</g>
<!-- S1D_Groups&#45;&gt;stitchedWSVec -->
<g id="edge15" class="edge">
<title>S1D_Groups&#45;&gt;stitchedWSVec</title>
<path fill="none" stroke="black" d="M566.18,-220.55C522.35,-209.74 467.18,-196.14 423.41,-185.35"/>
<polygon fill="black" stroke="black" points="424.27,-181.96 413.73,-182.96 422.6,-188.75 424.27,-181.96"/>
</g>
<!-- S1DM_Global&#45;&gt;outSF -->
<g id="edge12" class="edge">
<title>S1DM_Global&#45;&gt;outSF</title>
<path fill="none" stroke="black" d="M486.99,-376.1C504.98,-361.84 525,-340.29 525,-315 525,-315 525,-315 525,-91 525,-76.74 525,-60.89 525,-47.7"/>
<polygon fill="black" stroke="black" points="528.5,-47.97 525,-37.97 521.5,-47.97 528.5,-47.97"/>
</g>
<!-- S1DM_Global&#45;&gt;stitchedWSVec -->
<g id="edge11" class="edge">
<title>S1DM_Global&#45;&gt;stitchedWSVec</title>
<path fill="none" stroke="black" d="M450.18,-376.27C430.93,-336.45 385.05,-241.55 362.28,-194.46"/>
<polygon fill="black" stroke="black" points="365.57,-193.22 358.06,-185.74 359.26,-196.27 365.57,-193.22"/>
</g>
<!-- S1DM_Period&#45;&gt;psf -->
<g id="edge13" class="edge">
<title>S1DM_Period&#45;&gt;psf</title>
<path fill="none" stroke="black" d="M655.68,-368.91C655.58,-360.86 655.46,-351.91 655.36,-343.66"/>
<polygon fill="black" stroke="black" points="658.86,-343.73 655.24,-333.77 651.86,-343.81 658.86,-343.73"/>
</g>
<!-- groupWS&#45;&gt;outWS -->
<g id="edge18" class="edge">
<title>groupWS&#45;&gt;outWS</title>
<path fill="none" stroke="black" d="M343.92,-73.57C341.59,-65.61 338.79,-55.98 336.18,-47.05"/>
<polygon fill="black" stroke="black" points="339.62,-46.34 333.46,-37.72 332.9,-48.3 339.62,-46.34"/>
</g>
</g>
</svg>
