<?xml version="1.0" encoding="UTF-8" standalone="no"?>
<!DOCTYPE svg PUBLIC "-//W3C//DTD SVG 1.1//EN"
 "http://www.w3.org/Graphics/SVG/1.1/DTD/svg11.dtd">
<!-- Generated by graphviz version 13.1.2 (20250809.0930)
 -->
<!-- Title: Stitch1DMany Pages: 1 -->
<svg width="915pt" height="821pt"
 viewBox="0.00 0.00 915.00 821.00" xmlns="http://www.w3.org/2000/svg" xmlns:xlink="http://www.w3.org/1999/xlink">
<g id="graph0" class="graph" transform="scale(1 1) rotate(0) translate(4 816.5)">
<title>Stitch1DMany</title>
<polygon fill="white" stroke="none" points="-4,4 -4,-816.5 910.9,-816.5 910.9,4 -4,4"/>
<text xml:space="preserve" text-anchor="middle" x="453.45" y="-795.2" font-family="Helvetica,sans-Serif" font-size="14.00">Stitch1DMany Flowchart</text>
<!-- inputWS -->
<g id="node1" class="node">
<title>inputWS</title>
<ellipse fill="khaki" stroke="black" cx="165.25" cy="-769.25" rx="95.4" ry="18"/>
<text xml:space="preserve" text-anchor="middle" x="165.25" y="-764.58" font-family="Helvetica,sans-Serif" font-size="14.00">InputWorkspaces</text>
</g>
<!-- checkGroups -->
<g id="node9" class="node">
<title>checkGroups</title>
<polygon fill="limegreen" stroke="black" points="165.25,-714.25 0,-671.75 165.25,-629.25 330.5,-671.75 165.25,-714.25"/>
<text xml:space="preserve" text-anchor="middle" x="165.25" y="-675.7" font-family="Helvetica,sans-Serif" font-size="14.00">Input workspaces are</text>
<text xml:space="preserve" text-anchor="middle" x="165.25" y="-658.45" font-family="Helvetica,sans-Serif" font-size="14.00">group workspaces?</text>
</g>
<!-- inputWS&#45;&gt;checkGroups -->
<g id="edge1" class="edge">
<title>inputWS&#45;&gt;checkGroups</title>
<path fill="none" stroke="black" d="M165.25,-751.18C165.25,-744.01 165.25,-735.24 165.25,-726.2"/>
<polygon fill="black" stroke="black" points="168.75,-726.21 165.25,-716.21 161.75,-726.21 168.75,-726.21"/>
</g>
<!-- outWS -->
<g id="node2" class="node">
<title>outWS</title>
<ellipse fill="khaki" stroke="black" cx="330.25" cy="-18" rx="98.56" ry="18"/>
<text xml:space="preserve" text-anchor="middle" x="330.25" y="-13.32" font-family="Helvetica,sans-Serif" font-size="14.00">OutputWorkspace</text>
</g>
<!-- outSF -->
<g id="node3" class="node">
<title>outSF</title>
<ellipse fill="khaki" stroke="black" cx="539.25" cy="-18" rx="89.61" ry="18"/>
<text xml:space="preserve" text-anchor="middle" x="539.25" y="-13.32" font-family="Helvetica,sans-Serif" font-size="14.00">OutScaleFactors</text>
</g>
<!-- useManSF -->
<g id="node4" class="node">
<title>useManSF</title>
<ellipse fill="khaki" stroke="black" cx="468.25" cy="-671.75" rx="120.13" ry="18"/>
<text xml:space="preserve" text-anchor="middle" x="468.25" y="-667.08" font-family="Helvetica,sans-Serif" font-size="14.00">UseManualScaleFactor</text>
</g>
<!-- checkSFFP -->
<g id="node10" class="node">
<title>checkSFFP</title>
<polygon fill="limegreen" stroke="black" points="468.25,-576 288.75,-533.5 468.25,-491 647.75,-533.5 468.25,-576"/>
<text xml:space="preserve" text-anchor="middle" x="468.25" y="-537.45" font-family="Helvetica,sans-Serif" font-size="14.00">Using</text>
<text xml:space="preserve" text-anchor="middle" x="468.25" y="-520.2" font-family="Helvetica,sans-Serif" font-size="14.00">ScaleFactorFromPeriod?</text>
</g>
<!-- useManSF&#45;&gt;checkSFFP -->
<g id="edge6" class="edge">
<title>useManSF&#45;&gt;checkSFFP</title>
<path fill="none" stroke="black" d="M468.25,-653.49C468.25,-636.94 468.25,-611.08 468.25,-587.69"/>
<polygon fill="black" stroke="black" points="471.75,-587.97 468.25,-577.97 464.75,-587.97 471.75,-587.97"/>
</g>
<!-- manSF -->
<g id="node5" class="node">
<title>manSF</title>
<ellipse fill="khaki" stroke="black" cx="708.25" cy="-671.75" rx="101.71" ry="18"/>
<text xml:space="preserve" text-anchor="middle" x="708.25" y="-667.08" font-family="Helvetica,sans-Serif" font-size="14.00">ManualScaleFactor</text>
</g>
<!-- manSF&#45;&gt;checkSFFP -->
<g id="edge7" class="edge">
<title>manSF&#45;&gt;checkSFFP</title>
<path fill="none" stroke="black" d="M678.82,-654.04C642.01,-633.15 578.02,-596.82 530.21,-569.68"/>
<polygon fill="black" stroke="black" points="532.01,-566.67 521.59,-564.78 528.56,-572.76 532.01,-566.67"/>
</g>
<!-- sffp -->
<g id="node6" class="node">
<title>sffp</title>
<ellipse fill="khaki" stroke="black" cx="786.25" cy="-533.5" rx="120.65" ry="18"/>
<text xml:space="preserve" text-anchor="middle" x="786.25" y="-528.83" font-family="Helvetica,sans-Serif" font-size="14.00">ScaleFactorFromPeriod</text>
</g>
<!-- S1DM_Period -->
<g id="node14" class="node">
<title>S1DM_Period</title>
<path fill="lightskyblue" stroke="black" d="M755.12,-437.75C755.12,-437.75 597.38,-437.75 597.38,-437.75 591.38,-437.75 585.38,-431.75 585.38,-425.75 585.38,-425.75 585.38,-390 585.38,-390 585.38,-384 591.38,-378 597.38,-378 597.38,-378 755.12,-378 755.12,-378 761.12,-378 767.12,-384 767.12,-390 767.12,-390 767.12,-425.75 767.12,-425.75 767.12,-431.75 761.12,-437.75 755.12,-437.75"/>
<text xml:space="preserve" text-anchor="middle" x="676.25" y="-420.45" font-family="Helvetica,sans-Serif" font-size="14.00">Stitch1D all workspaces</text>
<text xml:space="preserve" text-anchor="middle" x="676.25" y="-403.2" font-family="Helvetica,sans-Serif" font-size="14.00">in period given by</text>
<text xml:space="preserve" text-anchor="middle" x="676.25" y="-385.95" font-family="Helvetica,sans-Serif" font-size="14.00">ScaleFactorFromPeriod</text>
</g>
<!-- sffp&#45;&gt;S1DM_Period -->
<g id="edge10" class="edge">
<title>sffp&#45;&gt;S1DM_Period</title>
<path fill="none" stroke="black" d="M770.95,-515.31C755.15,-497.54 729.97,-469.25 709.54,-446.29"/>
<polygon fill="black" stroke="black" points="712.25,-444.07 702.99,-438.92 707.02,-448.72 712.25,-444.07"/>
</g>
<!-- psf -->
<g id="node7" class="node">
<title>psf</title>
<ellipse fill="khaki" stroke="black" cx="676.25" cy="-323" rx="108.55" ry="18"/>
<text xml:space="preserve" text-anchor="middle" x="676.25" y="-318.32" font-family="Helvetica,sans-Serif" font-size="14.00">Period Scale Factors</text>
</g>
<!-- S1D_Groups -->
<g id="node12" class="node">
<title>S1D_Groups</title>
<path fill="lightskyblue" stroke="black" d="M729.38,-268C729.38,-268 579.12,-268 579.12,-268 573.12,-268 567.12,-262 567.12,-256 567.12,-256 567.12,-237.5 567.12,-237.5 567.12,-231.5 573.12,-225.5 579.12,-225.5 579.12,-225.5 729.38,-225.5 729.38,-225.5 735.38,-225.5 741.38,-231.5 741.38,-237.5 741.38,-237.5 741.38,-256 741.38,-256 741.38,-262 735.38,-268 729.38,-268"/>
<text xml:space="preserve" text-anchor="middle" x="654.25" y="-250.7" font-family="Helvetica,sans-Serif" font-size="14.00">Stitch1D all</text>
<text xml:space="preserve" text-anchor="middle" x="654.25" y="-233.45" font-family="Helvetica,sans-Serif" font-size="14.00">workspaces per period</text>
</g>
<!-- psf&#45;&gt;S1D_Groups -->
<g id="edge14" class="edge">
<title>psf&#45;&gt;S1D_Groups</title>
<path fill="none" stroke="black" d="M671.15,-304.78C668.88,-297.13 666.14,-287.88 663.53,-279.07"/>
<polygon fill="black" stroke="black" points="666.97,-278.35 660.77,-269.76 660.26,-280.34 666.97,-278.35"/>
</g>
<!-- stitchedWSVec -->
<g id="node8" class="node">
<title>stitchedWSVec</title>
<ellipse fill="khaki" stroke="black" cx="352.25" cy="-170.5" rx="159.06" ry="18"/>
<text xml:space="preserve" text-anchor="middle" x="352.25" y="-165.82" font-family="Helvetica,sans-Serif" font-size="14.00">Vector of Stitched Workspaces</text>
</g>
<!-- groupWS -->
<g id="node15" class="node">
<title>groupWS</title>
<path fill="lightskyblue" stroke="black" d="M410.88,-112.25C410.88,-112.25 293.62,-112.25 293.62,-112.25 287.62,-112.25 281.62,-106.25 281.62,-100.25 281.62,-100.25 281.62,-88.25 281.62,-88.25 281.62,-82.25 287.62,-76.25 293.62,-76.25 293.62,-76.25 410.88,-76.25 410.88,-76.25 416.88,-76.25 422.88,-82.25 422.88,-88.25 422.88,-88.25 422.88,-100.25 422.88,-100.25 422.88,-106.25 416.88,-112.25 410.88,-112.25"/>
<text xml:space="preserve" text-anchor="middle" x="352.25" y="-89.58" font-family="Helvetica,sans-Serif" font-size="14.00">GroupWorkspaces</text>
</g>
<!-- stitchedWSVec&#45;&gt;groupWS -->
<g id="edge17" class="edge">
<title>stitchedWSVec&#45;&gt;groupWS</title>
<path fill="none" stroke="black" d="M352.25,-152.28C352.25,-143.91 352.25,-133.61 352.25,-124.09"/>
<polygon fill="black" stroke="black" points="355.75,-124.15 352.25,-114.15 348.75,-124.15 355.75,-124.15"/>
</g>
<!-- checkGroups&#45;&gt;checkSFFP -->
<g id="edge3" class="edge">
<title>checkGroups&#45;&gt;checkSFFP</title>
<path fill="none" stroke="black" d="M224.39,-644.16C273.8,-621.94 344.4,-590.19 396.93,-566.57"/>
<polygon fill="black" stroke="black" points="398.12,-569.87 405.8,-562.58 395.25,-563.49 398.12,-569.87"/>
<text xml:space="preserve" text-anchor="middle" x="346.89" y="-597.95" font-family="Helvetica,sans-Serif" font-size="14.00">yes</text>
</g>
<!-- S1D_WS -->
<g id="node11" class="node">
<title>S1D_WS</title>
<path fill="lightskyblue" stroke="black" d="M251.12,-115.5C251.12,-115.5 177.38,-115.5 177.38,-115.5 171.38,-115.5 165.38,-109.5 165.38,-103.5 165.38,-103.5 165.38,-85 165.38,-85 165.38,-79 171.38,-73 177.38,-73 177.38,-73 251.12,-73 251.12,-73 257.12,-73 263.12,-79 263.12,-85 263.12,-85 263.12,-103.5 263.12,-103.5 263.12,-109.5 257.12,-115.5 251.12,-115.5"/>
<text xml:space="preserve" text-anchor="middle" x="214.25" y="-98.2" font-family="Helvetica,sans-Serif" font-size="14.00">Stitch1D all</text>
<text xml:space="preserve" text-anchor="middle" x="214.25" y="-80.95" font-family="Helvetica,sans-Serif" font-size="14.00">workspaces</text>
</g>
<!-- checkGroups&#45;&gt;S1D_WS -->
<g id="edge2" class="edge">
<title>checkGroups&#45;&gt;S1D_WS</title>
<path fill="none" stroke="black" d="M165.25,-629.01C165.25,-602.04 165.25,-566.2 165.25,-534.5 165.25,-534.5 165.25,-534.5 165.25,-169.5 165.25,-152.97 173.81,-137.28 183.78,-124.63"/>
<polygon fill="black" stroke="black" points="186.36,-127 190.2,-117.12 181.04,-122.45 186.36,-127"/>
<text xml:space="preserve" text-anchor="middle" x="173.88" y="-318.32" font-family="Helvetica,sans-Serif" font-size="14.00">no</text>
</g>
<!-- S1DM_Global -->
<g id="node13" class="node">
<title>S1DM_Global</title>
<path fill="lightskyblue" stroke="black" d="M543.38,-429.12C543.38,-429.12 393.12,-429.12 393.12,-429.12 387.12,-429.12 381.12,-423.12 381.12,-417.12 381.12,-417.12 381.12,-398.62 381.12,-398.62 381.12,-392.62 387.12,-386.62 393.12,-386.62 393.12,-386.62 543.38,-386.62 543.38,-386.62 549.38,-386.62 555.38,-392.62 555.38,-398.62 555.38,-398.62 555.38,-417.12 555.38,-417.12 555.38,-423.12 549.38,-429.12 543.38,-429.12"/>
<text xml:space="preserve" text-anchor="middle" x="468.25" y="-411.82" font-family="Helvetica,sans-Serif" font-size="14.00">Stitch1D all</text>
<text xml:space="preserve" text-anchor="middle" x="468.25" y="-394.57" font-family="Helvetica,sans-Serif" font-size="14.00">workspaces per period</text>
</g>
<!-- checkSFFP&#45;&gt;S1DM_Global -->
<g id="edge8" class="edge">
<title>checkSFFP&#45;&gt;S1DM_Global</title>
<path fill="none" stroke="black" d="M468.25,-490.65C468.25,-474.4 468.25,-456.08 468.25,-440.92"/>
<polygon fill="black" stroke="black" points="471.75,-441.04 468.25,-431.04 464.75,-441.04 471.75,-441.04"/>
<text xml:space="preserve" text-anchor="middle" x="476.88" y="-459.7" font-family="Helvetica,sans-Serif" font-size="14.00">no</text>
</g>
<!-- checkSFFP&#45;&gt;S1DM_Period -->
<g id="edge9" class="edge">
<title>checkSFFP&#45;&gt;S1DM_Period</title>
<path fill="none" stroke="black" d="M518.6,-502.57C548.33,-484.91 586.11,-462.45 617.23,-443.95"/>
<polygon fill="black" stroke="black" points="618.97,-446.99 625.78,-438.87 615.39,-440.97 618.97,-446.99"/>
<text xml:space="preserve" text-anchor="middle" x="609" y="-459.7" font-family="Helvetica,sans-Serif" font-size="14.00">yes</text>
</g>
<!-- S1D_WS&#45;&gt;outWS -->
<g id="edge4" class="edge">
<title>S1D_WS&#45;&gt;outWS</title>
<path fill="none" stroke="black" d="M246.56,-72.57C261.41,-63.06 279.07,-51.76 294.34,-41.99"/>
<polygon fill="black" stroke="black" points="296.16,-44.98 302.69,-36.64 292.38,-39.08 296.16,-44.98"/>
</g>
<!-- S1D_WS&#45;&gt;outSF -->
<g id="edge5" class="edge">
<title>S1D_WS&#45;&gt;outSF</title>
<path fill="none" stroke="black" d="M263.47,-75.55C266.43,-74.65 269.37,-73.79 272.25,-73 334.73,-55.86 406.81,-41.6 460.32,-32.05"/>
<polygon fill="black" stroke="black" points="460.71,-35.53 469.95,-30.34 459.49,-28.64 460.71,-35.53"/>
</g>
<!-- S1D_Groups&#45;&gt;outSF -->
<g id="edge16" class="edge">
<title>S1D_Groups&#45;&gt;outSF</title>
<path fill="none" stroke="black" d="M643.84,-225.23C623.06,-184.25 576.42,-92.3 553.09,-46.29"/>
<polygon fill="black" stroke="black" points="556.29,-44.85 548.64,-37.52 550.04,-48.02 556.29,-44.85"/>
</g>
<!-- S1D_Groups&#45;&gt;stitchedWSVec -->
<g id="edge15" class="edge">
<title>S1D_Groups&#45;&gt;stitchedWSVec</title>
<path fill="none" stroke="black" d="M570.13,-225.07C525.49,-214.09 471.09,-200.72 427.81,-190.08"/>
<polygon fill="black" stroke="black" points="428.79,-186.71 418.25,-187.73 427.12,-193.51 428.79,-186.71"/>
</g>
<!-- S1DM_Global&#45;&gt;outSF -->
<g id="edge12" class="edge">
<title>S1DM_Global&#45;&gt;outSF</title>
<path fill="none" stroke="black" d="M500.43,-386.3C519.21,-371.55 539.25,-349.77 539.25,-324 539.25,-324 539.25,-324 539.25,-93.25 539.25,-78.2 539.25,-61.42 539.25,-47.63"/>
<polygon fill="black" stroke="black" points="542.75,-47.92 539.25,-37.92 535.75,-47.92 542.75,-47.92"/>
</g>
<!-- S1DM_Global&#45;&gt;stitchedWSVec -->
<g id="edge11" class="edge">
<title>S1DM_Global&#45;&gt;stitchedWSVec</title>
<path fill="none" stroke="black" d="M458.16,-386.4C437.29,-344.06 389.4,-246.87 365.84,-199.07"/>
<polygon fill="black" stroke="black" points="369.03,-197.63 361.47,-190.21 362.75,-200.72 369.03,-197.63"/>
</g>
<!-- S1DM_Period&#45;&gt;psf -->
<g id="edge13" class="edge">
<title>S1DM_Period&#45;&gt;psf</title>
<path fill="none" stroke="black" d="M676.25,-377.89C676.25,-369.74 676.25,-360.87 676.25,-352.73"/>
<polygon fill="black" stroke="black" points="679.75,-353.01 676.25,-343.01 672.75,-353.01 679.75,-353.01"/>
</g>
<!-- groupWS&#45;&gt;outWS -->
<g id="edge18" class="edge">
<title>groupWS&#45;&gt;outWS</title>
<path fill="none" stroke="black" d="M347.15,-76.03C344.61,-67.47 341.48,-56.9 338.61,-47.2"/>
<polygon fill="black" stroke="black" points="342.03,-46.43 335.83,-37.84 335.32,-48.42 342.03,-46.43"/>
</g>
</g>
</svg>
