<?xml version="1.0" encoding="UTF-8" standalone="no"?>
<!DOCTYPE svg PUBLIC "-//W3C//DTD SVG 1.1//EN"
 "http://www.w3.org/Graphics/SVG/1.1/DTD/svg11.dtd">
<!-- Generated by graphviz version 13.1.2 (20250809.0930)
 -->
<!-- Title: TextureGUIWorkflow Pages: 1 -->
<svg width="1156pt" height="1026pt"
 viewBox="0.00 0.00 1156.00 1026.00" xmlns="http://www.w3.org/2000/svg" xmlns:xlink="http://www.w3.org/1999/xlink">
<g id="graph0" class="graph" transform="scale(1 1) rotate(0) translate(4 1022.17)">
<title>TextureGUIWorkflow</title>
<polygon fill="white" stroke="none" points="-4,4 -4,-1022.17 1151.96,-1022.17 1151.96,4 -4,4"/>
<text xml:space="preserve" text-anchor="middle" x="573.98" y="-1000.87" font-family="Helvetica,sans-Serif" font-size="14.00">High&#45;level workflow for the Texture GUI.</text>
<!-- raw -->
<g id="node1" class="node">
<title>raw</title>
<ellipse fill="khaki" stroke="black" cx="93.3" cy="-824.61" rx="93.3" ry="18"/>
<text xml:space="preserve" text-anchor="middle" x="93.3" y="-819.94" font-family="Helvetica,sans-Serif" font-size="14.00">Raw Workspaces</text>
</g>
<!-- abs_tab -->
<g id="node14" class="node">
<title>abs_tab</title>
<path fill="lightskyblue" stroke="black" d="M421.67,-757.56C421.67,-757.56 278.92,-757.56 278.92,-757.56 272.92,-757.56 266.92,-751.56 266.92,-745.56 266.92,-745.56 266.92,-733.56 266.92,-733.56 266.92,-727.56 272.92,-721.56 278.92,-721.56 278.92,-721.56 421.67,-721.56 421.67,-721.56 427.67,-721.56 433.67,-727.56 433.67,-733.56 433.67,-733.56 433.67,-745.56 433.67,-745.56 433.67,-751.56 427.67,-757.56 421.67,-757.56"/>
<text xml:space="preserve" text-anchor="middle" x="350.3" y="-734.89" font-family="Helvetica,sans-Serif" font-size="14.00">Absorption Correction</text>
</g>
<!-- raw&#45;&gt;abs_tab -->
<g id="edge1" class="edge">
<title>raw&#45;&gt;abs_tab</title>
<path fill="none" stroke="black" d="M139.84,-808.57C180.6,-795.4 240.23,-776.13 285.63,-761.46"/>
<polygon fill="black" stroke="black" points="286.67,-764.8 295.1,-758.4 284.51,-758.14 286.67,-764.8"/>
</g>
<!-- orient -->
<g id="node2" class="node">
<title>orient</title>
<ellipse fill="khaki" stroke="black" cx="296.3" cy="-824.61" rx="91.72" ry="18"/>
<text xml:space="preserve" text-anchor="middle" x="296.3" y="-819.94" font-family="Helvetica,sans-Serif" font-size="14.00">Orientation Data</text>
</g>
<!-- orient&#45;&gt;abs_tab -->
<g id="edge2" class="edge">
<title>orient&#45;&gt;abs_tab</title>
<path fill="none" stroke="black" d="M307.49,-806.41C314.82,-795.12 324.56,-780.14 332.9,-767.32"/>
<polygon fill="black" stroke="black" points="335.59,-769.59 338.11,-759.3 329.73,-765.78 335.59,-769.59"/>
</g>
<!-- sample -->
<g id="node3" class="node">
<title>sample</title>
<ellipse fill="khaki" stroke="black" cx="509.3" cy="-824.61" rx="103.59" ry="30.05"/>
<text xml:space="preserve" text-anchor="middle" x="509.3" y="-828.56" font-family="Helvetica,sans-Serif" font-size="14.00">Sample Data</text>
<text xml:space="preserve" text-anchor="middle" x="509.3" y="-811.31" font-family="Helvetica,sans-Serif" font-size="14.00">(Shape + Material)</text>
</g>
<!-- sample&#45;&gt;abs_tab -->
<g id="edge4" class="edge">
<title>sample&#45;&gt;abs_tab</title>
<path fill="none" stroke="black" d="M459.86,-797.79C438.65,-786.71 414.09,-773.88 393.6,-763.18"/>
<polygon fill="black" stroke="black" points="395.43,-760.19 384.95,-758.66 392.19,-766.39 395.43,-760.19"/>
</g>
<!-- ceria -->
<g id="node4" class="node">
<title>ceria</title>
<ellipse fill="khaki" stroke="black" cx="689.3" cy="-824.61" rx="58.57" ry="18"/>
<text xml:space="preserve" text-anchor="middle" x="689.3" y="-819.94" font-family="Helvetica,sans-Serif" font-size="14.00">Ceria Run</text>
</g>
<!-- cal_tab -->
<g id="node15" class="node">
<title>cal_tab</title>
<path fill="lightskyblue" stroke="black" d="M838.8,-757.56C838.8,-757.56 771.8,-757.56 771.8,-757.56 765.8,-757.56 759.8,-751.56 759.8,-745.56 759.8,-745.56 759.8,-733.56 759.8,-733.56 759.8,-727.56 765.8,-721.56 771.8,-721.56 771.8,-721.56 838.8,-721.56 838.8,-721.56 844.8,-721.56 850.8,-727.56 850.8,-733.56 850.8,-733.56 850.8,-745.56 850.8,-745.56 850.8,-751.56 844.8,-757.56 838.8,-757.56"/>
<text xml:space="preserve" text-anchor="middle" x="805.3" y="-734.89" font-family="Helvetica,sans-Serif" font-size="14.00">Calibration</text>
</g>
<!-- ceria&#45;&gt;cal_tab -->
<g id="edge6" class="edge">
<title>ceria&#45;&gt;cal_tab</title>
<path fill="none" stroke="black" d="M711.66,-807.6C728.67,-795.42 752.36,-778.47 771.65,-764.65"/>
<polygon fill="black" stroke="black" points="773.67,-767.51 779.77,-758.84 769.6,-761.82 773.67,-767.51"/>
</g>
<!-- vanadium -->
<g id="node5" class="node">
<title>vanadium</title>
<ellipse fill="khaki" stroke="black" cx="847.3" cy="-824.61" rx="81.72" ry="18"/>
<text xml:space="preserve" text-anchor="middle" x="847.3" y="-819.94" font-family="Helvetica,sans-Serif" font-size="14.00">Vanadium Run</text>
</g>
<!-- vanadium&#45;&gt;cal_tab -->
<g id="edge7" class="edge">
<title>vanadium&#45;&gt;cal_tab</title>
<path fill="none" stroke="black" d="M838.59,-806.41C833,-795.34 825.61,-780.73 819.21,-768.08"/>
<polygon fill="black" stroke="black" points="822.45,-766.73 814.82,-759.39 816.21,-769.89 822.45,-766.73"/>
</g>
<!-- grouping -->
<g id="node6" class="node">
<title>grouping</title>
<ellipse fill="khaki" stroke="black" cx="1047.3" cy="-824.61" rx="100.66" ry="18"/>
<text xml:space="preserve" text-anchor="middle" x="1047.3" y="-819.94" font-family="Helvetica,sans-Serif" font-size="14.00">Detector Grouping</text>
</g>
<!-- grouping&#45;&gt;cal_tab -->
<g id="edge8" class="edge">
<title>grouping&#45;&gt;cal_tab</title>
<path fill="none" stroke="black" d="M1002.06,-808.09C962.42,-794.49 904.62,-774.65 861.92,-759.99"/>
<polygon fill="black" stroke="black" points="863.16,-756.72 852.56,-756.78 860.89,-763.34 863.16,-756.72"/>
</g>
<!-- in_ws -->
<g id="node7" class="node">
<title>in_ws</title>
<ellipse fill="khaki" stroke="black" cx="531.3" cy="-666.56" rx="98.56" ry="18"/>
<text xml:space="preserve" text-anchor="middle" x="531.3" y="-661.89" font-family="Helvetica,sans-Serif" font-size="14.00">Input Workspaces</text>
</g>
<!-- focus_tab -->
<g id="node16" class="node">
<title>focus_tab</title>
<path fill="lightskyblue" stroke="black" d="M658.05,-611.56C658.05,-611.56 604.55,-611.56 604.55,-611.56 598.55,-611.56 592.55,-605.56 592.55,-599.56 592.55,-599.56 592.55,-587.56 592.55,-587.56 592.55,-581.56 598.55,-575.56 604.55,-575.56 604.55,-575.56 658.05,-575.56 658.05,-575.56 664.05,-575.56 670.05,-581.56 670.05,-587.56 670.05,-587.56 670.05,-599.56 670.05,-599.56 670.05,-605.56 664.05,-611.56 658.05,-611.56"/>
<text xml:space="preserve" text-anchor="middle" x="631.3" y="-588.89" font-family="Helvetica,sans-Serif" font-size="14.00">Focusing</text>
</g>
<!-- in_ws&#45;&gt;focus_tab -->
<g id="edge10" class="edge">
<title>in_ws&#45;&gt;focus_tab</title>
<path fill="none" stroke="black" d="M555,-648.74C567.67,-639.74 583.49,-628.51 597.43,-618.61"/>
<polygon fill="black" stroke="black" points="599.36,-621.53 605.49,-612.89 595.31,-615.82 599.36,-621.53"/>
</g>
<!-- cal_info -->
<g id="node8" class="node">
<title>cal_info</title>
<ellipse fill="khaki" stroke="black" cx="763.3" cy="-666.56" rx="85.93" ry="18"/>
<text xml:space="preserve" text-anchor="middle" x="763.3" y="-661.89" font-family="Helvetica,sans-Serif" font-size="14.00">Calibration Info</text>
</g>
<!-- cal_info&#45;&gt;focus_tab -->
<g id="edge11" class="edge">
<title>cal_info&#45;&gt;focus_tab</title>
<path fill="none" stroke="black" d="M733.01,-649.27C715.46,-639.83 693.09,-627.8 673.8,-617.43"/>
<polygon fill="black" stroke="black" points="675.54,-614.39 665.08,-612.73 672.23,-620.55 675.54,-614.39"/>
</g>
<!-- foc_ws -->
<g id="node9" class="node">
<title>foc_ws</title>
<ellipse fill="khaki" stroke="black" cx="631.3" cy="-520.56" rx="112.76" ry="18"/>
<text xml:space="preserve" text-anchor="middle" x="631.3" y="-515.89" font-family="Helvetica,sans-Serif" font-size="14.00">Focused Workspaces</text>
</g>
<!-- peaks -->
<g id="node10" class="node">
<title>peaks</title>
<ellipse fill="khaki" stroke="black" cx="591.3" cy="-435.51" rx="52.68" ry="30.05"/>
<text xml:space="preserve" text-anchor="middle" x="591.3" y="-439.46" font-family="Helvetica,sans-Serif" font-size="14.00">Peaks of</text>
<text xml:space="preserve" text-anchor="middle" x="591.3" y="-422.21" font-family="Helvetica,sans-Serif" font-size="14.00">Interest</text>
</g>
<!-- foc_ws&#45;&gt;peaks -->
<g id="edge13" class="edge">
<title>foc_ws&#45;&gt;peaks</title>
<path fill="none" stroke="black" d="M623.01,-502.35C619.18,-494.4 614.46,-484.6 609.85,-475.03"/>
<polygon fill="black" stroke="black" points="613.08,-473.67 605.58,-466.18 606.77,-476.7 613.08,-473.67"/>
</g>
<!-- fit_tab -->
<g id="node17" class="node">
<title>fit_tab</title>
<path fill="lightskyblue" stroke="black" d="M689.67,-343.96C689.67,-343.96 654.92,-343.96 654.92,-343.96 648.92,-343.96 642.92,-337.96 642.92,-331.96 642.92,-331.96 642.92,-319.96 642.92,-319.96 642.92,-313.96 648.92,-307.96 654.92,-307.96 654.92,-307.96 689.67,-307.96 689.67,-307.96 695.67,-307.96 701.67,-313.96 701.67,-319.96 701.67,-319.96 701.67,-331.96 701.67,-331.96 701.67,-337.96 695.67,-343.96 689.67,-343.96"/>
<text xml:space="preserve" text-anchor="middle" x="672.3" y="-321.28" font-family="Helvetica,sans-Serif" font-size="14.00">Fitting</text>
</g>
<!-- foc_ws&#45;&gt;fit_tab -->
<g id="edge14" class="edge">
<title>foc_ws&#45;&gt;fit_tab</title>
<path fill="none" stroke="black" d="M639.57,-502.43C644.27,-492 649.89,-478.27 653.3,-465.56 663.25,-428.37 668.17,-384.08 670.46,-355.76"/>
<polygon fill="black" stroke="black" points="673.95,-356.05 671.2,-345.81 666.97,-355.52 673.95,-356.05"/>
</g>
<!-- peaks&#45;&gt;fit_tab -->
<g id="edge15" class="edge">
<title>peaks&#45;&gt;fit_tab</title>
<path fill="none" stroke="black" d="M611.74,-407.37C624.19,-390.83 640.04,-369.79 652.4,-353.38"/>
<polygon fill="black" stroke="black" points="655.09,-355.62 658.31,-345.53 649.5,-351.41 655.09,-355.62"/>
</g>
<!-- have_crystal -->
<g id="node20" class="node">
<title>have_crystal</title>
<polygon fill="limegreen" stroke="black" points="514.3,-368.46 410.55,-325.96 514.3,-283.46 618.05,-325.96 514.3,-368.46"/>
<text xml:space="preserve" text-anchor="middle" x="514.3" y="-329.91" font-family="Helvetica,sans-Serif" font-size="14.00">Crystal</text>
<text xml:space="preserve" text-anchor="middle" x="514.3" y="-312.66" font-family="Helvetica,sans-Serif" font-size="14.00">Information?</text>
</g>
<!-- peaks&#45;&gt;have_crystal -->
<g id="edge16" class="edge">
<title>peaks&#45;&gt;have_crystal</title>
<path fill="none" stroke="black" d="M571.87,-407.37C563.48,-395.65 553.47,-381.68 544.17,-368.69"/>
<polygon fill="black" stroke="black" points="547.11,-366.78 538.44,-360.69 541.42,-370.85 547.11,-366.78"/>
</g>
<!-- structure -->
<g id="node11" class="node">
<title>structure</title>
<ellipse fill="khaki" stroke="black" cx="472.3" cy="-200.16" rx="94.58" ry="30.05"/>
<text xml:space="preserve" text-anchor="middle" x="472.3" y="-204.11" font-family="Helvetica,sans-Serif" font-size="14.00">Crystal Structure</text>
<text xml:space="preserve" text-anchor="middle" x="472.3" y="-186.86" font-family="Helvetica,sans-Serif" font-size="14.00">and HKLs</text>
</g>
<!-- texture_tab -->
<g id="node18" class="node">
<title>texture_tab</title>
<path fill="lightskyblue" stroke="black" d="M596.42,-133.1C596.42,-133.1 554.17,-133.1 554.17,-133.1 548.17,-133.1 542.17,-127.1 542.17,-121.1 542.17,-121.1 542.17,-109.1 542.17,-109.1 542.17,-103.1 548.17,-97.1 554.17,-97.1 554.17,-97.1 596.42,-97.1 596.42,-97.1 602.42,-97.1 608.42,-103.1 608.42,-109.1 608.42,-109.1 608.42,-121.1 608.42,-121.1 608.42,-127.1 602.42,-133.1 596.42,-133.1"/>
<text xml:space="preserve" text-anchor="middle" x="575.3" y="-110.43" font-family="Helvetica,sans-Serif" font-size="14.00">Texture</text>
</g>
<!-- structure&#45;&gt;texture_tab -->
<g id="edge20" class="edge">
<title>structure&#45;&gt;texture_tab</title>
<path fill="none" stroke="black" d="M506.31,-171.73C518.73,-161.72 532.69,-150.46 544.79,-140.71"/>
<polygon fill="black" stroke="black" points="546.85,-143.54 552.44,-134.53 542.46,-138.09 546.85,-143.54"/>
</g>
<!-- param_tables -->
<g id="node12" class="node">
<title>param_tables</title>
<ellipse fill="khaki" stroke="black" cx="679.3" cy="-200.16" rx="94.35" ry="18"/>
<text xml:space="preserve" text-anchor="middle" x="679.3" y="-195.48" font-family="Helvetica,sans-Serif" font-size="14.00">Parameter Tables</text>
</g>
<!-- param_tables&#45;&gt;texture_tab -->
<g id="edge18" class="edge">
<title>param_tables&#45;&gt;texture_tab</title>
<path fill="none" stroke="black" d="M658,-182.15C642.96,-170.14 622.57,-153.86 605.81,-140.47"/>
<polygon fill="black" stroke="black" points="608.1,-137.82 598.11,-134.32 603.74,-143.29 608.1,-137.82"/>
</g>
<!-- pole_tables -->
<g id="node13" class="node">
<title>pole_tables</title>
<ellipse fill="khaki" stroke="black" cx="575.3" cy="-30.05" rx="64.35" ry="30.05"/>
<text xml:space="preserve" text-anchor="middle" x="575.3" y="-34" font-family="Helvetica,sans-Serif" font-size="14.00">Pole Figure</text>
<text xml:space="preserve" text-anchor="middle" x="575.3" y="-16.75" font-family="Helvetica,sans-Serif" font-size="14.00">Tables</text>
</g>
<!-- abs_tab&#45;&gt;in_ws -->
<g id="edge5" class="edge">
<title>abs_tab&#45;&gt;in_ws</title>
<path fill="none" stroke="black" d="M394.57,-721.19C420.54,-711.01 453.44,-698.1 480.46,-687.5"/>
<polygon fill="black" stroke="black" points="481.44,-690.88 489.47,-683.97 478.88,-684.36 481.44,-690.88"/>
</g>
<!-- cal_tab&#45;&gt;cal_info -->
<g id="edge9" class="edge">
<title>cal_tab&#45;&gt;cal_info</title>
<path fill="none" stroke="black" d="M795.13,-721.38C790.33,-713.26 784.5,-703.4 779.14,-694.34"/>
<polygon fill="black" stroke="black" points="782.24,-692.72 774.14,-685.89 776.22,-696.28 782.24,-692.72"/>
</g>
<!-- focus_tab&#45;&gt;foc_ws -->
<g id="edge12" class="edge">
<title>focus_tab&#45;&gt;foc_ws</title>
<path fill="none" stroke="black" d="M631.3,-575.38C631.3,-567.79 631.3,-558.66 631.3,-550.1"/>
<polygon fill="black" stroke="black" points="634.8,-550.1 631.3,-540.1 627.8,-550.1 634.8,-550.1"/>
</g>
<!-- fit_tab&#45;&gt;param_tables -->
<g id="edge17" class="edge">
<title>fit_tab&#45;&gt;param_tables</title>
<path fill="none" stroke="black" d="M673.28,-307.48C674.43,-287.3 676.32,-253.79 677.68,-229.79"/>
<polygon fill="black" stroke="black" points="681.16,-230.24 678.23,-220.05 674.17,-229.84 681.16,-230.24"/>
</g>
<!-- texture_tab&#45;&gt;pole_tables -->
<g id="edge21" class="edge">
<title>texture_tab&#45;&gt;pole_tables</title>
<path fill="none" stroke="black" d="M575.3,-96.9C575.3,-89.56 575.3,-80.67 575.3,-71.81"/>
<polygon fill="black" stroke="black" points="578.8,-71.86 575.3,-61.86 571.8,-71.86 578.8,-71.86"/>
</g>
<!-- do_abs -->
<g id="node19" class="node">
<title>do_abs</title>
<polygon fill="limegreen" stroke="black" points="509.3,-992.92 415.3,-950.42 509.3,-907.92 603.3,-950.42 509.3,-992.92"/>
<text xml:space="preserve" text-anchor="middle" x="509.3" y="-954.37" font-family="Helvetica,sans-Serif" font-size="14.00">Absorption</text>
<text xml:space="preserve" text-anchor="middle" x="509.3" y="-937.12" font-family="Helvetica,sans-Serif" font-size="14.00">Correction?</text>
</g>
<!-- do_abs&#45;&gt;sample -->
<g id="edge3" class="edge">
<title>do_abs&#45;&gt;sample</title>
<path fill="none" stroke="black" d="M509.3,-907.5C509.3,-894.16 509.3,-879.42 509.3,-866.17"/>
<polygon fill="black" stroke="black" points="512.8,-866.5 509.3,-856.5 505.8,-866.5 512.8,-866.5"/>
<text xml:space="preserve" text-anchor="middle" x="520.55" y="-876.62" font-family="Helvetica,sans-Serif" font-size="14.00">Yes</text>
</g>
<!-- have_crystal&#45;&gt;structure -->
<g id="edge19" class="edge">
<title>have_crystal&#45;&gt;structure</title>
<path fill="none" stroke="black" d="M501.81,-288.15C496.75,-273.24 490.9,-255.99 485.75,-240.8"/>
<polygon fill="black" stroke="black" points="489.15,-239.94 482.62,-231.6 482.52,-242.19 489.15,-239.94"/>
<text xml:space="preserve" text-anchor="middle" x="504.55" y="-252.16" font-family="Helvetica,sans-Serif" font-size="14.00">Yes</text>
</g>
</g>
</svg>
