<?xml version="1.0" encoding="UTF-8" standalone="no"?>
<!DOCTYPE svg PUBLIC "-//W3C//DTD SVG 1.1//EN"
 "http://www.w3.org/Graphics/SVG/1.1/DTD/svg11.dtd">
<!-- Generated by graphviz version 13.1.2 (20250809.0930)
 -->
<!-- Title: TextureAbsorptionTabWorkflow Pages: 1 -->
<svg width="1696pt" height="997pt"
 viewBox="0.00 0.00 1696.00 997.00" xmlns="http://www.w3.org/2000/svg" xmlns:xlink="http://www.w3.org/1999/xlink">
<g id="graph0" class="graph" transform="scale(1 1) rotate(0) translate(4 993.46)">
<title>TextureAbsorptionTabWorkflow</title>
<polygon fill="white" stroke="none" points="-4,4 -4,-993.46 1692.25,-993.46 1692.25,4 -4,4"/>
<text xml:space="preserve" text-anchor="middle" x="844.12" y="-972.16" font-family="Helvetica,sans-Serif" font-size="14.00">Absorption Correction tab workflow for Texture GUI</text>
<!-- raw_ws -->
<g id="node1" class="node">
<title>raw_ws</title>
<ellipse fill="khaki" stroke="black" cx="458.75" cy="-330.55" rx="93.3" ry="18"/>
<text xml:space="preserve" text-anchor="middle" x="458.75" y="-325.88" font-family="Helvetica,sans-Serif" font-size="14.00">Raw Workspaces</text>
</g>
<!-- load_orient -->
<g id="node13" class="node">
<title>load_orient</title>
<path fill="lightskyblue" stroke="black" d="M317,-263.5C317,-263.5 182.5,-263.5 182.5,-263.5 176.5,-263.5 170.5,-257.5 170.5,-251.5 170.5,-251.5 170.5,-239.5 170.5,-239.5 170.5,-233.5 176.5,-227.5 182.5,-227.5 182.5,-227.5 317,-227.5 317,-227.5 323,-227.5 329,-233.5 329,-239.5 329,-239.5 329,-251.5 329,-251.5 329,-257.5 323,-263.5 317,-263.5"/>
<text xml:space="preserve" text-anchor="middle" x="249.75" y="-240.82" font-family="Helvetica,sans-Serif" font-size="14.00">Load Orientation File</text>
</g>
<!-- raw_ws&#45;&gt;load_orient -->
<g id="edge6" class="edge">
<title>raw_ws&#45;&gt;load_orient</title>
<path fill="none" stroke="black" d="M419.44,-313.93C386.83,-300.97 340.12,-282.41 303.96,-268.04"/>
<polygon fill="black" stroke="black" points="305.57,-264.92 294.99,-264.48 302.99,-271.42 305.57,-264.92"/>
</g>
<!-- copy_ref -->
<g id="node19" class="node">
<title>copy_ref</title>
<path fill="lightskyblue" stroke="black" d="M537.25,-263.5C537.25,-263.5 380.25,-263.5 380.25,-263.5 374.25,-263.5 368.25,-257.5 368.25,-251.5 368.25,-251.5 368.25,-239.5 368.25,-239.5 368.25,-233.5 374.25,-227.5 380.25,-227.5 380.25,-227.5 537.25,-227.5 537.25,-227.5 543.25,-227.5 549.25,-233.5 549.25,-239.5 549.25,-239.5 549.25,-251.5 549.25,-251.5 549.25,-257.5 543.25,-263.5 537.25,-263.5"/>
<text xml:space="preserve" text-anchor="middle" x="458.75" y="-240.82" font-family="Helvetica,sans-Serif" font-size="14.00">Copy Reference Sample</text>
</g>
<!-- raw_ws&#45;&gt;copy_ref -->
<g id="edge19" class="edge">
<title>raw_ws&#45;&gt;copy_ref</title>
<path fill="none" stroke="black" d="M458.75,-312.34C458.75,-301.61 458.75,-287.54 458.75,-275.16"/>
<polygon fill="black" stroke="black" points="462.25,-275.49 458.75,-265.49 455.25,-275.49 462.25,-275.49"/>
</g>
<!-- orient_data -->
<g id="node2" class="node">
<title>orient_data</title>
<ellipse fill="khaki" stroke="black" cx="130.75" cy="-613.35" rx="91.72" ry="18"/>
<text xml:space="preserve" text-anchor="middle" x="130.75" y="-608.68" font-family="Helvetica,sans-Serif" font-size="14.00">Orientation Data</text>
</g>
<!-- orient_type -->
<g id="node21" class="node">
<title>orient_type</title>
<polygon fill="limegreen" stroke="black" points="130.75,-498.85 0,-456.35 130.75,-413.85 261.5,-456.35 130.75,-498.85"/>
<text xml:space="preserve" text-anchor="middle" x="130.75" y="-460.3" font-family="Helvetica,sans-Serif" font-size="14.00">Orientation Data</text>
<text xml:space="preserve" text-anchor="middle" x="130.75" y="-443.05" font-family="Helvetica,sans-Serif" font-size="14.00">Type</text>
</g>
<!-- orient_data&#45;&gt;orient_type -->
<g id="edge1" class="edge">
<title>orient_data&#45;&gt;orient_type</title>
<path fill="none" stroke="black" d="M130.75,-594.87C130.75,-574.54 130.75,-539.98 130.75,-510.6"/>
<polygon fill="black" stroke="black" points="134.25,-510.74 130.75,-500.74 127.25,-510.74 134.25,-510.74"/>
</g>
<!-- euler_axes -->
<g id="node3" class="node">
<title>euler_axes</title>
<ellipse fill="khaki" stroke="black" cx="106.75" cy="-330.55" rx="85.03" ry="30.05"/>
<text xml:space="preserve" text-anchor="middle" x="106.75" y="-334.5" font-family="Helvetica,sans-Serif" font-size="14.00">Euler Axes and</text>
<text xml:space="preserve" text-anchor="middle" x="106.75" y="-317.25" font-family="Helvetica,sans-Serif" font-size="14.00">Sense</text>
</g>
<!-- euler_axes&#45;&gt;load_orient -->
<g id="edge3" class="edge">
<title>euler_axes&#45;&gt;load_orient</title>
<path fill="none" stroke="black" d="M150.04,-304.41C169.05,-293.37 191.22,-280.49 209.82,-269.69"/>
<polygon fill="black" stroke="black" points="211.55,-272.73 218.44,-264.69 208.03,-266.68 211.55,-272.73"/>
</g>
<!-- workspaces -->
<g id="node4" class="node">
<title>workspaces</title>
<ellipse fill="khaki" stroke="black" cx="453.75" cy="-131.75" rx="69.62" ry="18"/>
<text xml:space="preserve" text-anchor="middle" x="453.75" y="-127.08" font-family="Helvetica,sans-Serif" font-size="14.00">Workspaces</text>
</g>
<!-- apply_corr -->
<g id="node20" class="node">
<title>apply_corr</title>
<path fill="lightskyblue" stroke="black" d="M892.88,-36C892.88,-36 778.62,-36 778.62,-36 772.62,-36 766.62,-30 766.62,-24 766.62,-24 766.62,-12 766.62,-12 766.62,-6 772.62,0 778.62,0 778.62,0 892.88,0 892.88,0 898.88,0 904.88,-6 904.88,-12 904.88,-12 904.88,-24 904.88,-24 904.88,-30 898.88,-36 892.88,-36"/>
<text xml:space="preserve" text-anchor="middle" x="835.75" y="-13.32" font-family="Helvetica,sans-Serif" font-size="14.00">Apply Corrections</text>
</g>
<!-- workspaces&#45;&gt;apply_corr -->
<g id="edge27" class="edge">
<title>workspaces&#45;&gt;apply_corr</title>
<path fill="none" stroke="black" d="M480.02,-114.77C495.03,-106.21 514.45,-96.05 532.75,-89.25 605.9,-62.07 693.01,-43.19 755.02,-31.9"/>
<polygon fill="black" stroke="black" points="755.58,-35.36 764.8,-30.15 754.34,-28.47 755.58,-35.36"/>
</g>
<!-- xml_file -->
<g id="node5" class="node">
<title>xml_file</title>
<ellipse fill="khaki" stroke="black" cx="622.75" cy="-245.5" rx="50.68" ry="18"/>
<text xml:space="preserve" text-anchor="middle" x="622.75" y="-240.82" font-family="Helvetica,sans-Serif" font-size="14.00">XML File</text>
</g>
<!-- gauge_custom -->
<g id="node6" class="node">
<title>gauge_custom</title>
<ellipse fill="khaki" stroke="black" cx="623.75" cy="-131.75" rx="82.25" ry="18"/>
<text xml:space="preserve" text-anchor="middle" x="623.75" y="-127.08" font-family="Helvetica,sans-Serif" font-size="14.00">Custom Shape</text>
</g>
<!-- xml_file&#45;&gt;gauge_custom -->
<g id="edge24" class="edge">
<title>xml_file&#45;&gt;gauge_custom</title>
<path fill="none" stroke="black" d="M622.91,-227.04C623.06,-209.49 623.31,-182.14 623.49,-161.41"/>
<polygon fill="black" stroke="black" points="626.99,-161.63 623.58,-151.6 619.99,-161.57 626.99,-161.63"/>
</g>
<!-- gauge_custom&#45;&gt;apply_corr -->
<g id="edge28" class="edge">
<title>gauge_custom&#45;&gt;apply_corr</title>
<path fill="none" stroke="black" d="M654.12,-114.74C690.43,-95.6 751.44,-63.44 792.62,-41.73"/>
<polygon fill="black" stroke="black" points="794.09,-44.92 801.3,-37.16 790.82,-38.73 794.09,-44.92"/>
</g>
<!-- gauge_none -->
<g id="node7" class="node">
<title>gauge_none</title>
<ellipse fill="khaki" stroke="black" cx="963.75" cy="-131.75" rx="98.03" ry="18"/>
<text xml:space="preserve" text-anchor="middle" x="963.75" y="-127.08" font-family="Helvetica,sans-Serif" font-size="14.00">No Gauge Volume</text>
</g>
<!-- gauge_none&#45;&gt;apply_corr -->
<g id="edge30" class="edge">
<title>gauge_none&#45;&gt;apply_corr</title>
<path fill="none" stroke="black" d="M944.31,-113.78C922.88,-95.07 888.23,-64.82 863.85,-43.53"/>
<polygon fill="black" stroke="black" points="866.35,-41.07 856.51,-37.13 861.74,-46.34 866.35,-41.07"/>
</g>
<!-- gauge_cube -->
<g id="node8" class="node">
<title>gauge_cube</title>
<ellipse fill="khaki" stroke="black" cx="785.75" cy="-131.75" rx="61.73" ry="18"/>
<text xml:space="preserve" text-anchor="middle" x="785.75" y="-127.08" font-family="Helvetica,sans-Serif" font-size="14.00">4mmCube</text>
</g>
<!-- gauge_cube&#45;&gt;apply_corr -->
<g id="edge29" class="edge">
<title>gauge_cube&#45;&gt;apply_corr</title>
<path fill="none" stroke="black" d="M793.34,-113.78C801.35,-95.89 814.07,-67.45 823.5,-46.38"/>
<polygon fill="black" stroke="black" points="826.58,-48.07 827.47,-37.51 820.19,-45.21 826.58,-48.07"/>
</g>
<!-- eval_point -->
<g id="node9" class="node">
<title>eval_point</title>
<ellipse fill="khaki" stroke="black" cx="1225.75" cy="-245.5" rx="89.61" ry="18"/>
<text xml:space="preserve" text-anchor="middle" x="1225.75" y="-240.82" font-family="Helvetica,sans-Serif" font-size="14.00">Evaluation Point</text>
</g>
<!-- atten_q -->
<g id="node26" class="node">
<title>atten_q</title>
<polygon fill="limegreen" stroke="black" points="1225.75,-174.25 1080,-131.75 1225.75,-89.25 1371.5,-131.75 1225.75,-174.25"/>
<text xml:space="preserve" text-anchor="middle" x="1225.75" y="-135.7" font-family="Helvetica,sans-Serif" font-size="14.00">Create Attenuation</text>
<text xml:space="preserve" text-anchor="middle" x="1225.75" y="-118.45" font-family="Helvetica,sans-Serif" font-size="14.00">Table?</text>
</g>
<!-- eval_point&#45;&gt;atten_q -->
<g id="edge25" class="edge">
<title>eval_point&#45;&gt;atten_q</title>
<path fill="none" stroke="black" d="M1225.75,-227.04C1225.75,-215.89 1225.75,-200.78 1225.75,-185.92"/>
<polygon fill="black" stroke="black" points="1229.25,-186.19 1225.75,-176.19 1222.25,-186.19 1229.25,-186.19"/>
</g>
<!-- div_values -->
<g id="node10" class="node">
<title>div_values</title>
<ellipse fill="khaki" stroke="black" cx="1538.75" cy="-245.5" rx="100.66" ry="18"/>
<text xml:space="preserve" text-anchor="middle" x="1538.75" y="-240.82" font-family="Helvetica,sans-Serif" font-size="14.00">Divergence Values</text>
</g>
<!-- div_q -->
<g id="node27" class="node">
<title>div_q</title>
<polygon fill="limegreen" stroke="black" points="1538.75,-174.25 1389.25,-131.75 1538.75,-89.25 1688.25,-131.75 1538.75,-174.25"/>
<text xml:space="preserve" text-anchor="middle" x="1538.75" y="-135.7" font-family="Helvetica,sans-Serif" font-size="14.00">Include Divergence</text>
<text xml:space="preserve" text-anchor="middle" x="1538.75" y="-118.45" font-family="Helvetica,sans-Serif" font-size="14.00">Calculation?</text>
</g>
<!-- div_values&#45;&gt;div_q -->
<g id="edge26" class="edge">
<title>div_values&#45;&gt;div_q</title>
<path fill="none" stroke="black" d="M1538.75,-227.04C1538.75,-215.89 1538.75,-200.78 1538.75,-185.92"/>
<polygon fill="black" stroke="black" points="1542.25,-186.19 1538.75,-176.19 1535.25,-186.19 1542.25,-186.19"/>
</g>
<!-- init_ref_ws -->
<g id="node11" class="node">
<title>init_ref_ws</title>
<ellipse fill="khaki" stroke="black" cx="767.75" cy="-722.91" rx="64.88" ry="30.05"/>
<text xml:space="preserve" text-anchor="middle" x="767.75" y="-726.86" font-family="Helvetica,sans-Serif" font-size="14.00">Reference</text>
<text xml:space="preserve" text-anchor="middle" x="767.75" y="-709.61" font-family="Helvetica,sans-Serif" font-size="14.00">Workspace</text>
</g>
<!-- set_material -->
<g id="node17" class="node">
<title>set_material</title>
<path fill="lightskyblue" stroke="black" d="M1017.12,-552.85C1017.12,-552.85 886.38,-552.85 886.38,-552.85 880.38,-552.85 874.38,-546.85 874.38,-540.85 874.38,-540.85 874.38,-528.85 874.38,-528.85 874.38,-522.85 880.38,-516.85 886.38,-516.85 886.38,-516.85 1017.12,-516.85 1017.12,-516.85 1023.12,-516.85 1029.12,-522.85 1029.12,-528.85 1029.12,-528.85 1029.12,-540.85 1029.12,-540.85 1029.12,-546.85 1023.12,-552.85 1017.12,-552.85"/>
<text xml:space="preserve" text-anchor="middle" x="951.75" y="-530.18" font-family="Helvetica,sans-Serif" font-size="14.00">Set Sample Material</text>
</g>
<!-- init_ref_ws&#45;&gt;set_material -->
<g id="edge10" class="edge">
<title>init_ref_ws&#45;&gt;set_material</title>
<path fill="none" stroke="black" d="M829.9,-713.62C866.74,-705.33 911.12,-688.8 936.75,-655.85 956.99,-629.85 958.05,-590.62 955.84,-564.16"/>
<polygon fill="black" stroke="black" points="959.35,-564.07 954.81,-554.5 952.39,-564.81 959.35,-564.07"/>
</g>
<!-- shape_q -->
<g id="node23" class="node">
<title>shape_q</title>
<polygon fill="limegreen" stroke="black" points="580.75,-631.35 477.83,-613.35 580.75,-595.35 683.67,-613.35 580.75,-631.35"/>
<text xml:space="preserve" text-anchor="middle" x="580.75" y="-608.68" font-family="Helvetica,sans-Serif" font-size="14.00">Shape Data?</text>
</g>
<!-- init_ref_ws&#45;&gt;shape_q -->
<g id="edge9" class="edge">
<title>init_ref_ws&#45;&gt;shape_q</title>
<path fill="none" stroke="black" d="M727.63,-698.83C693.64,-679.28 645.5,-651.59 613.72,-633.32"/>
<polygon fill="black" stroke="black" points="615.74,-630.44 605.33,-628.49 612.25,-636.51 615.74,-630.44"/>
</g>
<!-- ref_ws -->
<g id="node12" class="node">
<title>ref_ws</title>
<ellipse fill="khaki" stroke="black" cx="634.75" cy="-330.55" rx="64.88" ry="30.05"/>
<text xml:space="preserve" text-anchor="middle" x="634.75" y="-334.5" font-family="Helvetica,sans-Serif" font-size="14.00">Reference</text>
<text xml:space="preserve" text-anchor="middle" x="634.75" y="-317.25" font-family="Helvetica,sans-Serif" font-size="14.00">Workspace</text>
</g>
<!-- ref_ws&#45;&gt;copy_ref -->
<g id="edge18" class="edge">
<title>ref_ws&#45;&gt;copy_ref</title>
<path fill="none" stroke="black" d="M589.88,-308.38C564.28,-296.3 532.21,-281.17 506.19,-268.89"/>
<polygon fill="black" stroke="black" points="507.72,-265.74 497.19,-264.64 504.74,-272.07 507.72,-265.74"/>
</g>
<!-- load_orient&#45;&gt;workspaces -->
<g id="edge5" class="edge">
<title>load_orient&#45;&gt;workspaces</title>
<path fill="none" stroke="black" d="M281.62,-227.04C317.73,-207.26 376.56,-175.03 415.21,-153.86"/>
<polygon fill="black" stroke="black" points="416.65,-157.07 423.73,-149.19 413.28,-150.93 416.65,-157.07"/>
</g>
<!-- create_ref -->
<g id="node14" class="node">
<title>create_ref</title>
<path fill="lightskyblue" stroke="black" d="M863.12,-825.96C863.12,-825.96 672.38,-825.96 672.38,-825.96 666.38,-825.96 660.38,-819.96 660.38,-813.96 660.38,-813.96 660.38,-801.96 660.38,-801.96 660.38,-795.96 666.38,-789.96 672.38,-789.96 672.38,-789.96 863.12,-789.96 863.12,-789.96 869.12,-789.96 875.12,-795.96 875.12,-801.96 875.12,-801.96 875.12,-813.96 875.12,-813.96 875.12,-819.96 869.12,-825.96 863.12,-825.96"/>
<text xml:space="preserve" text-anchor="middle" x="767.75" y="-803.28" font-family="Helvetica,sans-Serif" font-size="14.00">Create Reference Workspace</text>
</g>
<!-- create_ref&#45;&gt;init_ref_ws -->
<g id="edge8" class="edge">
<title>create_ref&#45;&gt;init_ref_ws</title>
<path fill="none" stroke="black" d="M767.75,-789.75C767.75,-782.42 767.75,-773.52 767.75,-764.67"/>
<polygon fill="black" stroke="black" points="771.25,-764.71 767.75,-754.71 764.25,-764.71 771.25,-764.71"/>
</g>
<!-- load_shape -->
<g id="node15" class="node">
<title>load_shape</title>
<path fill="lightskyblue" stroke="black" d="M476,-474.35C476,-474.35 293.5,-474.35 293.5,-474.35 287.5,-474.35 281.5,-468.35 281.5,-462.35 281.5,-462.35 281.5,-450.35 281.5,-450.35 281.5,-444.35 287.5,-438.35 293.5,-438.35 293.5,-438.35 476,-438.35 476,-438.35 482,-438.35 488,-444.35 488,-450.35 488,-450.35 488,-462.35 488,-462.35 488,-468.35 482,-474.35 476,-474.35"/>
<text xml:space="preserve" text-anchor="middle" x="384.75" y="-451.68" font-family="Helvetica,sans-Serif" font-size="14.00">Load Shape onto Single WS</text>
</g>
<!-- load_shape&#45;&gt;ref_ws -->
<g id="edge13" class="edge">
<title>load_shape&#45;&gt;ref_ws</title>
<path fill="none" stroke="black" d="M420.04,-437.88C462.01,-417.1 532.5,-382.19 581.2,-358.07"/>
<polygon fill="black" stroke="black" points="582.48,-361.34 589.88,-353.77 579.37,-355.07 582.48,-361.34"/>
</g>
<!-- set_shape -->
<g id="node16" class="node">
<title>set_shape</title>
<path fill="lightskyblue" stroke="black" d="M689.75,-474.35C689.75,-474.35 517.75,-474.35 517.75,-474.35 511.75,-474.35 505.75,-468.35 505.75,-462.35 505.75,-462.35 505.75,-450.35 505.75,-450.35 505.75,-444.35 511.75,-438.35 517.75,-438.35 517.75,-438.35 689.75,-438.35 689.75,-438.35 695.75,-438.35 701.75,-444.35 701.75,-450.35 701.75,-450.35 701.75,-462.35 701.75,-462.35 701.75,-468.35 695.75,-474.35 689.75,-474.35"/>
<text xml:space="preserve" text-anchor="middle" x="603.75" y="-451.68" font-family="Helvetica,sans-Serif" font-size="14.00">Set Shape onto Single WS</text>
</g>
<!-- set_shape&#45;&gt;ref_ws -->
<g id="edge14" class="edge">
<title>set_shape&#45;&gt;ref_ws</title>
<path fill="none" stroke="black" d="M608.13,-437.88C612.41,-420.77 619.09,-394.1 624.68,-371.75"/>
<polygon fill="black" stroke="black" points="628.01,-372.88 627.04,-362.33 621.22,-371.18 628.01,-372.88"/>
</g>
<!-- set_material&#45;&gt;ref_ws -->
<g id="edge15" class="edge">
<title>set_material&#45;&gt;ref_ws</title>
<path fill="none" stroke="black" d="M952.65,-516.63C953.02,-490.78 949.76,-442 922.75,-413.85 867.9,-356.69 776.33,-338.42 711.18,-332.99"/>
<polygon fill="black" stroke="black" points="711.48,-329.5 701.25,-332.26 710.96,-336.48 711.48,-329.5"/>
</g>
<!-- set_ref_orient -->
<g id="node18" class="node">
<title>set_ref_orient</title>
<path fill="lightskyblue" stroke="black" d="M902,-474.35C902,-474.35 731.5,-474.35 731.5,-474.35 725.5,-474.35 719.5,-468.35 719.5,-462.35 719.5,-462.35 719.5,-450.35 719.5,-450.35 719.5,-444.35 725.5,-438.35 731.5,-438.35 731.5,-438.35 902,-438.35 902,-438.35 908,-438.35 914,-444.35 914,-450.35 914,-450.35 914,-462.35 914,-462.35 914,-468.35 908,-474.35 902,-474.35"/>
<text xml:space="preserve" text-anchor="middle" x="816.75" y="-451.68" font-family="Helvetica,sans-Serif" font-size="14.00">Set Reference Orientation</text>
</g>
<!-- set_ref_orient&#45;&gt;ref_ws -->
<g id="edge17" class="edge">
<title>set_ref_orient&#45;&gt;ref_ws</title>
<path fill="none" stroke="black" d="M791.06,-437.88C762.19,-418.24 714.77,-385.99 679.72,-362.15"/>
<polygon fill="black" stroke="black" points="682.14,-359.55 671.9,-356.82 678.2,-365.34 682.14,-359.55"/>
</g>
<!-- copy_ref&#45;&gt;workspaces -->
<g id="edge20" class="edge">
<title>copy_ref&#45;&gt;workspaces</title>
<path fill="none" stroke="black" d="M457.97,-227.04C457.18,-209.49 455.96,-182.14 455.03,-161.41"/>
<polygon fill="black" stroke="black" points="458.54,-161.43 454.59,-151.6 451.54,-161.75 458.54,-161.43"/>
</g>
<!-- orient_type&#45;&gt;euler_axes -->
<g id="edge2" class="edge">
<title>orient_type&#45;&gt;euler_axes</title>
<path fill="none" stroke="black" d="M123.09,-415.84C120.36,-401.77 117.29,-385.92 114.55,-371.78"/>
<polygon fill="black" stroke="black" points="118.06,-371.53 112.73,-362.37 111.19,-372.86 118.06,-371.53"/>
<text xml:space="preserve" text-anchor="middle" x="162.62" y="-382.55" font-family="Helvetica,sans-Serif" font-size="14.00">Euler Angles</text>
</g>
<!-- orient_type&#45;&gt;load_orient -->
<g id="edge4" class="edge">
<title>orient_type&#45;&gt;load_orient</title>
<path fill="none" stroke="black" d="M177.47,-428.73C189.84,-419.71 202.14,-408.63 210.75,-395.85 214.18,-390.78 232.61,-316.73 242.86,-274.85"/>
<polygon fill="black" stroke="black" points="246.24,-275.75 245.22,-265.2 239.44,-274.09 246.24,-275.75"/>
<text xml:space="preserve" text-anchor="middle" x="296.25" y="-325.88" font-family="Helvetica,sans-Serif" font-size="14.00">Rotation Matrices</text>
</g>
<!-- ac_q -->
<g id="node22" class="node">
<title>ac_q</title>
<polygon fill="limegreen" stroke="black" points="767.75,-964.21 673.75,-921.71 767.75,-879.21 861.75,-921.71 767.75,-964.21"/>
<text xml:space="preserve" text-anchor="middle" x="767.75" y="-925.66" font-family="Helvetica,sans-Serif" font-size="14.00">Absorption</text>
<text xml:space="preserve" text-anchor="middle" x="767.75" y="-908.41" font-family="Helvetica,sans-Serif" font-size="14.00">Correction?</text>
</g>
<!-- ac_q&#45;&gt;create_ref -->
<g id="edge7" class="edge">
<title>ac_q&#45;&gt;create_ref</title>
<path fill="none" stroke="black" d="M767.75,-878.78C767.75,-864.98 767.75,-849.97 767.75,-837.41"/>
<polygon fill="black" stroke="black" points="771.25,-837.76 767.75,-827.76 764.25,-837.76 771.25,-837.76"/>
<text xml:space="preserve" text-anchor="middle" x="779" y="-847.91" font-family="Helvetica,sans-Serif" font-size="14.00">Yes</text>
</g>
<!-- shape_q&#45;&gt;load_shape -->
<g id="edge11" class="edge">
<title>shape_q&#45;&gt;load_shape</title>
<path fill="none" stroke="black" d="M562.66,-598.05C529.09,-571.5 456.82,-514.35 415.46,-481.64"/>
<polygon fill="black" stroke="black" points="417.84,-479.06 407.83,-475.6 413.5,-484.55 417.84,-479.06"/>
<text xml:space="preserve" text-anchor="middle" x="512.68" y="-530.18" font-family="Helvetica,sans-Serif" font-size="14.00">STL</text>
</g>
<!-- shape_q&#45;&gt;set_shape -->
<g id="edge12" class="edge">
<title>shape_q&#45;&gt;set_shape</title>
<path fill="none" stroke="black" d="M583.26,-595.47C587.16,-569.17 594.73,-518.11 599.5,-485.99"/>
<polygon fill="black" stroke="black" points="602.95,-486.59 600.96,-476.19 596.03,-485.56 602.95,-486.59"/>
<text xml:space="preserve" text-anchor="middle" x="608.94" y="-530.18" font-family="Helvetica,sans-Serif" font-size="14.00">XML</text>
</g>
<!-- need_reorient_q -->
<g id="node24" class="node">
<title>need_reorient_q</title>
<polygon fill="limegreen" stroke="black" points="814.75,-655.85 702,-613.35 814.75,-570.85 927.5,-613.35 814.75,-655.85"/>
<text xml:space="preserve" text-anchor="middle" x="814.75" y="-617.3" font-family="Helvetica,sans-Serif" font-size="14.00">Shape needs</text>
<text xml:space="preserve" text-anchor="middle" x="814.75" y="-600.05" font-family="Helvetica,sans-Serif" font-size="14.00">reorientating?</text>
</g>
<!-- need_reorient_q&#45;&gt;set_ref_orient -->
<g id="edge16" class="edge">
<title>need_reorient_q&#45;&gt;set_ref_orient</title>
<path fill="none" stroke="black" d="M815.29,-570.82C815.63,-544.09 816.07,-510.03 816.38,-486.23"/>
<polygon fill="black" stroke="black" points="819.88,-486.37 816.51,-476.33 812.88,-486.28 819.88,-486.37"/>
<text xml:space="preserve" text-anchor="middle" x="827.18" y="-530.18" font-family="Helvetica,sans-Serif" font-size="14.00">Yes</text>
</g>
<!-- gauge_q -->
<g id="node25" class="node">
<title>gauge_q</title>
<polygon fill="limegreen" stroke="black" points="814.75,-263.5 691.74,-245.5 814.75,-227.5 937.76,-245.5 814.75,-263.5"/>
<text xml:space="preserve" text-anchor="middle" x="814.75" y="-240.82" font-family="Helvetica,sans-Serif" font-size="14.00">Gauge Volume?</text>
</g>
<!-- gauge_q&#45;&gt;gauge_custom -->
<g id="edge21" class="edge">
<title>gauge_q&#45;&gt;gauge_custom</title>
<path fill="none" stroke="black" d="M786.37,-231.19C773.44,-224.92 758.02,-217.14 744.5,-209.5 714.47,-192.53 681.49,-171.39 657.59,-155.59"/>
<polygon fill="black" stroke="black" points="659.79,-152.85 649.53,-150.23 655.92,-158.68 659.79,-152.85"/>
<text xml:space="preserve" text-anchor="middle" x="771.12" y="-196.2" font-family="Helvetica,sans-Serif" font-size="14.00">Custom</text>
</g>
<!-- gauge_q&#45;&gt;gauge_none -->
<g id="edge23" class="edge">
<title>gauge_q&#45;&gt;gauge_none</title>
<path fill="none" stroke="black" d="M845.06,-231.51C857.53,-225.57 871.81,-217.97 883.75,-209.5 904.81,-194.56 925.77,-174.2 940.95,-158.2"/>
<polygon fill="black" stroke="black" points="943.46,-160.64 947.72,-150.94 938.34,-155.87 943.46,-160.64"/>
<text xml:space="preserve" text-anchor="middle" x="923.18" y="-196.2" font-family="Helvetica,sans-Serif" font-size="14.00">None</text>
</g>
<!-- gauge_q&#45;&gt;gauge_cube -->
<g id="edge22" class="edge">
<title>gauge_q&#45;&gt;gauge_cube</title>
<path fill="none" stroke="black" d="M810.47,-228.01C805.9,-210.39 798.57,-182.13 793.07,-160.96"/>
<polygon fill="black" stroke="black" points="796.52,-160.31 790.62,-151.51 789.74,-162.07 796.52,-160.31"/>
<text xml:space="preserve" text-anchor="middle" x="842.49" y="-196.2" font-family="Helvetica,sans-Serif" font-size="14.00">4mm cube</text>
</g>
<!-- atten_q&#45;&gt;apply_corr -->
<g id="edge31" class="edge">
<title>atten_q&#45;&gt;apply_corr</title>
<path fill="none" stroke="black" d="M1153.31,-109.99C1083.16,-89.89 977.42,-59.59 907.5,-39.56"/>
<polygon fill="black" stroke="black" points="908.63,-36.24 898.05,-36.85 906.7,-42.97 908.63,-36.24"/>
<text xml:space="preserve" text-anchor="middle" x="1018.65" y="-57.95" font-family="Helvetica,sans-Serif" font-size="14.00">Yes</text>
</g>
<!-- div_q&#45;&gt;apply_corr -->
<g id="edge32" class="edge">
<title>div_q&#45;&gt;apply_corr</title>
<path fill="none" stroke="black" d="M1466.05,-109.56C1439.39,-102.35 1408.87,-94.73 1380.75,-89.25 1217.22,-57.37 1023.18,-36.3 916.36,-26.12"/>
<polygon fill="black" stroke="black" points="916.82,-22.65 906.54,-25.19 916.17,-29.62 916.82,-22.65"/>
<text xml:space="preserve" text-anchor="middle" x="1288.48" y="-57.95" font-family="Helvetica,sans-Serif" font-size="14.00">Yes</text>
</g>
</g>
</svg>
