<?xml version="1.0" encoding="UTF-8" standalone="no"?>
<!DOCTYPE svg PUBLIC "-//W3C//DTD SVG 1.1//EN"
 "http://www.w3.org/Graphics/SVG/1.1/DTD/svg11.dtd">
<!-- Generated by graphviz version 11.0.0 (20240519.1550)
 -->
<!-- Title: TimeSlice Pages: 1 -->
<svg width="686pt" height="843pt"
 viewBox="0.00 0.00 686.01 843.00" xmlns="http://www.w3.org/2000/svg" xmlns:xlink="http://www.w3.org/1999/xlink">
<g id="graph0" class="graph" transform="scale(1 1) rotate(0) translate(4 839)">
<title>TimeSlice</title>
<polygon fill="white" stroke="none" points="-4,4 -4,-839 682.01,-839 682.01,4 -4,4"/>
<text text-anchor="middle" x="339.01" y="-817.7" font-family="Helvetica,sans-Serif" font-size="14.00">TimeSlice Flowchart</text>
<!-- HaveCalibration -->
<g id="node1" class="node">
<title>HaveCalibration</title>
<polygon fill="limegreen" stroke="black" points="213.04,-576.5 0,-558.5 213.04,-540.5 426.08,-558.5 213.04,-576.5"/>
<text text-anchor="middle" x="213.04" y="-553.83" font-family="Helvetica,sans-Serif" font-size="14.00">Have calibration workspace?</text>
</g>
<!-- HaveBackgroundRange -->
<g id="node2" class="node">
<title>HaveBackgroundRange</title>
<polygon fill="limegreen" stroke="black" points="229.04,-414.25 39.81,-396.25 229.04,-378.25 418.27,-396.25 229.04,-414.25"/>
<text text-anchor="middle" x="229.04" y="-391.57" font-family="Helvetica,sans-Serif" font-size="14.00">Have background range?</text>
</g>
<!-- HaveCalibration&#45;&gt;HaveBackgroundRange -->
<g id="edge5" class="edge">
<title>HaveCalibration&#45;&gt;HaveBackgroundRange</title>
<path fill="none" stroke="black" d="M214.35,-540.18C215.98,-519.13 218.97,-482.55 222.29,-451.25 223.17,-442.92 224.26,-433.88 225.29,-425.62"/>
<polygon fill="black" stroke="black" points="228.76,-426.12 226.56,-415.76 221.81,-425.23 228.76,-426.12"/>
<text text-anchor="middle" x="231.42" y="-464.57" font-family="Helvetica,sans-Serif" font-size="14.00">No</text>
</g>
<!-- Divide -->
<g id="node11" class="node">
<title>Divide</title>
<path fill="lightskyblue" stroke="black" d="M297.79,-487.25C297.79,-487.25 262.29,-487.25 262.29,-487.25 256.29,-487.25 250.29,-481.25 250.29,-475.25 250.29,-475.25 250.29,-463.25 250.29,-463.25 250.29,-457.25 256.29,-451.25 262.29,-451.25 262.29,-451.25 297.79,-451.25 297.79,-451.25 303.79,-451.25 309.79,-457.25 309.79,-463.25 309.79,-463.25 309.79,-475.25 309.79,-475.25 309.79,-481.25 303.79,-487.25 297.79,-487.25"/>
<text text-anchor="middle" x="280.04" y="-464.57" font-family="Helvetica,sans-Serif" font-size="14.00">Divide</text>
</g>
<!-- HaveCalibration&#45;&gt;Divide -->
<g id="edge6" class="edge">
<title>HaveCalibration&#45;&gt;Divide</title>
<path fill="none" stroke="black" d="M225.64,-541.09C235.28,-528.54 248.77,-510.98 259.9,-496.48"/>
<polygon fill="black" stroke="black" points="262.57,-498.75 265.89,-488.68 257.02,-494.48 262.57,-498.75"/>
<text text-anchor="middle" x="263.29" y="-509.2" font-family="Helvetica,sans-Serif" font-size="14.00">Yes</text>
</g>
<!-- Integration -->
<g id="node12" class="node">
<title>Integration</title>
<path fill="lightskyblue" stroke="black" d="M365.29,-252C365.29,-252 296.79,-252 296.79,-252 290.79,-252 284.79,-246 284.79,-240 284.79,-240 284.79,-228 284.79,-228 284.79,-222 290.79,-216 296.79,-216 296.79,-216 365.29,-216 365.29,-216 371.29,-216 377.29,-222 377.29,-228 377.29,-228 377.29,-240 377.29,-240 377.29,-246 371.29,-252 365.29,-252"/>
<text text-anchor="middle" x="331.04" y="-229.32" font-family="Helvetica,sans-Serif" font-size="14.00">Integration</text>
</g>
<!-- HaveBackgroundRange&#45;&gt;Integration -->
<g id="edge9" class="edge">
<title>HaveBackgroundRange&#45;&gt;Integration</title>
<path fill="none" stroke="black" d="M226.02,-378.29C222.99,-355.97 220.94,-316.36 238.29,-289 247.05,-275.19 260.7,-264.51 274.86,-256.42"/>
<polygon fill="black" stroke="black" points="276.14,-259.7 283.35,-251.94 272.88,-253.51 276.14,-259.7"/>
<text text-anchor="middle" x="247.42" y="-302.32" font-family="Helvetica,sans-Serif" font-size="14.00">No</text>
</g>
<!-- CalculateFlatBackground -->
<g id="node13" class="node">
<title>CalculateFlatBackground</title>
<path fill="lightskyblue" stroke="black" d="M591.29,-325C591.29,-325 426.79,-325 426.79,-325 420.79,-325 414.79,-319 414.79,-313 414.79,-313 414.79,-301 414.79,-301 414.79,-295 420.79,-289 426.79,-289 426.79,-289 591.29,-289 591.29,-289 597.29,-289 603.29,-295 603.29,-301 603.29,-301 603.29,-313 603.29,-313 603.29,-319 597.29,-325 591.29,-325"/>
<text text-anchor="middle" x="509.04" y="-302.32" font-family="Helvetica,sans-Serif" font-size="14.00">CalculateFlatBackground</text>
</g>
<!-- HaveBackgroundRange&#45;&gt;CalculateFlatBackground -->
<g id="edge11" class="edge">
<title>HaveBackgroundRange&#45;&gt;CalculateFlatBackground</title>
<path fill="none" stroke="black" d="M271.87,-381.9C317.14,-367.8 389.15,-345.36 441.96,-328.9"/>
<polygon fill="black" stroke="black" points="442.97,-332.25 451.47,-325.94 440.89,-325.57 442.97,-332.25"/>
<text text-anchor="middle" x="405.29" y="-346.95" font-family="Helvetica,sans-Serif" font-size="14.00">Yes</text>
</g>
<!-- InputFiles -->
<g id="node3" class="node">
<title>InputFiles</title>
<ellipse fill="khaki" stroke="black" cx="327.04" cy="-791.75" rx="58.05" ry="18"/>
<text text-anchor="middle" x="327.04" y="-787.08" font-family="Helvetica,sans-Serif" font-size="14.00">InputFiles</text>
</g>
<!-- Load -->
<g id="node9" class="node">
<title>Load</title>
<path fill="lightskyblue" stroke="black" d="M342.04,-720.5C342.04,-720.5 312.04,-720.5 312.04,-720.5 306.04,-720.5 300.04,-714.5 300.04,-708.5 300.04,-708.5 300.04,-696.5 300.04,-696.5 300.04,-690.5 306.04,-684.5 312.04,-684.5 312.04,-684.5 342.04,-684.5 342.04,-684.5 348.04,-684.5 354.04,-690.5 354.04,-696.5 354.04,-696.5 354.04,-708.5 354.04,-708.5 354.04,-714.5 348.04,-720.5 342.04,-720.5"/>
<text text-anchor="middle" x="327.04" y="-697.83" font-family="Helvetica,sans-Serif" font-size="14.00">Load</text>
</g>
<!-- InputFiles&#45;&gt;Load -->
<g id="edge1" class="edge">
<title>InputFiles&#45;&gt;Load</title>
<path fill="none" stroke="black" d="M327.04,-773.51C327.04,-761.68 327.04,-745.7 327.04,-732"/>
<polygon fill="black" stroke="black" points="330.54,-732.22 327.04,-722.22 323.54,-732.22 330.54,-732.22"/>
<text text-anchor="middle" x="380.29" y="-742.45" font-family="Helvetica,sans-Serif" font-size="14.00">loop for all files</text>
</g>
<!-- CalibrationWorkspace -->
<g id="node4" class="node">
<title>CalibrationWorkspace</title>
<ellipse fill="khaki" stroke="black" cx="561.04" cy="-558.5" rx="116.97" ry="18"/>
<text text-anchor="middle" x="561.04" y="-553.83" font-family="Helvetica,sans-Serif" font-size="14.00">CalibrationWorkspace</text>
</g>
<!-- CalibrationWorkspace&#45;&gt;Divide -->
<g id="edge7" class="edge">
<title>CalibrationWorkspace&#45;&gt;Divide</title>
<path fill="none" stroke="black" d="M510.8,-541.9C456.5,-525.04 371,-498.49 320.74,-482.89"/>
<polygon fill="black" stroke="black" points="322,-479.61 311.41,-479.99 319.93,-486.3 322,-479.61"/>
</g>
<!-- SpectraRange -->
<g id="node5" class="node">
<title>SpectraRange</title>
<ellipse fill="khaki" stroke="black" cx="202.04" cy="-702.5" rx="79.62" ry="18"/>
<text text-anchor="middle" x="202.04" y="-697.83" font-family="Helvetica,sans-Serif" font-size="14.00">SpectraRange</text>
</g>
<!-- CropWorkspace -->
<g id="node10" class="node">
<title>CropWorkspace</title>
<path fill="lightskyblue" stroke="black" d="M263.04,-648.5C263.04,-648.5 163.04,-648.5 163.04,-648.5 157.04,-648.5 151.04,-642.5 151.04,-636.5 151.04,-636.5 151.04,-624.5 151.04,-624.5 151.04,-618.5 157.04,-612.5 163.04,-612.5 163.04,-612.5 263.04,-612.5 263.04,-612.5 269.04,-612.5 275.04,-618.5 275.04,-624.5 275.04,-624.5 275.04,-636.5 275.04,-636.5 275.04,-642.5 269.04,-648.5 263.04,-648.5"/>
<text text-anchor="middle" x="213.04" y="-625.83" font-family="Helvetica,sans-Serif" font-size="14.00">CropWorkspace</text>
</g>
<!-- SpectraRange&#45;&gt;CropWorkspace -->
<g id="edge3" class="edge">
<title>SpectraRange&#45;&gt;CropWorkspace</title>
<path fill="none" stroke="black" d="M204.76,-684.2C205.92,-676.82 207.3,-668.02 208.6,-659.75"/>
<polygon fill="black" stroke="black" points="212.02,-660.52 210.12,-650.1 205.11,-659.43 212.02,-660.52"/>
</g>
<!-- PeakRange -->
<g id="node6" class="node">
<title>PeakRange</title>
<ellipse fill="khaki" stroke="black" cx="331.04" cy="-307" rx="65.41" ry="18"/>
<text text-anchor="middle" x="331.04" y="-302.32" font-family="Helvetica,sans-Serif" font-size="14.00">PeakRange</text>
</g>
<!-- PeakRange&#45;&gt;Integration -->
<g id="edge10" class="edge">
<title>PeakRange&#45;&gt;Integration</title>
<path fill="none" stroke="black" d="M331.04,-288.81C331.04,-281.23 331.04,-272.1 331.04,-263.54"/>
<polygon fill="black" stroke="black" points="334.54,-263.54 331.04,-253.54 327.54,-263.54 334.54,-263.54"/>
</g>
<!-- BackgroundRange -->
<g id="node7" class="node">
<title>BackgroundRange</title>
<ellipse fill="khaki" stroke="black" cx="537.04" cy="-396.25" rx="100.66" ry="18"/>
<text text-anchor="middle" x="537.04" y="-391.57" font-family="Helvetica,sans-Serif" font-size="14.00">BackgroundRange</text>
</g>
<!-- BackgroundRange&#45;&gt;CalculateFlatBackground -->
<g id="edge12" class="edge">
<title>BackgroundRange&#45;&gt;CalculateFlatBackground</title>
<path fill="none" stroke="black" d="M531.51,-378.01C527.67,-366.06 522.48,-349.88 518.05,-336.08"/>
<polygon fill="black" stroke="black" points="521.41,-335.1 515.02,-326.64 514.75,-337.23 521.41,-335.1"/>
</g>
<!-- OutputWorkspace -->
<g id="node8" class="node">
<title>OutputWorkspace</title>
<ellipse fill="khaki" stroke="black" cx="331.04" cy="-18" rx="98.56" ry="18"/>
<text text-anchor="middle" x="331.04" y="-13.32" font-family="Helvetica,sans-Serif" font-size="14.00">OutputWorkspace</text>
</g>
<!-- Load&#45;&gt;CropWorkspace -->
<g id="edge2" class="edge">
<title>Load&#45;&gt;CropWorkspace</title>
<path fill="none" stroke="black" d="M299.74,-684.73C285.12,-675.76 266.88,-664.56 250.91,-654.75"/>
<polygon fill="black" stroke="black" points="252.96,-651.9 242.6,-649.65 249.29,-657.87 252.96,-651.9"/>
</g>
<!-- CropWorkspace&#45;&gt;HaveCalibration -->
<g id="edge4" class="edge">
<title>CropWorkspace&#45;&gt;HaveCalibration</title>
<path fill="none" stroke="black" d="M213.04,-612.2C213.04,-604.91 213.04,-596.23 213.04,-588.04"/>
<polygon fill="black" stroke="black" points="216.54,-588.12 213.04,-578.12 209.54,-588.12 216.54,-588.12"/>
</g>
<!-- Divide&#45;&gt;HaveBackgroundRange -->
<g id="edge8" class="edge">
<title>Divide&#45;&gt;HaveBackgroundRange</title>
<path fill="none" stroke="black" d="M267.7,-451.06C261.57,-442.53 254.05,-432.06 247.27,-422.63"/>
<polygon fill="black" stroke="black" points="250.13,-420.61 241.46,-414.53 244.45,-424.7 250.13,-420.61"/>
</g>
<!-- Transpose -->
<g id="node14" class="node">
<title>Transpose</title>
<path fill="lightskyblue" stroke="black" d="M362.29,-180C362.29,-180 299.79,-180 299.79,-180 293.79,-180 287.79,-174 287.79,-168 287.79,-168 287.79,-156 287.79,-156 287.79,-150 293.79,-144 299.79,-144 299.79,-144 362.29,-144 362.29,-144 368.29,-144 374.29,-150 374.29,-156 374.29,-156 374.29,-168 374.29,-168 374.29,-174 368.29,-180 362.29,-180"/>
<text text-anchor="middle" x="331.04" y="-157.32" font-family="Helvetica,sans-Serif" font-size="14.00">Transpose</text>
</g>
<!-- Integration&#45;&gt;Transpose -->
<g id="edge14" class="edge">
<title>Integration&#45;&gt;Transpose</title>
<path fill="none" stroke="black" d="M331.04,-215.7C331.04,-208.41 331.04,-199.73 331.04,-191.54"/>
<polygon fill="black" stroke="black" points="334.54,-191.62 331.04,-181.62 327.54,-191.62 334.54,-191.62"/>
</g>
<!-- CalculateFlatBackground&#45;&gt;Integration -->
<g id="edge13" class="edge">
<title>CalculateFlatBackground&#45;&gt;Integration</title>
<path fill="none" stroke="black" d="M465.5,-288.63C441.25,-278.96 410.86,-266.84 385.11,-256.56"/>
<polygon fill="black" stroke="black" points="386.74,-253.45 376.16,-253 384.15,-259.95 386.74,-253.45"/>
</g>
<!-- GroupWorkspaces -->
<g id="node15" class="node">
<title>GroupWorkspaces</title>
<path fill="lightskyblue" stroke="black" d="M389.67,-108C389.67,-108 272.42,-108 272.42,-108 266.42,-108 260.42,-102 260.42,-96 260.42,-96 260.42,-84 260.42,-84 260.42,-78 266.42,-72 272.42,-72 272.42,-72 389.67,-72 389.67,-72 395.67,-72 401.67,-78 401.67,-84 401.67,-84 401.67,-96 401.67,-96 401.67,-102 395.67,-108 389.67,-108"/>
<text text-anchor="middle" x="331.04" y="-85.33" font-family="Helvetica,sans-Serif" font-size="14.00">GroupWorkspaces</text>
</g>
<!-- Transpose&#45;&gt;GroupWorkspaces -->
<g id="edge15" class="edge">
<title>Transpose&#45;&gt;GroupWorkspaces</title>
<path fill="none" stroke="black" d="M331.04,-143.7C331.04,-136.41 331.04,-127.73 331.04,-119.54"/>
<polygon fill="black" stroke="black" points="334.54,-119.62 331.04,-109.62 327.54,-119.62 334.54,-119.62"/>
</g>
<!-- GroupWorkspaces&#45;&gt;OutputWorkspace -->
<g id="edge16" class="edge">
<title>GroupWorkspaces&#45;&gt;OutputWorkspace</title>
<path fill="none" stroke="black" d="M331.04,-71.7C331.04,-64.41 331.04,-55.73 331.04,-47.54"/>
<polygon fill="black" stroke="black" points="334.54,-47.62 331.04,-37.62 327.54,-47.62 334.54,-47.62"/>
</g>
</g>
</svg>
