<?xml version="1.0" encoding="UTF-8" standalone="no"?>
<!DOCTYPE svg PUBLIC "-//W3C//DTD SVG 1.1//EN"
 "http://www.w3.org/Graphics/SVG/1.1/DTD/svg11.dtd">
<!-- Generated by graphviz version 13.1.2 (20250809.0930)
 -->
<!-- Title: TOSCABankCorrection Pages: 1 -->
<svg width="1007pt" height="1108pt"
 viewBox="0.00 0.00 1007.00 1108.00" xmlns="http://www.w3.org/2000/svg" xmlns:xlink="http://www.w3.org/1999/xlink">
<g id="graph0" class="graph" transform="scale(1 1) rotate(0) translate(4 1103.75)">
<title>TOSCABankCorrection</title>
<polygon fill="white" stroke="none" points="-4,4 -4,-1103.75 1003.06,-1103.75 1003.06,4 -4,4"/>
<text xml:space="preserve" text-anchor="middle" x="499.53" y="-1082.45" font-family="Helvetica,sans-Serif" font-size="14.00">TOSCABankCorrection Flowchart</text>
<!-- InputWorkspace -->
<g id="node1" class="node">
<title>InputWorkspace</title>
<ellipse fill="khaki" stroke="black" cx="90.14" cy="-1056.5" rx="90.14" ry="18"/>
<text xml:space="preserve" text-anchor="middle" x="90.14" y="-1051.83" font-family="Helvetica,sans-Serif" font-size="14.00">InputWorkspace</text>
</g>
<!-- CropWorkspace -->
<g id="node12" class="node">
<title>CropWorkspace</title>
<path fill="lightskyblue" stroke="black" d="M471.14,-985.25C471.14,-985.25 371.14,-985.25 371.14,-985.25 365.14,-985.25 359.14,-979.25 359.14,-973.25 359.14,-973.25 359.14,-961.25 359.14,-961.25 359.14,-955.25 365.14,-949.25 371.14,-949.25 371.14,-949.25 471.14,-949.25 471.14,-949.25 477.14,-949.25 483.14,-955.25 483.14,-961.25 483.14,-961.25 483.14,-973.25 483.14,-973.25 483.14,-979.25 477.14,-985.25 471.14,-985.25"/>
<text xml:space="preserve" text-anchor="middle" x="421.14" y="-962.58" font-family="Helvetica,sans-Serif" font-size="14.00">CropWorkspace</text>
</g>
<!-- InputWorkspace&#45;&gt;CropWorkspace -->
<g id="edge1" class="edge">
<title>InputWorkspace&#45;&gt;CropWorkspace</title>
<path fill="none" stroke="black" d="M142.95,-1041.58C198.4,-1026.96 285.97,-1003.88 348.03,-987.52"/>
<polygon fill="black" stroke="black" points="348.68,-990.97 357.46,-985.04 346.9,-984.2 348.68,-990.97"/>
</g>
<!-- RebinToWorkspace -->
<g id="node16" class="node">
<title>RebinToWorkspace</title>
<path fill="lightskyblue" stroke="black" d="M179.64,-303.75C179.64,-303.75 58.64,-303.75 58.64,-303.75 52.64,-303.75 46.64,-297.75 46.64,-291.75 46.64,-291.75 46.64,-279.75 46.64,-279.75 46.64,-273.75 52.64,-267.75 58.64,-267.75 58.64,-267.75 179.64,-267.75 179.64,-267.75 185.64,-267.75 191.64,-273.75 191.64,-279.75 191.64,-279.75 191.64,-291.75 191.64,-291.75 191.64,-297.75 185.64,-303.75 179.64,-303.75"/>
<text xml:space="preserve" text-anchor="middle" x="119.14" y="-281.07" font-family="Helvetica,sans-Serif" font-size="14.00">RebinToWorkspace</text>
</g>
<!-- InputWorkspace&#45;&gt;RebinToWorkspace -->
<g id="edge19" class="edge">
<title>InputWorkspace&#45;&gt;RebinToWorkspace</title>
<path fill="none" stroke="black" d="M94.25,-1038.23C98.06,-1020.71 103.14,-992.75 103.14,-968.25 103.14,-968.25 103.14,-968.25 103.14,-374 103.14,-353.98 107.27,-331.79 111.33,-314.8"/>
<polygon fill="black" stroke="black" points="114.64,-315.98 113.71,-305.43 107.85,-314.26 114.64,-315.98"/>
</g>
<!-- SearchRange -->
<g id="node2" class="node">
<title>SearchRange</title>
<ellipse fill="khaki" stroke="black" cx="421.14" cy="-1056.5" rx="75.41" ry="18"/>
<text xml:space="preserve" text-anchor="middle" x="421.14" y="-1051.83" font-family="Helvetica,sans-Serif" font-size="14.00">SearchRange</text>
</g>
<!-- SearchRange&#45;&gt;CropWorkspace -->
<g id="edge2" class="edge">
<title>SearchRange&#45;&gt;CropWorkspace</title>
<path fill="none" stroke="black" d="M421.14,-1038.26C421.14,-1026.43 421.14,-1010.45 421.14,-996.75"/>
<polygon fill="black" stroke="black" points="424.64,-996.97 421.14,-986.97 417.64,-996.97 424.64,-996.97"/>
<text xml:space="preserve" text-anchor="middle" x="503.64" y="-1007.2" font-family="Helvetica,sans-Serif" font-size="14.00">Defines XMin and XMax</text>
</g>
<!-- CroppedWorkspace -->
<g id="node3" class="node">
<title>CroppedWorkspace</title>
<ellipse fill="khaki" stroke="black" cx="568.14" cy="-878" rx="105.4" ry="18"/>
<text xml:space="preserve" text-anchor="middle" x="568.14" y="-873.33" font-family="Helvetica,sans-Serif" font-size="14.00">CroppedWorkspace</text>
</g>
<!-- FindPeak -->
<g id="node13" class="node">
<title>FindPeak</title>
<path fill="lightskyblue" stroke="black" d="M395.89,-806.75C395.89,-806.75 342.39,-806.75 342.39,-806.75 336.39,-806.75 330.39,-800.75 330.39,-794.75 330.39,-794.75 330.39,-782.75 330.39,-782.75 330.39,-776.75 336.39,-770.75 342.39,-770.75 342.39,-770.75 395.89,-770.75 395.89,-770.75 401.89,-770.75 407.89,-776.75 407.89,-782.75 407.89,-782.75 407.89,-794.75 407.89,-794.75 407.89,-800.75 401.89,-806.75 395.89,-806.75"/>
<text xml:space="preserve" text-anchor="middle" x="369.14" y="-784.08" font-family="Helvetica,sans-Serif" font-size="14.00">FindPeak</text>
</g>
<!-- CroppedWorkspace&#45;&gt;FindPeak -->
<g id="edge4" class="edge">
<title>CroppedWorkspace&#45;&gt;FindPeak</title>
<path fill="none" stroke="black" d="M531.18,-860.79C499.5,-846.9 453.59,-826.78 418.73,-811.49"/>
<polygon fill="black" stroke="black" points="420.24,-808.33 409.67,-807.52 417.43,-814.74 420.24,-808.33"/>
<text xml:space="preserve" text-anchor="middle" x="577.21" y="-828.7" font-family="Helvetica,sans-Serif" font-size="14.00">Find peak in Bank 1 and 2</text>
</g>
<!-- PeakPosition -->
<g id="node4" class="node">
<title>PeakPosition</title>
<ellipse fill="khaki" stroke="black" cx="203.14" cy="-878" rx="72.25" ry="18"/>
<text xml:space="preserve" text-anchor="middle" x="203.14" y="-873.33" font-family="Helvetica,sans-Serif" font-size="14.00">PeakPosition</text>
</g>
<!-- PeakPosition&#45;&gt;FindPeak -->
<g id="edge6" class="edge">
<title>PeakPosition&#45;&gt;FindPeak</title>
<path fill="none" stroke="black" d="M233.2,-861.2C259.11,-847.58 296.83,-827.76 325.97,-812.44"/>
<polygon fill="black" stroke="black" points="327.32,-815.69 334.54,-807.93 324.06,-809.49 327.32,-815.69"/>
</g>
<!-- ClosePeakTolerance -->
<g id="node5" class="node">
<title>ClosePeakTolerance</title>
<ellipse fill="khaki" stroke="black" cx="533.14" cy="-626.5" rx="106.45" ry="18"/>
<text xml:space="preserve" text-anchor="middle" x="533.14" y="-621.83" font-family="Helvetica,sans-Serif" font-size="14.00">ClosePeakTolerance</text>
</g>
<!-- Bank1_ScaleFactor -->
<g id="node9" class="node">
<title>Bank1_ScaleFactor</title>
<ellipse fill="khaki" stroke="black" cx="443.14" cy="-537.25" rx="102.24" ry="18"/>
<text xml:space="preserve" text-anchor="middle" x="443.14" y="-532.58" font-family="Helvetica,sans-Serif" font-size="14.00">Bank1_ScaleFactor</text>
</g>
<!-- ClosePeakTolerance&#45;&gt;Bank1_ScaleFactor -->
<g id="edge10" class="edge">
<title>ClosePeakTolerance&#45;&gt;Bank1_ScaleFactor</title>
<path fill="none" stroke="black" d="M515.36,-608.26C502.05,-595.36 483.64,-577.51 468.75,-563.07"/>
<polygon fill="black" stroke="black" points="471.59,-560.95 461.97,-556.51 466.71,-565.98 471.59,-560.95"/>
</g>
<!-- PeakFunction -->
<g id="node6" class="node">
<title>PeakFunction</title>
<ellipse fill="khaki" stroke="black" cx="369.14" cy="-878" rx="75.94" ry="18"/>
<text xml:space="preserve" text-anchor="middle" x="369.14" y="-873.33" font-family="Helvetica,sans-Serif" font-size="14.00">PeakFunction</text>
</g>
<!-- PeakFunction&#45;&gt;FindPeak -->
<g id="edge5" class="edge">
<title>PeakFunction&#45;&gt;FindPeak</title>
<path fill="none" stroke="black" d="M369.14,-859.76C369.14,-847.93 369.14,-831.95 369.14,-818.25"/>
<polygon fill="black" stroke="black" points="372.64,-818.47 369.14,-808.47 365.64,-818.47 372.64,-818.47"/>
</g>
<!-- OutputWorkspace -->
<g id="node7" class="node">
<title>OutputWorkspace</title>
<ellipse fill="khaki" stroke="black" cx="119.14" cy="-18" rx="98.56" ry="18"/>
<text xml:space="preserve" text-anchor="middle" x="119.14" y="-13.32" font-family="Helvetica,sans-Serif" font-size="14.00">OutputWorkspace</text>
</g>
<!-- TargetPeakCentre -->
<g id="node8" class="node">
<title>TargetPeakCentre</title>
<ellipse fill="khaki" stroke="black" cx="227.14" cy="-537.25" rx="95.93" ry="18"/>
<text xml:space="preserve" text-anchor="middle" x="227.14" y="-532.58" font-family="Helvetica,sans-Serif" font-size="14.00">TargetPeakCentre</text>
</g>
<!-- ScaleX -->
<g id="node15" class="node">
<title>ScaleX</title>
<path fill="lightskyblue" stroke="black" d="M599.39,-466C599.39,-466 560.89,-466 560.89,-466 554.89,-466 548.89,-460 548.89,-454 548.89,-454 548.89,-442 548.89,-442 548.89,-436 554.89,-430 560.89,-430 560.89,-430 599.39,-430 599.39,-430 605.39,-430 611.39,-436 611.39,-442 611.39,-442 611.39,-454 611.39,-454 611.39,-460 605.39,-466 599.39,-466"/>
<text xml:space="preserve" text-anchor="middle" x="580.14" y="-443.32" font-family="Helvetica,sans-Serif" font-size="14.00">ScaleX</text>
</g>
<!-- Bank1_ScaleFactor&#45;&gt;ScaleX -->
<g id="edge15" class="edge">
<title>Bank1_ScaleFactor&#45;&gt;ScaleX</title>
<path fill="none" stroke="black" d="M469.56,-519.43C490.51,-506.08 520.04,-487.27 543.32,-472.45"/>
<polygon fill="black" stroke="black" points="545.04,-475.51 551.59,-467.18 541.28,-469.6 545.04,-475.51"/>
</g>
<!-- Bank2_ScaleFactor -->
<g id="node10" class="node">
<title>Bank2_ScaleFactor</title>
<ellipse fill="khaki" stroke="black" cx="893.14" cy="-537.25" rx="102.24" ry="18"/>
<text xml:space="preserve" text-anchor="middle" x="893.14" y="-532.58" font-family="Helvetica,sans-Serif" font-size="14.00">Bank2_ScaleFactor</text>
</g>
<!-- Bank2_ScaleFactor&#45;&gt;ScaleX -->
<g id="edge16" class="edge">
<title>Bank2_ScaleFactor&#45;&gt;ScaleX</title>
<path fill="none" stroke="black" d="M893.23,-518.83C892.29,-507.21 889.02,-492.54 879.14,-484 841.7,-451.64 696.04,-448 622.75,-448.3"/>
<polygon fill="black" stroke="black" points="623.13,-444.8 613.15,-448.37 623.18,-451.8 623.13,-444.8"/>
</g>
<!-- Peaks -->
<g id="node11" class="node">
<title>Peaks</title>
<ellipse fill="khaki" stroke="black" cx="369.14" cy="-626.5" rx="39.63" ry="18"/>
<text xml:space="preserve" text-anchor="middle" x="369.14" y="-621.83" font-family="Helvetica,sans-Serif" font-size="14.00">Peaks</text>
</g>
<!-- Peaks&#45;&gt;TargetPeakCentre -->
<g id="edge9" class="edge">
<title>Peaks&#45;&gt;TargetPeakCentre</title>
<path fill="none" stroke="black" d="M346.33,-611.48C324.08,-597.81 289.89,-576.8 263.82,-560.79"/>
<polygon fill="black" stroke="black" points="265.91,-557.96 255.56,-555.71 262.24,-563.93 265.91,-557.96"/>
<text xml:space="preserve" text-anchor="middle" x="335.23" y="-577.2" font-family="Helvetica,sans-Serif" font-size="14.00">Output</text>
</g>
<!-- Peaks&#45;&gt;Bank1_ScaleFactor -->
<g id="edge11" class="edge">
<title>Peaks&#45;&gt;Bank1_ScaleFactor</title>
<path fill="none" stroke="black" d="M382.71,-609.5C393.49,-596.79 408.78,-578.76 421.28,-564.02"/>
<polygon fill="black" stroke="black" points="423.86,-566.39 427.66,-556.5 418.52,-561.86 423.86,-566.39"/>
</g>
<!-- Peaks&#45;&gt;Bank2_ScaleFactor -->
<g id="edge13" class="edge">
<title>Peaks&#45;&gt;Bank2_ScaleFactor</title>
<path fill="none" stroke="black" d="M398.93,-614.16C405.21,-612.06 411.84,-610.04 418.14,-608.5 576.53,-569.77 619.87,-579.32 781.14,-555.25 789.39,-554.02 797.98,-552.73 806.57,-551.43"/>
<polygon fill="black" stroke="black" points="806.98,-554.91 816.34,-549.96 805.93,-547.99 806.98,-554.91"/>
</g>
<!-- CropWorkspace&#45;&gt;CroppedWorkspace -->
<g id="edge3" class="edge">
<title>CropWorkspace&#45;&gt;CroppedWorkspace</title>
<path fill="none" stroke="black" d="M450.53,-948.8C473.36,-935.25 505.2,-916.36 529.99,-901.64"/>
<polygon fill="black" stroke="black" points="531.68,-904.71 538.49,-896.6 528.11,-898.69 531.68,-904.71"/>
<text xml:space="preserve" text-anchor="middle" x="650.31" y="-917.95" font-family="Helvetica,sans-Serif" font-size="14.00">Workspace containing bank 1 and 2 data</text>
</g>
<!-- SortTableWorkspace -->
<g id="node14" class="node">
<title>SortTableWorkspace</title>
<path fill="lightskyblue" stroke="black" d="M434.89,-717.5C434.89,-717.5 303.39,-717.5 303.39,-717.5 297.39,-717.5 291.39,-711.5 291.39,-705.5 291.39,-705.5 291.39,-693.5 291.39,-693.5 291.39,-687.5 297.39,-681.5 303.39,-681.5 303.39,-681.5 434.89,-681.5 434.89,-681.5 440.89,-681.5 446.89,-687.5 446.89,-693.5 446.89,-693.5 446.89,-705.5 446.89,-705.5 446.89,-711.5 440.89,-717.5 434.89,-717.5"/>
<text xml:space="preserve" text-anchor="middle" x="369.14" y="-694.83" font-family="Helvetica,sans-Serif" font-size="14.00">SortTableWorkspace</text>
</g>
<!-- FindPeak&#45;&gt;SortTableWorkspace -->
<g id="edge7" class="edge">
<title>FindPeak&#45;&gt;SortTableWorkspace</title>
<path fill="none" stroke="black" d="M369.14,-770.51C369.14,-758.68 369.14,-742.7 369.14,-729"/>
<polygon fill="black" stroke="black" points="372.64,-729.22 369.14,-719.22 365.64,-729.22 372.64,-729.22"/>
<text xml:space="preserve" text-anchor="middle" x="441.52" y="-739.45" font-family="Helvetica,sans-Serif" font-size="14.00">Sort peaks by height</text>
</g>
<!-- SortTableWorkspace&#45;&gt;Peaks -->
<g id="edge8" class="edge">
<title>SortTableWorkspace&#45;&gt;Peaks</title>
<path fill="none" stroke="black" d="M369.14,-681.31C369.14,-673.73 369.14,-664.6 369.14,-656.04"/>
<polygon fill="black" stroke="black" points="372.64,-656.04 369.14,-646.04 365.64,-656.04 372.64,-656.04"/>
</g>
<!-- ScaledWorkspace -->
<g id="node21" class="node">
<title>ScaledWorkspace</title>
<ellipse fill="lightgrey" stroke="black" cx="428.14" cy="-375" rx="96.45" ry="18"/>
<text xml:space="preserve" text-anchor="middle" x="428.14" y="-370.32" font-family="Helvetica,sans-Serif" font-size="14.00">ScaledWorkspace</text>
</g>
<!-- ScaleX&#45;&gt;ScaledWorkspace -->
<g id="edge17" class="edge">
<title>ScaleX&#45;&gt;ScaledWorkspace</title>
<path fill="none" stroke="black" d="M548.65,-432.29C526.83,-422.1 497.46,-408.38 473.18,-397.04"/>
<polygon fill="black" stroke="black" points="474.69,-393.88 464.15,-392.82 471.72,-400.22 474.69,-393.88"/>
</g>
<!-- GroupDetectors -->
<g id="node17" class="node">
<title>GroupDetectors</title>
<path fill="lightskyblue" stroke="black" d="M169.52,-214.5C169.52,-214.5 68.77,-214.5 68.77,-214.5 62.77,-214.5 56.77,-208.5 56.77,-202.5 56.77,-202.5 56.77,-190.5 56.77,-190.5 56.77,-184.5 62.77,-178.5 68.77,-178.5 68.77,-178.5 169.52,-178.5 169.52,-178.5 175.52,-178.5 181.52,-184.5 181.52,-190.5 181.52,-190.5 181.52,-202.5 181.52,-202.5 181.52,-208.5 175.52,-214.5 169.52,-214.5"/>
<text xml:space="preserve" text-anchor="middle" x="119.14" y="-191.82" font-family="Helvetica,sans-Serif" font-size="14.00">GroupDetectors</text>
</g>
<!-- RebinToWorkspace&#45;&gt;GroupDetectors -->
<g id="edge20" class="edge">
<title>RebinToWorkspace&#45;&gt;GroupDetectors</title>
<path fill="none" stroke="black" d="M119.14,-267.51C119.14,-255.68 119.14,-239.7 119.14,-226"/>
<polygon fill="black" stroke="black" points="122.64,-226.22 119.14,-216.22 115.64,-226.22 122.64,-226.22"/>
<text xml:space="preserve" text-anchor="middle" x="239.14" y="-236.45" font-family="Helvetica,sans-Serif" font-size="14.00">Sum spectra from corrected banks</text>
</g>
<!-- AppendSpectra -->
<g id="node18" class="node">
<title>AppendSpectra</title>
<path fill="lightskyblue" stroke="black" d="M168.77,-125.25C168.77,-125.25 69.52,-125.25 69.52,-125.25 63.52,-125.25 57.52,-119.25 57.52,-113.25 57.52,-113.25 57.52,-101.25 57.52,-101.25 57.52,-95.25 63.52,-89.25 69.52,-89.25 69.52,-89.25 168.77,-89.25 168.77,-89.25 174.77,-89.25 180.77,-95.25 180.77,-101.25 180.77,-101.25 180.77,-113.25 180.77,-113.25 180.77,-119.25 174.77,-125.25 168.77,-125.25"/>
<text xml:space="preserve" text-anchor="middle" x="119.14" y="-102.58" font-family="Helvetica,sans-Serif" font-size="14.00">AppendSpectra</text>
</g>
<!-- GroupDetectors&#45;&gt;AppendSpectra -->
<g id="edge21" class="edge">
<title>GroupDetectors&#45;&gt;AppendSpectra</title>
<path fill="none" stroke="black" d="M119.14,-178.26C119.14,-166.43 119.14,-150.45 119.14,-136.75"/>
<polygon fill="black" stroke="black" points="122.64,-136.97 119.14,-126.97 115.64,-136.97 122.64,-136.97"/>
<text xml:space="preserve" text-anchor="middle" x="193.39" y="-147.2" font-family="Helvetica,sans-Serif" font-size="14.00">Behaviour = Average</text>
</g>
<!-- AppendSpectra&#45;&gt;OutputWorkspace -->
<g id="edge22" class="edge">
<title>AppendSpectra&#45;&gt;OutputWorkspace</title>
<path fill="none" stroke="black" d="M119.14,-89.01C119.14,-77.18 119.14,-61.2 119.14,-47.5"/>
<polygon fill="black" stroke="black" points="122.64,-47.72 119.14,-37.72 115.64,-47.72 122.64,-47.72"/>
<text xml:space="preserve" text-anchor="middle" x="143.52" y="-57.95" font-family="Helvetica,sans-Serif" font-size="14.00">Output</text>
</g>
<!-- ClosePeaktolerance -->
<g id="node19" class="node">
<title>ClosePeaktolerance</title>
<ellipse fill="lightgrey" stroke="black" cx="893.14" cy="-626.5" rx="105.92" ry="18"/>
<text xml:space="preserve" text-anchor="middle" x="893.14" y="-621.83" font-family="Helvetica,sans-Serif" font-size="14.00">ClosePeaktolerance</text>
</g>
<!-- ClosePeaktolerance&#45;&gt;Bank2_ScaleFactor -->
<g id="edge12" class="edge">
<title>ClosePeaktolerance&#45;&gt;Bank2_ScaleFactor</title>
<path fill="none" stroke="black" d="M893.14,-608.26C893.14,-596.43 893.14,-580.45 893.14,-566.75"/>
<polygon fill="black" stroke="black" points="896.64,-566.97 893.14,-556.97 889.64,-566.97 896.64,-566.97"/>
</g>
<!-- Croppedworkspace -->
<g id="node20" class="node">
<title>Croppedworkspace</title>
<ellipse fill="lightgrey" stroke="black" cx="668.14" cy="-537.25" rx="104.35" ry="18"/>
<text xml:space="preserve" text-anchor="middle" x="668.14" y="-532.58" font-family="Helvetica,sans-Serif" font-size="14.00">Croppedworkspace</text>
</g>
<!-- Croppedworkspace&#45;&gt;ScaleX -->
<g id="edge14" class="edge">
<title>Croppedworkspace&#45;&gt;ScaleX</title>
<path fill="none" stroke="black" d="M649.79,-519.32C643.72,-513.64 636.96,-507.22 630.89,-501.25 622.1,-492.6 612.64,-482.96 604.3,-474.34"/>
<polygon fill="black" stroke="black" points="606.91,-472 597.45,-467.23 601.87,-476.86 606.91,-472"/>
<text xml:space="preserve" text-anchor="middle" x="755.02" y="-487.95" font-family="Helvetica,sans-Serif" font-size="14.00">Workspace containing bank spectra</text>
</g>
<!-- ScaledWorkspace&#45;&gt;RebinToWorkspace -->
<g id="edge18" class="edge">
<title>ScaledWorkspace&#45;&gt;RebinToWorkspace</title>
<path fill="none" stroke="black" d="M376.42,-359.4C325.93,-345.14 248.62,-323.31 191.93,-307.3"/>
<polygon fill="black" stroke="black" points="192.91,-303.94 182.34,-304.59 191.01,-310.68 192.91,-303.94"/>
<text xml:space="preserve" text-anchor="middle" x="406.69" y="-325.7" font-family="Helvetica,sans-Serif" font-size="14.00">Rebin to original input binning</text>
</g>
</g>
</svg>
