<?xml version="1.0" encoding="UTF-8" standalone="no"?>
<!DOCTYPE svg PUBLIC "-//W3C//DTD SVG 1.1//EN"
 "http://www.w3.org/Graphics/SVG/1.1/DTD/svg11.dtd">
<!-- Generated by graphviz version 13.1.1 (20250720.1534)
 -->
<!-- Title: TotScatCalculateSelfScattering Pages: 1 -->
<svg width="774pt" height="874pt"
 viewBox="0.00 0.00 774.00 874.00" xmlns="http://www.w3.org/2000/svg" xmlns:xlink="http://www.w3.org/1999/xlink">
<g id="graph0" class="graph" transform="scale(1 1) rotate(0) translate(4 870.25)">
<title>TotScatCalculateSelfScattering</title>
<polygon fill="white" stroke="none" points="-4,4 -4,-870.25 769.77,-870.25 769.77,4 -4,4"/>
<text xml:space="preserve" text-anchor="middle" x="382.88" y="-848.95" font-family="Helvetica,sans-Serif" font-size="14.00">TotScatCalculateSelfScattering Workflow Diagram</text>
<!-- inputWorkspace -->
<g id="node1" class="node">
<title>inputWorkspace</title>
<ellipse fill="khaki" stroke="black" cx="90.14" cy="-823" rx="90.14" ry="18"/>
<text xml:space="preserve" text-anchor="middle" x="90.14" y="-818.33" font-family="Helvetica,sans-Serif" font-size="14.00">InputWorkspace</text>
</g>
<!-- SetSample -->
<g id="node8" class="node">
<title>SetSample</title>
<path fill="lightskyblue" stroke="black" d="M338.14,-769C338.14,-769 250.14,-769 250.14,-769 244.14,-769 238.14,-763 238.14,-757 238.14,-757 238.14,-745 238.14,-745 238.14,-739 244.14,-733 250.14,-733 250.14,-733 338.14,-733 338.14,-733 344.14,-733 350.14,-739 350.14,-745 350.14,-745 350.14,-757 350.14,-757 350.14,-763 344.14,-769 338.14,-769"/>
<text xml:space="preserve" text-anchor="middle" x="294.14" y="-746.33" font-family="Helvetica,sans-Serif" font-size="14.00">SetSample v1</text>
</g>
<!-- inputWorkspace&#45;&gt;SetSample -->
<g id="edge1" class="edge">
<title>inputWorkspace&#45;&gt;SetSample</title>
<path fill="none" stroke="black" d="M134.15,-806.9C162.99,-797 201.08,-783.93 232.86,-773.03"/>
<polygon fill="black" stroke="black" points="233.62,-776.47 241.94,-769.91 231.35,-769.85 233.62,-776.47"/>
</g>
<!-- outputWorkspace -->
<g id="node2" class="node">
<title>outputWorkspace</title>
<ellipse fill="khaki" stroke="black" cx="582.14" cy="-18" rx="98.56" ry="18"/>
<text xml:space="preserve" text-anchor="middle" x="582.14" y="-13.32" font-family="Helvetica,sans-Serif" font-size="14.00">OutputWorkspace</text>
</g>
<!-- calFileName -->
<g id="node3" class="node">
<title>calFileName</title>
<ellipse fill="khaki" stroke="black" cx="654.14" cy="-384.5" rx="70.67" ry="18"/>
<text xml:space="preserve" text-anchor="middle" x="654.14" y="-379.82" font-family="Helvetica,sans-Serif" font-size="14.00">CalFileName</text>
</g>
<!-- LoadCalFile -->
<g id="node13" class="node">
<title>LoadCalFile</title>
<path fill="lightskyblue" stroke="black" d="M699.64,-330.5C699.64,-330.5 608.64,-330.5 608.64,-330.5 602.64,-330.5 596.64,-324.5 596.64,-318.5 596.64,-318.5 596.64,-306.5 596.64,-306.5 596.64,-300.5 602.64,-294.5 608.64,-294.5 608.64,-294.5 699.64,-294.5 699.64,-294.5 705.64,-294.5 711.64,-300.5 711.64,-306.5 711.64,-306.5 711.64,-318.5 711.64,-318.5 711.64,-324.5 705.64,-330.5 699.64,-330.5"/>
<text xml:space="preserve" text-anchor="middle" x="654.14" y="-307.82" font-family="Helvetica,sans-Serif" font-size="14.00">LoadCalFile v1</text>
</g>
<!-- calFileName&#45;&gt;LoadCalFile -->
<g id="edge10" class="edge">
<title>calFileName&#45;&gt;LoadCalFile</title>
<path fill="none" stroke="black" d="M654.14,-366.2C654.14,-358.91 654.14,-350.23 654.14,-342.04"/>
<polygon fill="black" stroke="black" points="657.64,-342.12 654.14,-332.12 650.64,-342.12 657.64,-342.12"/>
</g>
<!-- sampleGeometry -->
<g id="node4" class="node">
<title>sampleGeometry</title>
<ellipse fill="khaki" stroke="black" cx="294.14" cy="-823" rx="95.4" ry="18"/>
<text xml:space="preserve" text-anchor="middle" x="294.14" y="-818.33" font-family="Helvetica,sans-Serif" font-size="14.00">SampleGeometry</text>
</g>
<!-- sampleGeometry&#45;&gt;SetSample -->
<g id="edge2" class="edge">
<title>sampleGeometry&#45;&gt;SetSample</title>
<path fill="none" stroke="black" d="M294.14,-804.7C294.14,-797.41 294.14,-788.73 294.14,-780.54"/>
<polygon fill="black" stroke="black" points="297.64,-780.62 294.14,-770.62 290.64,-780.62 297.64,-780.62"/>
</g>
<!-- sampleMaterial -->
<g id="node5" class="node">
<title>sampleMaterial</title>
<ellipse fill="khaki" stroke="black" cx="494.14" cy="-823" rx="86.46" ry="18"/>
<text xml:space="preserve" text-anchor="middle" x="494.14" y="-818.33" font-family="Helvetica,sans-Serif" font-size="14.00">SampleMaterial</text>
</g>
<!-- sampleMaterial&#45;&gt;SetSample -->
<g id="edge3" class="edge">
<title>sampleMaterial&#45;&gt;SetSample</title>
<path fill="none" stroke="black" d="M451.24,-806.98C423.1,-797.14 385.9,-784.12 354.77,-773.22"/>
<polygon fill="black" stroke="black" points="356.05,-769.96 345.46,-769.96 353.74,-776.57 356.05,-769.96"/>
</g>
<!-- placzekOrder -->
<g id="node6" class="node">
<title>placzekOrder</title>
<ellipse fill="khaki" stroke="black" cx="476.14" cy="-456.5" rx="75.41" ry="18"/>
<text xml:space="preserve" text-anchor="middle" x="476.14" y="-451.82" font-family="Helvetica,sans-Serif" font-size="14.00">PlaczekOrder</text>
</g>
<!-- CalculatePlaczek -->
<g id="node12" class="node">
<title>CalculatePlaczek</title>
<path fill="lightskyblue" stroke="black" d="M540.77,-402.5C540.77,-402.5 411.52,-402.5 411.52,-402.5 405.52,-402.5 399.52,-396.5 399.52,-390.5 399.52,-390.5 399.52,-378.5 399.52,-378.5 399.52,-372.5 405.52,-366.5 411.52,-366.5 411.52,-366.5 540.77,-366.5 540.77,-366.5 546.77,-366.5 552.77,-372.5 552.77,-378.5 552.77,-378.5 552.77,-390.5 552.77,-390.5 552.77,-396.5 546.77,-402.5 540.77,-402.5"/>
<text xml:space="preserve" text-anchor="middle" x="476.14" y="-379.82" font-family="Helvetica,sans-Serif" font-size="14.00">CalculatePlaczek v1</text>
</g>
<!-- placzekOrder&#45;&gt;CalculatePlaczek -->
<g id="edge12" class="edge">
<title>placzekOrder&#45;&gt;CalculatePlaczek</title>
<path fill="none" stroke="black" d="M476.14,-438.2C476.14,-430.91 476.14,-422.23 476.14,-414.04"/>
<polygon fill="black" stroke="black" points="479.64,-414.12 476.14,-404.12 472.64,-414.12 479.64,-414.12"/>
</g>
<!-- sampleTemp -->
<g id="node7" class="node">
<title>sampleTemp</title>
<ellipse fill="khaki" stroke="black" cx="643.14" cy="-456.5" rx="73.3" ry="18"/>
<text xml:space="preserve" text-anchor="middle" x="643.14" y="-451.82" font-family="Helvetica,sans-Serif" font-size="14.00">SampleTemp</text>
</g>
<!-- sampleTemp&#45;&gt;CalculatePlaczek -->
<g id="edge13" class="edge">
<title>sampleTemp&#45;&gt;CalculatePlaczek</title>
<path fill="none" stroke="black" d="M607.31,-440.48C584.23,-430.81 553.85,-418.07 528.13,-407.29"/>
<polygon fill="black" stroke="black" points="529.77,-404.18 519.19,-403.55 527.06,-410.64 529.77,-404.18"/>
</g>
<!-- ExtractSpectra -->
<g id="node9" class="node">
<title>ExtractSpectra</title>
<path fill="lightskyblue" stroke="black" d="M352.39,-618.5C352.39,-618.5 235.89,-618.5 235.89,-618.5 229.89,-618.5 223.89,-612.5 223.89,-606.5 223.89,-606.5 223.89,-594.5 223.89,-594.5 223.89,-588.5 229.89,-582.5 235.89,-582.5 235.89,-582.5 352.39,-582.5 352.39,-582.5 358.39,-582.5 364.39,-588.5 364.39,-594.5 364.39,-594.5 364.39,-606.5 364.39,-606.5 364.39,-612.5 358.39,-618.5 352.39,-618.5"/>
<text xml:space="preserve" text-anchor="middle" x="294.14" y="-595.83" font-family="Helvetica,sans-Serif" font-size="14.00">ExtractSpectra v1</text>
</g>
<!-- SetSample&#45;&gt;ExtractSpectra -->
<g id="edge5" class="edge">
<title>SetSample&#45;&gt;ExtractSpectra</title>
<path fill="none" stroke="black" d="M317.71,-732.58C328.23,-723.33 339.51,-710.98 345.14,-697 352.2,-679.48 352.2,-672.02 345.14,-654.5 340.96,-644.13 333.67,-634.65 325.89,-626.67"/>
<polygon fill="black" stroke="black" points="328.48,-624.3 318.81,-619.96 323.66,-629.38 328.48,-624.3"/>
</g>
<!-- FindMonitorSpectra -->
<g id="node19" class="node">
<title>FindMonitorSpectra</title>
<polygon fill="lightseagreen" stroke="black" points="336.39,-697 111.89,-697 111.89,-654.5 336.39,-654.5 336.39,-697"/>
<text xml:space="preserve" text-anchor="middle" x="224.14" y="-679.7" font-family="Helvetica,sans-Serif" font-size="14.00">Find the Monitor</text>
<text xml:space="preserve" text-anchor="middle" x="224.14" y="-662.45" font-family="Helvetica,sans-Serif" font-size="14.00"> spectra closest to the sample</text>
</g>
<!-- SetSample&#45;&gt;FindMonitorSpectra -->
<g id="edge4" class="edge">
<title>SetSample&#45;&gt;FindMonitorSpectra</title>
<path fill="none" stroke="black" d="M277.55,-732.64C269.81,-724.54 260.4,-714.69 251.64,-705.52"/>
<polygon fill="black" stroke="black" points="254.33,-703.27 244.89,-698.46 249.27,-708.11 254.33,-703.27"/>
</g>
<!-- ConvertUnits1 -->
<g id="node10" class="node">
<title>ConvertUnits1</title>
<path fill="lightskyblue" stroke="black" d="M346.39,-546.5C346.39,-546.5 241.89,-546.5 241.89,-546.5 235.89,-546.5 229.89,-540.5 229.89,-534.5 229.89,-534.5 229.89,-522.5 229.89,-522.5 229.89,-516.5 235.89,-510.5 241.89,-510.5 241.89,-510.5 346.39,-510.5 346.39,-510.5 352.39,-510.5 358.39,-516.5 358.39,-522.5 358.39,-522.5 358.39,-534.5 358.39,-534.5 358.39,-540.5 352.39,-546.5 346.39,-546.5"/>
<text xml:space="preserve" text-anchor="middle" x="294.14" y="-523.83" font-family="Helvetica,sans-Serif" font-size="14.00">ConvertUnits v1</text>
</g>
<!-- ExtractSpectra&#45;&gt;ConvertUnits1 -->
<g id="edge7" class="edge">
<title>ExtractSpectra&#45;&gt;ConvertUnits1</title>
<path fill="none" stroke="black" d="M294.14,-582.2C294.14,-574.91 294.14,-566.23 294.14,-558.04"/>
<polygon fill="black" stroke="black" points="297.64,-558.12 294.14,-548.12 290.64,-558.12 297.64,-558.12"/>
</g>
<!-- FitIncidentSpectrum -->
<g id="node11" class="node">
<title>FitIncidentSpectrum</title>
<path fill="lightskyblue" stroke="black" d="M370.77,-474.5C370.77,-474.5 217.52,-474.5 217.52,-474.5 211.52,-474.5 205.52,-468.5 205.52,-462.5 205.52,-462.5 205.52,-450.5 205.52,-450.5 205.52,-444.5 211.52,-438.5 217.52,-438.5 217.52,-438.5 370.77,-438.5 370.77,-438.5 376.77,-438.5 382.77,-444.5 382.77,-450.5 382.77,-450.5 382.77,-462.5 382.77,-462.5 382.77,-468.5 376.77,-474.5 370.77,-474.5"/>
<text xml:space="preserve" text-anchor="middle" x="294.14" y="-451.82" font-family="Helvetica,sans-Serif" font-size="14.00">FitIncidentSpectrum v1</text>
</g>
<!-- ConvertUnits1&#45;&gt;FitIncidentSpectrum -->
<g id="edge8" class="edge">
<title>ConvertUnits1&#45;&gt;FitIncidentSpectrum</title>
<path fill="none" stroke="black" d="M294.14,-510.2C294.14,-502.91 294.14,-494.23 294.14,-486.04"/>
<polygon fill="black" stroke="black" points="297.64,-486.12 294.14,-476.12 290.64,-486.12 297.64,-486.12"/>
</g>
<!-- FitIncidentSpectrum&#45;&gt;CalculatePlaczek -->
<g id="edge9" class="edge">
<title>FitIncidentSpectrum&#45;&gt;CalculatePlaczek</title>
<path fill="none" stroke="black" d="M339.6,-438.02C364.12,-428.58 394.59,-416.87 420.52,-406.89"/>
<polygon fill="black" stroke="black" points="421.46,-410.28 429.54,-403.43 418.95,-403.75 421.46,-410.28"/>
</g>
<!-- ConvertUnits2 -->
<g id="node17" class="node">
<title>ConvertUnits2</title>
<path fill="lightskyblue" stroke="black" d="M528.39,-330.5C528.39,-330.5 423.89,-330.5 423.89,-330.5 417.89,-330.5 411.89,-324.5 411.89,-318.5 411.89,-318.5 411.89,-306.5 411.89,-306.5 411.89,-300.5 417.89,-294.5 423.89,-294.5 423.89,-294.5 528.39,-294.5 528.39,-294.5 534.39,-294.5 540.39,-300.5 540.39,-306.5 540.39,-306.5 540.39,-318.5 540.39,-318.5 540.39,-324.5 534.39,-330.5 528.39,-330.5"/>
<text xml:space="preserve" text-anchor="middle" x="476.14" y="-307.82" font-family="Helvetica,sans-Serif" font-size="14.00">ConvertUnits v1</text>
</g>
<!-- CalculatePlaczek&#45;&gt;ConvertUnits2 -->
<g id="edge14" class="edge">
<title>CalculatePlaczek&#45;&gt;ConvertUnits2</title>
<path fill="none" stroke="black" d="M476.14,-366.2C476.14,-358.91 476.14,-350.23 476.14,-342.04"/>
<polygon fill="black" stroke="black" points="479.64,-342.12 476.14,-332.12 472.64,-342.12 479.64,-342.12"/>
</g>
<!-- GroupDetectors -->
<g id="node14" class="node">
<title>GroupDetectors</title>
<path fill="lightskyblue" stroke="black" d="M558.39,-180C558.39,-180 435.89,-180 435.89,-180 429.89,-180 423.89,-174 423.89,-168 423.89,-168 423.89,-156 423.89,-156 423.89,-150 429.89,-144 435.89,-144 435.89,-144 558.39,-144 558.39,-144 564.39,-144 570.39,-150 570.39,-156 570.39,-156 570.39,-168 570.39,-168 570.39,-174 564.39,-180 558.39,-180"/>
<text xml:space="preserve" text-anchor="middle" x="497.14" y="-157.32" font-family="Helvetica,sans-Serif" font-size="14.00">GroupDetectors v2</text>
</g>
<!-- LoadCalFile&#45;&gt;GroupDetectors -->
<g id="edge11" class="edge">
<title>LoadCalFile&#45;&gt;GroupDetectors</title>
<path fill="none" stroke="black" d="M614.82,-294.22C597.15,-285.23 576.79,-273.05 561.14,-258.5 539.98,-238.82 522.29,-210.86 510.91,-190.28"/>
<polygon fill="black" stroke="black" points="514.07,-188.76 506.26,-181.6 507.9,-192.07 514.07,-188.76"/>
</g>
<!-- GetPixelNumberInDetector -->
<g id="node20" class="node">
<title>GetPixelNumberInDetector</title>
<polygon fill="lightseagreen" stroke="black" points="765.77,-258.5 570.52,-258.5 570.52,-216 765.77,-216 765.77,-258.5"/>
<text xml:space="preserve" text-anchor="middle" x="668.14" y="-241.2" font-family="Helvetica,sans-Serif" font-size="14.00">Count the number</text>
<text xml:space="preserve" text-anchor="middle" x="668.14" y="-223.95" font-family="Helvetica,sans-Serif" font-size="14.00"> of pixels in each detector</text>
</g>
<!-- LoadCalFile&#45;&gt;GetPixelNumberInDetector -->
<g id="edge17" class="edge">
<title>LoadCalFile&#45;&gt;GetPixelNumberInDetector</title>
<path fill="none" stroke="black" d="M657.46,-294.14C658.83,-286.95 660.47,-278.38 662.05,-270.13"/>
<polygon fill="black" stroke="black" points="665.48,-270.83 663.92,-260.36 658.6,-269.52 665.48,-270.83"/>
</g>
<!-- Divide -->
<g id="node16" class="node">
<title>Divide</title>
<path fill="lightskyblue" stroke="black" d="M610.77,-108C610.77,-108 553.52,-108 553.52,-108 547.52,-108 541.52,-102 541.52,-96 541.52,-96 541.52,-84 541.52,-84 541.52,-78 547.52,-72 553.52,-72 553.52,-72 610.77,-72 610.77,-72 616.77,-72 622.77,-78 622.77,-84 622.77,-84 622.77,-96 622.77,-96 622.77,-102 616.77,-108 610.77,-108"/>
<text xml:space="preserve" text-anchor="middle" x="582.14" y="-85.33" font-family="Helvetica,sans-Serif" font-size="14.00">Divide v1</text>
</g>
<!-- GroupDetectors&#45;&gt;Divide -->
<g id="edge20" class="edge">
<title>GroupDetectors&#45;&gt;Divide</title>
<path fill="none" stroke="black" d="M518.15,-143.7C528.47,-135.2 541.08,-124.81 552.37,-115.51"/>
<polygon fill="black" stroke="black" points="554.41,-118.37 559.91,-109.31 549.96,-112.96 554.41,-118.37"/>
</g>
<!-- CreateWorkspace -->
<g id="node15" class="node">
<title>CreateWorkspace</title>
<path fill="lightskyblue" stroke="black" d="M735.39,-180C735.39,-180 600.89,-180 600.89,-180 594.89,-180 588.89,-174 588.89,-168 588.89,-168 588.89,-156 588.89,-156 588.89,-150 594.89,-144 600.89,-144 600.89,-144 735.39,-144 735.39,-144 741.39,-144 747.39,-150 747.39,-156 747.39,-156 747.39,-168 747.39,-168 747.39,-174 741.39,-180 735.39,-180"/>
<text xml:space="preserve" text-anchor="middle" x="668.14" y="-157.32" font-family="Helvetica,sans-Serif" font-size="14.00">CreateWorkspace v1</text>
</g>
<!-- CreateWorkspace&#45;&gt;Divide -->
<g id="edge19" class="edge">
<title>CreateWorkspace&#45;&gt;Divide</title>
<path fill="none" stroke="black" d="M646.88,-143.7C636.44,-135.2 623.68,-124.81 612.26,-115.51"/>
<polygon fill="black" stroke="black" points="614.59,-112.9 604.63,-109.3 610.17,-118.33 614.59,-112.9"/>
</g>
<!-- Divide&#45;&gt;outputWorkspace -->
<g id="edge21" class="edge">
<title>Divide&#45;&gt;outputWorkspace</title>
<path fill="none" stroke="black" d="M582.14,-71.7C582.14,-64.41 582.14,-55.73 582.14,-47.54"/>
<polygon fill="black" stroke="black" points="585.64,-47.62 582.14,-37.62 578.64,-47.62 585.64,-47.62"/>
</g>
<!-- Rebin -->
<g id="node18" class="node">
<title>Rebin</title>
<path fill="lightskyblue" stroke="black" d="M502.52,-255.25C502.52,-255.25 449.77,-255.25 449.77,-255.25 443.77,-255.25 437.77,-249.25 437.77,-243.25 437.77,-243.25 437.77,-231.25 437.77,-231.25 437.77,-225.25 443.77,-219.25 449.77,-219.25 449.77,-219.25 502.52,-219.25 502.52,-219.25 508.52,-219.25 514.52,-225.25 514.52,-231.25 514.52,-231.25 514.52,-243.25 514.52,-243.25 514.52,-249.25 508.52,-255.25 502.52,-255.25"/>
<text xml:space="preserve" text-anchor="middle" x="476.14" y="-232.57" font-family="Helvetica,sans-Serif" font-size="14.00">Rebin v1</text>
</g>
<!-- ConvertUnits2&#45;&gt;Rebin -->
<g id="edge15" class="edge">
<title>ConvertUnits2&#45;&gt;Rebin</title>
<path fill="none" stroke="black" d="M476.14,-294.14C476.14,-286.08 476.14,-276.28 476.14,-267.15"/>
<polygon fill="black" stroke="black" points="479.64,-267.25 476.14,-257.25 472.64,-267.25 479.64,-267.25"/>
</g>
<!-- Rebin&#45;&gt;GroupDetectors -->
<g id="edge16" class="edge">
<title>Rebin&#45;&gt;GroupDetectors</title>
<path fill="none" stroke="black" d="M481.12,-218.89C483.48,-210.65 486.36,-200.59 489.03,-191.29"/>
<polygon fill="black" stroke="black" points="492.32,-192.52 491.71,-181.94 485.59,-190.59 492.32,-192.52"/>
</g>
<!-- FindMonitorSpectra&#45;&gt;ExtractSpectra -->
<g id="edge6" class="edge">
<title>FindMonitorSpectra&#45;&gt;ExtractSpectra</title>
<path fill="none" stroke="black" d="M243.64,-654.35C251.73,-645.88 261.21,-635.96 269.76,-627.01"/>
<polygon fill="black" stroke="black" points="272.17,-629.56 276.54,-619.91 267.1,-624.72 272.17,-629.56"/>
</g>
<!-- GetPixelNumberInDetector&#45;&gt;CreateWorkspace -->
<g id="edge18" class="edge">
<title>GetPixelNumberInDetector&#45;&gt;CreateWorkspace</title>
<path fill="none" stroke="black" d="M668.14,-215.85C668.14,-208.34 668.14,-199.69 668.14,-191.59"/>
<polygon fill="black" stroke="black" points="671.64,-191.83 668.14,-181.83 664.64,-191.83 671.64,-191.83"/>
</g>
</g>
</svg>
