<?xml version="1.0" encoding="UTF-8" standalone="no"?>
<!DOCTYPE svg PUBLIC "-//W3C//DTD SVG 1.1//EN"
 "http://www.w3.org/Graphics/SVG/1.1/DTD/svg11.dtd">
<!-- Generated by graphviz version 13.1.1 (20250720.1534)
 -->
<!-- Title: TransformToIqt Pages: 1 -->
<svg width="729pt" height="664pt"
 viewBox="0.00 0.00 729.00 664.00" xmlns="http://www.w3.org/2000/svg" xmlns:xlink="http://www.w3.org/1999/xlink">
<g id="graph0" class="graph" transform="scale(1 1) rotate(0) translate(4 660)">
<title>TransformToIqt</title>
<polygon fill="white" stroke="none" points="-4,4 -4,-660 725.44,-660 725.44,4 -4,4"/>
<text xml:space="preserve" text-anchor="middle" x="360.72" y="-638.7" font-family="Helvetica,sans-Serif" font-size="14.00">TransformToIqt Flowchart</text>
<!-- IsDryRun -->
<g id="node1" class="node">
<title>IsDryRun</title>
<polygon fill="limegreen" stroke="black" points="125.66,-557.75 51.01,-539.75 125.66,-521.75 200.31,-539.75 125.66,-557.75"/>
<text xml:space="preserve" text-anchor="middle" x="125.66" y="-535.08" font-family="Helvetica,sans-Serif" font-size="14.00">DryRun?</text>
</g>
<!-- Rebin_Sample -->
<g id="node11" class="node">
<title>Rebin_Sample</title>
<path fill="lightskyblue" stroke="black" d="M153.16,-468.5C153.16,-468.5 122.16,-468.5 122.16,-468.5 116.16,-468.5 110.16,-462.5 110.16,-456.5 110.16,-456.5 110.16,-444.5 110.16,-444.5 110.16,-438.5 116.16,-432.5 122.16,-432.5 122.16,-432.5 153.16,-432.5 153.16,-432.5 159.16,-432.5 165.16,-438.5 165.16,-444.5 165.16,-444.5 165.16,-456.5 165.16,-456.5 165.16,-462.5 159.16,-468.5 153.16,-468.5"/>
<text xml:space="preserve" text-anchor="middle" x="137.66" y="-445.82" font-family="Helvetica,sans-Serif" font-size="14.00">Rebin</text>
</g>
<!-- IsDryRun&#45;&gt;Rebin_Sample -->
<g id="edge7" class="edge">
<title>IsDryRun&#45;&gt;Rebin_Sample</title>
<path fill="none" stroke="black" d="M127.98,-521.93C129.6,-510.13 131.81,-494.07 133.71,-480.26"/>
<polygon fill="black" stroke="black" points="137.17,-480.75 135.07,-470.37 130.24,-479.8 137.17,-480.75"/>
<text xml:space="preserve" text-anchor="middle" x="142.11" y="-490.45" font-family="Helvetica,sans-Serif" font-size="14.00">No</text>
</g>
<!-- CalculateBinningParameters -->
<g id="node2" class="node">
<title>CalculateBinningParameters</title>
<polygon fill="lightseagreen" stroke="black" points="439.41,-557.75 217.91,-557.75 217.91,-521.75 439.41,-521.75 439.41,-557.75"/>
<text xml:space="preserve" text-anchor="middle" x="328.66" y="-535.08" font-family="Helvetica,sans-Serif" font-size="14.00">Calculate binning parameters</text>
</g>
<!-- ParameterWorkspace -->
<g id="node8" class="node">
<title>ParameterWorkspace</title>
<ellipse fill="khaki" stroke="black" cx="303.66" cy="-450.5" rx="114.34" ry="18"/>
<text xml:space="preserve" text-anchor="middle" x="303.66" y="-445.82" font-family="Helvetica,sans-Serif" font-size="14.00">ParameterWorkspace</text>
</g>
<!-- CalculateBinningParameters&#45;&gt;ParameterWorkspace -->
<g id="edge5" class="edge">
<title>CalculateBinningParameters&#45;&gt;ParameterWorkspace</title>
<path fill="none" stroke="black" d="M323.72,-521.51C320.3,-509.56 315.66,-493.38 311.71,-479.58"/>
<polygon fill="black" stroke="black" points="315.13,-478.81 309.01,-470.16 308.4,-480.73 315.13,-478.81"/>
</g>
<!-- CalculateBinningParameters&#45;&gt;Rebin_Sample -->
<g id="edge8" class="edge">
<title>CalculateBinningParameters&#45;&gt;Rebin_Sample</title>
<path fill="none" stroke="black" d="M290.47,-521.3C257.17,-506.09 209.11,-484.14 175.82,-468.93"/>
<polygon fill="black" stroke="black" points="177.5,-465.85 166.95,-464.88 174.59,-472.22 177.5,-465.85"/>
</g>
<!-- Rebin_Resolution -->
<g id="node12" class="node">
<title>Rebin_Resolution</title>
<path fill="lightskyblue" stroke="black" d="M575.16,-468.5C575.16,-468.5 544.16,-468.5 544.16,-468.5 538.16,-468.5 532.16,-462.5 532.16,-456.5 532.16,-456.5 532.16,-444.5 532.16,-444.5 532.16,-438.5 538.16,-432.5 544.16,-432.5 544.16,-432.5 575.16,-432.5 575.16,-432.5 581.16,-432.5 587.16,-438.5 587.16,-444.5 587.16,-444.5 587.16,-456.5 587.16,-456.5 587.16,-462.5 581.16,-468.5 575.16,-468.5"/>
<text xml:space="preserve" text-anchor="middle" x="559.66" y="-445.82" font-family="Helvetica,sans-Serif" font-size="14.00">Rebin</text>
</g>
<!-- CalculateBinningParameters&#45;&gt;Rebin_Resolution -->
<g id="edge15" class="edge">
<title>CalculateBinningParameters&#45;&gt;Rebin_Resolution</title>
<path fill="none" stroke="black" d="M374.85,-521.3C417.7,-505.12 480.73,-481.31 520.99,-466.11"/>
<polygon fill="black" stroke="black" points="522.17,-469.4 530.29,-462.6 519.69,-462.86 522.17,-469.4"/>
</g>
<!-- SampleWorkspace -->
<g id="node3" class="node">
<title>SampleWorkspace</title>
<ellipse fill="khaki" stroke="black" cx="100.66" cy="-612.75" rx="100.66" ry="18"/>
<text xml:space="preserve" text-anchor="middle" x="100.66" y="-608.08" font-family="Helvetica,sans-Serif" font-size="14.00">SampleWorkspace</text>
</g>
<!-- SampleWorkspace&#45;&gt;IsDryRun -->
<g id="edge6" class="edge">
<title>SampleWorkspace&#45;&gt;IsDryRun</title>
<path fill="none" stroke="black" d="M106.71,-594.56C109.56,-586.48 113.02,-576.66 116.2,-567.63"/>
<polygon fill="black" stroke="black" points="119.49,-568.83 119.51,-558.23 112.88,-566.5 119.49,-568.83"/>
</g>
<!-- SampleWorkspace&#45;&gt;CalculateBinningParameters -->
<g id="edge1" class="edge">
<title>SampleWorkspace&#45;&gt;CalculateBinningParameters</title>
<path fill="none" stroke="black" d="M149.29,-596.61C182.01,-586.42 225.56,-572.85 261.56,-561.64"/>
<polygon fill="black" stroke="black" points="262.52,-565.01 271.03,-558.7 260.44,-558.33 262.52,-565.01"/>
</g>
<!-- ResolutionWorkspace -->
<g id="node4" class="node">
<title>ResolutionWorkspace</title>
<ellipse fill="khaki" stroke="black" cx="572.66" cy="-539.75" rx="114.87" ry="18"/>
<text xml:space="preserve" text-anchor="middle" x="572.66" y="-535.08" font-family="Helvetica,sans-Serif" font-size="14.00">ResolutionWorkspace</text>
</g>
<!-- ResolutionWorkspace&#45;&gt;Rebin_Resolution -->
<g id="edge14" class="edge">
<title>ResolutionWorkspace&#45;&gt;Rebin_Resolution</title>
<path fill="none" stroke="black" d="M570.09,-521.51C568.33,-509.68 565.95,-493.7 563.91,-480"/>
<polygon fill="black" stroke="black" points="567.38,-479.57 562.45,-470.2 560.46,-480.61 567.38,-479.57"/>
</g>
<!-- EnergyMin -->
<g id="node5" class="node">
<title>EnergyMin</title>
<ellipse fill="khaki" stroke="black" cx="658.66" cy="-612.75" rx="62.78" ry="18"/>
<text xml:space="preserve" text-anchor="middle" x="658.66" y="-608.08" font-family="Helvetica,sans-Serif" font-size="14.00">EnergyMin</text>
</g>
<!-- EnergyMin&#45;&gt;CalculateBinningParameters -->
<g id="edge2" class="edge">
<title>EnergyMin&#45;&gt;CalculateBinningParameters</title>
<path fill="none" stroke="black" d="M611.84,-600.51C603.46,-598.55 594.81,-596.56 586.66,-594.75 533.62,-582.94 474.27,-570.47 425.88,-560.49"/>
<polygon fill="black" stroke="black" points="426.76,-557.1 416.26,-558.51 425.35,-563.95 426.76,-557.1"/>
</g>
<!-- EnergyMax -->
<g id="node6" class="node">
<title>EnergyMax</title>
<ellipse fill="khaki" stroke="black" cx="284.66" cy="-612.75" rx="65.41" ry="18"/>
<text xml:space="preserve" text-anchor="middle" x="284.66" y="-608.08" font-family="Helvetica,sans-Serif" font-size="14.00">EnergyMax</text>
</g>
<!-- EnergyMax&#45;&gt;CalculateBinningParameters -->
<g id="edge3" class="edge">
<title>EnergyMax&#45;&gt;CalculateBinningParameters</title>
<path fill="none" stroke="black" d="M295.31,-594.56C300.34,-586.45 306.45,-576.59 312.07,-567.53"/>
<polygon fill="black" stroke="black" points="315.02,-569.41 317.31,-559.07 309.07,-565.72 315.02,-569.41"/>
</g>
<!-- BinReductionFactor -->
<g id="node7" class="node">
<title>BinReductionFactor</title>
<ellipse fill="khaki" stroke="black" cx="472.66" cy="-612.75" rx="104.87" ry="18"/>
<text xml:space="preserve" text-anchor="middle" x="472.66" y="-608.08" font-family="Helvetica,sans-Serif" font-size="14.00">BinReductionFactor</text>
</g>
<!-- BinReductionFactor&#45;&gt;CalculateBinningParameters -->
<g id="edge4" class="edge">
<title>BinReductionFactor&#45;&gt;CalculateBinningParameters</title>
<path fill="none" stroke="black" d="M439.26,-595.28C420,-585.79 395.51,-573.71 374.47,-563.33"/>
<polygon fill="black" stroke="black" points="376.02,-560.2 365.5,-558.91 372.92,-566.47 376.02,-560.2"/>
</g>
<!-- OutputWorkspace -->
<g id="node9" class="node">
<title>OutputWorkspace</title>
<ellipse fill="khaki" stroke="black" cx="316.66" cy="-18" rx="98.56" ry="18"/>
<text xml:space="preserve" text-anchor="middle" x="316.66" y="-13.32" font-family="Helvetica,sans-Serif" font-size="14.00">OutputWorkspace</text>
</g>
<!-- Divide -->
<g id="node10" class="node">
<title>Divide</title>
<path fill="lightskyblue" stroke="black" d="M334.41,-109C334.41,-109 298.91,-109 298.91,-109 292.91,-109 286.91,-103 286.91,-97 286.91,-97 286.91,-85 286.91,-85 286.91,-79 292.91,-73 298.91,-73 298.91,-73 334.41,-73 334.41,-73 340.41,-73 346.41,-79 346.41,-85 346.41,-85 346.41,-97 346.41,-97 346.41,-103 340.41,-109 334.41,-109"/>
<text xml:space="preserve" text-anchor="middle" x="316.66" y="-86.33" font-family="Helvetica,sans-Serif" font-size="14.00">Divide</text>
</g>
<!-- Divide&#45;&gt;OutputWorkspace -->
<g id="edge23" class="edge">
<title>Divide&#45;&gt;OutputWorkspace</title>
<path fill="none" stroke="black" d="M316.66,-72.81C316.66,-65.23 316.66,-56.1 316.66,-47.54"/>
<polygon fill="black" stroke="black" points="320.16,-47.54 316.66,-37.54 313.16,-47.54 320.16,-47.54"/>
</g>
<!-- Integration_Sample -->
<g id="node13" class="node">
<title>Integration_Sample</title>
<path fill="lightskyblue" stroke="black" d="M138.91,-341.5C138.91,-341.5 70.41,-341.5 70.41,-341.5 64.41,-341.5 58.41,-335.5 58.41,-329.5 58.41,-329.5 58.41,-317.5 58.41,-317.5 58.41,-311.5 64.41,-305.5 70.41,-305.5 70.41,-305.5 138.91,-305.5 138.91,-305.5 144.91,-305.5 150.91,-311.5 150.91,-317.5 150.91,-317.5 150.91,-329.5 150.91,-329.5 150.91,-335.5 144.91,-341.5 138.91,-341.5"/>
<text xml:space="preserve" text-anchor="middle" x="104.66" y="-318.82" font-family="Helvetica,sans-Serif" font-size="14.00">Integration</text>
</g>
<!-- Rebin_Sample&#45;&gt;Integration_Sample -->
<g id="edge9" class="edge">
<title>Rebin_Sample&#45;&gt;Integration_Sample</title>
<path fill="none" stroke="black" d="M133.07,-432.12C127.66,-411.6 118.57,-377.17 112.13,-352.79"/>
<polygon fill="black" stroke="black" points="115.53,-351.97 109.6,-343.2 108.77,-353.76 115.53,-351.97"/>
</g>
<!-- ConvertToPointData_Sample -->
<g id="node14" class="node">
<title>ConvertToPointData_Sample</title>
<path fill="lightskyblue" stroke="black" d="M302.54,-395.5C302.54,-395.5 174.79,-395.5 174.79,-395.5 168.79,-395.5 162.79,-389.5 162.79,-383.5 162.79,-383.5 162.79,-371.5 162.79,-371.5 162.79,-365.5 168.79,-359.5 174.79,-359.5 174.79,-359.5 302.54,-359.5 302.54,-359.5 308.54,-359.5 314.54,-365.5 314.54,-371.5 314.54,-371.5 314.54,-383.5 314.54,-383.5 314.54,-389.5 308.54,-395.5 302.54,-395.5"/>
<text xml:space="preserve" text-anchor="middle" x="238.66" y="-372.82" font-family="Helvetica,sans-Serif" font-size="14.00">ConvertToPointData</text>
</g>
<!-- Rebin_Sample&#45;&gt;ConvertToPointData_Sample -->
<g id="edge10" class="edge">
<title>Rebin_Sample&#45;&gt;ConvertToPointData_Sample</title>
<path fill="none" stroke="black" d="M162.37,-432.13C175.09,-423.19 190.79,-412.16 204.63,-402.42"/>
<polygon fill="black" stroke="black" points="206.45,-405.42 212.62,-396.81 202.43,-399.69 206.45,-405.42"/>
</g>
<!-- Integration_Resolution -->
<g id="node17" class="node">
<title>Integration_Resolution</title>
<path fill="lightskyblue" stroke="black" d="M434.91,-341.5C434.91,-341.5 366.41,-341.5 366.41,-341.5 360.41,-341.5 354.41,-335.5 354.41,-329.5 354.41,-329.5 354.41,-317.5 354.41,-317.5 354.41,-311.5 360.41,-305.5 366.41,-305.5 366.41,-305.5 434.91,-305.5 434.91,-305.5 440.91,-305.5 446.91,-311.5 446.91,-317.5 446.91,-317.5 446.91,-329.5 446.91,-329.5 446.91,-335.5 440.91,-341.5 434.91,-341.5"/>
<text xml:space="preserve" text-anchor="middle" x="400.66" y="-318.82" font-family="Helvetica,sans-Serif" font-size="14.00">Integration</text>
</g>
<!-- Rebin_Resolution&#45;&gt;Integration_Resolution -->
<g id="edge16" class="edge">
<title>Rebin_Resolution&#45;&gt;Integration_Resolution</title>
<path fill="none" stroke="black" d="M531.97,-432.16C516.26,-421.99 496.44,-408.6 479.66,-395.5 461.32,-381.17 441.86,-363.71 426.84,-349.69"/>
<polygon fill="black" stroke="black" points="429.33,-347.24 419.66,-342.92 424.53,-352.33 429.33,-347.24"/>
</g>
<!-- ConvertToPointData_Resolution -->
<g id="node18" class="node">
<title>ConvertToPointData_Resolution</title>
<path fill="lightskyblue" stroke="black" d="M628.54,-395.5C628.54,-395.5 500.79,-395.5 500.79,-395.5 494.79,-395.5 488.79,-389.5 488.79,-383.5 488.79,-383.5 488.79,-371.5 488.79,-371.5 488.79,-365.5 494.79,-359.5 500.79,-359.5 500.79,-359.5 628.54,-359.5 628.54,-359.5 634.54,-359.5 640.54,-365.5 640.54,-371.5 640.54,-371.5 640.54,-383.5 640.54,-383.5 640.54,-389.5 634.54,-395.5 628.54,-395.5"/>
<text xml:space="preserve" text-anchor="middle" x="564.66" y="-372.82" font-family="Helvetica,sans-Serif" font-size="14.00">ConvertToPointData</text>
</g>
<!-- Rebin_Resolution&#45;&gt;ConvertToPointData_Resolution -->
<g id="edge17" class="edge">
<title>Rebin_Resolution&#45;&gt;ConvertToPointData_Resolution</title>
<path fill="none" stroke="black" d="M560.87,-432.31C561.41,-424.64 562.06,-415.39 562.67,-406.74"/>
<polygon fill="black" stroke="black" points="566.15,-407.26 563.36,-397.04 559.16,-406.77 566.15,-407.26"/>
</g>
<!-- Divide_Sample -->
<g id="node16" class="node">
<title>Divide_Sample</title>
<path fill="lightskyblue" stroke="black" d="M271.41,-198.25C271.41,-198.25 235.91,-198.25 235.91,-198.25 229.91,-198.25 223.91,-192.25 223.91,-186.25 223.91,-186.25 223.91,-174.25 223.91,-174.25 223.91,-168.25 229.91,-162.25 235.91,-162.25 235.91,-162.25 271.41,-162.25 271.41,-162.25 277.41,-162.25 283.41,-168.25 283.41,-174.25 283.41,-174.25 283.41,-186.25 283.41,-186.25 283.41,-192.25 277.41,-198.25 271.41,-198.25"/>
<text xml:space="preserve" text-anchor="middle" x="253.66" y="-175.57" font-family="Helvetica,sans-Serif" font-size="14.00">Divide</text>
</g>
<!-- Integration_Sample&#45;&gt;Divide_Sample -->
<g id="edge13" class="edge">
<title>Integration_Sample&#45;&gt;Divide_Sample</title>
<path fill="none" stroke="black" d="M82.24,-305.36C77.14,-300.23 72.42,-294.17 69.66,-287.5 63.54,-272.72 60.59,-264.68 69.66,-251.5 101.55,-205.19 168.38,-189.39 212.11,-184.01"/>
<polygon fill="black" stroke="black" points="212.44,-187.5 222.01,-182.94 211.69,-180.54 212.44,-187.5"/>
<text xml:space="preserve" text-anchor="middle" x="122.16" y="-264.82" font-family="Helvetica,sans-Serif" font-size="14.00">RHSWorkspace</text>
</g>
<!-- ExtractFFTSpectrum_Sample -->
<g id="node15" class="node">
<title>ExtractFFTSpectrum_Sample</title>
<path fill="lightskyblue" stroke="black" d="M328.16,-287.5C328.16,-287.5 195.16,-287.5 195.16,-287.5 189.16,-287.5 183.16,-281.5 183.16,-275.5 183.16,-275.5 183.16,-263.5 183.16,-263.5 183.16,-257.5 189.16,-251.5 195.16,-251.5 195.16,-251.5 328.16,-251.5 328.16,-251.5 334.16,-251.5 340.16,-257.5 340.16,-263.5 340.16,-263.5 340.16,-275.5 340.16,-275.5 340.16,-281.5 334.16,-287.5 328.16,-287.5"/>
<text xml:space="preserve" text-anchor="middle" x="261.66" y="-264.82" font-family="Helvetica,sans-Serif" font-size="14.00">ExtractFFTSpectrum</text>
</g>
<!-- ConvertToPointData_Sample&#45;&gt;ExtractFFTSpectrum_Sample -->
<g id="edge11" class="edge">
<title>ConvertToPointData_Sample&#45;&gt;ExtractFFTSpectrum_Sample</title>
<path fill="none" stroke="black" d="M242.36,-359.47C245.89,-343.19 251.29,-318.32 255.47,-299.02"/>
<polygon fill="black" stroke="black" points="258.88,-299.83 257.58,-289.32 252.04,-298.35 258.88,-299.83"/>
</g>
<!-- ExtractFFTSpectrum_Sample&#45;&gt;Divide_Sample -->
<g id="edge12" class="edge">
<title>ExtractFFTSpectrum_Sample&#45;&gt;Divide_Sample</title>
<path fill="none" stroke="black" d="M260.08,-251.26C259,-239.43 257.53,-223.45 256.28,-209.75"/>
<polygon fill="black" stroke="black" points="259.78,-209.6 255.38,-199.96 252.81,-210.24 259.78,-209.6"/>
<text xml:space="preserve" text-anchor="middle" x="309.75" y="-220.2" font-family="Helvetica,sans-Serif" font-size="14.00">LHSWorkspace</text>
</g>
<!-- Divide_Sample&#45;&gt;Divide -->
<g id="edge21" class="edge">
<title>Divide_Sample&#45;&gt;Divide</title>
<path fill="none" stroke="black" d="M249.99,-162.07C248.62,-151.26 248.67,-137.43 254.91,-127 259.96,-118.57 267.86,-111.99 276.35,-106.93"/>
<polygon fill="black" stroke="black" points="277.84,-110.1 285.09,-102.37 274.61,-103.89 277.84,-110.1"/>
<text xml:space="preserve" text-anchor="middle" x="306.29" y="-130.95" font-family="Helvetica,sans-Serif" font-size="14.00">LHSWorkspace</text>
</g>
<!-- Divide_Resolution -->
<g id="node20" class="node">
<title>Divide_Resolution</title>
<path fill="lightskyblue" stroke="black" d="M397.41,-198.25C397.41,-198.25 361.91,-198.25 361.91,-198.25 355.91,-198.25 349.91,-192.25 349.91,-186.25 349.91,-186.25 349.91,-174.25 349.91,-174.25 349.91,-168.25 355.91,-162.25 361.91,-162.25 361.91,-162.25 397.41,-162.25 397.41,-162.25 403.41,-162.25 409.41,-168.25 409.41,-174.25 409.41,-174.25 409.41,-186.25 409.41,-186.25 409.41,-192.25 403.41,-198.25 397.41,-198.25"/>
<text xml:space="preserve" text-anchor="middle" x="379.66" y="-175.57" font-family="Helvetica,sans-Serif" font-size="14.00">Divide</text>
</g>
<!-- Integration_Resolution&#45;&gt;Divide_Resolution -->
<g id="edge20" class="edge">
<title>Integration_Resolution&#45;&gt;Divide_Resolution</title>
<path fill="none" stroke="black" d="M393.2,-305.34C391.06,-299.75 388.96,-293.45 387.66,-287.5 381.98,-261.55 380.16,-231.28 379.65,-209.7"/>
<polygon fill="black" stroke="black" points="383.15,-209.85 379.51,-199.91 376.15,-209.96 383.15,-209.85"/>
<text xml:space="preserve" text-anchor="middle" x="440.16" y="-264.82" font-family="Helvetica,sans-Serif" font-size="14.00">RHSWorkspace</text>
</g>
<!-- ExtractFFTSpectrum_Resolution -->
<g id="node19" class="node">
<title>ExtractFFTSpectrum_Resolution</title>
<path fill="lightskyblue" stroke="black" d="M646.16,-287.5C646.16,-287.5 513.16,-287.5 513.16,-287.5 507.16,-287.5 501.16,-281.5 501.16,-275.5 501.16,-275.5 501.16,-263.5 501.16,-263.5 501.16,-257.5 507.16,-251.5 513.16,-251.5 513.16,-251.5 646.16,-251.5 646.16,-251.5 652.16,-251.5 658.16,-257.5 658.16,-263.5 658.16,-263.5 658.16,-275.5 658.16,-275.5 658.16,-281.5 652.16,-287.5 646.16,-287.5"/>
<text xml:space="preserve" text-anchor="middle" x="579.66" y="-264.82" font-family="Helvetica,sans-Serif" font-size="14.00">ExtractFFTSpectrum</text>
</g>
<!-- ConvertToPointData_Resolution&#45;&gt;ExtractFFTSpectrum_Resolution -->
<g id="edge18" class="edge">
<title>ConvertToPointData_Resolution&#45;&gt;ExtractFFTSpectrum_Resolution</title>
<path fill="none" stroke="black" d="M567.07,-359.47C569.38,-343.19 572.89,-318.32 575.63,-299.02"/>
<polygon fill="black" stroke="black" points="579.06,-299.73 577,-289.34 572.13,-298.75 579.06,-299.73"/>
</g>
<!-- ExtractFFTSpectrum_Resolution&#45;&gt;Divide_Resolution -->
<g id="edge19" class="edge">
<title>ExtractFFTSpectrum_Resolution&#45;&gt;Divide_Resolution</title>
<path fill="none" stroke="black" d="M539.67,-251.05C504.96,-235.91 454.94,-214.09 420.1,-198.89"/>
<polygon fill="black" stroke="black" points="421.76,-195.8 411.19,-195.01 418.96,-202.21 421.76,-195.8"/>
<text xml:space="preserve" text-anchor="middle" x="548.95" y="-220.2" font-family="Helvetica,sans-Serif" font-size="14.00">LHSWorkspace</text>
</g>
<!-- Divide_Resolution&#45;&gt;Divide -->
<g id="edge22" class="edge">
<title>Divide_Resolution&#45;&gt;Divide</title>
<path fill="none" stroke="black" d="M374.74,-162.21C371.11,-151.46 365.45,-137.65 357.66,-127 355.06,-123.45 352.04,-120.02 348.83,-116.79"/>
<polygon fill="black" stroke="black" points="351.44,-114.44 341.72,-110.23 346.7,-119.59 351.44,-114.44"/>
<text xml:space="preserve" text-anchor="middle" x="419.54" y="-130.95" font-family="Helvetica,sans-Serif" font-size="14.00">RHSWorkspace</text>
</g>
</g>
</svg>
