<?xml version="1.0" encoding="UTF-8" standalone="no"?>
<!DOCTYPE svg PUBLIC "-//W3C//DTD SVG 1.1//EN"
 "http://www.w3.org/Graphics/SVG/1.1/DTD/svg11.dtd">
<!-- Generated by graphviz version 11.0.0 (20240519.1550)
 -->
<!-- Title: TransformToIqt Pages: 1 -->
<svg width="729pt" height="661pt"
 viewBox="0.00 0.00 729.44 661.00" xmlns="http://www.w3.org/2000/svg" xmlns:xlink="http://www.w3.org/1999/xlink">
<g id="graph0" class="graph" transform="scale(1 1) rotate(0) translate(4 657)">
<title>TransformToIqt</title>
<polygon fill="white" stroke="none" points="-4,4 -4,-657 725.44,-657 725.44,4 -4,4"/>
<text text-anchor="middle" x="360.72" y="-635.7" font-family="Helvetica,sans-Serif" font-size="14.00">TransformToIqt Flowchart</text>
<!-- IsDryRun -->
<g id="node1" class="node">
<title>IsDryRun</title>
<polygon fill="limegreen" stroke="black" points="123.66,-555.75 49.01,-537.75 123.66,-519.75 198.31,-537.75 123.66,-555.75"/>
<text text-anchor="middle" x="123.66" y="-533.08" font-family="Helvetica,sans-Serif" font-size="14.00">DryRun?</text>
</g>
<!-- Rebin_Sample -->
<g id="node11" class="node">
<title>Rebin_Sample</title>
<path fill="lightskyblue" stroke="black" d="M153.16,-466.5C153.16,-466.5 122.16,-466.5 122.16,-466.5 116.16,-466.5 110.16,-460.5 110.16,-454.5 110.16,-454.5 110.16,-442.5 110.16,-442.5 110.16,-436.5 116.16,-430.5 122.16,-430.5 122.16,-430.5 153.16,-430.5 153.16,-430.5 159.16,-430.5 165.16,-436.5 165.16,-442.5 165.16,-442.5 165.16,-454.5 165.16,-454.5 165.16,-460.5 159.16,-466.5 153.16,-466.5"/>
<text text-anchor="middle" x="137.66" y="-443.82" font-family="Helvetica,sans-Serif" font-size="14.00">Rebin</text>
</g>
<!-- IsDryRun&#45;&gt;Rebin_Sample -->
<g id="edge7" class="edge">
<title>IsDryRun&#45;&gt;Rebin_Sample</title>
<path fill="none" stroke="black" d="M126.36,-519.93C128.27,-508.01 130.88,-491.74 133.12,-477.84"/>
<polygon fill="black" stroke="black" points="136.51,-478.79 134.64,-468.36 129.6,-477.68 136.51,-478.79"/>
<text text-anchor="middle" x="142.04" y="-488.45" font-family="Helvetica,sans-Serif" font-size="14.00">No</text>
</g>
<!-- CalculateBinningParameters -->
<g id="node2" class="node">
<title>CalculateBinningParameters</title>
<polygon fill="lightseagreen" stroke="black" points="437.41,-555.75 215.91,-555.75 215.91,-519.75 437.41,-519.75 437.41,-555.75"/>
<text text-anchor="middle" x="326.66" y="-533.08" font-family="Helvetica,sans-Serif" font-size="14.00">Calculate binning parameters</text>
</g>
<!-- ParameterWorkspace -->
<g id="node8" class="node">
<title>ParameterWorkspace</title>
<ellipse fill="khaki" stroke="black" cx="303.66" cy="-448.5" rx="114.34" ry="18"/>
<text text-anchor="middle" x="303.66" y="-443.82" font-family="Helvetica,sans-Serif" font-size="14.00">ParameterWorkspace</text>
</g>
<!-- CalculateBinningParameters&#45;&gt;ParameterWorkspace -->
<g id="edge5" class="edge">
<title>CalculateBinningParameters&#45;&gt;ParameterWorkspace</title>
<path fill="none" stroke="black" d="M319.6,-519.49C317.49,-513.9 315.3,-507.62 313.66,-501.75 311.52,-494.07 309.68,-485.63 308.19,-477.81"/>
<polygon fill="black" stroke="black" points="311.66,-477.33 306.46,-468.1 304.77,-478.56 311.66,-477.33"/>
</g>
<!-- CalculateBinningParameters&#45;&gt;Rebin_Sample -->
<g id="edge8" class="edge">
<title>CalculateBinningParameters&#45;&gt;Rebin_Sample</title>
<path fill="none" stroke="black" d="M323.92,-519.48C321.12,-507.77 315.56,-492.93 304.66,-484.5 260.61,-450.43 234.47,-480.83 180.66,-466.5 179.27,-466.13 177.85,-465.72 176.43,-465.3"/>
<polygon fill="black" stroke="black" points="177.59,-461.99 167,-462.1 175.35,-468.62 177.59,-461.99"/>
</g>
<!-- Rebin_Resolution -->
<g id="node12" class="node">
<title>Rebin_Resolution</title>
<path fill="lightskyblue" stroke="black" d="M573.16,-466.5C573.16,-466.5 542.16,-466.5 542.16,-466.5 536.16,-466.5 530.16,-460.5 530.16,-454.5 530.16,-454.5 530.16,-442.5 530.16,-442.5 530.16,-436.5 536.16,-430.5 542.16,-430.5 542.16,-430.5 573.16,-430.5 573.16,-430.5 579.16,-430.5 585.16,-436.5 585.16,-442.5 585.16,-442.5 585.16,-454.5 585.16,-454.5 585.16,-460.5 579.16,-466.5 573.16,-466.5"/>
<text text-anchor="middle" x="557.66" y="-443.82" font-family="Helvetica,sans-Serif" font-size="14.00">Rebin</text>
</g>
<!-- CalculateBinningParameters&#45;&gt;Rebin_Resolution -->
<g id="edge15" class="edge">
<title>CalculateBinningParameters&#45;&gt;Rebin_Resolution</title>
<path fill="none" stroke="black" d="M372.85,-519.3C415.7,-503.12 478.73,-479.31 518.99,-464.11"/>
<polygon fill="black" stroke="black" points="520.17,-467.4 528.29,-460.6 517.69,-460.86 520.17,-467.4"/>
</g>
<!-- SampleWorkspace -->
<g id="node3" class="node">
<title>SampleWorkspace</title>
<ellipse fill="khaki" stroke="black" cx="100.66" cy="-609.75" rx="100.66" ry="18"/>
<text text-anchor="middle" x="100.66" y="-605.08" font-family="Helvetica,sans-Serif" font-size="14.00">SampleWorkspace</text>
</g>
<!-- SampleWorkspace&#45;&gt;IsDryRun -->
<g id="edge6" class="edge">
<title>SampleWorkspace&#45;&gt;IsDryRun</title>
<path fill="none" stroke="black" d="M106.35,-591.45C108.9,-583.68 111.97,-574.33 114.82,-565.68"/>
<polygon fill="black" stroke="black" points="118.09,-566.93 117.89,-556.33 111.44,-564.74 118.09,-566.93"/>
</g>
<!-- SampleWorkspace&#45;&gt;CalculateBinningParameters -->
<g id="edge1" class="edge">
<title>SampleWorkspace&#45;&gt;CalculateBinningParameters</title>
<path fill="none" stroke="black" d="M149.42,-593.65C181.64,-583.67 224.3,-570.46 259.69,-559.49"/>
<polygon fill="black" stroke="black" points="260.46,-562.92 268.98,-556.62 258.39,-556.23 260.46,-562.92"/>
</g>
<!-- ResolutionWorkspace -->
<g id="node4" class="node">
<title>ResolutionWorkspace</title>
<ellipse fill="khaki" stroke="black" cx="570.66" cy="-537.75" rx="114.87" ry="18"/>
<text text-anchor="middle" x="570.66" y="-533.08" font-family="Helvetica,sans-Serif" font-size="14.00">ResolutionWorkspace</text>
</g>
<!-- ResolutionWorkspace&#45;&gt;Rebin_Resolution -->
<g id="edge14" class="edge">
<title>ResolutionWorkspace&#45;&gt;Rebin_Resolution</title>
<path fill="none" stroke="black" d="M568.09,-519.51C566.33,-507.68 563.95,-491.7 561.91,-478"/>
<polygon fill="black" stroke="black" points="565.38,-477.57 560.45,-468.2 558.46,-478.61 565.38,-477.57"/>
</g>
<!-- EnergyMin -->
<g id="node5" class="node">
<title>EnergyMin</title>
<ellipse fill="khaki" stroke="black" cx="658.66" cy="-609.75" rx="62.78" ry="18"/>
<text text-anchor="middle" x="658.66" y="-605.08" font-family="Helvetica,sans-Serif" font-size="14.00">EnergyMin</text>
</g>
<!-- EnergyMin&#45;&gt;CalculateBinningParameters -->
<g id="edge2" class="edge">
<title>EnergyMin&#45;&gt;CalculateBinningParameters</title>
<path fill="none" stroke="black" d="M611.85,-597.48C603.47,-595.52 594.82,-593.54 586.66,-591.75 534.07,-580.18 475.3,-568.13 426.95,-558.44"/>
<polygon fill="black" stroke="black" points="427.83,-555.05 417.34,-556.52 426.46,-561.91 427.83,-555.05"/>
</g>
<!-- EnergyMax -->
<g id="node6" class="node">
<title>EnergyMax</title>
<ellipse fill="khaki" stroke="black" cx="284.66" cy="-609.75" rx="65.41" ry="18"/>
<text text-anchor="middle" x="284.66" y="-605.08" font-family="Helvetica,sans-Serif" font-size="14.00">EnergyMax</text>
</g>
<!-- EnergyMax&#45;&gt;CalculateBinningParameters -->
<g id="edge3" class="edge">
<title>EnergyMax&#45;&gt;CalculateBinningParameters</title>
<path fill="none" stroke="black" d="M294.83,-591.8C299.51,-584.01 305.17,-574.57 310.42,-565.83"/>
<polygon fill="black" stroke="black" points="313.37,-567.7 315.52,-557.32 307.37,-564.1 313.37,-567.7"/>
</g>
<!-- BinReductionFactor -->
<g id="node7" class="node">
<title>BinReductionFactor</title>
<ellipse fill="khaki" stroke="black" cx="472.66" cy="-609.75" rx="104.87" ry="18"/>
<text text-anchor="middle" x="472.66" y="-605.08" font-family="Helvetica,sans-Serif" font-size="14.00">BinReductionFactor</text>
</g>
<!-- BinReductionFactor&#45;&gt;CalculateBinningParameters -->
<g id="edge4" class="edge">
<title>BinReductionFactor&#45;&gt;CalculateBinningParameters</title>
<path fill="none" stroke="black" d="M438.43,-592.34C418.95,-583 394.27,-571.17 373.07,-561"/>
<polygon fill="black" stroke="black" points="374.87,-557.98 364.34,-556.81 371.84,-564.29 374.87,-557.98"/>
</g>
<!-- OutputWorkspace -->
<g id="node9" class="node">
<title>OutputWorkspace</title>
<ellipse fill="khaki" stroke="black" cx="314.66" cy="-18" rx="98.56" ry="18"/>
<text text-anchor="middle" x="314.66" y="-13.32" font-family="Helvetica,sans-Serif" font-size="14.00">OutputWorkspace</text>
</g>
<!-- Divide -->
<g id="node10" class="node">
<title>Divide</title>
<path fill="lightskyblue" stroke="black" d="M332.41,-108C332.41,-108 296.91,-108 296.91,-108 290.91,-108 284.91,-102 284.91,-96 284.91,-96 284.91,-84 284.91,-84 284.91,-78 290.91,-72 296.91,-72 296.91,-72 332.41,-72 332.41,-72 338.41,-72 344.41,-78 344.41,-84 344.41,-84 344.41,-96 344.41,-96 344.41,-102 338.41,-108 332.41,-108"/>
<text text-anchor="middle" x="314.66" y="-85.33" font-family="Helvetica,sans-Serif" font-size="14.00">Divide</text>
</g>
<!-- Divide&#45;&gt;OutputWorkspace -->
<g id="edge23" class="edge">
<title>Divide&#45;&gt;OutputWorkspace</title>
<path fill="none" stroke="black" d="M314.66,-71.7C314.66,-64.41 314.66,-55.73 314.66,-47.54"/>
<polygon fill="black" stroke="black" points="318.16,-47.62 314.66,-37.62 311.16,-47.62 318.16,-47.62"/>
</g>
<!-- Integration_Sample -->
<g id="node13" class="node">
<title>Integration_Sample</title>
<path fill="lightskyblue" stroke="black" d="M137.91,-340.5C137.91,-340.5 69.41,-340.5 69.41,-340.5 63.41,-340.5 57.41,-334.5 57.41,-328.5 57.41,-328.5 57.41,-316.5 57.41,-316.5 57.41,-310.5 63.41,-304.5 69.41,-304.5 69.41,-304.5 137.91,-304.5 137.91,-304.5 143.91,-304.5 149.91,-310.5 149.91,-316.5 149.91,-316.5 149.91,-328.5 149.91,-328.5 149.91,-334.5 143.91,-340.5 137.91,-340.5"/>
<text text-anchor="middle" x="103.66" y="-317.82" font-family="Helvetica,sans-Serif" font-size="14.00">Integration</text>
</g>
<!-- Rebin_Sample&#45;&gt;Integration_Sample -->
<g id="edge9" class="edge">
<title>Rebin_Sample&#45;&gt;Integration_Sample</title>
<path fill="none" stroke="black" d="M132.93,-430.26C127.38,-410.01 118.09,-376.14 111.47,-351.97"/>
<polygon fill="black" stroke="black" points="114.88,-351.17 108.86,-342.45 108.13,-353.02 114.88,-351.17"/>
</g>
<!-- ConvertToPointData_Sample -->
<g id="node14" class="node">
<title>ConvertToPointData_Sample</title>
<path fill="lightskyblue" stroke="black" d="M302.54,-394.5C302.54,-394.5 174.79,-394.5 174.79,-394.5 168.79,-394.5 162.79,-388.5 162.79,-382.5 162.79,-382.5 162.79,-370.5 162.79,-370.5 162.79,-364.5 168.79,-358.5 174.79,-358.5 174.79,-358.5 302.54,-358.5 302.54,-358.5 308.54,-358.5 314.54,-364.5 314.54,-370.5 314.54,-370.5 314.54,-382.5 314.54,-382.5 314.54,-388.5 308.54,-394.5 302.54,-394.5"/>
<text text-anchor="middle" x="238.66" y="-371.82" font-family="Helvetica,sans-Serif" font-size="14.00">ConvertToPointData</text>
</g>
<!-- Rebin_Sample&#45;&gt;ConvertToPointData_Sample -->
<g id="edge10" class="edge">
<title>Rebin_Sample&#45;&gt;ConvertToPointData_Sample</title>
<path fill="none" stroke="black" d="M162.89,-430.02C175.52,-421.26 190.98,-410.54 204.65,-401.08"/>
<polygon fill="black" stroke="black" points="206.29,-404.2 212.51,-395.62 202.3,-398.44 206.29,-404.2"/>
</g>
<!-- Integration_Resolution -->
<g id="node17" class="node">
<title>Integration_Resolution</title>
<path fill="lightskyblue" stroke="black" d="M432.91,-340.5C432.91,-340.5 364.41,-340.5 364.41,-340.5 358.41,-340.5 352.41,-334.5 352.41,-328.5 352.41,-328.5 352.41,-316.5 352.41,-316.5 352.41,-310.5 358.41,-304.5 364.41,-304.5 364.41,-304.5 432.91,-304.5 432.91,-304.5 438.91,-304.5 444.91,-310.5 444.91,-316.5 444.91,-316.5 444.91,-328.5 444.91,-328.5 444.91,-334.5 438.91,-340.5 432.91,-340.5"/>
<text text-anchor="middle" x="398.66" y="-317.82" font-family="Helvetica,sans-Serif" font-size="14.00">Integration</text>
</g>
<!-- Rebin_Resolution&#45;&gt;Integration_Resolution -->
<g id="edge16" class="edge">
<title>Rebin_Resolution&#45;&gt;Integration_Resolution</title>
<path fill="none" stroke="black" d="M529.94,-430.55C514.21,-420.59 494.4,-407.45 477.66,-394.5 459.25,-380.25 439.79,-362.8 424.79,-348.76"/>
<polygon fill="black" stroke="black" points="427.29,-346.3 417.62,-341.97 422.48,-351.39 427.29,-346.3"/>
</g>
<!-- ConvertToPointData_Resolution -->
<g id="node18" class="node">
<title>ConvertToPointData_Resolution</title>
<path fill="lightskyblue" stroke="black" d="M626.54,-394.5C626.54,-394.5 498.79,-394.5 498.79,-394.5 492.79,-394.5 486.79,-388.5 486.79,-382.5 486.79,-382.5 486.79,-370.5 486.79,-370.5 486.79,-364.5 492.79,-358.5 498.79,-358.5 498.79,-358.5 626.54,-358.5 626.54,-358.5 632.54,-358.5 638.54,-364.5 638.54,-370.5 638.54,-370.5 638.54,-382.5 638.54,-382.5 638.54,-388.5 632.54,-394.5 626.54,-394.5"/>
<text text-anchor="middle" x="562.66" y="-371.82" font-family="Helvetica,sans-Serif" font-size="14.00">ConvertToPointData</text>
</g>
<!-- Rebin_Resolution&#45;&gt;ConvertToPointData_Resolution -->
<g id="edge17" class="edge">
<title>Rebin_Resolution&#45;&gt;ConvertToPointData_Resolution</title>
<path fill="none" stroke="black" d="M558.9,-430.2C559.42,-422.91 560.04,-414.23 560.62,-406.04"/>
<polygon fill="black" stroke="black" points="564.11,-406.34 561.33,-396.11 557.13,-405.84 564.11,-406.34"/>
</g>
<!-- Divide_Sample -->
<g id="node16" class="node">
<title>Divide_Sample</title>
<path fill="lightskyblue" stroke="black" d="M269.41,-197.25C269.41,-197.25 233.91,-197.25 233.91,-197.25 227.91,-197.25 221.91,-191.25 221.91,-185.25 221.91,-185.25 221.91,-173.25 221.91,-173.25 221.91,-167.25 227.91,-161.25 233.91,-161.25 233.91,-161.25 269.41,-161.25 269.41,-161.25 275.41,-161.25 281.41,-167.25 281.41,-173.25 281.41,-173.25 281.41,-185.25 281.41,-185.25 281.41,-191.25 275.41,-197.25 269.41,-197.25"/>
<text text-anchor="middle" x="251.66" y="-174.57" font-family="Helvetica,sans-Serif" font-size="14.00">Divide</text>
</g>
<!-- Integration_Sample&#45;&gt;Divide_Sample -->
<g id="edge13" class="edge">
<title>Integration_Sample&#45;&gt;Divide_Sample</title>
<path fill="none" stroke="black" d="M80.23,-304.1C75.14,-299.04 70.44,-293.08 67.66,-286.5 61.44,-271.76 58.59,-263.68 67.66,-250.5 99.55,-204.19 166.38,-188.39 210.11,-183.01"/>
<polygon fill="black" stroke="black" points="210.44,-186.5 220.01,-181.94 209.69,-179.54 210.44,-186.5"/>
<text text-anchor="middle" x="120.16" y="-263.82" font-family="Helvetica,sans-Serif" font-size="14.00">RHSWorkspace</text>
</g>
<!-- ExtractFFTSpectrum_Sample -->
<g id="node15" class="node">
<title>ExtractFFTSpectrum_Sample</title>
<path fill="lightskyblue" stroke="black" d="M326.16,-286.5C326.16,-286.5 193.16,-286.5 193.16,-286.5 187.16,-286.5 181.16,-280.5 181.16,-274.5 181.16,-274.5 181.16,-262.5 181.16,-262.5 181.16,-256.5 187.16,-250.5 193.16,-250.5 193.16,-250.5 326.16,-250.5 326.16,-250.5 332.16,-250.5 338.16,-256.5 338.16,-262.5 338.16,-262.5 338.16,-274.5 338.16,-274.5 338.16,-280.5 332.16,-286.5 326.16,-286.5"/>
<text text-anchor="middle" x="259.66" y="-263.82" font-family="Helvetica,sans-Serif" font-size="14.00">ExtractFFTSpectrum</text>
</g>
<!-- ConvertToPointData_Sample&#45;&gt;ExtractFFTSpectrum_Sample -->
<g id="edge11" class="edge">
<title>ConvertToPointData_Sample&#45;&gt;ExtractFFTSpectrum_Sample</title>
<path fill="none" stroke="black" d="M242.04,-358.47C245.26,-342.19 250.19,-317.32 254.01,-298.02"/>
<polygon fill="black" stroke="black" points="257.42,-298.81 255.93,-288.33 250.56,-297.45 257.42,-298.81"/>
</g>
<!-- ExtractFFTSpectrum_Sample&#45;&gt;Divide_Sample -->
<g id="edge12" class="edge">
<title>ExtractFFTSpectrum_Sample&#45;&gt;Divide_Sample</title>
<path fill="none" stroke="black" d="M258.08,-250.26C257,-238.43 255.53,-222.45 254.28,-208.75"/>
<polygon fill="black" stroke="black" points="257.78,-208.6 253.38,-198.96 250.81,-209.24 257.78,-208.6"/>
<text text-anchor="middle" x="307.04" y="-219.2" font-family="Helvetica,sans-Serif" font-size="14.00">LHSWorkspace</text>
</g>
<!-- Divide_Sample&#45;&gt;Divide -->
<g id="edge21" class="edge">
<title>Divide_Sample&#45;&gt;Divide</title>
<path fill="none" stroke="black" d="M247.99,-161.07C246.62,-150.26 246.67,-136.43 252.91,-126 257.96,-117.57 265.86,-110.99 274.35,-105.93"/>
<polygon fill="black" stroke="black" points="275.84,-109.1 283.09,-101.37 272.61,-102.89 275.84,-109.1"/>
<text text-anchor="middle" x="304.04" y="-129.95" font-family="Helvetica,sans-Serif" font-size="14.00">LHSWorkspace</text>
</g>
<!-- Divide_Resolution -->
<g id="node20" class="node">
<title>Divide_Resolution</title>
<path fill="lightskyblue" stroke="black" d="M395.41,-197.25C395.41,-197.25 359.91,-197.25 359.91,-197.25 353.91,-197.25 347.91,-191.25 347.91,-185.25 347.91,-185.25 347.91,-173.25 347.91,-173.25 347.91,-167.25 353.91,-161.25 359.91,-161.25 359.91,-161.25 395.41,-161.25 395.41,-161.25 401.41,-161.25 407.41,-167.25 407.41,-173.25 407.41,-173.25 407.41,-185.25 407.41,-185.25 407.41,-191.25 401.41,-197.25 395.41,-197.25"/>
<text text-anchor="middle" x="377.66" y="-174.57" font-family="Helvetica,sans-Serif" font-size="14.00">Divide</text>
</g>
<!-- Integration_Resolution&#45;&gt;Divide_Resolution -->
<g id="edge20" class="edge">
<title>Integration_Resolution&#45;&gt;Divide_Resolution</title>
<path fill="none" stroke="black" d="M391.2,-304.34C389.06,-298.75 386.96,-292.45 385.66,-286.5 379.98,-260.55 378.16,-230.28 377.65,-208.7"/>
<polygon fill="black" stroke="black" points="381.15,-208.85 377.51,-198.91 374.15,-208.96 381.15,-208.85"/>
<text text-anchor="middle" x="438.16" y="-263.82" font-family="Helvetica,sans-Serif" font-size="14.00">RHSWorkspace</text>
</g>
<!-- ExtractFFTSpectrum_Resolution -->
<g id="node19" class="node">
<title>ExtractFFTSpectrum_Resolution</title>
<path fill="lightskyblue" stroke="black" d="M644.16,-286.5C644.16,-286.5 511.16,-286.5 511.16,-286.5 505.16,-286.5 499.16,-280.5 499.16,-274.5 499.16,-274.5 499.16,-262.5 499.16,-262.5 499.16,-256.5 505.16,-250.5 511.16,-250.5 511.16,-250.5 644.16,-250.5 644.16,-250.5 650.16,-250.5 656.16,-256.5 656.16,-262.5 656.16,-262.5 656.16,-274.5 656.16,-274.5 656.16,-280.5 650.16,-286.5 644.16,-286.5"/>
<text text-anchor="middle" x="577.66" y="-263.82" font-family="Helvetica,sans-Serif" font-size="14.00">ExtractFFTSpectrum</text>
</g>
<!-- ConvertToPointData_Resolution&#45;&gt;ExtractFFTSpectrum_Resolution -->
<g id="edge18" class="edge">
<title>ConvertToPointData_Resolution&#45;&gt;ExtractFFTSpectrum_Resolution</title>
<path fill="none" stroke="black" d="M565.07,-358.47C567.38,-342.19 570.89,-317.32 573.63,-298.02"/>
<polygon fill="black" stroke="black" points="577.06,-298.73 575,-288.34 570.13,-297.75 577.06,-298.73"/>
</g>
<!-- ExtractFFTSpectrum_Resolution&#45;&gt;Divide_Resolution -->
<g id="edge19" class="edge">
<title>ExtractFFTSpectrum_Resolution&#45;&gt;Divide_Resolution</title>
<path fill="none" stroke="black" d="M537.67,-250.05C502.96,-234.91 452.94,-213.09 418.1,-197.89"/>
<polygon fill="black" stroke="black" points="419.76,-194.8 409.19,-194.01 416.96,-201.21 419.76,-194.8"/>
<text text-anchor="middle" x="546.04" y="-219.2" font-family="Helvetica,sans-Serif" font-size="14.00">LHSWorkspace</text>
</g>
<!-- Divide_Resolution&#45;&gt;Divide -->
<g id="edge22" class="edge">
<title>Divide_Resolution&#45;&gt;Divide</title>
<path fill="none" stroke="black" d="M372.74,-161.21C369.11,-150.46 363.45,-136.65 355.66,-126 353.06,-122.45 350.04,-119.02 346.83,-115.79"/>
<polygon fill="black" stroke="black" points="349.44,-113.44 339.72,-109.23 344.7,-118.59 349.44,-113.44"/>
<text text-anchor="middle" x="417.16" y="-129.95" font-family="Helvetica,sans-Serif" font-size="14.00">RHSWorkspace</text>
</g>
</g>
</svg>
