<?xml version="1.0" encoding="UTF-8" standalone="no"?>
<!DOCTYPE svg PUBLIC "-//W3C//DTD SVG 1.1//EN"
 "http://www.w3.org/Graphics/SVG/1.1/DTD/svg11.dtd">
<!-- Generated by graphviz version 11.0.0 (20240519.1550)
 -->
<!-- Title: VesuvioDiffractionReduction Pages: 1 -->
<svg width="772pt" height="935pt"
 viewBox="0.00 0.00 772.30 935.25" xmlns="http://www.w3.org/2000/svg" xmlns:xlink="http://www.w3.org/1999/xlink">
<g id="graph0" class="graph" transform="scale(1 1) rotate(0) translate(4 931.25)">
<title>VesuvioDiffractionReduction</title>
<polygon fill="white" stroke="none" points="-4,4 -4,-931.25 768.3,-931.25 768.3,4 -4,4"/>
<text text-anchor="middle" x="382.15" y="-909.95" font-family="Helvetica,sans-Serif" font-size="14.00">VesuvioDiffractionReduction Flowchart</text>
<!-- ScaleMonitor -->
<g id="node1" class="node">
<title>ScaleMonitor</title>
<polygon fill="lightseagreen" stroke="black" points="671.3,-594.75 326.8,-594.75 326.8,-558.75 671.3,-558.75 671.3,-594.75"/>
<text text-anchor="middle" x="499.05" y="-572.08" font-family="Helvetica,sans-Serif" font-size="14.00">Scale data and detectors by monitor intensities</text>
</g>
<!-- DataWorkspaces -->
<g id="node4" class="node">
<title>DataWorkspaces</title>
<ellipse fill="khaki" stroke="black" cx="346.05" cy="-503.75" rx="92.24" ry="18"/>
<text text-anchor="middle" x="346.05" y="-499.07" font-family="Helvetica,sans-Serif" font-size="14.00">DataWorkspaces</text>
</g>
<!-- ScaleMonitor&#45;&gt;DataWorkspaces -->
<g id="edge9" class="edge">
<title>ScaleMonitor&#45;&gt;DataWorkspaces</title>
<path fill="none" stroke="black" d="M461.62,-558.38C440.31,-548.49 413.48,-536.04 391.03,-525.62"/>
<polygon fill="black" stroke="black" points="392.65,-522.52 382.1,-521.48 389.7,-528.87 392.65,-522.52"/>
</g>
<!-- InputFiles -->
<g id="node2" class="node">
<title>InputFiles</title>
<ellipse fill="khaki" stroke="black" cx="58.05" cy="-884" rx="58.05" ry="18"/>
<text text-anchor="middle" x="58.05" y="-879.33" font-family="Helvetica,sans-Serif" font-size="14.00">InputFiles</text>
</g>
<!-- LoadFiles -->
<g id="node12" class="node">
<title>LoadFiles</title>
<path fill="lightskyblue" stroke="black" d="M342.55,-830C342.55,-830 287.55,-830 287.55,-830 281.55,-830 275.55,-824 275.55,-818 275.55,-818 275.55,-806 275.55,-806 275.55,-800 281.55,-794 287.55,-794 287.55,-794 342.55,-794 342.55,-794 348.55,-794 354.55,-800 354.55,-806 354.55,-806 354.55,-818 354.55,-818 354.55,-824 348.55,-830 342.55,-830"/>
<text text-anchor="middle" x="315.05" y="-807.33" font-family="Helvetica,sans-Serif" font-size="14.00">LoadFiles</text>
</g>
<!-- InputFiles&#45;&gt;LoadFiles -->
<g id="edge1" class="edge">
<title>InputFiles&#45;&gt;LoadFiles</title>
<path fill="none" stroke="black" d="M100.77,-871.36C145.7,-859.13 216.37,-839.88 264.15,-826.86"/>
<polygon fill="black" stroke="black" points="264.99,-830.26 273.72,-824.26 263.15,-823.51 264.99,-830.26"/>
</g>
<!-- InstrumentParFile -->
<g id="node3" class="node">
<title>InstrumentParFile</title>
<ellipse fill="khaki" stroke="black" cx="231.05" cy="-884" rx="96.45" ry="18"/>
<text text-anchor="middle" x="231.05" y="-879.33" font-family="Helvetica,sans-Serif" font-size="14.00">InstrumentParFile</text>
</g>
<!-- InstrumentParFile&#45;&gt;LoadFiles -->
<g id="edge4" class="edge">
<title>InstrumentParFile&#45;&gt;LoadFiles</title>
<path fill="none" stroke="black" d="M251.38,-866.05C261.65,-857.5 274.3,-846.96 285.61,-837.54"/>
<polygon fill="black" stroke="black" points="287.71,-840.33 293.15,-831.24 283.23,-834.96 287.71,-840.33"/>
</g>
<!-- ConvertUnits -->
<g id="node15" class="node">
<title>ConvertUnits</title>
<path fill="lightskyblue" stroke="black" d="M422.42,-432.5C422.42,-432.5 339.67,-432.5 339.67,-432.5 333.67,-432.5 327.67,-426.5 327.67,-420.5 327.67,-420.5 327.67,-408.5 327.67,-408.5 327.67,-402.5 333.67,-396.5 339.67,-396.5 339.67,-396.5 422.42,-396.5 422.42,-396.5 428.42,-396.5 434.42,-402.5 434.42,-408.5 434.42,-408.5 434.42,-420.5 434.42,-420.5 434.42,-426.5 428.42,-432.5 422.42,-432.5"/>
<text text-anchor="middle" x="381.05" y="-409.82" font-family="Helvetica,sans-Serif" font-size="14.00">ConvertUnits</text>
</g>
<!-- DataWorkspaces&#45;&gt;ConvertUnits -->
<g id="edge10" class="edge">
<title>DataWorkspaces&#45;&gt;ConvertUnits</title>
<path fill="none" stroke="black" d="M343.28,-485.63C342.32,-475.1 342.44,-461.55 347.05,-450.5 348.37,-447.32 350.14,-444.26 352.17,-441.38"/>
<polygon fill="black" stroke="black" points="354.65,-443.86 358.37,-433.94 349.28,-439.38 354.65,-443.86"/>
<text text-anchor="middle" x="416.05" y="-454.45" font-family="Helvetica,sans-Serif" font-size="14.00">ConvertTo dSpacing</text>
</g>
<!-- MonitorWorkspaces -->
<g id="node5" class="node">
<title>MonitorWorkspaces</title>
<ellipse fill="khaki" stroke="black" cx="449.05" cy="-739" rx="106.45" ry="18"/>
<text text-anchor="middle" x="449.05" y="-734.33" font-family="Helvetica,sans-Serif" font-size="14.00">MonitorWorkspaces</text>
</g>
<!-- MonitorWorkspace -->
<g id="node6" class="node">
<title>MonitorWorkspace</title>
<ellipse fill="khaki" stroke="black" cx="490.05" cy="-649.75" rx="101.19" ry="18"/>
<text text-anchor="middle" x="490.05" y="-645.08" font-family="Helvetica,sans-Serif" font-size="14.00">MonitorWorkspace</text>
</g>
<!-- MonitorWorkspaces&#45;&gt;MonitorWorkspace -->
<g id="edge7" class="edge">
<title>MonitorWorkspaces&#45;&gt;MonitorWorkspace</title>
<path fill="none" stroke="black" d="M457.15,-720.76C462.88,-708.57 470.67,-691.98 477.24,-678.01"/>
<polygon fill="black" stroke="black" points="480.23,-679.86 481.32,-669.32 473.9,-676.88 480.23,-679.86"/>
<text text-anchor="middle" x="619.17" y="-689.7" font-family="Helvetica,sans-Serif" font-size="14.00">Select next monitor workspace to process</text>
</g>
<!-- MonitorWorkspace&#45;&gt;ScaleMonitor -->
<g id="edge8" class="edge">
<title>MonitorWorkspace&#45;&gt;ScaleMonitor</title>
<path fill="none" stroke="black" d="M492.23,-631.56C493.2,-623.89 494.37,-614.64 495.47,-605.99"/>
<polygon fill="black" stroke="black" points="498.91,-606.64 496.7,-596.28 491.97,-605.76 498.91,-606.64"/>
</g>
<!-- SumFiles -->
<g id="node7" class="node">
<title>SumFiles</title>
<ellipse fill="khaki" stroke="black" cx="400.05" cy="-884" rx="54.36" ry="18"/>
<text text-anchor="middle" x="400.05" y="-879.33" font-family="Helvetica,sans-Serif" font-size="14.00">SumFiles</text>
</g>
<!-- SumFiles&#45;&gt;LoadFiles -->
<g id="edge3" class="edge">
<title>SumFiles&#45;&gt;LoadFiles</title>
<path fill="none" stroke="black" d="M380.33,-866.76C369.78,-858.07 356.57,-847.19 344.8,-837.5"/>
<polygon fill="black" stroke="black" points="347.25,-834.99 337.31,-831.33 342.8,-840.39 347.25,-834.99"/>
</g>
<!-- SpectraRange -->
<g id="node8" class="node">
<title>SpectraRange</title>
<ellipse fill="khaki" stroke="black" cx="552.05" cy="-884" rx="79.62" ry="18"/>
<text text-anchor="middle" x="552.05" y="-879.33" font-family="Helvetica,sans-Serif" font-size="14.00">SpectraRange</text>
</g>
<!-- SpectraRange&#45;&gt;LoadFiles -->
<g id="edge2" class="edge">
<title>SpectraRange&#45;&gt;LoadFiles</title>
<path fill="none" stroke="black" d="M504.94,-869.09C464.75,-857.22 407.1,-840.19 365.88,-828.01"/>
<polygon fill="black" stroke="black" points="367.01,-824.7 356.43,-825.22 365.03,-831.41 367.01,-824.7"/>
</g>
<!-- RebinParam -->
<g id="node9" class="node">
<title>RebinParam</title>
<ellipse fill="khaki" stroke="black" cx="241.05" cy="-414.5" rx="69.1" ry="18"/>
<text text-anchor="middle" x="241.05" y="-409.82" font-family="Helvetica,sans-Serif" font-size="14.00">RebinParam</text>
</g>
<!-- Rebin -->
<g id="node13" class="node">
<title>Rebin</title>
<path fill="lightskyblue" stroke="black" d="M396.55,-343.25C396.55,-343.25 365.55,-343.25 365.55,-343.25 359.55,-343.25 353.55,-337.25 353.55,-331.25 353.55,-331.25 353.55,-319.25 353.55,-319.25 353.55,-313.25 359.55,-307.25 365.55,-307.25 365.55,-307.25 396.55,-307.25 396.55,-307.25 402.55,-307.25 408.55,-313.25 408.55,-319.25 408.55,-319.25 408.55,-331.25 408.55,-331.25 408.55,-337.25 402.55,-343.25 396.55,-343.25"/>
<text text-anchor="middle" x="381.05" y="-320.57" font-family="Helvetica,sans-Serif" font-size="14.00">Rebin</text>
</g>
<!-- RebinParam&#45;&gt;Rebin -->
<g id="edge12" class="edge">
<title>RebinParam&#45;&gt;Rebin</title>
<path fill="none" stroke="black" d="M266.73,-397.5C288.23,-384.09 319.22,-364.78 343.52,-349.64"/>
<polygon fill="black" stroke="black" points="345.21,-352.71 351.85,-344.45 341.51,-346.77 345.21,-352.71"/>
</g>
<!-- GroupingPolicy -->
<g id="node10" class="node">
<title>GroupingPolicy</title>
<ellipse fill="khaki" stroke="black" cx="252.05" cy="-325.25" rx="83.83" ry="18"/>
<text text-anchor="middle" x="252.05" y="-320.57" font-family="Helvetica,sans-Serif" font-size="14.00">GroupingPolicy</text>
</g>
<!-- GroupSpectra -->
<g id="node16" class="node">
<title>GroupSpectra</title>
<path fill="lightskyblue" stroke="black" d="M424.67,-270.25C424.67,-270.25 337.42,-270.25 337.42,-270.25 331.42,-270.25 325.42,-264.25 325.42,-258.25 325.42,-258.25 325.42,-246.25 325.42,-246.25 325.42,-240.25 331.42,-234.25 337.42,-234.25 337.42,-234.25 424.67,-234.25 424.67,-234.25 430.67,-234.25 436.67,-240.25 436.67,-246.25 436.67,-246.25 436.67,-258.25 436.67,-258.25 436.67,-264.25 430.67,-270.25 424.67,-270.25"/>
<text text-anchor="middle" x="381.05" y="-247.57" font-family="Helvetica,sans-Serif" font-size="14.00">GroupSpectra</text>
</g>
<!-- GroupingPolicy&#45;&gt;GroupSpectra -->
<g id="edge14" class="edge">
<title>GroupingPolicy&#45;&gt;GroupSpectra</title>
<path fill="none" stroke="black" d="M281.64,-307.96C298.79,-298.52 320.66,-286.49 339.51,-276.11"/>
<polygon fill="black" stroke="black" points="340.94,-279.32 348.01,-271.43 337.56,-273.19 340.94,-279.32"/>
</g>
<!-- OutputWorkspace -->
<g id="node11" class="node">
<title>OutputWorkspace</title>
<ellipse fill="khaki" stroke="black" cx="457.05" cy="-18" rx="98.56" ry="18"/>
<text text-anchor="middle" x="457.05" y="-13.32" font-family="Helvetica,sans-Serif" font-size="14.00">OutputWorkspace</text>
</g>
<!-- LoadFiles&#45;&gt;DataWorkspaces -->
<g id="edge5" class="edge">
<title>LoadFiles&#45;&gt;DataWorkspaces</title>
<path fill="none" stroke="black" d="M308.91,-793.74C304.4,-779.51 299.05,-758.7 299.05,-740 299.05,-740 299.05,-740 299.05,-575.75 299.05,-558.74 308.54,-542.68 319,-530.15"/>
<polygon fill="black" stroke="black" points="321.53,-532.57 325.64,-522.8 316.34,-527.87 321.53,-532.57"/>
</g>
<!-- LoadFiles&#45;&gt;MonitorWorkspaces -->
<g id="edge6" class="edge">
<title>LoadFiles&#45;&gt;MonitorWorkspaces</title>
<path fill="none" stroke="black" d="M347.83,-793.63C365.95,-784.03 388.65,-772 407.95,-761.77"/>
<polygon fill="black" stroke="black" points="409.45,-764.94 416.65,-757.17 406.17,-758.76 409.45,-764.94"/>
</g>
<!-- Rebin&#45;&gt;GroupSpectra -->
<g id="edge13" class="edge">
<title>Rebin&#45;&gt;GroupSpectra</title>
<path fill="none" stroke="black" d="M381.05,-307.06C381.05,-299.48 381.05,-290.35 381.05,-281.79"/>
<polygon fill="black" stroke="black" points="384.55,-281.79 381.05,-271.79 377.55,-281.79 384.55,-281.79"/>
</g>
<!-- GroupWorkspaces -->
<g id="node14" class="node">
<title>GroupWorkspaces</title>
<path fill="lightskyblue" stroke="black" d="M515.67,-108C515.67,-108 398.42,-108 398.42,-108 392.42,-108 386.42,-102 386.42,-96 386.42,-96 386.42,-84 386.42,-84 386.42,-78 392.42,-72 398.42,-72 398.42,-72 515.67,-72 515.67,-72 521.67,-72 527.67,-78 527.67,-84 527.67,-84 527.67,-96 527.67,-96 527.67,-102 521.67,-108 515.67,-108"/>
<text text-anchor="middle" x="457.05" y="-85.33" font-family="Helvetica,sans-Serif" font-size="14.00">GroupWorkspaces</text>
</g>
<!-- GroupWorkspaces&#45;&gt;OutputWorkspace -->
<g id="edge18" class="edge">
<title>GroupWorkspaces&#45;&gt;OutputWorkspace</title>
<path fill="none" stroke="black" d="M457.05,-71.7C457.05,-64.41 457.05,-55.73 457.05,-47.54"/>
<polygon fill="black" stroke="black" points="460.55,-47.62 457.05,-37.62 453.55,-47.62 460.55,-47.62"/>
</g>
<!-- ConvertUnits&#45;&gt;Rebin -->
<g id="edge11" class="edge">
<title>ConvertUnits&#45;&gt;Rebin</title>
<path fill="none" stroke="black" d="M381.05,-396.26C381.05,-384.43 381.05,-368.45 381.05,-354.75"/>
<polygon fill="black" stroke="black" points="384.55,-354.97 381.05,-344.97 377.55,-354.97 384.55,-354.97"/>
</g>
<!-- allProcessed -->
<g id="node17" class="node">
<title>allProcessed</title>
<polygon fill="limegreen" stroke="black" points="457.05,-197.25 258.89,-179.25 457.05,-161.25 655.21,-179.25 457.05,-197.25"/>
<text text-anchor="middle" x="457.05" y="-174.57" font-family="Helvetica,sans-Serif" font-size="14.00">Processed all workspaces?</text>
</g>
<!-- GroupSpectra&#45;&gt;allProcessed -->
<g id="edge15" class="edge">
<title>GroupSpectra&#45;&gt;allProcessed</title>
<path fill="none" stroke="black" d="M399.44,-234.06C409.22,-224.93 421.38,-213.57 432,-203.65"/>
<polygon fill="black" stroke="black" points="434.09,-206.48 439.01,-197.1 429.32,-201.37 434.09,-206.48"/>
</g>
<!-- allProcessed&#45;&gt;ScaleMonitor -->
<g id="edge16" class="edge">
<title>allProcessed&#45;&gt;ScaleMonitor</title>
<path fill="none" stroke="black" d="M473.17,-196.18C485.01,-209.64 499.05,-230.05 499.05,-251.25 499.05,-504.75 499.05,-504.75 499.05,-504.75 499.05,-518.67 499.05,-534.12 499.05,-547.05"/>
<polygon fill="black" stroke="black" points="495.55,-547.02 499.05,-557.02 502.55,-547.02 495.55,-547.02"/>
<text text-anchor="middle" x="627.67" y="-365.2" font-family="Helvetica,sans-Serif" font-size="14.00">No: repeat process with next monitor</text>
</g>
<!-- allProcessed&#45;&gt;GroupWorkspaces -->
<g id="edge17" class="edge">
<title>allProcessed&#45;&gt;GroupWorkspaces</title>
<path fill="none" stroke="black" d="M457.05,-161.01C457.05,-149.18 457.05,-133.2 457.05,-119.5"/>
<polygon fill="black" stroke="black" points="460.55,-119.72 457.05,-109.72 453.55,-119.72 460.55,-119.72"/>
<text text-anchor="middle" x="584.55" y="-129.95" font-family="Helvetica,sans-Serif" font-size="14.00">Yes: Group all processed workspaces</text>
</g>
</g>
</svg>
