<?xml version="1.0" encoding="UTF-8" standalone="no"?>
<!DOCTYPE svg PUBLIC "-//W3C//DTD SVG 1.1//EN"
 "http://www.w3.org/Graphics/SVG/1.1/DTD/svg11.dtd">
<!-- Generated by graphviz version 7.1.0 (20230122.1345)
 -->
<!-- Title: VesuvioDiffractionReduction Pages: 1 -->
<svg width="752pt" height="926pt"
 viewBox="0.00 0.00 751.95 926.00" xmlns="http://www.w3.org/2000/svg" xmlns:xlink="http://www.w3.org/1999/xlink">
<g id="graph0" class="graph" transform="scale(1 1) rotate(0) translate(4 922)">
<title>VesuvioDiffractionReduction</title>
<polygon fill="white" stroke="none" points="-4,4 -4,-922 747.95,-922 747.95,4 -4,4"/>
<text text-anchor="middle" x="371.97" y="-902.8" font-family="Helvetica,sans-Serif" font-size="14.00">VesuvioDiffractionReduction Flowchart</text>
<!-- ScaleMonitor -->
<g id="node1" class="node">
<title>ScaleMonitor</title>
<polygon fill="lightseagreen" stroke="black" points="656.45,-589 311.45,-589 311.45,-553 656.45,-553 656.45,-589"/>
<text text-anchor="middle" x="483.95" y="-567.3" font-family="Helvetica,sans-Serif" font-size="14.00">Scale data and detectors by monitor intensities</text>
</g>
<!-- DataWorkspaces -->
<g id="node4" class="node">
<title>DataWorkspaces</title>
<ellipse fill="khaki" stroke="black" cx="329.95" cy="-498" rx="85.59" ry="18"/>
<text text-anchor="middle" x="329.95" y="-494.3" font-family="Helvetica,sans-Serif" font-size="14.00">DataWorkspaces</text>
</g>
<!-- ScaleMonitor&#45;&gt;DataWorkspaces -->
<g id="edge9" class="edge">
<title>ScaleMonitor&#45;&gt;DataWorkspaces</title>
<path fill="none" stroke="black" d="M446.27,-552.63C424.67,-542.67 397.43,-530.11 374.73,-519.65"/>
<polygon fill="black" stroke="black" points="376.26,-516.5 365.71,-515.49 373.33,-522.85 376.26,-516.5"/>
</g>
<!-- InputFiles -->
<g id="node2" class="node">
<title>InputFiles</title>
<ellipse fill="khaki" stroke="black" cx="53.95" cy="-877" rx="53.89" ry="18"/>
<text text-anchor="middle" x="53.95" y="-873.3" font-family="Helvetica,sans-Serif" font-size="14.00">InputFiles</text>
</g>
<!-- LoadFiles -->
<g id="node12" class="node">
<title>LoadFiles</title>
<path fill="lightskyblue" stroke="black" d="M322.95,-822C322.95,-822 266.95,-822 266.95,-822 260.95,-822 254.95,-816 254.95,-810 254.95,-810 254.95,-798 254.95,-798 254.95,-792 260.95,-786 266.95,-786 266.95,-786 322.95,-786 322.95,-786 328.95,-786 334.95,-792 334.95,-798 334.95,-798 334.95,-810 334.95,-810 334.95,-816 328.95,-822 322.95,-822"/>
<text text-anchor="middle" x="294.95" y="-800.3" font-family="Helvetica,sans-Serif" font-size="14.00">LoadFiles</text>
</g>
<!-- InputFiles&#45;&gt;LoadFiles -->
<g id="edge1" class="edge">
<title>InputFiles&#45;&gt;LoadFiles</title>
<path fill="none" stroke="black" d="M93.47,-864.36C134.47,-852.28 198.73,-833.35 243.62,-820.12"/>
<polygon fill="black" stroke="black" points="244.54,-823.5 253.14,-817.32 242.56,-816.78 244.54,-823.5"/>
</g>
<!-- InstrumentParFile -->
<g id="node3" class="node">
<title>InstrumentParFile</title>
<ellipse fill="khaki" stroke="black" cx="215.95" cy="-877" rx="89.88" ry="18"/>
<text text-anchor="middle" x="215.95" y="-873.3" font-family="Helvetica,sans-Serif" font-size="14.00">InstrumentParFile</text>
</g>
<!-- InstrumentParFile&#45;&gt;LoadFiles -->
<g id="edge4" class="edge">
<title>InstrumentParFile&#45;&gt;LoadFiles</title>
<path fill="none" stroke="black" d="M234.67,-859.17C244.39,-850.44 256.46,-839.59 267.23,-829.9"/>
<polygon fill="black" stroke="black" points="269.31,-832.75 274.41,-823.46 264.63,-827.54 269.31,-832.75"/>
</g>
<!-- ConvertUnits -->
<g id="node15" class="node">
<title>ConvertUnits</title>
<path fill="lightskyblue" stroke="black" d="M406.45,-429C406.45,-429 323.45,-429 323.45,-429 317.45,-429 311.45,-423 311.45,-417 311.45,-417 311.45,-405 311.45,-405 311.45,-399 317.45,-393 323.45,-393 323.45,-393 406.45,-393 406.45,-393 412.45,-393 418.45,-399 418.45,-405 418.45,-405 418.45,-417 418.45,-417 418.45,-423 412.45,-429 406.45,-429"/>
<text text-anchor="middle" x="364.95" y="-407.3" font-family="Helvetica,sans-Serif" font-size="14.00">ConvertUnits</text>
</g>
<!-- DataWorkspaces&#45;&gt;ConvertUnits -->
<g id="edge10" class="edge">
<title>DataWorkspaces&#45;&gt;ConvertUnits</title>
<path fill="none" stroke="black" d="M327.23,-479.69C326.41,-469.76 326.66,-457.26 330.95,-447 332.27,-443.82 334.04,-440.77 336.07,-437.88"/>
<polygon fill="black" stroke="black" points="338.55,-440.36 342.27,-430.44 333.18,-435.88 338.55,-440.36"/>
<text text-anchor="middle" x="400.45" y="-450.8" font-family="Helvetica,sans-Serif" font-size="14.00">ConvertTo dSpacing</text>
</g>
<!-- MonitorWorkspaces -->
<g id="node5" class="node">
<title>MonitorWorkspaces</title>
<ellipse fill="khaki" stroke="black" cx="427.95" cy="-731" rx="98.58" ry="18"/>
<text text-anchor="middle" x="427.95" y="-727.3" font-family="Helvetica,sans-Serif" font-size="14.00">MonitorWorkspaces</text>
</g>
<!-- MonitorWorkspace -->
<g id="node6" class="node">
<title>MonitorWorkspace</title>
<ellipse fill="khaki" stroke="black" cx="473.95" cy="-644" rx="94.48" ry="18"/>
<text text-anchor="middle" x="473.95" y="-640.3" font-family="Helvetica,sans-Serif" font-size="14.00">MonitorWorkspace</text>
</g>
<!-- MonitorWorkspaces&#45;&gt;MonitorWorkspace -->
<g id="edge7" class="edge">
<title>MonitorWorkspaces&#45;&gt;MonitorWorkspace</title>
<path fill="none" stroke="black" d="M437.25,-712.8C443.55,-701.16 452,-685.55 459.21,-672.24"/>
<polygon fill="black" stroke="black" points="462.25,-673.97 463.93,-663.51 456.09,-670.64 462.25,-673.97"/>
<text text-anchor="middle" x="598.45" y="-683.8" font-family="Helvetica,sans-Serif" font-size="14.00">Select next monitor workspace to process</text>
</g>
<!-- MonitorWorkspace&#45;&gt;ScaleMonitor -->
<g id="edge8" class="edge">
<title>MonitorWorkspace&#45;&gt;ScaleMonitor</title>
<path fill="none" stroke="black" d="M476.37,-625.81C477.45,-618.14 478.75,-608.89 479.97,-600.24"/>
<polygon fill="black" stroke="black" points="483.41,-600.92 481.34,-590.53 476.48,-599.94 483.41,-600.92"/>
</g>
<!-- SumFiles -->
<g id="node7" class="node">
<title>SumFiles</title>
<ellipse fill="khaki" stroke="black" cx="373.95" cy="-877" rx="50.89" ry="18"/>
<text text-anchor="middle" x="373.95" y="-873.3" font-family="Helvetica,sans-Serif" font-size="14.00">SumFiles</text>
</g>
<!-- SumFiles&#45;&gt;LoadFiles -->
<g id="edge3" class="edge">
<title>SumFiles&#45;&gt;LoadFiles</title>
<path fill="none" stroke="black" d="M356.02,-859.89C346.18,-851.04 333.76,-839.88 322.69,-829.94"/>
<polygon fill="black" stroke="black" points="325.08,-827.38 315.31,-823.3 320.4,-832.59 325.08,-827.38"/>
</g>
<!-- SpectraRange -->
<g id="node8" class="node">
<title>SpectraRange</title>
<ellipse fill="khaki" stroke="black" cx="516.95" cy="-877" rx="74.19" ry="18"/>
<text text-anchor="middle" x="516.95" y="-873.3" font-family="Helvetica,sans-Serif" font-size="14.00">SpectraRange</text>
</g>
<!-- SpectraRange&#45;&gt;LoadFiles -->
<g id="edge2" class="edge">
<title>SpectraRange&#45;&gt;LoadFiles</title>
<path fill="none" stroke="black" d="M473.35,-862.06C436.65,-850.32 384.12,-833.52 345.56,-821.19"/>
<polygon fill="black" stroke="black" points="347.11,-818.01 336.52,-818.3 344.98,-824.68 347.11,-818.01"/>
</g>
<!-- RebinParam -->
<g id="node9" class="node">
<title>RebinParam</title>
<ellipse fill="khaki" stroke="black" cx="228.95" cy="-411" rx="64.19" ry="18"/>
<text text-anchor="middle" x="228.95" y="-407.3" font-family="Helvetica,sans-Serif" font-size="14.00">RebinParam</text>
</g>
<!-- Rebin -->
<g id="node13" class="node">
<title>Rebin</title>
<path fill="lightskyblue" stroke="black" d="M380.95,-342C380.95,-342 348.95,-342 348.95,-342 342.95,-342 336.95,-336 336.95,-330 336.95,-330 336.95,-318 336.95,-318 336.95,-312 342.95,-306 348.95,-306 348.95,-306 380.95,-306 380.95,-306 386.95,-306 392.95,-312 392.95,-318 392.95,-318 392.95,-330 392.95,-330 392.95,-336 386.95,-342 380.95,-342"/>
<text text-anchor="middle" x="364.95" y="-320.3" font-family="Helvetica,sans-Serif" font-size="14.00">Rebin</text>
</g>
<!-- RebinParam&#45;&gt;Rebin -->
<g id="edge12" class="edge">
<title>RebinParam&#45;&gt;Rebin</title>
<path fill="none" stroke="black" d="M254.53,-394.01C275.13,-381.14 304.38,-362.85 327.6,-348.34"/>
<polygon fill="black" stroke="black" points="329.23,-351.45 335.86,-343.18 325.52,-345.51 329.23,-351.45"/>
</g>
<!-- GroupingPolicy -->
<g id="node10" class="node">
<title>GroupingPolicy</title>
<ellipse fill="khaki" stroke="black" cx="240.95" cy="-324" rx="77.99" ry="18"/>
<text text-anchor="middle" x="240.95" y="-320.3" font-family="Helvetica,sans-Serif" font-size="14.00">GroupingPolicy</text>
</g>
<!-- GroupSpectra -->
<g id="node16" class="node">
<title>GroupSpectra</title>
<path fill="lightskyblue" stroke="black" d="M408.95,-269C408.95,-269 320.95,-269 320.95,-269 314.95,-269 308.95,-263 308.95,-257 308.95,-257 308.95,-245 308.95,-245 308.95,-239 314.95,-233 320.95,-233 320.95,-233 408.95,-233 408.95,-233 414.95,-233 420.95,-239 420.95,-245 420.95,-245 420.95,-257 420.95,-257 420.95,-263 414.95,-269 408.95,-269"/>
<text text-anchor="middle" x="364.95" y="-247.3" font-family="Helvetica,sans-Serif" font-size="14.00">GroupSpectra</text>
</g>
<!-- GroupingPolicy&#45;&gt;GroupSpectra -->
<g id="edge14" class="edge">
<title>GroupingPolicy&#45;&gt;GroupSpectra</title>
<path fill="none" stroke="black" d="M269.08,-306.89C285.6,-297.43 306.75,-285.32 324.98,-274.89"/>
<polygon fill="black" stroke="black" points="326.5,-278.05 333.44,-270.04 323.02,-271.97 326.5,-278.05"/>
</g>
<!-- OutputWorkspace -->
<g id="node11" class="node">
<title>OutputWorkspace</title>
<ellipse fill="khaki" stroke="black" cx="441.95" cy="-18" rx="91.78" ry="18"/>
<text text-anchor="middle" x="441.95" y="-14.3" font-family="Helvetica,sans-Serif" font-size="14.00">OutputWorkspace</text>
</g>
<!-- LoadFiles&#45;&gt;DataWorkspaces -->
<g id="edge5" class="edge">
<title>LoadFiles&#45;&gt;DataWorkspaces</title>
<path fill="none" stroke="black" d="M290.34,-785.63C286.96,-771.34 282.95,-750.5 282.95,-732 282.95,-732 282.95,-732 282.95,-570 282.95,-552.99 292.44,-536.93 302.9,-524.4"/>
<polygon fill="black" stroke="black" points="305.43,-526.82 309.54,-517.05 300.24,-522.12 305.43,-526.82"/>
</g>
<!-- LoadFiles&#45;&gt;MonitorWorkspaces -->
<g id="edge6" class="edge">
<title>LoadFiles&#45;&gt;MonitorWorkspaces</title>
<path fill="none" stroke="black" d="M327.48,-785.63C345.47,-776.03 368,-764 387.16,-753.77"/>
<polygon fill="black" stroke="black" points="388.61,-756.97 395.78,-749.17 385.31,-750.79 388.61,-756.97"/>
</g>
<!-- Rebin&#45;&gt;GroupSpectra -->
<g id="edge13" class="edge">
<title>Rebin&#45;&gt;GroupSpectra</title>
<path fill="none" stroke="black" d="M364.95,-305.81C364.95,-298.23 364.95,-289.1 364.95,-280.54"/>
<polygon fill="black" stroke="black" points="368.45,-280.54 364.95,-270.54 361.45,-280.54 368.45,-280.54"/>
</g>
<!-- GroupWorkspaces -->
<g id="node14" class="node">
<title>GroupWorkspaces</title>
<path fill="lightskyblue" stroke="black" d="M500.95,-109C500.95,-109 382.95,-109 382.95,-109 376.95,-109 370.95,-103 370.95,-97 370.95,-97 370.95,-85 370.95,-85 370.95,-79 376.95,-73 382.95,-73 382.95,-73 500.95,-73 500.95,-73 506.95,-73 512.95,-79 512.95,-85 512.95,-85 512.95,-97 512.95,-97 512.95,-103 506.95,-109 500.95,-109"/>
<text text-anchor="middle" x="441.95" y="-87.3" font-family="Helvetica,sans-Serif" font-size="14.00">GroupWorkspaces</text>
</g>
<!-- GroupWorkspaces&#45;&gt;OutputWorkspace -->
<g id="edge18" class="edge">
<title>GroupWorkspaces&#45;&gt;OutputWorkspace</title>
<path fill="none" stroke="black" d="M441.95,-72.81C441.95,-65.23 441.95,-56.1 441.95,-47.54"/>
<polygon fill="black" stroke="black" points="445.45,-47.54 441.95,-37.54 438.45,-47.54 445.45,-47.54"/>
</g>
<!-- ConvertUnits&#45;&gt;Rebin -->
<g id="edge11" class="edge">
<title>ConvertUnits&#45;&gt;Rebin</title>
<path fill="none" stroke="black" d="M364.95,-392.8C364.95,-381.58 364.95,-366.67 364.95,-353.69"/>
<polygon fill="black" stroke="black" points="368.45,-353.98 364.95,-343.98 361.45,-353.98 368.45,-353.98"/>
</g>
<!-- allProcessed -->
<g id="node17" class="node">
<title>allProcessed</title>
<polygon fill="limegreen" stroke="black" points="441.95,-196 258.28,-178 441.95,-160 625.61,-178 441.95,-196"/>
<text text-anchor="middle" x="441.95" y="-174.3" font-family="Helvetica,sans-Serif" font-size="14.00">Processed all workspaces?</text>
</g>
<!-- GroupSpectra&#45;&gt;allProcessed -->
<g id="edge15" class="edge">
<title>GroupSpectra&#45;&gt;allProcessed</title>
<path fill="none" stroke="black" d="M383.58,-232.81C393.49,-223.68 405.81,-212.32 416.57,-202.4"/>
<polygon fill="black" stroke="black" points="418.7,-205.19 423.68,-195.84 413.96,-200.05 418.7,-205.19"/>
</g>
<!-- allProcessed&#45;&gt;ScaleMonitor -->
<g id="edge16" class="edge">
<title>allProcessed&#45;&gt;ScaleMonitor</title>
<path fill="none" stroke="black" d="M457.82,-194.66C469.72,-208.11 483.95,-228.66 483.95,-250 483.95,-499 483.95,-499 483.95,-499 483.95,-512.92 483.95,-528.37 483.95,-541.3"/>
<polygon fill="black" stroke="black" points="480.45,-541.27 483.95,-551.27 487.45,-541.27 480.45,-541.27"/>
<text text-anchor="middle" x="612.95" y="-363.8" font-family="Helvetica,sans-Serif" font-size="14.00">No: repeat process with next monitor</text>
</g>
<!-- allProcessed&#45;&gt;GroupWorkspaces -->
<g id="edge17" class="edge">
<title>allProcessed&#45;&gt;GroupWorkspaces</title>
<path fill="none" stroke="black" d="M441.95,-159.8C441.95,-148.58 441.95,-133.67 441.95,-120.69"/>
<polygon fill="black" stroke="black" points="445.45,-120.98 441.95,-110.98 438.45,-120.98 445.45,-120.98"/>
<text text-anchor="middle" x="569.95" y="-130.8" font-family="Helvetica,sans-Serif" font-size="14.00">Yes: Group all processed workspaces</text>
</g>
</g>
</svg>
